<?xml version="1.0" encoding="UTF-8" standalone="no"?>
<!DOCTYPE svg PUBLIC "-//W3C//DTD SVG 1.1//EN"
 "http://www.w3.org/Graphics/SVG/1.1/DTD/svg11.dtd">
<!-- Generated by graphviz version 2.38.0 (20140413.2041)
 -->
<!-- Title: bdm::experimental::neuroscience::NeuriteElement Pages: 1 -->
<svg width="268pt" height="106pt"
 viewBox="0.00 0.00 267.50 106.00" xmlns="http://www.w3.org/2000/svg" xmlns:xlink="http://www.w3.org/1999/xlink">
<g id="graph0" class="graph" transform="scale(1 1) rotate(0) translate(4 102)">
<title>bdm::experimental::neuroscience::NeuriteElement</title>
<polygon fill="white" stroke="none" points="-4,4 -4,-102 263.5,-102 263.5,4 -4,4"/>
<!-- Node1 -->
<g id="node1" class="node"><title>Node1</title>
<polygon fill="#bfbfbf" stroke="black" points="38.5,-0.5 38.5,-30.5 186.5,-30.5 186.5,-0.5 38.5,-0.5"/>
<text text-anchor="start" x="46.5" y="-18.5" font-family="Helvetica,sans-Serif" font-size="10.00">bdm::experimental::</text>
<text text-anchor="middle" x="112.5" y="-7.5" font-family="Helvetica,sans-Serif" font-size="10.00">neuroscience::NeuriteElement</text>
</g>
<!-- Node2 -->
<g id="node2" class="node"><title>Node2</title>
<g id="a_node2"><a xlink:href="classbdm_1_1SimObject.html" target="_top" xlink:title="Contains code required by all simulation objects. ">
<polygon fill="white" stroke="black" points="0,-73 0,-92 87,-92 87,-73 0,-73"/>
<text text-anchor="middle" x="43.5" y="-80" font-family="Helvetica,sans-Serif" font-size="10.00">bdm::SimObject</text>
</a>
</g>
</g>
<!-- Node2&#45;&gt;Node1 -->
<g id="edge1" class="edge"><title>Node2&#45;&gt;Node1</title>
<path fill="none" stroke="midnightblue" d="M60.3605,-65.617C71.73,-54.9065 86.5961,-40.9022 97.544,-30.589"/>
<polygon fill="midnightblue" stroke="midnightblue" points="57.6846,-63.3292 52.8056,-72.7338 62.4845,-68.4245 57.6846,-63.3292"/>
</g>
<!-- Node3 -->
<g id="node3" class="node"><title>Node3</title>
<g id="a_node3"><a xlink:href="classbdm_1_1experimental_1_1neuroscience_1_1NeuronOrNeurite.html" target="_top" xlink:title="bdm::experimental::\lneuroscience::NeuronOrNeurite">
<polygon fill="white" stroke="black" points="105.5,-67.5 105.5,-97.5 259.5,-97.5 259.5,-67.5 105.5,-67.5"/>
<text text-anchor="start" x="113.5" y="-85.5" font-family="Helvetica,sans-Serif" font-size="10.00">bdm::experimental::</text>
<text text-anchor="middle" x="182.5" y="-74.5" font-family="Helvetica,sans-Serif" font-size="10.00">neuroscience::NeuronOrNeurite</text>
</a>
</g>
</g>
<!-- Node3&#45;&gt;Node1 -->
<g id="edge2" class="edge"><title>Node3&#45;&gt;Node1</title>
<path fill="none" stroke="midnightblue" d="M159.682,-60.3115C149.181,-50.5612 137.01,-39.259 127.659,-30.5765"/>
<polygon fill="midnightblue" stroke="midnightblue" points="157.601,-63.1562 167.311,-67.396 162.365,-58.0266 157.601,-63.1562"/>
</g>
</g>
</svg>
