<?xml version="1.0" encoding="UTF-8" standalone="no"?>
<!DOCTYPE svg PUBLIC "-//W3C//DTD SVG 1.1//EN"
 "http://www.w3.org/Graphics/SVG/1.1/DTD/svg11.dtd">
<!-- Generated by graphviz version 2.40.1 (20161225.0304)
 -->
<!-- Title: core/operation Pages: 1 -->
<svg width="406pt" height="511pt"
 viewBox="0.00 0.00 406.00 511.00" xmlns="http://www.w3.org/2000/svg" xmlns:xlink="http://www.w3.org/1999/xlink">
<g id="graph0" class="graph" transform="scale(1 1) rotate(0) translate(4 507)">
<title>core/operation</title>
<polygon fill="#ffffff" stroke="transparent" points="-4,4 -4,-507 402,-507 402,4 -4,4"/>
<g id="clust1" class="cluster">
<title>clusterdir_4270bfced15e0e73154b13468c7c9ad9</title>
<g id="a_clust1"><a xlink:href="dir_4270bfced15e0e73154b13468c7c9ad9.html" target="_top" xlink:title="core">
<polygon fill="#ddddee" stroke="#000000" points="184,-424 184,-495 256,-495 256,-424 184,-424"/>
<text text-anchor="middle" x="220" y="-483" font-family="Helvetica,sans-Serif" font-size="10.00" fill="#000000">core</text>
</a>
</g>
</g>
<!-- dir_087ef7b4b2bc9758818ca5b5acc1bcc7 -->
<g id="node1" class="node">
<title>dir_087ef7b4b2bc9758818ca5b5acc1bcc7</title>
<g id="a_node1"><a xlink:href="dir_087ef7b4b2bc9758818ca5b5acc1bcc7.html" target="_top" xlink:title="operation">
<polygon fill="#eeeeff" stroke="#000000" points="248,-468 192,-468 192,-432 248,-432 248,-468"/>
<text text-anchor="middle" x="220" y="-447.5" font-family="Helvetica,sans-Serif" font-size="10.00" fill="#000000">operation</text>
</a>
</g>
</g>
<!-- dir_1194f1e4283959aa8e4c16c774981ba1 -->
<g id="node2" class="node">
<title>dir_1194f1e4283959aa8e4c16c774981ba1</title>
<g id="a_node2"><a xlink:href="dir_1194f1e4283959aa8e4c16c774981ba1.html" target="_top" xlink:title="gpu">
<polygon fill="none" stroke="#000000" points="128,-396 74,-396 74,-360 128,-360 128,-396"/>
<text text-anchor="middle" x="101" y="-375.5" font-family="Helvetica,sans-Serif" font-size="10.00" fill="#000000">gpu</text>
</a>
</g>
</g>
<!-- dir_087ef7b4b2bc9758818ca5b5acc1bcc7&#45;&gt;dir_1194f1e4283959aa8e4c16c774981ba1 -->
<g id="edge20" class="edge">
<title>dir_087ef7b4b2bc9758818ca5b5acc1bcc7&#45;&gt;dir_1194f1e4283959aa8e4c16c774981ba1</title>
<path fill="none" stroke="#000000" d="M191.7987,-432.937C175.4108,-423.0216 154.5946,-410.427 137.0287,-399.7989"/>
<polygon fill="#000000" stroke="#000000" points="138.5475,-396.6271 128.1798,-394.4449 134.9238,-402.6162 138.5475,-396.6271"/>
<g id="a_edge20&#45;headlabel"><a xlink:href="dir_000010_000008.html" target="_top" xlink:title="1">
<text text-anchor="middle" x="143.0927" y="-393.5586" font-family="Helvetica,sans-Serif" font-size="10.00" fill="#000000">1</text>
</a>
</g>
</g>
<!-- dir_459a7c9a427a2877b0db19c6b8d6e89d -->
<g id="node3" class="node">
<title>dir_459a7c9a427a2877b0db19c6b8d6e89d</title>
<g id="a_node3"><a xlink:href="dir_459a7c9a427a2877b0db19c6b8d6e89d.html" target="_top" xlink:title="util">
<polygon fill="none" stroke="#000000" points="180,-324 126,-324 126,-288 180,-288 180,-324"/>
<text text-anchor="middle" x="153" y="-303.5" font-family="Helvetica,sans-Serif" font-size="10.00" fill="#000000">util</text>
</a>
</g>
</g>
<!-- dir_087ef7b4b2bc9758818ca5b5acc1bcc7&#45;&gt;dir_459a7c9a427a2877b0db19c6b8d6e89d -->
<g id="edge21" class="edge">
<title>dir_087ef7b4b2bc9758818ca5b5acc1bcc7&#45;&gt;dir_459a7c9a427a2877b0db19c6b8d6e89d</title>
<path fill="none" stroke="#000000" d="M200.9782,-431.542C191.8961,-421.757 181.5961,-409.0746 175,-396 165.1886,-376.5521 159.6011,-352.4949 156.5144,-334.147"/>
<polygon fill="#000000" stroke="#000000" points="159.9465,-333.4367 154.9729,-324.0819 153.0272,-334.4965 159.9465,-333.4367"/>
<g id="a_edge21&#45;headlabel"><a xlink:href="dir_000010_000015.html" target="_top" xlink:title="10">
<text text-anchor="middle" x="163.2971" y="-334.0601" font-family="Helvetica,sans-Serif" font-size="10.00" fill="#000000">10</text>
</a>
</g>
</g>
<!-- dir_8417c195086d4ff6acfc795544c5eeb6 -->
<g id="node4" class="node">
<title>dir_8417c195086d4ff6acfc795544c5eeb6</title>
<g id="a_node4"><a xlink:href="dir_8417c195086d4ff6acfc795544c5eeb6.html" target="_top" xlink:title="sim_object">
<polygon fill="none" stroke="#000000" points="238,-180 174,-180 174,-144 238,-144 238,-180"/>
<text text-anchor="middle" x="206" y="-159.5" font-family="Helvetica,sans-Serif" font-size="10.00" fill="#000000">sim_object</text>
</a>
</g>
</g>
<!-- dir_087ef7b4b2bc9758818ca5b5acc1bcc7&#45;&gt;dir_8417c195086d4ff6acfc795544c5eeb6 -->
<g id="edge22" class="edge">
<title>dir_087ef7b4b2bc9758818ca5b5acc1bcc7&#45;&gt;dir_8417c195086d4ff6acfc795544c5eeb6</title>
<path fill="none" stroke="#000000" d="M248.1672,-432.8946C260.9372,-423.6149 274.9512,-410.9722 283,-396 321.0691,-325.1851 341.4333,-285.4921 301,-216 289.4392,-196.1306 267.5388,-182.9726 247.6769,-174.6241"/>
<polygon fill="#000000" stroke="#000000" points="248.7327,-171.2791 238.1445,-170.9037 246.1876,-177.8 248.7327,-171.2791"/>
<g id="a_edge22&#45;headlabel"><a xlink:href="dir_000010_000012.html" target="_top" xlink:title="7">
<text text-anchor="middle" x="253.1135" y="-167.441" font-family="Helvetica,sans-Serif" font-size="10.00" fill="#000000">7</text>
</a>
</g>
</g>
<!-- dir_bc6016157ccda3b72fdae555a0f34277 -->
<g id="node5" class="node">
<title>dir_bc6016157ccda3b72fdae555a0f34277</title>
<g id="a_node5"><a xlink:href="dir_bc6016157ccda3b72fdae555a0f34277.html" target="_top" xlink:title="environment">
<polygon fill="none" stroke="#000000" points="241,-108 171,-108 171,-72 241,-72 241,-108"/>
<text text-anchor="middle" x="206" y="-87.5" font-family="Helvetica,sans-Serif" font-size="10.00" fill="#000000">environment</text>
</a>
</g>
</g>
<!-- dir_087ef7b4b2bc9758818ca5b5acc1bcc7&#45;&gt;dir_bc6016157ccda3b72fdae555a0f34277 -->
<g id="edge23" class="edge">
<title>dir_087ef7b4b2bc9758818ca5b5acc1bcc7&#45;&gt;dir_bc6016157ccda3b72fdae555a0f34277</title>
<path fill="none" stroke="#000000" d="M248.2046,-441.679C298.3958,-424.9357 398,-382.1193 398,-306 398,-306 398,-306 398,-234 398,-160.8896 307.801,-120.3511 251.0496,-102.0806"/>
<polygon fill="#000000" stroke="#000000" points="251.8038,-98.6501 241.2158,-99.0282 249.7287,-105.3354 251.8038,-98.6501"/>
<g id="a_edge23&#45;headlabel"><a xlink:href="dir_000010_000003.html" target="_top" xlink:title="4">
<text text-anchor="middle" x="256.0785" y="-94.5039" font-family="Helvetica,sans-Serif" font-size="10.00" fill="#000000">4</text>
</a>
</g>
</g>
<!-- dir_1b63f22ff36ffa98be356425464e796a -->
<g id="node6" class="node">
<title>dir_1b63f22ff36ffa98be356425464e796a</title>
<g id="a_node6"><a xlink:href="dir_1b63f22ff36ffa98be356425464e796a.html" target="_top" xlink:title="container">
<polygon fill="none" stroke="#000000" points="292,-252 236,-252 236,-216 292,-216 292,-252"/>
<text text-anchor="middle" x="264" y="-231.5" font-family="Helvetica,sans-Serif" font-size="10.00" fill="#000000">container</text>
</a>
</g>
</g>
<!-- dir_087ef7b4b2bc9758818ca5b5acc1bcc7&#45;&gt;dir_1b63f22ff36ffa98be356425464e796a -->
<g id="edge24" class="edge">
<title>dir_087ef7b4b2bc9758818ca5b5acc1bcc7&#45;&gt;dir_1b63f22ff36ffa98be356425464e796a</title>
<path fill="none" stroke="#000000" d="M240.4026,-431.5625C249.4941,-421.9675 259.2162,-409.4441 264,-396 279.9095,-351.2885 274.846,-295.1366 269.5455,-262.0511"/>
<polygon fill="#000000" stroke="#000000" points="272.9892,-261.4241 267.8426,-252.1633 266.0907,-262.6123 272.9892,-261.4241"/>
<g id="a_edge24&#45;headlabel"><a xlink:href="dir_000010_000002.html" target="_top" xlink:title="1">
<text text-anchor="middle" x="276.3973" y="-261.9847" font-family="Helvetica,sans-Serif" font-size="10.00" fill="#000000">1</text>
</a>
</g>
</g>
<!-- dir_495c398245f1b03c2187e57d110c3617 -->
<g id="node7" class="node">
<title>dir_495c398245f1b03c2187e57d110c3617</title>
<g id="a_node7"><a xlink:href="dir_495c398245f1b03c2187e57d110c3617.html" target="_top" xlink:title="visualization">
<polygon fill="#ffffff" stroke="#ff0000" points="255.5,-396 184.5,-396 184.5,-360 255.5,-360 255.5,-396"/>
<text text-anchor="middle" x="220" y="-375.5" font-family="Helvetica,sans-Serif" font-size="10.00" fill="#000000">visualization</text>
</a>
</g>
</g>
<!-- dir_087ef7b4b2bc9758818ca5b5acc1bcc7&#45;&gt;dir_495c398245f1b03c2187e57d110c3617 -->
<g id="edge25" class="edge">
<title>dir_087ef7b4b2bc9758818ca5b5acc1bcc7&#45;&gt;dir_495c398245f1b03c2187e57d110c3617</title>
<path fill="none" stroke="#000000" d="M220,-431.8314C220,-424.131 220,-414.9743 220,-406.4166"/>
<polygon fill="#000000" stroke="#000000" points="223.5001,-406.4132 220,-396.4133 216.5001,-406.4133 223.5001,-406.4132"/>
<g id="a_edge25&#45;headlabel"><a xlink:href="dir_000010_000013.html" target="_top" xlink:title="1">
<text text-anchor="middle" x="226.3393" y="-407.5079" font-family="Helvetica,sans-Serif" font-size="10.00" fill="#000000">1</text>
</a>
</g>
</g>
<!-- dir_7155ef3ffc36b95c2fce4bd5b1f8d366 -->
<g id="node8" class="node">
<title>dir_7155ef3ffc36b95c2fce4bd5b1f8d366</title>
<g id="a_node8"><a xlink:href="dir_7155ef3ffc36b95c2fce4bd5b1f8d366.html" target="_top" xlink:title="param">
<polygon fill="none" stroke="#000000" points="112,-36 58,-36 58,0 112,0 112,-36"/>
<text text-anchor="middle" x="85" y="-15.5" font-family="Helvetica,sans-Serif" font-size="10.00" fill="#000000">param</text>
</a>
</g>
</g>
<!-- dir_087ef7b4b2bc9758818ca5b5acc1bcc7&#45;&gt;dir_7155ef3ffc36b95c2fce4bd5b1f8d366 -->
<g id="edge26" class="edge">
<title>dir_087ef7b4b2bc9758818ca5b5acc1bcc7&#45;&gt;dir_7155ef3ffc36b95c2fce4bd5b1f8d366</title>
<path fill="none" stroke="#000000" d="M191.6892,-445.1834C132.2707,-433.2822 0,-396.6129 0,-306 0,-306 0,-306 0,-162 0,-115.4968 33.281,-70.8088 58.193,-43.8723"/>
<polygon fill="#000000" stroke="#000000" points="60.9206,-46.0835 65.2856,-36.4296 55.8531,-41.2543 60.9206,-46.0835"/>
<g id="a_edge26&#45;headlabel"><a xlink:href="dir_000010_000011.html" target="_top" xlink:title="3">
<text text-anchor="middle" x="60.4961" y="-48.1444" font-family="Helvetica,sans-Serif" font-size="10.00" fill="#000000">3</text>
</a>
</g>
</g>
<!-- dir_1194f1e4283959aa8e4c16c774981ba1&#45;&gt;dir_459a7c9a427a2877b0db19c6b8d6e89d -->
<g id="edge1" class="edge">
<title>dir_1194f1e4283959aa8e4c16c774981ba1&#45;&gt;dir_459a7c9a427a2877b0db19c6b8d6e89d</title>
<path fill="none" stroke="#000000" d="M114.1218,-359.8314C120.0499,-351.6232 127.1729,-341.7606 133.6933,-332.7323"/>
<polygon fill="#000000" stroke="#000000" points="136.684,-334.5693 139.7015,-324.4133 131.0092,-330.4708 136.684,-334.5693"/>
<g id="a_edge1&#45;headlabel"><a xlink:href="dir_000008_000015.html" target="_top" xlink:title="3">
<text text-anchor="middle" x="136.8811" y="-336.6457" font-family="Helvetica,sans-Serif" font-size="10.00" fill="#000000">3</text>
</a>
</g>
</g>
<!-- dir_1194f1e4283959aa8e4c16c774981ba1&#45;&gt;dir_7155ef3ffc36b95c2fce4bd5b1f8d366 -->
<g id="edge2" class="edge">
<title>dir_1194f1e4283959aa8e4c16c774981ba1&#45;&gt;dir_7155ef3ffc36b95c2fce4bd5b1f8d366</title>
<path fill="none" stroke="#000000" d="M87.0183,-359.5693C68.4579,-333.217 38,-282.5724 38,-234 38,-234 38,-234 38,-162 38,-119.6562 56.5932,-73.6118 70.3906,-45.273"/>
<polygon fill="#000000" stroke="#000000" points="73.6755,-46.5304 75.0325,-36.0228 67.4191,-43.3907 73.6755,-46.5304"/>
<g id="a_edge2&#45;headlabel"><a xlink:href="dir_000008_000011.html" target="_top" xlink:title="1">
<text text-anchor="middle" x="74.601" y="-48.5166" font-family="Helvetica,sans-Serif" font-size="10.00" fill="#000000">1</text>
</a>
</g>
</g>
<!-- dir_459a7c9a427a2877b0db19c6b8d6e89d&#45;&gt;dir_1b63f22ff36ffa98be356425464e796a -->
<g id="edge3" class="edge">
<title>dir_459a7c9a427a2877b0db19c6b8d6e89d&#45;&gt;dir_1b63f22ff36ffa98be356425464e796a</title>
<path fill="none" stroke="#000000" d="M175.0576,-287.8314C189.9154,-277.5435 209.7255,-264.6565 226.9326,-254.071"/>
<polygon fill="#000000" stroke="#000000" points="228.9254,-256.9556 235.6535,-248.7712 225.29,-250.9736 228.9254,-256.9556"/>
<g id="a_edge3&#45;headlabel"><a xlink:href="dir_000015_000002.html" target="_top" xlink:title="3">
<text text-anchor="middle" x="227.3281" y="-258.7487" font-family="Helvetica,sans-Serif" font-size="10.00" fill="#000000">3</text>
</a>
</g>
</g>
<!-- dir_459a7c9a427a2877b0db19c6b8d6e89d&#45;&gt;dir_7155ef3ffc36b95c2fce4bd5b1f8d366 -->
<g id="edge4" class="edge">
<title>dir_459a7c9a427a2877b0db19c6b8d6e89d&#45;&gt;dir_7155ef3ffc36b95c2fce4bd5b1f8d366</title>
<path fill="none" stroke="#000000" d="M145.2596,-287.9843C129.6669,-239.2939 97.6707,-104.7961 87.4184,-46.0573"/>
<polygon fill="#000000" stroke="#000000" points="90.8424,-45.3084 85.766,-36.0089 83.9351,-46.4443 90.8424,-45.3084"/>
<g id="a_edge4&#45;headlabel"><a xlink:href="dir_000015_000011.html" target="_top" xlink:title="1">
<text text-anchor="middle" x="94.2272" y="-45.8947" font-family="Helvetica,sans-Serif" font-size="10.00" fill="#000000">1</text>
</a>
</g>
</g>
<!-- dir_8417c195086d4ff6acfc795544c5eeb6&#45;&gt;dir_459a7c9a427a2877b0db19c6b8d6e89d -->
<g id="edge5" class="edge">
<title>dir_8417c195086d4ff6acfc795544c5eeb6&#45;&gt;dir_459a7c9a427a2877b0db19c6b8d6e89d</title>
<path fill="none" stroke="#000000" d="M199.342,-180.0896C190.2515,-204.7884 173.8712,-249.2933 163.2198,-278.2331"/>
<polygon fill="#000000" stroke="#000000" points="159.882,-277.1688 159.7125,-287.7623 166.4512,-279.5867 159.882,-277.1688"/>
<g id="a_edge5&#45;headlabel"><a xlink:href="dir_000012_000015.html" target="_top" xlink:title="13">
<text text-anchor="middle" x="158.459" y="-270.3148" font-family="Helvetica,sans-Serif" font-size="10.00" fill="#000000">13</text>
</a>
</g>
</g>
<!-- dir_8417c195086d4ff6acfc795544c5eeb6&#45;&gt;dir_bc6016157ccda3b72fdae555a0f34277 -->
<g id="edge6" class="edge">
<title>dir_8417c195086d4ff6acfc795544c5eeb6&#45;&gt;dir_bc6016157ccda3b72fdae555a0f34277</title>
<path fill="none" stroke="#000000" d="M200.0476,-143.8314C199.2972,-136.131 199.0763,-126.9743 199.3849,-118.4166"/>
<polygon fill="#000000" stroke="#000000" points="202.8792,-118.6161 200.024,-108.4133 195.8935,-118.1697 202.8792,-118.6161"/>
<g id="a_edge6&#45;headlabel"><a xlink:href="dir_000012_000003.html" target="_top" xlink:title="1">
<text text-anchor="middle" x="205.4836" y="-119.8844" font-family="Helvetica,sans-Serif" font-size="10.00" fill="#000000">1</text>
</a>
</g>
</g>
<!-- dir_8417c195086d4ff6acfc795544c5eeb6&#45;&gt;dir_1b63f22ff36ffa98be356425464e796a -->
<g id="edge7" class="edge">
<title>dir_8417c195086d4ff6acfc795544c5eeb6&#45;&gt;dir_1b63f22ff36ffa98be356425464e796a</title>
<path fill="none" stroke="#000000" d="M226.8089,-180.4133C234.2352,-188.654 242.3728,-198.5245 249.2167,-207.536"/>
<polygon fill="#000000" stroke="#000000" points="246.5727,-209.8484 255.3165,-215.8314 252.2122,-205.7015 246.5727,-209.8484"/>
<g id="a_edge7&#45;headlabel"><a xlink:href="dir_000012_000002.html" target="_top" xlink:title="5">
<text text-anchor="middle" x="242.1558" y="-206.1345" font-family="Helvetica,sans-Serif" font-size="10.00" fill="#000000">5</text>
</a>
</g>
</g>
<!-- dir_8417c195086d4ff6acfc795544c5eeb6&#45;&gt;dir_7155ef3ffc36b95c2fce4bd5b1f8d366 -->
<g id="edge8" class="edge">
<title>dir_8417c195086d4ff6acfc795544c5eeb6&#45;&gt;dir_7155ef3ffc36b95c2fce4bd5b1f8d366</title>
<path fill="none" stroke="#000000" d="M190.6753,-143.7623C169.4915,-118.5518 131.1399,-72.9103 106.9272,-44.0952"/>
<polygon fill="#000000" stroke="#000000" points="109.3131,-41.494 100.2003,-36.0896 103.9539,-45.9973 109.3131,-41.494"/>
<g id="a_edge8&#45;headlabel"><a xlink:href="dir_000012_000011.html" target="_top" xlink:title="1">
<text text-anchor="middle" x="113.7993" y="-39.9195" font-family="Helvetica,sans-Serif" font-size="10.00" fill="#000000">1</text>
</a>
</g>
</g>
<!-- dir_bc6016157ccda3b72fdae555a0f34277&#45;&gt;dir_459a7c9a427a2877b0db19c6b8d6e89d -->
<g id="edge9" class="edge">
<title>dir_bc6016157ccda3b72fdae555a0f34277&#45;&gt;dir_459a7c9a427a2877b0db19c6b8d6e89d</title>
<path fill="none" stroke="#000000" d="M187.8124,-108.3421C179.3192,-118.0976 169.998,-130.7886 165,-144 148.2346,-188.3164 148.3064,-244.2389 150.3364,-277.4465"/>
<polygon fill="#000000" stroke="#000000" points="146.8716,-278.064 151.0784,-287.7878 153.8537,-277.563 146.8716,-278.064"/>
<g id="a_edge9&#45;headlabel"><a xlink:href="dir_000003_000015.html" target="_top" xlink:title="2">
<text text-anchor="middle" x="143.7825" y="-272.1818" font-family="Helvetica,sans-Serif" font-size="10.00" fill="#000000">2</text>
</a>
</g>
</g>
<!-- dir_bc6016157ccda3b72fdae555a0f34277&#45;&gt;dir_8417c195086d4ff6acfc795544c5eeb6 -->
<g id="edge10" class="edge">
<title>dir_bc6016157ccda3b72fdae555a0f34277&#45;&gt;dir_8417c195086d4ff6acfc795544c5eeb6</title>
<path fill="none" stroke="#000000" d="M211.976,-108.4133C212.7071,-116.0593 212.9203,-125.1084 212.6155,-133.5726"/>
<polygon fill="#000000" stroke="#000000" points="209.1048,-133.6264 211.9524,-143.8314 216.0902,-134.078 209.1048,-133.6264"/>
<g id="a_edge10&#45;headlabel"><a xlink:href="dir_000003_000012.html" target="_top" xlink:title="1">
<text text-anchor="middle" x="206.5032" y="-127.3562" font-family="Helvetica,sans-Serif" font-size="10.00" fill="#000000">1</text>
</a>
</g>
</g>
<!-- dir_bc6016157ccda3b72fdae555a0f34277&#45;&gt;dir_1b63f22ff36ffa98be356425464e796a -->
<g id="edge11" class="edge">
<title>dir_bc6016157ccda3b72fdae555a0f34277&#45;&gt;dir_1b63f22ff36ffa98be356425464e796a</title>
<path fill="none" stroke="#000000" d="M223.1483,-108.1096C231.5851,-117.9968 241.1699,-130.876 247,-144 255.6882,-163.558 259.9398,-187.4266 262.0183,-205.6678"/>
<polygon fill="#000000" stroke="#000000" points="258.5414,-206.0754 263.0081,-215.6826 265.5075,-205.3868 258.5414,-206.0754"/>
<g id="a_edge11&#45;headlabel"><a xlink:href="dir_000003_000002.html" target="_top" xlink:title="6">
<text text-anchor="middle" x="255.3625" y="-200.2774" font-family="Helvetica,sans-Serif" font-size="10.00" fill="#000000">6</text>
</a>
</g>
</g>
<!-- dir_bc6016157ccda3b72fdae555a0f34277&#45;&gt;dir_7155ef3ffc36b95c2fce4bd5b1f8d366 -->
<g id="edge12" class="edge">
<title>dir_bc6016157ccda3b72fdae555a0f34277&#45;&gt;dir_7155ef3ffc36b95c2fce4bd5b1f8d366</title>
<path fill="none" stroke="#000000" d="M175.4666,-71.8314C158.8928,-61.9692 138.3048,-49.7186 120.9581,-39.3965"/>
<polygon fill="#000000" stroke="#000000" points="122.6042,-36.3033 112.2207,-34.1975 119.0246,-42.3189 122.6042,-36.3033"/>
<g id="a_edge12&#45;headlabel"><a xlink:href="dir_000003_000011.html" target="_top" xlink:title="1">
<text text-anchor="middle" x="127.1451" y="-33.2014" font-family="Helvetica,sans-Serif" font-size="10.00" fill="#000000">1</text>
</a>
</g>
</g>
<!-- dir_1b63f22ff36ffa98be356425464e796a&#45;&gt;dir_459a7c9a427a2877b0db19c6b8d6e89d -->
<g id="edge13" class="edge">
<title>dir_1b63f22ff36ffa98be356425464e796a&#45;&gt;dir_459a7c9a427a2877b0db19c6b8d6e89d</title>
<path fill="none" stroke="#000000" d="M242.0148,-252.1185C226.836,-262.6314 206.4645,-275.8712 188.9823,-286.5956"/>
<polygon fill="#000000" stroke="#000000" points="186.887,-283.7727 180.1464,-291.9468 190.5132,-289.7603 186.887,-283.7727"/>
<g id="a_edge13&#45;headlabel"><a xlink:href="dir_000002_000015.html" target="_top" xlink:title="6">
<text text-anchor="middle" x="188.4909" y="-276.982" font-family="Helvetica,sans-Serif" font-size="10.00" fill="#000000">6</text>
</a>
</g>
</g>
<!-- dir_1b63f22ff36ffa98be356425464e796a&#45;&gt;dir_8417c195086d4ff6acfc795544c5eeb6 -->
<g id="edge14" class="edge">
<title>dir_1b63f22ff36ffa98be356425464e796a&#45;&gt;dir_8417c195086d4ff6acfc795544c5eeb6</title>
<path fill="none" stroke="#000000" d="M243.4118,-215.8314C235.9998,-207.6232 227.8566,-197.7606 220.9872,-188.7323"/>
<polygon fill="#000000" stroke="#000000" points="223.6069,-186.3873 214.8569,-180.4133 217.9716,-190.5399 223.6069,-186.3873"/>
<g id="a_edge14&#45;headlabel"><a xlink:href="dir_000002_000012.html" target="_top" xlink:title="1">
<text text-anchor="middle" x="228.025" y="-185.0967" font-family="Helvetica,sans-Serif" font-size="10.00" fill="#000000">1</text>
</a>
</g>
</g>
<!-- dir_495c398245f1b03c2187e57d110c3617&#45;&gt;dir_459a7c9a427a2877b0db19c6b8d6e89d -->
<g id="edge15" class="edge">
<title>dir_495c398245f1b03c2187e57d110c3617&#45;&gt;dir_459a7c9a427a2877b0db19c6b8d6e89d</title>
<path fill="none" stroke="#000000" d="M203.0931,-359.8314C195.2187,-351.3694 185.708,-341.1489 177.0987,-331.8971"/>
<polygon fill="#000000" stroke="#000000" points="179.5092,-329.3497 170.1346,-324.4133 174.3847,-334.1183 179.5092,-329.3497"/>
<g id="a_edge15&#45;headlabel"><a xlink:href="dir_000013_000015.html" target="_top" xlink:title="5">
<text text-anchor="middle" x="184.0364" y="-327.547" font-family="Helvetica,sans-Serif" font-size="10.00" fill="#000000">5</text>
</a>
</g>
</g>
<!-- dir_495c398245f1b03c2187e57d110c3617&#45;&gt;dir_8417c195086d4ff6acfc795544c5eeb6 -->
<g id="edge16" class="edge">
<title>dir_495c398245f1b03c2187e57d110c3617&#45;&gt;dir_8417c195086d4ff6acfc795544c5eeb6</title>
<path fill="none" stroke="#000000" d="M218.8304,-359.9555C216.3907,-322.3144 210.7436,-235.1867 207.8229,-190.1246"/>
<polygon fill="#000000" stroke="#000000" points="211.3156,-189.8977 207.1761,-180.1451 204.3303,-190.3505 211.3156,-189.8977"/>
<g id="a_edge16&#45;headlabel"><a xlink:href="dir_000013_000012.html" target="_top" xlink:title="2">
<text text-anchor="middle" x="214.3814" y="-190.8012" font-family="Helvetica,sans-Serif" font-size="10.00" fill="#000000">2</text>
</a>
</g>
</g>
<!-- dir_495c398245f1b03c2187e57d110c3617&#45;&gt;dir_1b63f22ff36ffa98be356425464e796a -->
<g id="edge17" class="edge">
<title>dir_495c398245f1b03c2187e57d110c3617&#45;&gt;dir_1b63f22ff36ffa98be356425464e796a</title>
<path fill="none" stroke="#000000" d="M225.5726,-359.7623C233.1105,-335.0928 246.6262,-290.8598 255.4527,-261.9731"/>
<polygon fill="#000000" stroke="#000000" points="258.8976,-262.6759 258.4726,-252.0896 252.2031,-260.6303 258.8976,-262.6759"/>
<g id="a_edge17&#45;headlabel"><a xlink:href="dir_000013_000002.html" target="_top" xlink:title="1">
<text text-anchor="middle" x="260.5626" y="-264.4433" font-family="Helvetica,sans-Serif" font-size="10.00" fill="#000000">1</text>
</a>
</g>
</g>
<!-- dir_495c398245f1b03c2187e57d110c3617&#45;&gt;dir_7155ef3ffc36b95c2fce4bd5b1f8d366 -->
<g id="edge18" class="edge">
<title>dir_495c398245f1b03c2187e57d110c3617&#45;&gt;dir_7155ef3ffc36b95c2fce4bd5b1f8d366</title>
<path fill="none" stroke="#000000" d="M236.8049,-359.6893C256.7183,-336.6047 288.7407,-294.7456 301,-252 319.8141,-186.3991 256.4952,-78.3406 250,-72 215.4507,-38.2733 159.5343,-25.6111 122.5185,-20.8574"/>
<polygon fill="#000000" stroke="#000000" points="122.4817,-17.3303 112.148,-19.6682 121.6841,-24.2847 122.4817,-17.3303"/>
<g id="a_edge18&#45;headlabel"><a xlink:href="dir_000013_000011.html" target="_top" xlink:title="4">
<text text-anchor="middle" x="126.3763" y="-12.419" font-family="Helvetica,sans-Serif" font-size="10.00" fill="#000000">4</text>
</a>
</g>
</g>
<!-- dir_7155ef3ffc36b95c2fce4bd5b1f8d366&#45;&gt;dir_459a7c9a427a2877b0db19c6b8d6e89d -->
<g id="edge19" class="edge">
<title>dir_7155ef3ffc36b95c2fce4bd5b1f8d366&#45;&gt;dir_459a7c9a427a2877b0db19c6b8d6e89d</title>
<path fill="none" stroke="#000000" d="M92.7382,-36.0089C108.3293,-84.6912 140.3259,-219.1886 150.5801,-277.9345"/>
<polygon fill="#000000" stroke="#000000" points="147.1564,-278.6849 152.2329,-287.9843 154.0636,-277.5488 147.1564,-278.6849"/>
<g id="a_edge19&#45;headlabel"><a xlink:href="dir_000011_000015.html" target="_top" xlink:title="7">
<text text-anchor="middle" x="143.7715" y="-273.0986" font-family="Helvetica,sans-Serif" font-size="10.00" fill="#000000">7</text>
</a>
</g>
</g>
</g>
</svg>
