<?xml version="1.0" encoding="UTF-8" standalone="no"?>
<!DOCTYPE svg PUBLIC "-//W3C//DTD SVG 1.1//EN"
 "http://www.w3.org/Graphics/SVG/1.1/DTD/svg11.dtd">
<!-- Generated by graphviz version 2.40.1 (20161225.0304)
 -->
<!-- Title: neuroscience/param.cc Pages: 1 -->
<svg width="602pt" height="364pt"
 viewBox="0.00 0.00 601.50 364.00" xmlns="http://www.w3.org/2000/svg" xmlns:xlink="http://www.w3.org/1999/xlink">
<g id="graph0" class="graph" transform="scale(1 1) rotate(0) translate(4 360)">
<title>neuroscience/param.cc</title>
<polygon fill="#ffffff" stroke="transparent" points="-4,4 -4,-360 597.5,-360 597.5,4 -4,4"/>
<!-- Node0 -->
<g id="node1" class="node">
<title>Node0</title>
<polygon fill="#bfbfbf" stroke="#000000" points="242,-336.5 242,-355.5 360,-355.5 360,-336.5 242,-336.5"/>
<text text-anchor="middle" x="301" y="-343.5" font-family="Helvetica,sans-Serif" font-size="10.00" fill="#000000">neuroscience/param.cc</text>
</g>
<!-- Node1 -->
<g id="node2" class="node">
<title>Node1</title>
<g id="a_node2"><a xlink:href="neuroscience_2param_8h.html" target="_top" xlink:title="neuroscience/param.h">
<polygon fill="#ffffff" stroke="#000000" points="183.5,-280.5 183.5,-299.5 296.5,-299.5 296.5,-280.5 183.5,-280.5"/>
<text text-anchor="middle" x="240" y="-287.5" font-family="Helvetica,sans-Serif" font-size="10.00" fill="#000000">neuroscience/param.h</text>
</a>
</g>
</g>
<!-- Node0&#45;&gt;Node1 -->
<g id="edge1" class="edge">
<title>Node0&#45;&gt;Node1</title>
<path fill="none" stroke="#191970" d="M290.3746,-336.2455C281.4527,-328.0549 268.512,-316.1749 257.9808,-306.5069"/>
<polygon fill="#191970" stroke="#191970" points="260.2371,-303.8271 250.5036,-299.6427 255.5032,-308.9837 260.2371,-303.8271"/>
</g>
<!-- Node20 -->
<g id="node21" class="node">
<title>Node20</title>
<g id="a_node21"><a xlink:href="cpptoml_8h.html" target="_top" xlink:title="core/util/cpptoml.h">
<polygon fill="#ffffff" stroke="#000000" points="314.5,-280.5 314.5,-299.5 411.5,-299.5 411.5,-280.5 314.5,-280.5"/>
<text text-anchor="middle" x="363" y="-287.5" font-family="Helvetica,sans-Serif" font-size="10.00" fill="#000000">core/util/cpptoml.h</text>
</a>
</g>
</g>
<!-- Node0&#45;&gt;Node20 -->
<g id="edge25" class="edge">
<title>Node0&#45;&gt;Node20</title>
<path fill="none" stroke="#191970" d="M311.7996,-336.2455C320.8678,-328.0549 334.0206,-316.1749 344.7245,-306.5069"/>
<polygon fill="#191970" stroke="#191970" points="347.2491,-308.9429 352.3242,-299.6427 342.5571,-303.7482 347.2491,-308.9429"/>
</g>
<!-- Node2 -->
<g id="node3" class="node">
<title>Node2</title>
<polygon fill="#ffffff" stroke="#bfbfbf" points="0,-224.5 0,-243.5 56,-243.5 56,-224.5 0,-224.5"/>
<text text-anchor="middle" x="28" y="-231.5" font-family="Helvetica,sans-Serif" font-size="10.00" fill="#000000">cinttypes</text>
</g>
<!-- Node1&#45;&gt;Node2 -->
<g id="edge2" class="edge">
<title>Node1&#45;&gt;Node2</title>
<path fill="none" stroke="#191970" d="M203.5559,-280.3733C165.1936,-270.2398 105.0697,-254.358 66.0962,-244.0632"/>
<polygon fill="#191970" stroke="#191970" points="66.7476,-240.6152 56.1853,-241.4452 64.9598,-247.3831 66.7476,-240.6152"/>
</g>
<!-- Node3 -->
<g id="node4" class="node">
<title>Node3</title>
<polygon fill="#ffffff" stroke="#bfbfbf" points="203,-168.5 203,-187.5 255,-187.5 255,-168.5 203,-168.5"/>
<text text-anchor="middle" x="229" y="-175.5" font-family="Helvetica,sans-Serif" font-size="10.00" fill="#000000">memory</text>
</g>
<!-- Node1&#45;&gt;Node3 -->
<g id="edge3" class="edge">
<title>Node1&#45;&gt;Node3</title>
<path fill="none" stroke="#191970" d="M223.2627,-280.2988C211.2416,-272.2823 195.977,-259.6887 189,-244 181.1265,-226.2953 194.9136,-207.5316 208.4013,-194.5553"/>
<polygon fill="#191970" stroke="#191970" points="211.0193,-196.9096 216.1421,-187.6356 206.3541,-191.6908 211.0193,-196.9096"/>
</g>
<!-- Node4 -->
<g id="node5" class="node">
<title>Node4</title>
<polygon fill="#ffffff" stroke="#bfbfbf" points="112,-224.5 112,-243.5 142,-243.5 142,-224.5 112,-224.5"/>
<text text-anchor="middle" x="127" y="-231.5" font-family="Helvetica,sans-Serif" font-size="10.00" fill="#000000">set</text>
</g>
<!-- Node1&#45;&gt;Node4 -->
<g id="edge4" class="edge">
<title>Node1&#45;&gt;Node4</title>
<path fill="none" stroke="#191970" d="M220.5746,-280.3733C201.3994,-270.8705 172.0238,-256.3127 151.3103,-246.0476"/>
<polygon fill="#191970" stroke="#191970" points="152.7099,-242.835 142.1957,-241.5306 149.6016,-249.1071 152.7099,-242.835"/>
</g>
<!-- Node5 -->
<g id="node6" class="node">
<title>Node5</title>
<polygon fill="#ffffff" stroke="#bfbfbf" points="314.5,-.5 314.5,-19.5 355.5,-19.5 355.5,-.5 314.5,-.5"/>
<text text-anchor="middle" x="335" y="-7.5" font-family="Helvetica,sans-Serif" font-size="10.00" fill="#000000">string</text>
</g>
<!-- Node1&#45;&gt;Node5 -->
<g id="edge5" class="edge">
<title>Node1&#45;&gt;Node5</title>
<path fill="none" stroke="#191970" d="M198.1031,-280.472C162.919,-271.6774 116.316,-257.9101 103,-244 81.8919,-221.95 84,-208.5246 84,-178 84,-178 84,-178 84,-122 84,-91.4754 80.5228,-76.6525 103,-56 132.0449,-29.313 248.1563,-16.7743 304.2962,-12.1783"/>
<polygon fill="#191970" stroke="#191970" points="304.6691,-15.6599 314.364,-11.387 304.1205,-8.6814 304.6691,-15.6599"/>
</g>
<!-- Node6 -->
<g id="node7" class="node">
<title>Node6</title>
<polygon fill="#ffffff" stroke="#bfbfbf" points="198.5,-224.5 198.5,-243.5 281.5,-243.5 281.5,-224.5 198.5,-224.5"/>
<text text-anchor="middle" x="240" y="-231.5" font-family="Helvetica,sans-Serif" font-size="10.00" fill="#000000">unordered_map</text>
</g>
<!-- Node1&#45;&gt;Node6 -->
<g id="edge6" class="edge">
<title>Node1&#45;&gt;Node6</title>
<path fill="none" stroke="#191970" d="M240,-280.2455C240,-272.9382 240,-262.6944 240,-253.7046"/>
<polygon fill="#191970" stroke="#191970" points="243.5001,-253.6426 240,-243.6427 236.5001,-253.6427 243.5001,-253.6426"/>
</g>
<!-- Node7 -->
<g id="node8" class="node">
<title>Node7</title>
<polygon fill="#ffffff" stroke="#bfbfbf" points="300,-224.5 300,-243.5 344,-243.5 344,-224.5 300,-224.5"/>
<text text-anchor="middle" x="322" y="-231.5" font-family="Helvetica,sans-Serif" font-size="10.00" fill="#000000">vector</text>
</g>
<!-- Node1&#45;&gt;Node7 -->
<g id="edge7" class="edge">
<title>Node1&#45;&gt;Node7</title>
<path fill="none" stroke="#191970" d="M254.2833,-280.2455C266.747,-271.7337 285.0451,-259.2375 299.4792,-249.3801"/>
<polygon fill="#191970" stroke="#191970" points="301.5962,-252.1726 307.8804,-243.6427 297.6485,-246.392 301.5962,-252.1726"/>
</g>
<!-- Node8 -->
<g id="node9" class="node">
<title>Node8</title>
<g id="a_node9"><a xlink:href="module__param_8h.html" target="_top" xlink:title="core/param/module_param.h">
<polygon fill="#ffffff" stroke="#000000" points="400,-224.5 400,-243.5 540,-243.5 540,-224.5 400,-224.5"/>
<text text-anchor="middle" x="470" y="-231.5" font-family="Helvetica,sans-Serif" font-size="10.00" fill="#000000">core/param/module_param.h</text>
</a>
</g>
</g>
<!-- Node1&#45;&gt;Node8 -->
<g id="edge8" class="edge">
<title>Node1&#45;&gt;Node8</title>
<path fill="none" stroke="#191970" d="M279.2771,-280.4369C318.4744,-270.8932 378.8,-256.2052 421.0835,-245.9101"/>
<polygon fill="#191970" stroke="#191970" points="421.9968,-249.2901 430.8849,-243.5237 420.3408,-242.4888 421.9968,-249.2901"/>
</g>
<!-- Node9 -->
<g id="node10" class="node">
<title>Node9</title>
<g id="a_node10"><a xlink:href="root_8h.html" target="_top" xlink:title="core/util/root.h">
<polygon fill="#ffffff" stroke="#000000" points="354.5,-168.5 354.5,-187.5 433.5,-187.5 433.5,-168.5 354.5,-168.5"/>
<text text-anchor="middle" x="394" y="-175.5" font-family="Helvetica,sans-Serif" font-size="10.00" fill="#000000">core/util/root.h</text>
</a>
</g>
</g>
<!-- Node1&#45;&gt;Node9 -->
<g id="edge23" class="edge">
<title>Node1&#45;&gt;Node9</title>
<path fill="none" stroke="#191970" d="M279.8801,-280.4424C303.1422,-273.3397 331.9531,-261.755 353,-244 367.9342,-231.4017 379.0941,-211.9313 385.9699,-197.3982"/>
<polygon fill="#191970" stroke="#191970" points="389.3473,-198.4168 390.212,-187.8574 382.951,-195.5728 389.3473,-198.4168"/>
</g>
<!-- Node19 -->
<g id="node20" class="node">
<title>Node19</title>
<polygon fill="#ffffff" stroke="#bfbfbf" points="496.5,-168.5 496.5,-187.5 593.5,-187.5 593.5,-168.5 496.5,-168.5"/>
<text text-anchor="middle" x="545" y="-175.5" font-family="Helvetica,sans-Serif" font-size="10.00" fill="#000000">cpptoml/cpptoml.h</text>
</g>
<!-- Node1&#45;&gt;Node19 -->
<g id="edge24" class="edge">
<title>Node1&#45;&gt;Node19</title>
<path fill="none" stroke="#191970" d="M296.7171,-281.2532C299.5176,-280.828 302.2904,-280.4083 305,-280 359.1973,-271.8329 513.184,-285.4881 549,-244 559.8653,-231.414 557.155,-211.942 552.7529,-197.4052"/>
<polygon fill="#191970" stroke="#191970" points="556.021,-196.1473 549.4184,-187.8614 549.4127,-198.4562 556.021,-196.1473"/>
</g>
<!-- Node8&#45;&gt;Node3 -->
<g id="edge9" class="edge">
<title>Node8&#45;&gt;Node3</title>
<path fill="none" stroke="#191970" d="M428.8445,-224.4369C382.794,-213.7364 308.9127,-196.5689 265.0511,-186.377"/>
<polygon fill="#191970" stroke="#191970" points="265.6435,-182.9215 255.1108,-184.0672 264.0591,-189.7398 265.6435,-182.9215"/>
</g>
<!-- Node8&#45;&gt;Node9 -->
<g id="edge10" class="edge">
<title>Node8&#45;&gt;Node9</title>
<path fill="none" stroke="#191970" d="M456.7618,-224.2455C445.319,-215.814 428.5704,-203.4729 415.2525,-193.6598"/>
<polygon fill="#191970" stroke="#191970" points="417.2133,-190.757 407.0865,-187.6427 413.0609,-196.3924 417.2133,-190.757"/>
</g>
<!-- Node8&#45;&gt;Node19 -->
<g id="edge22" class="edge">
<title>Node8&#45;&gt;Node19</title>
<path fill="none" stroke="#191970" d="M483.064,-224.2455C494.3562,-215.814 510.8845,-203.4729 524.0271,-193.6598"/>
<polygon fill="#191970" stroke="#191970" points="526.1669,-196.4301 532.0857,-187.6427 521.9789,-190.8211 526.1669,-196.4301"/>
</g>
<!-- Node10 -->
<g id="node11" class="node">
<title>Node10</title>
<polygon fill="#ffffff" stroke="#bfbfbf" points="390,-112.5 390,-131.5 446,-131.5 446,-112.5 390,-112.5"/>
<text text-anchor="middle" x="418" y="-119.5" font-family="Helvetica,sans-Serif" font-size="10.00" fill="#000000">TClass.h</text>
</g>
<!-- Node9&#45;&gt;Node10 -->
<g id="edge11" class="edge">
<title>Node9&#45;&gt;Node10</title>
<path fill="none" stroke="#191970" d="M398.1805,-168.2455C401.381,-160.7776 405.896,-150.2427 409.8084,-141.1137"/>
<polygon fill="#191970" stroke="#191970" points="413.1452,-142.2129 413.8674,-131.6427 406.7112,-139.4554 413.1452,-142.2129"/>
</g>
<!-- Node11 -->
<g id="node12" class="node">
<title>Node11</title>
<g id="a_node12"><a xlink:href="log_8h.html" target="_top" xlink:title="core/util/log.h">
<polygon fill="#ffffff" stroke="#000000" points="297.5,-112.5 297.5,-131.5 372.5,-131.5 372.5,-112.5 297.5,-112.5"/>
<text text-anchor="middle" x="335" y="-119.5" font-family="Helvetica,sans-Serif" font-size="10.00" fill="#000000">core/util/log.h</text>
</a>
</g>
</g>
<!-- Node9&#45;&gt;Node11 -->
<g id="edge12" class="edge">
<title>Node9&#45;&gt;Node11</title>
<path fill="none" stroke="#191970" d="M383.723,-168.2455C375.1782,-160.1352 362.8222,-148.4075 352.6915,-138.7919"/>
<polygon fill="#191970" stroke="#191970" points="354.8218,-135.9884 345.1592,-131.6427 350.0028,-141.0655 354.8218,-135.9884"/>
</g>
<!-- Node11&#45;&gt;Node5 -->
<g id="edge18" class="edge">
<title>Node11&#45;&gt;Node5</title>
<path fill="none" stroke="#191970" d="M335,-112.4509C335,-94.184 335,-53.9553 335,-29.6976"/>
<polygon fill="#191970" stroke="#191970" points="338.5001,-29.5249 335,-19.5249 331.5001,-29.5249 338.5001,-29.5249"/>
</g>
<!-- Node12 -->
<g id="node13" class="node">
<title>Node12</title>
<polygon fill="#ffffff" stroke="#bfbfbf" points="467,-56.5 467,-75.5 519,-75.5 519,-56.5 467,-56.5"/>
<text text-anchor="middle" x="493" y="-63.5" font-family="Helvetica,sans-Serif" font-size="10.00" fill="#000000">TError.h</text>
</g>
<!-- Node11&#45;&gt;Node12 -->
<g id="edge13" class="edge">
<title>Node11&#45;&gt;Node12</title>
<path fill="none" stroke="#191970" d="M362.1612,-112.3733C388.4435,-103.058 428.431,-88.8852 457.2803,-78.6602"/>
<polygon fill="#191970" stroke="#191970" points="458.7231,-81.8622 466.9794,-75.2225 456.3846,-75.2643 458.7231,-81.8622"/>
</g>
<!-- Node13 -->
<g id="node14" class="node">
<title>Node13</title>
<polygon fill="#ffffff" stroke="#bfbfbf" points="537.5,-56.5 537.5,-75.5 580.5,-75.5 580.5,-56.5 537.5,-56.5"/>
<text text-anchor="middle" x="559" y="-63.5" font-family="Helvetica,sans-Serif" font-size="10.00" fill="#000000">cstdio</text>
</g>
<!-- Node11&#45;&gt;Node13 -->
<g id="edge14" class="edge">
<title>Node11&#45;&gt;Node13</title>
<path fill="none" stroke="#191970" d="M372.8375,-113.3518C416.6398,-103.2807 487.0222,-86.9016 527.7137,-75.8877"/>
<polygon fill="#191970" stroke="#191970" points="528.6814,-79.2516 537.3851,-73.2103 526.8137,-72.5053 528.6814,-79.2516"/>
</g>
<!-- Node14 -->
<g id="node15" class="node">
<title>Node14</title>
<polygon fill="#ffffff" stroke="#bfbfbf" points="112.5,-56.5 112.5,-75.5 157.5,-75.5 157.5,-56.5 112.5,-56.5"/>
<text text-anchor="middle" x="135" y="-63.5" font-family="Helvetica,sans-Serif" font-size="10.00" fill="#000000">cstdlib</text>
</g>
<!-- Node11&#45;&gt;Node14 -->
<g id="edge15" class="edge">
<title>Node11&#45;&gt;Node14</title>
<path fill="none" stroke="#191970" d="M297.9367,-112.4397C265.6818,-104.0023 217.4607,-91.1082 167.3565,-76.3216"/>
<polygon fill="#191970" stroke="#191970" points="168.2318,-72.9306 157.6493,-73.4398 166.2396,-79.6411 168.2318,-72.9306"/>
</g>
<!-- Node15 -->
<g id="node16" class="node">
<title>Node15</title>
<polygon fill="#ffffff" stroke="#bfbfbf" points="175.5,-56.5 175.5,-75.5 234.5,-75.5 234.5,-56.5 175.5,-56.5"/>
<text text-anchor="middle" x="205" y="-63.5" font-family="Helvetica,sans-Serif" font-size="10.00" fill="#000000">functional</text>
</g>
<!-- Node11&#45;&gt;Node15 -->
<g id="edge16" class="edge">
<title>Node11&#45;&gt;Node15</title>
<path fill="none" stroke="#191970" d="M312.6522,-112.3733C291.5967,-103.3032 259.8505,-89.6279 236.2825,-79.4755"/>
<polygon fill="#191970" stroke="#191970" points="237.625,-76.243 227.0562,-75.5011 234.8556,-82.6719 237.625,-76.243"/>
</g>
<!-- Node16 -->
<g id="node17" class="node">
<title>Node16</title>
<polygon fill="#ffffff" stroke="#bfbfbf" points="253,-56.5 253,-75.5 307,-75.5 307,-56.5 253,-56.5"/>
<text text-anchor="middle" x="280" y="-63.5" font-family="Helvetica,sans-Serif" font-size="10.00" fill="#000000">iostream</text>
</g>
<!-- Node11&#45;&gt;Node16 -->
<g id="edge17" class="edge">
<title>Node11&#45;&gt;Node16</title>
<path fill="none" stroke="#191970" d="M325.4197,-112.2455C317.4542,-104.1352 305.9359,-92.4075 296.4921,-82.7919"/>
<polygon fill="#191970" stroke="#191970" points="298.9747,-80.3247 289.4705,-75.6427 293.9805,-85.2297 298.9747,-80.3247"/>
</g>
<!-- Node17 -->
<g id="node18" class="node">
<title>Node17</title>
<g id="a_node18"><a xlink:href="string_8h.html" target="_top" xlink:title="core/util/string.h">
<polygon fill="#ffffff" stroke="#000000" points="363,-56.5 363,-75.5 449,-75.5 449,-56.5 363,-56.5"/>
<text text-anchor="middle" x="406" y="-63.5" font-family="Helvetica,sans-Serif" font-size="10.00" fill="#000000">core/util/string.h</text>
</a>
</g>
</g>
<!-- Node11&#45;&gt;Node17 -->
<g id="edge19" class="edge">
<title>Node11&#45;&gt;Node17</title>
<path fill="none" stroke="#191970" d="M347.3673,-112.2455C357.9554,-103.8943 373.4064,-91.7076 385.7893,-81.9408"/>
<polygon fill="#191970" stroke="#191970" points="388.0903,-84.5837 393.7745,-75.6427 383.7553,-79.0875 388.0903,-84.5837"/>
</g>
<!-- Node17&#45;&gt;Node5 -->
<g id="edge21" class="edge">
<title>Node17&#45;&gt;Node5</title>
<path fill="none" stroke="#191970" d="M393.6327,-56.2455C383.0446,-47.8943 367.5936,-35.7076 355.2107,-25.9408"/>
<polygon fill="#191970" stroke="#191970" points="357.2447,-23.0875 347.2255,-19.6427 352.9097,-28.5837 357.2447,-23.0875"/>
</g>
<!-- Node18 -->
<g id="node19" class="node">
<title>Node18</title>
<polygon fill="#ffffff" stroke="#bfbfbf" points="380,-.5 380,-19.5 432,-19.5 432,-.5 380,-.5"/>
<text text-anchor="middle" x="406" y="-7.5" font-family="Helvetica,sans-Serif" font-size="10.00" fill="#000000">sstream</text>
</g>
<!-- Node17&#45;&gt;Node18 -->
<g id="edge20" class="edge">
<title>Node17&#45;&gt;Node18</title>
<path fill="none" stroke="#191970" d="M406,-56.2455C406,-48.9382 406,-38.6944 406,-29.7046"/>
<polygon fill="#191970" stroke="#191970" points="409.5001,-29.6426 406,-19.6427 402.5001,-29.6427 409.5001,-29.6426"/>
</g>
</g>
</svg>
