<?xml version="1.0" encoding="UTF-8" standalone="no"?>
<!DOCTYPE svg PUBLIC "-//W3C//DTD SVG 1.1//EN"
 "http://www.w3.org/Graphics/SVG/1.1/DTD/svg11.dtd">
<!-- Generated by graphviz version 2.38.0 (20140413.2041)
 -->
<!-- Title: bdm::Grid Pages: 1 -->
<svg width="720pt" height="175pt"
 viewBox="0.00 0.00 720.00 174.50" xmlns="http://www.w3.org/2000/svg" xmlns:xlink="http://www.w3.org/1999/xlink">
<g id="graph0" class="graph" transform="scale(1 1) rotate(0) translate(4 170.5)">
<title>bdm::Grid</title>
<polygon fill="white" stroke="none" points="-4,4 -4,-170.5 716,-170.5 716,4 -4,4"/>
<!-- Node1 -->
<g id="node1" class="node"><title>Node1</title>
<polygon fill="#bfbfbf" stroke="black" points="648,-79 648,-98 712,-98 712,-79 648,-79"/>
<text text-anchor="middle" x="680" y="-86" font-family="Helvetica,sans-Serif" font-size="10.00">bdm::Grid</text>
</g>
<!-- Node2 -->
<g id="node2" class="node"><title>Node2</title>
<g id="a_node2"><a xlink:href="classbdm_1_1ParallelResizeVector.html" target="_top" xlink:title="bdm::ParallelResizeVector\l\&lt; std::pair\&lt; uint32_t,\l const bdm::Grid::Box * \&gt; \&gt;">
<polygon fill="white" stroke="black" points="352,-98 352,-139 503,-139 503,-98 352,-98"/>
<text text-anchor="start" x="360" y="-127" font-family="Helvetica,sans-Serif" font-size="10.00">bdm::ParallelResizeVector</text>
<text text-anchor="start" x="360" y="-116" font-family="Helvetica,sans-Serif" font-size="10.00">&lt; std::pair&lt; uint32_t,</text>
<text text-anchor="middle" x="427.5" y="-105" font-family="Helvetica,sans-Serif" font-size="10.00"> const bdm::Grid::Box * &gt; &gt;</text>
</a>
</g>
</g>
<!-- Node2&#45;&gt;Node1 -->
<g id="edge1" class="edge"><title>Node2&#45;&gt;Node1</title>
<path fill="none" stroke="#9a32cd" stroke-dasharray="5,2" d="M513.38,-108.335C559.746,-102.782 614.377,-96.2393 647.845,-92.2311"/>
<polygon fill="#9a32cd" stroke="#9a32cd" points="512.832,-104.875 503.319,-109.54 513.664,-111.826 512.832,-104.875"/>
<text text-anchor="middle" x="575.5" y="-109.5" font-family="Helvetica,sans-Serif" font-size="10.00"> zorder_sorted_boxes_</text>
</g>
<!-- Node3 -->
<g id="node3" class="node"><title>Node3</title>
<polygon fill="white" stroke="#bfbfbf" points="183.5,-117 183.5,-136 227.5,-136 227.5,-117 183.5,-117"/>
<text text-anchor="middle" x="205.5" y="-124" font-family="Helvetica,sans-Serif" font-size="10.00">size_t</text>
</g>
<!-- Node3&#45;&gt;Node1 -->
<g id="edge10" class="edge"><title>Node3&#45;&gt;Node1</title>
<path fill="none" stroke="#9a32cd" stroke-dasharray="5,2" d="M237.63,-132.844C266.975,-138.433 312.257,-146.056 352,-148.5 475.903,-156.119 515.715,-169.966 630,-121.5 643.975,-115.574 658.168,-105.47 667.657,-98"/>
<polygon fill="#9a32cd" stroke="#9a32cd" points="238.063,-129.362 227.579,-130.89 236.727,-136.234 238.063,-129.362"/>
<text text-anchor="middle" x="427.5" y="-158.5" font-family="Helvetica,sans-Serif" font-size="10.00"> num_boxes_xy_</text>
</g>
<!-- Node3&#45;&gt;Node2 -->
<g id="edge2" class="edge"><title>Node3&#45;&gt;Node2</title>
<path fill="none" stroke="#9a32cd" stroke-dasharray="5,2" d="M237.716,-125.365C267.262,-124.29 312.763,-122.636 351.692,-121.22"/>
<polygon fill="#9a32cd" stroke="#9a32cd" points="237.461,-121.872 227.595,-125.733 237.715,-128.867 237.461,-121.872"/>
<text text-anchor="middle" x="302.5" y="-126.5" font-family="Helvetica,sans-Serif" font-size="10.00"> size_</text>
</g>
<!-- Node6 -->
<g id="node6" class="node"><title>Node6</title>
<g id="a_node6"><a xlink:href="classbdm_1_1ParallelResizeVector.html" target="_top" xlink:title="bdm::ParallelResizeVector\l\&lt; bdm::Grid::Box \&gt;">
<polygon fill="white" stroke="black" points="358,-49.5 358,-79.5 497,-79.5 497,-49.5 358,-49.5"/>
<text text-anchor="start" x="366" y="-67.5" font-family="Helvetica,sans-Serif" font-size="10.00">bdm::ParallelResizeVector</text>
<text text-anchor="middle" x="427.5" y="-56.5" font-family="Helvetica,sans-Serif" font-size="10.00">&lt; bdm::Grid::Box &gt;</text>
</a>
</g>
</g>
<!-- Node3&#45;&gt;Node6 -->
<g id="edge9" class="edge"><title>Node3&#45;&gt;Node6</title>
<path fill="none" stroke="#9a32cd" stroke-dasharray="5,2" d="M237.349,-116.681C247.986,-113.363 259.992,-109.692 271,-106.5 303.229,-97.1542 339.411,-87.3416 368.758,-79.5533"/>
<polygon fill="#9a32cd" stroke="#9a32cd" points="236.14,-113.392 227.648,-119.727 238.237,-120.07 236.14,-113.392"/>
<text text-anchor="middle" x="302.5" y="-109.5" font-family="Helvetica,sans-Serif" font-size="10.00"> size_</text>
</g>
<!-- Node4 -->
<g id="node4" class="node"><title>Node4</title>
<g id="a_node4"><a xlink:href="classbdm_1_1SimObjectVector.html" target="_top" xlink:title="bdm::SimObjectVector\l\&lt; bdm::SoHandle \&gt;">
<polygon fill="white" stroke="black" points="365,-0.5 365,-30.5 490,-30.5 490,-0.5 365,-0.5"/>
<text text-anchor="start" x="373" y="-18.5" font-family="Helvetica,sans-Serif" font-size="10.00">bdm::SimObjectVector</text>
<text text-anchor="middle" x="427.5" y="-7.5" font-family="Helvetica,sans-Serif" font-size="10.00">&lt; bdm::SoHandle &gt;</text>
</a>
</g>
</g>
<!-- Node4&#45;&gt;Node1 -->
<g id="edge3" class="edge"><title>Node4&#45;&gt;Node1</title>
<path fill="none" stroke="#9a32cd" stroke-dasharray="5,2" d="M500.357,-19.4737C539.959,-23.728 589.214,-32.4909 630,-50.5 645.363,-57.2835 660.198,-69.9104 669.443,-78.7402"/>
<polygon fill="#9a32cd" stroke="#9a32cd" points="500.545,-15.9751 490.246,-18.4621 499.848,-22.9404 500.545,-15.9751"/>
<text text-anchor="middle" x="575.5" y="-53.5" font-family="Helvetica,sans-Serif" font-size="10.00"> successors_</text>
</g>
<!-- Node5 -->
<g id="node5" class="node"><title>Node5</title>
<g id="a_node5"><a xlink:href="classbdm_1_1ThreadInfo.html" target="_top" xlink:title="This class stores information about each thread. (e.g. to which NUMA node it belongs to...">
<polygon fill="white" stroke="black" points="158,-6 158,-25 253,-25 253,-6 158,-6"/>
<text text-anchor="middle" x="205.5" y="-13" font-family="Helvetica,sans-Serif" font-size="10.00">bdm::ThreadInfo</text>
</a>
</g>
</g>
<!-- Node5&#45;&gt;Node4 -->
<g id="edge4" class="edge"><title>Node5&#45;&gt;Node4</title>
<path fill="none" stroke="#9a32cd" stroke-dasharray="5,2" d="M263.398,-15.5C294.501,-15.5 333.056,-15.5 364.87,-15.5"/>
<polygon fill="#9a32cd" stroke="#9a32cd" points="263.156,-12.0001 253.156,-15.5 263.156,-19.0001 263.156,-12.0001"/>
<text text-anchor="middle" x="302.5" y="-18.5" font-family="Helvetica,sans-Serif" font-size="10.00"> thread_info_</text>
</g>
<!-- Node6&#45;&gt;Node1 -->
<g id="edge5" class="edge"><title>Node6&#45;&gt;Node1</title>
<path fill="none" stroke="#9a32cd" stroke-dasharray="5,2" d="M507.72,-65.0841C545.012,-66.3126 589.988,-69.1686 630,-75.5 635.824,-76.4216 641.956,-77.7513 647.836,-79.2123"/>
<polygon fill="#9a32cd" stroke="#9a32cd" points="507.515,-61.5766 497.416,-64.7792 507.308,-68.5735 507.515,-61.5766"/>
<text text-anchor="middle" x="575.5" y="-78.5" font-family="Helvetica,sans-Serif" font-size="10.00"> boxes_</text>
</g>
<!-- Node7 -->
<g id="node7" class="node"><title>Node7</title>
<g id="a_node7"><a xlink:href="structbdm_1_1Grid_1_1Box.html" target="_top" xlink:title="A single unit cube of the grid. ">
<polygon fill="white" stroke="black" points="161.5,-49 161.5,-68 249.5,-68 249.5,-49 161.5,-49"/>
<text text-anchor="middle" x="205.5" y="-56" font-family="Helvetica,sans-Serif" font-size="10.00">bdm::Grid::Box</text>
</a>
</g>
</g>
<!-- Node7&#45;&gt;Node6 -->
<g id="edge6" class="edge"><title>Node7&#45;&gt;Node6</title>
<path fill="none" stroke="#9a32cd" stroke-dasharray="5,2" d="M259.778,-58.3699C282.634,-58.456 309.633,-58.7463 334,-59.5 341.716,-59.7387 349.79,-60.0636 357.817,-60.4341"/>
<polygon fill="#9a32cd" stroke="#9a32cd" points="259.601,-54.8695 249.592,-58.3438 259.583,-61.8695 259.601,-54.8695"/>
<text text-anchor="middle" x="302.5" y="-62.5" font-family="Helvetica,sans-Serif" font-size="10.00"> data_</text>
</g>
<!-- Node8 -->
<g id="node8" class="node"><title>Node8</title>
<g id="a_node8"><a xlink:href="classbdm_1_1SoHandle.html" target="_top" xlink:title="bdm::SoHandle">
<polygon fill="white" stroke="black" points="0,-68 0,-87 91,-87 91,-68 0,-68"/>
<text text-anchor="middle" x="45.5" y="-75" font-family="Helvetica,sans-Serif" font-size="10.00">bdm::SoHandle</text>
</a>
</g>
</g>
<!-- Node8&#45;&gt;Node7 -->
<g id="edge7" class="edge"><title>Node8&#45;&gt;Node7</title>
<path fill="none" stroke="#9a32cd" stroke-dasharray="5,2" d="M101.405,-70.8976C121.064,-68.5334 142.926,-65.9045 161.44,-63.6781"/>
<polygon fill="#9a32cd" stroke="#9a32cd" points="100.864,-67.4372 91.3538,-72.1062 101.7,-74.3871 100.864,-67.4372"/>
<text text-anchor="middle" x="124.5" y="-72.5" font-family="Helvetica,sans-Serif" font-size="10.00"> start_</text>
</g>
<!-- Node9 -->
<g id="node9" class="node"><title>Node9</title>
<g id="a_node9"><a xlink:href="classbdm_1_1Spinlock.html" target="_top" xlink:title="bdm::Spinlock">
<polygon fill="white" stroke="black" points="3.5,-30 3.5,-49 87.5,-49 87.5,-30 3.5,-30"/>
<text text-anchor="middle" x="45.5" y="-37" font-family="Helvetica,sans-Serif" font-size="10.00">bdm::Spinlock</text>
</a>
</g>
</g>
<!-- Node9&#45;&gt;Node7 -->
<g id="edge8" class="edge"><title>Node9&#45;&gt;Node7</title>
<path fill="none" stroke="#9a32cd" stroke-dasharray="5,2" d="M98.1074,-45.5126C111.733,-47.1161 126.423,-48.8594 140,-50.5 146.945,-51.3393 154.31,-52.2412 161.483,-53.1263"/>
<polygon fill="#9a32cd" stroke="#9a32cd" points="98.2717,-42.0079 87.9317,-44.3176 97.4552,-48.9601 98.2717,-42.0079"/>
<text text-anchor="middle" x="124.5" y="-53.5" font-family="Helvetica,sans-Serif" font-size="10.00"> lock_</text>
</g>
</g>
</svg>
