<?xml version="1.0" encoding="UTF-8" standalone="no"?>
<!DOCTYPE svg PUBLIC "-//W3C//DTD SVG 1.1//EN"
 "http://www.w3.org/Graphics/SVG/1.1/DTD/svg11.dtd">
<!-- Generated by graphviz version 2.38.0 (20140413.2041)
 -->
<!-- Title: bdm::SimObject Pages: 1 -->
<svg width="342pt" height="184pt"
 viewBox="0.00 0.00 342.00 184.00" xmlns="http://www.w3.org/2000/svg" xmlns:xlink="http://www.w3.org/1999/xlink">
<g id="graph0" class="graph" transform="scale(1 1) rotate(0) translate(4 180)">
<title>bdm::SimObject</title>
<polygon fill="white" stroke="none" points="-4,4 -4,-180 338,-180 338,4 -4,4"/>
<!-- Node1 -->
<g id="node1" class="node"><title>Node1</title>
<polygon fill="#bfbfbf" stroke="black" points="148,-0.5 148,-19.5 242,-19.5 242,-0.5 148,-0.5"/>
<text text-anchor="middle" x="195" y="-7.5" font-family="Helvetica,sans-Serif" font-size="10.00">bdm::SimObject</text>
</g>
<!-- Node2 -->
<g id="node2" class="node"><title>Node2</title>
<g id="a_node2"><a xlink:href="classbdm_1_1InlineVector.html" target="_top" xlink:title="bdm::InlineVector\&lt;\l bdm::BaseBiologyModule\l *, 5 \&gt;">
<polygon fill="white" stroke="black" points="0,-67.5 0,-108.5 140,-108.5 140,-67.5 0,-67.5"/>
<text text-anchor="start" x="8" y="-96.5" font-family="Helvetica,sans-Serif" font-size="10.00">bdm::InlineVector&lt;</text>
<text text-anchor="start" x="8" y="-85.5" font-family="Helvetica,sans-Serif" font-size="10.00"> bdm::BaseBiologyModule</text>
<text text-anchor="middle" x="70" y="-74.5" font-family="Helvetica,sans-Serif" font-size="10.00"> *, 5 &gt;</text>
</a>
</g>
</g>
<!-- Node2&#45;&gt;Node1 -->
<g id="edge1" class="edge"><title>Node2&#45;&gt;Node1</title>
<path fill="none" stroke="#9a32cd" stroke-dasharray="5,2" d="M83.7883,-58.5515C88.634,-50.9648 94.7227,-43.389 102,-38 115.241,-28.1947 131.973,-21.9398 147.583,-17.954"/>
<polygon fill="#9a32cd" stroke="#9a32cd" points="80.6826,-56.9295 78.6741,-67.3322 86.7314,-60.4526 80.6826,-56.9295"/>
<text text-anchor="middle" x="146.5" y="-41" font-family="Helvetica,sans-Serif" font-size="10.00"> biology_modules_</text>
</g>
<!-- Node3 -->
<g id="node3" class="node"><title>Node3</title>
<g id="a_node3"><a xlink:href="structbdm_1_1BaseBiologyModule.html" target="_top" xlink:title="bdm::BaseBiologyModule">
<polygon fill="white" stroke="black" points="1.5,-156.5 1.5,-175.5 138.5,-175.5 138.5,-156.5 1.5,-156.5"/>
<text text-anchor="middle" x="70" y="-163.5" font-family="Helvetica,sans-Serif" font-size="10.00">bdm::BaseBiologyModule</text>
</a>
</g>
</g>
<!-- Node3&#45;&gt;Node2 -->
<g id="edge2" class="edge"><title>Node3&#45;&gt;Node2</title>
<path fill="none" stroke="#9a32cd" stroke-dasharray="5,2" d="M70,-146.137C70,-134.729 70,-120.207 70,-108.658"/>
<polygon fill="#9a32cd" stroke="#9a32cd" points="66.5001,-146.282 70,-156.282 73.5001,-146.282 66.5001,-146.282"/>
<text text-anchor="middle" x="100" y="-130" font-family="Helvetica,sans-Serif" font-size="10.00"> heap_data_</text>
</g>
<!-- Node4 -->
<g id="node4" class="node"><title>Node4</title>
<g id="a_node4"><a xlink:href="classbdm_1_1SoUid.html" target="_top" xlink:title="bdm::SoUid">
<polygon fill="white" stroke="black" points="158.5,-78.5 158.5,-97.5 231.5,-97.5 231.5,-78.5 158.5,-78.5"/>
<text text-anchor="middle" x="195" y="-85.5" font-family="Helvetica,sans-Serif" font-size="10.00">bdm::SoUid</text>
</a>
</g>
</g>
<!-- Node4&#45;&gt;Node1 -->
<g id="edge3" class="edge"><title>Node4&#45;&gt;Node1</title>
<path fill="none" stroke="#9a32cd" stroke-dasharray="5,2" d="M195,-68.2239C195,-52.6974 195,-31.3582 195,-19.6165"/>
<polygon fill="#9a32cd" stroke="#9a32cd" points="191.5,-68.2818 195,-78.2818 198.5,-68.2819 191.5,-68.2818"/>
<text text-anchor="middle" x="206.5" y="-41" font-family="Helvetica,sans-Serif" font-size="10.00"> uid_</text>
</g>
<!-- Node5 -->
<g id="node5" class="node"><title>Node5</title>
<g id="a_node5"><a xlink:href="classbdm_1_1Spinlock.html" target="_top" xlink:title="bdm::Spinlock">
<polygon fill="white" stroke="black" points="250,-78.5 250,-97.5 334,-97.5 334,-78.5 250,-78.5"/>
<text text-anchor="middle" x="292" y="-85.5" font-family="Helvetica,sans-Serif" font-size="10.00">bdm::Spinlock</text>
</a>
</g>
</g>
<!-- Node5&#45;&gt;Node1 -->
<g id="edge4" class="edge"><title>Node5&#45;&gt;Node1</title>
<path fill="none" stroke="#9a32cd" stroke-dasharray="5,2" d="M272.779,-71.9404C252.798,-56.2848 222.22,-32.3271 205.997,-19.6165"/>
<polygon fill="#9a32cd" stroke="#9a32cd" points="270.843,-74.8694 280.873,-78.2818 275.16,-69.3593 270.843,-74.8694"/>
<text text-anchor="middle" x="258" y="-41" font-family="Helvetica,sans-Serif" font-size="10.00"> lock_</text>
</g>
</g>
</svg>
