<?xml version="1.0" encoding="UTF-8" standalone="no"?>
<!DOCTYPE svg PUBLIC "-//W3C//DTD SVG 1.1//EN"
 "http://www.w3.org/Graphics/SVG/1.1/DTD/svg11.dtd">
<!-- Generated by graphviz version 2.38.0 (20140413.2041)
 -->
<!-- Title: core/param/param.h Pages: 1 -->
<svg width="2391pt" height="464pt"
 viewBox="0.00 0.00 2391.00 464.00" xmlns="http://www.w3.org/2000/svg" xmlns:xlink="http://www.w3.org/1999/xlink">
<g id="graph0" class="graph" transform="scale(1 1) rotate(0) translate(4 460)">
<title>core/param/param.h</title>
<polygon fill="white" stroke="none" points="-4,4 -4,-460 2387,-460 2387,4 -4,4"/>
<!-- Node1 -->
<g id="node1" class="node"><title>Node1</title>
<polygon fill="#bfbfbf" stroke="black" points="1605.5,-436.5 1605.5,-455.5 1721.5,-455.5 1721.5,-436.5 1605.5,-436.5"/>
<text text-anchor="middle" x="1663.5" y="-443.5" font-family="Helvetica,sans-Serif" font-size="10.00">core/param/param.h</text>
</g>
<!-- Node2 -->
<g id="node2" class="node"><title>Node2</title>
<g id="a_node2"><a xlink:href="cell_8h.html" target="_top" xlink:title="core/sim_object/cell.h">
<polygon fill="white" stroke="black" points="443.5,-319 443.5,-338 563.5,-338 563.5,-319 443.5,-319"/>
<text text-anchor="middle" x="503.5" y="-326" font-family="Helvetica,sans-Serif" font-size="10.00">core/sim_object/cell.h</text>
</a>
</g>
</g>
<!-- Node1&#45;&gt;Node2 -->
<g id="edge1" class="edge"><title>Node1&#45;&gt;Node2</title>
<path fill="none" stroke="midnightblue" d="M1595.04,-444.353C1375.17,-441.961 695.839,-432.034 602.5,-400 564.182,-386.849 527.653,-353.768 511.784,-338.05"/>
<polygon fill="midnightblue" stroke="midnightblue" points="1595.12,-447.854 1605.16,-444.461 1595.2,-440.854 1595.12,-447.854"/>
</g>
<!-- Node4 -->
<g id="node4" class="node"><title>Node4</title>
<g id="a_node4"><a xlink:href="biodynamo_8h.html" target="_top" xlink:title="biodynamo.h">
<polygon fill="white" stroke="black" points="719,-118 719,-137 798,-137 798,-118 719,-118"/>
<text text-anchor="middle" x="758.5" y="-125" font-family="Helvetica,sans-Serif" font-size="10.00">biodynamo.h</text>
</a>
</g>
</g>
<!-- Node1&#45;&gt;Node4 -->
<g id="edge52" class="edge"><title>Node1&#45;&gt;Node4</title>
<path fill="none" stroke="midnightblue" d="M1594.88,-444.218C1370.45,-440.761 672.5,-422.533 672.5,-329.5 672.5,-329.5 672.5,-329.5 672.5,-260.5 672.5,-223.306 671.211,-210.173 691.5,-179 703.816,-160.078 725.78,-145.556 741.193,-137.043"/>
<polygon fill="midnightblue" stroke="midnightblue" points="1595.16,-447.722 1605.21,-444.371 1595.26,-440.723 1595.16,-447.722"/>
</g>
<!-- Node11 -->
<g id="node11" class="node"><title>Node11</title>
<g id="a_node11"><a xlink:href="exporter_8cc.html" target="_top" xlink:title="core/exporter.cc">
<polygon fill="white" stroke="black" points="550.5,-252 550.5,-271 644.5,-271 644.5,-252 550.5,-252"/>
<text text-anchor="middle" x="597.5" y="-259" font-family="Helvetica,sans-Serif" font-size="10.00">core/exporter.cc</text>
</a>
</g>
</g>
<!-- Node1&#45;&gt;Node11 -->
<g id="edge53" class="edge"><title>Node1&#45;&gt;Node11</title>
<path fill="none" stroke="midnightblue" d="M1595.03,-443.903C1374.87,-440.118 697.127,-426.369 658.5,-400 613.206,-369.079 601.175,-296.362 598.314,-271.228"/>
<polygon fill="midnightblue" stroke="midnightblue" points="1595.11,-447.404 1605.17,-444.075 1595.23,-440.405 1595.11,-447.404"/>
</g>
<!-- Node15 -->
<g id="node15" class="node"><title>Node15</title>
<g id="a_node15"><a xlink:href="regulate__genes_8h.html" target="_top" xlink:title="core/biology_module\l/regulate_genes.h">
<polygon fill="white" stroke="black" points="700.5,-179.5 700.5,-209.5 816.5,-209.5 816.5,-179.5 700.5,-179.5"/>
<text text-anchor="start" x="708.5" y="-197.5" font-family="Helvetica,sans-Serif" font-size="10.00">core/biology_module</text>
<text text-anchor="middle" x="758.5" y="-186.5" font-family="Helvetica,sans-Serif" font-size="10.00">/regulate_genes.h</text>
</a>
</g>
</g>
<!-- Node1&#45;&gt;Node15 -->
<g id="edge18" class="edge"><title>Node1&#45;&gt;Node15</title>
<path fill="none" stroke="midnightblue" d="M1595.17,-444.636C1476.17,-443.032 1223.51,-435.328 1013.5,-400 919.513,-384.189 890.587,-388.865 806.5,-344 766.477,-322.645 748.302,-318.284 729.5,-277 719.042,-254.038 734.8,-226.115 746.869,-209.631"/>
<polygon fill="midnightblue" stroke="midnightblue" points="1595.19,-448.136 1605.23,-444.761 1595.27,-441.137 1595.19,-448.136"/>
</g>
<!-- Node16 -->
<g id="node16" class="node"><title>Node16</title>
<g id="a_node16"><a xlink:href="diffusion__grid_8h.html" target="_top" xlink:title="core/diffusion_grid.h">
<polygon fill="white" stroke="black" points="1023,-380.5 1023,-399.5 1136,-399.5 1136,-380.5 1023,-380.5"/>
<text text-anchor="middle" x="1079.5" y="-387.5" font-family="Helvetica,sans-Serif" font-size="10.00">core/diffusion_grid.h</text>
</a>
</g>
</g>
<!-- Node1&#45;&gt;Node16 -->
<g id="edge20" class="edge"><title>Node1&#45;&gt;Node16</title>
<path fill="none" stroke="midnightblue" d="M1595.16,-438.68C1478.71,-427.913 1244,-406.211 1136.11,-396.234"/>
<polygon fill="midnightblue" stroke="midnightblue" points="1595.09,-442.189 1605.37,-439.625 1595.73,-435.219 1595.09,-442.189"/>
</g>
<!-- Node19 -->
<g id="node19" class="node"><title>Node19</title>
<g id="a_node19"><a xlink:href="grid_8h.html" target="_top" xlink:title="core/grid.h">
<polygon fill="white" stroke="black" points="1314.5,-185 1314.5,-204 1382.5,-204 1382.5,-185 1314.5,-185"/>
<text text-anchor="middle" x="1348.5" y="-192" font-family="Helvetica,sans-Serif" font-size="10.00">core/grid.h</text>
</a>
</g>
</g>
<!-- Node1&#45;&gt;Node19 -->
<g id="edge51" class="edge"><title>Node1&#45;&gt;Node19</title>
<path fill="none" stroke="midnightblue" d="M1640.04,-431.335C1625.92,-422.819 1607.78,-411.353 1592.5,-400 1508.53,-337.606 1495.63,-312.036 1414.5,-246 1395.93,-230.881 1373.69,-214.136 1360.35,-204.23"/>
<polygon fill="midnightblue" stroke="midnightblue" points="1638.28,-434.364 1648.67,-436.475 1641.87,-428.35 1638.28,-434.364"/>
</g>
<!-- Node21 -->
<g id="node21" class="node"><title>Node21</title>
<g id="a_node21"><a xlink:href="diffusion__op_8h.html" target="_top" xlink:title="core/operation/diffusion_op.h">
<polygon fill="white" stroke="black" points="1377,-118 1377,-137 1532,-137 1532,-118 1377,-118"/>
<text text-anchor="middle" x="1454.5" y="-125" font-family="Helvetica,sans-Serif" font-size="10.00">core/operation/diffusion_op.h</text>
</a>
</g>
</g>
<!-- Node1&#45;&gt;Node21 -->
<g id="edge60" class="edge"><title>Node1&#45;&gt;Node21</title>
<path fill="none" stroke="midnightblue" d="M1652.07,-427.69C1613.41,-369.142 1488.37,-179.794 1460.18,-137.104"/>
<polygon fill="midnightblue" stroke="midnightblue" points="1649.26,-429.789 1657.69,-436.205 1655.1,-425.931 1649.26,-429.789"/>
</g>
<!-- Node22 -->
<g id="node22" class="node"><title>Node22</title>
<g id="a_node22"><a xlink:href="scheduler_8cc.html" target="_top" xlink:title="core/scheduler.cc">
<polygon fill="white" stroke="black" points="1670.5,-0.5 1670.5,-19.5 1770.5,-19.5 1770.5,-0.5 1670.5,-0.5"/>
<text text-anchor="middle" x="1720.5" y="-7.5" font-family="Helvetica,sans-Serif" font-size="10.00">core/scheduler.cc</text>
</a>
</g>
</g>
<!-- Node1&#45;&gt;Node22 -->
<g id="edge67" class="edge"><title>Node1&#45;&gt;Node22</title>
<path fill="none" stroke="midnightblue" d="M1668.47,-426.445C1674.1,-403.755 1682.5,-364.095 1682.5,-329.5 1682.5,-329.5 1682.5,-329.5 1682.5,-126.5 1682.5,-84.7033 1705.23,-38.4681 1715.53,-19.6633"/>
<polygon fill="midnightblue" stroke="midnightblue" points="1665.01,-425.829 1665.91,-436.386 1671.79,-427.576 1665.01,-425.829"/>
</g>
<!-- Node23 -->
<g id="node23" class="node"><title>Node23</title>
<g id="a_node23"><a xlink:href="displacement__op__cpu_8h.html" target="_top" xlink:title="core/operation/displacement\l_op_cpu.h">
<polygon fill="white" stroke="black" points="1748.5,-112.5 1748.5,-142.5 1902.5,-142.5 1902.5,-112.5 1748.5,-112.5"/>
<text text-anchor="start" x="1756.5" y="-130.5" font-family="Helvetica,sans-Serif" font-size="10.00">core/operation/displacement</text>
<text text-anchor="middle" x="1825.5" y="-119.5" font-family="Helvetica,sans-Serif" font-size="10.00">_op_cpu.h</text>
</a>
</g>
</g>
<!-- Node1&#45;&gt;Node23 -->
<g id="edge61" class="edge"><title>Node1&#45;&gt;Node23</title>
<path fill="none" stroke="midnightblue" d="M1728.61,-434.213C1785.31,-420.658 1858.5,-391.209 1858.5,-329.5 1858.5,-329.5 1858.5,-329.5 1858.5,-260.5 1858.5,-216.563 1841.08,-166.79 1831.55,-142.856"/>
<polygon fill="midnightblue" stroke="midnightblue" points="1727.57,-430.859 1718.6,-436.486 1729.12,-437.686 1727.57,-430.859"/>
</g>
<!-- Node24 -->
<g id="node24" class="node"><title>Node24</title>
<g id="a_node24"><a xlink:href="displacement__op_8h.html" target="_top" xlink:title="core/operation/displacement_op.h">
<polygon fill="white" stroke="black" points="1748.5,-56.5 1748.5,-75.5 1928.5,-75.5 1928.5,-56.5 1748.5,-56.5"/>
<text text-anchor="middle" x="1838.5" y="-63.5" font-family="Helvetica,sans-Serif" font-size="10.00">core/operation/displacement_op.h</text>
</a>
</g>
</g>
<!-- Node1&#45;&gt;Node24 -->
<g id="edge62" class="edge"><title>Node1&#45;&gt;Node24</title>
<path fill="none" stroke="midnightblue" d="M1732.16,-443.826C1811.27,-438.404 1930.5,-415.899 1930.5,-329.5 1930.5,-329.5 1930.5,-329.5 1930.5,-193.5 1930.5,-156.306 1933.22,-142.191 1911.5,-112 1899.15,-94.8394 1878.04,-82.8708 1861.69,-75.6143"/>
<polygon fill="midnightblue" stroke="midnightblue" points="1731.53,-440.358 1721.76,-444.457 1731.96,-447.345 1731.53,-440.358"/>
</g>
<!-- Node27 -->
<g id="node27" class="node"><title>Node27</title>
<g id="a_node27"><a xlink:href="simulation_8cc.html" target="_top" xlink:title="core/simulation.cc">
<polygon fill="white" stroke="black" points="1550.5,-118 1550.5,-137 1654.5,-137 1654.5,-118 1550.5,-118"/>
<text text-anchor="middle" x="1602.5" y="-125" font-family="Helvetica,sans-Serif" font-size="10.00">core/simulation.cc</text>
</a>
</g>
</g>
<!-- Node1&#45;&gt;Node27 -->
<g id="edge68" class="edge"><title>Node1&#45;&gt;Node27</title>
<path fill="none" stroke="midnightblue" d="M1658.53,-426.445C1652.9,-403.755 1644.5,-364.095 1644.5,-329.5 1644.5,-329.5 1644.5,-329.5 1644.5,-260.5 1644.5,-211.922 1618.35,-157.82 1607.32,-137.158"/>
<polygon fill="midnightblue" stroke="midnightblue" points="1655.21,-427.576 1661.09,-436.386 1661.99,-425.829 1655.21,-427.576"/>
</g>
<!-- Node30 -->
<g id="node30" class="node"><title>Node30</title>
<g id="a_node30"><a xlink:href="gpu__helper_8h.html" target="_top" xlink:title="core/gpu/gpu_helper.h">
<polygon fill="white" stroke="black" points="1947,-56.5 1947,-75.5 2070,-75.5 2070,-56.5 1947,-56.5"/>
<text text-anchor="middle" x="2008.5" y="-63.5" font-family="Helvetica,sans-Serif" font-size="10.00">core/gpu/gpu_helper.h</text>
</a>
</g>
</g>
<!-- Node1&#45;&gt;Node30 -->
<g id="edge54" class="edge"><title>Node1&#45;&gt;Node30</title>
<path fill="none" stroke="midnightblue" d="M1731.74,-438.956C1796.75,-432.15 1889.09,-419.435 1919.5,-400 1951.65,-379.45 1968.5,-367.658 1968.5,-329.5 1968.5,-329.5 1968.5,-329.5 1968.5,-193.5 1968.5,-147.202 1993.16,-95.623 2003.75,-75.597"/>
<polygon fill="midnightblue" stroke="midnightblue" points="1731.14,-435.499 1721.55,-439.998 1731.85,-442.463 1731.14,-435.499"/>
</g>
<!-- Node31 -->
<g id="node31" class="node"><title>Node31</title>
<g id="a_node31"><a xlink:href="bound__space__op_8h.html" target="_top" xlink:title="core/operation/bound\l_space_op.h">
<polygon fill="white" stroke="black" points="1711,-313.5 1711,-343.5 1830,-343.5 1830,-313.5 1711,-313.5"/>
<text text-anchor="start" x="1719" y="-331.5" font-family="Helvetica,sans-Serif" font-size="10.00">core/operation/bound</text>
<text text-anchor="middle" x="1770.5" y="-320.5" font-family="Helvetica,sans-Serif" font-size="10.00">_space_op.h</text>
</a>
</g>
</g>
<!-- Node1&#45;&gt;Node31 -->
<g id="edge56" class="edge"><title>Node1&#45;&gt;Node31</title>
<path fill="none" stroke="midnightblue" d="M1678.47,-428.843C1699.52,-406.113 1737.55,-365.072 1757.49,-343.545"/>
<polygon fill="midnightblue" stroke="midnightblue" points="1675.77,-426.604 1671.54,-436.319 1680.91,-431.361 1675.77,-426.604"/>
</g>
<!-- Node32 -->
<g id="node32" class="node"><title>Node32</title>
<g id="a_node32"><a xlink:href="timing_8h.html" target="_top" xlink:title="core/util/timing.h">
<polygon fill="white" stroke="black" points="1997,-380.5 1997,-399.5 2094,-399.5 2094,-380.5 1997,-380.5"/>
<text text-anchor="middle" x="2045.5" y="-387.5" font-family="Helvetica,sans-Serif" font-size="10.00">core/util/timing.h</text>
</a>
</g>
</g>
<!-- Node1&#45;&gt;Node32 -->
<g id="edge63" class="edge"><title>Node1&#45;&gt;Node32</title>
<path fill="none" stroke="midnightblue" d="M1731.77,-435.404C1796.37,-426.317 1896.03,-412.275 1982.5,-400 1987.09,-399.348 1991.88,-398.667 1996.66,-397.985"/>
<polygon fill="midnightblue" stroke="midnightblue" points="1731.13,-431.96 1721.71,-436.819 1732.1,-438.892 1731.13,-431.96"/>
</g>
<!-- Node34 -->
<g id="node34" class="node"><title>Node34</title>
<g id="a_node34"><a xlink:href="core_2param_2param_8cc.html" target="_top" xlink:title="core/param/param.cc">
<polygon fill="white" stroke="black" points="2111.5,-380.5 2111.5,-399.5 2231.5,-399.5 2231.5,-380.5 2111.5,-380.5"/>
<text text-anchor="middle" x="2171.5" y="-387.5" font-family="Helvetica,sans-Serif" font-size="10.00">core/param/param.cc</text>
</a>
</g>
</g>
<!-- Node1&#45;&gt;Node34 -->
<g id="edge66" class="edge"><title>Node1&#45;&gt;Node34</title>
<path fill="none" stroke="midnightblue" d="M1731.99,-438.569C1818.42,-430.318 1971.6,-415.243 2102.5,-400 2105.38,-399.665 2108.33,-399.313 2111.3,-398.951"/>
<polygon fill="midnightblue" stroke="midnightblue" points="1731.41,-435.108 1721.79,-439.541 1732.07,-442.077 1731.41,-435.108"/>
</g>
<!-- Node35 -->
<g id="node35" class="node"><title>Node35</title>
<g id="a_node35"><a xlink:href="module_8cc.html" target="_top" xlink:title="neuroscience/module.cc">
<polygon fill="white" stroke="black" points="2250,-380.5 2250,-399.5 2383,-399.5 2383,-380.5 2250,-380.5"/>
<text text-anchor="middle" x="2316.5" y="-387.5" font-family="Helvetica,sans-Serif" font-size="10.00">neuroscience/module.cc</text>
</a>
</g>
</g>
<!-- Node1&#45;&gt;Node35 -->
<g id="edge69" class="edge"><title>Node1&#45;&gt;Node35</title>
<path fill="none" stroke="midnightblue" d="M1731.83,-440.56C1839.92,-433.337 2056.93,-418.021 2240.5,-400 2243.54,-399.701 2246.65,-399.384 2249.79,-399.053"/>
<polygon fill="midnightblue" stroke="midnightblue" points="1731.46,-437.077 1721.72,-441.234 1731.93,-444.061 1731.46,-437.077"/>
</g>
<!-- Node3 -->
<g id="node3" class="node"><title>Node3</title>
<g id="a_node3"><a xlink:href="grow__divide_8h.html" target="_top" xlink:title="core/biology_module\l/grow_divide.h">
<polygon fill="white" stroke="black" points="528.5,-179.5 528.5,-209.5 644.5,-209.5 644.5,-179.5 528.5,-179.5"/>
<text text-anchor="start" x="536.5" y="-197.5" font-family="Helvetica,sans-Serif" font-size="10.00">core/biology_module</text>
<text text-anchor="middle" x="586.5" y="-186.5" font-family="Helvetica,sans-Serif" font-size="10.00">/grow_divide.h</text>
</a>
</g>
</g>
<!-- Node2&#45;&gt;Node3 -->
<g id="edge2" class="edge"><title>Node2&#45;&gt;Node3</title>
<path fill="none" stroke="midnightblue" d="M510.254,-309.174C516.949,-292.111 528.123,-266.325 541.5,-246 550.28,-232.659 562.432,-219.241 571.894,-209.592"/>
<polygon fill="midnightblue" stroke="midnightblue" points="506.807,-308.392 506.523,-318.983 513.35,-310.88 506.807,-308.392"/>
</g>
<!-- Node2&#45;&gt;Node4 -->
<g id="edge4" class="edge"><title>Node2&#45;&gt;Node4</title>
<path fill="none" stroke="midnightblue" d="M499.277,-308.807C493.437,-277.65 486.98,-214.979 519.5,-179 545.662,-150.055 657.684,-136.63 718.627,-131.368"/>
<polygon fill="midnightblue" stroke="midnightblue" points="495.88,-309.665 501.327,-318.752 502.736,-308.251 495.88,-309.665"/>
</g>
<!-- Node5 -->
<g id="node5" class="node"><title>Node5</title>
<g id="a_node5"><a xlink:href="neuron__soma_8h.html" target="_top" xlink:title="neuroscience/neuron\l_soma.h">
<polygon fill="white" stroke="black" points="339,-246.5 339,-276.5 456,-276.5 456,-246.5 339,-246.5"/>
<text text-anchor="start" x="347" y="-264.5" font-family="Helvetica,sans-Serif" font-size="10.00">neuroscience/neuron</text>
<text text-anchor="middle" x="397.5" y="-253.5" font-family="Helvetica,sans-Serif" font-size="10.00">_soma.h</text>
</a>
</g>
</g>
<!-- Node2&#45;&gt;Node5 -->
<g id="edge5" class="edge"><title>Node2&#45;&gt;Node5</title>
<path fill="none" stroke="midnightblue" d="M480.594,-313.454C462.813,-302.551 438.274,-287.503 420.476,-276.589"/>
<polygon fill="midnightblue" stroke="midnightblue" points="478.85,-316.49 489.204,-318.734 482.509,-310.523 478.85,-316.49"/>
</g>
<!-- Node2&#45;&gt;Node11 -->
<g id="edge14" class="edge"><title>Node2&#45;&gt;Node11</title>
<path fill="none" stroke="midnightblue" d="M524.585,-312.92C543.169,-300.069 569.615,-281.782 585.024,-271.127"/>
<polygon fill="midnightblue" stroke="midnightblue" points="522.412,-310.167 516.177,-318.734 526.393,-315.925 522.412,-310.167"/>
</g>
<!-- Node12 -->
<g id="node12" class="node"><title>Node12</title>
<g id="a_node12"><a xlink:href="displacement__op__cuda_8h.html" target="_top" xlink:title="core/operation/displacement\l_op_cuda.h">
<polygon fill="white" stroke="black" points="1110.5,-246.5 1110.5,-276.5 1264.5,-276.5 1264.5,-246.5 1110.5,-246.5"/>
<text text-anchor="start" x="1118.5" y="-264.5" font-family="Helvetica,sans-Serif" font-size="10.00">core/operation/displacement</text>
<text text-anchor="middle" x="1187.5" y="-253.5" font-family="Helvetica,sans-Serif" font-size="10.00">_op_cuda.h</text>
</a>
</g>
</g>
<!-- Node2&#45;&gt;Node12 -->
<g id="edge15" class="edge"><title>Node2&#45;&gt;Node12</title>
<path fill="none" stroke="midnightblue" d="M573.755,-320.824C702.723,-308.568 976.268,-282.573 1110.26,-269.84"/>
<polygon fill="midnightblue" stroke="midnightblue" points="573.225,-317.358 563.601,-321.789 573.887,-324.327 573.225,-317.358"/>
</g>
<!-- Node13 -->
<g id="node13" class="node"><title>Node13</title>
<g id="a_node13"><a xlink:href="dividing__cell__op_8h.html" target="_top" xlink:title="core/operation/dividing\l_cell_op.h">
<polygon fill="white" stroke="black" points="53,-246.5 53,-276.5 178,-276.5 178,-246.5 53,-246.5"/>
<text text-anchor="start" x="61" y="-264.5" font-family="Helvetica,sans-Serif" font-size="10.00">core/operation/dividing</text>
<text text-anchor="middle" x="115.5" y="-253.5" font-family="Helvetica,sans-Serif" font-size="10.00">_cell_op.h</text>
</a>
</g>
</g>
<!-- Node2&#45;&gt;Node13 -->
<g id="edge16" class="edge"><title>Node2&#45;&gt;Node13</title>
<path fill="none" stroke="midnightblue" d="M435.221,-317.5C370.924,-307.875 271.987,-292.531 186.5,-277 183.777,-276.505 180.997,-275.988 178.191,-275.457"/>
<polygon fill="midnightblue" stroke="midnightblue" points="434.829,-320.98 445.236,-318.995 435.862,-314.057 434.829,-320.98"/>
</g>
<!-- Node14 -->
<g id="node14" class="node"><title>Node14</title>
<g id="a_node14"><a xlink:href="cell_8cc.html" target="_top" xlink:title="core/sim_object/cell.cc">
<polygon fill="white" stroke="black" points="196,-252 196,-271 321,-271 321,-252 196,-252"/>
<text text-anchor="middle" x="258.5" y="-259" font-family="Helvetica,sans-Serif" font-size="10.00">core/sim_object/cell.cc</text>
</a>
</g>
</g>
<!-- Node2&#45;&gt;Node14 -->
<g id="edge17" class="edge"><title>Node2&#45;&gt;Node14</title>
<path fill="none" stroke="midnightblue" d="M461.373,-316.323C412.996,-303.489 334.683,-282.712 290.853,-271.083"/>
<polygon fill="midnightblue" stroke="midnightblue" points="460.655,-319.754 471.219,-318.936 462.451,-312.988 460.655,-319.754"/>
</g>
<!-- Node3&#45;&gt;Node4 -->
<g id="edge3" class="edge"><title>Node3&#45;&gt;Node4</title>
<path fill="none" stroke="midnightblue" d="M633.38,-175.784C666.73,-163.181 710.054,-146.808 735.989,-137.007"/>
<polygon fill="midnightblue" stroke="midnightblue" points="631.938,-172.587 623.821,-179.396 634.413,-179.135 631.938,-172.587"/>
</g>
<!-- Node6 -->
<g id="node6" class="node"><title>Node6</title>
<g id="a_node6"><a xlink:href="neurite__element_8h.html" target="_top" xlink:title="neuroscience/neurite\l_element.h">
<polygon fill="white" stroke="black" points="241,-179.5 241,-209.5 358,-209.5 358,-179.5 241,-179.5"/>
<text text-anchor="start" x="249" y="-197.5" font-family="Helvetica,sans-Serif" font-size="10.00">neuroscience/neurite</text>
<text text-anchor="middle" x="299.5" y="-186.5" font-family="Helvetica,sans-Serif" font-size="10.00">_element.h</text>
</a>
</g>
</g>
<!-- Node5&#45;&gt;Node6 -->
<g id="edge6" class="edge"><title>Node5&#45;&gt;Node6</title>
<path fill="none" stroke="midnightblue" d="M367.698,-240.734C352.534,-230.676 334.455,-218.685 320.723,-209.577"/>
<polygon fill="midnightblue" stroke="midnightblue" points="365.967,-243.785 376.235,-246.396 369.836,-237.952 365.967,-243.785"/>
</g>
<!-- Node8 -->
<g id="node8" class="node"><title>Node8</title>
<g id="a_node8"><a xlink:href="neuron__or__neurite_8cc.html" target="_top" xlink:title="neuroscience/neuron\l_or_neurite.cc">
<polygon fill="white" stroke="black" points="0,-112.5 0,-142.5 117,-142.5 117,-112.5 0,-112.5"/>
<text text-anchor="start" x="8" y="-130.5" font-family="Helvetica,sans-Serif" font-size="10.00">neuroscience/neuron</text>
<text text-anchor="middle" x="58.5" y="-119.5" font-family="Helvetica,sans-Serif" font-size="10.00">_or_neurite.cc</text>
</a>
</g>
</g>
<!-- Node5&#45;&gt;Node8 -->
<g id="edge11" class="edge"><title>Node5&#45;&gt;Node8</title>
<path fill="none" stroke="midnightblue" d="M334.586,-243.69C303.241,-234.729 264.98,-222.901 231.5,-210 178.369,-189.527 118.783,-159.908 85.2366,-142.585"/>
<polygon fill="midnightblue" stroke="midnightblue" points="333.93,-247.142 344.505,-246.496 335.836,-240.406 333.93,-247.142"/>
</g>
<!-- Node9 -->
<g id="node9" class="node"><title>Node9</title>
<g id="a_node9"><a xlink:href="neuron__soma_8cc.html" target="_top" xlink:title="neuroscience/neuron\l_soma.cc">
<polygon fill="white" stroke="black" points="444,-112.5 444,-142.5 561,-142.5 561,-112.5 444,-112.5"/>
<text text-anchor="start" x="452" y="-130.5" font-family="Helvetica,sans-Serif" font-size="10.00">neuroscience/neuron</text>
<text text-anchor="middle" x="502.5" y="-119.5" font-family="Helvetica,sans-Serif" font-size="10.00">_soma.cc</text>
</a>
</g>
</g>
<!-- Node5&#45;&gt;Node9 -->
<g id="edge12" class="edge"><title>Node5&#45;&gt;Node9</title>
<path fill="none" stroke="midnightblue" d="M410.015,-237.032C419.531,-220.133 433.508,-197.201 448.5,-179 459.599,-165.526 474.145,-152.115 485.344,-142.504"/>
<polygon fill="midnightblue" stroke="midnightblue" points="406.721,-235.757 404.953,-246.204 412.85,-239.14 406.721,-235.757"/>
</g>
<!-- Node10 -->
<g id="node10" class="node"><title>Node10</title>
<g id="a_node10"><a xlink:href="neuroscience_8h.html" target="_top" xlink:title="neuroscience/neuroscience.h">
<polygon fill="white" stroke="black" points="269.5,-118 269.5,-137 425.5,-137 425.5,-118 269.5,-118"/>
<text text-anchor="middle" x="347.5" y="-125" font-family="Helvetica,sans-Serif" font-size="10.00">neuroscience/neuroscience.h</text>
</a>
</g>
</g>
<!-- Node5&#45;&gt;Node10 -->
<g id="edge13" class="edge"><title>Node5&#45;&gt;Node10</title>
<path fill="none" stroke="midnightblue" d="M388.489,-236.71C377.163,-206.81 358.295,-156.998 350.757,-137.097"/>
<polygon fill="midnightblue" stroke="midnightblue" points="385.334,-238.262 392.149,-246.374 391.88,-235.782 385.334,-238.262"/>
</g>
<!-- Node7 -->
<g id="node7" class="node"><title>Node7</title>
<g id="a_node7"><a xlink:href="default__force_8cc.html" target="_top" xlink:title="core/default_force.cc">
<polygon fill="white" stroke="black" points="135.5,-118 135.5,-137 251.5,-137 251.5,-118 135.5,-118"/>
<text text-anchor="middle" x="193.5" y="-125" font-family="Helvetica,sans-Serif" font-size="10.00">core/default_force.cc</text>
</a>
</g>
</g>
<!-- Node6&#45;&gt;Node7 -->
<g id="edge7" class="edge"><title>Node6&#45;&gt;Node7</title>
<path fill="none" stroke="midnightblue" d="M267.93,-174.141C247.784,-161.787 222.67,-146.388 207.373,-137.007"/>
<polygon fill="midnightblue" stroke="midnightblue" points="266.145,-177.152 276.5,-179.396 269.804,-171.185 266.145,-177.152"/>
</g>
<!-- Node6&#45;&gt;Node8 -->
<g id="edge8" class="edge"><title>Node6&#45;&gt;Node8</title>
<path fill="none" stroke="midnightblue" d="M237.766,-176.85C198.474,-166.252 148.143,-152.677 110.819,-142.611"/>
<polygon fill="midnightblue" stroke="midnightblue" points="236.937,-180.251 247.503,-179.476 238.76,-173.493 236.937,-180.251"/>
</g>
<!-- Node6&#45;&gt;Node9 -->
<g id="edge9" class="edge"><title>Node6&#45;&gt;Node9</title>
<path fill="none" stroke="midnightblue" d="M353.442,-176.228C386.281,-165.713 427.7,-152.451 458.538,-142.577"/>
<polygon fill="midnightblue" stroke="midnightblue" points="352.004,-173.013 343.548,-179.396 354.139,-179.68 352.004,-173.013"/>
</g>
<!-- Node6&#45;&gt;Node10 -->
<g id="edge10" class="edge"><title>Node6&#45;&gt;Node10</title>
<path fill="none" stroke="midnightblue" d="M315.882,-171.316C324.535,-159.598 334.663,-145.883 341.079,-137.195"/>
<polygon fill="midnightblue" stroke="midnightblue" points="313.04,-169.272 309.915,-179.396 318.671,-173.431 313.04,-169.272"/>
</g>
<!-- Node15&#45;&gt;Node4 -->
<g id="edge19" class="edge"><title>Node15&#45;&gt;Node4</title>
<path fill="none" stroke="midnightblue" d="M758.5,-169.25C758.5,-158.017 758.5,-145.377 758.5,-137.195"/>
<polygon fill="midnightblue" stroke="midnightblue" points="755,-169.396 758.5,-179.396 762,-169.396 755,-169.396"/>
</g>
<!-- Node17 -->
<g id="node17" class="node"><title>Node17</title>
<g id="a_node17"><a xlink:href="resource__manager_8h.html" target="_top" xlink:title="core/resource_manager.h">
<polygon fill="white" stroke="black" points="1009.5,-319 1009.5,-338 1149.5,-338 1149.5,-319 1009.5,-319"/>
<text text-anchor="middle" x="1079.5" y="-326" font-family="Helvetica,sans-Serif" font-size="10.00">core/resource_manager.h</text>
</a>
</g>
</g>
<!-- Node16&#45;&gt;Node17 -->
<g id="edge21" class="edge"><title>Node16&#45;&gt;Node17</title>
<path fill="none" stroke="midnightblue" d="M1079.5,-370.317C1079.5,-359.496 1079.5,-346.398 1079.5,-338.009"/>
<polygon fill="midnightblue" stroke="midnightblue" points="1076,-370.475 1079.5,-380.475 1083,-370.475 1076,-370.475"/>
</g>
<!-- Node16&#45;&gt;Node21 -->
<g id="edge49" class="edge"><title>Node16&#45;&gt;Node21</title>
<path fill="none" stroke="midnightblue" d="M1146.57,-385.353C1226.33,-377.551 1358.88,-353.15 1440.5,-277 1473.45,-246.26 1471.74,-223.756 1466.5,-179 1464.76,-164.143 1460.23,-147.32 1457.26,-137.327"/>
<polygon fill="midnightblue" stroke="midnightblue" points="1145.8,-381.909 1136.16,-386.307 1146.44,-388.88 1145.8,-381.909"/>
</g>
<!-- Node28 -->
<g id="node28" class="node"><title>Node28</title>
<g id="a_node28"><a xlink:href="model__initializer_8h.html" target="_top" xlink:title="core/model_initializer.h">
<polygon fill="white" stroke="black" points="738.5,-252 738.5,-271 864.5,-271 864.5,-252 738.5,-252"/>
<text text-anchor="middle" x="801.5" y="-259" font-family="Helvetica,sans-Serif" font-size="10.00">core/model_initializer.h</text>
</a>
</g>
</g>
<!-- Node16&#45;&gt;Node28 -->
<g id="edge48" class="edge"><title>Node16&#45;&gt;Node28</title>
<path fill="none" stroke="midnightblue" d="M1012.8,-384.427C948.602,-378.733 857.401,-366.837 830.5,-344 808.289,-325.144 803.087,-288.063 801.871,-271.208"/>
<polygon fill="midnightblue" stroke="midnightblue" points="1012.6,-387.922 1022.86,-385.288 1013.2,-380.948 1012.6,-387.922"/>
</g>
<!-- Node29 -->
<g id="node29" class="node"><title>Node29</title>
<g id="a_node29"><a xlink:href="substance__initializers_8h.html" target="_top" xlink:title="core/substance_initializers.h">
<polygon fill="white" stroke="black" points="839.5,-319 839.5,-338 991.5,-338 991.5,-319 839.5,-319"/>
<text text-anchor="middle" x="915.5" y="-326" font-family="Helvetica,sans-Serif" font-size="10.00">core/substance_initializers.h</text>
</a>
</g>
</g>
<!-- Node16&#45;&gt;Node29 -->
<g id="edge50" class="edge"><title>Node16&#45;&gt;Node29</title>
<path fill="none" stroke="midnightblue" d="M1046.24,-376.933C1014.36,-365.368 967.066,-348.208 938.954,-338.009"/>
<polygon fill="midnightblue" stroke="midnightblue" points="1045.41,-380.355 1056,-380.475 1047.8,-373.774 1045.41,-380.355"/>
</g>
<!-- Node17&#45;&gt;Node4 -->
<g id="edge38" class="edge"><title>Node17&#45;&gt;Node4</title>
<path fill="none" stroke="midnightblue" d="M1041.19,-315.767C1015.61,-307.048 981.781,-293.778 954.5,-277 898.159,-242.349 895.943,-217.971 842.5,-179 819.952,-162.558 791.82,-146.457 774.512,-137.008"/>
<polygon fill="midnightblue" stroke="midnightblue" points="1040.32,-319.164 1050.91,-318.996 1042.53,-312.521 1040.32,-319.164"/>
</g>
<!-- Node17&#45;&gt;Node9 -->
<g id="edge47" class="edge"><title>Node17&#45;&gt;Node9</title>
<path fill="none" stroke="midnightblue" d="M1023.28,-316.75C989.289,-308.807 945.838,-296.025 910.5,-277 891.61,-266.83 893.265,-254.342 873.5,-246 800.65,-215.254 578.251,-262.922 519.5,-210 500.706,-193.071 499.663,-161.202 500.884,-142.73"/>
<polygon fill="midnightblue" stroke="midnightblue" points="1022.53,-320.169 1033.06,-318.963 1024.08,-313.341 1022.53,-320.169"/>
</g>
<!-- Node17&#45;&gt;Node11 -->
<g id="edge40" class="edge"><title>Node17&#45;&gt;Node11</title>
<path fill="none" stroke="midnightblue" d="M1025.3,-317.131C1017.01,-315.667 1008.53,-314.24 1000.5,-313 872.275,-293.215 720.183,-275.782 644.774,-267.542"/>
<polygon fill="midnightblue" stroke="midnightblue" points="1024.82,-320.602 1035.29,-318.927 1026.06,-313.712 1024.82,-320.602"/>
</g>
<!-- Node17&#45;&gt;Node12 -->
<g id="edge42" class="edge"><title>Node17&#45;&gt;Node12</title>
<path fill="none" stroke="midnightblue" d="M1102.84,-313.454C1120.95,-302.551 1145.96,-287.503 1164.09,-276.589"/>
<polygon fill="midnightblue" stroke="midnightblue" points="1100.83,-310.578 1094.07,-318.734 1104.44,-316.576 1100.83,-310.578"/>
</g>
<!-- Node18 -->
<g id="node18" class="node"><title>Node18</title>
<g id="a_node18"><a xlink:href="sim__object__vector_8h.html" target="_top" xlink:title="core/container/sim\l_object_vector.h">
<polygon fill="white" stroke="black" points="1282.5,-246.5 1282.5,-276.5 1388.5,-276.5 1388.5,-246.5 1282.5,-246.5"/>
<text text-anchor="start" x="1290.5" y="-264.5" font-family="Helvetica,sans-Serif" font-size="10.00">core/container/sim</text>
<text text-anchor="middle" x="1335.5" y="-253.5" font-family="Helvetica,sans-Serif" font-size="10.00">_object_vector.h</text>
</a>
</g>
</g>
<!-- Node17&#45;&gt;Node18 -->
<g id="edge22" class="edge"><title>Node17&#45;&gt;Node18</title>
<path fill="none" stroke="midnightblue" d="M1123.04,-316.445C1166.98,-305.289 1234.89,-288.045 1282.06,-276.068"/>
<polygon fill="midnightblue" stroke="midnightblue" points="1122.06,-313.082 1113.23,-318.936 1123.78,-319.867 1122.06,-313.082"/>
</g>
<!-- Node17&#45;&gt;Node19 -->
<g id="edge35" class="edge"><title>Node17&#45;&gt;Node19</title>
<path fill="none" stroke="midnightblue" d="M1159.7,-326.206C1243.69,-322.951 1367.51,-312.134 1397.5,-277 1417.87,-253.143 1381.01,-219.805 1360.65,-204.201"/>
<polygon fill="midnightblue" stroke="midnightblue" points="1159.53,-322.709 1149.66,-326.566 1159.78,-329.705 1159.53,-322.709"/>
</g>
<!-- Node20 -->
<g id="node20" class="node"><title>Node20</title>
<g id="a_node20"><a xlink:href="in__place__exec__ctxt_8cc.html" target="_top" xlink:title="core/execution_context\l/in_place_exec_ctxt.cc">
<polygon fill="white" stroke="black" points="1192.5,-112.5 1192.5,-142.5 1320.5,-142.5 1320.5,-112.5 1192.5,-112.5"/>
<text text-anchor="start" x="1200.5" y="-130.5" font-family="Helvetica,sans-Serif" font-size="10.00">core/execution_context</text>
<text text-anchor="middle" x="1256.5" y="-119.5" font-family="Helvetica,sans-Serif" font-size="10.00">/in_place_exec_ctxt.cc</text>
</a>
</g>
</g>
<!-- Node17&#45;&gt;Node20 -->
<g id="edge39" class="edge"><title>Node17&#45;&gt;Node20</title>
<path fill="none" stroke="midnightblue" d="M1081.07,-308.816C1083.3,-291.305 1088.67,-265.043 1101.5,-246 1133.95,-197.832 1192.77,-161.349 1227.87,-142.592"/>
<polygon fill="midnightblue" stroke="midnightblue" points="1077.58,-308.584 1080.01,-318.895 1084.54,-309.317 1077.58,-308.584"/>
</g>
<!-- Node17&#45;&gt;Node21 -->
<g id="edge41" class="edge"><title>Node17&#45;&gt;Node21</title>
<path fill="none" stroke="midnightblue" d="M1159.7,-325.283C1246.63,-321.214 1377.88,-309.681 1414.5,-277 1456.53,-239.487 1456.45,-162.93 1455.12,-137.175"/>
<polygon fill="midnightblue" stroke="midnightblue" points="1159.42,-321.791 1149.59,-325.732 1159.74,-328.784 1159.42,-321.791"/>
</g>
<!-- Node17&#45;&gt;Node22 -->
<g id="edge44" class="edge"><title>Node17&#45;&gt;Node22</title>
<path fill="none" stroke="midnightblue" d="M1059.76,-312.791C1004.56,-270.847 854.81,-151.162 889.5,-112 941.598,-53.1862 1498.65,-21.6657 1670.38,-13.2951"/>
<polygon fill="midnightblue" stroke="midnightblue" points="1057.68,-315.602 1067.77,-318.831 1061.89,-310.014 1057.68,-315.602"/>
</g>
<!-- Node25 -->
<g id="node25" class="node"><title>Node25</title>
<g id="a_node25"><a xlink:href="resource__manager_8cc.html" target="_top" xlink:title="core/resource_manager.cc">
<polygon fill="white" stroke="black" points="898.5,-118 898.5,-137 1042.5,-137 1042.5,-118 898.5,-118"/>
<text text-anchor="middle" x="970.5" y="-125" font-family="Helvetica,sans-Serif" font-size="10.00">core/resource_manager.cc</text>
</a>
</g>
</g>
<!-- Node17&#45;&gt;Node25 -->
<g id="edge43" class="edge"><title>Node17&#45;&gt;Node25</title>
<path fill="none" stroke="midnightblue" d="M1069.98,-310.121C1047.54,-269.144 991.943,-167.647 975.289,-137.243"/>
<polygon fill="midnightblue" stroke="midnightblue" points="1066.94,-311.86 1074.82,-318.949 1073.08,-308.497 1066.94,-311.86"/>
</g>
<!-- Node26 -->
<g id="node26" class="node"><title>Node26</title>
<g id="a_node26"><a xlink:href="sim__object_8cc.html" target="_top" xlink:title="core/sim_object/sim\l_object.cc">
<polygon fill="white" stroke="black" points="1061,-112.5 1061,-142.5 1174,-142.5 1174,-112.5 1061,-112.5"/>
<text text-anchor="start" x="1069" y="-130.5" font-family="Helvetica,sans-Serif" font-size="10.00">core/sim_object/sim</text>
<text text-anchor="middle" x="1117.5" y="-119.5" font-family="Helvetica,sans-Serif" font-size="10.00">_object.cc</text>
</a>
</g>
</g>
<!-- Node17&#45;&gt;Node26 -->
<g id="edge45" class="edge"><title>Node17&#45;&gt;Node26</title>
<path fill="none" stroke="midnightblue" d="M1073.07,-309.117C1064.06,-280.231 1050.67,-222.975 1068.5,-179 1074.42,-164.396 1086.82,-151.687 1097.66,-142.671"/>
<polygon fill="midnightblue" stroke="midnightblue" points="1069.78,-310.311 1076.24,-318.712 1076.43,-308.119 1069.78,-310.311"/>
</g>
<!-- Node17&#45;&gt;Node27 -->
<g id="edge46" class="edge"><title>Node17&#45;&gt;Node27</title>
<path fill="none" stroke="midnightblue" d="M1159.61,-321.856C1250.43,-314.491 1392.15,-299.789 1440.5,-277 1513.67,-242.514 1576.75,-163.305 1596.27,-137.096"/>
<polygon fill="midnightblue" stroke="midnightblue" points="1159.31,-318.369 1149.62,-322.653 1159.87,-325.347 1159.31,-318.369"/>
</g>
<!-- Node17&#45;&gt;Node28 -->
<g id="edge36" class="edge"><title>Node17&#45;&gt;Node28</title>
<path fill="none" stroke="midnightblue" d="M1033.07,-316.644C978.295,-303.837 888.361,-282.809 838.211,-271.083"/>
<polygon fill="midnightblue" stroke="midnightblue" points="1032.34,-320.067 1042.87,-318.936 1033.93,-313.251 1032.34,-320.067"/>
</g>
<!-- Node18&#45;&gt;Node19 -->
<g id="edge23" class="edge"><title>Node18&#45;&gt;Node19</title>
<path fill="none" stroke="midnightblue" d="M1340.35,-236.25C1342.6,-225.017 1345.12,-212.377 1346.76,-204.195"/>
<polygon fill="midnightblue" stroke="midnightblue" points="1336.85,-235.904 1338.32,-246.396 1343.71,-237.277 1336.85,-235.904"/>
</g>
<!-- Node19&#45;&gt;Node4 -->
<g id="edge24" class="edge"><title>Node19&#45;&gt;Node4</title>
<path fill="none" stroke="midnightblue" d="M1304.29,-188.646C1222.44,-179.656 1041.76,-159.803 889.5,-143 858.796,-139.612 824.045,-135.765 798.054,-132.885"/>
<polygon fill="midnightblue" stroke="midnightblue" points="1303.92,-192.126 1314.24,-189.738 1304.68,-185.168 1303.92,-192.126"/>
</g>
<!-- Node19&#45;&gt;Node20 -->
<g id="edge25" class="edge"><title>Node19&#45;&gt;Node20</title>
<path fill="none" stroke="midnightblue" d="M1327.76,-178.849C1312.41,-168 1291.61,-153.303 1276.44,-142.589"/>
<polygon fill="midnightblue" stroke="midnightblue" points="1325.91,-181.822 1336.09,-184.734 1329.94,-176.105 1325.91,-181.822"/>
</g>
<!-- Node19&#45;&gt;Node21 -->
<g id="edge26" class="edge"><title>Node19&#45;&gt;Node21</title>
<path fill="none" stroke="midnightblue" d="M1371.42,-179.442C1392.42,-166.57 1422.82,-147.927 1440.43,-137.127"/>
<polygon fill="midnightblue" stroke="midnightblue" points="1369.49,-176.523 1362.8,-184.734 1373.15,-182.49 1369.49,-176.523"/>
</g>
<!-- Node19&#45;&gt;Node23 -->
<g id="edge28" class="edge"><title>Node19&#45;&gt;Node23</title>
<path fill="none" stroke="midnightblue" d="M1393.19,-187.41C1474.55,-176.324 1647.69,-152.729 1748.43,-139.002"/>
<polygon fill="midnightblue" stroke="midnightblue" points="1392.24,-184.007 1382.8,-188.825 1393.19,-190.943 1392.24,-184.007"/>
</g>
<!-- Node19&#45;&gt;Node24 -->
<g id="edge31" class="edge"><title>Node19&#45;&gt;Node24</title>
<path fill="none" stroke="midnightblue" d="M1347.14,-174.957C1346.87,-156.101 1349.76,-127.517 1367.5,-112 1395.5,-87.5157 1619.65,-75.1514 1748.38,-70.0132"/>
<polygon fill="midnightblue" stroke="midnightblue" points="1343.64,-175.167 1347.59,-185 1350.64,-174.853 1343.64,-175.167"/>
</g>
<!-- Node19&#45;&gt;Node25 -->
<g id="edge32" class="edge"><title>Node19&#45;&gt;Node25</title>
<path fill="none" stroke="midnightblue" d="M1304.25,-186.1C1246.2,-176.363 1141.18,-158.65 1051.5,-143 1040.52,-141.084 1028.72,-138.99 1017.6,-137.003"/>
<polygon fill="midnightblue" stroke="midnightblue" points="1303.74,-189.563 1314.18,-187.765 1304.9,-182.66 1303.74,-189.563"/>
</g>
<!-- Node19&#45;&gt;Node26 -->
<g id="edge33" class="edge"><title>Node19&#45;&gt;Node26</title>
<path fill="none" stroke="midnightblue" d="M1308.08,-182.128C1268.92,-171.108 1209.44,-154.369 1167.35,-142.528"/>
<polygon fill="midnightblue" stroke="midnightblue" points="1307.25,-185.529 1317.82,-184.869 1309.15,-178.791 1307.25,-185.529"/>
</g>
<!-- Node19&#45;&gt;Node27 -->
<g id="edge34" class="edge"><title>Node19&#45;&gt;Node27</title>
<path fill="none" stroke="midnightblue" d="M1391.86,-182.404C1441.99,-169.576 1523.42,-148.736 1568.96,-137.083"/>
<polygon fill="midnightblue" stroke="midnightblue" points="1390.79,-179.066 1381.97,-184.936 1392.52,-185.847 1390.79,-179.066"/>
</g>
<!-- Node21&#45;&gt;Node22 -->
<g id="edge27" class="edge"><title>Node21&#45;&gt;Node22</title>
<path fill="none" stroke="midnightblue" d="M1483.95,-113.712C1538.58,-89.9929 1654.25,-39.768 1700.64,-19.6245"/>
<polygon fill="midnightblue" stroke="midnightblue" points="1482.27,-110.625 1474.49,-117.819 1485.06,-117.046 1482.27,-110.625"/>
</g>
<!-- Node23&#45;&gt;Node24 -->
<g id="edge29" class="edge"><title>Node23&#45;&gt;Node24</title>
<path fill="none" stroke="midnightblue" d="M1830.72,-102.593C1832.8,-93.0768 1835.06,-82.73 1836.61,-75.6578"/>
<polygon fill="midnightblue" stroke="midnightblue" points="1827.3,-101.883 1828.58,-112.399 1834.13,-103.377 1827.3,-101.883"/>
</g>
<!-- Node24&#45;&gt;Node22 -->
<g id="edge30" class="edge"><title>Node24&#45;&gt;Node22</title>
<path fill="none" stroke="midnightblue" d="M1810.6,-52.2321C1788.53,-42.1312 1758.32,-28.3091 1739.11,-19.5164"/>
<polygon fill="midnightblue" stroke="midnightblue" points="1809.25,-55.4648 1819.8,-56.4435 1812.17,-49.0997 1809.25,-55.4648"/>
</g>
<!-- Node28&#45;&gt;Node4 -->
<g id="edge37" class="edge"><title>Node28&#45;&gt;Node4</title>
<path fill="none" stroke="midnightblue" d="M813.806,-243.184C824.227,-226.221 835.939,-199.94 825.5,-179 815.687,-159.316 794.14,-145.283 778.115,-137.083"/>
<polygon fill="midnightblue" stroke="midnightblue" points="810.871,-241.279 808.299,-251.557 816.719,-245.126 810.871,-241.279"/>
</g>
<!-- Node30&#45;&gt;Node22 -->
<g id="edge55" class="edge"><title>Node30&#45;&gt;Node22</title>
<path fill="none" stroke="midnightblue" d="M1952.7,-54.5371C1898.27,-44.3316 1816.5,-28.9992 1765.92,-19.5164"/>
<polygon fill="midnightblue" stroke="midnightblue" points="1952.39,-58.0406 1962.87,-56.4435 1953.68,-51.1605 1952.39,-58.0406"/>
</g>
<!-- Node31&#45;&gt;Node12 -->
<g id="edge58" class="edge"><title>Node31&#45;&gt;Node12</title>
<path fill="none" stroke="midnightblue" d="M1700.48,-321.847C1604.1,-313.733 1425.26,-297.481 1273.5,-277 1270.65,-276.615 1267.75,-276.208 1264.82,-275.783"/>
<polygon fill="midnightblue" stroke="midnightblue" points="1700.42,-325.354 1710.68,-322.701 1701.01,-318.379 1700.42,-325.354"/>
</g>
<!-- Node31&#45;&gt;Node22 -->
<g id="edge59" class="edge"><title>Node31&#45;&gt;Node22</title>
<path fill="none" stroke="midnightblue" d="M1755.97,-304.539C1741.21,-278.959 1720.5,-235.877 1720.5,-195.5 1720.5,-195.5 1720.5,-195.5 1720.5,-126.5 1720.5,-86.5964 1720.5,-38.938 1720.5,-19.6934"/>
<polygon fill="midnightblue" stroke="midnightblue" points="1752.97,-306.334 1761.1,-313.133 1758.98,-302.751 1752.97,-306.334"/>
</g>
<!-- Node31&#45;&gt;Node23 -->
<g id="edge57" class="edge"><title>Node31&#45;&gt;Node23</title>
<path fill="none" stroke="midnightblue" d="M1777.12,-303.533C1788.7,-261.652 1812.26,-176.399 1821.58,-142.682"/>
<polygon fill="midnightblue" stroke="midnightblue" points="1773.75,-302.617 1774.46,-313.188 1780.49,-304.482 1773.75,-302.617"/>
</g>
<!-- Node33 -->
<g id="node33" class="node"><title>Node33</title>
<g id="a_node33"><a xlink:href="op__timer_8h.html" target="_top" xlink:title="core/operation/op_timer.h">
<polygon fill="white" stroke="black" points="2088.5,-56.5 2088.5,-75.5 2228.5,-75.5 2228.5,-56.5 2088.5,-56.5"/>
<text text-anchor="middle" x="2158.5" y="-63.5" font-family="Helvetica,sans-Serif" font-size="10.00">core/operation/op_timer.h</text>
</a>
</g>
</g>
<!-- Node32&#45;&gt;Node33 -->
<g id="edge64" class="edge"><title>Node32&#45;&gt;Node33</title>
<path fill="none" stroke="midnightblue" d="M2058.33,-372.268C2074.86,-348.991 2101.5,-304.906 2101.5,-262.5 2101.5,-262.5 2101.5,-262.5 2101.5,-193.5 2101.5,-145.323 2136.29,-95.2132 2151.51,-75.5954"/>
<polygon fill="midnightblue" stroke="midnightblue" points="2055.47,-370.253 2052.37,-380.384 2061.11,-374.398 2055.47,-370.253"/>
</g>
<!-- Node33&#45;&gt;Node22 -->
<g id="edge65" class="edge"><title>Node33&#45;&gt;Node22</title>
<path fill="none" stroke="midnightblue" d="M2078.96,-55.194C1989.18,-44.1249 1845.84,-26.4533 1770.5,-17.1649"/>
<polygon fill="midnightblue" stroke="midnightblue" points="2078.74,-58.6935 2089.1,-56.4435 2079.6,-51.7461 2078.74,-58.6935"/>
</g>
</g>
</svg>
