<?xml version="1.0" encoding="UTF-8" standalone="no"?>
<!DOCTYPE svg PUBLIC "-//W3C//DTD SVG 1.1//EN"
 "http://www.w3.org/Graphics/SVG/1.1/DTD/svg11.dtd">
<!-- Generated by graphviz version 2.38.0 (20140413.2041)
 -->
<!-- Title: core/biology_module Pages: 1 -->
<svg width="208pt" height="295pt"
 viewBox="0.00 0.00 208.00 295.00" xmlns="http://www.w3.org/2000/svg" xmlns:xlink="http://www.w3.org/1999/xlink">
<g id="graph0" class="graph" transform="scale(1 1) rotate(0) translate(4 291)">
<title>core/biology_module</title>
<polygon fill="white" stroke="none" points="-4,4 -4,-291 204,-291 204,4 -4,4"/>
<g id="clust1" class="cluster"><title>clusterdir_4270bfced15e0e73154b13468c7c9ad9</title>
<g id="a_clust1"><a xlink:href="dir_4270bfced15e0e73154b13468c7c9ad9.html" target="_top" xlink:title="core">
<polygon fill="#ddddee" stroke="black" points="8,-208 8,-279 116,-279 116,-208 8,-208"/>
<text text-anchor="middle" x="62" y="-267" font-family="Helvetica,sans-Serif" font-size="10.00">core</text>
</a>
</g>
</g>
<!-- dir_cc1139eeea87fb0d81a0dc0c64778f26 -->
<g id="node1" class="node"><title>dir_cc1139eeea87fb0d81a0dc0c64778f26</title>
<g id="a_node1"><a xlink:href="dir_cc1139eeea87fb0d81a0dc0c64778f26.html" target="_top" xlink:title="biology_module">
<polygon fill="#eeeeff" stroke="black" points="108,-252 16,-252 16,-216 108,-216 108,-252"/>
<text text-anchor="middle" x="62" y="-231.5" font-family="Helvetica,sans-Serif" font-size="10.00">biology_module</text>
</a>
</g>
</g>
<!-- dir_459a7c9a427a2877b0db19c6b8d6e89d -->
<g id="node2" class="node"><title>dir_459a7c9a427a2877b0db19c6b8d6e89d</title>
<g id="a_node2"><a xlink:href="dir_459a7c9a427a2877b0db19c6b8d6e89d.html" target="_top" xlink:title="util">
<polygon fill="none" stroke="black" points="141,-108 87,-108 87,-72 141,-72 141,-108"/>
<text text-anchor="middle" x="114" y="-87.5" font-family="Helvetica,sans-Serif" font-size="10.00">util</text>
</a>
</g>
</g>
<!-- dir_cc1139eeea87fb0d81a0dc0c64778f26&#45;&gt;dir_459a7c9a427a2877b0db19c6b8d6e89d -->
<g id="edge1" class="edge"><title>dir_cc1139eeea87fb0d81a0dc0c64778f26&#45;&gt;dir_459a7c9a427a2877b0db19c6b8d6e89d</title>
<path fill="none" stroke="black" d="M62.9743,-215.678C64.4918,-197.297 68.3359,-167.694 78,-144 81.9284,-134.368 87.7907,-124.701 93.6496,-116.31"/>
<polygon fill="black" stroke="black" points="96.5902,-118.218 99.673,-108.081 90.9419,-114.083 96.5902,-118.218"/>
<g id="a_edge1&#45;headlabel"><a xlink:href="dir_000001_000013.html" target="_top" xlink:title="4">
<text text-anchor="middle" x="96.758" y="-120.295" font-family="Helvetica,sans-Serif" font-size="10.00">4</text>
</a>
</g>
</g>
<!-- dir_8417c195086d4ff6acfc795544c5eeb6 -->
<g id="node3" class="node"><title>dir_8417c195086d4ff6acfc795544c5eeb6</title>
<g id="a_node3"><a xlink:href="dir_8417c195086d4ff6acfc795544c5eeb6.html" target="_top" xlink:title="sim_object">
<polygon fill="none" stroke="black" points="200,-252 132,-252 132,-216 200,-216 200,-252"/>
<text text-anchor="middle" x="166" y="-231.5" font-family="Helvetica,sans-Serif" font-size="10.00">sim_object</text>
</a>
</g>
</g>
<!-- dir_cc1139eeea87fb0d81a0dc0c64778f26&#45;&gt;dir_8417c195086d4ff6acfc795544c5eeb6 -->
<g id="edge2" class="edge"><title>dir_cc1139eeea87fb0d81a0dc0c64778f26&#45;&gt;dir_8417c195086d4ff6acfc795544c5eeb6</title>
<path fill="none" stroke="black" d="M108.312,-234C112.707,-234 117.101,-234 121.495,-234"/>
<polygon fill="black" stroke="black" points="121.748,-237.5 131.748,-234 121.748,-230.5 121.748,-237.5"/>
<g id="a_edge2&#45;headlabel"><a xlink:href="dir_000001_000010.html" target="_top" xlink:title="2">
<text text-anchor="middle" x="118.153" y="-237.839" font-family="Helvetica,sans-Serif" font-size="10.00">2</text>
</a>
</g>
</g>
<!-- dir_1505f64a8d203d0c8301996badaaeb61 -->
<g id="node4" class="node"><title>dir_1505f64a8d203d0c8301996badaaeb61</title>
<g id="a_node4"><a xlink:href="dir_1505f64a8d203d0c8301996badaaeb61.html" target="_top" xlink:title="event">
<polygon fill="none" stroke="black" points="141,-180 87,-180 87,-144 141,-144 141,-180"/>
<text text-anchor="middle" x="114" y="-159.5" font-family="Helvetica,sans-Serif" font-size="10.00">event</text>
</a>
</g>
</g>
<!-- dir_cc1139eeea87fb0d81a0dc0c64778f26&#45;&gt;dir_1505f64a8d203d0c8301996badaaeb61 -->
<g id="edge3" class="edge"><title>dir_cc1139eeea87fb0d81a0dc0c64778f26&#45;&gt;dir_1505f64a8d203d0c8301996badaaeb61</title>
<path fill="none" stroke="black" d="M74.8539,-215.697C81.0251,-207.389 88.537,-197.277 95.324,-188.141"/>
<polygon fill="black" stroke="black" points="98.1403,-190.219 101.294,-180.104 92.521,-186.045 98.1403,-190.219"/>
<g id="a_edge3&#45;headlabel"><a xlink:href="dir_000001_000003.html" target="_top" xlink:title="2">
<text text-anchor="middle" x="98.2759" y="-192.298" font-family="Helvetica,sans-Serif" font-size="10.00">2</text>
</a>
</g>
</g>
<!-- dir_7155ef3ffc36b95c2fce4bd5b1f8d366 -->
<g id="node5" class="node"><title>dir_7155ef3ffc36b95c2fce4bd5b1f8d366</title>
<g id="a_node5"><a xlink:href="dir_7155ef3ffc36b95c2fce4bd5b1f8d366.html" target="_top" xlink:title="param">
<polygon fill="none" stroke="black" points="141,-36 87,-36 87,-0 141,-0 141,-36"/>
<text text-anchor="middle" x="114" y="-15.5" font-family="Helvetica,sans-Serif" font-size="10.00">param</text>
</a>
</g>
</g>
<!-- dir_cc1139eeea87fb0d81a0dc0c64778f26&#45;&gt;dir_7155ef3ffc36b95c2fce4bd5b1f8d366 -->
<g id="edge4" class="edge"><title>dir_cc1139eeea87fb0d81a0dc0c64778f26&#45;&gt;dir_7155ef3ffc36b95c2fce4bd5b1f8d366</title>
<path fill="none" stroke="black" d="M60.5228,-215.76C58.6024,-185.41 57.6028,-121.014 78,-72 81.9966,-62.3964 87.8772,-52.7367 93.732,-44.3435"/>
<polygon fill="black" stroke="black" points="96.6731,-46.2507 99.744,-36.1107 91.02,-42.1225 96.6731,-46.2507"/>
<g id="a_edge4&#45;headlabel"><a xlink:href="dir_000001_000009.html" target="_top" xlink:title="1">
<text text-anchor="middle" x="96.8462" y="-48.3281" font-family="Helvetica,sans-Serif" font-size="10.00">1</text>
</a>
</g>
</g>
<!-- dir_459a7c9a427a2877b0db19c6b8d6e89d&#45;&gt;dir_7155ef3ffc36b95c2fce4bd5b1f8d366 -->
<g id="edge5" class="edge"><title>dir_459a7c9a427a2877b0db19c6b8d6e89d&#45;&gt;dir_7155ef3ffc36b95c2fce4bd5b1f8d366</title>
<path fill="none" stroke="black" d="M108.084,-71.6966C107.289,-63.9827 107.062,-54.7125 107.405,-46.1124"/>
<polygon fill="black" stroke="black" points="110.898,-46.3243 108.105,-36.1043 103.915,-45.8356 110.898,-46.3243"/>
<g id="a_edge5&#45;headlabel"><a xlink:href="dir_000013_000009.html" target="_top" xlink:title="1">
<text text-anchor="middle" x="113.48" y="-47.6083" font-family="Helvetica,sans-Serif" font-size="10.00">1</text>
</a>
</g>
</g>
<!-- dir_8417c195086d4ff6acfc795544c5eeb6&#45;&gt;dir_cc1139eeea87fb0d81a0dc0c64778f26 -->
<g id="edge6" class="edge"><title>dir_8417c195086d4ff6acfc795544c5eeb6&#45;&gt;dir_cc1139eeea87fb0d81a0dc0c64778f26</title>
<path fill="none" stroke="black" d="M131.748,-234C127.354,-234 122.96,-234 118.566,-234"/>
<polygon fill="black" stroke="black" points="118.313,-230.5 108.312,-234 118.312,-237.5 118.313,-230.5"/>
<g id="a_edge6&#45;headlabel"><a xlink:href="dir_000010_000001.html" target="_top" xlink:title="1">
<text text-anchor="middle" x="121.907" y="-225.161" font-family="Helvetica,sans-Serif" font-size="10.00">1</text>
</a>
</g>
</g>
<!-- dir_8417c195086d4ff6acfc795544c5eeb6&#45;&gt;dir_459a7c9a427a2877b0db19c6b8d6e89d -->
<g id="edge7" class="edge"><title>dir_8417c195086d4ff6acfc795544c5eeb6&#45;&gt;dir_459a7c9a427a2877b0db19c6b8d6e89d</title>
<path fill="none" stroke="black" d="M165.026,-215.678C163.508,-197.297 159.664,-167.694 150,-144 146.072,-134.368 140.209,-124.701 134.35,-116.31"/>
<polygon fill="black" stroke="black" points="137.058,-114.083 128.327,-108.081 131.41,-118.218 137.058,-114.083"/>
<g id="a_edge7&#45;headlabel"><a xlink:href="dir_000010_000013.html" target="_top" xlink:title="13">
<text text-anchor="middle" x="141.472" y="-112.806" font-family="Helvetica,sans-Serif" font-size="10.00">13</text>
</a>
</g>
</g>
<!-- dir_8417c195086d4ff6acfc795544c5eeb6&#45;&gt;dir_1505f64a8d203d0c8301996badaaeb61 -->
<g id="edge8" class="edge"><title>dir_8417c195086d4ff6acfc795544c5eeb6&#45;&gt;dir_1505f64a8d203d0c8301996badaaeb61</title>
<path fill="none" stroke="black" d="M153.146,-215.697C146.975,-207.389 139.463,-197.277 132.676,-188.141"/>
<polygon fill="black" stroke="black" points="135.479,-186.045 126.706,-180.104 129.86,-190.219 135.479,-186.045"/>
<g id="a_edge8&#45;headlabel"><a xlink:href="dir_000010_000003.html" target="_top" xlink:title="3">
<text text-anchor="middle" x="139.902" y="-184.737" font-family="Helvetica,sans-Serif" font-size="10.00">3</text>
</a>
</g>
</g>
<!-- dir_8417c195086d4ff6acfc795544c5eeb6&#45;&gt;dir_7155ef3ffc36b95c2fce4bd5b1f8d366 -->
<g id="edge9" class="edge"><title>dir_8417c195086d4ff6acfc795544c5eeb6&#45;&gt;dir_7155ef3ffc36b95c2fce4bd5b1f8d366</title>
<path fill="none" stroke="black" d="M167.625,-215.833C168.524,-205.467 169.548,-191.987 170,-180 171.838,-131.219 170.519,-116.294 150,-72 145.628,-62.5615 139.646,-52.9463 133.814,-44.543"/>
<polygon fill="black" stroke="black" points="136.549,-42.3515 127.864,-36.2828 130.869,-46.4427 136.549,-42.3515"/>
<g id="a_edge9&#45;headlabel"><a xlink:href="dir_000010_000009.html" target="_top" xlink:title="1">
<text text-anchor="middle" x="140.954" y="-41.1089" font-family="Helvetica,sans-Serif" font-size="10.00">1</text>
</a>
</g>
</g>
<!-- dir_1505f64a8d203d0c8301996badaaeb61&#45;&gt;dir_459a7c9a427a2877b0db19c6b8d6e89d -->
<g id="edge10" class="edge"><title>dir_1505f64a8d203d0c8301996badaaeb61&#45;&gt;dir_459a7c9a427a2877b0db19c6b8d6e89d</title>
<path fill="none" stroke="black" d="M114,-143.697C114,-135.983 114,-126.712 114,-118.112"/>
<polygon fill="black" stroke="black" points="117.5,-118.104 114,-108.104 110.5,-118.104 117.5,-118.104"/>
<g id="a_edge10&#45;headlabel"><a xlink:href="dir_000003_000013.html" target="_top" xlink:title="1">
<text text-anchor="middle" x="120.339" y="-119.199" font-family="Helvetica,sans-Serif" font-size="10.00">1</text>
</a>
</g>
</g>
<!-- dir_7155ef3ffc36b95c2fce4bd5b1f8d366&#45;&gt;dir_459a7c9a427a2877b0db19c6b8d6e89d -->
<g id="edge11" class="edge"><title>dir_7155ef3ffc36b95c2fce4bd5b1f8d366&#45;&gt;dir_459a7c9a427a2877b0db19c6b8d6e89d</title>
<path fill="none" stroke="black" d="M119.895,-36.1043C120.701,-43.7913 120.937,-53.0537 120.604,-61.6651"/>
<polygon fill="black" stroke="black" points="117.109,-61.4805 119.916,-71.6966 124.092,-61.9597 117.109,-61.4805"/>
<g id="a_edge11&#45;headlabel"><a xlink:href="dir_000009_000013.html" target="_top" xlink:title="6">
<text text-anchor="middle" x="114.522" y="-55.2" font-family="Helvetica,sans-Serif" font-size="10.00">6</text>
</a>
</g>
</g>
</g>
</svg>
