<?xml version="1.0" encoding="UTF-8" standalone="no"?>
<!DOCTYPE svg PUBLIC "-//W3C//DTD SVG 1.1//EN"
 "http://www.w3.org/Graphics/SVG/1.1/DTD/svg11.dtd">
<!-- Generated by graphviz version 2.38.0 (20140413.2041)
 -->
<!-- Title: core/visualization Pages: 1 -->
<svg width="313pt" height="375pt"
 viewBox="0.00 0.00 312.73 375.00" xmlns="http://www.w3.org/2000/svg" xmlns:xlink="http://www.w3.org/1999/xlink">
<g id="graph0" class="graph" transform="scale(1 1) rotate(0) translate(4 371)">
<title>core/visualization</title>
<polygon fill="white" stroke="none" points="-4,4 -4,-371 308.732,-371 308.732,4 -4,4"/>
<g id="clust1" class="cluster"><title>clusterdir_4270bfced15e0e73154b13468c7c9ad9</title>
<g id="a_clust1"><a xlink:href="dir_4270bfced15e0e73154b13468c7c9ad9.html" target="_top" xlink:title="core">
<polygon fill="#ddddee" stroke="black" points="40.732,-272 40.732,-359 296.732,-359 296.732,-272 40.732,-272"/>
<text text-anchor="middle" x="168.732" y="-347" font-family="Helvetica,sans-Serif" font-size="10.00">core</text>
</a>
</g>
</g>
<g id="clust2" class="cluster"><title>clusterdir_495c398245f1b03c2187e57d110c3617</title>
<g id="a_clust2"><a xlink:href="dir_495c398245f1b03c2187e57d110c3617.html" target="_top">
<polygon fill="#eeeeff" stroke="black" points="48.732,-280 48.732,-332 288.732,-332 288.732,-280 48.732,-280"/>
</a>
</g>
</g>
<!-- dir_495c398245f1b03c2187e57d110c3617 -->
<g id="node1" class="node"><title>dir_495c398245f1b03c2187e57d110c3617</title>
<text text-anchor="middle" x="243.732" y="-303.5" font-family="Helvetica,sans-Serif" font-size="10.00">visualization</text>
</g>
<!-- dir_3aa7801462393104955ed6c120541043 -->
<g id="node2" class="node"><title>dir_3aa7801462393104955ed6c120541043</title>
<g id="a_node2"><a xlink:href="dir_3aa7801462393104955ed6c120541043.html" target="_top" xlink:title="paraview">
<polygon fill="white" stroke="black" points="188.232,-324 129.232,-324 129.232,-288 188.232,-288 188.232,-324"/>
<text text-anchor="middle" x="158.732" y="-303.5" font-family="Helvetica,sans-Serif" font-size="10.00">paraview</text>
</a>
</g>
</g>
<!-- dir_459a7c9a427a2877b0db19c6b8d6e89d -->
<g id="node5" class="node"><title>dir_459a7c9a427a2877b0db19c6b8d6e89d</title>
<g id="a_node5"><a xlink:href="dir_459a7c9a427a2877b0db19c6b8d6e89d.html" target="_top" xlink:title="util">
<polygon fill="none" stroke="black" points="175.732,-108 121.732,-108 121.732,-72 175.732,-72 175.732,-108"/>
<text text-anchor="middle" x="148.732" y="-87.5" font-family="Helvetica,sans-Serif" font-size="10.00">util</text>
</a>
</g>
</g>
<!-- dir_3aa7801462393104955ed6c120541043&#45;&gt;dir_459a7c9a427a2877b0db19c6b8d6e89d -->
<g id="edge1" class="edge"><title>dir_3aa7801462393104955ed6c120541043&#45;&gt;dir_459a7c9a427a2877b0db19c6b8d6e89d</title>
<path fill="none" stroke="black" d="M169.931,-287.607C187.78,-257.561 218.722,-194.321 198.732,-144 194.441,-133.199 186.79,-123.324 178.744,-115.102"/>
<polygon fill="black" stroke="black" points="180.982,-112.401 171.328,-108.037 176.154,-117.469 180.982,-112.401"/>
<g id="a_edge1&#45;headlabel"><a xlink:href="dir_000012_000013.html" target="_top" xlink:title="2">
<text text-anchor="middle" x="185.543" y="-110.325" font-family="Helvetica,sans-Serif" font-size="10.00">2</text>
</a>
</g>
</g>
<!-- dir_8417c195086d4ff6acfc795544c5eeb6 -->
<g id="node6" class="node"><title>dir_8417c195086d4ff6acfc795544c5eeb6</title>
<g id="a_node6"><a xlink:href="dir_8417c195086d4ff6acfc795544c5eeb6.html" target="_top" xlink:title="sim_object">
<polygon fill="none" stroke="black" points="189.732,-180 121.732,-180 121.732,-144 189.732,-144 189.732,-180"/>
<text text-anchor="middle" x="155.732" y="-159.5" font-family="Helvetica,sans-Serif" font-size="10.00">sim_object</text>
</a>
</g>
</g>
<!-- dir_3aa7801462393104955ed6c120541043&#45;&gt;dir_8417c195086d4ff6acfc795544c5eeb6 -->
<g id="edge2" class="edge"><title>dir_3aa7801462393104955ed6c120541043&#45;&gt;dir_8417c195086d4ff6acfc795544c5eeb6</title>
<path fill="none" stroke="black" d="M158.37,-287.871C157.859,-263.67 156.92,-219.211 156.311,-190.393"/>
<polygon fill="black" stroke="black" points="159.806,-190.113 156.095,-180.189 152.807,-190.261 159.806,-190.113"/>
<g id="a_edge2&#45;headlabel"><a xlink:href="dir_000012_000010.html" target="_top" xlink:title="2">
<text text-anchor="middle" x="162.72" y="-191.147" font-family="Helvetica,sans-Serif" font-size="10.00">2</text>
</a>
</g>
</g>
<!-- dir_1b63f22ff36ffa98be356425464e796a -->
<g id="node7" class="node"><title>dir_1b63f22ff36ffa98be356425464e796a</title>
<g id="a_node7"><a xlink:href="dir_1b63f22ff36ffa98be356425464e796a.html" target="_top" xlink:title="container">
<polygon fill="none" stroke="black" points="234.732,-36 172.732,-36 172.732,-0 234.732,-0 234.732,-36"/>
<text text-anchor="middle" x="203.732" y="-15.5" font-family="Helvetica,sans-Serif" font-size="10.00">container</text>
</a>
</g>
</g>
<!-- dir_3aa7801462393104955ed6c120541043&#45;&gt;dir_1b63f22ff36ffa98be356425464e796a -->
<g id="edge3" class="edge"><title>dir_3aa7801462393104955ed6c120541043&#45;&gt;dir_1b63f22ff36ffa98be356425464e796a</title>
<path fill="none" stroke="black" d="M180.142,-287.786C190.434,-278.325 201.973,-265.733 208.732,-252 244.344,-179.638 251.139,-150.281 231.732,-72 229.44,-62.7531 225.206,-53.3419 220.713,-45.0665"/>
<polygon fill="black" stroke="black" points="223.661,-43.1731 215.619,-36.2752 217.604,-46.6825 223.661,-43.1731"/>
<g id="a_edge3&#45;headlabel"><a xlink:href="dir_000012_000002.html" target="_top" xlink:title="1">
<text text-anchor="middle" x="227.92" y="-42.36" font-family="Helvetica,sans-Serif" font-size="10.00">1</text>
</a>
</g>
</g>
<!-- dir_7155ef3ffc36b95c2fce4bd5b1f8d366 -->
<g id="node8" class="node"><title>dir_7155ef3ffc36b95c2fce4bd5b1f8d366</title>
<g id="a_node8"><a xlink:href="dir_7155ef3ffc36b95c2fce4bd5b1f8d366.html" target="_top" xlink:title="param">
<polygon fill="none" stroke="black" points="101.732,-36 47.732,-36 47.732,-0 101.732,-0 101.732,-36"/>
<text text-anchor="middle" x="74.732" y="-15.5" font-family="Helvetica,sans-Serif" font-size="10.00">param</text>
</a>
</g>
</g>
<!-- dir_3aa7801462393104955ed6c120541043&#45;&gt;dir_7155ef3ffc36b95c2fce4bd5b1f8d366 -->
<g id="edge4" class="edge"><title>dir_3aa7801462393104955ed6c120541043&#45;&gt;dir_7155ef3ffc36b95c2fce4bd5b1f8d366</title>
<path fill="none" stroke="black" d="M141.715,-287.705C135.288,-281.995 127.613,-276.069 119.732,-272 87.9326,-255.581 63.6714,-280.275 41.732,-252 -5.95074,-190.548 35.5399,-91.633 59.9417,-44.9635"/>
<polygon fill="black" stroke="black" points="63.0587,-46.5569 64.707,-36.091 56.8919,-43.2447 63.0587,-46.5569"/>
<g id="a_edge4&#45;headlabel"><a xlink:href="dir_000012_000009.html" target="_top" xlink:title="2">
<text text-anchor="middle" x="63.8592" y="-48.5671" font-family="Helvetica,sans-Serif" font-size="10.00">2</text>
</a>
</g>
</g>
<!-- dir_59bd306e5d07f3d465d7156b17d09fee -->
<g id="node3" class="node"><title>dir_59bd306e5d07f3d465d7156b17d09fee</title>
<g id="a_node3"><a xlink:href="dir_59bd306e5d07f3d465d7156b17d09fee.html" target="_top" xlink:title="root">
<polygon fill="white" stroke="black" points="110.732,-324 56.732,-324 56.732,-288 110.732,-288 110.732,-324"/>
<text text-anchor="middle" x="83.732" y="-303.5" font-family="Helvetica,sans-Serif" font-size="10.00">root</text>
</a>
</g>
</g>
<!-- dir_19355cc319126bb51dcdac43ee2050e0 -->
<g id="node4" class="node"><title>dir_19355cc319126bb51dcdac43ee2050e0</title>
<g id="a_node4"><a xlink:href="dir_19355cc319126bb51dcdac43ee2050e0.html" target="_top" xlink:title="neuroscience">
<polygon fill="white" stroke="red" points="130.732,-252 50.732,-252 50.732,-216 130.732,-216 130.732,-252"/>
<text text-anchor="middle" x="90.732" y="-231.5" font-family="Helvetica,sans-Serif" font-size="10.00">neuroscience</text>
</a>
</g>
</g>
<!-- dir_59bd306e5d07f3d465d7156b17d09fee&#45;&gt;dir_19355cc319126bb51dcdac43ee2050e0 -->
<g id="edge15" class="edge"><title>dir_59bd306e5d07f3d465d7156b17d09fee&#45;&gt;dir_19355cc319126bb51dcdac43ee2050e0</title>
<path fill="none" stroke="black" d="M85.4624,-287.697C86.2338,-279.983 87.1608,-270.712 88.0208,-262.112"/>
<polygon fill="black" stroke="black" points="91.5091,-262.403 89.0216,-252.104 84.5439,-261.706 91.5091,-262.403"/>
<g id="a_edge15&#45;headlabel"><a xlink:href="dir_000014_000004.html" target="_top" xlink:title="1">
<text text-anchor="middle" x="93.9767" y="-263.762" font-family="Helvetica,sans-Serif" font-size="10.00">1</text>
</a>
</g>
</g>
<!-- dir_59bd306e5d07f3d465d7156b17d09fee&#45;&gt;dir_459a7c9a427a2877b0db19c6b8d6e89d -->
<g id="edge16" class="edge"><title>dir_59bd306e5d07f3d465d7156b17d09fee&#45;&gt;dir_459a7c9a427a2877b0db19c6b8d6e89d</title>
<path fill="none" stroke="black" d="M65.1279,-287.756C56.2013,-278.198 46.4419,-265.527 41.732,-252 36.4708,-236.89 36.6054,-231.156 41.732,-216 55.8334,-174.31 91.7145,-137.528 118.054,-114.844"/>
<polygon fill="black" stroke="black" points="120.479,-117.378 125.887,-108.268 115.978,-112.017 120.479,-117.378"/>
<g id="a_edge16&#45;headlabel"><a xlink:href="dir_000014_000013.html" target="_top" xlink:title="2">
<text text-anchor="middle" x="119.552" y="-119.364" font-family="Helvetica,sans-Serif" font-size="10.00">2</text>
</a>
</g>
</g>
<!-- dir_59bd306e5d07f3d465d7156b17d09fee&#45;&gt;dir_7155ef3ffc36b95c2fce4bd5b1f8d366 -->
<g id="edge17" class="edge"><title>dir_59bd306e5d07f3d465d7156b17d09fee&#45;&gt;dir_7155ef3ffc36b95c2fce4bd5b1f8d366</title>
<path fill="none" stroke="black" d="M63.3037,-287.789C53.2388,-278.24 41.7799,-265.567 34.732,-252 4.5521,-193.905 10.6598,-173.099 3.73205,-108 2.03889,-92.0898 -3.43952,-86.3027 3.73205,-72 11.2541,-56.9982 25.2603,-45.157 38.8575,-36.5072"/>
<polygon fill="black" stroke="black" points="40.8479,-39.396 47.6616,-31.2828 37.2756,-33.3761 40.8479,-39.396"/>
<g id="a_edge17&#45;headlabel"><a xlink:href="dir_000014_000009.html" target="_top" xlink:title="1">
<text text-anchor="middle" x="39.2056" y="-41.1721" font-family="Helvetica,sans-Serif" font-size="10.00">1</text>
</a>
</g>
</g>
<!-- dir_19355cc319126bb51dcdac43ee2050e0&#45;&gt;dir_459a7c9a427a2877b0db19c6b8d6e89d -->
<g id="edge5" class="edge"><title>dir_19355cc319126bb51dcdac43ee2050e0&#45;&gt;dir_459a7c9a427a2877b0db19c6b8d6e89d</title>
<path fill="none" stroke="black" d="M93.1491,-215.678C96.1355,-197.297 102.165,-167.694 112.732,-144 116.969,-134.5 122.914,-124.868 128.754,-116.469"/>
<polygon fill="black" stroke="black" points="131.698,-118.371 134.726,-108.219 126.027,-114.267 131.698,-118.371"/>
<g id="a_edge5&#45;headlabel"><a xlink:href="dir_000004_000013.html" target="_top" xlink:title="5">
<text text-anchor="middle" x="131.89" y="-120.448" font-family="Helvetica,sans-Serif" font-size="10.00">5</text>
</a>
</g>
</g>
<!-- dir_19355cc319126bb51dcdac43ee2050e0&#45;&gt;dir_8417c195086d4ff6acfc795544c5eeb6 -->
<g id="edge6" class="edge"><title>dir_19355cc319126bb51dcdac43ee2050e0&#45;&gt;dir_8417c195086d4ff6acfc795544c5eeb6</title>
<path fill="none" stroke="black" d="M106.799,-215.697C114.671,-207.22 124.287,-196.864 132.905,-187.583"/>
<polygon fill="black" stroke="black" points="135.61,-189.814 139.849,-180.104 130.48,-185.051 135.61,-189.814"/>
<g id="a_edge6&#45;headlabel"><a xlink:href="dir_000004_000010.html" target="_top" xlink:title="4">
<text text-anchor="middle" x="135.244" y="-191.88" font-family="Helvetica,sans-Serif" font-size="10.00">4</text>
</a>
</g>
</g>
<!-- dir_19355cc319126bb51dcdac43ee2050e0&#45;&gt;dir_1b63f22ff36ffa98be356425464e796a -->
<g id="edge7" class="edge"><title>dir_19355cc319126bb51dcdac43ee2050e0&#45;&gt;dir_1b63f22ff36ffa98be356425464e796a</title>
<path fill="none" stroke="black" d="M130.994,-223.856C154.749,-216.253 183.132,-202.858 198.732,-180 226.018,-140.018 218.691,-80.4984 211.084,-46.1403"/>
<polygon fill="black" stroke="black" points="214.471,-45.2537 208.752,-36.3348 207.661,-46.8733 214.471,-45.2537"/>
<g id="a_edge7&#45;headlabel"><a xlink:href="dir_000004_000002.html" target="_top" xlink:title="3">
<text text-anchor="middle" x="218.065" y="-45.5939" font-family="Helvetica,sans-Serif" font-size="10.00">3</text>
</a>
</g>
</g>
<!-- dir_19355cc319126bb51dcdac43ee2050e0&#45;&gt;dir_7155ef3ffc36b95c2fce4bd5b1f8d366 -->
<g id="edge8" class="edge"><title>dir_19355cc319126bb51dcdac43ee2050e0&#45;&gt;dir_7155ef3ffc36b95c2fce4bd5b1f8d366</title>
<path fill="none" stroke="black" d="M89.4497,-215.849C86.6821,-178.832 80.1288,-91.1809 76.7796,-46.3863"/>
<polygon fill="black" stroke="black" points="80.2564,-45.9436 76.0205,-36.2325 73.2759,-46.4656 80.2564,-45.9436"/>
<g id="a_edge8&#45;headlabel"><a xlink:href="dir_000004_000009.html" target="_top" xlink:title="2">
<text text-anchor="middle" x="83.3557" y="-46.8166" font-family="Helvetica,sans-Serif" font-size="10.00">2</text>
</a>
</g>
</g>
<!-- dir_459a7c9a427a2877b0db19c6b8d6e89d&#45;&gt;dir_1b63f22ff36ffa98be356425464e796a -->
<g id="edge9" class="edge"><title>dir_459a7c9a427a2877b0db19c6b8d6e89d&#45;&gt;dir_1b63f22ff36ffa98be356425464e796a</title>
<path fill="none" stroke="black" d="M156.412,-71.6966C162.14,-63.3046 169.989,-53.0705 177.706,-43.8613"/>
<polygon fill="black" stroke="black" points="180.516,-45.9625 184.398,-36.1043 175.216,-41.3902 180.516,-45.9625"/>
<g id="a_edge9&#45;headlabel"><a xlink:href="dir_000013_000002.html" target="_top" xlink:title="3">
<text text-anchor="middle" x="180.318" y="-48.0389" font-family="Helvetica,sans-Serif" font-size="10.00">3</text>
</a>
</g>
</g>
<!-- dir_459a7c9a427a2877b0db19c6b8d6e89d&#45;&gt;dir_7155ef3ffc36b95c2fce4bd5b1f8d366 -->
<g id="edge10" class="edge"><title>dir_459a7c9a427a2877b0db19c6b8d6e89d&#45;&gt;dir_7155ef3ffc36b95c2fce4bd5b1f8d366</title>
<path fill="none" stroke="black" d="M124.524,-71.6966C114.59,-63.135 103.331,-52.6562 93.9637,-43.3045"/>
<polygon fill="black" stroke="black" points="96.4141,-40.8043 86.9187,-36.1043 91.4107,-45.6998 96.4141,-40.8043"/>
<g id="a_edge10&#45;headlabel"><a xlink:href="dir_000013_000009.html" target="_top" xlink:title="1">
<text text-anchor="middle" x="100.957" y="-38.8879" font-family="Helvetica,sans-Serif" font-size="10.00">1</text>
</a>
</g>
</g>
<!-- dir_8417c195086d4ff6acfc795544c5eeb6&#45;&gt;dir_459a7c9a427a2877b0db19c6b8d6e89d -->
<g id="edge11" class="edge"><title>dir_8417c195086d4ff6acfc795544c5eeb6&#45;&gt;dir_459a7c9a427a2877b0db19c6b8d6e89d</title>
<path fill="none" stroke="black" d="M154.002,-143.697C153.23,-135.983 152.303,-126.712 151.443,-118.112"/>
<polygon fill="black" stroke="black" points="154.92,-117.706 150.442,-108.104 147.955,-118.403 154.92,-117.706"/>
<g id="a_edge11&#45;headlabel"><a xlink:href="dir_000010_000013.html" target="_top" xlink:title="8">
<text text-anchor="middle" x="158.103" y="-118.501" font-family="Helvetica,sans-Serif" font-size="10.00">8</text>
</a>
</g>
</g>
<!-- dir_8417c195086d4ff6acfc795544c5eeb6&#45;&gt;dir_1b63f22ff36ffa98be356425464e796a -->
<g id="edge12" class="edge"><title>dir_8417c195086d4ff6acfc795544c5eeb6&#45;&gt;dir_1b63f22ff36ffa98be356425464e796a</title>
<path fill="none" stroke="black" d="M166.727,-143.94C172.809,-133.836 180.059,-120.586 184.732,-108 192.19,-87.9122 197.078,-64.1299 200.027,-46.2052"/>
<polygon fill="black" stroke="black" points="203.513,-46.5612 201.58,-36.1442 196.595,-45.493 203.513,-46.5612"/>
<g id="a_edge12&#45;headlabel"><a xlink:href="dir_000010_000002.html" target="_top" xlink:title="3">
<text text-anchor="middle" x="205.771" y="-48.047" font-family="Helvetica,sans-Serif" font-size="10.00">3</text>
</a>
</g>
</g>
<!-- dir_8417c195086d4ff6acfc795544c5eeb6&#45;&gt;dir_7155ef3ffc36b95c2fce4bd5b1f8d366 -->
<g id="edge13" class="edge"><title>dir_8417c195086d4ff6acfc795544c5eeb6&#45;&gt;dir_7155ef3ffc36b95c2fce4bd5b1f8d366</title>
<path fill="none" stroke="black" d="M139.692,-143.77C130.978,-133.824 120.441,-120.785 112.732,-108 100.728,-88.0906 90.5986,-63.7013 83.8244,-45.4919"/>
<polygon fill="black" stroke="black" points="87.1116,-44.2898 80.4155,-36.0791 80.5299,-46.6734 87.1116,-44.2898"/>
<g id="a_edge13&#45;headlabel"><a xlink:href="dir_000010_000009.html" target="_top" xlink:title="1">
<text text-anchor="middle" x="91.0051" y="-44.2028" font-family="Helvetica,sans-Serif" font-size="10.00">1</text>
</a>
</g>
</g>
<!-- dir_1b63f22ff36ffa98be356425464e796a&#45;&gt;dir_459a7c9a427a2877b0db19c6b8d6e89d -->
<g id="edge14" class="edge"><title>dir_1b63f22ff36ffa98be356425464e796a&#45;&gt;dir_459a7c9a427a2877b0db19c6b8d6e89d</title>
<path fill="none" stroke="black" d="M196.188,-36.1043C190.494,-44.467 182.66,-54.6945 174.941,-63.9197"/>
<polygon fill="black" stroke="black" points="172.117,-61.8353 168.243,-71.6966 177.421,-66.4034 172.117,-61.8353"/>
<g id="a_edge14&#45;headlabel"><a xlink:href="dir_000002_000013.html" target="_top" xlink:title="4">
<text text-anchor="middle" x="172.311" y="-54.7588" font-family="Helvetica,sans-Serif" font-size="10.00">4</text>
</a>
</g>
</g>
<!-- dir_7155ef3ffc36b95c2fce4bd5b1f8d366&#45;&gt;dir_459a7c9a427a2877b0db19c6b8d6e89d -->
<g id="edge18" class="edge"><title>dir_7155ef3ffc36b95c2fce4bd5b1f8d366&#45;&gt;dir_459a7c9a427a2877b0db19c6b8d6e89d</title>
<path fill="none" stroke="black" d="M98.7088,-36.1043C108.622,-44.636 119.886,-55.1084 129.282,-64.4775"/>
<polygon fill="black" stroke="black" points="126.857,-67.0035 136.356,-71.6966 131.857,-62.1044 126.857,-67.0035"/>
<g id="a_edge18&#45;headlabel"><a xlink:href="dir_000009_000013.html" target="_top" xlink:title="6">
<text text-anchor="middle" x="122.313" y="-63.9232" font-family="Helvetica,sans-Serif" font-size="10.00">6</text>
</a>
</g>
</g>
</g>
</svg>
