<?xml version="1.0" encoding="UTF-8" standalone="no"?>
<!DOCTYPE svg PUBLIC "-//W3C//DTD SVG 1.1//EN"
 "http://www.w3.org/Graphics/SVG/1.1/DTD/svg11.dtd">
<!-- Generated by graphviz version 2.38.0 (20140413.2041)
 -->
<!-- Title: core/operation/displacement_op_cuda.h Pages: 1 -->
<svg width="3207pt" height="598pt"
 viewBox="0.00 0.00 3206.50 598.00" xmlns="http://www.w3.org/2000/svg" xmlns:xlink="http://www.w3.org/1999/xlink">
<g id="graph0" class="graph" transform="scale(1 1) rotate(0) translate(4 594)">
<title>core/operation/displacement_op_cuda.h</title>
<polygon fill="white" stroke="none" points="-4,4 -4,-594 3202.5,-594 3202.5,4 -4,4"/>
<!-- Node1 -->
<g id="node1" class="node"><title>Node1</title>
<polygon fill="#bfbfbf" stroke="black" points="922.5,-559.5 922.5,-589.5 1076.5,-589.5 1076.5,-559.5 922.5,-559.5"/>
<text text-anchor="start" x="930.5" y="-577.5" font-family="Helvetica,sans-Serif" font-size="10.00">core/operation/displacement</text>
<text text-anchor="middle" x="999.5" y="-566.5" font-family="Helvetica,sans-Serif" font-size="10.00">_op_cuda.h</text>
</g>
<!-- Node2 -->
<g id="node2" class="node"><title>Node2</title>
<polygon fill="white" stroke="#bfbfbf" points="1953,-297 1953,-316 2000,-316 2000,-297 1953,-297"/>
<text text-anchor="middle" x="1976.5" y="-304" font-family="Helvetica,sans-Serif" font-size="10.00">vector</text>
</g>
<!-- Node1&#45;&gt;Node2 -->
<g id="edge1" class="edge"><title>Node1&#45;&gt;Node2</title>
<path fill="none" stroke="midnightblue" d="M1076.82,-567.612C1250.69,-553.486 1667.24,-514.454 1794.5,-456 1854.91,-428.252 1855.52,-399.444 1907.5,-358 1923.31,-345.398 1941.82,-331.914 1955.69,-322.052"/>
<polygon fill="midnightblue" stroke="midnightblue" points="1957.91,-324.769 1964.06,-316.14 1953.87,-319.052 1957.91,-324.769"/>
</g>
<!-- Node3 -->
<g id="node3" class="node"><title>Node3</title>
<g id="a_node3"><a xlink:href="displacement__op__cuda__kernel_8h.html" target="_top" xlink:title="core/gpu/displacement\l_op_cuda_kernel.h">
<polygon fill="white" stroke="black" points="70.5,-492.5 70.5,-522.5 196.5,-522.5 196.5,-492.5 70.5,-492.5"/>
<text text-anchor="start" x="78.5" y="-510.5" font-family="Helvetica,sans-Serif" font-size="10.00">core/gpu/displacement</text>
<text text-anchor="middle" x="133.5" y="-499.5" font-family="Helvetica,sans-Serif" font-size="10.00">_op_cuda_kernel.h</text>
</a>
</g>
</g>
<!-- Node1&#45;&gt;Node3 -->
<g id="edge2" class="edge"><title>Node1&#45;&gt;Node3</title>
<path fill="none" stroke="midnightblue" d="M922.349,-569.799C786.132,-562.932 494.172,-546.728 248.5,-523 234.961,-521.692 220.554,-520.064 206.682,-518.376"/>
<polygon fill="midnightblue" stroke="midnightblue" points="207.049,-514.895 196.695,-517.14 206.189,-521.842 207.049,-514.895"/>
</g>
<!-- Node12 -->
<g id="node12" class="node"><title>Node12</title>
<g id="a_node12"><a xlink:href="log_8h.html" target="_top" xlink:title="core/util/log.h">
<polygon fill="white" stroke="black" points="1568,-112.5 1568,-131.5 1649,-131.5 1649,-112.5 1568,-112.5"/>
<text text-anchor="middle" x="1608.5" y="-119.5" font-family="Helvetica,sans-Serif" font-size="10.00">core/util/log.h</text>
</a>
</g>
</g>
<!-- Node1&#45;&gt;Node12 -->
<g id="edge151" class="edge"><title>Node1&#45;&gt;Node12</title>
<path fill="none" stroke="midnightblue" d="M922.427,-567.287C853.614,-556.923 758.331,-529.337 722.5,-456 702.197,-414.445 722.557,-388.299 757.5,-358 793.821,-326.506 824.553,-355.012 859.5,-322 893.822,-289.579 867.108,-257.379 900.5,-224 992.793,-131.743 1410.87,-122.896 1557.5,-122.683"/>
<polygon fill="midnightblue" stroke="midnightblue" points="1557.58,-126.183 1567.58,-122.682 1557.58,-119.183 1557.58,-126.183"/>
</g>
<!-- Node22 -->
<g id="node22" class="node"><title>Node22</title>
<g id="a_node22"><a xlink:href="bound__space__op_8h.html" target="_top" xlink:title="core/operation/bound\l_space_op.h">
<polygon fill="white" stroke="black" points="1231,-425.5 1231,-455.5 1350,-455.5 1350,-425.5 1231,-425.5"/>
<text text-anchor="start" x="1239" y="-443.5" font-family="Helvetica,sans-Serif" font-size="10.00">core/operation/bound</text>
<text text-anchor="middle" x="1290.5" y="-432.5" font-family="Helvetica,sans-Serif" font-size="10.00">_space_op.h</text>
</a>
</g>
</g>
<!-- Node1&#45;&gt;Node22 -->
<g id="edge28" class="edge"><title>Node1&#45;&gt;Node22</title>
<path fill="none" stroke="midnightblue" d="M1030.37,-559.499C1083.3,-535.489 1191.35,-486.477 1250.16,-459.797"/>
<polygon fill="midnightblue" stroke="midnightblue" points="1251.85,-462.875 1259.51,-455.556 1248.96,-456.5 1251.85,-462.875"/>
</g>
<!-- Node26 -->
<g id="node26" class="node"><title>Node26</title>
<g id="a_node26"><a xlink:href="type_8h.html" target="_top" xlink:title="core/util/type.h">
<polygon fill="white" stroke="black" points="762.5,-297 762.5,-316 850.5,-316 850.5,-297 762.5,-297"/>
<text text-anchor="middle" x="806.5" y="-304" font-family="Helvetica,sans-Serif" font-size="10.00">core/util/type.h</text>
</a>
</g>
</g>
<!-- Node1&#45;&gt;Node26 -->
<g id="edge153" class="edge"><title>Node1&#45;&gt;Node26</title>
<path fill="none" stroke="midnightblue" d="M922.209,-568.698C816.156,-561.309 636.314,-545.599 616.5,-523 568.153,-467.86 571.799,-416.134 616.5,-358 625.027,-346.911 700.547,-329.315 753.763,-318.094"/>
<polygon fill="midnightblue" stroke="midnightblue" points="754.677,-321.478 763.75,-316.007 753.245,-314.626 754.677,-321.478"/>
</g>
<!-- Node29 -->
<g id="node29" class="node"><title>Node29</title>
<g id="a_node29"><a xlink:href="shape_8h.html" target="_top" xlink:title="core/shape.h">
<polygon fill="white" stroke="black" points="409,-230 409,-249 488,-249 488,-230 409,-230"/>
<text text-anchor="middle" x="448.5" y="-237" font-family="Helvetica,sans-Serif" font-size="10.00">core/shape.h</text>
</a>
</g>
</g>
<!-- Node1&#45;&gt;Node29 -->
<g id="edge113" class="edge"><title>Node1&#45;&gt;Node29</title>
<path fill="none" stroke="midnightblue" d="M922.368,-567.72C733.374,-552.525 262.5,-507.997 262.5,-441.5 262.5,-441.5 262.5,-441.5 262.5,-372.5 262.5,-304.47 346.275,-268.299 401.378,-251.866"/>
<polygon fill="midnightblue" stroke="midnightblue" points="402.656,-255.141 411.307,-249.024 400.73,-248.411 402.656,-255.141"/>
</g>
<!-- Node33 -->
<g id="node33" class="node"><title>Node33</title>
<g id="a_node33"><a xlink:href="simulation_8h.html" target="_top" xlink:title="core/simulation.h">
<polygon fill="white" stroke="black" points="2203,-364 2203,-383 2302,-383 2302,-364 2203,-364"/>
<text text-anchor="middle" x="2252.5" y="-371" font-family="Helvetica,sans-Serif" font-size="10.00">core/simulation.h</text>
</a>
</g>
</g>
<!-- Node1&#45;&gt;Node33 -->
<g id="edge150" class="edge"><title>Node1&#45;&gt;Node33</title>
<path fill="none" stroke="midnightblue" d="M1076.63,-572.273C1228.41,-569.137 1576.33,-558.384 1866.5,-523 2027.62,-503.353 2103.23,-562.744 2225.5,-456 2243.62,-440.177 2249.63,-411.906 2251.59,-393.176"/>
<polygon fill="midnightblue" stroke="midnightblue" points="2255.08,-393.416 2252.35,-383.179 2248.1,-392.885 2255.08,-393.416"/>
</g>
<!-- Node35 -->
<g id="node35" class="node"><title>Node35</title>
<g id="a_node35"><a xlink:href="resource__manager_8h.html" target="_top" xlink:title="core/resource_manager.h">
<polygon fill="white" stroke="black" points="2272.5,-498 2272.5,-517 2412.5,-517 2412.5,-498 2272.5,-498"/>
<text text-anchor="middle" x="2342.5" y="-505" font-family="Helvetica,sans-Serif" font-size="10.00">core/resource_manager.h</text>
</a>
</g>
</g>
<!-- Node1&#45;&gt;Node35 -->
<g id="edge61" class="edge"><title>Node1&#45;&gt;Node35</title>
<path fill="none" stroke="midnightblue" d="M1076.76,-573.91C1274.14,-574.196 1812.82,-570.2 2258.5,-523 2268.54,-521.936 2279.2,-520.409 2289.44,-518.741"/>
<polygon fill="midnightblue" stroke="midnightblue" points="2290.21,-522.16 2299.49,-517.038 2289.04,-515.258 2290.21,-522.16"/>
</g>
<!-- Node43 -->
<g id="node43" class="node"><title>Node43</title>
<g id="a_node43"><a xlink:href="thread__info_8h.html" target="_top" xlink:title="core/util/thread_info.h">
<polygon fill="white" stroke="black" points="2965,-364 2965,-383 3086,-383 3086,-364 2965,-364"/>
<text text-anchor="middle" x="3025.5" y="-371" font-family="Helvetica,sans-Serif" font-size="10.00">core/util/thread_info.h</text>
</a>
</g>
</g>
<!-- Node1&#45;&gt;Node43 -->
<g id="edge152" class="edge"><title>Node1&#45;&gt;Node43</title>
<path fill="none" stroke="midnightblue" d="M1076.7,-573.012C1290.65,-571.175 1909.2,-562.565 2421.5,-523 2672.3,-503.631 2776.86,-599.443 2983.5,-456 3004.81,-441.204 3016.01,-412.206 3021.34,-393.092"/>
<polygon fill="midnightblue" stroke="midnightblue" points="3024.79,-393.713 3023.83,-383.162 3018,-392.012 3024.79,-393.713"/>
</g>
<!-- Node44 -->
<g id="node44" class="node"><title>Node44</title>
<g id="a_node44"><a xlink:href="cell_8h.html" target="_top" xlink:title="core/sim_object/cell.h">
<polygon fill="white" stroke="black" points="817.5,-498 817.5,-517 937.5,-517 937.5,-498 817.5,-498"/>
<text text-anchor="middle" x="877.5" y="-505" font-family="Helvetica,sans-Serif" font-size="10.00">core/sim_object/cell.h</text>
</a>
</g>
</g>
<!-- Node1&#45;&gt;Node44 -->
<g id="edge114" class="edge"><title>Node1&#45;&gt;Node44</title>
<path fill="none" stroke="midnightblue" d="M973.028,-559.396C952.095,-548.243 923.074,-532.781 902.526,-521.834"/>
<polygon fill="midnightblue" stroke="midnightblue" points="903.938,-518.62 893.467,-517.007 900.647,-524.798 903.938,-518.62"/>
</g>
<!-- Node4 -->
<g id="node4" class="node"><title>Node4</title>
<g id="a_node4"><a xlink:href="math_8h.html" target="_top" xlink:title="math.h">
<polygon fill="white" stroke="red" points="887,-364 887,-383 938,-383 938,-364 887,-364"/>
<text text-anchor="middle" x="912.5" y="-371" font-family="Helvetica,sans-Serif" font-size="10.00">math.h</text>
</a>
</g>
</g>
<!-- Node3&#45;&gt;Node4 -->
<g id="edge3" class="edge"><title>Node3&#45;&gt;Node4</title>
<path fill="none" stroke="midnightblue" d="M196.589,-495.81C353.033,-469.301 754.99,-401.19 876.913,-380.53"/>
<polygon fill="midnightblue" stroke="midnightblue" points="877.572,-383.968 886.847,-378.847 876.403,-377.067 877.572,-383.968"/>
</g>
<!-- Node20 -->
<g id="node20" class="node"><title>Node20</title>
<polygon fill="white" stroke="#bfbfbf" points="0,-431 0,-450 53,-450 53,-431 0,-431"/>
<text text-anchor="middle" x="26.5" y="-438" font-family="Helvetica,sans-Serif" font-size="10.00">stdint.h</text>
</g>
<!-- Node3&#45;&gt;Node20 -->
<g id="edge26" class="edge"><title>Node3&#45;&gt;Node20</title>
<path fill="none" stroke="midnightblue" d="M110.283,-492.396C92.1728,-481.395 67.1604,-466.2 49.1872,-455.282"/>
<polygon fill="midnightblue" stroke="midnightblue" points="50.8676,-452.208 40.5038,-450.007 47.2333,-458.19 50.8676,-452.208"/>
</g>
<!-- Node21 -->
<g id="node21" class="node"><title>Node21</title>
<polygon fill="white" stroke="#bfbfbf" points="71,-431 71,-450 120,-450 120,-431 71,-431"/>
<text text-anchor="middle" x="95.5" y="-438" font-family="Helvetica,sans-Serif" font-size="10.00">stdio.h</text>
</g>
<!-- Node3&#45;&gt;Node21 -->
<g id="edge27" class="edge"><title>Node3&#45;&gt;Node21</title>
<path fill="none" stroke="midnightblue" d="M125.255,-492.396C119.506,-482.562 111.798,-469.378 105.668,-458.892"/>
<polygon fill="midnightblue" stroke="midnightblue" points="108.652,-457.061 100.583,-450.195 102.608,-460.594 108.652,-457.061"/>
</g>
<!-- Node4&#45;&gt;Node2 -->
<g id="edge6" class="edge"><title>Node4&#45;&gt;Node2</title>
<path fill="none" stroke="midnightblue" d="M938.143,-370.812C979.908,-368.071 1065.22,-362.504 1137.5,-358 1450.37,-338.503 1828.94,-316.167 1942.64,-309.486"/>
<polygon fill="midnightblue" stroke="midnightblue" points="1943.03,-312.97 1952.81,-308.889 1942.62,-305.982 1943.03,-312.97"/>
</g>
<!-- Node5 -->
<g id="node5" class="node"><title>Node5</title>
<polygon fill="white" stroke="#bfbfbf" points="593,-230 593,-249 634,-249 634,-230 593,-230"/>
<text text-anchor="middle" x="613.5" y="-237" font-family="Helvetica,sans-Serif" font-size="10.00">array</text>
</g>
<!-- Node4&#45;&gt;Node5 -->
<g id="edge4" class="edge"><title>Node4&#45;&gt;Node5</title>
<path fill="none" stroke="midnightblue" d="M886.9,-367.473C871.699,-364.555 852.031,-360.896 834.5,-358 779.339,-348.889 622.096,-364.267 585.5,-322 569.342,-303.337 585.644,-274.875 599.276,-256.999"/>
<polygon fill="midnightblue" stroke="midnightblue" points="602.043,-259.143 605.6,-249.163 596.596,-254.747 602.043,-259.143"/>
</g>
<!-- Node6 -->
<g id="node6" class="node"><title>Node6</title>
<polygon fill="white" stroke="#bfbfbf" points="505,-168.5 505,-187.5 552,-187.5 552,-168.5 505,-168.5"/>
<text text-anchor="middle" x="528.5" y="-175.5" font-family="Helvetica,sans-Serif" font-size="10.00">cmath</text>
</g>
<!-- Node4&#45;&gt;Node6 -->
<g id="edge5" class="edge"><title>Node4&#45;&gt;Node6</title>
<path fill="none" stroke="midnightblue" d="M886.868,-370.209C812.315,-363.332 599.32,-342.104 575.5,-322 538.312,-290.614 530.357,-229.227 528.783,-198.09"/>
<polygon fill="midnightblue" stroke="midnightblue" points="532.271,-197.644 528.445,-187.764 525.274,-197.873 532.271,-197.644"/>
</g>
<!-- Node7 -->
<g id="node7" class="node"><title>Node7</title>
<g id="a_node7"><a xlink:href="math__array_8h.html" target="_top" xlink:title="core/container/math\l_array.h">
<polygon fill="white" stroke="red" points="1058.5,-224.5 1058.5,-254.5 1172.5,-254.5 1172.5,-224.5 1058.5,-224.5"/>
<text text-anchor="start" x="1066.5" y="-242.5" font-family="Helvetica,sans-Serif" font-size="10.00">core/container/math</text>
<text text-anchor="middle" x="1115.5" y="-231.5" font-family="Helvetica,sans-Serif" font-size="10.00">_array.h</text>
</a>
</g>
</g>
<!-- Node4&#45;&gt;Node7 -->
<g id="edge7" class="edge"><title>Node4&#45;&gt;Node7</title>
<path fill="none" stroke="midnightblue" d="M925.819,-363.839C957.987,-342.922 1040.56,-289.227 1085.42,-260.061"/>
<polygon fill="midnightblue" stroke="midnightblue" points="1087.38,-262.957 1093.86,-254.572 1083.57,-257.089 1087.38,-262.957"/>
</g>
<!-- Node19 -->
<g id="node19" class="node"><title>Node19</title>
<g id="a_node19"><a xlink:href="random_8h.html" target="_top" xlink:title="core/util/random.h">
<polygon fill="white" stroke="red" points="1526.5,-297 1526.5,-316 1630.5,-316 1630.5,-297 1526.5,-297"/>
<text text-anchor="middle" x="1578.5" y="-304" font-family="Helvetica,sans-Serif" font-size="10.00">core/util/random.h</text>
</a>
</g>
</g>
<!-- Node4&#45;&gt;Node19 -->
<g id="edge21" class="edge"><title>Node4&#45;&gt;Node19</title>
<path fill="none" stroke="midnightblue" d="M938.058,-370.141C1014.4,-363.076 1247.4,-341.379 1440.5,-322 1465.24,-319.517 1492.47,-316.679 1516.15,-314.176"/>
<polygon fill="midnightblue" stroke="midnightblue" points="1516.84,-317.623 1526.42,-313.089 1516.1,-310.662 1516.84,-317.623"/>
</g>
<!-- Node7&#45;&gt;Node6 -->
<g id="edge9" class="edge"><title>Node7&#45;&gt;Node6</title>
<path fill="none" stroke="midnightblue" d="M1058.37,-231.904C1035.96,-229.363 1010.03,-226.479 986.5,-224 828.219,-207.329 638.949,-189.355 562.756,-182.201"/>
<polygon fill="midnightblue" stroke="midnightblue" points="562.635,-178.674 552.352,-181.225 561.981,-185.643 562.635,-178.674"/>
</g>
<!-- Node8 -->
<g id="node8" class="node"><title>Node8</title>
<polygon fill="white" stroke="#bfbfbf" points="1570.5,-168.5 1570.5,-187.5 1632.5,-187.5 1632.5,-168.5 1570.5,-168.5"/>
<text text-anchor="middle" x="1601.5" y="-175.5" font-family="Helvetica,sans-Serif" font-size="10.00">algorithm</text>
</g>
<!-- Node7&#45;&gt;Node8 -->
<g id="edge8" class="edge"><title>Node7&#45;&gt;Node8</title>
<path fill="none" stroke="midnightblue" d="M1172.68,-231.5C1271.9,-219.352 1473.64,-194.654 1560.36,-184.036"/>
<polygon fill="midnightblue" stroke="midnightblue" points="1560.85,-187.502 1570.35,-182.813 1560,-180.554 1560.85,-187.502"/>
</g>
<!-- Node9 -->
<g id="node9" class="node"><title>Node9</title>
<polygon fill="white" stroke="#bfbfbf" points="1044,-168.5 1044,-187.5 1101,-187.5 1101,-168.5 1044,-168.5"/>
<text text-anchor="middle" x="1072.5" y="-175.5" font-family="Helvetica,sans-Serif" font-size="10.00">ostream</text>
</g>
<!-- Node7&#45;&gt;Node9 -->
<g id="edge10" class="edge"><title>Node7&#45;&gt;Node9</title>
<path fill="none" stroke="midnightblue" d="M1105.31,-224.399C1099.13,-215.842 1091.2,-204.871 1084.68,-195.857"/>
<polygon fill="midnightblue" stroke="midnightblue" points="1087.45,-193.713 1078.76,-187.658 1081.78,-197.813 1087.45,-193.713"/>
</g>
<!-- Node10 -->
<g id="node10" class="node"><title>Node10</title>
<polygon fill="white" stroke="#bfbfbf" points="355.5,-168.5 355.5,-187.5 397.5,-187.5 397.5,-168.5 355.5,-168.5"/>
<text text-anchor="middle" x="376.5" y="-175.5" font-family="Helvetica,sans-Serif" font-size="10.00">utility</text>
</g>
<!-- Node7&#45;&gt;Node10 -->
<g id="edge11" class="edge"><title>Node7&#45;&gt;Node10</title>
<path fill="none" stroke="midnightblue" d="M1058.4,-231.6C1036,-229.02 1010.06,-226.187 986.5,-224 768.629,-203.776 713.704,-204.251 495.5,-188 465.757,-185.785 431.836,-183.215 407.841,-181.39"/>
<polygon fill="midnightblue" stroke="midnightblue" points="407.802,-177.877 397.565,-180.608 407.27,-184.857 407.802,-177.877"/>
</g>
<!-- Node11 -->
<g id="node11" class="node"><title>Node11</title>
<g id="a_node11"><a xlink:href="root_8h.html" target="_top" xlink:title="core/util/root.h">
<polygon fill="white" stroke="black" points="1843.5,-168.5 1843.5,-187.5 1929.5,-187.5 1929.5,-168.5 1843.5,-168.5"/>
<text text-anchor="middle" x="1886.5" y="-175.5" font-family="Helvetica,sans-Serif" font-size="10.00">core/util/root.h</text>
</a>
</g>
</g>
<!-- Node7&#45;&gt;Node11 -->
<g id="edge12" class="edge"><title>Node7&#45;&gt;Node11</title>
<path fill="none" stroke="midnightblue" d="M1172.73,-233.791C1207.86,-230.919 1253.78,-227.197 1294.5,-224 1493.19,-208.401 1729.47,-190.694 1833.2,-182.962"/>
<polygon fill="midnightblue" stroke="midnightblue" points="1833.7,-186.435 1843.41,-182.202 1833.18,-179.454 1833.7,-186.435"/>
</g>
<!-- Node11&#45;&gt;Node12 -->
<g id="edge13" class="edge"><title>Node11&#45;&gt;Node12</title>
<path fill="none" stroke="midnightblue" d="M1843.37,-168.622C1793.61,-158.957 1711.9,-143.085 1659.16,-132.841"/>
<polygon fill="midnightblue" stroke="midnightblue" points="1659.5,-129.342 1649.02,-130.871 1658.17,-136.213 1659.5,-129.342"/>
</g>
<!-- Node13 -->
<g id="node13" class="node"><title>Node13</title>
<polygon fill="white" stroke="#bfbfbf" points="1519,-56.5 1519,-75.5 1572,-75.5 1572,-56.5 1519,-56.5"/>
<text text-anchor="middle" x="1545.5" y="-63.5" font-family="Helvetica,sans-Serif" font-size="10.00">TError.h</text>
</g>
<!-- Node12&#45;&gt;Node13 -->
<g id="edge14" class="edge"><title>Node12&#45;&gt;Node13</title>
<path fill="none" stroke="midnightblue" d="M1598.38,-112.324C1588.97,-104.263 1574.76,-92.0765 1563.43,-82.3695"/>
<polygon fill="midnightblue" stroke="midnightblue" points="1565.68,-79.6844 1555.81,-75.8339 1561.12,-84.9993 1565.68,-79.6844"/>
</g>
<!-- Node14 -->
<g id="node14" class="node"><title>Node14</title>
<polygon fill="white" stroke="#bfbfbf" points="1655,-56.5 1655,-75.5 1700,-75.5 1700,-56.5 1655,-56.5"/>
<text text-anchor="middle" x="1677.5" y="-63.5" font-family="Helvetica,sans-Serif" font-size="10.00">cstdio</text>
</g>
<!-- Node12&#45;&gt;Node14 -->
<g id="edge15" class="edge"><title>Node12&#45;&gt;Node14</title>
<path fill="none" stroke="midnightblue" d="M1619.59,-112.324C1629.99,-104.185 1645.76,-91.8395 1658.22,-82.0874"/>
<polygon fill="midnightblue" stroke="midnightblue" points="1660.49,-84.7533 1666.21,-75.8339 1656.18,-79.2407 1660.49,-84.7533"/>
</g>
<!-- Node15 -->
<g id="node15" class="node"><title>Node15</title>
<polygon fill="white" stroke="#bfbfbf" points="1590,-56.5 1590,-75.5 1637,-75.5 1637,-56.5 1590,-56.5"/>
<text text-anchor="middle" x="1613.5" y="-63.5" font-family="Helvetica,sans-Serif" font-size="10.00">cstdlib</text>
</g>
<!-- Node12&#45;&gt;Node15 -->
<g id="edge16" class="edge"><title>Node12&#45;&gt;Node15</title>
<path fill="none" stroke="midnightblue" d="M1609.33,-112.083C1609.98,-105.006 1610.92,-94.8611 1611.74,-85.9865"/>
<polygon fill="midnightblue" stroke="midnightblue" points="1615.25,-86.0312 1612.69,-75.7511 1608.28,-85.3858 1615.25,-86.0312"/>
</g>
<!-- Node16 -->
<g id="node16" class="node"><title>Node16</title>
<polygon fill="white" stroke="#bfbfbf" points="1906,-56.5 1906,-75.5 1965,-75.5 1965,-56.5 1906,-56.5"/>
<text text-anchor="middle" x="1935.5" y="-63.5" font-family="Helvetica,sans-Serif" font-size="10.00">iostream</text>
</g>
<!-- Node12&#45;&gt;Node16 -->
<g id="edge17" class="edge"><title>Node12&#45;&gt;Node16</title>
<path fill="none" stroke="midnightblue" d="M1649.25,-114.27C1712.5,-103.825 1833.51,-83.8429 1895.99,-73.5246"/>
<polygon fill="midnightblue" stroke="midnightblue" points="1896.57,-76.9771 1905.86,-71.8945 1895.42,-70.0706 1896.57,-76.9771"/>
</g>
<!-- Node17 -->
<g id="node17" class="node"><title>Node17</title>
<polygon fill="white" stroke="#bfbfbf" points="1430.5,-0.5 1430.5,-19.5 1474.5,-19.5 1474.5,-0.5 1430.5,-0.5"/>
<text text-anchor="middle" x="1452.5" y="-7.5" font-family="Helvetica,sans-Serif" font-size="10.00">string</text>
</g>
<!-- Node12&#45;&gt;Node17 -->
<g id="edge18" class="edge"><title>Node12&#45;&gt;Node17</title>
<path fill="none" stroke="midnightblue" d="M1582.06,-112.472C1561.12,-104.928 1531.78,-92.5463 1509.5,-76 1491.31,-62.4936 1474.76,-42.3181 1464.23,-28.033"/>
<polygon fill="midnightblue" stroke="midnightblue" points="1466.89,-25.7304 1458.23,-19.6254 1461.19,-29.7978 1466.89,-25.7304"/>
</g>
<!-- Node18 -->
<g id="node18" class="node"><title>Node18</title>
<g id="a_node18"><a xlink:href="string_8h.html" target="_top" xlink:title="core/util/string.h">
<polygon fill="white" stroke="red" points="1368.5,-56.5 1368.5,-75.5 1462.5,-75.5 1462.5,-56.5 1368.5,-56.5"/>
<text text-anchor="middle" x="1415.5" y="-63.5" font-family="Helvetica,sans-Serif" font-size="10.00">core/util/string.h</text>
</a>
</g>
</g>
<!-- Node12&#45;&gt;Node18 -->
<g id="edge19" class="edge"><title>Node12&#45;&gt;Node18</title>
<path fill="none" stroke="midnightblue" d="M1577.92,-112.444C1544.89,-103.201 1492.11,-88.4356 1455.73,-78.2572"/>
<polygon fill="midnightblue" stroke="midnightblue" points="1456.51,-74.8404 1445.94,-75.5164 1454.63,-81.5815 1456.51,-74.8404"/>
</g>
<!-- Node18&#45;&gt;Node17 -->
<g id="edge20" class="edge"><title>Node18&#45;&gt;Node17</title>
<path fill="none" stroke="midnightblue" d="M1421.61,-56.083C1426.78,-48.5341 1434.35,-37.4948 1440.69,-28.2298"/>
<polygon fill="midnightblue" stroke="midnightblue" points="1443.74,-29.9787 1446.5,-19.7511 1437.96,-26.0221 1443.74,-29.9787"/>
</g>
<!-- Node19&#45;&gt;Node5 -->
<g id="edge22" class="edge"><title>Node19&#45;&gt;Node5</title>
<path fill="none" stroke="midnightblue" d="M1526.5,-297.354C1509.91,-294.997 1491.47,-292.625 1474.5,-291 1170.58,-261.893 1093.11,-275.608 788.5,-255 737.918,-251.578 679.206,-246.483 644.271,-243.333"/>
<polygon fill="midnightblue" stroke="midnightblue" points="644.503,-239.84 634.228,-242.422 643.87,-246.811 644.503,-239.84"/>
</g>
<!-- Node19&#45;&gt;Node7 -->
<g id="edge24" class="edge"><title>Node19&#45;&gt;Node7</title>
<path fill="none" stroke="midnightblue" d="M1526.29,-298.17C1441.95,-286.329 1275.8,-263.004 1182.72,-249.938"/>
<polygon fill="midnightblue" stroke="midnightblue" points="1182.96,-246.437 1172.57,-248.513 1181.99,-253.369 1182.96,-246.437"/>
</g>
<!-- Node19&#45;&gt;Node11 -->
<g id="edge25" class="edge"><title>Node19&#45;&gt;Node11</title>
<path fill="none" stroke="midnightblue" d="M1600.21,-296.958C1623.32,-287.604 1660.71,-271.695 1691.5,-255 1713.82,-242.895 1716.47,-234.708 1739.5,-224 1771.32,-209.202 1809.24,-197.733 1838.59,-190.078"/>
<polygon fill="midnightblue" stroke="midnightblue" points="1839.77,-193.391 1848.59,-187.53 1838.04,-186.607 1839.77,-193.391"/>
</g>
<!-- Node19&#45;&gt;Node14 -->
<g id="edge23" class="edge"><title>Node19&#45;&gt;Node14</title>
<path fill="none" stroke="midnightblue" d="M1583.87,-296.953C1595.62,-277.967 1623.96,-230.591 1641.5,-188 1655.98,-152.835 1667.37,-109.75 1673.21,-85.6369"/>
<polygon fill="midnightblue" stroke="midnightblue" points="1676.66,-86.2518 1675.55,-75.7149 1669.85,-84.6418 1676.66,-86.2518"/>
</g>
<!-- Node23 -->
<g id="node23" class="node"><title>Node23</title>
<g id="a_node23"><a xlink:href="core_2param_2param_8h.html" target="_top" xlink:title="core/param/param.h">
<polygon fill="white" stroke="red" points="1146.5,-364 1146.5,-383 1262.5,-383 1262.5,-364 1146.5,-364"/>
<text text-anchor="middle" x="1204.5" y="-371" font-family="Helvetica,sans-Serif" font-size="10.00">core/param/param.h</text>
</a>
</g>
</g>
<!-- Node22&#45;&gt;Node23 -->
<g id="edge29" class="edge"><title>Node22&#45;&gt;Node23</title>
<path fill="none" stroke="midnightblue" d="M1271.84,-425.396C1257.77,-414.759 1238.51,-400.203 1224.19,-389.381"/>
<polygon fill="midnightblue" stroke="midnightblue" points="1226.09,-386.432 1216,-383.195 1221.87,-392.016 1226.09,-386.432"/>
</g>
<!-- Node30 -->
<g id="node30" class="node"><title>Node30</title>
<g id="a_node30"><a xlink:href="sim__object_8h.html" target="_top" xlink:title="core/sim_object/sim\l_object.h">
<polygon fill="white" stroke="red" points="1281,-358.5 1281,-388.5 1394,-388.5 1394,-358.5 1281,-358.5"/>
<text text-anchor="start" x="1289" y="-376.5" font-family="Helvetica,sans-Serif" font-size="10.00">core/sim_object/sim</text>
<text text-anchor="middle" x="1337.5" y="-365.5" font-family="Helvetica,sans-Serif" font-size="10.00">_object.h</text>
</a>
</g>
</g>
<!-- Node22&#45;&gt;Node30 -->
<g id="edge40" class="edge"><title>Node22&#45;&gt;Node30</title>
<path fill="none" stroke="midnightblue" d="M1300.7,-425.396C1306.73,-417.049 1314.52,-406.287 1321.37,-396.811"/>
<polygon fill="midnightblue" stroke="midnightblue" points="1324.3,-398.731 1327.32,-388.577 1318.63,-394.629 1324.3,-398.731"/>
</g>
<!-- Node22&#45;&gt;Node33 -->
<g id="edge54" class="edge"><title>Node22&#45;&gt;Node33</title>
<path fill="none" stroke="midnightblue" d="M1350.35,-433.258C1378.06,-430.494 1411.44,-427.346 1441.5,-425 1707.39,-404.25 1774.35,-406.1 2040.5,-389 2091.86,-385.7 2150.19,-381.691 2192.65,-378.726"/>
<polygon fill="midnightblue" stroke="midnightblue" points="2193.09,-382.204 2202.82,-378.014 2192.6,-375.221 2193.09,-382.204"/>
</g>
<!-- Node23&#45;&gt;Node2 -->
<g id="edge33" class="edge"><title>Node23&#45;&gt;Node2</title>
<path fill="none" stroke="midnightblue" d="M1239.45,-363.957C1249.72,-361.713 1261.01,-359.502 1271.5,-358 1403.71,-339.056 1820.82,-315.816 1942.73,-309.282"/>
<polygon fill="midnightblue" stroke="midnightblue" points="1943.14,-312.765 1952.94,-308.737 1942.77,-305.775 1943.14,-312.765"/>
</g>
<!-- Node23&#45;&gt;Node11 -->
<g id="edge34" class="edge"><title>Node23&#45;&gt;Node11</title>
<path fill="none" stroke="midnightblue" d="M1218.6,-363.787C1245.94,-347.252 1308.5,-311.174 1365.5,-291 1531.06,-232.401 1737.57,-199.122 1833.26,-185.834"/>
<polygon fill="midnightblue" stroke="midnightblue" points="1833.84,-189.288 1843.27,-184.461 1832.89,-182.353 1833.84,-189.288"/>
</g>
<!-- Node23&#45;&gt;Node17 -->
<g id="edge32" class="edge"><title>Node23&#45;&gt;Node17</title>
<path fill="none" stroke="midnightblue" d="M1207.6,-363.984C1214.89,-343.193 1232.5,-288.056 1232.5,-240.5 1232.5,-240.5 1232.5,-240.5 1232.5,-121 1232.5,-38.2164 1358.66,-17.7315 1419.91,-12.6644"/>
<polygon fill="midnightblue" stroke="midnightblue" points="1420.48,-16.1318 1430.19,-11.9082 1419.96,-9.15067 1420.48,-16.1318"/>
</g>
<!-- Node24 -->
<g id="node24" class="node"><title>Node24</title>
<polygon fill="white" stroke="#bfbfbf" points="1375,-297 1375,-316 1432,-316 1432,-297 1375,-297"/>
<text text-anchor="middle" x="1403.5" y="-304" font-family="Helvetica,sans-Serif" font-size="10.00">memory</text>
</g>
<!-- Node23&#45;&gt;Node24 -->
<g id="edge30" class="edge"><title>Node23&#45;&gt;Node24</title>
<path fill="none" stroke="midnightblue" d="M1230.93,-363.869C1266.04,-352.4 1328.2,-332.094 1367.56,-319.24"/>
<polygon fill="midnightblue" stroke="midnightblue" points="1368.86,-322.496 1377.28,-316.064 1366.69,-315.842 1368.86,-322.496"/>
</g>
<!-- Node25 -->
<g id="node25" class="node"><title>Node25</title>
<polygon fill="white" stroke="#bfbfbf" points="1058.5,-297 1058.5,-316 1090.5,-316 1090.5,-297 1058.5,-297"/>
<text text-anchor="middle" x="1074.5" y="-304" font-family="Helvetica,sans-Serif" font-size="10.00">set</text>
</g>
<!-- Node23&#45;&gt;Node25 -->
<g id="edge31" class="edge"><title>Node23&#45;&gt;Node25</title>
<path fill="none" stroke="midnightblue" d="M1187.24,-363.869C1164.82,-352.661 1125.53,-333.014 1099.76,-320.129"/>
<polygon fill="midnightblue" stroke="midnightblue" points="1101.12,-316.895 1090.61,-315.553 1097.99,-323.156 1101.12,-316.895"/>
</g>
<!-- Node23&#45;&gt;Node26 -->
<g id="edge35" class="edge"><title>Node23&#45;&gt;Node26</title>
<path fill="none" stroke="midnightblue" d="M1152.06,-363.936C1076.41,-351.58 937.338,-328.868 860.709,-316.353"/>
<polygon fill="midnightblue" stroke="midnightblue" points="861.211,-312.889 850.777,-314.731 860.082,-319.797 861.211,-312.889"/>
</g>
<!-- Node26&#45;&gt;Node18 -->
<g id="edge39" class="edge"><title>Node26&#45;&gt;Node18</title>
<path fill="none" stroke="midnightblue" d="M801.007,-296.919C791.897,-281.505 775.858,-248.457 788.5,-224 808.262,-185.768 827.85,-184.738 867.5,-168 1036.6,-96.6141 1256.06,-75.5639 1358.35,-69.4493"/>
<polygon fill="midnightblue" stroke="midnightblue" points="1358.68,-72.936 1368.46,-68.8707 1358.28,-65.9475 1358.68,-72.936"/>
</g>
<!-- Node27 -->
<g id="node27" class="node"><title>Node27</title>
<polygon fill="white" stroke="#bfbfbf" points="909.5,-230 909.5,-249 977.5,-249 977.5,-230 909.5,-230"/>
<text text-anchor="middle" x="943.5" y="-237" font-family="Helvetica,sans-Serif" font-size="10.00">type_traits</text>
</g>
<!-- Node26&#45;&gt;Node27 -->
<g id="edge36" class="edge"><title>Node26&#45;&gt;Node27</title>
<path fill="none" stroke="midnightblue" d="M824.693,-296.869C848.03,-285.796 888.729,-266.486 915.894,-253.598"/>
<polygon fill="midnightblue" stroke="midnightblue" points="917.698,-256.616 925.232,-249.167 914.697,-250.292 917.698,-256.616"/>
</g>
<!-- Node28 -->
<g id="node28" class="node"><title>Node28</title>
<polygon fill="white" stroke="#bfbfbf" points="798,-230 798,-249 853,-249 853,-230 798,-230"/>
<text text-anchor="middle" x="825.5" y="-237" font-family="Helvetica,sans-Serif" font-size="10.00">typeinfo</text>
</g>
<!-- Node26&#45;&gt;Node28 -->
<g id="edge37" class="edge"><title>Node26&#45;&gt;Node28</title>
<path fill="none" stroke="midnightblue" d="M809.062,-296.734C811.883,-287.085 816.497,-271.3 820.12,-258.906"/>
<polygon fill="midnightblue" stroke="midnightblue" points="823.532,-259.708 822.978,-249.127 816.813,-257.744 823.532,-259.708"/>
</g>
<!-- Node26&#45;&gt;Node29 -->
<g id="edge38" class="edge"><title>Node26&#45;&gt;Node29</title>
<path fill="none" stroke="midnightblue" d="M762.243,-297.465C695.2,-285.292 568.298,-262.251 498.18,-249.52"/>
<polygon fill="midnightblue" stroke="midnightblue" points="498.725,-246.062 488.261,-247.719 497.475,-252.949 498.725,-246.062"/>
</g>
<!-- Node30&#45;&gt;Node2 -->
<g id="edge47" class="edge"><title>Node30&#45;&gt;Node2</title>
<path fill="none" stroke="midnightblue" d="M1394.21,-366.732C1523.86,-353.543 1838.77,-321.511 1942.64,-310.945"/>
<polygon fill="midnightblue" stroke="midnightblue" points="1943.26,-314.399 1952.85,-309.905 1942.55,-307.435 1943.26,-314.399"/>
</g>
<!-- Node30&#45;&gt;Node7 -->
<g id="edge48" class="edge"><title>Node30&#45;&gt;Node7</title>
<path fill="none" stroke="midnightblue" d="M1313.74,-358.374C1273.77,-334.605 1193.01,-286.588 1147.88,-259.754"/>
<polygon fill="midnightblue" stroke="midnightblue" points="1149.47,-256.627 1139.09,-254.525 1145.89,-262.644 1149.47,-256.627"/>
</g>
<!-- Node30&#45;&gt;Node8 -->
<g id="edge41" class="edge"><title>Node30&#45;&gt;Node8</title>
<path fill="none" stroke="midnightblue" d="M1338.98,-358.44C1341.53,-340.734 1348.25,-310.299 1365.5,-291 1418.06,-232.192 1508.12,-201.597 1560.47,-188.023"/>
<polygon fill="midnightblue" stroke="midnightblue" points="1561.57,-191.357 1570.42,-185.532 1559.87,-184.566 1561.57,-191.357"/>
</g>
<!-- Node30&#45;&gt;Node11 -->
<g id="edge53" class="edge"><title>Node30&#45;&gt;Node11</title>
<path fill="none" stroke="midnightblue" d="M1394.13,-369.099C1455.98,-364.007 1557.21,-351.594 1639.5,-322 1730.53,-289.261 1826.37,-223.288 1866.74,-193.812"/>
<polygon fill="midnightblue" stroke="midnightblue" points="1868.95,-196.532 1874.93,-187.781 1864.8,-190.897 1868.95,-196.532"/>
</g>
<!-- Node30&#45;&gt;Node17 -->
<g id="edge45" class="edge"><title>Node30&#45;&gt;Node17</title>
<path fill="none" stroke="midnightblue" d="M1328.74,-358.043C1310.58,-326.648 1270.5,-249.39 1270.5,-179 1270.5,-179 1270.5,-179 1270.5,-121 1270.5,-51.9192 1367.73,-25.0572 1420.05,-15.6024"/>
<polygon fill="midnightblue" stroke="midnightblue" points="1420.91,-19.0078 1430.18,-13.8881 1419.74,-12.106 1420.91,-19.0078"/>
</g>
<!-- Node30&#45;&gt;Node24 -->
<g id="edge43" class="edge"><title>Node30&#45;&gt;Node24</title>
<path fill="none" stroke="midnightblue" d="M1351.82,-358.396C1362.32,-348.06 1376.57,-334.024 1387.45,-323.309"/>
<polygon fill="midnightblue" stroke="midnightblue" points="1390,-325.705 1394.67,-316.195 1385.09,-320.718 1390,-325.705"/>
</g>
<!-- Node30&#45;&gt;Node25 -->
<g id="edge44" class="edge"><title>Node30&#45;&gt;Node25</title>
<path fill="none" stroke="midnightblue" d="M1280.76,-358.476C1224.91,-344.674 1142.14,-324.216 1100.47,-313.918"/>
<polygon fill="midnightblue" stroke="midnightblue" points="1101.11,-310.472 1090.56,-311.47 1099.43,-317.267 1101.11,-310.472"/>
</g>
<!-- Node30&#45;&gt;Node27 -->
<g id="edge46" class="edge"><title>Node30&#45;&gt;Node27</title>
<path fill="none" stroke="midnightblue" d="M1297.14,-358.449C1249.86,-342.039 1169.11,-314.185 1099.5,-291 1058.68,-277.404 1011.68,-262.26 980.031,-252.134"/>
<polygon fill="midnightblue" stroke="midnightblue" points="980.912,-248.741 970.321,-249.031 978.781,-255.409 980.912,-248.741"/>
</g>
<!-- Node30&#45;&gt;Node29 -->
<g id="edge49" class="edge"><title>Node30&#45;&gt;Node29</title>
<path fill="none" stroke="midnightblue" d="M1280.72,-359.408C1277.61,-358.884 1274.52,-358.409 1271.5,-358 1120.22,-337.553 731.58,-366.316 585.5,-322 539.067,-307.914 491.975,-274.894 466.907,-255.483"/>
<polygon fill="midnightblue" stroke="midnightblue" points="469.013,-252.686 458.995,-249.237 464.676,-258.181 469.013,-252.686"/>
</g>
<!-- Node31 -->
<g id="node31" class="node"><title>Node31</title>
<polygon fill="white" stroke="#bfbfbf" points="2385.5,-230 2385.5,-249 2427.5,-249 2427.5,-230 2385.5,-230"/>
<text text-anchor="middle" x="2406.5" y="-237" font-family="Helvetica,sans-Serif" font-size="10.00">limits</text>
</g>
<!-- Node30&#45;&gt;Node31 -->
<g id="edge42" class="edge"><title>Node30&#45;&gt;Node31</title>
<path fill="none" stroke="midnightblue" d="M1394.11,-368.292C1473.77,-361.749 1623.22,-347.196 1748.5,-322 1798.3,-311.985 1808.56,-300.258 1858.5,-291 2052.89,-254.965 2291.07,-244.19 2375.24,-241.383"/>
<polygon fill="midnightblue" stroke="midnightblue" points="2375.52,-244.876 2385.41,-241.058 2375.3,-237.88 2375.52,-244.876"/>
</g>
<!-- Node32 -->
<g id="node32" class="node"><title>Node32</title>
<g id="a_node32"><a xlink:href="so__uid_8h.html" target="_top" xlink:title="core/sim_object/so\l_uid.h">
<polygon fill="white" stroke="black" points="2291,-291.5 2291,-321.5 2398,-321.5 2398,-291.5 2291,-291.5"/>
<text text-anchor="start" x="2299" y="-309.5" font-family="Helvetica,sans-Serif" font-size="10.00">core/sim_object/so</text>
<text text-anchor="middle" x="2344.5" y="-298.5" font-family="Helvetica,sans-Serif" font-size="10.00">_uid.h</text>
</a>
</g>
</g>
<!-- Node30&#45;&gt;Node32 -->
<g id="edge50" class="edge"><title>Node30&#45;&gt;Node32</title>
<path fill="none" stroke="midnightblue" d="M1394.4,-368.495C1438.38,-365.453 1500.79,-361.253 1555.5,-358 1860.71,-339.854 1938.18,-351.545 2242.5,-322 2254.93,-320.793 2268.17,-319.166 2280.85,-317.437"/>
<polygon fill="midnightblue" stroke="midnightblue" points="2281.46,-320.886 2290.88,-316.035 2280.49,-313.954 2281.46,-320.886"/>
</g>
<!-- Node32&#45;&gt;Node11 -->
<g id="edge52" class="edge"><title>Node32&#45;&gt;Node11</title>
<path fill="none" stroke="midnightblue" d="M2337.27,-291.434C2326.72,-272.526 2305.2,-239.499 2276.5,-224 2219.56,-193.252 2032.53,-183.36 1939.71,-180.301"/>
<polygon fill="midnightblue" stroke="midnightblue" points="1939.79,-176.802 1929.68,-179.986 1939.57,-183.799 1939.79,-176.802"/>
</g>
<!-- Node32&#45;&gt;Node31 -->
<g id="edge51" class="edge"><title>Node32&#45;&gt;Node31</title>
<path fill="none" stroke="midnightblue" d="M2357.95,-291.396C2367.72,-281.161 2380.94,-267.296 2391.12,-256.622"/>
<polygon fill="midnightblue" stroke="midnightblue" points="2393.84,-258.846 2398.21,-249.195 2388.77,-254.015 2393.84,-258.846"/>
</g>
<!-- Node33&#45;&gt;Node2 -->
<g id="edge57" class="edge"><title>Node33&#45;&gt;Node2</title>
<path fill="none" stroke="midnightblue" d="M2216.13,-363.936C2162.34,-351.267 2062.31,-327.709 2010.13,-315.421"/>
<polygon fill="midnightblue" stroke="midnightblue" points="2010.9,-312.006 2000.36,-313.12 2009.3,-318.819 2010.9,-312.006"/>
</g>
<!-- Node33&#45;&gt;Node11 -->
<g id="edge60" class="edge"><title>Node33&#45;&gt;Node11</title>
<path fill="none" stroke="midnightblue" d="M2254.22,-363.71C2256.88,-347.363 2260.01,-312.039 2242.5,-291 2167.14,-200.439 2019.23,-182.022 1939.85,-178.952"/>
<polygon fill="midnightblue" stroke="midnightblue" points="1939.69,-175.445 1929.58,-178.626 1939.47,-182.441 1939.69,-175.445"/>
</g>
<!-- Node33&#45;&gt;Node17 -->
<g id="edge56" class="edge"><title>Node33&#45;&gt;Node17</title>
<path fill="none" stroke="midnightblue" d="M2291.44,-363.949C2323.58,-355.92 2369.72,-342.112 2406.5,-322 2456.81,-294.494 2506.5,-297.835 2506.5,-240.5 2506.5,-240.5 2506.5,-240.5 2506.5,-121 2506.5,-15.579 1661.62,-10.7532 1484.73,-10.8982"/>
<polygon fill="midnightblue" stroke="midnightblue" points="1484.51,-7.39838 1474.51,-10.9129 1484.52,-14.3984 1484.51,-7.39838"/>
</g>
<!-- Node33&#45;&gt;Node19 -->
<g id="edge59" class="edge"><title>Node33&#45;&gt;Node19</title>
<path fill="none" stroke="midnightblue" d="M2202.94,-367.72C2082.35,-356.091 1773.81,-326.336 1640.93,-313.52"/>
<polygon fill="midnightblue" stroke="midnightblue" points="1641.19,-310.03 1630.9,-312.554 1640.52,-316.998 1641.19,-310.03"/>
</g>
<!-- Node33&#45;&gt;Node32 -->
<g id="edge58" class="edge"><title>Node33&#45;&gt;Node32</title>
<path fill="none" stroke="midnightblue" d="M2264.91,-363.734C2277.94,-354.527 2298.88,-339.733 2316.01,-327.629"/>
<polygon fill="midnightblue" stroke="midnightblue" points="2318.41,-330.218 2324.56,-321.589 2314.37,-324.501 2318.41,-330.218"/>
</g>
<!-- Node34 -->
<g id="node34" class="node"><title>Node34</title>
<polygon fill="white" stroke="#bfbfbf" points="2171,-297 2171,-316 2234,-316 2234,-297 2171,-297"/>
<text text-anchor="middle" x="2202.5" y="-304" font-family="Helvetica,sans-Serif" font-size="10.00">functional</text>
</g>
<!-- Node33&#45;&gt;Node34 -->
<g id="edge55" class="edge"><title>Node33&#45;&gt;Node34</title>
<path fill="none" stroke="midnightblue" d="M2245.76,-363.734C2237.96,-353.598 2224.95,-336.69 2215.24,-324.056"/>
<polygon fill="midnightblue" stroke="midnightblue" points="2218.01,-321.92 2209.14,-316.127 2212.46,-326.188 2218.01,-321.92"/>
</g>
<!-- Node35&#45;&gt;Node2 -->
<g id="edge72" class="edge"><title>Node35&#45;&gt;Node2</title>
<path fill="none" stroke="midnightblue" d="M2272.1,-498.573C2160.76,-484.293 1952.76,-449.915 1915.5,-389 1908.31,-377.247 1909.64,-370.468 1915.5,-358 1922.82,-342.433 1937.56,-330.019 1950.71,-321.395"/>
<polygon fill="midnightblue" stroke="midnightblue" points="1952.76,-324.247 1959.46,-316.038 1949.1,-318.278 1952.76,-324.247"/>
</g>
<!-- Node35&#45;&gt;Node6 -->
<g id="edge65" class="edge"><title>Node35&#45;&gt;Node6</title>
<path fill="none" stroke="midnightblue" d="M2272.43,-506.231C2026.26,-504.933 1209.97,-497.512 1100.5,-456 1080.12,-448.272 1082.66,-433.284 1062.5,-425 907.223,-361.195 849.783,-427.997 686.5,-389 607.107,-370.038 589.049,-357.401 515.5,-322 461.854,-296.178 429.264,-306.563 399.5,-255 392.612,-243.067 391.522,-235.233 399.5,-224 420.94,-193.814 464.195,-183.709 494.691,-180.419"/>
<polygon fill="midnightblue" stroke="midnightblue" points="495.236,-183.885 504.889,-179.518 494.62,-176.912 495.236,-183.885"/>
</g>
<!-- Node35&#45;&gt;Node8 -->
<g id="edge64" class="edge"><title>Node35&#45;&gt;Node8</title>
<path fill="none" stroke="midnightblue" d="M2272.33,-500.619C2204.63,-493.632 2108.3,-479.812 2079.5,-456 2017.97,-405.128 2069.72,-342.24 2008.5,-291 1899.72,-199.955 1722.76,-182.559 1642.91,-179.49"/>
<polygon fill="midnightblue" stroke="midnightblue" points="1642.87,-175.986 1632.76,-179.157 1642.64,-182.983 1642.87,-175.986"/>
</g>
<!-- Node35&#45;&gt;Node9 -->
<g id="edge68" class="edge"><title>Node35&#45;&gt;Node9</title>
<path fill="none" stroke="midnightblue" d="M2272.26,-506.028C2035.91,-504.086 1278.58,-494.864 1176.5,-456 1156.13,-448.245 1155.67,-438.43 1138.5,-425 1117.5,-408.568 1108.45,-408.724 1090.5,-389 1067.01,-363.178 1058.97,-355.603 1049.5,-322 1037.69,-280.076 1039.31,-266.346 1049.5,-224 1051.81,-214.418 1056.52,-204.581 1061.08,-196.558"/>
<polygon fill="midnightblue" stroke="midnightblue" points="1064.19,-198.173 1066.4,-187.809 1058.21,-194.537 1064.19,-198.173"/>
</g>
<!-- Node35&#45;&gt;Node10 -->
<g id="edge71" class="edge"><title>Node35&#45;&gt;Node10</title>
<path fill="none" stroke="midnightblue" d="M2272.38,-506.532C2021.07,-506.264 1174.44,-501.929 1062.5,-456 1043.58,-448.238 1047.25,-433.158 1028.5,-425 848.175,-346.547 778.403,-436.204 587.5,-389 513.852,-370.789 487.638,-371.909 430.5,-322 393.283,-289.492 381.637,-228.616 378.054,-197.84"/>
<polygon fill="midnightblue" stroke="midnightblue" points="381.512,-197.245 377.038,-187.641 374.546,-197.939 381.512,-197.245"/>
</g>
<!-- Node35&#45;&gt;Node11 -->
<g id="edge105" class="edge"><title>Node35&#45;&gt;Node11</title>
<path fill="none" stroke="midnightblue" d="M2383.66,-497.926C2394.63,-495.81 2406.49,-493.674 2417.5,-492 2560.74,-470.231 2611.01,-518.964 2741.5,-456 2787.49,-433.807 2822.5,-425.569 2822.5,-374.5 2822.5,-374.5 2822.5,-374.5 2822.5,-305.5 2822.5,-215.79 2138.55,-187.016 1939.96,-180.552"/>
<polygon fill="midnightblue" stroke="midnightblue" points="1939.87,-177.048 1929.77,-180.226 1939.65,-184.044 1939.87,-177.048"/>
</g>
<!-- Node35&#45;&gt;Node17 -->
<g id="edge70" class="edge"><title>Node35&#45;&gt;Node17</title>
<path fill="none" stroke="midnightblue" d="M2382.86,-497.981C2394.05,-495.816 2406.21,-493.641 2417.5,-492 2498.59,-480.21 2711.04,-492.31 2784.5,-456 2828.9,-434.055 2860.5,-424.028 2860.5,-374.5 2860.5,-374.5 2860.5,-374.5 2860.5,-121 2860.5,-49.604 1694.64,-17.06 1484.69,-11.7783"/>
<polygon fill="midnightblue" stroke="midnightblue" points="1484.7,-8.27761 1474.62,-11.5275 1484.53,-15.2754 1484.7,-8.27761"/>
</g>
<!-- Node35&#45;&gt;Node24 -->
<g id="edge67" class="edge"><title>Node35&#45;&gt;Node24</title>
<path fill="none" stroke="midnightblue" d="M2272.46,-504.819C2066.21,-499.574 1473.46,-482.274 1441.5,-456 1421.56,-439.606 1410.02,-362.775 1405.6,-326.525"/>
<polygon fill="midnightblue" stroke="midnightblue" points="1409.04,-325.838 1404.41,-316.309 1402.09,-326.646 1409.04,-325.838"/>
</g>
<!-- Node35&#45;&gt;Node25 -->
<g id="edge69" class="edge"><title>Node35&#45;&gt;Node25</title>
<path fill="none" stroke="midnightblue" d="M2272.29,-505.584C2042.3,-502.271 1320.65,-489.31 1221.5,-456 1198.48,-448.265 1197.02,-437.996 1176.5,-425 1149.58,-407.949 1136.23,-412.304 1114.5,-389 1097.41,-370.672 1086.12,-343.671 1080.01,-325.842"/>
<polygon fill="midnightblue" stroke="midnightblue" points="1083.27,-324.535 1076.88,-316.085 1076.61,-326.676 1083.27,-324.535"/>
</g>
<!-- Node35&#45;&gt;Node26 -->
<g id="edge112" class="edge"><title>Node35&#45;&gt;Node26</title>
<path fill="none" stroke="midnightblue" d="M2272.39,-505.678C2032.79,-502.575 1255.33,-489.969 1148.5,-456 1124.3,-448.305 1124.21,-434.106 1100.5,-425 1006.78,-389.001 965.26,-437.756 877.5,-389 850.135,-373.798 828.286,-343.801 816.384,-324.747"/>
<polygon fill="midnightblue" stroke="midnightblue" points="819.371,-322.923 811.224,-316.15 813.369,-326.525 819.371,-322.923"/>
</g>
<!-- Node35&#45;&gt;Node30 -->
<g id="edge90" class="edge"><title>Node35&#45;&gt;Node30</title>
<path fill="none" stroke="midnightblue" d="M2272.48,-505.842C2068.68,-503.492 1485.39,-493.529 1408.5,-456 1382.59,-443.352 1362.2,-416.523 1350.04,-397.095"/>
<polygon fill="midnightblue" stroke="midnightblue" points="1353.04,-395.286 1344.9,-388.507 1347.04,-398.884 1353.04,-395.286"/>
</g>
<!-- Node35&#45;&gt;Node31 -->
<g id="edge66" class="edge"><title>Node35&#45;&gt;Node31</title>
<path fill="none" stroke="midnightblue" d="M2384.48,-497.979C2395.22,-495.909 2406.77,-493.781 2417.5,-492 2576.2,-465.649 2693.08,-533.148 2764.5,-389 2828.35,-260.132 2536.03,-242.935 2437.77,-240.769"/>
<polygon fill="midnightblue" stroke="midnightblue" points="2437.63,-237.266 2427.57,-240.584 2437.5,-244.265 2437.63,-237.266"/>
</g>
<!-- Node35&#45;&gt;Node32 -->
<g id="edge94" class="edge"><title>Node35&#45;&gt;Node32</title>
<path fill="none" stroke="midnightblue" d="M2363.5,-497.859C2412.79,-476.327 2528.64,-417.709 2486.5,-358 2468.69,-332.757 2437.1,-320.057 2408.23,-313.699"/>
<polygon fill="midnightblue" stroke="midnightblue" points="2408.65,-310.214 2398.16,-311.705 2407.29,-317.081 2408.65,-310.214"/>
</g>
<!-- Node35&#45;&gt;Node33 -->
<g id="edge102" class="edge"><title>Node35&#45;&gt;Node33</title>
<path fill="none" stroke="midnightblue" d="M2336.59,-497.839C2321.91,-476.299 2283.52,-420 2264.11,-391.522"/>
<polygon fill="midnightblue" stroke="midnightblue" points="2266.84,-389.312 2258.31,-383.021 2261.05,-393.255 2266.84,-389.312"/>
</g>
<!-- Node36 -->
<g id="node36" class="node"><title>Node36</title>
<polygon fill="white" stroke="#bfbfbf" points="3023,-230 3023,-249 3070,-249 3070,-230 3023,-230"/>
<text text-anchor="middle" x="3046.5" y="-237" font-family="Helvetica,sans-Serif" font-size="10.00">omp.h</text>
</g>
<!-- Node35&#45;&gt;Node36 -->
<g id="edge62" class="edge"><title>Node35&#45;&gt;Node36</title>
<path fill="none" stroke="midnightblue" d="M2382.06,-497.989C2393.46,-495.772 2405.94,-493.568 2417.5,-492 2467.97,-485.155 2835.45,-488.705 2874.5,-456 2932.6,-407.34 2867.17,-347.658 2917.5,-291 2941.97,-263.455 2983.34,-250.793 3012.63,-245.065"/>
<polygon fill="midnightblue" stroke="midnightblue" points="3013.59,-248.45 3022.82,-243.254 3012.36,-241.558 3013.59,-248.45"/>
</g>
<!-- Node37 -->
<g id="node37" class="node"><title>Node37</title>
<polygon fill="white" stroke="#bfbfbf" points="2926.5,-297 2926.5,-316 2980.5,-316 2980.5,-297 2926.5,-297"/>
<text text-anchor="middle" x="2953.5" y="-304" font-family="Helvetica,sans-Serif" font-size="10.00">sched.h</text>
</g>
<!-- Node35&#45;&gt;Node37 -->
<g id="edge63" class="edge"><title>Node35&#45;&gt;Node37</title>
<path fill="none" stroke="midnightblue" d="M2412.56,-504.706C2556.43,-500.395 2874.85,-487.388 2912.5,-456 2951.11,-423.818 2955.13,-358.863 2954.53,-326.592"/>
<polygon fill="midnightblue" stroke="midnightblue" points="2958.02,-326.17 2954.16,-316.303 2951.03,-326.423 2958.02,-326.17"/>
</g>
<!-- Node38 -->
<g id="node38" class="node"><title>Node38</title>
<g id="a_node38"><a xlink:href="so__uid__map_8h.html" target="_top" xlink:title="core/container/so_uid\l_map.h">
<polygon fill="white" stroke="black" points="2359,-358.5 2359,-388.5 2478,-388.5 2478,-358.5 2359,-358.5"/>
<text text-anchor="start" x="2367" y="-376.5" font-family="Helvetica,sans-Serif" font-size="10.00">core/container/so_uid</text>
<text text-anchor="middle" x="2418.5" y="-365.5" font-family="Helvetica,sans-Serif" font-size="10.00">_map.h</text>
</a>
</g>
</g>
<!-- Node35&#45;&gt;Node38 -->
<g id="edge73" class="edge"><title>Node35&#45;&gt;Node38</title>
<path fill="none" stroke="midnightblue" d="M2347.49,-497.839C2359.05,-477.758 2388,-427.468 2405.16,-397.672"/>
<polygon fill="midnightblue" stroke="midnightblue" points="2408.32,-399.196 2410.28,-388.783 2402.25,-395.703 2408.32,-399.196"/>
</g>
<!-- Node39 -->
<g id="node39" class="node"><title>Node39</title>
<g id="a_node39"><a xlink:href="diffusion__grid_8h.html" target="_top" xlink:title="core/diffusion_grid.h">
<polygon fill="white" stroke="red" points="1451,-431 1451,-450 1564,-450 1564,-431 1451,-431"/>
<text text-anchor="middle" x="1507.5" y="-438" font-family="Helvetica,sans-Serif" font-size="10.00">core/diffusion_grid.h</text>
</a>
</g>
</g>
<!-- Node35&#45;&gt;Node39 -->
<g id="edge77" class="edge"><title>Node35&#45;&gt;Node39</title>
<path fill="none" stroke="midnightblue" d="M2272.11,-502.048C2146.83,-493.973 1876.93,-475.894 1649.5,-456 1624.88,-453.846 1597.88,-451.169 1574.1,-448.704"/>
<polygon fill="midnightblue" stroke="midnightblue" points="1574.43,-445.22 1564.13,-447.662 1573.71,-452.182 1574.43,-445.22"/>
</g>
<!-- Node40 -->
<g id="node40" class="node"><title>Node40</title>
<g id="a_node40"><a xlink:href="so__handle_8h.html" target="_top" xlink:title="core/sim_object/so\l_handle.h">
<polygon fill="white" stroke="black" points="2649,-358.5 2649,-388.5 2756,-388.5 2756,-358.5 2649,-358.5"/>
<text text-anchor="start" x="2657" y="-376.5" font-family="Helvetica,sans-Serif" font-size="10.00">core/sim_object/so</text>
<text text-anchor="middle" x="2702.5" y="-365.5" font-family="Helvetica,sans-Serif" font-size="10.00">_handle.h</text>
</a>
</g>
</g>
<!-- Node35&#45;&gt;Node40 -->
<g id="edge91" class="edge"><title>Node35&#45;&gt;Node40</title>
<path fill="none" stroke="midnightblue" d="M2412.74,-501.303C2490.42,-494.449 2609.61,-480.316 2647.5,-456 2668.93,-442.244 2684.06,-416.843 2692.96,-398.041"/>
<polygon fill="midnightblue" stroke="midnightblue" points="2696.27,-399.207 2697.15,-388.648 2689.88,-396.353 2696.27,-399.207"/>
</g>
<!-- Node41 -->
<g id="node41" class="node"><title>Node41</title>
<g id="a_node41"><a xlink:href="so__uid__generator_8h.html" target="_top" xlink:title="core/sim_object/so\l_uid_generator.h">
<polygon fill="white" stroke="red" points="2532,-425.5 2532,-455.5 2639,-455.5 2639,-425.5 2532,-425.5"/>
<text text-anchor="start" x="2540" y="-443.5" font-family="Helvetica,sans-Serif" font-size="10.00">core/sim_object/so</text>
<text text-anchor="middle" x="2585.5" y="-432.5" font-family="Helvetica,sans-Serif" font-size="10.00">_uid_generator.h</text>
</a>
</g>
</g>
<!-- Node35&#45;&gt;Node41 -->
<g id="edge95" class="edge"><title>Node35&#45;&gt;Node41</title>
<path fill="none" stroke="midnightblue" d="M2374.52,-497.936C2412.18,-487.862 2475.57,-470.904 2523.06,-458.201"/>
<polygon fill="midnightblue" stroke="midnightblue" points="2524.18,-461.524 2532.94,-455.559 2522.38,-454.762 2524.18,-461.524"/>
</g>
<!-- Node42 -->
<g id="node42" class="node"><title>Node42</title>
<g id="a_node42"><a xlink:href="numa_8h.html" target="_top" xlink:title="core/util/numa.h">
<polygon fill="white" stroke="black" points="3075,-297 3075,-316 3170,-316 3170,-297 3075,-297"/>
<text text-anchor="middle" x="3122.5" y="-304" font-family="Helvetica,sans-Serif" font-size="10.00">core/util/numa.h</text>
</a>
</g>
</g>
<!-- Node35&#45;&gt;Node42 -->
<g id="edge103" class="edge"><title>Node35&#45;&gt;Node42</title>
<path fill="none" stroke="midnightblue" d="M2412.54,-505.041C2556.07,-501.392 2878.88,-489.61 2983.5,-456 3038.36,-438.375 3058.3,-433.831 3094.5,-389 3109.37,-370.58 3116.56,-343.79 3119.88,-326.017"/>
<polygon fill="midnightblue" stroke="midnightblue" points="3123.35,-326.478 3121.51,-316.044 3116.44,-325.347 3123.35,-326.478"/>
</g>
<!-- Node35&#45;&gt;Node43 -->
<g id="edge106" class="edge"><title>Node35&#45;&gt;Node43</title>
<path fill="none" stroke="midnightblue" d="M2412.74,-506.994C2551.96,-506.952 2857.49,-501.49 2950.5,-456 2979.46,-441.834 3002.66,-411.263 3015.22,-391.853"/>
<polygon fill="midnightblue" stroke="midnightblue" points="3018.35,-393.445 3020.65,-383.103 3012.4,-389.753 3018.35,-393.445"/>
</g>
<!-- Node38&#45;&gt;Node2 -->
<g id="edge75" class="edge"><title>Node38&#45;&gt;Node2</title>
<path fill="none" stroke="midnightblue" d="M2358.89,-363.734C2265.01,-349.928 2085.7,-323.558 2010.75,-312.537"/>
<polygon fill="midnightblue" stroke="midnightblue" points="2010.88,-309.018 2000.47,-311.026 2009.86,-315.943 2010.88,-309.018"/>
</g>
<!-- Node38&#45;&gt;Node31 -->
<g id="edge74" class="edge"><title>Node38&#45;&gt;Node31</title>
<path fill="none" stroke="midnightblue" d="M2417.22,-358.374C2415.05,-334.504 2410.65,-286.181 2408.22,-259.415"/>
<polygon fill="midnightblue" stroke="midnightblue" points="2411.67,-258.739 2407.28,-249.097 2404.7,-259.373 2411.67,-258.739"/>
</g>
<!-- Node38&#45;&gt;Node32 -->
<g id="edge76" class="edge"><title>Node38&#45;&gt;Node32</title>
<path fill="none" stroke="midnightblue" d="M2402.44,-358.396C2392.46,-349.623 2379.43,-338.183 2368.26,-328.371"/>
<polygon fill="midnightblue" stroke="midnightblue" points="2370.35,-325.546 2360.53,-321.577 2365.73,-330.806 2370.35,-325.546"/>
</g>
<!-- Node39&#45;&gt;Node2 -->
<g id="edge84" class="edge"><title>Node39&#45;&gt;Node2</title>
<path fill="none" stroke="midnightblue" d="M1564.32,-431.443C1608.21,-423.948 1669.81,-410.617 1720.5,-389 1743.86,-379.038 1745.02,-367.68 1768.5,-358 1839.9,-328.562 1864.42,-343.833 1938.5,-322 1941.08,-321.24 1943.73,-320.386 1946.38,-319.482"/>
<polygon fill="midnightblue" stroke="midnightblue" points="1947.58,-322.767 1955.79,-316.07 1945.2,-316.185 1947.58,-322.767"/>
</g>
<!-- Node39&#45;&gt;Node4 -->
<g id="edge89" class="edge"><title>Node39&#45;&gt;Node4</title>
<path fill="none" stroke="midnightblue" d="M1450.91,-433.878C1423.08,-431.142 1389.04,-427.84 1358.5,-425 1178.13,-408.227 1129.36,-428.197 952.5,-389 949.255,-388.281 945.914,-387.366 942.613,-386.348"/>
<polygon fill="midnightblue" stroke="midnightblue" points="943.552,-382.97 932.957,-383.069 941.301,-389.599 943.552,-382.97"/>
</g>
<!-- Node39&#45;&gt;Node5 -->
<g id="edge79" class="edge"><title>Node39&#45;&gt;Node5</title>
<path fill="none" stroke="midnightblue" d="M1450.92,-433.695C1423.1,-430.916 1389.06,-427.63 1358.5,-425 1144.91,-406.617 1089.58,-420.296 877.5,-389 843.497,-383.982 597.012,-348.807 575.5,-322 559.316,-301.832 579.982,-273.645 596.588,-256.258"/>
<polygon fill="midnightblue" stroke="midnightblue" points="599.165,-258.631 603.785,-249.096 594.228,-253.669 599.165,-258.631"/>
</g>
<!-- Node39&#45;&gt;Node6 -->
<g id="edge80" class="edge"><title>Node39&#45;&gt;Node6</title>
<path fill="none" stroke="midnightblue" d="M1450.74,-433.212C1374.21,-424.504 1233.77,-407.716 1114.5,-389 1113.24,-388.802 754.646,-322.558 753.5,-322 738.71,-314.794 656.529,-232.594 642.5,-224 617.098,-208.439 585.385,-196.44 561.861,-188.76"/>
<polygon fill="midnightblue" stroke="midnightblue" points="562.913,-185.422 552.323,-185.736 560.797,-192.095 562.913,-185.422"/>
</g>
<!-- Node39&#45;&gt;Node7 -->
<g id="edge86" class="edge"><title>Node39&#45;&gt;Node7</title>
<path fill="none" stroke="midnightblue" d="M1450.97,-433.576C1350.1,-422.756 1148.54,-399.911 1137.5,-389 1104.7,-356.569 1106.74,-297.999 1111.12,-264.936"/>
<polygon fill="midnightblue" stroke="midnightblue" points="1114.62,-265.185 1112.65,-254.775 1107.7,-264.143 1114.62,-265.185"/>
</g>
<!-- Node39&#45;&gt;Node8 -->
<g id="edge78" class="edge"><title>Node39&#45;&gt;Node8</title>
<path fill="none" stroke="midnightblue" d="M1510.56,-430.671C1516.67,-414.259 1531.83,-378.83 1555.5,-358 1585.99,-331.165 1617.14,-355.909 1639.5,-322 1653.15,-301.302 1624.61,-230.514 1609.74,-196.942"/>
<polygon fill="midnightblue" stroke="midnightblue" points="1612.93,-195.494 1605.63,-187.815 1606.55,-198.37 1612.93,-195.494"/>
</g>
<!-- Node39&#45;&gt;Node11 -->
<g id="edge85" class="edge"><title>Node39&#45;&gt;Node11</title>
<path fill="none" stroke="midnightblue" d="M1561.71,-430.997C1598.58,-423.625 1647.55,-410.641 1686.5,-389 1704.38,-379.068 1703.04,-368.642 1720.5,-358 1759.77,-334.069 1780.3,-349.034 1817.5,-322 1848.21,-299.679 1854.38,-289.378 1870.5,-255 1879.07,-236.727 1883.09,-213.842 1884.95,-197.985"/>
<polygon fill="midnightblue" stroke="midnightblue" points="1888.45,-198.143 1885.95,-187.846 1881.48,-197.451 1888.45,-198.143"/>
</g>
<!-- Node39&#45;&gt;Node12 -->
<g id="edge88" class="edge"><title>Node39&#45;&gt;Node12</title>
<path fill="none" stroke="midnightblue" d="M1506.5,-430.865C1504.16,-409.809 1498.5,-354.129 1498.5,-307.5 1498.5,-307.5 1498.5,-307.5 1498.5,-238.5 1498.5,-190.614 1548.69,-154.719 1581.27,-136.466"/>
<polygon fill="midnightblue" stroke="midnightblue" points="1583.19,-139.406 1590.34,-131.581 1579.87,-133.243 1583.19,-139.406"/>
</g>
<!-- Node39&#45;&gt;Node16 -->
<g id="edge82" class="edge"><title>Node39&#45;&gt;Node16</title>
<path fill="none" stroke="midnightblue" d="M1564.15,-433.585C1590.15,-430.904 1621.38,-427.73 1649.5,-425 1736.35,-416.568 1965.23,-433.139 2040.5,-389 2109.57,-348.496 2142.5,-320.569 2142.5,-240.5 2142.5,-240.5 2142.5,-240.5 2142.5,-177 2142.5,-102.137 2035.62,-78.0647 1975.46,-70.4449"/>
<polygon fill="midnightblue" stroke="midnightblue" points="1975.5,-66.926 1965.16,-69.2429 1974.68,-73.8788 1975.5,-66.926"/>
</g>
<!-- Node39&#45;&gt;Node17 -->
<g id="edge83" class="edge"><title>Node39&#45;&gt;Node17</title>
<path fill="none" stroke="midnightblue" d="M1564.08,-432.716C1590.06,-429.859 1621.31,-426.788 1649.5,-425 1809.78,-414.835 2943.35,-443.286 3094.5,-389 3149.77,-369.151 3198.5,-366.224 3198.5,-307.5 3198.5,-307.5 3198.5,-307.5 3198.5,-121 3198.5,25.8692 3020.4,-72.8253 2874.5,-56 2592.27,-23.4534 1669.02,-13.0628 1484.69,-11.2903"/>
<polygon fill="midnightblue" stroke="midnightblue" points="1484.6,-7.78935 1474.56,-11.1945 1484.53,-14.789 1484.6,-7.78935"/>
</g>
<!-- Node39&#45;&gt;Node23 -->
<g id="edge87" class="edge"><title>Node39&#45;&gt;Node23</title>
<path fill="none" stroke="midnightblue" d="M1467.41,-430.95C1420.45,-420.93 1340.32,-403.809 1271.5,-389 1265.76,-387.765 1259.75,-386.467 1253.77,-385.177"/>
<polygon fill="midnightblue" stroke="midnightblue" points="1254.34,-381.718 1243.82,-383.026 1252.86,-388.56 1254.34,-381.718"/>
</g>
<!-- Node39&#45;&gt;Node34 -->
<g id="edge81" class="edge"><title>Node39&#45;&gt;Node34</title>
<path fill="none" stroke="midnightblue" d="M1549.88,-430.977C1646.92,-411.468 1879.69,-364.726 1915.5,-358 2002.56,-341.647 2104.8,-324.038 2160.72,-314.543"/>
<polygon fill="midnightblue" stroke="midnightblue" points="2161.33,-317.988 2170.6,-312.866 2160.16,-311.087 2161.33,-317.988"/>
</g>
<!-- Node40&#45;&gt;Node11 -->
<g id="edge93" class="edge"><title>Node40&#45;&gt;Node11</title>
<path fill="none" stroke="midnightblue" d="M2693.72,-358.4C2682.07,-340.653 2659.97,-310.174 2634.5,-291 2575.52,-246.597 2554.12,-241.926 2482.5,-224 2430.69,-211.031 2076.72,-189.816 1940.12,-182.007"/>
<polygon fill="midnightblue" stroke="midnightblue" points="1940.08,-178.499 1929.89,-181.425 1939.68,-185.488 1940.08,-178.499"/>
</g>
<!-- Node40&#45;&gt;Node31 -->
<g id="edge92" class="edge"><title>Node40&#45;&gt;Node31</title>
<path fill="none" stroke="midnightblue" d="M2661.89,-358.459C2635.08,-348.884 2599.35,-335.529 2568.5,-322 2518.85,-300.229 2462.7,-270.874 2431.26,-253.986"/>
<polygon fill="midnightblue" stroke="midnightblue" points="2432.79,-250.836 2422.33,-249.168 2429.47,-256.996 2432.79,-250.836"/>
</g>
<!-- Node41&#45;&gt;Node11 -->
<g id="edge101" class="edge"><title>Node41&#45;&gt;Node11</title>
<path fill="none" stroke="midnightblue" d="M2586.08,-425.421C2586.21,-408.494 2584.54,-379.662 2573.5,-358 2554.16,-320.057 2475.25,-241.675 2436.5,-224 2392.05,-203.723 2069.26,-187.19 1939.9,-181.308"/>
<polygon fill="midnightblue" stroke="midnightblue" points="1939.98,-177.808 1929.83,-180.853 1939.66,-184.8 1939.98,-177.808"/>
</g>
<!-- Node41&#45;&gt;Node31 -->
<g id="edge96" class="edge"><title>Node41&#45;&gt;Node31</title>
<path fill="none" stroke="midnightblue" d="M2581.9,-425.33C2576.99,-408.055 2566.88,-378.617 2550.5,-358 2533.69,-336.842 2522.66,-338.81 2501.5,-322 2473.61,-299.845 2442.49,-272.652 2423.71,-255.954"/>
<polygon fill="midnightblue" stroke="midnightblue" points="2425.8,-253.124 2416.01,-249.076 2421.14,-258.346 2425.8,-253.124"/>
</g>
<!-- Node41&#45;&gt;Node32 -->
<g id="edge99" class="edge"><title>Node41&#45;&gt;Node32</title>
<path fill="none" stroke="midnightblue" d="M2578.01,-425.466C2567.55,-407.211 2546.84,-375.581 2520.5,-358 2487.05,-335.676 2443.68,-323.083 2408.36,-316.056"/>
<polygon fill="midnightblue" stroke="midnightblue" points="2408.63,-312.545 2398.15,-314.133 2407.33,-319.424 2408.63,-312.545"/>
</g>
<!-- Node41&#45;&gt;Node33 -->
<g id="edge100" class="edge"><title>Node41&#45;&gt;Node33</title>
<path fill="none" stroke="midnightblue" d="M2532,-429.057C2470,-416.955 2368.42,-397.127 2306.3,-385.001"/>
<polygon fill="midnightblue" stroke="midnightblue" points="2306.79,-381.531 2296.3,-383.05 2305.45,-388.401 2306.79,-381.531"/>
</g>
<!-- Node41&#45;&gt;Node38 -->
<g id="edge97" class="edge"><title>Node41&#45;&gt;Node38</title>
<path fill="none" stroke="midnightblue" d="M2549.26,-425.396C2524.32,-415.686 2490.97,-402.709 2464.2,-392.289"/>
<polygon fill="midnightblue" stroke="midnightblue" points="2465.25,-388.942 2454.67,-388.577 2462.72,-395.465 2465.25,-388.942"/>
</g>
<!-- Node41&#45;&gt;Node40 -->
<g id="edge98" class="edge"><title>Node41&#45;&gt;Node40</title>
<path fill="none" stroke="midnightblue" d="M2610.89,-425.396C2627.68,-416.069 2649.89,-403.728 2668.24,-393.534"/>
<polygon fill="midnightblue" stroke="midnightblue" points="2670.12,-396.493 2677.16,-388.577 2666.72,-390.373 2670.12,-396.493"/>
</g>
<!-- Node42&#45;&gt;Node36 -->
<g id="edge104" class="edge"><title>Node42&#45;&gt;Node36</title>
<path fill="none" stroke="midnightblue" d="M3112.25,-296.734C3100.06,-286.305 3079.48,-268.709 3064.59,-255.973"/>
<polygon fill="midnightblue" stroke="midnightblue" points="3066.46,-252.967 3056.59,-249.127 3061.91,-258.287 3066.46,-252.967"/>
</g>
<!-- Node43&#45;&gt;Node2 -->
<g id="edge109" class="edge"><title>Node43&#45;&gt;Node2</title>
<path fill="none" stroke="midnightblue" d="M2964.97,-369.119C2795.46,-359.626 2318.25,-332.722 2161.5,-322 2108.7,-318.388 2047.48,-313.44 2010.39,-310.359"/>
<polygon fill="midnightblue" stroke="midnightblue" points="2010.4,-306.848 2000.14,-309.504 2009.82,-313.824 2010.4,-306.848"/>
</g>
<!-- Node43&#45;&gt;Node12 -->
<g id="edge110" class="edge"><title>Node43&#45;&gt;Node12</title>
<path fill="none" stroke="midnightblue" d="M3023.82,-363.697C3020.27,-347.327 3010.53,-311.967 2989.5,-291 2936.92,-238.592 2908.47,-242.179 2836.5,-224 2607.67,-166.202 1860.94,-133.002 1659.15,-124.938"/>
<polygon fill="midnightblue" stroke="midnightblue" points="1659.26,-121.44 1649.13,-124.54 1658.98,-128.434 1659.26,-121.44"/>
</g>
<!-- Node43&#45;&gt;Node36 -->
<g id="edge107" class="edge"><title>Node43&#45;&gt;Node36</title>
<path fill="none" stroke="midnightblue" d="M3026.88,-363.839C3030.25,-342.674 3038.95,-287.948 3043.55,-259.033"/>
<polygon fill="midnightblue" stroke="midnightblue" points="3047.03,-259.447 3045.14,-249.021 3040.12,-258.347 3047.03,-259.447"/>
</g>
<!-- Node43&#45;&gt;Node37 -->
<g id="edge108" class="edge"><title>Node43&#45;&gt;Node37</title>
<path fill="none" stroke="midnightblue" d="M3015.79,-363.734C3004.24,-353.305 2984.75,-335.709 2970.64,-322.973"/>
<polygon fill="midnightblue" stroke="midnightblue" points="2972.82,-320.23 2963.06,-316.127 2968.13,-325.426 2972.82,-320.23"/>
</g>
<!-- Node43&#45;&gt;Node42 -->
<g id="edge111" class="edge"><title>Node43&#45;&gt;Node42</title>
<path fill="none" stroke="midnightblue" d="M3038.58,-363.734C3054.65,-352.964 3082.13,-334.55 3101.25,-321.739"/>
<polygon fill="midnightblue" stroke="midnightblue" points="3103.27,-324.602 3109.63,-316.127 3099.37,-318.787 3103.27,-324.602"/>
</g>
<!-- Node44&#45;&gt;Node2 -->
<g id="edge121" class="edge"><title>Node44&#45;&gt;Node2</title>
<path fill="none" stroke="midnightblue" d="M937.559,-506.071C1088.05,-504.397 1477.95,-496.192 1600.5,-456 1624.99,-447.969 1626.2,-436.012 1649.5,-425 1695.63,-403.198 1712.48,-411.017 1758.5,-389 1781.41,-378.04 1783.43,-368.612 1806.5,-358 1830.86,-346.798 1900.74,-327.468 1942.94,-316.252"/>
<polygon fill="midnightblue" stroke="midnightblue" points="1944,-319.592 1952.77,-313.652 1942.21,-312.825 1944,-319.592"/>
</g>
<!-- Node44&#45;&gt;Node4 -->
<g id="edge149" class="edge"><title>Node44&#45;&gt;Node4</title>
<path fill="none" stroke="midnightblue" d="M869.022,-497.731C855.447,-482.574 831.605,-450.638 844.5,-425 852.684,-408.728 868.869,-396.379 883.395,-387.967"/>
<polygon fill="midnightblue" stroke="midnightblue" points="885.458,-390.831 892.601,-383.006 882.137,-384.669 885.458,-390.831"/>
</g>
<!-- Node44&#45;&gt;Node5 -->
<g id="edge115" class="edge"><title>Node44&#45;&gt;Node5</title>
<path fill="none" stroke="midnightblue" d="M817.408,-502.732C773.167,-497.529 713.191,-485.192 668.5,-456 605.838,-415.068 590.421,-392.921 566.5,-322 562.097,-308.945 561.457,-303.822 566.5,-291 571.966,-277.104 583.255,-264.766 593.399,-255.764"/>
<polygon fill="midnightblue" stroke="midnightblue" points="595.719,-258.387 601.156,-249.293 591.235,-253.011 595.719,-258.387"/>
</g>
<!-- Node44&#45;&gt;Node6 -->
<g id="edge116" class="edge"><title>Node44&#45;&gt;Node6</title>
<path fill="none" stroke="midnightblue" d="M817.323,-504.99C755.286,-501.478 656.959,-490.377 579.5,-456 447.599,-397.46 387.482,-384.839 324.5,-255 318.487,-242.604 315.87,-234.741 324.5,-224 345.486,-197.88 442.45,-186.023 494.783,-181.446"/>
<polygon fill="midnightblue" stroke="midnightblue" points="495.249,-184.92 504.925,-180.602 494.669,-177.944 495.249,-184.92"/>
</g>
<!-- Node44&#45;&gt;Node7 -->
<g id="edge129" class="edge"><title>Node44&#45;&gt;Node7</title>
<path fill="none" stroke="midnightblue" d="M867.69,-497.995C857.892,-488.789 843.456,-473.112 837.5,-456 822.036,-411.57 844.058,-391.087 877.5,-358 928.075,-307.963 1004.21,-275.543 1056.68,-257.69"/>
<polygon fill="midnightblue" stroke="midnightblue" points="1057.81,-261.003 1066.19,-254.525 1055.6,-254.361 1057.81,-261.003"/>
</g>
<!-- Node44&#45;&gt;Node17 -->
<g id="edge119" class="edge"><title>Node44&#45;&gt;Node17</title>
<path fill="none" stroke="midnightblue" d="M817.223,-501.937C642.563,-487.917 148.5,-442.267 148.5,-374.5 148.5,-374.5 148.5,-374.5 148.5,-121 148.5,-55.1192 1219.29,-18.3104 1420.22,-11.9834"/>
<polygon fill="midnightblue" stroke="midnightblue" points="1420.53,-15.4755 1430.41,-11.6651 1420.31,-8.47894 1420.53,-15.4755"/>
</g>
<!-- Node44&#45;&gt;Node23 -->
<g id="edge146" class="edge"><title>Node44&#45;&gt;Node23</title>
<path fill="none" stroke="midnightblue" d="M879.369,-497.956C883.544,-481.054 895.305,-443.395 920.5,-425 937.725,-412.424 1057.78,-394.223 1136.19,-383.452"/>
<polygon fill="midnightblue" stroke="midnightblue" points="1137.05,-386.868 1146.48,-382.048 1136.1,-379.932 1137.05,-386.868"/>
</g>
<!-- Node44&#45;&gt;Node25 -->
<g id="edge118" class="edge"><title>Node44&#45;&gt;Node25</title>
<path fill="none" stroke="midnightblue" d="M876.821,-497.827C876.017,-481.976 876.357,-447.86 891.5,-425 892.804,-423.032 1003.88,-352.35 1052.32,-321.578"/>
<polygon fill="midnightblue" stroke="midnightblue" points="1054.3,-324.47 1060.86,-316.154 1050.54,-318.561 1054.3,-324.47"/>
</g>
<!-- Node44&#45;&gt;Node27 -->
<g id="edge120" class="edge"><title>Node44&#45;&gt;Node27</title>
<path fill="none" stroke="midnightblue" d="M821.506,-497.978C771.065,-487.529 708.025,-465.924 730.5,-425 771.572,-350.216 832.386,-382.547 892.5,-322 911.277,-303.088 926.47,-276.064 935.246,-258.403"/>
<polygon fill="midnightblue" stroke="midnightblue" points="938.482,-259.749 939.65,-249.219 932.17,-256.722 938.482,-259.749"/>
</g>
<!-- Node44&#45;&gt;Node29 -->
<g id="edge147" class="edge"><title>Node44&#45;&gt;Node29</title>
<path fill="none" stroke="midnightblue" d="M817.431,-505.892C763.189,-502.832 682.99,-491.863 623.5,-456 539.992,-405.658 479.176,-300.29 457.342,-258.313"/>
<polygon fill="midnightblue" stroke="midnightblue" points="460.403,-256.611 452.745,-249.289 454.165,-259.788 460.403,-256.611"/>
</g>
<!-- Node44&#45;&gt;Node30 -->
<g id="edge148" class="edge"><title>Node44&#45;&gt;Node30</title>
<path fill="none" stroke="midnightblue" d="M885.053,-497.737C902.5,-477.597 944.774,-429.394 953.5,-425 1077.68,-362.462 1128.87,-410.047 1270.76,-388.938"/>
<polygon fill="midnightblue" stroke="midnightblue" points="1271.36,-392.388 1280.69,-387.372 1270.27,-385.473 1271.36,-392.388"/>
</g>
<!-- Node45 -->
<g id="node45" class="node"><title>Node45</title>
<polygon fill="white" stroke="#bfbfbf" points="963,-431 963,-450 1020,-450 1020,-431 963,-431"/>
<text text-anchor="middle" x="991.5" y="-438" font-family="Helvetica,sans-Serif" font-size="10.00">complex</text>
</g>
<!-- Node44&#45;&gt;Node45 -->
<g id="edge117" class="edge"><title>Node44&#45;&gt;Node45</title>
<path fill="none" stroke="midnightblue" d="M892.875,-497.734C912.019,-486.818 944.938,-468.049 967.436,-455.221"/>
<polygon fill="midnightblue" stroke="midnightblue" points="969.416,-458.121 976.369,-450.127 965.948,-452.04 969.416,-458.121"/>
</g>
<!-- Node46 -->
<g id="node46" class="node"><title>Node46</title>
<g id="a_node46"><a xlink:href="inline__vector_8h.html" target="_top" xlink:title="core/container/inline\l_vector.h">
<polygon fill="white" stroke="red" points="1565,-358.5 1565,-388.5 1678,-388.5 1678,-358.5 1565,-358.5"/>
<text text-anchor="start" x="1573" y="-376.5" font-family="Helvetica,sans-Serif" font-size="10.00">core/container/inline</text>
<text text-anchor="middle" x="1621.5" y="-365.5" font-family="Helvetica,sans-Serif" font-size="10.00">_vector.h</text>
</a>
</g>
</g>
<!-- Node44&#45;&gt;Node46 -->
<g id="edge122" class="edge"><title>Node44&#45;&gt;Node46</title>
<path fill="none" stroke="midnightblue" d="M937.701,-505.274C1096.65,-501.596 1519.1,-488.817 1572.5,-456 1593.6,-443.032 1606.8,-417.27 1614.11,-398.166"/>
<polygon fill="midnightblue" stroke="midnightblue" points="1617.45,-399.218 1617.49,-388.623 1610.85,-396.879 1617.45,-399.218"/>
</g>
<!-- Node47 -->
<g id="node47" class="node"><title>Node47</title>
<g id="a_node47"><a xlink:href="default__force_8h.html" target="_top" xlink:title="core/default_force.h">
<polygon fill="white" stroke="black" points="594.5,-297 594.5,-316 706.5,-316 706.5,-297 594.5,-297"/>
<text text-anchor="middle" x="650.5" y="-304" font-family="Helvetica,sans-Serif" font-size="10.00">core/default_force.h</text>
</a>
</g>
</g>
<!-- Node44&#45;&gt;Node47 -->
<g id="edge130" class="edge"><title>Node44&#45;&gt;Node47</title>
<path fill="none" stroke="midnightblue" d="M817.493,-504.908C777.088,-500.662 725.372,-488.573 692.5,-456 656.905,-420.729 650.903,-357.732 650.252,-326.347"/>
<polygon fill="midnightblue" stroke="midnightblue" points="653.752,-326.31 650.21,-316.325 646.752,-326.34 653.752,-326.31"/>
</g>
<!-- Node48 -->
<g id="node48" class="node"><title>Node48</title>
<g id="a_node48"><a xlink:href="cell__division__event_8h.html" target="_top" xlink:title="core/event/cell_division\l_event.h">
<polygon fill="white" stroke="black" points="1659,-425.5 1659,-455.5 1786,-455.5 1786,-425.5 1659,-425.5"/>
<text text-anchor="start" x="1667" y="-443.5" font-family="Helvetica,sans-Serif" font-size="10.00">core/event/cell_division</text>
<text text-anchor="middle" x="1722.5" y="-432.5" font-family="Helvetica,sans-Serif" font-size="10.00">_event.h</text>
</a>
</g>
</g>
<!-- Node44&#45;&gt;Node48 -->
<g id="edge133" class="edge"><title>Node44&#45;&gt;Node48</title>
<path fill="none" stroke="midnightblue" d="M937.891,-504.947C1067.68,-501.079 1382.66,-488.841 1644.5,-456 1645.81,-455.836 1647.12,-455.664 1648.45,-455.485"/>
<polygon fill="midnightblue" stroke="midnightblue" points="1649.35,-458.891 1658.75,-453.986 1648.35,-451.964 1649.35,-458.891"/>
</g>
<!-- Node49 -->
<g id="node49" class="node"><title>Node49</title>
<g id="a_node49"><a xlink:href="event_8h.html" target="_top" xlink:title="core/event/event.h">
<polygon fill="white" stroke="red" points="1925,-364 1925,-383 2032,-383 2032,-364 1925,-364"/>
<text text-anchor="middle" x="1978.5" y="-371" font-family="Helvetica,sans-Serif" font-size="10.00">core/event/event.h</text>
</a>
</g>
</g>
<!-- Node44&#45;&gt;Node49 -->
<g id="edge137" class="edge"><title>Node44&#45;&gt;Node49</title>
<path fill="none" stroke="midnightblue" d="M937.696,-506.01C1114.66,-504.123 1631.05,-495.305 1794.5,-456 1855.36,-441.365 1921.15,-407.299 1955.17,-388.166"/>
<polygon fill="midnightblue" stroke="midnightblue" points="1956.93,-391.187 1963.89,-383.194 1953.47,-385.106 1956.93,-391.187"/>
</g>
<!-- Node50 -->
<g id="node50" class="node"><title>Node50</title>
<g id="a_node50"><a xlink:href="in__place__exec__ctxt_8h.html" target="_top" xlink:title="core/execution_context\l/in_place_exec_ctxt.h">
<polygon fill="white" stroke="red" points="2088.5,-425.5 2088.5,-455.5 2216.5,-455.5 2216.5,-425.5 2088.5,-425.5"/>
<text text-anchor="start" x="2096.5" y="-443.5" font-family="Helvetica,sans-Serif" font-size="10.00">core/execution_context</text>
<text text-anchor="middle" x="2152.5" y="-432.5" font-family="Helvetica,sans-Serif" font-size="10.00">/in_place_exec_ctxt.h</text>
</a>
</g>
</g>
<!-- Node44&#45;&gt;Node50 -->
<g id="edge138" class="edge"><title>Node44&#45;&gt;Node50</title>
<path fill="none" stroke="midnightblue" d="M937.711,-503.43C1147.72,-492.724 1847.55,-457.047 2078.12,-445.292"/>
<polygon fill="midnightblue" stroke="midnightblue" points="2078.6,-448.772 2088.41,-444.767 2078.25,-441.781 2078.6,-448.772"/>
</g>
<!-- Node46&#45;&gt;Node2 -->
<g id="edge126" class="edge"><title>Node46&#45;&gt;Node2</title>
<path fill="none" stroke="midnightblue" d="M1678.18,-364.905C1755.67,-354.276 1890.52,-334.829 1938.5,-322 1941.16,-321.289 1943.89,-320.459 1946.61,-319.562"/>
<polygon fill="midnightblue" stroke="midnightblue" points="1948.01,-322.778 1956.25,-316.115 1945.65,-316.186 1948.01,-322.778"/>
</g>
<!-- Node46&#45;&gt;Node5 -->
<g id="edge124" class="edge"><title>Node46&#45;&gt;Node5</title>
<path fill="none" stroke="midnightblue" d="M1591.79,-358.403C1544.56,-336.099 1456.07,-294.795 1440.5,-291 1299.52,-256.631 933.265,-264.992 788.5,-255 737.923,-251.509 679.209,-246.435 644.273,-243.307"/>
<polygon fill="midnightblue" stroke="midnightblue" points="644.502,-239.814 634.229,-242.403 643.875,-246.786 644.502,-239.814"/>
</g>
<!-- Node46&#45;&gt;Node8 -->
<g id="edge123" class="edge"><title>Node46&#45;&gt;Node8</title>
<path fill="none" stroke="midnightblue" d="M1642.13,-358.499C1653.41,-349.542 1666.31,-336.835 1672.5,-322 1677.8,-309.284 1676.34,-304.232 1672.5,-291 1661.55,-253.275 1633.66,-216.084 1616.27,-195.474"/>
<polygon fill="midnightblue" stroke="midnightblue" points="1618.73,-192.972 1609.54,-187.703 1613.44,-197.554 1618.73,-192.972"/>
</g>
<!-- Node46&#45;&gt;Node11 -->
<g id="edge128" class="edge"><title>Node46&#45;&gt;Node11</title>
<path fill="none" stroke="midnightblue" d="M1678.17,-359.35C1718.68,-349.179 1769,-334.73 1786.5,-322 1832.52,-288.529 1864.85,-227.181 1878.8,-196.89"/>
<polygon fill="midnightblue" stroke="midnightblue" points="1882.08,-198.126 1882.96,-187.568 1875.69,-195.274 1882.08,-198.126"/>
</g>
<!-- Node46&#45;&gt;Node12 -->
<g id="edge127" class="edge"><title>Node46&#45;&gt;Node12</title>
<path fill="none" stroke="midnightblue" d="M1651.19,-358.34C1665.24,-349.918 1680.64,-337.774 1688.5,-322 1694.65,-309.669 1691,-304.549 1688.5,-291 1677.88,-233.45 1669.5,-219.389 1641.5,-168 1636.12,-158.129 1628.84,-147.961 1622.48,-139.794"/>
<polygon fill="midnightblue" stroke="midnightblue" points="1625.08,-137.431 1616.09,-131.825 1619.62,-141.814 1625.08,-137.431"/>
</g>
<!-- Node46&#45;&gt;Node31 -->
<g id="edge125" class="edge"><title>Node46&#45;&gt;Node31</title>
<path fill="none" stroke="midnightblue" d="M1678.13,-363.26C1727.37,-354.605 1800.37,-340.273 1862.5,-322 1899.48,-311.124 1906.03,-300.053 1943.5,-291 2102.69,-252.536 2299.8,-243.325 2375.19,-241.155"/>
<polygon fill="midnightblue" stroke="midnightblue" points="2375.5,-244.648 2385.41,-240.883 2375.32,-237.65 2375.5,-244.648"/>
</g>
<!-- Node47&#45;&gt;Node5 -->
<g id="edge131" class="edge"><title>Node47&#45;&gt;Node5</title>
<path fill="none" stroke="midnightblue" d="M645.51,-296.734C639.907,-286.89 630.668,-270.66 623.552,-258.159"/>
<polygon fill="midnightblue" stroke="midnightblue" points="626.4,-256.087 618.411,-249.127 620.316,-259.549 626.4,-256.087"/>
</g>
<!-- Node47&#45;&gt;Node7 -->
<g id="edge132" class="edge"><title>Node47&#45;&gt;Node7</title>
<path fill="none" stroke="midnightblue" d="M706.628,-297.586C721.837,-295.444 738.299,-293.13 753.5,-291 856.432,-276.575 975.842,-259.935 1048.51,-249.82"/>
<polygon fill="midnightblue" stroke="midnightblue" points="1049.02,-253.283 1058.44,-248.437 1048.05,-246.349 1049.02,-253.283"/>
</g>
<!-- Node48&#45;&gt;Node49 -->
<g id="edge134" class="edge"><title>Node48&#45;&gt;Node49</title>
<path fill="none" stroke="midnightblue" d="M1777.73,-425.476C1824.82,-413.521 1891.57,-396.573 1934.95,-385.558"/>
<polygon fill="midnightblue" stroke="midnightblue" points="1936.08,-388.882 1944.91,-383.029 1934.36,-382.097 1936.08,-388.882"/>
</g>
<!-- Node49&#45;&gt;Node12 -->
<g id="edge136" class="edge"><title>Node49&#45;&gt;Node12</title>
<path fill="none" stroke="midnightblue" d="M1985.62,-363.87C1993,-354.317 2004.07,-338.127 2008.5,-322 2012.15,-308.714 2012.02,-304.319 2008.5,-291 1992.41,-230.194 1990.61,-203.228 1938.5,-168 1894.03,-137.937 1740.49,-127.811 1659.47,-124.516"/>
<polygon fill="midnightblue" stroke="midnightblue" points="1659.14,-121.001 1649.02,-124.112 1658.87,-127.996 1659.14,-121.001"/>
</g>
<!-- Node49&#45;&gt;Node31 -->
<g id="edge135" class="edge"><title>Node49&#45;&gt;Node31</title>
<path fill="none" stroke="midnightblue" d="M1994.68,-363.855C2026.04,-347.436 2097.6,-311.549 2161.5,-291 2236.49,-266.886 2328.2,-251.593 2375.29,-244.725"/>
<polygon fill="midnightblue" stroke="midnightblue" points="2376.06,-248.152 2385.46,-243.273 2375.07,-241.222 2376.06,-248.152"/>
</g>
<!-- Node50&#45;&gt;Node2 -->
<g id="edge142" class="edge"><title>Node50&#45;&gt;Node2</title>
<path fill="none" stroke="midnightblue" d="M2133.66,-425.374C2100.13,-400.22 2030.38,-347.91 1996.22,-322.288"/>
<polygon fill="midnightblue" stroke="midnightblue" points="1998.06,-319.297 1987.96,-316.097 1993.86,-324.897 1998.06,-319.297"/>
</g>
<!-- Node50&#45;&gt;Node10 -->
<g id="edge141" class="edge"><title>Node50&#45;&gt;Node10</title>
<path fill="none" stroke="midnightblue" d="M2088.48,-436.883C2016.85,-433.961 1897.37,-429.102 1794.5,-425 1386.95,-408.747 1282.85,-434.231 877.5,-389 836.847,-384.464 553.878,-336.157 515.5,-322 459.642,-301.395 436.493,-301.65 399.5,-255 386.416,-238.501 380.758,-214.633 378.321,-198.064"/>
<polygon fill="midnightblue" stroke="midnightblue" points="381.772,-197.448 377.098,-187.94 374.823,-198.288 381.772,-197.448"/>
</g>
<!-- Node50&#45;&gt;Node24 -->
<g id="edge140" class="edge"><title>Node50&#45;&gt;Node24</title>
<path fill="none" stroke="midnightblue" d="M2088.4,-437.359C1955.45,-432.386 1653.91,-418.184 1555.5,-389 1504.95,-374.009 1452.02,-341.079 1423.91,-321.983"/>
<polygon fill="midnightblue" stroke="midnightblue" points="1425.58,-318.885 1415.36,-316.083 1421.6,-324.645 1425.58,-318.885"/>
</g>
<!-- Node50&#45;&gt;Node32 -->
<g id="edge144" class="edge"><title>Node50&#45;&gt;Node32</title>
<path fill="none" stroke="midnightblue" d="M2216.55,-431.835C2248.12,-425.129 2284.83,-412.559 2310.5,-389 2326.93,-373.923 2335.67,-349.669 2340.15,-331.533"/>
<polygon fill="midnightblue" stroke="midnightblue" points="2343.58,-332.196 2342.32,-321.677 2336.75,-330.689 2343.58,-332.196"/>
</g>
<!-- Node50&#45;&gt;Node34 -->
<g id="edge139" class="edge"><title>Node50&#45;&gt;Node34</title>
<path fill="none" stroke="midnightblue" d="M2157.85,-425.374C2166.97,-401.29 2185.53,-352.313 2195.61,-325.7"/>
<polygon fill="midnightblue" stroke="midnightblue" points="2198.97,-326.689 2199.24,-316.097 2192.43,-324.209 2198.97,-326.689"/>
</g>
<!-- Node50&#45;&gt;Node38 -->
<g id="edge143" class="edge"><title>Node50&#45;&gt;Node38</title>
<path fill="none" stroke="midnightblue" d="M2209.89,-425.476C2251.26,-415.366 2307.26,-401.684 2350.81,-391.04"/>
<polygon fill="midnightblue" stroke="midnightblue" points="2351.87,-394.385 2360.75,-388.611 2350.21,-387.585 2351.87,-394.385"/>
</g>
<!-- Node50&#45;&gt;Node43 -->
<g id="edge145" class="edge"><title>Node50&#45;&gt;Node43</title>
<path fill="none" stroke="midnightblue" d="M2216.69,-434.72C2375.98,-422.86 2788.47,-392.149 2954.61,-379.778"/>
<polygon fill="midnightblue" stroke="midnightblue" points="2955,-383.259 2964.72,-379.026 2954.48,-376.278 2955,-383.259"/>
</g>
</g>
</svg>
