<?xml version="1.0" encoding="UTF-8" standalone="no"?>
<!DOCTYPE svg PUBLIC "-//W3C//DTD SVG 1.1//EN"
 "http://www.w3.org/Graphics/SVG/1.1/DTD/svg11.dtd">
<!-- Generated by graphviz version 2.38.0 (20140413.2041)
 -->
<!-- Title: core/container/fixed_size_vector.h Pages: 1 -->
<svg width="1070pt" height="274pt"
 viewBox="0.00 0.00 1069.50 274.00" xmlns="http://www.w3.org/2000/svg" xmlns:xlink="http://www.w3.org/1999/xlink">
<g id="graph0" class="graph" transform="scale(1 1) rotate(0) translate(4 270)">
<title>core/container/fixed_size_vector.h</title>
<polygon fill="white" stroke="none" points="-4,4 -4,-270 1065.5,-270 1065.5,4 -4,4"/>
<!-- Node1 -->
<g id="node1" class="node"><title>Node1</title>
<polygon fill="#bfbfbf" stroke="black" points="408,-235.5 408,-265.5 519,-265.5 519,-235.5 408,-235.5"/>
<text text-anchor="start" x="416" y="-253.5" font-family="Helvetica,sans-Serif" font-size="10.00">core/container/fixed</text>
<text text-anchor="middle" x="463.5" y="-242.5" font-family="Helvetica,sans-Serif" font-size="10.00">_size_vector.h</text>
</g>
<!-- Node2 -->
<g id="node2" class="node"><title>Node2</title>
<g id="a_node2"><a xlink:href="grid_8h.html" target="_top" xlink:title="core/grid.h">
<polygon fill="white" stroke="black" points="429.5,-179.5 429.5,-198.5 497.5,-198.5 497.5,-179.5 429.5,-179.5"/>
<text text-anchor="middle" x="463.5" y="-186.5" font-family="Helvetica,sans-Serif" font-size="10.00">core/grid.h</text>
</a>
</g>
</g>
<!-- Node1&#45;&gt;Node2 -->
<g id="edge1" class="edge"><title>Node1&#45;&gt;Node2</title>
<path fill="none" stroke="midnightblue" d="M463.5,-225.289C463.5,-215.857 463.5,-205.655 463.5,-198.658"/>
<polygon fill="midnightblue" stroke="midnightblue" points="460,-225.399 463.5,-235.399 467,-225.399 460,-225.399"/>
</g>
<!-- Node3 -->
<g id="node3" class="node"><title>Node3</title>
<g id="a_node3"><a xlink:href="biodynamo_8h.html" target="_top" xlink:title="biodynamo.h">
<polygon fill="white" stroke="black" points="-7.10543e-15,-118 -7.10543e-15,-137 79,-137 79,-118 -7.10543e-15,-118"/>
<text text-anchor="middle" x="39.5" y="-125" font-family="Helvetica,sans-Serif" font-size="10.00">biodynamo.h</text>
</a>
</g>
</g>
<!-- Node2&#45;&gt;Node3 -->
<g id="edge2" class="edge"><title>Node2&#45;&gt;Node3</title>
<path fill="none" stroke="midnightblue" d="M419.022,-185.096C348.403,-179.942 206.54,-167.367 88.5,-143 80.9411,-141.44 72.8607,-139.265 65.4862,-137.074"/>
<polygon fill="midnightblue" stroke="midnightblue" points="419.097,-188.61 429.321,-185.832 419.596,-181.628 419.097,-188.61"/>
</g>
<!-- Node4 -->
<g id="node4" class="node"><title>Node4</title>
<g id="a_node4"><a xlink:href="in__place__exec__ctxt_8cc.html" target="_top" xlink:title="core/execution_context\l/in_place_exec_ctxt.cc">
<polygon fill="white" stroke="black" points="97.5,-112.5 97.5,-142.5 225.5,-142.5 225.5,-112.5 97.5,-112.5"/>
<text text-anchor="start" x="105.5" y="-130.5" font-family="Helvetica,sans-Serif" font-size="10.00">core/execution_context</text>
<text text-anchor="middle" x="161.5" y="-119.5" font-family="Helvetica,sans-Serif" font-size="10.00">/in_place_exec_ctxt.cc</text>
</a>
</g>
</g>
<!-- Node2&#45;&gt;Node4 -->
<g id="edge3" class="edge"><title>Node2&#45;&gt;Node4</title>
<path fill="none" stroke="midnightblue" d="M419.4,-179.311C368.408,-169.265 284.029,-152.641 225.746,-141.158"/>
<polygon fill="midnightblue" stroke="midnightblue" points="418.956,-182.791 429.444,-181.29 420.309,-175.923 418.956,-182.791"/>
</g>
<!-- Node5 -->
<g id="node5" class="node"><title>Node5</title>
<g id="a_node5"><a xlink:href="diffusion__op_8h.html" target="_top" xlink:title="core/operation/diffusion_op.h">
<polygon fill="white" stroke="black" points="176,-56.5 176,-75.5 331,-75.5 331,-56.5 176,-56.5"/>
<text text-anchor="middle" x="253.5" y="-63.5" font-family="Helvetica,sans-Serif" font-size="10.00">core/operation/diffusion_op.h</text>
</a>
</g>
</g>
<!-- Node2&#45;&gt;Node5 -->
<g id="edge4" class="edge"><title>Node2&#45;&gt;Node5</title>
<path fill="none" stroke="midnightblue" d="M418.986,-182.888C369.227,-176.277 292.935,-163.159 272.5,-143 254.007,-124.757 252.533,-91.43 252.976,-75.6824"/>
<polygon fill="midnightblue" stroke="midnightblue" points="418.806,-186.394 429.172,-184.201 419.701,-179.452 418.806,-186.394"/>
</g>
<!-- Node7 -->
<g id="node7" class="node"><title>Node7</title>
<g id="a_node7"><a xlink:href="displacement__op__cpu_8h.html" target="_top" xlink:title="core/operation/displacement\l_op_cpu.h">
<polygon fill="white" stroke="black" points="281.5,-112.5 281.5,-142.5 435.5,-142.5 435.5,-112.5 281.5,-112.5"/>
<text text-anchor="start" x="289.5" y="-130.5" font-family="Helvetica,sans-Serif" font-size="10.00">core/operation/displacement</text>
<text text-anchor="middle" x="358.5" y="-119.5" font-family="Helvetica,sans-Serif" font-size="10.00">_op_cpu.h</text>
</a>
</g>
</g>
<!-- Node2&#45;&gt;Node7 -->
<g id="edge6" class="edge"><title>Node2&#45;&gt;Node7</title>
<path fill="none" stroke="midnightblue" d="M439.751,-174.542C422.895,-164.991 400.322,-152.199 383.246,-142.523"/>
<polygon fill="midnightblue" stroke="midnightblue" points="438.03,-177.59 448.456,-179.475 441.481,-171.5 438.03,-177.59"/>
</g>
<!-- Node8 -->
<g id="node8" class="node"><title>Node8</title>
<g id="a_node8"><a xlink:href="displacement__op_8h.html" target="_top" xlink:title="core/operation/displacement_op.h">
<polygon fill="white" stroke="black" points="349.5,-56.5 349.5,-75.5 529.5,-75.5 529.5,-56.5 349.5,-56.5"/>
<text text-anchor="middle" x="439.5" y="-63.5" font-family="Helvetica,sans-Serif" font-size="10.00">core/operation/displacement_op.h</text>
</a>
</g>
</g>
<!-- Node2&#45;&gt;Node8 -->
<g id="edge9" class="edge"><title>Node2&#45;&gt;Node8</title>
<path fill="none" stroke="midnightblue" d="M459.8,-169.345C454.529,-142.771 445.07,-95.0819 441.21,-75.6232"/>
<polygon fill="midnightblue" stroke="midnightblue" points="456.395,-170.17 461.774,-179.298 463.261,-168.808 456.395,-170.17"/>
</g>
<!-- Node9 -->
<g id="node9" class="node"><title>Node9</title>
<g id="a_node9"><a xlink:href="displacement__op__cuda_8h.html" target="_top" xlink:title="core/operation/displacement\l_op_cuda.h">
<polygon fill="white" stroke="black" points="491.5,-112.5 491.5,-142.5 645.5,-142.5 645.5,-112.5 491.5,-112.5"/>
<text text-anchor="start" x="499.5" y="-130.5" font-family="Helvetica,sans-Serif" font-size="10.00">core/operation/displacement</text>
<text text-anchor="middle" x="568.5" y="-119.5" font-family="Helvetica,sans-Serif" font-size="10.00">_op_cuda.h</text>
</a>
</g>
</g>
<!-- Node2&#45;&gt;Node9 -->
<g id="edge10" class="edge"><title>Node2&#45;&gt;Node9</title>
<path fill="none" stroke="midnightblue" d="M487.249,-174.542C504.105,-164.991 526.678,-152.199 543.754,-142.523"/>
<polygon fill="midnightblue" stroke="midnightblue" points="485.519,-171.5 478.544,-179.475 488.97,-177.59 485.519,-171.5"/>
</g>
<!-- Node10 -->
<g id="node10" class="node"><title>Node10</title>
<g id="a_node10"><a xlink:href="resource__manager_8cc.html" target="_top" xlink:title="core/resource_manager.cc">
<polygon fill="white" stroke="black" points="663.5,-118 663.5,-137 807.5,-137 807.5,-118 663.5,-118"/>
<text text-anchor="middle" x="735.5" y="-125" font-family="Helvetica,sans-Serif" font-size="10.00">core/resource_manager.cc</text>
</a>
</g>
</g>
<!-- Node2&#45;&gt;Node10 -->
<g id="edge11" class="edge"><title>Node2&#45;&gt;Node10</title>
<path fill="none" stroke="midnightblue" d="M507.667,-178.339C560.008,-166.889 646.406,-147.989 696.415,-137.05"/>
<polygon fill="midnightblue" stroke="midnightblue" points="506.695,-174.968 497.674,-180.525 508.191,-181.807 506.695,-174.968"/>
</g>
<!-- Node11 -->
<g id="node11" class="node"><title>Node11</title>
<g id="a_node11"><a xlink:href="sim__object_8cc.html" target="_top" xlink:title="core/sim_object/sim\l_object.cc">
<polygon fill="white" stroke="black" points="826,-112.5 826,-142.5 939,-142.5 939,-112.5 826,-112.5"/>
<text text-anchor="start" x="834" y="-130.5" font-family="Helvetica,sans-Serif" font-size="10.00">core/sim_object/sim</text>
<text text-anchor="middle" x="882.5" y="-119.5" font-family="Helvetica,sans-Serif" font-size="10.00">_object.cc</text>
</a>
</g>
</g>
<!-- Node2&#45;&gt;Node11 -->
<g id="edge12" class="edge"><title>Node2&#45;&gt;Node11</title>
<path fill="none" stroke="midnightblue" d="M507.936,-183.625C575.043,-176.727 706.135,-162.119 816.5,-143 819.505,-142.479 822.581,-141.915 825.682,-141.321"/>
<polygon fill="midnightblue" stroke="midnightblue" points="507.322,-180.169 497.728,-184.665 508.032,-187.133 507.322,-180.169"/>
</g>
<!-- Node12 -->
<g id="node12" class="node"><title>Node12</title>
<g id="a_node12"><a xlink:href="simulation_8cc.html" target="_top" xlink:title="core/simulation.cc">
<polygon fill="white" stroke="black" points="957.5,-118 957.5,-137 1061.5,-137 1061.5,-118 957.5,-118"/>
<text text-anchor="middle" x="1009.5" y="-125" font-family="Helvetica,sans-Serif" font-size="10.00">core/simulation.cc</text>
</a>
</g>
</g>
<!-- Node2&#45;&gt;Node12 -->
<g id="edge13" class="edge"><title>Node2&#45;&gt;Node12</title>
<path fill="none" stroke="midnightblue" d="M507.646,-185.989C593.188,-181.632 787.295,-169.503 948.5,-143 957.952,-141.446 968.114,-139.247 977.381,-137.03"/>
<polygon fill="midnightblue" stroke="midnightblue" points="507.332,-182.5 497.519,-186.494 507.681,-189.491 507.332,-182.5"/>
</g>
<!-- Node6 -->
<g id="node6" class="node"><title>Node6</title>
<g id="a_node6"><a xlink:href="scheduler_8cc.html" target="_top" xlink:title="core/scheduler.cc">
<polygon fill="white" stroke="black" points="296.5,-0.5 296.5,-19.5 396.5,-19.5 396.5,-0.5 296.5,-0.5"/>
<text text-anchor="middle" x="346.5" y="-7.5" font-family="Helvetica,sans-Serif" font-size="10.00">core/scheduler.cc</text>
</a>
</g>
</g>
<!-- Node5&#45;&gt;Node6 -->
<g id="edge5" class="edge"><title>Node5&#45;&gt;Node6</title>
<path fill="none" stroke="midnightblue" d="M277.306,-51.1774C294.419,-41.2407 316.965,-28.1492 331.595,-19.6545"/>
<polygon fill="midnightblue" stroke="midnightblue" points="275.332,-48.2758 268.442,-56.324 278.847,-54.3293 275.332,-48.2758"/>
</g>
<!-- Node7&#45;&gt;Node8 -->
<g id="edge7" class="edge"><title>Node7&#45;&gt;Node8</title>
<path fill="none" stroke="midnightblue" d="M386.151,-106.189C400.332,-95.7719 416.857,-83.6329 427.714,-75.6578"/>
<polygon fill="midnightblue" stroke="midnightblue" points="383.683,-103.658 377.696,-112.399 387.827,-109.3 383.683,-103.658"/>
</g>
<!-- Node8&#45;&gt;Node6 -->
<g id="edge8" class="edge"><title>Node8&#45;&gt;Node6</title>
<path fill="none" stroke="midnightblue" d="M415.694,-51.1774C398.581,-41.2407 376.035,-28.1492 361.405,-19.6545"/>
<polygon fill="midnightblue" stroke="midnightblue" points="414.153,-54.3293 424.558,-56.324 417.668,-48.2758 414.153,-54.3293"/>
</g>
</g>
</svg>
