<?xml version="1.0" encoding="UTF-8" standalone="no"?>
<!DOCTYPE svg PUBLIC "-//W3C//DTD SVG 1.1//EN"
 "http://www.w3.org/Graphics/SVG/1.1/DTD/svg11.dtd">
<!-- Generated by graphviz version 2.38.0 (20140413.2041)
 -->
<!-- Title: core/visualization/paraview/helper.h Pages: 1 -->
<svg width="456pt" height="240pt"
 viewBox="0.00 0.00 455.50 240.00" xmlns="http://www.w3.org/2000/svg" xmlns:xlink="http://www.w3.org/1999/xlink">
<g id="graph0" class="graph" transform="scale(1 1) rotate(0) translate(4 236)">
<title>core/visualization/paraview/helper.h</title>
<polygon fill="white" stroke="none" points="-4,4 -4,-236 451.5,-236 451.5,4 -4,4"/>
<!-- Node1 -->
<g id="node1" class="node"><title>Node1</title>
<polygon fill="#bfbfbf" stroke="black" points="207.5,-201.5 207.5,-231.5 310.5,-231.5 310.5,-201.5 207.5,-201.5"/>
<text text-anchor="start" x="215.5" y="-219.5" font-family="Helvetica,sans-Serif" font-size="10.00">core/visualization</text>
<text text-anchor="middle" x="259" y="-208.5" font-family="Helvetica,sans-Serif" font-size="10.00">/paraview/helper.h</text>
</g>
<!-- Node2 -->
<g id="node2" class="node"><title>Node2</title>
<g id="a_node2"><a xlink:href="visualization_2paraview_2so__visitor_8h.html" target="_top" xlink:title="core/visualization\l/paraview/so_visitor.h">
<polygon fill="white" stroke="black" points="94,-134.5 94,-164.5 212,-164.5 212,-134.5 94,-134.5"/>
<text text-anchor="start" x="102" y="-152.5" font-family="Helvetica,sans-Serif" font-size="10.00">core/visualization</text>
<text text-anchor="middle" x="153" y="-141.5" font-family="Helvetica,sans-Serif" font-size="10.00">/paraview/so_visitor.h</text>
</a>
</g>
</g>
<!-- Node1&#45;&gt;Node2 -->
<g id="edge1" class="edge"><title>Node1&#45;&gt;Node2</title>
<path fill="none" stroke="midnightblue" d="M227.225,-196.015C210.729,-185.9 190.948,-173.77 175.956,-164.577"/>
<polygon fill="midnightblue" stroke="midnightblue" points="225.645,-199.152 236,-201.396 229.304,-193.185 225.645,-199.152"/>
</g>
<!-- Node4 -->
<g id="node4" class="node"><title>Node4</title>
<g id="a_node4"><a xlink:href="adaptor_8cc.html" target="_top" xlink:title="core/visualization\l/paraview/adaptor.cc">
<polygon fill="white" stroke="black" points="220.5,-0.5 220.5,-30.5 335.5,-30.5 335.5,-0.5 220.5,-0.5"/>
<text text-anchor="start" x="228.5" y="-18.5" font-family="Helvetica,sans-Serif" font-size="10.00">core/visualization</text>
<text text-anchor="middle" x="278" y="-7.5" font-family="Helvetica,sans-Serif" font-size="10.00">/paraview/adaptor.cc</text>
</a>
</g>
</g>
<!-- Node1&#45;&gt;Node4 -->
<g id="edge5" class="edge"><title>Node1&#45;&gt;Node4</title>
<path fill="none" stroke="midnightblue" d="M261.339,-190.998C265.356,-148.93 273.44,-64.2558 276.646,-30.6819"/>
<polygon fill="midnightblue" stroke="midnightblue" points="257.833,-190.901 260.366,-201.188 264.801,-191.566 257.833,-190.901"/>
</g>
<!-- Node5 -->
<g id="node5" class="node"><title>Node5</title>
<g id="a_node5"><a xlink:href="so__visitor_8cc.html" target="_top" xlink:title="core/visualization\l/paraview/so_visitor.cc">
<polygon fill="white" stroke="black" points="128,-67.5 128,-97.5 250,-97.5 250,-67.5 128,-67.5"/>
<text text-anchor="start" x="136" y="-85.5" font-family="Helvetica,sans-Serif" font-size="10.00">core/visualization</text>
<text text-anchor="middle" x="189" y="-74.5" font-family="Helvetica,sans-Serif" font-size="10.00">/paraview/so_visitor.cc</text>
</a>
</g>
</g>
<!-- Node1&#45;&gt;Node5 -->
<g id="edge8" class="edge"><title>Node1&#45;&gt;Node5</title>
<path fill="none" stroke="midnightblue" d="M248.989,-191.964C241.741,-175.47 231.423,-153.055 221,-134 214.126,-121.434 205.364,-107.741 198.747,-97.7874"/>
<polygon fill="midnightblue" stroke="midnightblue" points="245.886,-193.607 253.078,-201.387 252.307,-190.82 245.886,-193.607"/>
</g>
<!-- Node6 -->
<g id="node6" class="node"><title>Node6</title>
<g id="a_node6"><a xlink:href="insitu__pipeline_8h.html" target="_top" xlink:title="core/visualization\l/paraview/insitu_pipeline.h">
<polygon fill="white" stroke="black" points="306.5,-134.5 306.5,-164.5 447.5,-164.5 447.5,-134.5 306.5,-134.5"/>
<text text-anchor="start" x="314.5" y="-152.5" font-family="Helvetica,sans-Serif" font-size="10.00">core/visualization</text>
<text text-anchor="middle" x="377" y="-141.5" font-family="Helvetica,sans-Serif" font-size="10.00">/paraview/insitu_pipeline.h</text>
</a>
</g>
</g>
<!-- Node1&#45;&gt;Node6 -->
<g id="edge6" class="edge"><title>Node1&#45;&gt;Node6</title>
<path fill="none" stroke="midnightblue" d="M293.61,-196.435C312.123,-186.237 334.525,-173.897 351.446,-164.577"/>
<polygon fill="midnightblue" stroke="midnightblue" points="291.675,-193.505 284.604,-201.396 295.052,-199.637 291.675,-193.505"/>
</g>
<!-- Node3 -->
<g id="node3" class="node"><title>Node3</title>
<g id="a_node3"><a xlink:href="paraview_2adaptor_8h.html" target="_top" xlink:title="core/visualization\l/paraview/adaptor.h">
<polygon fill="white" stroke="black" points="0,-67.5 0,-97.5 110,-97.5 110,-67.5 0,-67.5"/>
<text text-anchor="start" x="8" y="-85.5" font-family="Helvetica,sans-Serif" font-size="10.00">core/visualization</text>
<text text-anchor="middle" x="55" y="-74.5" font-family="Helvetica,sans-Serif" font-size="10.00">/paraview/adaptor.h</text>
</a>
</g>
</g>
<!-- Node2&#45;&gt;Node3 -->
<g id="edge2" class="edge"><title>Node2&#45;&gt;Node3</title>
<path fill="none" stroke="midnightblue" d="M123.198,-128.734C108.034,-118.676 89.9553,-106.685 76.223,-97.5765"/>
<polygon fill="midnightblue" stroke="midnightblue" points="121.467,-131.785 131.735,-134.396 125.336,-125.952 121.467,-131.785"/>
</g>
<!-- Node2&#45;&gt;Node5 -->
<g id="edge4" class="edge"><title>Node2&#45;&gt;Node5</title>
<path fill="none" stroke="midnightblue" d="M165.697,-125.576C170.867,-116.241 176.678,-105.748 181.204,-97.5765"/>
<polygon fill="midnightblue" stroke="midnightblue" points="162.595,-123.952 160.811,-134.396 168.718,-127.344 162.595,-123.952"/>
</g>
<!-- Node3&#45;&gt;Node4 -->
<g id="edge3" class="edge"><title>Node3&#45;&gt;Node4</title>
<path fill="none" stroke="midnightblue" d="M113.049,-64.5797C149.269,-54.0225 195.345,-40.5921 229.589,-30.6109"/>
<polygon fill="midnightblue" stroke="midnightblue" points="111.734,-61.3174 103.113,-67.476 113.693,-68.0377 111.734,-61.3174"/>
</g>
<!-- Node6&#45;&gt;Node4 -->
<g id="edge7" class="edge"><title>Node6&#45;&gt;Node4</title>
<path fill="none" stroke="midnightblue" d="M360.267,-126.189C339.769,-98.8592 305.662,-53.3831 288.519,-30.5247"/>
<polygon fill="midnightblue" stroke="midnightblue" points="357.605,-128.474 366.405,-134.374 363.205,-124.274 357.605,-128.474"/>
</g>
</g>
</svg>
