<?xml version="1.0" encoding="UTF-8" standalone="no"?>
<!DOCTYPE svg PUBLIC "-//W3C//DTD SVG 1.1//EN"
 "http://www.w3.org/Graphics/SVG/1.1/DTD/svg11.dtd">
<!-- Generated by graphviz version 2.38.0 (20140413.2041)
 -->
<!-- Title: core/execution_context/in_place_exec_ctxt.cc Pages: 1 -->
<svg width="3755pt" height="598pt"
 viewBox="0.00 0.00 3755.16 598.00" xmlns="http://www.w3.org/2000/svg" xmlns:xlink="http://www.w3.org/1999/xlink">
<g id="graph0" class="graph" transform="scale(1 1) rotate(0) translate(4 594)">
<title>core/execution_context/in_place_exec_ctxt.cc</title>
<polygon fill="white" stroke="none" points="-4,4 -4,-594 3751.16,-594 3751.16,4 -4,4"/>
<!-- Node1 -->
<g id="node1" class="node"><title>Node1</title>
<polygon fill="#bfbfbf" stroke="black" points="1491.16,-559.5 1491.16,-589.5 1619.16,-589.5 1619.16,-559.5 1491.16,-559.5"/>
<text text-anchor="start" x="1499.16" y="-577.5" font-family="Helvetica,sans-Serif" font-size="10.00">core/execution_context</text>
<text text-anchor="middle" x="1555.16" y="-566.5" font-family="Helvetica,sans-Serif" font-size="10.00">/in_place_exec_ctxt.cc</text>
</g>
<!-- Node2 -->
<g id="node2" class="node"><title>Node2</title>
<g id="a_node2"><a xlink:href="in__place__exec__ctxt_8h.html" target="_top" xlink:title="core/execution_context\l/in_place_exec_ctxt.h">
<polygon fill="white" stroke="black" points="608.156,-302.5 608.156,-332.5 736.156,-332.5 736.156,-302.5 608.156,-302.5"/>
<text text-anchor="start" x="616.156" y="-320.5" font-family="Helvetica,sans-Serif" font-size="10.00">core/execution_context</text>
<text text-anchor="middle" x="672.156" y="-309.5" font-family="Helvetica,sans-Serif" font-size="10.00">/in_place_exec_ctxt.h</text>
</a>
</g>
</g>
<!-- Node1&#45;&gt;Node2 -->
<g id="edge1" class="edge"><title>Node1&#45;&gt;Node2</title>
<path fill="none" stroke="midnightblue" d="M1491.06,-573.399C1367.21,-571.091 1088.43,-555.534 875.156,-467 800.918,-436.183 728.483,-372.904 693.642,-339.78"/>
<polygon fill="midnightblue" stroke="midnightblue" points="696.03,-337.221 686.398,-332.809 691.177,-342.265 696.03,-337.221"/>
</g>
<!-- Node22 -->
<g id="node22" class="node"><title>Node22</title>
<polygon fill="white" stroke="#bfbfbf" points="3043.16,-174 3043.16,-193 3105.16,-193 3105.16,-174 3043.16,-174"/>
<text text-anchor="middle" x="3074.16" y="-181" font-family="Helvetica,sans-Serif" font-size="10.00">algorithm</text>
</g>
<!-- Node1&#45;&gt;Node22 -->
<g id="edge31" class="edge"><title>Node1&#45;&gt;Node22</title>
<path fill="none" stroke="midnightblue" d="M1619.56,-573.802C1889.46,-574.4 2929.69,-569.856 3238.16,-467 3298.4,-446.91 3371.52,-425.312 3342.16,-369 3315.5,-317.893 3161.02,-231.017 3099.46,-197.881"/>
<polygon fill="midnightblue" stroke="midnightblue" points="3100.88,-194.671 3090.42,-193.038 3097.58,-200.843 3100.88,-194.671"/>
</g>
<!-- Node23 -->
<g id="node23" class="node"><title>Node23</title>
<polygon fill="white" stroke="#bfbfbf" points="55.6555,-241 55.6555,-260 102.656,-260 102.656,-241 55.6555,-241"/>
<text text-anchor="middle" x="79.1555" y="-248" font-family="Helvetica,sans-Serif" font-size="10.00">mutex</text>
</g>
<!-- Node1&#45;&gt;Node23 -->
<g id="edge32" class="edge"><title>Node1&#45;&gt;Node23</title>
<path fill="none" stroke="midnightblue" d="M1491,-572.346C1369.24,-569.367 1096.58,-558.913 870.156,-523 520.742,-467.578 344.341,-586.102 97.1555,-333 80.974,-316.431 77.9815,-288.784 78.0168,-270.349"/>
<polygon fill="midnightblue" stroke="midnightblue" points="81.5185,-270.35 78.3392,-260.243 74.522,-270.126 81.5185,-270.35"/>
</g>
<!-- Node24 -->
<g id="node24" class="node"><title>Node24</title>
<g id="a_node24"><a xlink:href="grid_8h.html" target="_top" xlink:title="core/grid.h">
<polygon fill="white" stroke="black" points="2261.16,-503.5 2261.16,-522.5 2329.16,-522.5 2329.16,-503.5 2261.16,-503.5"/>
<text text-anchor="middle" x="2295.16" y="-510.5" font-family="Helvetica,sans-Serif" font-size="10.00">core/grid.h</text>
</a>
</g>
</g>
<!-- Node1&#45;&gt;Node24 -->
<g id="edge33" class="edge"><title>Node1&#45;&gt;Node24</title>
<path fill="none" stroke="midnightblue" d="M1619.21,-568.35C1766.4,-556.515 2125.71,-527.624 2251.11,-517.542"/>
<polygon fill="midnightblue" stroke="midnightblue" points="2251.43,-521.027 2261.12,-516.737 2250.87,-514.05 2251.43,-521.027"/>
</g>
<!-- Node37 -->
<g id="node37" class="node"><title>Node37</title>
<g id="a_node37"><a xlink:href="resource__manager_8h.html" target="_top" xlink:title="core/resource_manager.h">
<polygon fill="white" stroke="black" points="1485.16,-375 1485.16,-394 1625.16,-394 1625.16,-375 1485.16,-375"/>
<text text-anchor="middle" x="1555.16" y="-382" font-family="Helvetica,sans-Serif" font-size="10.00">core/resource_manager.h</text>
</a>
</g>
</g>
<!-- Node1&#45;&gt;Node37 -->
<g id="edge159" class="edge"><title>Node1&#45;&gt;Node37</title>
<path fill="none" stroke="midnightblue" d="M1555.16,-559.369C1555.16,-525.938 1555.16,-441.974 1555.16,-404.304"/>
<polygon fill="midnightblue" stroke="midnightblue" points="1558.66,-404.206 1555.16,-394.206 1551.66,-404.206 1558.66,-404.206"/>
</g>
<!-- Node45 -->
<g id="node45" class="node"><title>Node45</title>
<g id="a_node45"><a xlink:href="sim__object_8h.html" target="_top" xlink:title="core/sim_object/sim\l_object.h">
<polygon fill="white" stroke="red" points="2619.66,-302.5 2619.66,-332.5 2732.66,-332.5 2732.66,-302.5 2619.66,-302.5"/>
<text text-anchor="start" x="2627.66" y="-320.5" font-family="Helvetica,sans-Serif" font-size="10.00">core/sim_object/sim</text>
<text text-anchor="middle" x="2676.16" y="-309.5" font-family="Helvetica,sans-Serif" font-size="10.00">_object.h</text>
</a>
</g>
</g>
<!-- Node1&#45;&gt;Node45 -->
<g id="edge161" class="edge"><title>Node1&#45;&gt;Node45</title>
<path fill="none" stroke="midnightblue" d="M1619.41,-572.447C1753.55,-569.571 2072.94,-559.178 2338.16,-523 2458.29,-506.612 2509.8,-541.892 2605.16,-467 2645.31,-435.464 2664,-375.616 2671.62,-342.335"/>
<polygon fill="midnightblue" stroke="midnightblue" points="2675.05,-343.043 2673.73,-332.532 2668.21,-341.576 2675.05,-343.043"/>
</g>
<!-- Node48 -->
<g id="node48" class="node"><title>Node48</title>
<g id="a_node48"><a xlink:href="scheduler_8h.html" target="_top" xlink:title="core/scheduler.h">
<polygon fill="white" stroke="black" points="689.656,-241 689.656,-260 784.656,-260 784.656,-241 689.656,-241"/>
<text text-anchor="middle" x="737.156" y="-248" font-family="Helvetica,sans-Serif" font-size="10.00">core/scheduler.h</text>
</a>
</g>
</g>
<!-- Node1&#45;&gt;Node48 -->
<g id="edge160" class="edge"><title>Node1&#45;&gt;Node48</title>
<path fill="none" stroke="midnightblue" d="M1490.92,-572.867C1383.74,-570.702 1162.12,-561.485 979.156,-523 794.376,-484.132 690.795,-498.096 599.156,-333 592.469,-320.954 591.263,-313.293 599.156,-302 617.262,-276.093 650.165,-263.434 679.301,-257.268"/>
<polygon fill="midnightblue" stroke="midnightblue" points="680.248,-260.65 689.42,-255.346 678.942,-253.773 680.248,-260.65"/>
</g>
<!-- Node3 -->
<g id="node3" class="node"><title>Node3</title>
<polygon fill="white" stroke="#bfbfbf" points="841.656,-112.5 841.656,-131.5 904.656,-131.5 904.656,-112.5 841.656,-112.5"/>
<text text-anchor="middle" x="873.156" y="-119.5" font-family="Helvetica,sans-Serif" font-size="10.00">functional</text>
</g>
<!-- Node2&#45;&gt;Node3 -->
<g id="edge2" class="edge"><title>Node2&#45;&gt;Node3</title>
<path fill="none" stroke="midnightblue" d="M608.09,-305.959C553.308,-294.189 487.77,-271.793 518.156,-235 572.05,-169.74 624.489,-224.618 705.156,-199 757.968,-182.228 816.168,-153.391 848.325,-136.473"/>
<polygon fill="midnightblue" stroke="midnightblue" points="850.247,-139.415 857.434,-131.631 846.961,-133.234 850.247,-139.415"/>
</g>
<!-- Node4 -->
<g id="node4" class="node"><title>Node4</title>
<polygon fill="white" stroke="#bfbfbf" points="2163.66,-174 2163.66,-193 2220.66,-193 2220.66,-174 2163.66,-174"/>
<text text-anchor="middle" x="2192.16" y="-181" font-family="Helvetica,sans-Serif" font-size="10.00">memory</text>
</g>
<!-- Node2&#45;&gt;Node4 -->
<g id="edge3" class="edge"><title>Node2&#45;&gt;Node4</title>
<path fill="none" stroke="midnightblue" d="M736.462,-314.039C942.41,-306.045 1577.57,-280.494 1669.16,-266 1721.44,-257.725 1732.21,-245.165 1784.16,-235 1918.35,-208.743 2080.19,-193.503 2153.14,-187.496"/>
<polygon fill="midnightblue" stroke="midnightblue" points="2153.56,-190.974 2163.25,-186.677 2153,-183.996 2153.56,-190.974"/>
</g>
<!-- Node5 -->
<g id="node5" class="node"><title>Node5</title>
<polygon fill="white" stroke="#bfbfbf" points="2621.16,-174 2621.16,-193 2663.16,-193 2663.16,-174 2621.16,-174"/>
<text text-anchor="middle" x="2642.16" y="-181" font-family="Helvetica,sans-Serif" font-size="10.00">utility</text>
</g>
<!-- Node2&#45;&gt;Node5 -->
<g id="edge4" class="edge"><title>Node2&#45;&gt;Node5</title>
<path fill="none" stroke="midnightblue" d="M736.417,-314.052C817.134,-311.018 959.885,-305.785 1082.16,-302 1157.48,-299.668 2368.46,-294.675 2438.16,-266 2456.76,-258.343 2453.7,-245.01 2471.16,-235 2515.93,-209.323 2574.93,-195.67 2610.62,-189.271"/>
<polygon fill="midnightblue" stroke="midnightblue" points="2611.64,-192.648 2620.91,-187.513 2610.46,-185.748 2611.64,-192.648"/>
</g>
<!-- Node6 -->
<g id="node6" class="node"><title>Node6</title>
<polygon fill="white" stroke="#bfbfbf" points="1231.66,-174 1231.66,-193 1278.66,-193 1278.66,-174 1231.66,-174"/>
<text text-anchor="middle" x="1255.16" y="-181" font-family="Helvetica,sans-Serif" font-size="10.00">vector</text>
</g>
<!-- Node2&#45;&gt;Node6 -->
<g id="edge5" class="edge"><title>Node2&#45;&gt;Node6</title>
<path fill="none" stroke="midnightblue" d="M711.858,-302.449C735.979,-293.302 767.052,-280.416 793.156,-266 814.096,-254.435 814.827,-243.584 837.156,-235 907.402,-207.996 1135.08,-191.761 1221.48,-186.442"/>
<polygon fill="midnightblue" stroke="midnightblue" points="1221.76,-189.931 1231.53,-185.833 1221.34,-182.944 1221.76,-189.931"/>
</g>
<!-- Node7 -->
<g id="node7" class="node"><title>Node7</title>
<g id="a_node7"><a xlink:href="so__uid__map_8h.html" target="_top" xlink:title="core/container/so_uid\l_map.h">
<polygon fill="white" stroke="black" points="1069.66,-235.5 1069.66,-265.5 1188.66,-265.5 1188.66,-235.5 1069.66,-235.5"/>
<text text-anchor="start" x="1077.66" y="-253.5" font-family="Helvetica,sans-Serif" font-size="10.00">core/container/so_uid</text>
<text text-anchor="middle" x="1129.16" y="-242.5" font-family="Helvetica,sans-Serif" font-size="10.00">_map.h</text>
</a>
</g>
</g>
<!-- Node2&#45;&gt;Node7 -->
<g id="edge6" class="edge"><title>Node2&#45;&gt;Node7</title>
<path fill="none" stroke="midnightblue" d="M736.181,-307.394C821.365,-295.278 971.425,-273.934 1059.41,-261.421"/>
<polygon fill="midnightblue" stroke="midnightblue" points="1060.15,-264.85 1069.56,-259.977 1059.16,-257.92 1060.15,-264.85"/>
</g>
<!-- Node9 -->
<g id="node9" class="node"><title>Node9</title>
<g id="a_node9"><a xlink:href="so__uid_8h.html" target="_top" xlink:title="core/sim_object/so\l_uid.h">
<polygon fill="white" stroke="black" points="1350.66,-168.5 1350.66,-198.5 1457.66,-198.5 1457.66,-168.5 1350.66,-168.5"/>
<text text-anchor="start" x="1358.66" y="-186.5" font-family="Helvetica,sans-Serif" font-size="10.00">core/sim_object/so</text>
<text text-anchor="middle" x="1404.16" y="-175.5" font-family="Helvetica,sans-Serif" font-size="10.00">_uid.h</text>
</a>
</g>
</g>
<!-- Node2&#45;&gt;Node9 -->
<g id="edge21" class="edge"><title>Node2&#45;&gt;Node9</title>
<path fill="none" stroke="midnightblue" d="M733.083,-302.494C809.304,-285.252 943.942,-255.716 1060.16,-235 1157.38,-217.67 1270.83,-201.865 1340.06,-192.714"/>
<polygon fill="midnightblue" stroke="midnightblue" points="1340.91,-196.133 1350.36,-191.358 1339.99,-189.193 1340.91,-196.133"/>
</g>
<!-- Node14 -->
<g id="node14" class="node"><title>Node14</title>
<g id="a_node14"><a xlink:href="functor_8h.html" target="_top" xlink:title="core/functor.h">
<polygon fill="white" stroke="black" points="113.656,-112.5 113.656,-131.5 196.656,-131.5 196.656,-112.5 113.656,-112.5"/>
<text text-anchor="middle" x="155.156" y="-119.5" font-family="Helvetica,sans-Serif" font-size="10.00">core/functor.h</text>
</a>
</g>
</g>
<!-- Node2&#45;&gt;Node14 -->
<g id="edge15" class="edge"><title>Node2&#45;&gt;Node14</title>
<path fill="none" stroke="midnightblue" d="M607.852,-312.806C508.975,-306.411 324.682,-291.463 264.156,-266 220.138,-247.482 207.421,-238.206 180.156,-199 168.042,-181.581 161.484,-157.891 158.164,-141.615"/>
<polygon fill="midnightblue" stroke="midnightblue" points="161.593,-140.909 156.354,-131.7 154.707,-142.166 161.593,-140.909"/>
</g>
<!-- Node15 -->
<g id="node15" class="node"><title>Node15</title>
<g id="a_node15"><a xlink:href="operation_8h.html" target="_top" xlink:title="core/operation/operation.h">
<polygon fill="white" stroke="black" points="519.156,-174 519.156,-193 663.156,-193 663.156,-174 519.156,-174"/>
<text text-anchor="middle" x="591.156" y="-181" font-family="Helvetica,sans-Serif" font-size="10.00">core/operation/operation.h</text>
</a>
</g>
</g>
<!-- Node2&#45;&gt;Node15 -->
<g id="edge16" class="edge"><title>Node2&#45;&gt;Node15</title>
<path fill="none" stroke="midnightblue" d="M607.982,-307.586C560.016,-299.456 500.234,-285.691 485.156,-266 461.736,-235.417 513.214,-210.239 552.333,-196.308"/>
<polygon fill="midnightblue" stroke="midnightblue" points="553.632,-199.563 561.959,-193.013 551.364,-192.941 553.632,-199.563"/>
</g>
<!-- Node16 -->
<g id="node16" class="node"><title>Node16</title>
<g id="a_node16"><a xlink:href="spinlock_8h.html" target="_top" xlink:title="core/util/spinlock.h">
<polygon fill="white" stroke="black" points="527.656,-241 527.656,-260 632.656,-260 632.656,-241 527.656,-241"/>
<text text-anchor="middle" x="580.156" y="-248" font-family="Helvetica,sans-Serif" font-size="10.00">core/util/spinlock.h</text>
</a>
</g>
</g>
<!-- Node2&#45;&gt;Node16 -->
<g id="edge22" class="edge"><title>Node2&#45;&gt;Node16</title>
<path fill="none" stroke="midnightblue" d="M652.193,-302.396C636.908,-291.597 615.903,-276.756 600.519,-265.887"/>
<polygon fill="midnightblue" stroke="midnightblue" points="602.383,-262.919 592.196,-260.007 598.344,-268.636 602.383,-262.919"/>
</g>
<!-- Node18 -->
<g id="node18" class="node"><title>Node18</title>
<g id="a_node18"><a xlink:href="thread__info_8h.html" target="_top" xlink:title="core/util/thread_info.h">
<polygon fill="white" stroke="black" points="273.656,-241 273.656,-260 394.656,-260 394.656,-241 273.656,-241"/>
<text text-anchor="middle" x="334.156" y="-248" font-family="Helvetica,sans-Serif" font-size="10.00">core/util/thread_info.h</text>
</a>
</g>
</g>
<!-- Node2&#45;&gt;Node18 -->
<g id="edge24" class="edge"><title>Node2&#45;&gt;Node18</title>
<path fill="none" stroke="midnightblue" d="M607.785,-304.121C544.231,-291.899 448.132,-273.419 388.362,-261.924"/>
<polygon fill="midnightblue" stroke="midnightblue" points="388.847,-258.454 378.366,-260.002 387.525,-265.328 388.847,-258.454"/>
</g>
<!-- Node7&#45;&gt;Node6 -->
<g id="edge8" class="edge"><title>Node7&#45;&gt;Node6</title>
<path fill="none" stroke="midnightblue" d="M1156.5,-235.396C1178.21,-224.193 1208.36,-208.641 1229.6,-197.685"/>
<polygon fill="midnightblue" stroke="midnightblue" points="1231.38,-200.702 1238.67,-193.007 1228.17,-194.481 1231.38,-200.702"/>
</g>
<!-- Node8 -->
<g id="node8" class="node"><title>Node8</title>
<polygon fill="white" stroke="#bfbfbf" points="1264.16,-112.5 1264.16,-131.5 1306.16,-131.5 1306.16,-112.5 1264.16,-112.5"/>
<text text-anchor="middle" x="1285.16" y="-119.5" font-family="Helvetica,sans-Serif" font-size="10.00">limits</text>
</g>
<!-- Node7&#45;&gt;Node8 -->
<g id="edge7" class="edge"><title>Node7&#45;&gt;Node8</title>
<path fill="none" stroke="midnightblue" d="M1144.22,-235.465C1162.3,-218.83 1193.72,-190.528 1222.16,-168 1235.72,-157.255 1251.58,-145.935 1263.99,-137.337"/>
<polygon fill="midnightblue" stroke="midnightblue" points="1266.07,-140.151 1272.33,-131.605 1262.11,-134.381 1266.07,-140.151"/>
</g>
<!-- Node7&#45;&gt;Node9 -->
<g id="edge9" class="edge"><title>Node7&#45;&gt;Node9</title>
<path fill="none" stroke="midnightblue" d="M1188.49,-235.476C1233.35,-224.871 1294.85,-210.337 1340.69,-199.5"/>
<polygon fill="midnightblue" stroke="midnightblue" points="1341.59,-202.884 1350.52,-197.178 1339.98,-196.072 1341.59,-202.884"/>
</g>
<!-- Node9&#45;&gt;Node8 -->
<g id="edge10" class="edge"><title>Node9&#45;&gt;Node8</title>
<path fill="none" stroke="midnightblue" d="M1375.95,-168.399C1356.43,-158.639 1330.63,-145.737 1311.52,-136.183"/>
<polygon fill="midnightblue" stroke="midnightblue" points="1312.98,-132.999 1302.47,-131.658 1309.85,-139.26 1312.98,-132.999"/>
</g>
<!-- Node10 -->
<g id="node10" class="node"><title>Node10</title>
<g id="a_node10"><a xlink:href="root_8h.html" target="_top" xlink:title="core/util/root.h">
<polygon fill="white" stroke="black" points="1895.16,-112.5 1895.16,-131.5 1981.16,-131.5 1981.16,-112.5 1895.16,-112.5"/>
<text text-anchor="middle" x="1938.16" y="-119.5" font-family="Helvetica,sans-Serif" font-size="10.00">core/util/root.h</text>
</a>
</g>
</g>
<!-- Node9&#45;&gt;Node10 -->
<g id="edge11" class="edge"><title>Node9&#45;&gt;Node10</title>
<path fill="none" stroke="midnightblue" d="M1457.8,-176.522C1560.21,-165.112 1782.45,-140.349 1884.7,-128.956"/>
<polygon fill="midnightblue" stroke="midnightblue" points="1885.25,-132.416 1894.81,-127.83 1884.48,-125.459 1885.25,-132.416"/>
</g>
<!-- Node11 -->
<g id="node11" class="node"><title>Node11</title>
<g id="a_node11"><a xlink:href="log_8h.html" target="_top" xlink:title="core/util/log.h">
<polygon fill="white" stroke="red" points="2865.66,-56.5 2865.66,-75.5 2946.66,-75.5 2946.66,-56.5 2865.66,-56.5"/>
<text text-anchor="middle" x="2906.16" y="-63.5" font-family="Helvetica,sans-Serif" font-size="10.00">core/util/log.h</text>
</a>
</g>
</g>
<!-- Node10&#45;&gt;Node11 -->
<g id="edge12" class="edge"><title>Node10&#45;&gt;Node11</title>
<path fill="none" stroke="midnightblue" d="M1981.29,-118.239C2010.13,-116.414 2048.91,-113.999 2083.16,-112 2375.29,-94.9473 2725.87,-76.4231 2855.11,-69.6603"/>
<polygon fill="midnightblue" stroke="midnightblue" points="2855.67,-73.1356 2865.47,-69.1181 2855.3,-66.1452 2855.67,-73.1356"/>
</g>
<!-- Node12 -->
<g id="node12" class="node"><title>Node12</title>
<polygon fill="white" stroke="#bfbfbf" points="3201.66,-0.5 3201.66,-19.5 3260.66,-19.5 3260.66,-0.5 3201.66,-0.5"/>
<text text-anchor="middle" x="3231.16" y="-7.5" font-family="Helvetica,sans-Serif" font-size="10.00">iostream</text>
</g>
<!-- Node11&#45;&gt;Node12 -->
<g id="edge13" class="edge"><title>Node11&#45;&gt;Node12</title>
<path fill="none" stroke="midnightblue" d="M2946.66,-58.27C3009.23,-47.8734 3128.68,-28.0273 3191.02,-17.6682"/>
<polygon fill="midnightblue" stroke="midnightblue" points="3191.96,-21.0611 3201.25,-15.9693 3190.81,-14.1558 3191.96,-21.0611"/>
</g>
<!-- Node13 -->
<g id="node13" class="node"><title>Node13</title>
<polygon fill="white" stroke="#bfbfbf" points="1628.16,-0.5 1628.16,-19.5 1672.16,-19.5 1672.16,-0.5 1628.16,-0.5"/>
<text text-anchor="middle" x="1650.16" y="-7.5" font-family="Helvetica,sans-Serif" font-size="10.00">string</text>
</g>
<!-- Node11&#45;&gt;Node13 -->
<g id="edge14" class="edge"><title>Node11&#45;&gt;Node13</title>
<path fill="none" stroke="midnightblue" d="M2865.38,-57.7472C2860.6,-57.0685 2855.78,-56.4628 2851.16,-56 2388.8,-9.69158 1822.01,-9.89809 1682.37,-10.7355"/>
<polygon fill="midnightblue" stroke="midnightblue" points="1682.31,-7.23566 1672.33,-10.8014 1682.35,-14.2355 1682.31,-7.23566"/>
</g>
<!-- Node15&#45;&gt;Node3 -->
<g id="edge17" class="edge"><title>Node15&#45;&gt;Node3</title>
<path fill="none" stroke="midnightblue" d="M631.559,-173.975C684.783,-162.745 777.909,-143.096 831.668,-131.753"/>
<polygon fill="midnightblue" stroke="midnightblue" points="832.489,-135.158 841.551,-129.668 831.044,-128.308 832.489,-135.158"/>
</g>
<!-- Node15&#45;&gt;Node12 -->
<g id="edge18" class="edge"><title>Node15&#45;&gt;Node12</title>
<path fill="none" stroke="midnightblue" d="M606.68,-173.962C636.137,-158.264 702.619,-125.216 763.156,-112 1253.84,-4.87271 2912.82,-9.22841 3191.32,-10.7431"/>
<polygon fill="midnightblue" stroke="midnightblue" points="3191.36,-14.2432 3201.38,-10.7999 3191.39,-7.24334 3191.36,-14.2432"/>
</g>
<!-- Node15&#45;&gt;Node13 -->
<g id="edge19" class="edge"><title>Node15&#45;&gt;Node13</title>
<path fill="none" stroke="midnightblue" d="M598.015,-173.8C618.349,-148.86 681.378,-77.5275 753.156,-56 837.203,-30.7925 1466.96,-15.1227 1617.77,-11.7069"/>
<polygon fill="midnightblue" stroke="midnightblue" points="1617.87,-15.2057 1627.79,-11.4822 1617.71,-8.20745 1617.87,-15.2057"/>
</g>
<!-- Node15&#45;&gt;Node14 -->
<g id="edge20" class="edge"><title>Node15&#45;&gt;Node14</title>
<path fill="none" stroke="midnightblue" d="M545.813,-173.962C534.208,-171.893 521.736,-169.769 510.156,-168 402.674,-151.578 276.232,-136.578 206.989,-128.731"/>
<polygon fill="midnightblue" stroke="midnightblue" points="207.117,-125.223 196.788,-127.58 206.332,-132.179 207.117,-125.223"/>
</g>
<!-- Node17 -->
<g id="node17" class="node"><title>Node17</title>
<polygon fill="white" stroke="#bfbfbf" points="451.156,-174 451.156,-193 501.156,-193 501.156,-174 451.156,-174"/>
<text text-anchor="middle" x="476.156" y="-181" font-family="Helvetica,sans-Serif" font-size="10.00">atomic</text>
</g>
<!-- Node16&#45;&gt;Node17 -->
<g id="edge23" class="edge"><title>Node16&#45;&gt;Node17</title>
<path fill="none" stroke="midnightblue" d="M566.13,-240.734C548.821,-229.916 519.169,-211.383 498.661,-198.566"/>
<polygon fill="midnightblue" stroke="midnightblue" points="500.294,-195.459 489.959,-193.127 496.584,-201.395 500.294,-195.459"/>
</g>
<!-- Node18&#45;&gt;Node6 -->
<g id="edge27" class="edge"><title>Node18&#45;&gt;Node6</title>
<path fill="none" stroke="midnightblue" d="M395.058,-244.543C430.891,-241.666 477.091,-238.025 518.156,-235 789.311,-215.027 1116.79,-193.502 1221.35,-186.693"/>
<polygon fill="midnightblue" stroke="midnightblue" points="1221.85,-190.168 1231.6,-186.026 1221.4,-183.182 1221.85,-190.168"/>
</g>
<!-- Node18&#45;&gt;Node11 -->
<g id="edge28" class="edge"><title>Node18&#45;&gt;Node11</title>
<path fill="none" stroke="midnightblue" d="M394.878,-244.797C478.566,-237.577 624.435,-222.124 672.156,-199 690.264,-190.225 688.376,-179.107 705.156,-168 756.595,-133.95 771.934,-125.372 832.156,-112 933.845,-89.4208 2546,-70.8961 2855.12,-67.542"/>
<polygon fill="midnightblue" stroke="midnightblue" points="2855.61,-71.0371 2865.57,-67.4291 2855.53,-64.0375 2855.61,-71.0371"/>
</g>
<!-- Node19 -->
<g id="node19" class="node"><title>Node19</title>
<polygon fill="white" stroke="#bfbfbf" points="323.656,-112.5 323.656,-131.5 370.656,-131.5 370.656,-112.5 323.656,-112.5"/>
<text text-anchor="middle" x="347.156" y="-119.5" font-family="Helvetica,sans-Serif" font-size="10.00">omp.h</text>
</g>
<!-- Node18&#45;&gt;Node19 -->
<g id="edge25" class="edge"><title>Node18&#45;&gt;Node19</title>
<path fill="none" stroke="midnightblue" d="M341.512,-240.912C349.137,-231.395 360.57,-215.236 365.156,-199 370.666,-179.492 363.601,-156.85 356.77,-141.387"/>
<polygon fill="midnightblue" stroke="midnightblue" points="359.723,-139.452 352.235,-131.956 353.414,-142.485 359.723,-139.452"/>
</g>
<!-- Node20 -->
<g id="node20" class="node"><title>Node20</title>
<polygon fill="white" stroke="#bfbfbf" points="189.156,-174 189.156,-193 243.156,-193 243.156,-174 189.156,-174"/>
<text text-anchor="middle" x="216.156" y="-181" font-family="Helvetica,sans-Serif" font-size="10.00">sched.h</text>
</g>
<!-- Node18&#45;&gt;Node20 -->
<g id="edge26" class="edge"><title>Node18&#45;&gt;Node20</title>
<path fill="none" stroke="midnightblue" d="M318.242,-240.734C298.337,-229.769 264.047,-210.881 240.753,-198.049"/>
<polygon fill="midnightblue" stroke="midnightblue" points="242.265,-194.887 231.817,-193.127 238.888,-201.018 242.265,-194.887"/>
</g>
<!-- Node21 -->
<g id="node21" class="node"><title>Node21</title>
<g id="a_node21"><a xlink:href="numa_8h.html" target="_top" xlink:title="core/util/numa.h">
<polygon fill="white" stroke="black" points="261.656,-174 261.656,-193 356.656,-193 356.656,-174 261.656,-174"/>
<text text-anchor="middle" x="309.156" y="-181" font-family="Helvetica,sans-Serif" font-size="10.00">core/util/numa.h</text>
</a>
</g>
</g>
<!-- Node18&#45;&gt;Node21 -->
<g id="edge29" class="edge"><title>Node18&#45;&gt;Node21</title>
<path fill="none" stroke="midnightblue" d="M330.784,-240.734C327.035,-230.988 320.879,-214.981 316.091,-202.532"/>
<polygon fill="midnightblue" stroke="midnightblue" points="319.33,-201.204 312.474,-193.127 312.797,-203.717 319.33,-201.204"/>
</g>
<!-- Node21&#45;&gt;Node19 -->
<g id="edge30" class="edge"><title>Node21&#45;&gt;Node19</title>
<path fill="none" stroke="midnightblue" d="M314.6,-173.975C320.244,-165.138 329.217,-151.089 336.314,-139.975"/>
<polygon fill="midnightblue" stroke="midnightblue" points="339.288,-141.821 341.721,-131.509 333.389,-138.053 339.288,-141.821"/>
</g>
<!-- Node24&#45;&gt;Node4 -->
<g id="edge42" class="edge"><title>Node24&#45;&gt;Node4</title>
<path fill="none" stroke="midnightblue" d="M2306.38,-503.325C2351.52,-467.41 2513.92,-327.898 2438.16,-235 2412.5,-203.54 2293.99,-191.127 2231.3,-186.698"/>
<polygon fill="midnightblue" stroke="midnightblue" points="2231.22,-183.185 2221.01,-186.008 2230.75,-190.169 2231.22,-183.185"/>
</g>
<!-- Node24&#45;&gt;Node5 -->
<g id="edge44" class="edge"><title>Node24&#45;&gt;Node5</title>
<path fill="none" stroke="midnightblue" d="M2329.58,-503.907C2331.12,-503.591 2332.65,-503.287 2334.16,-503 2386.48,-493.004 2531.99,-503.105 2571.16,-467 2626.56,-415.928 2591.59,-375.03 2610.16,-302 2619.11,-266.782 2630.47,-225.89 2636.96,-202.817"/>
<polygon fill="midnightblue" stroke="midnightblue" points="2640.38,-203.6 2639.73,-193.025 2633.64,-201.696 2640.38,-203.6"/>
</g>
<!-- Node24&#45;&gt;Node6 -->
<g id="edge45" class="edge"><title>Node24&#45;&gt;Node6</title>
<path fill="none" stroke="midnightblue" d="M2261.03,-511.284C2107.89,-507.948 1483.23,-492.98 1289.16,-467 1125.7,-445.119 927.156,-550.416 927.156,-385.5 927.156,-385.5 927.156,-385.5 927.156,-316.5 927.156,-253.514 1137.94,-206.685 1221.56,-190.585"/>
<polygon fill="midnightblue" stroke="midnightblue" points="1222.39,-193.99 1231.57,-188.69 1221.09,-187.113 1222.39,-193.99"/>
</g>
<!-- Node24&#45;&gt;Node8 -->
<g id="edge41" class="edge"><title>Node24&#45;&gt;Node8</title>
<path fill="none" stroke="midnightblue" d="M2261.12,-511.812C2056.19,-510.565 993.55,-502.403 935.156,-467 899.588,-445.437 889.156,-427.094 889.156,-385.5 889.156,-385.5 889.156,-385.5 889.156,-316.5 889.156,-154.386 1160.37,-128.071 1253.9,-123.816"/>
<polygon fill="midnightblue" stroke="midnightblue" points="1254.29,-127.303 1264.14,-123.407 1254.01,-120.308 1254.29,-127.303"/>
</g>
<!-- Node24&#45;&gt;Node11 -->
<g id="edge157" class="edge"><title>Node24&#45;&gt;Node11</title>
<path fill="none" stroke="midnightblue" d="M2329.36,-511.86C2497.42,-510.995 3236.64,-505.052 3463.16,-467 3576.74,-447.919 3709.16,-500.677 3709.16,-385.5 3709.16,-385.5 3709.16,-385.5 3709.16,-182.5 3709.16,-106.16 3133.21,-76.2836 2956.86,-68.9247"/>
<polygon fill="midnightblue" stroke="midnightblue" points="2956.94,-65.4252 2946.8,-68.5116 2956.65,-72.4193 2956.94,-65.4252"/>
</g>
<!-- Node24&#45;&gt;Node12 -->
<g id="edge40" class="edge"><title>Node24&#45;&gt;Node12</title>
<path fill="none" stroke="midnightblue" d="M2329.32,-511.708C2521.83,-509.946 3466.94,-499.679 3592.16,-467 3667.46,-447.346 3747.16,-463.331 3747.16,-385.5 3747.16,-385.5 3747.16,-385.5 3747.16,-121 3747.16,-23.7516 3392.15,-12.1501 3271.06,-11.0214"/>
<polygon fill="midnightblue" stroke="midnightblue" points="3270.78,-7.51932 3260.75,-10.9458 3270.73,-14.5191 3270.78,-7.51932"/>
</g>
<!-- Node24&#45;&gt;Node14 -->
<g id="edge154" class="edge"><title>Node24&#45;&gt;Node14</title>
<path fill="none" stroke="midnightblue" d="M2261.1,-511.791C1994.81,-510.098 253.9,-497.868 148.156,-467 93.2052,-450.96 77.5249,-441.556 38.1555,-400 14.9068,-375.46 10.405,-365.782 2.15554,-333 -1.20673,-319.639 1.54047,-315.764 2.15554,-302 3.49021,-272.133 -6.29617,-261.172 8.15554,-235 34.6651,-186.991 91.309,-153.162 126.028,-135.979"/>
<polygon fill="midnightblue" stroke="midnightblue" points="127.696,-139.061 135.196,-131.577 124.666,-132.751 127.696,-139.061"/>
</g>
<!-- Node24&#45;&gt;Node16 -->
<g id="edge158" class="edge"><title>Node24&#45;&gt;Node16</title>
<path fill="none" stroke="midnightblue" d="M2261.13,-511.772C2058.36,-510.303 1013.45,-501.112 875.156,-467 742.764,-434.344 684.252,-439.549 599.156,-333 584.807,-315.035 580.938,-288.137 580.075,-270.215"/>
<polygon fill="midnightblue" stroke="midnightblue" points="583.573,-270.071 579.86,-260.147 576.574,-270.22 583.573,-270.071"/>
</g>
<!-- Node24&#45;&gt;Node17 -->
<g id="edge38" class="edge"><title>Node24&#45;&gt;Node17</title>
<path fill="none" stroke="midnightblue" d="M2260.9,-512.014C2015.51,-512.01 529.287,-510.195 334.156,-467 261.676,-450.956 244.711,-438.359 181.156,-400 100.034,-351.04 -16.9753,-305.656 46.1555,-235 93.6872,-181.803 294.339,-207.621 365.156,-199 390.522,-195.912 419.113,-192.171 440.924,-189.262"/>
<polygon fill="midnightblue" stroke="midnightblue" points="441.596,-192.704 451.043,-187.908 440.667,-185.766 441.596,-192.704"/>
</g>
<!-- Node24&#45;&gt;Node19 -->
<g id="edge35" class="edge"><title>Node24&#45;&gt;Node19</title>
<path fill="none" stroke="midnightblue" d="M2260.91,-511.739C2000.53,-509.693 340.476,-495.556 239.156,-467 104.427,-429.029 -50.5807,-352.069 26.1555,-235 89.5801,-138.239 244.07,-123.992 312.988,-122.628"/>
<polygon fill="midnightblue" stroke="midnightblue" points="313.328,-126.125 323.287,-122.509 313.247,-119.125 313.328,-126.125"/>
</g>
<!-- Node24&#45;&gt;Node22 -->
<g id="edge36" class="edge"><title>Node24&#45;&gt;Node22</title>
<path fill="none" stroke="midnightblue" d="M2329.35,-512.27C2472.64,-513.106 3020.02,-513.227 3080.16,-467 3163.78,-402.714 3173.02,-331.376 3130.16,-235 3123.48,-219.984 3109.88,-207.552 3097.76,-198.78"/>
<polygon fill="midnightblue" stroke="midnightblue" points="3099.56,-195.769 3089.32,-193.055 3095.63,-201.563 3099.56,-195.769"/>
</g>
<!-- Node24&#45;&gt;Node23 -->
<g id="edge43" class="edge"><title>Node24&#45;&gt;Node23</title>
<path fill="none" stroke="midnightblue" d="M2260.86,-511.872C2061.55,-510.996 1050.55,-504.734 742.156,-467 464.48,-433.025 353.768,-497.027 127.156,-333 105.483,-317.313 91.954,-288.581 84.9817,-269.763"/>
<polygon fill="midnightblue" stroke="midnightblue" points="88.2661,-268.551 81.6972,-260.239 81.6485,-270.834 88.2661,-268.551"/>
</g>
<!-- Node25 -->
<g id="node25" class="node"><title>Node25</title>
<polygon fill="white" stroke="#bfbfbf" points="2125.16,-241 2125.16,-260 2181.16,-260 2181.16,-241 2125.16,-241"/>
<text text-anchor="middle" x="2153.16" y="-248" font-family="Helvetica,sans-Serif" font-size="10.00">assert.h</text>
</g>
<!-- Node24&#45;&gt;Node25 -->
<g id="edge34" class="edge"><title>Node24&#45;&gt;Node25</title>
<path fill="none" stroke="midnightblue" d="M2292.05,-503.146C2281.39,-473.347 2244.32,-374.512 2197.16,-302 2189.11,-289.635 2178.24,-277.126 2169.31,-267.65"/>
<polygon fill="midnightblue" stroke="midnightblue" points="2171.56,-264.938 2162.09,-260.185 2166.53,-269.805 2171.56,-264.938"/>
</g>
<!-- Node26 -->
<g id="node26" class="node"><title>Node26</title>
<polygon fill="white" stroke="#bfbfbf" points="3487.66,-174 3487.66,-193 3528.66,-193 3528.66,-174 3487.66,-174"/>
<text text-anchor="middle" x="3508.16" y="-181" font-family="Helvetica,sans-Serif" font-size="10.00">array</text>
</g>
<!-- Node24&#45;&gt;Node26 -->
<g id="edge37" class="edge"><title>Node24&#45;&gt;Node26</title>
<path fill="none" stroke="midnightblue" d="M2329.55,-512.072C2452.96,-511.969 2884.92,-508.47 3238.16,-467 3432.64,-444.167 3671.16,-581.324 3671.16,-385.5 3671.16,-385.5 3671.16,-385.5 3671.16,-316.5 3671.16,-248.99 3585.67,-210.032 3538.51,-193.678"/>
<polygon fill="midnightblue" stroke="midnightblue" points="3539.39,-190.282 3528.8,-190.441 3537.18,-196.923 3539.39,-190.282"/>
</g>
<!-- Node27 -->
<g id="node27" class="node"><title>Node27</title>
<polygon fill="white" stroke="#bfbfbf" points="2756.66,-174 2756.66,-193 2803.66,-193 2803.66,-174 2756.66,-174"/>
<text text-anchor="middle" x="2780.16" y="-181" font-family="Helvetica,sans-Serif" font-size="10.00">cmath</text>
</g>
<!-- Node24&#45;&gt;Node27 -->
<g id="edge39" class="edge"><title>Node24&#45;&gt;Node27</title>
<path fill="none" stroke="midnightblue" d="M2329.31,-512.521C2386.96,-512.2 2506.15,-506.306 2597.16,-467 2685.47,-428.853 2714.2,-413.321 2767.16,-333 2793.55,-292.957 2788.54,-233.067 2783.77,-203.05"/>
<polygon fill="midnightblue" stroke="midnightblue" points="2787.2,-202.351 2782.01,-193.112 2780.3,-203.568 2787.2,-202.351"/>
</g>
<!-- Node28 -->
<g id="node28" class="node"><title>Node28</title>
<polygon fill="white" stroke="#bfbfbf" points="2463.66,-442 2463.66,-461 2562.66,-461 2562.66,-442 2463.66,-442"/>
<text text-anchor="middle" x="2513.16" y="-449" font-family="Helvetica,sans-Serif" font-size="10.00">morton/morton.h</text>
</g>
<!-- Node24&#45;&gt;Node28 -->
<g id="edge46" class="edge"><title>Node24&#45;&gt;Node28</title>
<path fill="none" stroke="midnightblue" d="M2326.39,-503.475C2364.76,-493.004 2429.94,-475.212 2472.27,-463.66"/>
<polygon fill="midnightblue" stroke="midnightblue" points="2473.25,-467.019 2481.98,-461.009 2471.41,-460.266 2473.25,-467.019"/>
</g>
<!-- Node29 -->
<g id="node29" class="node"><title>Node29</title>
<g id="a_node29"><a xlink:href="fixed__size__vector_8h.html" target="_top" xlink:title="core/container/fixed\l_size_vector.h">
<polygon fill="white" stroke="red" points="3221.66,-369.5 3221.66,-399.5 3332.66,-399.5 3332.66,-369.5 3221.66,-369.5"/>
<text text-anchor="start" x="3229.66" y="-387.5" font-family="Helvetica,sans-Serif" font-size="10.00">core/container/fixed</text>
<text text-anchor="middle" x="3277.16" y="-376.5" font-family="Helvetica,sans-Serif" font-size="10.00">_size_vector.h</text>
</a>
</g>
</g>
<!-- Node24&#45;&gt;Node29 -->
<g id="edge47" class="edge"><title>Node24&#45;&gt;Node29</title>
<path fill="none" stroke="midnightblue" d="M2329.29,-511.902C2485.4,-511.24 3127.2,-506.14 3207.16,-467 3232.78,-454.456 3252.78,-427.803 3264.72,-408.382"/>
<polygon fill="midnightblue" stroke="midnightblue" points="3267.88,-409.917 3269.93,-399.522 3261.84,-406.371 3267.88,-409.917"/>
</g>
<!-- Node31 -->
<g id="node31" class="node"><title>Node31</title>
<g id="a_node31"><a xlink:href="inline__vector_8h.html" target="_top" xlink:title="core/container/inline\l_vector.h">
<polygon fill="white" stroke="black" points="3263.66,-235.5 3263.66,-265.5 3376.66,-265.5 3376.66,-235.5 3263.66,-235.5"/>
<text text-anchor="start" x="3271.66" y="-253.5" font-family="Helvetica,sans-Serif" font-size="10.00">core/container/inline</text>
<text text-anchor="middle" x="3320.16" y="-242.5" font-family="Helvetica,sans-Serif" font-size="10.00">_vector.h</text>
</a>
</g>
</g>
<!-- Node24&#45;&gt;Node31 -->
<g id="edge49" class="edge"><title>Node24&#45;&gt;Node31</title>
<path fill="none" stroke="midnightblue" d="M2329.16,-512.317C2481.76,-513.464 3098.9,-515.077 3169.16,-467 3208.56,-440.037 3186.98,-408.927 3213.16,-369 3237.48,-331.894 3273.47,-295.038 3296.87,-272.761"/>
<polygon fill="midnightblue" stroke="midnightblue" points="3299.4,-275.187 3304.29,-265.786 3294.6,-270.087 3299.4,-275.187"/>
</g>
<!-- Node33 -->
<g id="node33" class="node"><title>Node33</title>
<g id="a_node33"><a xlink:href="math__array_8h.html" target="_top" xlink:title="core/container/math\l_array.h">
<polygon fill="white" stroke="red" points="2865.16,-235.5 2865.16,-265.5 2979.16,-265.5 2979.16,-235.5 2865.16,-235.5"/>
<text text-anchor="start" x="2873.16" y="-253.5" font-family="Helvetica,sans-Serif" font-size="10.00">core/container/math</text>
<text text-anchor="middle" x="2922.16" y="-242.5" font-family="Helvetica,sans-Serif" font-size="10.00">_array.h</text>
</a>
</g>
</g>
<!-- Node24&#45;&gt;Node33 -->
<g id="edge58" class="edge"><title>Node24&#45;&gt;Node33</title>
<path fill="none" stroke="midnightblue" d="M2329.5,-511.264C2474.45,-507.995 3029.94,-493.751 3055.16,-467 3105.45,-413.635 3096.8,-362.36 3055.16,-302 3040.05,-280.105 3014.11,-267.694 2989.13,-260.663"/>
<polygon fill="midnightblue" stroke="midnightblue" points="2989.82,-257.226 2979.26,-258.138 2988.08,-264.007 2989.82,-257.226"/>
</g>
<!-- Node35 -->
<g id="node35" class="node"><title>Node35</title>
<g id="a_node35"><a xlink:href="parallel__resize__vector_8h.html" target="_top" xlink:title="core/container/parallel\l_resize_vector.h">
<polygon fill="white" stroke="red" points="1793.66,-235.5 1793.66,-265.5 1916.66,-265.5 1916.66,-235.5 1793.66,-235.5"/>
<text text-anchor="start" x="1801.66" y="-253.5" font-family="Helvetica,sans-Serif" font-size="10.00">core/container/parallel</text>
<text text-anchor="middle" x="1855.16" y="-242.5" font-family="Helvetica,sans-Serif" font-size="10.00">_resize_vector.h</text>
</a>
</g>
</g>
<!-- Node24&#45;&gt;Node35 -->
<g id="edge65" class="edge"><title>Node24&#45;&gt;Node35</title>
<path fill="none" stroke="midnightblue" d="M2280.52,-503.333C2218.44,-466.583 1976.14,-323.127 1887.7,-270.766"/>
<polygon fill="midnightblue" stroke="midnightblue" points="1889.29,-267.64 1878.9,-265.558 1885.72,-273.664 1889.29,-267.64"/>
</g>
<!-- Node36 -->
<g id="node36" class="node"><title>Node36</title>
<g id="a_node36"><a xlink:href="sim__object__vector_8h.html" target="_top" xlink:title="core/container/sim\l_object_vector.h">
<polygon fill="white" stroke="black" points="1298.16,-436.5 1298.16,-466.5 1404.16,-466.5 1404.16,-436.5 1298.16,-436.5"/>
<text text-anchor="start" x="1306.16" y="-454.5" font-family="Helvetica,sans-Serif" font-size="10.00">core/container/sim</text>
<text text-anchor="middle" x="1351.16" y="-443.5" font-family="Helvetica,sans-Serif" font-size="10.00">_object_vector.h</text>
</a>
</g>
</g>
<!-- Node24&#45;&gt;Node36 -->
<g id="edge68" class="edge"><title>Node24&#45;&gt;Node36</title>
<path fill="none" stroke="midnightblue" d="M2261,-509.847C2121.91,-501.08 1596.88,-467.988 1414.24,-456.476"/>
<polygon fill="midnightblue" stroke="midnightblue" points="1414.46,-452.983 1404.26,-455.847 1414.02,-459.969 1414.46,-452.983"/>
</g>
<!-- Node24&#45;&gt;Node37 -->
<g id="edge156" class="edge"><title>Node24&#45;&gt;Node37</title>
<path fill="none" stroke="midnightblue" d="M2260.9,-507.359C2204.54,-499.628 2088.77,-483.342 1991.16,-467 1852.41,-443.772 1689.65,-412.192 1607.81,-396.009"/>
<polygon fill="midnightblue" stroke="midnightblue" points="1608.25,-392.528 1597.76,-394.019 1606.89,-399.395 1608.25,-392.528"/>
</g>
<!-- Node40 -->
<g id="node40" class="node"><title>Node40</title>
<g id="a_node40"><a xlink:href="core_2param_2param_8h.html" target="_top" xlink:title="core/param/param.h">
<polygon fill="white" stroke="red" points="2313.16,-241 2313.16,-260 2429.16,-260 2429.16,-241 2313.16,-241"/>
<text text-anchor="middle" x="2371.16" y="-248" font-family="Helvetica,sans-Serif" font-size="10.00">core/param/param.h</text>
</a>
</g>
</g>
<!-- Node24&#45;&gt;Node40 -->
<g id="edge155" class="edge"><title>Node24&#45;&gt;Node40</title>
<path fill="none" stroke="midnightblue" d="M2297.68,-503.333C2308.46,-466.403 2350.67,-321.719 2365.76,-270.003"/>
<polygon fill="midnightblue" stroke="midnightblue" points="2369.18,-270.78 2368.62,-260.2 2362.46,-268.819 2369.18,-270.78"/>
</g>
<!-- Node30 -->
<g id="node30" class="node"><title>Node30</title>
<polygon fill="white" stroke="#bfbfbf" points="3343.16,-174 3343.16,-193 3395.16,-193 3395.16,-174 3343.16,-174"/>
<text text-anchor="middle" x="3369.16" y="-181" font-family="Helvetica,sans-Serif" font-size="10.00">cassert</text>
</g>
<!-- Node29&#45;&gt;Node30 -->
<g id="edge48" class="edge"><title>Node29&#45;&gt;Node30</title>
<path fill="none" stroke="midnightblue" d="M3332.73,-370.813C3384.98,-355.612 3460.22,-324.512 3495.16,-266 3502.22,-254.17 3502.9,-246.394 3495.16,-235 3470.7,-199.03 3444.47,-215.324 3404.16,-199 3402.56,-198.355 3400.93,-197.691 3399.28,-197.018"/>
<polygon fill="midnightblue" stroke="midnightblue" points="3400.44,-193.709 3389.86,-193.142 3397.78,-200.183 3400.44,-193.709"/>
</g>
<!-- Node31&#45;&gt;Node6 -->
<g id="edge55" class="edge"><title>Node31&#45;&gt;Node6</title>
<path fill="none" stroke="midnightblue" d="M3263.48,-246.648C3197.4,-243.411 3084.89,-238.169 2988.16,-235 2256.37,-211.025 2070.07,-268.047 1341.16,-199 1323.72,-197.348 1304.48,-194.229 1288.63,-191.306"/>
<polygon fill="midnightblue" stroke="midnightblue" points="1289.24,-187.858 1278.76,-189.43 1287.93,-194.735 1289.24,-187.858"/>
</g>
<!-- Node31&#45;&gt;Node8 -->
<g id="edge53" class="edge"><title>Node31&#45;&gt;Node8</title>
<path fill="none" stroke="midnightblue" d="M3263.63,-236.035C3221.2,-225.366 3167.12,-210.408 3147.16,-199 3129.68,-189.017 3132.77,-175.639 3114.16,-168 3070.83,-150.224 1554.61,-127.002 1316.49,-123.461"/>
<polygon fill="midnightblue" stroke="midnightblue" points="1316.47,-119.961 1306.42,-123.312 1316.37,-126.96 1316.47,-119.961"/>
</g>
<!-- Node31&#45;&gt;Node10 -->
<g id="edge57" class="edge"><title>Node31&#45;&gt;Node10</title>
<path fill="none" stroke="midnightblue" d="M3275.88,-235.449C3250.14,-226.516 3217.5,-213.85 3190.16,-199 3169.45,-187.755 3169.44,-175.655 3147.16,-168 3037.1,-130.189 2211.52,-124.119 1991.76,-123.171"/>
<polygon fill="midnightblue" stroke="midnightblue" points="1991.47,-119.67 1981.45,-123.128 1991.44,-126.67 1991.47,-119.67"/>
</g>
<!-- Node31&#45;&gt;Node11 -->
<g id="edge56" class="edge"><title>Node31&#45;&gt;Node11</title>
<path fill="none" stroke="midnightblue" d="M3322.34,-235.298C3325.77,-207.164 3328.83,-144.281 3294.16,-112 3269.92,-89.4345 3056.77,-75.1055 2957.11,-69.5817"/>
<polygon fill="midnightblue" stroke="midnightblue" points="2957.14,-66.0785 2946.97,-69.0283 2956.76,-73.0681 2957.14,-66.0785"/>
</g>
<!-- Node31&#45;&gt;Node22 -->
<g id="edge50" class="edge"><title>Node31&#45;&gt;Node22</title>
<path fill="none" stroke="midnightblue" d="M3263.58,-236.333C3223.15,-226.672 3167.58,-212.869 3119.16,-199 3116,-198.096 3112.73,-197.121 3109.46,-196.118"/>
<polygon fill="midnightblue" stroke="midnightblue" points="3110.36,-192.73 3099.77,-193.073 3108.26,-199.409 3110.36,-192.73"/>
</g>
<!-- Node31&#45;&gt;Node26 -->
<g id="edge51" class="edge"><title>Node31&#45;&gt;Node26</title>
<path fill="none" stroke="midnightblue" d="M3370.25,-235.457C3401.64,-226.177 3442.72,-213.146 3478.16,-199 3479.53,-198.45 3480.93,-197.866 3482.34,-197.258"/>
<polygon fill="midnightblue" stroke="midnightblue" points="3483.89,-200.399 3491.52,-193.053 3480.97,-194.035 3483.89,-200.399"/>
</g>
<!-- Node31&#45;&gt;Node30 -->
<g id="edge52" class="edge"><title>Node31&#45;&gt;Node30</title>
<path fill="none" stroke="midnightblue" d="M3330.79,-235.396C3338.35,-225.361 3348.55,-211.838 3356.53,-201.253"/>
<polygon fill="midnightblue" stroke="midnightblue" points="3359.38,-203.287 3362.6,-193.195 3353.79,-199.073 3359.38,-203.287"/>
</g>
<!-- Node32 -->
<g id="node32" class="node"><title>Node32</title>
<polygon fill="white" stroke="#bfbfbf" points="3413.16,-174 3413.16,-193 3469.16,-193 3469.16,-174 3413.16,-174"/>
<text text-anchor="middle" x="3441.16" y="-181" font-family="Helvetica,sans-Serif" font-size="10.00">sstream</text>
</g>
<!-- Node31&#45;&gt;Node32 -->
<g id="edge54" class="edge"><title>Node31&#45;&gt;Node32</title>
<path fill="none" stroke="midnightblue" d="M3346.41,-235.396C3367.17,-224.243 3395.96,-208.781 3416.33,-197.834"/>
<polygon fill="midnightblue" stroke="midnightblue" points="3418.17,-200.823 3425.32,-193.007 3414.85,-194.656 3418.17,-200.823"/>
</g>
<!-- Node33&#45;&gt;Node5 -->
<g id="edge63" class="edge"><title>Node33&#45;&gt;Node5</title>
<path fill="none" stroke="midnightblue" d="M2864.82,-236.189C2806.93,-222.751 2719.66,-202.493 2673.45,-191.764"/>
<polygon fill="midnightblue" stroke="midnightblue" points="2673.96,-188.291 2663.43,-189.438 2672.38,-195.109 2673.96,-188.291"/>
</g>
<!-- Node33&#45;&gt;Node10 -->
<g id="edge64" class="edge"><title>Node33&#45;&gt;Node10</title>
<path fill="none" stroke="midnightblue" d="M2908.83,-235.392C2889.6,-216.11 2851.98,-182.29 2812.16,-168 2735.17,-140.372 2169.31,-127.384 1991.48,-123.954"/>
<polygon fill="midnightblue" stroke="midnightblue" points="1991.39,-120.452 1981.32,-123.761 1991.25,-127.451 1991.39,-120.452"/>
</g>
<!-- Node33&#45;&gt;Node22 -->
<g id="edge59" class="edge"><title>Node33&#45;&gt;Node22</title>
<path fill="none" stroke="midnightblue" d="M2955.14,-235.396C2981.93,-223.941 3019.35,-207.938 3045.04,-196.952"/>
<polygon fill="midnightblue" stroke="midnightblue" points="3046.44,-200.157 3054.26,-193.007 3043.69,-193.721 3046.44,-200.157"/>
</g>
<!-- Node33&#45;&gt;Node27 -->
<g id="edge61" class="edge"><title>Node33&#45;&gt;Node27</title>
<path fill="none" stroke="midnightblue" d="M2891.34,-235.396C2866.54,-224.041 2831.97,-208.22 2808,-197.244"/>
<polygon fill="midnightblue" stroke="midnightblue" points="2809.29,-193.987 2798.74,-193.007 2806.38,-200.352 2809.29,-193.987"/>
</g>
<!-- Node33&#45;&gt;Node30 -->
<g id="edge60" class="edge"><title>Node33&#45;&gt;Node30</title>
<path fill="none" stroke="midnightblue" d="M2979.35,-242.893C3052.86,-234.146 3184.35,-217.634 3296.16,-199 3308.18,-196.996 3321.26,-194.499 3332.98,-192.145"/>
<polygon fill="midnightblue" stroke="midnightblue" points="3333.77,-195.556 3342.87,-190.129 3332.37,-188.697 3333.77,-195.556"/>
</g>
<!-- Node34 -->
<g id="node34" class="node"><title>Node34</title>
<polygon fill="white" stroke="#bfbfbf" points="2967.66,-174 2967.66,-193 3024.66,-193 3024.66,-174 2967.66,-174"/>
<text text-anchor="middle" x="2996.16" y="-181" font-family="Helvetica,sans-Serif" font-size="10.00">ostream</text>
</g>
<!-- Node33&#45;&gt;Node34 -->
<g id="edge62" class="edge"><title>Node33&#45;&gt;Node34</title>
<path fill="none" stroke="midnightblue" d="M2938.21,-235.396C2950.09,-224.96 2966.27,-210.751 2978.51,-199.998"/>
<polygon fill="midnightblue" stroke="midnightblue" points="2981.05,-202.424 2986.26,-193.195 2976.43,-197.164 2981.05,-202.424"/>
</g>
<!-- Node35&#45;&gt;Node6 -->
<g id="edge66" class="edge"><title>Node35&#45;&gt;Node6</title>
<path fill="none" stroke="midnightblue" d="M1793.28,-244.81C1696.57,-237.167 1503.81,-220.676 1341.16,-199 1323.8,-196.687 1304.57,-193.504 1288.7,-190.709"/>
<polygon fill="midnightblue" stroke="midnightblue" points="1289.28,-187.256 1278.82,-188.942 1288.04,-194.147 1289.28,-187.256"/>
</g>
<!-- Node35&#45;&gt;Node10 -->
<g id="edge67" class="edge"><title>Node35&#45;&gt;Node10</title>
<path fill="none" stroke="midnightblue" d="M1864.36,-235.479C1879.62,-212.206 1910.16,-165.663 1926.77,-140.355"/>
<polygon fill="midnightblue" stroke="midnightblue" points="1929.83,-142.07 1932.39,-131.789 1923.98,-138.229 1929.83,-142.07"/>
</g>
<!-- Node36&#45;&gt;Node6 -->
<g id="edge69" class="edge"><title>Node36&#45;&gt;Node6</title>
<path fill="none" stroke="midnightblue" d="M1298.07,-440.844C1237.61,-427.145 1139.77,-396.334 1082.16,-333 1061.07,-309.815 1065.11,-296.948 1060.16,-266 1057.98,-252.395 1051.72,-245.895 1060.16,-235 1079.74,-209.698 1170.96,-194.766 1221.39,-188.306"/>
<polygon fill="midnightblue" stroke="midnightblue" points="1222,-191.757 1231.5,-187.056 1221.14,-184.81 1222,-191.757"/>
</g>
<!-- Node36&#45;&gt;Node37 -->
<g id="edge70" class="edge"><title>Node36&#45;&gt;Node37</title>
<path fill="none" stroke="midnightblue" d="M1395.17,-436.476C1432.06,-424.723 1484.09,-408.143 1518.69,-397.12"/>
<polygon fill="midnightblue" stroke="midnightblue" points="1519.92,-400.399 1528.39,-394.029 1517.8,-393.73 1519.92,-400.399"/>
</g>
<!-- Node50 -->
<g id="node50" class="node"><title>Node50</title>
<g id="a_node50"><a xlink:href="simulation_8h.html" target="_top" xlink:title="core/simulation.h">
<polygon fill="white" stroke="red" points="1359.66,-241 1359.66,-260 1458.66,-260 1458.66,-241 1359.66,-241"/>
<text text-anchor="middle" x="1409.16" y="-248" font-family="Helvetica,sans-Serif" font-size="10.00">core/simulation.h</text>
</a>
</g>
</g>
<!-- Node36&#45;&gt;Node50 -->
<g id="edge153" class="edge"><title>Node36&#45;&gt;Node50</title>
<path fill="none" stroke="midnightblue" d="M1355.33,-436.188C1365.63,-400.835 1392.28,-309.392 1403.76,-270"/>
<polygon fill="midnightblue" stroke="midnightblue" points="1407.14,-270.94 1406.57,-260.36 1400.41,-268.981 1407.14,-270.94"/>
</g>
<!-- Node37&#45;&gt;Node4 -->
<g id="edge76" class="edge"><title>Node37&#45;&gt;Node4</title>
<path fill="none" stroke="midnightblue" d="M1586.26,-374.973C1621.69,-365.182 1681.25,-348.474 1732.16,-333 1891.6,-284.533 2080.48,-221.901 2157.18,-196.245"/>
<polygon fill="midnightblue" stroke="midnightblue" points="2158.45,-199.511 2166.82,-193.017 2156.23,-192.873 2158.45,-199.511"/>
</g>
<!-- Node37&#45;&gt;Node5 -->
<g id="edge80" class="edge"><title>Node37&#45;&gt;Node5</title>
<path fill="none" stroke="midnightblue" d="M1625.4,-384.449C1781.79,-384.445 2168.54,-372.64 2469.16,-266 2523.84,-246.603 2584.48,-215.711 2617.46,-198.056"/>
<polygon fill="midnightblue" stroke="midnightblue" points="2619.25,-201.068 2626.39,-193.238 2615.93,-194.908 2619.25,-201.068"/>
</g>
<!-- Node37&#45;&gt;Node6 -->
<g id="edge81" class="edge"><title>Node37&#45;&gt;Node6</title>
<path fill="none" stroke="midnightblue" d="M1504.54,-374.969C1443.22,-362.027 1340.74,-331.62 1281.16,-266 1265.36,-248.6 1259.15,-221.569 1256.72,-203.463"/>
<polygon fill="midnightblue" stroke="midnightblue" points="1260.18,-202.843 1255.62,-193.276 1253.22,-203.594 1260.18,-202.843"/>
</g>
<!-- Node37&#45;&gt;Node7 -->
<g id="edge82" class="edge"><title>Node37&#45;&gt;Node7</title>
<path fill="none" stroke="midnightblue" d="M1485.15,-375.723C1430.69,-368.364 1353.76,-355.083 1289.16,-333 1242.17,-316.94 1191.72,-289.315 1160.3,-270.733"/>
<polygon fill="midnightblue" stroke="midnightblue" points="1161.95,-267.643 1151.57,-265.515 1158.36,-273.651 1161.95,-267.643"/>
</g>
<!-- Node37&#45;&gt;Node8 -->
<g id="edge75" class="edge"><title>Node37&#45;&gt;Node8</title>
<path fill="none" stroke="midnightblue" d="M1484.73,-384.276C1368.97,-384.212 1145,-378.045 1082.16,-333 1022.52,-290.258 1028.78,-212.436 1087.16,-168 1136.57,-130.387 1211.74,-123.231 1253.81,-122.426"/>
<polygon fill="midnightblue" stroke="midnightblue" points="1254.04,-125.924 1264.01,-122.344 1253.98,-118.924 1254.04,-125.924"/>
</g>
<!-- Node37&#45;&gt;Node9 -->
<g id="edge125" class="edge"><title>Node37&#45;&gt;Node9</title>
<path fill="none" stroke="midnightblue" d="M1551.34,-374.76C1540.57,-350.683 1508.02,-282.067 1467.16,-235 1457.42,-223.782 1444.94,-213.197 1433.67,-204.644"/>
<polygon fill="midnightblue" stroke="midnightblue" points="1435.47,-201.628 1425.35,-198.522 1431.33,-207.267 1435.47,-201.628"/>
</g>
<!-- Node37&#45;&gt;Node10 -->
<g id="edge150" class="edge"><title>Node37&#45;&gt;Node10</title>
<path fill="none" stroke="midnightblue" d="M1565.83,-374.68C1594.72,-350.967 1677.16,-284.304 1750.16,-235 1806.8,-196.739 1876.69,-156.936 1913.22,-136.658"/>
<polygon fill="midnightblue" stroke="midnightblue" points="1915.12,-139.605 1922.18,-131.704 1911.74,-133.479 1915.12,-139.605"/>
</g>
<!-- Node37&#45;&gt;Node13 -->
<g id="edge79" class="edge"><title>Node37&#45;&gt;Node13</title>
<path fill="none" stroke="midnightblue" d="M1484.97,-382.439C1222.36,-378.253 309.923,-361.698 255.156,-333 202.47,-305.393 64.0919,-155.963 104.156,-112 157.048,-53.959 1400.24,-17.756 1617.81,-11.8544"/>
<polygon fill="midnightblue" stroke="midnightblue" points="1618.04,-15.3496 1627.94,-11.5815 1617.85,-8.35212 1618.04,-15.3496"/>
</g>
<!-- Node37&#45;&gt;Node18 -->
<g id="edge151" class="edge"><title>Node37&#45;&gt;Node18</title>
<path fill="none" stroke="midnightblue" d="M1485.08,-383.506C1251.15,-383.1 506.378,-378.234 409.156,-333 379.79,-319.337 356.599,-288.371 344.17,-268.787"/>
<polygon fill="midnightblue" stroke="midnightblue" points="347.141,-266.936 338.953,-260.212 341.161,-270.575 347.141,-266.936"/>
</g>
<!-- Node37&#45;&gt;Node19 -->
<g id="edge71" class="edge"><title>Node37&#45;&gt;Node19</title>
<path fill="none" stroke="midnightblue" d="M1484.82,-383.803C1293.27,-383.993 765.576,-380.095 599.156,-333 539.257,-316.049 525.034,-304.549 476.156,-266 426.882,-227.139 380.519,-168.396 359.284,-139.812"/>
<polygon fill="midnightblue" stroke="midnightblue" points="362.038,-137.648 353.301,-131.655 356.393,-141.788 362.038,-137.648"/>
</g>
<!-- Node37&#45;&gt;Node20 -->
<g id="edge72" class="edge"><title>Node37&#45;&gt;Node20</title>
<path fill="none" stroke="midnightblue" d="M1484.92,-382.666C1226.46,-379.341 340.559,-365.607 290.156,-333 244.29,-303.329 225.769,-236.127 219.249,-203.281"/>
<polygon fill="midnightblue" stroke="midnightblue" points="222.651,-202.425 217.418,-193.213 215.764,-203.678 222.651,-202.425"/>
</g>
<!-- Node37&#45;&gt;Node21 -->
<g id="edge149" class="edge"><title>Node37&#45;&gt;Node21</title>
<path fill="none" stroke="midnightblue" d="M1485.05,-382.655C1246.37,-379.484 474.316,-366.704 368.156,-333 315.749,-316.362 290.48,-314.273 264.156,-266 251.54,-242.866 273.243,-216.143 290.67,-199.786"/>
<polygon fill="midnightblue" stroke="midnightblue" points="293.096,-202.313 298.238,-193.049 288.441,-197.084 293.096,-202.313"/>
</g>
<!-- Node37&#45;&gt;Node22 -->
<g id="edge73" class="edge"><title>Node37&#45;&gt;Node22</title>
<path fill="none" stroke="midnightblue" d="M1625.45,-383.075C1863.32,-381.286 2636.75,-372.5 2882.16,-333 2935.14,-324.472 3081.9,-308.887 3114.16,-266 3129.76,-245.245 3108.71,-217.446 3091.72,-200.268"/>
<polygon fill="midnightblue" stroke="midnightblue" points="3093.99,-197.589 3084.35,-193.186 3089.14,-202.637 3093.99,-197.589"/>
</g>
<!-- Node37&#45;&gt;Node27 -->
<g id="edge74" class="edge"><title>Node37&#45;&gt;Node27</title>
<path fill="none" stroke="midnightblue" d="M1625.45,-382.793C1873.83,-380 2697.58,-368.115 2741.16,-333 2780.34,-301.422 2782.94,-235.644 2781.6,-203.292"/>
<polygon fill="midnightblue" stroke="midnightblue" points="2785.08,-202.785 2780.99,-193.01 2778.09,-203.2 2785.08,-202.785"/>
</g>
<!-- Node37&#45;&gt;Node34 -->
<g id="edge77" class="edge"><title>Node37&#45;&gt;Node34</title>
<path fill="none" stroke="midnightblue" d="M1625.53,-382.727C1849.65,-379.925 2545.03,-368.522 2767.16,-333 2875.24,-315.715 2938.12,-353.296 3004.16,-266 3017.92,-247.802 3011.28,-220.387 3004.41,-202.466"/>
<polygon fill="midnightblue" stroke="midnightblue" points="3007.6,-201.012 3000.49,-193.153 3001.15,-203.727 3007.6,-201.012"/>
</g>
<!-- Node38 -->
<g id="node38" class="node"><title>Node38</title>
<polygon fill="white" stroke="#bfbfbf" points="1957.16,-174 1957.16,-193 1989.16,-193 1989.16,-174 1957.16,-174"/>
<text text-anchor="middle" x="1973.16" y="-181" font-family="Helvetica,sans-Serif" font-size="10.00">set</text>
</g>
<!-- Node37&#45;&gt;Node38 -->
<g id="edge78" class="edge"><title>Node37&#45;&gt;Node38</title>
<path fill="none" stroke="midnightblue" d="M1600.18,-374.936C1631.14,-367.492 1672.1,-354.447 1703.16,-333 1749.65,-300.886 1736.6,-265.521 1784.16,-235 1835.54,-202.024 1907.95,-190.459 1946.52,-186.495"/>
<polygon fill="midnightblue" stroke="midnightblue" points="1947.27,-189.941 1956.9,-185.53 1946.62,-182.971 1947.27,-189.941"/>
</g>
<!-- Node39 -->
<g id="node39" class="node"><title>Node39</title>
<g id="a_node39"><a xlink:href="diffusion__grid_8h.html" target="_top" xlink:title="core/diffusion_grid.h">
<polygon fill="white" stroke="red" points="2075.66,-308 2075.66,-327 2188.66,-327 2188.66,-308 2075.66,-308"/>
<text text-anchor="middle" x="2132.16" y="-315" font-family="Helvetica,sans-Serif" font-size="10.00">core/diffusion_grid.h</text>
</a>
</g>
</g>
<!-- Node37&#45;&gt;Node39 -->
<g id="edge83" class="edge"><title>Node37&#45;&gt;Node39</title>
<path fill="none" stroke="midnightblue" d="M1625.33,-375.595C1737.46,-362.963 1955.55,-338.395 2065.45,-326.015"/>
<polygon fill="midnightblue" stroke="midnightblue" points="2065.87,-329.489 2075.42,-324.892 2065.09,-322.533 2065.87,-329.489"/>
</g>
<!-- Node42 -->
<g id="node42" class="node"><title>Node42</title>
<g id="a_node42"><a xlink:href="type_8h.html" target="_top" xlink:title="core/util/type.h">
<polygon fill="white" stroke="red" points="3199.16,-174 3199.16,-193 3287.16,-193 3287.16,-174 3199.16,-174"/>
<text text-anchor="middle" x="3243.16" y="-181" font-family="Helvetica,sans-Serif" font-size="10.00">core/util/type.h</text>
</a>
</g>
</g>
<!-- Node37&#45;&gt;Node42 -->
<g id="edge152" class="edge"><title>Node37&#45;&gt;Node42</title>
<path fill="none" stroke="midnightblue" d="M1625.28,-384.151C1832.52,-385.401 2460.01,-384.332 2977.16,-333 3160.46,-314.806 3266.9,-406.383 3386.16,-266 3416.48,-230.298 3349.33,-206.9 3297.11,-194.688"/>
<polygon fill="midnightblue" stroke="midnightblue" points="3297.75,-191.246 3287.22,-192.466 3296.21,-198.075 3297.75,-191.246"/>
</g>
<!-- Node37&#45;&gt;Node45 -->
<g id="edge106" class="edge"><title>Node37&#45;&gt;Node45</title>
<path fill="none" stroke="midnightblue" d="M1625.22,-380.601C1783.1,-373.892 2178.66,-356.089 2509.16,-333 2542.15,-330.695 2578.76,-327.579 2609.28,-324.826"/>
<polygon fill="midnightblue" stroke="midnightblue" points="2609.74,-328.299 2619.38,-323.908 2609.1,-321.327 2609.74,-328.299"/>
</g>
<!-- Node46 -->
<g id="node46" class="node"><title>Node46</title>
<g id="a_node46"><a xlink:href="so__handle_8h.html" target="_top" xlink:title="core/sim_object/so\l_handle.h">
<polygon fill="white" stroke="black" points="1553.66,-235.5 1553.66,-265.5 1660.66,-265.5 1660.66,-235.5 1553.66,-235.5"/>
<text text-anchor="start" x="1561.66" y="-253.5" font-family="Helvetica,sans-Serif" font-size="10.00">core/sim_object/so</text>
<text text-anchor="middle" x="1607.16" y="-242.5" font-family="Helvetica,sans-Serif" font-size="10.00">_handle.h</text>
</a>
</g>
</g>
<!-- Node37&#45;&gt;Node46 -->
<g id="edge122" class="edge"><title>Node37&#45;&gt;Node46</title>
<path fill="none" stroke="midnightblue" d="M1558.57,-374.839C1566.41,-354.932 1585.95,-305.336 1597.72,-275.451"/>
<polygon fill="midnightblue" stroke="midnightblue" points="1601.12,-276.37 1601.53,-265.783 1594.61,-273.804 1601.12,-276.37"/>
</g>
<!-- Node47 -->
<g id="node47" class="node"><title>Node47</title>
<g id="a_node47"><a xlink:href="so__uid__generator_8h.html" target="_top" xlink:title="core/sim_object/so\l_uid_generator.h">
<polygon fill="white" stroke="black" points="1091.66,-302.5 1091.66,-332.5 1198.66,-332.5 1198.66,-302.5 1091.66,-302.5"/>
<text text-anchor="start" x="1099.66" y="-320.5" font-family="Helvetica,sans-Serif" font-size="10.00">core/sim_object/so</text>
<text text-anchor="middle" x="1145.16" y="-309.5" font-family="Helvetica,sans-Serif" font-size="10.00">_uid_generator.h</text>
</a>
</g>
</g>
<!-- Node37&#45;&gt;Node47 -->
<g id="edge126" class="edge"><title>Node37&#45;&gt;Node47</title>
<path fill="none" stroke="midnightblue" d="M1501.13,-374.936C1425.75,-362.985 1289.25,-341.344 1208.96,-328.615"/>
<polygon fill="midnightblue" stroke="midnightblue" points="1209.4,-325.141 1198.97,-327.032 1208.3,-332.054 1209.4,-325.141"/>
</g>
<!-- Node37&#45;&gt;Node50 -->
<g id="edge148" class="edge"><title>Node37&#45;&gt;Node50</title>
<path fill="none" stroke="midnightblue" d="M1545.58,-374.839C1521.34,-352.925 1457.3,-295.032 1426.37,-267.062"/>
<polygon fill="midnightblue" stroke="midnightblue" points="1428.35,-264.131 1418.58,-260.021 1423.65,-269.324 1428.35,-264.131"/>
</g>
<!-- Node39&#45;&gt;Node3 -->
<g id="edge88" class="edge"><title>Node39&#45;&gt;Node3</title>
<path fill="none" stroke="midnightblue" d="M2110.81,-307.942C2059.85,-287.536 1934.65,-237.526 1925.16,-235 1875.35,-221.749 1517.38,-173.676 1466.16,-168 1259.92,-145.151 1012.04,-130.444 914.996,-125.177"/>
<polygon fill="midnightblue" stroke="midnightblue" points="914.901,-121.667 904.728,-124.624 914.525,-128.657 914.901,-121.667"/>
</g>
<!-- Node39&#45;&gt;Node6 -->
<g id="edge91" class="edge"><title>Node39&#45;&gt;Node6</title>
<path fill="none" stroke="midnightblue" d="M2075.62,-315.703C1901.89,-312.881 1383.6,-301.543 1317.16,-266 1291.11,-252.069 1272.76,-221.893 1263.08,-202.426"/>
<polygon fill="midnightblue" stroke="midnightblue" points="1266.13,-200.687 1258.71,-193.124 1259.8,-203.663 1266.13,-200.687"/>
</g>
<!-- Node39&#45;&gt;Node10 -->
<g id="edge92" class="edge"><title>Node39&#45;&gt;Node10</title>
<path fill="none" stroke="midnightblue" d="M2123.33,-307.704C2113.4,-297.74 2096.87,-280.942 2083.16,-266 2044.18,-223.516 2040.35,-207.297 1998.16,-168 1986.16,-156.826 1971.45,-145.759 1959.6,-137.395"/>
<polygon fill="midnightblue" stroke="midnightblue" points="1961.4,-134.385 1951.18,-131.57 1957.41,-140.14 1961.4,-134.385"/>
</g>
<!-- Node39&#45;&gt;Node11 -->
<g id="edge105" class="edge"><title>Node39&#45;&gt;Node11</title>
<path fill="none" stroke="midnightblue" d="M2128.48,-307.758C2124.52,-297.842 2118.49,-281.088 2116.16,-266 2109.02,-219.833 2115.45,-194.153 2154.16,-168 2269.27,-90.2208 2705.24,-72.0454 2855.16,-68.0567"/>
<polygon fill="midnightblue" stroke="midnightblue" points="2855.54,-71.5482 2865.45,-67.7934 2855.36,-64.5505 2855.54,-71.5482"/>
</g>
<!-- Node39&#45;&gt;Node12 -->
<g id="edge89" class="edge"><title>Node39&#45;&gt;Node12</title>
<path fill="none" stroke="midnightblue" d="M2188.97,-314.684C2435.32,-306.762 3400.07,-275.211 3430.16,-266 3484.17,-249.465 3510.69,-248.36 3538.16,-199 3600.31,-87.2907 3367.15,-34.0726 3270.91,-17.1928"/>
<polygon fill="midnightblue" stroke="midnightblue" points="3271.4,-13.7264 3260.95,-15.4913 3270.22,-20.6263 3271.4,-13.7264"/>
</g>
<!-- Node39&#45;&gt;Node13 -->
<g id="edge90" class="edge"><title>Node39&#45;&gt;Node13</title>
<path fill="none" stroke="midnightblue" d="M2118.51,-307.849C2051.32,-265.264 1755.6,-77.8349 1672.15,-24.942"/>
<polygon fill="midnightblue" stroke="midnightblue" points="1674.01,-21.9727 1663.69,-19.5755 1670.26,-27.8852 1674.01,-21.9727"/>
</g>
<!-- Node39&#45;&gt;Node22 -->
<g id="edge85" class="edge"><title>Node39&#45;&gt;Node22</title>
<path fill="none" stroke="midnightblue" d="M2188.76,-315.404C2367.93,-311.626 2915.2,-297.599 2988.16,-266 3020.09,-252.167 3047.38,-221.016 3062.22,-201.483"/>
<polygon fill="midnightblue" stroke="midnightblue" points="3065.2,-203.326 3068.29,-193.192 3059.56,-199.187 3065.2,-203.326"/>
</g>
<!-- Node39&#45;&gt;Node25 -->
<g id="edge84" class="edge"><title>Node39&#45;&gt;Node25</title>
<path fill="none" stroke="midnightblue" d="M2134.99,-307.734C2138.1,-298.085 2143.2,-282.3 2147.21,-269.906"/>
<polygon fill="midnightblue" stroke="midnightblue" points="2150.62,-270.719 2150.37,-260.127 2143.96,-268.567 2150.62,-270.719"/>
</g>
<!-- Node39&#45;&gt;Node26 -->
<g id="edge86" class="edge"><title>Node39&#45;&gt;Node26</title>
<path fill="none" stroke="midnightblue" d="M2188.66,-314.641C2429.25,-306.672 3357.31,-275.386 3386.16,-266 3428.47,-252.232 3469.84,-219.306 3491.85,-199.778"/>
<polygon fill="midnightblue" stroke="midnightblue" points="3494.25,-202.329 3499.31,-193.017 3489.55,-197.145 3494.25,-202.329"/>
</g>
<!-- Node39&#45;&gt;Node27 -->
<g id="edge87" class="edge"><title>Node39&#45;&gt;Node27</title>
<path fill="none" stroke="midnightblue" d="M2188.87,-309.987C2256.47,-301.78 2372.66,-286.262 2471.16,-266 2572.45,-245.163 2690.05,-211.462 2746.52,-194.677"/>
<polygon fill="midnightblue" stroke="midnightblue" points="2747.75,-197.961 2756.33,-191.746 2745.75,-191.254 2747.75,-197.961"/>
</g>
<!-- Node39&#45;&gt;Node33 -->
<g id="edge93" class="edge"><title>Node39&#45;&gt;Node33</title>
<path fill="none" stroke="midnightblue" d="M2188.97,-311.825C2331.2,-300.123 2702.09,-269.606 2854.88,-257.035"/>
<polygon fill="midnightblue" stroke="midnightblue" points="2855.38,-260.506 2865.06,-256.198 2854.81,-253.53 2855.38,-260.506"/>
</g>
<!-- Node39&#45;&gt;Node35 -->
<g id="edge94" class="edge"><title>Node39&#45;&gt;Node35</title>
<path fill="none" stroke="midnightblue" d="M2095.66,-307.936C2052.37,-297.778 1979.25,-280.62 1924.97,-267.883"/>
<polygon fill="midnightblue" stroke="midnightblue" points="1925.6,-264.436 1915.07,-265.559 1924.01,-271.251 1925.6,-264.436"/>
</g>
<!-- Node39&#45;&gt;Node40 -->
<g id="edge95" class="edge"><title>Node39&#45;&gt;Node40</title>
<path fill="none" stroke="midnightblue" d="M2163.89,-307.869C2206.6,-296.254 2282.63,-275.576 2329.78,-262.753"/>
<polygon fill="midnightblue" stroke="midnightblue" points="2330.94,-266.065 2339.67,-260.064 2329.1,-259.311 2330.94,-266.065"/>
</g>
<!-- Node40&#45;&gt;Node4 -->
<g id="edge96" class="edge"><title>Node40&#45;&gt;Node4</title>
<path fill="none" stroke="midnightblue" d="M2347.39,-240.869C2316,-229.473 2260.6,-209.353 2225.17,-196.487"/>
<polygon fill="midnightblue" stroke="midnightblue" points="2226.33,-193.187 2215.74,-193.064 2223.94,-199.767 2226.33,-193.187"/>
</g>
<!-- Node40&#45;&gt;Node6 -->
<g id="edge100" class="edge"><title>Node40&#45;&gt;Node6</title>
<path fill="none" stroke="midnightblue" d="M2312.91,-244.275C2277.45,-241.233 2231.22,-237.514 2190.16,-235 1813.19,-211.916 1716.76,-238.472 1341.16,-199 1323.74,-197.17 1304.5,-194.033 1288.65,-191.145"/>
<polygon fill="midnightblue" stroke="midnightblue" points="1289.25,-187.696 1278.77,-189.298 1287.96,-194.576 1289.25,-187.696"/>
</g>
<!-- Node40&#45;&gt;Node10 -->
<g id="edge101" class="edge"><title>Node40&#45;&gt;Node10</title>
<path fill="none" stroke="midnightblue" d="M2331.27,-240.904C2278.09,-229.326 2186.89,-209.021 2154.16,-199 2117.3,-187.716 2109.45,-180.987 2073.16,-168 2039.91,-156.102 2001.7,-143.461 1974.43,-134.616"/>
<polygon fill="midnightblue" stroke="midnightblue" points="1975.51,-131.284 1964.91,-131.537 1973.35,-137.945 1975.51,-131.284"/>
</g>
<!-- Node40&#45;&gt;Node13 -->
<g id="edge98" class="edge"><title>Node40&#45;&gt;Node13</title>
<path fill="none" stroke="midnightblue" d="M2358.8,-240.938C2334.81,-224.661 2279.83,-189.005 2229.16,-168 2028.99,-85.0376 1771.77,-33.2296 1682.43,-16.7304"/>
<polygon fill="midnightblue" stroke="midnightblue" points="1682.84,-13.2489 1672.38,-14.8936 1681.59,-20.1348 1682.84,-13.2489"/>
</g>
<!-- Node40&#45;&gt;Node38 -->
<g id="edge97" class="edge"><title>Node40&#45;&gt;Node38</title>
<path fill="none" stroke="midnightblue" d="M2318.71,-240.936C2232.71,-226.89 2064.76,-199.461 1999.75,-188.843"/>
<polygon fill="midnightblue" stroke="midnightblue" points="1999.97,-185.333 1989.53,-187.175 1998.84,-192.241 1999.97,-185.333"/>
</g>
<!-- Node41 -->
<g id="node41" class="node"><title>Node41</title>
<polygon fill="white" stroke="#bfbfbf" points="2417.66,-174 2417.66,-193 2510.66,-193 2510.66,-174 2417.66,-174"/>
<text text-anchor="middle" x="2464.16" y="-181" font-family="Helvetica,sans-Serif" font-size="10.00">unordered_map</text>
</g>
<!-- Node40&#45;&gt;Node41 -->
<g id="edge99" class="edge"><title>Node40&#45;&gt;Node41</title>
<path fill="none" stroke="midnightblue" d="M2383.7,-240.734C2399.04,-230.013 2425.22,-211.716 2443.53,-198.914"/>
<polygon fill="midnightblue" stroke="midnightblue" points="2445.62,-201.725 2451.81,-193.127 2441.61,-195.987 2445.62,-201.725"/>
</g>
<!-- Node40&#45;&gt;Node42 -->
<g id="edge102" class="edge"><title>Node40&#45;&gt;Node42</title>
<path fill="none" stroke="midnightblue" d="M2429.5,-246.411C2554.93,-239.579 2859.52,-221.954 3114.16,-199 3138.79,-196.779 3166.02,-193.797 3189.08,-191.115"/>
<polygon fill="midnightblue" stroke="midnightblue" points="3189.5,-194.59 3199.02,-189.948 3188.68,-187.638 3189.5,-194.59"/>
</g>
<!-- Node43 -->
<g id="node43" class="node"><title>Node43</title>
<polygon fill="white" stroke="#bfbfbf" points="3013.16,-112.5 3013.16,-131.5 3081.16,-131.5 3081.16,-112.5 3013.16,-112.5"/>
<text text-anchor="middle" x="3047.16" y="-119.5" font-family="Helvetica,sans-Serif" font-size="10.00">type_traits</text>
</g>
<!-- Node42&#45;&gt;Node43 -->
<g id="edge103" class="edge"><title>Node42&#45;&gt;Node43</title>
<path fill="none" stroke="midnightblue" d="M3215.07,-173.975C3180.87,-163.592 3122.96,-146.012 3084.89,-134.454"/>
<polygon fill="midnightblue" stroke="midnightblue" points="3085.77,-131.065 3075.19,-131.509 3083.74,-137.763 3085.77,-131.065"/>
</g>
<!-- Node44 -->
<g id="node44" class="node"><title>Node44</title>
<g id="a_node44"><a xlink:href="shape_8h.html" target="_top" xlink:title="core/shape.h">
<polygon fill="white" stroke="black" points="3205.66,-112.5 3205.66,-131.5 3284.66,-131.5 3284.66,-112.5 3205.66,-112.5"/>
<text text-anchor="middle" x="3245.16" y="-119.5" font-family="Helvetica,sans-Serif" font-size="10.00">core/shape.h</text>
</a>
</g>
</g>
<!-- Node42&#45;&gt;Node44 -->
<g id="edge104" class="edge"><title>Node42&#45;&gt;Node44</title>
<path fill="none" stroke="midnightblue" d="M3243.44,-173.975C3243.72,-165.58 3244.16,-152.481 3244.53,-141.663"/>
<polygon fill="midnightblue" stroke="midnightblue" points="3248.03,-141.621 3244.87,-131.509 3241.04,-141.386 3248.03,-141.621"/>
</g>
<!-- Node45&#45;&gt;Node4 -->
<g id="edge110" class="edge"><title>Node45&#45;&gt;Node4</title>
<path fill="none" stroke="midnightblue" d="M2647.92,-302.489C2629.55,-292.977 2605.35,-279.681 2585.16,-266 2567.11,-253.775 2567.12,-243.744 2547.16,-235 2490.95,-210.382 2310.77,-193.731 2230.9,-187.376"/>
<polygon fill="midnightblue" stroke="midnightblue" points="2231.01,-183.875 2220.77,-186.583 2230.47,-190.853 2231.01,-183.875"/>
</g>
<!-- Node45&#45;&gt;Node6 -->
<g id="edge116" class="edge"><title>Node45&#45;&gt;Node6</title>
<path fill="none" stroke="midnightblue" d="M2619.33,-314.856C2369.54,-307.567 1380.04,-277.987 1350.16,-266 1330.87,-258.264 1330.88,-248.58 1315.16,-235 1301.22,-222.971 1285.27,-209.564 1273.32,-199.588"/>
<polygon fill="midnightblue" stroke="midnightblue" points="1275.34,-196.711 1265.41,-193 1270.86,-202.09 1275.34,-196.711"/>
</g>
<!-- Node45&#45;&gt;Node8 -->
<g id="edge109" class="edge"><title>Node45&#45;&gt;Node8</title>
<path fill="none" stroke="midnightblue" d="M2619.49,-317.228C2544.64,-316.333 2409.93,-308.223 2304.16,-266 2282.27,-257.266 2282.81,-244.283 2261.16,-235 2181.36,-200.792 2152.14,-224.534 2069.16,-199 2036.25,-188.874 2031.62,-176.096 1998.16,-168 1865.91,-136.008 1436.64,-125.8 1316.6,-123.535"/>
<polygon fill="midnightblue" stroke="midnightblue" points="1316.34,-120.029 1306.28,-123.345 1316.21,-127.028 1316.34,-120.029"/>
</g>
<!-- Node45&#45;&gt;Node9 -->
<g id="edge119" class="edge"><title>Node45&#45;&gt;Node9</title>
<path fill="none" stroke="midnightblue" d="M2619.54,-314.63C2514.18,-310.427 2292.39,-297.972 2223.16,-266 2204.89,-257.564 2208.62,-243.006 2190.16,-235 2124.7,-206.614 1643.51,-190.946 1467.99,-186.127"/>
<polygon fill="midnightblue" stroke="midnightblue" points="1467.96,-182.625 1457.87,-185.852 1467.77,-189.622 1467.96,-182.625"/>
</g>
<!-- Node45&#45;&gt;Node10 -->
<g id="edge120" class="edge"><title>Node45&#45;&gt;Node10</title>
<path fill="none" stroke="midnightblue" d="M2684.51,-302.484C2689.87,-292.652 2696.34,-278.992 2699.16,-266 2708.74,-221.849 2708.81,-194.415 2672.16,-168 2617.3,-128.466 2150.58,-123.547 1991.23,-123.026"/>
<polygon fill="midnightblue" stroke="midnightblue" points="1991.19,-119.526 1981.18,-122.998 1991.17,-126.526 1991.19,-119.526"/>
</g>
<!-- Node45&#45;&gt;Node13 -->
<g id="edge113" class="edge"><title>Node45&#45;&gt;Node13</title>
<path fill="none" stroke="midnightblue" d="M2718.88,-302.457C2766.57,-283.769 2837.16,-245.766 2837.16,-184.5 2837.16,-184.5 2837.16,-184.5 2837.16,-121 2837.16,-61.2999 1872.59,-19.8461 1682.47,-12.2551"/>
<polygon fill="midnightblue" stroke="midnightblue" points="1682.42,-8.75031 1672.29,-11.8514 1682.14,-15.7448 1682.42,-8.75031"/>
</g>
<!-- Node45&#45;&gt;Node16 -->
<g id="edge121" class="edge"><title>Node45&#45;&gt;Node16</title>
<path fill="none" stroke="midnightblue" d="M2619.38,-314.661C2529.71,-311.784 2349.77,-306.121 2197.16,-302 1522.99,-283.797 1352.2,-322.491 680.156,-266 667.396,-264.927 653.784,-263.288 640.842,-261.492"/>
<polygon fill="midnightblue" stroke="midnightblue" points="641.032,-257.983 630.636,-260.025 640.036,-264.912 641.032,-257.983"/>
</g>
<!-- Node45&#45;&gt;Node22 -->
<g id="edge107" class="edge"><title>Node45&#45;&gt;Node22</title>
<path fill="none" stroke="midnightblue" d="M2732.84,-313.815C2842.13,-308.055 3073.37,-292.81 3097.16,-266 3113.11,-248.019 3099.3,-219.762 3087.24,-201.689"/>
<polygon fill="midnightblue" stroke="midnightblue" points="3089.91,-199.398 3081.26,-193.275 3084.2,-203.454 3089.91,-199.398"/>
</g>
<!-- Node45&#45;&gt;Node30 -->
<g id="edge108" class="edge"><title>Node45&#45;&gt;Node30</title>
<path fill="none" stroke="midnightblue" d="M2732.69,-316.793C2893.03,-317.039 3341.96,-313.446 3386.16,-266 3402.19,-248.786 3390.96,-220.52 3380.66,-202.211"/>
<polygon fill="midnightblue" stroke="midnightblue" points="3383.52,-200.179 3375.36,-193.427 3377.53,-203.797 3383.52,-200.179"/>
</g>
<!-- Node45&#45;&gt;Node32 -->
<g id="edge112" class="edge"><title>Node45&#45;&gt;Node32</title>
<path fill="none" stroke="midnightblue" d="M2732.93,-315.869C2894.64,-313.616 3349.52,-303.937 3404.16,-266 3424.96,-251.553 3434.27,-222.46 3438.29,-203.23"/>
<polygon fill="midnightblue" stroke="midnightblue" points="3441.76,-203.695 3440.09,-193.233 3434.88,-202.454 3441.76,-203.695"/>
</g>
<!-- Node45&#45;&gt;Node33 -->
<g id="edge117" class="edge"><title>Node45&#45;&gt;Node33</title>
<path fill="none" stroke="midnightblue" d="M2729.23,-302.476C2767.33,-292.408 2818.84,-278.799 2859.05,-268.174"/>
<polygon fill="midnightblue" stroke="midnightblue" points="2859.98,-271.549 2868.75,-265.611 2858.19,-264.782 2859.98,-271.549"/>
</g>
<!-- Node45&#45;&gt;Node38 -->
<g id="edge111" class="edge"><title>Node45&#45;&gt;Node38</title>
<path fill="none" stroke="midnightblue" d="M2619.62,-317.298C2539.61,-316.7 2389.85,-309.16 2271.16,-266 2247.29,-257.322 2246.84,-244.167 2223.16,-235 2132.39,-199.87 2100.58,-226.282 2007.16,-199 2004.48,-198.217 2001.73,-197.282 1999.01,-196.269"/>
<polygon fill="midnightblue" stroke="midnightblue" points="2000.05,-192.915 1989.47,-192.388 1997.41,-199.399 2000.05,-192.915"/>
</g>
<!-- Node45&#45;&gt;Node41 -->
<g id="edge115" class="edge"><title>Node45&#45;&gt;Node41</title>
<path fill="none" stroke="midnightblue" d="M2663.16,-302.222C2646.48,-284.565 2616.01,-254.466 2585.16,-235 2558.93,-218.452 2526.35,-205.215 2501.61,-196.452"/>
<polygon fill="midnightblue" stroke="midnightblue" points="2502.46,-193.043 2491.86,-193.087 2500.17,-199.66 2502.46,-193.043"/>
</g>
<!-- Node45&#45;&gt;Node43 -->
<g id="edge114" class="edge"><title>Node45&#45;&gt;Node43</title>
<path fill="none" stroke="midnightblue" d="M2732.85,-315.764C2813.72,-313.376 2956.01,-303.763 2988.16,-266 2997.09,-255.508 2992.74,-247.993 2988.16,-235 2981.32,-215.624 2965.99,-218.376 2959.16,-199 2954.57,-186.007 2951.97,-179.753 2959.16,-168 2968.96,-151.971 2986.48,-141.421 3003.32,-134.596"/>
<polygon fill="midnightblue" stroke="midnightblue" points="3004.92,-137.736 3013.09,-130.994 3002.5,-131.168 3004.92,-137.736"/>
</g>
<!-- Node45&#45;&gt;Node44 -->
<g id="edge118" class="edge"><title>Node45&#45;&gt;Node44</title>
<path fill="none" stroke="midnightblue" d="M2732.78,-316.204C2884.88,-314.853 3299.58,-307.371 3429.16,-266 3483.33,-248.704 3510.4,-248.633 3538.16,-199 3544.88,-186.974 3547.13,-178.456 3538.16,-168 3507.43,-132.191 3370.38,-124.593 3295.1,-123.164"/>
<polygon fill="midnightblue" stroke="midnightblue" points="3294.96,-119.662 3284.9,-123.001 3294.85,-126.661 3294.96,-119.662"/>
</g>
<!-- Node46&#45;&gt;Node8 -->
<g id="edge123" class="edge"><title>Node46&#45;&gt;Node8</title>
<path fill="none" stroke="midnightblue" d="M1587.06,-235.443C1560.52,-217.455 1511.77,-186.426 1466.16,-168 1415.6,-147.58 1353.25,-134.554 1316.49,-128.03"/>
<polygon fill="midnightblue" stroke="midnightblue" points="1316.83,-124.538 1306.38,-126.287 1315.64,-131.436 1316.83,-124.538"/>
</g>
<!-- Node46&#45;&gt;Node10 -->
<g id="edge124" class="edge"><title>Node46&#45;&gt;Node10</title>
<path fill="none" stroke="midnightblue" d="M1635.85,-235.387C1671.5,-218.168 1734.43,-188.788 1790.16,-168 1825.42,-154.843 1866.43,-142.604 1896.33,-134.222"/>
<polygon fill="midnightblue" stroke="midnightblue" points="1897.32,-137.58 1906.02,-131.531 1895.45,-130.835 1897.32,-137.58"/>
</g>
<!-- Node47&#45;&gt;Node7 -->
<g id="edge130" class="edge"><title>Node47&#45;&gt;Node7</title>
<path fill="none" stroke="midnightblue" d="M1141.68,-302.396C1139.75,-294.56 1137.3,-284.596 1135.08,-275.565"/>
<polygon fill="midnightblue" stroke="midnightblue" points="1138.41,-274.45 1132.62,-265.577 1131.61,-276.123 1138.41,-274.45"/>
</g>
<!-- Node47&#45;&gt;Node8 -->
<g id="edge128" class="edge"><title>Node47&#45;&gt;Node8</title>
<path fill="none" stroke="midnightblue" d="M1103.75,-302.401C1087.12,-294.463 1069.66,-282.709 1060.16,-266 1053.34,-254.025 1053.14,-246.858 1060.16,-235 1101.73,-164.735 1202.73,-137.351 1254.08,-127.702"/>
<polygon fill="midnightblue" stroke="midnightblue" points="1254.71,-131.144 1263.95,-125.952 1253.49,-124.251 1254.71,-131.144"/>
</g>
<!-- Node47&#45;&gt;Node9 -->
<g id="edge139" class="edge"><title>Node47&#45;&gt;Node9</title>
<path fill="none" stroke="midnightblue" d="M1172.87,-302.374C1219.9,-278.406 1315.3,-229.785 1367.69,-203.087"/>
<polygon fill="midnightblue" stroke="midnightblue" points="1369.32,-206.184 1376.64,-198.525 1366.14,-199.947 1369.32,-206.184"/>
</g>
<!-- Node47&#45;&gt;Node10 -->
<g id="edge146" class="edge"><title>Node47&#45;&gt;Node10</title>
<path fill="none" stroke="midnightblue" d="M1198.93,-311.835C1263.51,-305.374 1374.7,-291.505 1467.16,-266 1502.72,-256.19 1509.66,-248.085 1544.16,-235 1588.71,-218.098 1600.89,-216.661 1645.16,-199 1676.76,-186.39 1682.73,-178.315 1715.16,-168 1772.02,-149.911 1839.43,-137.5 1885.13,-130.366"/>
<polygon fill="midnightblue" stroke="midnightblue" points="1885.76,-133.81 1895.12,-128.837 1884.7,-126.891 1885.76,-133.81"/>
</g>
<!-- Node47&#45;&gt;Node16 -->
<g id="edge147" class="edge"><title>Node47&#45;&gt;Node16</title>
<path fill="none" stroke="midnightblue" d="M1091.47,-313.038C999.916,-306.692 807.875,-291.458 647.156,-266 640.364,-264.924 633.224,-263.595 626.241,-262.182"/>
<polygon fill="midnightblue" stroke="midnightblue" points="626.684,-258.699 616.178,-260.072 625.247,-265.55 626.684,-258.699"/>
</g>
<!-- Node47&#45;&gt;Node17 -->
<g id="edge127" class="edge"><title>Node47&#45;&gt;Node17</title>
<path fill="none" stroke="midnightblue" d="M1091.41,-314.409C985.449,-309.677 753.481,-296.132 680.156,-266 659.675,-257.584 660.898,-245.026 641.156,-235 587.319,-207.66 567.167,-218.888 510.156,-199 508.292,-198.35 506.386,-197.647 504.474,-196.913"/>
<polygon fill="midnightblue" stroke="midnightblue" points="505.622,-193.601 495.039,-193.088 502.992,-200.089 505.622,-193.601"/>
</g>
<!-- Node47&#45;&gt;Node23 -->
<g id="edge129" class="edge"><title>Node47&#45;&gt;Node23</title>
<path fill="none" stroke="midnightblue" d="M1091.5,-313.817C953.946,-306.853 577.5,-287.258 264.156,-266 211.351,-262.418 150.132,-257.462 113.045,-254.37"/>
<polygon fill="midnightblue" stroke="midnightblue" points="113.056,-250.859 102.799,-253.513 112.472,-257.835 113.056,-250.859"/>
</g>
<!-- Node47&#45;&gt;Node46 -->
<g id="edge138" class="edge"><title>Node47&#45;&gt;Node46</title>
<path fill="none" stroke="midnightblue" d="M1199.06,-308.916C1284.86,-296.844 1452.14,-273.309 1543.64,-260.437"/>
<polygon fill="midnightblue" stroke="midnightblue" points="1544.18,-263.894 1553.6,-259.035 1543.21,-256.963 1544.18,-263.894"/>
</g>
<!-- Node47&#45;&gt;Node48 -->
<g id="edge131" class="edge"><title>Node47&#45;&gt;Node48</title>
<path fill="none" stroke="midnightblue" d="M1091.4,-307.936C1014.57,-295.696 873.94,-273.292 794.946,-260.707"/>
<polygon fill="midnightblue" stroke="midnightblue" points="795.116,-257.19 784.69,-259.073 794.015,-264.103 795.116,-257.19"/>
</g>
<!-- Node47&#45;&gt;Node50 -->
<g id="edge140" class="edge"><title>Node47&#45;&gt;Node50</title>
<path fill="none" stroke="midnightblue" d="M1198.9,-303.268C1247.67,-291.259 1318.76,-273.756 1364.49,-262.498"/>
<polygon fill="midnightblue" stroke="midnightblue" points="1365.53,-265.845 1374.41,-260.056 1363.86,-259.048 1365.53,-265.845"/>
</g>
<!-- Node48&#45;&gt;Node3 -->
<g id="edge133" class="edge"><title>Node48&#45;&gt;Node3</title>
<path fill="none" stroke="midnightblue" d="M780.179,-240.937C805.195,-233.795 835.393,-221.089 854.156,-199 867.748,-182.998 871.856,-158.658 872.976,-141.856"/>
<polygon fill="midnightblue" stroke="midnightblue" points="876.483,-141.745 873.354,-131.623 869.487,-141.487 876.483,-141.745"/>
</g>
<!-- Node48&#45;&gt;Node6 -->
<g id="edge136" class="edge"><title>Node48&#45;&gt;Node6</title>
<path fill="none" stroke="midnightblue" d="M770.47,-240.938C779.715,-238.773 789.786,-236.609 799.156,-235 955.534,-208.153 1144.65,-192.51 1220.87,-186.89"/>
<polygon fill="midnightblue" stroke="midnightblue" points="1221.56,-190.349 1231.28,-186.133 1221.05,-183.368 1221.56,-190.349"/>
</g>
<!-- Node48&#45;&gt;Node13 -->
<g id="edge135" class="edge"><title>Node48&#45;&gt;Node13</title>
<path fill="none" stroke="midnightblue" d="M739.958,-240.983C748.761,-215.784 778.516,-141.512 832.156,-112 971.309,-35.4396 1484.21,-15.7112 1618.04,-11.8205"/>
<polygon fill="midnightblue" stroke="midnightblue" points="1618.17,-15.3184 1628.07,-11.5384 1617.97,-8.32116 1618.17,-15.3184"/>
</g>
<!-- Node48&#45;&gt;Node15 -->
<g id="edge137" class="edge"><title>Node48&#45;&gt;Node15</title>
<path fill="none" stroke="midnightblue" d="M717.768,-240.869C692.679,-229.699 648.762,-210.147 619.817,-197.26"/>
<polygon fill="midnightblue" stroke="midnightblue" points="621.182,-194.037 610.623,-193.167 618.335,-200.432 621.182,-194.037"/>
</g>
<!-- Node48&#45;&gt;Node38 -->
<g id="edge134" class="edge"><title>Node48&#45;&gt;Node38</title>
<path fill="none" stroke="midnightblue" d="M784.851,-246.992C989.562,-236.226 1790.44,-194.109 1946.66,-185.894"/>
<polygon fill="midnightblue" stroke="midnightblue" points="1946.97,-189.382 1956.77,-185.362 1946.6,-182.392 1946.97,-189.382"/>
</g>
<!-- Node49 -->
<g id="node49" class="node"><title>Node49</title>
<polygon fill="white" stroke="#bfbfbf" points="795.156,-174 795.156,-193 845.156,-193 845.156,-174 795.156,-174"/>
<text text-anchor="middle" x="820.156" y="-181" font-family="Helvetica,sans-Serif" font-size="10.00">chrono</text>
</g>
<!-- Node48&#45;&gt;Node49 -->
<g id="edge132" class="edge"><title>Node48&#45;&gt;Node49</title>
<path fill="none" stroke="midnightblue" d="M748.349,-240.734C761.79,-230.208 784.556,-212.379 800.852,-199.617"/>
<polygon fill="midnightblue" stroke="midnightblue" points="803.424,-202.049 809.139,-193.127 799.108,-196.537 803.424,-202.049"/>
</g>
<!-- Node50&#45;&gt;Node3 -->
<g id="edge141" class="edge"><title>Node50&#45;&gt;Node3</title>
<path fill="none" stroke="midnightblue" d="M1397.63,-240.756C1372.09,-221.55 1311.1,-176.701 1287.16,-168 1219.42,-143.383 1006.12,-129.817 915.043,-125.019"/>
<polygon fill="midnightblue" stroke="midnightblue" points="914.984,-121.511 904.817,-124.49 914.623,-128.502 914.984,-121.511"/>
</g>
<!-- Node50&#45;&gt;Node6 -->
<g id="edge143" class="edge"><title>Node50&#45;&gt;Node6</title>
<path fill="none" stroke="midnightblue" d="M1388.71,-240.869C1362.13,-229.65 1315.52,-209.977 1284.99,-197.092"/>
<polygon fill="midnightblue" stroke="midnightblue" points="1286.26,-193.831 1275.69,-193.167 1283.54,-200.28 1286.26,-193.831"/>
</g>
<!-- Node50&#45;&gt;Node9 -->
<g id="edge144" class="edge"><title>Node50&#45;&gt;Node9</title>
<path fill="none" stroke="midnightblue" d="M1408.48,-240.734C1407.85,-232.541 1406.88,-219.923 1406.02,-208.714"/>
<polygon fill="midnightblue" stroke="midnightblue" points="1409.5,-208.291 1405.24,-198.589 1402.52,-208.828 1409.5,-208.291"/>
</g>
<!-- Node50&#45;&gt;Node10 -->
<g id="edge145" class="edge"><title>Node50&#45;&gt;Node10</title>
<path fill="none" stroke="midnightblue" d="M1441.3,-240.925C1476.89,-231.291 1535.89,-214.911 1586.16,-199 1626.09,-186.36 1634.6,-178.457 1675.16,-168 1746.79,-149.531 1831.41,-136.592 1884.92,-129.471"/>
<polygon fill="midnightblue" stroke="midnightblue" points="1885.41,-132.937 1894.87,-128.167 1884.5,-125.997 1885.41,-132.937"/>
</g>
<!-- Node50&#45;&gt;Node13 -->
<g id="edge142" class="edge"><title>Node50&#45;&gt;Node13</title>
<path fill="none" stroke="midnightblue" d="M1419.44,-240.773C1431.01,-230.871 1450.26,-214.129 1466.16,-199 1530.82,-137.472 1603.99,-60.3179 1634.99,-27.2563"/>
<polygon fill="midnightblue" stroke="midnightblue" points="1637.66,-29.5303 1641.93,-19.8372 1632.55,-24.7475 1637.66,-29.5303"/>
</g>
</g>
</svg>
