<?xml version="1.0" encoding="UTF-8" standalone="no"?>
<!DOCTYPE svg PUBLIC "-//W3C//DTD SVG 1.1//EN"
 "http://www.w3.org/Graphics/SVG/1.1/DTD/svg11.dtd">
<!-- Generated by graphviz version 2.38.0 (20140413.2041)
 -->
<!-- Title: core/util/io.cc Pages: 1 -->
<svg width="444pt" height="308pt"
 viewBox="0.00 0.00 443.72 308.00" xmlns="http://www.w3.org/2000/svg" xmlns:xlink="http://www.w3.org/1999/xlink">
<g id="graph0" class="graph" transform="scale(1 1) rotate(0) translate(4 304)">
<title>core/util/io.cc</title>
<polygon fill="white" stroke="none" points="-4,4 -4,-304 439.724,-304 439.724,4 -4,4"/>
<!-- Node1 -->
<g id="node1" class="node"><title>Node1</title>
<polygon fill="#bfbfbf" stroke="black" points="61,-280.5 61,-299.5 141,-299.5 141,-280.5 61,-280.5"/>
<text text-anchor="middle" x="101" y="-287.5" font-family="Helvetica,sans-Serif" font-size="10.00">core/util/io.cc</text>
</g>
<!-- Node2 -->
<g id="node2" class="node"><title>Node2</title>
<polygon fill="white" stroke="#bfbfbf" points="0,-224.5 0,-243.5 54,-243.5 54,-224.5 0,-224.5"/>
<text text-anchor="middle" x="27" y="-231.5" font-family="Helvetica,sans-Serif" font-size="10.00">fstream</text>
</g>
<!-- Node1&#45;&gt;Node2 -->
<g id="edge1" class="edge"><title>Node1&#45;&gt;Node2</title>
<path fill="none" stroke="midnightblue" d="M89.1106,-280.324C77.8498,-272.107 60.7134,-259.602 47.2909,-249.807"/>
<polygon fill="midnightblue" stroke="midnightblue" points="49.2468,-246.901 39.1057,-243.834 45.1205,-252.556 49.2468,-246.901"/>
</g>
<!-- Node3 -->
<g id="node3" class="node"><title>Node3</title>
<polygon fill="white" stroke="#bfbfbf" points="13.5,-56.5 13.5,-75.5 72.5,-75.5 72.5,-56.5 13.5,-56.5"/>
<text text-anchor="middle" x="43" y="-63.5" font-family="Helvetica,sans-Serif" font-size="10.00">iostream</text>
</g>
<!-- Node1&#45;&gt;Node3 -->
<g id="edge2" class="edge"><title>Node1&#45;&gt;Node3</title>
<path fill="none" stroke="midnightblue" d="M98.7263,-280.297C90.1742,-247.563 59.8187,-131.375 47.8768,-85.6664"/>
<polygon fill="midnightblue" stroke="midnightblue" points="51.2352,-84.6742 45.321,-75.8837 44.4625,-86.4437 51.2352,-84.6742"/>
</g>
<!-- Node4 -->
<g id="node4" class="node"><title>Node4</title>
<g id="a_node4"><a xlink:href="io_8h.html" target="_top" xlink:title="core/util/io.h">
<polygon fill="white" stroke="black" points="239.5,-224.5 239.5,-243.5 314.5,-243.5 314.5,-224.5 239.5,-224.5"/>
<text text-anchor="middle" x="277" y="-231.5" font-family="Helvetica,sans-Serif" font-size="10.00">core/util/io.h</text>
</a>
</g>
</g>
<!-- Node1&#45;&gt;Node4 -->
<g id="edge3" class="edge"><title>Node1&#45;&gt;Node4</title>
<path fill="none" stroke="midnightblue" d="M128.888,-280.444C158.754,-271.28 206.315,-256.688 239.456,-246.519"/>
<polygon fill="midnightblue" stroke="midnightblue" points="240.709,-249.796 249.243,-243.516 238.656,-243.104 240.709,-249.796"/>
</g>
<!-- Node9 -->
<g id="node9" class="node"><title>Node9</title>
<g id="a_node9"><a xlink:href="log_8h.html" target="_top" xlink:title="core/util/log.h">
<polygon fill="white" stroke="black" points="191.5,-112.5 191.5,-131.5 272.5,-131.5 272.5,-112.5 191.5,-112.5"/>
<text text-anchor="middle" x="232" y="-119.5" font-family="Helvetica,sans-Serif" font-size="10.00">core/util/log.h</text>
</a>
</g>
</g>
<!-- Node1&#45;&gt;Node9 -->
<g id="edge17" class="edge"><title>Node1&#45;&gt;Node9</title>
<path fill="none" stroke="midnightblue" d="M101.433,-280.259C102.944,-258.648 109.646,-201.999 139,-168 152.253,-152.65 171.94,-142.081 189.792,-135.064"/>
<polygon fill="midnightblue" stroke="midnightblue" points="191.281,-138.247 199.469,-131.524 188.875,-131.673 191.281,-138.247"/>
</g>
<!-- Node5 -->
<g id="node5" class="node"><title>Node5</title>
<polygon fill="white" stroke="#bfbfbf" points="320,-0.5 320,-19.5 364,-19.5 364,-0.5 320,-0.5"/>
<text text-anchor="middle" x="342" y="-7.5" font-family="Helvetica,sans-Serif" font-size="10.00">string</text>
</g>
<!-- Node4&#45;&gt;Node5 -->
<g id="edge4" class="edge"><title>Node4&#45;&gt;Node5</title>
<path fill="none" stroke="midnightblue" d="M314.691,-226.812C339.892,-220.852 372.133,-209.439 393,-188 429.867,-150.123 423.979,-128.082 433,-76 434.517,-67.2415 437.69,-63.551 433,-56 420.134,-35.2848 394.594,-23.8166 373.838,-17.6511"/>
<polygon fill="midnightblue" stroke="midnightblue" points="374.675,-14.252 364.109,-15.0331 372.856,-21.0115 374.675,-14.252"/>
</g>
<!-- Node6 -->
<g id="node6" class="node"><title>Node6</title>
<polygon fill="white" stroke="#bfbfbf" points="338,-168.5 338,-187.5 384,-187.5 384,-168.5 338,-168.5"/>
<text text-anchor="middle" x="361" y="-175.5" font-family="Helvetica,sans-Serif" font-size="10.00">TFile.h</text>
</g>
<!-- Node4&#45;&gt;Node6 -->
<g id="edge5" class="edge"><title>Node4&#45;&gt;Node6</title>
<path fill="none" stroke="midnightblue" d="M290.496,-224.324C303.6,-215.9 323.712,-202.971 339.107,-193.074"/>
<polygon fill="midnightblue" stroke="midnightblue" points="341.018,-196.006 347.537,-187.655 337.233,-190.118 341.018,-196.006"/>
</g>
<!-- Node7 -->
<g id="node7" class="node"><title>Node7</title>
<polygon fill="white" stroke="#bfbfbf" points="148,-168.5 148,-187.5 216,-187.5 216,-168.5 148,-168.5"/>
<text text-anchor="middle" x="182" y="-175.5" font-family="Helvetica,sans-Serif" font-size="10.00">TSystem.h</text>
</g>
<!-- Node4&#45;&gt;Node7 -->
<g id="edge6" class="edge"><title>Node4&#45;&gt;Node7</title>
<path fill="none" stroke="midnightblue" d="M261.737,-224.324C246.779,-215.822 223.745,-202.729 206.273,-192.797"/>
<polygon fill="midnightblue" stroke="midnightblue" points="207.649,-189.553 197.226,-187.655 204.19,-195.639 207.649,-189.553"/>
</g>
<!-- Node8 -->
<g id="node8" class="node"><title>Node8</title>
<g id="a_node8"><a xlink:href="root_8h.html" target="_top" xlink:title="core/util/root.h">
<polygon fill="white" stroke="black" points="234,-168.5 234,-187.5 320,-187.5 320,-168.5 234,-168.5"/>
<text text-anchor="middle" x="277" y="-175.5" font-family="Helvetica,sans-Serif" font-size="10.00">core/util/root.h</text>
</a>
</g>
</g>
<!-- Node4&#45;&gt;Node8 -->
<g id="edge7" class="edge"><title>Node4&#45;&gt;Node8</title>
<path fill="none" stroke="midnightblue" d="M277,-224.083C277,-217.006 277,-206.861 277,-197.986"/>
<polygon fill="midnightblue" stroke="midnightblue" points="280.5,-197.751 277,-187.751 273.5,-197.751 280.5,-197.751"/>
</g>
<!-- Node8&#45;&gt;Node9 -->
<g id="edge8" class="edge"><title>Node8&#45;&gt;Node9</title>
<path fill="none" stroke="midnightblue" d="M269.569,-168.083C263.147,-160.377 253.694,-149.033 245.878,-139.653"/>
<polygon fill="midnightblue" stroke="midnightblue" points="248.383,-137.193 239.293,-131.751 243.006,-141.674 248.383,-137.193"/>
</g>
<!-- Node9&#45;&gt;Node3 -->
<g id="edge12" class="edge"><title>Node9&#45;&gt;Node3</title>
<path fill="none" stroke="midnightblue" d="M202.052,-112.444C169.842,-103.241 118.466,-88.5617 82.8578,-78.3879"/>
<polygon fill="midnightblue" stroke="midnightblue" points="83.3843,-74.8984 72.8075,-75.5164 81.4612,-81.629 83.3843,-74.8984"/>
</g>
<!-- Node9&#45;&gt;Node5 -->
<g id="edge13" class="edge"><title>Node9&#45;&gt;Node5</title>
<path fill="none" stroke="midnightblue" d="M263.962,-112.409C283.601,-105.575 307.822,-94.0942 323,-76 333.97,-62.9221 338.608,-43.7712 340.568,-29.6422"/>
<polygon fill="midnightblue" stroke="midnightblue" points="344.059,-29.9135 341.636,-19.5996 337.098,-29.1736 344.059,-29.9135"/>
</g>
<!-- Node10 -->
<g id="node10" class="node"><title>Node10</title>
<polygon fill="white" stroke="#bfbfbf" points="370.5,-56.5 370.5,-75.5 423.5,-75.5 423.5,-56.5 370.5,-56.5"/>
<text text-anchor="middle" x="397" y="-63.5" font-family="Helvetica,sans-Serif" font-size="10.00">TError.h</text>
</g>
<!-- Node9&#45;&gt;Node10 -->
<g id="edge9" class="edge"><title>Node9&#45;&gt;Node10</title>
<path fill="none" stroke="midnightblue" d="M258.145,-112.444C286.023,-103.32 330.348,-88.8133 361.4,-78.6509"/>
<polygon fill="midnightblue" stroke="midnightblue" points="362.562,-81.9533 370.978,-75.5164 360.385,-75.3005 362.562,-81.9533"/>
</g>
<!-- Node11 -->
<g id="node11" class="node"><title>Node11</title>
<polygon fill="white" stroke="#bfbfbf" points="203.5,-56.5 203.5,-75.5 248.5,-75.5 248.5,-56.5 203.5,-56.5"/>
<text text-anchor="middle" x="226" y="-63.5" font-family="Helvetica,sans-Serif" font-size="10.00">cstdio</text>
</g>
<!-- Node9&#45;&gt;Node11 -->
<g id="edge10" class="edge"><title>Node9&#45;&gt;Node11</title>
<path fill="none" stroke="midnightblue" d="M231.009,-112.083C230.214,-104.927 229.071,-94.6353 228.077,-85.6911"/>
<polygon fill="midnightblue" stroke="midnightblue" points="231.555,-85.3034 226.972,-75.7511 224.598,-86.0765 231.555,-85.3034"/>
</g>
<!-- Node12 -->
<g id="node12" class="node"><title>Node12</title>
<polygon fill="white" stroke="#bfbfbf" points="266.5,-56.5 266.5,-75.5 313.5,-75.5 313.5,-56.5 266.5,-56.5"/>
<text text-anchor="middle" x="290" y="-63.5" font-family="Helvetica,sans-Serif" font-size="10.00">cstdlib</text>
</g>
<!-- Node9&#45;&gt;Node12 -->
<g id="edge11" class="edge"><title>Node9&#45;&gt;Node12</title>
<path fill="none" stroke="midnightblue" d="M241.319,-112.324C249.893,-104.341 262.812,-92.3128 273.188,-82.6529"/>
<polygon fill="midnightblue" stroke="midnightblue" points="275.578,-85.2098 280.512,-75.8339 270.808,-80.0865 275.578,-85.2098"/>
</g>
<!-- Node13 -->
<g id="node13" class="node"><title>Node13</title>
<g id="a_node13"><a xlink:href="string_8h.html" target="_top" xlink:title="core/util/string.h">
<polygon fill="white" stroke="black" points="91,-56.5 91,-75.5 185,-75.5 185,-56.5 91,-56.5"/>
<text text-anchor="middle" x="138" y="-63.5" font-family="Helvetica,sans-Serif" font-size="10.00">core/util/string.h</text>
</a>
</g>
</g>
<!-- Node9&#45;&gt;Node13 -->
<g id="edge14" class="edge"><title>Node9&#45;&gt;Node13</title>
<path fill="none" stroke="midnightblue" d="M216.897,-112.324C202.097,-103.822 179.306,-90.7288 162.018,-80.7975"/>
<polygon fill="midnightblue" stroke="midnightblue" points="163.48,-77.6009 153.065,-75.6545 159.993,-83.6707 163.48,-77.6009"/>
</g>
<!-- Node13&#45;&gt;Node5 -->
<g id="edge16" class="edge"><title>Node13&#45;&gt;Node5</title>
<path fill="none" stroke="midnightblue" d="M170.324,-56.4435C208.526,-46.3312 271.706,-29.6072 309.837,-19.5136"/>
<polygon fill="midnightblue" stroke="midnightblue" points="311.115,-22.796 319.887,-16.8536 309.324,-16.0291 311.115,-22.796"/>
</g>
<!-- Node14 -->
<g id="node14" class="node"><title>Node14</title>
<polygon fill="white" stroke="#bfbfbf" points="110,-0.5 110,-19.5 166,-19.5 166,-0.5 110,-0.5"/>
<text text-anchor="middle" x="138" y="-7.5" font-family="Helvetica,sans-Serif" font-size="10.00">sstream</text>
</g>
<!-- Node13&#45;&gt;Node14 -->
<g id="edge15" class="edge"><title>Node13&#45;&gt;Node14</title>
<path fill="none" stroke="midnightblue" d="M138,-56.083C138,-49.0059 138,-38.8611 138,-29.9865"/>
<polygon fill="midnightblue" stroke="midnightblue" points="141.5,-29.751 138,-19.7511 134.5,-29.7511 141.5,-29.751"/>
</g>
</g>
</svg>
