<?xml version="1.0" encoding="UTF-8" standalone="no"?>
<!DOCTYPE svg PUBLIC "-//W3C//DTD SVG 1.1//EN"
 "http://www.w3.org/Graphics/SVG/1.1/DTD/svg11.dtd">
<!-- Generated by graphviz version 2.38.0 (20140413.2041)
 -->
<!-- Title: core/util/io.cc Pages: 1 -->
<svg width="486pt" height="308pt"
 viewBox="0.00 0.00 485.74 308.00" xmlns="http://www.w3.org/2000/svg" xmlns:xlink="http://www.w3.org/1999/xlink">
<g id="graph0" class="graph" transform="scale(1 1) rotate(0) translate(4 304)">
<title>core/util/io.cc</title>
<polygon fill="white" stroke="none" points="-4,4 -4,-304 481.735,-304 481.735,4 -4,4"/>
<!-- Node1 -->
<g id="node1" class="node"><title>Node1</title>
<polygon fill="#bfbfbf" stroke="black" points="61,-280.5 61,-299.5 141,-299.5 141,-280.5 61,-280.5"/>
<text text-anchor="middle" x="101" y="-287.5" font-family="Helvetica,sans-Serif" font-size="10.00">core/util/io.cc</text>
</g>
<!-- Node2 -->
<g id="node2" class="node"><title>Node2</title>
<polygon fill="white" stroke="#bfbfbf" points="0,-224.5 0,-243.5 54,-243.5 54,-224.5 0,-224.5"/>
<text text-anchor="middle" x="27" y="-231.5" font-family="Helvetica,sans-Serif" font-size="10.00">fstream</text>
</g>
<!-- Node1&#45;&gt;Node2 -->
<g id="edge1" class="edge"><title>Node1&#45;&gt;Node2</title>
<path fill="none" stroke="midnightblue" d="M89.1106,-280.324C77.8498,-272.107 60.7134,-259.602 47.2909,-249.807"/>
<polygon fill="midnightblue" stroke="midnightblue" points="49.2468,-246.901 39.1057,-243.834 45.1205,-252.556 49.2468,-246.901"/>
</g>
<!-- Node3 -->
<g id="node3" class="node"><title>Node3</title>
<polygon fill="white" stroke="#bfbfbf" points="46.5,-56.5 46.5,-75.5 105.5,-75.5 105.5,-56.5 46.5,-56.5"/>
<text text-anchor="middle" x="76" y="-63.5" font-family="Helvetica,sans-Serif" font-size="10.00">iostream</text>
</g>
<!-- Node1&#45;&gt;Node3 -->
<g id="edge2" class="edge"><title>Node1&#45;&gt;Node3</title>
<path fill="none" stroke="midnightblue" d="M100.02,-280.297C96.3415,-247.633 83.3047,-131.866 78.1348,-85.9573"/>
<polygon fill="midnightblue" stroke="midnightblue" points="81.5976,-85.4292 77.0004,-75.8837 74.6415,-86.2126 81.5976,-85.4292"/>
</g>
<!-- Node4 -->
<g id="node4" class="node"><title>Node4</title>
<g id="a_node4"><a xlink:href="io_8h.html" target="_top" xlink:title="core/util/io.h">
<polygon fill="white" stroke="black" points="237.5,-224.5 237.5,-243.5 312.5,-243.5 312.5,-224.5 237.5,-224.5"/>
<text text-anchor="middle" x="275" y="-231.5" font-family="Helvetica,sans-Serif" font-size="10.00">core/util/io.h</text>
</a>
</g>
</g>
<!-- Node1&#45;&gt;Node4 -->
<g id="edge3" class="edge"><title>Node1&#45;&gt;Node4</title>
<path fill="none" stroke="midnightblue" d="M128.571,-280.444C158.097,-271.28 205.118,-256.688 237.883,-246.519"/>
<polygon fill="midnightblue" stroke="midnightblue" points="239.045,-249.823 247.558,-243.516 236.97,-243.138 239.045,-249.823"/>
</g>
<!-- Node10 -->
<g id="node10" class="node"><title>Node10</title>
<g id="a_node10"><a xlink:href="log_8h.html" target="_top" xlink:title="core/util/log.h">
<polygon fill="white" stroke="black" points="255.5,-112.5 255.5,-131.5 336.5,-131.5 336.5,-112.5 255.5,-112.5"/>
<text text-anchor="middle" x="296" y="-119.5" font-family="Helvetica,sans-Serif" font-size="10.00">core/util/log.h</text>
</a>
</g>
</g>
<!-- Node1&#45;&gt;Node10 -->
<g id="edge18" class="edge"><title>Node1&#45;&gt;Node10</title>
<path fill="none" stroke="midnightblue" d="M101.076,-280.259C101.756,-258.147 106.684,-199.513 139,-168 167.148,-140.552 210.862,-129.636 245.022,-125.396"/>
<polygon fill="midnightblue" stroke="midnightblue" points="245.725,-128.84 255.289,-124.283 244.97,-121.881 245.725,-128.84"/>
</g>
<!-- Node5 -->
<g id="node5" class="node"><title>Node5</title>
<polygon fill="white" stroke="#bfbfbf" points="424,-0.5 424,-19.5 468,-19.5 468,-0.5 424,-0.5"/>
<text text-anchor="middle" x="446" y="-7.5" font-family="Helvetica,sans-Serif" font-size="10.00">string</text>
</g>
<!-- Node4&#45;&gt;Node5 -->
<g id="edge4" class="edge"><title>Node4&#45;&gt;Node5</title>
<path fill="none" stroke="midnightblue" d="M312.854,-229.183C361.319,-223.425 441.183,-210.7 459,-188 495.895,-140.994 469.428,-63.6267 454.427,-28.8766"/>
<polygon fill="midnightblue" stroke="midnightblue" points="457.52,-27.2216 450.222,-19.5411 451.138,-30.0963 457.52,-27.2216"/>
</g>
<!-- Node6 -->
<g id="node6" class="node"><title>Node6</title>
<polygon fill="white" stroke="#bfbfbf" points="148.5,-168.5 148.5,-187.5 195.5,-187.5 195.5,-168.5 148.5,-168.5"/>
<text text-anchor="middle" x="172" y="-175.5" font-family="Helvetica,sans-Serif" font-size="10.00">vector</text>
</g>
<!-- Node4&#45;&gt;Node6 -->
<g id="edge5" class="edge"><title>Node4&#45;&gt;Node6</title>
<path fill="none" stroke="midnightblue" d="M258.451,-224.324C242.008,-215.703 216.565,-202.364 197.532,-192.386"/>
<polygon fill="midnightblue" stroke="midnightblue" points="198.989,-189.198 188.508,-187.655 195.739,-195.398 198.989,-189.198"/>
</g>
<!-- Node7 -->
<g id="node7" class="node"><title>Node7</title>
<polygon fill="white" stroke="#bfbfbf" points="214,-168.5 214,-187.5 260,-187.5 260,-168.5 214,-168.5"/>
<text text-anchor="middle" x="237" y="-175.5" font-family="Helvetica,sans-Serif" font-size="10.00">TFile.h</text>
</g>
<!-- Node4&#45;&gt;Node7 -->
<g id="edge6" class="edge"><title>Node4&#45;&gt;Node7</title>
<path fill="none" stroke="midnightblue" d="M268.725,-224.083C263.358,-216.455 255.482,-205.264 248.921,-195.941"/>
<polygon fill="midnightblue" stroke="midnightblue" points="251.775,-193.915 243.158,-187.751 246.051,-197.943 251.775,-193.915"/>
</g>
<!-- Node8 -->
<g id="node8" class="node"><title>Node8</title>
<polygon fill="white" stroke="#bfbfbf" points="278,-168.5 278,-187.5 346,-187.5 346,-168.5 278,-168.5"/>
<text text-anchor="middle" x="312" y="-175.5" font-family="Helvetica,sans-Serif" font-size="10.00">TSystem.h</text>
</g>
<!-- Node4&#45;&gt;Node8 -->
<g id="edge7" class="edge"><title>Node4&#45;&gt;Node8</title>
<path fill="none" stroke="midnightblue" d="M281.11,-224.083C286.282,-216.534 293.846,-205.495 300.194,-196.23"/>
<polygon fill="midnightblue" stroke="midnightblue" points="303.239,-197.979 306.004,-187.751 297.464,-194.022 303.239,-197.979"/>
</g>
<!-- Node9 -->
<g id="node9" class="node"><title>Node9</title>
<g id="a_node9"><a xlink:href="root_8h.html" target="_top" xlink:title="core/util/root.h">
<polygon fill="white" stroke="black" points="364,-168.5 364,-187.5 450,-187.5 450,-168.5 364,-168.5"/>
<text text-anchor="middle" x="407" y="-175.5" font-family="Helvetica,sans-Serif" font-size="10.00">core/util/root.h</text>
</a>
</g>
</g>
<!-- Node4&#45;&gt;Node9 -->
<g id="edge8" class="edge"><title>Node4&#45;&gt;Node9</title>
<path fill="none" stroke="midnightblue" d="M295.916,-224.444C317.736,-215.517 352.15,-201.439 376.892,-191.317"/>
<polygon fill="midnightblue" stroke="midnightblue" points="378.252,-194.542 386.182,-187.516 375.601,-188.063 378.252,-194.542"/>
</g>
<!-- Node9&#45;&gt;Node10 -->
<g id="edge9" class="edge"><title>Node9&#45;&gt;Node10</title>
<path fill="none" stroke="midnightblue" d="M389.166,-168.324C371.284,-159.625 343.525,-146.12 322.954,-136.113"/>
<polygon fill="midnightblue" stroke="midnightblue" points="324.313,-132.882 313.79,-131.655 321.251,-139.177 324.313,-132.882"/>
</g>
<!-- Node10&#45;&gt;Node3 -->
<g id="edge13" class="edge"><title>Node10&#45;&gt;Node3</title>
<path fill="none" stroke="midnightblue" d="M261.14,-112.444C221.517,-102.718 156.976,-86.876 115.516,-76.6993"/>
<polygon fill="midnightblue" stroke="midnightblue" points="116.304,-73.2889 105.758,-74.3042 114.635,-80.0871 116.304,-73.2889"/>
</g>
<!-- Node10&#45;&gt;Node5 -->
<g id="edge14" class="edge"><title>Node10&#45;&gt;Node5</title>
<path fill="none" stroke="midnightblue" d="M336.77,-116.871C365.695,-111.845 403.422,-100.701 427,-76 438.786,-63.6526 443.315,-44.4036 445.027,-30.0528"/>
<polygon fill="midnightblue" stroke="midnightblue" points="448.537,-30.0758 445.881,-19.8193 441.561,-29.4935 448.537,-30.0758"/>
</g>
<!-- Node11 -->
<g id="node11" class="node"><title>Node11</title>
<polygon fill="white" stroke="#bfbfbf" points="236.5,-56.5 236.5,-75.5 289.5,-75.5 289.5,-56.5 236.5,-56.5"/>
<text text-anchor="middle" x="263" y="-63.5" font-family="Helvetica,sans-Serif" font-size="10.00">TError.h</text>
</g>
<!-- Node10&#45;&gt;Node11 -->
<g id="edge10" class="edge"><title>Node10&#45;&gt;Node11</title>
<path fill="none" stroke="midnightblue" d="M290.551,-112.083C285.986,-104.613 279.332,-93.7244 273.707,-84.5199"/>
<polygon fill="midnightblue" stroke="midnightblue" points="276.549,-82.4588 268.348,-75.7511 270.576,-86.109 276.549,-82.4588"/>
</g>
<!-- Node12 -->
<g id="node12" class="node"><title>Node12</title>
<polygon fill="white" stroke="#bfbfbf" points="307.5,-56.5 307.5,-75.5 352.5,-75.5 352.5,-56.5 307.5,-56.5"/>
<text text-anchor="middle" x="330" y="-63.5" font-family="Helvetica,sans-Serif" font-size="10.00">cstdio</text>
</g>
<!-- Node10&#45;&gt;Node12 -->
<g id="edge11" class="edge"><title>Node10&#45;&gt;Node12</title>
<path fill="none" stroke="midnightblue" d="M301.614,-112.083C306.367,-104.534 313.318,-93.4948 319.152,-84.2298"/>
<polygon fill="midnightblue" stroke="midnightblue" points="322.124,-86.0783 324.49,-75.7511 316.2,-82.3486 322.124,-86.0783"/>
</g>
<!-- Node13 -->
<g id="node13" class="node"><title>Node13</title>
<polygon fill="white" stroke="#bfbfbf" points="370.5,-56.5 370.5,-75.5 417.5,-75.5 417.5,-56.5 370.5,-56.5"/>
<text text-anchor="middle" x="394" y="-63.5" font-family="Helvetica,sans-Serif" font-size="10.00">cstdlib</text>
</g>
<!-- Node10&#45;&gt;Node13 -->
<g id="edge12" class="edge"><title>Node10&#45;&gt;Node13</title>
<path fill="none" stroke="midnightblue" d="M311.745,-112.324C327.319,-103.743 351.377,-90.486 369.459,-80.5224"/>
<polygon fill="midnightblue" stroke="midnightblue" points="371.224,-83.546 378.294,-75.6545 367.846,-77.4152 371.224,-83.546"/>
</g>
<!-- Node14 -->
<g id="node14" class="node"><title>Node14</title>
<g id="a_node14"><a xlink:href="string_8h.html" target="_top" xlink:title="core/util/string.h">
<polygon fill="white" stroke="black" points="124,-56.5 124,-75.5 218,-75.5 218,-56.5 124,-56.5"/>
<text text-anchor="middle" x="171" y="-63.5" font-family="Helvetica,sans-Serif" font-size="10.00">core/util/string.h</text>
</a>
</g>
</g>
<!-- Node10&#45;&gt;Node14 -->
<g id="edge15" class="edge"><title>Node10&#45;&gt;Node14</title>
<path fill="none" stroke="midnightblue" d="M276.193,-112.444C255.713,-103.596 223.517,-89.6875 200.135,-79.5865"/>
<polygon fill="midnightblue" stroke="midnightblue" points="201.282,-76.2692 190.714,-75.5164 198.506,-82.6953 201.282,-76.2692"/>
</g>
<!-- Node14&#45;&gt;Node5 -->
<g id="edge17" class="edge"><title>Node14&#45;&gt;Node5</title>
<path fill="none" stroke="midnightblue" d="M214.575,-56.4435C270.026,-45.5549 364.516,-27.0005 413.854,-17.3123"/>
<polygon fill="midnightblue" stroke="midnightblue" points="414.814,-20.6907 423.952,-15.3294 413.465,-13.8219 414.814,-20.6907"/>
</g>
<!-- Node15 -->
<g id="node15" class="node"><title>Node15</title>
<polygon fill="white" stroke="#bfbfbf" points="143,-0.5 143,-19.5 199,-19.5 199,-0.5 143,-0.5"/>
<text text-anchor="middle" x="171" y="-7.5" font-family="Helvetica,sans-Serif" font-size="10.00">sstream</text>
</g>
<!-- Node14&#45;&gt;Node15 -->
<g id="edge16" class="edge"><title>Node14&#45;&gt;Node15</title>
<path fill="none" stroke="midnightblue" d="M171,-56.083C171,-49.0059 171,-38.8611 171,-29.9865"/>
<polygon fill="midnightblue" stroke="midnightblue" points="174.5,-29.751 171,-19.7511 167.5,-29.7511 174.5,-29.751"/>
</g>
</g>
</svg>
