<?xml version="1.0" encoding="UTF-8" standalone="no"?>
<!DOCTYPE svg PUBLIC "-//W3C//DTD SVG 1.1//EN"
 "http://www.w3.org/Graphics/SVG/1.1/DTD/svg11.dtd">
<!-- Generated by graphviz version 2.38.0 (20140413.2041)
 -->
<!-- Title: core/util/math.h Pages: 1 -->
<svg width="2145pt" height="475pt"
 viewBox="0.00 0.00 2145.00 475.00" xmlns="http://www.w3.org/2000/svg" xmlns:xlink="http://www.w3.org/1999/xlink">
<g id="graph0" class="graph" transform="scale(1 1) rotate(0) translate(4 471)">
<title>core/util/math.h</title>
<polygon fill="white" stroke="none" points="-4,4 -4,-471 2141,-471 2141,4 -4,4"/>
<!-- Node1 -->
<g id="node1" class="node"><title>Node1</title>
<polygon fill="#bfbfbf" stroke="black" points="1285.5,-447.5 1285.5,-466.5 1377.5,-466.5 1377.5,-447.5 1285.5,-447.5"/>
<text text-anchor="middle" x="1331.5" y="-454.5" font-family="Helvetica,sans-Serif" font-size="10.00">core/util/math.h</text>
</g>
<!-- Node2 -->
<g id="node2" class="node"><title>Node2</title>
<g id="a_node2"><a xlink:href="cell_8h.html" target="_top" xlink:title="core/sim_object/cell.h">
<polygon fill="white" stroke="black" points="1377.5,-386 1377.5,-405 1497.5,-405 1497.5,-386 1377.5,-386"/>
<text text-anchor="middle" x="1437.5" y="-393" font-family="Helvetica,sans-Serif" font-size="10.00">core/sim_object/cell.h</text>
</a>
</g>
</g>
<!-- Node1&#45;&gt;Node2 -->
<g id="edge1" class="edge"><title>Node1&#45;&gt;Node2</title>
<path fill="none" stroke="midnightblue" d="M1355.45,-442.556C1375.96,-431.042 1404.88,-414.811 1422.34,-405.009"/>
<polygon fill="midnightblue" stroke="midnightblue" points="1353.69,-439.528 1346.69,-447.475 1357.12,-445.632 1353.69,-439.528"/>
</g>
<!-- Node6 -->
<g id="node6" class="node"><title>Node6</title>
<g id="a_node6"><a xlink:href="neurite__element_8h.html" target="_top" xlink:title="neuroscience/neurite\l_element.h">
<polygon fill="white" stroke="black" points="1741,-246.5 1741,-276.5 1858,-276.5 1858,-246.5 1741,-246.5"/>
<text text-anchor="start" x="1749" y="-264.5" font-family="Helvetica,sans-Serif" font-size="10.00">neuroscience/neurite</text>
<text text-anchor="middle" x="1799.5" y="-253.5" font-family="Helvetica,sans-Serif" font-size="10.00">_element.h</text>
</a>
</g>
</g>
<!-- Node1&#45;&gt;Node6 -->
<g id="edge59" class="edge"><title>Node1&#45;&gt;Node6</title>
<path fill="none" stroke="midnightblue" d="M1387.86,-451.652C1504.51,-441.359 1766.01,-411.156 1819.5,-344 1835.11,-324.399 1820.72,-294.346 1809.59,-276.735"/>
<polygon fill="midnightblue" stroke="midnightblue" points="1387.36,-448.181 1377.7,-452.53 1387.97,-455.155 1387.36,-448.181"/>
</g>
<!-- Node7 -->
<g id="node7" class="node"><title>Node7</title>
<g id="a_node7"><a xlink:href="root_2adaptor_8h.html" target="_top" xlink:title="core/visualization\l/root/adaptor.h">
<polygon fill="white" stroke="black" points="1177,-179.5 1177,-209.5 1276,-209.5 1276,-179.5 1177,-179.5"/>
<text text-anchor="start" x="1185" y="-197.5" font-family="Helvetica,sans-Serif" font-size="10.00">core/visualization</text>
<text text-anchor="middle" x="1226.5" y="-186.5" font-family="Helvetica,sans-Serif" font-size="10.00">/root/adaptor.h</text>
</a>
</g>
</g>
<!-- Node1&#45;&gt;Node7 -->
<g id="edge58" class="edge"><title>Node1&#45;&gt;Node7</title>
<path fill="none" stroke="midnightblue" d="M1315.73,-439.887C1296.7,-419.422 1265.31,-382.156 1249.5,-344 1230.23,-297.484 1226.94,-236.702 1226.49,-209.603"/>
<polygon fill="midnightblue" stroke="midnightblue" points="1313.39,-442.508 1322.82,-447.348 1318.47,-437.687 1313.39,-442.508"/>
</g>
<!-- Node11 -->
<g id="node11" class="node"><title>Node11</title>
<g id="a_node11"><a xlink:href="default__force_8cc.html" target="_top" xlink:title="core/default_force.cc">
<polygon fill="white" stroke="black" points="1963.5,-185 1963.5,-204 2079.5,-204 2079.5,-185 1963.5,-185"/>
<text text-anchor="middle" x="2021.5" y="-192" font-family="Helvetica,sans-Serif" font-size="10.00">core/default_force.cc</text>
</a>
</g>
</g>
<!-- Node1&#45;&gt;Node11 -->
<g id="edge60" class="edge"><title>Node1&#45;&gt;Node11</title>
<path fill="none" stroke="midnightblue" d="M1387.77,-452.882C1482.89,-447.084 1671.18,-433.178 1733.5,-411 1862.93,-364.939 1982.6,-238.893 2013.69,-204.354"/>
<polygon fill="midnightblue" stroke="midnightblue" points="1387.53,-449.39 1377.76,-453.484 1387.95,-456.378 1387.53,-449.39"/>
</g>
<!-- Node19 -->
<g id="node19" class="node"><title>Node19</title>
<g id="a_node19"><a xlink:href="diffusion__grid_8h.html" target="_top" xlink:title="core/diffusion_grid.h">
<polygon fill="white" stroke="black" points="919,-386 919,-405 1032,-405 1032,-386 919,-386"/>
<text text-anchor="middle" x="975.5" y="-393" font-family="Helvetica,sans-Serif" font-size="10.00">core/diffusion_grid.h</text>
</a>
</g>
</g>
<!-- Node1&#45;&gt;Node19 -->
<g id="edge23" class="edge"><title>Node1&#45;&gt;Node19</title>
<path fill="none" stroke="midnightblue" d="M1275.17,-446.585C1206.76,-435.152 1092.38,-416.035 1026.48,-405.021"/>
<polygon fill="midnightblue" stroke="midnightblue" points="1274.88,-450.086 1285.32,-448.282 1276.04,-443.182 1274.88,-450.086"/>
</g>
<!-- Node25 -->
<g id="node25" class="node"><title>Node25</title>
<g id="a_node25"><a xlink:href="displacement__op__cpu_8h.html" target="_top" xlink:title="core/operation/displacement\l_op_cpu.h">
<polygon fill="white" stroke="black" points="211.5,-112.5 211.5,-142.5 365.5,-142.5 365.5,-112.5 211.5,-112.5"/>
<text text-anchor="start" x="219.5" y="-130.5" font-family="Helvetica,sans-Serif" font-size="10.00">core/operation/displacement</text>
<text text-anchor="middle" x="288.5" y="-119.5" font-family="Helvetica,sans-Serif" font-size="10.00">_op_cpu.h</text>
</a>
</g>
</g>
<!-- Node1&#45;&gt;Node25 -->
<g id="edge63" class="edge"><title>Node1&#45;&gt;Node25</title>
<path fill="none" stroke="midnightblue" d="M1275.31,-455.942C1040.94,-454.973 153.5,-443.759 153.5,-329.5 153.5,-329.5 153.5,-329.5 153.5,-260.5 153.5,-203.136 216.586,-162.516 256.507,-142.554"/>
<polygon fill="midnightblue" stroke="midnightblue" points="1275.31,-459.442 1285.32,-455.979 1275.33,-452.442 1275.31,-459.442"/>
</g>
<!-- Node33 -->
<g id="node33" class="node"><title>Node33</title>
<g id="a_node33"><a xlink:href="displacement__op__cuda__kernel_8h.html" target="_top" xlink:title="core/gpu/displacement\l_op_cuda_kernel.h">
<polygon fill="white" stroke="black" points="1071.5,-380.5 1071.5,-410.5 1197.5,-410.5 1197.5,-380.5 1071.5,-380.5"/>
<text text-anchor="start" x="1079.5" y="-398.5" font-family="Helvetica,sans-Serif" font-size="10.00">core/gpu/displacement</text>
<text text-anchor="middle" x="1134.5" y="-387.5" font-family="Helvetica,sans-Serif" font-size="10.00">_op_cuda_kernel.h</text>
</a>
</g>
</g>
<!-- Node1&#45;&gt;Node33 -->
<g id="edge61" class="edge"><title>Node1&#45;&gt;Node33</title>
<path fill="none" stroke="midnightblue" d="M1293.37,-444.483C1261.25,-434.782 1215.19,-420.871 1180.93,-410.523"/>
<polygon fill="midnightblue" stroke="midnightblue" points="1292.69,-447.934 1303.27,-447.475 1294.71,-441.233 1292.69,-447.934"/>
</g>
<!-- Node34 -->
<g id="node34" class="node"><title>Node34</title>
<g id="a_node34"><a xlink:href="timing__aggregator_8h.html" target="_top" xlink:title="core/util/timing_aggregator.h">
<polygon fill="white" stroke="black" points="1973,-386 1973,-405 2128,-405 2128,-386 1973,-386"/>
<text text-anchor="middle" x="2050.5" y="-393" font-family="Helvetica,sans-Serif" font-size="10.00">core/util/timing_aggregator.h</text>
</a>
</g>
</g>
<!-- Node1&#45;&gt;Node34 -->
<g id="edge64" class="edge"><title>Node1&#45;&gt;Node34</title>
<path fill="none" stroke="midnightblue" d="M1387.72,-453.19C1496.31,-447.477 1742.37,-433.142 1948.5,-411 1963.79,-409.357 1980.32,-407.182 1995.53,-405.017"/>
<polygon fill="midnightblue" stroke="midnightblue" points="1387.45,-449.699 1377.65,-453.716 1387.82,-456.69 1387.45,-449.699"/>
</g>
<!-- Node3 -->
<g id="node3" class="node"><title>Node3</title>
<g id="a_node3"><a xlink:href="grow__divide_8h.html" target="_top" xlink:title="core/biology_module\l/grow_divide.h">
<polygon fill="white" stroke="black" points="1492.5,-246.5 1492.5,-276.5 1608.5,-276.5 1608.5,-246.5 1492.5,-246.5"/>
<text text-anchor="start" x="1500.5" y="-264.5" font-family="Helvetica,sans-Serif" font-size="10.00">core/biology_module</text>
<text text-anchor="middle" x="1550.5" y="-253.5" font-family="Helvetica,sans-Serif" font-size="10.00">/grow_divide.h</text>
</a>
</g>
</g>
<!-- Node2&#45;&gt;Node3 -->
<g id="edge2" class="edge"><title>Node2&#45;&gt;Node3</title>
<path fill="none" stroke="midnightblue" d="M1507.78,-386.728C1561.25,-379.197 1628.45,-365.68 1645.5,-344 1654.02,-333.169 1652.6,-324.809 1645.5,-313 1635.3,-296.029 1617.26,-284.454 1599.62,-276.716"/>
<polygon fill="midnightblue" stroke="midnightblue" points="1507.07,-383.293 1497.63,-388.11 1508.01,-390.229 1507.07,-383.293"/>
</g>
<!-- Node4 -->
<g id="node4" class="node"><title>Node4</title>
<g id="a_node4"><a xlink:href="biodynamo_8h.html" target="_top" xlink:title="biodynamo.h">
<polygon fill="white" stroke="black" points="1245,-56.5 1245,-75.5 1324,-75.5 1324,-56.5 1245,-56.5"/>
<text text-anchor="middle" x="1284.5" y="-63.5" font-family="Helvetica,sans-Serif" font-size="10.00">biodynamo.h</text>
</a>
</g>
</g>
<!-- Node2&#45;&gt;Node4 -->
<g id="edge4" class="edge"><title>Node2&#45;&gt;Node4</title>
<path fill="none" stroke="midnightblue" d="M1376.95,-382.853C1355.39,-375.476 1333.31,-363.477 1320.5,-344 1312.93,-332.488 1313.19,-324.681 1320.5,-313 1339.9,-281.993 1375.1,-308.007 1394.5,-277 1433.39,-214.829 1435.38,-172.885 1394.5,-112 1378.86,-88.7019 1348.79,-77.4579 1324.04,-72.0358"/>
<polygon fill="midnightblue" stroke="midnightblue" points="1376.19,-386.283 1386.78,-385.928 1378.28,-379.602 1376.19,-386.283"/>
</g>
<!-- Node5 -->
<g id="node5" class="node"><title>Node5</title>
<g id="a_node5"><a xlink:href="neuron__soma_8h.html" target="_top" xlink:title="neuroscience/neuron\l_soma.h">
<polygon fill="white" stroke="black" points="1694,-313.5 1694,-343.5 1811,-343.5 1811,-313.5 1694,-313.5"/>
<text text-anchor="start" x="1702" y="-331.5" font-family="Helvetica,sans-Serif" font-size="10.00">neuroscience/neuron</text>
<text text-anchor="middle" x="1752.5" y="-320.5" font-family="Helvetica,sans-Serif" font-size="10.00">_soma.h</text>
</a>
</g>
</g>
<!-- Node2&#45;&gt;Node5 -->
<g id="edge5" class="edge"><title>Node2&#45;&gt;Node5</title>
<path fill="none" stroke="midnightblue" d="M1489.09,-383.855C1545.25,-372.267 1634.89,-353.77 1693.72,-341.628"/>
<polygon fill="midnightblue" stroke="midnightblue" points="1488.09,-380.487 1479,-385.936 1489.51,-387.342 1488.09,-380.487"/>
</g>
<!-- Node15 -->
<g id="node15" class="node"><title>Node15</title>
<g id="a_node15"><a xlink:href="exporter_8cc.html" target="_top" xlink:title="core/exporter.cc">
<polygon fill="white" stroke="black" points="1291.5,-252 1291.5,-271 1385.5,-271 1385.5,-252 1291.5,-252"/>
<text text-anchor="middle" x="1338.5" y="-259" font-family="Helvetica,sans-Serif" font-size="10.00">core/exporter.cc</text>
</a>
</g>
</g>
<!-- Node2&#45;&gt;Node15 -->
<g id="edge19" class="edge"><title>Node2&#45;&gt;Node15</title>
<path fill="none" stroke="midnightblue" d="M1450.74,-377.881C1462.86,-360.504 1477.01,-333.026 1463.5,-313 1446.16,-287.29 1413.28,-274.665 1385.6,-268.468"/>
<polygon fill="midnightblue" stroke="midnightblue" points="1447.9,-375.838 1444.75,-385.954 1453.52,-380.011 1447.9,-375.838"/>
</g>
<!-- Node16 -->
<g id="node16" class="node"><title>Node16</title>
<g id="a_node16"><a xlink:href="displacement__op__cuda_8h.html" target="_top" xlink:title="core/operation/displacement\l_op_cuda.h">
<polygon fill="white" stroke="black" points="1059.5,-112.5 1059.5,-142.5 1213.5,-142.5 1213.5,-112.5 1059.5,-112.5"/>
<text text-anchor="start" x="1067.5" y="-130.5" font-family="Helvetica,sans-Serif" font-size="10.00">core/operation/displacement</text>
<text text-anchor="middle" x="1136.5" y="-119.5" font-family="Helvetica,sans-Serif" font-size="10.00">_op_cuda.h</text>
</a>
</g>
</g>
<!-- Node2&#45;&gt;Node16 -->
<g id="edge20" class="edge"><title>Node2&#45;&gt;Node16</title>
<path fill="none" stroke="midnightblue" d="M1367.36,-387.824C1338.11,-381.283 1306.58,-368.568 1287.5,-344 1250.96,-296.95 1282.85,-269.548 1284.5,-210 1284.88,-196.228 1292.52,-190.206 1284.5,-179 1268.07,-156.036 1240.57,-143.396 1213.69,-136.482"/>
<polygon fill="midnightblue" stroke="midnightblue" points="1366.67,-391.256 1377.17,-389.813 1368.07,-384.395 1366.67,-391.256"/>
</g>
<!-- Node17 -->
<g id="node17" class="node"><title>Node17</title>
<g id="a_node17"><a xlink:href="dividing__cell__op_8h.html" target="_top" xlink:title="core/operation/dividing\l_cell_op.h">
<polygon fill="white" stroke="black" points="1330,-313.5 1330,-343.5 1455,-343.5 1455,-313.5 1330,-313.5"/>
<text text-anchor="start" x="1338" y="-331.5" font-family="Helvetica,sans-Serif" font-size="10.00">core/operation/dividing</text>
<text text-anchor="middle" x="1392.5" y="-320.5" font-family="Helvetica,sans-Serif" font-size="10.00">_cell_op.h</text>
</a>
</g>
</g>
<!-- Node2&#45;&gt;Node17 -->
<g id="edge21" class="edge"><title>Node2&#45;&gt;Node17</title>
<path fill="none" stroke="midnightblue" d="M1425.63,-377.355C1418.34,-366.824 1409.12,-353.502 1402.25,-343.589"/>
<polygon fill="midnightblue" stroke="midnightblue" points="1422.86,-379.504 1431.43,-385.734 1428.62,-375.52 1422.86,-379.504"/>
</g>
<!-- Node18 -->
<g id="node18" class="node"><title>Node18</title>
<g id="a_node18"><a xlink:href="cell_8cc.html" target="_top" xlink:title="core/sim_object/cell.cc">
<polygon fill="white" stroke="black" points="1512,-319 1512,-338 1637,-338 1637,-319 1512,-319"/>
<text text-anchor="middle" x="1574.5" y="-326" font-family="Helvetica,sans-Serif" font-size="10.00">core/sim_object/cell.cc</text>
</a>
</g>
</g>
<!-- Node2&#45;&gt;Node18 -->
<g id="edge22" class="edge"><title>Node2&#45;&gt;Node18</title>
<path fill="none" stroke="midnightblue" d="M1465.02,-381.444C1492.15,-368.569 1532.86,-349.257 1556.23,-338.167"/>
<polygon fill="midnightblue" stroke="midnightblue" points="1463.23,-378.42 1455.69,-385.869 1466.23,-384.744 1463.23,-378.42"/>
</g>
<!-- Node3&#45;&gt;Node4 -->
<g id="edge3" class="edge"><title>Node3&#45;&gt;Node4</title>
<path fill="none" stroke="midnightblue" d="M1532.1,-238.412C1524.76,-229.581 1516.22,-219.313 1508.5,-210 1472.43,-166.499 1474.38,-143.555 1427.5,-112 1396.19,-90.926 1354.47,-79.2882 1324.18,-73.158"/>
<polygon fill="midnightblue" stroke="midnightblue" points="1529.63,-240.914 1538.72,-246.361 1535.01,-236.435 1529.63,-240.914"/>
</g>
<!-- Node5&#45;&gt;Node6 -->
<g id="edge6" class="edge"><title>Node5&#45;&gt;Node6</title>
<path fill="none" stroke="midnightblue" d="M1768.66,-305.157C1775.51,-295.679 1783.29,-284.919 1789.32,-276.577"/>
<polygon fill="midnightblue" stroke="midnightblue" points="1765.72,-303.242 1762.7,-313.396 1771.39,-307.343 1765.72,-303.242"/>
</g>
<!-- Node12 -->
<g id="node12" class="node"><title>Node12</title>
<g id="a_node12"><a xlink:href="neuron__or__neurite_8cc.html" target="_top" xlink:title="neuroscience/neuron\l_or_neurite.cc">
<polygon fill="white" stroke="black" points="1828,-179.5 1828,-209.5 1945,-209.5 1945,-179.5 1828,-179.5"/>
<text text-anchor="start" x="1836" y="-197.5" font-family="Helvetica,sans-Serif" font-size="10.00">neuroscience/neuron</text>
<text text-anchor="middle" x="1886.5" y="-186.5" font-family="Helvetica,sans-Serif" font-size="10.00">_or_neurite.cc</text>
</a>
</g>
</g>
<!-- Node5&#45;&gt;Node12 -->
<g id="edge16" class="edge"><title>Node5&#45;&gt;Node12</title>
<path fill="none" stroke="midnightblue" d="M1819.69,-309.603C1837.07,-302.075 1854.3,-291.562 1866.5,-277 1882.68,-257.677 1886.13,-227.251 1886.66,-209.553"/>
<polygon fill="midnightblue" stroke="midnightblue" points="1818.02,-306.502 1810.06,-313.485 1820.64,-312.996 1818.02,-306.502"/>
</g>
<!-- Node13 -->
<g id="node13" class="node"><title>Node13</title>
<g id="a_node13"><a xlink:href="neuron__soma_8cc.html" target="_top" xlink:title="neuroscience/neuron\l_soma.cc">
<polygon fill="white" stroke="black" points="1518,-179.5 1518,-209.5 1635,-209.5 1635,-179.5 1518,-179.5"/>
<text text-anchor="start" x="1526" y="-197.5" font-family="Helvetica,sans-Serif" font-size="10.00">neuroscience/neuron</text>
<text text-anchor="middle" x="1576.5" y="-186.5" font-family="Helvetica,sans-Serif" font-size="10.00">_soma.cc</text>
</a>
</g>
</g>
<!-- Node5&#45;&gt;Node13 -->
<g id="edge17" class="edge"><title>Node5&#45;&gt;Node13</title>
<path fill="none" stroke="midnightblue" d="M1725.54,-307.282C1689.48,-280.237 1626.47,-232.977 1595.2,-209.525"/>
<polygon fill="midnightblue" stroke="midnightblue" points="1723.56,-310.174 1733.66,-313.374 1727.76,-304.574 1723.56,-310.174"/>
</g>
<!-- Node14 -->
<g id="node14" class="node"><title>Node14</title>
<g id="a_node14"><a xlink:href="neuroscience_8h.html" target="_top" xlink:title="neuroscience/neuroscience.h">
<polygon fill="white" stroke="black" points="1653.5,-185 1653.5,-204 1809.5,-204 1809.5,-185 1653.5,-185"/>
<text text-anchor="middle" x="1731.5" y="-192" font-family="Helvetica,sans-Serif" font-size="10.00">neuroscience/neuroscience.h</text>
</a>
</g>
</g>
<!-- Node5&#45;&gt;Node14 -->
<g id="edge18" class="edge"><title>Node5&#45;&gt;Node14</title>
<path fill="none" stroke="midnightblue" d="M1740.59,-304.265C1736.91,-295.896 1733.34,-286.236 1731.5,-277 1726.29,-250.914 1728.73,-219.188 1730.4,-204.175"/>
<polygon fill="midnightblue" stroke="midnightblue" points="1737.45,-305.82 1744.86,-313.393 1743.79,-302.853 1737.45,-305.82"/>
</g>
<!-- Node6&#45;&gt;Node7 -->
<g id="edge7" class="edge"><title>Node6&#45;&gt;Node7</title>
<path fill="none" stroke="midnightblue" d="M1730.61,-252.685C1613.63,-239.415 1378.9,-212.787 1276.35,-201.155"/>
<polygon fill="midnightblue" stroke="midnightblue" points="1730.54,-256.2 1740.87,-253.849 1731.33,-249.244 1730.54,-256.2"/>
</g>
<!-- Node6&#45;&gt;Node11 -->
<g id="edge12" class="edge"><title>Node6&#45;&gt;Node11</title>
<path fill="none" stroke="midnightblue" d="M1857.25,-243.59C1900.61,-230.896 1958.17,-214.043 1992.37,-204.029"/>
<polygon fill="midnightblue" stroke="midnightblue" points="1856.01,-240.307 1847.4,-246.476 1857.98,-247.025 1856.01,-240.307"/>
</g>
<!-- Node6&#45;&gt;Node12 -->
<g id="edge13" class="edge"><title>Node6&#45;&gt;Node12</title>
<path fill="none" stroke="midnightblue" d="M1826.71,-240.168C1840.02,-230.228 1855.7,-218.514 1867.66,-209.577"/>
<polygon fill="midnightblue" stroke="midnightblue" points="1824.29,-237.607 1818.38,-246.396 1828.48,-243.215 1824.29,-237.607"/>
</g>
<!-- Node6&#45;&gt;Node13 -->
<g id="edge14" class="edge"><title>Node6&#45;&gt;Node13</title>
<path fill="none" stroke="midnightblue" d="M1741.45,-243.58C1705.23,-233.022 1659.15,-219.592 1624.91,-209.611"/>
<polygon fill="midnightblue" stroke="midnightblue" points="1740.81,-247.038 1751.39,-246.476 1742.77,-240.317 1740.81,-247.038"/>
</g>
<!-- Node6&#45;&gt;Node14 -->
<g id="edge15" class="edge"><title>Node6&#45;&gt;Node14</title>
<path fill="none" stroke="midnightblue" d="M1777.36,-239.335C1764.87,-227.401 1749.95,-213.136 1740.6,-204.195"/>
<polygon fill="midnightblue" stroke="midnightblue" points="1775.1,-242.016 1784.75,-246.396 1779.93,-236.956 1775.1,-242.016"/>
</g>
<!-- Node8 -->
<g id="node8" class="node"><title>Node8</title>
<g id="a_node8"><a xlink:href="notebook__util_8h.html" target="_top" xlink:title="core/visualization\l/root/notebook_util.h">
<polygon fill="white" stroke="black" points="1269.5,-112.5 1269.5,-142.5 1385.5,-142.5 1385.5,-112.5 1269.5,-112.5"/>
<text text-anchor="start" x="1277.5" y="-130.5" font-family="Helvetica,sans-Serif" font-size="10.00">core/visualization</text>
<text text-anchor="middle" x="1327.5" y="-119.5" font-family="Helvetica,sans-Serif" font-size="10.00">/root/notebook_util.h</text>
</a>
</g>
</g>
<!-- Node7&#45;&gt;Node8 -->
<g id="edge8" class="edge"><title>Node7&#45;&gt;Node8</title>
<path fill="none" stroke="midnightblue" d="M1257.21,-173.734C1272.84,-163.676 1291.47,-151.685 1305.63,-142.577"/>
<polygon fill="midnightblue" stroke="midnightblue" points="1254.93,-171.041 1248.42,-179.396 1258.72,-176.927 1254.93,-171.041"/>
</g>
<!-- Node9 -->
<g id="node9" class="node"><title>Node9</title>
<g id="a_node9"><a xlink:href="scheduler_8cc.html" target="_top" xlink:title="core/scheduler.cc">
<polygon fill="white" stroke="black" points="451.5,-0.5 451.5,-19.5 551.5,-19.5 551.5,-0.5 451.5,-0.5"/>
<text text-anchor="middle" x="501.5" y="-7.5" font-family="Helvetica,sans-Serif" font-size="10.00">core/scheduler.cc</text>
</a>
</g>
</g>
<!-- Node7&#45;&gt;Node9 -->
<g id="edge10" class="edge"><title>Node7&#45;&gt;Node9</title>
<path fill="none" stroke="midnightblue" d="M1286.56,-192.5C1324.09,-188.366 1369.83,-176.174 1394.5,-143 1429.52,-95.8987 1334,-56.6251 1332.5,-56 1260.59,-26.0762 720.27,-14.6362 551.625,-11.7719"/>
<polygon fill="midnightblue" stroke="midnightblue" points="1285.85,-189.051 1276.22,-193.463 1286.5,-196.021 1285.85,-189.051"/>
</g>
<!-- Node10 -->
<g id="node10" class="node"><title>Node10</title>
<g id="a_node10"><a xlink:href="simulation_8cc.html" target="_top" xlink:title="core/simulation.cc">
<polygon fill="white" stroke="black" points="899.5,-118 899.5,-137 1003.5,-137 1003.5,-118 899.5,-118"/>
<text text-anchor="middle" x="951.5" y="-125" font-family="Helvetica,sans-Serif" font-size="10.00">core/simulation.cc</text>
</a>
</g>
</g>
<!-- Node7&#45;&gt;Node10 -->
<g id="edge11" class="edge"><title>Node7&#45;&gt;Node10</title>
<path fill="none" stroke="midnightblue" d="M1166.81,-179.392C1112.27,-166.499 1033.37,-147.851 987.77,-137.073"/>
<polygon fill="midnightblue" stroke="midnightblue" points="1166.16,-182.835 1176.7,-181.729 1167.77,-176.023 1166.16,-182.835"/>
</g>
<!-- Node8&#45;&gt;Node4 -->
<g id="edge9" class="edge"><title>Node8&#45;&gt;Node4</title>
<path fill="none" stroke="midnightblue" d="M1311.31,-104.104C1304.15,-94.1868 1296.14,-83.1062 1290.76,-75.6578"/>
<polygon fill="midnightblue" stroke="midnightblue" points="1308.62,-106.344 1317.31,-112.399 1314.29,-102.244 1308.62,-106.344"/>
</g>
<!-- Node20 -->
<g id="node20" class="node"><title>Node20</title>
<g id="a_node20"><a xlink:href="resource__manager_8h.html" target="_top" xlink:title="core/resource_manager.h">
<polygon fill="white" stroke="black" points="741.5,-319 741.5,-338 881.5,-338 881.5,-319 741.5,-319"/>
<text text-anchor="middle" x="811.5" y="-326" font-family="Helvetica,sans-Serif" font-size="10.00">core/resource_manager.h</text>
</a>
</g>
</g>
<!-- Node19&#45;&gt;Node20 -->
<g id="edge24" class="edge"><title>Node19&#45;&gt;Node20</title>
<path fill="none" stroke="midnightblue" d="M944.224,-382.104C911.662,-369.198 861.525,-349.327 833.107,-338.064"/>
<polygon fill="midnightblue" stroke="midnightblue" points="943.136,-385.438 953.722,-385.869 945.715,-378.93 943.136,-385.438"/>
</g>
<!-- Node24 -->
<g id="node24" class="node"><title>Node24</title>
<g id="a_node24"><a xlink:href="diffusion__op_8h.html" target="_top" xlink:title="core/operation/diffusion_op.h">
<polygon fill="white" stroke="black" points="0,-118 0,-137 155,-137 155,-118 0,-118"/>
<text text-anchor="middle" x="77.5" y="-125" font-family="Helvetica,sans-Serif" font-size="10.00">core/operation/diffusion_op.h</text>
</a>
</g>
</g>
<!-- Node19&#45;&gt;Node24 -->
<g id="edge56" class="edge"><title>Node19&#45;&gt;Node24</title>
<path fill="none" stroke="midnightblue" d="M908.602,-392.224C733.313,-385.161 265.381,-358.924 137.5,-277 87.8632,-245.201 79.2899,-164.229 77.8091,-137.334"/>
<polygon fill="midnightblue" stroke="midnightblue" points="908.594,-395.726 918.724,-392.623 908.87,-388.731 908.594,-395.726"/>
</g>
<!-- Node29 -->
<g id="node29" class="node"><title>Node29</title>
<g id="a_node29"><a xlink:href="model__initializer_8h.html" target="_top" xlink:title="core/model_initializer.h">
<polygon fill="white" stroke="black" points="994.5,-252 994.5,-271 1120.5,-271 1120.5,-252 994.5,-252"/>
<text text-anchor="middle" x="1057.5" y="-259" font-family="Helvetica,sans-Serif" font-size="10.00">core/model_initializer.h</text>
</a>
</g>
</g>
<!-- Node19&#45;&gt;Node29 -->
<g id="edge55" class="edge"><title>Node19&#45;&gt;Node29</title>
<path fill="none" stroke="midnightblue" d="M1013.44,-382.006C1031.06,-374.079 1050.33,-361.874 1060.5,-344 1073.88,-320.496 1065.62,-286.697 1060.57,-271.049"/>
<polygon fill="midnightblue" stroke="midnightblue" points="1011.77,-378.907 1003.88,-385.979 1014.46,-385.371 1011.77,-378.907"/>
</g>
<!-- Node32 -->
<g id="node32" class="node"><title>Node32</title>
<g id="a_node32"><a xlink:href="substance__initializers_8h.html" target="_top" xlink:title="core/substance_initializers.h">
<polygon fill="white" stroke="black" points="899.5,-319 899.5,-338 1051.5,-338 1051.5,-319 899.5,-319"/>
<text text-anchor="middle" x="975.5" y="-326" font-family="Helvetica,sans-Serif" font-size="10.00">core/substance_initializers.h</text>
</a>
</g>
</g>
<!-- Node19&#45;&gt;Node32 -->
<g id="edge57" class="edge"><title>Node19&#45;&gt;Node32</title>
<path fill="none" stroke="midnightblue" d="M975.5,-375.537C975.5,-363.17 975.5,-347.62 975.5,-338.127"/>
<polygon fill="midnightblue" stroke="midnightblue" points="972,-375.734 975.5,-385.734 979,-375.734 972,-375.734"/>
</g>
<!-- Node20&#45;&gt;Node4 -->
<g id="edge42" class="edge"><title>Node20&#45;&gt;Node4</title>
<path fill="none" stroke="midnightblue" d="M830.178,-312.147C842.112,-302.247 857.853,-289.022 871.5,-277 881.649,-268.06 1038.43,-118.093 1050.5,-112 1113.47,-80.2222 1196.36,-70.8124 1244.7,-68.0717"/>
<polygon fill="midnightblue" stroke="midnightblue" points="827.723,-309.635 822.245,-318.703 832.183,-315.031 827.723,-309.635"/>
</g>
<!-- Node20&#45;&gt;Node7 -->
<g id="edge43" class="edge"><title>Node20&#45;&gt;Node7</title>
<path fill="none" stroke="midnightblue" d="M866.603,-317.153C874.613,-315.717 882.763,-314.292 890.5,-313 996.452,-295.301 1031.6,-321.208 1129.5,-277 1164.78,-261.069 1197.4,-228.521 1214.34,-209.735"/>
<polygon fill="midnightblue" stroke="midnightblue" points="865.791,-313.743 856.575,-318.969 867.039,-320.631 865.791,-313.743"/>
</g>
<!-- Node20&#45;&gt;Node9 -->
<g id="edge49" class="edge"><title>Node20&#45;&gt;Node9</title>
<path fill="none" stroke="midnightblue" d="M731.066,-323.113C660.071,-317.515 554.484,-304.943 466.5,-277 341.09,-237.171 271.339,-255.139 202.5,-143 144.093,-47.8545 352.076,-20.9888 451.478,-13.6495"/>
<polygon fill="midnightblue" stroke="midnightblue" points="731.047,-326.622 741.284,-323.89 731.577,-319.642 731.047,-326.622"/>
</g>
<!-- Node20&#45;&gt;Node10 -->
<g id="edge51" class="edge"><title>Node20&#45;&gt;Node10</title>
<path fill="none" stroke="midnightblue" d="M823.322,-310.147C842.324,-282.324 880.936,-226.077 914.5,-179 925.1,-164.132 937.722,-147.03 945.147,-137.029"/>
<polygon fill="midnightblue" stroke="midnightblue" points="820.203,-308.508 817.459,-318.741 825.985,-312.453 820.203,-308.508"/>
</g>
<!-- Node20&#45;&gt;Node13 -->
<g id="edge54" class="edge"><title>Node20&#45;&gt;Node13</title>
<path fill="none" stroke="midnightblue" d="M863.243,-317.16C872.301,-315.591 881.655,-314.124 890.5,-313 1113.28,-284.686 1176.7,-331.725 1394.5,-277 1454.1,-262.025 1518.55,-228.635 1552.47,-209.566"/>
<polygon fill="midnightblue" stroke="midnightblue" points="862.412,-313.753 853.185,-318.961 863.646,-320.643 862.412,-313.753"/>
</g>
<!-- Node20&#45;&gt;Node15 -->
<g id="edge45" class="edge"><title>Node20&#45;&gt;Node15</title>
<path fill="none" stroke="midnightblue" d="M864.801,-317.198C873.378,-315.69 882.172,-314.232 890.5,-313 929.456,-307.236 1184.03,-279.325 1291.14,-267.651"/>
<polygon fill="midnightblue" stroke="midnightblue" points="864.097,-313.768 854.873,-318.981 865.334,-320.658 864.097,-313.768"/>
</g>
<!-- Node20&#45;&gt;Node16 -->
<g id="edge47" class="edge"><title>Node20&#45;&gt;Node16</title>
<path fill="none" stroke="midnightblue" d="M850.187,-315.829C876.98,-306.979 912.99,-293.531 942.5,-277 952.029,-271.662 1071.84,-178.758 1118.28,-142.671"/>
<polygon fill="midnightblue" stroke="midnightblue" points="848.841,-312.586 840.403,-318.993 850.995,-319.246 848.841,-312.586"/>
</g>
<!-- Node21 -->
<g id="node21" class="node"><title>Node21</title>
<g id="a_node21"><a xlink:href="sim__object__vector_8h.html" target="_top" xlink:title="core/container/sim\l_object_vector.h">
<polygon fill="white" stroke="black" points="714.5,-246.5 714.5,-276.5 820.5,-276.5 820.5,-246.5 714.5,-246.5"/>
<text text-anchor="start" x="722.5" y="-264.5" font-family="Helvetica,sans-Serif" font-size="10.00">core/container/sim</text>
<text text-anchor="middle" x="767.5" y="-253.5" font-family="Helvetica,sans-Serif" font-size="10.00">_object_vector.h</text>
</a>
</g>
</g>
<!-- Node20&#45;&gt;Node21 -->
<g id="edge25" class="edge"><title>Node20&#45;&gt;Node21</title>
<path fill="none" stroke="midnightblue" d="M799.894,-310.355C792.766,-299.824 783.747,-286.502 777.037,-276.589"/>
<polygon fill="midnightblue" stroke="midnightblue" points="797.062,-312.415 805.566,-318.734 802.859,-308.491 797.062,-312.415"/>
</g>
<!-- Node22 -->
<g id="node22" class="node"><title>Node22</title>
<g id="a_node22"><a xlink:href="grid_8h.html" target="_top" xlink:title="core/grid.h">
<polygon fill="white" stroke="black" points="670.5,-185 670.5,-204 738.5,-204 738.5,-185 670.5,-185"/>
<text text-anchor="middle" x="704.5" y="-192" font-family="Helvetica,sans-Serif" font-size="10.00">core/grid.h</text>
</a>
</g>
</g>
<!-- Node20&#45;&gt;Node22 -->
<g id="edge39" class="edge"><title>Node20&#45;&gt;Node22</title>
<path fill="none" stroke="midnightblue" d="M760.181,-315.753C739.553,-308.256 717.783,-296.195 705.5,-277 690.933,-254.235 697.546,-220.072 701.843,-204.191"/>
<polygon fill="midnightblue" stroke="midnightblue" points="759.26,-319.136 769.854,-318.982 761.477,-312.496 759.26,-319.136"/>
</g>
<!-- Node23 -->
<g id="node23" class="node"><title>Node23</title>
<g id="a_node23"><a xlink:href="in__place__exec__ctxt_8cc.html" target="_top" xlink:title="core/execution_context\l/in_place_exec_ctxt.cc">
<polygon fill="white" stroke="black" points="383.5,-112.5 383.5,-142.5 511.5,-142.5 511.5,-112.5 383.5,-112.5"/>
<text text-anchor="start" x="391.5" y="-130.5" font-family="Helvetica,sans-Serif" font-size="10.00">core/execution_context</text>
<text text-anchor="middle" x="447.5" y="-119.5" font-family="Helvetica,sans-Serif" font-size="10.00">/in_place_exec_ctxt.cc</text>
</a>
</g>
</g>
<!-- Node20&#45;&gt;Node23 -->
<g id="edge44" class="edge"><title>Node20&#45;&gt;Node23</title>
<path fill="none" stroke="midnightblue" d="M731.102,-324.243C648.78,-319.286 528.125,-307 493.5,-277 453.111,-242.006 447.681,-172.31 447.294,-142.525"/>
<polygon fill="midnightblue" stroke="midnightblue" points="731.008,-327.744 741.193,-324.826 731.412,-320.755 731.008,-327.744"/>
</g>
<!-- Node20&#45;&gt;Node24 -->
<g id="edge46" class="edge"><title>Node20&#45;&gt;Node24</title>
<path fill="none" stroke="midnightblue" d="M731.215,-324.982C571.285,-319.408 224.231,-304.306 177.5,-277 120.607,-243.756 89.364,-163.732 80.3048,-137.206"/>
<polygon fill="midnightblue" stroke="midnightblue" points="731.359,-328.489 741.473,-325.336 731.6,-321.494 731.359,-328.489"/>
</g>
<!-- Node27 -->
<g id="node27" class="node"><title>Node27</title>
<g id="a_node27"><a xlink:href="resource__manager_8cc.html" target="_top" xlink:title="core/resource_manager.cc">
<polygon fill="white" stroke="black" points="529.5,-118 529.5,-137 673.5,-137 673.5,-118 529.5,-118"/>
<text text-anchor="middle" x="601.5" y="-125" font-family="Helvetica,sans-Serif" font-size="10.00">core/resource_manager.cc</text>
</a>
</g>
</g>
<!-- Node20&#45;&gt;Node27 -->
<g id="edge48" class="edge"><title>Node20&#45;&gt;Node27</title>
<path fill="none" stroke="midnightblue" d="M767.905,-315.928C743.964,-307.938 714.883,-295.389 693.5,-277 645.212,-235.473 614.238,-162.149 604.667,-137.139"/>
<polygon fill="midnightblue" stroke="midnightblue" points="766.884,-319.276 777.475,-318.974 769.008,-312.606 766.884,-319.276"/>
</g>
<!-- Node28 -->
<g id="node28" class="node"><title>Node28</title>
<g id="a_node28"><a xlink:href="sim__object_8cc.html" target="_top" xlink:title="core/sim_object/sim\l_object.cc">
<polygon fill="white" stroke="black" points="768,-112.5 768,-142.5 881,-142.5 881,-112.5 768,-112.5"/>
<text text-anchor="start" x="776" y="-130.5" font-family="Helvetica,sans-Serif" font-size="10.00">core/sim_object/sim</text>
<text text-anchor="middle" x="824.5" y="-119.5" font-family="Helvetica,sans-Serif" font-size="10.00">_object.cc</text>
</a>
</g>
</g>
<!-- Node20&#45;&gt;Node28 -->
<g id="edge50" class="edge"><title>Node20&#45;&gt;Node28</title>
<path fill="none" stroke="midnightblue" d="M819.674,-309.348C823.482,-299.91 827.588,-288.062 829.5,-277 837.938,-228.196 830.906,-169.067 826.863,-142.552"/>
<polygon fill="midnightblue" stroke="midnightblue" points="816.342,-308.238 815.634,-318.809 822.78,-310.987 816.342,-308.238"/>
</g>
<!-- Node20&#45;&gt;Node29 -->
<g id="edge40" class="edge"><title>Node20&#45;&gt;Node29</title>
<path fill="none" stroke="midnightblue" d="M853.799,-316.323C902.374,-303.489 981.006,-282.712 1025.02,-271.083"/>
<polygon fill="midnightblue" stroke="midnightblue" points="852.687,-312.997 843.913,-318.936 854.476,-319.765 852.687,-312.997"/>
</g>
<!-- Node30 -->
<g id="node30" class="node"><title>Node30</title>
<g id="a_node30"><a xlink:href="paraview_2adaptor_8h.html" target="_top" xlink:title="core/visualization\l/paraview/adaptor.h">
<polygon fill="white" stroke="black" points="502.5,-246.5 502.5,-276.5 612.5,-276.5 612.5,-246.5 502.5,-246.5"/>
<text text-anchor="start" x="510.5" y="-264.5" font-family="Helvetica,sans-Serif" font-size="10.00">core/visualization</text>
<text text-anchor="middle" x="557.5" y="-253.5" font-family="Helvetica,sans-Serif" font-size="10.00">/paraview/adaptor.h</text>
</a>
</g>
</g>
<!-- Node20&#45;&gt;Node30 -->
<g id="edge52" class="edge"><title>Node20&#45;&gt;Node30</title>
<path fill="none" stroke="midnightblue" d="M768.156,-316.408C725.153,-305.403 659.098,-288.499 612.439,-276.559"/>
<polygon fill="midnightblue" stroke="midnightblue" points="767.477,-319.847 778.033,-318.936 769.213,-313.066 767.477,-319.847"/>
</g>
<!-- Node21&#45;&gt;Node22 -->
<g id="edge26" class="edge"><title>Node21&#45;&gt;Node22</title>
<path fill="none" stroke="midnightblue" d="M746.658,-238.997C735.159,-227.132 721.512,-213.052 712.927,-204.195"/>
<polygon fill="midnightblue" stroke="midnightblue" points="744.357,-241.651 753.83,-246.396 749.383,-236.779 744.357,-241.651"/>
</g>
<!-- Node22&#45;&gt;Node4 -->
<g id="edge27" class="edge"><title>Node22&#45;&gt;Node4</title>
<path fill="none" stroke="midnightblue" d="M710.935,-175.476C718.874,-156.152 734.36,-126.323 758.5,-112 800.03,-87.3597 1129.67,-72.7915 1244.9,-68.4113"/>
<polygon fill="midnightblue" stroke="midnightblue" points="707.608,-174.375 707.294,-184.965 714.144,-176.883 707.608,-174.375"/>
</g>
<!-- Node22&#45;&gt;Node10 -->
<g id="edge38" class="edge"><title>Node22&#45;&gt;Node10</title>
<path fill="none" stroke="midnightblue" d="M746.971,-182.323C795.743,-169.489 874.695,-148.712 918.883,-137.083"/>
<polygon fill="midnightblue" stroke="midnightblue" points="745.825,-179.006 737.045,-184.936 747.606,-185.775 745.825,-179.006"/>
</g>
<!-- Node22&#45;&gt;Node16 -->
<g id="edge35" class="edge"><title>Node22&#45;&gt;Node16</title>
<path fill="none" stroke="midnightblue" d="M749.005,-186.804C822.16,-175.797 968.712,-153.746 1059.13,-140.141"/>
<polygon fill="midnightblue" stroke="midnightblue" points="748.127,-183.396 738.759,-188.345 749.169,-190.318 748.127,-183.396"/>
</g>
<!-- Node22&#45;&gt;Node23 -->
<g id="edge28" class="edge"><title>Node22&#45;&gt;Node23</title>
<path fill="none" stroke="midnightblue" d="M660.92,-182.478C617.415,-171.475 550.397,-154.525 503.088,-142.559"/>
<polygon fill="midnightblue" stroke="midnightblue" points="660.085,-185.877 670.637,-184.936 661.801,-179.09 660.085,-185.877"/>
</g>
<!-- Node22&#45;&gt;Node24 -->
<g id="edge29" class="edge"><title>Node22&#45;&gt;Node24</title>
<path fill="none" stroke="midnightblue" d="M660.327,-184.941C648.107,-182.778 634.819,-180.614 622.5,-179 436.736,-154.664 388.906,-161.796 202.5,-143 184.785,-141.214 165.68,-139.095 147.866,-137.037"/>
<polygon fill="midnightblue" stroke="midnightblue" points="659.831,-188.409 670.294,-186.746 661.078,-181.521 659.831,-188.409"/>
</g>
<!-- Node22&#45;&gt;Node25 -->
<g id="edge31" class="edge"><title>Node22&#45;&gt;Node25</title>
<path fill="none" stroke="midnightblue" d="M660.257,-185.419C648.037,-183.257 634.766,-180.974 622.5,-179 512.538,-161.301 484.532,-160.26 374.5,-143 371.658,-142.554 368.764,-142.095 365.842,-141.626"/>
<polygon fill="midnightblue" stroke="midnightblue" points="659.77,-188.887 670.229,-187.197 660.998,-181.996 659.77,-188.887"/>
</g>
<!-- Node26 -->
<g id="node26" class="node"><title>Node26</title>
<g id="a_node26"><a xlink:href="displacement__op_8h.html" target="_top" xlink:title="core/operation/displacement_op.h">
<polygon fill="white" stroke="black" points="411.5,-56.5 411.5,-75.5 591.5,-75.5 591.5,-56.5 411.5,-56.5"/>
<text text-anchor="middle" x="501.5" y="-63.5" font-family="Helvetica,sans-Serif" font-size="10.00">core/operation/displacement_op.h</text>
</a>
</g>
</g>
<!-- Node22&#45;&gt;Node26 -->
<g id="edge34" class="edge"><title>Node22&#45;&gt;Node26</title>
<path fill="none" stroke="midnightblue" d="M704.615,-174.865C703.689,-156.375 699.315,-128.482 682.5,-112 665.562,-95.3968 608.735,-83.0596 563.22,-75.5431"/>
<polygon fill="midnightblue" stroke="midnightblue" points="701.118,-175.052 704.827,-184.977 708.117,-174.906 701.118,-175.052"/>
</g>
<!-- Node22&#45;&gt;Node27 -->
<g id="edge36" class="edge"><title>Node22&#45;&gt;Node27</title>
<path fill="none" stroke="midnightblue" d="M681.949,-179.269C661.561,-166.403 632.208,-147.879 615.171,-137.127"/>
<polygon fill="midnightblue" stroke="midnightblue" points="680.284,-182.357 690.609,-184.734 684.02,-176.437 680.284,-182.357"/>
</g>
<!-- Node22&#45;&gt;Node28 -->
<g id="edge37" class="edge"><title>Node22&#45;&gt;Node28</title>
<path fill="none" stroke="midnightblue" d="M729.605,-179.902C749.794,-168.966 778.063,-153.653 798.49,-142.589"/>
<polygon fill="midnightblue" stroke="midnightblue" points="727.81,-176.893 720.684,-184.734 731.144,-183.048 727.81,-176.893"/>
</g>
<!-- Node24&#45;&gt;Node9 -->
<g id="edge30" class="edge"><title>Node24&#45;&gt;Node9</title>
<path fill="none" stroke="midnightblue" d="M93.025,-110.422C110.099,-93.823 139.165,-68.6218 169.5,-56 219.377,-35.2476 371.663,-20.9191 451.487,-14.618"/>
<polygon fill="midnightblue" stroke="midnightblue" points="90.2539,-108.243 85.6532,-117.787 95.2013,-113.195 90.2539,-108.243"/>
</g>
<!-- Node25&#45;&gt;Node26 -->
<g id="edge32" class="edge"><title>Node25&#45;&gt;Node26</title>
<path fill="none" stroke="midnightblue" d="M348.352,-109.781C388.306,-98.62 439.176,-84.4098 471.049,-75.5064"/>
<polygon fill="midnightblue" stroke="midnightblue" points="347.398,-106.413 338.708,-112.475 349.281,-113.155 347.398,-106.413"/>
</g>
<!-- Node26&#45;&gt;Node9 -->
<g id="edge33" class="edge"><title>Node26&#45;&gt;Node9</title>
<path fill="none" stroke="midnightblue" d="M501.5,-45.8045C501.5,-36.9102 501.5,-26.7798 501.5,-19.7511"/>
<polygon fill="midnightblue" stroke="midnightblue" points="498,-46.083 501.5,-56.083 505,-46.083 498,-46.083"/>
</g>
<!-- Node29&#45;&gt;Node4 -->
<g id="edge41" class="edge"><title>Node29&#45;&gt;Node4</title>
<path fill="none" stroke="midnightblue" d="M1076.68,-245.761C1098.44,-229.167 1135.11,-201.573 1167.5,-179 1191.47,-162.297 1200.79,-162.549 1222.5,-143 1246.29,-121.579 1268.58,-90.633 1278.74,-75.7041"/>
<polygon fill="midnightblue" stroke="midnightblue" points="1074.4,-243.097 1068.59,-251.952 1078.66,-248.657 1074.4,-243.097"/>
</g>
<!-- Node31 -->
<g id="node31" class="node"><title>Node31</title>
<g id="a_node31"><a xlink:href="adaptor_8cc.html" target="_top" xlink:title="core/visualization\l/paraview/adaptor.cc">
<polygon fill="white" stroke="black" points="499,-179.5 499,-209.5 614,-209.5 614,-179.5 499,-179.5"/>
<text text-anchor="start" x="507" y="-197.5" font-family="Helvetica,sans-Serif" font-size="10.00">core/visualization</text>
<text text-anchor="middle" x="556.5" y="-186.5" font-family="Helvetica,sans-Serif" font-size="10.00">/paraview/adaptor.cc</text>
</a>
</g>
</g>
<!-- Node30&#45;&gt;Node31 -->
<g id="edge53" class="edge"><title>Node30&#45;&gt;Node31</title>
<path fill="none" stroke="midnightblue" d="M557.125,-236.108C556.987,-227.154 556.836,-217.323 556.717,-209.577"/>
<polygon fill="midnightblue" stroke="midnightblue" points="553.63,-236.451 557.283,-246.396 560.629,-236.343 553.63,-236.451"/>
</g>
<!-- Node33&#45;&gt;Node16 -->
<g id="edge62" class="edge"><title>Node33&#45;&gt;Node16</title>
<path fill="none" stroke="midnightblue" d="M1134.68,-370.065C1135.09,-315.572 1136.07,-185.521 1136.39,-142.549"/>
<polygon fill="midnightblue" stroke="midnightblue" points="1131.18,-370.173 1134.61,-380.199 1138.18,-370.225 1131.18,-370.173"/>
</g>
<!-- Node35 -->
<g id="node35" class="node"><title>Node35</title>
<g id="a_node35"><a xlink:href="timing_8h.html" target="_top" xlink:title="core/util/timing.h">
<polygon fill="white" stroke="black" points="2040,-319 2040,-338 2137,-338 2137,-319 2040,-319"/>
<text text-anchor="middle" x="2088.5" y="-326" font-family="Helvetica,sans-Serif" font-size="10.00">core/util/timing.h</text>
</a>
</g>
</g>
<!-- Node34&#45;&gt;Node35 -->
<g id="edge65" class="edge"><title>Node34&#45;&gt;Node35</title>
<path fill="none" stroke="midnightblue" d="M2060.71,-377.035C2068.07,-364.45 2077.68,-348.007 2083.46,-338.127"/>
<polygon fill="midnightblue" stroke="midnightblue" points="2057.65,-375.334 2055.62,-385.734 2063.69,-378.867 2057.65,-375.334"/>
</g>
<!-- Node36 -->
<g id="node36" class="node"><title>Node36</title>
<g id="a_node36"><a xlink:href="op__timer_8h.html" target="_top" xlink:title="core/operation/op_timer.h">
<polygon fill="white" stroke="black" points="1758.5,-56.5 1758.5,-75.5 1898.5,-75.5 1898.5,-56.5 1758.5,-56.5"/>
<text text-anchor="middle" x="1828.5" y="-63.5" font-family="Helvetica,sans-Serif" font-size="10.00">core/operation/op_timer.h</text>
</a>
</g>
</g>
<!-- Node35&#45;&gt;Node36 -->
<g id="edge66" class="edge"><title>Node35&#45;&gt;Node36</title>
<path fill="none" stroke="midnightblue" d="M2094.51,-308.92C2103,-278.861 2114.76,-218.912 2088.5,-179 2046.28,-114.849 1958.74,-87.2842 1896.93,-75.5427"/>
<polygon fill="midnightblue" stroke="midnightblue" points="2091.04,-308.288 2091.5,-318.873 2097.74,-310.315 2091.04,-308.288"/>
</g>
<!-- Node36&#45;&gt;Node9 -->
<g id="edge67" class="edge"><title>Node36&#45;&gt;Node9</title>
<path fill="none" stroke="midnightblue" d="M1748.07,-61.7272C1500.15,-51.6385 752.339,-21.2075 551.569,-13.0375"/>
<polygon fill="midnightblue" stroke="midnightblue" points="1747.96,-65.2253 1758.09,-62.1349 1748.24,-58.2311 1747.96,-65.2253"/>
</g>
</g>
</svg>
