<?xml version="1.0" encoding="UTF-8" standalone="no"?>
<!DOCTYPE svg PUBLIC "-//W3C//DTD SVG 1.1//EN"
 "http://www.w3.org/Graphics/SVG/1.1/DTD/svg11.dtd">
<!-- Generated by graphviz version 2.38.0 (20140413.2041)
 -->
<!-- Title: neuroscience/neurite_element.h Pages: 1 -->
<svg width="528pt" height="106pt"
 viewBox="0.00 0.00 527.50 106.00" xmlns="http://www.w3.org/2000/svg" xmlns:xlink="http://www.w3.org/1999/xlink">
<g id="graph0" class="graph" transform="scale(1 1) rotate(0) translate(4 102)">
<title>neuroscience/neurite_element.h</title>
<polygon fill="white" stroke="none" points="-4,4 -4,-102 523.5,-102 523.5,4 -4,4"/>
<!-- Node1 -->
<g id="node1" class="node"><title>Node1</title>
<polygon fill="#bfbfbf" stroke="black" points="188.5,-67.5 188.5,-97.5 295.5,-97.5 295.5,-67.5 188.5,-67.5"/>
<text text-anchor="start" x="196.5" y="-85.5" font-family="Helvetica,sans-Serif" font-size="10.00">neuroscience/neurite</text>
<text text-anchor="middle" x="242" y="-74.5" font-family="Helvetica,sans-Serif" font-size="10.00">_element.h</text>
</g>
<!-- Node2 -->
<g id="node2" class="node"><title>Node2</title>
<g id="a_node2"><a xlink:href="default__force_8cc.html" target="_top" xlink:title="core/default_force.cc">
<polygon fill="white" stroke="black" points="0,-6 0,-25 108,-25 108,-6 0,-6"/>
<text text-anchor="middle" x="54" y="-13" font-family="Helvetica,sans-Serif" font-size="10.00">core/default_force.cc</text>
</a>
</g>
</g>
<!-- Node1&#45;&gt;Node2 -->
<g id="edge1" class="edge"><title>Node1&#45;&gt;Node2</title>
<path fill="none" stroke="midnightblue" d="M191.696,-64.1075C155.122,-51.4622 107.196,-34.8923 78.6049,-25.007"/>
<polygon fill="midnightblue" stroke="midnightblue" points="190.612,-67.4361 201.207,-67.396 192.899,-60.8204 190.612,-67.4361"/>
</g>
<!-- Node3 -->
<g id="node3" class="node"><title>Node3</title>
<g id="a_node3"><a xlink:href="neuron__or__neurite_8cc.html" target="_top" xlink:title="neuroscience/neuron\l_or_neurite.cc">
<polygon fill="white" stroke="black" points="126.5,-0.5 126.5,-30.5 233.5,-30.5 233.5,-0.5 126.5,-0.5"/>
<text text-anchor="start" x="134.5" y="-18.5" font-family="Helvetica,sans-Serif" font-size="10.00">neuroscience/neuron</text>
<text text-anchor="middle" x="180" y="-7.5" font-family="Helvetica,sans-Serif" font-size="10.00">_or_neurite.cc</text>
</a>
</g>
</g>
<!-- Node1&#45;&gt;Node3 -->
<g id="edge2" class="edge"><title>Node1&#45;&gt;Node3</title>
<path fill="none" stroke="midnightblue" d="M221.515,-60.0243C212.278,-50.3398 201.627,-39.1739 193.427,-30.5765"/>
<polygon fill="midnightblue" stroke="midnightblue" points="219.112,-62.5756 228.547,-67.396 224.177,-57.7441 219.112,-62.5756"/>
</g>
<!-- Node4 -->
<g id="node4" class="node"><title>Node4</title>
<g id="a_node4"><a xlink:href="neuron__soma_8cc.html" target="_top" xlink:title="neuroscience/neuron\l_soma.cc">
<polygon fill="white" stroke="black" points="251.5,-0.5 251.5,-30.5 358.5,-30.5 358.5,-0.5 251.5,-0.5"/>
<text text-anchor="start" x="259.5" y="-18.5" font-family="Helvetica,sans-Serif" font-size="10.00">neuroscience/neuron</text>
<text text-anchor="middle" x="305" y="-7.5" font-family="Helvetica,sans-Serif" font-size="10.00">_soma.cc</text>
</a>
</g>
</g>
<!-- Node1&#45;&gt;Node4 -->
<g id="edge3" class="edge"><title>Node1&#45;&gt;Node4</title>
<path fill="none" stroke="midnightblue" d="M262.815,-60.0243C272.201,-50.3398 283.024,-39.1739 291.357,-30.5765"/>
<polygon fill="midnightblue" stroke="midnightblue" points="260.117,-57.7793 255.67,-67.396 265.143,-62.6512 260.117,-57.7793"/>
</g>
<!-- Node5 -->
<g id="node5" class="node"><title>Node5</title>
<g id="a_node5"><a xlink:href="neuroscience_8h.html" target="_top" xlink:title="neuroscience/neuroscience.h">
<polygon fill="white" stroke="black" points="376.5,-6 376.5,-25 519.5,-25 519.5,-6 376.5,-6"/>
<text text-anchor="middle" x="448" y="-13" font-family="Helvetica,sans-Serif" font-size="10.00">neuroscience/neuroscience.h</text>
</a>
</g>
</g>
<!-- Node1&#45;&gt;Node5 -->
<g id="edge4" class="edge"><title>Node1&#45;&gt;Node5</title>
<path fill="none" stroke="midnightblue" d="M296.099,-64.4298C336.271,-51.7542 389.367,-35.0008 420.971,-25.0287"/>
<polygon fill="midnightblue" stroke="midnightblue" points="294.929,-61.129 286.445,-67.476 297.035,-67.8046 294.929,-61.129"/>
</g>
</g>
</svg>
