<?xml version="1.0" encoding="UTF-8" standalone="no"?>
<!DOCTYPE svg PUBLIC "-//W3C//DTD SVG 1.1//EN"
 "http://www.w3.org/Graphics/SVG/1.1/DTD/svg11.dtd">
<!-- Generated by graphviz version 2.38.0 (20140413.2041)
 -->
<!-- Title: neuroscience/neuron_or_neurite.h Pages: 1 -->
<svg width="1934pt" height="598pt"
 viewBox="0.00 0.00 1934.00 598.00" xmlns="http://www.w3.org/2000/svg" xmlns:xlink="http://www.w3.org/1999/xlink">
<g id="graph0" class="graph" transform="scale(1 1) rotate(0) translate(4 594)">
<title>neuroscience/neuron_or_neurite.h</title>
<polygon fill="white" stroke="none" points="-4,4 -4,-594 1930,-594 1930,4 -4,4"/>
<!-- Node1 -->
<g id="node1" class="node"><title>Node1</title>
<polygon fill="#bfbfbf" stroke="black" points="320.5,-559.5 320.5,-589.5 437.5,-589.5 437.5,-559.5 320.5,-559.5"/>
<text text-anchor="start" x="328.5" y="-577.5" font-family="Helvetica,sans-Serif" font-size="10.00">neuroscience/neuron</text>
<text text-anchor="middle" x="379" y="-566.5" font-family="Helvetica,sans-Serif" font-size="10.00">_or_neurite.h</text>
</g>
<!-- Node2 -->
<g id="node2" class="node"><title>Node2</title>
<polygon fill="white" stroke="#bfbfbf" points="28.5,-230 28.5,-249 69.5,-249 69.5,-230 28.5,-230"/>
<text text-anchor="middle" x="49" y="-237" font-family="Helvetica,sans-Serif" font-size="10.00">array</text>
</g>
<!-- Node1&#45;&gt;Node2 -->
<g id="edge1" class="edge"><title>Node1&#45;&gt;Node2</title>
<path fill="none" stroke="midnightblue" d="M320.326,-562.119C226.958,-542.31 55,-498.139 55,-441.5 55,-441.5 55,-441.5 55,-372.5 55,-332.116 52.1628,-284.854 50.3904,-259.27"/>
<polygon fill="midnightblue" stroke="midnightblue" points="53.8706,-258.867 49.665,-249.143 46.8885,-259.367 53.8706,-258.867"/>
</g>
<!-- Node3 -->
<g id="node3" class="node"><title>Node3</title>
<g id="a_node3"><a xlink:href="math__array_8h.html" target="_top" xlink:title="core/container/math\l_array.h">
<polygon fill="white" stroke="black" points="260,-224.5 260,-254.5 374,-254.5 374,-224.5 260,-224.5"/>
<text text-anchor="start" x="268" y="-242.5" font-family="Helvetica,sans-Serif" font-size="10.00">core/container/math</text>
<text text-anchor="middle" x="317" y="-231.5" font-family="Helvetica,sans-Serif" font-size="10.00">_array.h</text>
</a>
</g>
</g>
<!-- Node1&#45;&gt;Node3 -->
<g id="edge2" class="edge"><title>Node1&#45;&gt;Node3</title>
<path fill="none" stroke="midnightblue" d="M362.204,-559.138C337.951,-536.7 296,-490.768 296,-441.5 296,-441.5 296,-441.5 296,-372.5 296,-334.362 304.656,-290.786 310.853,-264.475"/>
<polygon fill="midnightblue" stroke="midnightblue" points="314.282,-265.186 313.246,-254.642 307.481,-263.531 314.282,-265.186"/>
</g>
<!-- Node20 -->
<g id="node20" class="node"><title>Node20</title>
<g id="a_node20"><a xlink:href="sim__object_8h.html" target="_top" xlink:title="core/sim_object/sim\l_object.h">
<polygon fill="white" stroke="black" points="1069.5,-492.5 1069.5,-522.5 1182.5,-522.5 1182.5,-492.5 1069.5,-492.5"/>
<text text-anchor="start" x="1077.5" y="-510.5" font-family="Helvetica,sans-Serif" font-size="10.00">core/sim_object/sim</text>
<text text-anchor="middle" x="1126" y="-499.5" font-family="Helvetica,sans-Serif" font-size="10.00">_object.h</text>
</a>
</g>
</g>
<!-- Node1&#45;&gt;Node20 -->
<g id="edge20" class="edge"><title>Node1&#45;&gt;Node20</title>
<path fill="none" stroke="midnightblue" d="M437.616,-568.4C574.571,-556.482 914.87,-526.871 1059.39,-514.296"/>
<polygon fill="midnightblue" stroke="midnightblue" points="1059.79,-517.775 1069.45,-513.421 1059.18,-510.801 1059.79,-517.775"/>
</g>
<!-- Node28 -->
<g id="node28" class="node"><title>Node28</title>
<g id="a_node28"><a xlink:href="so__pointer_8h.html" target="_top" xlink:title="core/sim_object/so\l_pointer.h">
<polygon fill="white" stroke="black" points="536.5,-425.5 536.5,-455.5 643.5,-455.5 643.5,-425.5 536.5,-425.5"/>
<text text-anchor="start" x="544.5" y="-443.5" font-family="Helvetica,sans-Serif" font-size="10.00">core/sim_object/so</text>
<text text-anchor="middle" x="590" y="-432.5" font-family="Helvetica,sans-Serif" font-size="10.00">_pointer.h</text>
</a>
</g>
</g>
<!-- Node1&#45;&gt;Node28 -->
<g id="edge82" class="edge"><title>Node1&#45;&gt;Node28</title>
<path fill="none" stroke="midnightblue" d="M401.581,-559.374C439.495,-535.655 516.008,-487.789 558.953,-460.923"/>
<polygon fill="midnightblue" stroke="midnightblue" points="560.96,-463.796 567.582,-455.525 557.248,-457.861 560.96,-463.796"/>
</g>
<!-- Node4 -->
<g id="node4" class="node"><title>Node4</title>
<polygon fill="white" stroke="#bfbfbf" points="386,-168.5 386,-187.5 448,-187.5 448,-168.5 386,-168.5"/>
<text text-anchor="middle" x="417" y="-175.5" font-family="Helvetica,sans-Serif" font-size="10.00">algorithm</text>
</g>
<!-- Node3&#45;&gt;Node4 -->
<g id="edge3" class="edge"><title>Node3&#45;&gt;Node4</title>
<path fill="none" stroke="midnightblue" d="M340.699,-224.399C356.728,-214.862 377.799,-202.325 393.736,-192.842"/>
<polygon fill="midnightblue" stroke="midnightblue" points="395.645,-195.779 402.449,-187.658 392.066,-189.763 395.645,-195.779"/>
</g>
<!-- Node5 -->
<g id="node5" class="node"><title>Node5</title>
<polygon fill="white" stroke="#bfbfbf" points="1478,-168.5 1478,-187.5 1530,-187.5 1530,-168.5 1478,-168.5"/>
<text text-anchor="middle" x="1504" y="-175.5" font-family="Helvetica,sans-Serif" font-size="10.00">cassert</text>
</g>
<!-- Node3&#45;&gt;Node5 -->
<g id="edge4" class="edge"><title>Node3&#45;&gt;Node5</title>
<path fill="none" stroke="midnightblue" d="M374.251,-235.63C582.805,-225.176 1298.51,-189.3 1467.87,-180.811"/>
<polygon fill="midnightblue" stroke="midnightblue" points="1468.19,-184.3 1478,-180.303 1467.84,-177.308 1468.19,-184.3"/>
</g>
<!-- Node6 -->
<g id="node6" class="node"><title>Node6</title>
<polygon fill="white" stroke="#bfbfbf" points="164.5,-168.5 164.5,-187.5 211.5,-187.5 211.5,-168.5 164.5,-168.5"/>
<text text-anchor="middle" x="188" y="-175.5" font-family="Helvetica,sans-Serif" font-size="10.00">cmath</text>
</g>
<!-- Node3&#45;&gt;Node6 -->
<g id="edge5" class="edge"><title>Node3&#45;&gt;Node6</title>
<path fill="none" stroke="midnightblue" d="M286.429,-224.399C265.075,-214.55 236.785,-201.501 216.015,-191.922"/>
<polygon fill="midnightblue" stroke="midnightblue" points="217.317,-188.668 206.771,-187.658 214.385,-195.024 217.317,-188.668"/>
</g>
<!-- Node7 -->
<g id="node7" class="node"><title>Node7</title>
<polygon fill="white" stroke="#bfbfbf" points="230,-168.5 230,-187.5 286,-187.5 286,-168.5 230,-168.5"/>
<text text-anchor="middle" x="258" y="-175.5" font-family="Helvetica,sans-Serif" font-size="10.00">numeric</text>
</g>
<!-- Node3&#45;&gt;Node7 -->
<g id="edge6" class="edge"><title>Node3&#45;&gt;Node7</title>
<path fill="none" stroke="midnightblue" d="M303.018,-224.399C294.268,-215.575 282.971,-204.183 273.883,-195.018"/>
<polygon fill="midnightblue" stroke="midnightblue" points="276.112,-192.294 266.585,-187.658 271.141,-197.223 276.112,-192.294"/>
</g>
<!-- Node8 -->
<g id="node8" class="node"><title>Node8</title>
<polygon fill="white" stroke="#bfbfbf" points="50.5,-168.5 50.5,-187.5 107.5,-187.5 107.5,-168.5 50.5,-168.5"/>
<text text-anchor="middle" x="79" y="-175.5" font-family="Helvetica,sans-Serif" font-size="10.00">ostream</text>
</g>
<!-- Node3&#45;&gt;Node8 -->
<g id="edge7" class="edge"><title>Node3&#45;&gt;Node8</title>
<path fill="none" stroke="midnightblue" d="M260.899,-224.475C216.745,-213.436 156.378,-198.344 117.532,-188.633"/>
<polygon fill="midnightblue" stroke="midnightblue" points="118.212,-185.195 107.661,-186.165 116.514,-191.986 118.212,-185.195"/>
</g>
<!-- Node9 -->
<g id="node9" class="node"><title>Node9</title>
<polygon fill="white" stroke="#bfbfbf" points="304,-168.5 304,-187.5 368,-187.5 368,-168.5 304,-168.5"/>
<text text-anchor="middle" x="336" y="-175.5" font-family="Helvetica,sans-Serif" font-size="10.00">stdexcept</text>
</g>
<!-- Node3&#45;&gt;Node9 -->
<g id="edge8" class="edge"><title>Node3&#45;&gt;Node9</title>
<path fill="none" stroke="midnightblue" d="M321.503,-224.399C324.093,-216.288 327.376,-206.007 330.162,-197.281"/>
<polygon fill="midnightblue" stroke="midnightblue" points="333.527,-198.249 333.235,-187.658 326.859,-196.119 333.527,-198.249"/>
</g>
<!-- Node10 -->
<g id="node10" class="node"><title>Node10</title>
<polygon fill="white" stroke="#bfbfbf" points="466,-168.5 466,-187.5 508,-187.5 508,-168.5 466,-168.5"/>
<text text-anchor="middle" x="487" y="-175.5" font-family="Helvetica,sans-Serif" font-size="10.00">utility</text>
</g>
<!-- Node3&#45;&gt;Node10 -->
<g id="edge9" class="edge"><title>Node3&#45;&gt;Node10</title>
<path fill="none" stroke="midnightblue" d="M357.288,-224.399C387.544,-213.809 428.368,-199.521 456.078,-189.823"/>
<polygon fill="midnightblue" stroke="midnightblue" points="457.367,-193.08 465.65,-186.473 455.055,-186.473 457.367,-193.08"/>
</g>
<!-- Node11 -->
<g id="node11" class="node"><title>Node11</title>
<g id="a_node11"><a xlink:href="root_8h.html" target="_top" xlink:title="core/util/root.h">
<polygon fill="white" stroke="black" points="526,-168.5 526,-187.5 612,-187.5 612,-168.5 526,-168.5"/>
<text text-anchor="middle" x="569" y="-175.5" font-family="Helvetica,sans-Serif" font-size="10.00">core/util/root.h</text>
</a>
</g>
</g>
<!-- Node3&#45;&gt;Node11 -->
<g id="edge10" class="edge"><title>Node3&#45;&gt;Node11</title>
<path fill="none" stroke="midnightblue" d="M374.183,-224.999C419.124,-214.387 480.916,-199.798 522.766,-189.916"/>
<polygon fill="midnightblue" stroke="midnightblue" points="523.763,-193.277 532.691,-187.573 522.155,-186.465 523.763,-193.277"/>
</g>
<!-- Node12 -->
<g id="node12" class="node"><title>Node12</title>
<g id="a_node12"><a xlink:href="log_8h.html" target="_top" xlink:title="core/util/log.h">
<polygon fill="white" stroke="black" points="1370.5,-112.5 1370.5,-131.5 1451.5,-131.5 1451.5,-112.5 1370.5,-112.5"/>
<text text-anchor="middle" x="1411" y="-119.5" font-family="Helvetica,sans-Serif" font-size="10.00">core/util/log.h</text>
</a>
</g>
</g>
<!-- Node11&#45;&gt;Node12 -->
<g id="edge11" class="edge"><title>Node11&#45;&gt;Node12</title>
<path fill="none" stroke="midnightblue" d="M612.204,-174.229C754.399,-165.11 1207.42,-136.056 1360.16,-126.261"/>
<polygon fill="midnightblue" stroke="midnightblue" points="1360.45,-129.749 1370.21,-125.616 1360,-122.764 1360.45,-129.749"/>
</g>
<!-- Node13 -->
<g id="node13" class="node"><title>Node13</title>
<polygon fill="white" stroke="#bfbfbf" points="1411.5,-56.5 1411.5,-75.5 1464.5,-75.5 1464.5,-56.5 1411.5,-56.5"/>
<text text-anchor="middle" x="1438" y="-63.5" font-family="Helvetica,sans-Serif" font-size="10.00">TError.h</text>
</g>
<!-- Node12&#45;&gt;Node13 -->
<g id="edge12" class="edge"><title>Node12&#45;&gt;Node13</title>
<path fill="none" stroke="midnightblue" d="M1415.46,-112.083C1419.15,-104.691 1424.52,-93.9533 1429.09,-84.8111"/>
<polygon fill="midnightblue" stroke="midnightblue" points="1432.28,-86.2606 1433.62,-75.7511 1426.02,-83.1301 1432.28,-86.2606"/>
</g>
<!-- Node14 -->
<g id="node14" class="node"><title>Node14</title>
<polygon fill="white" stroke="#bfbfbf" points="673.5,-56.5 673.5,-75.5 718.5,-75.5 718.5,-56.5 673.5,-56.5"/>
<text text-anchor="middle" x="696" y="-63.5" font-family="Helvetica,sans-Serif" font-size="10.00">cstdio</text>
</g>
<!-- Node12&#45;&gt;Node14 -->
<g id="edge13" class="edge"><title>Node12&#45;&gt;Node14</title>
<path fill="none" stroke="midnightblue" d="M1370.25,-117.922C1241.62,-108.208 845.839,-78.3165 728.876,-69.483"/>
<polygon fill="midnightblue" stroke="midnightblue" points="728.989,-65.9816 718.754,-68.7185 728.462,-72.9617 728.989,-65.9816"/>
</g>
<!-- Node15 -->
<g id="node15" class="node"><title>Node15</title>
<polygon fill="white" stroke="#bfbfbf" points="1482.5,-56.5 1482.5,-75.5 1529.5,-75.5 1529.5,-56.5 1482.5,-56.5"/>
<text text-anchor="middle" x="1506" y="-63.5" font-family="Helvetica,sans-Serif" font-size="10.00">cstdlib</text>
</g>
<!-- Node12&#45;&gt;Node15 -->
<g id="edge14" class="edge"><title>Node12&#45;&gt;Node15</title>
<path fill="none" stroke="midnightblue" d="M1426.26,-112.324C1441.22,-103.822 1464.25,-90.7288 1481.73,-80.7975"/>
<polygon fill="midnightblue" stroke="midnightblue" points="1483.81,-83.639 1490.77,-75.6545 1480.35,-77.5534 1483.81,-83.639"/>
</g>
<!-- Node16 -->
<g id="node16" class="node"><title>Node16</title>
<polygon fill="white" stroke="#bfbfbf" points="1295.5,-56.5 1295.5,-75.5 1354.5,-75.5 1354.5,-56.5 1295.5,-56.5"/>
<text text-anchor="middle" x="1325" y="-63.5" font-family="Helvetica,sans-Serif" font-size="10.00">iostream</text>
</g>
<!-- Node12&#45;&gt;Node16 -->
<g id="edge15" class="edge"><title>Node12&#45;&gt;Node16</title>
<path fill="none" stroke="midnightblue" d="M1397.18,-112.324C1383.77,-103.9 1363.18,-90.9709 1347.41,-81.0741"/>
<polygon fill="midnightblue" stroke="midnightblue" points="1349.11,-78.0081 1338.78,-75.6545 1345.39,-83.9364 1349.11,-78.0081"/>
</g>
<!-- Node17 -->
<g id="node17" class="node"><title>Node17</title>
<polygon fill="white" stroke="#bfbfbf" points="1626,-0.5 1626,-19.5 1670,-19.5 1670,-0.5 1626,-0.5"/>
<text text-anchor="middle" x="1648" y="-7.5" font-family="Helvetica,sans-Serif" font-size="10.00">string</text>
</g>
<!-- Node12&#45;&gt;Node17 -->
<g id="edge16" class="edge"><title>Node12&#45;&gt;Node17</title>
<path fill="none" stroke="midnightblue" d="M1406.08,-112.288C1399.1,-98.6358 1388.58,-72.1008 1402,-56 1428.88,-23.754 1555.53,-14.5468 1615.88,-11.972"/>
<polygon fill="midnightblue" stroke="midnightblue" points="1616.14,-15.4646 1625.99,-11.5764 1615.86,-8.46996 1616.14,-15.4646"/>
</g>
<!-- Node18 -->
<g id="node18" class="node"><title>Node18</title>
<g id="a_node18"><a xlink:href="string_8h.html" target="_top" xlink:title="core/util/string.h">
<polygon fill="white" stroke="black" points="1766,-56.5 1766,-75.5 1860,-75.5 1860,-56.5 1766,-56.5"/>
<text text-anchor="middle" x="1813" y="-63.5" font-family="Helvetica,sans-Serif" font-size="10.00">core/util/string.h</text>
</a>
</g>
</g>
<!-- Node12&#45;&gt;Node18 -->
<g id="edge17" class="edge"><title>Node12&#45;&gt;Node18</title>
<path fill="none" stroke="midnightblue" d="M1451.76,-115.525C1523.81,-105.847 1673.8,-85.6982 1756.04,-74.6517"/>
<polygon fill="midnightblue" stroke="midnightblue" points="1756.52,-78.1187 1765.96,-73.3184 1755.59,-71.181 1756.52,-78.1187"/>
</g>
<!-- Node18&#45;&gt;Node17 -->
<g id="edge19" class="edge"><title>Node18&#45;&gt;Node17</title>
<path fill="none" stroke="midnightblue" d="M1786.86,-56.4435C1757.75,-46.9171 1710.71,-31.5228 1679.57,-21.3321"/>
<polygon fill="midnightblue" stroke="midnightblue" points="1680.65,-18.0044 1670.06,-18.2203 1678.48,-24.6572 1680.65,-18.0044"/>
</g>
<!-- Node19 -->
<g id="node19" class="node"><title>Node19</title>
<polygon fill="white" stroke="#bfbfbf" points="1841,-0.5 1841,-19.5 1897,-19.5 1897,-0.5 1841,-0.5"/>
<text text-anchor="middle" x="1869" y="-7.5" font-family="Helvetica,sans-Serif" font-size="10.00">sstream</text>
</g>
<!-- Node18&#45;&gt;Node19 -->
<g id="edge18" class="edge"><title>Node18&#45;&gt;Node19</title>
<path fill="none" stroke="midnightblue" d="M1822,-56.324C1830.19,-48.4196 1842.51,-36.5482 1852.47,-26.9377"/>
<polygon fill="midnightblue" stroke="midnightblue" points="1855.07,-29.2947 1859.84,-19.8339 1850.21,-24.2558 1855.07,-29.2947"/>
</g>
<!-- Node20&#45;&gt;Node3 -->
<g id="edge31" class="edge"><title>Node20&#45;&gt;Node3</title>
<path fill="none" stroke="midnightblue" d="M1069.22,-506.077C906.935,-504.387 449.358,-496.081 396,-456 334.484,-409.791 320.822,-310.699 317.823,-264.781"/>
<polygon fill="midnightblue" stroke="midnightblue" points="321.306,-264.365 317.277,-254.566 314.315,-264.739 321.306,-264.365"/>
</g>
<!-- Node20&#45;&gt;Node4 -->
<g id="edge21" class="edge"><title>Node20&#45;&gt;Node4</title>
<path fill="none" stroke="midnightblue" d="M1069.1,-505.39C939.503,-502.269 625.936,-491.209 527,-456 477.292,-438.31 454.945,-434.942 429,-389 393.697,-326.488 405.538,-236.143 412.935,-197.578"/>
<polygon fill="midnightblue" stroke="midnightblue" points="416.371,-198.247 414.946,-187.748 409.513,-196.844 416.371,-198.247"/>
</g>
<!-- Node20&#45;&gt;Node5 -->
<g id="edge22" class="edge"><title>Node20&#45;&gt;Node5</title>
<path fill="none" stroke="midnightblue" d="M1182.64,-502.919C1278.08,-496.3 1466.51,-480.546 1528,-456 1619.31,-419.551 1661.09,-410.456 1704,-322 1751.11,-224.889 1574.15,-269.973 1553,-255 1532.63,-240.576 1518.66,-214.752 1511,-197.253"/>
<polygon fill="midnightblue" stroke="midnightblue" points="1514.08,-195.533 1507.04,-187.609 1507.6,-198.189 1514.08,-195.533"/>
</g>
<!-- Node20&#45;&gt;Node11 -->
<g id="edge81" class="edge"><title>Node20&#45;&gt;Node11</title>
<path fill="none" stroke="midnightblue" d="M1069.33,-499.203C1024.44,-492.046 960.876,-478.804 909,-456 761.714,-391.254 625.92,-244.662 583,-195.456"/>
<polygon fill="midnightblue" stroke="midnightblue" points="585.475,-192.967 576.291,-187.685 580.176,-197.542 585.475,-192.967"/>
</g>
<!-- Node20&#45;&gt;Node17 -->
<g id="edge27" class="edge"><title>Node20&#45;&gt;Node17</title>
<path fill="none" stroke="midnightblue" d="M1182.69,-505.679C1318.48,-503.128 1658.99,-493.115 1766,-456 1827.61,-434.633 1888,-439.708 1888,-374.5 1888,-374.5 1888,-374.5 1888,-121 1888,-90.9022 1891.15,-76.3754 1869,-56 1841.85,-31.0253 1734.93,-18.4357 1680.38,-13.53"/>
<polygon fill="midnightblue" stroke="midnightblue" points="1680.47,-10.025 1670.21,-12.6499 1679.87,-16.999 1680.47,-10.025"/>
</g>
<!-- Node20&#45;&gt;Node19 -->
<g id="edge26" class="edge"><title>Node20&#45;&gt;Node19</title>
<path fill="none" stroke="midnightblue" d="M1182.52,-506.853C1327.83,-507.062 1711.25,-503.006 1828,-456 1880.55,-434.842 1926,-431.149 1926,-374.5 1926,-374.5 1926,-374.5 1926,-121 1926,-84.3005 1900.68,-47.6567 1883.79,-27.2973"/>
<polygon fill="midnightblue" stroke="midnightblue" points="1886.35,-24.9037 1877.17,-19.6161 1881.05,-29.475 1886.35,-24.9037"/>
</g>
<!-- Node21 -->
<g id="node21" class="node"><title>Node21</title>
<polygon fill="white" stroke="#bfbfbf" points="1151,-168.5 1151,-187.5 1193,-187.5 1193,-168.5 1151,-168.5"/>
<text text-anchor="middle" x="1172" y="-175.5" font-family="Helvetica,sans-Serif" font-size="10.00">limits</text>
</g>
<!-- Node20&#45;&gt;Node21 -->
<g id="edge23" class="edge"><title>Node20&#45;&gt;Node21</title>
<path fill="none" stroke="midnightblue" d="M1182.79,-498.938C1235.17,-490.822 1307.79,-476.301 1328,-456 1354.32,-429.57 1348,-411.797 1348,-374.5 1348,-374.5 1348,-374.5 1348,-305.5 1348,-234.916 1253.51,-199.853 1203,-186.153"/>
<polygon fill="midnightblue" stroke="midnightblue" points="1203.79,-182.742 1193.23,-183.621 1202.03,-189.518 1203.79,-182.742"/>
</g>
<!-- Node22 -->
<g id="node22" class="node"><title>Node22</title>
<polygon fill="white" stroke="#bfbfbf" points="1638.5,-297 1638.5,-316 1695.5,-316 1695.5,-297 1638.5,-297"/>
<text text-anchor="middle" x="1667" y="-304" font-family="Helvetica,sans-Serif" font-size="10.00">memory</text>
</g>
<!-- Node20&#45;&gt;Node22 -->
<g id="edge24" class="edge"><title>Node20&#45;&gt;Node22</title>
<path fill="none" stroke="midnightblue" d="M1182.77,-502.385C1270.5,-495.389 1434.52,-479.601 1488,-456 1559.59,-424.411 1625.36,-355.557 1653.1,-323.954"/>
<polygon fill="midnightblue" stroke="midnightblue" points="1656.01,-325.946 1659.89,-316.09 1650.71,-321.372 1656.01,-325.946"/>
</g>
<!-- Node23 -->
<g id="node23" class="node"><title>Node23</title>
<polygon fill="white" stroke="#bfbfbf" points="993,-431 993,-450 1025,-450 1025,-431 993,-431"/>
<text text-anchor="middle" x="1009" y="-438" font-family="Helvetica,sans-Serif" font-size="10.00">set</text>
</g>
<!-- Node20&#45;&gt;Node23 -->
<g id="edge25" class="edge"><title>Node20&#45;&gt;Node23</title>
<path fill="none" stroke="midnightblue" d="M1099.74,-492.297C1081.28,-482.266 1056.06,-468.447 1034,-456 1033.58,-455.766 1033.17,-455.529 1032.74,-455.29"/>
<polygon fill="midnightblue" stroke="midnightblue" points="1034.19,-452.083 1023.77,-450.145 1030.71,-458.156 1034.19,-452.083"/>
</g>
<!-- Node24 -->
<g id="node24" class="node"><title>Node24</title>
<polygon fill="white" stroke="#bfbfbf" points="1043,-431 1043,-450 1111,-450 1111,-431 1043,-431"/>
<text text-anchor="middle" x="1077" y="-438" font-family="Helvetica,sans-Serif" font-size="10.00">type_traits</text>
</g>
<!-- Node20&#45;&gt;Node24 -->
<g id="edge28" class="edge"><title>Node20&#45;&gt;Node24</title>
<path fill="none" stroke="midnightblue" d="M1115.37,-492.396C1107.8,-482.361 1097.61,-468.838 1089.63,-458.253"/>
<polygon fill="midnightblue" stroke="midnightblue" points="1092.37,-456.073 1083.55,-450.195 1086.78,-460.287 1092.37,-456.073"/>
</g>
<!-- Node25 -->
<g id="node25" class="node"><title>Node25</title>
<polygon fill="white" stroke="#bfbfbf" points="1129.5,-431 1129.5,-450 1222.5,-450 1222.5,-431 1129.5,-431"/>
<text text-anchor="middle" x="1176" y="-438" font-family="Helvetica,sans-Serif" font-size="10.00">unordered_map</text>
</g>
<!-- Node20&#45;&gt;Node25 -->
<g id="edge29" class="edge"><title>Node20&#45;&gt;Node25</title>
<path fill="none" stroke="midnightblue" d="M1136.85,-492.396C1144.57,-482.361 1154.97,-468.838 1163.11,-458.253"/>
<polygon fill="midnightblue" stroke="midnightblue" points="1165.99,-460.255 1169.31,-450.195 1160.44,-455.987 1165.99,-460.255"/>
</g>
<!-- Node26 -->
<g id="node26" class="node"><title>Node26</title>
<polygon fill="white" stroke="#bfbfbf" points="720.5,-230 720.5,-249 767.5,-249 767.5,-230 720.5,-230"/>
<text text-anchor="middle" x="744" y="-237" font-family="Helvetica,sans-Serif" font-size="10.00">vector</text>
</g>
<!-- Node20&#45;&gt;Node26 -->
<g id="edge30" class="edge"><title>Node20&#45;&gt;Node26</title>
<path fill="none" stroke="midnightblue" d="M1070.64,-492.48C1040.86,-483.897 1004,-471.563 973,-456 880.327,-409.473 848.617,-401.468 782,-322 766.136,-303.076 755.369,-276.424 749.457,-258.818"/>
<polygon fill="midnightblue" stroke="midnightblue" points="752.758,-257.65 746.4,-249.175 746.085,-259.765 752.758,-257.65"/>
</g>
<!-- Node27 -->
<g id="node27" class="node"><title>Node27</title>
<g id="a_node27"><a xlink:href="shape_8h.html" target="_top" xlink:title="core/shape.h">
<polygon fill="white" stroke="black" points="1240.5,-431 1240.5,-450 1319.5,-450 1319.5,-431 1240.5,-431"/>
<text text-anchor="middle" x="1280" y="-438" font-family="Helvetica,sans-Serif" font-size="10.00">core/shape.h</text>
</a>
</g>
</g>
<!-- Node20&#45;&gt;Node27 -->
<g id="edge32" class="edge"><title>Node20&#45;&gt;Node27</title>
<path fill="none" stroke="midnightblue" d="M1159.42,-492.396C1186.56,-480.941 1224.47,-464.938 1250.5,-453.952"/>
<polygon fill="midnightblue" stroke="midnightblue" points="1251.99,-457.12 1259.84,-450.007 1249.27,-450.671 1251.99,-457.12"/>
</g>
<!-- Node20&#45;&gt;Node28 -->
<g id="edge33" class="edge"><title>Node20&#45;&gt;Node28</title>
<path fill="none" stroke="midnightblue" d="M1069.2,-502.263C980.886,-495.249 805.467,-479.615 658,-456 656.547,-455.767 655.079,-455.524 653.599,-455.272"/>
<polygon fill="midnightblue" stroke="midnightblue" points="654.189,-451.821 643.726,-453.488 652.945,-458.71 654.189,-451.821"/>
</g>
<!-- Node33 -->
<g id="node33" class="node"><title>Node33</title>
<g id="a_node33"><a xlink:href="so__uid_8h.html" target="_top" xlink:title="core/sim_object/so\l_uid.h">
<polygon fill="white" stroke="black" points="980.5,-224.5 980.5,-254.5 1087.5,-254.5 1087.5,-224.5 980.5,-224.5"/>
<text text-anchor="start" x="988.5" y="-242.5" font-family="Helvetica,sans-Serif" font-size="10.00">core/sim_object/so</text>
<text text-anchor="middle" x="1034" y="-231.5" font-family="Helvetica,sans-Serif" font-size="10.00">_uid.h</text>
</a>
</g>
</g>
<!-- Node20&#45;&gt;Node33 -->
<g id="edge75" class="edge"><title>Node20&#45;&gt;Node33</title>
<path fill="none" stroke="midnightblue" d="M1069.12,-495.72C1018.22,-483.515 955.662,-460.572 984,-425 1028.61,-369.007 1075.85,-418.675 1141,-389 1195.37,-364.236 1269.68,-338.153 1233,-291 1216.38,-269.636 1149.44,-255.847 1097.74,-248.164"/>
<polygon fill="midnightblue" stroke="midnightblue" points="1098.01,-244.668 1087.62,-246.709 1097.02,-251.597 1098.01,-244.668"/>
</g>
<!-- Node44 -->
<g id="node44" class="node"><title>Node44</title>
<g id="a_node44"><a xlink:href="sim__object_2so__visitor_8h.html" target="_top" xlink:title="core/sim_object/so\l_visitor.h">
<polygon fill="white" stroke="black" points="1752.5,-291.5 1752.5,-321.5 1859.5,-321.5 1859.5,-291.5 1752.5,-291.5"/>
<text text-anchor="start" x="1760.5" y="-309.5" font-family="Helvetica,sans-Serif" font-size="10.00">core/sim_object/so</text>
<text text-anchor="middle" x="1806" y="-298.5" font-family="Helvetica,sans-Serif" font-size="10.00">_visitor.h</text>
</a>
</g>
</g>
<!-- Node20&#45;&gt;Node44 -->
<g id="edge76" class="edge"><title>Node20&#45;&gt;Node44</title>
<path fill="none" stroke="midnightblue" d="M1182.55,-505.06C1325.5,-500.97 1693.14,-487.479 1738,-456 1779.47,-426.901 1796.18,-366.088 1802.49,-332.002"/>
<polygon fill="midnightblue" stroke="midnightblue" points="1805.97,-332.392 1804.19,-321.948 1799.07,-331.224 1805.97,-332.392"/>
</g>
<!-- Node45 -->
<g id="node45" class="node"><title>Node45</title>
<g id="a_node45"><a xlink:href="macros_8h.html" target="_top" xlink:title="core/util/macros.h">
<polygon fill="white" stroke="black" points="1376.5,-431 1376.5,-450 1479.5,-450 1479.5,-431 1376.5,-431"/>
<text text-anchor="middle" x="1428" y="-438" font-family="Helvetica,sans-Serif" font-size="10.00">core/util/macros.h</text>
</a>
</g>
</g>
<!-- Node20&#45;&gt;Node45 -->
<g id="edge79" class="edge"><title>Node20&#45;&gt;Node45</title>
<path fill="none" stroke="midnightblue" d="M1182.76,-494.444C1230.58,-484.267 1300.78,-469.274 1362,-456 1367.66,-454.774 1373.58,-453.482 1379.47,-452.195"/>
<polygon fill="midnightblue" stroke="midnightblue" points="1380.25,-455.606 1389.27,-450.046 1378.75,-448.768 1380.25,-455.606"/>
</g>
<!-- Node28&#45;&gt;Node8 -->
<g id="edge36" class="edge"><title>Node28&#45;&gt;Node8</title>
<path fill="none" stroke="midnightblue" d="M536.449,-438.331C447.81,-433.743 269.078,-412.947 155,-322 113.884,-289.221 92.2799,-228.01 83.6235,-197.407"/>
<polygon fill="midnightblue" stroke="midnightblue" points="86.9727,-196.383 81.008,-187.627 80.2104,-198.192 86.9727,-196.383"/>
</g>
<!-- Node28&#45;&gt;Node11 -->
<g id="edge74" class="edge"><title>Node28&#45;&gt;Node11</title>
<path fill="none" stroke="midnightblue" d="M567.223,-425.436C555.211,-416.619 541.623,-404.072 535,-389 505.801,-322.55 541.469,-234.367 559.619,-196.978"/>
<polygon fill="midnightblue" stroke="midnightblue" points="562.848,-198.348 564.205,-187.84 556.591,-195.208 562.848,-198.348"/>
</g>
<!-- Node28&#45;&gt;Node21 -->
<g id="edge35" class="edge"><title>Node28&#45;&gt;Node21</title>
<path fill="none" stroke="midnightblue" d="M643.757,-438.197C763.94,-434.703 1050.89,-422.962 1141,-389 1188.33,-371.161 1210.06,-367.082 1233,-322 1255.85,-277.091 1212.93,-221.634 1188.02,-194.896"/>
<polygon fill="midnightblue" stroke="midnightblue" points="1190.42,-192.338 1180.96,-187.563 1185.37,-197.194 1190.42,-192.338"/>
</g>
<!-- Node29 -->
<g id="node29" class="node"><title>Node29</title>
<polygon fill="white" stroke="#bfbfbf" points="438.5,-364 438.5,-383 487.5,-383 487.5,-364 438.5,-364"/>
<text text-anchor="middle" x="463" y="-371" font-family="Helvetica,sans-Serif" font-size="10.00">cstdint</text>
</g>
<!-- Node28&#45;&gt;Node29 -->
<g id="edge34" class="edge"><title>Node28&#45;&gt;Node29</title>
<path fill="none" stroke="midnightblue" d="M562.443,-425.396C540.554,-414.193 510.168,-398.641 488.762,-387.685"/>
<polygon fill="midnightblue" stroke="midnightblue" points="490.118,-384.447 479.621,-383.007 486.929,-390.679 490.118,-384.447"/>
</g>
<!-- Node30 -->
<g id="node30" class="node"><title>Node30</title>
<g id="a_node30"><a xlink:href="in__place__exec__ctxt_8h.html" target="_top" xlink:title="core/execution_context\l/in_place_exec_ctxt.h">
<polygon fill="white" stroke="black" points="907,-358.5 907,-388.5 1035,-388.5 1035,-358.5 907,-358.5"/>
<text text-anchor="start" x="915" y="-376.5" font-family="Helvetica,sans-Serif" font-size="10.00">core/execution_context</text>
<text text-anchor="middle" x="971" y="-365.5" font-family="Helvetica,sans-Serif" font-size="10.00">/in_place_exec_ctxt.h</text>
</a>
</g>
</g>
<!-- Node28&#45;&gt;Node30 -->
<g id="edge37" class="edge"><title>Node28&#45;&gt;Node30</title>
<path fill="none" stroke="midnightblue" d="M643.78,-430.325C709.801,-419.062 822.127,-399.898 896.45,-387.218"/>
<polygon fill="midnightblue" stroke="midnightblue" points="897.408,-390.606 906.677,-385.474 896.23,-383.705 897.408,-390.606"/>
</g>
<!-- Node28&#45;&gt;Node33 -->
<g id="edge61" class="edge"><title>Node28&#45;&gt;Node33</title>
<path fill="none" stroke="midnightblue" d="M643.607,-438.589C783.043,-434.893 1150.72,-416.227 1215,-322 1247.17,-274.845 1161.94,-254.592 1097.76,-246.169"/>
<polygon fill="midnightblue" stroke="midnightblue" points="1098.01,-242.674 1087.66,-244.916 1097.15,-249.621 1098.01,-242.674"/>
</g>
<!-- Node41 -->
<g id="node41" class="node"><title>Node41</title>
<g id="a_node41"><a xlink:href="simulation_8h.html" target="_top" xlink:title="core/simulation.h">
<polygon fill="white" stroke="black" points="544.5,-364 544.5,-383 643.5,-383 643.5,-364 544.5,-364"/>
<text text-anchor="middle" x="594" y="-371" font-family="Helvetica,sans-Serif" font-size="10.00">core/simulation.h</text>
</a>
</g>
</g>
<!-- Node28&#45;&gt;Node41 -->
<g id="edge62" class="edge"><title>Node28&#45;&gt;Node41</title>
<path fill="none" stroke="midnightblue" d="M590.868,-425.396C591.448,-415.963 592.219,-403.448 592.85,-393.189"/>
<polygon fill="midnightblue" stroke="midnightblue" points="596.344,-393.391 593.465,-383.195 589.357,-392.961 596.344,-393.391"/>
</g>
<!-- Node30&#45;&gt;Node10 -->
<g id="edge40" class="edge"><title>Node30&#45;&gt;Node10</title>
<path fill="none" stroke="midnightblue" d="M906.623,-358.517C869.625,-349.688 822.585,-337.102 782,-322 677.733,-283.201 560.705,-220.282 511.191,-192.696"/>
<polygon fill="midnightblue" stroke="midnightblue" points="512.648,-189.501 502.213,-187.668 509.227,-195.608 512.648,-189.501"/>
</g>
<!-- Node30&#45;&gt;Node22 -->
<g id="edge39" class="edge"><title>Node30&#45;&gt;Node22</title>
<path fill="none" stroke="midnightblue" d="M1035.1,-369.929C1177.63,-363.831 1517.06,-347.097 1629,-322 1632,-321.327 1635.09,-320.462 1638.13,-319.491"/>
<polygon fill="midnightblue" stroke="midnightblue" points="1639.36,-322.771 1647.61,-316.13 1637.02,-316.174 1639.36,-322.771"/>
</g>
<!-- Node30&#45;&gt;Node26 -->
<g id="edge41" class="edge"><title>Node30&#45;&gt;Node26</title>
<path fill="none" stroke="midnightblue" d="M907.358,-358.498C879.444,-350.537 847.153,-338.736 821,-322 793.93,-304.677 769.749,-275.799 755.99,-257.475"/>
<polygon fill="midnightblue" stroke="midnightblue" points="758.67,-255.21 749.945,-249.199 753.017,-259.339 758.67,-255.21"/>
</g>
<!-- Node31 -->
<g id="node31" class="node"><title>Node31</title>
<polygon fill="white" stroke="#bfbfbf" points="788.5,-230 788.5,-249 851.5,-249 851.5,-230 788.5,-230"/>
<text text-anchor="middle" x="820" y="-237" font-family="Helvetica,sans-Serif" font-size="10.00">functional</text>
</g>
<!-- Node30&#45;&gt;Node31 -->
<g id="edge38" class="edge"><title>Node30&#45;&gt;Node31</title>
<path fill="none" stroke="midnightblue" d="M906.782,-361.303C882.39,-353.967 856.337,-341.878 839,-322 823.888,-304.673 820.199,-277.624 819.585,-259.494"/>
<polygon fill="midnightblue" stroke="midnightblue" points="823.084,-259.274 819.531,-249.293 816.084,-259.311 823.084,-259.274"/>
</g>
<!-- Node32 -->
<g id="node32" class="node"><title>Node32</title>
<g id="a_node32"><a xlink:href="so__uid__map_8h.html" target="_top" xlink:title="core/container/so_uid\l_map.h">
<polygon fill="white" stroke="black" points="848.5,-291.5 848.5,-321.5 967.5,-321.5 967.5,-291.5 848.5,-291.5"/>
<text text-anchor="start" x="856.5" y="-309.5" font-family="Helvetica,sans-Serif" font-size="10.00">core/container/so_uid</text>
<text text-anchor="middle" x="908" y="-298.5" font-family="Helvetica,sans-Serif" font-size="10.00">_map.h</text>
</a>
</g>
</g>
<!-- Node30&#45;&gt;Node32 -->
<g id="edge42" class="edge"><title>Node30&#45;&gt;Node32</title>
<path fill="none" stroke="midnightblue" d="M957.33,-358.396C948.992,-349.793 938.168,-338.626 928.785,-328.945"/>
<polygon fill="midnightblue" stroke="midnightblue" points="931.116,-326.321 921.643,-321.577 926.09,-331.193 931.116,-326.321"/>
</g>
<!-- Node30&#45;&gt;Node33 -->
<g id="edge51" class="edge"><title>Node30&#45;&gt;Node33</title>
<path fill="none" stroke="midnightblue" d="M984.159,-358.459C992.572,-348.832 1003.15,-335.418 1010,-322 1019.3,-303.787 1025.56,-281.4 1029.35,-264.7"/>
<polygon fill="midnightblue" stroke="midnightblue" points="1032.84,-265.158 1031.5,-254.648 1025.99,-263.699 1032.84,-265.158"/>
</g>
<!-- Node34 -->
<g id="node34" class="node"><title>Node34</title>
<g id="a_node34"><a xlink:href="operation_8h.html" target="_top" xlink:title="core/operation/operation.h">
<polygon fill="white" stroke="black" points="1062,-297 1062,-316 1206,-316 1206,-297 1062,-297"/>
<text text-anchor="middle" x="1134" y="-304" font-family="Helvetica,sans-Serif" font-size="10.00">core/operation/operation.h</text>
</a>
</g>
</g>
<!-- Node30&#45;&gt;Node34 -->
<g id="edge48" class="edge"><title>Node30&#45;&gt;Node34</title>
<path fill="none" stroke="midnightblue" d="M1006.37,-358.396C1035.22,-346.89 1075.58,-330.797 1103.14,-319.807"/>
<polygon fill="midnightblue" stroke="midnightblue" points="1104.67,-322.962 1112.67,-316.007 1102.08,-316.46 1104.67,-322.962"/>
</g>
<!-- Node35 -->
<g id="node35" class="node"><title>Node35</title>
<g id="a_node35"><a xlink:href="spinlock_8h.html" target="_top" xlink:title="core/util/spinlock.h">
<polygon fill="white" stroke="black" points="1515.5,-297 1515.5,-316 1620.5,-316 1620.5,-297 1515.5,-297"/>
<text text-anchor="middle" x="1568" y="-304" font-family="Helvetica,sans-Serif" font-size="10.00">core/util/spinlock.h</text>
</a>
</g>
</g>
<!-- Node30&#45;&gt;Node35 -->
<g id="edge52" class="edge"><title>Node30&#45;&gt;Node35</title>
<path fill="none" stroke="midnightblue" d="M1035.18,-369.261C1135.97,-363.542 1337.27,-349.563 1506,-322 1512.3,-320.971 1518.91,-319.668 1525.38,-318.268"/>
<polygon fill="midnightblue" stroke="midnightblue" points="1526.36,-321.633 1535.35,-316.012 1524.82,-314.805 1526.36,-321.633"/>
</g>
<!-- Node37 -->
<g id="node37" class="node"><title>Node37</title>
<g id="a_node37"><a xlink:href="thread__info_8h.html" target="_top" xlink:title="core/util/thread_info.h">
<polygon fill="white" stroke="black" points="1376.5,-297 1376.5,-316 1497.5,-316 1497.5,-297 1376.5,-297"/>
<text text-anchor="middle" x="1437" y="-304" font-family="Helvetica,sans-Serif" font-size="10.00">core/util/thread_info.h</text>
</a>
</g>
</g>
<!-- Node30&#45;&gt;Node37 -->
<g id="edge54" class="edge"><title>Node30&#45;&gt;Node37</title>
<path fill="none" stroke="midnightblue" d="M1035.31,-363.53C1122.1,-351.424 1276.19,-329.931 1366.2,-317.376"/>
<polygon fill="midnightblue" stroke="midnightblue" points="1366.89,-320.813 1376.31,-315.965 1365.92,-313.88 1366.89,-320.813"/>
</g>
<!-- Node32&#45;&gt;Node21 -->
<g id="edge43" class="edge"><title>Node32&#45;&gt;Node21</title>
<path fill="none" stroke="midnightblue" d="M914.999,-291.23C924.849,-272.714 944.592,-240.796 971,-224 1024.02,-190.28 1098.94,-181.649 1140.73,-179.552"/>
<polygon fill="midnightblue" stroke="midnightblue" points="1141,-183.044 1150.85,-179.141 1140.72,-176.05 1141,-183.044"/>
</g>
<!-- Node32&#45;&gt;Node26 -->
<g id="edge44" class="edge"><title>Node32&#45;&gt;Node26</title>
<path fill="none" stroke="midnightblue" d="M871.504,-291.432C845.63,-281.406 810.121,-267.536 779,-255 777.364,-254.341 775.687,-253.661 773.995,-252.972"/>
<polygon fill="midnightblue" stroke="midnightblue" points="774.91,-249.564 764.331,-249.002 772.251,-256.039 774.91,-249.564"/>
</g>
<!-- Node32&#45;&gt;Node33 -->
<g id="edge45" class="edge"><title>Node32&#45;&gt;Node33</title>
<path fill="none" stroke="midnightblue" d="M935.34,-291.396C953.585,-281.984 977.78,-269.503 997.643,-259.256"/>
<polygon fill="midnightblue" stroke="midnightblue" points="999.431,-262.272 1006.71,-254.577 996.221,-256.051 999.431,-262.272"/>
</g>
<!-- Node33&#45;&gt;Node11 -->
<g id="edge47" class="edge"><title>Node33&#45;&gt;Node11</title>
<path fill="none" stroke="midnightblue" d="M980.204,-231.616C890.519,-220.141 711.5,-197.234 622.208,-185.808"/>
<polygon fill="midnightblue" stroke="midnightblue" points="622.398,-182.304 612.034,-184.507 621.509,-189.248 622.398,-182.304"/>
</g>
<!-- Node33&#45;&gt;Node21 -->
<g id="edge46" class="edge"><title>Node33&#45;&gt;Node21</title>
<path fill="none" stroke="midnightblue" d="M1066.7,-224.399C1089.75,-214.461 1120.36,-201.265 1142.63,-191.662"/>
<polygon fill="midnightblue" stroke="midnightblue" points="1144.12,-194.831 1151.92,-187.658 1141.35,-188.403 1144.12,-194.831"/>
</g>
<!-- Node34&#45;&gt;Node17 -->
<g id="edge50" class="edge"><title>Node34&#45;&gt;Node17</title>
<path fill="none" stroke="midnightblue" d="M1155.54,-296.902C1196.3,-280.873 1287.73,-246.058 1367,-224 1442.24,-203.062 1475.1,-232.906 1539,-188 1596.53,-147.57 1629.63,-66.1495 1642.16,-29.5556"/>
<polygon fill="midnightblue" stroke="midnightblue" points="1645.59,-30.326 1645.39,-19.733 1638.94,-28.1376 1645.59,-30.326"/>
</g>
<!-- Node34&#45;&gt;Node31 -->
<g id="edge49" class="edge"><title>Node34&#45;&gt;Node31</title>
<path fill="none" stroke="midnightblue" d="M1092.63,-296.936C1032.65,-284.52 922.147,-261.645 861.883,-249.17"/>
<polygon fill="midnightblue" stroke="midnightblue" points="862.45,-245.713 851.948,-247.113 861.031,-252.568 862.45,-245.713"/>
</g>
<!-- Node36 -->
<g id="node36" class="node"><title>Node36</title>
<polygon fill="white" stroke="#bfbfbf" points="1676,-230 1676,-249 1726,-249 1726,-230 1676,-230"/>
<text text-anchor="middle" x="1701" y="-237" font-family="Helvetica,sans-Serif" font-size="10.00">atomic</text>
</g>
<!-- Node35&#45;&gt;Node36 -->
<g id="edge53" class="edge"><title>Node35&#45;&gt;Node36</title>
<path fill="none" stroke="midnightblue" d="M1585.66,-296.869C1608.32,-285.796 1647.83,-266.486 1674.2,-253.598"/>
<polygon fill="midnightblue" stroke="midnightblue" points="1675.82,-256.703 1683.27,-249.167 1672.74,-250.414 1675.82,-256.703"/>
</g>
<!-- Node37&#45;&gt;Node12 -->
<g id="edge58" class="edge"><title>Node37&#45;&gt;Node12</title>
<path fill="none" stroke="midnightblue" d="M1437.44,-296.925C1437.94,-286.881 1438.71,-269.738 1439,-255 1439.27,-241.225 1440.86,-237.652 1439,-224 1434.98,-194.487 1424.66,-161.423 1417.73,-141.415"/>
<polygon fill="midnightblue" stroke="midnightblue" points="1420.94,-139.998 1414.29,-131.748 1414.35,-142.343 1420.94,-139.998"/>
</g>
<!-- Node37&#45;&gt;Node26 -->
<g id="edge57" class="edge"><title>Node37&#45;&gt;Node26</title>
<path fill="none" stroke="midnightblue" d="M1376.22,-301.357C1218.76,-290.553 807.781,-261.881 779,-255 776.481,-254.398 773.909,-253.638 771.36,-252.783"/>
<polygon fill="midnightblue" stroke="midnightblue" points="772.393,-249.431 761.802,-249.147 769.904,-255.974 772.393,-249.431"/>
</g>
<!-- Node38 -->
<g id="node38" class="node"><title>Node38</title>
<polygon fill="white" stroke="#bfbfbf" points="1586.5,-168.5 1586.5,-187.5 1633.5,-187.5 1633.5,-168.5 1586.5,-168.5"/>
<text text-anchor="middle" x="1610" y="-175.5" font-family="Helvetica,sans-Serif" font-size="10.00">omp.h</text>
</g>
<!-- Node37&#45;&gt;Node38 -->
<g id="edge55" class="edge"><title>Node37&#45;&gt;Node38</title>
<path fill="none" stroke="midnightblue" d="M1448.89,-296.805C1478.03,-275.501 1553.25,-220.499 1589.66,-193.875"/>
<polygon fill="midnightblue" stroke="midnightblue" points="1592.02,-196.484 1598.03,-187.756 1587.89,-190.833 1592.02,-196.484"/>
</g>
<!-- Node39 -->
<g id="node39" class="node"><title>Node39</title>
<polygon fill="white" stroke="#bfbfbf" points="1376,-230 1376,-249 1430,-249 1430,-230 1376,-230"/>
<text text-anchor="middle" x="1403" y="-237" font-family="Helvetica,sans-Serif" font-size="10.00">sched.h</text>
</g>
<!-- Node37&#45;&gt;Node39 -->
<g id="edge56" class="edge"><title>Node37&#45;&gt;Node39</title>
<path fill="none" stroke="midnightblue" d="M1432.41,-296.734C1427.27,-286.89 1418.78,-270.66 1412.24,-258.159"/>
<polygon fill="midnightblue" stroke="midnightblue" points="1415.25,-256.366 1407.51,-249.127 1409.05,-259.611 1415.25,-256.366"/>
</g>
<!-- Node40 -->
<g id="node40" class="node"><title>Node40</title>
<g id="a_node40"><a xlink:href="numa_8h.html" target="_top" xlink:title="core/util/numa.h">
<polygon fill="white" stroke="black" points="1562.5,-230 1562.5,-249 1657.5,-249 1657.5,-230 1562.5,-230"/>
<text text-anchor="middle" x="1610" y="-237" font-family="Helvetica,sans-Serif" font-size="10.00">core/util/numa.h</text>
</a>
</g>
</g>
<!-- Node37&#45;&gt;Node40 -->
<g id="edge59" class="edge"><title>Node37&#45;&gt;Node40</title>
<path fill="none" stroke="midnightblue" d="M1459.97,-296.869C1490.17,-285.522 1543.4,-265.525 1577.66,-252.652"/>
<polygon fill="midnightblue" stroke="midnightblue" points="1579.08,-255.857 1587.21,-249.064 1576.62,-249.305 1579.08,-255.857"/>
</g>
<!-- Node40&#45;&gt;Node38 -->
<g id="edge60" class="edge"><title>Node40&#45;&gt;Node38</title>
<path fill="none" stroke="midnightblue" d="M1610,-229.975C1610,-221.58 1610,-208.481 1610,-197.663"/>
<polygon fill="midnightblue" stroke="midnightblue" points="1613.5,-197.509 1610,-187.509 1606.5,-197.509 1613.5,-197.509"/>
</g>
<!-- Node41&#45;&gt;Node11 -->
<g id="edge73" class="edge"><title>Node41&#45;&gt;Node11</title>
<path fill="none" stroke="midnightblue" d="M590.498,-363.728C586.7,-353.785 580.806,-337.007 578,-322 569.799,-278.14 568.672,-225.537 568.732,-197.977"/>
<polygon fill="midnightblue" stroke="midnightblue" points="572.233,-197.824 568.813,-187.797 565.234,-197.768 572.233,-197.824"/>
</g>
<!-- Node41&#45;&gt;Node17 -->
<g id="edge64" class="edge"><title>Node41&#45;&gt;Node17</title>
<path fill="none" stroke="midnightblue" d="M544.452,-364.758C528.955,-362.448 511.783,-360 496,-358 263.499,-328.54 0,-413.36 0,-179 0,-179 0,-179 0,-121 0,-36.8491 1386.04,-14.5304 1615.89,-11.4077"/>
<polygon fill="midnightblue" stroke="midnightblue" points="1616,-14.9067 1625.95,-11.2734 1615.9,-7.90731 1616,-14.9067"/>
</g>
<!-- Node41&#45;&gt;Node26 -->
<g id="edge65" class="edge"><title>Node41&#45;&gt;Node26</title>
<path fill="none" stroke="midnightblue" d="M598.635,-363.954C607.611,-348.013 628.722,-313.339 654,-291 671.835,-275.239 695.395,-262.237 713.936,-253.374"/>
<polygon fill="midnightblue" stroke="midnightblue" points="715.513,-256.501 723.117,-249.124 712.572,-250.149 715.513,-256.501"/>
</g>
<!-- Node41&#45;&gt;Node31 -->
<g id="edge63" class="edge"><title>Node41&#45;&gt;Node31</title>
<path fill="none" stroke="midnightblue" d="M608.828,-363.839C647.231,-341.409 750.162,-281.29 796.647,-254.14"/>
<polygon fill="midnightblue" stroke="midnightblue" points="798.541,-257.087 805.411,-249.021 795.01,-251.042 798.541,-257.087"/>
</g>
<!-- Node41&#45;&gt;Node33 -->
<g id="edge66" class="edge"><title>Node41&#45;&gt;Node33</title>
<path fill="none" stroke="midnightblue" d="M643.724,-370.804C734.102,-366.936 921.051,-355.078 976,-322 998.3,-308.576 1014.37,-282.936 1023.86,-263.985"/>
<polygon fill="midnightblue" stroke="midnightblue" points="1027.1,-265.32 1028.22,-254.784 1020.77,-262.321 1027.1,-265.32"/>
</g>
<!-- Node42 -->
<g id="node42" class="node"><title>Node42</title>
<g id="a_node42"><a xlink:href="random_8h.html" target="_top" xlink:title="core/util/random.h">
<polygon fill="white" stroke="black" points="164,-297 164,-316 268,-316 268,-297 164,-297"/>
<text text-anchor="middle" x="216" y="-304" font-family="Helvetica,sans-Serif" font-size="10.00">core/util/random.h</text>
</a>
</g>
</g>
<!-- Node41&#45;&gt;Node42 -->
<g id="edge67" class="edge"><title>Node41&#45;&gt;Node42</title>
<path fill="none" stroke="midnightblue" d="M544.194,-363.936C474.978,-352.033 349.872,-330.52 275.728,-317.771"/>
<polygon fill="midnightblue" stroke="midnightblue" points="276.064,-314.277 265.615,-316.032 274.877,-321.176 276.064,-314.277"/>
</g>
<!-- Node42&#45;&gt;Node2 -->
<g id="edge68" class="edge"><title>Node42&#45;&gt;Node2</title>
<path fill="none" stroke="midnightblue" d="M193.824,-296.869C164.395,-285.414 112.316,-265.144 79.2844,-252.287"/>
<polygon fill="midnightblue" stroke="midnightblue" points="80.2794,-248.919 69.6909,-248.553 77.7403,-255.442 80.2794,-248.919"/>
</g>
<!-- Node42&#45;&gt;Node3 -->
<g id="edge71" class="edge"><title>Node42&#45;&gt;Node3</title>
<path fill="none" stroke="midnightblue" d="M229.621,-296.734C244.124,-287.4 267.549,-272.325 286.496,-260.131"/>
<polygon fill="midnightblue" stroke="midnightblue" points="288.593,-262.944 295.108,-254.589 284.805,-257.058 288.593,-262.944"/>
</g>
<!-- Node42&#45;&gt;Node11 -->
<g id="edge72" class="edge"><title>Node42&#45;&gt;Node11</title>
<path fill="none" stroke="midnightblue" d="M247.372,-296.968C281.15,-287.56 336.324,-271.552 383,-255 439.498,-234.965 503.956,-207.582 540.231,-191.744"/>
<polygon fill="midnightblue" stroke="midnightblue" points="541.932,-194.82 549.684,-187.599 539.121,-188.409 541.932,-194.82"/>
</g>
<!-- Node42&#45;&gt;Node14 -->
<g id="edge69" class="edge"><title>Node42&#45;&gt;Node14</title>
<path fill="none" stroke="midnightblue" d="M198.957,-296.962C184.256,-288.542 164.011,-274.159 155,-255 138.543,-220.01 130.294,-197.745 155,-168 220.513,-89.1239 556.446,-71.5129 663.313,-67.8808"/>
<polygon fill="midnightblue" stroke="midnightblue" points="663.61,-71.3732 673.492,-67.5542 663.385,-64.3768 663.61,-71.3732"/>
</g>
<!-- Node43 -->
<g id="node43" class="node"><title>Node43</title>
<polygon fill="white" stroke="#bfbfbf" points="164.5,-230 164.5,-249 241.5,-249 241.5,-230 164.5,-230"/>
<text text-anchor="middle" x="203" y="-237" font-family="Helvetica,sans-Serif" font-size="10.00">TRandom3.h</text>
</g>
<!-- Node42&#45;&gt;Node43 -->
<g id="edge70" class="edge"><title>Node42&#45;&gt;Node43</title>
<path fill="none" stroke="midnightblue" d="M214.247,-296.734C212.337,-287.183 209.224,-271.618 206.757,-259.283"/>
<polygon fill="midnightblue" stroke="midnightblue" points="210.119,-258.247 204.725,-249.127 203.255,-259.62 210.119,-258.247"/>
</g>
<!-- Node44&#45;&gt;Node17 -->
<g id="edge78" class="edge"><title>Node44&#45;&gt;Node17</title>
<path fill="none" stroke="midnightblue" d="M1798.38,-291.296C1772.2,-242.506 1686.01,-81.8465 1657.36,-28.4374"/>
<polygon fill="midnightblue" stroke="midnightblue" points="1660.38,-26.6633 1652.56,-19.5061 1654.21,-29.9727 1660.38,-26.6633"/>
</g>
<!-- Node44&#45;&gt;Node36 -->
<g id="edge77" class="edge"><title>Node44&#45;&gt;Node36</title>
<path fill="none" stroke="midnightblue" d="M1783.22,-291.396C1765.45,-280.395 1740.9,-265.2 1723.26,-254.282"/>
<polygon fill="midnightblue" stroke="midnightblue" points="1725.09,-251.295 1714.74,-249.007 1721.4,-257.247 1725.09,-251.295"/>
</g>
<!-- Node46 -->
<g id="node46" class="node"><title>Node46</title>
<polygon fill="white" stroke="#bfbfbf" points="1389.5,-364 1389.5,-383 1466.5,-383 1466.5,-364 1389.5,-364"/>
<text text-anchor="middle" x="1428" y="-371" font-family="Helvetica,sans-Serif" font-size="10.00">cpp_magic.h</text>
</g>
<!-- Node45&#45;&gt;Node46 -->
<g id="edge80" class="edge"><title>Node45&#45;&gt;Node46</title>
<path fill="none" stroke="midnightblue" d="M1428,-430.734C1428,-421.183 1428,-405.618 1428,-393.283"/>
<polygon fill="midnightblue" stroke="midnightblue" points="1431.5,-393.127 1428,-383.127 1424.5,-393.127 1431.5,-393.127"/>
</g>
</g>
</svg>
