<?xml version="1.0" encoding="UTF-8" standalone="no"?>
<!DOCTYPE svg PUBLIC "-//W3C//DTD SVG 1.1//EN"
 "http://www.w3.org/Graphics/SVG/1.1/DTD/svg11.dtd">
<!-- Generated by graphviz version 2.38.0 (20140413.2041)
 -->
<!-- Title: neuroscience/param.h Pages: 1 -->
<svg width="542pt" height="308pt"
 viewBox="0.00 0.00 541.50 308.00" xmlns="http://www.w3.org/2000/svg" xmlns:xlink="http://www.w3.org/1999/xlink">
<g id="graph0" class="graph" transform="scale(1 1) rotate(0) translate(4 304)">
<title>neuroscience/param.h</title>
<polygon fill="white" stroke="none" points="-4,4 -4,-304 537.5,-304 537.5,4 -4,4"/>
<!-- Node1 -->
<g id="node1" class="node"><title>Node1</title>
<polygon fill="#bfbfbf" stroke="black" points="186.5,-280.5 186.5,-299.5 299.5,-299.5 299.5,-280.5 186.5,-280.5"/>
<text text-anchor="middle" x="243" y="-287.5" font-family="Helvetica,sans-Serif" font-size="10.00">neuroscience/param.h</text>
</g>
<!-- Node2 -->
<g id="node2" class="node"><title>Node2</title>
<polygon fill="white" stroke="#bfbfbf" points="0,-224.5 0,-243.5 56,-243.5 56,-224.5 0,-224.5"/>
<text text-anchor="middle" x="28" y="-231.5" font-family="Helvetica,sans-Serif" font-size="10.00">cinttypes</text>
</g>
<!-- Node1&#45;&gt;Node2 -->
<g id="edge1" class="edge"><title>Node1&#45;&gt;Node2</title>
<path fill="none" stroke="midnightblue" d="M208.933,-280.444C169.964,-270.656 106.335,-254.675 65.8494,-244.506"/>
<polygon fill="midnightblue" stroke="midnightblue" points="66.6356,-241.095 56.0842,-242.054 64.9304,-247.884 66.6356,-241.095"/>
</g>
<!-- Node3 -->
<g id="node3" class="node"><title>Node3</title>
<polygon fill="white" stroke="#bfbfbf" points="74,-224.5 74,-243.5 104,-243.5 104,-224.5 74,-224.5"/>
<text text-anchor="middle" x="89" y="-231.5" font-family="Helvetica,sans-Serif" font-size="10.00">set</text>
</g>
<!-- Node1&#45;&gt;Node3 -->
<g id="edge2" class="edge"><title>Node1&#45;&gt;Node3</title>
<path fill="none" stroke="midnightblue" d="M218.598,-280.444C190.046,-270.432 143.01,-253.939 114.142,-243.816"/>
<polygon fill="midnightblue" stroke="midnightblue" points="114.992,-240.405 104.397,-240.399 112.675,-247.011 114.992,-240.405"/>
</g>
<!-- Node4 -->
<g id="node4" class="node"><title>Node4</title>
<polygon fill="white" stroke="#bfbfbf" points="160.5,-0.5 160.5,-19.5 201.5,-19.5 201.5,-0.5 160.5,-0.5"/>
<text text-anchor="middle" x="181" y="-7.5" font-family="Helvetica,sans-Serif" font-size="10.00">string</text>
</g>
<!-- Node1&#45;&gt;Node4 -->
<g id="edge3" class="edge"><title>Node1&#45;&gt;Node4</title>
<path fill="none" stroke="midnightblue" d="M210.692,-280.495C190.839,-273.696 166.351,-262.221 151,-244 131.607,-220.983 132,-209.098 132,-179 132,-179 132,-179 132,-121 132,-85.4659 153.6,-48.627 168.118,-27.8799"/>
<polygon fill="midnightblue" stroke="midnightblue" points="171.131,-29.6871 174.187,-19.5423 165.472,-25.5675 171.131,-29.6871"/>
</g>
<!-- Node5 -->
<g id="node5" class="node"><title>Node5</title>
<polygon fill="white" stroke="#bfbfbf" points="160.5,-224.5 160.5,-243.5 243.5,-243.5 243.5,-224.5 160.5,-224.5"/>
<text text-anchor="middle" x="202" y="-231.5" font-family="Helvetica,sans-Serif" font-size="10.00">unordered_map</text>
</g>
<!-- Node1&#45;&gt;Node5 -->
<g id="edge4" class="edge"><title>Node1&#45;&gt;Node5</title>
<path fill="none" stroke="midnightblue" d="M236.23,-280.083C230.438,-272.455 221.942,-261.264 214.862,-251.941"/>
<polygon fill="midnightblue" stroke="midnightblue" points="217.479,-249.599 208.644,-243.751 211.904,-253.832 217.479,-249.599"/>
</g>
<!-- Node6 -->
<g id="node6" class="node"><title>Node6</title>
<polygon fill="white" stroke="#bfbfbf" points="262,-224.5 262,-243.5 306,-243.5 306,-224.5 262,-224.5"/>
<text text-anchor="middle" x="284" y="-231.5" font-family="Helvetica,sans-Serif" font-size="10.00">vector</text>
</g>
<!-- Node1&#45;&gt;Node6 -->
<g id="edge5" class="edge"><title>Node1&#45;&gt;Node6</title>
<path fill="none" stroke="midnightblue" d="M249.77,-280.083C255.562,-272.455 264.058,-261.264 271.138,-251.941"/>
<polygon fill="midnightblue" stroke="midnightblue" points="274.096,-253.832 277.356,-243.751 268.521,-249.599 274.096,-253.832"/>
</g>
<!-- Node7 -->
<g id="node7" class="node"><title>Node7</title>
<g id="a_node7"><a xlink:href="module__param_8h.html" target="_top" xlink:title="core/param/module_param.h">
<polygon fill="white" stroke="black" points="362,-224.5 362,-243.5 502,-243.5 502,-224.5 362,-224.5"/>
<text text-anchor="middle" x="432" y="-231.5" font-family="Helvetica,sans-Serif" font-size="10.00">core/param/module_param.h</text>
</a>
</g>
</g>
<!-- Node1&#45;&gt;Node7 -->
<g id="edge6" class="edge"><title>Node1&#45;&gt;Node7</title>
<path fill="none" stroke="midnightblue" d="M272.948,-280.444C305.158,-271.241 356.534,-256.562 392.142,-246.388"/>
<polygon fill="midnightblue" stroke="midnightblue" points="393.539,-249.629 402.192,-243.516 391.616,-242.898 393.539,-249.629"/>
</g>
<!-- Node8 -->
<g id="node8" class="node"><title>Node8</title>
<g id="a_node8"><a xlink:href="root_8h.html" target="_top" xlink:title="core/util/root.h">
<polygon fill="white" stroke="black" points="294.5,-168.5 294.5,-187.5 373.5,-187.5 373.5,-168.5 294.5,-168.5"/>
<text text-anchor="middle" x="334" y="-175.5" font-family="Helvetica,sans-Serif" font-size="10.00">core/util/root.h</text>
</a>
</g>
</g>
<!-- Node1&#45;&gt;Node8 -->
<g id="edge17" class="edge"><title>Node1&#45;&gt;Node8</title>
<path fill="none" stroke="midnightblue" d="M264.925,-280.413C281.004,-273.043 302.183,-260.92 315,-244 325.195,-230.541 329.931,-211.728 332.124,-197.802"/>
<polygon fill="midnightblue" stroke="midnightblue" points="335.596,-198.241 333.394,-187.878 328.653,-197.353 335.596,-198.241"/>
</g>
<!-- Node15 -->
<g id="node15" class="node"><title>Node15</title>
<polygon fill="white" stroke="#bfbfbf" points="436.5,-168.5 436.5,-187.5 533.5,-187.5 533.5,-168.5 436.5,-168.5"/>
<text text-anchor="middle" x="485" y="-175.5" font-family="Helvetica,sans-Serif" font-size="10.00">cpptoml/cpptoml.h</text>
</g>
<!-- Node1&#45;&gt;Node15 -->
<g id="edge18" class="edge"><title>Node1&#45;&gt;Node15</title>
<path fill="none" stroke="midnightblue" d="M299.715,-287.752C370.206,-284.863 484.488,-275.335 511,-244 522.832,-230.016 511.72,-209.967 500.579,-195.843"/>
<polygon fill="midnightblue" stroke="midnightblue" points="502.987,-193.272 493.843,-187.921 497.654,-197.806 502.987,-193.272"/>
</g>
<!-- Node7&#45;&gt;Node8 -->
<g id="edge7" class="edge"><title>Node7&#45;&gt;Node8</title>
<path fill="none" stroke="midnightblue" d="M416.255,-224.324C400.681,-215.743 376.623,-202.486 358.541,-192.522"/>
<polygon fill="midnightblue" stroke="midnightblue" points="360.154,-189.415 349.706,-187.655 356.776,-195.546 360.154,-189.415"/>
</g>
<!-- Node7&#45;&gt;Node15 -->
<g id="edge16" class="edge"><title>Node7&#45;&gt;Node15</title>
<path fill="none" stroke="midnightblue" d="M440.752,-224.083C448.47,-216.22 459.905,-204.569 469.217,-195.081"/>
<polygon fill="midnightblue" stroke="midnightblue" points="471.904,-197.34 476.411,-187.751 466.908,-192.436 471.904,-197.34"/>
</g>
<!-- Node9 -->
<g id="node9" class="node"><title>Node9</title>
<g id="a_node9"><a xlink:href="log_8h.html" target="_top" xlink:title="core/util/log.h">
<polygon fill="white" stroke="black" points="285.5,-112.5 285.5,-131.5 360.5,-131.5 360.5,-112.5 285.5,-112.5"/>
<text text-anchor="middle" x="323" y="-119.5" font-family="Helvetica,sans-Serif" font-size="10.00">core/util/log.h</text>
</a>
</g>
</g>
<!-- Node8&#45;&gt;Node9 -->
<g id="edge8" class="edge"><title>Node8&#45;&gt;Node9</title>
<path fill="none" stroke="midnightblue" d="M332.184,-168.083C330.726,-160.927 328.629,-150.635 326.807,-141.691"/>
<polygon fill="midnightblue" stroke="midnightblue" points="330.208,-140.851 324.783,-131.751 323.349,-142.248 330.208,-140.851"/>
</g>
<!-- Node9&#45;&gt;Node4 -->
<g id="edge12" class="edge"><title>Node9&#45;&gt;Node4</title>
<path fill="none" stroke="midnightblue" d="M285.247,-116.315C257.993,-111.001 222.217,-99.7421 200,-76 188.337,-63.5363 183.792,-44.3029 182.042,-29.9874"/>
<polygon fill="midnightblue" stroke="midnightblue" points="185.508,-29.4438 181.156,-19.7843 178.534,-30.0497 185.508,-29.4438"/>
</g>
<!-- Node10 -->
<g id="node10" class="node"><title>Node10</title>
<polygon fill="white" stroke="#bfbfbf" points="209,-56.5 209,-75.5 261,-75.5 261,-56.5 209,-56.5"/>
<text text-anchor="middle" x="235" y="-63.5" font-family="Helvetica,sans-Serif" font-size="10.00">TError.h</text>
</g>
<!-- Node9&#45;&gt;Node10 -->
<g id="edge9" class="edge"><title>Node9&#45;&gt;Node10</title>
<path fill="none" stroke="midnightblue" d="M308.861,-112.324C295.134,-103.9 274.064,-90.9709 257.936,-81.0741"/>
<polygon fill="midnightblue" stroke="midnightblue" points="259.457,-77.9016 249.104,-75.6545 255.796,-83.8678 259.457,-77.9016"/>
</g>
<!-- Node11 -->
<g id="node11" class="node"><title>Node11</title>
<polygon fill="white" stroke="#bfbfbf" points="279.5,-56.5 279.5,-75.5 322.5,-75.5 322.5,-56.5 279.5,-56.5"/>
<text text-anchor="middle" x="301" y="-63.5" font-family="Helvetica,sans-Serif" font-size="10.00">cstdio</text>
</g>
<!-- Node9&#45;&gt;Node11 -->
<g id="edge10" class="edge"><title>Node9&#45;&gt;Node11</title>
<path fill="none" stroke="midnightblue" d="M319.367,-112.083C316.388,-104.77 312.074,-94.1814 308.375,-85.1034"/>
<polygon fill="midnightblue" stroke="midnightblue" points="311.58,-83.6914 304.565,-75.7511 305.097,-86.3326 311.58,-83.6914"/>
</g>
<!-- Node12 -->
<g id="node12" class="node"><title>Node12</title>
<polygon fill="white" stroke="#bfbfbf" points="341,-56.5 341,-75.5 395,-75.5 395,-56.5 341,-56.5"/>
<text text-anchor="middle" x="368" y="-63.5" font-family="Helvetica,sans-Serif" font-size="10.00">iostream</text>
</g>
<!-- Node9&#45;&gt;Node12 -->
<g id="edge11" class="edge"><title>Node9&#45;&gt;Node12</title>
<path fill="none" stroke="midnightblue" d="M330.431,-112.083C336.853,-104.377 346.306,-93.0333 354.122,-83.6531"/>
<polygon fill="midnightblue" stroke="midnightblue" points="356.994,-85.674 360.707,-75.7511 351.617,-81.1927 356.994,-85.674"/>
</g>
<!-- Node13 -->
<g id="node13" class="node"><title>Node13</title>
<g id="a_node13"><a xlink:href="string_8h.html" target="_top" xlink:title="core/util/string.h">
<polygon fill="white" stroke="black" points="413,-56.5 413,-75.5 499,-75.5 499,-56.5 413,-56.5"/>
<text text-anchor="middle" x="456" y="-63.5" font-family="Helvetica,sans-Serif" font-size="10.00">core/util/string.h</text>
</a>
</g>
</g>
<!-- Node9&#45;&gt;Node13 -->
<g id="edge13" class="edge"><title>Node9&#45;&gt;Node13</title>
<path fill="none" stroke="midnightblue" d="M344.074,-112.444C366.06,-103.517 400.734,-89.4387 425.664,-79.3168"/>
<polygon fill="midnightblue" stroke="midnightblue" points="427.076,-82.5213 435.024,-75.5164 424.442,-76.0355 427.076,-82.5213"/>
</g>
<!-- Node13&#45;&gt;Node4 -->
<g id="edge15" class="edge"><title>Node13&#45;&gt;Node4</title>
<path fill="none" stroke="midnightblue" d="M412.729,-56.5031C356.784,-45.5177 260.741,-26.6583 211.727,-17.0337"/>
<polygon fill="midnightblue" stroke="midnightblue" points="212.219,-13.5635 201.732,-15.071 210.87,-20.4323 212.219,-13.5635"/>
</g>
<!-- Node14 -->
<g id="node14" class="node"><title>Node14</title>
<polygon fill="white" stroke="#bfbfbf" points="430,-0.5 430,-19.5 482,-19.5 482,-0.5 430,-0.5"/>
<text text-anchor="middle" x="456" y="-7.5" font-family="Helvetica,sans-Serif" font-size="10.00">sstream</text>
</g>
<!-- Node13&#45;&gt;Node14 -->
<g id="edge14" class="edge"><title>Node13&#45;&gt;Node14</title>
<path fill="none" stroke="midnightblue" d="M456,-56.083C456,-49.0059 456,-38.8611 456,-29.9865"/>
<polygon fill="midnightblue" stroke="midnightblue" points="459.5,-29.751 456,-19.7511 452.5,-29.7511 459.5,-29.751"/>
</g>
</g>
</svg>
