<?xml version="1.0" encoding="UTF-8" standalone="no"?>
<!DOCTYPE svg PUBLIC "-//W3C//DTD SVG 1.1//EN"
 "http://www.w3.org/Graphics/SVG/1.1/DTD/svg11.dtd">
<!-- Generated by graphviz version 2.38.0 (20140413.2041)
 -->
<!-- Title: core/operation/operation.cc Pages: 1 -->
<svg width="1842pt" height="587pt"
 viewBox="0.00 0.00 1842.00 587.00" xmlns="http://www.w3.org/2000/svg" xmlns:xlink="http://www.w3.org/1999/xlink">
<g id="graph0" class="graph" transform="scale(1 1) rotate(0) translate(4 583)">
<title>core/operation/operation.cc</title>
<polygon fill="white" stroke="none" points="-4,4 -4,-583 1838,-583 1838,4 -4,4"/>
<!-- Node1 -->
<g id="node1" class="node"><title>Node1</title>
<polygon fill="#bfbfbf" stroke="black" points="1218.5,-559.5 1218.5,-578.5 1367.5,-578.5 1367.5,-559.5 1218.5,-559.5"/>
<text text-anchor="middle" x="1293" y="-566.5" font-family="Helvetica,sans-Serif" font-size="10.00">core/operation/operation.cc</text>
</g>
<!-- Node2 -->
<g id="node2" class="node"><title>Node2</title>
<g id="a_node2"><a xlink:href="operation_8h.html" target="_top" xlink:title="core/operation/operation.h">
<polygon fill="white" stroke="black" points="1413,-297 1413,-316 1557,-316 1557,-297 1413,-297"/>
<text text-anchor="middle" x="1485" y="-304" font-family="Helvetica,sans-Serif" font-size="10.00">core/operation/operation.h</text>
</a>
</g>
</g>
<!-- Node1&#45;&gt;Node2 -->
<g id="edge1" class="edge"><title>Node1&#45;&gt;Node2</title>
<path fill="none" stroke="midnightblue" d="M1344.48,-559.466C1399.96,-547.222 1485.59,-518.789 1525,-456 1551.64,-413.555 1517.72,-353.527 1497.72,-324.512"/>
<polygon fill="midnightblue" stroke="midnightblue" points="1500.47,-322.343 1491.81,-316.243 1494.77,-326.414 1500.47,-322.343"/>
</g>
<!-- Node5 -->
<g id="node5" class="node"><title>Node5</title>
<g id="a_node5"><a xlink:href="sim__object_8h.html" target="_top" xlink:title="core/sim_object/sim\l_object.h">
<polygon fill="white" stroke="black" points="712.5,-492.5 712.5,-522.5 825.5,-522.5 825.5,-492.5 712.5,-492.5"/>
<text text-anchor="start" x="720.5" y="-510.5" font-family="Helvetica,sans-Serif" font-size="10.00">core/sim_object/sim</text>
<text text-anchor="middle" x="769" y="-499.5" font-family="Helvetica,sans-Serif" font-size="10.00">_object.h</text>
</a>
</g>
</g>
<!-- Node1&#45;&gt;Node5 -->
<g id="edge4" class="edge"><title>Node1&#45;&gt;Node5</title>
<path fill="none" stroke="midnightblue" d="M1218.48,-559.538C1116.14,-547.918 933.672,-527.198 835.647,-516.068"/>
<polygon fill="midnightblue" stroke="midnightblue" points="835.895,-512.574 825.564,-514.923 835.106,-519.529 835.895,-512.574"/>
</g>
<!-- Node3 -->
<g id="node3" class="node"><title>Node3</title>
<polygon fill="white" stroke="#bfbfbf" points="913.5,-230 913.5,-249 976.5,-249 976.5,-230 913.5,-230"/>
<text text-anchor="middle" x="945" y="-237" font-family="Helvetica,sans-Serif" font-size="10.00">functional</text>
</g>
<!-- Node2&#45;&gt;Node3 -->
<g id="edge2" class="edge"><title>Node2&#45;&gt;Node3</title>
<path fill="none" stroke="midnightblue" d="M1412.61,-298.217C1302.26,-287.006 1097.09,-265.697 1024,-255 1011.94,-253.235 998.908,-250.985 986.972,-248.787"/>
<polygon fill="midnightblue" stroke="midnightblue" points="987.291,-245.286 976.817,-246.883 986,-252.166 987.291,-245.286"/>
</g>
<!-- Node4 -->
<g id="node4" class="node"><title>Node4</title>
<polygon fill="white" stroke="#bfbfbf" points="1210,-0.5 1210,-19.5 1254,-19.5 1254,-0.5 1210,-0.5"/>
<text text-anchor="middle" x="1232" y="-7.5" font-family="Helvetica,sans-Serif" font-size="10.00">string</text>
</g>
<!-- Node2&#45;&gt;Node4 -->
<g id="edge3" class="edge"><title>Node2&#45;&gt;Node4</title>
<path fill="none" stroke="midnightblue" d="M1482.82,-296.977C1477.83,-276.687 1466,-223.86 1466,-179 1466,-179 1466,-179 1466,-121 1466,-32.9476 1328.62,-15.25 1264.39,-11.7876"/>
<polygon fill="midnightblue" stroke="midnightblue" points="1264.16,-8.27397 1254.01,-11.3188 1263.85,-15.2668 1264.16,-8.27397"/>
</g>
<!-- Node5&#45;&gt;Node4 -->
<g id="edge11" class="edge"><title>Node5&#45;&gt;Node4</title>
<path fill="none" stroke="midnightblue" d="M825.596,-506.18C984.549,-504.77 1432.58,-497.153 1573,-456 1701.07,-418.465 1834,-440.962 1834,-307.5 1834,-307.5 1834,-307.5 1834,-121 1834,-45.0676 1749.65,-74.4656 1676,-56 1525.22,-18.1978 1338.07,-12.0085 1264.16,-11.0996"/>
<polygon fill="midnightblue" stroke="midnightblue" points="1264.13,-7.59919 1254.1,-11.0006 1264.06,-14.5988 1264.13,-7.59919"/>
</g>
<!-- Node6 -->
<g id="node6" class="node"><title>Node6</title>
<polygon fill="white" stroke="#bfbfbf" points="28,-168.5 28,-187.5 90,-187.5 90,-168.5 28,-168.5"/>
<text text-anchor="middle" x="59" y="-175.5" font-family="Helvetica,sans-Serif" font-size="10.00">algorithm</text>
</g>
<!-- Node5&#45;&gt;Node6 -->
<g id="edge5" class="edge"><title>Node5&#45;&gt;Node6</title>
<path fill="none" stroke="midnightblue" d="M712.277,-506.07C583.924,-504.387 275.007,-496.158 180,-456 129.069,-434.472 86,-429.794 86,-374.5 86,-374.5 86,-374.5 86,-305.5 86,-266.357 73.483,-221.873 65.494,-197.467"/>
<polygon fill="midnightblue" stroke="midnightblue" points="68.7281,-196.105 62.2033,-187.758 62.0985,-198.352 68.7281,-196.105"/>
</g>
<!-- Node7 -->
<g id="node7" class="node"><title>Node7</title>
<polygon fill="white" stroke="#bfbfbf" points="108,-168.5 108,-187.5 160,-187.5 160,-168.5 108,-168.5"/>
<text text-anchor="middle" x="134" y="-175.5" font-family="Helvetica,sans-Serif" font-size="10.00">cassert</text>
</g>
<!-- Node5&#45;&gt;Node7 -->
<g id="edge6" class="edge"><title>Node5&#45;&gt;Node7</title>
<path fill="none" stroke="midnightblue" d="M712.243,-506.356C559.467,-504.447 151,-488.669 151,-374.5 151,-374.5 151,-374.5 151,-305.5 151,-266.858 143.112,-222.163 138.082,-197.592"/>
<polygon fill="midnightblue" stroke="midnightblue" points="141.448,-196.593 135.95,-187.536 134.6,-198.045 141.448,-196.593"/>
</g>
<!-- Node8 -->
<g id="node8" class="node"><title>Node8</title>
<polygon fill="white" stroke="#bfbfbf" points="1174,-168.5 1174,-187.5 1216,-187.5 1216,-168.5 1174,-168.5"/>
<text text-anchor="middle" x="1195" y="-175.5" font-family="Helvetica,sans-Serif" font-size="10.00">limits</text>
</g>
<!-- Node5&#45;&gt;Node8 -->
<g id="edge7" class="edge"><title>Node5&#45;&gt;Node8</title>
<path fill="none" stroke="midnightblue" d="M825.968,-503.966C952.264,-497.918 1247.6,-481.232 1285,-456 1376.29,-394.414 1439.6,-310.934 1372,-224 1363,-212.428 1274.64,-194.092 1226.27,-184.803"/>
<polygon fill="midnightblue" stroke="midnightblue" points="1226.79,-181.34 1216.32,-182.911 1225.49,-188.217 1226.79,-181.34"/>
</g>
<!-- Node9 -->
<g id="node9" class="node"><title>Node9</title>
<polygon fill="white" stroke="#bfbfbf" points="755.5,-297 755.5,-316 812.5,-316 812.5,-297 755.5,-297"/>
<text text-anchor="middle" x="784" y="-304" font-family="Helvetica,sans-Serif" font-size="10.00">memory</text>
</g>
<!-- Node5&#45;&gt;Node9 -->
<g id="edge8" class="edge"><title>Node5&#45;&gt;Node9</title>
<path fill="none" stroke="midnightblue" d="M712.392,-503.55C640.328,-497.541 529.505,-479.409 568,-425 595.766,-385.755 627.358,-411.199 670,-389 706.578,-369.958 744.695,-340.403 766.278,-322.604"/>
<polygon fill="midnightblue" stroke="midnightblue" points="768.526,-325.287 773.956,-316.19 764.038,-319.915 768.526,-325.287"/>
</g>
<!-- Node10 -->
<g id="node10" class="node"><title>Node10</title>
<polygon fill="white" stroke="#bfbfbf" points="489,-431 489,-450 521,-450 521,-431 489,-431"/>
<text text-anchor="middle" x="505" y="-438" font-family="Helvetica,sans-Serif" font-size="10.00">set</text>
</g>
<!-- Node5&#45;&gt;Node10 -->
<g id="edge9" class="edge"><title>Node5&#45;&gt;Node10</title>
<path fill="none" stroke="midnightblue" d="M712.187,-498.128C664.154,-490.135 593.949,-476.283 535,-456 533.383,-455.444 531.739,-454.822 530.097,-454.159"/>
<polygon fill="midnightblue" stroke="midnightblue" points="531.452,-450.931 520.894,-450.049 528.598,-457.323 531.452,-450.931"/>
</g>
<!-- Node11 -->
<g id="node11" class="node"><title>Node11</title>
<polygon fill="white" stroke="#bfbfbf" points="434,-0.5 434,-19.5 490,-19.5 490,-0.5 434,-0.5"/>
<text text-anchor="middle" x="462" y="-7.5" font-family="Helvetica,sans-Serif" font-size="10.00">sstream</text>
</g>
<!-- Node5&#45;&gt;Node11 -->
<g id="edge10" class="edge"><title>Node5&#45;&gt;Node11</title>
<path fill="none" stroke="midnightblue" d="M712.428,-506.314C572.991,-505.202 216.16,-498.189 106,-456 50.5041,-434.746 0,-433.926 0,-374.5 0,-374.5 0,-374.5 0,-121 0,-34.1371 312.971,-15.7439 423.726,-11.9544"/>
<polygon fill="midnightblue" stroke="midnightblue" points="423.913,-15.4503 433.795,-11.6315 423.688,-8.45391 423.913,-15.4503"/>
</g>
<!-- Node12 -->
<g id="node12" class="node"><title>Node12</title>
<polygon fill="white" stroke="#bfbfbf" points="577,-431 577,-450 645,-450 645,-431 577,-431"/>
<text text-anchor="middle" x="611" y="-438" font-family="Helvetica,sans-Serif" font-size="10.00">type_traits</text>
</g>
<!-- Node5&#45;&gt;Node12 -->
<g id="edge12" class="edge"><title>Node5&#45;&gt;Node12</title>
<path fill="none" stroke="midnightblue" d="M734.716,-492.396C706.871,-480.941 667.974,-464.938 641.268,-453.952"/>
<polygon fill="midnightblue" stroke="midnightblue" points="642.258,-450.575 631.679,-450.007 639.595,-457.048 642.258,-450.575"/>
</g>
<!-- Node13 -->
<g id="node13" class="node"><title>Node13</title>
<polygon fill="white" stroke="#bfbfbf" points="663.5,-431 663.5,-450 756.5,-450 756.5,-431 663.5,-431"/>
<text text-anchor="middle" x="710" y="-438" font-family="Helvetica,sans-Serif" font-size="10.00">unordered_map</text>
</g>
<!-- Node5&#45;&gt;Node13 -->
<g id="edge13" class="edge"><title>Node5&#45;&gt;Node13</title>
<path fill="none" stroke="midnightblue" d="M756.198,-492.396C746.907,-482.161 734.322,-468.296 724.634,-457.622"/>
<polygon fill="midnightblue" stroke="midnightblue" points="727.205,-455.247 717.892,-450.195 722.021,-459.951 727.205,-455.247"/>
</g>
<!-- Node14 -->
<g id="node14" class="node"><title>Node14</title>
<polygon fill="white" stroke="#bfbfbf" points="1033.5,-230 1033.5,-249 1080.5,-249 1080.5,-230 1033.5,-230"/>
<text text-anchor="middle" x="1057" y="-237" font-family="Helvetica,sans-Serif" font-size="10.00">vector</text>
</g>
<!-- Node5&#45;&gt;Node14 -->
<g id="edge14" class="edge"><title>Node5&#45;&gt;Node14</title>
<path fill="none" stroke="midnightblue" d="M825.767,-499.27C896.587,-487.556 1017.75,-458.297 1095,-389 1129.21,-358.311 1149.07,-331.844 1128,-291 1119.44,-274.413 1102.64,-262.083 1087.53,-253.761"/>
<polygon fill="midnightblue" stroke="midnightblue" points="1088.92,-250.542 1078.43,-249.094 1085.73,-256.771 1088.92,-250.542"/>
</g>
<!-- Node15 -->
<g id="node15" class="node"><title>Node15</title>
<g id="a_node15"><a xlink:href="math__array_8h.html" target="_top" xlink:title="core/container/math\l_array.h">
<polygon fill="white" stroke="black" points="235,-224.5 235,-254.5 349,-254.5 349,-224.5 235,-224.5"/>
<text text-anchor="start" x="243" y="-242.5" font-family="Helvetica,sans-Serif" font-size="10.00">core/container/math</text>
<text text-anchor="middle" x="292" y="-231.5" font-family="Helvetica,sans-Serif" font-size="10.00">_array.h</text>
</a>
</g>
</g>
<!-- Node5&#45;&gt;Node15 -->
<g id="edge15" class="edge"><title>Node5&#45;&gt;Node15</title>
<path fill="none" stroke="midnightblue" d="M712.213,-503.844C598.733,-497.996 352.43,-482.389 325,-456 272.587,-405.577 280.265,-309.434 287.354,-264.616"/>
<polygon fill="midnightblue" stroke="midnightblue" points="290.826,-265.078 289.062,-254.631 283.926,-263.898 290.826,-265.078"/>
</g>
<!-- Node21 -->
<g id="node21" class="node"><title>Node21</title>
<g id="a_node21"><a xlink:href="root_8h.html" target="_top" xlink:title="core/util/root.h">
<polygon fill="white" stroke="black" points="679,-168.5 679,-187.5 765,-187.5 765,-168.5 679,-168.5"/>
<text text-anchor="middle" x="722" y="-175.5" font-family="Helvetica,sans-Serif" font-size="10.00">core/util/root.h</text>
</a>
</g>
</g>
<!-- Node5&#45;&gt;Node21 -->
<g id="edge80" class="edge"><title>Node5&#45;&gt;Node21</title>
<path fill="none" stroke="midnightblue" d="M712.245,-502.058C639.149,-495.417 517.091,-480.938 480,-456 421.669,-416.781 415.423,-389.553 396,-322 362.806,-206.55 567.95,-183.977 668.646,-179.8"/>
<polygon fill="midnightblue" stroke="midnightblue" points="669.064,-183.287 678.929,-179.422 668.807,-176.292 669.064,-183.287"/>
</g>
<!-- Node28 -->
<g id="node28" class="node"><title>Node28</title>
<g id="a_node28"><a xlink:href="shape_8h.html" target="_top" xlink:title="core/shape.h">
<polygon fill="white" stroke="black" points="1197.5,-431 1197.5,-450 1276.5,-450 1276.5,-431 1197.5,-431"/>
<text text-anchor="middle" x="1237" y="-438" font-family="Helvetica,sans-Serif" font-size="10.00">core/shape.h</text>
</a>
</g>
</g>
<!-- Node5&#45;&gt;Node28 -->
<g id="edge33" class="edge"><title>Node5&#45;&gt;Node28</title>
<path fill="none" stroke="midnightblue" d="M825.643,-502.137C905.749,-495.391 1056.48,-480.576 1183,-456 1188.05,-455.019 1193.33,-453.822 1198.52,-452.541"/>
<polygon fill="midnightblue" stroke="midnightblue" points="1199.5,-455.901 1208.31,-450.009 1197.75,-449.124 1199.5,-455.901"/>
</g>
<!-- Node29 -->
<g id="node29" class="node"><title>Node29</title>
<g id="a_node29"><a xlink:href="so__pointer_8h.html" target="_top" xlink:title="core/sim_object/so\l_pointer.h">
<polygon fill="white" stroke="black" points="774.5,-425.5 774.5,-455.5 881.5,-455.5 881.5,-425.5 774.5,-425.5"/>
<text text-anchor="start" x="782.5" y="-443.5" font-family="Helvetica,sans-Serif" font-size="10.00">core/sim_object/so</text>
<text text-anchor="middle" x="828" y="-432.5" font-family="Helvetica,sans-Serif" font-size="10.00">_pointer.h</text>
</a>
</g>
</g>
<!-- Node5&#45;&gt;Node29 -->
<g id="edge34" class="edge"><title>Node5&#45;&gt;Node29</title>
<path fill="none" stroke="midnightblue" d="M781.802,-492.396C789.534,-483.878 799.547,-472.847 808.273,-463.233"/>
<polygon fill="midnightblue" stroke="midnightblue" points="811.093,-465.333 815.223,-455.577 805.91,-460.629 811.093,-465.333"/>
</g>
<!-- Node33 -->
<g id="node33" class="node"><title>Node33</title>
<g id="a_node33"><a xlink:href="so__uid_8h.html" target="_top" xlink:title="core/sim_object/so\l_uid.h">
<polygon fill="white" stroke="black" points="788.5,-224.5 788.5,-254.5 895.5,-254.5 895.5,-224.5 788.5,-224.5"/>
<text text-anchor="start" x="796.5" y="-242.5" font-family="Helvetica,sans-Serif" font-size="10.00">core/sim_object/so</text>
<text text-anchor="middle" x="842" y="-231.5" font-family="Helvetica,sans-Serif" font-size="10.00">_uid.h</text>
</a>
</g>
</g>
<!-- Node5&#45;&gt;Node33 -->
<g id="edge74" class="edge"><title>Node5&#45;&gt;Node33</title>
<path fill="none" stroke="midnightblue" d="M825.791,-497.151C849.819,-490.081 875.549,-477.691 890,-456 930.603,-395.057 883.869,-305.054 857.542,-263.307"/>
<polygon fill="midnightblue" stroke="midnightblue" points="860.339,-261.187 851.965,-254.697 854.464,-264.993 860.339,-261.187"/>
</g>
<!-- Node44 -->
<g id="node44" class="node"><title>Node44</title>
<g id="a_node44"><a xlink:href="sim__object_2so__visitor_8h.html" target="_top" xlink:title="core/sim_object/so\l_visitor.h">
<polygon fill="white" stroke="black" points="1698.5,-291.5 1698.5,-321.5 1805.5,-321.5 1805.5,-291.5 1698.5,-291.5"/>
<text text-anchor="start" x="1706.5" y="-309.5" font-family="Helvetica,sans-Serif" font-size="10.00">core/sim_object/so</text>
<text text-anchor="middle" x="1752" y="-298.5" font-family="Helvetica,sans-Serif" font-size="10.00">_visitor.h</text>
</a>
</g>
</g>
<!-- Node5&#45;&gt;Node44 -->
<g id="edge75" class="edge"><title>Node5&#45;&gt;Node44</title>
<path fill="none" stroke="midnightblue" d="M825.635,-506.417C978.278,-505.607 1395.43,-499.372 1525,-456 1608.18,-428.158 1690.48,-362.224 1729.15,-328.363"/>
<polygon fill="midnightblue" stroke="midnightblue" points="1731.57,-330.902 1736.73,-321.65 1726.92,-325.663 1731.57,-330.902"/>
</g>
<!-- Node45 -->
<g id="node45" class="node"><title>Node45</title>
<g id="a_node45"><a xlink:href="macros_8h.html" target="_top" xlink:title="core/util/macros.h">
<polygon fill="white" stroke="black" points="1413.5,-431 1413.5,-450 1516.5,-450 1516.5,-431 1413.5,-431"/>
<text text-anchor="middle" x="1465" y="-438" font-family="Helvetica,sans-Serif" font-size="10.00">core/util/macros.h</text>
</a>
</g>
</g>
<!-- Node5&#45;&gt;Node45 -->
<g id="edge78" class="edge"><title>Node5&#45;&gt;Node45</title>
<path fill="none" stroke="midnightblue" d="M825.767,-504.543C936.53,-500.152 1189.01,-487.335 1399,-456 1405.86,-454.976 1413.07,-453.652 1420.11,-452.221"/>
<polygon fill="midnightblue" stroke="midnightblue" points="1421.17,-455.572 1430.23,-450.069 1419.72,-448.725 1421.17,-455.572"/>
</g>
<!-- Node15&#45;&gt;Node6 -->
<g id="edge16" class="edge"><title>Node15&#45;&gt;Node6</title>
<path fill="none" stroke="midnightblue" d="M237.077,-224.475C195.086,-213.752 138.116,-199.203 100.033,-189.478"/>
<polygon fill="midnightblue" stroke="midnightblue" points="100.856,-186.076 90.3006,-186.993 99.1236,-192.859 100.856,-186.076"/>
</g>
<!-- Node15&#45;&gt;Node7 -->
<g id="edge17" class="edge"><title>Node15&#45;&gt;Node7</title>
<path fill="none" stroke="midnightblue" d="M254.556,-224.399C227.81,-214.327 192.179,-200.909 166.601,-191.277"/>
<polygon fill="midnightblue" stroke="midnightblue" points="167.582,-187.907 156.99,-187.658 165.115,-194.458 167.582,-187.907"/>
</g>
<!-- Node16 -->
<g id="node16" class="node"><title>Node16</title>
<polygon fill="white" stroke="#bfbfbf" points="410.5,-168.5 410.5,-187.5 457.5,-187.5 457.5,-168.5 410.5,-168.5"/>
<text text-anchor="middle" x="434" y="-175.5" font-family="Helvetica,sans-Serif" font-size="10.00">cmath</text>
</g>
<!-- Node15&#45;&gt;Node16 -->
<g id="edge18" class="edge"><title>Node15&#45;&gt;Node16</title>
<path fill="none" stroke="midnightblue" d="M325.652,-224.399C349.477,-214.416 381.146,-201.147 404.088,-191.534"/>
<polygon fill="midnightblue" stroke="midnightblue" points="405.467,-194.751 413.338,-187.658 402.762,-188.294 405.467,-194.751"/>
</g>
<!-- Node17 -->
<g id="node17" class="node"><title>Node17</title>
<polygon fill="white" stroke="#bfbfbf" points="254,-168.5 254,-187.5 310,-187.5 310,-168.5 254,-168.5"/>
<text text-anchor="middle" x="282" y="-175.5" font-family="Helvetica,sans-Serif" font-size="10.00">numeric</text>
</g>
<!-- Node15&#45;&gt;Node17 -->
<g id="edge19" class="edge"><title>Node15&#45;&gt;Node17</title>
<path fill="none" stroke="midnightblue" d="M289.63,-224.399C288.282,-216.377 286.577,-206.233 285.121,-197.569"/>
<polygon fill="midnightblue" stroke="midnightblue" points="288.564,-196.939 283.455,-187.658 281.661,-198.1 288.564,-196.939"/>
</g>
<!-- Node18 -->
<g id="node18" class="node"><title>Node18</title>
<polygon fill="white" stroke="#bfbfbf" points="178.5,-168.5 178.5,-187.5 235.5,-187.5 235.5,-168.5 178.5,-168.5"/>
<text text-anchor="middle" x="207" y="-175.5" font-family="Helvetica,sans-Serif" font-size="10.00">ostream</text>
</g>
<!-- Node15&#45;&gt;Node18 -->
<g id="edge20" class="edge"><title>Node15&#45;&gt;Node18</title>
<path fill="none" stroke="midnightblue" d="M271.856,-224.399C258.613,-215.129 241.322,-203.025 227.924,-193.647"/>
<polygon fill="midnightblue" stroke="midnightblue" points="229.568,-190.525 219.368,-187.658 225.553,-196.26 229.568,-190.525"/>
</g>
<!-- Node19 -->
<g id="node19" class="node"><title>Node19</title>
<polygon fill="white" stroke="#bfbfbf" points="328,-168.5 328,-187.5 392,-187.5 392,-168.5 328,-168.5"/>
<text text-anchor="middle" x="360" y="-175.5" font-family="Helvetica,sans-Serif" font-size="10.00">stdexcept</text>
</g>
<!-- Node15&#45;&gt;Node19 -->
<g id="edge21" class="edge"><title>Node15&#45;&gt;Node19</title>
<path fill="none" stroke="midnightblue" d="M308.115,-224.399C318.404,-215.397 331.747,-203.721 342.326,-194.465"/>
<polygon fill="midnightblue" stroke="midnightblue" points="344.884,-196.877 350.105,-187.658 340.275,-191.609 344.884,-196.877"/>
</g>
<!-- Node20 -->
<g id="node20" class="node"><title>Node20</title>
<polygon fill="white" stroke="#bfbfbf" points="514,-168.5 514,-187.5 556,-187.5 556,-168.5 514,-168.5"/>
<text text-anchor="middle" x="535" y="-175.5" font-family="Helvetica,sans-Serif" font-size="10.00">utility</text>
</g>
<!-- Node15&#45;&gt;Node20 -->
<g id="edge22" class="edge"><title>Node15&#45;&gt;Node20</title>
<path fill="none" stroke="midnightblue" d="M349.28,-224.475C397.505,-212.667 464.671,-196.22 503.619,-186.684"/>
<polygon fill="midnightblue" stroke="midnightblue" points="504.937,-189.965 513.817,-184.187 503.272,-183.165 504.937,-189.965"/>
</g>
<!-- Node15&#45;&gt;Node21 -->
<g id="edge23" class="edge"><title>Node15&#45;&gt;Node21</title>
<path fill="none" stroke="midnightblue" d="M349.101,-230.599C432.791,-219.018 587.62,-197.594 668.945,-186.341"/>
<polygon fill="midnightblue" stroke="midnightblue" points="669.54,-189.792 678.966,-184.955 668.58,-182.859 669.54,-189.792"/>
</g>
<!-- Node22 -->
<g id="node22" class="node"><title>Node22</title>
<g id="a_node22"><a xlink:href="log_8h.html" target="_top" xlink:title="core/util/log.h">
<polygon fill="white" stroke="black" points="984.5,-112.5 984.5,-131.5 1065.5,-131.5 1065.5,-112.5 984.5,-112.5"/>
<text text-anchor="middle" x="1025" y="-119.5" font-family="Helvetica,sans-Serif" font-size="10.00">core/util/log.h</text>
</a>
</g>
</g>
<!-- Node21&#45;&gt;Node22 -->
<g id="edge24" class="edge"><title>Node21&#45;&gt;Node22</title>
<path fill="none" stroke="midnightblue" d="M765.091,-169.32C820.269,-159.487 915.739,-142.472 974.339,-132.029"/>
<polygon fill="midnightblue" stroke="midnightblue" points="975.248,-135.422 984.479,-130.222 974.02,-128.531 975.248,-135.422"/>
</g>
<!-- Node22&#45;&gt;Node4 -->
<g id="edge29" class="edge"><title>Node22&#45;&gt;Node4</title>
<path fill="none" stroke="midnightblue" d="M1020.33,-112.321C1013.71,-98.7129 1003.81,-72.2378 1017,-56 1039.66,-28.112 1145.45,-16.8979 1199.71,-12.9212"/>
<polygon fill="midnightblue" stroke="midnightblue" points="1200.1,-16.4026 1209.84,-12.2196 1199.62,-9.41933 1200.1,-16.4026"/>
</g>
<!-- Node23 -->
<g id="node23" class="node"><title>Node23</title>
<polygon fill="white" stroke="#bfbfbf" points="1026.5,-56.5 1026.5,-75.5 1079.5,-75.5 1079.5,-56.5 1026.5,-56.5"/>
<text text-anchor="middle" x="1053" y="-63.5" font-family="Helvetica,sans-Serif" font-size="10.00">TError.h</text>
</g>
<!-- Node22&#45;&gt;Node23 -->
<g id="edge25" class="edge"><title>Node22&#45;&gt;Node23</title>
<path fill="none" stroke="midnightblue" d="M1029.62,-112.083C1033.46,-104.691 1039.02,-93.9533 1043.76,-84.8111"/>
<polygon fill="midnightblue" stroke="midnightblue" points="1046.97,-86.2398 1048.46,-75.7511 1040.75,-83.0175 1046.97,-86.2398"/>
</g>
<!-- Node24 -->
<g id="node24" class="node"><title>Node24</title>
<polygon fill="white" stroke="#bfbfbf" points="728.5,-56.5 728.5,-75.5 773.5,-75.5 773.5,-56.5 728.5,-56.5"/>
<text text-anchor="middle" x="751" y="-63.5" font-family="Helvetica,sans-Serif" font-size="10.00">cstdio</text>
</g>
<!-- Node22&#45;&gt;Node24 -->
<g id="edge26" class="edge"><title>Node22&#45;&gt;Node24</title>
<path fill="none" stroke="midnightblue" d="M984.275,-112.974C929.717,-102.222 833.97,-83.3517 783.79,-73.4623"/>
<polygon fill="midnightblue" stroke="midnightblue" points="784.294,-69.9943 773.806,-71.4945 782.94,-76.8622 784.294,-69.9943"/>
</g>
<!-- Node25 -->
<g id="node25" class="node"><title>Node25</title>
<polygon fill="white" stroke="#bfbfbf" points="1097.5,-56.5 1097.5,-75.5 1144.5,-75.5 1144.5,-56.5 1097.5,-56.5"/>
<text text-anchor="middle" x="1121" y="-63.5" font-family="Helvetica,sans-Serif" font-size="10.00">cstdlib</text>
</g>
<!-- Node22&#45;&gt;Node25 -->
<g id="edge27" class="edge"><title>Node22&#45;&gt;Node25</title>
<path fill="none" stroke="midnightblue" d="M1040.42,-112.324C1055.54,-103.822 1078.82,-90.7288 1096.47,-80.7975"/>
<polygon fill="midnightblue" stroke="midnightblue" points="1098.61,-83.6077 1105.61,-75.6545 1095.18,-77.5066 1098.61,-83.6077"/>
</g>
<!-- Node26 -->
<g id="node26" class="node"><title>Node26</title>
<polygon fill="white" stroke="#bfbfbf" points="1162.5,-56.5 1162.5,-75.5 1221.5,-75.5 1221.5,-56.5 1162.5,-56.5"/>
<text text-anchor="middle" x="1192" y="-63.5" font-family="Helvetica,sans-Serif" font-size="10.00">iostream</text>
</g>
<!-- Node22&#45;&gt;Node26 -->
<g id="edge28" class="edge"><title>Node22&#45;&gt;Node26</title>
<path fill="none" stroke="midnightblue" d="M1051.46,-112.444C1079.68,-103.32 1124.54,-88.8133 1155.97,-78.6509"/>
<polygon fill="midnightblue" stroke="midnightblue" points="1157.22,-81.9234 1165.66,-75.5164 1155.07,-75.263 1157.22,-81.9234"/>
</g>
<!-- Node27 -->
<g id="node27" class="node"><title>Node27</title>
<g id="a_node27"><a xlink:href="string_8h.html" target="_top" xlink:title="core/util/string.h">
<polygon fill="white" stroke="black" points="876,-56.5 876,-75.5 970,-75.5 970,-56.5 876,-56.5"/>
<text text-anchor="middle" x="923" y="-63.5" font-family="Helvetica,sans-Serif" font-size="10.00">core/util/string.h</text>
</a>
</g>
</g>
<!-- Node22&#45;&gt;Node27 -->
<g id="edge30" class="edge"><title>Node22&#45;&gt;Node27</title>
<path fill="none" stroke="midnightblue" d="M1008.61,-112.324C992.329,-103.703 967.133,-90.3643 948.284,-80.3855"/>
<polygon fill="midnightblue" stroke="midnightblue" points="949.823,-77.2402 939.347,-75.6545 946.548,-83.4267 949.823,-77.2402"/>
</g>
<!-- Node27&#45;&gt;Node4 -->
<g id="edge32" class="edge"><title>Node27&#45;&gt;Node4</title>
<path fill="none" stroke="midnightblue" d="M970.267,-56.7398C1033.82,-45.6327 1145.15,-26.1769 1199.84,-16.6206"/>
<polygon fill="midnightblue" stroke="midnightblue" points="1200.74,-20.0161 1209.99,-14.8468 1199.53,-13.1206 1200.74,-20.0161"/>
</g>
<!-- Node27&#45;&gt;Node11 -->
<g id="edge31" class="edge"><title>Node27&#45;&gt;Node11</title>
<path fill="none" stroke="midnightblue" d="M875.831,-59.4748C784.283,-48.7512 584.157,-25.309 500.235,-15.4787"/>
<polygon fill="midnightblue" stroke="midnightblue" points="500.461,-11.9814 490.122,-14.2941 499.647,-18.9339 500.461,-11.9814"/>
</g>
<!-- Node29&#45;&gt;Node8 -->
<g id="edge36" class="edge"><title>Node29&#45;&gt;Node8</title>
<path fill="none" stroke="midnightblue" d="M881.598,-433.635C996.726,-419.996 1262.45,-382.621 1327,-322 1359.69,-291.303 1377.96,-259.834 1351,-224 1343.37,-213.86 1269.3,-195.721 1226.02,-185.853"/>
<polygon fill="midnightblue" stroke="midnightblue" points="1226.78,-182.437 1216.26,-183.647 1225.24,-189.265 1226.78,-182.437"/>
</g>
<!-- Node29&#45;&gt;Node18 -->
<g id="edge37" class="edge"><title>Node29&#45;&gt;Node18</title>
<path fill="none" stroke="midnightblue" d="M774.436,-426.915C771.248,-426.246 768.084,-425.602 765,-425 666.035,-405.681 638.452,-414.891 541,-389 459.304,-367.295 440.611,-355.495 363,-322 300.768,-295.142 268.644,-307.684 226,-255 212.79,-238.68 208.603,-214.406 207.36,-197.706"/>
<polygon fill="midnightblue" stroke="midnightblue" points="210.849,-197.374 206.896,-187.545 203.856,-197.694 210.849,-197.374"/>
</g>
<!-- Node29&#45;&gt;Node21 -->
<g id="edge73" class="edge"><title>Node29&#45;&gt;Node21</title>
<path fill="none" stroke="midnightblue" d="M774.429,-426.948C771.243,-426.27 768.082,-425.616 765,-425 718.141,-415.637 583.832,-425.508 553,-389 521.631,-351.855 591.472,-300.541 602,-291 625.327,-269.861 639.373,-275.803 663,-255 682.702,-237.653 700.449,-212.963 711.217,-196.483"/>
<polygon fill="midnightblue" stroke="midnightblue" points="714.297,-198.162 716.712,-187.846 708.391,-194.404 714.297,-198.162"/>
</g>
<!-- Node30 -->
<g id="node30" class="node"><title>Node30</title>
<polygon fill="white" stroke="#bfbfbf" points="803.5,-364 803.5,-383 852.5,-383 852.5,-364 803.5,-364"/>
<text text-anchor="middle" x="828" y="-371" font-family="Helvetica,sans-Serif" font-size="10.00">cstdint</text>
</g>
<!-- Node29&#45;&gt;Node30 -->
<g id="edge35" class="edge"><title>Node29&#45;&gt;Node30</title>
<path fill="none" stroke="midnightblue" d="M828,-425.396C828,-416.064 828,-403.714 828,-393.517"/>
<polygon fill="midnightblue" stroke="midnightblue" points="831.5,-393.195 828,-383.195 824.5,-393.195 831.5,-393.195"/>
</g>
<!-- Node31 -->
<g id="node31" class="node"><title>Node31</title>
<g id="a_node31"><a xlink:href="in__place__exec__ctxt_8h.html" target="_top" xlink:title="core/execution_context\l/in_place_exec_ctxt.h">
<polygon fill="white" stroke="black" points="958,-358.5 958,-388.5 1086,-388.5 1086,-358.5 958,-358.5"/>
<text text-anchor="start" x="966" y="-376.5" font-family="Helvetica,sans-Serif" font-size="10.00">core/execution_context</text>
<text text-anchor="middle" x="1022" y="-365.5" font-family="Helvetica,sans-Serif" font-size="10.00">/in_place_exec_ctxt.h</text>
</a>
</g>
</g>
<!-- Node29&#45;&gt;Node31 -->
<g id="edge38" class="edge"><title>Node29&#45;&gt;Node31</title>
<path fill="none" stroke="midnightblue" d="M870.095,-425.396C899.458,-415.558 938.828,-402.367 970.13,-391.879"/>
<polygon fill="midnightblue" stroke="midnightblue" points="971.617,-395.072 979.987,-388.577 969.393,-388.435 971.617,-395.072"/>
</g>
<!-- Node29&#45;&gt;Node33 -->
<g id="edge60" class="edge"><title>Node29&#45;&gt;Node33</title>
<path fill="none" stroke="midnightblue" d="M809.707,-425.373C777.51,-398.733 716.77,-339.404 746,-291 754.545,-276.849 768.518,-266.465 783.191,-258.929"/>
<polygon fill="midnightblue" stroke="midnightblue" points="784.824,-262.028 792.375,-254.596 781.838,-255.697 784.824,-262.028"/>
</g>
<!-- Node40 -->
<g id="node40" class="node"><title>Node40</title>
<g id="a_node40"><a xlink:href="simulation_8h.html" target="_top" xlink:title="core/simulation.h">
<polygon fill="white" stroke="black" points="562.5,-364 562.5,-383 661.5,-383 661.5,-364 562.5,-364"/>
<text text-anchor="middle" x="612" y="-371" font-family="Helvetica,sans-Serif" font-size="10.00">core/simulation.h</text>
</a>
</g>
</g>
<!-- Node29&#45;&gt;Node40 -->
<g id="edge61" class="edge"><title>Node29&#45;&gt;Node40</title>
<path fill="none" stroke="midnightblue" d="M781.397,-425.476C742.174,-413.673 686.772,-397.001 650.145,-385.979"/>
<polygon fill="midnightblue" stroke="midnightblue" points="650.926,-382.559 640.341,-383.029 648.909,-389.262 650.926,-382.559"/>
</g>
<!-- Node31&#45;&gt;Node2 -->
<g id="edge49" class="edge"><title>Node31&#45;&gt;Node2</title>
<path fill="none" stroke="midnightblue" d="M1086.38,-363.462C1172.51,-351.37 1324.73,-330 1414.07,-317.457"/>
<polygon fill="midnightblue" stroke="midnightblue" points="1414.7,-320.904 1424.11,-316.048 1413.72,-313.972 1414.7,-320.904"/>
</g>
<!-- Node31&#45;&gt;Node3 -->
<g id="edge39" class="edge"><title>Node31&#45;&gt;Node3</title>
<path fill="none" stroke="midnightblue" d="M1005.47,-358.433C995.239,-348.999 982.485,-335.81 974,-322 961.746,-302.056 953.664,-276.187 949.216,-259.001"/>
<polygon fill="midnightblue" stroke="midnightblue" points="952.574,-258 946.81,-249.11 945.773,-259.654 952.574,-258"/>
</g>
<!-- Node31&#45;&gt;Node9 -->
<g id="edge40" class="edge"><title>Node31&#45;&gt;Node9</title>
<path fill="none" stroke="midnightblue" d="M963.247,-358.453C924.385,-348.875 872.416,-335.519 827,-322 824.074,-321.129 821.049,-320.189 818.021,-319.222"/>
<polygon fill="midnightblue" stroke="midnightblue" points="819.054,-315.878 808.461,-316.087 816.873,-322.529 819.054,-315.878"/>
</g>
<!-- Node31&#45;&gt;Node14 -->
<g id="edge42" class="edge"><title>Node31&#45;&gt;Node14</title>
<path fill="none" stroke="midnightblue" d="M1066.23,-358.437C1083.35,-350.586 1101.17,-338.887 1111,-322 1117.93,-310.094 1116.48,-303.639 1111,-291 1104.54,-276.124 1091.31,-263.632 1079.56,-254.794"/>
<polygon fill="midnightblue" stroke="midnightblue" points="1081.57,-251.93 1071.38,-249.022 1077.53,-257.648 1081.57,-251.93"/>
</g>
<!-- Node31&#45;&gt;Node20 -->
<g id="edge41" class="edge"><title>Node31&#45;&gt;Node20</title>
<path fill="none" stroke="midnightblue" d="M987.551,-358.386C947.559,-342.035 879.591,-314.35 821,-291 728.16,-254.001 617.966,-211.146 565.589,-190.841"/>
<polygon fill="midnightblue" stroke="midnightblue" points="566.792,-187.553 556.203,-187.203 564.262,-194.08 566.792,-187.553"/>
</g>
<!-- Node32 -->
<g id="node32" class="node"><title>Node32</title>
<g id="a_node32"><a xlink:href="so__uid__map_8h.html" target="_top" xlink:title="core/container/so_uid\l_map.h">
<polygon fill="white" stroke="black" points="983.5,-291.5 983.5,-321.5 1102.5,-321.5 1102.5,-291.5 983.5,-291.5"/>
<text text-anchor="start" x="991.5" y="-309.5" font-family="Helvetica,sans-Serif" font-size="10.00">core/container/so_uid</text>
<text text-anchor="middle" x="1043" y="-298.5" font-family="Helvetica,sans-Serif" font-size="10.00">_map.h</text>
</a>
</g>
</g>
<!-- Node31&#45;&gt;Node32 -->
<g id="edge43" class="edge"><title>Node31&#45;&gt;Node32</title>
<path fill="none" stroke="midnightblue" d="M1026.56,-358.396C1029.12,-350.474 1032.38,-340.379 1035.32,-331.271"/>
<polygon fill="midnightblue" stroke="midnightblue" points="1038.71,-332.168 1038.45,-321.577 1032.05,-330.016 1038.71,-332.168"/>
</g>
<!-- Node31&#45;&gt;Node33 -->
<g id="edge50" class="edge"><title>Node31&#45;&gt;Node33</title>
<path fill="none" stroke="midnightblue" d="M1002.74,-358.374C970.663,-334.853 906.211,-287.588 869.411,-260.601"/>
<polygon fill="midnightblue" stroke="midnightblue" points="871.259,-257.616 861.125,-254.525 867.119,-263.261 871.259,-257.616"/>
</g>
<!-- Node34 -->
<g id="node34" class="node"><title>Node34</title>
<g id="a_node34"><a xlink:href="spinlock_8h.html" target="_top" xlink:title="core/util/spinlock.h">
<polygon fill="white" stroke="black" points="1575.5,-297 1575.5,-316 1680.5,-316 1680.5,-297 1575.5,-297"/>
<text text-anchor="middle" x="1628" y="-304" font-family="Helvetica,sans-Serif" font-size="10.00">core/util/spinlock.h</text>
</a>
</g>
</g>
<!-- Node31&#45;&gt;Node34 -->
<g id="edge51" class="edge"><title>Node31&#45;&gt;Node34</title>
<path fill="none" stroke="midnightblue" d="M1086.01,-369.409C1188.07,-363.84 1393.74,-350.004 1566,-322 1572.3,-320.976 1578.91,-319.676 1585.38,-318.276"/>
<polygon fill="midnightblue" stroke="midnightblue" points="1586.37,-321.641 1595.35,-316.021 1584.82,-314.814 1586.37,-321.641"/>
</g>
<!-- Node36 -->
<g id="node36" class="node"><title>Node36</title>
<g id="a_node36"><a xlink:href="thread__info_8h.html" target="_top" xlink:title="core/util/thread_info.h">
<polygon fill="white" stroke="black" points="1197.5,-297 1197.5,-316 1318.5,-316 1318.5,-297 1197.5,-297"/>
<text text-anchor="middle" x="1258" y="-304" font-family="Helvetica,sans-Serif" font-size="10.00">core/util/thread_info.h</text>
</a>
</g>
</g>
<!-- Node31&#45;&gt;Node36 -->
<g id="edge53" class="edge"><title>Node31&#45;&gt;Node36</title>
<path fill="none" stroke="midnightblue" d="M1072.92,-358.476C1116.14,-346.572 1177.34,-329.716 1217.34,-318.698"/>
<polygon fill="midnightblue" stroke="midnightblue" points="1218.32,-322.058 1227.03,-316.029 1216.46,-315.31 1218.32,-322.058"/>
</g>
<!-- Node32&#45;&gt;Node8 -->
<g id="edge44" class="edge"><title>Node32&#45;&gt;Node8</title>
<path fill="none" stroke="midnightblue" d="M1033.28,-291.327C1022.56,-273.778 1008.74,-243.791 1024,-224 1040.96,-201.998 1119.41,-188.614 1163.93,-182.659"/>
<polygon fill="midnightblue" stroke="midnightblue" points="1164.46,-186.12 1173.93,-181.37 1163.57,-179.177 1164.46,-186.12"/>
</g>
<!-- Node32&#45;&gt;Node14 -->
<g id="edge45" class="edge"><title>Node32&#45;&gt;Node14</title>
<path fill="none" stroke="midnightblue" d="M1046.04,-291.396C1048.07,-281.963 1050.76,-269.448 1052.97,-259.189"/>
<polygon fill="midnightblue" stroke="midnightblue" points="1056.44,-259.707 1055.13,-249.195 1049.6,-258.233 1056.44,-259.707"/>
</g>
<!-- Node32&#45;&gt;Node33 -->
<g id="edge46" class="edge"><title>Node32&#45;&gt;Node33</title>
<path fill="none" stroke="midnightblue" d="M999.386,-291.396C968.832,-281.515 927.819,-268.252 895.32,-257.743"/>
<polygon fill="midnightblue" stroke="midnightblue" points="896.121,-254.323 885.529,-254.577 893.967,-260.984 896.121,-254.323"/>
</g>
<!-- Node33&#45;&gt;Node8 -->
<g id="edge47" class="edge"><title>Node33&#45;&gt;Node8</title>
<path fill="none" stroke="midnightblue" d="M895.715,-225.673C898.513,-225.088 901.287,-224.526 904,-224 997.903,-205.786 1109.99,-190.158 1163.52,-183.065"/>
<polygon fill="midnightblue" stroke="midnightblue" points="1164.27,-186.498 1173.73,-181.723 1163.36,-179.557 1164.27,-186.498"/>
</g>
<!-- Node33&#45;&gt;Node21 -->
<g id="edge48" class="edge"><title>Node33&#45;&gt;Node21</title>
<path fill="none" stroke="midnightblue" d="M813.562,-224.399C793.877,-214.639 767.857,-201.737 748.587,-192.183"/>
<polygon fill="midnightblue" stroke="midnightblue" points="749.975,-188.964 739.461,-187.658 746.865,-195.236 749.975,-188.964"/>
</g>
<!-- Node35 -->
<g id="node35" class="node"><title>Node35</title>
<polygon fill="white" stroke="#bfbfbf" points="1621,-230 1621,-249 1671,-249 1671,-230 1621,-230"/>
<text text-anchor="middle" x="1646" y="-237" font-family="Helvetica,sans-Serif" font-size="10.00">atomic</text>
</g>
<!-- Node34&#45;&gt;Node35 -->
<g id="edge52" class="edge"><title>Node34&#45;&gt;Node35</title>
<path fill="none" stroke="midnightblue" d="M1630.43,-296.734C1633.1,-287.085 1637.47,-271.3 1640.9,-258.906"/>
<polygon fill="midnightblue" stroke="midnightblue" points="1644.32,-259.699 1643.61,-249.127 1637.57,-257.831 1644.32,-259.699"/>
</g>
<!-- Node36&#45;&gt;Node14 -->
<g id="edge56" class="edge"><title>Node36&#45;&gt;Node14</title>
<path fill="none" stroke="midnightblue" d="M1228.37,-296.941C1195.56,-287.322 1141.21,-270.955 1095,-255 1092.75,-254.222 1090.43,-253.397 1088.1,-252.552"/>
<polygon fill="midnightblue" stroke="midnightblue" points="1089.21,-249.23 1078.62,-249.023 1086.77,-255.79 1089.21,-249.23"/>
</g>
<!-- Node36&#45;&gt;Node22 -->
<g id="edge57" class="edge"><title>Node36&#45;&gt;Node22</title>
<path fill="none" stroke="midnightblue" d="M1221.48,-296.986C1193.88,-289.275 1156.08,-275.876 1128,-255 1085,-223.025 1050.51,-168.646 1034.58,-140.714"/>
<polygon fill="midnightblue" stroke="midnightblue" points="1037.49,-138.746 1029.57,-131.711 1031.37,-142.151 1037.49,-138.746"/>
</g>
<!-- Node37 -->
<g id="node37" class="node"><title>Node37</title>
<polygon fill="white" stroke="#bfbfbf" points="1252.5,-168.5 1252.5,-187.5 1299.5,-187.5 1299.5,-168.5 1252.5,-168.5"/>
<text text-anchor="middle" x="1276" y="-175.5" font-family="Helvetica,sans-Serif" font-size="10.00">omp.h</text>
</g>
<!-- Node36&#45;&gt;Node37 -->
<g id="edge54" class="edge"><title>Node36&#45;&gt;Node37</title>
<path fill="none" stroke="midnightblue" d="M1252.52,-296.749C1243.79,-281.619 1228.59,-249.723 1238,-224 1242.06,-212.908 1250.19,-202.665 1257.89,-194.763"/>
<polygon fill="midnightblue" stroke="midnightblue" points="1260.47,-197.135 1265.29,-187.695 1255.64,-192.075 1260.47,-197.135"/>
</g>
<!-- Node38 -->
<g id="node38" class="node"><title>Node38</title>
<polygon fill="white" stroke="#bfbfbf" points="1137,-230 1137,-249 1191,-249 1191,-230 1137,-230"/>
<text text-anchor="middle" x="1164" y="-237" font-family="Helvetica,sans-Serif" font-size="10.00">sched.h</text>
</g>
<!-- Node36&#45;&gt;Node38 -->
<g id="edge55" class="edge"><title>Node36&#45;&gt;Node38</title>
<path fill="none" stroke="midnightblue" d="M1245.32,-296.734C1229.82,-286.013 1203.36,-267.716 1184.84,-254.914"/>
<polygon fill="midnightblue" stroke="midnightblue" points="1186.69,-251.936 1176.48,-249.127 1182.71,-257.694 1186.69,-251.936"/>
</g>
<!-- Node39 -->
<g id="node39" class="node"><title>Node39</title>
<g id="a_node39"><a xlink:href="numa_8h.html" target="_top" xlink:title="core/util/numa.h">
<polygon fill="white" stroke="black" points="1247.5,-230 1247.5,-249 1342.5,-249 1342.5,-230 1247.5,-230"/>
<text text-anchor="middle" x="1295" y="-237" font-family="Helvetica,sans-Serif" font-size="10.00">core/util/numa.h</text>
</a>
</g>
</g>
<!-- Node36&#45;&gt;Node39 -->
<g id="edge58" class="edge"><title>Node36&#45;&gt;Node39</title>
<path fill="none" stroke="midnightblue" d="M1262.99,-296.734C1268.59,-286.89 1277.83,-270.66 1284.95,-258.159"/>
<polygon fill="midnightblue" stroke="midnightblue" points="1288.18,-259.549 1290.09,-249.127 1282.1,-256.087 1288.18,-259.549"/>
</g>
<!-- Node39&#45;&gt;Node37 -->
<g id="edge59" class="edge"><title>Node39&#45;&gt;Node37</title>
<path fill="none" stroke="midnightblue" d="M1292.28,-229.975C1289.57,-221.492 1285.33,-208.204 1281.85,-197.322"/>
<polygon fill="midnightblue" stroke="midnightblue" points="1285.09,-195.97 1278.72,-187.509 1278.43,-198.1 1285.09,-195.97"/>
</g>
<!-- Node40&#45;&gt;Node3 -->
<g id="edge62" class="edge"><title>Node40&#45;&gt;Node3</title>
<path fill="none" stroke="midnightblue" d="M615.914,-363.848C624.144,-346.751 644.988,-308.76 675,-291 763.667,-238.532 804.123,-280.283 904,-255 907.049,-254.228 910.191,-253.324 913.316,-252.35"/>
<polygon fill="midnightblue" stroke="midnightblue" points="914.723,-255.57 923.1,-249.082 912.506,-248.93 914.723,-255.57"/>
</g>
<!-- Node40&#45;&gt;Node4 -->
<g id="edge63" class="edge"><title>Node40&#45;&gt;Node4</title>
<path fill="none" stroke="midnightblue" d="M562.388,-367.943C505.18,-361.541 416.372,-347.684 396,-322 343.891,-256.303 438.862,-219.548 505,-168 589.67,-102.008 615.976,-86.1646 719,-56 809.869,-29.3944 1101.55,-16.0096 1199.54,-12.1814"/>
<polygon fill="midnightblue" stroke="midnightblue" points="1199.87,-15.6716 1209.73,-11.791 1199.6,-8.67675 1199.87,-15.6716"/>
</g>
<!-- Node40&#45;&gt;Node14 -->
<g id="edge64" class="edge"><title>Node40&#45;&gt;Node14</title>
<path fill="none" stroke="midnightblue" d="M622.697,-363.907C644.464,-346.916 696.086,-309.105 746,-291 846.982,-254.371 879.204,-273.609 985,-255 997.53,-252.796 1011.23,-250.108 1023.28,-247.647"/>
<polygon fill="midnightblue" stroke="midnightblue" points="1024.3,-251.012 1033.38,-245.561 1022.88,-244.156 1024.3,-251.012"/>
</g>
<!-- Node40&#45;&gt;Node21 -->
<g id="edge72" class="edge"><title>Node40&#45;&gt;Node21</title>
<path fill="none" stroke="midnightblue" d="M609.481,-363.781C605.367,-347.552 599.234,-312.417 616,-291 650.323,-247.155 702.762,-299.673 736,-255 748.469,-238.242 740.594,-213.758 732.508,-197.143"/>
<polygon fill="midnightblue" stroke="midnightblue" points="735.408,-195.144 727.626,-187.955 729.227,-198.428 735.408,-195.144"/>
</g>
<!-- Node40&#45;&gt;Node33 -->
<g id="edge65" class="edge"><title>Node40&#45;&gt;Node33</title>
<path fill="none" stroke="midnightblue" d="M612.018,-363.945C612.537,-347.358 616.136,-310.725 637,-291 642.303,-285.986 720.371,-267.661 778.601,-254.53"/>
<polygon fill="midnightblue" stroke="midnightblue" points="779.501,-257.915 788.49,-252.307 777.966,-251.086 779.501,-257.915"/>
</g>
<!-- Node41 -->
<g id="node41" class="node"><title>Node41</title>
<g id="a_node41"><a xlink:href="random_8h.html" target="_top" xlink:title="core/util/random.h">
<polygon fill="white" stroke="black" points="405,-297 405,-316 509,-316 509,-297 405,-297"/>
<text text-anchor="middle" x="457" y="-304" font-family="Helvetica,sans-Serif" font-size="10.00">core/util/random.h</text>
</a>
</g>
</g>
<!-- Node40&#45;&gt;Node41 -->
<g id="edge66" class="edge"><title>Node40&#45;&gt;Node41</title>
<path fill="none" stroke="midnightblue" d="M591.417,-363.869C564.666,-352.65 517.752,-332.977 487.028,-320.092"/>
<polygon fill="midnightblue" stroke="midnightblue" points="488.243,-316.807 477.668,-316.167 485.536,-323.262 488.243,-316.807"/>
</g>
<!-- Node41&#45;&gt;Node15 -->
<g id="edge70" class="edge"><title>Node41&#45;&gt;Node15</title>
<path fill="none" stroke="midnightblue" d="M435.089,-296.869C410.223,-287.073 368.991,-270.83 337.158,-258.29"/>
<polygon fill="midnightblue" stroke="midnightblue" points="338.197,-254.937 327.61,-254.528 335.631,-261.45 338.197,-254.937"/>
</g>
<!-- Node41&#45;&gt;Node21 -->
<g id="edge71" class="edge"><title>Node41&#45;&gt;Node21</title>
<path fill="none" stroke="midnightblue" d="M491.001,-296.968C533.187,-286.102 602.437,-267.267 626,-255 657.23,-238.741 688.235,-211.707 706.233,-194.647"/>
<polygon fill="midnightblue" stroke="midnightblue" points="708.782,-197.05 713.541,-187.585 703.918,-192.017 708.782,-197.05"/>
</g>
<!-- Node41&#45;&gt;Node24 -->
<g id="edge68" class="edge"><title>Node41&#45;&gt;Node24</title>
<path fill="none" stroke="midnightblue" d="M456.04,-296.754C454.752,-280.481 454.38,-245.274 472,-224 500.272,-189.866 525.545,-208.193 565,-188 628.946,-155.273 698.42,-106.025 731.442,-81.6868"/>
<polygon fill="midnightblue" stroke="midnightblue" points="733.81,-84.2877 739.754,-75.5173 729.638,-78.6667 733.81,-84.2877"/>
</g>
<!-- Node42 -->
<g id="node42" class="node"><title>Node42</title>
<polygon fill="white" stroke="#bfbfbf" points="481.5,-230 481.5,-249 522.5,-249 522.5,-230 481.5,-230"/>
<text text-anchor="middle" x="502" y="-237" font-family="Helvetica,sans-Serif" font-size="10.00">array</text>
</g>
<!-- Node41&#45;&gt;Node42 -->
<g id="edge67" class="edge"><title>Node41&#45;&gt;Node42</title>
<path fill="none" stroke="midnightblue" d="M463.069,-296.734C470.019,-286.695 481.567,-270.014 490.285,-257.421"/>
<polygon fill="midnightblue" stroke="midnightblue" points="493.213,-259.341 496.027,-249.127 487.457,-255.357 493.213,-259.341"/>
</g>
<!-- Node43 -->
<g id="node43" class="node"><title>Node43</title>
<polygon fill="white" stroke="#bfbfbf" points="540.5,-230 540.5,-249 617.5,-249 617.5,-230 540.5,-230"/>
<text text-anchor="middle" x="579" y="-237" font-family="Helvetica,sans-Serif" font-size="10.00">TRandom3.h</text>
</g>
<!-- Node41&#45;&gt;Node43 -->
<g id="edge69" class="edge"><title>Node41&#45;&gt;Node43</title>
<path fill="none" stroke="midnightblue" d="M473.201,-296.869C493.8,-285.893 529.591,-266.824 553.777,-253.938"/>
<polygon fill="midnightblue" stroke="midnightblue" points="555.553,-256.958 562.732,-249.167 552.261,-250.78 555.553,-256.958"/>
</g>
<!-- Node44&#45;&gt;Node4 -->
<g id="edge77" class="edge"><title>Node44&#45;&gt;Node4</title>
<path fill="none" stroke="midnightblue" d="M1745.42,-291.434C1735.28,-268.446 1717,-221.156 1717,-179 1717,-179 1717,-179 1717,-121 1717,-27.8334 1372.32,-13.5743 1264.1,-11.3934"/>
<polygon fill="midnightblue" stroke="midnightblue" points="1264.16,-7.89401 1254.1,-11.2133 1264.04,-14.8929 1264.16,-7.89401"/>
</g>
<!-- Node44&#45;&gt;Node35 -->
<g id="edge76" class="edge"><title>Node44&#45;&gt;Node35</title>
<path fill="none" stroke="midnightblue" d="M1729,-291.396C1711.06,-280.395 1686.28,-265.2 1668.48,-254.282"/>
<polygon fill="midnightblue" stroke="midnightblue" points="1670.23,-251.251 1659.87,-249.007 1666.57,-257.218 1670.23,-251.251"/>
</g>
<!-- Node46 -->
<g id="node46" class="node"><title>Node46</title>
<polygon fill="white" stroke="#bfbfbf" points="1426.5,-364 1426.5,-383 1503.5,-383 1503.5,-364 1426.5,-364"/>
<text text-anchor="middle" x="1465" y="-371" font-family="Helvetica,sans-Serif" font-size="10.00">cpp_magic.h</text>
</g>
<!-- Node45&#45;&gt;Node46 -->
<g id="edge79" class="edge"><title>Node45&#45;&gt;Node46</title>
<path fill="none" stroke="midnightblue" d="M1465,-430.734C1465,-421.183 1465,-405.618 1465,-393.283"/>
<polygon fill="midnightblue" stroke="midnightblue" points="1468.5,-393.127 1465,-383.127 1461.5,-393.127 1468.5,-393.127"/>
</g>
</g>
</svg>
