<?xml version="1.0" encoding="UTF-8" standalone="no"?>
<!DOCTYPE svg PUBLIC "-//W3C//DTD SVG 1.1//EN"
 "http://www.w3.org/Graphics/SVG/1.1/DTD/svg11.dtd">
<!-- Generated by graphviz version 2.40.1 (20161225.0304)
 -->
<!-- Title: core/sim_object/so_visitor.h Pages: 1 -->
<svg width="114pt" height="95pt"
 viewBox="0.00 0.00 113.50 95.00" xmlns="http://www.w3.org/2000/svg" xmlns:xlink="http://www.w3.org/1999/xlink">
<g id="graph0" class="graph" transform="scale(1 1) rotate(0) translate(4 91)">
<title>core/sim_object/so_visitor.h</title>
<polygon fill="#ffffff" stroke="transparent" points="-4,4 -4,-91 109.5,-91 109.5,4 -4,4"/>
<!-- Node0 -->
<g id="node1" class="node">
<title>Node0</title>
<polygon fill="#bfbfbf" stroke="#000000" points="4.5,-56.5 4.5,-86.5 103.5,-86.5 103.5,-56.5 4.5,-56.5"/>
<text text-anchor="start" x="12.5" y="-74.5" font-family="Helvetica,sans-Serif" font-size="10.00" fill="#000000">core/sim_object/so</text>
<text text-anchor="middle" x="54" y="-63.5" font-family="Helvetica,sans-Serif" font-size="10.00" fill="#000000">_visitor.h</text>
</g>
<!-- Node1 -->
<g id="node2" class="node">
<title>Node1</title>
<polygon fill="#ffffff" stroke="#bfbfbf" points="0,-.5 0,-19.5 46,-19.5 46,-.5 0,-.5"/>
<text text-anchor="middle" x="23" y="-7.5" font-family="Helvetica,sans-Serif" font-size="10.00" fill="#000000">atomic</text>
</g>
<!-- Node0&#45;&gt;Node1 -->
<g id="edge1" class="edge">
<title>Node0&#45;&gt;Node1</title>
<path fill="none" stroke="#191970" d="M46.3371,-56.2977C42.1684,-48.0277 36.9735,-37.7215 32.5439,-28.9339"/>
<polygon fill="#191970" stroke="#191970" points="35.5901,-27.2012 27.9635,-19.8469 29.3393,-30.3521 35.5901,-27.2012"/>
</g>
<!-- Node2 -->
<g id="node3" class="node">
<title>Node2</title>
<polygon fill="#ffffff" stroke="#bfbfbf" points="64.5,-.5 64.5,-19.5 105.5,-19.5 105.5,-.5 64.5,-.5"/>
<text text-anchor="middle" x="85" y="-7.5" font-family="Helvetica,sans-Serif" font-size="10.00" fill="#000000">string</text>
</g>
<!-- Node0&#45;&gt;Node2 -->
<g id="edge2" class="edge">
<title>Node0&#45;&gt;Node2</title>
<path fill="none" stroke="#191970" d="M61.6629,-56.2977C65.8316,-48.0277 71.0265,-37.7215 75.4561,-28.9339"/>
<polygon fill="#191970" stroke="#191970" points="78.6607,-30.3521 80.0365,-19.8469 72.4099,-27.2012 78.6607,-30.3521"/>
</g>
</g>
</svg>
