<?xml version="1.0" encoding="UTF-8" standalone="no"?>
<!DOCTYPE svg PUBLIC "-//W3C//DTD SVG 1.1//EN"
 "http://www.w3.org/Graphics/SVG/1.1/DTD/svg11.dtd">
<!-- Generated by graphviz version 2.38.0 (20140413.2041)
 -->
<!-- Title: core/sim_object/sim_object.cc Pages: 1 -->
<svg width="3786pt" height="732pt"
 viewBox="0.00 0.00 3786.00 732.00" xmlns="http://www.w3.org/2000/svg" xmlns:xlink="http://www.w3.org/1999/xlink">
<g id="graph0" class="graph" transform="scale(1 1) rotate(0) translate(4 728)">
<title>core/sim_object/sim_object.cc</title>
<polygon fill="white" stroke="none" points="-4,4 -4,-728 3782,-728 3782,4 -4,4"/>
<!-- Node1 -->
<g id="node1" class="node"><title>Node1</title>
<polygon fill="#bfbfbf" stroke="black" points="1021.5,-693.5 1021.5,-723.5 1134.5,-723.5 1134.5,-693.5 1021.5,-693.5"/>
<text text-anchor="start" x="1029.5" y="-711.5" font-family="Helvetica,sans-Serif" font-size="10.00">core/sim_object/sim</text>
<text text-anchor="middle" x="1078" y="-700.5" font-family="Helvetica,sans-Serif" font-size="10.00">_object.cc</text>
</g>
<!-- Node2 -->
<g id="node2" class="node"><title>Node2</title>
<g id="a_node2"><a xlink:href="sim__object_8h.html" target="_top" xlink:title="core/sim_object/sim\l_object.h">
<polygon fill="white" stroke="black" points="787.5,-436.5 787.5,-466.5 900.5,-466.5 900.5,-436.5 787.5,-436.5"/>
<text text-anchor="start" x="795.5" y="-454.5" font-family="Helvetica,sans-Serif" font-size="10.00">core/sim_object/sim</text>
<text text-anchor="middle" x="844" y="-443.5" font-family="Helvetica,sans-Serif" font-size="10.00">_object.h</text>
</a>
</g>
</g>
<!-- Node1&#45;&gt;Node2 -->
<g id="edge1" class="edge"><title>Node1&#45;&gt;Node2</title>
<path fill="none" stroke="midnightblue" d="M1021.4,-706.273C943.867,-703.243 801.015,-692.805 685,-657 632.58,-640.822 622.317,-628.762 575,-601 528.858,-573.927 500.189,-581.197 475,-534 468.513,-521.845 465.942,-513.382 475,-503 513.451,-458.928 681.831,-451.926 777.303,-451.61"/>
<polygon fill="midnightblue" stroke="midnightblue" points="777.443,-455.11 787.44,-451.601 777.436,-448.11 777.443,-455.11"/>
</g>
<!-- Node3 -->
<g id="node3" class="node"><title>Node3</title>
<polygon fill="white" stroke="#bfbfbf" points="2183,-308 2183,-327 2245,-327 2245,-308 2183,-308"/>
<text text-anchor="middle" x="2214" y="-315" font-family="Helvetica,sans-Serif" font-size="10.00">algorithm</text>
</g>
<!-- Node1&#45;&gt;Node3 -->
<g id="edge63" class="edge"><title>Node1&#45;&gt;Node3</title>
<path fill="none" stroke="midnightblue" d="M1134.81,-703.654C1215.52,-697.505 1367.72,-683.376 1495,-657 1683.37,-617.966 1732.39,-607.906 1910,-534 2024.59,-486.32 2061.88,-482.055 2155,-400 2176.23,-381.291 2194.22,-353.624 2204.56,-335.828"/>
<polygon fill="midnightblue" stroke="midnightblue" points="2207.64,-337.507 2209.5,-327.077 2201.54,-334.069 2207.64,-337.507"/>
</g>
<!-- Node4 -->
<g id="node4" class="node"><title>Node4</title>
<polygon fill="white" stroke="#bfbfbf" points="1901,-308 1901,-327 1953,-327 1953,-308 1901,-308"/>
<text text-anchor="middle" x="1927" y="-315" font-family="Helvetica,sans-Serif" font-size="10.00">cassert</text>
</g>
<!-- Node1&#45;&gt;Node4 -->
<g id="edge64" class="edge"><title>Node1&#45;&gt;Node4</title>
<path fill="none" stroke="midnightblue" d="M1134.58,-703.416C1225.87,-696.258 1401.27,-679.989 1459,-657 1661,-576.555 1856.57,-389.535 1911.68,-334.195"/>
<polygon fill="midnightblue" stroke="midnightblue" points="1914.23,-336.587 1918.77,-327.014 1909.25,-331.667 1914.23,-336.587"/>
</g>
<!-- Node5 -->
<g id="node5" class="node"><title>Node5</title>
<polygon fill="white" stroke="#bfbfbf" points="845,-112.5 845,-131.5 887,-131.5 887,-112.5 845,-112.5"/>
<text text-anchor="middle" x="866" y="-119.5" font-family="Helvetica,sans-Serif" font-size="10.00">limits</text>
</g>
<!-- Node1&#45;&gt;Node5 -->
<g id="edge65" class="edge"><title>Node1&#45;&gt;Node5</title>
<path fill="none" stroke="midnightblue" d="M1021.39,-706.945C826.435,-704.708 190.225,-694.572 107,-657 67.0401,-638.96 38,-630.343 38,-586.5 38,-586.5 38,-586.5 38,-450.5 38,-349.376 36.7896,-303.694 111,-235 218.719,-135.289 705.433,-124.279 834.503,-123.122"/>
<polygon fill="midnightblue" stroke="midnightblue" points="834.885,-126.619 844.858,-123.044 834.832,-119.619 834.885,-126.619"/>
</g>
<!-- Node6 -->
<g id="node6" class="node"><title>Node6</title>
<polygon fill="white" stroke="#bfbfbf" points="1341.5,-241 1341.5,-260 1398.5,-260 1398.5,-241 1341.5,-241"/>
<text text-anchor="middle" x="1370" y="-248" font-family="Helvetica,sans-Serif" font-size="10.00">memory</text>
</g>
<!-- Node1&#45;&gt;Node6 -->
<g id="edge66" class="edge"><title>Node1&#45;&gt;Node6</title>
<path fill="none" stroke="midnightblue" d="M1134.53,-705.611C1211.55,-699.673 1340,-676.309 1340,-586.5 1340,-586.5 1340,-586.5 1340,-450.5 1340,-383.348 1356.91,-304.858 1365.34,-269.907"/>
<polygon fill="midnightblue" stroke="midnightblue" points="1368.75,-270.706 1367.75,-260.158 1361.95,-269.028 1368.75,-270.706"/>
</g>
<!-- Node7 -->
<g id="node7" class="node"><title>Node7</title>
<polygon fill="white" stroke="#bfbfbf" points="1775,-308 1775,-327 1807,-327 1807,-308 1775,-308"/>
<text text-anchor="middle" x="1791" y="-315" font-family="Helvetica,sans-Serif" font-size="10.00">set</text>
</g>
<!-- Node1&#45;&gt;Node7 -->
<g id="edge67" class="edge"><title>Node1&#45;&gt;Node7</title>
<path fill="none" stroke="midnightblue" d="M1134.74,-706.439C1437.15,-700.509 2847.95,-669.238 2908,-601 3002.47,-493.65 2409.1,-557.226 2268,-534 2157.88,-515.874 2128.05,-512.183 2026,-467 1940.21,-429.013 1849.19,-363.078 1810.36,-333.552"/>
<polygon fill="midnightblue" stroke="midnightblue" points="1812.12,-330.494 1802.06,-327.187 1807.87,-336.049 1812.12,-330.494"/>
</g>
<!-- Node8 -->
<g id="node8" class="node"><title>Node8</title>
<polygon fill="white" stroke="#bfbfbf" points="608,-308 608,-327 664,-327 664,-308 608,-308"/>
<text text-anchor="middle" x="636" y="-315" font-family="Helvetica,sans-Serif" font-size="10.00">sstream</text>
</g>
<!-- Node1&#45;&gt;Node8 -->
<g id="edge68" class="edge"><title>Node1&#45;&gt;Node8</title>
<path fill="none" stroke="midnightblue" d="M1021.42,-705.803C864.098,-700.758 429.178,-684.466 371,-657 331.911,-638.546 304,-629.726 304,-586.5 304,-586.5 304,-586.5 304,-450.5 304,-407.77 319.607,-392.941 355,-369 394.068,-342.573 530.353,-327.528 597.714,-321.548"/>
<polygon fill="midnightblue" stroke="midnightblue" points="598.247,-325.015 607.908,-320.666 597.644,-318.041 598.247,-325.015"/>
</g>
<!-- Node9 -->
<g id="node9" class="node"><title>Node9</title>
<polygon fill="white" stroke="#bfbfbf" points="939,-0.5 939,-19.5 983,-19.5 983,-0.5 939,-0.5"/>
<text text-anchor="middle" x="961" y="-7.5" font-family="Helvetica,sans-Serif" font-size="10.00">string</text>
</g>
<!-- Node1&#45;&gt;Node9 -->
<g id="edge69" class="edge"><title>Node1&#45;&gt;Node9</title>
<path fill="none" stroke="midnightblue" d="M1021.5,-707.246C820.626,-705.997 148.438,-698.708 62,-657 24.4197,-638.867 0,-628.226 0,-586.5 0,-586.5 0,-586.5 0,-121 0,-25.3852 760.604,-12.8354 928.474,-11.2299"/>
<polygon fill="midnightblue" stroke="midnightblue" points="928.691,-14.7282 938.66,-11.1392 928.629,-7.72847 928.691,-14.7282"/>
</g>
<!-- Node10 -->
<g id="node10" class="node"><title>Node10</title>
<polygon fill="white" stroke="#bfbfbf" points="142,-241 142,-260 210,-260 210,-241 142,-241"/>
<text text-anchor="middle" x="176" y="-248" font-family="Helvetica,sans-Serif" font-size="10.00">type_traits</text>
</g>
<!-- Node1&#45;&gt;Node10 -->
<g id="edge70" class="edge"><title>Node1&#45;&gt;Node10</title>
<path fill="none" stroke="midnightblue" d="M1021.35,-706.179C835.785,-701.599 253.568,-685.12 174,-657 123.411,-639.121 76,-640.155 76,-586.5 76,-586.5 76,-586.5 76,-450.5 76,-375.608 133.245,-300.125 161.112,-267.818"/>
<polygon fill="midnightblue" stroke="midnightblue" points="163.823,-270.036 167.817,-260.222 158.575,-265.403 163.823,-270.036"/>
</g>
<!-- Node11 -->
<g id="node11" class="node"><title>Node11</title>
<polygon fill="white" stroke="#bfbfbf" points="681.5,-308 681.5,-327 774.5,-327 774.5,-308 681.5,-308"/>
<text text-anchor="middle" x="728" y="-315" font-family="Helvetica,sans-Serif" font-size="10.00">unordered_map</text>
</g>
<!-- Node1&#45;&gt;Node11 -->
<g id="edge71" class="edge"><title>Node1&#45;&gt;Node11</title>
<path fill="none" stroke="midnightblue" d="M1021.46,-705.11C894.976,-699.361 592.586,-683.254 494,-657 422.04,-637.836 342,-660.968 342,-586.5 342,-586.5 342,-586.5 342,-450.5 342,-406.298 361.214,-391.936 399,-369 503.995,-305.267 552.485,-356.703 673,-333 678.078,-332.001 683.381,-330.804 688.606,-329.531"/>
<polygon fill="midnightblue" stroke="midnightblue" points="689.645,-332.878 698.474,-327.022 687.92,-326.094 689.645,-332.878"/>
</g>
<!-- Node12 -->
<g id="node12" class="node"><title>Node12</title>
<polygon fill="white" stroke="#bfbfbf" points="2655.5,-174 2655.5,-193 2702.5,-193 2702.5,-174 2655.5,-174"/>
<text text-anchor="middle" x="2679" y="-181" font-family="Helvetica,sans-Serif" font-size="10.00">vector</text>
</g>
<!-- Node1&#45;&gt;Node12 -->
<g id="edge72" class="edge"><title>Node1&#45;&gt;Node12</title>
<path fill="none" stroke="midnightblue" d="M1134.58,-707.733C1500.04,-708.878 3512,-709.593 3512,-586.5 3512,-586.5 3512,-586.5 3512,-450.5 3512,-279.822 2869.36,-203.757 2712.99,-187.775"/>
<polygon fill="midnightblue" stroke="midnightblue" points="2712.89,-184.247 2702.59,-186.728 2712.19,-191.212 2712.89,-184.247"/>
</g>
<!-- Node17 -->
<g id="node17" class="node"><title>Node17</title>
<g id="a_node17"><a xlink:href="root_8h.html" target="_top" xlink:title="core/util/root.h">
<polygon fill="white" stroke="black" points="2014,-112.5 2014,-131.5 2100,-131.5 2100,-112.5 2014,-112.5"/>
<text text-anchor="middle" x="2057" y="-119.5" font-family="Helvetica,sans-Serif" font-size="10.00">core/util/root.h</text>
</a>
</g>
</g>
<!-- Node1&#45;&gt;Node17 -->
<g id="edge167" class="edge"><title>Node1&#45;&gt;Node17</title>
<path fill="none" stroke="midnightblue" d="M1134.51,-707.259C1435.69,-705.816 2854.8,-696.974 3292,-657 3476.13,-640.165 3702,-771.397 3702,-586.5 3702,-586.5 3702,-586.5 3702,-249.5 3702,-185.396 3643.95,-187.86 3583,-168 3440.85,-121.683 2363.93,-122.054 2110.36,-122.794"/>
<polygon fill="midnightblue" stroke="midnightblue" points="2110.28,-119.294 2100.29,-122.825 2110.3,-126.294 2110.28,-119.294"/>
</g>
<!-- Node18 -->
<g id="node18" class="node"><title>Node18</title>
<g id="a_node18"><a xlink:href="log_8h.html" target="_top" xlink:title="core/util/log.h">
<polygon fill="white" stroke="red" points="3415.5,-56.5 3415.5,-75.5 3496.5,-75.5 3496.5,-56.5 3415.5,-56.5"/>
<text text-anchor="middle" x="3456" y="-63.5" font-family="Helvetica,sans-Serif" font-size="10.00">core/util/log.h</text>
</a>
</g>
</g>
<!-- Node1&#45;&gt;Node18 -->
<g id="edge165" class="edge"><title>Node1&#45;&gt;Node18</title>
<path fill="none" stroke="midnightblue" d="M1134.65,-707.112C1477.13,-704.661 3264.48,-690.347 3506,-657 3629.71,-639.919 3778,-711.384 3778,-586.5 3778,-586.5 3778,-586.5 3778,-316.5 3778,-285.339 3636.52,-130.239 3608,-112 3577.38,-92.4154 3537.9,-81.0613 3506.85,-74.658"/>
<polygon fill="midnightblue" stroke="midnightblue" points="3507.15,-71.1513 3496.67,-72.6715 3505.81,-78.0217 3507.15,-71.1513"/>
</g>
<!-- Node22 -->
<g id="node22" class="node"><title>Node22</title>
<g id="a_node22"><a xlink:href="in__place__exec__ctxt_8h.html" target="_top" xlink:title="core/execution_context\l/in_place_exec_ctxt.h">
<polygon fill="white" stroke="black" points="1211,-302.5 1211,-332.5 1339,-332.5 1339,-302.5 1211,-302.5"/>
<text text-anchor="start" x="1219" y="-320.5" font-family="Helvetica,sans-Serif" font-size="10.00">core/execution_context</text>
<text text-anchor="middle" x="1275" y="-309.5" font-family="Helvetica,sans-Serif" font-size="10.00">/in_place_exec_ctxt.h</text>
</a>
</g>
</g>
<!-- Node1&#45;&gt;Node22 -->
<g id="edge83" class="edge"><title>Node1&#45;&gt;Node22</title>
<path fill="none" stroke="midnightblue" d="M1059.8,-693.226C1035.64,-672.524 996,-631.67 996,-586.5 996,-586.5 996,-586.5 996,-450.5 996,-413.306 988.216,-394.806 1015,-369 1028.4,-356.088 1128.82,-339.312 1200.85,-328.722"/>
<polygon fill="midnightblue" stroke="midnightblue" points="1201.42,-332.176 1210.81,-327.27 1200.41,-325.249 1201.42,-332.176"/>
</g>
<!-- Node32 -->
<g id="node32" class="node"><title>Node32</title>
<g id="a_node32"><a xlink:href="simulation_8h.html" target="_top" xlink:title="core/simulation.h">
<polygon fill="white" stroke="red" points="1592.5,-241 1592.5,-260 1691.5,-260 1691.5,-241 1592.5,-241"/>
<text text-anchor="middle" x="1642" y="-248" font-family="Helvetica,sans-Serif" font-size="10.00">core/simulation.h</text>
</a>
</g>
</g>
<!-- Node1&#45;&gt;Node32 -->
<g id="edge164" class="edge"><title>Node1&#45;&gt;Node32</title>
<path fill="none" stroke="midnightblue" d="M1134.54,-700.778C1237.49,-686.952 1445,-651.073 1445,-586.5 1445,-586.5 1445,-586.5 1445,-517.5 1445,-450.337 1436.49,-425.37 1473,-369 1506.67,-317.02 1572.21,-281.567 1611.03,-264.088"/>
<polygon fill="midnightblue" stroke="midnightblue" points="1612.54,-267.25 1620.29,-260.032 1609.73,-260.838 1612.54,-267.25"/>
</g>
<!-- Node34 -->
<g id="node34" class="node"><title>Node34</title>
<g id="a_node34"><a xlink:href="macros_8h.html" target="_top" xlink:title="core/util/macros.h">
<polygon fill="white" stroke="red" points="408.5,-375 408.5,-394 511.5,-394 511.5,-375 408.5,-375"/>
<text text-anchor="middle" x="460" y="-382" font-family="Helvetica,sans-Serif" font-size="10.00">core/util/macros.h</text>
</a>
</g>
</g>
<!-- Node1&#45;&gt;Node34 -->
<g id="edge166" class="edge"><title>Node1&#45;&gt;Node34</title>
<path fill="none" stroke="midnightblue" d="M1021.47,-703.655C855.301,-691.603 380,-651.453 380,-586.5 380,-586.5 380,-586.5 380,-517.5 380,-469.59 419.02,-424.217 442.558,-401.205"/>
<polygon fill="midnightblue" stroke="midnightblue" points="445.011,-403.703 449.868,-394.287 440.199,-398.618 445.011,-403.703"/>
</g>
<!-- Node35 -->
<g id="node35" class="node"><title>Node35</title>
<g id="a_node35"><a xlink:href="biology__module_8h.html" target="_top" xlink:title="core/biology_module\l/biology_module.h">
<polygon fill="white" stroke="black" points="484,-503.5 484,-533.5 600,-533.5 600,-503.5 484,-503.5"/>
<text text-anchor="start" x="492" y="-521.5" font-family="Helvetica,sans-Serif" font-size="10.00">core/biology_module</text>
<text text-anchor="middle" x="542" y="-510.5" font-family="Helvetica,sans-Serif" font-size="10.00">/biology_module.h</text>
</a>
</g>
</g>
<!-- Node1&#45;&gt;Node35 -->
<g id="edge73" class="edge"><title>Node1&#45;&gt;Node35</title>
<path fill="none" stroke="midnightblue" d="M1021.42,-705.522C929.714,-700.018 745.605,-679.248 614,-601 589.594,-586.489 569.015,-560.901 556.19,-542.258"/>
<polygon fill="midnightblue" stroke="midnightblue" points="558.982,-540.136 550.534,-533.743 553.151,-544.009 558.982,-540.136"/>
</g>
<!-- Node36 -->
<g id="node36" class="node"><title>Node36</title>
<g id="a_node36"><a xlink:href="event_8h.html" target="_top" xlink:title="core/event/event.h">
<polygon fill="white" stroke="black" points="1024.5,-442 1024.5,-461 1131.5,-461 1131.5,-442 1024.5,-442"/>
<text text-anchor="middle" x="1078" y="-449" font-family="Helvetica,sans-Serif" font-size="10.00">core/event/event.h</text>
</a>
</g>
</g>
<!-- Node1&#45;&gt;Node36 -->
<g id="edge82" class="edge"><title>Node1&#45;&gt;Node36</title>
<path fill="none" stroke="midnightblue" d="M1078,-693.427C1078,-650.316 1078,-520.051 1078,-471.239"/>
<polygon fill="midnightblue" stroke="midnightblue" points="1081.5,-471.157 1078,-461.157 1074.5,-471.157 1081.5,-471.157"/>
</g>
<!-- Node38 -->
<g id="node38" class="node"><title>Node38</title>
<g id="a_node38"><a xlink:href="type_8h.html" target="_top" xlink:title="core/util/type.h">
<polygon fill="white" stroke="red" points="209,-308 209,-327 297,-327 297,-308 209,-308"/>
<text text-anchor="middle" x="253" y="-315" font-family="Helvetica,sans-Serif" font-size="10.00">core/util/type.h</text>
</a>
</g>
</g>
<!-- Node1&#45;&gt;Node38 -->
<g id="edge168" class="edge"><title>Node1&#45;&gt;Node38</title>
<path fill="none" stroke="midnightblue" d="M1021.46,-705.964C870.553,-701.5 460.784,-686.91 329,-657 246.423,-638.258 152,-671.177 152,-586.5 152,-586.5 152,-586.5 152,-450.5 152,-398.984 201.121,-355.123 230.851,-333.295"/>
<polygon fill="midnightblue" stroke="midnightblue" points="233.248,-335.885 239.379,-327.244 229.198,-330.176 233.248,-335.885"/>
</g>
<!-- Node39 -->
<g id="node39" class="node"><title>Node39</title>
<g id="a_node39"><a xlink:href="grid_8h.html" target="_top" xlink:title="core/grid.h">
<polygon fill="white" stroke="black" points="2394,-637.5 2394,-656.5 2462,-656.5 2462,-637.5 2394,-637.5"/>
<text text-anchor="middle" x="2428" y="-644.5" font-family="Helvetica,sans-Serif" font-size="10.00">core/grid.h</text>
</a>
</g>
</g>
<!-- Node1&#45;&gt;Node39 -->
<g id="edge84" class="edge"><title>Node1&#45;&gt;Node39</title>
<path fill="none" stroke="midnightblue" d="M1134.72,-705C1359.15,-695.108 2182.68,-658.812 2383.58,-649.958"/>
<polygon fill="midnightblue" stroke="midnightblue" points="2383.92,-653.446 2393.76,-649.509 2383.61,-646.453 2383.92,-653.446"/>
</g>
<!-- Node47 -->
<g id="node47" class="node"><title>Node47</title>
<g id="a_node47"><a xlink:href="resource__manager_8h.html" target="_top" xlink:title="core/resource_manager.h">
<polygon fill="white" stroke="red" points="2277,-509 2277,-528 2417,-528 2417,-509 2277,-509"/>
<text text-anchor="middle" x="2347" y="-516" font-family="Helvetica,sans-Serif" font-size="10.00">core/resource_manager.h</text>
</a>
</g>
</g>
<!-- Node1&#45;&gt;Node47 -->
<g id="edge163" class="edge"><title>Node1&#45;&gt;Node47</title>
<path fill="none" stroke="midnightblue" d="M1134.61,-705.144C1242.66,-700.132 1485.56,-686.385 1688,-657 1922.22,-623.001 2198.25,-556.751 2303.38,-530.549"/>
<polygon fill="midnightblue" stroke="midnightblue" points="2304.46,-533.888 2313.31,-528.067 2302.76,-527.097 2304.46,-533.888"/>
</g>
<!-- Node2&#45;&gt;Node3 -->
<g id="edge2" class="edge"><title>Node2&#45;&gt;Node3</title>
<path fill="none" stroke="midnightblue" d="M900.558,-444.961C933.845,-441.887 976.78,-438.242 1015,-436 1137.52,-428.813 2004.61,-444.477 2119,-400 2137.13,-392.951 2176.36,-355.908 2198.31,-334.266"/>
<polygon fill="midnightblue" stroke="midnightblue" points="2200.92,-336.605 2205.55,-327.073 2195.99,-331.641 2200.92,-336.605"/>
</g>
<!-- Node2&#45;&gt;Node4 -->
<g id="edge3" class="edge"><title>Node2&#45;&gt;Node4</title>
<path fill="none" stroke="midnightblue" d="M900.578,-445.269C933.871,-442.299 976.807,-438.656 1015,-436 1309.39,-415.531 1387.64,-452.687 1678,-400 1759.93,-385.133 1852.02,-349.852 1897.84,-330.956"/>
<polygon fill="midnightblue" stroke="midnightblue" points="1899.27,-334.151 1907.15,-327.075 1896.57,-327.689 1899.27,-334.151"/>
</g>
<!-- Node2&#45;&gt;Node5 -->
<g id="edge4" class="edge"><title>Node2&#45;&gt;Node5</title>
<path fill="none" stroke="midnightblue" d="M800.795,-436.441C774.981,-427.379 741.894,-414.584 714,-400 692.152,-388.577 689.184,-381.611 668,-369 638.278,-351.307 616.931,-362.579 599,-333 591.858,-321.218 590.828,-313.093 599,-302 631.018,-258.539 668.413,-293.269 715,-266 774.019,-231.455 828.364,-169.749 852.643,-139.983"/>
<polygon fill="midnightblue" stroke="midnightblue" points="855.653,-141.824 859.185,-131.836 850.195,-137.442 855.653,-141.824"/>
</g>
<!-- Node2&#45;&gt;Node6 -->
<g id="edge5" class="edge"><title>Node2&#45;&gt;Node6</title>
<path fill="none" stroke="midnightblue" d="M864.218,-436.468C890.408,-418.791 937.941,-388.388 982,-369 1105.11,-314.827 1260.63,-276.056 1331.57,-259.881"/>
<polygon fill="midnightblue" stroke="midnightblue" points="1332.43,-263.276 1341.41,-257.659 1330.89,-256.448 1332.43,-263.276"/>
</g>
<!-- Node2&#45;&gt;Node7 -->
<g id="edge6" class="edge"><title>Node2&#45;&gt;Node7</title>
<path fill="none" stroke="midnightblue" d="M900.581,-445.315C933.876,-442.361 976.811,-438.718 1015,-436 1153.77,-426.122 1507.75,-443.166 1640,-400 1664.14,-392.12 1665.89,-381.5 1688,-369 1695.29,-364.879 1737.45,-344.379 1765.52,-330.798"/>
<polygon fill="midnightblue" stroke="midnightblue" points="1767.3,-333.825 1774.78,-326.321 1764.26,-327.522 1767.3,-333.825"/>
</g>
<!-- Node2&#45;&gt;Node8 -->
<g id="edge7" class="edge"><title>Node2&#45;&gt;Node8</title>
<path fill="none" stroke="midnightblue" d="M821.256,-436.43C804.994,-426.343 782.607,-412.403 763,-400 725.929,-376.55 683.022,-348.911 657.771,-332.594"/>
<polygon fill="midnightblue" stroke="midnightblue" points="659.609,-329.614 649.311,-327.123 655.808,-335.492 659.609,-329.614"/>
</g>
<!-- Node2&#45;&gt;Node9 -->
<g id="edge8" class="edge"><title>Node2&#45;&gt;Node9</title>
<path fill="none" stroke="midnightblue" d="M787.269,-441.612C743.363,-433.67 681.555,-420.145 630,-400 603.864,-389.788 600.531,-380.641 575,-369 494.291,-332.2 471.576,-328.743 387,-302 329.837,-283.925 298.512,-309.255 257,-266 231.246,-239.165 238,-221.694 238,-184.5 238,-184.5 238,-184.5 238,-121 238,-50.0806 788.729,-19.1638 928.868,-12.4447"/>
<polygon fill="midnightblue" stroke="midnightblue" points="929.143,-15.9357 938.967,-11.9686 928.814,-8.9435 929.143,-15.9357"/>
</g>
<!-- Node2&#45;&gt;Node10 -->
<g id="edge9" class="edge"><title>Node2&#45;&gt;Node10</title>
<path fill="none" stroke="midnightblue" d="M787.154,-441.22C737.718,-432.539 664.425,-418.193 602,-400 564.594,-389.099 556.662,-382.188 520,-369 408.056,-328.733 274.451,-284.057 211.783,-263.299"/>
<polygon fill="midnightblue" stroke="midnightblue" points="212.585,-259.878 201.992,-260.059 210.386,-266.524 212.585,-259.878"/>
</g>
<!-- Node2&#45;&gt;Node11 -->
<g id="edge10" class="edge"><title>Node2&#45;&gt;Node11</title>
<path fill="none" stroke="midnightblue" d="M828.446,-436.43C817.821,-426.574 803.618,-412.908 792,-400 772.908,-378.789 752.904,-352.573 740.448,-335.698"/>
<polygon fill="midnightblue" stroke="midnightblue" points="743.088,-333.379 734.358,-327.375 737.439,-337.512 743.088,-333.379"/>
</g>
<!-- Node2&#45;&gt;Node12 -->
<g id="edge11" class="edge"><title>Node2&#45;&gt;Node12</title>
<path fill="none" stroke="midnightblue" d="M900.584,-445.361C933.88,-442.422 976.816,-438.78 1015,-436 1146.45,-426.431 1485.99,-452.227 1607,-400 1625.48,-392.026 1623.19,-380.057 1640,-369 1673.6,-346.907 1688.04,-352.872 1723,-333 1743.48,-321.356 1744.16,-310.844 1766,-302 1789.89,-292.327 2199.44,-238.286 2225,-235 2381.69,-214.855 2569.42,-195.484 2645.01,-187.88"/>
<polygon fill="midnightblue" stroke="midnightblue" points="2645.73,-191.325 2655.33,-186.844 2645.03,-184.36 2645.73,-191.325"/>
</g>
<!-- Node13 -->
<g id="node13" class="node"><title>Node13</title>
<g id="a_node13"><a xlink:href="math__array_8h.html" target="_top" xlink:title="core/container/math\l_array.h">
<polygon fill="white" stroke="red" points="1996,-369.5 1996,-399.5 2110,-399.5 2110,-369.5 1996,-369.5"/>
<text text-anchor="start" x="2004" y="-387.5" font-family="Helvetica,sans-Serif" font-size="10.00">core/container/math</text>
<text text-anchor="middle" x="2053" y="-376.5" font-family="Helvetica,sans-Serif" font-size="10.00">_array.h</text>
</a>
</g>
</g>
<!-- Node2&#45;&gt;Node13 -->
<g id="edge12" class="edge"><title>Node2&#45;&gt;Node13</title>
<path fill="none" stroke="midnightblue" d="M900.572,-445.189C933.864,-442.191 976.8,-438.548 1015,-436 1204.99,-423.327 1787.36,-397.22 1985.89,-388.448"/>
<polygon fill="midnightblue" stroke="midnightblue" points="1986.05,-391.944 1995.89,-388.007 1985.75,-384.951 1986.05,-391.944"/>
</g>
<!-- Node2&#45;&gt;Node17 -->
<g id="edge61" class="edge"><title>Node2&#45;&gt;Node17</title>
<path fill="none" stroke="midnightblue" d="M900.893,-445.051C1002.29,-435.155 1210.34,-413.963 1282,-400 1391.54,-378.655 1417.13,-365.156 1524,-333 1535.52,-329.532 1719.3,-271.505 1730,-266 1750.63,-255.386 1752.18,-247.063 1772,-235 1829.56,-199.965 1845.31,-192.713 1908,-168 1942.67,-154.332 1983.23,-142.331 2013.27,-134.167"/>
<polygon fill="midnightblue" stroke="midnightblue" points="2014.28,-137.52 2023.03,-131.549 2012.46,-130.759 2014.28,-137.52"/>
</g>
<!-- Node20 -->
<g id="node20" class="node"><title>Node20</title>
<g id="a_node20"><a xlink:href="shape_8h.html" target="_top" xlink:title="core/shape.h">
<polygon fill="white" stroke="black" points="266.5,-241 266.5,-260 345.5,-260 345.5,-241 266.5,-241"/>
<text text-anchor="middle" x="306" y="-248" font-family="Helvetica,sans-Serif" font-size="10.00">core/shape.h</text>
</a>
</g>
</g>
<!-- Node2&#45;&gt;Node20 -->
<g id="edge22" class="edge"><title>Node2&#45;&gt;Node20</title>
<path fill="none" stroke="midnightblue" d="M842.88,-436.109C839.661,-405.614 827.514,-334.618 783,-302 705.832,-245.454 447.973,-283.931 354,-266 349.551,-265.151 344.927,-264.048 340.384,-262.83"/>
<polygon fill="midnightblue" stroke="midnightblue" points="341.244,-259.435 330.666,-260.031 339.307,-266.162 341.244,-259.435"/>
</g>
<!-- Node21 -->
<g id="node21" class="node"><title>Node21</title>
<g id="a_node21"><a xlink:href="so__pointer_8h.html" target="_top" xlink:title="core/sim_object/so\l_pointer.h">
<polygon fill="white" stroke="red" points="1166.5,-369.5 1166.5,-399.5 1273.5,-399.5 1273.5,-369.5 1166.5,-369.5"/>
<text text-anchor="start" x="1174.5" y="-387.5" font-family="Helvetica,sans-Serif" font-size="10.00">core/sim_object/so</text>
<text text-anchor="middle" x="1220" y="-376.5" font-family="Helvetica,sans-Serif" font-size="10.00">_pointer.h</text>
</a>
</g>
</g>
<!-- Node2&#45;&gt;Node21 -->
<g id="edge23" class="edge"><title>Node2&#45;&gt;Node21</title>
<path fill="none" stroke="midnightblue" d="M900.698,-440.698C969.332,-428.834 1084.6,-408.907 1156.25,-396.52"/>
<polygon fill="midnightblue" stroke="midnightblue" points="1157.24,-399.901 1166.5,-394.749 1156.05,-393.004 1157.24,-399.901"/>
</g>
<!-- Node25 -->
<g id="node25" class="node"><title>Node25</title>
<g id="a_node25"><a xlink:href="so__uid_8h.html" target="_top" xlink:title="core/sim_object/so\l_uid.h">
<polygon fill="white" stroke="black" points="1290.5,-168.5 1290.5,-198.5 1397.5,-198.5 1397.5,-168.5 1290.5,-168.5"/>
<text text-anchor="start" x="1298.5" y="-186.5" font-family="Helvetica,sans-Serif" font-size="10.00">core/sim_object/so</text>
<text text-anchor="middle" x="1344" y="-175.5" font-family="Helvetica,sans-Serif" font-size="10.00">_uid.h</text>
</a>
</g>
</g>
<!-- Node2&#45;&gt;Node25 -->
<g id="edge56" class="edge"><title>Node2&#45;&gt;Node25</title>
<path fill="none" stroke="midnightblue" d="M854.16,-436.436C867.555,-418.726 892.646,-388.288 920,-369 981.335,-325.752 1005.01,-329.079 1075,-302 1121.01,-284.199 1136.06,-288.432 1180,-266 1201.31,-255.123 1203.08,-246.596 1224,-235 1246.56,-222.497 1272.85,-211.107 1295.06,-202.321"/>
<polygon fill="midnightblue" stroke="midnightblue" points="1296.58,-205.486 1304.63,-198.597 1294.04,-198.962 1296.58,-205.486"/>
</g>
<!-- Node27 -->
<g id="node27" class="node"><title>Node27</title>
<g id="a_node27"><a xlink:href="spinlock_8h.html" target="_top" xlink:title="core/util/spinlock.h">
<polygon fill="white" stroke="black" points="601.5,-241 601.5,-260 706.5,-260 706.5,-241 601.5,-241"/>
<text text-anchor="middle" x="654" y="-248" font-family="Helvetica,sans-Serif" font-size="10.00">core/util/spinlock.h</text>
</a>
</g>
</g>
<!-- Node2&#45;&gt;Node27 -->
<g id="edge62" class="edge"><title>Node2&#45;&gt;Node27</title>
<path fill="none" stroke="midnightblue" d="M845.859,-436.186C848.794,-407.066 851.063,-340.439 817,-302 802.524,-285.664 750.71,-271.403 709.337,-262.24"/>
<polygon fill="midnightblue" stroke="midnightblue" points="709.857,-258.772 699.343,-260.08 708.377,-265.614 709.857,-258.772"/>
</g>
<!-- Node33 -->
<g id="node33" class="node"><title>Node33</title>
<g id="a_node33"><a xlink:href="sim__object_2so__visitor_8h.html" target="_top" xlink:title="core/sim_object/so\l_visitor.h">
<polygon fill="white" stroke="black" points="363.5,-235.5 363.5,-265.5 470.5,-265.5 470.5,-235.5 363.5,-235.5"/>
<text text-anchor="start" x="371.5" y="-253.5" font-family="Helvetica,sans-Serif" font-size="10.00">core/sim_object/so</text>
<text text-anchor="middle" x="417" y="-242.5" font-family="Helvetica,sans-Serif" font-size="10.00">_visitor.h</text>
</a>
</g>
</g>
<!-- Node2&#45;&gt;Node33 -->
<g id="edge57" class="edge"><title>Node2&#45;&gt;Node33</title>
<path fill="none" stroke="midnightblue" d="M787.233,-437.42C754.477,-428.852 712.977,-416.227 678,-400 654.963,-389.312 651.744,-382.12 630,-369 602.057,-352.139 593.943,-349.861 566,-333 544.256,-319.88 540.057,-314.586 518,-302 498.19,-290.696 475.525,-279.236 456.692,-270.097"/>
<polygon fill="midnightblue" stroke="midnightblue" points="458.036,-266.859 447.507,-265.675 454.999,-273.166 458.036,-266.859"/>
</g>
<!-- Node2&#45;&gt;Node34 -->
<g id="edge60" class="edge"><title>Node2&#45;&gt;Node34</title>
<path fill="none" stroke="midnightblue" d="M787.339,-440.909C715.907,-428.818 593.623,-408.119 520.446,-395.732"/>
<polygon fill="midnightblue" stroke="midnightblue" points="520.901,-392.259 510.457,-394.041 519.733,-399.161 520.901,-392.259"/>
</g>
<!-- Node13&#45;&gt;Node3 -->
<g id="edge13" class="edge"><title>Node13&#45;&gt;Node3</title>
<path fill="none" stroke="midnightblue" d="M2087.93,-369.396C2116.43,-357.89 2156.29,-341.797 2183.52,-330.807"/>
<polygon fill="midnightblue" stroke="midnightblue" points="2184.97,-333.996 2192.93,-327.007 2182.35,-327.505 2184.97,-333.996"/>
</g>
<!-- Node13&#45;&gt;Node4 -->
<g id="edge14" class="edge"><title>Node13&#45;&gt;Node4</title>
<path fill="none" stroke="midnightblue" d="M2025.66,-369.396C2003.94,-358.193 1973.8,-342.641 1952.56,-331.685"/>
<polygon fill="midnightblue" stroke="midnightblue" points="1953.98,-328.481 1943.49,-327.007 1950.77,-334.702 1953.98,-328.481"/>
</g>
<!-- Node14 -->
<g id="node14" class="node"><title>Node14</title>
<polygon fill="white" stroke="#bfbfbf" points="2558.5,-308 2558.5,-327 2605.5,-327 2605.5,-308 2558.5,-308"/>
<text text-anchor="middle" x="2582" y="-315" font-family="Helvetica,sans-Serif" font-size="10.00">cmath</text>
</g>
<!-- Node13&#45;&gt;Node14 -->
<g id="edge15" class="edge"><title>Node13&#45;&gt;Node14</title>
<path fill="none" stroke="midnightblue" d="M2110.11,-376.482C2220.51,-362.918 2460.06,-333.483 2548.4,-322.628"/>
<polygon fill="midnightblue" stroke="midnightblue" points="2548.91,-326.093 2558.41,-321.399 2548.05,-319.145 2548.91,-326.093"/>
</g>
<!-- Node15 -->
<g id="node15" class="node"><title>Node15</title>
<polygon fill="white" stroke="#bfbfbf" points="1825.5,-308 1825.5,-327 1882.5,-327 1882.5,-308 1825.5,-308"/>
<text text-anchor="middle" x="1854" y="-315" font-family="Helvetica,sans-Serif" font-size="10.00">ostream</text>
</g>
<!-- Node13&#45;&gt;Node15 -->
<g id="edge16" class="edge"><title>Node13&#45;&gt;Node15</title>
<path fill="none" stroke="midnightblue" d="M2005.55,-369.443C1973.36,-359.703 1929.91,-346.166 1892,-333 1889.75,-332.218 1887.43,-331.391 1885.1,-330.543"/>
<polygon fill="midnightblue" stroke="midnightblue" points="1886.21,-327.221 1875.62,-327.009 1883.77,-333.781 1886.21,-327.221"/>
</g>
<!-- Node16 -->
<g id="node16" class="node"><title>Node16</title>
<polygon fill="white" stroke="#bfbfbf" points="2234,-241 2234,-260 2276,-260 2276,-241 2234,-241"/>
<text text-anchor="middle" x="2255" y="-248" font-family="Helvetica,sans-Serif" font-size="10.00">utility</text>
</g>
<!-- Node13&#45;&gt;Node16 -->
<g id="edge17" class="edge"><title>Node13&#45;&gt;Node16</title>
<path fill="none" stroke="midnightblue" d="M2073.41,-369.434C2097.34,-353.011 2138.29,-325.145 2174,-302 2193.41,-289.416 2215.74,-275.54 2232.03,-265.522"/>
<polygon fill="midnightblue" stroke="midnightblue" points="2234.16,-268.321 2240.86,-260.109 2230.5,-262.353 2234.16,-268.321"/>
</g>
<!-- Node13&#45;&gt;Node17 -->
<g id="edge18" class="edge"><title>Node13&#45;&gt;Node17</title>
<path fill="none" stroke="midnightblue" d="M2053.22,-369.494C2053.89,-325.761 2055.95,-191.696 2056.71,-141.89"/>
<polygon fill="midnightblue" stroke="midnightblue" points="2060.21,-141.678 2056.87,-131.626 2053.21,-141.571 2060.21,-141.678"/>
</g>
<!-- Node17&#45;&gt;Node18 -->
<g id="edge19" class="edge"><title>Node17&#45;&gt;Node18</title>
<path fill="none" stroke="midnightblue" d="M2100.02,-119.34C2305.29,-111.416 3184.38,-77.4841 3405.41,-68.9525"/>
<polygon fill="midnightblue" stroke="midnightblue" points="3405.58,-72.4489 3415.44,-68.5657 3405.31,-65.4541 3405.58,-72.4489"/>
</g>
<!-- Node18&#45;&gt;Node9 -->
<g id="edge21" class="edge"><title>Node18&#45;&gt;Node9</title>
<path fill="none" stroke="midnightblue" d="M3415.47,-63.7587C3354.88,-61.9254 3237.11,-58.4474 3137,-56 2263.02,-34.6343 1191.41,-15.1315 993.285,-11.5762"/>
<polygon fill="midnightblue" stroke="midnightblue" points="993.304,-8.07612 983.243,-11.3963 993.179,-15.075 993.304,-8.07612"/>
</g>
<!-- Node19 -->
<g id="node19" class="node"><title>Node19</title>
<polygon fill="white" stroke="#bfbfbf" points="3634.5,-0.5 3634.5,-19.5 3693.5,-19.5 3693.5,-0.5 3634.5,-0.5"/>
<text text-anchor="middle" x="3664" y="-7.5" font-family="Helvetica,sans-Serif" font-size="10.00">iostream</text>
</g>
<!-- Node18&#45;&gt;Node19 -->
<g id="edge20" class="edge"><title>Node18&#45;&gt;Node19</title>
<path fill="none" stroke="midnightblue" d="M3488.96,-56.4435C3525.74,-46.8956 3585.22,-31.4535 3624.47,-21.2634"/>
<polygon fill="midnightblue" stroke="midnightblue" points="3625.43,-24.6297 3634.23,-18.729 3623.67,-17.8543 3625.43,-24.6297"/>
</g>
<!-- Node21&#45;&gt;Node5 -->
<g id="edge24" class="edge"><title>Node21&#45;&gt;Node5</title>
<path fill="none" stroke="midnightblue" d="M1166.49,-375.802C1105.75,-366.455 1010.96,-349.842 979,-333 940.902,-312.921 931.498,-302.721 909,-266 884.36,-225.783 873.024,-170.505 868.528,-141.885"/>
<polygon fill="midnightblue" stroke="midnightblue" points="871.947,-141.073 867.042,-131.682 865.02,-142.082 871.947,-141.073"/>
</g>
<!-- Node21&#45;&gt;Node15 -->
<g id="edge25" class="edge"><title>Node21&#45;&gt;Node15</title>
<path fill="none" stroke="midnightblue" d="M1273.86,-379.801C1410.57,-370.289 1763.93,-344.892 1816,-333 1819,-332.315 1822.08,-331.442 1825.13,-330.466"/>
<polygon fill="midnightblue" stroke="midnightblue" points="1826.35,-333.746 1834.6,-327.099 1824.01,-327.15 1826.35,-333.746"/>
</g>
<!-- Node21&#45;&gt;Node17 -->
<g id="edge55" class="edge"><title>Node21&#45;&gt;Node17</title>
<path fill="none" stroke="midnightblue" d="M1273.77,-372.003C1319.43,-362.104 1386.65,-347.208 1445,-333 1473.46,-326.069 1675.27,-281.697 1700,-266 1747.95,-235.569 1732.66,-196.126 1782,-168 1818.93,-146.948 1934.74,-133.594 2003.73,-127.289"/>
<polygon fill="midnightblue" stroke="midnightblue" points="2004.32,-130.75 2013.97,-126.374 2003.7,-123.778 2004.32,-130.75"/>
</g>
<!-- Node21&#45;&gt;Node22 -->
<g id="edge26" class="edge"><title>Node21&#45;&gt;Node22</title>
<path fill="none" stroke="midnightblue" d="M1231.93,-369.396C1239.14,-360.878 1248.48,-349.847 1256.61,-340.233"/>
<polygon fill="midnightblue" stroke="midnightblue" points="1259.3,-342.471 1263.09,-332.577 1253.96,-337.95 1259.3,-342.471"/>
</g>
<!-- Node21&#45;&gt;Node25 -->
<g id="edge48" class="edge"><title>Node21&#45;&gt;Node25</title>
<path fill="none" stroke="midnightblue" d="M1211.56,-369.337C1202.76,-352.579 1191.57,-324.159 1202,-302 1223.32,-256.683 1271.65,-222.858 1305.99,-203.412"/>
<polygon fill="midnightblue" stroke="midnightblue" points="1307.76,-206.433 1314.83,-198.545 1304.39,-200.301 1307.76,-206.433"/>
</g>
<!-- Node21&#45;&gt;Node32 -->
<g id="edge49" class="edge"><title>Node21&#45;&gt;Node32</title>
<path fill="none" stroke="midnightblue" d="M1264.76,-369.499C1348.5,-343.305 1527.38,-287.353 1604.9,-263.105"/>
<polygon fill="midnightblue" stroke="midnightblue" points="1606.21,-266.362 1614.71,-260.036 1604.12,-259.681 1606.21,-266.362"/>
</g>
<!-- Node22&#45;&gt;Node6 -->
<g id="edge28" class="edge"><title>Node22&#45;&gt;Node6</title>
<path fill="none" stroke="midnightblue" d="M1295.61,-302.396C1311.4,-291.597 1333.09,-276.756 1348.97,-265.887"/>
<polygon fill="midnightblue" stroke="midnightblue" points="1351.29,-268.542 1357.57,-260.007 1347.34,-262.765 1351.29,-268.542"/>
</g>
<!-- Node22&#45;&gt;Node12 -->
<g id="edge30" class="edge"><title>Node22&#45;&gt;Node12</title>
<path fill="none" stroke="midnightblue" d="M1339.29,-310.387C1422.71,-302.106 1572.65,-286.03 1700,-266 1770.69,-254.881 1787.02,-244.106 1858,-235 2161.94,-196.01 2533.17,-186.903 2645.34,-184.976"/>
<polygon fill="midnightblue" stroke="midnightblue" points="2645.44,-188.475 2655.38,-184.811 2645.32,-181.476 2645.44,-188.475"/>
</g>
<!-- Node22&#45;&gt;Node16 -->
<g id="edge29" class="edge"><title>Node22&#45;&gt;Node16</title>
<path fill="none" stroke="midnightblue" d="M1339.3,-312.235C1529.6,-299.613 2085.33,-262.754 2223.58,-253.584"/>
<polygon fill="midnightblue" stroke="midnightblue" points="2224.13,-257.055 2233.88,-252.901 2223.67,-250.071 2224.13,-257.055"/>
</g>
<!-- Node23 -->
<g id="node23" class="node"><title>Node23</title>
<polygon fill="white" stroke="#bfbfbf" points="1161.5,-174 1161.5,-193 1224.5,-193 1224.5,-174 1161.5,-174"/>
<text text-anchor="middle" x="1193" y="-181" font-family="Helvetica,sans-Serif" font-size="10.00">functional</text>
</g>
<!-- Node22&#45;&gt;Node23 -->
<g id="edge27" class="edge"><title>Node22&#45;&gt;Node23</title>
<path fill="none" stroke="midnightblue" d="M1266.22,-302.374C1251.06,-277.969 1220.02,-228.002 1203.65,-201.648"/>
<polygon fill="midnightblue" stroke="midnightblue" points="1206.59,-199.745 1198.34,-193.097 1200.64,-203.439 1206.59,-199.745"/>
</g>
<!-- Node24 -->
<g id="node24" class="node"><title>Node24</title>
<g id="a_node24"><a xlink:href="so__uid__map_8h.html" target="_top" xlink:title="core/container/so_uid\l_map.h">
<polygon fill="white" stroke="black" points="1416.5,-235.5 1416.5,-265.5 1535.5,-265.5 1535.5,-235.5 1416.5,-235.5"/>
<text text-anchor="start" x="1424.5" y="-253.5" font-family="Helvetica,sans-Serif" font-size="10.00">core/container/so_uid</text>
<text text-anchor="middle" x="1476" y="-242.5" font-family="Helvetica,sans-Serif" font-size="10.00">_map.h</text>
</a>
</g>
</g>
<!-- Node22&#45;&gt;Node24 -->
<g id="edge31" class="edge"><title>Node22&#45;&gt;Node24</title>
<path fill="none" stroke="midnightblue" d="M1318.61,-302.396C1349.17,-292.515 1390.18,-279.252 1422.68,-268.743"/>
<polygon fill="midnightblue" stroke="midnightblue" points="1424.03,-271.984 1432.47,-265.577 1421.88,-265.323 1424.03,-271.984"/>
</g>
<!-- Node22&#45;&gt;Node25 -->
<g id="edge40" class="edge"><title>Node22&#45;&gt;Node25</title>
<path fill="none" stroke="midnightblue" d="M1282.38,-302.374C1294.26,-279.647 1317.73,-234.752 1332.03,-207.402"/>
<polygon fill="midnightblue" stroke="midnightblue" points="1335.14,-209.008 1336.67,-198.525 1328.93,-205.766 1335.14,-209.008"/>
</g>
<!-- Node26 -->
<g id="node26" class="node"><title>Node26</title>
<g id="a_node26"><a xlink:href="operation_8h.html" target="_top" xlink:title="core/operation/operation.h">
<polygon fill="white" stroke="black" points="1027,-241 1027,-260 1171,-260 1171,-241 1027,-241"/>
<text text-anchor="middle" x="1099" y="-248" font-family="Helvetica,sans-Serif" font-size="10.00">core/operation/operation.h</text>
</a>
</g>
</g>
<!-- Node22&#45;&gt;Node26 -->
<g id="edge37" class="edge"><title>Node22&#45;&gt;Node26</title>
<path fill="none" stroke="midnightblue" d="M1236.81,-302.396C1205.38,-290.789 1161.32,-274.515 1131.54,-263.519"/>
<polygon fill="midnightblue" stroke="midnightblue" points="1132.63,-260.188 1122.03,-260.007 1130.2,-266.755 1132.63,-260.188"/>
</g>
<!-- Node22&#45;&gt;Node27 -->
<g id="edge41" class="edge"><title>Node22&#45;&gt;Node27</title>
<path fill="none" stroke="midnightblue" d="M1210.88,-309.789C1091.19,-297.26 835.168,-270.463 716.622,-258.055"/>
<polygon fill="midnightblue" stroke="midnightblue" points="716.923,-254.567 706.613,-257.007 716.195,-261.529 716.923,-254.567"/>
</g>
<!-- Node29 -->
<g id="node29" class="node"><title>Node29</title>
<g id="a_node29"><a xlink:href="thread__info_8h.html" target="_top" xlink:title="core/util/thread_info.h">
<polygon fill="white" stroke="red" points="3268.5,-241 3268.5,-260 3389.5,-260 3389.5,-241 3268.5,-241"/>
<text text-anchor="middle" x="3329" y="-248" font-family="Helvetica,sans-Serif" font-size="10.00">core/util/thread_info.h</text>
</a>
</g>
</g>
<!-- Node22&#45;&gt;Node29 -->
<g id="edge43" class="edge"><title>Node22&#45;&gt;Node29</title>
<path fill="none" stroke="midnightblue" d="M1339.01,-314.474C1642.99,-304.855 2939.34,-263.831 3258.02,-253.746"/>
<polygon fill="midnightblue" stroke="midnightblue" points="3258.17,-257.243 3268.06,-253.429 3257.95,-250.247 3258.17,-257.243"/>
</g>
<!-- Node24&#45;&gt;Node5 -->
<g id="edge32" class="edge"><title>Node24&#45;&gt;Node5</title>
<path fill="none" stroke="midnightblue" d="M1416.22,-236.226C1368.26,-225.167 1305.1,-209.572 1281,-199 1257.74,-188.797 1256.88,-176.654 1233,-168 1114.62,-125.093 962.187,-121.519 897.386,-122.193"/>
<polygon fill="midnightblue" stroke="midnightblue" points="896.989,-118.699 887.042,-122.346 897.093,-125.698 896.989,-118.699"/>
</g>
<!-- Node24&#45;&gt;Node12 -->
<g id="edge33" class="edge"><title>Node24&#45;&gt;Node12</title>
<path fill="none" stroke="midnightblue" d="M1535.6,-240.47C1551.01,-238.398 1567.6,-236.396 1583,-235 2000.88,-197.133 2511.12,-187.042 2645.36,-184.963"/>
<polygon fill="midnightblue" stroke="midnightblue" points="2645.48,-188.462 2655.42,-184.812 2645.37,-181.463 2645.48,-188.462"/>
</g>
<!-- Node24&#45;&gt;Node25 -->
<g id="edge34" class="edge"><title>Node24&#45;&gt;Node25</title>
<path fill="none" stroke="midnightblue" d="M1447.36,-235.396C1428.16,-225.941 1402.67,-213.39 1381.81,-203.117"/>
<polygon fill="midnightblue" stroke="midnightblue" points="1383.1,-199.854 1372.59,-198.577 1380.01,-206.134 1383.1,-199.854"/>
</g>
<!-- Node25&#45;&gt;Node5 -->
<g id="edge35" class="edge"><title>Node25&#45;&gt;Node5</title>
<path fill="none" stroke="midnightblue" d="M1290.21,-170.977C1284.41,-169.896 1278.59,-168.878 1273,-168 1133.67,-146.118 965.867,-131.126 897.393,-125.487"/>
<polygon fill="midnightblue" stroke="midnightblue" points="897.527,-121.986 887.276,-124.662 896.959,-128.963 897.527,-121.986"/>
</g>
<!-- Node25&#45;&gt;Node17 -->
<g id="edge36" class="edge"><title>Node25&#45;&gt;Node17</title>
<path fill="none" stroke="midnightblue" d="M1397.59,-178.028C1530.03,-166.976 1871.55,-138.476 2003.69,-127.449"/>
<polygon fill="midnightblue" stroke="midnightblue" points="2004.28,-130.912 2013.95,-126.592 2003.7,-123.936 2004.28,-130.912"/>
</g>
<!-- Node26&#45;&gt;Node9 -->
<g id="edge39" class="edge"><title>Node26&#45;&gt;Node9</title>
<path fill="none" stroke="midnightblue" d="M1093.92,-240.729C1073.68,-205.736 998.45,-75.7226 971.058,-28.3825"/>
<polygon fill="midnightblue" stroke="midnightblue" points="974.013,-26.5021 965.976,-19.5994 967.955,-30.0078 974.013,-26.5021"/>
</g>
<!-- Node26&#45;&gt;Node23 -->
<g id="edge38" class="edge"><title>Node26&#45;&gt;Node23</title>
<path fill="none" stroke="midnightblue" d="M1111.68,-240.734C1127.18,-230.013 1153.64,-211.716 1172.16,-198.914"/>
<polygon fill="midnightblue" stroke="midnightblue" points="1174.29,-201.694 1180.52,-193.127 1170.31,-195.936 1174.29,-201.694"/>
</g>
<!-- Node28 -->
<g id="node28" class="node"><title>Node28</title>
<polygon fill="white" stroke="#bfbfbf" points="383,-174 383,-193 433,-193 433,-174 383,-174"/>
<text text-anchor="middle" x="408" y="-181" font-family="Helvetica,sans-Serif" font-size="10.00">atomic</text>
</g>
<!-- Node27&#45;&gt;Node28 -->
<g id="edge42" class="edge"><title>Node27&#45;&gt;Node28</title>
<path fill="none" stroke="midnightblue" d="M621.587,-240.936C575.277,-228.699 490.522,-206.305 442.886,-193.718"/>
<polygon fill="midnightblue" stroke="midnightblue" points="443.592,-190.284 433.029,-191.113 441.804,-197.052 443.592,-190.284"/>
</g>
<!-- Node29&#45;&gt;Node12 -->
<g id="edge46" class="edge"><title>Node29&#45;&gt;Node12</title>
<path fill="none" stroke="midnightblue" d="M3268.35,-241.333C3251.42,-239.158 3233,-236.89 3216,-235 3025.9,-213.871 2797.28,-194.309 2712.64,-187.265"/>
<polygon fill="midnightblue" stroke="midnightblue" points="2712.84,-183.77 2702.58,-186.431 2712.26,-190.746 2712.84,-183.77"/>
</g>
<!-- Node29&#45;&gt;Node18 -->
<g id="edge47" class="edge"><title>Node29&#45;&gt;Node18</title>
<path fill="none" stroke="midnightblue" d="M3335.13,-240.698C3354.95,-212.21 3417.6,-122.179 3444.04,-84.1835"/>
<polygon fill="midnightblue" stroke="midnightblue" points="3447.1,-85.9214 3449.94,-75.714 3441.35,-81.923 3447.1,-85.9214"/>
</g>
<!-- Node30 -->
<g id="node30" class="node"><title>Node30</title>
<polygon fill="white" stroke="#bfbfbf" points="3526.5,-174 3526.5,-193 3573.5,-193 3573.5,-174 3526.5,-174"/>
<text text-anchor="middle" x="3550" y="-181" font-family="Helvetica,sans-Serif" font-size="10.00">omp.h</text>
</g>
<!-- Node29&#45;&gt;Node30 -->
<g id="edge44" class="edge"><title>Node29&#45;&gt;Node30</title>
<path fill="none" stroke="midnightblue" d="M3358.35,-240.869C3399.33,-228.816 3473.5,-207.001 3516.56,-194.335"/>
<polygon fill="midnightblue" stroke="midnightblue" points="3517.68,-197.654 3526.29,-191.475 3515.7,-190.939 3517.68,-197.654"/>
</g>
<!-- Node31 -->
<g id="node31" class="node"><title>Node31</title>
<polygon fill="white" stroke="#bfbfbf" points="3255,-174 3255,-193 3309,-193 3309,-174 3255,-174"/>
<text text-anchor="middle" x="3282" y="-181" font-family="Helvetica,sans-Serif" font-size="10.00">sched.h</text>
</g>
<!-- Node29&#45;&gt;Node31 -->
<g id="edge45" class="edge"><title>Node29&#45;&gt;Node31</title>
<path fill="none" stroke="midnightblue" d="M3322.66,-240.734C3315.4,-230.695 3303.34,-214.014 3294.24,-201.421"/>
<polygon fill="midnightblue" stroke="midnightblue" points="3296.93,-199.18 3288.24,-193.127 3291.26,-203.282 3296.93,-199.18"/>
</g>
<!-- Node32&#45;&gt;Node9 -->
<g id="edge51" class="edge"><title>Node32&#45;&gt;Node9</title>
<path fill="none" stroke="midnightblue" d="M1617.36,-240.871C1513.21,-204.395 1109.11,-62.8697 992.602,-22.0675"/>
<polygon fill="midnightblue" stroke="midnightblue" points="993.757,-18.7638 983.162,-18.7617 991.443,-25.3704 993.757,-18.7638"/>
</g>
<!-- Node32&#45;&gt;Node12 -->
<g id="edge52" class="edge"><title>Node32&#45;&gt;Node12</title>
<path fill="none" stroke="midnightblue" d="M1691.51,-243.799C1718.28,-240.862 1751.92,-237.403 1782,-235 2118.22,-208.139 2526.48,-190.624 2645.15,-185.832"/>
<polygon fill="midnightblue" stroke="midnightblue" points="2645.56,-189.318 2655.41,-185.42 2645.28,-182.324 2645.56,-189.318"/>
</g>
<!-- Node32&#45;&gt;Node17 -->
<g id="edge54" class="edge"><title>Node32&#45;&gt;Node17</title>
<path fill="none" stroke="midnightblue" d="M1633.84,-240.777C1619.65,-224.54 1593.67,-189.393 1613,-168 1638.79,-139.468 1891.66,-128.125 2003.85,-124.471"/>
<polygon fill="midnightblue" stroke="midnightblue" points="2004.05,-127.966 2013.94,-124.151 2003.83,-120.97 2004.05,-127.966"/>
</g>
<!-- Node32&#45;&gt;Node23 -->
<g id="edge50" class="edge"><title>Node32&#45;&gt;Node23</title>
<path fill="none" stroke="midnightblue" d="M1592.41,-242.056C1576.91,-239.758 1559.75,-237.243 1544,-235 1427.2,-218.366 1397.66,-216.592 1281,-199 1265.97,-196.733 1249.53,-194.073 1234.96,-191.654"/>
<polygon fill="midnightblue" stroke="midnightblue" points="1235.18,-188.141 1224.74,-189.944 1234.02,-195.046 1235.18,-188.141"/>
</g>
<!-- Node32&#45;&gt;Node25 -->
<g id="edge53" class="edge"><title>Node32&#45;&gt;Node25</title>
<path fill="none" stroke="midnightblue" d="M1602.74,-240.936C1553.06,-230.1 1466.86,-211.299 1407.71,-198.397"/>
<polygon fill="midnightblue" stroke="midnightblue" points="1408.24,-194.931 1397.73,-196.219 1406.75,-201.77 1408.24,-194.931"/>
</g>
<!-- Node33&#45;&gt;Node9 -->
<g id="edge59" class="edge"><title>Node33&#45;&gt;Node9</title>
<path fill="none" stroke="midnightblue" d="M425.704,-235.301C437.279,-217.449 459.297,-186.86 485,-168 628.685,-62.5685 847.123,-25.3466 928.743,-14.6758"/>
<polygon fill="midnightblue" stroke="midnightblue" points="929.408,-18.1198 938.891,-13.3953 928.531,-11.1749 929.408,-18.1198"/>
</g>
<!-- Node33&#45;&gt;Node28 -->
<g id="edge58" class="edge"><title>Node33&#45;&gt;Node28</title>
<path fill="none" stroke="midnightblue" d="M415.047,-235.396C413.741,-225.963 412.008,-213.448 410.588,-203.189"/>
<polygon fill="midnightblue" stroke="midnightblue" points="414.042,-202.62 409.204,-193.195 407.109,-203.58 414.042,-202.62"/>
</g>
<!-- Node35&#45;&gt;Node2 -->
<g id="edge78" class="edge"><title>Node35&#45;&gt;Node2</title>
<path fill="none" stroke="midnightblue" d="M600.229,-504.967C650.951,-494.05 724.476,-478.225 777.499,-466.813"/>
<polygon fill="midnightblue" stroke="midnightblue" points="778.444,-470.19 787.484,-464.664 776.971,-463.347 778.444,-470.19"/>
</g>
<!-- Node35&#45;&gt;Node36 -->
<g id="edge74" class="edge"><title>Node35&#45;&gt;Node36</title>
<path fill="none" stroke="midnightblue" d="M600.126,-510.451C701.366,-498.174 909.262,-472.963 1014.29,-460.227"/>
<polygon fill="midnightblue" stroke="midnightblue" points="1014.92,-463.675 1024.43,-458.997 1014.08,-456.726 1014.92,-463.675"/>
</g>
<!-- Node35&#45;&gt;Node38 -->
<g id="edge79" class="edge"><title>Node35&#45;&gt;Node38</title>
<path fill="none" stroke="midnightblue" d="M483.88,-515.751C407.333,-509.944 275.283,-487.051 214,-400 199.122,-378.867 219.551,-351.176 236.002,-334.123"/>
<polygon fill="midnightblue" stroke="midnightblue" points="238.467,-336.608 243.139,-327.099 233.557,-331.619 238.467,-336.608"/>
</g>
<!-- Node36&#45;&gt;Node5 -->
<g id="edge75" class="edge"><title>Node36&#45;&gt;Node5</title>
<path fill="none" stroke="midnightblue" d="M1064.12,-441.804C1036.38,-423.945 973.144,-380.779 931,-333 907.907,-306.819 904.223,-297.882 890,-266 877.339,-237.62 875.298,-229.621 870,-199 866.661,-179.703 865.848,-157.275 865.754,-141.81"/>
<polygon fill="midnightblue" stroke="midnightblue" points="869.256,-141.521 865.794,-131.508 862.256,-141.494 869.256,-141.521"/>
</g>
<!-- Node36&#45;&gt;Node18 -->
<g id="edge77" class="edge"><title>Node36&#45;&gt;Node18</title>
<path fill="none" stroke="midnightblue" d="M1125.52,-441.964C1167.47,-433.673 1229.88,-419.482 1282,-400 1404.51,-354.205 1448.38,-355.231 1544,-266 1581.17,-231.315 1560.58,-196.016 1603,-168 1757.12,-66.2229 3121.8,-65.7394 3404.77,-66.7455"/>
<polygon fill="midnightblue" stroke="midnightblue" points="3405.13,-70.2468 3415.14,-66.7848 3405.16,-63.2469 3405.13,-70.2468"/>
</g>
<!-- Node37 -->
<g id="node37" class="node"><title>Node37</title>
<polygon fill="white" stroke="#bfbfbf" points="1024.5,-375 1024.5,-394 1071.5,-394 1071.5,-375 1024.5,-375"/>
<text text-anchor="middle" x="1048" y="-382" font-family="Helvetica,sans-Serif" font-size="10.00">mutex</text>
</g>
<!-- Node36&#45;&gt;Node37 -->
<g id="edge76" class="edge"><title>Node36&#45;&gt;Node37</title>
<path fill="none" stroke="midnightblue" d="M1073.95,-441.734C1069.46,-431.988 1062.07,-415.981 1056.32,-403.532"/>
<polygon fill="midnightblue" stroke="midnightblue" points="1059.35,-401.74 1051.98,-394.127 1052.99,-404.674 1059.35,-401.74"/>
</g>
<!-- Node38&#45;&gt;Node10 -->
<g id="edge80" class="edge"><title>Node38&#45;&gt;Node10</title>
<path fill="none" stroke="midnightblue" d="M242.615,-307.734C230.146,-297.208 209.026,-279.379 193.908,-266.617"/>
<polygon fill="midnightblue" stroke="midnightblue" points="196.119,-263.903 186.22,-260.127 191.604,-269.252 196.119,-263.903"/>
</g>
<!-- Node38&#45;&gt;Node20 -->
<g id="edge81" class="edge"><title>Node38&#45;&gt;Node20</title>
<path fill="none" stroke="midnightblue" d="M260.148,-307.734C268.413,-297.598 282.199,-280.69 292.501,-268.056"/>
<polygon fill="midnightblue" stroke="midnightblue" points="295.359,-270.089 298.965,-260.127 289.933,-265.666 295.359,-270.089"/>
</g>
<!-- Node39&#45;&gt;Node3 -->
<g id="edge87" class="edge"><title>Node39&#45;&gt;Node3</title>
<path fill="none" stroke="midnightblue" d="M2393.62,-641.618C2333.12,-631.777 2214,-601.933 2214,-519.5 2214,-519.5 2214,-519.5 2214,-450.5 2214,-410.158 2214,-362.88 2214,-337.282"/>
<polygon fill="midnightblue" stroke="midnightblue" points="2217.5,-337.149 2214,-327.149 2210.5,-337.149 2217.5,-337.149"/>
</g>
<!-- Node39&#45;&gt;Node5 -->
<g id="edge92" class="edge"><title>Node39&#45;&gt;Node5</title>
<path fill="none" stroke="midnightblue" d="M2393.7,-645.46C2277.04,-643.357 1884.99,-634.115 1563,-601 1174.26,-561.02 1077.89,-540.098 694,-467 561.923,-441.851 482.884,-505.073 399,-400 390.404,-389.233 393.371,-381.576 399,-369 426.39,-307.804 563.819,-197.553 624,-168 693.896,-133.675 786.898,-125.416 834.7,-123.506"/>
<polygon fill="midnightblue" stroke="midnightblue" points="834.862,-127.002 844.741,-123.173 834.63,-120.006 834.862,-127.002"/>
</g>
<!-- Node39&#45;&gt;Node6 -->
<g id="edge93" class="edge"><title>Node39&#45;&gt;Node6</title>
<path fill="none" stroke="midnightblue" d="M2393.87,-645.265C2284.8,-642.621 1945.73,-632.049 1841,-601 1662.32,-548.028 1611.61,-524.577 1473,-400 1429.37,-360.788 1394.53,-299.648 1378.91,-269.522"/>
<polygon fill="midnightblue" stroke="midnightblue" points="1381.85,-267.58 1374.21,-260.246 1375.61,-270.747 1381.85,-267.58"/>
</g>
<!-- Node39&#45;&gt;Node12 -->
<g id="edge96" class="edge"><title>Node39&#45;&gt;Node12</title>
<path fill="none" stroke="midnightblue" d="M2462,-644.012C2508.46,-640.287 2593.56,-629.814 2660,-601 2753.14,-560.603 2785.14,-548.999 2845,-467 2888.24,-407.771 2880.02,-366.433 2845,-302 2826.74,-268.397 2821.26,-258.389 2791,-235 2767.23,-216.624 2735.7,-203.18 2712.16,-194.804"/>
<polygon fill="midnightblue" stroke="midnightblue" points="2713.19,-191.46 2702.6,-191.526 2710.92,-198.081 2713.19,-191.46"/>
</g>
<!-- Node39&#45;&gt;Node13 -->
<g id="edge109" class="edge"><title>Node39&#45;&gt;Node13</title>
<path fill="none" stroke="midnightblue" d="M2393.65,-642.434C2338.06,-636.138 2231.4,-621.729 2200,-601 2126.89,-552.734 2080.34,-454.373 2061.95,-409.176"/>
<polygon fill="midnightblue" stroke="midnightblue" points="2065.1,-407.637 2058.17,-399.631 2058.6,-410.217 2065.1,-407.637"/>
</g>
<!-- Node39&#45;&gt;Node14 -->
<g id="edge90" class="edge"><title>Node39&#45;&gt;Node14</title>
<path fill="none" stroke="midnightblue" d="M2460.01,-637.431C2508.24,-622.352 2594,-586.17 2594,-519.5 2594,-519.5 2594,-519.5 2594,-450.5 2594,-409.991 2588.33,-362.776 2584.78,-337.233"/>
<polygon fill="midnightblue" stroke="midnightblue" points="2588.22,-336.525 2583.33,-327.124 2581.29,-337.52 2588.22,-336.525"/>
</g>
<!-- Node39&#45;&gt;Node16 -->
<g id="edge95" class="edge"><title>Node39&#45;&gt;Node16</title>
<path fill="none" stroke="midnightblue" d="M2462.2,-642.618C2514.01,-636.837 2609.02,-623.45 2634,-601 2691.5,-549.333 2641.82,-497.232 2689,-436 2706.83,-412.857 2730.11,-425.7 2744,-400 2750.55,-387.88 2751.17,-380.764 2744,-369 2695.38,-289.247 2386.47,-260.73 2286.31,-253.514"/>
<polygon fill="midnightblue" stroke="midnightblue" points="2286.43,-250.014 2276.21,-252.808 2285.94,-256.997 2286.43,-250.014"/>
</g>
<!-- Node39&#45;&gt;Node18 -->
<g id="edge161" class="edge"><title>Node39&#45;&gt;Node18</title>
<path fill="none" stroke="midnightblue" d="M2462.13,-646.222C2617.38,-646.969 3257.77,-647.143 3452,-601 3535.08,-581.262 3626,-604.896 3626,-519.5 3626,-519.5 3626,-519.5 3626,-182.5 3626,-123.793 3555.78,-92.8392 3505.6,-78.2143"/>
<polygon fill="midnightblue" stroke="midnightblue" points="3506.43,-74.8124 3495.86,-75.5037 3504.55,-81.5563 3506.43,-74.8124"/>
</g>
<!-- Node39&#45;&gt;Node19 -->
<g id="edge91" class="edge"><title>Node39&#45;&gt;Node19</title>
<path fill="none" stroke="midnightblue" d="M2462.17,-645.75C2638.11,-644.314 3437.53,-635.902 3542,-601 3646.33,-566.145 3740,-562.5 3740,-452.5 3740,-452.5 3740,-452.5 3740,-316.5 3740,-204.442 3691.25,-75.9194 3671.84,-29.1829"/>
<polygon fill="midnightblue" stroke="midnightblue" points="3674.99,-27.6461 3667.87,-19.7965 3668.54,-30.3703 3674.99,-27.6461"/>
</g>
<!-- Node39&#45;&gt;Node27 -->
<g id="edge162" class="edge"><title>Node39&#45;&gt;Node27</title>
<path fill="none" stroke="midnightblue" d="M2393.71,-646.019C2158.94,-646.032 793.045,-644.242 614,-601 477.349,-567.996 323.197,-487.392 399,-369 441.14,-303.185 530.512,-273.721 591.428,-260.89"/>
<polygon fill="midnightblue" stroke="midnightblue" points="592.212,-264.303 601.325,-258.898 590.831,-257.44 592.212,-264.303"/>
</g>
<!-- Node39&#45;&gt;Node28 -->
<g id="edge89" class="edge"><title>Node39&#45;&gt;Node28</title>
<path fill="none" stroke="midnightblue" d="M2393.78,-646.02C2168.94,-646.031 900.408,-644.148 516,-601 334.836,-580.665 114,-701.801 114,-519.5 114,-519.5 114,-519.5 114,-316.5 114,-279.306 106.084,-260.669 133,-235 150.208,-218.59 302.178,-197.716 372.536,-188.825"/>
<polygon fill="midnightblue" stroke="midnightblue" points="373.209,-192.268 382.697,-187.552 372.34,-185.322 373.209,-192.268"/>
</g>
<!-- Node39&#45;&gt;Node30 -->
<g id="edge86" class="edge"><title>Node39&#45;&gt;Node30</title>
<path fill="none" stroke="midnightblue" d="M2462.09,-645.953C2653.69,-645.25 3588,-635.859 3588,-519.5 3588,-519.5 3588,-519.5 3588,-316.5 3588,-274.35 3569.89,-227.48 3558.67,-202.5"/>
<polygon fill="midnightblue" stroke="midnightblue" points="3561.74,-200.809 3554.36,-193.212 3555.39,-203.756 3561.74,-200.809"/>
</g>
<!-- Node39&#45;&gt;Node37 -->
<g id="edge94" class="edge"><title>Node39&#45;&gt;Node37</title>
<path fill="none" stroke="midnightblue" d="M2393.94,-645.055C2268.71,-641.403 1834.08,-627.094 1698,-601 1450.13,-553.471 1166.37,-436.575 1076.7,-398.044"/>
<polygon fill="midnightblue" stroke="midnightblue" points="1078.01,-394.799 1067.44,-394.049 1075.24,-401.226 1078.01,-394.799"/>
</g>
<!-- Node40 -->
<g id="node40" class="node"><title>Node40</title>
<polygon fill="white" stroke="#bfbfbf" points="3352,-375 3352,-394 3408,-394 3408,-375 3352,-375"/>
<text text-anchor="middle" x="3380" y="-382" font-family="Helvetica,sans-Serif" font-size="10.00">assert.h</text>
</g>
<!-- Node39&#45;&gt;Node40 -->
<g id="edge85" class="edge"><title>Node39&#45;&gt;Node40</title>
<path fill="none" stroke="midnightblue" d="M2462.06,-644.613C2561.14,-640.322 2847.86,-626.028 2938,-601 3110.13,-553.208 3296.19,-439.558 3358.39,-399.65"/>
<polygon fill="midnightblue" stroke="midnightblue" points="3360.47,-402.472 3366.97,-394.105 3356.67,-396.592 3360.47,-402.472"/>
</g>
<!-- Node41 -->
<g id="node41" class="node"><title>Node41</title>
<polygon fill="white" stroke="#bfbfbf" points="3189.5,-308 3189.5,-327 3230.5,-327 3230.5,-308 3189.5,-308"/>
<text text-anchor="middle" x="3210" y="-315" font-family="Helvetica,sans-Serif" font-size="10.00">array</text>
</g>
<!-- Node39&#45;&gt;Node41 -->
<g id="edge88" class="edge"><title>Node39&#45;&gt;Node41</title>
<path fill="none" stroke="midnightblue" d="M2462.12,-645.387C2638.19,-641.785 3436,-619.922 3436,-519.5 3436,-519.5 3436,-519.5 3436,-450.5 3436,-413.306 3443.16,-395.434 3417,-369 3392.52,-344.271 3292.24,-328.616 3240.78,-322.053"/>
<polygon fill="midnightblue" stroke="midnightblue" points="3240.94,-318.546 3230.59,-320.79 3240.08,-325.493 3240.94,-318.546"/>
</g>
<!-- Node42 -->
<g id="node42" class="node"><title>Node42</title>
<polygon fill="white" stroke="#bfbfbf" points="2800.5,-576 2800.5,-595 2899.5,-595 2899.5,-576 2800.5,-576"/>
<text text-anchor="middle" x="2850" y="-583" font-family="Helvetica,sans-Serif" font-size="10.00">morton/morton.h</text>
</g>
<!-- Node39&#45;&gt;Node42 -->
<g id="edge97" class="edge"><title>Node39&#45;&gt;Node42</title>
<path fill="none" stroke="midnightblue" d="M2462.23,-642.823C2526.14,-636.641 2667.85,-621.758 2786,-601 2792.26,-599.9 2798.83,-598.591 2805.28,-597.217"/>
<polygon fill="midnightblue" stroke="midnightblue" points="2806.23,-600.59 2815.25,-595.023 2804.73,-593.754 2806.23,-600.59"/>
</g>
<!-- Node43 -->
<g id="node43" class="node"><title>Node43</title>
<g id="a_node43"><a xlink:href="fixed__size__vector_8h.html" target="_top" xlink:title="core/container/fixed\l_size_vector.h">
<polygon fill="white" stroke="red" points="1790.5,-503.5 1790.5,-533.5 1901.5,-533.5 1901.5,-503.5 1790.5,-503.5"/>
<text text-anchor="start" x="1798.5" y="-521.5" font-family="Helvetica,sans-Serif" font-size="10.00">core/container/fixed</text>
<text text-anchor="middle" x="1846" y="-510.5" font-family="Helvetica,sans-Serif" font-size="10.00">_size_vector.h</text>
</a>
</g>
</g>
<!-- Node39&#45;&gt;Node43 -->
<g id="edge98" class="edge"><title>Node39&#45;&gt;Node43</title>
<path fill="none" stroke="midnightblue" d="M2393.8,-644.258C2304.66,-639.433 2066.92,-624.668 1992,-601 1947.79,-587.034 1901.92,-558.771 1873.66,-539.488"/>
<polygon fill="midnightblue" stroke="midnightblue" points="1875.34,-536.395 1865.13,-533.572 1871.35,-542.147 1875.34,-536.395"/>
</g>
<!-- Node44 -->
<g id="node44" class="node"><title>Node44</title>
<g id="a_node44"><a xlink:href="inline__vector_8h.html" target="_top" xlink:title="core/container/inline\l_vector.h">
<polygon fill="white" stroke="black" points="2622.5,-369.5 2622.5,-399.5 2735.5,-399.5 2735.5,-369.5 2622.5,-369.5"/>
<text text-anchor="start" x="2630.5" y="-387.5" font-family="Helvetica,sans-Serif" font-size="10.00">core/container/inline</text>
<text text-anchor="middle" x="2679" y="-376.5" font-family="Helvetica,sans-Serif" font-size="10.00">_vector.h</text>
</a>
</g>
</g>
<!-- Node39&#45;&gt;Node44 -->
<g id="edge100" class="edge"><title>Node39&#45;&gt;Node44</title>
<path fill="none" stroke="midnightblue" d="M2462.2,-641.55C2508.39,-634.871 2587.35,-620.882 2608,-601 2663.02,-548.035 2629.44,-507.605 2656,-436 2659.32,-427.041 2663.52,-417.443 2667.42,-409.047"/>
<polygon fill="midnightblue" stroke="midnightblue" points="2670.66,-410.387 2671.79,-399.852 2664.34,-407.383 2670.66,-410.387"/>
</g>
<!-- Node45 -->
<g id="node45" class="node"><title>Node45</title>
<g id="a_node45"><a xlink:href="parallel__resize__vector_8h.html" target="_top" xlink:title="core/container/parallel\l_resize_vector.h">
<polygon fill="white" stroke="red" points="2944.5,-369.5 2944.5,-399.5 3067.5,-399.5 3067.5,-369.5 2944.5,-369.5"/>
<text text-anchor="start" x="2952.5" y="-387.5" font-family="Helvetica,sans-Serif" font-size="10.00">core/container/parallel</text>
<text text-anchor="middle" x="3006" y="-376.5" font-family="Helvetica,sans-Serif" font-size="10.00">_resize_vector.h</text>
</a>
</g>
</g>
<!-- Node39&#45;&gt;Node45 -->
<g id="edge110" class="edge"><title>Node39&#45;&gt;Node45</title>
<path fill="none" stroke="midnightblue" d="M2462.1,-644.763C2565.68,-640.738 2871.82,-626.76 2908,-601 2972.78,-554.876 2995.62,-455.369 3002.91,-409.523"/>
<polygon fill="midnightblue" stroke="midnightblue" points="3006.38,-409.99 3004.38,-399.586 2999.46,-408.968 3006.38,-409.99"/>
</g>
<!-- Node46 -->
<g id="node46" class="node"><title>Node46</title>
<g id="a_node46"><a xlink:href="sim__object__vector_8h.html" target="_top" xlink:title="core/container/sim\l_object_vector.h">
<polygon fill="white" stroke="black" points="2375,-570.5 2375,-600.5 2481,-600.5 2481,-570.5 2375,-570.5"/>
<text text-anchor="start" x="2383" y="-588.5" font-family="Helvetica,sans-Serif" font-size="10.00">core/container/sim</text>
<text text-anchor="middle" x="2428" y="-577.5" font-family="Helvetica,sans-Serif" font-size="10.00">_object_vector.h</text>
</a>
</g>
</g>
<!-- Node39&#45;&gt;Node46 -->
<g id="edge113" class="edge"><title>Node39&#45;&gt;Node46</title>
<path fill="none" stroke="midnightblue" d="M2428,-637.475C2428,-630.471 2428,-620.192 2428,-610.696"/>
<polygon fill="midnightblue" stroke="midnightblue" points="2431.5,-610.523 2428,-600.523 2424.5,-610.523 2431.5,-610.523"/>
</g>
<!-- Node39&#45;&gt;Node47 -->
<g id="edge160" class="edge"><title>Node39&#45;&gt;Node47</title>
<path fill="none" stroke="midnightblue" d="M2410.02,-637.487C2395.91,-629.878 2376.89,-617.4 2366,-601 2353.41,-582.034 2349.11,-555.755 2347.68,-538.219"/>
<polygon fill="midnightblue" stroke="midnightblue" points="2351.16,-537.901 2347.08,-528.123 2344.18,-538.31 2351.16,-537.901"/>
</g>
<!-- Node49 -->
<g id="node49" class="node"><title>Node49</title>
<g id="a_node49"><a xlink:href="core_2param_2param_8h.html" target="_top" xlink:title="core/param/param.h">
<polygon fill="white" stroke="red" points="1482,-375 1482,-394 1598,-394 1598,-375 1482,-375"/>
<text text-anchor="middle" x="1540" y="-382" font-family="Helvetica,sans-Serif" font-size="10.00">core/param/param.h</text>
</a>
</g>
</g>
<!-- Node39&#45;&gt;Node49 -->
<g id="edge159" class="edge"><title>Node39&#45;&gt;Node49</title>
<path fill="none" stroke="midnightblue" d="M2393.87,-644.539C2295.28,-640.069 2011.45,-625.385 1922,-601 1855.06,-582.752 1841.96,-567.136 1781,-534 1697.5,-488.612 1602.64,-427.062 1561.22,-399.664"/>
<polygon fill="midnightblue" stroke="midnightblue" points="1563.04,-396.668 1552.77,-394.055 1559.17,-402.501 1563.04,-396.668"/>
</g>
<!-- Node43&#45;&gt;Node4 -->
<g id="edge99" class="edge"><title>Node43&#45;&gt;Node4</title>
<path fill="none" stroke="midnightblue" d="M1851.83,-503.188C1866.25,-467.759 1903.6,-376 1919.57,-336.749"/>
<polygon fill="midnightblue" stroke="midnightblue" points="1922.87,-337.942 1923.39,-327.36 1916.38,-335.303 1922.87,-337.942"/>
</g>
<!-- Node44&#45;&gt;Node3 -->
<g id="edge101" class="edge"><title>Node44&#45;&gt;Node3</title>
<path fill="none" stroke="midnightblue" d="M2622.45,-375.595C2527.63,-362.341 2338.79,-335.944 2255.32,-324.276"/>
<polygon fill="midnightblue" stroke="midnightblue" points="2255.59,-320.78 2245.2,-322.862 2254.62,-327.713 2255.59,-320.78"/>
</g>
<!-- Node44&#45;&gt;Node4 -->
<g id="edge103" class="edge"><title>Node44&#45;&gt;Node4</title>
<path fill="none" stroke="midnightblue" d="M2622.48,-378.614C2475.59,-365.918 2084.85,-332.144 1963.48,-321.653"/>
<polygon fill="midnightblue" stroke="midnightblue" points="1963.51,-318.143 1953.24,-320.768 1962.91,-325.117 1963.51,-318.143"/>
</g>
<!-- Node44&#45;&gt;Node5 -->
<g id="edge104" class="edge"><title>Node44&#45;&gt;Node5</title>
<path fill="none" stroke="midnightblue" d="M2622.39,-382.063C2360.1,-375.34 1272.84,-346.748 1202,-333 1116.56,-316.419 1092.1,-311.642 1018,-266 959.569,-230.011 904.395,-168.997 879.644,-139.689"/>
<polygon fill="midnightblue" stroke="midnightblue" points="882.058,-137.119 872.969,-131.675 876.679,-141.599 882.058,-137.119"/>
</g>
<!-- Node44&#45;&gt;Node8 -->
<g id="edge105" class="edge"><title>Node44&#45;&gt;Node8</title>
<path fill="none" stroke="midnightblue" d="M2622.16,-382.009C2520.99,-379.36 2303,-373.671 2119,-369 1958.22,-364.919 829.496,-365.564 672,-333 669.093,-332.399 666.12,-331.575 663.19,-330.623"/>
<polygon fill="midnightblue" stroke="midnightblue" points="664.145,-327.244 653.552,-327.03 661.699,-333.803 664.145,-327.244"/>
</g>
<!-- Node44&#45;&gt;Node12 -->
<g id="edge106" class="edge"><title>Node44&#45;&gt;Node12</title>
<path fill="none" stroke="midnightblue" d="M2679,-369.188C2679,-333.986 2679,-243.172 2679,-203.508"/>
<polygon fill="midnightblue" stroke="midnightblue" points="2682.5,-203.36 2679,-193.36 2675.5,-203.36 2682.5,-203.36"/>
</g>
<!-- Node44&#45;&gt;Node17 -->
<g id="edge108" class="edge"><title>Node44&#45;&gt;Node17</title>
<path fill="none" stroke="midnightblue" d="M2687.78,-369.404C2710.27,-331.318 2764.56,-225.369 2711,-168 2670.38,-124.485 2259.3,-122.04 2110.45,-122.6"/>
<polygon fill="midnightblue" stroke="midnightblue" points="2110.18,-119.101 2100.19,-122.645 2110.21,-126.101 2110.18,-119.101"/>
</g>
<!-- Node44&#45;&gt;Node18 -->
<g id="edge107" class="edge"><title>Node44&#45;&gt;Node18</title>
<path fill="none" stroke="midnightblue" d="M2735.65,-374.293C2905.23,-346.725 3397.22,-266.694 3398,-266 3451.22,-218.89 3456.84,-126.024 3456.63,-86.0433"/>
<polygon fill="midnightblue" stroke="midnightblue" points="3460.13,-85.7768 3456.44,-75.8445 3453.13,-85.9086 3460.13,-85.7768"/>
</g>
<!-- Node44&#45;&gt;Node41 -->
<g id="edge102" class="edge"><title>Node44&#45;&gt;Node41</title>
<path fill="none" stroke="midnightblue" d="M2735.7,-379.81C2847.59,-372.186 3093.07,-353.669 3175,-333 3177.51,-332.367 3180.08,-331.585 3182.62,-330.716"/>
<polygon fill="midnightblue" stroke="midnightblue" points="3184.09,-333.902 3192.18,-327.057 3181.59,-327.365 3184.09,-333.902"/>
</g>
<!-- Node45&#45;&gt;Node12 -->
<g id="edge111" class="edge"><title>Node45&#45;&gt;Node12</title>
<path fill="none" stroke="midnightblue" d="M3000.59,-369.322C2987.49,-335.725 2953.43,-252.747 2930,-235 2896.15,-209.369 2773.06,-193.87 2712.75,-187.654"/>
<polygon fill="midnightblue" stroke="midnightblue" points="2712.9,-184.152 2702.6,-186.635 2712.2,-191.117 2712.9,-184.152"/>
</g>
<!-- Node45&#45;&gt;Node17 -->
<g id="edge112" class="edge"><title>Node45&#45;&gt;Node17</title>
<path fill="none" stroke="midnightblue" d="M3005.76,-369.488C3004.43,-339.727 2996.88,-270.075 2956,-235 2877.79,-167.886 2835.4,-186.425 2734,-168 2504.73,-126.341 2225.53,-122.195 2110.48,-122.461"/>
<polygon fill="midnightblue" stroke="midnightblue" points="2110.17,-118.962 2100.19,-122.498 2110.2,-125.962 2110.17,-118.962"/>
</g>
<!-- Node46&#45;&gt;Node12 -->
<g id="edge114" class="edge"><title>Node46&#45;&gt;Node12</title>
<path fill="none" stroke="midnightblue" d="M2481.2,-585.042C2566.3,-582.816 2732.39,-565.216 2820,-467 2890.82,-387.605 2838.44,-307.951 2761,-235 2744.93,-219.859 2723.61,-206.899 2706.74,-197.9"/>
<polygon fill="midnightblue" stroke="midnightblue" points="2707.89,-194.552 2697.4,-193.072 2704.67,-200.771 2707.89,-194.552"/>
</g>
<!-- Node46&#45;&gt;Node32 -->
<g id="edge158" class="edge"><title>Node46&#45;&gt;Node32</title>
<path fill="none" stroke="midnightblue" d="M2377.29,-570.46C2345.51,-561.18 2303.91,-548.149 2268,-534 2139.27,-483.277 2062.62,-515.87 1987,-400 1963.18,-363.508 2012.97,-334.547 1984,-302 1947.63,-261.143 1789.66,-252.866 1701.7,-251.487"/>
<polygon fill="midnightblue" stroke="midnightblue" points="1701.63,-247.986 1691.59,-251.354 1701.54,-254.985 1701.63,-247.986"/>
</g>
<!-- Node46&#45;&gt;Node47 -->
<g id="edge115" class="edge"><title>Node46&#45;&gt;Node47</title>
<path fill="none" stroke="midnightblue" d="M2410.42,-570.396C2397.29,-559.86 2379.37,-545.477 2365.93,-534.689"/>
<polygon fill="midnightblue" stroke="midnightblue" points="2367.82,-531.723 2357.83,-528.195 2363.44,-537.183 2367.82,-531.723"/>
</g>
<!-- Node47&#45;&gt;Node2 -->
<g id="edge149" class="edge"><title>Node47&#45;&gt;Node2</title>
<path fill="none" stroke="midnightblue" d="M2276.87,-515.034C2020.3,-505.984 1141.03,-474.728 1015,-467 980.518,-464.886 942.192,-461.712 910.577,-458.872"/>
<polygon fill="midnightblue" stroke="midnightblue" points="910.838,-455.382 900.562,-457.964 910.205,-462.353 910.838,-455.382"/>
</g>
<!-- Node47&#45;&gt;Node3 -->
<g id="edge118" class="edge"><title>Node47&#45;&gt;Node3</title>
<path fill="none" stroke="midnightblue" d="M2329.7,-508.843C2313.87,-500.156 2290.73,-485.437 2276,-467 2259.16,-445.925 2232.45,-372.151 2220.34,-337.172"/>
<polygon fill="midnightblue" stroke="midnightblue" points="2223.51,-335.617 2216.95,-327.294 2216.89,-337.888 2223.51,-335.617"/>
</g>
<!-- Node47&#45;&gt;Node5 -->
<g id="edge120" class="edge"><title>Node47&#45;&gt;Node5</title>
<path fill="none" stroke="midnightblue" d="M2276.99,-515.147C2190.69,-512.254 2039.55,-507.209 1910,-503 1784.23,-498.913 898.886,-501.966 778,-467 651.046,-430.279 516.692,-343.602 592,-235 648.514,-153.5 775.536,-131.229 834.643,-125.203"/>
<polygon fill="midnightblue" stroke="midnightblue" points="835.223,-128.665 844.857,-124.256 834.576,-121.694 835.223,-128.665"/>
</g>
<!-- Node47&#45;&gt;Node6 -->
<g id="edge121" class="edge"><title>Node47&#45;&gt;Node6</title>
<path fill="none" stroke="midnightblue" d="M2276.84,-514.113C2195.51,-506.333 2062.94,-481.104 1987,-400 1956.28,-367.188 1996.58,-330.713 1962,-302 1914.45,-262.526 1467.32,-279.434 1407,-266 1404,-265.332 1400.92,-264.457 1397.89,-263.467"/>
<polygon fill="midnightblue" stroke="midnightblue" points="1399.06,-260.172 1388.47,-260.029 1396.66,-266.747 1399.06,-260.172"/>
</g>
<!-- Node47&#45;&gt;Node7 -->
<g id="edge123" class="edge"><title>Node47&#45;&gt;Node7</title>
<path fill="none" stroke="midnightblue" d="M2276.89,-513.559C2179.75,-507.242 2009.88,-492.852 1954,-467 1886.96,-435.983 1828.38,-367.36 1803.59,-335.441"/>
<polygon fill="midnightblue" stroke="midnightblue" points="1806.11,-332.967 1797.26,-327.132 1800.54,-337.208 1806.11,-332.967"/>
</g>
<!-- Node47&#45;&gt;Node9 -->
<g id="edge124" class="edge"><title>Node47&#45;&gt;Node9</title>
<path fill="none" stroke="midnightblue" d="M2276.87,-513.415C2031.5,-498.767 1220.59,-447.236 1114,-400 1095.3,-391.715 1098.06,-378.591 1080,-369 1019.83,-337.047 991.028,-365.219 931,-333 845.516,-287.117 771,-281.52 771,-184.5 771,-184.5 771,-184.5 771,-121 771,-48.9975 874.459,-23.3614 928.688,-14.8695"/>
<polygon fill="midnightblue" stroke="midnightblue" points="929.442,-18.2967 938.833,-13.391 928.432,-11.3699 929.442,-18.2967"/>
</g>
<!-- Node47&#45;&gt;Node12 -->
<g id="edge126" class="edge"><title>Node47&#45;&gt;Node12</title>
<path fill="none" stroke="midnightblue" d="M2411.77,-508.916C2440.43,-502.003 2472.46,-489.524 2494,-467 2520.1,-439.712 2518,-423.26 2518,-385.5 2518,-385.5 2518,-385.5 2518,-316.5 2518,-251.035 2598.59,-212.13 2645.73,-194.971"/>
<polygon fill="midnightblue" stroke="midnightblue" points="2646.96,-198.249 2655.24,-191.638 2644.65,-191.642 2646.96,-198.249"/>
</g>
<!-- Node47&#45;&gt;Node14 -->
<g id="edge119" class="edge"><title>Node47&#45;&gt;Node14</title>
<path fill="none" stroke="midnightblue" d="M2417.15,-514.056C2455.47,-508.669 2501.24,-496.014 2532,-467 2569.02,-432.075 2578.64,-368.88 2581.13,-337.392"/>
<polygon fill="midnightblue" stroke="midnightblue" points="2584.65,-337.2 2581.78,-327.001 2577.66,-336.764 2584.65,-337.2"/>
</g>
<!-- Node47&#45;&gt;Node15 -->
<g id="edge122" class="edge"><title>Node47&#45;&gt;Node15</title>
<path fill="none" stroke="midnightblue" d="M2276.77,-515.353C2178.61,-511.208 2006.54,-499.427 1954,-467 1903.62,-435.906 1872.85,-368.877 1860.4,-336.598"/>
<polygon fill="midnightblue" stroke="midnightblue" points="1863.63,-335.248 1856.88,-327.085 1857.07,-337.679 1863.63,-335.248"/>
</g>
<!-- Node47&#45;&gt;Node16 -->
<g id="edge125" class="edge"><title>Node47&#45;&gt;Node16</title>
<path fill="none" stroke="midnightblue" d="M2349.57,-508.886C2358.19,-478.139 2383.34,-371.901 2342,-302 2329.76,-281.296 2305.5,-268.252 2285.71,-260.619"/>
<polygon fill="midnightblue" stroke="midnightblue" points="2286.73,-257.268 2276.14,-257.203 2284.38,-263.861 2286.73,-257.268"/>
</g>
<!-- Node47&#45;&gt;Node17 -->
<g id="edge155" class="edge"><title>Node47&#45;&gt;Node17</title>
<path fill="none" stroke="midnightblue" d="M2417.38,-515.465C2645.8,-508.102 3355.33,-478.99 3417,-400 3439.3,-371.445 3468.07,-361.087 3398,-235 3375.47,-194.461 3361.3,-184.617 3318,-168 3204.25,-124.348 2335.9,-122.581 2110.38,-122.867"/>
<polygon fill="midnightblue" stroke="midnightblue" points="2110.13,-119.367 2100.13,-122.882 2110.14,-126.367 2110.13,-119.367"/>
</g>
<!-- Node47&#45;&gt;Node24 -->
<g id="edge127" class="edge"><title>Node47&#45;&gt;Node24</title>
<path fill="none" stroke="midnightblue" d="M2346.36,-508.954C2343.37,-475.565 2327.56,-353.245 2254,-302 2192.74,-259.32 1657.33,-273.019 1583,-266 1570.97,-264.864 1558.22,-263.381 1545.86,-261.798"/>
<polygon fill="midnightblue" stroke="midnightblue" points="1545.98,-258.283 1535.61,-260.449 1545.07,-265.223 1545.98,-258.283"/>
</g>
<!-- Node47&#45;&gt;Node25 -->
<g id="edge153" class="edge"><title>Node47&#45;&gt;Node25</title>
<path fill="none" stroke="midnightblue" d="M2359.42,-508.852C2385.17,-489.795 2442,-441.405 2442,-385.5 2442,-385.5 2442,-385.5 2442,-316.5 2442,-237.881 2360.85,-255.68 2285,-235 2140.72,-195.663 1762.33,-207.025 1613,-199 1542.8,-195.228 1462.3,-190.886 1407.79,-187.945"/>
<polygon fill="midnightblue" stroke="midnightblue" points="1407.76,-184.438 1397.59,-187.394 1407.39,-191.428 1407.76,-184.438"/>
</g>
<!-- Node47&#45;&gt;Node29 -->
<g id="edge156" class="edge"><title>Node47&#45;&gt;Node29</title>
<path fill="none" stroke="midnightblue" d="M2417.16,-517.359C2607.79,-515.628 3129.81,-501.507 3262,-400 3304.16,-367.628 3320.52,-302.762 3326.25,-270.552"/>
<polygon fill="midnightblue" stroke="midnightblue" points="3329.77,-270.713 3327.9,-260.283 3322.86,-269.599 3329.77,-270.713"/>
</g>
<!-- Node47&#45;&gt;Node30 -->
<g id="edge116" class="edge"><title>Node47&#45;&gt;Node30</title>
<path fill="none" stroke="midnightblue" d="M2417.29,-517.534C2618.19,-517.079 3192.1,-511.783 3374,-467 3457.7,-446.392 3550,-471.702 3550,-385.5 3550,-385.5 3550,-385.5 3550,-316.5 3550,-276.158 3550,-228.88 3550,-203.282"/>
<polygon fill="midnightblue" stroke="midnightblue" points="3553.5,-203.149 3550,-193.149 3546.5,-203.149 3553.5,-203.149"/>
</g>
<!-- Node47&#45;&gt;Node31 -->
<g id="edge117" class="edge"><title>Node47&#45;&gt;Node31</title>
<path fill="none" stroke="midnightblue" d="M2417.34,-511.72C2509.92,-503.716 2677.62,-487.855 2820,-467 2900.3,-455.239 3108.27,-439.794 3179,-400 3213.84,-380.4 3221.05,-368.714 3239,-333 3258.97,-293.283 3245.26,-277.275 3259,-235 3262.63,-223.831 3268.02,-211.848 3272.67,-202.359"/>
<polygon fill="midnightblue" stroke="midnightblue" points="3275.91,-203.7 3277.3,-193.197 3269.67,-200.54 3275.91,-203.7"/>
</g>
<!-- Node47&#45;&gt;Node32 -->
<g id="edge154" class="edge"><title>Node47&#45;&gt;Node32</title>
<path fill="none" stroke="midnightblue" d="M2348.48,-508.768C2353.55,-475.724 2366.54,-357.405 2304,-302 2259.49,-262.563 1856.49,-253.891 1701.95,-252.011"/>
<polygon fill="midnightblue" stroke="midnightblue" points="1701.74,-248.509 1691.7,-251.892 1701.65,-255.508 1701.74,-248.509"/>
</g>
<!-- Node47&#45;&gt;Node38 -->
<g id="edge157" class="edge"><title>Node47&#45;&gt;Node38</title>
<path fill="none" stroke="midnightblue" d="M2277,-515.023C2190.7,-512.005 2039.56,-506.834 1910,-503 1756.24,-498.449 674.827,-505.911 526,-467 422.199,-439.861 314.934,-365.281 272.219,-333.338"/>
<polygon fill="midnightblue" stroke="midnightblue" points="274.195,-330.444 264.109,-327.201 269.971,-336.026 274.195,-330.444"/>
</g>
<!-- Node48 -->
<g id="node48" class="node"><title>Node48</title>
<g id="a_node48"><a xlink:href="diffusion__grid_8h.html" target="_top" xlink:title="core/diffusion_grid.h">
<polygon fill="white" stroke="red" points="2698.5,-442 2698.5,-461 2811.5,-461 2811.5,-442 2698.5,-442"/>
<text text-anchor="middle" x="2755" y="-449" font-family="Helvetica,sans-Serif" font-size="10.00">core/diffusion_grid.h</text>
</a>
</g>
</g>
<!-- Node47&#45;&gt;Node48 -->
<g id="edge128" class="edge"><title>Node47&#45;&gt;Node48</title>
<path fill="none" stroke="midnightblue" d="M2400.76,-508.936C2475.77,-496.985 2611.61,-475.344 2691.51,-462.615"/>
<polygon fill="midnightblue" stroke="midnightblue" points="2692.12,-466.062 2701.45,-461.032 2691.02,-459.149 2692.12,-466.062"/>
</g>
<!-- Node50 -->
<g id="node50" class="node"><title>Node50</title>
<g id="a_node50"><a xlink:href="so__handle_8h.html" target="_top" xlink:title="core/sim_object/so\l_handle.h">
<polygon fill="white" stroke="black" points="1622.5,-168.5 1622.5,-198.5 1729.5,-198.5 1729.5,-168.5 1622.5,-168.5"/>
<text text-anchor="start" x="1630.5" y="-186.5" font-family="Helvetica,sans-Serif" font-size="10.00">core/sim_object/so</text>
<text text-anchor="middle" x="1676" y="-175.5" font-family="Helvetica,sans-Serif" font-size="10.00">_handle.h</text>
</a>
</g>
</g>
<!-- Node47&#45;&gt;Node50 -->
<g id="edge150" class="edge"><title>Node47&#45;&gt;Node50</title>
<path fill="none" stroke="midnightblue" d="M2383.66,-508.935C2407.43,-501.579 2437.34,-488.637 2456,-467 2480.66,-438.405 2480,-423.26 2480,-385.5 2480,-385.5 2480,-385.5 2480,-316.5 2480,-278.74 2485.49,-258.582 2456,-235 2400.63,-190.727 1915.96,-185.083 1739.72,-184.504"/>
<polygon fill="midnightblue" stroke="midnightblue" points="1739.57,-181.004 1729.56,-184.475 1739.55,-188.004 1739.57,-181.004"/>
</g>
<!-- Node48&#45;&gt;Node3 -->
<g id="edge130" class="edge"><title>Node48&#45;&gt;Node3</title>
<path fill="none" stroke="midnightblue" d="M2719.92,-441.941C2624.05,-418.55 2357.98,-353.63 2255.23,-328.559"/>
<polygon fill="midnightblue" stroke="midnightblue" points="2255.78,-325.091 2245.23,-326.121 2254.12,-331.891 2255.78,-325.091"/>
</g>
<!-- Node48&#45;&gt;Node9 -->
<g id="edge135" class="edge"><title>Node48&#45;&gt;Node9</title>
<path fill="none" stroke="midnightblue" d="M2788.1,-441.943C2797.11,-439.803 2806.9,-437.65 2816,-436 2879.03,-424.576 3056.36,-444.948 3102,-400 3149.49,-353.228 3123,-318.157 3123,-251.5 3123,-251.5 3123,-251.5 3123,-121 3123,-9.44416 1262.84,-10.1976 993.381,-10.8919"/>
<polygon fill="midnightblue" stroke="midnightblue" points="993.093,-7.39262 983.102,-10.9205 993.112,-14.3926 993.093,-7.39262"/>
</g>
<!-- Node48&#45;&gt;Node12 -->
<g id="edge136" class="edge"><title>Node48&#45;&gt;Node12</title>
<path fill="none" stroke="midnightblue" d="M2772.04,-441.962C2786.74,-433.542 2806.99,-419.159 2816,-400 2821.86,-387.532 2819.51,-382.322 2816,-369 2796.57,-295.344 2729.91,-228.925 2697.28,-199.921"/>
<polygon fill="midnightblue" stroke="midnightblue" points="2699.25,-196.992 2689.41,-193.064 2694.65,-202.271 2699.25,-196.992"/>
</g>
<!-- Node48&#45;&gt;Node13 -->
<g id="edge138" class="edge"><title>Node48&#45;&gt;Node13</title>
<path fill="none" stroke="midnightblue" d="M2698.44,-445.263C2570.32,-433.4 2258.37,-404.516 2120.47,-391.747"/>
<polygon fill="midnightblue" stroke="midnightblue" points="2120.73,-388.256 2110.45,-390.819 2120.08,-395.226 2120.73,-388.256"/>
</g>
<!-- Node48&#45;&gt;Node14 -->
<g id="edge132" class="edge"><title>Node48&#45;&gt;Node14</title>
<path fill="none" stroke="midnightblue" d="M2756.6,-441.692C2759.03,-425.315 2761.69,-389.942 2744,-369 2712.34,-331.515 2653.3,-321.43 2615.91,-318.959"/>
<polygon fill="midnightblue" stroke="midnightblue" points="2615.68,-315.443 2605.52,-318.43 2615.33,-322.434 2615.68,-315.443"/>
</g>
<!-- Node48&#45;&gt;Node17 -->
<g id="edge137" class="edge"><title>Node48&#45;&gt;Node17</title>
<path fill="none" stroke="midnightblue" d="M2794.73,-441.96C2804.9,-439.891 2815.84,-437.768 2826,-436 2881.3,-426.38 3039.25,-442.423 3076,-400 3125.69,-342.643 3112.59,-342.139 2983,-235 2926.41,-188.217 2903.35,-185.296 2832,-168 2694.68,-134.714 2262.38,-125.766 2110.44,-123.617"/>
<polygon fill="midnightblue" stroke="midnightblue" points="2110.47,-120.117 2100.42,-123.48 2110.37,-127.117 2110.47,-120.117"/>
</g>
<!-- Node48&#45;&gt;Node18 -->
<g id="edge148" class="edge"><title>Node48&#45;&gt;Node18</title>
<path fill="none" stroke="midnightblue" d="M2811.65,-450.502C2894.34,-449.011 3052.05,-440.479 3179,-400 3238.31,-381.089 3381.63,-310.655 3425,-266 3468.77,-220.933 3464.89,-194.616 3470,-132 3470.72,-123.141 3471.34,-120.788 3470,-112 3468.63,-103.001 3465.81,-93.3251 3463.05,-85.2601"/>
<polygon fill="midnightblue" stroke="midnightblue" points="3466.31,-83.9759 3459.6,-75.7782 3459.73,-86.3722 3466.31,-83.9759"/>
</g>
<!-- Node48&#45;&gt;Node19 -->
<g id="edge134" class="edge"><title>Node48&#45;&gt;Node19</title>
<path fill="none" stroke="midnightblue" d="M2811.72,-448.596C2901.61,-444.663 3081.91,-433.032 3231,-400 3255.83,-394.499 3664,-276.931 3664,-251.5 3664,-251.5 3664,-251.5 3664,-121 3664,-88.948 3664,-51.6426 3664,-29.7489"/>
<polygon fill="midnightblue" stroke="midnightblue" points="3667.5,-29.5577 3664,-19.5578 3660.5,-29.5578 3667.5,-29.5577"/>
</g>
<!-- Node48&#45;&gt;Node23 -->
<g id="edge133" class="edge"><title>Node48&#45;&gt;Node23</title>
<path fill="none" stroke="midnightblue" d="M2698.2,-449.849C2421.98,-446.539 1229.32,-430.521 1157,-400 1137.24,-391.659 1026.39,-285.744 1018,-266 1012.61,-253.32 1009.72,-246.01 1018,-235 1033.99,-213.738 1104.57,-198.609 1151.07,-190.736"/>
<polygon fill="midnightblue" stroke="midnightblue" points="1151.87,-194.151 1161.17,-189.075 1150.73,-187.244 1151.87,-194.151"/>
</g>
<!-- Node48&#45;&gt;Node40 -->
<g id="edge129" class="edge"><title>Node48&#45;&gt;Node40</title>
<path fill="none" stroke="midnightblue" d="M2811.67,-446.878C2910.93,-440.173 3122.53,-424.259 3300,-400 3313.68,-398.13 3328.59,-395.571 3341.79,-393.123"/>
<polygon fill="midnightblue" stroke="midnightblue" points="3342.78,-396.498 3351.96,-391.199 3341.48,-389.62 3342.78,-396.498"/>
</g>
<!-- Node48&#45;&gt;Node41 -->
<g id="edge131" class="edge"><title>Node48&#45;&gt;Node41</title>
<path fill="none" stroke="midnightblue" d="M2793.58,-441.964C2804.06,-439.824 2815.44,-437.666 2826,-436 2897.12,-424.785 3085.37,-435.52 3148,-400 3173.56,-385.503 3191.96,-355.75 3201.79,-336.485"/>
<polygon fill="midnightblue" stroke="midnightblue" points="3205.05,-337.79 3206.25,-327.264 3198.75,-334.741 3205.05,-337.79"/>
</g>
<!-- Node48&#45;&gt;Node45 -->
<g id="edge139" class="edge"><title>Node48&#45;&gt;Node45</title>
<path fill="none" stroke="midnightblue" d="M2788.07,-441.936C2827.05,-431.841 2892.73,-414.833 2941.82,-402.122"/>
<polygon fill="midnightblue" stroke="midnightblue" points="2942.91,-405.454 2951.71,-399.559 2941.15,-398.678 2942.91,-405.454"/>
</g>
<!-- Node48&#45;&gt;Node49 -->
<g id="edge140" class="edge"><title>Node48&#45;&gt;Node49</title>
<path fill="none" stroke="midnightblue" d="M2698.43,-447.474C2498.52,-436.779 1825.68,-400.783 1608.33,-389.155"/>
<polygon fill="midnightblue" stroke="midnightblue" points="1608.5,-385.66 1598.33,-388.62 1608.12,-392.65 1608.5,-385.66"/>
</g>
<!-- Node49&#45;&gt;Node6 -->
<g id="edge141" class="edge"><title>Node49&#45;&gt;Node6</title>
<path fill="none" stroke="midnightblue" d="M1528.85,-374.839C1500.38,-352.737 1424.79,-294.04 1389.13,-266.351"/>
<polygon fill="midnightblue" stroke="midnightblue" points="1391.02,-263.39 1380.97,-260.021 1386.73,-268.919 1391.02,-263.39"/>
</g>
<!-- Node49&#45;&gt;Node7 -->
<g id="edge142" class="edge"><title>Node49&#45;&gt;Node7</title>
<path fill="none" stroke="midnightblue" d="M1573.07,-374.936C1623.71,-361.823 1719.39,-337.046 1765.23,-325.172"/>
<polygon fill="midnightblue" stroke="midnightblue" points="1766.19,-328.539 1775,-322.644 1764.44,-321.763 1766.19,-328.539"/>
</g>
<!-- Node49&#45;&gt;Node9 -->
<g id="edge143" class="edge"><title>Node49&#45;&gt;Node9</title>
<path fill="none" stroke="midnightblue" d="M1481.89,-378.4C1413.98,-371.62 1298.61,-357.541 1202,-333 1117.65,-311.573 1087.03,-319.005 1018,-266 982.941,-239.079 961,-228.702 961,-184.5 961,-184.5 961,-184.5 961,-121 961,-88.948 961,-51.6426 961,-29.7489"/>
<polygon fill="midnightblue" stroke="midnightblue" points="964.5,-29.5577 961,-19.5578 957.5,-29.5578 964.5,-29.5577"/>
</g>
<!-- Node49&#45;&gt;Node11 -->
<g id="edge144" class="edge"><title>Node49&#45;&gt;Node11</title>
<path fill="none" stroke="midnightblue" d="M1481.93,-378.851C1331.99,-366.849 933.231,-334.929 784.755,-323.043"/>
<polygon fill="midnightblue" stroke="midnightblue" points="784.752,-319.532 774.504,-322.223 784.193,-326.51 784.752,-319.532"/>
</g>
<!-- Node49&#45;&gt;Node12 -->
<g id="edge145" class="edge"><title>Node49&#45;&gt;Node12</title>
<path fill="none" stroke="midnightblue" d="M1571.41,-374.924C1601.38,-366.198 1647.39,-351.365 1685,-333 1707.82,-321.856 1709.43,-311.463 1733,-302 1904.37,-233.191 2495.85,-195.057 2644.76,-186.407"/>
<polygon fill="midnightblue" stroke="midnightblue" points="2645.31,-189.881 2655.1,-185.813 2644.91,-182.893 2645.31,-189.881"/>
</g>
<!-- Node49&#45;&gt;Node17 -->
<g id="edge146" class="edge"><title>Node49&#45;&gt;Node17</title>
<path fill="none" stroke="midnightblue" d="M1554.1,-374.822C1579.68,-359.255 1635.65,-325.974 1685,-302 1722.64,-283.715 1733.94,-283.395 1772,-266 1869.47,-221.451 1982.51,-162.502 2031.83,-136.408"/>
<polygon fill="midnightblue" stroke="midnightblue" points="2033.62,-139.418 2040.82,-131.642 2030.34,-133.234 2033.62,-139.418"/>
</g>
<!-- Node49&#45;&gt;Node38 -->
<g id="edge147" class="edge"><title>Node49&#45;&gt;Node38</title>
<path fill="none" stroke="midnightblue" d="M1481.86,-380.114C1429.57,-377.097 1350.66,-372.614 1282,-369 909.225,-349.378 460.351,-328.186 307.217,-321.025"/>
<polygon fill="midnightblue" stroke="midnightblue" points="307.287,-317.524 297.134,-320.554 306.96,-324.517 307.287,-317.524"/>
</g>
<!-- Node50&#45;&gt;Node5 -->
<g id="edge151" class="edge"><title>Node50&#45;&gt;Node5</title>
<path fill="none" stroke="midnightblue" d="M1622.23,-178.55C1466.68,-167.124 1019.57,-134.281 897.256,-125.296"/>
<polygon fill="midnightblue" stroke="midnightblue" points="897.315,-121.791 887.086,-124.549 896.802,-128.772 897.315,-121.791"/>
</g>
<!-- Node50&#45;&gt;Node17 -->
<g id="edge152" class="edge"><title>Node50&#45;&gt;Node17</title>
<path fill="none" stroke="midnightblue" d="M1729.76,-170.688C1734.56,-169.737 1739.37,-168.826 1744,-168 1834.87,-151.798 1941.4,-137.466 2003.81,-129.538"/>
<polygon fill="midnightblue" stroke="midnightblue" points="2004.34,-133 2013.82,-128.274 2003.46,-126.055 2004.34,-133"/>
</g>
</g>
</svg>
