<?xml version="1.0" encoding="UTF-8" standalone="no"?>
<!DOCTYPE svg PUBLIC "-//W3C//DTD SVG 1.1//EN"
 "http://www.w3.org/Graphics/SVG/1.1/DTD/svg11.dtd">
<!-- Generated by graphviz version 2.38.0 (20140413.2041)
 -->
<!-- Title: core/simulation.cc Pages: 1 -->
<svg width="3633pt" height="699pt"
 viewBox="0.00 0.00 3632.50 699.00" xmlns="http://www.w3.org/2000/svg" xmlns:xlink="http://www.w3.org/1999/xlink">
<g id="graph0" class="graph" transform="scale(1 1) rotate(0) translate(4 695)">
<title>core/simulation.cc</title>
<polygon fill="white" stroke="none" points="-4,4 -4,-695 3628.5,-695 3628.5,4 -4,4"/>
<!-- Node1 -->
<g id="node1" class="node"><title>Node1</title>
<polygon fill="#bfbfbf" stroke="black" points="1172,-671.5 1172,-690.5 1276,-690.5 1276,-671.5 1172,-671.5"/>
<text text-anchor="middle" x="1224" y="-678.5" font-family="Helvetica,sans-Serif" font-size="10.00">core/simulation.cc</text>
</g>
<!-- Node2 -->
<g id="node2" class="node"><title>Node2</title>
<g id="a_node2"><a xlink:href="simulation_8h.html" target="_top" xlink:title="core/simulation.h">
<polygon fill="white" stroke="black" points="1705.5,-364 1705.5,-383 1804.5,-383 1804.5,-364 1705.5,-364"/>
<text text-anchor="middle" x="1755" y="-371" font-family="Helvetica,sans-Serif" font-size="10.00">core/simulation.h</text>
</a>
</g>
</g>
<!-- Node1&#45;&gt;Node2 -->
<g id="edge1" class="edge"><title>Node1&#45;&gt;Node2</title>
<path fill="none" stroke="midnightblue" d="M1276.3,-676.457C1350.58,-670.705 1482.28,-657.636 1524,-635 1634.61,-574.986 1718.09,-440.297 1745.41,-392.083"/>
<polygon fill="midnightblue" stroke="midnightblue" points="1748.57,-393.605 1750.38,-383.166 1742.46,-390.198 1748.57,-393.605"/>
</g>
<!-- Node4 -->
<g id="node4" class="node"><title>Node4</title>
<polygon fill="white" stroke="#bfbfbf" points="899,-0.5 899,-19.5 943,-19.5 943,-0.5 899,-0.5"/>
<text text-anchor="middle" x="921" y="-7.5" font-family="Helvetica,sans-Serif" font-size="10.00">string</text>
</g>
<!-- Node1&#45;&gt;Node4 -->
<g id="edge40" class="edge"><title>Node1&#45;&gt;Node4</title>
<path fill="none" stroke="midnightblue" d="M1171.86,-679.077C977.192,-675.442 299.239,-661.022 206,-635 143.068,-617.436 77,-629.837 77,-564.5 77,-564.5 77,-564.5 77,-439.5 77,-202.968 221.704,-131.091 446,-56 528.547,-28.3647 795.727,-15.7745 888.728,-12.1529"/>
<polygon fill="midnightblue" stroke="midnightblue" points="889.073,-15.6423 898.933,-11.7645 888.807,-8.64741 889.073,-15.6423"/>
</g>
<!-- Node5 -->
<g id="node5" class="node"><title>Node5</title>
<polygon fill="white" stroke="#bfbfbf" points="1565.5,-168.5 1565.5,-187.5 1612.5,-187.5 1612.5,-168.5 1565.5,-168.5"/>
<text text-anchor="middle" x="1589" y="-175.5" font-family="Helvetica,sans-Serif" font-size="10.00">vector</text>
</g>
<!-- Node1&#45;&gt;Node5 -->
<g id="edge41" class="edge"><title>Node1&#45;&gt;Node5</title>
<path fill="none" stroke="midnightblue" d="M1225.65,-671.219C1236.06,-618.604 1297.63,-343.385 1467,-224 1493.88,-205.054 1529.67,-193.1 1555.53,-186.314"/>
<polygon fill="midnightblue" stroke="midnightblue" points="1556.4,-189.703 1565.25,-183.881 1554.7,-182.912 1556.4,-189.703"/>
</g>
<!-- Node7 -->
<g id="node7" class="node"><title>Node7</title>
<g id="a_node7"><a xlink:href="log_8h.html" target="_top" xlink:title="core/util/log.h">
<polygon fill="white" stroke="red" points="732.5,-112.5 732.5,-131.5 813.5,-131.5 813.5,-112.5 732.5,-112.5"/>
<text text-anchor="middle" x="773" y="-119.5" font-family="Helvetica,sans-Serif" font-size="10.00">core/util/log.h</text>
</a>
</g>
</g>
<!-- Node1&#45;&gt;Node7 -->
<g id="edge153" class="edge"><title>Node1&#45;&gt;Node7</title>
<path fill="none" stroke="midnightblue" d="M1171.78,-678.759C1018.71,-674.83 578.091,-661.339 519,-635 478.094,-616.766 447,-609.286 447,-564.5 447,-564.5 447,-564.5 447,-501 447,-350.537 400.919,-273.701 508,-168 537.536,-138.845 653.957,-128.48 722.269,-124.869"/>
<polygon fill="midnightblue" stroke="midnightblue" points="722.577,-128.358 732.391,-124.365 722.229,-121.367 722.577,-128.358"/>
</g>
<!-- Node8 -->
<g id="node8" class="node"><title>Node8</title>
<polygon fill="white" stroke="#bfbfbf" points="532.5,-56.5 532.5,-75.5 579.5,-75.5 579.5,-56.5 532.5,-56.5"/>
<text text-anchor="middle" x="556" y="-63.5" font-family="Helvetica,sans-Serif" font-size="10.00">cstdlib</text>
</g>
<!-- Node1&#45;&gt;Node8 -->
<g id="edge38" class="edge"><title>Node1&#45;&gt;Node8</title>
<path fill="none" stroke="midnightblue" d="M1172,-680.116C952.745,-679.93 115,-672.177 115,-564.5 115,-564.5 115,-564.5 115,-439.5 115,-345.46 299.23,-154.732 383,-112 428.291,-88.897 486.464,-76.9344 522.483,-71.3151"/>
<polygon fill="midnightblue" stroke="midnightblue" points="523.091,-74.7632 532.468,-69.8318 522.062,-67.8392 523.091,-74.7632"/>
</g>
<!-- Node10 -->
<g id="node10" class="node"><title>Node10</title>
<g id="a_node10"><a xlink:href="string_8h.html" target="_top" xlink:title="core/util/string.h">
<polygon fill="white" stroke="black" points="66,-56.5 66,-75.5 160,-75.5 160,-56.5 66,-56.5"/>
<text text-anchor="middle" x="113" y="-63.5" font-family="Helvetica,sans-Serif" font-size="10.00">core/util/string.h</text>
</a>
</g>
</g>
<!-- Node1&#45;&gt;Node10 -->
<g id="edge154" class="edge"><title>Node1&#45;&gt;Node10</title>
<path fill="none" stroke="midnightblue" d="M1171.87,-679.613C951.797,-677.77 107.975,-668.536 63,-635 36.4653,-615.215 39,-597.599 39,-564.5 39,-564.5 39,-564.5 39,-177 39,-137.61 72.0703,-101.726 93.9957,-82.264"/>
<polygon fill="midnightblue" stroke="midnightblue" points="96.4273,-84.7902 101.761,-75.6358 91.8827,-79.466 96.4273,-84.7902"/>
</g>
<!-- Node11 -->
<g id="node11" class="node"><title>Node11</title>
<polygon fill="white" stroke="#bfbfbf" points="47,-0.5 47,-19.5 103,-19.5 103,-0.5 47,-0.5"/>
<text text-anchor="middle" x="75" y="-7.5" font-family="Helvetica,sans-Serif" font-size="10.00">sstream</text>
</g>
<!-- Node1&#45;&gt;Node11 -->
<g id="edge39" class="edge"><title>Node1&#45;&gt;Node11</title>
<path fill="none" stroke="midnightblue" d="M1171.85,-679.397C949.669,-676.652 91.1666,-664.191 42,-635 10.6387,-616.38 0,-600.972 0,-564.5 0,-564.5 0,-564.5 0,-121 0,-81.4439 33.5172,-45.6159 55.7389,-26.2091"/>
<polygon fill="midnightblue" stroke="midnightblue" points="58.2008,-28.7122 63.6091,-19.6017 53.6999,-23.351 58.2008,-28.7122"/>
</g>
<!-- Node15 -->
<g id="node15" class="node"><title>Node15</title>
<g id="a_node15"><a xlink:href="thread__info_8h.html" target="_top" xlink:title="core/util/thread_info.h">
<polygon fill="white" stroke="red" points="633.5,-230 633.5,-249 754.5,-249 754.5,-230 633.5,-230"/>
<text text-anchor="middle" x="694" y="-237" font-family="Helvetica,sans-Serif" font-size="10.00">core/util/thread_info.h</text>
</a>
</g>
</g>
<!-- Node1&#45;&gt;Node15 -->
<g id="edge155" class="edge"><title>Node1&#45;&gt;Node15</title>
<path fill="none" stroke="midnightblue" d="M1171.7,-680.317C1034.24,-679.87 668.686,-669.993 601,-579 523.461,-474.761 639.537,-309.414 680.549,-257.003"/>
<polygon fill="midnightblue" stroke="midnightblue" points="683.371,-259.077 686.861,-249.074 677.895,-254.717 683.371,-259.077"/>
</g>
<!-- Node16 -->
<g id="node16" class="node"><title>Node16</title>
<polygon fill="white" stroke="#bfbfbf" points="524.5,-168.5 524.5,-187.5 571.5,-187.5 571.5,-168.5 524.5,-168.5"/>
<text text-anchor="middle" x="548" y="-175.5" font-family="Helvetica,sans-Serif" font-size="10.00">omp.h</text>
</g>
<!-- Node1&#45;&gt;Node16 -->
<g id="edge35" class="edge"><title>Node1&#45;&gt;Node16</title>
<path fill="none" stroke="midnightblue" d="M1171.58,-678.181C1049.1,-673.562 747.138,-659.943 649,-635 574.474,-616.058 491,-641.396 491,-564.5 491,-564.5 491,-564.5 491,-439.5 491,-342.166 501.201,-316.975 530,-224 532.801,-214.958 536.616,-205.172 540.013,-197.043"/>
<polygon fill="midnightblue" stroke="midnightblue" points="543.248,-198.382 543.985,-187.813 536.818,-195.615 543.248,-198.382"/>
</g>
<!-- Node23 -->
<g id="node23" class="node"><title>Node23</title>
<polygon fill="white" stroke="#bfbfbf" points="3146,-168.5 3146,-187.5 3208,-187.5 3208,-168.5 3146,-168.5"/>
<text text-anchor="middle" x="3177" y="-175.5" font-family="Helvetica,sans-Serif" font-size="10.00">algorithm</text>
</g>
<!-- Node1&#45;&gt;Node23 -->
<g id="edge36" class="edge"><title>Node1&#45;&gt;Node23</title>
<path fill="none" stroke="midnightblue" d="M1276.04,-680.047C1538.2,-680.086 2715.88,-677.831 3079,-635 3210.73,-619.462 3369,-697.143 3369,-564.5 3369,-564.5 3369,-564.5 3369,-501 3369,-436.997 3379.62,-415.736 3352,-358 3316.23,-283.232 3236.64,-220.523 3198.36,-193.4"/>
<polygon fill="midnightblue" stroke="midnightblue" points="3200.2,-190.418 3190,-187.575 3196.2,-196.162 3200.2,-190.418"/>
</g>
<!-- Node24 -->
<g id="node24" class="node"><title>Node24</title>
<polygon fill="white" stroke="#bfbfbf" points="3064.5,-168.5 3064.5,-187.5 3111.5,-187.5 3111.5,-168.5 3064.5,-168.5"/>
<text text-anchor="middle" x="3088" y="-175.5" font-family="Helvetica,sans-Serif" font-size="10.00">cmath</text>
</g>
<!-- Node1&#45;&gt;Node24 -->
<g id="edge37" class="edge"><title>Node1&#45;&gt;Node24</title>
<path fill="none" stroke="midnightblue" d="M1276.08,-679.946C1600.54,-679.279 3331,-670.741 3331,-564.5 3331,-564.5 3331,-564.5 3331,-501 3331,-355.112 3170.11,-233.444 3110.16,-193.174"/>
<polygon fill="midnightblue" stroke="midnightblue" points="3112.03,-190.216 3101.76,-187.623 3108.17,-196.056 3112.03,-190.216"/>
</g>
<!-- Node26 -->
<g id="node26" class="node"><title>Node26</title>
<polygon fill="white" stroke="#bfbfbf" points="709.5,-297 709.5,-316 816.5,-316 816.5,-297 709.5,-297"/>
<text text-anchor="middle" x="763" y="-304" font-family="Helvetica,sans-Serif" font-size="10.00">cpptoml/cpptoml.h</text>
</g>
<!-- Node1&#45;&gt;Node26 -->
<g id="edge34" class="edge"><title>Node1&#45;&gt;Node26</title>
<path fill="none" stroke="midnightblue" d="M1171.82,-679.859C1015.66,-679.008 553.897,-673.235 409,-635 340.871,-617.022 267,-634.961 267,-564.5 267,-564.5 267,-564.5 267,-439.5 267,-402.306 258.127,-382.626 286,-358 316.389,-331.152 576.658,-315.925 699.414,-310.177"/>
<polygon fill="midnightblue" stroke="midnightblue" points="699.604,-313.672 709.432,-309.715 699.282,-306.679 699.604,-313.672"/>
</g>
<!-- Node27 -->
<g id="node27" class="node"><title>Node27</title>
<g id="a_node27"><a xlink:href="in__place__exec__ctxt_8h.html" target="_top" xlink:title="core/execution_context\l/in_place_exec_ctxt.h">
<polygon fill="white" stroke="black" points="1382,-425.5 1382,-455.5 1510,-455.5 1510,-425.5 1382,-425.5"/>
<text text-anchor="start" x="1390" y="-443.5" font-family="Helvetica,sans-Serif" font-size="10.00">core/execution_context</text>
<text text-anchor="middle" x="1446" y="-432.5" font-family="Helvetica,sans-Serif" font-size="10.00">/in_place_exec_ctxt.h</text>
</a>
</g>
</g>
<!-- Node1&#45;&gt;Node27 -->
<g id="edge42" class="edge"><title>Node1&#45;&gt;Node27</title>
<path fill="none" stroke="midnightblue" d="M1232.16,-671.229C1263.8,-637.246 1378.84,-513.647 1425.82,-463.183"/>
<polygon fill="midnightblue" stroke="midnightblue" points="1428.5,-465.441 1432.75,-455.737 1423.37,-460.672 1428.5,-465.441"/>
</g>
<!-- Node32 -->
<g id="node32" class="node"><title>Node32</title>
<g id="a_node32"><a xlink:href="gpu__helper_8h.html" target="_top" xlink:title="core/gpu/gpu_helper.h">
<polygon fill="white" stroke="black" points="295.5,-431 295.5,-450 418.5,-450 418.5,-431 295.5,-431"/>
<text text-anchor="middle" x="357" y="-438" font-family="Helvetica,sans-Serif" font-size="10.00">core/gpu/gpu_helper.h</text>
</a>
</g>
</g>
<!-- Node1&#45;&gt;Node32 -->
<g id="edge60" class="edge"><title>Node1&#45;&gt;Node32</title>
<path fill="none" stroke="midnightblue" d="M1171.93,-680.249C1005.3,-680.606 492.605,-678.157 433,-635 375.138,-593.105 361.318,-500.325 358.026,-460.387"/>
<polygon fill="midnightblue" stroke="midnightblue" points="361.517,-460.142 357.337,-450.406 354.534,-460.623 361.517,-460.142"/>
</g>
<!-- Node34 -->
<g id="node34" class="node"><title>Node34</title>
<g id="a_node34"><a xlink:href="core_2param_2param_8h.html" target="_top" xlink:title="core/param/param.h">
<polygon fill="white" stroke="red" points="906,-364 906,-383 1022,-383 1022,-364 906,-364"/>
<text text-anchor="middle" x="964" y="-371" font-family="Helvetica,sans-Serif" font-size="10.00">core/param/param.h</text>
</a>
</g>
</g>
<!-- Node1&#45;&gt;Node34 -->
<g id="edge148" class="edge"><title>Node1&#45;&gt;Node34</title>
<path fill="none" stroke="midnightblue" d="M1171.9,-671.544C1119.21,-660.109 1039.63,-634.371 997,-579 953.872,-522.977 957.522,-432.398 961.539,-393.376"/>
<polygon fill="midnightblue" stroke="midnightblue" points="965.019,-393.746 962.695,-383.41 958.066,-392.94 965.019,-393.746"/>
</g>
<!-- Node35 -->
<g id="node35" class="node"><title>Node35</title>
<g id="a_node35"><a xlink:href="grid_8h.html" target="_top" xlink:title="core/grid.h">
<polygon fill="white" stroke="black" points="2449,-615.5 2449,-634.5 2517,-634.5 2517,-615.5 2449,-615.5"/>
<text text-anchor="middle" x="2483" y="-622.5" font-family="Helvetica,sans-Serif" font-size="10.00">core/grid.h</text>
</a>
</g>
</g>
<!-- Node1&#45;&gt;Node35 -->
<g id="edge74" class="edge"><title>Node1&#45;&gt;Node35</title>
<path fill="none" stroke="midnightblue" d="M1276.1,-677.765C1483.2,-668.883 2246.25,-636.155 2438.7,-627.9"/>
<polygon fill="midnightblue" stroke="midnightblue" points="2438.89,-631.395 2448.73,-627.47 2438.59,-624.402 2438.89,-631.395"/>
</g>
<!-- Node41 -->
<g id="node41" class="node"><title>Node41</title>
<g id="a_node41"><a xlink:href="io_8h.html" target="_top" xlink:title="core/util/io.h">
<polygon fill="white" stroke="red" points="1986.5,-230 1986.5,-249 2061.5,-249 2061.5,-230 1986.5,-230"/>
<text text-anchor="middle" x="2024" y="-237" font-family="Helvetica,sans-Serif" font-size="10.00">core/util/io.h</text>
</a>
</g>
</g>
<!-- Node1&#45;&gt;Node41 -->
<g id="edge152" class="edge"><title>Node1&#45;&gt;Node41</title>
<path fill="none" stroke="midnightblue" d="M1237.32,-671.284C1250.78,-662.395 1272.08,-648.089 1290,-635 1394.31,-558.796 1423.89,-543.418 1519,-456 1592.63,-388.323 1582.85,-336.32 1672,-291 1793.68,-229.146 1843.46,-283.236 1977,-255 1981.14,-254.126 1985.43,-253.047 1989.66,-251.876"/>
<polygon fill="midnightblue" stroke="midnightblue" points="1990.74,-255.21 1999.34,-249.029 1988.76,-248.494 1990.74,-255.21"/>
</g>
<!-- Node44 -->
<g id="node44" class="node"><title>Node44</title>
<g id="a_node44"><a xlink:href="resource__manager_8h.html" target="_top" xlink:title="core/resource_manager.h">
<polygon fill="white" stroke="red" points="1991,-492.5 1991,-511.5 2131,-511.5 2131,-492.5 1991,-492.5"/>
<text text-anchor="middle" x="2061" y="-499.5" font-family="Helvetica,sans-Serif" font-size="10.00">core/resource_manager.h</text>
</a>
</g>
</g>
<!-- Node1&#45;&gt;Node44 -->
<g id="edge149" class="edge"><title>Node1&#45;&gt;Node44</title>
<path fill="none" stroke="midnightblue" d="M1276.14,-677.584C1355.13,-673.195 1509.54,-661.761 1638,-635 1787.67,-603.822 1959.87,-541.506 2029.43,-515.183"/>
<polygon fill="midnightblue" stroke="midnightblue" points="2030.83,-518.395 2038.93,-511.568 2028.34,-511.852 2030.83,-518.395"/>
</g>
<!-- Node45 -->
<g id="node45" class="node"><title>Node45</title>
<g id="a_node45"><a xlink:href="so__uid__generator_8h.html" target="_top" xlink:title="core/sim_object/so\l_uid_generator.h">
<polygon fill="white" stroke="red" points="1966.5,-425.5 1966.5,-455.5 2073.5,-455.5 2073.5,-425.5 1966.5,-425.5"/>
<text text-anchor="start" x="1974.5" y="-443.5" font-family="Helvetica,sans-Serif" font-size="10.00">core/sim_object/so</text>
<text text-anchor="middle" x="2020" y="-432.5" font-family="Helvetica,sans-Serif" font-size="10.00">_uid_generator.h</text>
</a>
</g>
</g>
<!-- Node1&#45;&gt;Node45 -->
<g id="edge151" class="edge"><title>Node1&#45;&gt;Node45</title>
<path fill="none" stroke="midnightblue" d="M1276.1,-680.923C1344.27,-680.397 1466.28,-673.436 1562,-635 1622.8,-610.588 1622.52,-577.545 1681,-548 1771.79,-502.128 1886.26,-471.165 1956.25,-454.936"/>
<polygon fill="midnightblue" stroke="midnightblue" points="1957.27,-458.291 1966.24,-452.648 1955.71,-451.468 1957.27,-458.291"/>
</g>
<!-- Node46 -->
<g id="node46" class="node"><title>Node46</title>
<g id="a_node46"><a xlink:href="scheduler_8h.html" target="_top" xlink:title="core/scheduler.h">
<polygon fill="white" stroke="red" points="792.5,-364 792.5,-383 887.5,-383 887.5,-364 792.5,-364"/>
<text text-anchor="middle" x="840" y="-371" font-family="Helvetica,sans-Serif" font-size="10.00">core/scheduler.h</text>
</a>
</g>
</g>
<!-- Node1&#45;&gt;Node46 -->
<g id="edge150" class="edge"><title>Node1&#45;&gt;Node46</title>
<path fill="none" stroke="midnightblue" d="M1171.76,-675.758C1022.53,-662.945 605,-621.961 605,-564.5 605,-564.5 605,-564.5 605,-501 605,-420.625 712.902,-391.093 782.475,-380.405"/>
<polygon fill="midnightblue" stroke="midnightblue" points="783.049,-383.858 792.444,-378.961 782.046,-376.93 783.049,-383.858"/>
</g>
<!-- Node47 -->
<g id="node47" class="node"><title>Node47</title>
<g id="a_node47"><a xlink:href="command__line__options_8h.html" target="_top" xlink:title="core/param/command\l_line_options.h">
<polygon fill="white" stroke="red" points="3397,-425.5 3397,-455.5 3521,-455.5 3521,-425.5 3397,-425.5"/>
<text text-anchor="start" x="3405" y="-443.5" font-family="Helvetica,sans-Serif" font-size="10.00">core/param/command</text>
<text text-anchor="middle" x="3459" y="-432.5" font-family="Helvetica,sans-Serif" font-size="10.00">_line_options.h</text>
</a>
</g>
</g>
<!-- Node1&#45;&gt;Node47 -->
<g id="edge142" class="edge"><title>Node1&#45;&gt;Node47</title>
<path fill="none" stroke="midnightblue" d="M1276.19,-679.707C1601.47,-677.786 3338.4,-666.084 3383,-635 3439.25,-595.797 3453.87,-508.227 3457.67,-465.658"/>
<polygon fill="midnightblue" stroke="midnightblue" points="3461.16,-465.864 3458.43,-455.626 3454.18,-465.33 3461.16,-465.864"/>
</g>
<!-- Node48 -->
<g id="node48" class="node"><title>Node48</title>
<polygon fill="white" stroke="#bfbfbf" points="3519,-364 3519,-383 3579,-383 3579,-364 3519,-364"/>
<text text-anchor="middle" x="3549" y="-371" font-family="Helvetica,sans-Serif" font-size="10.00">version.h</text>
</g>
<!-- Node1&#45;&gt;Node48 -->
<g id="edge162" class="edge"><title>Node1&#45;&gt;Node48</title>
<path fill="none" stroke="midnightblue" d="M1276.21,-679.574C1597.96,-676.869 3301.34,-661.341 3408,-635 3476.02,-618.201 3549,-634.563 3549,-564.5 3549,-564.5 3549,-564.5 3549,-501 3549,-462.702 3549,-417.883 3549,-393.197"/>
<polygon fill="midnightblue" stroke="midnightblue" points="3552.5,-393.089 3549,-383.089 3545.5,-393.089 3552.5,-393.089"/>
</g>
<!-- Node49 -->
<g id="node49" class="node"><title>Node49</title>
<g id="a_node49"><a xlink:href="root_2adaptor_8h.html" target="_top" xlink:title="core/visualization\l/root/adaptor.h">
<polygon fill="white" stroke="red" points="1006.5,-548.5 1006.5,-578.5 1105.5,-578.5 1105.5,-548.5 1006.5,-548.5"/>
<text text-anchor="start" x="1014.5" y="-566.5" font-family="Helvetica,sans-Serif" font-size="10.00">core/visualization</text>
<text text-anchor="middle" x="1056" y="-555.5" font-family="Helvetica,sans-Serif" font-size="10.00">/root/adaptor.h</text>
</a>
</g>
</g>
<!-- Node1&#45;&gt;Node49 -->
<g id="edge156" class="edge"><title>Node1&#45;&gt;Node49</title>
<path fill="none" stroke="midnightblue" d="M1211.37,-671.319C1184.67,-652.96 1121.89,-609.796 1084.82,-584.312"/>
<polygon fill="midnightblue" stroke="midnightblue" points="1086.65,-581.326 1076.43,-578.545 1082.69,-587.095 1086.65,-581.326"/>
</g>
<!-- Node50 -->
<g id="node50" class="node"><title>Node50</title>
<polygon fill="white" stroke="#bfbfbf" points="3577.5,-615.5 3577.5,-634.5 3624.5,-634.5 3624.5,-615.5 3577.5,-615.5"/>
<text text-anchor="middle" x="3601" y="-622.5" font-family="Helvetica,sans-Serif" font-size="10.00">TEnv.h</text>
</g>
<!-- Node1&#45;&gt;Node50 -->
<g id="edge163" class="edge"><title>Node1&#45;&gt;Node50</title>
<path fill="none" stroke="midnightblue" d="M1276.18,-679.664C1600.05,-677.49 3329.42,-664.563 3563,-635 3564.47,-634.814 3565.97,-634.594 3567.48,-634.347"/>
<polygon fill="midnightblue" stroke="midnightblue" points="3568.28,-637.756 3577.43,-632.406 3566.94,-630.885 3568.28,-637.756"/>
</g>
<!-- Node3 -->
<g id="node3" class="node"><title>Node3</title>
<polygon fill="white" stroke="#bfbfbf" points="995.5,-230 995.5,-249 1058.5,-249 1058.5,-230 995.5,-230"/>
<text text-anchor="middle" x="1027" y="-237" font-family="Helvetica,sans-Serif" font-size="10.00">functional</text>
</g>
<!-- Node2&#45;&gt;Node3 -->
<g id="edge2" class="edge"><title>Node2&#45;&gt;Node3</title>
<path fill="none" stroke="midnightblue" d="M1705.32,-372.067C1553.87,-370.317 1105.12,-361.791 1054,-322 1034.92,-307.146 1029.18,-278.384 1027.53,-259.31"/>
<polygon fill="midnightblue" stroke="midnightblue" points="1031.02,-258.924 1026.96,-249.136 1024.03,-259.316 1031.02,-258.924"/>
</g>
<!-- Node2&#45;&gt;Node4 -->
<g id="edge3" class="edge"><title>Node2&#45;&gt;Node4</title>
<path fill="none" stroke="midnightblue" d="M1804.64,-366.65C1830.13,-363.778 1861.7,-360.424 1890,-358 1952.45,-352.652 2409.95,-367.566 2453,-322 2496.65,-275.799 2454,-242.557 2454,-179 2454,-179 2454,-179 2454,-121 2454,-43.0179 1175.32,-15.7254 953.577,-11.5787"/>
<polygon fill="midnightblue" stroke="midnightblue" points="953.325,-8.07357 943.262,-11.3884 953.196,-15.0724 953.325,-8.07357"/>
</g>
<!-- Node2&#45;&gt;Node5 -->
<g id="edge4" class="edge"><title>Node2&#45;&gt;Node5</title>
<path fill="none" stroke="midnightblue" d="M1736.97,-363.856C1719.3,-354.874 1692.17,-339.674 1672,-322 1643.23,-296.796 1637.05,-288.163 1618,-255 1607.37,-236.494 1599.18,-213.352 1594.26,-197.497"/>
<polygon fill="midnightblue" stroke="midnightblue" points="1597.59,-196.417 1591.38,-187.831 1590.88,-198.414 1597.59,-196.417"/>
</g>
<!-- Node6 -->
<g id="node6" class="node"><title>Node6</title>
<g id="a_node6"><a xlink:href="opencl__state_8h.html" target="_top" xlink:title="core/gpu/opencl_state.h">
<polygon fill="white" stroke="black" points="1192,-168.5 1192,-187.5 1324,-187.5 1324,-168.5 1192,-168.5"/>
<text text-anchor="middle" x="1258" y="-175.5" font-family="Helvetica,sans-Serif" font-size="10.00">core/gpu/opencl_state.h</text>
</a>
</g>
</g>
<!-- Node2&#45;&gt;Node6 -->
<g id="edge5" class="edge"><title>Node2&#45;&gt;Node6</title>
<path fill="none" stroke="midnightblue" d="M1733,-363.936C1653.7,-333.062 1382.29,-227.391 1289.44,-191.242"/>
<polygon fill="midnightblue" stroke="midnightblue" points="1290.61,-187.941 1280.02,-187.575 1288.07,-194.464 1290.61,-187.941"/>
</g>
<!-- Node12 -->
<g id="node12" class="node"><title>Node12</title>
<g id="a_node12"><a xlink:href="memory__manager_8h.html" target="_top" xlink:title="core/memory/memory\l_manager.h">
<polygon fill="white" stroke="red" points="1681.5,-291.5 1681.5,-321.5 1806.5,-321.5 1806.5,-291.5 1681.5,-291.5"/>
<text text-anchor="start" x="1689.5" y="-309.5" font-family="Helvetica,sans-Serif" font-size="10.00">core/memory/memory</text>
<text text-anchor="middle" x="1744" y="-298.5" font-family="Helvetica,sans-Serif" font-size="10.00">_manager.h</text>
</a>
</g>
</g>
<!-- Node2&#45;&gt;Node12 -->
<g id="edge13" class="edge"><title>Node2&#45;&gt;Node12</title>
<path fill="none" stroke="midnightblue" d="M1753.52,-363.734C1752.13,-355.541 1749.99,-342.923 1748.1,-331.714"/>
<polygon fill="midnightblue" stroke="midnightblue" points="1751.5,-330.865 1746.38,-321.589 1744.6,-332.033 1751.5,-330.865"/>
</g>
<!-- Node17 -->
<g id="node17" class="node"><title>Node17</title>
<g id="a_node17"><a xlink:href="so__uid_8h.html" target="_top" xlink:title="core/sim_object/so\l_uid.h">
<polygon fill="white" stroke="black" points="2015.5,-291.5 2015.5,-321.5 2122.5,-321.5 2122.5,-291.5 2015.5,-291.5"/>
<text text-anchor="start" x="2023.5" y="-309.5" font-family="Helvetica,sans-Serif" font-size="10.00">core/sim_object/so</text>
<text text-anchor="middle" x="2069" y="-298.5" font-family="Helvetica,sans-Serif" font-size="10.00">_uid.h</text>
</a>
</g>
</g>
<!-- Node2&#45;&gt;Node17 -->
<g id="edge21" class="edge"><title>Node2&#45;&gt;Node17</title>
<path fill="none" stroke="midnightblue" d="M1796.37,-363.936C1849.69,-352.898 1942.94,-333.596 2005.32,-320.681"/>
<polygon fill="midnightblue" stroke="midnightblue" points="2006.36,-324.041 2015.44,-318.587 2004.94,-317.186 2006.36,-324.041"/>
</g>
<!-- Node19 -->
<g id="node19" class="node"><title>Node19</title>
<g id="a_node19"><a xlink:href="root_8h.html" target="_top" xlink:title="core/util/root.h">
<polygon fill="white" stroke="black" points="2142,-168.5 2142,-187.5 2228,-187.5 2228,-168.5 2142,-168.5"/>
<text text-anchor="middle" x="2185" y="-175.5" font-family="Helvetica,sans-Serif" font-size="10.00">core/util/root.h</text>
</a>
</g>
</g>
<!-- Node2&#45;&gt;Node19 -->
<g id="edge33" class="edge"><title>Node2&#45;&gt;Node19</title>
<path fill="none" stroke="midnightblue" d="M1770.91,-363.877C1801.74,-347.496 1872.1,-311.671 1935,-291 2007.96,-267.023 2035.94,-290.58 2104,-255 2131.94,-240.393 2157.23,-213.443 2171.86,-195.875"/>
<polygon fill="midnightblue" stroke="midnightblue" points="2174.94,-197.638 2178.5,-187.659 2169.49,-193.24 2174.94,-197.638"/>
</g>
<!-- Node20 -->
<g id="node20" class="node"><title>Node20</title>
<g id="a_node20"><a xlink:href="random_8h.html" target="_top" xlink:title="core/util/random.h">
<polygon fill="white" stroke="red" points="2653,-297 2653,-316 2757,-316 2757,-297 2653,-297"/>
<text text-anchor="middle" x="2705" y="-304" font-family="Helvetica,sans-Serif" font-size="10.00">core/util/random.h</text>
</a>
</g>
</g>
<!-- Node2&#45;&gt;Node20 -->
<g id="edge25" class="edge"><title>Node2&#45;&gt;Node20</title>
<path fill="none" stroke="midnightblue" d="M1804.64,-366.607C1830.13,-363.724 1861.69,-360.372 1890,-358 2154.89,-335.8 2221.72,-338.821 2487,-322 2539.39,-318.678 2598.85,-314.71 2642.43,-311.765"/>
<polygon fill="midnightblue" stroke="midnightblue" points="2642.85,-315.245 2652.59,-311.077 2642.37,-308.261 2642.85,-315.245"/>
</g>
<!-- Node6&#45;&gt;Node7 -->
<g id="edge6" class="edge"><title>Node6&#45;&gt;Node7</title>
<path fill="none" stroke="midnightblue" d="M1191.83,-169.633C1093.72,-158.709 911.763,-138.45 823.555,-128.629"/>
<polygon fill="midnightblue" stroke="midnightblue" points="823.856,-125.141 813.53,-127.513 823.081,-132.098 823.856,-125.141"/>
</g>
<!-- Node7&#45;&gt;Node4 -->
<g id="edge9" class="edge"><title>Node7&#45;&gt;Node4</title>
<path fill="none" stroke="midnightblue" d="M784.613,-112.368C809.794,-93.6531 869.67,-49.1509 901.044,-25.8324"/>
<polygon fill="midnightblue" stroke="midnightblue" points="903.503,-28.3658 909.441,-19.5914 899.327,-22.7476 903.503,-28.3658"/>
</g>
<!-- Node7&#45;&gt;Node8 -->
<g id="edge7" class="edge"><title>Node7&#45;&gt;Node8</title>
<path fill="none" stroke="midnightblue" d="M738.616,-112.444C697.719,-102.266 629.911,-85.3926 589.436,-75.3204"/>
<polygon fill="midnightblue" stroke="midnightblue" points="590.072,-71.872 579.523,-72.8536 588.381,-78.6649 590.072,-71.872"/>
</g>
<!-- Node9 -->
<g id="node9" class="node"><title>Node9</title>
<polygon fill="white" stroke="#bfbfbf" points="1906.5,-56.5 1906.5,-75.5 1965.5,-75.5 1965.5,-56.5 1906.5,-56.5"/>
<text text-anchor="middle" x="1936" y="-63.5" font-family="Helvetica,sans-Serif" font-size="10.00">iostream</text>
</g>
<!-- Node7&#45;&gt;Node9 -->
<g id="edge8" class="edge"><title>Node7&#45;&gt;Node9</title>
<path fill="none" stroke="midnightblue" d="M813.71,-119.11C993.762,-110.75 1717.51,-77.1449 1896.04,-68.8553"/>
<polygon fill="midnightblue" stroke="midnightblue" points="1896.46,-72.3396 1906.29,-68.3794 1896.14,-65.3471 1896.46,-72.3396"/>
</g>
<!-- Node7&#45;&gt;Node10 -->
<g id="edge10" class="edge"><title>Node7&#45;&gt;Node10</title>
<path fill="none" stroke="midnightblue" d="M732.212,-117.663C619.064,-108.405 300.997,-82.3816 170.236,-71.6829"/>
<polygon fill="midnightblue" stroke="midnightblue" points="170.284,-68.1753 160.032,-70.8481 169.713,-75.152 170.284,-68.1753"/>
</g>
<!-- Node10&#45;&gt;Node4 -->
<g id="edge12" class="edge"><title>Node10&#45;&gt;Node4</title>
<path fill="none" stroke="midnightblue" d="M160.238,-57.6194C164.881,-57.0176 169.528,-56.4637 174,-56 449.836,-27.3971 785.001,-15.2078 888.806,-11.9458"/>
<polygon fill="midnightblue" stroke="midnightblue" points="889.057,-15.4398 898.944,-11.6327 888.841,-8.44317 889.057,-15.4398"/>
</g>
<!-- Node10&#45;&gt;Node11 -->
<g id="edge11" class="edge"><title>Node10&#45;&gt;Node11</title>
<path fill="none" stroke="midnightblue" d="M106.725,-56.083C101.358,-48.4554 93.4824,-37.2645 86.9213,-27.9408"/>
<polygon fill="midnightblue" stroke="midnightblue" points="89.7755,-25.9149 81.1582,-19.7511 84.0508,-29.9434 89.7755,-25.9149"/>
</g>
<!-- Node12&#45;&gt;Node5 -->
<g id="edge14" class="edge"><title>Node12&#45;&gt;Node5</title>
<path fill="none" stroke="midnightblue" d="M1710.64,-291.295C1691.99,-282.433 1668.97,-269.888 1651,-255 1630.39,-237.925 1611.72,-213.173 1600.38,-196.604"/>
<polygon fill="midnightblue" stroke="midnightblue" points="1603.04,-194.293 1594.58,-187.915 1597.22,-198.176 1603.04,-194.293"/>
</g>
<!-- Node13 -->
<g id="node13" class="node"><title>Node13</title>
<g id="a_node13"><a xlink:href="spinlock_8h.html" target="_top" xlink:title="core/util/spinlock.h">
<polygon fill="white" stroke="black" points="2482.5,-230 2482.5,-249 2587.5,-249 2587.5,-230 2482.5,-230"/>
<text text-anchor="middle" x="2535" y="-237" font-family="Helvetica,sans-Serif" font-size="10.00">core/util/spinlock.h</text>
</a>
</g>
</g>
<!-- Node12&#45;&gt;Node13 -->
<g id="edge15" class="edge"><title>Node12&#45;&gt;Node13</title>
<path fill="none" stroke="midnightblue" d="M1806.73,-300.345C1954.64,-288.191 2323.88,-257.849 2472.03,-245.675"/>
<polygon fill="midnightblue" stroke="midnightblue" points="2472.63,-249.137 2482.31,-244.83 2472.05,-242.161 2472.63,-249.137"/>
</g>
<!-- Node12&#45;&gt;Node15 -->
<g id="edge17" class="edge"><title>Node12&#45;&gt;Node15</title>
<path fill="none" stroke="midnightblue" d="M1681.45,-301.415C1636.3,-298.479 1573.89,-294.449 1519,-291 1239.91,-273.465 907.665,-253.364 764.912,-244.764"/>
<polygon fill="midnightblue" stroke="midnightblue" points="764.747,-241.247 754.554,-244.14 764.326,-248.235 764.747,-241.247"/>
</g>
<!-- Node14 -->
<g id="node14" class="node"><title>Node14</title>
<polygon fill="white" stroke="#bfbfbf" points="2726,-168.5 2726,-187.5 2776,-187.5 2776,-168.5 2726,-168.5"/>
<text text-anchor="middle" x="2751" y="-175.5" font-family="Helvetica,sans-Serif" font-size="10.00">atomic</text>
</g>
<!-- Node13&#45;&gt;Node14 -->
<g id="edge16" class="edge"><title>Node13&#45;&gt;Node14</title>
<path fill="none" stroke="midnightblue" d="M2565.95,-229.975C2605.71,-219.021 2674.56,-200.056 2716.13,-188.604"/>
<polygon fill="midnightblue" stroke="midnightblue" points="2717.12,-191.963 2725.83,-185.933 2715.26,-185.215 2717.12,-191.963"/>
</g>
<!-- Node15&#45;&gt;Node5 -->
<g id="edge19" class="edge"><title>Node15&#45;&gt;Node5</title>
<path fill="none" stroke="midnightblue" d="M754.641,-231.474C778.427,-228.877 805.972,-226.066 831,-224 1110.44,-200.93 1448.79,-185.131 1555.26,-180.447"/>
<polygon fill="midnightblue" stroke="midnightblue" points="1555.56,-183.937 1565.39,-180.004 1555.25,-176.944 1555.56,-183.937"/>
</g>
<!-- Node15&#45;&gt;Node7 -->
<g id="edge20" class="edge"><title>Node15&#45;&gt;Node7</title>
<path fill="none" stroke="midnightblue" d="M699.938,-229.819C712.92,-210.839 744.035,-165.348 761.175,-140.288"/>
<polygon fill="midnightblue" stroke="midnightblue" points="764.237,-142.012 766.993,-131.782 758.459,-138.06 764.237,-142.012"/>
</g>
<!-- Node15&#45;&gt;Node16 -->
<g id="edge18" class="edge"><title>Node15&#45;&gt;Node16</title>
<path fill="none" stroke="midnightblue" d="M673.082,-229.975C648.254,-219.857 606.657,-202.905 578.306,-191.351"/>
<polygon fill="midnightblue" stroke="midnightblue" points="579.461,-188.042 568.879,-187.509 576.819,-194.524 579.461,-188.042"/>
</g>
<!-- Node18 -->
<g id="node18" class="node"><title>Node18</title>
<polygon fill="white" stroke="#bfbfbf" points="2232,-230 2232,-249 2274,-249 2274,-230 2232,-230"/>
<text text-anchor="middle" x="2253" y="-237" font-family="Helvetica,sans-Serif" font-size="10.00">limits</text>
</g>
<!-- Node17&#45;&gt;Node18 -->
<g id="edge22" class="edge"><title>Node17&#45;&gt;Node18</title>
<path fill="none" stroke="midnightblue" d="M2112.95,-291.448C2142.77,-281.71 2182.98,-268.174 2218,-255 2219.85,-254.305 2221.74,-253.574 2223.65,-252.825"/>
<polygon fill="midnightblue" stroke="midnightblue" points="2225.14,-255.998 2233.1,-249.01 2222.52,-249.507 2225.14,-255.998"/>
</g>
<!-- Node17&#45;&gt;Node19 -->
<g id="edge23" class="edge"><title>Node17&#45;&gt;Node19</title>
<path fill="none" stroke="midnightblue" d="M2122.63,-293.856C2144,-286.394 2166.64,-274.332 2180,-255 2191.48,-238.384 2191.04,-214.539 2188.82,-198.007"/>
<polygon fill="midnightblue" stroke="midnightblue" points="2192.23,-197.19 2187.12,-187.91 2185.33,-198.352 2192.23,-197.19"/>
</g>
<!-- Node19&#45;&gt;Node7 -->
<g id="edge24" class="edge"><title>Node19&#45;&gt;Node7</title>
<path fill="none" stroke="midnightblue" d="M2141.97,-175.354C1935.42,-167.455 1046.44,-133.457 823.74,-124.94"/>
<polygon fill="midnightblue" stroke="midnightblue" points="823.771,-121.439 813.644,-124.554 823.503,-128.434 823.771,-121.439"/>
</g>
<!-- Node20&#45;&gt;Node19 -->
<g id="edge32" class="edge"><title>Node20&#45;&gt;Node19</title>
<path fill="none" stroke="midnightblue" d="M2702.51,-296.742C2697.1,-279.455 2682.46,-241.139 2655,-224 2586.63,-181.324 2345.95,-177.659 2238.04,-178.254"/>
<polygon fill="midnightblue" stroke="midnightblue" points="2237.99,-174.754 2228.02,-178.323 2238.04,-181.754 2237.99,-174.754"/>
</g>
<!-- Node21 -->
<g id="node21" class="node"><title>Node21</title>
<polygon fill="white" stroke="#bfbfbf" points="2605.5,-230 2605.5,-249 2646.5,-249 2646.5,-230 2605.5,-230"/>
<text text-anchor="middle" x="2626" y="-237" font-family="Helvetica,sans-Serif" font-size="10.00">array</text>
</g>
<!-- Node20&#45;&gt;Node21 -->
<g id="edge26" class="edge"><title>Node20&#45;&gt;Node21</title>
<path fill="none" stroke="midnightblue" d="M2694.35,-296.734C2681.55,-286.208 2659.88,-268.379 2644.37,-255.617"/>
<polygon fill="midnightblue" stroke="midnightblue" points="2646.43,-252.778 2636.49,-249.127 2641.98,-258.184 2646.43,-252.778"/>
</g>
<!-- Node22 -->
<g id="node22" class="node"><title>Node22</title>
<g id="a_node22"><a xlink:href="math__array_8h.html" target="_top" xlink:title="core/container/math\l_array.h">
<polygon fill="white" stroke="red" points="2931,-224.5 2931,-254.5 3045,-254.5 3045,-224.5 2931,-224.5"/>
<text text-anchor="start" x="2939" y="-242.5" font-family="Helvetica,sans-Serif" font-size="10.00">core/container/math</text>
<text text-anchor="middle" x="2988" y="-231.5" font-family="Helvetica,sans-Serif" font-size="10.00">_array.h</text>
</a>
</g>
</g>
<!-- Node20&#45;&gt;Node22 -->
<g id="edge27" class="edge"><title>Node20&#45;&gt;Node22</title>
<path fill="none" stroke="midnightblue" d="M2742.29,-296.936C2787.67,-286.513 2865.14,-268.72 2920.97,-255.896"/>
<polygon fill="midnightblue" stroke="midnightblue" points="2921.82,-259.292 2930.78,-253.642 2920.25,-252.47 2921.82,-259.292"/>
</g>
<!-- Node22&#45;&gt;Node19 -->
<g id="edge31" class="edge"><title>Node22&#45;&gt;Node19</title>
<path fill="none" stroke="midnightblue" d="M2930.89,-234.269C2781.98,-223.235 2383.36,-193.698 2238.53,-182.967"/>
<polygon fill="midnightblue" stroke="midnightblue" points="2238.38,-179.445 2228.14,-182.197 2237.86,-186.426 2238.38,-179.445"/>
</g>
<!-- Node22&#45;&gt;Node23 -->
<g id="edge28" class="edge"><title>Node22&#45;&gt;Node23</title>
<path fill="none" stroke="midnightblue" d="M3032.79,-224.399C3065.45,-214.118 3109.18,-200.351 3139.89,-190.682"/>
<polygon fill="midnightblue" stroke="midnightblue" points="3141.29,-193.912 3149.77,-187.571 3139.19,-187.235 3141.29,-193.912"/>
</g>
<!-- Node22&#45;&gt;Node24 -->
<g id="edge29" class="edge"><title>Node22&#45;&gt;Node24</title>
<path fill="none" stroke="midnightblue" d="M3011.7,-224.399C3027.73,-214.862 3048.8,-202.325 3064.74,-192.842"/>
<polygon fill="midnightblue" stroke="midnightblue" points="3066.64,-195.779 3073.45,-187.658 3063.07,-189.763 3066.64,-195.779"/>
</g>
<!-- Node25 -->
<g id="node25" class="node"><title>Node25</title>
<polygon fill="white" stroke="#bfbfbf" points="2814,-168.5 2814,-187.5 2856,-187.5 2856,-168.5 2814,-168.5"/>
<text text-anchor="middle" x="2835" y="-175.5" font-family="Helvetica,sans-Serif" font-size="10.00">utility</text>
</g>
<!-- Node22&#45;&gt;Node25 -->
<g id="edge30" class="edge"><title>Node22&#45;&gt;Node25</title>
<path fill="none" stroke="midnightblue" d="M2951.74,-224.399C2925.65,-214.251 2890.82,-200.706 2866.01,-191.059"/>
<polygon fill="midnightblue" stroke="midnightblue" points="2866.96,-187.675 2856.37,-187.312 2864.43,-194.199 2866.96,-187.675"/>
</g>
<!-- Node27&#45;&gt;Node3 -->
<g id="edge43" class="edge"><title>Node27&#45;&gt;Node3</title>
<path fill="none" stroke="midnightblue" d="M1381.67,-430.546C1276.33,-414.449 1074.37,-377.081 1031,-322 1017.07,-304.303 1018.9,-277.15 1022.29,-259.113"/>
<polygon fill="midnightblue" stroke="midnightblue" points="1025.73,-259.747 1024.47,-249.228 1018.9,-258.237 1025.73,-259.747"/>
</g>
<!-- Node27&#45;&gt;Node5 -->
<g id="edge46" class="edge"><title>Node27&#45;&gt;Node5</title>
<path fill="none" stroke="midnightblue" d="M1441.82,-425.489C1434.47,-398.028 1421.95,-335.897 1444,-291 1467.91,-242.329 1524.27,-208.814 1559.27,-191.853"/>
<polygon fill="midnightblue" stroke="midnightblue" points="1560.96,-194.925 1568.52,-187.509 1557.98,-188.588 1560.96,-194.925"/>
</g>
<!-- Node27&#45;&gt;Node13 -->
<g id="edge58" class="edge"><title>Node27&#45;&gt;Node13</title>
<path fill="none" stroke="midnightblue" d="M1510.09,-437.416C1662.72,-432.067 2044.24,-416.321 2169,-389 2207.06,-380.665 2213.31,-367.881 2251,-358 2353.63,-331.092 2399.13,-381.467 2487,-322 2509.27,-306.928 2522.69,-277.786 2529.47,-258.744"/>
<polygon fill="midnightblue" stroke="midnightblue" points="2532.84,-259.713 2532.64,-249.12 2526.19,-257.524 2532.84,-259.713"/>
</g>
<!-- Node27&#45;&gt;Node15 -->
<g id="edge59" class="edge"><title>Node27&#45;&gt;Node15</title>
<path fill="none" stroke="midnightblue" d="M1381.74,-439.428C1237.2,-438.493 890.709,-431.718 783,-389 738.932,-371.522 722,-363.994 700,-322 689.738,-302.413 689.748,-276.466 691.325,-259.164"/>
<polygon fill="midnightblue" stroke="midnightblue" points="694.806,-259.537 692.496,-249.197 687.853,-258.72 694.806,-259.537"/>
</g>
<!-- Node27&#45;&gt;Node17 -->
<g id="edge57" class="edge"><title>Node27&#45;&gt;Node17</title>
<path fill="none" stroke="midnightblue" d="M1482.27,-425.379C1530.4,-407.177 1618.34,-375.761 1696,-358 1803.08,-333.508 1930.36,-319.407 2005.14,-312.611"/>
<polygon fill="midnightblue" stroke="midnightblue" points="2005.69,-316.076 2015.34,-311.7 2005.06,-309.104 2005.69,-316.076"/>
</g>
<!-- Node27&#45;&gt;Node25 -->
<g id="edge45" class="edge"><title>Node27&#45;&gt;Node25</title>
<path fill="none" stroke="midnightblue" d="M1510.2,-437.171C1643.5,-431.931 1959.89,-417.393 2224,-389 2316.06,-379.104 2338.17,-369.823 2430,-358 2504.48,-348.41 2713.3,-375.5 2766,-322 2796.69,-290.838 2753.67,-262.185 2775,-224 2782.39,-210.775 2795.45,-200.276 2807.51,-192.757"/>
<polygon fill="midnightblue" stroke="midnightblue" points="2809.52,-195.635 2816.42,-187.593 2806.01,-189.578 2809.52,-195.635"/>
</g>
<!-- Node28 -->
<g id="node28" class="node"><title>Node28</title>
<polygon fill="white" stroke="#bfbfbf" points="1453.5,-297 1453.5,-316 1510.5,-316 1510.5,-297 1453.5,-297"/>
<text text-anchor="middle" x="1482" y="-304" font-family="Helvetica,sans-Serif" font-size="10.00">memory</text>
</g>
<!-- Node27&#45;&gt;Node28 -->
<g id="edge44" class="edge"><title>Node27&#45;&gt;Node28</title>
<path fill="none" stroke="midnightblue" d="M1449.85,-425.374C1456.39,-401.397 1469.66,-352.748 1476.94,-326.056"/>
<polygon fill="midnightblue" stroke="midnightblue" points="1480.4,-326.666 1479.66,-316.097 1473.65,-324.824 1480.4,-326.666"/>
</g>
<!-- Node29 -->
<g id="node29" class="node"><title>Node29</title>
<g id="a_node29"><a xlink:href="so__uid__map_8h.html" target="_top" xlink:title="core/container/so_uid\l_map.h">
<polygon fill="white" stroke="black" points="2041.5,-358.5 2041.5,-388.5 2160.5,-388.5 2160.5,-358.5 2041.5,-358.5"/>
<text text-anchor="start" x="2049.5" y="-376.5" font-family="Helvetica,sans-Serif" font-size="10.00">core/container/so_uid</text>
<text text-anchor="middle" x="2101" y="-365.5" font-family="Helvetica,sans-Serif" font-size="10.00">_map.h</text>
</a>
</g>
</g>
<!-- Node27&#45;&gt;Node29 -->
<g id="edge47" class="edge"><title>Node27&#45;&gt;Node29</title>
<path fill="none" stroke="midnightblue" d="M1510.28,-433.125C1606.84,-423.547 1795.05,-404.877 1955,-389 1979.84,-386.534 2007.06,-383.831 2031.19,-381.434"/>
<polygon fill="midnightblue" stroke="midnightblue" points="2031.73,-384.899 2041.33,-380.427 2031.03,-377.933 2031.73,-384.899"/>
</g>
<!-- Node30 -->
<g id="node30" class="node"><title>Node30</title>
<g id="a_node30"><a xlink:href="functor_8h.html" target="_top" xlink:title="core/functor.h">
<polygon fill="white" stroke="black" points="1193.5,-230 1193.5,-249 1276.5,-249 1276.5,-230 1193.5,-230"/>
<text text-anchor="middle" x="1235" y="-237" font-family="Helvetica,sans-Serif" font-size="10.00">core/functor.h</text>
</a>
</g>
</g>
<!-- Node27&#45;&gt;Node30 -->
<g id="edge51" class="edge"><title>Node27&#45;&gt;Node30</title>
<path fill="none" stroke="midnightblue" d="M1430.83,-425.188C1392.46,-389.004 1291.79,-294.062 1251.76,-256.31"/>
<polygon fill="midnightblue" stroke="midnightblue" points="1254.07,-253.675 1244.39,-249.36 1249.27,-258.768 1254.07,-253.675"/>
</g>
<!-- Node31 -->
<g id="node31" class="node"><title>Node31</title>
<g id="a_node31"><a xlink:href="operation_8h.html" target="_top" xlink:title="core/operation/operation.h">
<polygon fill="white" stroke="black" points="1063,-297 1063,-316 1207,-316 1207,-297 1063,-297"/>
<text text-anchor="middle" x="1135" y="-304" font-family="Helvetica,sans-Serif" font-size="10.00">core/operation/operation.h</text>
</a>
</g>
</g>
<!-- Node27&#45;&gt;Node31 -->
<g id="edge52" class="edge"><title>Node27&#45;&gt;Node31</title>
<path fill="none" stroke="midnightblue" d="M1413.01,-425.499C1352.13,-399.657 1223,-344.852 1164.69,-320.1"/>
<polygon fill="midnightblue" stroke="midnightblue" points="1165.88,-316.802 1155.3,-316.117 1163.14,-323.246 1165.88,-316.802"/>
</g>
<!-- Node29&#45;&gt;Node5 -->
<g id="edge49" class="edge"><title>Node29&#45;&gt;Node5</title>
<path fill="none" stroke="midnightblue" d="M2067.27,-358.479C2025.41,-341.353 1951.64,-312.066 1887,-291 1829.18,-272.156 1809.07,-282.825 1755,-255 1735.62,-245.027 1736.01,-234.663 1717,-224 1686.89,-207.113 1649.31,-194.813 1622.68,-187.383"/>
<polygon fill="midnightblue" stroke="midnightblue" points="1623.26,-183.915 1612.69,-184.682 1621.43,-190.672 1623.26,-183.915"/>
</g>
<!-- Node29&#45;&gt;Node17 -->
<g id="edge50" class="edge"><title>Node29&#45;&gt;Node17</title>
<path fill="none" stroke="midnightblue" d="M2094.06,-358.396C2090.07,-350.304 2084.97,-339.944 2080.41,-330.685"/>
<polygon fill="midnightblue" stroke="midnightblue" points="2083.49,-329.002 2075.93,-321.577 2077.21,-332.094 2083.49,-329.002"/>
</g>
<!-- Node29&#45;&gt;Node18 -->
<g id="edge48" class="edge"><title>Node29&#45;&gt;Node18</title>
<path fill="none" stroke="midnightblue" d="M2112.06,-358.207C2125.73,-341.07 2150.24,-312.032 2175,-291 2191.65,-276.858 2212.51,-263.547 2228.47,-254.144"/>
<polygon fill="midnightblue" stroke="midnightblue" points="2230.32,-257.116 2237.23,-249.083 2226.82,-251.055 2230.32,-257.116"/>
</g>
<!-- Node31&#45;&gt;Node3 -->
<g id="edge53" class="edge"><title>Node31&#45;&gt;Node3</title>
<path fill="none" stroke="midnightblue" d="M1120.43,-296.734C1102.38,-285.867 1071.39,-267.216 1050.08,-254.393"/>
<polygon fill="midnightblue" stroke="midnightblue" points="1051.71,-251.285 1041.33,-249.127 1048.1,-257.283 1051.71,-251.285"/>
</g>
<!-- Node31&#45;&gt;Node4 -->
<g id="edge55" class="edge"><title>Node31&#45;&gt;Node4</title>
<path fill="none" stroke="midnightblue" d="M1132.15,-296.714C1125.8,-276.29 1111,-223.931 1111,-179 1111,-179 1111,-179 1111,-121 1111,-48.9975 1007.54,-23.3614 953.312,-14.8695"/>
<polygon fill="midnightblue" stroke="midnightblue" points="953.568,-11.3699 943.167,-13.391 952.558,-18.2967 953.568,-11.3699"/>
</g>
<!-- Node31&#45;&gt;Node9 -->
<g id="edge54" class="edge"><title>Node31&#45;&gt;Node9</title>
<path fill="none" stroke="midnightblue" d="M1178.42,-296.976C1264.02,-279.738 1460.22,-238.086 1621,-188 1728.42,-154.539 1851.94,-103.186 1906.96,-79.6165"/>
<polygon fill="midnightblue" stroke="midnightblue" points="1908.61,-82.7159 1916.41,-75.5495 1905.84,-76.2855 1908.61,-82.7159"/>
</g>
<!-- Node31&#45;&gt;Node30 -->
<g id="edge56" class="edge"><title>Node31&#45;&gt;Node30</title>
<path fill="none" stroke="midnightblue" d="M1148.49,-296.734C1165.05,-285.964 1193.38,-267.55 1213.09,-254.739"/>
<polygon fill="midnightblue" stroke="midnightblue" points="1215.25,-257.512 1221.73,-249.127 1211.44,-251.643 1215.25,-257.512"/>
</g>
<!-- Node32&#45;&gt;Node2 -->
<g id="edge72" class="edge"><title>Node32&#45;&gt;Node2</title>
<path fill="none" stroke="midnightblue" d="M418.874,-436.623C650.725,-425.843 1466.4,-387.918 1695.03,-377.288"/>
<polygon fill="midnightblue" stroke="midnightblue" points="1695.32,-380.779 1705.15,-376.818 1695,-373.786 1695.32,-380.779"/>
</g>
<!-- Node32&#45;&gt;Node4 -->
<g id="edge64" class="edge"><title>Node32&#45;&gt;Node4</title>
<path fill="none" stroke="midnightblue" d="M329.419,-430.989C309.357,-423.309 283.301,-409.949 269,-389 212.435,-306.139 238.929,-233.412 315,-168 388.745,-104.588 410.748,-86.8034 503,-56 574.62,-32.0858 803.509,-17.4329 888.674,-12.6919"/>
<polygon fill="midnightblue" stroke="midnightblue" points="888.995,-16.1797 898.789,-12.1381 888.612,-9.19015 888.995,-16.1797"/>
</g>
<!-- Node32&#45;&gt;Node5 -->
<g id="edge65" class="edge"><title>Node32&#45;&gt;Node5</title>
<path fill="none" stroke="midnightblue" d="M364.086,-430.673C392.355,-396.234 501.48,-270.513 624,-224 646.234,-215.559 1387.03,-186.734 1555.25,-180.286"/>
<polygon fill="midnightblue" stroke="midnightblue" points="1555.42,-183.783 1565.27,-179.903 1555.15,-176.788 1555.42,-183.783"/>
</g>
<!-- Node32&#45;&gt;Node7 -->
<g id="edge73" class="edge"><title>Node32&#45;&gt;Node7</title>
<path fill="none" stroke="midnightblue" d="M359.216,-430.552C362.584,-415.125 367.644,-382.793 358,-358 350.131,-337.771 332.869,-342.229 325,-322 299.443,-256.298 308.029,-212.137 363,-168 390.498,-145.922 618.434,-131.177 722.064,-125.552"/>
<polygon fill="midnightblue" stroke="midnightblue" points="722.489,-129.034 732.288,-125.005 722.115,-122.044 722.489,-129.034"/>
</g>
<!-- Node32&#45;&gt;Node8 -->
<g id="edge61" class="edge"><title>Node32&#45;&gt;Node8</title>
<path fill="none" stroke="midnightblue" d="M335.573,-430.906C318.69,-422.851 296.333,-409.03 286,-389 239.738,-299.325 264.613,-237.253 338,-168 391.869,-117.165 475.893,-88.258 522.321,-75.317"/>
<polygon fill="midnightblue" stroke="midnightblue" points="523.441,-78.6401 532.181,-72.6521 521.614,-71.8826 523.441,-78.6401"/>
</g>
<!-- Node32&#45;&gt;Node11 -->
<g id="edge63" class="edge"><title>Node32&#45;&gt;Node11</title>
<path fill="none" stroke="midnightblue" d="M295.224,-435.985C256.954,-430.76 209.143,-418.297 177,-389 66.8902,-288.64 84.1198,-222.495 57,-76 55.3819,-67.2596 55.319,-64.7285 57,-56 58.7901,-46.7047 62.483,-36.8887 66.0607,-28.8048"/>
<polygon fill="midnightblue" stroke="midnightblue" points="69.2733,-30.1981 70.3788,-19.6611 62.9436,-27.2089 69.2733,-30.1981"/>
</g>
<!-- Node33 -->
<g id="node33" class="node"><title>Node33</title>
<polygon fill="white" stroke="#bfbfbf" points="295,-364 295,-383 349,-383 349,-364 295,-364"/>
<text text-anchor="middle" x="322" y="-371" font-family="Helvetica,sans-Serif" font-size="10.00">fstream</text>
</g>
<!-- Node32&#45;&gt;Node33 -->
<g id="edge62" class="edge"><title>Node32&#45;&gt;Node33</title>
<path fill="none" stroke="midnightblue" d="M352.28,-430.734C346.979,-420.89 338.24,-404.66 331.509,-392.159"/>
<polygon fill="midnightblue" stroke="midnightblue" points="334.468,-390.273 326.645,-383.127 328.305,-393.591 334.468,-390.273"/>
</g>
<!-- Node32&#45;&gt;Node34 -->
<g id="edge66" class="edge"><title>Node32&#45;&gt;Node34</title>
<path fill="none" stroke="midnightblue" d="M418.72,-436.067C519.179,-429.953 724.124,-415.285 896,-389 903.137,-387.909 910.651,-386.536 917.976,-385.072"/>
<polygon fill="midnightblue" stroke="midnightblue" points="918.713,-388.494 927.795,-383.039 917.293,-381.639 918.713,-388.494"/>
</g>
<!-- Node34&#45;&gt;Node4 -->
<g id="edge68" class="edge"><title>Node34&#45;&gt;Node4</title>
<path fill="none" stroke="midnightblue" d="M959.067,-363.857C947.773,-343.225 921,-289.186 921,-240.5 921,-240.5 921,-240.5 921,-121 921,-88.948 921,-51.6426 921,-29.7489"/>
<polygon fill="midnightblue" stroke="midnightblue" points="924.5,-29.5577 921,-19.5578 917.5,-29.5578 924.5,-29.5577"/>
</g>
<!-- Node34&#45;&gt;Node5 -->
<g id="edge69" class="edge"><title>Node34&#45;&gt;Node5</title>
<path fill="none" stroke="midnightblue" d="M962.067,-363.819C956.897,-338.047 945.729,-261.449 986,-224 1006.99,-204.485 1430.98,-185.518 1555.13,-180.365"/>
<polygon fill="midnightblue" stroke="midnightblue" points="1555.36,-183.859 1565.2,-179.95 1555.07,-176.865 1555.36,-183.859"/>
</g>
<!-- Node34&#45;&gt;Node19 -->
<g id="edge70" class="edge"><title>Node34&#45;&gt;Node19</title>
<path fill="none" stroke="midnightblue" d="M1004.88,-363.984C1087.45,-347.13 1280.22,-309.556 1444,-291 1582.46,-275.313 1941.57,-309.051 2070,-255 2088.85,-247.068 2087.39,-235.935 2104,-224 2121.03,-211.756 2141.73,-200.31 2157.94,-192.025"/>
<polygon fill="midnightblue" stroke="midnightblue" points="2159.54,-195.142 2166.91,-187.53 2156.4,-188.884 2159.54,-195.142"/>
</g>
<!-- Node34&#45;&gt;Node26 -->
<g id="edge71" class="edge"><title>Node34&#45;&gt;Node26</title>
<path fill="none" stroke="midnightblue" d="M937.309,-363.869C901.77,-352.376 838.787,-332.008 799.052,-319.159"/>
<polygon fill="midnightblue" stroke="midnightblue" points="800.073,-315.81 789.482,-316.064 797.919,-322.471 800.073,-315.81"/>
</g>
<!-- Node34&#45;&gt;Node28 -->
<g id="edge67" class="edge"><title>Node34&#45;&gt;Node28</title>
<path fill="none" stroke="midnightblue" d="M1022.16,-365.201C1128.81,-351.819 1352.98,-323.689 1443.18,-312.371"/>
<polygon fill="midnightblue" stroke="midnightblue" points="1443.77,-315.825 1453.25,-311.107 1442.9,-308.88 1443.77,-315.825"/>
</g>
<!-- Node35&#45;&gt;Node5 -->
<g id="edge86" class="edge"><title>Node35&#45;&gt;Node5</title>
<path fill="none" stroke="midnightblue" d="M2448.93,-622.776C2360.14,-619.22 2123.54,-607.289 2051,-579 2004.54,-560.881 1995.93,-547.593 1961,-512 1913.92,-464.023 1909.71,-445.309 1873,-389 1845.36,-346.601 1855.37,-321.532 1815,-291 1765.13,-253.28 1732.39,-287.548 1679,-255 1663.15,-245.336 1664.81,-236.409 1651,-224 1638.42,-212.698 1623.04,-201.522 1610.75,-193.136"/>
<polygon fill="midnightblue" stroke="midnightblue" points="1612.69,-190.218 1602.43,-187.56 1608.79,-196.034 1612.69,-190.218"/>
</g>
<!-- Node35&#45;&gt;Node7 -->
<g id="edge140" class="edge"><title>Node35&#45;&gt;Node7</title>
<path fill="none" stroke="midnightblue" d="M2491.27,-615.4C2505.07,-601.137 2533.74,-571.803 2559,-548 2716.81,-399.286 3044.73,-289.308 2865,-168 2821.36,-138.548 1140.61,-125.532 824.107,-123.339"/>
<polygon fill="midnightblue" stroke="midnightblue" points="823.879,-119.838 813.855,-123.269 823.83,-126.837 823.879,-119.838"/>
</g>
<!-- Node35&#45;&gt;Node9 -->
<g id="edge81" class="edge"><title>Node35&#45;&gt;Node9</title>
<path fill="none" stroke="midnightblue" d="M2517.35,-623.044C2640.93,-619.399 3058.49,-605.242 3112,-579 3281.27,-495.987 3344.97,-306.453 3217,-168 3195.35,-144.576 2189.47,-82.3641 1975.68,-69.3912"/>
<polygon fill="midnightblue" stroke="midnightblue" points="1975.73,-65.8879 1965.54,-68.7767 1975.31,-72.8751 1975.73,-65.8879"/>
</g>
<!-- Node35&#45;&gt;Node13 -->
<g id="edge141" class="edge"><title>Node35&#45;&gt;Node13</title>
<path fill="none" stroke="midnightblue" d="M2485.53,-615.211C2495.73,-579.262 2533.85,-439.741 2546,-322 2547.41,-308.295 2547.47,-304.699 2546,-291 2544.85,-280.356 2542.39,-268.664 2540.08,-259.213"/>
<polygon fill="midnightblue" stroke="midnightblue" points="2543.42,-258.153 2537.53,-249.345 2536.64,-259.902 2543.42,-258.153"/>
</g>
<!-- Node35&#45;&gt;Node14 -->
<g id="edge79" class="edge"><title>Node35&#45;&gt;Node14</title>
<path fill="none" stroke="midnightblue" d="M2517.06,-624.267C2604.5,-624.339 2834.37,-620.474 2896,-579 2927.84,-557.574 2937,-541.38 2937,-503 2937,-503 2937,-503 2937,-372.5 2937,-324.904 2818.56,-230.052 2770.7,-193.672"/>
<polygon fill="midnightblue" stroke="midnightblue" points="2772.73,-190.813 2762.64,-187.584 2768.51,-196.401 2772.73,-190.813"/>
</g>
<!-- Node35&#45;&gt;Node16 -->
<g id="edge76" class="edge"><title>Node35&#45;&gt;Node16</title>
<path fill="none" stroke="midnightblue" d="M2448.88,-624.148C2254.97,-624.812 1289.96,-625.683 997,-579 782.909,-544.885 529,-658.292 529,-441.5 529,-441.5 529,-441.5 529,-305.5 529,-266.773 537.816,-222.109 543.438,-197.566"/>
<polygon fill="midnightblue" stroke="midnightblue" points="546.917,-198.061 545.82,-187.523 540.106,-196.445 546.917,-198.061"/>
</g>
<!-- Node35&#45;&gt;Node18 -->
<g id="edge82" class="edge"><title>Node35&#45;&gt;Node18</title>
<path fill="none" stroke="midnightblue" d="M2474.37,-615.477C2456.48,-596.851 2417,-550.379 2417,-503 2417,-503 2417,-503 2417,-439.5 2417,-358.946 2323.63,-389.064 2279,-322 2266.11,-302.627 2259.26,-276.439 2255.88,-259.035"/>
<polygon fill="midnightblue" stroke="midnightblue" points="2259.3,-258.277 2254.14,-249.027 2252.41,-259.479 2259.3,-258.277"/>
</g>
<!-- Node35&#45;&gt;Node21 -->
<g id="edge78" class="edge"><title>Node35&#45;&gt;Node21</title>
<path fill="none" stroke="midnightblue" d="M2517.02,-622.678C2608.59,-618.772 2855.04,-605.84 2879,-579 2888.18,-568.722 2884.4,-560.677 2879,-548 2822.24,-414.672 2714.88,-448.385 2644,-322 2633.06,-302.49 2628.77,-276.873 2627.08,-259.609"/>
<polygon fill="midnightblue" stroke="midnightblue" points="2630.54,-258.874 2626.29,-249.17 2623.56,-259.408 2630.54,-258.874"/>
</g>
<!-- Node35&#45;&gt;Node22 -->
<g id="edge101" class="edge"><title>Node35&#45;&gt;Node22</title>
<path fill="none" stroke="midnightblue" d="M2517.14,-624.36C2617.04,-624.89 2906.9,-622.54 2989,-579 3027.51,-558.577 3051,-546.592 3051,-503 3051,-503 3051,-503 3051,-372.5 3051,-334.74 3044.17,-324.632 3027,-291 3021.86,-280.936 3014.63,-270.875 3007.78,-262.412"/>
<polygon fill="midnightblue" stroke="midnightblue" points="3010.28,-259.939 3001.16,-254.541 3004.92,-264.446 3010.28,-259.939"/>
</g>
<!-- Node35&#45;&gt;Node23 -->
<g id="edge77" class="edge"><title>Node35&#45;&gt;Node23</title>
<path fill="none" stroke="midnightblue" d="M2517.37,-623.017C2636.21,-619.396 3025.07,-605.608 3074,-579 3161.74,-531.285 3168.75,-485.631 3194,-389 3212.02,-320.047 3192.76,-234.405 3182.53,-197.422"/>
<polygon fill="midnightblue" stroke="midnightblue" points="3185.83,-196.221 3179.7,-187.579 3179.1,-198.157 3185.83,-196.221"/>
</g>
<!-- Node35&#45;&gt;Node24 -->
<g id="edge80" class="edge"><title>Node35&#45;&gt;Node24</title>
<path fill="none" stroke="midnightblue" d="M2517.15,-624.011C2621.51,-623.604 2934.72,-618.995 3027,-579 3073.19,-558.978 3111,-553.346 3111,-503 3111,-503 3111,-503 3111,-305.5 3111,-266.592 3100.34,-222.022 3093.53,-197.539"/>
<polygon fill="midnightblue" stroke="midnightblue" points="3096.86,-196.438 3090.73,-187.795 3090.13,-198.373 3096.86,-196.438"/>
</g>
<!-- Node35&#45;&gt;Node25 -->
<g id="edge85" class="edge"><title>Node35&#45;&gt;Node25</title>
<path fill="none" stroke="midnightblue" d="M2517.31,-624.278C2609.04,-624.441 2857.61,-620.9 2926,-579 2960.27,-558.004 2975,-543.19 2975,-503 2975,-503 2975,-503 2975,-372.5 2975,-307.784 2926.85,-307.49 2889,-255 2874.57,-234.996 2858.19,-211.88 2847.29,-196.444"/>
<polygon fill="midnightblue" stroke="midnightblue" points="2849.9,-194.075 2841.28,-187.921 2844.18,-198.11 2849.9,-194.075"/>
</g>
<!-- Node35&#45;&gt;Node28 -->
<g id="edge83" class="edge"><title>Node35&#45;&gt;Node28</title>
<path fill="none" stroke="midnightblue" d="M2448.9,-623.791C2304.68,-622.676 1749.18,-615.997 1681,-579 1573.58,-520.711 1508.87,-376.477 1488.77,-325.612"/>
<polygon fill="midnightblue" stroke="midnightblue" points="1492.02,-324.313 1485.16,-316.239 1485.49,-326.829 1492.02,-324.313"/>
</g>
<!-- Node35&#45;&gt;Node30 -->
<g id="edge137" class="edge"><title>Node35&#45;&gt;Node30</title>
<path fill="none" stroke="midnightblue" d="M2448.97,-623.316C2289.56,-619.987 1620.59,-604.591 1531,-579 1439.59,-552.89 1413.08,-532.025 1356,-456 1305.14,-388.253 1260.76,-296.823 1243.11,-258.537"/>
<polygon fill="midnightblue" stroke="midnightblue" points="1246.2,-256.859 1238.86,-249.211 1239.83,-259.762 1246.2,-256.859"/>
</g>
<!-- Node35&#45;&gt;Node34 -->
<g id="edge138" class="edge"><title>Node35&#45;&gt;Node34</title>
<path fill="none" stroke="midnightblue" d="M2448.9,-623.455C2274.22,-620.548 1483.81,-605.99 1378,-579 1216.15,-537.717 1043.52,-428.172 984.866,-388.825"/>
<polygon fill="midnightblue" stroke="midnightblue" points="986.694,-385.836 976.45,-383.134 982.773,-391.635 986.694,-385.836"/>
</g>
<!-- Node36 -->
<g id="node36" class="node"><title>Node36</title>
<polygon fill="white" stroke="#bfbfbf" points="2568,-554 2568,-573 2624,-573 2624,-554 2568,-554"/>
<text text-anchor="middle" x="2596" y="-561" font-family="Helvetica,sans-Serif" font-size="10.00">assert.h</text>
</g>
<!-- Node35&#45;&gt;Node36 -->
<g id="edge75" class="edge"><title>Node35&#45;&gt;Node36</title>
<path fill="none" stroke="midnightblue" d="M2499.19,-615.475C2517.9,-605.622 2548.92,-589.288 2570.8,-577.77"/>
<polygon fill="midnightblue" stroke="midnightblue" points="2572.62,-580.765 2579.84,-573.009 2569.36,-574.571 2572.62,-580.765"/>
</g>
<!-- Node37 -->
<g id="node37" class="node"><title>Node37</title>
<polygon fill="white" stroke="#bfbfbf" points="1899.5,-364 1899.5,-383 1946.5,-383 1946.5,-364 1899.5,-364"/>
<text text-anchor="middle" x="1923" y="-371" font-family="Helvetica,sans-Serif" font-size="10.00">mutex</text>
</g>
<!-- Node35&#45;&gt;Node37 -->
<g id="edge84" class="edge"><title>Node35&#45;&gt;Node37</title>
<path fill="none" stroke="midnightblue" d="M2448.95,-620.579C2348.03,-609.813 2053.16,-573.632 1982,-512 1945.77,-480.622 1931.12,-423.049 1925.76,-393.34"/>
<polygon fill="midnightblue" stroke="midnightblue" points="1929.15,-392.413 1924.09,-383.108 1922.24,-393.542 1929.15,-392.413"/>
</g>
<!-- Node38 -->
<g id="node38" class="node"><title>Node38</title>
<polygon fill="white" stroke="#bfbfbf" points="2642.5,-554 2642.5,-573 2741.5,-573 2741.5,-554 2642.5,-554"/>
<text text-anchor="middle" x="2692" y="-561" font-family="Helvetica,sans-Serif" font-size="10.00">morton/morton.h</text>
</g>
<!-- Node35&#45;&gt;Node38 -->
<g id="edge87" class="edge"><title>Node35&#45;&gt;Node38</title>
<path fill="none" stroke="midnightblue" d="M2512.94,-615.475C2549.57,-605.048 2611.7,-587.362 2652.28,-575.807"/>
<polygon fill="midnightblue" stroke="midnightblue" points="2653.45,-579.113 2662.11,-573.009 2651.53,-572.381 2653.45,-579.113"/>
</g>
<!-- Node39 -->
<g id="node39" class="node"><title>Node39</title>
<g id="a_node39"><a xlink:href="fixed__size__vector_8h.html" target="_top" xlink:title="core/container/fixed\l_size_vector.h">
<polygon fill="white" stroke="red" points="2759.5,-548.5 2759.5,-578.5 2870.5,-578.5 2870.5,-548.5 2759.5,-548.5"/>
<text text-anchor="start" x="2767.5" y="-566.5" font-family="Helvetica,sans-Serif" font-size="10.00">core/container/fixed</text>
<text text-anchor="middle" x="2815" y="-555.5" font-family="Helvetica,sans-Serif" font-size="10.00">_size_vector.h</text>
</a>
</g>
</g>
<!-- Node35&#45;&gt;Node39 -->
<g id="edge88" class="edge"><title>Node35&#45;&gt;Node39</title>
<path fill="none" stroke="midnightblue" d="M2517.24,-618.818C2566.31,-611.265 2659.67,-596.417 2749.31,-579.072"/>
<polygon fill="midnightblue" stroke="midnightblue" points="2750.23,-582.459 2759.37,-577.111 2748.89,-575.588 2750.23,-582.459"/>
</g>
<!-- Node40 -->
<g id="node40" class="node"><title>Node40</title>
<g id="a_node40"><a xlink:href="inline__vector_8h.html" target="_top" xlink:title="core/container/inline\l_vector.h">
<polygon fill="white" stroke="red" points="2331.5,-291.5 2331.5,-321.5 2444.5,-321.5 2444.5,-291.5 2331.5,-291.5"/>
<text text-anchor="start" x="2339.5" y="-309.5" font-family="Helvetica,sans-Serif" font-size="10.00">core/container/inline</text>
<text text-anchor="middle" x="2388" y="-298.5" font-family="Helvetica,sans-Serif" font-size="10.00">_vector.h</text>
</a>
</g>
</g>
<!-- Node35&#45;&gt;Node40 -->
<g id="edge89" class="edge"><title>Node35&#45;&gt;Node40</title>
<path fill="none" stroke="midnightblue" d="M2483.58,-615.485C2486.18,-575.094 2495.49,-402.909 2469,-358 2461.13,-344.663 2448.22,-334.335 2434.99,-326.595"/>
<polygon fill="midnightblue" stroke="midnightblue" points="2436.3,-323.324 2425.84,-321.645 2432.97,-329.481 2436.3,-323.324"/>
</g>
<!-- Node42 -->
<g id="node42" class="node"><title>Node42</title>
<g id="a_node42"><a xlink:href="parallel__resize__vector_8h.html" target="_top" xlink:title="core/container/parallel\l_resize_vector.h">
<polygon fill="white" stroke="black" points="1845.5,-224.5 1845.5,-254.5 1968.5,-254.5 1968.5,-224.5 1845.5,-224.5"/>
<text text-anchor="start" x="1853.5" y="-242.5" font-family="Helvetica,sans-Serif" font-size="10.00">core/container/parallel</text>
<text text-anchor="middle" x="1907" y="-231.5" font-family="Helvetica,sans-Serif" font-size="10.00">_resize_vector.h</text>
</a>
</g>
</g>
<!-- Node35&#45;&gt;Node42 -->
<g id="edge102" class="edge"><title>Node35&#45;&gt;Node42</title>
<path fill="none" stroke="midnightblue" d="M2448.6,-623.94C2309.97,-623.426 1792.16,-618.826 1634,-579 1571.82,-563.344 1407.34,-510.146 1373,-456 1335.87,-397.449 1363.46,-345.638 1444,-291 1506.11,-248.862 1721.63,-241.282 1835.39,-240.298"/>
<polygon fill="midnightblue" stroke="midnightblue" points="1835.43,-243.798 1845.4,-240.227 1835.38,-236.798 1835.43,-243.798"/>
</g>
<!-- Node43 -->
<g id="node43" class="node"><title>Node43</title>
<g id="a_node43"><a xlink:href="sim__object__vector_8h.html" target="_top" xlink:title="core/container/sim\l_object_vector.h">
<polygon fill="white" stroke="black" points="1690,-548.5 1690,-578.5 1796,-578.5 1796,-548.5 1690,-548.5"/>
<text text-anchor="start" x="1698" y="-566.5" font-family="Helvetica,sans-Serif" font-size="10.00">core/container/sim</text>
<text text-anchor="middle" x="1743" y="-555.5" font-family="Helvetica,sans-Serif" font-size="10.00">_object_vector.h</text>
</a>
</g>
</g>
<!-- Node35&#45;&gt;Node43 -->
<g id="edge106" class="edge"><title>Node35&#45;&gt;Node43</title>
<path fill="none" stroke="midnightblue" d="M2448.85,-623.479C2349.67,-621.589 2053.22,-613.262 1810,-579 1808.74,-578.823 1807.47,-578.635 1806.19,-578.438"/>
<polygon fill="midnightblue" stroke="midnightblue" points="1806.71,-574.976 1796.27,-576.764 1805.55,-581.878 1806.71,-574.976"/>
</g>
<!-- Node35&#45;&gt;Node44 -->
<g id="edge139" class="edge"><title>Node35&#45;&gt;Node44</title>
<path fill="none" stroke="midnightblue" d="M2453.33,-615.492C2378.96,-594.169 2184.59,-538.437 2100.6,-514.355"/>
<polygon fill="midnightblue" stroke="midnightblue" points="2101.5,-510.972 2090.92,-511.58 2099.57,-517.701 2101.5,-510.972"/>
</g>
<!-- Node40&#45;&gt;Node5 -->
<g id="edge94" class="edge"><title>Node40&#45;&gt;Node5</title>
<path fill="none" stroke="midnightblue" d="M2331.05,-302.274C2209.67,-295.076 1929.03,-276.623 1836,-255 1798.45,-246.273 1791.65,-235.947 1755,-224 1709.59,-209.197 1656.12,-195.325 1622.39,-186.999"/>
<polygon fill="midnightblue" stroke="midnightblue" points="1623.13,-183.577 1612.59,-184.598 1621.47,-190.376 1623.13,-183.577"/>
</g>
<!-- Node40&#45;&gt;Node7 -->
<g id="edge99" class="edge"><title>Node40&#45;&gt;Node7</title>
<path fill="none" stroke="midnightblue" d="M2383.96,-291.479C2378.26,-273.813 2366.33,-243.422 2347,-224 2308.3,-185.115 2290.14,-181.616 2237,-168 2098.04,-132.398 1066.64,-124.596 824.007,-123.246"/>
<polygon fill="midnightblue" stroke="midnightblue" points="823.733,-119.745 813.714,-123.19 823.695,-126.745 823.733,-119.745"/>
</g>
<!-- Node40&#45;&gt;Node11 -->
<g id="edge93" class="edge"><title>Node40&#45;&gt;Node11</title>
<path fill="none" stroke="midnightblue" d="M2388.49,-291.235C2388.4,-273.864 2385.95,-244.329 2372,-224 2307.8,-130.467 2074.77,-74.9318 1974,-56 1879.3,-38.2072 374.167,-15.3877 113.363,-11.557"/>
<polygon fill="midnightblue" stroke="midnightblue" points="113.292,-8.05571 103.242,-11.4087 113.19,-15.055 113.292,-8.05571"/>
</g>
<!-- Node40&#45;&gt;Node18 -->
<g id="edge92" class="edge"><title>Node40&#45;&gt;Node18</title>
<path fill="none" stroke="midnightblue" d="M2358.71,-291.396C2335.23,-280.092 2302.56,-264.361 2279.77,-253.39"/>
<polygon fill="midnightblue" stroke="midnightblue" points="2281.2,-250.192 2270.67,-249.007 2278.16,-256.499 2281.2,-250.192"/>
</g>
<!-- Node40&#45;&gt;Node19 -->
<g id="edge100" class="edge"><title>Node40&#45;&gt;Node19</title>
<path fill="none" stroke="midnightblue" d="M2378.98,-291.389C2366.76,-273.343 2343.31,-242.251 2316,-224 2292.17,-208.078 2262.14,-197.227 2236.84,-190.178"/>
<polygon fill="midnightblue" stroke="midnightblue" points="2237.61,-186.76 2227.04,-187.568 2235.8,-193.524 2237.61,-186.76"/>
</g>
<!-- Node40&#45;&gt;Node21 -->
<g id="edge91" class="edge"><title>Node40&#45;&gt;Node21</title>
<path fill="none" stroke="midnightblue" d="M2444.56,-295.149C2486.94,-286.588 2545.98,-272.932 2596,-255 2597.43,-254.488 2598.88,-253.928 2600.34,-253.336"/>
<polygon fill="midnightblue" stroke="midnightblue" points="2602.06,-256.397 2609.76,-249.12 2599.21,-250.006 2602.06,-256.397"/>
</g>
<!-- Node40&#45;&gt;Node23 -->
<g id="edge90" class="edge"><title>Node40&#45;&gt;Node23</title>
<path fill="none" stroke="midnightblue" d="M2444.75,-301.931C2600.54,-292.035 3025.23,-264.362 3054,-255 3094.88,-241.698 3136.11,-212.179 3158.93,-194.095"/>
<polygon fill="midnightblue" stroke="midnightblue" points="3161.43,-196.575 3167,-187.563 3157.02,-191.135 3161.43,-196.575"/>
</g>
<!-- Node40&#45;&gt;Node41 -->
<g id="edge95" class="edge"><title>Node40&#45;&gt;Node41</title>
<path fill="none" stroke="midnightblue" d="M2331.12,-295.344C2259.76,-282.6 2138.65,-260.973 2071.83,-249.04"/>
<polygon fill="midnightblue" stroke="midnightblue" points="2072.04,-245.524 2061.58,-247.211 2070.81,-252.415 2072.04,-245.524"/>
</g>
<!-- Node41&#45;&gt;Node4 -->
<g id="edge96" class="edge"><title>Node41&#45;&gt;Node4</title>
<path fill="none" stroke="midnightblue" d="M2024.78,-229.765C2026.93,-199.747 2029.49,-100.234 1974,-56 1933.12,-23.4065 1125.61,-13.1404 953.207,-11.3161"/>
<polygon fill="midnightblue" stroke="midnightblue" points="953.041,-7.81426 943.005,-11.2102 952.968,-14.8139 953.041,-7.81426"/>
</g>
<!-- Node41&#45;&gt;Node5 -->
<g id="edge97" class="edge"><title>Node41&#45;&gt;Node5</title>
<path fill="none" stroke="midnightblue" d="M1999.34,-229.961C1992.21,-227.744 1984.35,-225.547 1977,-224 1847.87,-196.834 1690.87,-184.967 1622.98,-180.836"/>
<polygon fill="midnightblue" stroke="midnightblue" points="1623.05,-177.335 1612.86,-180.239 1622.64,-184.323 1623.05,-177.335"/>
</g>
<!-- Node41&#45;&gt;Node19 -->
<g id="edge98" class="edge"><title>Node41&#45;&gt;Node19</title>
<path fill="none" stroke="midnightblue" d="M2047.07,-229.975C2074.68,-219.769 2121.12,-202.608 2152.4,-191.049"/>
<polygon fill="midnightblue" stroke="midnightblue" points="2153.81,-194.259 2161.98,-187.509 2151.38,-187.693 2153.81,-194.259"/>
</g>
<!-- Node42&#45;&gt;Node5 -->
<g id="edge104" class="edge"><title>Node42&#45;&gt;Node5</title>
<path fill="none" stroke="midnightblue" d="M1845.31,-226.957C1778.76,-214.506 1675.27,-195.141 1622.46,-185.26"/>
<polygon fill="midnightblue" stroke="midnightblue" points="1623.07,-181.814 1612.6,-183.415 1621.78,-188.695 1623.07,-181.814"/>
</g>
<!-- Node42&#45;&gt;Node8 -->
<g id="edge103" class="edge"><title>Node42&#45;&gt;Node8</title>
<path fill="none" stroke="midnightblue" d="M1859.38,-224.475C1802.98,-208.399 1705.95,-182.419 1621,-168 1218.94,-99.7618 723.083,-74.278 590.124,-68.4078"/>
<polygon fill="midnightblue" stroke="midnightblue" points="589.924,-64.8959 579.782,-67.9587 589.62,-71.8893 589.924,-64.8959"/>
</g>
<!-- Node42&#45;&gt;Node19 -->
<g id="edge105" class="edge"><title>Node42&#45;&gt;Node19</title>
<path fill="none" stroke="midnightblue" d="M1968.7,-225.295C2018.77,-214.578 2088.47,-199.66 2135.08,-189.685"/>
<polygon fill="midnightblue" stroke="midnightblue" points="2135.9,-193.088 2144.95,-187.572 2134.44,-186.243 2135.9,-193.088"/>
</g>
<!-- Node43&#45;&gt;Node2 -->
<g id="edge136" class="edge"><title>Node43&#45;&gt;Node2</title>
<path fill="none" stroke="midnightblue" d="M1743.9,-548.369C1746.04,-514.938 1751.4,-430.974 1753.8,-393.304"/>
<polygon fill="midnightblue" stroke="midnightblue" points="1757.3,-393.409 1754.44,-383.206 1750.31,-392.963 1757.3,-393.409"/>
</g>
<!-- Node43&#45;&gt;Node5 -->
<g id="edge107" class="edge"><title>Node43&#45;&gt;Node5</title>
<path fill="none" stroke="midnightblue" d="M1734.59,-548.372C1709.61,-505.752 1635.47,-374.058 1600,-255 1594.36,-236.062 1591.56,-213.577 1590.21,-198"/>
<polygon fill="midnightblue" stroke="midnightblue" points="1593.67,-197.32 1589.43,-187.609 1586.69,-197.842 1593.67,-197.32"/>
</g>
<!-- Node43&#45;&gt;Node44 -->
<g id="edge108" class="edge"><title>Node43&#45;&gt;Node44</title>
<path fill="none" stroke="midnightblue" d="M1796.23,-552.541C1854.22,-541.689 1946.59,-524.408 2005.47,-513.389"/>
<polygon fill="midnightblue" stroke="midnightblue" points="2006.16,-516.822 2015.34,-511.542 2004.87,-509.941 2006.16,-516.822"/>
</g>
<!-- Node44&#45;&gt;Node2 -->
<g id="edge133" class="edge"><title>Node44&#45;&gt;Node2</title>
<path fill="none" stroke="midnightblue" d="M2031.2,-492.452C2003.17,-484.122 1960.22,-470.608 1924,-456 1871.71,-434.911 1812.87,-405.081 1780.24,-387.971"/>
<polygon fill="midnightblue" stroke="midnightblue" points="1781.47,-384.663 1770.99,-383.094 1778.21,-390.855 1781.47,-384.663"/>
</g>
<!-- Node44&#45;&gt;Node4 -->
<g id="edge114" class="edge"><title>Node44&#45;&gt;Node4</title>
<path fill="none" stroke="midnightblue" d="M2131.05,-497.155C2221.9,-491.488 2385.08,-478.991 2523,-456 2741.48,-419.58 2799.22,-408.795 3003,-322 3110.81,-276.082 3295.25,-255.225 3217,-168 3063.4,3.22029 2417.42,-72.5376 2188,-56 1697.5,-20.6426 1098.08,-12.7252 953.49,-11.2829"/>
<polygon fill="midnightblue" stroke="midnightblue" points="953.158,-7.77965 943.125,-11.183 953.091,-14.7793 953.158,-7.77965"/>
</g>
<!-- Node44&#45;&gt;Node5 -->
<g id="edge116" class="edge"><title>Node44&#45;&gt;Node5</title>
<path fill="none" stroke="midnightblue" d="M2033.95,-492.469C2012.08,-484.849 1981.08,-472.365 1957,-456 1922.17,-432.33 1913.46,-423.973 1890,-389 1863.7,-349.79 1884.48,-322.146 1849,-291 1803.3,-250.885 1771.07,-282.825 1717,-255 1697.62,-245.027 1697.3,-235.835 1679,-224 1659.81,-211.595 1636.74,-200.12 1618.76,-191.863"/>
<polygon fill="midnightblue" stroke="midnightblue" points="1619.91,-188.541 1609.35,-187.621 1617.03,-194.922 1619.91,-188.541"/>
</g>
<!-- Node44&#45;&gt;Node15 -->
<g id="edge135" class="edge"><title>Node44&#45;&gt;Node15</title>
<path fill="none" stroke="midnightblue" d="M1990.96,-499.122C1730.65,-491.604 828.496,-460.564 723,-389 684.726,-363.036 685.267,-337.169 688,-291 688.63,-280.358 690.001,-268.519 691.273,-258.981"/>
<polygon fill="midnightblue" stroke="midnightblue" points="694.743,-259.441 692.671,-249.05 687.811,-258.465 694.743,-259.441"/>
</g>
<!-- Node44&#45;&gt;Node16 -->
<g id="edge109" class="edge"><title>Node44&#45;&gt;Node16</title>
<path fill="none" stroke="midnightblue" d="M1990.77,-501.463C1767.96,-502.446 1078.83,-501.621 861,-456 781.513,-439.352 754.443,-439.698 691,-389 622.044,-333.896 573.512,-236.619 555.61,-196.774"/>
<polygon fill="midnightblue" stroke="midnightblue" points="558.779,-195.286 551.552,-187.54 552.371,-198.103 558.779,-195.286"/>
</g>
<!-- Node44&#45;&gt;Node17 -->
<g id="edge118" class="edge"><title>Node44&#45;&gt;Node17</title>
<path fill="none" stroke="midnightblue" d="M2074.62,-492.258C2099.08,-475.641 2149.69,-436.843 2169,-389 2174.16,-376.224 2176.22,-369.735 2169,-358 2160.22,-343.733 2146.03,-333.35 2131.07,-325.853"/>
<polygon fill="midnightblue" stroke="midnightblue" points="2132.24,-322.539 2121.69,-321.548 2129.32,-328.901 2132.24,-322.539"/>
</g>
<!-- Node44&#45;&gt;Node18 -->
<g id="edge112" class="edge"><title>Node44&#45;&gt;Node18</title>
<path fill="none" stroke="midnightblue" d="M2087,-492.416C2105.98,-485.113 2131.37,-473.072 2149,-456 2208.46,-398.406 2238.37,-299.906 2248.7,-259.075"/>
<polygon fill="midnightblue" stroke="midnightblue" points="2252.15,-259.714 2251.11,-249.17 2245.35,-258.062 2252.15,-259.714"/>
</g>
<!-- Node44&#45;&gt;Node19 -->
<g id="edge134" class="edge"><title>Node44&#45;&gt;Node19</title>
<path fill="none" stroke="midnightblue" d="M2096.7,-492.457C2120.77,-485.457 2152.34,-473.769 2176,-456 2236.06,-410.887 2252.72,-392.368 2279,-322 2294.25,-281.164 2306.53,-260.696 2283,-224 2272.73,-207.976 2255.15,-197.582 2237.7,-190.874"/>
<polygon fill="midnightblue" stroke="midnightblue" points="2238.66,-187.502 2228.07,-187.514 2236.36,-194.111 2238.66,-187.502"/>
</g>
<!-- Node44&#45;&gt;Node23 -->
<g id="edge110" class="edge"><title>Node44&#45;&gt;Node23</title>
<path fill="none" stroke="midnightblue" d="M2131.17,-494.707C2205.1,-487.532 2324.76,-474.371 2427,-456 2660.63,-414.018 2720.45,-401.802 2944,-322 3014.68,-296.769 3036.65,-296.767 3099,-255 3124.42,-237.975 3148.86,-212.112 3163.41,-195.384"/>
<polygon fill="midnightblue" stroke="midnightblue" points="3166.25,-197.446 3170.07,-187.563 3160.92,-192.908 3166.25,-197.446"/>
</g>
<!-- Node44&#45;&gt;Node24 -->
<g id="edge111" class="edge"><title>Node44&#45;&gt;Node24</title>
<path fill="none" stroke="midnightblue" d="M2124.08,-492.486C2182,-484.326 2270.09,-471.052 2346,-456 2426.21,-440.096 2992.89,-309.337 3054,-255 3070.92,-239.952 3079.87,-214.855 3084.26,-197.647"/>
<polygon fill="midnightblue" stroke="midnightblue" points="3087.73,-198.19 3086.53,-187.663 3080.9,-196.639 3087.73,-198.19"/>
</g>
<!-- Node44&#45;&gt;Node25 -->
<g id="edge115" class="edge"><title>Node44&#45;&gt;Node25</title>
<path fill="none" stroke="midnightblue" d="M2099.8,-492.463C2246.14,-460.123 2757.72,-345.777 2784,-322 2820.4,-289.07 2830.83,-228.386 2833.81,-197.746"/>
<polygon fill="midnightblue" stroke="midnightblue" points="2837.31,-197.844 2834.63,-187.595 2830.34,-197.282 2837.31,-197.844"/>
</g>
<!-- Node44&#45;&gt;Node28 -->
<g id="edge113" class="edge"><title>Node44&#45;&gt;Node28</title>
<path fill="none" stroke="midnightblue" d="M2010.63,-492.468C1968.34,-484.732 1906.58,-472.087 1854,-456 1721.72,-415.525 1570.4,-348.287 1509.5,-320.317"/>
<polygon fill="midnightblue" stroke="midnightblue" points="1510.74,-317.033 1500.19,-316.022 1507.81,-323.389 1510.74,-317.033"/>
</g>
<!-- Node44&#45;&gt;Node29 -->
<g id="edge117" class="edge"><title>Node44&#45;&gt;Node29</title>
<path fill="none" stroke="midnightblue" d="M2065.74,-492.262C2070.42,-483.356 2077.49,-469.037 2082,-456 2088.54,-437.076 2093.55,-414.908 2096.77,-398.473"/>
<polygon fill="midnightblue" stroke="midnightblue" points="2100.22,-399.068 2098.64,-388.593 2093.34,-397.771 2100.22,-399.068"/>
</g>
<!-- Node44&#45;&gt;Node45 -->
<g id="edge119" class="edge"><title>Node44&#45;&gt;Node45</title>
<path fill="none" stroke="midnightblue" d="M2055.13,-492.475C2049.99,-485.019 2042.29,-473.852 2035.41,-463.869"/>
<polygon fill="midnightblue" stroke="midnightblue" points="2038.22,-461.771 2029.66,-455.523 2032.45,-465.743 2038.22,-461.771"/>
</g>
<!-- Node45&#45;&gt;Node2 -->
<g id="edge130" class="edge"><title>Node45&#45;&gt;Node2</title>
<path fill="none" stroke="midnightblue" d="M1966.37,-426.346C1917.44,-414.345 1845.95,-396.809 1799.95,-385.525"/>
<polygon fill="midnightblue" stroke="midnightblue" points="1800.51,-382.06 1789.97,-383.077 1798.85,-388.859 1800.51,-382.06"/>
</g>
<!-- Node45&#45;&gt;Node13 -->
<g id="edge132" class="edge"><title>Node45&#45;&gt;Node13</title>
<path fill="none" stroke="midnightblue" d="M2073.74,-434.672C2191.18,-422.962 2465.01,-388.957 2525,-322 2540.13,-305.119 2540.32,-277.768 2538.3,-259.465"/>
<polygon fill="midnightblue" stroke="midnightblue" points="2541.74,-258.818 2536.86,-249.412 2534.81,-259.806 2541.74,-258.818"/>
</g>
<!-- Node45&#45;&gt;Node14 -->
<g id="edge120" class="edge"><title>Node45&#45;&gt;Node14</title>
<path fill="none" stroke="midnightblue" d="M2073.66,-437.001C2153.29,-432.386 2307.03,-419.993 2434,-389 2472.25,-379.662 2478.85,-367.762 2517,-358 2571.16,-344.14 2729.4,-364.267 2766,-322 2781.78,-303.779 2765.22,-231.683 2756.13,-197.356"/>
<polygon fill="midnightblue" stroke="midnightblue" points="2759.49,-196.385 2753.49,-187.654 2752.74,-198.222 2759.49,-196.385"/>
</g>
<!-- Node45&#45;&gt;Node17 -->
<g id="edge129" class="edge"><title>Node45&#45;&gt;Node17</title>
<path fill="none" stroke="midnightblue" d="M2020.04,-425.408C2020.54,-408.717 2022.83,-380.362 2032,-358 2036.15,-347.894 2042.74,-337.94 2049.22,-329.576"/>
<polygon fill="midnightblue" stroke="midnightblue" points="2051.96,-331.756 2055.57,-321.795 2046.53,-327.331 2051.96,-331.756"/>
</g>
<!-- Node45&#45;&gt;Node18 -->
<g id="edge121" class="edge"><title>Node45&#45;&gt;Node18</title>
<path fill="none" stroke="midnightblue" d="M2073.66,-432.199C2104.71,-425.533 2142.73,-412.884 2169,-389 2204.33,-356.885 2188.21,-331.804 2213,-291 2220.29,-278.998 2230.05,-266.621 2238.11,-257.124"/>
<polygon fill="midnightblue" stroke="midnightblue" points="2240.99,-259.148 2244.91,-249.305 2235.7,-254.555 2240.99,-259.148"/>
</g>
<!-- Node45&#45;&gt;Node19 -->
<g id="edge131" class="edge"><title>Node45&#45;&gt;Node19</title>
<path fill="none" stroke="midnightblue" d="M2012.97,-425.494C1999.75,-396.941 1975.15,-331.306 2006,-291 2043.22,-242.369 2090.08,-291.837 2139,-255 2158.59,-240.249 2171.59,-214.504 2178.63,-197.112"/>
<polygon fill="midnightblue" stroke="midnightblue" points="2181.99,-198.127 2182.25,-187.535 2175.44,-195.653 2181.99,-198.127"/>
</g>
<!-- Node45&#45;&gt;Node29 -->
<g id="edge123" class="edge"><title>Node45&#45;&gt;Node29</title>
<path fill="none" stroke="midnightblue" d="M2037.58,-425.396C2048.61,-416.538 2063.04,-404.96 2075.35,-395.086"/>
<polygon fill="midnightblue" stroke="midnightblue" points="2077.85,-397.565 2083.46,-388.577 2073.47,-392.105 2077.85,-397.565"/>
</g>
<!-- Node45&#45;&gt;Node37 -->
<g id="edge122" class="edge"><title>Node45&#45;&gt;Node37</title>
<path fill="none" stroke="midnightblue" d="M1998.95,-425.396C1982.69,-414.496 1960.28,-399.479 1944.02,-388.584"/>
<polygon fill="midnightblue" stroke="midnightblue" points="1945.95,-385.666 1935.7,-383.007 1942.05,-391.481 1945.95,-385.666"/>
</g>
<!-- Node45&#45;&gt;Node46 -->
<g id="edge124" class="edge"><title>Node45&#45;&gt;Node46</title>
<path fill="none" stroke="midnightblue" d="M1966.28,-437.73C1757.08,-430.748 1003.24,-404.733 897,-389 891.047,-388.118 884.814,-386.874 878.745,-385.481"/>
<polygon fill="midnightblue" stroke="midnightblue" points="879.311,-382.016 868.765,-383.034 877.644,-388.815 879.311,-382.016"/>
</g>
<!-- Node46&#45;&gt;Node3 -->
<g id="edge125" class="edge"><title>Node46&#45;&gt;Node3</title>
<path fill="none" stroke="midnightblue" d="M852.27,-363.839C883.713,-341.644 967.441,-282.541 1006.46,-255.001"/>
<polygon fill="midnightblue" stroke="midnightblue" points="1008.78,-257.647 1014.93,-249.021 1004.74,-251.929 1008.78,-257.647"/>
</g>
<!-- Node46&#45;&gt;Node4 -->
<g id="edge126" class="edge"><title>Node46&#45;&gt;Node4</title>
<path fill="none" stroke="midnightblue" d="M797.802,-363.997C723.322,-346.372 571.119,-297.943 515,-188 498.177,-155.042 439.85,-142.656 523,-56 548.185,-29.7531 798.094,-16.349 888.541,-12.3283"/>
<polygon fill="midnightblue" stroke="midnightblue" points="888.916,-15.8154 898.755,-11.8843 888.612,-8.82204 888.916,-15.8154"/>
</g>
<!-- Node46&#45;&gt;Node5 -->
<g id="edge127" class="edge"><title>Node46&#45;&gt;Node5</title>
<path fill="none" stroke="midnightblue" d="M844.005,-363.728C856.736,-337.011 899.171,-256.498 962,-224 988.52,-210.282 1428.01,-187.128 1554.93,-180.7"/>
<polygon fill="midnightblue" stroke="midnightblue" points="1555.4,-184.18 1565.22,-180.181 1555.05,-177.189 1555.4,-184.18"/>
</g>
<!-- Node46&#45;&gt;Node31 -->
<g id="edge128" class="edge"><title>Node46&#45;&gt;Node31</title>
<path fill="none" stroke="midnightblue" d="M872.499,-363.993C880.495,-361.967 889.045,-359.855 897,-358 960.559,-343.179 1034.09,-327.852 1082.41,-318.03"/>
<polygon fill="midnightblue" stroke="midnightblue" points="1083.22,-321.437 1092.32,-316.019 1081.83,-314.576 1083.22,-321.437"/>
</g>
<!-- Node47&#45;&gt;Node2 -->
<g id="edge143" class="edge"><title>Node47&#45;&gt;Node2</title>
<path fill="none" stroke="midnightblue" d="M3396.87,-439.169C3185.56,-437.688 2475.22,-429.789 1890,-389 1865.32,-387.28 1838.18,-384.532 1814.75,-381.889"/>
<polygon fill="midnightblue" stroke="midnightblue" points="1814.94,-378.389 1804.61,-380.727 1814.15,-385.343 1814.94,-378.389"/>
</g>
<!-- Node47&#45;&gt;Node4 -->
<g id="edge147" class="edge"><title>Node47&#45;&gt;Node4</title>
<path fill="none" stroke="midnightblue" d="M3464.87,-425.127C3474.11,-401.168 3491,-351.36 3491,-307.5 3491,-307.5 3491,-307.5 3491,-121 3491,-10.0615 3359.83,-71.6323 3250,-56 3012.69,-22.2231 1217.33,-12.4126 953.366,-11.1475"/>
<polygon fill="midnightblue" stroke="midnightblue" points="953.297,-7.64719 943.281,-11.0997 953.264,-14.6471 953.297,-7.64719"/>
</g>
<!-- Node47&#45;&gt;Node9 -->
<g id="edge146" class="edge"><title>Node47&#45;&gt;Node9</title>
<path fill="none" stroke="midnightblue" d="M3460.6,-425.257C3464,-387.709 3467.96,-284.74 3418,-224 3384.9,-183.756 3365,-182.677 3315,-168 3053.92,-91.3532 2173.8,-71.2512 1975.79,-67.6541"/>
<polygon fill="midnightblue" stroke="midnightblue" points="1975.62,-64.1506 1965.56,-67.472 1975.49,-71.1495 1975.62,-64.1506"/>
</g>
<!-- Node47&#45;&gt;Node23 -->
<g id="edge145" class="edge"><title>Node47&#45;&gt;Node23</title>
<path fill="none" stroke="midnightblue" d="M3453.04,-425.483C3448.86,-415.421 3443.28,-401.489 3439,-389 3414.25,-316.75 3447.01,-275.918 3391,-224 3366.35,-201.148 3273.4,-188.379 3218.44,-182.677"/>
<polygon fill="midnightblue" stroke="midnightblue" points="3218.61,-179.178 3208.31,-181.662 3217.92,-186.143 3218.61,-179.178"/>
</g>
<!-- Node47&#45;&gt;Node48 -->
<g id="edge144" class="edge"><title>Node47&#45;&gt;Node48</title>
<path fill="none" stroke="midnightblue" d="M3478.53,-425.396C3493.48,-414.597 3514.03,-399.756 3529.08,-388.887"/>
<polygon fill="midnightblue" stroke="midnightblue" points="3531.16,-391.699 3537.22,-383.007 3527.07,-386.025 3531.16,-391.699"/>
</g>
<!-- Node49&#45;&gt;Node2 -->
<g id="edge160" class="edge"><title>Node49&#45;&gt;Node2</title>
<path fill="none" stroke="midnightblue" d="M1105.78,-552.863C1191.07,-535.948 1370.34,-498.635 1519,-456 1593.18,-434.725 1678.33,-403.624 1723.31,-386.653"/>
<polygon fill="midnightblue" stroke="midnightblue" points="1724.69,-389.872 1732.8,-383.056 1722.21,-383.326 1724.69,-389.872"/>
</g>
<!-- Node49&#45;&gt;Node7 -->
<g id="edge161" class="edge"><title>Node49&#45;&gt;Node7</title>
<path fill="none" stroke="midnightblue" d="M1006.4,-549.919C926.138,-527.735 765.643,-475.628 655,-389 619.162,-360.94 519.8,-203.902 515,-188 512.431,-179.49 509.28,-174.804 515,-168 540.951,-137.131 654.821,-127.435 722.303,-124.391"/>
<polygon fill="midnightblue" stroke="midnightblue" points="722.466,-127.888 732.311,-123.973 722.173,-120.894 722.466,-127.888"/>
</g>
<!-- Node49&#45;&gt;Node34 -->
<g id="edge157" class="edge"><title>Node49&#45;&gt;Node34</title>
<path fill="none" stroke="midnightblue" d="M1049.09,-548.369C1032.58,-514.65 990.926,-429.522 972.73,-392.34"/>
<polygon fill="midnightblue" stroke="midnightblue" points="975.8,-390.65 968.26,-383.206 969.512,-393.727 975.8,-390.65"/>
</g>
<!-- Node49&#45;&gt;Node44 -->
<g id="edge158" class="edge"><title>Node49&#45;&gt;Node44</title>
<path fill="none" stroke="midnightblue" d="M1105.84,-559.549C1267.98,-549.95 1781.49,-519.548 1980.81,-507.747"/>
<polygon fill="midnightblue" stroke="midnightblue" points="1981.15,-511.234 1990.92,-507.149 1980.73,-504.246 1981.15,-511.234"/>
</g>
<!-- Node49&#45;&gt;Node46 -->
<g id="edge159" class="edge"><title>Node49&#45;&gt;Node46</title>
<path fill="none" stroke="midnightblue" d="M1039.76,-548.369C1000.11,-513.857 898.587,-425.492 857.577,-389.799"/>
<polygon fill="midnightblue" stroke="midnightblue" points="859.844,-387.131 850.003,-383.206 855.248,-392.412 859.844,-387.131"/>
</g>
</g>
</svg>
