<?xml version="1.0" encoding="UTF-8" standalone="no"?>
<!DOCTYPE svg PUBLIC "-//W3C//DTD SVG 1.1//EN"
 "http://www.w3.org/Graphics/SVG/1.1/DTD/svg11.dtd">
<!-- Generated by graphviz version 2.38.0 (20140413.2041)
 -->
<!-- Title: core/sim_object/so_uid_generator.h Pages: 1 -->
<svg width="1657pt" height="419pt"
 viewBox="0.00 0.00 1657.00 419.00" xmlns="http://www.w3.org/2000/svg" xmlns:xlink="http://www.w3.org/1999/xlink">
<g id="graph0" class="graph" transform="scale(1 1) rotate(0) translate(4 415)">
<title>core/sim_object/so_uid_generator.h</title>
<polygon fill="white" stroke="none" points="-4,4 -4,-415 1653,-415 1653,4 -4,4"/>
<!-- Node1 -->
<g id="node1" class="node"><title>Node1</title>
<polygon fill="#bfbfbf" stroke="black" points="1441.5,-380.5 1441.5,-410.5 1548.5,-410.5 1548.5,-380.5 1441.5,-380.5"/>
<text text-anchor="start" x="1449.5" y="-398.5" font-family="Helvetica,sans-Serif" font-size="10.00">core/sim_object/so</text>
<text text-anchor="middle" x="1495" y="-387.5" font-family="Helvetica,sans-Serif" font-size="10.00">_uid_generator.h</text>
</g>
<!-- Node2 -->
<g id="node2" class="node"><title>Node2</title>
<g id="a_node2"><a xlink:href="resource__manager_8h.html" target="_top" xlink:title="core/resource_manager.h">
<polygon fill="white" stroke="black" points="684,-319 684,-338 824,-338 824,-319 684,-319"/>
<text text-anchor="middle" x="754" y="-326" font-family="Helvetica,sans-Serif" font-size="10.00">core/resource_manager.h</text>
</a>
</g>
</g>
<!-- Node1&#45;&gt;Node2 -->
<g id="edge1" class="edge"><title>Node1&#45;&gt;Node2</title>
<path fill="none" stroke="midnightblue" d="M1431.42,-388.923C1293.51,-376.826 967.806,-348.255 824.152,-335.654"/>
<polygon fill="midnightblue" stroke="midnightblue" points="1431.14,-392.412 1441.41,-389.799 1431.76,-385.439 1431.14,-392.412"/>
</g>
<!-- Node13 -->
<g id="node13" class="node"><title>Node13</title>
<g id="a_node13"><a xlink:href="simulation_8cc.html" target="_top" xlink:title="core/simulation.cc">
<polygon fill="white" stroke="black" points="892,-118 892,-137 996,-137 996,-118 892,-118"/>
<text text-anchor="middle" x="944" y="-125" font-family="Helvetica,sans-Serif" font-size="10.00">core/simulation.cc</text>
</a>
</g>
</g>
<!-- Node1&#45;&gt;Node13 -->
<g id="edge36" class="edge"><title>Node1&#45;&gt;Node13</title>
<path fill="none" stroke="midnightblue" d="M1492.02,-370.301C1484.99,-324.524 1462.85,-225.662 1399,-179 1335.96,-132.924 1101.62,-127.829 996.095,-127.949"/>
<polygon fill="midnightblue" stroke="midnightblue" points="1488.6,-371.075 1493.47,-380.483 1495.53,-370.091 1488.6,-371.075"/>
</g>
<!-- Node22 -->
<g id="node22" class="node"><title>Node22</title>
<g id="a_node22"><a xlink:href="so__uid__generator_8cc.html" target="_top" xlink:title="core/sim_object/so\l_uid_generator.cc">
<polygon fill="white" stroke="black" points="1523.5,-313.5 1523.5,-343.5 1630.5,-343.5 1630.5,-313.5 1523.5,-313.5"/>
<text text-anchor="start" x="1531.5" y="-331.5" font-family="Helvetica,sans-Serif" font-size="10.00">core/sim_object/so</text>
<text text-anchor="middle" x="1577" y="-320.5" font-family="Helvetica,sans-Serif" font-size="10.00">_uid_generator.cc</text>
</a>
</g>
</g>
<!-- Node1&#45;&gt;Node22 -->
<g id="edge35" class="edge"><title>Node1&#45;&gt;Node22</title>
<path fill="none" stroke="midnightblue" d="M1520.65,-374.168C1533.19,-364.228 1547.97,-352.514 1559.24,-343.577"/>
<polygon fill="midnightblue" stroke="midnightblue" points="1518.46,-371.441 1512.79,-380.396 1522.8,-376.927 1518.46,-371.441"/>
</g>
<!-- Node3 -->
<g id="node3" class="node"><title>Node3</title>
<g id="a_node3"><a xlink:href="sim__object__vector_8h.html" target="_top" xlink:title="core/container/sim\l_object_vector.h">
<polygon fill="white" stroke="black" points="430,-246.5 430,-276.5 536,-276.5 536,-246.5 430,-246.5"/>
<text text-anchor="start" x="438" y="-264.5" font-family="Helvetica,sans-Serif" font-size="10.00">core/container/sim</text>
<text text-anchor="middle" x="483" y="-253.5" font-family="Helvetica,sans-Serif" font-size="10.00">_object_vector.h</text>
</a>
</g>
</g>
<!-- Node2&#45;&gt;Node3 -->
<g id="edge2" class="edge"><title>Node2&#45;&gt;Node3</title>
<path fill="none" stroke="midnightblue" d="M708.567,-316.603C660.978,-305.188 586.297,-287.276 536.038,-275.221"/>
<polygon fill="midnightblue" stroke="midnightblue" points="707.752,-320.007 718.293,-318.936 709.385,-313.2 707.752,-320.007"/>
</g>
<!-- Node4 -->
<g id="node4" class="node"><title>Node4</title>
<g id="a_node4"><a xlink:href="grid_8h.html" target="_top" xlink:title="core/grid.h">
<polygon fill="white" stroke="black" points="487,-185 487,-204 555,-204 555,-185 487,-185"/>
<text text-anchor="middle" x="521" y="-192" font-family="Helvetica,sans-Serif" font-size="10.00">core/grid.h</text>
</a>
</g>
</g>
<!-- Node2&#45;&gt;Node4 -->
<g id="edge15" class="edge"><title>Node2&#45;&gt;Node4</title>
<path fill="none" stroke="midnightblue" d="M688.375,-316.819C656.17,-309.356 617.963,-297.019 588,-277 558.454,-257.259 535.212,-220.634 525.687,-204.052"/>
<polygon fill="midnightblue" stroke="midnightblue" points="687.641,-320.241 698.16,-318.982 689.151,-313.406 687.641,-320.241"/>
</g>
<!-- Node5 -->
<g id="node5" class="node"><title>Node5</title>
<g id="a_node5"><a xlink:href="biodynamo_8h.html" target="_top" xlink:title="biodynamo.h">
<polygon fill="white" stroke="black" points="1284.5,-118 1284.5,-137 1363.5,-137 1363.5,-118 1284.5,-118"/>
<text text-anchor="middle" x="1324" y="-125" font-family="Helvetica,sans-Serif" font-size="10.00">biodynamo.h</text>
</a>
</g>
</g>
<!-- Node2&#45;&gt;Node5 -->
<g id="edge18" class="edge"><title>Node2&#45;&gt;Node5</title>
<path fill="none" stroke="midnightblue" d="M834.206,-327.179C998.759,-325.683 1362.31,-317.75 1400,-277 1408.45,-267.865 1415.72,-209.862 1399,-179 1388.01,-158.712 1364.91,-145.072 1347.23,-137.135"/>
<polygon fill="midnightblue" stroke="midnightblue" points="834.107,-323.68 824.137,-327.265 834.166,-330.679 834.107,-323.68"/>
</g>
<!-- Node6 -->
<g id="node6" class="node"><title>Node6</title>
<g id="a_node6"><a xlink:href="in__place__exec__ctxt_8cc.html" target="_top" xlink:title="core/execution_context\l/in_place_exec_ctxt.cc">
<polygon fill="white" stroke="black" points="0,-112.5 0,-142.5 128,-142.5 128,-112.5 0,-112.5"/>
<text text-anchor="start" x="8" y="-130.5" font-family="Helvetica,sans-Serif" font-size="10.00">core/execution_context</text>
<text text-anchor="middle" x="64" y="-119.5" font-family="Helvetica,sans-Serif" font-size="10.00">/in_place_exec_ctxt.cc</text>
</a>
</g>
</g>
<!-- Node2&#45;&gt;Node6 -->
<g id="edge24" class="edge"><title>Node2&#45;&gt;Node6</title>
<path fill="none" stroke="midnightblue" d="M673.786,-324.97C593.383,-320.635 466.823,-308.877 362,-277 252.223,-243.617 133.519,-172.721 85.7336,-142.557"/>
<polygon fill="midnightblue" stroke="midnightblue" points="673.677,-328.469 683.843,-325.487 674.036,-321.479 673.677,-328.469"/>
</g>
<!-- Node7 -->
<g id="node7" class="node"><title>Node7</title>
<g id="a_node7"><a xlink:href="diffusion__op_8h.html" target="_top" xlink:title="core/operation/diffusion_op.h">
<polygon fill="white" stroke="black" points="146.5,-118 146.5,-137 301.5,-137 301.5,-118 146.5,-118"/>
<text text-anchor="middle" x="224" y="-125" font-family="Helvetica,sans-Serif" font-size="10.00">core/operation/diffusion_op.h</text>
</a>
</g>
</g>
<!-- Node2&#45;&gt;Node7 -->
<g id="edge26" class="edge"><title>Node2&#45;&gt;Node7</title>
<path fill="none" stroke="midnightblue" d="M673.721,-326.301C604.352,-322.739 502.681,-311.363 421,-277 337.305,-241.79 257.129,-163.057 232.041,-137.032"/>
<polygon fill="midnightblue" stroke="midnightblue" points="673.561,-329.797 683.715,-326.772 673.89,-322.805 673.561,-329.797"/>
</g>
<!-- Node8 -->
<g id="node8" class="node"><title>Node8</title>
<g id="a_node8"><a xlink:href="scheduler_8cc.html" target="_top" xlink:title="core/scheduler.cc">
<polygon fill="white" stroke="black" points="618,-0.5 618,-19.5 718,-19.5 718,-0.5 618,-0.5"/>
<text text-anchor="middle" x="668" y="-7.5" font-family="Helvetica,sans-Serif" font-size="10.00">core/scheduler.cc</text>
</a>
</g>
</g>
<!-- Node2&#45;&gt;Node8 -->
<g id="edge29" class="edge"><title>Node2&#45;&gt;Node8</title>
<path fill="none" stroke="midnightblue" d="M741.681,-310.438C735.672,-301.062 729.088,-288.938 726,-277 722.55,-263.661 722.561,-259.342 726,-246 734.491,-213.06 740.307,-204.341 763,-179 781.509,-158.332 801.236,-167.634 814,-143 820.339,-130.767 820.397,-124.203 814,-112 788.315,-62.9996 726.869,-33.0588 692.44,-19.5401"/>
<polygon fill="midnightblue" stroke="midnightblue" points="738.835,-312.478 747.346,-318.788 744.628,-308.548 738.835,-312.478"/>
</g>
<!-- Node11 -->
<g id="node11" class="node"><title>Node11</title>
<g id="a_node11"><a xlink:href="resource__manager_8cc.html" target="_top" xlink:title="core/resource_manager.cc">
<polygon fill="white" stroke="black" points="530,-118 530,-137 674,-137 674,-118 530,-118"/>
<text text-anchor="middle" x="602" y="-125" font-family="Helvetica,sans-Serif" font-size="10.00">core/resource_manager.cc</text>
</a>
</g>
</g>
<!-- Node2&#45;&gt;Node11 -->
<g id="edge28" class="edge"><title>Node2&#45;&gt;Node11</title>
<path fill="none" stroke="midnightblue" d="M709.184,-315.706C687.666,-307.945 663.12,-295.677 647,-277 610.037,-234.173 603.436,-161.682 602.256,-137.013"/>
<polygon fill="midnightblue" stroke="midnightblue" points="708.222,-319.075 718.816,-318.962 710.463,-312.444 708.222,-319.075"/>
</g>
<!-- Node12 -->
<g id="node12" class="node"><title>Node12</title>
<g id="a_node12"><a xlink:href="sim__object_8cc.html" target="_top" xlink:title="core/sim_object/sim\l_object.cc">
<polygon fill="white" stroke="black" points="692.5,-112.5 692.5,-142.5 805.5,-142.5 805.5,-112.5 692.5,-112.5"/>
<text text-anchor="start" x="700.5" y="-130.5" font-family="Helvetica,sans-Serif" font-size="10.00">core/sim_object/sim</text>
<text text-anchor="middle" x="749" y="-119.5" font-family="Helvetica,sans-Serif" font-size="10.00">_object.cc</text>
</a>
</g>
</g>
<!-- Node2&#45;&gt;Node12 -->
<g id="edge30" class="edge"><title>Node2&#45;&gt;Node12</title>
<path fill="none" stroke="midnightblue" d="M713.222,-315.274C694.764,-307.474 674.716,-295.301 664,-277 641.991,-239.414 642.458,-216.855 664,-179 673.508,-162.291 690.966,-150.537 707.598,-142.599"/>
<polygon fill="midnightblue" stroke="midnightblue" points="712.084,-318.587 722.672,-318.964 714.63,-312.067 712.084,-318.587"/>
</g>
<!-- Node2&#45;&gt;Node13 -->
<g id="edge31" class="edge"><title>Node2&#45;&gt;Node13</title>
<path fill="none" stroke="midnightblue" d="M742.829,-309.796C733.468,-292.492 723.348,-265.918 735,-246 772.098,-182.585 857.389,-150.76 906.784,-137.11"/>
<polygon fill="midnightblue" stroke="midnightblue" points="740.018,-311.923 748.083,-318.793 746.063,-308.393 740.018,-311.923"/>
</g>
<!-- Node14 -->
<g id="node14" class="node"><title>Node14</title>
<g id="a_node14"><a xlink:href="model__initializer_8h.html" target="_top" xlink:title="core/model_initializer.h">
<polygon fill="white" stroke="black" points="1523,-185 1523,-204 1649,-204 1649,-185 1523,-185"/>
<text text-anchor="middle" x="1586" y="-192" font-family="Helvetica,sans-Serif" font-size="10.00">core/model_initializer.h</text>
</a>
</g>
</g>
<!-- Node2&#45;&gt;Node14 -->
<g id="edge16" class="edge"><title>Node2&#45;&gt;Node14</title>
<path fill="none" stroke="midnightblue" d="M834.417,-325.671C989.154,-321.469 1322.77,-308.917 1433,-277 1489.66,-260.594 1549.25,-221.536 1574.06,-204.129"/>
<polygon fill="midnightblue" stroke="midnightblue" points="833.942,-322.182 824.039,-325.947 834.129,-329.18 833.942,-322.182"/>
</g>
<!-- Node15 -->
<g id="node15" class="node"><title>Node15</title>
<g id="a_node15"><a xlink:href="root_2adaptor_8h.html" target="_top" xlink:title="core/visualization\l/root/adaptor.h">
<polygon fill="white" stroke="black" points="1028.5,-246.5 1028.5,-276.5 1127.5,-276.5 1127.5,-246.5 1028.5,-246.5"/>
<text text-anchor="start" x="1036.5" y="-264.5" font-family="Helvetica,sans-Serif" font-size="10.00">core/visualization</text>
<text text-anchor="middle" x="1078" y="-253.5" font-family="Helvetica,sans-Serif" font-size="10.00">/root/adaptor.h</text>
</a>
</g>
</g>
<!-- Node2&#45;&gt;Node15 -->
<g id="edge19" class="edge"><title>Node2&#45;&gt;Node15</title>
<path fill="none" stroke="midnightblue" d="M813.048,-317.167C866.872,-307.531 948.497,-292.37 1019,-277 1022.09,-276.326 1025.27,-275.611 1028.47,-274.873"/>
<polygon fill="midnightblue" stroke="midnightblue" points="812.228,-313.758 802.999,-318.96 813.458,-320.65 812.228,-313.758"/>
</g>
<!-- Node17 -->
<g id="node17" class="node"><title>Node17</title>
<g id="a_node17"><a xlink:href="exporter_8cc.html" target="_top" xlink:title="core/exporter.cc">
<polygon fill="white" stroke="black" points="744,-252 744,-271 838,-271 838,-252 744,-252"/>
<text text-anchor="middle" x="791" y="-259" font-family="Helvetica,sans-Serif" font-size="10.00">core/exporter.cc</text>
</a>
</g>
</g>
<!-- Node2&#45;&gt;Node17 -->
<g id="edge25" class="edge"><title>Node2&#45;&gt;Node17</title>
<path fill="none" stroke="midnightblue" d="M763.942,-310.035C771.105,-297.45 780.465,-281.007 786.089,-271.127"/>
<polygon fill="midnightblue" stroke="midnightblue" points="760.895,-308.312 758.99,-318.734 766.979,-311.775 760.895,-308.312"/>
</g>
<!-- Node18 -->
<g id="node18" class="node"><title>Node18</title>
<g id="a_node18"><a xlink:href="displacement__op__cuda_8h.html" target="_top" xlink:title="core/operation/displacement\l_op_cuda.h">
<polygon fill="white" stroke="black" points="856,-246.5 856,-276.5 1010,-276.5 1010,-246.5 856,-246.5"/>
<text text-anchor="start" x="864" y="-264.5" font-family="Helvetica,sans-Serif" font-size="10.00">core/operation/displacement</text>
<text text-anchor="middle" x="933" y="-253.5" font-family="Helvetica,sans-Serif" font-size="10.00">_op_cuda.h</text>
</a>
</g>
</g>
<!-- Node2&#45;&gt;Node18 -->
<g id="edge27" class="edge"><title>Node2&#45;&gt;Node18</title>
<path fill="none" stroke="midnightblue" d="M787.469,-315.346C817.81,-304.329 862.522,-288.093 894.369,-276.528"/>
<polygon fill="midnightblue" stroke="midnightblue" points="785.975,-312.165 777.77,-318.869 788.364,-318.745 785.975,-312.165"/>
</g>
<!-- Node19 -->
<g id="node19" class="node"><title>Node19</title>
<g id="a_node19"><a xlink:href="paraview_2adaptor_8h.html" target="_top" xlink:title="core/visualization\l/paraview/adaptor.h">
<polygon fill="white" stroke="black" points="1281,-246.5 1281,-276.5 1391,-276.5 1391,-246.5 1281,-246.5"/>
<text text-anchor="start" x="1289" y="-264.5" font-family="Helvetica,sans-Serif" font-size="10.00">core/visualization</text>
<text text-anchor="middle" x="1336" y="-253.5" font-family="Helvetica,sans-Serif" font-size="10.00">/paraview/adaptor.h</text>
</a>
</g>
</g>
<!-- Node2&#45;&gt;Node19 -->
<g id="edge32" class="edge"><title>Node2&#45;&gt;Node19</title>
<path fill="none" stroke="midnightblue" d="M834.396,-322.7C936.401,-315.912 1117.53,-301.519 1271,-277 1274.2,-276.489 1277.47,-275.917 1280.77,-275.302"/>
<polygon fill="midnightblue" stroke="midnightblue" points="833.92,-319.224 824.171,-323.373 834.379,-326.209 833.92,-319.224"/>
</g>
<!-- Node21 -->
<g id="node21" class="node"><title>Node21</title>
<g id="a_node21"><a xlink:href="neuron__soma_8cc.html" target="_top" xlink:title="neuroscience/neuron\l_soma.cc">
<polygon fill="white" stroke="black" points="1145.5,-246.5 1145.5,-276.5 1262.5,-276.5 1262.5,-246.5 1145.5,-246.5"/>
<text text-anchor="start" x="1153.5" y="-264.5" font-family="Helvetica,sans-Serif" font-size="10.00">neuroscience/neuron</text>
<text text-anchor="middle" x="1204" y="-253.5" font-family="Helvetica,sans-Serif" font-size="10.00">_soma.cc</text>
</a>
</g>
</g>
<!-- Node2&#45;&gt;Node21 -->
<g id="edge34" class="edge"><title>Node2&#45;&gt;Node21</title>
<path fill="none" stroke="midnightblue" d="M834.48,-318.724C911.979,-309.834 1032.37,-294.87 1136,-277 1139.09,-276.467 1142.26,-275.892 1145.45,-275.29"/>
<polygon fill="midnightblue" stroke="midnightblue" points="833.845,-315.274 824.306,-319.885 834.638,-322.229 833.845,-315.274"/>
</g>
<!-- Node3&#45;&gt;Node4 -->
<g id="edge3" class="edge"><title>Node3&#45;&gt;Node4</title>
<path fill="none" stroke="midnightblue" d="M496.369,-237.632C503.13,-226.067 510.936,-212.714 515.917,-204.195"/>
<polygon fill="midnightblue" stroke="midnightblue" points="493.271,-235.997 491.245,-246.396 499.314,-239.529 493.271,-235.997"/>
</g>
<!-- Node4&#45;&gt;Node5 -->
<g id="edge4" class="edge"><title>Node4&#45;&gt;Node5</title>
<path fill="none" stroke="midnightblue" d="M565.335,-189.911C707.34,-178.416 1149.51,-142.624 1284.48,-131.699"/>
<polygon fill="midnightblue" stroke="midnightblue" points="564.932,-186.432 555.247,-190.728 565.497,-193.409 564.932,-186.432"/>
</g>
<!-- Node4&#45;&gt;Node6 -->
<g id="edge5" class="edge"><title>Node4&#45;&gt;Node6</title>
<path fill="none" stroke="midnightblue" d="M476.987,-188.659C405.47,-180.581 259.676,-163.228 137,-143 134.068,-142.516 131.073,-142.003 128.051,-141.468"/>
<polygon fill="midnightblue" stroke="midnightblue" points="476.659,-192.144 486.988,-189.783 477.441,-185.188 476.659,-192.144"/>
</g>
<!-- Node4&#45;&gt;Node7 -->
<g id="edge6" class="edge"><title>Node4&#45;&gt;Node7</title>
<path fill="none" stroke="midnightblue" d="M477.005,-183.871C419.228,-171.227 318.65,-149.215 263.305,-137.102"/>
<polygon fill="midnightblue" stroke="midnightblue" points="476.413,-187.325 486.93,-186.044 477.91,-180.487 476.413,-187.325"/>
</g>
<!-- Node9 -->
<g id="node9" class="node"><title>Node9</title>
<g id="a_node9"><a xlink:href="displacement__op__cpu_8h.html" target="_top" xlink:title="core/operation/displacement\l_op_cpu.h">
<polygon fill="white" stroke="black" points="320,-112.5 320,-142.5 474,-142.5 474,-112.5 320,-112.5"/>
<text text-anchor="start" x="328" y="-130.5" font-family="Helvetica,sans-Serif" font-size="10.00">core/operation/displacement</text>
<text text-anchor="middle" x="397" y="-119.5" font-family="Helvetica,sans-Serif" font-size="10.00">_op_cpu.h</text>
</a>
</g>
</g>
<!-- Node4&#45;&gt;Node9 -->
<g id="edge8" class="edge"><title>Node4&#45;&gt;Node9</title>
<path fill="none" stroke="midnightblue" d="M495.617,-180.194C474.759,-169.261 445.284,-153.81 423.997,-142.652"/>
<polygon fill="midnightblue" stroke="midnightblue" points="494.052,-183.326 504.534,-184.869 497.302,-177.126 494.052,-183.326"/>
</g>
<!-- Node10 -->
<g id="node10" class="node"><title>Node10</title>
<g id="a_node10"><a xlink:href="displacement__op_8h.html" target="_top" xlink:title="core/operation/displacement_op.h">
<polygon fill="white" stroke="black" points="412,-56.5 412,-75.5 592,-75.5 592,-56.5 412,-56.5"/>
<text text-anchor="middle" x="502" y="-63.5" font-family="Helvetica,sans-Serif" font-size="10.00">core/operation/displacement_op.h</text>
</a>
</g>
</g>
<!-- Node4&#45;&gt;Node10 -->
<g id="edge11" class="edge"><title>Node4&#45;&gt;Node10</title>
<path fill="none" stroke="midnightblue" d="M518.192,-174.806C514.027,-147.076 506.375,-96.1279 503.315,-75.7557"/>
<polygon fill="midnightblue" stroke="midnightblue" points="514.747,-175.436 519.694,-184.805 521.67,-174.396 514.747,-175.436"/>
</g>
<!-- Node4&#45;&gt;Node11 -->
<g id="edge12" class="edge"><title>Node4&#45;&gt;Node11</title>
<path fill="none" stroke="midnightblue" d="M540.049,-178.213C556.008,-165.407 578.213,-147.588 591.249,-137.127"/>
<polygon fill="midnightblue" stroke="midnightblue" points="537.533,-175.745 531.924,-184.734 541.914,-181.205 537.533,-175.745"/>
</g>
<!-- Node4&#45;&gt;Node12 -->
<g id="edge13" class="edge"><title>Node4&#45;&gt;Node12</title>
<path fill="none" stroke="midnightblue" d="M561.137,-182.058C599.793,-171.037 658.347,-154.344 699.794,-142.528"/>
<polygon fill="midnightblue" stroke="midnightblue" points="559.934,-178.761 551.277,-184.869 561.853,-185.493 559.934,-178.761"/>
</g>
<!-- Node4&#45;&gt;Node13 -->
<g id="edge14" class="edge"><title>Node4&#45;&gt;Node13</title>
<path fill="none" stroke="midnightblue" d="M565.335,-186.687C644.087,-174.586 807.967,-149.403 891.94,-136.5"/>
<polygon fill="midnightblue" stroke="midnightblue" points="564.61,-183.258 555.258,-188.236 565.673,-190.176 564.61,-183.258"/>
</g>
<!-- Node7&#45;&gt;Node8 -->
<g id="edge7" class="edge"><title>Node7&#45;&gt;Node8</title>
<path fill="none" stroke="midnightblue" d="M251.558,-113.57C286.192,-97.8082 347.8,-71.3783 403,-56 476.499,-35.5237 564.209,-22.8471 617.996,-16.3596"/>
<polygon fill="midnightblue" stroke="midnightblue" points="249.748,-110.55 242.122,-117.905 252.67,-116.911 249.748,-110.55"/>
</g>
<!-- Node9&#45;&gt;Node10 -->
<g id="edge9" class="edge"><title>Node9&#45;&gt;Node10</title>
<path fill="none" stroke="midnightblue" d="M430.776,-107.36C449.599,-96.694 472.117,-83.9338 486.722,-75.6578"/>
<polygon fill="midnightblue" stroke="midnightblue" points="428.858,-104.424 421.884,-112.399 432.309,-110.514 428.858,-104.424"/>
</g>
<!-- Node10&#45;&gt;Node8 -->
<g id="edge10" class="edge"><title>Node10&#45;&gt;Node8</title>
<path fill="none" stroke="midnightblue" d="M537.953,-53.3044C569.232,-43.1294 613.821,-28.6246 641.82,-19.5164"/>
<polygon fill="midnightblue" stroke="midnightblue" points="536.73,-50.0217 528.303,-56.4435 538.895,-56.6783 536.73,-50.0217"/>
</g>
<!-- Node14&#45;&gt;Node5 -->
<g id="edge17" class="edge"><title>Node14&#45;&gt;Node5</title>
<path fill="none" stroke="midnightblue" d="M1541.6,-182.484C1489.92,-169.663 1405.67,-148.76 1358.6,-137.083"/>
<polygon fill="midnightblue" stroke="midnightblue" points="1540.93,-185.925 1551.48,-184.936 1542.62,-179.131 1540.93,-185.925"/>
</g>
<!-- Node15&#45;&gt;Node8 -->
<g id="edge22" class="edge"><title>Node15&#45;&gt;Node8</title>
<path fill="none" stroke="midnightblue" d="M1072.28,-236.467C1063.32,-203.872 1042.95,-145.842 1005,-112 923.062,-38.9281 790.044,-18.6766 718.074,-13.0953"/>
<polygon fill="midnightblue" stroke="midnightblue" points="1068.98,-237.682 1074.89,-246.475 1075.75,-235.915 1068.98,-237.682"/>
</g>
<!-- Node15&#45;&gt;Node13 -->
<g id="edge23" class="edge"><title>Node15&#45;&gt;Node13</title>
<path fill="none" stroke="midnightblue" d="M1055.53,-239.349C1046.05,-230.359 1034.93,-219.725 1025,-210 998.203,-183.762 967.08,-152.107 952.437,-137.142"/>
<polygon fill="midnightblue" stroke="midnightblue" points="1053.38,-242.128 1063.05,-246.458 1058.19,-237.043 1053.38,-242.128"/>
</g>
<!-- Node16 -->
<g id="node16" class="node"><title>Node16</title>
<g id="a_node16"><a xlink:href="notebook__util_8h.html" target="_top" xlink:title="core/visualization\l/root/notebook_util.h">
<polygon fill="white" stroke="black" points="1126,-179.5 1126,-209.5 1242,-209.5 1242,-179.5 1126,-179.5"/>
<text text-anchor="start" x="1134" y="-197.5" font-family="Helvetica,sans-Serif" font-size="10.00">core/visualization</text>
<text text-anchor="middle" x="1184" y="-186.5" font-family="Helvetica,sans-Serif" font-size="10.00">/root/notebook_util.h</text>
</a>
</g>
</g>
<!-- Node15&#45;&gt;Node16 -->
<g id="edge20" class="edge"><title>Node15&#45;&gt;Node16</title>
<path fill="none" stroke="midnightblue" d="M1109.78,-241.015C1126.27,-230.9 1146.05,-218.77 1161.04,-209.577"/>
<polygon fill="midnightblue" stroke="midnightblue" points="1107.7,-238.185 1101,-246.396 1111.35,-244.152 1107.7,-238.185"/>
</g>
<!-- Node16&#45;&gt;Node5 -->
<g id="edge21" class="edge"><title>Node16&#45;&gt;Node5</title>
<path fill="none" stroke="midnightblue" d="M1223.56,-175.131C1250.51,-162.62 1284.93,-146.64 1305.68,-137.007"/>
<polygon fill="midnightblue" stroke="midnightblue" points="1221.97,-172.01 1214.38,-179.396 1224.92,-178.359 1221.97,-172.01"/>
</g>
<!-- Node20 -->
<g id="node20" class="node"><title>Node20</title>
<g id="a_node20"><a xlink:href="adaptor_8cc.html" target="_top" xlink:title="core/visualization\l/paraview/adaptor.cc">
<polygon fill="white" stroke="black" points="1275.5,-179.5 1275.5,-209.5 1390.5,-209.5 1390.5,-179.5 1275.5,-179.5"/>
<text text-anchor="start" x="1283.5" y="-197.5" font-family="Helvetica,sans-Serif" font-size="10.00">core/visualization</text>
<text text-anchor="middle" x="1333" y="-186.5" font-family="Helvetica,sans-Serif" font-size="10.00">/paraview/adaptor.cc</text>
</a>
</g>
</g>
<!-- Node19&#45;&gt;Node20 -->
<g id="edge33" class="edge"><title>Node19&#45;&gt;Node20</title>
<path fill="none" stroke="midnightblue" d="M1334.89,-236.403C1334.47,-227.37 1334.01,-217.408 1333.65,-209.577"/>
<polygon fill="midnightblue" stroke="midnightblue" points="1331.39,-236.568 1335.35,-246.396 1338.38,-236.245 1331.39,-236.568"/>
</g>
</g>
</svg>
