<?xml version="1.0" encoding="UTF-8" standalone="no"?>
<!DOCTYPE svg PUBLIC "-//W3C//DTD SVG 1.1//EN"
 "http://www.w3.org/Graphics/SVG/1.1/DTD/svg11.dtd">
<!-- Generated by graphviz version 2.38.0 (20140413.2041)
 -->
<!-- Title: core/container/so_uid_map.h Pages: 1 -->
<svg width="417pt" height="330pt"
 viewBox="0.00 0.00 416.50 330.00" xmlns="http://www.w3.org/2000/svg" xmlns:xlink="http://www.w3.org/1999/xlink">
<g id="graph0" class="graph" transform="scale(1 1) rotate(0) translate(4 326)">
<title>core/container/so_uid_map.h</title>
<polygon fill="white" stroke="none" points="-4,4 -4,-326 412.5,-326 412.5,4 -4,4"/>
<!-- Node1 -->
<g id="node1" class="node"><title>Node1</title>
<polygon fill="#bfbfbf" stroke="black" points="38,-291.5 38,-321.5 157,-321.5 157,-291.5 38,-291.5"/>
<text text-anchor="start" x="46" y="-309.5" font-family="Helvetica,sans-Serif" font-size="10.00">core/container/so_uid</text>
<text text-anchor="middle" x="97.5" y="-298.5" font-family="Helvetica,sans-Serif" font-size="10.00">_map.h</text>
</g>
<!-- Node2 -->
<g id="node2" class="node"><title>Node2</title>
<polygon fill="white" stroke="#bfbfbf" points="56.5,-168.5 56.5,-187.5 98.5,-187.5 98.5,-168.5 56.5,-168.5"/>
<text text-anchor="middle" x="77.5" y="-175.5" font-family="Helvetica,sans-Serif" font-size="10.00">limits</text>
</g>
<!-- Node1&#45;&gt;Node2 -->
<g id="edge1" class="edge"><title>Node1&#45;&gt;Node2</title>
<path fill="none" stroke="midnightblue" d="M85.2649,-291.125C77.9616,-281.568 69.3757,-268.357 65.5,-255 59.8746,-235.613 65.0728,-212.63 70.276,-197.053"/>
<polygon fill="midnightblue" stroke="midnightblue" points="73.5901,-198.181 73.746,-187.587 67.0178,-195.772 73.5901,-198.181"/>
</g>
<!-- Node3 -->
<g id="node3" class="node"><title>Node3</title>
<polygon fill="white" stroke="#bfbfbf" points="74,-230 74,-249 121,-249 121,-230 74,-230"/>
<text text-anchor="middle" x="97.5" y="-237" font-family="Helvetica,sans-Serif" font-size="10.00">vector</text>
</g>
<!-- Node1&#45;&gt;Node3 -->
<g id="edge2" class="edge"><title>Node1&#45;&gt;Node3</title>
<path fill="none" stroke="midnightblue" d="M97.5,-291.396C97.5,-282.064 97.5,-269.714 97.5,-259.517"/>
<polygon fill="midnightblue" stroke="midnightblue" points="101,-259.195 97.5,-249.195 94.0001,-259.195 101,-259.195"/>
</g>
<!-- Node4 -->
<g id="node4" class="node"><title>Node4</title>
<g id="a_node4"><a xlink:href="so__uid_8h.html" target="_top" xlink:title="core/sim_object/so\l_uid.h">
<polygon fill="white" stroke="black" points="139,-224.5 139,-254.5 246,-254.5 246,-224.5 139,-224.5"/>
<text text-anchor="start" x="147" y="-242.5" font-family="Helvetica,sans-Serif" font-size="10.00">core/sim_object/so</text>
<text text-anchor="middle" x="192.5" y="-231.5" font-family="Helvetica,sans-Serif" font-size="10.00">_uid.h</text>
</a>
</g>
</g>
<!-- Node1&#45;&gt;Node4 -->
<g id="edge3" class="edge"><title>Node1&#45;&gt;Node4</title>
<path fill="none" stroke="midnightblue" d="M118.114,-291.396C131.434,-282.282 148.961,-270.29 163.655,-260.236"/>
<polygon fill="midnightblue" stroke="midnightblue" points="165.65,-263.112 171.927,-254.577 161.697,-257.335 165.65,-263.112"/>
</g>
<!-- Node4&#45;&gt;Node2 -->
<g id="edge4" class="edge"><title>Node4&#45;&gt;Node2</title>
<path fill="none" stroke="midnightblue" d="M165.247,-224.399C146.468,-214.684 121.674,-201.855 103.232,-192.314"/>
<polygon fill="midnightblue" stroke="midnightblue" points="104.724,-189.145 94.2335,-187.658 101.507,-195.362 104.724,-189.145"/>
</g>
<!-- Node5 -->
<g id="node5" class="node"><title>Node5</title>
<g id="a_node5"><a xlink:href="root_8h.html" target="_top" xlink:title="core/util/root.h">
<polygon fill="white" stroke="black" points="149.5,-168.5 149.5,-187.5 235.5,-187.5 235.5,-168.5 149.5,-168.5"/>
<text text-anchor="middle" x="192.5" y="-175.5" font-family="Helvetica,sans-Serif" font-size="10.00">core/util/root.h</text>
</a>
</g>
</g>
<!-- Node4&#45;&gt;Node5 -->
<g id="edge5" class="edge"><title>Node4&#45;&gt;Node5</title>
<path fill="none" stroke="midnightblue" d="M192.5,-224.399C192.5,-216.466 192.5,-206.458 192.5,-197.858"/>
<polygon fill="midnightblue" stroke="midnightblue" points="196,-197.658 192.5,-187.658 189,-197.658 196,-197.658"/>
</g>
<!-- Node6 -->
<g id="node6" class="node"><title>Node6</title>
<g id="a_node6"><a xlink:href="log_8h.html" target="_top" xlink:title="core/util/log.h">
<polygon fill="white" stroke="black" points="152,-112.5 152,-131.5 233,-131.5 233,-112.5 152,-112.5"/>
<text text-anchor="middle" x="192.5" y="-119.5" font-family="Helvetica,sans-Serif" font-size="10.00">core/util/log.h</text>
</a>
</g>
</g>
<!-- Node5&#45;&gt;Node6 -->
<g id="edge6" class="edge"><title>Node5&#45;&gt;Node6</title>
<path fill="none" stroke="midnightblue" d="M192.5,-168.083C192.5,-161.006 192.5,-150.861 192.5,-141.986"/>
<polygon fill="midnightblue" stroke="midnightblue" points="196,-141.751 192.5,-131.751 189,-141.751 196,-141.751"/>
</g>
<!-- Node7 -->
<g id="node7" class="node"><title>Node7</title>
<polygon fill="white" stroke="#bfbfbf" points="0,-56.5 0,-75.5 53,-75.5 53,-56.5 0,-56.5"/>
<text text-anchor="middle" x="26.5" y="-63.5" font-family="Helvetica,sans-Serif" font-size="10.00">TError.h</text>
</g>
<!-- Node6&#45;&gt;Node7 -->
<g id="edge7" class="edge"><title>Node6&#45;&gt;Node7</title>
<path fill="none" stroke="midnightblue" d="M166.197,-112.444C138.149,-103.32 93.5556,-88.8133 62.3158,-78.6509"/>
<polygon fill="midnightblue" stroke="midnightblue" points="63.2724,-75.2816 52.6801,-75.5164 61.1069,-81.9383 63.2724,-75.2816"/>
</g>
<!-- Node8 -->
<g id="node8" class="node"><title>Node8</title>
<polygon fill="white" stroke="#bfbfbf" points="71,-56.5 71,-75.5 116,-75.5 116,-56.5 71,-56.5"/>
<text text-anchor="middle" x="93.5" y="-63.5" font-family="Helvetica,sans-Serif" font-size="10.00">cstdio</text>
</g>
<!-- Node6&#45;&gt;Node8 -->
<g id="edge8" class="edge"><title>Node6&#45;&gt;Node8</title>
<path fill="none" stroke="midnightblue" d="M176.594,-112.324C160.862,-103.743 136.558,-90.486 118.291,-80.5224"/>
<polygon fill="midnightblue" stroke="midnightblue" points="119.822,-77.3704 109.367,-75.6545 116.47,-83.5157 119.822,-77.3704"/>
</g>
<!-- Node9 -->
<g id="node9" class="node"><title>Node9</title>
<polygon fill="white" stroke="#bfbfbf" points="134,-56.5 134,-75.5 181,-75.5 181,-56.5 134,-56.5"/>
<text text-anchor="middle" x="157.5" y="-63.5" font-family="Helvetica,sans-Serif" font-size="10.00">cstdlib</text>
</g>
<!-- Node6&#45;&gt;Node9 -->
<g id="edge9" class="edge"><title>Node6&#45;&gt;Node9</title>
<path fill="none" stroke="midnightblue" d="M186.72,-112.083C181.828,-104.534 174.673,-93.4948 168.667,-84.2298"/>
<polygon fill="midnightblue" stroke="midnightblue" points="171.548,-82.239 163.172,-75.7511 165.674,-86.0463 171.548,-82.239"/>
</g>
<!-- Node10 -->
<g id="node10" class="node"><title>Node10</title>
<polygon fill="white" stroke="#bfbfbf" points="199,-56.5 199,-75.5 258,-75.5 258,-56.5 199,-56.5"/>
<text text-anchor="middle" x="228.5" y="-63.5" font-family="Helvetica,sans-Serif" font-size="10.00">iostream</text>
</g>
<!-- Node6&#45;&gt;Node10 -->
<g id="edge10" class="edge"><title>Node6&#45;&gt;Node10</title>
<path fill="none" stroke="midnightblue" d="M198.445,-112.083C203.477,-104.534 210.837,-93.4948 217.013,-84.2298"/>
<polygon fill="midnightblue" stroke="midnightblue" points="220.031,-86.0131 222.666,-75.7511 214.207,-82.1301 220.031,-86.0131"/>
</g>
<!-- Node11 -->
<g id="node11" class="node"><title>Node11</title>
<polygon fill="white" stroke="#bfbfbf" points="267.5,-0.5 267.5,-19.5 311.5,-19.5 311.5,-0.5 267.5,-0.5"/>
<text text-anchor="middle" x="289.5" y="-7.5" font-family="Helvetica,sans-Serif" font-size="10.00">string</text>
</g>
<!-- Node6&#45;&gt;Node11 -->
<g id="edge11" class="edge"><title>Node6&#45;&gt;Node11</title>
<path fill="none" stroke="midnightblue" d="M215.126,-112.473C231.763,-105.135 253.779,-93.0249 267.5,-76 278.236,-62.679 283.85,-43.8485 286.71,-29.8819"/>
<polygon fill="midnightblue" stroke="midnightblue" points="290.177,-30.3764 288.459,-19.9219 283.282,-29.166 290.177,-30.3764"/>
</g>
<!-- Node12 -->
<g id="node12" class="node"><title>Node12</title>
<g id="a_node12"><a xlink:href="string_8h.html" target="_top" xlink:title="core/util/string.h">
<polygon fill="white" stroke="black" points="314.5,-56.5 314.5,-75.5 408.5,-75.5 408.5,-56.5 314.5,-56.5"/>
<text text-anchor="middle" x="361.5" y="-63.5" font-family="Helvetica,sans-Serif" font-size="10.00">core/util/string.h</text>
</a>
</g>
</g>
<!-- Node6&#45;&gt;Node12 -->
<g id="edge12" class="edge"><title>Node6&#45;&gt;Node12</title>
<path fill="none" stroke="midnightblue" d="M219.279,-112.444C247.833,-103.32 293.233,-88.8133 325.037,-78.6509"/>
<polygon fill="midnightblue" stroke="midnightblue" points="326.386,-81.8941 334.847,-75.5164 324.256,-75.2262 326.386,-81.8941"/>
</g>
<!-- Node12&#45;&gt;Node11 -->
<g id="edge14" class="edge"><title>Node12&#45;&gt;Node11</title>
<path fill="none" stroke="midnightblue" d="M349.932,-56.324C339.08,-48.1849 322.619,-35.8395 309.617,-26.0874"/>
<polygon fill="midnightblue" stroke="midnightblue" points="311.379,-23.0339 301.279,-19.8339 307.179,-28.6339 311.379,-23.0339"/>
</g>
<!-- Node13 -->
<g id="node13" class="node"><title>Node13</title>
<polygon fill="white" stroke="#bfbfbf" points="333.5,-0.5 333.5,-19.5 389.5,-19.5 389.5,-0.5 333.5,-0.5"/>
<text text-anchor="middle" x="361.5" y="-7.5" font-family="Helvetica,sans-Serif" font-size="10.00">sstream</text>
</g>
<!-- Node12&#45;&gt;Node13 -->
<g id="edge13" class="edge"><title>Node12&#45;&gt;Node13</title>
<path fill="none" stroke="midnightblue" d="M361.5,-56.083C361.5,-49.0059 361.5,-38.8611 361.5,-29.9865"/>
<polygon fill="midnightblue" stroke="midnightblue" points="365,-29.751 361.5,-19.7511 358,-29.7511 365,-29.751"/>
</g>
</g>
</svg>
