<?xml version="1.0" encoding="UTF-8" standalone="no"?>
<!DOCTYPE svg PUBLIC "-//W3C//DTD SVG 1.1//EN"
 "http://www.w3.org/Graphics/SVG/1.1/DTD/svg11.dtd">
<!-- Generated by graphviz version 2.38.0 (20140413.2041)
 -->
<!-- Title: bdm::FirstOp Pages: 1 -->
<svg width="121pt" height="151pt"
 viewBox="0.00 0.00 121.00 151.00" xmlns="http://www.w3.org/2000/svg" xmlns:xlink="http://www.w3.org/1999/xlink">
<g id="graph0" class="graph" transform="scale(1 1) rotate(0) translate(4 147)">
<title>bdm::FirstOp</title>
<polygon fill="white" stroke="none" points="-4,4 -4,-147 117,-147 117,4 -4,4"/>
<!-- Node1 -->
<g id="node1" class="node"><title>Node1</title>
<polygon fill="#bfbfbf" stroke="black" points="18,-0.5 18,-19.5 95,-19.5 95,-0.5 18,-0.5"/>
<text text-anchor="middle" x="56.5" y="-7.5" font-family="Helvetica,sans-Serif" font-size="10.00">bdm::FirstOp</text>
</g>
<!-- Node2 -->
<g id="node2" class="node"><title>Node2</title>
<g id="a_node2"><a xlink:href="structbdm_1_1Operation.html" target="_top" xlink:title="bdm::Operation">
<polygon fill="white" stroke="black" points="10.5,-56.5 10.5,-75.5 102.5,-75.5 102.5,-56.5 10.5,-56.5"/>
<text text-anchor="middle" x="56.5" y="-63.5" font-family="Helvetica,sans-Serif" font-size="10.00">bdm::Operation</text>
</a>
</g>
</g>
<!-- Node2&#45;&gt;Node1 -->
<g id="edge1" class="edge"><title>Node2&#45;&gt;Node1</title>
<path fill="none" stroke="midnightblue" d="M56.5,-45.8045C56.5,-36.9102 56.5,-26.7798 56.5,-19.7511"/>
<polygon fill="midnightblue" stroke="midnightblue" points="53.0001,-46.083 56.5,-56.083 60.0001,-46.083 53.0001,-46.083"/>
</g>
<!-- Node3 -->
<g id="node3" class="node"><title>Node3</title>
<g id="a_node3"><a xlink:href="structbdm_1_1Functor.html" target="_top" xlink:title="bdm::Functor\&lt; void,\l SimObject * \&gt;">
<polygon fill="white" stroke="black" points="0,-112.5 0,-142.5 113,-142.5 113,-112.5 0,-112.5"/>
<text text-anchor="start" x="8" y="-130.5" font-family="Helvetica,sans-Serif" font-size="10.00">bdm::Functor&lt; void,</text>
<text text-anchor="middle" x="56.5" y="-119.5" font-family="Helvetica,sans-Serif" font-size="10.00"> SimObject * &gt;</text>
</a>
</g>
</g>
<!-- Node3&#45;&gt;Node2 -->
<g id="edge2" class="edge"><title>Node3&#45;&gt;Node2</title>
<path fill="none" stroke="midnightblue" d="M56.5,-102.289C56.5,-92.857 56.5,-82.6548 56.5,-75.6578"/>
<polygon fill="midnightblue" stroke="midnightblue" points="53.0001,-102.399 56.5,-112.399 60.0001,-102.399 53.0001,-102.399"/>
</g>
</g>
</svg>
