<?xml version="1.0" encoding="UTF-8" standalone="no"?>
<!DOCTYPE svg PUBLIC "-//W3C//DTD SVG 1.1//EN"
 "http://www.w3.org/Graphics/SVG/1.1/DTD/svg11.dtd">
<!-- Generated by graphviz version 2.38.0 (20140413.2041)
 -->
<!-- Title: bdm::Grid::Box Pages: 1 -->
<svg width="202pt" height="95pt"
 viewBox="0.00 0.00 201.50 95.00" xmlns="http://www.w3.org/2000/svg" xmlns:xlink="http://www.w3.org/1999/xlink">
<g id="graph0" class="graph" transform="scale(1 1) rotate(0) translate(4 91)">
<title>bdm::Grid::Box</title>
<polygon fill="white" stroke="none" points="-4,4 -4,-91 197.5,-91 197.5,4 -4,4"/>
<!-- Node1 -->
<g id="node1" class="node"><title>Node1</title>
<polygon fill="#bfbfbf" stroke="black" points="54.5,-0.5 54.5,-19.5 142.5,-19.5 142.5,-0.5 54.5,-0.5"/>
<text text-anchor="middle" x="98.5" y="-7.5" font-family="Helvetica,sans-Serif" font-size="10.00">bdm::Grid::Box</text>
</g>
<!-- Node2 -->
<g id="node2" class="node"><title>Node2</title>
<g id="a_node2"><a xlink:href="classbdm_1_1SoHandle.html" target="_top" xlink:title="bdm::SoHandle">
<polygon fill="white" stroke="black" points="0,-67.5 0,-86.5 91,-86.5 91,-67.5 0,-67.5"/>
<text text-anchor="middle" x="45.5" y="-74.5" font-family="Helvetica,sans-Serif" font-size="10.00">bdm::SoHandle</text>
</a>
</g>
</g>
<!-- Node2&#45;&gt;Node1 -->
<g id="edge1" class="edge"><title>Node2&#45;&gt;Node1</title>
<path fill="none" stroke="#9a32cd" stroke-dasharray="5,2" d="M59.141,-59.2705C69.4746,-46.5972 83.2515,-29.701 91.4654,-19.6273"/>
<polygon fill="#9a32cd" stroke="#9a32cd" points="56.2547,-57.2718 52.6478,-67.2338 61.6798,-61.6954 56.2547,-57.2718"/>
<text text-anchor="middle" x="91" y="-41" font-family="Helvetica,sans-Serif" font-size="10.00"> start_</text>
</g>
<!-- Node3 -->
<g id="node3" class="node"><title>Node3</title>
<g id="a_node3"><a xlink:href="classbdm_1_1Spinlock.html" target="_top" xlink:title="bdm::Spinlock">
<polygon fill="white" stroke="black" points="109.5,-67.5 109.5,-86.5 193.5,-86.5 193.5,-67.5 109.5,-67.5"/>
<text text-anchor="middle" x="151.5" y="-74.5" font-family="Helvetica,sans-Serif" font-size="10.00">bdm::Spinlock</text>
</a>
</g>
</g>
<!-- Node3&#45;&gt;Node1 -->
<g id="edge2" class="edge"><title>Node3&#45;&gt;Node1</title>
<path fill="none" stroke="#9a32cd" stroke-dasharray="5,2" d="M137.859,-59.2705C127.525,-46.5972 113.748,-29.701 105.535,-19.6273"/>
<polygon fill="#9a32cd" stroke="#9a32cd" points="135.32,-61.6954 144.352,-67.2338 140.745,-57.2718 135.32,-61.6954"/>
<text text-anchor="middle" x="142.5" y="-41" font-family="Helvetica,sans-Serif" font-size="10.00"> lock_</text>
</g>
</g>
</svg>
