<?xml version="1.0" encoding="UTF-8" standalone="no"?>
<!DOCTYPE svg PUBLIC "-//W3C//DTD SVG 1.1//EN"
 "http://www.w3.org/Graphics/SVG/1.1/DTD/svg11.dtd">
<!-- Generated by graphviz version 2.40.1 (20161225.0304)
 -->
<!-- Title: bdm::Cell::DisplacementFunctor Pages: 1 -->
<svg width="166pt" height="106pt"
 viewBox="0.00 0.00 166.00 106.00" xmlns="http://www.w3.org/2000/svg" xmlns:xlink="http://www.w3.org/1999/xlink">
<g id="graph0" class="graph" transform="scale(1 1) rotate(0) translate(4 102)">
<title>bdm::Cell::DisplacementFunctor</title>
<polygon fill="#ffffff" stroke="transparent" points="-4,4 -4,-102 162,-102 162,4 -4,4"/>
<!-- Node0 -->
<g id="node1" class="node">
<title>Node0</title>
<polygon fill="#bfbfbf" stroke="#000000" points="0,-.5 0,-19.5 158,-19.5 158,-.5 0,-.5"/>
<text text-anchor="middle" x="79" y="-7.5" font-family="Helvetica,sans-Serif" font-size="10.00" fill="#000000">bdm::Cell::DisplacementFunctor</text>
</g>
<!-- Node1 -->
<g id="node2" class="node">
<title>Node1</title>
<g id="a_node2"><a xlink:href="structbdm_1_1Functor.html" target="_top" xlink:title="bdm::Functor\&lt; void,\l const SimObject *,\l double \&gt;">
<polygon fill="#ffffff" stroke="#000000" points="27,-56.5 27,-97.5 131,-97.5 131,-56.5 27,-56.5"/>
<text text-anchor="start" x="35" y="-85.5" font-family="Helvetica,sans-Serif" font-size="10.00" fill="#000000">bdm::Functor&lt; void,</text>
<text text-anchor="start" x="35" y="-74.5" font-family="Helvetica,sans-Serif" font-size="10.00" fill="#000000"> const SimObject *,</text>
<text text-anchor="middle" x="79" y="-63.5" font-family="Helvetica,sans-Serif" font-size="10.00" fill="#000000"> double &gt;</text>
</a>
</g>
</g>
<!-- Node1&#45;&gt;Node0 -->
<g id="edge1" class="edge">
<title>Node1&#45;&gt;Node0</title>
<path fill="none" stroke="#191970" d="M79,-46.0909C79,-36.5672 79,-26.7625 79,-19.7805"/>
<polygon fill="#191970" stroke="#191970" points="75.5001,-46.168 79,-56.168 82.5001,-46.1681 75.5001,-46.168"/>
</g>
</g>
</svg>
