<?xml version="1.0" encoding="UTF-8" standalone="no"?>
<!DOCTYPE svg PUBLIC "-//W3C//DTD SVG 1.1//EN"
 "http://www.w3.org/Graphics/SVG/1.1/DTD/svg11.dtd">
<!-- Generated by graphviz version 2.38.0 (20140413.2041)
 -->
<!-- Title: bdm::ProcessSimObjectFunctor Pages: 1 -->
<svg width="273pt" height="163pt"
 viewBox="0.00 0.00 273.00 163.00" xmlns="http://www.w3.org/2000/svg" xmlns:xlink="http://www.w3.org/1999/xlink">
<g id="graph0" class="graph" transform="scale(1 1) rotate(0) translate(4 159)">
<title>bdm::ProcessSimObjectFunctor</title>
<polygon fill="white" stroke="none" points="-4,4 -4,-159 269,-159 269,4 -4,4"/>
<!-- Node1 -->
<g id="node1" class="node"><title>Node1</title>
<polygon fill="#bfbfbf" stroke="black" points="15,-0.5 15,-19.5 182,-19.5 182,-0.5 15,-0.5"/>
<text text-anchor="middle" x="98.5" y="-7.5" font-family="Helvetica,sans-Serif" font-size="10.00">bdm::ProcessSimObjectFunctor</text>
</g>
<!-- Node2 -->
<g id="node2" class="node"><title>Node2</title>
<g id="a_node2"><a xlink:href="structbdm_1_1Functor.html" target="_top" xlink:title="bdm::Functor\&lt; void,\l SimObject * \&gt;">
<polygon fill="white" stroke="black" points="0,-67.5 0,-97.5 113,-97.5 113,-67.5 0,-67.5"/>
<text text-anchor="start" x="8" y="-85.5" font-family="Helvetica,sans-Serif" font-size="10.00">bdm::Functor&lt; void,</text>
<text text-anchor="middle" x="56.5" y="-74.5" font-family="Helvetica,sans-Serif" font-size="10.00"> SimObject * &gt;</text>
</a>
</g>
</g>
<!-- Node2&#45;&gt;Node1 -->
<g id="edge1" class="edge"><title>Node2&#45;&gt;Node1</title>
<path fill="none" stroke="midnightblue" d="M70.1271,-58.6259C77.992,-45.4241 87.4373,-29.5696 93.202,-19.8932"/>
<polygon fill="midnightblue" stroke="midnightblue" points="67.1106,-56.8509 64.9993,-67.2333 73.1243,-60.4336 67.1106,-56.8509"/>
</g>
<!-- Node3 -->
<g id="node3" class="node"><title>Node3</title>
<g id="a_node3"><a xlink:href="classbdm_1_1ParaviewAdaptor.html" target="_top" xlink:title="The class that bridges the simulation code with ParaView. ">
<polygon fill="white" stroke="black" points="131.5,-73 131.5,-92 255.5,-92 255.5,-73 131.5,-73"/>
<text text-anchor="middle" x="193.5" y="-80" font-family="Helvetica,sans-Serif" font-size="10.00">bdm::ParaviewAdaptor</text>
</a>
</g>
</g>
<!-- Node3&#45;&gt;Node1 -->
<g id="edge2" class="edge"><title>Node3&#45;&gt;Node1</title>
<path fill="none" stroke="#9a32cd" stroke-dasharray="5,2" d="M173.774,-66.8609C154.595,-52.6288 126.106,-31.4868 110.244,-19.7154"/>
<polygon fill="#9a32cd" stroke="#9a32cd" points="171.735,-69.7065 181.851,-72.8553 175.907,-64.0853 171.735,-69.7065"/>
<text text-anchor="middle" x="159" y="-41" font-family="Helvetica,sans-Serif" font-size="10.00"> pa_</text>
</g>
<!-- Node4 -->
<g id="node4" class="node"><title>Node4</title>
<g id="a_node4"><a xlink:href="classbdm_1_1VisualizationAdaptor.html" target="_top" xlink:title="bdm::VisualizationAdaptor">
<polygon fill="white" stroke="black" points="122,-135.5 122,-154.5 265,-154.5 265,-135.5 122,-135.5"/>
<text text-anchor="middle" x="193.5" y="-142.5" font-family="Helvetica,sans-Serif" font-size="10.00">bdm::VisualizationAdaptor</text>
</a>
</g>
</g>
<!-- Node4&#45;&gt;Node3 -->
<g id="edge3" class="edge"><title>Node4&#45;&gt;Node3</title>
<path fill="none" stroke="#8b1a1a" d="M193.5,-125.003C193.5,-114 193.5,-100.682 193.5,-92.1521"/>
<polygon fill="#8b1a1a" stroke="#8b1a1a" points="190,-125.332 193.5,-135.332 197,-125.332 190,-125.332"/>
</g>
</g>
</svg>
