<?xml version="1.0" encoding="UTF-8" standalone="no"?>
<!DOCTYPE svg PUBLIC "-//W3C//DTD SVG 1.1//EN"
 "http://www.w3.org/Graphics/SVG/1.1/DTD/svg11.dtd">
<!-- Generated by graphviz version 2.40.1 (20161225.0304)
 -->
<!-- Title: bdm::Grid::NeighborIterator Pages: 1 -->
<svg width="1129pt" height="304pt"
 viewBox="0.00 0.00 1129.00 304.27" xmlns="http://www.w3.org/2000/svg" xmlns:xlink="http://www.w3.org/1999/xlink">
<g id="graph0" class="graph" transform="scale(1 1) rotate(0) translate(4 300.2749)">
<title>bdm::Grid::NeighborIterator</title>
<polygon fill="#ffffff" stroke="transparent" points="-4,4 -4,-300.2749 1125,-300.2749 1125,4 -4,4"/>
<!-- Node1 -->
<g id="node1" class="node">
<title>Node1</title>
<polygon fill="#bfbfbf" stroke="#000000" points="986,-37.7749 986,-56.7749 1121,-56.7749 1121,-37.7749 986,-37.7749"/>
<text text-anchor="middle" x="1053.5" y="-44.7749" font-family="Helvetica,sans-Serif" font-size="10.00" fill="#000000">bdm::Grid::NeighborIterator</text>
</g>
<!-- Node2 -->
<g id="node2" class="node">
<title>Node2</title>
<g id="a_node2"><a xlink:href="structbdm_1_1Grid_1_1Box_1_1Iterator.html" target="_top" xlink:title="An iterator that iterates over the cells in this box. ">
<polygon fill="#ffffff" stroke="#000000" points="771,-160.7749 771,-179.7749 890,-179.7749 890,-160.7749 771,-160.7749"/>
<text text-anchor="middle" x="830.5" y="-167.7749" font-family="Helvetica,sans-Serif" font-size="10.00" fill="#000000">bdm::Grid::Box::Iterator</text>
</a>
</g>
</g>
<!-- Node2&#45;&gt;Node1 -->
<g id="edge1" class="edge">
<title>Node2&#45;&gt;Node1</title>
<path fill="none" stroke="#9a32cd" stroke-dasharray="5,2" d="M856.8116,-155.7622C902.931,-130.3242 997.16,-78.3503 1036.0828,-56.8816"/>
<polygon fill="#9a32cd" stroke="#9a32cd" points="855.0644,-152.7288 847.9984,-160.6233 858.4452,-158.8582 855.0644,-152.7288"/>
<text text-anchor="middle" x="938" y="-129.2749" font-family="Helvetica,sans-Serif" font-size="10.00" fill="#000000"> box_iterator_</text>
</g>
<!-- Node3 -->
<g id="node3" class="node">
<title>Node3</title>
<g id="a_node3"><a xlink:href="classbdm_1_1SoHandle.html" target="_top" xlink:title="bdm::SoHandle">
<polygon fill="#ffffff" stroke="#000000" points="0,-188.7749 0,-207.7749 84,-207.7749 84,-188.7749 0,-188.7749"/>
<text text-anchor="middle" x="42" y="-195.7749" font-family="Helvetica,sans-Serif" font-size="10.00" fill="#000000">bdm::SoHandle</text>
</a>
</g>
</g>
<!-- Node3&#45;&gt;Node2 -->
<g id="edge2" class="edge">
<title>Node3&#45;&gt;Node2</title>
<path fill="none" stroke="#9a32cd" stroke-dasharray="5,2" d="M57.7895,-215.0622C83.3693,-240.3458 136.6164,-285.2749 192,-285.2749 192,-285.2749 192,-285.2749 628.5,-285.2749 713.2443,-285.2749 794.8833,-207.8899 821.4862,-180.0797"/>
<polygon fill="#9a32cd" stroke="#9a32cd" points="60.2734,-212.5963 50.7675,-207.9178 55.2811,-217.5031 60.2734,-212.5963"/>
<text text-anchor="middle" x="396" y="-288.2749" font-family="Helvetica,sans-Serif" font-size="10.00" fill="#000000"> current_value_</text>
</g>
<!-- Node8 -->
<g id="node8" class="node">
<title>Node8</title>
<g id="a_node8"><a xlink:href="structbdm_1_1Grid_1_1Box.html" target="_top" xlink:title="A single unit cube of the grid. ">
<polygon fill="#ffffff" stroke="#000000" points="150.5,-66.7749 150.5,-85.7749 233.5,-85.7749 233.5,-66.7749 150.5,-66.7749"/>
<text text-anchor="middle" x="192" y="-73.7749" font-family="Helvetica,sans-Serif" font-size="10.00" fill="#000000">bdm::Grid::Box</text>
</a>
</g>
</g>
<!-- Node3&#45;&gt;Node8 -->
<g id="edge8" class="edge">
<title>Node3&#45;&gt;Node8</title>
<path fill="none" stroke="#9a32cd" stroke-dasharray="5,2" d="M61.2315,-181.9655C82.3423,-164.1432 117.3194,-134.8518 148,-110.2749 158.3975,-101.9459 170.3711,-92.7166 179.2002,-85.9779"/>
<polygon fill="#9a32cd" stroke="#9a32cd" points="58.7186,-179.5068 53.3428,-188.6365 63.2386,-184.8518 58.7186,-179.5068"/>
<text text-anchor="middle" x="116" y="-148.2749" font-family="Helvetica,sans-Serif" font-size="10.00" fill="#000000"> start_</text>
</g>
<!-- Node4 -->
<g id="node4" class="node">
<title>Node4</title>
<g id="a_node4"><a xlink:href="classbdm_1_1Grid.html" target="_top" xlink:title="A class that represents Cartesian 3D grid. ">
<polygon fill="#ffffff" stroke="#000000" points="599,-160.7749 599,-179.7749 658,-179.7749 658,-160.7749 599,-160.7749"/>
<text text-anchor="middle" x="628.5" y="-167.7749" font-family="Helvetica,sans-Serif" font-size="10.00" fill="#000000">bdm::Grid</text>
</a>
</g>
</g>
<!-- Node4&#45;&gt;Node2 -->
<g id="edge3" class="edge">
<title>Node4&#45;&gt;Node2</title>
<path fill="none" stroke="#9a32cd" stroke-dasharray="5,2" d="M668.5517,-170.2749C697.7894,-170.2749 737.9117,-170.2749 770.905,-170.2749"/>
<polygon fill="#9a32cd" stroke="#9a32cd" points="668.3058,-166.775 658.3058,-170.2749 668.3058,-173.775 668.3058,-166.775"/>
<text text-anchor="middle" x="714.5" y="-173.2749" font-family="Helvetica,sans-Serif" font-size="10.00" fill="#000000"> grid_</text>
</g>
<!-- Node5 -->
<g id="node5" class="node">
<title>Node5</title>
<g id="a_node5"><a xlink:href="classbdm_1_1SimObjectVector.html" target="_top" xlink:title="bdm::SimObjectVector\l\&lt; bdm::SoHandle \&gt;">
<polygon fill="#ffffff" stroke="#000000" points="338,-218.2749 338,-248.2749 454,-248.2749 454,-218.2749 338,-218.2749"/>
<text text-anchor="start" x="346" y="-236.2749" font-family="Helvetica,sans-Serif" font-size="10.00" fill="#000000">bdm::SimObjectVector</text>
<text text-anchor="middle" x="396" y="-225.2749" font-family="Helvetica,sans-Serif" font-size="10.00" fill="#000000">&lt; bdm::SoHandle &gt;</text>
</a>
</g>
</g>
<!-- Node5&#45;&gt;Node4 -->
<g id="edge4" class="edge">
<title>Node5&#45;&gt;Node4</title>
<path fill="none" stroke="#9a32cd" stroke-dasharray="5,2" d="M464.6994,-228.7779C500.3779,-224.7162 544.1073,-216.9861 581,-202.2749 594.4847,-196.8978 608.0381,-187.2457 617.1958,-179.9438"/>
<polygon fill="#9a32cd" stroke="#9a32cd" points="463.9563,-225.3371 454.3833,-229.8766 464.6978,-232.2977 463.9563,-225.3371"/>
<text text-anchor="middle" x="531" y="-229.2749" font-family="Helvetica,sans-Serif" font-size="10.00" fill="#000000"> successors_</text>
</g>
<!-- Node6 -->
<g id="node6" class="node">
<title>Node6</title>
<g id="a_node6"><a xlink:href="classbdm_1_1ThreadInfo.html" target="_top" xlink:title="This class stores information about each thread. (e.g. to which NUMA node it belongs to...">
<polygon fill="#ffffff" stroke="#000000" points="148,-223.7749 148,-242.7749 236,-242.7749 236,-223.7749 148,-223.7749"/>
<text text-anchor="middle" x="192" y="-230.7749" font-family="Helvetica,sans-Serif" font-size="10.00" fill="#000000">bdm::ThreadInfo</text>
</a>
</g>
</g>
<!-- Node6&#45;&gt;Node5 -->
<g id="edge5" class="edge">
<title>Node6&#45;&gt;Node5</title>
<path fill="none" stroke="#9a32cd" stroke-dasharray="5,2" d="M246.1072,-233.2749C274.342,-233.2749 308.9108,-233.2749 337.7327,-233.2749"/>
<polygon fill="#9a32cd" stroke="#9a32cd" points="246.0138,-229.775 236.0138,-233.2749 246.0138,-236.775 246.0138,-229.775"/>
<text text-anchor="middle" x="282.5" y="-236.2749" font-family="Helvetica,sans-Serif" font-size="10.00" fill="#000000"> thread_info_</text>
</g>
<!-- Node7 -->
<g id="node7" class="node">
<title>Node7</title>
<g id="a_node7"><a xlink:href="classbdm_1_1ParallelResizeVector.html" target="_top" xlink:title="bdm::ParallelResizeVector\l\&lt; bdm::Grid::Box \&gt;">
<polygon fill="#ffffff" stroke="#000000" points="329.5,-61.2749 329.5,-91.2749 462.5,-91.2749 462.5,-61.2749 329.5,-61.2749"/>
<text text-anchor="start" x="337.5" y="-79.2749" font-family="Helvetica,sans-Serif" font-size="10.00" fill="#000000">bdm::ParallelResizeVector</text>
<text text-anchor="middle" x="396" y="-68.2749" font-family="Helvetica,sans-Serif" font-size="10.00" fill="#000000">&lt; bdm::Grid::Box &gt;</text>
</a>
</g>
</g>
<!-- Node7&#45;&gt;Node4 -->
<g id="edge6" class="edge">
<title>Node7&#45;&gt;Node4</title>
<path fill="none" stroke="#9a32cd" stroke-dasharray="5,2" d="M472.7923,-91.1089C507.1806,-99.6309 547.4486,-112.295 581,-130.2749 596.014,-138.3208 610.5888,-151.6718 619.5474,-160.7147"/>
<polygon fill="#9a32cd" stroke="#9a32cd" points="473.3338,-87.6394 462.7927,-88.7052 471.6977,-94.4456 473.3338,-87.6394"/>
<text text-anchor="middle" x="531" y="-133.2749" font-family="Helvetica,sans-Serif" font-size="10.00" fill="#000000"> boxes_</text>
</g>
<!-- Node8&#45;&gt;Node7 -->
<g id="edge7" class="edge">
<title>Node8&#45;&gt;Node7</title>
<path fill="none" stroke="#9a32cd" stroke-dasharray="5,2" d="M243.7985,-76.2749C269.7962,-76.2749 301.5903,-76.2749 329.3836,-76.2749"/>
<polygon fill="#9a32cd" stroke="#9a32cd" points="243.7747,-72.775 233.7747,-76.2749 243.7747,-79.775 243.7747,-72.775"/>
<text text-anchor="middle" x="282.5" y="-79.2749" font-family="Helvetica,sans-Serif" font-size="10.00" fill="#000000"> data_</text>
</g>
<!-- Node12 -->
<g id="node12" class="node">
<title>Node12</title>
<g id="a_node12"><a xlink:href="classbdm_1_1FixedSizeVector.html" target="_top" xlink:title="bdm::FixedSizeVector\l\&lt; const bdm::Grid::Box\l *, 27 \&gt;">
<polygon fill="#ffffff" stroke="#000000" points="336.5,-.7749 336.5,-41.7749 455.5,-41.7749 455.5,-.7749 336.5,-.7749"/>
<text text-anchor="start" x="344.5" y="-29.7749" font-family="Helvetica,sans-Serif" font-size="10.00" fill="#000000">bdm::FixedSizeVector</text>
<text text-anchor="start" x="344.5" y="-18.7749" font-family="Helvetica,sans-Serif" font-size="10.00" fill="#000000">&lt; const bdm::Grid::Box</text>
<text text-anchor="middle" x="396" y="-7.7749" font-family="Helvetica,sans-Serif" font-size="10.00" fill="#000000"> *, 27 &gt;</text>
</a>
</g>
</g>
<!-- Node8&#45;&gt;Node12 -->
<g id="edge15" class="edge">
<title>Node8&#45;&gt;Node12</title>
<path fill="none" stroke="#9a32cd" stroke-dasharray="5,2" d="M202.7263,-57.9632C213.3984,-41.7403 231.4213,-19.1439 254,-9.2749 279.5034,1.8725 310.0146,.905 336.2071,-3.6824"/>
<polygon fill="#9a32cd" stroke="#9a32cd" points="199.6399,-56.2979 197.3133,-66.6342 205.5778,-60.0048 199.6399,-56.2979"/>
<text text-anchor="middle" x="282.5" y="-12.2749" font-family="Helvetica,sans-Serif" font-size="10.00" fill="#000000"> data_</text>
</g>
<!-- Node9 -->
<g id="node9" class="node">
<title>Node9</title>
<g id="a_node9"><a xlink:href="classbdm_1_1Spinlock.html" target="_top" xlink:title="bdm::Spinlock">
<polygon fill="#ffffff" stroke="#000000" points="2.5,-66.7749 2.5,-85.7749 81.5,-85.7749 81.5,-66.7749 2.5,-66.7749"/>
<text text-anchor="middle" x="42" y="-73.7749" font-family="Helvetica,sans-Serif" font-size="10.00" fill="#000000">bdm::Spinlock</text>
</a>
</g>
</g>
<!-- Node9&#45;&gt;Node8 -->
<g id="edge9" class="edge">
<title>Node9&#45;&gt;Node8</title>
<path fill="none" stroke="#9a32cd" stroke-dasharray="5,2" d="M92.0491,-76.2749C111.0003,-76.2749 132.3502,-76.2749 150.4376,-76.2749"/>
<polygon fill="#9a32cd" stroke="#9a32cd" points="91.8035,-72.775 81.8034,-76.2749 91.8034,-79.775 91.8035,-72.775"/>
<text text-anchor="middle" x="116" y="-79.2749" font-family="Helvetica,sans-Serif" font-size="10.00" fill="#000000"> lock_</text>
</g>
<!-- Node10 -->
<g id="node10" class="node">
<title>Node10</title>
<polygon fill="#ffffff" stroke="#bfbfbf" points="170.5,-119.7749 170.5,-138.7749 213.5,-138.7749 213.5,-119.7749 170.5,-119.7749"/>
<text text-anchor="middle" x="192" y="-126.7749" font-family="Helvetica,sans-Serif" font-size="10.00" fill="#000000">size_t</text>
</g>
<!-- Node10&#45;&gt;Node4 -->
<g id="edge11" class="edge">
<title>Node10&#45;&gt;Node4</title>
<path fill="none" stroke="#9a32cd" stroke-dasharray="5,2" d="M223.4671,-137.6709C233.2309,-140.2018 244.0419,-142.9289 254,-145.2749 396.0159,-178.732 435.225,-180.4019 581,-174.2749 586.7879,-174.0316 592.962,-173.6223 598.8784,-173.156"/>
<polygon fill="#9a32cd" stroke="#9a32cd" points="224.3113,-134.274 213.751,-135.1286 222.5393,-141.046 224.3113,-134.274"/>
<text text-anchor="middle" x="396" y="-179.2749" font-family="Helvetica,sans-Serif" font-size="10.00" fill="#000000"> num_boxes_xy_</text>
</g>
<!-- Node10&#45;&gt;Node7 -->
<g id="edge10" class="edge">
<title>Node10&#45;&gt;Node7</title>
<path fill="none" stroke="#9a32cd" stroke-dasharray="5,2" d="M223.8916,-120.9893C254.3584,-113.0739 300.9925,-100.9582 338.0364,-91.3341"/>
<polygon fill="#9a32cd" stroke="#9a32cd" points="222.6301,-117.7008 213.8316,-123.6029 224.3904,-124.4759 222.6301,-117.7008"/>
<text text-anchor="middle" x="282.5" y="-115.2749" font-family="Helvetica,sans-Serif" font-size="10.00" fill="#000000"> size_</text>
</g>
<!-- Node11 -->
<g id="node11" class="node">
<title>Node11</title>
<g id="a_node11"><a xlink:href="classbdm_1_1ParallelResizeVector.html" target="_top" xlink:title="bdm::ParallelResizeVector\l\&lt; std::pair\&lt; uint32_t,\l const bdm::Grid::Box *\&gt; \&gt;">
<polygon fill="#ffffff" stroke="#000000" points="329,-110.7749 329,-151.7749 463,-151.7749 463,-110.7749 329,-110.7749"/>
<text text-anchor="start" x="337" y="-139.7749" font-family="Helvetica,sans-Serif" font-size="10.00" fill="#000000">bdm::ParallelResizeVector</text>
<text text-anchor="start" x="337" y="-128.7749" font-family="Helvetica,sans-Serif" font-size="10.00" fill="#000000">&lt; std::pair&lt; uint32_t,</text>
<text text-anchor="middle" x="396" y="-117.7749" font-family="Helvetica,sans-Serif" font-size="10.00" fill="#000000"> const bdm::Grid::Box *&gt; &gt;</text>
</a>
</g>
</g>
<!-- Node10&#45;&gt;Node11 -->
<g id="edge13" class="edge">
<title>Node10&#45;&gt;Node11</title>
<path fill="none" stroke="#9a32cd" stroke-dasharray="5,2" d="M223.84,-129.587C251.8064,-129.8612 293.4239,-130.2692 328.7347,-130.6154"/>
<polygon fill="#9a32cd" stroke="#9a32cd" points="223.8654,-126.0872 213.8316,-129.4889 223.7967,-133.0869 223.8654,-126.0872"/>
<text text-anchor="middle" x="282.5" y="-133.2749" font-family="Helvetica,sans-Serif" font-size="10.00" fill="#000000"> size_</text>
</g>
<!-- Node10&#45;&gt;Node12 -->
<g id="edge16" class="edge">
<title>Node10&#45;&gt;Node12</title>
<path fill="none" stroke="#9a32cd" stroke-dasharray="5,2" d="M216.1284,-113.5538C223.0815,-108.2888 230.316,-102.0245 236,-95.2749 247.0136,-82.1965 240.6968,-72.0159 254,-61.2749 277.3153,-42.4501 308.9796,-32.4772 336.4913,-27.1972"/>
<polygon fill="#9a32cd" stroke="#9a32cd" points="213.7051,-110.984 207.6094,-119.6497 217.7786,-116.6767 213.7051,-110.984"/>
<text text-anchor="middle" x="282.5" y="-64.2749" font-family="Helvetica,sans-Serif" font-size="10.00" fill="#000000"> size_</text>
</g>
<!-- Node11&#45;&gt;Node4 -->
<g id="edge12" class="edge">
<title>Node11&#45;&gt;Node4</title>
<path fill="none" stroke="#9a32cd" stroke-dasharray="5,2" d="M473.1329,-144.2133C516.1154,-151.4233 567.174,-159.9879 598.7103,-165.2779"/>
<polygon fill="#9a32cd" stroke="#9a32cd" points="473.6899,-140.7579 463.2486,-142.5553 472.5318,-147.6615 473.6899,-140.7579"/>
<text text-anchor="middle" x="531" y="-164.2749" font-family="Helvetica,sans-Serif" font-size="10.00" fill="#000000"> zorder_sorted_boxes_</text>
</g>
<!-- Node12&#45;&gt;Node1 -->
<g id="edge14" class="edge">
<title>Node12&#45;&gt;Node1</title>
<path fill="none" stroke="#9a32cd" stroke-dasharray="5,2" d="M465.5065,-24.0234C592.4548,-29.0434 860.2895,-39.6346 985.8499,-44.5997"/>
<polygon fill="#9a32cd" stroke="#9a32cd" points="465.6389,-20.526 455.5084,-23.6281 465.3622,-27.5206 465.6389,-20.526"/>
<text text-anchor="middle" x="714.5" y="-38.2749" font-family="Helvetica,sans-Serif" font-size="10.00" fill="#000000"> neighbor_boxes_</text>
</g>
</g>
</svg>
