<?xml version="1.0" encoding="UTF-8" standalone="no"?>
<!DOCTYPE svg PUBLIC "-//W3C//DTD SVG 1.1//EN"
 "http://www.w3.org/Graphics/SVG/1.1/DTD/svg11.dtd">
<!-- Generated by graphviz version 2.38.0 (20140413.2041)
 -->
<!-- Title: core/util/timing.h Pages: 1 -->
<svg width="1651pt" height="498pt"
 viewBox="0.00 0.00 1651.00 498.00" xmlns="http://www.w3.org/2000/svg" xmlns:xlink="http://www.w3.org/1999/xlink">
<g id="graph0" class="graph" transform="scale(1 1) rotate(0) translate(4 494)">
<title>core/util/timing.h</title>
<polygon fill="white" stroke="none" points="-4,4 -4,-494 1647,-494 1647,4 -4,4"/>
<!-- Node1 -->
<g id="node1" class="node"><title>Node1</title>
<polygon fill="#bfbfbf" stroke="black" points="164.5,-470.5 164.5,-489.5 261.5,-489.5 261.5,-470.5 164.5,-470.5"/>
<text text-anchor="middle" x="213" y="-477.5" font-family="Helvetica,sans-Serif" font-size="10.00">core/util/timing.h</text>
</g>
<!-- Node2 -->
<g id="node2" class="node"><title>Node2</title>
<polygon fill="white" stroke="#bfbfbf" points="0,-414.5 0,-433.5 50,-433.5 50,-414.5 0,-414.5"/>
<text text-anchor="middle" x="25" y="-421.5" font-family="Helvetica,sans-Serif" font-size="10.00">chrono</text>
</g>
<!-- Node1&#45;&gt;Node2 -->
<g id="edge1" class="edge"><title>Node1&#45;&gt;Node2</title>
<path fill="none" stroke="midnightblue" d="M183.211,-470.444C149.757,-460.835 95.5202,-445.256 60.0536,-435.069"/>
<polygon fill="midnightblue" stroke="midnightblue" points="60.715,-431.617 50.1374,-432.22 58.7825,-438.345 60.715,-431.617"/>
</g>
<!-- Node3 -->
<g id="node3" class="node"><title>Node3</title>
<polygon fill="white" stroke="#bfbfbf" points="445.5,-56.5 445.5,-75.5 504.5,-75.5 504.5,-56.5 445.5,-56.5"/>
<text text-anchor="middle" x="475" y="-63.5" font-family="Helvetica,sans-Serif" font-size="10.00">iostream</text>
</g>
<!-- Node1&#45;&gt;Node3 -->
<g id="edge2" class="edge"><title>Node1&#45;&gt;Node3</title>
<path fill="none" stroke="midnightblue" d="M196.982,-470.482C169.432,-454.537 116,-417.377 116,-369 116,-369 116,-369 116,-177 116,-110.859 341.582,-80.4571 435.111,-70.6946"/>
<polygon fill="midnightblue" stroke="midnightblue" points="435.721,-74.1507 445.316,-69.657 435.013,-67.1866 435.721,-74.1507"/>
</g>
<!-- Node4 -->
<g id="node4" class="node"><title>Node4</title>
<polygon fill="white" stroke="#bfbfbf" points="769,-0.5 769,-19.5 813,-19.5 813,-0.5 769,-0.5"/>
<text text-anchor="middle" x="791" y="-7.5" font-family="Helvetica,sans-Serif" font-size="10.00">string</text>
</g>
<!-- Node1&#45;&gt;Node4 -->
<g id="edge3" class="edge"><title>Node1&#45;&gt;Node4</title>
<path fill="none" stroke="midnightblue" d="M185.355,-470.416C145.859,-456.23 78,-423.872 78,-369 78,-369 78,-369 78,-121 78,-24.9949 189.737,-74.2073 284,-56 491.004,-16.0162 549.116,-55.1216 757,-20 757.602,-19.8983 758.209,-19.7908 758.819,-19.6781"/>
<polygon fill="midnightblue" stroke="midnightblue" points="759.792,-23.0483 768.815,-17.4952 758.298,-16.2095 759.792,-23.0483"/>
</g>
<!-- Node5 -->
<g id="node5" class="node"><title>Node5</title>
<g id="a_node5"><a xlink:href="core_2param_2param_8h.html" target="_top" xlink:title="core/param/param.h">
<polygon fill="white" stroke="black" points="410,-358.5 410,-377.5 526,-377.5 526,-358.5 410,-358.5"/>
<text text-anchor="middle" x="468" y="-365.5" font-family="Helvetica,sans-Serif" font-size="10.00">core/param/param.h</text>
</a>
</g>
</g>
<!-- Node1&#45;&gt;Node5 -->
<g id="edge4" class="edge"><title>Node1&#45;&gt;Node5</title>
<path fill="none" stroke="midnightblue" d="M233.009,-470.368C277.792,-451.051 386.263,-404.259 438.679,-381.648"/>
<polygon fill="midnightblue" stroke="midnightblue" points="440.288,-384.766 448.084,-377.591 437.515,-378.339 440.288,-384.766"/>
</g>
<!-- Node24 -->
<g id="node24" class="node"><title>Node24</title>
<g id="a_node24"><a xlink:href="simulation_8h.html" target="_top" xlink:title="core/simulation.h">
<polygon fill="white" stroke="black" points="936.5,-358.5 936.5,-377.5 1035.5,-377.5 1035.5,-358.5 936.5,-358.5"/>
<text text-anchor="middle" x="986" y="-365.5" font-family="Helvetica,sans-Serif" font-size="10.00">core/simulation.h</text>
</a>
</g>
</g>
<!-- Node1&#45;&gt;Node24 -->
<g id="edge30" class="edge"><title>Node1&#45;&gt;Node24</title>
<path fill="none" stroke="midnightblue" d="M261.647,-472.077C397.088,-452.804 778.258,-398.562 926.227,-377.506"/>
<polygon fill="midnightblue" stroke="midnightblue" points="927.064,-380.922 936.471,-376.048 926.078,-373.992 927.064,-380.922"/>
</g>
<!-- Node39 -->
<g id="node39" class="node"><title>Node39</title>
<g id="a_node39"><a xlink:href="timing__aggregator_8h.html" target="_top" xlink:title="core/util/timing_aggregator.h">
<polygon fill="white" stroke="black" points="1259.5,-414.5 1259.5,-433.5 1414.5,-433.5 1414.5,-414.5 1259.5,-414.5"/>
<text text-anchor="middle" x="1337" y="-421.5" font-family="Helvetica,sans-Serif" font-size="10.00">core/util/timing_aggregator.h</text>
</a>
</g>
</g>
<!-- Node1&#45;&gt;Node39 -->
<g id="edge52" class="edge"><title>Node1&#45;&gt;Node39</title>
<path fill="none" stroke="midnightblue" d="M261.658,-476.662C435.123,-468.329 1024.84,-439.997 1249.29,-429.214"/>
<polygon fill="midnightblue" stroke="midnightblue" points="1249.56,-432.705 1259.38,-428.729 1249.22,-425.713 1249.56,-432.705"/>
</g>
<!-- Node5&#45;&gt;Node4 -->
<g id="edge8" class="edge"><title>Node5&#45;&gt;Node4</title>
<path fill="none" stroke="midnightblue" d="M409.658,-359.367C362.91,-352.071 302.361,-339.572 285,-322 258.86,-295.542 266,-277.694 266,-240.5 266,-240.5 266,-240.5 266,-121 266,-40.1099 357.399,-75.1054 436,-56 575.499,-22.0924 615.895,-46.4396 757,-20 757.6,-19.8875 758.205,-19.7701 758.814,-19.6484"/>
<polygon fill="midnightblue" stroke="midnightblue" points="759.819,-23.0093 768.794,-17.3792 758.267,-16.1835 759.819,-23.0093"/>
</g>
<!-- Node6 -->
<g id="node6" class="node"><title>Node6</title>
<polygon fill="white" stroke="#bfbfbf" points="438,-297 438,-316 498,-316 498,-297 438,-297"/>
<text text-anchor="middle" x="468" y="-304" font-family="Helvetica,sans-Serif" font-size="10.00">cinttypes</text>
</g>
<!-- Node5&#45;&gt;Node6 -->
<g id="edge5" class="edge"><title>Node5&#45;&gt;Node6</title>
<path fill="none" stroke="midnightblue" d="M468,-358.475C468,-350.08 468,-336.981 468,-326.163"/>
<polygon fill="midnightblue" stroke="midnightblue" points="471.5,-326.009 468,-316.009 464.5,-326.009 471.5,-326.009"/>
</g>
<!-- Node7 -->
<g id="node7" class="node"><title>Node7</title>
<polygon fill="white" stroke="#bfbfbf" points="516.5,-297 516.5,-316 573.5,-316 573.5,-297 516.5,-297"/>
<text text-anchor="middle" x="545" y="-304" font-family="Helvetica,sans-Serif" font-size="10.00">memory</text>
</g>
<!-- Node5&#45;&gt;Node7 -->
<g id="edge6" class="edge"><title>Node5&#45;&gt;Node7</title>
<path fill="none" stroke="midnightblue" d="M479.032,-358.475C491.268,-349.02 511.229,-333.596 525.993,-322.187"/>
<polygon fill="midnightblue" stroke="midnightblue" points="528.215,-324.893 533.988,-316.009 523.935,-319.354 528.215,-324.893"/>
</g>
<!-- Node8 -->
<g id="node8" class="node"><title>Node8</title>
<polygon fill="white" stroke="#bfbfbf" points="592,-297 592,-316 624,-316 624,-297 592,-297"/>
<text text-anchor="middle" x="608" y="-304" font-family="Helvetica,sans-Serif" font-size="10.00">set</text>
</g>
<!-- Node5&#45;&gt;Node8 -->
<g id="edge7" class="edge"><title>Node5&#45;&gt;Node8</title>
<path fill="none" stroke="midnightblue" d="M493.143,-358.415C516.76,-350.059 552.874,-336.526 583,-322 583.695,-321.665 584.396,-321.318 585.101,-320.961"/>
<polygon fill="midnightblue" stroke="midnightblue" points="587.08,-323.87 594.188,-316.013 583.732,-317.722 587.08,-323.87"/>
</g>
<!-- Node9 -->
<g id="node9" class="node"><title>Node9</title>
<polygon fill="white" stroke="#bfbfbf" points="144.5,-297 144.5,-316 237.5,-316 237.5,-297 144.5,-297"/>
<text text-anchor="middle" x="191" y="-304" font-family="Helvetica,sans-Serif" font-size="10.00">unordered_map</text>
</g>
<!-- Node5&#45;&gt;Node9 -->
<g id="edge9" class="edge"><title>Node5&#45;&gt;Node9</title>
<path fill="none" stroke="midnightblue" d="M425.301,-358.471C381.673,-349.671 312.006,-335.38 252,-322 246.885,-320.86 241.537,-319.635 236.224,-318.399"/>
<polygon fill="midnightblue" stroke="midnightblue" points="236.656,-314.905 226.121,-316.026 235.056,-321.72 236.656,-314.905"/>
</g>
<!-- Node10 -->
<g id="node10" class="node"><title>Node10</title>
<polygon fill="white" stroke="#bfbfbf" points="1138.5,-297 1138.5,-316 1185.5,-316 1185.5,-297 1138.5,-297"/>
<text text-anchor="middle" x="1162" y="-304" font-family="Helvetica,sans-Serif" font-size="10.00">vector</text>
</g>
<!-- Node5&#45;&gt;Node10 -->
<g id="edge10" class="edge"><title>Node5&#45;&gt;Node10</title>
<path fill="none" stroke="midnightblue" d="M526.022,-365.703C665.493,-362.16 1016.41,-350.602 1130,-322 1132.21,-321.443 1134.46,-320.74 1136.68,-319.945"/>
<polygon fill="midnightblue" stroke="midnightblue" points="1138.22,-323.096 1146.13,-316.041 1135.55,-316.627 1138.22,-323.096"/>
</g>
<!-- Node11 -->
<g id="node11" class="node"><title>Node11</title>
<g id="a_node11"><a xlink:href="module__param_8h.html" target="_top" xlink:title="core/param/module_param.h">
<polygon fill="white" stroke="black" points="642.5,-297 642.5,-316 799.5,-316 799.5,-297 642.5,-297"/>
<text text-anchor="middle" x="721" y="-304" font-family="Helvetica,sans-Serif" font-size="10.00">core/param/module_param.h</text>
</a>
</g>
</g>
<!-- Node5&#45;&gt;Node11 -->
<g id="edge11" class="edge"><title>Node5&#45;&gt;Node11</title>
<path fill="none" stroke="midnightblue" d="M504.249,-358.475C549.15,-347.915 625.706,-329.911 674.784,-318.369"/>
<polygon fill="midnightblue" stroke="midnightblue" points="675.885,-321.706 684.819,-316.009 674.283,-314.891 675.885,-321.706"/>
</g>
<!-- Node12 -->
<g id="node12" class="node"><title>Node12</title>
<g id="a_node12"><a xlink:href="root_8h.html" target="_top" xlink:title="core/util/root.h">
<polygon fill="white" stroke="black" points="861,-168.5 861,-187.5 947,-187.5 947,-168.5 861,-168.5"/>
<text text-anchor="middle" x="904" y="-175.5" font-family="Helvetica,sans-Serif" font-size="10.00">core/util/root.h</text>
</a>
</g>
</g>
<!-- Node5&#45;&gt;Node12 -->
<g id="edge23" class="edge"><title>Node5&#45;&gt;Node12</title>
<path fill="none" stroke="midnightblue" d="M526.148,-365.073C610.833,-361.315 763.023,-350.685 809,-322 856.729,-292.222 885.72,-228.62 897.658,-197.257"/>
<polygon fill="midnightblue" stroke="midnightblue" points="901.035,-198.21 901.172,-187.616 894.459,-195.813 901.035,-198.21"/>
</g>
<!-- Node19 -->
<g id="node19" class="node"><title>Node19</title>
<polygon fill="white" stroke="#bfbfbf" points="596.5,-230 596.5,-249 703.5,-249 703.5,-230 596.5,-230"/>
<text text-anchor="middle" x="650" y="-237" font-family="Helvetica,sans-Serif" font-size="10.00">cpptoml/cpptoml.h</text>
</g>
<!-- Node5&#45;&gt;Node19 -->
<g id="edge29" class="edge"><title>Node5&#45;&gt;Node19</title>
<path fill="none" stroke="midnightblue" d="M457.528,-358.376C440.799,-343.569 411.619,-312.8 429,-291 431.704,-287.609 535.517,-264.934 599.881,-251.146"/>
<polygon fill="midnightblue" stroke="midnightblue" points="600.804,-254.528 609.851,-249.014 599.34,-247.683 600.804,-254.528"/>
</g>
<!-- Node20 -->
<g id="node20" class="node"><title>Node20</title>
<g id="a_node20"><a xlink:href="type_8h.html" target="_top" xlink:title="core/util/type.h">
<polygon fill="white" stroke="black" points="294,-297 294,-316 382,-316 382,-297 294,-297"/>
<text text-anchor="middle" x="338" y="-304" font-family="Helvetica,sans-Serif" font-size="10.00">core/util/type.h</text>
</a>
</g>
</g>
<!-- Node5&#45;&gt;Node20 -->
<g id="edge24" class="edge"><title>Node5&#45;&gt;Node20</title>
<path fill="none" stroke="midnightblue" d="M449.374,-358.475C427.557,-348.49 391.196,-331.848 365.983,-320.307"/>
<polygon fill="midnightblue" stroke="midnightblue" points="367.141,-316.988 356.591,-316.009 364.228,-323.353 367.141,-316.988"/>
</g>
<!-- Node11&#45;&gt;Node12 -->
<g id="edge12" class="edge"><title>Node11&#45;&gt;Node12</title>
<path fill="none" stroke="midnightblue" d="M729.954,-296.956C746.617,-281.314 783.887,-247.526 819,-224 837.089,-211.88 858.806,-200.431 875.76,-192.114"/>
<polygon fill="midnightblue" stroke="midnightblue" points="877.641,-195.093 885.129,-187.598 874.601,-188.787 877.641,-195.093"/>
</g>
<!-- Node11&#45;&gt;Node19 -->
<g id="edge22" class="edge"><title>Node11&#45;&gt;Node19</title>
<path fill="none" stroke="midnightblue" d="M711.425,-296.734C700.034,-286.305 680.813,-268.709 666.901,-255.973"/>
<polygon fill="midnightblue" stroke="midnightblue" points="669.163,-253.298 659.424,-249.127 664.436,-258.461 669.163,-253.298"/>
</g>
<!-- Node13 -->
<g id="node13" class="node"><title>Node13</title>
<g id="a_node13"><a xlink:href="log_8h.html" target="_top" xlink:title="core/util/log.h">
<polygon fill="white" stroke="black" points="858.5,-112.5 858.5,-131.5 939.5,-131.5 939.5,-112.5 858.5,-112.5"/>
<text text-anchor="middle" x="899" y="-119.5" font-family="Helvetica,sans-Serif" font-size="10.00">core/util/log.h</text>
</a>
</g>
</g>
<!-- Node12&#45;&gt;Node13 -->
<g id="edge13" class="edge"><title>Node12&#45;&gt;Node13</title>
<path fill="none" stroke="midnightblue" d="M903.174,-168.083C902.519,-161.006 901.58,-150.861 900.758,-141.986"/>
<polygon fill="midnightblue" stroke="midnightblue" points="904.217,-141.386 899.81,-131.751 897.247,-142.031 904.217,-141.386"/>
</g>
<!-- Node13&#45;&gt;Node3 -->
<g id="edge17" class="edge"><title>Node13&#45;&gt;Node3</title>
<path fill="none" stroke="midnightblue" d="M858.345,-115.822C777.114,-105.477 595.637,-82.3642 514.972,-72.0908"/>
<polygon fill="midnightblue" stroke="midnightblue" points="515.097,-68.5784 504.734,-70.7869 514.212,-75.5224 515.097,-68.5784"/>
</g>
<!-- Node13&#45;&gt;Node4 -->
<g id="edge18" class="edge"><title>Node13&#45;&gt;Node4</title>
<path fill="none" stroke="midnightblue" d="M898.618,-112.415C897.594,-98.9366 893.829,-72.6356 880,-56 865.297,-38.3124 841.887,-26.8642 822.767,-19.9428"/>
<polygon fill="midnightblue" stroke="midnightblue" points="823.822,-16.605 813.227,-16.7269 821.585,-23.2382 823.822,-16.605"/>
</g>
<!-- Node14 -->
<g id="node14" class="node"><title>Node14</title>
<polygon fill="white" stroke="#bfbfbf" points="927.5,-56.5 927.5,-75.5 980.5,-75.5 980.5,-56.5 927.5,-56.5"/>
<text text-anchor="middle" x="954" y="-63.5" font-family="Helvetica,sans-Serif" font-size="10.00">TError.h</text>
</g>
<!-- Node13&#45;&gt;Node14 -->
<g id="edge14" class="edge"><title>Node13&#45;&gt;Node14</title>
<path fill="none" stroke="midnightblue" d="M908.082,-112.083C916.171,-104.141 928.195,-92.3354 937.91,-82.7973"/>
<polygon fill="midnightblue" stroke="midnightblue" points="940.403,-85.2545 945.087,-75.7511 935.499,-80.2595 940.403,-85.2545"/>
</g>
<!-- Node15 -->
<g id="node15" class="node"><title>Node15</title>
<polygon fill="white" stroke="#bfbfbf" points="1036.5,-56.5 1036.5,-75.5 1081.5,-75.5 1081.5,-56.5 1036.5,-56.5"/>
<text text-anchor="middle" x="1059" y="-63.5" font-family="Helvetica,sans-Serif" font-size="10.00">cstdio</text>
</g>
<!-- Node13&#45;&gt;Node15 -->
<g id="edge15" class="edge"><title>Node13&#45;&gt;Node15</title>
<path fill="none" stroke="midnightblue" d="M924.352,-112.444C952.061,-103.092 996.523,-88.0859 1026.71,-77.8984"/>
<polygon fill="midnightblue" stroke="midnightblue" points="1028,-81.1574 1036.35,-74.6433 1025.76,-74.525 1028,-81.1574"/>
</g>
<!-- Node16 -->
<g id="node16" class="node"><title>Node16</title>
<polygon fill="white" stroke="#bfbfbf" points="823.5,-56.5 823.5,-75.5 870.5,-75.5 870.5,-56.5 823.5,-56.5"/>
<text text-anchor="middle" x="847" y="-63.5" font-family="Helvetica,sans-Serif" font-size="10.00">cstdlib</text>
</g>
<!-- Node13&#45;&gt;Node16 -->
<g id="edge16" class="edge"><title>Node13&#45;&gt;Node16</title>
<path fill="none" stroke="midnightblue" d="M890.413,-112.083C882.841,-104.22 871.622,-92.5688 862.486,-83.0813"/>
<polygon fill="midnightblue" stroke="midnightblue" points="864.885,-80.5266 855.427,-75.7511 859.842,-85.3821 864.885,-80.5266"/>
</g>
<!-- Node17 -->
<g id="node17" class="node"><title>Node17</title>
<g id="a_node17"><a xlink:href="string_8h.html" target="_top" xlink:title="core/util/string.h">
<polygon fill="white" stroke="black" points="673,-56.5 673,-75.5 767,-75.5 767,-56.5 673,-56.5"/>
<text text-anchor="middle" x="720" y="-63.5" font-family="Helvetica,sans-Serif" font-size="10.00">core/util/string.h</text>
</a>
</g>
</g>
<!-- Node13&#45;&gt;Node17 -->
<g id="edge19" class="edge"><title>Node13&#45;&gt;Node17</title>
<path fill="none" stroke="midnightblue" d="M870.637,-112.444C840.262,-103.28 791.89,-88.6876 758.184,-78.5192"/>
<polygon fill="midnightblue" stroke="midnightblue" points="758.815,-75.0538 748.23,-75.5164 756.793,-81.7555 758.815,-75.0538"/>
</g>
<!-- Node17&#45;&gt;Node4 -->
<g id="edge21" class="edge"><title>Node17&#45;&gt;Node4</title>
<path fill="none" stroke="midnightblue" d="M731.407,-56.324C742.109,-48.1849 758.341,-35.8395 771.163,-26.0874"/>
<polygon fill="midnightblue" stroke="midnightblue" points="773.544,-28.6734 779.385,-19.8339 769.307,-23.1018 773.544,-28.6734"/>
</g>
<!-- Node18 -->
<g id="node18" class="node"><title>Node18</title>
<polygon fill="white" stroke="#bfbfbf" points="692,-0.5 692,-19.5 748,-19.5 748,-0.5 692,-0.5"/>
<text text-anchor="middle" x="720" y="-7.5" font-family="Helvetica,sans-Serif" font-size="10.00">sstream</text>
</g>
<!-- Node17&#45;&gt;Node18 -->
<g id="edge20" class="edge"><title>Node17&#45;&gt;Node18</title>
<path fill="none" stroke="midnightblue" d="M720,-56.083C720,-49.0059 720,-38.8611 720,-29.9865"/>
<polygon fill="midnightblue" stroke="midnightblue" points="723.5,-29.751 720,-19.7511 716.5,-29.7511 723.5,-29.751"/>
</g>
<!-- Node20&#45;&gt;Node17 -->
<g id="edge28" class="edge"><title>Node20&#45;&gt;Node17</title>
<path fill="none" stroke="midnightblue" d="M332.602,-296.801C323.504,-280.907 307.55,-246.724 323,-224 400.042,-110.685 572.856,-79.1552 662.935,-70.3821"/>
<polygon fill="midnightblue" stroke="midnightblue" points="663.331,-73.8607 672.971,-69.4658 662.694,-66.8897 663.331,-73.8607"/>
</g>
<!-- Node21 -->
<g id="node21" class="node"><title>Node21</title>
<polygon fill="white" stroke="#bfbfbf" points="430,-230 430,-249 498,-249 498,-230 430,-230"/>
<text text-anchor="middle" x="464" y="-237" font-family="Helvetica,sans-Serif" font-size="10.00">type_traits</text>
</g>
<!-- Node20&#45;&gt;Node21 -->
<g id="edge25" class="edge"><title>Node20&#45;&gt;Node21</title>
<path fill="none" stroke="midnightblue" d="M354.732,-296.869C376.101,-285.845 413.299,-266.655 438.281,-253.768"/>
<polygon fill="midnightblue" stroke="midnightblue" points="439.916,-256.862 447.199,-249.167 436.707,-250.641 439.916,-256.862"/>
</g>
<!-- Node22 -->
<g id="node22" class="node"><title>Node22</title>
<polygon fill="white" stroke="#bfbfbf" points="516.5,-230 516.5,-249 571.5,-249 571.5,-230 516.5,-230"/>
<text text-anchor="middle" x="544" y="-237" font-family="Helvetica,sans-Serif" font-size="10.00">typeinfo</text>
</g>
<!-- Node20&#45;&gt;Node22 -->
<g id="edge26" class="edge"><title>Node20&#45;&gt;Node22</title>
<path fill="none" stroke="midnightblue" d="M369.396,-296.962C403.517,-287.488 459.521,-271.365 507,-255 509.12,-254.269 511.298,-253.49 513.485,-252.687"/>
<polygon fill="midnightblue" stroke="midnightblue" points="514.871,-255.905 522.981,-249.087 512.389,-249.36 514.871,-255.905"/>
</g>
<!-- Node23 -->
<g id="node23" class="node"><title>Node23</title>
<g id="a_node23"><a xlink:href="shape_8h.html" target="_top" xlink:title="core/shape.h">
<polygon fill="white" stroke="black" points="332.5,-230 332.5,-249 411.5,-249 411.5,-230 332.5,-230"/>
<text text-anchor="middle" x="372" y="-237" font-family="Helvetica,sans-Serif" font-size="10.00">core/shape.h</text>
</a>
</g>
</g>
<!-- Node20&#45;&gt;Node23 -->
<g id="edge27" class="edge"><title>Node20&#45;&gt;Node23</title>
<path fill="none" stroke="midnightblue" d="M342.585,-296.734C347.734,-286.89 356.224,-270.66 362.763,-258.159"/>
<polygon fill="midnightblue" stroke="midnightblue" points="365.954,-259.611 367.487,-249.127 359.751,-256.366 365.954,-259.611"/>
</g>
<!-- Node24&#45;&gt;Node4 -->
<g id="edge32" class="edge"><title>Node24&#45;&gt;Node4</title>
<path fill="none" stroke="midnightblue" d="M965.196,-358.469C915.693,-336.633 795,-273.685 795,-179 795,-179 795,-179 795,-121 795,-88.9268 793.281,-51.628 792.096,-29.7413"/>
<polygon fill="midnightblue" stroke="midnightblue" points="795.58,-29.3413 791.523,-19.5539 788.591,-29.7349 795.58,-29.3413"/>
</g>
<!-- Node24&#45;&gt;Node10 -->
<g id="edge33" class="edge"><title>Node24&#45;&gt;Node10</title>
<path fill="none" stroke="midnightblue" d="M1017.27,-358.427C1046.7,-350.08 1091.82,-336.553 1130,-322 1131.61,-321.388 1133.25,-320.734 1134.9,-320.057"/>
<polygon fill="midnightblue" stroke="midnightblue" points="1136.43,-323.204 1144.22,-316.021 1133.66,-316.779 1136.43,-323.204"/>
</g>
<!-- Node24&#45;&gt;Node12 -->
<g id="edge51" class="edge"><title>Node24&#45;&gt;Node12</title>
<path fill="none" stroke="midnightblue" d="M967.035,-358.435C952.759,-350.941 934,-338.646 924,-322 900.514,-282.905 900.309,-227.154 902.156,-198.166"/>
<polygon fill="midnightblue" stroke="midnightblue" points="905.675,-198.069 902.981,-187.823 898.697,-197.513 905.675,-198.069"/>
</g>
<!-- Node25 -->
<g id="node25" class="node"><title>Node25</title>
<polygon fill="white" stroke="#bfbfbf" points="1057.5,-297 1057.5,-316 1120.5,-316 1120.5,-297 1057.5,-297"/>
<text text-anchor="middle" x="1089" y="-304" font-family="Helvetica,sans-Serif" font-size="10.00">functional</text>
</g>
<!-- Node24&#45;&gt;Node25 -->
<g id="edge31" class="edge"><title>Node24&#45;&gt;Node25</title>
<path fill="none" stroke="midnightblue" d="M1000.76,-358.475C1017.66,-348.711 1045.58,-332.581 1065.49,-321.081"/>
<polygon fill="midnightblue" stroke="midnightblue" points="1067.36,-324.042 1074.27,-316.009 1063.86,-317.981 1067.36,-324.042"/>
</g>
<!-- Node26 -->
<g id="node26" class="node"><title>Node26</title>
<g id="a_node26"><a xlink:href="so__uid_8h.html" target="_top" xlink:title="core/sim_object/so\l_uid.h">
<polygon fill="white" stroke="black" points="932.5,-291.5 932.5,-321.5 1039.5,-321.5 1039.5,-291.5 932.5,-291.5"/>
<text text-anchor="start" x="940.5" y="-309.5" font-family="Helvetica,sans-Serif" font-size="10.00">core/sim_object/so</text>
<text text-anchor="middle" x="986" y="-298.5" font-family="Helvetica,sans-Serif" font-size="10.00">_uid.h</text>
</a>
</g>
</g>
<!-- Node24&#45;&gt;Node26 -->
<g id="edge34" class="edge"><title>Node24&#45;&gt;Node26</title>
<path fill="none" stroke="midnightblue" d="M986,-358.475C986,-351.471 986,-341.192 986,-331.696"/>
<polygon fill="midnightblue" stroke="midnightblue" points="989.5,-331.523 986,-321.523 982.5,-331.523 989.5,-331.523"/>
</g>
<!-- Node28 -->
<g id="node28" class="node"><title>Node28</title>
<g id="a_node28"><a xlink:href="random_8h.html" target="_top" xlink:title="core/util/random.h">
<polygon fill="white" stroke="black" points="1204,-297 1204,-316 1308,-316 1308,-297 1204,-297"/>
<text text-anchor="middle" x="1256" y="-304" font-family="Helvetica,sans-Serif" font-size="10.00">core/util/random.h</text>
</a>
</g>
</g>
<!-- Node24&#45;&gt;Node28 -->
<g id="edge37" class="edge"><title>Node24&#45;&gt;Node28</title>
<path fill="none" stroke="midnightblue" d="M1026.91,-358.462C1069.08,-349.595 1136.72,-335.2 1195,-322 1200.05,-320.857 1205.32,-319.639 1210.57,-318.412"/>
<polygon fill="midnightblue" stroke="midnightblue" points="1211.62,-321.761 1220.55,-316.062 1210.01,-314.947 1211.62,-321.761"/>
</g>
<!-- Node26&#45;&gt;Node12 -->
<g id="edge36" class="edge"><title>Node26&#45;&gt;Node12</title>
<path fill="none" stroke="midnightblue" d="M989.378,-291.36C992.672,-274.113 995.55,-244.705 983,-224 973.921,-209.021 957.869,-198.573 942.595,-191.541"/>
<polygon fill="midnightblue" stroke="midnightblue" points="943.829,-188.263 933.255,-187.595 941.104,-194.711 943.829,-188.263"/>
</g>
<!-- Node27 -->
<g id="node27" class="node"><title>Node27</title>
<polygon fill="white" stroke="#bfbfbf" points="932,-230 932,-249 974,-249 974,-230 932,-230"/>
<text text-anchor="middle" x="953" y="-237" font-family="Helvetica,sans-Serif" font-size="10.00">limits</text>
</g>
<!-- Node26&#45;&gt;Node27 -->
<g id="edge35" class="edge"><title>Node26&#45;&gt;Node27</title>
<path fill="none" stroke="midnightblue" d="M978.839,-291.396C973.898,-281.662 967.29,-268.646 961.993,-258.214"/>
<polygon fill="midnightblue" stroke="midnightblue" points="965.062,-256.527 957.414,-249.195 958.82,-259.696 965.062,-256.527"/>
</g>
<!-- Node28&#45;&gt;Node12 -->
<g id="edge50" class="edge"><title>Node28&#45;&gt;Node12</title>
<path fill="none" stroke="midnightblue" d="M1221.93,-296.92C1186.57,-287.712 1129.84,-272.085 1082,-255 1027.57,-235.56 965.915,-207.93 931.325,-191.894"/>
<polygon fill="midnightblue" stroke="midnightblue" points="932.448,-188.556 921.905,-187.503 929.49,-194.901 932.448,-188.556"/>
</g>
<!-- Node28&#45;&gt;Node15 -->
<g id="edge39" class="edge"><title>Node28&#45;&gt;Node15</title>
<path fill="none" stroke="midnightblue" d="M1239.99,-296.983C1223.39,-287.767 1197.09,-272.081 1177,-255 1146.55,-229.108 1139.19,-221.245 1117,-188 1094.24,-153.908 1075.37,-109.516 1065.79,-85.0902"/>
<polygon fill="midnightblue" stroke="midnightblue" points="1069.02,-83.7364 1062.17,-75.6561 1062.48,-86.2462 1069.02,-83.7364"/>
</g>
<!-- Node29 -->
<g id="node29" class="node"><title>Node29</title>
<polygon fill="white" stroke="#bfbfbf" points="1280.5,-230 1280.5,-249 1321.5,-249 1321.5,-230 1280.5,-230"/>
<text text-anchor="middle" x="1301" y="-237" font-family="Helvetica,sans-Serif" font-size="10.00">array</text>
</g>
<!-- Node28&#45;&gt;Node29 -->
<g id="edge38" class="edge"><title>Node28&#45;&gt;Node29</title>
<path fill="none" stroke="midnightblue" d="M1262.07,-296.734C1269.02,-286.695 1280.57,-270.014 1289.29,-257.421"/>
<polygon fill="midnightblue" stroke="midnightblue" points="1292.21,-259.341 1295.03,-249.127 1286.46,-255.357 1292.21,-259.341"/>
</g>
<!-- Node30 -->
<g id="node30" class="node"><title>Node30</title>
<polygon fill="white" stroke="#bfbfbf" points="1185.5,-230 1185.5,-249 1262.5,-249 1262.5,-230 1185.5,-230"/>
<text text-anchor="middle" x="1224" y="-237" font-family="Helvetica,sans-Serif" font-size="10.00">TRandom3.h</text>
</g>
<!-- Node28&#45;&gt;Node30 -->
<g id="edge40" class="edge"><title>Node28&#45;&gt;Node30</title>
<path fill="none" stroke="midnightblue" d="M1251.68,-296.734C1246.84,-286.89 1238.85,-270.66 1232.69,-258.159"/>
<polygon fill="midnightblue" stroke="midnightblue" points="1235.8,-256.553 1228.25,-249.127 1229.52,-259.645 1235.8,-256.553"/>
</g>
<!-- Node31 -->
<g id="node31" class="node"><title>Node31</title>
<g id="a_node31"><a xlink:href="math__array_8h.html" target="_top" xlink:title="core/container/math\l_array.h">
<polygon fill="white" stroke="black" points="1378,-224.5 1378,-254.5 1492,-254.5 1492,-224.5 1378,-224.5"/>
<text text-anchor="start" x="1386" y="-242.5" font-family="Helvetica,sans-Serif" font-size="10.00">core/container/math</text>
<text text-anchor="middle" x="1435" y="-231.5" font-family="Helvetica,sans-Serif" font-size="10.00">_array.h</text>
</a>
</g>
</g>
<!-- Node28&#45;&gt;Node31 -->
<g id="edge41" class="edge"><title>Node28&#45;&gt;Node31</title>
<path fill="none" stroke="midnightblue" d="M1279.77,-296.869C1306.98,-286.988 1352.25,-270.549 1386.9,-257.966"/>
<polygon fill="midnightblue" stroke="midnightblue" points="1388.16,-261.231 1396.37,-254.528 1385.77,-254.652 1388.16,-261.231"/>
</g>
<!-- Node31&#45;&gt;Node12 -->
<g id="edge49" class="edge"><title>Node31&#45;&gt;Node12</title>
<path fill="none" stroke="midnightblue" d="M1377.83,-230.178C1362.62,-228.061 1346.2,-225.86 1331,-224 1196.81,-207.58 1038.45,-191.84 957.511,-184.058"/>
<polygon fill="midnightblue" stroke="midnightblue" points="957.375,-180.529 947.086,-183.059 956.707,-187.497 957.375,-180.529"/>
</g>
<!-- Node32 -->
<g id="node32" class="node"><title>Node32</title>
<polygon fill="white" stroke="#bfbfbf" points="1412,-168.5 1412,-187.5 1474,-187.5 1474,-168.5 1412,-168.5"/>
<text text-anchor="middle" x="1443" y="-175.5" font-family="Helvetica,sans-Serif" font-size="10.00">algorithm</text>
</g>
<!-- Node31&#45;&gt;Node32 -->
<g id="edge42" class="edge"><title>Node31&#45;&gt;Node32</title>
<path fill="none" stroke="midnightblue" d="M1436.9,-224.399C1437.97,-216.377 1439.34,-206.233 1440.5,-197.569"/>
<polygon fill="midnightblue" stroke="midnightblue" points="1443.97,-198.035 1441.84,-187.658 1437.03,-197.102 1443.97,-198.035"/>
</g>
<!-- Node33 -->
<g id="node33" class="node"><title>Node33</title>
<polygon fill="white" stroke="#bfbfbf" points="1200,-168.5 1200,-187.5 1252,-187.5 1252,-168.5 1200,-168.5"/>
<text text-anchor="middle" x="1226" y="-175.5" font-family="Helvetica,sans-Serif" font-size="10.00">cassert</text>
</g>
<!-- Node31&#45;&gt;Node33 -->
<g id="edge43" class="edge"><title>Node31&#45;&gt;Node33</title>
<path fill="none" stroke="midnightblue" d="M1385.73,-224.475C1347.78,-213.67 1296.19,-198.983 1262.03,-189.259"/>
<polygon fill="midnightblue" stroke="midnightblue" points="1262.6,-185.782 1252.03,-186.41 1260.69,-192.514 1262.6,-185.782"/>
</g>
<!-- Node34 -->
<g id="node34" class="node"><title>Node34</title>
<polygon fill="white" stroke="#bfbfbf" points="1492.5,-168.5 1492.5,-187.5 1539.5,-187.5 1539.5,-168.5 1492.5,-168.5"/>
<text text-anchor="middle" x="1516" y="-175.5" font-family="Helvetica,sans-Serif" font-size="10.00">cmath</text>
</g>
<!-- Node31&#45;&gt;Node34 -->
<g id="edge44" class="edge"><title>Node31&#45;&gt;Node34</title>
<path fill="none" stroke="midnightblue" d="M1454.2,-224.399C1466.82,-215.129 1483.29,-203.025 1496.06,-193.647"/>
<polygon fill="midnightblue" stroke="midnightblue" points="1498.23,-196.399 1504.21,-187.658 1494.08,-190.757 1498.23,-196.399"/>
</g>
<!-- Node35 -->
<g id="node35" class="node"><title>Node35</title>
<polygon fill="white" stroke="#bfbfbf" points="1126,-168.5 1126,-187.5 1182,-187.5 1182,-168.5 1126,-168.5"/>
<text text-anchor="middle" x="1154" y="-175.5" font-family="Helvetica,sans-Serif" font-size="10.00">numeric</text>
</g>
<!-- Node31&#45;&gt;Node35 -->
<g id="edge45" class="edge"><title>Node31&#45;&gt;Node35</title>
<path fill="none" stroke="midnightblue" d="M1377.84,-226.778C1318.02,-214.496 1228.7,-196.106 1192.16,-188.169"/>
<polygon fill="midnightblue" stroke="midnightblue" points="1192.78,-184.721 1182.26,-185.98 1191.27,-191.556 1192.78,-184.721"/>
</g>
<!-- Node36 -->
<g id="node36" class="node"><title>Node36</title>
<polygon fill="white" stroke="#bfbfbf" points="1557.5,-168.5 1557.5,-187.5 1614.5,-187.5 1614.5,-168.5 1557.5,-168.5"/>
<text text-anchor="middle" x="1586" y="-175.5" font-family="Helvetica,sans-Serif" font-size="10.00">ostream</text>
</g>
<!-- Node31&#45;&gt;Node36 -->
<g id="edge46" class="edge"><title>Node31&#45;&gt;Node36</title>
<path fill="none" stroke="midnightblue" d="M1470.78,-224.399C1496.23,-214.372 1530.1,-201.028 1554.52,-191.405"/>
<polygon fill="midnightblue" stroke="midnightblue" points="1556.01,-194.58 1564.03,-187.658 1553.44,-188.068 1556.01,-194.58"/>
</g>
<!-- Node37 -->
<g id="node37" class="node"><title>Node37</title>
<polygon fill="white" stroke="#bfbfbf" points="1270,-168.5 1270,-187.5 1334,-187.5 1334,-168.5 1270,-168.5"/>
<text text-anchor="middle" x="1302" y="-175.5" font-family="Helvetica,sans-Serif" font-size="10.00">stdexcept</text>
</g>
<!-- Node31&#45;&gt;Node37 -->
<g id="edge47" class="edge"><title>Node31&#45;&gt;Node37</title>
<path fill="none" stroke="midnightblue" d="M1403.48,-224.399C1381.36,-214.505 1352.03,-201.383 1330.59,-191.792"/>
<polygon fill="midnightblue" stroke="midnightblue" points="1331.91,-188.547 1321.35,-187.658 1329.05,-194.936 1331.91,-188.547"/>
</g>
<!-- Node38 -->
<g id="node38" class="node"><title>Node38</title>
<polygon fill="white" stroke="#bfbfbf" points="1352,-168.5 1352,-187.5 1394,-187.5 1394,-168.5 1352,-168.5"/>
<text text-anchor="middle" x="1373" y="-175.5" font-family="Helvetica,sans-Serif" font-size="10.00">utility</text>
</g>
<!-- Node31&#45;&gt;Node38 -->
<g id="edge48" class="edge"><title>Node31&#45;&gt;Node38</title>
<path fill="none" stroke="midnightblue" d="M1420.31,-224.399C1411.02,-215.486 1399,-203.952 1389.4,-194.741"/>
<polygon fill="midnightblue" stroke="midnightblue" points="1391.66,-192.057 1382.02,-187.658 1386.81,-197.107 1391.66,-192.057"/>
</g>
<!-- Node39&#45;&gt;Node4 -->
<g id="edge55" class="edge"><title>Node39&#45;&gt;Node4</title>
<path fill="none" stroke="midnightblue" d="M1388.56,-414.497C1475.77,-398.641 1643,-361.231 1643,-307.5 1643,-307.5 1643,-307.5 1643,-121 1643,-36.7968 979.985,-15.5526 823.711,-11.7148"/>
<polygon fill="midnightblue" stroke="midnightblue" points="823.432,-8.20721 813.351,-11.4679 823.265,-15.2052 823.432,-8.20721"/>
</g>
<!-- Node39&#45;&gt;Node10 -->
<g id="edge56" class="edge"><title>Node39&#45;&gt;Node10</title>
<path fill="none" stroke="midnightblue" d="M1331.47,-414.289C1322.4,-400.637 1303.18,-374.103 1281,-358 1247.47,-333.654 1233.08,-338.335 1195,-322 1193.63,-321.414 1192.24,-320.812 1190.83,-320.202"/>
<polygon fill="midnightblue" stroke="midnightblue" points="1192.08,-316.932 1181.52,-316.144 1189.29,-323.349 1192.08,-316.932"/>
</g>
<!-- Node39&#45;&gt;Node36 -->
<g id="edge54" class="edge"><title>Node39&#45;&gt;Node36</title>
<path fill="none" stroke="midnightblue" d="M1366.75,-414.423C1407.95,-401.108 1482.22,-371.689 1526,-322 1558.83,-284.742 1575.5,-226.944 1582.25,-197.542"/>
<polygon fill="midnightblue" stroke="midnightblue" points="1585.67,-198.279 1584.37,-187.765 1578.83,-196.798 1585.67,-198.279"/>
</g>
<!-- Node40 -->
<g id="node40" class="node"><title>Node40</title>
<polygon fill="white" stroke="#bfbfbf" points="1234,-358.5 1234,-377.5 1272,-377.5 1272,-358.5 1234,-358.5"/>
<text text-anchor="middle" x="1253" y="-365.5" font-family="Helvetica,sans-Serif" font-size="10.00">map</text>
</g>
<!-- Node39&#45;&gt;Node40 -->
<g id="edge53" class="edge"><title>Node39&#45;&gt;Node40</title>
<path fill="none" stroke="midnightblue" d="M1323.5,-414.324C1310.4,-405.9 1290.29,-392.971 1274.89,-383.074"/>
<polygon fill="midnightblue" stroke="midnightblue" points="1276.77,-380.118 1266.46,-377.655 1272.98,-386.006 1276.77,-380.118"/>
</g>
<!-- Node41 -->
<g id="node41" class="node"><title>Node41</title>
<g id="a_node41"><a xlink:href="math_8h.html" target="_top" xlink:title="core/util/math.h">
<polygon fill="white" stroke="black" points="1328,-358.5 1328,-377.5 1420,-377.5 1420,-358.5 1328,-358.5"/>
<text text-anchor="middle" x="1374" y="-365.5" font-family="Helvetica,sans-Serif" font-size="10.00">core/util/math.h</text>
</a>
</g>
</g>
<!-- Node39&#45;&gt;Node41 -->
<g id="edge57" class="edge"><title>Node39&#45;&gt;Node41</title>
<path fill="none" stroke="midnightblue" d="M1343.11,-414.083C1348.28,-406.534 1355.85,-395.495 1362.19,-386.23"/>
<polygon fill="midnightblue" stroke="midnightblue" points="1365.24,-387.979 1368,-377.751 1359.46,-384.022 1365.24,-387.979"/>
</g>
<!-- Node41&#45;&gt;Node10 -->
<g id="edge61" class="edge"><title>Node41&#45;&gt;Node10</title>
<path fill="none" stroke="midnightblue" d="M1331.83,-358.494C1295.18,-350.608 1240.92,-337.738 1195,-322 1193.14,-321.361 1191.23,-320.66 1189.32,-319.921"/>
<polygon fill="midnightblue" stroke="midnightblue" points="1190.52,-316.628 1179.94,-316.033 1187.84,-323.095 1190.52,-316.628"/>
</g>
<!-- Node41&#45;&gt;Node28 -->
<g id="edge64" class="edge"><title>Node41&#45;&gt;Node28</title>
<path fill="none" stroke="midnightblue" d="M1357.09,-358.475C1337.47,-348.578 1304.87,-332.142 1282.01,-320.615"/>
<polygon fill="midnightblue" stroke="midnightblue" points="1283.38,-317.386 1272.88,-316.009 1280.23,-323.637 1283.38,-317.386"/>
</g>
<!-- Node41&#45;&gt;Node29 -->
<g id="edge58" class="edge"><title>Node41&#45;&gt;Node29</title>
<path fill="none" stroke="midnightblue" d="M1368.98,-358.305C1357.11,-337.723 1327.08,-285.689 1311.2,-258.178"/>
<polygon fill="midnightblue" stroke="midnightblue" points="1314.08,-256.168 1306.05,-249.256 1308.02,-259.666 1314.08,-256.168"/>
</g>
<!-- Node41&#45;&gt;Node31 -->
<g id="edge63" class="edge"><title>Node41&#45;&gt;Node31</title>
<path fill="none" stroke="midnightblue" d="M1378.19,-358.305C1387.44,-339.131 1409.85,-292.66 1423.6,-264.149"/>
<polygon fill="midnightblue" stroke="midnightblue" points="1426.87,-265.416 1428.06,-254.888 1420.57,-262.375 1426.87,-265.416"/>
</g>
<!-- Node41&#45;&gt;Node34 -->
<g id="edge59" class="edge"><title>Node41&#45;&gt;Node34</title>
<path fill="none" stroke="midnightblue" d="M1420.18,-363.659C1449.27,-358.953 1484.99,-347.87 1505,-322 1533.23,-285.499 1526.35,-226.905 1520.4,-197.334"/>
<polygon fill="midnightblue" stroke="midnightblue" points="1523.81,-196.541 1518.24,-187.528 1516.98,-198.047 1523.81,-196.541"/>
</g>
<!-- Node41&#45;&gt;Node35 -->
<g id="edge60" class="edge"><title>Node41&#45;&gt;Node35</title>
<path fill="none" stroke="midnightblue" d="M1374.16,-358.433C1374.14,-333.677 1370.54,-261.427 1331,-224 1329.71,-222.78 1243.63,-201.251 1192,-188.42"/>
<polygon fill="midnightblue" stroke="midnightblue" points="1192.72,-184.992 1182.17,-185.978 1191.03,-191.786 1192.72,-184.992"/>
</g>
<!-- Node42 -->
<g id="node42" class="node"><title>Node42</title>
<polygon fill="white" stroke="#bfbfbf" points="1440.5,-297 1440.5,-316 1495.5,-316 1495.5,-297 1440.5,-297"/>
<text text-anchor="middle" x="1468" y="-304" font-family="Helvetica,sans-Serif" font-size="10.00">TMath.h</text>
</g>
<!-- Node41&#45;&gt;Node42 -->
<g id="edge62" class="edge"><title>Node41&#45;&gt;Node42</title>
<path fill="none" stroke="midnightblue" d="M1387.47,-358.475C1402.68,-348.843 1427.69,-333.017 1445.8,-321.552"/>
<polygon fill="midnightblue" stroke="midnightblue" points="1447.98,-324.315 1454.56,-316.009 1444.24,-318.4 1447.98,-324.315"/>
</g>
</g>
</svg>
