<?xml version="1.0" encoding="UTF-8" standalone="no"?>
<!DOCTYPE svg PUBLIC "-//W3C//DTD SVG 1.1//EN"
 "http://www.w3.org/Graphics/SVG/1.1/DTD/svg11.dtd">
<!-- Generated by graphviz version 2.38.0 (20140413.2041)
 -->
<!-- Title: core/visualization/paraview/so_visitor.h Pages: 1 -->
<svg width="261pt" height="173pt"
 viewBox="0.00 0.00 260.50 173.00" xmlns="http://www.w3.org/2000/svg" xmlns:xlink="http://www.w3.org/1999/xlink">
<g id="graph0" class="graph" transform="scale(1 1) rotate(0) translate(4 169)">
<title>core/visualization/paraview/so_visitor.h</title>
<polygon fill="white" stroke="none" points="-4,4 -4,-169 256.5,-169 256.5,4 -4,4"/>
<!-- Node1 -->
<g id="node1" class="node"><title>Node1</title>
<polygon fill="#bfbfbf" stroke="black" points="65.5,-134.5 65.5,-164.5 183.5,-164.5 183.5,-134.5 65.5,-134.5"/>
<text text-anchor="start" x="73.5" y="-152.5" font-family="Helvetica,sans-Serif" font-size="10.00">core/visualization</text>
<text text-anchor="middle" x="124.5" y="-141.5" font-family="Helvetica,sans-Serif" font-size="10.00">/paraview/so_visitor.h</text>
</g>
<!-- Node2 -->
<g id="node2" class="node"><title>Node2</title>
<g id="a_node2"><a xlink:href="paraview_2adaptor_8h.html" target="_top" xlink:title="core/visualization\l/paraview/adaptor.h">
<polygon fill="white" stroke="black" points="2.5,-67.5 2.5,-97.5 112.5,-97.5 112.5,-67.5 2.5,-67.5"/>
<text text-anchor="start" x="10.5" y="-85.5" font-family="Helvetica,sans-Serif" font-size="10.00">core/visualization</text>
<text text-anchor="middle" x="57.5" y="-74.5" font-family="Helvetica,sans-Serif" font-size="10.00">/paraview/adaptor.h</text>
</a>
</g>
</g>
<!-- Node1&#45;&gt;Node2 -->
<g id="edge1" class="edge"><title>Node1&#45;&gt;Node2</title>
<path fill="none" stroke="midnightblue" d="M102.66,-127.311C92.6092,-117.561 80.9593,-106.259 72.0096,-97.5765"/>
<polygon fill="midnightblue" stroke="midnightblue" points="100.347,-129.945 109.962,-134.396 105.222,-124.921 100.347,-129.945"/>
</g>
<!-- Node4 -->
<g id="node4" class="node"><title>Node4</title>
<g id="a_node4"><a xlink:href="so__visitor_8cc.html" target="_top" xlink:title="core/visualization\l/paraview/so_visitor.cc">
<polygon fill="white" stroke="black" points="130.5,-67.5 130.5,-97.5 252.5,-97.5 252.5,-67.5 130.5,-67.5"/>
<text text-anchor="start" x="138.5" y="-85.5" font-family="Helvetica,sans-Serif" font-size="10.00">core/visualization</text>
<text text-anchor="middle" x="191.5" y="-74.5" font-family="Helvetica,sans-Serif" font-size="10.00">/paraview/so_visitor.cc</text>
</a>
</g>
</g>
<!-- Node1&#45;&gt;Node4 -->
<g id="edge3" class="edge"><title>Node1&#45;&gt;Node4</title>
<path fill="none" stroke="midnightblue" d="M146.34,-127.311C156.391,-117.561 168.041,-106.259 176.99,-97.5765"/>
<polygon fill="midnightblue" stroke="midnightblue" points="143.778,-124.921 139.038,-134.396 148.653,-129.945 143.778,-124.921"/>
</g>
<!-- Node3 -->
<g id="node3" class="node"><title>Node3</title>
<g id="a_node3"><a xlink:href="adaptor_8cc.html" target="_top" xlink:title="core/visualization\l/paraview/adaptor.cc">
<polygon fill="white" stroke="black" points="-7.10543e-15,-0.5 -7.10543e-15,-30.5 115,-30.5 115,-0.5 -7.10543e-15,-0.5"/>
<text text-anchor="start" x="8" y="-18.5" font-family="Helvetica,sans-Serif" font-size="10.00">core/visualization</text>
<text text-anchor="middle" x="57.5" y="-7.5" font-family="Helvetica,sans-Serif" font-size="10.00">/paraview/adaptor.cc</text>
</a>
</g>
</g>
<!-- Node2&#45;&gt;Node3 -->
<g id="edge2" class="edge"><title>Node2&#45;&gt;Node3</title>
<path fill="none" stroke="midnightblue" d="M57.5,-57.1081C57.5,-48.1539 57.5,-38.3227 57.5,-30.5765"/>
<polygon fill="midnightblue" stroke="midnightblue" points="54.0001,-57.3959 57.5,-67.396 61.0001,-57.396 54.0001,-57.3959"/>
</g>
</g>
</svg>
