<?xml version="1.0" encoding="UTF-8" standalone="no"?>
<!DOCTYPE svg PUBLIC "-//W3C//DTD SVG 1.1//EN"
 "http://www.w3.org/Graphics/SVG/1.1/DTD/svg11.dtd">
<!-- Generated by graphviz version 2.36.0 (20140111.2315)
 -->
<!-- Title: biology_module_util.h Pages: 1 -->
<svg width="1163pt" height="252pt"
 viewBox="0.00 0.00 1162.58 252.00" xmlns="http://www.w3.org/2000/svg" xmlns:xlink="http://www.w3.org/1999/xlink">
<g id="graph0" class="graph" transform="scale(1 1) rotate(0) translate(4 248)">
<title>biology_module_util.h</title>
<polygon fill="white" stroke="none" points="-4,4 -4,-248 1158.58,-248 1158.58,4 -4,4"/>
<!-- Node1 -->
<g id="node1" class="node"><title>Node1</title>
<polygon fill="#bfbfbf" stroke="black" points="416,-224.5 416,-243.5 526,-243.5 526,-224.5 416,-224.5"/>
<text text-anchor="middle" x="471" y="-231.5" font-family="Helvetica,sans-Serif" font-size="10.00">biology_module_util.h</text>
</g>
<!-- Node2 -->
<g id="node2" class="node"><title>Node2</title>
<g id="a_node2"><a xlink:href="event_8h.html" target="_top" xlink:title="event/event.h">
<polygon fill="white" stroke="black" points="320,-168.5 320,-187.5 396,-187.5 396,-168.5 320,-168.5"/>
<text text-anchor="middle" x="358" y="-175.5" font-family="Helvetica,sans-Serif" font-size="10.00">event/event.h</text>
</a>
</g>
</g>
<!-- Node1&#45;&gt;Node2 -->
<g id="edge1" class="edge"><title>Node1&#45;&gt;Node2</title>
<path fill="none" stroke="midnightblue" d="M453.095,-224.444C434.746,-215.675 405.995,-201.935 384.906,-191.858"/>
<polygon fill="midnightblue" stroke="midnightblue" points="386.353,-188.67 375.821,-187.516 383.335,-194.986 386.353,-188.67"/>
</g>
<!-- Node12 -->
<g id="node12" class="node"><title>Node12</title>
<g id="a_node12"><a xlink:href="type__util_8h.html" target="_top" xlink:title="type_util.h">
<polygon fill="white" stroke="black" points="440,-168.5 440,-187.5 502,-187.5 502,-168.5 440,-168.5"/>
<text text-anchor="middle" x="471" y="-175.5" font-family="Helvetica,sans-Serif" font-size="10.00">type_util.h</text>
</a>
</g>
</g>
<!-- Node1&#45;&gt;Node12 -->
<g id="edge12" class="edge"><title>Node1&#45;&gt;Node12</title>
<path fill="none" stroke="midnightblue" d="M471,-224.083C471,-217.006 471,-206.861 471,-197.986"/>
<polygon fill="midnightblue" stroke="midnightblue" points="474.5,-197.751 471,-187.751 467.5,-197.751 474.5,-197.751"/>
</g>
<!-- Node29 -->
<g id="node29" class="node"><title>Node29</title>
<g id="a_node29"><a xlink:href="variant_8h.html" target="_top" xlink:title="variant.h">
<polygon fill="white" stroke="black" points="912,-168.5 912,-187.5 966,-187.5 966,-168.5 912,-168.5"/>
<text text-anchor="middle" x="939" y="-175.5" font-family="Helvetica,sans-Serif" font-size="10.00">variant.h</text>
</a>
</g>
</g>
<!-- Node1&#45;&gt;Node29 -->
<g id="edge32" class="edge"><title>Node1&#45;&gt;Node29</title>
<path fill="none" stroke="midnightblue" d="M526.062,-226.647C622.473,-215.522 819.406,-192.799 901.63,-183.312"/>
<polygon fill="midnightblue" stroke="midnightblue" points="902.231,-186.766 911.764,-182.143 901.428,-179.812 902.231,-186.766"/>
</g>
<!-- Node3 -->
<g id="node3" class="node"><title>Node3</title>
<polygon fill="white" stroke="#bfbfbf" points="312,-112.5 312,-131.5 352,-131.5 352,-112.5 312,-112.5"/>
<text text-anchor="middle" x="332" y="-119.5" font-family="Helvetica,sans-Serif" font-size="10.00">limits</text>
</g>
<!-- Node2&#45;&gt;Node3 -->
<g id="edge2" class="edge"><title>Node2&#45;&gt;Node3</title>
<path fill="none" stroke="midnightblue" d="M353.707,-168.083C350.148,-160.691 344.978,-149.953 340.576,-140.811"/>
<polygon fill="midnightblue" stroke="midnightblue" points="343.705,-139.243 336.213,-131.751 337.398,-142.279 343.705,-139.243"/>
</g>
<!-- Node4 -->
<g id="node4" class="node"><title>Node4</title>
<polygon fill="white" stroke="#bfbfbf" points="0,-0.5 0,-19.5 44,-19.5 44,-0.5 0,-0.5"/>
<text text-anchor="middle" x="22" y="-7.5" font-family="Helvetica,sans-Serif" font-size="10.00">mutex</text>
</g>
<!-- Node2&#45;&gt;Node4 -->
<g id="edge3" class="edge"><title>Node2&#45;&gt;Node4</title>
<path fill="none" stroke="midnightblue" d="M340.408,-168.309C285.181,-141.024 115,-56.9465 48.7665,-24.2239"/>
<polygon fill="midnightblue" stroke="midnightblue" points="49.9334,-20.8966 39.4176,-19.6051 46.8328,-27.1725 49.9334,-20.8966"/>
</g>
<!-- Node5 -->
<g id="node5" class="node"><title>Node5</title>
<g id="a_node5"><a xlink:href="log_8h.html" target="_top" xlink:title="log.h">
<polygon fill="white" stroke="black" points="815,-112.5 815,-131.5 853,-131.5 853,-112.5 815,-112.5"/>
<text text-anchor="middle" x="834" y="-119.5" font-family="Helvetica,sans-Serif" font-size="10.00">log.h</text>
</a>
</g>
</g>
<!-- Node2&#45;&gt;Node5 -->
<g id="edge4" class="edge"><title>Node2&#45;&gt;Node5</title>
<path fill="none" stroke="midnightblue" d="M396.255,-172.2C407.45,-170.818 419.713,-169.326 431,-168 570.75,-151.583 737.939,-133.37 804.532,-126.173"/>
<polygon fill="midnightblue" stroke="midnightblue" points="805.13,-129.629 814.696,-125.076 804.378,-122.67 805.13,-129.629"/>
</g>
<!-- Node6 -->
<g id="node6" class="node"><title>Node6</title>
<polygon fill="white" stroke="#bfbfbf" points="742,-56.5 742,-75.5 794,-75.5 794,-56.5 742,-56.5"/>
<text text-anchor="middle" x="768" y="-63.5" font-family="Helvetica,sans-Serif" font-size="10.00">TError.h</text>
</g>
<!-- Node5&#45;&gt;Node6 -->
<g id="edge5" class="edge"><title>Node5&#45;&gt;Node6</title>
<path fill="none" stroke="midnightblue" d="M823.396,-112.324C813.544,-104.263 798.649,-92.0765 786.785,-82.3695"/>
<polygon fill="midnightblue" stroke="midnightblue" points="788.753,-79.4575 778.797,-75.8339 784.32,-84.8752 788.753,-79.4575"/>
</g>
<!-- Node7 -->
<g id="node7" class="node"><title>Node7</title>
<polygon fill="white" stroke="#bfbfbf" points="812.5,-56.5 812.5,-75.5 855.5,-75.5 855.5,-56.5 812.5,-56.5"/>
<text text-anchor="middle" x="834" y="-63.5" font-family="Helvetica,sans-Serif" font-size="10.00">cstdio</text>
</g>
<!-- Node5&#45;&gt;Node7 -->
<g id="edge6" class="edge"><title>Node5&#45;&gt;Node7</title>
<path fill="none" stroke="midnightblue" d="M834,-112.083C834,-105.006 834,-94.8611 834,-85.9865"/>
<polygon fill="midnightblue" stroke="midnightblue" points="837.5,-85.751 834,-75.7511 830.5,-85.7511 837.5,-85.751"/>
</g>
<!-- Node8 -->
<g id="node8" class="node"><title>Node8</title>
<polygon fill="white" stroke="#bfbfbf" points="1076,-56.5 1076,-75.5 1130,-75.5 1130,-56.5 1076,-56.5"/>
<text text-anchor="middle" x="1103" y="-63.5" font-family="Helvetica,sans-Serif" font-size="10.00">iostream</text>
</g>
<!-- Node5&#45;&gt;Node8 -->
<g id="edge7" class="edge"><title>Node5&#45;&gt;Node8</title>
<path fill="none" stroke="midnightblue" d="M853.346,-117.116C897.781,-108.196 1007.76,-86.1182 1065.79,-74.4701"/>
<polygon fill="midnightblue" stroke="midnightblue" points="1066.54,-77.8897 1075.65,-72.4899 1065.16,-71.0266 1066.54,-77.8897"/>
</g>
<!-- Node9 -->
<g id="node9" class="node"><title>Node9</title>
<polygon fill="white" stroke="#bfbfbf" points="813.5,-0.5 813.5,-19.5 854.5,-19.5 854.5,-0.5 813.5,-0.5"/>
<text text-anchor="middle" x="834" y="-7.5" font-family="Helvetica,sans-Serif" font-size="10.00">string</text>
</g>
<!-- Node5&#45;&gt;Node9 -->
<g id="edge8" class="edge"><title>Node5&#45;&gt;Node9</title>
<path fill="none" stroke="midnightblue" d="M842.214,-112.182C849.544,-103.663 859.755,-90.0191 864,-76 869.209,-58.7963 858.958,-40.2855 849.052,-27.4351"/>
<polygon fill="midnightblue" stroke="midnightblue" points="851.542,-24.9569 842.443,-19.5286 846.171,-29.4461 851.542,-24.9569"/>
</g>
<!-- Node10 -->
<g id="node10" class="node"><title>Node10</title>
<g id="a_node10"><a xlink:href="string__util_8h.html" target="_top" xlink:title="string_util.h">
<polygon fill="white" stroke="black" points="656.5,-56.5 656.5,-75.5 723.5,-75.5 723.5,-56.5 656.5,-56.5"/>
<text text-anchor="middle" x="690" y="-63.5" font-family="Helvetica,sans-Serif" font-size="10.00">string_util.h</text>
</a>
</g>
</g>
<!-- Node5&#45;&gt;Node10 -->
<g id="edge9" class="edge"><title>Node5&#45;&gt;Node10</title>
<path fill="none" stroke="midnightblue" d="M814.878,-113.829C791.336,-105.001 750.984,-89.869 722.532,-79.1994"/>
<polygon fill="midnightblue" stroke="midnightblue" points="723.604,-75.8634 713.011,-75.6293 721.146,-82.4177 723.604,-75.8634"/>
</g>
<!-- Node10&#45;&gt;Node9 -->
<g id="edge11" class="edge"><title>Node10&#45;&gt;Node9</title>
<path fill="none" stroke="midnightblue" d="M712.817,-56.4435C737.397,-47.2262 776.625,-32.5157 803.759,-22.3402"/>
<polygon fill="midnightblue" stroke="midnightblue" points="805.025,-25.6036 813.16,-18.8151 802.567,-19.0492 805.025,-25.6036"/>
</g>
<!-- Node11 -->
<g id="node11" class="node"><title>Node11</title>
<polygon fill="white" stroke="#bfbfbf" points="664,-0.5 664,-19.5 716,-19.5 716,-0.5 664,-0.5"/>
<text text-anchor="middle" x="690" y="-7.5" font-family="Helvetica,sans-Serif" font-size="10.00">sstream</text>
</g>
<!-- Node10&#45;&gt;Node11 -->
<g id="edge10" class="edge"><title>Node10&#45;&gt;Node11</title>
<path fill="none" stroke="midnightblue" d="M690,-56.083C690,-49.0059 690,-38.8611 690,-29.9865"/>
<polygon fill="midnightblue" stroke="midnightblue" points="693.5,-29.751 690,-19.7511 686.5,-29.7511 693.5,-29.751"/>
</g>
<!-- Node13 -->
<g id="node13" class="node"><title>Node13</title>
<polygon fill="white" stroke="#bfbfbf" points="576,-56.5 576,-75.5 638,-75.5 638,-56.5 576,-56.5"/>
<text text-anchor="middle" x="607" y="-63.5" font-family="Helvetica,sans-Serif" font-size="10.00">type_traits</text>
</g>
<!-- Node12&#45;&gt;Node13 -->
<g id="edge13" class="edge"><title>Node12&#45;&gt;Node13</title>
<path fill="none" stroke="midnightblue" d="M481.672,-168.368C504.711,-149.733 559.36,-105.532 588.289,-82.1338"/>
<polygon fill="midnightblue" stroke="midnightblue" points="590.804,-84.6014 596.378,-75.5914 586.402,-79.1589 590.804,-84.6014"/>
</g>
<!-- Node14 -->
<g id="node14" class="node"><title>Node14</title>
<g id="a_node14"><a xlink:href="backend_8h.html" target="_top" xlink:title="backend.h">
<polygon fill="white" stroke="black" points="440,-112.5 440,-131.5 502,-131.5 502,-112.5 440,-112.5"/>
<text text-anchor="middle" x="471" y="-119.5" font-family="Helvetica,sans-Serif" font-size="10.00">backend.h</text>
</a>
</g>
</g>
<!-- Node12&#45;&gt;Node14 -->
<g id="edge14" class="edge"><title>Node12&#45;&gt;Node14</title>
<path fill="none" stroke="midnightblue" d="M471,-168.083C471,-161.006 471,-150.861 471,-141.986"/>
<polygon fill="midnightblue" stroke="midnightblue" points="474.5,-141.751 471,-131.751 467.5,-141.751 474.5,-141.751"/>
</g>
<!-- Node28 -->
<g id="node28" class="node"><title>Node28</title>
<g id="a_node28"><a xlink:href="shape_8h.html" target="_top" xlink:title="shape.h">
<polygon fill="white" stroke="black" points="370.5,-112.5 370.5,-131.5 421.5,-131.5 421.5,-112.5 370.5,-112.5"/>
<text text-anchor="middle" x="396" y="-119.5" font-family="Helvetica,sans-Serif" font-size="10.00">shape.h</text>
</a>
</g>
</g>
<!-- Node12&#45;&gt;Node28 -->
<g id="edge31" class="edge"><title>Node12&#45;&gt;Node28</title>
<path fill="none" stroke="midnightblue" d="M458.95,-168.324C447.537,-160.107 430.169,-147.602 416.565,-137.807"/>
<polygon fill="midnightblue" stroke="midnightblue" points="418.43,-134.837 408.269,-131.834 414.34,-140.517 418.43,-134.837"/>
</g>
<!-- Node15 -->
<g id="node15" class="node"><title>Node15</title>
<polygon fill="white" stroke="#bfbfbf" points="305.5,-0.5 305.5,-19.5 364.5,-19.5 364.5,-0.5 305.5,-0.5"/>
<text text-anchor="middle" x="335" y="-7.5" font-family="Helvetica,sans-Serif" font-size="10.00">exception</text>
</g>
<!-- Node14&#45;&gt;Node15 -->
<g id="edge15" class="edge"><title>Node14&#45;&gt;Node15</title>
<path fill="none" stroke="midnightblue" d="M439.862,-113.486C399.096,-103.34 331.971,-85.4427 325,-76 314.96,-62.3994 319.879,-42.7879 325.811,-28.6681"/>
<polygon fill="midnightblue" stroke="midnightblue" points="329.024,-30.0607 330.111,-19.5218 322.689,-27.0826 329.024,-30.0607"/>
</g>
<!-- Node16 -->
<g id="node16" class="node"><title>Node16</title>
<polygon fill="white" stroke="#bfbfbf" points="334,-56.5 334,-75.5 386,-75.5 386,-56.5 334,-56.5"/>
<text text-anchor="middle" x="360" y="-63.5" font-family="Helvetica,sans-Serif" font-size="10.00">memory</text>
</g>
<!-- Node14&#45;&gt;Node16 -->
<g id="edge16" class="edge"><title>Node14&#45;&gt;Node16</title>
<path fill="none" stroke="midnightblue" d="M453.166,-112.324C435.284,-103.625 407.525,-90.1202 386.954,-80.113"/>
<polygon fill="midnightblue" stroke="midnightblue" points="388.313,-76.8819 377.79,-75.6545 385.251,-83.1765 388.313,-76.8819"/>
</g>
<!-- Node17 -->
<g id="node17" class="node"><title>Node17</title>
<polygon fill="white" stroke="#bfbfbf" points="518,-56.5 518,-75.5 558,-75.5 558,-56.5 518,-56.5"/>
<text text-anchor="middle" x="538" y="-63.5" font-family="Helvetica,sans-Serif" font-size="10.00">utility</text>
</g>
<!-- Node14&#45;&gt;Node17 -->
<g id="edge17" class="edge"><title>Node14&#45;&gt;Node17</title>
<path fill="none" stroke="midnightblue" d="M481.765,-112.324C491.766,-104.263 506.887,-92.0765 518.93,-82.3695"/>
<polygon fill="midnightblue" stroke="midnightblue" points="521.45,-84.8343 527.039,-75.8339 517.057,-79.3841 521.45,-84.8343"/>
</g>
<!-- Node18 -->
<g id="node18" class="node"><title>Node18</title>
<polygon fill="white" stroke="#bfbfbf" points="383,-0.5 383,-19.5 427,-19.5 427,-0.5 383,-0.5"/>
<text text-anchor="middle" x="405" y="-7.5" font-family="Helvetica,sans-Serif" font-size="10.00">vector</text>
</g>
<!-- Node14&#45;&gt;Node18 -->
<g id="edge18" class="edge"><title>Node14&#45;&gt;Node18</title>
<path fill="none" stroke="midnightblue" d="M462.294,-112.306C453.983,-103.661 441.5,-89.7396 433,-76 423.819,-61.1587 416.206,-42.7777 411.248,-29.3531"/>
<polygon fill="midnightblue" stroke="midnightblue" points="414.505,-28.0649 407.862,-19.8117 407.908,-30.4064 414.505,-28.0649"/>
</g>
<!-- Node19 -->
<g id="node19" class="node"><title>Node19</title>
<g id="a_node19"><a xlink:href="macros_8h.html" target="_top" xlink:title="macros.h">
<polygon fill="white" stroke="black" points="442.5,-56.5 442.5,-75.5 499.5,-75.5 499.5,-56.5 442.5,-56.5"/>
<text text-anchor="middle" x="471" y="-63.5" font-family="Helvetica,sans-Serif" font-size="10.00">macros.h</text>
</a>
</g>
</g>
<!-- Node14&#45;&gt;Node19 -->
<g id="edge19" class="edge"><title>Node14&#45;&gt;Node19</title>
<path fill="none" stroke="midnightblue" d="M471,-112.083C471,-105.006 471,-94.8611 471,-85.9865"/>
<polygon fill="midnightblue" stroke="midnightblue" points="474.5,-85.751 471,-75.7511 467.5,-85.7511 474.5,-85.751"/>
</g>
<!-- Node21 -->
<g id="node21" class="node"><title>Node21</title>
<g id="a_node21"><a xlink:href="root__util_8h.html" target="_top" xlink:title="root_util.h">
<polygon fill="white" stroke="black" points="950.5,-56.5 950.5,-75.5 1009.5,-75.5 1009.5,-56.5 950.5,-56.5"/>
<text text-anchor="middle" x="980" y="-63.5" font-family="Helvetica,sans-Serif" font-size="10.00">root_util.h</text>
</a>
</g>
</g>
<!-- Node14&#45;&gt;Node21 -->
<g id="edge21" class="edge"><title>Node14&#45;&gt;Node21</title>
<path fill="none" stroke="midnightblue" d="M502.074,-117.703C590.27,-108.347 842.091,-81.6308 940.195,-71.2229"/>
<polygon fill="midnightblue" stroke="midnightblue" points="940.717,-74.6873 950.292,-70.1518 939.978,-67.7264 940.717,-74.6873"/>
</g>
<!-- Node24 -->
<g id="node24" class="node"><title>Node24</title>
<g id="a_node24"><a xlink:href="transactional__vector_8h.html" target="_top" xlink:title="transactional_vector.h">
<polygon fill="white" stroke="black" points="164.5,-56.5 164.5,-75.5 277.5,-75.5 277.5,-56.5 164.5,-56.5"/>
<text text-anchor="middle" x="221" y="-63.5" font-family="Helvetica,sans-Serif" font-size="10.00">transactional_vector.h</text>
</a>
</g>
</g>
<!-- Node14&#45;&gt;Node24 -->
<g id="edge24" class="edge"><title>Node14&#45;&gt;Node24</title>
<path fill="none" stroke="midnightblue" d="M439.664,-114.108C436.401,-113.394 433.133,-112.681 430,-112 375.605,-100.174 313.212,-86.7597 270.862,-77.677"/>
<polygon fill="midnightblue" stroke="midnightblue" points="271.589,-74.2534 261.077,-75.5791 270.121,-81.0978 271.589,-74.2534"/>
</g>
<!-- Node20 -->
<g id="node20" class="node"><title>Node20</title>
<polygon fill="white" stroke="#bfbfbf" points="445,-0.5 445,-19.5 517,-19.5 517,-0.5 445,-0.5"/>
<text text-anchor="middle" x="481" y="-7.5" font-family="Helvetica,sans-Serif" font-size="10.00">cpp_magic.h</text>
</g>
<!-- Node19&#45;&gt;Node20 -->
<g id="edge20" class="edge"><title>Node19&#45;&gt;Node20</title>
<path fill="none" stroke="midnightblue" d="M472.651,-56.083C473.976,-48.9272 475.882,-38.6353 477.539,-29.6911"/>
<polygon fill="midnightblue" stroke="midnightblue" points="481,-30.2212 479.379,-19.7511 474.117,-28.9466 481,-30.2212"/>
</g>
<!-- Node22 -->
<g id="node22" class="node"><title>Node22</title>
<polygon fill="white" stroke="#bfbfbf" points="923,-0.5 923,-19.5 979,-19.5 979,-0.5 923,-0.5"/>
<text text-anchor="middle" x="951" y="-7.5" font-family="Helvetica,sans-Serif" font-size="10.00">Rtypes.h</text>
</g>
<!-- Node21&#45;&gt;Node22 -->
<g id="edge22" class="edge"><title>Node21&#45;&gt;Node22</title>
<path fill="none" stroke="midnightblue" d="M975.211,-56.083C971.242,-48.6913 965.475,-37.9533 960.565,-28.8111"/>
<polygon fill="midnightblue" stroke="midnightblue" points="963.514,-26.9051 955.7,-19.7511 957.347,-30.217 963.514,-26.9051"/>
</g>
<!-- Node23 -->
<g id="node23" class="node"><title>Node23</title>
<polygon fill="white" stroke="#bfbfbf" points="1091.5,-0.5 1091.5,-19.5 1148.5,-19.5 1148.5,-0.5 1091.5,-0.5"/>
<text text-anchor="middle" x="1120" y="-7.5" font-family="Helvetica,sans-Serif" font-size="10.00">TBuffer.h</text>
</g>
<!-- Node21&#45;&gt;Node23 -->
<g id="edge23" class="edge"><title>Node21&#45;&gt;Node23</title>
<path fill="none" stroke="midnightblue" d="M1002.18,-56.4435C1025.43,-47.4776 1062.15,-33.314 1088.42,-23.1827"/>
<polygon fill="midnightblue" stroke="midnightblue" points="1089.85,-26.3807 1097.92,-19.5164 1087.33,-19.8497 1089.85,-26.3807"/>
</g>
<!-- Node24&#45;&gt;Node4 -->
<g id="edge28" class="edge"><title>Node24&#45;&gt;Node4</title>
<path fill="none" stroke="midnightblue" d="M188.425,-56.4895C156.524,-48.1079 106.294,-34.7849 54.0998,-20.2682"/>
<polygon fill="midnightblue" stroke="midnightblue" points="54.9079,-16.8601 44.3352,-17.5446 53.0272,-23.6027 54.9079,-16.8601"/>
</g>
<!-- Node24&#45;&gt;Node15 -->
<g id="edge27" class="edge"><title>Node24&#45;&gt;Node15</title>
<path fill="none" stroke="midnightblue" d="M239.064,-56.4435C257.575,-47.6751 286.581,-33.9355 307.855,-23.8579"/>
<polygon fill="midnightblue" stroke="midnightblue" points="309.482,-26.9604 317.021,-19.5164 306.485,-20.6343 309.482,-26.9604"/>
</g>
<!-- Node24&#45;&gt;Node18 -->
<g id="edge30" class="edge"><title>Node24&#45;&gt;Node18</title>
<path fill="none" stroke="midnightblue" d="M250.155,-56.4435C283.727,-46.591 338.685,-30.4621 373.296,-20.3044"/>
<polygon fill="midnightblue" stroke="midnightblue" points="374.301,-23.6571 382.911,-17.4826 372.33,-16.9404 374.301,-23.6571"/>
</g>
<!-- Node25 -->
<g id="node25" class="node"><title>Node25</title>
<polygon fill="white" stroke="#bfbfbf" points="164,-0.5 164,-19.5 220,-19.5 220,-0.5 164,-0.5"/>
<text text-anchor="middle" x="192" y="-7.5" font-family="Helvetica,sans-Serif" font-size="10.00">algorithm</text>
</g>
<!-- Node24&#45;&gt;Node25 -->
<g id="edge25" class="edge"><title>Node24&#45;&gt;Node25</title>
<path fill="none" stroke="midnightblue" d="M216.211,-56.083C212.242,-48.6913 206.475,-37.9533 201.565,-28.8111"/>
<polygon fill="midnightblue" stroke="midnightblue" points="204.514,-26.9051 196.7,-19.7511 198.347,-30.217 204.514,-26.9051"/>
</g>
<!-- Node26 -->
<g id="node26" class="node"><title>Node26</title>
<polygon fill="white" stroke="#bfbfbf" points="238.5,-0.5 238.5,-19.5 287.5,-19.5 287.5,-0.5 238.5,-0.5"/>
<text text-anchor="middle" x="263" y="-7.5" font-family="Helvetica,sans-Serif" font-size="10.00">cassert</text>
</g>
<!-- Node24&#45;&gt;Node26 -->
<g id="edge26" class="edge"><title>Node24&#45;&gt;Node26</title>
<path fill="none" stroke="midnightblue" d="M227.935,-56.083C233.929,-48.3768 242.752,-37.0333 250.048,-27.6531"/>
<polygon fill="midnightblue" stroke="midnightblue" points="252.817,-29.7934 256.194,-19.7511 247.291,-25.4958 252.817,-29.7934"/>
</g>
<!-- Node27 -->
<g id="node27" class="node"><title>Node27</title>
<polygon fill="white" stroke="#bfbfbf" points="62.5,-0.5 62.5,-19.5 145.5,-19.5 145.5,-0.5 62.5,-0.5"/>
<text text-anchor="middle" x="104" y="-7.5" font-family="Helvetica,sans-Serif" font-size="10.00">unordered_map</text>
</g>
<!-- Node24&#45;&gt;Node27 -->
<g id="edge29" class="edge"><title>Node24&#45;&gt;Node27</title>
<path fill="none" stroke="midnightblue" d="M202.461,-56.4435C183.377,-47.6356 153.425,-33.8116 131.564,-23.722"/>
<polygon fill="midnightblue" stroke="midnightblue" points="132.999,-20.5292 122.452,-19.5164 130.065,-26.8849 132.999,-20.5292"/>
</g>
<!-- Node29&#45;&gt;Node5 -->
<g id="edge37" class="edge"><title>Node29&#45;&gt;Node5</title>
<path fill="none" stroke="midnightblue" d="M922.13,-168.324C905.291,-159.664 879.193,-146.242 859.762,-136.249"/>
<polygon fill="midnightblue" stroke="midnightblue" points="861.322,-133.116 850.828,-131.655 858.12,-139.341 861.322,-133.116"/>
</g>
<!-- Node29&#45;&gt;Node8 -->
<g id="edge35" class="edge"><title>Node29&#45;&gt;Node8</title>
<path fill="none" stroke="midnightblue" d="M966.107,-174.56C1013.26,-169.695 1107.25,-157.031 1127,-132 1138.23,-117.766 1127.92,-97.7617 1117.54,-83.7158"/>
<polygon fill="midnightblue" stroke="midnightblue" points="1120.23,-81.4785 1111.26,-75.845 1114.76,-85.8445 1120.23,-81.4785"/>
</g>
<!-- Node29&#45;&gt;Node21 -->
<g id="edge39" class="edge"><title>Node29&#45;&gt;Node21</title>
<path fill="none" stroke="midnightblue" d="M941.008,-168.433C944.068,-155.852 950.356,-131.734 958,-112 961.573,-102.776 966.314,-92.8645 970.48,-84.6976"/>
<polygon fill="midnightblue" stroke="midnightblue" points="973.62,-86.247 975.159,-75.7647 967.419,-82.999 973.62,-86.247"/>
</g>
<!-- Node29&#45;&gt;Node22 -->
<g id="edge33" class="edge"><title>Node29&#45;&gt;Node22</title>
<path fill="none" stroke="midnightblue" d="M938.708,-168.457C938.139,-148.63 937.317,-97.9766 942,-56 942.984,-47.1812 944.815,-37.5184 946.57,-29.4151"/>
<polygon fill="midnightblue" stroke="midnightblue" points="950.007,-30.0868 948.83,-19.5576 943.184,-28.5229 950.007,-30.0868"/>
</g>
<!-- Node29&#45;&gt;Node23 -->
<g id="edge34" class="edge"><title>Node29&#45;&gt;Node23</title>
<path fill="none" stroke="midnightblue" d="M966,-175.122C1016.26,-171.005 1121.08,-159.283 1143,-132 1167.23,-101.847 1145.73,-53.8924 1131.03,-28.3487"/>
<polygon fill="midnightblue" stroke="midnightblue" points="1134,-26.4963 1125.84,-19.74 1128.01,-30.1109 1134,-26.4963"/>
</g>
<!-- Node30 -->
<g id="node30" class="node"><title>Node30</title>
<polygon fill="white" stroke="#bfbfbf" points="967,-112.5 967,-131.5 1005,-131.5 1005,-112.5 967,-112.5"/>
<text text-anchor="middle" x="986" y="-119.5" font-family="Helvetica,sans-Serif" font-size="10.00">tuple</text>
</g>
<!-- Node29&#45;&gt;Node30 -->
<g id="edge36" class="edge"><title>Node29&#45;&gt;Node30</title>
<path fill="none" stroke="midnightblue" d="M946.761,-168.083C953.537,-160.298 963.543,-148.801 971.755,-139.367"/>
<polygon fill="midnightblue" stroke="midnightblue" points="974.458,-141.592 978.383,-131.751 969.178,-136.996 974.458,-141.592"/>
</g>
<!-- Node31 -->
<g id="node31" class="node"><title>Node31</title>
<polygon fill="white" stroke="#bfbfbf" points="1023.5,-112.5 1023.5,-131.5 1118.5,-131.5 1118.5,-112.5 1023.5,-112.5"/>
<text text-anchor="middle" x="1071" y="-119.5" font-family="Helvetica,sans-Serif" font-size="10.00">mpark/variant.hpp</text>
</g>
<!-- Node29&#45;&gt;Node31 -->
<g id="edge38" class="edge"><title>Node29&#45;&gt;Node31</title>
<path fill="none" stroke="midnightblue" d="M959.916,-168.444C981.736,-159.517 1016.15,-145.439 1040.89,-135.317"/>
<polygon fill="midnightblue" stroke="midnightblue" points="1042.25,-138.542 1050.18,-131.516 1039.6,-132.063 1042.25,-138.542"/>
</g>
<!-- Node32 -->
<g id="node32" class="node"><title>Node32</title>
<g id="a_node32"><a xlink:href="tuple__util_8h.html" target="_top" xlink:title="tuple_util.h">
<polygon fill="white" stroke="black" points="575,-112.5 575,-131.5 639,-131.5 639,-112.5 575,-112.5"/>
<text text-anchor="middle" x="607" y="-119.5" font-family="Helvetica,sans-Serif" font-size="10.00">tuple_util.h</text>
</a>
</g>
</g>
<!-- Node29&#45;&gt;Node32 -->
<g id="edge40" class="edge"><title>Node29&#45;&gt;Node32</title>
<path fill="none" stroke="midnightblue" d="M911.831,-172.581C854.088,-163.189 718.784,-141.182 649.508,-129.914"/>
<polygon fill="midnightblue" stroke="midnightblue" points="649.813,-126.418 639.381,-128.267 648.69,-133.327 649.813,-126.418"/>
</g>
<!-- Node32&#45;&gt;Node13 -->
<g id="edge41" class="edge"><title>Node32&#45;&gt;Node13</title>
<path fill="none" stroke="midnightblue" d="M607,-112.083C607,-105.006 607,-94.8611 607,-85.9865"/>
<polygon fill="midnightblue" stroke="midnightblue" points="610.5,-85.751 607,-75.7511 603.5,-85.7511 610.5,-85.751"/>
</g>
<!-- Node32&#45;&gt;Node17 -->
<g id="edge42" class="edge"><title>Node32&#45;&gt;Node17</title>
<path fill="none" stroke="midnightblue" d="M595.914,-112.324C585.514,-104.185 569.739,-91.8395 557.278,-82.0874"/>
<polygon fill="midnightblue" stroke="midnightblue" points="559.32,-79.2407 549.288,-75.8339 555.006,-84.7533 559.32,-79.2407"/>
</g>
</g>
</svg>
