<?xml version="1.0" encoding="UTF-8" standalone="no"?>
<!DOCTYPE svg PUBLIC "-//W3C//DTD SVG 1.1//EN"
 "http://www.w3.org/Graphics/SVG/1.1/DTD/svg11.dtd">
<!-- Generated by graphviz version 2.40.1 (20161225.0304)
 -->
<!-- Title: core/operation/bound_space_op.h Pages: 1 -->
<svg width="367pt" height="218pt"
 viewBox="0.00 0.00 367.00 218.00" xmlns="http://www.w3.org/2000/svg" xmlns:xlink="http://www.w3.org/1999/xlink">
<g id="graph0" class="graph" transform="scale(1 1) rotate(0) translate(4 214)">
<title>core/operation/bound_space_op.h</title>
<polygon fill="#ffffff" stroke="transparent" points="-4,4 -4,-214 363,-214 363,4 -4,4"/>
<!-- Node64 -->
<g id="node1" class="node">
<title>Node64</title>
<polygon fill="#bfbfbf" stroke="#000000" points="138,-179.5 138,-209.5 245,-209.5 245,-179.5 138,-179.5"/>
<text text-anchor="start" x="146" y="-197.5" font-family="Helvetica,sans-Serif" font-size="10.00" fill="#000000">core/operation/bound</text>
<text text-anchor="middle" x="191.5" y="-186.5" font-family="Helvetica,sans-Serif" font-size="10.00" fill="#000000">_space_op.h</text>
</g>
<!-- Node65 -->
<g id="node2" class="node">
<title>Node65</title>
<g id="a_node2"><a xlink:href="displacement__op__cpu_8h.html" target="_top" xlink:title="core/operation/displacement\l_op_cpu.h">
<polygon fill="#ffffff" stroke="#000000" points="18,-112.5 18,-142.5 157,-142.5 157,-112.5 18,-112.5"/>
<text text-anchor="start" x="26" y="-130.5" font-family="Helvetica,sans-Serif" font-size="10.00" fill="#000000">core/operation/displacement</text>
<text text-anchor="middle" x="87.5" y="-119.5" font-family="Helvetica,sans-Serif" font-size="10.00" fill="#000000">_op_cpu.h</text>
</a>
</g>
</g>
<!-- Node64&#45;&gt;Node65 -->
<g id="edge1" class="edge">
<title>Node64&#45;&gt;Node65</title>
<path fill="none" stroke="#191970" d="M159.361,-173.7951C143.7777,-163.7558 125.3939,-151.9124 111.1216,-142.7177"/>
<polygon fill="#191970" stroke="#191970" points="157.8583,-176.9904 168.1604,-179.4639 161.6494,-171.1058 157.8583,-176.9904"/>
</g>
<!-- Node67 -->
<g id="node4" class="node">
<title>Node67</title>
<g id="a_node4"><a xlink:href="scheduler_8cc.html" target="_top" xlink:title="core/scheduler.cc">
<polygon fill="#ffffff" stroke="#000000" points="89.5,-.5 89.5,-19.5 183.5,-19.5 183.5,-.5 89.5,-.5"/>
<text text-anchor="middle" x="136.5" y="-7.5" font-family="Helvetica,sans-Serif" font-size="10.00" fill="#000000">core/scheduler.cc</text>
</a>
</g>
</g>
<!-- Node64&#45;&gt;Node67 -->
<g id="edge5" class="edge">
<title>Node64&#45;&gt;Node67</title>
<path fill="none" stroke="#191970" d="M191.9259,-168.924C191.5241,-140.3072 188.1933,-93.0985 172.5,-56 166.4947,-41.8036 154.9293,-28.2486 146.5235,-19.5782"/>
<polygon fill="#191970" stroke="#191970" points="188.4268,-169.2794 191.9532,-179.2702 195.4267,-169.2609 188.4268,-169.2794"/>
</g>
<!-- Node68 -->
<g id="node5" class="node">
<title>Node68</title>
<g id="a_node5"><a xlink:href="displacement__op__cuda_8h.html" target="_top" xlink:title="core/operation/displacement\l_op_cuda.h">
<polygon fill="#ffffff" stroke="#000000" points="220,-112.5 220,-142.5 359,-142.5 359,-112.5 220,-112.5"/>
<text text-anchor="start" x="228" y="-130.5" font-family="Helvetica,sans-Serif" font-size="10.00" fill="#000000">core/operation/displacement</text>
<text text-anchor="middle" x="289.5" y="-119.5" font-family="Helvetica,sans-Serif" font-size="10.00" fill="#000000">_op_cuda.h</text>
</a>
</g>
</g>
<!-- Node64&#45;&gt;Node68 -->
<g id="edge4" class="edge">
<title>Node64&#45;&gt;Node68</title>
<path fill="none" stroke="#191970" d="M222.0283,-173.6286C236.7001,-163.5979 253.9602,-151.7976 267.3503,-142.6432"/>
<polygon fill="#191970" stroke="#191970" points="220.0175,-170.7635 213.7377,-179.2967 223.9682,-176.5421 220.0175,-170.7635"/>
</g>
<!-- Node66 -->
<g id="node3" class="node">
<title>Node66</title>
<g id="a_node3"><a xlink:href="displacement__op_8h.html" target="_top" xlink:title="core/operation/displacement_op.h">
<polygon fill="#ffffff" stroke="#000000" points="0,-56.5 0,-75.5 163,-75.5 163,-56.5 0,-56.5"/>
<text text-anchor="middle" x="81.5" y="-63.5" font-family="Helvetica,sans-Serif" font-size="10.00" fill="#000000">core/operation/displacement_op.h</text>
</a>
</g>
</g>
<!-- Node65&#45;&gt;Node66 -->
<g id="edge2" class="edge">
<title>Node65&#45;&gt;Node66</title>
<path fill="none" stroke="#191970" d="M85.04,-102.2849C84.1328,-92.9858 83.1574,-82.9883 82.4607,-75.8469"/>
<polygon fill="#191970" stroke="#191970" points="81.5623,-102.6849 86.0169,-112.2977 88.5292,-102.0051 81.5623,-102.6849"/>
</g>
<!-- Node66&#45;&gt;Node67 -->
<g id="edge3" class="edge">
<title>Node66&#45;&gt;Node67</title>
<path fill="none" stroke="#191970" d="M98.1226,-49.0751C107.5855,-39.4402 119.0969,-27.7196 127.0295,-19.6427"/>
<polygon fill="#191970" stroke="#191970" points="95.5903,-46.6585 91.0803,-56.2455 100.5845,-51.5635 95.5903,-46.6585"/>
</g>
</g>
</svg>
