<?xml version="1.0" encoding="UTF-8" standalone="no"?>
<!DOCTYPE svg PUBLIC "-//W3C//DTD SVG 1.1//EN"
 "http://www.w3.org/Graphics/SVG/1.1/DTD/svg11.dtd">
<!-- Generated by graphviz version 2.40.1 (20161225.0304)
 -->
<!-- Title: core/agent/cell.cc Pages: 1 -->
<svg width="2792pt" height="576pt"
 viewBox="0.00 0.00 2791.50 576.00" xmlns="http://www.w3.org/2000/svg" xmlns:xlink="http://www.w3.org/1999/xlink">
<g id="graph0" class="graph" transform="scale(1 1) rotate(0) translate(4 572)">
<title>core/agent/cell.cc</title>
<polygon fill="#ffffff" stroke="transparent" points="-4,4 -4,-572 2787.5,-572 2787.5,4 -4,4"/>
<!-- Node0 -->
<g id="node1" class="node">
<title>Node0</title>
<polygon fill="#bfbfbf" stroke="#000000" points="988,-548.5 988,-567.5 1082,-567.5 1082,-548.5 988,-548.5"/>
<text text-anchor="middle" x="1035" y="-555.5" font-family="Helvetica,sans-Serif" font-size="10.00" fill="#000000">core/agent/cell.cc</text>
</g>
<!-- Node1 -->
<g id="node2" class="node">
<title>Node1</title>
<g id="a_node2"><a xlink:href="cell_8h.html" target="_top" xlink:title="core/agent/cell.h">
<polygon fill="#ffffff" stroke="#000000" points="990.5,-492.5 990.5,-511.5 1079.5,-511.5 1079.5,-492.5 990.5,-492.5"/>
<text text-anchor="middle" x="1035" y="-499.5" font-family="Helvetica,sans-Serif" font-size="10.00" fill="#000000">core/agent/cell.h</text>
</a>
</g>
</g>
<!-- Node0&#45;&gt;Node1 -->
<g id="edge1" class="edge">
<title>Node0&#45;&gt;Node1</title>
<path fill="none" stroke="#191970" d="M1035,-548.2455C1035,-540.9382 1035,-530.6944 1035,-521.7046"/>
<polygon fill="#191970" stroke="#191970" points="1038.5001,-521.6426 1035,-511.6427 1031.5001,-521.6427 1038.5001,-521.6426"/>
</g>
<!-- Node2 -->
<g id="node3" class="node">
<title>Node2</title>
<polygon fill="#ffffff" stroke="#bfbfbf" points="171,-230 171,-249 209,-249 209,-230 171,-230"/>
<text text-anchor="middle" x="190" y="-237" font-family="Helvetica,sans-Serif" font-size="10.00" fill="#000000">array</text>
</g>
<!-- Node1&#45;&gt;Node2 -->
<g id="edge2" class="edge">
<title>Node1&#45;&gt;Node2</title>
<path fill="none" stroke="#191970" d="M990.0961,-500.6166C857.6012,-496.2796 469.8423,-481.6857 346,-456 259.1453,-437.9858 209.1217,-461.4901 158,-389 129.5651,-348.6796 159.2949,-288.0922 177.7138,-257.9279"/>
<polygon fill="#191970" stroke="#191970" points="180.8065,-259.5865 183.2084,-249.2675 174.8957,-255.8363 180.8065,-259.5865"/>
</g>
<!-- Node3 -->
<g id="node4" class="node">
<title>Node3</title>
<polygon fill="#ffffff" stroke="#bfbfbf" points="54,-230 54,-249 98,-249 98,-230 54,-230"/>
<text text-anchor="middle" x="76" y="-237" font-family="Helvetica,sans-Serif" font-size="10.00" fill="#000000">cmath</text>
</g>
<!-- Node1&#45;&gt;Node3 -->
<g id="edge3" class="edge">
<title>Node1&#45;&gt;Node3</title>
<path fill="none" stroke="#191970" d="M990.4989,-501.81C826.4338,-500.8064 261.2777,-494.5566 191,-456 116.0114,-414.8588 87.888,-304.8878 79.2621,-259.5089"/>
<polygon fill="#191970" stroke="#191970" points="82.6692,-258.6775 77.4725,-249.4448 75.7774,-259.9031 82.6692,-258.6775"/>
</g>
<!-- Node4 -->
<g id="node5" class="node">
<title>Node4</title>
<polygon fill="#ffffff" stroke="#bfbfbf" points="2730.5,-431 2730.5,-450 2783.5,-450 2783.5,-431 2730.5,-431"/>
<text text-anchor="middle" x="2757" y="-438" font-family="Helvetica,sans-Serif" font-size="10.00" fill="#000000">complex</text>
</g>
<!-- Node1&#45;&gt;Node4 -->
<g id="edge4" class="edge">
<title>Node1&#45;&gt;Node4</title>
<path fill="none" stroke="#191970" d="M1079.6165,-501.6668C1329.651,-499.681 2551.5596,-488.376 2716,-456 2719.2852,-455.3532 2722.6523,-454.4708 2725.9761,-453.453"/>
<polygon fill="#191970" stroke="#191970" points="2727.3853,-456.6691 2735.6924,-450.0932 2725.0976,-450.0535 2727.3853,-456.6691"/>
</g>
<!-- Node5 -->
<g id="node6" class="node">
<title>Node5</title>
<polygon fill="#ffffff" stroke="#bfbfbf" points="2174,-364 2174,-383 2204,-383 2204,-364 2174,-364"/>
<text text-anchor="middle" x="2189" y="-371" font-family="Helvetica,sans-Serif" font-size="10.00" fill="#000000">set</text>
</g>
<!-- Node1&#45;&gt;Node5 -->
<g id="edge5" class="edge">
<title>Node1&#45;&gt;Node5</title>
<path fill="none" stroke="#191970" d="M1079.6685,-501.3303C1264.4562,-498.3781 1963.8541,-485.3485 2058,-456 2102.1063,-442.2506 2146.0427,-409.7707 2170.1525,-389.9123"/>
<polygon fill="#191970" stroke="#191970" points="2172.7023,-392.341 2178.1015,-383.2251 2168.196,-386.9843 2172.7023,-392.341"/>
</g>
<!-- Node6 -->
<g id="node7" class="node">
<title>Node6</title>
<polygon fill="#ffffff" stroke="#bfbfbf" points="1269.5,-.5 1269.5,-19.5 1310.5,-19.5 1310.5,-.5 1269.5,-.5"/>
<text text-anchor="middle" x="1290" y="-7.5" font-family="Helvetica,sans-Serif" font-size="10.00" fill="#000000">string</text>
</g>
<!-- Node1&#45;&gt;Node6 -->
<g id="edge6" class="edge">
<title>Node1&#45;&gt;Node6</title>
<path fill="none" stroke="#191970" d="M990.3012,-500.8398C822.0089,-496.3121 232.0011,-478.9432 151,-456 77.4202,-435.1588 0,-449.9745 0,-373.5 0,-373.5 0,-373.5 0,-122 0,-56.6729 1063.8501,-17.6308 1259.3337,-11.0082"/>
<polygon fill="#191970" stroke="#191970" points="1259.5999,-14.5013 1269.4767,-10.6674 1259.3648,-7.5053 1259.5999,-14.5013"/>
</g>
<!-- Node7 -->
<g id="node8" class="node">
<title>Node7</title>
<polygon fill="#ffffff" stroke="#bfbfbf" points="1580,-297 1580,-316 1642,-316 1642,-297 1580,-297"/>
<text text-anchor="middle" x="1611" y="-304" font-family="Helvetica,sans-Serif" font-size="10.00" fill="#000000">type_traits</text>
</g>
<!-- Node1&#45;&gt;Node7 -->
<g id="edge7" class="edge">
<title>Node1&#45;&gt;Node7</title>
<path fill="none" stroke="#191970" d="M1079.6334,-498.95C1197.138,-489.9968 1510.8937,-459.8302 1582,-389 1599.004,-372.062 1606.066,-344.5831 1608.9806,-326.0408"/>
<polygon fill="#191970" stroke="#191970" points="1612.459,-326.4336 1610.2864,-316.0639 1605.5181,-325.5251 1612.459,-326.4336"/>
</g>
<!-- Node8 -->
<g id="node9" class="node">
<title>Node8</title>
<polygon fill="#ffffff" stroke="#bfbfbf" points="1555,-168.5 1555,-187.5 1599,-187.5 1599,-168.5 1555,-168.5"/>
<text text-anchor="middle" x="1577" y="-175.5" font-family="Helvetica,sans-Serif" font-size="10.00" fill="#000000">vector</text>
</g>
<!-- Node1&#45;&gt;Node8 -->
<g id="edge8" class="edge">
<title>Node1&#45;&gt;Node8</title>
<path fill="none" stroke="#191970" d="M1079.906,-500.4176C1206.0605,-495.712 1561.8869,-480.5835 1676,-456 1760.2627,-437.8472 1777.3635,-419.4546 1858,-389 1972.6503,-345.6992 2051.6813,-368.0513 2099,-255 2104.3196,-242.2906 2108.3049,-234.161 2099,-224 2065.8502,-187.8005 1717.6148,-179.9434 1609.1006,-178.3686"/>
<polygon fill="#191970" stroke="#191970" points="1609.1251,-174.8687 1599.0781,-178.2314 1609.0292,-181.8681 1609.1251,-174.8687"/>
</g>
<!-- Node9 -->
<g id="node10" class="node">
<title>Node9</title>
<g id="a_node10"><a xlink:href="agent_8h.html" target="_top" xlink:title="core/agent/agent.h">
<polygon fill="#ffffff" stroke="#000000" points="1282,-431 1282,-450 1380,-450 1380,-431 1282,-431"/>
<text text-anchor="middle" x="1331" y="-438" font-family="Helvetica,sans-Serif" font-size="10.00" fill="#000000">core/agent/agent.h</text>
</a>
</g>
</g>
<!-- Node1&#45;&gt;Node9 -->
<g id="edge9" class="edge">
<title>Node1&#45;&gt;Node9</title>
<path fill="none" stroke="#191970" d="M1079.6347,-492.7262C1131.8931,-481.8685 1218.4933,-463.8755 1275.1571,-452.1025"/>
<polygon fill="#191970" stroke="#191970" points="1275.9471,-455.5132 1285.026,-450.052 1274.5231,-448.6596 1275.9471,-455.5132"/>
</g>
<!-- Node29 -->
<g id="node23" class="node">
<title>Node29</title>
<g id="a_node23"><a xlink:href="in__place__exec__ctxt_8h.html" target="_top" xlink:title="core/execution_context\l/in_place_exec_ctxt.h">
<polygon fill="#ffffff" stroke="#000000" points="1698,-291.5 1698,-321.5 1816,-321.5 1816,-291.5 1698,-291.5"/>
<text text-anchor="start" x="1706" y="-309.5" font-family="Helvetica,sans-Serif" font-size="10.00" fill="#000000">core/execution_context</text>
<text text-anchor="middle" x="1757" y="-298.5" font-family="Helvetica,sans-Serif" font-size="10.00" fill="#000000">/in_place_exec_ctxt.h</text>
</a>
</g>
</g>
<!-- Node1&#45;&gt;Node29 -->
<g id="edge101" class="edge">
<title>Node1&#45;&gt;Node29</title>
<path fill="none" stroke="#191970" d="M1079.6975,-500.7986C1217.0057,-496.1991 1629.18,-475.33 1725,-389 1741.4105,-374.2148 1749.4815,-350.0134 1753.404,-331.6369"/>
<polygon fill="#191970" stroke="#191970" points="1756.8822,-332.0762 1755.2659,-321.6054 1749.9997,-330.7988 1756.8822,-332.0762"/>
</g>
<!-- Node33 -->
<g id="node27" class="node">
<title>Node33</title>
<g id="a_node27"><a xlink:href="functor_8h.html" target="_top" xlink:title="core/functor.h">
<polygon fill="#ffffff" stroke="#000000" points="2406.5,-230 2406.5,-249 2483.5,-249 2483.5,-230 2406.5,-230"/>
<text text-anchor="middle" x="2445" y="-237" font-family="Helvetica,sans-Serif" font-size="10.00" fill="#000000">core/functor.h</text>
</a>
</g>
</g>
<!-- Node1&#45;&gt;Node33 -->
<g id="edge102" class="edge">
<title>Node1&#45;&gt;Node33</title>
<path fill="none" stroke="#191970" d="M1079.5455,-501.656C1282.2252,-499.9093 2118.5806,-490.6968 2378,-456 2506.5426,-438.8077 2581.511,-490.6872 2662,-389 2715.5049,-321.4037 2572.6619,-272.3175 2493.5416,-251.1171"/>
<polygon fill="#191970" stroke="#191970" points="2494.3207,-247.7031 2483.7598,-248.5507 2492.5442,-254.474 2494.3207,-247.7031"/>
</g>
<!-- Node51 -->
<g id="node31" class="node">
<title>Node51</title>
<g id="a_node31"><a xlink:href="new__agent__event_8h.html" target="_top" xlink:title="core/agent/new_agent\l_event.h">
<polygon fill="#ffffff" stroke="#000000" points="403.5,-358.5 403.5,-388.5 516.5,-388.5 516.5,-358.5 403.5,-358.5"/>
<text text-anchor="start" x="411.5" y="-376.5" font-family="Helvetica,sans-Serif" font-size="10.00" fill="#000000">core/agent/new_agent</text>
<text text-anchor="middle" x="460" y="-365.5" font-family="Helvetica,sans-Serif" font-size="10.00" fill="#000000">_event.h</text>
</a>
</g>
</g>
<!-- Node1&#45;&gt;Node51 -->
<g id="edge98" class="edge">
<title>Node1&#45;&gt;Node51</title>
<path fill="none" stroke="#191970" d="M990.4744,-501.1386C866.3288,-498.3439 522.8725,-487.7896 484,-456 467.2229,-442.2798 461.7588,-417.5591 460.1704,-398.7439"/>
<polygon fill="#191970" stroke="#191970" points="463.6645,-398.5392 459.6329,-388.7415 456.6746,-398.9149 463.6645,-398.5392"/>
</g>
<!-- Node53 -->
<g id="node33" class="node">
<title>Node53</title>
<g id="a_node33"><a xlink:href="inline__vector_8h.html" target="_top" xlink:title="core/container/inline\l_vector.h">
<polygon fill="#ffffff" stroke="#000000" points="833,-291.5 833,-321.5 937,-321.5 937,-291.5 833,-291.5"/>
<text text-anchor="start" x="841" y="-309.5" font-family="Helvetica,sans-Serif" font-size="10.00" fill="#000000">core/container/inline</text>
<text text-anchor="middle" x="885" y="-298.5" font-family="Helvetica,sans-Serif" font-size="10.00" fill="#000000">_vector.h</text>
</a>
</g>
</g>
<!-- Node1&#45;&gt;Node53 -->
<g id="edge99" class="edge">
<title>Node1&#45;&gt;Node53</title>
<path fill="none" stroke="#191970" d="M1027.5615,-492.3051C1004.8312,-462.68 935.8377,-372.7585 902.8877,-329.8136"/>
<polygon fill="#191970" stroke="#191970" points="905.4819,-327.445 896.6177,-321.6418 899.9282,-331.7061 905.4819,-327.445"/>
</g>
<!-- Node48 -->
<g id="node37" class="node">
<title>Node48</title>
<g id="a_node37"><a xlink:href="math__array_8h.html" target="_top" xlink:title="core/container/math\l_array.h">
<polygon fill="#ffffff" stroke="#000000" points="532.5,-291.5 532.5,-321.5 635.5,-321.5 635.5,-291.5 532.5,-291.5"/>
<text text-anchor="start" x="540.5" y="-309.5" font-family="Helvetica,sans-Serif" font-size="10.00" fill="#000000">core/container/math</text>
<text text-anchor="middle" x="584" y="-298.5" font-family="Helvetica,sans-Serif" font-size="10.00" fill="#000000">_array.h</text>
</a>
</g>
</g>
<!-- Node1&#45;&gt;Node48 -->
<g id="edge100" class="edge">
<title>Node1&#45;&gt;Node48</title>
<path fill="none" stroke="#191970" d="M990.2559,-493.335C922.9291,-478.9601 793.1215,-445.9722 696,-389 678.3615,-378.6531 678.137,-370.5606 662,-358 647.8963,-347.0221 631.4904,-335.9575 617.3739,-326.9129"/>
<polygon fill="#191970" stroke="#191970" points="619.2425,-323.9535 608.9213,-321.5613 615.4979,-329.8678 619.2425,-323.9535"/>
</g>
<!-- Node59 -->
<g id="node40" class="node">
<title>Node59</title>
<g id="a_node40"><a xlink:href="interaction__force_8h.html" target="_top" xlink:title="core/interaction_force.h">
<polygon fill="#ffffff" stroke="#000000" points="534.5,-364 534.5,-383 653.5,-383 653.5,-364 534.5,-364"/>
<text text-anchor="middle" x="594" y="-371" font-family="Helvetica,sans-Serif" font-size="10.00" fill="#000000">core/interaction_force.h</text>
</a>
</g>
</g>
<!-- Node1&#45;&gt;Node59 -->
<g id="edge103" class="edge">
<title>Node1&#45;&gt;Node59</title>
<path fill="none" stroke="#191970" d="M990.2293,-500.2799C905.0217,-496.3774 723.1148,-484.8459 668,-456 639.8727,-441.2788 617.2621,-411.2619 604.7415,-391.782"/>
<polygon fill="#191970" stroke="#191970" points="607.6596,-389.846 599.4256,-383.1787 601.7046,-393.5256 607.6596,-389.846"/>
</g>
<!-- Node60 -->
<g id="node41" class="node">
<title>Node60</title>
<g id="a_node41"><a xlink:href="shape_8h.html" target="_top" xlink:title="core/shape.h">
<polygon fill="#ffffff" stroke="#000000" points="1948.5,-297 1948.5,-316 2021.5,-316 2021.5,-297 1948.5,-297"/>
<text text-anchor="middle" x="1985" y="-304" font-family="Helvetica,sans-Serif" font-size="10.00" fill="#000000">core/shape.h</text>
</a>
</g>
</g>
<!-- Node1&#45;&gt;Node60 -->
<g id="edge119" class="edge">
<title>Node1&#45;&gt;Node60</title>
<path fill="none" stroke="#191970" d="M1079.7767,-500.1994C1197.3085,-495.1928 1512.5321,-479.8833 1614,-456 1748.4645,-424.35 1897.9712,-351.6175 1957.9515,-320.7598"/>
<polygon fill="#191970" stroke="#191970" points="1959.8498,-323.7182 1967.1184,-316.0099 1956.6293,-317.503 1959.8498,-323.7182"/>
</g>
<!-- Node63 -->
<g id="node44" class="node">
<title>Node63</title>
<g id="a_node44"><a xlink:href="cell__division__event_8h.html" target="_top" xlink:title="core/agent/cell_division\l_event.h">
<polygon fill="#ffffff" stroke="#000000" points="493.5,-425.5 493.5,-455.5 612.5,-455.5 612.5,-425.5 493.5,-425.5"/>
<text text-anchor="start" x="501.5" y="-443.5" font-family="Helvetica,sans-Serif" font-size="10.00" fill="#000000">core/agent/cell_division</text>
<text text-anchor="middle" x="553" y="-432.5" font-family="Helvetica,sans-Serif" font-size="10.00" fill="#000000">_event.h</text>
</a>
</g>
</g>
<!-- Node1&#45;&gt;Node63 -->
<g id="edge96" class="edge">
<title>Node1&#45;&gt;Node63</title>
<path fill="none" stroke="#191970" d="M990.253,-498.2886C915.1185,-491.756 758.9639,-476.8892 628,-456 626.2849,-455.7264 624.5495,-455.4404 622.8005,-455.144"/>
<polygon fill="#191970" stroke="#191970" points="623.1368,-451.649 612.6787,-453.3455 621.9121,-458.541 623.1368,-451.649"/>
</g>
<!-- Node64 -->
<g id="node45" class="node">
<title>Node64</title>
<g id="a_node45"><a xlink:href="core_2param_2param_8h.html" target="_top" xlink:title="core/param/param.h">
<polygon fill="#ffffff" stroke="#000000" points="2265,-431 2265,-450 2369,-450 2369,-431 2265,-431"/>
<text text-anchor="middle" x="2317" y="-438" font-family="Helvetica,sans-Serif" font-size="10.00" fill="#000000">core/param/param.h</text>
</a>
</g>
</g>
<!-- Node1&#45;&gt;Node64 -->
<g id="edge104" class="edge">
<title>Node1&#45;&gt;Node64</title>
<path fill="none" stroke="#191970" d="M1079.6571,-500.9807C1230.423,-497.3637 1734.3883,-483.8421 2150,-456 2184.585,-453.6831 2223.1165,-450.1693 2254.4457,-447.0728"/>
<polygon fill="#191970" stroke="#191970" points="2255.1755,-450.5174 2264.7782,-446.041 2254.4798,-443.5521 2255.1755,-450.5174"/>
</g>
<!-- Node69 -->
<g id="node50" class="node">
<title>Node69</title>
<g id="a_node50"><a xlink:href="math_8h.html" target="_top" xlink:title="core/util/math.h">
<polygon fill="#ffffff" stroke="#ff0000" points="167,-364 167,-383 251,-383 251,-364 167,-364"/>
<text text-anchor="middle" x="209" y="-371" font-family="Helvetica,sans-Serif" font-size="10.00" fill="#000000">core/util/math.h</text>
</a>
</g>
</g>
<!-- Node1&#45;&gt;Node69 -->
<g id="edge120" class="edge">
<title>Node1&#45;&gt;Node69</title>
<path fill="none" stroke="#191970" d="M990.3476,-499.7752C873.906,-493.7561 563.0363,-476.2352 462,-456 380.7992,-439.7374 289.272,-405.8012 241.6901,-386.9145"/>
<polygon fill="#191970" stroke="#191970" points="242.8077,-383.5919 232.2231,-383.1245 240.206,-390.0905 242.8077,-383.5919"/>
</g>
<!-- Node9&#45;&gt;Node5 -->
<g id="edge14" class="edge">
<title>Node9&#45;&gt;Node5</title>
<path fill="none" stroke="#191970" d="M1380.2704,-438.9125C1548.0075,-433.3074 2090.5803,-413.4602 2165,-389 2166.0367,-388.6593 2167.0724,-388.2626 2168.0997,-387.8222"/>
<polygon fill="#191970" stroke="#191970" points="2169.8194,-390.871 2176.9155,-383.0037 2166.462,-384.7287 2169.8194,-390.871"/>
</g>
<!-- Node9&#45;&gt;Node6 -->
<g id="edge16" class="edge">
<title>Node9&#45;&gt;Node6</title>
<path fill="none" stroke="#191970" d="M1290.8277,-430.9911C1253.1322,-421.2436 1200.5736,-405.2513 1187,-389 1126.063,-316.0416 1152,-273.0592 1152,-178 1152,-178 1152,-178 1152,-122 1152,-66.9583 1219.0047,-34.243 1259.6353,-19.4646"/>
<polygon fill="#191970" stroke="#191970" points="1261.0436,-22.6806 1269.34,-16.0912 1258.7452,-16.0687 1261.0436,-22.6806"/>
</g>
<!-- Node9&#45;&gt;Node7 -->
<g id="edge17" class="edge">
<title>Node9&#45;&gt;Node7</title>
<path fill="none" stroke="#191970" d="M1342.2721,-430.7446C1364.9856,-411.2408 1415.8072,-368.4124 1436,-358 1479.2253,-335.711 1533.5621,-321.6313 1570.1264,-313.9323"/>
<polygon fill="#191970" stroke="#191970" points="1570.8461,-317.3576 1579.9441,-311.9285 1569.4462,-310.499 1570.8461,-317.3576"/>
</g>
<!-- Node9&#45;&gt;Node8 -->
<g id="edge19" class="edge">
<title>Node9&#45;&gt;Node8</title>
<path fill="none" stroke="#191970" d="M1377.2405,-430.9673C1439.4884,-417.9343 1543.1789,-395.4348 1549,-389 1561.7357,-374.9218 1572.0668,-247.4893 1575.6476,-197.7544"/>
<polygon fill="#191970" stroke="#191970" points="1579.1489,-197.8577 1576.3594,-187.6367 1572.1661,-197.3664 1579.1489,-197.8577"/>
</g>
<!-- Node10 -->
<g id="node11" class="node">
<title>Node10</title>
<polygon fill="#ffffff" stroke="#bfbfbf" points="556,-230 556,-249 612,-249 612,-230 556,-230"/>
<text text-anchor="middle" x="584" y="-237" font-family="Helvetica,sans-Serif" font-size="10.00" fill="#000000">algorithm</text>
</g>
<!-- Node9&#45;&gt;Node10 -->
<g id="edge10" class="edge">
<title>Node9&#45;&gt;Node10</title>
<path fill="none" stroke="#191970" d="M1281.9254,-437.0863C1213.9673,-431.4904 1087.8364,-417.9559 984,-389 909.7392,-368.2916 892.8365,-356.7137 824,-322 799.9756,-309.8847 796.7563,-301.5393 772,-291 758.1631,-285.1093 672.9023,-262.5697 622.0752,-249.3416"/>
<polygon fill="#191970" stroke="#191970" points="622.654,-245.8758 612.0952,-246.7486 620.8937,-252.6509 622.654,-245.8758"/>
</g>
<!-- Node11 -->
<g id="node12" class="node">
<title>Node11</title>
<polygon fill="#ffffff" stroke="#bfbfbf" points="488.5,-230 488.5,-249 537.5,-249 537.5,-230 488.5,-230"/>
<text text-anchor="middle" x="513" y="-237" font-family="Helvetica,sans-Serif" font-size="10.00" fill="#000000">cassert</text>
</g>
<!-- Node9&#45;&gt;Node11 -->
<g id="edge11" class="edge">
<title>Node9&#45;&gt;Node11</title>
<path fill="none" stroke="#191970" d="M1281.9757,-438.848C1200.2073,-435.1834 1031.3101,-423.7275 893,-389 777.651,-360.0377 755.0877,-333.4702 644,-291 601.0476,-274.5788 589.5042,-272.5489 547,-255 545.6134,-254.4275 544.1998,-253.8319 542.7755,-253.2222"/>
<polygon fill="#191970" stroke="#191970" points="543.9536,-249.9166 533.3914,-249.0855 541.13,-256.3218 543.9536,-249.9166"/>
</g>
<!-- Node12 -->
<g id="node13" class="node">
<title>Node12</title>
<polygon fill="#ffffff" stroke="#bfbfbf" points="1194,-112.5 1194,-131.5 1234,-131.5 1234,-112.5 1194,-112.5"/>
<text text-anchor="middle" x="1214" y="-119.5" font-family="Helvetica,sans-Serif" font-size="10.00" fill="#000000">limits</text>
</g>
<!-- Node9&#45;&gt;Node12 -->
<g id="edge12" class="edge">
<title>Node9&#45;&gt;Node12</title>
<path fill="none" stroke="#191970" d="M1281.77,-430.9513C1256.5371,-423.5901 1227.3405,-410.8251 1209,-389 1184.7933,-360.194 1190,-344.1265 1190,-306.5 1190,-306.5 1190,-306.5 1190,-239.5 1190,-204.2711 1200.4845,-164.2808 1207.5941,-141.2132"/>
<polygon fill="#191970" stroke="#191970" points="1210.9518,-142.2038 1210.6629,-131.6129 1204.2842,-140.0724 1210.9518,-142.2038"/>
</g>
<!-- Node13 -->
<g id="node14" class="node">
<title>Node13</title>
<polygon fill="#ffffff" stroke="#bfbfbf" points="2298,-230 2298,-249 2350,-249 2350,-230 2298,-230"/>
<text text-anchor="middle" x="2324" y="-237" font-family="Helvetica,sans-Serif" font-size="10.00" fill="#000000">memory</text>
</g>
<!-- Node9&#45;&gt;Node13 -->
<g id="edge13" class="edge">
<title>Node9&#45;&gt;Node13</title>
<path fill="none" stroke="#191970" d="M1380.1059,-438.0756C1504.6778,-431.6043 1826.1068,-412.7859 1868,-389 1914.9998,-362.3147 1893.2897,-318.1889 1940,-291 1999.1744,-256.556 2178.3692,-265.6809 2246,-255 2259.6662,-252.8417 2274.5853,-249.998 2287.6823,-247.3363"/>
<polygon fill="#191970" stroke="#191970" points="2288.6524,-250.7098 2297.7364,-245.2572 2287.2348,-243.8548 2288.6524,-250.7098"/>
</g>
<!-- Node14 -->
<g id="node15" class="node">
<title>Node14</title>
<polygon fill="#ffffff" stroke="#bfbfbf" points="1072,-230 1072,-249 1124,-249 1124,-230 1072,-230"/>
<text text-anchor="middle" x="1098" y="-237" font-family="Helvetica,sans-Serif" font-size="10.00" fill="#000000">sstream</text>
</g>
<!-- Node9&#45;&gt;Node14 -->
<g id="edge15" class="edge">
<title>Node9&#45;&gt;Node14</title>
<path fill="none" stroke="#191970" d="M1281.758,-436.5463C1220.8756,-430.5241 1122.5121,-416.702 1100,-389 1069.6875,-351.6993 1082.1795,-290.1432 1091.4128,-258.9352"/>
<polygon fill="#191970" stroke="#191970" points="1094.7969,-259.8414 1094.4673,-249.2516 1088.1211,-257.7355 1094.7969,-259.8414"/>
</g>
<!-- Node15 -->
<g id="node16" class="node">
<title>Node15</title>
<polygon fill="#ffffff" stroke="#bfbfbf" points="2072.5,-364 2072.5,-383 2155.5,-383 2155.5,-364 2072.5,-364"/>
<text text-anchor="middle" x="2114" y="-371" font-family="Helvetica,sans-Serif" font-size="10.00" fill="#000000">unordered_map</text>
</g>
<!-- Node9&#45;&gt;Node15 -->
<g id="edge18" class="edge">
<title>Node9&#45;&gt;Node15</title>
<path fill="none" stroke="#191970" d="M1380.2742,-436.4799C1484.3865,-427.9594 1734.4094,-407.3588 1944,-389 1983.7319,-385.5197 2028.6705,-381.4151 2062.3614,-378.3043"/>
<polygon fill="#191970" stroke="#191970" points="2062.8027,-381.7785 2072.4379,-377.3726 2062.1581,-374.8083 2062.8027,-381.7785"/>
</g>
<!-- Node16 -->
<g id="node17" class="node">
<title>Node16</title>
<g id="a_node17"><a xlink:href="agent__pointer_8h.html" target="_top" xlink:title="core/agent/agent_pointer.h">
<polygon fill="#ffffff" stroke="#ff0000" points="1218,-364 1218,-383 1350,-383 1350,-364 1218,-364"/>
<text text-anchor="middle" x="1284" y="-371" font-family="Helvetica,sans-Serif" font-size="10.00" fill="#000000">core/agent/agent_pointer.h</text>
</a>
</g>
</g>
<!-- Node9&#45;&gt;Node16 -->
<g id="edge20" class="edge">
<title>Node9&#45;&gt;Node16</title>
<path fill="none" stroke="#191970" d="M1324.266,-430.9005C1317.0764,-420.6515 1305.5181,-404.1747 1296.6252,-391.4976"/>
<polygon fill="#191970" stroke="#191970" points="1299.3296,-389.2582 1290.7215,-383.0817 1293.599,-393.2783 1299.3296,-389.2582"/>
</g>
<!-- Node19 -->
<g id="node19" class="node">
<title>Node19</title>
<g id="a_node19"><a xlink:href="agent__uid_8h.html" target="_top" xlink:title="core/agent/agent_uid.h">
<polygon fill="#ffffff" stroke="#000000" points="1370,-168.5 1370,-187.5 1486,-187.5 1486,-168.5 1370,-168.5"/>
<text text-anchor="middle" x="1428" y="-175.5" font-family="Helvetica,sans-Serif" font-size="10.00" fill="#000000">core/agent/agent_uid.h</text>
</a>
</g>
</g>
<!-- Node9&#45;&gt;Node19 -->
<g id="edge54" class="edge">
<title>Node9&#45;&gt;Node19</title>
<path fill="none" stroke="#191970" d="M1336.9132,-430.8922C1342.9943,-420.7416 1352.4733,-404.1399 1359,-389 1388.4395,-320.7095 1412.6993,-235.4944 1422.863,-197.6634"/>
<polygon fill="#191970" stroke="#191970" points="1426.2699,-198.4705 1425.4522,-187.9073 1419.5041,-196.6749 1426.2699,-198.4705"/>
</g>
<!-- Node20 -->
<g id="node20" class="node">
<title>Node20</title>
<g id="a_node20"><a xlink:href="root_8h.html" target="_top" xlink:title="core/util/root.h">
<polygon fill="#ffffff" stroke="#ff0000" points="1345.5,-112.5 1345.5,-131.5 1424.5,-131.5 1424.5,-112.5 1345.5,-112.5"/>
<text text-anchor="middle" x="1385" y="-119.5" font-family="Helvetica,sans-Serif" font-size="10.00" fill="#000000">core/util/root.h</text>
</a>
</g>
</g>
<!-- Node9&#45;&gt;Node20 -->
<g id="edge89" class="edge">
<title>Node9&#45;&gt;Node20</title>
<path fill="none" stroke="#191970" d="M1380.0018,-437.6957C1478.348,-431.5804 1696.319,-415.4363 1766,-389 1801.6769,-375.4645 1871.8002,-305.7317 1907,-291 1987.0892,-257.4813 2043.5534,-321.8091 2099,-255 2119.5976,-230.1814 2073.5548,-168.3807 2073,-168 2020.7682,-132.1555 1584.5545,-124.1378 1435.0474,-122.4359"/>
<polygon fill="#191970" stroke="#191970" points="1434.8252,-118.9333 1424.7876,-122.3239 1434.7488,-125.9329 1434.8252,-118.9333"/>
</g>
<!-- Node35 -->
<g id="node29" class="node">
<title>Node35</title>
<g id="a_node29"><a xlink:href="spinlock_8h.html" target="_top" xlink:title="core/util/spinlock.h">
<polygon fill="#ffffff" stroke="#000000" points="1992,-230 1992,-249 2090,-249 2090,-230 1992,-230"/>
<text text-anchor="middle" x="2041" y="-237" font-family="Helvetica,sans-Serif" font-size="10.00" fill="#000000">core/util/spinlock.h</text>
</a>
</g>
</g>
<!-- Node9&#45;&gt;Node35 -->
<g id="edge90" class="edge">
<title>Node9&#45;&gt;Node35</title>
<path fill="none" stroke="#191970" d="M1380.2295,-436.885C1471.3929,-429.7279 1662.8619,-412.3989 1725,-389 1775.0659,-370.147 1781.0732,-352.5362 1825,-322 1844.3448,-308.5523 1846.8578,-301.3956 1868,-291 1890.176,-280.0961 1950.6895,-263.0807 1993.8862,-251.6227"/>
<polygon fill="#191970" stroke="#191970" points="1994.8616,-254.9852 2003.6391,-249.0518 1993.0772,-248.2164 1994.8616,-254.9852"/>
</g>
<!-- Node9&#45;&gt;Node51 -->
<g id="edge55" class="edge">
<title>Node9&#45;&gt;Node51</title>
<path fill="none" stroke="#191970" d="M1281.8546,-438.4594C1133.5325,-432.1309 690.99,-411.9592 526.5659,-389.0418"/>
<polygon fill="#191970" stroke="#191970" points="527.0078,-385.5694 516.6091,-387.5988 526.0037,-392.497 527.0078,-385.5694"/>
</g>
<!-- Node9&#45;&gt;Node53 -->
<g id="edge74" class="edge">
<title>Node9&#45;&gt;Node53</title>
<path fill="none" stroke="#191970" d="M1281.9891,-434.8174C1227.3684,-427.6383 1136.8793,-413.2059 1062,-389 1011.0652,-372.5346 955.63,-344.9971 920.6209,-326.3086"/>
<polygon fill="#191970" stroke="#191970" points="922.2062,-323.1871 911.7426,-321.5247 918.8857,-329.3494 922.2062,-323.1871"/>
</g>
<!-- Node9&#45;&gt;Node48 -->
<g id="edge75" class="edge">
<title>Node9&#45;&gt;Node48</title>
<path fill="none" stroke="#191970" d="M1281.7528,-439.2204C1159.1607,-435.5509 843.0637,-422.9844 744,-389 719.9786,-380.7593 718.2597,-370.2247 696,-358 674.6083,-346.252 650.0508,-334.7514 629.3926,-325.6089"/>
<polygon fill="#191970" stroke="#191970" points="630.7648,-322.3889 620.2007,-321.5818 627.9557,-328.8006 630.7648,-322.3889"/>
</g>
<!-- Node9&#45;&gt;Node59 -->
<g id="edge84" class="edge">
<title>Node9&#45;&gt;Node59</title>
<path fill="none" stroke="#191970" d="M1281.8886,-437.381C1176.3224,-430.4727 920.0016,-412.6067 706,-389 692.262,-387.4845 677.6085,-385.6302 663.5824,-383.738"/>
<polygon fill="#191970" stroke="#191970" points="663.8846,-380.2468 653.5022,-382.3578 662.9349,-387.1821 663.8846,-380.2468"/>
</g>
<!-- Node9&#45;&gt;Node60 -->
<g id="edge87" class="edge">
<title>Node9&#45;&gt;Node60</title>
<path fill="none" stroke="#191970" d="M1380.0492,-438.081C1510.4785,-431.3717 1859.143,-411.5304 1906,-389 1935.7771,-374.6822 1960.2575,-344.0557 1973.7226,-324.4138"/>
<polygon fill="#191970" stroke="#191970" points="1976.678,-326.2899 1979.2685,-316.0166 1970.8369,-322.4322 1976.678,-326.2899"/>
</g>
<!-- Node61 -->
<g id="node42" class="node">
<title>Node61</title>
<g id="a_node42"><a xlink:href="macros_8h.html" target="_top" xlink:title="core/util/macros.h">
<polygon fill="#ffffff" stroke="#000000" points="1444.5,-364 1444.5,-383 1539.5,-383 1539.5,-364 1444.5,-364"/>
<text text-anchor="middle" x="1492" y="-371" font-family="Helvetica,sans-Serif" font-size="10.00" fill="#000000">core/util/macros.h</text>
</a>
</g>
</g>
<!-- Node9&#45;&gt;Node61 -->
<g id="edge88" class="edge">
<title>Node9&#45;&gt;Node61</title>
<path fill="none" stroke="#191970" d="M1354.0674,-430.9005C1381.6846,-419.4077 1428.1196,-400.0838 1459.3963,-387.068"/>
<polygon fill="#191970" stroke="#191970" points="1461.0877,-390.1552 1468.9754,-383.0817 1458.3982,-383.6924 1461.0877,-390.1552"/>
</g>
<!-- Node62 -->
<g id="node43" class="node">
<title>Node62</title>
<g id="a_node43"><a xlink:href="type_8h.html" target="_top" xlink:title="core/util/type.h">
<polygon fill="#ffffff" stroke="#ff0000" points="1634.5,-364 1634.5,-383 1715.5,-383 1715.5,-364 1634.5,-364"/>
<text text-anchor="middle" x="1675" y="-371" font-family="Helvetica,sans-Serif" font-size="10.00" fill="#000000">core/util/type.h</text>
</a>
</g>
</g>
<!-- Node9&#45;&gt;Node62 -->
<g id="edge91" class="edge">
<title>Node9&#45;&gt;Node62</title>
<path fill="none" stroke="#191970" d="M1379.9215,-430.9717C1444.7164,-418.3517 1558.4477,-396.2006 1624.1817,-383.3978"/>
<polygon fill="#191970" stroke="#191970" points="1625.1582,-386.7734 1634.3046,-381.4261 1623.8199,-379.9025 1625.1582,-386.7734"/>
</g>
<!-- Node16&#45;&gt;Node7 -->
<g id="edge23" class="edge">
<title>Node16&#45;&gt;Node7</title>
<path fill="none" stroke="#191970" d="M1330.5039,-363.9717C1394.5102,-350.8572 1508.7514,-327.45 1569.8227,-314.9369"/>
<polygon fill="#191970" stroke="#191970" points="1570.774,-318.3148 1579.8679,-312.8787 1569.3689,-311.4573 1570.774,-318.3148"/>
</g>
<!-- Node16&#45;&gt;Node12 -->
<g id="edge21" class="edge">
<title>Node16&#45;&gt;Node12</title>
<path fill="none" stroke="#191970" d="M1276.4568,-363.8247C1269.0898,-353.8855 1258.1198,-337.6911 1252,-322 1227.4331,-259.0104 1218.3629,-178.4817 1215.3473,-141.7988"/>
<polygon fill="#191970" stroke="#191970" points="1218.8132,-141.2147 1214.569,-131.5072 1211.8331,-141.7427 1218.8132,-141.2147"/>
</g>
<!-- Node18 -->
<g id="node18" class="node">
<title>Node18</title>
<polygon fill="#ffffff" stroke="#bfbfbf" points="780,-230 780,-249 832,-249 832,-230 780,-230"/>
<text text-anchor="middle" x="806" y="-237" font-family="Helvetica,sans-Serif" font-size="10.00" fill="#000000">ostream</text>
</g>
<!-- Node16&#45;&gt;Node18 -->
<g id="edge22" class="edge">
<title>Node16&#45;&gt;Node18</title>
<path fill="none" stroke="#191970" d="M1239.2923,-363.9665C1158.5772,-346.2222 983.6504,-305.3221 841,-255 839.1669,-254.3533 837.2957,-253.6521 835.4192,-252.9172"/>
<polygon fill="#191970" stroke="#191970" points="836.7198,-249.6675 826.1425,-249.059 834.0317,-256.1308 836.7198,-249.6675"/>
</g>
<!-- Node16&#45;&gt;Node19 -->
<g id="edge24" class="edge">
<title>Node16&#45;&gt;Node19</title>
<path fill="none" stroke="#191970" d="M1283.8606,-363.8094C1284.0031,-337.9218 1287.8362,-266.2535 1324,-224 1337.337,-208.4172 1356.9771,-197.9062 1375.6078,-190.917"/>
<polygon fill="#191970" stroke="#191970" points="1376.924,-194.165 1385.2198,-187.5748 1374.625,-187.5532 1376.924,-194.165"/>
</g>
<!-- Node16&#45;&gt;Node20 -->
<g id="edge53" class="edge">
<title>Node16&#45;&gt;Node20</title>
<path fill="none" stroke="#191970" d="M1283.5028,-363.6304C1283.0075,-353.2662 1282.2813,-336.4926 1282,-322 1281.139,-277.6418 1280.4092,-263.299 1301,-224 1318.5921,-190.4243 1348.4692,-157.6979 1367.4438,-138.7121"/>
<polygon fill="#191970" stroke="#191970" points="1369.9216,-141.1843 1374.6051,-131.6809 1365.0174,-136.1894 1369.9216,-141.1843"/>
</g>
<!-- Node16&#45;&gt;Node29 -->
<g id="edge30" class="edge">
<title>Node16&#45;&gt;Node29</title>
<path fill="none" stroke="#191970" d="M1350.3158,-364.3116C1423.8303,-354.0983 1545.9129,-337.0564 1651,-322 1662.8661,-320.2999 1675.4763,-318.4733 1687.7038,-316.6918"/>
<polygon fill="#191970" stroke="#191970" points="1688.4703,-320.117 1697.86,-315.2096 1687.4594,-313.1904 1688.4703,-320.117"/>
</g>
<!-- Node19&#45;&gt;Node12 -->
<g id="edge25" class="edge">
<title>Node19&#45;&gt;Node12</title>
<path fill="none" stroke="#191970" d="M1391.2121,-168.3733C1349.7033,-157.5111 1282.955,-140.0443 1244.3163,-129.9332"/>
<polygon fill="#191970" stroke="#191970" points="1244.7682,-126.4337 1234.2079,-127.288 1242.996,-133.2057 1244.7682,-126.4337"/>
</g>
<!-- Node19&#45;&gt;Node20 -->
<g id="edge26" class="edge">
<title>Node19&#45;&gt;Node20</title>
<path fill="none" stroke="#191970" d="M1420.51,-168.2455C1414.4674,-160.3761 1405.8097,-149.101 1398.5559,-139.6542"/>
<polygon fill="#191970" stroke="#191970" points="1401.2705,-137.4426 1392.4042,-131.6427 1395.7185,-141.7058 1401.2705,-137.4426"/>
</g>
<!-- Node22 -->
<g id="node21" class="node">
<title>Node22</title>
<g id="a_node21"><a xlink:href="log_8h.html" target="_top" xlink:title="core/util/log.h">
<polygon fill="#ffffff" stroke="#ff0000" points="1347.5,-56.5 1347.5,-75.5 1422.5,-75.5 1422.5,-56.5 1347.5,-56.5"/>
<text text-anchor="middle" x="1385" y="-63.5" font-family="Helvetica,sans-Serif" font-size="10.00" fill="#000000">core/util/log.h</text>
</a>
</g>
</g>
<!-- Node20&#45;&gt;Node22 -->
<g id="edge27" class="edge">
<title>Node20&#45;&gt;Node22</title>
<path fill="none" stroke="#191970" d="M1385,-112.2455C1385,-104.9382 1385,-94.6944 1385,-85.7046"/>
<polygon fill="#191970" stroke="#191970" points="1388.5001,-85.6426 1385,-75.6427 1381.5001,-85.6427 1388.5001,-85.6426"/>
</g>
<!-- Node22&#45;&gt;Node6 -->
<g id="edge29" class="edge">
<title>Node22&#45;&gt;Node6</title>
<path fill="none" stroke="#191970" d="M1368.4523,-56.2455C1353.7401,-47.5731 1332.0112,-34.7645 1315.1495,-24.825"/>
<polygon fill="#191970" stroke="#191970" points="1316.7502,-21.7057 1306.3581,-19.6427 1313.1954,-27.736 1316.7502,-21.7057"/>
</g>
<!-- Node26 -->
<g id="node22" class="node">
<title>Node26</title>
<polygon fill="#ffffff" stroke="#bfbfbf" points="1960.5,-.5 1960.5,-19.5 2019.5,-19.5 2019.5,-.5 1960.5,-.5"/>
<text text-anchor="middle" x="1990" y="-7.5" font-family="Helvetica,sans-Serif" font-size="10.00" fill="#000000">functional</text>
</g>
<!-- Node22&#45;&gt;Node26 -->
<g id="edge28" class="edge">
<title>Node22&#45;&gt;Node26</title>
<path fill="none" stroke="#191970" d="M1422.8455,-62.4969C1530.8566,-52.4992 1839.8756,-23.8958 1950.2322,-13.681"/>
<polygon fill="#191970" stroke="#191970" points="1950.6435,-17.158 1960.2783,-12.7511 1949.9983,-10.1878 1950.6435,-17.158"/>
</g>
<!-- Node29&#45;&gt;Node8 -->
<g id="edge35" class="edge">
<title>Node29&#45;&gt;Node8</title>
<path fill="none" stroke="#191970" d="M1728.8766,-291.339C1711.4885,-281.6056 1688.9501,-268.3299 1670,-255 1642.6432,-235.7566 1613.2592,-210.5878 1595.0029,-194.356"/>
<polygon fill="#191970" stroke="#191970" points="1597.2274,-191.6497 1587.4452,-187.5804 1592.5547,-196.8618 1597.2274,-191.6497"/>
</g>
<!-- Node29&#45;&gt;Node13 -->
<g id="edge33" class="edge">
<title>Node29&#45;&gt;Node13</title>
<path fill="none" stroke="#191970" d="M1816.4057,-300.3149C1944.3833,-286.9808 2235.4764,-256.5964 2246,-255 2259.6791,-252.925 2274.601,-250.0994 2287.6966,-247.4288"/>
<polygon fill="#191970" stroke="#191970" points="2288.6713,-250.801 2297.7488,-245.3376 2287.2456,-243.9478 2288.6713,-250.801"/>
</g>
<!-- Node29&#45;&gt;Node19 -->
<g id="edge36" class="edge">
<title>Node29&#45;&gt;Node19</title>
<path fill="none" stroke="#191970" d="M1717.5808,-291.4418C1691.4949,-281.3693 1656.5868,-267.6846 1626,-255 1594.1943,-241.8099 1586.9813,-236.7585 1555,-224 1525.1956,-212.11 1490.9683,-199.7882 1465.5616,-190.8934"/>
<polygon fill="#191970" stroke="#191970" points="1466.536,-187.5266 1455.9411,-187.5413 1464.2327,-194.1368 1466.536,-187.5266"/>
</g>
<!-- Node29&#45;&gt;Node26 -->
<g id="edge32" class="edge">
<title>Node29&#45;&gt;Node26</title>
<path fill="none" stroke="#191970" d="M1816.0453,-300.3045C1899.6404,-291.0743 2048.002,-272.8753 2099,-255 2163.458,-232.4068 2232,-246.3029 2232,-178 2232,-178 2232,-178 2232,-122 2232,-77.9652 2098.3671,-37.5286 2029.7073,-19.6586"/>
<polygon fill="#191970" stroke="#191970" points="2030.2298,-16.1794 2019.674,-17.0875 2028.4921,-22.9603 2030.2298,-16.1794"/>
</g>
<!-- Node30 -->
<g id="node24" class="node">
<title>Node30</title>
<polygon fill="#ffffff" stroke="#bfbfbf" points="2018,-168.5 2018,-187.5 2064,-187.5 2064,-168.5 2018,-168.5"/>
<text text-anchor="middle" x="2041" y="-175.5" font-family="Helvetica,sans-Serif" font-size="10.00" fill="#000000">atomic</text>
</g>
<!-- Node29&#45;&gt;Node30 -->
<g id="edge31" class="edge">
<title>Node29&#45;&gt;Node30</title>
<path fill="none" stroke="#191970" d="M1816.3293,-293.0829C1862.5788,-282.1005 1922.589,-266.5491 1945,-255 1964.3746,-245.0157 1966.0166,-237.6611 1983,-224 1995.4489,-213.9863 2009.4841,-202.8509 2020.6296,-194.0444"/>
<polygon fill="#191970" stroke="#191970" points="2022.8335,-196.7638 2028.5151,-187.8211 2018.4969,-191.2688 2022.8335,-196.7638"/>
</g>
<!-- Node31 -->
<g id="node25" class="node">
<title>Node31</title>
<polygon fill="#ffffff" stroke="#bfbfbf" points="938,-230 938,-249 978,-249 978,-230 938,-230"/>
<text text-anchor="middle" x="958" y="-237" font-family="Helvetica,sans-Serif" font-size="10.00" fill="#000000">utility</text>
</g>
<!-- Node29&#45;&gt;Node31 -->
<g id="edge34" class="edge">
<title>Node29&#45;&gt;Node31</title>
<path fill="none" stroke="#191970" d="M1697.9613,-296.9693C1682.696,-294.7517 1666.2622,-292.5802 1651,-291 1390.5696,-264.0349 1323.412,-282.1426 1063,-255 1037.6008,-252.3527 1008.9299,-248.0291 987.9732,-244.6201"/>
<polygon fill="#191970" stroke="#191970" points="988.5016,-241.16 978.0648,-242.983 987.3605,-248.0664 988.5016,-241.16"/>
</g>
<!-- Node32 -->
<g id="node26" class="node">
<title>Node32</title>
<g id="a_node26"><a xlink:href="agent__uid__map_8h.html" target="_top" xlink:title="core/container/agent\l_uid_map.h">
<polygon fill="#ffffff" stroke="#000000" points="1440.5,-224.5 1440.5,-254.5 1545.5,-254.5 1545.5,-224.5 1440.5,-224.5"/>
<text text-anchor="start" x="1448.5" y="-242.5" font-family="Helvetica,sans-Serif" font-size="10.00" fill="#000000">core/container/agent</text>
<text text-anchor="middle" x="1493" y="-231.5" font-family="Helvetica,sans-Serif" font-size="10.00" fill="#000000">_uid_map.h</text>
</a>
</g>
</g>
<!-- Node29&#45;&gt;Node32 -->
<g id="edge37" class="edge">
<title>Node29&#45;&gt;Node32</title>
<path fill="none" stroke="#191970" d="M1697.7532,-291.4639C1655.442,-280.7258 1598.6276,-266.307 1555.5804,-255.3821"/>
<polygon fill="#191970" stroke="#191970" points="1556.3386,-251.9637 1545.7849,-252.8962 1554.6166,-258.7486 1556.3386,-251.9637"/>
</g>
<!-- Node29&#45;&gt;Node33 -->
<g id="edge41" class="edge">
<title>Node29&#45;&gt;Node33</title>
<path fill="none" stroke="#191970" d="M1816.1569,-301.4753C1966.5769,-288.6941 2352.3059,-255.8876 2359,-255 2371.1021,-253.3953 2384.0932,-251.2679 2396.2187,-249.1051"/>
<polygon fill="#191970" stroke="#191970" points="2396.9528,-252.529 2406.162,-247.2906 2395.6961,-245.6427 2396.9528,-252.529"/>
</g>
<!-- Node34 -->
<g id="node28" class="node">
<title>Node34</title>
<g id="a_node28"><a xlink:href="operation_8h.html" target="_top" xlink:title="core/operation/operation.h">
<polygon fill="#ffffff" stroke="#000000" points="1678.5,-230 1678.5,-249 1807.5,-249 1807.5,-230 1678.5,-230"/>
<text text-anchor="middle" x="1743" y="-237" font-family="Helvetica,sans-Serif" font-size="10.00" fill="#000000">core/operation/operation.h</text>
</a>
</g>
</g>
<!-- Node29&#45;&gt;Node34 -->
<g id="edge42" class="edge">
<title>Node29&#45;&gt;Node34</title>
<path fill="none" stroke="#191970" d="M1753.8232,-291.2967C1751.8325,-281.7699 1749.2468,-269.3954 1747.1019,-259.1306"/>
<polygon fill="#191970" stroke="#191970" points="1750.468,-258.1277 1744.9966,-249.055 1743.616,-259.5595 1750.468,-258.1277"/>
</g>
<!-- Node29&#45;&gt;Node35 -->
<g id="edge47" class="edge">
<title>Node29&#45;&gt;Node35</title>
<path fill="none" stroke="#191970" d="M1816.1413,-292.9261C1860.6757,-282.6542 1923.2133,-268.1226 1978,-255 1982.7478,-253.8628 1987.6939,-252.6663 1992.635,-251.4633"/>
<polygon fill="#191970" stroke="#191970" points="1993.8223,-254.7762 2002.7051,-249.0015 1992.16,-247.9764 1993.8223,-254.7762"/>
</g>
<!-- Node36 -->
<g id="node30" class="node">
<title>Node36</title>
<g id="a_node30"><a xlink:href="thread__info_8h.html" target="_top" xlink:title="core/util/thread_info.h">
<polygon fill="#ffffff" stroke="#ff0000" points="1826,-230 1826,-249 1936,-249 1936,-230 1826,-230"/>
<text text-anchor="middle" x="1881" y="-237" font-family="Helvetica,sans-Serif" font-size="10.00" fill="#000000">core/util/thread_info.h</text>
</a>
</g>
</g>
<!-- Node29&#45;&gt;Node36 -->
<g id="edge49" class="edge">
<title>Node29&#45;&gt;Node36</title>
<path fill="none" stroke="#191970" d="M1784.828,-291.4639C1805.6336,-280.2222 1833.9054,-264.9463 1854.4073,-253.8686"/>
<polygon fill="#191970" stroke="#191970" points="1856.0915,-256.9369 1863.2256,-249.1039 1852.7639,-250.7784 1856.0915,-256.9369"/>
</g>
<!-- Node32&#45;&gt;Node8 -->
<g id="edge39" class="edge">
<title>Node32&#45;&gt;Node8</title>
<path fill="none" stroke="#191970" d="M1513.7641,-224.2977C1526.3958,-215.0495 1542.5053,-203.2551 1555.3031,-193.8853"/>
<polygon fill="#191970" stroke="#191970" points="1557.5495,-196.5784 1563.5505,-187.8469 1553.4143,-190.9303 1557.5495,-196.5784"/>
</g>
<!-- Node32&#45;&gt;Node12 -->
<g id="edge38" class="edge">
<title>Node32&#45;&gt;Node12</title>
<path fill="none" stroke="#191970" d="M1452.9346,-224.4658C1426.6592,-214.4597 1391.626,-200.8402 1361,-188 1319.9729,-170.7991 1273.1936,-149.5006 1243.6397,-135.8326"/>
<polygon fill="#191970" stroke="#191970" points="1244.8551,-132.5382 1234.3106,-131.5068 1241.9104,-138.8887 1244.8551,-132.5382"/>
</g>
<!-- Node32&#45;&gt;Node19 -->
<g id="edge40" class="edge">
<title>Node32&#45;&gt;Node19</title>
<path fill="none" stroke="#191970" d="M1476.9326,-224.2977C1467.534,-215.4052 1455.6473,-204.1586 1445.943,-194.9769"/>
<polygon fill="#191970" stroke="#191970" points="1448.0768,-192.1774 1438.4073,-187.8469 1443.2658,-197.2621 1448.0768,-192.1774"/>
</g>
<!-- Node34&#45;&gt;Node6 -->
<g id="edge44" class="edge">
<title>Node34&#45;&gt;Node6</title>
<path fill="none" stroke="#191970" d="M1730.3054,-229.9912C1711.166,-215.8165 1673.582,-188.6066 1640,-168 1550.5103,-113.0874 1528.558,-97.2354 1432,-56 1394.6436,-40.0468 1349.796,-26.3839 1320.6365,-18.1876"/>
<polygon fill="#191970" stroke="#191970" points="1321.2177,-14.7169 1310.6463,-15.4212 1319.3495,-21.463 1321.2177,-14.7169"/>
</g>
<!-- Node34&#45;&gt;Node8 -->
<g id="edge45" class="edge">
<title>Node34&#45;&gt;Node8</title>
<path fill="none" stroke="#191970" d="M1717.0625,-229.8906C1687.7703,-219.0384 1640.0997,-201.3773 1608.6431,-189.7232"/>
<polygon fill="#191970" stroke="#191970" points="1609.6366,-186.3588 1599.0435,-186.1667 1607.2047,-192.9229 1609.6366,-186.3588"/>
</g>
<!-- Node34&#45;&gt;Node22 -->
<g id="edge46" class="edge">
<title>Node34&#45;&gt;Node22</title>
<path fill="none" stroke="#191970" d="M1725.6914,-229.9181C1700.1654,-215.8822 1650.8185,-189.1094 1608,-168 1540.3727,-134.6599 1459.5864,-98.6319 1416.2157,-79.5921"/>
<polygon fill="#191970" stroke="#191970" points="1417.6032,-76.3789 1407.0392,-75.5721 1414.7944,-82.7906 1417.6032,-76.3789"/>
</g>
<!-- Node34&#45;&gt;Node26 -->
<g id="edge43" class="edge">
<title>Node34&#45;&gt;Node26</title>
<path fill="none" stroke="#191970" d="M1753.2988,-229.9309C1791.2747,-194.6455 1923.7619,-71.5451 1972.1401,-26.5946"/>
<polygon fill="#191970" stroke="#191970" points="1974.7138,-28.9809 1979.6572,-19.61 1969.949,-23.8528 1974.7138,-28.9809"/>
</g>
<!-- Node35&#45;&gt;Node30 -->
<g id="edge48" class="edge">
<title>Node35&#45;&gt;Node30</title>
<path fill="none" stroke="#191970" d="M2041,-229.8906C2041,-221.3657 2041,-208.6392 2041,-197.9235"/>
<polygon fill="#191970" stroke="#191970" points="2044.5001,-197.7448 2041,-187.7449 2037.5001,-197.7449 2044.5001,-197.7448"/>
</g>
<!-- Node36&#45;&gt;Node8 -->
<g id="edge51" class="edge">
<title>Node36&#45;&gt;Node8</title>
<path fill="none" stroke="#191970" d="M1842.8275,-229.936C1834.3424,-227.8992 1825.3796,-225.8167 1817,-224 1742.9536,-207.9471 1655.4194,-191.9051 1609.2516,-183.6711"/>
<polygon fill="#191970" stroke="#191970" points="1609.6999,-180.1961 1599.2418,-181.8928 1608.4754,-187.0881 1609.6999,-180.1961"/>
</g>
<!-- Node36&#45;&gt;Node22 -->
<g id="edge52" class="edge">
<title>Node36&#45;&gt;Node22</title>
<path fill="none" stroke="#191970" d="M1854.6506,-229.8508C1795.6112,-208.283 1648.1573,-154.7084 1524,-112 1490.4969,-100.4754 1452.271,-87.864 1424.3967,-78.7656"/>
<polygon fill="#191970" stroke="#191970" points="1425.2159,-75.3514 1414.6235,-75.581 1423.0471,-82.007 1425.2159,-75.3514"/>
</g>
<!-- Node36&#45;&gt;Node30 -->
<g id="edge50" class="edge">
<title>Node36&#45;&gt;Node30</title>
<path fill="none" stroke="#191970" d="M1906,-229.8906C1933.5585,-219.2978 1977.9942,-202.2179 2008.2997,-190.5692"/>
<polygon fill="#191970" stroke="#191970" points="2009.9123,-193.699 2017.9908,-186.8442 2007.4008,-187.1651 2009.9123,-193.699"/>
</g>
<!-- Node51&#45;&gt;Node12 -->
<g id="edge56" class="edge">
<title>Node51&#45;&gt;Node12</title>
<path fill="none" stroke="#191970" d="M438.2699,-358.3729C393.7155,-327.3059 296.0006,-258.8861 294,-255 287.6938,-242.7501 284.9163,-234.3592 294,-224 354.1405,-155.4152 1031.2939,-128.253 1183.6738,-122.9869"/>
<polygon fill="#191970" stroke="#191970" points="1183.8473,-126.4831 1193.7226,-122.6453 1183.6094,-119.4872 1183.8473,-126.4831"/>
</g>
<!-- Node51&#45;&gt;Node22 -->
<g id="edge73" class="edge">
<title>Node51&#45;&gt;Node22</title>
<path fill="none" stroke="#191970" d="M412.5608,-358.446C389.9014,-349.8941 363.1763,-337.7238 342,-322 326.3054,-310.3465 291.7482,-273.3463 285,-255 280.2438,-242.0692 277.8654,-235.7866 285,-224 312.7946,-178.0822 340.6013,-183.4647 392,-168 572.7244,-113.624 1164.7003,-77.9415 1337.3411,-68.5033"/>
<polygon fill="#191970" stroke="#191970" points="1337.5939,-71.9949 1347.3894,-67.9579 1337.2144,-65.0052 1337.5939,-71.9949"/>
</g>
<!-- Node52 -->
<g id="node32" class="node">
<title>Node52</title>
<polygon fill="#ffffff" stroke="#bfbfbf" points="256,-297 256,-316 300,-316 300,-297 256,-297"/>
<text text-anchor="middle" x="278" y="-304" font-family="Helvetica,sans-Serif" font-size="10.00" fill="#000000">mutex</text>
</g>
<!-- Node51&#45;&gt;Node52 -->
<g id="edge57" class="edge">
<title>Node51&#45;&gt;Node52</title>
<path fill="none" stroke="#191970" d="M414.9824,-358.4979C385.9718,-348.6148 347.542,-335.1194 314,-322 312.388,-321.3695 310.7409,-320.7112 309.0816,-320.037"/>
<polygon fill="#191970" stroke="#191970" points="310.1808,-316.7032 299.6042,-316.0821 307.485,-323.1633 310.1808,-316.7032"/>
</g>
<!-- Node51&#45;&gt;Node53 -->
<g id="edge58" class="edge">
<title>Node51&#45;&gt;Node53</title>
<path fill="none" stroke="#191970" d="M516.6542,-359.6659C519.4712,-359.0798 522.2648,-358.5206 525,-358 628.7476,-338.2526 750.6163,-322.3238 822.6303,-313.6545"/>
<polygon fill="#191970" stroke="#191970" points="823.3717,-317.0908 832.8855,-312.4285 822.5407,-310.1403 823.3717,-317.0908"/>
</g>
<!-- Node53&#45;&gt;Node2 -->
<g id="edge60" class="edge">
<title>Node53&#45;&gt;Node2</title>
<path fill="none" stroke="#191970" d="M832.7126,-303.0204C729.514,-295.9148 492.4302,-278.4104 294,-255 268.6814,-252.013 240.036,-247.6721 219.2286,-244.3435"/>
<polygon fill="#191970" stroke="#191970" points="219.552,-240.8503 209.1212,-242.7076 218.4336,-247.7604 219.552,-240.8503"/>
</g>
<!-- Node53&#45;&gt;Node8 -->
<g id="edge65" class="edge">
<title>Node53&#45;&gt;Node8</title>
<path fill="none" stroke="#191970" d="M933.5082,-291.4276C959.8298,-282.4088 992.511,-269.8229 1020,-255 1040.737,-243.8179 1040.9002,-232.1646 1063,-224 1153.3632,-190.6161 1399.1704,-197.8325 1495,-188 1511.3019,-186.3274 1529.3878,-184.1556 1544.4174,-182.2635"/>
<polygon fill="#191970" stroke="#191970" points="1545.2746,-185.6827 1554.7518,-180.9464 1544.3895,-178.7388 1545.2746,-185.6827"/>
</g>
<!-- Node53&#45;&gt;Node10 -->
<g id="edge59" class="edge">
<title>Node53&#45;&gt;Node10</title>
<path fill="none" stroke="#191970" d="M832.811,-294.0084C828.1468,-292.9632 823.4918,-291.9458 819,-291 733.6152,-273.0205 710.1198,-278.1881 626,-255 623.1902,-254.2255 620.3023,-253.3452 617.4196,-252.4069"/>
<polygon fill="#191970" stroke="#191970" points="618.3538,-249.0266 607.759,-249.062 616.0635,-255.6413 618.3538,-249.0266"/>
</g>
<!-- Node53&#45;&gt;Node11 -->
<g id="edge61" class="edge">
<title>Node53&#45;&gt;Node11</title>
<path fill="none" stroke="#191970" d="M832.8372,-299.3606C744.8466,-287.1969 573.8441,-262.9951 547,-255 545.0882,-254.4306 543.1451,-253.7743 541.2058,-253.0603"/>
<polygon fill="#191970" stroke="#191970" points="542.283,-249.7187 531.7038,-249.1435 539.6152,-256.1904 542.283,-249.7187"/>
</g>
<!-- Node53&#45;&gt;Node12 -->
<g id="edge62" class="edge">
<title>Node53&#45;&gt;Node12</title>
<path fill="none" stroke="#191970" d="M832.7717,-294.1867C828.1159,-293.1035 823.4736,-292.0286 819,-291 743.8662,-273.7253 609.6584,-283.2361 659,-224 726.9693,-142.4007 1077.8733,-125.8559 1183.7327,-122.7025"/>
<polygon fill="#191970" stroke="#191970" points="1183.8526,-126.2006 1193.751,-122.4229 1183.6572,-119.2034 1183.8526,-126.2006"/>
</g>
<!-- Node53&#45;&gt;Node14 -->
<g id="edge63" class="edge">
<title>Node53&#45;&gt;Node14</title>
<path fill="none" stroke="#191970" d="M937.2007,-292.1432C971.7097,-282.3627 1017.8224,-268.7398 1058,-255 1060.1185,-254.2755 1062.291,-253.5075 1064.4757,-252.716"/>
<polygon fill="#191970" stroke="#191970" points="1065.8576,-255.9361 1074.0017,-249.1593 1063.4091,-249.3783 1065.8576,-255.9361"/>
</g>
<!-- Node53&#45;&gt;Node20 -->
<g id="edge71" class="edge">
<title>Node53&#45;&gt;Node20</title>
<path fill="none" stroke="#191970" d="M920.8767,-291.456C941.0982,-282.2379 966.3625,-269.4504 987,-255 1003.4839,-243.458 1002.4705,-233.882 1020,-224 1047.8986,-208.2725 1244.4906,-157.4674 1337.0384,-134.0388"/>
<polygon fill="#191970" stroke="#191970" points="1338.156,-137.3664 1346.9935,-131.5226 1336.4407,-130.5798 1338.156,-137.3664"/>
</g>
<!-- Node53&#45;&gt;Node22 -->
<g id="edge70" class="edge">
<title>Node53&#45;&gt;Node22</title>
<path fill="none" stroke="#191970" d="M833.0611,-291.4562C793.1438,-277.1984 748.3551,-253.585 771,-224 840.8596,-132.7298 1205.3696,-85.2226 1337.2863,-70.8175"/>
<polygon fill="#191970" stroke="#191970" points="1337.9137,-74.2703 1347.4815,-69.7198 1337.1642,-67.3105 1337.9137,-74.2703"/>
</g>
<!-- Node54 -->
<g id="node34" class="node">
<title>Node54</title>
<polygon fill="#ffffff" stroke="#bfbfbf" points="1332.5,-230 1332.5,-249 1383.5,-249 1383.5,-230 1332.5,-230"/>
<text text-anchor="middle" x="1358" y="-237" font-family="Helvetica,sans-Serif" font-size="10.00" fill="#000000">typeinfo</text>
</g>
<!-- Node53&#45;&gt;Node54 -->
<g id="edge64" class="edge">
<title>Node53&#45;&gt;Node54</title>
<path fill="none" stroke="#191970" d="M937.4265,-299.0738C1034.4374,-285.3323 1239.5884,-256.2729 1322.3095,-244.5555"/>
<polygon fill="#191970" stroke="#191970" points="1323.0518,-247.9854 1332.4621,-243.1174 1322.07,-241.0546 1323.0518,-247.9854"/>
</g>
<!-- Node55 -->
<g id="node35" class="node">
<title>Node55</title>
<g id="a_node35"><a xlink:href="io_8h.html" target="_top" xlink:title="core/util/io.h">
<polygon fill="#ffffff" stroke="#ff0000" points="850,-230 850,-249 920,-249 920,-230 850,-230"/>
<text text-anchor="middle" x="885" y="-237" font-family="Helvetica,sans-Serif" font-size="10.00" fill="#000000">core/util/io.h</text>
</a>
</g>
</g>
<!-- Node53&#45;&gt;Node55 -->
<g id="edge66" class="edge">
<title>Node53&#45;&gt;Node55</title>
<path fill="none" stroke="#191970" d="M885,-291.2967C885,-281.7699 885,-269.3954 885,-259.1306"/>
<polygon fill="#191970" stroke="#191970" points="888.5001,-259.0549 885,-249.055 881.5001,-259.055 888.5001,-259.0549"/>
</g>
<!-- Node58 -->
<g id="node36" class="node">
<title>Node58</title>
<polygon fill="#ffffff" stroke="#bfbfbf" points="668,-230 668,-249 724,-249 724,-230 668,-230"/>
<text text-anchor="middle" x="696" y="-237" font-family="Helvetica,sans-Serif" font-size="10.00" fill="#000000">Rtypes.h</text>
</g>
<!-- Node53&#45;&gt;Node58 -->
<g id="edge72" class="edge">
<title>Node53&#45;&gt;Node58</title>
<path fill="none" stroke="#191970" d="M841.5159,-291.4775C812.2201,-281.3047 772.7337,-267.4925 738,-255 735.7785,-254.201 733.4928,-253.3734 731.1895,-252.5352"/>
<polygon fill="#191970" stroke="#191970" points="732.3347,-249.2273 721.7409,-249.0762 729.9282,-255.8007 732.3347,-249.2273"/>
</g>
<!-- Node55&#45;&gt;Node6 -->
<g id="edge67" class="edge">
<title>Node55&#45;&gt;Node6</title>
<path fill="none" stroke="#191970" d="M895.7208,-229.6332C929.075,-199.4217 1034.9603,-107.139 1138,-56 1177.828,-36.2332 1227.7969,-23.116 1259.3244,-16.1148"/>
<polygon fill="#191970" stroke="#191970" points="1260.2286,-19.5004 1269.268,-13.9741 1258.7554,-12.6571 1260.2286,-19.5004"/>
</g>
<!-- Node55&#45;&gt;Node8 -->
<g id="edge68" class="edge">
<title>Node55&#45;&gt;Node8</title>
<path fill="none" stroke="#191970" d="M908.4108,-229.9131C914.9703,-227.5971 922.1752,-225.3913 929,-224 1175.9837,-173.6489 1244.0122,-211.2664 1495,-188 1511.3175,-186.4874 1529.4051,-184.3328 1544.4317,-182.4107"/>
<polygon fill="#191970" stroke="#191970" points="1545.2994,-185.8273 1554.7634,-181.0647 1544.395,-178.886 1545.2994,-185.8273"/>
</g>
<!-- Node55&#45;&gt;Node20 -->
<g id="edge69" class="edge">
<title>Node55&#45;&gt;Node20</title>
<path fill="none" stroke="#191970" d="M910.4279,-229.9666C916.471,-227.8615 922.9277,-225.742 929,-224 1074.781,-182.1779 1250.83,-147.0418 1335.1917,-131.1306"/>
<polygon fill="#191970" stroke="#191970" points="1336.0775,-134.5256 1345.2603,-129.2409 1334.7862,-127.6457 1336.0775,-134.5256"/>
</g>
<!-- Node48&#45;&gt;Node3 -->
<g id="edge78" class="edge">
<title>Node48&#45;&gt;Node3</title>
<path fill="none" stroke="#191970" d="M532.2256,-301.141C452.5131,-292.6739 295.0061,-275.0853 162,-255 144.157,-252.3055 124.329,-248.7688 108.2125,-245.7541"/>
<polygon fill="#191970" stroke="#191970" points="108.6923,-242.2828 98.2159,-243.8625 107.3908,-249.1608 108.6923,-242.2828"/>
</g>
<!-- Node48&#45;&gt;Node10 -->
<g id="edge76" class="edge">
<title>Node48&#45;&gt;Node10</title>
<path fill="none" stroke="#191970" d="M584,-291.2967C584,-281.7699 584,-269.3954 584,-259.1306"/>
<polygon fill="#191970" stroke="#191970" points="587.5001,-259.0549 584,-249.055 580.5001,-259.055 587.5001,-259.0549"/>
</g>
<!-- Node48&#45;&gt;Node11 -->
<g id="edge77" class="edge">
<title>Node48&#45;&gt;Node11</title>
<path fill="none" stroke="#191970" d="M567.889,-291.2967C556.7195,-280.7564 541.856,-266.7303 530.4133,-255.9323"/>
<polygon fill="#191970" stroke="#191970" points="532.8006,-253.3727 523.1254,-249.055 527.9963,-258.4638 532.8006,-253.3727"/>
</g>
<!-- Node48&#45;&gt;Node18 -->
<g id="edge80" class="edge">
<title>Node48&#45;&gt;Node18</title>
<path fill="none" stroke="#191970" d="M633.8211,-291.4639C675.1867,-278.9797 733.037,-261.5204 770.0139,-250.3607"/>
<polygon fill="#191970" stroke="#191970" points="771.2965,-253.6296 779.8588,-247.3895 769.274,-246.9281 771.2965,-253.6296"/>
</g>
<!-- Node48&#45;&gt;Node20 -->
<g id="edge83" class="edge">
<title>Node48&#45;&gt;Node20</title>
<path fill="none" stroke="#191970" d="M538.8881,-291.4933C500.3086,-276.336 454.5912,-251.3111 479,-224 507.8727,-191.6944 1150.2935,-140.0218 1335.4651,-125.7545"/>
<polygon fill="#191970" stroke="#191970" points="1335.7674,-129.2417 1345.4698,-124.9858 1335.231,-122.2622 1335.7674,-129.2417"/>
</g>
<!-- Node48&#45;&gt;Node31 -->
<g id="edge82" class="edge">
<title>Node48&#45;&gt;Node31</title>
<path fill="none" stroke="#191970" d="M635.5415,-304.2931C704.1108,-300.1316 828.3848,-288.2888 929,-255 930.4227,-254.5293 931.8585,-253.9922 933.2899,-253.4071"/>
<polygon fill="#191970" stroke="#191970" points="934.9466,-256.4952 942.4833,-249.0489 931.948,-250.17 934.9466,-256.4952"/>
</g>
<!-- Node49 -->
<g id="node38" class="node">
<title>Node49</title>
<polygon fill="#ffffff" stroke="#bfbfbf" points="303.5,-230 303.5,-249 354.5,-249 354.5,-230 303.5,-230"/>
<text text-anchor="middle" x="329" y="-237" font-family="Helvetica,sans-Serif" font-size="10.00" fill="#000000">numeric</text>
</g>
<!-- Node48&#45;&gt;Node49 -->
<g id="edge79" class="edge">
<title>Node48&#45;&gt;Node49</title>
<path fill="none" stroke="#191970" d="M532.2787,-297.4682C486.9661,-288.8454 419.683,-274.3103 363,-255 361.1578,-254.3724 359.2804,-253.6791 357.4015,-252.944"/>
<polygon fill="#191970" stroke="#191970" points="358.722,-249.7024 348.1484,-249.032 355.9961,-256.1498 358.722,-249.7024"/>
</g>
<!-- Node50 -->
<g id="node39" class="node">
<title>Node50</title>
<polygon fill="#ffffff" stroke="#bfbfbf" points="372.5,-230 372.5,-249 431.5,-249 431.5,-230 372.5,-230"/>
<text text-anchor="middle" x="402" y="-237" font-family="Helvetica,sans-Serif" font-size="10.00" fill="#000000">stdexcept</text>
</g>
<!-- Node48&#45;&gt;Node50 -->
<g id="edge81" class="edge">
<title>Node48&#45;&gt;Node50</title>
<path fill="none" stroke="#191970" d="M543.1556,-291.4639C511.4238,-279.7824 467.8593,-263.7449 437.5534,-252.5884"/>
<polygon fill="#191970" stroke="#191970" points="438.4138,-249.1755 427.8203,-249.0053 435.9955,-255.7445 438.4138,-249.1755"/>
</g>
<!-- Node59&#45;&gt;Node2 -->
<g id="edge85" class="edge">
<title>Node59&#45;&gt;Node2</title>
<path fill="none" stroke="#191970" d="M565.2692,-363.9705C491.0637,-339.3578 293.6089,-273.8653 219.0507,-249.1356"/>
<polygon fill="#191970" stroke="#191970" points="219.9648,-245.7514 209.3714,-245.9252 217.7611,-252.3955 219.9648,-245.7514"/>
</g>
<!-- Node59&#45;&gt;Node48 -->
<g id="edge86" class="edge">
<title>Node59&#45;&gt;Node48</title>
<path fill="none" stroke="#191970" d="M592.5672,-363.9005C591.3149,-355.5099 589.4396,-342.9451 587.7625,-331.7085"/>
<polygon fill="#191970" stroke="#191970" points="591.18,-330.8955 586.2421,-321.5218 584.2567,-331.9289 591.18,-330.8955"/>
</g>
<!-- Node62&#45;&gt;Node7 -->
<g id="edge92" class="edge">
<title>Node62&#45;&gt;Node7</title>
<path fill="none" stroke="#191970" d="M1665.8304,-363.9005C1655.7551,-353.353 1639.3793,-336.2096 1627.1431,-323.3998"/>
<polygon fill="#191970" stroke="#191970" points="1629.5909,-320.8952 1620.1526,-316.0817 1624.5291,-325.7304 1629.5909,-320.8952"/>
</g>
<!-- Node62&#45;&gt;Node54 -->
<g id="edge93" class="edge">
<title>Node62&#45;&gt;Node54</title>
<path fill="none" stroke="#191970" d="M1675.2673,-363.9003C1675.186,-346.5218 1672.3195,-309.9 1651,-291 1577.1888,-225.5654 1528.9619,-273.1154 1432,-255 1419.3996,-252.6459 1405.6442,-249.8323 1393.4485,-247.2523"/>
<polygon fill="#191970" stroke="#191970" points="1394.1411,-243.8213 1383.6305,-245.1553 1392.6789,-250.6669 1394.1411,-243.8213"/>
</g>
<!-- Node62&#45;&gt;Node48 -->
<g id="edge94" class="edge">
<title>Node62&#45;&gt;Node48</title>
<path fill="none" stroke="#191970" d="M1634.2221,-367.7203C1609.592,-364.4198 1577.546,-360.4612 1549,-358 1227.5733,-330.2865 1146.0943,-340.3968 824,-322 763.4835,-318.5435 694.4225,-314.0227 645.9691,-310.7562"/>
<polygon fill="#191970" stroke="#191970" points="646.1663,-307.2617 635.953,-310.0791 645.6941,-314.2457 646.1663,-307.2617"/>
</g>
<!-- Node62&#45;&gt;Node60 -->
<g id="edge95" class="edge">
<title>Node62&#45;&gt;Node60</title>
<path fill="none" stroke="#191970" d="M1715.5271,-364.7409C1772.9304,-352.3344 1877.6614,-329.699 1938.2689,-316.5999"/>
<polygon fill="#191970" stroke="#191970" points="1939.2919,-319.9597 1948.3268,-314.4261 1937.8131,-313.1177 1939.2919,-319.9597"/>
</g>
<!-- Node63&#45;&gt;Node51 -->
<g id="edge97" class="edge">
<title>Node63&#45;&gt;Node51</title>
<path fill="none" stroke="#191970" d="M531.8969,-425.2967C519.2928,-416.2163 503.0976,-404.5488 489.27,-394.587"/>
<polygon fill="#191970" stroke="#191970" points="491.1792,-391.6488 481.0196,-388.6432 487.0874,-397.3284 491.1792,-391.6488"/>
</g>
<!-- Node64&#45;&gt;Node5 -->
<g id="edge108" class="edge">
<title>Node64&#45;&gt;Node5</title>
<path fill="none" stroke="#191970" d="M2298.3563,-430.8802C2278.4313,-420.581 2245.9338,-403.7301 2218,-389 2216.4378,-388.1762 2214.8296,-387.3251 2213.2094,-386.4654"/>
<polygon fill="#191970" stroke="#191970" points="2214.5058,-383.1904 2204.0346,-381.5768 2211.2141,-389.3682 2214.5058,-383.1904"/>
</g>
<!-- Node64&#45;&gt;Node6 -->
<g id="edge109" class="edge">
<title>Node64&#45;&gt;Node6</title>
<path fill="none" stroke="#191970" d="M2351.6546,-430.9769C2387.9321,-420.4707 2441.8331,-403.1736 2458,-389 2514.3692,-339.5807 2537.0968,-284.6236 2493,-224 2421.081,-125.1268 1503.0771,-30.7825 1321.1946,-12.995"/>
<polygon fill="#191970" stroke="#191970" points="1321.2749,-9.4864 1310.9829,-12.0014 1320.5969,-16.4535 1321.2749,-9.4864"/>
</g>
<!-- Node64&#45;&gt;Node8 -->
<g id="edge111" class="edge">
<title>Node64&#45;&gt;Node8</title>
<path fill="none" stroke="#191970" d="M2303.6383,-430.6347C2290.7508,-420.804 2271.0396,-404.9172 2256,-389 2192.9989,-322.3226 2212.3044,-268.342 2132,-224 2086.2321,-198.7282 1721.6029,-183.323 1609.6042,-179.1525"/>
<polygon fill="#191970" stroke="#191970" points="1609.3989,-175.6427 1599.2772,-178.7733 1609.142,-182.638 1609.3989,-175.6427"/>
</g>
<!-- Node64&#45;&gt;Node13 -->
<g id="edge107" class="edge">
<title>Node64&#45;&gt;Node13</title>
<path fill="none" stroke="#191970" d="M2369.0031,-436.0171C2456.9546,-427.9049 2627.2978,-409.6985 2645,-389 2653.955,-378.5293 2652.5253,-369.5411 2645,-358 2612.7712,-308.573 2437.2626,-264.4988 2360.2522,-247.2336"/>
<polygon fill="#191970" stroke="#191970" points="2360.5848,-243.7226 2350.0645,-244.9776 2359.0712,-250.557 2360.5848,-243.7226"/>
</g>
<!-- Node64&#45;&gt;Node15 -->
<g id="edge110" class="edge">
<title>Node64&#45;&gt;Node15</title>
<path fill="none" stroke="#191970" d="M2287.915,-430.9005C2252.3396,-419.1589 2191.9992,-399.2436 2152.5755,-386.2318"/>
<polygon fill="#191970" stroke="#191970" points="2153.6241,-382.8923 2143.031,-383.0817 2151.4302,-389.5396 2153.6241,-382.8923"/>
</g>
<!-- Node64&#45;&gt;Node20 -->
<g id="edge116" class="edge">
<title>Node64&#45;&gt;Node20</title>
<path fill="none" stroke="#191970" d="M2311.0474,-430.8254C2298.4004,-409.3184 2270,-355.5602 2270,-306.5 2270,-306.5 2270,-306.5 2270,-239.5 2270,-154.6574 2175.7155,-186.879 2093,-168 1967.4762,-139.3505 1574.8237,-126.8166 1435.0328,-123.1831"/>
<polygon fill="#191970" stroke="#191970" points="1434.7175,-119.674 1424.6313,-122.9171 1434.5385,-126.6717 1434.7175,-119.674"/>
</g>
<!-- Node64&#45;&gt;Node62 -->
<g id="edge117" class="edge">
<title>Node64&#45;&gt;Node62</title>
<path fill="none" stroke="#191970" d="M2264.7347,-435.0455C2143.7314,-422.4175 1845.5572,-391.2996 1725.8996,-378.812"/>
<polygon fill="#191970" stroke="#191970" points="1726.2101,-375.3254 1715.9008,-377.7685 1725.4835,-382.2876 1726.2101,-375.3254"/>
</g>
<!-- Node65 -->
<g id="node46" class="node">
<title>Node65</title>
<polygon fill="#ffffff" stroke="#bfbfbf" points="2526,-364 2526,-383 2582,-383 2582,-364 2526,-364"/>
<text text-anchor="middle" x="2554" y="-371" font-family="Helvetica,sans-Serif" font-size="10.00" fill="#000000">cinttypes</text>
</g>
<!-- Node64&#45;&gt;Node65 -->
<g id="edge105" class="edge">
<title>Node64&#45;&gt;Node65</title>
<path fill="none" stroke="#191970" d="M2357.657,-430.9611C2397.3294,-421.3723 2459.2443,-405.6594 2512,-389 2514.5524,-388.194 2517.1781,-387.3244 2519.8112,-386.4228"/>
<polygon fill="#191970" stroke="#191970" points="2521.0044,-389.7133 2529.2615,-383.0747 2518.6667,-383.1152 2521.0044,-389.7133"/>
</g>
<!-- Node66 -->
<g id="node47" class="node">
<title>Node66</title>
<polygon fill="#ffffff" stroke="#bfbfbf" points="2600.5,-364 2600.5,-383 2635.5,-383 2635.5,-364 2600.5,-364"/>
<text text-anchor="middle" x="2618" y="-371" font-family="Helvetica,sans-Serif" font-size="10.00" fill="#000000">map</text>
</g>
<!-- Node64&#45;&gt;Node66 -->
<g id="edge106" class="edge">
<title>Node64&#45;&gt;Node66</title>
<path fill="none" stroke="#191970" d="M2369.1296,-435.9451C2425.302,-429.844 2516.6409,-416.4354 2591,-389 2592.0395,-388.6165 2593.0857,-388.1949 2594.1308,-387.744"/>
<polygon fill="#191970" stroke="#191970" points="2595.9452,-390.749 2603.2988,-383.1216 2592.7938,-384.4985 2595.9452,-390.749"/>
</g>
<!-- Node67 -->
<g id="node48" class="node">
<title>Node67</title>
<g id="a_node48"><a xlink:href="param__group_8h.html" target="_top" xlink:title="core/param/param_group.h">
<polygon fill="#ffffff" stroke="#000000" points="2298.5,-364 2298.5,-383 2431.5,-383 2431.5,-364 2298.5,-364"/>
<text text-anchor="middle" x="2365" y="-371" font-family="Helvetica,sans-Serif" font-size="10.00" fill="#000000">core/param/param_group.h</text>
</a>
</g>
</g>
<!-- Node64&#45;&gt;Node67 -->
<g id="edge112" class="edge">
<title>Node64&#45;&gt;Node67</title>
<path fill="none" stroke="#191970" d="M2323.8772,-430.9005C2331.2198,-420.6515 2343.0241,-404.1747 2352.1062,-391.4976"/>
<polygon fill="#191970" stroke="#191970" points="2355.1568,-393.2492 2358.1355,-383.0817 2349.4664,-389.1724 2355.1568,-393.2492"/>
</g>
<!-- Node68 -->
<g id="node49" class="node">
<title>Node68</title>
<polygon fill="#ffffff" stroke="#bfbfbf" points="2386.5,-297 2386.5,-316 2483.5,-316 2483.5,-297 2386.5,-297"/>
<text text-anchor="middle" x="2435" y="-304" font-family="Helvetica,sans-Serif" font-size="10.00" fill="#000000">cpptoml/cpptoml.h</text>
</g>
<!-- Node64&#45;&gt;Node68 -->
<g id="edge118" class="edge">
<title>Node64&#45;&gt;Node68</title>
<path fill="none" stroke="#191970" d="M2369.1057,-432.719C2395.3582,-425.8756 2424.9525,-413.0414 2441,-389 2453.4711,-370.3165 2448.4619,-343.6638 2442.678,-325.7561"/>
<polygon fill="#191970" stroke="#191970" points="2445.8908,-324.3466 2439.2178,-316.1173 2439.3024,-326.7118 2445.8908,-324.3466"/>
</g>
<!-- Node67&#45;&gt;Node13 -->
<g id="edge113" class="edge">
<title>Node67&#45;&gt;Node13</title>
<path fill="none" stroke="#191970" d="M2360.5304,-363.789C2355.9412,-353.5542 2348.8092,-336.8846 2344,-322 2337.1609,-300.8326 2331.4339,-275.9465 2327.8851,-259.0852"/>
<polygon fill="#191970" stroke="#191970" points="2331.3129,-258.3778 2325.8777,-249.2834 2324.4553,-259.7823 2331.3129,-258.3778"/>
</g>
<!-- Node67&#45;&gt;Node20 -->
<g id="edge114" class="edge">
<title>Node67&#45;&gt;Node20</title>
<path fill="none" stroke="#191970" d="M2367.3351,-363.6737C2372.7347,-338.6393 2383.815,-271.1149 2359,-224 2339.6141,-187.193 2323.1313,-182.1177 2284,-168 2204.0953,-139.1722 1611.4685,-126.1312 1434.657,-122.8552"/>
<polygon fill="#191970" stroke="#191970" points="1434.6554,-119.3546 1424.593,-122.671 1434.5272,-126.3535 1434.6554,-119.3546"/>
</g>
<!-- Node67&#45;&gt;Node68 -->
<g id="edge115" class="edge">
<title>Node67&#45;&gt;Node68</title>
<path fill="none" stroke="#191970" d="M2375.0293,-363.9005C2386.1531,-353.2535 2404.2987,-335.8856 2417.721,-323.0385"/>
<polygon fill="#191970" stroke="#191970" points="2420.1852,-325.5247 2424.9893,-316.0817 2415.345,-320.4678 2420.1852,-325.5247"/>
</g>
<!-- Node69&#45;&gt;Node2 -->
<g id="edge121" class="edge">
<title>Node69&#45;&gt;Node2</title>
<path fill="none" stroke="#191970" d="M207.6336,-363.8631C204.5387,-342.0364 196.9422,-288.4605 192.8016,-259.2589"/>
<polygon fill="#191970" stroke="#191970" points="196.2233,-258.4592 191.3541,-249.0496 189.2927,-259.442 196.2233,-258.4592"/>
</g>
<!-- Node69&#45;&gt;Node3 -->
<g id="edge122" class="edge">
<title>Node69&#45;&gt;Node3</title>
<path fill="none" stroke="#191970" d="M193.0065,-363.8713C177.8893,-354.3337 155.0476,-338.7614 138,-322 117.8422,-302.1806 98.9805,-275.4529 87.4745,-257.8613"/>
<polygon fill="#191970" stroke="#191970" points="90.2208,-255.66 81.8776,-249.13 84.3277,-259.4376 90.2208,-255.66"/>
</g>
<!-- Node69&#45;&gt;Node8 -->
<g id="edge124" class="edge">
<title>Node69&#45;&gt;Node8</title>
<path fill="none" stroke="#191970" d="M200.4995,-363.9804C178.2253,-337.9006 122.5279,-264.5525 162,-224 187.8362,-197.4567 1458.0606,-190.7451 1495,-188 1511.3424,-186.7856 1529.4327,-184.663 1544.4546,-182.6849"/>
<polygon fill="#191970" stroke="#191970" points="1545.3425,-186.0966 1554.7818,-181.2851 1544.4023,-179.16 1545.3425,-186.0966"/>
</g>
<!-- Node69&#45;&gt;Node48 -->
<g id="edge125" class="edge">
<title>Node69&#45;&gt;Node48</title>
<path fill="none" stroke="#191970" d="M251.2883,-365.9445C317.4655,-354.1208 445.8262,-331.1871 522.3172,-317.5207"/>
<polygon fill="#191970" stroke="#191970" points="523.0676,-320.9421 532.2961,-315.7378 521.8364,-314.0512 523.0676,-320.9421"/>
</g>
<!-- Node69&#45;&gt;Node49 -->
<g id="edge123" class="edge">
<title>Node69&#45;&gt;Node49</title>
<path fill="none" stroke="#191970" d="M211.4774,-363.8439C216.1116,-347.3248 227.4334,-313.2721 247,-291 260.8197,-275.2694 280.6029,-262.6548 297.2753,-253.8478"/>
<polygon fill="#191970" stroke="#191970" points="299.3144,-256.7391 306.6636,-249.1076 296.1594,-250.4904 299.3144,-256.7391"/>
</g>
</g>
</svg>
