<?xml version="1.0" encoding="UTF-8" standalone="no"?>
<!DOCTYPE svg PUBLIC "-//W3C//DTD SVG 1.1//EN"
 "http://www.w3.org/Graphics/SVG/1.1/DTD/svg11.dtd">
<!-- Generated by graphviz version 2.40.1 (20161225.0304)
 -->
<!-- Title: core/agent/cell_division_event.cc Pages: 1 -->
<svg width="767pt" height="520pt"
 viewBox="0.00 0.00 766.71 520.00" xmlns="http://www.w3.org/2000/svg" xmlns:xlink="http://www.w3.org/1999/xlink">
<g id="graph0" class="graph" transform="scale(1 1) rotate(0) translate(4 516)">
<title>core/agent/cell_division_event.cc</title>
<polygon fill="#ffffff" stroke="transparent" points="-4,4 -4,-516 762.7122,-516 762.7122,4 -4,4"/>
<!-- Node0 -->
<g id="node1" class="node">
<title>Node0</title>
<polygon fill="#bfbfbf" stroke="#000000" points="227.5,-481.5 227.5,-511.5 346.5,-511.5 346.5,-481.5 227.5,-481.5"/>
<text text-anchor="start" x="235.5" y="-499.5" font-family="Helvetica,sans-Serif" font-size="10.00" fill="#000000">core/agent/cell_division</text>
<text text-anchor="middle" x="287" y="-488.5" font-family="Helvetica,sans-Serif" font-size="10.00" fill="#000000">_event.cc</text>
</g>
<!-- Node1 -->
<g id="node2" class="node">
<title>Node1</title>
<g id="a_node2"><a xlink:href="cell__division__event_8h.html" target="_top" xlink:title="core/agent/cell_division\l_event.h">
<polygon fill="#ffffff" stroke="#000000" points="227.5,-414.5 227.5,-444.5 346.5,-444.5 346.5,-414.5 227.5,-414.5"/>
<text text-anchor="start" x="235.5" y="-432.5" font-family="Helvetica,sans-Serif" font-size="10.00" fill="#000000">core/agent/cell_division</text>
<text text-anchor="middle" x="287" y="-421.5" font-family="Helvetica,sans-Serif" font-size="10.00" fill="#000000">_event.h</text>
</a>
</g>
</g>
<!-- Node0&#45;&gt;Node1 -->
<g id="edge1" class="edge">
<title>Node0&#45;&gt;Node1</title>
<path fill="none" stroke="#191970" d="M287,-481.2967C287,-473.5013 287,-463.7991 287,-454.9064"/>
<polygon fill="#191970" stroke="#191970" points="290.5001,-454.6431 287,-444.6432 283.5001,-454.6432 290.5001,-454.6431"/>
</g>
<!-- Node2 -->
<g id="node3" class="node">
<title>Node2</title>
<g id="a_node3"><a xlink:href="new__agent__event_8h.html" target="_top" xlink:title="core/agent/new_agent\l_event.h">
<polygon fill="#ffffff" stroke="#000000" points="230.5,-347.5 230.5,-377.5 343.5,-377.5 343.5,-347.5 230.5,-347.5"/>
<text text-anchor="start" x="238.5" y="-365.5" font-family="Helvetica,sans-Serif" font-size="10.00" fill="#000000">core/agent/new_agent</text>
<text text-anchor="middle" x="287" y="-354.5" font-family="Helvetica,sans-Serif" font-size="10.00" fill="#000000">_event.h</text>
</a>
</g>
</g>
<!-- Node1&#45;&gt;Node2 -->
<g id="edge2" class="edge">
<title>Node1&#45;&gt;Node2</title>
<path fill="none" stroke="#191970" d="M287,-414.2967C287,-406.5013 287,-396.7991 287,-387.9064"/>
<polygon fill="#191970" stroke="#191970" points="290.5001,-387.6431 287,-377.6432 283.5001,-387.6432 290.5001,-387.6431"/>
</g>
<!-- Node3 -->
<g id="node4" class="node">
<title>Node3</title>
<polygon fill="#ffffff" stroke="#bfbfbf" points="0,-224.5 0,-243.5 40,-243.5 40,-224.5 0,-224.5"/>
<text text-anchor="middle" x="20" y="-231.5" font-family="Helvetica,sans-Serif" font-size="10.00" fill="#000000">limits</text>
</g>
<!-- Node2&#45;&gt;Node3 -->
<g id="edge3" class="edge">
<title>Node2&#45;&gt;Node3</title>
<path fill="none" stroke="#191970" d="M255.5866,-347.3816C203.3965,-322.2639 99.5743,-272.297 49.0159,-247.9646"/>
<polygon fill="#191970" stroke="#191970" points="50.461,-244.7758 39.9324,-243.5929 47.4253,-251.0834 50.461,-244.7758"/>
</g>
<!-- Node4 -->
<g id="node5" class="node">
<title>Node4</title>
<polygon fill="#ffffff" stroke="#bfbfbf" points="219,-286 219,-305 263,-305 263,-286 219,-286"/>
<text text-anchor="middle" x="241" y="-293" font-family="Helvetica,sans-Serif" font-size="10.00" fill="#000000">mutex</text>
</g>
<!-- Node2&#45;&gt;Node4 -->
<g id="edge4" class="edge">
<title>Node2&#45;&gt;Node4</title>
<path fill="none" stroke="#191970" d="M276.5619,-347.2967C269.6732,-337.2631 260.6158,-324.0709 253.366,-313.5113"/>
<polygon fill="#191970" stroke="#191970" points="256.1056,-311.318 247.5601,-305.055 250.3348,-315.28 256.1056,-311.318"/>
</g>
<!-- Node5 -->
<g id="node6" class="node">
<title>Node5</title>
<g id="a_node6"><a xlink:href="inline__vector_8h.html" target="_top" xlink:title="core/container/inline\l_vector.h">
<polygon fill="#ffffff" stroke="#000000" points="281,-280.5 281,-310.5 385,-310.5 385,-280.5 281,-280.5"/>
<text text-anchor="start" x="289" y="-298.5" font-family="Helvetica,sans-Serif" font-size="10.00" fill="#000000">core/container/inline</text>
<text text-anchor="middle" x="333" y="-287.5" font-family="Helvetica,sans-Serif" font-size="10.00" fill="#000000">_vector.h</text>
</a>
</g>
</g>
<!-- Node2&#45;&gt;Node5 -->
<g id="edge5" class="edge">
<title>Node2&#45;&gt;Node5</title>
<path fill="none" stroke="#191970" d="M297.4381,-347.2967C303.1431,-338.9873 310.3354,-328.5115 316.7567,-319.1587"/>
<polygon fill="#191970" stroke="#191970" points="319.8285,-320.8682 322.6032,-310.6432 314.0577,-316.9062 319.8285,-320.8682"/>
</g>
<!-- Node18 -->
<g id="node19" class="node">
<title>Node18</title>
<g id="a_node19"><a xlink:href="log_8h.html" target="_top" xlink:title="core/util/log.h">
<polygon fill="#ffffff" stroke="#000000" points="481.5,-112.5 481.5,-131.5 556.5,-131.5 556.5,-112.5 481.5,-112.5"/>
<text text-anchor="middle" x="519" y="-119.5" font-family="Helvetica,sans-Serif" font-size="10.00" fill="#000000">core/util/log.h</text>
</a>
</g>
</g>
<!-- Node2&#45;&gt;Node18 -->
<g id="edge34" class="edge">
<title>Node2&#45;&gt;Node18</title>
<path fill="none" stroke="#191970" d="M343.5187,-349.6677C426.6162,-329.5263 575.2667,-288.2019 606,-244 632.8561,-205.3744 578.3558,-160.4404 544.0389,-137.3851"/>
<polygon fill="#191970" stroke="#191970" points="545.6833,-134.279 535.3951,-131.7486 541.8598,-140.1425 545.6833,-134.279"/>
</g>
<!-- Node5&#45;&gt;Node3 -->
<g id="edge9" class="edge">
<title>Node5&#45;&gt;Node3</title>
<path fill="none" stroke="#191970" d="M280.8272,-281.9187C277.8468,-281.244 274.8888,-280.599 272,-280 176.7685,-260.2547 148.1476,-267.9304 49.8795,-243.8728"/>
<polygon fill="#191970" stroke="#191970" points="50.6976,-240.4697 40.1476,-241.4436 49.0023,-247.2614 50.6976,-240.4697"/>
</g>
<!-- Node6 -->
<g id="node7" class="node">
<title>Node6</title>
<polygon fill="#ffffff" stroke="#bfbfbf" points="379,-224.5 379,-243.5 435,-243.5 435,-224.5 379,-224.5"/>
<text text-anchor="middle" x="407" y="-231.5" font-family="Helvetica,sans-Serif" font-size="10.00" fill="#000000">algorithm</text>
</g>
<!-- Node5&#45;&gt;Node6 -->
<g id="edge6" class="edge">
<title>Node5&#45;&gt;Node6</title>
<path fill="none" stroke="#191970" d="M351.2921,-280.2977C362.2061,-271.2274 376.0671,-259.7077 387.2324,-250.4285"/>
<polygon fill="#191970" stroke="#191970" points="389.698,-252.9303 395.1517,-243.8469 385.2238,-247.5468 389.698,-252.9303"/>
</g>
<!-- Node7 -->
<g id="node8" class="node">
<title>Node7</title>
<polygon fill="#ffffff" stroke="#bfbfbf" points="453,-224.5 453,-243.5 491,-243.5 491,-224.5 453,-224.5"/>
<text text-anchor="middle" x="472" y="-231.5" font-family="Helvetica,sans-Serif" font-size="10.00" fill="#000000">array</text>
</g>
<!-- Node5&#45;&gt;Node7 -->
<g id="edge7" class="edge">
<title>Node5&#45;&gt;Node7</title>
<path fill="none" stroke="#191970" d="M367.0032,-280.4554C390.5273,-270.0473 421.4679,-256.3577 443.6582,-246.5397"/>
<polygon fill="#191970" stroke="#191970" points="445.1536,-249.7054 452.8823,-242.4586 442.3212,-243.304 445.1536,-249.7054"/>
</g>
<!-- Node8 -->
<g id="node9" class="node">
<title>Node8</title>
<polygon fill="#ffffff" stroke="#bfbfbf" points="547.5,-224.5 547.5,-243.5 596.5,-243.5 596.5,-224.5 547.5,-224.5"/>
<text text-anchor="middle" x="572" y="-231.5" font-family="Helvetica,sans-Serif" font-size="10.00" fill="#000000">cassert</text>
</g>
<!-- Node5&#45;&gt;Node8 -->
<g id="edge8" class="edge">
<title>Node5&#45;&gt;Node8</title>
<path fill="none" stroke="#191970" d="M385.1542,-282.0796C431.3988,-270.1798 497.6217,-253.1392 537.5496,-242.8649"/>
<polygon fill="#191970" stroke="#191970" points="538.536,-246.2251 547.3483,-240.3434 536.7915,-239.446 538.536,-246.2251"/>
</g>
<!-- Node9 -->
<g id="node10" class="node">
<title>Node9</title>
<polygon fill="#ffffff" stroke="#bfbfbf" points="537,-.5 537,-19.5 589,-19.5 589,-.5 537,-.5"/>
<text text-anchor="middle" x="563" y="-7.5" font-family="Helvetica,sans-Serif" font-size="10.00" fill="#000000">sstream</text>
</g>
<!-- Node5&#45;&gt;Node9 -->
<g id="edge10" class="edge">
<title>Node5&#45;&gt;Node9</title>
<path fill="none" stroke="#191970" d="M385.155,-289.1888C440.7205,-281.6525 530.8484,-267.0866 606,-244 676.402,-222.3724 758,-251.6492 758,-178 758,-178 758,-178 758,-122 758,-91.4754 760.8486,-77.3165 739,-56 719.2865,-36.7666 644.7398,-22.3887 599.2266,-15.1779"/>
<polygon fill="#191970" stroke="#191970" points="599.5759,-11.6904 589.1591,-13.6243 598.5083,-18.6085 599.5759,-11.6904"/>
</g>
<!-- Node10 -->
<g id="node11" class="node">
<title>Node10</title>
<polygon fill="#ffffff" stroke="#bfbfbf" points="58.5,-224.5 58.5,-243.5 109.5,-243.5 109.5,-224.5 58.5,-224.5"/>
<text text-anchor="middle" x="84" y="-231.5" font-family="Helvetica,sans-Serif" font-size="10.00" fill="#000000">typeinfo</text>
</g>
<!-- Node5&#45;&gt;Node10 -->
<g id="edge11" class="edge">
<title>Node5&#45;&gt;Node10</title>
<path fill="none" stroke="#191970" d="M280.7654,-282.1899C277.8007,-281.4461 274.8631,-280.7119 272,-280 206.3049,-263.664 189.7265,-260.2094 124,-244 122.5666,-243.6465 121.1045,-243.285 119.6277,-242.9192"/>
<polygon fill="#191970" stroke="#191970" points="120.3638,-239.4957 109.8147,-240.4793 118.6747,-246.2889 120.3638,-239.4957"/>
</g>
<!-- Node11 -->
<g id="node12" class="node">
<title>Node11</title>
<polygon fill="#ffffff" stroke="#bfbfbf" points="111,-.5 111,-19.5 155,-19.5 155,-.5 111,-.5"/>
<text text-anchor="middle" x="133" y="-7.5" font-family="Helvetica,sans-Serif" font-size="10.00" fill="#000000">vector</text>
</g>
<!-- Node5&#45;&gt;Node11 -->
<g id="edge12" class="edge">
<title>Node5&#45;&gt;Node11</title>
<path fill="none" stroke="#191970" d="M280.6323,-281.0551C236.4054,-268.5131 178.8726,-251.2578 170,-244 110.0787,-194.9844 125.3818,-153.4027 124,-76 123.8413,-67.1125 123.1426,-64.8474 124,-56 124.8418,-47.3132 126.5579,-37.8313 128.268,-29.7451"/>
<polygon fill="#191970" stroke="#191970" points="131.7274,-30.3146 130.5135,-19.7895 124.899,-28.7743 131.7274,-30.3146"/>
</g>
<!-- Node12 -->
<g id="node13" class="node">
<title>Node12</title>
<g id="a_node13"><a xlink:href="io_8h.html" target="_top" xlink:title="core/util/io.h">
<polygon fill="#ffffff" stroke="#000000" points="179,-224.5 179,-243.5 249,-243.5 249,-224.5 179,-224.5"/>
<text text-anchor="middle" x="214" y="-231.5" font-family="Helvetica,sans-Serif" font-size="10.00" fill="#000000">core/util/io.h</text>
</a>
</g>
</g>
<!-- Node5&#45;&gt;Node12 -->
<g id="edge13" class="edge">
<title>Node5&#45;&gt;Node12</title>
<path fill="none" stroke="#191970" d="M303.8893,-280.4554C284.8176,-270.599 260.0518,-257.7999 241.3461,-248.1327"/>
<polygon fill="#191970" stroke="#191970" points="242.9315,-245.0122 232.4408,-243.5303 239.7176,-251.2309 242.9315,-245.0122"/>
</g>
<!-- Node16 -->
<g id="node17" class="node">
<title>Node16</title>
<g id="a_node17"><a xlink:href="root_8h.html" target="_top" xlink:title="core/util/root.h">
<polygon fill="#ffffff" stroke="#000000" points="348.5,-168.5 348.5,-187.5 427.5,-187.5 427.5,-168.5 348.5,-168.5"/>
<text text-anchor="middle" x="388" y="-175.5" font-family="Helvetica,sans-Serif" font-size="10.00" fill="#000000">core/util/root.h</text>
</a>
</g>
</g>
<!-- Node5&#45;&gt;Node16 -->
<g id="edge32" class="edge">
<title>Node5&#45;&gt;Node16</title>
<path fill="none" stroke="#191970" d="M315.7807,-280.3469C301.2052,-265.6182 284.3901,-242.7852 296,-224 305.5745,-208.5081 322.1213,-198.059 338.5656,-191.0935"/>
<polygon fill="#191970" stroke="#191970" points="340.1127,-194.2482 348.1824,-187.3831 337.5929,-187.7174 340.1127,-194.2482"/>
</g>
<!-- Node5&#45;&gt;Node18 -->
<g id="edge31" class="edge">
<title>Node5&#45;&gt;Node18</title>
<path fill="none" stroke="#191970" d="M385.398,-285.6331C428.5009,-276.424 484.8661,-261.4978 500,-244 524.785,-215.3435 524.4026,-168.101 521.7906,-141.5976"/>
<polygon fill="#191970" stroke="#191970" points="525.2607,-141.1387 520.6015,-131.6233 518.3099,-141.9674 525.2607,-141.1387"/>
</g>
<!-- Node25 -->
<g id="node26" class="node">
<title>Node25</title>
<polygon fill="#ffffff" stroke="#bfbfbf" points="305,-224.5 305,-243.5 361,-243.5 361,-224.5 305,-224.5"/>
<text text-anchor="middle" x="333" y="-231.5" font-family="Helvetica,sans-Serif" font-size="10.00" fill="#000000">Rtypes.h</text>
</g>
<!-- Node5&#45;&gt;Node25 -->
<g id="edge33" class="edge">
<title>Node5&#45;&gt;Node25</title>
<path fill="none" stroke="#191970" d="M333,-280.2977C333,-272.3834 333,-262.6043 333,-254.0759"/>
<polygon fill="#191970" stroke="#191970" points="336.5001,-253.8469 333,-243.8469 329.5001,-253.847 336.5001,-253.8469"/>
</g>
<!-- Node12&#45;&gt;Node11 -->
<g id="edge15" class="edge">
<title>Node12&#45;&gt;Node11</title>
<path fill="none" stroke="#191970" d="M193.3852,-224.4238C179.236,-216.6941 161.3804,-204.4058 152,-188 122.895,-137.0973 126.3706,-64.5412 130.2119,-29.8975"/>
<polygon fill="#191970" stroke="#191970" points="133.7206,-30.0439 131.4821,-19.6882 126.7741,-29.1796 133.7206,-30.0439"/>
</g>
<!-- Node13 -->
<g id="node14" class="node">
<title>Node13</title>
<polygon fill="#ffffff" stroke="#bfbfbf" points="283.5,-.5 283.5,-19.5 324.5,-19.5 324.5,-.5 283.5,-.5"/>
<text text-anchor="middle" x="304" y="-7.5" font-family="Helvetica,sans-Serif" font-size="10.00" fill="#000000">string</text>
</g>
<!-- Node12&#45;&gt;Node13 -->
<g id="edge14" class="edge">
<title>Node12&#45;&gt;Node13</title>
<path fill="none" stroke="#191970" d="M249.036,-225.0495C267.9647,-218.2327 289.7147,-206.7327 301,-188 318.8942,-158.2972 275.7486,-171.1084 252,-76 249.8466,-67.3759 248.3489,-64.1044 252,-56 257.5697,-43.6369 268.2863,-33.2563 278.5506,-25.5033"/>
<polygon fill="#191970" stroke="#191970" points="280.7618,-28.2277 286.9433,-19.623 276.7451,-22.4948 280.7618,-28.2277"/>
</g>
<!-- Node14 -->
<g id="node15" class="node">
<title>Node14</title>
<polygon fill="#ffffff" stroke="#bfbfbf" points="161.5,-168.5 161.5,-187.5 208.5,-187.5 208.5,-168.5 161.5,-168.5"/>
<text text-anchor="middle" x="185" y="-175.5" font-family="Helvetica,sans-Serif" font-size="10.00" fill="#000000">TFile.h</text>
</g>
<!-- Node12&#45;&gt;Node14 -->
<g id="edge16" class="edge">
<title>Node12&#45;&gt;Node14</title>
<path fill="none" stroke="#191970" d="M208.9486,-224.2455C204.9981,-216.617 199.3903,-205.7881 194.5942,-196.5267"/>
<polygon fill="#191970" stroke="#191970" points="197.7001,-194.9131 189.9935,-187.6427 191.4841,-198.1321 197.7001,-194.9131"/>
</g>
<!-- Node15 -->
<g id="node16" class="node">
<title>Node15</title>
<polygon fill="#ffffff" stroke="#bfbfbf" points="226.5,-168.5 226.5,-187.5 291.5,-187.5 291.5,-168.5 226.5,-168.5"/>
<text text-anchor="middle" x="259" y="-175.5" font-family="Helvetica,sans-Serif" font-size="10.00" fill="#000000">TSystem.h</text>
</g>
<!-- Node12&#45;&gt;Node15 -->
<g id="edge17" class="edge">
<title>Node12&#45;&gt;Node15</title>
<path fill="none" stroke="#191970" d="M221.8384,-224.2455C228.162,-216.3761 237.2224,-205.101 244.8136,-195.6542"/>
<polygon fill="#191970" stroke="#191970" points="247.7158,-197.6302 251.2514,-187.6427 242.2592,-193.2454 247.7158,-197.6302"/>
</g>
<!-- Node12&#45;&gt;Node16 -->
<g id="edge18" class="edge">
<title>Node12&#45;&gt;Node16</title>
<path fill="none" stroke="#191970" d="M243.9117,-224.3733C272.8452,-215.0613 316.8611,-200.8953 348.6293,-190.671"/>
<polygon fill="#191970" stroke="#191970" points="350.0318,-193.8965 358.4787,-187.5011 347.8872,-187.2331 350.0318,-193.8965"/>
</g>
<!-- Node17 -->
<g id="node18" class="node">
<title>Node17</title>
<polygon fill="#ffffff" stroke="#bfbfbf" points="360,-112.5 360,-131.5 416,-131.5 416,-112.5 360,-112.5"/>
<text text-anchor="middle" x="388" y="-119.5" font-family="Helvetica,sans-Serif" font-size="10.00" fill="#000000">TClass.h</text>
</g>
<!-- Node16&#45;&gt;Node17 -->
<g id="edge19" class="edge">
<title>Node16&#45;&gt;Node17</title>
<path fill="none" stroke="#191970" d="M388,-168.2455C388,-160.9382 388,-150.6944 388,-141.7046"/>
<polygon fill="#191970" stroke="#191970" points="391.5001,-141.6426 388,-131.6427 384.5001,-141.6427 391.5001,-141.6426"/>
</g>
<!-- Node16&#45;&gt;Node18 -->
<g id="edge20" class="edge">
<title>Node16&#45;&gt;Node18</title>
<path fill="none" stroke="#191970" d="M410.5197,-168.3733C431.7372,-159.3032 463.7276,-145.6279 487.4769,-135.4755"/>
<polygon fill="#191970" stroke="#191970" points="488.9548,-138.6502 496.7742,-131.5011 486.2033,-132.2136 488.9548,-138.6502"/>
</g>
<!-- Node18&#45;&gt;Node13 -->
<g id="edge26" class="edge">
<title>Node18&#45;&gt;Node13</title>
<path fill="none" stroke="#191970" d="M530.1364,-112.2077C544.357,-98.5318 565.4864,-73.4334 551,-56 523.7812,-23.2441 394.3688,-13.6949 334.5057,-11.0077"/>
<polygon fill="#191970" stroke="#191970" points="334.6483,-7.5107 324.5122,-10.5943 334.359,-14.5047 334.6483,-7.5107"/>
</g>
<!-- Node19 -->
<g id="node20" class="node">
<title>Node19</title>
<polygon fill="#ffffff" stroke="#bfbfbf" points="365,-56.5 365,-75.5 417,-75.5 417,-56.5 365,-56.5"/>
<text text-anchor="middle" x="391" y="-63.5" font-family="Helvetica,sans-Serif" font-size="10.00" fill="#000000">TError.h</text>
</g>
<!-- Node18&#45;&gt;Node19 -->
<g id="edge21" class="edge">
<title>Node18&#45;&gt;Node19</title>
<path fill="none" stroke="#191970" d="M496.996,-112.3733C476.3565,-103.3435 445.2842,-89.7494 422.1111,-79.6111"/>
<polygon fill="#191970" stroke="#191970" points="423.2813,-76.3028 412.7169,-75.5011 420.4755,-82.7159 423.2813,-76.3028"/>
</g>
<!-- Node20 -->
<g id="node21" class="node">
<title>Node20</title>
<polygon fill="#ffffff" stroke="#bfbfbf" points="435.5,-56.5 435.5,-75.5 478.5,-75.5 478.5,-56.5 435.5,-56.5"/>
<text text-anchor="middle" x="457" y="-63.5" font-family="Helvetica,sans-Serif" font-size="10.00" fill="#000000">cstdio</text>
</g>
<!-- Node18&#45;&gt;Node20 -->
<g id="edge22" class="edge">
<title>Node18&#45;&gt;Node20</title>
<path fill="none" stroke="#191970" d="M508.2004,-112.2455C499.1322,-104.0549 485.9794,-92.1749 475.2755,-82.5069"/>
<polygon fill="#191970" stroke="#191970" points="477.4429,-79.7482 467.6758,-75.6427 472.7509,-84.9429 477.4429,-79.7482"/>
</g>
<!-- Node21 -->
<g id="node22" class="node">
<title>Node21</title>
<polygon fill="#ffffff" stroke="#bfbfbf" points="496.5,-56.5 496.5,-75.5 541.5,-75.5 541.5,-56.5 496.5,-56.5"/>
<text text-anchor="middle" x="519" y="-63.5" font-family="Helvetica,sans-Serif" font-size="10.00" fill="#000000">cstdlib</text>
</g>
<!-- Node18&#45;&gt;Node21 -->
<g id="edge23" class="edge">
<title>Node18&#45;&gt;Node21</title>
<path fill="none" stroke="#191970" d="M519,-112.2455C519,-104.9382 519,-94.6944 519,-85.7046"/>
<polygon fill="#191970" stroke="#191970" points="522.5001,-85.6426 519,-75.6427 515.5001,-85.6427 522.5001,-85.6426"/>
</g>
<!-- Node22 -->
<g id="node23" class="node">
<title>Node22</title>
<polygon fill="#ffffff" stroke="#bfbfbf" points="598.5,-56.5 598.5,-75.5 657.5,-75.5 657.5,-56.5 598.5,-56.5"/>
<text text-anchor="middle" x="628" y="-63.5" font-family="Helvetica,sans-Serif" font-size="10.00" fill="#000000">functional</text>
</g>
<!-- Node18&#45;&gt;Node22 -->
<g id="edge24" class="edge">
<title>Node18&#45;&gt;Node22</title>
<path fill="none" stroke="#191970" d="M537.9864,-112.2455C555.1792,-103.4125 580.7238,-90.2887 600.2132,-80.2758"/>
<polygon fill="#191970" stroke="#191970" points="601.9359,-83.3257 609.2312,-75.6427 598.737,-77.0993 601.9359,-83.3257"/>
</g>
<!-- Node23 -->
<g id="node24" class="node">
<title>Node23</title>
<polygon fill="#ffffff" stroke="#bfbfbf" points="676,-56.5 676,-75.5 730,-75.5 730,-56.5 676,-56.5"/>
<text text-anchor="middle" x="703" y="-63.5" font-family="Helvetica,sans-Serif" font-size="10.00" fill="#000000">iostream</text>
</g>
<!-- Node18&#45;&gt;Node23 -->
<g id="edge25" class="edge">
<title>Node18&#45;&gt;Node23</title>
<path fill="none" stroke="#191970" d="M550.6307,-112.3733C582.6632,-102.6242 632.1773,-87.5547 666.0084,-77.2583"/>
<polygon fill="#191970" stroke="#191970" points="667.4199,-80.4873 675.9676,-74.2273 665.3817,-73.7906 667.4199,-80.4873"/>
</g>
<!-- Node24 -->
<g id="node25" class="node">
<title>Node24</title>
<g id="a_node25"><a xlink:href="string_8h.html" target="_top" xlink:title="core/util/string.h">
<polygon fill="#ffffff" stroke="#000000" points="261,-56.5 261,-75.5 347,-75.5 347,-56.5 261,-56.5"/>
<text text-anchor="middle" x="304" y="-63.5" font-family="Helvetica,sans-Serif" font-size="10.00" fill="#000000">core/util/string.h</text>
</a>
</g>
</g>
<!-- Node18&#45;&gt;Node24 -->
<g id="edge27" class="edge">
<title>Node18&#45;&gt;Node24</title>
<path fill="none" stroke="#191970" d="M482.0402,-112.3733C445.5925,-102.8799 389.7754,-88.3415 350.3711,-78.0781"/>
<polygon fill="#191970" stroke="#191970" points="351.0369,-74.6348 340.4775,-75.5011 349.2724,-81.4087 351.0369,-74.6348"/>
</g>
<!-- Node24&#45;&gt;Node9 -->
<g id="edge28" class="edge">
<title>Node24&#45;&gt;Node9</title>
<path fill="none" stroke="#191970" d="M347.0593,-56.6899C397.3415,-45.8181 479.6215,-28.0278 526.7688,-17.8338"/>
<polygon fill="#191970" stroke="#191970" points="527.7997,-21.1918 536.8342,-15.6575 526.3203,-14.3499 527.7997,-21.1918"/>
</g>
<!-- Node24&#45;&gt;Node11 -->
<g id="edge30" class="edge">
<title>Node24&#45;&gt;Node11</title>
<path fill="none" stroke="#191970" d="M274.6041,-56.3733C244.0152,-46.3559 196.2732,-30.721 164.8152,-20.419"/>
<polygon fill="#191970" stroke="#191970" points="165.8089,-17.0616 155.2162,-17.2755 163.6303,-23.7139 165.8089,-17.0616"/>
</g>
<!-- Node24&#45;&gt;Node13 -->
<g id="edge29" class="edge">
<title>Node24&#45;&gt;Node13</title>
<path fill="none" stroke="#191970" d="M304,-56.2455C304,-48.9382 304,-38.6944 304,-29.7046"/>
<polygon fill="#191970" stroke="#191970" points="307.5001,-29.6426 304,-19.6427 300.5001,-29.6427 307.5001,-29.6426"/>
</g>
</g>
</svg>
