<?xml version="1.0" encoding="UTF-8" standalone="no"?>
<!DOCTYPE svg PUBLIC "-//W3C//DTD SVG 1.1//EN"
 "http://www.w3.org/Graphics/SVG/1.1/DTD/svg11.dtd">
<!-- Generated by graphviz version 2.40.1 (20161225.0304)
 -->
<!-- Title: bdm::ReductionOp&lt; T &gt; Pages: 1 -->
<svg width="524pt" height="127pt"
 viewBox="0.00 0.00 524.00 126.50" xmlns="http://www.w3.org/2000/svg" xmlns:xlink="http://www.w3.org/1999/xlink">
<g id="graph0" class="graph" transform="scale(1 1) rotate(0) translate(4 122.5)">
<title>bdm::ReductionOp&lt; T &gt;</title>
<polygon fill="#ffffff" stroke="transparent" points="-4,4 -4,-122.5 520,-122.5 520,4 -4,4"/>
<!-- Node3 -->
<g id="node1" class="node">
<title>Node3</title>
<polygon fill="#bfbfbf" stroke="#000000" points="394,-55 394,-74 516,-74 516,-55 394,-55"/>
<text text-anchor="middle" x="455" y="-62" font-family="Helvetica,sans-Serif" font-size="10.00" fill="#000000">bdm::ReductionOp&lt; T &gt;</text>
</g>
<!-- Node4 -->
<g id="node2" class="node">
<title>Node4</title>
<g id="a_node2"><a xlink:href="structbdm_1_1AgentOperationImpl.html" target="_top" xlink:title="Interface for implementing an operation. ">
<polygon fill="#ffffff" stroke="#000000" points="148,-99 148,-118 276,-118 276,-99 148,-99"/>
<text text-anchor="middle" x="212" y="-106" font-family="Helvetica,sans-Serif" font-size="10.00" fill="#000000">bdm::AgentOperationImpl</text>
</a>
</g>
</g>
<!-- Node4&#45;&gt;Node3 -->
<g id="edge1" class="edge">
<title>Node4&#45;&gt;Node3</title>
<path fill="none" stroke="#191970" d="M277.0384,-97.1937C307.1621,-91.9071 343.4219,-85.473 376,-79.5 385.4747,-77.7629 395.5811,-75.8725 405.2903,-74.0376"/>
<polygon fill="#191970" stroke="#191970" points="276.3177,-93.7666 267.0719,-98.9402 277.526,-100.6615 276.3177,-93.7666"/>
</g>
<!-- Node5 -->
<g id="node3" class="node">
<title>Node5</title>
<g id="a_node3"><a xlink:href="structbdm_1_1OperationImpl.html" target="_top" xlink:title="bdm::OperationImpl">
<polygon fill="#ffffff" stroke="#000000" points="0,-99 0,-118 102,-118 102,-99 0,-99"/>
<text text-anchor="middle" x="51" y="-106" font-family="Helvetica,sans-Serif" font-size="10.00" fill="#000000">bdm::OperationImpl</text>
</a>
</g>
</g>
<!-- Node5&#45;&gt;Node4 -->
<g id="edge2" class="edge">
<title>Node5&#45;&gt;Node4</title>
<path fill="none" stroke="#191970" d="M112.4009,-108.5C123.9934,-108.5 136.1467,-108.5 147.8218,-108.5"/>
<polygon fill="#191970" stroke="#191970" points="112.3841,-105.0001 102.3841,-108.5 112.384,-112.0001 112.3841,-105.0001"/>
</g>
<!-- Node6 -->
<g id="node4" class="node">
<title>Node6</title>
<g id="a_node4"><a xlink:href="classbdm_1_1Functor.html" target="_top" xlink:title="bdm::Functor\&lt; T, const\l ThreadLocalResults\&lt; T \&gt; &amp;\&gt;">
<polygon fill="#ffffff" stroke="#000000" points="139,-49.5 139,-79.5 285,-79.5 285,-49.5 139,-49.5"/>
<text text-anchor="start" x="147" y="-67.5" font-family="Helvetica,sans-Serif" font-size="10.00" fill="#000000">bdm::Functor&lt; T, const</text>
<text text-anchor="middle" x="212" y="-56.5" font-family="Helvetica,sans-Serif" font-size="10.00" fill="#000000"> ThreadLocalResults&lt; T &gt; &amp;&gt;</text>
</a>
</g>
</g>
<!-- Node6&#45;&gt;Node3 -->
<g id="edge3" class="edge">
<title>Node6&#45;&gt;Node3</title>
<path fill="none" stroke="#9a32cd" stroke-dasharray="5,2" d="M295.5567,-64.5C327.8094,-64.5 364.0273,-64.5 393.7838,-64.5"/>
<polygon fill="#9a32cd" stroke="#9a32cd" points="295.2376,-61.0001 285.2375,-64.5 295.2375,-68.0001 295.2376,-61.0001"/>
<text text-anchor="middle" x="339.5" y="-67.5" font-family="Helvetica,sans-Serif" font-size="10.00" fill="#000000"> reduce_functor_</text>
</g>
<!-- Node7 -->
<g id="node5" class="node">
<title>Node7</title>
<g id="a_node5"><a xlink:href="classbdm_1_1Functor.html" target="_top" xlink:title="bdm::Functor\&lt; void,\l bdm::Agent *, T *\&gt;">
<polygon fill="#ffffff" stroke="#000000" points="160,-.5 160,-30.5 264,-30.5 264,-.5 160,-.5"/>
<text text-anchor="start" x="168" y="-18.5" font-family="Helvetica,sans-Serif" font-size="10.00" fill="#000000">bdm::Functor&lt; void,</text>
<text text-anchor="middle" x="212" y="-7.5" font-family="Helvetica,sans-Serif" font-size="10.00" fill="#000000"> bdm::Agent *, T *&gt;</text>
</a>
</g>
</g>
<!-- Node7&#45;&gt;Node3 -->
<g id="edge4" class="edge">
<title>Node7&#45;&gt;Node3</title>
<path fill="none" stroke="#9a32cd" stroke-dasharray="5,2" d="M274.1305,-28.0284C315.6355,-36.3977 369.3958,-47.2383 407.4878,-54.9194"/>
<polygon fill="#9a32cd" stroke="#9a32cd" points="274.6242,-24.5575 264.1296,-26.0117 273.2404,-31.4194 274.6242,-24.5575"/>
<text text-anchor="middle" x="339.5" y="-50.5" font-family="Helvetica,sans-Serif" font-size="10.00" fill="#000000"> agent_functor_</text>
</g>
</g>
</svg>
