<?xml version="1.0" encoding="UTF-8" standalone="no"?>
<!DOCTYPE svg PUBLIC "-//W3C//DTD SVG 1.1//EN"
 "http://www.w3.org/Graphics/SVG/1.1/DTD/svg11.dtd">
<!-- Generated by graphviz version 2.36.0 (20140111.2315)
 -->
<!-- Title: bdm::Log::Info Pages: 1 -->
<svg width="418pt" height="322pt"
 viewBox="0.00 0.00 418.00 322.00" xmlns="http://www.w3.org/2000/svg" xmlns:xlink="http://www.w3.org/1999/xlink">
<g id="graph0" class="graph" transform="scale(1 1) rotate(0) translate(4 318)">
<title>bdm::Log::Info</title>
<polygon fill="white" stroke="none" points="-4,4 -4,-318 414,-318 414,4 -4,4"/>
<!-- Node1 -->
<g id="node1" class="node"><title>Node1</title>
<polygon fill="#bfbfbf" stroke="black" points="0,-152.5 0,-171.5 80,-171.5 80,-152.5 0,-152.5"/>
<text text-anchor="middle" x="40" y="-159.5" font-family="Helvetica,sans-Serif" font-size="10.00">bdm::Log::Info</text>
</g>
<!-- Node2 -->
<g id="node2" class="node"><title>Node2</title>
<g id="a_node2"><a xlink:href="classbdm_1_1DiffusionOp.html#a0dc8c5ff29d147ba0510099ff604494e" target="_top" xlink:title="bdm::DiffusionOp::operator()">
<polygon fill="white" stroke="black" points="116,-294.5 116,-313.5 256,-313.5 256,-294.5 116,-294.5"/>
<text text-anchor="middle" x="186" y="-301.5" font-family="Helvetica,sans-Serif" font-size="10.00">bdm::DiffusionOp::operator()</text>
</a>
</g>
</g>
<!-- Node1&#45;&gt;Node2 -->
<g id="edge1" class="edge"><title>Node1&#45;&gt;Node2</title>
<path fill="none" stroke="midnightblue" d="M47.6278,-181.059C57.9799,-208.018 80.5523,-257.004 116,-284 121.755,-288.383 128.444,-291.806 135.349,-294.48"/>
<polygon fill="midnightblue" stroke="midnightblue" points="50.8832,-179.77 44.1497,-171.59 44.3125,-182.184 50.8832,-179.77"/>
</g>
<!-- Node3 -->
<g id="node3" class="node"><title>Node3</title>
<g id="a_node3"><a xlink:href="classbdm_1_1DisplacementOpCuda.html#adf5b64f081338cbdf410a87789d51aca" target="_top" xlink:title="bdm::DisplacementOpCuda\l::operator()">
<polygon fill="white" stroke="black" points="117.5,-245 117.5,-275 254.5,-275 254.5,-245 117.5,-245"/>
<text text-anchor="start" x="125.5" y="-263" font-family="Helvetica,sans-Serif" font-size="10.00">bdm::DisplacementOpCuda</text>
<text text-anchor="middle" x="186" y="-252" font-family="Helvetica,sans-Serif" font-size="10.00">::operator()</text>
</a>
</g>
</g>
<!-- Node1&#45;&gt;Node3 -->
<g id="edge2" class="edge"><title>Node1&#45;&gt;Node3</title>
<path fill="none" stroke="midnightblue" d="M55.2117,-179.61C69.185,-195.924 91.8742,-219.883 116,-235 121.938,-238.721 128.51,-241.997 135.168,-244.847"/>
<polygon fill="midnightblue" stroke="midnightblue" points="57.8358,-177.291 48.7376,-171.862 52.4644,-181.78 57.8358,-177.291"/>
</g>
<!-- Node4 -->
<g id="node4" class="node"><title>Node4</title>
<g id="a_node4"><a xlink:href="classbdm_1_1NeuroMLExporter.html#ae9491ceb2dd9c4867171dff56370d3d2" target="_top" xlink:title="bdm::NeuroMLExporter\l::ExportIteration">
<polygon fill="white" stroke="black" points="127,-196 127,-226 245,-226 245,-196 127,-196"/>
<text text-anchor="start" x="135" y="-214" font-family="Helvetica,sans-Serif" font-size="10.00">bdm::NeuroMLExporter</text>
<text text-anchor="middle" x="186" y="-203" font-family="Helvetica,sans-Serif" font-size="10.00">::ExportIteration</text>
</a>
</g>
</g>
<!-- Node1&#45;&gt;Node4 -->
<g id="edge3" class="edge"><title>Node1&#45;&gt;Node4</title>
<path fill="none" stroke="midnightblue" d="M78.6438,-174.809C97.6882,-181.29 120.921,-189.195 140.81,-195.963"/>
<polygon fill="midnightblue" stroke="midnightblue" points="79.7009,-171.472 69.1065,-171.564 77.4459,-178.099 79.7009,-171.472"/>
</g>
<!-- Node5 -->
<g id="node5" class="node"><title>Node5</title>
<g id="a_node5"><a xlink:href="classbdm_1_1Grid.html#a500265b6b972509498a2d00a3c766650" target="_top" xlink:title="bdm::Grid\&lt; bdm::Simulation\l \&gt;::CheckGridGrowth">
<polygon fill="white" stroke="black" points="116.5,-147 116.5,-177 255.5,-177 255.5,-147 116.5,-147"/>
<text text-anchor="start" x="124.5" y="-165" font-family="Helvetica,sans-Serif" font-size="10.00">bdm::Grid&lt; bdm::Simulation</text>
<text text-anchor="middle" x="186" y="-154" font-family="Helvetica,sans-Serif" font-size="10.00"> &gt;::CheckGridGrowth</text>
</a>
</g>
</g>
<!-- Node1&#45;&gt;Node5 -->
<g id="edge4" class="edge"><title>Node1&#45;&gt;Node5</title>
<path fill="none" stroke="midnightblue" d="M90.5995,-162C98.9092,-162 107.661,-162 116.348,-162"/>
<polygon fill="midnightblue" stroke="midnightblue" points="90.3487,-158.5 80.3486,-162 90.3486,-165.5 90.3487,-158.5"/>
</g>
<!-- Node6 -->
<g id="node6" class="node"><title>Node6</title>
<g id="a_node6"><a xlink:href="classbdm_1_1RuntimeVariables.html#ab695c02a536ff0854ad0f7d64f21236c" target="_top" xlink:title="bdm::RuntimeVariables\l::PrintSystemInfo">
<polygon fill="white" stroke="black" points="126.5,-98 126.5,-128 245.5,-128 245.5,-98 126.5,-98"/>
<text text-anchor="start" x="134.5" y="-116" font-family="Helvetica,sans-Serif" font-size="10.00">bdm::RuntimeVariables</text>
<text text-anchor="middle" x="186" y="-105" font-family="Helvetica,sans-Serif" font-size="10.00">::PrintSystemInfo</text>
</a>
</g>
</g>
<!-- Node1&#45;&gt;Node6 -->
<g id="edge5" class="edge"><title>Node1&#45;&gt;Node6</title>
<path fill="none" stroke="midnightblue" d="M78.6438,-149.191C97.6882,-142.71 120.921,-134.805 140.81,-128.037"/>
<polygon fill="midnightblue" stroke="midnightblue" points="77.4459,-145.901 69.1065,-152.436 79.7009,-152.528 77.4459,-145.901"/>
</g>
<!-- Node7 -->
<g id="node7" class="node"><title>Node7</title>
<g id="a_node7"><a xlink:href="classbdm_1_1SimulationBackup.html#a56d0d4add04539f4612073a52bb4fc22" target="_top" xlink:title="bdm::SimulationBackup\l::Restore">
<polygon fill="white" stroke="black" points="126,-49 126,-79 246,-79 246,-49 126,-49"/>
<text text-anchor="start" x="134" y="-67" font-family="Helvetica,sans-Serif" font-size="10.00">bdm::SimulationBackup</text>
<text text-anchor="middle" x="186" y="-56" font-family="Helvetica,sans-Serif" font-size="10.00">::Restore</text>
</a>
</g>
</g>
<!-- Node1&#45;&gt;Node7 -->
<g id="edge6" class="edge"><title>Node1&#45;&gt;Node7</title>
<path fill="none" stroke="midnightblue" d="M55.2117,-144.39C69.185,-128.076 91.8742,-104.117 116,-89 121.938,-85.2791 128.51,-82.0031 135.168,-79.1526"/>
<polygon fill="midnightblue" stroke="midnightblue" points="52.4644,-142.22 48.7376,-152.138 57.8358,-146.709 52.4644,-142.22"/>
</g>
<!-- Node9 -->
<g id="node9" class="node"><title>Node9</title>
<g id="a_node9"><a xlink:href="structbdm_1_1Simulation.html#acd4b79bd8f9382387e42c56bf655a8d7" target="_top" xlink:title="bdm::Simulation::Initialize\lRuntimeParams">
<polygon fill="white" stroke="black" points="121.5,-0 121.5,-30 250.5,-30 250.5,-0 121.5,-0"/>
<text text-anchor="start" x="129.5" y="-18" font-family="Helvetica,sans-Serif" font-size="10.00">bdm::Simulation::Initialize</text>
<text text-anchor="middle" x="186" y="-7" font-family="Helvetica,sans-Serif" font-size="10.00">RuntimeParams</text>
</a>
</g>
</g>
<!-- Node1&#45;&gt;Node9 -->
<g id="edge8" class="edge"><title>Node1&#45;&gt;Node9</title>
<path fill="none" stroke="midnightblue" d="M48.0297,-142.856C58.7477,-116.192 81.6252,-68.003 116,-40 120.742,-36.1373 126.131,-32.8443 131.758,-30.043"/>
<polygon fill="midnightblue" stroke="midnightblue" points="44.7438,-141.65 44.4059,-152.239 51.2737,-144.172 44.7438,-141.65"/>
</g>
<!-- Node8 -->
<g id="node8" class="node"><title>Node8</title>
<g id="a_node8"><a xlink:href="classbdm_1_1Scheduler.html#acefcf34d84bb7ebfff4478285e58c6a2" target="_top" xlink:title="bdm::Scheduler\&lt; bdm\l::Simulation \&gt;::Restore">
<polygon fill="white" stroke="black" points="292,-49 292,-79 410,-79 410,-49 292,-49"/>
<text text-anchor="start" x="300" y="-67" font-family="Helvetica,sans-Serif" font-size="10.00">bdm::Scheduler&lt; bdm</text>
<text text-anchor="middle" x="351" y="-56" font-family="Helvetica,sans-Serif" font-size="10.00">::Simulation &gt;::Restore</text>
</a>
</g>
</g>
<!-- Node7&#45;&gt;Node8 -->
<g id="edge7" class="edge"><title>Node7&#45;&gt;Node8</title>
<path fill="none" stroke="midnightblue" d="M256.531,-64C268.292,-64 280.394,-64 291.827,-64"/>
<polygon fill="midnightblue" stroke="midnightblue" points="256.308,-60.5001 246.308,-64 256.308,-67.5001 256.308,-60.5001"/>
</g>
</g>
</svg>
