<?xml version="1.0" encoding="UTF-8" standalone="no"?>
<!DOCTYPE svg PUBLIC "-//W3C//DTD SVG 1.1//EN"
 "http://www.w3.org/Graphics/SVG/1.1/DTD/svg11.dtd">
<!-- Generated by graphviz version 2.38.0 (20140413.2041)
 -->
<!-- Title: bdm::Cell::Divide Pages: 1 -->
<svg width="508pt" height="193pt"
 viewBox="0.00 0.00 508.00 192.99" xmlns="http://www.w3.org/2000/svg" xmlns:xlink="http://www.w3.org/1999/xlink">
<g id="graph0" class="graph" transform="scale(1 1) rotate(0) translate(4 188.99)">
<title>bdm::Cell::Divide</title>
<polygon fill="white" stroke="none" points="-4,4 -4,-188.99 504,-188.99 504,4 -4,4"/>
<!-- Node1 -->
<g id="node1" class="node"><title>Node1</title>
<polygon fill="#bfbfbf" stroke="black" points="0,-64.4896 0,-83.4896 97,-83.4896 97,-64.4896 0,-64.4896"/>
<text text-anchor="middle" x="48.5" y="-71.4896" font-family="Helvetica,sans-Serif" font-size="10.00">bdm::Cell::Divide</text>
</g>
<!-- Node2 -->
<g id="node2" class="node"><title>Node2</title>
<g id="a_node2"><a xlink:href="classbdm_1_1Simulation.html#a67bdfef8ac06a741e287d73d2d941c63" target="_top" xlink:title="This function returns the currently active Simulation simulation. ">
<polygon fill="white" stroke="black" points="347,-76.4896 347,-95.4896 495,-95.4896 495,-76.4896 347,-76.4896"/>
<text text-anchor="middle" x="421" y="-83.4896" font-family="Helvetica,sans-Serif" font-size="10.00">bdm::Simulation::GetActive</text>
</a>
</g>
</g>
<!-- Node1&#45;&gt;Node2 -->
<g id="edge1" class="edge"><title>Node1&#45;&gt;Node2</title>
<path fill="none" stroke="midnightblue" d="M83.3306,-83.4972C98.4021,-87.2617 116.453,-91.1308 133,-92.9896 201.334,-100.666 279.372,-98.0353 336.806,-93.9774"/>
<polygon fill="midnightblue" stroke="midnightblue" points="337.206,-97.4575 346.922,-93.2329 336.692,-90.4764 337.206,-97.4575"/>
</g>
<!-- Node3 -->
<g id="node3" class="node"><title>Node3</title>
<g id="a_node3"><a xlink:href="classbdm_1_1Simulation.html#a21d53321d1a164024667acac9f35479d" target="_top" xlink:title="Returns a thread local random number generator. ">
<polygon fill="white" stroke="black" points="342,-7.48964 342,-26.4896 500,-26.4896 500,-7.48964 342,-7.48964"/>
<text text-anchor="middle" x="421" y="-14.4896" font-family="Helvetica,sans-Serif" font-size="10.00">bdm::Simulation::GetRandom</text>
</a>
</g>
</g>
<!-- Node1&#45;&gt;Node3 -->
<g id="edge2" class="edge"><title>Node1&#45;&gt;Node3</title>
<path fill="none" stroke="midnightblue" d="M59.2265,-64.366C73.795,-50.704 102.813,-26.3108 133,-16.9896 206.245,5.62677 295.11,1.05938 354.365,-6.18662"/>
<polygon fill="midnightblue" stroke="midnightblue" points="353.979,-9.6657 364.343,-7.46634 354.87,-2.72257 353.979,-9.6657"/>
</g>
<!-- Node4 -->
<g id="node4" class="node"><title>Node4</title>
<g id="a_node4"><a xlink:href="classbdm_1_1Cell.html#aa459fb794f36e3ad1b9f50c9ab74cc03" target="_top" xlink:title="bdm::Cell::TransformCoordinates\lGlobalToPolar">
<polygon fill="white" stroke="black" points="133,-140.99 133,-170.99 306,-170.99 306,-140.99 133,-140.99"/>
<text text-anchor="start" x="141" y="-158.99" font-family="Helvetica,sans-Serif" font-size="10.00">bdm::Cell::TransformCoordinates</text>
<text text-anchor="middle" x="219.5" y="-147.99" font-family="Helvetica,sans-Serif" font-size="10.00">GlobalToPolar</text>
</a>
</g>
</g>
<!-- Node1&#45;&gt;Node4 -->
<g id="edge3" class="edge"><title>Node1&#45;&gt;Node4</title>
<path fill="none" stroke="midnightblue" d="M62.86,-83.6001C78.9227,-94.8442 106.977,-113.508 133,-125.99 141.632,-130.13 150.992,-133.997 160.246,-137.487"/>
<polygon fill="midnightblue" stroke="midnightblue" points="159.223,-140.839 169.817,-140.983 161.625,-134.264 159.223,-140.839"/>
</g>
<!-- Node7 -->
<g id="node7" class="node"><title>Node7</title>
<g id="a_node7"><a xlink:href="structbdm_1_1Math.html#a6e410e3dc82bab5dd53e0157df3587b2" target="_top" xlink:title="bdm::Math::Add">
<polygon fill="white" stroke="black" points="173,-26.4896 173,-45.4896 266,-45.4896 266,-26.4896 173,-26.4896"/>
<text text-anchor="middle" x="219.5" y="-33.4896" font-family="Helvetica,sans-Serif" font-size="10.00">bdm::Math::Add</text>
</a>
</g>
</g>
<!-- Node1&#45;&gt;Node7 -->
<g id="edge6" class="edge"><title>Node1&#45;&gt;Node7</title>
<path fill="none" stroke="midnightblue" d="M91.1136,-64.4771C104.486,-61.432 119.365,-58.0558 133,-54.9896 143.455,-52.6384 154.634,-50.1417 165.345,-47.7579"/>
<polygon fill="midnightblue" stroke="midnightblue" points="166.431,-51.1022 175.433,-45.5154 164.912,-44.269 166.431,-51.1022"/>
</g>
<!-- Node8 -->
<g id="node8" class="node"><title>Node8</title>
<g id="a_node8"><a xlink:href="classbdm_1_1Cell.html#ac8034f95d3da4f3996f85f3e41f74fe0" target="_top" xlink:title="Divide this cell. ">
<polygon fill="white" stroke="black" points="171,-64.4896 171,-83.4896 268,-83.4896 268,-64.4896 171,-64.4896"/>
<text text-anchor="middle" x="219.5" y="-71.4896" font-family="Helvetica,sans-Serif" font-size="10.00">bdm::Cell::Divide</text>
</a>
</g>
</g>
<!-- Node1&#45;&gt;Node8 -->
<g id="edge7" class="edge"><title>Node1&#45;&gt;Node8</title>
<path fill="none" stroke="midnightblue" d="M97.0257,-73.9896C116.736,-73.9896 139.79,-73.9896 160.485,-73.9896"/>
<polygon fill="midnightblue" stroke="midnightblue" points="160.746,-77.4897 170.746,-73.9896 160.745,-70.4897 160.746,-77.4897"/>
</g>
<!-- Node5 -->
<g id="node5" class="node"><title>Node5</title>
<g id="a_node5"><a xlink:href="structbdm_1_1Math.html#a80c38cbb986a66639c5ff0ccfce5674e" target="_top" xlink:title="bdm::Math::Subtract">
<polygon fill="white" stroke="black" points="363,-127.49 363,-146.49 479,-146.49 479,-127.49 363,-127.49"/>
<text text-anchor="middle" x="421" y="-134.49" font-family="Helvetica,sans-Serif" font-size="10.00">bdm::Math::Subtract</text>
</a>
</g>
</g>
<!-- Node4&#45;&gt;Node5 -->
<g id="edge4" class="edge"><title>Node4&#45;&gt;Node5</title>
<path fill="none" stroke="midnightblue" d="M306.264,-147.822C321.795,-146.343 337.787,-144.819 352.695,-143.4"/>
<polygon fill="midnightblue" stroke="midnightblue" points="353.2,-146.867 362.823,-142.435 352.536,-139.899 353.2,-146.867"/>
</g>
<!-- Node6 -->
<g id="node6" class="node"><title>Node6</title>
<g id="a_node6"><a xlink:href="structbdm_1_1Math.html#af3e942d1d0f43968c73c7b8cbba2725d" target="_top" xlink:title="bdm::Math::Dot">
<polygon fill="white" stroke="black" points="375,-165.49 375,-184.49 467,-184.49 467,-165.49 375,-165.49"/>
<text text-anchor="middle" x="421" y="-172.49" font-family="Helvetica,sans-Serif" font-size="10.00">bdm::Math::Dot</text>
</a>
</g>
</g>
<!-- Node4&#45;&gt;Node6 -->
<g id="edge5" class="edge"><title>Node4&#45;&gt;Node6</title>
<path fill="none" stroke="midnightblue" d="M306.264,-164.158C326.131,-166.05 346.754,-168.014 364.895,-169.742"/>
<polygon fill="midnightblue" stroke="midnightblue" points="364.693,-173.238 374.98,-170.702 365.356,-166.27 364.693,-173.238"/>
</g>
<!-- Node8&#45;&gt;Node2 -->
<g id="edge8" class="edge"><title>Node8&#45;&gt;Node2</title>
<path fill="none" stroke="midnightblue" d="M268.032,-76.8487C288.512,-78.0806 313.082,-79.5585 336.436,-80.9633"/>
<polygon fill="midnightblue" stroke="midnightblue" points="336.515,-84.4742 346.707,-81.581 336.935,-77.4869 336.515,-84.4742"/>
</g>
<!-- Node8&#45;&gt;Node3 -->
<g id="edge9" class="edge"><title>Node8&#45;&gt;Node3</title>
<path fill="none" stroke="midnightblue" d="M267.755,-64.4015C280.254,-61.6168 293.691,-58.3992 306,-54.9896 332.501,-47.6492 361.935,-37.7935 384.255,-29.9588"/>
<polygon fill="midnightblue" stroke="midnightblue" points="385.716,-33.1546 393.974,-26.5175 383.379,-26.5561 385.716,-33.1546"/>
</g>
</g>
</svg>
