<?xml version="1.0" encoding="UTF-8" standalone="no"?>
<!DOCTYPE svg PUBLIC "-//W3C//DTD SVG 1.1//EN"
 "http://www.w3.org/Graphics/SVG/1.1/DTD/svg11.dtd">
<!-- Generated by graphviz version 2.38.0 (20140413.2041)
 -->
<!-- Title: bdm::DefaultForce::ForceOnACylinderFromASphere Pages: 1 -->
<svg width="787pt" height="192pt"
 viewBox="0.00 0.00 787.00 192.00" xmlns="http://www.w3.org/2000/svg" xmlns:xlink="http://www.w3.org/1999/xlink">
<g id="graph0" class="graph" transform="scale(1 1) rotate(0) translate(4 188)">
<title>bdm::DefaultForce::ForceOnACylinderFromASphere</title>
<polygon fill="white" stroke="none" points="-4,4 -4,-188 783,-188 783,4 -4,4"/>
<!-- Node1 -->
<g id="node1" class="node"><title>Node1</title>
<polygon fill="#bfbfbf" stroke="black" points="0,-83 0,-113 167,-113 167,-83 0,-83"/>
<text text-anchor="start" x="8" y="-101" font-family="Helvetica,sans-Serif" font-size="10.00">bdm::DefaultForce::</text>
<text text-anchor="middle" x="83.5" y="-90" font-family="Helvetica,sans-Serif" font-size="10.00">ForceOnACylinderFromASphere</text>
</g>
<!-- Node2 -->
<g id="node2" class="node"><title>Node2</title>
<g id="a_node2"><a xlink:href="namespacebdm.html#af2d26ce9677cacc590ac483f86b0aa5e" target="_top" xlink:title="bdm::bdm_static_cast">
<polygon fill="white" stroke="black" points="238.5,-164.5 238.5,-183.5 361.5,-183.5 361.5,-164.5 238.5,-164.5"/>
<text text-anchor="middle" x="300" y="-171.5" font-family="Helvetica,sans-Serif" font-size="10.00">bdm::bdm_static_cast</text>
</a>
</g>
</g>
<!-- Node1&#45;&gt;Node2 -->
<g id="edge1" class="edge"><title>Node1&#45;&gt;Node2</title>
<path fill="none" stroke="midnightblue" d="M110.983,-113.143C134.478,-125.986 170.082,-144.023 203,-155 211.256,-157.753 220.051,-160.165 228.84,-162.262"/>
<polygon fill="midnightblue" stroke="midnightblue" points="228.205,-165.707 238.73,-164.498 229.748,-158.879 228.205,-165.707"/>
</g>
<!-- Node5 -->
<g id="node5" class="node"><title>Node5</title>
<g id="a_node5"><a xlink:href="classbdm_1_1SimObject.html#aee76d8d139aff1e56575df09266bcfab" target="_top" xlink:title="bdm::SimObject::GetPosition">
<polygon fill="white" stroke="black" points="222.5,-126.5 222.5,-145.5 377.5,-145.5 377.5,-126.5 222.5,-126.5"/>
<text text-anchor="middle" x="300" y="-133.5" font-family="Helvetica,sans-Serif" font-size="10.00">bdm::SimObject::GetPosition</text>
</a>
</g>
</g>
<!-- Node1&#45;&gt;Node5 -->
<g id="edge4" class="edge"><title>Node1&#45;&gt;Node5</title>
<path fill="none" stroke="midnightblue" d="M167.124,-112.637C189.743,-116.644 213.905,-120.925 235.287,-124.713"/>
<polygon fill="midnightblue" stroke="midnightblue" points="234.762,-128.174 245.22,-126.472 235.984,-121.282 234.762,-128.174"/>
</g>
<!-- Node6 -->
<g id="node6" class="node"><title>Node6</title>
<g id="a_node6"><a xlink:href="classbdm_1_1SimObject.html#a93ab12aa6166d9f07337b799c0056c2a" target="_top" xlink:title="bdm::SimObject::GetDiameter">
<polygon fill="white" stroke="black" points="219,-88.5 219,-107.5 381,-107.5 381,-88.5 219,-88.5"/>
<text text-anchor="middle" x="300" y="-95.5" font-family="Helvetica,sans-Serif" font-size="10.00">bdm::SimObject::GetDiameter</text>
</a>
</g>
</g>
<!-- Node1&#45;&gt;Node6 -->
<g id="edge5" class="edge"><title>Node1&#45;&gt;Node6</title>
<path fill="none" stroke="midnightblue" d="M167.124,-98C180.8,-98 195.04,-98 208.889,-98"/>
<polygon fill="midnightblue" stroke="midnightblue" points="208.89,-101.5 218.89,-98 208.89,-94.5001 208.89,-101.5"/>
</g>
<!-- Node7 -->
<g id="node7" class="node"><title>Node7</title>
<g id="a_node7"><a xlink:href="classbdm_1_1DefaultForce.html#a7609abf8d2c565b8cb50a3593e372c36" target="_top" xlink:title="bdm::DefaultForce::\lComputeForceOfASphereOnASphere">
<polygon fill="white" stroke="black" points="203,-39 203,-69 397,-69 397,-39 203,-39"/>
<text text-anchor="start" x="211" y="-57" font-family="Helvetica,sans-Serif" font-size="10.00">bdm::DefaultForce::</text>
<text text-anchor="middle" x="300" y="-46" font-family="Helvetica,sans-Serif" font-size="10.00">ComputeForceOfASphereOnASphere</text>
</a>
</g>
</g>
<!-- Node1&#45;&gt;Node7 -->
<g id="edge6" class="edge"><title>Node1&#45;&gt;Node7</title>
<path fill="none" stroke="midnightblue" d="M157.719,-82.9808C176.425,-79.1436 196.672,-74.9903 215.838,-71.0589"/>
<polygon fill="midnightblue" stroke="midnightblue" points="216.655,-74.4643 225.747,-69.0262 215.248,-67.6071 216.655,-74.4643"/>
</g>
<!-- Node10 -->
<g id="node10" class="node"><title>Node10</title>
<g id="a_node10"><a xlink:href="structbdm_1_1Math.html#af686ccdb5c4a9b25e6c5177bf8d8c4eb" target="_top" xlink:title="bdm::Math::GetL2Distance">
<polygon fill="white" stroke="black" points="227.5,-0.5 227.5,-19.5 372.5,-19.5 372.5,-0.5 227.5,-0.5"/>
<text text-anchor="middle" x="300" y="-7.5" font-family="Helvetica,sans-Serif" font-size="10.00">bdm::Math::GetL2Distance</text>
</a>
</g>
</g>
<!-- Node1&#45;&gt;Node10 -->
<g id="edge9" class="edge"><title>Node1&#45;&gt;Node10</title>
<path fill="none" stroke="midnightblue" d="M105.683,-82.7291C128.586,-66.9406 166.701,-42.7184 203,-29 210.152,-26.2971 217.756,-23.9574 225.431,-21.9366"/>
<polygon fill="midnightblue" stroke="midnightblue" points="226.289,-25.3302 235.164,-19.5443 224.618,-18.5325 226.289,-25.3302"/>
</g>
<!-- Node3 -->
<g id="node3" class="node"><title>Node3</title>
<g id="a_node3"><a xlink:href="namespacebdm.html#a2fa839a2549004e92e23175955de8ae9" target="_top" xlink:title="Concatenates all arguments into a string. Equivalent to streaming all arguments into a stringstream a...">
<polygon fill="white" stroke="black" points="473,-164.5 473,-183.5 551,-183.5 551,-164.5 473,-164.5"/>
<text text-anchor="middle" x="512" y="-171.5" font-family="Helvetica,sans-Serif" font-size="10.00">bdm::Concat</text>
</a>
</g>
</g>
<!-- Node2&#45;&gt;Node3 -->
<g id="edge2" class="edge"><title>Node2&#45;&gt;Node3</title>
<path fill="none" stroke="midnightblue" d="M361.741,-174C393.815,-174 432.633,-174 462.642,-174"/>
<polygon fill="midnightblue" stroke="midnightblue" points="462.864,-177.5 472.864,-174 462.864,-170.5 462.864,-177.5"/>
</g>
<!-- Node4 -->
<g id="node4" class="node"><title>Node4</title>
<g id="a_node4"><a xlink:href="namespacebdm_1_1detail.html#a16e0361b1aefd0958218781e4e3bbf12" target="_top" xlink:title="Appends the closing string to the message. ">
<polygon fill="white" stroke="black" points="627,-164.5 627,-183.5 779,-183.5 779,-164.5 627,-164.5"/>
<text text-anchor="middle" x="703" y="-171.5" font-family="Helvetica,sans-Serif" font-size="10.00">bdm::detail::ConcatNextPart</text>
</a>
</g>
</g>
<!-- Node3&#45;&gt;Node4 -->
<g id="edge3" class="edge"><title>Node3&#45;&gt;Node4</title>
<path fill="none" stroke="midnightblue" d="M551.247,-174C570.133,-174 593.732,-174 616.611,-174"/>
<polygon fill="midnightblue" stroke="midnightblue" points="616.704,-177.5 626.704,-174 616.704,-170.5 616.704,-177.5"/>
</g>
<!-- Node8 -->
<g id="node8" class="node"><title>Node8</title>
<g id="a_node8"><a xlink:href="classbdm_1_1Simulation.html#a67bdfef8ac06a741e287d73d2d941c63" target="_top" xlink:title="This function returns the currently active Simulation simulation. ">
<polygon fill="white" stroke="black" points="438,-79.5 438,-98.5 586,-98.5 586,-79.5 438,-79.5"/>
<text text-anchor="middle" x="512" y="-86.5" font-family="Helvetica,sans-Serif" font-size="10.00">bdm::Simulation::GetActive</text>
</a>
</g>
</g>
<!-- Node7&#45;&gt;Node8 -->
<g id="edge7" class="edge"><title>Node7&#45;&gt;Node8</title>
<path fill="none" stroke="midnightblue" d="M391.278,-69.0463C408.861,-71.9768 427.006,-75.0011 443.688,-77.7814"/>
<polygon fill="midnightblue" stroke="midnightblue" points="443.429,-81.2863 453.868,-79.478 444.579,-74.3815 443.429,-81.2863"/>
</g>
<!-- Node9 -->
<g id="node9" class="node"><title>Node9</title>
<g id="a_node9"><a xlink:href="classbdm_1_1Simulation.html#a21d53321d1a164024667acac9f35479d" target="_top" xlink:title="Returns a thread local random number generator. ">
<polygon fill="white" stroke="black" points="433,-41.5 433,-60.5 591,-60.5 591,-41.5 433,-41.5"/>
<text text-anchor="middle" x="512" y="-48.5" font-family="Helvetica,sans-Serif" font-size="10.00">bdm::Simulation::GetRandom</text>
</a>
</g>
</g>
<!-- Node7&#45;&gt;Node9 -->
<g id="edge8" class="edge"><title>Node7&#45;&gt;Node9</title>
<path fill="none" stroke="midnightblue" d="M397.089,-52.6273C405.611,-52.5056 414.213,-52.3827 422.666,-52.2619"/>
<polygon fill="midnightblue" stroke="midnightblue" points="422.941,-55.7584 432.889,-52.1159 422.84,-48.7592 422.941,-55.7584"/>
</g>
<!-- Node11 -->
<g id="node11" class="node"><title>Node11</title>
<g id="a_node11"><a xlink:href="classbdm_1_1MathArray.html#aee468e908cbd26284dbf7c21e57753d7" target="_top" xlink:title="bdm::MathArray::Norm">
<polygon fill="white" stroke="black" points="449,-0.5 449,-19.5 575,-19.5 575,-0.5 449,-0.5"/>
<text text-anchor="middle" x="512" y="-7.5" font-family="Helvetica,sans-Serif" font-size="10.00">bdm::MathArray::Norm</text>
</a>
</g>
</g>
<!-- Node10&#45;&gt;Node11 -->
<g id="edge10" class="edge"><title>Node10&#45;&gt;Node11</title>
<path fill="none" stroke="midnightblue" d="M372.683,-10C393.922,-10 417.19,-10 438.481,-10"/>
<polygon fill="midnightblue" stroke="midnightblue" points="438.757,-13.5001 448.757,-10 438.757,-6.5001 438.757,-13.5001"/>
</g>
</g>
</svg>
