<?xml version="1.0" encoding="UTF-8" standalone="no"?>
<!DOCTYPE svg PUBLIC "-//W3C//DTD SVG 1.1//EN"
 "http://www.w3.org/Graphics/SVG/1.1/DTD/svg11.dtd">
<!-- Generated by graphviz version 2.36.0 (20140111.2315)
 -->
<!-- Title: bdm::ParallelResizeVector::swap Pages: 1 -->
<svg width="488pt" height="185pt"
 viewBox="0.00 0.00 488.00 185.00" xmlns="http://www.w3.org/2000/svg" xmlns:xlink="http://www.w3.org/1999/xlink">
<g id="graph0" class="graph" transform="scale(1 1) rotate(0) translate(4 181)">
<title>bdm::ParallelResizeVector::swap</title>
<polygon fill="white" stroke="none" points="-4,4 -4,-181 484,-181 484,4 -4,4"/>
<!-- Node1 -->
<g id="node1" class="node"><title>Node1</title>
<polygon fill="#bfbfbf" stroke="black" points="0.5,-73 0.5,-103 133.5,-103 133.5,-73 0.5,-73"/>
<text text-anchor="start" x="8.5" y="-91" font-family="Helvetica,sans-Serif" font-size="10.00">bdm::ParallelResizeVector</text>
<text text-anchor="middle" x="67" y="-80" font-family="Helvetica,sans-Serif" font-size="10.00">::swap</text>
</g>
<!-- Node2 -->
<g id="node2" class="node"><title>Node2</title>
<g id="a_node2"><a xlink:href="classbdm_1_1DiffusionGrid.html#ad41ba0e6b6f746c8bfdc0f7e56e9b666" target="_top" xlink:title="bdm::DiffusionGrid\l::DiffuseWithLeakingEdge">
<polygon fill="white" stroke="black" points="171.5,-147 171.5,-177 302.5,-177 302.5,-147 171.5,-147"/>
<text text-anchor="start" x="179.5" y="-165" font-family="Helvetica,sans-Serif" font-size="10.00">bdm::DiffusionGrid</text>
<text text-anchor="middle" x="237" y="-154" font-family="Helvetica,sans-Serif" font-size="10.00">::DiffuseWithLeakingEdge</text>
</a>
</g>
</g>
<!-- Node1&#45;&gt;Node2 -->
<g id="edge1" class="edge"><title>Node1&#45;&gt;Node2</title>
<path fill="none" stroke="midnightblue" d="M106.777,-107.594C125.674,-116.893 148.838,-127.929 170,-137 177.883,-140.379 186.39,-143.78 194.59,-146.937"/>
<polygon fill="midnightblue" stroke="midnightblue" points="108.109,-104.348 97.594,-103.046 105.002,-110.621 108.109,-104.348"/>
</g>
<!-- Node3 -->
<g id="node3" class="node"><title>Node3</title>
<g id="a_node3"><a xlink:href="classbdm_1_1DiffusionGrid.html#a63e2d29b39597dedf86053109cbee6e6" target="_top" xlink:title="bdm::DiffusionGrid\l::DiffuseWithClosedEdge">
<polygon fill="white" stroke="black" points="173,-98 173,-128 301,-128 301,-98 173,-98"/>
<text text-anchor="start" x="181" y="-116" font-family="Helvetica,sans-Serif" font-size="10.00">bdm::DiffusionGrid</text>
<text text-anchor="middle" x="237" y="-105" font-family="Helvetica,sans-Serif" font-size="10.00">::DiffuseWithClosedEdge</text>
</a>
</g>
</g>
<!-- Node1&#45;&gt;Node3 -->
<g id="edge2" class="edge"><title>Node1&#45;&gt;Node3</title>
<path fill="none" stroke="midnightblue" d="M143.894,-99.2937C153.54,-100.729 163.329,-102.186 172.747,-103.587"/>
<polygon fill="midnightblue" stroke="midnightblue" points="144.322,-95.819 133.916,-97.8089 143.292,-102.743 144.322,-95.819"/>
</g>
<!-- Node4 -->
<g id="node4" class="node"><title>Node4</title>
<g id="a_node4"><a xlink:href="classbdm_1_1DiffusionGrid.html#ab51c423cea72cee71a7af99b0c1ee770" target="_top" xlink:title="bdm::DiffusionGrid\l::DiffuseEuler">
<polygon fill="white" stroke="black" points="188,-49 188,-79 286,-79 286,-49 188,-49"/>
<text text-anchor="start" x="196" y="-67" font-family="Helvetica,sans-Serif" font-size="10.00">bdm::DiffusionGrid</text>
<text text-anchor="middle" x="237" y="-56" font-family="Helvetica,sans-Serif" font-size="10.00">::DiffuseEuler</text>
</a>
</g>
</g>
<!-- Node1&#45;&gt;Node4 -->
<g id="edge3" class="edge"><title>Node1&#45;&gt;Node4</title>
<path fill="none" stroke="midnightblue" d="M144.15,-77.1214C159.044,-74.9938 174.269,-72.8187 187.932,-70.8669"/>
<polygon fill="midnightblue" stroke="midnightblue" points="143.32,-73.7043 133.916,-78.5834 144.31,-80.634 143.32,-73.7043"/>
</g>
<!-- Node6 -->
<g id="node6" class="node"><title>Node6</title>
<g id="a_node6"><a xlink:href="classbdm_1_1DiffusionGrid.html#a02e069de1edb14a404da425037d63f7e" target="_top" xlink:title="bdm::DiffusionGrid\l::DiffuseEulerLeakingEdge">
<polygon fill="white" stroke="black" points="170.5,-0 170.5,-30 303.5,-30 303.5,-0 170.5,-0"/>
<text text-anchor="start" x="178.5" y="-18" font-family="Helvetica,sans-Serif" font-size="10.00">bdm::DiffusionGrid</text>
<text text-anchor="middle" x="237" y="-7" font-family="Helvetica,sans-Serif" font-size="10.00">::DiffuseEulerLeakingEdge</text>
</a>
</g>
</g>
<!-- Node1&#45;&gt;Node6 -->
<g id="edge5" class="edge"><title>Node1&#45;&gt;Node6</title>
<path fill="none" stroke="midnightblue" d="M107.646,-68.4654C126.398,-59.4529 149.19,-48.8219 170,-40 177.897,-36.6523 186.41,-33.2662 194.611,-30.113"/>
<polygon fill="midnightblue" stroke="midnightblue" points="105.997,-65.3749 98.5174,-72.8782 109.044,-71.6772 105.997,-65.3749"/>
</g>
<!-- Node5 -->
<g id="node5" class="node"><title>Node5</title>
<g id="a_node5"><a xlink:href="classbdm_1_1DiffusionOp.html#a356c9d3cb2b83328275ce3f327c37994" target="_top" xlink:title="bdm::DiffusionOp::operator()">
<polygon fill="white" stroke="black" points="340,-29.5 340,-48.5 480,-48.5 480,-29.5 340,-29.5"/>
<text text-anchor="middle" x="410" y="-36.5" font-family="Helvetica,sans-Serif" font-size="10.00">bdm::DiffusionOp::operator()</text>
</a>
</g>
</g>
<!-- Node4&#45;&gt;Node5 -->
<g id="edge4" class="edge"><title>Node4&#45;&gt;Node5</title>
<path fill="none" stroke="midnightblue" d="M296.405,-55.4613C311.642,-53.2336 328.16,-50.8188 343.728,-48.5427"/>
<polygon fill="midnightblue" stroke="midnightblue" points="295.477,-52.0597 286.088,-56.9696 296.489,-58.9861 295.477,-52.0597"/>
</g>
<!-- Node6&#45;&gt;Node5 -->
<g id="edge6" class="edge"><title>Node6&#45;&gt;Node5</title>
<path fill="none" stroke="midnightblue" d="M313.559,-25.6048C322.791,-26.9005 332.179,-28.2181 341.286,-29.4963"/>
<polygon fill="midnightblue" stroke="midnightblue" points="314.013,-22.1343 303.624,-24.2104 313.04,-29.0664 314.013,-22.1343"/>
</g>
</g>
</svg>
