<?xml version="1.0" encoding="UTF-8" standalone="no"?>
<!DOCTYPE svg PUBLIC "-//W3C//DTD SVG 1.1//EN"
 "http://www.w3.org/Graphics/SVG/1.1/DTD/svg11.dtd">
<!-- Generated by graphviz version 2.36.0 (20140111.2315)
 -->
<!-- Title: bdm::experimental::neuroscience::NeuriteElementExt::UpdateLocalCoordinateAxis Pages: 1 -->
<svg width="768pt" height="199pt"
 viewBox="0.00 0.00 768.00 199.00" xmlns="http://www.w3.org/2000/svg" xmlns:xlink="http://www.w3.org/1999/xlink">
<g id="graph0" class="graph" transform="scale(1 1) rotate(0) translate(4 195)">
<title>bdm::experimental::neuroscience::NeuriteElementExt::UpdateLocalCoordinateAxis</title>
<polygon fill="white" stroke="none" points="-4,4 -4,-195 764,-195 764,4 -4,4"/>
<!-- Node1 -->
<g id="node1" class="node"><title>Node1</title>
<polygon fill="#bfbfbf" stroke="black" points="0.5,-84.5 0.5,-125.5 159.5,-125.5 159.5,-84.5 0.5,-84.5"/>
<text text-anchor="start" x="8.5" y="-113.5" font-family="Helvetica,sans-Serif" font-size="10.00">bdm::experimental::</text>
<text text-anchor="start" x="8.5" y="-102.5" font-family="Helvetica,sans-Serif" font-size="10.00">neuroscience::NeuriteElement</text>
<text text-anchor="middle" x="80" y="-91.5" font-family="Helvetica,sans-Serif" font-size="10.00">Ext::UpdateLocalCoordinateAxis</text>
</g>
<!-- Node2 -->
<g id="node2" class="node"><title>Node2</title>
<g id="a_node2"><a xlink:href="structbdm_1_1Math.html#a06cf62fd723d1775714117f3d42cc0d4" target="_top" xlink:title="bdm::Math::Normalize">
<polygon fill="white" stroke="black" points="508.5,-152.5 508.5,-171.5 621.5,-171.5 621.5,-152.5 508.5,-152.5"/>
<text text-anchor="middle" x="565" y="-159.5" font-family="Helvetica,sans-Serif" font-size="10.00">bdm::Math::Normalize</text>
</a>
</g>
</g>
<!-- Node1&#45;&gt;Node2 -->
<g id="edge1" class="edge"><title>Node1&#45;&gt;Node2</title>
<path fill="none" stroke="midnightblue" d="M159.704,-120.062C208.086,-128.823 271.439,-139.404 328,-146 385.192,-152.67 450.531,-156.833 497.935,-159.235"/>
<polygon fill="midnightblue" stroke="midnightblue" points="497.91,-162.738 508.071,-159.735 498.255,-155.746 497.91,-162.738"/>
</g>
<!-- Node3 -->
<g id="node3" class="node"><title>Node3</title>
<g id="a_node3"><a xlink:href="structbdm_1_1Math.html#a7f1e8761aa38ac6cb93d35bfa1ad2d26" target="_top" xlink:title="bdm::Math::Norm">
<polygon fill="white" stroke="black" points="666.5,-171.5 666.5,-190.5 759.5,-190.5 759.5,-171.5 666.5,-171.5"/>
<text text-anchor="middle" x="713" y="-178.5" font-family="Helvetica,sans-Serif" font-size="10.00">bdm::Math::Norm</text>
</a>
</g>
</g>
<!-- Node1&#45;&gt;Node3 -->
<g id="edge4" class="edge"><title>Node1&#45;&gt;Node3</title>
<path fill="none" stroke="midnightblue" d="M128.642,-125.529C149.055,-133.61 173.366,-142.301 196,-148 359.358,-189.134 560.498,-187.694 656.244,-183.994"/>
<polygon fill="midnightblue" stroke="midnightblue" points="656.435,-187.489 666.283,-183.583 656.148,-180.495 656.435,-187.489"/>
</g>
<!-- Node4 -->
<g id="node4" class="node"><title>Node4</title>
<g id="a_node4"><a xlink:href="structbdm_1_1Math.html#abfb252b62698eaa4176ec9a83e89bf37" target="_top" xlink:title="bdm::Math::CrossProduct">
<polygon fill="white" stroke="black" points="500.5,-38.5 500.5,-57.5 629.5,-57.5 629.5,-38.5 500.5,-38.5"/>
<text text-anchor="middle" x="565" y="-45.5" font-family="Helvetica,sans-Serif" font-size="10.00">bdm::Math::CrossProduct</text>
</a>
</g>
</g>
<!-- Node1&#45;&gt;Node4 -->
<g id="edge3" class="edge"><title>Node1&#45;&gt;Node4</title>
<path fill="none" stroke="midnightblue" d="M159.529,-91.8023C171.732,-89.816 184.201,-87.8237 196,-86 254.576,-76.9465 269.098,-73.6037 328,-67 382.23,-60.9201 443.683,-56.0364 490.282,-52.7433"/>
<polygon fill="midnightblue" stroke="midnightblue" points="490.56,-56.2325 500.291,-52.0442 490.072,-49.2495 490.56,-56.2325"/>
</g>
<!-- Node5 -->
<g id="node5" class="node"><title>Node5</title>
<g id="a_node5"><a xlink:href="structbdm_1_1Math.html#a0295284d54dc8b78b7d981fefe373889" target="_top" xlink:title="bdm::Math::Perp3">
<polygon fill="white" stroke="black" points="196.5,-95.5 196.5,-114.5 291.5,-114.5 291.5,-95.5 196.5,-95.5"/>
<text text-anchor="middle" x="244" y="-102.5" font-family="Helvetica,sans-Serif" font-size="10.00">bdm::Math::Perp3</text>
</a>
</g>
</g>
<!-- Node1&#45;&gt;Node5 -->
<g id="edge5" class="edge"><title>Node1&#45;&gt;Node5</title>
<path fill="none" stroke="midnightblue" d="M159.627,-105C168.568,-105 177.547,-105 186.129,-105"/>
<polygon fill="midnightblue" stroke="midnightblue" points="186.37,-108.5 196.37,-105 186.37,-101.5 186.37,-108.5"/>
</g>
<!-- Node7 -->
<g id="node7" class="node"><title>Node7</title>
<g id="a_node7"><a xlink:href="structbdm_1_1Math.html#aed3c71a56eb984be1e7c318fa2056fb2" target="_top" xlink:title="bdm::Math::ScalarMult">
<polygon fill="white" stroke="black" points="507,-0.5 507,-19.5 623,-19.5 623,-0.5 507,-0.5"/>
<text text-anchor="middle" x="565" y="-7.5" font-family="Helvetica,sans-Serif" font-size="10.00">bdm::Math::ScalarMult</text>
</a>
</g>
</g>
<!-- Node1&#45;&gt;Node7 -->
<g id="edge13" class="edge"><title>Node1&#45;&gt;Node7</title>
<path fill="none" stroke="midnightblue" d="M139.008,-84.4049C157.098,-78.5061 177.23,-72.4703 196,-68 299.658,-43.3132 422.31,-26.3795 496.576,-17.4442"/>
<polygon fill="midnightblue" stroke="midnightblue" points="497.211,-20.8935 506.727,-16.2365 496.384,-13.9425 497.211,-20.8935"/>
</g>
<!-- Node2&#45;&gt;Node3 -->
<g id="edge2" class="edge"><title>Node2&#45;&gt;Node3</title>
<path fill="none" stroke="midnightblue" d="M621.613,-169.237C632.965,-170.715 644.913,-172.27 656.27,-173.747"/>
<polygon fill="midnightblue" stroke="midnightblue" points="656.131,-177.259 666.499,-175.079 657.034,-170.317 656.131,-177.259"/>
</g>
<!-- Node5&#45;&gt;Node2 -->
<g id="edge12" class="edge"><title>Node5&#45;&gt;Node2</title>
<path fill="none" stroke="midnightblue" d="M291.727,-113.349C346.972,-123.221 439.172,-139.695 500.768,-150.701"/>
<polygon fill="midnightblue" stroke="midnightblue" points="500.299,-154.173 510.759,-152.487 501.53,-147.282 500.299,-154.173"/>
</g>
<!-- Node6 -->
<g id="node6" class="node"><title>Node6</title>
<g id="a_node6"><a xlink:href="structbdm_1_1Math.html#a39c5e7f5b49f38902ef63ae9f1215252" target="_top" xlink:title="bdm::Math::RotAroundAxis">
<polygon fill="white" stroke="black" points="328.5,-76.5 328.5,-95.5 463.5,-95.5 463.5,-76.5 328.5,-76.5"/>
<text text-anchor="middle" x="396" y="-83.5" font-family="Helvetica,sans-Serif" font-size="10.00">bdm::Math::RotAroundAxis</text>
</a>
</g>
</g>
<!-- Node5&#45;&gt;Node6 -->
<g id="edge6" class="edge"><title>Node5&#45;&gt;Node6</title>
<path fill="none" stroke="midnightblue" d="M291.639,-99.0924C300.074,-98.0239 309.071,-96.8843 318.105,-95.7401"/>
<polygon fill="midnightblue" stroke="midnightblue" points="318.811,-99.1787 328.292,-94.4497 317.931,-92.2342 318.811,-99.1787"/>
</g>
<!-- Node6&#45;&gt;Node2 -->
<g id="edge7" class="edge"><title>Node6&#45;&gt;Node2</title>
<path fill="none" stroke="midnightblue" d="M431.932,-95.5785C442.629,-99.2723 454.162,-104.063 464,-110 482.584,-121.214 481.113,-132.304 500,-143 503.907,-145.212 508.096,-147.19 512.394,-148.954"/>
<polygon fill="midnightblue" stroke="midnightblue" points="511.313,-152.286 521.906,-152.48 513.746,-145.722 511.313,-152.286"/>
</g>
<!-- Node6&#45;&gt;Node4 -->
<g id="edge11" class="edge"><title>Node6&#45;&gt;Node4</title>
<path fill="none" stroke="midnightblue" d="M439.141,-76.411C461.377,-71.3513 488.848,-65.1004 512.356,-59.7512"/>
<polygon fill="midnightblue" stroke="midnightblue" points="513.188,-63.1516 522.162,-57.5201 511.635,-56.3261 513.188,-63.1516"/>
</g>
<!-- Node6&#45;&gt;Node7 -->
<g id="edge8" class="edge"><title>Node6&#45;&gt;Node7</title>
<path fill="none" stroke="midnightblue" d="M411.839,-76.4343C431.407,-64.1415 467.205,-42.7505 500,-29 505.478,-26.7031 511.328,-24.5644 517.181,-22.6126"/>
<polygon fill="midnightblue" stroke="midnightblue" points="518.494,-25.8679 526.969,-19.5094 516.379,-19.1953 518.494,-25.8679"/>
</g>
<!-- Node8 -->
<g id="node8" class="node"><title>Node8</title>
<g id="a_node8"><a xlink:href="structbdm_1_1Math.html#af3e942d1d0f43968c73c7b8cbba2725d" target="_top" xlink:title="bdm::Math::Dot">
<polygon fill="white" stroke="black" points="522.5,-114.5 522.5,-133.5 607.5,-133.5 607.5,-114.5 522.5,-114.5"/>
<text text-anchor="middle" x="565" y="-121.5" font-family="Helvetica,sans-Serif" font-size="10.00">bdm::Math::Dot</text>
</a>
</g>
</g>
<!-- Node6&#45;&gt;Node8 -->
<g id="edge9" class="edge"><title>Node6&#45;&gt;Node8</title>
<path fill="none" stroke="midnightblue" d="M439.141,-95.589C461.462,-100.668 489.057,-106.947 512.624,-112.31"/>
<polygon fill="midnightblue" stroke="midnightblue" points="511.923,-115.74 522.451,-114.546 513.477,-108.914 511.923,-115.74"/>
</g>
<!-- Node9 -->
<g id="node9" class="node"><title>Node9</title>
<g id="a_node9"><a xlink:href="structbdm_1_1Math.html#a80c38cbb986a66639c5ff0ccfce5674e" target="_top" xlink:title="bdm::Math::Subtract">
<polygon fill="white" stroke="black" points="512,-76.5 512,-95.5 618,-95.5 618,-76.5 512,-76.5"/>
<text text-anchor="middle" x="565" y="-83.5" font-family="Helvetica,sans-Serif" font-size="10.00">bdm::Math::Subtract</text>
</a>
</g>
</g>
<!-- Node6&#45;&gt;Node9 -->
<g id="edge10" class="edge"><title>Node6&#45;&gt;Node9</title>
<path fill="none" stroke="midnightblue" d="M463.963,-86C476.44,-86 489.431,-86 501.759,-86"/>
<polygon fill="midnightblue" stroke="midnightblue" points="501.933,-89.5001 511.933,-86 501.933,-82.5001 501.933,-89.5001"/>
</g>
</g>
</svg>
