<?xml version="1.0" encoding="UTF-8" standalone="no"?>
<!DOCTYPE svg PUBLIC "-//W3C//DTD SVG 1.1//EN"
 "http://www.w3.org/Graphics/SVG/1.1/DTD/svg11.dtd">
<!-- Generated by graphviz version 2.38.0 (20140413.2041)
 -->
<!-- Title: bdm::ParallelResizeVector::swap Pages: 1 -->
<svg width="513pt" height="186pt"
 viewBox="0.00 0.00 513.00 186.00" xmlns="http://www.w3.org/2000/svg" xmlns:xlink="http://www.w3.org/1999/xlink">
<g id="graph0" class="graph" transform="scale(1 1) rotate(0) translate(4 182)">
<title>bdm::ParallelResizeVector::swap</title>
<polygon fill="white" stroke="none" points="-4,4 -4,-182 509,-182 509,4 -4,4"/>
<!-- Node1 -->
<g id="node1" class="node"><title>Node1</title>
<polygon fill="#bfbfbf" stroke="black" points="0,-73.5 0,-103.5 139,-103.5 139,-73.5 0,-73.5"/>
<text text-anchor="start" x="8" y="-91.5" font-family="Helvetica,sans-Serif" font-size="10.00">bdm::ParallelResizeVector</text>
<text text-anchor="middle" x="69.5" y="-80.5" font-family="Helvetica,sans-Serif" font-size="10.00">::swap</text>
</g>
<!-- Node2 -->
<g id="node2" class="node"><title>Node2</title>
<g id="a_node2"><a xlink:href="classbdm_1_1DiffusionGrid.html#ad41ba0e6b6f746c8bfdc0f7e56e9b666" target="_top" xlink:title="bdm::DiffusionGrid\l::DiffuseWithLeakingEdge">
<polygon fill="white" stroke="black" points="176.5,-147.5 176.5,-177.5 313.5,-177.5 313.5,-147.5 176.5,-147.5"/>
<text text-anchor="start" x="184.5" y="-165.5" font-family="Helvetica,sans-Serif" font-size="10.00">bdm::DiffusionGrid</text>
<text text-anchor="middle" x="245" y="-154.5" font-family="Helvetica,sans-Serif" font-size="10.00">::DiffuseWithLeakingEdge</text>
</a>
</g>
</g>
<!-- Node1&#45;&gt;Node2 -->
<g id="edge1" class="edge"><title>Node1&#45;&gt;Node2</title>
<path fill="none" stroke="midnightblue" d="M109.014,-108.195C128.548,-117.858 152.784,-129.355 175,-138.5 182.506,-141.59 190.572,-144.635 198.448,-147.464"/>
<polygon fill="midnightblue" stroke="midnightblue" points="110.343,-104.947 99.832,-103.617 107.22,-111.211 110.343,-104.947"/>
</g>
<!-- Node3 -->
<g id="node3" class="node"><title>Node3</title>
<g id="a_node3"><a xlink:href="classbdm_1_1DiffusionGrid.html#a63e2d29b39597dedf86053109cbee6e6" target="_top" xlink:title="bdm::DiffusionGrid\l::DiffuseWithClosedEdge">
<polygon fill="white" stroke="black" points="179,-98.5 179,-128.5 311,-128.5 311,-98.5 179,-98.5"/>
<text text-anchor="start" x="187" y="-116.5" font-family="Helvetica,sans-Serif" font-size="10.00">bdm::DiffusionGrid</text>
<text text-anchor="middle" x="245" y="-105.5" font-family="Helvetica,sans-Serif" font-size="10.00">::DiffuseWithClosedEdge</text>
</a>
</g>
</g>
<!-- Node1&#45;&gt;Node3 -->
<g id="edge2" class="edge"><title>Node1&#45;&gt;Node3</title>
<path fill="none" stroke="midnightblue" d="M149.275,-99.8509C159.135,-101.272 169.133,-102.712 178.755,-104.099"/>
<polygon fill="midnightblue" stroke="midnightblue" points="149.469,-96.3427 139.072,-98.3807 148.47,-103.271 149.469,-96.3427"/>
</g>
<!-- Node4 -->
<g id="node4" class="node"><title>Node4</title>
<g id="a_node4"><a xlink:href="classbdm_1_1DiffusionGrid.html#ab51c423cea72cee71a7af99b0c1ee770" target="_top" xlink:title="bdm::DiffusionGrid\l::DiffuseEuler">
<polygon fill="white" stroke="black" points="192.5,-49.5 192.5,-79.5 297.5,-79.5 297.5,-49.5 192.5,-49.5"/>
<text text-anchor="start" x="200.5" y="-67.5" font-family="Helvetica,sans-Serif" font-size="10.00">bdm::DiffusionGrid</text>
<text text-anchor="middle" x="245" y="-56.5" font-family="Helvetica,sans-Serif" font-size="10.00">::DiffuseEuler</text>
</a>
</g>
</g>
<!-- Node1&#45;&gt;Node4 -->
<g id="edge3" class="edge"><title>Node1&#45;&gt;Node4</title>
<path fill="none" stroke="midnightblue" d="M149.126,-77.6238C163.75,-75.6008 178.685,-73.5349 192.249,-71.6586"/>
<polygon fill="midnightblue" stroke="midnightblue" points="148.498,-74.1773 139.072,-79.0146 149.457,-81.1112 148.498,-74.1773"/>
</g>
<!-- Node6 -->
<g id="node6" class="node"><title>Node6</title>
<g id="a_node6"><a xlink:href="classbdm_1_1DiffusionGrid.html#a02e069de1edb14a404da425037d63f7e" target="_top" xlink:title="bdm::DiffusionGrid\l::DiffuseEulerLeakingEdge">
<polygon fill="white" stroke="black" points="175,-0.5 175,-30.5 315,-30.5 315,-0.5 175,-0.5"/>
<text text-anchor="start" x="183" y="-18.5" font-family="Helvetica,sans-Serif" font-size="10.00">bdm::DiffusionGrid</text>
<text text-anchor="middle" x="245" y="-7.5" font-family="Helvetica,sans-Serif" font-size="10.00">::DiffuseEulerLeakingEdge</text>
</a>
</g>
</g>
<!-- Node1&#45;&gt;Node6 -->
<g id="edge5" class="edge"><title>Node1&#45;&gt;Node6</title>
<path fill="none" stroke="midnightblue" d="M110.843,-69.021C130.101,-59.9674 153.569,-49.2866 175,-40.5 183.252,-37.1166 192.15,-33.7143 200.724,-30.5564"/>
<polygon fill="midnightblue" stroke="midnightblue" points="109.298,-65.8798 101.755,-73.3193 112.291,-72.2078 109.298,-65.8798"/>
</g>
<!-- Node5 -->
<g id="node5" class="node"><title>Node5</title>
<g id="a_node5"><a xlink:href="classbdm_1_1DiffusionOp.html#a22d9630b960965f3d2b0aaeda1712f68" target="_top" xlink:title="bdm::DiffusionOp::operator()">
<polygon fill="white" stroke="black" points="351,-30 351,-49 505,-49 505,-30 351,-30"/>
<text text-anchor="middle" x="428" y="-37" font-family="Helvetica,sans-Serif" font-size="10.00">bdm::DiffusionOp::operator()</text>
</a>
</g>
</g>
<!-- Node4&#45;&gt;Node5 -->
<g id="edge4" class="edge"><title>Node4&#45;&gt;Node5</title>
<path fill="none" stroke="midnightblue" d="M308.185,-55.9109C324.212,-53.6972 341.556,-51.3016 357.911,-49.0427"/>
<polygon fill="midnightblue" stroke="midnightblue" points="307.294,-52.5006 297.867,-57.336 308.252,-59.4348 307.294,-52.5006"/>
</g>
<!-- Node6&#45;&gt;Node5 -->
<g id="edge6" class="edge"><title>Node6&#45;&gt;Node5</title>
<path fill="none" stroke="midnightblue" d="M325.42,-26.0308C335.306,-27.3416 345.37,-28.6762 355.132,-29.9706"/>
<polygon fill="midnightblue" stroke="midnightblue" points="325.576,-22.521 315.203,-24.6761 324.656,-29.4603 325.576,-22.521"/>
</g>
</g>
</svg>
