<?xml version="1.0" encoding="UTF-8" standalone="no"?>
<!DOCTYPE svg PUBLIC "-//W3C//DTD SVG 1.1//EN"
 "http://www.w3.org/Graphics/SVG/1.1/DTD/svg11.dtd">
<!-- Generated by graphviz version 2.38.0 (20140413.2041)
 -->
<!-- Title: bdm::VTuneOpWrapper&lt; Op &gt; Pages: 1 -->
<svg width="259pt" height="193pt"
 viewBox="0.00 0.00 259.00 193.00" xmlns="http://www.w3.org/2000/svg" xmlns:xlink="http://www.w3.org/1999/xlink">
<g id="graph0" class="graph" transform="scale(1 1) rotate(0) translate(4 189)">
<title>bdm::VTuneOpWrapper&lt; Op &gt;</title>
<polygon fill="white" stroke="none" points="-4,4 -4,-189 255,-189 255,4 -4,4"/>
<!-- Node1 -->
<g id="node1" class="node"><title>Node1</title>
<polygon fill="#bfbfbf" stroke="black" points="38.5,-0.5 38.5,-79.5 163.5,-79.5 163.5,-0.5 38.5,-0.5"/>
<text text-anchor="start" x="46.5" y="-67.5" font-family="Helvetica,sans-Serif" font-size="10.00">bdm::VTuneOpWrapper</text>
<text text-anchor="middle" x="101" y="-56.5" font-family="Helvetica,sans-Serif" font-size="10.00">&lt; Op &gt;</text>
<polyline fill="none" stroke="black" points="38.5,-49.5 163.5,-49.5 "/>
<text text-anchor="middle" x="101" y="-37.5" font-family="Helvetica,sans-Serif" font-size="10.00"> </text>
<polyline fill="none" stroke="black" points="38.5,-30.5 163.5,-30.5 "/>
<text text-anchor="start" x="46.5" y="-18.5" font-family="Helvetica,sans-Serif" font-size="10.00">+ VTuneOpWrapper()</text>
<text text-anchor="start" x="46.5" y="-7.5" font-family="Helvetica,sans-Serif" font-size="10.00">+ Compute()</text>
</g>
<!-- Node2 -->
<g id="node2" class="node"><title>Node2</title>
<polygon fill="white" stroke="#bfbfbf" points="0,-127.5 0,-184.5 30,-184.5 30,-127.5 0,-127.5"/>
<text text-anchor="middle" x="15" y="-172.5" font-family="Helvetica,sans-Serif" font-size="10.00">Op</text>
<polyline fill="none" stroke="#bfbfbf" points="0,-165.5 30,-165.5 "/>
<text text-anchor="middle" x="15" y="-153.5" font-family="Helvetica,sans-Serif" font-size="10.00"> </text>
<polyline fill="none" stroke="#bfbfbf" points="0,-146.5 30,-146.5 "/>
<text text-anchor="middle" x="15" y="-134.5" font-family="Helvetica,sans-Serif" font-size="10.00"> </text>
</g>
<!-- Node2&#45;&gt;Node1 -->
<g id="edge1" class="edge"><title>Node2&#45;&gt;Node1</title>
<path fill="none" stroke="midnightblue" d="M36.4709,-126.539C47.1279,-112.412 60.1627,-95.1332 71.7202,-79.8127"/>
<polygon fill="none" stroke="midnightblue" points="33.4054,-124.79 30.1771,-134.882 38.9936,-129.006 33.4054,-124.79"/>
</g>
<!-- Node3 -->
<g id="node3" class="node"><title>Node3</title>
<g id="a_node3"><a xlink:href="struct____itt__string__handle.html" target="_top" xlink:title="{__itt_string_handle\n||}">
<polygon fill="white" stroke="black" points="47.5,-127.5 47.5,-184.5 154.5,-184.5 154.5,-127.5 47.5,-127.5"/>
<text text-anchor="middle" x="101" y="-172.5" font-family="Helvetica,sans-Serif" font-size="10.00">__itt_string_handle</text>
<polyline fill="none" stroke="black" points="47.5,-165.5 154.5,-165.5 "/>
<text text-anchor="middle" x="101" y="-153.5" font-family="Helvetica,sans-Serif" font-size="10.00"> </text>
<polyline fill="none" stroke="black" points="47.5,-146.5 154.5,-146.5 "/>
<text text-anchor="middle" x="101" y="-134.5" font-family="Helvetica,sans-Serif" font-size="10.00"> </text>
</a>
</g>
</g>
<!-- Node3&#45;&gt;Node1 -->
<g id="edge2" class="edge"><title>Node3&#45;&gt;Node1</title>
<path fill="none" stroke="#404040" d="M101,-127.404C101,-116.63 101,-103.926 101,-91.6231"/>
<polygon fill="none" stroke="#404040" points="101,-91.5406 97,-85.5406 101,-79.5406 105,-85.5405 101,-91.5406"/>
<text text-anchor="middle" x="117.5" y="-101" font-family="Helvetica,sans-Serif" font-size="10.00"> &#45;task_</text>
</g>
<!-- Node4 -->
<g id="node4" class="node"><title>Node4</title>
<g id="a_node4"><a xlink:href="struct____itt__domain.html" target="_top" xlink:title="{__itt_domain\n||}">
<polygon fill="white" stroke="black" points="173,-127.5 173,-184.5 251,-184.5 251,-127.5 173,-127.5"/>
<text text-anchor="middle" x="212" y="-172.5" font-family="Helvetica,sans-Serif" font-size="10.00">__itt_domain</text>
<polyline fill="none" stroke="black" points="173,-165.5 251,-165.5 "/>
<text text-anchor="middle" x="212" y="-153.5" font-family="Helvetica,sans-Serif" font-size="10.00"> </text>
<polyline fill="none" stroke="black" points="173,-146.5 251,-146.5 "/>
<text text-anchor="middle" x="212" y="-134.5" font-family="Helvetica,sans-Serif" font-size="10.00"> </text>
</a>
</g>
</g>
<!-- Node4&#45;&gt;Node1 -->
<g id="edge3" class="edge"><title>Node4&#45;&gt;Node1</title>
<path fill="none" stroke="#404040" d="M185.13,-127.404C173.656,-115.62 159.934,-101.527 146.934,-88.1755"/>
<polygon fill="none" stroke="#404040" points="146.898,-88.1382 139.846,-86.6299 138.526,-79.5406 145.578,-81.0489 146.898,-88.1382"/>
<text text-anchor="middle" x="191.5" y="-101" font-family="Helvetica,sans-Serif" font-size="10.00"> &#45;domain_</text>
</g>
</g>
</svg>
