<?xml version="1.0" encoding="UTF-8" standalone="no"?>
<!DOCTYPE svg PUBLIC "-//W3C//DTD SVG 1.1//EN"
 "http://www.w3.org/Graphics/SVG/1.1/DTD/svg11.dtd">
<!-- Generated by graphviz version 2.36.0 (20140111.2315)
 -->
<!-- Title: bdm::DefaultForce::ForceBetweenCylinders Pages: 1 -->
<svg width="270pt" height="38pt"
 viewBox="0.00 0.00 270.00 38.00" xmlns="http://www.w3.org/2000/svg" xmlns:xlink="http://www.w3.org/1999/xlink">
<g id="graph0" class="graph" transform="scale(1 1) rotate(0) translate(4 34)">
<title>bdm::DefaultForce::ForceBetweenCylinders</title>
<polygon fill="white" stroke="none" points="-4,4 -4,-34 266,-34 266,4 -4,4"/>
<!-- Node1 -->
<g id="node1" class="node"><title>Node1</title>
<polygon fill="#bfbfbf" stroke="black" points="0.5,-0 0.5,-30 121.5,-30 121.5,-0 0.5,-0"/>
<text text-anchor="start" x="8.5" y="-18" font-family="Helvetica,sans-Serif" font-size="10.00">bdm::DefaultForce::</text>
<text text-anchor="middle" x="61" y="-7" font-family="Helvetica,sans-Serif" font-size="10.00">ForceBetweenCylinders</text>
</g>
<!-- Node2 -->
<g id="node2" class="node"><title>Node2</title>
<g id="a_node2"><a xlink:href="classbdm_1_1DefaultForce.html#a94df2bab2c9c2145d254db21cec9ed7d" target="_top" xlink:title="bdm::DefaultForce::\lGetForce">
<polygon fill="white" stroke="black" points="158,-0 158,-30 262,-30 262,-0 158,-0"/>
<text text-anchor="start" x="166" y="-18" font-family="Helvetica,sans-Serif" font-size="10.00">bdm::DefaultForce::</text>
<text text-anchor="middle" x="210" y="-7" font-family="Helvetica,sans-Serif" font-size="10.00">GetForce</text>
</a>
</g>
</g>
<!-- Node1&#45;&gt;Node2 -->
<g id="edge1" class="edge"><title>Node1&#45;&gt;Node2</title>
<path fill="none" stroke="midnightblue" d="M131.94,-15C140.637,-15 149.4,-15 157.741,-15"/>
<polygon fill="midnightblue" stroke="midnightblue" points="131.791,-11.5001 121.791,-15 131.79,-18.5001 131.791,-11.5001"/>
</g>
</g>
</svg>
