<?xml version="1.0" encoding="UTF-8" standalone="no"?>
<!DOCTYPE svg PUBLIC "-//W3C//DTD SVG 1.1//EN"
 "http://www.w3.org/Graphics/SVG/1.1/DTD/svg11.dtd">
<!-- Generated by graphviz version 2.43.0 (0)
 -->
<!-- Title: bdm::neuroscience::NeuronSoma Pages: 1 -->
<svg width="209pt" height="162pt"
 viewBox="0.00 0.00 209.00 162.00" xmlns="http://www.w3.org/2000/svg" xmlns:xlink="http://www.w3.org/1999/xlink">
<g id="graph0" class="graph" transform="scale(1 1) rotate(0) translate(4 158)">
<title>bdm::neuroscience::NeuronSoma</title>
<polygon fill="white" stroke="transparent" points="-4,4 -4,-158 205,-158 205,4 -4,4"/>
<!-- Node1 -->
<g id="node1" class="node">
<title>Node1</title>
<g id="a_node1"><a xlink:title=" ">
<polygon fill="#bfbfbf" stroke="black" points="32,-0.5 32,-30.5 147,-30.5 147,-0.5 32,-0.5"/>
<text text-anchor="start" x="40" y="-18.5" font-family="Helvetica,sans-Serif" font-size="10.00">bdm::neuroscience::</text>
<text text-anchor="middle" x="89.5" y="-7.5" font-family="Helvetica,sans-Serif" font-size="10.00">NeuronSoma</text>
</a>
</g>
</g>
<!-- Node2 -->
<g id="node2" class="node">
<title>Node2</title>
<g id="a_node2"><a xlink:href="classbdm_1_1Cell.html" target="_top" xlink:title=" ">
<polygon fill="white" stroke="black" points="5,-73 5,-92 68,-92 68,-73 5,-73"/>
<text text-anchor="middle" x="36.5" y="-80" font-family="Helvetica,sans-Serif" font-size="10.00">bdm::Cell</text>
</a>
</g>
</g>
<!-- Node2&#45;&gt;Node1 -->
<g id="edge1" class="edge">
<title>Node2&#45;&gt;Node1</title>
<path fill="none" stroke="midnightblue" d="M50.22,-64.67C58.85,-54.09 69.85,-40.6 78.01,-30.59"/>
<polygon fill="midnightblue" stroke="midnightblue" points="47.25,-62.77 43.65,-72.73 52.68,-67.2 47.25,-62.77"/>
</g>
<!-- Node3 -->
<g id="node3" class="node">
<title>Node3</title>
<g id="a_node3"><a xlink:href="classbdm_1_1Agent.html" target="_top" xlink:title="Contains code required by all agents.">
<polygon fill="white" stroke="black" points="0,-134.5 0,-153.5 73,-153.5 73,-134.5 0,-134.5"/>
<text text-anchor="middle" x="36.5" y="-141.5" font-family="Helvetica,sans-Serif" font-size="10.00">bdm::Agent</text>
</a>
</g>
</g>
<!-- Node3&#45;&gt;Node2 -->
<g id="edge2" class="edge">
<title>Node3&#45;&gt;Node2</title>
<path fill="none" stroke="midnightblue" d="M36.5,-124.32C36.5,-113.5 36.5,-100.4 36.5,-92.01"/>
<polygon fill="midnightblue" stroke="midnightblue" points="33,-124.48 36.5,-134.48 40,-124.48 33,-124.48"/>
</g>
<!-- Node4 -->
<g id="node4" class="node">
<title>Node4</title>
<g id="a_node4"><a xlink:href="classbdm_1_1neuroscience_1_1NeuronOrNeurite.html" target="_top" xlink:title=" ">
<polygon fill="white" stroke="black" points="86,-67.5 86,-97.5 201,-97.5 201,-67.5 86,-67.5"/>
<text text-anchor="start" x="94" y="-85.5" font-family="Helvetica,sans-Serif" font-size="10.00">bdm::neuroscience::</text>
<text text-anchor="middle" x="143.5" y="-74.5" font-family="Helvetica,sans-Serif" font-size="10.00">NeuronOrNeurite</text>
</a>
</g>
</g>
<!-- Node4&#45;&gt;Node1 -->
<g id="edge3" class="edge">
<title>Node4&#45;&gt;Node1</title>
<path fill="none" stroke="midnightblue" d="M125.18,-59.45C117.25,-49.9 108.2,-39 101.19,-30.58"/>
<polygon fill="midnightblue" stroke="midnightblue" points="122.7,-61.94 131.78,-67.4 128.08,-57.47 122.7,-61.94"/>
</g>
</g>
</svg>
