<?xml version="1.0" encoding="UTF-8" standalone="no"?>
<!DOCTYPE svg PUBLIC "-//W3C//DTD SVG 1.1//EN"
 "http://www.w3.org/Graphics/SVG/1.1/DTD/svg11.dtd">
<!-- Generated by graphviz version 2.38.0 (20140413.2041)
 -->
<!-- Title: bdm::ResourceManager::operator= Pages: 1 -->
<svg width="566pt" height="39pt"
 viewBox="0.00 0.00 566.00 39.00" xmlns="http://www.w3.org/2000/svg" xmlns:xlink="http://www.w3.org/1999/xlink">
<g id="graph0" class="graph" transform="scale(1 1) rotate(0) translate(4 35)">
<title>bdm::ResourceManager::operator=</title>
<polygon fill="white" stroke="none" points="-4,4 -4,-35 562,-35 562,4 -4,4"/>
<!-- Node1 -->
<g id="node1" class="node"><title>Node1</title>
<polygon fill="#bfbfbf" stroke="black" points="0,-0.5 0,-30.5 130,-30.5 130,-0.5 0,-0.5"/>
<text text-anchor="start" x="8" y="-18.5" font-family="Helvetica,sans-Serif" font-size="10.00">bdm::ResourceManager</text>
<text text-anchor="middle" x="65" y="-7.5" font-family="Helvetica,sans-Serif" font-size="10.00">::operator=</text>
</g>
<!-- Node2 -->
<g id="node2" class="node"><title>Node2</title>
<g id="a_node2"><a xlink:href="classbdm_1_1Log.html#ad80c15ca7fb87dc59f68477f5e8166d6" target="_top" xlink:title="Prints fatal error message. ">
<polygon fill="white" stroke="black" points="166,-6 166,-25 256,-25 256,-6 166,-6"/>
<text text-anchor="middle" x="211" y="-13" font-family="Helvetica,sans-Serif" font-size="10.00">bdm::Log::Fatal</text>
</a>
</g>
</g>
<!-- Node1&#45;&gt;Node2 -->
<g id="edge1" class="edge"><title>Node1&#45;&gt;Node2</title>
<path fill="none" stroke="midnightblue" d="M130.419,-15.5C138.843,-15.5 147.408,-15.5 155.644,-15.5"/>
<polygon fill="midnightblue" stroke="midnightblue" points="155.866,-19.0001 165.866,-15.5 155.866,-12.0001 155.866,-19.0001"/>
</g>
<!-- Node3 -->
<g id="node3" class="node"><title>Node3</title>
<g id="a_node3"><a xlink:href="namespacebdm.html#a2fa839a2549004e92e23175955de8ae9" target="_top" xlink:title="Concatenates all arguments into a string. Equivalent to streaming all arguments into a stringstream a...">
<polygon fill="white" stroke="black" points="292,-6 292,-25 370,-25 370,-6 292,-6"/>
<text text-anchor="middle" x="331" y="-13" font-family="Helvetica,sans-Serif" font-size="10.00">bdm::Concat</text>
</a>
</g>
</g>
<!-- Node2&#45;&gt;Node3 -->
<g id="edge2" class="edge"><title>Node2&#45;&gt;Node3</title>
<path fill="none" stroke="midnightblue" d="M256.275,-15.5C264.55,-15.5 273.239,-15.5 281.631,-15.5"/>
<polygon fill="midnightblue" stroke="midnightblue" points="281.672,-19.0001 291.672,-15.5 281.672,-12.0001 281.672,-19.0001"/>
</g>
<!-- Node4 -->
<g id="node4" class="node"><title>Node4</title>
<g id="a_node4"><a xlink:href="namespacebdm_1_1detail.html#a16e0361b1aefd0958218781e4e3bbf12" target="_top" xlink:title="Appends the closing string to the message. ">
<polygon fill="white" stroke="black" points="406,-6 406,-25 558,-25 558,-6 406,-6"/>
<text text-anchor="middle" x="482" y="-13" font-family="Helvetica,sans-Serif" font-size="10.00">bdm::detail::ConcatNextPart</text>
</a>
</g>
</g>
<!-- Node3&#45;&gt;Node4 -->
<g id="edge3" class="edge"><title>Node3&#45;&gt;Node4</title>
<path fill="none" stroke="midnightblue" d="M370.371,-15.5C378.328,-15.5 387.009,-15.5 395.897,-15.5"/>
<polygon fill="midnightblue" stroke="midnightblue" points="395.99,-19.0001 405.99,-15.5 395.99,-12.0001 395.99,-19.0001"/>
</g>
</g>
</svg>
