<?xml version="1.0" encoding="UTF-8" standalone="no"?>
<!DOCTYPE svg PUBLIC "-//W3C//DTD SVG 1.1//EN"
 "http://www.w3.org/Graphics/SVG/1.1/DTD/svg11.dtd">
<!-- Generated by graphviz version 2.38.0 (20140413.2041)
 -->
<!-- Title: bdm::SimulationBackup::Restore Pages: 1 -->
<svg width="995pt" height="467pt"
 viewBox="0.00 0.00 995.00 466.50" xmlns="http://www.w3.org/2000/svg" xmlns:xlink="http://www.w3.org/1999/xlink">
<g id="graph0" class="graph" transform="scale(1 1) rotate(0) translate(4 462.5)">
<title>bdm::SimulationBackup::Restore</title>
<polygon fill="white" stroke="none" points="-4,4 -4,-462.5 991,-462.5 991,4 -4,4"/>
<!-- Node1 -->
<g id="node1" class="node"><title>Node1</title>
<polygon fill="#bfbfbf" stroke="black" points="0,-181.5 0,-211.5 131,-211.5 131,-181.5 0,-181.5"/>
<text text-anchor="start" x="8" y="-199.5" font-family="Helvetica,sans-Serif" font-size="10.00">bdm::SimulationBackup</text>
<text text-anchor="middle" x="65.5" y="-188.5" font-family="Helvetica,sans-Serif" font-size="10.00">::Restore</text>
</g>
<!-- Node2 -->
<g id="node2" class="node"><title>Node2</title>
<g id="a_node2"><a xlink:href="classbdm_1_1Log.html#ad80c15ca7fb87dc59f68477f5e8166d6" target="_top" xlink:title="Prints fatal error message. ">
<polygon fill="white" stroke="black" points="588,-317 588,-336 678,-336 678,-317 588,-317"/>
<text text-anchor="middle" x="633" y="-324" font-family="Helvetica,sans-Serif" font-size="10.00">bdm::Log::Fatal</text>
</a>
</g>
</g>
<!-- Node1&#45;&gt;Node2 -->
<g id="edge1" class="edge"><title>Node1&#45;&gt;Node2</title>
<path fill="none" stroke="midnightblue" d="M116.876,-211.531C132.826,-216.022 150.579,-220.744 167,-224.5 333.4,-262.559 380.73,-246.103 545,-292.5 564.127,-297.902 584.881,-305.925 601.32,-312.821"/>
<polygon fill="midnightblue" stroke="midnightblue" points="600.374,-316.223 610.945,-316.935 603.125,-309.786 600.374,-316.223"/>
</g>
<!-- Node5 -->
<g id="node5" class="node"><title>Node5</title>
<g id="a_node5"><a xlink:href="classbdm_1_1TFileRaii.html#ac4328103c3774c141fa55a7f3bfa35df" target="_top" xlink:title="bdm::TFileRaii::Get">
<polygon fill="white" stroke="black" points="581,-149 581,-168 685,-168 685,-149 581,-149"/>
<text text-anchor="middle" x="633" y="-156" font-family="Helvetica,sans-Serif" font-size="10.00">bdm::TFileRaii::Get</text>
</a>
</g>
</g>
<!-- Node1&#45;&gt;Node5 -->
<g id="edge4" class="edge"><title>Node1&#45;&gt;Node5</title>
<path fill="none" stroke="midnightblue" d="M131.095,-192.159C241.006,-184.774 462.937,-169.861 570.62,-162.625"/>
<polygon fill="midnightblue" stroke="midnightblue" points="570.934,-166.111 580.677,-161.949 570.465,-159.127 570.934,-166.111"/>
</g>
<!-- Node6 -->
<g id="node6" class="node"><title>Node6</title>
<g id="a_node6"><a xlink:href="classbdm_1_1Log.html#a30fb7f6a405338c9bddba3d7cbb07f16" target="_top" xlink:title="Prints warning message. ">
<polygon fill="white" stroke="black" points="410.5,-439 410.5,-458 515.5,-458 515.5,-439 410.5,-439"/>
<text text-anchor="middle" x="463" y="-446" font-family="Helvetica,sans-Serif" font-size="10.00">bdm::Log::Warning</text>
</a>
</g>
</g>
<!-- Node1&#45;&gt;Node6 -->
<g id="edge5" class="edge"><title>Node1&#45;&gt;Node6</title>
<path fill="none" stroke="midnightblue" d="M70.2433,-211.584C79.8212,-246.887 108.676,-335.237 167,-379.5 235.207,-431.262 335.957,-445.095 400.282,-448.305"/>
<polygon fill="midnightblue" stroke="midnightblue" points="400.141,-451.803 410.282,-448.734 400.441,-444.809 400.141,-451.803"/>
</g>
<!-- Node7 -->
<g id="node7" class="node"><title>Node7</title>
<g id="a_node7"><a xlink:href="classbdm_1_1Simulation.html#a67bdfef8ac06a741e287d73d2d941c63" target="_top" xlink:title="This function returns the currently active Simulation simulation. ">
<polygon fill="white" stroke="black" points="182,-99 182,-118 330,-118 330,-99 182,-99"/>
<text text-anchor="middle" x="256" y="-106" font-family="Helvetica,sans-Serif" font-size="10.00">bdm::Simulation::GetActive</text>
</a>
</g>
</g>
<!-- Node1&#45;&gt;Node7 -->
<g id="edge7" class="edge"><title>Node1&#45;&gt;Node7</title>
<path fill="none" stroke="midnightblue" d="M83.7608,-181.496C102.847,-165.697 135.128,-141.245 167,-127.5 172.84,-124.982 179.046,-122.784 185.355,-120.869"/>
<polygon fill="midnightblue" stroke="midnightblue" points="186.626,-124.147 195.315,-118.085 184.742,-117.406 186.626,-124.147"/>
</g>
<!-- Node8 -->
<g id="node8" class="node"><title>Node8</title>
<g id="a_node8"><a xlink:href="classbdm_1_1Simulation.html#a372f430298d79571847015c2e108b246" target="_top" xlink:title="bdm::Simulation::Restore">
<polygon fill="white" stroke="black" points="187.5,-351 187.5,-370 324.5,-370 324.5,-351 187.5,-351"/>
<text text-anchor="middle" x="256" y="-358" font-family="Helvetica,sans-Serif" font-size="10.00">bdm::Simulation::Restore</text>
</a>
</g>
</g>
<!-- Node1&#45;&gt;Node8 -->
<g id="edge8" class="edge"><title>Node1&#45;&gt;Node8</title>
<path fill="none" stroke="midnightblue" d="M83.0742,-211.629C102.883,-229.644 137.105,-260.556 167,-286.5 190.191,-306.626 217.286,-329.284 235.219,-344.164"/>
<polygon fill="midnightblue" stroke="midnightblue" points="233.296,-347.116 243.229,-350.799 237.761,-341.725 233.296,-347.116"/>
</g>
<!-- Node12 -->
<g id="node12" class="node"><title>Node12</title>
<g id="a_node12"><a xlink:href="classbdm_1_1Log.html#a416ad3b1f970835cf2d3041d1e57cfa5" target="_top" xlink:title="Prints information message. ">
<polygon fill="white" stroke="black" points="590.5,-232 590.5,-251 675.5,-251 675.5,-232 590.5,-232"/>
<text text-anchor="middle" x="633" y="-239" font-family="Helvetica,sans-Serif" font-size="10.00">bdm::Log::Info</text>
</a>
</g>
</g>
<!-- Node1&#45;&gt;Node12 -->
<g id="edge15" class="edge"><title>Node1&#45;&gt;Node12</title>
<path fill="none" stroke="midnightblue" d="M131.095,-201.64C244.287,-210.647 476.286,-229.109 579.951,-237.358"/>
<polygon fill="midnightblue" stroke="midnightblue" points="579.922,-240.867 590.168,-238.171 580.477,-233.889 579.922,-240.867"/>
</g>
<!-- Node13 -->
<g id="node13" class="node"><title>Node13</title>
<g id="a_node13"><a xlink:href="classbdm_1_1SimulationBackup.html#ae39680ee434349e02016bedb6f165dd8" target="_top" xlink:title="bdm::SimulationBackup\l::GetSimulationStepsFromBackup">
<polygon fill="white" stroke="black" points="167,-137.5 167,-167.5 345,-167.5 345,-137.5 167,-137.5"/>
<text text-anchor="start" x="175" y="-155.5" font-family="Helvetica,sans-Serif" font-size="10.00">bdm::SimulationBackup</text>
<text text-anchor="middle" x="256" y="-144.5" font-family="Helvetica,sans-Serif" font-size="10.00">::GetSimulationStepsFromBackup</text>
</a>
</g>
</g>
<!-- Node1&#45;&gt;Node13 -->
<g id="edge17" class="edge"><title>Node1&#45;&gt;Node13</title>
<path fill="none" stroke="midnightblue" d="M130.844,-181.481C146.83,-177.749 164.097,-173.719 180.525,-169.884"/>
<polygon fill="midnightblue" stroke="midnightblue" points="181.684,-173.208 190.626,-167.526 180.093,-166.391 181.684,-173.208"/>
</g>
<!-- Node17 -->
<g id="node17" class="node"><title>Node17</title>
<g id="a_node17"><a xlink:href="classbdm_1_1SimulationBackup.html#a437ea2ec7457d13ad06fdf197cd17af0" target="_top" xlink:title="bdm::SimulationBackup\l::BackupEnabled">
<polygon fill="white" stroke="black" points="190.5,-49.5 190.5,-79.5 321.5,-79.5 321.5,-49.5 190.5,-49.5"/>
<text text-anchor="start" x="198.5" y="-67.5" font-family="Helvetica,sans-Serif" font-size="10.00">bdm::SimulationBackup</text>
<text text-anchor="middle" x="256" y="-56.5" font-family="Helvetica,sans-Serif" font-size="10.00">::BackupEnabled</text>
</a>
</g>
</g>
<!-- Node1&#45;&gt;Node17 -->
<g id="edge23" class="edge"><title>Node1&#45;&gt;Node17</title>
<path fill="none" stroke="midnightblue" d="M76.6371,-181.275C92.9235,-158.006 127.161,-113.748 167,-89.5 171.382,-86.8331 176.058,-84.4412 180.886,-82.2973"/>
<polygon fill="midnightblue" stroke="midnightblue" points="182.366,-85.4742 190.318,-78.4732 179.736,-78.9871 182.366,-85.4742"/>
</g>
<!-- Node18 -->
<g id="node18" class="node"><title>Node18</title>
<g id="a_node18"><a xlink:href="classbdm_1_1SimulationBackup.html#a883be6288cae9cf54f3a92637a862020" target="_top" xlink:title="bdm::SimulationBackup\l::RestoreEnabled">
<polygon fill="white" stroke="black" points="190.5,-0.5 190.5,-30.5 321.5,-30.5 321.5,-0.5 190.5,-0.5"/>
<text text-anchor="start" x="198.5" y="-18.5" font-family="Helvetica,sans-Serif" font-size="10.00">bdm::SimulationBackup</text>
<text text-anchor="middle" x="256" y="-7.5" font-family="Helvetica,sans-Serif" font-size="10.00">::RestoreEnabled</text>
</a>
</g>
</g>
<!-- Node1&#45;&gt;Node18 -->
<g id="edge24" class="edge"><title>Node1&#45;&gt;Node18</title>
<path fill="none" stroke="midnightblue" d="M71.8679,-181.343C83.8067,-149.876 115.628,-77.2578 167,-39.5 171.386,-36.2762 176.181,-33.4854 181.196,-31.0695"/>
<polygon fill="midnightblue" stroke="midnightblue" points="182.609,-34.2719 190.419,-27.1132 179.85,-27.8387 182.609,-34.2719"/>
</g>
<!-- Node3 -->
<g id="node3" class="node"><title>Node3</title>
<g id="a_node3"><a xlink:href="namespacebdm.html#a2fa839a2549004e92e23175955de8ae9" target="_top" xlink:title="Concatenates all arguments into a string. Equivalent to streaming all arguments into a stringstream a...">
<polygon fill="white" stroke="black" points="721,-347 721,-366 799,-366 799,-347 721,-347"/>
<text text-anchor="middle" x="760" y="-354" font-family="Helvetica,sans-Serif" font-size="10.00">bdm::Concat</text>
</a>
</g>
</g>
<!-- Node2&#45;&gt;Node3 -->
<g id="edge2" class="edge"><title>Node2&#45;&gt;Node3</title>
<path fill="none" stroke="midnightblue" d="M673.894,-336.075C685.617,-338.888 698.565,-341.996 710.75,-344.92"/>
<polygon fill="midnightblue" stroke="midnightblue" points="710.221,-348.392 720.762,-347.323 711.855,-341.586 710.221,-348.392"/>
</g>
<!-- Node4 -->
<g id="node4" class="node"><title>Node4</title>
<g id="a_node4"><a xlink:href="namespacebdm_1_1detail.html#a16e0361b1aefd0958218781e4e3bbf12" target="_top" xlink:title="Appends the closing string to the message. ">
<polygon fill="white" stroke="black" points="835,-347 835,-366 987,-366 987,-347 835,-347"/>
<text text-anchor="middle" x="911" y="-354" font-family="Helvetica,sans-Serif" font-size="10.00">bdm::detail::ConcatNextPart</text>
</a>
</g>
</g>
<!-- Node3&#45;&gt;Node4 -->
<g id="edge3" class="edge"><title>Node3&#45;&gt;Node4</title>
<path fill="none" stroke="midnightblue" d="M799.371,-356.5C807.328,-356.5 816.009,-356.5 824.897,-356.5"/>
<polygon fill="midnightblue" stroke="midnightblue" points="824.99,-360 834.99,-356.5 824.99,-353 824.99,-360"/>
</g>
<!-- Node6&#45;&gt;Node3 -->
<g id="edge6" class="edge"><title>Node6&#45;&gt;Node3</title>
<path fill="none" stroke="midnightblue" d="M510.491,-438.988C555.76,-429.101 626.151,-412.061 685,-390.5 700.597,-384.786 717.463,-377.156 731.149,-370.571"/>
<polygon fill="midnightblue" stroke="midnightblue" points="733.043,-373.542 740.489,-366.004 729.968,-367.253 733.043,-373.542"/>
</g>
<!-- Node8&#45;&gt;Node6 -->
<g id="edge9" class="edge"><title>Node8&#45;&gt;Node6</title>
<path fill="none" stroke="midnightblue" d="M274.184,-370.072C308.149,-388.99 380.648,-429.364 381,-429.5 387.668,-432.079 394.786,-434.372 401.931,-436.392"/>
<polygon fill="midnightblue" stroke="midnightblue" points="401.086,-439.788 411.65,-438.978 402.886,-433.024 401.086,-439.788"/>
</g>
<!-- Node9 -->
<g id="node9" class="node"><title>Node9</title>
<g id="a_node9"><a xlink:href="structbdm_1_1Param.html#a578f1272cb36e9e4a83b5a533b3fa6ca" target="_top" xlink:title="bdm::Param::Restore">
<polygon fill="white" stroke="black" points="404.5,-351 404.5,-370 521.5,-370 521.5,-351 404.5,-351"/>
<text text-anchor="middle" x="463" y="-358" font-family="Helvetica,sans-Serif" font-size="10.00">bdm::Param::Restore</text>
</a>
</g>
</g>
<!-- Node8&#45;&gt;Node9 -->
<g id="edge10" class="edge"><title>Node8&#45;&gt;Node9</title>
<path fill="none" stroke="midnightblue" d="M324.693,-360.5C347.044,-360.5 371.9,-360.5 394.255,-360.5"/>
<polygon fill="midnightblue" stroke="midnightblue" points="394.332,-364 404.332,-360.5 394.332,-357 394.332,-364"/>
</g>
<!-- Node10 -->
<g id="node10" class="node"><title>Node10</title>
<g id="a_node10"><a xlink:href="classbdm_1_1Simulation.html#a6cfcdfca4147ce20921e67f962175f97" target="_top" xlink:title="This function initialzes unique_name_ ">
<polygon fill="white" stroke="black" points="393,-301.5 393,-331.5 533,-331.5 533,-301.5 393,-301.5"/>
<text text-anchor="start" x="401" y="-319.5" font-family="Helvetica,sans-Serif" font-size="10.00">bdm::Simulation::Initialize</text>
<text text-anchor="middle" x="463" y="-308.5" font-family="Helvetica,sans-Serif" font-size="10.00">UniqueName</text>
</a>
</g>
</g>
<!-- Node8&#45;&gt;Node10 -->
<g id="edge11" class="edge"><title>Node8&#45;&gt;Node10</title>
<path fill="none" stroke="midnightblue" d="M301.482,-350.953C325.184,-345.865 355.059,-339.453 382.589,-333.544"/>
<polygon fill="midnightblue" stroke="midnightblue" points="383.567,-336.914 392.61,-331.394 382.098,-330.07 383.567,-336.914"/>
</g>
<!-- Node11 -->
<g id="node11" class="node"><title>Node11</title>
<g id="a_node11"><a xlink:href="classbdm_1_1Simulation.html#ad5431b3a52d85f73de84719144549246" target="_top" xlink:title="Initializes output_dir_ and creates dir if it does not exist. ">
<polygon fill="white" stroke="black" points="393,-389.5 393,-419.5 533,-419.5 533,-389.5 393,-389.5"/>
<text text-anchor="start" x="401" y="-407.5" font-family="Helvetica,sans-Serif" font-size="10.00">bdm::Simulation::Initialize</text>
<text text-anchor="middle" x="463" y="-396.5" font-family="Helvetica,sans-Serif" font-size="10.00">OutputDir</text>
</a>
</g>
</g>
<!-- Node8&#45;&gt;Node11 -->
<g id="edge12" class="edge"><title>Node8&#45;&gt;Node11</title>
<path fill="none" stroke="midnightblue" d="M301.482,-370.047C325.184,-375.135 355.059,-381.547 382.589,-387.456"/>
<polygon fill="midnightblue" stroke="midnightblue" points="382.098,-390.93 392.61,-389.606 383.567,-384.086 382.098,-390.93"/>
</g>
<!-- Node11&#45;&gt;Node2 -->
<g id="edge14" class="edge"><title>Node11&#45;&gt;Node2</title>
<path fill="none" stroke="midnightblue" d="M519.579,-389.354C528.222,-386.427 536.949,-383.127 545,-379.5 568.266,-369.019 592.942,-353.517 610.048,-341.983"/>
<polygon fill="midnightblue" stroke="midnightblue" points="612.447,-344.582 618.715,-336.04 608.488,-338.808 612.447,-344.582"/>
</g>
<!-- Node11&#45;&gt;Node3 -->
<g id="edge13" class="edge"><title>Node11&#45;&gt;Node3</title>
<path fill="none" stroke="midnightblue" d="M533.164,-393.246C587.857,-384.347 662.793,-372.154 711.057,-364.301"/>
<polygon fill="midnightblue" stroke="midnightblue" points="711.626,-367.754 720.934,-362.694 710.502,-360.845 711.626,-367.754"/>
</g>
<!-- Node12&#45;&gt;Node3 -->
<g id="edge16" class="edge"><title>Node12&#45;&gt;Node3</title>
<path fill="none" stroke="midnightblue" d="M644.657,-251.305C666.059,-270.995 714.473,-315.535 740.921,-339.867"/>
<polygon fill="midnightblue" stroke="midnightblue" points="738.641,-342.525 748.37,-346.72 743.38,-337.374 738.641,-342.525"/>
</g>
<!-- Node13&#45;&gt;Node2 -->
<g id="edge22" class="edge"><title>Node13&#45;&gt;Node2</title>
<path fill="none" stroke="midnightblue" d="M313.369,-167.577C373.113,-184.831 469.124,-216.252 545,-258.5 571.197,-273.086 597.858,-295.232 614.637,-310.255"/>
<polygon fill="midnightblue" stroke="midnightblue" points="612.286,-312.847 622.036,-316.994 617,-307.672 612.286,-312.847"/>
</g>
<!-- Node14 -->
<g id="node14" class="node"><title>Node14</title>
<g id="a_node14"><a xlink:href="namespacebdm.html#ab69142f2c58bfb100d371ba95c8e92cb" target="_top" xlink:title="Gets the persistent object from the specified ROOT file. ">
<polygon fill="white" stroke="black" points="393,-73 393,-92 533,-92 533,-73 393,-73"/>
<text text-anchor="middle" x="463" y="-80" font-family="Helvetica,sans-Serif" font-size="10.00">bdm::GetPersistentObject</text>
</a>
</g>
</g>
<!-- Node13&#45;&gt;Node14 -->
<g id="edge18" class="edge"><title>Node13&#45;&gt;Node14</title>
<path fill="none" stroke="midnightblue" d="M320.488,-137.352C328.904,-134.513 337.282,-131.239 345,-127.5 362.762,-118.895 363.043,-109.691 381,-101.5 386.388,-99.0423 392.128,-96.8845 397.969,-94.9936"/>
<polygon fill="midnightblue" stroke="midnightblue" points="399.261,-98.261 407.849,-92.0573 397.266,-91.551 399.261,-98.261"/>
</g>
<!-- Node16 -->
<g id="node16" class="node"><title>Node16</title>
<g id="a_node16"><a xlink:href="classbdm_1_1IntegralTypeWrapper.html#a98db85b6051bac2f9379eda85701c8be" target="_top" xlink:title="bdm::IntegralTypeWrapper::Get">
<polygon fill="white" stroke="black" points="381,-111 381,-130 545,-130 545,-111 381,-111"/>
<text text-anchor="middle" x="463" y="-118" font-family="Helvetica,sans-Serif" font-size="10.00">bdm::IntegralTypeWrapper::Get</text>
</a>
</g>
</g>
<!-- Node13&#45;&gt;Node16 -->
<g id="edge21" class="edge"><title>Node13&#45;&gt;Node16</title>
<path fill="none" stroke="midnightblue" d="M345.128,-138.743C360.47,-136.349 376.25,-133.885 391.057,-131.574"/>
<polygon fill="midnightblue" stroke="midnightblue" points="391.794,-135.001 401.135,-130.001 390.715,-128.085 391.794,-135.001"/>
</g>
<!-- Node14&#45;&gt;Node5 -->
<g id="edge20" class="edge"><title>Node14&#45;&gt;Node5</title>
<path fill="none" stroke="midnightblue" d="M516.716,-92.0388C526.319,-94.5655 536.106,-97.685 545,-101.5 569.872,-112.168 595.441,-129.882 612.365,-142.735"/>
<polygon fill="midnightblue" stroke="midnightblue" points="610.332,-145.587 620.379,-148.95 614.622,-140.056 610.332,-145.587"/>
</g>
<!-- Node15 -->
<g id="node15" class="node"><title>Node15</title>
<g id="a_node15"><a xlink:href="namespacebdm.html#a52b5f1a0e2dac8df993214aee8678d51" target="_top" xlink:title="bdm::FileExists">
<polygon fill="white" stroke="black" points="589.5,-73 589.5,-92 676.5,-92 676.5,-73 589.5,-73"/>
<text text-anchor="middle" x="633" y="-80" font-family="Helvetica,sans-Serif" font-size="10.00">bdm::FileExists</text>
</a>
</g>
</g>
<!-- Node14&#45;&gt;Node15 -->
<g id="edge19" class="edge"><title>Node14&#45;&gt;Node15</title>
<path fill="none" stroke="midnightblue" d="M533.302,-82.5C548.576,-82.5 564.519,-82.5 579.025,-82.5"/>
<polygon fill="midnightblue" stroke="midnightblue" points="579.304,-86.0001 589.304,-82.5 579.304,-79.0001 579.304,-86.0001"/>
</g>
</g>
</svg>
