<?xml version="1.0" encoding="UTF-8" standalone="no"?>
<!DOCTYPE svg PUBLIC "-//W3C//DTD SVG 1.1//EN"
 "http://www.w3.org/Graphics/SVG/1.1/DTD/svg11.dtd">
<!-- Generated by graphviz version 2.38.0 (20140413.2041)
 -->
<!-- Title: bdm::BasicExporter::ExportIteration Pages: 1 -->
<svg width="316pt" height="165pt"
 viewBox="0.00 0.00 316.00 165.00" xmlns="http://www.w3.org/2000/svg" xmlns:xlink="http://www.w3.org/1999/xlink">
<g id="graph0" class="graph" transform="scale(1 1) rotate(0) translate(4 161)">
<title>bdm::BasicExporter::ExportIteration</title>
<polygon fill="white" stroke="none" points="-4,4 -4,-161 312,-161 312,4 -4,4"/>
<!-- Node1 -->
<g id="node1" class="node"><title>Node1</title>
<polygon fill="#bfbfbf" stroke="black" points="0,-63 0,-93 110,-93 110,-63 0,-63"/>
<text text-anchor="start" x="8" y="-81" font-family="Helvetica,sans-Serif" font-size="10.00">bdm::BasicExporter</text>
<text text-anchor="middle" x="55" y="-70" font-family="Helvetica,sans-Serif" font-size="10.00">::ExportIteration</text>
</g>
<!-- Node2 -->
<g id="node2" class="node"><title>Node2</title>
<g id="a_node2"><a xlink:href="classbdm_1_1Simulation.html#a67bdfef8ac06a741e287d73d2d941c63" target="_top" xlink:title="This function returns the currently active Simulation simulation. ">
<polygon fill="white" stroke="black" points="153,-137.5 153,-156.5 301,-156.5 301,-137.5 153,-137.5"/>
<text text-anchor="middle" x="227" y="-144.5" font-family="Helvetica,sans-Serif" font-size="10.00">bdm::Simulation::GetActive</text>
</a>
</g>
</g>
<!-- Node1&#45;&gt;Node2 -->
<g id="edge1" class="edge"><title>Node1&#45;&gt;Node2</title>
<path fill="none" stroke="midnightblue" d="M79.1974,-93.2209C96.8808,-104.236 122.171,-118.754 146,-128 152.438,-130.498 159.299,-132.731 166.195,-134.708"/>
<polygon fill="midnightblue" stroke="midnightblue" points="165.709,-138.202 176.275,-137.426 167.531,-131.444 165.709,-138.202"/>
</g>
<!-- Node3 -->
<g id="node3" class="node"><title>Node3</title>
<g id="a_node3"><a xlink:href="classbdm_1_1Simulation.html#a12410bfc9dec5d64d0ae3223a5c59385" target="_top" xlink:title="bdm::Simulation::GetResource\lManager">
<polygon fill="white" stroke="black" points="146,-88 146,-118 308,-118 308,-88 146,-88"/>
<text text-anchor="start" x="154" y="-106" font-family="Helvetica,sans-Serif" font-size="10.00">bdm::Simulation::GetResource</text>
<text text-anchor="middle" x="227" y="-95" font-family="Helvetica,sans-Serif" font-size="10.00">Manager</text>
</a>
</g>
</g>
<!-- Node1&#45;&gt;Node3 -->
<g id="edge2" class="edge"><title>Node1&#45;&gt;Node3</title>
<path fill="none" stroke="midnightblue" d="M110.256,-85.9789C118.517,-87.1936 127.225,-88.4742 136.004,-89.7653"/>
<polygon fill="midnightblue" stroke="midnightblue" points="135.524,-93.2322 145.926,-91.2245 136.542,-86.3067 135.524,-93.2322"/>
</g>
<!-- Node4 -->
<g id="node4" class="node"><title>Node4</title>
<g id="a_node4"><a xlink:href="classbdm_1_1ResourceManager.html#ac927a4f96a3283ac58f2ebc896cf7a28" target="_top" xlink:title="bdm::ResourceManager\l::ApplyOnAllElements">
<polygon fill="white" stroke="black" points="162,-39 162,-69 292,-69 292,-39 162,-39"/>
<text text-anchor="start" x="170" y="-57" font-family="Helvetica,sans-Serif" font-size="10.00">bdm::ResourceManager</text>
<text text-anchor="middle" x="227" y="-46" font-family="Helvetica,sans-Serif" font-size="10.00">::ApplyOnAllElements</text>
</a>
</g>
</g>
<!-- Node1&#45;&gt;Node4 -->
<g id="edge3" class="edge"><title>Node1&#45;&gt;Node4</title>
<path fill="none" stroke="midnightblue" d="M110.256,-70.3403C123.471,-68.4747 137.831,-66.4474 151.796,-64.4758"/>
<polygon fill="midnightblue" stroke="midnightblue" points="152.461,-67.9168 161.873,-63.0532 151.482,-60.9855 152.461,-67.9168"/>
</g>
<!-- Node5 -->
<g id="node5" class="node"><title>Node5</title>
<g id="a_node5"><a xlink:href="classbdm_1_1SimObject.html#a51ed88c5dc32cd38e4b4f17e6f13df3e" target="_top" xlink:title="bdm::SimObject::GetPosition">
<polygon fill="white" stroke="black" points="149.5,-0.5 149.5,-19.5 304.5,-19.5 304.5,-0.5 149.5,-0.5"/>
<text text-anchor="middle" x="227" y="-7.5" font-family="Helvetica,sans-Serif" font-size="10.00">bdm::SimObject::GetPosition</text>
</a>
</g>
</g>
<!-- Node1&#45;&gt;Node5 -->
<g id="edge4" class="edge"><title>Node1&#45;&gt;Node5</title>
<path fill="none" stroke="midnightblue" d="M80.4391,-62.8512C98.116,-52.427 122.863,-38.9065 146,-30 153.599,-27.0748 161.77,-24.4622 169.884,-22.1677"/>
<polygon fill="midnightblue" stroke="midnightblue" points="170.962,-25.5024 179.711,-19.527 169.145,-18.7422 170.962,-25.5024"/>
</g>
</g>
</svg>
