<?xml version="1.0" encoding="UTF-8" standalone="no"?>
<!DOCTYPE svg PUBLIC "-//W3C//DTD SVG 1.1//EN"
 "http://www.w3.org/Graphics/SVG/1.1/DTD/svg11.dtd">
<!-- Generated by graphviz version 2.38.0 (20140413.2041)
 -->
<!-- Title: bdm::experimental::neuroscience::NeuriteElement::InitializeSplitOrBranching Pages: 1 -->
<svg width="1017pt" height="900pt"
 viewBox="0.00 0.00 1017.00 900.00" xmlns="http://www.w3.org/2000/svg" xmlns:xlink="http://www.w3.org/1999/xlink">
<g id="graph0" class="graph" transform="scale(1 1) rotate(0) translate(4 896)">
<title>bdm::experimental::neuroscience::NeuriteElement::InitializeSplitOrBranching</title>
<polygon fill="white" stroke="none" points="-4,4 -4,-896 1013,-896 1013,4 -4,4"/>
<!-- Node1 -->
<g id="node1" class="node"><title>Node1</title>
<polygon fill="#bfbfbf" stroke="black" points="0,-491.5 0,-532.5 161,-532.5 161,-491.5 0,-491.5"/>
<text text-anchor="start" x="8" y="-520.5" font-family="Helvetica,sans-Serif" font-size="10.00">bdm::experimental::</text>
<text text-anchor="start" x="8" y="-509.5" font-family="Helvetica,sans-Serif" font-size="10.00">neuroscience::NeuriteElement</text>
<text text-anchor="middle" x="80.5" y="-498.5" font-family="Helvetica,sans-Serif" font-size="10.00">::InitializeSplitOrBranching</text>
</g>
<!-- Node2 -->
<g id="node2" class="node"><title>Node2</title>
<g id="a_node2"><a xlink:href="classbdm_1_1Simulation.html#a67bdfef8ac06a741e287d73d2d941c63" target="_top" xlink:title="This function returns the currently active Simulation simulation. ">
<polygon fill="white" stroke="black" points="218.5,-872.5 218.5,-891.5 366.5,-891.5 366.5,-872.5 218.5,-872.5"/>
<text text-anchor="middle" x="292.5" y="-879.5" font-family="Helvetica,sans-Serif" font-size="10.00">bdm::Simulation::GetActive</text>
</a>
</g>
</g>
<!-- Node1&#45;&gt;Node2 -->
<g id="edge1" class="edge"><title>Node1&#45;&gt;Node2</title>
<path fill="none" stroke="midnightblue" d="M81.5754,-532.83C82.9991,-593.826 95.9815,-773.384 197,-863 200.642,-866.231 204.677,-868.973 208.968,-871.295"/>
<polygon fill="midnightblue" stroke="midnightblue" points="207.546,-874.494 218.093,-875.496 210.472,-868.135 207.546,-874.494"/>
</g>
<!-- Node3 -->
<g id="node3" class="node"><title>Node3</title>
<g id="a_node3"><a xlink:href="classbdm_1_1Simulation.html#a9ef1e078599527eca03cc93fc4ed7228" target="_top" xlink:title="bdm::Simulation::GetParam">
<polygon fill="white" stroke="black" points="218,-834.5 218,-853.5 367,-853.5 367,-834.5 218,-834.5"/>
<text text-anchor="middle" x="292.5" y="-841.5" font-family="Helvetica,sans-Serif" font-size="10.00">bdm::Simulation::GetParam</text>
</a>
</g>
</g>
<!-- Node1&#45;&gt;Node3 -->
<g id="edge2" class="edge"><title>Node1&#45;&gt;Node3</title>
<path fill="none" stroke="midnightblue" d="M82.5049,-532.623C86.4266,-588.996 105.466,-746.665 197,-825 200.528,-828.019 204.402,-830.608 208.505,-832.822"/>
<polygon fill="midnightblue" stroke="midnightblue" points="207.259,-836.102 217.807,-837.097 210.182,-829.741 207.259,-836.102"/>
</g>
<!-- Node4 -->
<g id="node4" class="node"><title>Node4</title>
<g id="a_node4"><a xlink:href="structbdm_1_1Param.html#a89007026454b633d6df71cf51e4ad774" target="_top" xlink:title="bdm::Param::GetModuleParam">
<polygon fill="white" stroke="black" points="210.5,-796.5 210.5,-815.5 374.5,-815.5 374.5,-796.5 210.5,-796.5"/>
<text text-anchor="middle" x="292.5" y="-803.5" font-family="Helvetica,sans-Serif" font-size="10.00">bdm::Param::GetModuleParam</text>
</a>
</g>
</g>
<!-- Node1&#45;&gt;Node4 -->
<g id="edge3" class="edge"><title>Node1&#45;&gt;Node4</title>
<path fill="none" stroke="midnightblue" d="M83.692,-532.768C90.3223,-584.533 115.045,-719.937 197,-787 199.04,-788.669 201.186,-790.205 203.419,-791.617"/>
<polygon fill="midnightblue" stroke="midnightblue" points="201.949,-794.801 212.411,-796.474 205.276,-788.642 201.949,-794.801"/>
</g>
<!-- Node8 -->
<g id="node8" class="node"><title>Node8</title>
<g id="a_node8"><a xlink:href="classbdm_1_1experimental_1_1neuroscience_1_1NeuriteElement.html#a1c093ffea9be9788c9013af7b6954b7b" target="_top" xlink:title="bdm::experimental::\lneuroscience::NeuriteElement\l::SetDiameter">
<polygon fill="white" stroke="black" points="424,-540.5 424,-581.5 585,-581.5 585,-540.5 424,-540.5"/>
<text text-anchor="start" x="432" y="-569.5" font-family="Helvetica,sans-Serif" font-size="10.00">bdm::experimental::</text>
<text text-anchor="start" x="432" y="-558.5" font-family="Helvetica,sans-Serif" font-size="10.00">neuroscience::NeuriteElement</text>
<text text-anchor="middle" x="504.5" y="-547.5" font-family="Helvetica,sans-Serif" font-size="10.00">::SetDiameter</text>
</a>
</g>
</g>
<!-- Node1&#45;&gt;Node8 -->
<g id="edge7" class="edge"><title>Node1&#45;&gt;Node8</title>
<path fill="none" stroke="midnightblue" d="M161.211,-515.288C223.266,-518.56 311.426,-524.767 388,-536 396.48,-537.244 405.269,-538.748 414.039,-540.393"/>
<polygon fill="midnightblue" stroke="midnightblue" points="413.433,-543.841 423.916,-542.305 414.763,-536.969 413.433,-543.841"/>
</g>
<!-- Node11 -->
<g id="node11" class="node"><title>Node11</title>
<g id="a_node11"><a xlink:href="classbdm_1_1experimental_1_1neuroscience_1_1NeuriteElement.html#a147f33a4a4a0e03f4cfa069a42e9d384" target="_top" xlink:title="Should not be used, since the actual length depends on the geometry. ">
<polygon fill="white" stroke="black" points="212,-736.5 212,-777.5 373,-777.5 373,-736.5 212,-736.5"/>
<text text-anchor="start" x="220" y="-765.5" font-family="Helvetica,sans-Serif" font-size="10.00">bdm::experimental::</text>
<text text-anchor="start" x="220" y="-754.5" font-family="Helvetica,sans-Serif" font-size="10.00">neuroscience::NeuriteElement</text>
<text text-anchor="middle" x="292.5" y="-743.5" font-family="Helvetica,sans-Serif" font-size="10.00">::SetActualLength</text>
</a>
</g>
</g>
<!-- Node1&#45;&gt;Node11 -->
<g id="edge10" class="edge"><title>Node1&#45;&gt;Node11</title>
<path fill="none" stroke="midnightblue" d="M86.8406,-532.502C98.9935,-575.113 132.762,-673.699 197,-727 198.97,-728.635 201.031,-730.181 203.165,-731.644"/>
<polygon fill="midnightblue" stroke="midnightblue" points="201.362,-734.644 211.719,-736.878 205.016,-728.673 201.362,-734.644"/>
</g>
<!-- Node12 -->
<g id="node12" class="node"><title>Node12</title>
<g id="a_node12"><a xlink:href="classbdm_1_1experimental_1_1neuroscience_1_1NeuriteElement.html#a60719868fdde513ddc1f09cd56f76e76" target="_top" xlink:title="return end of neurite element position ">
<polygon fill="white" stroke="black" points="212,-354.5 212,-395.5 373,-395.5 373,-354.5 212,-354.5"/>
<text text-anchor="start" x="220" y="-383.5" font-family="Helvetica,sans-Serif" font-size="10.00">bdm::experimental::</text>
<text text-anchor="start" x="220" y="-372.5" font-family="Helvetica,sans-Serif" font-size="10.00">neuroscience::NeuriteElement</text>
<text text-anchor="middle" x="292.5" y="-361.5" font-family="Helvetica,sans-Serif" font-size="10.00">::GetMassLocation</text>
</a>
</g>
</g>
<!-- Node1&#45;&gt;Node12 -->
<g id="edge12" class="edge"><title>Node1&#45;&gt;Node12</title>
<path fill="none" stroke="midnightblue" d="M100.158,-491.496C121.639,-468.917 158.889,-432.796 197,-410 203.193,-406.295 209.845,-402.876 216.645,-399.746"/>
<polygon fill="midnightblue" stroke="midnightblue" points="218.225,-402.875 225.982,-395.657 215.418,-396.463 218.225,-402.875"/>
</g>
<!-- Node13 -->
<g id="node13" class="node"><title>Node13</title>
<g id="a_node13"><a xlink:href="classbdm_1_1experimental_1_1neuroscience_1_1NeuriteElement.html#a19d483f07b0d92e6b629353a50ae511a" target="_top" xlink:title="bdm::experimental::\lneuroscience::NeuriteElement\l::GetSpringAxis">
<polygon fill="white" stroke="black" points="424,-0.5 424,-41.5 585,-41.5 585,-0.5 424,-0.5"/>
<text text-anchor="start" x="432" y="-29.5" font-family="Helvetica,sans-Serif" font-size="10.00">bdm::experimental::</text>
<text text-anchor="start" x="432" y="-18.5" font-family="Helvetica,sans-Serif" font-size="10.00">neuroscience::NeuriteElement</text>
<text text-anchor="middle" x="504.5" y="-7.5" font-family="Helvetica,sans-Serif" font-size="10.00">::GetSpringAxis</text>
</a>
</g>
</g>
<!-- Node1&#45;&gt;Node13 -->
<g id="edge13" class="edge"><title>Node1&#45;&gt;Node13</title>
<path fill="none" stroke="midnightblue" d="M110.517,-491.241C133.086,-476.029 165.721,-456.016 197,-444 277.878,-412.931 329.877,-469.252 388,-405 441.046,-346.361 375.791,-113.677 424,-51 424.59,-50.2326 425.202,-49.4849 425.835,-48.7563"/>
<polygon fill="midnightblue" stroke="midnightblue" points="428.475,-51.0767 433.328,-41.6587 423.661,-45.9947 428.475,-51.0767"/>
</g>
<!-- Node14 -->
<g id="node14" class="node"><title>Node14</title>
<g id="a_node14"><a xlink:href="classbdm_1_1experimental_1_1neuroscience_1_1NeuriteElement.html#a568d90493f5244b0c91fe7d490dd07ee" target="_top" xlink:title="bdm::experimental::\lneuroscience::NeuriteElement\l::GetRestingLength">
<polygon fill="white" stroke="black" points="212,-294.5 212,-335.5 373,-335.5 373,-294.5 212,-294.5"/>
<text text-anchor="start" x="220" y="-323.5" font-family="Helvetica,sans-Serif" font-size="10.00">bdm::experimental::</text>
<text text-anchor="start" x="220" y="-312.5" font-family="Helvetica,sans-Serif" font-size="10.00">neuroscience::NeuriteElement</text>
<text text-anchor="middle" x="292.5" y="-301.5" font-family="Helvetica,sans-Serif" font-size="10.00">::GetRestingLength</text>
</a>
</g>
</g>
<!-- Node1&#45;&gt;Node14 -->
<g id="edge14" class="edge"><title>Node1&#45;&gt;Node14</title>
<path fill="none" stroke="midnightblue" d="M90.338,-491.25C106.398,-455.993 143.707,-384.395 197,-345 199.059,-343.478 201.198,-342.032 203.4,-340.657"/>
<polygon fill="midnightblue" stroke="midnightblue" points="205.187,-343.668 212.175,-335.705 201.746,-337.571 205.187,-343.668"/>
</g>
<!-- Node15 -->
<g id="node15" class="node"><title>Node15</title>
<g id="a_node15"><a xlink:href="structbdm_1_1Math.html#a80c38cbb986a66639c5ff0ccfce5674e" target="_top" xlink:title="bdm::Math::Subtract">
<polygon fill="white" stroke="black" points="446.5,-600.5 446.5,-619.5 562.5,-619.5 562.5,-600.5 446.5,-600.5"/>
<text text-anchor="middle" x="504.5" y="-607.5" font-family="Helvetica,sans-Serif" font-size="10.00">bdm::Math::Subtract</text>
</a>
</g>
</g>
<!-- Node1&#45;&gt;Node15 -->
<g id="edge15" class="edge"><title>Node1&#45;&gt;Node15</title>
<path fill="none" stroke="midnightblue" d="M161.27,-528.942C173.232,-531.376 185.431,-533.799 197,-536 281.629,-552.099 307.37,-538.667 388,-569 405.55,-575.602 406.668,-583.844 424,-591 430.169,-593.547 436.754,-595.8 443.395,-597.78"/>
<polygon fill="midnightblue" stroke="midnightblue" points="442.55,-601.177 453.122,-600.489 444.428,-594.434 442.55,-601.177"/>
</g>
<!-- Node16 -->
<g id="node16" class="node"><title>Node16</title>
<g id="a_node16"><a xlink:href="structbdm_1_1Math.html#aed3c71a56eb984be1e7c318fa2056fb2" target="_top" xlink:title="bdm::Math::ScalarMult">
<polygon fill="white" stroke="black" points="442,-638.5 442,-657.5 567,-657.5 567,-638.5 442,-638.5"/>
<text text-anchor="middle" x="504.5" y="-645.5" font-family="Helvetica,sans-Serif" font-size="10.00">bdm::Math::ScalarMult</text>
</a>
</g>
</g>
<!-- Node1&#45;&gt;Node16 -->
<g id="edge16" class="edge"><title>Node1&#45;&gt;Node16</title>
<path fill="none" stroke="midnightblue" d="M94.5707,-532.573C113.404,-560.159 151.013,-608.083 197,-629 271.741,-662.996 367.484,-662.964 431.908,-657.543"/>
<polygon fill="midnightblue" stroke="midnightblue" points="432.328,-661.02 441.971,-656.631 431.696,-654.048 432.328,-661.02"/>
</g>
<!-- Node17 -->
<g id="node17" class="node"><title>Node17</title>
<g id="a_node17"><a xlink:href="classbdm_1_1experimental_1_1neuroscience_1_1NeuriteElement.html#aead616f5a89e06140b09137719c9b1e4" target="_top" xlink:title="bdm::experimental::\lneuroscience::NeuriteElement\l::SetPosition">
<polygon fill="white" stroke="black" points="212,-676.5 212,-717.5 373,-717.5 373,-676.5 212,-676.5"/>
<text text-anchor="start" x="220" y="-705.5" font-family="Helvetica,sans-Serif" font-size="10.00">bdm::experimental::</text>
<text text-anchor="start" x="220" y="-694.5" font-family="Helvetica,sans-Serif" font-size="10.00">neuroscience::NeuriteElement</text>
<text text-anchor="middle" x="292.5" y="-683.5" font-family="Helvetica,sans-Serif" font-size="10.00">::SetPosition</text>
</a>
</g>
</g>
<!-- Node1&#45;&gt;Node17 -->
<g id="edge17" class="edge"><title>Node1&#45;&gt;Node17</title>
<path fill="none" stroke="midnightblue" d="M92.3579,-532.674C110.148,-564.676 148.433,-626.241 197,-662 201.993,-665.676 207.414,-669.005 213.049,-672.012"/>
<polygon fill="midnightblue" stroke="midnightblue" points="211.537,-675.169 222.051,-676.478 214.648,-668.898 211.537,-675.169"/>
</g>
<!-- Node20 -->
<g id="node20" class="node"><title>Node20</title>
<g id="a_node20"><a xlink:href="classbdm_1_1experimental_1_1neuroscience_1_1NeuriteElement.html#a0e743406a0bbd9bfb817873965b06f2b" target="_top" xlink:title="bdm::experimental::\lneuroscience::NeuriteElement::Copy">
<polygon fill="white" stroke="black" points="197,-453 197,-483 388,-483 388,-453 197,-453"/>
<text text-anchor="start" x="205" y="-471" font-family="Helvetica,sans-Serif" font-size="10.00">bdm::experimental::</text>
<text text-anchor="middle" x="292.5" y="-460" font-family="Helvetica,sans-Serif" font-size="10.00">neuroscience::NeuriteElement::Copy</text>
</a>
</g>
</g>
<!-- Node1&#45;&gt;Node20 -->
<g id="edge22" class="edge"><title>Node1&#45;&gt;Node20</title>
<path fill="none" stroke="midnightblue" d="M161.191,-495.303C177.142,-491.961 193.921,-488.445 209.934,-485.09"/>
<polygon fill="midnightblue" stroke="midnightblue" points="210.721,-488.501 219.791,-483.025 209.286,-481.65 210.721,-488.501"/>
</g>
<!-- Node29 -->
<g id="node29" class="node"><title>Node29</title>
<g id="a_node29"><a xlink:href="classbdm_1_1experimental_1_1neuroscience_1_1NeuriteElement.html#abda5e9dc78e20d18abab7d913d9192ad" target="_top" xlink:title="bdm::experimental::\lneuroscience::NeuriteElement\l::UpdatePosition">
<polygon fill="white" stroke="black" points="212,-578.5 212,-619.5 373,-619.5 373,-578.5 212,-578.5"/>
<text text-anchor="start" x="220" y="-607.5" font-family="Helvetica,sans-Serif" font-size="10.00">bdm::experimental::</text>
<text text-anchor="start" x="220" y="-596.5" font-family="Helvetica,sans-Serif" font-size="10.00">neuroscience::NeuriteElement</text>
<text text-anchor="middle" x="292.5" y="-585.5" font-family="Helvetica,sans-Serif" font-size="10.00">::UpdatePosition</text>
</a>
</g>
</g>
<!-- Node1&#45;&gt;Node29 -->
<g id="edge34" class="edge"><title>Node1&#45;&gt;Node29</title>
<path fill="none" stroke="midnightblue" d="M125.345,-532.59C146.797,-542.445 173.09,-554.203 197,-564 205.831,-567.618 215.19,-571.284 224.45,-574.812"/>
<polygon fill="midnightblue" stroke="midnightblue" points="223.446,-578.175 234.038,-578.432 225.919,-571.626 223.446,-578.175"/>
</g>
<!-- Node30 -->
<g id="node30" class="node"><title>Node30</title>
<g id="a_node30"><a xlink:href="classbdm_1_1experimental_1_1neuroscience_1_1NeuriteElement.html#a98a7416619df50d7d095ee6b81cda392" target="_top" xlink:title="bdm::experimental::\lneuroscience::NeuriteElement\l::SetMother">
<polygon fill="white" stroke="black" points="212,-234.5 212,-275.5 373,-275.5 373,-234.5 212,-234.5"/>
<text text-anchor="start" x="220" y="-263.5" font-family="Helvetica,sans-Serif" font-size="10.00">bdm::experimental::</text>
<text text-anchor="start" x="220" y="-252.5" font-family="Helvetica,sans-Serif" font-size="10.00">neuroscience::NeuriteElement</text>
<text text-anchor="middle" x="292.5" y="-241.5" font-family="Helvetica,sans-Serif" font-size="10.00">::SetMother</text>
</a>
</g>
</g>
<!-- Node1&#45;&gt;Node30 -->
<g id="edge37" class="edge"><title>Node1&#45;&gt;Node30</title>
<path fill="none" stroke="midnightblue" d="M86.2351,-491.384C97.4967,-446.993 130.081,-341.797 197,-285 198.952,-283.343 200.996,-281.778 203.116,-280.298"/>
<polygon fill="midnightblue" stroke="midnightblue" points="204.979,-283.261 211.624,-275.009 201.284,-277.316 204.979,-283.261"/>
</g>
<!-- Node31 -->
<g id="node31" class="node"><title>Node31</title>
<g id="a_node31"><a xlink:href="classbdm_1_1experimental_1_1neuroscience_1_1NeuriteElement.html#a35e9590cb1f939c9cf1b8ad2992ffc2b" target="_top" xlink:title="bdm::experimental::\lneuroscience::NeuriteElement\l::GetMother">
<polygon fill="white" stroke="black" points="212,-174.5 212,-215.5 373,-215.5 373,-174.5 212,-174.5"/>
<text text-anchor="start" x="220" y="-203.5" font-family="Helvetica,sans-Serif" font-size="10.00">bdm::experimental::</text>
<text text-anchor="start" x="220" y="-192.5" font-family="Helvetica,sans-Serif" font-size="10.00">neuroscience::NeuriteElement</text>
<text text-anchor="middle" x="292.5" y="-181.5" font-family="Helvetica,sans-Serif" font-size="10.00">::GetMother</text>
</a>
</g>
</g>
<!-- Node1&#45;&gt;Node31 -->
<g id="edge38" class="edge"><title>Node1&#45;&gt;Node31</title>
<path fill="none" stroke="midnightblue" d="M83.8136,-491.282C90.7704,-438.872 116.272,-299.874 197,-225 198.933,-223.208 200.972,-221.522 203.099,-219.938"/>
<polygon fill="midnightblue" stroke="midnightblue" points="205.243,-222.717 211.692,-214.311 201.408,-216.861 205.243,-222.717"/>
</g>
<!-- Node32 -->
<g id="node32" class="node"><title>Node32</title>
<g id="a_node32"><a xlink:href="classbdm_1_1experimental_1_1neuroscience_1_1NeuriteElement.html#aba132084fe8fbbd54da535120f0a9d6e" target="_top" xlink:title="bdm::experimental::\lneuroscience::NeuriteElement\l::SetDaughterLeft">
<polygon fill="white" stroke="black" points="212,-114.5 212,-155.5 373,-155.5 373,-114.5 212,-114.5"/>
<text text-anchor="start" x="220" y="-143.5" font-family="Helvetica,sans-Serif" font-size="10.00">bdm::experimental::</text>
<text text-anchor="start" x="220" y="-132.5" font-family="Helvetica,sans-Serif" font-size="10.00">neuroscience::NeuriteElement</text>
<text text-anchor="middle" x="292.5" y="-121.5" font-family="Helvetica,sans-Serif" font-size="10.00">::SetDaughterLeft</text>
</a>
</g>
</g>
<!-- Node1&#45;&gt;Node32 -->
<g id="edge39" class="edge"><title>Node1&#45;&gt;Node32</title>
<path fill="none" stroke="midnightblue" d="M82.1517,-491.484C85.1611,-432.147 102.064,-258.623 197,-165 198.93,-163.096 200.981,-161.313 203.129,-159.644"/>
<polygon fill="midnightblue" stroke="midnightblue" points="205.53,-162.246 211.856,-153.747 201.611,-156.446 205.53,-162.246"/>
</g>
<!-- Node33 -->
<g id="node33" class="node"><title>Node33</title>
<g id="a_node33"><a xlink:href="classbdm_1_1SimObject.html#a60953d3c8387583076920e4e2fd8af2d" target="_top" xlink:title="Return simulation object pointer. ">
<polygon fill="white" stroke="black" points="221,-76.5 221,-95.5 364,-95.5 364,-76.5 221,-76.5"/>
<text text-anchor="middle" x="292.5" y="-83.5" font-family="Helvetica,sans-Serif" font-size="10.00">bdm::SimObject::GetSoPtr</text>
</a>
</g>
</g>
<!-- Node1&#45;&gt;Node33 -->
<g id="edge40" class="edge"><title>Node1&#45;&gt;Node33</title>
<path fill="none" stroke="midnightblue" d="M84.4939,-491.352C95.7944,-416.277 138.222,-159.358 197,-105 201.223,-101.094 206.016,-97.8949 211.15,-95.2825"/>
<polygon fill="midnightblue" stroke="midnightblue" points="212.894,-98.343 220.709,-91.1885 210.138,-91.9083 212.894,-98.343"/>
</g>
<!-- Node5 -->
<g id="node5" class="node"><title>Node5</title>
<g id="a_node5"><a xlink:href="namespacebdm.html#af2d26ce9677cacc590ac483f86b0aa5e" target="_top" xlink:title="bdm::bdm_static_cast">
<polygon fill="white" stroke="black" points="443,-812.5 443,-831.5 566,-831.5 566,-812.5 443,-812.5"/>
<text text-anchor="middle" x="504.5" y="-819.5" font-family="Helvetica,sans-Serif" font-size="10.00">bdm::bdm_static_cast</text>
</a>
</g>
</g>
<!-- Node4&#45;&gt;Node5 -->
<g id="edge4" class="edge"><title>Node4&#45;&gt;Node5</title>
<path fill="none" stroke="midnightblue" d="M374.691,-812.186C393.779,-813.64 413.974,-815.179 432.57,-816.596"/>
<polygon fill="midnightblue" stroke="midnightblue" points="432.483,-820.099 442.72,-817.369 433.014,-813.119 432.483,-820.099"/>
</g>
<!-- Node6 -->
<g id="node6" class="node"><title>Node6</title>
<g id="a_node6"><a xlink:href="namespacebdm.html#a2fa839a2549004e92e23175955de8ae9" target="_top" xlink:title="Concatenates all arguments into a string. Equivalent to streaming all arguments into a stringstream a...">
<polygon fill="white" stroke="black" points="682,-812.5 682,-831.5 760,-831.5 760,-812.5 682,-812.5"/>
<text text-anchor="middle" x="721" y="-819.5" font-family="Helvetica,sans-Serif" font-size="10.00">bdm::Concat</text>
</a>
</g>
</g>
<!-- Node5&#45;&gt;Node6 -->
<g id="edge5" class="edge"><title>Node5&#45;&gt;Node6</title>
<path fill="none" stroke="midnightblue" d="M566.107,-822C599.498,-822 640.381,-822 671.615,-822"/>
<polygon fill="midnightblue" stroke="midnightblue" points="671.812,-825.5 681.812,-822 671.812,-818.5 671.812,-825.5"/>
</g>
<!-- Node7 -->
<g id="node7" class="node"><title>Node7</title>
<g id="a_node7"><a xlink:href="namespacebdm_1_1detail.html#a16e0361b1aefd0958218781e4e3bbf12" target="_top" xlink:title="Appends the closing string to the message. ">
<polygon fill="white" stroke="black" points="857,-812.5 857,-831.5 1009,-831.5 1009,-812.5 857,-812.5"/>
<text text-anchor="middle" x="933" y="-819.5" font-family="Helvetica,sans-Serif" font-size="10.00">bdm::detail::ConcatNextPart</text>
</a>
</g>
</g>
<!-- Node6&#45;&gt;Node7 -->
<g id="edge6" class="edge"><title>Node6&#45;&gt;Node7</title>
<path fill="none" stroke="midnightblue" d="M760.029,-822C784.241,-822 816.606,-822 846.725,-822"/>
<polygon fill="midnightblue" stroke="midnightblue" points="846.839,-825.5 856.839,-822 846.838,-818.5 846.839,-825.5"/>
</g>
<!-- Node9 -->
<g id="node9" class="node"><title>Node9</title>
<g id="a_node9"><a xlink:href="classbdm_1_1SimObject.html#a5caaa66cd96966b2d545e331c1440789" target="_top" xlink:title="bdm::SimObject::SetRunDisplacement\lForAllNextTs">
<polygon fill="white" stroke="black" points="621,-641 621,-671 821,-671 821,-641 621,-641"/>
<text text-anchor="start" x="629" y="-659" font-family="Helvetica,sans-Serif" font-size="10.00">bdm::SimObject::SetRunDisplacement</text>
<text text-anchor="middle" x="721" y="-648" font-family="Helvetica,sans-Serif" font-size="10.00">ForAllNextTs</text>
</a>
</g>
</g>
<!-- Node8&#45;&gt;Node9 -->
<g id="edge8" class="edge"><title>Node8&#45;&gt;Node9</title>
<path fill="none" stroke="midnightblue" d="M561.775,-581.531C569.619,-584.598 577.542,-587.805 585,-591 618.046,-605.158 654.757,-622.974 681.545,-636.371"/>
<polygon fill="midnightblue" stroke="midnightblue" points="680.077,-639.551 690.584,-640.913 683.22,-633.296 680.077,-639.551"/>
</g>
<!-- Node10 -->
<g id="node10" class="node"><title>Node10</title>
<g id="a_node10"><a xlink:href="classbdm_1_1experimental_1_1neuroscience_1_1NeuriteElement.html#a771c4d37ee536add440c183cbf54822f" target="_top" xlink:title="Recomputes volume, after diameter has been changed. ">
<polygon fill="white" stroke="black" points="640.5,-540.5 640.5,-581.5 801.5,-581.5 801.5,-540.5 640.5,-540.5"/>
<text text-anchor="start" x="648.5" y="-569.5" font-family="Helvetica,sans-Serif" font-size="10.00">bdm::experimental::</text>
<text text-anchor="start" x="648.5" y="-558.5" font-family="Helvetica,sans-Serif" font-size="10.00">neuroscience::NeuriteElement</text>
<text text-anchor="middle" x="721" y="-547.5" font-family="Helvetica,sans-Serif" font-size="10.00">::UpdateVolume</text>
</a>
</g>
</g>
<!-- Node8&#45;&gt;Node10 -->
<g id="edge9" class="edge"><title>Node8&#45;&gt;Node10</title>
<path fill="none" stroke="midnightblue" d="M585.067,-561C599.695,-561 615.06,-561 629.969,-561"/>
<polygon fill="midnightblue" stroke="midnightblue" points="630.204,-564.5 640.204,-561 630.204,-557.5 630.204,-564.5"/>
</g>
<!-- Node11&#45;&gt;Node9 -->
<g id="edge11" class="edge"><title>Node11&#45;&gt;Node9</title>
<path fill="none" stroke="midnightblue" d="M373.22,-774.298C433.202,-783.757 516.5,-789.202 585,-765 633.134,-747.994 676.7,-705.737 700.653,-679.113"/>
<polygon fill="midnightblue" stroke="midnightblue" points="703.463,-681.217 707.44,-671.397 698.207,-676.594 703.463,-681.217"/>
</g>
<!-- Node17&#45;&gt;Node16 -->
<g id="edge21" class="edge"><title>Node17&#45;&gt;Node16</title>
<path fill="none" stroke="midnightblue" d="M373.191,-678.405C399.893,-672.175 428.916,-665.403 452.78,-659.835"/>
<polygon fill="midnightblue" stroke="midnightblue" points="453.727,-663.208 462.67,-657.527 452.136,-656.391 453.727,-663.208"/>
</g>
<!-- Node18 -->
<g id="node18" class="node"><title>Node18</title>
<g id="a_node18"><a xlink:href="classbdm_1_1experimental_1_1neuroscience_1_1NeuriteElement.html#acf9ee1b0abf433b2d0acdb588c1ad6ca" target="_top" xlink:title="bdm::experimental::\lneuroscience::NeuriteElement\l::SetMassLocation">
<polygon fill="white" stroke="black" points="424,-676.5 424,-717.5 585,-717.5 585,-676.5 424,-676.5"/>
<text text-anchor="start" x="432" y="-705.5" font-family="Helvetica,sans-Serif" font-size="10.00">bdm::experimental::</text>
<text text-anchor="start" x="432" y="-694.5" font-family="Helvetica,sans-Serif" font-size="10.00">neuroscience::NeuriteElement</text>
<text text-anchor="middle" x="504.5" y="-683.5" font-family="Helvetica,sans-Serif" font-size="10.00">::SetMassLocation</text>
</a>
</g>
</g>
<!-- Node17&#45;&gt;Node18 -->
<g id="edge18" class="edge"><title>Node17&#45;&gt;Node18</title>
<path fill="none" stroke="midnightblue" d="M373.191,-697C386.413,-697 400.205,-697 413.657,-697"/>
<polygon fill="midnightblue" stroke="midnightblue" points="413.863,-700.5 423.863,-697 413.863,-693.5 413.863,-700.5"/>
</g>
<!-- Node19 -->
<g id="node19" class="node"><title>Node19</title>
<g id="a_node19"><a xlink:href="structbdm_1_1Math.html#a6e410e3dc82bab5dd53e0157df3587b2" target="_top" xlink:title="bdm::Math::Add">
<polygon fill="white" stroke="black" points="458,-736.5 458,-755.5 551,-755.5 551,-736.5 458,-736.5"/>
<text text-anchor="middle" x="504.5" y="-743.5" font-family="Helvetica,sans-Serif" font-size="10.00">bdm::Math::Add</text>
</a>
</g>
</g>
<!-- Node17&#45;&gt;Node19 -->
<g id="edge20" class="edge"><title>Node17&#45;&gt;Node19</title>
<path fill="none" stroke="midnightblue" d="M373.191,-715.595C399.893,-721.825 428.916,-728.597 452.78,-734.165"/>
<polygon fill="midnightblue" stroke="midnightblue" points="452.136,-737.609 462.67,-736.473 453.727,-730.792 452.136,-737.609"/>
</g>
<!-- Node18&#45;&gt;Node9 -->
<g id="edge19" class="edge"><title>Node18&#45;&gt;Node9</title>
<path fill="none" stroke="midnightblue" d="M585.067,-681.791C600.129,-678.912 615.973,-675.884 631.295,-672.955"/>
<polygon fill="midnightblue" stroke="midnightblue" points="632.111,-676.363 641.276,-671.047 630.797,-669.487 632.111,-676.363"/>
</g>
<!-- Node20&#45;&gt;Node8 -->
<g id="edge24" class="edge"><title>Node20&#45;&gt;Node8</title>
<path fill="none" stroke="midnightblue" d="M354.65,-483.113C366.117,-487.129 377.721,-492.05 388,-498 406.786,-508.873 405.512,-519.629 424,-531 426.764,-532.7 429.641,-534.33 432.59,-535.888"/>
<polygon fill="midnightblue" stroke="midnightblue" points="431.098,-539.055 441.613,-540.35 434.201,-532.78 431.098,-539.055"/>
</g>
<!-- Node20&#45;&gt;Node13 -->
<g id="edge31" class="edge"><title>Node20&#45;&gt;Node13</title>
<path fill="none" stroke="midnightblue" d="M370.364,-452.749C377.07,-448.871 383.141,-444.032 388,-438 442.18,-370.736 371.636,-119.688 424,-51 424.587,-50.2301 425.196,-49.48 425.826,-48.7491"/>
<polygon fill="midnightblue" stroke="midnightblue" points="428.469,-51.0648 433.293,-41.6317 423.639,-45.9978 428.469,-51.0648"/>
</g>
<!-- Node21 -->
<g id="node21" class="node"><title>Node21</title>
<g id="a_node21"><a xlink:href="classbdm_1_1experimental_1_1neuroscience_1_1NeuriteElement.html#a1299a6b177778cbfeea3186fcc85a461" target="_top" xlink:title="bdm::experimental::\lneuroscience::NeuriteElement\l::GetAdherence">
<polygon fill="white" stroke="black" points="424,-420.5 424,-461.5 585,-461.5 585,-420.5 424,-420.5"/>
<text text-anchor="start" x="432" y="-449.5" font-family="Helvetica,sans-Serif" font-size="10.00">bdm::experimental::</text>
<text text-anchor="start" x="432" y="-438.5" font-family="Helvetica,sans-Serif" font-size="10.00">neuroscience::NeuriteElement</text>
<text text-anchor="middle" x="504.5" y="-427.5" font-family="Helvetica,sans-Serif" font-size="10.00">::GetAdherence</text>
</a>
</g>
</g>
<!-- Node20&#45;&gt;Node21 -->
<g id="edge23" class="edge"><title>Node20&#45;&gt;Node21</title>
<path fill="none" stroke="midnightblue" d="M388.056,-455.843C396.664,-454.736 405.365,-453.617 413.927,-452.516"/>
<polygon fill="midnightblue" stroke="midnightblue" points="414.428,-455.981 423.9,-451.234 413.535,-449.038 414.428,-455.981"/>
</g>
<!-- Node22 -->
<g id="node22" class="node"><title>Node22</title>
<g id="a_node22"><a xlink:href="classbdm_1_1experimental_1_1neuroscience_1_1NeuriteElement.html#aa7d04abcf0a6111fd76850a69665a1b0" target="_top" xlink:title="bdm::experimental::\lneuroscience::NeuriteElement\l::GetDiameter">
<polygon fill="white" stroke="black" points="424,-360.5 424,-401.5 585,-401.5 585,-360.5 424,-360.5"/>
<text text-anchor="start" x="432" y="-389.5" font-family="Helvetica,sans-Serif" font-size="10.00">bdm::experimental::</text>
<text text-anchor="start" x="432" y="-378.5" font-family="Helvetica,sans-Serif" font-size="10.00">neuroscience::NeuriteElement</text>
<text text-anchor="middle" x="504.5" y="-367.5" font-family="Helvetica,sans-Serif" font-size="10.00">::GetDiameter</text>
</a>
</g>
</g>
<!-- Node20&#45;&gt;Node22 -->
<g id="edge25" class="edge"><title>Node20&#45;&gt;Node22</title>
<path fill="none" stroke="midnightblue" d="M351.705,-452.912C364.001,-448.797 376.675,-443.831 388,-438 405.782,-428.845 406.469,-420.627 424,-411 427.229,-409.227 430.584,-407.515 434.01,-405.868"/>
<polygon fill="midnightblue" stroke="midnightblue" points="435.567,-409.004 443.207,-401.665 432.657,-402.638 435.567,-409.004"/>
</g>
<!-- Node23 -->
<g id="node23" class="node"><title>Node23</title>
<g id="a_node23"><a xlink:href="classbdm_1_1experimental_1_1neuroscience_1_1NeuriteElement.html#afaf01464ff020ae35c89dfe1417ab3cd" target="_top" xlink:title="bdm::experimental::\lneuroscience::NeuriteElement\l::GetXAxis">
<polygon fill="white" stroke="black" points="424,-300.5 424,-341.5 585,-341.5 585,-300.5 424,-300.5"/>
<text text-anchor="start" x="432" y="-329.5" font-family="Helvetica,sans-Serif" font-size="10.00">bdm::experimental::</text>
<text text-anchor="start" x="432" y="-318.5" font-family="Helvetica,sans-Serif" font-size="10.00">neuroscience::NeuriteElement</text>
<text text-anchor="middle" x="504.5" y="-307.5" font-family="Helvetica,sans-Serif" font-size="10.00">::GetXAxis</text>
</a>
</g>
</g>
<!-- Node20&#45;&gt;Node23 -->
<g id="edge26" class="edge"><title>Node20&#45;&gt;Node23</title>
<path fill="none" stroke="midnightblue" d="M364.851,-452.966C373.294,-449.073 381.281,-444.171 388,-438 418.819,-409.693 393.948,-380.12 424,-351 425.126,-349.909 426.295,-348.857 427.502,-347.843"/>
<polygon fill="midnightblue" stroke="midnightblue" points="429.94,-350.397 435.961,-341.679 425.818,-344.74 429.94,-350.397"/>
</g>
<!-- Node24 -->
<g id="node24" class="node"><title>Node24</title>
<g id="a_node24"><a xlink:href="classbdm_1_1experimental_1_1neuroscience_1_1NeuriteElement.html#aeaa531586987b33195b0288d5fdddde9" target="_top" xlink:title="bdm::experimental::\lneuroscience::NeuriteElement\l::GetYAxis">
<polygon fill="white" stroke="black" points="424,-240.5 424,-281.5 585,-281.5 585,-240.5 424,-240.5"/>
<text text-anchor="start" x="432" y="-269.5" font-family="Helvetica,sans-Serif" font-size="10.00">bdm::experimental::</text>
<text text-anchor="start" x="432" y="-258.5" font-family="Helvetica,sans-Serif" font-size="10.00">neuroscience::NeuriteElement</text>
<text text-anchor="middle" x="504.5" y="-247.5" font-family="Helvetica,sans-Serif" font-size="10.00">::GetYAxis</text>
</a>
</g>
</g>
<!-- Node20&#45;&gt;Node24 -->
<g id="edge27" class="edge"><title>Node20&#45;&gt;Node24</title>
<path fill="none" stroke="midnightblue" d="M367.64,-452.961C375.222,-449.063 382.24,-444.161 388,-438 433.938,-388.866 379.392,-341.344 424,-291 424.881,-290.006 425.797,-289.045 426.747,-288.116"/>
<polygon fill="midnightblue" stroke="midnightblue" points="429.145,-290.674 434.607,-281.596 424.676,-285.287 429.145,-290.674"/>
</g>
<!-- Node25 -->
<g id="node25" class="node"><title>Node25</title>
<g id="a_node25"><a xlink:href="classbdm_1_1experimental_1_1neuroscience_1_1NeuriteElement.html#a070d521a12f549c5430cd84987ccc51d" target="_top" xlink:title="bdm::experimental::\lneuroscience::NeuriteElement\l::GetZAxis">
<polygon fill="white" stroke="black" points="424,-180.5 424,-221.5 585,-221.5 585,-180.5 424,-180.5"/>
<text text-anchor="start" x="432" y="-209.5" font-family="Helvetica,sans-Serif" font-size="10.00">bdm::experimental::</text>
<text text-anchor="start" x="432" y="-198.5" font-family="Helvetica,sans-Serif" font-size="10.00">neuroscience::NeuriteElement</text>
<text text-anchor="middle" x="504.5" y="-187.5" font-family="Helvetica,sans-Serif" font-size="10.00">::GetZAxis</text>
</a>
</g>
</g>
<!-- Node20&#45;&gt;Node25 -->
<g id="edge28" class="edge"><title>Node20&#45;&gt;Node25</title>
<path fill="none" stroke="midnightblue" d="M368.974,-452.848C376.126,-448.962 382.679,-444.094 388,-438 449.419,-367.66 364.482,-302.956 424,-231 424.729,-230.119 425.486,-229.264 426.27,-228.434"/>
<polygon fill="midnightblue" stroke="midnightblue" points="428.8,-230.868 433.97,-221.62 424.161,-225.626 428.8,-230.868"/>
</g>
<!-- Node26 -->
<g id="node26" class="node"><title>Node26</title>
<g id="a_node26"><a xlink:href="classbdm_1_1experimental_1_1neuroscience_1_1NeuriteElement.html#aefdee94fb7bb9b149756ebbf6640a692" target="_top" xlink:title="bdm::experimental::\lneuroscience::NeuriteElement\l::SetSpringAxis">
<polygon fill="white" stroke="black" points="424,-480.5 424,-521.5 585,-521.5 585,-480.5 424,-480.5"/>
<text text-anchor="start" x="432" y="-509.5" font-family="Helvetica,sans-Serif" font-size="10.00">bdm::experimental::</text>
<text text-anchor="start" x="432" y="-498.5" font-family="Helvetica,sans-Serif" font-size="10.00">neuroscience::NeuriteElement</text>
<text text-anchor="middle" x="504.5" y="-487.5" font-family="Helvetica,sans-Serif" font-size="10.00">::SetSpringAxis</text>
</a>
</g>
</g>
<!-- Node20&#45;&gt;Node26 -->
<g id="edge29" class="edge"><title>Node20&#45;&gt;Node26</title>
<path fill="none" stroke="midnightblue" d="M388.056,-482.859C396.664,-484.211 405.365,-485.579 413.927,-486.924"/>
<polygon fill="midnightblue" stroke="midnightblue" points="413.478,-490.397 423.9,-488.491 414.564,-483.481 413.478,-490.397"/>
</g>
<!-- Node27 -->
<g id="node27" class="node"><title>Node27</title>
<g id="a_node27"><a xlink:href="classbdm_1_1experimental_1_1neuroscience_1_1NeuriteElement.html#a4781a45baa8e14b19f18cfe3ceb9df51" target="_top" xlink:title="bdm::experimental::\lneuroscience::NeuriteElement\l::GetBranchOrder">
<polygon fill="white" stroke="black" points="424,-120.5 424,-161.5 585,-161.5 585,-120.5 424,-120.5"/>
<text text-anchor="start" x="432" y="-149.5" font-family="Helvetica,sans-Serif" font-size="10.00">bdm::experimental::</text>
<text text-anchor="start" x="432" y="-138.5" font-family="Helvetica,sans-Serif" font-size="10.00">neuroscience::NeuriteElement</text>
<text text-anchor="middle" x="504.5" y="-127.5" font-family="Helvetica,sans-Serif" font-size="10.00">::GetBranchOrder</text>
</a>
</g>
</g>
<!-- Node20&#45;&gt;Node27 -->
<g id="edge32" class="edge"><title>Node20&#45;&gt;Node27</title>
<path fill="none" stroke="midnightblue" d="M369.661,-452.797C376.593,-448.915 382.907,-444.063 388,-438 465.021,-346.318 349.456,-264.707 424,-171 424.603,-170.242 425.227,-169.504 425.871,-168.784"/>
<polygon fill="midnightblue" stroke="midnightblue" points="428.497,-171.123 433.461,-161.763 423.743,-165.984 428.497,-171.123"/>
</g>
<!-- Node28 -->
<g id="node28" class="node"><title>Node28</title>
<g id="a_node28"><a xlink:href="classbdm_1_1experimental_1_1neuroscience_1_1NeuriteElement.html#afb0468699970f0937480b3d651c8452c" target="_top" xlink:title="bdm::experimental::\lneuroscience::NeuriteElement\l::GetSpringConstant">
<polygon fill="white" stroke="black" points="424,-60.5 424,-101.5 585,-101.5 585,-60.5 424,-60.5"/>
<text text-anchor="start" x="432" y="-89.5" font-family="Helvetica,sans-Serif" font-size="10.00">bdm::experimental::</text>
<text text-anchor="start" x="432" y="-78.5" font-family="Helvetica,sans-Serif" font-size="10.00">neuroscience::NeuriteElement</text>
<text text-anchor="middle" x="504.5" y="-67.5" font-family="Helvetica,sans-Serif" font-size="10.00">::GetSpringConstant</text>
</a>
</g>
</g>
<!-- Node20&#45;&gt;Node28 -->
<g id="edge33" class="edge"><title>Node20&#45;&gt;Node28</title>
<path fill="none" stroke="midnightblue" d="M369.811,-452.921C376.715,-449.016 382.981,-444.124 388,-438 480.677,-324.912 334.378,-226.523 424,-111 424.593,-110.235 425.209,-109.49 425.844,-108.763"/>
<polygon fill="midnightblue" stroke="midnightblue" points="428.481,-111.088 433.362,-101.685 423.682,-105.992 428.481,-111.088"/>
</g>
<!-- Node26&#45;&gt;Node9 -->
<g id="edge30" class="edge"><title>Node26&#45;&gt;Node9</title>
<path fill="none" stroke="midnightblue" d="M571.299,-521.621C576.17,-524.389 580.81,-527.502 585,-531 608.873,-550.929 599.461,-568.569 621,-591 638.29,-609.005 661.446,-624.552 681.016,-635.922"/>
<polygon fill="midnightblue" stroke="midnightblue" points="679.294,-638.969 689.721,-640.846 682.741,-632.876 679.294,-638.969"/>
</g>
<!-- Node29&#45;&gt;Node15 -->
<g id="edge35" class="edge"><title>Node29&#45;&gt;Node15</title>
<path fill="none" stroke="midnightblue" d="M373.191,-603.174C394.036,-604.266 416.296,-605.432 436.411,-606.486"/>
<polygon fill="midnightblue" stroke="midnightblue" points="436.236,-609.981 446.406,-607.009 436.603,-602.991 436.236,-609.981"/>
</g>
<!-- Node29&#45;&gt;Node16 -->
<g id="edge36" class="edge"><title>Node29&#45;&gt;Node16</title>
<path fill="none" stroke="midnightblue" d="M373.191,-617.595C399.893,-623.825 428.916,-630.597 452.78,-636.165"/>
<polygon fill="midnightblue" stroke="midnightblue" points="452.136,-639.609 462.67,-638.473 453.727,-632.792 452.136,-639.609"/>
</g>
</g>
</svg>
