<?xml version="1.0" encoding="UTF-8" standalone="no"?>
<!DOCTYPE svg PUBLIC "-//W3C//DTD SVG 1.1//EN"
 "http://www.w3.org/Graphics/SVG/1.1/DTD/svg11.dtd">
<!-- Generated by graphviz version 2.38.0 (20140413.2041)
 -->
<!-- Title: bdm::MathArray::Norm Pages: 1 -->
<svg width="1119pt" height="529pt"
 viewBox="0.00 0.00 1119.00 528.65" xmlns="http://www.w3.org/2000/svg" xmlns:xlink="http://www.w3.org/1999/xlink">
<g id="graph0" class="graph" transform="scale(1 1) rotate(0) translate(4 524.645)">
<title>bdm::MathArray::Norm</title>
<polygon fill="white" stroke="none" points="-4,4 -4,-524.645 1115,-524.645 1115,4 -4,4"/>
<!-- Node1 -->
<g id="node1" class="node"><title>Node1</title>
<polygon fill="#bfbfbf" stroke="black" points="0,-390.5 0,-409.5 126,-409.5 126,-390.5 0,-390.5"/>
<text text-anchor="middle" x="63" y="-397.5" font-family="Helvetica,sans-Serif" font-size="10.00">bdm::MathArray::Norm</text>
</g>
<!-- Node2 -->
<g id="node2" class="node"><title>Node2</title>
<g id="a_node2"><a xlink:href="classbdm_1_1MathArray.html#a4035a0dd466cdbdc2ea0b1f581a0e3af" target="_top" xlink:title="bdm::MathArray\&lt; double,\l 3 \&gt;::Normalize">
<polygon fill="white" stroke="black" points="172.5,-467 172.5,-497 312.5,-497 312.5,-467 172.5,-467"/>
<text text-anchor="start" x="180.5" y="-485" font-family="Helvetica,sans-Serif" font-size="10.00">bdm::MathArray&lt; double,</text>
<text text-anchor="middle" x="242.5" y="-474" font-family="Helvetica,sans-Serif" font-size="10.00"> 3 &gt;::Normalize</text>
</a>
</g>
</g>
<!-- Node1&#45;&gt;Node2 -->
<g id="edge1" class="edge"><title>Node1&#45;&gt;Node2</title>
<path fill="none" stroke="midnightblue" d="M86.518,-415.039C105.906,-427.507 134.953,-445.06 162,-457 170.206,-460.623 179.101,-463.957 187.869,-466.93"/>
<polygon fill="midnightblue" stroke="midnightblue" points="88.3687,-412.068 78.0796,-409.541 84.5471,-417.933 88.3687,-412.068"/>
</g>
<!-- Node3 -->
<g id="node3" class="node"><title>Node3</title>
<g id="a_node3"><a xlink:href="structbdm_1_1Math.html#af686ccdb5c4a9b25e6c5177bf8d8c4eb" target="_top" xlink:title="bdm::Math::GetL2Distance">
<polygon fill="white" stroke="black" points="170,-428.5 170,-447.5 315,-447.5 315,-428.5 170,-428.5"/>
<text text-anchor="middle" x="242.5" y="-435.5" font-family="Helvetica,sans-Serif" font-size="10.00">bdm::Math::GetL2Distance</text>
</a>
</g>
</g>
<!-- Node1&#45;&gt;Node3 -->
<g id="edge2" class="edge"><title>Node1&#45;&gt;Node3</title>
<path fill="none" stroke="midnightblue" d="M118.897,-411.753C143.995,-417.126 173.343,-423.409 197.031,-428.48"/>
<polygon fill="midnightblue" stroke="midnightblue" points="119.302,-408.26 108.791,-409.589 117.836,-415.105 119.302,-408.26"/>
</g>
<!-- Node8 -->
<g id="node8" class="node"><title>Node8</title>
<g id="a_node8"><a xlink:href="classbdm_1_1experimental_1_1neuroscience_1_1NeuriteElement.html#abf625dd222c87d47f071f53275cf0f06" target="_top" xlink:title="bdm::experimental::\lneuroscience::NeuriteElement\l::CalculateDisplacement">
<polygon fill="white" stroke="black" points="941.5,-378.5 941.5,-419.5 1102.5,-419.5 1102.5,-378.5 941.5,-378.5"/>
<text text-anchor="start" x="949.5" y="-407.5" font-family="Helvetica,sans-Serif" font-size="10.00">bdm::experimental::</text>
<text text-anchor="start" x="949.5" y="-396.5" font-family="Helvetica,sans-Serif" font-size="10.00">neuroscience::NeuriteElement</text>
<text text-anchor="middle" x="1022" y="-385.5" font-family="Helvetica,sans-Serif" font-size="10.00">::CalculateDisplacement</text>
</a>
</g>
</g>
<!-- Node1&#45;&gt;Node8 -->
<g id="edge17" class="edge"><title>Node1&#45;&gt;Node8</title>
<path fill="none" stroke="midnightblue" d="M136.349,-400C214.28,-400 341.923,-400 452,-400 452,-400 452,-400 667.5,-400 761.552,-400 869.68,-399.642 941.326,-399.354"/>
<polygon fill="midnightblue" stroke="midnightblue" points="136.159,-396.5 126.159,-400 136.159,-403.5 136.159,-396.5"/>
</g>
<!-- Node10 -->
<g id="node10" class="node"><title>Node10</title>
<g id="a_node10"><a xlink:href="structbdm_1_1Math.html#a357af2bdea31bf521ee128bbde6b1fef" target="_top" xlink:title="bdm::Math::AngleRadian">
<polygon fill="white" stroke="black" points="175.5,-341.5 175.5,-360.5 309.5,-360.5 309.5,-341.5 175.5,-341.5"/>
<text text-anchor="middle" x="242.5" y="-348.5" font-family="Helvetica,sans-Serif" font-size="10.00">bdm::Math::AngleRadian</text>
</a>
</g>
</g>
<!-- Node1&#45;&gt;Node10 -->
<g id="edge12" class="edge"><title>Node1&#45;&gt;Node10</title>
<path fill="none" stroke="midnightblue" d="M108.593,-387.69C139.069,-379.277 178.867,-368.29 206.942,-360.54"/>
<polygon fill="midnightblue" stroke="midnightblue" points="107.353,-384.401 98.6452,-390.436 109.216,-391.149 107.353,-384.401"/>
</g>
<!-- Node14 -->
<g id="node14" class="node"><title>Node14</title>
<g id="a_node14"><a xlink:href="classbdm_1_1experimental_1_1neuroscience_1_1NeuriteElement.html#af836a93915d5c9bb63a931b1f2c4b2cb" target="_top" xlink:title="bdm::experimental::\lneuroscience::NeuriteElement\l::UpdateLocalCoordinateAxis">
<polygon fill="white" stroke="black" points="162,-210.5 162,-251.5 323,-251.5 323,-210.5 162,-210.5"/>
<text text-anchor="start" x="170" y="-239.5" font-family="Helvetica,sans-Serif" font-size="10.00">bdm::experimental::</text>
<text text-anchor="start" x="170" y="-228.5" font-family="Helvetica,sans-Serif" font-size="10.00">neuroscience::NeuriteElement</text>
<text text-anchor="middle" x="242.5" y="-217.5" font-family="Helvetica,sans-Serif" font-size="10.00">::UpdateLocalCoordinateAxis</text>
</a>
</g>
</g>
<!-- Node1&#45;&gt;Node14 -->
<g id="edge18" class="edge"><title>Node1&#45;&gt;Node14</title>
<path fill="none" stroke="midnightblue" d="M81.4933,-383.344C114.103,-352.296 184.092,-285.659 219.711,-251.745"/>
<polygon fill="midnightblue" stroke="midnightblue" points="78.8807,-380.999 74.0517,-390.43 83.7076,-386.069 78.8807,-380.999"/>
</g>
<!-- Node4 -->
<g id="node4" class="node"><title>Node4</title>
<g id="a_node4"><a xlink:href="classbdm_1_1DefaultForce.html#a006a29579ff3366bd50256b636366c0d" target="_top" xlink:title="bdm::DefaultForce::\lForceOnACylinderFromASphere">
<polygon fill="white" stroke="black" points="369.5,-449 369.5,-479 536.5,-479 536.5,-449 369.5,-449"/>
<text text-anchor="start" x="377.5" y="-467" font-family="Helvetica,sans-Serif" font-size="10.00">bdm::DefaultForce::</text>
<text text-anchor="middle" x="453" y="-456" font-family="Helvetica,sans-Serif" font-size="10.00">ForceOnACylinderFromASphere</text>
</a>
</g>
</g>
<!-- Node3&#45;&gt;Node4 -->
<g id="edge3" class="edge"><title>Node3&#45;&gt;Node4</title>
<path fill="none" stroke="midnightblue" d="M325.188,-448.186C339.699,-449.996 354.824,-451.882 369.361,-453.695"/>
<polygon fill="midnightblue" stroke="midnightblue" points="325.61,-444.712 315.254,-446.948 324.744,-451.658 325.61,-444.712"/>
</g>
<!-- Node5 -->
<g id="node5" class="node"><title>Node5</title>
<g id="a_node5"><a xlink:href="classbdm_1_1DefaultForce.html#abb1552006fd25a7cecba96d8a8f79a88" target="_top" xlink:title="bdm::DefaultForce::\lGetForce">
<polygon fill="white" stroke="black" points="786,-431 786,-461 897,-461 897,-431 786,-431"/>
<text text-anchor="start" x="794" y="-449" font-family="Helvetica,sans-Serif" font-size="10.00">bdm::DefaultForce::</text>
<text text-anchor="middle" x="841.5" y="-438" font-family="Helvetica,sans-Serif" font-size="10.00">GetForce</text>
</a>
</g>
</g>
<!-- Node4&#45;&gt;Node5 -->
<g id="edge4" class="edge"><title>Node4&#45;&gt;Node5</title>
<path fill="none" stroke="midnightblue" d="M547.259,-459.657C621.915,-456.18 724.051,-451.423 785.983,-448.539"/>
<polygon fill="midnightblue" stroke="midnightblue" points="546.74,-456.177 536.914,-460.139 547.066,-463.169 546.74,-456.177"/>
</g>
<!-- Node6 -->
<g id="node6" class="node"><title>Node6</title>
<g id="a_node6"><a xlink:href="classbdm_1_1DefaultForce.html#aad27c4a1adbaf42aa49d9eff6c982404" target="_top" xlink:title="bdm::DefaultForce::\l~DefaultForce">
<polygon fill="white" stroke="black" points="966.5,-477 966.5,-507 1077.5,-507 1077.5,-477 966.5,-477"/>
<text text-anchor="start" x="974.5" y="-495" font-family="Helvetica,sans-Serif" font-size="10.00">bdm::DefaultForce::</text>
<text text-anchor="middle" x="1022" y="-484" font-family="Helvetica,sans-Serif" font-size="10.00">~DefaultForce</text>
</a>
</g>
</g>
<!-- Node4&#45;&gt;Node6 -->
<g id="edge11" class="edge"><title>Node4&#45;&gt;Node6</title>
<path fill="none" stroke="midnightblue" d="M496.558,-482.901C521.257,-492.832 553.27,-503.963 583,-509 719.367,-532.102 882.875,-513.832 966.251,-501.291"/>
<polygon fill="midnightblue" stroke="midnightblue" points="497.712,-479.591 487.132,-479.027 495.051,-486.066 497.712,-479.591"/>
</g>
<!-- Node9 -->
<g id="node9" class="node"><title>Node9</title>
<g id="a_node9"><a xlink:href="classbdm_1_1DefaultForce.html#a1e3dbcc10569dd5be79470d59425be8c" target="_top" xlink:title="bdm::DefaultForce::\lForceOnASphereFromACylinder">
<polygon fill="white" stroke="black" points="583,-469 583,-499 750,-499 750,-469 583,-469"/>
<text text-anchor="start" x="591" y="-487" font-family="Helvetica,sans-Serif" font-size="10.00">bdm::DefaultForce::</text>
<text text-anchor="middle" x="666.5" y="-476" font-family="Helvetica,sans-Serif" font-size="10.00">ForceOnASphereFromACylinder</text>
</a>
</g>
</g>
<!-- Node4&#45;&gt;Node9 -->
<g id="edge8" class="edge"><title>Node4&#45;&gt;Node9</title>
<path fill="none" stroke="midnightblue" d="M546.722,-472.768C558.757,-473.906 571.021,-475.066 582.877,-476.187"/>
<polygon fill="midnightblue" stroke="midnightblue" points="546.965,-469.276 536.68,-471.818 546.306,-476.244 546.965,-469.276"/>
</g>
<!-- Node5&#45;&gt;Node6 -->
<g id="edge5" class="edge"><title>Node5&#45;&gt;Node6</title>
<path fill="none" stroke="midnightblue" d="M906.727,-462.552C926.199,-467.569 947.399,-473.033 966.193,-477.876"/>
<polygon fill="midnightblue" stroke="midnightblue" points="907.583,-459.158 897.026,-460.051 905.836,-465.936 907.583,-459.158"/>
</g>
<!-- Node7 -->
<g id="node7" class="node"><title>Node7</title>
<g id="a_node7"><a xlink:href="classbdm_1_1Cell.html#a8657b7accd8b647cd6772108a58bedfb" target="_top" xlink:title="bdm::Cell::CalculateDisplacement">
<polygon fill="white" stroke="black" points="933,-438.5 933,-457.5 1111,-457.5 1111,-438.5 933,-438.5"/>
<text text-anchor="middle" x="1022" y="-445.5" font-family="Helvetica,sans-Serif" font-size="10.00">bdm::Cell::CalculateDisplacement</text>
</a>
</g>
</g>
<!-- Node5&#45;&gt;Node7 -->
<g id="edge6" class="edge"><title>Node5&#45;&gt;Node7</title>
<path fill="none" stroke="midnightblue" d="M907.096,-446.724C915.499,-446.818 924.218,-446.916 932.923,-447.013"/>
<polygon fill="midnightblue" stroke="midnightblue" points="907.064,-443.223 897.026,-446.611 906.986,-450.223 907.064,-443.223"/>
</g>
<!-- Node5&#45;&gt;Node8 -->
<g id="edge7" class="edge"><title>Node5&#45;&gt;Node8</title>
<path fill="none" stroke="midnightblue" d="M906.7,-429.096C918.415,-426.011 930.757,-422.761 942.825,-419.584"/>
<polygon fill="midnightblue" stroke="midnightblue" points="905.805,-425.712 897.026,-431.643 907.587,-432.481 905.805,-425.712"/>
</g>
<!-- Node9&#45;&gt;Node5 -->
<g id="edge9" class="edge"><title>Node9&#45;&gt;Node5</title>
<path fill="none" stroke="midnightblue" d="M745.702,-466.823C759.291,-463.838 773.157,-460.792 785.94,-457.984"/>
<polygon fill="midnightblue" stroke="midnightblue" points="744.89,-463.417 735.874,-468.981 746.392,-470.254 744.89,-463.417"/>
</g>
<!-- Node9&#45;&gt;Node6 -->
<g id="edge10" class="edge"><title>Node9&#45;&gt;Node6</title>
<path fill="none" stroke="midnightblue" d="M760.717,-486.11C826.235,-487.592 911.639,-489.525 966.41,-490.765"/>
<polygon fill="midnightblue" stroke="midnightblue" points="760.457,-482.603 750.38,-485.876 760.298,-489.601 760.457,-482.603"/>
</g>
<!-- Node11 -->
<g id="node11" class="node"><title>Node11</title>
<g id="a_node11"><a xlink:href="classbdm_1_1experimental_1_1neuroscience_1_1NeuriteElement.html#a1e7176b59cbf2b878e01dc62b8a10115" target="_top" xlink:title="TODO. ">
<polygon fill="white" stroke="black" points="372.5,-270.5 372.5,-311.5 533.5,-311.5 533.5,-270.5 372.5,-270.5"/>
<text text-anchor="start" x="380.5" y="-299.5" font-family="Helvetica,sans-Serif" font-size="10.00">bdm::experimental::</text>
<text text-anchor="start" x="380.5" y="-288.5" font-family="Helvetica,sans-Serif" font-size="10.00">neuroscience::NeuriteElement</text>
<text text-anchor="middle" x="453" y="-277.5" font-family="Helvetica,sans-Serif" font-size="10.00">::InitializeNeuriteBifurcation</text>
</a>
</g>
</g>
<!-- Node10&#45;&gt;Node11 -->
<g id="edge13" class="edge"><title>Node10&#45;&gt;Node11</title>
<path fill="none" stroke="midnightblue" d="M286.495,-338.627C313.644,-330.815 349.382,-320.53 380.698,-311.518"/>
<polygon fill="midnightblue" stroke="midnightblue" points="285.18,-335.364 276.537,-341.493 287.115,-342.091 285.18,-335.364"/>
</g>
<!-- Node13 -->
<g id="node13" class="node"><title>Node13</title>
<g id="a_node13"><a xlink:href="classbdm_1_1experimental_1_1neuroscience_1_1NeuriteElement.html#a0d7ed9517327903c80f1dee197de0721" target="_top" xlink:title="bdm::experimental::\lneuroscience::NeuriteElement\l::InitializeSideExtensionOrBranching">
<polygon fill="white" stroke="black" points="359,-330.5 359,-371.5 547,-371.5 547,-330.5 359,-330.5"/>
<text text-anchor="start" x="367" y="-359.5" font-family="Helvetica,sans-Serif" font-size="10.00">bdm::experimental::</text>
<text text-anchor="start" x="367" y="-348.5" font-family="Helvetica,sans-Serif" font-size="10.00">neuroscience::NeuriteElement</text>
<text text-anchor="middle" x="453" y="-337.5" font-family="Helvetica,sans-Serif" font-size="10.00">::InitializeSideExtensionOrBranching</text>
</a>
</g>
</g>
<!-- Node10&#45;&gt;Node13 -->
<g id="edge15" class="edge"><title>Node10&#45;&gt;Node13</title>
<path fill="none" stroke="midnightblue" d="M319.802,-351C332.507,-351 345.81,-351 358.877,-351"/>
<polygon fill="midnightblue" stroke="midnightblue" points="319.757,-347.5 309.757,-351 319.757,-354.5 319.757,-347.5"/>
</g>
<!-- Node12 -->
<g id="node12" class="node"><title>Node12</title>
<g id="a_node12"><a xlink:href="classbdm_1_1experimental_1_1neuroscience_1_1NeuriteElement.html#abb2101f3b2f4bff7c03f40b4e95f227d" target="_top" xlink:title="TODO. ">
<polygon fill="white" stroke="black" points="586,-270.5 586,-311.5 747,-311.5 747,-270.5 586,-270.5"/>
<text text-anchor="start" x="594" y="-299.5" font-family="Helvetica,sans-Serif" font-size="10.00">bdm::experimental::</text>
<text text-anchor="start" x="594" y="-288.5" font-family="Helvetica,sans-Serif" font-size="10.00">neuroscience::NeuriteElement</text>
<text text-anchor="middle" x="666.5" y="-277.5" font-family="Helvetica,sans-Serif" font-size="10.00">::NeuriteElement</text>
</a>
</g>
</g>
<!-- Node11&#45;&gt;Node12 -->
<g id="edge14" class="edge"><title>Node11&#45;&gt;Node12</title>
<path fill="none" stroke="midnightblue" d="M543.772,-291C557.774,-291 572.159,-291 585.914,-291"/>
<polygon fill="midnightblue" stroke="midnightblue" points="543.658,-287.5 533.658,-291 543.658,-294.5 543.658,-287.5"/>
</g>
<!-- Node13&#45;&gt;Node12 -->
<g id="edge16" class="edge"><title>Node13&#45;&gt;Node12</title>
<path fill="none" stroke="midnightblue" d="M536.197,-327.682C554.967,-322.357 574.78,-316.736 593.104,-311.538"/>
<polygon fill="midnightblue" stroke="midnightblue" points="535.156,-324.339 526.49,-330.435 537.066,-331.073 535.156,-324.339"/>
</g>
<!-- Node14&#45;&gt;Node11 -->
<g id="edge27" class="edge"><title>Node14&#45;&gt;Node11</title>
<path fill="none" stroke="midnightblue" d="M324.786,-254.392C343.214,-259.695 362.65,-265.288 380.631,-270.462"/>
<polygon fill="midnightblue" stroke="midnightblue" points="325.54,-250.967 314.962,-251.565 323.604,-257.694 325.54,-250.967"/>
</g>
<!-- Node14&#45;&gt;Node13 -->
<g id="edge28" class="edge"><title>Node14&#45;&gt;Node13</title>
<path fill="none" stroke="midnightblue" d="M273.018,-258.759C295.227,-278.406 327.187,-304.154 359,-321 365.447,-324.414 372.352,-327.527 379.379,-330.345"/>
<polygon fill="midnightblue" stroke="midnightblue" points="275.075,-255.902 265.296,-251.825 270.398,-261.11 275.075,-255.902"/>
</g>
<!-- Node15 -->
<g id="node15" class="node"><title>Node15</title>
<g id="a_node15"><a xlink:href="classbdm_1_1experimental_1_1neuroscience_1_1NeuriteElement.html#aeb2f33d46f31511625648808bbb7bce3" target="_top" xlink:title="bdm::experimental::\lneuroscience::NeuriteElement\l::MovePointMass">
<polygon fill="white" stroke="black" points="372.5,-150.5 372.5,-191.5 533.5,-191.5 533.5,-150.5 372.5,-150.5"/>
<text text-anchor="start" x="380.5" y="-179.5" font-family="Helvetica,sans-Serif" font-size="10.00">bdm::experimental::</text>
<text text-anchor="start" x="380.5" y="-168.5" font-family="Helvetica,sans-Serif" font-size="10.00">neuroscience::NeuriteElement</text>
<text text-anchor="middle" x="453" y="-157.5" font-family="Helvetica,sans-Serif" font-size="10.00">::MovePointMass</text>
</a>
</g>
</g>
<!-- Node14&#45;&gt;Node15 -->
<g id="edge19" class="edge"><title>Node14&#45;&gt;Node15</title>
<path fill="none" stroke="midnightblue" d="M324.786,-207.608C343.214,-202.305 362.65,-196.712 380.631,-191.538"/>
<polygon fill="midnightblue" stroke="midnightblue" points="323.604,-204.306 314.962,-210.435 325.54,-211.033 323.604,-204.306"/>
</g>
<!-- Node17 -->
<g id="node17" class="node"><title>Node17</title>
<g id="a_node17"><a xlink:href="classbdm_1_1experimental_1_1neuroscience_1_1NeuriteElement.html#a199634d081be87a650d5cd8b51d9f64a" target="_top" xlink:title="bdm::experimental::\lneuroscience::NeuriteElement\l::ApplyDisplacement">
<polygon fill="white" stroke="black" points="372.5,-90.5 372.5,-131.5 533.5,-131.5 533.5,-90.5 372.5,-90.5"/>
<text text-anchor="start" x="380.5" y="-119.5" font-family="Helvetica,sans-Serif" font-size="10.00">bdm::experimental::</text>
<text text-anchor="start" x="380.5" y="-108.5" font-family="Helvetica,sans-Serif" font-size="10.00">neuroscience::NeuriteElement</text>
<text text-anchor="middle" x="453" y="-97.5" font-family="Helvetica,sans-Serif" font-size="10.00">::ApplyDisplacement</text>
</a>
</g>
</g>
<!-- Node14&#45;&gt;Node17 -->
<g id="edge21" class="edge"><title>Node14&#45;&gt;Node17</title>
<path fill="none" stroke="midnightblue" d="M273.018,-203.241C295.227,-183.594 327.187,-157.846 359,-141 365.447,-137.586 372.352,-134.473 379.379,-131.655"/>
<polygon fill="midnightblue" stroke="midnightblue" points="270.398,-200.89 265.296,-210.175 275.075,-206.098 270.398,-200.89"/>
</g>
<!-- Node18 -->
<g id="node18" class="node"><title>Node18</title>
<g id="a_node18"><a xlink:href="classbdm_1_1experimental_1_1neuroscience_1_1NeuriteElement.html#a4066c356a9be52560bf671f5f14219b1" target="_top" xlink:title="bdm::experimental::\lneuroscience::NeuriteElement\l::RemoveProximalNeuriteElement">
<polygon fill="white" stroke="black" points="364.5,-30.5 364.5,-71.5 541.5,-71.5 541.5,-30.5 364.5,-30.5"/>
<text text-anchor="start" x="372.5" y="-59.5" font-family="Helvetica,sans-Serif" font-size="10.00">bdm::experimental::</text>
<text text-anchor="start" x="372.5" y="-48.5" font-family="Helvetica,sans-Serif" font-size="10.00">neuroscience::NeuriteElement</text>
<text text-anchor="middle" x="453" y="-37.5" font-family="Helvetica,sans-Serif" font-size="10.00">::RemoveProximalNeuriteElement</text>
</a>
</g>
</g>
<!-- Node14&#45;&gt;Node18 -->
<g id="edge22" class="edge"><title>Node14&#45;&gt;Node18</title>
<path fill="none" stroke="midnightblue" d="M258.99,-201.392C278.136,-167.572 313.797,-112.818 359,-81 363.994,-77.4846 369.423,-74.3646 375.065,-71.5984"/>
<polygon fill="midnightblue" stroke="midnightblue" points="255.818,-199.895 254.034,-210.339 261.941,-203.287 255.818,-199.895"/>
</g>
<!-- Node21 -->
<g id="node21" class="node"><title>Node21</title>
<g id="a_node21"><a xlink:href="classbdm_1_1experimental_1_1neuroscience_1_1NeuriteElement.html#afa8ede30a3a5518990a4402823a1471e" target="_top" xlink:title="TODO. ">
<polygon fill="white" stroke="black" points="371.5,-210.5 371.5,-251.5 534.5,-251.5 534.5,-210.5 371.5,-210.5"/>
<text text-anchor="start" x="379.5" y="-239.5" font-family="Helvetica,sans-Serif" font-size="10.00">bdm::experimental::</text>
<text text-anchor="start" x="379.5" y="-228.5" font-family="Helvetica,sans-Serif" font-size="10.00">neuroscience::NeuriteElement</text>
<text text-anchor="middle" x="453" y="-217.5" font-family="Helvetica,sans-Serif" font-size="10.00">::InitializeNewNeuriteExtension</text>
</a>
</g>
</g>
<!-- Node14&#45;&gt;Node21 -->
<g id="edge25" class="edge"><title>Node14&#45;&gt;Node21</title>
<path fill="none" stroke="midnightblue" d="M333.275,-231C345.912,-231 358.838,-231 371.291,-231"/>
<polygon fill="midnightblue" stroke="midnightblue" points="333.217,-227.5 323.217,-231 333.217,-234.5 333.217,-227.5"/>
</g>
<!-- Node16 -->
<g id="node16" class="node"><title>Node16</title>
<g id="a_node16"><a xlink:href="classbdm_1_1experimental_1_1neuroscience_1_1NeuriteElement.html#a5b85895e7ffba5bdfcc2aa78564e3f82" target="_top" xlink:title="bdm::experimental::\lneuroscience::NeuriteElement\l::ElongateTerminalEnd">
<polygon fill="white" stroke="black" points="586,-150.5 586,-191.5 747,-191.5 747,-150.5 586,-150.5"/>
<text text-anchor="start" x="594" y="-179.5" font-family="Helvetica,sans-Serif" font-size="10.00">bdm::experimental::</text>
<text text-anchor="start" x="594" y="-168.5" font-family="Helvetica,sans-Serif" font-size="10.00">neuroscience::NeuriteElement</text>
<text text-anchor="middle" x="666.5" y="-157.5" font-family="Helvetica,sans-Serif" font-size="10.00">::ElongateTerminalEnd</text>
</a>
</g>
</g>
<!-- Node15&#45;&gt;Node16 -->
<g id="edge20" class="edge"><title>Node15&#45;&gt;Node16</title>
<path fill="none" stroke="midnightblue" d="M543.772,-171C557.774,-171 572.159,-171 585.914,-171"/>
<polygon fill="midnightblue" stroke="midnightblue" points="543.658,-167.5 533.658,-171 543.658,-174.5 543.658,-167.5"/>
</g>
<!-- Node19 -->
<g id="node19" class="node"><title>Node19</title>
<g id="a_node19"><a xlink:href="classbdm_1_1experimental_1_1neuroscience_1_1NeuriteElement.html#a635d05007807af4f7b271faad9c4d4d3" target="_top" xlink:title="bdm::experimental::\lneuroscience::NeuriteElement\l::RetractTerminalEnd">
<polygon fill="white" stroke="black" points="586,-60.5 586,-101.5 747,-101.5 747,-60.5 586,-60.5"/>
<text text-anchor="start" x="594" y="-89.5" font-family="Helvetica,sans-Serif" font-size="10.00">bdm::experimental::</text>
<text text-anchor="start" x="594" y="-78.5" font-family="Helvetica,sans-Serif" font-size="10.00">neuroscience::NeuriteElement</text>
<text text-anchor="middle" x="666.5" y="-67.5" font-family="Helvetica,sans-Serif" font-size="10.00">::RetractTerminalEnd</text>
</a>
</g>
</g>
<!-- Node18&#45;&gt;Node19 -->
<g id="edge23" class="edge"><title>Node18&#45;&gt;Node19</title>
<path fill="none" stroke="midnightblue" d="M551.576,-64.8406C563.037,-66.4662 574.626,-68.1101 585.802,-69.6953"/>
<polygon fill="midnightblue" stroke="midnightblue" points="551.944,-61.3579 541.552,-63.4187 550.961,-68.2885 551.944,-61.3579"/>
</g>
<!-- Node20 -->
<g id="node20" class="node"><title>Node20</title>
<g id="a_node20"><a xlink:href="classbdm_1_1experimental_1_1neuroscience_1_1NeuriteElement.html#aa0936af954812aaf2d8913c6cab0f4c6" target="_top" xlink:title="bdm::experimental::\lneuroscience::NeuriteElement\l::RunDiscretization">
<polygon fill="white" stroke="black" points="586,-0.5 586,-41.5 747,-41.5 747,-0.5 586,-0.5"/>
<text text-anchor="start" x="594" y="-29.5" font-family="Helvetica,sans-Serif" font-size="10.00">bdm::experimental::</text>
<text text-anchor="start" x="594" y="-18.5" font-family="Helvetica,sans-Serif" font-size="10.00">neuroscience::NeuriteElement</text>
<text text-anchor="middle" x="666.5" y="-7.5" font-family="Helvetica,sans-Serif" font-size="10.00">::RunDiscretization</text>
</a>
</g>
</g>
<!-- Node18&#45;&gt;Node20 -->
<g id="edge24" class="edge"><title>Node18&#45;&gt;Node20</title>
<path fill="none" stroke="midnightblue" d="M551.576,-37.1594C563.037,-35.5338 574.626,-33.8899 585.802,-32.3047"/>
<polygon fill="midnightblue" stroke="midnightblue" points="550.961,-33.7115 541.552,-38.5813 551.944,-40.6421 550.961,-33.7115"/>
</g>
<!-- Node21&#45;&gt;Node12 -->
<g id="edge26" class="edge"><title>Node21&#45;&gt;Node12</title>
<path fill="none" stroke="midnightblue" d="M536.197,-254.318C554.967,-259.643 574.78,-265.264 593.104,-270.462"/>
<polygon fill="midnightblue" stroke="midnightblue" points="537.066,-250.927 526.49,-251.565 535.156,-257.661 537.066,-250.927"/>
</g>
</g>
</svg>
