<?xml version="1.0" encoding="UTF-8" standalone="no"?>
<!DOCTYPE svg PUBLIC "-//W3C//DTD SVG 1.1//EN"
 "http://www.w3.org/Graphics/SVG/1.1/DTD/svg11.dtd">
<!-- Generated by graphviz version 2.36.0 (20140111.2315)
 -->
<!-- Title: bdm::Timing::Timestamp Pages: 1 -->
<svg width="282pt" height="66pt"
 viewBox="0.00 0.00 282.00 66.00" xmlns="http://www.w3.org/2000/svg" xmlns:xlink="http://www.w3.org/1999/xlink">
<g id="graph0" class="graph" transform="scale(1 1) rotate(0) translate(4 62)">
<title>bdm::Timing::Timestamp</title>
<polygon fill="white" stroke="none" points="-4,4 -4,-62 278,-62 278,4 -4,4"/>
<!-- Node1 -->
<g id="node1" class="node"><title>Node1</title>
<polygon fill="#bfbfbf" stroke="black" points="0.5,-19.5 0.5,-38.5 125.5,-38.5 125.5,-19.5 0.5,-19.5"/>
<text text-anchor="middle" x="63" y="-26.5" font-family="Helvetica,sans-Serif" font-size="10.00">bdm::Timing::Timestamp</text>
</g>
<!-- Node2 -->
<g id="node2" class="node"><title>Node2</title>
<g id="a_node2"><a xlink:href="classbdm_1_1Timing.html#a1709195406ffd6994b4862b9bb92b968" target="_top" xlink:title="bdm::Timing::Timing">
<polygon fill="white" stroke="black" points="165,-38.5 165,-57.5 271,-57.5 271,-38.5 165,-38.5"/>
<text text-anchor="middle" x="218" y="-45.5" font-family="Helvetica,sans-Serif" font-size="10.00">bdm::Timing::Timing</text>
</a>
</g>
</g>
<!-- Node1&#45;&gt;Node2 -->
<g id="edge1" class="edge"><title>Node1&#45;&gt;Node2</title>
<path fill="none" stroke="midnightblue" d="M135.886,-37.9271C145.635,-39.1377 155.484,-40.3608 164.797,-41.5173"/>
<polygon fill="midnightblue" stroke="midnightblue" points="136.145,-34.4324 125.79,-36.6733 135.282,-41.379 136.145,-34.4324"/>
</g>
<!-- Node3 -->
<g id="node3" class="node"><title>Node3</title>
<g id="a_node3"><a xlink:href="classbdm_1_1Timing.html#a6acd5fbcf296e24001e8bb62cd3667a0" target="_top" xlink:title="bdm::Timing::~Timing">
<polygon fill="white" stroke="black" points="162,-0.5 162,-19.5 274,-19.5 274,-0.5 162,-0.5"/>
<text text-anchor="middle" x="218" y="-7.5" font-family="Helvetica,sans-Serif" font-size="10.00">bdm::Timing::~Timing</text>
</a>
</g>
</g>
<!-- Node1&#45;&gt;Node3 -->
<g id="edge2" class="edge"><title>Node1&#45;&gt;Node3</title>
<path fill="none" stroke="midnightblue" d="M135.957,-20.0641C144.673,-18.9818 153.467,-17.8898 161.885,-16.8443"/>
<polygon fill="midnightblue" stroke="midnightblue" points="135.282,-16.621 125.79,-21.3267 136.145,-23.5676 135.282,-16.621"/>
</g>
</g>
</svg>
