<?xml version="1.0" encoding="UTF-8" standalone="no"?>
<!DOCTYPE svg PUBLIC "-//W3C//DTD SVG 1.1//EN"
 "http://www.w3.org/Graphics/SVG/1.1/DTD/svg11.dtd">
<!-- Generated by graphviz version 2.38.0 (20140413.2041)
 -->
<!-- Title: bdm::experimental::neuroscience::NeuronSoma::OriginOf Pages: 1 -->
<svg width="319pt" height="50pt"
 viewBox="0.00 0.00 319.00 50.00" xmlns="http://www.w3.org/2000/svg" xmlns:xlink="http://www.w3.org/1999/xlink">
<g id="graph0" class="graph" transform="scale(1 1) rotate(0) translate(4 46)">
<title>bdm::experimental::neuroscience::NeuronSoma::OriginOf</title>
<polygon fill="white" stroke="none" points="-4,4 -4,-46 315,-46 315,4 -4,4"/>
<!-- Node1 -->
<g id="node1" class="node"><title>Node1</title>
<polygon fill="#bfbfbf" stroke="black" points="-2.84217e-14,-0.5 -2.84217e-14,-41.5 150,-41.5 150,-0.5 -2.84217e-14,-0.5"/>
<text text-anchor="start" x="8" y="-29.5" font-family="Helvetica,sans-Serif" font-size="10.00">bdm::experimental::</text>
<text text-anchor="start" x="8" y="-18.5" font-family="Helvetica,sans-Serif" font-size="10.00">neuroscience::NeuronSoma</text>
<text text-anchor="middle" x="75" y="-7.5" font-family="Helvetica,sans-Serif" font-size="10.00">::OriginOf</text>
</g>
<!-- Node2 -->
<g id="node2" class="node"><title>Node2</title>
<g id="a_node2"><a xlink:href="structbdm_1_1Math.html#aed3c71a56eb984be1e7c318fa2056fb2" target="_top" xlink:title="bdm::Math::ScalarMult">
<polygon fill="white" stroke="black" points="186,-11.5 186,-30.5 311,-30.5 311,-11.5 186,-11.5"/>
<text text-anchor="middle" x="248.5" y="-18.5" font-family="Helvetica,sans-Serif" font-size="10.00">bdm::Math::ScalarMult</text>
</a>
</g>
</g>
<!-- Node1&#45;&gt;Node2 -->
<g id="edge1" class="edge"><title>Node1&#45;&gt;Node2</title>
<path fill="none" stroke="midnightblue" d="M150.225,-21C158.656,-21 167.238,-21 175.638,-21"/>
<polygon fill="midnightblue" stroke="midnightblue" points="175.771,-24.5001 185.771,-21 175.771,-17.5001 175.771,-24.5001"/>
</g>
</g>
</svg>
