<?xml version="1.0" encoding="UTF-8" standalone="no"?>
<!DOCTYPE svg PUBLIC "-//W3C//DTD SVG 1.1//EN"
 "http://www.w3.org/Graphics/SVG/1.1/DTD/svg11.dtd">
<!-- Generated by graphviz version 2.38.0 (20140413.2041)
 -->
<!-- Title: bdm::ThreadInfo::GetNumaNode Pages: 1 -->
<svg width="577pt" height="196pt"
 viewBox="0.00 0.00 577.00 196.00" xmlns="http://www.w3.org/2000/svg" xmlns:xlink="http://www.w3.org/1999/xlink">
<g id="graph0" class="graph" transform="scale(1 1) rotate(0) translate(4 192)">
<title>bdm::ThreadInfo::GetNumaNode</title>
<polygon fill="white" stroke="none" points="-4,4 -4,-192 573,-192 573,4 -4,4"/>
<!-- Node1 -->
<g id="node1" class="node"><title>Node1</title>
<polygon fill="#bfbfbf" stroke="black" points="0,-87 0,-106 173,-106 173,-87 0,-87"/>
<text text-anchor="middle" x="86.5" y="-94" font-family="Helvetica,sans-Serif" font-size="10.00">bdm::ThreadInfo::GetNumaNode</text>
</g>
<!-- Node2 -->
<g id="node2" class="node"><title>Node2</title>
<g id="a_node2"><a xlink:href="classbdm_1_1InPlaceExecutionContext.html#a588d308205afc00fedf1fa375ae17157" target="_top" xlink:title="bdm::InPlaceExecutionContext\l::TearDownIterationAll">
<polygon fill="white" stroke="black" points="209,-157.5 209,-187.5 371,-187.5 371,-157.5 209,-157.5"/>
<text text-anchor="start" x="217" y="-175.5" font-family="Helvetica,sans-Serif" font-size="10.00">bdm::InPlaceExecutionContext</text>
<text text-anchor="middle" x="290" y="-164.5" font-family="Helvetica,sans-Serif" font-size="10.00">::TearDownIterationAll</text>
</a>
</g>
</g>
<!-- Node1&#45;&gt;Node2 -->
<g id="edge1" class="edge"><title>Node1&#45;&gt;Node2</title>
<path fill="none" stroke="midnightblue" d="M117.253,-110.351C141.622,-121.424 177.151,-136.949 209,-148.5 217.588,-151.615 226.794,-154.65 235.794,-157.456"/>
<polygon fill="midnightblue" stroke="midnightblue" points="118.404,-107.029 107.855,-106.05 115.491,-113.394 118.404,-107.029"/>
</g>
<!-- Node4 -->
<g id="node4" class="node"><title>Node4</title>
<g id="a_node4"><a xlink:href="classbdm_1_1ResourceManager.html#ab548998df960492f542a6d04db2258d5" target="_top" xlink:title="bdm::ResourceManager\l::ApplyOnAllElementsParallel">
<polygon fill="white" stroke="black" points="214,-108.5 214,-138.5 366,-138.5 366,-108.5 214,-108.5"/>
<text text-anchor="start" x="222" y="-126.5" font-family="Helvetica,sans-Serif" font-size="10.00">bdm::ResourceManager</text>
<text text-anchor="middle" x="290" y="-115.5" font-family="Helvetica,sans-Serif" font-size="10.00">::ApplyOnAllElementsParallel</text>
</a>
</g>
</g>
<!-- Node1&#45;&gt;Node4 -->
<g id="edge3" class="edge"><title>Node1&#45;&gt;Node4</title>
<path fill="none" stroke="midnightblue" d="M168.74,-107.386C183.631,-109.381 199.114,-111.456 213.819,-113.426"/>
<polygon fill="midnightblue" stroke="midnightblue" points="168.918,-103.878 158.541,-106.019 167.988,-110.816 168.918,-103.878"/>
</g>
<!-- Node5 -->
<g id="node5" class="node"><title>Node5</title>
<g id="a_node5"><a xlink:href="classbdm_1_1ResourceManager.html#afa8519765cf14980c555281d5d71f743" target="_top" xlink:title="bdm::ResourceManager\l::ApplyOnAllElementsParallel\lDynamic">
<polygon fill="white" stroke="black" points="214,-49 214,-90 366,-90 366,-49 214,-49"/>
<text text-anchor="start" x="222" y="-78" font-family="Helvetica,sans-Serif" font-size="10.00">bdm::ResourceManager</text>
<text text-anchor="start" x="222" y="-67" font-family="Helvetica,sans-Serif" font-size="10.00">::ApplyOnAllElementsParallel</text>
<text text-anchor="middle" x="290" y="-56" font-family="Helvetica,sans-Serif" font-size="10.00">Dynamic</text>
</a>
</g>
</g>
<!-- Node1&#45;&gt;Node5 -->
<g id="edge4" class="edge"><title>Node1&#45;&gt;Node5</title>
<path fill="none" stroke="midnightblue" d="M168.74,-85.6143C183.631,-83.6189 199.114,-81.5443 213.819,-79.5739"/>
<polygon fill="midnightblue" stroke="midnightblue" points="167.988,-82.1836 158.541,-86.9808 168.918,-89.1216 167.988,-82.1836"/>
</g>
<!-- Node6 -->
<g id="node6" class="node"><title>Node6</title>
<g id="a_node6"><a xlink:href="classbdm_1_1ResourceManager.html#ab17beb97ee664ffeb79a1d839896b0ad" target="_top" xlink:title="bdm::ResourceManager\l::SortAndBalanceNumaNodes">
<polygon fill="white" stroke="black" points="210,-0.5 210,-30.5 370,-30.5 370,-0.5 210,-0.5"/>
<text text-anchor="start" x="218" y="-18.5" font-family="Helvetica,sans-Serif" font-size="10.00">bdm::ResourceManager</text>
<text text-anchor="middle" x="290" y="-7.5" font-family="Helvetica,sans-Serif" font-size="10.00">::SortAndBalanceNumaNodes</text>
</a>
</g>
</g>
<!-- Node1&#45;&gt;Node6 -->
<g id="edge5" class="edge"><title>Node1&#45;&gt;Node6</title>
<path fill="none" stroke="midnightblue" d="M114.637,-82.3578C138.937,-70.037 175.76,-52.2038 209,-39.5 217.262,-36.3422 226.129,-33.3267 234.844,-30.5648"/>
<polygon fill="midnightblue" stroke="midnightblue" points="112.97,-79.2792 105.66,-86.9481 116.157,-85.5118 112.97,-79.2792"/>
</g>
<!-- Node3 -->
<g id="node3" class="node"><title>Node3</title>
<g id="a_node3"><a xlink:href="classbdm_1_1InPlaceExecutionContext.html#ad33bd7724eaa5b2509d9334b6c6a622d" target="_top" xlink:title="bdm::InPlaceExecutionContext\l::SetupIterationAll">
<polygon fill="white" stroke="black" points="407,-157.5 407,-187.5 569,-187.5 569,-157.5 407,-157.5"/>
<text text-anchor="start" x="415" y="-175.5" font-family="Helvetica,sans-Serif" font-size="10.00">bdm::InPlaceExecutionContext</text>
<text text-anchor="middle" x="488" y="-164.5" font-family="Helvetica,sans-Serif" font-size="10.00">::SetupIterationAll</text>
</a>
</g>
</g>
<!-- Node2&#45;&gt;Node3 -->
<g id="edge2" class="edge"><title>Node2&#45;&gt;Node3</title>
<path fill="none" stroke="midnightblue" d="M381.077,-172.5C389.703,-172.5 398.413,-172.5 406.935,-172.5"/>
<polygon fill="midnightblue" stroke="midnightblue" points="381.003,-169 371.003,-172.5 381.003,-176 381.003,-169"/>
</g>
</g>
</svg>
