<?xml version="1.0" encoding="UTF-8" standalone="no"?>
<!DOCTYPE svg PUBLIC "-//W3C//DTD SVG 1.1//EN"
 "http://www.w3.org/Graphics/SVG/1.1/DTD/svg11.dtd">
<!-- Generated by graphviz version 2.36.0 (20140111.2315)
 -->
<!-- Title: bdm::ThreadInfo::Renew Pages: 1 -->
<svg width="272pt" height="66pt"
 viewBox="0.00 0.00 272.00 66.00" xmlns="http://www.w3.org/2000/svg" xmlns:xlink="http://www.w3.org/1999/xlink">
<g id="graph0" class="graph" transform="scale(1 1) rotate(0) translate(4 62)">
<title>bdm::ThreadInfo::Renew</title>
<polygon fill="white" stroke="none" points="-4,4 -4,-62 268,-62 268,4 -4,4"/>
<!-- Node1 -->
<g id="node1" class="node"><title>Node1</title>
<polygon fill="#bfbfbf" stroke="black" points="0.5,-19.5 0.5,-38.5 125.5,-38.5 125.5,-19.5 0.5,-19.5"/>
<text text-anchor="middle" x="63" y="-26.5" font-family="Helvetica,sans-Serif" font-size="10.00">bdm::ThreadInfo::Renew</text>
</g>
<!-- Node2 -->
<g id="node2" class="node"><title>Node2</title>
<g id="a_node2"><a xlink:href="numa_8h.html#a618fa597d7ee20a6bb6dd00567c7730f" target="_top" xlink:title="numa_node_of_cpu">
<polygon fill="white" stroke="black" points="162.5,-38.5 162.5,-57.5 263.5,-57.5 263.5,-38.5 162.5,-38.5"/>
<text text-anchor="middle" x="213" y="-45.5" font-family="Helvetica,sans-Serif" font-size="10.00">numa_node_of_cpu</text>
</a>
</g>
</g>
<!-- Node1&#45;&gt;Node2 -->
<g id="edge1" class="edge"><title>Node1&#45;&gt;Node2</title>
<path fill="none" stroke="midnightblue" d="M125.908,-36.9476C134.675,-38.0732 143.676,-39.2287 152.399,-40.3485"/>
<polygon fill="midnightblue" stroke="midnightblue" points="152.116,-43.8408 162.48,-41.6427 153.007,-36.8978 152.116,-43.8408"/>
</g>
<!-- Node3 -->
<g id="node3" class="node"><title>Node3</title>
<g id="a_node3"><a xlink:href="numa_8h.html#a42888a490b3af636fd5bfc0535de12c0" target="_top" xlink:title="sched_getcpu">
<polygon fill="white" stroke="black" points="174.5,-0.5 174.5,-19.5 251.5,-19.5 251.5,-0.5 174.5,-0.5"/>
<text text-anchor="middle" x="213" y="-7.5" font-family="Helvetica,sans-Serif" font-size="10.00">sched_getcpu</text>
</a>
</g>
</g>
<!-- Node1&#45;&gt;Node3 -->
<g id="edge2" class="edge"><title>Node1&#45;&gt;Node3</title>
<path fill="none" stroke="midnightblue" d="M125.908,-21.0524C138.78,-19.3999 152.153,-17.6831 164.413,-16.1091"/>
<polygon fill="midnightblue" stroke="midnightblue" points="164.941,-19.5701 174.414,-14.8252 164.05,-12.6271 164.941,-19.5701"/>
</g>
</g>
</svg>
