<?xml version="1.0" encoding="UTF-8" standalone="no"?>
<!DOCTYPE svg PUBLIC "-//W3C//DTD SVG 1.1//EN"
 "http://www.w3.org/Graphics/SVG/1.1/DTD/svg11.dtd">
<!-- Generated by graphviz version 2.38.0 (20140413.2041)
 -->
<!-- Title: bdm::Log::Fatal Pages: 1 -->
<svg width="1064pt" height="1153pt"
 viewBox="0.00 0.00 1064.00 1152.50" xmlns="http://www.w3.org/2000/svg" xmlns:xlink="http://www.w3.org/1999/xlink">
<g id="graph0" class="graph" transform="scale(1 1) rotate(0) translate(4 1148.5)">
<title>bdm::Log::Fatal</title>
<polygon fill="white" stroke="none" points="-4,4 -4,-1148.5 1060,-1148.5 1060,4 -4,4"/>
<!-- Node1 -->
<g id="node1" class="node"><title>Node1</title>
<polygon fill="#bfbfbf" stroke="black" points="0,-563 0,-582 90,-582 90,-563 0,-563"/>
<text text-anchor="middle" x="45" y="-570" font-family="Helvetica,sans-Serif" font-size="10.00">bdm::Log::Fatal</text>
</g>
<!-- Node2 -->
<g id="node2" class="node"><title>Node2</title>
<g id="a_node2"><a xlink:href="structbdm_1_1GrowDivide.html#a7989089a41718e38a98e5ef32f177d79" target="_top" xlink:title="bdm::GrowDivide::GrowDivide">
<polygon fill="white" stroke="black" points="136.5,-1125 136.5,-1144 293.5,-1144 293.5,-1125 136.5,-1125"/>
<text text-anchor="middle" x="215" y="-1132" font-family="Helvetica,sans-Serif" font-size="10.00">bdm::GrowDivide::GrowDivide</text>
</a>
</g>
</g>
<!-- Node1&#45;&gt;Node2 -->
<g id="edge1" class="edge"><title>Node1&#45;&gt;Node2</title>
<path fill="none" stroke="midnightblue" d="M46.0198,-592.244C46.5234,-680.458 53.0985,-1037.59 126,-1115.5 129.524,-1119.27 133.602,-1122.38 138.032,-1124.94"/>
<polygon fill="midnightblue" stroke="midnightblue" points="49.5191,-592.025 45.9832,-582.038 42.5192,-592.05 49.5191,-592.025"/>
</g>
<!-- Node3 -->
<g id="node3" class="node"><title>Node3</title>
<g id="a_node3"><a xlink:href="structbdm_1_1GrowDivide.html#a3e9e710d9c082f0c0de73512c05b7d06" target="_top" xlink:title="bdm::GrowDivide::Run">
<polygon fill="white" stroke="black" points="154.5,-1087 154.5,-1106 275.5,-1106 275.5,-1087 154.5,-1087"/>
<text text-anchor="middle" x="215" y="-1094" font-family="Helvetica,sans-Serif" font-size="10.00">bdm::GrowDivide::Run</text>
</a>
</g>
</g>
<!-- Node1&#45;&gt;Node3 -->
<g id="edge2" class="edge"><title>Node1&#45;&gt;Node3</title>
<path fill="none" stroke="midnightblue" d="M46.2596,-592.197C47.7823,-676.474 58.0571,-1005.68 126,-1077.5 133.626,-1085.56 143.791,-1090.61 154.5,-1093.7"/>
<polygon fill="midnightblue" stroke="midnightblue" points="49.7589,-592.12 46.1003,-582.177 42.7598,-592.232 49.7589,-592.12"/>
</g>
<!-- Node4 -->
<g id="node4" class="node"><title>Node4</title>
<g id="a_node4"><a xlink:href="structbdm_1_1RegulateGenes.html#af1b3f82a4eb9ac5532a19adebcbb475a" target="_top" xlink:title="bdm::RegulateGenes\l::RegulateGenes">
<polygon fill="white" stroke="black" points="157,-1037.5 157,-1067.5 273,-1067.5 273,-1037.5 157,-1037.5"/>
<text text-anchor="start" x="165" y="-1055.5" font-family="Helvetica,sans-Serif" font-size="10.00">bdm::RegulateGenes</text>
<text text-anchor="middle" x="215" y="-1044.5" font-family="Helvetica,sans-Serif" font-size="10.00">::RegulateGenes</text>
</a>
</g>
</g>
<!-- Node1&#45;&gt;Node4 -->
<g id="edge3" class="edge"><title>Node1&#45;&gt;Node4</title>
<path fill="none" stroke="midnightblue" d="M46.7381,-592.436C50.0718,-671.644 66.2667,-962.964 126,-1028.5 134.107,-1037.39 145.157,-1043.12 156.687,-1046.78"/>
<polygon fill="midnightblue" stroke="midnightblue" points="50.2313,-592.194 46.3359,-582.341 43.2368,-592.472 50.2313,-592.194"/>
</g>
<!-- Node5 -->
<g id="node5" class="node"><title>Node5</title>
<g id="a_node5"><a xlink:href="classbdm_1_1DefaultForce.html#a826d957a6229c99289e86748a18c518d" target="_top" xlink:title="bdm::DefaultForce::\lGetForce">
<polygon fill="white" stroke="black" points="159.5,-988.5 159.5,-1018.5 270.5,-1018.5 270.5,-988.5 159.5,-988.5"/>
<text text-anchor="start" x="167.5" y="-1006.5" font-family="Helvetica,sans-Serif" font-size="10.00">bdm::DefaultForce::</text>
<text text-anchor="middle" x="215" y="-995.5" font-family="Helvetica,sans-Serif" font-size="10.00">GetForce</text>
</a>
</g>
</g>
<!-- Node1&#45;&gt;Node5 -->
<g id="edge4" class="edge"><title>Node1&#45;&gt;Node5</title>
<path fill="none" stroke="midnightblue" d="M47.1779,-592.136C51.9666,-665.439 72.3406,-921.821 126,-979.5 134.737,-988.891 146.755,-994.742 159.103,-998.353"/>
<polygon fill="midnightblue" stroke="midnightblue" points="50.6614,-591.762 46.5405,-582.002 43.6752,-592.202 50.6614,-591.762"/>
</g>
<!-- Node9 -->
<g id="node9" class="node"><title>Node9</title>
<g id="a_node9"><a xlink:href="classbdm_1_1DiffusionGrid.html#ae629fc95a257bfd8438d5de2224c2540" target="_top" xlink:title="bdm::DiffusionGrid\l::ParametersCheck">
<polygon fill="white" stroke="black" points="161.5,-939.5 161.5,-969.5 268.5,-969.5 268.5,-939.5 161.5,-939.5"/>
<text text-anchor="start" x="169.5" y="-957.5" font-family="Helvetica,sans-Serif" font-size="10.00">bdm::DiffusionGrid</text>
<text text-anchor="middle" x="215" y="-946.5" font-family="Helvetica,sans-Serif" font-size="10.00">::ParametersCheck</text>
</a>
</g>
</g>
<!-- Node1&#45;&gt;Node9 -->
<g id="edge8" class="edge"><title>Node1&#45;&gt;Node9</title>
<path fill="none" stroke="midnightblue" d="M47.7701,-592.342C54.2042,-660.08 78.5053,-880.749 126,-930.5 135.295,-940.236 148.119,-946.153 161.103,-949.713"/>
<polygon fill="midnightblue" stroke="midnightblue" points="51.2369,-591.82 46.8318,-582.184 44.2665,-592.463 51.2369,-591.82"/>
</g>
<!-- Node13 -->
<g id="node13" class="node"><title>Node13</title>
<g id="a_node13"><a xlink:href="classbdm_1_1UniqueEventIdFactory.html#ae811368e090a96628b97e33f26e28206" target="_top" xlink:title="bdm::UniqueEventIdFactory\l::NewUniqueEventId">
<polygon fill="white" stroke="black" points="141,-890.5 141,-920.5 289,-920.5 289,-890.5 141,-890.5"/>
<text text-anchor="start" x="149" y="-908.5" font-family="Helvetica,sans-Serif" font-size="10.00">bdm::UniqueEventIdFactory</text>
<text text-anchor="middle" x="215" y="-897.5" font-family="Helvetica,sans-Serif" font-size="10.00">::NewUniqueEventId</text>
</a>
</g>
</g>
<!-- Node1&#45;&gt;Node13 -->
<g id="edge12" class="edge"><title>Node1&#45;&gt;Node13</title>
<path fill="none" stroke="midnightblue" d="M48.5567,-592.273C56.8572,-653.517 84.9112,-838.469 126,-880.5 130.33,-884.929 135.383,-888.589 140.838,-891.611"/>
<polygon fill="midnightblue" stroke="midnightblue" points="51.9846,-591.498 47.1998,-582.045 45.0454,-592.418 51.9846,-591.498"/>
</g>
<!-- Node14 -->
<g id="node14" class="node"><title>Node14</title>
<g id="a_node14"><a xlink:href="classbdm_1_1Grid.html#ac67a8ee463a87d08ea787552acc9cc31" target="_top" xlink:title="Updates the grid, as simulation objects may have moved, added or deleted. ">
<polygon fill="white" stroke="black" points="152.5,-852 152.5,-871 277.5,-871 277.5,-852 152.5,-852"/>
<text text-anchor="middle" x="215" y="-859" font-family="Helvetica,sans-Serif" font-size="10.00">bdm::Grid::UpdateGrid</text>
</a>
</g>
</g>
<!-- Node1&#45;&gt;Node14 -->
<g id="edge13" class="edge"><title>Node1&#45;&gt;Node14</title>
<path fill="none" stroke="midnightblue" d="M45.5101,-592.243C45.4169,-642.172 52.4999,-774.344 126,-842.5 133.335,-849.302 142.502,-853.89 152.128,-856.946"/>
<polygon fill="midnightblue" stroke="midnightblue" points="49.011,-592.183 45.6346,-582.141 42.0116,-592.097 49.011,-592.183"/>
</g>
<!-- Node15 -->
<g id="node15" class="node"><title>Node15</title>
<g id="a_node15"><a xlink:href="classbdm_1_1DisplacementOp.html#a4cb84b993953673bb438c1d0291dc2d4" target="_top" xlink:title="bdm::DisplacementOp\l::operator()">
<polygon fill="white" stroke="black" points="153,-802.5 153,-832.5 277,-832.5 277,-802.5 153,-802.5"/>
<text text-anchor="start" x="161" y="-820.5" font-family="Helvetica,sans-Serif" font-size="10.00">bdm::DisplacementOp</text>
<text text-anchor="middle" x="215" y="-809.5" font-family="Helvetica,sans-Serif" font-size="10.00">::operator()</text>
</a>
</g>
</g>
<!-- Node1&#45;&gt;Node15 -->
<g id="edge14" class="edge"><title>Node1&#45;&gt;Node15</title>
<path fill="none" stroke="midnightblue" d="M47.242,-592.174C51.0446,-635.24 66.243,-738.401 126,-793.5 133.567,-800.478 142.965,-805.459 152.776,-809.008"/>
<polygon fill="midnightblue" stroke="midnightblue" points="50.7274,-591.848 46.4719,-582.145 43.7479,-592.384 50.7274,-591.848"/>
</g>
<!-- Node16 -->
<g id="node16" class="node"><title>Node16</title>
<g id="a_node16"><a xlink:href="classbdm_1_1ResourceManager.html#ab17beb97ee664ffeb79a1d839896b0ad" target="_top" xlink:title="bdm::ResourceManager\l::SortAndBalanceNumaNodes">
<polygon fill="white" stroke="black" points="135,-753.5 135,-783.5 295,-783.5 295,-753.5 135,-753.5"/>
<text text-anchor="start" x="143" y="-771.5" font-family="Helvetica,sans-Serif" font-size="10.00">bdm::ResourceManager</text>
<text text-anchor="middle" x="215" y="-760.5" font-family="Helvetica,sans-Serif" font-size="10.00">::SortAndBalanceNumaNodes</text>
</a>
</g>
</g>
<!-- Node1&#45;&gt;Node16 -->
<g id="edge15" class="edge"><title>Node1&#45;&gt;Node16</title>
<path fill="none" stroke="midnightblue" d="M49.5204,-592.123C56.9892,-627.921 77.8494,-703.874 126,-744.5 130.115,-747.972 134.689,-750.945 139.528,-753.491"/>
<polygon fill="midnightblue" stroke="midnightblue" points="52.8971,-591.152 47.5484,-582.006 46.0265,-592.491 52.8971,-591.152"/>
</g>
<!-- Node17 -->
<g id="node17" class="node"><title>Node17</title>
<g id="a_node17"><a xlink:href="classbdm_1_1ResourceManager.html#acaaeab80337d37ceea067ce40dbc1d9e" target="_top" xlink:title="bdm::ResourceManager\l::ResourceManager">
<polygon fill="white" stroke="black" points="150,-704.5 150,-734.5 280,-734.5 280,-704.5 150,-704.5"/>
<text text-anchor="start" x="158" y="-722.5" font-family="Helvetica,sans-Serif" font-size="10.00">bdm::ResourceManager</text>
<text text-anchor="middle" x="215" y="-711.5" font-family="Helvetica,sans-Serif" font-size="10.00">::ResourceManager</text>
</a>
</g>
</g>
<!-- Node1&#45;&gt;Node17 -->
<g id="edge16" class="edge"><title>Node1&#45;&gt;Node17</title>
<path fill="none" stroke="midnightblue" d="M53.3203,-591.8C64.6689,-619.083 89.1176,-668.598 126,-695.5 133.165,-700.726 141.406,-704.814 149.909,-708.012"/>
<polygon fill="midnightblue" stroke="midnightblue" points="56.4523,-590.205 49.495,-582.215 49.9509,-592.8 56.4523,-590.205"/>
</g>
<!-- Node18 -->
<g id="node18" class="node"><title>Node18</title>
<g id="a_node18"><a xlink:href="classbdm_1_1ResourceManager.html#a44910abacebe89f18779cc6bd4ce263c" target="_top" xlink:title="bdm::ResourceManager\l::operator=">
<polygon fill="white" stroke="black" points="150,-655.5 150,-685.5 280,-685.5 280,-655.5 150,-655.5"/>
<text text-anchor="start" x="158" y="-673.5" font-family="Helvetica,sans-Serif" font-size="10.00">bdm::ResourceManager</text>
<text text-anchor="middle" x="215" y="-662.5" font-family="Helvetica,sans-Serif" font-size="10.00">::operator=</text>
</a>
</g>
</g>
<!-- Node1&#45;&gt;Node18 -->
<g id="edge17" class="edge"><title>Node1&#45;&gt;Node18</title>
<path fill="none" stroke="midnightblue" d="M60.5924,-590.232C75.391,-607.089 99.7934,-631.966 126,-646.5 133.34,-650.571 141.412,-653.984 149.6,-656.839"/>
<polygon fill="midnightblue" stroke="midnightblue" points="62.9264,-587.575 53.7703,-582.245 57.6036,-592.122 62.9264,-587.575"/>
</g>
<!-- Node19 -->
<g id="node19" class="node"><title>Node19</title>
<g id="a_node19"><a xlink:href="classbdm_1_1ResourceManager.html#ac6c11141f5285480d234f782658f9550" target="_top" xlink:title="bdm::ResourceManager\l::AddDiffusionGrid">
<polygon fill="white" stroke="black" points="150,-606.5 150,-636.5 280,-636.5 280,-606.5 150,-606.5"/>
<text text-anchor="start" x="158" y="-624.5" font-family="Helvetica,sans-Serif" font-size="10.00">bdm::ResourceManager</text>
<text text-anchor="middle" x="215" y="-613.5" font-family="Helvetica,sans-Serif" font-size="10.00">::AddDiffusionGrid</text>
</a>
</g>
</g>
<!-- Node1&#45;&gt;Node19 -->
<g id="edge18" class="edge"><title>Node1&#45;&gt;Node19</title>
<path fill="none" stroke="midnightblue" d="M85.1283,-585.042C98.1048,-589.117 112.645,-593.594 126,-597.5 136.183,-600.479 147.064,-603.542 157.579,-606.442"/>
<polygon fill="midnightblue" stroke="midnightblue" points="86.1452,-581.693 75.5554,-582.02 84.0377,-588.368 86.1452,-581.693"/>
</g>
<!-- Node20 -->
<g id="node20" class="node"><title>Node20</title>
<g id="a_node20"><a xlink:href="classbdm_1_1ResourceManager.html#a51c6917d4e3c1d1871a4ae78915ebace" target="_top" xlink:title="bdm::ResourceManager\l::RemoveDiffusionGrid">
<polygon fill="white" stroke="black" points="150,-557.5 150,-587.5 280,-587.5 280,-557.5 150,-557.5"/>
<text text-anchor="start" x="158" y="-575.5" font-family="Helvetica,sans-Serif" font-size="10.00">bdm::ResourceManager</text>
<text text-anchor="middle" x="215" y="-564.5" font-family="Helvetica,sans-Serif" font-size="10.00">::RemoveDiffusionGrid</text>
</a>
</g>
</g>
<!-- Node1&#45;&gt;Node20 -->
<g id="edge19" class="edge"><title>Node1&#45;&gt;Node20</title>
<path fill="none" stroke="midnightblue" d="M100.282,-572.5C116.112,-572.5 133.558,-572.5 149.932,-572.5"/>
<polygon fill="midnightblue" stroke="midnightblue" points="100.14,-569 90.14,-572.5 100.14,-576 100.14,-569"/>
</g>
<!-- Node21 -->
<g id="node21" class="node"><title>Node21</title>
<g id="a_node21"><a xlink:href="classbdm_1_1Simulation.html#a4fcb8eac928bc7f231298b89845dec71" target="_top" xlink:title="bdm::Simulation::Initialize\lRuntimeParams">
<polygon fill="white" stroke="black" points="145,-508.5 145,-538.5 285,-538.5 285,-508.5 145,-508.5"/>
<text text-anchor="start" x="153" y="-526.5" font-family="Helvetica,sans-Serif" font-size="10.00">bdm::Simulation::Initialize</text>
<text text-anchor="middle" x="215" y="-515.5" font-family="Helvetica,sans-Serif" font-size="10.00">RuntimeParams</text>
</a>
</g>
</g>
<!-- Node1&#45;&gt;Node21 -->
<g id="edge20" class="edge"><title>Node1&#45;&gt;Node21</title>
<path fill="none" stroke="midnightblue" d="M87.1813,-560.02C99.6417,-556.278 113.37,-552.188 126,-548.5 137.129,-545.25 149.067,-541.821 160.447,-538.578"/>
<polygon fill="midnightblue" stroke="midnightblue" points="86.072,-556.698 77.5052,-562.932 88.0897,-563.401 86.072,-556.698"/>
</g>
<!-- Node24 -->
<g id="node24" class="node"><title>Node24</title>
<g id="a_node24"><a xlink:href="classbdm_1_1Simulation.html#ad5431b3a52d85f73de84719144549246" target="_top" xlink:title="Initializes output_dir_ and creates dir if it does not exist. ">
<polygon fill="white" stroke="black" points="145,-459.5 145,-489.5 285,-489.5 285,-459.5 145,-459.5"/>
<text text-anchor="start" x="153" y="-477.5" font-family="Helvetica,sans-Serif" font-size="10.00">bdm::Simulation::Initialize</text>
<text text-anchor="middle" x="215" y="-466.5" font-family="Helvetica,sans-Serif" font-size="10.00">OutputDir</text>
</a>
</g>
</g>
<!-- Node1&#45;&gt;Node24 -->
<g id="edge23" class="edge"><title>Node1&#45;&gt;Node24</title>
<path fill="none" stroke="midnightblue" d="M60.6752,-555.076C75.5359,-538.496 99.9833,-513.993 126,-499.5 132.937,-495.636 140.522,-492.327 148.236,-489.504"/>
<polygon fill="midnightblue" stroke="midnightblue" points="57.76,-553.093 53.8204,-562.928 63.0334,-557.696 57.76,-553.093"/>
</g>
<!-- Node26 -->
<g id="node26" class="node"><title>Node26</title>
<g id="a_node26"><a xlink:href="classbdm_1_1SimulationBackup.html#a65787bdf3578bc392dc0723f18611335" target="_top" xlink:title="bdm::SimulationBackup\l::Restore">
<polygon fill="white" stroke="black" points="564.5,-415.5 564.5,-445.5 695.5,-445.5 695.5,-415.5 564.5,-415.5"/>
<text text-anchor="start" x="572.5" y="-433.5" font-family="Helvetica,sans-Serif" font-size="10.00">bdm::SimulationBackup</text>
<text text-anchor="middle" x="630" y="-422.5" font-family="Helvetica,sans-Serif" font-size="10.00">::Restore</text>
</a>
</g>
</g>
<!-- Node1&#45;&gt;Node26 -->
<g id="edge36" class="edge"><title>Node1&#45;&gt;Node26</title>
<path fill="none" stroke="midnightblue" d="M52.1708,-553.4C62.4306,-525.163 85.9325,-473.18 126,-450.5 199.014,-409.171 445.445,-418.586 564.096,-425.876"/>
<polygon fill="midnightblue" stroke="midnightblue" points="48.8293,-552.354 48.88,-562.949 55.4473,-554.635 48.8293,-552.354"/>
</g>
<!-- Node28 -->
<g id="node28" class="node"><title>Node28</title>
<g id="a_node28"><a xlink:href="classbdm_1_1SimulationBackup.html#ac073b636105394abf06331e784af20fe" target="_top" xlink:title="bdm::SimulationBackup\l::SimulationBackup">
<polygon fill="white" stroke="black" points="149.5,-371.5 149.5,-401.5 280.5,-401.5 280.5,-371.5 149.5,-371.5"/>
<text text-anchor="start" x="157.5" y="-389.5" font-family="Helvetica,sans-Serif" font-size="10.00">bdm::SimulationBackup</text>
<text text-anchor="middle" x="215" y="-378.5" font-family="Helvetica,sans-Serif" font-size="10.00">::SimulationBackup</text>
</a>
</g>
</g>
<!-- Node1&#45;&gt;Node28 -->
<g id="edge29" class="edge"><title>Node1&#45;&gt;Node28</title>
<path fill="none" stroke="midnightblue" d="M50.8043,-553.129C59.9118,-520.35 82.7603,-453.873 126,-416.5 133.083,-410.378 141.473,-405.49 150.216,-401.592"/>
<polygon fill="midnightblue" stroke="midnightblue" points="47.4031,-552.3 48.2328,-562.862 54.1709,-554.088 47.4031,-552.3"/>
</g>
<!-- Node29 -->
<g id="node29" class="node"><title>Node29</title>
<g id="a_node29"><a xlink:href="classbdm_1_1SimulationBackup.html#ae39680ee434349e02016bedb6f165dd8" target="_top" xlink:title="bdm::SimulationBackup\l::GetSimulationStepsFromBackup">
<polygon fill="white" stroke="black" points="126,-322.5 126,-352.5 304,-352.5 304,-322.5 126,-322.5"/>
<text text-anchor="start" x="134" y="-340.5" font-family="Helvetica,sans-Serif" font-size="10.00">bdm::SimulationBackup</text>
<text text-anchor="middle" x="215" y="-329.5" font-family="Helvetica,sans-Serif" font-size="10.00">::GetSimulationStepsFromBackup</text>
</a>
</g>
</g>
<!-- Node1&#45;&gt;Node29 -->
<g id="edge30" class="edge"><title>Node1&#45;&gt;Node29</title>
<path fill="none" stroke="midnightblue" d="M47.7285,-552.73C52.4329,-511.221 69.2107,-414.542 126,-362.5 130.215,-358.637 134.985,-355.366 140.071,-352.597"/>
<polygon fill="midnightblue" stroke="midnightblue" points="44.2249,-552.589 46.6986,-562.891 51.1892,-553.295 44.2249,-552.589"/>
</g>
<!-- Node31 -->
<g id="node31" class="node"><title>Node31</title>
<g id="a_node31"><a xlink:href="classbdm_1_1SimulationBackup.html#af5924daa59d9f08911f547ca8045e4a5" target="_top" xlink:title="bdm::SimulationBackup\l::Backup">
<polygon fill="white" stroke="black" points="363.5,-278.5 363.5,-308.5 494.5,-308.5 494.5,-278.5 363.5,-278.5"/>
<text text-anchor="start" x="371.5" y="-296.5" font-family="Helvetica,sans-Serif" font-size="10.00">bdm::SimulationBackup</text>
<text text-anchor="middle" x="429" y="-285.5" font-family="Helvetica,sans-Serif" font-size="10.00">::Backup</text>
</a>
</g>
</g>
<!-- Node1&#45;&gt;Node31 -->
<g id="edge33" class="edge"><title>Node1&#45;&gt;Node31</title>
<path fill="none" stroke="midnightblue" d="M45.2473,-552.9C44.5368,-503.451 50.2897,-373.318 126,-313.5 161.457,-285.485 285.597,-286.087 363.245,-289.498"/>
<polygon fill="midnightblue" stroke="midnightblue" points="41.7488,-553.008 45.501,-562.916 48.7465,-552.83 41.7488,-553.008"/>
</g>
<!-- Node33 -->
<g id="node33" class="node"><title>Node33</title>
<g id="a_node33"><a xlink:href="classbdm_1_1ThreadInfo.html#afea5a69f62569e047a55ab343e0647d6" target="_top" xlink:title="bdm::ThreadInfo::ThreadInfo">
<polygon fill="white" stroke="black" points="139.5,-246 139.5,-265 290.5,-265 290.5,-246 139.5,-246"/>
<text text-anchor="middle" x="215" y="-253" font-family="Helvetica,sans-Serif" font-size="10.00">bdm::ThreadInfo::ThreadInfo</text>
</a>
</g>
</g>
<!-- Node1&#45;&gt;Node33 -->
<g id="edge37" class="edge"><title>Node1&#45;&gt;Node33</title>
<path fill="none" stroke="midnightblue" d="M45.1775,-552.424C44.1718,-499.765 49.0345,-356.443 126,-279.5 132.272,-273.23 140.01,-268.555 148.274,-265.077"/>
<polygon fill="midnightblue" stroke="midnightblue" points="41.6884,-552.854 45.4777,-562.748 48.6855,-552.65 41.6884,-552.854"/>
</g>
<!-- Node34 -->
<g id="node34" class="node"><title>Node34</title>
<g id="a_node34"><a xlink:href="classbdm_1_1InSituPipeline.html#a0f9733baaa9cc4fb637312635ccd16f0" target="_top" xlink:title="bdm::InSituPipeline\l::Initialize">
<polygon fill="white" stroke="black" points="161,-196.5 161,-226.5 269,-226.5 269,-196.5 161,-196.5"/>
<text text-anchor="start" x="169" y="-214.5" font-family="Helvetica,sans-Serif" font-size="10.00">bdm::InSituPipeline</text>
<text text-anchor="middle" x="215" y="-203.5" font-family="Helvetica,sans-Serif" font-size="10.00">::Initialize</text>
</a>
</g>
</g>
<!-- Node1&#45;&gt;Node34 -->
<g id="edge38" class="edge"><title>Node1&#45;&gt;Node34</title>
<path fill="none" stroke="midnightblue" d="M48.1066,-552.639C55.3843,-487.668 81.4907,-282.968 126,-236.5 135.228,-226.865 147.875,-220.862 160.704,-217.144"/>
<polygon fill="midnightblue" stroke="midnightblue" points="44.6071,-552.444 46.9995,-562.766 51.5656,-553.205 44.6071,-552.444"/>
</g>
<!-- Node35 -->
<g id="node35" class="node"><title>Node35</title>
<g id="a_node35"><a xlink:href="classbdm_1_1InSituPipeline.html#a5e8cf218b76d8b7df0b5077cc2199898" target="_top" xlink:title="bdm::InSituPipeline\l::RequestDataDescription">
<polygon fill="white" stroke="black" points="146,-147.5 146,-177.5 284,-177.5 284,-147.5 146,-147.5"/>
<text text-anchor="start" x="154" y="-165.5" font-family="Helvetica,sans-Serif" font-size="10.00">bdm::InSituPipeline</text>
<text text-anchor="middle" x="215" y="-154.5" font-family="Helvetica,sans-Serif" font-size="10.00">::RequestDataDescription</text>
</a>
</g>
</g>
<!-- Node1&#45;&gt;Node35 -->
<g id="edge39" class="edge"><title>Node1&#45;&gt;Node35</title>
<path fill="none" stroke="midnightblue" d="M47.4602,-552.583C53.0621,-481.528 75.4485,-241.825 126,-187.5 131.518,-181.57 138.33,-177.011 145.701,-173.511"/>
<polygon fill="midnightblue" stroke="midnightblue" points="43.9501,-552.584 46.6787,-562.821 50.9298,-553.117 43.9501,-552.584"/>
</g>
<!-- Node36 -->
<g id="node36" class="node"><title>Node36</title>
<g id="a_node36"><a xlink:href="classbdm_1_1InSituPipeline.html#a494270a972753169af88179d1ed9680e" target="_top" xlink:title="bdm::InSituPipeline\l::CreatePipeline">
<polygon fill="white" stroke="black" points="161,-98.5 161,-128.5 269,-128.5 269,-98.5 161,-98.5"/>
<text text-anchor="start" x="169" y="-116.5" font-family="Helvetica,sans-Serif" font-size="10.00">bdm::InSituPipeline</text>
<text text-anchor="middle" x="215" y="-105.5" font-family="Helvetica,sans-Serif" font-size="10.00">::CreatePipeline</text>
</a>
</g>
</g>
<!-- Node1&#45;&gt;Node36 -->
<g id="edge40" class="edge"><title>Node1&#45;&gt;Node36</title>
<path fill="none" stroke="midnightblue" d="M46.9521,-552.573C51.0143,-475.854 69.3599,-200.763 126,-138.5 135.084,-128.514 147.838,-122.403 160.822,-118.695"/>
<polygon fill="midnightblue" stroke="midnightblue" points="43.4463,-552.6 46.4361,-562.764 50.4374,-552.954 43.4463,-552.6"/>
</g>
<!-- Node37 -->
<g id="node37" class="node"><title>Node37</title>
<g id="a_node37"><a xlink:href="classbdm_1_1InSituPipeline.html#a21ab5153b2c6f2550d5a428d6d0405eb" target="_top" xlink:title="bdm::InSituPipeline\l::DoLiveVisualization">
<polygon fill="white" stroke="black" points="157.5,-49.5 157.5,-79.5 272.5,-79.5 272.5,-49.5 157.5,-49.5"/>
<text text-anchor="start" x="165.5" y="-67.5" font-family="Helvetica,sans-Serif" font-size="10.00">bdm::InSituPipeline</text>
<text text-anchor="middle" x="215" y="-56.5" font-family="Helvetica,sans-Serif" font-size="10.00">::DoLiveVisualization</text>
</a>
</g>
</g>
<!-- Node1&#45;&gt;Node37 -->
<g id="edge41" class="edge"><title>Node1&#45;&gt;Node37</title>
<path fill="none" stroke="midnightblue" d="M46.5468,-552.486C49.1944,-470.295 63.2616,-159.737 126,-89.5 134.253,-80.2609 145.646,-74.3311 157.5,-70.5515"/>
<polygon fill="midnightblue" stroke="midnightblue" points="43.0359,-552.799 46.2346,-562.9 50.0328,-553.009 43.0359,-552.799"/>
</g>
<!-- Node38 -->
<g id="node38" class="node"><title>Node38</title>
<g id="a_node38"><a xlink:href="classbdm_1_1InSituPipeline.html#a302f4c27dddcf25a3c6bfdb10dc5fdd5" target="_top" xlink:title="bdm::InSituPipeline\l::CoProcess">
<polygon fill="white" stroke="black" points="161,-0.5 161,-30.5 269,-30.5 269,-0.5 161,-0.5"/>
<text text-anchor="start" x="169" y="-18.5" font-family="Helvetica,sans-Serif" font-size="10.00">bdm::InSituPipeline</text>
<text text-anchor="middle" x="215" y="-7.5" font-family="Helvetica,sans-Serif" font-size="10.00">::CoProcess</text>
</a>
</g>
</g>
<!-- Node1&#45;&gt;Node38 -->
<g id="edge42" class="edge"><title>Node1&#45;&gt;Node38</title>
<path fill="none" stroke="midnightblue" d="M46.2075,-552.704C47.5191,-465.788 57.06,-118.845 126,-40.5 134.918,-30.3651 147.616,-24.2043 160.6,-20.4959"/>
<polygon fill="midnightblue" stroke="midnightblue" points="42.7067,-552.746 46.0759,-562.791 49.7061,-552.837 42.7067,-552.746"/>
</g>
<!-- Node6 -->
<g id="node6" class="node"><title>Node6</title>
<g id="a_node6"><a xlink:href="classbdm_1_1DefaultForce.html#aad27c4a1adbaf42aa49d9eff6c982404" target="_top" xlink:title="bdm::DefaultForce::\l~DefaultForce">
<polygon fill="white" stroke="black" points="373.5,-1032.5 373.5,-1062.5 484.5,-1062.5 484.5,-1032.5 373.5,-1032.5"/>
<text text-anchor="start" x="381.5" y="-1050.5" font-family="Helvetica,sans-Serif" font-size="10.00">bdm::DefaultForce::</text>
<text text-anchor="middle" x="429" y="-1039.5" font-family="Helvetica,sans-Serif" font-size="10.00">~DefaultForce</text>
</a>
</g>
</g>
<!-- Node5&#45;&gt;Node6 -->
<g id="edge5" class="edge"><title>Node5&#45;&gt;Node6</title>
<path fill="none" stroke="midnightblue" d="M280.433,-1016.87C310.073,-1023.02 344.866,-1030.25 373.222,-1036.13"/>
<polygon fill="midnightblue" stroke="midnightblue" points="281.098,-1013.44 270.595,-1014.83 279.675,-1020.29 281.098,-1013.44"/>
</g>
<!-- Node7 -->
<g id="node7" class="node"><title>Node7</title>
<g id="a_node7"><a xlink:href="classbdm_1_1Cell.html#a18e79137cf249b125fab4197a366de6a" target="_top" xlink:title="bdm::Cell::CalculateDisplacement">
<polygon fill="white" stroke="black" points="340,-994 340,-1013 518,-1013 518,-994 340,-994"/>
<text text-anchor="middle" x="429" y="-1001" font-family="Helvetica,sans-Serif" font-size="10.00">bdm::Cell::CalculateDisplacement</text>
</a>
</g>
</g>
<!-- Node5&#45;&gt;Node7 -->
<g id="edge6" class="edge"><title>Node5&#45;&gt;Node7</title>
<path fill="none" stroke="midnightblue" d="M280.731,-1003.5C299.382,-1003.5 320.054,-1003.5 339.868,-1003.5"/>
<polygon fill="midnightblue" stroke="midnightblue" points="280.595,-1000 270.595,-1003.5 280.595,-1007 280.595,-1000"/>
</g>
<!-- Node8 -->
<g id="node8" class="node"><title>Node8</title>
<g id="a_node8"><a xlink:href="classbdm_1_1experimental_1_1neuroscience_1_1NeuriteElement.html#a8f3d14062c43ce66eb36dbcdda1dd593" target="_top" xlink:title="bdm::experimental::\lneuroscience::NeuriteElement\l::CalculateDisplacement">
<polygon fill="white" stroke="black" points="348.5,-934 348.5,-975 509.5,-975 509.5,-934 348.5,-934"/>
<text text-anchor="start" x="356.5" y="-963" font-family="Helvetica,sans-Serif" font-size="10.00">bdm::experimental::</text>
<text text-anchor="start" x="356.5" y="-952" font-family="Helvetica,sans-Serif" font-size="10.00">neuroscience::NeuriteElement</text>
<text text-anchor="middle" x="429" y="-941" font-family="Helvetica,sans-Serif" font-size="10.00">::CalculateDisplacement</text>
</a>
</g>
</g>
<!-- Node5&#45;&gt;Node8 -->
<g id="edge7" class="edge"><title>Node5&#45;&gt;Node8</title>
<path fill="none" stroke="midnightblue" d="M280.543,-988.582C301.94,-983.636 326.013,-978.072 348.406,-972.897"/>
<polygon fill="midnightblue" stroke="midnightblue" points="279.55,-985.219 270.595,-990.881 281.127,-992.039 279.55,-985.219"/>
</g>
<!-- Node10 -->
<g id="node10" class="node"><title>Node10</title>
<g id="a_node10"><a xlink:href="classbdm_1_1DiffusionGrid.html#afa16a2da1af4fe02b22abe25eca9ef2f" target="_top" xlink:title="Initializes the grid by calculating the grid dimensions and number of boxes along the axis from the i...">
<polygon fill="white" stroke="black" points="376.5,-715.5 376.5,-745.5 481.5,-745.5 481.5,-715.5 376.5,-715.5"/>
<text text-anchor="start" x="384.5" y="-733.5" font-family="Helvetica,sans-Serif" font-size="10.00">bdm::DiffusionGrid</text>
<text text-anchor="middle" x="429" y="-722.5" font-family="Helvetica,sans-Serif" font-size="10.00">::Initialize</text>
</a>
</g>
</g>
<!-- Node9&#45;&gt;Node10 -->
<g id="edge9" class="edge"><title>Node9&#45;&gt;Node10</title>
<path fill="none" stroke="midnightblue" d="M278.319,-943.849C287.47,-940.536 296.37,-936.193 304,-930.5 370.798,-880.659 409.878,-783.25 422.998,-745.734"/>
<polygon fill="midnightblue" stroke="midnightblue" points="277.175,-940.54 268.733,-946.941 279.324,-947.202 277.175,-940.54"/>
</g>
<!-- Node11 -->
<g id="node11" class="node"><title>Node11</title>
<g id="a_node11"><a xlink:href="classbdm_1_1Scheduler.html#a755db2f226475df0ca5194610f289359" target="_top" xlink:title="bdm::Scheduler::Initialize">
<polygon fill="white" stroke="black" points="742,-546 742,-565 879,-565 879,-546 742,-546"/>
<text text-anchor="middle" x="810.5" y="-553" font-family="Helvetica,sans-Serif" font-size="10.00">bdm::Scheduler::Initialize</text>
</a>
</g>
</g>
<!-- Node10&#45;&gt;Node11 -->
<g id="edge10" class="edge"><title>Node10&#45;&gt;Node11</title>
<path fill="none" stroke="midnightblue" d="M472.091,-711.09C553.164,-673.705 728.298,-592.945 788.599,-565.138"/>
<polygon fill="midnightblue" stroke="midnightblue" points="470.3,-708.062 462.684,-715.428 473.231,-714.419 470.3,-708.062"/>
</g>
<!-- Node12 -->
<g id="node12" class="node"><title>Node12</title>
<g id="a_node12"><a xlink:href="classbdm_1_1Scheduler.html#a380c05f2af4a12eb9655acf37b993996" target="_top" xlink:title="bdm::Scheduler::Simulate">
<polygon fill="white" stroke="black" points="915,-421 915,-440 1056,-440 1056,-421 915,-421"/>
<text text-anchor="middle" x="985.5" y="-428" font-family="Helvetica,sans-Serif" font-size="10.00">bdm::Scheduler::Simulate</text>
</a>
</g>
</g>
<!-- Node11&#45;&gt;Node12 -->
<g id="edge11" class="edge"><title>Node11&#45;&gt;Node12</title>
<path fill="none" stroke="midnightblue" d="M833.176,-539.838C869.362,-513.693 941.048,-461.896 970.928,-440.306"/>
<polygon fill="midnightblue" stroke="midnightblue" points="830.844,-537.205 824.788,-545.899 834.943,-542.879 830.844,-537.205"/>
</g>
<!-- Node22 -->
<g id="node22" class="node"><title>Node22</title>
<g id="a_node22"><a xlink:href="classbdm_1_1Simulation.html#ac64095238593f5201617dc67c5212cb4" target="_top" xlink:title="Initialize Simulation. ">
<polygon fill="white" stroke="black" points="359,-507 359,-526 499,-526 499,-507 359,-507"/>
<text text-anchor="middle" x="429" y="-514" font-family="Helvetica,sans-Serif" font-size="10.00">bdm::Simulation::Initialize</text>
</a>
</g>
</g>
<!-- Node21&#45;&gt;Node22 -->
<g id="edge21" class="edge"><title>Node21&#45;&gt;Node22</title>
<path fill="none" stroke="midnightblue" d="M295.265,-520.883C316.201,-520.191 338.624,-519.451 358.971,-518.779"/>
<polygon fill="midnightblue" stroke="midnightblue" points="295.002,-517.389 285.123,-521.218 295.233,-524.386 295.002,-517.389"/>
</g>
<!-- Node23 -->
<g id="node23" class="node"><title>Node23</title>
<g id="a_node23"><a xlink:href="classbdm_1_1Simulation.html#a977224f116960643d3178bfb9229cb91" target="_top" xlink:title="bdm::Simulation::Simulation">
<polygon fill="white" stroke="black" points="554,-507 554,-526 706,-526 706,-507 554,-507"/>
<text text-anchor="middle" x="630" y="-514" font-family="Helvetica,sans-Serif" font-size="10.00">bdm::Simulation::Simulation</text>
</a>
</g>
</g>
<!-- Node22&#45;&gt;Node23 -->
<g id="edge22" class="edge"><title>Node22&#45;&gt;Node23</title>
<path fill="none" stroke="midnightblue" d="M509.153,-516.5C523.926,-516.5 539.324,-516.5 553.968,-516.5"/>
<polygon fill="midnightblue" stroke="midnightblue" points="509.042,-513 499.042,-516.5 509.042,-520 509.042,-513"/>
</g>
<!-- Node24&#45;&gt;Node22 -->
<g id="edge28" class="edge"><title>Node24&#45;&gt;Node22</title>
<path fill="none" stroke="midnightblue" d="M295.056,-490.162C323.505,-495.798 354.727,-501.984 379.761,-506.943"/>
<polygon fill="midnightblue" stroke="midnightblue" points="295.613,-486.704 285.123,-488.194 294.253,-493.571 295.613,-486.704"/>
</g>
<!-- Node25 -->
<g id="node25" class="node"><title>Node25</title>
<g id="a_node25"><a xlink:href="classbdm_1_1Simulation.html#a372f430298d79571847015c2e108b246" target="_top" xlink:title="bdm::Simulation::Restore">
<polygon fill="white" stroke="black" points="360.5,-462 360.5,-481 497.5,-481 497.5,-462 360.5,-462"/>
<text text-anchor="middle" x="429" y="-469" font-family="Helvetica,sans-Serif" font-size="10.00">bdm::Simulation::Restore</text>
</a>
</g>
</g>
<!-- Node24&#45;&gt;Node25 -->
<g id="edge24" class="edge"><title>Node24&#45;&gt;Node25</title>
<path fill="none" stroke="midnightblue" d="M295.184,-473.379C316.639,-473.076 339.664,-472.75 360.416,-472.456"/>
<polygon fill="midnightblue" stroke="midnightblue" points="295.073,-469.881 285.123,-473.522 295.172,-476.88 295.073,-469.881"/>
</g>
<!-- Node25&#45;&gt;Node26 -->
<g id="edge25" class="edge"><title>Node25&#45;&gt;Node26</title>
<path fill="none" stroke="midnightblue" d="M485.952,-459.972C510.302,-454.955 538.987,-449.045 564.253,-443.84"/>
<polygon fill="midnightblue" stroke="midnightblue" points="485.243,-456.545 476.155,-461.991 486.655,-463.401 485.243,-456.545"/>
</g>
<!-- Node27 -->
<g id="node27" class="node"><title>Node27</title>
<g id="a_node27"><a xlink:href="classbdm_1_1Scheduler.html#a998a74737b1e380ca2a43732a16291b8" target="_top" xlink:title="bdm::Scheduler::Restore">
<polygon fill="white" stroke="black" points="743.5,-421 743.5,-440 877.5,-440 877.5,-421 743.5,-421"/>
<text text-anchor="middle" x="810.5" y="-428" font-family="Helvetica,sans-Serif" font-size="10.00">bdm::Scheduler::Restore</text>
</a>
</g>
</g>
<!-- Node26&#45;&gt;Node27 -->
<g id="edge26" class="edge"><title>Node26&#45;&gt;Node27</title>
<path fill="none" stroke="midnightblue" d="M705.975,-430.5C718.345,-430.5 731.089,-430.5 743.226,-430.5"/>
<polygon fill="midnightblue" stroke="midnightblue" points="705.695,-427 695.695,-430.5 705.695,-434 705.695,-427"/>
</g>
<!-- Node27&#45;&gt;Node12 -->
<g id="edge27" class="edge"><title>Node27&#45;&gt;Node12</title>
<path fill="none" stroke="midnightblue" d="M887.922,-430.5C896.88,-430.5 905.984,-430.5 914.843,-430.5"/>
<polygon fill="midnightblue" stroke="midnightblue" points="887.892,-427 877.892,-430.5 887.892,-434 887.892,-427"/>
</g>
<!-- Node29&#45;&gt;Node26 -->
<g id="edge32" class="edge"><title>Node29&#45;&gt;Node26</title>
<path fill="none" stroke="midnightblue" d="M292.609,-354.751C370.784,-372.355 490.772,-399.374 564.323,-415.936"/>
<polygon fill="midnightblue" stroke="midnightblue" points="293.339,-351.328 282.815,-352.545 291.801,-358.157 293.339,-351.328"/>
</g>
<!-- Node30 -->
<g id="node30" class="node"><title>Node30</title>
<g id="a_node30"><a xlink:href="classbdm_1_1Scheduler.html#a222b9c94d5c909750d22acc6718dcc48" target="_top" xlink:title="bdm::Scheduler::Scheduler">
<polygon fill="white" stroke="black" points="356,-328 356,-347 502,-347 502,-328 356,-328"/>
<text text-anchor="middle" x="429" y="-335" font-family="Helvetica,sans-Serif" font-size="10.00">bdm::Scheduler::Scheduler</text>
</a>
</g>
</g>
<!-- Node29&#45;&gt;Node30 -->
<g id="edge31" class="edge"><title>Node29&#45;&gt;Node30</title>
<path fill="none" stroke="midnightblue" d="M314.258,-337.5C328.32,-337.5 342.565,-337.5 355.995,-337.5"/>
<polygon fill="midnightblue" stroke="midnightblue" points="314.065,-334 304.065,-337.5 314.065,-341 314.065,-334"/>
</g>
<!-- Node32 -->
<g id="node32" class="node"><title>Node32</title>
<g id="a_node32"><a xlink:href="classbdm_1_1Scheduler.html#a7aa37b61bfd3791935d4d515e58b5fc9" target="_top" xlink:title="Backup the simulation. Backup interval based on Param::backup_interval_ ">
<polygon fill="white" stroke="black" points="563,-331 563,-350 697,-350 697,-331 563,-331"/>
<text text-anchor="middle" x="630" y="-338" font-family="Helvetica,sans-Serif" font-size="10.00">bdm::Scheduler::Backup</text>
</a>
</g>
</g>
<!-- Node31&#45;&gt;Node32 -->
<g id="edge34" class="edge"><title>Node31&#45;&gt;Node32</title>
<path fill="none" stroke="midnightblue" d="M503.538,-310.868C532.298,-317.661 564.17,-325.188 588.593,-330.957"/>
<polygon fill="midnightblue" stroke="midnightblue" points="504.049,-307.393 493.512,-308.5 502.44,-314.205 504.049,-307.393"/>
</g>
<!-- Node32&#45;&gt;Node12 -->
<g id="edge35" class="edge"><title>Node32&#45;&gt;Node12</title>
<path fill="none" stroke="midnightblue" d="M678.532,-352.601C749.684,-370.717 882.426,-404.512 947.123,-420.984"/>
<polygon fill="midnightblue" stroke="midnightblue" points="679.05,-349.122 668.496,-350.046 677.323,-355.906 679.05,-349.122"/>
</g>
</g>
</svg>
