<?xml version="1.0" encoding="UTF-8" standalone="no"?>
<!DOCTYPE svg PUBLIC "-//W3C//DTD SVG 1.1//EN"
 "http://www.w3.org/Graphics/SVG/1.1/DTD/svg11.dtd">
<!-- Generated by graphviz version 2.36.0 (20140111.2315)
 -->
<!-- Title: bdm::SoaSimulationObject&lt; TCompileTimeParam, TDerived &gt; Pages: 1 -->
<svg width="216pt" height="448pt"
 viewBox="0.00 0.00 216.00 448.00" xmlns="http://www.w3.org/2000/svg" xmlns:xlink="http://www.w3.org/1999/xlink">
<g id="graph0" class="graph" transform="scale(1 1) rotate(0) translate(4 444)">
<title>bdm::SoaSimulationObject&lt; TCompileTimeParam, TDerived &gt;</title>
<polygon fill="white" stroke="none" points="-4,4 -4,-444 212,-444 212,4 -4,4"/>
<!-- Node1 -->
<g id="node1" class="node"><title>Node1</title>
<polygon fill="#bfbfbf" stroke="black" points="35.5,-0.5 35.5,-299.5 208.5,-299.5 208.5,-0.5 35.5,-0.5"/>
<text text-anchor="start" x="43.5" y="-287.5" font-family="Helvetica,sans-Serif" font-size="10.00">bdm::SoaSimulationObject</text>
<text text-anchor="middle" x="122" y="-276.5" font-family="Helvetica,sans-Serif" font-size="10.00">&lt; TCompileTimeParam, TDerived &gt;</text>
<polyline fill="none" stroke="black" points="35.5,-269.5 208.5,-269.5 "/>
<text text-anchor="middle" x="122" y="-257.5" font-family="Helvetica,sans-Serif" font-size="10.00"> </text>
<polyline fill="none" stroke="black" points="35.5,-250.5 208.5,-250.5 "/>
<text text-anchor="start" x="43.5" y="-238.5" font-family="Helvetica,sans-Serif" font-size="10.00">+ SoaSimulationObject()</text>
<text text-anchor="start" x="43.5" y="-227.5" font-family="Helvetica,sans-Serif" font-size="10.00">+ SoaSimulationObject()</text>
<text text-anchor="start" x="43.5" y="-216.5" font-family="Helvetica,sans-Serif" font-size="10.00">+ SoaSimulationObject()</text>
<text text-anchor="start" x="43.5" y="-205.5" font-family="Helvetica,sans-Serif" font-size="10.00">+ SoaSimulationObject()</text>
<text text-anchor="start" x="43.5" y="-194.5" font-family="Helvetica,sans-Serif" font-size="10.00">+ ~SoaSimulationObject()</text>
<text text-anchor="start" x="43.5" y="-183.5" font-family="Helvetica,sans-Serif" font-size="10.00">+ operator=()</text>
<text text-anchor="start" x="43.5" y="-172.5" font-family="Helvetica,sans-Serif" font-size="10.00">+ operator=()</text>
<text text-anchor="start" x="43.5" y="-161.5" font-family="Helvetica,sans-Serif" font-size="10.00">+ operator=()</text>
<text text-anchor="start" x="43.5" y="-150.5" font-family="Helvetica,sans-Serif" font-size="10.00">+ GetElementIdx()</text>
<text text-anchor="start" x="43.5" y="-139.5" font-family="Helvetica,sans-Serif" font-size="10.00">+ SetElementIdx()</text>
<text text-anchor="start" x="43.5" y="-128.5" font-family="Helvetica,sans-Serif" font-size="10.00">and 11 more...</text>
<text text-anchor="start" x="43.5" y="-117.5" font-family="Helvetica,sans-Serif" font-size="10.00">+ Class()</text>
<text text-anchor="start" x="43.5" y="-106.5" font-family="Helvetica,sans-Serif" font-size="10.00">+ Class_Name()</text>
<text text-anchor="start" x="43.5" y="-95.5" font-family="Helvetica,sans-Serif" font-size="10.00">+ Class_Version()</text>
<text text-anchor="start" x="43.5" y="-84.5" font-family="Helvetica,sans-Serif" font-size="10.00">+ Dictionary()</text>
<text text-anchor="start" x="43.5" y="-73.5" font-family="Helvetica,sans-Serif" font-size="10.00">+ DeclFileName()</text>
<text text-anchor="start" x="43.5" y="-62.5" font-family="Helvetica,sans-Serif" font-size="10.00">+ ImplFileLine()</text>
<text text-anchor="start" x="43.5" y="-51.5" font-family="Helvetica,sans-Serif" font-size="10.00">+ ImplFileName()</text>
<text text-anchor="start" x="43.5" y="-40.5" font-family="Helvetica,sans-Serif" font-size="10.00">+ DeclFileLine()</text>
<text text-anchor="start" x="43.5" y="-29.5" font-family="Helvetica,sans-Serif" font-size="10.00"># PushBackImpl()</text>
<text text-anchor="start" x="43.5" y="-18.5" font-family="Helvetica,sans-Serif" font-size="10.00"># PushBackImpl()</text>
<text text-anchor="start" x="43.5" y="-7.5" font-family="Helvetica,sans-Serif" font-size="10.00"># PopBack()</text>
</g>
<!-- Node2 -->
<g id="node2" class="node"><title>Node2</title>
<g id="a_node2"><a xlink:href="structbdm_1_1type__ternary__operator.html" target="_top" xlink:title="{bdm::type_ternary_operator\l\&lt;is_same\&lt; Backend, bdm::\lSoaRef \&gt;::value, size_t &amp;,\l size_t \&gt;\n||}">
<polygon fill="white" stroke="black" points="-0.5,-349 -0.5,-439 136.5,-439 136.5,-349 -0.5,-349"/>
<text text-anchor="start" x="7.5" y="-427" font-family="Helvetica,sans-Serif" font-size="10.00">bdm::type_ternary_operator</text>
<text text-anchor="start" x="7.5" y="-416" font-family="Helvetica,sans-Serif" font-size="10.00">&lt;is_same&lt; Backend, bdm::</text>
<text text-anchor="start" x="7.5" y="-405" font-family="Helvetica,sans-Serif" font-size="10.00">SoaRef &gt;::value, size_t &amp;,</text>
<text text-anchor="middle" x="68" y="-394" font-family="Helvetica,sans-Serif" font-size="10.00"> size_t &gt;</text>
<polyline fill="none" stroke="black" points="-0.5,-387 136.5,-387 "/>
<text text-anchor="middle" x="68" y="-375" font-family="Helvetica,sans-Serif" font-size="10.00"> </text>
<polyline fill="none" stroke="black" points="-0.5,-368 136.5,-368 "/>
<text text-anchor="middle" x="68" y="-356" font-family="Helvetica,sans-Serif" font-size="10.00"> </text>
</a>
</g>
</g>
<!-- Node2&#45;&gt;Node1 -->
<g id="edge1" class="edge"><title>Node2&#45;&gt;Node1</title>
<path fill="none" stroke="#404040" d="M77.8416,-348.895C80.3357,-337.718 83.1632,-325.046 86.1535,-311.645"/>
<polygon fill="none" stroke="#404040" points="86.2055,-311.412 83.6082,-304.685 88.819,-299.7 91.4162,-306.427 86.2055,-311.412"/>
<text text-anchor="middle" x="99" y="-321.5" font-family="Helvetica,sans-Serif" font-size="10.00"> &#45;size_</text>
</g>
<!-- Node3 -->
<g id="node3" class="node"><title>Node3</title>
<polygon fill="white" stroke="#bfbfbf" points="154.5,-365.5 154.5,-422.5 197.5,-422.5 197.5,-365.5 154.5,-365.5"/>
<text text-anchor="middle" x="176" y="-410.5" font-family="Helvetica,sans-Serif" font-size="10.00">size_t</text>
<polyline fill="none" stroke="#bfbfbf" points="154.5,-403.5 197.5,-403.5 "/>
<text text-anchor="middle" x="176" y="-391.5" font-family="Helvetica,sans-Serif" font-size="10.00"> </text>
<polyline fill="none" stroke="#bfbfbf" points="154.5,-384.5 197.5,-384.5 "/>
<text text-anchor="middle" x="176" y="-372.5" font-family="Helvetica,sans-Serif" font-size="10.00"> </text>
</g>
<!-- Node3&#45;&gt;Node1 -->
<g id="edge2" class="edge"><title>Node3&#45;&gt;Node1</title>
<path fill="none" stroke="#404040" d="M169.806,-365.24C166.595,-350.851 162.388,-331.998 157.801,-311.44"/>
<polygon fill="none" stroke="#404040" points="157.753,-311.224 152.542,-306.239 155.139,-299.512 160.35,-304.497 157.753,-311.224"/>
<text text-anchor="middle" x="175" y="-321.5" font-family="Helvetica,sans-Serif" font-size="10.00"> #kIdx</text>
</g>
</g>
</svg>
