<?xml version="1.0" encoding="UTF-8" standalone="no"?>
<!DOCTYPE svg PUBLIC "-//W3C//DTD SVG 1.1//EN"
 "http://www.w3.org/Graphics/SVG/1.1/DTD/svg11.dtd">
<!-- Generated by graphviz version 2.38.0 (20140413.2041)
 -->
<!-- Title: bdm::Scheduler::Restore Pages: 1 -->
<svg width="1165pt" height="438pt"
 viewBox="0.00 0.00 1165.00 437.50" xmlns="http://www.w3.org/2000/svg" xmlns:xlink="http://www.w3.org/1999/xlink">
<g id="graph0" class="graph" transform="scale(1 1) rotate(0) translate(4 433.5)">
<title>bdm::Scheduler::Restore</title>
<polygon fill="white" stroke="none" points="-4,4 -4,-433.5 1161,-433.5 1161,4 -4,4"/>
<!-- Node1 -->
<g id="node1" class="node"><title>Node1</title>
<polygon fill="#bfbfbf" stroke="black" points="0,-306.5 0,-325.5 134,-325.5 134,-306.5 0,-306.5"/>
<text text-anchor="middle" x="67" y="-313.5" font-family="Helvetica,sans-Serif" font-size="10.00">bdm::Scheduler::Restore</text>
</g>
<!-- Node2 -->
<g id="node2" class="node"><title>Node2</title>
<g id="a_node2"><a xlink:href="classbdm_1_1SimulationBackup.html#a883be6288cae9cf54f3a92637a862020" target="_top" xlink:title="bdm::SimulationBackup\l::RestoreEnabled">
<polygon fill="white" stroke="black" points="360.5,-399 360.5,-429 491.5,-429 491.5,-399 360.5,-399"/>
<text text-anchor="start" x="368.5" y="-417" font-family="Helvetica,sans-Serif" font-size="10.00">bdm::SimulationBackup</text>
<text text-anchor="middle" x="426" y="-406" font-family="Helvetica,sans-Serif" font-size="10.00">::RestoreEnabled</text>
</a>
</g>
</g>
<!-- Node1&#45;&gt;Node2 -->
<g id="edge1" class="edge"><title>Node1&#45;&gt;Node2</title>
<path fill="none" stroke="midnightblue" d="M102.881,-325.575C162.489,-341.938 284.825,-375.521 360.394,-396.265"/>
<polygon fill="midnightblue" stroke="midnightblue" points="359.71,-399.707 370.28,-398.979 361.563,-392.956 359.71,-399.707"/>
</g>
<!-- Node3 -->
<g id="node3" class="node"><title>Node3</title>
<g id="a_node3"><a xlink:href="classbdm_1_1SimulationBackup.html#a65787bdf3578bc392dc0723f18611335" target="_top" xlink:title="bdm::SimulationBackup\l::Restore">
<polygon fill="white" stroke="black" points="170,-248 170,-278 301,-278 301,-248 170,-248"/>
<text text-anchor="start" x="178" y="-266" font-family="Helvetica,sans-Serif" font-size="10.00">bdm::SimulationBackup</text>
<text text-anchor="middle" x="235.5" y="-255" font-family="Helvetica,sans-Serif" font-size="10.00">::Restore</text>
</a>
</g>
</g>
<!-- Node1&#45;&gt;Node3 -->
<g id="edge2" class="edge"><title>Node1&#45;&gt;Node3</title>
<path fill="none" stroke="midnightblue" d="M98.1519,-306.402C120.269,-299.362 150.969,-289.589 177.638,-281.1"/>
<polygon fill="midnightblue" stroke="midnightblue" points="178.791,-284.406 187.258,-278.038 176.668,-277.736 178.791,-284.406"/>
</g>
<!-- Node3&#45;&gt;Node2 -->
<g id="edge26" class="edge"><title>Node3&#45;&gt;Node2</title>
<path fill="none" stroke="midnightblue" d="M246.712,-278.016C267.388,-308.02 314.171,-373.809 337,-389 341.351,-391.895 346.037,-394.459 350.901,-396.729"/>
<polygon fill="midnightblue" stroke="midnightblue" points="349.857,-400.087 360.431,-400.743 352.573,-393.636 349.857,-400.087"/>
</g>
<!-- Node4 -->
<g id="node4" class="node"><title>Node4</title>
<g id="a_node4"><a xlink:href="classbdm_1_1Log.html#ad80c15ca7fb87dc59f68477f5e8166d6" target="_top" xlink:title="Prints fatal error message. ">
<polygon fill="white" stroke="black" points="758,-192.5 758,-211.5 848,-211.5 848,-192.5 758,-192.5"/>
<text text-anchor="middle" x="803" y="-199.5" font-family="Helvetica,sans-Serif" font-size="10.00">bdm::Log::Fatal</text>
</a>
</g>
</g>
<!-- Node3&#45;&gt;Node4 -->
<g id="edge3" class="edge"><title>Node3&#45;&gt;Node4</title>
<path fill="none" stroke="midnightblue" d="M268.768,-247.847C288.108,-239.52 313.443,-229.909 337,-225 482.991,-194.576 660.077,-196.059 747.607,-199.26"/>
<polygon fill="midnightblue" stroke="midnightblue" points="747.701,-202.767 757.83,-199.657 747.973,-195.772 747.701,-202.767"/>
</g>
<!-- Node7 -->
<g id="node7" class="node"><title>Node7</title>
<g id="a_node7"><a xlink:href="classbdm_1_1TFileRaii.html#ac4328103c3774c141fa55a7f3bfa35df" target="_top" xlink:title="bdm::TFileRaii::Get">
<polygon fill="white" stroke="black" points="751,-76.5 751,-95.5 855,-95.5 855,-76.5 751,-76.5"/>
<text text-anchor="middle" x="803" y="-83.5" font-family="Helvetica,sans-Serif" font-size="10.00">bdm::TFileRaii::Get</text>
</a>
</g>
</g>
<!-- Node3&#45;&gt;Node7 -->
<g id="edge6" class="edge"><title>Node3&#45;&gt;Node7</title>
<path fill="none" stroke="midnightblue" d="M246.493,-247.937C262.587,-225.019 296.571,-181.861 337,-161 469.206,-92.7826 648.349,-83.6463 740.946,-84.0701"/>
<polygon fill="midnightblue" stroke="midnightblue" points="740.959,-87.5703 750.988,-84.1555 741.018,-80.5705 740.959,-87.5703"/>
</g>
<!-- Node8 -->
<g id="node8" class="node"><title>Node8</title>
<g id="a_node8"><a xlink:href="classbdm_1_1Log.html#a30fb7f6a405338c9bddba3d7cbb07f16" target="_top" xlink:title="Prints warning message. ">
<polygon fill="white" stroke="black" points="580.5,-365.5 580.5,-384.5 685.5,-384.5 685.5,-365.5 580.5,-365.5"/>
<text text-anchor="middle" x="633" y="-372.5" font-family="Helvetica,sans-Serif" font-size="10.00">bdm::Log::Warning</text>
</a>
</g>
</g>
<!-- Node3&#45;&gt;Node8 -->
<g id="edge7" class="edge"><title>Node3&#45;&gt;Node8</title>
<path fill="none" stroke="midnightblue" d="M301.243,-265.98C372.159,-270.294 480.429,-280.28 515,-302 539.424,-317.345 527.302,-339.557 551,-356 556.956,-360.133 563.69,-363.375 570.667,-365.918"/>
<polygon fill="midnightblue" stroke="midnightblue" points="569.693,-369.28 580.284,-368.969 571.81,-362.608 569.693,-369.28"/>
</g>
<!-- Node9 -->
<g id="node9" class="node"><title>Node9</title>
<g id="a_node9"><a xlink:href="classbdm_1_1Simulation.html#a67bdfef8ac06a741e287d73d2d941c63" target="_top" xlink:title="This function returns the currently active Simulation simulation. ">
<polygon fill="white" stroke="black" points="352,-360.5 352,-379.5 500,-379.5 500,-360.5 352,-360.5"/>
<text text-anchor="middle" x="426" y="-367.5" font-family="Helvetica,sans-Serif" font-size="10.00">bdm::Simulation::GetActive</text>
</a>
</g>
</g>
<!-- Node3&#45;&gt;Node9 -->
<g id="edge9" class="edge"><title>Node3&#45;&gt;Node9</title>
<path fill="none" stroke="midnightblue" d="M249.126,-278.038C266.707,-297.946 300.534,-332.663 337,-351 341.68,-353.353 346.643,-355.416 351.735,-357.224"/>
<polygon fill="midnightblue" stroke="midnightblue" points="351.053,-360.681 361.644,-360.396 353.187,-354.014 351.053,-360.681"/>
</g>
<!-- Node10 -->
<g id="node10" class="node"><title>Node10</title>
<g id="a_node10"><a xlink:href="classbdm_1_1Simulation.html#a372f430298d79571847015c2e108b246" target="_top" xlink:title="bdm::Simulation::Restore">
<polygon fill="white" stroke="black" points="357.5,-234.5 357.5,-253.5 494.5,-253.5 494.5,-234.5 357.5,-234.5"/>
<text text-anchor="middle" x="426" y="-241.5" font-family="Helvetica,sans-Serif" font-size="10.00">bdm::Simulation::Restore</text>
</a>
</g>
</g>
<!-- Node3&#45;&gt;Node10 -->
<g id="edge10" class="edge"><title>Node3&#45;&gt;Node10</title>
<path fill="none" stroke="midnightblue" d="M301.107,-256.488C315.97,-254.99 331.927,-253.381 347.28,-251.834"/>
<polygon fill="midnightblue" stroke="midnightblue" points="347.666,-255.313 357.264,-250.827 346.964,-248.348 347.666,-255.313"/>
</g>
<!-- Node14 -->
<g id="node14" class="node"><title>Node14</title>
<g id="a_node14"><a xlink:href="classbdm_1_1Log.html#a416ad3b1f970835cf2d3041d1e57cfa5" target="_top" xlink:title="Prints information message. ">
<polygon fill="white" stroke="black" points="760.5,-153.5 760.5,-172.5 845.5,-172.5 845.5,-153.5 760.5,-153.5"/>
<text text-anchor="middle" x="803" y="-160.5" font-family="Helvetica,sans-Serif" font-size="10.00">bdm::Log::Info</text>
</a>
</g>
</g>
<!-- Node3&#45;&gt;Node14 -->
<g id="edge17" class="edge"><title>Node3&#45;&gt;Node14</title>
<path fill="none" stroke="midnightblue" d="M254.342,-247.742C273.411,-232.421 305.214,-209.61 337,-199 480.551,-151.085 662.35,-153.945 750.032,-158.98"/>
<polygon fill="midnightblue" stroke="midnightblue" points="750.055,-162.488 760.249,-159.602 750.48,-155.501 750.055,-162.488"/>
</g>
<!-- Node15 -->
<g id="node15" class="node"><title>Node15</title>
<g id="a_node15"><a xlink:href="classbdm_1_1SimulationBackup.html#ae39680ee434349e02016bedb6f165dd8" target="_top" xlink:title="bdm::SimulationBackup\l::GetSimulationStepsFromBackup">
<polygon fill="white" stroke="black" points="337,-27 337,-57 515,-57 515,-27 337,-27"/>
<text text-anchor="start" x="345" y="-45" font-family="Helvetica,sans-Serif" font-size="10.00">bdm::SimulationBackup</text>
<text text-anchor="middle" x="426" y="-34" font-family="Helvetica,sans-Serif" font-size="10.00">::GetSimulationStepsFromBackup</text>
</a>
</g>
</g>
<!-- Node3&#45;&gt;Node15 -->
<g id="edge19" class="edge"><title>Node3&#45;&gt;Node15</title>
<path fill="none" stroke="midnightblue" d="M240.278,-247.922C250.014,-212.122 279.334,-121.314 337,-72 341.558,-68.1021 346.647,-64.7037 352.016,-61.7419"/>
<polygon fill="midnightblue" stroke="midnightblue" points="353.864,-64.7324 361.273,-57.1586 350.758,-58.4592 353.864,-64.7324"/>
</g>
<!-- Node19 -->
<g id="node19" class="node"><title>Node19</title>
<g id="a_node19"><a xlink:href="classbdm_1_1SimulationBackup.html#a437ea2ec7457d13ad06fdf197cd17af0" target="_top" xlink:title="bdm::SimulationBackup\l::BackupEnabled">
<polygon fill="white" stroke="black" points="360.5,-311 360.5,-341 491.5,-341 491.5,-311 360.5,-311"/>
<text text-anchor="start" x="368.5" y="-329" font-family="Helvetica,sans-Serif" font-size="10.00">bdm::SimulationBackup</text>
<text text-anchor="middle" x="426" y="-318" font-family="Helvetica,sans-Serif" font-size="10.00">::BackupEnabled</text>
</a>
</g>
</g>
<!-- Node3&#45;&gt;Node19 -->
<g id="edge25" class="edge"><title>Node3&#45;&gt;Node19</title>
<path fill="none" stroke="midnightblue" d="M281.65,-278.09C308.249,-286.98 342.086,-298.289 370.205,-307.687"/>
<polygon fill="midnightblue" stroke="midnightblue" points="369.298,-311.074 379.892,-310.924 371.517,-304.435 369.298,-311.074"/>
</g>
<!-- Node5 -->
<g id="node5" class="node"><title>Node5</title>
<g id="a_node5"><a xlink:href="namespacebdm.html#a2fa839a2549004e92e23175955de8ae9" target="_top" xlink:title="Concatenates all arguments into a string. Equivalent to streaming all arguments into a stringstream a...">
<polygon fill="white" stroke="black" points="891,-212.5 891,-231.5 969,-231.5 969,-212.5 891,-212.5"/>
<text text-anchor="middle" x="930" y="-219.5" font-family="Helvetica,sans-Serif" font-size="10.00">bdm::Concat</text>
</a>
</g>
</g>
<!-- Node4&#45;&gt;Node5 -->
<g id="edge4" class="edge"><title>Node4&#45;&gt;Node5</title>
<path fill="none" stroke="midnightblue" d="M848.07,-209.051C858.617,-210.739 869.933,-212.549 880.661,-214.266"/>
<polygon fill="midnightblue" stroke="midnightblue" points="880.295,-217.752 890.722,-215.876 881.401,-210.84 880.295,-217.752"/>
</g>
<!-- Node6 -->
<g id="node6" class="node"><title>Node6</title>
<g id="a_node6"><a xlink:href="namespacebdm_1_1detail.html#a16e0361b1aefd0958218781e4e3bbf12" target="_top" xlink:title="Appends the closing string to the message. ">
<polygon fill="white" stroke="black" points="1005,-212.5 1005,-231.5 1157,-231.5 1157,-212.5 1005,-212.5"/>
<text text-anchor="middle" x="1081" y="-219.5" font-family="Helvetica,sans-Serif" font-size="10.00">bdm::detail::ConcatNextPart</text>
</a>
</g>
</g>
<!-- Node5&#45;&gt;Node6 -->
<g id="edge5" class="edge"><title>Node5&#45;&gt;Node6</title>
<path fill="none" stroke="midnightblue" d="M969.371,-222C977.328,-222 986.009,-222 994.897,-222"/>
<polygon fill="midnightblue" stroke="midnightblue" points="994.99,-225.5 1004.99,-222 994.99,-218.5 994.99,-225.5"/>
</g>
<!-- Node8&#45;&gt;Node5 -->
<g id="edge8" class="edge"><title>Node8&#45;&gt;Node5</title>
<path fill="none" stroke="midnightblue" d="M685.793,-365.535C695.676,-362.982 705.801,-359.834 715,-356 791.465,-324.128 871.658,-266.287 908.403,-238.188"/>
<polygon fill="midnightblue" stroke="midnightblue" points="911.005,-240.601 916.78,-231.719 906.726,-235.061 911.005,-240.601"/>
</g>
<!-- Node10&#45;&gt;Node8 -->
<g id="edge11" class="edge"><title>Node10&#45;&gt;Node8</title>
<path fill="none" stroke="midnightblue" d="M490.25,-253.591C499.27,-257.041 507.884,-261.704 515,-268 546.647,-296.002 518.856,-328.57 551,-356 556.665,-360.835 563.335,-364.492 570.373,-367.251"/>
<polygon fill="midnightblue" stroke="midnightblue" points="569.548,-370.665 580.141,-370.483 571.747,-364.019 569.548,-370.665"/>
</g>
<!-- Node11 -->
<g id="node11" class="node"><title>Node11</title>
<g id="a_node11"><a xlink:href="structbdm_1_1Param.html#a578f1272cb36e9e4a83b5a533b3fa6ca" target="_top" xlink:title="bdm::Param::Restore">
<polygon fill="white" stroke="black" points="574.5,-327.5 574.5,-346.5 691.5,-346.5 691.5,-327.5 574.5,-327.5"/>
<text text-anchor="middle" x="633" y="-334.5" font-family="Helvetica,sans-Serif" font-size="10.00">bdm::Param::Restore</text>
</a>
</g>
</g>
<!-- Node10&#45;&gt;Node11 -->
<g id="edge12" class="edge"><title>Node10&#45;&gt;Node11</title>
<path fill="none" stroke="midnightblue" d="M484.435,-253.591C495.185,-257.024 505.892,-261.681 515,-268 537.499,-283.608 528.225,-302.797 551,-318 555.246,-320.834 559.864,-323.248 564.669,-325.304"/>
<polygon fill="midnightblue" stroke="midnightblue" points="563.502,-328.604 574.094,-328.831 565.955,-322.048 563.502,-328.604"/>
</g>
<!-- Node12 -->
<g id="node12" class="node"><title>Node12</title>
<g id="a_node12"><a xlink:href="classbdm_1_1Simulation.html#a6cfcdfca4147ce20921e67f962175f97" target="_top" xlink:title="This function initialzes unique_name_ ">
<polygon fill="white" stroke="black" points="563,-278 563,-308 703,-308 703,-278 563,-278"/>
<text text-anchor="start" x="571" y="-296" font-family="Helvetica,sans-Serif" font-size="10.00">bdm::Simulation::Initialize</text>
<text text-anchor="middle" x="633" y="-285" font-family="Helvetica,sans-Serif" font-size="10.00">UniqueName</text>
</a>
</g>
</g>
<!-- Node10&#45;&gt;Node12 -->
<g id="edge13" class="edge"><title>Node10&#45;&gt;Node12</title>
<path fill="none" stroke="midnightblue" d="M467.013,-253.564C493.193,-259.822 528.168,-268.182 559.178,-275.594"/>
<polygon fill="midnightblue" stroke="midnightblue" points="558.551,-279.042 569.09,-277.963 560.178,-272.234 558.551,-279.042"/>
</g>
<!-- Node13 -->
<g id="node13" class="node"><title>Node13</title>
<g id="a_node13"><a xlink:href="classbdm_1_1Simulation.html#ad5431b3a52d85f73de84719144549246" target="_top" xlink:title="Initializes output_dir_ and creates dir if it does not exist. ">
<polygon fill="white" stroke="black" points="563,-229 563,-259 703,-259 703,-229 563,-229"/>
<text text-anchor="start" x="571" y="-247" font-family="Helvetica,sans-Serif" font-size="10.00">bdm::Simulation::Initialize</text>
<text text-anchor="middle" x="633" y="-236" font-family="Helvetica,sans-Serif" font-size="10.00">OutputDir</text>
</a>
</g>
</g>
<!-- Node10&#45;&gt;Node13 -->
<g id="edge14" class="edge"><title>Node10&#45;&gt;Node13</title>
<path fill="none" stroke="midnightblue" d="M494.693,-244C513.278,-244 533.596,-244 552.767,-244"/>
<polygon fill="midnightblue" stroke="midnightblue" points="552.976,-247.5 562.976,-244 552.976,-240.5 552.976,-247.5"/>
</g>
<!-- Node13&#45;&gt;Node4 -->
<g id="edge16" class="edge"><title>Node13&#45;&gt;Node4</title>
<path fill="none" stroke="midnightblue" d="M694.177,-228.956C713.89,-224.027 735.511,-218.622 754.183,-213.954"/>
<polygon fill="midnightblue" stroke="midnightblue" points="755.084,-217.337 763.936,-211.516 753.386,-210.546 755.084,-217.337"/>
</g>
<!-- Node13&#45;&gt;Node5 -->
<g id="edge15" class="edge"><title>Node13&#45;&gt;Node5</title>
<path fill="none" stroke="midnightblue" d="M703.164,-238.842C757.743,-234.772 832.479,-229.198 880.754,-225.598"/>
<polygon fill="midnightblue" stroke="midnightblue" points="881.222,-229.073 890.934,-224.839 880.702,-222.092 881.222,-229.073"/>
</g>
<!-- Node14&#45;&gt;Node5 -->
<g id="edge18" class="edge"><title>Node14&#45;&gt;Node5</title>
<path fill="none" stroke="midnightblue" d="M829.917,-172.521C838.028,-175.671 846.958,-179.318 855,-183 871.307,-190.466 889.102,-199.805 903.155,-207.473"/>
<polygon fill="midnightblue" stroke="midnightblue" points="901.774,-210.708 912.221,-212.47 905.153,-204.578 901.774,-210.708"/>
</g>
<!-- Node15&#45;&gt;Node4 -->
<g id="edge24" class="edge"><title>Node15&#45;&gt;Node4</title>
<path fill="none" stroke="midnightblue" d="M460.891,-57.0975C519.679,-83.1844 644.485,-138.117 751,-182 756.276,-184.174 761.881,-186.427 767.37,-188.603"/>
<polygon fill="midnightblue" stroke="midnightblue" points="766.442,-192 777.03,-192.404 769.005,-185.486 766.442,-192"/>
</g>
<!-- Node16 -->
<g id="node16" class="node"><title>Node16</title>
<g id="a_node16"><a xlink:href="namespacebdm.html#ab69142f2c58bfb100d371ba95c8e92cb" target="_top" xlink:title="Gets the persistent object from the specified ROOT file. ">
<polygon fill="white" stroke="black" points="563,-38.5 563,-57.5 703,-57.5 703,-38.5 563,-38.5"/>
<text text-anchor="middle" x="633" y="-45.5" font-family="Helvetica,sans-Serif" font-size="10.00">bdm::GetPersistentObject</text>
</a>
</g>
</g>
<!-- Node15&#45;&gt;Node16 -->
<g id="edge20" class="edge"><title>Node15&#45;&gt;Node16</title>
<path fill="none" stroke="midnightblue" d="M515.128,-44.5794C527.591,-44.9441 540.343,-45.3174 552.627,-45.6769"/>
<polygon fill="midnightblue" stroke="midnightblue" points="552.722,-49.1811 562.82,-45.9752 552.926,-42.1841 552.722,-49.1811"/>
</g>
<!-- Node18 -->
<g id="node18" class="node"><title>Node18</title>
<g id="a_node18"><a xlink:href="classbdm_1_1IntegralTypeWrapper.html#a98db85b6051bac2f9379eda85701c8be" target="_top" xlink:title="bdm::IntegralTypeWrapper::Get">
<polygon fill="white" stroke="black" points="551,-0.5 551,-19.5 715,-19.5 715,-0.5 551,-0.5"/>
<text text-anchor="middle" x="633" y="-7.5" font-family="Helvetica,sans-Serif" font-size="10.00">bdm::IntegralTypeWrapper::Get</text>
</a>
</g>
</g>
<!-- Node15&#45;&gt;Node18 -->
<g id="edge23" class="edge"><title>Node15&#45;&gt;Node18</title>
<path fill="none" stroke="midnightblue" d="M515.128,-28.2434C530.47,-25.8486 546.25,-23.3853 561.057,-21.074"/>
<polygon fill="midnightblue" stroke="midnightblue" points="561.794,-24.5014 571.135,-19.5009 560.715,-17.5852 561.794,-24.5014"/>
</g>
<!-- Node16&#45;&gt;Node7 -->
<g id="edge22" class="edge"><title>Node16&#45;&gt;Node7</title>
<path fill="none" stroke="midnightblue" d="M676.393,-57.589C698.763,-62.6487 726.398,-68.8996 750.047,-74.2488"/>
<polygon fill="midnightblue" stroke="midnightblue" points="749.386,-77.6875 759.911,-76.4799 750.93,-70.8599 749.386,-77.6875"/>
</g>
<!-- Node17 -->
<g id="node17" class="node"><title>Node17</title>
<g id="a_node17"><a xlink:href="namespacebdm.html#a52b5f1a0e2dac8df993214aee8678d51" target="_top" xlink:title="bdm::FileExists">
<polygon fill="white" stroke="black" points="759.5,-38.5 759.5,-57.5 846.5,-57.5 846.5,-38.5 759.5,-38.5"/>
<text text-anchor="middle" x="803" y="-45.5" font-family="Helvetica,sans-Serif" font-size="10.00">bdm::FileExists</text>
</a>
</g>
</g>
<!-- Node16&#45;&gt;Node17 -->
<g id="edge21" class="edge"><title>Node16&#45;&gt;Node17</title>
<path fill="none" stroke="midnightblue" d="M703.302,-48C718.576,-48 734.519,-48 749.025,-48"/>
<polygon fill="midnightblue" stroke="midnightblue" points="749.304,-51.5001 759.304,-48 749.304,-44.5001 749.304,-51.5001"/>
</g>
</g>
</svg>
