<?xml version="1.0" encoding="UTF-8" standalone="no"?>
<!DOCTYPE svg PUBLIC "-//W3C//DTD SVG 1.1//EN"
 "http://www.w3.org/Graphics/SVG/1.1/DTD/svg11.dtd">
<!-- Generated by graphviz version 2.38.0 (20140413.2041)
 -->
<!-- Title: bdm::InPlaceExecutionContext::RemoveFromSimulation Pages: 1 -->
<svg width="766pt" height="94pt"
 viewBox="0.00 0.00 766.00 93.50" xmlns="http://www.w3.org/2000/svg" xmlns:xlink="http://www.w3.org/1999/xlink">
<g id="graph0" class="graph" transform="scale(1 1) rotate(0) translate(4 89.5)">
<title>bdm::InPlaceExecutionContext::RemoveFromSimulation</title>
<polygon fill="white" stroke="none" points="-4,4 -4,-89.5 762,-89.5 762,4 -4,4"/>
<!-- Node1 -->
<g id="node1" class="node"><title>Node1</title>
<polygon fill="#bfbfbf" stroke="black" points="0,-30 0,-60 162,-60 162,-30 0,-30"/>
<text text-anchor="start" x="8" y="-48" font-family="Helvetica,sans-Serif" font-size="10.00">bdm::InPlaceExecutionContext</text>
<text text-anchor="middle" x="81" y="-37" font-family="Helvetica,sans-Serif" font-size="10.00">::RemoveFromSimulation</text>
</g>
<!-- Node2 -->
<g id="node2" class="node"><title>Node2</title>
<g id="a_node2"><a xlink:href="classbdm_1_1SimObject.html#a5490ec0c79366ed7c1d5f9feae546588" target="_top" xlink:title="bdm::SimObject::RemoveFrom\lSimulation">
<polygon fill="white" stroke="black" points="198,-30 198,-60 360,-60 360,-30 198,-30"/>
<text text-anchor="start" x="206" y="-48" font-family="Helvetica,sans-Serif" font-size="10.00">bdm::SimObject::RemoveFrom</text>
<text text-anchor="middle" x="279" y="-37" font-family="Helvetica,sans-Serif" font-size="10.00">Simulation</text>
</a>
</g>
</g>
<!-- Node1&#45;&gt;Node2 -->
<g id="edge1" class="edge"><title>Node1&#45;&gt;Node2</title>
<path fill="none" stroke="midnightblue" d="M172.077,-45C180.703,-45 189.413,-45 197.935,-45"/>
<polygon fill="midnightblue" stroke="midnightblue" points="172.003,-41.5001 162.003,-45 172.003,-48.5001 172.003,-41.5001"/>
</g>
<!-- Node3 -->
<g id="node3" class="node"><title>Node3</title>
<g id="a_node3"><a xlink:href="classbdm_1_1SimObject.html#a961ba40129151a040376fd416caad642" target="_top" xlink:title="bdm::SimObject::RunDisplacement">
<polygon fill="white" stroke="black" points="396,-60.5 396,-79.5 579,-79.5 579,-60.5 396,-60.5"/>
<text text-anchor="middle" x="487.5" y="-67.5" font-family="Helvetica,sans-Serif" font-size="10.00">bdm::SimObject::RunDisplacement</text>
</a>
</g>
</g>
<!-- Node2&#45;&gt;Node3 -->
<g id="edge2" class="edge"><title>Node2&#45;&gt;Node3</title>
<path fill="none" stroke="midnightblue" d="M370.119,-55.9103C382.659,-57.4284 395.461,-58.9783 407.77,-60.4685"/>
<polygon fill="midnightblue" stroke="midnightblue" points="370.482,-52.4288 360.134,-54.7014 369.641,-59.378 370.482,-52.4288"/>
</g>
<!-- Node5 -->
<g id="node5" class="node"><title>Node5</title>
<g id="a_node5"><a xlink:href="classbdm_1_1experimental_1_1neuroscience_1_1NeuriteElement.html#a635d05007807af4f7b271faad9c4d4d3" target="_top" xlink:title="bdm::experimental::\lneuroscience::NeuriteElement\l::RetractTerminalEnd">
<polygon fill="white" stroke="black" points="407,-0.5 407,-41.5 568,-41.5 568,-0.5 407,-0.5"/>
<text text-anchor="start" x="415" y="-29.5" font-family="Helvetica,sans-Serif" font-size="10.00">bdm::experimental::</text>
<text text-anchor="start" x="415" y="-18.5" font-family="Helvetica,sans-Serif" font-size="10.00">neuroscience::NeuriteElement</text>
<text text-anchor="middle" x="487.5" y="-7.5" font-family="Helvetica,sans-Serif" font-size="10.00">::RetractTerminalEnd</text>
</a>
</g>
</g>
<!-- Node2&#45;&gt;Node5 -->
<g id="edge4" class="edge"><title>Node2&#45;&gt;Node5</title>
<path fill="none" stroke="midnightblue" d="M370.265,-34.5091C382.413,-33.0973 394.804,-31.6572 406.751,-30.2686"/>
<polygon fill="midnightblue" stroke="midnightblue" points="369.663,-31.0555 360.134,-35.6866 370.471,-38.0087 369.663,-31.0555"/>
</g>
<!-- Node4 -->
<g id="node4" class="node"><title>Node4</title>
<g id="a_node4"><a xlink:href="classbdm_1_1DisplacementOpCpu.html#a15d548e606d50c46388a6b74c356a8c7" target="_top" xlink:title="bdm::DisplacementOpCpu\l::operator()">
<polygon fill="white" stroke="black" points="615,-55 615,-85 758,-85 758,-55 615,-55"/>
<text text-anchor="start" x="623" y="-73" font-family="Helvetica,sans-Serif" font-size="10.00">bdm::DisplacementOpCpu</text>
<text text-anchor="middle" x="686.5" y="-62" font-family="Helvetica,sans-Serif" font-size="10.00">::operator()</text>
</a>
</g>
</g>
<!-- Node3&#45;&gt;Node4 -->
<g id="edge3" class="edge"><title>Node3&#45;&gt;Node4</title>
<path fill="none" stroke="midnightblue" d="M589.29,-70C597.877,-70 606.44,-70 614.719,-70"/>
<polygon fill="midnightblue" stroke="midnightblue" points="589.216,-66.5001 579.216,-70 589.216,-73.5001 589.216,-66.5001"/>
</g>
</g>
</svg>
