<?xml version="1.0" encoding="UTF-8" standalone="no"?>
<!DOCTYPE svg PUBLIC "-//W3C//DTD SVG 1.1//EN"
 "http://www.w3.org/Graphics/SVG/1.1/DTD/svg11.dtd">
<!-- Generated by graphviz version 2.36.0 (20140111.2315)
 -->
<!-- Title: bdm::Grid::GetBoxIndex Pages: 1 -->
<svg width="350pt" height="136pt"
 viewBox="0.00 0.00 350.00 136.00" xmlns="http://www.w3.org/2000/svg" xmlns:xlink="http://www.w3.org/1999/xlink">
<g id="graph0" class="graph" transform="scale(1 1) rotate(0) translate(4 132)">
<title>bdm::Grid::GetBoxIndex</title>
<polygon fill="white" stroke="none" points="-4,4 -4,-132 346,-132 346,4 -4,4"/>
<!-- Node1 -->
<g id="node1" class="node"><title>Node1</title>
<polygon fill="#bfbfbf" stroke="black" points="0,-54.5 0,-73.5 122,-73.5 122,-54.5 0,-54.5"/>
<text text-anchor="middle" x="61" y="-61.5" font-family="Helvetica,sans-Serif" font-size="10.00">bdm::Grid::GetBoxIndex</text>
</g>
<!-- Node1&#45;&gt;Node1 -->
<g id="edge4" class="edge"><title>Node1&#45;&gt;Node1</title>
<path fill="none" stroke="midnightblue" d="M25.7678,-81.8913C26.2838,-87.5406 38.0278,-92 61,-92 94.4141,-92 104.073,-82.5653 89.9763,-73.7571"/>
<polygon fill="midnightblue" stroke="midnightblue" points="28.7017,-83.8176 32.0237,-73.7571 23.1529,-79.5501 28.7017,-83.8176"/>
</g>
<!-- Node2 -->
<g id="node2" class="node"><title>Node2</title>
<g id="a_node2"><a xlink:href="classbdm_1_1Grid.html#a28268d3427670a3b7853f15057faab8c" target="_top" xlink:title="Updates the grid, as simulation objects may have moved, added or deleted. ">
<polygon fill="white" stroke="black" points="180.5,-98 180.5,-128 319.5,-128 319.5,-98 180.5,-98"/>
<text text-anchor="start" x="188.5" y="-116" font-family="Helvetica,sans-Serif" font-size="10.00">bdm::Grid&lt; bdm::Simulation</text>
<text text-anchor="middle" x="250" y="-105" font-family="Helvetica,sans-Serif" font-size="10.00"> &gt;::UpdateGrid</text>
</a>
</g>
</g>
<!-- Node1&#45;&gt;Node2 -->
<g id="edge1" class="edge"><title>Node1&#45;&gt;Node2</title>
<path fill="none" stroke="midnightblue" d="M108.184,-76.1018C133.396,-82.708 164.839,-90.9471 191.614,-97.963"/>
<polygon fill="midnightblue" stroke="midnightblue" points="109.06,-72.7131 98.4994,-73.564 107.286,-79.4845 109.06,-72.7131"/>
</g>
<!-- Node3 -->
<g id="node3" class="node"><title>Node3</title>
<g id="a_node3"><a xlink:href="classbdm_1_1Grid.html#a640bc89a85803eff987f07f9543df5ad" target="_top" xlink:title="Applies the given lambda to each neighbor. ">
<polygon fill="white" stroke="black" points="180.5,-49 180.5,-79 319.5,-79 319.5,-49 180.5,-49"/>
<text text-anchor="start" x="188.5" y="-67" font-family="Helvetica,sans-Serif" font-size="10.00">bdm::Grid&lt; bdm::Simulation</text>
<text text-anchor="middle" x="250" y="-56" font-family="Helvetica,sans-Serif" font-size="10.00"> &gt;::ForEachNeighbor</text>
</a>
</g>
</g>
<!-- Node1&#45;&gt;Node3 -->
<g id="edge2" class="edge"><title>Node1&#45;&gt;Node3</title>
<path fill="none" stroke="midnightblue" d="M132.387,-64C148.128,-64 164.802,-64 180.467,-64"/>
<polygon fill="midnightblue" stroke="midnightblue" points="132.197,-60.5001 122.197,-64 132.197,-67.5001 132.197,-60.5001"/>
</g>
<!-- Node4 -->
<g id="node4" class="node"><title>Node4</title>
<g id="a_node4"><a xlink:href="classbdm_1_1Grid.html#a1c5a3c8c6c82ce5be485adb806de88c1" target="_top" xlink:title="bdm::Grid\&lt; bdm::Simulation\l \&gt;::ForEachNeighborPairWithinRadius">
<polygon fill="white" stroke="black" points="158.5,-0 158.5,-30 341.5,-30 341.5,-0 158.5,-0"/>
<text text-anchor="start" x="166.5" y="-18" font-family="Helvetica,sans-Serif" font-size="10.00">bdm::Grid&lt; bdm::Simulation</text>
<text text-anchor="middle" x="250" y="-7" font-family="Helvetica,sans-Serif" font-size="10.00"> &gt;::ForEachNeighborPairWithinRadius</text>
</a>
</g>
</g>
<!-- Node1&#45;&gt;Node4 -->
<g id="edge3" class="edge"><title>Node1&#45;&gt;Node4</title>
<path fill="none" stroke="midnightblue" d="M108.184,-51.8982C133.396,-45.292 164.839,-37.0529 191.614,-30.037"/>
<polygon fill="midnightblue" stroke="midnightblue" points="107.286,-48.5155 98.4994,-54.436 109.06,-55.2869 107.286,-48.5155"/>
</g>
</g>
</svg>
