<?xml version="1.0" encoding="UTF-8" standalone="no"?>
<!DOCTYPE svg PUBLIC "-//W3C//DTD SVG 1.1//EN"
 "http://www.w3.org/Graphics/SVG/1.1/DTD/svg11.dtd">
<!-- Generated by graphviz version 2.38.0 (20140413.2041)
 -->
<!-- Title: bdm::DiffusionGrid::Update Pages: 1 -->
<svg width="463pt" height="88pt"
 viewBox="0.00 0.00 463.00 88.00" xmlns="http://www.w3.org/2000/svg" xmlns:xlink="http://www.w3.org/1999/xlink">
<g id="graph0" class="graph" transform="scale(1 1) rotate(0) translate(4 84)">
<title>bdm::DiffusionGrid::Update</title>
<polygon fill="white" stroke="none" points="-4,4 -4,-84 459,-84 459,4 -4,4"/>
<!-- Node1 -->
<g id="node1" class="node"><title>Node1</title>
<polygon fill="#bfbfbf" stroke="black" points="0,-24.5 0,-54.5 105,-54.5 105,-24.5 0,-24.5"/>
<text text-anchor="start" x="8" y="-42.5" font-family="Helvetica,sans-Serif" font-size="10.00">bdm::DiffusionGrid</text>
<text text-anchor="middle" x="52.5" y="-31.5" font-family="Helvetica,sans-Serif" font-size="10.00">::Update</text>
</g>
<!-- Node2 -->
<g id="node2" class="node"><title>Node2</title>
<g id="a_node2"><a xlink:href="classbdm_1_1ParallelResizeVector.html#aec1c55b20256db897e98a6ef90311bc8" target="_top" xlink:title="bdm::ParallelResizeVector\l::clear">
<polygon fill="white" stroke="black" points="141,-49.5 141,-79.5 280,-79.5 280,-49.5 141,-49.5"/>
<text text-anchor="start" x="149" y="-67.5" font-family="Helvetica,sans-Serif" font-size="10.00">bdm::ParallelResizeVector</text>
<text text-anchor="middle" x="210.5" y="-56.5" font-family="Helvetica,sans-Serif" font-size="10.00">::clear</text>
</a>
</g>
</g>
<!-- Node1&#45;&gt;Node2 -->
<g id="edge1" class="edge"><title>Node1&#45;&gt;Node2</title>
<path fill="none" stroke="midnightblue" d="M105.013,-47.7552C113.331,-49.0883 122.105,-50.4944 130.889,-51.9021"/>
<polygon fill="midnightblue" stroke="midnightblue" points="130.36,-55.3619 140.788,-53.4884 131.468,-48.4501 130.36,-55.3619"/>
</g>
<!-- Node3 -->
<g id="node3" class="node"><title>Node3</title>
<g id="a_node3"><a xlink:href="classbdm_1_1DiffusionGrid.html#a0a4d7563c9f4a01e2c3fc541e3398016" target="_top" xlink:title="bdm::DiffusionGrid\l::CopyOldData">
<polygon fill="white" stroke="black" points="158,-0.5 158,-30.5 263,-30.5 263,-0.5 158,-0.5"/>
<text text-anchor="start" x="166" y="-18.5" font-family="Helvetica,sans-Serif" font-size="10.00">bdm::DiffusionGrid</text>
<text text-anchor="middle" x="210.5" y="-7.5" font-family="Helvetica,sans-Serif" font-size="10.00">::CopyOldData</text>
</a>
</g>
</g>
<!-- Node1&#45;&gt;Node3 -->
<g id="edge2" class="edge"><title>Node1&#45;&gt;Node3</title>
<path fill="none" stroke="midnightblue" d="M105.013,-31.575C118.653,-29.4765 133.519,-27.1893 147.647,-25.0159"/>
<polygon fill="midnightblue" stroke="midnightblue" points="148.424,-28.4376 157.775,-23.4577 147.359,-21.519 148.424,-28.4376"/>
</g>
<!-- Node4 -->
<g id="node4" class="node"><title>Node4</title>
<g id="a_node4"><a xlink:href="classbdm_1_1ParallelResizeVector.html#ac004f5f717041b05a135417f4c3d5456" target="_top" xlink:title="bdm::ParallelResizeVector\l::resize">
<polygon fill="white" stroke="black" points="316,-0.5 316,-30.5 455,-30.5 455,-0.5 316,-0.5"/>
<text text-anchor="start" x="324" y="-18.5" font-family="Helvetica,sans-Serif" font-size="10.00">bdm::ParallelResizeVector</text>
<text text-anchor="middle" x="385.5" y="-7.5" font-family="Helvetica,sans-Serif" font-size="10.00">::resize</text>
</a>
</g>
</g>
<!-- Node3&#45;&gt;Node4 -->
<g id="edge3" class="edge"><title>Node3&#45;&gt;Node4</title>
<path fill="none" stroke="midnightblue" d="M263.406,-15.5C276.7,-15.5 291.301,-15.5 305.62,-15.5"/>
<polygon fill="midnightblue" stroke="midnightblue" points="305.974,-19.0001 315.974,-15.5 305.974,-12.0001 305.974,-19.0001"/>
</g>
</g>
</svg>
