<?xml version="1.0" encoding="UTF-8" standalone="no"?>
<!DOCTYPE svg PUBLIC "-//W3C//DTD SVG 1.1//EN"
 "http://www.w3.org/Graphics/SVG/1.1/DTD/svg11.dtd">
<!-- Generated by graphviz version 2.38.0 (20140413.2041)
 -->
<!-- Title: bdm::ResourceManager::DebugNuma Pages: 1 -->
<svg width="335pt" height="78pt"
 viewBox="0.00 0.00 335.00 77.50" xmlns="http://www.w3.org/2000/svg" xmlns:xlink="http://www.w3.org/1999/xlink">
<g id="graph0" class="graph" transform="scale(1 1) rotate(0) translate(4 73.5)">
<title>bdm::ResourceManager::DebugNuma</title>
<polygon fill="white" stroke="none" points="-4,4 -4,-73.5 331,-73.5 331,4 -4,4"/>
<!-- Node1 -->
<g id="node1" class="node"><title>Node1</title>
<polygon fill="#bfbfbf" stroke="black" points="0,-17 0,-47 130,-47 130,-17 0,-17"/>
<text text-anchor="start" x="8" y="-35" font-family="Helvetica,sans-Serif" font-size="10.00">bdm::ResourceManager</text>
<text text-anchor="middle" x="65" y="-24" font-family="Helvetica,sans-Serif" font-size="10.00">::DebugNuma</text>
</g>
<!-- Node2 -->
<g id="node2" class="node"><title>Node2</title>
<g id="a_node2"><a xlink:href="classbdm_1_1ResourceManager.html#ab17beb97ee664ffeb79a1d839896b0ad" target="_top" xlink:title="bdm::ResourceManager\l::SortAndBalanceNumaNodes">
<polygon fill="white" stroke="black" points="166.5,-39 166.5,-69 326.5,-69 326.5,-39 166.5,-39"/>
<text text-anchor="start" x="174.5" y="-57" font-family="Helvetica,sans-Serif" font-size="10.00">bdm::ResourceManager</text>
<text text-anchor="middle" x="246.5" y="-46" font-family="Helvetica,sans-Serif" font-size="10.00">::SortAndBalanceNumaNodes</text>
</a>
</g>
</g>
<!-- Node1&#45;&gt;Node2 -->
<g id="edge1" class="edge"><title>Node1&#45;&gt;Node2</title>
<path fill="none" stroke="midnightblue" d="M140.116,-41.0838C148.792,-42.1472 157.669,-43.2352 166.409,-44.3064"/>
<polygon fill="midnightblue" stroke="midnightblue" points="140.395,-37.5919 130.043,-39.8493 139.543,-44.5399 140.395,-37.5919"/>
</g>
<!-- Node3 -->
<g id="node3" class="node"><title>Node3</title>
<g id="a_node3"><a xlink:href="classbdm_1_1Simulation.html#a07a2514efb7500c7858769ac0d51d7b3" target="_top" xlink:title="bdm::Simulation::~Simulation">
<polygon fill="white" stroke="black" points="166,-0.5 166,-19.5 327,-19.5 327,-0.5 166,-0.5"/>
<text text-anchor="middle" x="246.5" y="-7.5" font-family="Helvetica,sans-Serif" font-size="10.00">bdm::Simulation::~Simulation</text>
</a>
</g>
</g>
<!-- Node1&#45;&gt;Node3 -->
<g id="edge2" class="edge"><title>Node1&#45;&gt;Node3</title>
<path fill="none" stroke="midnightblue" d="M140.256,-22.899C149.403,-21.7779 158.772,-20.6296 167.966,-19.5027"/>
<polygon fill="midnightblue" stroke="midnightblue" points="139.543,-19.4601 130.043,-24.1507 140.395,-26.4081 139.543,-19.4601"/>
</g>
</g>
</svg>
