<?xml version="1.0" encoding="UTF-8" standalone="no"?>
<!DOCTYPE svg PUBLIC "-//W3C//DTD SVG 1.1//EN"
 "http://www.w3.org/Graphics/SVG/1.1/DTD/svg11.dtd">
<!-- Generated by graphviz version 2.43.0 (0)
 -->
<!-- Title: core/param/command_line_options.h Pages: 1 -->
<svg width="1929pt" height="453pt"
 viewBox="0.00 0.00 1928.50 453.00" xmlns="http://www.w3.org/2000/svg" xmlns:xlink="http://www.w3.org/1999/xlink">
<g id="graph0" class="graph" transform="scale(1 1) rotate(0) translate(4 449)">
<title>core/param/command_line_options.h</title>
<polygon fill="white" stroke="transparent" points="-4,4 -4,-449 1924.5,-449 1924.5,4 -4,4"/>
<!-- Node1 -->
<g id="node1" class="node">
<title>Node1</title>
<g id="a_node1"><a xlink:title=" ">
<polygon fill="#bfbfbf" stroke="black" points="1532,-414.5 1532,-444.5 1656,-444.5 1656,-414.5 1532,-414.5"/>
<text text-anchor="start" x="1540" y="-432.5" font-family="Helvetica,sans-Serif" font-size="10.00">core/param/command</text>
<text text-anchor="middle" x="1594" y="-421.5" font-family="Helvetica,sans-Serif" font-size="10.00">_line_options.h</text>
</a>
</g>
</g>
<!-- Node2 -->
<g id="node2" class="node">
<title>Node2</title>
<g id="a_node2"><a xlink:title=" ">
<polygon fill="white" stroke="#bfbfbf" points="0,-56.5 0,-75.5 54,-75.5 54,-56.5 0,-56.5"/>
<text text-anchor="middle" x="27" y="-63.5" font-family="Helvetica,sans-Serif" font-size="10.00">TError.h</text>
</a>
</g>
</g>
<!-- Node1&#45;&gt;Node2 -->
<g id="edge1" class="edge">
<title>Node1&#45;&gt;Node2</title>
<path fill="none" stroke="midnightblue" d="M1531.74,-427.83C1304.67,-425.13 521.45,-413.41 274,-378 156.75,-361.22 17,-425.94 17,-307.5 17,-307.5 17,-307.5 17,-177 17,-144.82 21.3,-107.55 24.26,-85.7"/>
<polygon fill="midnightblue" stroke="midnightblue" points="27.76,-85.92 25.69,-75.53 20.83,-84.95 27.76,-85.92"/>
</g>
<!-- Node3 -->
<g id="node3" class="node">
<title>Node3</title>
<g id="a_node3"><a xlink:title=" ">
<polygon fill="white" stroke="#bfbfbf" points="1750.5,-358.5 1750.5,-377.5 1813.5,-377.5 1813.5,-358.5 1750.5,-358.5"/>
<text text-anchor="middle" x="1782" y="-365.5" font-family="Helvetica,sans-Serif" font-size="10.00">cxxopts.h</text>
</a>
</g>
</g>
<!-- Node1&#45;&gt;Node3 -->
<g id="edge2" class="edge">
<title>Node1&#45;&gt;Node3</title>
<path fill="none" stroke="midnightblue" d="M1638.55,-414.4C1671.04,-404.12 1714.54,-390.35 1745.09,-380.68"/>
<polygon fill="midnightblue" stroke="midnightblue" points="1746.44,-383.93 1754.92,-377.57 1744.33,-377.25 1746.44,-383.93"/>
</g>
<!-- Node4 -->
<g id="node4" class="node">
<title>Node4</title>
<g id="a_node4"><a xlink:title=" ">
<polygon fill="white" stroke="#bfbfbf" points="1293,-168.5 1293,-187.5 1357,-187.5 1357,-168.5 1293,-168.5"/>
<text text-anchor="middle" x="1325" y="-175.5" font-family="Helvetica,sans-Serif" font-size="10.00">algorithm</text>
</a>
</g>
</g>
<!-- Node1&#45;&gt;Node4 -->
<g id="edge3" class="edge">
<title>Node1&#45;&gt;Node4</title>
<path fill="none" stroke="midnightblue" d="M1593.24,-414.32C1590.43,-377.06 1577.52,-275.7 1519,-224 1516.12,-221.45 1423.53,-200.71 1367.32,-188.29"/>
<polygon fill="midnightblue" stroke="midnightblue" points="1367.8,-184.81 1357.28,-186.08 1366.29,-191.65 1367.8,-184.81"/>
</g>
<!-- Node5 -->
<g id="node5" class="node">
<title>Node5</title>
<g id="a_node5"><a xlink:title=" ">
<polygon fill="white" stroke="#bfbfbf" points="418,-56.5 418,-75.5 478,-75.5 478,-56.5 418,-56.5"/>
<text text-anchor="middle" x="448" y="-63.5" font-family="Helvetica,sans-Serif" font-size="10.00">iostream</text>
</a>
</g>
</g>
<!-- Node1&#45;&gt;Node5 -->
<g id="edge4" class="edge">
<title>Node1&#45;&gt;Node5</title>
<path fill="none" stroke="midnightblue" d="M1531.76,-426.92C1243.84,-419.23 55,-382.88 55,-307.5 55,-307.5 55,-307.5 55,-177 55,-104.29 307.59,-77.46 407.77,-69.68"/>
<polygon fill="midnightblue" stroke="midnightblue" points="408.11,-73.17 417.81,-68.93 407.58,-66.19 408.11,-73.17"/>
</g>
<!-- Node6 -->
<g id="node6" class="node">
<title>Node6</title>
<g id="a_node6"><a xlink:title=" ">
<polygon fill="white" stroke="#bfbfbf" points="1598.5,-168.5 1598.5,-187.5 1655.5,-187.5 1655.5,-168.5 1598.5,-168.5"/>
<text text-anchor="middle" x="1627" y="-175.5" font-family="Helvetica,sans-Serif" font-size="10.00">ostream</text>
</a>
</g>
</g>
<!-- Node1&#45;&gt;Node6 -->
<g id="edge5" class="edge">
<title>Node1&#45;&gt;Node6</title>
<path fill="none" stroke="midnightblue" d="M1598.73,-414.07C1601.83,-404.06 1605.72,-390.35 1608,-378 1620.07,-312.69 1624.71,-233.82 1626.29,-198.16"/>
<polygon fill="midnightblue" stroke="midnightblue" points="1629.8,-197.94 1626.71,-187.8 1622.8,-197.65 1629.8,-197.94"/>
</g>
<!-- Node7 -->
<g id="node7" class="node">
<title>Node7</title>
<g id="a_node7"><a xlink:title=" ">
<polygon fill="white" stroke="#bfbfbf" points="1461,-0.5 1461,-19.5 1505,-19.5 1505,-0.5 1461,-0.5"/>
<text text-anchor="middle" x="1483" y="-7.5" font-family="Helvetica,sans-Serif" font-size="10.00">string</text>
</a>
</g>
</g>
<!-- Node1&#45;&gt;Node7 -->
<g id="edge6" class="edge">
<title>Node1&#45;&gt;Node7</title>
<path fill="none" stroke="midnightblue" d="M1627.3,-414.47C1665.22,-396 1722,-359.64 1722,-307.5 1722,-307.5 1722,-307.5 1722,-121 1722,-31 1580.42,-14.38 1515.2,-11.5"/>
<polygon fill="midnightblue" stroke="midnightblue" points="1515.18,-7.99 1505.06,-11.13 1514.92,-14.99 1515.18,-7.99"/>
</g>
<!-- Node8 -->
<g id="node8" class="node">
<title>Node8</title>
<g id="a_node8"><a xlink:title=" ">
<polygon fill="white" stroke="#bfbfbf" points="818.5,-168.5 818.5,-187.5 863.5,-187.5 863.5,-168.5 818.5,-168.5"/>
<text text-anchor="middle" x="841" y="-175.5" font-family="Helvetica,sans-Serif" font-size="10.00">utility</text>
</a>
</g>
</g>
<!-- Node1&#45;&gt;Node8 -->
<g id="edge7" class="edge">
<title>Node1&#45;&gt;Node8</title>
<path fill="none" stroke="midnightblue" d="M1531.98,-428.62C1403.12,-427.96 1111.1,-421.55 1023,-378 938.47,-336.22 874.3,-237.02 850.77,-196.6"/>
<polygon fill="midnightblue" stroke="midnightblue" points="853.79,-194.82 845.79,-187.86 847.7,-198.28 853.79,-194.82"/>
</g>
<!-- Node9 -->
<g id="node9" class="node">
<title>Node9</title>
<g id="a_node9"><a xlink:title=" ">
<polygon fill="white" stroke="#bfbfbf" points="1831.5,-358.5 1831.5,-377.5 1920.5,-377.5 1920.5,-358.5 1831.5,-358.5"/>
<text text-anchor="middle" x="1876" y="-365.5" font-family="Helvetica,sans-Serif" font-size="10.00">bdm_version.h</text>
</a>
</g>
</g>
<!-- Node1&#45;&gt;Node9 -->
<g id="edge8" class="edge">
<title>Node1&#45;&gt;Node9</title>
<path fill="none" stroke="midnightblue" d="M1656.24,-415.37C1707.16,-404.62 1778.27,-389.62 1825.65,-379.62"/>
<polygon fill="midnightblue" stroke="midnightblue" points="1826.62,-383 1835.69,-377.51 1825.18,-376.15 1826.62,-383"/>
</g>
<!-- Node10 -->
<g id="node10" class="node">
<title>Node10</title>
<g id="a_node10"><a xlink:href="simulation_8h.html" target="_top" xlink:title=" ">
<polygon fill="white" stroke="black" points="1031.5,-358.5 1031.5,-377.5 1132.5,-377.5 1132.5,-358.5 1031.5,-358.5"/>
<text text-anchor="middle" x="1082" y="-365.5" font-family="Helvetica,sans-Serif" font-size="10.00">core/simulation.h</text>
</a>
</g>
</g>
<!-- Node1&#45;&gt;Node10 -->
<g id="edge9" class="edge">
<title>Node1&#45;&gt;Node10</title>
<path fill="none" stroke="midnightblue" d="M1531.99,-421.29C1433.12,-409.8 1240.94,-387.47 1142.83,-376.07"/>
<polygon fill="midnightblue" stroke="midnightblue" points="1143.11,-372.58 1132.77,-374.9 1142.3,-379.53 1143.11,-372.58"/>
</g>
<!-- Node10&#45;&gt;Node7 -->
<g id="edge11" class="edge">
<title>Node10&#45;&gt;Node7</title>
<path fill="none" stroke="midnightblue" d="M1132.5,-362.48C1188.82,-356.6 1282.23,-344.33 1360,-322 1502.31,-281.13 1585.07,-312.63 1665,-188 1711.98,-114.75 1578.24,-49.2 1514.59,-23.05"/>
<polygon fill="midnightblue" stroke="midnightblue" points="1515.6,-19.68 1505.02,-19.2 1512.99,-26.18 1515.6,-19.68"/>
</g>
<!-- Node11 -->
<g id="node11" class="node">
<title>Node11</title>
<g id="a_node11"><a xlink:title=" ">
<polygon fill="white" stroke="#bfbfbf" points="580.5,-56.5 580.5,-75.5 645.5,-75.5 645.5,-56.5 580.5,-56.5"/>
<text text-anchor="middle" x="613" y="-63.5" font-family="Helvetica,sans-Serif" font-size="10.00">functional</text>
</a>
</g>
</g>
<!-- Node10&#45;&gt;Node11 -->
<g id="edge10" class="edge">
<title>Node10&#45;&gt;Node11</title>
<path fill="none" stroke="midnightblue" d="M1031.18,-366.2C934.46,-363.92 728.05,-355.19 666,-322 631.78,-303.7 623.24,-291.48 610,-255 588.69,-196.28 600.92,-120.29 608.45,-85.67"/>
<polygon fill="midnightblue" stroke="midnightblue" points="611.93,-86.13 610.77,-75.6 605.11,-84.56 611.93,-86.13"/>
</g>
<!-- Node12 -->
<g id="node12" class="node">
<title>Node12</title>
<g id="a_node12"><a xlink:title=" ">
<polygon fill="white" stroke="#bfbfbf" points="240.5,-0.5 240.5,-19.5 287.5,-19.5 287.5,-0.5 240.5,-0.5"/>
<text text-anchor="middle" x="264" y="-7.5" font-family="Helvetica,sans-Serif" font-size="10.00">vector</text>
</a>
</g>
</g>
<!-- Node10&#45;&gt;Node12 -->
<g id="edge12" class="edge">
<title>Node10&#45;&gt;Node12</title>
<path fill="none" stroke="midnightblue" d="M1031.3,-366.33C836.82,-363.55 147.59,-351.62 112,-322 83.41,-298.21 93,-277.69 93,-240.5 93,-240.5 93,-240.5 93,-121 93,-56.41 180.37,-27.95 230.2,-16.98"/>
<polygon fill="midnightblue" stroke="midnightblue" points="231.15,-20.36 240.22,-14.89 229.72,-13.5 231.15,-20.36"/>
</g>
<!-- Node13 -->
<g id="node13" class="node">
<title>Node13</title>
<g id="a_node13"><a xlink:href="agent__uid_8h.html" target="_top" xlink:title=" ">
<polygon fill="white" stroke="black" points="1018,-297 1018,-316 1146,-316 1146,-297 1018,-297"/>
<text text-anchor="middle" x="1082" y="-304" font-family="Helvetica,sans-Serif" font-size="10.00">core/agent/agent_uid.h</text>
</a>
</g>
</g>
<!-- Node10&#45;&gt;Node13 -->
<g id="edge13" class="edge">
<title>Node10&#45;&gt;Node13</title>
<path fill="none" stroke="midnightblue" d="M1082,-358.48C1082,-350.08 1082,-336.98 1082,-326.16"/>
<polygon fill="midnightblue" stroke="midnightblue" points="1085.5,-326.01 1082,-316.01 1078.5,-326.01 1085.5,-326.01"/>
</g>
<!-- Node15 -->
<g id="node15" class="node">
<title>Node15</title>
<g id="a_node15"><a xlink:href="root_8h.html" target="_top" xlink:title=" ">
<polygon fill="white" stroke="black" points="1149,-168.5 1149,-187.5 1237,-187.5 1237,-168.5 1149,-168.5"/>
<text text-anchor="middle" x="1193" y="-175.5" font-family="Helvetica,sans-Serif" font-size="10.00">core/util/root.h</text>
</a>
</g>
</g>
<!-- Node10&#45;&gt;Node15 -->
<g id="edge74" class="edge">
<title>Node10&#45;&gt;Node15</title>
<path fill="none" stroke="midnightblue" d="M1103.03,-358.37C1119.12,-350.84 1140.88,-338.53 1155,-322 1185.79,-285.97 1191.94,-227.59 1192.97,-197.8"/>
<polygon fill="midnightblue" stroke="midnightblue" points="1196.47,-197.63 1193.15,-187.56 1189.47,-197.5 1196.47,-197.63"/>
</g>
<!-- Node22 -->
<g id="node22" class="node">
<title>Node22</title>
<g id="a_node22"><a xlink:href="opencl__state_8h.html" target="_top" xlink:title=" ">
<polygon fill="white" stroke="black" points="121.5,-297 121.5,-316 254.5,-316 254.5,-297 121.5,-297"/>
<text text-anchor="middle" x="188" y="-304" font-family="Helvetica,sans-Serif" font-size="10.00">core/gpu/opencl_state.h</text>
</a>
</g>
</g>
<!-- Node10&#45;&gt;Node22 -->
<g id="edge28" class="edge">
<title>Node10&#45;&gt;Node22</title>
<path fill="none" stroke="midnightblue" d="M1031.37,-363.63C882.09,-353.69 442.98,-324.47 264.62,-312.6"/>
<polygon fill="midnightblue" stroke="midnightblue" points="264.74,-309.1 254.53,-311.93 264.28,-316.08 264.74,-309.1"/>
</g>
<!-- Node24 -->
<g id="node24" class="node">
<title>Node24</title>
<g id="a_node24"><a xlink:href="memory__manager_8h.html" target="_top" xlink:title=" ">
<polygon fill="white" stroke="black" points="675,-291.5 675,-321.5 801,-321.5 801,-291.5 675,-291.5"/>
<text text-anchor="start" x="683" y="-309.5" font-family="Helvetica,sans-Serif" font-size="10.00">core/memory/memory</text>
<text text-anchor="middle" x="738" y="-298.5" font-family="Helvetica,sans-Serif" font-size="10.00">_manager.h</text>
</a>
</g>
</g>
<!-- Node10&#45;&gt;Node24 -->
<g id="edge31" class="edge">
<title>Node10&#45;&gt;Node24</title>
<path fill="none" stroke="midnightblue" d="M1032.71,-358.48C974.75,-348.45 878,-331.72 811.25,-320.17"/>
<polygon fill="midnightblue" stroke="midnightblue" points="811.67,-316.69 801.22,-318.43 810.48,-323.59 811.67,-316.69"/>
</g>
<!-- Node37 -->
<g id="node37" class="node">
<title>Node37</title>
<g id="a_node37"><a xlink:href="random_8h.html" target="_top" xlink:title=" ">
<polygon fill="white" stroke="black" points="1245,-297 1245,-316 1351,-316 1351,-297 1245,-297"/>
<text text-anchor="middle" x="1298" y="-304" font-family="Helvetica,sans-Serif" font-size="10.00">core/util/random.h</text>
</a>
</g>
</g>
<!-- Node10&#45;&gt;Node37 -->
<g id="edge55" class="edge">
<title>Node10&#45;&gt;Node37</title>
<path fill="none" stroke="midnightblue" d="M1112.95,-358.48C1150.88,-348.03 1215.28,-330.29 1257.22,-318.73"/>
<polygon fill="midnightblue" stroke="midnightblue" points="1258.4,-322.04 1267.11,-316.01 1256.54,-315.29 1258.4,-322.04"/>
</g>
<!-- Node14 -->
<g id="node14" class="node">
<title>Node14</title>
<g id="a_node14"><a xlink:title=" ">
<polygon fill="white" stroke="#bfbfbf" points="975,-230 975,-249 1019,-249 1019,-230 975,-230"/>
<text text-anchor="middle" x="997" y="-237" font-family="Helvetica,sans-Serif" font-size="10.00">limits</text>
</a>
</g>
</g>
<!-- Node13&#45;&gt;Node14 -->
<g id="edge14" class="edge">
<title>Node13&#45;&gt;Node14</title>
<path fill="none" stroke="midnightblue" d="M1070.54,-296.73C1056.64,-286.11 1033.02,-268.05 1016.31,-255.26"/>
<polygon fill="midnightblue" stroke="midnightblue" points="1018.35,-252.42 1008.28,-249.13 1014.1,-257.98 1018.35,-252.42"/>
</g>
<!-- Node13&#45;&gt;Node15 -->
<g id="edge15" class="edge">
<title>Node13&#45;&gt;Node15</title>
<path fill="none" stroke="midnightblue" d="M1101.63,-296.86C1118.98,-288.38 1143.94,-273.95 1160,-255 1174.2,-238.24 1183.21,-214.42 1188.16,-197.94"/>
<polygon fill="midnightblue" stroke="midnightblue" points="1191.65,-198.44 1190.95,-187.87 1184.9,-196.57 1191.65,-198.44"/>
</g>
<!-- Node16 -->
<g id="node16" class="node">
<title>Node16</title>
<g id="a_node16"><a xlink:title=" ">
<polygon fill="white" stroke="#bfbfbf" points="684.5,-112.5 684.5,-131.5 741.5,-131.5 741.5,-112.5 684.5,-112.5"/>
<text text-anchor="middle" x="713" y="-119.5" font-family="Helvetica,sans-Serif" font-size="10.00">TClass.h</text>
</a>
</g>
</g>
<!-- Node15&#45;&gt;Node16 -->
<g id="edge16" class="edge">
<title>Node15&#45;&gt;Node16</title>
<path fill="none" stroke="midnightblue" d="M1148.79,-169.23C1145.82,-168.79 1142.87,-168.38 1140,-168 971.04,-145.87 924.07,-159.55 751.47,-131.83"/>
<polygon fill="midnightblue" stroke="midnightblue" points="751.98,-128.37 741.55,-130.21 750.85,-135.28 751.98,-128.37"/>
</g>
<!-- Node17 -->
<g id="node17" class="node">
<title>Node17</title>
<g id="a_node17"><a xlink:href="log_8h.html" target="_top" xlink:title=" ">
<polygon fill="white" stroke="black" points="759.5,-112.5 759.5,-131.5 842.5,-131.5 842.5,-112.5 759.5,-112.5"/>
<text text-anchor="middle" x="801" y="-119.5" font-family="Helvetica,sans-Serif" font-size="10.00">core/util/log.h</text>
</a>
</g>
</g>
<!-- Node15&#45;&gt;Node17 -->
<g id="edge17" class="edge">
<title>Node15&#45;&gt;Node17</title>
<path fill="none" stroke="midnightblue" d="M1148.77,-169.37C1145.81,-168.89 1142.86,-168.43 1140,-168 1038.45,-152.64 919.34,-137.49 852.78,-129.28"/>
<polygon fill="midnightblue" stroke="midnightblue" points="852.91,-125.77 842.56,-128.02 852.05,-132.72 852.91,-125.77"/>
</g>
<!-- Node17&#45;&gt;Node2 -->
<g id="edge18" class="edge">
<title>Node17&#45;&gt;Node2</title>
<path fill="none" stroke="midnightblue" d="M759.31,-113.12C756.5,-112.71 753.71,-112.33 751,-112 489.3,-80.42 171.54,-70.4 64.35,-67.79"/>
<polygon fill="midnightblue" stroke="midnightblue" points="64.14,-64.29 54.06,-67.55 63.97,-71.29 64.14,-64.29"/>
</g>
<!-- Node17&#45;&gt;Node5 -->
<g id="edge22" class="edge">
<title>Node17&#45;&gt;Node5</title>
<path fill="none" stroke="midnightblue" d="M759.27,-113.39C756.48,-112.91 753.7,-112.44 751,-112 657.13,-96.59 546.52,-80.74 488.38,-72.6"/>
<polygon fill="midnightblue" stroke="midnightblue" points="488.54,-69.08 478.15,-71.17 487.57,-76.02 488.54,-69.08"/>
</g>
<!-- Node17&#45;&gt;Node7 -->
<g id="edge23" class="edge">
<title>Node17&#45;&gt;Node7</title>
<path fill="none" stroke="midnightblue" d="M842.64,-114.28C967.87,-94.09 1339.33,-34.17 1450.94,-16.17"/>
<polygon fill="midnightblue" stroke="midnightblue" points="1451.59,-19.61 1460.91,-14.56 1450.48,-12.7 1451.59,-19.61"/>
</g>
<!-- Node17&#45;&gt;Node11 -->
<g id="edge21" class="edge">
<title>Node17&#45;&gt;Node11</title>
<path fill="none" stroke="midnightblue" d="M771.21,-112.44C739.17,-103.24 688.07,-88.56 652.65,-78.39"/>
<polygon fill="midnightblue" stroke="midnightblue" points="653.23,-74.91 642.65,-75.52 651.29,-81.64 653.23,-74.91"/>
</g>
<!-- Node18 -->
<g id="node18" class="node">
<title>Node18</title>
<g id="a_node18"><a xlink:title=" ">
<polygon fill="white" stroke="#bfbfbf" points="778,-56.5 778,-75.5 824,-75.5 824,-56.5 778,-56.5"/>
<text text-anchor="middle" x="801" y="-63.5" font-family="Helvetica,sans-Serif" font-size="10.00">cstdio</text>
</a>
</g>
</g>
<!-- Node17&#45;&gt;Node18 -->
<g id="edge19" class="edge">
<title>Node17&#45;&gt;Node18</title>
<path fill="none" stroke="midnightblue" d="M801,-112.08C801,-105.01 801,-94.86 801,-85.99"/>
<polygon fill="midnightblue" stroke="midnightblue" points="804.5,-85.75 801,-75.75 797.5,-85.75 804.5,-85.75"/>
</g>
<!-- Node19 -->
<g id="node19" class="node">
<title>Node19</title>
<g id="a_node19"><a xlink:title=" ">
<polygon fill="white" stroke="#bfbfbf" points="842.5,-56.5 842.5,-75.5 891.5,-75.5 891.5,-56.5 842.5,-56.5"/>
<text text-anchor="middle" x="867" y="-63.5" font-family="Helvetica,sans-Serif" font-size="10.00">cstdlib</text>
</a>
</g>
</g>
<!-- Node17&#45;&gt;Node19 -->
<g id="edge20" class="edge">
<title>Node17&#45;&gt;Node19</title>
<path fill="none" stroke="midnightblue" d="M811.6,-112.32C821.46,-104.26 836.35,-92.08 848.22,-82.37"/>
<polygon fill="midnightblue" stroke="midnightblue" points="850.68,-84.88 856.2,-75.83 846.25,-79.46 850.68,-84.88"/>
</g>
<!-- Node20 -->
<g id="node20" class="node">
<title>Node20</title>
<g id="a_node20"><a xlink:href="string_8h.html" target="_top" xlink:title=" ">
<polygon fill="white" stroke="black" points="664,-56.5 664,-75.5 760,-75.5 760,-56.5 664,-56.5"/>
<text text-anchor="middle" x="712" y="-63.5" font-family="Helvetica,sans-Serif" font-size="10.00">core/util/string.h</text>
</a>
</g>
</g>
<!-- Node17&#45;&gt;Node20 -->
<g id="edge24" class="edge">
<title>Node17&#45;&gt;Node20</title>
<path fill="none" stroke="midnightblue" d="M786.7,-112.32C772.82,-103.9 751.51,-90.97 735.2,-81.07"/>
<polygon fill="midnightblue" stroke="midnightblue" points="736.63,-77.85 726.26,-75.65 733,-83.83 736.63,-77.85"/>
</g>
<!-- Node20&#45;&gt;Node7 -->
<g id="edge26" class="edge">
<title>Node20&#45;&gt;Node7</title>
<path fill="none" stroke="midnightblue" d="M760.16,-57.07C763.15,-56.68 766.11,-56.32 769,-56 1031.06,-27.12 1349.42,-15.19 1450.55,-11.96"/>
<polygon fill="midnightblue" stroke="midnightblue" points="1450.84,-15.46 1460.73,-11.64 1450.62,-8.46 1450.84,-15.46"/>
</g>
<!-- Node20&#45;&gt;Node12 -->
<g id="edge27" class="edge">
<title>Node20&#45;&gt;Node12</title>
<path fill="none" stroke="midnightblue" d="M663.82,-57.25C660.84,-56.81 657.88,-56.39 655,-56 523.26,-38.03 365.88,-21.38 297.96,-14.42"/>
<polygon fill="midnightblue" stroke="midnightblue" points="298.15,-10.92 287.85,-13.39 297.44,-17.89 298.15,-10.92"/>
</g>
<!-- Node21 -->
<g id="node21" class="node">
<title>Node21</title>
<g id="a_node21"><a xlink:title=" ">
<polygon fill="white" stroke="#bfbfbf" points="684,-0.5 684,-19.5 740,-19.5 740,-0.5 684,-0.5"/>
<text text-anchor="middle" x="712" y="-7.5" font-family="Helvetica,sans-Serif" font-size="10.00">sstream</text>
</a>
</g>
</g>
<!-- Node20&#45;&gt;Node21 -->
<g id="edge25" class="edge">
<title>Node20&#45;&gt;Node21</title>
<path fill="none" stroke="midnightblue" d="M712,-56.08C712,-49.01 712,-38.86 712,-29.99"/>
<polygon fill="midnightblue" stroke="midnightblue" points="715.5,-29.75 712,-19.75 708.5,-29.75 715.5,-29.75"/>
</g>
<!-- Node22&#45;&gt;Node12 -->
<g id="edge30" class="edge">
<title>Node22&#45;&gt;Node12</title>
<path fill="none" stroke="midnightblue" d="M179.81,-296.91C171.16,-287.4 157.75,-271.24 150,-255 135.01,-223.57 131,-213.82 131,-179 131,-179 131,-179 131,-121 131,-90.2 133.64,-78.18 155,-56 175.25,-34.97 206.77,-23.4 230.72,-17.28"/>
<polygon fill="midnightblue" stroke="midnightblue" points="231.53,-20.69 240.46,-14.98 229.92,-13.88 231.53,-20.69"/>
</g>
<!-- Node23 -->
<g id="node23" class="node">
<title>Node23</title>
<g id="a_node23"><a xlink:title=" ">
<polygon fill="white" stroke="#bfbfbf" points="159,-230 159,-249 217,-249 217,-230 159,-230"/>
<text text-anchor="middle" x="188" y="-237" font-family="Helvetica,sans-Serif" font-size="10.00">memory</text>
</a>
</g>
</g>
<!-- Node22&#45;&gt;Node23 -->
<g id="edge29" class="edge">
<title>Node22&#45;&gt;Node23</title>
<path fill="none" stroke="midnightblue" d="M188,-296.73C188,-287.18 188,-271.62 188,-259.28"/>
<polygon fill="midnightblue" stroke="midnightblue" points="191.5,-259.13 188,-249.13 184.5,-259.13 191.5,-259.13"/>
</g>
<!-- Node24&#45;&gt;Node8 -->
<g id="edge34" class="edge">
<title>Node24&#45;&gt;Node8</title>
<path fill="none" stroke="midnightblue" d="M768.14,-291.42C783.7,-282.82 801.91,-270.48 814,-255 827.16,-238.14 834.23,-214.34 837.79,-197.89"/>
<polygon fill="midnightblue" stroke="midnightblue" points="841.27,-198.33 839.73,-187.85 834.4,-197 841.27,-198.33"/>
</g>
<!-- Node24&#45;&gt;Node12 -->
<g id="edge35" class="edge">
<title>Node24&#45;&gt;Node12</title>
<path fill="none" stroke="midnightblue" d="M674.83,-303.37C563.64,-298.87 337.96,-286.11 266,-255 260.76,-252.73 190.38,-193.19 188,-188 184.29,-179.92 186.01,-176.66 188,-168 200.47,-113.61 234.37,-56.17 252.38,-28.26"/>
<polygon fill="midnightblue" stroke="midnightblue" points="255.46,-29.95 258.03,-19.67 249.61,-26.1 255.46,-29.95"/>
</g>
<!-- Node25 -->
<g id="node25" class="node">
<title>Node25</title>
<g id="a_node25"><a xlink:title=" ">
<polygon fill="white" stroke="#bfbfbf" points="882,-168.5 882,-187.5 934,-187.5 934,-168.5 882,-168.5"/>
<text text-anchor="middle" x="908" y="-175.5" font-family="Helvetica,sans-Serif" font-size="10.00">cassert</text>
</a>
</g>
</g>
<!-- Node24&#45;&gt;Node25 -->
<g id="edge32" class="edge">
<title>Node24&#45;&gt;Node25</title>
<path fill="none" stroke="midnightblue" d="M771.85,-291.49C791.53,-282.53 816.26,-269.83 836,-255 859.05,-237.69 881.18,-212.65 894.68,-196.11"/>
<polygon fill="midnightblue" stroke="midnightblue" points="897.73,-197.89 901.24,-187.9 892.27,-193.52 897.73,-197.89"/>
</g>
<!-- Node26 -->
<g id="node26" class="node">
<title>Node26</title>
<g id="a_node26"><a xlink:title=" ">
<polygon fill="white" stroke="#bfbfbf" points="773,-230 773,-249 805,-249 805,-230 773,-230"/>
<text text-anchor="middle" x="789" y="-237" font-family="Helvetica,sans-Serif" font-size="10.00">list</text>
</a>
</g>
</g>
<!-- Node24&#45;&gt;Node26 -->
<g id="edge33" class="edge">
<title>Node24&#45;&gt;Node26</title>
<path fill="none" stroke="midnightblue" d="M749.07,-291.4C756.94,-281.36 767.55,-267.84 775.85,-257.25"/>
<polygon fill="midnightblue" stroke="midnightblue" points="778.76,-259.22 782.18,-249.19 773.25,-254.9 778.76,-259.22"/>
</g>
<!-- Node27 -->
<g id="node27" class="node">
<title>Node27</title>
<g id="a_node27"><a xlink:href="flatmap_8h.html" target="_top" xlink:title=" ">
<polygon fill="white" stroke="black" points="619,-230 619,-249 755,-249 755,-230 619,-230"/>
<text text-anchor="middle" x="687" y="-237" font-family="Helvetica,sans-Serif" font-size="10.00">core/container/flatmap.h</text>
</a>
</g>
</g>
<!-- Node24&#45;&gt;Node27 -->
<g id="edge36" class="edge">
<title>Node24&#45;&gt;Node27</title>
<path fill="none" stroke="midnightblue" d="M726.93,-291.4C719.06,-281.36 708.45,-267.84 700.15,-257.25"/>
<polygon fill="midnightblue" stroke="midnightblue" points="702.75,-254.9 693.82,-249.19 697.24,-259.22 702.75,-254.9"/>
</g>
<!-- Node30 -->
<g id="node30" class="node">
<title>Node30</title>
<g id="a_node30"><a xlink:href="real__t_8h.html" target="_top" xlink:title=" ">
<polygon fill="white" stroke="black" points="952.5,-168.5 952.5,-187.5 1029.5,-187.5 1029.5,-168.5 952.5,-168.5"/>
<text text-anchor="middle" x="991" y="-175.5" font-family="Helvetica,sans-Serif" font-size="10.00">core/real_t.h</text>
</a>
</g>
</g>
<!-- Node24&#45;&gt;Node30 -->
<g id="edge43" class="edge">
<title>Node24&#45;&gt;Node30</title>
<path fill="none" stroke="midnightblue" d="M778.83,-291.41C804.36,-282.11 837.65,-269.08 866,-255 904.12,-236.06 945.9,-209.35 970.21,-193.16"/>
<polygon fill="midnightblue" stroke="midnightblue" points="972.28,-195.98 978.63,-187.5 968.38,-190.17 972.28,-195.98"/>
</g>
<!-- Node31 -->
<g id="node31" class="node">
<title>Node31</title>
<g id="a_node31"><a xlink:href="numa_8h.html" target="_top" xlink:title=" ">
<polygon fill="white" stroke="black" points="197,-168.5 197,-187.5 293,-187.5 293,-168.5 197,-168.5"/>
<text text-anchor="middle" x="245" y="-175.5" font-family="Helvetica,sans-Serif" font-size="10.00">core/util/numa.h</text>
</a>
</g>
</g>
<!-- Node24&#45;&gt;Node31 -->
<g id="edge44" class="edge">
<title>Node24&#45;&gt;Node31</title>
<path fill="none" stroke="midnightblue" d="M674.78,-304.24C569.59,-301.16 364.03,-290.62 302,-255 278.94,-241.76 262.31,-215.04 253.17,-197.08"/>
<polygon fill="midnightblue" stroke="midnightblue" points="256.25,-195.41 248.76,-187.92 249.94,-198.45 256.25,-195.41"/>
</g>
<!-- Node33 -->
<g id="node33" class="node">
<title>Node33</title>
<g id="a_node33"><a xlink:href="spinlock_8h.html" target="_top" xlink:title=" ">
<polygon fill="white" stroke="black" points="453.5,-230 453.5,-249 562.5,-249 562.5,-230 453.5,-230"/>
<text text-anchor="middle" x="508" y="-237" font-family="Helvetica,sans-Serif" font-size="10.00">core/util/spinlock.h</text>
</a>
</g>
</g>
<!-- Node24&#45;&gt;Node33 -->
<g id="edge46" class="edge">
<title>Node24&#45;&gt;Node33</title>
<path fill="none" stroke="midnightblue" d="M688.38,-291.48C646.43,-279.62 587.11,-262.86 548.12,-251.84"/>
<polygon fill="midnightblue" stroke="midnightblue" points="548.75,-248.38 538.18,-249.03 546.85,-255.12 548.75,-248.38"/>
</g>
<!-- Node35 -->
<g id="node35" class="node">
<title>Node35</title>
<g id="a_node35"><a xlink:href="thread__info_8h.html" target="_top" xlink:title=" ">
<polygon fill="white" stroke="black" points="311,-230 311,-249 435,-249 435,-230 311,-230"/>
<text text-anchor="middle" x="373" y="-237" font-family="Helvetica,sans-Serif" font-size="10.00">core/util/thread_info.h</text>
</a>
</g>
</g>
<!-- Node24&#45;&gt;Node35 -->
<g id="edge48" class="edge">
<title>Node24&#45;&gt;Node35</title>
<path fill="none" stroke="midnightblue" d="M674.75,-295.13C615.35,-285.26 524.03,-269.77 445,-255 438.35,-253.76 431.36,-252.41 424.46,-251.05"/>
<polygon fill="midnightblue" stroke="midnightblue" points="424.95,-247.58 414.46,-249.06 423.59,-254.44 424.95,-247.58"/>
</g>
<!-- Node27&#45;&gt;Node8 -->
<g id="edge40" class="edge">
<title>Node27&#45;&gt;Node8</title>
<path fill="none" stroke="midnightblue" d="M709.06,-229.98C735.37,-219.81 779.51,-202.76 809.42,-191.2"/>
<polygon fill="midnightblue" stroke="midnightblue" points="810.91,-194.38 818.98,-187.51 808.39,-187.85 810.91,-194.38"/>
</g>
<!-- Node27&#45;&gt;Node12 -->
<g id="edge41" class="edge">
<title>Node27&#45;&gt;Node12</title>
<path fill="none" stroke="midnightblue" d="M680.51,-229.89C657.68,-200.28 577.55,-101.93 487,-56 425.2,-24.66 343.38,-15.14 298,-12.25"/>
<polygon fill="midnightblue" stroke="midnightblue" points="297.99,-8.75 287.81,-11.68 297.6,-15.74 297.99,-8.75"/>
</g>
<!-- Node27&#45;&gt;Node20 -->
<g id="edge42" class="edge">
<title>Node27&#45;&gt;Node20</title>
<path fill="none" stroke="midnightblue" d="M683.09,-229.78C678.89,-219.89 672.48,-203.15 670,-188 666.51,-166.71 675.13,-114.12 676,-112 680.41,-101.29 688.2,-91.06 695.4,-83.07"/>
<polygon fill="midnightblue" stroke="midnightblue" points="698.14,-85.27 702.53,-75.63 693.09,-80.43 698.14,-85.27"/>
</g>
<!-- Node27&#45;&gt;Node25 -->
<g id="edge37" class="edge">
<title>Node27&#45;&gt;Node25</title>
<path fill="none" stroke="midnightblue" d="M718.66,-229.98C759.33,-219.03 829.71,-200.08 872.25,-188.62"/>
<polygon fill="midnightblue" stroke="midnightblue" points="873.17,-192 881.92,-186.02 871.35,-185.24 873.17,-192"/>
</g>
<!-- Node28 -->
<g id="node28" class="node">
<title>Node28</title>
<g id="a_node28"><a xlink:title=" ">
<polygon fill="white" stroke="#bfbfbf" points="747.5,-168.5 747.5,-187.5 800.5,-187.5 800.5,-168.5 747.5,-168.5"/>
<text text-anchor="middle" x="774" y="-175.5" font-family="Helvetica,sans-Serif" font-size="10.00">cstddef</text>
</a>
</g>
</g>
<!-- Node27&#45;&gt;Node28 -->
<g id="edge38" class="edge">
<title>Node27&#45;&gt;Node28</title>
<path fill="none" stroke="midnightblue" d="M699.46,-229.98C713.42,-220.43 736.26,-204.81 752.99,-193.37"/>
<polygon fill="midnightblue" stroke="midnightblue" points="755.28,-196.04 761.56,-187.51 751.33,-190.27 755.28,-196.04"/>
</g>
<!-- Node29 -->
<g id="node29" class="node">
<title>Node29</title>
<g id="a_node29"><a xlink:title=" ">
<polygon fill="white" stroke="#bfbfbf" points="679,-168.5 679,-187.5 729,-187.5 729,-168.5 679,-168.5"/>
<text text-anchor="middle" x="704" y="-175.5" font-family="Helvetica,sans-Serif" font-size="10.00">cstdint</text>
</a>
</g>
</g>
<!-- Node27&#45;&gt;Node29 -->
<g id="edge39" class="edge">
<title>Node27&#45;&gt;Node29</title>
<path fill="none" stroke="midnightblue" d="M689.44,-229.98C691.86,-221.49 695.66,-208.2 698.77,-197.32"/>
<polygon fill="midnightblue" stroke="midnightblue" points="702.19,-198.09 701.57,-187.51 695.46,-196.16 702.19,-198.09"/>
</g>
<!-- Node32 -->
<g id="node32" class="node">
<title>Node32</title>
<g id="a_node32"><a xlink:title=" ">
<polygon fill="white" stroke="#bfbfbf" points="252.5,-112.5 252.5,-131.5 299.5,-131.5 299.5,-112.5 252.5,-112.5"/>
<text text-anchor="middle" x="276" y="-119.5" font-family="Helvetica,sans-Serif" font-size="10.00">omp.h</text>
</a>
</g>
</g>
<!-- Node31&#45;&gt;Node32 -->
<g id="edge45" class="edge">
<title>Node31&#45;&gt;Node32</title>
<path fill="none" stroke="midnightblue" d="M250.12,-168.08C254.41,-160.61 260.66,-149.72 265.94,-140.52"/>
<polygon fill="midnightblue" stroke="midnightblue" points="269.03,-142.17 270.98,-131.75 262.96,-138.68 269.03,-142.17"/>
</g>
<!-- Node34 -->
<g id="node34" class="node">
<title>Node34</title>
<g id="a_node34"><a xlink:title=" ">
<polygon fill="white" stroke="#bfbfbf" points="459,-168.5 459,-187.5 509,-187.5 509,-168.5 459,-168.5"/>
<text text-anchor="middle" x="484" y="-175.5" font-family="Helvetica,sans-Serif" font-size="10.00">atomic</text>
</a>
</g>
</g>
<!-- Node33&#45;&gt;Node34 -->
<g id="edge47" class="edge">
<title>Node33&#45;&gt;Node34</title>
<path fill="none" stroke="midnightblue" d="M504.56,-229.98C501.1,-221.4 495.67,-207.93 491.25,-196.98"/>
<polygon fill="midnightblue" stroke="midnightblue" points="494.42,-195.47 487.43,-187.51 487.93,-198.09 494.42,-195.47"/>
</g>
<!-- Node35&#45;&gt;Node12 -->
<g id="edge52" class="edge">
<title>Node35&#45;&gt;Node12</title>
<path fill="none" stroke="midnightblue" d="M368.86,-229.86C352.81,-196.36 294.48,-74.62 272.48,-28.7"/>
<polygon fill="midnightblue" stroke="midnightblue" points="275.62,-27.16 268.14,-19.65 269.31,-30.18 275.62,-27.16"/>
</g>
<!-- Node35&#45;&gt;Node17 -->
<g id="edge53" class="edge">
<title>Node35&#45;&gt;Node17</title>
<path fill="none" stroke="midnightblue" d="M404.82,-229.91C481.05,-209.34 674.13,-157.24 759.41,-134.22"/>
<polygon fill="midnightblue" stroke="midnightblue" points="760.52,-137.55 769.26,-131.56 758.69,-130.79 760.52,-137.55"/>
</g>
<!-- Node35&#45;&gt;Node31 -->
<g id="edge54" class="edge">
<title>Node35&#45;&gt;Node31</title>
<path fill="none" stroke="midnightblue" d="M354.66,-229.98C333.18,-219.99 297.38,-203.35 272.55,-191.81"/>
<polygon fill="midnightblue" stroke="midnightblue" points="273.85,-188.55 263.31,-187.51 270.9,-194.9 273.85,-188.55"/>
</g>
<!-- Node35&#45;&gt;Node32 -->
<g id="edge49" class="edge">
<title>Node35&#45;&gt;Node32</title>
<path fill="none" stroke="midnightblue" d="M365.71,-229.82C349.63,-210.67 310.89,-164.54 289.97,-139.63"/>
<polygon fill="midnightblue" stroke="midnightblue" points="292.49,-137.19 283.38,-131.78 287.13,-141.69 292.49,-137.19"/>
</g>
<!-- Node35&#45;&gt;Node34 -->
<g id="edge51" class="edge">
<title>Node35&#45;&gt;Node34</title>
<path fill="none" stroke="midnightblue" d="M388.9,-229.98C407.28,-220.12 437.76,-203.79 459.24,-192.27"/>
<polygon fill="midnightblue" stroke="midnightblue" points="460.97,-195.32 468.13,-187.51 457.66,-189.15 460.97,-195.32"/>
</g>
<!-- Node36 -->
<g id="node36" class="node">
<title>Node36</title>
<g id="a_node36"><a xlink:title=" ">
<polygon fill="white" stroke="#bfbfbf" points="387,-168.5 387,-187.5 441,-187.5 441,-168.5 387,-168.5"/>
<text text-anchor="middle" x="414" y="-175.5" font-family="Helvetica,sans-Serif" font-size="10.00">sched.h</text>
</a>
</g>
</g>
<!-- Node35&#45;&gt;Node36 -->
<g id="edge50" class="edge">
<title>Node35&#45;&gt;Node36</title>
<path fill="none" stroke="midnightblue" d="M378.87,-229.98C384.96,-221.14 394.64,-207.09 402.3,-195.98"/>
<polygon fill="midnightblue" stroke="midnightblue" points="405.34,-197.73 408.14,-187.51 399.58,-193.76 405.34,-197.73"/>
</g>
<!-- Node37&#45;&gt;Node15 -->
<g id="edge73" class="edge">
<title>Node37&#45;&gt;Node15</title>
<path fill="none" stroke="midnightblue" d="M1291,-296.9C1278.84,-282.01 1253.04,-250.46 1231,-224 1223.05,-214.46 1214.08,-203.83 1206.86,-195.31"/>
<polygon fill="midnightblue" stroke="midnightblue" points="1209.46,-192.96 1200.32,-187.6 1204.12,-197.49 1209.46,-192.96"/>
</g>
<!-- Node38 -->
<g id="node38" class="node">
<title>Node38</title>
<g id="a_node38"><a xlink:title=" ">
<polygon fill="white" stroke="#bfbfbf" points="1283.5,-230 1283.5,-249 1376.5,-249 1376.5,-230 1283.5,-230"/>
<text text-anchor="middle" x="1330" y="-237" font-family="Helvetica,sans-Serif" font-size="10.00">unordered_map</text>
</a>
</g>
</g>
<!-- Node37&#45;&gt;Node38 -->
<g id="edge56" class="edge">
<title>Node37&#45;&gt;Node38</title>
<path fill="none" stroke="midnightblue" d="M1302.32,-296.73C1307.16,-286.89 1315.15,-270.66 1321.31,-258.16"/>
<polygon fill="midnightblue" stroke="midnightblue" points="1324.48,-259.64 1325.75,-249.13 1318.2,-256.55 1324.48,-259.64"/>
</g>
<!-- Node39 -->
<g id="node39" class="node">
<title>Node39</title>
<g id="a_node39"><a xlink:href="fixed__size__vector_8h.html" target="_top" xlink:title=" ">
<polygon fill="white" stroke="black" points="1037.5,-224.5 1037.5,-254.5 1150.5,-254.5 1150.5,-224.5 1037.5,-224.5"/>
<text text-anchor="start" x="1045.5" y="-242.5" font-family="Helvetica,sans-Serif" font-size="10.00">core/container/fixed</text>
<text text-anchor="middle" x="1094" y="-231.5" font-family="Helvetica,sans-Serif" font-size="10.00">_size_vector.h</text>
</a>
</g>
</g>
<!-- Node37&#45;&gt;Node39 -->
<g id="edge57" class="edge">
<title>Node37&#45;&gt;Node39</title>
<path fill="none" stroke="midnightblue" d="M1270.91,-296.87C1239.57,-286.88 1187.2,-270.2 1147.56,-257.56"/>
<polygon fill="midnightblue" stroke="midnightblue" points="1148.62,-254.23 1138.03,-254.53 1146.49,-260.9 1148.62,-254.23"/>
</g>
<!-- Node41 -->
<g id="node41" class="node">
<title>Node41</title>
<g id="a_node41"><a xlink:href="math__array_8h.html" target="_top" xlink:title=" ">
<polygon fill="white" stroke="black" points="1394.5,-224.5 1394.5,-254.5 1509.5,-254.5 1509.5,-224.5 1394.5,-224.5"/>
<text text-anchor="start" x="1402.5" y="-242.5" font-family="Helvetica,sans-Serif" font-size="10.00">core/container/math</text>
<text text-anchor="middle" x="1452" y="-231.5" font-family="Helvetica,sans-Serif" font-size="10.00">_array.h</text>
</a>
</g>
</g>
<!-- Node37&#45;&gt;Node41 -->
<g id="edge62" class="edge">
<title>Node37&#45;&gt;Node41</title>
<path fill="none" stroke="midnightblue" d="M1318.45,-296.87C1341.56,-287.12 1379.81,-270.97 1409.47,-258.45"/>
<polygon fill="midnightblue" stroke="midnightblue" points="1410.91,-261.64 1418.76,-254.53 1408.19,-255.19 1410.91,-261.64"/>
</g>
<!-- Node39&#45;&gt;Node4 -->
<g id="edge58" class="edge">
<title>Node39&#45;&gt;Node4</title>
<path fill="none" stroke="midnightblue" d="M1148.45,-224.47C1189.54,-213.89 1245.09,-199.58 1282.83,-189.86"/>
<polygon fill="midnightblue" stroke="midnightblue" points="1284.17,-193.13 1292.98,-187.25 1282.42,-186.35 1284.17,-193.13"/>
</g>
<!-- Node39&#45;&gt;Node25 -->
<g id="edge59" class="edge">
<title>Node39&#45;&gt;Node25</title>
<path fill="none" stroke="midnightblue" d="M1049.92,-224.4C1017.59,-214.06 974.23,-200.19 943.97,-190.51"/>
<polygon fill="midnightblue" stroke="midnightblue" points="944.84,-187.11 934.25,-187.4 942.71,-193.78 944.84,-187.11"/>
</g>
<!-- Node39&#45;&gt;Node28 -->
<g id="edge60" class="edge">
<title>Node39&#45;&gt;Node28</title>
<path fill="none" stroke="midnightblue" d="M1037.16,-225.81C1034.06,-225.18 1031,-224.58 1028,-224 934.67,-206.06 907.87,-207.79 810.63,-187.98"/>
<polygon fill="midnightblue" stroke="midnightblue" points="811.18,-184.52 800.68,-185.93 809.77,-191.37 811.18,-184.52"/>
</g>
<!-- Node40 -->
<g id="node40" class="node">
<title>Node40</title>
<g id="a_node40"><a xlink:title=" ">
<polygon fill="white" stroke="#bfbfbf" points="1047.5,-168.5 1047.5,-187.5 1130.5,-187.5 1130.5,-168.5 1047.5,-168.5"/>
<text text-anchor="middle" x="1089" y="-175.5" font-family="Helvetica,sans-Serif" font-size="10.00">initializer_list</text>
</a>
</g>
</g>
<!-- Node39&#45;&gt;Node40 -->
<g id="edge61" class="edge">
<title>Node39&#45;&gt;Node40</title>
<path fill="none" stroke="midnightblue" d="M1092.82,-224.4C1092.15,-216.47 1091.31,-206.46 1090.58,-197.86"/>
<polygon fill="midnightblue" stroke="midnightblue" points="1094.05,-197.33 1089.73,-187.66 1087.08,-197.92 1094.05,-197.33"/>
</g>
<!-- Node41&#45;&gt;Node4 -->
<g id="edge63" class="edge">
<title>Node41&#45;&gt;Node4</title>
<path fill="none" stroke="midnightblue" d="M1421.9,-224.4C1400.88,-214.55 1373.03,-201.5 1352.58,-191.92"/>
<polygon fill="midnightblue" stroke="midnightblue" points="1354.02,-188.73 1343.48,-187.66 1351.05,-195.07 1354.02,-188.73"/>
</g>
<!-- Node41&#45;&gt;Node6 -->
<g id="edge67" class="edge">
<title>Node41&#45;&gt;Node6</title>
<path fill="none" stroke="midnightblue" d="M1493.47,-224.4C1523.58,-214.16 1563.85,-200.47 1592.27,-190.81"/>
<polygon fill="midnightblue" stroke="midnightblue" points="1593.45,-194.1 1601.79,-187.57 1591.2,-187.48 1593.45,-194.1"/>
</g>
<!-- Node41&#45;&gt;Node8 -->
<g id="edge69" class="edge">
<title>Node41&#45;&gt;Node8</title>
<path fill="none" stroke="midnightblue" d="M1394.5,-225.35C1391.63,-224.86 1388.79,-224.4 1386,-224 1162.98,-191.85 1099.96,-226.15 873.46,-187.67"/>
<polygon fill="midnightblue" stroke="midnightblue" points="874.04,-184.22 863.59,-185.97 872.85,-191.12 874.04,-184.22"/>
</g>
<!-- Node41&#45;&gt;Node15 -->
<g id="edge72" class="edge">
<title>Node41&#45;&gt;Node15</title>
<path fill="none" stroke="midnightblue" d="M1394.2,-225.22C1347.82,-214.57 1283.53,-199.8 1240.21,-189.85"/>
<polygon fill="midnightblue" stroke="midnightblue" points="1240.75,-186.38 1230.22,-187.55 1239.18,-193.2 1240.75,-186.38"/>
</g>
<!-- Node41&#45;&gt;Node17 -->
<g id="edge71" class="edge">
<title>Node41&#45;&gt;Node17</title>
<path fill="none" stroke="midnightblue" d="M1395.45,-224.42C1362.41,-215.48 1320.22,-202.82 1284,-188 1266.34,-180.78 1264.27,-173.51 1246,-168 1173.65,-146.2 954.13,-131.54 853.01,-125.76"/>
<polygon fill="midnightblue" stroke="midnightblue" points="852.91,-122.25 842.73,-125.18 852.52,-129.24 852.91,-122.25"/>
</g>
<!-- Node41&#45;&gt;Node25 -->
<g id="edge64" class="edge">
<title>Node41&#45;&gt;Node25</title>
<path fill="none" stroke="midnightblue" d="M1394.49,-225.39C1391.63,-224.88 1388.78,-224.42 1386,-224 1194.32,-195.27 1140.26,-219.19 944.29,-187.73"/>
<polygon fill="midnightblue" stroke="midnightblue" points="944.68,-184.25 934.24,-186.09 943.55,-191.15 944.68,-184.25"/>
</g>
<!-- Node41&#45;&gt;Node30 -->
<g id="edge70" class="edge">
<title>Node41&#45;&gt;Node30</title>
<path fill="none" stroke="midnightblue" d="M1394.48,-225.46C1391.62,-224.94 1388.78,-224.45 1386,-224 1236.21,-199.86 1194.23,-209.85 1040.05,-188.03"/>
<polygon fill="midnightblue" stroke="midnightblue" points="1040.12,-184.5 1029.73,-186.54 1039.13,-191.43 1040.12,-184.5"/>
</g>
<!-- Node42 -->
<g id="node42" class="node">
<title>Node42</title>
<g id="a_node42"><a xlink:title=" ">
<polygon fill="white" stroke="#bfbfbf" points="1458.5,-168.5 1458.5,-187.5 1505.5,-187.5 1505.5,-168.5 1458.5,-168.5"/>
<text text-anchor="middle" x="1482" y="-175.5" font-family="Helvetica,sans-Serif" font-size="10.00">cmath</text>
</a>
</g>
</g>
<!-- Node41&#45;&gt;Node42 -->
<g id="edge65" class="edge">
<title>Node41&#45;&gt;Node42</title>
<path fill="none" stroke="midnightblue" d="M1459.11,-224.4C1463.29,-216.11 1468.61,-205.55 1473.07,-196.71"/>
<polygon fill="midnightblue" stroke="midnightblue" points="1476.26,-198.16 1477.63,-187.66 1470.01,-195.01 1476.26,-198.16"/>
</g>
<!-- Node43 -->
<g id="node43" class="node">
<title>Node43</title>
<g id="a_node43"><a xlink:title=" ">
<polygon fill="white" stroke="#bfbfbf" points="1524,-168.5 1524,-187.5 1580,-187.5 1580,-168.5 1524,-168.5"/>
<text text-anchor="middle" x="1552" y="-175.5" font-family="Helvetica,sans-Serif" font-size="10.00">numeric</text>
</a>
</g>
</g>
<!-- Node41&#45;&gt;Node43 -->
<g id="edge66" class="edge">
<title>Node41&#45;&gt;Node43</title>
<path fill="none" stroke="midnightblue" d="M1475.7,-224.4C1491.73,-214.86 1512.8,-202.32 1528.74,-192.84"/>
<polygon fill="midnightblue" stroke="midnightblue" points="1530.64,-195.78 1537.45,-187.66 1527.07,-189.76 1530.64,-195.78"/>
</g>
<!-- Node44 -->
<g id="node44" class="node">
<title>Node44</title>
<g id="a_node44"><a xlink:title=" ">
<polygon fill="white" stroke="#bfbfbf" points="1375.5,-168.5 1375.5,-187.5 1440.5,-187.5 1440.5,-168.5 1375.5,-168.5"/>
<text text-anchor="middle" x="1408" y="-175.5" font-family="Helvetica,sans-Serif" font-size="10.00">stdexcept</text>
</a>
</g>
</g>
<!-- Node41&#45;&gt;Node44 -->
<g id="edge68" class="edge">
<title>Node41&#45;&gt;Node44</title>
<path fill="none" stroke="midnightblue" d="M1441.57,-224.4C1435.24,-215.84 1427.13,-204.87 1420.47,-195.86"/>
<polygon fill="midnightblue" stroke="midnightblue" points="1423.16,-193.62 1414.4,-187.66 1417.53,-197.78 1423.16,-193.62"/>
</g>
</g>
</svg>
