<?xml version="1.0" encoding="UTF-8" standalone="no"?>
<!DOCTYPE svg PUBLIC "-//W3C//DTD SVG 1.1//EN"
 "http://www.w3.org/Graphics/SVG/1.1/DTD/svg11.dtd">
<!-- Generated by graphviz version 2.43.0 (0)
 -->
<!-- Title: core/param/command_line_options.h Pages: 1 -->
<svg width="1678pt" height="453pt"
 viewBox="0.00 0.00 1678.41 453.00" xmlns="http://www.w3.org/2000/svg" xmlns:xlink="http://www.w3.org/1999/xlink">
<g id="graph0" class="graph" transform="scale(1 1) rotate(0) translate(4 449)">
<title>core/param/command_line_options.h</title>
<polygon fill="white" stroke="transparent" points="-4,4 -4,-449 1674.41,-449 1674.41,4 -4,4"/>
<!-- Node1 -->
<g id="node1" class="node">
<title>Node1</title>
<g id="a_node1"><a xlink:title=" ">
<polygon fill="#bfbfbf" stroke="black" points="1132,-414.5 1132,-444.5 1256,-444.5 1256,-414.5 1132,-414.5"/>
<text text-anchor="start" x="1140" y="-432.5" font-family="Helvetica,sans-Serif" font-size="10.00">core/param/command</text>
<text text-anchor="middle" x="1194" y="-421.5" font-family="Helvetica,sans-Serif" font-size="10.00">_line_options.h</text>
</a>
</g>
</g>
<!-- Node2 -->
<g id="node2" class="node">
<title>Node2</title>
<g id="a_node2"><a xlink:title=" ">
<polygon fill="white" stroke="#bfbfbf" points="374,-56.5 374,-75.5 428,-75.5 428,-56.5 374,-56.5"/>
<text text-anchor="middle" x="401" y="-63.5" font-family="Helvetica,sans-Serif" font-size="10.00">TError.h</text>
</a>
</g>
</g>
<!-- Node1&#45;&gt;Node2 -->
<g id="edge1" class="edge">
<title>Node1&#45;&gt;Node2</title>
<path fill="none" stroke="midnightblue" d="M1131.67,-427.75C917.81,-424.87 221.89,-412.9 128,-378 80.37,-360.29 38,-358.31 38,-307.5 38,-307.5 38,-307.5 38,-177 38,-109.47 270.99,-79.54 363.65,-70.31"/>
<polygon fill="midnightblue" stroke="midnightblue" points="364.1,-73.78 373.72,-69.33 363.42,-66.81 364.1,-73.78"/>
</g>
<!-- Node3 -->
<g id="node3" class="node">
<title>Node3</title>
<g id="a_node3"><a xlink:title=" ">
<polygon fill="white" stroke="#bfbfbf" points="136.5,-358.5 136.5,-377.5 199.5,-377.5 199.5,-358.5 136.5,-358.5"/>
<text text-anchor="middle" x="168" y="-365.5" font-family="Helvetica,sans-Serif" font-size="10.00">cxxopts.h</text>
</a>
</g>
</g>
<!-- Node1&#45;&gt;Node3 -->
<g id="edge2" class="edge">
<title>Node1&#45;&gt;Node3</title>
<path fill="none" stroke="midnightblue" d="M1131.82,-428.35C976.44,-427.3 558.95,-420.42 214,-378 212.54,-377.82 211.05,-377.62 209.55,-377.4"/>
<polygon fill="midnightblue" stroke="midnightblue" points="210.01,-373.93 199.58,-375.79 208.89,-380.84 210.01,-373.93"/>
</g>
<!-- Node4 -->
<g id="node4" class="node">
<title>Node4</title>
<g id="a_node4"><a xlink:title=" ">
<polygon fill="white" stroke="#bfbfbf" points="1415,-168.5 1415,-187.5 1479,-187.5 1479,-168.5 1415,-168.5"/>
<text text-anchor="middle" x="1447" y="-175.5" font-family="Helvetica,sans-Serif" font-size="10.00">algorithm</text>
</a>
</g>
</g>
<!-- Node1&#45;&gt;Node4 -->
<g id="edge3" class="edge">
<title>Node1&#45;&gt;Node4</title>
<path fill="none" stroke="midnightblue" d="M1252.93,-414.43C1303.95,-399.45 1376.5,-370.97 1422,-322 1445.76,-296.42 1453.53,-288.6 1463,-255 1468.53,-235.39 1461.95,-212.44 1455.64,-196.94"/>
<polygon fill="midnightblue" stroke="midnightblue" points="1458.72,-195.25 1451.46,-187.52 1452.32,-198.08 1458.72,-195.25"/>
</g>
<!-- Node5 -->
<g id="node5" class="node">
<title>Node5</title>
<g id="a_node5"><a xlink:title=" ">
<polygon fill="white" stroke="#bfbfbf" points="469,-56.5 469,-75.5 529,-75.5 529,-56.5 469,-56.5"/>
<text text-anchor="middle" x="499" y="-63.5" font-family="Helvetica,sans-Serif" font-size="10.00">iostream</text>
</a>
</g>
</g>
<!-- Node1&#45;&gt;Node5 -->
<g id="edge4" class="edge">
<title>Node1&#45;&gt;Node5</title>
<path fill="none" stroke="midnightblue" d="M1131.78,-427.61C938.15,-423.34 352.94,-398.56 248,-255 225.18,-223.78 225.33,-200.03 247,-168 271.63,-131.59 394.15,-94.62 458.83,-77.24"/>
<polygon fill="midnightblue" stroke="midnightblue" points="459.93,-80.57 468.69,-74.62 458.13,-73.8 459.93,-80.57"/>
</g>
<!-- Node6 -->
<g id="node6" class="node">
<title>Node6</title>
<g id="a_node6"><a xlink:title=" ">
<polygon fill="white" stroke="#bfbfbf" points="1339.5,-168.5 1339.5,-187.5 1396.5,-187.5 1396.5,-168.5 1339.5,-168.5"/>
<text text-anchor="middle" x="1368" y="-175.5" font-family="Helvetica,sans-Serif" font-size="10.00">ostream</text>
</a>
</g>
</g>
<!-- Node1&#45;&gt;Node6 -->
<g id="edge5" class="edge">
<title>Node1&#45;&gt;Node6</title>
<path fill="none" stroke="midnightblue" d="M1235.35,-414.32C1294.8,-391.42 1402.2,-340.05 1447,-255 1453.42,-242.81 1453.92,-235.91 1447,-224 1438.07,-208.63 1421.7,-198.07 1406.18,-191.07"/>
<polygon fill="midnightblue" stroke="midnightblue" points="1407.27,-187.74 1396.69,-187.16 1404.6,-194.21 1407.27,-187.74"/>
</g>
<!-- Node7 -->
<g id="node7" class="node">
<title>Node7</title>
<g id="a_node7"><a xlink:title=" ">
<polygon fill="white" stroke="#bfbfbf" points="1409,-0.5 1409,-19.5 1453,-19.5 1453,-0.5 1409,-0.5"/>
<text text-anchor="middle" x="1431" y="-7.5" font-family="Helvetica,sans-Serif" font-size="10.00">string</text>
</a>
</g>
</g>
<!-- Node1&#45;&gt;Node7 -->
<g id="edge6" class="edge">
<title>Node1&#45;&gt;Node7</title>
<path fill="none" stroke="midnightblue" d="M1256.12,-425.47C1373.93,-419.18 1620.68,-403.15 1650,-378 1674.63,-356.87 1669,-339.95 1669,-307.5 1669,-307.5 1669,-307.5 1669,-121 1669,-31.53 1528.69,-14.6 1463.54,-11.57"/>
<polygon fill="midnightblue" stroke="midnightblue" points="1463.52,-8.06 1453.39,-11.18 1463.25,-15.06 1463.52,-8.06"/>
</g>
<!-- Node8 -->
<g id="node8" class="node">
<title>Node8</title>
<g id="a_node8"><a xlink:title=" ">
<polygon fill="white" stroke="#bfbfbf" points="1551.5,-358.5 1551.5,-377.5 1640.5,-377.5 1640.5,-358.5 1551.5,-358.5"/>
<text text-anchor="middle" x="1596" y="-365.5" font-family="Helvetica,sans-Serif" font-size="10.00">bdm_version.h</text>
</a>
</g>
</g>
<!-- Node1&#45;&gt;Node8 -->
<g id="edge7" class="edge">
<title>Node1&#45;&gt;Node8</title>
<path fill="none" stroke="midnightblue" d="M1256.29,-419.43C1325.03,-409.39 1438.93,-392.7 1537,-378 1538.3,-377.81 1539.61,-377.61 1540.93,-377.41"/>
<polygon fill="midnightblue" stroke="midnightblue" points="1541.86,-380.81 1551.23,-375.85 1540.82,-373.89 1541.86,-380.81"/>
</g>
<!-- Node9 -->
<g id="node9" class="node">
<title>Node9</title>
<g id="a_node9"><a xlink:href="simulation_8h.html" target="_top" xlink:title=" ">
<polygon fill="white" stroke="black" points="871.5,-358.5 871.5,-377.5 972.5,-377.5 972.5,-358.5 871.5,-358.5"/>
<text text-anchor="middle" x="922" y="-365.5" font-family="Helvetica,sans-Serif" font-size="10.00">core/simulation.h</text>
</a>
</g>
</g>
<!-- Node1&#45;&gt;Node9 -->
<g id="edge8" class="edge">
<title>Node1&#45;&gt;Node9</title>
<path fill="none" stroke="midnightblue" d="M1131.94,-414.92C1083.11,-404.24 1016,-389.56 970.92,-379.7"/>
<polygon fill="midnightblue" stroke="midnightblue" points="971.61,-376.27 961.09,-377.55 970.11,-383.11 971.61,-376.27"/>
</g>
<!-- Node9&#45;&gt;Node7 -->
<g id="edge10" class="edge">
<title>Node9&#45;&gt;Node7</title>
<path fill="none" stroke="midnightblue" d="M972.66,-362.02C1116.67,-346.62 1522.4,-294.32 1590,-188 1633.68,-119.3 1515.85,-51.46 1459.32,-23.89"/>
<polygon fill="midnightblue" stroke="midnightblue" points="1460.7,-20.67 1450.16,-19.51 1457.68,-26.98 1460.7,-20.67"/>
</g>
<!-- Node10 -->
<g id="node10" class="node">
<title>Node10</title>
<g id="a_node10"><a xlink:title=" ">
<polygon fill="white" stroke="#bfbfbf" points="597.5,-56.5 597.5,-75.5 662.5,-75.5 662.5,-56.5 597.5,-56.5"/>
<text text-anchor="middle" x="630" y="-63.5" font-family="Helvetica,sans-Serif" font-size="10.00">functional</text>
</a>
</g>
</g>
<!-- Node9&#45;&gt;Node10 -->
<g id="edge9" class="edge">
<title>Node9&#45;&gt;Node10</title>
<path fill="none" stroke="midnightblue" d="M871.48,-365.3C800.47,-359.87 673.3,-338.33 615,-255 578.44,-202.75 606.2,-121.18 621.56,-85.15"/>
<polygon fill="midnightblue" stroke="midnightblue" points="624.82,-86.44 625.68,-75.88 618.42,-83.6 624.82,-86.44"/>
</g>
<!-- Node11 -->
<g id="node11" class="node">
<title>Node11</title>
<g id="a_node11"><a xlink:title=" ">
<polygon fill="white" stroke="#bfbfbf" points="257.5,-0.5 257.5,-19.5 304.5,-19.5 304.5,-0.5 257.5,-0.5"/>
<text text-anchor="middle" x="281" y="-7.5" font-family="Helvetica,sans-Serif" font-size="10.00">vector</text>
</a>
</g>
</g>
<!-- Node9&#45;&gt;Node11 -->
<g id="edge11" class="edge">
<title>Node9&#45;&gt;Node11</title>
<path fill="none" stroke="midnightblue" d="M871.36,-366.93C696.97,-366.36 128.14,-361.44 57,-322 18.34,-300.57 0,-284.7 0,-240.5 0,-240.5 0,-240.5 0,-121 0,-72.02 44.49,-76.44 89,-56 141.3,-31.98 207.69,-20.1 247.13,-14.78"/>
<polygon fill="midnightblue" stroke="midnightblue" points="247.79,-18.22 257.26,-13.47 246.9,-11.28 247.79,-18.22"/>
</g>
<!-- Node12 -->
<g id="node12" class="node">
<title>Node12</title>
<g id="a_node12"><a xlink:href="agent__uid_8h.html" target="_top" xlink:title=" ">
<polygon fill="white" stroke="black" points="858,-297 858,-316 986,-316 986,-297 858,-297"/>
<text text-anchor="middle" x="922" y="-304" font-family="Helvetica,sans-Serif" font-size="10.00">core/agent/agent_uid.h</text>
</a>
</g>
</g>
<!-- Node9&#45;&gt;Node12 -->
<g id="edge12" class="edge">
<title>Node9&#45;&gt;Node12</title>
<path fill="none" stroke="midnightblue" d="M922,-358.48C922,-350.08 922,-336.98 922,-326.16"/>
<polygon fill="midnightblue" stroke="midnightblue" points="925.5,-326.01 922,-316.01 918.5,-326.01 925.5,-326.01"/>
</g>
<!-- Node14 -->
<g id="node14" class="node">
<title>Node14</title>
<g id="a_node14"><a xlink:href="root_8h.html" target="_top" xlink:title=" ">
<polygon fill="white" stroke="black" points="940,-168.5 940,-187.5 1028,-187.5 1028,-168.5 940,-168.5"/>
<text text-anchor="middle" x="984" y="-175.5" font-family="Helvetica,sans-Serif" font-size="10.00">core/util/root.h</text>
</a>
</g>
</g>
<!-- Node9&#45;&gt;Node14 -->
<g id="edge70" class="edge">
<title>Node9&#45;&gt;Node14</title>
<path fill="none" stroke="midnightblue" d="M948.21,-358.41C964.85,-351.44 985.06,-339.81 995,-322 1017.28,-282.09 1001.96,-225.9 991.5,-197.29"/>
<polygon fill="midnightblue" stroke="midnightblue" points="994.69,-195.83 987.82,-187.77 988.16,-198.35 994.69,-195.83"/>
</g>
<!-- Node21 -->
<g id="node21" class="node">
<title>Node21</title>
<g id="a_node21"><a xlink:href="opencl__state_8h.html" target="_top" xlink:title=" ">
<polygon fill="white" stroke="black" points="66.5,-297 66.5,-316 199.5,-316 199.5,-297 66.5,-297"/>
<text text-anchor="middle" x="133" y="-304" font-family="Helvetica,sans-Serif" font-size="10.00">core/gpu/opencl_state.h</text>
</a>
</g>
</g>
<!-- Node9&#45;&gt;Node21 -->
<g id="edge27" class="edge">
<title>Node9&#45;&gt;Node21</title>
<path fill="none" stroke="midnightblue" d="M871.44,-363.19C737.07,-353.05 370.39,-325.4 209.92,-313.3"/>
<polygon fill="midnightblue" stroke="midnightblue" points="209.89,-309.79 199.65,-312.53 209.36,-316.77 209.89,-309.79"/>
</g>
<!-- Node23 -->
<g id="node23" class="node">
<title>Node23</title>
<g id="a_node23"><a xlink:href="memory__manager_8h.html" target="_top" xlink:title=" ">
<polygon fill="white" stroke="black" points="457,-291.5 457,-321.5 583,-321.5 583,-291.5 457,-291.5"/>
<text text-anchor="start" x="465" y="-309.5" font-family="Helvetica,sans-Serif" font-size="10.00">core/memory/memory</text>
<text text-anchor="middle" x="520" y="-298.5" font-family="Helvetica,sans-Serif" font-size="10.00">_manager.h</text>
</a>
</g>
</g>
<!-- Node9&#45;&gt;Node23 -->
<g id="edge30" class="edge">
<title>Node9&#45;&gt;Node23</title>
<path fill="none" stroke="midnightblue" d="M871.5,-360.78C807.5,-352.72 693.83,-337.81 597,-322 595.89,-321.82 594.78,-321.63 593.65,-321.45"/>
<polygon fill="midnightblue" stroke="midnightblue" points="593.85,-317.93 583.41,-319.69 592.67,-324.83 593.85,-317.93"/>
</g>
<!-- Node36 -->
<g id="node36" class="node">
<title>Node36</title>
<g id="a_node36"><a xlink:href="random_8h.html" target="_top" xlink:title=" ">
<polygon fill="white" stroke="black" points="1074,-297 1074,-316 1180,-316 1180,-297 1074,-297"/>
<text text-anchor="middle" x="1127" y="-304" font-family="Helvetica,sans-Serif" font-size="10.00">core/util/random.h</text>
</a>
</g>
</g>
<!-- Node9&#45;&gt;Node36 -->
<g id="edge53" class="edge">
<title>Node9&#45;&gt;Node36</title>
<path fill="none" stroke="midnightblue" d="M951.37,-358.48C987.3,-348.05 1048.23,-330.36 1088.04,-318.81"/>
<polygon fill="midnightblue" stroke="midnightblue" points="1089.05,-322.16 1097.68,-316.01 1087.1,-315.44 1089.05,-322.16"/>
</g>
<!-- Node13 -->
<g id="node13" class="node">
<title>Node13</title>
<g id="a_node13"><a xlink:title=" ">
<polygon fill="white" stroke="#bfbfbf" points="904,-230 904,-249 948,-249 948,-230 904,-230"/>
<text text-anchor="middle" x="926" y="-237" font-family="Helvetica,sans-Serif" font-size="10.00">limits</text>
</a>
</g>
</g>
<!-- Node12&#45;&gt;Node13 -->
<g id="edge13" class="edge">
<title>Node12&#45;&gt;Node13</title>
<path fill="none" stroke="midnightblue" d="M922.54,-296.73C923.13,-287.18 924.09,-271.62 924.84,-259.28"/>
<polygon fill="midnightblue" stroke="midnightblue" points="928.35,-259.32 925.47,-249.13 921.36,-258.89 928.35,-259.32"/>
</g>
<!-- Node12&#45;&gt;Node14 -->
<g id="edge14" class="edge">
<title>Node12&#45;&gt;Node14</title>
<path fill="none" stroke="midnightblue" d="M929.22,-296.65C936.9,-286.91 949.02,-270.57 957,-255 966.56,-236.35 974.17,-213.53 978.84,-197.79"/>
<polygon fill="midnightblue" stroke="midnightblue" points="982.33,-198.32 981.71,-187.74 975.6,-196.4 982.33,-198.32"/>
</g>
<!-- Node15 -->
<g id="node15" class="node">
<title>Node15</title>
<g id="a_node15"><a xlink:title=" ">
<polygon fill="white" stroke="#bfbfbf" points="955.5,-112.5 955.5,-131.5 1012.5,-131.5 1012.5,-112.5 955.5,-112.5"/>
<text text-anchor="middle" x="984" y="-119.5" font-family="Helvetica,sans-Serif" font-size="10.00">TClass.h</text>
</a>
</g>
</g>
<!-- Node14&#45;&gt;Node15 -->
<g id="edge15" class="edge">
<title>Node14&#45;&gt;Node15</title>
<path fill="none" stroke="midnightblue" d="M984,-168.08C984,-161.01 984,-150.86 984,-141.99"/>
<polygon fill="midnightblue" stroke="midnightblue" points="987.5,-141.75 984,-131.75 980.5,-141.75 987.5,-141.75"/>
</g>
<!-- Node16 -->
<g id="node16" class="node">
<title>Node16</title>
<g id="a_node16"><a xlink:href="log_8h.html" target="_top" xlink:title=" ">
<polygon fill="white" stroke="black" points="662.5,-112.5 662.5,-131.5 745.5,-131.5 745.5,-112.5 662.5,-112.5"/>
<text text-anchor="middle" x="704" y="-119.5" font-family="Helvetica,sans-Serif" font-size="10.00">core/util/log.h</text>
</a>
</g>
</g>
<!-- Node14&#45;&gt;Node16 -->
<g id="edge16" class="edge">
<title>Node14&#45;&gt;Node16</title>
<path fill="none" stroke="midnightblue" d="M939.94,-168.5C889.88,-158.85 808.29,-143.11 755.38,-132.91"/>
<polygon fill="midnightblue" stroke="midnightblue" points="756,-129.46 745.52,-131.01 754.67,-136.34 756,-129.46"/>
</g>
<!-- Node16&#45;&gt;Node2 -->
<g id="edge17" class="edge">
<title>Node16&#45;&gt;Node2</title>
<path fill="none" stroke="midnightblue" d="M662.19,-113.55C602.74,-102.95 494.71,-83.7 438.01,-73.6"/>
<polygon fill="midnightblue" stroke="midnightblue" points="438.5,-70.13 428.04,-71.82 437.28,-77.02 438.5,-70.13"/>
</g>
<!-- Node16&#45;&gt;Node5 -->
<g id="edge21" class="edge">
<title>Node16&#45;&gt;Node5</title>
<path fill="none" stroke="midnightblue" d="M671.52,-112.44C635.66,-103 577.9,-87.78 539.21,-77.59"/>
<polygon fill="midnightblue" stroke="midnightblue" points="539.89,-74.15 529.33,-74.99 538.1,-80.92 539.89,-74.15"/>
</g>
<!-- Node16&#45;&gt;Node7 -->
<g id="edge22" class="edge">
<title>Node16&#45;&gt;Node7</title>
<path fill="none" stroke="midnightblue" d="M745.7,-114.69C877.21,-94.79 1281.5,-33.62 1398.79,-15.87"/>
<polygon fill="midnightblue" stroke="midnightblue" points="1399.56,-19.3 1408.92,-14.34 1398.51,-12.38 1399.56,-19.3"/>
</g>
<!-- Node16&#45;&gt;Node10 -->
<g id="edge20" class="edge">
<title>Node16&#45;&gt;Node10</title>
<path fill="none" stroke="midnightblue" d="M692.11,-112.32C680.85,-104.11 663.71,-91.6 650.29,-81.81"/>
<polygon fill="midnightblue" stroke="midnightblue" points="652.25,-78.9 642.11,-75.83 648.12,-84.56 652.25,-78.9"/>
</g>
<!-- Node17 -->
<g id="node17" class="node">
<title>Node17</title>
<g id="a_node17"><a xlink:title=" ">
<polygon fill="white" stroke="#bfbfbf" points="681,-56.5 681,-75.5 727,-75.5 727,-56.5 681,-56.5"/>
<text text-anchor="middle" x="704" y="-63.5" font-family="Helvetica,sans-Serif" font-size="10.00">cstdio</text>
</a>
</g>
</g>
<!-- Node16&#45;&gt;Node17 -->
<g id="edge18" class="edge">
<title>Node16&#45;&gt;Node17</title>
<path fill="none" stroke="midnightblue" d="M704,-112.08C704,-105.01 704,-94.86 704,-85.99"/>
<polygon fill="midnightblue" stroke="midnightblue" points="707.5,-85.75 704,-75.75 700.5,-85.75 707.5,-85.75"/>
</g>
<!-- Node18 -->
<g id="node18" class="node">
<title>Node18</title>
<g id="a_node18"><a xlink:title=" ">
<polygon fill="white" stroke="#bfbfbf" points="745.5,-56.5 745.5,-75.5 794.5,-75.5 794.5,-56.5 745.5,-56.5"/>
<text text-anchor="middle" x="770" y="-63.5" font-family="Helvetica,sans-Serif" font-size="10.00">cstdlib</text>
</a>
</g>
</g>
<!-- Node16&#45;&gt;Node18 -->
<g id="edge19" class="edge">
<title>Node16&#45;&gt;Node18</title>
<path fill="none" stroke="midnightblue" d="M714.6,-112.32C724.46,-104.26 739.35,-92.08 751.22,-82.37"/>
<polygon fill="midnightblue" stroke="midnightblue" points="753.68,-84.88 759.2,-75.83 749.25,-79.46 753.68,-84.88"/>
</g>
<!-- Node19 -->
<g id="node19" class="node">
<title>Node19</title>
<g id="a_node19"><a xlink:href="string_8h.html" target="_top" xlink:title=" ">
<polygon fill="white" stroke="black" points="813,-56.5 813,-75.5 909,-75.5 909,-56.5 813,-56.5"/>
<text text-anchor="middle" x="861" y="-63.5" font-family="Helvetica,sans-Serif" font-size="10.00">core/util/string.h</text>
</a>
</g>
</g>
<!-- Node16&#45;&gt;Node19 -->
<g id="edge23" class="edge">
<title>Node16&#45;&gt;Node19</title>
<path fill="none" stroke="midnightblue" d="M728.88,-112.44C755.29,-103.36 797.22,-88.94 826.74,-78.78"/>
<polygon fill="midnightblue" stroke="midnightblue" points="827.92,-82.08 836.24,-75.52 825.64,-75.46 827.92,-82.08"/>
</g>
<!-- Node19&#45;&gt;Node7 -->
<g id="edge25" class="edge">
<title>Node19&#45;&gt;Node7</title>
<path fill="none" stroke="midnightblue" d="M909.11,-60.44C1022.3,-49.72 1303.13,-23.11 1398.62,-14.07"/>
<polygon fill="midnightblue" stroke="midnightblue" points="1399.19,-17.53 1408.81,-13.1 1398.53,-10.56 1399.19,-17.53"/>
</g>
<!-- Node19&#45;&gt;Node11 -->
<g id="edge26" class="edge">
<title>Node19&#45;&gt;Node11</title>
<path fill="none" stroke="midnightblue" d="M812.83,-57.15C809.85,-56.74 806.88,-56.35 804,-56 619.83,-33.57 397.84,-18.36 314.64,-13.07"/>
<polygon fill="midnightblue" stroke="midnightblue" points="314.72,-9.56 304.52,-12.43 314.28,-16.55 314.72,-9.56"/>
</g>
<!-- Node20 -->
<g id="node20" class="node">
<title>Node20</title>
<g id="a_node20"><a xlink:title=" ">
<polygon fill="white" stroke="#bfbfbf" points="833,-0.5 833,-19.5 889,-19.5 889,-0.5 833,-0.5"/>
<text text-anchor="middle" x="861" y="-7.5" font-family="Helvetica,sans-Serif" font-size="10.00">sstream</text>
</a>
</g>
</g>
<!-- Node19&#45;&gt;Node20 -->
<g id="edge24" class="edge">
<title>Node19&#45;&gt;Node20</title>
<path fill="none" stroke="midnightblue" d="M861,-56.08C861,-49.01 861,-38.86 861,-29.99"/>
<polygon fill="midnightblue" stroke="midnightblue" points="864.5,-29.75 861,-19.75 857.5,-29.75 864.5,-29.75"/>
</g>
<!-- Node21&#45;&gt;Node11 -->
<g id="edge29" class="edge">
<title>Node21&#45;&gt;Node11</title>
<path fill="none" stroke="midnightblue" d="M124.81,-296.91C116.16,-287.4 102.75,-271.24 95,-255 80.01,-223.57 76,-213.82 76,-179 76,-179 76,-179 76,-121 76,-44.19 189.12,-20.8 247.3,-13.84"/>
<polygon fill="midnightblue" stroke="midnightblue" points="247.92,-17.3 257.48,-12.73 247.16,-10.34 247.92,-17.3"/>
</g>
<!-- Node22 -->
<g id="node22" class="node">
<title>Node22</title>
<g id="a_node22"><a xlink:title=" ">
<polygon fill="white" stroke="#bfbfbf" points="104,-230 104,-249 162,-249 162,-230 104,-230"/>
<text text-anchor="middle" x="133" y="-237" font-family="Helvetica,sans-Serif" font-size="10.00">memory</text>
</a>
</g>
</g>
<!-- Node21&#45;&gt;Node22 -->
<g id="edge28" class="edge">
<title>Node21&#45;&gt;Node22</title>
<path fill="none" stroke="midnightblue" d="M133,-296.73C133,-287.18 133,-271.62 133,-259.28"/>
<polygon fill="midnightblue" stroke="midnightblue" points="136.5,-259.13 133,-249.13 129.5,-259.13 136.5,-259.13"/>
</g>
<!-- Node23&#45;&gt;Node11 -->
<g id="edge34" class="edge">
<title>Node23&#45;&gt;Node11</title>
<path fill="none" stroke="midnightblue" d="M456.78,-301.49C386.11,-295.7 277.65,-282.54 248,-255 222.41,-231.23 228,-213.93 228,-179 228,-179 228,-179 228,-121 228,-84.99 251.33,-48.34 267.04,-27.75"/>
<polygon fill="midnightblue" stroke="midnightblue" points="269.93,-29.73 273.41,-19.72 264.45,-25.38 269.93,-29.73"/>
</g>
<!-- Node24 -->
<g id="node24" class="node">
<title>Node24</title>
<g id="a_node24"><a xlink:title=" ">
<polygon fill="white" stroke="#bfbfbf" points="870,-168.5 870,-187.5 922,-187.5 922,-168.5 870,-168.5"/>
<text text-anchor="middle" x="896" y="-175.5" font-family="Helvetica,sans-Serif" font-size="10.00">cassert</text>
</a>
</g>
</g>
<!-- Node23&#45;&gt;Node24 -->
<g id="edge31" class="edge">
<title>Node23&#45;&gt;Node24</title>
<path fill="none" stroke="midnightblue" d="M583.24,-302.83C668.42,-298.09 814.29,-285.67 857,-255 876.15,-241.25 886.56,-215.26 891.7,-197.54"/>
<polygon fill="midnightblue" stroke="midnightblue" points="895.11,-198.32 894.24,-187.76 888.34,-196.56 895.11,-198.32"/>
</g>
<!-- Node25 -->
<g id="node25" class="node">
<title>Node25</title>
<g id="a_node25"><a xlink:title=" ">
<polygon fill="white" stroke="#bfbfbf" points="816,-230 816,-249 848,-249 848,-230 816,-230"/>
<text text-anchor="middle" x="832" y="-237" font-family="Helvetica,sans-Serif" font-size="10.00">list</text>
</a>
</g>
</g>
<!-- Node23&#45;&gt;Node25 -->
<g id="edge32" class="edge">
<title>Node23&#45;&gt;Node25</title>
<path fill="none" stroke="midnightblue" d="M583.09,-299.2C641.04,-292.24 728.79,-278.75 802,-255 803.66,-254.46 805.35,-253.85 807.04,-253.18"/>
<polygon fill="midnightblue" stroke="midnightblue" points="808.73,-256.26 816.45,-249.01 805.89,-249.86 808.73,-256.26"/>
</g>
<!-- Node26 -->
<g id="node26" class="node">
<title>Node26</title>
<g id="a_node26"><a xlink:title=" ">
<polygon fill="white" stroke="#bfbfbf" points="806.5,-168.5 806.5,-187.5 851.5,-187.5 851.5,-168.5 806.5,-168.5"/>
<text text-anchor="middle" x="829" y="-175.5" font-family="Helvetica,sans-Serif" font-size="10.00">utility</text>
</a>
</g>
</g>
<!-- Node23&#45;&gt;Node26 -->
<g id="edge33" class="edge">
<title>Node23&#45;&gt;Node26</title>
<path fill="none" stroke="midnightblue" d="M583.2,-304.56C636.33,-301.11 712.45,-289.77 769,-255 791.98,-240.87 809.73,-214.58 819.78,-196.94"/>
<polygon fill="midnightblue" stroke="midnightblue" points="823.09,-198.16 824.78,-187.71 816.94,-194.83 823.09,-198.16"/>
</g>
<!-- Node27 -->
<g id="node27" class="node">
<title>Node27</title>
<g id="a_node27"><a xlink:href="flatmap_8h.html" target="_top" xlink:title=" ">
<polygon fill="white" stroke="black" points="624,-230 624,-249 760,-249 760,-230 624,-230"/>
<text text-anchor="middle" x="692" y="-237" font-family="Helvetica,sans-Serif" font-size="10.00">core/container/flatmap.h</text>
</a>
</g>
</g>
<!-- Node23&#45;&gt;Node27 -->
<g id="edge35" class="edge">
<title>Node23&#45;&gt;Node27</title>
<path fill="none" stroke="midnightblue" d="M557.32,-291.4C587.9,-279.84 630.73,-263.66 659.82,-252.66"/>
<polygon fill="midnightblue" stroke="midnightblue" points="661.37,-255.82 669.49,-249.01 658.9,-249.27 661.37,-255.82"/>
</g>
<!-- Node30 -->
<g id="node30" class="node">
<title>Node30</title>
<g id="a_node30"><a xlink:href="numa_8h.html" target="_top" xlink:title=" ">
<polygon fill="white" stroke="black" points="472,-168.5 472,-187.5 568,-187.5 568,-168.5 472,-168.5"/>
<text text-anchor="middle" x="520" y="-175.5" font-family="Helvetica,sans-Serif" font-size="10.00">core/util/numa.h</text>
</a>
</g>
</g>
<!-- Node23&#45;&gt;Node30 -->
<g id="edge42" class="edge">
<title>Node23&#45;&gt;Node30</title>
<path fill="none" stroke="midnightblue" d="M520,-291.48C520,-268.72 520,-223.7 520,-198.06"/>
<polygon fill="midnightblue" stroke="midnightblue" points="523.5,-197.79 520,-187.79 516.5,-197.79 523.5,-197.79"/>
</g>
<!-- Node32 -->
<g id="node32" class="node">
<title>Node32</title>
<g id="a_node32"><a xlink:href="spinlock_8h.html" target="_top" xlink:title=" ">
<polygon fill="white" stroke="black" points="256.5,-230 256.5,-249 365.5,-249 365.5,-230 256.5,-230"/>
<text text-anchor="middle" x="311" y="-237" font-family="Helvetica,sans-Serif" font-size="10.00">core/util/spinlock.h</text>
</a>
</g>
</g>
<!-- Node23&#45;&gt;Node32 -->
<g id="edge44" class="edge">
<title>Node23&#45;&gt;Node32</title>
<path fill="none" stroke="midnightblue" d="M474.91,-291.48C437.12,-279.72 383.81,-263.14 348.36,-252.12"/>
<polygon fill="midnightblue" stroke="midnightblue" points="349.01,-248.66 338.42,-249.03 346.93,-255.34 349.01,-248.66"/>
</g>
<!-- Node34 -->
<g id="node34" class="node">
<title>Node34</title>
<g id="a_node34"><a xlink:href="thread__info_8h.html" target="_top" xlink:title=" ">
<polygon fill="white" stroke="black" points="384,-230 384,-249 508,-249 508,-230 384,-230"/>
<text text-anchor="middle" x="446" y="-237" font-family="Helvetica,sans-Serif" font-size="10.00">core/util/thread_info.h</text>
</a>
</g>
</g>
<!-- Node23&#45;&gt;Node34 -->
<g id="edge46" class="edge">
<title>Node23&#45;&gt;Node34</title>
<path fill="none" stroke="midnightblue" d="M503.94,-291.4C492.06,-280.96 475.89,-266.75 463.64,-256"/>
<polygon fill="midnightblue" stroke="midnightblue" points="465.72,-253.16 455.9,-249.19 461.1,-258.42 465.72,-253.16"/>
</g>
<!-- Node27&#45;&gt;Node11 -->
<g id="edge40" class="edge">
<title>Node27&#45;&gt;Node11</title>
<path fill="none" stroke="midnightblue" d="M687.58,-229.79C671.9,-199.87 615.64,-100.62 538,-56 500.49,-34.44 375.85,-20 315.01,-14.06"/>
<polygon fill="midnightblue" stroke="midnightblue" points="315.06,-10.55 304.77,-13.08 314.39,-17.52 315.06,-10.55"/>
</g>
<!-- Node27&#45;&gt;Node19 -->
<g id="edge41" class="edge">
<title>Node27&#45;&gt;Node19</title>
<path fill="none" stroke="midnightblue" d="M695.07,-229.98C700.4,-215.97 712.43,-187.66 729,-168 760.58,-130.54 808.34,-98.34 836.93,-80.9"/>
<polygon fill="midnightblue" stroke="midnightblue" points="839.05,-83.71 845.83,-75.57 835.45,-77.7 839.05,-83.71"/>
</g>
<!-- Node27&#45;&gt;Node24 -->
<g id="edge36" class="edge">
<title>Node27&#45;&gt;Node24</title>
<path fill="none" stroke="midnightblue" d="M721.23,-229.98C757.82,-219.3 820.47,-201.03 859.98,-189.51"/>
<polygon fill="midnightblue" stroke="midnightblue" points="861.12,-192.82 869.74,-186.66 859.16,-186.1 861.12,-192.82"/>
</g>
<!-- Node27&#45;&gt;Node26 -->
<g id="edge39" class="edge">
<title>Node27&#45;&gt;Node26</title>
<path fill="none" stroke="midnightblue" d="M711.63,-229.98C734.82,-219.9 773.62,-203.05 800.21,-191.5"/>
<polygon fill="midnightblue" stroke="midnightblue" points="801.63,-194.7 809.41,-187.51 798.84,-188.28 801.63,-194.7"/>
</g>
<!-- Node28 -->
<g id="node28" class="node">
<title>Node28</title>
<g id="a_node28"><a xlink:title=" ">
<polygon fill="white" stroke="#bfbfbf" points="1203.5,-168.5 1203.5,-187.5 1256.5,-187.5 1256.5,-168.5 1203.5,-168.5"/>
<text text-anchor="middle" x="1230" y="-175.5" font-family="Helvetica,sans-Serif" font-size="10.00">cstddef</text>
</a>
</g>
</g>
<!-- Node27&#45;&gt;Node28 -->
<g id="edge37" class="edge">
<title>Node27&#45;&gt;Node28</title>
<path fill="none" stroke="midnightblue" d="M756.43,-230C772.9,-227.93 790.6,-225.79 807,-224 975.88,-205.52 1022.61,-217.19 1193.26,-188.06"/>
<polygon fill="midnightblue" stroke="midnightblue" points="1194.08,-191.47 1203.34,-186.32 1192.89,-184.58 1194.08,-191.47"/>
</g>
<!-- Node29 -->
<g id="node29" class="node">
<title>Node29</title>
<g id="a_node29"><a xlink:title=" ">
<polygon fill="white" stroke="#bfbfbf" points="738,-168.5 738,-187.5 788,-187.5 788,-168.5 738,-168.5"/>
<text text-anchor="middle" x="763" y="-175.5" font-family="Helvetica,sans-Serif" font-size="10.00">cstdint</text>
</a>
</g>
</g>
<!-- Node27&#45;&gt;Node29 -->
<g id="edge38" class="edge">
<title>Node27&#45;&gt;Node29</title>
<path fill="none" stroke="midnightblue" d="M702.17,-229.98C713.35,-220.61 731.52,-205.38 745.09,-194.01"/>
<polygon fill="midnightblue" stroke="midnightblue" points="747.43,-196.61 752.85,-187.51 742.93,-191.25 747.43,-196.61"/>
</g>
<!-- Node31 -->
<g id="node31" class="node">
<title>Node31</title>
<g id="a_node31"><a xlink:title=" ">
<polygon fill="white" stroke="#bfbfbf" points="458.5,-112.5 458.5,-131.5 505.5,-131.5 505.5,-112.5 458.5,-112.5"/>
<text text-anchor="middle" x="482" y="-119.5" font-family="Helvetica,sans-Serif" font-size="10.00">omp.h</text>
</a>
</g>
</g>
<!-- Node30&#45;&gt;Node31 -->
<g id="edge43" class="edge">
<title>Node30&#45;&gt;Node31</title>
<path fill="none" stroke="midnightblue" d="M513.73,-168.08C508.36,-160.46 500.48,-149.26 493.92,-139.94"/>
<polygon fill="midnightblue" stroke="midnightblue" points="496.78,-137.91 488.16,-131.75 491.05,-141.94 496.78,-137.91"/>
</g>
<!-- Node33 -->
<g id="node33" class="node">
<title>Node33</title>
<g id="a_node33"><a xlink:title=" ">
<polygon fill="white" stroke="#bfbfbf" points="256,-168.5 256,-187.5 306,-187.5 306,-168.5 256,-168.5"/>
<text text-anchor="middle" x="281" y="-175.5" font-family="Helvetica,sans-Serif" font-size="10.00">atomic</text>
</a>
</g>
</g>
<!-- Node32&#45;&gt;Node33 -->
<g id="edge45" class="edge">
<title>Node32&#45;&gt;Node33</title>
<path fill="none" stroke="midnightblue" d="M306.7,-229.98C302.34,-221.32 295.44,-207.65 289.9,-196.65"/>
<polygon fill="midnightblue" stroke="midnightblue" points="292.92,-194.86 285.29,-187.51 286.67,-198.01 292.92,-194.86"/>
</g>
<!-- Node34&#45;&gt;Node11 -->
<g id="edge50" class="edge">
<title>Node34&#45;&gt;Node11</title>
<path fill="none" stroke="midnightblue" d="M419.99,-229.94C399.38,-221.98 371.13,-208.27 353,-188 310.67,-140.69 291.39,-65.2 284.36,-30.1"/>
<polygon fill="midnightblue" stroke="midnightblue" points="287.72,-29.03 282.42,-19.85 280.84,-30.32 287.72,-29.03"/>
</g>
<!-- Node34&#45;&gt;Node16 -->
<g id="edge51" class="edge">
<title>Node34&#45;&gt;Node16</title>
<path fill="none" stroke="midnightblue" d="M470.46,-229.94C497.01,-220.45 540.51,-204.32 577,-188 613.49,-171.68 654.44,-150.11 679.73,-136.39"/>
<polygon fill="midnightblue" stroke="midnightblue" points="681.51,-139.4 688.62,-131.54 678.16,-133.26 681.51,-139.4"/>
</g>
<!-- Node34&#45;&gt;Node30 -->
<g id="edge52" class="edge">
<title>Node34&#45;&gt;Node30</title>
<path fill="none" stroke="midnightblue" d="M456.6,-229.98C468.25,-220.61 487.19,-205.38 501.33,-194.01"/>
<polygon fill="midnightblue" stroke="midnightblue" points="503.82,-196.5 509.42,-187.51 499.43,-191.05 503.82,-196.5"/>
</g>
<!-- Node34&#45;&gt;Node31 -->
<g id="edge47" class="edge">
<title>Node34&#45;&gt;Node31</title>
<path fill="none" stroke="midnightblue" d="M447.64,-229.69C450.26,-216.22 455.83,-189.77 463,-168 465.98,-158.94 470.01,-149.15 473.6,-141.02"/>
<polygon fill="midnightblue" stroke="midnightblue" points="476.84,-142.35 477.78,-131.8 470.46,-139.46 476.84,-142.35"/>
</g>
<!-- Node34&#45;&gt;Node33 -->
<g id="edge49" class="edge">
<title>Node34&#45;&gt;Node33</title>
<path fill="none" stroke="midnightblue" d="M422.36,-229.98C394.06,-219.77 346.47,-202.61 314.41,-191.05"/>
<polygon fill="midnightblue" stroke="midnightblue" points="315.19,-187.61 304.6,-187.51 312.82,-194.19 315.19,-187.61"/>
</g>
<!-- Node35 -->
<g id="node35" class="node">
<title>Node35</title>
<g id="a_node35"><a xlink:title=" ">
<polygon fill="white" stroke="#bfbfbf" points="362,-168.5 362,-187.5 416,-187.5 416,-168.5 362,-168.5"/>
<text text-anchor="middle" x="389" y="-175.5" font-family="Helvetica,sans-Serif" font-size="10.00">sched.h</text>
</a>
</g>
</g>
<!-- Node34&#45;&gt;Node35 -->
<g id="edge48" class="edge">
<title>Node34&#45;&gt;Node35</title>
<path fill="none" stroke="midnightblue" d="M437.83,-229.98C429.11,-220.87 415.1,-206.24 404.31,-194.98"/>
<polygon fill="midnightblue" stroke="midnightblue" points="406.6,-192.31 397.15,-187.51 401.54,-197.15 406.6,-192.31"/>
</g>
<!-- Node36&#45;&gt;Node14 -->
<g id="edge69" class="edge">
<title>Node36&#45;&gt;Node14</title>
<path fill="none" stroke="midnightblue" d="M1117.17,-296.81C1093.29,-275.68 1031.96,-221.43 1001.59,-194.56"/>
<polygon fill="midnightblue" stroke="midnightblue" points="1003.71,-191.76 993.9,-187.76 999.07,-197 1003.71,-191.76"/>
</g>
<!-- Node37 -->
<g id="node37" class="node">
<title>Node37</title>
<g id="a_node37"><a xlink:title=" ">
<polygon fill="white" stroke="#bfbfbf" points="1080.5,-230 1080.5,-249 1173.5,-249 1173.5,-230 1080.5,-230"/>
<text text-anchor="middle" x="1127" y="-237" font-family="Helvetica,sans-Serif" font-size="10.00">unordered_map</text>
</a>
</g>
</g>
<!-- Node36&#45;&gt;Node37 -->
<g id="edge54" class="edge">
<title>Node36&#45;&gt;Node37</title>
<path fill="none" stroke="midnightblue" d="M1127,-296.73C1127,-287.18 1127,-271.62 1127,-259.28"/>
<polygon fill="midnightblue" stroke="midnightblue" points="1130.5,-259.13 1127,-249.13 1123.5,-259.13 1130.5,-259.13"/>
</g>
<!-- Node38 -->
<g id="node38" class="node">
<title>Node38</title>
<g id="a_node38"><a xlink:href="fixed__size__vector_8h.html" target="_top" xlink:title=" ">
<polygon fill="white" stroke="black" points="1324.5,-224.5 1324.5,-254.5 1437.5,-254.5 1437.5,-224.5 1324.5,-224.5"/>
<text text-anchor="start" x="1332.5" y="-242.5" font-family="Helvetica,sans-Serif" font-size="10.00">core/container/fixed</text>
<text text-anchor="middle" x="1381" y="-231.5" font-family="Helvetica,sans-Serif" font-size="10.00">_size_vector.h</text>
</a>
</g>
</g>
<!-- Node36&#45;&gt;Node38 -->
<g id="edge55" class="edge">
<title>Node36&#45;&gt;Node38</title>
<path fill="none" stroke="midnightblue" d="M1160.47,-296.94C1200,-286.82 1266.65,-269.76 1316.36,-257.04"/>
<polygon fill="midnightblue" stroke="midnightblue" points="1317.24,-260.43 1326.06,-254.56 1315.51,-253.65 1317.24,-260.43"/>
</g>
<!-- Node40 -->
<g id="node40" class="node">
<title>Node40</title>
<g id="a_node40"><a xlink:href="math__array_8h.html" target="_top" xlink:title=" ">
<polygon fill="white" stroke="black" points="1191.5,-224.5 1191.5,-254.5 1306.5,-254.5 1306.5,-224.5 1191.5,-224.5"/>
<text text-anchor="start" x="1199.5" y="-242.5" font-family="Helvetica,sans-Serif" font-size="10.00">core/container/math</text>
<text text-anchor="middle" x="1249" y="-231.5" font-family="Helvetica,sans-Serif" font-size="10.00">_array.h</text>
</a>
</g>
</g>
<!-- Node36&#45;&gt;Node40 -->
<g id="edge60" class="edge">
<title>Node36&#45;&gt;Node40</title>
<path fill="none" stroke="midnightblue" d="M1143.2,-296.87C1161.05,-287.36 1190.32,-271.77 1213.55,-259.39"/>
<polygon fill="midnightblue" stroke="midnightblue" points="1215.26,-262.44 1222.44,-254.65 1211.97,-256.26 1215.26,-262.44"/>
</g>
<!-- Node38&#45;&gt;Node4 -->
<g id="edge56" class="edge">
<title>Node38&#45;&gt;Node4</title>
<path fill="none" stroke="midnightblue" d="M1396.64,-224.4C1406.63,-215.4 1419.58,-203.72 1429.85,-194.47"/>
<polygon fill="midnightblue" stroke="midnightblue" points="1432.31,-196.95 1437.4,-187.66 1427.63,-191.75 1432.31,-196.95"/>
</g>
<!-- Node38&#45;&gt;Node24 -->
<g id="edge57" class="edge">
<title>Node38&#45;&gt;Node24</title>
<path fill="none" stroke="midnightblue" d="M1324.36,-225.42C1321.54,-224.91 1318.74,-224.43 1316,-224 1149.47,-197.75 1102.1,-216.74 932.3,-187.96"/>
<polygon fill="midnightblue" stroke="midnightblue" points="932.73,-184.48 922.28,-186.23 931.54,-191.38 932.73,-184.48"/>
</g>
<!-- Node38&#45;&gt;Node28 -->
<g id="edge58" class="edge">
<title>Node38&#45;&gt;Node28</title>
<path fill="none" stroke="midnightblue" d="M1345.22,-224.4C1319.77,-214.37 1285.9,-201.03 1261.48,-191.4"/>
<polygon fill="midnightblue" stroke="midnightblue" points="1262.56,-188.07 1251.97,-187.66 1259.99,-194.58 1262.56,-188.07"/>
</g>
<!-- Node39 -->
<g id="node39" class="node">
<title>Node39</title>
<g id="a_node39"><a xlink:title=" ">
<polygon fill="white" stroke="#bfbfbf" points="1497.5,-168.5 1497.5,-187.5 1580.5,-187.5 1580.5,-168.5 1497.5,-168.5"/>
<text text-anchor="middle" x="1539" y="-175.5" font-family="Helvetica,sans-Serif" font-size="10.00">initializer_list</text>
</a>
</g>
</g>
<!-- Node38&#45;&gt;Node39 -->
<g id="edge59" class="edge">
<title>Node38&#45;&gt;Node39</title>
<path fill="none" stroke="midnightblue" d="M1418.44,-224.4C1445.19,-214.33 1480.82,-200.91 1506.4,-191.28"/>
<polygon fill="midnightblue" stroke="midnightblue" points="1507.88,-194.46 1516.01,-187.66 1505.42,-187.91 1507.88,-194.46"/>
</g>
<!-- Node40&#45;&gt;Node4 -->
<g id="edge61" class="edge">
<title>Node40&#45;&gt;Node4</title>
<path fill="none" stroke="midnightblue" d="M1295.67,-224.47C1330.13,-214.12 1376.46,-200.2 1408.74,-190.5"/>
<polygon fill="midnightblue" stroke="midnightblue" points="1410.12,-193.74 1418.69,-187.51 1408.11,-187.03 1410.12,-193.74"/>
</g>
<!-- Node40&#45;&gt;Node6 -->
<g id="edge65" class="edge">
<title>Node40&#45;&gt;Node6</title>
<path fill="none" stroke="midnightblue" d="M1277.2,-224.4C1296.72,-214.64 1322.53,-201.74 1341.63,-192.18"/>
<polygon fill="midnightblue" stroke="midnightblue" points="1343.31,-195.26 1350.68,-187.66 1340.17,-189 1343.31,-195.26"/>
</g>
<!-- Node40&#45;&gt;Node14 -->
<g id="edge68" class="edge">
<title>Node40&#45;&gt;Node14</title>
<path fill="none" stroke="midnightblue" d="M1191.5,-225.59C1143.81,-214.88 1076.78,-199.83 1031.95,-189.77"/>
<polygon fill="midnightblue" stroke="midnightblue" points="1032.7,-186.35 1022.17,-187.57 1031.16,-193.18 1032.7,-186.35"/>
</g>
<!-- Node40&#45;&gt;Node24 -->
<g id="edge62" class="edge">
<title>Node40&#45;&gt;Node24</title>
<path fill="none" stroke="midnightblue" d="M1191.46,-225.59C1188.6,-225.04 1185.77,-224.5 1183,-224 1074.83,-204.42 1043.7,-209.79 932.26,-188.06"/>
<polygon fill="midnightblue" stroke="midnightblue" points="932.79,-184.6 922.3,-186.09 931.43,-191.47 932.79,-184.6"/>
</g>
<!-- Node40&#45;&gt;Node26 -->
<g id="edge67" class="edge">
<title>Node40&#45;&gt;Node26</title>
<path fill="none" stroke="midnightblue" d="M1191.48,-225.49C1188.62,-224.96 1185.78,-224.46 1183,-224 1044.12,-201.05 1004.12,-214.93 861.6,-187.79"/>
<polygon fill="midnightblue" stroke="midnightblue" points="862.1,-184.32 851.62,-185.85 860.77,-191.19 862.1,-184.32"/>
</g>
<!-- Node41 -->
<g id="node41" class="node">
<title>Node41</title>
<g id="a_node41"><a xlink:title=" ">
<polygon fill="white" stroke="#bfbfbf" points="1274.5,-168.5 1274.5,-187.5 1321.5,-187.5 1321.5,-168.5 1274.5,-168.5"/>
<text text-anchor="middle" x="1298" y="-175.5" font-family="Helvetica,sans-Serif" font-size="10.00">cmath</text>
</a>
</g>
</g>
<!-- Node40&#45;&gt;Node41 -->
<g id="edge63" class="edge">
<title>Node40&#45;&gt;Node41</title>
<path fill="none" stroke="midnightblue" d="M1260.61,-224.4C1267.73,-215.75 1276.88,-204.64 1284.35,-195.58"/>
<polygon fill="midnightblue" stroke="midnightblue" points="1287.21,-197.6 1290.87,-187.66 1281.81,-193.15 1287.21,-197.6"/>
</g>
<!-- Node42 -->
<g id="node42" class="node">
<title>Node42</title>
<g id="a_node42"><a xlink:title=" ">
<polygon fill="white" stroke="#bfbfbf" points="1046,-168.5 1046,-187.5 1102,-187.5 1102,-168.5 1046,-168.5"/>
<text text-anchor="middle" x="1074" y="-175.5" font-family="Helvetica,sans-Serif" font-size="10.00">numeric</text>
</a>
</g>
</g>
<!-- Node40&#45;&gt;Node42 -->
<g id="edge64" class="edge">
<title>Node40&#45;&gt;Node42</title>
<path fill="none" stroke="midnightblue" d="M1207.53,-224.4C1177.42,-214.16 1137.15,-200.47 1108.73,-190.81"/>
<polygon fill="midnightblue" stroke="midnightblue" points="1109.8,-187.48 1099.21,-187.57 1107.55,-194.1 1109.8,-187.48"/>
</g>
<!-- Node43 -->
<g id="node43" class="node">
<title>Node43</title>
<g id="a_node43"><a xlink:title=" ">
<polygon fill="white" stroke="#bfbfbf" points="1120.5,-168.5 1120.5,-187.5 1185.5,-187.5 1185.5,-168.5 1120.5,-168.5"/>
<text text-anchor="middle" x="1153" y="-175.5" font-family="Helvetica,sans-Serif" font-size="10.00">stdexcept</text>
</a>
</g>
</g>
<!-- Node40&#45;&gt;Node43 -->
<g id="edge66" class="edge">
<title>Node40&#45;&gt;Node43</title>
<path fill="none" stroke="midnightblue" d="M1226.25,-224.4C1211.01,-214.95 1191.01,-202.56 1175.76,-193.11"/>
<polygon fill="midnightblue" stroke="midnightblue" points="1177.31,-189.95 1166.97,-187.66 1173.62,-195.9 1177.31,-189.95"/>
</g>
</g>
</svg>
