<?xml version="1.0" encoding="UTF-8" standalone="no"?>
<!DOCTYPE svg PUBLIC "-//W3C//DTD SVG 1.1//EN"
 "http://www.w3.org/Graphics/SVG/1.1/DTD/svg11.dtd">
<!-- Generated by graphviz version 2.36.0 (20140111.2315)
 -->
<!-- Title: compile_time_param.h Pages: 1 -->
<svg width="2938pt" height="600pt"
 viewBox="0.00 0.00 2938.12 600.00" xmlns="http://www.w3.org/2000/svg" xmlns:xlink="http://www.w3.org/1999/xlink">
<g id="graph0" class="graph" transform="scale(1 1) rotate(0) translate(4 596)">
<title>compile_time_param.h</title>
<polygon fill="white" stroke="none" points="-4,4 -4,-596 2934.12,-596 2934.12,4 -4,4"/>
<!-- Node1 -->
<g id="node1" class="node"><title>Node1</title>
<polygon fill="#bfbfbf" stroke="black" points="308.616,-572.5 308.616,-591.5 423.616,-591.5 423.616,-572.5 308.616,-572.5"/>
<text text-anchor="middle" x="366.116" y="-579.5" font-family="Helvetica,sans-Serif" font-size="10.00">compile_time_param.h</text>
</g>
<!-- Node2 -->
<g id="node2" class="node"><title>Node2</title>
<polygon fill="white" stroke="#bfbfbf" points="546.116,-168.5 546.116,-187.5 618.116,-187.5 618.116,-168.5 546.116,-168.5"/>
<text text-anchor="middle" x="582.116" y="-175.5" font-family="Helvetica,sans-Serif" font-size="10.00">cpp_magic.h</text>
</g>
<!-- Node1&#45;&gt;Node2 -->
<g id="edge1" class="edge"><title>Node1&#45;&gt;Node2</title>
<path fill="none" stroke="midnightblue" d="M367.866,-572.326C373.637,-544.797 393.627,-457.361 427.116,-392 464.367,-319.296 488.296,-310.233 536.116,-244 547.707,-227.945 560.728,-209.508 569.95,-196.38"/>
<polygon fill="midnightblue" stroke="midnightblue" points="573.042,-198.066 575.919,-187.869 567.311,-194.047 573.042,-198.066"/>
</g>
<!-- Node3 -->
<g id="node3" class="node"><title>Node3</title>
<g id="a_node3"><a xlink:href="backend_8h.html" target="_top" xlink:title="backend.h">
<polygon fill="white" stroke="black" points="1189.12,-280.5 1189.12,-299.5 1251.12,-299.5 1251.12,-280.5 1189.12,-280.5"/>
<text text-anchor="middle" x="1220.12" y="-287.5" font-family="Helvetica,sans-Serif" font-size="10.00">backend.h</text>
</a>
</g>
</g>
<!-- Node1&#45;&gt;Node3 -->
<g id="edge2" class="edge"><title>Node1&#45;&gt;Node3</title>
<path fill="none" stroke="midnightblue" d="M384.919,-572.39C430.822,-551.545 552.51,-497.338 657.116,-460 849.575,-391.305 1085.42,-326.676 1179.02,-301.782"/>
<polygon fill="midnightblue" stroke="midnightblue" points="1180.17,-305.099 1188.94,-299.152 1178.37,-298.333 1180.17,-305.099"/>
</g>
<!-- Node18 -->
<g id="node18" class="node"><title>Node18</title>
<g id="a_node18"><a xlink:href="biology__module__util_8h.html" target="_top" xlink:title="biology_module_util.h">
<polygon fill="white" stroke="black" points="270.116,-398.5 270.116,-417.5 380.116,-417.5 380.116,-398.5 270.116,-398.5"/>
<text text-anchor="middle" x="325.116" y="-405.5" font-family="Helvetica,sans-Serif" font-size="10.00">biology_module_util.h</text>
</a>
</g>
</g>
<!-- Node1&#45;&gt;Node18 -->
<g id="edge20" class="edge"><title>Node1&#45;&gt;Node18</title>
<path fill="none" stroke="midnightblue" d="M364.026,-572.234C357.638,-545.433 338.269,-464.178 329.506,-427.415"/>
<polygon fill="midnightblue" stroke="midnightblue" points="332.876,-426.46 327.153,-417.544 326.067,-428.083 332.876,-426.46"/>
</g>
<!-- Node24 -->
<g id="node24" class="node"><title>Node24</title>
<g id="a_node24"><a xlink:href="variant_8h.html" target="_top" xlink:title="variant.h">
<polygon fill="white" stroke="black" points="161.116,-224.5 161.116,-243.5 215.116,-243.5 215.116,-224.5 161.116,-224.5"/>
<text text-anchor="middle" x="188.116" y="-231.5" font-family="Helvetica,sans-Serif" font-size="10.00">variant.h</text>
</a>
</g>
</g>
<!-- Node1&#45;&gt;Node24 -->
<g id="edge150" class="edge"><title>Node1&#45;&gt;Node24</title>
<path fill="none" stroke="midnightblue" d="M308.302,-580.14C233.903,-575.618 114.116,-555.255 114.116,-471 114.116,-471 114.116,-471 114.116,-345 114.116,-305.61 147.186,-269.726 169.112,-250.264"/>
<polygon fill="midnightblue" stroke="midnightblue" points="171.543,-252.79 176.877,-243.636 166.999,-247.466 171.543,-252.79"/>
</g>
<!-- Node29 -->
<g id="node29" class="node"><title>Node29</title>
<g id="a_node29"><a xlink:href="cell_8h.html" target="_top" xlink:title="cell.h">
<polygon fill="white" stroke="black" points="2003.12,-516.5 2003.12,-535.5 2043.12,-535.5 2043.12,-516.5 2003.12,-516.5"/>
<text text-anchor="middle" x="2023.12" y="-523.5" font-family="Helvetica,sans-Serif" font-size="10.00">cell.h</text>
</a>
</g>
</g>
<!-- Node1&#45;&gt;Node29 -->
<g id="edge39" class="edge"><title>Node1&#45;&gt;Node29</title>
<path fill="none" stroke="midnightblue" d="M423.635,-579.126C689.521,-570.461 1794.98,-534.435 1992.76,-527.989"/>
<polygon fill="midnightblue" stroke="midnightblue" points="1993.11,-531.48 2002.99,-527.656 1992.88,-524.483 1993.11,-531.48"/>
</g>
<!-- Node49 -->
<g id="node49" class="node"><title>Node49</title>
<g id="a_node49"><a xlink:href="compile__time__list_8h.html" target="_top" xlink:title="compile_time_list.h">
<polygon fill="white" stroke="black" points="180.616,-280.5 180.616,-299.5 281.616,-299.5 281.616,-280.5 180.616,-280.5"/>
<text text-anchor="middle" x="231.116" y="-287.5" font-family="Helvetica,sans-Serif" font-size="10.00">compile_time_list.h</text>
</a>
</g>
</g>
<!-- Node1&#45;&gt;Node49 -->
<g id="edge149" class="edge"><title>Node1&#45;&gt;Node49</title>
<path fill="none" stroke="midnightblue" d="M326.486,-572.468C278.526,-559.542 204.116,-529.983 204.116,-471 204.116,-471 204.116,-471 204.116,-407 204.116,-371.639 216.165,-331.756 224.165,-309.173"/>
<polygon fill="midnightblue" stroke="midnightblue" points="227.529,-310.165 227.696,-299.572 220.959,-307.749 227.529,-310.165"/>
</g>
<!-- Node4 -->
<g id="node4" class="node"><title>Node4</title>
<polygon fill="white" stroke="#bfbfbf" points="1350.62,-168.5 1350.62,-187.5 1409.62,-187.5 1409.62,-168.5 1350.62,-168.5"/>
<text text-anchor="middle" x="1380.12" y="-175.5" font-family="Helvetica,sans-Serif" font-size="10.00">exception</text>
</g>
<!-- Node3&#45;&gt;Node4 -->
<g id="edge3" class="edge"><title>Node3&#45;&gt;Node4</title>
<path fill="none" stroke="midnightblue" d="M1201.31,-280.297C1177.54,-268.136 1141.73,-245.165 1159.12,-224 1209.52,-162.653 1256.85,-202.084 1340.49,-187.868"/>
<polygon fill="midnightblue" stroke="midnightblue" points="1341.17,-191.302 1350.33,-185.976 1339.85,-184.428 1341.17,-191.302"/>
</g>
<!-- Node5 -->
<g id="node5" class="node"><title>Node5</title>
<polygon fill="white" stroke="#bfbfbf" points="1376.12,-224.5 1376.12,-243.5 1428.12,-243.5 1428.12,-224.5 1376.12,-224.5"/>
<text text-anchor="middle" x="1402.12" y="-231.5" font-family="Helvetica,sans-Serif" font-size="10.00">memory</text>
</g>
<!-- Node3&#45;&gt;Node5 -->
<g id="edge4" class="edge"><title>Node3&#45;&gt;Node5</title>
<path fill="none" stroke="midnightblue" d="M1248.95,-280.444C1280.79,-270.997 1332.08,-255.781 1366.42,-245.59"/>
<polygon fill="midnightblue" stroke="midnightblue" points="1367.47,-248.929 1376.07,-242.729 1365.48,-242.218 1367.47,-248.929"/>
</g>
<!-- Node6 -->
<g id="node6" class="node"><title>Node6</title>
<polygon fill="white" stroke="#bfbfbf" points="702.116,-112.5 702.116,-131.5 742.116,-131.5 742.116,-112.5 702.116,-112.5"/>
<text text-anchor="middle" x="722.116" y="-119.5" font-family="Helvetica,sans-Serif" font-size="10.00">utility</text>
</g>
<!-- Node3&#45;&gt;Node6 -->
<g id="edge5" class="edge"><title>Node3&#45;&gt;Node6</title>
<path fill="none" stroke="midnightblue" d="M1188.83,-286.804C1092.74,-279.411 804.614,-252.204 741.116,-188 729.113,-175.863 724.613,-156.586 722.967,-142.171"/>
<polygon fill="midnightblue" stroke="midnightblue" points="726.432,-141.582 722.169,-131.883 719.453,-142.123 726.432,-141.582"/>
</g>
<!-- Node7 -->
<g id="node7" class="node"><title>Node7</title>
<polygon fill="white" stroke="#bfbfbf" points="1751.12,-168.5 1751.12,-187.5 1795.12,-187.5 1795.12,-168.5 1751.12,-168.5"/>
<text text-anchor="middle" x="1773.12" y="-175.5" font-family="Helvetica,sans-Serif" font-size="10.00">vector</text>
</g>
<!-- Node3&#45;&gt;Node7 -->
<g id="edge6" class="edge"><title>Node3&#45;&gt;Node7</title>
<path fill="none" stroke="midnightblue" d="M1235.42,-280.34C1261.52,-266.006 1316.73,-237.584 1367.12,-224 1502.63,-187.462 1671.27,-180.523 1740.82,-179.256"/>
<polygon fill="midnightblue" stroke="midnightblue" points="1741.17,-182.751 1751.12,-179.097 1741.06,-175.752 1741.17,-182.751"/>
</g>
<!-- Node8 -->
<g id="node8" class="node"><title>Node8</title>
<g id="a_node8"><a xlink:href="macros_8h.html" target="_top" xlink:title="macros.h">
<polygon fill="white" stroke="black" points="680.616,-224.5 680.616,-243.5 737.616,-243.5 737.616,-224.5 680.616,-224.5"/>
<text text-anchor="middle" x="709.116" y="-231.5" font-family="Helvetica,sans-Serif" font-size="10.00">macros.h</text>
</a>
</g>
</g>
<!-- Node3&#45;&gt;Node8 -->
<g id="edge7" class="edge"><title>Node3&#45;&gt;Node8</title>
<path fill="none" stroke="midnightblue" d="M1189.08,-285.821C1118.31,-278.556 939.557,-260.122 790.116,-244 776.463,-242.527 761.52,-240.877 748.227,-239.397"/>
<polygon fill="midnightblue" stroke="midnightblue" points="748.304,-235.884 737.977,-238.252 747.527,-242.84 748.304,-235.884"/>
</g>
<!-- Node9 -->
<g id="node9" class="node"><title>Node9</title>
<g id="a_node9"><a xlink:href="root__util_8h.html" target="_top" xlink:title="root_util.h">
<polygon fill="white" stroke="black" points="946.616,-112.5 946.616,-131.5 1005.62,-131.5 1005.62,-112.5 946.616,-112.5"/>
<text text-anchor="middle" x="976.116" y="-119.5" font-family="Helvetica,sans-Serif" font-size="10.00">root_util.h</text>
</a>
</g>
</g>
<!-- Node3&#45;&gt;Node9 -->
<g id="edge9" class="edge"><title>Node3&#45;&gt;Node9</title>
<path fill="none" stroke="midnightblue" d="M1189.05,-286.318C1118.96,-279.953 953.366,-263.038 937.116,-244 910.968,-213.366 941.915,-164.922 961.845,-139.625"/>
<polygon fill="midnightblue" stroke="midnightblue" points="964.699,-141.665 968.324,-131.71 959.282,-137.232 964.699,-141.665"/>
</g>
<!-- Node13 -->
<g id="node13" class="node"><title>Node13</title>
<g id="a_node13"><a xlink:href="transactional__vector_8h.html" target="_top" xlink:title="transactional_vector.h">
<polygon fill="white" stroke="black" points="1168.62,-224.5 1168.62,-243.5 1281.62,-243.5 1281.62,-224.5 1168.62,-224.5"/>
<text text-anchor="middle" x="1225.12" y="-231.5" font-family="Helvetica,sans-Serif" font-size="10.00">transactional_vector.h</text>
</a>
</g>
</g>
<!-- Node3&#45;&gt;Node13 -->
<g id="edge13" class="edge"><title>Node3&#45;&gt;Node13</title>
<path fill="none" stroke="midnightblue" d="M1220.94,-280.083C1221.6,-273.006 1222.54,-262.861 1223.36,-253.986"/>
<polygon fill="midnightblue" stroke="midnightblue" points="1226.87,-254.031 1224.31,-243.751 1219.9,-253.386 1226.87,-254.031"/>
</g>
<!-- Node8&#45;&gt;Node2 -->
<g id="edge8" class="edge"><title>Node8&#45;&gt;Node2</title>
<path fill="none" stroke="midnightblue" d="M688.992,-224.444C668.092,-215.557 635.181,-201.563 611.4,-191.451"/>
<polygon fill="midnightblue" stroke="midnightblue" points="612.717,-188.208 602.145,-187.516 609.978,-194.65 612.717,-188.208"/>
</g>
<!-- Node10 -->
<g id="node10" class="node"><title>Node10</title>
<g id="a_node10"><a xlink:href="log_8h.html" target="_top" xlink:title="log.h">
<polygon fill="white" stroke="red" points="952.116,-56.5 952.116,-75.5 990.116,-75.5 990.116,-56.5 952.116,-56.5"/>
<text text-anchor="middle" x="971.116" y="-63.5" font-family="Helvetica,sans-Serif" font-size="10.00">log.h</text>
</a>
</g>
</g>
<!-- Node9&#45;&gt;Node10 -->
<g id="edge10" class="edge"><title>Node9&#45;&gt;Node10</title>
<path fill="none" stroke="midnightblue" d="M975.29,-112.083C974.635,-105.006 973.696,-94.8611 972.874,-85.9865"/>
<polygon fill="midnightblue" stroke="midnightblue" points="976.333,-85.3858 971.926,-75.7511 969.363,-86.0312 976.333,-85.3858"/>
</g>
<!-- Node11 -->
<g id="node11" class="node"><title>Node11</title>
<polygon fill="white" stroke="#bfbfbf" points="891.116,-0.5 891.116,-19.5 945.116,-19.5 945.116,-0.5 891.116,-0.5"/>
<text text-anchor="middle" x="918.116" y="-7.5" font-family="Helvetica,sans-Serif" font-size="10.00">iostream</text>
</g>
<!-- Node10&#45;&gt;Node11 -->
<g id="edge11" class="edge"><title>Node10&#45;&gt;Node11</title>
<path fill="none" stroke="midnightblue" d="M962.364,-56.083C954.646,-48.2195 943.211,-36.5688 933.899,-27.0813"/>
<polygon fill="midnightblue" stroke="midnightblue" points="936.207,-24.4363 926.705,-19.7511 931.212,-29.3396 936.207,-24.4363"/>
</g>
<!-- Node12 -->
<g id="node12" class="node"><title>Node12</title>
<polygon fill="white" stroke="#bfbfbf" points="1858.62,-0.5 1858.62,-19.5 1899.62,-19.5 1899.62,-0.5 1858.62,-0.5"/>
<text text-anchor="middle" x="1879.12" y="-7.5" font-family="Helvetica,sans-Serif" font-size="10.00">string</text>
</g>
<!-- Node10&#45;&gt;Node12 -->
<g id="edge12" class="edge"><title>Node10&#45;&gt;Node12</title>
<path fill="none" stroke="midnightblue" d="M990.501,-63.8472C1106.1,-56.9722 1704.37,-21.3926 1848.06,-12.8469"/>
<polygon fill="midnightblue" stroke="midnightblue" points="1848.57,-16.3226 1858.35,-12.2351 1848.16,-9.335 1848.57,-16.3226"/>
</g>
<!-- Node13&#45;&gt;Node4 -->
<g id="edge16" class="edge"><title>Node13&#45;&gt;Node4</title>
<path fill="none" stroke="midnightblue" d="M1249.68,-224.444C1275.64,-215.399 1316.78,-201.064 1345.91,-190.916"/>
<polygon fill="midnightblue" stroke="midnightblue" points="1347.38,-194.112 1355.67,-187.516 1345.08,-187.501 1347.38,-194.112"/>
</g>
<!-- Node13&#45;&gt;Node7 -->
<g id="edge19" class="edge"><title>Node13&#45;&gt;Node7</title>
<path fill="none" stroke="midnightblue" d="M1281.7,-227.424C1395.88,-216.173 1650.63,-191.07 1740.76,-182.188"/>
<polygon fill="midnightblue" stroke="midnightblue" points="1741.3,-185.652 1750.91,-181.188 1740.62,-178.685 1741.3,-185.652"/>
</g>
<!-- Node14 -->
<g id="node14" class="node"><title>Node14</title>
<polygon fill="white" stroke="#bfbfbf" points="1940.12,-168.5 1940.12,-187.5 1996.12,-187.5 1996.12,-168.5 1940.12,-168.5"/>
<text text-anchor="middle" x="1968.12" y="-175.5" font-family="Helvetica,sans-Serif" font-size="10.00">algorithm</text>
</g>
<!-- Node13&#45;&gt;Node14 -->
<g id="edge14" class="edge"><title>Node13&#45;&gt;Node14</title>
<path fill="none" stroke="midnightblue" d="M1281.88,-228.875C1426.91,-218.334 1808.23,-190.62 1930.09,-181.763"/>
<polygon fill="midnightblue" stroke="midnightblue" points="1930.36,-185.254 1940.08,-181.038 1929.85,-178.272 1930.36,-185.254"/>
</g>
<!-- Node15 -->
<g id="node15" class="node"><title>Node15</title>
<polygon fill="white" stroke="#bfbfbf" points="1467.62,-168.5 1467.62,-187.5 1516.62,-187.5 1516.62,-168.5 1467.62,-168.5"/>
<text text-anchor="middle" x="1492.12" y="-175.5" font-family="Helvetica,sans-Serif" font-size="10.00">cassert</text>
</g>
<!-- Node13&#45;&gt;Node15 -->
<g id="edge15" class="edge"><title>Node13&#45;&gt;Node15</title>
<path fill="none" stroke="midnightblue" d="M1267.42,-224.444C1320.03,-213.804 1408.82,-195.846 1457.55,-185.992"/>
<polygon fill="midnightblue" stroke="midnightblue" points="1458.49,-189.372 1467.59,-183.959 1457.1,-182.511 1458.49,-189.372"/>
</g>
<!-- Node16 -->
<g id="node16" class="node"><title>Node16</title>
<polygon fill="white" stroke="#bfbfbf" points="436.116,-168.5 436.116,-187.5 480.116,-187.5 480.116,-168.5 436.116,-168.5"/>
<text text-anchor="middle" x="458.116" y="-175.5" font-family="Helvetica,sans-Serif" font-size="10.00">mutex</text>
</g>
<!-- Node13&#45;&gt;Node16 -->
<g id="edge17" class="edge"><title>Node13&#45;&gt;Node16</title>
<path fill="none" stroke="midnightblue" d="M1168.49,-230.262C1013.76,-222.683 589.328,-201.206 490.499,-187.658"/>
<polygon fill="midnightblue" stroke="midnightblue" points="490.745,-184.155 480.328,-186.088 489.677,-191.073 490.745,-184.155"/>
</g>
<!-- Node17 -->
<g id="node17" class="node"><title>Node17</title>
<polygon fill="white" stroke="#bfbfbf" points="1249.62,-168.5 1249.62,-187.5 1332.62,-187.5 1332.62,-168.5 1249.62,-168.5"/>
<text text-anchor="middle" x="1291.12" y="-175.5" font-family="Helvetica,sans-Serif" font-size="10.00">unordered_map</text>
</g>
<!-- Node13&#45;&gt;Node17 -->
<g id="edge18" class="edge"><title>Node13&#45;&gt;Node17</title>
<path fill="none" stroke="midnightblue" d="M1235.72,-224.324C1245.57,-216.263 1260.47,-204.077 1272.33,-194.369"/>
<polygon fill="midnightblue" stroke="midnightblue" points="1274.8,-196.875 1280.32,-187.834 1270.36,-191.457 1274.8,-196.875"/>
</g>
<!-- Node19 -->
<g id="node19" class="node"><title>Node19</title>
<g id="a_node19"><a xlink:href="event_8h.html" target="_top" xlink:title="event/event.h">
<polygon fill="white" stroke="black" points="310.116,-336.5 310.116,-355.5 386.116,-355.5 386.116,-336.5 310.116,-336.5"/>
<text text-anchor="middle" x="348.116" y="-343.5" font-family="Helvetica,sans-Serif" font-size="10.00">event/event.h</text>
</a>
</g>
</g>
<!-- Node18&#45;&gt;Node19 -->
<g id="edge21" class="edge"><title>Node18&#45;&gt;Node19</title>
<path fill="none" stroke="midnightblue" d="M328.411,-398.403C331.725,-389.76 336.934,-376.17 341.164,-365.134"/>
<polygon fill="midnightblue" stroke="midnightblue" points="344.515,-366.171 344.827,-355.581 337.979,-363.665 344.515,-366.171"/>
</g>
<!-- Node21 -->
<g id="node21" class="node"><title>Node21</title>
<g id="a_node21"><a xlink:href="type__util_8h.html" target="_top" xlink:title="type_util.h">
<polygon fill="white" stroke="black" points="1785.12,-336.5 1785.12,-355.5 1847.12,-355.5 1847.12,-336.5 1785.12,-336.5"/>
<text text-anchor="middle" x="1816.12" y="-343.5" font-family="Helvetica,sans-Serif" font-size="10.00">type_util.h</text>
</a>
</g>
</g>
<!-- Node18&#45;&gt;Node21 -->
<g id="edge25" class="edge"><title>Node18&#45;&gt;Node21</title>
<path fill="none" stroke="midnightblue" d="M375.045,-398.498C391.573,-395.994 410.09,-393.52 427.116,-392 923.619,-347.665 1049.91,-372.365 1548.12,-356 1628.21,-353.369 1721.77,-350.207 1774.47,-348.418"/>
<polygon fill="midnightblue" stroke="midnightblue" points="1774.88,-351.906 1784.76,-348.068 1774.65,-344.91 1774.88,-351.906"/>
</g>
<!-- Node18&#45;&gt;Node24 -->
<g id="edge29" class="edge"><title>Node18&#45;&gt;Node24</title>
<path fill="none" stroke="midnightblue" d="M300.536,-398.393C264.461,-384.262 198.495,-352.363 171.116,-300 163.287,-285.028 169.76,-266.19 176.856,-252.654"/>
<polygon fill="midnightblue" stroke="midnightblue" points="179.962,-254.274 181.938,-243.865 173.902,-250.77 179.962,-254.274"/>
</g>
<!-- Node19&#45;&gt;Node10 -->
<g id="edge24" class="edge"><title>Node19&#45;&gt;Node10</title>
<path fill="none" stroke="midnightblue" d="M345.602,-336.174C336.355,-301.621 307.987,-174.38 372.116,-112 413.304,-71.9359 827.523,-67.5025 941.961,-67.0443"/>
<polygon fill="midnightblue" stroke="midnightblue" points="942.089,-70.544 952.078,-67.0113 942.066,-63.544 942.089,-70.544"/>
</g>
<!-- Node19&#45;&gt;Node16 -->
<g id="edge23" class="edge"><title>Node19&#45;&gt;Node16</title>
<path fill="none" stroke="midnightblue" d="M354.03,-336.075C371.57,-309.606 423.52,-231.209 446.712,-196.21"/>
<polygon fill="midnightblue" stroke="midnightblue" points="449.832,-197.837 452.438,-187.568 443.997,-193.971 449.832,-197.837"/>
</g>
<!-- Node20 -->
<g id="node20" class="node"><title>Node20</title>
<polygon fill="white" stroke="#bfbfbf" points="1499.12,-280.5 1499.12,-299.5 1539.12,-299.5 1539.12,-280.5 1499.12,-280.5"/>
<text text-anchor="middle" x="1519.12" y="-287.5" font-family="Helvetica,sans-Serif" font-size="10.00">limits</text>
</g>
<!-- Node19&#45;&gt;Node20 -->
<g id="edge22" class="edge"><title>Node19&#45;&gt;Node20</title>
<path fill="none" stroke="midnightblue" d="M386.411,-343.234C566.546,-334.927 1327.53,-299.835 1488.95,-292.391"/>
<polygon fill="midnightblue" stroke="midnightblue" points="1489.28,-295.88 1499.11,-291.923 1488.96,-288.887 1489.28,-295.88"/>
</g>
<!-- Node21&#45;&gt;Node3 -->
<g id="edge27" class="edge"><title>Node21&#45;&gt;Node3</title>
<path fill="none" stroke="midnightblue" d="M1784.91,-342.173C1685.25,-333.143 1374.58,-304.995 1261.67,-294.765"/>
<polygon fill="midnightblue" stroke="midnightblue" points="1261.65,-291.248 1251.37,-293.832 1261.01,-298.22 1261.65,-291.248"/>
</g>
<!-- Node22 -->
<g id="node22" class="node"><title>Node22</title>
<polygon fill="white" stroke="#bfbfbf" points="2299.12,-112.5 2299.12,-131.5 2361.12,-131.5 2361.12,-112.5 2299.12,-112.5"/>
<text text-anchor="middle" x="2330.12" y="-119.5" font-family="Helvetica,sans-Serif" font-size="10.00">type_traits</text>
</g>
<!-- Node21&#45;&gt;Node22 -->
<g id="edge26" class="edge"><title>Node21&#45;&gt;Node22</title>
<path fill="none" stroke="midnightblue" d="M1847.24,-345.127C1912.08,-344.555 2065.67,-338.813 2187.12,-300 2236.75,-284.137 2256.71,-283.986 2290.12,-244 2315.21,-213.964 2324.72,-167.658 2328.21,-141.912"/>
<polygon fill="midnightblue" stroke="midnightblue" points="2331.72,-142.003 2329.42,-131.662 2324.77,-141.183 2331.72,-142.003"/>
</g>
<!-- Node23 -->
<g id="node23" class="node"><title>Node23</title>
<g id="a_node23"><a xlink:href="shape_8h.html" target="_top" xlink:title="shape.h">
<polygon fill="white" stroke="black" points="2277.62,-280.5 2277.62,-299.5 2328.62,-299.5 2328.62,-280.5 2277.62,-280.5"/>
<text text-anchor="middle" x="2303.12" y="-287.5" font-family="Helvetica,sans-Serif" font-size="10.00">shape.h</text>
</a>
</g>
</g>
<!-- Node21&#45;&gt;Node23 -->
<g id="edge28" class="edge"><title>Node21&#45;&gt;Node23</title>
<path fill="none" stroke="midnightblue" d="M1847.16,-341.641C1915.49,-334.235 2084.03,-315.901 2225.12,-300 2238.9,-298.446 2254.06,-296.705 2267.31,-295.171"/>
<polygon fill="midnightblue" stroke="midnightblue" points="2267.94,-298.622 2277.47,-293.993 2267.14,-291.668 2267.94,-298.622"/>
</g>
<!-- Node24&#45;&gt;Node9 -->
<g id="edge33" class="edge"><title>Node24&#45;&gt;Node9</title>
<path fill="none" stroke="midnightblue" d="M195.999,-224.271C209.9,-209.563 240.41,-180.25 273.116,-168 304.331,-156.308 792.362,-131.888 936.394,-124.903"/>
<polygon fill="midnightblue" stroke="midnightblue" points="936.73,-128.391 946.549,-124.412 936.391,-121.399 936.73,-128.391"/>
</g>
<!-- Node24&#45;&gt;Node10 -->
<g id="edge34" class="edge"><title>Node24&#45;&gt;Node10</title>
<path fill="none" stroke="midnightblue" d="M192.736,-224.065C200.053,-210.583 215.412,-184.83 234.116,-168 271.982,-133.928 285.311,-126.591 334.116,-112 450.16,-77.3069 832.147,-69.0541 941.579,-67.3806"/>
<polygon fill="midnightblue" stroke="midnightblue" points="941.92,-70.8762 951.868,-67.2307 941.818,-63.8769 941.92,-70.8762"/>
</g>
<!-- Node24&#45;&gt;Node11 -->
<g id="edge31" class="edge"><title>Node24&#45;&gt;Node11</title>
<path fill="none" stroke="midnightblue" d="M160.921,-232.459C100.959,-230.32 -34.0586,-219.78 8.11583,-168 120.696,-29.778 724.417,-13.2245 881,-11.2604"/>
<polygon fill="midnightblue" stroke="midnightblue" points="881.114,-14.7595 891.074,-11.1469 881.035,-7.75992 881.114,-14.7595"/>
</g>
<!-- Node25 -->
<g id="node25" class="node"><title>Node25</title>
<polygon fill="white" stroke="#bfbfbf" points="130.616,-168.5 130.616,-187.5 187.616,-187.5 187.616,-168.5 130.616,-168.5"/>
<text text-anchor="middle" x="159.116" y="-175.5" font-family="Helvetica,sans-Serif" font-size="10.00">TBuffer.h</text>
</g>
<!-- Node24&#45;&gt;Node25 -->
<g id="edge30" class="edge"><title>Node24&#45;&gt;Node25</title>
<path fill="none" stroke="midnightblue" d="M183.327,-224.083C179.357,-216.691 173.591,-205.953 168.681,-196.811"/>
<polygon fill="midnightblue" stroke="midnightblue" points="171.63,-194.905 163.815,-187.751 165.463,-198.217 171.63,-194.905"/>
</g>
<!-- Node26 -->
<g id="node26" class="node"><title>Node26</title>
<polygon fill="white" stroke="#bfbfbf" points="282.116,-168.5 282.116,-187.5 320.116,-187.5 320.116,-168.5 282.116,-168.5"/>
<text text-anchor="middle" x="301.116" y="-175.5" font-family="Helvetica,sans-Serif" font-size="10.00">tuple</text>
</g>
<!-- Node24&#45;&gt;Node26 -->
<g id="edge32" class="edge"><title>Node24&#45;&gt;Node26</title>
<path fill="none" stroke="midnightblue" d="M206.021,-224.444C224.37,-215.675 253.121,-201.935 274.209,-191.858"/>
<polygon fill="midnightblue" stroke="midnightblue" points="275.781,-194.986 283.294,-187.516 272.763,-188.67 275.781,-194.986"/>
</g>
<!-- Node27 -->
<g id="node27" class="node"><title>Node27</title>
<polygon fill="white" stroke="#bfbfbf" points="17.6158,-168.5 17.6158,-187.5 112.616,-187.5 112.616,-168.5 17.6158,-168.5"/>
<text text-anchor="middle" x="65.1158" y="-175.5" font-family="Helvetica,sans-Serif" font-size="10.00">mpark/variant.hpp</text>
</g>
<!-- Node24&#45;&gt;Node27 -->
<g id="edge35" class="edge"><title>Node24&#45;&gt;Node27</title>
<path fill="none" stroke="midnightblue" d="M168.626,-224.444C148.474,-215.596 116.793,-201.687 93.785,-191.586"/>
<polygon fill="midnightblue" stroke="midnightblue" points="95.0778,-188.332 84.5144,-187.516 92.2638,-194.741 95.0778,-188.332"/>
</g>
<!-- Node28 -->
<g id="node28" class="node"><title>Node28</title>
<g id="a_node28"><a xlink:href="tuple__util_8h.html" target="_top" xlink:title="tuple_util.h">
<polygon fill="white" stroke="black" points="750.116,-168.5 750.116,-187.5 814.116,-187.5 814.116,-168.5 750.116,-168.5"/>
<text text-anchor="middle" x="782.116" y="-175.5" font-family="Helvetica,sans-Serif" font-size="10.00">tuple_util.h</text>
</a>
</g>
</g>
<!-- Node24&#45;&gt;Node28 -->
<g id="edge36" class="edge"><title>Node24&#45;&gt;Node28</title>
<path fill="none" stroke="midnightblue" d="M215.182,-230.539C309.601,-221.956 624.872,-193.295 739.765,-182.85"/>
<polygon fill="midnightblue" stroke="midnightblue" points="740.284,-186.317 749.926,-181.926 739.651,-179.346 740.284,-186.317"/>
</g>
<!-- Node28&#45;&gt;Node6 -->
<g id="edge38" class="edge"><title>Node28&#45;&gt;Node6</title>
<path fill="none" stroke="midnightblue" d="M772.476,-168.324C763.606,-160.341 750.241,-148.313 739.508,-138.653"/>
<polygon fill="midnightblue" stroke="midnightblue" points="741.706,-135.922 731.931,-131.834 737.023,-141.125 741.706,-135.922"/>
</g>
<!-- Node28&#45;&gt;Node22 -->
<g id="edge37" class="edge"><title>Node28&#45;&gt;Node22</title>
<path fill="none" stroke="midnightblue" d="M814.21,-175.372C852.506,-173.459 918.473,-170.261 975.116,-168 1493.49,-147.307 2123.69,-128.889 2288.89,-124.168"/>
<polygon fill="midnightblue" stroke="midnightblue" points="2289.2,-127.66 2299.09,-123.876 2289,-120.663 2289.2,-127.66"/>
</g>
<!-- Node29&#45;&gt;Node3 -->
<g id="edge47" class="edge"><title>Node29&#45;&gt;Node3</title>
<path fill="none" stroke="midnightblue" d="M2002.92,-521.742C1959.26,-514.643 1852.86,-497.045 1764.12,-480 1529.52,-434.94 1414.52,-520.313 1241.12,-356 1228.48,-344.028 1223.43,-324.42 1221.42,-309.865"/>
<polygon fill="midnightblue" stroke="midnightblue" points="1224.86,-309.116 1220.38,-299.519 1217.9,-309.82 1224.86,-309.116"/>
</g>
<!-- Node29&#45;&gt;Node7 -->
<g id="edge46" class="edge"><title>Node29&#45;&gt;Node7</title>
<path fill="none" stroke="midnightblue" d="M2021.71,-516.457C2015.83,-482.885 1990.46,-358.03 1927.12,-280 1893.28,-238.315 1837.57,-207.859 1803.24,-191.837"/>
<polygon fill="midnightblue" stroke="midnightblue" points="1804.3,-188.471 1793.74,-187.517 1801.4,-194.843 1804.3,-188.471"/>
</g>
<!-- Node29&#45;&gt;Node12 -->
<g id="edge44" class="edge"><title>Node29&#45;&gt;Node12</title>
<path fill="none" stroke="midnightblue" d="M2043.19,-525.26C2151.85,-526.457 2670.31,-529.448 2821.12,-480 2876.05,-461.987 2930.12,-466.815 2930.12,-409 2930.12,-409 2930.12,-409 2930.12,-121 2930.12,-15.5914 2083.08,-10.7887 1909.84,-10.9088"/>
<polygon fill="midnightblue" stroke="midnightblue" points="1909.63,-7.40895 1899.64,-10.9224 1909.64,-14.4089 1909.63,-7.40895"/>
</g>
<!-- Node29&#45;&gt;Node19 -->
<g id="edge70" class="edge"><title>Node29&#45;&gt;Node19</title>
<path fill="none" stroke="midnightblue" d="M2002.82,-524.788C1849.02,-523.117 865.159,-511.318 569.116,-480 430.755,-465.363 350.265,-530.82 261.116,-424 252.003,-413.081 253.722,-404.149 261.116,-392 270.575,-376.457 287.326,-366.045 303.62,-359.191"/>
<polygon fill="midnightblue" stroke="midnightblue" points="305.019,-362.403 313.103,-355.555 302.513,-355.868 305.019,-362.403"/>
</g>
<!-- Node29&#45;&gt;Node22 -->
<g id="edge45" class="edge"><title>Node29&#45;&gt;Node22</title>
<path fill="none" stroke="midnightblue" d="M2043.18,-525.476C2121.76,-526.939 2415.89,-528.661 2651.12,-480 2744.72,-460.637 2854.12,-504.581 2854.12,-409 2854.12,-409 2854.12,-409 2854.12,-289 2854.12,-224.531 2829.28,-201.356 2774.12,-168 2740.06,-147.411 2474.72,-130.886 2371.24,-125.163"/>
<polygon fill="midnightblue" stroke="midnightblue" points="2371.34,-121.663 2361.17,-124.612 2370.96,-128.653 2371.34,-121.663"/>
</g>
<!-- Node29&#45;&gt;Node23 -->
<g id="edge86" class="edge"><title>Node29&#45;&gt;Node23</title>
<path fill="none" stroke="midnightblue" d="M2043.21,-524.459C2077.2,-522.578 2146.79,-514.453 2192.12,-480 2251.67,-434.726 2285.22,-347.527 2297.58,-309.495"/>
<polygon fill="midnightblue" stroke="midnightblue" points="2300.98,-310.346 2300.63,-299.758 2294.3,-308.256 2300.98,-310.346"/>
</g>
<!-- Node30 -->
<g id="node30" class="node"><title>Node30</title>
<polygon fill="white" stroke="#bfbfbf" points="2533.12,-112.5 2533.12,-131.5 2571.12,-131.5 2571.12,-112.5 2533.12,-112.5"/>
<text text-anchor="middle" x="2552.12" y="-119.5" font-family="Helvetica,sans-Serif" font-size="10.00">array</text>
</g>
<!-- Node29&#45;&gt;Node30 -->
<g id="edge40" class="edge"><title>Node29&#45;&gt;Node30</title>
<path fill="none" stroke="midnightblue" d="M2043.14,-524.85C2146.05,-523.917 2616.06,-517.631 2756.12,-480 2821.97,-462.307 2892.12,-477.186 2892.12,-409 2892.12,-409 2892.12,-409 2892.12,-233 2892.12,-184.018 2848.15,-187.259 2803.12,-168 2727.43,-135.634 2629.28,-126.545 2581.22,-123.994"/>
<polygon fill="midnightblue" stroke="midnightblue" points="2581.36,-120.497 2571.21,-123.52 2581.03,-127.489 2581.36,-120.497"/>
</g>
<!-- Node31 -->
<g id="node31" class="node"><title>Node31</title>
<polygon fill="white" stroke="#bfbfbf" points="2706.12,-168.5 2706.12,-187.5 2750.12,-187.5 2750.12,-168.5 2706.12,-168.5"/>
<text text-anchor="middle" x="2728.12" y="-175.5" font-family="Helvetica,sans-Serif" font-size="10.00">cmath</text>
</g>
<!-- Node29&#45;&gt;Node31 -->
<g id="edge41" class="edge"><title>Node29&#45;&gt;Node31</title>
<path fill="none" stroke="midnightblue" d="M2043.36,-525.215C2114.82,-525.572 2361.65,-523.383 2559.12,-480 2643.52,-461.457 2740.12,-495.412 2740.12,-409 2740.12,-409 2740.12,-409 2740.12,-289 2740.12,-256.758 2734.96,-219.512 2731.41,-197.681"/>
<polygon fill="midnightblue" stroke="midnightblue" points="2734.81,-196.798 2729.68,-187.523 2727.9,-197.967 2734.81,-196.798"/>
</g>
<!-- Node32 -->
<g id="node32" class="node"><title>Node32</title>
<polygon fill="white" stroke="#bfbfbf" points="666.616,-460.5 666.616,-479.5 719.616,-479.5 719.616,-460.5 666.616,-460.5"/>
<text text-anchor="middle" x="693.116" y="-467.5" font-family="Helvetica,sans-Serif" font-size="10.00">complex</text>
</g>
<!-- Node29&#45;&gt;Node32 -->
<g id="edge42" class="edge"><title>Node29&#45;&gt;Node32</title>
<path fill="none" stroke="midnightblue" d="M2002.88,-524.796C1859.45,-523.278 994.599,-512.861 734.116,-480 732.814,-479.836 731.493,-479.65 730.162,-479.447"/>
<polygon fill="midnightblue" stroke="midnightblue" points="730.361,-475.927 719.901,-477.609 729.127,-482.817 730.361,-475.927"/>
</g>
<!-- Node33 -->
<g id="node33" class="node"><title>Node33</title>
<polygon fill="white" stroke="#bfbfbf" points="498.116,-168.5 498.116,-187.5 528.116,-187.5 528.116,-168.5 498.116,-168.5"/>
<text text-anchor="middle" x="513.116" y="-175.5" font-family="Helvetica,sans-Serif" font-size="10.00">set</text>
</g>
<!-- Node29&#45;&gt;Node33 -->
<g id="edge43" class="edge"><title>Node29&#45;&gt;Node33</title>
<path fill="none" stroke="midnightblue" d="M2002.89,-524.93C1837.79,-524.282 715.994,-518.47 657.116,-480 555.021,-413.293 523.46,-252.739 515.468,-197.805"/>
<polygon fill="midnightblue" stroke="midnightblue" points="518.918,-197.195 514.104,-187.757 511.982,-198.137 518.918,-197.195"/>
</g>
<!-- Node34 -->
<g id="node34" class="node"><title>Node34</title>
<g id="a_node34"><a xlink:href="default__force_8h.html" target="_top" xlink:title="default_force.h">
<polygon fill="white" stroke="black" points="2300.62,-336.5 2300.62,-355.5 2381.62,-355.5 2381.62,-336.5 2300.62,-336.5"/>
<text text-anchor="middle" x="2341.12" y="-343.5" font-family="Helvetica,sans-Serif" font-size="10.00">default_force.h</text>
</a>
</g>
</g>
<!-- Node29&#45;&gt;Node34 -->
<g id="edge48" class="edge"><title>Node29&#45;&gt;Node34</title>
<path fill="none" stroke="midnightblue" d="M2043.42,-525.831C2085.42,-526.573 2183.41,-523.153 2249.12,-480 2292.8,-451.312 2321.6,-394.027 2334.06,-364.898"/>
<polygon fill="midnightblue" stroke="midnightblue" points="2337.34,-366.125 2337.91,-355.546 2330.87,-363.46 2337.34,-366.125"/>
</g>
<!-- Node35 -->
<g id="node35" class="node"><title>Node35</title>
<g id="a_node35"><a xlink:href="math__util_8h.html" target="_top" xlink:title="math_util.h">
<polygon fill="white" stroke="black" points="2570.62,-224.5 2570.62,-243.5 2635.62,-243.5 2635.62,-224.5 2570.62,-224.5"/>
<text text-anchor="middle" x="2603.12" y="-231.5" font-family="Helvetica,sans-Serif" font-size="10.00">math_util.h</text>
</a>
</g>
</g>
<!-- Node29&#45;&gt;Node35 -->
<g id="edge77" class="edge"><title>Node29&#45;&gt;Node35</title>
<path fill="none" stroke="midnightblue" d="M2043.44,-523.734C2156.41,-516.433 2702.12,-477.615 2702.12,-409 2702.12,-409 2702.12,-409 2702.12,-345 2702.12,-301.183 2658.18,-266.928 2628.85,-248.941"/>
<polygon fill="midnightblue" stroke="midnightblue" points="2630.3,-245.738 2619.91,-243.682 2626.75,-251.77 2630.3,-245.738"/>
</g>
<!-- Node39 -->
<g id="node39" class="node"><title>Node39</title>
<g id="a_node39"><a xlink:href="cell__division__event_8h.html" target="_top" xlink:title="event/cell_division\l_event.h">
<polygon fill="white" stroke="black" points="436.616,-393 436.616,-423 533.616,-423 533.616,-393 436.616,-393"/>
<text text-anchor="start" x="444.616" y="-411" font-family="Helvetica,sans-Serif" font-size="10.00">event/cell_division</text>
<text text-anchor="middle" x="485.116" y="-400" font-family="Helvetica,sans-Serif" font-size="10.00">_event.h</text>
</a>
</g>
</g>
<!-- Node29&#45;&gt;Node39 -->
<g id="edge68" class="edge"><title>Node29&#45;&gt;Node39</title>
<path fill="none" stroke="midnightblue" d="M2002.94,-524.884C1841.58,-523.884 763.396,-515.891 624.116,-480 583.566,-469.551 541.322,-445.846 514.205,-428.696"/>
<polygon fill="midnightblue" stroke="midnightblue" points="515.915,-425.634 505.613,-423.16 512.124,-431.518 515.915,-425.634"/>
</g>
<!-- Node40 -->
<g id="node40" class="node"><title>Node40</title>
<g id="a_node40"><a xlink:href="inline__vector_8h.html" target="_top" xlink:title="inline_vector.h">
<polygon fill="white" stroke="black" points="2168.12,-224.5 2168.12,-243.5 2248.12,-243.5 2248.12,-224.5 2168.12,-224.5"/>
<text text-anchor="middle" x="2208.12" y="-231.5" font-family="Helvetica,sans-Serif" font-size="10.00">inline_vector.h</text>
</a>
</g>
</g>
<!-- Node29&#45;&gt;Node40 -->
<g id="edge71" class="edge"><title>Node29&#45;&gt;Node40</title>
<path fill="none" stroke="midnightblue" d="M2043.38,-523.388C2123.01,-516.506 2410.12,-486.33 2410.12,-409 2410.12,-409 2410.12,-409 2410.12,-345 2410.12,-276.109 2318.38,-250.114 2258.55,-240.486"/>
<polygon fill="midnightblue" stroke="midnightblue" points="2258.92,-237.002 2248.51,-238.974 2257.88,-243.924 2258.92,-237.002"/>
</g>
<!-- Node42 -->
<g id="node42" class="node"><title>Node42</title>
<g id="a_node42"><a xlink:href="param_8h.html" target="_top" xlink:title="param.h">
<polygon fill="white" stroke="black" points="946.116,-224.5 946.116,-243.5 998.116,-243.5 998.116,-224.5 946.116,-224.5"/>
<text text-anchor="middle" x="972.116" y="-231.5" font-family="Helvetica,sans-Serif" font-size="10.00">param.h</text>
</a>
</g>
</g>
<!-- Node29&#45;&gt;Node42 -->
<g id="edge78" class="edge"><title>Node29&#45;&gt;Node42</title>
<path fill="none" stroke="midnightblue" d="M2002.71,-524.778C1864.07,-523.183 1064.85,-512.594 1026.12,-480 957.909,-422.61 964.245,-300.4 969.53,-253.687"/>
<polygon fill="midnightblue" stroke="midnightblue" points="973.033,-253.88 970.805,-243.523 966.088,-253.009 973.033,-253.88"/>
</g>
<!-- Node45 -->
<g id="node45" class="node"><title>Node45</title>
<g id="a_node45"><a xlink:href="simulation__object_8h.html" target="_top" xlink:title="simulation_object.h">
<polygon fill="white" stroke="black" points="1035.62,-460.5 1035.62,-479.5 1136.62,-479.5 1136.62,-460.5 1035.62,-460.5"/>
<text text-anchor="middle" x="1086.12" y="-467.5" font-family="Helvetica,sans-Serif" font-size="10.00">simulation_object.h</text>
</a>
</g>
</g>
<!-- Node29&#45;&gt;Node45 -->
<g id="edge87" class="edge"><title>Node29&#45;&gt;Node45</title>
<path fill="none" stroke="midnightblue" d="M2003.11,-524.604C1907.88,-522.585 1491.05,-512.245 1151.12,-480 1149.81,-479.876 1148.49,-479.745 1147.15,-479.607"/>
<polygon fill="midnightblue" stroke="midnightblue" points="1147.14,-476.084 1136.81,-478.448 1146.36,-483.04 1147.14,-476.084"/>
</g>
<!-- Node46 -->
<g id="node46" class="node"><title>Node46</title>
<g id="a_node46"><a xlink:href="simulation__object__util_8h.html" target="_top" xlink:title="simulation_object_util.h">
<polygon fill="white" stroke="black" points="1507.62,-398.5 1507.62,-417.5 1626.62,-417.5 1626.62,-398.5 1507.62,-398.5"/>
<text text-anchor="middle" x="1567.12" y="-405.5" font-family="Helvetica,sans-Serif" font-size="10.00">simulation_object_util.h</text>
</a>
</g>
</g>
<!-- Node29&#45;&gt;Node46 -->
<g id="edge148" class="edge"><title>Node29&#45;&gt;Node46</title>
<path fill="none" stroke="midnightblue" d="M2002.93,-519.866C1934,-502.33 1706.85,-444.546 1610.71,-420.09"/>
<polygon fill="midnightblue" stroke="midnightblue" points="1611.29,-416.626 1600.74,-417.553 1609.57,-423.41 1611.29,-416.626"/>
</g>
<!-- Node34&#45;&gt;Node3 -->
<g id="edge51" class="edge"><title>Node34&#45;&gt;Node3</title>
<path fill="none" stroke="midnightblue" d="M2300.56,-343.046C2125.73,-334.624 1437.43,-301.468 1261.33,-292.985"/>
<polygon fill="midnightblue" stroke="midnightblue" points="1261.34,-289.482 1251.19,-292.497 1261.01,-296.474 1261.34,-289.482"/>
</g>
<!-- Node34&#45;&gt;Node10 -->
<g id="edge52" class="edge"><title>Node34&#45;&gt;Node10</title>
<path fill="none" stroke="midnightblue" d="M2346.81,-336.41C2354.67,-323.379 2366.74,-298.207 2356.12,-280 2284.83,-157.779 2196.29,-198.454 2058.12,-168 1645.82,-77.1303 1128.01,-67.9279 1000.49,-67.0702"/>
<polygon fill="midnightblue" stroke="midnightblue" points="1000.36,-63.5695 990.342,-67.0146 1000.32,-70.5694 1000.36,-63.5695"/>
</g>
<!-- Node34&#45;&gt;Node14 -->
<g id="edge49" class="edge"><title>Node34&#45;&gt;Node14</title>
<path fill="none" stroke="midnightblue" d="M2343.59,-336.191C2346.87,-322.405 2350.78,-295.69 2337.12,-280 2284.12,-219.126 2235.8,-269.194 2159.12,-244 2139.09,-237.421 2135.8,-231.529 2116.12,-224 2096,-216.306 2042.98,-200.584 2006.19,-189.917"/>
<polygon fill="midnightblue" stroke="midnightblue" points="2006.86,-186.469 1996.29,-187.053 2004.92,-193.193 2006.86,-186.469"/>
</g>
<!-- Node34&#45;&gt;Node23 -->
<g id="edge62" class="edge"><title>Node34&#45;&gt;Node23</title>
<path fill="none" stroke="midnightblue" d="M2334.84,-336.083C2329.47,-328.455 2321.6,-317.264 2315.04,-307.941"/>
<polygon fill="midnightblue" stroke="midnightblue" points="2317.89,-305.915 2309.27,-299.751 2312.17,-309.943 2317.89,-305.915"/>
</g>
<!-- Node34&#45;&gt;Node31 -->
<g id="edge50" class="edge"><title>Node34&#45;&gt;Node31</title>
<path fill="none" stroke="midnightblue" d="M2381.86,-341.508C2449.11,-333.955 2584.93,-310.972 2676.12,-244 2693.7,-231.088 2708.62,-210.806 2717.91,-196.333"/>
<polygon fill="midnightblue" stroke="midnightblue" points="2720.91,-198.146 2723.18,-187.797 2714.95,-194.473 2720.91,-198.146"/>
</g>
<!-- Node34&#45;&gt;Node35 -->
<g id="edge53" class="edge"><title>Node34&#45;&gt;Node35</title>
<path fill="none" stroke="midnightblue" d="M2381.76,-336.887C2414.57,-329.544 2461.47,-317.231 2500.12,-300 2531.1,-286.187 2563.7,-264.159 2583.72,-249.638"/>
<polygon fill="midnightblue" stroke="midnightblue" points="2586.01,-252.299 2591.99,-243.55 2581.86,-246.663 2586.01,-252.299"/>
</g>
<!-- Node37 -->
<g id="node37" class="node"><title>Node37</title>
<g id="a_node37"><a xlink:href="random_8h.html" target="_top" xlink:title="random.h">
<polygon fill="white" stroke="red" points="2523.62,-168.5 2523.62,-187.5 2580.62,-187.5 2580.62,-168.5 2523.62,-168.5"/>
<text text-anchor="middle" x="2552.12" y="-175.5" font-family="Helvetica,sans-Serif" font-size="10.00">random.h</text>
</a>
</g>
</g>
<!-- Node34&#45;&gt;Node37 -->
<g id="edge61" class="edge"><title>Node34&#45;&gt;Node37</title>
<path fill="none" stroke="midnightblue" d="M2380.72,-336.438C2405.83,-329.594 2438,-318.091 2462.12,-300 2500.02,-271.565 2529.31,-222.862 2543.22,-196.759"/>
<polygon fill="midnightblue" stroke="midnightblue" points="2546.44,-198.148 2547.93,-187.658 2540.23,-194.929 2546.44,-198.148"/>
</g>
<!-- Node38 -->
<g id="node38" class="node"><title>Node38</title>
<g id="a_node38"><a xlink:href="simulation_8h.html" target="_top" xlink:title="simulation.h">
<polygon fill="white" stroke="black" points="1709.62,-280.5 1709.62,-299.5 1778.62,-299.5 1778.62,-280.5 1709.62,-280.5"/>
<text text-anchor="middle" x="1744.12" y="-287.5" font-family="Helvetica,sans-Serif" font-size="10.00">simulation.h</text>
</a>
</g>
</g>
<!-- Node34&#45;&gt;Node38 -->
<g id="edge63" class="edge"><title>Node34&#45;&gt;Node38</title>
<path fill="none" stroke="midnightblue" d="M2300.36,-341.748C2213.26,-334.729 2002.52,-317.385 1826.12,-300 1814.1,-298.816 1801.11,-297.436 1789.08,-296.117"/>
<polygon fill="midnightblue" stroke="midnightblue" points="1789.13,-292.601 1778.81,-294.98 1788.36,-299.559 1789.13,-292.601"/>
</g>
<!-- Node35&#45;&gt;Node7 -->
<g id="edge57" class="edge"><title>Node35&#45;&gt;Node7</title>
<path fill="none" stroke="midnightblue" d="M2570.58,-230.883C2437.79,-222.244 1937.69,-189.707 1805.39,-181.1"/>
<polygon fill="midnightblue" stroke="midnightblue" points="1805.32,-177.588 1795.12,-180.431 1804.87,-184.573 1805.32,-177.588"/>
</g>
<!-- Node35&#45;&gt;Node30 -->
<g id="edge54" class="edge"><title>Node35&#45;&gt;Node30</title>
<path fill="none" stroke="midnightblue" d="M2619.72,-224.484C2640.74,-212.539 2672.56,-189.819 2658.12,-168 2641.22,-142.472 2606.61,-131.383 2581.53,-126.593"/>
<polygon fill="midnightblue" stroke="midnightblue" points="2581.88,-123.103 2571.44,-124.902 2580.72,-130.007 2581.88,-123.103"/>
</g>
<!-- Node35&#45;&gt;Node31 -->
<g id="edge55" class="edge"><title>Node35&#45;&gt;Node31</title>
<path fill="none" stroke="midnightblue" d="M2622.92,-224.444C2643.4,-215.596 2675.6,-201.687 2698.98,-191.586"/>
<polygon fill="midnightblue" stroke="midnightblue" points="2700.61,-194.695 2708.4,-187.516 2697.83,-188.269 2700.61,-194.695"/>
</g>
<!-- Node36 -->
<g id="node36" class="node"><title>Node36</title>
<polygon fill="white" stroke="#bfbfbf" points="2598.62,-168.5 2598.62,-187.5 2649.62,-187.5 2649.62,-168.5 2598.62,-168.5"/>
<text text-anchor="middle" x="2624.12" y="-175.5" font-family="Helvetica,sans-Serif" font-size="10.00">numeric</text>
</g>
<!-- Node35&#45;&gt;Node36 -->
<g id="edge56" class="edge"><title>Node35&#45;&gt;Node36</title>
<path fill="none" stroke="midnightblue" d="M2606.58,-224.083C2609.43,-216.77 2613.55,-206.181 2617.08,-197.103"/>
<polygon fill="midnightblue" stroke="midnightblue" points="2620.35,-198.34 2620.71,-187.751 2613.83,-195.803 2620.35,-198.34"/>
</g>
<!-- Node35&#45;&gt;Node37 -->
<g id="edge58" class="edge"><title>Node35&#45;&gt;Node37</title>
<path fill="none" stroke="midnightblue" d="M2594.69,-224.083C2587.27,-216.22 2576.26,-204.569 2567.3,-195.081"/>
<polygon fill="midnightblue" stroke="midnightblue" points="2569.79,-192.618 2560.38,-187.751 2564.7,-197.424 2569.79,-192.618"/>
</g>
<!-- Node37&#45;&gt;Node9 -->
<g id="edge60" class="edge"><title>Node37&#45;&gt;Node9</title>
<path fill="none" stroke="midnightblue" d="M2523.3,-172.983C2509.12,-171.161 2491.75,-169.158 2476.12,-168 1897.14,-125.117 1189.58,-122.793 1015.97,-122.911"/>
<polygon fill="midnightblue" stroke="midnightblue" points="1015.77,-119.411 1005.77,-122.921 1015.77,-126.411 1015.77,-119.411"/>
</g>
<!-- Node37&#45;&gt;Node30 -->
<g id="edge59" class="edge"><title>Node37&#45;&gt;Node30</title>
<path fill="none" stroke="midnightblue" d="M2552.12,-168.083C2552.12,-161.006 2552.12,-150.861 2552.12,-141.986"/>
<polygon fill="midnightblue" stroke="midnightblue" points="2555.62,-141.751 2552.12,-131.751 2548.62,-141.751 2555.62,-141.751"/>
</g>
<!-- Node38&#45;&gt;Node7 -->
<g id="edge65" class="edge"><title>Node38&#45;&gt;Node7</title>
<path fill="none" stroke="midnightblue" d="M1743.03,-280.371C1741.73,-267.713 1740.39,-243.499 1746.12,-224 1749.06,-213.965 1754.8,-203.881 1760.22,-195.81"/>
<polygon fill="midnightblue" stroke="midnightblue" points="1763.08,-197.831 1766.06,-187.662 1757.39,-193.755 1763.08,-197.831"/>
</g>
<!-- Node38&#45;&gt;Node9 -->
<g id="edge67" class="edge"><title>Node38&#45;&gt;Node9</title>
<path fill="none" stroke="midnightblue" d="M1732.58,-280.255C1701.25,-257.064 1611.19,-193.994 1525.12,-168 1429.76,-139.204 1126.07,-127.476 1016.24,-124.105"/>
<polygon fill="midnightblue" stroke="midnightblue" points="1016.03,-120.597 1005.93,-123.796 1015.82,-127.594 1016.03,-120.597"/>
</g>
<!-- Node38&#45;&gt;Node12 -->
<g id="edge64" class="edge"><title>Node38&#45;&gt;Node12</title>
<path fill="none" stroke="midnightblue" d="M1778.81,-280.667C1843.35,-264.387 1977.72,-226.564 2004.12,-188 2046.04,-126.733 1949.05,-54.7426 1902.4,-24.9693"/>
<polygon fill="midnightblue" stroke="midnightblue" points="1904.13,-21.9248 1893.8,-19.5932 1900.42,-27.861 1904.13,-21.9248"/>
</g>
<!-- Node38&#45;&gt;Node37 -->
<g id="edge66" class="edge"><title>Node38&#45;&gt;Node37</title>
<path fill="none" stroke="midnightblue" d="M1778.81,-284.991C1793.41,-283.356 1810.58,-281.501 1826.12,-280 2017.45,-261.513 2067.05,-272.745 2257.12,-244 2350.11,-229.935 2457.58,-203.677 2513.61,-189.212"/>
<polygon fill="midnightblue" stroke="midnightblue" points="2514.66,-192.556 2523.46,-186.654 2512.9,-185.781 2514.66,-192.556"/>
</g>
<!-- Node39&#45;&gt;Node19 -->
<g id="edge69" class="edge"><title>Node39&#45;&gt;Node19</title>
<path fill="none" stroke="midnightblue" d="M452.995,-392.933C429.985,-382.855 399.259,-369.399 377.017,-359.657"/>
<polygon fill="midnightblue" stroke="midnightblue" points="378.317,-356.406 367.753,-355.6 375.508,-362.818 378.317,-356.406"/>
</g>
<!-- Node40&#45;&gt;Node7 -->
<g id="edge75" class="edge"><title>Node40&#45;&gt;Node7</title>
<path fill="none" stroke="midnightblue" d="M2167.97,-228.017C2082.4,-217.394 1883.48,-192.701 1805.4,-183.008"/>
<polygon fill="midnightblue" stroke="midnightblue" points="1805.57,-179.501 1795.21,-181.743 1804.7,-186.448 1805.57,-179.501"/>
</g>
<!-- Node40&#45;&gt;Node9 -->
<g id="edge76" class="edge"><title>Node40&#45;&gt;Node9</title>
<path fill="none" stroke="midnightblue" d="M2187.43,-224.386C2151.1,-209.715 2073.1,-180.275 2004.12,-168 1809.21,-133.318 1181.26,-124.959 1016.18,-123.34"/>
<polygon fill="midnightblue" stroke="midnightblue" points="1016.02,-119.838 1005.99,-123.243 1015.95,-126.838 1016.02,-119.838"/>
</g>
<!-- Node40&#45;&gt;Node14 -->
<g id="edge72" class="edge"><title>Node40&#45;&gt;Node14</title>
<path fill="none" stroke="midnightblue" d="M2170.09,-224.444C2125.21,-214.346 2051.02,-197.654 2006.14,-187.556"/>
<polygon fill="midnightblue" stroke="midnightblue" points="2006.74,-184.104 1996.22,-185.323 2005.21,-190.933 2006.74,-184.104"/>
</g>
<!-- Node40&#45;&gt;Node30 -->
<g id="edge73" class="edge"><title>Node40&#45;&gt;Node30</title>
<path fill="none" stroke="midnightblue" d="M2233.7,-224.437C2271.38,-211.86 2344.06,-187.748 2406.12,-168 2446.59,-155.121 2493.55,-140.748 2523.05,-131.789"/>
<polygon fill="midnightblue" stroke="midnightblue" points="2524.16,-135.109 2532.72,-128.857 2522.13,-128.41 2524.16,-135.109"/>
</g>
<!-- Node41 -->
<g id="node41" class="node"><title>Node41</title>
<polygon fill="white" stroke="#bfbfbf" points="2415.12,-168.5 2415.12,-187.5 2467.12,-187.5 2467.12,-168.5 2415.12,-168.5"/>
<text text-anchor="middle" x="2441.12" y="-175.5" font-family="Helvetica,sans-Serif" font-size="10.00">sstream</text>
</g>
<!-- Node40&#45;&gt;Node41 -->
<g id="edge74" class="edge"><title>Node40&#45;&gt;Node41</title>
<path fill="none" stroke="midnightblue" d="M2245.04,-224.444C2288.87,-214.284 2361.5,-197.451 2404.99,-187.373"/>
<polygon fill="midnightblue" stroke="midnightblue" points="2405.9,-190.754 2414.85,-185.086 2404.32,-183.935 2405.9,-190.754"/>
</g>
<!-- Node42&#45;&gt;Node7 -->
<g id="edge83" class="edge"><title>Node42&#45;&gt;Node7</title>
<path fill="none" stroke="midnightblue" d="M998.311,-231.234C1117.64,-223.19 1609.57,-190.026 1740.81,-181.178"/>
<polygon fill="midnightblue" stroke="midnightblue" points="1741.26,-184.655 1751.01,-180.491 1740.79,-177.671 1741.26,-184.655"/>
</g>
<!-- Node42&#45;&gt;Node9 -->
<g id="edge85" class="edge"><title>Node42&#45;&gt;Node9</title>
<path fill="none" stroke="midnightblue" d="M972.43,-224.368C973.075,-206.617 974.564,-165.666 975.44,-141.597"/>
<polygon fill="midnightblue" stroke="midnightblue" points="978.938,-141.712 975.803,-131.591 971.942,-141.458 978.938,-141.712"/>
</g>
<!-- Node42&#45;&gt;Node12 -->
<g id="edge81" class="edge"><title>Node42&#45;&gt;Node12</title>
<path fill="none" stroke="midnightblue" d="M998.422,-227.001C1035.3,-218.548 1104.42,-202.536 1163.12,-188 1197.44,-179.501 1205.84,-176.663 1240.12,-168 1473.94,-108.912 1756.67,-40.5086 1848.64,-18.3378"/>
<polygon fill="midnightblue" stroke="midnightblue" points="1849.5,-21.7291 1858.4,-15.9836 1847.86,-14.924 1849.5,-21.7291"/>
</g>
<!-- Node42&#45;&gt;Node17 -->
<g id="edge82" class="edge"><title>Node42&#45;&gt;Node17</title>
<path fill="none" stroke="midnightblue" d="M998.221,-228.581C1050.8,-219.68 1170.32,-199.449 1239.33,-187.767"/>
<polygon fill="midnightblue" stroke="midnightblue" points="1240.27,-191.158 1249.54,-186.038 1239.1,-184.256 1240.27,-191.158"/>
</g>
<!-- Node42&#45;&gt;Node33 -->
<g id="edge80" class="edge"><title>Node42&#45;&gt;Node33</title>
<path fill="none" stroke="midnightblue" d="M945.992,-232.612C879.201,-231.135 696.868,-224.053 538.109,-187.638"/>
<polygon fill="midnightblue" stroke="midnightblue" points="538.704,-184.183 528.169,-185.312 537.109,-190.998 538.704,-184.183"/>
</g>
<!-- Node43 -->
<g id="node43" class="node"><title>Node43</title>
<polygon fill="white" stroke="#bfbfbf" points="1099.12,-168.5 1099.12,-187.5 1155.12,-187.5 1155.12,-168.5 1099.12,-168.5"/>
<text text-anchor="middle" x="1127.12" y="-175.5" font-family="Helvetica,sans-Serif" font-size="10.00">cinttypes</text>
</g>
<!-- Node42&#45;&gt;Node43 -->
<g id="edge79" class="edge"><title>Node42&#45;&gt;Node43</title>
<path fill="none" stroke="midnightblue" d="M996.676,-224.444C1022.64,-215.399 1063.78,-201.064 1092.91,-190.916"/>
<polygon fill="midnightblue" stroke="midnightblue" points="1094.38,-194.112 1102.67,-187.516 1092.08,-187.501 1094.38,-194.112"/>
</g>
<!-- Node44 -->
<g id="node44" class="node"><title>Node44</title>
<polygon fill="white" stroke="#bfbfbf" points="984.616,-168.5 984.616,-187.5 1081.62,-187.5 1081.62,-168.5 984.616,-168.5"/>
<text text-anchor="middle" x="1033.12" y="-175.5" font-family="Helvetica,sans-Serif" font-size="10.00">cpptoml/cpptoml.h</text>
</g>
<!-- Node42&#45;&gt;Node44 -->
<g id="edge84" class="edge"><title>Node42&#45;&gt;Node44</title>
<path fill="none" stroke="midnightblue" d="M981.917,-224.324C990.934,-216.341 1004.52,-204.313 1015.43,-194.653"/>
<polygon fill="midnightblue" stroke="midnightblue" points="1017.97,-197.083 1023.14,-187.834 1013.33,-191.842 1017.97,-197.083"/>
</g>
<!-- Node45&#45;&gt;Node3 -->
<g id="edge97" class="edge"><title>Node45&#45;&gt;Node3</title>
<path fill="none" stroke="midnightblue" d="M1088.57,-460.301C1095.33,-437.617 1116.06,-375.672 1151.12,-336 1162.58,-323.026 1178.63,-312.259 1192.37,-304.514"/>
<polygon fill="midnightblue" stroke="midnightblue" points="1194.28,-307.463 1201.43,-299.644 1190.96,-301.298 1194.28,-307.463"/>
</g>
<!-- Node45&#45;&gt;Node7 -->
<g id="edge95" class="edge"><title>Node45&#45;&gt;Node7</title>
<path fill="none" stroke="midnightblue" d="M1136.91,-468.054C1309.35,-464.597 1863.21,-451.393 1889.12,-424 1915.99,-395.581 1908.75,-369.828 1889.12,-336 1872.93,-308.107 1847.68,-323.983 1826.12,-300 1798.87,-269.692 1783.91,-223.157 1777.31,-197.527"/>
<polygon fill="midnightblue" stroke="midnightblue" points="1780.67,-196.537 1774.92,-187.643 1773.87,-198.185 1780.67,-196.537"/>
</g>
<!-- Node45&#45;&gt;Node9 -->
<g id="edge100" class="edge"><title>Node45&#45;&gt;Node9</title>
<path fill="none" stroke="midnightblue" d="M1037.66,-460.429C945.078,-441.068 745.654,-384.209 671.116,-244 616.603,-141.46 842.318,-125.5 936.526,-123.253"/>
<polygon fill="midnightblue" stroke="midnightblue" points="936.617,-126.752 946.545,-123.054 936.478,-119.753 936.617,-126.752"/>
</g>
<!-- Node45&#45;&gt;Node10 -->
<g id="edge96" class="edge"><title>Node45&#45;&gt;Node10</title>
<path fill="none" stroke="midnightblue" d="M1035.41,-466.192C945.631,-460.701 762.584,-447.026 703.116,-424 552.608,-365.723 485.747,-338.37 427.116,-188 388.218,-88.2392 823.25,-70.5332 941.762,-67.5674"/>
<polygon fill="midnightblue" stroke="midnightblue" points="941.996,-71.063 951.911,-67.3307 941.832,-64.0649 941.996,-71.063"/>
</g>
<!-- Node45&#45;&gt;Node12 -->
<g id="edge92" class="edge"><title>Node45&#45;&gt;Node12</title>
<path fill="none" stroke="midnightblue" d="M1136.71,-467.349C1262.71,-462.901 1587.93,-449.264 1693.12,-424 1769.04,-405.764 1811.89,-421.028 1855.12,-356 1860.04,-348.598 1860.64,-342.96 1855.12,-336 1811.13,-280.623 1744.11,-355.377 1700.12,-300 1694.59,-293.04 1698.53,-288.746 1700.12,-280 1709.6,-227.69 1714.87,-213.649 1742.12,-168 1776.71,-110.043 1833.65,-53.1693 1861.99,-26.587"/>
<polygon fill="midnightblue" stroke="midnightblue" points="1864.54,-28.9936 1869.5,-19.6286 1859.78,-23.86 1864.54,-28.9936"/>
</g>
<!-- Node45&#45;&gt;Node14 -->
<g id="edge88" class="edge"><title>Node45&#45;&gt;Node14</title>
<path fill="none" stroke="midnightblue" d="M1136.66,-468.425C1292.37,-466.309 1763.19,-457.26 1912.12,-424 2001.04,-404.14 2102.12,-438.115 2102.12,-347 2102.12,-347 2102.12,-347 2102.12,-289 2102.12,-238.394 2044.31,-206.812 2004.64,-191.095"/>
<polygon fill="midnightblue" stroke="midnightblue" points="2005.82,-187.802 1995.23,-187.529 2003.34,-194.347 2005.82,-187.802"/>
</g>
<!-- Node45&#45;&gt;Node16 -->
<g id="edge89" class="edge"><title>Node45&#45;&gt;Node16</title>
<path fill="none" stroke="midnightblue" d="M1035.58,-469.909C970.788,-469.308 856.166,-462.204 767.116,-424 635.898,-367.706 513.396,-240.527 472.499,-195.324"/>
<polygon fill="midnightblue" stroke="midnightblue" points="474.905,-192.764 465.628,-187.646 469.689,-197.432 474.905,-192.764"/>
</g>
<!-- Node45&#45;&gt;Node17 -->
<g id="edge94" class="edge"><title>Node45&#45;&gt;Node17</title>
<path fill="none" stroke="midnightblue" d="M1085.58,-460.38C1083.92,-425.442 1082.53,-292.954 1151.12,-224 1174.39,-200.602 1209.85,-189.36 1239.26,-183.963"/>
<polygon fill="midnightblue" stroke="midnightblue" points="1240.09,-187.374 1249.38,-182.288 1238.94,-180.468 1240.09,-187.374"/>
</g>
<!-- Node45&#45;&gt;Node18 -->
<g id="edge98" class="edge"><title>Node45&#45;&gt;Node18</title>
<path fill="none" stroke="midnightblue" d="M1035.57,-466.892C924.998,-461.986 653.444,-448.332 427.116,-424 414.408,-422.634 400.852,-420.863 387.912,-419.019"/>
<polygon fill="midnightblue" stroke="midnightblue" points="388.093,-415.508 377.693,-417.531 387.084,-422.435 388.093,-415.508"/>
</g>
<!-- Node45&#45;&gt;Node19 -->
<g id="edge99" class="edge"><title>Node45&#45;&gt;Node19</title>
<path fill="none" stroke="midnightblue" d="M1035.28,-467.847C925.046,-464.796 667.401,-454.529 586.116,-424 563.479,-415.498 564.111,-402.044 542.116,-392 495.101,-370.531 436.843,-358.791 396.504,-352.738"/>
<polygon fill="midnightblue" stroke="midnightblue" points="396.793,-349.244 386.396,-351.284 395.796,-356.172 396.793,-349.244"/>
</g>
<!-- Node45&#45;&gt;Node21 -->
<g id="edge147" class="edge"><title>Node45&#45;&gt;Node21</title>
<path fill="none" stroke="midnightblue" d="M1137.01,-466.909C1254.45,-461.747 1541.46,-447.119 1635.12,-424 1693.66,-409.55 1757.55,-378.402 1791.56,-360.465"/>
<polygon fill="midnightblue" stroke="midnightblue" points="1793.56,-363.368 1800.73,-355.568 1790.26,-357.194 1793.56,-363.368"/>
</g>
<!-- Node45&#45;&gt;Node22 -->
<g id="edge93" class="edge"><title>Node45&#45;&gt;Node22</title>
<path fill="none" stroke="midnightblue" d="M1136.8,-468.121C1318.49,-464.752 1930.76,-451.458 2014.12,-424 2045.71,-413.592 2256.39,-274.607 2281.12,-244 2306.3,-212.827 2320.07,-166.986 2326.18,-141.615"/>
<polygon fill="midnightblue" stroke="midnightblue" points="2329.61,-142.336 2328.4,-131.81 2322.78,-140.79 2329.61,-142.336"/>
</g>
<!-- Node45&#45;&gt;Node33 -->
<g id="edge90" class="edge"><title>Node45&#45;&gt;Node33</title>
<path fill="none" stroke="midnightblue" d="M1035.53,-468.268C979.181,-465.751 886.506,-456.46 814.116,-424 781.007,-409.154 590.506,-245.83 530.923,-194.407"/>
<polygon fill="midnightblue" stroke="midnightblue" points="532.972,-191.552 523.117,-187.663 528.396,-196.849 532.972,-191.552"/>
</g>
<!-- Node45&#45;&gt;Node41 -->
<g id="edge91" class="edge"><title>Node45&#45;&gt;Node41</title>
<path fill="none" stroke="midnightblue" d="M1136.84,-468.464C1321.1,-466.267 1954.57,-456.473 2154.12,-424 2299.77,-400.297 2377.53,-420.921 2462.12,-300 2482.01,-271.556 2492.25,-256.523 2480.12,-224 2475.94,-212.812 2467.6,-202.56 2459.69,-194.676"/>
<polygon fill="midnightblue" stroke="midnightblue" points="2461.82,-191.872 2452.11,-187.635 2457.05,-197.003 2461.82,-191.872"/>
</g>
<!-- Node45&#45;&gt;Node46 -->
<g id="edge101" class="edge"><title>Node45&#45;&gt;Node46</title>
<path fill="none" stroke="midnightblue" d="M1136.68,-462.692C1223.11,-451.911 1399.38,-429.923 1497.42,-417.694"/>
<polygon fill="midnightblue" stroke="midnightblue" points="1498.03,-421.145 1507.52,-416.434 1497.17,-414.198 1498.03,-421.145"/>
</g>
<!-- Node46&#45;&gt;Node3 -->
<g id="edge111" class="edge"><title>Node46&#45;&gt;Node3</title>
<path fill="none" stroke="midnightblue" d="M1507.34,-402.41C1431.09,-395.628 1304.38,-380.961 1265.12,-356 1247.61,-344.872 1235.09,-324.23 1227.77,-309.186"/>
<polygon fill="midnightblue" stroke="midnightblue" points="1230.86,-307.511 1223.54,-299.85 1224.48,-310.403 1230.86,-307.511"/>
</g>
<!-- Node46&#45;&gt;Node4 -->
<g id="edge104" class="edge"><title>Node46&#45;&gt;Node4</title>
<path fill="none" stroke="midnightblue" d="M1507.35,-404.279C1436.33,-399.647 1324.15,-387.437 1298.12,-356 1255.52,-304.568 1327.2,-227.35 1362.38,-194.588"/>
<polygon fill="midnightblue" stroke="midnightblue" points="1365.02,-196.92 1370.06,-187.602 1360.31,-191.742 1365.02,-196.92"/>
</g>
<!-- Node46&#45;&gt;Node5 -->
<g id="edge106" class="edge"><title>Node46&#45;&gt;Node5</title>
<path fill="none" stroke="midnightblue" d="M1568.65,-398.344C1572.11,-375.838 1578.06,-314.823 1548.12,-280 1520.97,-248.423 1472.2,-238.652 1438.55,-235.817"/>
<polygon fill="midnightblue" stroke="midnightblue" points="1438.41,-232.3 1428.2,-235.122 1437.94,-239.285 1438.41,-232.3"/>
</g>
<!-- Node46&#45;&gt;Node7 -->
<g id="edge110" class="edge"><title>Node46&#45;&gt;Node7</title>
<path fill="none" stroke="midnightblue" d="M1574.94,-398.341C1605.59,-364.412 1717.83,-240.187 1758.38,-195.311"/>
<polygon fill="midnightblue" stroke="midnightblue" points="1761.18,-197.435 1765.28,-187.668 1755.98,-192.742 1761.18,-197.435"/>
</g>
<!-- Node46&#45;&gt;Node8 -->
<g id="edge123" class="edge"><title>Node46&#45;&gt;Node8</title>
<path fill="none" stroke="midnightblue" d="M1507.41,-402.926C1348.7,-391.444 919.647,-355.966 790.116,-300 763.9,-288.673 739.117,-266.48 724.029,-251.203"/>
<polygon fill="midnightblue" stroke="midnightblue" points="726.513,-248.736 717.067,-243.938 721.46,-253.58 726.513,-248.736"/>
</g>
<!-- Node46&#45;&gt;Node9 -->
<g id="edge139" class="edge"><title>Node46&#45;&gt;Node9</title>
<path fill="none" stroke="midnightblue" d="M1507.56,-401.844C1426.71,-394.14 1287.05,-378.128 1241.12,-356 1183.59,-328.285 1166.23,-306.044 1151.12,-244 1145.09,-219.269 1159.04,-213.125 1163.12,-188 1164.54,-179.226 1168.62,-174.982 1163.12,-168 1145.12,-145.166 1065.1,-132.576 1015.75,-126.858"/>
<polygon fill="midnightblue" stroke="midnightblue" points="1016.05,-123.369 1005.72,-125.741 1015.27,-130.326 1016.05,-123.369"/>
</g>
<!-- Node46&#45;&gt;Node12 -->
<g id="edge108" class="edge"><title>Node46&#45;&gt;Node12</title>
<path fill="none" stroke="midnightblue" d="M1626.71,-405.433C1799.47,-400.597 2298.46,-384.492 2459.12,-356 2615.34,-328.293 2735.49,-341.894 2774.12,-188 2818.12,-12.6695 2072.14,-9.2829 1909.92,-10.6082"/>
<polygon fill="midnightblue" stroke="midnightblue" points="1909.65,-7.11053 1899.68,-10.705 1909.72,-14.1102 1909.65,-7.11053"/>
</g>
<!-- Node46&#45;&gt;Node14 -->
<g id="edge102" class="edge"><title>Node46&#45;&gt;Node14</title>
<path fill="none" stroke="midnightblue" d="M1599.69,-398.419C1633.49,-389.186 1687.66,-373.458 1733.12,-356 1752.79,-348.443 1756.21,-342.923 1776.12,-336 1841.28,-313.337 1875.39,-345.649 1927.12,-300 1956.96,-273.665 1965.11,-224.797 1967.32,-197.925"/>
<polygon fill="midnightblue" stroke="midnightblue" points="1970.83,-197.782 1967.96,-187.585 1963.84,-197.349 1970.83,-197.782"/>
</g>
<!-- Node46&#45;&gt;Node15 -->
<g id="edge103" class="edge"><title>Node46&#45;&gt;Node15</title>
<path fill="none" stroke="midnightblue" d="M1571.25,-398.218C1575.7,-388.246 1582.48,-371.363 1585.12,-356 1586.62,-347.239 1586.42,-344.793 1585.12,-336 1581.3,-310.271 1579.89,-303.191 1568.12,-280 1551.5,-247.276 1524.15,-214.201 1507.19,-195.201"/>
<polygon fill="midnightblue" stroke="midnightblue" points="1509.73,-192.786 1500.41,-187.738 1504.55,-197.493 1509.73,-192.786"/>
</g>
<!-- Node46&#45;&gt;Node20 -->
<g id="edge105" class="edge"><title>Node46&#45;&gt;Node20</title>
<path fill="none" stroke="midnightblue" d="M1524.98,-398.456C1501.55,-391.323 1474.34,-378.536 1460.12,-356 1447.72,-336.353 1471,-317.057 1491.88,-304.659"/>
<polygon fill="midnightblue" stroke="midnightblue" points="1493.84,-307.569 1500.86,-299.63 1490.42,-301.461 1493.84,-307.569"/>
</g>
<!-- Node46&#45;&gt;Node21 -->
<g id="edge146" class="edge"><title>Node46&#45;&gt;Node21</title>
<path fill="none" stroke="midnightblue" d="M1602.53,-398.467C1648.03,-387.503 1726.87,-368.505 1774.98,-356.911"/>
<polygon fill="midnightblue" stroke="midnightblue" points="1775.86,-360.301 1784.76,-354.555 1774.22,-353.496 1775.86,-360.301"/>
</g>
<!-- Node46&#45;&gt;Node22 -->
<g id="edge109" class="edge"><title>Node46&#45;&gt;Node22</title>
<path fill="none" stroke="midnightblue" d="M1626.68,-407.252C1762.83,-406.971 2106.88,-401.393 2390.12,-356 2487.19,-340.442 2513.18,-337.356 2604.12,-300 2682.4,-267.843 2725.38,-266.045 2758.12,-188 2761.55,-179.803 2764.06,-174.606 2758.12,-168 2745.25,-153.707 2476.14,-133.291 2371.36,-125.851"/>
<polygon fill="midnightblue" stroke="midnightblue" points="2371.38,-122.344 2361.16,-125.131 2370.89,-129.327 2371.38,-122.344"/>
</g>
<!-- Node46&#45;&gt;Node33 -->
<g id="edge107" class="edge"><title>Node46&#45;&gt;Node33</title>
<path fill="none" stroke="midnightblue" d="M1507.56,-406.783C1393.97,-405.371 1138.97,-397.391 929.116,-356 848.996,-340.198 829.724,-330.859 754.116,-300 672.108,-266.529 579.687,-216.444 537.034,-192.583"/>
<polygon fill="midnightblue" stroke="midnightblue" points="538.668,-189.486 528.236,-187.637 535.238,-195.588 538.668,-189.486"/>
</g>
<!-- Node46&#45;&gt;Node38 -->
<g id="edge140" class="edge"><title>Node46&#45;&gt;Node38</title>
<path fill="none" stroke="midnightblue" d="M1583.74,-398.392C1602.09,-388.707 1632.31,-372.205 1657.12,-356 1681.45,-340.108 1708.02,-319.79 1725.31,-306.136"/>
<polygon fill="midnightblue" stroke="midnightblue" points="1727.8,-308.628 1733.45,-299.663 1723.44,-303.15 1727.8,-308.628"/>
</g>
<!-- Node47 -->
<g id="node47" class="node"><title>Node47</title>
<g id="a_node47"><a xlink:href="diffusion__grid_8h.html" target="_top" xlink:title="diffusion_grid.h">
<polygon fill="white" stroke="red" points="1835.62,-280.5 1835.62,-299.5 1918.62,-299.5 1918.62,-280.5 1835.62,-280.5"/>
<text text-anchor="middle" x="1877.12" y="-287.5" font-family="Helvetica,sans-Serif" font-size="10.00">diffusion_grid.h</text>
</a>
</g>
</g>
<!-- Node46&#45;&gt;Node47 -->
<g id="edge112" class="edge"><title>Node46&#45;&gt;Node47</title>
<path fill="none" stroke="midnightblue" d="M1587.29,-398.406C1619.84,-384.64 1686.09,-357.057 1743.12,-336 1775.78,-323.94 1813.39,-311.426 1840.44,-302.665"/>
<polygon fill="midnightblue" stroke="midnightblue" points="1841.81,-305.9 1850.26,-299.5 1839.67,-299.238 1841.81,-305.9"/>
</g>
<!-- Node48 -->
<g id="node48" class="node"><title>Node48</title>
<g id="a_node48"><a xlink:href="resource__manager_8h.html" target="_top" xlink:title="resource_manager.h">
<polygon fill="white" stroke="red" points="1307.62,-336.5 1307.62,-355.5 1412.62,-355.5 1412.62,-336.5 1307.62,-336.5"/>
<text text-anchor="middle" x="1360.12" y="-343.5" font-family="Helvetica,sans-Serif" font-size="10.00">resource_manager.h</text>
</a>
</g>
</g>
<!-- Node46&#45;&gt;Node48 -->
<g id="edge124" class="edge"><title>Node46&#45;&gt;Node48</title>
<path fill="none" stroke="midnightblue" d="M1537.46,-398.403C1501.18,-387.889 1439.65,-370.054 1399.45,-358.402"/>
<polygon fill="midnightblue" stroke="midnightblue" points="1400.3,-355.003 1389.72,-355.581 1398.35,-361.726 1400.3,-355.003"/>
</g>
<!-- Node50 -->
<g id="node50" class="node"><title>Node50</title>
<g id="a_node50"><a xlink:href="so__pointer_8h.html" target="_top" xlink:title="so_pointer.h">
<polygon fill="white" stroke="red" points="1469.12,-336.5 1469.12,-355.5 1539.12,-355.5 1539.12,-336.5 1469.12,-336.5"/>
<text text-anchor="middle" x="1504.12" y="-343.5" font-family="Helvetica,sans-Serif" font-size="10.00">so_pointer.h</text>
</a>
</g>
</g>
<!-- Node46&#45;&gt;Node50 -->
<g id="edge141" class="edge"><title>Node46&#45;&gt;Node50</title>
<path fill="none" stroke="midnightblue" d="M1558.09,-398.403C1548.36,-389.136 1532.66,-374.183 1520.69,-362.788"/>
<polygon fill="midnightblue" stroke="midnightblue" points="1522.78,-359.943 1513.13,-355.581 1517.95,-365.012 1522.78,-359.943"/>
</g>
<!-- Node47&#45;&gt;Node7 -->
<g id="edge118" class="edge"><title>Node47&#45;&gt;Node7</title>
<path fill="none" stroke="midnightblue" d="M1865.04,-280.444C1853.41,-271.902 1835.62,-258.055 1822.12,-244 1807.64,-228.932 1793.53,-209.584 1784.21,-195.927"/>
<polygon fill="midnightblue" stroke="midnightblue" points="1787.04,-193.865 1778.56,-187.505 1781.22,-197.761 1787.04,-193.865"/>
</g>
<!-- Node47&#45;&gt;Node9 -->
<g id="edge119" class="edge"><title>Node47&#45;&gt;Node9</title>
<path fill="none" stroke="midnightblue" d="M1873.13,-280.332C1861.23,-254.881 1825.42,-181.315 1803.12,-168 1735.15,-127.432 1172.28,-123.359 1016.14,-123.014"/>
<polygon fill="midnightblue" stroke="midnightblue" points="1016.04,-119.514 1006.04,-122.995 1016.03,-126.514 1016.04,-119.514"/>
</g>
<!-- Node47&#45;&gt;Node10 -->
<g id="edge120" class="edge"><title>Node47&#45;&gt;Node10</title>
<path fill="none" stroke="midnightblue" d="M1876.65,-280.223C1874.89,-256.951 1866.53,-193.701 1827.12,-168 1686.45,-76.2705 1134.48,-67.7508 1000.52,-67.0442"/>
<polygon fill="midnightblue" stroke="midnightblue" points="1000.25,-63.5431 990.235,-67.0015 1000.22,-70.5431 1000.25,-63.5431"/>
</g>
<!-- Node47&#45;&gt;Node11 -->
<g id="edge116" class="edge"><title>Node47&#45;&gt;Node11</title>
<path fill="none" stroke="midnightblue" d="M1835.49,-284.335C1820.28,-282.763 1802.94,-281.125 1787.12,-280 1739.97,-276.647 974.327,-273.142 937.116,-244 913.42,-225.443 918.116,-209.098 918.116,-179 918.116,-179 918.116,-179 918.116,-121 918.116,-88.948 918.116,-51.6426 918.116,-29.7489"/>
<polygon fill="midnightblue" stroke="midnightblue" points="921.616,-29.5577 918.116,-19.5578 914.616,-29.5578 921.616,-29.5577"/>
</g>
<!-- Node47&#45;&gt;Node12 -->
<g id="edge117" class="edge"><title>Node47&#45;&gt;Node12</title>
<path fill="none" stroke="midnightblue" d="M1881.84,-280.456C1891.39,-262.337 1912.12,-218.48 1912.12,-179 1912.12,-179 1912.12,-179 1912.12,-121 1912.12,-87.2454 1897.68,-50.0285 1887.91,-28.6908"/>
<polygon fill="midnightblue" stroke="midnightblue" points="1891.03,-27.0993 1883.57,-19.5762 1884.71,-30.1095 1891.03,-27.0993"/>
</g>
<!-- Node47&#45;&gt;Node14 -->
<g id="edge113" class="edge"><title>Node47&#45;&gt;Node14</title>
<path fill="none" stroke="midnightblue" d="M1887.99,-280.397C1898.44,-271.821 1914.35,-257.948 1926.12,-244 1938.66,-229.126 1950.46,-210.275 1958.33,-196.709"/>
<polygon fill="midnightblue" stroke="midnightblue" points="1961.44,-198.323 1963.33,-187.897 1955.35,-194.869 1961.44,-198.323"/>
</g>
<!-- Node47&#45;&gt;Node30 -->
<g id="edge114" class="edge"><title>Node47&#45;&gt;Node30</title>
<path fill="none" stroke="midnightblue" d="M1918.72,-285.889C1988.91,-280.235 2135.15,-266.712 2257.12,-244 2355.88,-225.608 2386.95,-234.298 2476.12,-188 2500.3,-175.443 2523.39,-153.854 2537.65,-139.026"/>
<polygon fill="midnightblue" stroke="midnightblue" points="2540.33,-141.278 2544.6,-131.584 2535.22,-136.497 2540.33,-141.278"/>
</g>
<!-- Node47&#45;&gt;Node31 -->
<g id="edge115" class="edge"><title>Node47&#45;&gt;Node31</title>
<path fill="none" stroke="midnightblue" d="M1918.81,-287.993C2068.88,-284.173 2576.12,-269.484 2644.12,-244 2671.76,-233.64 2697.68,-210.817 2713.22,-195.171"/>
<polygon fill="midnightblue" stroke="midnightblue" points="2715.95,-197.382 2720.36,-187.747 2710.9,-192.531 2715.95,-197.382"/>
</g>
<!-- Node47&#45;&gt;Node35 -->
<g id="edge121" class="edge"><title>Node47&#45;&gt;Node35</title>
<path fill="none" stroke="midnightblue" d="M1918.76,-285.903C2046.24,-276.421 2430.37,-247.849 2559.92,-238.213"/>
<polygon fill="midnightblue" stroke="midnightblue" points="2560.52,-241.678 2570.23,-237.446 2560,-234.698 2560.52,-241.678"/>
</g>
<!-- Node47&#45;&gt;Node42 -->
<g id="edge122" class="edge"><title>Node47&#45;&gt;Node42</title>
<path fill="none" stroke="midnightblue" d="M1835.48,-284.446C1820.27,-282.886 1802.93,-281.227 1787.12,-280 1632.38,-267.997 1145.76,-243.589 1008.49,-236.792"/>
<polygon fill="midnightblue" stroke="midnightblue" points="1008.65,-233.296 998.487,-236.297 1008.3,-240.287 1008.65,-233.296"/>
</g>
<!-- Node48&#45;&gt;Node3 -->
<g id="edge133" class="edge"><title>Node48&#45;&gt;Node3</title>
<path fill="none" stroke="midnightblue" d="M1337.93,-336.444C1314.69,-327.478 1277.97,-313.314 1251.7,-303.183"/>
<polygon fill="midnightblue" stroke="midnightblue" points="1252.79,-299.85 1242.2,-299.516 1250.27,-306.381 1252.79,-299.85"/>
</g>
<!-- Node48&#45;&gt;Node5 -->
<g id="edge126" class="edge"><title>Node48&#45;&gt;Node5</title>
<path fill="none" stroke="midnightblue" d="M1362.5,-336.468C1366.1,-323.931 1373.31,-299.866 1381.12,-280 1384.66,-270.973 1389.15,-261.19 1393.06,-253.058"/>
<polygon fill="midnightblue" stroke="midnightblue" points="1396.33,-254.341 1397.6,-243.822 1390.05,-251.254 1396.33,-254.341"/>
</g>
<!-- Node48&#45;&gt;Node6 -->
<g id="edge130" class="edge"><title>Node48&#45;&gt;Node6</title>
<path fill="none" stroke="midnightblue" d="M1307.5,-344.573C1205.98,-341.816 978.164,-326.127 809.116,-244 768.757,-224.393 747.194,-227.061 725.116,-188 717.212,-174.017 717.163,-155.515 718.681,-141.827"/>
<polygon fill="midnightblue" stroke="midnightblue" points="722.183,-142.072 720.187,-131.667 715.258,-141.046 722.183,-142.072"/>
</g>
<!-- Node48&#45;&gt;Node7 -->
<g id="edge131" class="edge"><title>Node48&#45;&gt;Node7</title>
<path fill="none" stroke="midnightblue" d="M1376.31,-336.324C1400.69,-323.397 1448.41,-298.609 1490.12,-280 1552.07,-252.359 1568.21,-246.77 1632.12,-224 1669.19,-210.788 1712.39,-197.275 1741.1,-188.552"/>
<polygon fill="midnightblue" stroke="midnightblue" points="1742.42,-191.808 1750.98,-185.564 1740.4,-185.107 1742.42,-191.808"/>
</g>
<!-- Node48&#45;&gt;Node9 -->
<g id="edge132" class="edge"><title>Node48&#45;&gt;Node9</title>
<path fill="none" stroke="midnightblue" d="M1307.42,-340.76C1202.26,-331.091 972.377,-303.491 925.116,-244 917.326,-234.194 913.216,-201.843 929.116,-168 934.763,-155.98 945.136,-145.51 954.702,-137.701"/>
<polygon fill="midnightblue" stroke="midnightblue" points="956.935,-140.399 962.763,-131.551 952.689,-134.834 956.935,-140.399"/>
</g>
<!-- Node48&#45;&gt;Node12 -->
<g id="edge127" class="edge"><title>Node48&#45;&gt;Node12</title>
<path fill="none" stroke="midnightblue" d="M1371.53,-336.281C1391.57,-321.014 1432.33,-290.103 1447.12,-280 1599.05,-176.213 1789.68,-63.2664 1855.5,-24.7486"/>
<polygon fill="midnightblue" stroke="midnightblue" points="1857.42,-27.6823 1864.28,-19.6156 1853.88,-21.6382 1857.42,-27.6823"/>
</g>
<!-- Node48&#45;&gt;Node17 -->
<g id="edge129" class="edge"><title>Node48&#45;&gt;Node17</title>
<path fill="none" stroke="midnightblue" d="M1348.81,-336.499C1330.64,-323.135 1293.52,-296.989 1259.12,-280 1216.76,-259.085 1186.28,-282.646 1159.12,-244 1154,-236.728 1153.94,-231.229 1159.12,-224 1168.95,-210.26 1207.29,-198.127 1240.14,-189.932"/>
<polygon fill="midnightblue" stroke="midnightblue" points="1241.22,-193.272 1250.12,-187.518 1239.57,-186.468 1241.22,-193.272"/>
</g>
<!-- Node48&#45;&gt;Node20 -->
<g id="edge125" class="edge"><title>Node48&#45;&gt;Node20</title>
<path fill="none" stroke="midnightblue" d="M1385.31,-336.444C1413.63,-326.825 1459.57,-311.224 1489.56,-301.037"/>
<polygon fill="midnightblue" stroke="midnightblue" points="1490.73,-304.337 1499.07,-297.807 1488.48,-297.708 1490.73,-304.337"/>
</g>
<!-- Node48&#45;&gt;Node26 -->
<g id="edge128" class="edge"><title>Node48&#45;&gt;Node26</title>
<path fill="none" stroke="midnightblue" d="M1307.51,-343.722C1206.58,-340.637 978.987,-330.611 790.116,-300 612.845,-271.269 405.34,-210.779 330.158,-187.964"/>
<polygon fill="midnightblue" stroke="midnightblue" points="331.03,-184.571 320.444,-185.002 328.988,-191.267 331.03,-184.571"/>
</g>
<!-- Node48&#45;&gt;Node28 -->
<g id="edge138" class="edge"><title>Node48&#45;&gt;Node28</title>
<path fill="none" stroke="midnightblue" d="M1368.74,-336.185C1392.31,-311.632 1454.87,-243.019 1437.12,-224 1426.62,-212.76 968.175,-188.483 824.625,-181.144"/>
<polygon fill="midnightblue" stroke="midnightblue" points="824.617,-177.639 814.452,-180.626 824.26,-184.63 824.617,-177.639"/>
</g>
<!-- Node48&#45;&gt;Node38 -->
<g id="edge137" class="edge"><title>Node48&#45;&gt;Node38</title>
<path fill="none" stroke="midnightblue" d="M1412.7,-337.605C1488.76,-326.909 1628.15,-307.307 1699.48,-297.276"/>
<polygon fill="midnightblue" stroke="midnightblue" points="1700.08,-300.726 1709.5,-295.868 1699.11,-293.795 1700.08,-300.726"/>
</g>
<!-- Node48&#45;&gt;Node47 -->
<g id="edge136" class="edge"><title>Node48&#45;&gt;Node47</title>
<path fill="none" stroke="midnightblue" d="M1413.01,-339.475C1512.56,-329.077 1726.59,-306.722 1825.3,-296.412"/>
<polygon fill="midnightblue" stroke="midnightblue" points="1825.75,-299.884 1835.34,-295.364 1825.03,-292.922 1825.75,-299.884"/>
</g>
<!-- Node48&#45;&gt;Node49 -->
<g id="edge134" class="edge"><title>Node48&#45;&gt;Node49</title>
<path fill="none" stroke="midnightblue" d="M1307.55,-342.486C1120.98,-333.562 491.137,-303.437 292.001,-293.912"/>
<polygon fill="midnightblue" stroke="midnightblue" points="291.887,-290.403 281.731,-293.421 291.552,-297.395 291.887,-290.403"/>
</g>
<!-- Node49&#45;&gt;Node24 -->
<g id="edge135" class="edge"><title>Node49&#45;&gt;Node24</title>
<path fill="none" stroke="midnightblue" d="M224.015,-280.083C217.879,-272.377 208.846,-261.033 201.377,-251.653"/>
<polygon fill="midnightblue" stroke="midnightblue" points="204.052,-249.394 195.084,-243.751 198.576,-253.754 204.052,-249.394"/>
</g>
<!-- Node50&#45;&gt;Node3 -->
<g id="edge144" class="edge"><title>Node50&#45;&gt;Node3</title>
<path fill="none" stroke="midnightblue" d="M1469.01,-338.324C1416.34,-328.309 1317.09,-309.439 1261.15,-298.803"/>
<polygon fill="midnightblue" stroke="midnightblue" points="1261.71,-295.346 1251.23,-296.917 1260.4,-302.223 1261.71,-295.346"/>
</g>
<!-- Node50&#45;&gt;Node20 -->
<g id="edge142" class="edge"><title>Node50&#45;&gt;Node20</title>
<path fill="none" stroke="midnightblue" d="M1506.59,-336.083C1508.6,-328.849 1511.5,-318.409 1514.01,-309.397"/>
<polygon fill="midnightblue" stroke="midnightblue" points="1517.38,-310.323 1516.68,-299.751 1510.64,-308.449 1517.38,-310.323"/>
</g>
<!-- Node50&#45;&gt;Node22 -->
<g id="edge143" class="edge"><title>Node50&#45;&gt;Node22</title>
<path fill="none" stroke="midnightblue" d="M1539.43,-344.592C1672.25,-342.417 2140.17,-328.764 2257.12,-244 2288.02,-221.598 2276.89,-200.368 2297.12,-168 2303.15,-158.347 2310.6,-148.075 2316.89,-139.786"/>
<polygon fill="midnightblue" stroke="midnightblue" points="2319.8,-141.746 2323.14,-131.693 2314.26,-137.467 2319.8,-141.746"/>
</g>
<!-- Node50&#45;&gt;Node38 -->
<g id="edge145" class="edge"><title>Node50&#45;&gt;Node38</title>
<path fill="none" stroke="midnightblue" d="M1539.27,-337.09C1581.73,-327.538 1653.19,-311.459 1699.49,-301.04"/>
<polygon fill="midnightblue" stroke="midnightblue" points="1700.27,-304.453 1709.26,-298.843 1698.73,-297.624 1700.27,-304.453"/>
</g>
</g>
</svg>
