<?xml version="1.0" encoding="UTF-8" standalone="no"?>
<!DOCTYPE svg PUBLIC "-//W3C//DTD SVG 1.1//EN"
 "http://www.w3.org/Graphics/SVG/1.1/DTD/svg11.dtd">
<!-- Generated by graphviz version 2.40.1 (20161225.0304)
 -->
<!-- Title: core/param/param.h Pages: 1 -->
<svg width="846pt" height="308pt"
 viewBox="0.00 0.00 845.50 308.00" xmlns="http://www.w3.org/2000/svg" xmlns:xlink="http://www.w3.org/1999/xlink">
<g id="graph0" class="graph" transform="scale(1 1) rotate(0) translate(4 304)">
<title>core/param/param.h</title>
<polygon fill="#ffffff" stroke="transparent" points="-4,4 -4,-304 841.5,-304 841.5,4 -4,4"/>
<!-- Node0 -->
<g id="node1" class="node">
<title>Node0</title>
<polygon fill="#bfbfbf" stroke="#000000" points="261,-280.5 261,-299.5 365,-299.5 365,-280.5 261,-280.5"/>
<text text-anchor="middle" x="313" y="-287.5" font-family="Helvetica,sans-Serif" font-size="10.00" fill="#000000">core/param/param.h</text>
</g>
<!-- Node1 -->
<g id="node2" class="node">
<title>Node1</title>
<polygon fill="#ffffff" stroke="#bfbfbf" points="0,-224.5 0,-243.5 56,-243.5 56,-224.5 0,-224.5"/>
<text text-anchor="middle" x="28" y="-231.5" font-family="Helvetica,sans-Serif" font-size="10.00" fill="#000000">cinttypes</text>
</g>
<!-- Node0&#45;&gt;Node1 -->
<g id="edge1" class="edge">
<title>Node0&#45;&gt;Node1</title>
<path fill="none" stroke="#191970" d="M260.9766,-281.6051C212.7866,-273.5463 138.9343,-260.482 66.0342,-244.1049"/>
<polygon fill="#191970" stroke="#191970" points="66.7497,-240.6784 56.2232,-241.8792 65.201,-247.5049 66.7497,-240.6784"/>
</g>
<!-- Node2 -->
<g id="node3" class="node">
<title>Node2</title>
<polygon fill="#ffffff" stroke="#bfbfbf" points="74,-224.5 74,-243.5 126,-243.5 126,-224.5 74,-224.5"/>
<text text-anchor="middle" x="100" y="-231.5" font-family="Helvetica,sans-Serif" font-size="10.00" fill="#000000">memory</text>
</g>
<!-- Node0&#45;&gt;Node2 -->
<g id="edge2" class="edge">
<title>Node0&#45;&gt;Node2</title>
<path fill="none" stroke="#191970" d="M275.0776,-280.4968C241.1051,-271.9174 189.6705,-258.7664 136.3312,-244.3189"/>
<polygon fill="#191970" stroke="#191970" points="136.9212,-240.8524 126.3532,-241.607 135.0852,-247.6073 136.9212,-240.8524"/>
</g>
<!-- Node3 -->
<g id="node4" class="node">
<title>Node3</title>
<polygon fill="#ffffff" stroke="#bfbfbf" points="144,-224.5 144,-243.5 174,-243.5 174,-224.5 144,-224.5"/>
<text text-anchor="middle" x="159" y="-231.5" font-family="Helvetica,sans-Serif" font-size="10.00" fill="#000000">set</text>
</g>
<!-- Node0&#45;&gt;Node3 -->
<g id="edge3" class="edge">
<title>Node0&#45;&gt;Node3</title>
<path fill="none" stroke="#191970" d="M286.5265,-280.3733C257.7279,-269.9011 212.047,-253.2898 183.8872,-243.0499"/>
<polygon fill="#191970" stroke="#191970" points="184.9631,-239.717 174.369,-239.5887 182.5708,-246.2955 184.9631,-239.717"/>
</g>
<!-- Node4 -->
<g id="node5" class="node">
<title>Node4</title>
<polygon fill="#ffffff" stroke="#bfbfbf" points="223.5,-.5 223.5,-19.5 264.5,-19.5 264.5,-.5 223.5,-.5"/>
<text text-anchor="middle" x="244" y="-7.5" font-family="Helvetica,sans-Serif" font-size="10.00" fill="#000000">string</text>
</g>
<!-- Node0&#45;&gt;Node4 -->
<g id="edge4" class="edge">
<title>Node0&#45;&gt;Node4</title>
<path fill="none" stroke="#191970" d="M278.4142,-280.3466C258.9751,-273.2538 235.7294,-261.7118 221,-244 201.4824,-220.5305 202,-208.5246 202,-178 202,-178 202,-178 202,-122 202,-87.2434 219.9519,-50.0613 232.3826,-28.4811"/>
<polygon fill="#191970" stroke="#191970" points="235.4887,-30.1065 237.6211,-19.7285 229.4823,-26.5116 235.4887,-30.1065"/>
</g>
<!-- Node5 -->
<g id="node6" class="node">
<title>Node5</title>
<polygon fill="#ffffff" stroke="#bfbfbf" points="230.5,-224.5 230.5,-243.5 313.5,-243.5 313.5,-224.5 230.5,-224.5"/>
<text text-anchor="middle" x="272" y="-231.5" font-family="Helvetica,sans-Serif" font-size="10.00" fill="#000000">unordered_map</text>
</g>
<!-- Node0&#45;&gt;Node5 -->
<g id="edge5" class="edge">
<title>Node0&#45;&gt;Node5</title>
<path fill="none" stroke="#191970" d="M305.8583,-280.2455C300.1556,-272.4564 292.01,-261.3308 285.1375,-251.9439"/>
<polygon fill="#191970" stroke="#191970" points="287.7913,-249.6437 279.0598,-243.6427 282.1432,-253.7789 287.7913,-249.6437"/>
</g>
<!-- Node6 -->
<g id="node7" class="node">
<title>Node6</title>
<polygon fill="#ffffff" stroke="#bfbfbf" points="332,-224.5 332,-243.5 376,-243.5 376,-224.5 332,-224.5"/>
<text text-anchor="middle" x="354" y="-231.5" font-family="Helvetica,sans-Serif" font-size="10.00" fill="#000000">vector</text>
</g>
<!-- Node0&#45;&gt;Node6 -->
<g id="edge6" class="edge">
<title>Node0&#45;&gt;Node6</title>
<path fill="none" stroke="#191970" d="M320.1417,-280.2455C325.8444,-272.4564 333.99,-261.3308 340.8625,-251.9439"/>
<polygon fill="#191970" stroke="#191970" points="343.8568,-253.7789 346.9402,-243.6427 338.2087,-249.6437 343.8568,-253.7789"/>
</g>
<!-- Node7 -->
<g id="node8" class="node">
<title>Node7</title>
<g id="a_node8"><a xlink:href="module__param_8h.html" target="_top" xlink:title="core/param/module_param.h">
<polygon fill="#ffffff" stroke="#000000" points="432,-224.5 432,-243.5 572,-243.5 572,-224.5 432,-224.5"/>
<text text-anchor="middle" x="502" y="-231.5" font-family="Helvetica,sans-Serif" font-size="10.00" fill="#000000">core/param/module_param.h</text>
</a>
</g>
</g>
<!-- Node0&#45;&gt;Node7 -->
<g id="edge7" class="edge">
<title>Node0&#45;&gt;Node7</title>
<path fill="none" stroke="#191970" d="M345.4903,-280.3733C377.1902,-270.9807 425.5576,-256.6496 460.1286,-246.4064"/>
<polygon fill="#191970" stroke="#191970" points="461.3401,-249.6979 469.9337,-243.5011 459.3514,-242.9863 461.3401,-249.6979"/>
</g>
<!-- Node8 -->
<g id="node9" class="node">
<title>Node8</title>
<g id="a_node9"><a xlink:href="root_8h.html" target="_top" xlink:title="core/util/root.h">
<polygon fill="#ffffff" stroke="#000000" points="364.5,-168.5 364.5,-187.5 443.5,-187.5 443.5,-168.5 364.5,-168.5"/>
<text text-anchor="middle" x="404" y="-175.5" font-family="Helvetica,sans-Serif" font-size="10.00" fill="#000000">core/util/root.h</text>
</a>
</g>
</g>
<!-- Node0&#45;&gt;Node8 -->
<g id="edge20" class="edge">
<title>Node0&#45;&gt;Node8</title>
<path fill="none" stroke="#191970" d="M336.3001,-280.4751C352.2083,-272.8381 372.5768,-260.6409 385,-244 395.0186,-230.58 399.7631,-212.0189 402.005,-197.9975"/>
<polygon fill="#191970" stroke="#191970" points="405.4978,-198.2793 403.3194,-187.9109 398.5565,-197.3748 405.4978,-198.2793"/>
</g>
<!-- Node17 -->
<g id="node18" class="node">
<title>Node17</title>
<polygon fill="#ffffff" stroke="#bfbfbf" points="461.5,-168.5 461.5,-187.5 558.5,-187.5 558.5,-168.5 461.5,-168.5"/>
<text text-anchor="middle" x="510" y="-175.5" font-family="Helvetica,sans-Serif" font-size="10.00" fill="#000000">cpptoml/cpptoml.h</text>
</g>
<!-- Node0&#45;&gt;Node17 -->
<g id="edge26" class="edge">
<title>Node0&#45;&gt;Node17</title>
<path fill="none" stroke="#191970" d="M365.2914,-284.6407C439.3154,-276.5202 567.2508,-260.3102 581,-244 597.6164,-224.2885 568.9238,-204.5348 543.1971,-191.8474"/>
<polygon fill="#191970" stroke="#191970" points="544.4823,-188.5843 533.9425,-187.5059 541.5094,-194.9217 544.4823,-188.5843"/>
</g>
<!-- Node18 -->
<g id="node19" class="node">
<title>Node18</title>
<g id="a_node19"><a xlink:href="type_8h.html" target="_top" xlink:title="core/util/type.h">
<polygon fill="#ffffff" stroke="#000000" points="628.5,-224.5 628.5,-243.5 709.5,-243.5 709.5,-224.5 628.5,-224.5"/>
<text text-anchor="middle" x="669" y="-231.5" font-family="Helvetica,sans-Serif" font-size="10.00" fill="#000000">core/util/type.h</text>
</a>
</g>
</g>
<!-- Node0&#45;&gt;Node18 -->
<g id="edge21" class="edge">
<title>Node0&#45;&gt;Node18</title>
<path fill="none" stroke="#191970" d="M365.0037,-282.5073C425.0621,-273.7487 526.7973,-258.5879 614,-244 615.4657,-243.7548 616.9529,-243.5032 618.4537,-243.2467"/>
<polygon fill="#191970" stroke="#191970" points="619.2222,-246.6657 628.4736,-241.5021 618.0214,-239.7694 619.2222,-246.6657"/>
</g>
<!-- Node7&#45;&gt;Node8 -->
<g id="edge8" class="edge">
<title>Node7&#45;&gt;Node8</title>
<path fill="none" stroke="#191970" d="M484.9297,-224.2455C469.753,-215.5731 447.3379,-202.7645 429.9437,-192.825"/>
<polygon fill="#191970" stroke="#191970" points="431.2936,-189.5653 420.8747,-187.6427 427.8206,-195.643 431.2936,-189.5653"/>
</g>
<!-- Node7&#45;&gt;Node17 -->
<g id="edge19" class="edge">
<title>Node7&#45;&gt;Node17</title>
<path fill="none" stroke="#191970" d="M503.3935,-224.2455C504.4374,-216.9382 505.9008,-206.6944 507.1851,-197.7046"/>
<polygon fill="#191970" stroke="#191970" points="510.673,-198.0372 508.6225,-187.6427 503.7434,-197.0472 510.673,-198.0372"/>
</g>
<!-- Node9 -->
<g id="node10" class="node">
<title>Node9</title>
<polygon fill="#ffffff" stroke="#bfbfbf" points="303,-112.5 303,-131.5 359,-131.5 359,-112.5 303,-112.5"/>
<text text-anchor="middle" x="331" y="-119.5" font-family="Helvetica,sans-Serif" font-size="10.00" fill="#000000">TClass.h</text>
</g>
<!-- Node8&#45;&gt;Node9 -->
<g id="edge9" class="edge">
<title>Node8&#45;&gt;Node9</title>
<path fill="none" stroke="#191970" d="M391.2844,-168.2455C380.398,-159.8943 364.5117,-147.7076 351.78,-137.9408"/>
<polygon fill="#191970" stroke="#191970" points="353.6346,-134.9523 343.5699,-131.6427 349.3739,-140.5063 353.6346,-134.9523"/>
</g>
<!-- Node10 -->
<g id="node11" class="node">
<title>Node10</title>
<g id="a_node11"><a xlink:href="log_8h.html" target="_top" xlink:title="core/util/log.h">
<polygon fill="#ffffff" stroke="#000000" points="377.5,-112.5 377.5,-131.5 452.5,-131.5 452.5,-112.5 377.5,-112.5"/>
<text text-anchor="middle" x="415" y="-119.5" font-family="Helvetica,sans-Serif" font-size="10.00" fill="#000000">core/util/log.h</text>
</a>
</g>
</g>
<!-- Node8&#45;&gt;Node10 -->
<g id="edge10" class="edge">
<title>Node8&#45;&gt;Node10</title>
<path fill="none" stroke="#191970" d="M405.9161,-168.2455C407.3514,-160.9382 409.3636,-150.6944 411.1295,-141.7046"/>
<polygon fill="#191970" stroke="#191970" points="414.6127,-142.1298 413.1059,-131.6427 407.744,-140.7805 414.6127,-142.1298"/>
</g>
<!-- Node10&#45;&gt;Node4 -->
<g id="edge15" class="edge">
<title>Node10&#45;&gt;Node4</title>
<path fill="none" stroke="#191970" d="M377.4761,-112.6423C335.1799,-101.7864 271.205,-84.3171 263,-76 250.9887,-63.8246 246.4724,-44.573 244.8231,-29.9972"/>
<polygon fill="#191970" stroke="#191970" points="248.3073,-29.6563 244.044,-19.9571 241.3283,-30.1979 248.3073,-29.6563"/>
</g>
<!-- Node11 -->
<g id="node12" class="node">
<title>Node11</title>
<polygon fill="#ffffff" stroke="#bfbfbf" points="272,-56.5 272,-75.5 324,-75.5 324,-56.5 272,-56.5"/>
<text text-anchor="middle" x="298" y="-63.5" font-family="Helvetica,sans-Serif" font-size="10.00" fill="#000000">TError.h</text>
</g>
<!-- Node10&#45;&gt;Node11 -->
<g id="edge11" class="edge">
<title>Node10&#45;&gt;Node11</title>
<path fill="none" stroke="#191970" d="M394.887,-112.3733C376.1897,-103.4241 348.1256,-89.9917 327.0066,-79.8835"/>
<polygon fill="#191970" stroke="#191970" points="328.3817,-76.6614 317.8506,-75.5011 325.3595,-82.9755 328.3817,-76.6614"/>
</g>
<!-- Node12 -->
<g id="node13" class="node">
<title>Node12</title>
<polygon fill="#ffffff" stroke="#bfbfbf" points="342.5,-56.5 342.5,-75.5 385.5,-75.5 385.5,-56.5 342.5,-56.5"/>
<text text-anchor="middle" x="364" y="-63.5" font-family="Helvetica,sans-Serif" font-size="10.00" fill="#000000">cstdio</text>
</g>
<!-- Node10&#45;&gt;Node12 -->
<g id="edge12" class="edge">
<title>Node10&#45;&gt;Node12</title>
<path fill="none" stroke="#191970" d="M406.1165,-112.2455C398.8034,-104.2155 388.2609,-92.6394 379.5533,-83.0781"/>
<polygon fill="#191970" stroke="#191970" points="382.1028,-80.6795 372.7817,-75.6427 376.9273,-85.3928 382.1028,-80.6795"/>
</g>
<!-- Node13 -->
<g id="node14" class="node">
<title>Node13</title>
<polygon fill="#ffffff" stroke="#bfbfbf" points="403.5,-56.5 403.5,-75.5 448.5,-75.5 448.5,-56.5 403.5,-56.5"/>
<text text-anchor="middle" x="426" y="-63.5" font-family="Helvetica,sans-Serif" font-size="10.00" fill="#000000">cstdlib</text>
</g>
<!-- Node10&#45;&gt;Node13 -->
<g id="edge13" class="edge">
<title>Node10&#45;&gt;Node13</title>
<path fill="none" stroke="#191970" d="M416.9161,-112.2455C418.3514,-104.9382 420.3636,-94.6944 422.1295,-85.7046"/>
<polygon fill="#191970" stroke="#191970" points="425.6127,-86.1298 424.1059,-75.6427 418.744,-84.7805 425.6127,-86.1298"/>
</g>
<!-- Node14 -->
<g id="node15" class="node">
<title>Node14</title>
<polygon fill="#ffffff" stroke="#bfbfbf" points="467,-56.5 467,-75.5 521,-75.5 521,-56.5 467,-56.5"/>
<text text-anchor="middle" x="494" y="-63.5" font-family="Helvetica,sans-Serif" font-size="10.00" fill="#000000">iostream</text>
</g>
<!-- Node10&#45;&gt;Node14 -->
<g id="edge14" class="edge">
<title>Node10&#45;&gt;Node14</title>
<path fill="none" stroke="#191970" d="M428.7607,-112.2455C440.6552,-103.814 458.065,-91.4729 471.9085,-81.6598"/>
<polygon fill="#191970" stroke="#191970" points="474.2628,-84.2811 480.3969,-75.6427 470.2146,-78.5704 474.2628,-84.2811"/>
</g>
<!-- Node15 -->
<g id="node16" class="node">
<title>Node15</title>
<g id="a_node16"><a xlink:href="string_8h.html" target="_top" xlink:title="core/util/string.h">
<polygon fill="#ffffff" stroke="#000000" points="539,-56.5 539,-75.5 625,-75.5 625,-56.5 539,-56.5"/>
<text text-anchor="middle" x="582" y="-63.5" font-family="Helvetica,sans-Serif" font-size="10.00" fill="#000000">core/util/string.h</text>
</a>
</g>
</g>
<!-- Node10&#45;&gt;Node15 -->
<g id="edge16" class="edge">
<title>Node10&#45;&gt;Node15</title>
<path fill="none" stroke="#191970" d="M443.7083,-112.3733C471.3577,-103.1016 513.3576,-89.0178 543.8166,-78.804"/>
<polygon fill="#191970" stroke="#191970" points="545.2979,-81.9989 553.6663,-75.5011 543.0724,-75.3621 545.2979,-81.9989"/>
</g>
<!-- Node15&#45;&gt;Node4 -->
<g id="edge18" class="edge">
<title>Node15&#45;&gt;Node4</title>
<path fill="none" stroke="#191970" d="M538.8885,-57.6043C535.8823,-57.0512 532.897,-56.5114 530,-56 437.3338,-39.6415 327.3425,-22.6221 274.855,-14.6468"/>
<polygon fill="#191970" stroke="#191970" points="275.2617,-11.1685 264.8501,-13.1304 274.2126,-18.0895 275.2617,-11.1685"/>
</g>
<!-- Node16 -->
<g id="node17" class="node">
<title>Node16</title>
<polygon fill="#ffffff" stroke="#bfbfbf" points="556,-.5 556,-19.5 608,-19.5 608,-.5 556,-.5"/>
<text text-anchor="middle" x="582" y="-7.5" font-family="Helvetica,sans-Serif" font-size="10.00" fill="#000000">sstream</text>
</g>
<!-- Node15&#45;&gt;Node16 -->
<g id="edge17" class="edge">
<title>Node15&#45;&gt;Node16</title>
<path fill="none" stroke="#191970" d="M582,-56.2455C582,-48.9382 582,-38.6944 582,-29.7046"/>
<polygon fill="#191970" stroke="#191970" points="585.5001,-29.6426 582,-19.6427 578.5001,-29.6427 585.5001,-29.6426"/>
</g>
<!-- Node18&#45;&gt;Node15 -->
<g id="edge25" class="edge">
<title>Node18&#45;&gt;Node15</title>
<path fill="none" stroke="#191970" d="M648.7938,-224.4076C634.5855,-216.5988 616.3318,-204.2196 606,-188 585.8857,-156.4231 582.01,-111.6351 581.6023,-86.0304"/>
<polygon fill="#191970" stroke="#191970" points="585.1025,-85.736 581.6131,-75.7323 578.1025,-85.7286 585.1025,-85.736"/>
</g>
<!-- Node19 -->
<g id="node20" class="node">
<title>Node19</title>
<polygon fill="#ffffff" stroke="#bfbfbf" points="615,-168.5 615,-187.5 677,-187.5 677,-168.5 615,-168.5"/>
<text text-anchor="middle" x="646" y="-175.5" font-family="Helvetica,sans-Serif" font-size="10.00" fill="#000000">type_traits</text>
</g>
<!-- Node18&#45;&gt;Node19 -->
<g id="edge22" class="edge">
<title>Node18&#45;&gt;Node19</title>
<path fill="none" stroke="#191970" d="M664.9937,-224.2455C661.9265,-216.7776 657.5997,-206.2427 653.8503,-197.1137"/>
<polygon fill="#191970" stroke="#191970" points="656.9972,-195.5631 649.9604,-187.6427 650.5221,-198.2226 656.9972,-195.5631"/>
</g>
<!-- Node20 -->
<g id="node21" class="node">
<title>Node20</title>
<polygon fill="#ffffff" stroke="#bfbfbf" points="695.5,-168.5 695.5,-187.5 746.5,-187.5 746.5,-168.5 695.5,-168.5"/>
<text text-anchor="middle" x="721" y="-175.5" font-family="Helvetica,sans-Serif" font-size="10.00" fill="#000000">typeinfo</text>
</g>
<!-- Node18&#45;&gt;Node20 -->
<g id="edge23" class="edge">
<title>Node18&#45;&gt;Node20</title>
<path fill="none" stroke="#191970" d="M678.0577,-224.2455C685.5142,-216.2155 696.2634,-204.6394 705.1417,-195.0781"/>
<polygon fill="#191970" stroke="#191970" points="707.8063,-197.3522 712.0461,-187.6427 702.6768,-192.589 707.8063,-197.3522"/>
</g>
<!-- Node21 -->
<g id="node22" class="node">
<title>Node21</title>
<g id="a_node22"><a xlink:href="shape_8h.html" target="_top" xlink:title="core/shape.h">
<polygon fill="#ffffff" stroke="#000000" points="764.5,-168.5 764.5,-187.5 837.5,-187.5 837.5,-168.5 764.5,-168.5"/>
<text text-anchor="middle" x="801" y="-175.5" font-family="Helvetica,sans-Serif" font-size="10.00" fill="#000000">core/shape.h</text>
</a>
</g>
</g>
<!-- Node18&#45;&gt;Node21 -->
<g id="edge24" class="edge">
<title>Node18&#45;&gt;Node21</title>
<path fill="none" stroke="#191970" d="M691.6916,-224.3733C713.0711,-215.3032 745.3057,-201.6279 769.2362,-191.4755"/>
<polygon fill="#191970" stroke="#191970" points="770.7656,-194.6287 778.6045,-187.5011 768.0317,-188.1846 770.7656,-194.6287"/>
</g>
</g>
</svg>
