<?xml version="1.0" encoding="UTF-8" standalone="no"?>
<!DOCTYPE svg PUBLIC "-//W3C//DTD SVG 1.1//EN"
 "http://www.w3.org/Graphics/SVG/1.1/DTD/svg11.dtd">
<!-- Generated by graphviz version 2.43.0 (0)
 -->
<!-- Title: core/util/debug.h Pages: 1 -->
<svg width="765pt" height="319pt"
 viewBox="0.00 0.00 765.23 319.00" xmlns="http://www.w3.org/2000/svg" xmlns:xlink="http://www.w3.org/1999/xlink">
<g id="graph0" class="graph" transform="scale(1 1) rotate(0) translate(4 315)">
<title>core/util/debug.h</title>
<polygon fill="white" stroke="transparent" points="-4,4 -4,-315 761.23,-315 761.23,4 -4,4"/>
<!-- Node1 -->
<g id="node1" class="node">
<title>Node1</title>
<g id="a_node1"><a xlink:title=" ">
<polygon fill="#bfbfbf" stroke="black" points="61.73,-291.5 61.73,-310.5 159.73,-310.5 159.73,-291.5 61.73,-291.5"/>
<text text-anchor="middle" x="110.73" y="-298.5" font-family="Helvetica,sans-Serif" font-size="10.00">core/util/debug.h</text>
</a>
</g>
</g>
<!-- Node2 -->
<g id="node2" class="node">
<title>Node2</title>
<g id="a_node2"><a xlink:title=" ">
<polygon fill="white" stroke="#bfbfbf" points="22.73,-168.5 22.73,-187.5 86.73,-187.5 86.73,-168.5 22.73,-168.5"/>
<text text-anchor="middle" x="54.73" y="-175.5" font-family="Helvetica,sans-Serif" font-size="10.00">algorithm</text>
</a>
</g>
</g>
<!-- Node1&#45;&gt;Node2 -->
<g id="edge1" class="edge">
<title>Node1&#45;&gt;Node2</title>
<path fill="none" stroke="midnightblue" d="M120.77,-291.25C136.13,-276.77 162.23,-247.13 147.73,-224 136.45,-206.01 115.72,-195.04 96.69,-188.44"/>
<polygon fill="midnightblue" stroke="midnightblue" points="97.54,-185.04 86.95,-185.37 95.43,-191.71 97.54,-185.04"/>
</g>
<!-- Node3 -->
<g id="node3" class="node">
<title>Node3</title>
<g id="a_node3"><a xlink:title=" ">
<polygon fill="white" stroke="#bfbfbf" points="22.73,-230 22.73,-249 64.73,-249 64.73,-230 22.73,-230"/>
<text text-anchor="middle" x="43.73" y="-237" font-family="Helvetica,sans-Serif" font-size="10.00">array</text>
</a>
</g>
</g>
<!-- Node1&#45;&gt;Node3 -->
<g id="edge2" class="edge">
<title>Node1&#45;&gt;Node3</title>
<path fill="none" stroke="midnightblue" d="M101.13,-291.48C90.68,-282.2 73.76,-267.17 60.99,-255.83"/>
<polygon fill="midnightblue" stroke="midnightblue" points="63.11,-253.03 53.31,-249.01 58.46,-258.27 63.11,-253.03"/>
</g>
<!-- Node4 -->
<g id="node4" class="node">
<title>Node4</title>
<g id="a_node4"><a xlink:title=" ">
<polygon fill="white" stroke="#bfbfbf" points="82.73,-230 82.73,-249 138.73,-249 138.73,-230 82.73,-230"/>
<text text-anchor="middle" x="110.73" y="-237" font-family="Helvetica,sans-Serif" font-size="10.00">iomanip</text>
</a>
</g>
</g>
<!-- Node1&#45;&gt;Node4 -->
<g id="edge3" class="edge">
<title>Node1&#45;&gt;Node4</title>
<path fill="none" stroke="midnightblue" d="M110.73,-291.48C110.73,-283.08 110.73,-269.98 110.73,-259.16"/>
<polygon fill="midnightblue" stroke="midnightblue" points="114.23,-259.01 110.73,-249.01 107.23,-259.01 114.23,-259.01"/>
</g>
<!-- Node5 -->
<g id="node5" class="node">
<title>Node5</title>
<g id="a_node5"><a xlink:title=" ">
<polygon fill="white" stroke="#bfbfbf" points="84.73,-56.5 84.73,-75.5 144.73,-75.5 144.73,-56.5 84.73,-56.5"/>
<text text-anchor="middle" x="114.73" y="-63.5" font-family="Helvetica,sans-Serif" font-size="10.00">iostream</text>
</a>
</g>
</g>
<!-- Node1&#45;&gt;Node5 -->
<g id="edge4" class="edge">
<title>Node1&#45;&gt;Node5</title>
<path fill="none" stroke="midnightblue" d="M68.34,-291.45C48.15,-285.02 25.82,-273.93 13.73,-255 -7.08,-222.41 -1.07,-203.72 13.73,-168 29.53,-129.84 67.52,-98.59 92.14,-81.4"/>
<polygon fill="midnightblue" stroke="midnightblue" points="94.22,-84.22 100.54,-75.72 90.29,-78.42 94.22,-84.22"/>
</g>
<!-- Node6 -->
<g id="node6" class="node">
<title>Node6</title>
<g id="a_node6"><a xlink:href="math__array_8h.html" target="_top" xlink:title=" ">
<polygon fill="white" stroke="black" points="302.23,-224.5 302.23,-254.5 417.23,-254.5 417.23,-224.5 302.23,-224.5"/>
<text text-anchor="start" x="310.23" y="-242.5" font-family="Helvetica,sans-Serif" font-size="10.00">core/container/math</text>
<text text-anchor="middle" x="359.73" y="-231.5" font-family="Helvetica,sans-Serif" font-size="10.00">_array.h</text>
</a>
</g>
</g>
<!-- Node1&#45;&gt;Node6 -->
<g id="edge5" class="edge">
<title>Node1&#45;&gt;Node6</title>
<path fill="none" stroke="midnightblue" d="M146.4,-291.48C184.32,-282.42 245.16,-267.88 292.19,-256.64"/>
<polygon fill="midnightblue" stroke="midnightblue" points="293.09,-260.02 302,-254.29 291.46,-253.21 293.09,-260.02"/>
</g>
<!-- Node6&#45;&gt;Node2 -->
<g id="edge6" class="edge">
<title>Node6&#45;&gt;Node2</title>
<path fill="none" stroke="midnightblue" d="M302.22,-227.96C250.87,-218.45 173.37,-203.83 96.76,-188.17"/>
<polygon fill="midnightblue" stroke="midnightblue" points="97.44,-184.74 86.94,-186.16 96.03,-191.6 97.44,-184.74"/>
</g>
<!-- Node7 -->
<g id="node7" class="node">
<title>Node7</title>
<g id="a_node7"><a xlink:title=" ">
<polygon fill="white" stroke="#bfbfbf" points="639.73,-168.5 639.73,-187.5 691.73,-187.5 691.73,-168.5 639.73,-168.5"/>
<text text-anchor="middle" x="665.73" y="-175.5" font-family="Helvetica,sans-Serif" font-size="10.00">cassert</text>
</a>
</g>
</g>
<!-- Node6&#45;&gt;Node7 -->
<g id="edge7" class="edge">
<title>Node6&#45;&gt;Node7</title>
<path fill="none" stroke="midnightblue" d="M417.32,-228.93C470.08,-219.9 550.55,-205.47 629.31,-188.2"/>
<polygon fill="midnightblue" stroke="midnightblue" points="630.39,-191.55 639.4,-185.97 628.88,-184.71 630.39,-191.55"/>
</g>
<!-- Node8 -->
<g id="node8" class="node">
<title>Node8</title>
<g id="a_node8"><a xlink:title=" ">
<polygon fill="white" stroke="#bfbfbf" points="710.23,-168.5 710.23,-187.5 757.23,-187.5 757.23,-168.5 710.23,-168.5"/>
<text text-anchor="middle" x="733.73" y="-175.5" font-family="Helvetica,sans-Serif" font-size="10.00">cmath</text>
</a>
</g>
</g>
<!-- Node6&#45;&gt;Node8 -->
<g id="edge8" class="edge">
<title>Node6&#45;&gt;Node8</title>
<path fill="none" stroke="midnightblue" d="M417.42,-232.09C483.46,-224.27 595.02,-209.61 700.19,-187.89"/>
<polygon fill="midnightblue" stroke="midnightblue" points="700.94,-191.3 710.02,-185.83 699.51,-184.45 700.94,-191.3"/>
</g>
<!-- Node9 -->
<g id="node9" class="node">
<title>Node9</title>
<g id="a_node9"><a xlink:title=" ">
<polygon fill="white" stroke="#bfbfbf" points="104.73,-168.5 104.73,-187.5 160.73,-187.5 160.73,-168.5 104.73,-168.5"/>
<text text-anchor="middle" x="132.73" y="-175.5" font-family="Helvetica,sans-Serif" font-size="10.00">numeric</text>
</a>
</g>
</g>
<!-- Node6&#45;&gt;Node9 -->
<g id="edge9" class="edge">
<title>Node6&#45;&gt;Node9</title>
<path fill="none" stroke="midnightblue" d="M306.22,-224.47C264.64,-213.58 208,-198.73 170.91,-189.01"/>
<polygon fill="midnightblue" stroke="midnightblue" points="171.56,-185.56 161,-186.41 169.78,-192.33 171.56,-185.56"/>
</g>
<!-- Node10 -->
<g id="node10" class="node">
<title>Node10</title>
<g id="a_node10"><a xlink:title=" ">
<polygon fill="white" stroke="#bfbfbf" points="179.23,-168.5 179.23,-187.5 236.23,-187.5 236.23,-168.5 179.23,-168.5"/>
<text text-anchor="middle" x="207.73" y="-175.5" font-family="Helvetica,sans-Serif" font-size="10.00">ostream</text>
</a>
</g>
</g>
<!-- Node6&#45;&gt;Node10 -->
<g id="edge10" class="edge">
<title>Node6&#45;&gt;Node10</title>
<path fill="none" stroke="midnightblue" d="M323.71,-224.4C298.09,-214.37 264,-201.03 239.42,-191.4"/>
<polygon fill="midnightblue" stroke="midnightblue" points="240.43,-188.04 229.84,-187.66 237.88,-194.56 240.43,-188.04"/>
</g>
<!-- Node11 -->
<g id="node11" class="node">
<title>Node11</title>
<g id="a_node11"><a xlink:title=" ">
<polygon fill="white" stroke="#bfbfbf" points="254.23,-168.5 254.23,-187.5 319.23,-187.5 319.23,-168.5 254.23,-168.5"/>
<text text-anchor="middle" x="286.73" y="-175.5" font-family="Helvetica,sans-Serif" font-size="10.00">stdexcept</text>
</a>
</g>
</g>
<!-- Node6&#45;&gt;Node11 -->
<g id="edge11" class="edge">
<title>Node6&#45;&gt;Node11</title>
<path fill="none" stroke="midnightblue" d="M342.43,-224.4C331.27,-215.31 316.77,-203.49 305.37,-194.19"/>
<polygon fill="midnightblue" stroke="midnightblue" points="307.31,-191.26 297.35,-187.66 302.89,-196.69 307.31,-191.26"/>
</g>
<!-- Node12 -->
<g id="node12" class="node">
<title>Node12</title>
<g id="a_node12"><a xlink:title=" ">
<polygon fill="white" stroke="#bfbfbf" points="337.23,-168.5 337.23,-187.5 382.23,-187.5 382.23,-168.5 337.23,-168.5"/>
<text text-anchor="middle" x="359.73" y="-175.5" font-family="Helvetica,sans-Serif" font-size="10.00">utility</text>
</a>
</g>
</g>
<!-- Node6&#45;&gt;Node12 -->
<g id="edge12" class="edge">
<title>Node6&#45;&gt;Node12</title>
<path fill="none" stroke="midnightblue" d="M359.73,-224.4C359.73,-216.47 359.73,-206.46 359.73,-197.86"/>
<polygon fill="midnightblue" stroke="midnightblue" points="363.23,-197.66 359.73,-187.66 356.23,-197.66 363.23,-197.66"/>
</g>
<!-- Node13 -->
<g id="node13" class="node">
<title>Node13</title>
<g id="a_node13"><a xlink:href="real__t_8h.html" target="_top" xlink:title=" ">
<polygon fill="white" stroke="black" points="400.23,-168.5 400.23,-187.5 477.23,-187.5 477.23,-168.5 400.23,-168.5"/>
<text text-anchor="middle" x="438.73" y="-175.5" font-family="Helvetica,sans-Serif" font-size="10.00">core/real_t.h</text>
</a>
</g>
</g>
<!-- Node6&#45;&gt;Node13 -->
<g id="edge13" class="edge">
<title>Node6&#45;&gt;Node13</title>
<path fill="none" stroke="midnightblue" d="M378.45,-224.4C390.64,-215.22 406.52,-203.26 418.92,-193.92"/>
<polygon fill="midnightblue" stroke="midnightblue" points="421.35,-196.47 427.23,-187.66 417.14,-190.88 421.35,-196.47"/>
</g>
<!-- Node14 -->
<g id="node14" class="node">
<title>Node14</title>
<g id="a_node14"><a xlink:href="log_8h.html" target="_top" xlink:title=" ">
<polygon fill="white" stroke="black" points="456.23,-112.5 456.23,-131.5 539.23,-131.5 539.23,-112.5 456.23,-112.5"/>
<text text-anchor="middle" x="497.73" y="-119.5" font-family="Helvetica,sans-Serif" font-size="10.00">core/util/log.h</text>
</a>
</g>
</g>
<!-- Node6&#45;&gt;Node14 -->
<g id="edge14" class="edge">
<title>Node6&#45;&gt;Node14</title>
<path fill="none" stroke="midnightblue" d="M417.31,-228.31C441.86,-221.07 468.71,-208.79 485.73,-188 496.28,-175.11 498.72,-155.93 498.86,-141.75"/>
<polygon fill="midnightblue" stroke="midnightblue" points="502.36,-141.56 498.59,-131.66 495.36,-141.75 502.36,-141.56"/>
</g>
<!-- Node23 -->
<g id="node23" class="node">
<title>Node23</title>
<g id="a_node23"><a xlink:href="root_8h.html" target="_top" xlink:title=" ">
<polygon fill="white" stroke="black" points="533.73,-168.5 533.73,-187.5 621.73,-187.5 621.73,-168.5 533.73,-168.5"/>
<text text-anchor="middle" x="577.73" y="-175.5" font-family="Helvetica,sans-Serif" font-size="10.00">core/util/root.h</text>
</a>
</g>
</g>
<!-- Node6&#45;&gt;Node23 -->
<g id="edge25" class="edge">
<title>Node6&#45;&gt;Node23</title>
<path fill="none" stroke="midnightblue" d="M411.11,-224.47C449.38,-214.03 500.94,-199.96 536.52,-190.25"/>
<polygon fill="midnightblue" stroke="midnightblue" points="537.84,-193.52 546.56,-187.51 535.99,-186.76 537.84,-193.52"/>
</g>
<!-- Node14&#45;&gt;Node5 -->
<g id="edge19" class="edge">
<title>Node14&#45;&gt;Node5</title>
<path fill="none" stroke="midnightblue" d="M456.01,-115.12C381.91,-104.67 228.26,-83.01 155.12,-72.7"/>
<polygon fill="midnightblue" stroke="midnightblue" points="155.32,-69.19 144.93,-71.26 154.35,-76.12 155.32,-69.19"/>
</g>
<!-- Node15 -->
<g id="node15" class="node">
<title>Node15</title>
<g id="a_node15"><a xlink:title=" ">
<polygon fill="white" stroke="#bfbfbf" points="670.73,-56.5 670.73,-75.5 724.73,-75.5 724.73,-56.5 670.73,-56.5"/>
<text text-anchor="middle" x="697.73" y="-63.5" font-family="Helvetica,sans-Serif" font-size="10.00">TError.h</text>
</a>
</g>
</g>
<!-- Node14&#45;&gt;Node15 -->
<g id="edge15" class="edge">
<title>Node14&#45;&gt;Node15</title>
<path fill="none" stroke="midnightblue" d="M529.42,-112.44C565.06,-102.82 622.87,-87.21 660.6,-77.02"/>
<polygon fill="midnightblue" stroke="midnightblue" points="661.93,-80.29 670.67,-74.3 660.11,-73.53 661.93,-80.29"/>
</g>
<!-- Node16 -->
<g id="node16" class="node">
<title>Node16</title>
<g id="a_node16"><a xlink:title=" ">
<polygon fill="white" stroke="#bfbfbf" points="303.73,-56.5 303.73,-75.5 349.73,-75.5 349.73,-56.5 303.73,-56.5"/>
<text text-anchor="middle" x="326.73" y="-63.5" font-family="Helvetica,sans-Serif" font-size="10.00">cstdio</text>
</a>
</g>
</g>
<!-- Node14&#45;&gt;Node16 -->
<g id="edge16" class="edge">
<title>Node14&#45;&gt;Node16</title>
<path fill="none" stroke="midnightblue" d="M470.63,-112.44C440.55,-102.94 391.99,-87.61 359.72,-77.42"/>
<polygon fill="midnightblue" stroke="midnightblue" points="360.45,-73.98 349.86,-74.3 358.34,-80.65 360.45,-73.98"/>
</g>
<!-- Node17 -->
<g id="node17" class="node">
<title>Node17</title>
<g id="a_node17"><a xlink:title=" ">
<polygon fill="white" stroke="#bfbfbf" points="368.23,-56.5 368.23,-75.5 417.23,-75.5 417.23,-56.5 368.23,-56.5"/>
<text text-anchor="middle" x="392.73" y="-63.5" font-family="Helvetica,sans-Serif" font-size="10.00">cstdlib</text>
</a>
</g>
</g>
<!-- Node14&#45;&gt;Node17 -->
<g id="edge17" class="edge">
<title>Node14&#45;&gt;Node17</title>
<path fill="none" stroke="midnightblue" d="M480.86,-112.32C464.02,-103.66 437.92,-90.24 418.49,-80.25"/>
<polygon fill="midnightblue" stroke="midnightblue" points="420.05,-77.12 409.56,-75.65 416.85,-83.34 420.05,-77.12"/>
</g>
<!-- Node18 -->
<g id="node18" class="node">
<title>Node18</title>
<g id="a_node18"><a xlink:title=" ">
<polygon fill="white" stroke="#bfbfbf" points="435.23,-56.5 435.23,-75.5 500.23,-75.5 500.23,-56.5 435.23,-56.5"/>
<text text-anchor="middle" x="467.73" y="-63.5" font-family="Helvetica,sans-Serif" font-size="10.00">functional</text>
</a>
</g>
</g>
<!-- Node14&#45;&gt;Node18 -->
<g id="edge18" class="edge">
<title>Node14&#45;&gt;Node18</title>
<path fill="none" stroke="midnightblue" d="M492.77,-112.08C488.62,-104.61 482.57,-93.72 477.46,-84.52"/>
<polygon fill="midnightblue" stroke="midnightblue" points="480.51,-82.79 472.59,-75.75 474.39,-86.19 480.51,-82.79"/>
</g>
<!-- Node19 -->
<g id="node19" class="node">
<title>Node19</title>
<g id="a_node19"><a xlink:title=" ">
<polygon fill="white" stroke="#bfbfbf" points="512.73,-0.5 512.73,-19.5 556.73,-19.5 556.73,-0.5 512.73,-0.5"/>
<text text-anchor="middle" x="534.73" y="-7.5" font-family="Helvetica,sans-Serif" font-size="10.00">string</text>
</a>
</g>
</g>
<!-- Node14&#45;&gt;Node19 -->
<g id="edge20" class="edge">
<title>Node14&#45;&gt;Node19</title>
<path fill="none" stroke="midnightblue" d="M500.63,-112.37C506.63,-94.54 520.5,-53.3 528.58,-29.27"/>
<polygon fill="midnightblue" stroke="midnightblue" points="531.97,-30.19 531.84,-19.59 525.33,-27.95 531.97,-30.19"/>
</g>
<!-- Node20 -->
<g id="node20" class="node">
<title>Node20</title>
<g id="a_node20"><a xlink:href="string_8h.html" target="_top" xlink:title=" ">
<polygon fill="white" stroke="black" points="556.73,-56.5 556.73,-75.5 652.73,-75.5 652.73,-56.5 556.73,-56.5"/>
<text text-anchor="middle" x="604.73" y="-63.5" font-family="Helvetica,sans-Serif" font-size="10.00">core/util/string.h</text>
</a>
</g>
</g>
<!-- Node14&#45;&gt;Node20 -->
<g id="edge21" class="edge">
<title>Node14&#45;&gt;Node20</title>
<path fill="none" stroke="midnightblue" d="M514.92,-112.32C532.08,-103.66 558.67,-90.24 578.47,-80.25"/>
<polygon fill="midnightblue" stroke="midnightblue" points="580.23,-83.28 587.58,-75.65 577.07,-77.04 580.23,-83.28"/>
</g>
<!-- Node20&#45;&gt;Node19 -->
<g id="edge23" class="edge">
<title>Node20&#45;&gt;Node19</title>
<path fill="none" stroke="midnightblue" d="M593.48,-56.32C582.93,-48.18 566.93,-35.84 554.29,-26.09"/>
<polygon fill="midnightblue" stroke="midnightblue" points="556.23,-23.17 546.18,-19.83 551.96,-28.71 556.23,-23.17"/>
</g>
<!-- Node21 -->
<g id="node21" class="node">
<title>Node21</title>
<g id="a_node21"><a xlink:title=" ">
<polygon fill="white" stroke="#bfbfbf" points="643.73,-0.5 643.73,-19.5 699.73,-19.5 699.73,-0.5 643.73,-0.5"/>
<text text-anchor="middle" x="671.73" y="-7.5" font-family="Helvetica,sans-Serif" font-size="10.00">sstream</text>
</a>
</g>
</g>
<!-- Node20&#45;&gt;Node21 -->
<g id="edge22" class="edge">
<title>Node20&#45;&gt;Node21</title>
<path fill="none" stroke="midnightblue" d="M615.49,-56.32C625.49,-48.26 640.61,-36.08 652.66,-26.37"/>
<polygon fill="midnightblue" stroke="midnightblue" points="655.18,-28.83 660.77,-19.83 650.78,-23.38 655.18,-28.83"/>
</g>
<!-- Node22 -->
<g id="node22" class="node">
<title>Node22</title>
<g id="a_node22"><a xlink:title=" ">
<polygon fill="white" stroke="#bfbfbf" points="578.23,-0.5 578.23,-19.5 625.23,-19.5 625.23,-0.5 578.23,-0.5"/>
<text text-anchor="middle" x="601.73" y="-7.5" font-family="Helvetica,sans-Serif" font-size="10.00">vector</text>
</a>
</g>
</g>
<!-- Node20&#45;&gt;Node22 -->
<g id="edge24" class="edge">
<title>Node20&#45;&gt;Node22</title>
<path fill="none" stroke="midnightblue" d="M604.23,-56.08C603.84,-49.01 603.28,-38.86 602.78,-29.99"/>
<polygon fill="midnightblue" stroke="midnightblue" points="606.26,-29.54 602.21,-19.75 599.27,-29.93 606.26,-29.54"/>
</g>
<!-- Node23&#45;&gt;Node14 -->
<g id="edge27" class="edge">
<title>Node23&#45;&gt;Node14</title>
<path fill="none" stroke="midnightblue" d="M564.87,-168.32C552.51,-159.98 533.6,-147.21 518.99,-137.35"/>
<polygon fill="midnightblue" stroke="midnightblue" points="520.8,-134.35 510.55,-131.65 516.88,-140.15 520.8,-134.35"/>
</g>
<!-- Node24 -->
<g id="node24" class="node">
<title>Node24</title>
<g id="a_node24"><a xlink:title=" ">
<polygon fill="white" stroke="#bfbfbf" points="557.23,-112.5 557.23,-131.5 614.23,-131.5 614.23,-112.5 557.23,-112.5"/>
<text text-anchor="middle" x="585.73" y="-119.5" font-family="Helvetica,sans-Serif" font-size="10.00">TClass.h</text>
</a>
</g>
</g>
<!-- Node23&#45;&gt;Node24 -->
<g id="edge26" class="edge">
<title>Node23&#45;&gt;Node24</title>
<path fill="none" stroke="midnightblue" d="M579.05,-168.08C580.11,-160.93 581.63,-150.64 582.96,-141.69"/>
<polygon fill="midnightblue" stroke="midnightblue" points="586.43,-142.16 584.43,-131.75 579.5,-141.13 586.43,-142.16"/>
</g>
</g>
</svg>
