<?xml version="1.0" encoding="UTF-8" standalone="no"?>
<!DOCTYPE svg PUBLIC "-//W3C//DTD SVG 1.1//EN"
 "http://www.w3.org/Graphics/SVG/1.1/DTD/svg11.dtd">
<!-- Generated by graphviz version 2.36.0 (20140111.2315)
 -->
<!-- Title: default_force.h Pages: 1 -->
<svg width="799pt" height="364pt"
 viewBox="0.00 0.00 799.00 364.00" xmlns="http://www.w3.org/2000/svg" xmlns:xlink="http://www.w3.org/1999/xlink">
<g id="graph0" class="graph" transform="scale(1 1) rotate(0) translate(4 360)">
<title>default_force.h</title>
<polygon fill="white" stroke="none" points="-4,4 -4,-360 795,-360 795,4 -4,4"/>
<!-- Node1 -->
<g id="node1" class="node"><title>Node1</title>
<polygon fill="#bfbfbf" stroke="black" points="444.5,-336.5 444.5,-355.5 525.5,-355.5 525.5,-336.5 444.5,-336.5"/>
<text text-anchor="middle" x="485" y="-343.5" font-family="Helvetica,sans-Serif" font-size="10.00">default_force.h</text>
</g>
<!-- Node2 -->
<g id="node2" class="node"><title>Node2</title>
<polygon fill="white" stroke="#bfbfbf" points="162,-280.5 162,-299.5 218,-299.5 218,-280.5 162,-280.5"/>
<text text-anchor="middle" x="190" y="-287.5" font-family="Helvetica,sans-Serif" font-size="10.00">algorithm</text>
</g>
<!-- Node1&#45;&gt;Node2 -->
<g id="edge1" class="edge"><title>Node1&#45;&gt;Node2</title>
<path fill="none" stroke="midnightblue" d="M444.178,-338.733C395.174,-331.021 310.294,-317.068 228.23,-300.149"/>
<polygon fill="midnightblue" stroke="midnightblue" points="228.741,-296.681 218.238,-298.072 227.316,-303.534 228.741,-296.681"/>
</g>
<!-- Node3 -->
<g id="node3" class="node"><title>Node3</title>
<polygon fill="white" stroke="#bfbfbf" points="319,-224.5 319,-243.5 363,-243.5 363,-224.5 319,-224.5"/>
<text text-anchor="middle" x="341" y="-231.5" font-family="Helvetica,sans-Serif" font-size="10.00">cmath</text>
</g>
<!-- Node1&#45;&gt;Node3 -->
<g id="edge2" class="edge"><title>Node1&#45;&gt;Node3</title>
<path fill="none" stroke="midnightblue" d="M469.598,-336.433C454.66,-327.883 431.59,-314.029 413,-300 392.549,-284.567 370.976,-264.52 356.838,-250.794"/>
<polygon fill="midnightblue" stroke="midnightblue" points="359.025,-248.036 349.438,-243.526 354.12,-253.03 359.025,-248.036"/>
</g>
<!-- Node4 -->
<g id="node4" class="node"><title>Node4</title>
<g id="a_node4"><a xlink:href="backend_8h.html" target="_top" xlink:title="backend.h">
<polygon fill="white" stroke="black" points="236,-280.5 236,-299.5 298,-299.5 298,-280.5 236,-280.5"/>
<text text-anchor="middle" x="267" y="-287.5" font-family="Helvetica,sans-Serif" font-size="10.00">backend.h</text>
</a>
</g>
</g>
<!-- Node1&#45;&gt;Node4 -->
<g id="edge3" class="edge"><title>Node1&#45;&gt;Node4</title>
<path fill="none" stroke="midnightblue" d="M450.457,-336.444C411.748,-326.855 349.042,-311.322 307.911,-301.134"/>
<polygon fill="midnightblue" stroke="midnightblue" points="308.751,-297.736 298.202,-298.729 307.067,-304.531 308.751,-297.736"/>
</g>
<!-- Node12 -->
<g id="node12" class="node"><title>Node12</title>
<g id="a_node12"><a xlink:href="log_8h.html" target="_top" xlink:title="log.h">
<polygon fill="white" stroke="black" points="568,-112.5 568,-131.5 606,-131.5 606,-112.5 568,-112.5"/>
<text text-anchor="middle" x="587" y="-119.5" font-family="Helvetica,sans-Serif" font-size="10.00">log.h</text>
</a>
</g>
</g>
<!-- Node1&#45;&gt;Node12 -->
<g id="edge19" class="edge"><title>Node1&#45;&gt;Node12</title>
<path fill="none" stroke="midnightblue" d="M525.661,-339.223C554.929,-333.377 594.021,-321.93 622,-300 668.2,-263.789 675.817,-244.426 692,-188 694.451,-179.456 696.893,-175.421 692,-168 675.282,-142.647 640.997,-131.523 616.142,-126.678"/>
<polygon fill="midnightblue" stroke="midnightblue" points="616.593,-123.204 606.145,-124.962 615.409,-130.103 616.593,-123.204"/>
</g>
<!-- Node19 -->
<g id="node19" class="node"><title>Node19</title>
<g id="a_node19"><a xlink:href="math__util_8h.html" target="_top" xlink:title="math_util.h">
<polygon fill="white" stroke="black" points="421.5,-280.5 421.5,-299.5 486.5,-299.5 486.5,-280.5 421.5,-280.5"/>
<text text-anchor="middle" x="454" y="-287.5" font-family="Helvetica,sans-Serif" font-size="10.00">math_util.h</text>
</a>
</g>
</g>
<!-- Node1&#45;&gt;Node19 -->
<g id="edge20" class="edge"><title>Node1&#45;&gt;Node19</title>
<path fill="none" stroke="midnightblue" d="M479.881,-336.083C475.592,-328.613 469.342,-317.724 464.058,-308.52"/>
<polygon fill="midnightblue" stroke="midnightblue" points="467.038,-306.681 459.024,-299.751 460.967,-310.166 467.038,-306.681"/>
</g>
<!-- Node22 -->
<g id="node22" class="node"><title>Node22</title>
<g id="a_node22"><a xlink:href="random_8h.html" target="_top" xlink:title="random.h">
<polygon fill="white" stroke="black" points="550.5,-224.5 550.5,-243.5 607.5,-243.5 607.5,-224.5 550.5,-224.5"/>
<text text-anchor="middle" x="579" y="-231.5" font-family="Helvetica,sans-Serif" font-size="10.00">random.h</text>
</a>
</g>
</g>
<!-- Node1&#45;&gt;Node22 -->
<g id="edge30" class="edge"><title>Node1&#45;&gt;Node22</title>
<path fill="none" stroke="midnightblue" d="M491.345,-336.374C500.748,-323.721 519.093,-299.513 536,-280 544.58,-270.098 554.678,-259.481 562.932,-251.048"/>
<polygon fill="midnightblue" stroke="midnightblue" points="565.629,-253.298 570.171,-243.726 560.651,-248.377 565.629,-253.298"/>
</g>
<!-- Node24 -->
<g id="node24" class="node"><title>Node24</title>
<g id="a_node24"><a xlink:href="shape_8h.html" target="_top" xlink:title="shape.h">
<polygon fill="white" stroke="black" points="740.5,-280.5 740.5,-299.5 791.5,-299.5 791.5,-280.5 740.5,-280.5"/>
<text text-anchor="middle" x="766" y="-287.5" font-family="Helvetica,sans-Serif" font-size="10.00">shape.h</text>
</a>
</g>
</g>
<!-- Node1&#45;&gt;Node24 -->
<g id="edge31" class="edge"><title>Node1&#45;&gt;Node24</title>
<path fill="none" stroke="midnightblue" d="M525.598,-337.889C573.571,-329.378 655.753,-314.456 726,-300 727.438,-299.704 728.904,-299.397 730.384,-299.084"/>
<polygon fill="midnightblue" stroke="midnightblue" points="731.18,-302.492 740.209,-296.949 729.694,-295.652 731.18,-302.492"/>
</g>
<!-- Node25 -->
<g id="node25" class="node"><title>Node25</title>
<g id="a_node25"><a xlink:href="simulation_8h.html" target="_top" xlink:title="simulation.h">
<polygon fill="white" stroke="black" points="544.5,-280.5 544.5,-299.5 613.5,-299.5 613.5,-280.5 544.5,-280.5"/>
<text text-anchor="middle" x="579" y="-287.5" font-family="Helvetica,sans-Serif" font-size="10.00">simulation.h</text>
</a>
</g>
</g>
<!-- Node1&#45;&gt;Node25 -->
<g id="edge32" class="edge"><title>Node1&#45;&gt;Node25</title>
<path fill="none" stroke="midnightblue" d="M500.103,-336.324C514.903,-327.822 537.694,-314.729 554.982,-304.797"/>
<polygon fill="midnightblue" stroke="midnightblue" points="557.007,-307.671 563.935,-299.655 553.52,-301.601 557.007,-307.671"/>
</g>
<!-- Node5 -->
<g id="node5" class="node"><title>Node5</title>
<polygon fill="white" stroke="#bfbfbf" points="-0.5,-224.5 -0.5,-243.5 58.5,-243.5 58.5,-224.5 -0.5,-224.5"/>
<text text-anchor="middle" x="29" y="-231.5" font-family="Helvetica,sans-Serif" font-size="10.00">exception</text>
</g>
<!-- Node4&#45;&gt;Node5 -->
<g id="edge4" class="edge"><title>Node4&#45;&gt;Node5</title>
<path fill="none" stroke="midnightblue" d="M235.968,-282.027C198.721,-273.648 134.101,-259.08 68.8565,-244.188"/>
<polygon fill="midnightblue" stroke="midnightblue" points="69.3357,-240.707 58.8074,-241.893 67.777,-247.532 69.3357,-240.707"/>
</g>
<!-- Node6 -->
<g id="node6" class="node"><title>Node6</title>
<polygon fill="white" stroke="#bfbfbf" points="77,-224.5 77,-243.5 129,-243.5 129,-224.5 77,-224.5"/>
<text text-anchor="middle" x="103" y="-231.5" font-family="Helvetica,sans-Serif" font-size="10.00">memory</text>
</g>
<!-- Node4&#45;&gt;Node6 -->
<g id="edge5" class="edge"><title>Node4&#45;&gt;Node6</title>
<path fill="none" stroke="midnightblue" d="M241.014,-280.444C213.304,-271.32 169.248,-256.813 138.384,-246.651"/>
<polygon fill="midnightblue" stroke="midnightblue" points="139.458,-243.32 128.865,-243.516 137.268,-249.968 139.458,-243.32"/>
</g>
<!-- Node7 -->
<g id="node7" class="node"><title>Node7</title>
<polygon fill="white" stroke="#bfbfbf" points="223,-224.5 223,-243.5 263,-243.5 263,-224.5 223,-224.5"/>
<text text-anchor="middle" x="243" y="-231.5" font-family="Helvetica,sans-Serif" font-size="10.00">utility</text>
</g>
<!-- Node4&#45;&gt;Node7 -->
<g id="edge6" class="edge"><title>Node4&#45;&gt;Node7</title>
<path fill="none" stroke="midnightblue" d="M263.037,-280.083C259.787,-272.77 255.081,-262.181 251.046,-253.103"/>
<polygon fill="midnightblue" stroke="midnightblue" points="254.149,-251.468 246.889,-243.751 247.752,-254.311 254.149,-251.468"/>
</g>
<!-- Node8 -->
<g id="node8" class="node"><title>Node8</title>
<polygon fill="white" stroke="#bfbfbf" points="381,-224.5 381,-243.5 425,-243.5 425,-224.5 381,-224.5"/>
<text text-anchor="middle" x="403" y="-231.5" font-family="Helvetica,sans-Serif" font-size="10.00">vector</text>
</g>
<!-- Node4&#45;&gt;Node8 -->
<g id="edge7" class="edge"><title>Node4&#45;&gt;Node8</title>
<path fill="none" stroke="midnightblue" d="M288.55,-280.444C311.031,-271.517 346.488,-257.439 371.98,-247.317"/>
<polygon fill="midnightblue" stroke="midnightblue" points="373.549,-250.46 381.551,-243.516 370.965,-243.954 373.549,-250.46"/>
</g>
<!-- Node9 -->
<g id="node9" class="node"><title>Node9</title>
<g id="a_node9"><a xlink:href="macros_8h.html" target="_top" xlink:title="macros.h">
<polygon fill="white" stroke="black" points="147.5,-224.5 147.5,-243.5 204.5,-243.5 204.5,-224.5 147.5,-224.5"/>
<text text-anchor="middle" x="176" y="-231.5" font-family="Helvetica,sans-Serif" font-size="10.00">macros.h</text>
</a>
</g>
</g>
<!-- Node4&#45;&gt;Node9 -->
<g id="edge8" class="edge"><title>Node4&#45;&gt;Node9</title>
<path fill="none" stroke="midnightblue" d="M252.379,-280.324C238.051,-271.822 215.987,-258.729 199.251,-248.797"/>
<polygon fill="midnightblue" stroke="midnightblue" points="200.97,-245.748 190.584,-243.655 197.398,-251.768 200.97,-245.748"/>
</g>
<!-- Node11 -->
<g id="node11" class="node"><title>Node11</title>
<g id="a_node11"><a xlink:href="root__util_8h.html" target="_top" xlink:title="root_util.h">
<polygon fill="white" stroke="black" points="533.5,-168.5 533.5,-187.5 592.5,-187.5 592.5,-168.5 533.5,-168.5"/>
<text text-anchor="middle" x="563" y="-175.5" font-family="Helvetica,sans-Serif" font-size="10.00">root_util.h</text>
</a>
</g>
</g>
<!-- Node4&#45;&gt;Node11 -->
<g id="edge10" class="edge"><title>Node4&#45;&gt;Node11</title>
<path fill="none" stroke="midnightblue" d="M270.169,-280.177C275.797,-265.869 288.965,-237.817 310,-224 327.565,-212.462 456.328,-193.531 523.088,-184.34"/>
<polygon fill="midnightblue" stroke="midnightblue" points="523.81,-187.774 533.243,-182.951 522.861,-180.839 523.81,-187.774"/>
</g>
<!-- Node10 -->
<g id="node10" class="node"><title>Node10</title>
<polygon fill="white" stroke="#bfbfbf" points="140,-168.5 140,-187.5 212,-187.5 212,-168.5 140,-168.5"/>
<text text-anchor="middle" x="176" y="-175.5" font-family="Helvetica,sans-Serif" font-size="10.00">cpp_magic.h</text>
</g>
<!-- Node9&#45;&gt;Node10 -->
<g id="edge9" class="edge"><title>Node9&#45;&gt;Node10</title>
<path fill="none" stroke="midnightblue" d="M176,-224.083C176,-217.006 176,-206.861 176,-197.986"/>
<polygon fill="midnightblue" stroke="midnightblue" points="179.5,-197.751 176,-187.751 172.5,-197.751 179.5,-197.751"/>
</g>
<!-- Node11&#45;&gt;Node12 -->
<g id="edge11" class="edge"><title>Node11&#45;&gt;Node12</title>
<path fill="none" stroke="midnightblue" d="M566.963,-168.083C570.213,-160.77 574.919,-150.181 578.954,-141.103"/>
<polygon fill="midnightblue" stroke="midnightblue" points="582.248,-142.311 583.111,-131.751 575.851,-139.468 582.248,-142.311"/>
</g>
<!-- Node13 -->
<g id="node13" class="node"><title>Node13</title>
<polygon fill="white" stroke="#bfbfbf" points="632,-56.5 632,-75.5 684,-75.5 684,-56.5 632,-56.5"/>
<text text-anchor="middle" x="658" y="-63.5" font-family="Helvetica,sans-Serif" font-size="10.00">TError.h</text>
</g>
<!-- Node12&#45;&gt;Node13 -->
<g id="edge12" class="edge"><title>Node12&#45;&gt;Node13</title>
<path fill="none" stroke="midnightblue" d="M598.407,-112.324C609.109,-104.185 625.341,-91.8395 638.163,-82.0874"/>
<polygon fill="midnightblue" stroke="midnightblue" points="640.544,-84.6734 646.385,-75.8339 636.307,-79.1018 640.544,-84.6734"/>
</g>
<!-- Node14 -->
<g id="node14" class="node"><title>Node14</title>
<polygon fill="white" stroke="#bfbfbf" points="413.5,-56.5 413.5,-75.5 456.5,-75.5 456.5,-56.5 413.5,-56.5"/>
<text text-anchor="middle" x="435" y="-63.5" font-family="Helvetica,sans-Serif" font-size="10.00">cstdio</text>
</g>
<!-- Node12&#45;&gt;Node14 -->
<g id="edge13" class="edge"><title>Node12&#45;&gt;Node14</title>
<path fill="none" stroke="midnightblue" d="M567.749,-114.161C542.198,-105.084 496.766,-88.9432 466.263,-78.1065"/>
<polygon fill="midnightblue" stroke="midnightblue" points="467.136,-74.7024 456.541,-74.6527 464.792,-81.2985 467.136,-74.7024"/>
</g>
<!-- Node15 -->
<g id="node15" class="node"><title>Node15</title>
<polygon fill="white" stroke="#bfbfbf" points="560,-56.5 560,-75.5 614,-75.5 614,-56.5 560,-56.5"/>
<text text-anchor="middle" x="587" y="-63.5" font-family="Helvetica,sans-Serif" font-size="10.00">iostream</text>
</g>
<!-- Node12&#45;&gt;Node15 -->
<g id="edge14" class="edge"><title>Node12&#45;&gt;Node15</title>
<path fill="none" stroke="midnightblue" d="M587,-112.083C587,-105.006 587,-94.8611 587,-85.9865"/>
<polygon fill="midnightblue" stroke="midnightblue" points="590.5,-85.751 587,-75.7511 583.5,-85.7511 590.5,-85.751"/>
</g>
<!-- Node16 -->
<g id="node16" class="node"><title>Node16</title>
<polygon fill="white" stroke="#bfbfbf" points="691.5,-0.5 691.5,-19.5 732.5,-19.5 732.5,-0.5 691.5,-0.5"/>
<text text-anchor="middle" x="712" y="-7.5" font-family="Helvetica,sans-Serif" font-size="10.00">string</text>
</g>
<!-- Node12&#45;&gt;Node16 -->
<g id="edge15" class="edge"><title>Node12&#45;&gt;Node16</title>
<path fill="none" stroke="midnightblue" d="M606.367,-117.944C630.154,-113.177 670.149,-101.696 693,-76 704.343,-63.2444 708.931,-44.0502 710.778,-29.8233"/>
<polygon fill="midnightblue" stroke="midnightblue" points="714.278,-29.9847 711.748,-19.6965 707.31,-29.3172 714.278,-29.9847"/>
</g>
<!-- Node17 -->
<g id="node17" class="node"><title>Node17</title>
<g id="a_node17"><a xlink:href="string__util_8h.html" target="_top" xlink:title="string_util.h">
<polygon fill="white" stroke="black" points="474.5,-56.5 474.5,-75.5 541.5,-75.5 541.5,-56.5 474.5,-56.5"/>
<text text-anchor="middle" x="508" y="-63.5" font-family="Helvetica,sans-Serif" font-size="10.00">string_util.h</text>
</a>
</g>
</g>
<!-- Node12&#45;&gt;Node17 -->
<g id="edge16" class="edge"><title>Node12&#45;&gt;Node17</title>
<path fill="none" stroke="midnightblue" d="M574.307,-112.324C562.099,-103.979 543.422,-91.2122 528.997,-81.3524"/>
<polygon fill="midnightblue" stroke="midnightblue" points="530.892,-78.4082 520.661,-75.6545 526.942,-84.1871 530.892,-78.4082"/>
</g>
<!-- Node17&#45;&gt;Node16 -->
<g id="edge18" class="edge"><title>Node17&#45;&gt;Node16</title>
<path fill="none" stroke="midnightblue" d="M540.324,-56.4435C579.04,-46.1953 643.409,-29.1565 681.361,-19.1103"/>
<polygon fill="midnightblue" stroke="midnightblue" points="682.551,-22.4161 691.322,-16.4736 680.759,-15.6491 682.551,-22.4161"/>
</g>
<!-- Node18 -->
<g id="node18" class="node"><title>Node18</title>
<polygon fill="white" stroke="#bfbfbf" points="482,-0.5 482,-19.5 534,-19.5 534,-0.5 482,-0.5"/>
<text text-anchor="middle" x="508" y="-7.5" font-family="Helvetica,sans-Serif" font-size="10.00">sstream</text>
</g>
<!-- Node17&#45;&gt;Node18 -->
<g id="edge17" class="edge"><title>Node17&#45;&gt;Node18</title>
<path fill="none" stroke="midnightblue" d="M508,-56.083C508,-49.0059 508,-38.8611 508,-29.9865"/>
<polygon fill="midnightblue" stroke="midnightblue" points="511.5,-29.751 508,-19.7511 504.5,-29.7511 511.5,-29.751"/>
</g>
<!-- Node19&#45;&gt;Node3 -->
<g id="edge22" class="edge"><title>Node19&#45;&gt;Node3</title>
<path fill="none" stroke="midnightblue" d="M436.095,-280.444C417.746,-271.675 388.995,-257.935 367.906,-247.858"/>
<polygon fill="midnightblue" stroke="midnightblue" points="369.353,-244.67 358.821,-243.516 366.335,-250.986 369.353,-244.67"/>
</g>
<!-- Node19&#45;&gt;Node8 -->
<g id="edge24" class="edge"><title>Node19&#45;&gt;Node8</title>
<path fill="none" stroke="midnightblue" d="M445.578,-280.083C438.152,-272.22 427.148,-260.569 418.188,-251.081"/>
<polygon fill="midnightblue" stroke="midnightblue" points="420.676,-248.618 411.265,-243.751 415.587,-253.424 420.676,-248.618"/>
</g>
<!-- Node20 -->
<g id="node20" class="node"><title>Node20</title>
<polygon fill="white" stroke="#bfbfbf" points="435,-168.5 435,-187.5 473,-187.5 473,-168.5 435,-168.5"/>
<text text-anchor="middle" x="454" y="-175.5" font-family="Helvetica,sans-Serif" font-size="10.00">array</text>
</g>
<!-- Node19&#45;&gt;Node20 -->
<g id="edge21" class="edge"><title>Node19&#45;&gt;Node20</title>
<path fill="none" stroke="midnightblue" d="M454,-280.368C454,-262.617 454,-221.666 454,-197.597"/>
<polygon fill="midnightblue" stroke="midnightblue" points="457.5,-197.591 454,-187.591 450.5,-197.591 457.5,-197.591"/>
</g>
<!-- Node21 -->
<g id="node21" class="node"><title>Node21</title>
<polygon fill="white" stroke="#bfbfbf" points="481.5,-224.5 481.5,-243.5 532.5,-243.5 532.5,-224.5 481.5,-224.5"/>
<text text-anchor="middle" x="507" y="-231.5" font-family="Helvetica,sans-Serif" font-size="10.00">numeric</text>
</g>
<!-- Node19&#45;&gt;Node21 -->
<g id="edge23" class="edge"><title>Node19&#45;&gt;Node21</title>
<path fill="none" stroke="midnightblue" d="M462.752,-280.083C470.47,-272.22 481.905,-260.569 491.217,-251.081"/>
<polygon fill="midnightblue" stroke="midnightblue" points="493.904,-253.34 498.411,-243.751 488.908,-248.436 493.904,-253.34"/>
</g>
<!-- Node19&#45;&gt;Node22 -->
<g id="edge25" class="edge"><title>Node19&#45;&gt;Node22</title>
<path fill="none" stroke="midnightblue" d="M473.807,-280.444C494.287,-271.596 526.483,-257.687 549.865,-247.586"/>
<polygon fill="midnightblue" stroke="midnightblue" points="551.494,-250.695 559.286,-243.516 548.718,-244.269 551.494,-250.695"/>
</g>
<!-- Node22&#45;&gt;Node11 -->
<g id="edge29" class="edge"><title>Node22&#45;&gt;Node11</title>
<path fill="none" stroke="midnightblue" d="M576.358,-224.083C574.214,-216.849 571.121,-206.409 568.451,-197.397"/>
<polygon fill="midnightblue" stroke="midnightblue" points="571.79,-196.345 565.593,-187.751 565.078,-198.333 571.79,-196.345"/>
</g>
<!-- Node22&#45;&gt;Node14 -->
<g id="edge27" class="edge"><title>Node22&#45;&gt;Node14</title>
<path fill="none" stroke="midnightblue" d="M567.145,-224.423C555.716,-215.864 538.253,-202.005 525,-188 492.911,-154.088 461.856,-108.707 445.966,-84.2916"/>
<polygon fill="midnightblue" stroke="midnightblue" points="448.826,-82.269 440.472,-75.7527 442.939,-86.0563 448.826,-82.269"/>
</g>
<!-- Node22&#45;&gt;Node20 -->
<g id="edge26" class="edge"><title>Node22&#45;&gt;Node20</title>
<path fill="none" stroke="midnightblue" d="M559.193,-224.444C538.593,-215.544 506.138,-201.524 482.724,-191.409"/>
<polygon fill="midnightblue" stroke="midnightblue" points="483.871,-188.092 473.303,-187.339 481.095,-194.518 483.871,-188.092"/>
</g>
<!-- Node23 -->
<g id="node23" class="node"><title>Node23</title>
<polygon fill="white" stroke="#bfbfbf" points="610.5,-168.5 610.5,-187.5 683.5,-187.5 683.5,-168.5 610.5,-168.5"/>
<text text-anchor="middle" x="647" y="-175.5" font-family="Helvetica,sans-Serif" font-size="10.00">TRandom3.h</text>
</g>
<!-- Node22&#45;&gt;Node23 -->
<g id="edge28" class="edge"><title>Node22&#45;&gt;Node23</title>
<path fill="none" stroke="midnightblue" d="M589.925,-224.324C600.175,-216.185 615.721,-203.839 628.001,-194.087"/>
<polygon fill="midnightblue" stroke="midnightblue" points="630.221,-196.794 635.876,-187.834 625.868,-191.312 630.221,-196.794"/>
</g>
<!-- Node25&#45;&gt;Node8 -->
<g id="edge34" class="edge"><title>Node25&#45;&gt;Node8</title>
<path fill="none" stroke="midnightblue" d="M551.112,-280.444C519.489,-270.741 468.029,-254.952 434.852,-244.773"/>
<polygon fill="midnightblue" stroke="midnightblue" points="435.771,-241.394 425.185,-241.807 433.718,-248.086 435.771,-241.394"/>
</g>
<!-- Node25&#45;&gt;Node11 -->
<g id="edge36" class="edge"><title>Node25&#45;&gt;Node11</title>
<path fill="none" stroke="midnightblue" d="M589.915,-280.416C604.027,-268.207 625.707,-244.976 616,-224 610.08,-211.207 598.532,-200.722 587.722,-193.1"/>
<polygon fill="midnightblue" stroke="midnightblue" points="589.618,-190.158 579.334,-187.613 585.786,-196.016 589.618,-190.158"/>
</g>
<!-- Node25&#45;&gt;Node16 -->
<g id="edge33" class="edge"><title>Node25&#45;&gt;Node16</title>
<path fill="none" stroke="midnightblue" d="M594.038,-280.342C618.933,-265.138 668.306,-231.124 692,-188 720.24,-136.601 717.616,-64.2226 714.358,-30.1528"/>
<polygon fill="midnightblue" stroke="midnightblue" points="717.792,-29.3583 713.228,-19.7967 710.833,-30.1172 717.792,-29.3583"/>
</g>
<!-- Node25&#45;&gt;Node22 -->
<g id="edge35" class="edge"><title>Node25&#45;&gt;Node22</title>
<path fill="none" stroke="midnightblue" d="M579,-280.083C579,-273.006 579,-262.861 579,-253.986"/>
<polygon fill="midnightblue" stroke="midnightblue" points="582.5,-253.751 579,-243.751 575.5,-253.751 582.5,-253.751"/>
</g>
</g>
</svg>
