<?xml version="1.0" encoding="UTF-8" standalone="no"?>
<!DOCTYPE svg PUBLIC "-//W3C//DTD SVG 1.1//EN"
 "http://www.w3.org/Graphics/SVG/1.1/DTD/svg11.dtd">
<!-- Generated by graphviz version 2.40.1 (20161225.0304)
 -->
<!-- Title: core/diffusion_grid.h Pages: 1 -->
<svg width="2075pt" height="385pt"
 viewBox="0.00 0.00 2074.84 385.00" xmlns="http://www.w3.org/2000/svg" xmlns:xlink="http://www.w3.org/1999/xlink">
<g id="graph0" class="graph" transform="scale(1 1) rotate(0) translate(4 381)">
<title>core/diffusion_grid.h</title>
<polygon fill="#ffffff" stroke="transparent" points="-4,4 -4,-381 2070.8444,-381 2070.8444,4 -4,4"/>
<!-- Node55 -->
<g id="node1" class="node">
<title>Node55</title>
<polygon fill="#bfbfbf" stroke="#000000" points="1054.3444,-357.5 1054.3444,-376.5 1158.3444,-376.5 1158.3444,-357.5 1054.3444,-357.5"/>
<text text-anchor="middle" x="1106.3444" y="-364.5" font-family="Helvetica,sans-Serif" font-size="10.00" fill="#000000">core/diffusion_grid.h</text>
</g>
<!-- Node56 -->
<g id="node2" class="node">
<title>Node56</title>
<g id="a_node2"><a xlink:href="chemotaxis_8h.html" target="_top" xlink:title="core/behavior/chemotaxis.h">
<polygon fill="#ffffff" stroke="#000000" points="788.8444,-290.5 788.8444,-309.5 925.8444,-309.5 925.8444,-290.5 788.8444,-290.5"/>
<text text-anchor="middle" x="857.3444" y="-297.5" font-family="Helvetica,sans-Serif" font-size="10.00" fill="#000000">core/behavior/chemotaxis.h</text>
</a>
</g>
</g>
<!-- Node55&#45;&gt;Node56 -->
<g id="edge1" class="edge">
<title>Node55&#45;&gt;Node56</title>
<path fill="none" stroke="#191970" d="M1061.0629,-354.8158C1012.7752,-341.8228 937.2925,-321.5122 893.0366,-309.6039"/>
<polygon fill="#191970" stroke="#191970" points="1060.3672,-358.2531 1070.9332,-357.4717 1062.1861,-351.4935 1060.3672,-358.2531"/>
</g>
<!-- Node58 -->
<g id="node4" class="node">
<title>Node58</title>
<g id="a_node4"><a xlink:href="secretion_8h.html" target="_top" xlink:title="core/behavior/secretion.h">
<polygon fill="#ffffff" stroke="#000000" points="13.3444,-290.5 13.3444,-309.5 139.3444,-309.5 139.3444,-290.5 13.3444,-290.5"/>
<text text-anchor="middle" x="76.3444" y="-297.5" font-family="Helvetica,sans-Serif" font-size="10.00" fill="#000000">core/behavior/secretion.h</text>
</a>
</g>
</g>
<!-- Node55&#45;&gt;Node58 -->
<g id="edge3" class="edge">
<title>Node55&#45;&gt;Node58</title>
<path fill="none" stroke="#191970" d="M1044.1939,-362.9572C860.8892,-351.0335 323.7865,-316.0957 139.3661,-304.0995"/>
<polygon fill="#191970" stroke="#191970" points="1044,-366.4519 1054.2061,-363.6085 1044.4544,-359.4667 1044,-366.4519"/>
</g>
<!-- Node59 -->
<g id="node5" class="node">
<title>Node59</title>
<g id="a_node5"><a xlink:href="resource__manager_8h.html" target="_top" xlink:title="core/resource_manager.h">
<polygon fill="#ffffff" stroke="#000000" points="1042.8444,-290.5 1042.8444,-309.5 1169.8444,-309.5 1169.8444,-290.5 1042.8444,-290.5"/>
<text text-anchor="middle" x="1106.3444" y="-297.5" font-family="Helvetica,sans-Serif" font-size="10.00" fill="#000000">core/resource_manager.h</text>
</a>
</g>
</g>
<!-- Node55&#45;&gt;Node59 -->
<g id="edge5" class="edge">
<title>Node55&#45;&gt;Node59</title>
<path fill="none" stroke="#191970" d="M1106.3444,-347.1079C1106.3444,-334.714 1106.3444,-319.3263 1106.3444,-309.5817"/>
<polygon fill="#191970" stroke="#191970" points="1102.8445,-347.4005 1106.3444,-357.4005 1109.8445,-347.4006 1102.8445,-347.4005"/>
</g>
<!-- Node67 -->
<g id="node13" class="node">
<title>Node67</title>
<g id="a_node13"><a xlink:href="diffusion__op_8h.html" target="_top" xlink:title="core/operation/diffusion_op.h">
<polygon fill="#ffffff" stroke="#000000" points="1319.3444,-140 1319.3444,-159 1461.3444,-159 1461.3444,-140 1319.3444,-140"/>
<text text-anchor="middle" x="1390.3444" y="-147" font-family="Helvetica,sans-Serif" font-size="10.00" fill="#000000">core/operation/diffusion_op.h</text>
</a>
</g>
</g>
<!-- Node55&#45;&gt;Node67 -->
<g id="edge50" class="edge">
<title>Node55&#45;&gt;Node67</title>
<path fill="none" stroke="#191970" d="M1168.8088,-359.0089C1280.6043,-343.2861 1507.6107,-304.4261 1554.3444,-243 1565.6469,-228.1441 1565.3909,-216.0472 1554.3444,-201 1540.9224,-182.717 1485.6227,-167.9893 1442.9067,-159.0405"/>
<polygon fill="#191970" stroke="#191970" points="1168.1084,-355.5725 1158.6844,-360.4138 1169.0705,-362.506 1168.1084,-355.5725"/>
</g>
<!-- Node71 -->
<g id="node17" class="node">
<title>Node71</title>
<g id="a_node17"><a xlink:href="model__initializer_8h.html" target="_top" xlink:title="core/model_initializer.h">
<polygon fill="#ffffff" stroke="#000000" points="15.3444,-212.5 15.3444,-231.5 131.3444,-231.5 131.3444,-212.5 15.3444,-212.5"/>
<text text-anchor="middle" x="73.3444" y="-219.5" font-family="Helvetica,sans-Serif" font-size="10.00" fill="#000000">core/model_initializer.h</text>
</a>
</g>
</g>
<!-- Node55&#45;&gt;Node71 -->
<g id="edge49" class="edge">
<title>Node55&#45;&gt;Node71</title>
<path fill="none" stroke="#191970" d="M1044.1146,-362.3442C890.3333,-350.1106 480.5564,-313.0678 145.3444,-243 130.9421,-239.9896 115.2259,-235.5451 102.1618,-231.5192"/>
<polygon fill="#191970" stroke="#191970" points="1044.0611,-365.8508 1054.3054,-363.1483 1044.6117,-358.8725 1044.0611,-365.8508"/>
</g>
<!-- Node82 -->
<g id="node28" class="node">
<title>Node82</title>
<g id="a_node28"><a xlink:href="substance__initializers_8h.html" target="_top" xlink:title="core/substance_initializers.h">
<polygon fill="#ffffff" stroke="#000000" points="1813.3444,-290.5 1813.3444,-309.5 1953.3444,-309.5 1953.3444,-290.5 1813.3444,-290.5"/>
<text text-anchor="middle" x="1883.3444" y="-297.5" font-family="Helvetica,sans-Serif" font-size="10.00" fill="#000000">core/substance_initializers.h</text>
</a>
</g>
</g>
<!-- Node55&#45;&gt;Node82 -->
<g id="edge51" class="edge">
<title>Node55&#45;&gt;Node82</title>
<path fill="none" stroke="#191970" d="M1168.594,-364.4482C1315.9512,-358.157 1682.854,-340.9566 1804.3444,-321 1820.5889,-318.3316 1838.3323,-313.7697 1852.8808,-309.5781"/>
<polygon fill="#191970" stroke="#191970" points="1168.2126,-360.9612 1158.37,-364.8822 1168.5095,-367.9549 1168.2126,-360.9612"/>
</g>
<!-- Node83 -->
<g id="node29" class="node">
<title>Node83</title>
<g id="a_node29"><a xlink:href="vtk__diffusion__grid_8h.html" target="_top" xlink:title="core/visualization\l/paraview/vtk_diffusion\l_grid.h">
<polygon fill="#ffffff" stroke="#000000" points="1677.8444,-279.5 1677.8444,-320.5 1794.8444,-320.5 1794.8444,-279.5 1677.8444,-279.5"/>
<text text-anchor="start" x="1685.8444" y="-308.5" font-family="Helvetica,sans-Serif" font-size="10.00" fill="#000000">core/visualization</text>
<text text-anchor="start" x="1685.8444" y="-297.5" font-family="Helvetica,sans-Serif" font-size="10.00" fill="#000000">/paraview/vtk_diffusion</text>
<text text-anchor="middle" x="1736.3444" y="-286.5" font-family="Helvetica,sans-Serif" font-size="10.00" fill="#000000">_grid.h</text>
</a>
</g>
</g>
<!-- Node55&#45;&gt;Node83 -->
<g id="edge52" class="edge">
<title>Node55&#45;&gt;Node83</title>
<path fill="none" stroke="#191970" d="M1168.911,-365.8542C1272.5326,-363.061 1485.9512,-353.5099 1663.3444,-321 1668.0141,-320.1442 1672.8141,-319.1138 1677.6154,-317.9749"/>
<polygon fill="#191970" stroke="#191970" points="1168.5359,-362.3626 1158.6292,-366.1188 1168.716,-369.3603 1168.5359,-362.3626"/>
</g>
<!-- Node57 -->
<g id="node3" class="node">
<title>Node57</title>
<g id="a_node3"><a xlink:href="biodynamo_8h.html" target="_top" xlink:title="biodynamo.h">
<polygon fill="#ffffff" stroke="#000000" points="142.3444,-73 142.3444,-92 214.3444,-92 214.3444,-73 142.3444,-73"/>
<text text-anchor="middle" x="178.3444" y="-80" font-family="Helvetica,sans-Serif" font-size="10.00" fill="#000000">biodynamo.h</text>
</a>
</g>
</g>
<!-- Node56&#45;&gt;Node57 -->
<g id="edge2" class="edge">
<title>Node56&#45;&gt;Node57</title>
<path fill="none" stroke="#191970" d="M778.4548,-294.6973C602.6914,-282.7022 193.4882,-253.6986 183.3444,-243 143.0637,-200.5162 165.504,-119.7299 174.869,-92.069"/>
<polygon fill="#191970" stroke="#191970" points="778.4609,-298.2057 788.6757,-295.3936 778.9368,-291.2219 778.4609,-298.2057"/>
</g>
<!-- Node58&#45;&gt;Node57 -->
<g id="edge4" class="edge">
<title>Node58&#45;&gt;Node57</title>
<path fill="none" stroke="#191970" d="M48.0671,-285.2553C32.6571,-275.5313 15.0054,-261.2219 6.3444,-243 -1.669,-226.1409 -2.3377,-217.5247 6.3444,-201 36.8716,-142.8972 110.2131,-107.7181 150.5664,-92.0923"/>
<polygon fill="#191970" stroke="#191970" points="46.4121,-288.3432 56.7962,-290.4457 49.9897,-282.3265 46.4121,-288.3432"/>
</g>
<!-- Node59&#45;&gt;Node57 -->
<g id="edge25" class="edge">
<title>Node59&#45;&gt;Node57</title>
<path fill="none" stroke="#191970" d="M1032.6405,-289.9452C1002.249,-286.0744 966.6481,-281.8934 934.3444,-279 794.8961,-266.5096 434.9228,-296.0214 305.3444,-243 256.6652,-223.0813 247.8142,-207.1435 216.3444,-165 198.7008,-141.3722 186.5572,-108.2424 181.2927,-92.0999"/>
<polygon fill="#191970" stroke="#191970" points="1032.3703,-293.4392 1042.7352,-291.2437 1033.2634,-286.4964 1032.3703,-293.4392"/>
</g>
<!-- Node60 -->
<g id="node6" class="node">
<title>Node60</title>
<g id="a_node6"><a xlink:href="environment_8h.html" target="_top" xlink:title="core/environment/environment.h">
<polygon fill="#ffffff" stroke="#000000" points="823.3444,-212.5 823.3444,-231.5 979.3444,-231.5 979.3444,-212.5 823.3444,-212.5"/>
<text text-anchor="middle" x="901.3444" y="-219.5" font-family="Helvetica,sans-Serif" font-size="10.00" fill="#000000">core/environment/environment.h</text>
</a>
</g>
</g>
<!-- Node59&#45;&gt;Node60 -->
<g id="edge6" class="edge">
<title>Node59&#45;&gt;Node60</title>
<path fill="none" stroke="#191970" d="M1071.8489,-286.8749C1030.6746,-271.2086 962.8238,-245.3922 926.366,-231.5204"/>
<polygon fill="#191970" stroke="#191970" points="1070.6164,-290.1507 1081.2074,-290.4357 1073.1057,-283.6082 1070.6164,-290.1507"/>
</g>
<!-- Node61 -->
<g id="node7" class="node">
<title>Node61</title>
<g id="a_node7"><a xlink:href="agent_8cc.html" target="_top" xlink:title="core/agent/agent.cc">
<polygon fill="#ffffff" stroke="#000000" points="1013.8444,-140 1013.8444,-159 1116.8444,-159 1116.8444,-140 1013.8444,-140"/>
<text text-anchor="middle" x="1065.3444" y="-147" font-family="Helvetica,sans-Serif" font-size="10.00" fill="#000000">core/agent/agent.cc</text>
</a>
</g>
</g>
<!-- Node59&#45;&gt;Node61 -->
<g id="edge31" class="edge">
<title>Node59&#45;&gt;Node61</title>
<path fill="none" stroke="#191970" d="M1084.1237,-284.0231C1071.9406,-273.8358 1057.996,-259.473 1051.3444,-243 1039.6678,-214.0827 1053.0354,-176.5857 1060.7042,-159.1735"/>
<polygon fill="#191970" stroke="#191970" points="1082.1508,-286.9252 1092.1654,-290.3835 1086.4932,-281.4348 1082.1508,-286.9252"/>
</g>
<!-- Node62 -->
<g id="node8" class="node">
<title>Node62</title>
<g id="a_node8"><a xlink:href="uniform__grid__environment_8h.html" target="_top" xlink:title="core/environment/uniform\l_grid_environment.h">
<polygon fill="#ffffff" stroke="#000000" points="1173.8444,-134.5 1173.8444,-164.5 1300.8444,-164.5 1300.8444,-134.5 1173.8444,-134.5"/>
<text text-anchor="start" x="1181.8444" y="-152.5" font-family="Helvetica,sans-Serif" font-size="10.00" fill="#000000">core/environment/uniform</text>
<text text-anchor="middle" x="1237.3444" y="-141.5" font-family="Helvetica,sans-Serif" font-size="10.00" fill="#000000">_grid_environment.h</text>
</a>
</g>
</g>
<!-- Node59&#45;&gt;Node62 -->
<g id="edge34" class="edge">
<title>Node59&#45;&gt;Node62</title>
<path fill="none" stroke="#191970" d="M1145.3472,-286.5175C1166.7059,-277.3077 1192.0644,-263.0918 1208.3444,-243 1227.0686,-219.8916 1233.745,-184.6842 1236.0954,-164.7179"/>
<polygon fill="#191970" stroke="#191970" points="1143.7909,-283.3726 1135.8621,-290.4 1146.4427,-289.8509 1143.7909,-283.3726"/>
</g>
<!-- Node63 -->
<g id="node9" class="node">
<title>Node63</title>
<g id="a_node9"><a xlink:href="mechanical__forces__op__cuda_8h.html" target="_top" xlink:title="core/operation/mechanical\l_forces_op_cuda.h">
<polygon fill="#ffffff" stroke="#000000" points="1186.8444,-67.5 1186.8444,-97.5 1317.8444,-97.5 1317.8444,-67.5 1186.8444,-67.5"/>
<text text-anchor="start" x="1194.8444" y="-85.5" font-family="Helvetica,sans-Serif" font-size="10.00" fill="#000000">core/operation/mechanical</text>
<text text-anchor="middle" x="1252.3444" y="-74.5" font-family="Helvetica,sans-Serif" font-size="10.00" fill="#000000">_forces_op_cuda.h</text>
</a>
</g>
</g>
<!-- Node59&#45;&gt;Node63 -->
<g id="edge40" class="edge">
<title>Node59&#45;&gt;Node63</title>
<path fill="none" stroke="#191970" d="M1180.5926,-295.8394C1301.5279,-288.2967 1530.079,-270.5484 1554.3444,-243 1628.7149,-158.5676 1427.5022,-111.1893 1317.9476,-92.2721"/>
<polygon fill="#191970" stroke="#191970" points="1180.0664,-292.3651 1170.3003,-296.4729 1180.4965,-299.3518 1180.0664,-292.3651"/>
</g>
<!-- Node65 -->
<g id="node11" class="node">
<title>Node65</title>
<g id="a_node11"><a xlink:href="simulation_8cc.html" target="_top" xlink:title="core/simulation.cc">
<polygon fill="#ffffff" stroke="#000000" points="568.3444,-73 568.3444,-92 664.3444,-92 664.3444,-73 568.3444,-73"/>
<text text-anchor="middle" x="616.3444" y="-80" font-family="Helvetica,sans-Serif" font-size="10.00" fill="#000000">core/simulation.cc</text>
</a>
</g>
</g>
<!-- Node59&#45;&gt;Node65 -->
<g id="edge43" class="edge">
<title>Node59&#45;&gt;Node65</title>
<path fill="none" stroke="#191970" d="M1032.5416,-290.8926C1002.1352,-287.1656 966.5498,-282.836 934.3444,-279 796.6142,-262.595 757.9155,-280.3827 624.3444,-243 544.2915,-220.5955 499.2254,-234.9722 454.3444,-165 424.6944,-118.7739 510.1898,-97.2734 568.0024,-88.2425"/>
<polygon fill="#191970" stroke="#191970" points="1032.2907,-294.388 1042.6425,-292.1319 1033.1432,-287.4401 1032.2907,-294.388"/>
</g>
<!-- Node66 -->
<g id="node12" class="node">
<title>Node66</title>
<g id="a_node12"><a xlink:href="in__place__exec__ctxt_8cc.html" target="_top" xlink:title="core/execution_context\l/in_place_exec_ctxt.cc">
<polygon fill="#ffffff" stroke="#000000" points="463.3444,-134.5 463.3444,-164.5 581.3444,-164.5 581.3444,-134.5 463.3444,-134.5"/>
<text text-anchor="start" x="471.3444" y="-152.5" font-family="Helvetica,sans-Serif" font-size="10.00" fill="#000000">core/execution_context</text>
<text text-anchor="middle" x="522.3444" y="-141.5" font-family="Helvetica,sans-Serif" font-size="10.00" fill="#000000">/in_place_exec_ctxt.cc</text>
</a>
</g>
</g>
<!-- Node59&#45;&gt;Node66 -->
<g id="edge35" class="edge">
<title>Node59&#45;&gt;Node66</title>
<path fill="none" stroke="#191970" d="M1032.6733,-291.0469C940.6987,-279.4636 788.8328,-258.8875 734.3444,-243 665.6042,-222.9571 589.9624,-185.5829 550.2497,-164.6687"/>
<polygon fill="#191970" stroke="#191970" points="1032.3984,-294.5398 1042.7562,-292.311 1033.2693,-287.5941 1032.3984,-294.5398"/>
</g>
<!-- Node59&#45;&gt;Node67 -->
<g id="edge37" class="edge">
<title>Node59&#45;&gt;Node67</title>
<path fill="none" stroke="#191970" d="M1140.9832,-286.7604C1166.7027,-276.3284 1202.2171,-260.6359 1231.3444,-243 1257.3531,-227.2523 1259.56,-217.1124 1285.3444,-201 1312.3773,-184.1074 1345.7446,-168.5647 1367.5093,-159.0698"/>
<polygon fill="#191970" stroke="#191970" points="1139.6266,-283.5333 1131.6393,-290.4941 1142.2241,-290.0336 1139.6266,-283.5333"/>
</g>
<!-- Node68 -->
<g id="node14" class="node">
<title>Node68</title>
<g id="a_node14"><a xlink:href="scheduler_8cc.html" target="_top" xlink:title="core/scheduler.cc">
<polygon fill="#ffffff" stroke="#000000" points="1039.3444,-73 1039.3444,-92 1133.3444,-92 1133.3444,-73 1039.3444,-73"/>
<text text-anchor="middle" x="1086.3444" y="-80" font-family="Helvetica,sans-Serif" font-size="10.00" fill="#000000">core/scheduler.cc</text>
</a>
</g>
</g>
<!-- Node59&#45;&gt;Node68 -->
<g id="edge42" class="edge">
<title>Node59&#45;&gt;Node68</title>
<path fill="none" stroke="#191970" d="M1095.7379,-281.3764C1085.5679,-260.9024 1073.3879,-227.4099 1085.3444,-201 1095.3457,-178.9088 1116.343,-187.0912 1126.3444,-165 1132.0268,-152.4486 1130.8114,-147.0335 1126.3444,-134 1120.6184,-117.2932 1107.0175,-101.8239 1097.2654,-92.2878"/>
<polygon fill="#191970" stroke="#191970" points="1092.6849,-283.0903 1100.4544,-290.2934 1098.8727,-279.8173 1092.6849,-283.0903"/>
</g>
<!-- Node70 -->
<g id="node16" class="node">
<title>Node70</title>
<g id="a_node16"><a xlink:href="resource__manager_8cc.html" target="_top" xlink:title="core/resource_manager.cc">
<polygon fill="#ffffff" stroke="#000000" points="599.3444,-140 599.3444,-159 731.3444,-159 731.3444,-140 599.3444,-140"/>
<text text-anchor="middle" x="665.3444" y="-147" font-family="Helvetica,sans-Serif" font-size="10.00" fill="#000000">core/resource_manager.cc</text>
</a>
</g>
</g>
<!-- Node59&#45;&gt;Node70 -->
<g id="edge41" class="edge">
<title>Node59&#45;&gt;Node70</title>
<path fill="none" stroke="#191970" d="M1032.4577,-293.1622C972.1264,-285.8063 885.5166,-271.1464 814.3444,-243 758.9658,-221.0995 701.5009,-178.3129 677.2596,-159.1659"/>
<polygon fill="#191970" stroke="#191970" points="1032.315,-296.6696 1042.6565,-294.3667 1033.136,-289.7179 1032.315,-296.6696"/>
</g>
<!-- Node59&#45;&gt;Node71 -->
<g id="edge23" class="edge">
<title>Node59&#45;&gt;Node71</title>
<path fill="none" stroke="#191970" d="M1032.6536,-289.7946C1002.2641,-285.901 966.6612,-281.7437 934.3444,-279 601.3811,-250.7319 515.1711,-282.4289 183.3444,-243 160.8525,-240.3274 136.0512,-235.7383 115.7004,-231.5305"/>
<polygon fill="#191970" stroke="#191970" points="1032.3806,-293.2884 1042.7475,-291.1025 1033.2802,-286.3464 1032.3806,-293.2884"/>
</g>
<!-- Node72 -->
<g id="node18" class="node">
<title>Node72</title>
<g id="a_node18"><a xlink:href="root_2adaptor_8h.html" target="_top" xlink:title="core/visualization\l/root/adaptor.h">
<polygon fill="#ffffff" stroke="#000000" points="314.3444,-207 314.3444,-237 406.3444,-237 406.3444,-207 314.3444,-207"/>
<text text-anchor="start" x="322.3444" y="-225" font-family="Helvetica,sans-Serif" font-size="10.00" fill="#000000">core/visualization</text>
<text text-anchor="middle" x="360.3444" y="-214" font-family="Helvetica,sans-Serif" font-size="10.00" fill="#000000">/root/adaptor.h</text>
</a>
</g>
</g>
<!-- Node59&#45;&gt;Node72 -->
<g id="edge26" class="edge">
<title>Node59&#45;&gt;Node72</title>
<path fill="none" stroke="#191970" d="M1032.6211,-290.1544C1002.2267,-286.3153 966.6288,-282.1016 934.3444,-279 706.8312,-257.1428 645.3124,-288.5888 421.3444,-243 414.1007,-241.5256 406.5376,-239.4156 399.3012,-237.0957"/>
<polygon fill="#191970" stroke="#191970" points="1032.3549,-293.6487 1042.717,-291.4398 1033.2391,-286.7047 1032.3549,-293.6487"/>
</g>
<!-- Node74 -->
<g id="node20" class="node">
<title>Node74</title>
<g id="a_node20"><a xlink:href="agent__vector_8h.html" target="_top" xlink:title="core/container/agent\l_vector.h">
<polygon fill="#ffffff" stroke="#000000" points="1093.8444,-207 1093.8444,-237 1198.8444,-237 1198.8444,-207 1093.8444,-207"/>
<text text-anchor="start" x="1101.8444" y="-225" font-family="Helvetica,sans-Serif" font-size="10.00" fill="#000000">core/container/agent</text>
<text text-anchor="middle" x="1146.3444" y="-214" font-family="Helvetica,sans-Serif" font-size="10.00" fill="#000000">_vector.h</text>
</a>
</g>
</g>
<!-- Node59&#45;&gt;Node74 -->
<g id="edge32" class="edge">
<title>Node59&#45;&gt;Node74</title>
<path fill="none" stroke="#191970" d="M1116.0001,-281.1714C1122.8981,-267.7202 1132.0615,-249.8517 1138.5073,-237.2824"/>
<polygon fill="#191970" stroke="#191970" points="1112.698,-279.9404 1111.2492,-290.4357 1118.9268,-283.1346 1112.698,-279.9404"/>
</g>
<!-- Node75 -->
<g id="node21" class="node">
<title>Node75</title>
<g id="a_node21"><a xlink:href="exporter_8cc.html" target="_top" xlink:title="core/exporter.cc">
<polygon fill="#ffffff" stroke="#000000" points="1293.8444,-212.5 1293.8444,-231.5 1380.8444,-231.5 1380.8444,-212.5 1293.8444,-212.5"/>
<text text-anchor="middle" x="1337.3444" y="-219.5" font-family="Helvetica,sans-Serif" font-size="10.00" fill="#000000">core/exporter.cc</text>
</a>
</g>
</g>
<!-- Node59&#45;&gt;Node75 -->
<g id="edge36" class="edge">
<title>Node59&#45;&gt;Node75</title>
<path fill="none" stroke="#191970" d="M1145.9962,-287.2981C1181.1325,-275.9564 1233.7805,-258.7511 1279.3444,-243 1289.8707,-239.3611 1301.4166,-235.213 1311.4165,-231.57"/>
<polygon fill="#191970" stroke="#191970" points="1144.5713,-284.08 1136.1267,-290.4783 1146.7182,-290.7426 1144.5713,-284.08"/>
</g>
<!-- Node76 -->
<g id="node22" class="node">
<title>Node76</title>
<g id="a_node22"><a xlink:href="load__balancing__op_8h.html" target="_top" xlink:title="core/operation/load\l_balancing_op.h">
<polygon fill="#ffffff" stroke="#000000" points="1414.8444,-67.5 1414.8444,-97.5 1513.8444,-97.5 1513.8444,-67.5 1414.8444,-67.5"/>
<text text-anchor="start" x="1422.8444" y="-85.5" font-family="Helvetica,sans-Serif" font-size="10.00" fill="#000000">core/operation/load</text>
<text text-anchor="middle" x="1464.3444" y="-74.5" font-family="Helvetica,sans-Serif" font-size="10.00" fill="#000000">_balancing_op.h</text>
</a>
</g>
</g>
<!-- Node59&#45;&gt;Node76 -->
<g id="edge38" class="edge">
<title>Node59&#45;&gt;Node76</title>
<path fill="none" stroke="#191970" d="M1179.8263,-290.4777C1251.58,-280.2556 1354.9812,-262.7921 1390.3444,-243 1412.573,-230.5591 1411.0832,-218.76 1429.3444,-201 1446.7284,-184.0931 1460.343,-187.0912 1470.3444,-165 1480.2355,-143.1523 1474.6685,-114.7009 1469.6022,-97.559"/>
<polygon fill="#191970" stroke="#191970" points="1179.3366,-287.012 1169.9219,-291.8715 1180.3121,-293.9437 1179.3366,-287.012"/>
</g>
<!-- Node77 -->
<g id="node23" class="node">
<title>Node77</title>
<g id="a_node23"><a xlink:href="paraview_2adaptor_8h.html" target="_top" xlink:title="core/visualization\l/paraview/adaptor.h">
<polygon fill="#ffffff" stroke="#000000" points="1791.3444,-207 1791.3444,-237 1893.3444,-237 1893.3444,-207 1791.3444,-207"/>
<text text-anchor="start" x="1799.3444" y="-225" font-family="Helvetica,sans-Serif" font-size="10.00" fill="#000000">core/visualization</text>
<text text-anchor="middle" x="1842.3444" y="-214" font-family="Helvetica,sans-Serif" font-size="10.00" fill="#000000">/paraview/adaptor.h</text>
</a>
</g>
</g>
<!-- Node59&#45;&gt;Node77 -->
<g id="edge44" class="edge">
<title>Node59&#45;&gt;Node77</title>
<path fill="none" stroke="#191970" d="M1180.054,-296.1395C1330.6674,-287.8653 1669.0474,-267.1955 1782.3444,-243 1789.4677,-241.4788 1796.9061,-239.3461 1804.0236,-237.0184"/>
<polygon fill="#191970" stroke="#191970" points="1179.7687,-292.6498 1169.9745,-296.6901 1180.1505,-299.6393 1179.7687,-292.6498"/>
</g>
<!-- Node79 -->
<g id="node25" class="node">
<title>Node79</title>
<g id="a_node25"><a xlink:href="jit__helper_8h.html" target="_top" xlink:title="core/visualization\l/paraview/jit_helper.h">
<polygon fill="#ffffff" stroke="#000000" points="1601.8444,-134.5 1601.8444,-164.5 1710.8444,-164.5 1710.8444,-134.5 1601.8444,-134.5"/>
<text text-anchor="start" x="1609.8444" y="-152.5" font-family="Helvetica,sans-Serif" font-size="10.00" fill="#000000">core/visualization</text>
<text text-anchor="middle" x="1656.3444" y="-141.5" font-family="Helvetica,sans-Serif" font-size="10.00" fill="#000000">/paraview/jit_helper.h</text>
</a>
</g>
</g>
<!-- Node59&#45;&gt;Node79 -->
<g id="edge46" class="edge">
<title>Node59&#45;&gt;Node79</title>
<path fill="none" stroke="#191970" d="M1180.529,-298.3236C1297.8801,-294.5023 1519.9471,-282.1727 1587.3444,-243 1618.7401,-224.7521 1640.0982,-185.9404 1650.0124,-164.5041"/>
<polygon fill="#191970" stroke="#191970" points="1180.0826,-294.8357 1170.197,-298.6468 1180.3016,-301.8323 1180.0826,-294.8357"/>
</g>
<!-- Node81 -->
<g id="node27" class="node">
<title>Node81</title>
<g id="a_node27"><a xlink:href="neuron__soma_8cc.html" target="_top" xlink:title="neuroscience/neuron\l_soma.cc">
<polygon fill="#ffffff" stroke="#000000" points="1437.8444,-207 1437.8444,-237 1544.8444,-237 1544.8444,-207 1437.8444,-207"/>
<text text-anchor="start" x="1445.8444" y="-225" font-family="Helvetica,sans-Serif" font-size="10.00" fill="#000000">neuroscience/neuron</text>
<text text-anchor="middle" x="1491.3444" y="-214" font-family="Helvetica,sans-Serif" font-size="10.00" fill="#000000">_soma.cc</text>
</a>
</g>
</g>
<!-- Node59&#45;&gt;Node81 -->
<g id="edge48" class="edge">
<title>Node59&#45;&gt;Node81</title>
<path fill="none" stroke="#191970" d="M1180.0593,-289.3479C1244.6483,-279.3973 1340.8283,-263.0812 1423.3444,-243 1430.4275,-241.2762 1437.8576,-239.2316 1445.0986,-237.1055"/>
<polygon fill="#191970" stroke="#191970" points="1179.3277,-285.919 1169.9713,-290.8898 1180.3854,-292.8386 1179.3277,-285.919"/>
</g>
<!-- Node60&#45;&gt;Node57 -->
<g id="edge7" class="edge">
<title>Node60&#45;&gt;Node57</title>
<path fill="none" stroke="#191970" d="M863.0907,-208.8432C836.7059,-198.8615 801.4595,-183.6846 773.3444,-165 756.5848,-153.862 758.6957,-142.2563 740.3444,-134 645.7431,-91.439 323.1343,-84.0515 214.4339,-82.7693"/>
<polygon fill="#191970" stroke="#191970" points="862.1424,-212.2242 872.7356,-212.4109 864.571,-205.6589 862.1424,-212.2242"/>
</g>
<!-- Node60&#45;&gt;Node61 -->
<g id="edge8" class="edge">
<title>Node60&#45;&gt;Node61</title>
<path fill="none" stroke="#191970" d="M932.6201,-208.1739C965.1822,-193.779 1015.3189,-171.6149 1043.7376,-159.0518"/>
<polygon fill="#191970" stroke="#191970" points="930.8533,-205.1281 923.1223,-212.3726 933.6836,-211.5304 930.8533,-205.1281"/>
</g>
<!-- Node60&#45;&gt;Node62 -->
<g id="edge9" class="edge">
<title>Node60&#45;&gt;Node62</title>
<path fill="none" stroke="#191970" d="M955.5786,-210.2977C1015.1401,-197.4459 1110.6849,-176.8298 1173.7353,-163.2252"/>
<polygon fill="#191970" stroke="#191970" points="954.6528,-206.9168 945.616,-212.4473 956.1293,-213.7593 954.6528,-206.9168"/>
</g>
<!-- Node60&#45;&gt;Node63 -->
<g id="edge20" class="edge">
<title>Node60&#45;&gt;Node63</title>
<path fill="none" stroke="#191970" d="M919.71,-205.4351C946.6475,-181.2748 994.7276,-138.7155 1004.3444,-134 1035.8321,-118.5604 1124.3537,-102.3683 1186.6164,-92.3549"/>
<polygon fill="#191970" stroke="#191970" points="917.1922,-202.9921 912.0949,-212.2802 921.8718,-208.1981 917.1922,-202.9921"/>
</g>
<!-- Node60&#45;&gt;Node65 -->
<g id="edge22" class="edge">
<title>Node60&#45;&gt;Node65</title>
<path fill="none" stroke="#191970" d="M878.0212,-206.667C860.8609,-195.3113 837.0214,-179.3801 816.3444,-165 797.0023,-151.5483 794.341,-144.6867 773.3444,-134 735.6359,-114.8074 689.2607,-100.6346 656.7239,-92.0685"/>
<polygon fill="#191970" stroke="#191970" points="876.5313,-209.8774 886.805,-212.4661 880.388,-204.0356 876.5313,-209.8774"/>
</g>
<!-- Node60&#45;&gt;Node66 -->
<g id="edge13" class="edge">
<title>Node60&#45;&gt;Node66</title>
<path fill="none" stroke="#191970" d="M835.0995,-210.7061C772.0283,-199.7531 674.5116,-182.2974 590.3444,-165 587.4979,-164.415 584.5874,-163.8035 581.65,-163.1755"/>
<polygon fill="#191970" stroke="#191970" points="834.8538,-214.2156 845.3045,-212.4737 836.0486,-207.3183 834.8538,-214.2156"/>
</g>
<!-- Node60&#45;&gt;Node67 -->
<g id="edge14" class="edge">
<title>Node60&#45;&gt;Node67</title>
<path fill="none" stroke="#191970" d="M988.5565,-211.2042C1071.5009,-200.6157 1199.6857,-183.4177 1310.3444,-165 1321.0899,-163.2115 1332.6089,-161.0967 1343.4639,-159.0136"/>
<polygon fill="#191970" stroke="#191970" points="987.8967,-207.7598 978.4185,-212.4942 988.7804,-214.7038 987.8967,-207.7598"/>
</g>
<!-- Node69 -->
<g id="node15" class="node">
<title>Node69</title>
<g id="a_node15"><a xlink:href="mechanical__forces__op_8h.html" target="_top" xlink:title="core/operation/mechanical\l_forces_op.h">
<polygon fill="#ffffff" stroke="#000000" points="825.8444,-134.5 825.8444,-164.5 956.8444,-164.5 956.8444,-134.5 825.8444,-134.5"/>
<text text-anchor="start" x="833.8444" y="-152.5" font-family="Helvetica,sans-Serif" font-size="10.00" fill="#000000">core/operation/mechanical</text>
<text text-anchor="middle" x="891.3444" y="-141.5" font-family="Helvetica,sans-Serif" font-size="10.00" fill="#000000">_forces_op.h</text>
</a>
</g>
</g>
<!-- Node60&#45;&gt;Node69 -->
<g id="edge17" class="edge">
<title>Node60&#45;&gt;Node69</title>
<path fill="none" stroke="#191970" d="M898.5882,-202.0177C896.9604,-190.2164 894.9324,-175.513 893.4365,-164.668"/>
<polygon fill="#191970" stroke="#191970" points="895.1621,-202.7944 899.9957,-212.2223 902.0965,-201.8379 895.1621,-202.7944"/>
</g>
<!-- Node60&#45;&gt;Node70 -->
<g id="edge21" class="edge">
<title>Node60&#45;&gt;Node70</title>
<path fill="none" stroke="#191970" d="M860.2156,-209.3651C813.5475,-195.0285 738.478,-171.9669 696.4371,-159.0518"/>
<polygon fill="#191970" stroke="#191970" points="859.4185,-212.7816 870.0054,-212.3726 861.4741,-206.0902 859.4185,-212.7816"/>
</g>
<!-- Node62&#45;&gt;Node63 -->
<g id="edge10" class="edge">
<title>Node62&#45;&gt;Node63</title>
<path fill="none" stroke="#191970" d="M1242.9822,-124.3179C1244.9918,-115.3414 1247.1919,-105.5143 1248.9541,-97.6432"/>
<polygon fill="#191970" stroke="#191970" points="1239.5175,-123.7735 1240.7481,-134.2967 1246.3484,-125.3029 1239.5175,-123.7735"/>
</g>
<!-- Node62&#45;&gt;Node65 -->
<g id="edge12" class="edge">
<title>Node62&#45;&gt;Node65</title>
<path fill="none" stroke="#191970" d="M1163.7945,-138.8281C1151.3076,-137.1313 1138.463,-135.4575 1126.3444,-134 956.9232,-113.6244 755.1745,-94.8791 664.5778,-86.7532"/>
<polygon fill="#191970" stroke="#191970" points="1163.3283,-142.2968 1173.7115,-140.19 1164.2807,-135.3619 1163.3283,-142.2968"/>
</g>
<!-- Node64 -->
<g id="node10" class="node">
<title>Node64</title>
<g id="a_node10"><a xlink:href="default__ops_8cc.html" target="_top" xlink:title="core/operation/default\l_ops.cc">
<polygon fill="#ffffff" stroke="#000000" points="1259.3444,-.5 1259.3444,-30.5 1369.3444,-30.5 1369.3444,-.5 1259.3444,-.5"/>
<text text-anchor="start" x="1267.3444" y="-18.5" font-family="Helvetica,sans-Serif" font-size="10.00" fill="#000000">core/operation/default</text>
<text text-anchor="middle" x="1314.3444" y="-7.5" font-family="Helvetica,sans-Serif" font-size="10.00" fill="#000000">_ops.cc</text>
</a>
</g>
</g>
<!-- Node63&#45;&gt;Node64 -->
<g id="edge11" class="edge">
<title>Node63&#45;&gt;Node64</title>
<path fill="none" stroke="#191970" d="M1273.2344,-59.9253C1282.1573,-50.2828 1292.335,-39.2843 1300.3313,-30.6432"/>
<polygon fill="#191970" stroke="#191970" points="1270.6362,-57.5798 1266.4131,-67.2967 1275.774,-62.3342 1270.6362,-57.5798"/>
</g>
<!-- Node67&#45;&gt;Node64 -->
<g id="edge15" class="edge">
<title>Node67&#45;&gt;Node64</title>
<path fill="none" stroke="#191970" d="M1379.9189,-131.1182C1364.7675,-104.404 1336.9453,-55.349 1322.9148,-30.611"/>
<polygon fill="#191970" stroke="#191970" points="1376.9008,-132.8914 1384.8787,-139.8631 1382.9896,-129.438 1376.9008,-132.8914"/>
</g>
<!-- Node67&#45;&gt;Node68 -->
<g id="edge16" class="edge">
<title>Node67&#45;&gt;Node68</title>
<path fill="none" stroke="#191970" d="M1337.2652,-137.8016C1278.4269,-124.834 1184.63,-104.1616 1129.9204,-92.1039"/>
<polygon fill="#191970" stroke="#191970" points="1336.5925,-141.2373 1347.1114,-139.9717 1338.0991,-134.4013 1336.5925,-141.2373"/>
</g>
<!-- Node69&#45;&gt;Node64 -->
<g id="edge18" class="edge">
<title>Node69&#45;&gt;Node64</title>
<path fill="none" stroke="#191970" d="M919.5761,-128.6206C946.6323,-109.6409 989.3075,-82.3302 1030.3444,-67 1106.7411,-38.4604 1200.7844,-25.3938 1259.1597,-19.6613"/>
<polygon fill="#191970" stroke="#191970" points="917.4815,-125.8153 911.3623,-134.4644 921.5395,-131.5191 917.4815,-125.8153"/>
</g>
<!-- Node69&#45;&gt;Node68 -->
<g id="edge19" class="edge">
<title>Node69&#45;&gt;Node68</title>
<path fill="none" stroke="#191970" d="M944.7154,-131.1623C981.5893,-118.4928 1029.1358,-102.1563 1058.6797,-92.0053"/>
<polygon fill="#191970" stroke="#191970" points="943.4262,-127.9043 935.1062,-134.4639 945.7009,-134.5245 943.4262,-127.9043"/>
</g>
<!-- Node71&#45;&gt;Node57 -->
<g id="edge24" class="edge">
<title>Node71&#45;&gt;Node57</title>
<path fill="none" stroke="#191970" d="M86.77,-204.1632C109.2222,-174.3338 153.641,-115.3202 171.0768,-92.1555"/>
<polygon fill="#191970" stroke="#191970" points="83.7788,-202.3171 80.5615,-212.4116 89.3716,-206.5267 83.7788,-202.3171"/>
</g>
<!-- Node72&#45;&gt;Node65 -->
<g id="edge30" class="edge">
<title>Node72&#45;&gt;Node65</title>
<path fill="none" stroke="#191970" d="M360.1898,-196.7444C361.4741,-176.9625 366.5461,-150.17 383.3444,-134 409.3483,-108.9687 507.9021,-94.1531 568.1939,-87.2433"/>
<polygon fill="#191970" stroke="#191970" points="356.6863,-196.7789 359.8156,-206.9011 363.6815,-197.0367 356.6863,-196.7789"/>
</g>
<!-- Node72&#45;&gt;Node68 -->
<g id="edge29" class="edge">
<title>Node72&#45;&gt;Node68</title>
<path fill="none" stroke="#191970" d="M377.4269,-198.8503C394.3676,-177.8784 422.3666,-148.1607 454.3444,-134 507.3786,-110.5149 901.4167,-90.7947 1039.0584,-84.557"/>
<polygon fill="#191970" stroke="#191970" points="374.4871,-196.9274 371.0731,-206.9571 379.9966,-201.2456 374.4871,-196.9274"/>
</g>
<!-- Node73 -->
<g id="node19" class="node">
<title>Node73</title>
<g id="a_node19"><a xlink:href="notebook__util_8h.html" target="_top" xlink:title="core/visualization\l/root/notebook_util.h">
<polygon fill="#ffffff" stroke="#000000" points="225.8444,-134.5 225.8444,-164.5 330.8444,-164.5 330.8444,-134.5 225.8444,-134.5"/>
<text text-anchor="start" x="233.8444" y="-152.5" font-family="Helvetica,sans-Serif" font-size="10.00" fill="#000000">core/visualization</text>
<text text-anchor="middle" x="278.3444" y="-141.5" font-family="Helvetica,sans-Serif" font-size="10.00" fill="#000000">/root/notebook_util.h</text>
</a>
</g>
</g>
<!-- Node72&#45;&gt;Node73 -->
<g id="edge27" class="edge">
<title>Node72&#45;&gt;Node73</title>
<path fill="none" stroke="#191970" d="M335.6402,-200.1579C322.6123,-188.6393 306.9625,-174.8026 295.3131,-164.5028"/>
<polygon fill="#191970" stroke="#191970" points="333.5439,-202.9763 343.3539,-206.978 338.1805,-197.732 333.5439,-202.9763"/>
</g>
<!-- Node73&#45;&gt;Node57 -->
<g id="edge28" class="edge">
<title>Node73&#45;&gt;Node57</title>
<path fill="none" stroke="#191970" d="M247.0688,-128.5454C228.8421,-116.3335 206.7353,-101.5219 192.6055,-92.055"/>
<polygon fill="#191970" stroke="#191970" points="245.3969,-131.6382 255.6528,-134.2967 249.2933,-125.8228 245.3969,-131.6382"/>
</g>
<!-- Node74&#45;&gt;Node62 -->
<g id="edge33" class="edge">
<title>Node74&#45;&gt;Node62</title>
<path fill="none" stroke="#191970" d="M1173.3516,-200.4833C1187.8898,-188.9007 1205.4633,-174.8998 1218.5133,-164.5028"/>
<polygon fill="#191970" stroke="#191970" points="1170.84,-198.0093 1165.1996,-206.978 1175.2019,-203.4841 1170.84,-198.0093"/>
</g>
<!-- Node76&#45;&gt;Node64 -->
<g id="edge39" class="edge">
<title>Node76&#45;&gt;Node64</title>
<path fill="none" stroke="#191970" d="M1421.3889,-63.3132C1398.1355,-52.9267 1369.8207,-40.2794 1348.1541,-30.6017"/>
<polygon fill="#191970" stroke="#191970" points="1420.1234,-66.5812 1430.6815,-67.4639 1422.9783,-60.1898 1420.1234,-66.5812"/>
</g>
<!-- Node78 -->
<g id="node24" class="node">
<title>Node78</title>
<g id="a_node24"><a xlink:href="adaptor_8cc.html" target="_top" xlink:title="core/visualization\l/paraview/adaptor.cc">
<polygon fill="#ffffff" stroke="#000000" points="1847.8444,-134.5 1847.8444,-164.5 1954.8444,-164.5 1954.8444,-134.5 1847.8444,-134.5"/>
<text text-anchor="start" x="1855.8444" y="-152.5" font-family="Helvetica,sans-Serif" font-size="10.00" fill="#000000">core/visualization</text>
<text text-anchor="middle" x="1901.3444" y="-141.5" font-family="Helvetica,sans-Serif" font-size="10.00" fill="#000000">/paraview/adaptor.cc</text>
</a>
</g>
</g>
<!-- Node77&#45;&gt;Node78 -->
<g id="edge45" class="edge">
<title>Node77&#45;&gt;Node78</title>
<path fill="none" stroke="#191970" d="M1860.9197,-199.1745C1870.1282,-187.8589 1880.9905,-174.5111 1889.1352,-164.5028"/>
<polygon fill="#191970" stroke="#191970" points="1858.1665,-197.0125 1854.5692,-206.978 1863.5959,-201.4309 1858.1665,-197.0125"/>
</g>
<!-- Node80 -->
<g id="node26" class="node">
<title>Node80</title>
<g id="a_node26"><a xlink:href="vtk__agents_8cc.html" target="_top" xlink:title="core/visualization\l/paraview/vtk_agents.cc">
<polygon fill="#ffffff" stroke="#000000" points="1594.8444,-67.5 1594.8444,-97.5 1717.8444,-97.5 1717.8444,-67.5 1594.8444,-67.5"/>
<text text-anchor="start" x="1602.8444" y="-85.5" font-family="Helvetica,sans-Serif" font-size="10.00" fill="#000000">core/visualization</text>
<text text-anchor="middle" x="1656.3444" y="-74.5" font-family="Helvetica,sans-Serif" font-size="10.00" fill="#000000">/paraview/vtk_agents.cc</text>
</a>
</g>
</g>
<!-- Node79&#45;&gt;Node80 -->
<g id="edge47" class="edge">
<title>Node79&#45;&gt;Node80</title>
<path fill="none" stroke="#191970" d="M1656.3444,-124.0249C1656.3444,-115.128 1656.3444,-105.4287 1656.3444,-97.6432"/>
<polygon fill="#191970" stroke="#191970" points="1652.8445,-124.2966 1656.3444,-134.2967 1659.8445,-124.2967 1652.8445,-124.2966"/>
</g>
<!-- Node83&#45;&gt;Node78 -->
<g id="edge57" class="edge">
<title>Node83&#45;&gt;Node78</title>
<path fill="none" stroke="#191970" d="M1804.7188,-278.5165C1849.0811,-264.2528 1899.2207,-247.3754 1902.3444,-243 1918.8513,-219.879 1912.3229,-184.6762 1906.539,-164.7141"/>
<polygon fill="#191970" stroke="#191970" points="1803.5232,-275.2242 1795.0677,-281.6081 1805.6588,-281.8905 1803.5232,-275.2242"/>
</g>
<!-- Node84 -->
<g id="node30" class="node">
<title>Node84</title>
<g id="a_node30"><a xlink:href="helper_8h.html" target="_top" xlink:title="core/visualization\l/paraview/helper.h">
<polygon fill="#ffffff" stroke="#000000" points="1677.3444,-207 1677.3444,-237 1773.3444,-237 1773.3444,-207 1677.3444,-207"/>
<text text-anchor="start" x="1685.3444" y="-225" font-family="Helvetica,sans-Serif" font-size="10.00" fill="#000000">core/visualization</text>
<text text-anchor="middle" x="1725.3444" y="-214" font-family="Helvetica,sans-Serif" font-size="10.00" fill="#000000">/paraview/helper.h</text>
</a>
</g>
</g>
<!-- Node83&#45;&gt;Node84 -->
<g id="edge53" class="edge">
<title>Node83&#45;&gt;Node84</title>
<path fill="none" stroke="#191970" d="M1731.9752,-269.0187C1730.4359,-258.1033 1728.773,-246.3119 1727.4975,-237.2679"/>
<polygon fill="#191970" stroke="#191970" points="1728.5344,-269.6842 1733.3966,-279.0974 1735.4658,-268.7066 1728.5344,-269.6842"/>
</g>
<!-- Node86 -->
<g id="node32" class="node">
<title>Node86</title>
<g id="a_node32"><a xlink:href="vtk__diffusion__grid_8cc.html" target="_top" xlink:title="core/visualization\l/paraview/vtk_diffusion\l_grid.cc">
<polygon fill="#ffffff" stroke="#000000" points="1949.8444,-201.5 1949.8444,-242.5 2066.8444,-242.5 2066.8444,-201.5 1949.8444,-201.5"/>
<text text-anchor="start" x="1957.8444" y="-230.5" font-family="Helvetica,sans-Serif" font-size="10.00" fill="#000000">core/visualization</text>
<text text-anchor="start" x="1957.8444" y="-219.5" font-family="Helvetica,sans-Serif" font-size="10.00" fill="#000000">/paraview/vtk_diffusion</text>
<text text-anchor="middle" x="2008.3444" y="-208.5" font-family="Helvetica,sans-Serif" font-size="10.00" fill="#000000">_grid.cc</text>
</a>
</g>
</g>
<!-- Node83&#45;&gt;Node86 -->
<g id="edge58" class="edge">
<title>Node83&#45;&gt;Node86</title>
<path fill="none" stroke="#191970" d="M1804.7882,-278.9113C1863.9344,-261.7759 1880.1703,-258.5166 1935.3444,-243 1940.0416,-241.679 1944.9059,-240.3012 1949.7909,-238.9106"/>
<polygon fill="#191970" stroke="#191970" points="1803.5384,-275.6297 1794.9147,-281.7845 1805.4944,-282.3509 1803.5384,-275.6297"/>
</g>
<!-- Node84&#45;&gt;Node78 -->
<g id="edge54" class="edge">
<title>Node84&#45;&gt;Node78</title>
<path fill="none" stroke="#191970" d="M1771.3759,-203.0382C1800.5646,-191.0144 1837.7972,-175.6771 1864.9238,-164.5028"/>
<polygon fill="#191970" stroke="#191970" points="1769.7248,-199.9329 1761.8117,-206.978 1772.391,-206.4053 1769.7248,-199.9329"/>
</g>
<!-- Node84&#45;&gt;Node79 -->
<g id="edge56" class="edge">
<title>Node84&#45;&gt;Node79</title>
<path fill="none" stroke="#191970" d="M1703.9339,-199.5035C1693.0984,-188.1184 1680.2405,-174.6083 1670.6229,-164.5028"/>
<polygon fill="#191970" stroke="#191970" points="1701.6181,-202.1471 1711.0475,-206.978 1706.6888,-197.3212 1701.6181,-202.1471"/>
</g>
<!-- Node85 -->
<g id="node31" class="node">
<title>Node85</title>
<g id="a_node31"><a xlink:href="helper_8cc.html" target="_top" xlink:title="core/visualization\l/paraview/helper.cc">
<polygon fill="#ffffff" stroke="#000000" points="1728.8444,-134.5 1728.8444,-164.5 1829.8444,-164.5 1829.8444,-134.5 1728.8444,-134.5"/>
<text text-anchor="start" x="1736.8444" y="-152.5" font-family="Helvetica,sans-Serif" font-size="10.00" fill="#000000">core/visualization</text>
<text text-anchor="middle" x="1779.3444" y="-141.5" font-family="Helvetica,sans-Serif" font-size="10.00" fill="#000000">/paraview/helper.cc</text>
</a>
</g>
</g>
<!-- Node84&#45;&gt;Node85 -->
<g id="edge55" class="edge">
<title>Node84&#45;&gt;Node85</title>
<path fill="none" stroke="#191970" d="M1742.5914,-198.8443C1750.9664,-187.6 1760.7878,-174.4139 1768.1699,-164.5028"/>
<polygon fill="#191970" stroke="#191970" points="1739.6997,-196.8674 1736.5332,-206.978 1745.3136,-201.0488 1739.6997,-196.8674"/>
</g>
</g>
</svg>
