<?xml version="1.0" encoding="UTF-8" standalone="no"?>
<!DOCTYPE svg PUBLIC "-//W3C//DTD SVG 1.1//EN"
 "http://www.w3.org/Graphics/SVG/1.1/DTD/svg11.dtd">
<!-- Generated by graphviz version 2.40.1 (20161225.0304)
 -->
<!-- Title: core/diffusion_grid.h Pages: 1 -->
<svg width="1579pt" height="352pt"
 viewBox="0.00 0.00 1578.75 352.00" xmlns="http://www.w3.org/2000/svg" xmlns:xlink="http://www.w3.org/1999/xlink">
<g id="graph0" class="graph" transform="scale(1 1) rotate(0) translate(4 348)">
<title>core/diffusion_grid.h</title>
<polygon fill="#ffffff" stroke="transparent" points="-4,4 -4,-348 1574.7494,-348 1574.7494,4 -4,4"/>
<!-- Node54 -->
<g id="node1" class="node">
<title>Node54</title>
<polygon fill="#bfbfbf" stroke="#000000" points="1061.7494,-324.5 1061.7494,-343.5 1165.7494,-343.5 1165.7494,-324.5 1061.7494,-324.5"/>
<text text-anchor="middle" x="1113.7494" y="-331.5" font-family="Helvetica,sans-Serif" font-size="10.00" fill="#000000">core/diffusion_grid.h</text>
</g>
<!-- Node55 -->
<g id="node2" class="node">
<title>Node55</title>
<g id="a_node2"><a xlink:href="resource__manager_8h.html" target="_top" xlink:title="core/resource_manager.h">
<polygon fill="#ffffff" stroke="#000000" points="702.2494,-268.5 702.2494,-287.5 829.2494,-287.5 829.2494,-268.5 702.2494,-268.5"/>
<text text-anchor="middle" x="765.7494" y="-275.5" font-family="Helvetica,sans-Serif" font-size="10.00" fill="#000000">core/resource_manager.h</text>
</a>
</g>
</g>
<!-- Node54&#45;&gt;Node55 -->
<g id="edge1" class="edge">
<title>Node54&#45;&gt;Node55</title>
<path fill="none" stroke="#191970" d="M1051.663,-324.0091C987.4779,-313.6805 888.0006,-297.6726 824.913,-287.5206"/>
<polygon fill="#191970" stroke="#191970" points="1051.2212,-327.4829 1061.6503,-325.6162 1052.3334,-320.5718 1051.2212,-327.4829"/>
</g>
<!-- Node63 -->
<g id="node10" class="node">
<title>Node63</title>
<g id="a_node10"><a xlink:href="diffusion__op_8h.html" target="_top" xlink:title="core/operation/diffusion_op.h">
<polygon fill="#ffffff" stroke="#000000" points="1023.7494,-140 1023.7494,-159 1165.7494,-159 1165.7494,-140 1023.7494,-140"/>
<text text-anchor="middle" x="1094.7494" y="-147" font-family="Helvetica,sans-Serif" font-size="10.00" fill="#000000">core/operation/diffusion_op.h</text>
</a>
</g>
</g>
<!-- Node54&#45;&gt;Node63 -->
<g id="edge42" class="edge">
<title>Node54&#45;&gt;Node63</title>
<path fill="none" stroke="#191970" d="M1111.7062,-314.1587C1107.6485,-274.7567 1098.7095,-187.9547 1095.7344,-159.0641"/>
<polygon fill="#191970" stroke="#191970" points="1108.2486,-314.7514 1112.7547,-324.3402 1115.2118,-314.0343 1108.2486,-314.7514"/>
</g>
<!-- Node68 -->
<g id="node15" class="node">
<title>Node68</title>
<g id="a_node15"><a xlink:href="model__initializer_8h.html" target="_top" xlink:title="core/model_initializer.h">
<polygon fill="#ffffff" stroke="#000000" points="1454.7494,-207 1454.7494,-226 1570.7494,-226 1570.7494,-207 1454.7494,-207"/>
<text text-anchor="middle" x="1512.7494" y="-214" font-family="Helvetica,sans-Serif" font-size="10.00" fill="#000000">core/model_initializer.h</text>
</a>
</g>
</g>
<!-- Node54&#45;&gt;Node68 -->
<g id="edge41" class="edge">
<title>Node54&#45;&gt;Node68</title>
<path fill="none" stroke="#191970" d="M1119.4516,-314.9045C1125.0795,-299.5918 1135.271,-278.9171 1151.7494,-268 1206.6212,-231.6471 1380.9288,-243.4337 1445.7494,-232 1455.1555,-230.3409 1465.2258,-228.205 1474.6266,-226.0524"/>
<polygon fill="#191970" stroke="#191970" points="1116.1074,-313.8694 1116.2634,-324.4631 1122.7478,-316.0843 1116.1074,-313.8694"/>
</g>
<!-- Node76 -->
<g id="node23" class="node">
<title>Node76</title>
<g id="a_node23"><a xlink:href="substance__initializers_8h.html" target="_top" xlink:title="core/substance_initializers.h">
<polygon fill="#ffffff" stroke="#000000" points="1160.7494,-268.5 1160.7494,-287.5 1300.7494,-287.5 1300.7494,-268.5 1160.7494,-268.5"/>
<text text-anchor="middle" x="1230.7494" y="-275.5" font-family="Helvetica,sans-Serif" font-size="10.00" fill="#000000">core/substance_initializers.h</text>
</a>
</g>
</g>
<!-- Node54&#45;&gt;Node76 -->
<g id="edge43" class="edge">
<title>Node54&#45;&gt;Node76</title>
<path fill="none" stroke="#191970" d="M1143.0536,-319.9741C1164.2374,-309.8348 1192.2898,-296.408 1210.8989,-287.5011"/>
<polygon fill="#191970" stroke="#191970" points="1141.3714,-316.8989 1133.8624,-324.3733 1144.3936,-323.2129 1141.3714,-316.8989"/>
</g>
<!-- Node56 -->
<g id="node3" class="node">
<title>Node56</title>
<g id="a_node3"><a xlink:href="environment_8h.html" target="_top" xlink:title="core/environment/environment.h">
<polygon fill="#ffffff" stroke="#000000" points="432.7494,-207 432.7494,-226 588.7494,-226 588.7494,-207 432.7494,-207"/>
<text text-anchor="middle" x="510.7494" y="-214" font-family="Helvetica,sans-Serif" font-size="10.00" fill="#000000">core/environment/environment.h</text>
</a>
</g>
</g>
<!-- Node55&#45;&gt;Node56 -->
<g id="edge2" class="edge">
<title>Node55&#45;&gt;Node56</title>
<path fill="none" stroke="#191970" d="M716.247,-266.0612C667.8524,-254.3895 595.1111,-236.846 550.4062,-226.0643"/>
<polygon fill="#191970" stroke="#191970" points="715.6436,-269.5159 726.1855,-268.4581 717.2848,-262.711 715.6436,-269.5159"/>
</g>
<!-- Node57 -->
<g id="node4" class="node">
<title>Node57</title>
<g id="a_node4"><a xlink:href="biodynamo_8h.html" target="_top" xlink:title="biodynamo.h">
<polygon fill="#ffffff" stroke="#000000" points="1240.7494,-73 1240.7494,-92 1312.7494,-92 1312.7494,-73 1240.7494,-73"/>
<text text-anchor="middle" x="1276.7494" y="-80" font-family="Helvetica,sans-Serif" font-size="10.00" fill="#000000">biodynamo.h</text>
</a>
</g>
</g>
<!-- Node55&#45;&gt;Node57 -->
<g id="edge21" class="edge">
<title>Node55&#45;&gt;Node57</title>
<path fill="none" stroke="#191970" d="M839.649,-273.755C972.5946,-264.3755 1243.4355,-236.7248 1298.7494,-165 1315.7681,-142.9321 1295.9259,-108.7836 1284.1839,-92.1993"/>
<polygon fill="#191970" stroke="#191970" points="839.2812,-270.2719 829.5455,-274.4513 839.7625,-277.2554 839.2812,-270.2719"/>
</g>
<!-- Node58 -->
<g id="node5" class="node">
<title>Node58</title>
<g id="a_node5"><a xlink:href="uniform__grid__environment_8h.html" target="_top" xlink:title="core/environment/uniform\l_grid_environment.h">
<polygon fill="#ffffff" stroke="#000000" points="22.2494,-134.5 22.2494,-164.5 149.2494,-164.5 149.2494,-134.5 22.2494,-134.5"/>
<text text-anchor="start" x="30.2494" y="-152.5" font-family="Helvetica,sans-Serif" font-size="10.00" fill="#000000">core/environment/uniform</text>
<text text-anchor="middle" x="85.7494" y="-141.5" font-family="Helvetica,sans-Serif" font-size="10.00" fill="#000000">_grid_environment.h</text>
</a>
</g>
</g>
<!-- Node55&#45;&gt;Node58 -->
<g id="edge29" class="edge">
<title>Node55&#45;&gt;Node58</title>
<path fill="none" stroke="#191970" d="M692.0199,-275.9442C513.7647,-270.616 72.4504,-255.142 50.7494,-232 32.6571,-212.7063 54.0279,-182.6563 70.4282,-164.6438"/>
<polygon fill="#191970" stroke="#191970" points="691.9994,-279.445 702.0988,-276.243 692.2069,-272.4481 691.9994,-279.445"/>
</g>
<!-- Node59 -->
<g id="node6" class="node">
<title>Node59</title>
<g id="a_node6"><a xlink:href="displacement__op__cuda_8h.html" target="_top" xlink:title="core/operation/displacement\l_op_cuda.h">
<polygon fill="#ffffff" stroke="#000000" points="89.2494,-67.5 89.2494,-97.5 228.2494,-97.5 228.2494,-67.5 89.2494,-67.5"/>
<text text-anchor="start" x="97.2494" y="-85.5" font-family="Helvetica,sans-Serif" font-size="10.00" fill="#000000">core/operation/displacement</text>
<text text-anchor="middle" x="158.7494" y="-74.5" font-family="Helvetica,sans-Serif" font-size="10.00" fill="#000000">_op_cuda.h</text>
</a>
</g>
</g>
<!-- Node55&#45;&gt;Node59 -->
<g id="edge33" class="edge">
<title>Node55&#45;&gt;Node59</title>
<path fill="none" stroke="#191970" d="M691.8302,-275.4031C512.4769,-268.8216 66.961,-250.6793 40.7494,-232 3.8598,-205.7112 -13.417,-170.9766 12.7494,-134 22.7248,-119.9035 59.4716,-106.9828 93.6004,-97.6092"/>
<polygon fill="#191970" stroke="#191970" points="691.8484,-278.906 701.9695,-275.7733 692.1038,-271.9107 691.8484,-278.906"/>
</g>
<!-- Node61 -->
<g id="node8" class="node">
<title>Node61</title>
<g id="a_node8"><a xlink:href="simulation_8cc.html" target="_top" xlink:title="core/simulation.cc">
<polygon fill="#ffffff" stroke="#000000" points="391.7494,-73 391.7494,-92 487.7494,-92 487.7494,-73 391.7494,-73"/>
<text text-anchor="middle" x="439.7494" y="-80" font-family="Helvetica,sans-Serif" font-size="10.00" fill="#000000">core/simulation.cc</text>
</a>
</g>
</g>
<!-- Node55&#45;&gt;Node61 -->
<g id="edge37" class="edge">
<title>Node55&#45;&gt;Node61</title>
<path fill="none" stroke="#191970" d="M691.6545,-275.9973C549.5263,-270.2708 248.0864,-248.3445 196.7494,-165 189.5236,-153.2691 188.0756,-144.7048 196.7494,-134 220.8103,-104.3053 328.0453,-91.042 391.743,-85.6919"/>
<polygon fill="#191970" stroke="#191970" points="691.8915,-279.509 702.0191,-276.3975 692.1616,-272.5142 691.8915,-279.509"/>
</g>
<!-- Node62 -->
<g id="node9" class="node">
<title>Node62</title>
<g id="a_node9"><a xlink:href="in__place__exec__ctxt_8cc.html" target="_top" xlink:title="core/execution_context\l/in_place_exec_ctxt.cc">
<polygon fill="#ffffff" stroke="#000000" points="327.7494,-134.5 327.7494,-164.5 445.7494,-164.5 445.7494,-134.5 327.7494,-134.5"/>
<text text-anchor="start" x="335.7494" y="-152.5" font-family="Helvetica,sans-Serif" font-size="10.00" fill="#000000">core/execution_context</text>
<text text-anchor="middle" x="386.7494" y="-141.5" font-family="Helvetica,sans-Serif" font-size="10.00" fill="#000000">/in_place_exec_ctxt.cc</text>
</a>
</g>
</g>
<!-- Node55&#45;&gt;Node62 -->
<g id="edge30" class="edge">
<title>Node55&#45;&gt;Node62</title>
<path fill="none" stroke="#191970" d="M691.9577,-276.3182C604.3471,-272.9327 464.9012,-262.7323 423.7494,-232 401.9909,-215.7506 392.7432,-183.7872 389.0339,-164.769"/>
<polygon fill="#191970" stroke="#191970" points="691.99,-279.8216 702.1111,-276.6891 692.2456,-272.8263 691.99,-279.8216"/>
</g>
<!-- Node55&#45;&gt;Node63 -->
<g id="edge32" class="edge">
<title>Node55&#45;&gt;Node63</title>
<path fill="none" stroke="#191970" d="M839.3961,-268.8664C900.0613,-260.4775 980.6591,-247.0858 1009.7494,-232 1044.6185,-213.9174 1074.7721,-176.8933 1087.8366,-159.2578"/>
<polygon fill="#191970" stroke="#191970" points="838.8977,-265.4019 829.462,-270.2204 839.8431,-272.3378 838.8977,-265.4019"/>
</g>
<!-- Node64 -->
<g id="node11" class="node">
<title>Node64</title>
<g id="a_node11"><a xlink:href="scheduler_8cc.html" target="_top" xlink:title="core/scheduler.cc">
<polygon fill="#ffffff" stroke="#000000" points="925.7494,-73 925.7494,-92 1019.7494,-92 1019.7494,-73 925.7494,-73"/>
<text text-anchor="middle" x="972.7494" y="-80" font-family="Helvetica,sans-Serif" font-size="10.00" fill="#000000">core/scheduler.cc</text>
</a>
</g>
</g>
<!-- Node55&#45;&gt;Node64 -->
<g id="edge35" class="edge">
<title>Node55&#45;&gt;Node64</title>
<path fill="none" stroke="#191970" d="M839.5388,-271.6368C893.2889,-265.2932 959.5708,-253.3273 976.7494,-232 1010.4638,-190.1437 987.0404,-118.2302 976.8385,-92.2343"/>
<polygon fill="#191970" stroke="#191970" points="838.8616,-268.1911 829.319,-272.7943 839.6494,-275.1466 838.8616,-268.1911"/>
</g>
<!-- Node66 -->
<g id="node13" class="node">
<title>Node66</title>
<g id="a_node13"><a xlink:href="resource__manager_8cc.html" target="_top" xlink:title="core/resource_manager.cc">
<polygon fill="#ffffff" stroke="#000000" points="797.7494,-140 797.7494,-159 929.7494,-159 929.7494,-140 797.7494,-140"/>
<text text-anchor="middle" x="863.7494" y="-147" font-family="Helvetica,sans-Serif" font-size="10.00" fill="#000000">core/resource_manager.cc</text>
</a>
</g>
</g>
<!-- Node55&#45;&gt;Node66 -->
<g id="edge34" class="edge">
<title>Node55&#45;&gt;Node66</title>
<path fill="none" stroke="#191970" d="M792.4373,-263.1195C804.7799,-255.1766 818.8608,-244.4645 828.7494,-232 846.9287,-209.0854 857.2829,-175.3338 861.5009,-159.0201"/>
<polygon fill="#191970" stroke="#191970" points="790.5309,-260.1829 783.842,-268.3993 794.1948,-266.1475 790.5309,-260.1829"/>
</g>
<!-- Node67 -->
<g id="node14" class="node">
<title>Node67</title>
<g id="a_node14"><a xlink:href="sim__object_8cc.html" target="_top" xlink:title="core/sim_object/sim\l_object.cc">
<polygon fill="#ffffff" stroke="#000000" points="205.7494,-134.5 205.7494,-164.5 309.7494,-164.5 309.7494,-134.5 205.7494,-134.5"/>
<text text-anchor="start" x="213.7494" y="-152.5" font-family="Helvetica,sans-Serif" font-size="10.00" fill="#000000">core/sim_object/sim</text>
<text text-anchor="middle" x="257.7494" y="-141.5" font-family="Helvetica,sans-Serif" font-size="10.00" fill="#000000">_object.cc</text>
</a>
</g>
</g>
<!-- Node55&#45;&gt;Node67 -->
<g id="edge36" class="edge">
<title>Node55&#45;&gt;Node67</title>
<path fill="none" stroke="#191970" d="M691.9841,-272.3981C600.384,-264.8194 449.7338,-250.1386 396.7494,-232 350.5529,-216.1852 302.9403,-183.7557 277.1782,-164.6031"/>
<polygon fill="#191970" stroke="#191970" points="691.7762,-275.8927 702.0285,-273.2203 692.3474,-268.916 691.7762,-275.8927"/>
</g>
<!-- Node55&#45;&gt;Node68 -->
<g id="edge19" class="edge">
<title>Node55&#45;&gt;Node68</title>
<path fill="none" stroke="#191970" d="M839.6333,-276.8603C964.9477,-274.0673 1226.8898,-264.5054 1445.7494,-232 1455.7876,-230.5091 1466.5462,-228.2995 1476.4402,-226.0127"/>
<polygon fill="#191970" stroke="#191970" points="839.315,-273.3663 829.3925,-277.0802 839.4653,-280.3647 839.315,-273.3663"/>
</g>
<!-- Node69 -->
<g id="node16" class="node">
<title>Node69</title>
<g id="a_node16"><a xlink:href="root_2adaptor_8h.html" target="_top" xlink:title="core/visualization\l/root/adaptor.h">
<polygon fill="#ffffff" stroke="#000000" points="875.7494,-201.5 875.7494,-231.5 967.7494,-231.5 967.7494,-201.5 875.7494,-201.5"/>
<text text-anchor="start" x="883.7494" y="-219.5" font-family="Helvetica,sans-Serif" font-size="10.00" fill="#000000">core/visualization</text>
<text text-anchor="middle" x="921.7494" y="-208.5" font-family="Helvetica,sans-Serif" font-size="10.00" fill="#000000">/root/adaptor.h</text>
</a>
</g>
</g>
<!-- Node55&#45;&gt;Node69 -->
<g id="edge22" class="edge">
<title>Node55&#45;&gt;Node69</title>
<path fill="none" stroke="#191970" d="M799.47,-264.7063C824.2169,-254.9503 857.8557,-241.6889 883.5875,-231.5446"/>
<polygon fill="#191970" stroke="#191970" points="798.1439,-261.4669 790.1244,-268.3906 800.7113,-267.9791 798.1439,-261.4669"/>
</g>
<!-- Node71 -->
<g id="node18" class="node">
<title>Node71</title>
<g id="a_node18"><a xlink:href="sim__object__vector_8h.html" target="_top" xlink:title="core/container/sim\l_object_vector.h">
<polygon fill="#ffffff" stroke="#000000" points="60.2494,-201.5 60.2494,-231.5 157.2494,-231.5 157.2494,-201.5 60.2494,-201.5"/>
<text text-anchor="start" x="68.2494" y="-219.5" font-family="Helvetica,sans-Serif" font-size="10.00" fill="#000000">core/container/sim</text>
<text text-anchor="middle" x="108.7494" y="-208.5" font-family="Helvetica,sans-Serif" font-size="10.00" fill="#000000">_object_vector.h</text>
</a>
</g>
</g>
<!-- Node55&#45;&gt;Node71 -->
<g id="edge27" class="edge">
<title>Node55&#45;&gt;Node71</title>
<path fill="none" stroke="#191970" d="M691.8084,-276.1643C579.0009,-272.489 357.4364,-261.8258 171.7494,-232 167.0786,-231.2497 162.2446,-230.3285 157.4267,-229.3125"/>
<polygon fill="#191970" stroke="#191970" points="691.9454,-279.6703 702.0511,-276.4884 692.1669,-272.6738 691.9454,-279.6703"/>
</g>
<!-- Node72 -->
<g id="node19" class="node">
<title>Node72</title>
<g id="a_node19"><a xlink:href="exporter_8cc.html" target="_top" xlink:title="core/exporter.cc">
<polygon fill="#ffffff" stroke="#000000" points="607.2494,-207 607.2494,-226 694.2494,-226 694.2494,-207 607.2494,-207"/>
<text text-anchor="middle" x="650.7494" y="-214" font-family="Helvetica,sans-Serif" font-size="10.00" fill="#000000">core/exporter.cc</text>
</a>
</g>
</g>
<!-- Node55&#45;&gt;Node72 -->
<g id="edge31" class="edge">
<title>Node55&#45;&gt;Node72</title>
<path fill="none" stroke="#191970" d="M738.7683,-263.571C717.1263,-251.9972 687.3625,-236.0801 668.592,-226.0419"/>
<polygon fill="#191970" stroke="#191970" points="737.3119,-266.7611 747.7807,-268.3906 740.613,-260.5884 737.3119,-266.7611"/>
</g>
<!-- Node73 -->
<g id="node20" class="node">
<title>Node73</title>
<g id="a_node20"><a xlink:href="paraview_2adaptor_8h.html" target="_top" xlink:title="core/visualization\l/paraview/adaptor.h">
<polygon fill="#ffffff" stroke="#000000" points="1334.7494,-201.5 1334.7494,-231.5 1436.7494,-231.5 1436.7494,-201.5 1334.7494,-201.5"/>
<text text-anchor="start" x="1342.7494" y="-219.5" font-family="Helvetica,sans-Serif" font-size="10.00" fill="#000000">core/visualization</text>
<text text-anchor="middle" x="1385.7494" y="-208.5" font-family="Helvetica,sans-Serif" font-size="10.00" fill="#000000">/paraview/adaptor.h</text>
</a>
</g>
</g>
<!-- Node55&#45;&gt;Node73 -->
<g id="edge38" class="edge">
<title>Node55&#45;&gt;Node73</title>
<path fill="none" stroke="#191970" d="M839.4017,-275.444C946.1029,-270.9393 1149.6416,-259.331 1320.7494,-232 1325.2172,-231.2864 1329.8323,-230.4304 1334.4461,-229.4921"/>
<polygon fill="#191970" stroke="#191970" points="839.2293,-271.9481 829.3824,-275.8581 839.5184,-278.9421 839.2293,-271.9481"/>
</g>
<!-- Node75 -->
<g id="node22" class="node">
<title>Node75</title>
<g id="a_node22"><a xlink:href="neuron__soma_8cc.html" target="_top" xlink:title="neuroscience/neuron\l_soma.cc">
<polygon fill="#ffffff" stroke="#000000" points="712.2494,-201.5 712.2494,-231.5 819.2494,-231.5 819.2494,-201.5 712.2494,-201.5"/>
<text text-anchor="start" x="720.2494" y="-219.5" font-family="Helvetica,sans-Serif" font-size="10.00" fill="#000000">neuroscience/neuron</text>
<text text-anchor="middle" x="765.7494" y="-208.5" font-family="Helvetica,sans-Serif" font-size="10.00" fill="#000000">_soma.cc</text>
</a>
</g>
</g>
<!-- Node55&#45;&gt;Node75 -->
<g id="edge40" class="edge">
<title>Node55&#45;&gt;Node75</title>
<path fill="none" stroke="#191970" d="M765.7494,-258.3693C765.7494,-249.681 765.7494,-239.6241 765.7494,-231.5446"/>
<polygon fill="#191970" stroke="#191970" points="762.2495,-258.3906 765.7494,-268.3906 769.2495,-258.3907 762.2495,-258.3906"/>
</g>
<!-- Node56&#45;&gt;Node57 -->
<g id="edge3" class="edge">
<title>Node56&#45;&gt;Node57</title>
<path fill="none" stroke="#191970" d="M571.0293,-205.0942C636.7146,-192.4239 734.6503,-172.7339 750.7494,-165 770.396,-155.562 768.6295,-142.3816 788.7494,-134 830.233,-116.7187 1134.8497,-92.9387 1240.6597,-85.1125"/>
<polygon fill="#191970" stroke="#191970" points="570.343,-201.662 561.1839,-206.9874 571.6649,-208.536 570.343,-201.662"/>
</g>
<!-- Node56&#45;&gt;Node58 -->
<g id="edge4" class="edge">
<title>Node56&#45;&gt;Node58</title>
<path fill="none" stroke="#191970" d="M440.2008,-205.3782C359.1914,-192.6073 227.4642,-171.8409 149.4516,-159.5425"/>
<polygon fill="#191970" stroke="#191970" points="439.8856,-208.8717 450.3086,-206.9717 440.9757,-201.9571 439.8856,-208.8717"/>
</g>
<!-- Node56&#45;&gt;Node59 -->
<g id="edge15" class="edge">
<title>Node56&#45;&gt;Node59</title>
<path fill="none" stroke="#191970" d="M503.2928,-197.7188C494.6255,-178.4777 478.4176,-149.2828 454.7494,-134 418.2148,-110.4091 303.6885,-95.7005 228.2738,-88.3121"/>
<polygon fill="#191970" stroke="#191970" points="500.1009,-199.1568 507.2348,-206.9899 506.5428,-196.4177 500.1009,-199.1568"/>
</g>
<!-- Node56&#45;&gt;Node61 -->
<g id="edge18" class="edge">
<title>Node56&#45;&gt;Node61</title>
<path fill="none" stroke="#191970" d="M507.9541,-196.6739C504.8852,-179.2947 498.8457,-153.7882 487.7494,-134 478.4238,-117.3694 462.6396,-101.8834 451.7311,-92.3227"/>
<polygon fill="#191970" stroke="#191970" points="504.5343,-197.4548 509.565,-206.7791 511.447,-196.3527 504.5343,-197.4548"/>
</g>
<!-- Node56&#45;&gt;Node62 -->
<g id="edge8" class="edge">
<title>Node56&#45;&gt;Node62</title>
<path fill="none" stroke="#191970" d="M484.1615,-202.1339C463.6505,-191.0514 435.3606,-175.7657 414.5509,-164.5218"/>
<polygon fill="#191970" stroke="#191970" points="482.5216,-205.2261 492.9833,-206.9005 485.8492,-199.0675 482.5216,-205.2261"/>
</g>
<!-- Node56&#45;&gt;Node63 -->
<g id="edge9" class="edge">
<title>Node56&#45;&gt;Node63</title>
<path fill="none" stroke="#191970" d="M571.246,-205.2633C580.4433,-203.7235 589.8362,-202.2461 598.7494,-201 639.744,-195.2688 896.3115,-169.3579 1023.476,-156.6173"/>
<polygon fill="#191970" stroke="#191970" points="570.6419,-201.8157 561.3746,-206.9507 571.8214,-208.7156 570.6419,-201.8157"/>
</g>
<!-- Node65 -->
<g id="node12" class="node">
<title>Node65</title>
<g id="a_node12"><a xlink:href="displacement__op_8h.html" target="_top" xlink:title="core/operation/displacement_op.h">
<polygon fill="#ffffff" stroke="#000000" points="578.2494,-140 578.2494,-159 741.2494,-159 741.2494,-140 578.2494,-140"/>
<text text-anchor="middle" x="659.7494" y="-147" font-family="Helvetica,sans-Serif" font-size="10.00" fill="#000000">core/operation/displacement_op.h</text>
</a>
</g>
</g>
<!-- Node56&#45;&gt;Node65 -->
<g id="edge12" class="edge">
<title>Node56&#45;&gt;Node65</title>
<path fill="none" stroke="#191970" d="M541.3448,-202.7424C570.2996,-189.7224 613.0108,-170.5167 638.441,-159.0817"/>
<polygon fill="#191970" stroke="#191970" points="539.7825,-199.6072 532.0975,-206.9005 542.6533,-205.9915 539.7825,-199.6072"/>
</g>
<!-- Node56&#45;&gt;Node66 -->
<g id="edge16" class="edge">
<title>Node56&#45;&gt;Node66</title>
<path fill="none" stroke="#191970" d="M571.5724,-205.1148C626.9078,-194.7357 710.8319,-178.9415 783.7494,-165 793.7542,-163.0871 804.4594,-161.0242 814.6796,-159.0469"/>
<polygon fill="#191970" stroke="#191970" points="570.7654,-201.705 561.5818,-206.9881 572.0556,-208.5851 570.7654,-201.705"/>
</g>
<!-- Node56&#45;&gt;Node67 -->
<g id="edge17" class="edge">
<title>Node56&#45;&gt;Node67</title>
<path fill="none" stroke="#191970" d="M464.9818,-204.3797C421.2937,-192.8101 355.5378,-175.3965 309.8572,-163.2993"/>
<polygon fill="#191970" stroke="#191970" points="464.2066,-207.795 474.7694,-206.9717 465.9986,-201.0283 464.2066,-207.795"/>
</g>
<!-- Node58&#45;&gt;Node59 -->
<g id="edge5" class="edge">
<title>Node58&#45;&gt;Node59</title>
<path fill="none" stroke="#191970" d="M109.7234,-127.4965C120.3761,-117.7193 132.6488,-106.4554 142.2502,-97.6432"/>
<polygon fill="#191970" stroke="#191970" points="107.315,-124.9562 102.3143,-134.2967 112.0483,-130.1134 107.315,-124.9562"/>
</g>
<!-- Node58&#45;&gt;Node61 -->
<g id="edge7" class="edge">
<title>Node58&#45;&gt;Node61</title>
<path fill="none" stroke="#191970" d="M159.827,-134.7576C161.1446,-134.5025 162.453,-134.2498 163.7494,-134 243.4423,-118.6472 336.2224,-101.4801 391.3554,-91.3531"/>
<polygon fill="#191970" stroke="#191970" points="158.7351,-131.4044 149.5882,-136.751 160.0728,-138.2754 158.7351,-131.4044"/>
</g>
<!-- Node60 -->
<g id="node7" class="node">
<title>Node60</title>
<g id="a_node7"><a xlink:href="default__ops_8cc.html" target="_top" xlink:title="core/operation/default\l_ops.cc">
<polygon fill="#ffffff" stroke="#000000" points="604.7494,-.5 604.7494,-30.5 714.7494,-30.5 714.7494,-.5 604.7494,-.5"/>
<text text-anchor="start" x="612.7494" y="-18.5" font-family="Helvetica,sans-Serif" font-size="10.00" fill="#000000">core/operation/default</text>
<text text-anchor="middle" x="659.7494" y="-7.5" font-family="Helvetica,sans-Serif" font-size="10.00" fill="#000000">_ops.cc</text>
</a>
</g>
</g>
<!-- Node59&#45;&gt;Node60 -->
<g id="edge6" class="edge">
<title>Node59&#45;&gt;Node60</title>
<path fill="none" stroke="#191970" d="M238.3867,-71.8499C340.7197,-58.1647 515.7309,-34.76 604.5504,-22.8819"/>
<polygon fill="#191970" stroke="#191970" points="237.8591,-68.3892 228.4113,-73.1839 238.7871,-75.3274 237.8591,-68.3892"/>
</g>
<!-- Node63&#45;&gt;Node60 -->
<g id="edge10" class="edge">
<title>Node63&#45;&gt;Node60</title>
<path fill="none" stroke="#191970" d="M1085.3348,-130.7802C1074.5068,-111.3707 1054.8142,-81.8326 1028.7494,-67 976.3261,-37.1677 804.444,-23.4691 714.9812,-18.23"/>
<polygon fill="#191970" stroke="#191970" points="1082.3877,-132.6924 1090.176,-139.8753 1088.5669,-129.4033 1082.3877,-132.6924"/>
</g>
<!-- Node63&#45;&gt;Node64 -->
<g id="edge11" class="edge">
<title>Node63&#45;&gt;Node64</title>
<path fill="none" stroke="#191970" d="M1068.4512,-135.0575C1044.7781,-122.0567 1010.6566,-103.3179 990.1966,-92.0817"/>
<polygon fill="#191970" stroke="#191970" points="1066.8198,-138.1546 1077.2698,-139.9005 1070.1894,-132.019 1066.8198,-138.1546"/>
</g>
<!-- Node65&#45;&gt;Node60 -->
<g id="edge13" class="edge">
<title>Node65&#45;&gt;Node60</title>
<path fill="none" stroke="#191970" d="M659.7494,-129.6918C659.7494,-102.6902 659.7494,-54.915 659.7494,-30.611"/>
<polygon fill="#191970" stroke="#191970" points="656.2495,-129.863 659.7494,-139.8631 663.2495,-129.8631 656.2495,-129.863"/>
</g>
<!-- Node65&#45;&gt;Node64 -->
<g id="edge14" class="edge">
<title>Node65&#45;&gt;Node64</title>
<path fill="none" stroke="#191970" d="M714.415,-137.7984C775.0872,-124.8111 871.849,-104.0985 928.137,-92.0496"/>
<polygon fill="#191970" stroke="#191970" points="713.3081,-134.456 704.2623,-139.9717 714.7734,-141.3009 713.3081,-134.456"/>
</g>
<!-- Node68&#45;&gt;Node57 -->
<g id="edge20" class="edge">
<title>Node68&#45;&gt;Node57</title>
<path fill="none" stroke="#191970" d="M1506.0009,-197.3652C1498.3768,-178.5023 1484.1688,-150.2164 1462.7494,-134 1439.241,-116.202 1360.1426,-98.5345 1313.0019,-89.2303"/>
<polygon fill="#191970" stroke="#191970" points="1502.8288,-198.8713 1509.6487,-206.9794 1509.3736,-196.3881 1502.8288,-198.8713"/>
</g>
<!-- Node69&#45;&gt;Node61 -->
<g id="edge26" class="edge">
<title>Node69&#45;&gt;Node61</title>
<path fill="none" stroke="#191970" d="M865.4473,-206.865C853.3505,-204.8652 840.6322,-202.8157 828.7494,-201 713.8651,-183.4454 678.8494,-205.047 569.7494,-165 521.5699,-147.3149 472.5347,-109.7512 451.0283,-92.0747"/>
<polygon fill="#191970" stroke="#191970" points="864.9913,-210.3371 875.4303,-208.5268 866.1408,-203.4322 864.9913,-210.3371"/>
</g>
<!-- Node69&#45;&gt;Node64 -->
<g id="edge25" class="edge">
<title>Node69&#45;&gt;Node64</title>
<path fill="none" stroke="#191970" d="M931.0582,-192.0417C942.4585,-162.0879 961.2222,-112.7871 969.0941,-92.1042"/>
<polygon fill="#191970" stroke="#191970" points="927.7867,-190.798 927.5006,-201.389 934.3289,-193.288 927.7867,-190.798"/>
</g>
<!-- Node70 -->
<g id="node17" class="node">
<title>Node70</title>
<g id="a_node17"><a xlink:href="notebook__util_8h.html" target="_top" xlink:title="core/visualization\l/root/notebook_util.h">
<polygon fill="#ffffff" stroke="#000000" points="1184.2494,-134.5 1184.2494,-164.5 1289.2494,-164.5 1289.2494,-134.5 1184.2494,-134.5"/>
<text text-anchor="start" x="1192.2494" y="-152.5" font-family="Helvetica,sans-Serif" font-size="10.00" fill="#000000">core/visualization</text>
<text text-anchor="middle" x="1236.7494" y="-141.5" font-family="Helvetica,sans-Serif" font-size="10.00" fill="#000000">/root/notebook_util.h</text>
</a>
</g>
</g>
<!-- Node69&#45;&gt;Node70 -->
<g id="edge23" class="edge">
<title>Node69&#45;&gt;Node70</title>
<path fill="none" stroke="#191970" d="M977.9553,-205.7976C1029.3261,-195.8406 1107.332,-180.281 1174.7494,-165 1177.7792,-164.3133 1180.8879,-163.5913 1184.0221,-162.8501"/>
<polygon fill="#191970" stroke="#191970" points="977.2014,-202.3784 968.0473,-207.7125 978.5298,-209.2512 977.2014,-202.3784"/>
</g>
<!-- Node70&#45;&gt;Node57 -->
<g id="edge24" class="edge">
<title>Node70&#45;&gt;Node57</title>
<path fill="none" stroke="#191970" d="M1251.0778,-125.5001C1257.976,-113.9456 1265.8555,-100.7473 1271.045,-92.055"/>
<polygon fill="#191970" stroke="#191970" points="1247.947,-123.9163 1245.826,-134.2967 1253.9574,-127.5046 1247.947,-123.9163"/>
</g>
<!-- Node71&#45;&gt;Node58 -->
<g id="edge28" class="edge">
<title>Node71&#45;&gt;Node58</title>
<path fill="none" stroke="#191970" d="M100.2052,-191.6103C97.0968,-182.5553 93.6792,-172.5998 90.9478,-164.6432"/>
<polygon fill="#191970" stroke="#191970" points="96.9731,-192.9749 103.5304,-201.2967 103.5938,-190.702 96.9731,-192.9749"/>
</g>
<!-- Node74 -->
<g id="node21" class="node">
<title>Node74</title>
<g id="a_node21"><a xlink:href="adaptor_8cc.html" target="_top" xlink:title="core/visualization\l/paraview/adaptor.cc">
<polygon fill="#ffffff" stroke="#000000" points="1346.2494,-134.5 1346.2494,-164.5 1453.2494,-164.5 1453.2494,-134.5 1346.2494,-134.5"/>
<text text-anchor="start" x="1354.2494" y="-152.5" font-family="Helvetica,sans-Serif" font-size="10.00" fill="#000000">core/visualization</text>
<text text-anchor="middle" x="1399.7494" y="-141.5" font-family="Helvetica,sans-Serif" font-size="10.00" fill="#000000">/paraview/adaptor.cc</text>
</a>
</g>
</g>
<!-- Node73&#45;&gt;Node74 -->
<g id="edge39" class="edge">
<title>Node73&#45;&gt;Node74</title>
<path fill="none" stroke="#191970" d="M1391.0114,-191.3179C1392.887,-182.3414 1394.9405,-172.5143 1396.5852,-164.6432"/>
<polygon fill="#191970" stroke="#191970" points="1387.5457,-190.7922 1388.9262,-201.2967 1394.3977,-192.224 1387.5457,-190.7922"/>
</g>
</g>
</svg>
