<?xml version="1.0" encoding="UTF-8" standalone="no"?>
<!DOCTYPE svg PUBLIC "-//W3C//DTD SVG 1.1//EN"
 "http://www.w3.org/Graphics/SVG/1.1/DTD/svg11.dtd">
<!-- Generated by graphviz version 2.40.1 (20161225.0304)
 -->
<!-- Title: core Pages: 1 -->
<svg width="664pt" height="652pt"
 viewBox="0.00 0.00 664.00 652.00" xmlns="http://www.w3.org/2000/svg" xmlns:xlink="http://www.w3.org/1999/xlink">
<g id="graph0" class="graph" transform="scale(1 1) rotate(0) translate(4 648)">
<title>core</title>
<polygon fill="#ffffff" stroke="transparent" points="-4,4 -4,-648 660,-648 660,4 -4,4"/>
<g id="clust1" class="cluster">
<title>clusterdir_4270bfced15e0e73154b13468c7c9ad9</title>
<g id="a_clust1"><a xlink:href="dir_4270bfced15e0e73154b13468c7c9ad9.html" target="_top">
<polygon fill="#eeeeff" stroke="#000000" points="8,-8 8,-636 522,-636 522,-8 8,-8"/>
</a>
</g>
</g>
<!-- dir_4270bfced15e0e73154b13468c7c9ad9 -->
<g id="node1" class="node">
<title>dir_4270bfced15e0e73154b13468c7c9ad9</title>
<text text-anchor="middle" x="131" y="-607.5" font-family="Helvetica,sans-Serif" font-size="10.00" fill="#000000">core</text>
</g>
<!-- dir_1b63f22ff36ffa98be356425464e796a -->
<g id="node3" class="node">
<title>dir_1b63f22ff36ffa98be356425464e796a</title>
<g id="a_node3"><a xlink:href="dir_1b63f22ff36ffa98be356425464e796a.html" target="_top" xlink:title="container">
<polygon fill="#ffffff" stroke="#000000" points="288,-484 232,-484 232,-448 288,-448 288,-484"/>
<text text-anchor="middle" x="260" y="-463.5" font-family="Helvetica,sans-Serif" font-size="10.00" fill="#000000">container</text>
</a>
</g>
</g>
<!-- dir_4270bfced15e0e73154b13468c7c9ad9&#45;&gt;dir_1b63f22ff36ffa98be356425464e796a -->
<g id="edge44" class="edge">
<title>dir_4270bfced15e0e73154b13468c7c9ad9&#45;&gt;dir_1b63f22ff36ffa98be356425464e796a</title>
<path fill="none" stroke="#000000" d="M147.3379,-591.7623C170.0192,-566.4436 211.1608,-520.5182 236.9546,-491.7251"/>
<polygon fill="#000000" stroke="#000000" points="239.7291,-493.8734 243.7947,-484.0896 234.5153,-489.2026 239.7291,-493.8734"/>
<g id="a_edge44&#45;headlabel"><a xlink:href="dir_000000_000002.html" target="_top" xlink:title="23">
<text text-anchor="middle" x="239.4454" y="-495.9452" font-family="Helvetica,sans-Serif" font-size="10.00" fill="#000000">23</text>
</a>
</g>
</g>
<!-- dir_bc6016157ccda3b72fdae555a0f34277 -->
<g id="node4" class="node">
<title>dir_bc6016157ccda3b72fdae555a0f34277</title>
<g id="a_node4"><a xlink:href="dir_bc6016157ccda3b72fdae555a0f34277.html" target="_top" xlink:title="environment">
<polygon fill="#ffffff" stroke="#000000" points="192,-196 122,-196 122,-160 192,-160 192,-196"/>
<text text-anchor="middle" x="157" y="-175.5" font-family="Helvetica,sans-Serif" font-size="10.00" fill="#000000">environment</text>
</a>
</g>
</g>
<!-- dir_4270bfced15e0e73154b13468c7c9ad9&#45;&gt;dir_bc6016157ccda3b72fdae555a0f34277 -->
<g id="edge42" class="edge">
<title>dir_4270bfced15e0e73154b13468c7c9ad9&#45;&gt;dir_bc6016157ccda3b72fdae555a0f34277</title>
<path fill="none" stroke="#000000" d="M103.8076,-592.8193C90.7613,-583.3598 75.8626,-570.5831 66,-556 42.4568,-521.1885 37,-508.0253 37,-466 37,-466 37,-466 37,-322 37,-270.2495 83.3045,-227.2268 118.3862,-202.0578"/>
<polygon fill="#000000" stroke="#000000" points="120.8159,-204.6314 127.0285,-196.0492 116.8199,-198.884 120.8159,-204.6314"/>
<g id="a_edge42&#45;headlabel"><a xlink:href="dir_000000_000003.html" target="_top" xlink:title="9">
<text text-anchor="middle" x="119.4854" y="-206.5146" font-family="Helvetica,sans-Serif" font-size="10.00" fill="#000000">9</text>
</a>
</g>
</g>
<!-- dir_20e5e21553452583d5c4dd80dd906094 -->
<g id="node6" class="node">
<title>dir_20e5e21553452583d5c4dd80dd906094</title>
<g id="a_node6"><a xlink:href="dir_20e5e21553452583d5c4dd80dd906094.html" target="_top" xlink:title="execution_context">
<polygon fill="#ffffff" stroke="#000000" points="212,-340 116,-340 116,-304 212,-304 212,-340"/>
<text text-anchor="middle" x="164" y="-319.5" font-family="Helvetica,sans-Serif" font-size="10.00" fill="#000000">execution_context</text>
</a>
</g>
</g>
<!-- dir_4270bfced15e0e73154b13468c7c9ad9&#45;&gt;dir_20e5e21553452583d5c4dd80dd906094 -->
<g id="edge43" class="edge">
<title>dir_4270bfced15e0e73154b13468c7c9ad9&#45;&gt;dir_20e5e21553452583d5c4dd80dd906094</title>
<path fill="none" stroke="#000000" d="M133.0643,-591.9843C138.6434,-543.2939 154.0546,-408.7961 160.7851,-350.0573"/>
<polygon fill="#000000" stroke="#000000" points="164.2753,-350.3423 161.9365,-340.0089 157.3208,-349.5454 164.2753,-350.3423"/>
<g id="a_edge43&#45;headlabel"><a xlink:href="dir_000000_000007.html" target="_top" xlink:title="5">
<text text-anchor="middle" x="166.687" y="-351.7368" font-family="Helvetica,sans-Serif" font-size="10.00" fill="#000000">5</text>
</a>
</g>
</g>
<!-- dir_1194f1e4283959aa8e4c16c774981ba1 -->
<g id="node7" class="node">
<title>dir_1194f1e4283959aa8e4c16c774981ba1</title>
<g id="a_node7"><a xlink:href="dir_1194f1e4283959aa8e4c16c774981ba1.html" target="_top" xlink:title="gpu">
<polygon fill="#ffffff" stroke="#000000" points="104,-196 50,-196 50,-160 104,-160 104,-196"/>
<text text-anchor="middle" x="77" y="-175.5" font-family="Helvetica,sans-Serif" font-size="10.00" fill="#000000">gpu</text>
</a>
</g>
</g>
<!-- dir_4270bfced15e0e73154b13468c7c9ad9&#45;&gt;dir_1194f1e4283959aa8e4c16c774981ba1 -->
<g id="edge40" class="edge">
<title>dir_4270bfced15e0e73154b13468c7c9ad9&#45;&gt;dir_1194f1e4283959aa8e4c16c774981ba1</title>
<path fill="none" stroke="#000000" d="M103.8228,-599.9493C83.9087,-591.2393 57.7126,-576.7467 42,-556 16.9358,-522.9055 17,-507.5145 17,-466 17,-466 17,-466 17,-322 17,-278.2551 40.8848,-232.3872 58.5148,-204.4891"/>
<polygon fill="#000000" stroke="#000000" points="61.4608,-206.379 63.9809,-196.0882 55.5934,-202.5614 61.4608,-206.379"/>
<g id="a_edge40&#45;headlabel"><a xlink:href="dir_000000_000008.html" target="_top" xlink:title="3">
<text text-anchor="middle" x="61.8803" y="-208.4404" font-family="Helvetica,sans-Serif" font-size="10.00" fill="#000000">3</text>
</a>
</g>
</g>
<!-- dir_a30b35981c87ca5d986f74fad2b16cee -->
<g id="node8" class="node">
<title>dir_a30b35981c87ca5d986f74fad2b16cee</title>
<g id="a_node8"><a xlink:href="dir_a30b35981c87ca5d986f74fad2b16cee.html" target="_top" xlink:title="memory">
<polygon fill="#ffffff" stroke="#000000" points="287,-556 233,-556 233,-520 287,-520 287,-556"/>
<text text-anchor="middle" x="260" y="-535.5" font-family="Helvetica,sans-Serif" font-size="10.00" fill="#000000">memory</text>
</a>
</g>
</g>
<!-- dir_4270bfced15e0e73154b13468c7c9ad9&#45;&gt;dir_a30b35981c87ca5d986f74fad2b16cee -->
<g id="edge41" class="edge">
<title>dir_4270bfced15e0e73154b13468c7c9ad9&#45;&gt;dir_a30b35981c87ca5d986f74fad2b16cee</title>
<path fill="none" stroke="#000000" d="M158.0426,-594.9064C177.221,-584.2022 203.1608,-569.7242 224.076,-558.0506"/>
<polygon fill="#000000" stroke="#000000" points="225.9668,-561.0036 232.993,-553.0737 222.5552,-554.8912 225.9668,-561.0036"/>
<g id="a_edge41&#45;headlabel"><a xlink:href="dir_000000_000009.html" target="_top" xlink:title="1">
<text text-anchor="middle" x="224.2117" y="-562.7347" font-family="Helvetica,sans-Serif" font-size="10.00" fill="#000000">1</text>
</a>
</g>
</g>
<!-- dir_087ef7b4b2bc9758818ca5b5acc1bcc7 -->
<g id="node9" class="node">
<title>dir_087ef7b4b2bc9758818ca5b5acc1bcc7</title>
<g id="a_node9"><a xlink:href="dir_087ef7b4b2bc9758818ca5b5acc1bcc7.html" target="_top" xlink:title="operation">
<polygon fill="#ffffff" stroke="#000000" points="212,-268 156,-268 156,-232 212,-232 212,-268"/>
<text text-anchor="middle" x="184" y="-247.5" font-family="Helvetica,sans-Serif" font-size="10.00" fill="#000000">operation</text>
</a>
</g>
</g>
<!-- dir_4270bfced15e0e73154b13468c7c9ad9&#45;&gt;dir_087ef7b4b2bc9758818ca5b5acc1bcc7 -->
<g id="edge46" class="edge">
<title>dir_4270bfced15e0e73154b13468c7c9ad9&#45;&gt;dir_087ef7b4b2bc9758818ca5b5acc1bcc7</title>
<path fill="none" stroke="#000000" d="M114.577,-591.9758C92.776,-566.1064 57,-516.032 57,-466 57,-466 57,-466 57,-394 57,-350.0449 69.0568,-337.0808 98,-304 111.419,-288.6626 130.2539,-276.1662 146.8777,-267.0722"/>
<polygon fill="#000000" stroke="#000000" points="148.6067,-270.1176 155.8373,-262.3736 145.3557,-263.9184 148.6067,-270.1176"/>
<g id="a_edge46&#45;headlabel"><a xlink:href="dir_000000_000010.html" target="_top" xlink:title="8">
<text text-anchor="middle" x="146.742" y="-271.8015" font-family="Helvetica,sans-Serif" font-size="10.00" fill="#000000">8</text>
</a>
</g>
</g>
<!-- dir_495c398245f1b03c2187e57d110c3617 -->
<g id="node13" class="node">
<title>dir_495c398245f1b03c2187e57d110c3617</title>
<g id="a_node13"><a xlink:href="dir_495c398245f1b03c2187e57d110c3617.html" target="_top" xlink:title="visualization">
<polygon fill="#ffffff" stroke="#ff0000" points="493.5,-196 422.5,-196 422.5,-160 493.5,-160 493.5,-196"/>
<text text-anchor="middle" x="458" y="-175.5" font-family="Helvetica,sans-Serif" font-size="10.00" fill="#000000">visualization</text>
</a>
</g>
</g>
<!-- dir_4270bfced15e0e73154b13468c7c9ad9&#45;&gt;dir_495c398245f1b03c2187e57d110c3617 -->
<g id="edge45" class="edge">
<title>dir_4270bfced15e0e73154b13468c7c9ad9&#45;&gt;dir_495c398245f1b03c2187e57d110c3617</title>
<path fill="none" stroke="#000000" d="M158.1663,-605.8174C245.4376,-591.6258 513,-541.9249 513,-466 513,-466 513,-466 513,-394 513,-324.4368 485.8796,-246.0603 469.7272,-205.5495"/>
<polygon fill="#000000" stroke="#000000" points="472.8909,-204.038 465.8802,-196.0944 466.407,-206.6762 472.8909,-204.038"/>
<g id="a_edge45&#45;headlabel"><a xlink:href="dir_000000_000013.html" target="_top" xlink:title="3">
<text text-anchor="middle" x="476.8755" y="-203.7975" font-family="Helvetica,sans-Serif" font-size="10.00" fill="#000000">3</text>
</a>
</g>
</g>
<!-- dir_19355cc319126bb51dcdac43ee2050e0 -->
<g id="node14" class="node">
<title>dir_19355cc319126bb51dcdac43ee2050e0</title>
<g id="a_node14"><a xlink:href="dir_19355cc319126bb51dcdac43ee2050e0.html" target="_top" xlink:title="neuroscience">
<polygon fill="#ffffff" stroke="#ff0000" points="606,-484 532,-484 532,-448 606,-448 606,-484"/>
<text text-anchor="middle" x="569" y="-463.5" font-family="Helvetica,sans-Serif" font-size="10.00" fill="#000000">neuroscience</text>
</a>
</g>
</g>
<!-- dir_4270bfced15e0e73154b13468c7c9ad9&#45;&gt;dir_19355cc319126bb51dcdac43ee2050e0 -->
<g id="edge39" class="edge">
<title>dir_4270bfced15e0e73154b13468c7c9ad9&#45;&gt;dir_19355cc319126bb51dcdac43ee2050e0</title>
<path fill="none" stroke="#000000" d="M158.0107,-609.2834C235.8811,-606.752 459.0183,-596.0875 518,-556 539.5722,-541.3382 553.0822,-514.3455 560.7346,-493.732"/>
<polygon fill="#000000" stroke="#000000" points="564.068,-494.8018 564.0304,-484.207 557.4528,-492.5128 564.068,-494.8018"/>
<g id="a_edge39&#45;headlabel"><a xlink:href="dir_000000_000005.html" target="_top" xlink:title="2">
<text text-anchor="middle" x="565.5758" y="-496.6272" font-family="Helvetica,sans-Serif" font-size="10.00" fill="#000000">2</text>
</a>
</g>
</g>
<!-- dir_cc1139eeea87fb0d81a0dc0c64778f26 -->
<g id="node2" class="node">
<title>dir_cc1139eeea87fb0d81a0dc0c64778f26</title>
<g id="a_node2"><a xlink:href="dir_cc1139eeea87fb0d81a0dc0c64778f26.html" target="_top" xlink:title="biology_module">
<polygon fill="#ffffff" stroke="#000000" points="434,-340 350,-340 350,-304 434,-304 434,-340"/>
<text text-anchor="middle" x="392" y="-319.5" font-family="Helvetica,sans-Serif" font-size="10.00" fill="#000000">biology_module</text>
</a>
</g>
</g>
<!-- dir_1505f64a8d203d0c8301996badaaeb61 -->
<g id="node5" class="node">
<title>dir_1505f64a8d203d0c8301996badaaeb61</title>
<g id="a_node5"><a xlink:href="dir_1505f64a8d203d0c8301996badaaeb61.html" target="_top" xlink:title="event">
<polygon fill="#ffffff" stroke="#000000" points="384,-268 330,-268 330,-232 384,-232 384,-268"/>
<text text-anchor="middle" x="357" y="-247.5" font-family="Helvetica,sans-Serif" font-size="10.00" fill="#000000">event</text>
</a>
</g>
</g>
<!-- dir_cc1139eeea87fb0d81a0dc0c64778f26&#45;&gt;dir_1505f64a8d203d0c8301996badaaeb61 -->
<g id="edge3" class="edge">
<title>dir_cc1139eeea87fb0d81a0dc0c64778f26&#45;&gt;dir_1505f64a8d203d0c8301996badaaeb61</title>
<path fill="none" stroke="#000000" d="M383.168,-303.8314C379.3014,-295.8771 374.6794,-286.369 370.4032,-277.5723"/>
<polygon fill="#000000" stroke="#000000" points="373.4707,-275.8768 365.9509,-268.4133 367.1751,-278.9371 373.4707,-275.8768"/>
<g id="a_edge3&#45;headlabel"><a xlink:href="dir_000001_000004.html" target="_top" xlink:title="2">
<text text-anchor="middle" x="377.5957" y="-275.3683" font-family="Helvetica,sans-Serif" font-size="10.00" fill="#000000">2</text>
</a>
</g>
</g>
<!-- dir_7155ef3ffc36b95c2fce4bd5b1f8d366 -->
<g id="node10" class="node">
<title>dir_7155ef3ffc36b95c2fce4bd5b1f8d366</title>
<g id="a_node10"><a xlink:href="dir_7155ef3ffc36b95c2fce4bd5b1f8d366.html" target="_top" xlink:title="param">
<polygon fill="#ffffff" stroke="#000000" points="318,-52 264,-52 264,-16 318,-16 318,-52"/>
<text text-anchor="middle" x="291" y="-31.5" font-family="Helvetica,sans-Serif" font-size="10.00" fill="#000000">param</text>
</a>
</g>
</g>
<!-- dir_cc1139eeea87fb0d81a0dc0c64778f26&#45;&gt;dir_7155ef3ffc36b95c2fce4bd5b1f8d366 -->
<g id="edge4" class="edge">
<title>dir_cc1139eeea87fb0d81a0dc0c64778f26&#45;&gt;dir_7155ef3ffc36b95c2fce4bd5b1f8d366</title>
<path fill="none" stroke="#000000" d="M396.8481,-303.8553C400.9938,-285.524 405.4917,-256.4904 400,-232 384.8977,-164.6507 339.089,-96.3753 311.9008,-60.2428"/>
<polygon fill="#000000" stroke="#000000" points="314.5993,-58.0097 305.7463,-52.1895 309.0375,-62.2602 314.5993,-58.0097"/>
<g id="a_edge4&#45;headlabel"><a xlink:href="dir_000001_000011.html" target="_top" xlink:title="1">
<text text-anchor="middle" x="319.0378" y="-56.6417" font-family="Helvetica,sans-Serif" font-size="10.00" fill="#000000">1</text>
</a>
</g>
</g>
<!-- dir_8417c195086d4ff6acfc795544c5eeb6 -->
<g id="node11" class="node">
<title>dir_8417c195086d4ff6acfc795544c5eeb6</title>
<g id="a_node11"><a xlink:href="dir_8417c195086d4ff6acfc795544c5eeb6.html" target="_top" xlink:title="sim_object">
<polygon fill="#ffffff" stroke="#000000" points="343,-412 279,-412 279,-376 343,-376 343,-412"/>
<text text-anchor="middle" x="311" y="-391.5" font-family="Helvetica,sans-Serif" font-size="10.00" fill="#000000">sim_object</text>
</a>
</g>
</g>
<!-- dir_cc1139eeea87fb0d81a0dc0c64778f26&#45;&gt;dir_8417c195086d4ff6acfc795544c5eeb6 -->
<g id="edge2" class="edge">
<title>dir_cc1139eeea87fb0d81a0dc0c64778f26&#45;&gt;dir_8417c195086d4ff6acfc795544c5eeb6</title>
<path fill="none" stroke="#000000" d="M377.5186,-340.1628C368.4075,-349.0301 356.4204,-359.8295 345.0889,-369.4219"/>
<polygon fill="#000000" stroke="#000000" points="342.8368,-366.7426 337.3921,-375.8314 347.3163,-372.1217 342.8368,-366.7426"/>
<g id="a_edge2&#45;headlabel"><a xlink:href="dir_000001_000012.html" target="_top" xlink:title="4">
<text text-anchor="middle" x="343.7822" y="-359.7605" font-family="Helvetica,sans-Serif" font-size="10.00" fill="#000000">4</text>
</a>
</g>
</g>
<!-- dir_459a7c9a427a2877b0db19c6b8d6e89d -->
<g id="node12" class="node">
<title>dir_459a7c9a427a2877b0db19c6b8d6e89d</title>
<g id="a_node12"><a xlink:href="dir_459a7c9a427a2877b0db19c6b8d6e89d.html" target="_top" xlink:title="util">
<polygon fill="#ffffff" stroke="#000000" points="318,-124 264,-124 264,-88 318,-88 318,-124"/>
<text text-anchor="middle" x="291" y="-103.5" font-family="Helvetica,sans-Serif" font-size="10.00" fill="#000000">util</text>
</a>
</g>
</g>
<!-- dir_cc1139eeea87fb0d81a0dc0c64778f26&#45;&gt;dir_459a7c9a427a2877b0db19c6b8d6e89d -->
<g id="edge1" class="edge">
<title>dir_cc1139eeea87fb0d81a0dc0c64778f26&#45;&gt;dir_459a7c9a427a2877b0db19c6b8d6e89d</title>
<path fill="none" stroke="#000000" d="M395.7796,-303.8144C398.8359,-285.1984 401.396,-255.7154 393,-232 378.6765,-191.5417 345.2236,-154.5741 320.5142,-131.2948"/>
<polygon fill="#000000" stroke="#000000" points="322.5636,-128.4245 312.8342,-124.2305 317.8247,-133.5765 322.5636,-128.4245"/>
<g id="a_edge1&#45;headlabel"><a xlink:href="dir_000001_000015.html" target="_top" xlink:title="4">
<text text-anchor="middle" x="327.1314" y="-126.2683" font-family="Helvetica,sans-Serif" font-size="10.00" fill="#000000">4</text>
</a>
</g>
</g>
<!-- dir_1b63f22ff36ffa98be356425464e796a&#45;&gt;dir_8417c195086d4ff6acfc795544c5eeb6 -->
<g id="edge33" class="edge">
<title>dir_1b63f22ff36ffa98be356425464e796a&#45;&gt;dir_8417c195086d4ff6acfc795544c5eeb6</title>
<path fill="none" stroke="#000000" d="M266.9171,-447.8314C271.9829,-439.5386 278.8592,-429.557 285.7277,-420.4533"/>
<polygon fill="#000000" stroke="#000000" points="288.6045,-422.4556 291.9813,-412.4133 283.079,-418.1579 288.6045,-422.4556"/>
<g id="a_edge33&#45;headlabel"><a xlink:href="dir_000002_000012.html" target="_top" xlink:title="1">
<text text-anchor="middle" x="288.6388" y="-424.5361" font-family="Helvetica,sans-Serif" font-size="10.00" fill="#000000">1</text>
</a>
</g>
</g>
<!-- dir_1b63f22ff36ffa98be356425464e796a&#45;&gt;dir_459a7c9a427a2877b0db19c6b8d6e89d -->
<g id="edge32" class="edge">
<title>dir_1b63f22ff36ffa98be356425464e796a&#45;&gt;dir_459a7c9a427a2877b0db19c6b8d6e89d</title>
<path fill="none" stroke="#000000" d="M258.3932,-447.6526C258.9314,-388.9129 274.5311,-205.2013 284.7164,-134.3047"/>
<polygon fill="#000000" stroke="#000000" points="288.1929,-134.7236 286.2394,-124.3104 281.2728,-133.669 288.1929,-134.7236"/>
<g id="a_edge32&#45;headlabel"><a xlink:href="dir_000002_000015.html" target="_top" xlink:title="6">
<text text-anchor="middle" x="290.4583" y="-136.2049" font-family="Helvetica,sans-Serif" font-size="10.00" fill="#000000">6</text>
</a>
</g>
</g>
<!-- dir_bc6016157ccda3b72fdae555a0f34277&#45;&gt;dir_1b63f22ff36ffa98be356425464e796a -->
<g id="edge25" class="edge">
<title>dir_bc6016157ccda3b72fdae555a0f34277&#45;&gt;dir_1b63f22ff36ffa98be356425464e796a</title>
<path fill="none" stroke="#000000" d="M142.9856,-196.4347C122.2251,-225.9686 86.8811,-286.0588 98,-340 105.0337,-374.1226 104.1733,-387.557 129,-412 154.3698,-436.9776 192.9231,-450.9724 221.6453,-458.4194"/>
<polygon fill="#000000" stroke="#000000" points="221.1957,-461.9121 231.7397,-460.875 222.8504,-455.1104 221.1957,-461.9121"/>
<g id="a_edge25&#45;headlabel"><a xlink:href="dir_000003_000002.html" target="_top" xlink:title="6">
<text text-anchor="middle" x="217.0319" y="-461.3213" font-family="Helvetica,sans-Serif" font-size="10.00" fill="#000000">6</text>
</a>
</g>
</g>
<!-- dir_bc6016157ccda3b72fdae555a0f34277&#45;&gt;dir_7155ef3ffc36b95c2fce4bd5b1f8d366 -->
<g id="edge26" class="edge">
<title>dir_bc6016157ccda3b72fdae555a0f34277&#45;&gt;dir_7155ef3ffc36b95c2fce4bd5b1f8d366</title>
<path fill="none" stroke="#000000" d="M163.7169,-159.7421C171.5698,-140.2558 186.0758,-109.3145 206,-88 219.9013,-73.1287 238.7413,-60.6142 255.1516,-51.389"/>
<polygon fill="#000000" stroke="#000000" points="256.848,-54.4506 263.9717,-46.6082 253.5123,-48.2965 256.848,-54.4506"/>
<g id="a_edge26&#45;headlabel"><a xlink:href="dir_000003_000011.html" target="_top" xlink:title="1">
<text text-anchor="middle" x="255.0408" y="-56.1597" font-family="Helvetica,sans-Serif" font-size="10.00" fill="#000000">1</text>
</a>
</g>
</g>
<!-- dir_bc6016157ccda3b72fdae555a0f34277&#45;&gt;dir_8417c195086d4ff6acfc795544c5eeb6 -->
<g id="edge24" class="edge">
<title>dir_bc6016157ccda3b72fdae555a0f34277&#45;&gt;dir_8417c195086d4ff6acfc795544c5eeb6</title>
<path fill="none" stroke="#000000" d="M190.6839,-196.1223C204.16,-205.8217 218.9153,-218.5289 230,-232 248.5162,-254.5025 285.8921,-326.2745 302.9769,-366.3215"/>
<polygon fill="#000000" stroke="#000000" points="299.8213,-367.8508 306.8595,-375.7701 306.296,-365.1902 299.8213,-367.8508"/>
<g id="a_edge24&#45;headlabel"><a xlink:href="dir_000003_000012.html" target="_top" xlink:title="1">
<text text-anchor="middle" x="295.8289" y="-363.1051" font-family="Helvetica,sans-Serif" font-size="10.00" fill="#000000">1</text>
</a>
</g>
</g>
<!-- dir_bc6016157ccda3b72fdae555a0f34277&#45;&gt;dir_459a7c9a427a2877b0db19c6b8d6e89d -->
<g id="edge23" class="edge">
<title>dir_bc6016157ccda3b72fdae555a0f34277&#45;&gt;dir_459a7c9a427a2877b0db19c6b8d6e89d</title>
<path fill="none" stroke="#000000" d="M190.8139,-159.8314C210.358,-149.33 234.9424,-136.1205 254.8665,-125.415"/>
<polygon fill="#000000" stroke="#000000" points="256.7913,-128.3541 263.9436,-120.5378 253.478,-122.1879 256.7913,-128.3541"/>
<g id="a_edge23&#45;headlabel"><a xlink:href="dir_000003_000015.html" target="_top" xlink:title="2">
<text text-anchor="middle" x="254.9687" y="-130.0565" font-family="Helvetica,sans-Serif" font-size="10.00" fill="#000000">2</text>
</a>
</g>
</g>
<!-- dir_1505f64a8d203d0c8301996badaaeb61&#45;&gt;dir_459a7c9a427a2877b0db19c6b8d6e89d -->
<g id="edge47" class="edge">
<title>dir_1505f64a8d203d0c8301996badaaeb61&#45;&gt;dir_459a7c9a427a2877b0db19c6b8d6e89d</title>
<path fill="none" stroke="#000000" d="M348.709,-231.7135C340.4503,-213.5188 327.3936,-184.809 316,-160 312.0529,-151.4054 307.7317,-142.0521 303.8089,-133.5819"/>
<polygon fill="#000000" stroke="#000000" points="306.9714,-132.082 299.5902,-124.4815 300.6206,-135.0261 306.9714,-132.082"/>
<g id="a_edge47&#45;headlabel"><a xlink:href="dir_000004_000015.html" target="_top" xlink:title="1">
<text text-anchor="middle" x="311.0591" y="-131.6491" font-family="Helvetica,sans-Serif" font-size="10.00" fill="#000000">1</text>
</a>
</g>
</g>
<!-- dir_20e5e21553452583d5c4dd80dd906094&#45;&gt;dir_1b63f22ff36ffa98be356425464e796a -->
<g id="edge30" class="edge">
<title>dir_20e5e21553452583d5c4dd80dd906094&#45;&gt;dir_1b63f22ff36ffa98be356425464e796a</title>
<path fill="none" stroke="#000000" d="M176.0597,-340.0896C192.7413,-365.1119 222.9752,-410.4628 242.2416,-439.3623"/>
<polygon fill="#000000" stroke="#000000" points="239.3823,-441.3832 247.8415,-447.7623 245.2067,-437.5003 239.3823,-441.3832"/>
<g id="a_edge30&#45;headlabel"><a xlink:href="dir_000007_000002.html" target="_top" xlink:title="1">
<text text-anchor="middle" x="235.026" y="-437.4673" font-family="Helvetica,sans-Serif" font-size="10.00" fill="#000000">1</text>
</a>
</g>
</g>
<!-- dir_20e5e21553452583d5c4dd80dd906094&#45;&gt;dir_bc6016157ccda3b72fdae555a0f34277 -->
<g id="edge29" class="edge">
<title>dir_20e5e21553452583d5c4dd80dd906094&#45;&gt;dir_bc6016157ccda3b72fdae555a0f34277</title>
<path fill="none" stroke="#000000" d="M156.7561,-303.8366C153.0288,-293.513 148.8812,-280.2403 147,-268 143.8407,-247.4434 146.6171,-224.0983 150.0382,-206.3363"/>
<polygon fill="#000000" stroke="#000000" points="153.5094,-206.8373 152.1454,-196.3306 146.6597,-205.3947 153.5094,-206.8373"/>
<g id="a_edge29&#45;headlabel"><a xlink:href="dir_000007_000003.html" target="_top" xlink:title="1">
<text text-anchor="middle" x="155.5471" y="-208.4398" font-family="Helvetica,sans-Serif" font-size="10.00" fill="#000000">1</text>
</a>
</g>
</g>
<!-- dir_20e5e21553452583d5c4dd80dd906094&#45;&gt;dir_087ef7b4b2bc9758818ca5b5acc1bcc7 -->
<g id="edge31" class="edge">
<title>dir_20e5e21553452583d5c4dd80dd906094&#45;&gt;dir_087ef7b4b2bc9758818ca5b5acc1bcc7</title>
<path fill="none" stroke="#000000" d="M169.0468,-303.8314C171.2094,-296.0463 173.7853,-286.7729 176.1848,-278.1347"/>
<polygon fill="#000000" stroke="#000000" points="179.581,-278.9852 178.8852,-268.4133 172.8364,-277.1117 179.581,-278.9852"/>
<g id="a_edge31&#45;headlabel"><a xlink:href="dir_000007_000010.html" target="_top" xlink:title="1">
<text text-anchor="middle" x="181.3547" y="-280.7086" font-family="Helvetica,sans-Serif" font-size="10.00" fill="#000000">1</text>
</a>
</g>
</g>
<!-- dir_20e5e21553452583d5c4dd80dd906094&#45;&gt;dir_8417c195086d4ff6acfc795544c5eeb6 -->
<g id="edge28" class="edge">
<title>dir_20e5e21553452583d5c4dd80dd906094&#45;&gt;dir_8417c195086d4ff6acfc795544c5eeb6</title>
<path fill="none" stroke="#000000" d="M206.7672,-340.038C226.9656,-349.476 250.8865,-361.1286 270.7544,-371.1874"/>
<polygon fill="#000000" stroke="#000000" points="269.3597,-374.4049 279.8581,-375.8314 272.5406,-368.1694 269.3597,-374.4049"/>
<g id="a_edge28&#45;headlabel"><a xlink:href="dir_000007_000012.html" target="_top" xlink:title="2">
<text text-anchor="middle" x="264.8675" y="-372.8008" font-family="Helvetica,sans-Serif" font-size="10.00" fill="#000000">2</text>
</a>
</g>
</g>
<!-- dir_20e5e21553452583d5c4dd80dd906094&#45;&gt;dir_459a7c9a427a2877b0db19c6b8d6e89d -->
<g id="edge27" class="edge">
<title>dir_20e5e21553452583d5c4dd80dd906094&#45;&gt;dir_459a7c9a427a2877b0db19c6b8d6e89d</title>
<path fill="none" stroke="#000000" d="M187.307,-303.8745C198.6104,-294.1742 211.7151,-281.4673 221,-268 250.5159,-225.1887 245.0729,-207.6031 266,-160 269.8062,-151.342 274.0872,-141.9707 278.0167,-133.5035"/>
<polygon fill="#000000" stroke="#000000" points="281.2012,-134.9559 282.2598,-124.414 274.8583,-131.9949 281.2012,-134.9559"/>
<g id="a_edge27&#45;headlabel"><a xlink:href="dir_000007_000015.html" target="_top" xlink:title="2">
<text text-anchor="middle" x="282.2535" y="-136.914" font-family="Helvetica,sans-Serif" font-size="10.00" fill="#000000">2</text>
</a>
</g>
</g>
<!-- dir_1194f1e4283959aa8e4c16c774981ba1&#45;&gt;dir_7155ef3ffc36b95c2fce4bd5b1f8d366 -->
<g id="edge11" class="edge">
<title>dir_1194f1e4283959aa8e4c16c774981ba1&#45;&gt;dir_7155ef3ffc36b95c2fce4bd5b1f8d366</title>
<path fill="none" stroke="#000000" d="M94.3301,-159.7474C113.4967,-140.2656 145.9264,-109.3281 178,-88 202.0802,-71.9873 231.6397,-58.0375 254.4856,-48.3291"/>
<polygon fill="#000000" stroke="#000000" points="255.9463,-51.5123 263.8301,-44.4345 253.2532,-45.051 255.9463,-51.5123"/>
<g id="a_edge11&#45;headlabel"><a xlink:href="dir_000008_000011.html" target="_top" xlink:title="1">
<text text-anchor="middle" x="253.7206" y="-53.0158" font-family="Helvetica,sans-Serif" font-size="10.00" fill="#000000">1</text>
</a>
</g>
</g>
<!-- dir_1194f1e4283959aa8e4c16c774981ba1&#45;&gt;dir_459a7c9a427a2877b0db19c6b8d6e89d -->
<g id="edge10" class="edge">
<title>dir_1194f1e4283959aa8e4c16c774981ba1&#45;&gt;dir_459a7c9a427a2877b0db19c6b8d6e89d</title>
<path fill="none" stroke="#000000" d="M104.2987,-163.7534C107.2058,-162.4163 110.1437,-161.1379 113,-160 160.7151,-140.9919 217.847,-124.7592 254.2774,-115.1902"/>
<polygon fill="#000000" stroke="#000000" points="255.1793,-118.5721 263.9787,-112.6711 253.42,-111.7968 255.1793,-118.5721"/>
<g id="a_edge10&#45;headlabel"><a xlink:href="dir_000008_000015.html" target="_top" xlink:title="3">
<text text-anchor="middle" x="252.4136" y="-119.7236" font-family="Helvetica,sans-Serif" font-size="10.00" fill="#000000">3</text>
</a>
</g>
</g>
<!-- dir_a30b35981c87ca5d986f74fad2b16cee&#45;&gt;dir_1b63f22ff36ffa98be356425464e796a -->
<g id="edge15" class="edge">
<title>dir_a30b35981c87ca5d986f74fad2b16cee&#45;&gt;dir_1b63f22ff36ffa98be356425464e796a</title>
<path fill="none" stroke="#000000" d="M260,-519.8314C260,-512.131 260,-502.9743 260,-494.4166"/>
<polygon fill="#000000" stroke="#000000" points="263.5001,-494.4132 260,-484.4133 256.5001,-494.4133 263.5001,-494.4132"/>
<g id="a_edge15&#45;headlabel"><a xlink:href="dir_000009_000002.html" target="_top" xlink:title="1">
<text text-anchor="middle" x="266.3393" y="-495.5079" font-family="Helvetica,sans-Serif" font-size="10.00" fill="#000000">1</text>
</a>
</g>
</g>
<!-- dir_a30b35981c87ca5d986f74fad2b16cee&#45;&gt;dir_459a7c9a427a2877b0db19c6b8d6e89d -->
<g id="edge14" class="edge">
<title>dir_a30b35981c87ca5d986f74fad2b16cee&#45;&gt;dir_459a7c9a427a2877b0db19c6b8d6e89d</title>
<path fill="none" stroke="#000000" d="M279.3371,-519.7155C301.8352,-496.9747 337.7194,-455.775 352,-412 362.0396,-381.2249 350.0625,-371.0769 341,-340 331.7023,-308.1164 328.4754,-300.3594 321,-268 315.2205,-242.9819 302.792,-173.3748 295.8833,-134.0266"/>
<polygon fill="#000000" stroke="#000000" points="299.3043,-133.2708 294.1316,-124.0246 292.4092,-134.4784 299.3043,-133.2708"/>
<g id="a_edge14&#45;headlabel"><a xlink:href="dir_000009_000015.html" target="_top" xlink:title="5">
<text text-anchor="middle" x="302.721" y="-133.8218" font-family="Helvetica,sans-Serif" font-size="10.00" fill="#000000">5</text>
</a>
</g>
</g>
<!-- dir_087ef7b4b2bc9758818ca5b5acc1bcc7&#45;&gt;dir_1b63f22ff36ffa98be356425464e796a -->
<g id="edge53" class="edge">
<title>dir_087ef7b4b2bc9758818ca5b5acc1bcc7&#45;&gt;dir_1b63f22ff36ffa98be356425464e796a</title>
<path fill="none" stroke="#000000" d="M155.8588,-261.4859C138.3373,-270.2906 117.2463,-284.2995 107,-304 99.6172,-318.1949 100.1714,-325.5304 107,-340 130.7602,-390.3475 185.5977,-427.3825 222.7415,-447.8224"/>
<polygon fill="#000000" stroke="#000000" points="221.306,-451.024 231.7739,-452.6595 224.6107,-444.8531 221.306,-451.024"/>
<g id="a_edge53&#45;headlabel"><a xlink:href="dir_000010_000002.html" target="_top" xlink:title="1">
<text text-anchor="middle" x="216.7968" y="-449.33" font-family="Helvetica,sans-Serif" font-size="10.00" fill="#000000">1</text>
</a>
</g>
</g>
<!-- dir_087ef7b4b2bc9758818ca5b5acc1bcc7&#45;&gt;dir_bc6016157ccda3b72fdae555a0f34277 -->
<g id="edge52" class="edge">
<title>dir_087ef7b4b2bc9758818ca5b5acc1bcc7&#45;&gt;dir_bc6016157ccda3b72fdae555a0f34277</title>
<path fill="none" stroke="#000000" d="M177.1868,-231.8314C174.2356,-223.9617 170.7142,-214.5712 167.445,-205.8533"/>
<polygon fill="#000000" stroke="#000000" points="170.6934,-204.5476 163.905,-196.4133 164.1391,-207.0055 170.6934,-204.5476"/>
<g id="a_edge52&#45;headlabel"><a xlink:href="dir_000010_000003.html" target="_top" xlink:title="4">
<text text-anchor="middle" x="174.614" y="-204.4164" font-family="Helvetica,sans-Serif" font-size="10.00" fill="#000000">4</text>
</a>
</g>
</g>
<!-- dir_087ef7b4b2bc9758818ca5b5acc1bcc7&#45;&gt;dir_1194f1e4283959aa8e4c16c774981ba1 -->
<g id="edge49" class="edge">
<title>dir_087ef7b4b2bc9758818ca5b5acc1bcc7&#45;&gt;dir_1194f1e4283959aa8e4c16c774981ba1</title>
<path fill="none" stroke="#000000" d="M156.9994,-231.8314C143.5669,-222.7927 127.1527,-211.7476 112.6961,-202.0198"/>
<polygon fill="#000000" stroke="#000000" points="114.2425,-198.8418 103.992,-196.1628 110.3346,-204.6494 114.2425,-198.8418"/>
<g id="a_edge49&#45;headlabel"><a xlink:href="dir_000010_000008.html" target="_top" xlink:title="1">
<text text-anchor="middle" x="118.8099" y="-195.9929" font-family="Helvetica,sans-Serif" font-size="10.00" fill="#000000">1</text>
</a>
</g>
</g>
<!-- dir_087ef7b4b2bc9758818ca5b5acc1bcc7&#45;&gt;dir_7155ef3ffc36b95c2fce4bd5b1f8d366 -->
<g id="edge55" class="edge">
<title>dir_087ef7b4b2bc9758818ca5b5acc1bcc7&#45;&gt;dir_7155ef3ffc36b95c2fce4bd5b1f8d366</title>
<path fill="none" stroke="#000000" d="M189.8759,-231.7873C195.9929,-213.4032 206.178,-184.3292 217,-160 231.7057,-126.9398 236.4959,-119.0939 255,-88 260.3885,-78.9453 266.644,-69.3001 272.4142,-60.7041"/>
<polygon fill="#000000" stroke="#000000" points="275.4707,-62.4333 278.1948,-52.1946 269.6804,-58.4997 275.4707,-62.4333"/>
<g id="a_edge55&#45;headlabel"><a xlink:href="dir_000010_000011.html" target="_top" xlink:title="3">
<text text-anchor="middle" x="275.7994" y="-64.5021" font-family="Helvetica,sans-Serif" font-size="10.00" fill="#000000">3</text>
</a>
</g>
</g>
<!-- dir_087ef7b4b2bc9758818ca5b5acc1bcc7&#45;&gt;dir_8417c195086d4ff6acfc795544c5eeb6 -->
<g id="edge51" class="edge">
<title>dir_087ef7b4b2bc9758818ca5b5acc1bcc7&#45;&gt;dir_8417c195086d4ff6acfc795544c5eeb6</title>
<path fill="none" stroke="#000000" d="M196.4736,-268.2401C214.1582,-294.0812 244.5521,-338.4155 246,-340 255.6215,-350.5288 267.3095,-360.8486 278.1068,-369.5996"/>
<polygon fill="#000000" stroke="#000000" points="276.1288,-372.4978 286.1409,-375.9632 280.4751,-367.0106 276.1288,-372.4978"/>
<g id="a_edge51&#45;headlabel"><a xlink:href="dir_000010_000012.html" target="_top" xlink:title="6">
<text text-anchor="middle" x="271.5482" y="-369.9916" font-family="Helvetica,sans-Serif" font-size="10.00" fill="#000000">6</text>
</a>
</g>
</g>
<!-- dir_087ef7b4b2bc9758818ca5b5acc1bcc7&#45;&gt;dir_459a7c9a427a2877b0db19c6b8d6e89d -->
<g id="edge50" class="edge">
<title>dir_087ef7b4b2bc9758818ca5b5acc1bcc7&#45;&gt;dir_459a7c9a427a2877b0db19c6b8d6e89d</title>
<path fill="none" stroke="#000000" d="M195.8768,-231.727C208.0205,-213.2958 227.6523,-184.1861 246,-160 253.1151,-150.6208 261.2579,-140.6423 268.6435,-131.8479"/>
<polygon fill="#000000" stroke="#000000" points="271.3672,-134.0475 275.1621,-124.1556 266.0268,-129.522 271.3672,-134.0475"/>
<g id="a_edge50&#45;headlabel"><a xlink:href="dir_000010_000015.html" target="_top" xlink:title="9">
<text text-anchor="middle" x="271.2094" y="-136.1255" font-family="Helvetica,sans-Serif" font-size="10.00" fill="#000000">9</text>
</a>
</g>
</g>
<!-- dir_087ef7b4b2bc9758818ca5b5acc1bcc7&#45;&gt;dir_495c398245f1b03c2187e57d110c3617 -->
<g id="edge54" class="edge">
<title>dir_087ef7b4b2bc9758818ca5b5acc1bcc7&#45;&gt;dir_495c398245f1b03c2187e57d110c3617</title>
<path fill="none" stroke="#000000" d="M212.0352,-242.6331C259.3849,-230.1908 355.604,-204.907 412.6532,-189.9159"/>
<polygon fill="#000000" stroke="#000000" points="413.7043,-193.2586 422.4865,-187.332 411.9253,-186.4885 413.7043,-193.2586"/>
<g id="a_edge54&#45;headlabel"><a xlink:href="dir_000010_000013.html" target="_top" xlink:title="1">
<text text-anchor="middle" x="410.9493" y="-194.4182" font-family="Helvetica,sans-Serif" font-size="10.00" fill="#000000">1</text>
</a>
</g>
</g>
<!-- dir_7155ef3ffc36b95c2fce4bd5b1f8d366&#45;&gt;dir_459a7c9a427a2877b0db19c6b8d6e89d -->
<g id="edge48" class="edge">
<title>dir_7155ef3ffc36b95c2fce4bd5b1f8d366&#45;&gt;dir_459a7c9a427a2877b0db19c6b8d6e89d</title>
<path fill="none" stroke="#000000" d="M296.976,-52.4133C297.7071,-60.0593 297.9203,-69.1084 297.6155,-77.5726"/>
<polygon fill="#000000" stroke="#000000" points="294.1048,-77.6264 296.9524,-87.8314 301.0902,-78.078 294.1048,-77.6264"/>
<g id="a_edge48&#45;headlabel"><a xlink:href="dir_000011_000015.html" target="_top" xlink:title="7">
<text text-anchor="middle" x="291.5032" y="-71.3562" font-family="Helvetica,sans-Serif" font-size="10.00" fill="#000000">7</text>
</a>
</g>
</g>
<!-- dir_8417c195086d4ff6acfc795544c5eeb6&#45;&gt;dir_cc1139eeea87fb0d81a0dc0c64778f26 -->
<g id="edge16" class="edge">
<title>dir_8417c195086d4ff6acfc795544c5eeb6&#45;&gt;dir_cc1139eeea87fb0d81a0dc0c64778f26</title>
<path fill="none" stroke="#000000" d="M325.4873,-375.8314C334.5998,-366.9632 346.5873,-356.1637 357.9185,-346.5718"/>
<polygon fill="#000000" stroke="#000000" points="360.1701,-349.2515 365.615,-340.1628 355.6908,-343.8723 360.1701,-349.2515"/>
<g id="a_edge16&#45;headlabel"><a xlink:href="dir_000012_000001.html" target="_top" xlink:title="1">
<text text-anchor="middle" x="359.2247" y="-351.2335" font-family="Helvetica,sans-Serif" font-size="10.00" fill="#000000">1</text>
</a>
</g>
</g>
<!-- dir_8417c195086d4ff6acfc795544c5eeb6&#45;&gt;dir_1b63f22ff36ffa98be356425464e796a -->
<g id="edge20" class="edge">
<title>dir_8417c195086d4ff6acfc795544c5eeb6&#45;&gt;dir_1b63f22ff36ffa98be356425464e796a</title>
<path fill="none" stroke="#000000" d="M303.9333,-412.4133C298.832,-420.7389 291.9383,-430.7282 285.07,-439.8144"/>
<polygon fill="#000000" stroke="#000000" points="282.2085,-437.7924 278.8218,-447.8314 287.7297,-442.0955 282.2085,-437.7924"/>
<g id="a_edge20&#45;headlabel"><a xlink:href="dir_000012_000002.html" target="_top" xlink:title="5">
<text text-anchor="middle" x="282.1787" y="-430.7118" font-family="Helvetica,sans-Serif" font-size="10.00" fill="#000000">5</text>
</a>
</g>
</g>
<!-- dir_8417c195086d4ff6acfc795544c5eeb6&#45;&gt;dir_bc6016157ccda3b72fdae555a0f34277 -->
<g id="edge18" class="edge">
<title>dir_8417c195086d4ff6acfc795544c5eeb6&#45;&gt;dir_bc6016157ccda3b72fdae555a0f34277</title>
<path fill="none" stroke="#000000" d="M296.9998,-375.7701C274.3624,-338.7931 232.0854,-256.4095 212,-232 203.2535,-221.3705 192.2216,-211.2166 182.2469,-202.6406"/>
<polygon fill="#000000" stroke="#000000" points="184.4339,-199.9064 174.5379,-196.1223 179.9142,-205.2517 184.4339,-199.9064"/>
<g id="a_edge18&#45;headlabel"><a xlink:href="dir_000012_000003.html" target="_top" xlink:title="1">
<text text-anchor="middle" x="189.012" y="-197.5592" font-family="Helvetica,sans-Serif" font-size="10.00" fill="#000000">1</text>
</a>
</g>
</g>
<!-- dir_8417c195086d4ff6acfc795544c5eeb6&#45;&gt;dir_1505f64a8d203d0c8301996badaaeb61 -->
<g id="edge21" class="edge">
<title>dir_8417c195086d4ff6acfc795544c5eeb6&#45;&gt;dir_1505f64a8d203d0c8301996badaaeb61</title>
<path fill="none" stroke="#000000" d="M316.8259,-375.7623C324.7065,-351.0928 338.8365,-306.8598 348.0642,-277.9731"/>
<polygon fill="#000000" stroke="#000000" points="351.5124,-278.6805 351.2214,-268.0896 344.8443,-276.5503 351.5124,-278.6805"/>
<g id="a_edge21&#45;headlabel"><a xlink:href="dir_000012_000004.html" target="_top" xlink:title="3">
<text text-anchor="middle" x="353.1232" y="-280.4686" font-family="Helvetica,sans-Serif" font-size="10.00" fill="#000000">3</text>
</a>
</g>
</g>
<!-- dir_8417c195086d4ff6acfc795544c5eeb6&#45;&gt;dir_20e5e21553452583d5c4dd80dd906094 -->
<g id="edge19" class="edge">
<title>dir_8417c195086d4ff6acfc795544c5eeb6&#45;&gt;dir_20e5e21553452583d5c4dd80dd906094</title>
<path fill="none" stroke="#000000" d="M278.6739,-380.7941C256.5984,-370.6873 227.3328,-356.5086 203.8403,-344.6074"/>
<polygon fill="#000000" stroke="#000000" points="205.3184,-341.4323 194.8204,-340.0032 202.1359,-347.667 205.3184,-341.4323"/>
<g id="a_edge19&#45;headlabel"><a xlink:href="dir_000012_000007.html" target="_top" xlink:title="3">
<text text-anchor="middle" x="209.8108" y="-338.0376" font-family="Helvetica,sans-Serif" font-size="10.00" fill="#000000">3</text>
</a>
</g>
</g>
<!-- dir_8417c195086d4ff6acfc795544c5eeb6&#45;&gt;dir_7155ef3ffc36b95c2fce4bd5b1f8d366 -->
<g id="edge22" class="edge">
<title>dir_8417c195086d4ff6acfc795544c5eeb6&#45;&gt;dir_7155ef3ffc36b95c2fce4bd5b1f8d366</title>
<path fill="none" stroke="#000000" d="M343.104,-390.2039C375.8048,-384.6808 425.866,-371.396 456,-340 513.254,-280.3483 535.9178,-235.847 503,-160 472.3973,-89.4873 380.4532,-55.9064 328.2552,-42.1363"/>
<polygon fill="#000000" stroke="#000000" points="328.9281,-38.6964 318.3755,-39.6413 327.2141,-45.4833 328.9281,-38.6964"/>
<g id="a_edge22&#45;headlabel"><a xlink:href="dir_000012_000011.html" target="_top" xlink:title="1">
<text text-anchor="middle" x="333.1085" y="-34.3236" font-family="Helvetica,sans-Serif" font-size="10.00" fill="#000000">1</text>
</a>
</g>
</g>
<!-- dir_8417c195086d4ff6acfc795544c5eeb6&#45;&gt;dir_459a7c9a427a2877b0db19c6b8d6e89d -->
<g id="edge17" class="edge">
<title>dir_8417c195086d4ff6acfc795544c5eeb6&#45;&gt;dir_459a7c9a427a2877b0db19c6b8d6e89d</title>
<path fill="none" stroke="#000000" d="M309.7489,-375.9843C306.3676,-327.2939 297.0275,-192.7961 292.9484,-134.0573"/>
<polygon fill="#000000" stroke="#000000" points="296.4351,-133.7424 292.2506,-124.0089 289.4519,-134.2274 296.4351,-133.7424"/>
<g id="a_edge17&#45;headlabel"><a xlink:href="dir_000012_000015.html" target="_top" xlink:title="13">
<text text-anchor="middle" x="299.5165" y="-134.6317" font-family="Helvetica,sans-Serif" font-size="10.00" fill="#000000">13</text>
</a>
</g>
</g>
<!-- dir_459a7c9a427a2877b0db19c6b8d6e89d&#45;&gt;dir_1b63f22ff36ffa98be356425464e796a -->
<g id="edge12" class="edge">
<title>dir_459a7c9a427a2877b0db19c6b8d6e89d&#45;&gt;dir_1b63f22ff36ffa98be356425464e796a</title>
<path fill="none" stroke="#000000" d="M292.6071,-124.3104C292.0753,-182.9977 276.4775,-366.7068 266.29,-437.6506"/>
<polygon fill="#000000" stroke="#000000" points="262.8123,-437.2396 264.7666,-447.6526 269.7325,-438.2937 262.8123,-437.2396"/>
<g id="a_edge12&#45;headlabel"><a xlink:href="dir_000015_000002.html" target="_top" xlink:title="3">
<text text-anchor="middle" x="260.5466" y="-430.7585" font-family="Helvetica,sans-Serif" font-size="10.00" fill="#000000">3</text>
</a>
</g>
</g>
<!-- dir_459a7c9a427a2877b0db19c6b8d6e89d&#45;&gt;dir_7155ef3ffc36b95c2fce4bd5b1f8d366 -->
<g id="edge13" class="edge">
<title>dir_459a7c9a427a2877b0db19c6b8d6e89d&#45;&gt;dir_7155ef3ffc36b95c2fce4bd5b1f8d366</title>
<path fill="none" stroke="#000000" d="M285.0476,-87.8314C284.2972,-80.131 284.0763,-70.9743 284.3849,-62.4166"/>
<polygon fill="#000000" stroke="#000000" points="287.8792,-62.6161 285.024,-52.4133 280.8935,-62.1697 287.8792,-62.6161"/>
<g id="a_edge13&#45;headlabel"><a xlink:href="dir_000015_000011.html" target="_top" xlink:title="1">
<text text-anchor="middle" x="290.4836" y="-63.8844" font-family="Helvetica,sans-Serif" font-size="10.00" fill="#000000">1</text>
</a>
</g>
</g>
<!-- dir_495c398245f1b03c2187e57d110c3617&#45;&gt;dir_1b63f22ff36ffa98be356425464e796a -->
<g id="edge37" class="edge">
<title>dir_495c398245f1b03c2187e57d110c3617&#45;&gt;dir_1b63f22ff36ffa98be356425464e796a</title>
<path fill="none" stroke="#000000" d="M463.4442,-196.0032C471.927,-227.8476 484.5472,-294.9884 456,-340 418.8602,-398.5601 343.5755,-435.1913 297.8838,-453.0039"/>
<polygon fill="#000000" stroke="#000000" points="296.4426,-449.807 288.3306,-456.6222 298.9221,-456.3532 296.4426,-449.807"/>
<g id="a_edge37&#45;headlabel"><a xlink:href="dir_000013_000002.html" target="_top" xlink:title="1">
<text text-anchor="middle" x="298.7985" y="-443.3787" font-family="Helvetica,sans-Serif" font-size="10.00" fill="#000000">1</text>
</a>
</g>
</g>
<!-- dir_495c398245f1b03c2187e57d110c3617&#45;&gt;dir_7155ef3ffc36b95c2fce4bd5b1f8d366 -->
<g id="edge38" class="edge">
<title>dir_495c398245f1b03c2187e57d110c3617&#45;&gt;dir_7155ef3ffc36b95c2fce4bd5b1f8d366</title>
<path fill="none" stroke="#000000" d="M451.8703,-159.9339C444.3162,-140.0335 429.7496,-108.1829 408,-88 385.3717,-67.0017 353.1444,-52.9512 328.2405,-44.4593"/>
<polygon fill="#000000" stroke="#000000" points="329.0005,-41.0261 318.4083,-41.2622 326.8359,-47.683 329.0005,-41.0261"/>
<g id="a_edge38&#45;headlabel"><a xlink:href="dir_000013_000011.html" target="_top" xlink:title="4">
<text text-anchor="middle" x="333.2969" y="-36.9374" font-family="Helvetica,sans-Serif" font-size="10.00" fill="#000000">4</text>
</a>
</g>
</g>
<!-- dir_495c398245f1b03c2187e57d110c3617&#45;&gt;dir_8417c195086d4ff6acfc795544c5eeb6 -->
<g id="edge36" class="edge">
<title>dir_495c398245f1b03c2187e57d110c3617&#45;&gt;dir_8417c195086d4ff6acfc795544c5eeb6</title>
<path fill="none" stroke="#000000" d="M461.8914,-196.1511C467.7303,-228.5255 474.9373,-296.8716 443,-340 441.5312,-341.9834 390.6618,-362.4536 352.5136,-377.6067"/>
<polygon fill="#000000" stroke="#000000" points="351.1317,-374.3895 343.1268,-381.3302 353.7127,-380.8963 351.1317,-374.3895"/>
<g id="a_edge36&#45;headlabel"><a xlink:href="dir_000013_000012.html" target="_top" xlink:title="2">
<text text-anchor="middle" x="353.4261" y="-367.925" font-family="Helvetica,sans-Serif" font-size="10.00" fill="#000000">2</text>
</a>
</g>
</g>
<!-- dir_495c398245f1b03c2187e57d110c3617&#45;&gt;dir_459a7c9a427a2877b0db19c6b8d6e89d -->
<g id="edge35" class="edge">
<title>dir_495c398245f1b03c2187e57d110c3617&#45;&gt;dir_459a7c9a427a2877b0db19c6b8d6e89d</title>
<path fill="none" stroke="#000000" d="M422.1743,-162.5542C394.3114,-150.5415 355.7978,-133.9368 327.7123,-121.828"/>
<polygon fill="#000000" stroke="#000000" points="328.8161,-118.4926 318.2475,-117.7474 326.0447,-124.9206 328.8161,-118.4926"/>
<g id="a_edge35&#45;headlabel"><a xlink:href="dir_000013_000015.html" target="_top" xlink:title="5">
<text text-anchor="middle" x="333.2411" y="-114.8084" font-family="Helvetica,sans-Serif" font-size="10.00" fill="#000000">5</text>
</a>
</g>
</g>
<!-- dir_495c398245f1b03c2187e57d110c3617&#45;&gt;dir_19355cc319126bb51dcdac43ee2050e0 -->
<g id="edge34" class="edge">
<title>dir_495c398245f1b03c2187e57d110c3617&#45;&gt;dir_19355cc319126bb51dcdac43ee2050e0</title>
<path fill="none" stroke="#000000" d="M474.1477,-196.4454C482.2194,-206.4245 491.6037,-219.2845 498,-232 533.2355,-302.0464 554.5848,-392.8192 563.7443,-437.9526"/>
<polygon fill="#000000" stroke="#000000" points="560.3369,-438.7639 565.7131,-447.8933 567.2036,-437.4039 560.3369,-438.7639"/>
<g id="a_edge34&#45;headlabel"><a xlink:href="dir_000013_000005.html" target="_top" xlink:title="1">
<text text-anchor="middle" x="556.8535" y="-433.2893" font-family="Helvetica,sans-Serif" font-size="10.00" fill="#000000">1</text>
</a>
</g>
</g>
<!-- dir_19355cc319126bb51dcdac43ee2050e0&#45;&gt;dir_1b63f22ff36ffa98be356425464e796a -->
<g id="edge7" class="edge">
<title>dir_19355cc319126bb51dcdac43ee2050e0&#45;&gt;dir_1b63f22ff36ffa98be356425464e796a</title>
<path fill="none" stroke="#000000" d="M531.9625,-466C453.9974,-466 376.0323,-466 298.0671,-466"/>
<polygon fill="#000000" stroke="#000000" points="298.0635,-462.5001 288.0635,-466 298.0634,-469.5001 298.0635,-462.5001"/>
<g id="a_edge7&#45;headlabel"><a xlink:href="dir_000005_000002.html" target="_top" xlink:title="3">
<text text-anchor="middle" x="301.6581" y="-457.1607" font-family="Helvetica,sans-Serif" font-size="10.00" fill="#000000">3</text>
</a>
</g>
</g>
<!-- dir_19355cc319126bb51dcdac43ee2050e0&#45;&gt;dir_1505f64a8d203d0c8301996badaaeb61 -->
<g id="edge8" class="edge">
<title>dir_19355cc319126bb51dcdac43ee2050e0&#45;&gt;dir_1505f64a8d203d0c8301996badaaeb61</title>
<path fill="none" stroke="#000000" d="M557.8893,-447.8008C537.8211,-415.943 492.9461,-349.1694 443,-304 428.1345,-290.5562 409.5116,-278.4032 393.4003,-269.0459"/>
<polygon fill="#000000" stroke="#000000" points="394.679,-265.7481 384.2518,-263.8709 391.2325,-271.8409 394.679,-265.7481"/>
<g id="a_edge8&#45;headlabel"><a xlink:href="dir_000005_000004.html" target="_top" xlink:title="5">
<text text-anchor="middle" x="399.2056" y="-262.5466" font-family="Helvetica,sans-Serif" font-size="10.00" fill="#000000">5</text>
</a>
</g>
</g>
<!-- dir_19355cc319126bb51dcdac43ee2050e0&#45;&gt;dir_7155ef3ffc36b95c2fce4bd5b1f8d366 -->
<g id="edge9" class="edge">
<title>dir_19355cc319126bb51dcdac43ee2050e0&#45;&gt;dir_7155ef3ffc36b95c2fce4bd5b1f8d366</title>
<path fill="none" stroke="#000000" d="M589.1782,-447.6622C614.8789,-422.1918 656,-373.4069 656,-322 656,-322 656,-322 656,-178 656,-108.0611 421.1747,-57.6741 328.2287,-40.4697"/>
<polygon fill="#000000" stroke="#000000" points="328.6018,-36.9801 318.1361,-38.6292 327.3459,-43.8666 328.6018,-36.9801"/>
<g id="a_edge9&#45;headlabel"><a xlink:href="dir_000005_000011.html" target="_top" xlink:title="2">
<text text-anchor="middle" x="332.6475" y="-32.3317" font-family="Helvetica,sans-Serif" font-size="10.00" fill="#000000">2</text>
</a>
</g>
</g>
<!-- dir_19355cc319126bb51dcdac43ee2050e0&#45;&gt;dir_8417c195086d4ff6acfc795544c5eeb6 -->
<g id="edge6" class="edge">
<title>dir_19355cc319126bb51dcdac43ee2050e0&#45;&gt;dir_8417c195086d4ff6acfc795544c5eeb6</title>
<path fill="none" stroke="#000000" d="M531.6037,-449.956C529.7183,-449.2698 527.8429,-448.6133 526,-448 467.0076,-428.3682 396.8513,-412.0096 353.1133,-402.6109"/>
<polygon fill="#000000" stroke="#000000" points="353.632,-399.1431 343.1227,-400.4866 352.1761,-405.99 353.632,-399.1431"/>
<g id="a_edge6&#45;headlabel"><a xlink:href="dir_000005_000012.html" target="_top" xlink:title="4">
<text text-anchor="middle" x="357.7386" y="-394.6134" font-family="Helvetica,sans-Serif" font-size="10.00" fill="#000000">4</text>
</a>
</g>
</g>
<!-- dir_19355cc319126bb51dcdac43ee2050e0&#45;&gt;dir_459a7c9a427a2877b0db19c6b8d6e89d -->
<g id="edge5" class="edge">
<title>dir_19355cc319126bb51dcdac43ee2050e0&#45;&gt;dir_459a7c9a427a2877b0db19c6b8d6e89d</title>
<path fill="none" stroke="#000000" d="M579.6323,-447.5836C594.0436,-420.8383 618,-369.2698 618,-322 618,-322 618,-322 618,-250 618,-185.0974 561.25,-188.623 503,-160 445.5286,-131.7595 371.8046,-117.2949 328.1631,-110.7098"/>
<polygon fill="#000000" stroke="#000000" points="328.4061,-107.2086 318.0076,-109.2384 327.4023,-114.1362 328.4061,-107.2086"/>
<g id="a_edge5&#45;headlabel"><a xlink:href="dir_000005_000015.html" target="_top" xlink:title="5">
<text text-anchor="middle" x="332.3707" y="-102.414" font-family="Helvetica,sans-Serif" font-size="10.00" fill="#000000">5</text>
</a>
</g>
</g>
</g>
</svg>
