<?xml version="1.0" encoding="UTF-8" standalone="no"?>
<!DOCTYPE svg PUBLIC "-//W3C//DTD SVG 1.1//EN"
 "http://www.w3.org/Graphics/SVG/1.1/DTD/svg11.dtd">
<!-- Generated by graphviz version 2.40.1 (20161225.0304)
 -->
<!-- Title: core/agent Pages: 1 -->
<svg width="307pt" height="260pt"
 viewBox="0.00 0.00 306.73 260.00" xmlns="http://www.w3.org/2000/svg" xmlns:xlink="http://www.w3.org/1999/xlink">
<g id="graph0" class="graph" transform="scale(1 1) rotate(0) translate(4 256)">
<title>core/agent</title>
<polygon fill="#ffffff" stroke="transparent" points="-4,4 -4,-256 302.7259,-256 302.7259,4 -4,4"/>
<g id="clust1" class="cluster">
<title>clusterdir_4270bfced15e0e73154b13468c7c9ad9</title>
<g id="a_clust1"><a xlink:href="dir_4270bfced15e0e73154b13468c7c9ad9.html" target="_top" xlink:title="core">
<polygon fill="#ddddee" stroke="#000000" points="205.5,-136 205.5,-207 275.5,-207 275.5,-136 205.5,-136"/>
<text text-anchor="middle" x="240.5" y="-195" font-family="Helvetica,sans-Serif" font-size="10.00" fill="#000000">core</text>
</a>
</g>
</g>
<!-- dir_38a3a31c3d1487b433ec02088da4dbcb -->
<g id="node1" class="node">
<title>dir_38a3a31c3d1487b433ec02088da4dbcb</title>
<g id="a_node1"><a xlink:href="dir_38a3a31c3d1487b433ec02088da4dbcb.html" target="_top" xlink:title="agent">
<polygon fill="#eeeeff" stroke="#000000" points="267.5,-180 213.5,-180 213.5,-144 267.5,-144 267.5,-180"/>
<text text-anchor="middle" x="240.5" y="-159.5" font-family="Helvetica,sans-Serif" font-size="10.00" fill="#000000">agent</text>
</a>
</g>
</g>
<!-- dir_459a7c9a427a2877b0db19c6b8d6e89d -->
<g id="node2" class="node">
<title>dir_459a7c9a427a2877b0db19c6b8d6e89d</title>
<g id="a_node2"><a xlink:href="dir_459a7c9a427a2877b0db19c6b8d6e89d.html" target="_top" xlink:title="util">
<polygon fill="none" stroke="#000000" points="136.5,-108 82.5,-108 82.5,-72 136.5,-72 136.5,-108"/>
<text text-anchor="middle" x="109.5" y="-87.5" font-family="Helvetica,sans-Serif" font-size="10.00" fill="#000000">util</text>
</a>
</g>
</g>
<!-- dir_38a3a31c3d1487b433ec02088da4dbcb&#45;&gt;dir_459a7c9a427a2877b0db19c6b8d6e89d -->
<g id="edge1" class="edge">
<title>dir_38a3a31c3d1487b433ec02088da4dbcb&#45;&gt;dir_459a7c9a427a2877b0db19c6b8d6e89d</title>
<path fill="none" stroke="#000000" d="M215.776,-143.8302C211.742,-141.0984 207.5552,-138.3969 203.5,-136 185.1562,-125.1577 163.891,-114.5952 146.2313,-106.3316"/>
<polygon fill="#000000" stroke="#000000" points="147.3788,-103.0063 136.8328,-101.9901 144.4433,-109.3611 147.3788,-103.0063"/>
<g id="a_edge1&#45;headlabel"><a xlink:href="dir_000001_000011.html" target="_top" xlink:title="15">
<text text-anchor="middle" x="151.8327" y="-99.4361" font-family="Helvetica,sans-Serif" font-size="10.00" fill="#000000">15</text>
</a>
</g>
</g>
<!-- dir_f6c71c2e4387414fae6e0efe9f53cf5e -->
<g id="node3" class="node">
<title>dir_f6c71c2e4387414fae6e0efe9f53cf5e</title>
<g id="a_node3"><a xlink:href="dir_f6c71c2e4387414fae6e0efe9f53cf5e.html" target="_top" xlink:title="behavior">
<polygon fill="none" stroke="#000000" points="59,-180 0,-180 0,-144 59,-144 59,-180"/>
<text text-anchor="middle" x="29.5" y="-159.5" font-family="Helvetica,sans-Serif" font-size="10.00" fill="#000000">behavior</text>
</a>
</g>
</g>
<!-- dir_38a3a31c3d1487b433ec02088da4dbcb&#45;&gt;dir_f6c71c2e4387414fae6e0efe9f53cf5e -->
<g id="edge2" class="edge">
<title>dir_38a3a31c3d1487b433ec02088da4dbcb&#45;&gt;dir_f6c71c2e4387414fae6e0efe9f53cf5e</title>
<path fill="none" stroke="#000000" d="M228.3025,-180.1999C221.7125,-189.0725 212.9895,-199.4331 203.5,-207 200.0034,-209.7882 198.8525,-210.4725 194.5,-211.5 177.4141,-215.5334 132.5859,-215.5334 115.5,-211.5 96.0184,-206.901 76.5045,-196.2792 61.0011,-186.0493"/>
<polygon fill="#000000" stroke="#000000" points="62.5917,-182.8958 52.3669,-180.1199 58.6289,-188.6662 62.5917,-182.8958"/>
<g id="a_edge2&#45;headlabel"><a xlink:href="dir_000001_000002.html" target="_top" xlink:title="1">
<text text-anchor="middle" x="67.1621" y="-180.0902" font-family="Helvetica,sans-Serif" font-size="10.00" fill="#000000">1</text>
</a>
</g>
</g>
<!-- dir_bc6016157ccda3b72fdae555a0f34277 -->
<g id="node4" class="node">
<title>dir_bc6016157ccda3b72fdae555a0f34277</title>
<g id="a_node4"><a xlink:href="dir_bc6016157ccda3b72fdae555a0f34277.html" target="_top" xlink:title="environment">
<polygon fill="none" stroke="#000000" points="195,-180 116,-180 116,-144 195,-144 195,-180"/>
<text text-anchor="middle" x="155.5" y="-159.5" font-family="Helvetica,sans-Serif" font-size="10.00" fill="#000000">environment</text>
</a>
</g>
</g>
<!-- dir_38a3a31c3d1487b433ec02088da4dbcb&#45;&gt;dir_bc6016157ccda3b72fdae555a0f34277 -->
<g id="edge3" class="edge">
<title>dir_38a3a31c3d1487b433ec02088da4dbcb&#45;&gt;dir_bc6016157ccda3b72fdae555a0f34277</title>
<path fill="none" stroke="#000000" d="M213.4913,-162C210.7001,-162 207.9089,-162 205.1178,-162"/>
<polygon fill="#000000" stroke="#000000" points="205.0118,-158.5001 195.0117,-162 205.0117,-165.5001 205.0118,-158.5001"/>
<g id="a_edge3&#45;headlabel"><a xlink:href="dir_000001_000004.html" target="_top" xlink:title="1">
<text text-anchor="middle" x="208.6063" y="-153.1607" font-family="Helvetica,sans-Serif" font-size="10.00" fill="#000000">1</text>
</a>
</g>
</g>
<!-- dir_20e5e21553452583d5c4dd80dd906094 -->
<g id="node5" class="node">
<title>dir_20e5e21553452583d5c4dd80dd906094</title>
<g id="a_node5"><a xlink:href="dir_20e5e21553452583d5c4dd80dd906094.html" target="_top" xlink:title="execution_context">
<polygon fill="none" stroke="#000000" points="251,-252 144,-252 144,-216 251,-216 251,-252"/>
<text text-anchor="middle" x="197.5" y="-231.5" font-family="Helvetica,sans-Serif" font-size="10.00" fill="#000000">execution_context</text>
</a>
</g>
</g>
<!-- dir_38a3a31c3d1487b433ec02088da4dbcb&#45;&gt;dir_20e5e21553452583d5c4dd80dd906094 -->
<g id="edge4" class="edge">
<title>dir_38a3a31c3d1487b433ec02088da4dbcb&#45;&gt;dir_20e5e21553452583d5c4dd80dd906094</title>
<path fill="none" stroke="#000000" d="M223.5272,-180.4133C217.9354,-188.484 211.9871,-198.1182 207.0786,-206.9775"/>
<polygon fill="#000000" stroke="#000000" points="203.9774,-205.3549 202.3983,-215.8314 210.166,-208.6262 203.9774,-205.3549"/>
<g id="a_edge4&#45;headlabel"><a xlink:href="dir_000001_000005.html" target="_top" xlink:title="3">
<text text-anchor="middle" x="203.1471" y="-198.3501" font-family="Helvetica,sans-Serif" font-size="10.00" fill="#000000">3</text>
</a>
</g>
</g>
<!-- dir_1b63f22ff36ffa98be356425464e796a -->
<g id="node6" class="node">
<title>dir_1b63f22ff36ffa98be356425464e796a</title>
<g id="a_node6"><a xlink:href="dir_1b63f22ff36ffa98be356425464e796a.html" target="_top" xlink:title="container">
<polygon fill="none" stroke="#000000" points="252.5,-36 190.5,-36 190.5,0 252.5,0 252.5,-36"/>
<text text-anchor="middle" x="221.5" y="-15.5" font-family="Helvetica,sans-Serif" font-size="10.00" fill="#000000">container</text>
</a>
</g>
</g>
<!-- dir_38a3a31c3d1487b433ec02088da4dbcb&#45;&gt;dir_1b63f22ff36ffa98be356425464e796a -->
<g id="edge5" class="edge">
<title>dir_38a3a31c3d1487b433ec02088da4dbcb&#45;&gt;dir_1b63f22ff36ffa98be356425464e796a</title>
<path fill="none" stroke="#000000" d="M247.8207,-143.7982C254.1707,-125.4225 261.3527,-96.355 254.5,-72 251.8339,-62.5243 246.9919,-53.067 241.8238,-44.7759"/>
<polygon fill="#000000" stroke="#000000" points="244.6303,-42.6757 236.1752,-36.2912 238.8034,-46.5549 244.6303,-42.6757"/>
<g id="a_edge5&#45;headlabel"><a xlink:href="dir_000001_000003.html" target="_top" xlink:title="6">
<text text-anchor="middle" x="248.9857" y="-41.5945" font-family="Helvetica,sans-Serif" font-size="10.00" fill="#000000">6</text>
</a>
</g>
</g>
<!-- dir_7155ef3ffc36b95c2fce4bd5b1f8d366 -->
<g id="node7" class="node">
<title>dir_7155ef3ffc36b95c2fce4bd5b1f8d366</title>
<g id="a_node7"><a xlink:href="dir_7155ef3ffc36b95c2fce4bd5b1f8d366.html" target="_top" xlink:title="param">
<polygon fill="none" stroke="#000000" points="136.5,-36 82.5,-36 82.5,0 136.5,0 136.5,-36"/>
<text text-anchor="middle" x="109.5" y="-15.5" font-family="Helvetica,sans-Serif" font-size="10.00" fill="#000000">param</text>
</a>
</g>
</g>
<!-- dir_38a3a31c3d1487b433ec02088da4dbcb&#45;&gt;dir_7155ef3ffc36b95c2fce4bd5b1f8d366 -->
<g id="edge6" class="edge">
<title>dir_38a3a31c3d1487b433ec02088da4dbcb&#45;&gt;dir_7155ef3ffc36b95c2fce4bd5b1f8d366</title>
<path fill="none" stroke="#000000" d="M223.9088,-143.7623C200.8758,-118.4436 159.0964,-72.5182 132.9027,-43.7251"/>
<polygon fill="#000000" stroke="#000000" points="135.2748,-41.1315 125.9565,-36.0896 130.0969,-45.842 135.2748,-41.1315"/>
<g id="a_edge6&#45;headlabel"><a xlink:href="dir_000001_000009.html" target="_top" xlink:title="1">
<text text-anchor="middle" x="139.7939" y="-39.3798" font-family="Helvetica,sans-Serif" font-size="10.00" fill="#000000">1</text>
</a>
</g>
</g>
<!-- dir_459a7c9a427a2877b0db19c6b8d6e89d&#45;&gt;dir_1b63f22ff36ffa98be356425464e796a -->
<g id="edge7" class="edge">
<title>dir_459a7c9a427a2877b0db19c6b8d6e89d&#45;&gt;dir_1b63f22ff36ffa98be356425464e796a</title>
<path fill="none" stroke="#000000" d="M131.8099,-71.8314C145.9555,-62.13 164.5369,-50.1174 181.1616,-39.9029"/>
<polygon fill="#000000" stroke="#000000" points="183.4262,-42.6225 190.1556,-34.4393 179.7918,-36.6398 183.4262,-42.6225"/>
<g id="a_edge7&#45;headlabel"><a xlink:href="dir_000011_000003.html" target="_top" xlink:title="4">
<text text-anchor="middle" x="181.8281" y="-44.4153" font-family="Helvetica,sans-Serif" font-size="10.00" fill="#000000">4</text>
</a>
</g>
</g>
<!-- dir_459a7c9a427a2877b0db19c6b8d6e89d&#45;&gt;dir_7155ef3ffc36b95c2fce4bd5b1f8d366 -->
<g id="edge8" class="edge">
<title>dir_459a7c9a427a2877b0db19c6b8d6e89d&#45;&gt;dir_7155ef3ffc36b95c2fce4bd5b1f8d366</title>
<path fill="none" stroke="#000000" d="M103.5476,-71.8314C102.7972,-64.131 102.5763,-54.9743 102.8849,-46.4166"/>
<polygon fill="#000000" stroke="#000000" points="106.3792,-46.6161 103.524,-36.4133 99.3935,-46.1697 106.3792,-46.6161"/>
<g id="a_edge8&#45;headlabel"><a xlink:href="dir_000011_000009.html" target="_top" xlink:title="1">
<text text-anchor="middle" x="108.9836" y="-47.8844" font-family="Helvetica,sans-Serif" font-size="10.00" fill="#000000">1</text>
</a>
</g>
</g>
<!-- dir_f6c71c2e4387414fae6e0efe9f53cf5e&#45;&gt;dir_38a3a31c3d1487b433ec02088da4dbcb -->
<g id="edge9" class="edge">
<title>dir_f6c71c2e4387414fae6e0efe9f53cf5e&#45;&gt;dir_38a3a31c3d1487b433ec02088da4dbcb</title>
<path fill="none" stroke="#000000" d="M52.3669,-180.1199C68.8436,-191.8779 92.1949,-205.9984 115.5,-211.5 132.5859,-215.5334 177.4141,-215.5334 194.5,-211.5 198.8525,-210.4725 200.0034,-209.7882 203.5,-207 210.1723,-201.6795 216.4657,-194.9779 221.9051,-188.3835"/>
<polygon fill="#000000" stroke="#000000" points="224.901,-190.2339 228.3025,-180.1999 219.3862,-185.9227 224.901,-190.2339"/>
<g id="a_edge9&#45;headlabel"><a xlink:href="dir_000002_000001.html" target="_top" xlink:title="6">
<text text-anchor="middle" x="224.9241" y="-192.3145" font-family="Helvetica,sans-Serif" font-size="10.00" fill="#000000">6</text>
</a>
</g>
</g>
<!-- dir_f6c71c2e4387414fae6e0efe9f53cf5e&#45;&gt;dir_459a7c9a427a2877b0db19c6b8d6e89d -->
<g id="edge10" class="edge">
<title>dir_f6c71c2e4387414fae6e0efe9f53cf5e&#45;&gt;dir_459a7c9a427a2877b0db19c6b8d6e89d</title>
<path fill="none" stroke="#000000" d="M49.6874,-143.8314C59.3514,-135.1337 71.0796,-124.5783 81.5816,-115.1265"/>
<polygon fill="#000000" stroke="#000000" points="84.2275,-117.454 89.3191,-108.1628 79.5447,-112.251 84.2275,-117.454"/>
<g id="a_edge10&#45;headlabel"><a xlink:href="dir_000002_000011.html" target="_top" xlink:title="4">
<text text-anchor="middle" x="83.455" y="-119.4691" font-family="Helvetica,sans-Serif" font-size="10.00" fill="#000000">4</text>
</a>
</g>
</g>
<!-- dir_f6c71c2e4387414fae6e0efe9f53cf5e&#45;&gt;dir_7155ef3ffc36b95c2fce4bd5b1f8d366 -->
<g id="edge11" class="edge">
<title>dir_f6c71c2e4387414fae6e0efe9f53cf5e&#45;&gt;dir_7155ef3ffc36b95c2fce4bd5b1f8d366</title>
<path fill="none" stroke="#000000" d="M35.0143,-143.6626C41.0589,-124.9257 51.7538,-95.3481 65.5,-72 71.1724,-62.3654 78.4864,-52.6467 85.5165,-44.1614"/>
<polygon fill="#000000" stroke="#000000" points="88.2727,-46.3236 92.1068,-36.4468 82.9503,-41.7768 88.2727,-46.3236"/>
<g id="a_edge11&#45;headlabel"><a xlink:href="dir_000002_000009.html" target="_top" xlink:title="1">
<text text-anchor="middle" x="88.0967" y="-48.4009" font-family="Helvetica,sans-Serif" font-size="10.00" fill="#000000">1</text>
</a>
</g>
</g>
<!-- dir_bc6016157ccda3b72fdae555a0f34277&#45;&gt;dir_38a3a31c3d1487b433ec02088da4dbcb -->
<g id="edge12" class="edge">
<title>dir_bc6016157ccda3b72fdae555a0f34277&#45;&gt;dir_38a3a31c3d1487b433ec02088da4dbcb</title>
<path fill="none" stroke="#000000" d="M195.0117,-162C197.8029,-162 200.5941,-162 203.3853,-162"/>
<polygon fill="#000000" stroke="#000000" points="203.4914,-165.5001 213.4913,-162 203.4913,-158.5001 203.4914,-165.5001"/>
<g id="a_edge12&#45;headlabel"><a xlink:href="dir_000004_000001.html" target="_top" xlink:title="1">
<text text-anchor="middle" x="199.8967" y="-165.8393" font-family="Helvetica,sans-Serif" font-size="10.00" fill="#000000">1</text>
</a>
</g>
</g>
<!-- dir_bc6016157ccda3b72fdae555a0f34277&#45;&gt;dir_459a7c9a427a2877b0db19c6b8d6e89d -->
<g id="edge13" class="edge">
<title>dir_bc6016157ccda3b72fdae555a0f34277&#45;&gt;dir_459a7c9a427a2877b0db19c6b8d6e89d</title>
<path fill="none" stroke="#000000" d="M143.8923,-143.8314C138.7022,-135.7079 132.4768,-125.9637 126.7575,-117.0118"/>
<polygon fill="#000000" stroke="#000000" points="129.5974,-114.9559 121.264,-108.4133 123.6985,-118.7246 129.5974,-114.9559"/>
<g id="a_edge13&#45;headlabel"><a xlink:href="dir_000004_000011.html" target="_top" xlink:title="2">
<text text-anchor="middle" x="133.9253" y="-113.9564" font-family="Helvetica,sans-Serif" font-size="10.00" fill="#000000">2</text>
</a>
</g>
</g>
<!-- dir_bc6016157ccda3b72fdae555a0f34277&#45;&gt;dir_1b63f22ff36ffa98be356425464e796a -->
<g id="edge14" class="edge">
<title>dir_bc6016157ccda3b72fdae555a0f34277&#45;&gt;dir_1b63f22ff36ffa98be356425464e796a</title>
<path fill="none" stroke="#000000" d="M163.8589,-143.7623C175.265,-118.8764 195.7956,-74.0822 209.0258,-45.2165"/>
<polygon fill="#000000" stroke="#000000" points="212.2241,-46.6386 213.2089,-36.0896 205.8606,-43.722 212.2241,-46.6386"/>
<g id="a_edge14&#45;headlabel"><a xlink:href="dir_000004_000003.html" target="_top" xlink:title="6">
<text text-anchor="middle" x="213.3075" y="-48.5893" font-family="Helvetica,sans-Serif" font-size="10.00" fill="#000000">6</text>
</a>
</g>
</g>
<!-- dir_bc6016157ccda3b72fdae555a0f34277&#45;&gt;dir_7155ef3ffc36b95c2fce4bd5b1f8d366 -->
<g id="edge15" class="edge">
<title>dir_bc6016157ccda3b72fdae555a0f34277&#45;&gt;dir_7155ef3ffc36b95c2fce4bd5b1f8d366</title>
<path fill="none" stroke="#000000" d="M115.8787,-146.1486C99.6843,-137.4653 82.6367,-124.9568 73.5,-108 62.4553,-87.5022 73.8649,-62.8718 86.6834,-44.5633"/>
<polygon fill="#000000" stroke="#000000" points="89.8062,-46.2321 92.9971,-36.1292 84.2024,-42.0372 89.8062,-46.2321"/>
<g id="a_edge15&#45;headlabel"><a xlink:href="dir_000004_000009.html" target="_top" xlink:title="1">
<text text-anchor="middle" x="89.9251" y="-48.3113" font-family="Helvetica,sans-Serif" font-size="10.00" fill="#000000">1</text>
</a>
</g>
</g>
<!-- dir_20e5e21553452583d5c4dd80dd906094&#45;&gt;dir_38a3a31c3d1487b433ec02088da4dbcb -->
<g id="edge16" class="edge">
<title>dir_20e5e21553452583d5c4dd80dd906094&#45;&gt;dir_38a3a31c3d1487b433ec02088da4dbcb</title>
<path fill="none" stroke="#000000" d="M214.3031,-215.8314C219.8875,-207.7925 225.8426,-198.1666 230.7721,-189.2918"/>
<polygon fill="#000000" stroke="#000000" points="233.8873,-190.8878 235.4792,-180.4133 227.7027,-187.6089 233.8873,-190.8878"/>
<g id="a_edge16&#45;headlabel"><a xlink:href="dir_000005_000001.html" target="_top" xlink:title="2">
<text text-anchor="middle" x="234.7121" y="-192.8936" font-family="Helvetica,sans-Serif" font-size="10.00" fill="#000000">2</text>
</a>
</g>
</g>
<!-- dir_20e5e21553452583d5c4dd80dd906094&#45;&gt;dir_459a7c9a427a2877b0db19c6b8d6e89d -->
<g id="edge17" class="edge">
<title>dir_20e5e21553452583d5c4dd80dd906094&#45;&gt;dir_459a7c9a427a2877b0db19c6b8d6e89d</title>
<path fill="none" stroke="#000000" d="M143.7849,-223.7553C126.9947,-219.3897 111.5271,-213.7352 106.5,-207 87.5928,-181.6683 92.7725,-143.9184 99.7468,-118.1974"/>
<polygon fill="#000000" stroke="#000000" points="103.1898,-118.8972 102.6734,-108.315 96.4779,-116.9095 103.1898,-118.8972"/>
<g id="a_edge17&#45;headlabel"><a xlink:href="dir_000005_000011.html" target="_top" xlink:title="2">
<text text-anchor="middle" x="104.8915" y="-120.6501" font-family="Helvetica,sans-Serif" font-size="10.00" fill="#000000">2</text>
</a>
</g>
</g>
<!-- dir_20e5e21553452583d5c4dd80dd906094&#45;&gt;dir_bc6016157ccda3b72fdae555a0f34277 -->
<g id="edge18" class="edge">
<title>dir_20e5e21553452583d5c4dd80dd906094&#45;&gt;dir_bc6016157ccda3b72fdae555a0f34277</title>
<path fill="none" stroke="#000000" d="M186.9016,-215.8314C182.2123,-207.7925 176.5972,-198.1666 171.4202,-189.2918"/>
<polygon fill="#000000" stroke="#000000" points="174.3031,-187.2875 166.2411,-180.4133 168.2566,-190.8146 174.3031,-187.2875"/>
<g id="a_edge18&#45;headlabel"><a xlink:href="dir_000005_000004.html" target="_top" xlink:title="1">
<text text-anchor="middle" x="178.5667" y="-186.4618" font-family="Helvetica,sans-Serif" font-size="10.00" fill="#000000">1</text>
</a>
</g>
</g>
<!-- dir_20e5e21553452583d5c4dd80dd906094&#45;&gt;dir_1b63f22ff36ffa98be356425464e796a -->
<g id="edge19" class="edge">
<title>dir_20e5e21553452583d5c4dd80dd906094&#45;&gt;dir_1b63f22ff36ffa98be356425464e796a</title>
<path fill="none" stroke="#000000" d="M251.2342,-221.5576C264.2377,-217.4236 275.5464,-212.4643 279.5,-207 314.7681,-158.2566 295.171,-126.4128 269.5,-72 264.5829,-61.5775 257.0127,-51.6808 249.3272,-43.2749"/>
<polygon fill="#000000" stroke="#000000" points="251.7718,-40.7679 242.3094,-36.0021 246.7345,-45.6285 251.7718,-40.7679"/>
<g id="a_edge19&#45;headlabel"><a xlink:href="dir_000005_000003.html" target="_top" xlink:title="1">
<text text-anchor="middle" x="256.3109" y="-38.8831" font-family="Helvetica,sans-Serif" font-size="10.00" fill="#000000">1</text>
</a>
</g>
</g>
<!-- dir_1b63f22ff36ffa98be356425464e796a&#45;&gt;dir_38a3a31c3d1487b433ec02088da4dbcb -->
<g id="edge20" class="edge">
<title>dir_1b63f22ff36ffa98be356425464e796a&#45;&gt;dir_38a3a31c3d1487b433ec02088da4dbcb</title>
<path fill="none" stroke="#000000" d="M223.8868,-36.0896C227.1172,-60.5727 232.9155,-104.5174 236.7358,-133.4713"/>
<polygon fill="#000000" stroke="#000000" points="233.3155,-134.3061 238.0936,-143.7623 240.2554,-133.3904 233.3155,-134.3061"/>
<g id="a_edge20&#45;headlabel"><a xlink:href="dir_000003_000001.html" target="_top" xlink:title="1">
<text text-anchor="middle" x="230.0305" y="-128.6137" font-family="Helvetica,sans-Serif" font-size="10.00" fill="#000000">1</text>
</a>
</g>
</g>
<!-- dir_1b63f22ff36ffa98be356425464e796a&#45;&gt;dir_459a7c9a427a2877b0db19c6b8d6e89d -->
<g id="edge21" class="edge">
<title>dir_1b63f22ff36ffa98be356425464e796a&#45;&gt;dir_459a7c9a427a2877b0db19c6b8d6e89d</title>
<path fill="none" stroke="#000000" d="M199.1392,-36.2035C183.7444,-46.7597 163.1126,-60.0435 145.4655,-70.7697"/>
<polygon fill="#000000" stroke="#000000" points="143.3267,-67.9713 136.5527,-76.1177 146.9284,-73.9736 143.3267,-67.9713"/>
<g id="a_edge21&#45;headlabel"><a xlink:href="dir_000003_000011.html" target="_top" xlink:title="6">
<text text-anchor="middle" x="144.9482" y="-61.1872" font-family="Helvetica,sans-Serif" font-size="10.00" fill="#000000">6</text>
</a>
</g>
</g>
<!-- dir_7155ef3ffc36b95c2fce4bd5b1f8d366&#45;&gt;dir_459a7c9a427a2877b0db19c6b8d6e89d -->
<g id="edge22" class="edge">
<title>dir_7155ef3ffc36b95c2fce4bd5b1f8d366&#45;&gt;dir_459a7c9a427a2877b0db19c6b8d6e89d</title>
<path fill="none" stroke="#000000" d="M115.476,-36.4133C116.2071,-44.0593 116.4203,-53.1084 116.1155,-61.5726"/>
<polygon fill="#000000" stroke="#000000" points="112.6048,-61.6264 115.4524,-71.8314 119.5902,-62.078 112.6048,-61.6264"/>
<g id="a_edge22&#45;headlabel"><a xlink:href="dir_000009_000011.html" target="_top" xlink:title="7">
<text text-anchor="middle" x="110.0032" y="-55.3562" font-family="Helvetica,sans-Serif" font-size="10.00" fill="#000000">7</text>
</a>
</g>
</g>
</g>
</svg>
