<?xml version="1.0" encoding="UTF-8" standalone="no"?>
<!DOCTYPE svg PUBLIC "-//W3C//DTD SVG 1.1//EN"
 "http://www.w3.org/Graphics/SVG/1.1/DTD/svg11.dtd">
<!-- Generated by graphviz version 2.43.0 (0)
 -->
<!-- Title: core/multi_simulation Pages: 1 -->
<svg width="340pt" height="319pt"
 viewBox="0.00 0.00 340.00 319.00" xmlns="http://www.w3.org/2000/svg" xmlns:xlink="http://www.w3.org/1999/xlink">
<g id="graph0" class="graph" transform="scale(1 1) rotate(0) translate(4 315)">
<title>core/multi_simulation</title>
<polygon fill="white" stroke="transparent" points="-4,4 -4,-315 336,-315 336,4 -4,4"/>
<g id="clust1" class="cluster">
<title>clusterdir_4270bfced15e0e73154b13468c7c9ad9</title>
<g id="a_clust1"><a xlink:href="dir_4270bfced15e0e73154b13468c7c9ad9.html" target="_top" xlink:title="core">
<polygon fill="#ddddee" stroke="black" points="8,-8 8,-303 324,-303 324,-8 8,-8"/>
<text text-anchor="middle" x="166" y="-291" font-family="Helvetica,sans-Serif" font-size="10.00">core</text>
</a>
</g>
</g>
<g id="clust2" class="cluster">
<title>clusterdir_7068419476dc93806ca49d3af2f0c758</title>
<g id="a_clust2"><a xlink:href="dir_7068419476dc93806ca49d3af2f0c758.html" target="_top">
<polygon fill="#eeeeff" stroke="black" points="16,-152 16,-276 214,-276 214,-152 16,-152"/>
</a>
</g>
</g>
<!-- dir_459a7c9a427a2877b0db19c6b8d6e89d -->
<g id="node1" class="node">
<title>dir_459a7c9a427a2877b0db19c6b8d6e89d</title>
<g id="a_node1"><a xlink:href="dir_459a7c9a427a2877b0db19c6b8d6e89d.html" target="_top" xlink:title="util">
<polygon fill="none" stroke="black" points="276,-196 222,-196 222,-160 276,-160 276,-196"/>
<text text-anchor="middle" x="249" y="-175.5" font-family="Helvetica,sans-Serif" font-size="10.00">util</text>
</a>
</g>
</g>
<!-- dir_7155ef3ffc36b95c2fce4bd5b1f8d366 -->
<g id="node2" class="node">
<title>dir_7155ef3ffc36b95c2fce4bd5b1f8d366</title>
<g id="a_node2"><a xlink:href="dir_7155ef3ffc36b95c2fce4bd5b1f8d366.html" target="_top" xlink:title="param">
<polygon fill="none" stroke="black" points="310,-124 256,-124 256,-88 310,-88 310,-124"/>
<text text-anchor="middle" x="283" y="-103.5" font-family="Helvetica,sans-Serif" font-size="10.00">param</text>
</a>
</g>
</g>
<!-- dir_459a7c9a427a2877b0db19c6b8d6e89d&#45;&gt;dir_7155ef3ffc36b95c2fce4bd5b1f8d366 -->
<g id="edge2" class="edge">
<title>dir_459a7c9a427a2877b0db19c6b8d6e89d&#45;&gt;dir_7155ef3ffc36b95c2fce4bd5b1f8d366</title>
<path fill="none" stroke="black" d="M251.49,-159.7C254.57,-151.64 259.09,-141.89 263.83,-132.98"/>
<polygon fill="black" stroke="black" points="266.97,-134.54 268.8,-124.1 260.86,-131.12 266.97,-134.54"/>
<g id="a_edge2&#45;headlabel"><a xlink:href="dir_000016_000014.html" target="_top" xlink:title="1">
<text text-anchor="middle" x="267.7" y="-136.56" font-family="Helvetica,sans-Serif" font-size="10.00">1</text>
</a>
</g>
</g>
<!-- dir_7155ef3ffc36b95c2fce4bd5b1f8d366&#45;&gt;dir_459a7c9a427a2877b0db19c6b8d6e89d -->
<g id="edge4" class="edge">
<title>dir_7155ef3ffc36b95c2fce4bd5b1f8d366&#45;&gt;dir_459a7c9a427a2877b0db19c6b8d6e89d</title>
<path fill="none" stroke="black" d="M280.59,-124.1C277.53,-132.13 273.02,-141.87 268.28,-150.8"/>
<polygon fill="black" stroke="black" points="265.13,-149.26 263.32,-159.7 271.25,-152.67 265.13,-149.26"/>
<g id="a_edge4&#45;headlabel"><a xlink:href="dir_000014_000016.html" target="_top" xlink:title="7">
<text text-anchor="middle" x="264.41" y="-142.24" font-family="Helvetica,sans-Serif" font-size="10.00">7</text>
</a>
</g>
</g>
<!-- dir_e557f4a15fde7dbb7a790a3a11b8b9c6 -->
<g id="node3" class="node">
<title>dir_e557f4a15fde7dbb7a790a3a11b8b9c6</title>
<g id="a_node3"><a xlink:href="dir_e557f4a15fde7dbb7a790a3a11b8b9c6.html" target="_top" xlink:title="analysis">
<polygon fill="none" stroke="black" points="265.5,-52 208.5,-52 208.5,-16 265.5,-16 265.5,-52"/>
<text text-anchor="middle" x="237" y="-31.5" font-family="Helvetica,sans-Serif" font-size="10.00">analysis</text>
</a>
</g>
</g>
<!-- dir_7155ef3ffc36b95c2fce4bd5b1f8d366&#45;&gt;dir_e557f4a15fde7dbb7a790a3a11b8b9c6 -->
<g id="edge6" class="edge">
<title>dir_7155ef3ffc36b95c2fce4bd5b1f8d366&#45;&gt;dir_e557f4a15fde7dbb7a790a3a11b8b9c6</title>
<path fill="none" stroke="black" d="M271.63,-87.7C266.28,-79.56 259.8,-69.69 253.89,-60.7"/>
<polygon fill="black" stroke="black" points="256.66,-58.54 248.24,-52.1 250.81,-62.38 256.66,-58.54"/>
<g id="a_edge6&#45;headlabel"><a xlink:href="dir_000014_000004.html" target="_top" xlink:title="1">
<text text-anchor="middle" x="261" y="-57.48" font-family="Helvetica,sans-Serif" font-size="10.00">1</text>
</a>
</g>
</g>
<!-- dir_7068419476dc93806ca49d3af2f0c758 -->
<g id="node4" class="node">
<title>dir_7068419476dc93806ca49d3af2f0c758</title>
<text text-anchor="middle" x="156" y="-247.5" font-family="Helvetica,sans-Serif" font-size="10.00">multi_simulation</text>
</g>
<!-- dir_7155ef3ffc36b95c2fce4bd5b1f8d366&#45;&gt;dir_7068419476dc93806ca49d3af2f0c758 -->
<g id="edge5" class="edge">
<title>dir_7155ef3ffc36b95c2fce4bd5b1f8d366&#45;&gt;dir_7068419476dc93806ca49d3af2f0c758</title>
<path fill="none" stroke="black" d="M293.37,-124.32C303.36,-143.52 314.94,-174.58 300,-196 281.04,-223.19 246.49,-236.47 215.98,-242.94"/>
<polygon fill="black" stroke="black" points="214.98,-239.56 205.82,-244.88 216.3,-246.44 214.98,-239.56"/>
<g id="a_edge5&#45;headlabel"><a xlink:href="dir_000014_000002.html" target="_top" xlink:title="1">
<text text-anchor="middle" x="217.98" y="-233.6" font-family="Helvetica,sans-Serif" font-size="10.00">1</text>
</a>
</g>
</g>
<!-- dir_e557f4a15fde7dbb7a790a3a11b8b9c6&#45;&gt;dir_459a7c9a427a2877b0db19c6b8d6e89d -->
<g id="edge1" class="edge">
<title>dir_e557f4a15fde7dbb7a790a3a11b8b9c6&#45;&gt;dir_459a7c9a427a2877b0db19c6b8d6e89d</title>
<path fill="none" stroke="black" d="M238.45,-52.19C240.5,-76.42 244.26,-120.89 246.69,-149.68"/>
<polygon fill="black" stroke="black" points="243.22,-150.2 247.55,-159.87 250.2,-149.61 243.22,-150.2"/>
<g id="a_edge1&#45;headlabel"><a xlink:href="dir_000004_000016.html" target="_top" xlink:title="7">
<text text-anchor="middle" x="240.09" y="-144.36" font-family="Helvetica,sans-Serif" font-size="10.00">7</text>
</a>
</g>
</g>
<!-- dir_56a38b8fe5721043b6fdcd4a2ef7b603 -->
<g id="node5" class="node">
<title>dir_56a38b8fe5721043b6fdcd4a2ef7b603</title>
<g id="a_node5"><a xlink:href="dir_56a38b8fe5721043b6fdcd4a2ef7b603.html" target="_top" xlink:title="algorithm">
<polygon fill="white" stroke="black" points="88,-268 24,-268 24,-232 88,-232 88,-268"/>
<text text-anchor="middle" x="56" y="-247.5" font-family="Helvetica,sans-Serif" font-size="10.00">algorithm</text>
</a>
</g>
</g>
<!-- dir_56a38b8fe5721043b6fdcd4a2ef7b603&#45;&gt;dir_459a7c9a427a2877b0db19c6b8d6e89d -->
<g id="edge7" class="edge">
<title>dir_56a38b8fe5721043b6fdcd4a2ef7b603&#45;&gt;dir_459a7c9a427a2877b0db19c6b8d6e89d</title>
<path fill="none" stroke="black" d="M88.45,-235.52C91.66,-234.29 94.88,-233.1 98,-232 147.45,-214.62 164.63,-217.12 212.47,-198.14"/>
<polygon fill="black" stroke="black" points="213.84,-201.36 221.77,-194.34 211.19,-194.88 213.84,-201.36"/>
<g id="a_edge7&#45;headlabel"><a xlink:href="dir_000003_000016.html" target="_top" xlink:title="2">
<text text-anchor="middle" x="211.58" y="-202.85" font-family="Helvetica,sans-Serif" font-size="10.00">2</text>
</a>
</g>
</g>
<!-- dir_56a38b8fe5721043b6fdcd4a2ef7b603&#45;&gt;dir_7155ef3ffc36b95c2fce4bd5b1f8d366 -->
<g id="edge8" class="edge">
<title>dir_56a38b8fe5721043b6fdcd4a2ef7b603&#45;&gt;dir_7155ef3ffc36b95c2fce4bd5b1f8d366</title>
<path fill="none" stroke="black" d="M88.34,-235.19C91.57,-234.02 94.83,-232.94 98,-232 179.17,-208.01 231.11,-261.26 285,-196 299.01,-179.03 296.82,-153.4 292.11,-134"/>
<polygon fill="black" stroke="black" points="295.45,-132.93 289.41,-124.22 288.7,-134.79 295.45,-132.93"/>
<g id="a_edge8&#45;headlabel"><a xlink:href="dir_000003_000014.html" target="_top" xlink:title="2">
<text text-anchor="middle" x="299.14" y="-133.14" font-family="Helvetica,sans-Serif" font-size="10.00">2</text>
</a>
</g>
</g>
<!-- dir_56a38b8fe5721043b6fdcd4a2ef7b603&#45;&gt;dir_e557f4a15fde7dbb7a790a3a11b8b9c6 -->
<g id="edge9" class="edge">
<title>dir_56a38b8fe5721043b6fdcd4a2ef7b603&#45;&gt;dir_e557f4a15fde7dbb7a790a3a11b8b9c6</title>
<path fill="none" stroke="black" d="M88.02,-235.93C125.64,-220.55 183.12,-196.95 184,-196 218.83,-158.47 230.8,-97.58 234.89,-62.42"/>
<polygon fill="black" stroke="black" points="238.38,-62.7 235.93,-52.39 231.42,-61.98 238.38,-62.7"/>
<g id="a_edge9&#45;headlabel"><a xlink:href="dir_000003_000004.html" target="_top" xlink:title="1">
<text text-anchor="middle" x="240.84" y="-64.06" font-family="Helvetica,sans-Serif" font-size="10.00">1</text>
</a>
</g>
</g>
<!-- dir_f4a84d63172fc204e2518f06d98c8148 -->
<g id="node6" class="node">
<title>dir_f4a84d63172fc204e2518f06d98c8148</title>
<g id="a_node6"><a xlink:href="dir_f4a84d63172fc204e2518f06d98c8148.html" target="_top" xlink:title="optimization_param_type">
<polygon fill="white" stroke="black" points="175,-196 33,-196 33,-160 175,-160 175,-196"/>
<text text-anchor="middle" x="104" y="-175.5" font-family="Helvetica,sans-Serif" font-size="10.00">optimization_param_type</text>
</a>
</g>
</g>
<!-- dir_56a38b8fe5721043b6fdcd4a2ef7b603&#45;&gt;dir_f4a84d63172fc204e2518f06d98c8148 -->
<g id="edge10" class="edge">
<title>dir_56a38b8fe5721043b6fdcd4a2ef7b603&#45;&gt;dir_f4a84d63172fc204e2518f06d98c8148</title>
<path fill="none" stroke="black" d="M67.87,-231.7C73.5,-223.47 80.35,-213.48 86.57,-204.42"/>
<polygon fill="black" stroke="black" points="89.5,-206.33 92.27,-196.1 83.73,-202.37 89.5,-206.33"/>
<g id="a_edge10&#45;headlabel"><a xlink:href="dir_000003_000012.html" target="_top" xlink:title="1">
<text text-anchor="middle" x="89.81" y="-208.4" font-family="Helvetica,sans-Serif" font-size="10.00">1</text>
</a>
</g>
</g>
<!-- dir_f4a84d63172fc204e2518f06d98c8148&#45;&gt;dir_459a7c9a427a2877b0db19c6b8d6e89d -->
<g id="edge3" class="edge">
<title>dir_f4a84d63172fc204e2518f06d98c8148&#45;&gt;dir_459a7c9a427a2877b0db19c6b8d6e89d</title>
<path fill="none" stroke="black" d="M175.08,-178C187.26,-178 199.45,-178 211.63,-178"/>
<polygon fill="black" stroke="black" points="211.86,-181.5 221.86,-178 211.86,-174.5 211.86,-181.5"/>
<g id="a_edge3&#45;headlabel"><a xlink:href="dir_000012_000016.html" target="_top" xlink:title="4">
<text text-anchor="middle" x="208.26" y="-181.84" font-family="Helvetica,sans-Serif" font-size="10.00">4</text>
</a>
</g>
</g>
</g>
</svg>
