<?xml version="1.0" encoding="UTF-8" standalone="no"?>
<!DOCTYPE svg PUBLIC "-//W3C//DTD SVG 1.1//EN"
 "http://www.w3.org/Graphics/SVG/1.1/DTD/svg11.dtd">
<!-- Generated by graphviz version 2.43.0 (0)
 -->
<!-- Title: core/execution_context Pages: 1 -->
<svg width="266pt" height="455pt"
 viewBox="0.00 0.00 266.00 455.00" xmlns="http://www.w3.org/2000/svg" xmlns:xlink="http://www.w3.org/1999/xlink">
<g id="graph0" class="graph" transform="scale(1 1) rotate(0) translate(4 451)">
<title>core/execution_context</title>
<polygon fill="white" stroke="transparent" points="-4,4 -4,-451 262,-451 262,4 -4,4"/>
<g id="clust1" class="cluster">
<title>clusterdir_4270bfced15e0e73154b13468c7c9ad9</title>
<g id="a_clust1"><a xlink:href="dir_4270bfced15e0e73154b13468c7c9ad9.html" target="_top" xlink:title="core">
<polygon fill="#ddddee" stroke="black" points="8,-8 8,-439 250,-439 250,-8 8,-8"/>
<text text-anchor="middle" x="129" y="-427" font-family="Helvetica,sans-Serif" font-size="10.00">core</text>
</a>
</g>
</g>
<!-- dir_087ef7b4b2bc9758818ca5b5acc1bcc7 -->
<g id="node1" class="node">
<title>dir_087ef7b4b2bc9758818ca5b5acc1bcc7</title>
<g id="a_node1"><a xlink:href="dir_087ef7b4b2bc9758818ca5b5acc1bcc7.html" target="_top" xlink:title="operation">
<polygon fill="none" stroke="black" points="156.5,-412 93.5,-412 93.5,-376 156.5,-376 156.5,-412"/>
<text text-anchor="middle" x="125" y="-391.5" font-family="Helvetica,sans-Serif" font-size="10.00">operation</text>
</a>
</g>
</g>
<!-- dir_1b63f22ff36ffa98be356425464e796a -->
<g id="node2" class="node">
<title>dir_1b63f22ff36ffa98be356425464e796a</title>
<g id="a_node2"><a xlink:href="dir_1b63f22ff36ffa98be356425464e796a.html" target="_top" xlink:title="container">
<polygon fill="none" stroke="black" points="106,-340 44,-340 44,-304 106,-304 106,-340"/>
<text text-anchor="middle" x="75" y="-319.5" font-family="Helvetica,sans-Serif" font-size="10.00">container</text>
</a>
</g>
</g>
<!-- dir_087ef7b4b2bc9758818ca5b5acc1bcc7&#45;&gt;dir_1b63f22ff36ffa98be356425464e796a -->
<g id="edge18" class="edge">
<title>dir_087ef7b4b2bc9758818ca5b5acc1bcc7&#45;&gt;dir_1b63f22ff36ffa98be356425464e796a</title>
<path fill="none" stroke="black" d="M112.64,-375.7C106.77,-367.47 99.63,-357.48 93.16,-348.42"/>
<polygon fill="black" stroke="black" points="95.88,-346.21 87.22,-340.1 90.18,-350.28 95.88,-346.21"/>
<g id="a_edge18&#45;headlabel"><a xlink:href="dir_000013_000006.html" target="_top" xlink:title="3">
<text text-anchor="middle" x="100.28" y="-344.98" font-family="Helvetica,sans-Serif" font-size="10.00">3</text>
</a>
</g>
</g>
<!-- dir_38a3a31c3d1487b433ec02088da4dbcb -->
<g id="node3" class="node">
<title>dir_38a3a31c3d1487b433ec02088da4dbcb</title>
<g id="a_node3"><a xlink:href="dir_38a3a31c3d1487b433ec02088da4dbcb.html" target="_top" xlink:title="agent">
<polygon fill="none" stroke="black" points="150,-268 96,-268 96,-232 150,-232 150,-268"/>
<text text-anchor="middle" x="123" y="-247.5" font-family="Helvetica,sans-Serif" font-size="10.00">agent</text>
</a>
</g>
</g>
<!-- dir_087ef7b4b2bc9758818ca5b5acc1bcc7&#45;&gt;dir_38a3a31c3d1487b433ec02088da4dbcb -->
<g id="edge19" class="edge">
<title>dir_087ef7b4b2bc9758818ca5b5acc1bcc7&#45;&gt;dir_38a3a31c3d1487b433ec02088da4dbcb</title>
<path fill="none" stroke="black" d="M124.76,-375.87C124.42,-351.67 123.79,-307.21 123.39,-278.39"/>
<polygon fill="black" stroke="black" points="126.88,-278.14 123.24,-268.19 119.88,-278.24 126.88,-278.14"/>
<g id="a_edge19&#45;headlabel"><a xlink:href="dir_000013_000001.html" target="_top" xlink:title="8">
<text text-anchor="middle" x="129.77" y="-279.19" font-family="Helvetica,sans-Serif" font-size="10.00">8</text>
</a>
</g>
</g>
<!-- dir_459a7c9a427a2877b0db19c6b8d6e89d -->
<g id="node4" class="node">
<title>dir_459a7c9a427a2877b0db19c6b8d6e89d</title>
<g id="a_node4"><a xlink:href="dir_459a7c9a427a2877b0db19c6b8d6e89d.html" target="_top" xlink:title="util">
<polygon fill="none" stroke="black" points="151,-52 97,-52 97,-16 151,-16 151,-52"/>
<text text-anchor="middle" x="124" y="-31.5" font-family="Helvetica,sans-Serif" font-size="10.00">util</text>
</a>
</g>
</g>
<!-- dir_087ef7b4b2bc9758818ca5b5acc1bcc7&#45;&gt;dir_459a7c9a427a2877b0db19c6b8d6e89d -->
<g id="edge20" class="edge">
<title>dir_087ef7b4b2bc9758818ca5b5acc1bcc7&#45;&gt;dir_459a7c9a427a2877b0db19c6b8d6e89d</title>
<path fill="none" stroke="black" d="M152.78,-375.88C187.1,-352.35 241,-306.55 241,-251 241,-251 241,-251 241,-177 241,-125.17 194,-82 159.58,-57.33"/>
<polygon fill="black" stroke="black" points="161.35,-54.3 151.14,-51.46 157.35,-60.04 161.35,-54.3"/>
<g id="a_edge20&#45;headlabel"><a xlink:href="dir_000013_000016.html" target="_top" xlink:title="12">
<text text-anchor="middle" x="165.92" y="-51.52" font-family="Helvetica,sans-Serif" font-size="10.00">12</text>
</a>
</g>
</g>
<!-- dir_bc6016157ccda3b72fdae555a0f34277 -->
<g id="node5" class="node">
<title>dir_bc6016157ccda3b72fdae555a0f34277</title>
<g id="a_node5"><a xlink:href="dir_bc6016157ccda3b72fdae555a0f34277.html" target="_top" xlink:title="environment">
<polygon fill="none" stroke="black" points="134.5,-124 55.5,-124 55.5,-88 134.5,-88 134.5,-124"/>
<text text-anchor="middle" x="95" y="-103.5" font-family="Helvetica,sans-Serif" font-size="10.00">environment</text>
</a>
</g>
</g>
<!-- dir_087ef7b4b2bc9758818ca5b5acc1bcc7&#45;&gt;dir_bc6016157ccda3b72fdae555a0f34277 -->
<g id="edge21" class="edge">
<title>dir_087ef7b4b2bc9758818ca5b5acc1bcc7&#45;&gt;dir_bc6016157ccda3b72fdae555a0f34277</title>
<path fill="none" stroke="black" d="M93.18,-383.45C72.6,-375.43 47.42,-361.72 35,-340 -4.08,-271.64 46.93,-177.61 76.54,-132.79"/>
<polygon fill="black" stroke="black" points="79.61,-134.49 82.32,-124.25 73.82,-130.57 79.61,-134.49"/>
<g id="a_edge21&#45;headlabel"><a xlink:href="dir_000013_000008.html" target="_top" xlink:title="4">
<text text-anchor="middle" x="79.95" y="-136.56" font-family="Helvetica,sans-Serif" font-size="10.00">4</text>
</a>
</g>
</g>
<!-- dir_1b63f22ff36ffa98be356425464e796a&#45;&gt;dir_38a3a31c3d1487b433ec02088da4dbcb -->
<g id="edge16" class="edge">
<title>dir_1b63f22ff36ffa98be356425464e796a&#45;&gt;dir_38a3a31c3d1487b433ec02088da4dbcb</title>
<path fill="none" stroke="black" d="M80.95,-303.7C85.79,-295.39 92.53,-285.28 99.25,-276.14"/>
<polygon fill="black" stroke="black" points="102.1,-278.18 105.38,-268.1 96.53,-273.94 102.1,-278.18"/>
<g id="a_edge16&#45;headlabel"><a xlink:href="dir_000006_000001.html" target="_top" xlink:title="2">
<text text-anchor="middle" x="102.18" y="-280.26" font-family="Helvetica,sans-Serif" font-size="10.00">2</text>
</a>
</g>
</g>
<!-- dir_1b63f22ff36ffa98be356425464e796a&#45;&gt;dir_459a7c9a427a2877b0db19c6b8d6e89d -->
<g id="edge17" class="edge">
<title>dir_1b63f22ff36ffa98be356425464e796a&#45;&gt;dir_459a7c9a427a2877b0db19c6b8d6e89d</title>
<path fill="none" stroke="black" d="M62.1,-304C39.28,-263.8 -0.29,-160.85 38,-88 48.14,-68.71 68.84,-55.07 87.52,-46.46"/>
<polygon fill="black" stroke="black" points="88.93,-49.67 96.76,-42.53 86.18,-43.23 88.93,-49.67"/>
<g id="a_edge17&#45;headlabel"><a xlink:href="dir_000006_000016.html" target="_top" xlink:title="9">
<text text-anchor="middle" x="86.73" y="-51.19" font-family="Helvetica,sans-Serif" font-size="10.00">9</text>
</a>
</g>
</g>
<!-- dir_38a3a31c3d1487b433ec02088da4dbcb&#45;&gt;dir_1b63f22ff36ffa98be356425464e796a -->
<g id="edge1" class="edge">
<title>dir_38a3a31c3d1487b433ec02088da4dbcb&#45;&gt;dir_1b63f22ff36ffa98be356425464e796a</title>
<path fill="none" stroke="black" d="M117.17,-268.1C112.36,-276.38 105.64,-286.49 98.91,-295.64"/>
<polygon fill="black" stroke="black" points="96.05,-293.62 92.78,-303.7 101.62,-297.85 96.05,-293.62"/>
<g id="a_edge1&#45;headlabel"><a xlink:href="dir_000001_000006.html" target="_top" xlink:title="8">
<text text-anchor="middle" x="95.96" y="-286.54" font-family="Helvetica,sans-Serif" font-size="10.00">8</text>
</a>
</g>
</g>
<!-- dir_38a3a31c3d1487b433ec02088da4dbcb&#45;&gt;dir_459a7c9a427a2877b0db19c6b8d6e89d -->
<g id="edge3" class="edge">
<title>dir_38a3a31c3d1487b433ec02088da4dbcb&#45;&gt;dir_459a7c9a427a2877b0db19c6b8d6e89d</title>
<path fill="none" stroke="black" d="M150.28,-237.6C168.42,-229.33 190.68,-216.03 202,-196 209.87,-182.07 206.79,-175.27 202,-160 189.8,-121.13 160.77,-83.77 141.55,-60.18"/>
<polygon fill="black" stroke="black" points="144.01,-57.65 134.97,-52.14 138.59,-62.09 144.01,-57.65"/>
<g id="a_edge3&#45;headlabel"><a xlink:href="dir_000001_000016.html" target="_top" xlink:title="16">
<text text-anchor="middle" x="148.48" y="-56.14" font-family="Helvetica,sans-Serif" font-size="10.00">16</text>
</a>
</g>
</g>
<!-- dir_38a3a31c3d1487b433ec02088da4dbcb&#45;&gt;dir_bc6016157ccda3b72fdae555a0f34277 -->
<g id="edge4" class="edge">
<title>dir_38a3a31c3d1487b433ec02088da4dbcb&#45;&gt;dir_bc6016157ccda3b72fdae555a0f34277</title>
<path fill="none" stroke="black" d="M99.41,-231.77C90.63,-222.03 82.05,-209.18 78,-196 71.76,-175.7 74.48,-151.66 79.74,-133.69"/>
<polygon fill="black" stroke="black" points="83.08,-134.73 82.98,-124.13 76.45,-132.48 83.08,-134.73"/>
<g id="a_edge4&#45;headlabel"><a xlink:href="dir_000001_000008.html" target="_top" xlink:title="1">
<text text-anchor="middle" x="84.62" y="-136.54" font-family="Helvetica,sans-Serif" font-size="10.00">1</text>
</a>
</g>
</g>
<!-- dir_20e5e21553452583d5c4dd80dd906094 -->
<g id="node6" class="node">
<title>dir_20e5e21553452583d5c4dd80dd906094</title>
<g id="a_node6"><a xlink:href="dir_20e5e21553452583d5c4dd80dd906094.html" target="_top" xlink:title="execution_context">
<polygon fill="#eeeeff" stroke="black" points="202,-196 96,-196 96,-160 202,-160 202,-196"/>
<text text-anchor="middle" x="149" y="-175.5" font-family="Helvetica,sans-Serif" font-size="10.00">execution_context</text>
</a>
</g>
</g>
<!-- dir_38a3a31c3d1487b433ec02088da4dbcb&#45;&gt;dir_20e5e21553452583d5c4dd80dd906094 -->
<g id="edge2" class="edge">
<title>dir_38a3a31c3d1487b433ec02088da4dbcb&#45;&gt;dir_20e5e21553452583d5c4dd80dd906094</title>
<path fill="none" stroke="black" d="M123.51,-231.7C125.65,-223.73 129.01,-214.1 132.69,-205.26"/>
<polygon fill="black" stroke="black" points="135.89,-206.66 136.75,-196.1 129.5,-203.82 135.89,-206.66"/>
<g id="a_edge2&#45;headlabel"><a xlink:href="dir_000001_000009.html" target="_top" xlink:title="3">
<text text-anchor="middle" x="137.03" y="-208.6" font-family="Helvetica,sans-Serif" font-size="10.00">3</text>
</a>
</g>
</g>
<!-- dir_459a7c9a427a2877b0db19c6b8d6e89d&#45;&gt;dir_1b63f22ff36ffa98be356425464e796a -->
<g id="edge5" class="edge">
<title>dir_459a7c9a427a2877b0db19c6b8d6e89d&#45;&gt;dir_1b63f22ff36ffa98be356425464e796a</title>
<path fill="none" stroke="black" d="M96.88,-49.82C81.97,-58.46 64.91,-71.05 56,-88 20.47,-155.58 51.97,-249.08 67.86,-294.33"/>
<polygon fill="black" stroke="black" points="64.64,-295.72 71.25,-304 71.24,-293.4 64.64,-295.72"/>
<g id="a_edge5&#45;headlabel"><a xlink:href="dir_000016_000006.html" target="_top" xlink:title="5">
<text text-anchor="middle" x="60.77" y="-290.77" font-family="Helvetica,sans-Serif" font-size="10.00">5</text>
</a>
</g>
</g>
<!-- dir_459a7c9a427a2877b0db19c6b8d6e89d&#45;&gt;dir_38a3a31c3d1487b433ec02088da4dbcb -->
<g id="edge6" class="edge">
<title>dir_459a7c9a427a2877b0db19c6b8d6e89d&#45;&gt;dir_38a3a31c3d1487b433ec02088da4dbcb</title>
<path fill="none" stroke="black" d="M147.41,-52.14C171.39,-74.61 206.31,-116.36 220,-160 224.79,-175.27 227.87,-182.07 220,-196 207.6,-217.95 182.06,-231.82 160.16,-239.84"/>
<polygon fill="black" stroke="black" points="158.78,-236.61 150.42,-243.12 161.01,-243.24 158.78,-236.61"/>
<g id="a_edge6&#45;headlabel"><a xlink:href="dir_000016_000001.html" target="_top" xlink:title="1">
<text text-anchor="middle" x="161.28" y="-230.27" font-family="Helvetica,sans-Serif" font-size="10.00">1</text>
</a>
</g>
</g>
<!-- dir_459a7c9a427a2877b0db19c6b8d6e89d&#45;&gt;dir_bc6016157ccda3b72fdae555a0f34277 -->
<g id="edge7" class="edge">
<title>dir_459a7c9a427a2877b0db19c6b8d6e89d&#45;&gt;dir_bc6016157ccda3b72fdae555a0f34277</title>
<path fill="none" stroke="black" d="M122.81,-52.1C120.35,-60.04 116.59,-69.67 112.54,-78.51"/>
<polygon fill="black" stroke="black" points="109.3,-77.17 108.08,-87.7 115.6,-80.23 109.3,-77.17"/>
<g id="a_edge7&#45;headlabel"><a xlink:href="dir_000016_000008.html" target="_top" xlink:title="1">
<text text-anchor="middle" x="108.32" y="-70.2" font-family="Helvetica,sans-Serif" font-size="10.00">1</text>
</a>
</g>
</g>
<!-- dir_bc6016157ccda3b72fdae555a0f34277&#45;&gt;dir_1b63f22ff36ffa98be356425464e796a -->
<g id="edge8" class="edge">
<title>dir_bc6016157ccda3b72fdae555a0f34277&#45;&gt;dir_1b63f22ff36ffa98be356425464e796a</title>
<path fill="none" stroke="black" d="M88.85,-124.46C85.47,-134.7 81.47,-147.95 79,-160 69.35,-207.15 69.19,-219.9 71,-268 71.31,-276.33 71.91,-285.39 72.54,-293.62"/>
<polygon fill="black" stroke="black" points="69.07,-294.15 73.38,-303.83 76.05,-293.58 69.07,-294.15"/>
<g id="a_edge8&#45;headlabel"><a xlink:href="dir_000008_000006.html" target="_top" xlink:title="12">
<text text-anchor="middle" x="65.95" y="-288.3" font-family="Helvetica,sans-Serif" font-size="10.00">12</text>
</a>
</g>
</g>
<!-- dir_bc6016157ccda3b72fdae555a0f34277&#45;&gt;dir_38a3a31c3d1487b433ec02088da4dbcb -->
<g id="edge9" class="edge">
<title>dir_bc6016157ccda3b72fdae555a0f34277&#45;&gt;dir_38a3a31c3d1487b433ec02088da4dbcb</title>
<path fill="none" stroke="black" d="M96.33,-124.13C93.84,-142.36 88.57,-171.83 96,-196 98.98,-205.68 104.39,-215.18 109.73,-223.4"/>
<polygon fill="black" stroke="black" points="106.88,-225.44 115.37,-231.77 112.68,-221.52 106.88,-225.44"/>
<g id="a_edge9&#45;headlabel"><a xlink:href="dir_000008_000001.html" target="_top" xlink:title="2">
<text text-anchor="middle" x="102.51" y="-221.54" font-family="Helvetica,sans-Serif" font-size="10.00">2</text>
</a>
</g>
</g>
<!-- dir_bc6016157ccda3b72fdae555a0f34277&#45;&gt;dir_459a7c9a427a2877b0db19c6b8d6e89d -->
<g id="edge10" class="edge">
<title>dir_bc6016157ccda3b72fdae555a0f34277&#45;&gt;dir_459a7c9a427a2877b0db19c6b8d6e89d</title>
<path fill="none" stroke="black" d="M96.25,-87.7C98.73,-79.73 102.51,-70.1 106.56,-61.26"/>
<polygon fill="black" stroke="black" points="109.79,-62.63 111.02,-52.1 103.49,-59.56 109.79,-62.63"/>
<g id="a_edge10&#45;headlabel"><a xlink:href="dir_000008_000016.html" target="_top" xlink:title="3">
<text text-anchor="middle" x="110.77" y="-64.6" font-family="Helvetica,sans-Serif" font-size="10.00">3</text>
</a>
</g>
</g>
<!-- dir_20e5e21553452583d5c4dd80dd906094&#45;&gt;dir_087ef7b4b2bc9758818ca5b5acc1bcc7 -->
<g id="edge11" class="edge">
<title>dir_20e5e21553452583d5c4dd80dd906094&#45;&gt;dir_087ef7b4b2bc9758818ca5b5acc1bcc7</title>
<path fill="none" stroke="black" d="M153.06,-196.07C155.31,-206.4 157.87,-219.88 159,-232 160.49,-247.93 161.12,-252.14 159,-268 154.37,-302.68 142.81,-341.37 134.45,-366.39"/>
<polygon fill="black" stroke="black" points="131.12,-365.31 131.21,-375.91 137.75,-367.57 131.12,-365.31"/>
<g id="a_edge11&#45;headlabel"><a xlink:href="dir_000009_000013.html" target="_top" xlink:title="2">
<text text-anchor="middle" x="129.6" y="-358.49" font-family="Helvetica,sans-Serif" font-size="10.00">2</text>
</a>
</g>
</g>
<!-- dir_20e5e21553452583d5c4dd80dd906094&#45;&gt;dir_1b63f22ff36ffa98be356425464e796a -->
<g id="edge12" class="edge">
<title>dir_20e5e21553452583d5c4dd80dd906094&#45;&gt;dir_1b63f22ff36ffa98be356425464e796a</title>
<path fill="none" stroke="black" d="M121.02,-196.04C108.56,-205.13 94.93,-217.45 87,-232 76.71,-250.89 74.03,-275.26 73.74,-293.72"/>
<polygon fill="black" stroke="black" points="70.24,-293.84 73.81,-303.82 77.24,-293.8 70.24,-293.84"/>
<g id="a_edge12&#45;headlabel"><a xlink:href="dir_000009_000006.html" target="_top" xlink:title="3">
<text text-anchor="middle" x="67.38" y="-287.77" font-family="Helvetica,sans-Serif" font-size="10.00">3</text>
</a>
</g>
</g>
<!-- dir_20e5e21553452583d5c4dd80dd906094&#45;&gt;dir_38a3a31c3d1487b433ec02088da4dbcb -->
<g id="edge13" class="edge">
<title>dir_20e5e21553452583d5c4dd80dd906094&#45;&gt;dir_38a3a31c3d1487b433ec02088da4dbcb</title>
<path fill="none" stroke="black" d="M148.54,-196.1C146.42,-204.04 143.08,-213.67 139.41,-222.51"/>
<polygon fill="black" stroke="black" points="136.19,-221.14 135.34,-231.7 142.59,-223.97 136.19,-221.14"/>
<g id="a_edge13&#45;headlabel"><a xlink:href="dir_000009_000001.html" target="_top" xlink:title="7">
<text text-anchor="middle" x="135.05" y="-214.2" font-family="Helvetica,sans-Serif" font-size="10.00">7</text>
</a>
</g>
</g>
<!-- dir_20e5e21553452583d5c4dd80dd906094&#45;&gt;dir_459a7c9a427a2877b0db19c6b8d6e89d -->
<g id="edge14" class="edge">
<title>dir_20e5e21553452583d5c4dd80dd906094&#45;&gt;dir_459a7c9a427a2877b0db19c6b8d6e89d</title>
<path fill="none" stroke="black" d="M149.57,-159.73C149.81,-141.65 149.19,-112.53 144,-88 142.15,-79.24 139.09,-70.02 135.91,-61.76"/>
<polygon fill="black" stroke="black" points="139.05,-60.21 132.05,-52.26 132.57,-62.84 139.05,-60.21"/>
<g id="a_edge14&#45;headlabel"><a xlink:href="dir_000009_000016.html" target="_top" xlink:title="2">
<text text-anchor="middle" x="143.04" y="-59.97" font-family="Helvetica,sans-Serif" font-size="10.00">2</text>
</a>
</g>
</g>
<!-- dir_20e5e21553452583d5c4dd80dd906094&#45;&gt;dir_bc6016157ccda3b72fdae555a0f34277 -->
<g id="edge15" class="edge">
<title>dir_20e5e21553452583d5c4dd80dd906094&#45;&gt;dir_bc6016157ccda3b72fdae555a0f34277</title>
<path fill="none" stroke="black" d="M135.65,-159.7C129.24,-151.39 121.44,-141.28 114.39,-132.14"/>
<polygon fill="black" stroke="black" points="117.07,-129.88 108.19,-124.1 111.53,-134.16 117.07,-129.88"/>
<g id="a_edge15&#45;headlabel"><a xlink:href="dir_000009_000008.html" target="_top" xlink:title="1">
<text text-anchor="middle" x="121.52" y="-128.5" font-family="Helvetica,sans-Serif" font-size="10.00">1</text>
</a>
</g>
</g>
</g>
</svg>
