<?xml version="1.0" encoding="UTF-8" standalone="no"?>
<!DOCTYPE svg PUBLIC "-//W3C//DTD SVG 1.1//EN"
 "http://www.w3.org/Graphics/SVG/1.1/DTD/svg11.dtd">
<!-- Generated by graphviz version 2.40.1 (20161225.0304)
 -->
<!-- Title: core/behavior Pages: 1 -->
<svg width="156pt" height="223pt"
 viewBox="0.00 0.00 156.00 223.00" xmlns="http://www.w3.org/2000/svg" xmlns:xlink="http://www.w3.org/1999/xlink">
<g id="graph0" class="graph" transform="scale(1 1) rotate(0) translate(4 219)">
<title>core/behavior</title>
<polygon fill="#ffffff" stroke="transparent" points="-4,4 -4,-219 152,-219 152,4 -4,4"/>
<g id="clust1" class="cluster">
<title>clusterdir_4270bfced15e0e73154b13468c7c9ad9</title>
<g id="a_clust1"><a xlink:href="dir_4270bfced15e0e73154b13468c7c9ad9.html" target="_top" xlink:title="core">
<polygon fill="#ddddee" stroke="#000000" points="8,-136 8,-207 84,-207 84,-136 8,-136"/>
<text text-anchor="middle" x="46" y="-195" font-family="Helvetica,sans-Serif" font-size="10.00" fill="#000000">core</text>
</a>
</g>
</g>
<!-- dir_f6c71c2e4387414fae6e0efe9f53cf5e -->
<g id="node1" class="node">
<title>dir_f6c71c2e4387414fae6e0efe9f53cf5e</title>
<g id="a_node1"><a xlink:href="dir_f6c71c2e4387414fae6e0efe9f53cf5e.html" target="_top" xlink:title="behavior">
<polygon fill="#eeeeff" stroke="#000000" points="75.5,-180 16.5,-180 16.5,-144 75.5,-144 75.5,-180"/>
<text text-anchor="middle" x="46" y="-159.5" font-family="Helvetica,sans-Serif" font-size="10.00" fill="#000000">behavior</text>
</a>
</g>
</g>
<!-- dir_38a3a31c3d1487b433ec02088da4dbcb -->
<g id="node2" class="node">
<title>dir_38a3a31c3d1487b433ec02088da4dbcb</title>
<g id="a_node2"><a xlink:href="dir_38a3a31c3d1487b433ec02088da4dbcb.html" target="_top" xlink:title="agent">
<polygon fill="none" stroke="#000000" points="148,-180 94,-180 94,-144 148,-144 148,-180"/>
<text text-anchor="middle" x="121" y="-159.5" font-family="Helvetica,sans-Serif" font-size="10.00" fill="#000000">agent</text>
</a>
</g>
</g>
<!-- dir_f6c71c2e4387414fae6e0efe9f53cf5e&#45;&gt;dir_38a3a31c3d1487b433ec02088da4dbcb -->
<g id="edge5" class="edge">
<title>dir_f6c71c2e4387414fae6e0efe9f53cf5e&#45;&gt;dir_38a3a31c3d1487b433ec02088da4dbcb</title>
<path fill="none" stroke="#000000" d="M75.5898,-162C78.2284,-162 80.867,-162 83.5056,-162"/>
<polygon fill="#000000" stroke="#000000" points="83.683,-165.5001 93.683,-162 83.6829,-158.5001 83.683,-165.5001"/>
<g id="a_edge5&#45;headlabel"><a xlink:href="dir_000002_000001.html" target="_top" xlink:title="6">
<text text-anchor="middle" x="80.0883" y="-165.8393" font-family="Helvetica,sans-Serif" font-size="10.00" fill="#000000">6</text>
</a>
</g>
</g>
<!-- dir_459a7c9a427a2877b0db19c6b8d6e89d -->
<g id="node3" class="node">
<title>dir_459a7c9a427a2877b0db19c6b8d6e89d</title>
<g id="a_node3"><a xlink:href="dir_459a7c9a427a2877b0db19c6b8d6e89d.html" target="_top" xlink:title="util">
<polygon fill="none" stroke="#000000" points="111,-108 57,-108 57,-72 111,-72 111,-108"/>
<text text-anchor="middle" x="84" y="-87.5" font-family="Helvetica,sans-Serif" font-size="10.00" fill="#000000">util</text>
</a>
</g>
</g>
<!-- dir_f6c71c2e4387414fae6e0efe9f53cf5e&#45;&gt;dir_459a7c9a427a2877b0db19c6b8d6e89d -->
<g id="edge6" class="edge">
<title>dir_f6c71c2e4387414fae6e0efe9f53cf5e&#45;&gt;dir_459a7c9a427a2877b0db19c6b8d6e89d</title>
<path fill="none" stroke="#000000" d="M55.589,-143.8314C59.8317,-135.7925 64.9121,-126.1666 69.596,-117.2918"/>
<polygon fill="#000000" stroke="#000000" points="72.7096,-118.8908 74.2819,-108.4133 66.5189,-115.6235 72.7096,-118.8908"/>
<g id="a_edge6&#45;headlabel"><a xlink:href="dir_000002_000011.html" target="_top" xlink:title="4">
<text text-anchor="middle" x="73.5428" y="-120.895" font-family="Helvetica,sans-Serif" font-size="10.00" fill="#000000">4</text>
</a>
</g>
</g>
<!-- dir_7155ef3ffc36b95c2fce4bd5b1f8d366 -->
<g id="node4" class="node">
<title>dir_7155ef3ffc36b95c2fce4bd5b1f8d366</title>
<g id="a_node4"><a xlink:href="dir_7155ef3ffc36b95c2fce4bd5b1f8d366.html" target="_top" xlink:title="param">
<polygon fill="none" stroke="#000000" points="111,-36 57,-36 57,0 111,0 111,-36"/>
<text text-anchor="middle" x="84" y="-15.5" font-family="Helvetica,sans-Serif" font-size="10.00" fill="#000000">param</text>
</a>
</g>
</g>
<!-- dir_f6c71c2e4387414fae6e0efe9f53cf5e&#45;&gt;dir_7155ef3ffc36b95c2fce4bd5b1f8d366 -->
<g id="edge7" class="edge">
<title>dir_f6c71c2e4387414fae6e0efe9f53cf5e&#45;&gt;dir_7155ef3ffc36b95c2fce4bd5b1f8d366</title>
<path fill="none" stroke="#000000" d="M43.4991,-143.9321C41.5989,-125.4098 40.4412,-96.0003 48,-72 51.0647,-62.269 56.4652,-52.6661 62.1657,-44.3181"/>
<polygon fill="#000000" stroke="#000000" points="65.077,-46.2657 68.1294,-36.1201 59.4163,-42.1477 65.077,-46.2657"/>
<g id="a_edge7&#45;headlabel"><a xlink:href="dir_000002_000009.html" target="_top" xlink:title="1">
<text text-anchor="middle" x="65.2584" y="-48.3428" font-family="Helvetica,sans-Serif" font-size="10.00" fill="#000000">1</text>
</a>
</g>
</g>
<!-- dir_38a3a31c3d1487b433ec02088da4dbcb&#45;&gt;dir_f6c71c2e4387414fae6e0efe9f53cf5e -->
<g id="edge2" class="edge">
<title>dir_38a3a31c3d1487b433ec02088da4dbcb&#45;&gt;dir_f6c71c2e4387414fae6e0efe9f53cf5e</title>
<path fill="none" stroke="#000000" d="M93.683,-162C91.0444,-162 88.4058,-162 85.7672,-162"/>
<polygon fill="#000000" stroke="#000000" points="85.5899,-158.5001 75.5898,-162 85.5898,-165.5001 85.5899,-158.5001"/>
<g id="a_edge2&#45;headlabel"><a xlink:href="dir_000001_000002.html" target="_top" xlink:title="1">
<text text-anchor="middle" x="89.1845" y="-153.1607" font-family="Helvetica,sans-Serif" font-size="10.00" fill="#000000">1</text>
</a>
</g>
</g>
<!-- dir_38a3a31c3d1487b433ec02088da4dbcb&#45;&gt;dir_459a7c9a427a2877b0db19c6b8d6e89d -->
<g id="edge1" class="edge">
<title>dir_38a3a31c3d1487b433ec02088da4dbcb&#45;&gt;dir_459a7c9a427a2877b0db19c6b8d6e89d</title>
<path fill="none" stroke="#000000" d="M111.6633,-143.8314C107.5757,-135.8771 102.6896,-126.369 98.1691,-117.5723"/>
<polygon fill="#000000" stroke="#000000" points="101.1461,-115.7078 93.4624,-108.4133 94.9201,-118.9074 101.1461,-115.7078"/>
<g id="a_edge1&#45;headlabel"><a xlink:href="dir_000001_000011.html" target="_top" xlink:title="15">
<text text-anchor="middle" x="105.3144" y="-115.1073" font-family="Helvetica,sans-Serif" font-size="10.00" fill="#000000">15</text>
</a>
</g>
</g>
<!-- dir_38a3a31c3d1487b433ec02088da4dbcb&#45;&gt;dir_7155ef3ffc36b95c2fce4bd5b1f8d366 -->
<g id="edge3" class="edge">
<title>dir_38a3a31c3d1487b433ec02088da4dbcb&#45;&gt;dir_7155ef3ffc36b95c2fce4bd5b1f8d366</title>
<path fill="none" stroke="#000000" d="M123.7562,-143.9474C125.9055,-125.4374 127.424,-96.0375 120,-72 116.9894,-62.2521 111.6047,-52.6443 105.9021,-44.297"/>
<polygon fill="#000000" stroke="#000000" points="108.6482,-42.1223 99.9305,-36.1014 102.9907,-46.2447 108.6482,-42.1223"/>
<g id="a_edge3&#45;headlabel"><a xlink:href="dir_000001_000009.html" target="_top" xlink:title="1">
<text text-anchor="middle" x="113.0597" y="-40.8555" font-family="Helvetica,sans-Serif" font-size="10.00" fill="#000000">1</text>
</a>
</g>
</g>
<!-- dir_459a7c9a427a2877b0db19c6b8d6e89d&#45;&gt;dir_7155ef3ffc36b95c2fce4bd5b1f8d366 -->
<g id="edge4" class="edge">
<title>dir_459a7c9a427a2877b0db19c6b8d6e89d&#45;&gt;dir_7155ef3ffc36b95c2fce4bd5b1f8d366</title>
<path fill="none" stroke="#000000" d="M78.0476,-71.8314C77.2972,-64.131 77.0763,-54.9743 77.3849,-46.4166"/>
<polygon fill="#000000" stroke="#000000" points="80.8792,-46.6161 78.024,-36.4133 73.8935,-46.1697 80.8792,-46.6161"/>
<g id="a_edge4&#45;headlabel"><a xlink:href="dir_000011_000009.html" target="_top" xlink:title="1">
<text text-anchor="middle" x="83.4836" y="-47.8844" font-family="Helvetica,sans-Serif" font-size="10.00" fill="#000000">1</text>
</a>
</g>
</g>
<!-- dir_7155ef3ffc36b95c2fce4bd5b1f8d366&#45;&gt;dir_459a7c9a427a2877b0db19c6b8d6e89d -->
<g id="edge8" class="edge">
<title>dir_7155ef3ffc36b95c2fce4bd5b1f8d366&#45;&gt;dir_459a7c9a427a2877b0db19c6b8d6e89d</title>
<path fill="none" stroke="#000000" d="M89.976,-36.4133C90.7071,-44.0593 90.9203,-53.1084 90.6155,-61.5726"/>
<polygon fill="#000000" stroke="#000000" points="87.1048,-61.6264 89.9524,-71.8314 94.0902,-62.078 87.1048,-61.6264"/>
<g id="a_edge8&#45;headlabel"><a xlink:href="dir_000009_000011.html" target="_top" xlink:title="7">
<text text-anchor="middle" x="84.5032" y="-55.3562" font-family="Helvetica,sans-Serif" font-size="10.00" fill="#000000">7</text>
</a>
</g>
</g>
</g>
</svg>
