<?xml version="1.0" encoding="UTF-8" standalone="no"?>
<!DOCTYPE svg PUBLIC "-//W3C//DTD SVG 1.1//EN"
 "http://www.w3.org/Graphics/SVG/1.1/DTD/svg11.dtd">
<!-- Generated by graphviz version 2.40.1 (20161225.0304)
 -->
<!-- Title: core/agent Pages: 1 -->
<svg width="291pt" height="260pt"
 viewBox="0.00 0.00 291.11 260.00" xmlns="http://www.w3.org/2000/svg" xmlns:xlink="http://www.w3.org/1999/xlink">
<g id="graph0" class="graph" transform="scale(1 1) rotate(0) translate(4 256)">
<title>core/agent</title>
<polygon fill="#ffffff" stroke="transparent" points="-4,4 -4,-256 287.1079,-256 287.1079,4 -4,4"/>
<g id="clust1" class="cluster">
<title>clusterdir_4270bfced15e0e73154b13468c7c9ad9</title>
<g id="a_clust1"><a xlink:href="dir_4270bfced15e0e73154b13468c7c9ad9.html" target="_top" xlink:title="core">
<polygon fill="#ddddee" stroke="#000000" points="190,-136 190,-207 260,-207 260,-136 190,-136"/>
<text text-anchor="middle" x="225" y="-195" font-family="Helvetica,sans-Serif" font-size="10.00" fill="#000000">core</text>
</a>
</g>
</g>
<!-- dir_38a3a31c3d1487b433ec02088da4dbcb -->
<g id="node1" class="node">
<title>dir_38a3a31c3d1487b433ec02088da4dbcb</title>
<g id="a_node1"><a xlink:href="dir_38a3a31c3d1487b433ec02088da4dbcb.html" target="_top" xlink:title="agent">
<polygon fill="#eeeeff" stroke="#000000" points="252,-180 198,-180 198,-144 252,-144 252,-180"/>
<text text-anchor="middle" x="225" y="-159.5" font-family="Helvetica,sans-Serif" font-size="10.00" fill="#000000">agent</text>
</a>
</g>
</g>
<!-- dir_459a7c9a427a2877b0db19c6b8d6e89d -->
<g id="node2" class="node">
<title>dir_459a7c9a427a2877b0db19c6b8d6e89d</title>
<g id="a_node2"><a xlink:href="dir_459a7c9a427a2877b0db19c6b8d6e89d.html" target="_top" xlink:title="util">
<polygon fill="none" stroke="#000000" points="121,-108 67,-108 67,-72 121,-72 121,-108"/>
<text text-anchor="middle" x="94" y="-87.5" font-family="Helvetica,sans-Serif" font-size="10.00" fill="#000000">util</text>
</a>
</g>
</g>
<!-- dir_38a3a31c3d1487b433ec02088da4dbcb&#45;&gt;dir_459a7c9a427a2877b0db19c6b8d6e89d -->
<g id="edge1" class="edge">
<title>dir_38a3a31c3d1487b433ec02088da4dbcb&#45;&gt;dir_459a7c9a427a2877b0db19c6b8d6e89d</title>
<path fill="none" stroke="#000000" d="M200.9902,-143.785C197.0594,-141.0591 192.9718,-138.3712 189,-136 178.3991,-129.6713 152.6372,-117.2601 130.6119,-106.9232"/>
<polygon fill="#000000" stroke="#000000" points="131.9977,-103.7075 121.4564,-102.6439 129.0336,-110.049 131.9977,-103.7075"/>
<g id="a_edge1&#45;headlabel"><a xlink:href="dir_000001_000011.html" target="_top" xlink:title="15">
<text text-anchor="middle" x="136.4564" y="-100.1574" font-family="Helvetica,sans-Serif" font-size="10.00" fill="#000000">15</text>
</a>
</g>
</g>
<!-- dir_f6c71c2e4387414fae6e0efe9f53cf5e -->
<g id="node3" class="node">
<title>dir_f6c71c2e4387414fae6e0efe9f53cf5e</title>
<g id="a_node3"><a xlink:href="dir_f6c71c2e4387414fae6e0efe9f53cf5e.html" target="_top" xlink:title="behavior">
<polygon fill="none" stroke="#000000" points="54,-180 0,-180 0,-144 54,-144 54,-180"/>
<text text-anchor="middle" x="27" y="-159.5" font-family="Helvetica,sans-Serif" font-size="10.00" fill="#000000">behavior</text>
</a>
</g>
</g>
<!-- dir_38a3a31c3d1487b433ec02088da4dbcb&#45;&gt;dir_f6c71c2e4387414fae6e0efe9f53cf5e -->
<g id="edge2" class="edge">
<title>dir_38a3a31c3d1487b433ec02088da4dbcb&#45;&gt;dir_f6c71c2e4387414fae6e0efe9f53cf5e</title>
<path fill="none" stroke="#000000" d="M213.2198,-180.216C206.8302,-189.0928 198.3365,-199.4522 189,-207 185.5222,-209.8115 184.3525,-210.4725 180,-211.5 164.8606,-215.0739 125.1394,-215.0739 110,-211.5 91.0266,-207.021 72.1776,-196.4102 57.2489,-186.1567"/>
<polygon fill="#000000" stroke="#000000" points="59.1095,-183.1843 48.9408,-180.2099 55.0352,-188.8764 59.1095,-183.1843"/>
<g id="a_edge2&#45;headlabel"><a xlink:href="dir_000001_000002.html" target="_top" xlink:title="1">
<text text-anchor="middle" x="63.6851" y="-180.4677" font-family="Helvetica,sans-Serif" font-size="10.00" fill="#000000">1</text>
</a>
</g>
</g>
<!-- dir_bc6016157ccda3b72fdae555a0f34277 -->
<g id="node4" class="node">
<title>dir_bc6016157ccda3b72fdae555a0f34277</title>
<g id="a_node4"><a xlink:href="dir_bc6016157ccda3b72fdae555a0f34277.html" target="_top" xlink:title="environment">
<polygon fill="none" stroke="#000000" points="180,-180 110,-180 110,-144 180,-144 180,-180"/>
<text text-anchor="middle" x="145" y="-159.5" font-family="Helvetica,sans-Serif" font-size="10.00" fill="#000000">environment</text>
</a>
</g>
</g>
<!-- dir_38a3a31c3d1487b433ec02088da4dbcb&#45;&gt;dir_bc6016157ccda3b72fdae555a0f34277 -->
<g id="edge3" class="edge">
<title>dir_38a3a31c3d1487b433ec02088da4dbcb&#45;&gt;dir_bc6016157ccda3b72fdae555a0f34277</title>
<path fill="none" stroke="#000000" d="M197.7686,-162C195.3138,-162 192.859,-162 190.4043,-162"/>
<polygon fill="#000000" stroke="#000000" points="190.3125,-158.5001 180.3125,-162 190.3125,-165.5001 190.3125,-158.5001"/>
<g id="a_edge3&#45;headlabel"><a xlink:href="dir_000001_000004.html" target="_top" xlink:title="1">
<text text-anchor="middle" x="193.9071" y="-153.1607" font-family="Helvetica,sans-Serif" font-size="10.00" fill="#000000">1</text>
</a>
</g>
</g>
<!-- dir_20e5e21553452583d5c4dd80dd906094 -->
<g id="node5" class="node">
<title>dir_20e5e21553452583d5c4dd80dd906094</title>
<g id="a_node5"><a xlink:href="dir_20e5e21553452583d5c4dd80dd906094.html" target="_top" xlink:title="execution_context">
<polygon fill="none" stroke="#000000" points="233,-252 137,-252 137,-216 233,-216 233,-252"/>
<text text-anchor="middle" x="185" y="-231.5" font-family="Helvetica,sans-Serif" font-size="10.00" fill="#000000">execution_context</text>
</a>
</g>
</g>
<!-- dir_38a3a31c3d1487b433ec02088da4dbcb&#45;&gt;dir_20e5e21553452583d5c4dd80dd906094 -->
<g id="edge4" class="edge">
<title>dir_38a3a31c3d1487b433ec02088da4dbcb&#45;&gt;dir_20e5e21553452583d5c4dd80dd906094</title>
<path fill="none" stroke="#000000" d="M208.7944,-180.4133C203.5942,-188.3991 198.1087,-197.9155 193.5963,-206.6975"/>
<polygon fill="#000000" stroke="#000000" points="190.3794,-205.3091 189.1413,-215.8314 196.6709,-208.3778 190.3794,-205.3091"/>
<g id="a_edge4&#45;headlabel"><a xlink:href="dir_000001_000005.html" target="_top" xlink:title="3">
<text text-anchor="middle" x="189.4032" y="-198.3336" font-family="Helvetica,sans-Serif" font-size="10.00" fill="#000000">3</text>
</a>
</g>
</g>
<!-- dir_1b63f22ff36ffa98be356425464e796a -->
<g id="node6" class="node">
<title>dir_1b63f22ff36ffa98be356425464e796a</title>
<g id="a_node6"><a xlink:href="dir_1b63f22ff36ffa98be356425464e796a.html" target="_top" xlink:title="container">
<polygon fill="none" stroke="#000000" points="234,-36 178,-36 178,0 234,0 234,-36"/>
<text text-anchor="middle" x="206" y="-15.5" font-family="Helvetica,sans-Serif" font-size="10.00" fill="#000000">container</text>
</a>
</g>
</g>
<!-- dir_38a3a31c3d1487b433ec02088da4dbcb&#45;&gt;dir_1b63f22ff36ffa98be356425464e796a -->
<g id="edge5" class="edge">
<title>dir_38a3a31c3d1487b433ec02088da4dbcb&#45;&gt;dir_1b63f22ff36ffa98be356425464e796a</title>
<path fill="none" stroke="#000000" d="M232.3207,-143.7982C238.6707,-125.4225 245.8527,-96.355 239,-72 236.3339,-62.5243 231.4919,-53.067 226.3238,-44.7759"/>
<polygon fill="#000000" stroke="#000000" points="229.1303,-42.6757 220.6752,-36.2912 223.3034,-46.5549 229.1303,-42.6757"/>
<g id="a_edge5&#45;headlabel"><a xlink:href="dir_000001_000003.html" target="_top" xlink:title="6">
<text text-anchor="middle" x="233.4857" y="-41.5945" font-family="Helvetica,sans-Serif" font-size="10.00" fill="#000000">6</text>
</a>
</g>
</g>
<!-- dir_7155ef3ffc36b95c2fce4bd5b1f8d366 -->
<g id="node7" class="node">
<title>dir_7155ef3ffc36b95c2fce4bd5b1f8d366</title>
<g id="a_node7"><a xlink:href="dir_7155ef3ffc36b95c2fce4bd5b1f8d366.html" target="_top" xlink:title="param">
<polygon fill="none" stroke="#000000" points="121,-36 67,-36 67,0 121,0 121,-36"/>
<text text-anchor="middle" x="94" y="-15.5" font-family="Helvetica,sans-Serif" font-size="10.00" fill="#000000">param</text>
</a>
</g>
</g>
<!-- dir_38a3a31c3d1487b433ec02088da4dbcb&#45;&gt;dir_7155ef3ffc36b95c2fce4bd5b1f8d366 -->
<g id="edge6" class="edge">
<title>dir_38a3a31c3d1487b433ec02088da4dbcb&#45;&gt;dir_7155ef3ffc36b95c2fce4bd5b1f8d366</title>
<path fill="none" stroke="#000000" d="M208.4088,-143.7623C185.3758,-118.4436 143.5964,-72.5182 117.4027,-43.7251"/>
<polygon fill="#000000" stroke="#000000" points="119.7748,-41.1315 110.4565,-36.0896 114.5969,-45.842 119.7748,-41.1315"/>
<g id="a_edge6&#45;headlabel"><a xlink:href="dir_000001_000009.html" target="_top" xlink:title="1">
<text text-anchor="middle" x="124.2939" y="-39.3798" font-family="Helvetica,sans-Serif" font-size="10.00" fill="#000000">1</text>
</a>
</g>
</g>
<!-- dir_459a7c9a427a2877b0db19c6b8d6e89d&#45;&gt;dir_1b63f22ff36ffa98be356425464e796a -->
<g id="edge7" class="edge">
<title>dir_459a7c9a427a2877b0db19c6b8d6e89d&#45;&gt;dir_1b63f22ff36ffa98be356425464e796a</title>
<path fill="none" stroke="#000000" d="M116.3099,-71.8314C131.4141,-61.4726 151.5757,-48.4786 169.0125,-37.8523"/>
<polygon fill="#000000" stroke="#000000" points="171.0788,-40.6938 177.8412,-32.5378 167.4686,-34.6965 171.0788,-40.6938"/>
<g id="a_edge7&#45;headlabel"><a xlink:href="dir_000011_000003.html" target="_top" xlink:title="4">
<text text-anchor="middle" x="169.4634" y="-42.4801" font-family="Helvetica,sans-Serif" font-size="10.00" fill="#000000">4</text>
</a>
</g>
</g>
<!-- dir_459a7c9a427a2877b0db19c6b8d6e89d&#45;&gt;dir_7155ef3ffc36b95c2fce4bd5b1f8d366 -->
<g id="edge8" class="edge">
<title>dir_459a7c9a427a2877b0db19c6b8d6e89d&#45;&gt;dir_7155ef3ffc36b95c2fce4bd5b1f8d366</title>
<path fill="none" stroke="#000000" d="M88.0476,-71.8314C87.2972,-64.131 87.0763,-54.9743 87.3849,-46.4166"/>
<polygon fill="#000000" stroke="#000000" points="90.8792,-46.6161 88.024,-36.4133 83.8935,-46.1697 90.8792,-46.6161"/>
<g id="a_edge8&#45;headlabel"><a xlink:href="dir_000011_000009.html" target="_top" xlink:title="1">
<text text-anchor="middle" x="93.4836" y="-47.8844" font-family="Helvetica,sans-Serif" font-size="10.00" fill="#000000">1</text>
</a>
</g>
</g>
<!-- dir_f6c71c2e4387414fae6e0efe9f53cf5e&#45;&gt;dir_38a3a31c3d1487b433ec02088da4dbcb -->
<g id="edge9" class="edge">
<title>dir_f6c71c2e4387414fae6e0efe9f53cf5e&#45;&gt;dir_38a3a31c3d1487b433ec02088da4dbcb</title>
<path fill="none" stroke="#000000" d="M48.9408,-180.2099C64.7837,-192.009 87.3028,-206.1419 110,-211.5 125.1394,-215.0739 164.8606,-215.0739 180,-211.5 184.3525,-210.4725 185.5222,-209.8115 189,-207 195.5648,-201.6929 201.7128,-194.9959 207.0057,-188.4015"/>
<polygon fill="#000000" stroke="#000000" points="209.9609,-190.2973 213.2198,-180.216 204.3855,-186.0646 209.9609,-190.2973"/>
<g id="a_edge9&#45;headlabel"><a xlink:href="dir_000002_000001.html" target="_top" xlink:title="6">
<text text-anchor="middle" x="210.0489" y="-192.3771" font-family="Helvetica,sans-Serif" font-size="10.00" fill="#000000">6</text>
</a>
</g>
</g>
<!-- dir_f6c71c2e4387414fae6e0efe9f53cf5e&#45;&gt;dir_459a7c9a427a2877b0db19c6b8d6e89d -->
<g id="edge10" class="edge">
<title>dir_f6c71c2e4387414fae6e0efe9f53cf5e&#45;&gt;dir_459a7c9a427a2877b0db19c6b8d6e89d</title>
<path fill="none" stroke="#000000" d="M43.9069,-143.8314C51.7813,-135.3694 61.292,-125.1489 69.9013,-115.8971"/>
<polygon fill="#000000" stroke="#000000" points="72.6153,-118.1183 76.8654,-108.4133 67.4908,-113.3497 72.6153,-118.1183"/>
<g id="a_edge10&#45;headlabel"><a xlink:href="dir_000002_000011.html" target="_top" xlink:title="4">
<text text-anchor="middle" x="72.2451" y="-120.184" font-family="Helvetica,sans-Serif" font-size="10.00" fill="#000000">4</text>
</a>
</g>
</g>
<!-- dir_f6c71c2e4387414fae6e0efe9f53cf5e&#45;&gt;dir_7155ef3ffc36b95c2fce4bd5b1f8d366 -->
<g id="edge11" class="edge">
<title>dir_f6c71c2e4387414fae6e0efe9f53cf5e&#45;&gt;dir_7155ef3ffc36b95c2fce4bd5b1f8d366</title>
<path fill="none" stroke="#000000" d="M29.2686,-143.9441C32.1525,-125.1729 38.2389,-95.329 50,-72 55.0331,-62.0165 62.1696,-52.201 69.2337,-43.7342"/>
<polygon fill="#000000" stroke="#000000" points="71.9827,-45.9071 75.9134,-36.0684 66.7051,-41.3085 71.9827,-45.9071"/>
<g id="a_edge11&#45;headlabel"><a xlink:href="dir_000002_000009.html" target="_top" xlink:title="1">
<text text-anchor="middle" x="71.7618" y="-47.9825" font-family="Helvetica,sans-Serif" font-size="10.00" fill="#000000">1</text>
</a>
</g>
</g>
<!-- dir_bc6016157ccda3b72fdae555a0f34277&#45;&gt;dir_38a3a31c3d1487b433ec02088da4dbcb -->
<g id="edge12" class="edge">
<title>dir_bc6016157ccda3b72fdae555a0f34277&#45;&gt;dir_38a3a31c3d1487b433ec02088da4dbcb</title>
<path fill="none" stroke="#000000" d="M180.3125,-162C182.7673,-162 185.222,-162 187.6768,-162"/>
<polygon fill="#000000" stroke="#000000" points="187.7686,-165.5001 197.7686,-162 187.7685,-158.5001 187.7686,-165.5001"/>
<g id="a_edge12&#45;headlabel"><a xlink:href="dir_000004_000001.html" target="_top" xlink:title="1">
<text text-anchor="middle" x="184.1739" y="-165.8393" font-family="Helvetica,sans-Serif" font-size="10.00" fill="#000000">1</text>
</a>
</g>
</g>
<!-- dir_bc6016157ccda3b72fdae555a0f34277&#45;&gt;dir_459a7c9a427a2877b0db19c6b8d6e89d -->
<g id="edge13" class="edge">
<title>dir_bc6016157ccda3b72fdae555a0f34277&#45;&gt;dir_459a7c9a427a2877b0db19c6b8d6e89d</title>
<path fill="none" stroke="#000000" d="M132.1305,-143.8314C126.3165,-135.6232 119.3304,-125.7606 112.9354,-116.7323"/>
<polygon fill="#000000" stroke="#000000" points="115.679,-114.5505 107.0427,-108.4133 109.9669,-118.5966 115.679,-114.5505"/>
<g id="a_edge13&#45;headlabel"><a xlink:href="dir_000004_000011.html" target="_top" xlink:title="2">
<text text-anchor="middle" x="120.0737" y="-113.3426" font-family="Helvetica,sans-Serif" font-size="10.00" fill="#000000">2</text>
</a>
</g>
</g>
<!-- dir_bc6016157ccda3b72fdae555a0f34277&#45;&gt;dir_1b63f22ff36ffa98be356425464e796a -->
<g id="edge14" class="edge">
<title>dir_bc6016157ccda3b72fdae555a0f34277&#45;&gt;dir_1b63f22ff36ffa98be356425464e796a</title>
<path fill="none" stroke="#000000" d="M152.7257,-143.7623C163.2218,-118.9846 182.0781,-74.4714 194.3109,-45.5939"/>
<polygon fill="#000000" stroke="#000000" points="197.6592,-46.6628 198.337,-36.0896 191.2136,-43.9323 197.6592,-46.6628"/>
<g id="a_edge14&#45;headlabel"><a xlink:href="dir_000004_000003.html" target="_top" xlink:title="6">
<text text-anchor="middle" x="198.8715" y="-48.5801" font-family="Helvetica,sans-Serif" font-size="10.00" fill="#000000">6</text>
</a>
</g>
</g>
<!-- dir_bc6016157ccda3b72fdae555a0f34277&#45;&gt;dir_7155ef3ffc36b95c2fce4bd5b1f8d366 -->
<g id="edge15" class="edge">
<title>dir_bc6016157ccda3b72fdae555a0f34277&#45;&gt;dir_7155ef3ffc36b95c2fce4bd5b1f8d366</title>
<path fill="none" stroke="#000000" d="M109.7963,-149.9138C90.8117,-141.3851 69.0617,-127.8851 58,-108 46.681,-87.6524 58.1129,-63.0098 71.0097,-44.6585"/>
<polygon fill="#000000" stroke="#000000" points="74.1555,-46.2983 77.3653,-36.2014 68.5595,-42.0929 74.1555,-46.2983"/>
<g id="a_edge15&#45;headlabel"><a xlink:href="dir_000004_000009.html" target="_top" xlink:title="1">
<text text-anchor="middle" x="74.2657" y="-48.3777" font-family="Helvetica,sans-Serif" font-size="10.00" fill="#000000">1</text>
</a>
</g>
</g>
<!-- dir_20e5e21553452583d5c4dd80dd906094&#45;&gt;dir_38a3a31c3d1487b433ec02088da4dbcb -->
<g id="edge16" class="edge">
<title>dir_20e5e21553452583d5c4dd80dd906094&#45;&gt;dir_38a3a31c3d1487b433ec02088da4dbcb</title>
<path fill="none" stroke="#000000" d="M201.0461,-215.8314C206.2403,-207.8771 211.7327,-198.369 216.2649,-189.5723"/>
<polygon fill="#000000" stroke="#000000" points="219.4951,-190.934 220.7464,-180.4133 213.2074,-187.8574 219.4951,-190.934"/>
<g id="a_edge16&#45;headlabel"><a xlink:href="dir_000005_000001.html" target="_top" xlink:title="2">
<text text-anchor="middle" x="220.4656" y="-192.9106" font-family="Helvetica,sans-Serif" font-size="10.00" fill="#000000">2</text>
</a>
</g>
</g>
<!-- dir_20e5e21553452583d5c4dd80dd906094&#45;&gt;dir_459a7c9a427a2877b0db19c6b8d6e89d -->
<g id="edge17" class="edge">
<title>dir_20e5e21553452583d5c4dd80dd906094&#45;&gt;dir_459a7c9a427a2877b0db19c6b8d6e89d</title>
<path fill="none" stroke="#000000" d="M136.9465,-223.5327C120.9462,-219.0382 105.9293,-213.3542 101,-207 81.5968,-181.9878 83.1906,-144.1691 87.4275,-118.3449"/>
<polygon fill="#000000" stroke="#000000" points="90.8859,-118.8914 89.2813,-108.4188 84.0049,-117.6063 90.8859,-118.8914"/>
<g id="a_edge17&#45;headlabel"><a xlink:href="dir_000005_000011.html" target="_top" xlink:title="2">
<text text-anchor="middle" x="93.0171" y="-120.4462" font-family="Helvetica,sans-Serif" font-size="10.00" fill="#000000">2</text>
</a>
</g>
</g>
<!-- dir_20e5e21553452583d5c4dd80dd906094&#45;&gt;dir_bc6016157ccda3b72fdae555a0f34277 -->
<g id="edge18" class="edge">
<title>dir_20e5e21553452583d5c4dd80dd906094&#45;&gt;dir_bc6016157ccda3b72fdae555a0f34277</title>
<path fill="none" stroke="#000000" d="M174.9063,-215.8314C170.4403,-207.7925 165.0925,-198.1666 160.1621,-189.2918"/>
<polygon fill="#000000" stroke="#000000" points="163.1456,-187.4551 155.2296,-180.4133 157.0265,-190.8546 163.1456,-187.4551"/>
<g id="a_edge18&#45;headlabel"><a xlink:href="dir_000005_000004.html" target="_top" xlink:title="1">
<text text-anchor="middle" x="167.3732" y="-186.7185" font-family="Helvetica,sans-Serif" font-size="10.00" fill="#000000">1</text>
</a>
</g>
</g>
<!-- dir_20e5e21553452583d5c4dd80dd906094&#45;&gt;dir_1b63f22ff36ffa98be356425464e796a -->
<g id="edge19" class="edge">
<title>dir_20e5e21553452583d5c4dd80dd906094&#45;&gt;dir_1b63f22ff36ffa98be356425464e796a</title>
<path fill="none" stroke="#000000" d="M233.4119,-222.4428C247.3239,-218.088 259.8692,-212.7773 264,-207 298.9936,-158.0592 279.671,-126.4128 254,-72 249.0829,-61.5775 241.5127,-51.6808 233.8272,-43.2749"/>
<polygon fill="#000000" stroke="#000000" points="236.2718,-40.7679 226.8094,-36.0021 231.2345,-45.6285 236.2718,-40.7679"/>
<g id="a_edge19&#45;headlabel"><a xlink:href="dir_000005_000003.html" target="_top" xlink:title="1">
<text text-anchor="middle" x="240.8109" y="-38.8831" font-family="Helvetica,sans-Serif" font-size="10.00" fill="#000000">1</text>
</a>
</g>
</g>
<!-- dir_1b63f22ff36ffa98be356425464e796a&#45;&gt;dir_38a3a31c3d1487b433ec02088da4dbcb -->
<g id="edge20" class="edge">
<title>dir_1b63f22ff36ffa98be356425464e796a&#45;&gt;dir_38a3a31c3d1487b433ec02088da4dbcb</title>
<path fill="none" stroke="#000000" d="M208.3868,-36.0896C211.6172,-60.5727 217.4155,-104.5174 221.2358,-133.4713"/>
<polygon fill="#000000" stroke="#000000" points="217.8155,-134.3061 222.5936,-143.7623 224.7554,-133.3904 217.8155,-134.3061"/>
<g id="a_edge20&#45;headlabel"><a xlink:href="dir_000003_000001.html" target="_top" xlink:title="1">
<text text-anchor="middle" x="214.5305" y="-128.6137" font-family="Helvetica,sans-Serif" font-size="10.00" fill="#000000">1</text>
</a>
</g>
</g>
<!-- dir_1b63f22ff36ffa98be356425464e796a&#45;&gt;dir_459a7c9a427a2877b0db19c6b8d6e89d -->
<g id="edge21" class="edge">
<title>dir_1b63f22ff36ffa98be356425464e796a&#45;&gt;dir_459a7c9a427a2877b0db19c6b8d6e89d</title>
<path fill="none" stroke="#000000" d="M183.6392,-36.2035C168.2444,-46.7597 147.6126,-60.0435 129.9655,-70.7697"/>
<polygon fill="#000000" stroke="#000000" points="127.8267,-67.9713 121.0527,-76.1177 131.4284,-73.9736 127.8267,-67.9713"/>
<g id="a_edge21&#45;headlabel"><a xlink:href="dir_000003_000011.html" target="_top" xlink:title="6">
<text text-anchor="middle" x="129.4482" y="-61.1872" font-family="Helvetica,sans-Serif" font-size="10.00" fill="#000000">6</text>
</a>
</g>
</g>
<!-- dir_7155ef3ffc36b95c2fce4bd5b1f8d366&#45;&gt;dir_459a7c9a427a2877b0db19c6b8d6e89d -->
<g id="edge22" class="edge">
<title>dir_7155ef3ffc36b95c2fce4bd5b1f8d366&#45;&gt;dir_459a7c9a427a2877b0db19c6b8d6e89d</title>
<path fill="none" stroke="#000000" d="M99.976,-36.4133C100.7071,-44.0593 100.9203,-53.1084 100.6155,-61.5726"/>
<polygon fill="#000000" stroke="#000000" points="97.1048,-61.6264 99.9524,-71.8314 104.0902,-62.078 97.1048,-61.6264"/>
<g id="a_edge22&#45;headlabel"><a xlink:href="dir_000009_000011.html" target="_top" xlink:title="7">
<text text-anchor="middle" x="94.5032" y="-55.3562" font-family="Helvetica,sans-Serif" font-size="10.00" fill="#000000">7</text>
</a>
</g>
</g>
</g>
</svg>
