<?xml version="1.0" encoding="UTF-8" standalone="no"?>
<!DOCTYPE svg PUBLIC "-//W3C//DTD SVG 1.1//EN"
 "http://www.w3.org/Graphics/SVG/1.1/DTD/svg11.dtd">
<!-- Generated by graphviz version 2.36.0 (20140111.2315)
 -->
<!-- Title: core/operation/displacement_op.h Pages: 1 -->
<svg width="225pt" height="196pt"
 viewBox="0.00 0.00 225.00 196.00" xmlns="http://www.w3.org/2000/svg" xmlns:xlink="http://www.w3.org/1999/xlink">
<g id="graph0" class="graph" transform="scale(1 1) rotate(0) translate(4 192)">
<title>core/operation/displacement_op.h</title>
<polygon fill="white" stroke="none" points="-4,4 -4,-192 221,-192 221,4 -4,4"/>
<!-- Node1 -->
<g id="node1" class="node"><title>Node1</title>
<polygon fill="#bfbfbf" stroke="black" points="-0.5,-168.5 -0.5,-187.5 162.5,-187.5 162.5,-168.5 -0.5,-168.5"/>
<text text-anchor="middle" x="81" y="-175.5" font-family="Helvetica,sans-Serif" font-size="10.00">core/operation/displacement_op.h</text>
</g>
<!-- Node2 -->
<g id="node2" class="node"><title>Node2</title>
<g id="a_node2"><a xlink:href="scheduler_8h.html" target="_top" xlink:title="core/scheduler.h">
<polygon fill="white" stroke="black" points="36.5,-112.5 36.5,-131.5 125.5,-131.5 125.5,-112.5 36.5,-112.5"/>
<text text-anchor="middle" x="81" y="-119.5" font-family="Helvetica,sans-Serif" font-size="10.00">core/scheduler.h</text>
</a>
</g>
</g>
<!-- Node1&#45;&gt;Node2 -->
<g id="edge1" class="edge"><title>Node1&#45;&gt;Node2</title>
<path fill="none" stroke="midnightblue" d="M81,-157.805C81,-148.91 81,-138.78 81,-131.751"/>
<polygon fill="midnightblue" stroke="midnightblue" points="77.5001,-158.083 81,-168.083 84.5001,-158.083 77.5001,-158.083"/>
</g>
<!-- Node3 -->
<g id="node3" class="node"><title>Node3</title>
<g id="a_node3"><a xlink:href="biodynamo_8h.html" target="_top" xlink:title="biodynamo.h">
<polygon fill="white" stroke="black" points="45,-0.5 45,-19.5 117,-19.5 117,-0.5 45,-0.5"/>
<text text-anchor="middle" x="81" y="-7.5" font-family="Helvetica,sans-Serif" font-size="10.00">biodynamo.h</text>
</a>
</g>
</g>
<!-- Node2&#45;&gt;Node3 -->
<g id="edge2" class="edge"><title>Node2&#45;&gt;Node3</title>
<path fill="none" stroke="midnightblue" d="M64.349,-105.043C57.2332,-97.0784 49.719,-86.839 46,-76 38.6793,-54.6636 57.9675,-31.9421 70.7376,-19.8248"/>
<polygon fill="midnightblue" stroke="midnightblue" points="61.9993,-107.65 71.4444,-112.45 67.0542,-102.808 61.9993,-107.65"/>
</g>
<!-- Node4 -->
<g id="node4" class="node"><title>Node4</title>
<g id="a_node4"><a xlink:href="simulation__implementation_8h.html" target="_top" xlink:title="core/simulation_implementation.h">
<polygon fill="white" stroke="black" points="55,-56.5 55,-75.5 217,-75.5 217,-56.5 55,-56.5"/>
<text text-anchor="middle" x="136" y="-63.5" font-family="Helvetica,sans-Serif" font-size="10.00">core/simulation_implementation.h</text>
</a>
</g>
</g>
<!-- Node2&#45;&gt;Node4 -->
<g id="edge3" class="edge"><title>Node2&#45;&gt;Node4</title>
<path fill="none" stroke="midnightblue" d="M97.2938,-105.002C107.041,-95.4329 119.053,-83.6389 127.087,-75.7511"/>
<polygon fill="midnightblue" stroke="midnightblue" points="94.7657,-102.58 90.0821,-112.083 99.6699,-107.575 94.7657,-102.58"/>
</g>
<!-- Node4&#45;&gt;Node3 -->
<g id="edge4" class="edge"><title>Node4&#45;&gt;Node3</title>
<path fill="none" stroke="midnightblue" d="M119.706,-49.0024C109.959,-39.4329 97.947,-27.6389 89.9131,-19.7511"/>
<polygon fill="midnightblue" stroke="midnightblue" points="117.33,-51.5746 126.918,-56.083 122.234,-46.5796 117.33,-51.5746"/>
</g>
</g>
</svg>
