<?xml version="1.0" encoding="UTF-8" standalone="no"?>
<!DOCTYPE svg PUBLIC "-//W3C//DTD SVG 1.1//EN"
 "http://www.w3.org/Graphics/SVG/1.1/DTD/svg11.dtd">
<!-- Generated by graphviz version 2.40.1 (20161225.0304)
 -->
<!-- Title: core/operation/displacement_op_cuda.h Pages: 1 -->
<svg width="3307pt" height="609pt"
 viewBox="0.00 0.00 3307.00 609.00" xmlns="http://www.w3.org/2000/svg" xmlns:xlink="http://www.w3.org/1999/xlink">
<g id="graph0" class="graph" transform="scale(1 1) rotate(0) translate(4 605)">
<title>core/operation/displacement_op_cuda.h</title>
<polygon fill="#ffffff" stroke="transparent" points="-4,4 -4,-605 3303,-605 3303,4 -4,4"/>
<!-- Node0 -->
<g id="node1" class="node">
<title>Node0</title>
<polygon fill="#bfbfbf" stroke="#000000" points="2018.5,-570.5 2018.5,-600.5 2157.5,-600.5 2157.5,-570.5 2018.5,-570.5"/>
<text text-anchor="start" x="2026.5" y="-588.5" font-family="Helvetica,sans-Serif" font-size="10.00" fill="#000000">core/operation/displacement</text>
<text text-anchor="middle" x="2088" y="-577.5" font-family="Helvetica,sans-Serif" font-size="10.00" fill="#000000">_op_cuda.h</text>
</g>
<!-- Node1 -->
<g id="node2" class="node">
<title>Node1</title>
<polygon fill="#ffffff" stroke="#bfbfbf" points="2281,-112.5 2281,-131.5 2325,-131.5 2325,-112.5 2281,-112.5"/>
<text text-anchor="middle" x="2303" y="-119.5" font-family="Helvetica,sans-Serif" font-size="10.00" fill="#000000">vector</text>
</g>
<!-- Node0&#45;&gt;Node1 -->
<g id="edge1" class="edge">
<title>Node0&#45;&gt;Node1</title>
<path fill="none" stroke="#191970" d="M2157.6618,-582.8669C2374.8138,-573.7425 3025,-539.1077 3025,-451.5 3025,-451.5 3025,-451.5 3025,-384.5 3025,-292.5534 2961.5707,-281.0725 2882,-235 2813.861,-195.5465 2794.3063,-187.4126 2718,-168 2578.6765,-132.5557 2406.1599,-124.4214 2335.4917,-122.5553"/>
<polygon fill="#191970" stroke="#191970" points="2335.5129,-119.0549 2325.432,-122.3146 2335.3454,-126.0529 2335.5129,-119.0549"/>
</g>
<!-- Node2 -->
<g id="node3" class="node">
<title>Node2</title>
<g id="a_node3"><a xlink:href="agent__handle_8h.html" target="_top" xlink:title="core/agent/agent_handle.h">
<polygon fill="#ffffff" stroke="#000000" points="737.5,-174 737.5,-193 868.5,-193 868.5,-174 737.5,-174"/>
<text text-anchor="middle" x="803" y="-181" font-family="Helvetica,sans-Serif" font-size="10.00" fill="#000000">core/agent/agent_handle.h</text>
</a>
</g>
</g>
<!-- Node0&#45;&gt;Node2 -->
<g id="edge2" class="edge">
<title>Node0&#45;&gt;Node2</title>
<path fill="none" stroke="#191970" d="M2018.4072,-584.9668C1675.9959,-582.1817 185.2152,-568.1105 152,-534 121.6138,-502.7948 129.6923,-473.4092 152,-436 216.1658,-328.3963 284.1573,-349.7103 400,-302 433.8255,-288.0688 662.1981,-223.1788 759.3717,-195.7698"/>
<polygon fill="#191970" stroke="#191970" points="760.5058,-199.0866 769.181,-193.0046 758.6064,-192.3492 760.5058,-199.0866"/>
</g>
<!-- Node6 -->
<g id="node6" class="node">
<title>Node6</title>
<g id="a_node6"><a xlink:href="log_8h.html" target="_top" xlink:title="core/util/log.h">
<polygon fill="#ffffff" stroke="#ff0000" points="1697.5,-56.5 1697.5,-75.5 1772.5,-75.5 1772.5,-56.5 1697.5,-56.5"/>
<text text-anchor="middle" x="1735" y="-63.5" font-family="Helvetica,sans-Serif" font-size="10.00" fill="#000000">core/util/log.h</text>
</a>
</g>
</g>
<!-- Node0&#45;&gt;Node6 -->
<g id="edge157" class="edge">
<title>Node0&#45;&gt;Node6</title>
<path fill="none" stroke="#191970" d="M2157.5835,-583.3513C2323.8169,-577.8323 2740.3477,-561.6195 2877,-534 2986.7337,-511.8212 3115,-563.4526 3115,-451.5 3115,-451.5 3115,-451.5 3115,-384.5 3115,-220.442 3024.0542,-155.976 2866,-112 2760.7374,-82.7124 1984.8019,-69.5949 1782.9069,-66.6558"/>
<polygon fill="#191970" stroke="#191970" points="1782.6774,-63.1522 1772.6281,-66.5078 1782.5766,-70.1515 1782.6774,-63.1522"/>
</g>
<!-- Node15 -->
<g id="node9" class="node">
<title>Node15</title>
<g id="a_node9"><a xlink:href="cell_8h.html" target="_top" xlink:title="core/agent/cell.h">
<polygon fill="#ffffff" stroke="#000000" points="735.5,-375 735.5,-394 824.5,-394 824.5,-375 735.5,-375"/>
<text text-anchor="middle" x="780" y="-382" font-family="Helvetica,sans-Serif" font-size="10.00" fill="#000000">core/agent/cell.h</text>
</a>
</g>
</g>
<!-- Node0&#45;&gt;Node15 -->
<g id="edge8" class="edge">
<title>Node0&#45;&gt;Node15</title>
<path fill="none" stroke="#191970" d="M2018.4278,-584.9431C1678.6662,-582.062 208.771,-567.6656 176,-534 145.619,-502.7897 146.5389,-468.08 176,-436 212.764,-395.968 583.5042,-387.0085 725.2736,-385.0411"/>
<polygon fill="#191970" stroke="#191970" points="725.5252,-388.5382 735.478,-384.9062 725.4326,-381.5388 725.5252,-388.5382"/>
</g>
<!-- Node61 -->
<g id="node24" class="node">
<title>Node61</title>
<g id="a_node24"><a xlink:href="shape_8h.html" target="_top" xlink:title="core/shape.h">
<polygon fill="#ffffff" stroke="#000000" points="300.5,-174 300.5,-193 373.5,-193 373.5,-174 300.5,-174"/>
<text text-anchor="middle" x="337" y="-181" font-family="Helvetica,sans-Serif" font-size="10.00" fill="#000000">core/shape.h</text>
</a>
</g>
</g>
<!-- Node0&#45;&gt;Node61 -->
<g id="edge155" class="edge">
<title>Node0&#45;&gt;Node61</title>
<path fill="none" stroke="#191970" d="M2018.4384,-584.9894C1673.6002,-582.2964 162.6427,-568.5388 129,-534 27.1352,-429.4221 162.7682,-339.2192 265,-235 278.9032,-220.8265 297.1098,-207.843 311.7358,-198.4579"/>
<polygon fill="#191970" stroke="#191970" points="313.6834,-201.3681 320.3094,-193.1008 309.9741,-195.4316 313.6834,-201.3681"/>
</g>
<!-- Node63 -->
<g id="node27" class="node">
<title>Node63</title>
<g id="a_node27"><a xlink:href="type_8h.html" target="_top" xlink:title="core/util/type.h">
<polygon fill="#ffffff" stroke="#ff0000" points="1229.5,-241 1229.5,-260 1310.5,-260 1310.5,-241 1229.5,-241"/>
<text text-anchor="middle" x="1270" y="-248" font-family="Helvetica,sans-Serif" font-size="10.00" fill="#000000">core/util/type.h</text>
</a>
</g>
</g>
<!-- Node0&#45;&gt;Node63 -->
<g id="edge159" class="edge">
<title>Node0&#45;&gt;Node63</title>
<path fill="none" stroke="#191970" d="M2018.3817,-583.0097C1797.4831,-574.3647 1123.3543,-541.9862 1064,-467 1055.449,-456.1969 1058.3964,-448.5868 1064,-436 1074.0613,-413.4005 1200.8403,-307.4468 1250.3642,-266.6077"/>
<polygon fill="#191970" stroke="#191970" points="1252.6494,-269.26 1258.1461,-260.2025 1248.2008,-263.8553 1252.6494,-269.26"/>
</g>
<!-- Node37 -->
<g id="node32" class="node">
<title>Node37</title>
<g id="a_node32"><a xlink:href="thread__info_8h.html" target="_top" xlink:title="core/util/thread_info.h">
<polygon fill="#ffffff" stroke="#ff0000" points="1673,-241 1673,-260 1783,-260 1783,-241 1673,-241"/>
<text text-anchor="middle" x="1728" y="-248" font-family="Helvetica,sans-Serif" font-size="10.00" fill="#000000">core/util/thread_info.h</text>
</a>
</g>
</g>
<!-- Node0&#45;&gt;Node37 -->
<g id="edge158" class="edge">
<title>Node0&#45;&gt;Node37</title>
<path fill="none" stroke="#191970" d="M2082.4222,-570.3887C2070.5964,-540.3919 2040.1625,-473.0355 1993,-436 1880.8033,-347.8949 1772.1269,-448.9333 1689,-333 1674.0295,-312.1213 1693.6745,-284.5898 1710.0875,-267.2118"/>
<polygon fill="#191970" stroke="#191970" points="1712.6902,-269.5583 1717.2652,-260.0021 1707.7294,-264.6195 1712.6902,-269.5583"/>
</g>
<!-- Node72 -->
<g id="node36" class="node">
<title>Node72</title>
<g id="a_node36"><a xlink:href="environment_8h.html" target="_top" xlink:title="core/environment/environment.h">
<polygon fill="#ffffff" stroke="#000000" points="1073,-442 1073,-461 1229,-461 1229,-442 1073,-442"/>
<text text-anchor="middle" x="1151" y="-449" font-family="Helvetica,sans-Serif" font-size="10.00" fill="#000000">core/environment/environment.h</text>
</a>
</g>
</g>
<!-- Node0&#45;&gt;Node72 -->
<g id="edge87" class="edge">
<title>Node0&#45;&gt;Node72</title>
<path fill="none" stroke="#191970" d="M2018.202,-582.8038C1906.9172,-577.7511 1682.6844,-564.4819 1495,-534 1385.0929,-516.1499 1258.3243,-482.2046 1193.7016,-463.9143"/>
<polygon fill="#191970" stroke="#191970" points="1194.4519,-460.4889 1183.8758,-461.1181 1192.5359,-467.2216 1194.4519,-460.4889"/>
</g>
<!-- Node73 -->
<g id="node37" class="node">
<title>Node73</title>
<g id="a_node37"><a xlink:href="resource__manager_8h.html" target="_top" xlink:title="core/resource_manager.h">
<polygon fill="#ffffff" stroke="#ff0000" points="2005.5,-375 2005.5,-394 2132.5,-394 2132.5,-375 2005.5,-375"/>
<text text-anchor="middle" x="2069" y="-382" font-family="Helvetica,sans-Serif" font-size="10.00" fill="#000000">core/resource_manager.h</text>
</a>
</g>
</g>
<!-- Node0&#45;&gt;Node73 -->
<g id="edge154" class="edge">
<title>Node0&#45;&gt;Node73</title>
<path fill="none" stroke="#191970" d="M2086.5719,-570.3923C2083.1871,-534.5844 2074.6768,-444.5545 2070.8798,-404.386"/>
<polygon fill="#191970" stroke="#191970" points="2074.3479,-403.8824 2069.9222,-394.2562 2067.3789,-404.5412 2074.3479,-403.8824"/>
</g>
<!-- Node41 -->
<g id="node38" class="node">
<title>Node41</title>
<g id="a_node38"><a xlink:href="simulation_8h.html" target="_top" xlink:title="core/simulation.h">
<polygon fill="#ffffff" stroke="#ff0000" points="2689.5,-308 2689.5,-327 2780.5,-327 2780.5,-308 2689.5,-308"/>
<text text-anchor="middle" x="2735" y="-315" font-family="Helvetica,sans-Serif" font-size="10.00" fill="#000000">core/simulation.h</text>
</a>
</g>
</g>
<!-- Node0&#45;&gt;Node41 -->
<g id="edge156" class="edge">
<title>Node0&#45;&gt;Node41</title>
<path fill="none" stroke="#191970" d="M2157.5038,-583.0924C2247.0898,-578.7408 2407.1372,-566.7212 2540,-534 2620.0615,-514.2826 2637.7505,-500.7065 2713,-467 2772.6815,-440.2669 2809.8736,-455.7847 2844,-400 2851.1899,-388.247 2851.3734,-380.6387 2844,-369 2831.9616,-349.9977 2810.8188,-337.8735 2790.3382,-330.2016"/>
<polygon fill="#191970" stroke="#191970" points="2791.291,-326.828 2780.6963,-326.8819 2789.0122,-333.4467 2791.291,-326.828"/>
</g>
<!-- Node82 -->
<g id="node39" class="node">
<title>Node82</title>
<g id="a_node39"><a xlink:href="uniform__grid__environment_8h.html" target="_top" xlink:title="core/environment/uniform\l_grid_environment.h">
<polygon fill="#ffffff" stroke="#000000" points="1503.5,-503.5 1503.5,-533.5 1630.5,-533.5 1630.5,-503.5 1503.5,-503.5"/>
<text text-anchor="start" x="1511.5" y="-521.5" font-family="Helvetica,sans-Serif" font-size="10.00" fill="#000000">core/environment/uniform</text>
<text text-anchor="middle" x="1567" y="-510.5" font-family="Helvetica,sans-Serif" font-size="10.00" fill="#000000">_grid_environment.h</text>
</a>
</g>
</g>
<!-- Node0&#45;&gt;Node82 -->
<g id="edge112" class="edge">
<title>Node0&#45;&gt;Node82</title>
<path fill="none" stroke="#191970" d="M2018.2762,-576.5336C1919.893,-563.8816 1741.1453,-540.8949 1640.6658,-527.9733"/>
<polygon fill="#191970" stroke="#191970" points="1640.9615,-524.4826 1630.5967,-526.6785 1640.0686,-531.4254 1640.9615,-524.4826"/>
</g>
<!-- Node86 -->
<g id="node45" class="node">
<title>Node86</title>
<g id="a_node45"><a xlink:href="displacement__op__cuda__kernel_8h.html" target="_top" xlink:title="core/gpu/displacement\l_op_cuda_kernel.h">
<polygon fill="#ffffff" stroke="#000000" points="3143.5,-302.5 3143.5,-332.5 3258.5,-332.5 3258.5,-302.5 3143.5,-302.5"/>
<text text-anchor="start" x="3151.5" y="-320.5" font-family="Helvetica,sans-Serif" font-size="10.00" fill="#000000">core/gpu/displacement</text>
<text text-anchor="middle" x="3201" y="-309.5" font-family="Helvetica,sans-Serif" font-size="10.00" fill="#000000">_op_cuda_kernel.h</text>
</a>
</g>
</g>
<!-- Node0&#45;&gt;Node86 -->
<g id="edge142" class="edge">
<title>Node0&#45;&gt;Node86</title>
<path fill="none" stroke="#191970" d="M2157.7579,-584.2001C2384.8067,-579.6897 3090.3415,-563.3631 3129,-534 3189.5949,-487.9751 3199.7923,-389.1157 3201.1077,-342.6306"/>
<polygon fill="#191970" stroke="#191970" points="3204.6091,-342.5709 3201.2742,-332.5147 3197.61,-342.4557 3204.6091,-342.5709"/>
</g>
<!-- Node89 -->
<g id="node48" class="node">
<title>Node89</title>
<g id="a_node48"><a xlink:href="bound__space__op_8h.html" target="_top" xlink:title="core/operation/bound\l_space_op.h">
<polygon fill="#ffffff" stroke="#000000" points="2727.5,-369.5 2727.5,-399.5 2834.5,-399.5 2834.5,-369.5 2727.5,-369.5"/>
<text text-anchor="start" x="2735.5" y="-387.5" font-family="Helvetica,sans-Serif" font-size="10.00" fill="#000000">core/operation/bound</text>
<text text-anchor="middle" x="2781" y="-376.5" font-family="Helvetica,sans-Serif" font-size="10.00" fill="#000000">_space_op.h</text>
</a>
</g>
</g>
<!-- Node0&#45;&gt;Node89 -->
<g id="edge146" class="edge">
<title>Node0&#45;&gt;Node89</title>
<path fill="none" stroke="#191970" d="M2157.6134,-581.7583C2270.8698,-573.4571 2499.9594,-547.3373 2675,-467 2707.3689,-452.1438 2738.8433,-425.6505 2758.9698,-406.6928"/>
<polygon fill="#191970" stroke="#191970" points="2761.5779,-409.0405 2766.3604,-399.5864 2756.7261,-403.9946 2761.5779,-409.0405"/>
</g>
<!-- Node90 -->
<g id="node49" class="node">
<title>Node90</title>
<g id="a_node49"><a xlink:href="operation__registry_8h.html" target="_top" xlink:title="core/operation/operation\l_registry.h">
<polygon fill="#ffffff" stroke="#ff0000" points="2837.5,-302.5 2837.5,-332.5 2958.5,-332.5 2958.5,-302.5 2837.5,-302.5"/>
<text text-anchor="start" x="2845.5" y="-320.5" font-family="Helvetica,sans-Serif" font-size="10.00" fill="#000000">core/operation/operation</text>
<text text-anchor="middle" x="2898" y="-309.5" font-family="Helvetica,sans-Serif" font-size="10.00" fill="#000000">_registry.h</text>
</a>
</g>
</g>
<!-- Node0&#45;&gt;Node90 -->
<g id="edge153" class="edge">
<title>Node0&#45;&gt;Node90</title>
<path fill="none" stroke="#191970" d="M2157.6421,-580.8406C2277.6869,-572.4197 2518.6246,-553.7031 2601,-534 2681.1917,-514.8193 2702.2684,-507.6595 2774,-467 2816.1519,-443.1071 2829.9005,-437.9694 2860,-400 2873.7574,-382.6456 2883.8565,-359.504 2890.1709,-342.1474"/>
<polygon fill="#191970" stroke="#191970" points="2893.4829,-343.2789 2893.4504,-332.6841 2886.8688,-340.9867 2893.4829,-343.2789"/>
</g>
<!-- Node91 -->
<g id="node50" class="node">
<title>Node91</title>
<g id="a_node50"><a xlink:href="vtune__helper_8h.html" target="_top" xlink:title="core/util/vtune_helper.h">
<polygon fill="#ffffff" stroke="#ff0000" points="3181,-509 3181,-528 3299,-528 3299,-509 3181,-509"/>
<text text-anchor="middle" x="3240" y="-516" font-family="Helvetica,sans-Serif" font-size="10.00" fill="#000000">core/util/vtune_helper.h</text>
</a>
</g>
</g>
<!-- Node0&#45;&gt;Node91 -->
<g id="edge160" class="edge">
<title>Node0&#45;&gt;Node91</title>
<path fill="none" stroke="#191970" d="M2157.7424,-583.6452C2364.2929,-577.9185 2970.6596,-559.361 3167,-534 3174.7699,-532.9964 3182.9421,-531.6021 3190.893,-530.0577"/>
<polygon fill="#191970" stroke="#191970" points="3191.6992,-533.4654 3200.799,-528.0392 3190.3015,-526.6064 3191.6992,-533.4654"/>
</g>
<!-- Node3 -->
<g id="node4" class="node">
<title>Node3</title>
<polygon fill="#ffffff" stroke="#bfbfbf" points="761,-112.5 761,-131.5 801,-131.5 801,-112.5 761,-112.5"/>
<text text-anchor="middle" x="781" y="-119.5" font-family="Helvetica,sans-Serif" font-size="10.00" fill="#000000">limits</text>
</g>
<!-- Node2&#45;&gt;Node3 -->
<g id="edge3" class="edge">
<title>Node2&#45;&gt;Node3</title>
<path fill="none" stroke="#191970" d="M799.5625,-173.8906C796.4487,-165.1862 791.768,-152.1015 787.886,-141.2494"/>
<polygon fill="#191970" stroke="#191970" points="791.1497,-139.9817 784.486,-131.7449 784.5588,-142.3394 791.1497,-139.9817"/>
</g>
<!-- Node4 -->
<g id="node5" class="node">
<title>Node4</title>
<g id="a_node5"><a xlink:href="root_8h.html" target="_top" xlink:title="core/util/root.h">
<polygon fill="#ffffff" stroke="#ff0000" points="1312.5,-112.5 1312.5,-131.5 1391.5,-131.5 1391.5,-112.5 1312.5,-112.5"/>
<text text-anchor="middle" x="1352" y="-119.5" font-family="Helvetica,sans-Serif" font-size="10.00" fill="#000000">core/util/root.h</text>
</a>
</g>
</g>
<!-- Node2&#45;&gt;Node4 -->
<g id="edge4" class="edge">
<title>Node2&#45;&gt;Node4</title>
<path fill="none" stroke="#191970" d="M868.7927,-174.4237C885.785,-172.1987 904.0611,-169.91 921,-168 1087.2292,-149.256 1132.6088,-156.7836 1302.4504,-131.9282"/>
<polygon fill="#191970" stroke="#191970" points="1303.1042,-135.3697 1312.4842,-130.4436 1302.0796,-128.4451 1303.1042,-135.3697"/>
</g>
<!-- Node4&#45;&gt;Node6 -->
<g id="edge5" class="edge">
<title>Node4&#45;&gt;Node6</title>
<path fill="none" stroke="#191970" d="M1391.5452,-116.2179C1462.3703,-105.8623 1610.5897,-84.1905 1687.0708,-73.0079"/>
<polygon fill="#191970" stroke="#191970" points="1687.9825,-76.4119 1697.3709,-71.5019 1686.9698,-69.4856 1687.9825,-76.4119"/>
</g>
<!-- Node11 -->
<g id="node7" class="node">
<title>Node11</title>
<polygon fill="#ffffff" stroke="#bfbfbf" points="841,-.5 841,-19.5 895,-19.5 895,-.5 841,-.5"/>
<text text-anchor="middle" x="868" y="-7.5" font-family="Helvetica,sans-Serif" font-size="10.00" fill="#000000">iostream</text>
</g>
<!-- Node6&#45;&gt;Node11 -->
<g id="edge6" class="edge">
<title>Node6&#45;&gt;Node11</title>
<path fill="none" stroke="#191970" d="M1697.4678,-63.5758C1554.9213,-54.3686 1047.9633,-21.6239 905.4895,-12.4215"/>
<polygon fill="#191970" stroke="#191970" points="905.3141,-8.9029 895.1093,-11.751 904.8629,-15.8884 905.3141,-8.9029"/>
</g>
<!-- Node12 -->
<g id="node8" class="node">
<title>Node12</title>
<polygon fill="#ffffff" stroke="#bfbfbf" points="2913.5,-.5 2913.5,-19.5 2954.5,-19.5 2954.5,-.5 2913.5,-.5"/>
<text text-anchor="middle" x="2934" y="-7.5" font-family="Helvetica,sans-Serif" font-size="10.00" fill="#000000">string</text>
</g>
<!-- Node6&#45;&gt;Node12 -->
<g id="edge7" class="edge">
<title>Node6&#45;&gt;Node12</title>
<path fill="none" stroke="#191970" d="M1772.9442,-61.684C1791.6124,-59.6937 1814.4632,-57.4554 1835,-56 2257.8999,-26.0297 2773.8328,-13.4458 2903.3862,-10.6325"/>
<polygon fill="#191970" stroke="#191970" points="2903.463,-14.1317 2913.3857,-10.4182 2903.313,-7.1333 2903.463,-14.1317"/>
</g>
<!-- Node15&#45;&gt;Node1 -->
<g id="edge15" class="edge">
<title>Node15&#45;&gt;Node1</title>
<path fill="none" stroke="#191970" d="M824.635,-383.649C1049.4571,-379.2519 2049.484,-358.3315 2110,-333 2128.5624,-325.2299 2127.351,-314.6509 2143,-302 2164.8595,-284.3284 2174.7502,-285.4954 2195,-266 2236.4634,-226.0813 2274.1669,-169.0658 2292.0588,-140.2165"/>
<polygon fill="#191970" stroke="#191970" points="2295.1106,-141.9348 2297.3438,-131.578 2289.1394,-138.2817 2295.1106,-141.9348"/>
</g>
<!-- Node15&#45;&gt;Node12 -->
<g id="edge13" class="edge">
<title>Node15&#45;&gt;Node12</title>
<path fill="none" stroke="#191970" d="M824.8216,-383.5518C1040.7864,-378.8902 1975.5046,-357.6341 2266,-333 2368.3388,-324.3216 2392.9565,-313.6479 2495,-302 2580.814,-292.2046 2816.8098,-322.659 2882,-266 2951.8758,-205.2686 2943.3776,-78.6145 2937.0661,-29.7873"/>
<polygon fill="#191970" stroke="#191970" points="2940.4942,-29.0319 2935.6317,-19.6188 2933.5628,-30.0096 2940.4942,-29.0319"/>
</g>
<!-- Node16 -->
<g id="node10" class="node">
<title>Node16</title>
<polygon fill="#ffffff" stroke="#bfbfbf" points="530,-112.5 530,-131.5 568,-131.5 568,-112.5 530,-112.5"/>
<text text-anchor="middle" x="549" y="-119.5" font-family="Helvetica,sans-Serif" font-size="10.00" fill="#000000">array</text>
</g>
<!-- Node15&#45;&gt;Node16 -->
<g id="edge9" class="edge">
<title>Node15&#45;&gt;Node16</title>
<path fill="none" stroke="#191970" d="M735.4888,-381.9673C625.5351,-375.3779 347.4689,-356.5621 313,-333 251.9712,-291.2823 238.9779,-219.5126 292,-168 324.0493,-136.8632 459.1725,-126.4022 519.5918,-123.2384"/>
<polygon fill="#191970" stroke="#191970" points="519.8125,-126.7319 529.6284,-122.7446 519.4684,-119.7404 519.8125,-126.7319"/>
</g>
<!-- Node17 -->
<g id="node11" class="node">
<title>Node17</title>
<polygon fill="#ffffff" stroke="#bfbfbf" points="2760,-112.5 2760,-131.5 2804,-131.5 2804,-112.5 2760,-112.5"/>
<text text-anchor="middle" x="2782" y="-119.5" font-family="Helvetica,sans-Serif" font-size="10.00" fill="#000000">cmath</text>
</g>
<!-- Node15&#45;&gt;Node17 -->
<g id="edge10" class="edge">
<title>Node15&#45;&gt;Node17</title>
<path fill="none" stroke="#191970" d="M824.6505,-383.688C1049.9004,-379.4823 2056.1299,-359.3528 2193,-333 2416.6659,-289.9356 2669.1125,-175.8464 2753.1156,-135.9846"/>
<polygon fill="#191970" stroke="#191970" points="2754.7709,-139.0728 2762.2892,-131.6078 2751.7566,-132.755 2754.7709,-139.0728"/>
</g>
<!-- Node18 -->
<g id="node12" class="node">
<title>Node18</title>
<polygon fill="#ffffff" stroke="#bfbfbf" points="408.5,-308 408.5,-327 461.5,-327 461.5,-308 408.5,-308"/>
<text text-anchor="middle" x="435" y="-315" font-family="Helvetica,sans-Serif" font-size="10.00" fill="#000000">complex</text>
</g>
<!-- Node15&#45;&gt;Node18 -->
<g id="edge11" class="edge">
<title>Node15&#45;&gt;Node18</title>
<path fill="none" stroke="#191970" d="M735.3679,-379.6842C675.5869,-372.6137 566.5453,-357.5362 476,-333 473.2457,-332.2536 470.4185,-331.3933 467.599,-330.4685"/>
<polygon fill="#191970" stroke="#191970" points="468.7537,-327.1645 458.1589,-327.1473 466.4305,-333.7678 468.7537,-327.1645"/>
</g>
<!-- Node19 -->
<g id="node13" class="node">
<title>Node19</title>
<polygon fill="#ffffff" stroke="#bfbfbf" points="2023,-241 2023,-260 2053,-260 2053,-241 2023,-241"/>
<text text-anchor="middle" x="2038" y="-248" font-family="Helvetica,sans-Serif" font-size="10.00" fill="#000000">set</text>
</g>
<!-- Node15&#45;&gt;Node19 -->
<g id="edge12" class="edge">
<title>Node15&#45;&gt;Node19</title>
<path fill="none" stroke="#191970" d="M824.7474,-384.1648C999.7879,-382.5683 1638.183,-373.9994 1836,-333 1918.7707,-315.845 1938.5108,-304.0351 2014,-266 2014.5399,-265.728 2015.0827,-265.4468 2015.627,-265.1578"/>
<polygon fill="#191970" stroke="#191970" points="2017.4919,-268.1215 2024.3376,-260.0352 2013.9434,-262.0876 2017.4919,-268.1215"/>
</g>
<!-- Node20 -->
<g id="node14" class="node">
<title>Node20</title>
<polygon fill="#ffffff" stroke="#bfbfbf" points="1077,-174 1077,-193 1139,-193 1139,-174 1077,-174"/>
<text text-anchor="middle" x="1108" y="-181" font-family="Helvetica,sans-Serif" font-size="10.00" fill="#000000">type_traits</text>
</g>
<!-- Node15&#45;&gt;Node20 -->
<g id="edge14" class="edge">
<title>Node15&#45;&gt;Node20</title>
<path fill="none" stroke="#191970" d="M774.3512,-374.7576C764.5509,-358.405 743.1201,-324.9737 719,-302 698.1136,-282.1063 678.6105,-291.4314 665,-266 658.4988,-253.8525 655.8374,-245.2895 665,-235 678.3145,-220.0479 959.3681,-195.6331 1066.7723,-186.8113"/>
<polygon fill="#191970" stroke="#191970" points="1067.2263,-190.2859 1076.9079,-185.9828 1066.656,-183.3092 1067.2263,-190.2859"/>
</g>
<!-- Node21 -->
<g id="node15" class="node">
<title>Node21</title>
<g id="a_node15"><a xlink:href="agent_8h.html" target="_top" xlink:title="core/agent/agent.h">
<polygon fill="#ffffff" stroke="#ff0000" points="1057,-308 1057,-327 1155,-327 1155,-308 1057,-308"/>
<text text-anchor="middle" x="1106" y="-315" font-family="Helvetica,sans-Serif" font-size="10.00" fill="#000000">core/agent/agent.h</text>
</a>
</g>
</g>
<!-- Node15&#45;&gt;Node21 -->
<g id="edge16" class="edge">
<title>Node15&#45;&gt;Node21</title>
<path fill="none" stroke="#191970" d="M824.6454,-375.3244C883.1588,-363.2987 985.8206,-342.1994 1049.6319,-329.0849"/>
<polygon fill="#191970" stroke="#191970" points="1050.4363,-332.4928 1059.5269,-327.0512 1049.027,-325.6361 1050.4363,-332.4928"/>
</g>
<!-- Node52 -->
<g id="node18" class="node">
<title>Node52</title>
<g id="a_node18"><a xlink:href="new__agent__event_8h.html" target="_top" xlink:title="core/agent/new_agent\l_event.h">
<polygon fill="#ffffff" stroke="#000000" points="389.5,-235.5 389.5,-265.5 502.5,-265.5 502.5,-235.5 389.5,-235.5"/>
<text text-anchor="start" x="397.5" y="-253.5" font-family="Helvetica,sans-Serif" font-size="10.00" fill="#000000">core/agent/new_agent</text>
<text text-anchor="middle" x="446" y="-242.5" font-family="Helvetica,sans-Serif" font-size="10.00" fill="#000000">_event.h</text>
</a>
</g>
</g>
<!-- Node15&#45;&gt;Node52 -->
<g id="edge54" class="edge">
<title>Node15&#45;&gt;Node52</title>
<path fill="none" stroke="#191970" d="M735.2619,-380.7128C687.0199,-375.2574 608.9489,-362.3868 548,-333 531.3392,-324.9669 494.7605,-293.9176 470.2449,-272.2915"/>
<polygon fill="#191970" stroke="#191970" points="472.553,-269.6604 462.7496,-265.6423 467.9076,-274.8968 472.553,-269.6604"/>
</g>
<!-- Node54 -->
<g id="node20" class="node">
<title>Node54</title>
<g id="a_node20"><a xlink:href="inline__vector_8h.html" target="_top" xlink:title="core/container/inline\l_vector.h">
<polygon fill="#ffffff" stroke="#ff0000" points="615,-168.5 615,-198.5 719,-198.5 719,-168.5 615,-168.5"/>
<text text-anchor="start" x="623" y="-186.5" font-family="Helvetica,sans-Serif" font-size="10.00" fill="#000000">core/container/inline</text>
<text text-anchor="middle" x="667" y="-175.5" font-family="Helvetica,sans-Serif" font-size="10.00" fill="#000000">_vector.h</text>
</a>
</g>
</g>
<!-- Node15&#45;&gt;Node54 -->
<g id="edge55" class="edge">
<title>Node15&#45;&gt;Node54</title>
<path fill="none" stroke="#191970" d="M771.1435,-374.8962C755.271,-358.1528 720.3248,-323.3692 685,-302 647.4313,-279.2734 617.7525,-302.2659 593,-266 585.2329,-254.6202 586.6206,-247.2119 593,-235 599.7066,-222.1618 611.234,-211.8757 623.2207,-203.9741"/>
<polygon fill="#191970" stroke="#191970" points="625.2524,-206.8346 631.9676,-198.6397 621.6077,-200.8583 625.2524,-206.8346"/>
</g>
<!-- Node49 -->
<g id="node21" class="node">
<title>Node49</title>
<g id="a_node21"><a xlink:href="math__array_8h.html" target="_top" xlink:title="core/container/math\l_array.h">
<polygon fill="#ffffff" stroke="#ff0000" points="1257.5,-168.5 1257.5,-198.5 1360.5,-198.5 1360.5,-168.5 1257.5,-168.5"/>
<text text-anchor="start" x="1265.5" y="-186.5" font-family="Helvetica,sans-Serif" font-size="10.00" fill="#000000">core/container/math</text>
<text text-anchor="middle" x="1309" y="-175.5" font-family="Helvetica,sans-Serif" font-size="10.00" fill="#000000">_array.h</text>
</a>
</g>
</g>
<!-- Node15&#45;&gt;Node49 -->
<g id="edge56" class="edge">
<title>Node15&#45;&gt;Node49</title>
<path fill="none" stroke="#191970" d="M801.6226,-374.9409C857.8219,-350.2553 1013.3511,-282.9561 1146,-235 1179.3688,-222.9363 1217.1225,-210.9077 1247.8869,-201.5128"/>
<polygon fill="#191970" stroke="#191970" points="1249.064,-204.8132 1257.6154,-198.5583 1247.0298,-198.1153 1249.064,-204.8132"/>
</g>
<!-- Node60 -->
<g id="node23" class="node">
<title>Node60</title>
<g id="a_node23"><a xlink:href="interaction__force_8h.html" target="_top" xlink:title="core/interaction_force.h">
<polygon fill="#ffffff" stroke="#000000" points="673.5,-241 673.5,-260 792.5,-260 792.5,-241 673.5,-241"/>
<text text-anchor="middle" x="733" y="-248" font-family="Helvetica,sans-Serif" font-size="10.00" fill="#000000">core/interaction_force.h</text>
</a>
</g>
</g>
<!-- Node15&#45;&gt;Node60 -->
<g id="edge73" class="edge">
<title>Node15&#45;&gt;Node60</title>
<path fill="none" stroke="#191970" d="M777.6155,-374.708C773.715,-359.1141 765.4516,-327.7679 756,-302 751.9456,-290.9466 746.6262,-278.9159 742.1243,-269.264"/>
<polygon fill="#191970" stroke="#191970" points="745.2726,-267.7344 737.8162,-260.2076 738.9514,-270.7415 745.2726,-267.7344"/>
</g>
<!-- Node15&#45;&gt;Node61 -->
<g id="edge81" class="edge">
<title>Node15&#45;&gt;Node61</title>
<path fill="none" stroke="#191970" d="M735.3386,-380.6759C648.7513,-372.8972 461.1873,-354.1651 400,-333 344.4596,-313.7882 315.1874,-317.009 286,-266 272.5358,-242.4695 296.1787,-215.9053 315.5804,-199.4301"/>
<polygon fill="#191970" stroke="#191970" points="317.9321,-202.0297 323.5151,-193.0252 313.5354,-196.5828 317.9321,-202.0297"/>
</g>
<!-- Node64 -->
<g id="node28" class="node">
<title>Node64</title>
<g id="a_node28"><a xlink:href="cell__division__event_8h.html" target="_top" xlink:title="core/agent/cell_division\l_event.h">
<polygon fill="#ffffff" stroke="#000000" points="556.5,-302.5 556.5,-332.5 675.5,-332.5 675.5,-302.5 556.5,-302.5"/>
<text text-anchor="start" x="564.5" y="-320.5" font-family="Helvetica,sans-Serif" font-size="10.00" fill="#000000">core/agent/cell_division</text>
<text text-anchor="middle" x="616" y="-309.5" font-family="Helvetica,sans-Serif" font-size="10.00" fill="#000000">_event.h</text>
</a>
</g>
</g>
<!-- Node15&#45;&gt;Node64 -->
<g id="edge52" class="edge">
<title>Node15&#45;&gt;Node64</title>
<path fill="none" stroke="#191970" d="M756.5028,-374.9005C732.0473,-364.9096 693.1059,-349.0006 662.4154,-336.4624"/>
<polygon fill="#191970" stroke="#191970" points="663.3507,-333.0637 652.7697,-332.5218 660.7033,-339.5438 663.3507,-333.0637"/>
</g>
<!-- Node30 -->
<g id="node29" class="node">
<title>Node30</title>
<g id="a_node29"><a xlink:href="in__place__exec__ctxt_8h.html" target="_top" xlink:title="core/execution_context\l/in_place_exec_ctxt.h">
<polygon fill="#ffffff" stroke="#ff0000" points="1709,-302.5 1709,-332.5 1827,-332.5 1827,-302.5 1709,-302.5"/>
<text text-anchor="start" x="1717" y="-320.5" font-family="Helvetica,sans-Serif" font-size="10.00" fill="#000000">core/execution_context</text>
<text text-anchor="middle" x="1768" y="-309.5" font-family="Helvetica,sans-Serif" font-size="10.00" fill="#000000">/in_place_exec_ctxt.h</text>
</a>
</g>
</g>
<!-- Node15&#45;&gt;Node30 -->
<g id="edge57" class="edge">
<title>Node15&#45;&gt;Node30</title>
<path fill="none" stroke="#191970" d="M824.6951,-381.4691C981.6299,-370.8267 1508.2548,-335.1143 1698.6079,-322.2057"/>
<polygon fill="#191970" stroke="#191970" points="1699.0286,-325.6853 1708.7688,-321.5167 1698.5549,-318.7014 1699.0286,-325.6853"/>
</g>
<!-- Node33 -->
<g id="node30" class="node">
<title>Node33</title>
<g id="a_node30"><a xlink:href="functor_8h.html" target="_top" xlink:title="core/functor.h">
<polygon fill="#ffffff" stroke="#000000" points="294.5,-241 294.5,-260 371.5,-260 371.5,-241 294.5,-241"/>
<text text-anchor="middle" x="333" y="-248" font-family="Helvetica,sans-Serif" font-size="10.00" fill="#000000">core/functor.h</text>
</a>
</g>
</g>
<!-- Node15&#45;&gt;Node33 -->
<g id="edge72" class="edge">
<title>Node15&#45;&gt;Node33</title>
<path fill="none" stroke="#191970" d="M735.451,-379.2805C668.0612,-370.869 543.8325,-353.1993 504,-333 486.0527,-323.8988 488.0955,-312.6152 471,-302 454.1435,-291.5332 407.0147,-274.8321 372.5084,-263.301"/>
<polygon fill="#191970" stroke="#191970" points="373.2934,-259.8739 362.7,-260.0483 371.09,-266.5181 373.2934,-259.8739"/>
</g>
<!-- Node65 -->
<g id="node34" class="node">
<title>Node65</title>
<g id="a_node34"><a xlink:href="core_2param_2param_8h.html" target="_top" xlink:title="core/param/param.h">
<polygon fill="#ffffff" stroke="#ff0000" points="1997,-308 1997,-327 2101,-327 2101,-308 1997,-308"/>
<text text-anchor="middle" x="2049" y="-315" font-family="Helvetica,sans-Serif" font-size="10.00" fill="#000000">core/param/param.h</text>
</a>
</g>
</g>
<!-- Node15&#45;&gt;Node65 -->
<g id="edge74" class="edge">
<title>Node15&#45;&gt;Node65</title>
<path fill="none" stroke="#191970" d="M824.5738,-383.7136C1013.9492,-380.1995 1752.6073,-364.6984 1983,-333 1989.8158,-332.0623 1996.96,-330.7446 2003.9273,-329.2695"/>
<polygon fill="#191970" stroke="#191970" points="2004.9582,-332.6253 2013.9498,-327.0215 2003.4262,-325.795 2004.9582,-332.6253"/>
</g>
<!-- Node70 -->
<g id="node35" class="node">
<title>Node70</title>
<g id="a_node35"><a xlink:href="math_8h.html" target="_top" xlink:title="core/util/math.h">
<polygon fill="#ffffff" stroke="#ff0000" points="2261,-241 2261,-260 2345,-260 2345,-241 2261,-241"/>
<text text-anchor="middle" x="2303" y="-248" font-family="Helvetica,sans-Serif" font-size="10.00" fill="#000000">core/util/math.h</text>
</a>
</g>
</g>
<!-- Node15&#45;&gt;Node70 -->
<g id="edge82" class="edge">
<title>Node15&#45;&gt;Node70</title>
<path fill="none" stroke="#191970" d="M824.5945,-383.968C1045.073,-381.1828 2013.2411,-367.0908 2143,-333 2195.8693,-319.11 2251.1831,-285.6891 2280.9216,-265.9092"/>
<polygon fill="#191970" stroke="#191970" points="2282.9749,-268.7459 2289.2988,-260.2453 2279.0542,-262.9469 2282.9749,-268.7459"/>
</g>
<!-- Node21&#45;&gt;Node1 -->
<g id="edge23" class="edge">
<title>Node21&#45;&gt;Node1</title>
<path fill="none" stroke="#191970" d="M1120.7987,-307.9516C1136.2841,-297.8493 1161.1911,-281.2865 1182,-266 1199.8446,-252.8911 1201.1042,-244.7174 1221,-235 1282.2163,-205.101 1305.1652,-219.9244 1370,-199 1404.7165,-187.7958 1410.4033,-175.9773 1446,-168 1527.5598,-149.7223 2124.5414,-128.1457 2270.7484,-123.0951"/>
<polygon fill="#191970" stroke="#191970" points="2270.9891,-126.589 2280.8629,-122.7473 2270.7485,-119.5932 2270.9891,-126.589"/>
</g>
<!-- Node21&#45;&gt;Node3 -->
<g id="edge18" class="edge">
<title>Node21&#45;&gt;Node3</title>
<path fill="none" stroke="#191970" d="M1095.8333,-307.7935C1068.2082,-281.8666 988.6164,-210.1092 911,-168 878.5325,-150.3854 837.98,-137.2943 810.8813,-129.6723"/>
<polygon fill="#191970" stroke="#191970" points="811.7685,-126.2865 801.1992,-127.0209 809.9196,-133.0379 811.7685,-126.2865"/>
</g>
<!-- Node21&#45;&gt;Node4 -->
<g id="edge45" class="edge">
<title>Node21&#45;&gt;Node4</title>
<path fill="none" stroke="#191970" d="M1098.3877,-307.7883C1079.0224,-281.8484 1031.8911,-210.0617 1068,-168 1100.6655,-129.9494 1236.1953,-140.0648 1302.441,-131.7485"/>
<polygon fill="#191970" stroke="#191970" points="1303.0823,-135.1915 1312.4517,-130.2453 1302.0428,-128.2691 1303.0823,-135.1915"/>
</g>
<!-- Node21&#45;&gt;Node12 -->
<g id="edge21" class="edge">
<title>Node21&#45;&gt;Node12</title>
<path fill="none" stroke="#191970" d="M1155.2242,-316.2417C1303.1827,-312.1233 1737.1179,-297.4646 1792,-266 1830.6636,-243.8337 1849,-228.0671 1849,-183.5 1849,-183.5 1849,-183.5 1849,-122 1849,-67.5137 2726.1775,-20.462 2903.1161,-11.5253"/>
<polygon fill="#191970" stroke="#191970" points="2903.4826,-15.0114 2913.2945,-11.0144 2903.1316,-8.0202 2903.4826,-15.0114"/>
</g>
<!-- Node21&#45;&gt;Node19 -->
<g id="edge20" class="edge">
<title>Node21&#45;&gt;Node19</title>
<path fill="none" stroke="#191970" d="M1155.2814,-316.1782C1332.6444,-311.2189 1932.2779,-292.6335 2014,-266 2015.0375,-265.6619 2016.0739,-265.2674 2017.1018,-264.8287"/>
<polygon fill="#191970" stroke="#191970" points="2018.8182,-267.8794 2025.9199,-260.0171 2015.4652,-261.7346 2018.8182,-267.8794"/>
</g>
<!-- Node21&#45;&gt;Node20 -->
<g id="edge22" class="edge">
<title>Node21&#45;&gt;Node20</title>
<path fill="none" stroke="#191970" d="M1106.1438,-307.8631C1106.4696,-286.0364 1107.2692,-232.4605 1107.7051,-203.2589"/>
<polygon fill="#191970" stroke="#191970" points="1111.2077,-203.1008 1107.8575,-193.0496 1104.2085,-202.9962 1111.2077,-203.1008"/>
</g>
<!-- Node22 -->
<g id="node16" class="node">
<title>Node22</title>
<polygon fill="#ffffff" stroke="#bfbfbf" points="1238,-112.5 1238,-131.5 1294,-131.5 1294,-112.5 1238,-112.5"/>
<text text-anchor="middle" x="1266" y="-119.5" font-family="Helvetica,sans-Serif" font-size="10.00" fill="#000000">algorithm</text>
</g>
<!-- Node21&#45;&gt;Node22 -->
<g id="edge17" class="edge">
<title>Node21&#45;&gt;Node22</title>
<path fill="none" stroke="#191970" d="M1109.3113,-307.9793C1115.1588,-291.9535 1128.3808,-258.9912 1146,-235 1175.067,-195.4207 1219.085,-158.129 1244.9495,-137.842"/>
<polygon fill="#191970" stroke="#191970" points="1247.2068,-140.5209 1252.9771,-131.6352 1242.9251,-134.983 1247.2068,-140.5209"/>
</g>
<!-- Node24 -->
<g id="node17" class="node">
<title>Node24</title>
<polygon fill="#ffffff" stroke="#bfbfbf" points="1953,-241 1953,-260 2005,-260 2005,-241 1953,-241"/>
<text text-anchor="middle" x="1979" y="-248" font-family="Helvetica,sans-Serif" font-size="10.00" fill="#000000">memory</text>
</g>
<!-- Node21&#45;&gt;Node24 -->
<g id="edge19" class="edge">
<title>Node21&#45;&gt;Node24</title>
<path fill="none" stroke="#191970" d="M1155.2463,-315.2588C1276.0446,-309.52 1596.6118,-292.8303 1863,-266 1889.822,-263.2985 1920.0006,-259.2338 1942.8518,-255.9445"/>
<polygon fill="#191970" stroke="#191970" points="1943.4061,-259.4008 1952.7969,-254.4955 1942.3968,-252.4739 1943.4061,-259.4008"/>
</g>
<!-- Node21&#45;&gt;Node52 -->
<g id="edge24" class="edge">
<title>Node21&#45;&gt;Node52</title>
<path fill="none" stroke="#191970" d="M1056.9319,-312.5188C940.1775,-300.6665 645.7031,-270.7729 512.8494,-257.2862"/>
<polygon fill="#191970" stroke="#191970" points="513.1035,-253.7941 502.8011,-256.2662 512.3965,-260.7583 513.1035,-253.7941"/>
</g>
<!-- Node21&#45;&gt;Node54 -->
<g id="edge35" class="edge">
<title>Node21&#45;&gt;Node54</title>
<path fill="none" stroke="#191970" d="M1074.7801,-307.9705C1002.0364,-285.7662 820.2941,-230.2914 725.9369,-201.4898"/>
<polygon fill="#191970" stroke="#191970" points="726.8424,-198.1069 716.2562,-198.5349 724.7988,-204.8019 726.8424,-198.1069"/>
</g>
<!-- Node21&#45;&gt;Node49 -->
<g id="edge36" class="edge">
<title>Node21&#45;&gt;Node49</title>
<path fill="none" stroke="#191970" d="M1113.2934,-307.8875C1126.4276,-291.1307 1155.6254,-256.3268 1187,-235 1206.786,-221.5505 1230.6452,-210.5255 1251.9967,-202.1764"/>
<polygon fill="#191970" stroke="#191970" points="1253.4992,-205.3498 1261.6068,-198.5295 1251.0155,-198.8052 1253.4992,-205.3498"/>
</g>
<!-- Node21&#45;&gt;Node60 -->
<g id="edge41" class="edge">
<title>Node21&#45;&gt;Node60</title>
<path fill="none" stroke="#191970" d="M1056.8532,-308.672C989.8751,-296.6411 869.8615,-275.0837 796.2439,-261.8602"/>
<polygon fill="#191970" stroke="#191970" points="796.6357,-258.3746 786.1744,-260.0514 795.398,-265.2643 796.6357,-258.3746"/>
</g>
<!-- Node21&#45;&gt;Node61 -->
<g id="edge44" class="edge">
<title>Node21&#45;&gt;Node61</title>
<path fill="none" stroke="#191970" d="M1056.7459,-313.8538C974.9229,-307.3266 806.0233,-291.8562 665,-266 561.0516,-246.9414 441.1418,-213.9031 379.0932,-195.9622"/>
<polygon fill="#191970" stroke="#191970" points="379.8606,-192.5405 369.2811,-193.1113 377.9074,-199.2625 379.8606,-192.5405"/>
</g>
<!-- Node35 -->
<g id="node25" class="node">
<title>Node35</title>
<g id="a_node25"><a xlink:href="spinlock_8h.html" target="_top" xlink:title="core/util/spinlock.h">
<polygon fill="#ffffff" stroke="#000000" points="1443,-241 1443,-260 1541,-260 1541,-241 1443,-241"/>
<text text-anchor="middle" x="1492" y="-248" font-family="Helvetica,sans-Serif" font-size="10.00" fill="#000000">core/util/spinlock.h</text>
</a>
</g>
</g>
<!-- Node21&#45;&gt;Node35 -->
<g id="edge46" class="edge">
<title>Node21&#45;&gt;Node35</title>
<path fill="none" stroke="#191970" d="M1155.2792,-308.9463C1226.1784,-296.64 1356.7735,-273.972 1432.8085,-260.7742"/>
<polygon fill="#191970" stroke="#191970" points="1433.4556,-264.2143 1442.7096,-259.0556 1432.2584,-257.3174 1433.4556,-264.2143"/>
</g>
<!-- Node21&#45;&gt;Node63 -->
<g id="edge48" class="edge">
<title>Node21&#45;&gt;Node63</title>
<path fill="none" stroke="#191970" d="M1129.4972,-307.9005C1157.7508,-296.3579 1205.3392,-276.9163 1237.2017,-263.8993"/>
<polygon fill="#191970" stroke="#191970" points="1238.6128,-267.1037 1246.5464,-260.0817 1235.9654,-260.6236 1238.6128,-267.1037"/>
</g>
<!-- Node52&#45;&gt;Node3 -->
<g id="edge25" class="edge">
<title>Node52&#45;&gt;Node3</title>
<path fill="none" stroke="#191970" d="M470.9735,-235.4303C501.7987,-217.3519 556.2536,-187.098 606,-168 655.3016,-149.0728 715.3171,-135.1674 750.7153,-127.8502"/>
<polygon fill="#191970" stroke="#191970" points="751.7656,-131.2086 760.8715,-125.7926 750.3756,-124.348 751.7656,-131.2086"/>
</g>
<!-- Node52&#45;&gt;Node6 -->
<g id="edge34" class="edge">
<title>Node52&#45;&gt;Node6</title>
<path fill="none" stroke="#191970" d="M449.0322,-235.4514C455.9029,-205.7755 475.7154,-140.1509 521,-112 571.3108,-80.7247 1468.5509,-68.9133 1687.236,-66.4923"/>
<polygon fill="#191970" stroke="#191970" points="1687.4665,-69.9901 1697.4276,-66.3809 1687.3899,-62.9905 1687.4665,-69.9901"/>
</g>
<!-- Node53 -->
<g id="node19" class="node">
<title>Node53</title>
<polygon fill="#ffffff" stroke="#bfbfbf" points="80,-174 80,-193 124,-193 124,-174 80,-174"/>
<text text-anchor="middle" x="102" y="-181" font-family="Helvetica,sans-Serif" font-size="10.00" fill="#000000">mutex</text>
</g>
<!-- Node52&#45;&gt;Node53 -->
<g id="edge26" class="edge">
<title>Node52&#45;&gt;Node53</title>
<path fill="none" stroke="#191970" d="M389.3185,-236.8019C386.5087,-236.1799 383.7241,-235.5758 381,-235 291.9573,-216.1784 186.108,-197.6979 134.0984,-188.8709"/>
<polygon fill="#191970" stroke="#191970" points="134.5823,-185.4032 124.1388,-187.1871 133.4154,-192.3052 134.5823,-185.4032"/>
</g>
<!-- Node52&#45;&gt;Node54 -->
<g id="edge27" class="edge">
<title>Node52&#45;&gt;Node54</title>
<path fill="none" stroke="#191970" d="M495.5967,-235.4639C528.7495,-225.4131 572.5389,-212.1375 607.5584,-201.5208"/>
<polygon fill="#191970" stroke="#191970" points="608.6326,-204.8525 617.187,-198.6017 606.6016,-198.1536 608.6326,-204.8525"/>
</g>
<!-- Node54&#45;&gt;Node1 -->
<g id="edge31" class="edge">
<title>Node54&#45;&gt;Node1</title>
<path fill="none" stroke="#191970" d="M719.2749,-169.5889C722.5517,-168.9788 725.8126,-168.4397 729,-168 748.8069,-165.2674 2047.9637,-129.0839 2270.6837,-122.8969"/>
<polygon fill="#191970" stroke="#191970" points="2270.8508,-126.3937 2280.7498,-122.6173 2270.6564,-119.3964 2270.8508,-126.3937"/>
</g>
<!-- Node54&#45;&gt;Node3 -->
<g id="edge30" class="edge">
<title>Node54&#45;&gt;Node3</title>
<path fill="none" stroke="#191970" d="M694.8875,-168.4554C712.9076,-158.734 736.2341,-146.15 754.0632,-136.5317"/>
<polygon fill="#191970" stroke="#191970" points="756.1948,-139.3586 763.334,-131.5303 752.8713,-133.1979 756.1948,-139.3586"/>
</g>
<!-- Node54&#45;&gt;Node4 -->
<g id="edge33" class="edge">
<title>Node54&#45;&gt;Node4</title>
<path fill="none" stroke="#191970" d="M719.2933,-169.7144C722.5655,-169.0731 725.8204,-168.4929 729,-168 978.3881,-129.337 1047.8538,-164.7149 1302.5804,-131.8529"/>
<polygon fill="#191970" stroke="#191970" points="1303.0398,-135.3227 1312.4993,-130.5511 1302.1288,-128.3822 1303.0398,-135.3227"/>
</g>
<!-- Node54&#45;&gt;Node6 -->
<g id="edge32" class="edge">
<title>Node54&#45;&gt;Node6</title>
<path fill="none" stroke="#191970" d="M679.2636,-168.4547C694.3296,-151.2332 721.6524,-123.8775 752,-112 839.4456,-77.7754 1501.7187,-68.4081 1686.9799,-66.4452"/>
<polygon fill="#191970" stroke="#191970" points="1687.259,-69.9426 1697.2222,-66.3392 1687.1864,-62.943 1687.259,-69.9426"/>
</g>
<!-- Node54&#45;&gt;Node16 -->
<g id="edge29" class="edge">
<title>Node54&#45;&gt;Node16</title>
<path fill="none" stroke="#191970" d="M638.134,-168.4554C619.3089,-158.644 594.889,-145.9167 576.3708,-136.2653"/>
<polygon fill="#191970" stroke="#191970" points="577.7713,-133.0484 567.2858,-131.5303 574.536,-139.2559 577.7713,-133.0484"/>
</g>
<!-- Node54&#45;&gt;Node22 -->
<g id="edge28" class="edge">
<title>Node54&#45;&gt;Node22</title>
<path fill="none" stroke="#191970" d="M719.307,-169.7999C722.5759,-169.1374 725.8262,-168.5292 729,-168 914.3644,-137.0932 1139.3907,-126.3688 1227.763,-123.182"/>
<polygon fill="#191970" stroke="#191970" points="1227.979,-126.6767 1237.8508,-122.8299 1227.7348,-119.6809 1227.979,-126.6767"/>
</g>
<!-- Node49&#45;&gt;Node4 -->
<g id="edge40" class="edge">
<title>Node49&#45;&gt;Node4</title>
<path fill="none" stroke="#191970" d="M1319.6292,-168.2977C1325.5981,-159.7609 1333.0838,-149.0545 1339.3529,-140.0883"/>
<polygon fill="#191970" stroke="#191970" points="1342.2534,-142.048 1345.1152,-131.8469 1336.5165,-138.0368 1342.2534,-142.048"/>
</g>
<!-- Node49&#45;&gt;Node17 -->
<g id="edge38" class="edge">
<title>Node49&#45;&gt;Node17</title>
<path fill="none" stroke="#191970" d="M1360.6298,-176.6924C1386.2578,-173.5598 1417.712,-170.084 1446,-168 1711.0971,-148.4699 2571.4795,-127.0599 2749.5595,-122.7716"/>
<polygon fill="#191970" stroke="#191970" points="2749.695,-126.2695 2759.6081,-122.5304 2749.5269,-119.2715 2749.695,-126.2695"/>
</g>
<!-- Node49&#45;&gt;Node22 -->
<g id="edge37" class="edge">
<title>Node49&#45;&gt;Node22</title>
<path fill="none" stroke="#191970" d="M1298.3708,-168.2977C1292.4019,-159.7609 1284.9162,-149.0545 1278.6471,-140.0883"/>
<polygon fill="#191970" stroke="#191970" points="1281.4835,-138.0368 1272.8848,-131.8469 1275.7466,-142.048 1281.4835,-138.0368"/>
</g>
<!-- Node31 -->
<g id="node22" class="node">
<title>Node31</title>
<polygon fill="#ffffff" stroke="#bfbfbf" points="1891,-112.5 1891,-131.5 1931,-131.5 1931,-112.5 1891,-112.5"/>
<text text-anchor="middle" x="1911" y="-119.5" font-family="Helvetica,sans-Serif" font-size="10.00" fill="#000000">utility</text>
</g>
<!-- Node49&#45;&gt;Node31 -->
<g id="edge39" class="edge">
<title>Node49&#45;&gt;Node31</title>
<path fill="none" stroke="#191970" d="M1360.7649,-175.2032C1377.4166,-172.6903 1395.9638,-170.0547 1413,-168 1589.5964,-146.701 1802.47,-130.0326 1880.4664,-124.2234"/>
<polygon fill="#191970" stroke="#191970" points="1880.8447,-127.7051 1890.559,-123.4765 1880.3279,-120.7242 1880.8447,-127.7051"/>
</g>
<!-- Node60&#45;&gt;Node16 -->
<g id="edge42" class="edge">
<title>Node60&#45;&gt;Node16</title>
<path fill="none" stroke="#191970" d="M694.6197,-240.9305C667.8405,-232.896 632.3264,-219.4069 606,-199 585.451,-183.0715 568.7442,-157.8851 558.8494,-140.6863"/>
<polygon fill="#191970" stroke="#191970" points="561.7347,-138.6712 553.833,-131.6132 555.6086,-142.0583 561.7347,-138.6712"/>
</g>
<!-- Node60&#45;&gt;Node49 -->
<g id="edge43" class="edge">
<title>Node60&#45;&gt;Node49</title>
<path fill="none" stroke="#191970" d="M792.7421,-243.5508C902.6982,-230.7608 1136.0349,-203.6192 1247.3795,-190.6677"/>
<polygon fill="#191970" stroke="#191970" points="1247.9148,-194.1291 1257.4434,-189.497 1247.1059,-187.176 1247.9148,-194.1291"/>
</g>
<!-- Node36 -->
<g id="node26" class="node">
<title>Node36</title>
<polygon fill="#ffffff" stroke="#bfbfbf" points="1455,-174 1455,-193 1501,-193 1501,-174 1455,-174"/>
<text text-anchor="middle" x="1478" y="-181" font-family="Helvetica,sans-Serif" font-size="10.00" fill="#000000">atomic</text>
</g>
<!-- Node35&#45;&gt;Node36 -->
<g id="edge47" class="edge">
<title>Node35&#45;&gt;Node36</title>
<path fill="none" stroke="#191970" d="M1489.9941,-240.9005C1487.9357,-231.0495 1484.6751,-215.4451 1482.0728,-202.9912"/>
<polygon fill="#191970" stroke="#191970" points="1485.4736,-202.1543 1480.0021,-193.0817 1478.6216,-203.5862 1485.4736,-202.1543"/>
</g>
<!-- Node63&#45;&gt;Node20 -->
<g id="edge49" class="edge">
<title>Node63&#45;&gt;Node20</title>
<path fill="none" stroke="#191970" d="M1246.7893,-240.9005C1219.0006,-229.4077 1172.2772,-210.0838 1140.8062,-197.068"/>
<polygon fill="#191970" stroke="#191970" points="1141.7461,-193.6693 1131.1676,-193.0817 1139.0708,-200.1379 1141.7461,-193.6693"/>
</g>
<!-- Node63&#45;&gt;Node49 -->
<g id="edge50" class="edge">
<title>Node63&#45;&gt;Node49</title>
<path fill="none" stroke="#191970" d="M1275.5877,-240.9005C1280.6733,-232.1638 1288.393,-218.9018 1295.1314,-207.3256"/>
<polygon fill="#191970" stroke="#191970" points="1298.2501,-208.925 1300.256,-198.5218 1292.2004,-205.4035 1298.2501,-208.925"/>
</g>
<!-- Node63&#45;&gt;Node61 -->
<g id="edge51" class="edge">
<title>Node63&#45;&gt;Node61</title>
<path fill="none" stroke="#191970" d="M1229.3102,-247.578C1077.6165,-236.6847 545.4735,-198.4708 383.8832,-186.8667"/>
<polygon fill="#191970" stroke="#191970" points="384.0084,-183.3668 373.7834,-186.1415 383.507,-190.3488 384.0084,-183.3668"/>
</g>
<!-- Node64&#45;&gt;Node52 -->
<g id="edge53" class="edge">
<title>Node64&#45;&gt;Node52</title>
<path fill="none" stroke="#191970" d="M577.8487,-302.4639C553.0005,-292.6708 520.3844,-279.8162 493.8095,-269.3426"/>
<polygon fill="#191970" stroke="#191970" points="494.9046,-266.0122 484.3177,-265.6017 492.3379,-272.5247 494.9046,-266.0122"/>
</g>
<!-- Node30&#45;&gt;Node1 -->
<g id="edge60" class="edge">
<title>Node30&#45;&gt;Node1</title>
<path fill="none" stroke="#191970" d="M1797.0599,-302.4113C1831.5344,-284.8572 1891.0199,-255.6491 1944,-235 2062.2232,-188.9222 2207.6587,-147.7289 2270.9967,-130.523"/>
<polygon fill="#191970" stroke="#191970" points="2272.052,-133.8634 2280.7926,-127.8757 2270.2258,-127.1058 2272.052,-133.8634"/>
</g>
<!-- Node30&#45;&gt;Node24 -->
<g id="edge58" class="edge">
<title>Node30&#45;&gt;Node24</title>
<path fill="none" stroke="#191970" d="M1815.3525,-302.4639C1854.058,-290.1735 1907.9488,-273.0613 1943.146,-261.8849"/>
<polygon fill="#191970" stroke="#191970" points="1944.5183,-265.1214 1952.9901,-258.7591 1942.3998,-258.4497 1944.5183,-265.1214"/>
</g>
<!-- Node30&#45;&gt;Node31 -->
<g id="edge59" class="edge">
<title>Node30&#45;&gt;Node31</title>
<path fill="none" stroke="#191970" d="M1778.9835,-302.4841C1804.8976,-267.0561 1869.7686,-178.3688 1897.7791,-140.0747"/>
<polygon fill="#191970" stroke="#191970" points="1900.6871,-142.0275 1903.766,-131.8898 1895.0372,-137.8948 1900.6871,-142.0275"/>
</g>
<!-- Node30&#45;&gt;Node35 -->
<g id="edge66" class="edge">
<title>Node30&#45;&gt;Node35</title>
<path fill="none" stroke="#191970" d="M1708.7911,-303.1268C1658.766,-290.9831 1587.9673,-273.7964 1541.058,-262.409"/>
<polygon fill="#191970" stroke="#191970" points="1541.679,-258.9582 1531.1355,-260.0003 1540.0276,-265.7606 1541.679,-258.9582"/>
</g>
<!-- Node30&#45;&gt;Node33 -->
<g id="edge61" class="edge">
<title>Node30&#45;&gt;Node33</title>
<path fill="none" stroke="#191970" d="M1708.9603,-315.7611C1452.7658,-308.1571 447.2203,-277.6899 381,-266 376.7313,-265.2464 372.3187,-264.2048 367.9776,-263.0146"/>
<polygon fill="#191970" stroke="#191970" points="368.6635,-259.566 358.079,-260.0337 366.645,-266.2687 368.6635,-259.566"/>
</g>
<!-- Node34 -->
<g id="node31" class="node">
<title>Node34</title>
<g id="a_node31"><a xlink:href="operation_8h.html" target="_top" xlink:title="core/operation/operation.h">
<polygon fill="#ffffff" stroke="#ff0000" points="2743.5,-241 2743.5,-260 2872.5,-260 2872.5,-241 2743.5,-241"/>
<text text-anchor="middle" x="2808" y="-248" font-family="Helvetica,sans-Serif" font-size="10.00" fill="#000000">core/operation/operation.h</text>
</a>
</g>
</g>
<!-- Node30&#45;&gt;Node34 -->
<g id="edge62" class="edge">
<title>Node30&#45;&gt;Node34</title>
<path fill="none" stroke="#191970" d="M1827.2844,-313.2003C1871.5592,-310.0191 1933.5587,-305.6274 1988,-302 2262.6795,-283.6984 2589.2427,-263.722 2733.3516,-254.9974"/>
<polygon fill="#191970" stroke="#191970" points="2733.6386,-258.4865 2743.409,-254.3889 2733.2158,-251.4993 2733.6386,-258.4865"/>
</g>
<!-- Node30&#45;&gt;Node37 -->
<g id="edge67" class="edge">
<title>Node30&#45;&gt;Node37</title>
<path fill="none" stroke="#191970" d="M1758.9234,-302.2967C1752.9937,-292.3645 1745.2162,-279.3371 1738.9445,-268.8321"/>
<polygon fill="#191970" stroke="#191970" points="1741.8358,-266.8471 1733.7045,-260.055 1735.8254,-270.4354 1741.8358,-266.8471"/>
</g>
<!-- Node34&#45;&gt;Node1 -->
<g id="edge64" class="edge">
<title>Node34&#45;&gt;Node1</title>
<path fill="none" stroke="#191970" d="M2793.265,-240.7902C2760.3381,-219.101 2683.5426,-168.5635 2682,-168 2618.4514,-144.7851 2415.2389,-129.3429 2335.5258,-124.0398"/>
<polygon fill="#191970" stroke="#191970" points="2335.3323,-120.5197 2325.125,-123.3591 2334.875,-127.5048 2335.3323,-120.5197"/>
</g>
<!-- Node34&#45;&gt;Node6 -->
<g id="edge65" class="edge">
<title>Node34&#45;&gt;Node6</title>
<path fill="none" stroke="#191970" d="M2814.6605,-240.7819C2821.0597,-230.8093 2830.2879,-214.5894 2834,-199 2843.2139,-160.3047 2845.2034,-135.3488 2813,-112 2770.773,-81.3836 1985.8588,-69.22 1782.6896,-66.5769"/>
<polygon fill="#191970" stroke="#191970" points="1782.6709,-63.0765 1772.6267,-66.4476 1782.5809,-70.0759 1782.6709,-63.0765"/>
</g>
<!-- Node34&#45;&gt;Node12 -->
<g id="edge63" class="edge">
<title>Node34&#45;&gt;Node12</title>
<path fill="none" stroke="#191970" d="M2817.2107,-240.8394C2826.3433,-230.9116 2840.3327,-214.7259 2850,-199 2885.7873,-140.7841 2914.7885,-64.6726 2927.3153,-29.4464"/>
<polygon fill="#191970" stroke="#191970" points="2930.6594,-30.4866 2930.6633,-19.8917 2924.0532,-28.1717 2930.6594,-30.4866"/>
</g>
<!-- Node37&#45;&gt;Node1 -->
<g id="edge70" class="edge">
<title>Node37&#45;&gt;Node1</title>
<path fill="none" stroke="#191970" d="M1748.8242,-240.8888C1787.426,-223.4916 1873.0802,-186.8406 1949,-168 2065.2808,-139.1432 2207.8094,-127.6373 2270.6362,-123.7329"/>
<polygon fill="#191970" stroke="#191970" points="2270.9462,-127.2207 2280.7193,-123.1297 2270.5281,-120.2332 2270.9462,-127.2207"/>
</g>
<!-- Node37&#45;&gt;Node6 -->
<g id="edge71" class="edge">
<title>Node37&#45;&gt;Node6</title>
<path fill="none" stroke="#191970" d="M1728.3665,-240.8402C1729.4674,-211.8223 1732.7612,-125.0088 1734.2521,-85.7113"/>
<polygon fill="#191970" stroke="#191970" points="1737.7554,-85.6897 1734.6371,-75.5641 1730.7604,-85.4242 1737.7554,-85.6897"/>
</g>
<!-- Node37&#45;&gt;Node36 -->
<g id="edge69" class="edge">
<title>Node37&#45;&gt;Node36</title>
<path fill="none" stroke="#191970" d="M1678.7367,-240.9204C1635.1618,-231.8977 1570.128,-217.0836 1515,-199 1512.9031,-198.3121 1510.7584,-197.5571 1508.6098,-196.762"/>
<polygon fill="#191970" stroke="#191970" points="1509.8894,-193.5043 1499.3021,-193.1043 1507.3291,-200.0193 1509.8894,-193.5043"/>
</g>
<!-- Node38 -->
<g id="node33" class="node">
<title>Node38</title>
<polygon fill="#ffffff" stroke="#bfbfbf" points="2439,-174 2439,-193 2483,-193 2483,-174 2439,-174"/>
<text text-anchor="middle" x="2461" y="-181" font-family="Helvetica,sans-Serif" font-size="10.00" fill="#000000">omp.h</text>
</g>
<!-- Node37&#45;&gt;Node38 -->
<g id="edge68" class="edge">
<title>Node37&#45;&gt;Node38</title>
<path fill="none" stroke="#191970" d="M1783.0941,-245.4641C1927.592,-232.2563 2314.2105,-196.9173 2428.6547,-186.4565"/>
<polygon fill="#191970" stroke="#191970" points="2429.2232,-189.9192 2438.8631,-185.5234 2428.586,-182.9483 2429.2232,-189.9192"/>
</g>
<!-- Node65&#45;&gt;Node1 -->
<g id="edge78" class="edge">
<title>Node65&#45;&gt;Node1</title>
<path fill="none" stroke="#191970" d="M2090.4621,-307.9799C2116.2376,-300.2835 2148.6146,-287.1653 2171,-266 2206.2412,-232.6795 2185.4958,-203.0666 2219,-168 2233.4985,-152.8254 2254.1215,-141.4316 2271.3045,-133.7795"/>
<polygon fill="#191970" stroke="#191970" points="2273.1007,-136.8203 2280.9517,-129.7061 2270.3778,-130.3716 2273.1007,-136.8203"/>
</g>
<!-- Node65&#45;&gt;Node4 -->
<g id="edge79" class="edge">
<title>Node65&#45;&gt;Node4</title>
<path fill="none" stroke="#191970" d="M2054.7888,-307.849C2064.0424,-291.0327 2079.4388,-256.1396 2062,-235 2019.7333,-183.7636 1556.8885,-139.6076 1402.0925,-126.1804"/>
<polygon fill="#191970" stroke="#191970" points="1402.1825,-122.6753 1391.919,-125.3038 1401.5816,-129.6495 1402.1825,-122.6753"/>
</g>
<!-- Node65&#45;&gt;Node12 -->
<g id="edge77" class="edge">
<title>Node65&#45;&gt;Node12</title>
<path fill="none" stroke="#191970" d="M2064.9358,-307.9278C2094.9778,-288.5307 2157,-241.4658 2157,-183.5 2157,-183.5 2157,-183.5 2157,-122 2157,-45.2909 2757.9332,-16.8818 2902.839,-11.1464"/>
<polygon fill="#191970" stroke="#191970" points="2903.3603,-14.6289 2913.2171,-10.7439 2903.089,-7.6342 2903.3603,-14.6289"/>
</g>
<!-- Node65&#45;&gt;Node19 -->
<g id="edge76" class="edge">
<title>Node65&#45;&gt;Node19</title>
<path fill="none" stroke="#191970" d="M2047.424,-307.9005C2045.8066,-298.0495 2043.2447,-282.4451 2041.2,-269.9912"/>
<polygon fill="#191970" stroke="#191970" points="2044.6471,-269.3825 2039.5731,-260.0817 2037.7395,-270.5166 2044.6471,-269.3825"/>
</g>
<!-- Node65&#45;&gt;Node24 -->
<g id="edge75" class="edge">
<title>Node65&#45;&gt;Node24</title>
<path fill="none" stroke="#191970" d="M2038.9707,-307.9005C2027.8469,-297.2535 2009.7013,-279.8856 1996.279,-267.0385"/>
<polygon fill="#191970" stroke="#191970" points="1998.655,-264.4678 1989.0107,-260.0817 1993.8148,-269.5247 1998.655,-264.4678"/>
</g>
<!-- Node65&#45;&gt;Node63 -->
<g id="edge80" class="edge">
<title>Node65&#45;&gt;Node63</title>
<path fill="none" stroke="#191970" d="M1996.7414,-313.3134C1890.6442,-304.7717 1642.3738,-284.571 1434,-266 1396.0861,-262.621 1353.266,-258.5658 1320.8895,-255.451"/>
<polygon fill="#191970" stroke="#191970" points="1321.0538,-251.9506 1310.764,-254.4747 1320.382,-258.9183 1321.0538,-251.9506"/>
</g>
<!-- Node70&#45;&gt;Node1 -->
<g id="edge85" class="edge">
<title>Node70&#45;&gt;Node1</title>
<path fill="none" stroke="#191970" d="M2303,-240.8416C2303,-219.9114 2303,-170.004 2303,-141.9762"/>
<polygon fill="#191970" stroke="#191970" points="2306.5001,-141.7704 2303,-131.7705 2299.5001,-141.7705 2306.5001,-141.7704"/>
</g>
<!-- Node70&#45;&gt;Node16 -->
<g id="edge83" class="edge">
<title>Node70&#45;&gt;Node16</title>
<path fill="none" stroke="#191970" d="M2260.958,-247.8473C2112.3583,-238.4232 1619.0024,-206.7098 1586,-199 1550.4768,-190.7013 1545.6212,-175.8675 1510,-168 1345.3342,-131.631 920.4373,-140.1485 752,-132 690.1458,-129.0077 617.6947,-125.4184 578.2459,-123.4569"/>
<polygon fill="#191970" stroke="#191970" points="578.1923,-119.95 568.0307,-122.9487 577.8444,-126.9414 578.1923,-119.95"/>
</g>
<!-- Node70&#45;&gt;Node17 -->
<g id="edge84" class="edge">
<title>Node70&#45;&gt;Node17</title>
<path fill="none" stroke="#191970" d="M2313.9622,-240.8818C2334.8784,-223.1328 2382.6318,-185.4531 2430,-168 2488.4265,-146.4724 2673.9179,-130.2703 2749.4879,-124.3986"/>
<polygon fill="#191970" stroke="#191970" points="2750.1083,-127.8615 2759.8117,-123.6079 2749.5736,-120.8819 2750.1083,-127.8615"/>
</g>
<!-- Node70&#45;&gt;Node49 -->
<g id="edge86" class="edge">
<title>Node70&#45;&gt;Node49</title>
<path fill="none" stroke="#191970" d="M2260.7758,-247.7093C2212.6643,-244.5469 2131.6769,-239.2766 2062,-235 1788.2702,-218.199 1719.2427,-222.4241 1446,-199 1421.382,-196.8896 1394.3425,-193.961 1370.8369,-191.2172"/>
<polygon fill="#191970" stroke="#191970" points="1370.9947,-187.7116 1360.6532,-190.0144 1370.1736,-194.6632 1370.9947,-187.7116"/>
</g>
<!-- Node72&#45;&gt;Node1 -->
<g id="edge88" class="edge">
<title>Node72&#45;&gt;Node1</title>
<path fill="none" stroke="#191970" d="M1197.7886,-441.9549C1210.7605,-439.6391 1224.8828,-437.4229 1238,-436 1637.751,-392.6354 1745.3794,-466.1324 2142,-400 2244.4985,-382.9094 2276.9675,-386.584 2366,-333 2445.0565,-285.42 2549.0106,-240.5505 2492,-168 2472.8524,-143.6331 2384.0167,-130.5615 2335.257,-125.1136"/>
<polygon fill="#191970" stroke="#191970" points="2335.5307,-121.623 2325.2144,-124.0361 2334.7839,-128.583 2335.5307,-121.623"/>
</g>
<!-- Node72&#45;&gt;Node21 -->
<g id="edge89" class="edge">
<title>Node72&#45;&gt;Node21</title>
<path fill="none" stroke="#191970" d="M1147.7637,-441.8631C1140.4014,-419.9398 1122.2825,-365.9858 1112.5057,-336.8727"/>
<polygon fill="#191970" stroke="#191970" points="1115.7084,-335.4151 1109.207,-327.0496 1109.0726,-337.6436 1115.7084,-335.4151"/>
</g>
<!-- Node72&#45;&gt;Node49 -->
<g id="edge90" class="edge">
<title>Node72&#45;&gt;Node49</title>
<path fill="none" stroke="#191970" d="M1165.1136,-441.9069C1199.6458,-417.4636 1287.9076,-348.8783 1320,-266 1327.1727,-247.4765 1323.4702,-225.0574 1318.5039,-208.2679"/>
<polygon fill="#191970" stroke="#191970" points="1321.7824,-207.0334 1315.3343,-198.6267 1315.1326,-209.2196 1321.7824,-207.0334"/>
</g>
<!-- Node72&#45;&gt;Node33 -->
<g id="edge91" class="edge">
<title>Node72&#45;&gt;Node33</title>
<path fill="none" stroke="#191970" d="M1072.9024,-446.6469C904.2938,-434.9875 512.3514,-401.1744 400,-333 374.2256,-317.3602 354.0586,-288.0764 342.8409,-268.9367"/>
<polygon fill="#191970" stroke="#191970" points="345.8906,-267.2193 337.9376,-260.2192 339.7894,-270.651 345.8906,-267.2193"/>
</g>
<!-- Node72&#45;&gt;Node73 -->
<g id="edge92" class="edge">
<title>Node72&#45;&gt;Node73</title>
<path fill="none" stroke="#191970" d="M1198.7173,-441.985C1211.4384,-439.7265 1225.204,-437.5313 1238,-436 1516.3923,-402.685 1849.9897,-390.289 1995.3098,-386.2377"/>
<polygon fill="#191970" stroke="#191970" points="1995.5437,-389.7327 2005.4442,-385.9603 1995.3521,-382.7354 1995.5437,-389.7327"/>
</g>
<!-- Node73&#45;&gt;Node1 -->
<g id="edge101" class="edge">
<title>Node73&#45;&gt;Node1</title>
<path fill="none" stroke="#191970" d="M2132.5235,-378.1533C2200.402,-367.6005 2304.8535,-339.6601 2354,-266 2381.2132,-225.2132 2342.5236,-168.2364 2318.9245,-139.7248"/>
<polygon fill="#191970" stroke="#191970" points="2321.3366,-137.1605 2312.1748,-131.8397 2316.0188,-141.7126 2321.3366,-137.1605"/>
</g>
<!-- Node73&#45;&gt;Node2 -->
<g id="edge103" class="edge">
<title>Node73&#45;&gt;Node2</title>
<path fill="none" stroke="#191970" d="M2005.2408,-383.4729C1765.7041,-379.3903 930.7858,-363.0542 883,-333 835.9855,-303.431 814.8169,-236.243 806.9341,-202.9473"/>
<polygon fill="#191970" stroke="#191970" points="810.3246,-202.0693 804.752,-193.0584 803.4891,-203.5777 810.3246,-202.0693"/>
</g>
<!-- Node73&#45;&gt;Node3 -->
<g id="edge96" class="edge">
<title>Node73&#45;&gt;Node3</title>
<path fill="none" stroke="#191970" d="M2005.1525,-382.8862C1782.2076,-377.0594 1049.4333,-356.2221 1005,-333 922.9849,-290.1366 950.026,-226.1034 878,-168 857.8046,-151.7084 830.8875,-139.532 810.5322,-131.8132"/>
<polygon fill="#191970" stroke="#191970" points="811.7189,-128.5205 801.1249,-128.3835 809.3212,-135.0971 811.7189,-128.5205"/>
</g>
<!-- Node73&#45;&gt;Node4 -->
<g id="edge109" class="edge">
<title>Node73&#45;&gt;Node4</title>
<path fill="none" stroke="#191970" d="M2005.1871,-383.6754C1786.814,-380.5456 1081.0584,-367.7679 1048,-333 1021.6031,-305.2381 941.1771,-291.8 1051,-168 1086.7068,-127.7488 1232.051,-140.2387 1302.2637,-131.7611"/>
<polygon fill="#191970" stroke="#191970" points="1303.0651,-135.1815 1312.4578,-130.2798 1302.0584,-128.2543 1303.0651,-135.1815"/>
</g>
<!-- Node73&#45;&gt;Node12 -->
<g id="edge99" class="edge">
<title>Node73&#45;&gt;Node12</title>
<path fill="none" stroke="#191970" d="M2132.5159,-377.8874C2216.5339,-368.9128 2369.157,-351.8218 2499,-333 2580.2051,-321.2287 2600.0031,-315.1278 2681,-302 2784.8682,-285.1653 2818.8561,-308.7592 2915,-266 2934.9152,-257.1429 2934.7302,-246.8859 2953,-235 2982.6564,-215.7062 3005.4842,-229.1483 3024,-199 3057.2611,-144.8428 3057.1736,-110.2109 3024,-56 3011.0913,-34.9051 2985.1178,-23.0951 2964.3774,-16.7402"/>
<polygon fill="#191970" stroke="#191970" points="2965.2688,-13.3554 2954.6963,-14.042 2963.3894,-20.0984 2965.2688,-13.3554"/>
</g>
<!-- Node73&#45;&gt;Node17 -->
<g id="edge95" class="edge">
<title>Node73&#45;&gt;Node17</title>
<path fill="none" stroke="#191970" d="M2132.8237,-376.85C2207.1349,-367.3484 2324.9372,-350.2723 2366,-333 2387.7168,-323.8652 2387.7082,-312.0857 2409,-302 2449.2135,-282.9513 2768.8824,-234.279 2796,-199 2808.8748,-182.2504 2800.9459,-157.4426 2792.7346,-140.5438"/>
<polygon fill="#191970" stroke="#191970" points="2795.7898,-138.8341 2788.0225,-131.6286 2789.6011,-142.1052 2795.7898,-138.8341"/>
</g>
<!-- Node73&#45;&gt;Node19 -->
<g id="edge98" class="edge">
<title>Node73&#45;&gt;Node19</title>
<path fill="none" stroke="#191970" d="M2080.0988,-374.8039C2096.3893,-359.3413 2123.4577,-328.1719 2110,-302 2100.0715,-282.6915 2079.1744,-269.01 2062.4383,-260.6253"/>
<polygon fill="#191970" stroke="#191970" points="2063.7208,-257.3614 2053.1795,-256.298 2060.7569,-263.7029 2063.7208,-257.3614"/>
</g>
<!-- Node73&#45;&gt;Node21 -->
<g id="edge102" class="edge">
<title>Node73&#45;&gt;Node21</title>
<path fill="none" stroke="#191970" d="M2005.4425,-380.078C1829.1796,-367.8147 1335.9483,-333.4985 1165.1267,-321.6137"/>
<polygon fill="#191970" stroke="#191970" points="1165.2857,-318.1164 1155.0669,-320.9138 1164.7998,-325.0995 1165.2857,-318.1164"/>
</g>
<!-- Node73&#45;&gt;Node22 -->
<g id="edge94" class="edge">
<title>Node73&#45;&gt;Node22</title>
<path fill="none" stroke="#191970" d="M2005.4544,-380.5258C1912.2823,-373.921 1743.7261,-358.7943 1689,-333 1591.1284,-286.8696 1607.0573,-215.8199 1510,-168 1426.6271,-126.9223 1394.7999,-151.8443 1304,-132 1303.9,-131.9782 1303.7999,-131.9562 1303.6997,-131.9342"/>
<polygon fill="#191970" stroke="#191970" points="1304.6931,-128.5724 1294.1577,-129.6925 1303.0922,-135.3868 1304.6931,-128.5724"/>
</g>
<!-- Node73&#45;&gt;Node24 -->
<g id="edge97" class="edge">
<title>Node73&#45;&gt;Node24</title>
<path fill="none" stroke="#191970" d="M2042.5547,-374.9106C2024.0553,-366.7397 2000.5006,-353.0918 1988,-333 1976.2061,-314.044 1975.3922,-287.81 1976.5872,-270.0535"/>
<polygon fill="#191970" stroke="#191970" points="1980.0806,-270.2877 1977.5389,-260.0023 1973.1118,-269.6278 1980.0806,-270.2877"/>
</g>
<!-- Node73&#45;&gt;Node31 -->
<g id="edge100" class="edge">
<title>Node73&#45;&gt;Node31</title>
<path fill="none" stroke="#191970" d="M2085.4887,-374.8327C2098.9409,-365.8989 2116.9837,-351.2628 2125,-333 2130.5376,-320.3841 2129.0825,-315.159 2125,-302 2097.6337,-213.7906 1992.7631,-157.2804 1940.691,-134.0686"/>
<polygon fill="#191970" stroke="#191970" points="1941.8823,-130.7702 1931.3158,-129.996 1939.0933,-137.1906 1941.8823,-130.7702"/>
</g>
<!-- Node73&#45;&gt;Node63 -->
<g id="edge111" class="edge">
<title>Node73&#45;&gt;Node63</title>
<path fill="none" stroke="#191970" d="M2005.1797,-380.5627C1913.1306,-374.2202 1738.0058,-359.6664 1591,-333 1489.0441,-314.5055 1371.6868,-281.2068 1311.0476,-263.0836"/>
<polygon fill="#191970" stroke="#191970" points="1311.6911,-259.6224 1301.1069,-260.0964 1309.6766,-266.3262 1311.6911,-259.6224"/>
</g>
<!-- Node73&#45;&gt;Node34 -->
<g id="edge104" class="edge">
<title>Node73&#45;&gt;Node34</title>
<path fill="none" stroke="#191970" d="M2132.7711,-375.8801C2201.22,-366.3854 2313.0626,-350.1715 2409,-333 2533.9456,-310.6365 2679.7712,-279.0895 2755.8153,-262.2213"/>
<polygon fill="#191970" stroke="#191970" points="2756.6255,-265.6267 2765.6278,-260.0402 2755.1066,-258.7935 2756.6255,-265.6267"/>
</g>
<!-- Node73&#45;&gt;Node37 -->
<g id="edge110" class="edge">
<title>Node73&#45;&gt;Node37</title>
<path fill="none" stroke="#191970" d="M2005.344,-380.1132C1905.0906,-372.5499 1719.7171,-355.6601 1700,-333 1683.8738,-314.4668 1699.4816,-286.2412 1713.0469,-268.0825"/>
<polygon fill="#191970" stroke="#191970" points="1715.9321,-270.0767 1719.3942,-260.0634 1710.4434,-265.7322 1715.9321,-270.0767"/>
</g>
<!-- Node73&#45;&gt;Node38 -->
<g id="edge93" class="edge">
<title>Node73&#45;&gt;Node38</title>
<path fill="none" stroke="#191970" d="M2132.7423,-376.9577C2199.6656,-368.1856 2299.7152,-352.3989 2333,-333 2388.9139,-300.4125 2432.1578,-234.2089 2450.8724,-201.9707"/>
<polygon fill="#191970" stroke="#191970" points="2453.9963,-203.5571 2455.8798,-193.131 2447.9056,-200.1069 2453.9963,-203.5571"/>
</g>
<!-- Node73&#45;&gt;Node41 -->
<g id="edge105" class="edge">
<title>Node73&#45;&gt;Node41</title>
<path fill="none" stroke="#191970" d="M2132.6692,-378.6577C2232.2177,-369.4455 2430.7563,-350.7603 2599,-333 2625.3652,-330.2168 2654.5792,-326.9157 2679.152,-324.0767"/>
<polygon fill="#191970" stroke="#191970" points="2679.8469,-327.5197 2689.3772,-322.8912 2679.0406,-320.5663 2679.8469,-327.5197"/>
</g>
<!-- Node41&#45;&gt;Node1 -->
<g id="edge107" class="edge">
<title>Node41&#45;&gt;Node1</title>
<path fill="none" stroke="#191970" d="M2732.5216,-307.9662C2724.8254,-280.5193 2698.5122,-201.1656 2644,-168 2592.561,-136.7041 2410.689,-126.1726 2335.6974,-123.1095"/>
<polygon fill="#191970" stroke="#191970" points="2335.5654,-119.6018 2325.4368,-122.7102 2335.2931,-126.5965 2335.5654,-119.6018"/>
</g>
<!-- Node41&#45;&gt;Node4 -->
<g id="edge108" class="edge">
<title>Node41&#45;&gt;Node4</title>
<path fill="none" stroke="#191970" d="M2723.9194,-307.6921C2691.2741,-279.5021 2591.496,-198.3351 2492,-168 2439.2476,-151.9165 1615.2735,-128.9972 1402.0578,-123.3132"/>
<polygon fill="#191970" stroke="#191970" points="1401.8778,-119.8073 1391.7882,-123.0402 1401.6917,-126.8048 1401.8778,-119.8073"/>
</g>
<!-- Node41&#45;&gt;Node12 -->
<g id="edge106" class="edge">
<title>Node41&#45;&gt;Node12</title>
<path fill="none" stroke="#191970" d="M2780.9758,-308.4343C2835.3233,-297.4049 2922.2665,-278.6894 2953,-266 3005.5607,-244.2985 3034.2486,-248.6331 3062,-199 3093.0168,-143.5269 3098.5597,-107.9875 3062,-56 3050.5516,-39.7206 2998.6848,-24.936 2964.5898,-16.7357"/>
<polygon fill="#191970" stroke="#191970" points="2965.1781,-13.2789 2954.6436,-14.4078 2963.5828,-20.0947 2965.1781,-13.2789"/>
</g>
<!-- Node82&#45;&gt;Node1 -->
<g id="edge124" class="edge">
<title>Node82&#45;&gt;Node1</title>
<path fill="none" stroke="#191970" d="M1630.6385,-517.8463C1856.3473,-515.221 2606.97,-503.7484 2642,-467 2689.579,-417.0871 2615.7101,-207.2304 2559,-168 2523.1788,-143.2199 2395.9672,-129.6647 2335.4479,-124.4889"/>
<polygon fill="#191970" stroke="#191970" points="2335.5578,-120.9861 2325.3024,-123.6467 2334.9786,-127.9621 2335.5578,-120.9861"/>
</g>
<!-- Node82&#45;&gt;Node3 -->
<g id="edge120" class="edge">
<title>Node82&#45;&gt;Node3</title>
<path fill="none" stroke="#191970" d="M1503.4377,-517.142C1284.4734,-512.2399 569.4591,-494.2924 470,-467 368.9448,-439.2696 324.1825,-426.0569 276,-333 242.1234,-267.5728 232.937,-212.0444 292,-168 310.4857,-154.2149 646.962,-130.8768 750.7637,-123.9771"/>
<polygon fill="#191970" stroke="#191970" points="751.1383,-127.4601 760.8855,-123.3075 750.6762,-120.4754 751.1383,-127.4601"/>
</g>
<!-- Node82&#45;&gt;Node6 -->
<g id="edge140" class="edge">
<title>Node82&#45;&gt;Node6</title>
<path fill="none" stroke="#191970" d="M1630.6978,-518.0514C1833.5457,-516.2227 2462.7672,-507.3588 2662,-467 2807.5128,-437.5233 2891.9593,-460.5174 2968,-333 3022.8961,-240.9413 3061.8278,-236.1584 2836,-112 2789.2692,-86.3078 1988.5248,-70.4715 1782.8453,-66.8154"/>
<polygon fill="#191970" stroke="#191970" points="1782.7239,-63.3128 1772.6637,-66.6357 1782.6003,-70.3117 1782.7239,-63.3128"/>
</g>
<!-- Node82&#45;&gt;Node11 -->
<g id="edge119" class="edge">
<title>Node82&#45;&gt;Node11</title>
<path fill="none" stroke="#191970" d="M1503.0718,-517.8466C1233.1591,-514.877 197.9297,-501.2874 138,-467 38.9568,-410.3348 0,-364.6074 0,-250.5 0,-250.5 0,-250.5 0,-122 0,-36.974 663.5865,-15.0101 830.3362,-10.8332"/>
<polygon fill="#191970" stroke="#191970" points="830.6772,-14.326 840.5889,-10.5833 830.5065,-7.3281 830.6772,-14.326"/>
</g>
<!-- Node82&#45;&gt;Node16 -->
<g id="edge116" class="edge">
<title>Node82&#45;&gt;Node16</title>
<path fill="none" stroke="#191970" d="M1503.2732,-517.8335C1237.7999,-514.8415 230.8552,-501.2686 173,-467 112.5965,-431.222 23.7956,-219.9652 71,-168 101.2574,-134.691 420.4772,-124.8469 519.725,-122.5805"/>
<polygon fill="#191970" stroke="#191970" points="520.0116,-126.0751 529.9324,-122.3567 519.8581,-119.0768 520.0116,-126.0751"/>
</g>
<!-- Node82&#45;&gt;Node17 -->
<g id="edge118" class="edge">
<title>Node82&#45;&gt;Node17</title>
<path fill="none" stroke="#191970" d="M1630.904,-517.3323C1873.5291,-512.7075 2729.9883,-494.5721 2849,-467 2920.9224,-450.3374 2954.5314,-457.3685 3001,-400 3047.8175,-342.2007 3069.193,-297.5873 3029,-235 2980.8833,-160.0741 2869.3624,-134.2005 2814.1527,-125.7812"/>
<polygon fill="#191970" stroke="#191970" points="2814.606,-122.3105 2804.2118,-124.3624 2813.6169,-129.2403 2814.606,-122.3105"/>
</g>
<!-- Node82&#45;&gt;Node22 -->
<g id="edge115" class="edge">
<title>Node82&#45;&gt;Node22</title>
<path fill="none" stroke="#191970" d="M1520.4816,-503.4876C1500.1167,-495.1751 1477.0351,-483.1915 1460,-467 1429.7266,-438.2256 1415,-426.2665 1415,-384.5 1415,-384.5 1415,-384.5 1415,-317.5 1415,-248.1108 1415.9296,-220.0128 1370,-168 1360.7009,-157.4692 1329.5989,-144.4305 1303.8099,-134.9269"/>
<polygon fill="#191970" stroke="#191970" points="1304.8369,-131.5766 1294.2426,-131.4703 1302.4583,-138.1601 1304.8369,-131.5766"/>
</g>
<!-- Node82&#45;&gt;Node24 -->
<g id="edge121" class="edge">
<title>Node82&#45;&gt;Node24</title>
<path fill="none" stroke="#191970" d="M1626.4238,-503.4733C1654.8599,-494.9586 1688.7752,-482.8122 1717,-467 1821.0268,-408.7217 1924.0754,-307.548 1962.8708,-267.5126"/>
<polygon fill="#191970" stroke="#191970" points="1965.5479,-269.7781 1969.9535,-260.1427 1960.5008,-264.9277 1965.5479,-269.7781"/>
</g>
<!-- Node82&#45;&gt;Node53 -->
<g id="edge122" class="edge">
<title>Node82&#45;&gt;Node53</title>
<path fill="none" stroke="#191970" d="M1503.3755,-517.7942C1242.9823,-514.6861 269.6371,-500.8409 214,-467 119.658,-409.6172 104.7007,-257.4359 102.395,-203.1128"/>
<polygon fill="#191970" stroke="#191970" points="105.8919,-202.9574 102.071,-193.0756 98.8955,-203.1833 105.8919,-202.9574"/>
</g>
<!-- Node82&#45;&gt;Node54 -->
<g id="edge131" class="edge">
<title>Node82&#45;&gt;Node54</title>
<path fill="none" stroke="#191970" d="M1503.493,-516.3207C1327.4957,-510.0435 835.958,-490.8386 676,-467 551.1496,-448.3935 508.3131,-464.8236 400,-400 323.517,-354.2262 227.3457,-302.116 286,-235 306.6218,-211.4032 502.027,-194.7121 604.6774,-187.4936"/>
<polygon fill="#191970" stroke="#191970" points="605.1806,-190.9672 614.9144,-186.7835 604.6962,-183.9839 605.1806,-190.9672"/>
</g>
<!-- Node82&#45;&gt;Node49 -->
<g id="edge132" class="edge">
<title>Node82&#45;&gt;Node49</title>
<path fill="none" stroke="#191970" d="M1503.445,-505.3319C1463.0306,-495.7572 1415.644,-481.906 1401,-467 1374.2384,-439.7596 1377,-422.6867 1377,-384.5 1377,-384.5 1377,-384.5 1377,-317.5 1377,-274.8422 1349.2574,-232.009 1329.2124,-206.628"/>
<polygon fill="#191970" stroke="#191970" points="1331.7926,-204.2538 1322.7608,-198.715 1326.3673,-208.6772 1331.7926,-204.2538"/>
</g>
<!-- Node82&#45;&gt;Node31 -->
<g id="edge123" class="edge">
<title>Node82&#45;&gt;Node31</title>
<path fill="none" stroke="#191970" d="M1593.203,-503.2894C1653.8041,-467.6756 1801.129,-378.4629 1836,-333 1882.1843,-272.7874 1901.5423,-181.7291 1908.1328,-141.8676"/>
<polygon fill="#191970" stroke="#191970" points="1911.6132,-142.2637 1909.6949,-131.844 1904.6967,-141.1857 1911.6132,-142.2637"/>
</g>
<!-- Node82&#45;&gt;Node35 -->
<g id="edge141" class="edge">
<title>Node82&#45;&gt;Node35</title>
<path fill="none" stroke="#191970" d="M1520.8458,-503.4044C1503.9715,-495.3939 1486.6633,-483.6632 1477,-467 1439.8693,-402.973 1468.5569,-309.7244 1483.9139,-269.8037"/>
<polygon fill="#191970" stroke="#191970" points="1487.1957,-271.0229 1487.655,-260.438 1480.6952,-268.4262 1487.1957,-271.0229"/>
</g>
<!-- Node82&#45;&gt;Node36 -->
<g id="edge117" class="edge">
<title>Node82&#45;&gt;Node36</title>
<path fill="none" stroke="#191970" d="M1567.7712,-503.3124C1570.1521,-451.3924 1575.7585,-281.6073 1550,-235 1544.5697,-225.1745 1521.8888,-209.7912 1503.4149,-198.3934"/>
<polygon fill="#191970" stroke="#191970" points="1505.1441,-195.3489 1494.7778,-193.1601 1501.5166,-201.3357 1505.1441,-195.3489"/>
</g>
<!-- Node82&#45;&gt;Node33 -->
<g id="edge137" class="edge">
<title>Node82&#45;&gt;Node33</title>
<path fill="none" stroke="#191970" d="M1503.231,-514.5242C1302.4471,-501.5263 685.297,-457.7837 494,-400 431.0192,-380.9758 405.3603,-382.4811 362,-333 346.3393,-315.1286 338.9881,-288.2717 335.6396,-270.0969"/>
<polygon fill="#191970" stroke="#191970" points="339.0697,-269.3817 334.0334,-260.0604 332.1577,-270.4879 339.0697,-269.3817"/>
</g>
<!-- Node82&#45;&gt;Node38 -->
<g id="edge114" class="edge">
<title>Node82&#45;&gt;Node38</title>
<path fill="none" stroke="#191970" d="M1630.6657,-516.6418C1720.1525,-512.8432 1887.6741,-501.3758 2026,-467 2183.629,-427.8271 2230.5112,-422.5779 2366,-333 2400.8675,-309.9475 2409.8695,-301.4599 2432,-266 2444.3304,-246.243 2452.2963,-220.5412 2456.701,-203.1128"/>
<polygon fill="#191970" stroke="#191970" points="2460.1971,-203.5373 2459.0913,-193.0003 2453.3848,-201.927 2460.1971,-203.5373"/>
</g>
<!-- Node82&#45;&gt;Node65 -->
<g id="edge138" class="edge">
<title>Node82&#45;&gt;Node65</title>
<path fill="none" stroke="#191970" d="M1630.6912,-509.1286C1672.7442,-501.3998 1728.3094,-488.1895 1774,-467 1795.3732,-457.0879 1796.8955,-448.2829 1817,-436 1886.5756,-393.4927 1973.2072,-352.0897 2018.3721,-331.3143"/>
<polygon fill="#191970" stroke="#191970" points="2019.9844,-334.4257 2027.6212,-327.082 2017.0716,-328.0604 2019.9844,-334.4257"/>
</g>
<!-- Node82&#45;&gt;Node72 -->
<g id="edge136" class="edge">
<title>Node82&#45;&gt;Node72</title>
<path fill="none" stroke="#191970" d="M1503.25,-508.9272C1436.9239,-498.8724 1330.0887,-482.4091 1238,-467 1230.0393,-465.668 1221.6764,-464.2288 1213.4127,-462.7828"/>
<polygon fill="#191970" stroke="#191970" points="1213.8712,-459.3097 1203.4157,-461.0223 1212.6571,-466.2037 1213.8712,-459.3097"/>
</g>
<!-- Node82&#45;&gt;Node73 -->
<g id="edge139" class="edge">
<title>Node82&#45;&gt;Node73</title>
<path fill="none" stroke="#191970" d="M1630.8882,-516.1572C1733.8652,-511.4933 1931.2528,-498.6259 1993,-467 2021.5992,-452.352 2044.9042,-422.314 2057.8589,-402.8097"/>
<polygon fill="#191970" stroke="#191970" points="2060.9287,-404.5057 2063.3648,-394.1947 2055.0304,-400.736 2060.9287,-404.5057"/>
</g>
<!-- Node79 -->
<g id="node40" class="node">
<title>Node79</title>
<polygon fill="#ffffff" stroke="#bfbfbf" points="1826,-442 1826,-461 1878,-461 1878,-442 1826,-442"/>
<text text-anchor="middle" x="1852" y="-449" font-family="Helvetica,sans-Serif" font-size="10.00" fill="#000000">assert.h</text>
</g>
<!-- Node82&#45;&gt;Node79 -->
<g id="edge113" class="edge">
<title>Node82&#45;&gt;Node79</title>
<path fill="none" stroke="#191970" d="M1630.647,-508.0526C1680.518,-499.1657 1751.3719,-484.989 1812,-467 1814.5882,-466.232 1817.2455,-465.3708 1819.9004,-464.4581"/>
<polygon fill="#191970" stroke="#191970" points="1821.1813,-467.7165 1829.3767,-461.0019 1818.7828,-461.1402 1821.1813,-467.7165"/>
</g>
<!-- Node83 -->
<g id="node41" class="node">
<title>Node83</title>
<polygon fill="#ffffff" stroke="#bfbfbf" points="1896,-442 1896,-461 1984,-461 1984,-442 1896,-442"/>
<text text-anchor="middle" x="1940" y="-449" font-family="Helvetica,sans-Serif" font-size="10.00" fill="#000000">morton/morton.h</text>
</g>
<!-- Node82&#45;&gt;Node83 -->
<g id="edge125" class="edge">
<title>Node82&#45;&gt;Node83</title>
<path fill="none" stroke="#191970" d="M1630.5923,-510.65C1695.4891,-502.0824 1798.9032,-486.8893 1887,-467 1891.2082,-466.0499 1895.5745,-464.955 1899.9135,-463.7953"/>
<polygon fill="#191970" stroke="#191970" points="1901.2083,-467.0679 1909.9005,-461.0101 1899.3279,-460.3252 1901.2083,-467.0679"/>
</g>
<!-- Node84 -->
<g id="node42" class="node">
<title>Node84</title>
<g id="a_node42"><a xlink:href="agent__vector_8h.html" target="_top" xlink:title="core/container/agent\l_vector.h">
<polygon fill="#ffffff" stroke="#000000" points="2527.5,-436.5 2527.5,-466.5 2632.5,-466.5 2632.5,-436.5 2527.5,-436.5"/>
<text text-anchor="start" x="2535.5" y="-454.5" font-family="Helvetica,sans-Serif" font-size="10.00" fill="#000000">core/container/agent</text>
<text text-anchor="middle" x="2580" y="-443.5" font-family="Helvetica,sans-Serif" font-size="10.00" fill="#000000">_vector.h</text>
</a>
</g>
</g>
<!-- Node82&#45;&gt;Node84 -->
<g id="edge126" class="edge">
<title>Node82&#45;&gt;Node84</title>
<path fill="none" stroke="#191970" d="M1630.7646,-516.4687C1814.3467,-510.3917 2341.9056,-491.2619 2513,-467 2514.4776,-466.7905 2515.9707,-466.5644 2517.4741,-466.324"/>
<polygon fill="#191970" stroke="#191970" points="2518.2574,-469.7399 2527.4946,-464.551 2517.0377,-462.847 2518.2574,-469.7399"/>
</g>
<!-- Node85 -->
<g id="node43" class="node">
<title>Node85</title>
<g id="a_node43"><a xlink:href="fixed__size__vector_8h.html" target="_top" xlink:title="core/container/fixed\l_size_vector.h">
<polygon fill="#ffffff" stroke="#ff0000" points="1247,-436.5 1247,-466.5 1349,-466.5 1349,-436.5 1247,-436.5"/>
<text text-anchor="start" x="1255" y="-454.5" font-family="Helvetica,sans-Serif" font-size="10.00" fill="#000000">core/container/fixed</text>
<text text-anchor="middle" x="1298" y="-443.5" font-family="Helvetica,sans-Serif" font-size="10.00" fill="#000000">_size_vector.h</text>
</a>
</g>
</g>
<!-- Node82&#45;&gt;Node85 -->
<g id="edge130" class="edge">
<title>Node82&#45;&gt;Node85</title>
<path fill="none" stroke="#191970" d="M1506.6311,-503.4639C1462.5638,-492.488 1403.0566,-477.6665 1358.8723,-466.6615"/>
<polygon fill="#191970" stroke="#191970" points="1359.6729,-463.2541 1349.1235,-464.2334 1357.9811,-470.0465 1359.6729,-463.2541"/>
</g>
<!-- Node80 -->
<g id="node44" class="node">
<title>Node80</title>
<g id="a_node44"><a xlink:href="parallel__resize__vector_8h.html" target="_top" xlink:title="core/container/parallel\l_resize_vector.h">
<polygon fill="#ffffff" stroke="#ff0000" points="1595,-168.5 1595,-198.5 1707,-198.5 1707,-168.5 1595,-168.5"/>
<text text-anchor="start" x="1603" y="-186.5" font-family="Helvetica,sans-Serif" font-size="10.00" fill="#000000">core/container/parallel</text>
<text text-anchor="middle" x="1651" y="-175.5" font-family="Helvetica,sans-Serif" font-size="10.00" fill="#000000">_resize_vector.h</text>
</a>
</g>
</g>
<!-- Node82&#45;&gt;Node80 -->
<g id="edge133" class="edge">
<title>Node82&#45;&gt;Node80</title>
<path fill="none" stroke="#191970" d="M1570.8276,-503.2352C1584.0832,-450.3704 1628.1211,-274.7433 1644.6545,-208.8066"/>
<polygon fill="#191970" stroke="#191970" points="1648.1126,-209.4054 1647.1499,-198.8544 1641.3228,-207.7029 1648.1126,-209.4054"/>
</g>
<!-- Node84&#45;&gt;Node1 -->
<g id="edge127" class="edge">
<title>Node84&#45;&gt;Node1</title>
<path fill="none" stroke="#191970" d="M2583.556,-436.1931C2594.1858,-386.0676 2619.701,-226.7055 2530,-168 2498.2994,-147.2533 2390.2744,-132.1255 2335.4633,-125.5856"/>
<polygon fill="#191970" stroke="#191970" points="2335.5874,-122.0764 2325.249,-124.393 2334.7756,-129.0292 2335.5874,-122.0764"/>
</g>
<!-- Node84&#45;&gt;Node73 -->
<g id="edge128" class="edge">
<title>Node84&#45;&gt;Node73</title>
<path fill="none" stroke="#191970" d="M2527.2387,-444.5822C2435.6827,-432.5778 2247.1909,-407.8636 2142.741,-394.1686"/>
<polygon fill="#191970" stroke="#191970" points="2142.963,-390.6678 2132.5928,-392.838 2142.0529,-397.6084 2142.963,-390.6678"/>
</g>
<!-- Node84&#45;&gt;Node41 -->
<g id="edge129" class="edge">
<title>Node84&#45;&gt;Node41</title>
<path fill="none" stroke="#191970" d="M2597.4792,-436.389C2626.8609,-410.988 2685.8986,-359.9489 2716.1654,-333.7828"/>
<polygon fill="#191970" stroke="#191970" points="2718.6148,-336.2919 2723.8907,-327.1042 2714.0367,-330.9965 2718.6148,-336.2919"/>
</g>
<!-- Node80&#45;&gt;Node1 -->
<g id="edge134" class="edge">
<title>Node80&#45;&gt;Node1</title>
<path fill="none" stroke="#191970" d="M1707.2529,-174.7944C1723.8889,-172.391 1742.1558,-169.9192 1759,-168 1952.7424,-145.9248 2186.4226,-129.6221 2270.7228,-124.0709"/>
<polygon fill="#191970" stroke="#191970" points="2271.181,-127.5485 2280.9312,-123.4033 2270.7241,-120.5634 2271.181,-127.5485"/>
</g>
<!-- Node80&#45;&gt;Node4 -->
<g id="edge135" class="edge">
<title>Node80&#45;&gt;Node4</title>
<path fill="none" stroke="#191970" d="M1594.8571,-170.9665C1590.1719,-169.9515 1585.5061,-168.9514 1581,-168 1519.3992,-154.9942 1448.288,-140.8445 1401.8597,-131.722"/>
<polygon fill="#191970" stroke="#191970" points="1402.2507,-128.232 1391.7639,-129.7411 1400.9029,-135.101 1402.2507,-128.232"/>
</g>
<!-- Node86&#45;&gt;Node70 -->
<g id="edge143" class="edge">
<title>Node86&#45;&gt;Node70</title>
<path fill="none" stroke="#191970" d="M3143.46,-313.2069C2979.7027,-300.989 2512.8022,-266.1534 2355.4808,-254.4156"/>
<polygon fill="#191970" stroke="#191970" points="2355.367,-250.8975 2345.1342,-253.6436 2354.8461,-257.8781 2355.367,-250.8975"/>
</g>
<!-- Node87 -->
<g id="node46" class="node">
<title>Node87</title>
<polygon fill="#ffffff" stroke="#bfbfbf" points="3167.5,-241 3167.5,-260 3216.5,-260 3216.5,-241 3167.5,-241"/>
<text text-anchor="middle" x="3192" y="-248" font-family="Helvetica,sans-Serif" font-size="10.00" fill="#000000">stdint.h</text>
</g>
<!-- Node86&#45;&gt;Node87 -->
<g id="edge144" class="edge">
<title>Node86&#45;&gt;Node87</title>
<path fill="none" stroke="#191970" d="M3198.9578,-302.2967C3197.678,-292.7699 3196.0158,-280.3954 3194.637,-270.1306"/>
<polygon fill="#191970" stroke="#191970" points="3198.0838,-269.5 3193.2835,-260.055 3191.1461,-270.4319 3198.0838,-269.5"/>
</g>
<!-- Node88 -->
<g id="node47" class="node">
<title>Node88</title>
<polygon fill="#ffffff" stroke="#bfbfbf" points="3235,-241 3235,-260 3281,-260 3281,-241 3235,-241"/>
<text text-anchor="middle" x="3258" y="-248" font-family="Helvetica,sans-Serif" font-size="10.00" fill="#000000">stdio.h</text>
</g>
<!-- Node86&#45;&gt;Node88 -->
<g id="edge145" class="edge">
<title>Node86&#45;&gt;Node88</title>
<path fill="none" stroke="#191970" d="M3213.9342,-302.2967C3222.6426,-292.0605 3234.148,-278.5366 3243.2186,-267.8746"/>
<polygon fill="#191970" stroke="#191970" points="3246.0571,-269.9395 3249.8711,-260.055 3240.7255,-265.4036 3246.0571,-269.9395"/>
</g>
<!-- Node89&#45;&gt;Node21 -->
<g id="edge147" class="edge">
<title>Node89&#45;&gt;Node21</title>
<path fill="none" stroke="#191970" d="M2727.1668,-382.3467C2476.7092,-372.3284 1426.6534,-330.3261 1165.1664,-319.8667"/>
<polygon fill="#191970" stroke="#191970" points="1165.2442,-316.3671 1155.1122,-319.4645 1164.9643,-323.3615 1165.2442,-316.3671"/>
</g>
<!-- Node89&#45;&gt;Node34 -->
<g id="edge148" class="edge">
<title>Node89&#45;&gt;Node34</title>
<path fill="none" stroke="#191970" d="M2784.0448,-369.389C2788.966,-344.9649 2798.6634,-296.8371 2804.0891,-269.9095"/>
<polygon fill="#191970" stroke="#191970" points="2807.5206,-270.5985 2806.0648,-260.1042 2800.6585,-269.2158 2807.5206,-270.5985"/>
</g>
<!-- Node89&#45;&gt;Node65 -->
<g id="edge151" class="edge">
<title>Node89&#45;&gt;Node65</title>
<path fill="none" stroke="#191970" d="M2727.4709,-379.6005C2595.1585,-367.4899 2253.2145,-336.1918 2111.7237,-323.2411"/>
<polygon fill="#191970" stroke="#191970" points="2111.7618,-319.73 2101.4843,-322.3039 2111.1237,-326.7009 2111.7618,-319.73"/>
</g>
<!-- Node89&#45;&gt;Node41 -->
<g id="edge152" class="edge">
<title>Node89&#45;&gt;Node41</title>
<path fill="none" stroke="#191970" d="M2770.5619,-369.2967C2763.6732,-359.2631 2754.6158,-346.0709 2747.366,-335.5113"/>
<polygon fill="#191970" stroke="#191970" points="2750.1056,-333.318 2741.5601,-327.055 2744.3348,-337.28 2750.1056,-333.318"/>
</g>
<!-- Node89&#45;&gt;Node90 -->
<g id="edge149" class="edge">
<title>Node89&#45;&gt;Node90</title>
<path fill="none" stroke="#191970" d="M2807.2571,-369.4639C2823.5511,-360.1332 2844.6982,-348.0232 2862.4784,-337.8415"/>
<polygon fill="#191970" stroke="#191970" points="2864.4872,-340.7244 2871.4257,-332.7177 2861.0086,-334.6499 2864.4872,-340.7244"/>
</g>
<!-- Node90&#45;&gt;Node34 -->
<g id="edge150" class="edge">
<title>Node90&#45;&gt;Node34</title>
<path fill="none" stroke="#191970" d="M2877.5776,-302.2967C2863.1468,-291.5537 2843.8516,-277.1895 2829.2412,-266.3129"/>
<polygon fill="#191970" stroke="#191970" points="2830.9464,-263.219 2820.835,-260.055 2826.7664,-268.8339 2830.9464,-263.219"/>
</g>
</g>
</svg>
