<?xml version="1.0" encoding="UTF-8" standalone="no"?>
<!DOCTYPE svg PUBLIC "-//W3C//DTD SVG 1.1//EN"
 "http://www.w3.org/Graphics/SVG/1.1/DTD/svg11.dtd">
<!-- Generated by graphviz version 2.43.0 (0)
 -->
<!-- Title: core/environment/environment.h Pages: 1 -->
<svg width="1254pt" height="162pt"
 viewBox="0.00 0.00 1254.00 162.00" xmlns="http://www.w3.org/2000/svg" xmlns:xlink="http://www.w3.org/1999/xlink">
<g id="graph0" class="graph" transform="scale(1 1) rotate(0) translate(4 158)">
<title>core/environment/environment.h</title>
<polygon fill="white" stroke="transparent" points="-4,4 -4,-158 1250,-158 1250,4 -4,4"/>
<!-- Node1 -->
<g id="node1" class="node">
<title>Node1</title>
<g id="a_node1"><a xlink:title=" ">
<polygon fill="#bfbfbf" stroke="black" points="447.5,-134.5 447.5,-153.5 624.5,-153.5 624.5,-134.5 447.5,-134.5"/>
<text text-anchor="middle" x="536" y="-141.5" font-family="Helvetica,sans-Serif" font-size="10.00">core/environment/environment.h</text>
</a>
</g>
</g>
<!-- Node2 -->
<g id="node2" class="node">
<title>Node2</title>
<g id="a_node2"><a xlink:href="biodynamo_8h.html" target="_top" xlink:title=" ">
<polygon fill="white" stroke="black" points="0,-73 0,-92 80,-92 80,-73 0,-73"/>
<text text-anchor="middle" x="40" y="-80" font-family="Helvetica,sans-Serif" font-size="10.00">biodynamo.h</text>
</a>
</g>
</g>
<!-- Node1&#45;&gt;Node2 -->
<g id="edge1" class="edge">
<title>Node1&#45;&gt;Node2</title>
<path fill="none" stroke="midnightblue" d="M437.46,-138.39C346.37,-132.88 207.58,-121.3 89,-98 81.25,-96.48 72.97,-94.26 65.46,-92.02"/>
<polygon fill="midnightblue" stroke="midnightblue" points="437.31,-141.89 447.5,-138.99 437.72,-134.9 437.31,-141.89"/>
</g>
<!-- Node3 -->
<g id="node3" class="node">
<title>Node3</title>
<g id="a_node3"><a xlink:href="agent_8cc.html" target="_top" xlink:title=" ">
<polygon fill="white" stroke="black" points="98.5,-73 98.5,-92 211.5,-92 211.5,-73 98.5,-73"/>
<text text-anchor="middle" x="155" y="-80" font-family="Helvetica,sans-Serif" font-size="10.00">core/agent/agent.cc</text>
</a>
</g>
</g>
<!-- Node1&#45;&gt;Node3 -->
<g id="edge2" class="edge">
<title>Node1&#45;&gt;Node3</title>
<path fill="none" stroke="midnightblue" d="M455.7,-133.2C391.88,-125.01 300.46,-112.38 221,-98 211.42,-96.27 201.11,-94.13 191.56,-92.04"/>
<polygon fill="midnightblue" stroke="midnightblue" points="455.33,-136.68 465.7,-134.48 456.22,-129.74 455.33,-136.68"/>
</g>
<!-- Node4 -->
<g id="node4" class="node">
<title>Node4</title>
<g id="a_node4"><a xlink:href="diffusion__grid_8cc.html" target="_top" xlink:title=" ">
<polygon fill="white" stroke="black" points="230,-67.5 230,-97.5 358,-97.5 358,-67.5 230,-67.5"/>
<text text-anchor="start" x="238" y="-85.5" font-family="Helvetica,sans-Serif" font-size="10.00">core/diffusion/diffusion</text>
<text text-anchor="middle" x="294" y="-74.5" font-family="Helvetica,sans-Serif" font-size="10.00">_grid.cc</text>
</a>
</g>
</g>
<!-- Node1&#45;&gt;Node4 -->
<g id="edge3" class="edge">
<title>Node1&#45;&gt;Node4</title>
<path fill="none" stroke="midnightblue" d="M491.44,-132.05C451.91,-122.33 393.94,-108.07 351.03,-97.52"/>
<polygon fill="midnightblue" stroke="midnightblue" points="490.78,-135.49 501.33,-134.48 492.45,-128.69 490.78,-135.49"/>
</g>
<!-- Node5 -->
<g id="node5" class="node">
<title>Node5</title>
<g id="a_node5"><a xlink:href="uniform__grid__environment_8h.html" target="_top" xlink:title=" ">
<polygon fill="white" stroke="black" points="414,-67.5 414,-97.5 558,-97.5 558,-67.5 414,-67.5"/>
<text text-anchor="start" x="422" y="-85.5" font-family="Helvetica,sans-Serif" font-size="10.00">core/environment/uniform</text>
<text text-anchor="middle" x="486" y="-74.5" font-family="Helvetica,sans-Serif" font-size="10.00">_grid_environment.h</text>
</a>
</g>
</g>
<!-- Node1&#45;&gt;Node5 -->
<g id="edge4" class="edge">
<title>Node1&#45;&gt;Node5</title>
<path fill="none" stroke="midnightblue" d="M522.4,-126.81C514.7,-117.65 505.16,-106.3 497.78,-97.52"/>
<polygon fill="midnightblue" stroke="midnightblue" points="519.72,-129.07 528.84,-134.48 525.08,-124.57 519.72,-129.07"/>
</g>
<!-- Node6 -->
<g id="node6" class="node">
<title>Node6</title>
<g id="a_node6"><a xlink:href="mechanical__forces__op__cuda_8cc.html" target="_top" xlink:title=" ">
<polygon fill="white" stroke="black" points="327,-0.5 327,-30.5 473,-30.5 473,-0.5 327,-0.5"/>
<text text-anchor="start" x="335" y="-18.5" font-family="Helvetica,sans-Serif" font-size="10.00">core/operation/mechanical</text>
<text text-anchor="middle" x="400" y="-7.5" font-family="Helvetica,sans-Serif" font-size="10.00">_forces_op_cuda.cc</text>
</a>
</g>
</g>
<!-- Node1&#45;&gt;Node6 -->
<g id="edge14" class="edge">
<title>Node1&#45;&gt;Node6</title>
<path fill="none" stroke="midnightblue" d="M455.65,-131.48C436.2,-124.81 417.45,-114.36 405,-98 390.23,-78.6 393.05,-48.48 396.49,-30.8"/>
<polygon fill="midnightblue" stroke="midnightblue" points="454.64,-134.83 465.23,-134.46 456.72,-128.15 454.64,-134.83"/>
</g>
<!-- Node7 -->
<g id="node7" class="node">
<title>Node7</title>
<g id="a_node7"><a xlink:href="simulation_8cc.html" target="_top" xlink:title=" ">
<polygon fill="white" stroke="black" points="519,-6 519,-25 625,-25 625,-6 519,-6"/>
<text text-anchor="middle" x="572" y="-13" font-family="Helvetica,sans-Serif" font-size="10.00">core/simulation.cc</text>
</a>
</g>
</g>
<!-- Node1&#45;&gt;Node7 -->
<g id="edge16" class="edge">
<title>Node1&#45;&gt;Node7</title>
<path fill="none" stroke="midnightblue" d="M550.45,-126.69C556.71,-118.62 563.41,-108.41 567,-98 575.69,-72.81 574.31,-40.66 572.97,-25.36"/>
<polygon fill="midnightblue" stroke="midnightblue" points="547.67,-124.55 544,-134.49 553.07,-129.01 547.67,-124.55"/>
</g>
<!-- Node8 -->
<g id="node8" class="node">
<title>Node8</title>
<g id="a_node8"><a xlink:href="in__place__exec__ctxt_8cc.html" target="_top" xlink:title=" ">
<polygon fill="white" stroke="black" points="614,-67.5 614,-97.5 744,-97.5 744,-67.5 614,-67.5"/>
<text text-anchor="start" x="622" y="-85.5" font-family="Helvetica,sans-Serif" font-size="10.00">core/execution_context</text>
<text text-anchor="middle" x="679" y="-74.5" font-family="Helvetica,sans-Serif" font-size="10.00">/in_place_exec_ctxt.cc</text>
</a>
</g>
</g>
<!-- Node1&#45;&gt;Node8 -->
<g id="edge7" class="edge">
<title>Node1&#45;&gt;Node8</title>
<path fill="none" stroke="midnightblue" d="M565.83,-130.59C589.01,-120.94 621.18,-107.56 645.3,-97.52"/>
<polygon fill="midnightblue" stroke="midnightblue" points="564.38,-127.4 556.49,-134.48 567.07,-133.86 564.38,-127.4"/>
</g>
<!-- Node9 -->
<g id="node9" class="node">
<title>Node9</title>
<g id="a_node9"><a xlink:href="diffusion__op_8h.html" target="_top" xlink:title=" ">
<polygon fill="white" stroke="black" points="762,-73 762,-92 920,-92 920,-73 762,-73"/>
<text text-anchor="middle" x="841" y="-80" font-family="Helvetica,sans-Serif" font-size="10.00">core/operation/diffusion_op.h</text>
</a>
</g>
</g>
<!-- Node1&#45;&gt;Node9 -->
<g id="edge8" class="edge">
<title>Node1&#45;&gt;Node9</title>
<path fill="none" stroke="midnightblue" d="M589.59,-132.55C648.68,-121.02 742.61,-102.69 797.38,-92.01"/>
<polygon fill="midnightblue" stroke="midnightblue" points="588.84,-129.13 579.7,-134.48 590.18,-136 588.84,-129.13"/>
</g>
<!-- Node12 -->
<g id="node12" class="node">
<title>Node12</title>
<g id="a_node12"><a xlink:href="mechanical__forces__op_8h.html" target="_top" xlink:title=" ">
<polygon fill="white" stroke="black" points="938,-67.5 938,-97.5 1084,-97.5 1084,-67.5 938,-67.5"/>
<text text-anchor="start" x="946" y="-85.5" font-family="Helvetica,sans-Serif" font-size="10.00">core/operation/mechanical</text>
<text text-anchor="middle" x="1011" y="-74.5" font-family="Helvetica,sans-Serif" font-size="10.00">_forces_op.h</text>
</a>
</g>
</g>
<!-- Node1&#45;&gt;Node12 -->
<g id="edge11" class="edge">
<title>Node1&#45;&gt;Node12</title>
<path fill="none" stroke="midnightblue" d="M634.02,-133.45C713.65,-125.29 828.8,-112.58 929,-98 931.86,-97.58 934.78,-97.14 937.72,-96.69"/>
<polygon fill="midnightblue" stroke="midnightblue" points="633.59,-129.98 624,-134.48 634.3,-136.94 633.59,-129.98"/>
</g>
<!-- Node13 -->
<g id="node13" class="node">
<title>Node13</title>
<g id="a_node13"><a xlink:href="resource__manager_8cc.html" target="_top" xlink:title=" ">
<polygon fill="white" stroke="black" points="1102,-73 1102,-92 1246,-92 1246,-73 1102,-73"/>
<text text-anchor="middle" x="1174" y="-80" font-family="Helvetica,sans-Serif" font-size="10.00">core/resource_manager.cc</text>
</a>
</g>
</g>
<!-- Node1&#45;&gt;Node13 -->
<g id="edge15" class="edge">
<title>Node1&#45;&gt;Node13</title>
<path fill="none" stroke="midnightblue" d="M634.77,-137.91C746.35,-131.48 933.23,-118.71 1093,-98 1105.33,-96.4 1118.63,-94.22 1130.82,-92.03"/>
<polygon fill="midnightblue" stroke="midnightblue" points="634.33,-134.43 624.55,-138.49 634.73,-141.42 634.33,-134.43"/>
</g>
<!-- Node5&#45;&gt;Node6 -->
<g id="edge5" class="edge">
<title>Node5&#45;&gt;Node6</title>
<path fill="none" stroke="midnightblue" d="M459.1,-61.17C445.95,-51.23 430.45,-39.51 418.62,-30.58"/>
<polygon fill="midnightblue" stroke="midnightblue" points="457.25,-64.16 467.34,-67.4 461.47,-58.57 457.25,-64.16"/>
</g>
<!-- Node5&#45;&gt;Node7 -->
<g id="edge6" class="edge">
<title>Node5&#45;&gt;Node7</title>
<path fill="none" stroke="midnightblue" d="M512.67,-61.34C528.72,-49.21 548.33,-34.39 560.5,-25.19"/>
<polygon fill="midnightblue" stroke="midnightblue" points="510.53,-58.57 504.66,-67.4 514.75,-64.16 510.53,-58.57"/>
</g>
<!-- Node10 -->
<g id="node10" class="node">
<title>Node10</title>
<g id="a_node10"><a xlink:href="default__ops_8cc.html" target="_top" xlink:title=" ">
<polygon fill="white" stroke="black" points="788.5,-0.5 788.5,-30.5 913.5,-30.5 913.5,-0.5 788.5,-0.5"/>
<text text-anchor="start" x="796.5" y="-18.5" font-family="Helvetica,sans-Serif" font-size="10.00">core/operation/default</text>
<text text-anchor="middle" x="851" y="-7.5" font-family="Helvetica,sans-Serif" font-size="10.00">_ops.cc</text>
</a>
</g>
</g>
<!-- Node9&#45;&gt;Node10 -->
<g id="edge9" class="edge">
<title>Node9&#45;&gt;Node10</title>
<path fill="none" stroke="midnightblue" d="M843.89,-62.74C845.46,-52.49 847.38,-40 848.83,-30.59"/>
<polygon fill="midnightblue" stroke="midnightblue" points="840.41,-62.32 842.35,-72.73 847.33,-63.38 840.41,-62.32"/>
</g>
<!-- Node11 -->
<g id="node11" class="node">
<title>Node11</title>
<g id="a_node11"><a xlink:href="scheduler_8cc.html" target="_top" xlink:title=" ">
<polygon fill="white" stroke="black" points="950.5,-6 950.5,-25 1051.5,-25 1051.5,-6 950.5,-6"/>
<text text-anchor="middle" x="1001" y="-13" font-family="Helvetica,sans-Serif" font-size="10.00">core/scheduler.cc</text>
</a>
</g>
</g>
<!-- Node9&#45;&gt;Node11 -->
<g id="edge10" class="edge">
<title>Node9&#45;&gt;Node11</title>
<path fill="none" stroke="midnightblue" d="M871.51,-69.1C903.28,-56.2 952.19,-36.33 979.92,-25.06"/>
<polygon fill="midnightblue" stroke="midnightblue" points="870.19,-65.86 862.25,-72.87 872.83,-72.35 870.19,-65.86"/>
</g>
<!-- Node12&#45;&gt;Node10 -->
<g id="edge12" class="edge">
<title>Node12&#45;&gt;Node10</title>
<path fill="none" stroke="midnightblue" d="M966.8,-63.54C941.2,-53.14 909.43,-40.24 885.65,-30.58"/>
<polygon fill="midnightblue" stroke="midnightblue" points="965.7,-66.87 976.28,-67.4 968.34,-60.39 965.7,-66.87"/>
</g>
<!-- Node12&#45;&gt;Node11 -->
<g id="edge13" class="edge">
<title>Node12&#45;&gt;Node11</title>
<path fill="none" stroke="midnightblue" d="M1007.27,-57.25C1005.54,-46.02 1003.6,-33.38 1002.34,-25.19"/>
<polygon fill="midnightblue" stroke="midnightblue" points="1003.85,-58.04 1008.83,-67.4 1010.77,-56.98 1003.85,-58.04"/>
</g>
</g>
</svg>
