<?xml version="1.0" encoding="UTF-8" standalone="no"?>
<!DOCTYPE svg PUBLIC "-//W3C//DTD SVG 1.1//EN"
 "http://www.w3.org/Graphics/SVG/1.1/DTD/svg11.dtd">
<!-- Generated by graphviz version 2.43.0 (0)
 -->
<!-- Title: core/diffusion/euler_grid.h Pages: 1 -->
<svg width="1096pt" height="464pt"
 viewBox="0.00 0.00 1096.00 464.00" xmlns="http://www.w3.org/2000/svg" xmlns:xlink="http://www.w3.org/1999/xlink">
<g id="graph0" class="graph" transform="scale(1 1) rotate(0) translate(4 460)">
<title>core/diffusion/euler_grid.h</title>
<polygon fill="white" stroke="transparent" points="-4,4 -4,-460 1092,-460 1092,4 -4,4"/>
<!-- Node1 -->
<g id="node1" class="node">
<title>Node1</title>
<g id="a_node1"><a xlink:title=" ">
<polygon fill="#bfbfbf" stroke="black" points="284,-425.5 284,-455.5 394,-455.5 394,-425.5 284,-425.5"/>
<text text-anchor="start" x="292" y="-443.5" font-family="Helvetica,sans-Serif" font-size="10.00">core/diffusion/euler</text>
<text text-anchor="middle" x="339" y="-432.5" font-family="Helvetica,sans-Serif" font-size="10.00">_grid.h</text>
</a>
</g>
</g>
<!-- Node2 -->
<g id="node2" class="node">
<title>Node2</title>
<g id="a_node2"><a xlink:title=" ">
<polygon fill="white" stroke="#bfbfbf" points="28.5,-168.5 28.5,-187.5 73.5,-187.5 73.5,-168.5 28.5,-168.5"/>
<text text-anchor="middle" x="51" y="-175.5" font-family="Helvetica,sans-Serif" font-size="10.00">utility</text>
</a>
</g>
</g>
<!-- Node1&#45;&gt;Node2 -->
<g id="edge1" class="edge">
<title>Node1&#45;&gt;Node2</title>
<path fill="none" stroke="midnightblue" d="M323.52,-425.49C274.04,-380.75 120.01,-241.42 68.2,-194.56"/>
<polygon fill="midnightblue" stroke="midnightblue" points="70.3,-191.74 60.54,-187.63 65.6,-196.93 70.3,-191.74"/>
</g>
<!-- Node3 -->
<g id="node3" class="node">
<title>Node3</title>
<g id="a_node3"><a xlink:href="diffusion__grid_8h.html" target="_top" xlink:title=" ">
<polygon fill="white" stroke="black" points="671,-358.5 671,-388.5 799,-388.5 799,-358.5 671,-358.5"/>
<text text-anchor="start" x="679" y="-376.5" font-family="Helvetica,sans-Serif" font-size="10.00">core/diffusion/diffusion</text>
<text text-anchor="middle" x="735" y="-365.5" font-family="Helvetica,sans-Serif" font-size="10.00">_grid.h</text>
</a>
</g>
</g>
<!-- Node1&#45;&gt;Node3 -->
<g id="edge2" class="edge">
<title>Node1&#45;&gt;Node3</title>
<path fill="none" stroke="midnightblue" d="M394.06,-430.46C463.52,-419.06 583.22,-399.41 660.73,-386.69"/>
<polygon fill="midnightblue" stroke="midnightblue" points="661.6,-390.09 670.9,-385.02 660.47,-383.19 661.6,-390.09"/>
</g>
<!-- Node3&#45;&gt;Node2 -->
<g id="edge6" class="edge">
<title>Node3&#45;&gt;Node2</title>
<path fill="none" stroke="midnightblue" d="M670.77,-360.44C623.31,-351.11 557.26,-337.23 500,-322 341.81,-279.92 156.61,-216.26 83.26,-190.46"/>
<polygon fill="midnightblue" stroke="midnightblue" points="84.26,-187.1 73.67,-187.08 81.93,-193.71 84.26,-187.1"/>
</g>
<!-- Node4 -->
<g id="node4" class="node">
<title>Node4</title>
<g id="a_node4"><a xlink:title=" ">
<polygon fill="white" stroke="#bfbfbf" points="684,-230 684,-249 726,-249 726,-230 684,-230"/>
<text text-anchor="middle" x="705" y="-237" font-family="Helvetica,sans-Serif" font-size="10.00">array</text>
</a>
</g>
</g>
<!-- Node3&#45;&gt;Node4 -->
<g id="edge3" class="edge">
<title>Node3&#45;&gt;Node4</title>
<path fill="none" stroke="midnightblue" d="M731.79,-358.37C726.34,-334.4 715.28,-285.75 709.22,-259.06"/>
<polygon fill="midnightblue" stroke="midnightblue" points="712.58,-258.07 706.95,-249.1 705.76,-259.62 712.58,-258.07"/>
</g>
<!-- Node5 -->
<g id="node5" class="node">
<title>Node5</title>
<g id="a_node5"><a xlink:title=" ">
<polygon fill="white" stroke="#bfbfbf" points="956.5,-56.5 956.5,-75.5 1021.5,-75.5 1021.5,-56.5 956.5,-56.5"/>
<text text-anchor="middle" x="989" y="-63.5" font-family="Helvetica,sans-Serif" font-size="10.00">functional</text>
</a>
</g>
</g>
<!-- Node3&#45;&gt;Node5 -->
<g id="edge4" class="edge">
<title>Node3&#45;&gt;Node5</title>
<path fill="none" stroke="midnightblue" d="M799.11,-368.49C872.65,-362.65 987.29,-349.37 1020,-322 1049.6,-297.23 1050,-279.1 1050,-240.5 1050,-240.5 1050,-240.5 1050,-177 1050,-139.57 1022.66,-102.96 1004.59,-82.84"/>
<polygon fill="midnightblue" stroke="midnightblue" points="1007.12,-80.43 997.74,-75.51 1002.01,-85.21 1007.12,-80.43"/>
</g>
<!-- Node6 -->
<g id="node6" class="node">
<title>Node6</title>
<g id="a_node6"><a xlink:title=" ">
<polygon fill="white" stroke="#bfbfbf" points="563,-0.5 563,-19.5 607,-19.5 607,-0.5 563,-0.5"/>
<text text-anchor="middle" x="585" y="-7.5" font-family="Helvetica,sans-Serif" font-size="10.00">string</text>
</a>
</g>
</g>
<!-- Node3&#45;&gt;Node6 -->
<g id="edge5" class="edge">
<title>Node3&#45;&gt;Node6</title>
<path fill="none" stroke="midnightblue" d="M670.74,-367.71C491.65,-353.52 0,-308.36 0,-240.5 0,-240.5 0,-240.5 0,-121 0,-64.32 429.6,-24 552.51,-13.63"/>
<polygon fill="midnightblue" stroke="midnightblue" points="553.11,-17.09 562.78,-12.77 552.53,-10.12 553.11,-17.09"/>
</g>
<!-- Node7 -->
<g id="node7" class="node">
<title>Node7</title>
<g id="a_node7"><a xlink:title=" ">
<polygon fill="white" stroke="#bfbfbf" points="1026.5,-0.5 1026.5,-19.5 1073.5,-19.5 1073.5,-0.5 1026.5,-0.5"/>
<text text-anchor="middle" x="1050" y="-7.5" font-family="Helvetica,sans-Serif" font-size="10.00">vector</text>
</a>
</g>
</g>
<!-- Node3&#45;&gt;Node7 -->
<g id="edge7" class="edge">
<title>Node3&#45;&gt;Node7</title>
<path fill="none" stroke="midnightblue" d="M799.21,-368.73C878.23,-362.96 1006.65,-349.58 1045,-322 1078.25,-298.09 1088,-281.45 1088,-240.5 1088,-240.5 1088,-240.5 1088,-121 1088,-86.81 1071.4,-49.76 1060.14,-28.57"/>
<polygon fill="midnightblue" stroke="midnightblue" points="1063.18,-26.83 1055.28,-19.77 1057.05,-30.22 1063.18,-26.83"/>
</g>
<!-- Node8 -->
<g id="node8" class="node">
<title>Node8</title>
<g id="a_node8"><a xlink:href="math__array_8h.html" target="_top" xlink:title=" ">
<polygon fill="white" stroke="black" points="407.5,-224.5 407.5,-254.5 522.5,-254.5 522.5,-224.5 407.5,-224.5"/>
<text text-anchor="start" x="415.5" y="-242.5" font-family="Helvetica,sans-Serif" font-size="10.00">core/container/math</text>
<text text-anchor="middle" x="465" y="-231.5" font-family="Helvetica,sans-Serif" font-size="10.00">_array.h</text>
</a>
</g>
</g>
<!-- Node3&#45;&gt;Node8 -->
<g id="edge8" class="edge">
<title>Node3&#45;&gt;Node8</title>
<path fill="none" stroke="midnightblue" d="M670.77,-365.06C631.19,-358.31 580.61,-345.61 541,-322 515.89,-307.04 493.95,-281.35 480.18,-262.81"/>
<polygon fill="midnightblue" stroke="midnightblue" points="482.96,-260.68 474.28,-254.61 477.28,-264.77 482.96,-260.68"/>
</g>
<!-- Node16 -->
<g id="node16" class="node">
<title>Node16</title>
<g id="a_node16"><a xlink:href="log_8h.html" target="_top" xlink:title=" ">
<polygon fill="white" stroke="black" points="692.5,-112.5 692.5,-131.5 775.5,-131.5 775.5,-112.5 692.5,-112.5"/>
<text text-anchor="middle" x="734" y="-119.5" font-family="Helvetica,sans-Serif" font-size="10.00">core/util/log.h</text>
</a>
</g>
</g>
<!-- Node3&#45;&gt;Node16 -->
<g id="edge40" class="edge">
<title>Node3&#45;&gt;Node16</title>
<path fill="none" stroke="midnightblue" d="M735.05,-358.16C735.12,-331.67 735.24,-273.24 735,-224 734.86,-195.28 734.49,-161.97 734.24,-141.7"/>
<polygon fill="midnightblue" stroke="midnightblue" points="737.74,-141.6 734.11,-131.65 730.74,-141.69 737.74,-141.6"/>
</g>
<!-- Node23 -->
<g id="node23" class="node">
<title>Node23</title>
<g id="a_node23"><a xlink:href="root_8h.html" target="_top" xlink:title=" ">
<polygon fill="white" stroke="black" points="782,-168.5 782,-187.5 870,-187.5 870,-168.5 782,-168.5"/>
<text text-anchor="middle" x="826" y="-175.5" font-family="Helvetica,sans-Serif" font-size="10.00">core/util/root.h</text>
</a>
</g>
</g>
<!-- Node3&#45;&gt;Node23 -->
<g id="edge41" class="edge">
<title>Node3&#45;&gt;Node23</title>
<path fill="none" stroke="midnightblue" d="M745.3,-358.37C752.23,-348.48 761.3,-334.81 768,-322 790.59,-278.83 810.35,-224.83 819.91,-197.17"/>
<polygon fill="midnightblue" stroke="midnightblue" points="823.24,-198.23 823.15,-187.64 816.62,-195.98 823.24,-198.23"/>
</g>
<!-- Node25 -->
<g id="node25" class="node">
<title>Node25</title>
<g id="a_node25"><a xlink:href="parallel__resize__vector_8h.html" target="_top" xlink:title=" ">
<polygon fill="white" stroke="black" points="820,-224.5 820,-254.5 946,-254.5 946,-224.5 820,-224.5"/>
<text text-anchor="start" x="828" y="-242.5" font-family="Helvetica,sans-Serif" font-size="10.00">core/container/parallel</text>
<text text-anchor="middle" x="883" y="-231.5" font-family="Helvetica,sans-Serif" font-size="10.00">_resize_vector.h</text>
</a>
</g>
</g>
<!-- Node3&#45;&gt;Node25 -->
<g id="edge31" class="edge">
<title>Node3&#45;&gt;Node25</title>
<path fill="none" stroke="midnightblue" d="M757.27,-358.3C771.69,-348.71 790.59,-335.4 806,-322 827.45,-303.33 849.5,-279.43 864.47,-262.35"/>
<polygon fill="midnightblue" stroke="midnightblue" points="867.32,-264.41 871.22,-254.56 862.03,-259.82 867.32,-264.41"/>
</g>
<!-- Node26 -->
<g id="node26" class="node">
<title>Node26</title>
<g id="a_node26"><a xlink:href="continuum__interface_8h.html" target="_top" xlink:title=" ">
<polygon fill="white" stroke="black" points="550.5,-291.5 550.5,-321.5 687.5,-321.5 687.5,-291.5 550.5,-291.5"/>
<text text-anchor="start" x="558.5" y="-309.5" font-family="Helvetica,sans-Serif" font-size="10.00">core/diffusion/continuum</text>
<text text-anchor="middle" x="619" y="-298.5" font-family="Helvetica,sans-Serif" font-size="10.00">_interface.h</text>
</a>
</g>
</g>
<!-- Node3&#45;&gt;Node26 -->
<g id="edge35" class="edge">
<title>Node3&#45;&gt;Node26</title>
<path fill="none" stroke="midnightblue" d="M709.83,-358.4C693.26,-349.11 671.36,-336.84 653.22,-326.67"/>
<polygon fill="midnightblue" stroke="midnightblue" points="654.56,-323.41 644.12,-321.58 651.13,-329.52 654.56,-323.41"/>
</g>
<!-- Node28 -->
<g id="node28" class="node">
<title>Node28</title>
<g id="a_node28"><a xlink:href="spinlock_8h.html" target="_top" xlink:title=" ">
<polygon fill="white" stroke="black" points="901.5,-297 901.5,-316 1010.5,-316 1010.5,-297 901.5,-297"/>
<text text-anchor="middle" x="956" y="-304" font-family="Helvetica,sans-Serif" font-size="10.00">core/util/spinlock.h</text>
</a>
</g>
</g>
<!-- Node3&#45;&gt;Node28 -->
<g id="edge42" class="edge">
<title>Node3&#45;&gt;Node28</title>
<path fill="none" stroke="midnightblue" d="M782.68,-358.48C822.81,-346.67 879.5,-330 916.97,-318.98"/>
<polygon fill="midnightblue" stroke="midnightblue" points="918.4,-322.21 927,-316.03 916.42,-315.49 918.4,-322.21"/>
</g>
<!-- Node8&#45;&gt;Node2 -->
<g id="edge15" class="edge">
<title>Node8&#45;&gt;Node2</title>
<path fill="none" stroke="midnightblue" d="M407.44,-233.65C334.16,-226.87 203.6,-212.76 83.67,-188.09"/>
<polygon fill="midnightblue" stroke="midnightblue" points="84.09,-184.6 73.59,-185.99 82.66,-191.46 84.09,-184.6"/>
</g>
<!-- Node9 -->
<g id="node9" class="node">
<title>Node9</title>
<g id="a_node9"><a xlink:title=" ">
<polygon fill="white" stroke="#bfbfbf" points="270,-168.5 270,-187.5 334,-187.5 334,-168.5 270,-168.5"/>
<text text-anchor="middle" x="302" y="-175.5" font-family="Helvetica,sans-Serif" font-size="10.00">algorithm</text>
</a>
</g>
</g>
<!-- Node8&#45;&gt;Node9 -->
<g id="edge9" class="edge">
<title>Node8&#45;&gt;Node9</title>
<path fill="none" stroke="midnightblue" d="M426.37,-224.4C398.66,-214.28 361.69,-200.79 335.28,-191.15"/>
<polygon fill="midnightblue" stroke="midnightblue" points="336.31,-187.8 325.72,-187.66 333.91,-194.37 336.31,-187.8"/>
</g>
<!-- Node10 -->
<g id="node10" class="node">
<title>Node10</title>
<g id="a_node10"><a xlink:title=" ">
<polygon fill="white" stroke="#bfbfbf" points="352,-168.5 352,-187.5 404,-187.5 404,-168.5 352,-168.5"/>
<text text-anchor="middle" x="378" y="-175.5" font-family="Helvetica,sans-Serif" font-size="10.00">cassert</text>
</a>
</g>
</g>
<!-- Node8&#45;&gt;Node10 -->
<g id="edge10" class="edge">
<title>Node8&#45;&gt;Node10</title>
<path fill="none" stroke="midnightblue" d="M444.38,-224.4C430.7,-215.04 412.79,-202.79 399.02,-193.38"/>
<polygon fill="midnightblue" stroke="midnightblue" points="400.89,-190.41 390.66,-187.66 396.94,-196.19 400.89,-190.41"/>
</g>
<!-- Node11 -->
<g id="node11" class="node">
<title>Node11</title>
<g id="a_node11"><a xlink:title=" ">
<polygon fill="white" stroke="#bfbfbf" points="422.5,-168.5 422.5,-187.5 469.5,-187.5 469.5,-168.5 422.5,-168.5"/>
<text text-anchor="middle" x="446" y="-175.5" font-family="Helvetica,sans-Serif" font-size="10.00">cmath</text>
</a>
</g>
</g>
<!-- Node8&#45;&gt;Node11 -->
<g id="edge11" class="edge">
<title>Node8&#45;&gt;Node11</title>
<path fill="none" stroke="midnightblue" d="M460.5,-224.4C457.91,-216.29 454.62,-206.01 451.84,-197.28"/>
<polygon fill="midnightblue" stroke="midnightblue" points="455.14,-196.12 448.76,-187.66 448.47,-198.25 455.14,-196.12"/>
</g>
<!-- Node12 -->
<g id="node12" class="node">
<title>Node12</title>
<g id="a_node12"><a xlink:title=" ">
<polygon fill="white" stroke="#bfbfbf" points="488,-168.5 488,-187.5 544,-187.5 544,-168.5 488,-168.5"/>
<text text-anchor="middle" x="516" y="-175.5" font-family="Helvetica,sans-Serif" font-size="10.00">numeric</text>
</a>
</g>
</g>
<!-- Node8&#45;&gt;Node12 -->
<g id="edge12" class="edge">
<title>Node8&#45;&gt;Node12</title>
<path fill="none" stroke="midnightblue" d="M477.09,-224.4C484.57,-215.66 494.22,-204.41 502.03,-195.3"/>
<polygon fill="midnightblue" stroke="midnightblue" points="504.73,-197.53 508.58,-187.66 499.41,-192.97 504.73,-197.53"/>
</g>
<!-- Node13 -->
<g id="node13" class="node">
<title>Node13</title>
<g id="a_node13"><a xlink:title=" ">
<polygon fill="white" stroke="#bfbfbf" points="562.5,-168.5 562.5,-187.5 619.5,-187.5 619.5,-168.5 562.5,-168.5"/>
<text text-anchor="middle" x="591" y="-175.5" font-family="Helvetica,sans-Serif" font-size="10.00">ostream</text>
</a>
</g>
</g>
<!-- Node8&#45;&gt;Node13 -->
<g id="edge13" class="edge">
<title>Node8&#45;&gt;Node13</title>
<path fill="none" stroke="midnightblue" d="M494.86,-224.4C515.62,-214.59 543.1,-201.62 563.36,-192.05"/>
<polygon fill="midnightblue" stroke="midnightblue" points="565.12,-195.09 572.67,-187.66 562.13,-188.76 565.12,-195.09"/>
</g>
<!-- Node14 -->
<g id="node14" class="node">
<title>Node14</title>
<g id="a_node14"><a xlink:title=" ">
<polygon fill="white" stroke="#bfbfbf" points="91.5,-168.5 91.5,-187.5 156.5,-187.5 156.5,-168.5 91.5,-168.5"/>
<text text-anchor="middle" x="124" y="-175.5" font-family="Helvetica,sans-Serif" font-size="10.00">stdexcept</text>
</a>
</g>
</g>
<!-- Node8&#45;&gt;Node14 -->
<g id="edge14" class="edge">
<title>Node8&#45;&gt;Node14</title>
<path fill="none" stroke="midnightblue" d="M407.34,-229.66C349.01,-220.52 256.02,-205.42 166.67,-188.26"/>
<polygon fill="midnightblue" stroke="midnightblue" points="167.13,-184.78 156.64,-186.32 165.8,-191.65 167.13,-184.78"/>
</g>
<!-- Node15 -->
<g id="node15" class="node">
<title>Node15</title>
<g id="a_node15"><a xlink:href="real__t_8h.html" target="_top" xlink:title=" ">
<polygon fill="white" stroke="black" points="174.5,-168.5 174.5,-187.5 251.5,-187.5 251.5,-168.5 174.5,-168.5"/>
<text text-anchor="middle" x="213" y="-175.5" font-family="Helvetica,sans-Serif" font-size="10.00">core/real_t.h</text>
</a>
</g>
</g>
<!-- Node8&#45;&gt;Node15 -->
<g id="edge16" class="edge">
<title>Node8&#45;&gt;Node15</title>
<path fill="none" stroke="midnightblue" d="M407.19,-224.85C362.22,-214.23 300.66,-199.7 259,-189.86"/>
<polygon fill="midnightblue" stroke="midnightblue" points="259.66,-186.42 249.12,-187.53 258.05,-193.23 259.66,-186.42"/>
</g>
<!-- Node8&#45;&gt;Node16 -->
<g id="edge17" class="edge">
<title>Node8&#45;&gt;Node16</title>
<path fill="none" stroke="midnightblue" d="M522.48,-224.47C554.3,-215.78 594.13,-203.34 628,-188 659.52,-173.73 693.12,-151.85 713.84,-137.48"/>
<polygon fill="midnightblue" stroke="midnightblue" points="715.98,-140.26 722.15,-131.64 711.95,-134.53 715.98,-140.26"/>
</g>
<!-- Node8&#45;&gt;Node23 -->
<g id="edge28" class="edge">
<title>Node8&#45;&gt;Node23</title>
<path fill="none" stroke="midnightblue" d="M522.6,-229.01C591.24,-217.69 705.03,-198.94 772.02,-187.9"/>
<polygon fill="midnightblue" stroke="midnightblue" points="772.66,-191.34 781.96,-186.26 771.52,-184.43 772.66,-191.34"/>
</g>
<!-- Node16&#45;&gt;Node5 -->
<g id="edge21" class="edge">
<title>Node16&#45;&gt;Node5</title>
<path fill="none" stroke="midnightblue" d="M775.05,-112.48C816.04,-103.95 881.12,-90.33 946.3,-76.35"/>
<polygon fill="midnightblue" stroke="midnightblue" points="947.29,-79.72 956.33,-74.2 945.82,-72.88 947.29,-79.72"/>
</g>
<!-- Node16&#45;&gt;Node6 -->
<g id="edge23" class="edge">
<title>Node16&#45;&gt;Node6</title>
<path fill="none" stroke="midnightblue" d="M724.24,-112.16C709.79,-99.23 681.64,-74.69 656,-56 640.62,-44.79 622.48,-33.32 608.39,-24.77"/>
<polygon fill="midnightblue" stroke="midnightblue" points="610.15,-21.75 599.78,-19.6 606.55,-27.75 610.15,-21.75"/>
</g>
<!-- Node17 -->
<g id="node17" class="node">
<title>Node17</title>
<g id="a_node17"><a xlink:title=" ">
<polygon fill="white" stroke="#bfbfbf" points="703,-56.5 703,-75.5 757,-75.5 757,-56.5 703,-56.5"/>
<text text-anchor="middle" x="730" y="-63.5" font-family="Helvetica,sans-Serif" font-size="10.00">TError.h</text>
</a>
</g>
</g>
<!-- Node16&#45;&gt;Node17 -->
<g id="edge18" class="edge">
<title>Node16&#45;&gt;Node17</title>
<path fill="none" stroke="midnightblue" d="M733.34,-112.08C732.82,-105.01 732.06,-94.86 731.41,-85.99"/>
<polygon fill="midnightblue" stroke="midnightblue" points="734.88,-85.47 730.65,-75.75 727.9,-85.98 734.88,-85.47"/>
</g>
<!-- Node18 -->
<g id="node18" class="node">
<title>Node18</title>
<g id="a_node18"><a xlink:title=" ">
<polygon fill="white" stroke="#bfbfbf" points="523,-56.5 523,-75.5 569,-75.5 569,-56.5 523,-56.5"/>
<text text-anchor="middle" x="546" y="-63.5" font-family="Helvetica,sans-Serif" font-size="10.00">cstdio</text>
</a>
</g>
</g>
<!-- Node16&#45;&gt;Node18 -->
<g id="edge19" class="edge">
<title>Node16&#45;&gt;Node18</title>
<path fill="none" stroke="midnightblue" d="M704.21,-112.44C670.1,-102.65 614.37,-86.64 578.98,-76.47"/>
<polygon fill="midnightblue" stroke="midnightblue" points="579.71,-73.04 569.13,-73.64 577.78,-79.77 579.71,-73.04"/>
</g>
<!-- Node19 -->
<g id="node19" class="node">
<title>Node19</title>
<g id="a_node19"><a xlink:title=" ">
<polygon fill="white" stroke="#bfbfbf" points="889.5,-56.5 889.5,-75.5 938.5,-75.5 938.5,-56.5 889.5,-56.5"/>
<text text-anchor="middle" x="914" y="-63.5" font-family="Helvetica,sans-Serif" font-size="10.00">cstdlib</text>
</a>
</g>
</g>
<!-- Node16&#45;&gt;Node19 -->
<g id="edge20" class="edge">
<title>Node16&#45;&gt;Node19</title>
<path fill="none" stroke="midnightblue" d="M762.52,-112.44C794.23,-102.93 845.45,-87.56 879.42,-77.37"/>
<polygon fill="midnightblue" stroke="midnightblue" points="880.8,-80.61 889.37,-74.39 878.79,-73.91 880.8,-80.61"/>
</g>
<!-- Node20 -->
<g id="node20" class="node">
<title>Node20</title>
<g id="a_node20"><a xlink:title=" ">
<polygon fill="white" stroke="#bfbfbf" points="587,-56.5 587,-75.5 647,-75.5 647,-56.5 587,-56.5"/>
<text text-anchor="middle" x="617" y="-63.5" font-family="Helvetica,sans-Serif" font-size="10.00">iostream</text>
</a>
</g>
</g>
<!-- Node16&#45;&gt;Node20 -->
<g id="edge22" class="edge">
<title>Node16&#45;&gt;Node20</title>
<path fill="none" stroke="midnightblue" d="M715.46,-112.44C696.38,-103.64 666.43,-89.81 644.56,-79.72"/>
<polygon fill="midnightblue" stroke="midnightblue" points="646,-76.53 635.45,-75.52 643.07,-82.88 646,-76.53"/>
</g>
<!-- Node21 -->
<g id="node21" class="node">
<title>Node21</title>
<g id="a_node21"><a xlink:href="string_8h.html" target="_top" xlink:title=" ">
<polygon fill="white" stroke="black" points="775,-56.5 775,-75.5 871,-75.5 871,-56.5 775,-56.5"/>
<text text-anchor="middle" x="823" y="-63.5" font-family="Helvetica,sans-Serif" font-size="10.00">core/util/string.h</text>
</a>
</g>
</g>
<!-- Node16&#45;&gt;Node21 -->
<g id="edge24" class="edge">
<title>Node16&#45;&gt;Node21</title>
<path fill="none" stroke="midnightblue" d="M748.3,-112.32C762.18,-103.9 783.49,-90.97 799.8,-81.07"/>
<polygon fill="midnightblue" stroke="midnightblue" points="802,-83.83 808.74,-75.65 798.37,-77.85 802,-83.83"/>
</g>
<!-- Node21&#45;&gt;Node6 -->
<g id="edge26" class="edge">
<title>Node21&#45;&gt;Node6</title>
<path fill="none" stroke="midnightblue" d="M785.29,-56.44C738.81,-45.9 660.65,-28.16 616.98,-18.26"/>
<polygon fill="midnightblue" stroke="midnightblue" points="617.7,-14.83 607.18,-16.03 616.15,-21.66 617.7,-14.83"/>
</g>
<!-- Node21&#45;&gt;Node7 -->
<g id="edge27" class="edge">
<title>Node21&#45;&gt;Node7</title>
<path fill="none" stroke="midnightblue" d="M858.97,-56.44C902.28,-46.14 974.44,-28.97 1016.58,-18.95"/>
<polygon fill="midnightblue" stroke="midnightblue" points="1017.44,-22.34 1026.36,-16.62 1015.82,-15.53 1017.44,-22.34"/>
</g>
<!-- Node22 -->
<g id="node22" class="node">
<title>Node22</title>
<g id="a_node22"><a xlink:title=" ">
<polygon fill="white" stroke="#bfbfbf" points="795,-0.5 795,-19.5 851,-19.5 851,-0.5 795,-0.5"/>
<text text-anchor="middle" x="823" y="-7.5" font-family="Helvetica,sans-Serif" font-size="10.00">sstream</text>
</a>
</g>
</g>
<!-- Node21&#45;&gt;Node22 -->
<g id="edge25" class="edge">
<title>Node21&#45;&gt;Node22</title>
<path fill="none" stroke="midnightblue" d="M823,-56.08C823,-49.01 823,-38.86 823,-29.99"/>
<polygon fill="midnightblue" stroke="midnightblue" points="826.5,-29.75 823,-19.75 819.5,-29.75 826.5,-29.75"/>
</g>
<!-- Node23&#45;&gt;Node16 -->
<g id="edge30" class="edge">
<title>Node23&#45;&gt;Node16</title>
<path fill="none" stroke="midnightblue" d="M811.22,-168.32C796.73,-159.82 774.43,-146.73 757.51,-136.8"/>
<polygon fill="midnightblue" stroke="midnightblue" points="759.14,-133.7 748.74,-131.65 755.6,-139.74 759.14,-133.7"/>
</g>
<!-- Node24 -->
<g id="node24" class="node">
<title>Node24</title>
<g id="a_node24"><a xlink:title=" ">
<polygon fill="white" stroke="#bfbfbf" points="797.5,-112.5 797.5,-131.5 854.5,-131.5 854.5,-112.5 797.5,-112.5"/>
<text text-anchor="middle" x="826" y="-119.5" font-family="Helvetica,sans-Serif" font-size="10.00">TClass.h</text>
</a>
</g>
</g>
<!-- Node23&#45;&gt;Node24 -->
<g id="edge29" class="edge">
<title>Node23&#45;&gt;Node24</title>
<path fill="none" stroke="midnightblue" d="M826,-168.08C826,-161.01 826,-150.86 826,-141.99"/>
<polygon fill="midnightblue" stroke="midnightblue" points="829.5,-141.75 826,-131.75 822.5,-141.75 829.5,-141.75"/>
</g>
<!-- Node25&#45;&gt;Node7 -->
<g id="edge33" class="edge">
<title>Node25&#45;&gt;Node7</title>
<path fill="none" stroke="midnightblue" d="M900.36,-224.27C931.17,-198.11 995.51,-139.22 1031,-76 1039.09,-61.58 1044.03,-43.39 1046.83,-29.92"/>
<polygon fill="midnightblue" stroke="midnightblue" points="1050.31,-30.38 1048.71,-19.91 1043.43,-29.09 1050.31,-30.38"/>
</g>
<!-- Node25&#45;&gt;Node19 -->
<g id="edge32" class="edge">
<title>Node25&#45;&gt;Node19</title>
<path fill="none" stroke="midnightblue" d="M885.54,-224.47C891.1,-193.7 904.36,-120.33 910.62,-85.7"/>
<polygon fill="midnightblue" stroke="midnightblue" points="914.12,-86.02 912.45,-75.56 907.23,-84.78 914.12,-86.02"/>
</g>
<!-- Node25&#45;&gt;Node23 -->
<g id="edge34" class="edge">
<title>Node25&#45;&gt;Node23</title>
<path fill="none" stroke="midnightblue" d="M869.49,-224.4C861.04,-215.58 850.12,-204.18 841.34,-195.02"/>
<polygon fill="midnightblue" stroke="midnightblue" points="843.74,-192.46 834.29,-187.66 838.68,-197.3 843.74,-192.46"/>
</g>
<!-- Node26&#45;&gt;Node4 -->
<g id="edge36" class="edge">
<title>Node26&#45;&gt;Node4</title>
<path fill="none" stroke="midnightblue" d="M637.66,-291.4C651.73,-280.76 670.99,-266.2 685.31,-255.38"/>
<polygon fill="midnightblue" stroke="midnightblue" points="687.63,-258.02 693.5,-249.19 683.41,-252.43 687.63,-258.02"/>
</g>
<!-- Node26&#45;&gt;Node6 -->
<g id="edge38" class="edge">
<title>Node26&#45;&gt;Node6</title>
<path fill="none" stroke="midnightblue" d="M625.55,-291.27C629.75,-281.34 634.81,-267.66 637,-255 643.62,-216.7 647.5,-201.63 628,-168 595.33,-111.68 542.08,-134.74 514,-76 503.12,-53.24 529.76,-34.72 553.45,-23.35"/>
<polygon fill="midnightblue" stroke="midnightblue" points="554.96,-26.51 562.64,-19.21 552.08,-20.13 554.96,-26.51"/>
</g>
<!-- Node26&#45;&gt;Node8 -->
<g id="edge39" class="edge">
<title>Node26&#45;&gt;Node8</title>
<path fill="none" stroke="midnightblue" d="M585.58,-291.4C562.78,-281.77 532.37,-268.94 507.8,-258.56"/>
<polygon fill="midnightblue" stroke="midnightblue" points="508.92,-255.24 498.35,-254.58 506.2,-261.69 508.92,-255.24"/>
</g>
<!-- Node27 -->
<g id="node27" class="node">
<title>Node27</title>
<g id="a_node27"><a xlink:title=" ">
<polygon fill="white" stroke="#bfbfbf" points="584,-230 584,-249 628,-249 628,-230 584,-230"/>
<text text-anchor="middle" x="606" y="-237" font-family="Helvetica,sans-Serif" font-size="10.00">limits</text>
</a>
</g>
</g>
<!-- Node26&#45;&gt;Node27 -->
<g id="edge37" class="edge">
<title>Node26&#45;&gt;Node27</title>
<path fill="none" stroke="midnightblue" d="M616.18,-291.4C614.29,-281.96 611.79,-269.45 609.74,-259.19"/>
<polygon fill="midnightblue" stroke="midnightblue" points="613.13,-258.31 607.74,-249.19 606.27,-259.69 613.13,-258.31"/>
</g>
<!-- Node29 -->
<g id="node29" class="node">
<title>Node29</title>
<g id="a_node29"><a xlink:title=" ">
<polygon fill="white" stroke="#bfbfbf" points="964,-230 964,-249 1014,-249 1014,-230 964,-230"/>
<text text-anchor="middle" x="989" y="-237" font-family="Helvetica,sans-Serif" font-size="10.00">atomic</text>
</a>
</g>
</g>
<!-- Node28&#45;&gt;Node29 -->
<g id="edge43" class="edge">
<title>Node28&#45;&gt;Node29</title>
<path fill="none" stroke="midnightblue" d="M960.45,-296.73C965.45,-286.89 973.69,-270.66 980.03,-258.16"/>
<polygon fill="midnightblue" stroke="midnightblue" points="983.21,-259.63 984.62,-249.13 976.97,-256.46 983.21,-259.63"/>
</g>
</g>
</svg>
