<?xml version="1.0" encoding="UTF-8" standalone="no"?>
<!DOCTYPE svg PUBLIC "-//W3C//DTD SVG 1.1//EN"
 "http://www.w3.org/Graphics/SVG/1.1/DTD/svg11.dtd">
<!-- Generated by graphviz version 2.43.0 (0)
 -->
<!-- Title: core/diffusion/euler_grid.cc Pages: 1 -->
<svg width="995pt" height="464pt"
 viewBox="0.00 0.00 994.50 464.00" xmlns="http://www.w3.org/2000/svg" xmlns:xlink="http://www.w3.org/1999/xlink">
<g id="graph0" class="graph" transform="scale(1 1) rotate(0) translate(4 460)">
<title>core/diffusion/euler_grid.cc</title>
<polygon fill="white" stroke="transparent" points="-4,4 -4,-460 990.5,-460 990.5,4 -4,4"/>
<!-- Node1 -->
<g id="node1" class="node">
<title>Node1</title>
<g id="a_node1"><a xlink:title=" ">
<polygon fill="#bfbfbf" stroke="black" points="136,-425.5 136,-455.5 246,-455.5 246,-425.5 136,-425.5"/>
<text text-anchor="start" x="144" y="-443.5" font-family="Helvetica,sans-Serif" font-size="10.00">core/diffusion/euler</text>
<text text-anchor="middle" x="191" y="-432.5" font-family="Helvetica,sans-Serif" font-size="10.00">_grid.cc</text>
</a>
</g>
</g>
<!-- Node2 -->
<g id="node2" class="node">
<title>Node2</title>
<g id="a_node2"><a xlink:href="euler__grid_8h.html" target="_top" xlink:title=" ">
<polygon fill="white" stroke="black" points="136,-358.5 136,-388.5 246,-388.5 246,-358.5 136,-358.5"/>
<text text-anchor="start" x="144" y="-376.5" font-family="Helvetica,sans-Serif" font-size="10.00">core/diffusion/euler</text>
<text text-anchor="middle" x="191" y="-365.5" font-family="Helvetica,sans-Serif" font-size="10.00">_grid.h</text>
</a>
</g>
</g>
<!-- Node1&#45;&gt;Node2 -->
<g id="edge1" class="edge">
<title>Node1&#45;&gt;Node2</title>
<path fill="none" stroke="midnightblue" d="M191,-425.4C191,-417.64 191,-407.81 191,-398.86"/>
<polygon fill="midnightblue" stroke="midnightblue" points="194.5,-398.58 191,-388.58 187.5,-398.58 194.5,-398.58"/>
</g>
<!-- Node3 -->
<g id="node3" class="node">
<title>Node3</title>
<g id="a_node3"><a xlink:title=" ">
<polygon fill="white" stroke="#bfbfbf" points="66.5,-168.5 66.5,-187.5 111.5,-187.5 111.5,-168.5 66.5,-168.5"/>
<text text-anchor="middle" x="89" y="-175.5" font-family="Helvetica,sans-Serif" font-size="10.00">utility</text>
</a>
</g>
</g>
<!-- Node2&#45;&gt;Node3 -->
<g id="edge2" class="edge">
<title>Node2&#45;&gt;Node3</title>
<path fill="none" stroke="midnightblue" d="M183.5,-358.27C165.17,-323.5 118.15,-234.3 98.19,-196.42"/>
<polygon fill="midnightblue" stroke="midnightblue" points="101.28,-194.79 93.52,-187.58 95.09,-198.06 101.28,-194.79"/>
</g>
<!-- Node4 -->
<g id="node4" class="node">
<title>Node4</title>
<g id="a_node4"><a xlink:href="diffusion__grid_8h.html" target="_top" xlink:title=" ">
<polygon fill="white" stroke="black" points="315,-291.5 315,-321.5 443,-321.5 443,-291.5 315,-291.5"/>
<text text-anchor="start" x="323" y="-309.5" font-family="Helvetica,sans-Serif" font-size="10.00">core/diffusion/diffusion</text>
<text text-anchor="middle" x="379" y="-298.5" font-family="Helvetica,sans-Serif" font-size="10.00">_grid.h</text>
</a>
</g>
</g>
<!-- Node2&#45;&gt;Node4 -->
<g id="edge3" class="edge">
<title>Node2&#45;&gt;Node4</title>
<path fill="none" stroke="midnightblue" d="M231.79,-358.4C260.25,-348.56 298.4,-335.37 328.73,-324.88"/>
<polygon fill="midnightblue" stroke="midnightblue" points="329.98,-328.15 338.29,-321.58 327.69,-321.54 329.98,-328.15"/>
</g>
<!-- Node4&#45;&gt;Node3 -->
<g id="edge7" class="edge">
<title>Node4&#45;&gt;Node3</title>
<path fill="none" stroke="midnightblue" d="M359.79,-291.33C346.31,-281.31 327.93,-267.49 312,-255 294.85,-241.55 293.52,-233.7 274,-224 247.43,-210.79 167.16,-193.98 121.56,-185.11"/>
<polygon fill="midnightblue" stroke="midnightblue" points="122.06,-181.64 111.58,-183.19 120.73,-188.52 122.06,-181.64"/>
</g>
<!-- Node5 -->
<g id="node5" class="node">
<title>Node5</title>
<g id="a_node5"><a xlink:title=" ">
<polygon fill="white" stroke="#bfbfbf" points="223,-230 223,-249 265,-249 265,-230 223,-230"/>
<text text-anchor="middle" x="244" y="-237" font-family="Helvetica,sans-Serif" font-size="10.00">array</text>
</a>
</g>
</g>
<!-- Node4&#45;&gt;Node5 -->
<g id="edge4" class="edge">
<title>Node4&#45;&gt;Node5</title>
<path fill="none" stroke="midnightblue" d="M349.71,-291.4C326.23,-280.09 293.56,-264.36 270.77,-253.39"/>
<polygon fill="midnightblue" stroke="midnightblue" points="272.2,-250.19 261.67,-249.01 269.16,-256.5 272.2,-250.19"/>
</g>
<!-- Node6 -->
<g id="node6" class="node">
<title>Node6</title>
<g id="a_node6"><a xlink:title=" ">
<polygon fill="white" stroke="#bfbfbf" points="156.5,-56.5 156.5,-75.5 221.5,-75.5 221.5,-56.5 156.5,-56.5"/>
<text text-anchor="middle" x="189" y="-63.5" font-family="Helvetica,sans-Serif" font-size="10.00">functional</text>
</a>
</g>
</g>
<!-- Node4&#45;&gt;Node6 -->
<g id="edge5" class="edge">
<title>Node4&#45;&gt;Node6</title>
<path fill="none" stroke="midnightblue" d="M314.96,-303.35C238.28,-296.88 113.16,-273.03 57,-188 25.66,-140.56 106.48,-99.14 155.19,-79.36"/>
<polygon fill="midnightblue" stroke="midnightblue" points="156.74,-82.51 164.76,-75.58 154.17,-76 156.74,-82.51"/>
</g>
<!-- Node7 -->
<g id="node7" class="node">
<title>Node7</title>
<g id="a_node7"><a xlink:title=" ">
<polygon fill="white" stroke="#bfbfbf" points="355,-0.5 355,-19.5 399,-19.5 399,-0.5 355,-0.5"/>
<text text-anchor="middle" x="377" y="-7.5" font-family="Helvetica,sans-Serif" font-size="10.00">string</text>
</a>
</g>
</g>
<!-- Node4&#45;&gt;Node7 -->
<g id="edge6" class="edge">
<title>Node4&#45;&gt;Node7</title>
<path fill="none" stroke="midnightblue" d="M314.78,-304.29C253.52,-300.9 160.03,-289.8 87,-255 40.65,-232.92 0,-230.34 0,-179 0,-179 0,-179 0,-121 0,-49.43 253.54,-21.27 344.78,-13.45"/>
<polygon fill="midnightblue" stroke="midnightblue" points="345.15,-16.93 354.82,-12.62 344.57,-9.96 345.15,-16.93"/>
</g>
<!-- Node8 -->
<g id="node8" class="node">
<title>Node8</title>
<g id="a_node8"><a xlink:title=" ">
<polygon fill="white" stroke="#bfbfbf" points="787.5,-0.5 787.5,-19.5 834.5,-19.5 834.5,-0.5 787.5,-0.5"/>
<text text-anchor="middle" x="811" y="-7.5" font-family="Helvetica,sans-Serif" font-size="10.00">vector</text>
</a>
</g>
</g>
<!-- Node4&#45;&gt;Node8 -->
<g id="edge8" class="edge">
<title>Node4&#45;&gt;Node8</title>
<path fill="none" stroke="midnightblue" d="M443.21,-302.33C560.83,-295.94 801.46,-279.96 830,-255 856.21,-232.08 849,-213.82 849,-179 849,-179 849,-179 849,-121 849,-86.81 832.4,-49.76 821.14,-28.57"/>
<polygon fill="midnightblue" stroke="midnightblue" points="824.18,-26.83 816.28,-19.77 818.05,-30.22 824.18,-26.83"/>
</g>
<!-- Node9 -->
<g id="node9" class="node">
<title>Node9</title>
<g id="a_node9"><a xlink:href="math__array_8h.html" target="_top" xlink:title=" ">
<polygon fill="white" stroke="black" points="321.5,-224.5 321.5,-254.5 436.5,-254.5 436.5,-224.5 321.5,-224.5"/>
<text text-anchor="start" x="329.5" y="-242.5" font-family="Helvetica,sans-Serif" font-size="10.00">core/container/math</text>
<text text-anchor="middle" x="379" y="-231.5" font-family="Helvetica,sans-Serif" font-size="10.00">_array.h</text>
</a>
</g>
</g>
<!-- Node4&#45;&gt;Node9 -->
<g id="edge9" class="edge">
<title>Node4&#45;&gt;Node9</title>
<path fill="none" stroke="midnightblue" d="M379,-291.4C379,-283.64 379,-273.81 379,-264.86"/>
<polygon fill="midnightblue" stroke="midnightblue" points="382.5,-264.58 379,-254.58 375.5,-264.58 382.5,-264.58"/>
</g>
<!-- Node16 -->
<g id="node16" class="node">
<title>Node16</title>
<g id="a_node16"><a xlink:href="log_8h.html" target="_top" xlink:title=" ">
<polygon fill="white" stroke="black" points="537.5,-112.5 537.5,-131.5 620.5,-131.5 620.5,-112.5 537.5,-112.5"/>
<text text-anchor="middle" x="579" y="-119.5" font-family="Helvetica,sans-Serif" font-size="10.00">core/util/log.h</text>
</a>
</g>
</g>
<!-- Node4&#45;&gt;Node16 -->
<g id="edge35" class="edge">
<title>Node4&#45;&gt;Node16</title>
<path fill="none" stroke="midnightblue" d="M443.08,-292.23C497.78,-277.16 573.13,-246.61 609,-188 618.67,-172.2 606.91,-152.76 595.39,-139.28"/>
<polygon fill="midnightblue" stroke="midnightblue" points="597.8,-136.72 588.45,-131.74 592.65,-141.47 597.8,-136.72"/>
</g>
<!-- Node23 -->
<g id="node23" class="node">
<title>Node23</title>
<g id="a_node23"><a xlink:href="root_8h.html" target="_top" xlink:title=" ">
<polygon fill="white" stroke="black" points="657,-168.5 657,-187.5 745,-187.5 745,-168.5 657,-168.5"/>
<text text-anchor="middle" x="701" y="-175.5" font-family="Helvetica,sans-Serif" font-size="10.00">core/util/root.h</text>
</a>
</g>
</g>
<!-- Node4&#45;&gt;Node23 -->
<g id="edge36" class="edge">
<title>Node4&#45;&gt;Node23</title>
<path fill="none" stroke="midnightblue" d="M443.06,-305.81C499.57,-303.3 582.18,-292.62 643,-255 665.66,-240.99 682.7,-214.67 692.27,-196.99"/>
<polygon fill="midnightblue" stroke="midnightblue" points="695.56,-198.23 697.02,-187.73 689.34,-195.03 695.56,-198.23"/>
</g>
<!-- Node25 -->
<g id="node25" class="node">
<title>Node25</title>
<g id="a_node25"><a xlink:href="parallel__resize__vector_8h.html" target="_top" xlink:title=" ">
<polygon fill="white" stroke="black" points="695,-224.5 695,-254.5 821,-254.5 821,-224.5 695,-224.5"/>
<text text-anchor="start" x="703" y="-242.5" font-family="Helvetica,sans-Serif" font-size="10.00">core/container/parallel</text>
<text text-anchor="middle" x="758" y="-231.5" font-family="Helvetica,sans-Serif" font-size="10.00">_resize_vector.h</text>
</a>
</g>
</g>
<!-- Node4&#45;&gt;Node25 -->
<g id="edge31" class="edge">
<title>Node4&#45;&gt;Node25</title>
<path fill="none" stroke="midnightblue" d="M443.28,-295.14C504.46,-285.19 599.09,-269.56 681,-255 682.28,-254.77 683.57,-254.54 684.87,-254.31"/>
<polygon fill="midnightblue" stroke="midnightblue" points="685.77,-257.7 694.99,-252.47 684.52,-250.81 685.77,-257.7"/>
</g>
<!-- Node26 -->
<g id="node26" class="node">
<title>Node26</title>
<g id="a_node26"><a xlink:href="spinlock_8h.html" target="_top" xlink:title=" ">
<polygon fill="white" stroke="black" points="877.5,-230 877.5,-249 986.5,-249 986.5,-230 877.5,-230"/>
<text text-anchor="middle" x="932" y="-237" font-family="Helvetica,sans-Serif" font-size="10.00">core/util/spinlock.h</text>
</a>
</g>
</g>
<!-- Node4&#45;&gt;Node26 -->
<g id="edge37" class="edge">
<title>Node4&#45;&gt;Node26</title>
<path fill="none" stroke="midnightblue" d="M443.08,-300.93C536,-293.83 713.39,-278.46 863,-255 870.15,-253.88 877.68,-252.5 885.03,-251.05"/>
<polygon fill="midnightblue" stroke="midnightblue" points="885.79,-254.46 894.89,-249.03 884.39,-247.61 885.79,-254.46"/>
</g>
<!-- Node9&#45;&gt;Node3 -->
<g id="edge16" class="edge">
<title>Node9&#45;&gt;Node3</title>
<path fill="none" stroke="midnightblue" d="M321.23,-226.85C316.42,-225.89 311.63,-224.93 307,-224 226.57,-207.9 206.09,-205.7 126,-188 124.55,-187.68 123.06,-187.35 121.57,-187"/>
<polygon fill="midnightblue" stroke="midnightblue" points="122.2,-183.56 111.66,-184.67 120.6,-190.37 122.2,-183.56"/>
</g>
<!-- Node10 -->
<g id="node10" class="node">
<title>Node10</title>
<g id="a_node10"><a xlink:title=" ">
<polygon fill="white" stroke="#bfbfbf" points="168,-168.5 168,-187.5 232,-187.5 232,-168.5 168,-168.5"/>
<text text-anchor="middle" x="200" y="-175.5" font-family="Helvetica,sans-Serif" font-size="10.00">algorithm</text>
</a>
</g>
</g>
<!-- Node9&#45;&gt;Node10 -->
<g id="edge10" class="edge">
<title>Node9&#45;&gt;Node10</title>
<path fill="none" stroke="midnightblue" d="M336.58,-224.4C305.78,-214.16 264.59,-200.47 235.52,-190.81"/>
<polygon fill="midnightblue" stroke="midnightblue" points="236.38,-187.4 225.78,-187.57 234.17,-194.05 236.38,-187.4"/>
</g>
<!-- Node11 -->
<g id="node11" class="node">
<title>Node11</title>
<g id="a_node11"><a xlink:title=" ">
<polygon fill="white" stroke="#bfbfbf" points="250,-168.5 250,-187.5 302,-187.5 302,-168.5 250,-168.5"/>
<text text-anchor="middle" x="276" y="-175.5" font-family="Helvetica,sans-Serif" font-size="10.00">cassert</text>
</a>
</g>
</g>
<!-- Node9&#45;&gt;Node11 -->
<g id="edge11" class="edge">
<title>Node9&#45;&gt;Node11</title>
<path fill="none" stroke="midnightblue" d="M354.59,-224.4C338.08,-214.86 316.38,-202.32 299.96,-192.84"/>
<polygon fill="midnightblue" stroke="midnightblue" points="301.4,-189.63 290.99,-187.66 297.9,-195.69 301.4,-189.63"/>
</g>
<!-- Node12 -->
<g id="node12" class="node">
<title>Node12</title>
<g id="a_node12"><a xlink:title=" ">
<polygon fill="white" stroke="#bfbfbf" points="320.5,-168.5 320.5,-187.5 367.5,-187.5 367.5,-168.5 320.5,-168.5"/>
<text text-anchor="middle" x="344" y="-175.5" font-family="Helvetica,sans-Serif" font-size="10.00">cmath</text>
</a>
</g>
</g>
<!-- Node9&#45;&gt;Node12 -->
<g id="edge12" class="edge">
<title>Node9&#45;&gt;Node12</title>
<path fill="none" stroke="midnightblue" d="M370.71,-224.4C365.78,-216.02 359.49,-205.33 354.25,-196.42"/>
<polygon fill="midnightblue" stroke="midnightblue" points="357.18,-194.5 349.09,-187.66 351.15,-198.05 357.18,-194.5"/>
</g>
<!-- Node13 -->
<g id="node13" class="node">
<title>Node13</title>
<g id="a_node13"><a xlink:title=" ">
<polygon fill="white" stroke="#bfbfbf" points="386,-168.5 386,-187.5 442,-187.5 442,-168.5 386,-168.5"/>
<text text-anchor="middle" x="414" y="-175.5" font-family="Helvetica,sans-Serif" font-size="10.00">numeric</text>
</a>
</g>
</g>
<!-- Node9&#45;&gt;Node13 -->
<g id="edge13" class="edge">
<title>Node9&#45;&gt;Node13</title>
<path fill="none" stroke="midnightblue" d="M387.29,-224.4C392.22,-216.02 398.51,-205.33 403.75,-196.42"/>
<polygon fill="midnightblue" stroke="midnightblue" points="406.85,-198.05 408.91,-187.66 400.82,-194.5 406.85,-198.05"/>
</g>
<!-- Node14 -->
<g id="node14" class="node">
<title>Node14</title>
<g id="a_node14"><a xlink:title=" ">
<polygon fill="white" stroke="#bfbfbf" points="460.5,-168.5 460.5,-187.5 517.5,-187.5 517.5,-168.5 460.5,-168.5"/>
<text text-anchor="middle" x="489" y="-175.5" font-family="Helvetica,sans-Serif" font-size="10.00">ostream</text>
</a>
</g>
</g>
<!-- Node9&#45;&gt;Node14 -->
<g id="edge14" class="edge">
<title>Node9&#45;&gt;Node14</title>
<path fill="none" stroke="midnightblue" d="M405.07,-224.4C422.87,-214.77 446.31,-202.09 463.9,-192.58"/>
<polygon fill="midnightblue" stroke="midnightblue" points="465.86,-195.49 472.99,-187.66 462.53,-189.34 465.86,-195.49"/>
</g>
<!-- Node15 -->
<g id="node15" class="node">
<title>Node15</title>
<g id="a_node15"><a xlink:title=" ">
<polygon fill="white" stroke="#bfbfbf" points="535.5,-168.5 535.5,-187.5 600.5,-187.5 600.5,-168.5 535.5,-168.5"/>
<text text-anchor="middle" x="568" y="-175.5" font-family="Helvetica,sans-Serif" font-size="10.00">stdexcept</text>
</a>
</g>
</g>
<!-- Node9&#45;&gt;Node15 -->
<g id="edge15" class="edge">
<title>Node9&#45;&gt;Node15</title>
<path fill="none" stroke="midnightblue" d="M423.79,-224.4C456.45,-214.12 500.18,-200.35 530.89,-190.68"/>
<polygon fill="midnightblue" stroke="midnightblue" points="532.29,-193.91 540.77,-187.57 530.19,-187.24 532.29,-193.91"/>
</g>
<!-- Node9&#45;&gt;Node16 -->
<g id="edge17" class="edge">
<title>Node9&#45;&gt;Node16</title>
<path fill="none" stroke="midnightblue" d="M321.22,-226.15C256.91,-212.27 161.58,-191.24 159,-188 153.46,-181.05 153.06,-174.61 159,-168 183.19,-141.08 419.86,-128.92 526.9,-124.76"/>
<polygon fill="midnightblue" stroke="midnightblue" points="527.29,-128.25 537.15,-124.37 527.02,-121.25 527.29,-128.25"/>
</g>
<!-- Node9&#45;&gt;Node23 -->
<g id="edge28" class="edge">
<title>Node9&#45;&gt;Node23</title>
<path fill="none" stroke="midnightblue" d="M436.57,-227.86C496.12,-216.86 588.43,-199.8 646.74,-189.03"/>
<polygon fill="midnightblue" stroke="midnightblue" points="647.66,-192.42 656.86,-187.16 646.39,-185.53 647.66,-192.42"/>
</g>
<!-- Node16&#45;&gt;Node6 -->
<g id="edge21" class="edge">
<title>Node16&#45;&gt;Node6</title>
<path fill="none" stroke="midnightblue" d="M537.26,-115.22C462.66,-104.89 307.21,-83.37 231.83,-72.93"/>
<polygon fill="midnightblue" stroke="midnightblue" points="232.13,-69.44 221.74,-71.53 231.17,-76.37 232.13,-69.44"/>
</g>
<!-- Node16&#45;&gt;Node7 -->
<g id="edge23" class="edge">
<title>Node16&#45;&gt;Node7</title>
<path fill="none" stroke="midnightblue" d="M537.3,-115.63C489.76,-108.69 416.03,-95.18 396,-76 383.54,-64.07 379.12,-44.45 377.62,-29.89"/>
<polygon fill="midnightblue" stroke="midnightblue" points="381.09,-29.28 376.94,-19.53 374.1,-29.74 381.09,-29.28"/>
</g>
<!-- Node17 -->
<g id="node17" class="node">
<title>Node17</title>
<g id="a_node17"><a xlink:title=" ">
<polygon fill="white" stroke="#bfbfbf" points="519,-56.5 519,-75.5 573,-75.5 573,-56.5 519,-56.5"/>
<text text-anchor="middle" x="546" y="-63.5" font-family="Helvetica,sans-Serif" font-size="10.00">TError.h</text>
</a>
</g>
</g>
<!-- Node16&#45;&gt;Node17 -->
<g id="edge18" class="edge">
<title>Node16&#45;&gt;Node17</title>
<path fill="none" stroke="midnightblue" d="M573.55,-112.08C568.99,-104.61 562.33,-93.72 556.71,-84.52"/>
<polygon fill="midnightblue" stroke="midnightblue" points="559.55,-82.46 551.35,-75.75 553.58,-86.11 559.55,-82.46"/>
</g>
<!-- Node18 -->
<g id="node18" class="node">
<title>Node18</title>
<g id="a_node18"><a xlink:title=" ">
<polygon fill="white" stroke="#bfbfbf" points="591,-56.5 591,-75.5 637,-75.5 637,-56.5 591,-56.5"/>
<text text-anchor="middle" x="614" y="-63.5" font-family="Helvetica,sans-Serif" font-size="10.00">cstdio</text>
</a>
</g>
</g>
<!-- Node16&#45;&gt;Node18 -->
<g id="edge19" class="edge">
<title>Node16&#45;&gt;Node18</title>
<path fill="none" stroke="midnightblue" d="M584.78,-112.08C589.67,-104.53 596.83,-93.49 602.83,-84.23"/>
<polygon fill="midnightblue" stroke="midnightblue" points="605.83,-86.05 608.33,-75.75 599.95,-82.24 605.83,-86.05"/>
</g>
<!-- Node19 -->
<g id="node19" class="node">
<title>Node19</title>
<g id="a_node19"><a xlink:title=" ">
<polygon fill="white" stroke="#bfbfbf" points="733.5,-56.5 733.5,-75.5 782.5,-75.5 782.5,-56.5 733.5,-56.5"/>
<text text-anchor="middle" x="758" y="-63.5" font-family="Helvetica,sans-Serif" font-size="10.00">cstdlib</text>
</a>
</g>
</g>
<!-- Node16&#45;&gt;Node19 -->
<g id="edge20" class="edge">
<title>Node16&#45;&gt;Node19</title>
<path fill="none" stroke="midnightblue" d="M607.36,-112.44C638.81,-102.96 689.55,-87.65 723.33,-77.46"/>
<polygon fill="midnightblue" stroke="midnightblue" points="724.67,-80.71 733.23,-74.47 722.64,-74.01 724.67,-80.71"/>
</g>
<!-- Node20 -->
<g id="node20" class="node">
<title>Node20</title>
<g id="a_node20"><a xlink:title=" ">
<polygon fill="white" stroke="#bfbfbf" points="655,-56.5 655,-75.5 715,-75.5 715,-56.5 655,-56.5"/>
<text text-anchor="middle" x="685" y="-63.5" font-family="Helvetica,sans-Serif" font-size="10.00">iostream</text>
</a>
</g>
</g>
<!-- Node16&#45;&gt;Node20 -->
<g id="edge22" class="edge">
<title>Node16&#45;&gt;Node20</title>
<path fill="none" stroke="midnightblue" d="M596.03,-112.32C613.03,-103.66 639.38,-90.24 658.99,-80.25"/>
<polygon fill="midnightblue" stroke="midnightblue" points="660.69,-83.31 668.01,-75.65 657.51,-77.08 660.69,-83.31"/>
</g>
<!-- Node21 -->
<g id="node21" class="node">
<title>Node21</title>
<g id="a_node21"><a xlink:href="string_8h.html" target="_top" xlink:title=" ">
<polygon fill="white" stroke="black" points="405,-56.5 405,-75.5 501,-75.5 501,-56.5 405,-56.5"/>
<text text-anchor="middle" x="453" y="-63.5" font-family="Helvetica,sans-Serif" font-size="10.00">core/util/string.h</text>
</a>
</g>
</g>
<!-- Node16&#45;&gt;Node21 -->
<g id="edge24" class="edge">
<title>Node16&#45;&gt;Node21</title>
<path fill="none" stroke="midnightblue" d="M559.03,-112.44C538.39,-103.6 505.94,-89.69 482.37,-79.59"/>
<polygon fill="midnightblue" stroke="midnightblue" points="483.44,-76.24 472.87,-75.52 480.68,-82.67 483.44,-76.24"/>
</g>
<!-- Node21&#45;&gt;Node7 -->
<g id="edge26" class="edge">
<title>Node21&#45;&gt;Node7</title>
<path fill="none" stroke="midnightblue" d="M440.79,-56.32C429.22,-48.11 411.62,-35.6 397.84,-25.81"/>
<polygon fill="midnightblue" stroke="midnightblue" points="399.61,-22.77 389.43,-19.83 395.56,-28.48 399.61,-22.77"/>
</g>
<!-- Node21&#45;&gt;Node8 -->
<g id="edge27" class="edge">
<title>Node21&#45;&gt;Node8</title>
<path fill="none" stroke="midnightblue" d="M501.2,-57.36C504.18,-56.9 507.13,-56.44 510,-56 606.9,-41.11 721.45,-24.16 777.17,-15.97"/>
<polygon fill="midnightblue" stroke="midnightblue" points="777.8,-19.41 787.19,-14.49 776.78,-12.48 777.8,-19.41"/>
</g>
<!-- Node22 -->
<g id="node22" class="node">
<title>Node22</title>
<g id="a_node22"><a xlink:title=" ">
<polygon fill="white" stroke="#bfbfbf" points="425,-0.5 425,-19.5 481,-19.5 481,-0.5 425,-0.5"/>
<text text-anchor="middle" x="453" y="-7.5" font-family="Helvetica,sans-Serif" font-size="10.00">sstream</text>
</a>
</g>
</g>
<!-- Node21&#45;&gt;Node22 -->
<g id="edge25" class="edge">
<title>Node21&#45;&gt;Node22</title>
<path fill="none" stroke="midnightblue" d="M453,-56.08C453,-49.01 453,-38.86 453,-29.99"/>
<polygon fill="midnightblue" stroke="midnightblue" points="456.5,-29.75 453,-19.75 449.5,-29.75 456.5,-29.75"/>
</g>
<!-- Node23&#45;&gt;Node16 -->
<g id="edge30" class="edge">
<title>Node23&#45;&gt;Node16</title>
<path fill="none" stroke="midnightblue" d="M681.67,-168.44C661.68,-159.6 630.26,-145.69 607.44,-135.59"/>
<polygon fill="midnightblue" stroke="midnightblue" points="608.8,-132.36 598.24,-131.52 605.97,-138.76 608.8,-132.36"/>
</g>
<!-- Node24 -->
<g id="node24" class="node">
<title>Node24</title>
<g id="a_node24"><a xlink:title=" ">
<polygon fill="white" stroke="#bfbfbf" points="672.5,-112.5 672.5,-131.5 729.5,-131.5 729.5,-112.5 672.5,-112.5"/>
<text text-anchor="middle" x="701" y="-119.5" font-family="Helvetica,sans-Serif" font-size="10.00">TClass.h</text>
</a>
</g>
</g>
<!-- Node23&#45;&gt;Node24 -->
<g id="edge29" class="edge">
<title>Node23&#45;&gt;Node24</title>
<path fill="none" stroke="midnightblue" d="M701,-168.08C701,-161.01 701,-150.86 701,-141.99"/>
<polygon fill="midnightblue" stroke="midnightblue" points="704.5,-141.75 701,-131.75 697.5,-141.75 704.5,-141.75"/>
</g>
<!-- Node25&#45;&gt;Node8 -->
<g id="edge33" class="edge">
<title>Node25&#45;&gt;Node8</title>
<path fill="none" stroke="midnightblue" d="M762.13,-224.4C765.03,-214.31 768.93,-200.36 772,-188 786.27,-130.61 800.6,-62.1 807.22,-29.72"/>
<polygon fill="midnightblue" stroke="midnightblue" points="810.73,-30.01 809.29,-19.51 803.87,-28.61 810.73,-30.01"/>
</g>
<!-- Node25&#45;&gt;Node19 -->
<g id="edge32" class="edge">
<title>Node25&#45;&gt;Node19</title>
<path fill="none" stroke="midnightblue" d="M758,-224.47C758,-193.7 758,-120.33 758,-85.7"/>
<polygon fill="midnightblue" stroke="midnightblue" points="761.5,-85.56 758,-75.56 754.5,-85.56 761.5,-85.56"/>
</g>
<!-- Node25&#45;&gt;Node23 -->
<g id="edge34" class="edge">
<title>Node25&#45;&gt;Node23</title>
<path fill="none" stroke="midnightblue" d="M744.49,-224.4C736.04,-215.58 725.12,-204.18 716.34,-195.02"/>
<polygon fill="midnightblue" stroke="midnightblue" points="718.74,-192.46 709.29,-187.66 713.68,-197.3 718.74,-192.46"/>
</g>
<!-- Node27 -->
<g id="node27" class="node">
<title>Node27</title>
<g id="a_node27"><a xlink:title=" ">
<polygon fill="white" stroke="#bfbfbf" points="907,-168.5 907,-187.5 957,-187.5 957,-168.5 907,-168.5"/>
<text text-anchor="middle" x="932" y="-175.5" font-family="Helvetica,sans-Serif" font-size="10.00">atomic</text>
</a>
</g>
</g>
<!-- Node26&#45;&gt;Node27 -->
<g id="edge38" class="edge">
<title>Node26&#45;&gt;Node27</title>
<path fill="none" stroke="midnightblue" d="M932,-229.98C932,-221.58 932,-208.48 932,-197.66"/>
<polygon fill="midnightblue" stroke="midnightblue" points="935.5,-197.51 932,-187.51 928.5,-197.51 935.5,-197.51"/>
</g>
</g>
</svg>
