<?xml version="1.0" encoding="UTF-8" standalone="no"?>
<!DOCTYPE svg PUBLIC "-//W3C//DTD SVG 1.1//EN"
 "http://www.w3.org/Graphics/SVG/1.1/DTD/svg11.dtd">
<!-- Generated by graphviz version 2.43.0 (0)
 -->
<!-- Title: core/diffusion/euler_grid.cc Pages: 1 -->
<svg width="1064pt" height="464pt"
 viewBox="0.00 0.00 1063.50 464.00" xmlns="http://www.w3.org/2000/svg" xmlns:xlink="http://www.w3.org/1999/xlink">
<g id="graph0" class="graph" transform="scale(1 1) rotate(0) translate(4 460)">
<title>core/diffusion/euler_grid.cc</title>
<polygon fill="white" stroke="transparent" points="-4,4 -4,-460 1059.5,-460 1059.5,4 -4,4"/>
<!-- Node1 -->
<g id="node1" class="node">
<title>Node1</title>
<g id="a_node1"><a xlink:title=" ">
<polygon fill="#bfbfbf" stroke="black" points="643,-425.5 643,-455.5 753,-455.5 753,-425.5 643,-425.5"/>
<text text-anchor="start" x="651" y="-443.5" font-family="Helvetica,sans-Serif" font-size="10.00">core/diffusion/euler</text>
<text text-anchor="middle" x="698" y="-432.5" font-family="Helvetica,sans-Serif" font-size="10.00">_grid.cc</text>
</a>
</g>
</g>
<!-- Node2 -->
<g id="node2" class="node">
<title>Node2</title>
<g id="a_node2"><a xlink:href="euler__grid_8h.html" target="_top" xlink:title=" ">
<polygon fill="white" stroke="black" points="643,-358.5 643,-388.5 753,-388.5 753,-358.5 643,-358.5"/>
<text text-anchor="start" x="651" y="-376.5" font-family="Helvetica,sans-Serif" font-size="10.00">core/diffusion/euler</text>
<text text-anchor="middle" x="698" y="-365.5" font-family="Helvetica,sans-Serif" font-size="10.00">_grid.h</text>
</a>
</g>
</g>
<!-- Node1&#45;&gt;Node2 -->
<g id="edge1" class="edge">
<title>Node1&#45;&gt;Node2</title>
<path fill="none" stroke="midnightblue" d="M698,-425.4C698,-417.64 698,-407.81 698,-398.86"/>
<polygon fill="midnightblue" stroke="midnightblue" points="701.5,-398.58 698,-388.58 694.5,-398.58 701.5,-398.58"/>
</g>
<!-- Node3 -->
<g id="node3" class="node">
<title>Node3</title>
<g id="a_node3"><a xlink:href="diffusion__grid_8h.html" target="_top" xlink:title=" ">
<polygon fill="white" stroke="black" points="634,-291.5 634,-321.5 762,-321.5 762,-291.5 634,-291.5"/>
<text text-anchor="start" x="642" y="-309.5" font-family="Helvetica,sans-Serif" font-size="10.00">core/diffusion/diffusion</text>
<text text-anchor="middle" x="698" y="-298.5" font-family="Helvetica,sans-Serif" font-size="10.00">_grid.h</text>
</a>
</g>
</g>
<!-- Node2&#45;&gt;Node3 -->
<g id="edge2" class="edge">
<title>Node2&#45;&gt;Node3</title>
<path fill="none" stroke="midnightblue" d="M698,-358.4C698,-350.64 698,-340.81 698,-331.86"/>
<polygon fill="midnightblue" stroke="midnightblue" points="701.5,-331.58 698,-321.58 694.5,-331.58 701.5,-331.58"/>
</g>
<!-- Node4 -->
<g id="node4" class="node">
<title>Node4</title>
<g id="a_node4"><a xlink:title=" ">
<polygon fill="white" stroke="#bfbfbf" points="0,-230 0,-249 42,-249 42,-230 0,-230"/>
<text text-anchor="middle" x="21" y="-237" font-family="Helvetica,sans-Serif" font-size="10.00">array</text>
</a>
</g>
</g>
<!-- Node3&#45;&gt;Node4 -->
<g id="edge3" class="edge">
<title>Node3&#45;&gt;Node4</title>
<path fill="none" stroke="midnightblue" d="M633.83,-303.01C493.76,-297.16 164.44,-281.04 56,-255 53.48,-254.4 50.91,-253.63 48.36,-252.78"/>
<polygon fill="midnightblue" stroke="midnightblue" points="49.39,-249.43 38.8,-249.14 46.9,-255.97 49.39,-249.43"/>
</g>
<!-- Node5 -->
<g id="node5" class="node">
<title>Node5</title>
<g id="a_node5"><a xlink:title=" ">
<polygon fill="white" stroke="#bfbfbf" points="225.5,-56.5 225.5,-75.5 290.5,-75.5 290.5,-56.5 225.5,-56.5"/>
<text text-anchor="middle" x="258" y="-63.5" font-family="Helvetica,sans-Serif" font-size="10.00">functional</text>
</a>
</g>
</g>
<!-- Node3&#45;&gt;Node5 -->
<g id="edge4" class="edge">
<title>Node3&#45;&gt;Node5</title>
<path fill="none" stroke="midnightblue" d="M633.62,-301.67C502.88,-292.37 213.87,-263.53 157,-188 126.52,-147.53 192.97,-102.3 232.08,-80.37"/>
<polygon fill="midnightblue" stroke="midnightblue" points="233.79,-83.42 240.89,-75.56 230.44,-77.28 233.79,-83.42"/>
</g>
<!-- Node6 -->
<g id="node6" class="node">
<title>Node6</title>
<g id="a_node6"><a xlink:title=" ">
<polygon fill="white" stroke="#bfbfbf" points="424,-0.5 424,-19.5 468,-19.5 468,-0.5 424,-0.5"/>
<text text-anchor="middle" x="446" y="-7.5" font-family="Helvetica,sans-Serif" font-size="10.00">string</text>
</a>
</g>
</g>
<!-- Node3&#45;&gt;Node6 -->
<g id="edge5" class="edge">
<title>Node3&#45;&gt;Node6</title>
<path fill="none" stroke="midnightblue" d="M633.74,-306.01C473.69,-305.57 70,-293.14 70,-179 70,-179 70,-179 70,-121 70,-49.61 322.87,-21.33 413.86,-13.47"/>
<polygon fill="midnightblue" stroke="midnightblue" points="414.21,-16.95 423.88,-12.63 413.63,-9.98 414.21,-16.95"/>
</g>
<!-- Node7 -->
<g id="node7" class="node">
<title>Node7</title>
<g id="a_node7"><a xlink:title=" ">
<polygon fill="white" stroke="#bfbfbf" points="856.5,-0.5 856.5,-19.5 903.5,-19.5 903.5,-0.5 856.5,-0.5"/>
<text text-anchor="middle" x="880" y="-7.5" font-family="Helvetica,sans-Serif" font-size="10.00">vector</text>
</a>
</g>
</g>
<!-- Node3&#45;&gt;Node7 -->
<g id="edge6" class="edge">
<title>Node3&#45;&gt;Node7</title>
<path fill="none" stroke="midnightblue" d="M762.01,-296.68C813.32,-288.34 879.8,-274.22 899,-255 923.61,-230.37 918,-213.82 918,-179 918,-179 918,-179 918,-121 918,-86.81 901.4,-49.76 890.14,-28.57"/>
<polygon fill="midnightblue" stroke="midnightblue" points="893.18,-26.83 885.28,-19.77 887.05,-30.22 893.18,-26.83"/>
</g>
<!-- Node8 -->
<g id="node8" class="node">
<title>Node8</title>
<g id="a_node8"><a xlink:href="math__array_8h.html" target="_top" xlink:title=" ">
<polygon fill="white" stroke="black" points="399.5,-224.5 399.5,-254.5 514.5,-254.5 514.5,-224.5 399.5,-224.5"/>
<text text-anchor="start" x="407.5" y="-242.5" font-family="Helvetica,sans-Serif" font-size="10.00">core/container/math</text>
<text text-anchor="middle" x="457" y="-231.5" font-family="Helvetica,sans-Serif" font-size="10.00">_array.h</text>
</a>
</g>
</g>
<!-- Node3&#45;&gt;Node8 -->
<g id="edge7" class="edge">
<title>Node3&#45;&gt;Node8</title>
<path fill="none" stroke="midnightblue" d="M646,-291.48C608.75,-281.43 558.43,-267.86 519.07,-257.24"/>
<polygon fill="midnightblue" stroke="midnightblue" points="519.89,-253.84 509.32,-254.61 518.06,-260.59 519.89,-253.84"/>
</g>
<!-- Node16 -->
<g id="node16" class="node">
<title>Node16</title>
<g id="a_node16"><a xlink:href="root_8h.html" target="_top" xlink:title=" ">
<polygon fill="white" stroke="black" points="726,-168.5 726,-187.5 814,-187.5 814,-168.5 726,-168.5"/>
<text text-anchor="middle" x="770" y="-175.5" font-family="Helvetica,sans-Serif" font-size="10.00">core/util/root.h</text>
</a>
</g>
</g>
<!-- Node3&#45;&gt;Node16 -->
<g id="edge34" class="edge">
<title>Node3&#45;&gt;Node16</title>
<path fill="none" stroke="midnightblue" d="M705.98,-291.48C719.17,-268.31 745.48,-222.07 759.93,-196.69"/>
<polygon fill="midnightblue" stroke="midnightblue" points="763.09,-198.21 765,-187.79 757.01,-194.75 763.09,-198.21"/>
</g>
<!-- Node18 -->
<g id="node18" class="node">
<title>Node18</title>
<g id="a_node18"><a xlink:href="log_8h.html" target="_top" xlink:title=" ">
<polygon fill="white" stroke="black" points="606.5,-112.5 606.5,-131.5 689.5,-131.5 689.5,-112.5 606.5,-112.5"/>
<text text-anchor="middle" x="648" y="-119.5" font-family="Helvetica,sans-Serif" font-size="10.00">core/util/log.h</text>
</a>
</g>
</g>
<!-- Node3&#45;&gt;Node18 -->
<g id="edge33" class="edge">
<title>Node3&#45;&gt;Node18</title>
<path fill="none" stroke="midnightblue" d="M697.97,-291.33C697.48,-265.81 694.41,-210.79 678,-168 674.14,-157.94 667.71,-147.85 661.79,-139.78"/>
<polygon fill="midnightblue" stroke="midnightblue" points="664.38,-137.41 655.49,-131.65 658.84,-141.69 664.38,-137.41"/>
</g>
<!-- Node25 -->
<g id="node25" class="node">
<title>Node25</title>
<g id="a_node25"><a xlink:href="parallel__resize__vector_8h.html" target="_top" xlink:title=" ">
<polygon fill="white" stroke="black" points="764,-224.5 764,-254.5 890,-254.5 890,-224.5 764,-224.5"/>
<text text-anchor="start" x="772" y="-242.5" font-family="Helvetica,sans-Serif" font-size="10.00">core/container/parallel</text>
<text text-anchor="middle" x="827" y="-231.5" font-family="Helvetica,sans-Serif" font-size="10.00">_resize_vector.h</text>
</a>
</g>
</g>
<!-- Node3&#45;&gt;Node25 -->
<g id="edge29" class="edge">
<title>Node3&#45;&gt;Node25</title>
<path fill="none" stroke="midnightblue" d="M725.99,-291.4C744.75,-281.94 769.67,-269.39 790.05,-259.12"/>
<polygon fill="midnightblue" stroke="midnightblue" points="791.71,-262.2 799.06,-254.58 788.56,-255.95 791.71,-262.2"/>
</g>
<!-- Node26 -->
<g id="node26" class="node">
<title>Node26</title>
<g id="a_node26"><a xlink:href="spinlock_8h.html" target="_top" xlink:title=" ">
<polygon fill="white" stroke="black" points="946.5,-230 946.5,-249 1055.5,-249 1055.5,-230 946.5,-230"/>
<text text-anchor="middle" x="1001" y="-237" font-family="Helvetica,sans-Serif" font-size="10.00">core/util/spinlock.h</text>
</a>
</g>
</g>
<!-- Node3&#45;&gt;Node26 -->
<g id="edge35" class="edge">
<title>Node3&#45;&gt;Node26</title>
<path fill="none" stroke="midnightblue" d="M762.26,-291.72C818.61,-279.63 899.38,-262.3 951.02,-251.22"/>
<polygon fill="midnightblue" stroke="midnightblue" points="951.9,-254.61 960.94,-249.09 950.43,-247.77 951.9,-254.61"/>
</g>
<!-- Node9 -->
<g id="node9" class="node">
<title>Node9</title>
<g id="a_node9"><a xlink:title=" ">
<polygon fill="white" stroke="#bfbfbf" points="174,-168.5 174,-187.5 238,-187.5 238,-168.5 174,-168.5"/>
<text text-anchor="middle" x="206" y="-175.5" font-family="Helvetica,sans-Serif" font-size="10.00">algorithm</text>
</a>
</g>
</g>
<!-- Node8&#45;&gt;Node9 -->
<g id="edge8" class="edge">
<title>Node8&#45;&gt;Node9</title>
<path fill="none" stroke="midnightblue" d="M399.42,-224.85C353.15,-213.88 289.27,-198.74 247.8,-188.91"/>
<polygon fill="midnightblue" stroke="midnightblue" points="248.56,-185.49 238.02,-186.59 246.94,-192.3 248.56,-185.49"/>
</g>
<!-- Node10 -->
<g id="node10" class="node">
<title>Node10</title>
<g id="a_node10"><a xlink:title=" ">
<polygon fill="white" stroke="#bfbfbf" points="256,-168.5 256,-187.5 308,-187.5 308,-168.5 256,-168.5"/>
<text text-anchor="middle" x="282" y="-175.5" font-family="Helvetica,sans-Serif" font-size="10.00">cassert</text>
</a>
</g>
</g>
<!-- Node8&#45;&gt;Node10 -->
<g id="edge9" class="edge">
<title>Node8&#45;&gt;Node10</title>
<path fill="none" stroke="midnightblue" d="M415.53,-224.4C385.42,-214.16 345.15,-200.47 316.73,-190.81"/>
<polygon fill="midnightblue" stroke="midnightblue" points="317.8,-187.48 307.21,-187.57 315.55,-194.1 317.8,-187.48"/>
</g>
<!-- Node11 -->
<g id="node11" class="node">
<title>Node11</title>
<g id="a_node11"><a xlink:title=" ">
<polygon fill="white" stroke="#bfbfbf" points="326.5,-168.5 326.5,-187.5 373.5,-187.5 373.5,-168.5 326.5,-168.5"/>
<text text-anchor="middle" x="350" y="-175.5" font-family="Helvetica,sans-Serif" font-size="10.00">cmath</text>
</a>
</g>
</g>
<!-- Node8&#45;&gt;Node11 -->
<g id="edge10" class="edge">
<title>Node8&#45;&gt;Node11</title>
<path fill="none" stroke="midnightblue" d="M431.64,-224.4C414.33,-214.77 391.52,-202.09 374.42,-192.58"/>
<polygon fill="midnightblue" stroke="midnightblue" points="376.01,-189.46 365.57,-187.66 372.61,-195.58 376.01,-189.46"/>
</g>
<!-- Node12 -->
<g id="node12" class="node">
<title>Node12</title>
<g id="a_node12"><a xlink:title=" ">
<polygon fill="white" stroke="#bfbfbf" points="392,-168.5 392,-187.5 448,-187.5 448,-168.5 392,-168.5"/>
<text text-anchor="middle" x="420" y="-175.5" font-family="Helvetica,sans-Serif" font-size="10.00">numeric</text>
</a>
</g>
</g>
<!-- Node8&#45;&gt;Node12 -->
<g id="edge11" class="edge">
<title>Node8&#45;&gt;Node12</title>
<path fill="none" stroke="midnightblue" d="M448.23,-224.4C443.02,-216.02 436.37,-205.33 430.83,-196.42"/>
<polygon fill="midnightblue" stroke="midnightblue" points="433.64,-194.3 425.38,-187.66 427.69,-198 433.64,-194.3"/>
</g>
<!-- Node13 -->
<g id="node13" class="node">
<title>Node13</title>
<g id="a_node13"><a xlink:title=" ">
<polygon fill="white" stroke="#bfbfbf" points="466.5,-168.5 466.5,-187.5 523.5,-187.5 523.5,-168.5 466.5,-168.5"/>
<text text-anchor="middle" x="495" y="-175.5" font-family="Helvetica,sans-Serif" font-size="10.00">ostream</text>
</a>
</g>
</g>
<!-- Node8&#45;&gt;Node13 -->
<g id="edge12" class="edge">
<title>Node8&#45;&gt;Node13</title>
<path fill="none" stroke="midnightblue" d="M466.01,-224.4C471.41,-215.93 478.33,-205.1 484.05,-196.14"/>
<polygon fill="midnightblue" stroke="midnightblue" points="487.04,-197.97 489.47,-187.66 481.14,-194.2 487.04,-197.97"/>
</g>
<!-- Node14 -->
<g id="node14" class="node">
<title>Node14</title>
<g id="a_node14"><a xlink:title=" ">
<polygon fill="white" stroke="#bfbfbf" points="541.5,-168.5 541.5,-187.5 606.5,-187.5 606.5,-168.5 541.5,-168.5"/>
<text text-anchor="middle" x="574" y="-175.5" font-family="Helvetica,sans-Serif" font-size="10.00">stdexcept</text>
</a>
</g>
</g>
<!-- Node8&#45;&gt;Node14 -->
<g id="edge13" class="edge">
<title>Node8&#45;&gt;Node14</title>
<path fill="none" stroke="midnightblue" d="M484.73,-224.4C503.83,-214.68 529.06,-201.86 547.82,-192.31"/>
<polygon fill="midnightblue" stroke="midnightblue" points="549.65,-195.31 556.98,-187.66 546.48,-189.07 549.65,-195.31"/>
</g>
<!-- Node15 -->
<g id="node15" class="node">
<title>Node15</title>
<g id="a_node15"><a xlink:title=" ">
<polygon fill="white" stroke="#bfbfbf" points="624.5,-168.5 624.5,-187.5 669.5,-187.5 669.5,-168.5 624.5,-168.5"/>
<text text-anchor="middle" x="647" y="-175.5" font-family="Helvetica,sans-Serif" font-size="10.00">utility</text>
</a>
</g>
</g>
<!-- Node8&#45;&gt;Node15 -->
<g id="edge14" class="edge">
<title>Node8&#45;&gt;Node15</title>
<path fill="none" stroke="midnightblue" d="M502.03,-224.4C536.63,-213.56 583.61,-198.85 614.58,-189.15"/>
<polygon fill="midnightblue" stroke="midnightblue" points="615.94,-192.39 624.44,-186.07 613.85,-185.71 615.94,-192.39"/>
</g>
<!-- Node8&#45;&gt;Node16 -->
<g id="edge15" class="edge">
<title>Node8&#45;&gt;Node16</title>
<path fill="none" stroke="midnightblue" d="M514.77,-227.52C572.14,-216.61 659.43,-200.02 715.59,-189.34"/>
<polygon fill="midnightblue" stroke="midnightblue" points="716.53,-192.73 725.7,-187.42 715.23,-185.85 716.53,-192.73"/>
</g>
<!-- Node8&#45;&gt;Node18 -->
<g id="edge28" class="edge">
<title>Node8&#45;&gt;Node18</title>
<path fill="none" stroke="midnightblue" d="M399.44,-237.01C323.05,-233.67 194.37,-222.88 165,-188 159.28,-181.2 159.01,-174.57 165,-168 193.6,-136.62 476.86,-126.75 595.82,-123.98"/>
<polygon fill="midnightblue" stroke="midnightblue" points="596.22,-127.47 606.13,-123.75 596.06,-120.47 596.22,-127.47"/>
</g>
<!-- Node17 -->
<g id="node17" class="node">
<title>Node17</title>
<g id="a_node17"><a xlink:title=" ">
<polygon fill="white" stroke="#bfbfbf" points="741.5,-112.5 741.5,-131.5 798.5,-131.5 798.5,-112.5 741.5,-112.5"/>
<text text-anchor="middle" x="770" y="-119.5" font-family="Helvetica,sans-Serif" font-size="10.00">TClass.h</text>
</a>
</g>
</g>
<!-- Node16&#45;&gt;Node17 -->
<g id="edge16" class="edge">
<title>Node16&#45;&gt;Node17</title>
<path fill="none" stroke="midnightblue" d="M770,-168.08C770,-161.01 770,-150.86 770,-141.99"/>
<polygon fill="midnightblue" stroke="midnightblue" points="773.5,-141.75 770,-131.75 766.5,-141.75 773.5,-141.75"/>
</g>
<!-- Node16&#45;&gt;Node18 -->
<g id="edge17" class="edge">
<title>Node16&#45;&gt;Node18</title>
<path fill="none" stroke="midnightblue" d="M750.67,-168.44C730.68,-159.6 699.26,-145.69 676.44,-135.59"/>
<polygon fill="midnightblue" stroke="midnightblue" points="677.8,-132.36 667.24,-131.52 674.97,-138.76 677.8,-132.36"/>
</g>
<!-- Node18&#45;&gt;Node5 -->
<g id="edge21" class="edge">
<title>Node18&#45;&gt;Node5</title>
<path fill="none" stroke="midnightblue" d="M606.26,-115.22C531.66,-104.89 376.21,-83.37 300.83,-72.93"/>
<polygon fill="midnightblue" stroke="midnightblue" points="301.13,-69.44 290.74,-71.53 300.17,-76.37 301.13,-69.44"/>
</g>
<!-- Node18&#45;&gt;Node6 -->
<g id="edge23" class="edge">
<title>Node18&#45;&gt;Node6</title>
<path fill="none" stroke="midnightblue" d="M606.3,-115.63C558.76,-108.69 485.03,-95.18 465,-76 452.54,-64.07 448.12,-44.45 446.62,-29.89"/>
<polygon fill="midnightblue" stroke="midnightblue" points="450.09,-29.28 445.94,-19.53 443.1,-29.74 450.09,-29.28"/>
</g>
<!-- Node19 -->
<g id="node19" class="node">
<title>Node19</title>
<g id="a_node19"><a xlink:title=" ">
<polygon fill="white" stroke="#bfbfbf" points="588,-56.5 588,-75.5 642,-75.5 642,-56.5 588,-56.5"/>
<text text-anchor="middle" x="615" y="-63.5" font-family="Helvetica,sans-Serif" font-size="10.00">TError.h</text>
</a>
</g>
</g>
<!-- Node18&#45;&gt;Node19 -->
<g id="edge18" class="edge">
<title>Node18&#45;&gt;Node19</title>
<path fill="none" stroke="midnightblue" d="M642.55,-112.08C637.99,-104.61 631.33,-93.72 625.71,-84.52"/>
<polygon fill="midnightblue" stroke="midnightblue" points="628.55,-82.46 620.35,-75.75 622.58,-86.11 628.55,-82.46"/>
</g>
<!-- Node20 -->
<g id="node20" class="node">
<title>Node20</title>
<g id="a_node20"><a xlink:title=" ">
<polygon fill="white" stroke="#bfbfbf" points="660,-56.5 660,-75.5 706,-75.5 706,-56.5 660,-56.5"/>
<text text-anchor="middle" x="683" y="-63.5" font-family="Helvetica,sans-Serif" font-size="10.00">cstdio</text>
</a>
</g>
</g>
<!-- Node18&#45;&gt;Node20 -->
<g id="edge19" class="edge">
<title>Node18&#45;&gt;Node20</title>
<path fill="none" stroke="midnightblue" d="M653.78,-112.08C658.67,-104.53 665.83,-93.49 671.83,-84.23"/>
<polygon fill="midnightblue" stroke="midnightblue" points="674.83,-86.05 677.33,-75.75 668.95,-82.24 674.83,-86.05"/>
</g>
<!-- Node21 -->
<g id="node21" class="node">
<title>Node21</title>
<g id="a_node21"><a xlink:title=" ">
<polygon fill="white" stroke="#bfbfbf" points="802.5,-56.5 802.5,-75.5 851.5,-75.5 851.5,-56.5 802.5,-56.5"/>
<text text-anchor="middle" x="827" y="-63.5" font-family="Helvetica,sans-Serif" font-size="10.00">cstdlib</text>
</a>
</g>
</g>
<!-- Node18&#45;&gt;Node21 -->
<g id="edge20" class="edge">
<title>Node18&#45;&gt;Node21</title>
<path fill="none" stroke="midnightblue" d="M676.36,-112.44C707.81,-102.96 758.55,-87.65 792.33,-77.46"/>
<polygon fill="midnightblue" stroke="midnightblue" points="793.67,-80.71 802.23,-74.47 791.64,-74.01 793.67,-80.71"/>
</g>
<!-- Node22 -->
<g id="node22" class="node">
<title>Node22</title>
<g id="a_node22"><a xlink:title=" ">
<polygon fill="white" stroke="#bfbfbf" points="724,-56.5 724,-75.5 784,-75.5 784,-56.5 724,-56.5"/>
<text text-anchor="middle" x="754" y="-63.5" font-family="Helvetica,sans-Serif" font-size="10.00">iostream</text>
</a>
</g>
</g>
<!-- Node18&#45;&gt;Node22 -->
<g id="edge22" class="edge">
<title>Node18&#45;&gt;Node22</title>
<path fill="none" stroke="midnightblue" d="M665.03,-112.32C682.03,-103.66 708.38,-90.24 727.99,-80.25"/>
<polygon fill="midnightblue" stroke="midnightblue" points="729.69,-83.31 737.01,-75.65 726.51,-77.08 729.69,-83.31"/>
</g>
<!-- Node23 -->
<g id="node23" class="node">
<title>Node23</title>
<g id="a_node23"><a xlink:href="string_8h.html" target="_top" xlink:title=" ">
<polygon fill="white" stroke="black" points="474,-56.5 474,-75.5 570,-75.5 570,-56.5 474,-56.5"/>
<text text-anchor="middle" x="522" y="-63.5" font-family="Helvetica,sans-Serif" font-size="10.00">core/util/string.h</text>
</a>
</g>
</g>
<!-- Node18&#45;&gt;Node23 -->
<g id="edge24" class="edge">
<title>Node18&#45;&gt;Node23</title>
<path fill="none" stroke="midnightblue" d="M628.03,-112.44C607.39,-103.6 574.94,-89.69 551.37,-79.59"/>
<polygon fill="midnightblue" stroke="midnightblue" points="552.44,-76.24 541.87,-75.52 549.68,-82.67 552.44,-76.24"/>
</g>
<!-- Node23&#45;&gt;Node6 -->
<g id="edge26" class="edge">
<title>Node23&#45;&gt;Node6</title>
<path fill="none" stroke="midnightblue" d="M509.79,-56.32C498.22,-48.11 480.62,-35.6 466.84,-25.81"/>
<polygon fill="midnightblue" stroke="midnightblue" points="468.61,-22.77 458.43,-19.83 464.56,-28.48 468.61,-22.77"/>
</g>
<!-- Node23&#45;&gt;Node7 -->
<g id="edge27" class="edge">
<title>Node23&#45;&gt;Node7</title>
<path fill="none" stroke="midnightblue" d="M570.2,-57.36C573.18,-56.9 576.13,-56.44 579,-56 675.9,-41.11 790.45,-24.16 846.17,-15.97"/>
<polygon fill="midnightblue" stroke="midnightblue" points="846.8,-19.41 856.19,-14.49 845.78,-12.48 846.8,-19.41"/>
</g>
<!-- Node24 -->
<g id="node24" class="node">
<title>Node24</title>
<g id="a_node24"><a xlink:title=" ">
<polygon fill="white" stroke="#bfbfbf" points="494,-0.5 494,-19.5 550,-19.5 550,-0.5 494,-0.5"/>
<text text-anchor="middle" x="522" y="-7.5" font-family="Helvetica,sans-Serif" font-size="10.00">sstream</text>
</a>
</g>
</g>
<!-- Node23&#45;&gt;Node24 -->
<g id="edge25" class="edge">
<title>Node23&#45;&gt;Node24</title>
<path fill="none" stroke="midnightblue" d="M522,-56.08C522,-49.01 522,-38.86 522,-29.99"/>
<polygon fill="midnightblue" stroke="midnightblue" points="525.5,-29.75 522,-19.75 518.5,-29.75 525.5,-29.75"/>
</g>
<!-- Node25&#45;&gt;Node7 -->
<g id="edge31" class="edge">
<title>Node25&#45;&gt;Node7</title>
<path fill="none" stroke="midnightblue" d="M831.13,-224.4C834.03,-214.31 837.93,-200.36 841,-188 855.27,-130.61 869.6,-62.1 876.22,-29.72"/>
<polygon fill="midnightblue" stroke="midnightblue" points="879.73,-30.01 878.29,-19.51 872.87,-28.61 879.73,-30.01"/>
</g>
<!-- Node25&#45;&gt;Node16 -->
<g id="edge32" class="edge">
<title>Node25&#45;&gt;Node16</title>
<path fill="none" stroke="midnightblue" d="M813.49,-224.4C805.04,-215.58 794.12,-204.18 785.34,-195.02"/>
<polygon fill="midnightblue" stroke="midnightblue" points="787.74,-192.46 778.29,-187.66 782.68,-197.3 787.74,-192.46"/>
</g>
<!-- Node25&#45;&gt;Node21 -->
<g id="edge30" class="edge">
<title>Node25&#45;&gt;Node21</title>
<path fill="none" stroke="midnightblue" d="M827,-224.47C827,-193.7 827,-120.33 827,-85.7"/>
<polygon fill="midnightblue" stroke="midnightblue" points="830.5,-85.56 827,-75.56 823.5,-85.56 830.5,-85.56"/>
</g>
<!-- Node27 -->
<g id="node27" class="node">
<title>Node27</title>
<g id="a_node27"><a xlink:title=" ">
<polygon fill="white" stroke="#bfbfbf" points="976,-168.5 976,-187.5 1026,-187.5 1026,-168.5 976,-168.5"/>
<text text-anchor="middle" x="1001" y="-175.5" font-family="Helvetica,sans-Serif" font-size="10.00">atomic</text>
</a>
</g>
</g>
<!-- Node26&#45;&gt;Node27 -->
<g id="edge36" class="edge">
<title>Node26&#45;&gt;Node27</title>
<path fill="none" stroke="midnightblue" d="M1001,-229.98C1001,-221.58 1001,-208.48 1001,-197.66"/>
<polygon fill="midnightblue" stroke="midnightblue" points="1004.5,-197.51 1001,-187.51 997.5,-197.51 1004.5,-197.51"/>
</g>
</g>
</svg>
