<?xml version="1.0" encoding="UTF-8" standalone="no"?>
<!DOCTYPE svg PUBLIC "-//W3C//DTD SVG 1.1//EN"
 "http://www.w3.org/Graphics/SVG/1.1/DTD/svg11.dtd">
<!-- Generated by graphviz version 2.40.1 (20161225.0304)
 -->
<!-- Title: core/event/event.h Pages: 1 -->
<svg width="1790pt" height="497pt"
 viewBox="0.00 0.00 1790.00 497.00" xmlns="http://www.w3.org/2000/svg" xmlns:xlink="http://www.w3.org/1999/xlink">
<g id="graph0" class="graph" transform="scale(1 1) rotate(0) translate(4 493)">
<title>core/event/event.h</title>
<polygon fill="#ffffff" stroke="transparent" points="-4,4 -4,-493 1786,-493 1786,4 -4,4"/>
<!-- Node12 -->
<g id="node1" class="node">
<title>Node12</title>
<polygon fill="#bfbfbf" stroke="#000000" points="732,-469.5 732,-488.5 830,-488.5 830,-469.5 732,-469.5"/>
<text text-anchor="middle" x="781" y="-476.5" font-family="Helvetica,sans-Serif" font-size="10.00" fill="#000000">core/event/event.h</text>
</g>
<!-- Node13 -->
<g id="node2" class="node">
<title>Node13</title>
<g id="a_node2"><a xlink:href="biology__module_8h.html" target="_top" xlink:title="core/biology_module\l/biology_module.h">
<polygon fill="#ffffff" stroke="#000000" points="107,-335.5 107,-365.5 213,-365.5 213,-335.5 107,-335.5"/>
<text text-anchor="start" x="115" y="-353.5" font-family="Helvetica,sans-Serif" font-size="10.00" fill="#000000">core/biology_module</text>
<text text-anchor="middle" x="160" y="-342.5" font-family="Helvetica,sans-Serif" font-size="10.00" fill="#000000">/biology_module.h</text>
</a>
</g>
</g>
<!-- Node12&#45;&gt;Node13 -->
<g id="edge1" class="edge">
<title>Node12&#45;&gt;Node13</title>
<path fill="none" stroke="#191970" d="M721.7258,-476.6994C587.7631,-471.1265 269.9414,-455.6719 227,-433 198.4458,-417.9241 177.6214,-384.9075 167.3021,-365.5235"/>
<polygon fill="#191970" stroke="#191970" points="721.6778,-480.2003 731.8134,-477.1148 721.9659,-473.2062 721.6778,-480.2003"/>
</g>
<!-- Node14 -->
<g id="node3" class="node">
<title>Node14</title>
<g id="a_node3"><a xlink:href="biodynamo_8h.html" target="_top" xlink:title="biodynamo.h">
<polygon fill="#ffffff" stroke="#000000" points="296,-.5 296,-19.5 368,-19.5 368,-.5 296,-.5"/>
<text text-anchor="middle" x="332" y="-7.5" font-family="Helvetica,sans-Serif" font-size="10.00" fill="#000000">biodynamo.h</text>
</a>
</g>
</g>
<!-- Node12&#45;&gt;Node14 -->
<g id="edge36" class="edge">
<title>Node12&#45;&gt;Node14</title>
<path fill="none" stroke="#191970" d="M721.7495,-476.4277C623.8372,-471.5014 432.9253,-458.8487 371,-433 327.2506,-414.7382 316.4544,-403.919 288,-366 257.9794,-325.9938 250.1908,-306.046 260,-257 263.3993,-240.0033 269.3944,-237.4019 275,-221 301.0152,-144.8793 323.0328,-50.1316 329.8329,-19.8108"/>
<polygon fill="#191970" stroke="#191970" points="721.6253,-479.9258 731.7854,-476.922 721.9696,-472.9342 721.6253,-479.9258"/>
</g>
<!-- Node17 -->
<g id="node6" class="node">
<title>Node17</title>
<g id="a_node6"><a xlink:href="sim__object_8cc.html" target="_top" xlink:title="core/sim_object/sim\l_object.cc">
<polygon fill="#ffffff" stroke="#000000" points="0,-263 0,-293 104,-293 104,-263 0,-263"/>
<text text-anchor="start" x="8" y="-281" font-family="Helvetica,sans-Serif" font-size="10.00" fill="#000000">core/sim_object/sim</text>
<text text-anchor="middle" x="52" y="-270" font-family="Helvetica,sans-Serif" font-size="10.00" fill="#000000">_object.cc</text>
</a>
</g>
</g>
<!-- Node12&#45;&gt;Node17 -->
<g id="edge58" class="edge">
<title>Node12&#45;&gt;Node17</title>
<path fill="none" stroke="#191970" d="M721.4204,-476.2591C580.9312,-469.5279 237.051,-451.3888 188,-433 141.3064,-415.4949 130.3634,-403.9385 98,-366 78.8683,-343.5726 64.771,-311.8428 57.5186,-293.2447"/>
<polygon fill="#191970" stroke="#191970" points="721.4225,-479.7631 731.5777,-476.7429 721.7556,-472.771 721.4225,-479.7631"/>
</g>
<!-- Node18 -->
<g id="node7" class="node">
<title>Node18</title>
<g id="a_node7"><a xlink:href="cell__division__event_8h.html" target="_top" xlink:title="core/event/cell_division\l_event.h">
<polygon fill="#ffffff" stroke="#000000" points="379.5,-402.5 379.5,-432.5 498.5,-432.5 498.5,-402.5 379.5,-402.5"/>
<text text-anchor="start" x="387.5" y="-420.5" font-family="Helvetica,sans-Serif" font-size="10.00" fill="#000000">core/event/cell_division</text>
<text text-anchor="middle" x="439" y="-409.5" font-family="Helvetica,sans-Serif" font-size="10.00" fill="#000000">_event.h</text>
</a>
</g>
</g>
<!-- Node12&#45;&gt;Node18 -->
<g id="edge8" class="edge">
<title>Node12&#45;&gt;Node18</title>
<path fill="none" stroke="#191970" d="M721.8995,-468.3723C659.3678,-457.1275 561.2459,-439.4828 498.5459,-428.2078"/>
<polygon fill="#191970" stroke="#191970" points="721.5381,-471.8634 731.9997,-470.1885 722.7771,-464.9739 721.5381,-471.8634"/>
</g>
<!-- Node19 -->
<g id="node8" class="node">
<title>Node19</title>
<g id="a_node8"><a xlink:href="cell_8h.html" target="_top" xlink:title="core/sim_object/cell.h">
<polygon fill="#ffffff" stroke="#000000" points="604,-341 604,-360 716,-360 716,-341 604,-341"/>
<text text-anchor="middle" x="660" y="-348" font-family="Helvetica,sans-Serif" font-size="10.00" fill="#000000">core/sim_object/cell.h</text>
</a>
</g>
</g>
<!-- Node12&#45;&gt;Node19 -->
<g id="edge35" class="edge">
<title>Node12&#45;&gt;Node19</title>
<path fill="none" stroke="#191970" d="M764.7253,-461.7166C738.9633,-434.3577 689.622,-381.9581 669.2002,-360.2705"/>
<polygon fill="#191970" stroke="#191970" points="762.5018,-464.4607 771.9053,-469.3416 767.598,-459.6618 762.5018,-464.4607"/>
</g>
<!-- Node36 -->
<g id="node25" class="node">
<title>Node36</title>
<g id="a_node25"><a xlink:href="neurite__bifurcation__event_8h.html" target="_top" xlink:title="neuroscience/event\l/neurite_bifurcation\l_event.h">
<polygon fill="#ffffff" stroke="#000000" points="1391.5,-257.5 1391.5,-298.5 1492.5,-298.5 1492.5,-257.5 1391.5,-257.5"/>
<text text-anchor="start" x="1399.5" y="-286.5" font-family="Helvetica,sans-Serif" font-size="10.00" fill="#000000">neuroscience/event</text>
<text text-anchor="start" x="1399.5" y="-275.5" font-family="Helvetica,sans-Serif" font-size="10.00" fill="#000000">/neurite_bifurcation</text>
<text text-anchor="middle" x="1442" y="-264.5" font-family="Helvetica,sans-Serif" font-size="10.00" fill="#000000">_event.h</text>
</a>
</g>
</g>
<!-- Node12&#45;&gt;Node36 -->
<g id="edge37" class="edge">
<title>Node12&#45;&gt;Node36</title>
<path fill="none" stroke="#191970" d="M824.4009,-466.7384C923.6064,-438.5504 1174.4192,-366.3731 1382,-299 1385.0442,-298.012 1388.1686,-296.9783 1391.3161,-295.922"/>
<polygon fill="#191970" stroke="#191970" points="823.3884,-463.3875 814.7241,-469.485 825.2998,-470.1215 823.3884,-463.3875"/>
</g>
<!-- Node38 -->
<g id="node27" class="node">
<title>Node38</title>
<g id="a_node27"><a xlink:href="neurite__branching__event_8h.html" target="_top" xlink:title="neuroscience/event\l/neurite_branching_event.h">
<polygon fill="#ffffff" stroke="#000000" points="1648,-263 1648,-293 1782,-293 1782,-263 1648,-263"/>
<text text-anchor="start" x="1656" y="-281" font-family="Helvetica,sans-Serif" font-size="10.00" fill="#000000">neuroscience/event</text>
<text text-anchor="middle" x="1715" y="-270" font-family="Helvetica,sans-Serif" font-size="10.00" fill="#000000">/neurite_branching_event.h</text>
</a>
</g>
</g>
<!-- Node12&#45;&gt;Node38 -->
<g id="edge41" class="edge">
<title>Node12&#45;&gt;Node38</title>
<path fill="none" stroke="#191970" d="M840.3527,-471.483C901.4393,-463.3902 999.2436,-449.4406 1083,-433 1298.8967,-390.6214 1552.0665,-323.0183 1660.8533,-293.095"/>
<polygon fill="#191970" stroke="#191970" points="839.5874,-468.0535 830.1294,-472.8281 840.5006,-474.9937 839.5874,-468.0535"/>
</g>
<!-- Node39 -->
<g id="node28" class="node">
<title>Node39</title>
<g id="a_node28"><a xlink:href="new__neurite__extension__event_8h.html" target="_top" xlink:title="neuroscience/event\l/new_neurite_extension\l_event.h">
<polygon fill="#ffffff" stroke="#000000" points="1123.5,-257.5 1123.5,-298.5 1242.5,-298.5 1242.5,-257.5 1123.5,-257.5"/>
<text text-anchor="start" x="1131.5" y="-286.5" font-family="Helvetica,sans-Serif" font-size="10.00" fill="#000000">neuroscience/event</text>
<text text-anchor="start" x="1131.5" y="-275.5" font-family="Helvetica,sans-Serif" font-size="10.00" fill="#000000">/new_neurite_extension</text>
<text text-anchor="middle" x="1183" y="-264.5" font-family="Helvetica,sans-Serif" font-size="10.00" fill="#000000">_event.h</text>
</a>
</g>
</g>
<!-- Node12&#45;&gt;Node39 -->
<g id="edge45" class="edge">
<title>Node12&#45;&gt;Node39</title>
<path fill="none" stroke="#191970" d="M795.1818,-461.2882C820.9358,-430.4148 878.6229,-366.9897 942,-335 1012.111,-299.6114 1038.9513,-318.6088 1115,-299 1117.7518,-298.2905 1120.558,-297.5389 1123.3867,-296.7586"/>
<polygon fill="#191970" stroke="#191970" points="792.1494,-459.4664 788.5138,-469.4179 797.5617,-463.9056 792.1494,-459.4664"/>
</g>
<!-- Node40 -->
<g id="node29" class="node">
<title>Node40</title>
<g id="a_node29"><a xlink:href="side__neurite__extension__event_8h.html" target="_top" xlink:title="neuroscience/event\l/side_neurite_extension\l_event.h">
<polygon fill="#ffffff" stroke="#000000" points="1510.5,-257.5 1510.5,-298.5 1629.5,-298.5 1629.5,-257.5 1510.5,-257.5"/>
<text text-anchor="start" x="1518.5" y="-286.5" font-family="Helvetica,sans-Serif" font-size="10.00" fill="#000000">neuroscience/event</text>
<text text-anchor="start" x="1518.5" y="-275.5" font-family="Helvetica,sans-Serif" font-size="10.00" fill="#000000">/side_neurite_extension</text>
<text text-anchor="middle" x="1570" y="-264.5" font-family="Helvetica,sans-Serif" font-size="10.00" fill="#000000">_event.h</text>
</a>
</g>
</g>
<!-- Node12&#45;&gt;Node40 -->
<g id="edge50" class="edge">
<title>Node12&#45;&gt;Node40</title>
<path fill="none" stroke="#191970" d="M840.4335,-468.0508C886.3627,-459.3255 951.4317,-446.3889 1008,-433 1229.3734,-380.6042 1283.5092,-362.3503 1502,-299 1504.7294,-298.2086 1507.5172,-297.3899 1510.331,-296.5552"/>
<polygon fill="#191970" stroke="#191970" points="839.5287,-464.6598 830.353,-469.9566 840.8292,-471.538 839.5287,-464.6598"/>
</g>
<!-- Node41 -->
<g id="node30" class="node">
<title>Node41</title>
<g id="a_node30"><a xlink:href="split__neurite__element__event_8h.html" target="_top" xlink:title="neuroscience/event\l/split_neurite_element\l_event.h">
<polygon fill="#ffffff" stroke="#000000" points="1261,-257.5 1261,-298.5 1373,-298.5 1373,-257.5 1261,-257.5"/>
<text text-anchor="start" x="1269" y="-286.5" font-family="Helvetica,sans-Serif" font-size="10.00" fill="#000000">neuroscience/event</text>
<text text-anchor="start" x="1269" y="-275.5" font-family="Helvetica,sans-Serif" font-size="10.00" fill="#000000">/split_neurite_element</text>
<text text-anchor="middle" x="1317" y="-264.5" font-family="Helvetica,sans-Serif" font-size="10.00" fill="#000000">_event.h</text>
</a>
</g>
</g>
<!-- Node12&#45;&gt;Node41 -->
<g id="edge54" class="edge">
<title>Node12&#45;&gt;Node41</title>
<path fill="none" stroke="#191970" d="M803.9602,-463.7349C857.3113,-428.3757 986.8006,-343.2344 1009,-335 1111.3636,-297.0303 1145.691,-323.8674 1252,-299 1254.8868,-298.3247 1257.8297,-297.5811 1260.7902,-296.7888"/>
<polygon fill="#191970" stroke="#191970" points="801.8988,-460.9023 795.5009,-469.3473 805.7687,-466.7353 801.8988,-460.9023"/>
</g>
<!-- Node13&#45;&gt;Node14 -->
<g id="edge2" class="edge">
<title>Node13&#45;&gt;Node14</title>
<path fill="none" stroke="#191970" d="M152.2655,-325.8593C143.978,-297.231 132,-248.4287 132,-205.5 132,-205.5 132,-205.5 132,-138.5 132,-61.5289 238.147,-28.5077 295.7815,-16.2512"/>
<polygon fill="#191970" stroke="#191970" points="148.9121,-326.862 155.1228,-335.4456 155.6205,-324.8624 148.9121,-326.862"/>
</g>
<!-- Node15 -->
<g id="node4" class="node">
<title>Node15</title>
<g id="a_node4"><a xlink:href="grow__divide_8h.html" target="_top" xlink:title="core/biology_module\l/grow_divide.h">
<polygon fill="#ffffff" stroke="#000000" points="269,-263 269,-293 375,-293 375,-263 269,-263"/>
<text text-anchor="start" x="277" y="-281" font-family="Helvetica,sans-Serif" font-size="10.00" fill="#000000">core/biology_module</text>
<text text-anchor="middle" x="322" y="-270" font-family="Helvetica,sans-Serif" font-size="10.00" fill="#000000">/grow_divide.h</text>
</a>
</g>
</g>
<!-- Node13&#45;&gt;Node15 -->
<g id="edge3" class="edge">
<title>Node13&#45;&gt;Node15</title>
<path fill="none" stroke="#191970" d="M202.7208,-331.3811C229.5346,-319.3811 263.6163,-304.1285 288.4765,-293.0028"/>
<polygon fill="#191970" stroke="#191970" points="201.2644,-328.1983 193.5665,-335.478 204.1239,-334.5877 201.2644,-328.1983"/>
</g>
<!-- Node16 -->
<g id="node5" class="node">
<title>Node16</title>
<g id="a_node5"><a xlink:href="regulate__genes_8h.html" target="_top" xlink:title="core/biology_module\l/regulate_genes.h">
<polygon fill="#ffffff" stroke="#000000" points="160,-190.5 160,-220.5 266,-220.5 266,-190.5 160,-190.5"/>
<text text-anchor="start" x="168" y="-208.5" font-family="Helvetica,sans-Serif" font-size="10.00" fill="#000000">core/biology_module</text>
<text text-anchor="middle" x="213" y="-197.5" font-family="Helvetica,sans-Serif" font-size="10.00" fill="#000000">/regulate_genes.h</text>
</a>
</g>
</g>
<!-- Node13&#45;&gt;Node16 -->
<g id="edge5" class="edge">
<title>Node13&#45;&gt;Node16</title>
<path fill="none" stroke="#191970" d="M169.0093,-325.852C180.0421,-295.6679 198.3838,-245.4876 207.5029,-220.5392"/>
<polygon fill="#191970" stroke="#191970" points="165.7176,-324.6627 165.5718,-335.2565 172.2921,-327.0658 165.7176,-324.6627"/>
</g>
<!-- Node13&#45;&gt;Node17 -->
<g id="edge7" class="edge">
<title>Node13&#45;&gt;Node17</title>
<path fill="none" stroke="#191970" d="M128.9112,-329.6302C111.475,-317.9253 90.1264,-303.5941 74.349,-293.0028"/>
<polygon fill="#191970" stroke="#191970" points="127.3688,-332.8103 137.6223,-335.478 131.2704,-326.9984 127.3688,-332.8103"/>
</g>
<!-- Node15&#45;&gt;Node14 -->
<g id="edge4" class="edge">
<title>Node15&#45;&gt;Node14</title>
<path fill="none" stroke="#191970" d="M322.9407,-252.7885C325.0811,-195.426 330.2383,-57.2128 331.6421,-19.5926"/>
<polygon fill="#191970" stroke="#191970" points="319.4417,-252.6997 322.5663,-262.8233 326.4368,-252.9608 319.4417,-252.6997"/>
</g>
<!-- Node16&#45;&gt;Node14 -->
<g id="edge6" class="edge">
<title>Node16&#45;&gt;Node14</title>
<path fill="none" stroke="#191970" d="M220.4589,-180.777C230.6214,-149.6668 250.9392,-95.53 280,-56 290.709,-41.4331 306.7212,-28.1439 318.1452,-19.6363"/>
<polygon fill="#191970" stroke="#191970" points="217.097,-179.8 217.4039,-190.3904 223.7682,-181.9201 217.097,-179.8"/>
</g>
<!-- Node18&#45;&gt;Node14 -->
<g id="edge33" class="edge">
<title>Node18&#45;&gt;Node14</title>
<path fill="none" stroke="#191970" d="M433.6633,-392.4723C423.64,-344.6176 403,-241.6826 403,-205.5 403,-205.5 403,-205.5 403,-138.5 403,-88.5437 361.3811,-39.7587 341.8722,-19.6348"/>
<polygon fill="#191970" stroke="#191970" points="430.2542,-393.2692 435.7417,-402.3322 437.1037,-391.8253 430.2542,-393.2692"/>
</g>
<!-- Node18&#45;&gt;Node15 -->
<g id="edge9" class="edge">
<title>Node18&#45;&gt;Node15</title>
<path fill="none" stroke="#191970" d="M369.2886,-399.9221C338.7446,-390.6764 307.8248,-378.6493 299,-366 283.4595,-343.7248 299.1841,-311.6573 311.1766,-293.0113"/>
<polygon fill="#191970" stroke="#191970" points="368.5827,-403.3626 379.1638,-402.8235 370.556,-396.6465 368.5827,-403.3626"/>
</g>
<!-- Node18&#45;&gt;Node19 -->
<g id="edge10" class="edge">
<title>Node18&#45;&gt;Node19</title>
<path fill="none" stroke="#191970" d="M498.4228,-399.4849C540.3589,-386.7713 594.8786,-370.2427 628.6467,-360.0053"/>
<polygon fill="#191970" stroke="#191970" points="497.1511,-396.2131 488.5967,-402.4639 499.1821,-402.912 497.1511,-396.2131"/>
</g>
<!-- Node35 -->
<g id="node24" class="node">
<title>Node35</title>
<g id="a_node24"><a xlink:href="core_2event_2event_8cc.html" target="_top" xlink:title="core/event/event.cc">
<polygon fill="#ffffff" stroke="#000000" points="307.5,-341 307.5,-360 410.5,-360 410.5,-341 307.5,-341"/>
<text text-anchor="middle" x="359" y="-348" font-family="Helvetica,sans-Serif" font-size="10.00" fill="#000000">core/event/event.cc</text>
</a>
</g>
</g>
<!-- Node18&#45;&gt;Node35 -->
<g id="edge34" class="edge">
<title>Node18&#45;&gt;Node35</title>
<path fill="none" stroke="#191970" d="M412.7798,-395.5406C398.4383,-383.5296 381.4044,-369.2637 370.4089,-360.055"/>
<polygon fill="#191970" stroke="#191970" points="410.933,-398.5592 420.8468,-402.2967 415.4275,-393.1927 410.933,-398.5592"/>
</g>
<!-- Node19&#45;&gt;Node14 -->
<g id="edge12" class="edge">
<title>Node19&#45;&gt;Node14</title>
<path fill="none" stroke="#191970" d="M593.6127,-341.111C542.7766,-332.5593 478.345,-318.3158 460,-299 430.7979,-268.2525 441,-247.9049 441,-205.5 441,-205.5 441,-205.5 441,-138.5 441,-100.3133 440.9796,-85.7187 417,-56 402.9862,-38.6322 380.5911,-26.8947 362.3058,-19.625"/>
<polygon fill="#191970" stroke="#191970" points="593.1464,-344.5812 603.581,-342.7453 594.279,-337.6735 593.1464,-344.5812"/>
</g>
<!-- Node19&#45;&gt;Node15 -->
<g id="edge11" class="edge">
<title>Node19&#45;&gt;Node15</title>
<path fill="none" stroke="#191970" d="M605.6549,-338.8431C542.2751,-325.2484 438.1847,-302.9213 375.2698,-289.4262"/>
<polygon fill="#191970" stroke="#191970" points="604.9532,-342.2722 615.4648,-340.9473 606.4213,-335.4278 604.9532,-342.2722"/>
</g>
<!-- Node20 -->
<g id="node9" class="node">
<title>Node20</title>
<g id="a_node9"><a xlink:href="neuron__soma_8h.html" target="_top" xlink:title="neuroscience/neuron\l_soma.h">
<polygon fill="#ffffff" stroke="#000000" points="998.5,-263 998.5,-293 1105.5,-293 1105.5,-263 998.5,-263"/>
<text text-anchor="start" x="1006.5" y="-281" font-family="Helvetica,sans-Serif" font-size="10.00" fill="#000000">neuroscience/neuron</text>
<text text-anchor="middle" x="1052" y="-270" font-family="Helvetica,sans-Serif" font-size="10.00" fill="#000000">_soma.h</text>
</a>
</g>
</g>
<!-- Node19&#45;&gt;Node20 -->
<g id="edge13" class="edge">
<title>Node19&#45;&gt;Node20</title>
<path fill="none" stroke="#191970" d="M726.0599,-343.5752C793.1551,-335.7538 899.7449,-321.1536 990,-299 996.8429,-297.3204 1004.0079,-295.2226 1010.9375,-293.0076"/>
<polygon fill="#191970" stroke="#191970" points="725.5816,-340.107 716.0467,-344.7262 726.381,-347.0612 725.5816,-340.107"/>
</g>
<!-- Node30 -->
<g id="node19" class="node">
<title>Node30</title>
<g id="a_node19"><a xlink:href="exporter_8cc.html" target="_top" xlink:title="core/exporter.cc">
<polygon fill="#ffffff" stroke="#000000" points="893.5,-268.5 893.5,-287.5 980.5,-287.5 980.5,-268.5 893.5,-268.5"/>
<text text-anchor="middle" x="937" y="-275.5" font-family="Helvetica,sans-Serif" font-size="10.00" fill="#000000">core/exporter.cc</text>
</a>
</g>
</g>
<!-- Node19&#45;&gt;Node30 -->
<g id="edge27" class="edge">
<title>Node19&#45;&gt;Node30</title>
<path fill="none" stroke="#191970" d="M722.4843,-338.9724C768.0357,-329.9004 830.9759,-315.9733 885,-299 895.2174,-295.7899 906.255,-291.4612 915.5216,-287.5679"/>
<polygon fill="#191970" stroke="#191970" points="721.5942,-335.5804 712.4589,-340.9467 722.9468,-342.4485 721.5942,-335.5804"/>
</g>
<!-- Node31 -->
<g id="node20" class="node">
<title>Node31</title>
<g id="a_node20"><a xlink:href="displacement__op__cuda_8h.html" target="_top" xlink:title="core/operation/displacement\l_op_cuda.h">
<polygon fill="#ffffff" stroke="#000000" points="736.5,-263 736.5,-293 875.5,-293 875.5,-263 736.5,-263"/>
<text text-anchor="start" x="744.5" y="-281" font-family="Helvetica,sans-Serif" font-size="10.00" fill="#000000">core/operation/displacement</text>
<text text-anchor="middle" x="806" y="-270" font-family="Helvetica,sans-Serif" font-size="10.00" fill="#000000">_op_cuda.h</text>
</a>
</g>
</g>
<!-- Node19&#45;&gt;Node31 -->
<g id="edge28" class="edge">
<title>Node19&#45;&gt;Node31</title>
<path fill="none" stroke="#191970" d="M688.3942,-336.4002C713.4692,-323.9485 749.931,-305.8425 775.5928,-293.0995"/>
<polygon fill="#191970" stroke="#191970" points="686.7875,-333.2901 679.3877,-340.8726 689.9009,-339.5597 686.7875,-333.2901"/>
</g>
<!-- Node33 -->
<g id="node22" class="node">
<title>Node33</title>
<g id="a_node22"><a xlink:href="dividing__cell__op_8h.html" target="_top" xlink:title="core/operation/dividing\l_cell_op.h">
<polygon fill="#ffffff" stroke="#000000" points="469,-263 469,-293 583,-293 583,-263 469,-263"/>
<text text-anchor="start" x="477" y="-281" font-family="Helvetica,sans-Serif" font-size="10.00" fill="#000000">core/operation/dividing</text>
<text text-anchor="middle" x="526" y="-270" font-family="Helvetica,sans-Serif" font-size="10.00" fill="#000000">_cell_op.h</text>
</a>
</g>
</g>
<!-- Node19&#45;&gt;Node33 -->
<g id="edge30" class="edge">
<title>Node19&#45;&gt;Node33</title>
<path fill="none" stroke="#191970" d="M633.3289,-336.0697C610.3366,-323.6299 577.2531,-305.7302 553.908,-293.0995"/>
<polygon fill="#191970" stroke="#191970" points="631.7451,-339.1922 642.2058,-340.8726 635.0761,-333.0356 631.7451,-339.1922"/>
</g>
<!-- Node34 -->
<g id="node23" class="node">
<title>Node34</title>
<g id="a_node23"><a xlink:href="cell_8cc.html" target="_top" xlink:title="core/sim_object/cell.cc">
<polygon fill="#ffffff" stroke="#000000" points="601.5,-268.5 601.5,-287.5 718.5,-287.5 718.5,-268.5 601.5,-268.5"/>
<text text-anchor="middle" x="660" y="-275.5" font-family="Helvetica,sans-Serif" font-size="10.00" fill="#000000">core/sim_object/cell.cc</text>
</a>
</g>
</g>
<!-- Node19&#45;&gt;Node34 -->
<g id="edge32" class="edge">
<title>Node19&#45;&gt;Node34</title>
<path fill="none" stroke="#191970" d="M660,-330.6054C660,-316.6237 660,-298.5346 660,-287.6228"/>
<polygon fill="#191970" stroke="#191970" points="656.5001,-330.7223 660,-340.7223 663.5001,-330.7224 656.5001,-330.7223"/>
</g>
<!-- Node21 -->
<g id="node10" class="node">
<title>Node21</title>
<g id="a_node10"><a xlink:href="neurite__element_8h.html" target="_top" xlink:title="neuroscience/neurite\l_element.h">
<polygon fill="#ffffff" stroke="#000000" points="1210.5,-190.5 1210.5,-220.5 1317.5,-220.5 1317.5,-190.5 1210.5,-190.5"/>
<text text-anchor="start" x="1218.5" y="-208.5" font-family="Helvetica,sans-Serif" font-size="10.00" fill="#000000">neuroscience/neurite</text>
<text text-anchor="middle" x="1264" y="-197.5" font-family="Helvetica,sans-Serif" font-size="10.00" fill="#000000">_element.h</text>
</a>
</g>
</g>
<!-- Node20&#45;&gt;Node21 -->
<g id="edge14" class="edge">
<title>Node20&#45;&gt;Node21</title>
<path fill="none" stroke="#191970" d="M1105.6216,-259.6624C1141.0425,-247.5491 1186.8863,-231.8714 1220.1297,-220.5028"/>
<polygon fill="#191970" stroke="#191970" points="1104.256,-256.4304 1095.9265,-262.978 1106.5211,-263.0538 1104.256,-256.4304"/>
</g>
<!-- Node27 -->
<g id="node16" class="node">
<title>Node27</title>
<g id="a_node16"><a xlink:href="neuron__or__neurite_8cc.html" target="_top" xlink:title="neuroscience/neuron\l_or_neurite.cc">
<polygon fill="#ffffff" stroke="#000000" points="873.5,-123.5 873.5,-153.5 980.5,-153.5 980.5,-123.5 873.5,-123.5"/>
<text text-anchor="start" x="881.5" y="-141.5" font-family="Helvetica,sans-Serif" font-size="10.00" fill="#000000">neuroscience/neuron</text>
<text text-anchor="middle" x="927" y="-130.5" font-family="Helvetica,sans-Serif" font-size="10.00" fill="#000000">_or_neurite.cc</text>
</a>
</g>
</g>
<!-- Node20&#45;&gt;Node27 -->
<g id="edge24" class="edge">
<title>Node20&#45;&gt;Node27</title>
<path fill="none" stroke="#191970" d="M1031.6498,-255.2891C1005.9859,-226.6483 962.5659,-178.1916 940.5984,-153.6758"/>
<polygon fill="#191970" stroke="#191970" points="1029.1048,-257.6937 1038.3849,-262.8055 1034.3181,-253.0222 1029.1048,-257.6937"/>
</g>
<!-- Node28 -->
<g id="node17" class="node">
<title>Node28</title>
<g id="a_node17"><a xlink:href="neuron__soma_8cc.html" target="_top" xlink:title="neuroscience/neuron\l_soma.cc">
<polygon fill="#ffffff" stroke="#000000" points="998.5,-123.5 998.5,-153.5 1105.5,-153.5 1105.5,-123.5 998.5,-123.5"/>
<text text-anchor="start" x="1006.5" y="-141.5" font-family="Helvetica,sans-Serif" font-size="10.00" fill="#000000">neuroscience/neuron</text>
<text text-anchor="middle" x="1052" y="-130.5" font-family="Helvetica,sans-Serif" font-size="10.00" fill="#000000">_soma.cc</text>
</a>
</g>
</g>
<!-- Node20&#45;&gt;Node28 -->
<g id="edge25" class="edge">
<title>Node20&#45;&gt;Node28</title>
<path fill="none" stroke="#191970" d="M1052,-252.6668C1052,-223.7706 1052,-177.4582 1052,-153.6758"/>
<polygon fill="#191970" stroke="#191970" points="1048.5001,-252.8055 1052,-262.8055 1055.5001,-252.8055 1048.5001,-252.8055"/>
</g>
<!-- Node29 -->
<g id="node18" class="node">
<title>Node29</title>
<g id="a_node18"><a xlink:href="neuroscience_8h.html" target="_top" xlink:title="neuroscience/neuroscience.h">
<polygon fill="#ffffff" stroke="#000000" points="1360.5,-129 1360.5,-148 1503.5,-148 1503.5,-129 1360.5,-129"/>
<text text-anchor="middle" x="1432" y="-136" font-family="Helvetica,sans-Serif" font-size="10.00" fill="#000000">neuroscience/neuroscience.h</text>
</a>
</g>
</g>
<!-- Node20&#45;&gt;Node29 -->
<g id="edge26" class="edge">
<title>Node20&#45;&gt;Node29</title>
<path fill="none" stroke="#191970" d="M1081.2745,-257.0999C1110.531,-237.134 1157.4517,-207.557 1202,-190 1218.9647,-183.314 1323.813,-160.9706 1385.9353,-148.0155"/>
<polygon fill="#191970" stroke="#191970" points="1079.0235,-254.4009 1072.7842,-262.9637 1083.0016,-260.1608 1079.0235,-254.4009"/>
</g>
<!-- Node22 -->
<g id="node11" class="node">
<title>Node22</title>
<g id="a_node11"><a xlink:href="root_2adaptor_8h.html" target="_top" xlink:title="core/visualization\l/root/adaptor.h">
<polygon fill="#ffffff" stroke="#000000" points="1250,-123.5 1250,-153.5 1342,-153.5 1342,-123.5 1250,-123.5"/>
<text text-anchor="start" x="1258" y="-141.5" font-family="Helvetica,sans-Serif" font-size="10.00" fill="#000000">core/visualization</text>
<text text-anchor="middle" x="1296" y="-130.5" font-family="Helvetica,sans-Serif" font-size="10.00" fill="#000000">/root/adaptor.h</text>
</a>
</g>
</g>
<!-- Node21&#45;&gt;Node22 -->
<g id="edge15" class="edge">
<title>Node21&#45;&gt;Node22</title>
<path fill="none" stroke="#191970" d="M1275.6092,-181.1932C1280.0075,-171.9844 1284.8855,-161.771 1288.7674,-153.6432"/>
<polygon fill="#191970" stroke="#191970" points="1272.4129,-179.7646 1271.2613,-190.2967 1278.7294,-182.7815 1272.4129,-179.7646"/>
</g>
<!-- Node26 -->
<g id="node15" class="node">
<title>Node26</title>
<g id="a_node15"><a xlink:href="default__force_8cc.html" target="_top" xlink:title="core/default_force.cc">
<polygon fill="#ffffff" stroke="#000000" points="1124,-129 1124,-148 1232,-148 1232,-129 1124,-129"/>
<text text-anchor="middle" x="1178" y="-136" font-family="Helvetica,sans-Serif" font-size="10.00" fill="#000000">core/default_force.cc</text>
</a>
</g>
</g>
<!-- Node21&#45;&gt;Node26 -->
<g id="edge20" class="edge">
<title>Node21&#45;&gt;Node26</title>
<path fill="none" stroke="#191970" d="M1236.2448,-183.8767C1220.739,-171.7967 1202.1952,-157.3498 1190.2646,-148.055"/>
<polygon fill="#191970" stroke="#191970" points="1234.4456,-186.9119 1244.4853,-190.2967 1238.7477,-181.3899 1234.4456,-186.9119"/>
</g>
<!-- Node21&#45;&gt;Node27 -->
<g id="edge21" class="edge">
<title>Node21&#45;&gt;Node27</title>
<path fill="none" stroke="#191970" d="M1200.2021,-194.5419C1144.5412,-184.7353 1061.6959,-169.5451 990,-154 986.9178,-153.3317 983.7561,-152.6242 980.5693,-151.894"/>
<polygon fill="#191970" stroke="#191970" points="1199.8155,-198.0275 1210.2701,-196.3093 1201.0258,-191.1329 1199.8155,-198.0275"/>
</g>
<!-- Node21&#45;&gt;Node28 -->
<g id="edge22" class="edge">
<title>Node21&#45;&gt;Node28</title>
<path fill="none" stroke="#191970" d="M1206.7673,-187.4123C1173.2824,-176.8298 1131.4952,-163.6235 1099.7844,-153.6017"/>
<polygon fill="#191970" stroke="#191970" points="1205.8332,-190.7877 1216.4231,-190.4639 1207.9426,-184.1131 1205.8332,-190.7877"/>
</g>
<!-- Node21&#45;&gt;Node29 -->
<g id="edge23" class="edge">
<title>Node21&#45;&gt;Node29</title>
<path fill="none" stroke="#191970" d="M1311.1732,-186.6869C1342.6647,-174.1278 1382.7663,-158.1349 1407.9185,-148.1039"/>
<polygon fill="#191970" stroke="#191970" points="1309.6945,-183.5085 1301.7025,-190.4639 1312.2876,-190.0105 1309.6945,-183.5085"/>
</g>
<!-- Node23 -->
<g id="node12" class="node">
<title>Node23</title>
<g id="a_node12"><a xlink:href="notebook__util_8h.html" target="_top" xlink:title="core/visualization\l/root/notebook_util.h">
<polygon fill="#ffffff" stroke="#000000" points="797.5,-56.5 797.5,-86.5 902.5,-86.5 902.5,-56.5 797.5,-56.5"/>
<text text-anchor="start" x="805.5" y="-74.5" font-family="Helvetica,sans-Serif" font-size="10.00" fill="#000000">core/visualization</text>
<text text-anchor="middle" x="850" y="-63.5" font-family="Helvetica,sans-Serif" font-size="10.00" fill="#000000">/root/notebook_util.h</text>
</a>
</g>
</g>
<!-- Node22&#45;&gt;Node23 -->
<g id="edge16" class="edge">
<title>Node22&#45;&gt;Node23</title>
<path fill="none" stroke="#191970" d="M1240.0688,-122.9827C1113.8987,-97.5732 976.107,-82.8348 902.5759,-76.0036"/>
<polygon fill="#191970" stroke="#191970" points="1239.4068,-126.4197 1249.9048,-124.9904 1240.8068,-119.5611 1239.4068,-126.4197"/>
</g>
<!-- Node24 -->
<g id="node13" class="node">
<title>Node24</title>
<g id="a_node13"><a xlink:href="scheduler_8cc.html" target="_top" xlink:title="core/scheduler.cc">
<polygon fill="#ffffff" stroke="#000000" points="1192,-62 1192,-81 1286,-81 1286,-62 1192,-62"/>
<text text-anchor="middle" x="1239" y="-69" font-family="Helvetica,sans-Serif" font-size="10.00" fill="#000000">core/scheduler.cc</text>
</a>
</g>
</g>
<!-- Node22&#45;&gt;Node24 -->
<g id="edge18" class="edge">
<title>Node22&#45;&gt;Node24</title>
<path fill="none" stroke="#191970" d="M1276.4542,-115.5252C1266.4226,-103.7336 1254.7435,-90.0055 1247.1289,-81.055"/>
<polygon fill="#191970" stroke="#191970" points="1273.9202,-117.948 1283.0658,-123.2967 1279.2518,-113.4121 1273.9202,-117.948"/>
</g>
<!-- Node25 -->
<g id="node14" class="node">
<title>Node25</title>
<g id="a_node14"><a xlink:href="simulation_8cc.html" target="_top" xlink:title="core/simulation.cc">
<polygon fill="#ffffff" stroke="#000000" points="1304,-62 1304,-81 1400,-81 1400,-62 1304,-62"/>
<text text-anchor="middle" x="1352" y="-69" font-family="Helvetica,sans-Serif" font-size="10.00" fill="#000000">core/simulation.cc</text>
</a>
</g>
</g>
<!-- Node22&#45;&gt;Node25 -->
<g id="edge19" class="edge">
<title>Node22&#45;&gt;Node25</title>
<path fill="none" stroke="#191970" d="M1315.2029,-115.5252C1325.0585,-103.7336 1336.5327,-90.0055 1344.0138,-81.055"/>
<polygon fill="#191970" stroke="#191970" points="1312.4349,-113.3792 1308.7073,-123.2967 1317.8059,-117.8684 1312.4349,-113.3792"/>
</g>
<!-- Node23&#45;&gt;Node14 -->
<g id="edge17" class="edge">
<title>Node23&#45;&gt;Node14</title>
<path fill="none" stroke="#191970" d="M787.2489,-64.0498C677.7882,-51.054 455.3082,-24.6399 368.1627,-14.2934"/>
<polygon fill="#191970" stroke="#191970" points="787.1378,-67.5611 797.4808,-65.2646 787.9632,-60.61 787.1378,-67.5611"/>
</g>
<!-- Node32 -->
<g id="node21" class="node">
<title>Node32</title>
<g id="a_node21"><a xlink:href="default__ops_8cc.html" target="_top" xlink:title="core/operation/default\l_ops.cc">
<polygon fill="#ffffff" stroke="#000000" points="611,-190.5 611,-220.5 721,-220.5 721,-190.5 611,-190.5"/>
<text text-anchor="start" x="619" y="-208.5" font-family="Helvetica,sans-Serif" font-size="10.00" fill="#000000">core/operation/default</text>
<text text-anchor="middle" x="666" y="-197.5" font-family="Helvetica,sans-Serif" font-size="10.00" fill="#000000">_ops.cc</text>
</a>
</g>
</g>
<!-- Node31&#45;&gt;Node32 -->
<g id="edge29" class="edge">
<title>Node31&#45;&gt;Node32</title>
<path fill="none" stroke="#191970" d="M767.8609,-258.2494C744.8818,-246.3495 716.0798,-231.4342 694.9709,-220.5028"/>
<polygon fill="#191970" stroke="#191970" points="766.5024,-261.4873 776.9919,-262.978 769.7215,-255.2714 766.5024,-261.4873"/>
</g>
<!-- Node33&#45;&gt;Node32 -->
<g id="edge31" class="edge">
<title>Node33&#45;&gt;Node32</title>
<path fill="none" stroke="#191970" d="M564.1391,-258.2494C587.1182,-246.3495 615.9202,-231.4342 637.0291,-220.5028"/>
<polygon fill="#191970" stroke="#191970" points="562.2785,-255.2714 555.0081,-262.978 565.4976,-261.4873 562.2785,-255.2714"/>
</g>
<!-- Node36&#45;&gt;Node21 -->
<g id="edge38" class="edge">
<title>Node36&#45;&gt;Node21</title>
<path fill="none" stroke="#191970" d="M1382.1595,-253.6267C1355.3198,-242.6948 1324.5025,-230.1429 1301.0709,-220.5991"/>
<polygon fill="#191970" stroke="#191970" points="1380.8869,-256.8876 1391.4685,-257.4183 1383.5275,-250.4047 1380.8869,-256.8876"/>
</g>
<!-- Node36&#45;&gt;Node29 -->
<g id="edge40" class="edge">
<title>Node36&#45;&gt;Node29</title>
<path fill="none" stroke="#191970" d="M1439.8031,-247.3537C1437.5343,-215.7037 1434.1279,-168.1838 1432.6849,-148.0541"/>
<polygon fill="#191970" stroke="#191970" points="1436.3183,-247.6922 1440.5245,-257.4163 1443.3004,-247.1916 1436.3183,-247.6922"/>
</g>
<!-- Node37 -->
<g id="node26" class="node">
<title>Node37</title>
<g id="a_node26"><a xlink:href="neuroscience_2event_2event_8cc.html" target="_top" xlink:title="neuroscience/event\l/event.cc">
<polygon fill="#ffffff" stroke="#000000" points="1450.5,-190.5 1450.5,-220.5 1551.5,-220.5 1551.5,-190.5 1450.5,-190.5"/>
<text text-anchor="start" x="1458.5" y="-208.5" font-family="Helvetica,sans-Serif" font-size="10.00" fill="#000000">neuroscience/event</text>
<text text-anchor="middle" x="1501" y="-197.5" font-family="Helvetica,sans-Serif" font-size="10.00" fill="#000000">/event.cc</text>
</a>
</g>
</g>
<!-- Node36&#45;&gt;Node37 -->
<g id="edge39" class="edge">
<title>Node36&#45;&gt;Node37</title>
<path fill="none" stroke="#191970" d="M1465.2704,-249.405C1473.279,-239.564 1481.9294,-228.9343 1488.7125,-220.5991"/>
<polygon fill="#191970" stroke="#191970" points="1462.3465,-247.4529 1458.7492,-257.4183 1467.7759,-251.8713 1462.3465,-247.4529"/>
</g>
<!-- Node38&#45;&gt;Node21 -->
<g id="edge42" class="edge">
<title>Node38&#45;&gt;Node21</title>
<path fill="none" stroke="#191970" d="M1654.2666,-260.4488C1649.1228,-259.1969 1643.9839,-258.026 1639,-257 1525.7169,-233.6783 1390.952,-218.0821 1317.7867,-210.612"/>
<polygon fill="#191970" stroke="#191970" points="1653.5724,-263.8833 1664.1252,-262.9396 1655.2872,-257.0966 1653.5724,-263.8833"/>
</g>
<!-- Node38&#45;&gt;Node29 -->
<g id="edge44" class="edge">
<title>Node38&#45;&gt;Node29</title>
<path fill="none" stroke="#191970" d="M1687.1811,-256.7637C1660.8981,-237.4351 1619.8212,-209.0858 1581,-190 1543.6661,-171.6454 1498.1379,-156.9311 1467.3078,-148.005"/>
<polygon fill="#191970" stroke="#191970" points="1685.3883,-259.792 1695.5027,-262.9464 1689.563,-254.173 1685.3883,-259.792"/>
</g>
<!-- Node38&#45;&gt;Node37 -->
<g id="edge43" class="edge">
<title>Node38&#45;&gt;Node37</title>
<path fill="none" stroke="#191970" d="M1660.8726,-259.6624C1625.1174,-247.5491 1578.8412,-231.8714 1545.2841,-220.5028"/>
<polygon fill="#191970" stroke="#191970" points="1660.0648,-263.0841 1670.6591,-262.978 1662.3109,-256.4542 1660.0648,-263.0841"/>
</g>
<!-- Node39&#45;&gt;Node21 -->
<g id="edge46" class="edge">
<title>Node39&#45;&gt;Node21</title>
<path fill="none" stroke="#191970" d="M1213.6325,-250.582C1224.9881,-240.418 1237.4458,-229.2677 1247.1307,-220.5991"/>
<polygon fill="#191970" stroke="#191970" points="1211.1117,-248.1411 1205.9947,-257.4183 1215.7802,-253.3569 1211.1117,-248.1411"/>
</g>
<!-- Node39&#45;&gt;Node28 -->
<g id="edge48" class="edge">
<title>Node39&#45;&gt;Node28</title>
<path fill="none" stroke="#191970" d="M1156.7266,-250.0219C1129.4493,-220.9746 1087.8023,-176.6253 1066.1632,-153.5822"/>
<polygon fill="#191970" stroke="#191970" points="1154.2736,-252.5225 1163.6705,-257.4163 1159.3764,-247.7307 1154.2736,-252.5225"/>
</g>
<!-- Node39&#45;&gt;Node29 -->
<g id="edge49" class="edge">
<title>Node39&#45;&gt;Node29</title>
<path fill="none" stroke="#191970" d="M1252.1677,-256.6425C1276.777,-247.5134 1304.0533,-235.5639 1327,-221 1343.99,-210.2167 1344.4486,-202.7707 1360,-190 1379.122,-174.2971 1402.6698,-157.9761 1417.5133,-148.0253"/>
<polygon fill="#191970" stroke="#191970" points="1250.7394,-253.4371 1242.5249,-260.1283 1253.1192,-260.0201 1250.7394,-253.4371"/>
</g>
<!-- Node39&#45;&gt;Node37 -->
<g id="edge47" class="edge">
<title>Node39&#45;&gt;Node37</title>
<path fill="none" stroke="#191970" d="M1252.7155,-256.9225C1326.7978,-238.3209 1401.766,-223.5866 1450.1378,-214.608"/>
<polygon fill="#191970" stroke="#191970" points="1251.5776,-253.6002 1242.745,-259.4512 1253.2985,-260.3854 1251.5776,-253.6002"/>
</g>
<!-- Node40&#45;&gt;Node21 -->
<g id="edge51" class="edge">
<title>Node40&#45;&gt;Node21</title>
<path fill="none" stroke="#191970" d="M1500.3639,-256.6592C1432.4312,-239.1322 1363.8931,-224.8616 1317.7199,-215.7447"/>
<polygon fill="#191970" stroke="#191970" points="1499.8202,-260.1343 1510.3796,-259.2685 1501.5851,-253.3604 1499.8202,-260.1343"/>
</g>
<!-- Node40&#45;&gt;Node29 -->
<g id="edge53" class="edge">
<title>Node40&#45;&gt;Node29</title>
<path fill="none" stroke="#191970" d="M1574.321,-247.1344C1575.1985,-228.8099 1573.1406,-206.0888 1561,-190 1544.2958,-167.8635 1516.5674,-155.2227 1491.0903,-148.0134"/>
<polygon fill="#191970" stroke="#191970" points="1570.8138,-247.0886 1573.5191,-257.3323 1577.7923,-247.6374 1570.8138,-247.0886"/>
</g>
<!-- Node40&#45;&gt;Node37 -->
<g id="edge52" class="edge">
<title>Node40&#45;&gt;Node37</title>
<path fill="none" stroke="#191970" d="M1543.3465,-249.9945C1533.8251,-239.9901 1523.4616,-229.101 1515.3702,-220.5991"/>
<polygon fill="#191970" stroke="#191970" points="1540.9825,-252.5875 1550.4119,-257.4183 1546.0532,-247.7616 1540.9825,-252.5875"/>
</g>
<!-- Node41&#45;&gt;Node21 -->
<g id="edge55" class="edge">
<title>Node41&#45;&gt;Node21</title>
<path fill="none" stroke="#191970" d="M1295.8801,-249.1096C1288.7467,-239.3516 1281.0703,-228.8509 1275.038,-220.5991"/>
<polygon fill="#191970" stroke="#191970" points="1293.227,-251.411 1301.9541,-257.4183 1298.878,-247.2799 1293.227,-251.411"/>
</g>
<!-- Node41&#45;&gt;Node29 -->
<g id="edge57" class="edge">
<title>Node41&#45;&gt;Node29</title>
<path fill="none" stroke="#191970" d="M1340.5813,-249.3949C1366.6415,-217.7827 1407.1688,-168.6214 1424.1239,-148.0541"/>
<polygon fill="#191970" stroke="#191970" points="1337.629,-247.4738 1333.9686,-257.4163 1343.0303,-251.9265 1337.629,-247.4738"/>
</g>
<!-- Node41&#45;&gt;Node37 -->
<g id="edge56" class="edge">
<title>Node41&#45;&gt;Node37</title>
<path fill="none" stroke="#191970" d="M1378.8576,-253.6267C1406.602,-242.6948 1438.4581,-230.1429 1462.6795,-220.5991"/>
<polygon fill="#191970" stroke="#191970" points="1377.2556,-250.496 1369.2348,-257.4183 1379.8218,-257.0087 1377.2556,-250.496"/>
</g>
</g>
</svg>
