<?xml version="1.0" encoding="UTF-8" standalone="no"?>
<!DOCTYPE svg PUBLIC "-//W3C//DTD SVG 1.1//EN"
 "http://www.w3.org/Graphics/SVG/1.1/DTD/svg11.dtd">
<!-- Generated by graphviz version 2.43.0 (0)
 -->
<!-- Title: core/gpu/gpu_helper.cc Pages: 1 -->
<svg width="2668pt" height="442pt"
 viewBox="0.00 0.00 2668.00 442.00" xmlns="http://www.w3.org/2000/svg" xmlns:xlink="http://www.w3.org/1999/xlink">
<g id="graph0" class="graph" transform="scale(1 1) rotate(0) translate(4 438)">
<title>core/gpu/gpu_helper.cc</title>
<polygon fill="white" stroke="transparent" points="-4,4 -4,-438 2664,-438 2664,4 -4,4"/>
<!-- Node1 -->
<g id="node1" class="node">
<title>Node1</title>
<g id="a_node1"><a xlink:title=" ">
<polygon fill="#bfbfbf" stroke="black" points="1730,-414.5 1730,-433.5 1858,-433.5 1858,-414.5 1730,-414.5"/>
<text text-anchor="middle" x="1794" y="-421.5" font-family="Helvetica,sans-Serif" font-size="10.00">core/gpu/gpu_helper.cc</text>
</a>
</g>
</g>
<!-- Node2 -->
<g id="node2" class="node">
<title>Node2</title>
<g id="a_node2"><a xlink:title=" ">
<polygon fill="white" stroke="#bfbfbf" points="104.5,-56.5 104.5,-75.5 153.5,-75.5 153.5,-56.5 104.5,-56.5"/>
<text text-anchor="middle" x="129" y="-63.5" font-family="Helvetica,sans-Serif" font-size="10.00">cstdlib</text>
</a>
</g>
</g>
<!-- Node1&#45;&gt;Node2 -->
<g id="edge1" class="edge">
<title>Node1&#45;&gt;Node2</title>
<path fill="none" stroke="midnightblue" d="M1729.87,-423.27C1553.34,-423.42 1045.5,-419.87 626,-378 470.99,-362.53 421.27,-387.66 280,-322 238.56,-302.74 229.1,-291.8 202,-255 182.76,-228.87 184.99,-218.15 173,-188 158.6,-151.8 143.41,-108.8 135.18,-85.04"/>
<polygon fill="midnightblue" stroke="midnightblue" points="138.49,-83.89 131.92,-75.57 131.87,-86.17 138.49,-83.89"/>
</g>
<!-- Node3 -->
<g id="node3" class="node">
<title>Node3</title>
<g id="a_node3"><a xlink:title=" ">
<polygon fill="white" stroke="#bfbfbf" points="2462.5,-358.5 2462.5,-377.5 2517.5,-377.5 2517.5,-358.5 2462.5,-358.5"/>
<text text-anchor="middle" x="2490" y="-365.5" font-family="Helvetica,sans-Serif" font-size="10.00">fstream</text>
</a>
</g>
</g>
<!-- Node1&#45;&gt;Node3 -->
<g id="edge2" class="edge">
<title>Node1&#45;&gt;Node3</title>
<path fill="none" stroke="midnightblue" d="M1858.37,-421.61C1975.99,-418.39 2233.31,-408.23 2448,-378 2449.29,-377.82 2450.59,-377.62 2451.91,-377.41"/>
<polygon fill="midnightblue" stroke="midnightblue" points="2452.87,-380.79 2462.08,-375.56 2451.62,-373.9 2452.87,-380.79"/>
</g>
<!-- Node4 -->
<g id="node4" class="node">
<title>Node4</title>
<g id="a_node4"><a xlink:title=" ">
<polygon fill="white" stroke="#bfbfbf" points="1955,-0.5 1955,-19.5 2011,-19.5 2011,-0.5 1955,-0.5"/>
<text text-anchor="middle" x="1983" y="-7.5" font-family="Helvetica,sans-Serif" font-size="10.00">sstream</text>
</a>
</g>
</g>
<!-- Node1&#45;&gt;Node4 -->
<g id="edge3" class="edge">
<title>Node1&#45;&gt;Node4</title>
<path fill="none" stroke="midnightblue" d="M1858,-418.13C2020.09,-404.95 2434,-365.61 2434,-307.5 2434,-307.5 2434,-307.5 2434,-121 2434,-36.37 2130.5,-16.57 2021.44,-12.18"/>
<polygon fill="midnightblue" stroke="midnightblue" points="2021.34,-8.67 2011.21,-11.79 2021.07,-15.67 2021.34,-8.67"/>
</g>
<!-- Node5 -->
<g id="node5" class="node">
<title>Node5</title>
<g id="a_node5"><a xlink:title=" ">
<polygon fill="white" stroke="#bfbfbf" points="54,-0.5 54,-19.5 98,-19.5 98,-0.5 54,-0.5"/>
<text text-anchor="middle" x="76" y="-7.5" font-family="Helvetica,sans-Serif" font-size="10.00">string</text>
</a>
</g>
</g>
<!-- Node1&#45;&gt;Node5 -->
<g id="edge4" class="edge">
<title>Node1&#45;&gt;Node5</title>
<path fill="none" stroke="midnightblue" d="M1729.74,-422.15C1489.57,-418.77 644.83,-405.19 377,-378 207.41,-360.78 0,-477.96 0,-307.5 0,-307.5 0,-307.5 0,-121 0,-81.28 33.96,-45.5 56.48,-26.15"/>
<polygon fill="midnightblue" stroke="midnightblue" points="58.98,-28.63 64.46,-19.57 54.52,-23.24 58.98,-28.63"/>
</g>
<!-- Node6 -->
<g id="node6" class="node">
<title>Node6</title>
<g id="a_node6"><a xlink:title=" ">
<polygon fill="white" stroke="#bfbfbf" points="1234.5,-0.5 1234.5,-19.5 1281.5,-19.5 1281.5,-0.5 1234.5,-0.5"/>
<text text-anchor="middle" x="1258" y="-7.5" font-family="Helvetica,sans-Serif" font-size="10.00">vector</text>
</a>
</g>
</g>
<!-- Node1&#45;&gt;Node6 -->
<g id="edge5" class="edge">
<title>Node1&#45;&gt;Node6</title>
<path fill="none" stroke="midnightblue" d="M1795.63,-414.17C1801.32,-382.49 1820,-271.44 1820,-179 1820,-179 1820,-179 1820,-121 1820,-12.79 1413.66,-9.07 1292.01,-10.38"/>
<polygon fill="midnightblue" stroke="midnightblue" points="1291.74,-6.89 1281.79,-10.51 1291.83,-13.88 1291.74,-6.89"/>
</g>
<!-- Node7 -->
<g id="node7" class="node">
<title>Node7</title>
<g id="a_node7"><a xlink:href="gpu__helper_8h.html" target="_top" xlink:title=" ">
<polygon fill="white" stroke="black" points="2536,-358.5 2536,-377.5 2660,-377.5 2660,-358.5 2536,-358.5"/>
<text text-anchor="middle" x="2598" y="-365.5" font-family="Helvetica,sans-Serif" font-size="10.00">core/gpu/gpu_helper.h</text>
</a>
</g>
</g>
<!-- Node1&#45;&gt;Node7 -->
<g id="edge6" class="edge">
<title>Node1&#45;&gt;Node7</title>
<path fill="none" stroke="midnightblue" d="M1858.33,-420.45C1984.33,-415.16 2272.69,-401.54 2525.57,-378.08"/>
<polygon fill="midnightblue" stroke="midnightblue" points="2526.06,-381.55 2535.69,-377.13 2525.4,-374.58 2526.06,-381.55"/>
</g>
<!-- Node8 -->
<g id="node8" class="node">
<title>Node8</title>
<g id="a_node8"><a xlink:href="core_2param_2param_8h.html" target="_top" xlink:title=" ">
<polygon fill="white" stroke="black" points="1876,-358.5 1876,-377.5 1992,-377.5 1992,-358.5 1876,-358.5"/>
<text text-anchor="middle" x="1934" y="-365.5" font-family="Helvetica,sans-Serif" font-size="10.00">core/param/param.h</text>
</a>
</g>
</g>
<!-- Node1&#45;&gt;Node8 -->
<g id="edge7" class="edge">
<title>Node1&#45;&gt;Node8</title>
<path fill="none" stroke="midnightblue" d="M1816.18,-414.44C1839.43,-405.48 1876.15,-391.31 1902.42,-381.18"/>
<polygon fill="midnightblue" stroke="midnightblue" points="1903.85,-384.38 1911.92,-377.52 1901.33,-377.85 1903.85,-384.38"/>
</g>
<!-- Node19 -->
<g id="node19" class="node">
<title>Node19</title>
<g id="a_node19"><a xlink:href="log_8h.html" target="_top" xlink:title=" ">
<polygon fill="white" stroke="black" points="389.5,-112.5 389.5,-131.5 472.5,-131.5 472.5,-112.5 389.5,-112.5"/>
<text text-anchor="middle" x="431" y="-119.5" font-family="Helvetica,sans-Serif" font-size="10.00">core/util/log.h</text>
</a>
</g>
</g>
<!-- Node1&#45;&gt;Node19 -->
<g id="edge86" class="edge">
<title>Node1&#45;&gt;Node19</title>
<path fill="none" stroke="midnightblue" d="M1729.59,-421.55C1478.89,-415.44 576.87,-388.95 469,-322 409.05,-284.79 419.72,-183.7 427.15,-141.69"/>
<polygon fill="midnightblue" stroke="midnightblue" points="430.61,-142.2 429.05,-131.72 423.74,-140.89 430.61,-142.2"/>
</g>
<!-- Node38 -->
<g id="node38" class="node">
<title>Node38</title>
<g id="a_node38"><a xlink:href="simulation_8h.html" target="_top" xlink:title=" ">
<polygon fill="white" stroke="black" points="1035.5,-358.5 1035.5,-377.5 1136.5,-377.5 1136.5,-358.5 1035.5,-358.5"/>
<text text-anchor="middle" x="1086" y="-365.5" font-family="Helvetica,sans-Serif" font-size="10.00">core/simulation.h</text>
</a>
</g>
</g>
<!-- Node1&#45;&gt;Node38 -->
<g id="edge50" class="edge">
<title>Node1&#45;&gt;Node38</title>
<path fill="none" stroke="midnightblue" d="M1729.92,-418.11C1594.24,-407.76 1279.52,-383.76 1146.79,-373.64"/>
<polygon fill="midnightblue" stroke="midnightblue" points="1147.03,-370.14 1136.79,-372.87 1146.5,-377.12 1147.03,-370.14"/>
</g>
<!-- Node8&#45;&gt;Node5 -->
<g id="edge12" class="edge">
<title>Node8&#45;&gt;Node5</title>
<path fill="none" stroke="midnightblue" d="M1875.76,-366.88C1638.96,-366.15 747.81,-360.8 469,-322 347.82,-305.14 300.21,-327.96 202,-255 123.86,-196.95 90.22,-76.3 79.8,-29.82"/>
<polygon fill="midnightblue" stroke="midnightblue" points="83.19,-28.96 77.68,-19.91 76.34,-30.42 83.19,-28.96"/>
</g>
<!-- Node8&#45;&gt;Node6 -->
<g id="edge14" class="edge">
<title>Node8&#45;&gt;Node6</title>
<path fill="none" stroke="midnightblue" d="M1964.81,-358.38C1986.24,-351.23 2014.52,-339.4 2035,-322 2087.92,-277.02 2098,-248.45 2098,-179 2098,-179 2098,-179 2098,-121 2098,-38.24 1448.67,-15.98 1291.81,-11.8"/>
<polygon fill="midnightblue" stroke="midnightblue" points="1291.87,-8.31 1281.79,-11.55 1291.69,-15.3 1291.87,-8.31"/>
</g>
<!-- Node9 -->
<g id="node9" class="node">
<title>Node9</title>
<g id="a_node9"><a xlink:title=" ">
<polygon fill="white" stroke="#bfbfbf" points="2102,-297 2102,-316 2164,-316 2164,-297 2102,-297"/>
<text text-anchor="middle" x="2133" y="-304" font-family="Helvetica,sans-Serif" font-size="10.00">cinttypes</text>
</a>
</g>
</g>
<!-- Node8&#45;&gt;Node9 -->
<g id="edge8" class="edge">
<title>Node8&#45;&gt;Node9</title>
<path fill="none" stroke="midnightblue" d="M1964.17,-358.45C1995.27,-349.57 2045.13,-335.17 2088,-322 2090.96,-321.09 2094.03,-320.13 2097.11,-319.16"/>
<polygon fill="midnightblue" stroke="midnightblue" points="2098.4,-322.43 2106.86,-316.06 2096.27,-315.76 2098.4,-322.43"/>
</g>
<!-- Node10 -->
<g id="node10" class="node">
<title>Node10</title>
<g id="a_node10"><a xlink:title=" ">
<polygon fill="white" stroke="#bfbfbf" points="2182,-297 2182,-316 2220,-316 2220,-297 2182,-297"/>
<text text-anchor="middle" x="2201" y="-304" font-family="Helvetica,sans-Serif" font-size="10.00">map</text>
</a>
</g>
</g>
<!-- Node8&#45;&gt;Node10 -->
<g id="edge9" class="edge">
<title>Node8&#45;&gt;Node10</title>
<path fill="none" stroke="midnightblue" d="M1992.2,-360.86C2041.36,-354.54 2113.12,-342.64 2173,-322 2174.42,-321.51 2175.86,-320.96 2177.3,-320.36"/>
<polygon fill="midnightblue" stroke="midnightblue" points="2178.98,-323.44 2186.54,-316.01 2176,-317.11 2178.98,-323.44"/>
</g>
<!-- Node11 -->
<g id="node11" class="node">
<title>Node11</title>
<g id="a_node11"><a xlink:title=" ">
<polygon fill="white" stroke="#bfbfbf" points="1848,-230 1848,-249 1906,-249 1906,-230 1848,-230"/>
<text text-anchor="middle" x="1877" y="-237" font-family="Helvetica,sans-Serif" font-size="10.00">memory</text>
</a>
</g>
</g>
<!-- Node8&#45;&gt;Node11 -->
<g id="edge10" class="edge">
<title>Node8&#45;&gt;Node11</title>
<path fill="none" stroke="midnightblue" d="M1901.82,-358.49C1883.46,-351.8 1861.98,-340.45 1851,-322 1838.82,-301.54 1852.09,-274.75 1863.71,-257.57"/>
<polygon fill="midnightblue" stroke="midnightblue" points="1866.8,-259.28 1869.83,-249.12 1861.13,-255.17 1866.8,-259.28"/>
</g>
<!-- Node12 -->
<g id="node12" class="node">
<title>Node12</title>
<g id="a_node12"><a xlink:title=" ">
<polygon fill="white" stroke="#bfbfbf" points="2238,-297 2238,-316 2270,-316 2270,-297 2238,-297"/>
<text text-anchor="middle" x="2254" y="-304" font-family="Helvetica,sans-Serif" font-size="10.00">set</text>
</a>
</g>
</g>
<!-- Node8&#45;&gt;Node12 -->
<g id="edge11" class="edge">
<title>Node8&#45;&gt;Node12</title>
<path fill="none" stroke="midnightblue" d="M1992.09,-364.53C2052.73,-360.49 2149.83,-349.87 2229,-322 2230.04,-321.63 2231.09,-321.22 2232.13,-320.78"/>
<polygon fill="midnightblue" stroke="midnightblue" points="2233.9,-323.81 2241.21,-316.14 2230.71,-317.57 2233.9,-323.81"/>
</g>
<!-- Node13 -->
<g id="node13" class="node">
<title>Node13</title>
<g id="a_node13"><a xlink:title=" ">
<polygon fill="white" stroke="#bfbfbf" points="1152.5,-230 1152.5,-249 1245.5,-249 1245.5,-230 1152.5,-230"/>
<text text-anchor="middle" x="1199" y="-237" font-family="Helvetica,sans-Serif" font-size="10.00">unordered_map</text>
</a>
</g>
</g>
<!-- Node8&#45;&gt;Node13 -->
<g id="edge13" class="edge">
<title>Node8&#45;&gt;Node13</title>
<path fill="none" stroke="midnightblue" d="M1875.86,-365.54C1724.37,-361.4 1325.51,-348.12 1272,-322 1243.38,-308.03 1220.93,-277.4 1208.85,-257.92"/>
<polygon fill="midnightblue" stroke="midnightblue" points="1211.75,-255.95 1203.64,-249.14 1205.73,-259.53 1211.75,-255.95"/>
</g>
<!-- Node14 -->
<g id="node14" class="node">
<title>Node14</title>
<g id="a_node14"><a xlink:href="style_8h.html" target="_top" xlink:title=" ">
<polygon fill="white" stroke="black" points="2288.5,-297 2288.5,-316 2405.5,-316 2405.5,-297 2288.5,-297"/>
<text text-anchor="middle" x="2347" y="-304" font-family="Helvetica,sans-Serif" font-size="10.00">core/analysis/style.h</text>
</a>
</g>
</g>
<!-- Node8&#45;&gt;Node14 -->
<g id="edge15" class="edge">
<title>Node8&#45;&gt;Node14</title>
<path fill="none" stroke="midnightblue" d="M1992.2,-360.85C2060.96,-353.26 2178.69,-339.21 2279,-322 2285.71,-320.85 2292.77,-319.5 2299.7,-318.1"/>
<polygon fill="midnightblue" stroke="midnightblue" points="2300.61,-321.48 2309.69,-316.02 2299.19,-314.63 2300.61,-321.48"/>
</g>
<!-- Node16 -->
<g id="node16" class="node">
<title>Node16</title>
<g id="a_node16"><a xlink:href="param__group_8h.html" target="_top" xlink:title=" ">
<polygon fill="white" stroke="black" points="1859.5,-297 1859.5,-316 2008.5,-316 2008.5,-297 1859.5,-297"/>
<text text-anchor="middle" x="1934" y="-304" font-family="Helvetica,sans-Serif" font-size="10.00">core/param/param_group.h</text>
</a>
</g>
</g>
<!-- Node8&#45;&gt;Node16 -->
<g id="edge17" class="edge">
<title>Node8&#45;&gt;Node16</title>
<path fill="none" stroke="midnightblue" d="M1934,-358.48C1934,-350.08 1934,-336.98 1934,-326.16"/>
<polygon fill="midnightblue" stroke="midnightblue" points="1937.5,-326.01 1934,-316.01 1930.5,-326.01 1937.5,-326.01"/>
</g>
<!-- Node17 -->
<g id="node17" class="node">
<title>Node17</title>
<g id="a_node17"><a xlink:href="root_8h.html" target="_top" xlink:title=" ">
<polygon fill="white" stroke="black" points="1008,-168.5 1008,-187.5 1096,-187.5 1096,-168.5 1008,-168.5"/>
<text text-anchor="middle" x="1052" y="-175.5" font-family="Helvetica,sans-Serif" font-size="10.00">core/util/root.h</text>
</a>
</g>
</g>
<!-- Node8&#45;&gt;Node17 -->
<g id="edge33" class="edge">
<title>Node8&#45;&gt;Node17</title>
<path fill="none" stroke="midnightblue" d="M1875.69,-364.68C1792.46,-360.52 1635.13,-349.48 1504,-322 1408.11,-301.91 1380.43,-301.13 1294,-255 1274.47,-244.58 1274.99,-233.53 1255,-224 1241.54,-217.58 1160.9,-200.71 1105.4,-189.54"/>
<polygon fill="midnightblue" stroke="midnightblue" points="1105.85,-186.06 1095.35,-187.53 1104.47,-192.93 1105.85,-186.06"/>
</g>
<!-- Node25 -->
<g id="node25" class="node">
<title>Node25</title>
<g id="a_node25"><a xlink:title=" ">
<polygon fill="white" stroke="#bfbfbf" points="1962,-230 1962,-249 2070,-249 2070,-230 1962,-230"/>
<text text-anchor="middle" x="2016" y="-237" font-family="Helvetica,sans-Serif" font-size="10.00">cpptoml/cpptoml.h</text>
</a>
</g>
</g>
<!-- Node8&#45;&gt;Node25 -->
<g id="edge49" class="edge">
<title>Node8&#45;&gt;Node25</title>
<path fill="none" stroke="midnightblue" d="M1966.99,-358.44C1985.46,-351.77 2006.95,-340.45 2018,-322 2029.39,-302.97 2026.09,-276.71 2021.81,-259.19"/>
<polygon fill="midnightblue" stroke="midnightblue" points="2025.06,-257.8 2019.01,-249.11 2018.32,-259.68 2025.06,-257.8"/>
</g>
<!-- Node26 -->
<g id="node26" class="node">
<title>Node26</title>
<g id="a_node26"><a xlink:href="type_8h.html" target="_top" xlink:title=" ">
<polygon fill="white" stroke="black" points="1513,-297 1513,-316 1603,-316 1603,-297 1513,-297"/>
<text text-anchor="middle" x="1558" y="-304" font-family="Helvetica,sans-Serif" font-size="10.00">core/util/type.h</text>
</a>
</g>
</g>
<!-- Node8&#45;&gt;Node26 -->
<g id="edge34" class="edge">
<title>Node8&#45;&gt;Node26</title>
<path fill="none" stroke="midnightblue" d="M1875.81,-359.83C1813.35,-351.83 1711.34,-337.91 1624,-322 1617.71,-320.85 1611.11,-319.54 1604.62,-318.18"/>
<polygon fill="midnightblue" stroke="midnightblue" points="1605.07,-314.7 1594.56,-316.02 1603.61,-321.54 1605.07,-314.7"/>
</g>
<!-- Node15 -->
<g id="node15" class="node">
<title>Node15</title>
<g id="a_node15"><a xlink:title=" ">
<polygon fill="white" stroke="#bfbfbf" points="2319,-230 2319,-249 2375,-249 2375,-230 2319,-230"/>
<text text-anchor="middle" x="2347" y="-237" font-family="Helvetica,sans-Serif" font-size="10.00">TStyle.h</text>
</a>
</g>
</g>
<!-- Node14&#45;&gt;Node15 -->
<g id="edge16" class="edge">
<title>Node14&#45;&gt;Node15</title>
<path fill="none" stroke="midnightblue" d="M2347,-296.73C2347,-287.18 2347,-271.62 2347,-259.28"/>
<polygon fill="midnightblue" stroke="midnightblue" points="2350.5,-259.13 2347,-249.13 2343.5,-259.13 2350.5,-259.13"/>
</g>
<!-- Node16&#45;&gt;Node11 -->
<g id="edge18" class="edge">
<title>Node16&#45;&gt;Node11</title>
<path fill="none" stroke="midnightblue" d="M1926.31,-296.73C1917.34,-286.5 1902.31,-269.36 1891.2,-256.69"/>
<polygon fill="midnightblue" stroke="midnightblue" points="1893.79,-254.34 1884.57,-249.13 1888.53,-258.95 1893.79,-254.34"/>
</g>
<!-- Node16&#45;&gt;Node17 -->
<g id="edge19" class="edge">
<title>Node16&#45;&gt;Node17</title>
<path fill="none" stroke="midnightblue" d="M1934.99,-296.91C1936.4,-279.93 1936.77,-242.12 1915,-224 1882,-196.53 1185.82,-191.11 1143,-188 1131.24,-187.15 1118.65,-186.03 1106.7,-184.88"/>
<polygon fill="midnightblue" stroke="midnightblue" points="1106.69,-181.36 1096.39,-183.86 1106,-188.32 1106.69,-181.36"/>
</g>
<!-- Node16&#45;&gt;Node25 -->
<g id="edge32" class="edge">
<title>Node16&#45;&gt;Node25</title>
<path fill="none" stroke="midnightblue" d="M1945.06,-296.73C1958.34,-286.21 1980.83,-268.38 1996.93,-255.62"/>
<polygon fill="midnightblue" stroke="midnightblue" points="1999.45,-258.08 2005.12,-249.13 1995.11,-252.6 1999.45,-258.08"/>
</g>
<!-- Node18 -->
<g id="node18" class="node">
<title>Node18</title>
<g id="a_node18"><a xlink:title=" ">
<polygon fill="white" stroke="#bfbfbf" points="1023.5,-112.5 1023.5,-131.5 1080.5,-131.5 1080.5,-112.5 1023.5,-112.5"/>
<text text-anchor="middle" x="1052" y="-119.5" font-family="Helvetica,sans-Serif" font-size="10.00">TClass.h</text>
</a>
</g>
</g>
<!-- Node17&#45;&gt;Node18 -->
<g id="edge20" class="edge">
<title>Node17&#45;&gt;Node18</title>
<path fill="none" stroke="midnightblue" d="M1052,-168.08C1052,-161.01 1052,-150.86 1052,-141.99"/>
<polygon fill="midnightblue" stroke="midnightblue" points="1055.5,-141.75 1052,-131.75 1048.5,-141.75 1055.5,-141.75"/>
</g>
<!-- Node17&#45;&gt;Node19 -->
<g id="edge21" class="edge">
<title>Node17&#45;&gt;Node19</title>
<path fill="none" stroke="midnightblue" d="M1007.8,-169.19C1004.82,-168.76 1001.87,-168.36 999,-168 809.62,-144.47 583.1,-130.85 482.97,-125.56"/>
<polygon fill="midnightblue" stroke="midnightblue" points="482.99,-122.06 472.82,-125.03 482.62,-129.05 482.99,-122.06"/>
</g>
<!-- Node19&#45;&gt;Node2 -->
<g id="edge24" class="edge">
<title>Node19&#45;&gt;Node2</title>
<path fill="none" stroke="midnightblue" d="M389.33,-113.55C329.28,-102.81 219.53,-83.19 163.66,-73.2"/>
<polygon fill="midnightblue" stroke="midnightblue" points="164.02,-69.71 153.56,-71.39 162.78,-76.6 164.02,-69.71"/>
</g>
<!-- Node19&#45;&gt;Node5 -->
<g id="edge27" class="edge">
<title>Node19&#45;&gt;Node5</title>
<path fill="none" stroke="midnightblue" d="M417.35,-112.47C394.53,-98.59 346.81,-71.14 303,-56 235.68,-32.73 152.73,-20.11 108.09,-14.55"/>
<polygon fill="midnightblue" stroke="midnightblue" points="108.47,-11.07 98.12,-13.34 107.63,-18.02 108.47,-11.07"/>
</g>
<!-- Node20 -->
<g id="node20" class="node">
<title>Node20</title>
<g id="a_node20"><a xlink:title=" ">
<polygon fill="white" stroke="#bfbfbf" points="550,-56.5 550,-75.5 604,-75.5 604,-56.5 550,-56.5"/>
<text text-anchor="middle" x="577" y="-63.5" font-family="Helvetica,sans-Serif" font-size="10.00">TError.h</text>
</a>
</g>
</g>
<!-- Node19&#45;&gt;Node20 -->
<g id="edge22" class="edge">
<title>Node19&#45;&gt;Node20</title>
<path fill="none" stroke="midnightblue" d="M454.13,-112.44C478.48,-103.44 517.01,-89.19 544.42,-79.05"/>
<polygon fill="midnightblue" stroke="midnightblue" points="545.81,-82.27 553.97,-75.52 543.38,-75.7 545.81,-82.27"/>
</g>
<!-- Node21 -->
<g id="node21" class="node">
<title>Node21</title>
<g id="a_node21"><a xlink:title=" ">
<polygon fill="white" stroke="#bfbfbf" points="408,-56.5 408,-75.5 454,-75.5 454,-56.5 408,-56.5"/>
<text text-anchor="middle" x="431" y="-63.5" font-family="Helvetica,sans-Serif" font-size="10.00">cstdio</text>
</a>
</g>
</g>
<!-- Node19&#45;&gt;Node21 -->
<g id="edge23" class="edge">
<title>Node19&#45;&gt;Node21</title>
<path fill="none" stroke="midnightblue" d="M431,-112.08C431,-105.01 431,-94.86 431,-85.99"/>
<polygon fill="midnightblue" stroke="midnightblue" points="434.5,-85.75 431,-75.75 427.5,-85.75 434.5,-85.75"/>
</g>
<!-- Node22 -->
<g id="node22" class="node">
<title>Node22</title>
<g id="a_node22"><a xlink:title=" ">
<polygon fill="white" stroke="#bfbfbf" points="229.5,-56.5 229.5,-75.5 294.5,-75.5 294.5,-56.5 229.5,-56.5"/>
<text text-anchor="middle" x="262" y="-63.5" font-family="Helvetica,sans-Serif" font-size="10.00">functional</text>
</a>
</g>
</g>
<!-- Node19&#45;&gt;Node22 -->
<g id="edge25" class="edge">
<title>Node19&#45;&gt;Node22</title>
<path fill="none" stroke="midnightblue" d="M404.22,-112.44C375.67,-103.32 330.27,-88.81 298.46,-78.65"/>
<polygon fill="midnightblue" stroke="midnightblue" points="299.24,-75.23 288.65,-75.52 297.11,-81.89 299.24,-75.23"/>
</g>
<!-- Node23 -->
<g id="node23" class="node">
<title>Node23</title>
<g id="a_node23"><a xlink:title=" ">
<polygon fill="white" stroke="#bfbfbf" points="472,-56.5 472,-75.5 532,-75.5 532,-56.5 472,-56.5"/>
<text text-anchor="middle" x="502" y="-63.5" font-family="Helvetica,sans-Serif" font-size="10.00">iostream</text>
</a>
</g>
</g>
<!-- Node19&#45;&gt;Node23 -->
<g id="edge26" class="edge">
<title>Node19&#45;&gt;Node23</title>
<path fill="none" stroke="midnightblue" d="M442.41,-112.32C453.11,-104.18 469.34,-91.84 482.16,-82.09"/>
<polygon fill="midnightblue" stroke="midnightblue" points="484.54,-84.67 490.39,-75.83 480.31,-79.1 484.54,-84.67"/>
</g>
<!-- Node24 -->
<g id="node24" class="node">
<title>Node24</title>
<g id="a_node24"><a xlink:href="string_8h.html" target="_top" xlink:title=" ">
<polygon fill="white" stroke="black" points="1009,-56.5 1009,-75.5 1105,-75.5 1105,-56.5 1009,-56.5"/>
<text text-anchor="middle" x="1057" y="-63.5" font-family="Helvetica,sans-Serif" font-size="10.00">core/util/string.h</text>
</a>
</g>
</g>
<!-- Node19&#45;&gt;Node24 -->
<g id="edge28" class="edge">
<title>Node19&#45;&gt;Node24</title>
<path fill="none" stroke="midnightblue" d="M472.56,-117.42C581.06,-108.06 873.13,-82.86 998.51,-72.05"/>
<polygon fill="midnightblue" stroke="midnightblue" points="999.02,-75.51 1008.68,-71.17 998.42,-68.54 999.02,-75.51"/>
</g>
<!-- Node24&#45;&gt;Node4 -->
<g id="edge29" class="edge">
<title>Node24&#45;&gt;Node4</title>
<path fill="none" stroke="midnightblue" d="M1105.16,-62.19C1268.14,-52.69 1797.03,-21.84 1944.51,-13.24"/>
<polygon fill="midnightblue" stroke="midnightblue" points="1945.07,-16.72 1954.85,-12.64 1944.66,-9.73 1945.07,-16.72"/>
</g>
<!-- Node24&#45;&gt;Node5 -->
<g id="edge30" class="edge">
<title>Node24&#45;&gt;Node5</title>
<path fill="none" stroke="midnightblue" d="M1008.69,-62.34C836.17,-52.84 253.11,-20.75 108.61,-12.79"/>
<polygon fill="midnightblue" stroke="midnightblue" points="108.4,-9.28 98.22,-12.22 108.02,-16.27 108.4,-9.28"/>
</g>
<!-- Node24&#45;&gt;Node6 -->
<g id="edge31" class="edge">
<title>Node24&#45;&gt;Node6</title>
<path fill="none" stroke="midnightblue" d="M1088.85,-56.44C1125.88,-46.49 1186.74,-30.15 1224.47,-20.01"/>
<polygon fill="midnightblue" stroke="midnightblue" points="1225.72,-23.3 1234.46,-17.32 1223.9,-16.54 1225.72,-23.3"/>
</g>
<!-- Node26&#45;&gt;Node24 -->
<g id="edge48" class="edge">
<title>Node26&#45;&gt;Node24</title>
<path fill="none" stroke="midnightblue" d="M1547.49,-296.74C1536.17,-287.07 1517.92,-270.79 1504,-255 1472.42,-219.2 1480.38,-194.98 1441,-168 1340.45,-99.12 1195.62,-77.21 1115.63,-70.24"/>
<polygon fill="midnightblue" stroke="midnightblue" points="1115.52,-66.72 1105.26,-69.39 1114.94,-73.7 1115.52,-66.72"/>
</g>
<!-- Node27 -->
<g id="node27" class="node">
<title>Node27</title>
<g id="a_node27"><a xlink:title=" ">
<polygon fill="white" stroke="#bfbfbf" points="1512.5,-230 1512.5,-249 1581.5,-249 1581.5,-230 1512.5,-230"/>
<text text-anchor="middle" x="1547" y="-237" font-family="Helvetica,sans-Serif" font-size="10.00">type_traits</text>
</a>
</g>
</g>
<!-- Node26&#45;&gt;Node27 -->
<g id="edge35" class="edge">
<title>Node26&#45;&gt;Node27</title>
<path fill="none" stroke="midnightblue" d="M1556.52,-296.73C1554.9,-287.18 1552.27,-271.62 1550.18,-259.28"/>
<polygon fill="midnightblue" stroke="midnightblue" points="1553.58,-258.4 1548.46,-249.13 1546.68,-259.57 1553.58,-258.4"/>
</g>
<!-- Node28 -->
<g id="node28" class="node">
<title>Node28</title>
<g id="a_node28"><a xlink:title=" ">
<polygon fill="white" stroke="#bfbfbf" points="1599.5,-230 1599.5,-249 1656.5,-249 1656.5,-230 1599.5,-230"/>
<text text-anchor="middle" x="1628" y="-237" font-family="Helvetica,sans-Serif" font-size="10.00">typeinfo</text>
</a>
</g>
</g>
<!-- Node26&#45;&gt;Node28 -->
<g id="edge36" class="edge">
<title>Node26&#45;&gt;Node28</title>
<path fill="none" stroke="midnightblue" d="M1567.44,-296.73C1578.67,-286.31 1597.62,-268.71 1611.34,-255.97"/>
<polygon fill="midnightblue" stroke="midnightblue" points="1613.76,-258.5 1618.71,-249.13 1609,-253.37 1613.76,-258.5"/>
</g>
<!-- Node29 -->
<g id="node29" class="node">
<title>Node29</title>
<g id="a_node29"><a xlink:href="math__array_8h.html" target="_top" xlink:title=" ">
<polygon fill="white" stroke="black" points="1302.5,-224.5 1302.5,-254.5 1417.5,-254.5 1417.5,-224.5 1302.5,-224.5"/>
<text text-anchor="start" x="1310.5" y="-242.5" font-family="Helvetica,sans-Serif" font-size="10.00">core/container/math</text>
<text text-anchor="middle" x="1360" y="-231.5" font-family="Helvetica,sans-Serif" font-size="10.00">_array.h</text>
</a>
</g>
</g>
<!-- Node26&#45;&gt;Node29 -->
<g id="edge37" class="edge">
<title>Node26&#45;&gt;Node29</title>
<path fill="none" stroke="midnightblue" d="M1531.71,-296.87C1501.48,-286.95 1451.11,-270.41 1412.71,-257.81"/>
<polygon fill="midnightblue" stroke="midnightblue" points="1413.32,-254.32 1402.73,-254.53 1411.14,-260.97 1413.32,-254.32"/>
</g>
<!-- Node37 -->
<g id="node37" class="node">
<title>Node37</title>
<g id="a_node37"><a xlink:href="shape_8h.html" target="_top" xlink:title=" ">
<polygon fill="white" stroke="black" points="1674.5,-230 1674.5,-249 1753.5,-249 1753.5,-230 1674.5,-230"/>
<text text-anchor="middle" x="1714" y="-237" font-family="Helvetica,sans-Serif" font-size="10.00">core/shape.h</text>
</a>
</g>
</g>
<!-- Node26&#45;&gt;Node37 -->
<g id="edge47" class="edge">
<title>Node26&#45;&gt;Node37</title>
<path fill="none" stroke="midnightblue" d="M1578.72,-296.87C1605.64,-285.65 1652.86,-265.98 1683.78,-253.09"/>
<polygon fill="midnightblue" stroke="midnightblue" points="1685.31,-256.24 1693.2,-249.17 1682.62,-249.78 1685.31,-256.24"/>
</g>
<!-- Node29&#45;&gt;Node17 -->
<g id="edge45" class="edge">
<title>Node29&#45;&gt;Node17</title>
<path fill="none" stroke="midnightblue" d="M1302.24,-226.81C1297.43,-225.86 1292.63,-224.91 1288,-224 1225.71,-211.79 1154.09,-198.2 1106.23,-189.18"/>
<polygon fill="midnightblue" stroke="midnightblue" points="1106.87,-185.73 1096.39,-187.32 1105.57,-192.61 1106.87,-185.73"/>
</g>
<!-- Node29&#45;&gt;Node19 -->
<g id="edge46" class="edge">
<title>Node29&#45;&gt;Node19</title>
<path fill="none" stroke="midnightblue" d="M1302.3,-226.81C1248.31,-215.56 1171.77,-198.72 1143,-188 1125.12,-181.34 1123.37,-173.19 1105,-168 988.28,-135 620.11,-125.95 483.06,-123.69"/>
<polygon fill="midnightblue" stroke="midnightblue" points="482.89,-120.19 472.83,-123.53 482.78,-127.19 482.89,-120.19"/>
</g>
<!-- Node30 -->
<g id="node30" class="node">
<title>Node30</title>
<g id="a_node30"><a xlink:title=" ">
<polygon fill="white" stroke="#bfbfbf" points="926,-168.5 926,-187.5 990,-187.5 990,-168.5 926,-168.5"/>
<text text-anchor="middle" x="958" y="-175.5" font-family="Helvetica,sans-Serif" font-size="10.00">algorithm</text>
</a>
</g>
</g>
<!-- Node29&#45;&gt;Node30 -->
<g id="edge38" class="edge">
<title>Node29&#45;&gt;Node30</title>
<path fill="none" stroke="midnightblue" d="M1302.26,-230.48C1212.15,-217.96 1044.46,-194.62 1000.1,-187.9"/>
<polygon fill="midnightblue" stroke="midnightblue" points="1000.61,-184.43 990.18,-186.31 999.5,-191.34 1000.61,-184.43"/>
</g>
<!-- Node31 -->
<g id="node31" class="node">
<title>Node31</title>
<g id="a_node31"><a xlink:title=" ">
<polygon fill="white" stroke="#bfbfbf" points="856,-168.5 856,-187.5 908,-187.5 908,-168.5 856,-168.5"/>
<text text-anchor="middle" x="882" y="-175.5" font-family="Helvetica,sans-Serif" font-size="10.00">cassert</text>
</a>
</g>
</g>
<!-- Node29&#45;&gt;Node31 -->
<g id="edge39" class="edge">
<title>Node29&#45;&gt;Node31</title>
<path fill="none" stroke="midnightblue" d="M1302.27,-230.2C1286.92,-228.08 1270.34,-225.88 1255,-224 1108.27,-206.06 1067.4,-214.5 918.27,-187.99"/>
<polygon fill="midnightblue" stroke="midnightblue" points="918.74,-184.52 908.28,-186.2 917.5,-191.41 918.74,-184.52"/>
</g>
<!-- Node32 -->
<g id="node32" class="node">
<title>Node32</title>
<g id="a_node32"><a xlink:title=" ">
<polygon fill="white" stroke="#bfbfbf" points="1384.5,-168.5 1384.5,-187.5 1431.5,-187.5 1431.5,-168.5 1384.5,-168.5"/>
<text text-anchor="middle" x="1408" y="-175.5" font-family="Helvetica,sans-Serif" font-size="10.00">cmath</text>
</a>
</g>
</g>
<!-- Node29&#45;&gt;Node32 -->
<g id="edge40" class="edge">
<title>Node29&#45;&gt;Node32</title>
<path fill="none" stroke="midnightblue" d="M1371.38,-224.4C1378.35,-215.75 1387.31,-204.64 1394.63,-195.58"/>
<polygon fill="midnightblue" stroke="midnightblue" points="1397.46,-197.64 1401.02,-187.66 1392.01,-193.24 1397.46,-197.64"/>
</g>
<!-- Node33 -->
<g id="node33" class="node">
<title>Node33</title>
<g id="a_node33"><a xlink:title=" ">
<polygon fill="white" stroke="#bfbfbf" points="1152,-168.5 1152,-187.5 1208,-187.5 1208,-168.5 1152,-168.5"/>
<text text-anchor="middle" x="1180" y="-175.5" font-family="Helvetica,sans-Serif" font-size="10.00">numeric</text>
</a>
</g>
</g>
<!-- Node29&#45;&gt;Node33 -->
<g id="edge41" class="edge">
<title>Node29&#45;&gt;Node33</title>
<path fill="none" stroke="midnightblue" d="M1317.34,-224.4C1286.37,-214.16 1244.95,-200.47 1215.72,-190.81"/>
<polygon fill="midnightblue" stroke="midnightblue" points="1216.52,-187.39 1205.93,-187.57 1214.33,-194.03 1216.52,-187.39"/>
</g>
<!-- Node34 -->
<g id="node34" class="node">
<title>Node34</title>
<g id="a_node34"><a xlink:title=" ">
<polygon fill="white" stroke="#bfbfbf" points="1226.5,-168.5 1226.5,-187.5 1283.5,-187.5 1283.5,-168.5 1226.5,-168.5"/>
<text text-anchor="middle" x="1255" y="-175.5" font-family="Helvetica,sans-Serif" font-size="10.00">ostream</text>
</a>
</g>
</g>
<!-- Node29&#45;&gt;Node34 -->
<g id="edge42" class="edge">
<title>Node29&#45;&gt;Node34</title>
<path fill="none" stroke="midnightblue" d="M1335.12,-224.4C1318.29,-214.86 1296.16,-202.32 1279.43,-192.84"/>
<polygon fill="midnightblue" stroke="midnightblue" points="1280.7,-189.54 1270.28,-187.66 1277.25,-195.63 1280.7,-189.54"/>
</g>
<!-- Node35 -->
<g id="node35" class="node">
<title>Node35</title>
<g id="a_node35"><a xlink:title=" ">
<polygon fill="white" stroke="#bfbfbf" points="1301.5,-168.5 1301.5,-187.5 1366.5,-187.5 1366.5,-168.5 1301.5,-168.5"/>
<text text-anchor="middle" x="1334" y="-175.5" font-family="Helvetica,sans-Serif" font-size="10.00">stdexcept</text>
</a>
</g>
</g>
<!-- Node29&#45;&gt;Node35 -->
<g id="edge43" class="edge">
<title>Node29&#45;&gt;Node35</title>
<path fill="none" stroke="midnightblue" d="M1353.84,-224.4C1350.26,-216.2 1345.7,-205.78 1341.86,-196.99"/>
<polygon fill="midnightblue" stroke="midnightblue" points="1344.99,-195.42 1337.78,-187.66 1338.58,-198.22 1344.99,-195.42"/>
</g>
<!-- Node36 -->
<g id="node36" class="node">
<title>Node36</title>
<g id="a_node36"><a xlink:title=" ">
<polygon fill="white" stroke="#bfbfbf" points="721.5,-168.5 721.5,-187.5 766.5,-187.5 766.5,-168.5 721.5,-168.5"/>
<text text-anchor="middle" x="744" y="-175.5" font-family="Helvetica,sans-Serif" font-size="10.00">utility</text>
</a>
</g>
</g>
<!-- Node29&#45;&gt;Node36 -->
<g id="edge44" class="edge">
<title>Node29&#45;&gt;Node36</title>
<path fill="none" stroke="midnightblue" d="M1302.31,-229.88C1286.96,-227.76 1270.37,-225.64 1255,-224 1045.93,-201.73 987.99,-224.38 776.46,-187.69"/>
<polygon fill="midnightblue" stroke="midnightblue" points="777.05,-184.24 766.6,-185.96 775.84,-191.14 777.05,-184.24"/>
</g>
<!-- Node38&#45;&gt;Node5 -->
<g id="edge52" class="edge">
<title>Node38&#45;&gt;Node5</title>
<path fill="none" stroke="midnightblue" d="M1035.41,-365.95C882.35,-362.51 425.79,-350.09 280,-322 168.56,-300.53 38,-353.99 38,-240.5 38,-240.5 38,-240.5 38,-121 38,-86.81 54.6,-49.76 65.86,-28.57"/>
<polygon fill="midnightblue" stroke="midnightblue" points="68.95,-30.22 70.72,-19.77 62.82,-26.83 68.95,-30.22"/>
</g>
<!-- Node38&#45;&gt;Node6 -->
<g id="edge53" class="edge">
<title>Node38&#45;&gt;Node6</title>
<path fill="none" stroke="midnightblue" d="M1136.77,-365.57C1211.93,-360.56 1351.98,-339.63 1427,-255 1452.98,-225.69 1457.36,-203.58 1441,-168 1408.65,-97.63 1327.48,-46.97 1284.95,-24.29"/>
<polygon fill="midnightblue" stroke="midnightblue" points="1286.49,-21.14 1276,-19.63 1283.25,-27.35 1286.49,-21.14"/>
</g>
<!-- Node38&#45;&gt;Node17 -->
<g id="edge85" class="edge">
<title>Node38&#45;&gt;Node17</title>
<path fill="none" stroke="midnightblue" d="M1084.45,-358.43C1079.28,-329.87 1062.57,-237.43 1055.36,-197.57"/>
<polygon fill="midnightblue" stroke="midnightblue" points="1058.78,-196.83 1053.56,-187.62 1051.89,-198.08 1058.78,-196.83"/>
</g>
<!-- Node38&#45;&gt;Node22 -->
<g id="edge51" class="edge">
<title>Node38&#45;&gt;Node22</title>
<path fill="none" stroke="midnightblue" d="M1035.26,-365.23C845.72,-357.94 190,-326.51 190,-240.5 190,-240.5 190,-240.5 190,-177 190,-137.94 222.18,-101.94 243.51,-82.37"/>
<polygon fill="midnightblue" stroke="midnightblue" points="245.88,-84.94 251.06,-75.7 241.25,-79.7 245.88,-84.94"/>
</g>
<!-- Node39 -->
<g id="node39" class="node">
<title>Node39</title>
<g id="a_node39"><a xlink:href="agent__uid_8h.html" target="_top" xlink:title=" ">
<polygon fill="white" stroke="black" points="930,-297 930,-316 1058,-316 1058,-297 930,-297"/>
<text text-anchor="middle" x="994" y="-304" font-family="Helvetica,sans-Serif" font-size="10.00">core/agent/agent_uid.h</text>
</a>
</g>
</g>
<!-- Node38&#45;&gt;Node39 -->
<g id="edge54" class="edge">
<title>Node38&#45;&gt;Node39</title>
<path fill="none" stroke="midnightblue" d="M1072.82,-358.48C1057.93,-348.84 1033.46,-333.02 1015.73,-321.55"/>
<polygon fill="midnightblue" stroke="midnightblue" points="1017.45,-318.5 1007.16,-316.01 1013.65,-324.38 1017.45,-318.5"/>
</g>
<!-- Node41 -->
<g id="node41" class="node">
<title>Node41</title>
<g id="a_node41"><a xlink:href="opencl__state_8h.html" target="_top" xlink:title=" ">
<polygon fill="white" stroke="black" points="1632.5,-297 1632.5,-316 1765.5,-316 1765.5,-297 1632.5,-297"/>
<text text-anchor="middle" x="1699" y="-304" font-family="Helvetica,sans-Serif" font-size="10.00">core/gpu/opencl_state.h</text>
</a>
</g>
</g>
<!-- Node38&#45;&gt;Node41 -->
<g id="edge57" class="edge">
<title>Node38&#45;&gt;Node41</title>
<path fill="none" stroke="midnightblue" d="M1136.55,-364.02C1230.46,-358.19 1438.09,-343.9 1612,-322 1621.8,-320.77 1632.18,-319.23 1642.24,-317.63"/>
<polygon fill="midnightblue" stroke="midnightblue" points="1642.84,-321.08 1652.14,-316.01 1641.71,-314.17 1642.84,-321.08"/>
</g>
<!-- Node42 -->
<g id="node42" class="node">
<title>Node42</title>
<g id="a_node42"><a xlink:href="memory__manager_8h.html" target="_top" xlink:title=" ">
<polygon fill="white" stroke="black" points="478,-291.5 478,-321.5 604,-321.5 604,-291.5 478,-291.5"/>
<text text-anchor="start" x="486" y="-309.5" font-family="Helvetica,sans-Serif" font-size="10.00">core/memory/memory</text>
<text text-anchor="middle" x="541" y="-298.5" font-family="Helvetica,sans-Serif" font-size="10.00">_manager.h</text>
</a>
</g>
</g>
<!-- Node38&#45;&gt;Node42 -->
<g id="edge60" class="edge">
<title>Node38&#45;&gt;Node42</title>
<path fill="none" stroke="midnightblue" d="M1035.22,-361.46C938.35,-350.88 726.87,-327.79 614.54,-315.53"/>
<polygon fill="midnightblue" stroke="midnightblue" points="614.63,-312.02 604.31,-314.41 613.87,-318.98 614.63,-312.02"/>
</g>
<!-- Node53 -->
<g id="node49" class="node">
<title>Node53</title>
<g id="a_node49"><a xlink:href="random_8h.html" target="_top" xlink:title=" ">
<polygon fill="white" stroke="black" points="1114,-297 1114,-316 1220,-316 1220,-297 1114,-297"/>
<text text-anchor="middle" x="1167" y="-304" font-family="Helvetica,sans-Serif" font-size="10.00">core/util/random.h</text>
</a>
</g>
</g>
<!-- Node38&#45;&gt;Node53 -->
<g id="edge77" class="edge">
<title>Node38&#45;&gt;Node53</title>
<path fill="none" stroke="midnightblue" d="M1097.61,-358.48C1110.48,-349.02 1131.47,-333.6 1147.01,-322.19"/>
<polygon fill="midnightblue" stroke="midnightblue" points="1149.43,-324.75 1155.42,-316.01 1145.28,-319.11 1149.43,-324.75"/>
</g>
<!-- Node39&#45;&gt;Node17 -->
<g id="edge56" class="edge">
<title>Node39&#45;&gt;Node17</title>
<path fill="none" stroke="midnightblue" d="M1001.36,-296.72C1009.17,-287.05 1021.39,-270.75 1029,-255 1037.97,-236.42 1044.32,-213.59 1048.04,-197.83"/>
<polygon fill="midnightblue" stroke="midnightblue" points="1051.52,-198.28 1050.28,-187.76 1044.69,-196.76 1051.52,-198.28"/>
</g>
<!-- Node40 -->
<g id="node40" class="node">
<title>Node40</title>
<g id="a_node40"><a xlink:title=" ">
<polygon fill="white" stroke="#bfbfbf" points="844,-230 844,-249 888,-249 888,-230 844,-230"/>
<text text-anchor="middle" x="866" y="-237" font-family="Helvetica,sans-Serif" font-size="10.00">limits</text>
</a>
</g>
</g>
<!-- Node39&#45;&gt;Node40 -->
<g id="edge55" class="edge">
<title>Node39&#45;&gt;Node40</title>
<path fill="none" stroke="midnightblue" d="M977,-296.87C955.29,-285.84 917.51,-266.66 892.13,-253.77"/>
<polygon fill="midnightblue" stroke="midnightblue" points="893.57,-250.57 883.07,-249.17 890.4,-256.82 893.57,-250.57"/>
</g>
<!-- Node41&#45;&gt;Node6 -->
<g id="edge59" class="edge">
<title>Node41&#45;&gt;Node6</title>
<path fill="none" stroke="midnightblue" d="M1715.18,-296.89C1729.87,-288.24 1751.01,-273.54 1763,-255 1781.9,-225.76 1782,-213.82 1782,-179 1782,-179 1782,-179 1782,-121 1782,-20.38 1407.26,-11.28 1291.59,-10.86"/>
<polygon fill="midnightblue" stroke="midnightblue" points="1291.54,-7.36 1281.53,-10.85 1291.53,-14.36 1291.54,-7.36"/>
</g>
<!-- Node41&#45;&gt;Node11 -->
<g id="edge58" class="edge">
<title>Node41&#45;&gt;Node11</title>
<path fill="none" stroke="midnightblue" d="M1722.64,-296.87C1753.71,-285.52 1808.47,-265.52 1843.72,-252.65"/>
<polygon fill="midnightblue" stroke="midnightblue" points="1845.36,-255.78 1853.55,-249.06 1842.95,-249.21 1845.36,-255.78"/>
</g>
<!-- Node42&#45;&gt;Node6 -->
<g id="edge64" class="edge">
<title>Node42&#45;&gt;Node6</title>
<path fill="none" stroke="midnightblue" d="M477.79,-294.08C471.78,-293.02 465.77,-291.98 460,-291 361.03,-274.15 317.81,-314.57 237,-255 165.55,-202.33 141.02,-96.52 220,-56 311.03,-9.29 1056.02,-10.03 1224.31,-10.8"/>
<polygon fill="midnightblue" stroke="midnightblue" points="1224.31,-14.3 1234.33,-10.85 1224.34,-7.3 1224.31,-14.3"/>
</g>
<!-- Node42&#45;&gt;Node31 -->
<g id="edge61" class="edge">
<title>Node42&#45;&gt;Node31</title>
<path fill="none" stroke="midnightblue" d="M604.24,-302.35C657.97,-297.55 735.87,-285.45 797,-255 804.89,-251.07 842.95,-215.81 865.38,-194.73"/>
<polygon fill="midnightblue" stroke="midnightblue" points="867.97,-197.09 872.85,-187.69 863.17,-192 867.97,-197.09"/>
</g>
<!-- Node42&#45;&gt;Node36 -->
<g id="edge63" class="edge">
<title>Node42&#45;&gt;Node36</title>
<path fill="none" stroke="midnightblue" d="M558.99,-291.43C571.85,-281.34 589.54,-267.4 605,-255 622,-241.36 624.44,-235.42 643,-224 664.92,-210.51 691.58,-198.81 712,-190.72"/>
<polygon fill="midnightblue" stroke="midnightblue" points="713.42,-193.93 721.48,-187.05 710.89,-187.4 713.42,-193.93"/>
</g>
<!-- Node43 -->
<g id="node43" class="node">
<title>Node43</title>
<g id="a_node43"><a xlink:title=" ">
<polygon fill="white" stroke="#bfbfbf" points="436,-230 436,-249 468,-249 468,-230 436,-230"/>
<text text-anchor="middle" x="452" y="-237" font-family="Helvetica,sans-Serif" font-size="10.00">list</text>
</a>
</g>
</g>
<!-- Node42&#45;&gt;Node43 -->
<g id="edge62" class="edge">
<title>Node42&#45;&gt;Node43</title>
<path fill="none" stroke="midnightblue" d="M521.69,-291.4C507.04,-280.7 486.96,-266.03 472.12,-255.19"/>
<polygon fill="midnightblue" stroke="midnightblue" points="473.79,-252.08 463.65,-249.01 469.66,-257.73 473.79,-252.08"/>
</g>
<!-- Node44 -->
<g id="node44" class="node">
<title>Node44</title>
<g id="a_node44"><a xlink:href="flatmap_8h.html" target="_top" xlink:title=" ">
<polygon fill="white" stroke="red" points="652,-230 652,-249 788,-249 788,-230 652,-230"/>
<text text-anchor="middle" x="720" y="-237" font-family="Helvetica,sans-Serif" font-size="10.00">core/container/flatmap.h</text>
</a>
</g>
</g>
<!-- Node42&#45;&gt;Node44 -->
<g id="edge65" class="edge">
<title>Node42&#45;&gt;Node44</title>
<path fill="none" stroke="midnightblue" d="M579.84,-291.4C611.8,-279.79 656.62,-263.51 686.9,-252.52"/>
<polygon fill="midnightblue" stroke="midnightblue" points="688.37,-255.71 696.57,-249.01 685.98,-249.13 688.37,-255.71"/>
</g>
<!-- Node47 -->
<g id="node46" class="node">
<title>Node47</title>
<g id="a_node46"><a xlink:href="numa_8h.html" target="_top" xlink:title=" ">
<polygon fill="white" stroke="red" points="218,-168.5 218,-187.5 314,-187.5 314,-168.5 218,-168.5"/>
<text text-anchor="middle" x="266" y="-175.5" font-family="Helvetica,sans-Serif" font-size="10.00">core/util/numa.h</text>
</a>
</g>
</g>
<!-- Node42&#45;&gt;Node47 -->
<g id="edge71" class="edge">
<title>Node42&#45;&gt;Node47</title>
<path fill="none" stroke="midnightblue" d="M477.78,-294.12C471.77,-293.06 465.77,-292 460,-291 412.71,-282.77 277.99,-291.66 247,-255 233.06,-238.5 243.73,-213.22 253.84,-196.41"/>
<polygon fill="midnightblue" stroke="midnightblue" points="257.03,-197.91 259.54,-187.61 251.16,-194.1 257.03,-197.91"/>
</g>
<!-- Node49 -->
<g id="node47" class="node">
<title>Node49</title>
<g id="a_node47"><a xlink:href="spinlock_8h.html" target="_top" xlink:title=" ">
<polygon fill="white" stroke="red" points="486.5,-230 486.5,-249 595.5,-249 595.5,-230 486.5,-230"/>
<text text-anchor="middle" x="541" y="-237" font-family="Helvetica,sans-Serif" font-size="10.00">core/util/spinlock.h</text>
</a>
</g>
</g>
<!-- Node42&#45;&gt;Node49 -->
<g id="edge72" class="edge">
<title>Node42&#45;&gt;Node49</title>
<path fill="none" stroke="midnightblue" d="M541,-291.4C541,-282.06 541,-269.71 541,-259.52"/>
<polygon fill="midnightblue" stroke="midnightblue" points="544.5,-259.19 541,-249.19 537.5,-259.19 544.5,-259.19"/>
</g>
<!-- Node51 -->
<g id="node48" class="node">
<title>Node51</title>
<g id="a_node48"><a xlink:href="thread__info_8h.html" target="_top" xlink:title=" ">
<polygon fill="white" stroke="red" points="256,-230 256,-249 380,-249 380,-230 256,-230"/>
<text text-anchor="middle" x="318" y="-237" font-family="Helvetica,sans-Serif" font-size="10.00">core/util/thread_info.h</text>
</a>
</g>
</g>
<!-- Node42&#45;&gt;Node51 -->
<g id="edge73" class="edge">
<title>Node42&#45;&gt;Node51</title>
<path fill="none" stroke="midnightblue" d="M492.89,-291.48C452.22,-279.62 394.71,-262.86 356.9,-251.84"/>
<polygon fill="midnightblue" stroke="midnightblue" points="357.84,-248.47 347.26,-249.03 355.88,-255.19 357.84,-248.47"/>
</g>
<!-- Node44&#45;&gt;Node6 -->
<g id="edge69" class="edge">
<title>Node44&#45;&gt;Node6</title>
<path fill="none" stroke="midnightblue" d="M714.21,-229.91C705.81,-216.28 692.23,-189.09 702,-168 718.16,-133.09 733.71,-129.43 768,-112 925.45,-31.98 1141.91,-15.36 1224.31,-11.9"/>
<polygon fill="midnightblue" stroke="midnightblue" points="1224.5,-15.4 1234.36,-11.52 1224.23,-8.41 1224.5,-15.4"/>
</g>
<!-- Node44&#45;&gt;Node24 -->
<g id="edge70" class="edge">
<title>Node44&#45;&gt;Node24</title>
<path fill="none" stroke="midnightblue" d="M715.64,-229.68C709.2,-215.23 699.29,-186.31 713,-168 747.35,-122.12 910.28,-89.98 999.04,-75.56"/>
<polygon fill="midnightblue" stroke="midnightblue" points="999.64,-79.01 1008.96,-73.97 998.53,-72.1 999.64,-79.01"/>
</g>
<!-- Node44&#45;&gt;Node31 -->
<g id="edge66" class="edge">
<title>Node44&#45;&gt;Node31</title>
<path fill="none" stroke="midnightblue" d="M743.21,-229.98C771,-219.77 817.72,-202.61 849.19,-191.05"/>
<polygon fill="midnightblue" stroke="midnightblue" points="850.65,-194.24 858.83,-187.51 848.24,-187.67 850.65,-194.24"/>
</g>
<!-- Node44&#45;&gt;Node36 -->
<g id="edge68" class="edge">
<title>Node44&#45;&gt;Node36</title>
<path fill="none" stroke="midnightblue" d="M723.44,-229.98C726.9,-221.4 732.33,-207.93 736.75,-196.98"/>
<polygon fill="midnightblue" stroke="midnightblue" points="740.07,-198.09 740.57,-187.51 733.58,-195.47 740.07,-198.09"/>
</g>
<!-- Node45 -->
<g id="node45" class="node">
<title>Node45</title>
<g id="a_node45"><a xlink:title=" ">
<polygon fill="white" stroke="#bfbfbf" points="784.5,-168.5 784.5,-187.5 837.5,-187.5 837.5,-168.5 784.5,-168.5"/>
<text text-anchor="middle" x="811" y="-175.5" font-family="Helvetica,sans-Serif" font-size="10.00">cstddef</text>
</a>
</g>
</g>
<!-- Node44&#45;&gt;Node45 -->
<g id="edge67" class="edge">
<title>Node44&#45;&gt;Node45</title>
<path fill="none" stroke="midnightblue" d="M733.04,-229.98C747.77,-220.34 771.97,-204.52 789.51,-193.05"/>
<polygon fill="midnightblue" stroke="midnightblue" points="791.53,-195.91 797.99,-187.51 787.7,-190.05 791.53,-195.91"/>
</g>
<!-- Node51&#45;&gt;Node6 -->
<g id="edge74" class="edge">
<title>Node51&#45;&gt;Node6</title>
<path fill="none" stroke="midnightblue" d="M318.8,-229.63C322.06,-199.19 337.32,-98.45 399,-56 467.86,-8.62 1073.23,-9.69 1224.07,-10.71"/>
<polygon fill="midnightblue" stroke="midnightblue" points="1224.11,-14.21 1234.13,-10.78 1224.16,-7.21 1224.11,-14.21"/>
</g>
<!-- Node51&#45;&gt;Node19 -->
<g id="edge75" class="edge">
<title>Node51&#45;&gt;Node19</title>
<path fill="none" stroke="midnightblue" d="M326.49,-229.82C345.39,-210.5 391.15,-163.74 415.36,-138.98"/>
<polygon fill="midnightblue" stroke="midnightblue" points="417.92,-141.38 422.41,-131.78 412.91,-136.48 417.92,-141.38"/>
</g>
<!-- Node51&#45;&gt;Node47 -->
<g id="edge76" class="edge">
<title>Node51&#45;&gt;Node47</title>
<path fill="none" stroke="midnightblue" d="M310.55,-229.98C302.67,-220.96 290.06,-206.52 280.26,-195.31"/>
<polygon fill="midnightblue" stroke="midnightblue" points="282.65,-192.74 273.44,-187.51 277.38,-197.34 282.65,-192.74"/>
</g>
<!-- Node53&#45;&gt;Node13 -->
<g id="edge78" class="edge">
<title>Node53&#45;&gt;Node13</title>
<path fill="none" stroke="midnightblue" d="M1171.32,-296.73C1176.16,-286.89 1184.15,-270.66 1190.31,-258.16"/>
<polygon fill="midnightblue" stroke="midnightblue" points="1193.48,-259.64 1194.75,-249.13 1187.2,-256.55 1193.48,-259.64"/>
</g>
<!-- Node53&#45;&gt;Node17 -->
<g id="edge84" class="edge">
<title>Node53&#45;&gt;Node17</title>
<path fill="none" stroke="midnightblue" d="M1160.31,-296.62C1148.64,-281.3 1123.54,-249.13 1100,-224 1090.34,-213.68 1078.8,-202.83 1069.46,-194.36"/>
<polygon fill="midnightblue" stroke="midnightblue" points="1071.7,-191.67 1061.92,-187.61 1067.03,-196.89 1071.7,-191.67"/>
</g>
<!-- Node53&#45;&gt;Node29 -->
<g id="edge83" class="edge">
<title>Node53&#45;&gt;Node29</title>
<path fill="none" stroke="midnightblue" d="M1192.63,-296.87C1222.09,-286.95 1271.19,-270.41 1308.62,-257.81"/>
<polygon fill="midnightblue" stroke="midnightblue" points="1309.99,-261.04 1318.35,-254.53 1307.75,-254.4 1309.99,-261.04"/>
</g>
<!-- Node54 -->
<g id="node50" class="node">
<title>Node54</title>
<g id="a_node50"><a xlink:href="fixed__size__vector_8h.html" target="_top" xlink:title=" ">
<polygon fill="white" stroke="red" points="906.5,-224.5 906.5,-254.5 1019.5,-254.5 1019.5,-224.5 906.5,-224.5"/>
<text text-anchor="start" x="914.5" y="-242.5" font-family="Helvetica,sans-Serif" font-size="10.00">core/container/fixed</text>
<text text-anchor="middle" x="963" y="-231.5" font-family="Helvetica,sans-Serif" font-size="10.00">_size_vector.h</text>
</a>
</g>
</g>
<!-- Node53&#45;&gt;Node54 -->
<g id="edge79" class="edge">
<title>Node53&#45;&gt;Node54</title>
<path fill="none" stroke="midnightblue" d="M1139.91,-296.87C1108.57,-286.88 1056.2,-270.2 1016.56,-257.56"/>
<polygon fill="midnightblue" stroke="midnightblue" points="1017.62,-254.23 1007.03,-254.53 1015.49,-260.9 1017.62,-254.23"/>
</g>
<!-- Node54&#45;&gt;Node30 -->
<g id="edge80" class="edge">
<title>Node54&#45;&gt;Node30</title>
<path fill="none" stroke="midnightblue" d="M961.82,-224.4C961.15,-216.47 960.31,-206.46 959.58,-197.86"/>
<polygon fill="midnightblue" stroke="midnightblue" points="963.05,-197.33 958.73,-187.66 956.08,-197.92 963.05,-197.33"/>
</g>
<!-- Node54&#45;&gt;Node31 -->
<g id="edge81" class="edge">
<title>Node54&#45;&gt;Node31</title>
<path fill="none" stroke="midnightblue" d="M943.8,-224.4C931.18,-215.13 914.71,-203.03 901.94,-193.65"/>
<polygon fill="midnightblue" stroke="midnightblue" points="903.92,-190.76 893.79,-187.66 899.77,-196.4 903.92,-190.76"/>
</g>
<!-- Node54&#45;&gt;Node45 -->
<g id="edge82" class="edge">
<title>Node54&#45;&gt;Node45</title>
<path fill="none" stroke="midnightblue" d="M926.98,-224.4C901.36,-214.37 867.27,-201.03 842.69,-191.4"/>
<polygon fill="midnightblue" stroke="midnightblue" points="843.71,-188.04 833.12,-187.66 841.15,-194.56 843.71,-188.04"/>
</g>
</g>
</svg>
