<?xml version="1.0" encoding="UTF-8" standalone="no"?>
<!DOCTYPE svg PUBLIC "-//W3C//DTD SVG 1.1//EN"
 "http://www.w3.org/Graphics/SVG/1.1/DTD/svg11.dtd">
<!-- Generated by graphviz version 2.43.0 (0)
 -->
<!-- Title: core/execution_context/in_place_exec_ctxt.cc Pages: 1 -->
<svg width="4320pt" height="598pt"
 viewBox="0.00 0.00 4320.00 598.00" xmlns="http://www.w3.org/2000/svg" xmlns:xlink="http://www.w3.org/1999/xlink">
<g id="graph0" class="graph" transform="scale(1 1) rotate(0) translate(4 594)">
<title>core/execution_context/in_place_exec_ctxt.cc</title>
<polygon fill="white" stroke="transparent" points="-4,4 -4,-594 4316,-594 4316,4 -4,4"/>
<!-- Node1 -->
<g id="node1" class="node">
<title>Node1</title>
<g id="a_node1"><a xlink:title=" ">
<polygon fill="#bfbfbf" stroke="black" points="2026,-559.5 2026,-589.5 2156,-589.5 2156,-559.5 2026,-559.5"/>
<text text-anchor="start" x="2034" y="-577.5" font-family="Helvetica,sans-Serif" font-size="10.00">core/execution_context</text>
<text text-anchor="middle" x="2091" y="-566.5" font-family="Helvetica,sans-Serif" font-size="10.00">/in_place_exec_ctxt.cc</text>
</a>
</g>
</g>
<!-- Node2 -->
<g id="node2" class="node">
<title>Node2</title>
<g id="a_node2"><a xlink:href="in__place__exec__ctxt_8h.html" target="_top" xlink:title=" ">
<polygon fill="white" stroke="black" points="1324,-313.5 1324,-343.5 1454,-343.5 1454,-313.5 1324,-313.5"/>
<text text-anchor="start" x="1332" y="-331.5" font-family="Helvetica,sans-Serif" font-size="10.00">core/execution_context</text>
<text text-anchor="middle" x="1389" y="-320.5" font-family="Helvetica,sans-Serif" font-size="10.00">/in_place_exec_ctxt.h</text>
</a>
</g>
</g>
<!-- Node1&#45;&gt;Node2 -->
<g id="edge1" class="edge">
<title>Node1&#45;&gt;Node2</title>
<path fill="none" stroke="midnightblue" d="M2025.81,-573.5C1862.23,-572.84 1444.36,-566.85 1401,-523 1356.37,-477.87 1370.98,-394.22 1381.77,-353.3"/>
<polygon fill="midnightblue" stroke="midnightblue" points="1385.15,-354.21 1384.46,-343.64 1378.41,-352.33 1385.15,-354.21"/>
</g>
<!-- Node6 -->
<g id="node6" class="node">
<title>Node6</title>
<g id="a_node6"><a xlink:title=" ">
<polygon fill="white" stroke="#bfbfbf" points="2546.5,-0.5 2546.5,-19.5 2591.5,-19.5 2591.5,-0.5 2546.5,-0.5"/>
<text text-anchor="middle" x="2569" y="-7.5" font-family="Helvetica,sans-Serif" font-size="10.00">utility</text>
</a>
</g>
</g>
<!-- Node1&#45;&gt;Node6 -->
<g id="edge64" class="edge">
<title>Node1&#45;&gt;Node6</title>
<path fill="none" stroke="midnightblue" d="M2156.07,-572.76C2477.02,-568.98 3883.66,-550.96 4077,-523 4184.25,-507.49 4312,-566.37 4312,-458 4312,-458 4312,-458 4312,-126.5 4312,-73.92 4266.69,-73.18 4217,-56 4137.9,-28.65 2827.39,-13.71 2601.9,-11.34"/>
<polygon fill="midnightblue" stroke="midnightblue" points="2601.74,-7.83 2591.71,-11.23 2601.67,-14.83 2601.74,-7.83"/>
</g>
<!-- Node27 -->
<g id="node17" class="node">
<title>Node27</title>
<g id="a_node17"><a xlink:title=" ">
<polygon fill="white" stroke="#bfbfbf" points="3980,-56.5 3980,-75.5 4044,-75.5 4044,-56.5 3980,-56.5"/>
<text text-anchor="middle" x="4012" y="-63.5" font-family="Helvetica,sans-Serif" font-size="10.00">algorithm</text>
</a>
</g>
</g>
<!-- Node1&#45;&gt;Node27 -->
<g id="edge62" class="edge">
<title>Node1&#45;&gt;Node27</title>
<path fill="none" stroke="midnightblue" d="M2156.04,-573.54C2518.6,-573.37 4274,-566.91 4274,-458 4274,-458 4274,-458 4274,-260.5 4274,-152.49 4128.13,-97.93 4054.08,-77.2"/>
<polygon fill="midnightblue" stroke="midnightblue" points="4054.69,-73.74 4044.13,-74.49 4052.86,-80.49 4054.69,-73.74"/>
</g>
<!-- Node33 -->
<g id="node20" class="node">
<title>Node33</title>
<g id="a_node20"><a xlink:href="functor_8h.html" target="_top" xlink:title=" ">
<polygon fill="white" stroke="black" points="524.5,-56.5 524.5,-75.5 607.5,-75.5 607.5,-56.5 524.5,-56.5"/>
<text text-anchor="middle" x="566" y="-63.5" font-family="Helvetica,sans-Serif" font-size="10.00">core/functor.h</text>
</a>
</g>
</g>
<!-- Node1&#45;&gt;Node33 -->
<g id="edge180" class="edge">
<title>Node1&#45;&gt;Node33</title>
<path fill="none" stroke="midnightblue" d="M2025.84,-573.39C1672.28,-572.37 0,-562.04 0,-458 0,-458 0,-458 0,-193.5 0,-148.78 20.11,-134.08 59,-112 97.92,-89.9 392.77,-74.6 514.09,-69.17"/>
<polygon fill="midnightblue" stroke="midnightblue" points="514.41,-72.66 524.25,-68.72 514.11,-65.67 514.41,-72.66"/>
</g>
<!-- Node52 -->
<g id="node31" class="node">
<title>Node52</title>
<g id="a_node31"><a xlink:title=" ">
<polygon fill="white" stroke="#bfbfbf" points="1448,-185 1448,-204 1496,-204 1496,-185 1448,-185"/>
<text text-anchor="middle" x="1472" y="-192" font-family="Helvetica,sans-Serif" font-size="10.00">mutex</text>
</a>
</g>
</g>
<!-- Node1&#45;&gt;Node52 -->
<g id="edge63" class="edge">
<title>Node1&#45;&gt;Node52</title>
<path fill="none" stroke="midnightblue" d="M2025.96,-567.39C1874.83,-551.72 1507.24,-504.56 1434,-411 1425.51,-400.15 1429.42,-392.99 1434,-380 1440.83,-360.62 1455.58,-363.16 1463,-344 1480.04,-299.98 1477.34,-243.14 1474.4,-214.21"/>
<polygon fill="midnightblue" stroke="midnightblue" points="1477.87,-213.8 1473.26,-204.26 1470.92,-214.59 1477.87,-213.8"/>
</g>
<!-- Node53 -->
<g id="node32" class="node">
<title>Node53</title>
<g id="a_node32"><a xlink:href="agent_8h.html" target="_top" xlink:title=" ">
<polygon fill="white" stroke="black" points="2616,-319 2616,-338 2724,-338 2724,-319 2616,-319"/>
<text text-anchor="middle" x="2670" y="-326" font-family="Helvetica,sans-Serif" font-size="10.00">core/agent/agent.h</text>
</a>
</g>
</g>
<!-- Node1&#45;&gt;Node53 -->
<g id="edge65" class="edge">
<title>Node1&#45;&gt;Node53</title>
<path fill="none" stroke="midnightblue" d="M2131.53,-559.41C2207.13,-532.79 2374.38,-472.24 2511,-411 2559.53,-389.25 2614.37,-360.08 2645.3,-343.18"/>
<polygon fill="midnightblue" stroke="midnightblue" points="2647.39,-346.03 2654.47,-338.15 2644.02,-339.89 2647.39,-346.03"/>
</g>
<!-- Node66 -->
<g id="node41" class="node">
<title>Node66</title>
<g id="a_node41"><a xlink:href="environment_8h.html" target="_top" xlink:title=" ">
<polygon fill="white" stroke="black" points="526.5,-503.5 526.5,-522.5 703.5,-522.5 703.5,-503.5 526.5,-503.5"/>
<text text-anchor="middle" x="615" y="-510.5" font-family="Helvetica,sans-Serif" font-size="10.00">core/environment/environment.h</text>
</a>
</g>
</g>
<!-- Node1&#45;&gt;Node66 -->
<g id="edge100" class="edge">
<title>Node1&#45;&gt;Node66</title>
<path fill="none" stroke="midnightblue" d="M2025.67,-570.87C1791.73,-561.44 994.8,-529.31 713.94,-517.99"/>
<polygon fill="midnightblue" stroke="midnightblue" points="713.9,-514.48 703.77,-517.58 713.62,-521.48 713.9,-514.48"/>
</g>
<!-- Node69 -->
<g id="node43" class="node">
<title>Node69</title>
<g id="a_node43"><a xlink:href="resource__manager_8h.html" target="_top" xlink:title=" ">
<polygon fill="white" stroke="black" points="2021,-447.5 2021,-466.5 2161,-466.5 2161,-447.5 2021,-447.5"/>
<text text-anchor="middle" x="2091" y="-454.5" font-family="Helvetica,sans-Serif" font-size="10.00">core/resource_manager.h</text>
</a>
</g>
</g>
<!-- Node1&#45;&gt;Node69 -->
<g id="edge181" class="edge">
<title>Node1&#45;&gt;Node69</title>
<path fill="none" stroke="midnightblue" d="M2091,-559.34C2091,-538.62 2091,-500.02 2091,-476.9"/>
<polygon fill="midnightblue" stroke="midnightblue" points="2094.5,-476.67 2091,-466.67 2087.5,-476.67 2094.5,-476.67"/>
</g>
<!-- Node72 -->
<g id="node45" class="node">
<title>Node72</title>
<g id="a_node45"><a xlink:href="scheduler_8h.html" target="_top" xlink:title=" ">
<polygon fill="white" stroke="red" points="3640,-319 3640,-338 3736,-338 3736,-319 3640,-319"/>
<text text-anchor="middle" x="3688" y="-326" font-family="Helvetica,sans-Serif" font-size="10.00">core/scheduler.h</text>
</a>
</g>
</g>
<!-- Node1&#45;&gt;Node72 -->
<g id="edge182" class="edge">
<title>Node1&#45;&gt;Node72</title>
<path fill="none" stroke="midnightblue" d="M2156.26,-572.6C2497.76,-567.57 4066.22,-540.51 4136,-467 4162.62,-438.96 4161.76,-408.83 4136,-380 4110.47,-351.43 3861.82,-337.02 3746.36,-331.82"/>
<polygon fill="midnightblue" stroke="midnightblue" points="3746.43,-328.32 3736.29,-331.38 3746.12,-335.31 3746.43,-328.32"/>
</g>
<!-- Node3 -->
<g id="node3" class="node">
<title>Node3</title>
<g id="a_node3"><a xlink:title=" ">
<polygon fill="white" stroke="#bfbfbf" points="1141,-118 1141,-137 1191,-137 1191,-118 1141,-118"/>
<text text-anchor="middle" x="1166" y="-125" font-family="Helvetica,sans-Serif" font-size="10.00">atomic</text>
</a>
</g>
</g>
<!-- Node2&#45;&gt;Node3 -->
<g id="edge2" class="edge">
<title>Node2&#45;&gt;Node3</title>
<path fill="none" stroke="midnightblue" d="M1367.12,-313.34C1352.37,-303.56 1332.63,-290.01 1316,-277 1280.53,-249.25 1272.07,-241.61 1240,-210 1218.21,-188.52 1194.73,-162.04 1180.2,-145.2"/>
<polygon fill="midnightblue" stroke="midnightblue" points="1182.64,-142.67 1173.47,-137.36 1177.33,-147.23 1182.64,-142.67"/>
</g>
<!-- Node4 -->
<g id="node4" class="node">
<title>Node4</title>
<g id="a_node4"><a xlink:title=" ">
<polygon fill="white" stroke="#bfbfbf" points="2291.5,-56.5 2291.5,-75.5 2356.5,-75.5 2356.5,-56.5 2291.5,-56.5"/>
<text text-anchor="middle" x="2324" y="-63.5" font-family="Helvetica,sans-Serif" font-size="10.00">functional</text>
</a>
</g>
</g>
<!-- Node2&#45;&gt;Node4 -->
<g id="edge3" class="edge">
<title>Node2&#45;&gt;Node4</title>
<path fill="none" stroke="midnightblue" d="M1409.32,-313.47C1437.78,-294.61 1491.79,-261.64 1543,-246 1615.24,-223.94 1830.5,-266.17 1881,-210 1910.12,-177.61 1851.8,-144.32 1881,-112 1907.55,-82.61 2175.46,-71.44 2281.31,-68.15"/>
<polygon fill="midnightblue" stroke="midnightblue" points="2281.44,-71.65 2291.33,-67.85 2281.23,-64.65 2281.44,-71.65"/>
</g>
<!-- Node5 -->
<g id="node5" class="node">
<title>Node5</title>
<g id="a_node5"><a xlink:title=" ">
<polygon fill="white" stroke="#bfbfbf" points="2732,-185 2732,-204 2790,-204 2790,-185 2732,-185"/>
<text text-anchor="middle" x="2761" y="-192" font-family="Helvetica,sans-Serif" font-size="10.00">memory</text>
</a>
</g>
</g>
<!-- Node2&#45;&gt;Node5 -->
<g id="edge4" class="edge">
<title>Node2&#45;&gt;Node5</title>
<path fill="none" stroke="midnightblue" d="M1454.03,-326.62C1658.84,-323.5 2288.88,-311.31 2490,-277 2536.11,-269.13 2663.54,-227.89 2725.82,-207.26"/>
<polygon fill="midnightblue" stroke="midnightblue" points="2727.2,-210.49 2735.59,-204.02 2724.99,-203.85 2727.2,-210.49"/>
</g>
<!-- Node2&#45;&gt;Node6 -->
<g id="edge5" class="edge">
<title>Node2&#45;&gt;Node6</title>
<path fill="none" stroke="midnightblue" d="M1323.88,-325.28C1219.53,-320.89 1008.76,-308.63 833,-277 781.32,-267.7 770.14,-257.91 719,-246 637.42,-227 591.69,-270.73 534,-210 486.5,-160 466.77,-105.3 515,-56 551.89,-18.3 2275.1,-11.85 2536.04,-11.09"/>
<polygon fill="midnightblue" stroke="midnightblue" points="2536.38,-14.59 2546.37,-11.06 2536.36,-7.59 2536.38,-14.59"/>
</g>
<!-- Node7 -->
<g id="node7" class="node">
<title>Node7</title>
<g id="a_node7"><a xlink:title=" ">
<polygon fill="white" stroke="#bfbfbf" points="1671.5,-56.5 1671.5,-75.5 1718.5,-75.5 1718.5,-56.5 1671.5,-56.5"/>
<text text-anchor="middle" x="1695" y="-63.5" font-family="Helvetica,sans-Serif" font-size="10.00">vector</text>
</a>
</g>
</g>
<!-- Node2&#45;&gt;Node7 -->
<g id="edge6" class="edge">
<title>Node2&#45;&gt;Node7</title>
<path fill="none" stroke="midnightblue" d="M1376.2,-313.38C1361.15,-296.9 1335.26,-268.99 1312,-246 1295.22,-229.42 1282.46,-231.61 1273,-210 1251.74,-161.44 1293.32,-135.16 1341,-112 1355.34,-105.03 1575.64,-80.16 1661.29,-70.69"/>
<polygon fill="midnightblue" stroke="midnightblue" points="1661.73,-74.17 1671.29,-69.59 1660.96,-67.21 1661.73,-74.17"/>
</g>
<!-- Node8 -->
<g id="node8" class="node">
<title>Node8</title>
<g id="a_node8"><a xlink:href="agent__handle_8h.html" target="_top" xlink:title=" ">
<polygon fill="white" stroke="black" points="1350,-118 1350,-137 1496,-137 1496,-118 1350,-118"/>
<text text-anchor="middle" x="1423" y="-125" font-family="Helvetica,sans-Serif" font-size="10.00">core/agent/agent_handle.h</text>
</a>
</g>
</g>
<!-- Node2&#45;&gt;Node8 -->
<g id="edge7" class="edge">
<title>Node2&#45;&gt;Node8</title>
<path fill="none" stroke="midnightblue" d="M1391.45,-313.19C1397.47,-277.91 1413.04,-186.78 1419.8,-147.25"/>
<polygon fill="midnightblue" stroke="midnightblue" points="1423.25,-147.81 1421.49,-137.36 1416.35,-146.63 1423.25,-147.81"/>
</g>
<!-- Node20 -->
<g id="node11" class="node">
<title>Node20</title>
<g id="a_node11"><a xlink:href="agent__pointer_8h.html" target="_top" xlink:title=" ">
<polygon fill="white" stroke="red" points="2148.5,-252 2148.5,-271 2295.5,-271 2295.5,-252 2148.5,-252"/>
<text text-anchor="middle" x="2222" y="-259" font-family="Helvetica,sans-Serif" font-size="10.00">core/agent/agent_pointer.h</text>
</a>
</g>
</g>
<!-- Node2&#45;&gt;Node20 -->
<g id="edge10" class="edge">
<title>Node2&#45;&gt;Node20</title>
<path fill="none" stroke="midnightblue" d="M1454.02,-322.43C1603.57,-310.76 1971.86,-282.02 2138.14,-269.04"/>
<polygon fill="midnightblue" stroke="midnightblue" points="2138.61,-272.52 2148.31,-268.25 2138.07,-265.54 2138.61,-272.52"/>
</g>
<!-- Node24 -->
<g id="node14" class="node">
<title>Node24</title>
<g id="a_node14"><a xlink:href="agent__uid_8h.html" target="_top" xlink:title=" ">
<polygon fill="white" stroke="black" points="1890,-118 1890,-137 2018,-137 2018,-118 1890,-118"/>
<text text-anchor="middle" x="1954" y="-125" font-family="Helvetica,sans-Serif" font-size="10.00">core/agent/agent_uid.h</text>
</a>
</g>
</g>
<!-- Node2&#45;&gt;Node24 -->
<g id="edge44" class="edge">
<title>Node2&#45;&gt;Node24</title>
<path fill="none" stroke="midnightblue" d="M1428.6,-313.4C1480.61,-295.36 1575.08,-264.28 1658,-246 1770.2,-221.27 1820.97,-277.42 1914,-210 1934.8,-194.92 1945.33,-166 1950.24,-146.98"/>
<polygon fill="midnightblue" stroke="midnightblue" points="1953.68,-147.64 1952.51,-137.1 1946.85,-146.07 1953.68,-147.64"/>
</g>
<!-- Node25 -->
<g id="node15" class="node">
<title>Node25</title>
<g id="a_node15"><a xlink:href="execution__context_8h.html" target="_top" xlink:title=" ">
<polygon fill="white" stroke="black" points="1742,-179.5 1742,-209.5 1872,-209.5 1872,-179.5 1742,-179.5"/>
<text text-anchor="start" x="1750" y="-197.5" font-family="Helvetica,sans-Serif" font-size="10.00">core/execution_context</text>
<text text-anchor="middle" x="1807" y="-186.5" font-family="Helvetica,sans-Serif" font-size="10.00">/execution_context.h</text>
</a>
</g>
</g>
<!-- Node2&#45;&gt;Node25 -->
<g id="edge50" class="edge">
<title>Node2&#45;&gt;Node25</title>
<path fill="none" stroke="midnightblue" d="M1398.28,-313.24C1411.38,-294.42 1437.15,-261.84 1468,-246 1512.7,-223.05 1645.96,-208.4 1731.48,-201.09"/>
<polygon fill="midnightblue" stroke="midnightblue" points="1731.99,-204.56 1741.66,-200.23 1731.4,-197.58 1731.99,-204.56"/>
</g>
<!-- Node26 -->
<g id="node16" class="node">
<title>Node26</title>
<g id="a_node16"><a xlink:href="math__array_8h.html" target="_top" xlink:title=" ">
<polygon fill="white" stroke="red" points="3258.5,-112.5 3258.5,-142.5 3373.5,-142.5 3373.5,-112.5 3258.5,-112.5"/>
<text text-anchor="start" x="3266.5" y="-130.5" font-family="Helvetica,sans-Serif" font-size="10.00">core/container/math</text>
<text text-anchor="middle" x="3316" y="-119.5" font-family="Helvetica,sans-Serif" font-size="10.00">_array.h</text>
</a>
</g>
</g>
<!-- Node2&#45;&gt;Node26 -->
<g id="edge49" class="edge">
<title>Node2&#45;&gt;Node26</title>
<path fill="none" stroke="midnightblue" d="M1454,-327.79C1604.39,-327.63 1987.65,-322.37 2304,-277 2493.31,-249.85 2534.11,-208.97 2723,-179 2912.01,-149.01 3137.93,-135.98 3248.42,-131.07"/>
<polygon fill="midnightblue" stroke="midnightblue" points="3248.58,-134.57 3258.42,-130.63 3248.28,-127.57 3248.58,-134.57"/>
</g>
<!-- Node2&#45;&gt;Node33 -->
<g id="edge51" class="edge">
<title>Node2&#45;&gt;Node33</title>
<path fill="none" stroke="midnightblue" d="M1327.28,-313.44C1245.53,-295.31 1096.66,-263.97 968,-246 922.05,-239.58 583.36,-244.19 552,-210 520.48,-175.63 542.46,-115.19 556.62,-85.09"/>
<polygon fill="midnightblue" stroke="midnightblue" points="559.91,-86.32 561.19,-75.81 553.63,-83.23 559.91,-86.32"/>
</g>
<!-- Node34 -->
<g id="node21" class="node">
<title>Node34</title>
<g id="a_node21"><a xlink:href="operation_8h.html" target="_top" xlink:title=" ">
<polygon fill="white" stroke="red" points="2036,-118 2036,-137 2182,-137 2182,-118 2036,-118"/>
<text text-anchor="middle" x="2109" y="-125" font-family="Helvetica,sans-Serif" font-size="10.00">core/operation/operation.h</text>
</a>
</g>
</g>
<!-- Node2&#45;&gt;Node34 -->
<g id="edge52" class="edge">
<title>Node2&#45;&gt;Node34</title>
<path fill="none" stroke="midnightblue" d="M1454.02,-315.66C1579.4,-292.49 1850.12,-240.76 1940,-210 1993.9,-191.55 2053.04,-160.27 2085.1,-142.3"/>
<polygon fill="midnightblue" stroke="midnightblue" points="2087.16,-145.15 2094.14,-137.18 2083.71,-139.06 2087.16,-145.15"/>
</g>
<!-- Node51 -->
<g id="node25" class="node">
<title>Node51</title>
<g id="a_node25"><a xlink:href="agent__uid__map_8h.html" target="_top" xlink:title=" ">
<polygon fill="white" stroke="black" points="842.5,-246.5 842.5,-276.5 959.5,-276.5 959.5,-246.5 842.5,-246.5"/>
<text text-anchor="start" x="850.5" y="-264.5" font-family="Helvetica,sans-Serif" font-size="10.00">core/container/agent</text>
<text text-anchor="middle" x="901" y="-253.5" font-family="Helvetica,sans-Serif" font-size="10.00">_uid_map.h</text>
</a>
</g>
</g>
<!-- Node2&#45;&gt;Node51 -->
<g id="edge45" class="edge">
<title>Node2&#45;&gt;Node51</title>
<path fill="none" stroke="midnightblue" d="M1323.74,-321.09C1241.81,-312.69 1097.09,-296.69 974,-277 972.52,-276.76 971.03,-276.52 969.53,-276.27"/>
<polygon fill="midnightblue" stroke="midnightblue" points="969.95,-272.79 959.5,-274.52 968.75,-279.69 969.95,-272.79"/>
</g>
<!-- Node44 -->
<g id="node26" class="node">
<title>Node44</title>
<g id="a_node26"><a xlink:href="spinlock_8h.html" target="_top" xlink:title=" ">
<polygon fill="white" stroke="black" points="1282.5,-185 1282.5,-204 1391.5,-204 1391.5,-185 1282.5,-185"/>
<text text-anchor="middle" x="1337" y="-192" font-family="Helvetica,sans-Serif" font-size="10.00">core/util/spinlock.h</text>
</a>
</g>
</g>
<!-- Node2&#45;&gt;Node44 -->
<g id="edge53" class="edge">
<title>Node2&#45;&gt;Node44</title>
<path fill="none" stroke="midnightblue" d="M1383.44,-313.37C1373.95,-289.29 1354.65,-240.31 1344.17,-213.7"/>
<polygon fill="midnightblue" stroke="midnightblue" points="1347.31,-212.12 1340.39,-204.1 1340.8,-214.68 1347.31,-212.12"/>
</g>
<!-- Node45 -->
<g id="node27" class="node">
<title>Node45</title>
<g id="a_node27"><a xlink:href="thread__info_8h.html" target="_top" xlink:title=" ">
<polygon fill="white" stroke="red" points="586,-252 586,-271 710,-271 710,-252 586,-252"/>
<text text-anchor="middle" x="648" y="-259" font-family="Helvetica,sans-Serif" font-size="10.00">core/util/thread_info.h</text>
</a>
</g>
</g>
<!-- Node2&#45;&gt;Node45 -->
<g id="edge55" class="edge">
<title>Node2&#45;&gt;Node45</title>
<path fill="none" stroke="midnightblue" d="M1323.61,-322.1C1214.9,-313.07 990.12,-294.22 800,-277 774.01,-274.65 745.54,-271.96 720.33,-269.54"/>
<polygon fill="midnightblue" stroke="midnightblue" points="720.4,-266.03 710.11,-268.56 719.73,-273 720.4,-266.03"/>
</g>
<!-- Node9 -->
<g id="node9" class="node">
<title>Node9</title>
<g id="a_node9"><a xlink:title=" ">
<polygon fill="white" stroke="#bfbfbf" points="1559,-56.5 1559,-75.5 1603,-75.5 1603,-56.5 1559,-56.5"/>
<text text-anchor="middle" x="1581" y="-63.5" font-family="Helvetica,sans-Serif" font-size="10.00">limits</text>
</a>
</g>
</g>
<!-- Node8&#45;&gt;Node9 -->
<g id="edge8" class="edge">
<title>Node8&#45;&gt;Node9</title>
<path fill="none" stroke="midnightblue" d="M1445.64,-117.98C1472.89,-107.71 1518.83,-90.41 1549.53,-78.85"/>
<polygon fill="midnightblue" stroke="midnightblue" points="1550.79,-82.12 1558.91,-75.32 1548.32,-75.57 1550.79,-82.12"/>
</g>
<!-- Node10 -->
<g id="node10" class="node">
<title>Node10</title>
<g id="a_node10"><a xlink:href="root_8h.html" target="_top" xlink:title=" ">
<polygon fill="white" stroke="red" points="2942,-56.5 2942,-75.5 3030,-75.5 3030,-56.5 2942,-56.5"/>
<text text-anchor="middle" x="2986" y="-63.5" font-family="Helvetica,sans-Serif" font-size="10.00">core/util/root.h</text>
</a>
</g>
</g>
<!-- Node8&#45;&gt;Node10 -->
<g id="edge9" class="edge">
<title>Node8&#45;&gt;Node10</title>
<path fill="none" stroke="midnightblue" d="M1496.03,-123.72C1764.93,-113.48 2696.42,-78.02 2931.7,-69.07"/>
<polygon fill="midnightblue" stroke="midnightblue" points="2931.86,-72.56 2941.72,-68.69 2931.6,-65.57 2931.86,-72.56"/>
</g>
<!-- Node20&#45;&gt;Node9 -->
<g id="edge11" class="edge">
<title>Node20&#45;&gt;Node9</title>
<path fill="none" stroke="midnightblue" d="M2148.35,-255.5C2021.04,-246.48 1769.84,-226.85 1733,-210 1669.72,-181.06 1615.84,-115.07 1592.87,-83.9"/>
<polygon fill="midnightblue" stroke="midnightblue" points="1595.69,-81.81 1586.99,-75.76 1590.01,-85.91 1595.69,-81.81"/>
</g>
<!-- Node20&#45;&gt;Node10 -->
<g id="edge43" class="edge">
<title>Node20&#45;&gt;Node10</title>
<path fill="none" stroke="midnightblue" d="M2241.91,-251.97C2285.41,-233.4 2387.95,-190.12 2424,-179 2495.72,-156.88 2520.13,-172.85 2589,-143 2611.28,-133.34 2611.32,-120.67 2634,-112 2734.24,-73.68 2861.03,-66.67 2931.83,-66.11"/>
<polygon fill="midnightblue" stroke="midnightblue" points="2931.88,-69.61 2941.87,-66.07 2931.85,-62.61 2931.88,-69.61"/>
</g>
<!-- Node22 -->
<g id="node12" class="node">
<title>Node22</title>
<g id="a_node12"><a xlink:title=" ">
<polygon fill="white" stroke="#bfbfbf" points="3230.5,-56.5 3230.5,-75.5 3287.5,-75.5 3287.5,-56.5 3230.5,-56.5"/>
<text text-anchor="middle" x="3259" y="-63.5" font-family="Helvetica,sans-Serif" font-size="10.00">ostream</text>
</a>
</g>
</g>
<!-- Node20&#45;&gt;Node22 -->
<g id="edge12" class="edge">
<title>Node20&#45;&gt;Node22</title>
<path fill="none" stroke="midnightblue" d="M2262.71,-251.96C2299.24,-243.58 2353.89,-229.26 2399,-210 2424.1,-199.28 2426.52,-188.78 2452,-179 2525.72,-150.69 2550.3,-165.5 2626,-143 2662.15,-132.25 2668.25,-120.51 2705,-112 2803.37,-89.23 3111.15,-73.61 3220.21,-68.67"/>
<polygon fill="midnightblue" stroke="midnightblue" points="3220.6,-72.16 3230.43,-68.22 3220.28,-65.17 3220.6,-72.16"/>
</g>
<!-- Node23 -->
<g id="node13" class="node">
<title>Node23</title>
<g id="a_node13"><a xlink:title=" ">
<polygon fill="white" stroke="#bfbfbf" points="2714.5,-118 2714.5,-137 2783.5,-137 2783.5,-118 2714.5,-118"/>
<text text-anchor="middle" x="2749" y="-125" font-family="Helvetica,sans-Serif" font-size="10.00">type_traits</text>
</a>
</g>
</g>
<!-- Node20&#45;&gt;Node23 -->
<g id="edge13" class="edge">
<title>Node20&#45;&gt;Node23</title>
<path fill="none" stroke="midnightblue" d="M2269.58,-251.93C2316.41,-243.05 2389.74,-227.97 2452,-210 2491.04,-198.73 2498.98,-190.32 2538,-179 2608.84,-158.45 2628.6,-161.48 2700,-143 2703.8,-142.02 2707.76,-140.94 2711.7,-139.83"/>
<polygon fill="midnightblue" stroke="midnightblue" points="2712.73,-143.17 2721.37,-137.04 2710.79,-136.45 2712.73,-143.17"/>
</g>
<!-- Node20&#45;&gt;Node24 -->
<g id="edge14" class="edge">
<title>Node20&#45;&gt;Node24</title>
<path fill="none" stroke="midnightblue" d="M2216.04,-251.89C2204.03,-235.2 2175.22,-198.4 2142,-179 2118.98,-165.56 2052.92,-149.5 2005.62,-139.16"/>
<polygon fill="midnightblue" stroke="midnightblue" points="2006.35,-135.74 1995.84,-137.04 2004.87,-142.58 2006.35,-135.74"/>
</g>
<!-- Node20&#45;&gt;Node25 -->
<g id="edge17" class="edge">
<title>Node20&#45;&gt;Node25</title>
<path fill="none" stroke="midnightblue" d="M2167.32,-251.94C2094.21,-240.49 1964.32,-220.14 1882.09,-207.26"/>
<polygon fill="midnightblue" stroke="midnightblue" points="1882.47,-203.78 1872.05,-205.69 1881.39,-210.69 1882.47,-203.78"/>
</g>
<!-- Node36 -->
<g id="node24" class="node">
<title>Node36</title>
<g id="a_node24"><a xlink:href="simulation_8h.html" target="_top" xlink:title=" ">
<polygon fill="white" stroke="red" points="2232.5,-185 2232.5,-204 2333.5,-204 2333.5,-185 2232.5,-185"/>
<text text-anchor="middle" x="2283" y="-192" font-family="Helvetica,sans-Serif" font-size="10.00">core/simulation.h</text>
</a>
</g>
</g>
<!-- Node20&#45;&gt;Node36 -->
<g id="edge37" class="edge">
<title>Node20&#45;&gt;Node36</title>
<path fill="none" stroke="midnightblue" d="M2230.23,-251.73C2239.83,-241.5 2255.91,-224.36 2267.8,-211.69"/>
<polygon fill="midnightblue" stroke="midnightblue" points="2270.61,-213.81 2274.9,-204.13 2265.51,-209.02 2270.61,-213.81"/>
</g>
<!-- Node24&#45;&gt;Node9 -->
<g id="edge15" class="edge">
<title>Node24&#45;&gt;Node9</title>
<path fill="none" stroke="midnightblue" d="M1900.56,-117.98C1821.94,-105.43 1677.5,-82.39 1613.27,-72.15"/>
<polygon fill="midnightblue" stroke="midnightblue" points="1613.74,-68.68 1603.31,-70.56 1612.63,-75.59 1613.74,-68.68"/>
</g>
<!-- Node24&#45;&gt;Node10 -->
<g id="edge16" class="edge">
<title>Node24&#45;&gt;Node10</title>
<path fill="none" stroke="midnightblue" d="M1991.34,-117.97C2002.73,-115.67 2015.33,-113.42 2027,-112 2116.71,-101.05 2742.74,-76.35 2931.96,-69.06"/>
<polygon fill="midnightblue" stroke="midnightblue" points="2932.09,-72.56 2941.95,-68.68 2931.82,-65.57 2932.09,-72.56"/>
</g>
<!-- Node25&#45;&gt;Node6 -->
<g id="edge18" class="edge">
<title>Node25&#45;&gt;Node6</title>
<path fill="none" stroke="midnightblue" d="M1809.87,-179.36C1814.46,-160.67 1825.34,-128.24 1848,-112 1960.8,-31.14 2410.62,-14.69 2536.26,-11.64"/>
<polygon fill="midnightblue" stroke="midnightblue" points="2536.48,-15.14 2546.4,-11.41 2536.32,-8.14 2536.48,-15.14"/>
</g>
<!-- Node25&#45;&gt;Node7 -->
<g id="edge19" class="edge">
<title>Node25&#45;&gt;Node7</title>
<path fill="none" stroke="midnightblue" d="M1794.59,-179.48C1773.71,-155.9 1731.68,-108.43 1709.49,-83.36"/>
<polygon fill="midnightblue" stroke="midnightblue" points="1712.03,-80.96 1702.78,-75.79 1706.79,-85.6 1712.03,-80.96"/>
</g>
<!-- Node25&#45;&gt;Node8 -->
<g id="edge20" class="edge">
<title>Node25&#45;&gt;Node8</title>
<path fill="none" stroke="midnightblue" d="M1741.86,-182.47C1669.56,-170.24 1553.82,-150.64 1483.46,-138.73"/>
<polygon fill="midnightblue" stroke="midnightblue" points="1483.87,-135.25 1473.42,-137.03 1482.7,-142.15 1483.87,-135.25"/>
</g>
<!-- Node25&#45;&gt;Node24 -->
<g id="edge21" class="edge">
<title>Node25&#45;&gt;Node24</title>
<path fill="none" stroke="midnightblue" d="M1838.9,-179.4C1864.69,-167.99 1900.67,-152.08 1925.51,-141.1"/>
<polygon fill="midnightblue" stroke="midnightblue" points="1927.03,-144.25 1934.76,-137.01 1924.2,-137.85 1927.03,-144.25"/>
</g>
<!-- Node25&#45;&gt;Node26 -->
<g id="edge22" class="edge">
<title>Node25&#45;&gt;Node26</title>
<path fill="none" stroke="midnightblue" d="M1872.32,-190.69C2119.64,-180.03 2997.21,-142.23 3248.38,-131.41"/>
<polygon fill="midnightblue" stroke="midnightblue" points="3248.62,-134.91 3258.46,-130.98 3248.32,-127.91 3248.62,-134.91"/>
</g>
<!-- Node25&#45;&gt;Node33 -->
<g id="edge29" class="edge">
<title>Node25&#45;&gt;Node33</title>
<path fill="none" stroke="midnightblue" d="M1766.09,-179.43C1708.59,-160.35 1600.23,-126.95 1505,-112 1331.87,-84.82 788.42,-71.57 617.79,-68.01"/>
<polygon fill="midnightblue" stroke="midnightblue" points="617.64,-64.51 607.57,-67.8 617.49,-71.51 617.64,-64.51"/>
</g>
<!-- Node25&#45;&gt;Node34 -->
<g id="edge31" class="edge">
<title>Node25&#45;&gt;Node34</title>
<path fill="none" stroke="midnightblue" d="M1872.16,-179.48C1928.4,-167.37 2008.44,-150.14 2059.55,-139.14"/>
<polygon fill="midnightblue" stroke="midnightblue" points="2060.33,-142.55 2069.37,-137.03 2058.86,-135.71 2060.33,-142.55"/>
</g>
<!-- Node26&#45;&gt;Node6 -->
<g id="edge27" class="edge">
<title>Node26&#45;&gt;Node6</title>
<path fill="none" stroke="midnightblue" d="M3316.44,-112.28C3316.1,-95.89 3312.74,-69.49 3296,-56 3241.41,-12.02 2735.93,-10.47 2601.63,-10.84"/>
<polygon fill="midnightblue" stroke="midnightblue" points="2601.54,-7.34 2591.56,-10.87 2601.57,-14.34 2601.54,-7.34"/>
</g>
<!-- Node26&#45;&gt;Node10 -->
<g id="edge28" class="edge">
<title>Node26&#45;&gt;Node10</title>
<path fill="none" stroke="midnightblue" d="M3258.26,-114.73C3253.44,-113.79 3248.64,-112.87 3244,-112 3173.83,-98.82 3092.67,-84.88 3040.4,-76.07"/>
<polygon fill="midnightblue" stroke="midnightblue" points="3040.79,-72.58 3030.35,-74.37 3039.63,-79.48 3040.79,-72.58"/>
</g>
<!-- Node26&#45;&gt;Node22 -->
<g id="edge26" class="edge">
<title>Node26&#45;&gt;Node22</title>
<path fill="none" stroke="midnightblue" d="M3302.49,-112.4C3294.04,-103.58 3283.12,-92.18 3274.34,-83.02"/>
<polygon fill="midnightblue" stroke="midnightblue" points="3276.74,-80.46 3267.29,-75.66 3271.68,-85.3 3276.74,-80.46"/>
</g>
<!-- Node26&#45;&gt;Node27 -->
<g id="edge23" class="edge">
<title>Node26&#45;&gt;Node27</title>
<path fill="none" stroke="midnightblue" d="M3373.55,-121.58C3509.81,-109.93 3849.68,-80.88 3969.43,-70.64"/>
<polygon fill="midnightblue" stroke="midnightblue" points="3969.99,-74.1 3979.66,-69.76 3969.4,-67.13 3969.99,-74.1"/>
</g>
<!-- Node28 -->
<g id="node18" class="node">
<title>Node28</title>
<g id="a_node18"><a xlink:title=" ">
<polygon fill="white" stroke="#bfbfbf" points="2417,-56.5 2417,-75.5 2469,-75.5 2469,-56.5 2417,-56.5"/>
<text text-anchor="middle" x="2443" y="-63.5" font-family="Helvetica,sans-Serif" font-size="10.00">cassert</text>
</a>
</g>
</g>
<!-- Node26&#45;&gt;Node28 -->
<g id="edge24" class="edge">
<title>Node26&#45;&gt;Node28</title>
<path fill="none" stroke="midnightblue" d="M3258.38,-122.57C3092.23,-111.25 2615.37,-78.75 2479.52,-69.49"/>
<polygon fill="midnightblue" stroke="midnightblue" points="2479.46,-65.98 2469.25,-68.79 2478.99,-72.96 2479.46,-65.98"/>
</g>
<!-- Node29 -->
<g id="node19" class="node">
<title>Node29</title>
<g id="a_node19"><a xlink:title=" ">
<polygon fill="white" stroke="#bfbfbf" points="4139.5,-56.5 4139.5,-75.5 4186.5,-75.5 4186.5,-56.5 4139.5,-56.5"/>
<text text-anchor="middle" x="4163" y="-63.5" font-family="Helvetica,sans-Serif" font-size="10.00">cmath</text>
</a>
</g>
</g>
<!-- Node26&#45;&gt;Node29 -->
<g id="edge25" class="edge">
<title>Node26&#45;&gt;Node29</title>
<path fill="none" stroke="midnightblue" d="M3373.83,-122.8C3498.14,-114.78 3800.1,-95.01 4053,-76 4078.62,-74.07 4107.57,-71.7 4129.34,-69.87"/>
<polygon fill="midnightblue" stroke="midnightblue" points="4129.73,-73.35 4139.4,-69.02 4129.14,-66.37 4129.73,-73.35"/>
</g>
<!-- Node33&#45;&gt;Node6 -->
<g id="edge30" class="edge">
<title>Node33&#45;&gt;Node6</title>
<path fill="none" stroke="midnightblue" d="M607.84,-63.87C871.48,-56.76 2299.5,-18.27 2535.86,-11.89"/>
<polygon fill="midnightblue" stroke="midnightblue" points="2536.3,-15.38 2546.2,-11.61 2536.11,-8.39 2536.3,-15.38"/>
</g>
<!-- Node34&#45;&gt;Node4 -->
<g id="edge32" class="edge">
<title>Node34&#45;&gt;Node4</title>
<path fill="none" stroke="midnightblue" d="M2139.8,-117.98C2177.56,-107.53 2241.66,-89.79 2283.41,-78.23"/>
<polygon fill="midnightblue" stroke="midnightblue" points="2284.55,-81.55 2293.25,-75.51 2282.68,-74.8 2284.55,-81.55"/>
</g>
<!-- Node34&#45;&gt;Node7 -->
<g id="edge35" class="edge">
<title>Node34&#45;&gt;Node7</title>
<path fill="none" stroke="midnightblue" d="M2062.65,-117.97C2051.03,-115.92 2038.57,-113.81 2027,-112 1918.3,-95.03 1788.99,-78.57 1728.86,-71.13"/>
<polygon fill="midnightblue" stroke="midnightblue" points="1729.15,-67.64 1718.8,-69.89 1728.3,-74.59 1729.15,-67.64"/>
</g>
<!-- Node34&#45;&gt;Node33 -->
<g id="edge36" class="edge">
<title>Node34&#45;&gt;Node33</title>
<path fill="none" stroke="midnightblue" d="M2067.45,-117.95C2054.54,-115.62 2040.23,-113.37 2027,-112 1745.29,-82.91 844.15,-70.34 617.91,-67.59"/>
<polygon fill="midnightblue" stroke="midnightblue" points="617.69,-64.09 607.65,-67.47 617.61,-71.09 617.69,-64.09"/>
</g>
<!-- Node35 -->
<g id="node22" class="node">
<title>Node35</title>
<g id="a_node22"><a xlink:title=" ">
<polygon fill="white" stroke="#bfbfbf" points="3807,-56.5 3807,-75.5 3839,-75.5 3839,-56.5 3807,-56.5"/>
<text text-anchor="middle" x="3823" y="-63.5" font-family="Helvetica,sans-Serif" font-size="10.00">set</text>
</a>
</g>
</g>
<!-- Node34&#45;&gt;Node35 -->
<g id="edge33" class="edge">
<title>Node34&#45;&gt;Node35</title>
<path fill="none" stroke="midnightblue" d="M2182.27,-122.69C2245.07,-119.51 2337.97,-115.03 2419,-112 2989.05,-90.67 3132.3,-105.16 3702,-76 3734.66,-74.33 3772.2,-71.37 3796.69,-69.31"/>
<polygon fill="midnightblue" stroke="midnightblue" points="3797.3,-72.77 3806.97,-68.43 3796.7,-65.8 3797.3,-72.77"/>
</g>
<!-- Node17 -->
<g id="node23" class="node">
<title>Node17</title>
<g id="a_node23"><a xlink:title=" ">
<polygon fill="white" stroke="#bfbfbf" points="3649,-56.5 3649,-75.5 3693,-75.5 3693,-56.5 3649,-56.5"/>
<text text-anchor="middle" x="3671" y="-63.5" font-family="Helvetica,sans-Serif" font-size="10.00">string</text>
</a>
</g>
</g>
<!-- Node34&#45;&gt;Node17 -->
<g id="edge34" class="edge">
<title>Node34&#45;&gt;Node17</title>
<path fill="none" stroke="midnightblue" d="M2182.27,-122.85C2245.08,-119.77 2337.98,-115.35 2419,-112 2904.02,-91.94 3494.95,-72.65 3638.47,-68.04"/>
<polygon fill="midnightblue" stroke="midnightblue" points="3638.88,-71.53 3648.76,-67.71 3638.66,-64.53 3638.88,-71.53"/>
</g>
<!-- Node36&#45;&gt;Node4 -->
<g id="edge38" class="edge">
<title>Node36&#45;&gt;Node4</title>
<path fill="none" stroke="midnightblue" d="M2285.82,-184.81C2292.43,-164.4 2309.06,-113.1 2318.03,-85.41"/>
<polygon fill="midnightblue" stroke="midnightblue" points="2321.41,-86.35 2321.16,-75.76 2314.75,-84.19 2321.41,-86.35"/>
</g>
<!-- Node36&#45;&gt;Node7 -->
<g id="edge40" class="edge">
<title>Node36&#45;&gt;Node7</title>
<path fill="none" stroke="midnightblue" d="M2274.53,-184.72C2255.72,-165.45 2210.59,-120.46 2191,-112 2107.51,-75.94 1826.31,-68.76 1728.71,-67.34"/>
<polygon fill="midnightblue" stroke="midnightblue" points="1728.57,-63.84 1718.52,-67.21 1728.48,-70.84 1728.57,-63.84"/>
</g>
<!-- Node36&#45;&gt;Node10 -->
<g id="edge42" class="edge">
<title>Node36&#45;&gt;Node10</title>
<path fill="none" stroke="midnightblue" d="M2320.06,-184.93C2329.18,-182.9 2338.93,-180.81 2348,-179 2438.72,-160.92 2467.77,-178.96 2553,-143 2574.71,-133.84 2574.03,-120.51 2596,-112 2655.95,-88.76 2839.38,-75.33 2931.71,-69.88"/>
<polygon fill="midnightblue" stroke="midnightblue" points="2931.92,-73.37 2941.7,-69.3 2931.51,-66.38 2931.92,-73.37"/>
</g>
<!-- Node36&#45;&gt;Node24 -->
<g id="edge41" class="edge">
<title>Node36&#45;&gt;Node24</title>
<path fill="none" stroke="midnightblue" d="M2239.51,-184.94C2188.58,-174.91 2101.66,-157.78 2027,-143 2020.44,-141.7 2013.55,-140.34 2006.74,-138.98"/>
<polygon fill="midnightblue" stroke="midnightblue" points="2007.34,-135.53 1996.84,-137.02 2005.97,-142.4 2007.34,-135.53"/>
</g>
<!-- Node36&#45;&gt;Node17 -->
<g id="edge39" class="edge">
<title>Node36&#45;&gt;Node17</title>
<path fill="none" stroke="midnightblue" d="M2333.64,-186.69C2394.56,-178.14 2499.79,-162.23 2589,-143 2641.17,-131.75 2652.27,-120.18 2705,-112 2890.93,-83.17 3491.8,-70.33 3638.48,-67.58"/>
<polygon fill="midnightblue" stroke="midnightblue" points="3638.69,-71.07 3648.62,-67.39 3638.56,-64.08 3638.69,-71.07"/>
</g>
<!-- Node51&#45;&gt;Node7 -->
<g id="edge47" class="edge">
<title>Node51&#45;&gt;Node7</title>
<path fill="none" stroke="midnightblue" d="M906.67,-246.21C919.82,-215.27 955.62,-142.39 1012,-112 1070.79,-80.31 1545.45,-81.6 1612,-76 1628.15,-74.64 1646.04,-72.75 1661.05,-71.05"/>
<polygon fill="midnightblue" stroke="midnightblue" points="1661.88,-74.48 1671.42,-69.86 1661.08,-67.53 1661.88,-74.48"/>
</g>
<!-- Node51&#45;&gt;Node9 -->
<g id="edge46" class="edge">
<title>Node51&#45;&gt;Node9</title>
<path fill="none" stroke="midnightblue" d="M899.42,-246.32C896.96,-216.22 896.04,-145.97 936,-112 983.01,-72.04 1424.95,-67.53 1548.85,-67.05"/>
<polygon fill="midnightblue" stroke="midnightblue" points="1548.86,-70.55 1558.85,-67.02 1548.84,-63.55 1548.86,-70.55"/>
</g>
<!-- Node51&#45;&gt;Node24 -->
<g id="edge48" class="edge">
<title>Node51&#45;&gt;Node24</title>
<path fill="none" stroke="midnightblue" d="M953.85,-246.44C1025.58,-227.93 1158.02,-195.77 1273,-179 1492.08,-147.04 1753.93,-134.84 1879.56,-130.57"/>
<polygon fill="midnightblue" stroke="midnightblue" points="1879.95,-134.06 1889.83,-130.23 1879.72,-127.06 1879.95,-134.06"/>
</g>
<!-- Node44&#45;&gt;Node3 -->
<g id="edge54" class="edge">
<title>Node44&#45;&gt;Node3</title>
<path fill="none" stroke="midnightblue" d="M1314.29,-184.87C1284.44,-173.52 1231.83,-153.52 1197.97,-140.65"/>
<polygon fill="midnightblue" stroke="midnightblue" points="1199.12,-137.35 1188.53,-137.06 1196.63,-143.89 1199.12,-137.35"/>
</g>
<!-- Node45&#45;&gt;Node3 -->
<g id="edge58" class="edge">
<title>Node45&#45;&gt;Node3</title>
<path fill="none" stroke="midnightblue" d="M682.33,-252C722.54,-242.03 791.14,-224.95 850,-210 952.05,-184.08 1072.47,-152.84 1130.8,-137.67"/>
<polygon fill="midnightblue" stroke="midnightblue" points="1131.82,-141.02 1140.62,-135.11 1130.06,-134.25 1131.82,-141.02"/>
</g>
<!-- Node45&#45;&gt;Node7 -->
<g id="edge59" class="edge">
<title>Node45&#45;&gt;Node7</title>
<path fill="none" stroke="midnightblue" d="M671.01,-251.95C696.45,-242.34 738.55,-225.98 774,-210 862.43,-170.14 875.28,-137.01 969,-112 1107.27,-75.1 1469.37,-87.72 1612,-76 1628.16,-74.67 1646.04,-72.79 1661.06,-71.08"/>
<polygon fill="midnightblue" stroke="midnightblue" points="1661.89,-74.51 1671.42,-69.89 1661.08,-67.56 1661.89,-74.51"/>
</g>
<!-- Node43 -->
<g id="node28" class="node">
<title>Node43</title>
<g id="a_node28"><a xlink:title=" ">
<polygon fill="white" stroke="#bfbfbf" points="204.5,-118 204.5,-137 251.5,-137 251.5,-118 204.5,-118"/>
<text text-anchor="middle" x="228" y="-125" font-family="Helvetica,sans-Serif" font-size="10.00">omp.h</text>
</a>
</g>
</g>
<!-- Node45&#45;&gt;Node43 -->
<g id="edge56" class="edge">
<title>Node45&#45;&gt;Node43</title>
<path fill="none" stroke="midnightblue" d="M604.08,-251.93C568.39,-243.96 517.37,-230.25 476,-210 454.84,-199.64 454.38,-188.89 433,-179 375.95,-152.62 303.36,-138.92 261.63,-132.75"/>
<polygon fill="midnightblue" stroke="midnightblue" points="262.11,-129.29 251.72,-131.34 261.13,-136.22 262.11,-129.29"/>
</g>
<!-- Node46 -->
<g id="node29" class="node">
<title>Node46</title>
<g id="a_node29"><a xlink:title=" ">
<polygon fill="white" stroke="#bfbfbf" points="370,-185 370,-204 424,-204 424,-185 370,-185"/>
<text text-anchor="middle" x="397" y="-192" font-family="Helvetica,sans-Serif" font-size="10.00">sched.h</text>
</a>
</g>
</g>
<!-- Node45&#45;&gt;Node46 -->
<g id="edge57" class="edge">
<title>Node45&#45;&gt;Node46</title>
<path fill="none" stroke="midnightblue" d="M607.02,-251.97C564.45,-242.8 496.07,-227.2 438,-210 435.22,-209.18 432.35,-208.27 429.48,-207.33"/>
<polygon fill="midnightblue" stroke="midnightblue" points="430.44,-203.96 419.85,-204.05 428.19,-210.59 430.44,-203.96"/>
</g>
<!-- Node42 -->
<g id="node30" class="node">
<title>Node42</title>
<g id="a_node30"><a xlink:href="numa_8h.html" target="_top" xlink:title=" ">
<polygon fill="white" stroke="black" points="218,-185 218,-204 314,-204 314,-185 218,-185"/>
<text text-anchor="middle" x="266" y="-192" font-family="Helvetica,sans-Serif" font-size="10.00">core/util/numa.h</text>
</a>
</g>
</g>
<!-- Node45&#45;&gt;Node42 -->
<g id="edge60" class="edge">
<title>Node45&#45;&gt;Node42</title>
<path fill="none" stroke="midnightblue" d="M597.67,-251.94C527.04,-239.92 398.84,-218.1 324.2,-205.4"/>
<polygon fill="midnightblue" stroke="midnightblue" points="324.48,-201.9 314.03,-203.67 323.3,-208.8 324.48,-201.9"/>
</g>
<!-- Node42&#45;&gt;Node43 -->
<g id="edge61" class="edge">
<title>Node42&#45;&gt;Node43</title>
<path fill="none" stroke="midnightblue" d="M260.88,-184.73C255.06,-174.79 245.44,-158.34 238.11,-145.79"/>
<polygon fill="midnightblue" stroke="midnightblue" points="241.11,-143.99 233.04,-137.13 235.07,-147.53 241.11,-143.99"/>
</g>
<!-- Node53&#45;&gt;Node5 -->
<g id="edge69" class="edge">
<title>Node53&#45;&gt;Node5</title>
<path fill="none" stroke="midnightblue" d="M2724.33,-321.29C2752.48,-315 2784.54,-302.37 2802,-277 2816.79,-255.5 2795.56,-227.92 2778.55,-210.98"/>
<polygon fill="midnightblue" stroke="midnightblue" points="2780.84,-208.34 2771.17,-204.01 2776.04,-213.43 2780.84,-208.34"/>
</g>
<!-- Node53&#45;&gt;Node7 -->
<g id="edge75" class="edge">
<title>Node53&#45;&gt;Node7</title>
<path fill="none" stroke="midnightblue" d="M2615.86,-327.17C2476.18,-325.73 2106.52,-318.03 1992,-277 1969.48,-268.93 1970.22,-254.85 1948,-246 1896.26,-225.4 1737.17,-251.47 1700,-210 1669.14,-175.57 1680.51,-115.6 1689.02,-85.44"/>
<polygon fill="midnightblue" stroke="midnightblue" points="1692.4,-86.37 1691.94,-75.78 1685.7,-84.34 1692.4,-86.37"/>
</g>
<!-- Node53&#45;&gt;Node9 -->
<g id="edge68" class="edge">
<title>Node53&#45;&gt;Node9</title>
<path fill="none" stroke="midnightblue" d="M2615.72,-326.14C2451.5,-321.73 1961.62,-306.42 1805,-277 1793.12,-274.77 1606.33,-218.76 1598,-210 1565.92,-176.26 1571.52,-115.94 1576.95,-85.57"/>
<polygon fill="midnightblue" stroke="midnightblue" points="1580.43,-86 1578.95,-75.51 1573.57,-84.63 1580.43,-86"/>
</g>
<!-- Node53&#45;&gt;Node10 -->
<g id="edge94" class="edge">
<title>Node53&#45;&gt;Node10</title>
<path fill="none" stroke="midnightblue" d="M2694.97,-318.84C2713.28,-311.02 2736.82,-297.55 2748,-277 2754.58,-264.9 2752.12,-259.15 2748,-246 2742.18,-227.41 2728.82,-228.59 2723,-210 2718.88,-196.85 2714.14,-189.55 2723,-179 2782.49,-108.16 2848.96,-191.07 2928,-143 2950.76,-129.16 2967.78,-102.8 2977.31,-85.06"/>
<polygon fill="midnightblue" stroke="midnightblue" points="2980.62,-86.27 2982.04,-75.77 2974.38,-83.09 2980.62,-86.27"/>
</g>
<!-- Node53&#45;&gt;Node20 -->
<g id="edge76" class="edge">
<title>Node53&#45;&gt;Node20</title>
<path fill="none" stroke="midnightblue" d="M2615.96,-319.66C2534.51,-307.84 2380.31,-285.47 2290.89,-272.5"/>
<polygon fill="midnightblue" stroke="midnightblue" points="2291.25,-269.01 2280.85,-271.04 2290.24,-275.94 2291.25,-269.01"/>
</g>
<!-- Node53&#45;&gt;Node23 -->
<g id="edge73" class="edge">
<title>Node53&#45;&gt;Node23</title>
<path fill="none" stroke="midnightblue" d="M2615.67,-321.29C2587.52,-315 2555.46,-302.37 2538,-277 2530.19,-265.65 2534.49,-259.32 2538,-246 2546.73,-212.9 2549.16,-200.24 2576,-179 2595.92,-163.24 2660.15,-147.16 2704.48,-137.5"/>
<polygon fill="midnightblue" stroke="midnightblue" points="2705.4,-140.88 2714.45,-135.37 2703.94,-134.04 2705.4,-140.88"/>
</g>
<!-- Node53&#45;&gt;Node24 -->
<g id="edge77" class="edge">
<title>Node53&#45;&gt;Node24</title>
<path fill="none" stroke="midnightblue" d="M2615.91,-325.61C2488.25,-320.71 2176.09,-305.86 2139,-277 2102.5,-248.6 2137,-211.4 2104,-179 2089.15,-164.42 2039.36,-149.42 2001.18,-139.59"/>
<polygon fill="midnightblue" stroke="midnightblue" points="2001.81,-136.14 1991.25,-137.09 2000.09,-142.93 2001.81,-136.14"/>
</g>
<!-- Node53&#45;&gt;Node26 -->
<g id="edge89" class="edge">
<title>Node53&#45;&gt;Node26</title>
<path fill="none" stroke="midnightblue" d="M2724.13,-324.67C2825.49,-318.83 3039.93,-303.66 3109,-277 3185.34,-247.53 3259.45,-183.1 3294.68,-149.63"/>
<polygon fill="midnightblue" stroke="midnightblue" points="3297.22,-152.05 3302,-142.59 3292.36,-147 3297.22,-152.05"/>
</g>
<!-- Node53&#45;&gt;Node27 -->
<g id="edge66" class="edge">
<title>Node53&#45;&gt;Node27</title>
<path fill="none" stroke="midnightblue" d="M2724.13,-326.68C2925.41,-323.38 3623.9,-309.68 3718,-277 3725.94,-274.24 3926.82,-128.79 3991.88,-81.61"/>
<polygon fill="midnightblue" stroke="midnightblue" points="3994.08,-84.33 4000.12,-75.62 3989.97,-78.66 3994.08,-84.33"/>
</g>
<!-- Node53&#45;&gt;Node28 -->
<g id="edge67" class="edge">
<title>Node53&#45;&gt;Node28</title>
<path fill="none" stroke="midnightblue" d="M2615.85,-320.49C2581.62,-313.86 2537.98,-301.15 2506,-277 2449.34,-234.21 2439.16,-211.08 2419,-143 2415.09,-129.79 2415.66,-125.37 2419,-112 2421.44,-102.25 2426.44,-92.29 2431.24,-84.23"/>
<polygon fill="midnightblue" stroke="midnightblue" points="2434.21,-86.08 2436.63,-75.77 2428.31,-82.32 2434.21,-86.08"/>
</g>
<!-- Node53&#45;&gt;Node35 -->
<g id="edge70" class="edge">
<title>Node53&#45;&gt;Node35</title>
<path fill="none" stroke="midnightblue" d="M2724.16,-327.48C2922.22,-327.06 3600.05,-322.28 3685,-277 3762.91,-235.47 3803.88,-128.36 3817.63,-85.31"/>
<polygon fill="midnightblue" stroke="midnightblue" points="3821.02,-86.2 3820.61,-75.61 3814.33,-84.15 3821.02,-86.2"/>
</g>
<!-- Node53&#45;&gt;Node17 -->
<g id="edge72" class="edge">
<title>Node53&#45;&gt;Node17</title>
<path fill="none" stroke="midnightblue" d="M2724.25,-327.98C2919.37,-329.28 3578.09,-329.67 3655,-277 3717.17,-234.42 3711.64,-185.26 3694,-112 3691.69,-102.42 3686.98,-92.58 3682.42,-84.56"/>
<polygon fill="midnightblue" stroke="midnightblue" points="3685.29,-82.54 3677.1,-75.81 3679.31,-86.17 3685.29,-82.54"/>
</g>
<!-- Node53&#45;&gt;Node44 -->
<g id="edge95" class="edge">
<title>Node53&#45;&gt;Node44</title>
<path fill="none" stroke="midnightblue" d="M2615.89,-326.89C2475.86,-324.77 2090.36,-315.61 1772,-277 1629.47,-259.71 1463.25,-224.24 1383.86,-206.34"/>
<polygon fill="midnightblue" stroke="midnightblue" points="1384.23,-202.84 1373.7,-204.04 1382.68,-209.66 1384.23,-202.84"/>
</g>
<!-- Node19 -->
<g id="node33" class="node">
<title>Node19</title>
<g id="a_node33"><a xlink:title=" ">
<polygon fill="white" stroke="#bfbfbf" points="2636,-56.5 2636,-75.5 2692,-75.5 2692,-56.5 2636,-56.5"/>
<text text-anchor="middle" x="2664" y="-63.5" font-family="Helvetica,sans-Serif" font-size="10.00">sstream</text>
</a>
</g>
</g>
<!-- Node53&#45;&gt;Node19 -->
<g id="edge71" class="edge">
<title>Node53&#45;&gt;Node19</title>
<path fill="none" stroke="midnightblue" d="M2687.04,-318.96C2701.74,-310.54 2721.99,-296.16 2731,-277 2736.86,-264.53 2736.68,-258.55 2731,-246 2721,-223.91 2700,-232.09 2690,-210 2684.32,-197.45 2682.04,-190.25 2690,-179 2717.77,-139.76 2764.23,-182.24 2792,-143 2799.96,-131.75 2799.96,-123.24 2792,-112 2771.84,-83.54 2732.19,-72.95 2702.33,-69.08"/>
<polygon fill="midnightblue" stroke="midnightblue" points="2702.55,-65.58 2692.23,-67.97 2701.79,-72.54 2702.55,-65.58"/>
</g>
<!-- Node48 -->
<g id="node34" class="node">
<title>Node48</title>
<g id="a_node34"><a xlink:title=" ">
<polygon fill="white" stroke="#bfbfbf" points="3908.5,-185 3908.5,-204 4001.5,-204 4001.5,-185 3908.5,-185"/>
<text text-anchor="middle" x="3955" y="-192" font-family="Helvetica,sans-Serif" font-size="10.00">unordered_map</text>
</a>
</g>
</g>
<!-- Node53&#45;&gt;Node48 -->
<g id="edge74" class="edge">
<title>Node53&#45;&gt;Node48</title>
<path fill="none" stroke="midnightblue" d="M2724.1,-327.54C2915.92,-327.3 3562.78,-323 3764,-277 3780.69,-273.19 3877.73,-230.18 3926.72,-208.23"/>
<polygon fill="midnightblue" stroke="midnightblue" points="3928.43,-211.3 3936.12,-204.01 3925.57,-204.91 3928.43,-211.3"/>
</g>
<!-- Node54 -->
<g id="node35" class="node">
<title>Node54</title>
<g id="a_node35"><a xlink:href="new__agent__event_8h.html" target="_top" xlink:title=" ">
<polygon fill="white" stroke="red" points="1814.5,-246.5 1814.5,-276.5 1939.5,-276.5 1939.5,-246.5 1814.5,-246.5"/>
<text text-anchor="start" x="1822.5" y="-264.5" font-family="Helvetica,sans-Serif" font-size="10.00">core/agent/new_agent</text>
<text text-anchor="middle" x="1877" y="-253.5" font-family="Helvetica,sans-Serif" font-size="10.00">_event.h</text>
</a>
</g>
</g>
<!-- Node53&#45;&gt;Node54 -->
<g id="edge78" class="edge">
<title>Node53&#45;&gt;Node54</title>
<path fill="none" stroke="midnightblue" d="M2615.9,-325.82C2496.18,-321.64 2199.95,-308.72 1954,-277 1952.52,-276.81 1951.03,-276.61 1949.53,-276.4"/>
<polygon fill="midnightblue" stroke="midnightblue" points="1949.93,-272.92 1939.52,-274.9 1948.89,-279.84 1949.93,-272.92"/>
</g>
<!-- Node55 -->
<g id="node36" class="node">
<title>Node55</title>
<g id="a_node36"><a xlink:href="inline__vector_8h.html" target="_top" xlink:title=" ">
<polygon fill="white" stroke="red" points="2428,-112.5 2428,-142.5 2544,-142.5 2544,-112.5 2428,-112.5"/>
<text text-anchor="start" x="2436" y="-130.5" font-family="Helvetica,sans-Serif" font-size="10.00">core/container/inline</text>
<text text-anchor="middle" x="2486" y="-119.5" font-family="Helvetica,sans-Serif" font-size="10.00">_vector.h</text>
</a>
</g>
</g>
<!-- Node53&#45;&gt;Node55 -->
<g id="edge88" class="edge">
<title>Node53&#45;&gt;Node55</title>
<path fill="none" stroke="midnightblue" d="M2615.99,-320.06C2586.88,-313.38 2552.43,-300.77 2530,-277 2497.65,-242.71 2488.97,-185.73 2486.72,-153.23"/>
<polygon fill="midnightblue" stroke="midnightblue" points="2490.19,-152.63 2486.16,-142.83 2483.2,-153 2490.19,-152.63"/>
</g>
<!-- Node62 -->
<g id="node37" class="node">
<title>Node62</title>
<g id="a_node37"><a xlink:href="interaction__force_8h.html" target="_top" xlink:title=" ">
<polygon fill="white" stroke="red" points="2968,-252 2968,-271 3100,-271 3100,-252 2968,-252"/>
<text text-anchor="middle" x="3034" y="-259" font-family="Helvetica,sans-Serif" font-size="10.00">core/interaction_force.h</text>
</a>
</g>
</g>
<!-- Node53&#45;&gt;Node62 -->
<g id="edge90" class="edge">
<title>Node53&#45;&gt;Node62</title>
<path fill="none" stroke="midnightblue" d="M2717.96,-318.94C2784.48,-307.06 2904.59,-285.61 2976.05,-272.85"/>
<polygon fill="midnightblue" stroke="midnightblue" points="2976.99,-276.24 2986.22,-271.03 2975.76,-269.34 2976.99,-276.24"/>
</g>
<!-- Node63 -->
<g id="node38" class="node">
<title>Node63</title>
<g id="a_node38"><a xlink:href="shape_8h.html" target="_top" xlink:title=" ">
<polygon fill="white" stroke="black" points="2840.5,-118 2840.5,-137 2919.5,-137 2919.5,-118 2840.5,-118"/>
<text text-anchor="middle" x="2880" y="-125" font-family="Helvetica,sans-Serif" font-size="10.00">core/shape.h</text>
</a>
</g>
</g>
<!-- Node53&#45;&gt;Node63 -->
<g id="edge92" class="edge">
<title>Node53&#45;&gt;Node63</title>
<path fill="none" stroke="midnightblue" d="M2652.96,-318.96C2638.26,-310.54 2618.01,-296.16 2609,-277 2603.14,-264.53 2603.13,-258.47 2609,-246 2628.89,-203.73 2648.46,-200.38 2690,-179 2734.67,-156.01 2790.78,-142.76 2830.41,-135.65"/>
<polygon fill="midnightblue" stroke="midnightblue" points="2831.11,-139.08 2840.37,-133.93 2829.92,-132.19 2831.11,-139.08"/>
</g>
<!-- Node64 -->
<g id="node39" class="node">
<title>Node64</title>
<g id="a_node39"><a xlink:href="macros_8h.html" target="_top" xlink:title=" ">
<polygon fill="white" stroke="black" points="2618,-252 2618,-271 2722,-271 2722,-252 2618,-252"/>
<text text-anchor="middle" x="2670" y="-259" font-family="Helvetica,sans-Serif" font-size="10.00">core/util/macros.h</text>
</a>
</g>
</g>
<!-- Node53&#45;&gt;Node64 -->
<g id="edge93" class="edge">
<title>Node53&#45;&gt;Node64</title>
<path fill="none" stroke="midnightblue" d="M2670,-318.73C2670,-309.18 2670,-293.62 2670,-281.28"/>
<polygon fill="midnightblue" stroke="midnightblue" points="2673.5,-281.13 2670,-271.13 2666.5,-281.13 2673.5,-281.13"/>
</g>
<!-- Node65 -->
<g id="node40" class="node">
<title>Node65</title>
<g id="a_node40"><a xlink:href="type_8h.html" target="_top" xlink:title=" ">
<polygon fill="white" stroke="red" points="2922,-185 2922,-204 3012,-204 3012,-185 2922,-185"/>
<text text-anchor="middle" x="2967" y="-192" font-family="Helvetica,sans-Serif" font-size="10.00">core/util/type.h</text>
</a>
</g>
</g>
<!-- Node53&#45;&gt;Node65 -->
<g id="edge96" class="edge">
<title>Node53&#45;&gt;Node65</title>
<path fill="none" stroke="midnightblue" d="M2700.27,-318.96C2730.8,-309.94 2779.01,-294.62 2819,-277 2865.06,-256.7 2915.87,-227 2944.37,-209.62"/>
<polygon fill="midnightblue" stroke="midnightblue" points="2946.45,-212.44 2953.14,-204.22 2942.78,-206.48 2946.45,-212.44"/>
</g>
<!-- Node54&#45;&gt;Node9 -->
<g id="edge79" class="edge">
<title>Node54&#45;&gt;Node9</title>
<path fill="none" stroke="midnightblue" d="M1814.38,-248.41C1740.04,-233.99 1625.79,-211.62 1624,-210 1588.28,-177.53 1581.77,-116.63 1580.88,-85.85"/>
<polygon fill="midnightblue" stroke="midnightblue" points="1584.38,-85.6 1580.76,-75.64 1577.38,-85.68 1584.38,-85.6"/>
</g>
<!-- Node54&#45;&gt;Node52 -->
<g id="edge80" class="edge">
<title>Node54&#45;&gt;Node52</title>
<path fill="none" stroke="midnightblue" d="M1814.16,-250.42C1727.48,-236.5 1574.24,-211.91 1506.2,-200.99"/>
<polygon fill="midnightblue" stroke="midnightblue" points="1506.46,-197.49 1496.03,-199.36 1505.35,-204.4 1506.46,-197.49"/>
</g>
<!-- Node54&#45;&gt;Node55 -->
<g id="edge81" class="edge">
<title>Node54&#45;&gt;Node55</title>
<path fill="none" stroke="midnightblue" d="M1933.47,-246.43C2001.84,-229.59 2120.55,-200.89 2223,-179 2288.99,-164.9 2364.7,-150.55 2417.89,-140.77"/>
<polygon fill="midnightblue" stroke="midnightblue" points="2418.68,-144.19 2427.88,-138.94 2417.41,-137.3 2418.68,-144.19"/>
</g>
<!-- Node55&#45;&gt;Node7 -->
<g id="edge86" class="edge">
<title>Node55&#45;&gt;Node7</title>
<path fill="none" stroke="midnightblue" d="M2427.85,-118.12C2411.14,-115.9 2392.87,-113.67 2376,-112 2127.99,-87.49 1827.8,-72.88 1728.6,-68.44"/>
<polygon fill="midnightblue" stroke="midnightblue" points="1728.71,-64.95 1718.57,-68 1728.4,-71.94 1728.71,-64.95"/>
</g>
<!-- Node55&#45;&gt;Node9 -->
<g id="edge84" class="edge">
<title>Node55&#45;&gt;Node9</title>
<path fill="none" stroke="midnightblue" d="M2427.8,-121.64C2391.14,-118.66 2342.82,-114.88 2300,-112 2016.63,-92.96 1945.02,-99.69 1662,-76 1646,-74.66 1628.27,-72.74 1613.49,-71.02"/>
<polygon fill="midnightblue" stroke="midnightblue" points="1613.66,-67.51 1603.32,-69.81 1612.83,-74.46 1613.66,-67.51"/>
</g>
<!-- Node55&#45;&gt;Node10 -->
<g id="edge87" class="edge">
<title>Node55&#45;&gt;Node10</title>
<path fill="none" stroke="midnightblue" d="M2544.08,-114.32C2548.78,-113.48 2553.46,-112.69 2558,-112 2691.69,-91.56 2850.3,-77.53 2931.75,-71.06"/>
<polygon fill="midnightblue" stroke="midnightblue" points="2932.08,-74.54 2941.77,-70.27 2931.53,-67.57 2932.08,-74.54"/>
</g>
<!-- Node55&#45;&gt;Node27 -->
<g id="edge82" class="edge">
<title>Node55&#45;&gt;Node27</title>
<path fill="none" stroke="midnightblue" d="M2544.07,-122.11C2588.19,-118.9 2650.39,-114.67 2705,-112 3212.65,-87.21 3340.22,-97.93 3848,-76 3889.39,-74.21 3936.62,-71.56 3969.73,-69.59"/>
<polygon fill="midnightblue" stroke="midnightblue" points="3970.18,-73.07 3979.96,-68.98 3969.77,-66.08 3970.18,-73.07"/>
</g>
<!-- Node55&#45;&gt;Node28 -->
<g id="edge83" class="edge">
<title>Node55&#45;&gt;Node28</title>
<path fill="none" stroke="midnightblue" d="M2475.81,-112.4C2469.63,-103.84 2461.7,-92.87 2455.18,-83.86"/>
<polygon fill="midnightblue" stroke="midnightblue" points="2457.95,-81.71 2449.26,-75.66 2452.28,-85.81 2457.95,-81.71"/>
</g>
<!-- Node55&#45;&gt;Node19 -->
<g id="edge85" class="edge">
<title>Node55&#45;&gt;Node19</title>
<path fill="none" stroke="midnightblue" d="M2528.18,-112.4C2558.81,-102.16 2599.77,-88.47 2628.67,-78.81"/>
<polygon fill="midnightblue" stroke="midnightblue" points="2629.98,-82.06 2638.36,-75.57 2627.77,-75.42 2629.98,-82.06"/>
</g>
<!-- Node62&#45;&gt;Node26 -->
<g id="edge91" class="edge">
<title>Node62&#45;&gt;Node26</title>
<path fill="none" stroke="midnightblue" d="M3052.5,-251.84C3097.75,-230.66 3214.78,-175.88 3276.52,-146.98"/>
<polygon fill="midnightblue" stroke="midnightblue" points="3278.36,-149.98 3285.94,-142.57 3275.4,-143.64 3278.36,-149.98"/>
</g>
<!-- Node65&#45;&gt;Node23 -->
<g id="edge97" class="edge">
<title>Node65&#45;&gt;Node23</title>
<path fill="none" stroke="midnightblue" d="M2938.05,-184.87C2899.34,-173.33 2830.62,-152.84 2787.55,-140"/>
<polygon fill="midnightblue" stroke="midnightblue" points="2788.3,-136.57 2777.72,-137.06 2786.3,-143.28 2788.3,-136.57"/>
</g>
<!-- Node65&#45;&gt;Node26 -->
<g id="edge98" class="edge">
<title>Node65&#45;&gt;Node26</title>
<path fill="none" stroke="midnightblue" d="M2999.99,-184.97C3008.44,-182.9 3017.53,-180.78 3026,-179 3101.77,-163.11 3189.41,-148.34 3248.35,-138.93"/>
<polygon fill="midnightblue" stroke="midnightblue" points="3248.95,-142.38 3258.28,-137.36 3247.85,-135.47 3248.95,-142.38"/>
</g>
<!-- Node65&#45;&gt;Node63 -->
<g id="edge99" class="edge">
<title>Node65&#45;&gt;Node63</title>
<path fill="none" stroke="midnightblue" d="M2955.27,-184.73C2941.05,-174.11 2916.87,-156.05 2899.76,-143.26"/>
<polygon fill="midnightblue" stroke="midnightblue" points="2901.65,-140.31 2891.55,-137.13 2897.46,-145.92 2901.65,-140.31"/>
</g>
<!-- Node66&#45;&gt;Node7 -->
<g id="edge104" class="edge">
<title>Node66&#45;&gt;Node7</title>
<path fill="none" stroke="midnightblue" d="M594.24,-503.49C578.42,-496.02 557.18,-483.74 544,-467 523.52,-440.99 520,-429.6 520,-396.5 520,-396.5 520,-396.5 520,-327.5 520,-283.3 540.23,-270.53 577,-246 639.08,-204.59 674.99,-244.8 741,-210 758.8,-200.62 757.87,-191.03 774,-179 821.42,-143.63 832.29,-128.84 889,-112 1043.21,-66.21 1451.63,-88.68 1612,-76 1628.16,-74.72 1646.05,-72.84 1661.06,-71.13"/>
<polygon fill="midnightblue" stroke="midnightblue" points="1661.89,-74.56 1671.42,-69.93 1661.08,-67.61 1661.89,-74.56"/>
</g>
<!-- Node66&#45;&gt;Node26 -->
<g id="edge106" class="edge">
<title>Node66&#45;&gt;Node26</title>
<path fill="none" stroke="midnightblue" d="M703.69,-512.22C1139.97,-512.85 3047.01,-509.87 3291,-411 3414.26,-361.05 3559,-285.99 3480,-179 3473.82,-170.63 3425.6,-156.37 3383.03,-145.13"/>
<polygon fill="midnightblue" stroke="midnightblue" points="3383.77,-141.71 3373.21,-142.57 3382,-148.48 3383.77,-141.71"/>
</g>
<!-- Node66&#45;&gt;Node28 -->
<g id="edge102" class="edge">
<title>Node66&#45;&gt;Node28</title>
<path fill="none" stroke="midnightblue" d="M619.94,-503.43C641.09,-467.42 727.7,-326.51 833,-246 948.68,-157.55 990.05,-144.53 1132,-112 1399.19,-50.77 2091.59,-95.73 2365,-76 2378.62,-75.02 2393.53,-73.42 2406.64,-71.85"/>
<polygon fill="midnightblue" stroke="midnightblue" points="2407.2,-75.31 2416.7,-70.6 2406.34,-68.36 2407.2,-75.31"/>
</g>
<!-- Node66&#45;&gt;Node33 -->
<g id="edge107" class="edge">
<title>Node66&#45;&gt;Node33</title>
<path fill="none" stroke="midnightblue" d="M526.42,-512.36C364.68,-510.61 38,-494.89 38,-396.5 38,-396.5 38,-396.5 38,-193.5 38,-137.53 82.53,-133.99 134,-112 201.3,-83.24 414.95,-72.22 514.29,-68.58"/>
<polygon fill="midnightblue" stroke="midnightblue" points="514.53,-72.07 524.4,-68.22 514.28,-65.07 514.53,-72.07"/>
</g>
<!-- Node66&#45;&gt;Node43 -->
<g id="edge101" class="edge">
<title>Node66&#45;&gt;Node43</title>
<path fill="none" stroke="midnightblue" d="M537.54,-503.49C429.75,-490.01 242.59,-460.11 197,-411 126.84,-335.42 151.25,-272.84 194,-179 199.45,-167.05 207.62,-154.8 214.58,-145.36"/>
<polygon fill="midnightblue" stroke="midnightblue" points="217.48,-147.34 220.77,-137.27 211.91,-143.09 217.48,-147.34"/>
</g>
<!-- Node66&#45;&gt;Node52 -->
<g id="edge103" class="edge">
<title>Node66&#45;&gt;Node52</title>
<path fill="none" stroke="midnightblue" d="M638.37,-503.37C757.71,-459.3 1299.02,-259.38 1438.92,-207.72"/>
<polygon fill="midnightblue" stroke="midnightblue" points="1440.49,-210.87 1448.65,-204.12 1438.06,-204.3 1440.49,-210.87"/>
</g>
<!-- Node66&#45;&gt;Node53 -->
<g id="edge105" class="edge">
<title>Node66&#45;&gt;Node53</title>
<path fill="none" stroke="midnightblue" d="M703.64,-511.39C989.16,-509.12 1882.85,-499.53 2170,-467 2296.54,-452.66 2328.49,-445.76 2451,-411 2520.55,-391.26 2599.4,-359.51 2640.89,-342.03"/>
<polygon fill="midnightblue" stroke="midnightblue" points="2642.29,-345.25 2650.13,-338.12 2639.56,-338.8 2642.29,-345.25"/>
</g>
<!-- Node67 -->
<g id="node42" class="node">
<title>Node67</title>
<g id="a_node42"><a xlink:href="load__balance__info_8h.html" target="_top" xlink:title=" ">
<polygon fill="white" stroke="red" points="594,-185 594,-204 732,-204 732,-185 594,-185"/>
<text text-anchor="middle" x="663" y="-192" font-family="Helvetica,sans-Serif" font-size="10.00">core/load_balance_info.h</text>
</a>
</g>
</g>
<!-- Node66&#45;&gt;Node67 -->
<g id="edge108" class="edge">
<title>Node66&#45;&gt;Node67</title>
<path fill="none" stroke="midnightblue" d="M562.72,-503.48C541.41,-497.15 518.81,-486.14 506,-467 451.38,-385.36 448.15,-325.38 506,-246 524.11,-221.16 554.64,-208.27 583.99,-201.68"/>
<polygon fill="midnightblue" stroke="midnightblue" points="584.77,-205.09 593.88,-199.68 583.38,-198.23 584.77,-205.09"/>
</g>
<!-- Node66&#45;&gt;Node69 -->
<g id="edge111" class="edge">
<title>Node66&#45;&gt;Node69</title>
<path fill="none" stroke="midnightblue" d="M703.73,-508.75C969.48,-499.03 1756.28,-470.25 2010.68,-460.94"/>
<polygon fill="midnightblue" stroke="midnightblue" points="2011.08,-464.43 2020.94,-460.56 2010.82,-457.43 2011.08,-464.43"/>
</g>
<!-- Node67&#45;&gt;Node8 -->
<g id="edge109" class="edge">
<title>Node67&#45;&gt;Node8</title>
<path fill="none" stroke="midnightblue" d="M732.12,-187.59C872.07,-175.62 1188.45,-148.56 1339.58,-135.63"/>
<polygon fill="midnightblue" stroke="midnightblue" points="1340.07,-139.11 1349.73,-134.77 1339.47,-132.13 1340.07,-139.11"/>
</g>
<!-- Node67&#45;&gt;Node33 -->
<g id="edge110" class="edge">
<title>Node67&#45;&gt;Node33</title>
<path fill="none" stroke="midnightblue" d="M656.33,-184.81C640.41,-164.04 599.95,-111.27 579,-83.96"/>
<polygon fill="midnightblue" stroke="midnightblue" points="581.58,-81.56 572.71,-75.76 576.02,-85.82 581.58,-81.56"/>
</g>
<!-- Node69&#45;&gt;Node5 -->
<g id="edge117" class="edge">
<title>Node69&#45;&gt;Node5</title>
<path fill="none" stroke="midnightblue" d="M2161.26,-456C2283.53,-453.4 2540.73,-436.3 2733,-344 2776.68,-323.03 2797.73,-320.53 2819,-277 2825.05,-264.62 2824.71,-258.54 2819,-246 2812.1,-230.84 2798.16,-218.47 2785.67,-209.76"/>
<polygon fill="midnightblue" stroke="midnightblue" points="2787.25,-206.61 2776.96,-204.08 2783.42,-212.48 2787.25,-206.61"/>
</g>
<!-- Node69&#45;&gt;Node6 -->
<g id="edge122" class="edge">
<title>Node69&#45;&gt;Node6</title>
<path fill="none" stroke="midnightblue" d="M2020.99,-456.32C1683.04,-457.62 233.38,-460.3 152,-411 61.62,-356.24 75.42,-281.77 100,-179 142.88,0.24 312.41,-72.12 496,-56 916.29,-19.09 2304.91,-12.04 2536.21,-11.12"/>
<polygon fill="midnightblue" stroke="midnightblue" points="2536.35,-14.62 2546.34,-11.08 2536.32,-7.62 2536.35,-14.62"/>
</g>
<!-- Node69&#45;&gt;Node7 -->
<g id="edge123" class="edge">
<title>Node69&#45;&gt;Node7</title>
<path fill="none" stroke="midnightblue" d="M2020.87,-455.31C1901.48,-453.22 1664.34,-444.81 1589,-411 1570.64,-402.76 1574.23,-388.52 1556,-380 1434.73,-323.35 1371.84,-412.75 1257,-344 1223.27,-323.81 1139.49,-170.76 1132,-143 1128.41,-129.7 1122.63,-122.1 1132,-112 1168.38,-72.79 1558.74,-80.88 1612,-76 1628.14,-74.52 1646.03,-72.61 1661.04,-70.94"/>
<polygon fill="midnightblue" stroke="midnightblue" points="1661.86,-74.37 1671.41,-69.77 1661.08,-67.41 1661.86,-74.37"/>
</g>
<!-- Node69&#45;&gt;Node8 -->
<g id="edge125" class="edge">
<title>Node69&#45;&gt;Node8</title>
<path fill="none" stroke="midnightblue" d="M2020.65,-453.58C1910.14,-449.02 1701.29,-437.17 1632,-411 1609.96,-402.67 1610.93,-388.6 1589,-380 1528.34,-356.2 1345.47,-388.64 1298,-344 1243.97,-293.19 1229.72,-239.24 1273,-179 1288.71,-157.13 1314.37,-144.61 1340.06,-137.48"/>
<polygon fill="midnightblue" stroke="midnightblue" points="1341.04,-140.84 1349.88,-135 1339.33,-134.05 1341.04,-140.84"/>
</g>
<!-- Node69&#45;&gt;Node9 -->
<g id="edge116" class="edge">
<title>Node69&#45;&gt;Node9</title>
<path fill="none" stroke="midnightblue" d="M2020.97,-455.18C1763.72,-451.94 879.5,-438.88 756,-411 659.93,-389.31 410.24,-295.3 361,-210 288.75,-84.84 24.82,-194.07 862,-112 1126.52,-86.07 1447.32,-72.18 1548.7,-68.21"/>
<polygon fill="midnightblue" stroke="midnightblue" points="1549.03,-71.7 1558.89,-67.82 1548.76,-64.7 1549.03,-71.7"/>
</g>
<!-- Node69&#45;&gt;Node10 -->
<g id="edge177" class="edge">
<title>Node69&#45;&gt;Node10</title>
<path fill="none" stroke="midnightblue" d="M2161.13,-453.95C2321.48,-448.92 2710.98,-434.62 2840,-411 2938.45,-392.98 2967.76,-393.06 3055,-344 3094.25,-321.93 3112.47,-318.04 3131,-277 3137.83,-261.88 3133.1,-197.46 3126,-179 3112.47,-143.82 3103.03,-136.04 3074,-112 3057.5,-98.33 3036.16,-87.29 3018.62,-79.57"/>
<polygon fill="midnightblue" stroke="midnightblue" points="3019.9,-76.31 3009.33,-75.62 3017.17,-82.75 3019.9,-76.31"/>
</g>
<!-- Node69&#45;&gt;Node22 -->
<g id="edge118" class="edge">
<title>Node69&#45;&gt;Node22</title>
<path fill="none" stroke="midnightblue" d="M2161.14,-456.87C2305.07,-457.63 2643.8,-454.17 2924,-411 3160.3,-374.6 3219.78,-357.25 3445,-277 3453.36,-274.02 3585.22,-217.48 3590,-210 3659.95,-100.62 3399.28,-74.61 3297.81,-68.68"/>
<polygon fill="midnightblue" stroke="midnightblue" points="3297.83,-65.17 3287.65,-68.12 3297.45,-72.16 3297.83,-65.17"/>
</g>
<!-- Node69&#45;&gt;Node24 -->
<g id="edge126" class="edge">
<title>Node69&#45;&gt;Node24</title>
<path fill="none" stroke="midnightblue" d="M2087.34,-447.24C2068.99,-403.39 1987,-207.4 1961.56,-146.57"/>
<polygon fill="midnightblue" stroke="midnightblue" points="1964.7,-145.01 1957.61,-137.13 1958.24,-147.71 1964.7,-145.01"/>
</g>
<!-- Node69&#45;&gt;Node27 -->
<g id="edge114" class="edge">
<title>Node69&#45;&gt;Node27</title>
<path fill="none" stroke="midnightblue" d="M2161,-455.53C2460.5,-453.34 3626.04,-442.81 3787,-411 3913.37,-386.02 3983.16,-390.54 4044,-277 4078.69,-212.27 4060.42,-180.9 4035,-112 4031.55,-102.64 4026.62,-92.71 4022.21,-84.57"/>
<polygon fill="midnightblue" stroke="midnightblue" points="4025.17,-82.69 4017.23,-75.68 4019.07,-86.12 4025.17,-82.69"/>
</g>
<!-- Node69&#45;&gt;Node29 -->
<g id="edge115" class="edge">
<title>Node69&#45;&gt;Node29</title>
<path fill="none" stroke="midnightblue" d="M2161.2,-455.87C2470.55,-455.05 3704.3,-449.42 3873,-411 3943.8,-394.88 3967.26,-391.7 4022,-344 4106.17,-270.66 4146.38,-134.95 4158.72,-85.58"/>
<polygon fill="midnightblue" stroke="midnightblue" points="4162.16,-86.22 4161.1,-75.68 4155.36,-84.58 4162.16,-86.22"/>
</g>
<!-- Node69&#45;&gt;Node33 -->
<g id="edge169" class="edge">
<title>Node69&#45;&gt;Node33</title>
<path fill="none" stroke="midnightblue" d="M2020.97,-456.27C1687.84,-457.32 276.47,-458.9 197,-411 132.24,-371.97 114,-338.11 114,-262.5 114,-262.5 114,-262.5 114,-193.5 114,-142.43 149.12,-134.42 195,-112 250.09,-85.08 426.08,-73.38 514.41,-69.1"/>
<polygon fill="midnightblue" stroke="midnightblue" points="514.65,-72.59 524.47,-68.63 514.32,-65.6 514.65,-72.59"/>
</g>
<!-- Node69&#45;&gt;Node34 -->
<g id="edge170" class="edge">
<title>Node69&#45;&gt;Node34</title>
<path fill="none" stroke="midnightblue" d="M2091.48,-447.24C2093.88,-403.57 2104.57,-209.02 2107.97,-147.33"/>
<polygon fill="midnightblue" stroke="midnightblue" points="2111.47,-147.31 2108.53,-137.13 2104.48,-146.93 2111.47,-147.31"/>
</g>
<!-- Node69&#45;&gt;Node35 -->
<g id="edge119" class="edge">
<title>Node69&#45;&gt;Node35</title>
<path fill="none" stroke="midnightblue" d="M2161.3,-455.18C2452.18,-451.65 3553.45,-436.67 3707,-411 3805.3,-394.57 3831.22,-387.28 3921,-344 4000.62,-305.62 4073.97,-256.78 4032,-179 3994.64,-109.76 3896.58,-81.48 3849.27,-71.59"/>
<polygon fill="midnightblue" stroke="midnightblue" points="3849.68,-68.11 3839.2,-69.61 3848.33,-74.98 3849.68,-68.11"/>
</g>
<!-- Node69&#45;&gt;Node17 -->
<g id="edge120" class="edge">
<title>Node69&#45;&gt;Node17</title>
<path fill="none" stroke="midnightblue" d="M2161.03,-455.79C2418.51,-454.7 3312.38,-448.29 3595,-411 3723.14,-394.09 3762.28,-401.59 3878,-344 3962.33,-302.03 4066.21,-255.31 4011,-179 3973.95,-127.78 3781.08,-87.24 3703.43,-72.75"/>
<polygon fill="midnightblue" stroke="midnightblue" points="3703.74,-69.25 3693.27,-70.88 3702.47,-76.13 3703.74,-69.25"/>
</g>
<!-- Node69&#45;&gt;Node36 -->
<g id="edge171" class="edge">
<title>Node69&#45;&gt;Node36</title>
<path fill="none" stroke="midnightblue" d="M2112.19,-447.44C2160.31,-426.69 2277.11,-368.57 2322,-277 2333.15,-254.24 2314.7,-227.75 2299.56,-211.3"/>
<polygon fill="midnightblue" stroke="midnightblue" points="2302.02,-208.81 2292.54,-204.09 2297.01,-213.7 2302.02,-208.81"/>
</g>
<!-- Node69&#45;&gt;Node51 -->
<g id="edge155" class="edge">
<title>Node69&#45;&gt;Node51</title>
<path fill="none" stroke="midnightblue" d="M2020.98,-453.53C1783.71,-444.57 1020.06,-410.74 934,-344 916.17,-330.17 907.93,-305.14 904.15,-286.46"/>
<polygon fill="midnightblue" stroke="midnightblue" points="907.59,-285.83 902.43,-276.58 900.69,-287.03 907.59,-285.83"/>
</g>
<!-- Node69&#45;&gt;Node45 -->
<g id="edge178" class="edge">
<title>Node69&#45;&gt;Node45</title>
<path fill="none" stroke="midnightblue" d="M2020.95,-454.59C1819.99,-450.3 1243.99,-436.1 1057,-411 923.74,-393.12 884.66,-399.07 762,-344 724.16,-327.01 686.15,-296.5 664.99,-278.01"/>
<polygon fill="midnightblue" stroke="midnightblue" points="667.04,-275.16 657.24,-271.12 662.39,-280.39 667.04,-275.16"/>
</g>
<!-- Node69&#45;&gt;Node43 -->
<g id="edge112" class="edge">
<title>Node69&#45;&gt;Node43</title>
<path fill="none" stroke="midnightblue" d="M2020.95,-455.92C1757.02,-455.3 822.64,-450.33 528,-411 374.83,-390.56 190,-484.03 190,-329.5 190,-329.5 190,-329.5 190,-260.5 190,-218.35 208.11,-171.48 219.33,-146.5"/>
<polygon fill="midnightblue" stroke="midnightblue" points="222.61,-147.76 223.64,-137.21 216.26,-144.81 222.61,-147.76"/>
</g>
<!-- Node69&#45;&gt;Node46 -->
<g id="edge113" class="edge">
<title>Node69&#45;&gt;Node46</title>
<path fill="none" stroke="midnightblue" d="M2020.73,-455.03C1775.78,-451.42 968.27,-437.61 855,-411 675.21,-368.76 481.94,-250.64 418.5,-209.69"/>
<polygon fill="midnightblue" stroke="midnightblue" points="420.39,-206.74 410.1,-204.23 416.57,-212.61 420.39,-206.74"/>
</g>
<!-- Node69&#45;&gt;Node42 -->
<g id="edge176" class="edge">
<title>Node69&#45;&gt;Node42</title>
<path fill="none" stroke="midnightblue" d="M2020.98,-455.43C1747.16,-452.99 757.21,-442.1 620,-411 473.04,-377.69 329.62,-254.66 282.3,-211"/>
<polygon fill="midnightblue" stroke="midnightblue" points="284.53,-208.29 274.83,-204.03 279.75,-213.41 284.53,-208.29"/>
</g>
<!-- Node69&#45;&gt;Node53 -->
<g id="edge124" class="edge">
<title>Node69&#45;&gt;Node53</title>
<path fill="none" stroke="midnightblue" d="M2159.06,-447.47C2217.06,-439.68 2302.45,-426.95 2376,-411 2469.81,-390.66 2578.13,-358.28 2633.41,-341.09"/>
<polygon fill="midnightblue" stroke="midnightblue" points="2634.6,-344.39 2643.1,-338.07 2632.51,-337.71 2634.6,-344.39"/>
</g>
<!-- Node69&#45;&gt;Node48 -->
<g id="edge121" class="edge">
<title>Node69&#45;&gt;Node48</title>
<path fill="none" stroke="midnightblue" d="M2161.28,-455.02C2402.82,-451.45 3197.94,-437.87 3452,-411 3619.5,-393.28 3667.04,-402.47 3825,-344 3880.11,-323.6 3905.01,-324.95 3939,-277 3952.07,-258.57 3955.13,-232.17 3955.54,-214.46"/>
<polygon fill="midnightblue" stroke="midnightblue" points="3959.04,-214.24 3955.51,-204.25 3952.04,-214.26 3959.04,-214.24"/>
</g>
<!-- Node69&#45;&gt;Node65 -->
<g id="edge179" class="edge">
<title>Node69&#45;&gt;Node65</title>
<path fill="none" stroke="midnightblue" d="M2161.37,-455.32C2372.53,-451.58 2993.34,-427.73 3109,-277 3136.9,-240.64 3073.31,-217.75 3022.42,-205.78"/>
<polygon fill="midnightblue" stroke="midnightblue" points="3022.97,-202.32 3012.45,-203.54 3021.43,-209.15 3022.97,-202.32"/>
</g>
<!-- Node70 -->
<g id="node44" class="node">
<title>Node70</title>
<g id="a_node44"><a xlink:href="agent__uid__generator_8h.html" target="_top" xlink:title=" ">
<polygon fill="white" stroke="red" points="1641.5,-380.5 1641.5,-410.5 1760.5,-410.5 1760.5,-380.5 1641.5,-380.5"/>
<text text-anchor="start" x="1649.5" y="-398.5" font-family="Helvetica,sans-Serif" font-size="10.00">core/agent/agent_uid</text>
<text text-anchor="middle" x="1701" y="-387.5" font-family="Helvetica,sans-Serif" font-size="10.00">_generator.h</text>
</a>
</g>
</g>
<!-- Node69&#45;&gt;Node70 -->
<g id="edge127" class="edge">
<title>Node69&#45;&gt;Node70</title>
<path fill="none" stroke="midnightblue" d="M2035.12,-447.48C1965.38,-436.83 1846.09,-418.64 1770.52,-407.11"/>
<polygon fill="midnightblue" stroke="midnightblue" points="1771.02,-403.64 1760.61,-405.59 1769.97,-410.56 1771.02,-403.64"/>
</g>
<!-- Node85 -->
<g id="node48" class="node">
<title>Node85</title>
<g id="a_node48"><a xlink:href="continuum__interface_8h.html" target="_top" xlink:title=" ">
<polygon fill="white" stroke="red" points="3334.5,-179.5 3334.5,-209.5 3471.5,-209.5 3471.5,-179.5 3334.5,-179.5"/>
<text text-anchor="start" x="3342.5" y="-197.5" font-family="Helvetica,sans-Serif" font-size="10.00">core/diffusion/continuum</text>
<text text-anchor="middle" x="3403" y="-186.5" font-family="Helvetica,sans-Serif" font-size="10.00">_interface.h</text>
</a>
</g>
</g>
<!-- Node69&#45;&gt;Node85 -->
<g id="edge156" class="edge">
<title>Node69&#45;&gt;Node85</title>
<path fill="none" stroke="midnightblue" d="M2161.17,-456.04C2346.3,-455.56 2863.09,-450.48 3291,-411 3494.1,-392.26 3548.05,-397.03 3745,-344 3822.62,-323.1 3867.9,-343.54 3913,-277 3920.73,-265.6 3922.25,-256.21 3913,-246 3884.66,-214.71 3617.99,-202.06 3481.98,-197.61"/>
<polygon fill="midnightblue" stroke="midnightblue" points="3481.73,-194.1 3471.62,-197.28 3481.5,-201.09 3481.73,-194.1"/>
</g>
<!-- Node86 -->
<g id="node49" class="node">
<title>Node86</title>
<g id="a_node49"><a xlink:href="diffusion__grid_8h.html" target="_top" xlink:title=" ">
<polygon fill="white" stroke="red" points="3308,-246.5 3308,-276.5 3436,-276.5 3436,-246.5 3308,-246.5"/>
<text text-anchor="start" x="3316" y="-264.5" font-family="Helvetica,sans-Serif" font-size="10.00">core/diffusion/diffusion</text>
<text text-anchor="middle" x="3372" y="-253.5" font-family="Helvetica,sans-Serif" font-size="10.00">_grid.h</text>
</a>
</g>
</g>
<!-- Node69&#45;&gt;Node86 -->
<g id="edge160" class="edge">
<title>Node69&#45;&gt;Node86</title>
<path fill="none" stroke="midnightblue" d="M2161.32,-454.91C2405.88,-450.92 3207.18,-435.99 3256,-411 3308.74,-384 3344.92,-320.87 3361.57,-286.25"/>
<polygon fill="midnightblue" stroke="midnightblue" points="3364.88,-287.44 3365.93,-276.9 3358.53,-284.48 3364.88,-287.44"/>
</g>
<!-- Node88 -->
<g id="node50" class="node">
<title>Node88</title>
<g id="a_node50"><a xlink:href="type__index_8h.html" target="_top" xlink:title=" ">
<polygon fill="white" stroke="red" points="1443,-386 1443,-405 1547,-405 1547,-386 1443,-386"/>
<text text-anchor="middle" x="1495" y="-393" font-family="Helvetica,sans-Serif" font-size="10.00">core/type_index.h</text>
</a>
</g>
</g>
<!-- Node69&#45;&gt;Node88 -->
<g id="edge172" class="edge">
<title>Node69&#45;&gt;Node88</title>
<path fill="none" stroke="midnightblue" d="M2020.78,-452.98C1918.98,-447.94 1724.66,-435.82 1561,-411 1554.14,-409.96 1546.93,-408.63 1539.9,-407.19"/>
<polygon fill="midnightblue" stroke="midnightblue" points="1540.29,-403.7 1529.78,-405.04 1538.83,-410.54 1540.29,-403.7"/>
</g>
<!-- Node70&#45;&gt;Node3 -->
<g id="edge128" class="edge">
<title>Node70&#45;&gt;Node3</title>
<path fill="none" stroke="midnightblue" d="M1641.43,-386.72C1624.49,-384.53 1606.02,-382.15 1589,-380 1524.36,-371.82 1353.51,-378.13 1298,-344 1222.36,-297.5 1183.82,-189.84 1170.99,-146.78"/>
<polygon fill="midnightblue" stroke="midnightblue" points="1174.33,-145.74 1168.22,-137.09 1167.6,-147.66 1174.33,-145.74"/>
</g>
<!-- Node70&#45;&gt;Node8 -->
<g id="edge131" class="edge">
<title>Node70&#45;&gt;Node8</title>
<path fill="none" stroke="midnightblue" d="M1690.47,-380.4C1662.86,-344.04 1585,-245.34 1505,-179 1487.68,-164.64 1465.91,-151.42 1449.15,-142.11"/>
<polygon fill="midnightblue" stroke="midnightblue" points="1450.39,-138.8 1439.94,-137.1 1447.05,-144.95 1450.39,-138.8"/>
</g>
<!-- Node70&#45;&gt;Node9 -->
<g id="edge129" class="edge">
<title>Node70&#45;&gt;Node9</title>
<path fill="none" stroke="midnightblue" d="M1641.43,-388.1C1615.24,-385.41 1584.11,-382.35 1556,-380 1394.28,-366.47 926.64,-409.55 833,-277 791.08,-217.67 810.55,-174.09 910,-112 964.55,-77.94 1422.23,-69.18 1548.72,-67.39"/>
<polygon fill="midnightblue" stroke="midnightblue" points="1548.97,-70.89 1558.92,-67.26 1548.87,-63.89 1548.97,-70.89"/>
</g>
<!-- Node70&#45;&gt;Node10 -->
<g id="edge153" class="edge">
<title>Node70&#45;&gt;Node10</title>
<path fill="none" stroke="midnightblue" d="M1760.78,-394.37C2017.97,-393.19 3021.19,-381.84 3109,-277 3164.17,-211.13 3054.09,-117.41 3006.47,-81.64"/>
<polygon fill="midnightblue" stroke="midnightblue" points="3008.49,-78.78 2998.36,-75.65 3004.33,-84.41 3008.49,-78.78"/>
</g>
<!-- Node70&#45;&gt;Node24 -->
<g id="edge132" class="edge">
<title>Node70&#45;&gt;Node24</title>
<path fill="none" stroke="midnightblue" d="M1706.93,-380.13C1719.99,-350.32 1754.19,-281.53 1805,-246 1855.89,-210.42 1898.12,-255.85 1940,-210 1955.39,-193.15 1957.07,-165.79 1956.12,-147.48"/>
<polygon fill="midnightblue" stroke="midnightblue" points="1959.6,-147.1 1955.3,-137.42 1952.63,-147.67 1959.6,-147.1"/>
</g>
<!-- Node70&#45;&gt;Node36 -->
<g id="edge152" class="edge">
<title>Node70&#45;&gt;Node36</title>
<path fill="none" stroke="midnightblue" d="M1760.51,-392.14C1898.83,-385.29 2235.41,-360.24 2304,-277 2319.19,-258.56 2306.41,-230.43 2295.19,-212.51"/>
<polygon fill="midnightblue" stroke="midnightblue" points="2298.09,-210.55 2289.63,-204.17 2292.27,-214.43 2298.09,-210.55"/>
</g>
<!-- Node70&#45;&gt;Node51 -->
<g id="edge133" class="edge">
<title>Node70&#45;&gt;Node51</title>
<path fill="none" stroke="midnightblue" d="M1641.41,-388.32C1615.22,-385.66 1584.09,-382.58 1556,-380 1365.02,-362.46 1313.34,-385.01 1126,-344 1059.08,-329.35 985.01,-299.76 940.77,-280.55"/>
<polygon fill="midnightblue" stroke="midnightblue" points="942.1,-277.31 931.53,-276.5 939.29,-283.72 942.1,-277.31"/>
</g>
<!-- Node70&#45;&gt;Node44 -->
<g id="edge154" class="edge">
<title>Node70&#45;&gt;Node44</title>
<path fill="none" stroke="midnightblue" d="M1641.3,-382.38C1636.47,-381.53 1631.66,-380.72 1627,-380 1558.03,-369.28 1361.44,-396.1 1315,-344 1282.28,-307.29 1309.74,-244.03 1326.45,-213.29"/>
<polygon fill="midnightblue" stroke="midnightblue" points="1329.71,-214.63 1331.6,-204.2 1323.62,-211.18 1329.71,-214.63"/>
</g>
<!-- Node70&#45;&gt;Node52 -->
<g id="edge130" class="edge">
<title>Node70&#45;&gt;Node52</title>
<path fill="none" stroke="midnightblue" d="M1685.54,-380.35C1656.3,-353.67 1590.73,-294.28 1534,-246 1519.74,-233.86 1503.3,-220.5 1490.93,-210.57"/>
<polygon fill="midnightblue" stroke="midnightblue" points="1493.09,-207.81 1483.09,-204.3 1488.72,-213.28 1493.09,-207.81"/>
</g>
<!-- Node70&#45;&gt;Node72 -->
<g id="edge134" class="edge">
<title>Node70&#45;&gt;Node72</title>
<path fill="none" stroke="midnightblue" d="M1760.74,-392.55C2054.04,-382.95 3339.21,-340.91 3629.56,-331.41"/>
<polygon fill="midnightblue" stroke="midnightblue" points="3629.99,-334.9 3639.87,-331.07 3629.76,-327.9 3629.99,-334.9"/>
</g>
<!-- Node72&#45;&gt;Node4 -->
<g id="edge137" class="edge">
<title>Node72&#45;&gt;Node4</title>
<path fill="none" stroke="midnightblue" d="M3639.97,-325.12C3565.78,-320.58 3419.3,-308.2 3299,-277 3142.98,-236.53 3098.66,-228.46 2962,-143 2944.66,-132.16 2946.8,-120.04 2928,-112 2821.5,-66.45 2523.38,-86.17 2408,-76 2394.63,-74.82 2380.08,-73.33 2366.9,-71.91"/>
<polygon fill="midnightblue" stroke="midnightblue" points="2367.01,-68.4 2356.68,-70.79 2366.24,-75.36 2367.01,-68.4"/>
</g>
<!-- Node72&#45;&gt;Node6 -->
<g id="edge140" class="edge">
<title>Node72&#45;&gt;Node6</title>
<path fill="none" stroke="midnightblue" d="M3736.06,-327.24C3795.57,-325.15 3898.64,-315.61 3977,-277 4101.04,-215.89 4292.42,-155.12 4196,-56 4167.16,-26.36 2829.79,-13.29 2601.86,-11.28"/>
<polygon fill="midnightblue" stroke="midnightblue" points="2601.6,-7.78 2591.57,-11.19 2601.53,-14.78 2601.6,-7.78"/>
</g>
<!-- Node72&#45;&gt;Node7 -->
<g id="edge141" class="edge">
<title>Node72&#45;&gt;Node7</title>
<path fill="none" stroke="midnightblue" d="M3639.73,-327C3411.62,-324.46 2440.2,-311.79 2139,-277 2069.21,-268.94 2053.24,-257.88 1984,-246 1928.46,-236.47 1775.11,-247.44 1733,-210 1714.54,-193.59 1702.38,-121.17 1697.46,-86.13"/>
<polygon fill="midnightblue" stroke="midnightblue" points="1700.88,-85.25 1696.07,-75.81 1693.94,-86.19 1700.88,-85.25"/>
</g>
<!-- Node72&#45;&gt;Node27 -->
<g id="edge135" class="edge">
<title>Node72&#45;&gt;Node27</title>
<path fill="none" stroke="midnightblue" d="M3736.34,-325.55C3788.85,-321.71 3873.94,-310.37 3939,-277 3977.89,-257.05 3993.41,-250.02 4011,-210 4029.18,-168.65 4022.02,-113.85 4016.36,-85.6"/>
<polygon fill="midnightblue" stroke="midnightblue" points="4019.72,-84.57 4014.18,-75.54 4012.88,-86.06 4019.72,-84.57"/>
</g>
<!-- Node72&#45;&gt;Node33 -->
<g id="edge142" class="edge">
<title>Node72&#45;&gt;Node33</title>
<path fill="none" stroke="midnightblue" d="M3639.97,-326.71C3425.67,-323.07 2535.3,-306.84 1805,-277 1788.04,-276.31 597.45,-221.53 585,-210 550.62,-178.18 556.34,-116.53 561.91,-85.62"/>
<polygon fill="midnightblue" stroke="midnightblue" points="565.36,-86.22 563.88,-75.73 558.49,-84.85 565.36,-86.22"/>
</g>
<!-- Node72&#45;&gt;Node34 -->
<g id="edge143" class="edge">
<title>Node72&#45;&gt;Node34</title>
<path fill="none" stroke="midnightblue" d="M3639.76,-327.59C3498,-327.3 3084.8,-322.48 2959,-277 2936.84,-268.99 2936.22,-258.09 2916,-246 2884.61,-227.24 2873.39,-228.76 2842,-210 2821.78,-197.91 2821.18,-186.95 2799,-179 2680.57,-136.55 2359.31,-154.25 2234,-143 2218.74,-141.63 2202.46,-139.92 2186.86,-138.16"/>
<polygon fill="midnightblue" stroke="midnightblue" points="2187.06,-134.66 2176.73,-137.01 2186.26,-141.62 2187.06,-134.66"/>
</g>
<!-- Node72&#45;&gt;Node17 -->
<g id="edge138" class="edge">
<title>Node72&#45;&gt;Node17</title>
<path fill="none" stroke="midnightblue" d="M3700.22,-318.7C3728.65,-297.03 3795.71,-238.53 3780,-179 3771.27,-145.9 3765.61,-136.79 3742,-112 3729.62,-99 3712.74,-88.1 3698.54,-80.28"/>
<polygon fill="midnightblue" stroke="midnightblue" points="3700.15,-77.18 3689.67,-75.6 3696.88,-83.37 3700.15,-77.18"/>
</g>
<!-- Node72&#45;&gt;Node48 -->
<g id="edge139" class="edge">
<title>Node72&#45;&gt;Node48</title>
<path fill="none" stroke="midnightblue" d="M3736.43,-328.1C3785.68,-326.28 3861.84,-316.53 3913,-277 3933.43,-261.22 3944.83,-232.72 3950.44,-213.96"/>
<polygon fill="midnightblue" stroke="midnightblue" points="3953.85,-214.77 3953.1,-204.2 3947.09,-212.93 3953.85,-214.77"/>
</g>
<!-- Node73 -->
<g id="node46" class="node">
<title>Node73</title>
<g id="a_node46"><a xlink:title=" ">
<polygon fill="white" stroke="#bfbfbf" points="3854,-252 3854,-271 3904,-271 3904,-252 3854,-252"/>
<text text-anchor="middle" x="3879" y="-259" font-family="Helvetica,sans-Serif" font-size="10.00">chrono</text>
</a>
</g>
</g>
<!-- Node72&#45;&gt;Node73 -->
<g id="edge136" class="edge">
<title>Node72&#45;&gt;Node73</title>
<path fill="none" stroke="midnightblue" d="M3714.73,-318.93C3745.17,-309.11 3796.33,-292.37 3840,-277 3842.24,-276.21 3844.55,-275.39 3846.88,-274.55"/>
<polygon fill="midnightblue" stroke="midnightblue" points="3848.18,-277.8 3856.36,-271.07 3845.77,-271.22 3848.18,-277.8"/>
</g>
<!-- Node74 -->
<g id="node47" class="node">
<title>Node74</title>
<g id="a_node47"><a xlink:href="core_2param_2param_8h.html" target="_top" xlink:title=" ">
<polygon fill="white" stroke="red" points="3530,-252 3530,-271 3646,-271 3646,-252 3530,-252"/>
<text text-anchor="middle" x="3588" y="-259" font-family="Helvetica,sans-Serif" font-size="10.00">core/param/param.h</text>
</a>
</g>
</g>
<!-- Node72&#45;&gt;Node74 -->
<g id="edge144" class="edge">
<title>Node72&#45;&gt;Node74</title>
<path fill="none" stroke="midnightblue" d="M3674.51,-318.73C3657.95,-307.96 3629.62,-289.55 3609.91,-276.74"/>
<polygon fill="midnightblue" stroke="midnightblue" points="3611.56,-273.64 3601.27,-271.13 3607.75,-279.51 3611.56,-273.64"/>
</g>
<!-- Node74&#45;&gt;Node5 -->
<g id="edge145" class="edge">
<title>Node74&#45;&gt;Node5</title>
<path fill="none" stroke="midnightblue" d="M3529.95,-254.12C3503.98,-251.39 3472.98,-248.31 3445,-246 3194.23,-225.3 3130.55,-233.23 2880,-210 2853.4,-207.53 2823.56,-203.9 2800.42,-200.88"/>
<polygon fill="midnightblue" stroke="midnightblue" points="2800.66,-197.38 2790.29,-199.55 2799.75,-204.32 2800.66,-197.38"/>
</g>
<!-- Node74&#45;&gt;Node7 -->
<g id="edge149" class="edge">
<title>Node74&#45;&gt;Node7</title>
<path fill="none" stroke="midnightblue" d="M3529.94,-254.17C3503.98,-251.45 3472.97,-248.36 3445,-246 3326.93,-236.02 3024,-251.46 2913,-210 2891.6,-202.01 2893.35,-187.12 2872,-179 2683.22,-107.22 2618.12,-176.79 2419,-143 2365.54,-133.93 2354.48,-120.93 2301,-112 2085.05,-75.93 1820.97,-68.77 1728.72,-67.35"/>
<polygon fill="midnightblue" stroke="midnightblue" points="1728.63,-63.85 1718.58,-67.21 1728.53,-70.85 1728.63,-63.85"/>
</g>
<!-- Node74&#45;&gt;Node10 -->
<g id="edge150" class="edge">
<title>Node74&#45;&gt;Node10</title>
<path fill="none" stroke="midnightblue" d="M3591.31,-251.88C3596.88,-235.83 3606,-200.96 3590,-179 3532.81,-100.5 3476.94,-132.47 3382,-112 3261.68,-86.06 3117.37,-74.44 3040.51,-69.77"/>
<polygon fill="midnightblue" stroke="midnightblue" points="3040.31,-66.25 3030.12,-69.15 3039.89,-73.24 3040.31,-66.25"/>
</g>
<!-- Node74&#45;&gt;Node35 -->
<g id="edge146" class="edge">
<title>Node74&#45;&gt;Node35</title>
<path fill="none" stroke="midnightblue" d="M3609.2,-251.86C3629.65,-242.98 3660.97,-227.95 3685,-210 3736.88,-171.25 3786.86,-112.45 3809.85,-83.83"/>
<polygon fill="midnightblue" stroke="midnightblue" points="3812.85,-85.68 3816.33,-75.67 3807.37,-81.32 3812.85,-85.68"/>
</g>
<!-- Node74&#45;&gt;Node17 -->
<g id="edge147" class="edge">
<title>Node74&#45;&gt;Node17</title>
<path fill="none" stroke="midnightblue" d="M3612.4,-251.89C3630.65,-244.03 3654.39,-230.49 3666,-210 3688.38,-170.51 3681.36,-114.53 3675.5,-85.73"/>
<polygon fill="midnightblue" stroke="midnightblue" points="3678.88,-84.8 3673.31,-75.79 3672.05,-86.31 3678.88,-84.8"/>
</g>
<!-- Node74&#45;&gt;Node48 -->
<g id="edge148" class="edge">
<title>Node74&#45;&gt;Node48</title>
<path fill="none" stroke="midnightblue" d="M3636.36,-251.94C3703.88,-239.98 3826.2,-218.31 3898.06,-205.59"/>
<polygon fill="midnightblue" stroke="midnightblue" points="3899.04,-208.97 3908.28,-203.78 3897.82,-202.07 3899.04,-208.97"/>
</g>
<!-- Node74&#45;&gt;Node65 -->
<g id="edge151" class="edge">
<title>Node74&#45;&gt;Node65</title>
<path fill="none" stroke="midnightblue" d="M3529.86,-254.41C3410.44,-241.92 3138.99,-213.5 3022.16,-201.27"/>
<polygon fill="midnightblue" stroke="midnightblue" points="3022.32,-197.77 3012.01,-200.21 3021.59,-204.73 3022.32,-197.77"/>
</g>
<!-- Node85&#45;&gt;Node9 -->
<g id="edge157" class="edge">
<title>Node85&#45;&gt;Node9</title>
<path fill="none" stroke="midnightblue" d="M3334.37,-190.73C3141.51,-182.82 2597.19,-159.66 2419,-143 2317.18,-133.48 2292.74,-122.37 2191,-112 1956.56,-88.11 1896.72,-97.02 1662,-76 1646.01,-74.57 1628.28,-72.64 1613.5,-70.93"/>
<polygon fill="midnightblue" stroke="midnightblue" points="1613.66,-67.43 1603.32,-69.74 1612.85,-74.38 1613.66,-67.43"/>
</g>
<!-- Node85&#45;&gt;Node26 -->
<g id="edge159" class="edge">
<title>Node85&#45;&gt;Node26</title>
<path fill="none" stroke="midnightblue" d="M3384.12,-179.4C3372.15,-170.45 3356.47,-158.74 3343.17,-148.8"/>
<polygon fill="midnightblue" stroke="midnightblue" points="3344.95,-145.76 3334.84,-142.58 3340.76,-151.37 3344.95,-145.76"/>
</g>
<!-- Node85&#45;&gt;Node17 -->
<g id="edge158" class="edge">
<title>Node85&#45;&gt;Node17</title>
<path fill="none" stroke="midnightblue" d="M3432.7,-179.48C3485.07,-154.76 3593.04,-103.8 3643.67,-79.9"/>
<polygon fill="midnightblue" stroke="midnightblue" points="3645.17,-83.06 3652.72,-75.63 3642.18,-76.73 3645.17,-83.06"/>
</g>
<!-- Node86&#45;&gt;Node4 -->
<g id="edge161" class="edge">
<title>Node86&#45;&gt;Node4</title>
<path fill="none" stroke="midnightblue" d="M3342.26,-246.4C3275.83,-215.65 3109.65,-142.88 2962,-112 2720.49,-61.48 2653.83,-97.15 2408,-76 2394.62,-74.85 2380.08,-73.37 2366.9,-71.95"/>
<polygon fill="midnightblue" stroke="midnightblue" points="2367,-68.44 2356.68,-70.82 2366.24,-75.39 2367,-68.44"/>
</g>
<!-- Node86&#45;&gt;Node6 -->
<g id="edge163" class="edge">
<title>Node86&#45;&gt;Node6</title>
<path fill="none" stroke="midnightblue" d="M3431.34,-246.44C3450.17,-238.87 3468.94,-227.38 3480,-210 3487.4,-198.38 3486.14,-191.33 3480,-179 3439.53,-97.77 3402.15,-87.4 3317,-56 3249.33,-31.05 2737.68,-15.56 2601.96,-11.86"/>
<polygon fill="midnightblue" stroke="midnightblue" points="2601.87,-8.36 2591.78,-11.59 2601.68,-15.36 2601.87,-8.36"/>
</g>
<!-- Node86&#45;&gt;Node7 -->
<g id="edge164" class="edge">
<title>Node86&#45;&gt;Node7</title>
<path fill="none" stroke="midnightblue" d="M3307.83,-257.87C3192.95,-252.5 2956.95,-238.33 2880,-210 2857.21,-201.61 2857.91,-187.07 2835,-179 2630.28,-106.93 2562.25,-177.65 2348,-143 2292.35,-134 2280.6,-121.3 2225,-112 2039.18,-80.91 1812.91,-70.79 1728.69,-67.97"/>
<polygon fill="midnightblue" stroke="midnightblue" points="1728.79,-64.47 1718.68,-67.64 1728.56,-71.46 1728.79,-64.47"/>
</g>
<!-- Node86&#45;&gt;Node10 -->
<g id="edge167" class="edge">
<title>Node86&#45;&gt;Node10</title>
<path fill="none" stroke="midnightblue" d="M3355.34,-246.5C3343.45,-236.44 3327.13,-222.51 3313,-210 3288.86,-188.62 3234.72,-126.65 3206,-112 3153.53,-85.24 3086.37,-74.39 3040.14,-70"/>
<polygon fill="midnightblue" stroke="midnightblue" points="3040.29,-66.5 3030.02,-69.1 3039.67,-73.47 3040.29,-66.5"/>
</g>
<!-- Node86&#45;&gt;Node26 -->
<g id="edge165" class="edge">
<title>Node86&#45;&gt;Node26</title>
<path fill="none" stroke="midnightblue" d="M3353.77,-246.13C3343.51,-236.96 3331.49,-224.15 3325,-210 3316.78,-192.06 3314.82,-169.65 3314.76,-152.87"/>
<polygon fill="midnightblue" stroke="midnightblue" points="3318.26,-152.82 3314.94,-142.76 3311.26,-152.7 3318.26,-152.82"/>
</g>
<!-- Node86&#45;&gt;Node17 -->
<g id="edge162" class="edge">
<title>Node86&#45;&gt;Node17</title>
<path fill="none" stroke="midnightblue" d="M3427.19,-246.46C3454.46,-238.15 3487.19,-226.08 3514,-210 3574.15,-173.93 3631.59,-112.51 3657.14,-83.33"/>
<polygon fill="midnightblue" stroke="midnightblue" points="3659.86,-85.54 3663.75,-75.68 3654.56,-80.96 3659.86,-85.54"/>
</g>
<!-- Node86&#45;&gt;Node44 -->
<g id="edge168" class="edge">
<title>Node86&#45;&gt;Node44</title>
<path fill="none" stroke="midnightblue" d="M3307.99,-256.37C3254.75,-253.08 3176.97,-248.61 3109,-246 2367.15,-217.56 2178.94,-270.35 1439,-210 1425.79,-208.92 1411.68,-207.25 1398.3,-205.43"/>
<polygon fill="midnightblue" stroke="midnightblue" points="1398.62,-201.94 1388.23,-204 1397.64,-208.87 1398.62,-201.94"/>
</g>
<!-- Node86&#45;&gt;Node85 -->
<g id="edge166" class="edge">
<title>Node86&#45;&gt;Node85</title>
<path fill="none" stroke="midnightblue" d="M3378.73,-246.4C3382.59,-238.3 3387.53,-227.94 3391.94,-218.69"/>
<polygon fill="midnightblue" stroke="midnightblue" points="3395.14,-220.11 3396.29,-209.58 3388.82,-217.1 3395.14,-220.11"/>
</g>
<!-- Node88&#45;&gt;Node7 -->
<g id="edge173" class="edge">
<title>Node88&#45;&gt;Node7</title>
<path fill="none" stroke="midnightblue" d="M1442.62,-394.24C1342.49,-392.81 1128.56,-384.89 1069,-344 1035.24,-320.82 1026,-303.45 1026,-262.5 1026,-262.5 1026,-262.5 1026,-193.5 1026,-147.99 1047.94,-133.6 1088,-112 1190.74,-56.6 1495.74,-86.29 1612,-76 1628.15,-74.57 1646.03,-72.67 1661.05,-70.99"/>
<polygon fill="midnightblue" stroke="midnightblue" points="1661.87,-74.42 1671.41,-69.81 1661.08,-67.46 1661.87,-74.42"/>
</g>
<!-- Node88&#45;&gt;Node51 -->
<g id="edge175" class="edge">
<title>Node88&#45;&gt;Node51</title>
<path fill="none" stroke="midnightblue" d="M1442.76,-394.2C1327.47,-392.78 1055.08,-385.03 974,-344 948.1,-330.89 927.11,-304.4 914.4,-285.17"/>
<polygon fill="midnightblue" stroke="midnightblue" points="917.31,-283.22 908.99,-276.66 911.4,-286.97 917.31,-283.22"/>
</g>
<!-- Node88&#45;&gt;Node53 -->
<g id="edge174" class="edge">
<title>Node88&#45;&gt;Node53</title>
<path fill="none" stroke="midnightblue" d="M1547.31,-388.26C1572.82,-385.39 1603.98,-382.16 1632,-380 1999.89,-351.61 2442.43,-336.35 2605.56,-331.36"/>
<polygon fill="midnightblue" stroke="midnightblue" points="2606.01,-334.85 2615.9,-331.05 2605.8,-327.85 2606.01,-334.85"/>
</g>
</g>
</svg>
