<?xml version="1.0" encoding="UTF-8" standalone="no"?>
<!DOCTYPE svg PUBLIC "-//W3C//DTD SVG 1.1//EN"
 "http://www.w3.org/Graphics/SVG/1.1/DTD/svg11.dtd">
<!-- Generated by graphviz version 2.43.0 (0)
 -->
<!-- Title: core/execution_context/in_place_exec_ctxt.cc Pages: 1 -->
<svg width="3704pt" height="688pt"
 viewBox="0.00 0.00 3704.09 688.00" xmlns="http://www.w3.org/2000/svg" xmlns:xlink="http://www.w3.org/1999/xlink">
<g id="graph0" class="graph" transform="scale(1 1) rotate(0) translate(4 684)">
<title>core/execution_context/in_place_exec_ctxt.cc</title>
<polygon fill="white" stroke="transparent" points="-4,4 -4,-684 3700.09,-684 3700.09,4 -4,4"/>
<!-- Node1 -->
<g id="node1" class="node">
<title>Node1</title>
<g id="a_node1"><a xlink:title=" ">
<polygon fill="#bfbfbf" stroke="black" points="1354.09,-649.5 1354.09,-679.5 1484.09,-679.5 1484.09,-649.5 1354.09,-649.5"/>
<text text-anchor="start" x="1362.09" y="-667.5" font-family="Helvetica,sans-Serif" font-size="10.00">core/execution_context</text>
<text text-anchor="middle" x="1419.09" y="-656.5" font-family="Helvetica,sans-Serif" font-size="10.00">/in_place_exec_ctxt.cc</text>
</a>
</g>
</g>
<!-- Node2 -->
<g id="node2" class="node">
<title>Node2</title>
<g id="a_node2"><a xlink:href="in__place__exec__ctxt_8h.html" target="_top" xlink:title=" ">
<polygon fill="white" stroke="black" points="853.09,-291.5 853.09,-321.5 983.09,-321.5 983.09,-291.5 853.09,-291.5"/>
<text text-anchor="start" x="861.09" y="-309.5" font-family="Helvetica,sans-Serif" font-size="10.00">core/execution_context</text>
<text text-anchor="middle" x="918.09" y="-298.5" font-family="Helvetica,sans-Serif" font-size="10.00">/in_place_exec_ctxt.h</text>
</a>
</g>
</g>
<!-- Node1&#45;&gt;Node2 -->
<g id="edge1" class="edge">
<title>Node1&#45;&gt;Node2</title>
<path fill="none" stroke="midnightblue" d="M1353.96,-662.98C1122.03,-660.83 348.23,-650.82 312.09,-613 268.19,-567.05 273.41,-520.43 312.09,-470 376.8,-385.66 695.13,-335.46 842.71,-316.37"/>
<polygon fill="midnightblue" stroke="midnightblue" points="843.56,-319.79 853.04,-315.05 842.67,-312.85 843.56,-319.79"/>
</g>
<!-- Node6 -->
<g id="node6" class="node">
<title>Node6</title>
<g id="a_node6"><a xlink:title=" ">
<polygon fill="white" stroke="#bfbfbf" points="1013.59,-168.5 1013.59,-187.5 1058.59,-187.5 1058.59,-168.5 1013.59,-168.5"/>
<text text-anchor="middle" x="1036.09" y="-175.5" font-family="Helvetica,sans-Serif" font-size="10.00">utility</text>
</a>
</g>
</g>
<!-- Node1&#45;&gt;Node6 -->
<g id="edge38" class="edge">
<title>Node1&#45;&gt;Node6</title>
<path fill="none" stroke="midnightblue" d="M1354.06,-662.07C1286.93,-658.63 1180.28,-647.58 1095.09,-613 897.36,-532.73 836.23,-459.47 775.09,-255 771.15,-241.8 766.22,-234.54 775.09,-224 803.87,-189.84 939.26,-181.61 1002.89,-179.63"/>
<polygon fill="midnightblue" stroke="midnightblue" points="1003.28,-183.12 1013.18,-179.34 1003.09,-176.12 1003.28,-183.12"/>
</g>
<!-- Node29 -->
<g id="node22" class="node">
<title>Node29</title>
<g id="a_node22"><a xlink:title=" ">
<polygon fill="white" stroke="#bfbfbf" points="2378.09,-168.5 2378.09,-187.5 2442.09,-187.5 2442.09,-168.5 2378.09,-168.5"/>
<text text-anchor="middle" x="2410.09" y="-175.5" font-family="Helvetica,sans-Serif" font-size="10.00">algorithm</text>
</a>
</g>
</g>
<!-- Node1&#45;&gt;Node29 -->
<g id="edge36" class="edge">
<title>Node1&#45;&gt;Node29</title>
<path fill="none" stroke="midnightblue" d="M1484.26,-662.66C1645.41,-659.28 2074.6,-642.29 2420.09,-557 2485.56,-540.84 2521.98,-555.93 2561.09,-501 2616.57,-423.09 2572.69,-366.59 2514.09,-291 2485.69,-254.37 2447.63,-215.58 2426.31,-194.63"/>
<polygon fill="midnightblue" stroke="midnightblue" points="2428.62,-192 2419.01,-187.52 2423.73,-197.01 2428.62,-192"/>
</g>
<!-- Node30 -->
<g id="node23" class="node">
<title>Node30</title>
<g id="a_node23"><a xlink:title=" ">
<polygon fill="white" stroke="#bfbfbf" points="1064.09,-230 1064.09,-249 1112.09,-249 1112.09,-230 1064.09,-230"/>
<text text-anchor="middle" x="1088.09" y="-237" font-family="Helvetica,sans-Serif" font-size="10.00">mutex</text>
</a>
</g>
</g>
<!-- Node1&#45;&gt;Node30 -->
<g id="edge37" class="edge">
<title>Node1&#45;&gt;Node30</title>
<path fill="none" stroke="midnightblue" d="M1353.84,-660.72C1255.31,-652.59 1071.23,-621.19 988.09,-501 931.14,-418.66 1031.33,-299.48 1072.05,-256.61"/>
<polygon fill="midnightblue" stroke="midnightblue" points="1074.68,-258.92 1079.12,-249.31 1069.65,-254.06 1074.68,-258.92"/>
</g>
<!-- Node31 -->
<g id="node24" class="node">
<title>Node31</title>
<g id="a_node24"><a xlink:href="agent_8h.html" target="_top" xlink:title=" ">
<polygon fill="white" stroke="black" points="1814.09,-414.5 1814.09,-433.5 1922.09,-433.5 1922.09,-414.5 1814.09,-414.5"/>
<text text-anchor="middle" x="1868.09" y="-421.5" font-family="Helvetica,sans-Serif" font-size="10.00">core/agent/agent.h</text>
</a>
</g>
</g>
<!-- Node1&#45;&gt;Node31 -->
<g id="edge39" class="edge">
<title>Node1&#45;&gt;Node31</title>
<path fill="none" stroke="midnightblue" d="M1438.01,-649.28C1484.93,-614.55 1611.29,-524.31 1728.09,-470 1758.92,-455.67 1795.55,-444.07 1823.61,-436.24"/>
<polygon fill="midnightblue" stroke="midnightblue" points="1824.81,-439.54 1833.53,-433.53 1822.96,-432.79 1824.81,-439.54"/>
</g>
<!-- Node63 -->
<g id="node41" class="node">
<title>Node63</title>
<g id="a_node41"><a xlink:href="environment_8h.html" target="_top" xlink:title=" ">
<polygon fill="white" stroke="black" points="1564.59,-593.5 1564.59,-612.5 1741.59,-612.5 1741.59,-593.5 1564.59,-593.5"/>
<text text-anchor="middle" x="1653.09" y="-600.5" font-family="Helvetica,sans-Serif" font-size="10.00">core/environment/environment.h</text>
</a>
</g>
</g>
<!-- Node1&#45;&gt;Node63 -->
<g id="edge94" class="edge">
<title>Node1&#45;&gt;Node63</title>
<path fill="none" stroke="midnightblue" d="M1474.25,-649.47C1515.68,-638.94 1571.62,-624.72 1609.84,-615"/>
<polygon fill="midnightblue" stroke="midnightblue" points="1610.81,-618.36 1619.64,-612.51 1609.08,-611.58 1610.81,-618.36"/>
</g>
<!-- Node66 -->
<g id="node43" class="node">
<title>Node66</title>
<g id="a_node43"><a xlink:href="resource__manager_8h.html" target="_top" xlink:title=" ">
<polygon fill="white" stroke="black" points="1699.09,-537.5 1699.09,-556.5 1839.09,-556.5 1839.09,-537.5 1699.09,-537.5"/>
<text text-anchor="middle" x="1769.09" y="-544.5" font-family="Helvetica,sans-Serif" font-size="10.00">core/resource_manager.h</text>
</a>
</g>
</g>
<!-- Node1&#45;&gt;Node66 -->
<g id="edge168" class="edge">
<title>Node1&#45;&gt;Node66</title>
<path fill="none" stroke="midnightblue" d="M1484.13,-661.79C1569.38,-658.22 1712.61,-647.15 1751.09,-613 1764.07,-601.48 1768.06,-581.51 1769.11,-566.74"/>
<polygon fill="midnightblue" stroke="midnightblue" points="1772.61,-566.79 1769.45,-556.68 1765.61,-566.56 1772.61,-566.79"/>
</g>
<!-- Node68 -->
<g id="node45" class="node">
<title>Node68</title>
<g id="a_node45"><a xlink:href="scheduler_8h.html" target="_top" xlink:title=" ">
<polygon fill="white" stroke="black" points="2802.09,-414.5 2802.09,-433.5 2898.09,-433.5 2898.09,-414.5 2802.09,-414.5"/>
<text text-anchor="middle" x="2850.09" y="-421.5" font-family="Helvetica,sans-Serif" font-size="10.00">core/scheduler.h</text>
</a>
</g>
</g>
<!-- Node1&#45;&gt;Node68 -->
<g id="edge169" class="edge">
<title>Node1&#45;&gt;Node68</title>
<path fill="none" stroke="midnightblue" d="M1484.14,-663.58C1825.55,-663.79 3398.15,-662.08 3488.09,-613 3545.82,-581.5 3571.02,-518.02 3526.09,-470 3484.36,-425.4 3065.26,-423.55 2908.69,-424.44"/>
<polygon fill="midnightblue" stroke="midnightblue" points="2908.29,-420.94 2898.32,-424.5 2908.34,-427.94 2908.29,-420.94"/>
</g>
<!-- Node3 -->
<g id="node3" class="node">
<title>Node3</title>
<g id="a_node3"><a xlink:title=" ">
<polygon fill="white" stroke="#bfbfbf" points="791.09,-168.5 791.09,-187.5 841.09,-187.5 841.09,-168.5 791.09,-168.5"/>
<text text-anchor="middle" x="816.09" y="-175.5" font-family="Helvetica,sans-Serif" font-size="10.00">atomic</text>
</a>
</g>
</g>
<!-- Node2&#45;&gt;Node3 -->
<g id="edge2" class="edge">
<title>Node2&#45;&gt;Node3</title>
<path fill="none" stroke="midnightblue" d="M918.85,-291.35C919.05,-273.83 916.93,-243.87 902.09,-224 889.5,-207.14 868.73,-196.02 850.76,-189.05"/>
<polygon fill="midnightblue" stroke="midnightblue" points="851.72,-185.68 841.13,-185.6 849.36,-192.27 851.72,-185.68"/>
</g>
<!-- Node4 -->
<g id="node4" class="node">
<title>Node4</title>
<g id="a_node4"><a xlink:title=" ">
<polygon fill="white" stroke="#bfbfbf" points="2832.59,-0.5 2832.59,-19.5 2897.59,-19.5 2897.59,-0.5 2832.59,-0.5"/>
<text text-anchor="middle" x="2865.09" y="-7.5" font-family="Helvetica,sans-Serif" font-size="10.00">functional</text>
</a>
</g>
</g>
<!-- Node2&#45;&gt;Node4 -->
<g id="edge3" class="edge">
<title>Node2&#45;&gt;Node4</title>
<path fill="none" stroke="midnightblue" d="M853.09,-304.76C718.34,-302.47 413.14,-293.11 317.09,-255 296.51,-246.83 297.41,-234.81 278.09,-224 237.24,-201.14 205.95,-226.35 179.09,-188 163.57,-165.84 191.32,-125.39 203.09,-112 235.47,-75.2 250.92,-69.31 298.09,-56 424.54,-20.31 2496.3,-12.19 2822.12,-11.13"/>
<polygon fill="midnightblue" stroke="midnightblue" points="2822.55,-14.63 2832.54,-11.1 2822.53,-7.63 2822.55,-14.63"/>
</g>
<!-- Node5 -->
<g id="node5" class="node">
<title>Node5</title>
<g id="a_node5"><a xlink:title=" ">
<polygon fill="white" stroke="#bfbfbf" points="2043.09,-230 2043.09,-249 2101.09,-249 2101.09,-230 2043.09,-230"/>
<text text-anchor="middle" x="2072.09" y="-237" font-family="Helvetica,sans-Serif" font-size="10.00">memory</text>
</a>
</g>
</g>
<!-- Node2&#45;&gt;Node5 -->
<g id="edge4" class="edge">
<title>Node2&#45;&gt;Node5</title>
<path fill="none" stroke="midnightblue" d="M983.37,-305.66C1151.72,-305.36 1614.2,-300.15 1996.09,-255 2008.16,-253.57 2021.2,-251.34 2033,-249.06"/>
<polygon fill="midnightblue" stroke="midnightblue" points="2033.89,-252.45 2043.01,-247.05 2032.52,-245.58 2033.89,-252.45"/>
</g>
<!-- Node2&#45;&gt;Node6 -->
<g id="edge5" class="edge">
<title>Node2&#45;&gt;Node6</title>
<path fill="none" stroke="midnightblue" d="M928.36,-291.32C940.78,-274.55 962.69,-246.11 984.09,-224 994.34,-213.41 1006.8,-202.57 1016.95,-194.18"/>
<polygon fill="midnightblue" stroke="midnightblue" points="1019.28,-196.8 1024.83,-187.78 1014.87,-191.37 1019.28,-196.8"/>
</g>
<!-- Node7 -->
<g id="node7" class="node">
<title>Node7</title>
<g id="a_node7"><a xlink:title=" ">
<polygon fill="white" stroke="#bfbfbf" points="2648.59,-168.5 2648.59,-187.5 2695.59,-187.5 2695.59,-168.5 2648.59,-168.5"/>
<text text-anchor="middle" x="2672.09" y="-175.5" font-family="Helvetica,sans-Serif" font-size="10.00">vector</text>
</a>
</g>
</g>
<!-- Node2&#45;&gt;Node7 -->
<g id="edge6" class="edge">
<title>Node2&#45;&gt;Node7</title>
<path fill="none" stroke="midnightblue" d="M983.18,-304.43C1218.65,-300.36 2025.79,-284.54 2282.09,-255 2415.44,-239.63 2571.4,-203.72 2638.55,-187.37"/>
<polygon fill="midnightblue" stroke="midnightblue" points="2639.67,-190.7 2648.55,-184.92 2638.01,-183.9 2639.67,-190.7"/>
</g>
<!-- Node8 -->
<g id="node8" class="node">
<title>Node8</title>
<g id="a_node8"><a xlink:href="agent__handle_8h.html" target="_top" xlink:title=" ">
<polygon fill="white" stroke="black" points="582.09,-230 582.09,-249 728.09,-249 728.09,-230 582.09,-230"/>
<text text-anchor="middle" x="655.09" y="-237" font-family="Helvetica,sans-Serif" font-size="10.00">core/agent/agent_handle.h</text>
</a>
</g>
</g>
<!-- Node2&#45;&gt;Node8 -->
<g id="edge7" class="edge">
<title>Node2&#45;&gt;Node8</title>
<path fill="none" stroke="midnightblue" d="M861.35,-291.48C812.88,-279.5 744.11,-262.5 699.55,-251.49"/>
<polygon fill="midnightblue" stroke="midnightblue" points="700.15,-248.03 689.6,-249.03 698.47,-254.83 700.15,-248.03"/>
</g>
<!-- Node20 -->
<g id="node13" class="node">
<title>Node20</title>
<g id="a_node13"><a xlink:href="agent__uid_8h.html" target="_top" xlink:title=" ">
<polygon fill="white" stroke="black" points="1342.09,-168.5 1342.09,-187.5 1470.09,-187.5 1470.09,-168.5 1342.09,-168.5"/>
<text text-anchor="middle" x="1406.09" y="-175.5" font-family="Helvetica,sans-Serif" font-size="10.00">core/agent/agent_uid.h</text>
</a>
</g>
</g>
<!-- Node2&#45;&gt;Node20 -->
<g id="edge13" class="edge">
<title>Node2&#45;&gt;Node20</title>
<path fill="none" stroke="midnightblue" d="M936.38,-291.25C961.56,-272.45 1009.05,-239.88 1055.09,-224 1146.85,-192.36 1259.03,-182.63 1331.48,-179.82"/>
<polygon fill="midnightblue" stroke="midnightblue" points="1332,-183.31 1341.87,-179.46 1331.76,-176.31 1332,-183.31"/>
</g>
<!-- Node21 -->
<g id="node14" class="node">
<title>Node21</title>
<g id="a_node14"><a xlink:href="agent__uid__map_8h.html" target="_top" xlink:title=" ">
<polygon fill="white" stroke="black" points="1168.59,-224.5 1168.59,-254.5 1285.59,-254.5 1285.59,-224.5 1168.59,-224.5"/>
<text text-anchor="start" x="1176.59" y="-242.5" font-family="Helvetica,sans-Serif" font-size="10.00">core/container/agent</text>
<text text-anchor="middle" x="1227.09" y="-231.5" font-family="Helvetica,sans-Serif" font-size="10.00">_uid_map.h</text>
</a>
</g>
</g>
<!-- Node2&#45;&gt;Node21 -->
<g id="edge16" class="edge">
<title>Node2&#45;&gt;Node21</title>
<path fill="none" stroke="midnightblue" d="M983.25,-291.79C1034.73,-280.96 1106.38,-265.89 1158.69,-254.89"/>
<polygon fill="midnightblue" stroke="midnightblue" points="1159.48,-258.3 1168.55,-252.81 1158.04,-251.45 1159.48,-258.3"/>
</g>
<!-- Node22 -->
<g id="node15" class="node">
<title>Node22</title>
<g id="a_node15"><a xlink:href="functor_8h.html" target="_top" xlink:title=" ">
<polygon fill="white" stroke="black" points="186.59,-230 186.59,-249 269.59,-249 269.59,-230 186.59,-230"/>
<text text-anchor="middle" x="228.09" y="-237" font-family="Helvetica,sans-Serif" font-size="10.00">core/functor.h</text>
</a>
</g>
</g>
<!-- Node2&#45;&gt;Node22 -->
<g id="edge20" class="edge">
<title>Node2&#45;&gt;Node22</title>
<path fill="none" stroke="midnightblue" d="M852.83,-304.04C737.39,-300.62 489.9,-289.57 284.09,-255 278.58,-254.07 272.82,-252.87 267.18,-251.54"/>
<polygon fill="midnightblue" stroke="midnightblue" points="267.79,-248.09 257.24,-249.07 266.1,-254.88 267.79,-248.09"/>
</g>
<!-- Node23 -->
<g id="node16" class="node">
<title>Node23</title>
<g id="a_node16"><a xlink:href="operation_8h.html" target="_top" xlink:title=" ">
<polygon fill="white" stroke="black" points="3162.09,-230 3162.09,-249 3308.09,-249 3308.09,-230 3162.09,-230"/>
<text text-anchor="middle" x="3235.09" y="-237" font-family="Helvetica,sans-Serif" font-size="10.00">core/operation/operation.h</text>
</a>
</g>
</g>
<!-- Node2&#45;&gt;Node23 -->
<g id="edge21" class="edge">
<title>Node2&#45;&gt;Node23</title>
<path fill="none" stroke="midnightblue" d="M983.51,-304.37C1234.75,-299.91 2161.83,-282.45 2925.09,-255 3001.85,-252.24 3089.26,-248.06 3151.65,-244.89"/>
<polygon fill="midnightblue" stroke="midnightblue" points="3152.02,-248.38 3161.83,-244.37 3151.66,-241.39 3152.02,-248.38"/>
</g>
<!-- Node24 -->
<g id="node17" class="node">
<title>Node24</title>
<g id="a_node17"><a xlink:href="spinlock_8h.html" target="_top" xlink:title=" ">
<polygon fill="white" stroke="black" points="784.59,-230 784.59,-249 893.59,-249 893.59,-230 784.59,-230"/>
<text text-anchor="middle" x="839.09" y="-237" font-family="Helvetica,sans-Serif" font-size="10.00">core/util/spinlock.h</text>
</a>
</g>
</g>
<!-- Node2&#45;&gt;Node24 -->
<g id="edge26" class="edge">
<title>Node2&#45;&gt;Node24</title>
<path fill="none" stroke="midnightblue" d="M900.95,-291.4C888.15,-280.86 870.66,-266.48 857.55,-255.69"/>
<polygon fill="midnightblue" stroke="midnightblue" points="859.61,-252.85 849.66,-249.19 855.16,-258.25 859.61,-252.85"/>
</g>
<!-- Node25 -->
<g id="node18" class="node">
<title>Node25</title>
<g id="a_node18"><a xlink:href="thread__info_8h.html" target="_top" xlink:title=" ">
<polygon fill="white" stroke="black" points="326.09,-230 326.09,-249 450.09,-249 450.09,-230 326.09,-230"/>
<text text-anchor="middle" x="388.09" y="-237" font-family="Helvetica,sans-Serif" font-size="10.00">core/util/thread_info.h</text>
</a>
</g>
</g>
<!-- Node2&#45;&gt;Node25 -->
<g id="edge28" class="edge">
<title>Node2&#45;&gt;Node25</title>
<path fill="none" stroke="midnightblue" d="M852.84,-297.5C753.23,-285.28 563.92,-262.06 460.31,-249.36"/>
<polygon fill="midnightblue" stroke="midnightblue" points="460.6,-245.87 450.25,-248.12 459.75,-252.81 460.6,-245.87"/>
</g>
<!-- Node9 -->
<g id="node9" class="node">
<title>Node9</title>
<g id="a_node9"><a xlink:title=" ">
<polygon fill="white" stroke="#bfbfbf" points="1205.09,-112.5 1205.09,-131.5 1249.09,-131.5 1249.09,-112.5 1205.09,-112.5"/>
<text text-anchor="middle" x="1227.09" y="-119.5" font-family="Helvetica,sans-Serif" font-size="10.00">limits</text>
</a>
</g>
</g>
<!-- Node8&#45;&gt;Node9 -->
<g id="edge8" class="edge">
<title>Node8&#45;&gt;Node9</title>
<path fill="none" stroke="midnightblue" d="M662.08,-229.63C674.99,-214.01 704.25,-181.92 737.09,-168 820.12,-132.81 1099.44,-125.06 1194.84,-123.42"/>
<polygon fill="midnightblue" stroke="midnightblue" points="1195.09,-126.92 1205.03,-123.26 1194.97,-119.92 1195.09,-126.92"/>
</g>
<!-- Node10 -->
<g id="node10" class="node">
<title>Node10</title>
<g id="a_node10"><a xlink:href="root_8h.html" target="_top" xlink:title=" ">
<polygon fill="white" stroke="red" points="2857.09,-112.5 2857.09,-131.5 2945.09,-131.5 2945.09,-112.5 2857.09,-112.5"/>
<text text-anchor="middle" x="2901.09" y="-119.5" font-family="Helvetica,sans-Serif" font-size="10.00">core/util/root.h</text>
</a>
</g>
</g>
<!-- Node8&#45;&gt;Node10 -->
<g id="edge9" class="edge">
<title>Node8&#45;&gt;Node10</title>
<path fill="none" stroke="midnightblue" d="M668.82,-229.76C696.46,-212.35 758.24,-174.45 782.09,-168 884.55,-140.3 2523.97,-125.98 2846.32,-123.42"/>
<polygon fill="midnightblue" stroke="midnightblue" points="2846.82,-126.91 2856.79,-123.34 2846.77,-119.92 2846.82,-126.91"/>
</g>
<!-- Node12 -->
<g id="node11" class="node">
<title>Node12</title>
<g id="a_node11"><a xlink:href="log_8h.html" target="_top" xlink:title=" ">
<polygon fill="white" stroke="red" points="2858.59,-56.5 2858.59,-75.5 2941.59,-75.5 2941.59,-56.5 2858.59,-56.5"/>
<text text-anchor="middle" x="2900.09" y="-63.5" font-family="Helvetica,sans-Serif" font-size="10.00">core/util/log.h</text>
</a>
</g>
</g>
<!-- Node10&#45;&gt;Node12 -->
<g id="edge10" class="edge">
<title>Node10&#45;&gt;Node12</title>
<path fill="none" stroke="midnightblue" d="M2900.93,-112.08C2900.8,-105.01 2900.61,-94.86 2900.44,-85.99"/>
<polygon fill="midnightblue" stroke="midnightblue" points="2903.94,-85.68 2900.25,-75.75 2896.94,-85.81 2903.94,-85.68"/>
</g>
<!-- Node12&#45;&gt;Node4 -->
<g id="edge11" class="edge">
<title>Node12&#45;&gt;Node4</title>
<path fill="none" stroke="midnightblue" d="M2894.31,-56.08C2889.42,-48.53 2882.27,-37.49 2876.26,-28.23"/>
<polygon fill="midnightblue" stroke="midnightblue" points="2879.14,-26.24 2870.76,-19.75 2873.27,-30.05 2879.14,-26.24"/>
</g>
<!-- Node17 -->
<g id="node12" class="node">
<title>Node17</title>
<g id="a_node12"><a xlink:title=" ">
<polygon fill="white" stroke="#bfbfbf" points="3454.09,-0.5 3454.09,-19.5 3498.09,-19.5 3498.09,-0.5 3454.09,-0.5"/>
<text text-anchor="middle" x="3476.09" y="-7.5" font-family="Helvetica,sans-Serif" font-size="10.00">string</text>
</a>
</g>
</g>
<!-- Node12&#45;&gt;Node17 -->
<g id="edge12" class="edge">
<title>Node12&#45;&gt;Node17</title>
<path fill="none" stroke="midnightblue" d="M2941.98,-61.07C3051.65,-50.79 3345.47,-23.25 3443.65,-14.04"/>
<polygon fill="midnightblue" stroke="midnightblue" points="3444.21,-17.5 3453.84,-13.09 3443.56,-10.53 3444.21,-17.5"/>
</g>
<!-- Node20&#45;&gt;Node9 -->
<g id="edge14" class="edge">
<title>Node20&#45;&gt;Node9</title>
<path fill="none" stroke="midnightblue" d="M1377.73,-168.44C1345.39,-158.69 1292.65,-142.78 1258.93,-132.6"/>
<polygon fill="midnightblue" stroke="midnightblue" points="1259.7,-129.18 1249.12,-129.64 1257.68,-135.88 1259.7,-129.18"/>
</g>
<!-- Node20&#45;&gt;Node10 -->
<g id="edge15" class="edge">
<title>Node20&#45;&gt;Node10</title>
<path fill="none" stroke="midnightblue" d="M1470.33,-174.68C1718.99,-165.7 2615.87,-133.3 2846.64,-124.97"/>
<polygon fill="midnightblue" stroke="midnightblue" points="2846.94,-128.46 2856.81,-124.6 2846.69,-121.46 2846.94,-128.46"/>
</g>
<!-- Node21&#45;&gt;Node7 -->
<g id="edge18" class="edge">
<title>Node21&#45;&gt;Node7</title>
<path fill="none" stroke="midnightblue" d="M1285.69,-234.18C1330.22,-231.01 1392.99,-226.8 1448.09,-224 1893.58,-201.4 2005.35,-205.08 2451.09,-188 2517.42,-185.46 2594.93,-182.25 2638.29,-180.43"/>
<polygon fill="midnightblue" stroke="midnightblue" points="2638.7,-183.91 2648.54,-180 2638.41,-176.92 2638.7,-183.91"/>
</g>
<!-- Node21&#45;&gt;Node9 -->
<g id="edge17" class="edge">
<title>Node21&#45;&gt;Node9</title>
<path fill="none" stroke="midnightblue" d="M1227.09,-224.34C1227.09,-203.62 1227.09,-165.02 1227.09,-141.9"/>
<polygon fill="midnightblue" stroke="midnightblue" points="1230.59,-141.67 1227.09,-131.67 1223.59,-141.67 1230.59,-141.67"/>
</g>
<!-- Node21&#45;&gt;Node20 -->
<g id="edge19" class="edge">
<title>Node21&#45;&gt;Node20</title>
<path fill="none" stroke="midnightblue" d="M1269.51,-224.4C1300.31,-214.16 1341.5,-200.47 1370.57,-190.81"/>
<polygon fill="midnightblue" stroke="midnightblue" points="1371.92,-194.05 1380.31,-187.57 1369.71,-187.4 1371.92,-194.05"/>
</g>
<!-- Node23&#45;&gt;Node4 -->
<g id="edge22" class="edge">
<title>Node23&#45;&gt;Node4</title>
<path fill="none" stroke="midnightblue" d="M3229.46,-229.74C3219.9,-215.38 3199.25,-186.58 3176.09,-168 3086.94,-96.47 2959.94,-44.99 2899.55,-22.94"/>
<polygon fill="midnightblue" stroke="midnightblue" points="2900.69,-19.63 2890.1,-19.53 2898.32,-26.22 2900.69,-19.63"/>
</g>
<!-- Node23&#45;&gt;Node7 -->
<g id="edge24" class="edge">
<title>Node23&#45;&gt;Node7</title>
<path fill="none" stroke="midnightblue" d="M3162.07,-230.78C3038.99,-217.77 2794.93,-191.98 2705.74,-182.56"/>
<polygon fill="midnightblue" stroke="midnightblue" points="2705.96,-179.06 2695.65,-181.49 2705.23,-186.02 2705.96,-179.06"/>
</g>
<!-- Node23&#45;&gt;Node12 -->
<g id="edge25" class="edge">
<title>Node23&#45;&gt;Node12</title>
<path fill="none" stroke="midnightblue" d="M3226.12,-229.7C3211.04,-215.28 3179.22,-186.4 3148.09,-168 3078.27,-126.72 2988.42,-94.79 2938.28,-78.65"/>
<polygon fill="midnightblue" stroke="midnightblue" points="2939.09,-75.23 2928.5,-75.53 2936.97,-81.9 2939.09,-75.23"/>
</g>
<!-- Node23&#45;&gt;Node17 -->
<g id="edge23" class="edge">
<title>Node23&#45;&gt;Node17</title>
<path fill="none" stroke="midnightblue" d="M3247.53,-229.73C3260.96,-220.07 3282.76,-203.78 3300.09,-188 3359.61,-133.81 3366.03,-111.74 3424.09,-56 3434.86,-45.66 3447.51,-34.69 3457.64,-26.17"/>
<polygon fill="midnightblue" stroke="midnightblue" points="3460.01,-28.75 3465.45,-19.66 3455.53,-23.37 3460.01,-28.75"/>
</g>
<!-- Node24&#45;&gt;Node3 -->
<g id="edge27" class="edge">
<title>Node24&#45;&gt;Node3</title>
<path fill="none" stroke="midnightblue" d="M835.8,-229.98C832.48,-221.4 827.27,-207.93 823.04,-196.98"/>
<polygon fill="midnightblue" stroke="midnightblue" points="826.25,-195.57 819.38,-187.51 819.72,-198.1 826.25,-195.57"/>
</g>
<!-- Node25&#45;&gt;Node3 -->
<g id="edge31" class="edge">
<title>Node25&#45;&gt;Node3</title>
<path fill="none" stroke="midnightblue" d="M449.41,-229.98C540.4,-217.33 708.22,-194 780.95,-183.88"/>
<polygon fill="midnightblue" stroke="midnightblue" points="781.55,-187.34 790.97,-182.49 780.59,-180.4 781.55,-187.34"/>
</g>
<!-- Node25&#45;&gt;Node7 -->
<g id="edge32" class="edge">
<title>Node25&#45;&gt;Node7</title>
<path fill="none" stroke="midnightblue" d="M450.12,-232.72C486.02,-229.6 532.07,-226 573.09,-224 1406.92,-183.37 1616.65,-212.99 2451.09,-188 2517.44,-186.01 2594.94,-182.61 2638.29,-180.6"/>
<polygon fill="midnightblue" stroke="midnightblue" points="2638.72,-184.09 2648.55,-180.13 2638.4,-177.09 2638.72,-184.09"/>
</g>
<!-- Node25&#45;&gt;Node12 -->
<g id="edge33" class="edge">
<title>Node25&#45;&gt;Node12</title>
<path fill="none" stroke="midnightblue" d="M394.21,-229.84C405.79,-214.24 432.6,-181.77 464.09,-168 763.06,-37.31 870.24,-128.76 1196.09,-112 1847.53,-78.5 2640.41,-69.33 2848.24,-67.42"/>
<polygon fill="midnightblue" stroke="midnightblue" points="2848.58,-70.92 2858.55,-67.33 2848.51,-63.92 2848.58,-70.92"/>
</g>
<!-- Node26 -->
<g id="node19" class="node">
<title>Node26</title>
<g id="a_node19"><a xlink:title=" ">
<polygon fill="white" stroke="#bfbfbf" points="212.59,-112.5 212.59,-131.5 259.59,-131.5 259.59,-112.5 212.59,-112.5"/>
<text text-anchor="middle" x="236.09" y="-119.5" font-family="Helvetica,sans-Serif" font-size="10.00">omp.h</text>
</a>
</g>
</g>
<!-- Node25&#45;&gt;Node26 -->
<g id="edge29" class="edge">
<title>Node25&#45;&gt;Node26</title>
<path fill="none" stroke="midnightblue" d="M376.67,-229.82C350.92,-210.25 288.1,-162.52 255.87,-138.03"/>
<polygon fill="midnightblue" stroke="midnightblue" points="257.73,-135.05 247.65,-131.78 253.49,-140.62 257.73,-135.05"/>
</g>
<!-- Node27 -->
<g id="node20" class="node">
<title>Node27</title>
<g id="a_node20"><a xlink:title=" ">
<polygon fill="white" stroke="#bfbfbf" points="56.09,-168.5 56.09,-187.5 110.09,-187.5 110.09,-168.5 56.09,-168.5"/>
<text text-anchor="middle" x="83.09" y="-175.5" font-family="Helvetica,sans-Serif" font-size="10.00">sched.h</text>
</a>
</g>
</g>
<!-- Node25&#45;&gt;Node27 -->
<g id="edge30" class="edge">
<title>Node25&#45;&gt;Node27</title>
<path fill="none" stroke="midnightblue" d="M344.39,-229.98C284.23,-218.24 176.92,-197.3 120.35,-186.27"/>
<polygon fill="midnightblue" stroke="midnightblue" points="120.89,-182.81 110.4,-184.33 119.55,-189.68 120.89,-182.81"/>
</g>
<!-- Node28 -->
<g id="node21" class="node">
<title>Node28</title>
<g id="a_node21"><a xlink:href="numa_8h.html" target="_top" xlink:title=" ">
<polygon fill="white" stroke="black" points="188.09,-168.5 188.09,-187.5 284.09,-187.5 284.09,-168.5 188.09,-168.5"/>
<text text-anchor="middle" x="236.09" y="-175.5" font-family="Helvetica,sans-Serif" font-size="10.00">core/util/numa.h</text>
</a>
</g>
</g>
<!-- Node25&#45;&gt;Node28 -->
<g id="edge34" class="edge">
<title>Node25&#45;&gt;Node28</title>
<path fill="none" stroke="midnightblue" d="M366.31,-229.98C340.35,-219.81 296.78,-202.76 267.26,-191.2"/>
<polygon fill="midnightblue" stroke="midnightblue" points="268.42,-187.9 257.83,-187.51 265.87,-194.41 268.42,-187.9"/>
</g>
<!-- Node28&#45;&gt;Node26 -->
<g id="edge35" class="edge">
<title>Node28&#45;&gt;Node26</title>
<path fill="none" stroke="midnightblue" d="M236.09,-168.08C236.09,-161.01 236.09,-150.86 236.09,-141.99"/>
<polygon fill="midnightblue" stroke="midnightblue" points="239.59,-141.75 236.09,-131.75 232.59,-141.75 239.59,-141.75"/>
</g>
<!-- Node31&#45;&gt;Node5 -->
<g id="edge43" class="edge">
<title>Node31&#45;&gt;Node5</title>
<path fill="none" stroke="midnightblue" d="M1887.67,-414.42C1929.68,-395.64 2026.44,-350.32 2048.09,-322 2062.27,-303.46 2068.09,-276.7 2070.47,-258.96"/>
<polygon fill="midnightblue" stroke="midnightblue" points="2073.95,-259.34 2071.57,-249.02 2066.99,-258.57 2073.95,-259.34"/>
</g>
<!-- Node31&#45;&gt;Node7 -->
<g id="edge49" class="edge">
<title>Node31&#45;&gt;Node7</title>
<path fill="none" stroke="midnightblue" d="M1922.24,-421.27C1989.97,-417.86 2108.88,-407.79 2206.09,-378 2352.8,-333.04 2372.07,-279.59 2515.09,-224 2556.71,-207.82 2606.52,-194.52 2638.71,-186.68"/>
<polygon fill="midnightblue" stroke="midnightblue" points="2639.6,-190.06 2648.51,-184.33 2637.97,-183.26 2639.6,-190.06"/>
</g>
<!-- Node31&#45;&gt;Node9 -->
<g id="edge42" class="edge">
<title>Node31&#45;&gt;Node9</title>
<path fill="none" stroke="midnightblue" d="M1813.71,-421.5C1550.14,-413.98 412.27,-378.46 265.09,-322 219.2,-304.4 198.92,-299.05 177.09,-255 170.98,-242.65 168.33,-234.63 177.09,-224 197.75,-198.92 431.86,-172.08 464.09,-168 745.69,-132.39 1089.4,-124.87 1194.83,-123.36"/>
<polygon fill="midnightblue" stroke="midnightblue" points="1194.88,-126.86 1204.83,-123.23 1194.79,-119.86 1194.88,-126.86"/>
</g>
<!-- Node31&#45;&gt;Node10 -->
<g id="edge88" class="edge">
<title>Node31&#45;&gt;Node10</title>
<path fill="none" stroke="midnightblue" d="M1922.29,-422.09C2115.8,-418.64 2765.86,-405.14 2855.09,-378 2871.5,-373.01 2872.68,-365.51 2888.09,-358 2928.68,-338.22 2956.61,-358.57 2983.09,-322 3023.8,-265.78 3001.05,-221.72 2957.09,-168 2947.49,-156.27 2934.39,-145.54 2923.27,-137.5"/>
<polygon fill="midnightblue" stroke="midnightblue" points="2925.09,-134.5 2914.89,-131.66 2921.09,-140.25 2925.09,-134.5"/>
</g>
<!-- Node31&#45;&gt;Node17 -->
<g id="edge46" class="edge">
<title>Node31&#45;&gt;Node17</title>
<path fill="none" stroke="midnightblue" d="M1922.2,-422.47C2111.04,-420.35 2740.23,-410.91 2939.09,-378 2970.17,-372.86 2976.11,-363.68 3007.09,-358 3109.91,-339.15 3386.86,-376.45 3476.09,-322 3539.8,-283.13 3564.09,-253.63 3564.09,-179 3564.09,-179 3564.09,-179 3564.09,-121 3564.09,-79.03 3524.55,-43.9 3498.48,-25.3"/>
<polygon fill="midnightblue" stroke="midnightblue" points="3500.46,-22.41 3490.23,-19.64 3496.5,-28.18 3500.46,-22.41"/>
</g>
<!-- Node31&#45;&gt;Node20 -->
<g id="edge63" class="edge">
<title>Node31&#45;&gt;Node20</title>
<path fill="none" stroke="midnightblue" d="M1854.82,-414.3C1797.73,-376.91 1575.27,-231.4 1559.09,-224 1526.18,-208.94 1486.99,-197.53 1456.51,-189.96"/>
<polygon fill="midnightblue" stroke="midnightblue" points="1457.07,-186.5 1446.53,-187.55 1455.42,-193.3 1457.07,-186.5"/>
</g>
<!-- Node31&#45;&gt;Node24 -->
<g id="edge89" class="edge">
<title>Node31&#45;&gt;Node24</title>
<path fill="none" stroke="midnightblue" d="M1813.93,-421.76C1611.94,-416.59 910.68,-393.56 844.09,-322 828.59,-305.34 830.57,-277.51 834.2,-259.08"/>
<polygon fill="midnightblue" stroke="midnightblue" points="837.63,-259.77 836.47,-249.24 830.81,-258.2 837.63,-259.77"/>
</g>
<!-- Node31&#45;&gt;Node29 -->
<g id="edge40" class="edge">
<title>Node31&#45;&gt;Node29</title>
<path fill="none" stroke="midnightblue" d="M1922.27,-423.84C1985.45,-422.88 2091.72,-415.11 2174.09,-378 2273.13,-333.38 2363.27,-234.68 2396.53,-195.5"/>
<polygon fill="midnightblue" stroke="midnightblue" points="2399.34,-197.59 2403.08,-187.68 2393.97,-193.1 2399.34,-197.59"/>
</g>
<!-- Node32 -->
<g id="node25" class="node">
<title>Node32</title>
<g id="a_node25"><a xlink:title=" ">
<polygon fill="white" stroke="#bfbfbf" points="1944.09,-168.5 1944.09,-187.5 1996.09,-187.5 1996.09,-168.5 1944.09,-168.5"/>
<text text-anchor="middle" x="1970.09" y="-175.5" font-family="Helvetica,sans-Serif" font-size="10.00">cassert</text>
</a>
</g>
</g>
<!-- Node31&#45;&gt;Node32 -->
<g id="edge41" class="edge">
<title>Node31&#45;&gt;Node32</title>
<path fill="none" stroke="midnightblue" d="M1813.71,-422.21C1689.44,-419.83 1393.06,-410.76 1363.09,-378 1357.09,-371.44 1360.68,-366.56 1363.09,-358 1382.22,-290.12 1387.3,-259.76 1448.09,-224 1538.98,-170.54 1811.94,-203.58 1933.58,-187.8"/>
<polygon fill="midnightblue" stroke="midnightblue" points="1934.44,-191.21 1943.83,-186.29 1933.42,-184.28 1934.44,-191.21"/>
</g>
<!-- Node33 -->
<g id="node26" class="node">
<title>Node33</title>
<g id="a_node26"><a xlink:title=" ">
<polygon fill="white" stroke="#bfbfbf" points="2442.09,-297 2442.09,-316 2474.09,-316 2474.09,-297 2442.09,-297"/>
<text text-anchor="middle" x="2458.09" y="-304" font-family="Helvetica,sans-Serif" font-size="10.00">set</text>
</a>
</g>
</g>
<!-- Node31&#45;&gt;Node33 -->
<g id="edge44" class="edge">
<title>Node31&#45;&gt;Node33</title>
<path fill="none" stroke="midnightblue" d="M1922.35,-422.68C2004.87,-421 2166.24,-413.03 2298.09,-378 2348.39,-364.64 2403.08,-337.55 2433.72,-321.12"/>
<polygon fill="midnightblue" stroke="midnightblue" points="2435.67,-324.04 2442.79,-316.19 2432.33,-317.89 2435.67,-324.04"/>
</g>
<!-- Node19 -->
<g id="node27" class="node">
<title>Node19</title>
<g id="a_node27"><a xlink:title=" ">
<polygon fill="white" stroke="#bfbfbf" points="1870.09,-168.5 1870.09,-187.5 1926.09,-187.5 1926.09,-168.5 1870.09,-168.5"/>
<text text-anchor="middle" x="1898.09" y="-175.5" font-family="Helvetica,sans-Serif" font-size="10.00">sstream</text>
</a>
</g>
</g>
<!-- Node31&#45;&gt;Node19 -->
<g id="edge45" class="edge">
<title>Node31&#45;&gt;Node19</title>
<path fill="none" stroke="midnightblue" d="M1814.04,-422.79C1678.87,-421.71 1334.54,-415.28 1300.09,-378 1285.56,-362.28 1325.74,-269.92 1414.09,-224 1491.49,-183.78 1759.48,-179.17 1859.79,-178.89"/>
<polygon fill="midnightblue" stroke="midnightblue" points="1860.08,-182.39 1870.07,-178.87 1860.07,-175.39 1860.08,-182.39"/>
</g>
<!-- Node34 -->
<g id="node28" class="node">
<title>Node34</title>
<g id="a_node28"><a xlink:title=" ">
<polygon fill="white" stroke="#bfbfbf" points="1456.59,-230 1456.59,-249 1525.59,-249 1525.59,-230 1456.59,-230"/>
<text text-anchor="middle" x="1491.09" y="-237" font-family="Helvetica,sans-Serif" font-size="10.00">type_traits</text>
</a>
</g>
</g>
<!-- Node31&#45;&gt;Node34 -->
<g id="edge47" class="edge">
<title>Node31&#45;&gt;Node34</title>
<path fill="none" stroke="midnightblue" d="M1813.65,-422.12C1690.82,-419.58 1400.49,-410.18 1371.09,-378 1365.1,-371.44 1367.65,-366.19 1371.09,-358 1373.85,-351.43 1442.34,-286.41 1474.59,-256.01"/>
<polygon fill="midnightblue" stroke="midnightblue" points="1477.06,-258.49 1481.94,-249.09 1472.26,-253.4 1477.06,-258.49"/>
</g>
<!-- Node35 -->
<g id="node29" class="node">
<title>Node35</title>
<g id="a_node29"><a xlink:title=" ">
<polygon fill="white" stroke="#bfbfbf" points="3048.59,-297 3048.59,-316 3141.59,-316 3141.59,-297 3048.59,-297"/>
<text text-anchor="middle" x="3095.09" y="-304" font-family="Helvetica,sans-Serif" font-size="10.00">unordered_map</text>
</a>
</g>
</g>
<!-- Node31&#45;&gt;Node35 -->
<g id="edge48" class="edge">
<title>Node31&#45;&gt;Node35</title>
<path fill="none" stroke="midnightblue" d="M1922.19,-422.63C2105.22,-421.08 2700.29,-413.37 2888.09,-378 2953.96,-365.59 3027.42,-336.77 3066.68,-320.07"/>
<polygon fill="midnightblue" stroke="midnightblue" points="3068.1,-323.28 3075.9,-316.11 3065.33,-316.85 3068.1,-323.28"/>
</g>
<!-- Node36 -->
<g id="node30" class="node">
<title>Node36</title>
<g id="a_node30"><a xlink:href="agent__pointer_8h.html" target="_top" xlink:title=" ">
<polygon fill="white" stroke="red" points="1540.59,-358.5 1540.59,-377.5 1687.59,-377.5 1687.59,-358.5 1540.59,-358.5"/>
<text text-anchor="middle" x="1614.09" y="-365.5" font-family="Helvetica,sans-Serif" font-size="10.00">core/agent/agent_pointer.h</text>
</a>
</g>
</g>
<!-- Node31&#45;&gt;Node36 -->
<g id="edge50" class="edge">
<title>Node31&#45;&gt;Node36</title>
<path fill="none" stroke="midnightblue" d="M1827.85,-414.44C1783.44,-405 1711.94,-389.8 1664,-379.61"/>
<polygon fill="midnightblue" stroke="midnightblue" points="1664.66,-376.17 1654.15,-377.52 1663.2,-383.02 1664.66,-376.17"/>
</g>
<!-- Node52 -->
<g id="node33" class="node">
<title>Node52</title>
<g id="a_node33"><a xlink:href="new__agent__event_8h.html" target="_top" xlink:title=" ">
<polygon fill="white" stroke="black" points="1842.59,-291.5 1842.59,-321.5 1967.59,-321.5 1967.59,-291.5 1842.59,-291.5"/>
<text text-anchor="start" x="1850.59" y="-309.5" font-family="Helvetica,sans-Serif" font-size="10.00">core/agent/new_agent</text>
<text text-anchor="middle" x="1905.09" y="-298.5" font-family="Helvetica,sans-Serif" font-size="10.00">_event.h</text>
</a>
</g>
</g>
<!-- Node31&#45;&gt;Node52 -->
<g id="edge64" class="edge">
<title>Node31&#45;&gt;Node52</title>
<path fill="none" stroke="midnightblue" d="M1870.87,-414.32C1876.46,-396.89 1889.2,-357.1 1897.46,-331.31"/>
<polygon fill="midnightblue" stroke="midnightblue" points="1900.88,-332.14 1900.59,-321.55 1894.21,-330 1900.88,-332.14"/>
</g>
<!-- Node53 -->
<g id="node34" class="node">
<title>Node53</title>
<g id="a_node34"><a xlink:href="inline__vector_8h.html" target="_top" xlink:title=" ">
<polygon fill="white" stroke="red" points="1871.09,-224.5 1871.09,-254.5 1987.09,-254.5 1987.09,-224.5 1871.09,-224.5"/>
<text text-anchor="start" x="1879.09" y="-242.5" font-family="Helvetica,sans-Serif" font-size="10.00">core/container/inline</text>
<text text-anchor="middle" x="1929.09" y="-231.5" font-family="Helvetica,sans-Serif" font-size="10.00">_vector.h</text>
</a>
</g>
</g>
<!-- Node31&#45;&gt;Node53 -->
<g id="edge76" class="edge">
<title>Node31&#45;&gt;Node53</title>
<path fill="none" stroke="midnightblue" d="M1883.78,-414.34C1909.05,-399.37 1957.89,-365.98 1977.09,-322 1982.61,-309.37 1982.2,-303.79 1977.09,-291 1972.63,-279.82 1964.38,-269.7 1955.96,-261.5"/>
<polygon fill="midnightblue" stroke="midnightblue" points="1958.05,-258.67 1948.29,-254.55 1953.35,-263.86 1958.05,-258.67"/>
</g>
<!-- Node48 -->
<g id="node35" class="node">
<title>Node48</title>
<g id="a_node35"><a xlink:href="math__array_8h.html" target="_top" xlink:title=" ">
<polygon fill="white" stroke="red" points="2157.59,-224.5 2157.59,-254.5 2272.59,-254.5 2272.59,-224.5 2157.59,-224.5"/>
<text text-anchor="start" x="2165.59" y="-242.5" font-family="Helvetica,sans-Serif" font-size="10.00">core/container/math</text>
<text text-anchor="middle" x="2215.09" y="-231.5" font-family="Helvetica,sans-Serif" font-size="10.00">_array.h</text>
</a>
</g>
</g>
<!-- Node31&#45;&gt;Node48 -->
<g id="edge77" class="edge">
<title>Node31&#45;&gt;Node48</title>
<path fill="none" stroke="midnightblue" d="M1922.27,-420.37C1994.12,-415.88 2115.95,-404.52 2151.09,-378 2187.76,-350.33 2204.17,-296.53 2210.91,-265.06"/>
<polygon fill="midnightblue" stroke="midnightblue" points="2214.4,-265.42 2212.9,-254.93 2207.53,-264.07 2214.4,-265.42"/>
</g>
<!-- Node59 -->
<g id="node37" class="node">
<title>Node59</title>
<g id="a_node37"><a xlink:href="interaction__force_8h.html" target="_top" xlink:title=" ">
<polygon fill="white" stroke="red" points="2010.09,-358.5 2010.09,-377.5 2142.09,-377.5 2142.09,-358.5 2010.09,-358.5"/>
<text text-anchor="middle" x="2076.09" y="-365.5" font-family="Helvetica,sans-Serif" font-size="10.00">core/interaction_force.h</text>
</a>
</g>
</g>
<!-- Node31&#45;&gt;Node59 -->
<g id="edge84" class="edge">
<title>Node31&#45;&gt;Node59</title>
<path fill="none" stroke="midnightblue" d="M1901.05,-414.44C1936.88,-405.14 1994.26,-390.25 2033.48,-380.06"/>
<polygon fill="midnightblue" stroke="midnightblue" points="2034.49,-383.42 2043.29,-377.52 2032.73,-376.64 2034.49,-383.42"/>
</g>
<!-- Node60 -->
<g id="node38" class="node">
<title>Node60</title>
<g id="a_node38"><a xlink:href="shape_8h.html" target="_top" xlink:title=" ">
<polygon fill="white" stroke="black" points="1696.59,-230 1696.59,-249 1775.59,-249 1775.59,-230 1696.59,-230"/>
<text text-anchor="middle" x="1736.09" y="-237" font-family="Helvetica,sans-Serif" font-size="10.00">core/shape.h</text>
</a>
</g>
</g>
<!-- Node31&#45;&gt;Node60 -->
<g id="edge86" class="edge">
<title>Node31&#45;&gt;Node60</title>
<path fill="none" stroke="midnightblue" d="M1861.71,-414.39C1851.32,-400.87 1829.55,-374.52 1806.09,-358 1773.88,-335.31 1746.56,-355.03 1725.09,-322 1712.67,-302.89 1720.02,-275.91 1727.31,-258.32"/>
<polygon fill="midnightblue" stroke="midnightblue" points="1730.52,-259.73 1731.45,-249.17 1724.14,-256.84 1730.52,-259.73"/>
</g>
<!-- Node61 -->
<g id="node39" class="node">
<title>Node61</title>
<g id="a_node39"><a xlink:href="macros_8h.html" target="_top" xlink:title=" ">
<polygon fill="white" stroke="black" points="1380.09,-358.5 1380.09,-377.5 1484.09,-377.5 1484.09,-358.5 1380.09,-358.5"/>
<text text-anchor="middle" x="1432.09" y="-365.5" font-family="Helvetica,sans-Serif" font-size="10.00">core/util/macros.h</text>
</a>
</g>
</g>
<!-- Node31&#45;&gt;Node61 -->
<g id="edge87" class="edge">
<title>Node31&#45;&gt;Node61</title>
<path fill="none" stroke="midnightblue" d="M1813.83,-416.65C1741.69,-408.15 1610.24,-392.47 1498.09,-378 1496.83,-377.84 1495.56,-377.67 1494.28,-377.51"/>
<polygon fill="midnightblue" stroke="midnightblue" points="1494.69,-374.03 1484.32,-376.19 1493.78,-380.97 1494.69,-374.03"/>
</g>
<!-- Node62 -->
<g id="node40" class="node">
<title>Node62</title>
<g id="a_node40"><a xlink:href="type_8h.html" target="_top" xlink:title=" ">
<polygon fill="white" stroke="red" points="1734.09,-297 1734.09,-316 1824.09,-316 1824.09,-297 1734.09,-297"/>
<text text-anchor="middle" x="1779.09" y="-304" font-family="Helvetica,sans-Serif" font-size="10.00">core/util/type.h</text>
</a>
</g>
</g>
<!-- Node31&#45;&gt;Node62 -->
<g id="edge90" class="edge">
<title>Node31&#45;&gt;Node62</title>
<path fill="none" stroke="midnightblue" d="M1866.48,-414.27C1863.7,-401.07 1857.03,-375.66 1844.09,-358 1833.26,-343.2 1816.94,-330.54 1803.37,-321.6"/>
<polygon fill="midnightblue" stroke="midnightblue" points="1804.84,-318.39 1794.51,-316.03 1801.11,-324.32 1804.84,-318.39"/>
</g>
<!-- Node36&#45;&gt;Node2 -->
<g id="edge55" class="edge">
<title>Node36&#45;&gt;Node2</title>
<path fill="none" stroke="midnightblue" d="M1540.16,-359.34C1535.4,-358.87 1530.68,-358.43 1526.09,-358 1334.39,-340.24 1108.41,-322.24 993.46,-313.3"/>
<polygon fill="midnightblue" stroke="midnightblue" points="993.6,-309.8 983.36,-312.51 993.06,-316.78 993.6,-309.8"/>
</g>
<!-- Node36&#45;&gt;Node9 -->
<g id="edge51" class="edge">
<title>Node36&#45;&gt;Node9</title>
<path fill="none" stroke="midnightblue" d="M1591.2,-358.38C1570.12,-350.1 1538.24,-336.71 1512.09,-322 1405.84,-262.21 1289.79,-172.85 1245.58,-137.83"/>
<polygon fill="midnightblue" stroke="midnightblue" points="1247.73,-135.07 1237.72,-131.58 1243.37,-140.54 1247.73,-135.07"/>
</g>
<!-- Node36&#45;&gt;Node10 -->
<g id="edge62" class="edge">
<title>Node36&#45;&gt;Node10</title>
<path fill="none" stroke="midnightblue" d="M1687.77,-365.48C1779.86,-362.29 1930.99,-352.45 1977.09,-322 2019.14,-294.23 1993.44,-253.77 2034.09,-224 2093.25,-180.68 2124.18,-206.64 2195.09,-188 2224.74,-180.21 2230.95,-173.55 2261.09,-168 2475.19,-128.55 2735.41,-123.11 2846.54,-122.74"/>
<polygon fill="midnightblue" stroke="midnightblue" points="2846.83,-126.24 2856.82,-122.72 2846.82,-119.24 2846.83,-126.24"/>
</g>
<!-- Node36&#45;&gt;Node20 -->
<g id="edge54" class="edge">
<title>Node36&#45;&gt;Node20</title>
<path fill="none" stroke="midnightblue" d="M1605.9,-358.21C1598.07,-349.5 1586.28,-335.52 1578.09,-322 1553.47,-281.3 1570.01,-256.3 1535.09,-224 1517.19,-207.44 1492.87,-196.93 1470.17,-190.27"/>
<polygon fill="midnightblue" stroke="midnightblue" points="1470.79,-186.81 1460.22,-187.56 1468.95,-193.57 1470.79,-186.81"/>
</g>
<!-- Node36&#45;&gt;Node34 -->
<g id="edge53" class="edge">
<title>Node36&#45;&gt;Node34</title>
<path fill="none" stroke="midnightblue" d="M1594.72,-358.47C1578.67,-350.69 1556,-337.99 1540.09,-322 1521.4,-303.22 1506.89,-275.95 1498.66,-258.22"/>
<polygon fill="midnightblue" stroke="midnightblue" points="1501.83,-256.73 1494.56,-249.02 1495.43,-259.58 1501.83,-256.73"/>
</g>
<!-- Node38 -->
<g id="node31" class="node">
<title>Node38</title>
<g id="a_node31"><a xlink:title=" ">
<polygon fill="white" stroke="#bfbfbf" points="2128.59,-168.5 2128.59,-187.5 2185.59,-187.5 2185.59,-168.5 2128.59,-168.5"/>
<text text-anchor="middle" x="2157.09" y="-175.5" font-family="Helvetica,sans-Serif" font-size="10.00">ostream</text>
</a>
</g>
</g>
<!-- Node36&#45;&gt;Node38 -->
<g id="edge52" class="edge">
<title>Node36&#45;&gt;Node38</title>
<path fill="none" stroke="midnightblue" d="M1613.47,-358.16C1612.22,-332.67 1612.47,-258.61 1654.09,-224 1671.91,-209.19 2003.3,-188.15 2118.23,-181.27"/>
<polygon fill="midnightblue" stroke="midnightblue" points="2118.57,-184.76 2128.35,-180.67 2118.16,-177.77 2118.57,-184.76"/>
</g>
<!-- Node39 -->
<g id="node32" class="node">
<title>Node39</title>
<g id="a_node32"><a xlink:href="simulation_8h.html" target="_top" xlink:title=" ">
<polygon fill="white" stroke="red" points="2814.59,-230 2814.59,-249 2915.59,-249 2915.59,-230 2814.59,-230"/>
<text text-anchor="middle" x="2865.09" y="-237" font-family="Helvetica,sans-Serif" font-size="10.00">core/simulation.h</text>
</a>
</g>
</g>
<!-- Node36&#45;&gt;Node39 -->
<g id="edge56" class="edge">
<title>Node36&#45;&gt;Node39</title>
<path fill="none" stroke="midnightblue" d="M1687.68,-359.56C1913.92,-336.68 2596.47,-267.66 2804.35,-246.64"/>
<polygon fill="midnightblue" stroke="midnightblue" points="2804.87,-250.11 2814.47,-245.62 2804.17,-243.14 2804.87,-250.11"/>
</g>
<!-- Node39&#45;&gt;Node4 -->
<g id="edge57" class="edge">
<title>Node39&#45;&gt;Node4</title>
<path fill="none" stroke="midnightblue" d="M2862.76,-229.68C2856.09,-203.19 2838.17,-122.01 2850.09,-56 2851.72,-46.98 2854.77,-37.31 2857.69,-29.24"/>
<polygon fill="midnightblue" stroke="midnightblue" points="2861.01,-30.36 2861.33,-19.77 2854.48,-27.85 2861.01,-30.36"/>
</g>
<!-- Node39&#45;&gt;Node7 -->
<g id="edge59" class="edge">
<title>Node39&#45;&gt;Node7</title>
<path fill="none" stroke="midnightblue" d="M2837.44,-229.98C2802.67,-219.25 2743,-200.86 2705.65,-189.35"/>
<polygon fill="midnightblue" stroke="midnightblue" points="2706.33,-185.89 2695.75,-186.29 2704.27,-192.58 2706.33,-185.89"/>
</g>
<!-- Node39&#45;&gt;Node10 -->
<g id="edge61" class="edge">
<title>Node39&#45;&gt;Node10</title>
<path fill="none" stroke="midnightblue" d="M2867.8,-229.82C2873.61,-211.17 2887.4,-166.94 2895.29,-141.63"/>
<polygon fill="midnightblue" stroke="midnightblue" points="2898.72,-142.37 2898.36,-131.78 2892.04,-140.29 2898.72,-142.37"/>
</g>
<!-- Node39&#45;&gt;Node17 -->
<g id="edge58" class="edge">
<title>Node39&#45;&gt;Node17</title>
<path fill="none" stroke="midnightblue" d="M2887.93,-230C2981.52,-195.15 3335.92,-63.19 3444.37,-22.81"/>
<polygon fill="midnightblue" stroke="midnightblue" points="3445.64,-26.07 3453.79,-19.3 3443.2,-19.51 3445.64,-26.07"/>
</g>
<!-- Node39&#45;&gt;Node20 -->
<g id="edge60" class="edge">
<title>Node39&#45;&gt;Node20</title>
<path fill="none" stroke="midnightblue" d="M2814.45,-236.43C2596.66,-227.55 1739.16,-192.58 1480.41,-182.03"/>
<polygon fill="midnightblue" stroke="midnightblue" points="1480.49,-178.53 1470.36,-181.62 1480.21,-185.53 1480.49,-178.53"/>
</g>
<!-- Node52&#45;&gt;Node9 -->
<g id="edge65" class="edge">
<title>Node52&#45;&gt;Node9</title>
<path fill="none" stroke="midnightblue" d="M1883.02,-291.39C1867.53,-281.4 1846.4,-267.59 1828.09,-255 1808.68,-241.65 1806.77,-233.24 1785.09,-224 1597.08,-143.88 1347.07,-127.29 1259.24,-123.87"/>
<polygon fill="midnightblue" stroke="midnightblue" points="1259.23,-120.37 1249.11,-123.51 1258.98,-127.37 1259.23,-120.37"/>
</g>
<!-- Node52&#45;&gt;Node12 -->
<g id="edge75" class="edge">
<title>Node52&#45;&gt;Node12</title>
<path fill="none" stroke="midnightblue" d="M1888.37,-291.45C1878.71,-282.21 1867.45,-269.22 1862.09,-255 1848.47,-218.81 1835.89,-197.33 1861.09,-168 1926.08,-92.38 2647.1,-72.14 2848.26,-67.94"/>
<polygon fill="midnightblue" stroke="midnightblue" points="2848.62,-71.44 2858.55,-67.73 2848.48,-64.44 2848.62,-71.44"/>
</g>
<!-- Node52&#45;&gt;Node30 -->
<g id="edge66" class="edge">
<title>Node52&#45;&gt;Node30</title>
<path fill="none" stroke="midnightblue" d="M1842.35,-292.31C1839.23,-291.82 1836.13,-291.38 1833.09,-291 1535.49,-253.29 1456.64,-293.12 1159.09,-255 1146.93,-253.44 1133.74,-250.97 1122.07,-248.5"/>
<polygon fill="midnightblue" stroke="midnightblue" points="1122.78,-245.08 1112.26,-246.36 1121.28,-251.92 1122.78,-245.08"/>
</g>
<!-- Node52&#45;&gt;Node53 -->
<g id="edge67" class="edge">
<title>Node52&#45;&gt;Node53</title>
<path fill="none" stroke="midnightblue" d="M1910.3,-291.4C1913.26,-283.39 1917.03,-273.16 1920.42,-263.98"/>
<polygon fill="midnightblue" stroke="midnightblue" points="1923.71,-265.17 1923.9,-254.58 1917.15,-262.75 1923.71,-265.17"/>
</g>
<!-- Node53&#45;&gt;Node7 -->
<g id="edge72" class="edge">
<title>Node53&#45;&gt;Node7</title>
<path fill="none" stroke="midnightblue" d="M1987.32,-229.75C2002.52,-227.66 2018.9,-225.58 2034.09,-224 2264.59,-199.98 2543.3,-185.22 2638.41,-180.58"/>
<polygon fill="midnightblue" stroke="midnightblue" points="2638.76,-184.07 2648.58,-180.09 2638.42,-177.08 2638.76,-184.07"/>
</g>
<!-- Node53&#45;&gt;Node9 -->
<g id="edge70" class="edge">
<title>Node53&#45;&gt;Node9</title>
<path fill="none" stroke="midnightblue" d="M1962.83,-224.38C1991.3,-210.55 2024.55,-188.61 2005.09,-168 1979.1,-140.46 1403.37,-126.67 1259.46,-123.65"/>
<polygon fill="midnightblue" stroke="midnightblue" points="1259.18,-120.14 1249.11,-123.43 1259.04,-127.14 1259.18,-120.14"/>
</g>
<!-- Node53&#45;&gt;Node10 -->
<g id="edge74" class="edge">
<title>Node53&#45;&gt;Node10</title>
<path fill="none" stroke="midnightblue" d="M1973.56,-224.45C2002.93,-214.88 2042.12,-201.52 2076.09,-188 2096.05,-180.06 2099.24,-173.15 2120.09,-168 2258.25,-133.88 2693.56,-125.47 2846.95,-123.54"/>
<polygon fill="midnightblue" stroke="midnightblue" points="2847.12,-127.04 2857.07,-123.41 2847.03,-120.04 2847.12,-127.04"/>
</g>
<!-- Node53&#45;&gt;Node12 -->
<g id="edge73" class="edge">
<title>Node53&#45;&gt;Node12</title>
<path fill="none" stroke="midnightblue" d="M1952.58,-224.26C1980.82,-207.85 2030.18,-181.43 2076.09,-168 2359.26,-85.17 2716.45,-70.23 2848.21,-67.56"/>
<polygon fill="midnightblue" stroke="midnightblue" points="2848.48,-71.06 2858.41,-67.37 2848.35,-64.06 2848.48,-71.06"/>
</g>
<!-- Node53&#45;&gt;Node29 -->
<g id="edge68" class="edge">
<title>Node53&#45;&gt;Node29</title>
<path fill="none" stroke="midnightblue" d="M1987.1,-230.19C2002.37,-228.08 2018.84,-225.88 2034.09,-224 2180.52,-205.91 2218.23,-210.18 2364.09,-188 2365.36,-187.81 2366.64,-187.6 2367.94,-187.39"/>
<polygon fill="midnightblue" stroke="midnightblue" points="2368.73,-190.81 2377.98,-185.64 2367.53,-183.91 2368.73,-190.81"/>
</g>
<!-- Node53&#45;&gt;Node32 -->
<g id="edge69" class="edge">
<title>Node53&#45;&gt;Node32</title>
<path fill="none" stroke="midnightblue" d="M1938.81,-224.4C1944.64,-215.93 1952.11,-205.1 1958.28,-196.14"/>
<polygon fill="midnightblue" stroke="midnightblue" points="1961.33,-197.88 1964.13,-187.66 1955.57,-193.91 1961.33,-197.88"/>
</g>
<!-- Node53&#45;&gt;Node19 -->
<g id="edge71" class="edge">
<title>Node53&#45;&gt;Node19</title>
<path fill="none" stroke="midnightblue" d="M1921.75,-224.4C1917.43,-216.11 1911.93,-205.55 1907.32,-196.71"/>
<polygon fill="midnightblue" stroke="midnightblue" points="1910.33,-194.91 1902.6,-187.66 1904.12,-198.14 1910.33,-194.91"/>
</g>
<!-- Node48&#45;&gt;Node6 -->
<g id="edge82" class="edge">
<title>Node48&#45;&gt;Node6</title>
<path fill="none" stroke="midnightblue" d="M2157.45,-226.06C2152.61,-225.27 2147.78,-224.56 2143.09,-224 2034.19,-210.9 1240.44,-185.42 1068.77,-180.02"/>
<polygon fill="midnightblue" stroke="midnightblue" points="1068.7,-176.52 1058.6,-179.7 1068.49,-183.51 1068.7,-176.52"/>
</g>
<!-- Node48&#45;&gt;Node10 -->
<g id="edge83" class="edge">
<title>Node48&#45;&gt;Node10</title>
<path fill="none" stroke="midnightblue" d="M2226.75,-224.4C2241.59,-207.6 2268.94,-180.27 2299.09,-168 2397.63,-127.91 2718.44,-123.1 2847.04,-122.83"/>
<polygon fill="midnightblue" stroke="midnightblue" points="2847.06,-126.33 2857.06,-122.82 2847.06,-119.33 2847.06,-126.33"/>
</g>
<!-- Node48&#45;&gt;Node29 -->
<g id="edge78" class="edge">
<title>Node48&#45;&gt;Node29</title>
<path fill="none" stroke="midnightblue" d="M2261.3,-224.4C2295.15,-214.07 2340.51,-200.23 2372.22,-190.56"/>
<polygon fill="midnightblue" stroke="midnightblue" points="2373.46,-193.84 2382,-187.57 2371.42,-187.14 2373.46,-193.84"/>
</g>
<!-- Node48&#45;&gt;Node32 -->
<g id="edge79" class="edge">
<title>Node48&#45;&gt;Node32</title>
<path fill="none" stroke="midnightblue" d="M2157.34,-224.47C2110.49,-213.1 2045.91,-197.41 2006.13,-187.75"/>
<polygon fill="midnightblue" stroke="midnightblue" points="2006.88,-184.33 1996.34,-185.37 2005.23,-191.13 2006.88,-184.33"/>
</g>
<!-- Node48&#45;&gt;Node38 -->
<g id="edge81" class="edge">
<title>Node48&#45;&gt;Node38</title>
<path fill="none" stroke="midnightblue" d="M2201.35,-224.4C2192.75,-215.58 2181.64,-204.18 2172.71,-195.02"/>
<polygon fill="midnightblue" stroke="midnightblue" points="2175.02,-192.38 2165.53,-187.66 2170.01,-197.26 2175.02,-192.38"/>
</g>
<!-- Node49 -->
<g id="node36" class="node">
<title>Node49</title>
<g id="a_node36"><a xlink:title=" ">
<polygon fill="white" stroke="#bfbfbf" points="2307.59,-168.5 2307.59,-187.5 2354.59,-187.5 2354.59,-168.5 2307.59,-168.5"/>
<text text-anchor="middle" x="2331.09" y="-175.5" font-family="Helvetica,sans-Serif" font-size="10.00">cmath</text>
</a>
</g>
</g>
<!-- Node48&#45;&gt;Node49 -->
<g id="edge80" class="edge">
<title>Node48&#45;&gt;Node49</title>
<path fill="none" stroke="midnightblue" d="M2242.58,-224.4C2261.52,-214.68 2286.53,-201.86 2305.14,-192.31"/>
<polygon fill="midnightblue" stroke="midnightblue" points="2306.91,-195.34 2314.21,-187.66 2303.72,-189.11 2306.91,-195.34"/>
</g>
<!-- Node59&#45;&gt;Node48 -->
<g id="edge85" class="edge">
<title>Node59&#45;&gt;Node48</title>
<path fill="none" stroke="midnightblue" d="M2081.31,-358.21C2090.55,-343.14 2111.01,-312 2134.09,-291 2147.29,-278.99 2163.71,-268.16 2178.31,-259.62"/>
<polygon fill="midnightblue" stroke="midnightblue" points="2180.15,-262.6 2187.12,-254.62 2176.7,-256.52 2180.15,-262.6"/>
</g>
<!-- Node62&#45;&gt;Node34 -->
<g id="edge91" class="edge">
<title>Node62&#45;&gt;Node34</title>
<path fill="none" stroke="midnightblue" d="M1741.15,-296.94C1688.23,-284.99 1592.44,-263.37 1536.02,-250.64"/>
<polygon fill="midnightblue" stroke="midnightblue" points="1536.49,-247.16 1525.97,-248.37 1534.95,-253.99 1536.49,-247.16"/>
</g>
<!-- Node62&#45;&gt;Node48 -->
<g id="edge92" class="edge">
<title>Node62&#45;&gt;Node48</title>
<path fill="none" stroke="midnightblue" d="M1808.62,-296.97C1816.82,-294.81 1825.76,-292.64 1834.09,-291 1955.48,-267.18 1987.49,-271.46 2110.09,-255 2122.06,-253.39 2134.79,-251.66 2147.11,-249.96"/>
<polygon fill="midnightblue" stroke="midnightblue" points="2147.91,-253.39 2157.34,-248.56 2146.95,-246.45 2147.91,-253.39"/>
</g>
<!-- Node62&#45;&gt;Node60 -->
<g id="edge93" class="edge">
<title>Node62&#45;&gt;Node60</title>
<path fill="none" stroke="midnightblue" d="M1773.29,-296.73C1766.72,-286.79 1755.83,-270.34 1747.53,-257.79"/>
<polygon fill="midnightblue" stroke="midnightblue" points="1750.24,-255.54 1741.8,-249.13 1744.4,-259.4 1750.24,-255.54"/>
</g>
<!-- Node63&#45;&gt;Node7 -->
<g id="edge95" class="edge">
<title>Node63&#45;&gt;Node7</title>
<path fill="none" stroke="midnightblue" d="M1741.69,-600.34C1915.05,-596.52 2293.21,-585.15 2420.09,-557 2485.92,-542.4 2503.39,-535.89 2561.09,-501 2600.2,-477.35 2617.39,-474.22 2639.09,-434 2681.91,-354.67 2677.71,-241.81 2674.03,-197.69"/>
<polygon fill="midnightblue" stroke="midnightblue" points="2677.5,-197.22 2673.09,-187.58 2670.53,-197.86 2677.5,-197.22"/>
</g>
<!-- Node63&#45;&gt;Node22 -->
<g id="edge98" class="edge">
<title>Node63&#45;&gt;Node22</title>
<path fill="none" stroke="midnightblue" d="M1564.52,-600.11C1234.36,-592.48 94.09,-560.77 94.09,-486.5 94.09,-486.5 94.09,-486.5 94.09,-367 94.09,-310.67 157.48,-271.98 197.07,-253.32"/>
<polygon fill="midnightblue" stroke="midnightblue" points="198.9,-256.33 206.56,-249.01 196.01,-249.95 198.9,-256.33"/>
</g>
<!-- Node63&#45;&gt;Node31 -->
<g id="edge96" class="edge">
<title>Node63&#45;&gt;Node31</title>
<path fill="none" stroke="midnightblue" d="M1656.59,-593.22C1662.18,-579.95 1674.17,-554.46 1690.09,-537 1732.78,-490.2 1799.36,-455.39 1837.85,-437.82"/>
<polygon fill="midnightblue" stroke="midnightblue" points="1839.75,-440.8 1847.45,-433.52 1836.9,-434.41 1839.75,-440.8"/>
</g>
<!-- Node63&#45;&gt;Node48 -->
<g id="edge97" class="edge">
<title>Node63&#45;&gt;Node48</title>
<path fill="none" stroke="midnightblue" d="M1741.97,-599.77C1968.56,-592.91 2550.09,-567.41 2550.09,-486.5 2550.09,-486.5 2550.09,-486.5 2550.09,-423 2550.09,-357.21 2535.72,-330.48 2483.09,-291 2452.2,-267.82 2351.86,-253.68 2283.12,-246.47"/>
<polygon fill="midnightblue" stroke="midnightblue" points="2283.1,-242.95 2272.8,-245.41 2282.39,-249.91 2283.1,-242.95"/>
</g>
<!-- Node64 -->
<g id="node42" class="node">
<title>Node64</title>
<g id="a_node42"><a xlink:href="load__balance__info_8h.html" target="_top" xlink:title=" ">
<polygon fill="white" stroke="red" points="274.09,-297 274.09,-316 412.09,-316 412.09,-297 274.09,-297"/>
<text text-anchor="middle" x="343.09" y="-304" font-family="Helvetica,sans-Serif" font-size="10.00">core/load_balance_info.h</text>
</a>
</g>
</g>
<!-- Node63&#45;&gt;Node64 -->
<g id="edge99" class="edge">
<title>Node63&#45;&gt;Node64</title>
<path fill="none" stroke="midnightblue" d="M1564.49,-598.71C1273.27,-587.31 364.09,-546.88 364.09,-486.5 364.09,-486.5 364.09,-486.5 364.09,-423 364.09,-388.3 354.81,-348.68 348.58,-326.02"/>
<polygon fill="midnightblue" stroke="midnightblue" points="351.86,-324.75 345.75,-316.1 345.13,-326.67 351.86,-324.75"/>
</g>
<!-- Node63&#45;&gt;Node66 -->
<g id="edge102" class="edge">
<title>Node63&#45;&gt;Node66</title>
<path fill="none" stroke="midnightblue" d="M1671.47,-593.44C1690.31,-584.68 1719.82,-570.94 1741.47,-560.86"/>
<polygon fill="midnightblue" stroke="midnightblue" points="1743.21,-563.91 1750.8,-556.52 1740.26,-557.56 1743.21,-563.91"/>
</g>
<!-- Node64&#45;&gt;Node8 -->
<g id="edge100" class="edge">
<title>Node64&#45;&gt;Node8</title>
<path fill="none" stroke="midnightblue" d="M384.2,-296.94C440.79,-285.15 542.63,-263.93 604.03,-251.14"/>
<polygon fill="midnightblue" stroke="midnightblue" points="604.82,-254.55 613.89,-249.08 603.39,-247.7 604.82,-254.55"/>
</g>
<!-- Node64&#45;&gt;Node22 -->
<g id="edge101" class="edge">
<title>Node64&#45;&gt;Node22</title>
<path fill="none" stroke="midnightblue" d="M327.58,-296.73C308.18,-285.77 274.77,-266.88 252.06,-254.05"/>
<polygon fill="midnightblue" stroke="midnightblue" points="253.78,-251 243.36,-249.13 250.34,-257.09 253.78,-251"/>
</g>
<!-- Node66&#45;&gt;Node5 -->
<g id="edge108" class="edge">
<title>Node66&#45;&gt;Node5</title>
<path fill="none" stroke="midnightblue" d="M1839.24,-539.24C1930.79,-526.12 2086.88,-487.95 2151.09,-378 2176.98,-333.67 2123.24,-280.97 2092.14,-255.61"/>
<polygon fill="midnightblue" stroke="midnightblue" points="2094.07,-252.67 2084.05,-249.21 2089.72,-258.16 2094.07,-252.67"/>
</g>
<!-- Node66&#45;&gt;Node6 -->
<g id="edge113" class="edge">
<title>Node66&#45;&gt;Node6</title>
<path fill="none" stroke="midnightblue" d="M1698.76,-544.44C1514.23,-540.01 1028.69,-526.03 1005.09,-501 963.65,-457.05 1013.74,-259.61 1030.8,-197.66"/>
<polygon fill="midnightblue" stroke="midnightblue" points="1034.25,-198.31 1033.57,-187.73 1027.51,-196.42 1034.25,-198.31"/>
</g>
<!-- Node66&#45;&gt;Node7 -->
<g id="edge114" class="edge">
<title>Node66&#45;&gt;Node7</title>
<path fill="none" stroke="midnightblue" d="M1839.43,-544.81C2039.13,-541.13 2606.98,-528.47 2791.09,-501 2957.91,-476.11 3026.78,-493.07 3150.09,-378 3180.81,-349.33 3214.4,-322.94 3187.09,-291 3120.14,-212.7 3050.64,-300.28 2958.09,-255 2940.02,-246.16 2943.08,-233.03 2925.09,-224 2852.87,-187.76 2756.21,-180.27 2705.83,-179"/>
<polygon fill="midnightblue" stroke="midnightblue" points="2705.88,-175.5 2695.81,-178.81 2705.74,-182.5 2705.88,-175.5"/>
</g>
<!-- Node66&#45;&gt;Node8 -->
<g id="edge116" class="edge">
<title>Node66&#45;&gt;Node8</title>
<path fill="none" stroke="midnightblue" d="M1698.98,-545.26C1485.86,-542.67 854.89,-532.43 768.09,-501 715.6,-481.99 668.09,-480.82 668.09,-425 668.09,-425 668.09,-425 668.09,-367 668.09,-328.5 662.06,-283.75 658.21,-259.14"/>
<polygon fill="midnightblue" stroke="midnightblue" points="661.64,-258.37 656.58,-249.06 654.73,-259.49 661.64,-258.37"/>
</g>
<!-- Node66&#45;&gt;Node9 -->
<g id="edge107" class="edge">
<title>Node66&#45;&gt;Node9</title>
<path fill="none" stroke="midnightblue" d="M1698.72,-545.62C1451.08,-543.98 632.4,-535.93 589.09,-501 473.83,-408.04 465.97,-230.75 600.09,-168 654.19,-142.69 1074.18,-127.76 1194.8,-123.97"/>
<polygon fill="midnightblue" stroke="midnightblue" points="1195,-127.46 1204.89,-123.65 1194.78,-120.47 1195,-127.46"/>
</g>
<!-- Node66&#45;&gt;Node10 -->
<g id="edge165" class="edge">
<title>Node66&#45;&gt;Node10</title>
<path fill="none" stroke="midnightblue" d="M1839.34,-545.67C2146.24,-544.05 3357.27,-535.48 3430.09,-501 3517.94,-459.41 3555.61,-363.69 3491.09,-291 3419.01,-209.78 3087.35,-151.35 2955.43,-130.94"/>
<polygon fill="midnightblue" stroke="midnightblue" points="2955.95,-127.48 2945.53,-129.42 2954.89,-134.4 2955.95,-127.48"/>
</g>
<!-- Node66&#45;&gt;Node17 -->
<g id="edge111" class="edge">
<title>Node66&#45;&gt;Node17</title>
<path fill="none" stroke="midnightblue" d="M1839.15,-545.36C2138.86,-542.44 3305.29,-529.35 3467.09,-501 3572.72,-482.49 3696.09,-532.24 3696.09,-425 3696.09,-425 3696.09,-425 3696.09,-121 3696.09,-38.22 3569.93,-17.73 3508.69,-12.66"/>
<polygon fill="midnightblue" stroke="midnightblue" points="3508.63,-9.15 3498.4,-11.91 3508.11,-16.13 3508.63,-9.15"/>
</g>
<!-- Node66&#45;&gt;Node20 -->
<g id="edge117" class="edge">
<title>Node66&#45;&gt;Node20</title>
<path fill="none" stroke="midnightblue" d="M1698.97,-544.82C1590.82,-538.75 1386.1,-509.45 1293.09,-378 1247.04,-312.91 1342.62,-227.59 1386.09,-193.75"/>
<polygon fill="midnightblue" stroke="midnightblue" points="1388.44,-196.36 1394.27,-187.51 1384.19,-190.79 1388.44,-196.36"/>
</g>
<!-- Node66&#45;&gt;Node21 -->
<g id="edge150" class="edge">
<title>Node66&#45;&gt;Node21</title>
<path fill="none" stroke="midnightblue" d="M1699.04,-545.39C1559.11,-543.44 1255.65,-535.27 1224.09,-501 1163.33,-435.01 1198.52,-314.91 1217.46,-264.15"/>
<polygon fill="midnightblue" stroke="midnightblue" points="1220.77,-265.28 1221.1,-254.69 1214.24,-262.76 1220.77,-265.28"/>
</g>
<!-- Node66&#45;&gt;Node23 -->
<g id="edge159" class="edge">
<title>Node66&#45;&gt;Node23</title>
<path fill="none" stroke="midnightblue" d="M1839.29,-546.2C2143.11,-546.79 3332.46,-546.22 3397.09,-501 3477.82,-444.53 3529.94,-367.69 3468.09,-291 3449.3,-267.7 3377.37,-254.61 3318.34,-247.63"/>
<polygon fill="midnightblue" stroke="midnightblue" points="3318.57,-244.13 3308.24,-246.48 3317.78,-251.09 3318.57,-244.13"/>
</g>
<!-- Node66&#45;&gt;Node25 -->
<g id="edge166" class="edge">
<title>Node66&#45;&gt;Node25</title>
<path fill="none" stroke="midnightblue" d="M1699.03,-546.64C1490.85,-547.98 878.48,-547.74 685.09,-501 616.09,-484.32 595.79,-478.02 540.09,-434 505.82,-406.91 429.29,-299.59 399.9,-257.53"/>
<polygon fill="midnightblue" stroke="midnightblue" points="402.66,-255.38 394.08,-249.17 396.92,-259.38 402.66,-255.38"/>
</g>
<!-- Node66&#45;&gt;Node26 -->
<g id="edge103" class="edge">
<title>Node66&#45;&gt;Node26</title>
<path fill="none" stroke="midnightblue" d="M1698.94,-546.08C1395.27,-546.16 206.45,-543.75 140.09,-501 10.91,-417.78 -48.15,-288.59 47.09,-168 66.08,-143.96 153.3,-131.38 202.35,-126.1"/>
<polygon fill="midnightblue" stroke="midnightblue" points="202.9,-129.56 212.49,-125.05 202.18,-122.6 202.9,-129.56"/>
</g>
<!-- Node66&#45;&gt;Node27 -->
<g id="edge104" class="edge">
<title>Node66&#45;&gt;Node27</title>
<path fill="none" stroke="midnightblue" d="M1698.71,-546.23C1453.03,-546.63 634.52,-544.6 376.09,-501 264.09,-482.11 132.09,-538.58 132.09,-425 132.09,-425 132.09,-425 132.09,-367 132.09,-302.78 104.99,-230.1 91.1,-197.06"/>
<polygon fill="midnightblue" stroke="midnightblue" points="94.27,-195.59 87.1,-187.79 87.85,-198.36 94.27,-195.59"/>
</g>
<!-- Node66&#45;&gt;Node28 -->
<g id="edge164" class="edge">
<title>Node66&#45;&gt;Node28</title>
<path fill="none" stroke="midnightblue" d="M1698.7,-545.84C1444.32,-544.96 581.52,-539.17 464.09,-501 328.92,-457.06 291.2,-430.24 199.09,-322 169.49,-287.21 146.47,-264.24 168.09,-224 175.72,-209.82 189.99,-199.35 203.5,-192.1"/>
<polygon fill="midnightblue" stroke="midnightblue" points="205.22,-195.16 212.64,-187.59 202.12,-188.88 205.22,-195.16"/>
</g>
<!-- Node66&#45;&gt;Node29 -->
<g id="edge105" class="edge">
<title>Node66&#45;&gt;Node29</title>
<path fill="none" stroke="midnightblue" d="M1839.17,-545.76C1903.81,-543.27 2001.24,-533.68 2079.09,-501 2237.72,-434.41 2362.98,-253.21 2399.36,-196.33"/>
<polygon fill="midnightblue" stroke="midnightblue" points="2402.4,-198.07 2404.77,-187.75 2396.48,-194.34 2402.4,-198.07"/>
</g>
<!-- Node66&#45;&gt;Node31 -->
<g id="edge115" class="edge">
<title>Node66&#45;&gt;Node31</title>
<path fill="none" stroke="midnightblue" d="M1772.53,-537.34C1778.7,-522.47 1792.75,-491.61 1811.09,-470 1821.01,-458.32 1834.35,-447.59 1845.64,-439.54"/>
<polygon fill="midnightblue" stroke="midnightblue" points="1847.88,-442.24 1854.14,-433.69 1843.92,-436.47 1847.88,-442.24"/>
</g>
<!-- Node66&#45;&gt;Node33 -->
<g id="edge110" class="edge">
<title>Node66&#45;&gt;Node33</title>
<path fill="none" stroke="midnightblue" d="M1839.38,-544.8C1996.18,-541.6 2364.58,-530.95 2412.09,-501 2470.3,-464.31 2465.76,-367.5 2460.89,-326.39"/>
<polygon fill="midnightblue" stroke="midnightblue" points="2464.35,-325.82 2459.56,-316.37 2457.41,-326.75 2464.35,-325.82"/>
</g>
<!-- Node66&#45;&gt;Node35 -->
<g id="edge112" class="edge">
<title>Node66&#45;&gt;Node35</title>
<path fill="none" stroke="midnightblue" d="M1839.26,-544.82C2018.96,-540.57 2509.58,-521.22 2907.09,-434 2992.25,-415.31 3042.98,-447.9 3095.09,-378 3106.04,-363.31 3104.19,-341.7 3100.76,-326.28"/>
<polygon fill="midnightblue" stroke="midnightblue" points="3104.07,-325.12 3098.14,-316.34 3097.3,-326.9 3104.07,-325.12"/>
</g>
<!-- Node66&#45;&gt;Node38 -->
<g id="edge109" class="edge">
<title>Node66&#45;&gt;Node38</title>
<path fill="none" stroke="midnightblue" d="M1766.07,-537.47C1748.95,-488.9 1665.8,-248.53 1688.09,-224 1702.53,-208.11 2008.81,-188.01 2118.47,-181.3"/>
<polygon fill="midnightblue" stroke="midnightblue" points="2118.68,-184.79 2128.45,-180.69 2118.26,-177.81 2118.68,-184.79"/>
</g>
<!-- Node66&#45;&gt;Node39 -->
<g id="edge160" class="edge">
<title>Node66&#45;&gt;Node39</title>
<path fill="none" stroke="midnightblue" d="M1839.17,-546.33C2087.17,-546.17 2919.28,-533.8 3124.09,-378 3158.74,-351.64 3197.49,-324 3169.09,-291 3134.06,-250.29 2982.89,-264.85 2930.09,-255 2923.9,-253.84 2917.4,-252.52 2911.01,-251.16"/>
<polygon fill="midnightblue" stroke="midnightblue" points="2911.62,-247.71 2901.1,-249 2910.13,-254.55 2911.62,-247.71"/>
</g>
<!-- Node66&#45;&gt;Node49 -->
<g id="edge106" class="edge">
<title>Node66&#45;&gt;Node49</title>
<path fill="none" stroke="midnightblue" d="M1839.29,-543.2C1895.08,-538.89 1974.1,-528.07 2038.09,-501 2187.49,-437.8 2292.32,-254.26 2322.31,-196.57"/>
<polygon fill="midnightblue" stroke="midnightblue" points="2325.46,-198.09 2326.9,-187.59 2319.23,-194.91 2325.46,-198.09"/>
</g>
<!-- Node66&#45;&gt;Node62 -->
<g id="edge167" class="edge">
<title>Node66&#45;&gt;Node62</title>
<path fill="none" stroke="midnightblue" d="M1769.46,-537.23C1770.91,-502.6 1776.27,-374.93 1778.3,-326.4"/>
<polygon fill="midnightblue" stroke="midnightblue" points="1781.81,-326.24 1778.73,-316.1 1774.82,-325.94 1781.81,-326.24"/>
</g>
<!-- Node67 -->
<g id="node44" class="node">
<title>Node67</title>
<g id="a_node44"><a xlink:href="agent__uid__generator_8h.html" target="_top" xlink:title=" ">
<polygon fill="white" stroke="black" points="1014.59,-470.5 1014.59,-500.5 1133.59,-500.5 1133.59,-470.5 1014.59,-470.5"/>
<text text-anchor="start" x="1022.59" y="-488.5" font-family="Helvetica,sans-Serif" font-size="10.00">core/agent/agent_uid</text>
<text text-anchor="middle" x="1074.09" y="-477.5" font-family="Helvetica,sans-Serif" font-size="10.00">_generator.h</text>
</a>
</g>
</g>
<!-- Node66&#45;&gt;Node67 -->
<g id="edge118" class="edge">
<title>Node66&#45;&gt;Node67</title>
<path fill="none" stroke="midnightblue" d="M1698.96,-543.69C1583.62,-539.26 1346.84,-527.57 1148.09,-501 1146.63,-500.8 1145.16,-500.6 1143.67,-500.38"/>
<polygon fill="midnightblue" stroke="midnightblue" points="1144.18,-496.92 1133.76,-498.84 1143.1,-503.84 1144.18,-496.92"/>
</g>
<!-- Node78 -->
<g id="node49" class="node">
<title>Node78</title>
<g id="a_node49"><a xlink:href="diffusion__grid_8h.html" target="_top" xlink:title=" ">
<polygon fill="white" stroke="red" points="3312.09,-291.5 3312.09,-321.5 3440.09,-321.5 3440.09,-291.5 3312.09,-291.5"/>
<text text-anchor="start" x="3320.09" y="-309.5" font-family="Helvetica,sans-Serif" font-size="10.00">core/diffusion/diffusion</text>
<text text-anchor="middle" x="3376.09" y="-298.5" font-family="Helvetica,sans-Serif" font-size="10.00">_grid.h</text>
</a>
</g>
</g>
<!-- Node66&#45;&gt;Node78 -->
<g id="edge151" class="edge">
<title>Node66&#45;&gt;Node78</title>
<path fill="none" stroke="midnightblue" d="M1839.32,-545.35C2145.16,-542.34 3346.82,-528.76 3374.09,-501 3418.49,-455.81 3398.56,-372.19 3384.99,-331.29"/>
<polygon fill="midnightblue" stroke="midnightblue" points="3388.22,-329.93 3381.63,-321.63 3381.61,-332.22 3388.22,-329.93"/>
</g>
<!-- Node80 -->
<g id="node50" class="node">
<title>Node80</title>
<g id="a_node50"><a xlink:href="type__index_8h.html" target="_top" xlink:title=" ">
<polygon fill="white" stroke="red" points="1820.09,-476 1820.09,-495 1924.09,-495 1924.09,-476 1820.09,-476"/>
<text text-anchor="middle" x="1872.09" y="-483" font-family="Helvetica,sans-Serif" font-size="10.00">core/type_index.h</text>
</a>
</g>
</g>
<!-- Node66&#45;&gt;Node80 -->
<g id="edge161" class="edge">
<title>Node66&#45;&gt;Node80</title>
<path fill="none" stroke="midnightblue" d="M1783.85,-537.48C1800.75,-527.71 1828.68,-511.58 1848.58,-500.08"/>
<polygon fill="midnightblue" stroke="midnightblue" points="1850.45,-503.04 1857.36,-495.01 1846.95,-496.98 1850.45,-503.04"/>
</g>
<!-- Node67&#45;&gt;Node3 -->
<g id="edge119" class="edge">
<title>Node67&#45;&gt;Node3</title>
<path fill="none" stroke="midnightblue" d="M1014.52,-480.23C899.72,-468.26 652.23,-423.15 573.09,-255 567.23,-242.53 564.28,-234.59 573.09,-224 599.11,-192.73 719.9,-183.09 780.79,-180.2"/>
<polygon fill="midnightblue" stroke="midnightblue" points="781.24,-183.68 791.08,-179.75 780.94,-176.69 781.24,-183.68"/>
</g>
<!-- Node67&#45;&gt;Node8 -->
<g id="edge122" class="edge">
<title>Node67&#45;&gt;Node8</title>
<path fill="none" stroke="midnightblue" d="M1014.49,-470.44C984.1,-462.05 947.1,-449.89 916.09,-434 814.87,-382.11 711.17,-291.9 671.7,-255.94"/>
<polygon fill="midnightblue" stroke="midnightblue" points="674.01,-253.31 664.28,-249.13 669.27,-258.47 674.01,-253.31"/>
</g>
<!-- Node67&#45;&gt;Node9 -->
<g id="edge120" class="edge">
<title>Node67&#45;&gt;Node9</title>
<path fill="none" stroke="midnightblue" d="M1014.43,-481.53C948.95,-476.81 841.52,-464.71 754.09,-434 635.34,-392.28 493.92,-328.49 564.09,-224 600.77,-169.39 637.15,-183.42 701.09,-168 883.97,-123.89 1111.73,-121.58 1194.84,-122.4"/>
<polygon fill="midnightblue" stroke="midnightblue" points="1194.88,-125.9 1204.92,-122.53 1194.96,-118.9 1194.88,-125.9"/>
</g>
<!-- Node67&#45;&gt;Node10 -->
<g id="edge148" class="edge">
<title>Node67&#45;&gt;Node10</title>
<path fill="none" stroke="midnightblue" d="M1133.62,-483.19C1450.83,-476.19 2929.8,-443.1 2976.09,-434 3045.1,-420.43 3067.17,-419.31 3124.09,-378 3159.32,-352.43 3189.94,-329.22 3169.09,-291 3155.52,-266.12 2989.62,-172.15 2925.84,-136.67"/>
<polygon fill="midnightblue" stroke="midnightblue" points="2927.31,-133.48 2916.86,-131.69 2923.91,-139.6 2927.31,-133.48"/>
</g>
<!-- Node67&#45;&gt;Node20 -->
<g id="edge123" class="edge">
<title>Node67&#45;&gt;Node20</title>
<path fill="none" stroke="midnightblue" d="M1074.03,-470.25C1074.65,-426.09 1082.95,-290.49 1159.09,-224 1184.36,-201.93 1268.55,-190.14 1331.66,-184.23"/>
<polygon fill="midnightblue" stroke="midnightblue" points="1332.34,-187.69 1341.99,-183.3 1331.72,-180.71 1332.34,-187.69"/>
</g>
<!-- Node67&#45;&gt;Node21 -->
<g id="edge124" class="edge">
<title>Node67&#45;&gt;Node21</title>
<path fill="none" stroke="midnightblue" d="M1081.39,-470.48C1098.48,-438.03 1142.99,-355.57 1187.09,-291 1193.69,-281.34 1201.57,-271.15 1208.59,-262.47"/>
<polygon fill="midnightblue" stroke="midnightblue" points="1211.34,-264.62 1214.98,-254.67 1205.93,-260.19 1211.34,-264.62"/>
</g>
<!-- Node67&#45;&gt;Node24 -->
<g id="edge149" class="edge">
<title>Node67&#45;&gt;Node24</title>
<path fill="none" stroke="midnightblue" d="M1030.53,-470.42C972.18,-448.93 871.01,-401.79 828.09,-322 817.45,-302.22 824.05,-275.96 830.71,-258.67"/>
<polygon fill="midnightblue" stroke="midnightblue" points="834.04,-259.77 834.71,-249.19 827.6,-257.04 834.04,-259.77"/>
</g>
<!-- Node67&#45;&gt;Node30 -->
<g id="edge121" class="edge">
<title>Node67&#45;&gt;Node30</title>
<path fill="none" stroke="midnightblue" d="M1073.38,-470.36C1072.91,-460.23 1072.34,-446.28 1072.09,-434 1071.42,-400.23 1069.81,-391.7 1072.09,-358 1074.47,-322.86 1080.82,-282.2 1084.77,-259.1"/>
<polygon fill="midnightblue" stroke="midnightblue" points="1088.26,-259.46 1086.53,-249.01 1081.36,-258.26 1088.26,-259.46"/>
</g>
<!-- Node67&#45;&gt;Node39 -->
<g id="edge147" class="edge">
<title>Node67&#45;&gt;Node39</title>
<path fill="none" stroke="midnightblue" d="M1133.61,-483.3C1438.84,-477.08 2817.67,-448.3 2907.09,-434 2993.18,-420.24 3020.2,-422.63 3095.09,-378 3134.59,-354.46 3180.88,-326.03 3151.09,-291 3118.86,-253.09 2978.95,-264.42 2930.09,-255 2923.98,-253.82 2917.57,-252.5 2911.25,-251.14"/>
<polygon fill="midnightblue" stroke="midnightblue" points="2911.97,-247.72 2901.46,-249 2910.48,-254.56 2911.97,-247.72"/>
</g>
<!-- Node67&#45;&gt;Node68 -->
<g id="edge125" class="edge">
<title>Node67&#45;&gt;Node68</title>
<path fill="none" stroke="midnightblue" d="M1133.69,-482.5C1405.14,-473.41 2522.87,-435.96 2791.73,-426.96"/>
<polygon fill="midnightblue" stroke="midnightblue" points="2792.17,-430.44 2802.05,-426.61 2791.94,-423.45 2792.17,-430.44"/>
</g>
<!-- Node68&#45;&gt;Node4 -->
<g id="edge128" class="edge">
<title>Node68&#45;&gt;Node4</title>
<path fill="none" stroke="midnightblue" d="M2801.91,-422.6C2579.38,-420.59 1656.68,-410.34 1532.09,-378 1513.24,-373.11 1511.96,-362.85 1493.09,-358 1228.68,-290.04 522.47,-413.05 265.09,-322 218.75,-305.61 198.92,-299.05 177.09,-255 170.98,-242.65 168.85,-235.04 177.09,-224 180.38,-219.6 550.68,-112.9 556.09,-112 1016.44,-35.1 2546.86,-14.56 2822.4,-11.45"/>
<polygon fill="midnightblue" stroke="midnightblue" points="2822.44,-14.95 2832.4,-11.34 2822.36,-7.95 2822.44,-14.95"/>
</g>
<!-- Node68&#45;&gt;Node6 -->
<g id="edge131" class="edge">
<title>Node68&#45;&gt;Node6</title>
<path fill="none" stroke="midnightblue" d="M2805.24,-414.49C2767.95,-406.8 2713.8,-394.22 2668.09,-378 2582.46,-347.61 2570.58,-315.54 2483.09,-291 2339.34,-250.68 2287.21,-311.69 2149.09,-255 2128.61,-246.59 2130.84,-231.73 2110.09,-224 2085.08,-214.68 1246.69,-186.07 1068.98,-180.1"/>
<polygon fill="midnightblue" stroke="midnightblue" points="1069.04,-176.6 1058.93,-179.76 1068.81,-183.59 1069.04,-176.6"/>
</g>
<!-- Node68&#45;&gt;Node7 -->
<g id="edge132" class="edge">
<title>Node68&#45;&gt;Node7</title>
<path fill="none" stroke="midnightblue" d="M2801.91,-418.19C2774.23,-412.85 2741.1,-401.62 2721.09,-378 2695.73,-348.06 2715.14,-329.18 2706.09,-291 2698.15,-257.51 2685.84,-219.3 2678.41,-197.29"/>
<polygon fill="midnightblue" stroke="midnightblue" points="2681.65,-195.95 2675.11,-187.61 2675.03,-198.21 2681.65,-195.95"/>
</g>
<!-- Node68&#45;&gt;Node17 -->
<g id="edge129" class="edge">
<title>Node68&#45;&gt;Node17</title>
<path fill="none" stroke="midnightblue" d="M2898.39,-421.92C3004.93,-418.1 3266.59,-400.75 3468.09,-322 3549.22,-290.29 3602.09,-266.1 3602.09,-179 3602.09,-179 3602.09,-179 3602.09,-121 3602.09,-90.2 3599.19,-78.44 3578.09,-56 3559.35,-36.07 3530.21,-24.43 3507.87,-18"/>
<polygon fill="midnightblue" stroke="midnightblue" points="3508.71,-14.6 3498.14,-15.4 3506.9,-21.36 3508.71,-14.6"/>
</g>
<!-- Node68&#45;&gt;Node23 -->
<g id="edge133" class="edge">
<title>Node68&#45;&gt;Node23</title>
<path fill="none" stroke="midnightblue" d="M2898.32,-414.73C2970.77,-402.32 3112.01,-378.18 3232.09,-358 3280.3,-349.9 3417.48,-359.29 3449.09,-322 3490.55,-273.1 3394.86,-253.47 3318.36,-245.63"/>
<polygon fill="midnightblue" stroke="midnightblue" points="3318.48,-242.13 3308.19,-244.65 3317.8,-249.09 3318.48,-242.13"/>
</g>
<!-- Node68&#45;&gt;Node29 -->
<g id="edge126" class="edge">
<title>Node68&#45;&gt;Node29</title>
<path fill="none" stroke="midnightblue" d="M2809.21,-414.43C2779.3,-407.2 2738.32,-395.23 2705.09,-378 2648.83,-348.81 2644.27,-326.99 2592.09,-291 2537.38,-253.26 2470.11,-213.49 2434.65,-193.01"/>
<polygon fill="midnightblue" stroke="midnightblue" points="2435.95,-189.72 2425.53,-187.77 2432.46,-195.79 2435.95,-189.72"/>
</g>
<!-- Node68&#45;&gt;Node35 -->
<g id="edge130" class="edge">
<title>Node68&#45;&gt;Node35</title>
<path fill="none" stroke="midnightblue" d="M2898.23,-419.2C2956.47,-413.64 3049.86,-401.32 3075.09,-378 3089.23,-364.94 3093.64,-342.69 3094.89,-326.68"/>
<polygon fill="midnightblue" stroke="midnightblue" points="3098.4,-326.48 3095.33,-316.34 3091.4,-326.19 3098.4,-326.48"/>
</g>
<!-- Node69 -->
<g id="node46" class="node">
<title>Node69</title>
<g id="a_node46"><a xlink:title=" ">
<polygon fill="white" stroke="#bfbfbf" points="3016.09,-358.5 3016.09,-377.5 3066.09,-377.5 3066.09,-358.5 3016.09,-358.5"/>
<text text-anchor="middle" x="3041.09" y="-365.5" font-family="Helvetica,sans-Serif" font-size="10.00">chrono</text>
</a>
</g>
</g>
<!-- Node68&#45;&gt;Node69 -->
<g id="edge127" class="edge">
<title>Node68&#45;&gt;Node69</title>
<path fill="none" stroke="midnightblue" d="M2880.36,-414.44C2914.44,-404.81 2969.76,-389.17 3005.78,-378.98"/>
<polygon fill="midnightblue" stroke="midnightblue" points="3007.18,-382.23 3015.85,-376.14 3005.27,-375.49 3007.18,-382.23"/>
</g>
<!-- Node70 -->
<g id="node47" class="node">
<title>Node70</title>
<g id="a_node47"><a xlink:href="core_2param_2param_8h.html" target="_top" xlink:title=" ">
<polygon fill="white" stroke="red" points="2730.09,-358.5 2730.09,-377.5 2846.09,-377.5 2846.09,-358.5 2730.09,-358.5"/>
<text text-anchor="middle" x="2788.09" y="-365.5" font-family="Helvetica,sans-Serif" font-size="10.00">core/param/param.h</text>
</a>
</g>
</g>
<!-- Node68&#45;&gt;Node70 -->
<g id="edge134" class="edge">
<title>Node68&#45;&gt;Node70</title>
<path fill="none" stroke="midnightblue" d="M2840.13,-414.32C2830.97,-406.34 2817.16,-394.31 2806.06,-384.65"/>
<polygon fill="midnightblue" stroke="midnightblue" points="2808.07,-381.76 2798.24,-377.83 2803.48,-387.04 2808.07,-381.76"/>
</g>
<!-- Node75 -->
<g id="node48" class="node">
<title>Node75</title>
<g id="a_node48"><a xlink:href="timing__aggregator_8h.html" target="_top" xlink:title=" ">
<polygon fill="white" stroke="red" points="2796.09,-297 2796.09,-316 2954.09,-316 2954.09,-297 2796.09,-297"/>
<text text-anchor="middle" x="2875.09" y="-304" font-family="Helvetica,sans-Serif" font-size="10.00">core/util/timing_aggregator.h</text>
</a>
</g>
</g>
<!-- Node68&#45;&gt;Node75 -->
<g id="edge142" class="edge">
<title>Node68&#45;&gt;Node75</title>
<path fill="none" stroke="midnightblue" d="M2851.97,-414.32C2856.01,-395.67 2865.58,-351.44 2871.06,-326.13"/>
<polygon fill="midnightblue" stroke="midnightblue" points="2874.5,-326.8 2873.19,-316.28 2867.66,-325.32 2874.5,-326.8"/>
</g>
<!-- Node70&#45;&gt;Node5 -->
<g id="edge135" class="edge">
<title>Node70&#45;&gt;Node5</title>
<path fill="none" stroke="midnightblue" d="M2759.36,-358.44C2705.61,-342.74 2585.98,-309.28 2483.09,-291 2336.09,-264.89 2296.79,-276.83 2149.09,-255 2136.69,-253.17 2123.23,-250.77 2111.09,-248.46"/>
<polygon fill="midnightblue" stroke="midnightblue" points="2111.74,-245.02 2101.25,-246.55 2110.4,-251.89 2111.74,-245.02"/>
</g>
<!-- Node70&#45;&gt;Node7 -->
<g id="edge139" class="edge">
<title>Node70&#45;&gt;Node7</title>
<path fill="none" stroke="midnightblue" d="M2785.65,-358.26C2778.79,-334.8 2757.68,-269.19 2724.09,-224 2715.52,-212.47 2703.52,-201.84 2693.21,-193.81"/>
<polygon fill="midnightblue" stroke="midnightblue" points="2695.16,-190.9 2685.06,-187.71 2690.97,-196.5 2695.16,-190.9"/>
</g>
<!-- Node70&#45;&gt;Node10 -->
<g id="edge140" class="edge">
<title>Node70&#45;&gt;Node10</title>
<path fill="none" stroke="midnightblue" d="M2846.29,-359.74C2891.46,-352.77 2948.72,-340.53 2963.09,-322 3007.25,-265.06 2945.2,-176.3 2915.45,-139.67"/>
<polygon fill="midnightblue" stroke="midnightblue" points="2917.76,-136.97 2908.67,-131.53 2912.38,-141.46 2917.76,-136.97"/>
</g>
<!-- Node70&#45;&gt;Node17 -->
<g id="edge137" class="edge">
<title>Node70&#45;&gt;Node17</title>
<path fill="none" stroke="midnightblue" d="M2846.19,-363.99C3005.44,-355.61 3437.89,-331.99 3449.09,-322 3531.76,-248.27 3484.16,-186.66 3489.09,-76 3489.49,-67.12 3490.34,-64.8 3489.09,-56 3487.82,-47.04 3485.2,-37.37 3482.65,-29.3"/>
<polygon fill="midnightblue" stroke="midnightblue" points="3485.95,-28.16 3479.44,-19.8 3479.32,-30.4 3485.95,-28.16"/>
</g>
<!-- Node70&#45;&gt;Node33 -->
<g id="edge136" class="edge">
<title>Node70&#45;&gt;Node33</title>
<path fill="none" stroke="midnightblue" d="M2740.81,-358.48C2670.3,-345.76 2539.96,-322.26 2484.34,-312.23"/>
<polygon fill="midnightblue" stroke="midnightblue" points="2484.72,-308.74 2474.26,-310.41 2483.48,-315.63 2484.72,-308.74"/>
</g>
<!-- Node70&#45;&gt;Node35 -->
<g id="edge138" class="edge">
<title>Node70&#45;&gt;Node35</title>
<path fill="none" stroke="midnightblue" d="M2832.08,-358.48C2887.25,-347.78 2981.8,-329.46 3041.24,-317.94"/>
<polygon fill="midnightblue" stroke="midnightblue" points="3042.04,-321.35 3051.19,-316.01 3040.71,-314.48 3042.04,-321.35"/>
</g>
<!-- Node70&#45;&gt;Node62 -->
<g id="edge141" class="edge">
<title>Node70&#45;&gt;Node62</title>
<path fill="none" stroke="midnightblue" d="M2729.9,-365.86C2550.6,-362.1 2008.22,-348.75 1834.09,-322 1828.48,-321.14 1822.61,-319.93 1816.89,-318.58"/>
<polygon fill="midnightblue" stroke="midnightblue" points="1817.39,-315.09 1806.83,-316.03 1815.67,-321.88 1817.39,-315.09"/>
</g>
<!-- Node75&#45;&gt;Node7 -->
<g id="edge145" class="edge">
<title>Node75&#45;&gt;Node7</title>
<path fill="none" stroke="midnightblue" d="M2863.52,-297C2836.86,-277.41 2772.54,-230.32 2762.09,-224 2742.29,-212.02 2718.89,-200.39 2700.91,-191.95"/>
<polygon fill="midnightblue" stroke="midnightblue" points="2702.08,-188.64 2691.53,-187.61 2699.14,-194.99 2702.08,-188.64"/>
</g>
<!-- Node75&#45;&gt;Node17 -->
<g id="edge144" class="edge">
<title>Node75&#45;&gt;Node17</title>
<path fill="none" stroke="midnightblue" d="M2954.22,-298.21C3077.23,-286.64 3301.88,-264.4 3317.09,-255 3405.49,-200.37 3454.43,-76.19 3470.3,-29.35"/>
<polygon fill="midnightblue" stroke="midnightblue" points="3473.69,-30.24 3473.48,-19.65 3467.03,-28.06 3473.69,-30.24"/>
</g>
<!-- Node75&#45;&gt;Node38 -->
<g id="edge143" class="edge">
<title>Node75&#45;&gt;Node38</title>
<path fill="none" stroke="midnightblue" d="M2826.59,-296.95C2692.21,-273.28 2317.03,-207.18 2195.57,-185.78"/>
<polygon fill="midnightblue" stroke="midnightblue" points="2196.06,-182.31 2185.61,-184.02 2194.85,-189.21 2196.06,-182.31"/>
</g>
<!-- Node75&#45;&gt;Node39 -->
<g id="edge146" class="edge">
<title>Node75&#45;&gt;Node39</title>
<path fill="none" stroke="midnightblue" d="M2873.74,-296.73C2872.27,-287.18 2869.88,-271.62 2867.98,-259.28"/>
<polygon fill="midnightblue" stroke="midnightblue" points="2871.4,-258.48 2866.42,-249.13 2864.48,-259.54 2871.4,-258.48"/>
</g>
<!-- Node78&#45;&gt;Node4 -->
<g id="edge152" class="edge">
<title>Node78&#45;&gt;Node4</title>
<path fill="none" stroke="midnightblue" d="M3374.52,-291.31C3370.73,-263.76 3358.6,-202.68 3323.09,-168 3204.52,-52.18 2996.87,-21.63 2907.72,-13.71"/>
<polygon fill="midnightblue" stroke="midnightblue" points="2907.96,-10.22 2897.71,-12.87 2907.38,-17.2 2907.96,-10.22"/>
</g>
<!-- Node78&#45;&gt;Node7 -->
<g id="edge154" class="edge">
<title>Node78&#45;&gt;Node7</title>
<path fill="none" stroke="midnightblue" d="M3311.82,-292.83C3203.38,-271.48 2992.45,-230.05 2958.09,-224 2867.13,-207.98 2759.4,-191.77 2705.84,-183.9"/>
<polygon fill="midnightblue" stroke="midnightblue" points="2706.27,-180.43 2695.87,-182.44 2705.26,-187.35 2706.27,-180.43"/>
</g>
<!-- Node78&#45;&gt;Node10 -->
<g id="edge157" class="edge">
<title>Node78&#45;&gt;Node10</title>
<path fill="none" stroke="midnightblue" d="M3311.99,-292.39C3248.39,-279.17 3159.46,-260.01 3153.09,-255 3119.21,-228.31 3144.12,-194.51 3110.09,-168 3086.37,-149.52 3008.93,-136.4 2955.29,-129.26"/>
<polygon fill="midnightblue" stroke="midnightblue" points="2955.6,-125.78 2945.23,-127.96 2954.7,-132.72 2955.6,-125.78"/>
</g>
<!-- Node78&#45;&gt;Node12 -->
<g id="edge156" class="edge">
<title>Node78&#45;&gt;Node12</title>
<path fill="none" stroke="midnightblue" d="M3368.9,-291.37C3359.23,-273.59 3340.52,-243.08 3317.09,-224 3205.56,-133.17 3036.05,-91.46 2951.63,-75.43"/>
<polygon fill="midnightblue" stroke="midnightblue" points="2952.24,-71.98 2941.77,-73.6 2950.96,-78.87 2952.24,-71.98"/>
</g>
<!-- Node78&#45;&gt;Node17 -->
<g id="edge153" class="edge">
<title>Node78&#45;&gt;Node17</title>
<path fill="none" stroke="midnightblue" d="M3393.21,-291.48C3403.82,-282.06 3417.1,-268.87 3426.09,-255 3473.29,-182.22 3477.22,-73.67 3476.71,-30.11"/>
<polygon fill="midnightblue" stroke="midnightblue" points="3480.21,-29.76 3476.49,-19.84 3473.21,-29.91 3480.21,-29.76"/>
</g>
<!-- Node78&#45;&gt;Node24 -->
<g id="edge158" class="edge">
<title>Node78&#45;&gt;Node24</title>
<path fill="none" stroke="midnightblue" d="M3311.64,-300.54C3266.67,-297.27 3205.26,-293.21 3151.09,-291 2220.17,-253.03 1985.96,-294.21 1055.09,-255 1004.16,-252.85 946.57,-248.91 903.67,-245.68"/>
<polygon fill="midnightblue" stroke="midnightblue" points="903.88,-242.19 893.65,-244.92 903.35,-249.17 903.88,-242.19"/>
</g>
<!-- Node78&#45;&gt;Node48 -->
<g id="edge155" class="edge">
<title>Node78&#45;&gt;Node48</title>
<path fill="none" stroke="midnightblue" d="M3311.61,-301.16C3266.63,-298.19 3205.21,-294.2 3151.09,-291 2825.94,-271.75 2437.07,-251.73 2282.87,-243.91"/>
<polygon fill="midnightblue" stroke="midnightblue" points="2282.78,-240.4 2272.62,-243.39 2282.43,-247.4 2282.78,-240.4"/>
</g>
<!-- Node80&#45;&gt;Node7 -->
<g id="edge162" class="edge">
<title>Node80&#45;&gt;Node7</title>
<path fill="none" stroke="midnightblue" d="M1920.29,-475.95C2014.9,-457.79 2229.64,-409.68 2390.09,-322 2410.77,-310.7 2412.78,-302.94 2433.09,-291 2504.49,-249.03 2594.2,-210.5 2640.78,-191.47"/>
<polygon fill="midnightblue" stroke="midnightblue" points="2642.36,-194.6 2650.31,-187.6 2639.73,-188.12 2642.36,-194.6"/>
</g>
<!-- Node80&#45;&gt;Node31 -->
<g id="edge163" class="edge">
<title>Node80&#45;&gt;Node31</title>
<path fill="none" stroke="midnightblue" d="M1871.52,-475.98C1870.96,-467.58 1870.07,-454.48 1869.35,-443.66"/>
<polygon fill="midnightblue" stroke="midnightblue" points="1872.83,-443.25 1868.66,-433.51 1865.84,-443.72 1872.83,-443.25"/>
</g>
</g>
</svg>
