<?xml version="1.0" encoding="UTF-8" standalone="no"?>
<!DOCTYPE svg PUBLIC "-//W3C//DTD SVG 1.1//EN"
 "http://www.w3.org/Graphics/SVG/1.1/DTD/svg11.dtd">
<!-- Generated by graphviz version 2.43.0 (0)
 -->
<!-- Title: Graphical Class Hierarchy Pages: 1 -->
<svg width="365pt" height="292pt"
 viewBox="0.00 0.00 365.00 291.50" xmlns="http://www.w3.org/2000/svg" xmlns:xlink="http://www.w3.org/1999/xlink">
<g id="graph0" class="graph" transform="scale(1 1) rotate(0) translate(4 287.5)">
<title>Graphical Class Hierarchy</title>
<polygon fill="white" stroke="transparent" points="-4,4 -4,-287.5 361,-287.5 361,4 -4,4"/>
<!-- Node0 -->
<g id="node1" class="node">
<title>Node0</title>
<g id="a_node1"><a xlink:href="classbdm_1_1Functor.html" target="_top" xlink:title=" ">
<polygon fill="white" stroke="black" points="0,-121 0,-151 137,-151 137,-121 0,-121"/>
<text text-anchor="start" x="8" y="-139" font-family="Helvetica,sans-Serif" font-size="10.00">bdm::Functor&lt; void,</text>
<text text-anchor="middle" x="68.5" y="-128" font-family="Helvetica,sans-Serif" font-size="10.00"> Agent *, AgentHandle &gt;</text>
</a>
</g>
</g>
<!-- Node1 -->
<g id="node2" class="node">
<title>Node1</title>
<g id="a_node2"><a xlink:href="structbdm_1_1Environment_1_1SimDimensionAndLargestAgentFunctor.html" target="_top" xlink:title=" ">
<polygon fill="white" stroke="black" points="173,-253 173,-283 357,-283 357,-253 173,-253"/>
<text text-anchor="start" x="181" y="-271" font-family="Helvetica,sans-Serif" font-size="10.00">bdm::Environment::SimDimension</text>
<text text-anchor="middle" x="265" y="-260" font-family="Helvetica,sans-Serif" font-size="10.00">AndLargestAgentFunctor</text>
</a>
</g>
</g>
<!-- Node0&#45;&gt;Node1 -->
<g id="edge1" class="edge">
<title>Node0&#45;&gt;Node1</title>
<path fill="none" stroke="midnightblue" d="M86.21,-159.61C104.72,-184.02 136.76,-221.52 173,-243 179.48,-246.84 186.57,-250.11 193.85,-252.89"/>
<polygon fill="midnightblue" stroke="midnightblue" points="88.79,-157.21 80.02,-151.26 83.17,-161.37 88.79,-157.21"/>
</g>
<!-- Node2 -->
<g id="node3" class="node">
<title>Node2</title>
<g id="a_node3"><a xlink:href="structbdm_1_1Fea.html" target="_top" xlink:title=" ">
<polygon fill="white" stroke="black" points="234,-214.5 234,-233.5 296,-233.5 296,-214.5 234,-214.5"/>
<text text-anchor="middle" x="265" y="-221.5" font-family="Helvetica,sans-Serif" font-size="10.00">bdm::Fea</text>
</a>
</g>
</g>
<!-- Node0&#45;&gt;Node2 -->
<g id="edge2" class="edge">
<title>Node0&#45;&gt;Node2</title>
<path fill="none" stroke="midnightblue" d="M95.34,-157.32C115.36,-172.79 144.42,-193.02 173,-205 192.35,-213.11 215.51,-217.88 233.63,-220.62"/>
<polygon fill="midnightblue" stroke="midnightblue" points="97.36,-154.46 87.34,-151.02 93.03,-159.96 97.36,-154.46"/>
</g>
<!-- Node3 -->
<g id="node4" class="node">
<title>Node3</title>
<g id="a_node4"><a xlink:href="structbdm_1_1ForEachAgentParallelFunctor.html" target="_top" xlink:title=" ">
<polygon fill="white" stroke="black" points="191.5,-165 191.5,-195 338.5,-195 338.5,-165 191.5,-165"/>
<text text-anchor="start" x="199.5" y="-183" font-family="Helvetica,sans-Serif" font-size="10.00">bdm::ForEachAgentParallel</text>
<text text-anchor="middle" x="265" y="-172" font-family="Helvetica,sans-Serif" font-size="10.00">Functor&lt; TFunctor &gt;</text>
</a>
</g>
</g>
<!-- Node0&#45;&gt;Node3 -->
<g id="edge3" class="edge">
<title>Node0&#45;&gt;Node3</title>
<path fill="none" stroke="midnightblue" d="M145.83,-153.27C162.93,-157.14 180.92,-161.21 197.58,-164.97"/>
<polygon fill="midnightblue" stroke="midnightblue" points="146.42,-149.81 135.89,-151.02 144.87,-156.64 146.42,-149.81"/>
</g>
<!-- Node4 -->
<g id="node5" class="node">
<title>Node4</title>
<g id="a_node5"><a xlink:href="structbdm_1_1RunAllScheduledOps.html" target="_top" xlink:title=" ">
<polygon fill="white" stroke="black" points="192.5,-126.5 192.5,-145.5 337.5,-145.5 337.5,-126.5 192.5,-126.5"/>
<text text-anchor="middle" x="265" y="-133.5" font-family="Helvetica,sans-Serif" font-size="10.00">bdm::RunAllScheduledOps</text>
</a>
</g>
</g>
<!-- Node0&#45;&gt;Node4 -->
<g id="edge4" class="edge">
<title>Node0&#45;&gt;Node4</title>
<path fill="none" stroke="midnightblue" d="M147.38,-136C162.17,-136 177.59,-136 192.19,-136"/>
<polygon fill="midnightblue" stroke="midnightblue" points="147.25,-132.5 137.25,-136 147.25,-139.5 147.25,-132.5"/>
</g>
<!-- Node5 -->
<g id="node6" class="node">
<title>Node5</title>
<g id="a_node6"><a xlink:href="structbdm_1_1UniformGridEnvironment_1_1AssignToBoxesFunctor.html" target="_top" xlink:title=" ">
<polygon fill="white" stroke="black" points="181.5,-77 181.5,-107 348.5,-107 348.5,-77 181.5,-77"/>
<text text-anchor="start" x="189.5" y="-95" font-family="Helvetica,sans-Serif" font-size="10.00">bdm::UniformGridEnvironment</text>
<text text-anchor="middle" x="265" y="-84" font-family="Helvetica,sans-Serif" font-size="10.00">::AssignToBoxesFunctor</text>
</a>
</g>
</g>
<!-- Node0&#45;&gt;Node5 -->
<g id="edge5" class="edge">
<title>Node0&#45;&gt;Node5</title>
<path fill="none" stroke="midnightblue" d="M145.83,-118.73C162.93,-114.86 180.92,-110.79 197.58,-107.03"/>
<polygon fill="midnightblue" stroke="midnightblue" points="144.87,-115.36 135.89,-120.98 146.42,-122.19 144.87,-115.36"/>
</g>
<!-- Node6 -->
<g id="node7" class="node">
<title>Node6</title>
<g id="a_node7"><a xlink:href="structbdm_1_1UpdateCPUResults.html" target="_top" xlink:title=" ">
<polygon fill="white" stroke="black" points="197,-38.5 197,-57.5 333,-57.5 333,-38.5 197,-38.5"/>
<text text-anchor="middle" x="265" y="-45.5" font-family="Helvetica,sans-Serif" font-size="10.00">bdm::UpdateCPUResults</text>
</a>
</g>
</g>
<!-- Node0&#45;&gt;Node6 -->
<g id="edge6" class="edge">
<title>Node0&#45;&gt;Node6</title>
<path fill="none" stroke="midnightblue" d="M95.79,-114.81C115.85,-99.65 144.74,-79.91 173,-68 183.14,-63.73 194.31,-60.32 205.25,-57.61"/>
<polygon fill="midnightblue" stroke="midnightblue" points="93.56,-112.11 87.77,-120.99 97.83,-117.66 93.56,-112.11"/>
</g>
<!-- Node7 -->
<g id="node8" class="node">
<title>Node7</title>
<g id="a_node8"><a xlink:href="structbdm_1_1detail_1_1InitializeGPUData.html" target="_top" xlink:title=" ">
<polygon fill="white" stroke="black" points="183,-0.5 183,-19.5 347,-19.5 347,-0.5 183,-0.5"/>
<text text-anchor="middle" x="265" y="-7.5" font-family="Helvetica,sans-Serif" font-size="10.00">bdm::detail::InitializeGPUData</text>
</a>
</g>
</g>
<!-- Node0&#45;&gt;Node7 -->
<g id="edge7" class="edge">
<title>Node0&#45;&gt;Node7</title>
<path fill="none" stroke="midnightblue" d="M85.42,-112.67C103.61,-87.9 135.75,-49.54 173,-29 180.07,-25.1 187.84,-22 195.79,-19.54"/>
<polygon fill="midnightblue" stroke="midnightblue" points="82.56,-110.65 79.57,-120.82 88.25,-114.73 82.56,-110.65"/>
</g>
</g>
</svg>
