<?xml version="1.0" encoding="UTF-8" standalone="no"?>
<!DOCTYPE svg PUBLIC "-//W3C//DTD SVG 1.1//EN"
 "http://www.w3.org/Graphics/SVG/1.1/DTD/svg11.dtd">
<!-- Generated by graphviz version 2.43.0 (0)
 -->
<!-- Title: Graphical Class Hierarchy Pages: 1 -->
<svg width="343pt" height="237pt"
 viewBox="0.00 0.00 343.00 237.00" xmlns="http://www.w3.org/2000/svg" xmlns:xlink="http://www.w3.org/1999/xlink">
<g id="graph0" class="graph" transform="scale(1 1) rotate(0) translate(4 233)">
<title>Graphical Class Hierarchy</title>
<polygon fill="white" stroke="transparent" points="-4,4 -4,-233 339,-233 339,4 -4,4"/>
<!-- Node0 -->
<g id="node1" class="node">
<title>Node0</title>
<g id="a_node1"><a xlink:href="classbdm_1_1Functor.html" target="_top" xlink:title=" ">
<polygon fill="white" stroke="black" points="0,-110.5 0,-140.5 136,-140.5 136,-110.5 0,-110.5"/>
<text text-anchor="start" x="8" y="-128.5" font-family="Helvetica,sans-Serif" font-size="10.00">bdm::Functor&lt; void,</text>
<text text-anchor="middle" x="68" y="-117.5" font-family="Helvetica,sans-Serif" font-size="10.00"> const Agent *, double &gt;</text>
</a>
</g>
</g>
<!-- Node1 -->
<g id="node2" class="node">
<title>Node1</title>
<g id="a_node2"><a xlink:href="structbdm_1_1Cell_1_1MechanicalForcesFunctor.html" target="_top" xlink:title=" ">
<polygon fill="white" stroke="black" points="175.5,-198.5 175.5,-228.5 331.5,-228.5 331.5,-198.5 175.5,-198.5"/>
<text text-anchor="start" x="183.5" y="-216.5" font-family="Helvetica,sans-Serif" font-size="10.00">bdm::Cell::MechanicalForces</text>
<text text-anchor="middle" x="253.5" y="-205.5" font-family="Helvetica,sans-Serif" font-size="10.00">Functor</text>
</a>
</g>
</g>
<!-- Node0&#45;&gt;Node1 -->
<g id="edge1" class="edge">
<title>Node0&#45;&gt;Node1</title>
<path fill="none" stroke="midnightblue" d="M98.61,-146.33C118.63,-159.73 146.05,-176.75 172,-188.5 180.13,-192.18 188.96,-195.53 197.69,-198.49"/>
<polygon fill="midnightblue" stroke="midnightblue" points="100.47,-143.37 90.23,-140.66 96.55,-149.17 100.47,-143.37"/>
</g>
<!-- Node2 -->
<g id="node3" class="node">
<title>Node2</title>
<g id="a_node3"><a xlink:href="structbdm_1_1ForEachNeighborFunctor.html" target="_top" xlink:title=" ">
<polygon fill="white" stroke="black" points="172,-160 172,-179 335,-179 335,-160 172,-160"/>
<text text-anchor="middle" x="253.5" y="-167" font-family="Helvetica,sans-Serif" font-size="10.00">bdm::ForEachNeighborFunctor</text>
</a>
</g>
</g>
<!-- Node0&#45;&gt;Node2 -->
<g id="edge2" class="edge">
<title>Node0&#45;&gt;Node2</title>
<path fill="none" stroke="midnightblue" d="M140.55,-142.93C151.1,-145.48 161.83,-148.07 172,-150.5 184.99,-153.61 199.16,-156.97 211.95,-159.98"/>
<polygon fill="midnightblue" stroke="midnightblue" points="141.07,-139.45 130.53,-140.5 139.43,-146.26 141.07,-139.45"/>
</g>
<!-- Node3 -->
<g id="node4" class="node">
<title>Node3</title>
<g id="a_node4"><a xlink:href="structbdm_1_1ForEachNeighborWithinRadiusFunctor.html" target="_top" xlink:title=" ">
<polygon fill="white" stroke="black" points="174.5,-110.5 174.5,-140.5 332.5,-140.5 332.5,-110.5 174.5,-110.5"/>
<text text-anchor="start" x="182.5" y="-128.5" font-family="Helvetica,sans-Serif" font-size="10.00">bdm::ForEachNeighborWithin</text>
<text text-anchor="middle" x="253.5" y="-117.5" font-family="Helvetica,sans-Serif" font-size="10.00">RadiusFunctor</text>
</a>
</g>
</g>
<!-- Node0&#45;&gt;Node3 -->
<g id="edge3" class="edge">
<title>Node0&#45;&gt;Node3</title>
<path fill="none" stroke="midnightblue" d="M146.1,-125.5C155.48,-125.5 165.07,-125.5 174.46,-125.5"/>
<polygon fill="midnightblue" stroke="midnightblue" points="146.03,-122 136.03,-125.5 146.03,-129 146.03,-122"/>
</g>
<!-- Node4 -->
<g id="node5" class="node">
<title>Node4</title>
<g id="a_node5"><a xlink:href="structbdm_1_1neuroscience_1_1NeuriteElement_1_1MechanicalForcesFunctor.html" target="_top" xlink:title=" ">
<polygon fill="white" stroke="black" points="176,-50 176,-91 331,-91 331,-50 176,-50"/>
<text text-anchor="start" x="184" y="-79" font-family="Helvetica,sans-Serif" font-size="10.00">bdm::neuroscience::</text>
<text text-anchor="start" x="184" y="-68" font-family="Helvetica,sans-Serif" font-size="10.00">NeuriteElement::Mechanical</text>
<text text-anchor="middle" x="253.5" y="-57" font-family="Helvetica,sans-Serif" font-size="10.00">ForcesFunctor</text>
</a>
</g>
</g>
<!-- Node0&#45;&gt;Node4 -->
<g id="edge4" class="edge">
<title>Node0&#45;&gt;Node4</title>
<path fill="none" stroke="midnightblue" d="M129.21,-107.45C146.68,-102.22 165.89,-96.46 183.85,-91.08"/>
<polygon fill="midnightblue" stroke="midnightblue" points="127.72,-104.25 119.14,-110.47 129.73,-110.95 127.72,-104.25"/>
</g>
<!-- Node5 -->
<g id="node6" class="node">
<title>Node5</title>
<g id="a_node6"><a xlink:href="structbdm_1_1SetStaticnessForEachNeighbor.html" target="_top" xlink:title=" ">
<polygon fill="white" stroke="black" points="179,-0.5 179,-30.5 328,-30.5 328,-0.5 179,-0.5"/>
<text text-anchor="start" x="187" y="-18.5" font-family="Helvetica,sans-Serif" font-size="10.00">bdm::SetStaticnessForEach</text>
<text text-anchor="middle" x="253.5" y="-7.5" font-family="Helvetica,sans-Serif" font-size="10.00">Neighbor</text>
</a>
</g>
</g>
<!-- Node0&#45;&gt;Node5 -->
<g id="edge5" class="edge">
<title>Node0&#45;&gt;Node5</title>
<path fill="none" stroke="midnightblue" d="M90.9,-103.05C110.56,-84.03 141.03,-57.24 172,-40.5 178.95,-36.74 186.55,-33.46 194.22,-30.61"/>
<polygon fill="midnightblue" stroke="midnightblue" points="88.33,-100.67 83.66,-110.18 93.24,-105.65 88.33,-100.67"/>
</g>
</g>
</svg>
