<?xml version="1.0" encoding="UTF-8" standalone="no"?>
<!DOCTYPE svg PUBLIC "-//W3C//DTD SVG 1.1//EN"
 "http://www.w3.org/Graphics/SVG/1.1/DTD/svg11.dtd">
<!-- Generated by graphviz version 2.43.0 (0)
 -->
<!-- Title: Graphical Class Hierarchy Pages: 1 -->
<svg width="286pt" height="78pt"
 viewBox="0.00 0.00 286.00 77.50" xmlns="http://www.w3.org/2000/svg" xmlns:xlink="http://www.w3.org/1999/xlink">
<g id="graph0" class="graph" transform="scale(1 1) rotate(0) translate(4 73.5)">
<title>Graphical Class Hierarchy</title>
<polygon fill="white" stroke="transparent" points="-4,4 -4,-73.5 282,-73.5 282,4 -4,4"/>
<!-- Node0 -->
<g id="node1" class="node">
<title>Node0</title>
<g id="a_node1"><a xlink:href="structbdm_1_1ParamGroup.html" target="_top" xlink:title="Interface for parameter groups.">
<polygon fill="white" stroke="black" points="0,-22.5 0,-41.5 104,-41.5 104,-22.5 0,-22.5"/>
<text text-anchor="middle" x="52" y="-29.5" font-family="Helvetica,sans-Serif" font-size="10.00">bdm::ParamGroup</text>
</a>
</g>
</g>
<!-- Node1 -->
<g id="node2" class="node">
<title>Node1</title>
<g id="a_node2"><a xlink:href="structbdm_1_1neuroscience_1_1Param.html" target="_top" xlink:title=" ">
<polygon fill="white" stroke="black" points="151.5,-39 151.5,-69 266.5,-69 266.5,-39 151.5,-39"/>
<text text-anchor="start" x="159.5" y="-57" font-family="Helvetica,sans-Serif" font-size="10.00">bdm::neuroscience::</text>
<text text-anchor="middle" x="209" y="-46" font-family="Helvetica,sans-Serif" font-size="10.00">Param</text>
</a>
</g>
</g>
<!-- Node0&#45;&gt;Node1 -->
<g id="edge1" class="edge">
<title>Node0&#45;&gt;Node1</title>
<path fill="none" stroke="midnightblue" d="M114.27,-40.7C126.46,-42.43 139.22,-44.24 151.25,-45.95"/>
<polygon fill="midnightblue" stroke="midnightblue" points="114.58,-37.2 104.18,-39.26 113.59,-44.14 114.58,-37.2"/>
</g>
<!-- Node2 -->
<g id="node3" class="node">
<title>Node2</title>
<g id="a_node3"><a xlink:href="structbdm_1_1OptimizationParam.html" target="_top" xlink:title=" ">
<polygon fill="white" stroke="black" points="140,-0.5 140,-19.5 278,-19.5 278,-0.5 140,-0.5"/>
<text text-anchor="middle" x="209" y="-7.5" font-family="Helvetica,sans-Serif" font-size="10.00">bdm::OptimizationParam</text>
</a>
</g>
</g>
<!-- Node0&#45;&gt;Node2 -->
<g id="edge2" class="edge">
<title>Node0&#45;&gt;Node2</title>
<path fill="none" stroke="midnightblue" d="M114.27,-23.3C122.99,-22.07 132.01,-20.79 140.84,-19.53"/>
<polygon fill="midnightblue" stroke="midnightblue" points="113.59,-19.86 104.18,-24.74 114.58,-26.8 113.59,-19.86"/>
</g>
</g>
</svg>
