<?xml version="1.0" encoding="UTF-8" standalone="no"?>
<!DOCTYPE svg PUBLIC "-//W3C//DTD SVG 1.1//EN"
 "http://www.w3.org/Graphics/SVG/1.1/DTD/svg11.dtd">
<!-- Generated by graphviz version 2.40.1 (20161225.0304)
 -->
<!-- Title: core/operation/load_balancing_op.h Pages: 1 -->
<svg width="2876pt" height="699pt"
 viewBox="0.00 0.00 2876.00 699.00" xmlns="http://www.w3.org/2000/svg" xmlns:xlink="http://www.w3.org/1999/xlink">
<g id="graph0" class="graph" transform="scale(1 1) rotate(0) translate(4 695)">
<title>core/operation/load_balancing_op.h</title>
<polygon fill="#ffffff" stroke="transparent" points="-4,4 -4,-695 2872,-695 2872,4 -4,4"/>
<!-- Node0 -->
<g id="node1" class="node">
<title>Node0</title>
<polygon fill="#bfbfbf" stroke="#000000" points="2044.5,-660.5 2044.5,-690.5 2155.5,-690.5 2155.5,-660.5 2044.5,-660.5"/>
<text text-anchor="start" x="2052.5" y="-678.5" font-family="Helvetica,sans-Serif" font-size="10.00" fill="#000000">core/operation/load</text>
<text text-anchor="middle" x="2100" y="-667.5" font-family="Helvetica,sans-Serif" font-size="10.00" fill="#000000">_balancing_op.h</text>
</g>
<!-- Node1 -->
<g id="node2" class="node">
<title>Node1</title>
<g id="a_node2"><a xlink:href="operation_8h.html" target="_top" xlink:title="core/operation/operation.h">
<polygon fill="#ffffff" stroke="#000000" points="2580,-168.5 2580,-187.5 2726,-187.5 2726,-168.5 2580,-168.5"/>
<text text-anchor="middle" x="2653" y="-175.5" font-family="Helvetica,sans-Serif" font-size="10.00" fill="#000000">core/operation/operation.h</text>
</a>
</g>
</g>
<!-- Node0&#45;&gt;Node1 -->
<g id="edge1" class="edge">
<title>Node0&#45;&gt;Node1</title>
<path fill="none" stroke="#191970" d="M2155.751,-671.9037C2320.2266,-660.5561 2792,-622.3946 2792,-558 2792,-558 2792,-558 2792,-306.5 2792,-249.4854 2728.164,-210.7324 2687.013,-191.674"/>
<polygon fill="#191970" stroke="#191970" points="2688.4083,-188.464 2677.8504,-187.5795 2685.5523,-194.8549 2688.4083,-188.464"/>
</g>
<!-- Node12 -->
<g id="node13" class="node">
<title>Node12</title>
<g id="a_node13"><a xlink:href="resource__manager_8h.html" target="_top" xlink:title="core/resource_manager.h">
<polygon fill="#ffffff" stroke="#000000" points="1289,-604.5 1289,-623.5 1429,-623.5 1429,-604.5 1289,-604.5"/>
<text text-anchor="middle" x="1359" y="-611.5" font-family="Helvetica,sans-Serif" font-size="10.00" fill="#000000">core/resource_manager.h</text>
</a>
</g>
</g>
<!-- Node0&#45;&gt;Node12 -->
<g id="edge16" class="edge">
<title>Node0&#45;&gt;Node12</title>
<path fill="none" stroke="#191970" d="M2044.3046,-670.8775C1914.3423,-660.0912 1590.6358,-633.2248 1439.328,-620.6669"/>
<polygon fill="#191970" stroke="#191970" points="1439.431,-617.1635 1429.1757,-619.8243 1438.8519,-624.1395 1439.431,-617.1635"/>
</g>
<!-- Node38 -->
<g id="node30" class="node">
<title>Node38</title>
<g id="a_node30"><a xlink:href="simulation_8h.html" target="_top" xlink:title="core/simulation.h">
<polygon fill="#ffffff" stroke="#000000" points="2049.5,-364 2049.5,-383 2150.5,-383 2150.5,-364 2049.5,-364"/>
<text text-anchor="middle" x="2100" y="-371" font-family="Helvetica,sans-Serif" font-size="10.00" fill="#000000">core/simulation.h</text>
</a>
</g>
</g>
<!-- Node0&#45;&gt;Node38 -->
<g id="edge146" class="edge">
<title>Node0&#45;&gt;Node38</title>
<path fill="none" stroke="#191970" d="M2100,-660.2899C2100,-637.892 2100,-594.7188 2100,-558 2100,-558 2100,-558 2100,-502 2100,-463.5012 2100,-418.5145 2100,-393.2812"/>
<polygon fill="#191970" stroke="#191970" points="2103.5001,-393.1718 2100,-383.1719 2096.5001,-393.1719 2103.5001,-393.1718"/>
</g>
<!-- Node2 -->
<g id="node3" class="node">
<title>Node2</title>
<polygon fill="#ffffff" stroke="#bfbfbf" points="2462.5,-56.5 2462.5,-75.5 2527.5,-75.5 2527.5,-56.5 2462.5,-56.5"/>
<text text-anchor="middle" x="2495" y="-63.5" font-family="Helvetica,sans-Serif" font-size="10.00" fill="#000000">functional</text>
</g>
<!-- Node1&#45;&gt;Node2 -->
<g id="edge2" class="edge">
<title>Node1&#45;&gt;Node2</title>
<path fill="none" stroke="#191970" d="M2639.529,-168.4509C2612.2437,-149.1094 2550.2246,-105.1465 2516.9936,-81.5904"/>
<polygon fill="#191970" stroke="#191970" points="2518.6192,-78.4526 2508.4369,-75.5249 2514.571,-84.1633 2518.6192,-78.4526"/>
</g>
<!-- Node3 -->
<g id="node4" class="node">
<title>Node3</title>
<polygon fill="#ffffff" stroke="#bfbfbf" points="2732,-.5 2732,-19.5 2776,-19.5 2776,-.5 2732,-.5"/>
<text text-anchor="middle" x="2754" y="-7.5" font-family="Helvetica,sans-Serif" font-size="10.00" fill="#000000">string</text>
</g>
<!-- Node1&#45;&gt;Node3 -->
<g id="edge3" class="edge">
<title>Node1&#45;&gt;Node3</title>
<path fill="none" stroke="#191970" d="M2658.7196,-168.4862C2674.8927,-141.5845 2721.1754,-64.5994 2742.7173,-28.7673"/>
<polygon fill="#191970" stroke="#191970" points="2745.9387,-30.2017 2748.0916,-19.8279 2739.9394,-26.5949 2745.9387,-30.2017"/>
</g>
<!-- Node4 -->
<g id="node5" class="node">
<title>Node4</title>
<polygon fill="#ffffff" stroke="#bfbfbf" points="618.5,-.5 618.5,-19.5 665.5,-19.5 665.5,-.5 618.5,-.5"/>
<text text-anchor="middle" x="642" y="-7.5" font-family="Helvetica,sans-Serif" font-size="10.00" fill="#000000">vector</text>
</g>
<!-- Node1&#45;&gt;Node4 -->
<g id="edge4" class="edge">
<title>Node1&#45;&gt;Node4</title>
<path fill="none" stroke="#191970" d="M2652.4929,-168.2274C2650.6617,-144.2481 2642.2676,-82.5277 2604,-56 2562.7216,-27.3851 932.0401,-12.4505 675.7458,-10.278"/>
<polygon fill="#191970" stroke="#191970" points="675.5905,-6.7766 665.5613,-10.1922 675.5315,-13.7764 675.5905,-6.7766"/>
</g>
<!-- Node5 -->
<g id="node6" class="node">
<title>Node5</title>
<g id="a_node6"><a xlink:href="log_8h.html" target="_top" xlink:title="core/util/log.h">
<polygon fill="#ffffff" stroke="#000000" points="2013.5,-112.5 2013.5,-131.5 2096.5,-131.5 2096.5,-112.5 2013.5,-112.5"/>
<text text-anchor="middle" x="2055" y="-119.5" font-family="Helvetica,sans-Serif" font-size="10.00" fill="#000000">core/util/log.h</text>
</a>
</g>
</g>
<!-- Node1&#45;&gt;Node5 -->
<g id="edge5" class="edge">
<title>Node1&#45;&gt;Node5</title>
<path fill="none" stroke="#191970" d="M2579.9726,-171.1613C2457.3994,-159.6829 2213.2555,-136.8199 2106.7251,-126.8438"/>
<polygon fill="#191970" stroke="#191970" points="2106.833,-123.3387 2096.5502,-125.891 2106.1803,-130.3082 2106.833,-123.3387"/>
</g>
<!-- Node5&#45;&gt;Node2 -->
<g id="edge9" class="edge">
<title>Node5&#45;&gt;Node2</title>
<path fill="none" stroke="#191970" d="M2096.7908,-116.6812C2180.4995,-106.0273 2367.9227,-82.1735 2452.3421,-71.4292"/>
<polygon fill="#191970" stroke="#191970" points="2452.8747,-74.8897 2462.3527,-70.1551 2451.9908,-67.9457 2452.8747,-74.8897"/>
</g>
<!-- Node5&#45;&gt;Node3 -->
<g id="edge11" class="edge">
<title>Node5&#45;&gt;Node3</title>
<path fill="none" stroke="#191970" d="M2061.1578,-112.2193C2071.3101,-97.0758 2093.1363,-68.4091 2120,-56 2174.8862,-30.6465 2600.3627,-14.9923 2721.7611,-11.0097"/>
<polygon fill="#191970" stroke="#191970" points="2722.022,-14.5031 2731.9034,-10.681 2721.7953,-7.5068 2722.022,-14.5031"/>
</g>
<!-- Node6 -->
<g id="node7" class="node">
<title>Node6</title>
<polygon fill="#ffffff" stroke="#bfbfbf" points="2019,-56.5 2019,-75.5 2073,-75.5 2073,-56.5 2019,-56.5"/>
<text text-anchor="middle" x="2046" y="-63.5" font-family="Helvetica,sans-Serif" font-size="10.00" fill="#000000">TError.h</text>
</g>
<!-- Node5&#45;&gt;Node6 -->
<g id="edge6" class="edge">
<title>Node5&#45;&gt;Node6</title>
<path fill="none" stroke="#191970" d="M2053.4323,-112.2455C2052.2579,-104.9382 2050.6116,-94.6944 2049.1668,-85.7046"/>
<polygon fill="#191970" stroke="#191970" points="2052.5922,-84.9606 2047.5497,-75.6427 2045.6809,-86.0714 2052.5922,-84.9606"/>
</g>
<!-- Node7 -->
<g id="node8" class="node">
<title>Node7</title>
<polygon fill="#ffffff" stroke="#bfbfbf" points="2129,-56.5 2129,-75.5 2175,-75.5 2175,-56.5 2129,-56.5"/>
<text text-anchor="middle" x="2152" y="-63.5" font-family="Helvetica,sans-Serif" font-size="10.00" fill="#000000">cstdio</text>
</g>
<!-- Node5&#45;&gt;Node7 -->
<g id="edge7" class="edge">
<title>Node5&#45;&gt;Node7</title>
<path fill="none" stroke="#191970" d="M2071.8961,-112.2455C2086.918,-103.5731 2109.1043,-90.7645 2126.321,-80.825"/>
<polygon fill="#191970" stroke="#191970" points="2128.3871,-83.6737 2135.2975,-75.6427 2124.8872,-77.6114 2128.3871,-83.6737"/>
</g>
<!-- Node8 -->
<g id="node9" class="node">
<title>Node8</title>
<polygon fill="#ffffff" stroke="#bfbfbf" points="1951.5,-56.5 1951.5,-75.5 2000.5,-75.5 2000.5,-56.5 1951.5,-56.5"/>
<text text-anchor="middle" x="1976" y="-63.5" font-family="Helvetica,sans-Serif" font-size="10.00" fill="#000000">cstdlib</text>
</g>
<!-- Node5&#45;&gt;Node8 -->
<g id="edge8" class="edge">
<title>Node5&#45;&gt;Node8</title>
<path fill="none" stroke="#191970" d="M2041.2393,-112.2455C2029.3448,-103.814 2011.935,-91.4729 1998.0915,-81.6598"/>
<polygon fill="#191970" stroke="#191970" points="1999.7854,-78.5704 1989.6031,-75.6427 1995.7372,-84.2811 1999.7854,-78.5704"/>
</g>
<!-- Node9 -->
<g id="node10" class="node">
<title>Node9</title>
<polygon fill="#ffffff" stroke="#bfbfbf" points="2234,-56.5 2234,-75.5 2294,-75.5 2294,-56.5 2234,-56.5"/>
<text text-anchor="middle" x="2264" y="-63.5" font-family="Helvetica,sans-Serif" font-size="10.00" fill="#000000">iostream</text>
</g>
<!-- Node5&#45;&gt;Node9 -->
<g id="edge10" class="edge">
<title>Node5&#45;&gt;Node9</title>
<path fill="none" stroke="#191970" d="M2090.9284,-112.3733C2127.9979,-102.4408 2185.6786,-86.9856 2224.1329,-76.6821"/>
<polygon fill="#191970" stroke="#191970" points="2225.1995,-80.0199 2233.9529,-74.0509 2223.3877,-73.2584 2225.1995,-80.0199"/>
</g>
<!-- Node10 -->
<g id="node11" class="node">
<title>Node10</title>
<g id="a_node11"><a xlink:href="string_8h.html" target="_top" xlink:title="core/util/string.h">
<polygon fill="#ffffff" stroke="#000000" points="594,-56.5 594,-75.5 690,-75.5 690,-56.5 594,-56.5"/>
<text text-anchor="middle" x="642" y="-63.5" font-family="Helvetica,sans-Serif" font-size="10.00" fill="#000000">core/util/string.h</text>
</a>
</g>
</g>
<!-- Node5&#45;&gt;Node10 -->
<g id="edge12" class="edge">
<title>Node5&#45;&gt;Node10</title>
<path fill="none" stroke="#191970" d="M2013.4768,-120.3544C1811.9103,-112.3659 935.5842,-77.6353 700.3167,-68.3112"/>
<polygon fill="#191970" stroke="#191970" points="700.3842,-64.8112 690.2534,-67.9124 700.1069,-71.8057 700.3842,-64.8112"/>
</g>
<!-- Node10&#45;&gt;Node3 -->
<g id="edge14" class="edge">
<title>Node10&#45;&gt;Node3</title>
<path fill="none" stroke="#191970" d="M690.0803,-64.7251C979.1333,-57.0609 2481.4996,-17.2254 2721.6192,-10.8586"/>
<polygon fill="#191970" stroke="#191970" points="2721.8835,-14.3529 2731.7872,-10.589 2721.6979,-7.3554 2721.8835,-14.3529"/>
</g>
<!-- Node10&#45;&gt;Node4 -->
<g id="edge15" class="edge">
<title>Node10&#45;&gt;Node4</title>
<path fill="none" stroke="#191970" d="M642,-56.2455C642,-48.9382 642,-38.6944 642,-29.7046"/>
<polygon fill="#191970" stroke="#191970" points="645.5001,-29.6426 642,-19.6427 638.5001,-29.6427 645.5001,-29.6426"/>
</g>
<!-- Node11 -->
<g id="node12" class="node">
<title>Node11</title>
<polygon fill="#ffffff" stroke="#bfbfbf" points="67,-.5 67,-19.5 123,-19.5 123,-.5 67,-.5"/>
<text text-anchor="middle" x="95" y="-7.5" font-family="Helvetica,sans-Serif" font-size="10.00" fill="#000000">sstream</text>
</g>
<!-- Node10&#45;&gt;Node11 -->
<g id="edge13" class="edge">
<title>Node10&#45;&gt;Node11</title>
<path fill="none" stroke="#191970" d="M593.9368,-61.0795C486.7832,-50.1094 230.1284,-23.834 133.0613,-13.8966"/>
<polygon fill="#191970" stroke="#191970" points="133.4058,-10.4137 123.1014,-12.8769 132.6929,-17.3773 133.4058,-10.4137"/>
</g>
<!-- Node12&#45;&gt;Node1 -->
<g id="edge137" class="edge">
<title>Node12&#45;&gt;Node1</title>
<path fill="none" stroke="#191970" d="M1429.1343,-612.0836C1712.0165,-603.9 2754,-569.1955 2754,-502 2754,-502 2754,-502 2754,-373.5 2754,-300.5565 2697.8145,-227.6677 2669.2554,-195.3299"/>
<polygon fill="#191970" stroke="#191970" points="2671.6239,-192.7308 2662.3208,-187.661 2666.4318,-197.4257 2671.6239,-192.7308"/>
</g>
<!-- Node12&#45;&gt;Node3 -->
<g id="edge25" class="edge">
<title>Node12&#45;&gt;Node3</title>
<path fill="none" stroke="#191970" d="M1429.0058,-612.5188C1726.1712,-605.7791 2868,-575.1249 2868,-502 2868,-502 2868,-502 2868,-122 2868,-75.4628 2819.0617,-41.828 2785.3136,-24.1659"/>
<polygon fill="#191970" stroke="#191970" points="2786.7576,-20.9746 2776.251,-19.6105 2783.6138,-27.2289 2786.7576,-20.9746"/>
</g>
<!-- Node12&#45;&gt;Node4 -->
<g id="edge28" class="edge">
<title>Node12&#45;&gt;Node4</title>
<path fill="none" stroke="#191970" d="M1288.5831,-613.1222C1025.1072,-609.6305 109.6049,-595.5598 54,-568 20.0417,-551.169 0,-539.9005 0,-502 0,-502 0,-502 0,-178 0,-51.0909 475.4559,-18.1925 608.0389,-11.4857"/>
<polygon fill="#191970" stroke="#191970" points="608.572,-14.9639 618.3895,-10.9807 608.2308,-7.9723 608.572,-14.9639"/>
</g>
<!-- Node13 -->
<g id="node14" class="node">
<title>Node13</title>
<polygon fill="#ffffff" stroke="#bfbfbf" points="314.5,-112.5 314.5,-131.5 361.5,-131.5 361.5,-112.5 314.5,-112.5"/>
<text text-anchor="middle" x="338" y="-119.5" font-family="Helvetica,sans-Serif" font-size="10.00" fill="#000000">omp.h</text>
</g>
<!-- Node12&#45;&gt;Node13 -->
<g id="edge17" class="edge">
<title>Node12&#45;&gt;Node13</title>
<path fill="none" stroke="#191970" d="M1288.8076,-613.0656C1030.477,-609.4183 144.7704,-594.992 91,-568 57.3779,-551.1221 38,-539.6206 38,-502 38,-502 38,-502 38,-306.5 38,-182.6963 225.6683,-139.3153 304.1421,-126.5872"/>
<polygon fill="#191970" stroke="#191970" points="305.1129,-129.9787 314.4595,-124.9895 304.0416,-123.0611 305.1129,-129.9787"/>
</g>
<!-- Node14 -->
<g id="node15" class="node">
<title>Node14</title>
<polygon fill="#ffffff" stroke="#bfbfbf" points="218,-168.5 218,-187.5 272,-187.5 272,-168.5 218,-168.5"/>
<text text-anchor="middle" x="245" y="-175.5" font-family="Helvetica,sans-Serif" font-size="10.00" fill="#000000">sched.h</text>
</g>
<!-- Node12&#45;&gt;Node14 -->
<g id="edge18" class="edge">
<title>Node12&#45;&gt;Node14</title>
<path fill="none" stroke="#191970" d="M1288.6144,-613.0174C1034.8106,-609.2613 178.8355,-594.665 127,-568 94.0354,-551.0425 76,-539.0705 76,-502 76,-502 76,-502 76,-373.5 76,-287.6963 170.3213,-220.9841 218.0346,-192.7263"/>
<polygon fill="#191970" stroke="#191970" points="220.0082,-195.6281 226.914,-187.5931 216.5048,-189.5679 220.0082,-195.6281"/>
</g>
<!-- Node15 -->
<g id="node16" class="node">
<title>Node15</title>
<polygon fill="#ffffff" stroke="#bfbfbf" points="1112,-168.5 1112,-187.5 1176,-187.5 1176,-168.5 1112,-168.5"/>
<text text-anchor="middle" x="1144" y="-175.5" font-family="Helvetica,sans-Serif" font-size="10.00" fill="#000000">algorithm</text>
</g>
<!-- Node12&#45;&gt;Node15 -->
<g id="edge19" class="edge">
<title>Node12&#45;&gt;Node15</title>
<path fill="none" stroke="#191970" d="M1288.6695,-612.0192C1096.4001,-606.3551 571.299,-589.1315 496,-568 394.9109,-539.631 341.8397,-546.1393 288,-456 213.6936,-331.595 856.589,-338.6843 893,-322 911.294,-313.6173 908.0277,-300.0518 926,-291 1006.2736,-250.5702 1059.4766,-316.5232 1125,-255 1140.4801,-240.465 1144.2045,-215.4985 1144.719,-197.9435"/>
<polygon fill="#191970" stroke="#191970" points="1148.2181,-197.6501 1144.6849,-187.6618 1141.2182,-197.6734 1148.2181,-197.6501"/>
</g>
<!-- Node16 -->
<g id="node17" class="node">
<title>Node16</title>
<polygon fill="#ffffff" stroke="#bfbfbf" points="1844.5,-168.5 1844.5,-187.5 1891.5,-187.5 1891.5,-168.5 1844.5,-168.5"/>
<text text-anchor="middle" x="1868" y="-175.5" font-family="Helvetica,sans-Serif" font-size="10.00" fill="#000000">cmath</text>
</g>
<!-- Node12&#45;&gt;Node16 -->
<g id="edge20" class="edge">
<title>Node12&#45;&gt;Node16</title>
<path fill="none" stroke="#191970" d="M1429.079,-609.6767C1540.4533,-602.3713 1752.7508,-586.553 1826,-568 1899.3756,-549.415 1983,-577.6927 1983,-502 1983,-502 1983,-502 1983,-440.5 1983,-341.0495 1912.8918,-236.8697 1882.1553,-195.9746"/>
<polygon fill="#191970" stroke="#191970" points="1884.7629,-193.623 1875.9044,-187.8112 1879.2051,-197.8788 1884.7629,-193.623"/>
</g>
<!-- Node17 -->
<g id="node18" class="node">
<title>Node17</title>
<polygon fill="#ffffff" stroke="#bfbfbf" points="1210,-230 1210,-249 1254,-249 1254,-230 1210,-230"/>
<text text-anchor="middle" x="1232" y="-237" font-family="Helvetica,sans-Serif" font-size="10.00" fill="#000000">limits</text>
</g>
<!-- Node12&#45;&gt;Node17 -->
<g id="edge21" class="edge">
<title>Node12&#45;&gt;Node17</title>
<path fill="none" stroke="#191970" d="M1363.7749,-604.3698C1377.6981,-574.7856 1414.9413,-483.6795 1377,-425 1355.8297,-392.2583 1324.3939,-416.7448 1297,-389 1260.3406,-351.8711 1242.7716,-290.6853 1235.8093,-259.3478"/>
<polygon fill="#191970" stroke="#191970" points="1239.1726,-258.3298 1233.7085,-249.2527 1232.3194,-259.7561 1239.1726,-258.3298"/>
</g>
<!-- Node18 -->
<g id="node19" class="node">
<title>Node18</title>
<polygon fill="#ffffff" stroke="#bfbfbf" points="297,-431 297,-450 355,-450 355,-431 297,-431"/>
<text text-anchor="middle" x="326" y="-438" font-family="Helvetica,sans-Serif" font-size="10.00" fill="#000000">memory</text>
</g>
<!-- Node12&#45;&gt;Node18 -->
<g id="edge22" class="edge">
<title>Node12&#45;&gt;Node18</title>
<path fill="none" stroke="#191970" d="M1288.7056,-611.8043C1105.4644,-605.8239 622.5345,-588.3256 553,-568 470.2597,-543.8143 384.8179,-484.9046 346.6182,-456.4296"/>
<polygon fill="#191970" stroke="#191970" points="348.4576,-453.4329 338.3675,-450.2016 344.2403,-459.0199 348.4576,-453.4329"/>
</g>
<!-- Node19 -->
<g id="node20" class="node">
<title>Node19</title>
<polygon fill="#ffffff" stroke="#bfbfbf" points="404.5,-168.5 404.5,-187.5 461.5,-187.5 461.5,-168.5 404.5,-168.5"/>
<text text-anchor="middle" x="433" y="-175.5" font-family="Helvetica,sans-Serif" font-size="10.00" fill="#000000">ostream</text>
</g>
<!-- Node12&#45;&gt;Node19 -->
<g id="edge23" class="edge">
<title>Node12&#45;&gt;Node19</title>
<path fill="none" stroke="#191970" d="M1288.8892,-612.399C1084.0269,-607.4685 495.5572,-591.4187 412,-568 328.1331,-544.4945 255.939,-509.2585 278,-425 303.9576,-325.8591 330.9492,-307.0459 391,-224 398.3951,-213.7731 407.7762,-203.3109 415.7957,-194.9532"/>
<polygon fill="#191970" stroke="#191970" points="418.4475,-197.2481 422.958,-187.6613 413.4536,-192.3429 418.4475,-197.2481"/>
</g>
<!-- Node20 -->
<g id="node21" class="node">
<title>Node20</title>
<polygon fill="#ffffff" stroke="#bfbfbf" points="373,-431 373,-450 405,-450 405,-431 373,-431"/>
<text text-anchor="middle" x="389" y="-438" font-family="Helvetica,sans-Serif" font-size="10.00" fill="#000000">set</text>
</g>
<!-- Node12&#45;&gt;Node20 -->
<g id="edge24" class="edge">
<title>Node12&#45;&gt;Node20</title>
<path fill="none" stroke="#191970" d="M1288.783,-606.6422C1214.7676,-598.5491 1094.875,-584.4816 992,-568 735.7814,-526.9513 664.0646,-541.3012 419,-456 417.5466,-455.4941 416.0759,-454.929 414.6066,-454.3221"/>
<polygon fill="#191970" stroke="#191970" points="415.673,-450.9573 405.1315,-449.8964 412.7106,-457.2996 415.673,-450.9573"/>
</g>
<!-- Node21 -->
<g id="node22" class="node">
<title>Node21</title>
<polygon fill="#ffffff" stroke="#bfbfbf" points="1274.5,-431 1274.5,-450 1367.5,-450 1367.5,-431 1274.5,-431"/>
<text text-anchor="middle" x="1321" y="-438" font-family="Helvetica,sans-Serif" font-size="10.00" fill="#000000">unordered_map</text>
</g>
<!-- Node12&#45;&gt;Node21 -->
<g id="edge26" class="edge">
<title>Node12&#45;&gt;Node21</title>
<path fill="none" stroke="#191970" d="M1356.9028,-604.4248C1350.896,-576.999 1333.535,-497.732 1325.3577,-460.3964"/>
<polygon fill="#191970" stroke="#191970" points="1328.6961,-459.2791 1323.1375,-450.2595 1321.8581,-460.7768 1328.6961,-459.2791"/>
</g>
<!-- Node22 -->
<g id="node23" class="node">
<title>Node22</title>
<polygon fill="#ffffff" stroke="#bfbfbf" points="1497.5,-168.5 1497.5,-187.5 1542.5,-187.5 1542.5,-168.5 1497.5,-168.5"/>
<text text-anchor="middle" x="1520" y="-175.5" font-family="Helvetica,sans-Serif" font-size="10.00" fill="#000000">utility</text>
</g>
<!-- Node12&#45;&gt;Node22 -->
<g id="edge27" class="edge">
<title>Node12&#45;&gt;Node22</title>
<path fill="none" stroke="#191970" d="M1429.0642,-611.1127C1532.9224,-606.0458 1722.2208,-593.5687 1785,-568 1828.9716,-550.0912 1869,-549.4787 1869,-502 1869,-502 1869,-502 1869,-440.5 1869,-367.5052 1853.7516,-341.4531 1801,-291 1729.0966,-222.2295 1609.9654,-193.3857 1552.7074,-183.0172"/>
<polygon fill="#191970" stroke="#191970" points="1553.2127,-179.5527 1542.7614,-181.2907 1552.0155,-186.4495 1553.2127,-179.5527"/>
</g>
<!-- Node23 -->
<g id="node24" class="node">
<title>Node23</title>
<g id="a_node24"><a xlink:href="agent_8h.html" target="_top" xlink:title="core/agent/agent.h">
<polygon fill="#ffffff" stroke="#000000" points="722,-492.5 722,-511.5 830,-511.5 830,-492.5 722,-492.5"/>
<text text-anchor="middle" x="776" y="-499.5" font-family="Helvetica,sans-Serif" font-size="10.00" fill="#000000">core/agent/agent.h</text>
</a>
</g>
</g>
<!-- Node12&#45;&gt;Node23 -->
<g id="edge29" class="edge">
<title>Node12&#45;&gt;Node23</title>
<path fill="none" stroke="#191970" d="M1300.5187,-604.4744C1246.5542,-595.5451 1164.2438,-581.5727 1093,-568 1000.1504,-550.3112 892.5196,-527.3872 829.5776,-513.7354"/>
<polygon fill="#191970" stroke="#191970" points="830.0065,-510.247 819.4914,-511.5442 828.5203,-517.0875 830.0065,-510.247"/>
</g>
<!-- Node28 -->
<g id="node28" class="node">
<title>Node28</title>
<g id="a_node28"><a xlink:href="agent__uid_8h.html" target="_top" xlink:title="core/agent/agent_uid.h">
<polygon fill="#ffffff" stroke="#000000" points="1664,-297 1664,-316 1792,-316 1792,-297 1664,-297"/>
<text text-anchor="middle" x="1728" y="-304" font-family="Helvetica,sans-Serif" font-size="10.00" fill="#000000">core/agent/agent_uid.h</text>
</a>
</g>
</g>
<!-- Node12&#45;&gt;Node28 -->
<g id="edge111" class="edge">
<title>Node12&#45;&gt;Node28</title>
<path fill="none" stroke="#191970" d="M1429.1535,-611.826C1560.6381,-605.8322 1831,-583.588 1831,-502 1831,-502 1831,-502 1831,-440.5 1831,-388.6902 1782.0004,-344.6026 1751.5939,-322.232"/>
<polygon fill="#191970" stroke="#191970" points="1753.3745,-319.2033 1743.198,-316.2555 1749.3151,-324.9061 1753.3745,-319.2033"/>
</g>
<!-- Node29 -->
<g id="node29" class="node">
<title>Node29</title>
<g id="a_node29"><a xlink:href="root_8h.html" target="_top" xlink:title="core/util/root.h">
<polygon fill="#ffffff" stroke="#ff0000" points="1924,-168.5 1924,-187.5 2012,-187.5 2012,-168.5 1924,-168.5"/>
<text text-anchor="middle" x="1968" y="-175.5" font-family="Helvetica,sans-Serif" font-size="10.00" fill="#000000">core/util/root.h</text>
</a>
</g>
</g>
<!-- Node12&#45;&gt;Node29 -->
<g id="edge143" class="edge">
<title>Node12&#45;&gt;Node29</title>
<path fill="none" stroke="#191970" d="M1429.4441,-611.8307C1556.3182,-607.3013 1818.1152,-594.9403 1905,-568 1961.6553,-550.4329 2021,-561.3163 2021,-502 2021,-502 2021,-502 2021,-440.5 2021,-347.9217 1988.9338,-240.5457 1974.6856,-197.4042"/>
<polygon fill="#191970" stroke="#191970" points="1977.9835,-196.2301 1971.4775,-187.8681 1971.3488,-198.4622 1977.9835,-196.2301"/>
</g>
<!-- Node12&#45;&gt;Node38 -->
<g id="edge138" class="edge">
<title>Node12&#45;&gt;Node38</title>
<path fill="none" stroke="#191970" d="M1429.024,-611.3235C1597.1094,-604.6188 2011.2975,-586.3239 2035,-568 2049.3423,-556.9123 2082.0063,-440.3548 2094.7605,-393.1678"/>
<polygon fill="#191970" stroke="#191970" points="2098.2114,-393.8122 2097.4244,-383.2466 2091.4508,-391.9969 2098.2114,-393.8122"/>
</g>
<!-- Node37 -->
<g id="node33" class="node">
<title>Node37</title>
<g id="a_node33"><a xlink:href="numa_8h.html" target="_top" xlink:title="core/util/numa.h">
<polygon fill="#ffffff" stroke="#000000" points="290,-168.5 290,-187.5 386,-187.5 386,-168.5 290,-168.5"/>
<text text-anchor="middle" x="338" y="-175.5" font-family="Helvetica,sans-Serif" font-size="10.00" fill="#000000">core/util/numa.h</text>
</a>
</g>
</g>
<!-- Node12&#45;&gt;Node37 -->
<g id="edge142" class="edge">
<title>Node12&#45;&gt;Node37</title>
<path fill="none" stroke="#191970" d="M1288.6764,-613.0474C1039.1657,-609.4419 208.5688,-595.4247 159,-568 127.9349,-550.8128 114,-537.5027 114,-502 114,-502 114,-502 114,-373.5 114,-321.0743 255.0354,-228.7557 313.2866,-192.8616"/>
<polygon fill="#191970" stroke="#191970" points="315.1853,-195.8031 321.8905,-187.6 311.5332,-189.8313 315.1853,-195.8031"/>
</g>
<!-- Node36 -->
<g id="node36" class="node">
<title>Node36</title>
<g id="a_node36"><a xlink:href="thread__info_8h.html" target="_top" xlink:title="core/util/thread_info.h">
<polygon fill="#ffffff" stroke="#000000" points="408,-230 408,-249 532,-249 532,-230 408,-230"/>
<text text-anchor="middle" x="470" y="-237" font-family="Helvetica,sans-Serif" font-size="10.00" fill="#000000">core/util/thread_info.h</text>
</a>
</g>
</g>
<!-- Node12&#45;&gt;Node36 -->
<g id="edge144" class="edge">
<title>Node12&#45;&gt;Node36</title>
<path fill="none" stroke="#191970" d="M1288.7062,-612.5638C1037.5412,-607.2682 198.3302,-588.0984 179,-568 65.7719,-450.2719 346.2744,-299.3422 440.4575,-253.3856"/>
<polygon fill="#191970" stroke="#191970" points="441.9966,-256.5291 449.4785,-249.0277 438.9516,-250.2261 441.9966,-256.5291"/>
</g>
<!-- Node61 -->
<g id="node45" class="node">
<title>Node61</title>
<g id="a_node45"><a xlink:href="type_8h.html" target="_top" xlink:title="core/util/type.h">
<polygon fill="#ffffff" stroke="#ff0000" points="887,-431 887,-450 977,-450 977,-431 887,-431"/>
<text text-anchor="middle" x="932" y="-438" font-family="Helvetica,sans-Serif" font-size="10.00" fill="#000000">core/util/type.h</text>
</a>
</g>
</g>
<!-- Node12&#45;&gt;Node61 -->
<g id="edge145" class="edge">
<title>Node12&#45;&gt;Node61</title>
<path fill="none" stroke="#191970" d="M1335.4344,-604.4248C1263.6958,-575.2757 1047.8339,-487.566 964.9258,-453.8785"/>
<polygon fill="#191970" stroke="#191970" points="966.0748,-450.5675 955.4928,-450.0457 963.4397,-457.0526 966.0748,-450.5675"/>
</g>
<!-- Node62 -->
<g id="node46" class="node">
<title>Node62</title>
<g id="a_node46"><a xlink:href="agent__handle_8h.html" target="_top" xlink:title="core/agent/agent_handle.h">
<polygon fill="#ffffff" stroke="#000000" points="1462,-297 1462,-316 1608,-316 1608,-297 1462,-297"/>
<text text-anchor="middle" x="1535" y="-304" font-family="Helvetica,sans-Serif" font-size="10.00" fill="#000000">core/agent/agent_handle.h</text>
</a>
</g>
</g>
<!-- Node12&#45;&gt;Node62 -->
<g id="edge108" class="edge">
<title>Node12&#45;&gt;Node62</title>
<path fill="none" stroke="#191970" d="M1410.7231,-604.4463C1492.1342,-587.9159 1641,-550.9908 1641,-502 1641,-502 1641,-502 1641,-440.5 1641,-388.1246 1590.5732,-344.2517 1559.2811,-322.0687"/>
<polygon fill="#191970" stroke="#191970" points="1560.8679,-318.913 1550.6407,-316.1462 1556.9102,-324.6869 1560.8679,-318.913"/>
</g>
<!-- Node63 -->
<g id="node47" class="node">
<title>Node63</title>
<g id="a_node47"><a xlink:href="agent__uid__generator_8h.html" target="_top" xlink:title="core/agent/agent_uid\l_generator.h">
<polygon fill="#ffffff" stroke="#ff0000" points="1480.5,-425.5 1480.5,-455.5 1599.5,-455.5 1599.5,-425.5 1480.5,-425.5"/>
<text text-anchor="start" x="1488.5" y="-443.5" font-family="Helvetica,sans-Serif" font-size="10.00" fill="#000000">core/agent/agent_uid</text>
<text text-anchor="middle" x="1540" y="-432.5" font-family="Helvetica,sans-Serif" font-size="10.00" fill="#000000">_generator.h</text>
</a>
</g>
</g>
<!-- Node12&#45;&gt;Node63 -->
<g id="edge112" class="edge">
<title>Node12&#45;&gt;Node63</title>
<path fill="none" stroke="#191970" d="M1385.0988,-604.3515C1403.9549,-596.5147 1429.2921,-584.1252 1448,-568 1482.7708,-538.0294 1511.5604,-492.4134 1527.222,-464.6412"/>
<polygon fill="#191970" stroke="#191970" points="1530.4348,-466.0633 1532.2025,-455.617 1524.3062,-462.6809 1530.4348,-466.0633"/>
</g>
<!-- Node33 -->
<g id="node48" class="node">
<title>Node33</title>
<g id="a_node48"><a xlink:href="agent__uid__map_8h.html" target="_top" xlink:title="core/container/agent\l_uid_map.h">
<polygon fill="#ffffff" stroke="#000000" points="1305.5,-358.5 1305.5,-388.5 1422.5,-388.5 1422.5,-358.5 1305.5,-358.5"/>
<text text-anchor="start" x="1313.5" y="-376.5" font-family="Helvetica,sans-Serif" font-size="10.00" fill="#000000">core/container/agent</text>
<text text-anchor="middle" x="1364" y="-365.5" font-family="Helvetica,sans-Serif" font-size="10.00" fill="#000000">_uid_map.h</text>
</a>
</g>
</g>
<!-- Node12&#45;&gt;Node33 -->
<g id="edge125" class="edge">
<title>Node12&#45;&gt;Node33</title>
<path fill="none" stroke="#191970" d="M1375.7373,-604.2988C1387.7584,-596.2823 1403.023,-583.6887 1410,-568 1435.8254,-509.928 1432.6578,-484.3796 1410,-425 1405.877,-414.1949 1398.3293,-404.2202 1390.5234,-395.9842"/>
<polygon fill="#191970" stroke="#191970" points="1392.9517,-393.4633 1383.373,-388.9356 1388.0375,-398.4484 1392.9517,-393.4633"/>
</g>
<!-- Node74 -->
<g id="node49" class="node">
<title>Node74</title>
<g id="a_node49"><a xlink:href="diffusion__grid_8h.html" target="_top" xlink:title="core/diffusion_grid.h">
<polygon fill="#ffffff" stroke="#ff0000" points="2266,-431 2266,-450 2382,-450 2382,-431 2266,-431"/>
<text text-anchor="middle" x="2324" y="-438" font-family="Helvetica,sans-Serif" font-size="10.00" fill="#000000">core/diffusion_grid.h</text>
</a>
</g>
</g>
<!-- Node12&#45;&gt;Node74 -->
<g id="edge126" class="edge">
<title>Node12&#45;&gt;Node74</title>
<path fill="none" stroke="#191970" d="M1429.2638,-613.1114C1584.986,-610.5554 1954.8327,-601.089 2075,-568 2164.8639,-543.2553 2259.9324,-483.9543 2301.8967,-455.8163"/>
<polygon fill="#191970" stroke="#191970" points="2303.9396,-458.6599 2310.2533,-450.1517 2300.0119,-452.8656 2303.9396,-458.6599"/>
</g>
<!-- Node77 -->
<g id="node50" class="node">
<title>Node77</title>
<g id="a_node50"><a xlink:href="type__index_8h.html" target="_top" xlink:title="core/type_index.h">
<polygon fill="#ffffff" stroke="#ff0000" points="562,-548.5 562,-567.5 666,-567.5 666,-548.5 562,-548.5"/>
<text text-anchor="middle" x="614" y="-555.5" font-family="Helvetica,sans-Serif" font-size="10.00" fill="#000000">core/type_index.h</text>
</a>
</g>
</g>
<!-- Node12&#45;&gt;Node77 -->
<g id="edge139" class="edge">
<title>Node12&#45;&gt;Node77</title>
<path fill="none" stroke="#191970" d="M1288.9426,-611.1674C1165.5898,-605.7534 901.6885,-592.2619 680,-568 678.7364,-567.8617 677.4598,-567.7169 676.1739,-567.5664"/>
<polygon fill="#191970" stroke="#191970" points="676.5443,-564.0855 666.1866,-566.3145 675.6736,-571.0312 676.5443,-564.0855"/>
</g>
<!-- Node23&#45;&gt;Node3 -->
<g id="edge36" class="edge">
<title>Node23&#45;&gt;Node3</title>
<path fill="none" stroke="#191970" d="M830.0228,-501.3425C1093.1824,-498.021 2234.5242,-482.2076 2391,-456 2605.5593,-420.0643 2830,-457.0478 2830,-239.5 2830,-239.5 2830,-239.5 2830,-122 2830,-82.2361 2796.7929,-46.1042 2774.2792,-26.177"/>
<polygon fill="#191970" stroke="#191970" points="2776.4317,-23.4128 2766.5499,-19.5918 2771.8921,-28.7412 2776.4317,-23.4128"/>
</g>
<!-- Node23&#45;&gt;Node4 -->
<g id="edge39" class="edge">
<title>Node23&#45;&gt;Node4</title>
<path fill="none" stroke="#191970" d="M721.7549,-496.8815C649.575,-489.482 526.2591,-474.6201 485,-456 483.0039,-455.0992 243.4525,-256.639 242,-255 218.5324,-228.5194 208.9581,-221.9527 199,-188 188.7799,-153.1537 200.3245,-134.2808 229,-112 289.2452,-65.1895 521.2409,-27.5011 608.5307,-14.6992"/>
<polygon fill="#191970" stroke="#191970" points="609.0431,-18.1616 618.4372,-13.2624 608.0383,-11.234 609.0431,-18.1616"/>
</g>
<!-- Node23&#45;&gt;Node11 -->
<g id="edge35" class="edge">
<title>Node23&#45;&gt;Node11</title>
<path fill="none" stroke="#191970" d="M721.951,-498.422C641.4585,-492.428 494.467,-478.7268 447,-456 428.85,-447.3099 429.5912,-437.7221 414,-425 392.5035,-407.4592 385.0389,-405.8542 363,-389 291.4624,-334.2917 263.933,-327.8609 211,-255 155.6654,-178.8334 115.9774,-72.0988 101.2719,-29.0801"/>
<polygon fill="#191970" stroke="#191970" points="104.5803,-27.9374 98.0771,-19.5733 97.9449,-30.1673 104.5803,-27.9374"/>
</g>
<!-- Node23&#45;&gt;Node15 -->
<g id="edge30" class="edge">
<title>Node23&#45;&gt;Node15</title>
<path fill="none" stroke="#191970" d="M721.8866,-496.3127C666.3599,-489.4693 584.8245,-476.3004 561,-456 526.7004,-426.774 506.3229,-392.7597 535,-358 588.5843,-293.0501 644.7383,-357.6922 721,-322 740.7408,-312.7609 739.9866,-301.6561 759,-291 837.4756,-247.018 863.671,-249.3011 950,-224 1001.7945,-208.8202 1062.466,-195.0666 1101.9856,-186.6333"/>
<polygon fill="#191970" stroke="#191970" points="1102.747,-190.0498 1111.8053,-184.5546 1101.2972,-183.2016 1102.747,-190.0498"/>
</g>
<!-- Node23&#45;&gt;Node17 -->
<g id="edge32" class="edge">
<title>Node23&#45;&gt;Node17</title>
<path fill="none" stroke="#191970" d="M754.2342,-492.3857C739.9336,-484.773 722.3748,-472.6416 714,-456 694.0169,-416.2914 700.5208,-387.2445 734,-358 811.9242,-289.9324 868.3006,-361.332 964,-322 985.7911,-313.044 985.4559,-300.5348 1007,-291 1077.6237,-259.744 1102.0136,-273.4846 1177,-255 1184.483,-253.1554 1192.4894,-251.0029 1200.0124,-248.8993"/>
<polygon fill="#191970" stroke="#191970" points="1201.2153,-252.1961 1209.8768,-246.0945 1199.3008,-245.4629 1201.2153,-252.1961"/>
</g>
<!-- Node23&#45;&gt;Node18 -->
<g id="edge33" class="edge">
<title>Node23&#45;&gt;Node18</title>
<path fill="none" stroke="#191970" d="M721.8205,-500.6939C642.23,-497.7156 489.5469,-487.956 364,-456 361.3719,-455.3311 358.6852,-454.5184 356.0155,-453.6195"/>
<polygon fill="#191970" stroke="#191970" points="357.149,-450.3068 346.5563,-450.0894 354.7015,-456.865 357.149,-450.3068"/>
</g>
<!-- Node23&#45;&gt;Node20 -->
<g id="edge34" class="edge">
<title>Node23&#45;&gt;Node20</title>
<path fill="none" stroke="#191970" d="M721.8247,-493.923C717.1506,-493.2595 712.4931,-492.6101 708,-492 579.74,-474.5828 542.6403,-494.302 419,-456 417.53,-455.5446 416.0461,-455.0197 414.5665,-454.4442"/>
<polygon fill="#191970" stroke="#191970" points="415.6109,-451.074 405.0595,-450.1153 412.71,-457.4447 415.6109,-451.074"/>
</g>
<!-- Node23&#45;&gt;Node21 -->
<g id="edge38" class="edge">
<title>Node23&#45;&gt;Node21</title>
<path fill="none" stroke="#191970" d="M830.0965,-500.1215C920.8795,-496.257 1109.3422,-485.1789 1266,-456 1270.9922,-455.0702 1276.187,-453.8925 1281.3037,-452.6032"/>
<polygon fill="#191970" stroke="#191970" points="1282.2142,-455.9828 1290.9733,-450.0222 1280.4089,-449.2196 1282.2142,-455.9828"/>
</g>
<!-- Node24 -->
<g id="node25" class="node">
<title>Node24</title>
<polygon fill="#ffffff" stroke="#bfbfbf" points="746,-168.5 746,-187.5 798,-187.5 798,-168.5 746,-168.5"/>
<text text-anchor="middle" x="772" y="-175.5" font-family="Helvetica,sans-Serif" font-size="10.00" fill="#000000">cassert</text>
</g>
<!-- Node23&#45;&gt;Node24 -->
<g id="edge31" class="edge">
<title>Node23&#45;&gt;Node24</title>
<path fill="none" stroke="#191970" d="M721.8411,-498.6729C671.2091,-493.9821 594.4067,-482.7528 533,-456 521.4889,-450.985 447.6649,-400.2055 442,-389 435.7839,-376.7042 434.9669,-369.8475 442,-358 506.9318,-248.6197 664.29,-201.4533 735.6896,-185.1717"/>
<polygon fill="#191970" stroke="#191970" points="736.5679,-188.5622 745.579,-182.9899 735.0598,-181.7266 736.5679,-188.5622"/>
</g>
<!-- Node25 -->
<g id="node26" class="node">
<title>Node25</title>
<polygon fill="#ffffff" stroke="#bfbfbf" points="839.5,-364 839.5,-383 908.5,-383 908.5,-364 839.5,-364"/>
<text text-anchor="middle" x="874" y="-371" font-family="Helvetica,sans-Serif" font-size="10.00" fill="#000000">type_traits</text>
</g>
<!-- Node23&#45;&gt;Node25 -->
<g id="edge37" class="edge">
<title>Node23&#45;&gt;Node25</title>
<path fill="none" stroke="#191970" d="M768.8406,-492.1993C758.5023,-476.7384 742.0805,-446.2624 756,-425 760.9028,-417.5107 805.8718,-399.2297 838.8459,-386.5947"/>
<polygon fill="#191970" stroke="#191970" points="840.107,-389.8597 848.21,-383.0339 837.6189,-383.3168 840.107,-389.8597"/>
</g>
<!-- Node26 -->
<g id="node27" class="node">
<title>Node26</title>
<g id="a_node27"><a xlink:href="agent__pointer_8h.html" target="_top" xlink:title="core/agent/agent_pointer.h">
<polygon fill="#ffffff" stroke="#ff0000" points="1109.5,-431 1109.5,-450 1256.5,-450 1256.5,-431 1109.5,-431"/>
<text text-anchor="middle" x="1183" y="-438" font-family="Helvetica,sans-Serif" font-size="10.00" fill="#000000">core/agent/agent_pointer.h</text>
</a>
</g>
</g>
<!-- Node23&#45;&gt;Node26 -->
<g id="edge40" class="edge">
<title>Node23&#45;&gt;Node26</title>
<path fill="none" stroke="#191970" d="M830.2636,-494.6993C893.8034,-486.0291 1002.1785,-470.8634 1095,-456 1103.2573,-454.6778 1111.939,-453.2251 1120.5003,-451.7556"/>
<polygon fill="#191970" stroke="#191970" points="1121.2068,-455.1854 1130.4625,-450.0296 1120.0118,-448.2882 1121.2068,-455.1854"/>
</g>
<!-- Node23&#45;&gt;Node28 -->
<g id="edge82" class="edge">
<title>Node23&#45;&gt;Node28</title>
<path fill="none" stroke="#191970" d="M830.2424,-500.5637C1003.2777,-495.7656 1535.136,-479.2715 1609,-456 1662.8758,-439.0259 1686.3261,-436.4324 1717,-389 1729.1586,-370.1987 1730.6284,-343.9321 1729.8944,-326.1258"/>
<polygon fill="#191970" stroke="#191970" points="1733.3791,-325.7805 1729.2064,-316.042 1726.3953,-326.2571 1733.3791,-325.7805"/>
</g>
<!-- Node23&#45;&gt;Node29 -->
<g id="edge101" class="edge">
<title>Node23&#45;&gt;Node29</title>
<path fill="none" stroke="#191970" d="M830.1864,-500.9321C1010.4148,-497.1391 1582.7583,-483.0702 1661,-456 1800.0311,-407.8979 1832.2177,-369.9759 1924,-255 1938.6365,-236.6649 1951.4376,-212.8768 1959.4028,-196.6229"/>
<polygon fill="#191970" stroke="#191970" points="1962.5641,-198.125 1963.7105,-187.5923 1956.2461,-195.1111 1962.5641,-198.125"/>
</g>
<!-- Node35 -->
<g id="node34" class="node">
<title>Node35</title>
<g id="a_node34"><a xlink:href="spinlock_8h.html" target="_top" xlink:title="core/util/spinlock.h">
<polygon fill="#ffffff" stroke="#000000" points="1006.5,-230 1006.5,-249 1115.5,-249 1115.5,-230 1006.5,-230"/>
<text text-anchor="middle" x="1061" y="-237" font-family="Helvetica,sans-Serif" font-size="10.00" fill="#000000">core/util/spinlock.h</text>
</a>
</g>
</g>
<!-- Node23&#45;&gt;Node35 -->
<g id="edge102" class="edge">
<title>Node23&#45;&gt;Node35</title>
<path fill="none" stroke="#191970" d="M830.0674,-497.3753C885.3394,-491.4405 965.8588,-479.043 986,-456 1014.7596,-423.0969 968.8819,-393.7605 994,-358 1016.1777,-326.4257 1052.1262,-354.4511 1073,-322 1085.3054,-302.8697 1077.9801,-276.1361 1070.4888,-258.3438"/>
<polygon fill="#191970" stroke="#191970" points="1073.5627,-256.6507 1066.2061,-249.0264 1067.2024,-259.5743 1073.5627,-256.6507"/>
</g>
<!-- Node47 -->
<g id="node38" class="node">
<title>Node47</title>
<g id="a_node38"><a xlink:href="math__array_8h.html" target="_top" xlink:title="core/container/math\l_array.h">
<polygon fill="#ffffff" stroke="#ff0000" points="1462.5,-224.5 1462.5,-254.5 1577.5,-254.5 1577.5,-224.5 1462.5,-224.5"/>
<text text-anchor="start" x="1470.5" y="-242.5" font-family="Helvetica,sans-Serif" font-size="10.00" fill="#000000">core/container/math</text>
<text text-anchor="middle" x="1520" y="-231.5" font-family="Helvetica,sans-Serif" font-size="10.00" fill="#000000">_array.h</text>
</a>
</g>
</g>
<!-- Node23&#45;&gt;Node47 -->
<g id="edge96" class="edge">
<title>Node23&#45;&gt;Node47</title>
<path fill="none" stroke="#191970" d="M830.143,-498.2748C885.6613,-493.1961 973.8519,-481.6027 1046,-456 1072.4442,-446.6159 1075.9197,-437.5832 1101,-425 1233.4576,-358.5441 1395.0053,-290.5816 1473.1711,-258.4935"/>
<polygon fill="#191970" stroke="#191970" points="1474.8072,-261.6056 1482.7342,-254.5761 1472.1537,-255.128 1474.8072,-261.6056"/>
</g>
<!-- Node50 -->
<g id="node39" class="node">
<title>Node50</title>
<g id="a_node39"><a xlink:href="new__agent__event_8h.html" target="_top" xlink:title="core/agent/new_agent\l_event.h">
<polygon fill="#ffffff" stroke="#000000" points="560.5,-358.5 560.5,-388.5 685.5,-388.5 685.5,-358.5 560.5,-358.5"/>
<text text-anchor="start" x="568.5" y="-376.5" font-family="Helvetica,sans-Serif" font-size="10.00" fill="#000000">core/agent/new_agent</text>
<text text-anchor="middle" x="623" y="-365.5" font-family="Helvetica,sans-Serif" font-size="10.00" fill="#000000">_event.h</text>
</a>
</g>
</g>
<!-- Node23&#45;&gt;Node50 -->
<g id="edge83" class="edge">
<title>Node23&#45;&gt;Node50</title>
<path fill="none" stroke="#191970" d="M721.7042,-494.3503C695.8886,-488.0762 666.4856,-476.6796 647,-456 632.4456,-440.5538 626.6559,-416.7939 624.3841,-398.7325"/>
<polygon fill="#191970" stroke="#191970" points="627.8506,-398.2183 623.3952,-388.6059 620.8838,-398.8987 627.8506,-398.2183"/>
</g>
<!-- Node52 -->
<g id="node41" class="node">
<title>Node52</title>
<g id="a_node41"><a xlink:href="inline__vector_8h.html" target="_top" xlink:title="core/container/inline\l_vector.h">
<polygon fill="#ffffff" stroke="#ff0000" points="768,-291.5 768,-321.5 884,-321.5 884,-291.5 768,-291.5"/>
<text text-anchor="start" x="776" y="-309.5" font-family="Helvetica,sans-Serif" font-size="10.00" fill="#000000">core/container/inline</text>
<text text-anchor="middle" x="826" y="-298.5" font-family="Helvetica,sans-Serif" font-size="10.00" fill="#000000">_vector.h</text>
</a>
</g>
</g>
<!-- Node23&#45;&gt;Node52 -->
<g id="edge95" class="edge">
<title>Node23&#45;&gt;Node52</title>
<path fill="none" stroke="#191970" d="M731.2572,-492.4835C650.7131,-473.3915 494.7831,-426.3155 552,-358 581.2766,-323.0444 709.2609,-330.7994 754,-322 755.2703,-321.7502 756.5527,-321.4958 757.8443,-321.2378"/>
<polygon fill="#191970" stroke="#191970" points="758.7753,-324.6202 767.8778,-319.1985 757.381,-317.7604 758.7753,-324.6202"/>
</g>
<!-- Node58 -->
<g id="node42" class="node">
<title>Node58</title>
<g id="a_node42"><a xlink:href="interaction__force_8h.html" target="_top" xlink:title="core/interaction_force.h">
<polygon fill="#ffffff" stroke="#ff0000" points="1003,-364 1003,-383 1135,-383 1135,-364 1003,-364"/>
<text text-anchor="middle" x="1069" y="-371" font-family="Helvetica,sans-Serif" font-size="10.00" fill="#000000">core/interaction_force.h</text>
</a>
</g>
</g>
<!-- Node23&#45;&gt;Node58 -->
<g id="edge97" class="edge">
<title>Node23&#45;&gt;Node58</title>
<path fill="none" stroke="#191970" d="M830.241,-496.8979C892.2666,-490.1828 989.1013,-476.7418 1019,-456 1041.1766,-440.6153 1055.2467,-411.9064 1062.6282,-392.7458"/>
<polygon fill="#191970" stroke="#191970" points="1065.9602,-393.823 1066.05,-383.2286 1059.373,-391.4547 1065.9602,-393.823"/>
</g>
<!-- Node59 -->
<g id="node43" class="node">
<title>Node59</title>
<g id="a_node43"><a xlink:href="shape_8h.html" target="_top" xlink:title="core/shape.h">
<polygon fill="#ffffff" stroke="#000000" points="742.5,-364 742.5,-383 821.5,-383 821.5,-364 742.5,-364"/>
<text text-anchor="middle" x="782" y="-371" font-family="Helvetica,sans-Serif" font-size="10.00" fill="#000000">core/shape.h</text>
</a>
</g>
</g>
<!-- Node23&#45;&gt;Node59 -->
<g id="edge99" class="edge">
<title>Node23&#45;&gt;Node59</title>
<path fill="none" stroke="#191970" d="M758.6242,-492.4558C746.1411,-484.5215 730.2818,-471.9621 723,-456 717.2816,-443.465 717.2993,-437.5431 723,-425 729.8563,-409.9144 743.5565,-397.5202 756.0303,-388.674"/>
<polygon fill="#191970" stroke="#191970" points="757.9824,-391.5791 764.3709,-383.1269 754.106,-385.7504 757.9824,-391.5791"/>
</g>
<!-- Node60 -->
<g id="node44" class="node">
<title>Node60</title>
<g id="a_node44"><a xlink:href="macros_8h.html" target="_top" xlink:title="core/util/macros.h">
<polygon fill="#ffffff" stroke="#000000" points="765,-431 765,-450 869,-450 869,-431 765,-431"/>
<text text-anchor="middle" x="817" y="-438" font-family="Helvetica,sans-Serif" font-size="10.00" fill="#000000">core/util/macros.h</text>
</a>
</g>
</g>
<!-- Node23&#45;&gt;Node60 -->
<g id="edge100" class="edge">
<title>Node23&#45;&gt;Node60</title>
<path fill="none" stroke="#191970" d="M782.4063,-492.3906C788.3886,-483.417 797.4747,-469.7879 804.8339,-458.7491"/>
<polygon fill="#191970" stroke="#191970" points="807.8686,-460.5068 810.5034,-450.2449 802.0442,-456.6239 807.8686,-460.5068"/>
</g>
<!-- Node23&#45;&gt;Node61 -->
<g id="edge103" class="edge">
<title>Node23&#45;&gt;Node61</title>
<path fill="none" stroke="#191970" d="M800.375,-492.3906C826.7056,-482.0103 868.838,-465.4004 898.3229,-453.7766"/>
<polygon fill="#191970" stroke="#191970" points="899.7767,-456.9657 907.7962,-450.0419 897.2093,-450.4534 899.7767,-456.9657"/>
</g>
<!-- Node26&#45;&gt;Node17 -->
<g id="edge41" class="edge">
<title>Node26&#45;&gt;Node17</title>
<path fill="none" stroke="#191970" d="M1181.6487,-430.6451C1178.6887,-406.0997 1173.3017,-340.6388 1192,-291 1196.8768,-278.0534 1206.2124,-265.7318 1214.6387,-256.3887"/>
<polygon fill="#191970" stroke="#191970" points="1217.3106,-258.6583 1221.6746,-249.0039 1212.2426,-253.8297 1217.3106,-258.6583"/>
</g>
<!-- Node26&#45;&gt;Node19 -->
<g id="edge42" class="edge">
<title>Node26&#45;&gt;Node19</title>
<path fill="none" stroke="#191970" d="M1109.1975,-434.6257C943.3225,-421.4034 555.1829,-390.3471 552,-389 468.7555,-353.769 436.3328,-337.3233 399,-255 393.3097,-242.4522 394.6888,-237.0859 399,-224 402.5056,-213.3594 409.5241,-203.164 416.2787,-195.0877"/>
<polygon fill="#191970" stroke="#191970" points="419.0014,-197.2937 423.0638,-187.5087 413.786,-192.6247 419.0014,-197.2937"/>
</g>
<!-- Node26&#45;&gt;Node25 -->
<g id="edge43" class="edge">
<title>Node26&#45;&gt;Node25</title>
<path fill="none" stroke="#191970" d="M1139.056,-430.9717C1080.5841,-418.2933 977.7469,-395.9953 918.8306,-383.2205"/>
<polygon fill="#191970" stroke="#191970" points="919.227,-379.7252 908.7124,-381.0266 917.7436,-386.5663 919.227,-379.7252"/>
</g>
<!-- Node26&#45;&gt;Node28 -->
<g id="edge44" class="edge">
<title>Node26&#45;&gt;Node28</title>
<path fill="none" stroke="#191970" d="M1234.253,-430.9543C1284.7542,-421.3009 1364.002,-405.4879 1432,-389 1523.4592,-366.8233 1629.4263,-336.0351 1686.4772,-319.0342"/>
<polygon fill="#191970" stroke="#191970" points="1687.6313,-322.3424 1696.2107,-316.1259 1685.6272,-315.6354 1687.6313,-322.3424"/>
</g>
<!-- Node26&#45;&gt;Node29 -->
<g id="edge81" class="edge">
<title>Node26&#45;&gt;Node29</title>
<path fill="none" stroke="#191970" d="M1233.2306,-430.9966C1294.7526,-419.2022 1395.3106,-399.38 1432,-389 1516.1456,-365.1939 1540.9324,-365.1384 1617,-322 1635.9594,-311.248 1635.7956,-301.3078 1655,-291 1702.563,-265.4709 1720.0509,-272.8372 1771,-255 1829.5403,-234.5051 1896.5906,-207.535 1935.4373,-191.5562"/>
<polygon fill="#191970" stroke="#191970" points="1937.241,-194.5982 1945.1497,-187.5482 1934.5707,-188.1275 1937.241,-194.5982"/>
</g>
<!-- Node26&#45;&gt;Node38 -->
<g id="edge48" class="edge">
<title>Node26&#45;&gt;Node38</title>
<path fill="none" stroke="#191970" d="M1228.5065,-430.9596C1240.6429,-428.7013 1253.7798,-426.5125 1266,-425 1415.918,-406.4442 1873.881,-383.9954 2039.4581,-376.2686"/>
<polygon fill="#191970" stroke="#191970" points="2039.6418,-379.7639 2049.4682,-375.8028 2039.3163,-372.7715 2039.6418,-379.7639"/>
</g>
<!-- Node28&#45;&gt;Node17 -->
<g id="edge45" class="edge">
<title>Node28&#45;&gt;Node17</title>
<path fill="none" stroke="#191970" d="M1663.7369,-297.4622C1648.4233,-295.3263 1632.1336,-293.0688 1617,-291 1486.3045,-273.1337 1330.5551,-252.5023 1264.3463,-243.7628"/>
<polygon fill="#191970" stroke="#191970" points="1264.513,-240.2545 1254.1411,-242.4163 1263.5973,-247.1944 1264.513,-240.2545"/>
</g>
<!-- Node28&#45;&gt;Node29 -->
<g id="edge46" class="edge">
<title>Node28&#45;&gt;Node29</title>
<path fill="none" stroke="#191970" d="M1746.039,-296.8416C1787.9258,-274.4147 1891.9505,-218.7181 1941.2586,-192.3178"/>
<polygon fill="#191970" stroke="#191970" points="1942.9152,-195.401 1950.0791,-187.5952 1939.6111,-189.2298 1942.9152,-195.401"/>
</g>
<!-- Node29&#45;&gt;Node5 -->
<g id="edge47" class="edge">
<title>Node29&#45;&gt;Node5</title>
<path fill="none" stroke="#191970" d="M1983.1542,-168.2455C1996.5027,-159.6534 2016.1586,-147.0014 2031.5383,-137.1018"/>
<polygon fill="#191970" stroke="#191970" points="2033.5051,-139.9982 2040.0194,-131.6427 2029.7164,-134.1121 2033.5051,-139.9982"/>
</g>
<!-- Node38&#45;&gt;Node2 -->
<g id="edge49" class="edge">
<title>Node38&#45;&gt;Node2</title>
<path fill="none" stroke="#191970" d="M2150.5346,-369.5854C2220.3306,-363.2705 2341.538,-348.75 2376,-322 2455.0341,-260.6524 2483.6904,-134.3648 2492.0578,-85.7115"/>
<polygon fill="#191970" stroke="#191970" points="2495.5548,-86.0106 2493.6946,-75.5804 2488.6444,-84.8941 2495.5548,-86.0106"/>
</g>
<!-- Node38&#45;&gt;Node3 -->
<g id="edge50" class="edge">
<title>Node38&#45;&gt;Node3</title>
<path fill="none" stroke="#191970" d="M2150.5,-368.3411C2211.4291,-361.3432 2316.5782,-346.7831 2404,-322 2556.6919,-278.7136 2639.4279,-314.7064 2735,-188 2770.6321,-140.7601 2763.7725,-65.33 2757.9165,-29.7713"/>
<polygon fill="#191970" stroke="#191970" points="2761.3223,-28.9351 2756.1056,-19.7136 2754.4331,-30.1755 2761.3223,-28.9351"/>
</g>
<!-- Node38&#45;&gt;Node4 -->
<g id="edge51" class="edge">
<title>Node38&#45;&gt;Node4</title>
<path fill="none" stroke="#191970" d="M2150.5162,-369.9715C2226.6504,-361.6028 2362,-333.5057 2362,-239.5 2362,-239.5 2362,-239.5 2362,-122 2362,-82.6547 2338.6891,-72.5631 2303,-56 2226.53,-20.5107 904.4491,-11.4776 675.6133,-10.1773"/>
<polygon fill="#191970" stroke="#191970" points="675.5715,-6.6771 665.5521,-10.1211 675.5323,-13.677 675.5715,-6.6771"/>
</g>
<!-- Node38&#45;&gt;Node28 -->
<g id="edge52" class="edge">
<title>Node38&#45;&gt;Node28</title>
<path fill="none" stroke="#191970" d="M2049.4433,-364.3944C1982.2783,-352.2974 1863.6497,-330.9315 1790.8131,-317.8131"/>
<polygon fill="#191970" stroke="#191970" points="1791.3116,-314.3467 1780.8495,-316.0186 1790.0708,-321.2358 1791.3116,-314.3467"/>
</g>
<!-- Node38&#45;&gt;Node29 -->
<g id="edge80" class="edge">
<title>Node38&#45;&gt;Node29</title>
<path fill="none" stroke="#191970" d="M2102.266,-363.8975C2105.5247,-348.0321 2110.1023,-315.6509 2100,-291 2092.0747,-271.6614 2049.974,-237.4767 2034,-224 2020.857,-212.9118 2005.0905,-201.8494 1992.2637,-193.3527"/>
<polygon fill="#191970" stroke="#191970" points="1993.8117,-190.1838 1983.523,-187.6555 1989.9894,-196.0481 1993.8117,-190.1838"/>
</g>
<!-- Node39 -->
<g id="node31" class="node">
<title>Node39</title>
<g id="a_node31"><a xlink:href="opencl__state_8h.html" target="_top" xlink:title="core/gpu/opencl_state.h">
<polygon fill="#ffffff" stroke="#000000" points="2162.5,-230 2162.5,-249 2295.5,-249 2295.5,-230 2162.5,-230"/>
<text text-anchor="middle" x="2229" y="-237" font-family="Helvetica,sans-Serif" font-size="10.00" fill="#000000">core/gpu/opencl_state.h</text>
</a>
</g>
</g>
<!-- Node38&#45;&gt;Node39 -->
<g id="edge53" class="edge">
<title>Node38&#45;&gt;Node39</title>
<path fill="none" stroke="#191970" d="M2150.5279,-364.696C2194.3845,-355.9035 2252.9913,-340.9797 2267,-322 2282.1859,-301.4253 2262.8847,-273.8126 2246.6948,-256.3343"/>
<polygon fill="#191970" stroke="#191970" points="2249.1006,-253.7883 2239.6102,-249.0785 2244.0921,-258.6787 2249.1006,-253.7883"/>
</g>
<!-- Node40 -->
<g id="node32" class="node">
<title>Node40</title>
<g id="a_node32"><a xlink:href="memory__manager_8h.html" target="_top" xlink:title="core/memory/memory\l_manager.h">
<polygon fill="#ffffff" stroke="#ff0000" points="586,-291.5 586,-321.5 712,-321.5 712,-291.5 586,-291.5"/>
<text text-anchor="start" x="594" y="-309.5" font-family="Helvetica,sans-Serif" font-size="10.00" fill="#000000">core/memory/memory</text>
<text text-anchor="middle" x="649" y="-298.5" font-family="Helvetica,sans-Serif" font-size="10.00" fill="#000000">_manager.h</text>
</a>
</g>
</g>
<!-- Node38&#45;&gt;Node40 -->
<g id="edge55" class="edge">
<title>Node38&#45;&gt;Node40</title>
<path fill="none" stroke="#191970" d="M2049.3109,-372.244C1836.7947,-366.8717 1016.7296,-345.0471 759,-322 747.1443,-320.9398 734.6115,-319.4899 722.4173,-317.8998"/>
<polygon fill="#191970" stroke="#191970" points="722.6532,-314.4001 712.276,-316.5367 721.7206,-321.3377 722.6532,-314.4001"/>
</g>
<!-- Node44 -->
<g id="node37" class="node">
<title>Node44</title>
<g id="a_node37"><a xlink:href="random_8h.html" target="_top" xlink:title="core/util/random.h">
<polygon fill="#ffffff" stroke="#ff0000" points="2152,-297 2152,-316 2258,-316 2258,-297 2152,-297"/>
<text text-anchor="middle" x="2205" y="-304" font-family="Helvetica,sans-Serif" font-size="10.00" fill="#000000">core/util/random.h</text>
</a>
</g>
</g>
<!-- Node38&#45;&gt;Node44 -->
<g id="edge70" class="edge">
<title>Node38&#45;&gt;Node44</title>
<path fill="none" stroke="#191970" d="M2115.0439,-363.9005C2132.3534,-352.8554 2160.9977,-334.5776 2181.3089,-321.6172"/>
<polygon fill="#191970" stroke="#191970" points="2183.4367,-324.4113 2189.984,-316.0817 2179.6712,-318.5103 2183.4367,-324.4113"/>
</g>
<!-- Node39&#45;&gt;Node5 -->
<g id="edge54" class="edge">
<title>Node39&#45;&gt;Node5</title>
<path fill="none" stroke="#191970" d="M2214.7608,-229.8845C2184.6817,-209.5724 2114.4459,-162.1431 2077.9442,-137.4939"/>
<polygon fill="#191970" stroke="#191970" points="2079.682,-134.4442 2069.4359,-131.7484 2075.7646,-140.2454 2079.682,-134.4442"/>
</g>
<!-- Node40&#45;&gt;Node4 -->
<g id="edge58" class="edge">
<title>Node40&#45;&gt;Node4</title>
<path fill="none" stroke="#191970" d="M658.3151,-291.2922C681.7397,-250.9447 738.4943,-138.6235 699,-56 692.8552,-43.1449 681.1701,-32.7306 669.9715,-25.0832"/>
<polygon fill="#191970" stroke="#191970" points="671.5339,-21.9304 661.21,-19.5495 667.7959,-27.8488 671.5339,-21.9304"/>
</g>
<!-- Node40&#45;&gt;Node22 -->
<g id="edge57" class="edge">
<title>Node40&#45;&gt;Node22</title>
<path fill="none" stroke="#191970" d="M702.0317,-291.4374C770.0201,-272.7128 891.8195,-241.1367 998,-224 1181.7008,-194.3522 1405.076,-182.7157 1487.4648,-179.2352"/>
<polygon fill="#191970" stroke="#191970" points="1487.6232,-182.7317 1497.4709,-178.8237 1487.3355,-175.7376 1487.6232,-182.7317"/>
</g>
<!-- Node40&#45;&gt;Node24 -->
<g id="edge56" class="edge">
<title>Node40&#45;&gt;Node24</title>
<path fill="none" stroke="#191970" d="M663.5927,-291.2548C686.676,-267.1393 731.4657,-220.3468 755.6181,-195.1145"/>
<polygon fill="#191970" stroke="#191970" points="758.2945,-197.38 762.6809,-187.7358 753.2377,-192.5396 758.2945,-197.38"/>
</g>
<!-- Node40&#45;&gt;Node37 -->
<g id="edge59" class="edge">
<title>Node40&#45;&gt;Node37</title>
<path fill="none" stroke="#191970" d="M585.8749,-298.5055C522.4111,-289.5906 429.705,-273.9096 399,-255 375.8425,-240.7385 357.8656,-214.3659 347.601,-196.5049"/>
<polygon fill="#191970" stroke="#191970" points="350.5873,-194.6715 342.7079,-187.5887 344.4506,-198.0392 350.5873,-194.6715"/>
</g>
<!-- Node40&#45;&gt;Node35 -->
<g id="edge61" class="edge">
<title>Node40&#45;&gt;Node35</title>
<path fill="none" stroke="#191970" d="M712.0224,-296.2512C788.9306,-283.7443 918.3034,-262.7055 996.0681,-250.0593"/>
<polygon fill="#191970" stroke="#191970" points="996.9125,-253.4681 1006.221,-248.4082 995.7888,-246.5588 996.9125,-253.4681"/>
</g>
<!-- Node40&#45;&gt;Node36 -->
<g id="edge63" class="edge">
<title>Node40&#45;&gt;Node36</title>
<path fill="none" stroke="#191970" d="M608.8289,-291.4639C577.6201,-279.7824 534.7737,-263.7449 504.9674,-252.5884"/>
<polygon fill="#191970" stroke="#191970" points="505.9871,-249.2329 495.3947,-249.0053 503.5332,-255.7888 505.9871,-249.2329"/>
</g>
<!-- Node37&#45;&gt;Node13 -->
<g id="edge60" class="edge">
<title>Node37&#45;&gt;Node13</title>
<path fill="none" stroke="#191970" d="M338,-168.2455C338,-160.9382 338,-150.6944 338,-141.7046"/>
<polygon fill="#191970" stroke="#191970" points="341.5001,-141.6426 338,-131.6427 334.5001,-141.6427 341.5001,-141.6426"/>
</g>
<!-- Node32 -->
<g id="node35" class="node">
<title>Node32</title>
<polygon fill="#ffffff" stroke="#bfbfbf" points="1036,-168.5 1036,-187.5 1086,-187.5 1086,-168.5 1036,-168.5"/>
<text text-anchor="middle" x="1061" y="-175.5" font-family="Helvetica,sans-Serif" font-size="10.00" fill="#000000">atomic</text>
</g>
<!-- Node35&#45;&gt;Node32 -->
<g id="edge62" class="edge">
<title>Node35&#45;&gt;Node32</title>
<path fill="none" stroke="#191970" d="M1061,-229.8906C1061,-221.3657 1061,-208.6392 1061,-197.9235"/>
<polygon fill="#191970" stroke="#191970" points="1064.5001,-197.7448 1061,-187.7449 1057.5001,-197.7449 1064.5001,-197.7448"/>
</g>
<!-- Node36&#45;&gt;Node4 -->
<g id="edge67" class="edge">
<title>Node36&#45;&gt;Node4</title>
<path fill="none" stroke="#191970" d="M473.3148,-229.9333C485.1404,-196.2157 525.9376,-83.4611 552,-56 567.4615,-39.7087 589.9606,-28.2089 608.5948,-20.7819"/>
<polygon fill="#191970" stroke="#191970" points="610.0761,-23.9641 618.204,-17.1679 607.6119,-17.4122 610.0761,-23.9641"/>
</g>
<!-- Node36&#45;&gt;Node5 -->
<g id="edge68" class="edge">
<title>Node36&#45;&gt;Node5</title>
<path fill="none" stroke="#191970" d="M493.7529,-229.9566C535.4795,-213.7137 625.0182,-181.1752 704,-168 833.6647,-146.3703 1771.2393,-127.3656 2003.201,-122.9596"/>
<polygon fill="#191970" stroke="#191970" points="2003.4588,-126.4554 2013.3908,-122.7668 2003.3264,-119.4567 2003.4588,-126.4554"/>
</g>
<!-- Node36&#45;&gt;Node13 -->
<g id="edge64" class="edge">
<title>Node36&#45;&gt;Node13</title>
<path fill="none" stroke="#191970" d="M473.4881,-229.6441C478.0726,-214.7778 484.1079,-186.4033 471,-168 459.2603,-151.5176 407.0272,-137.1057 371.6197,-128.9859"/>
<polygon fill="#191970" stroke="#191970" points="372.2033,-125.5301 361.6812,-126.7693 370.6795,-132.3622 372.2033,-125.5301"/>
</g>
<!-- Node36&#45;&gt;Node14 -->
<g id="edge65" class="edge">
<title>Node36&#45;&gt;Node14</title>
<path fill="none" stroke="#191970" d="M434.804,-229.9651C398.8389,-220.2095 341.1076,-204.5161 282.0031,-188.2674"/>
<polygon fill="#191970" stroke="#191970" points="282.693,-184.8273 272.1228,-185.5495 280.8363,-191.5765 282.693,-184.8273"/>
</g>
<!-- Node36&#45;&gt;Node37 -->
<g id="edge69" class="edge">
<title>Node36&#45;&gt;Node37</title>
<path fill="none" stroke="#191970" d="M449.375,-229.8906C427.4827,-219.6908 392.6807,-203.4763 367.8073,-191.8875"/>
<polygon fill="#191970" stroke="#191970" points="369.0228,-188.5926 358.4802,-187.5419 366.0665,-194.9377 369.0228,-188.5926"/>
</g>
<!-- Node36&#45;&gt;Node32 -->
<g id="edge66" class="edge">
<title>Node36&#45;&gt;Node32</title>
<path fill="none" stroke="#191970" d="M532.1303,-233.0347C655.6752,-220.1785 928.6413,-191.7734 1025.8085,-181.6621"/>
<polygon fill="#191970" stroke="#191970" points="1026.3938,-185.1201 1035.9778,-180.6038 1025.6692,-178.1577 1026.3938,-185.1201"/>
</g>
<!-- Node44&#45;&gt;Node7 -->
<g id="edge71" class="edge">
<title>Node44&#45;&gt;Node7</title>
<path fill="none" stroke="#191970" d="M2190.2367,-296.6459C2177.9674,-287.4961 2161.3698,-272.6496 2154,-255 2129.9267,-197.3475 2140.5551,-120.9086 2147.5837,-85.5168"/>
<polygon fill="#191970" stroke="#191970" points="2151.0479,-86.0516 2149.6906,-75.5441 2144.1991,-84.6046 2151.0479,-86.0516"/>
</g>
<!-- Node44&#45;&gt;Node29 -->
<g id="edge79" class="edge">
<title>Node44&#45;&gt;Node29</title>
<path fill="none" stroke="#191970" d="M2188.9368,-296.9544C2171.7827,-286.7172 2143.8422,-269.9175 2120,-255 2098.4711,-241.5298 2094.3481,-236.0624 2072,-224 2049.2025,-211.695 2022.4517,-199.9188 2001.79,-191.3622"/>
<polygon fill="#191970" stroke="#191970" points="2003.052,-188.097 1992.4713,-187.5498 2000.4014,-194.5758 2003.052,-188.097"/>
</g>
<!-- Node44&#45;&gt;Node47 -->
<g id="edge72" class="edge">
<title>Node44&#45;&gt;Node47</title>
<path fill="none" stroke="#191970" d="M2151.8192,-301.2984C2028.8149,-289.2673 1724.7773,-259.5293 1588.2704,-246.1775"/>
<polygon fill="#191970" stroke="#191970" points="1588.242,-242.6581 1577.9488,-245.168 1587.5605,-249.6249 1588.242,-242.6581"/>
</g>
<!-- Node47&#45;&gt;Node15 -->
<g id="edge73" class="edge">
<title>Node47&#45;&gt;Node15</title>
<path fill="none" stroke="#191970" d="M1462.2942,-226.7486C1457.466,-225.7817 1452.6536,-224.8521 1448,-224 1354.8806,-206.9484 1244.8808,-191.4454 1186.0815,-183.5291"/>
<polygon fill="#191970" stroke="#191970" points="1186.4349,-180.0453 1176.0587,-182.1866 1185.5055,-186.9833 1186.4349,-180.0453"/>
</g>
<!-- Node47&#45;&gt;Node16 -->
<g id="edge75" class="edge">
<title>Node47&#45;&gt;Node16</title>
<path fill="none" stroke="#191970" d="M1577.8558,-229.2755C1651.1504,-216.3226 1775.0457,-194.4273 1834.373,-183.9427"/>
<polygon fill="#191970" stroke="#191970" points="1835.0977,-187.3689 1844.336,-182.182 1833.8795,-180.4758 1835.0977,-187.3689"/>
</g>
<!-- Node47&#45;&gt;Node19 -->
<g id="edge76" class="edge">
<title>Node47&#45;&gt;Node19</title>
<path fill="none" stroke="#191970" d="M1462.335,-235.9416C1410.2519,-232.7468 1331.4986,-227.9637 1263,-224 958.1132,-206.3574 590.1422,-186.4506 471.7062,-180.0779"/>
<polygon fill="#191970" stroke="#191970" points="471.8466,-176.5805 461.6731,-179.5384 471.4706,-183.5704 471.8466,-176.5805"/>
</g>
<!-- Node47&#45;&gt;Node22 -->
<g id="edge77" class="edge">
<title>Node47&#45;&gt;Node22</title>
<path fill="none" stroke="#191970" d="M1520,-224.2977C1520,-216.3834 1520,-206.6043 1520,-198.0759"/>
<polygon fill="#191970" stroke="#191970" points="1523.5001,-197.8469 1520,-187.8469 1516.5001,-197.847 1523.5001,-197.8469"/>
</g>
<!-- Node47&#45;&gt;Node24 -->
<g id="edge74" class="edge">
<title>Node47&#45;&gt;Node24</title>
<path fill="none" stroke="#191970" d="M1462.2383,-234.7509C1315.0464,-222.6489 929.0231,-190.9103 808.4938,-181.0005"/>
<polygon fill="#191970" stroke="#191970" points="808.5732,-177.4953 798.32,-180.164 807.9996,-184.4718 808.5732,-177.4953"/>
</g>
<!-- Node47&#45;&gt;Node29 -->
<g id="edge78" class="edge">
<title>Node47&#45;&gt;Node29</title>
<path fill="none" stroke="#191970" d="M1577.7136,-231.0926C1593.9718,-228.758 1611.6744,-226.2479 1628,-224 1749.2399,-207.3066 1779.8075,-205.0337 1901,-188 1905.1272,-187.4199 1909.3956,-186.8088 1913.687,-186.1864"/>
<polygon fill="#191970" stroke="#191970" points="1914.299,-189.6342 1923.6867,-184.7228 1913.2852,-182.708 1914.299,-189.6342"/>
</g>
<!-- Node50&#45;&gt;Node5 -->
<g id="edge94" class="edge">
<title>Node50&#45;&gt;Node5</title>
<path fill="none" stroke="#191970" d="M603.627,-358.0644C593.6127,-348.809 582.3851,-336.1127 577,-322 572.0882,-309.1275 570.9118,-303.3596 577,-291 616.6352,-210.537 652.5943,-198.3465 737,-168 797.5056,-146.2463 1766.8647,-127.2471 2003.2983,-122.9213"/>
<polygon fill="#191970" stroke="#191970" points="2003.417,-126.4199 2013.3515,-122.7382 2003.2894,-119.421 2003.417,-126.4199"/>
</g>
<!-- Node50&#45;&gt;Node17 -->
<g id="edge84" class="edge">
<title>Node50&#45;&gt;Node17</title>
<path fill="none" stroke="#191970" d="M685.5743,-360.6825C690.451,-359.7512 695.303,-358.8465 700,-358 800.0983,-339.9605 831.0151,-358.3724 926,-322 949.7163,-312.9184 950.2964,-300.1148 974,-291 1067.2957,-255.1248 1100.0391,-282.9751 1196,-255 1198.1762,-254.3656 1200.3957,-253.6338 1202.6102,-252.8407"/>
<polygon fill="#191970" stroke="#191970" points="1204.1198,-256.0078 1212.1388,-249.0835 1201.552,-249.4958 1204.1198,-256.0078"/>
</g>
<!-- Node51 -->
<g id="node40" class="node">
<title>Node51</title>
<polygon fill="#ffffff" stroke="#bfbfbf" points="1016,-297 1016,-316 1064,-316 1064,-297 1016,-297"/>
<text text-anchor="middle" x="1040" y="-304" font-family="Helvetica,sans-Serif" font-size="10.00" fill="#000000">mutex</text>
</g>
<!-- Node50&#45;&gt;Node51 -->
<g id="edge85" class="edge">
<title>Node50&#45;&gt;Node51</title>
<path fill="none" stroke="#191970" d="M685.8262,-364.4061C769.1908,-352.271 911.9006,-331.2407 964,-322 977.7056,-319.5691 992.7339,-316.5742 1005.7823,-313.8671"/>
<polygon fill="#191970" stroke="#191970" points="1006.691,-317.2528 1015.7593,-311.7741 1005.2537,-310.4019 1006.691,-317.2528"/>
</g>
<!-- Node50&#45;&gt;Node52 -->
<g id="edge86" class="edge">
<title>Node50&#45;&gt;Node52</title>
<path fill="none" stroke="#191970" d="M668.5572,-358.4639C698.7494,-348.499 738.5457,-335.3642 770.5732,-324.7936"/>
<polygon fill="#191970" stroke="#191970" points="771.845,-328.0596 780.2441,-321.6017 769.651,-321.4123 771.845,-328.0596"/>
</g>
<!-- Node52&#45;&gt;Node4 -->
<g id="edge91" class="edge">
<title>Node52&#45;&gt;Node4</title>
<path fill="none" stroke="#191970" d="M842.4909,-291.2093C864.8431,-268.7339 902,-224.3947 902,-178 902,-178 902,-178 902,-122 902,-73.2642 745.9645,-32.8229 675.6501,-17.0729"/>
<polygon fill="#191970" stroke="#191970" points="676.0506,-13.5773 665.5318,-14.8448 674.5451,-20.4136 676.0506,-13.5773"/>
</g>
<!-- Node52&#45;&gt;Node5 -->
<g id="edge92" class="edge">
<title>Node52&#45;&gt;Node5</title>
<path fill="none" stroke="#191970" d="M855.106,-291.4286C873.0985,-281.7289 896.4147,-268.4572 916,-255 967.6612,-219.5033 968.1095,-189.4663 1027,-168 1119.0332,-134.4528 1807.9264,-124.6239 2003.4179,-122.4962"/>
<polygon fill="#191970" stroke="#191970" points="2003.4694,-125.996 2013.4314,-122.3893 2003.3946,-118.9964 2003.4694,-125.996"/>
</g>
<!-- Node52&#45;&gt;Node11 -->
<g id="edge90" class="edge">
<title>Node52&#45;&gt;Node11</title>
<path fill="none" stroke="#191970" d="M829.3234,-291.2852C834.6194,-262.4872 841.1745,-200.0352 807,-168 766.2824,-129.8313 359.3507,-148.3855 306,-132 229.5564,-108.522 150.9887,-53.2216 115.0925,-25.8775"/>
<polygon fill="#191970" stroke="#191970" points="116.9678,-22.9037 106.9129,-19.5643 112.6907,-28.4451 116.9678,-22.9037"/>
</g>
<!-- Node52&#45;&gt;Node15 -->
<g id="edge87" class="edge">
<title>Node52&#45;&gt;Node15</title>
<path fill="none" stroke="#191970" d="M870.6904,-291.4118C895.8151,-282.2225 927.3814,-269.4779 954,-255 975.0145,-243.5702 976.5596,-234.6092 998,-224 1031.4908,-207.428 1072.2357,-195.1834 1102.1632,-187.5119"/>
<polygon fill="#191970" stroke="#191970" points="1103.0185,-190.9059 1111.8717,-185.0859 1101.3215,-184.1147 1103.0185,-190.9059"/>
</g>
<!-- Node52&#45;&gt;Node17 -->
<g id="edge89" class="edge">
<title>Node52&#45;&gt;Node17</title>
<path fill="none" stroke="#191970" d="M884.2257,-298.2689C900.9409,-295.9131 919.1916,-293.3479 936,-291 1051.5363,-274.8613 1083.6333,-286.3498 1196,-255 1198.3227,-254.352 1200.6922,-253.5863 1203.051,-252.7481"/>
<polygon fill="#191970" stroke="#191970" points="1204.52,-255.9312 1212.5404,-249.0085 1201.9535,-249.4187 1204.52,-255.9312"/>
</g>
<!-- Node52&#45;&gt;Node24 -->
<g id="edge88" class="edge">
<title>Node52&#45;&gt;Node24</title>
<path fill="none" stroke="#191970" d="M819.5934,-291.2548C809.7225,-267.7656 790.8106,-222.7623 780.0363,-197.1235"/>
<polygon fill="#191970" stroke="#191970" points="783.1922,-195.5989 776.0913,-187.7358 776.7388,-198.3108 783.1922,-195.5989"/>
</g>
<!-- Node52&#45;&gt;Node29 -->
<g id="edge93" class="edge">
<title>Node52&#45;&gt;Node29</title>
<path fill="none" stroke="#191970" d="M884.3097,-296.7899C968.0183,-282.802 1113.5114,-258.2903 1125,-255 1160.0697,-244.9561 1165.3943,-231.9374 1201,-224 1505.0587,-156.2177 1591.027,-219.0296 1901,-188 1905.147,-187.5849 1909.4298,-187.093 1913.7312,-186.5537"/>
<polygon fill="#191970" stroke="#191970" points="1914.295,-190.0097 1923.7468,-185.2228 1913.3729,-183.0707 1914.295,-190.0097"/>
</g>
<!-- Node58&#45;&gt;Node47 -->
<g id="edge98" class="edge">
<title>Node58&#45;&gt;Node47</title>
<path fill="none" stroke="#191970" d="M1093.9896,-363.8835C1136.9174,-347.5717 1227.6193,-314.0124 1306,-291 1354.5407,-276.7486 1410.107,-263.4644 1452.4513,-253.9583"/>
<polygon fill="#191970" stroke="#191970" points="1453.3717,-257.3391 1462.3701,-251.7463 1451.848,-250.5069 1453.3717,-257.3391"/>
</g>
<!-- Node61&#45;&gt;Node10 -->
<g id="edge107" class="edge">
<title>Node61&#45;&gt;Node10</title>
<path fill="none" stroke="#191970" d="M902.5321,-430.9545C894.635,-428.6962 886.0529,-426.5087 878,-425 704.7315,-392.5378 647.8647,-451.413 483,-389 447.688,-375.6319 226.0644,-221.6816 209,-188 178.4763,-127.7526 272.0921,-123.6074 306,-112 356.0806,-94.8564 501.5719,-79.1019 583.7378,-71.2427"/>
<polygon fill="#191970" stroke="#191970" points="584.2951,-74.7057 593.9205,-70.2781 583.635,-67.7369 584.2951,-74.7057"/>
</g>
<!-- Node61&#45;&gt;Node25 -->
<g id="edge104" class="edge">
<title>Node61&#45;&gt;Node25</title>
<path fill="none" stroke="#191970" d="M923.69,-430.9005C914.6454,-420.4525 899.9983,-403.5325 888.9445,-390.7635"/>
<polygon fill="#191970" stroke="#191970" points="891.4858,-388.3515 882.2946,-383.0817 886.1934,-392.9331 891.4858,-388.3515"/>
</g>
<!-- Node61&#45;&gt;Node47 -->
<g id="edge105" class="edge">
<title>Node61&#45;&gt;Node47</title>
<path fill="none" stroke="#191970" d="M936.6881,-430.7851C945.4965,-413.5509 966.1672,-377.6003 994,-358 1067.6046,-306.1664 1327.5376,-265.3275 1452.2568,-248.2225"/>
<polygon fill="#191970" stroke="#191970" points="1453.0106,-251.6523 1462.4476,-246.8364 1452.0671,-244.7161 1453.0106,-251.6523"/>
</g>
<!-- Node61&#45;&gt;Node59 -->
<g id="edge106" class="edge">
<title>Node61&#45;&gt;Node59</title>
<path fill="none" stroke="#191970" d="M910.5087,-430.9005C884.8897,-419.4574 841.8901,-400.2509 812.7553,-387.2374"/>
<polygon fill="#191970" stroke="#191970" points="814.0095,-383.9643 803.4515,-383.0817 811.1546,-390.3557 814.0095,-383.9643"/>
</g>
<!-- Node62&#45;&gt;Node17 -->
<g id="edge109" class="edge">
<title>Node62&#45;&gt;Node17</title>
<path fill="none" stroke="#191970" d="M1491.9093,-296.9717C1430.3589,-283.3615 1318.6753,-258.6658 1263.9546,-246.5659"/>
<polygon fill="#191970" stroke="#191970" points="1264.6329,-243.1314 1254.113,-244.3897 1263.1215,-249.9663 1264.6329,-243.1314"/>
</g>
<!-- Node62&#45;&gt;Node29 -->
<g id="edge110" class="edge">
<title>Node62&#45;&gt;Node29</title>
<path fill="none" stroke="#191970" d="M1567.1916,-296.9466C1644.3943,-274.0354 1840.0404,-215.9742 1926.1872,-190.4087"/>
<polygon fill="#191970" stroke="#191970" points="1927.2997,-193.7294 1935.8907,-187.529 1925.3082,-187.0187 1927.2997,-193.7294"/>
</g>
<!-- Node63&#45;&gt;Node17 -->
<g id="edge114" class="edge">
<title>Node63&#45;&gt;Node17</title>
<path fill="none" stroke="#191970" d="M1536.7877,-425.4928C1532.1906,-407.3363 1522.0974,-376.863 1503,-358 1474.3927,-329.7438 1456.8546,-338.0789 1420,-322 1364.6693,-297.8603 1300.2642,-269.5518 1263.0094,-253.1563"/>
<polygon fill="#191970" stroke="#191970" points="1264.2609,-249.8832 1253.6983,-249.0578 1261.4408,-256.29 1264.2609,-249.8832"/>
</g>
<!-- Node63&#45;&gt;Node28 -->
<g id="edge117" class="edge">
<title>Node63&#45;&gt;Node28</title>
<path fill="none" stroke="#191970" d="M1599.7485,-432.3797C1630.8099,-425.437 1667.5034,-412.6161 1693,-389 1711.0446,-372.2862 1720.15,-344.7546 1724.4755,-326.1392"/>
<polygon fill="#191970" stroke="#191970" points="1727.9502,-326.6189 1726.545,-316.1176 1721.0949,-325.2032 1727.9502,-326.6189"/>
</g>
<!-- Node63&#45;&gt;Node29 -->
<g id="edge123" class="edge">
<title>Node63&#45;&gt;Node29</title>
<path fill="none" stroke="#191970" d="M1599.582,-429.2679C1634.9963,-421.1275 1680.0628,-408.1462 1717,-389 1818.9205,-336.1701 1916.0175,-235.6445 1952.6482,-195.346"/>
<polygon fill="#191970" stroke="#191970" points="1955.4409,-197.4749 1959.527,-187.6997 1950.2369,-192.7932 1955.4409,-197.4749"/>
</g>
<!-- Node63&#45;&gt;Node38 -->
<g id="edge122" class="edge">
<title>Node63&#45;&gt;Node38</title>
<path fill="none" stroke="#191970" d="M1599.6645,-433.3616C1706.9603,-420.5244 1931.3372,-393.6793 2039.3473,-380.7567"/>
<polygon fill="#191970" stroke="#191970" points="2039.9155,-384.2137 2049.4288,-379.5505 2039.0838,-377.2633 2039.9155,-384.2137"/>
</g>
<!-- Node63&#45;&gt;Node35 -->
<g id="edge124" class="edge">
<title>Node63&#45;&gt;Node35</title>
<path fill="none" stroke="#191970" d="M1524.0189,-425.4251C1503.9435,-407.2002 1467.7735,-376.6581 1432,-358 1373.8995,-327.697 1191.1034,-275.3508 1105.7396,-251.7118"/>
<polygon fill="#191970" stroke="#191970" points="1106.6429,-248.3302 1096.072,-249.042 1104.7795,-255.0777 1106.6429,-248.3302"/>
</g>
<!-- Node63&#45;&gt;Node32 -->
<g id="edge113" class="edge">
<title>Node63&#45;&gt;Node32</title>
<path fill="none" stroke="#191970" d="M1541.5672,-425.216C1542.5739,-407.3414 1541.5779,-377.6964 1527,-358 1505.2416,-328.6019 1485.3901,-338.987 1453,-322 1428.1502,-308.9675 1422.7981,-304.1305 1398,-291 1338.8034,-259.6555 1326.1262,-246.4009 1263,-224 1194.3079,-199.624 1174.0103,-204.4416 1103,-188 1100.8047,-187.4917 1098.5459,-186.9649 1096.2686,-186.4309"/>
<polygon fill="#191970" stroke="#191970" points="1096.8437,-182.9705 1086.307,-184.0792 1095.2353,-189.7833 1096.8437,-182.9705"/>
</g>
<!-- Node63&#45;&gt;Node51 -->
<g id="edge115" class="edge">
<title>Node63&#45;&gt;Node51</title>
<path fill="none" stroke="#191970" d="M1480.18,-429.5836C1430.7468,-420.142 1358.892,-405.4468 1297,-389 1216.0311,-367.4838 1122.8101,-335.783 1073.9405,-318.6169"/>
<polygon fill="#191970" stroke="#191970" points="1074.8006,-315.209 1064.2058,-315.1833 1072.4722,-321.8104 1074.8006,-315.209"/>
</g>
<!-- Node63&#45;&gt;Node62 -->
<g id="edge116" class="edge">
<title>Node63&#45;&gt;Node62</title>
<path fill="none" stroke="#191970" d="M1555.6689,-425.3979C1564.3728,-415.8856 1574.3573,-402.8211 1579,-389 1583.3873,-375.9394 1583.7698,-370.9258 1579,-358 1574.0382,-344.554 1563.8283,-332.2383 1554.4919,-323.0241"/>
<polygon fill="#191970" stroke="#191970" points="1556.6986,-320.2969 1546.9891,-316.057 1551.9353,-325.4264 1556.6986,-320.2969"/>
</g>
<!-- Node63&#45;&gt;Node33 -->
<g id="edge118" class="edge">
<title>Node63&#45;&gt;Node33</title>
<path fill="none" stroke="#191970" d="M1500.5022,-425.4639C1474.6641,-415.6278 1440.7134,-402.7034 1413.1353,-392.2049"/>
<polygon fill="#191970" stroke="#191970" points="1414.2611,-388.8885 1403.6701,-388.6017 1411.7706,-395.4305 1414.2611,-388.8885"/>
</g>
<!-- Node33&#45;&gt;Node4 -->
<g id="edge120" class="edge">
<title>Node33&#45;&gt;Node4</title>
<path fill="none" stroke="#191970" d="M1305.1803,-369.2447C1260.8749,-366.0664 1198.6311,-361.6588 1144,-358 1081.0142,-353.7817 620.2001,-368.0299 577,-322 568.3939,-312.8302 522.5064,-181.2179 585,-56 591.3626,-43.2513 603.0749,-32.8503 614.2351,-25.1841"/>
<polygon fill="#191970" stroke="#191970" points="616.4006,-27.9545 622.9542,-19.6298 612.6396,-22.0507 616.4006,-27.9545"/>
</g>
<!-- Node33&#45;&gt;Node17 -->
<g id="edge119" class="edge">
<title>Node33&#45;&gt;Node17</title>
<path fill="none" stroke="#191970" d="M1349.1145,-358.389C1324.3065,-333.2051 1274.673,-282.8195 1248.706,-256.4592"/>
<polygon fill="#191970" stroke="#191970" points="1250.972,-253.772 1241.4608,-249.1042 1245.9851,-258.6844 1250.972,-253.772"/>
</g>
<!-- Node33&#45;&gt;Node28 -->
<g id="edge121" class="edge">
<title>Node33&#45;&gt;Node28</title>
<path fill="none" stroke="#191970" d="M1422.5352,-360.8881C1427.4242,-359.8904 1432.2945,-358.9157 1437,-358 1513.5284,-343.108 1601.7374,-327.7495 1660.7953,-317.7255"/>
<polygon fill="#191970" stroke="#191970" points="1661.4693,-321.1613 1670.7444,-316.0405 1660.3003,-314.2596 1661.4693,-321.1613"/>
</g>
<!-- Node74&#45;&gt;Node2 -->
<g id="edge129" class="edge">
<title>Node74&#45;&gt;Node2</title>
<path fill="none" stroke="#191970" d="M2365.6963,-430.903C2421.6259,-415.2724 2514,-378.5506 2514,-306.5 2514,-306.5 2514,-306.5 2514,-178 2514,-145.2688 2506.0148,-107.9052 2500.3978,-85.6716"/>
<polygon fill="#191970" stroke="#191970" points="2503.7289,-84.5763 2497.8035,-75.7934 2496.9585,-86.3545 2503.7289,-84.5763"/>
</g>
<!-- Node74&#45;&gt;Node3 -->
<g id="edge131" class="edge">
<title>Node74&#45;&gt;Node3</title>
<path fill="none" stroke="#191970" d="M2382.2158,-432.0597C2443.3742,-422.5015 2534.9226,-406.0301 2566,-389 2673.2689,-330.2176 2693.263,-294.1743 2754,-188 2783.497,-136.4363 2787.6234,-114.0477 2775,-56 2772.9575,-46.6079 2768.8211,-36.8357 2764.7553,-28.7264"/>
<polygon fill="#191970" stroke="#191970" points="2767.7809,-26.9622 2759.9765,-19.7968 2761.6091,-30.2651 2767.7809,-26.9622"/>
</g>
<!-- Node74&#45;&gt;Node4 -->
<g id="edge132" class="edge">
<title>Node74&#45;&gt;Node4</title>
<path fill="none" stroke="#191970" d="M2382.124,-432.0765C2449.6747,-418.6204 2552,-385.2416 2552,-306.5 2552,-306.5 2552,-306.5 2552,-239.5 2552,-157.6724 2596.4944,-112.1798 2537,-56 2501.7834,-22.7454 927.8044,-11.7468 675.8555,-10.1981"/>
<polygon fill="#191970" stroke="#191970" points="675.8467,-6.6981 665.8256,-10.1371 675.8041,-13.6979 675.8467,-6.6981"/>
</g>
<!-- Node74&#45;&gt;Node5 -->
<g id="edge136" class="edge">
<title>Node74&#45;&gt;Node5</title>
<path fill="none" stroke="#191970" d="M2330.1249,-430.8655C2342.1204,-411.3016 2368.2185,-365.1132 2376,-322 2384.6145,-274.2717 2366.5111,-253.4804 2328,-224 2260.9167,-172.6473 2165.2023,-144.8905 2106.7446,-131.7956"/>
<polygon fill="#191970" stroke="#191970" points="2107.1479,-128.3015 2096.6322,-129.5935 2105.6585,-135.1412 2107.1479,-128.3015"/>
</g>
<!-- Node74&#45;&gt;Node9 -->
<g id="edge130" class="edge">
<title>Node74&#45;&gt;Node9</title>
<path fill="none" stroke="#191970" d="M2336.2753,-430.7496C2347.4422,-421.2399 2363.5763,-405.7885 2373,-389 2394.6762,-350.3836 2401.0453,-334.1298 2391,-291 2371.2081,-206.0234 2308.1713,-120.281 2279.0334,-83.9967"/>
<polygon fill="#191970" stroke="#191970" points="2281.4359,-81.4047 2272.4028,-75.8681 2276.0116,-85.8294 2281.4359,-81.4047"/>
</g>
<!-- Node74&#45;&gt;Node15 -->
<g id="edge127" class="edge">
<title>Node74&#45;&gt;Node15</title>
<path fill="none" stroke="#191970" d="M2289.7642,-430.9785C2262.3045,-422.4393 2223.4556,-408.2798 2193,-389 2175.9974,-378.2366 2177.7368,-367.5049 2160,-358 2044.7382,-296.2327 1715.9583,-245.6851 1587,-224 1440.8652,-199.4265 1265.2597,-185.8657 1186.2055,-180.6006"/>
<polygon fill="#191970" stroke="#191970" points="1186.3603,-177.1033 1176.1527,-179.9413 1185.9022,-184.0883 1186.3603,-177.1033"/>
</g>
<!-- Node74&#45;&gt;Node16 -->
<g id="edge128" class="edge">
<title>Node74&#45;&gt;Node16</title>
<path fill="none" stroke="#191970" d="M2309.237,-430.8215C2285.1546,-415.12 2235.8029,-383.3041 2193,-358 2084.0907,-293.6153 1951.2731,-222.2195 1895.1251,-192.3565"/>
<polygon fill="#191970" stroke="#191970" points="1896.6431,-189.1998 1886.1697,-187.6001 1893.3596,-195.3819 1896.6431,-189.1998"/>
</g>
<!-- Node74&#45;&gt;Node29 -->
<g id="edge133" class="edge">
<title>Node74&#45;&gt;Node29</title>
<path fill="none" stroke="#191970" d="M2326.8714,-430.616C2336.0969,-396.5665 2361.2256,-282.9987 2305,-224 2285.8284,-203.8828 2112.6312,-188.4784 2022.2948,-181.7335"/>
<polygon fill="#191970" stroke="#191970" points="2022.4631,-178.2365 2012.233,-180.9925 2021.9489,-185.2176 2022.4631,-178.2365"/>
</g>
<!-- Node74&#45;&gt;Node38 -->
<g id="edge135" class="edge">
<title>Node74&#45;&gt;Node38</title>
<path fill="none" stroke="#191970" d="M2291.9063,-430.9005C2252.4011,-419.0843 2185.2205,-398.9901 2141.7394,-385.9845"/>
<polygon fill="#191970" stroke="#191970" points="2142.6178,-382.5941 2132.0342,-383.0817 2140.6118,-389.3006 2142.6178,-382.5941"/>
</g>
<!-- Node74&#45;&gt;Node47 -->
<g id="edge134" class="edge">
<title>Node74&#45;&gt;Node47</title>
<path fill="none" stroke="#191970" d="M2265.7304,-433.499C2207.9341,-425.7174 2117.2257,-411.2362 2041,-389 1930.3935,-356.7344 1911.5862,-323.335 1801,-291 1729.4844,-270.0892 1645.1349,-255.9854 1587.6426,-247.9006"/>
<polygon fill="#191970" stroke="#191970" points="1587.9712,-244.4128 1577.5859,-246.5093 1587.0118,-251.3468 1587.9712,-244.4128"/>
</g>
<!-- Node77&#45;&gt;Node4 -->
<g id="edge140" class="edge">
<title>Node77&#45;&gt;Node4</title>
<path fill="none" stroke="#191970" d="M566.4557,-548.4467C486.2343,-531.4816 328.7399,-494.266 288,-456 189.5523,-363.5305 176.7708,-302.3134 191,-168 193.6816,-142.6877 187.718,-132.3559 203,-112 234.5182,-70.0172 257.0892,-72.2745 307,-56 362.5909,-37.8734 534.5088,-20.1039 608.0568,-13.1113"/>
<polygon fill="#191970" stroke="#191970" points="608.541,-16.5813 618.1688,-12.1591 607.8847,-9.6121 608.541,-16.5813"/>
</g>
<!-- Node77&#45;&gt;Node23 -->
<g id="edge141" class="edge">
<title>Node77&#45;&gt;Node23</title>
<path fill="none" stroke="#191970" d="M641.8488,-548.3733C668.6703,-539.1016 709.4127,-525.0178 738.9598,-514.804"/>
<polygon fill="#191970" stroke="#191970" points="740.2069,-518.0762 748.5146,-511.5011 737.9198,-511.4603 740.2069,-518.0762"/>
</g>
</g>
</svg>
