<?xml version="1.0" encoding="UTF-8" standalone="no"?>
<!DOCTYPE svg PUBLIC "-//W3C//DTD SVG 1.1//EN"
 "http://www.w3.org/Graphics/SVG/1.1/DTD/svg11.dtd">
<!-- Generated by graphviz version 2.40.1 (20161225.0304)
 -->
<!-- Title: core/container/math_array.h Pages: 1 -->
<svg width="4134pt" height="530pt"
 viewBox="0.00 0.00 4133.50 530.00" xmlns="http://www.w3.org/2000/svg" xmlns:xlink="http://www.w3.org/1999/xlink">
<g id="graph0" class="graph" transform="scale(1 1) rotate(0) translate(4 526)">
<title>core/container/math_array.h</title>
<polygon fill="#ffffff" stroke="transparent" points="-4,4 -4,-526 4129.5,-526 4129.5,4 -4,4"/>
<!-- Node20 -->
<g id="node1" class="node">
<title>Node20</title>
<polygon fill="#bfbfbf" stroke="#000000" points="1791.5,-491.5 1791.5,-521.5 1894.5,-521.5 1894.5,-491.5 1791.5,-491.5"/>
<text text-anchor="start" x="1799.5" y="-509.5" font-family="Helvetica,sans-Serif" font-size="10.00" fill="#000000">core/container/math</text>
<text text-anchor="middle" x="1843" y="-498.5" font-family="Helvetica,sans-Serif" font-size="10.00" fill="#000000">_array.h</text>
</g>
<!-- Node21 -->
<g id="node2" class="node">
<title>Node21</title>
<g id="a_node2"><a xlink:href="random_8h.html" target="_top" xlink:title="core/util/random.h">
<polygon fill="#ffffff" stroke="#000000" points="484.5,-424.5 484.5,-443.5 579.5,-443.5 579.5,-424.5 484.5,-424.5"/>
<text text-anchor="middle" x="532" y="-431.5" font-family="Helvetica,sans-Serif" font-size="10.00" fill="#000000">core/util/random.h</text>
</a>
</g>
</g>
<!-- Node20&#45;&gt;Node21 -->
<g id="edge1" class="edge">
<title>Node20&#45;&gt;Node21</title>
<path fill="none" stroke="#191970" d="M1781.018,-503.7438C1622.9462,-496.6267 1191.9144,-476.6689 833,-455 743.4555,-449.5939 639.0179,-442.0233 579.6826,-437.6033"/>
<polygon fill="#191970" stroke="#191970" points="1781.3305,-507.2612 1791.4776,-504.2139 1781.6448,-500.2683 1781.3305,-507.2612"/>
</g>
<!-- Node72 -->
<g id="node4" class="node">
<title>Node72</title>
<g id="a_node4"><a xlink:href="diffusion__grid_8h.html" target="_top" xlink:title="core/diffusion_grid.h">
<polygon fill="#ffffff" stroke="#000000" points="1210,-290.5 1210,-309.5 1314,-309.5 1314,-290.5 1210,-290.5"/>
<text text-anchor="middle" x="1262" y="-297.5" font-family="Helvetica,sans-Serif" font-size="10.00" fill="#000000">core/diffusion_grid.h</text>
</a>
</g>
</g>
<!-- Node20&#45;&gt;Node72 -->
<g id="edge150" class="edge">
<title>Node20&#45;&gt;Node72</title>
<path fill="none" stroke="#191970" d="M1791.0575,-488.0385C1671.2044,-445.4401 1378.716,-341.4834 1288.7649,-309.5128"/>
<polygon fill="#191970" stroke="#191970" points="1790.1532,-491.4315 1800.7479,-491.4827 1792.4975,-484.8358 1790.1532,-491.4315"/>
</g>
<!-- Node49 -->
<g id="node9" class="node">
<title>Node49</title>
<g id="a_node9"><a xlink:href="environment_8h.html" target="_top" xlink:title="core/environment/environment.h">
<polygon fill="#ffffff" stroke="#000000" points="2408,-140 2408,-159 2564,-159 2564,-140 2408,-140"/>
<text text-anchor="middle" x="2486" y="-147" font-family="Helvetica,sans-Serif" font-size="10.00" fill="#000000">core/environment/environment.h</text>
</a>
</g>
</g>
<!-- Node20&#45;&gt;Node49 -->
<g id="edge151" class="edge">
<title>Node20&#45;&gt;Node49</title>
<path fill="none" stroke="#191970" d="M1905.0363,-505.5236C2180.9358,-501.0432 3289.7322,-481.5284 3443,-455 3577.756,-431.6757 3683.1494,-452.7013 3720,-321 3755.0564,-195.7112 3581.2535,-222.8461 3453,-201 3282.7096,-171.9935 2762.6973,-156.3703 2564.1628,-151.3353"/>
<polygon fill="#191970" stroke="#191970" points="1904.7523,-502.0277 1894.8102,-505.689 1904.8656,-509.0268 1904.7523,-502.0277"/>
</g>
<!-- Node50 -->
<g id="node11" class="node">
<title>Node50</title>
<g id="a_node11"><a xlink:href="uniform__grid__environment_8h.html" target="_top" xlink:title="core/environment/uniform\l_grid_environment.h">
<polygon fill="#ffffff" stroke="#000000" points="2759.5,-67.5 2759.5,-97.5 2886.5,-97.5 2886.5,-67.5 2759.5,-67.5"/>
<text text-anchor="start" x="2767.5" y="-85.5" font-family="Helvetica,sans-Serif" font-size="10.00" fill="#000000">core/environment/uniform</text>
<text text-anchor="middle" x="2823" y="-74.5" font-family="Helvetica,sans-Serif" font-size="10.00" fill="#000000">_grid_environment.h</text>
</a>
</g>
</g>
<!-- Node20&#45;&gt;Node50 -->
<g id="edge157" class="edge">
<title>Node20&#45;&gt;Node50</title>
<path fill="none" stroke="#191970" d="M1904.7264,-505.7334C2210.0629,-501.8132 3547.6138,-483.0927 3631,-455 3687.4528,-435.9811 3707.3347,-426.8159 3740,-377 3801.9066,-282.59 3764.5754,-189.0324 3666,-134 3594.9951,-94.3597 3015.9665,-105.5814 2935,-98 2919.2669,-96.5268 2902.3537,-94.4475 2886.5584,-92.2889"/>
<polygon fill="#191970" stroke="#191970" points="1904.6796,-502.2336 1894.7252,-505.8612 1904.7691,-509.233 1904.6796,-502.2336"/>
</g>
<!-- Node56 -->
<g id="node18" class="node">
<title>Node56</title>
<g id="a_node18"><a xlink:href="model__initializer_8h.html" target="_top" xlink:title="core/model_initializer.h">
<polygon fill="#ffffff" stroke="#000000" points="788,-140 788,-159 904,-159 904,-140 788,-140"/>
<text text-anchor="middle" x="846" y="-147" font-family="Helvetica,sans-Serif" font-size="10.00" fill="#000000">core/model_initializer.h</text>
</a>
</g>
</g>
<!-- Node20&#45;&gt;Node56 -->
<g id="edge152" class="edge">
<title>Node20&#45;&gt;Node56</title>
<path fill="none" stroke="#191970" d="M1781.2599,-495.2784C1728.85,-485.4893 1651.7444,-470.4664 1585,-455 1357.9456,-402.3856 1301.5424,-386.9603 1078,-321 1064.604,-317.0473 847.2022,-254.3049 839,-243 820.5503,-217.5714 833.8979,-177.3413 841.5848,-159.0806"/>
<polygon fill="#191970" stroke="#191970" points="1780.9307,-498.7771 1791.4022,-497.165 1782.2109,-491.8951 1780.9307,-498.7771"/>
</g>
<!-- Node61 -->
<g id="node21" class="node">
<title>Node61</title>
<g id="a_node21"><a xlink:href="jit__helper_8h.html" target="_top" xlink:title="core/visualization\l/paraview/jit_helper.h">
<polygon fill="#ffffff" stroke="#000000" points="3518.5,-134.5 3518.5,-164.5 3627.5,-164.5 3627.5,-134.5 3518.5,-134.5"/>
<text text-anchor="start" x="3526.5" y="-152.5" font-family="Helvetica,sans-Serif" font-size="10.00" fill="#000000">core/visualization</text>
<text text-anchor="middle" x="3573" y="-141.5" font-family="Helvetica,sans-Serif" font-size="10.00" fill="#000000">/paraview/jit_helper.h</text>
</a>
</g>
</g>
<!-- Node20&#45;&gt;Node61 -->
<g id="edge160" class="edge">
<title>Node20&#45;&gt;Node61</title>
<path fill="none" stroke="#191970" d="M1905.0016,-506.2614C2193.7245,-504.9324 3399.292,-496.8989 3562,-455 3668.5211,-427.5697 3767.4049,-384.4177 3736,-279 3724.1744,-239.3048 3716.3741,-228.0411 3685,-201 3666.3571,-184.9319 3641.8624,-172.9074 3620.5354,-164.5361"/>
<polygon fill="#191970" stroke="#191970" points="1904.7054,-502.7626 1894.7213,-506.3077 1904.737,-509.7626 1904.7054,-502.7626"/>
</g>
<!-- Node91 -->
<g id="node30" class="node">
<title>Node91</title>
<g id="a_node30"><a xlink:href="math_8h.html" target="_top" xlink:title="core/util/math.h">
<polygon fill="#ffffff" stroke="#000000" points="737,-357.5 737,-376.5 821,-376.5 821,-357.5 737,-357.5"/>
<text text-anchor="middle" x="779" y="-364.5" font-family="Helvetica,sans-Serif" font-size="10.00" fill="#000000">core/util/math.h</text>
</a>
</g>
</g>
<!-- Node20&#45;&gt;Node91 -->
<g id="edge149" class="edge">
<title>Node20&#45;&gt;Node91</title>
<path fill="none" stroke="#191970" d="M1781.159,-504.5501C1590.5833,-498.3218 1020.2832,-477.9636 940,-455 880.2793,-437.918 818.1247,-395.8004 791.8949,-376.6986"/>
<polygon fill="#191970" stroke="#191970" points="1781.1785,-508.0525 1791.287,-504.8795 1781.4061,-501.0562 1781.1785,-508.0525"/>
</g>
<!-- Node26 -->
<g id="node31" class="node">
<title>Node26</title>
<g id="a_node31"><a xlink:href="cell_8h.html" target="_top" xlink:title="core/agent/cell.h">
<polygon fill="#ffffff" stroke="#000000" points="1776.5,-290.5 1776.5,-309.5 1865.5,-309.5 1865.5,-290.5 1776.5,-290.5"/>
<text text-anchor="middle" x="1821" y="-297.5" font-family="Helvetica,sans-Serif" font-size="10.00" fill="#000000">core/agent/cell.h</text>
</a>
</g>
</g>
<!-- Node20&#45;&gt;Node26 -->
<g id="edge148" class="edge">
<title>Node20&#45;&gt;Node26</title>
<path fill="none" stroke="#191970" d="M1829.1669,-482.4825C1825.0461,-474.0695 1821.0775,-464.3763 1819,-455 1807.0655,-401.1368 1815.5274,-334.145 1819.3725,-309.5907"/>
<polygon fill="#191970" stroke="#191970" points="1826.0645,-484.1029 1833.7913,-491.3519 1832.2715,-480.8666 1826.0645,-484.1029"/>
</g>
<!-- Node30 -->
<g id="node33" class="node">
<title>Node30</title>
<g id="a_node33"><a xlink:href="neuron__soma_8h.html" target="_top" xlink:title="neuroscience/neuron\l_soma.h">
<polygon fill="#ffffff" stroke="#ff0000" points="320.5,-207 320.5,-237 427.5,-237 427.5,-207 320.5,-207"/>
<text text-anchor="start" x="328.5" y="-225" font-family="Helvetica,sans-Serif" font-size="10.00" fill="#000000">neuroscience/neuron</text>
<text text-anchor="middle" x="374" y="-214" font-family="Helvetica,sans-Serif" font-size="10.00" fill="#000000">_soma.h</text>
</a>
</g>
</g>
<!-- Node20&#45;&gt;Node30 -->
<g id="edge154" class="edge">
<title>Node20&#45;&gt;Node30</title>
<path fill="none" stroke="#191970" d="M1781.086,-505.7107C1530.9521,-502.3123 602.3226,-487.5974 475,-455 399.905,-435.7741 359.7531,-442.9399 319,-377 289.3827,-329.0781 382.8591,-344.5384 398,-321 414.8388,-294.8219 397.1805,-257.8457 384.4996,-237.292"/>
<polygon fill="#191970" stroke="#191970" points="1781.3939,-509.2151 1791.4401,-505.8502 1781.4882,-502.2157 1781.3939,-509.2151"/>
</g>
<!-- Node24 -->
<g id="node38" class="node">
<title>Node24</title>
<g id="a_node38"><a xlink:href="agent_8h.html" target="_top" xlink:title="core/agent/agent.h">
<polygon fill="#ffffff" stroke="#000000" points="2423,-357.5 2423,-376.5 2521,-376.5 2521,-357.5 2423,-357.5"/>
<text text-anchor="middle" x="2472" y="-364.5" font-family="Helvetica,sans-Serif" font-size="10.00" fill="#000000">core/agent/agent.h</text>
</a>
</g>
</g>
<!-- Node20&#45;&gt;Node24 -->
<g id="edge86" class="edge">
<title>Node20&#45;&gt;Node24</title>
<path fill="none" stroke="#191970" d="M1904.6972,-492.8168C2031.6836,-464.6536 2319.5121,-400.8189 2428.8048,-376.5799"/>
<polygon fill="#191970" stroke="#191970" points="1903.7459,-489.4426 1894.741,-495.0249 1905.2616,-496.2766 1903.7459,-489.4426"/>
</g>
<!-- Node64 -->
<g id="node41" class="node">
<title>Node64</title>
<g id="a_node41"><a xlink:href="neuron__or__neurite_8h.html" target="_top" xlink:title="neuroscience/neuron\l_or_neurite.h">
<polygon fill="#ffffff" stroke="#ff0000" points="282.5,-285 282.5,-315 389.5,-315 389.5,-285 282.5,-285"/>
<text text-anchor="start" x="290.5" y="-303" font-family="Helvetica,sans-Serif" font-size="10.00" fill="#000000">neuroscience/neuron</text>
<text text-anchor="middle" x="336" y="-292" font-family="Helvetica,sans-Serif" font-size="10.00" fill="#000000">_or_neurite.h</text>
</a>
</g>
</g>
<!-- Node20&#45;&gt;Node64 -->
<g id="edge153" class="edge">
<title>Node20&#45;&gt;Node64</title>
<path fill="none" stroke="#191970" d="M1781.0837,-505.6181C1494.8332,-501.3975 312.4419,-482.331 286,-455 255.7149,-423.6966 270.6551,-397.763 286,-357 292.2608,-340.3686 305.823,-325.4269 317.2448,-315.0179"/>
<polygon fill="#191970" stroke="#191970" points="1781.2313,-509.1206 1791.2816,-505.7678 1781.334,-502.1213 1781.2313,-509.1206"/>
</g>
<!-- Node67 -->
<g id="node43" class="node">
<title>Node67</title>
<g id="a_node43"><a xlink:href="reduction__op_8cc.html" target="_top" xlink:title="core/operation/reduction\l_op.cc">
<polygon fill="#ffffff" stroke="#000000" points="3322.5,-207 3322.5,-237 3443.5,-237 3443.5,-207 3322.5,-207"/>
<text text-anchor="start" x="3330.5" y="-225" font-family="Helvetica,sans-Serif" font-size="10.00" fill="#000000">core/operation/reduction</text>
<text text-anchor="middle" x="3383" y="-214" font-family="Helvetica,sans-Serif" font-size="10.00" fill="#000000">_op.cc</text>
</a>
</g>
</g>
<!-- Node20&#45;&gt;Node67 -->
<g id="edge158" class="edge">
<title>Node20&#45;&gt;Node67</title>
<path fill="none" stroke="#191970" d="M1904.6229,-505.5706C2138.6777,-501.8308 2972.5947,-486.5439 3236,-455 3450.3991,-429.3248 3600.5929,-511.1025 3703,-321 3711.8528,-304.5661 3714.9862,-293.3099 3703,-279 3670.5698,-240.2827 3527.041,-227.8415 3443.6334,-223.86"/>
<polygon fill="#191970" stroke="#191970" points="1904.5292,-502.0715 1894.5859,-505.7297 1904.6402,-509.0706 1904.5292,-502.0715"/>
</g>
<!-- Node95 -->
<g id="node46" class="node">
<title>Node95</title>
<g id="a_node46"><a xlink:href="interaction__force_8h.html" target="_top" xlink:title="core/interaction_force.h">
<polygon fill="#ffffff" stroke="#000000" points="1827.5,-424.5 1827.5,-443.5 1946.5,-443.5 1946.5,-424.5 1827.5,-424.5"/>
<text text-anchor="middle" x="1887" y="-431.5" font-family="Helvetica,sans-Serif" font-size="10.00" fill="#000000">core/interaction_force.h</text>
</a>
</g>
</g>
<!-- Node20&#45;&gt;Node95 -->
<g id="edge118" class="edge">
<title>Node20&#45;&gt;Node95</title>
<path fill="none" stroke="#191970" d="M1857.359,-482.8403C1865.3776,-469.6278 1874.9427,-453.8672 1880.9944,-443.8957"/>
<polygon fill="#191970" stroke="#191970" points="1854.313,-481.1132 1852.1168,-491.478 1860.2972,-484.745 1854.313,-481.1132"/>
</g>
<!-- Node96 -->
<g id="node47" class="node">
<title>Node96</title>
<g id="a_node47"><a xlink:href="type_8h.html" target="_top" xlink:title="core/util/type.h">
<polygon fill="#ffffff" stroke="#000000" points="3145.5,-424.5 3145.5,-443.5 3226.5,-443.5 3226.5,-424.5 3145.5,-424.5"/>
<text text-anchor="middle" x="3186" y="-431.5" font-family="Helvetica,sans-Serif" font-size="10.00" fill="#000000">core/util/type.h</text>
</a>
</g>
</g>
<!-- Node20&#45;&gt;Node96 -->
<g id="edge124" class="edge">
<title>Node20&#45;&gt;Node96</title>
<path fill="none" stroke="#191970" d="M1905.1296,-503.146C2137.6897,-490.5916 2953.2748,-446.5634 3145.2924,-436.1975"/>
<polygon fill="#191970" stroke="#191970" points="1904.621,-499.6683 1894.8243,-503.7023 1904.9984,-506.6581 1904.621,-499.6683"/>
</g>
<!-- Node100 -->
<g id="node49" class="node">
<title>Node100</title>
<g id="a_node49"><a xlink:href="neurite__bifurcation__event_8h.html" target="_top" xlink:title="neuroscience/new_agent\l_event/neurite_bifurcation\l_event.h">
<polygon fill="#ffffff" stroke="#ff0000" points="0,-413.5 0,-454.5 128,-454.5 128,-413.5 0,-413.5"/>
<text text-anchor="start" x="8" y="-442.5" font-family="Helvetica,sans-Serif" font-size="10.00" fill="#000000">neuroscience/new_agent</text>
<text text-anchor="start" x="8" y="-431.5" font-family="Helvetica,sans-Serif" font-size="10.00" fill="#000000">_event/neurite_bifurcation</text>
<text text-anchor="middle" x="64" y="-420.5" font-family="Helvetica,sans-Serif" font-size="10.00" fill="#000000">_event.h</text>
</a>
</g>
</g>
<!-- Node20&#45;&gt;Node100 -->
<g id="edge155" class="edge">
<title>Node20&#45;&gt;Node100</title>
<path fill="none" stroke="#191970" d="M1780.8581,-505.4756C1494.1754,-500.6339 306.2938,-479.2647 142,-455 137.4218,-454.3238 132.7278,-453.473 128.0239,-452.5039"/>
<polygon fill="#191970" stroke="#191970" points="1781.0124,-508.9786 1791.0699,-505.6475 1781.1303,-501.9796 1781.0124,-508.9786"/>
</g>
<!-- Node102 -->
<g id="node50" class="node">
<title>Node102</title>
<g id="a_node50"><a xlink:href="debug_8h.html" target="_top" xlink:title="core/util/debug.h">
<polygon fill="#ffffff" stroke="#000000" points="4036.5,-424.5 4036.5,-443.5 4125.5,-443.5 4125.5,-424.5 4036.5,-424.5"/>
<text text-anchor="middle" x="4081" y="-431.5" font-family="Helvetica,sans-Serif" font-size="10.00" fill="#000000">core/util/debug.h</text>
</a>
</g>
</g>
<!-- Node20&#45;&gt;Node102 -->
<g id="edge159" class="edge">
<title>Node20&#45;&gt;Node102</title>
<path fill="none" stroke="#191970" d="M1905.0493,-506.2083C2238.3787,-504.4843 3809.3055,-494.3173 4022,-455 4034.7228,-452.6481 4048.3661,-447.9451 4059.3249,-443.5849"/>
<polygon fill="#191970" stroke="#191970" points="1904.6137,-502.7104 1894.6317,-506.2615 1904.6495,-509.7103 1904.6137,-502.7104"/>
</g>
<!-- Node22 -->
<g id="node3" class="node">
<title>Node22</title>
<g id="a_node3"><a xlink:href="simulation_8h.html" target="_top" xlink:title="core/simulation.h">
<polygon fill="#ffffff" stroke="#ff0000" points="1972.5,-357.5 1972.5,-376.5 2063.5,-376.5 2063.5,-357.5 1972.5,-357.5"/>
<text text-anchor="middle" x="2018" y="-364.5" font-family="Helvetica,sans-Serif" font-size="10.00" fill="#000000">core/simulation.h</text>
</a>
</g>
</g>
<!-- Node21&#45;&gt;Node22 -->
<g id="edge2" class="edge">
<title>Node21&#45;&gt;Node22</title>
<path fill="none" stroke="#191970" d="M590.0823,-431.3812C831.7982,-420.4829 1755.4645,-378.8371 1972.2618,-369.0622"/>
<polygon fill="#191970" stroke="#191970" points="589.591,-427.8997 579.7588,-431.8467 589.9064,-434.8926 589.591,-427.8997"/>
</g>
<!-- Node21&#45;&gt;Node56 -->
<g id="edge82" class="edge">
<title>Node21&#45;&gt;Node56</title>
<path fill="none" stroke="#191970" d="M535.6017,-414.5395C539.1562,-398.3724 545.5931,-375.1634 556,-357 579.3048,-316.3255 590.643,-308.5922 627,-279 693.4595,-224.9064 784.9586,-178.4292 825.3803,-159.0896"/>
<polygon fill="#191970" stroke="#191970" points="532.1476,-413.9621 533.5879,-424.4586 539.0076,-415.3549 532.1476,-413.9621"/>
</g>
<!-- Node36 -->
<g id="node26" class="node">
<title>Node36</title>
<g id="a_node26"><a xlink:href="interaction__force_8cc.html" target="_top" xlink:title="core/interaction_force.cc">
<polygon fill="#ffffff" stroke="#000000" points="622,-73 622,-92 746,-92 746,-73 622,-73"/>
<text text-anchor="middle" x="684" y="-80" font-family="Helvetica,sans-Serif" font-size="10.00" fill="#000000">core/interaction_force.cc</text>
</a>
</g>
</g>
<!-- Node21&#45;&gt;Node36 -->
<g id="edge84" class="edge">
<title>Node21&#45;&gt;Node36</title>
<path fill="none" stroke="#191970" d="M526.8561,-414.2981C523.5588,-398.6058 520.6392,-376.1689 525,-357 549.3853,-249.809 568.2342,-223.5459 632,-134 643.6449,-117.6471 660.7235,-101.8624 672.0928,-92.1737"/>
<polygon fill="#191970" stroke="#191970" points="523.5321,-415.4539 529.225,-424.3893 530.3469,-413.854 523.5321,-415.4539"/>
</g>
<!-- Node21&#45;&gt;Node91 -->
<g id="edge59" class="edge">
<title>Node21&#45;&gt;Node91</title>
<path fill="none" stroke="#191970" d="M576.9178,-421.8158C624.8176,-408.8228 699.694,-388.5122 743.5945,-376.6039"/>
<polygon fill="#191970" stroke="#191970" points="575.8617,-418.4757 567.1268,-424.4717 577.6943,-425.2316 575.8617,-418.4757"/>
</g>
<!-- Node31 -->
<g id="node34" class="node">
<title>Node31</title>
<g id="a_node34"><a xlink:href="neurite__element_8h.html" target="_top" xlink:title="neuroscience/neurite\l_element.h">
<polygon fill="#ffffff" stroke="#ff0000" points="320.5,-134.5 320.5,-164.5 427.5,-164.5 427.5,-134.5 320.5,-134.5"/>
<text text-anchor="start" x="328.5" y="-152.5" font-family="Helvetica,sans-Serif" font-size="10.00" fill="#000000">neuroscience/neurite</text>
<text text-anchor="middle" x="374" y="-141.5" font-family="Helvetica,sans-Serif" font-size="10.00" fill="#000000">_element.h</text>
</a>
</g>
</g>
<!-- Node21&#45;&gt;Node31 -->
<g id="edge83" class="edge">
<title>Node21&#45;&gt;Node31</title>
<path fill="none" stroke="#191970" d="M474.3789,-426.7743C429.6887,-419.2942 367.4143,-404.6568 319,-377 288.163,-359.3843 275.7356,-353.7501 262,-321 241.2119,-271.4345 245.0592,-244.2282 277,-201 289.2937,-184.3618 308.5907,-172.5762 326.7463,-164.5185"/>
<polygon fill="#191970" stroke="#191970" points="474.0594,-430.2676 484.4873,-428.3947 475.1674,-423.3559 474.0594,-430.2676"/>
</g>
<!-- Node94 -->
<g id="node37" class="node">
<title>Node94</title>
<g id="a_node37"><a xlink:href="random_8cc.html" target="_top" xlink:title="core/util/random.cc">
<polygon fill="#ffffff" stroke="#000000" points="328,-357.5 328,-376.5 428,-376.5 428,-357.5 328,-357.5"/>
<text text-anchor="middle" x="378" y="-364.5" font-family="Helvetica,sans-Serif" font-size="10.00" fill="#000000">core/util/random.cc</text>
</a>
</g>
</g>
<!-- Node21&#45;&gt;Node94 -->
<g id="edge85" class="edge">
<title>Node21&#45;&gt;Node94</title>
<path fill="none" stroke="#191970" d="M500.378,-420.2424C470.4515,-407.2224 426.3071,-388.0167 400.0235,-376.5817"/>
<polygon fill="#191970" stroke="#191970" points="499.3695,-423.6205 509.9356,-424.4005 502.1621,-417.2016 499.3695,-423.6205"/>
</g>
<!-- Node22&#45;&gt;Node72 -->
<g id="edge3" class="edge">
<title>Node22&#45;&gt;Node72</title>
<path fill="none" stroke="#191970" d="M1962.2519,-362.0594C1821.106,-349.5504 1451.1257,-316.7611 1314.0602,-304.6138"/>
<polygon fill="#191970" stroke="#191970" points="1962.1414,-365.5632 1972.4113,-362.9597 1962.7594,-358.5905 1962.1414,-365.5632"/>
</g>
<!-- Node55 -->
<g id="node8" class="node">
<title>Node55</title>
<g id="a_node8"><a xlink:href="resource__manager_8h.html" target="_top" xlink:title="core/resource_manager.h">
<polygon fill="#ffffff" stroke="#ff0000" points="2360.5,-212.5 2360.5,-231.5 2487.5,-231.5 2487.5,-212.5 2360.5,-212.5"/>
<text text-anchor="middle" x="2424" y="-219.5" font-family="Helvetica,sans-Serif" font-size="10.00" fill="#000000">core/resource_manager.h</text>
</a>
</g>
</g>
<!-- Node22&#45;&gt;Node55 -->
<g id="edge41" class="edge">
<title>Node22&#45;&gt;Node55</title>
<path fill="none" stroke="#191970" d="M2047.6601,-353.2134C2087.7872,-334.8628 2161.8529,-302.0512 2227,-279 2281.5432,-259.7008 2346.2188,-241.9357 2386.1865,-231.5332"/>
<polygon fill="#191970" stroke="#191970" points="2046.0766,-350.0891 2038.4506,-357.444 2048.9987,-356.4501 2046.0766,-350.0891"/>
</g>
<!-- Node48 -->
<g id="node10" class="node">
<title>Node48</title>
<g id="a_node10"><a xlink:href="agent_8cc.html" target="_top" xlink:title="core/agent/agent.cc">
<polygon fill="#ffffff" stroke="#000000" points="2638.5,-73 2638.5,-92 2741.5,-92 2741.5,-73 2638.5,-73"/>
<text text-anchor="middle" x="2690" y="-80" font-family="Helvetica,sans-Serif" font-size="10.00" fill="#000000">core/agent/agent.cc</text>
</a>
</g>
</g>
<!-- Node22&#45;&gt;Node48 -->
<g id="edge44" class="edge">
<title>Node22&#45;&gt;Node48</title>
<path fill="none" stroke="#191970" d="M2073.5317,-364.6837C2144.0723,-360.6342 2269.0183,-349.7392 2372,-321 2454.8025,-297.8922 2475.5396,-287.652 2549,-243 2596.2726,-214.2659 2610.7118,-207.6039 2646,-165 2665.3631,-141.6227 2679.9156,-108.3774 2686.3537,-92.1545"/>
<polygon fill="#191970" stroke="#191970" points="2073.3211,-361.1899 2063.528,-365.2328 2073.7048,-368.1794 2073.3211,-361.1899"/>
</g>
<!-- Node44 -->
<g id="node12" class="node">
<title>Node44</title>
<g id="a_node12"><a xlink:href="mechanical__forces__op__cuda_8cc.html" target="_top" xlink:title="core/operation/mechanical\l_forces_op_cuda.cc">
<polygon fill="#ffffff" stroke="#000000" points="2757.5,-.5 2757.5,-30.5 2888.5,-30.5 2888.5,-.5 2757.5,-.5"/>
<text text-anchor="start" x="2765.5" y="-18.5" font-family="Helvetica,sans-Serif" font-size="10.00" fill="#000000">core/operation/mechanical</text>
<text text-anchor="middle" x="2823" y="-7.5" font-family="Helvetica,sans-Serif" font-size="10.00" fill="#000000">_forces_op_cuda.cc</text>
</a>
</g>
</g>
<!-- Node22&#45;&gt;Node44 -->
<g id="edge53" class="edge">
<title>Node22&#45;&gt;Node44</title>
<path fill="none" stroke="#191970" d="M2073.9421,-363.9772C2153.6211,-358.8388 2295.0216,-346.3898 2339,-321 2359.5591,-309.1307 2351.7957,-291.4636 2372,-279 2440.3231,-236.8527 2472.5116,-267.3716 2549,-243 2592.9856,-228.9848 2601.6581,-219.3936 2644,-201 2713.584,-170.7722 2730.6247,-162.3367 2801,-134 2842.8843,-117.1352 2870.3457,-135.1561 2896,-98 2903.8282,-86.6621 2902.3403,-79.2322 2896,-67 2887.7206,-51.0266 2871.9558,-38.955 2857.1893,-30.5289"/>
<polygon fill="#191970" stroke="#191970" points="2073.359,-360.5068 2063.5975,-364.6256 2073.7969,-367.4931 2073.359,-360.5068"/>
</g>
<!-- Node35 -->
<g id="node13" class="node">
<title>Node35</title>
<g id="a_node13"><a xlink:href="simulation_8cc.html" target="_top" xlink:title="core/simulation.cc">
<polygon fill="#ffffff" stroke="#000000" points="1983,-6 1983,-25 2079,-25 2079,-6 1983,-6"/>
<text text-anchor="middle" x="2031" y="-13" font-family="Helvetica,sans-Serif" font-size="10.00" fill="#000000">core/simulation.cc</text>
</a>
</g>
</g>
<!-- Node22&#45;&gt;Node35 -->
<g id="edge55" class="edge">
<title>Node22&#45;&gt;Node35</title>
<path fill="none" stroke="#191970" d="M1962.2814,-366.5988C1664.9067,-364.33 277.0775,-352.0874 246,-321 150.8267,-225.7964 280.75,-101.0092 411,-67 566.1905,-26.4786 1729.9528,-17.2855 1982.6693,-15.7592"/>
<polygon fill="#191970" stroke="#191970" points="1962.3697,-370.0995 1972.3959,-366.6753 1962.4227,-363.0997 1962.3697,-370.0995"/>
</g>
<!-- Node52 -->
<g id="node15" class="node">
<title>Node52</title>
<g id="a_node15"><a xlink:href="diffusion__op_8h.html" target="_top" xlink:title="core/operation/diffusion_op.h">
<polygon fill="#ffffff" stroke="#ff0000" points="2078,-73 2078,-92 2220,-92 2220,-73 2078,-73"/>
<text text-anchor="middle" x="2149" y="-80" font-family="Helvetica,sans-Serif" font-size="10.00" fill="#000000">core/operation/diffusion_op.h</text>
</a>
</g>
</g>
<!-- Node22&#45;&gt;Node52 -->
<g id="edge50" class="edge">
<title>Node22&#45;&gt;Node52</title>
<path fill="none" stroke="#191970" d="M2008.0488,-348.2858C1999.4706,-329.3258 1990.4235,-299.891 2004,-279 2025.4671,-245.9672 2063.5329,-276.0328 2085,-243 2095.1717,-227.3481 2097.0037,-215.2953 2085,-201 2023.3608,-127.5932 1818.9251,-207.8769 1880,-134 1904.6542,-104.178 2006.6822,-91.4595 2077.74,-86.1508"/>
<polygon fill="#191970" stroke="#191970" points="2004.9592,-349.9351 2012.4945,-357.383 2011.2484,-346.8617 2004.9592,-349.9351"/>
</g>
<!-- Node53 -->
<g id="node16" class="node">
<title>Node53</title>
<g id="a_node16"><a xlink:href="mechanical__forces__op_8h.html" target="_top" xlink:title="core/operation/mechanical\l_forces_op.h">
<polygon fill="#ffffff" stroke="#ff0000" points="2943.5,-67.5 2943.5,-97.5 3074.5,-97.5 3074.5,-67.5 2943.5,-67.5"/>
<text text-anchor="start" x="2951.5" y="-85.5" font-family="Helvetica,sans-Serif" font-size="10.00" fill="#000000">core/operation/mechanical</text>
<text text-anchor="middle" x="3009" y="-74.5" font-family="Helvetica,sans-Serif" font-size="10.00" fill="#000000">_forces_op.h</text>
</a>
</g>
</g>
<!-- Node22&#45;&gt;Node53 -->
<g id="edge52" class="edge">
<title>Node22&#45;&gt;Node53</title>
<path fill="none" stroke="#191970" d="M2073.6984,-363.1778C2172.3954,-356.0361 2373.9918,-339.6876 2442,-321 2485.3417,-309.0904 2492.7816,-296.9273 2534,-279 2695.6292,-208.7018 2890.584,-129.917 2971.2442,-97.5809"/>
<polygon fill="#191970" stroke="#191970" points="2073.3409,-359.6943 2063.617,-363.9011 2073.8419,-366.6764 2073.3409,-359.6943"/>
</g>
<!-- Node54 -->
<g id="node17" class="node">
<title>Node54</title>
<g id="a_node17"><a xlink:href="resource__manager_8cc.html" target="_top" xlink:title="core/resource_manager.cc">
<polygon fill="#ffffff" stroke="#000000" points="2238,-73 2238,-92 2370,-92 2370,-73 2238,-73"/>
<text text-anchor="middle" x="2304" y="-80" font-family="Helvetica,sans-Serif" font-size="10.00" fill="#000000">core/resource_manager.cc</text>
</a>
</g>
</g>
<!-- Node22&#45;&gt;Node54 -->
<g id="edge54" class="edge">
<title>Node22&#45;&gt;Node54</title>
<path fill="none" stroke="#191970" d="M2024.7542,-347.7877C2031.92,-329.0558 2044.4869,-300.3499 2061,-279 2076.0415,-259.5527 2092.7268,-265.3362 2103,-243 2110.8,-226.0411 2114.568,-215.6501 2103,-201 2060.2447,-146.8531 1994.7553,-219.1469 1952,-165 1943.4617,-154.1868 1942.9071,-144.3511 1952,-134 1992.9665,-87.3649 2167.7854,-108.2886 2229,-98 2239.2274,-96.281 2250.1851,-94.1706 2260.4786,-92.0669"/>
<polygon fill="#191970" stroke="#191970" points="2021.4242,-346.7023 2021.254,-357.2958 2027.9932,-349.1206 2021.4242,-346.7023"/>
</g>
<!-- Node22&#45;&gt;Node56 -->
<g id="edge42" class="edge">
<title>Node22&#45;&gt;Node56</title>
<path fill="none" stroke="#191970" d="M1962.1351,-366.2264C1779.4055,-363.4037 1206.7878,-352.1423 1130,-321 1103.7311,-310.3463 1107.6495,-291.0689 1082,-279 991.5564,-236.4434 930.2491,-314.1068 860,-243 837.5057,-220.2311 841.157,-177.899 844.1743,-159.018"/>
<polygon fill="#191970" stroke="#191970" points="1962.2775,-369.7289 1972.3296,-366.3813 1962.384,-362.7297 1962.2775,-369.7289"/>
</g>
<!-- Node32 -->
<g id="node19" class="node">
<title>Node32</title>
<g id="a_node19"><a xlink:href="root_2adaptor_8h.html" target="_top" xlink:title="core/visualization\l/root/adaptor.h">
<polygon fill="#ffffff" stroke="#ff0000" points="420,-67.5 420,-97.5 512,-97.5 512,-67.5 420,-67.5"/>
<text text-anchor="start" x="428" y="-85.5" font-family="Helvetica,sans-Serif" font-size="10.00" fill="#000000">core/visualization</text>
<text text-anchor="middle" x="466" y="-74.5" font-family="Helvetica,sans-Serif" font-size="10.00" fill="#000000">/root/adaptor.h</text>
</a>
</g>
</g>
<!-- Node22&#45;&gt;Node32 -->
<g id="edge43" class="edge">
<title>Node22&#45;&gt;Node32</title>
<path fill="none" stroke="#191970" d="M1962.1628,-366.5887C1667.2467,-364.2868 303.1705,-351.9763 273,-321 234.8089,-281.7889 230.0961,-220.296 311,-134 326.0305,-117.9678 379.6818,-102.4701 419.6765,-92.7369"/>
<polygon fill="#191970" stroke="#191970" points="1962.1721,-370.0888 1972.1989,-366.6664 1962.2263,-363.089 1962.1721,-370.0888"/>
</g>
<!-- Node41 -->
<g id="node20" class="node">
<title>Node41</title>
<g id="a_node20"><a xlink:href="exporter_8cc.html" target="_top" xlink:title="core/exporter.cc">
<polygon fill="#ffffff" stroke="#000000" points="1960.5,-140 1960.5,-159 2047.5,-159 2047.5,-140 1960.5,-140"/>
<text text-anchor="middle" x="2004" y="-147" font-family="Helvetica,sans-Serif" font-size="10.00" fill="#000000">core/exporter.cc</text>
</a>
</g>
</g>
<!-- Node22&#45;&gt;Node41 -->
<g id="edge45" class="edge">
<title>Node22&#45;&gt;Node41</title>
<path fill="none" stroke="#191970" d="M2034.6289,-349.9739C2053.7592,-331.0182 2086.7037,-300.2576 2119,-279 2149.8847,-258.6715 2174.3084,-274.2946 2194,-243 2203.9414,-227.2008 2205.4509,-215.7418 2194,-201 2154.3246,-149.9219 2115.1907,-182.7602 2053,-165 2046.5654,-163.1624 2039.6954,-161.0712 2033.1974,-159.0326"/>
<polygon fill="#191970" stroke="#191970" points="2031.896,-347.7581 2027.3182,-357.3129 2036.8553,-352.6983 2031.896,-347.7581"/>
</g>
<!-- Node22&#45;&gt;Node61 -->
<g id="edge57" class="edge">
<title>Node22&#45;&gt;Node61</title>
<path fill="none" stroke="#191970" d="M2073.9398,-365.0142C2193.722,-360.3166 2471.4683,-346.9208 2562,-321 2601.3651,-309.7291 2604.93,-291.2546 2644,-279 2757.8319,-243.2958 2791.8229,-259.3298 2910,-243 3135.9799,-211.7739 3405.1172,-173.4759 3518.4394,-157.2995"/>
<polygon fill="#191970" stroke="#191970" points="2073.7349,-361.5194 2063.8775,-365.4029 2074.0052,-368.5142 2073.7349,-361.5194"/>
</g>
<!-- Node45 -->
<g id="node22" class="node">
<title>Node45</title>
<g id="a_node22"><a xlink:href="vtk__agents_8cc.html" target="_top" xlink:title="core/visualization\l/paraview/vtk_agents.cc">
<polygon fill="#ffffff" stroke="#000000" points="3189.5,-67.5 3189.5,-97.5 3312.5,-97.5 3312.5,-67.5 3189.5,-67.5"/>
<text text-anchor="start" x="3197.5" y="-85.5" font-family="Helvetica,sans-Serif" font-size="10.00" fill="#000000">core/visualization</text>
<text text-anchor="middle" x="3251" y="-74.5" font-family="Helvetica,sans-Serif" font-size="10.00" fill="#000000">/paraview/vtk_agents.cc</text>
</a>
</g>
</g>
<!-- Node22&#45;&gt;Node45 -->
<g id="edge58" class="edge">
<title>Node22&#45;&gt;Node45</title>
<path fill="none" stroke="#191970" d="M2073.8468,-365.2646C2183.8702,-361.2637 2424.6903,-349.4606 2502,-321 2532.5466,-309.7546 2532.401,-292.5445 2562,-279 2609.0001,-257.4928 2963.4804,-179.8113 3013,-165 3083.3878,-143.947 3163.8897,-114.9963 3210.9174,-97.5804"/>
<polygon fill="#191970" stroke="#191970" points="2073.487,-361.7751 2063.6175,-365.6277 2073.7354,-368.7707 2073.487,-361.7751"/>
</g>
<!-- Node76 -->
<g id="node25" class="node">
<title>Node76</title>
<g id="a_node25"><a xlink:href="timing__aggregator_8h.html" target="_top" xlink:title="core/util/timing_aggregator.h">
<polygon fill="#ffffff" stroke="#ff0000" points="786,-290.5 786,-309.5 926,-309.5 926,-290.5 786,-290.5"/>
<text text-anchor="middle" x="856" y="-297.5" font-family="Helvetica,sans-Serif" font-size="10.00" fill="#000000">core/util/timing_aggregator.h</text>
</a>
</g>
</g>
<!-- Node22&#45;&gt;Node76 -->
<g id="edge40" class="edge">
<title>Node22&#45;&gt;Node76</title>
<path fill="none" stroke="#191970" d="M1962.4536,-366.0986C1810.6109,-363.2785 1375.9094,-352.823 1016,-321 983.9068,-318.1623 948.3597,-313.6364 918.9382,-309.5116"/>
<polygon fill="#191970" stroke="#191970" points="1962.4058,-369.5982 1972.4679,-366.2811 1962.5334,-362.5994 1962.4058,-369.5982"/>
</g>
<!-- Node22&#45;&gt;Node36 -->
<g id="edge46" class="edge">
<title>Node22&#45;&gt;Node36</title>
<path fill="none" stroke="#191970" d="M1962.2402,-365.7286C1773.6076,-361.225 1166.4272,-345.0019 1082,-321 1044.8784,-310.4467 1042.1377,-292.5442 1006,-279 934.9024,-252.353 905.1533,-280.265 839,-243 780.928,-210.2874 782.5738,-181.6796 736,-134 721.6169,-119.2754 704.6139,-102.5634 694.0666,-92.2757"/>
<polygon fill="#191970" stroke="#191970" points="1962.4035,-369.2334 1972.4836,-365.9715 1962.5694,-362.2354 1962.4035,-369.2334"/>
</g>
<!-- Node65 -->
<g id="node27" class="node">
<title>Node65</title>
<g id="a_node27"><a xlink:href="bound__space__op_8h.html" target="_top" xlink:title="core/operation/bound\l_space_op.h">
<polygon fill="#ffffff" stroke="#ff0000" points="2962.5,-285 2962.5,-315 3069.5,-315 3069.5,-285 2962.5,-285"/>
<text text-anchor="start" x="2970.5" y="-303" font-family="Helvetica,sans-Serif" font-size="10.00" fill="#000000">core/operation/bound</text>
<text text-anchor="middle" x="3016" y="-292" font-family="Helvetica,sans-Serif" font-size="10.00" fill="#000000">_space_op.h</text>
</a>
</g>
</g>
<!-- Node22&#45;&gt;Node65 -->
<g id="edge47" class="edge">
<title>Node22&#45;&gt;Node65</title>
<path fill="none" stroke="#191970" d="M2073.8183,-363.958C2197.8195,-357.1113 2505.5996,-339.6271 2763,-321 2831.7969,-316.0214 2911.0306,-309.2818 2962.2294,-304.7948"/>
<polygon fill="#191970" stroke="#191970" points="2073.5935,-360.4649 2063.8013,-364.51 2073.9788,-367.4543 2073.5935,-360.4649"/>
</g>
<!-- Node42 -->
<g id="node28" class="node">
<title>Node42</title>
<g id="a_node28"><a xlink:href="dividing__cell__op_8h.html" target="_top" xlink:title="core/operation/dividing\l_cell_op.h">
<polygon fill="#ffffff" stroke="#ff0000" points="1962,-207 1962,-237 2076,-237 2076,-207 1962,-207"/>
<text text-anchor="start" x="1970" y="-225" font-family="Helvetica,sans-Serif" font-size="10.00" fill="#000000">core/operation/dividing</text>
<text text-anchor="middle" x="2019" y="-214" font-family="Helvetica,sans-Serif" font-size="10.00" fill="#000000">_cell_op.h</text>
</a>
</g>
</g>
<!-- Node22&#45;&gt;Node42 -->
<g id="edge51" class="edge">
<title>Node22&#45;&gt;Node42</title>
<path fill="none" stroke="#191970" d="M1992.5506,-351.4967C1982.2863,-343.7437 1971.5697,-333.3631 1966,-321 1958.3327,-303.9807 1959.1712,-296.3727 1966,-279 1972.6241,-262.1481 1986.8349,-247.3208 1998.8752,-237.0158"/>
<polygon fill="#191970" stroke="#191970" points="1990.7451,-354.5052 2000.9433,-357.377 1994.7618,-348.7723 1990.7451,-354.5052"/>
</g>
<!-- Node70 -->
<g id="node29" class="node">
<title>Node70</title>
<g id="a_node29"><a xlink:href="helper_8cc.html" target="_top" xlink:title="core/visualization\l/paraview/helper.cc">
<polygon fill="#ffffff" stroke="#000000" points="2652.5,-285 2652.5,-315 2753.5,-315 2753.5,-285 2652.5,-285"/>
<text text-anchor="start" x="2660.5" y="-303" font-family="Helvetica,sans-Serif" font-size="10.00" fill="#000000">core/visualization</text>
<text text-anchor="middle" x="2703" y="-292" font-family="Helvetica,sans-Serif" font-size="10.00" fill="#000000">/paraview/helper.cc</text>
</a>
</g>
</g>
<!-- Node22&#45;&gt;Node70 -->
<g id="edge56" class="edge">
<title>Node22&#45;&gt;Node70</title>
<path fill="none" stroke="#191970" d="M2073.8341,-364.5643C2205.1854,-358.5584 2530.7426,-341.9922 2638,-321 2645.6812,-319.4966 2653.7222,-317.3726 2661.4269,-315.0479"/>
<polygon fill="#191970" stroke="#191970" points="2073.4291,-361.079 2063.5981,-365.0289 2073.7466,-368.0718 2073.4291,-361.079"/>
</g>
<!-- Node27 -->
<g id="node5" class="node">
<title>Node27</title>
<g id="a_node5"><a xlink:href="chemotaxis_8h.html" target="_top" xlink:title="core/behavior/chemotaxis.h">
<polygon fill="#ffffff" stroke="#000000" points="1416.5,-212.5 1416.5,-231.5 1553.5,-231.5 1553.5,-212.5 1416.5,-212.5"/>
<text text-anchor="middle" x="1485" y="-219.5" font-family="Helvetica,sans-Serif" font-size="10.00" fill="#000000">core/behavior/chemotaxis.h</text>
</a>
</g>
</g>
<!-- Node72&#45;&gt;Node27 -->
<g id="edge4" class="edge">
<title>Node72&#45;&gt;Node27</title>
<path fill="none" stroke="#191970" d="M1298.9589,-287.0727C1343.6905,-271.4267 1417.955,-245.4507 1457.7813,-231.5204"/>
<polygon fill="#191970" stroke="#191970" points="1297.6278,-283.8302 1289.3442,-290.4357 1299.939,-290.4377 1297.6278,-283.8302"/>
</g>
<!-- Node29 -->
<g id="node7" class="node">
<title>Node29</title>
<g id="a_node7"><a xlink:href="secretion_8h.html" target="_top" xlink:title="core/behavior/secretion.h">
<polygon fill="#ffffff" stroke="#000000" points="1272,-212.5 1272,-231.5 1398,-231.5 1398,-212.5 1272,-212.5"/>
<text text-anchor="middle" x="1335" y="-219.5" font-family="Helvetica,sans-Serif" font-size="10.00" fill="#000000">core/behavior/secretion.h</text>
</a>
</g>
</g>
<!-- Node72&#45;&gt;Node29 -->
<g id="edge6" class="edge">
<title>Node72&#45;&gt;Node29</title>
<path fill="none" stroke="#191970" d="M1277.9616,-282.9451C1292.6808,-267.2178 1314.0063,-244.4316 1325.9756,-231.6426"/>
<polygon fill="#191970" stroke="#191970" points="1275.229,-280.7428 1270.9512,-290.4357 1280.3399,-285.5261 1275.229,-280.7428"/>
</g>
<!-- Node72&#45;&gt;Node55 -->
<g id="edge8" class="edge">
<title>Node72&#45;&gt;Node55</title>
<path fill="none" stroke="#191970" d="M1324.287,-295.8189C1525.4984,-282.3125 2156.7857,-239.9369 2360.1735,-226.2844"/>
<polygon fill="#191970" stroke="#191970" points="1323.9292,-292.335 1314.1861,-296.497 1324.3981,-299.3193 1323.9292,-292.335"/>
</g>
<!-- Node72&#45;&gt;Node52 -->
<g id="edge37" class="edge">
<title>Node72&#45;&gt;Node52</title>
<path fill="none" stroke="#191970" d="M1255.5404,-280.7892C1249.4488,-258.6959 1243.8235,-222.6901 1263,-201 1316.9014,-140.0336 1877.258,-99.4207 2077.9712,-86.7361"/>
<polygon fill="#191970" stroke="#191970" points="1252.2032,-281.845 1258.4617,-290.3938 1258.9002,-279.808 1252.2032,-281.845"/>
</g>
<!-- Node72&#45;&gt;Node56 -->
<g id="edge36" class="edge">
<title>Node72&#45;&gt;Node56</title>
<path fill="none" stroke="#191970" d="M1225.953,-287.2903C1216.3136,-284.2337 1205.838,-281.2159 1196,-279 1080.0452,-252.883 1036.2074,-298.3084 931,-243 892.9407,-222.9919 863.3343,-178.8132 851.5469,-159.2035"/>
<polygon fill="#191970" stroke="#191970" points="1225.0414,-290.6745 1235.634,-290.4575 1227.218,-284.0215 1225.0414,-290.6745"/>
</g>
<!-- Node73 -->
<g id="node23" class="node">
<title>Node73</title>
<g id="a_node23"><a xlink:href="substance__initializers_8h.html" target="_top" xlink:title="core/substance_initializers.h">
<polygon fill="#ffffff" stroke="#000000" points="1076,-212.5 1076,-231.5 1216,-231.5 1216,-212.5 1076,-212.5"/>
<text text-anchor="middle" x="1146" y="-219.5" font-family="Helvetica,sans-Serif" font-size="10.00" fill="#000000">core/substance_initializers.h</text>
</a>
</g>
</g>
<!-- Node72&#45;&gt;Node73 -->
<g id="edge38" class="edge">
<title>Node72&#45;&gt;Node73</title>
<path fill="none" stroke="#191970" d="M1239.4777,-284.8557C1216.0703,-269.1163 1180.1451,-244.9596 1160.3402,-231.6426"/>
<polygon fill="#191970" stroke="#191970" points="1237.5247,-287.7601 1247.7761,-290.4357 1241.4307,-281.9512 1237.5247,-287.7601"/>
</g>
<!-- Node74 -->
<g id="node24" class="node">
<title>Node74</title>
<g id="a_node24"><a xlink:href="vtk__diffusion__grid_8h.html" target="_top" xlink:title="core/visualization\l/paraview/vtk_diffusion\l_grid.h">
<polygon fill="#ffffff" stroke="#ff0000" points="940.5,-201.5 940.5,-242.5 1057.5,-242.5 1057.5,-201.5 940.5,-201.5"/>
<text text-anchor="start" x="948.5" y="-230.5" font-family="Helvetica,sans-Serif" font-size="10.00" fill="#000000">core/visualization</text>
<text text-anchor="start" x="948.5" y="-219.5" font-family="Helvetica,sans-Serif" font-size="10.00" fill="#000000">/paraview/vtk_diffusion</text>
<text text-anchor="middle" x="999" y="-208.5" font-family="Helvetica,sans-Serif" font-size="10.00" fill="#000000">_grid.h</text>
</a>
</g>
</g>
<!-- Node72&#45;&gt;Node74 -->
<g id="edge39" class="edge">
<title>Node72&#45;&gt;Node74</title>
<path fill="none" stroke="#191970" d="M1223.0854,-287.3626C1214.2023,-284.549 1204.79,-281.624 1196,-279 1138.9631,-261.9733 1124.1089,-259.7835 1067,-243 1063.9179,-242.0942 1060.7604,-241.1558 1057.5746,-240.2007"/>
<polygon fill="#191970" stroke="#191970" points="1222.2378,-290.7659 1232.8285,-290.4699 1224.3648,-284.0968 1222.2378,-290.7659"/>
</g>
<!-- Node25 -->
<g id="node6" class="node">
<title>Node25</title>
<g id="a_node6"><a xlink:href="biodynamo_8h.html" target="_top" xlink:title="biodynamo.h">
<polygon fill="#ffffff" stroke="#000000" points="1677,-73 1677,-92 1749,-92 1749,-73 1677,-73"/>
<text text-anchor="middle" x="1713" y="-80" font-family="Helvetica,sans-Serif" font-size="10.00" fill="#000000">biodynamo.h</text>
</a>
</g>
</g>
<!-- Node27&#45;&gt;Node25 -->
<g id="edge5" class="edge">
<title>Node27&#45;&gt;Node25</title>
<path fill="none" stroke="#191970" d="M1497.6018,-204.2575C1512.4118,-184.5818 1538.7122,-153.1028 1568,-134 1601.7869,-111.9627 1646.1636,-98.0048 1676.8824,-90.2624"/>
<polygon fill="#191970" stroke="#191970" points="1494.7346,-202.2487 1491.6363,-212.3803 1500.3766,-206.3922 1494.7346,-202.2487"/>
</g>
<!-- Node29&#45;&gt;Node25 -->
<g id="edge7" class="edge">
<title>Node29&#45;&gt;Node25</title>
<path fill="none" stroke="#191970" d="M1362.6346,-207.7351C1399.5957,-189.0451 1467.4985,-156.0609 1528,-134 1578.5851,-115.555 1638.973,-99.8862 1676.6633,-90.8317"/>
<polygon fill="#191970" stroke="#191970" points="1360.8203,-204.7312 1353.4945,-212.3852 1363.9944,-210.9702 1360.8203,-204.7312"/>
</g>
<!-- Node55&#45;&gt;Node25 -->
<g id="edge23" class="edge">
<title>Node55&#45;&gt;Node25</title>
<path fill="none" stroke="#191970" d="M2364.5111,-210.4212C2313.947,-200.082 2239.6424,-183.7107 2176,-165 2137.0201,-153.54 2129.4567,-143.6919 2090,-134 1966.9881,-103.784 1816.7432,-89.9396 1749.0757,-84.8937"/>
<polygon fill="#191970" stroke="#191970" points="2364.116,-213.9123 2374.6124,-212.471 2365.5082,-207.0521 2364.116,-213.9123"/>
</g>
<!-- Node55&#45;&gt;Node49 -->
<g id="edge9" class="edge">
<title>Node55&#45;&gt;Node49</title>
<path fill="none" stroke="#191970" d="M2438.9216,-204.5513C2451.1105,-190.2982 2467.885,-170.6829 2477.7709,-159.1228"/>
<polygon fill="#191970" stroke="#191970" points="2436.2009,-202.3476 2432.3616,-212.2223 2441.5209,-206.8971 2436.2009,-202.3476"/>
</g>
<!-- Node55&#45;&gt;Node48 -->
<g id="edge26" class="edge">
<title>Node55&#45;&gt;Node48</title>
<path fill="none" stroke="#191970" d="M2465.7678,-209.2616C2496.361,-199.1666 2538.4035,-183.6764 2573,-165 2593.7318,-153.8083 2596.775,-147.6183 2616,-134 2636.819,-119.2525 2661.1267,-102.4064 2676.0402,-92.1129"/>
<polygon fill="#191970" stroke="#191970" points="2464.2915,-206.0608 2455.8589,-212.4751 2466.4509,-212.7194 2464.2915,-206.0608"/>
</g>
<!-- Node55&#45;&gt;Node50 -->
<g id="edge27" class="edge">
<title>Node55&#45;&gt;Node50</title>
<path fill="none" stroke="#191970" d="M2467.1818,-209.5001C2504.637,-198.4494 2560.1954,-181.5561 2608,-165 2641.6229,-153.3554 2732.4327,-118.0187 2784.6486,-97.5664"/>
<polygon fill="#191970" stroke="#191970" points="2465.7267,-206.2796 2457.1191,-212.4569 2467.7002,-212.9957 2465.7267,-206.2796"/>
</g>
<!-- Node55&#45;&gt;Node44 -->
<g id="edge31" class="edge">
<title>Node55&#45;&gt;Node44</title>
<path fill="none" stroke="#191970" d="M2407.8522,-204.3769C2393.4181,-186.374 2376.2227,-157.7691 2388,-134 2409.8245,-89.9536 2430.7051,-86.099 2476,-67 2525.4541,-46.1473 2671.2902,-29.5968 2757.3536,-21.3087"/>
<polygon fill="#191970" stroke="#191970" points="2405.4361,-206.9389 2414.5771,-212.2953 2410.7716,-202.4075 2405.4361,-206.9389"/>
</g>
<!-- Node55&#45;&gt;Node35 -->
<g id="edge33" class="edge">
<title>Node55&#45;&gt;Node35</title>
<path fill="none" stroke="#191970" d="M2379.3282,-209.8519C2368.4326,-206.9224 2356.8036,-203.8236 2346,-201 2283.0082,-184.5364 2262.1569,-194.271 2204,-165 2184.531,-155.201 2184.9167,-144.8269 2166,-134 2126.0901,-111.1578 2102.7318,-129.2527 2069,-98 2047.0217,-77.637 2036.7354,-42.0558 2032.8924,-25.0628"/>
<polygon fill="#191970" stroke="#191970" points="2378.5173,-213.2582 2389.0836,-212.482 2380.3395,-206.4995 2378.5173,-213.2582"/>
</g>
<!-- Node51 -->
<g id="node14" class="node">
<title>Node51</title>
<g id="a_node14"><a xlink:href="in__place__exec__ctxt_8cc.html" target="_top" xlink:title="core/execution_context\l/in_place_exec_ctxt.cc">
<polygon fill="#ffffff" stroke="#000000" points="2502,-67.5 2502,-97.5 2620,-97.5 2620,-67.5 2502,-67.5"/>
<text text-anchor="start" x="2510" y="-85.5" font-family="Helvetica,sans-Serif" font-size="10.00" fill="#000000">core/execution_context</text>
<text text-anchor="middle" x="2561" y="-74.5" font-family="Helvetica,sans-Serif" font-size="10.00" fill="#000000">/in_place_exec_ctxt.cc</text>
</a>
</g>
</g>
<!-- Node55&#45;&gt;Node51 -->
<g id="edge28" class="edge">
<title>Node55&#45;&gt;Node51</title>
<path fill="none" stroke="#191970" d="M2410.5125,-203.9684C2398.0805,-184.9615 2383.6904,-154.9315 2399,-134 2411.5007,-116.9089 2460.8894,-102.7965 2501.8833,-93.6937"/>
<polygon fill="#191970" stroke="#191970" points="2407.7389,-206.1105 2416.3194,-212.3254 2413.4874,-202.116 2407.7389,-206.1105"/>
</g>
<!-- Node55&#45;&gt;Node52 -->
<g id="edge30" class="edge">
<title>Node55&#45;&gt;Node52</title>
<path fill="none" stroke="#191970" d="M2380.7986,-209.5919C2337.5953,-196.8443 2274.439,-177.1907 2252,-165 2213.951,-144.3287 2175.9426,-109.2125 2158.6538,-92.2473"/>
<polygon fill="#191970" stroke="#191970" points="2379.9218,-212.9821 2390.5027,-212.4383 2381.8921,-206.2651 2379.9218,-212.9821"/>
</g>
<!-- Node55&#45;&gt;Node54 -->
<g id="edge32" class="edge">
<title>Node55&#45;&gt;Node54</title>
<path fill="none" stroke="#191970" d="M2387.6921,-208.3484C2367.4289,-199.0045 2343.2675,-184.711 2328,-165 2310.8274,-142.8295 2305.9337,-108.7291 2304.5456,-92.1776"/>
<polygon fill="#191970" stroke="#191970" points="2386.4114,-211.6084 2396.9753,-212.4172 2389.2215,-205.1972 2386.4114,-211.6084"/>
</g>
<!-- Node55&#45;&gt;Node56 -->
<g id="edge21" class="edge">
<title>Node55&#45;&gt;Node56</title>
<path fill="none" stroke="#191970" d="M2350.0129,-216.9824C2281.3534,-212.4292 2176.3008,-205.7249 2085,-201 1630.2704,-177.4673 1081.2186,-157.6669 904.0775,-151.4942"/>
<polygon fill="#191970" stroke="#191970" points="2350.082,-220.4946 2360.2923,-217.666 2350.5466,-213.5101 2350.082,-220.4946"/>
</g>
<!-- Node55&#45;&gt;Node32 -->
<g id="edge24" class="edge">
<title>Node55&#45;&gt;Node32</title>
<path fill="none" stroke="#191970" d="M2362.2382,-210.6364C2344.7173,-207.4624 2325.6165,-204.049 2308,-201 2211.2375,-184.2528 2178.0408,-208.5002 2090,-165 2071.9589,-156.0861 2075.6155,-141.642 2057,-134 1982.7647,-103.525 693.0777,-103.2116 613,-98 579.1973,-95.8001 541.1708,-91.7478 512.2635,-88.3384"/>
<polygon fill="#191970" stroke="#191970" points="2361.884,-214.1293 2372.3485,-212.4731 2363.1352,-207.242 2361.884,-214.1293"/>
</g>
<!-- Node55&#45;&gt;Node41 -->
<g id="edge29" class="edge">
<title>Node55&#45;&gt;Node41</title>
<path fill="none" stroke="#191970" d="M2363.2779,-210.608C2345.4852,-207.3781 2325.9814,-203.9425 2308,-201 2198.9525,-183.1555 2170.2239,-187.3016 2062,-165 2053.8333,-163.3171 2045.1068,-161.1723 2036.9678,-159.0187"/>
<polygon fill="#191970" stroke="#191970" points="2363.0656,-214.1271 2373.5318,-212.4807 2364.3233,-207.241 2363.0656,-214.1271"/>
</g>
<!-- Node55&#45;&gt;Node61 -->
<g id="edge34" class="edge">
<title>Node55&#45;&gt;Node61</title>
<path fill="none" stroke="#191970" d="M2497.5459,-217.7437C2654.8846,-208.5839 3035.8157,-186.1176 3355,-165 3410.6542,-161.3179 3474.2735,-156.7537 3518.3599,-153.5345"/>
<polygon fill="#191970" stroke="#191970" points="2497.2885,-214.2527 2487.5087,-218.3277 2497.6951,-221.2409 2497.2885,-214.2527"/>
</g>
<!-- Node49&#45;&gt;Node25 -->
<g id="edge10" class="edge">
<title>Node49&#45;&gt;Node25</title>
<path fill="none" stroke="#191970" d="M2397.8687,-141.8612C2228.7675,-127.2043 1865.2539,-95.6967 1749.3178,-85.6479"/>
<polygon fill="#191970" stroke="#191970" points="2397.7201,-145.3613 2407.985,-142.738 2398.3246,-138.3875 2397.7201,-145.3613"/>
</g>
<!-- Node49&#45;&gt;Node48 -->
<g id="edge11" class="edge">
<title>Node49&#45;&gt;Node48</title>
<path fill="none" stroke="#191970" d="M2524.8256,-136.7484C2564.4648,-123.7297 2625.1005,-103.815 2660.826,-92.0817"/>
<polygon fill="#191970" stroke="#191970" points="2523.6368,-133.4549 2515.2282,-139.9005 2525.8211,-140.1054 2523.6368,-133.4549"/>
</g>
<!-- Node49&#45;&gt;Node50 -->
<g id="edge12" class="edge">
<title>Node49&#45;&gt;Node50</title>
<path fill="none" stroke="#191970" d="M2546.9137,-138.0222C2600.67,-127.8071 2681.1216,-112.3102 2751,-98 2753.7558,-97.4356 2756.5697,-96.8538 2759.4113,-96.2617"/>
<polygon fill="#191970" stroke="#191970" points="2546.0347,-134.6265 2536.8626,-139.9297 2547.3399,-141.5037 2546.0347,-134.6265"/>
</g>
<!-- Node49&#45;&gt;Node44 -->
<g id="edge18" class="edge">
<title>Node49&#45;&gt;Node44</title>
<path fill="none" stroke="#191970" d="M2481.4886,-129.8205C2478.4779,-111.1751 2477.5053,-83.6219 2493,-67 2510.7675,-47.9399 2666.2783,-30.2557 2757.3403,-21.4121"/>
<polygon fill="#191970" stroke="#191970" points="2478.0966,-130.7131 2483.4425,-139.8604 2484.9677,-129.3759 2478.0966,-130.7131"/>
</g>
<!-- Node49&#45;&gt;Node35 -->
<g id="edge20" class="edge">
<title>Node49&#45;&gt;Node35</title>
<path fill="none" stroke="#191970" d="M2469.8802,-132.6784C2450.3256,-113.4015 2415.43,-82.4828 2379,-67 2325.8826,-44.425 2161.5158,-27.1128 2079.1184,-19.5973"/>
<polygon fill="#191970" stroke="#191970" points="2467.5266,-135.2757 2477.053,-139.9124 2472.4973,-130.347 2467.5266,-135.2757"/>
</g>
<!-- Node49&#45;&gt;Node51 -->
<g id="edge15" class="edge">
<title>Node49&#45;&gt;Node51</title>
<path fill="none" stroke="#191970" d="M2504.4823,-132.9892C2516.6274,-122.1395 2532.3918,-108.0566 2544.1846,-97.5218"/>
<polygon fill="#191970" stroke="#191970" points="2501.8716,-130.6282 2496.7457,-139.9005 2506.5351,-135.8485 2501.8716,-130.6282"/>
</g>
<!-- Node49&#45;&gt;Node52 -->
<g id="edge16" class="edge">
<title>Node49&#45;&gt;Node52</title>
<path fill="none" stroke="#191970" d="M2427.9506,-137.959C2362.6802,-124.9824 2257.8877,-104.1483 2197.0332,-92.0496"/>
<polygon fill="#191970" stroke="#191970" points="2427.5835,-141.4545 2438.074,-139.9717 2428.9485,-134.5888 2427.5835,-141.4545"/>
</g>
<!-- Node49&#45;&gt;Node53 -->
<g id="edge17" class="edge">
<title>Node49&#45;&gt;Node53</title>
<path fill="none" stroke="#191970" d="M2574.0237,-138.7367C2657.0739,-128.5121 2785.0439,-112.5779 2896,-98 2911.3138,-95.988 2927.786,-93.7631 2943.2891,-91.6419"/>
<polygon fill="#191970" stroke="#191970" points="2573.3686,-135.2908 2563.8708,-139.9858 2574.2233,-142.2385 2573.3686,-135.2908"/>
</g>
<!-- Node49&#45;&gt;Node54 -->
<g id="edge19" class="edge">
<title>Node49&#45;&gt;Node54</title>
<path fill="none" stroke="#191970" d="M2450.4583,-136.416C2415.0818,-123.3928 2361.6304,-103.7156 2330.0278,-92.0817"/>
<polygon fill="#191970" stroke="#191970" points="2449.3304,-139.7303 2459.9238,-139.9005 2451.7487,-133.1613 2449.3304,-139.7303"/>
</g>
<!-- Node50&#45;&gt;Node44 -->
<g id="edge13" class="edge">
<title>Node50&#45;&gt;Node44</title>
<path fill="none" stroke="#191970" d="M2823,-57.0249C2823,-48.128 2823,-38.4287 2823,-30.6432"/>
<polygon fill="#191970" stroke="#191970" points="2819.5001,-57.2966 2823,-67.2967 2826.5001,-57.2967 2819.5001,-57.2966"/>
</g>
<!-- Node50&#45;&gt;Node35 -->
<g id="edge14" class="edge">
<title>Node50&#45;&gt;Node35</title>
<path fill="none" stroke="#191970" d="M2749.5716,-66.9167C2492.0769,-30.8676 2194.0114,-19.7536 2079.2769,-16.611"/>
<polygon fill="#191970" stroke="#191970" points="2749.0922,-70.3836 2759.484,-68.3197 2750.0732,-63.4527 2749.0922,-70.3836"/>
</g>
<!-- Node56&#45;&gt;Node25 -->
<g id="edge22" class="edge">
<title>Node56&#45;&gt;Node25</title>
<path fill="none" stroke="#191970" d="M914.2996,-144.2219C1088.4531,-130.7637 1544.6496,-95.5098 1676.702,-85.305"/>
<polygon fill="#191970" stroke="#191970" points="913.9331,-140.7397 904.2326,-144.9999 914.4725,-147.7189 913.9331,-140.7397"/>
</g>
<!-- Node32&#45;&gt;Node35 -->
<g id="edge25" class="edge">
<title>Node32&#45;&gt;Node35</title>
<path fill="none" stroke="#191970" d="M522.4294,-75.6325C549.7446,-72.5429 583.0381,-69.1212 613,-67 1149.6081,-29.0101 1802.5492,-18.3588 1982.8869,-16.0485"/>
<polygon fill="#191970" stroke="#191970" points="521.8089,-72.1806 512.2727,-76.7969 522.6063,-79.135 521.8089,-72.1806"/>
</g>
<!-- Node61&#45;&gt;Node45 -->
<g id="edge35" class="edge">
<title>Node61&#45;&gt;Node45</title>
<path fill="none" stroke="#191970" d="M3508.4358,-134.9544C3506.9435,-134.6318 3505.4632,-134.3132 3504,-134 3438.801,-120.0425 3363.9513,-104.9175 3312.6789,-94.6941"/>
<polygon fill="#191970" stroke="#191970" points="3507.8928,-138.4182 3518.4091,-137.1302 3509.3849,-131.5791 3507.8928,-138.4182"/>
</g>
<!-- Node65&#45;&gt;Node44 -->
<g id="edge49" class="edge">
<title>Node65&#45;&gt;Node44</title>
<path fill="none" stroke="#191970" d="M3035.1695,-276.7307C3070.0948,-231.394 3135.909,-130.1524 3084,-67 3059.7314,-37.4749 2957.7585,-24.6008 2888.6934,-19.1883"/>
<polygon fill="#191970" stroke="#191970" points="3032.2736,-274.7511 3028.8415,-284.7747 3037.7753,-279.0792 3032.2736,-274.7511"/>
</g>
<!-- Node65&#45;&gt;Node53 -->
<g id="edge48" class="edge">
<title>Node65&#45;&gt;Node53</title>
<path fill="none" stroke="#191970" d="M3015.1784,-274.4707C3013.7101,-228.848 3010.6785,-134.6527 3009.4917,-97.7773"/>
<polygon fill="#191970" stroke="#191970" points="3011.6878,-274.8236 3015.5078,-284.7058 3018.6842,-274.5984 3011.6878,-274.8236"/>
</g>
<!-- Node91&#45;&gt;Node72 -->
<g id="edge75" class="edge">
<title>Node91&#45;&gt;Node72</title>
<path fill="none" stroke="#191970" d="M831.0285,-359.7828C923.8963,-346.9005 1117.1491,-320.0932 1209.9979,-307.2135"/>
<polygon fill="#191970" stroke="#191970" points="830.4424,-356.3305 821.0181,-361.1714 831.4042,-363.2641 830.4424,-356.3305"/>
</g>
<!-- Node91&#45;&gt;Node53 -->
<g id="edge81" class="edge">
<title>Node91&#45;&gt;Node53</title>
<path fill="none" stroke="#191970" d="M831.5021,-366.2264C989.5106,-363.5912 1474.4071,-353.2577 1875,-321 2032.0458,-308.3539 2070.4874,-297.0863 2227,-279 2370.0508,-262.4693 2413.0326,-290.4306 2549,-243 2582.1838,-231.4242 2584.4108,-216.4039 2616,-201 2694.6012,-162.6716 2717.3316,-159.4324 2801,-134 2848.1614,-119.6645 2902.2239,-106.3723 2943.4099,-96.8837"/>
<polygon fill="#191970" stroke="#191970" points="831.0745,-362.7329 821.1331,-366.3961 831.1891,-369.7319 831.0745,-362.7329"/>
</g>
<!-- Node91&#45;&gt;Node32 -->
<g id="edge77" class="edge">
<title>Node91&#45;&gt;Node32</title>
<path fill="none" stroke="#191970" d="M726.5568,-364.7169C603.2087,-359.0094 302.0591,-342.9844 262,-321 223.6579,-299.9579 216.0835,-284.4071 202,-243 186.4006,-197.1358 171.1981,-171.3912 202,-134 229.0931,-101.111 351.7256,-88.9416 419.9102,-84.6647"/>
<polygon fill="#191970" stroke="#191970" points="726.7283,-368.2284 736.878,-365.1896 727.0486,-361.2357 726.7283,-368.2284"/>
</g>
<!-- Node91&#45;&gt;Node76 -->
<g id="edge76" class="edge">
<title>Node91&#45;&gt;Node76</title>
<path fill="none" stroke="#191970" d="M797.6188,-350.7992C812.4282,-337.9131 832.6464,-320.3207 844.9882,-309.5817"/>
<polygon fill="#191970" stroke="#191970" points="795.2787,-348.1959 790.0322,-357.4005 799.8737,-353.4767 795.2787,-348.1959"/>
</g>
<!-- Node91&#45;&gt;Node36 -->
<g id="edge80" class="edge">
<title>Node91&#45;&gt;Node36</title>
<path fill="none" stroke="#191970" d="M726.6313,-357.9875C687.6226,-350.0826 639.1044,-337.3097 627,-321 615.8754,-306.0104 620.2329,-296.3969 627,-279 634.8686,-258.7714 650.6531,-262.5895 660,-243 685.1147,-190.3636 685.306,-117.9114 684.4591,-92.1042"/>
<polygon fill="#191970" stroke="#191970" points="726.3414,-361.4974 736.8284,-359.9892 727.6898,-354.6284 726.3414,-361.4974"/>
</g>
<!-- Node91&#45;&gt;Node26 -->
<g id="edge60" class="edge">
<title>Node91&#45;&gt;Node26</title>
<path fill="none" stroke="#191970" d="M831.1468,-365.8069C1004.158,-361.642 1558.2307,-346.5942 1735,-321 1752.7964,-318.4233 1772.2893,-313.8154 1788.2107,-309.5712"/>
<polygon fill="#191970" stroke="#191970" points="830.9408,-362.3107 821.0273,-366.0485 831.108,-369.3087 830.9408,-362.3107"/>
</g>
<!-- Node91&#45;&gt;Node31 -->
<g id="edge78" class="edge">
<title>Node91&#45;&gt;Node31</title>
<path fill="none" stroke="#191970" d="M726.5027,-366.1459C603.1931,-363.597 303.1636,-354.0301 273,-321 246.8512,-292.3662 297.6709,-207.9348 303,-201 314.5055,-186.0279 331.523,-173.4772 346.0134,-164.5148"/>
<polygon fill="#191970" stroke="#191970" points="726.7554,-369.6516 736.8231,-366.3513 726.8947,-362.653 726.7554,-369.6516"/>
</g>
<!-- Node92 -->
<g id="node36" class="node">
<title>Node92</title>
<g id="a_node36"><a xlink:href="mechanical__forces__op__cuda__kernel_8h.html" target="_top" xlink:title="core/gpu/mechanical\l_forces_op_cuda_kernel.h">
<polygon fill="#ffffff" stroke="#ff0000" points="636.5,-285 636.5,-315 767.5,-315 767.5,-285 636.5,-285"/>
<text text-anchor="start" x="644.5" y="-303" font-family="Helvetica,sans-Serif" font-size="10.00" fill="#000000">core/gpu/mechanical</text>
<text text-anchor="middle" x="702" y="-292" font-family="Helvetica,sans-Serif" font-size="10.00" fill="#000000">_forces_op_cuda_kernel.h</text>
</a>
</g>
</g>
<!-- Node91&#45;&gt;Node92 -->
<g id="edge79" class="edge">
<title>Node91&#45;&gt;Node92</title>
<path fill="none" stroke="#191970" d="M760.3835,-350.8012C747.8675,-339.9107 731.4875,-325.6579 719.2638,-315.0218"/>
<polygon fill="#191970" stroke="#191970" points="758.1263,-353.4767 767.9678,-357.4005 762.7213,-348.1959 758.1263,-353.4767"/>
</g>
<!-- Node26&#45;&gt;Node27 -->
<g id="edge62" class="edge">
<title>Node26&#45;&gt;Node27</title>
<path fill="none" stroke="#191970" d="M1772.4791,-288.0141C1760.2552,-285.0324 1747.1534,-281.8692 1735,-279 1662.4295,-261.8677 1577.7982,-242.7527 1527.9566,-231.5839"/>
<polygon fill="#191970" stroke="#191970" points="1771.9554,-291.4892 1782.5007,-290.4656 1773.6188,-284.6896 1771.9554,-291.4892"/>
</g>
<!-- Node26&#45;&gt;Node25 -->
<g id="edge61" class="edge">
<title>Node26&#45;&gt;Node25</title>
<path fill="none" stroke="#191970" d="M1800.8916,-283.7678C1789.0013,-273.2414 1774.4652,-258.6151 1765,-243 1733.5711,-191.1503 1718.9698,-118.2126 1714.5317,-92.1907"/>
<polygon fill="#191970" stroke="#191970" points="1798.7303,-286.5247 1808.6058,-290.3619 1803.2787,-281.2037 1798.7303,-286.5247"/>
</g>
<!-- Node26&#45;&gt;Node29 -->
<g id="edge65" class="edge">
<title>Node26&#45;&gt;Node29</title>
<path fill="none" stroke="#191970" d="M1776.618,-287.9973C1763.3107,-284.7147 1748.6292,-281.4038 1735,-279 1591.0109,-253.6046 1551.4438,-271.3135 1408,-243 1393.2507,-240.0887 1377.1614,-235.6059 1363.8503,-231.5286"/>
<polygon fill="#191970" stroke="#191970" points="1775.9337,-291.4343 1786.4861,-290.4864 1777.6458,-284.6469 1775.9337,-291.4343"/>
</g>
<!-- Node26&#45;&gt;Node44 -->
<g id="edge73" class="edge">
<title>Node26&#45;&gt;Node44</title>
<path fill="none" stroke="#191970" d="M1843.6156,-284.1076C1856.017,-273.9494 1870.215,-259.5876 1877,-243 1884.067,-225.7228 1880.2182,-219.3872 1877,-201 1874.0672,-184.2435 1866.9328,-181.7565 1864,-165 1861.6247,-151.4285 1855.9112,-145.1534 1864,-134 1920.2745,-56.404 1974.9083,-85.2949 2069,-67 2200.0497,-41.5191 2599.204,-24.0059 2757.4081,-17.8945"/>
<polygon fill="#191970" stroke="#191970" points="1841.1951,-281.5551 1835.4302,-290.4443 1845.4802,-287.0903 1841.1951,-281.5551"/>
</g>
<!-- Node26&#45;&gt;Node41 -->
<g id="edge71" class="edge">
<title>Node26&#45;&gt;Node41</title>
<path fill="none" stroke="#191970" d="M1847.1385,-285.2691C1865.4224,-274.4921 1890.044,-259.012 1910,-243 1914.5781,-239.3267 1971.5508,-182.1343 1994.507,-159.0515"/>
<polygon fill="#191970" stroke="#191970" points="1845.3544,-282.2578 1838.4671,-290.3086 1848.8717,-288.31 1845.3544,-282.2578"/>
</g>
<!-- Node26&#45;&gt;Node45 -->
<g id="edge74" class="edge">
<title>Node26&#45;&gt;Node45</title>
<path fill="none" stroke="#191970" d="M1875.753,-298.4538C1997.4482,-294.4191 2299.3607,-281.1004 2549,-243 2794.0146,-205.6054 3080.5451,-129.874 3197.3511,-97.6091"/>
<polygon fill="#191970" stroke="#191970" points="1875.4588,-294.9614 1865.5774,-298.7833 1875.6854,-301.9577 1875.4588,-294.9614"/>
</g>
<!-- Node26&#45;&gt;Node42 -->
<g id="edge72" class="edge">
<title>Node26&#45;&gt;Node42</title>
<path fill="none" stroke="#191970" d="M1855.0159,-286.5998C1889.9232,-272.8485 1944.1389,-251.4907 1980.5741,-237.1375"/>
<polygon fill="#191970" stroke="#191970" points="1853.2999,-283.5139 1845.2787,-290.4357 1855.8656,-290.0268 1853.2999,-283.5139"/>
</g>
<!-- Node28 -->
<g id="node32" class="node">
<title>Node28</title>
<g id="a_node32"><a xlink:href="growth__division_8h.html" target="_top" xlink:title="core/behavior/growth\l_division.h">
<polygon fill="#ffffff" stroke="#000000" points="1610.5,-207 1610.5,-237 1717.5,-237 1717.5,-207 1610.5,-207"/>
<text text-anchor="start" x="1618.5" y="-225" font-family="Helvetica,sans-Serif" font-size="10.00" fill="#000000">core/behavior/growth</text>
<text text-anchor="middle" x="1664" y="-214" font-family="Helvetica,sans-Serif" font-size="10.00" fill="#000000">_division.h</text>
</a>
</g>
</g>
<!-- Node26&#45;&gt;Node28 -->
<g id="edge63" class="edge">
<title>Node26&#45;&gt;Node28</title>
<path fill="none" stroke="#191970" d="M1792.5889,-285.8849C1764.8769,-272.1172 1722.8636,-251.2443 1694.469,-237.1375"/>
<polygon fill="#191970" stroke="#191970" points="1791.2358,-289.1208 1801.7487,-290.4357 1794.3503,-282.8518 1791.2358,-289.1208"/>
</g>
<!-- Node26&#45;&gt;Node30 -->
<g id="edge66" class="edge">
<title>Node26&#45;&gt;Node30</title>
<path fill="none" stroke="#191970" d="M1778.8727,-287.9534C1765.0114,-284.4636 1749.4494,-281.0462 1735,-279 1702.0719,-274.3369 675.6851,-233.8395 427.5899,-224.0999"/>
<polygon fill="#191970" stroke="#191970" points="1778.0661,-291.36 1788.6251,-290.4888 1779.8275,-284.5852 1778.0661,-291.36"/>
</g>
<!-- Node40 -->
<g id="node35" class="node">
<title>Node40</title>
<g id="a_node35"><a xlink:href="cell_8cc.html" target="_top" xlink:title="core/agent/cell.cc">
<polygon fill="#ffffff" stroke="#000000" points="1774,-212.5 1774,-231.5 1868,-231.5 1868,-212.5 1774,-212.5"/>
<text text-anchor="middle" x="1821" y="-219.5" font-family="Helvetica,sans-Serif" font-size="10.00" fill="#000000">core/agent/cell.cc</text>
</a>
</g>
</g>
<!-- Node26&#45;&gt;Node40 -->
<g id="edge70" class="edge">
<title>Node26&#45;&gt;Node40</title>
<path fill="none" stroke="#191970" d="M1821,-280.2866C1821,-264.7395 1821,-243.7276 1821,-231.6426"/>
<polygon fill="#191970" stroke="#191970" points="1817.5001,-280.4356 1821,-290.4357 1824.5001,-280.4357 1817.5001,-280.4356"/>
</g>
<!-- Node28&#45;&gt;Node25 -->
<g id="edge64" class="edge">
<title>Node28&#45;&gt;Node25</title>
<path fill="none" stroke="#191970" d="M1672.7534,-197.0796C1683.7313,-165.8262 1702.0284,-113.7354 1709.58,-92.2366"/>
<polygon fill="#191970" stroke="#191970" points="1669.349,-196.2107 1669.3371,-206.8055 1675.9535,-198.5305 1669.349,-196.2107"/>
</g>
<!-- Node30&#45;&gt;Node31 -->
<g id="edge67" class="edge">
<title>Node30&#45;&gt;Node31</title>
<path fill="none" stroke="#191970" d="M374,-196.8409C374,-186.0601 374,-173.8309 374,-164.5028"/>
<polygon fill="#191970" stroke="#191970" points="370.5001,-196.9779 374,-206.978 377.5001,-196.978 370.5001,-196.9779"/>
</g>
<!-- Node31&#45;&gt;Node32 -->
<g id="edge68" class="edge">
<title>Node31&#45;&gt;Node32</title>
<path fill="none" stroke="#191970" d="M403.046,-128.3469C416.7353,-118.3776 432.7536,-106.7121 445.2064,-97.6432"/>
<polygon fill="#191970" stroke="#191970" points="400.8994,-125.5804 394.8762,-134.2967 405.0202,-131.2389 400.8994,-125.5804"/>
</g>
<!-- Node31&#45;&gt;Node36 -->
<g id="edge69" class="edge">
<title>Node31&#45;&gt;Node36</title>
<path fill="none" stroke="#191970" d="M437.4483,-135.787C497.8286,-122.737 587.0982,-103.4433 640.0235,-92.0046"/>
<polygon fill="#191970" stroke="#191970" points="436.6789,-132.3724 427.644,-137.906 438.1577,-139.2144 436.6789,-132.3724"/>
</g>
<!-- Node24&#45;&gt;Node25 -->
<g id="edge87" class="edge">
<title>Node24&#45;&gt;Node25</title>
<path fill="none" stroke="#191970" d="M2412.8973,-359.4401C2351.2426,-350.9306 2259.1678,-336.2861 2227,-321 2152.3693,-285.5357 2159.1501,-237.4584 2085,-201 2016.8635,-167.4984 1990.5927,-187.254 1918,-165 1848.676,-143.7481 1769.9761,-108.9086 1733.5301,-92.1279"/>
<polygon fill="#191970" stroke="#191970" points="2412.5147,-362.9202 2422.8958,-360.8033 2413.4603,-355.9844 2412.5147,-362.9202"/>
</g>
<!-- Node24&#45;&gt;Node55 -->
<g id="edge96" class="edge">
<title>Node24&#45;&gt;Node55</title>
<path fill="none" stroke="#191970" d="M2465.624,-347.7393C2455.244,-316.383 2435.0641,-255.4229 2427.2239,-231.739"/>
<polygon fill="#191970" stroke="#191970" points="2462.3852,-349.0927 2468.8506,-357.4861 2469.0306,-346.8928 2462.3852,-349.0927"/>
</g>
<!-- Node24&#45;&gt;Node49 -->
<g id="edge95" class="edge">
<title>Node24&#45;&gt;Node49</title>
<path fill="none" stroke="#191970" d="M2478.2357,-347.3804C2487.3415,-316.3932 2502.6156,-254.1752 2497,-201 2495.4445,-186.2708 2491.4527,-169.56 2488.731,-159.2739"/>
<polygon fill="#191970" stroke="#191970" points="2474.7771,-346.7232 2475.2101,-357.3092 2481.4731,-348.7637 2474.7771,-346.7232"/>
</g>
<!-- Node24&#45;&gt;Node48 -->
<g id="edge103" class="edge">
<title>Node24&#45;&gt;Node48</title>
<path fill="none" stroke="#191970" d="M2531.1548,-364.1804C2605.4528,-359.5483 2727.52,-347.9851 2763,-321 2833.7594,-267.1825 2885.1947,-206.6795 2834,-134 2827.349,-124.5577 2763.2148,-104.1593 2722.8112,-92.0604"/>
<polygon fill="#191970" stroke="#191970" points="2530.7747,-360.6968 2521.0021,-364.7889 2531.1936,-367.6843 2530.7747,-360.6968"/>
</g>
<!-- Node24&#45;&gt;Node51 -->
<g id="edge104" class="edge">
<title>Node24&#45;&gt;Node51</title>
<path fill="none" stroke="#191970" d="M2485.1809,-348.7291C2508.7971,-314.6627 2557.32,-238.2446 2573,-165 2577.9992,-141.6476 2571.5691,-114.1257 2566.366,-97.5101"/>
<polygon fill="#191970" stroke="#191970" points="2482.1275,-346.9862 2479.2284,-357.1767 2487.8496,-351.0182 2482.1275,-346.9862"/>
</g>
<!-- Node24&#45;&gt;Node53 -->
<g id="edge108" class="edge">
<title>Node24&#45;&gt;Node53</title>
<path fill="none" stroke="#191970" d="M2531.2845,-363.3755C2612.732,-357.6057 2754.3452,-344.5091 2800,-321 2902.7885,-268.0709 2977.5784,-141.489 3001.1372,-97.7075"/>
<polygon fill="#191970" stroke="#191970" points="2530.9106,-359.893 2521.1764,-364.0759 2531.3945,-366.8762 2530.9106,-359.893"/>
</g>
<!-- Node24&#45;&gt;Node61 -->
<g id="edge114" class="edge">
<title>Node24&#45;&gt;Node61</title>
<path fill="none" stroke="#191970" d="M2531.3493,-364.976C2687.0547,-359.3893 3099.2704,-342.7185 3157,-321 3239.2012,-290.0751 3233.9672,-237.1681 3314,-201 3380.5308,-170.9337 3464.5135,-158.3451 3518.49,-153.1242"/>
<polygon fill="#191970" stroke="#191970" points="2530.8991,-361.4897 2521.03,-365.3434 2531.1483,-368.4852 2530.8991,-361.4897"/>
</g>
<!-- Node24&#45;&gt;Node45 -->
<g id="edge117" class="edge">
<title>Node24&#45;&gt;Node45</title>
<path fill="none" stroke="#191970" d="M2531.8717,-365.3163C2675.6613,-360.8693 3032.0615,-347.306 3079,-321 3085.026,-317.6228 3203.8763,-149.3793 3240.4094,-97.5409"/>
<polygon fill="#191970" stroke="#191970" points="2531.3729,-361.8297 2521.4843,-365.633 2531.5864,-368.8265 2531.3729,-361.8297"/>
</g>
<!-- Node24&#45;&gt;Node36 -->
<g id="edge105" class="edge">
<title>Node24&#45;&gt;Node36</title>
<path fill="none" stroke="#191970" d="M2412.8205,-365.5817C2170.0099,-359.6693 1260.1741,-336.5684 1201,-321 1161.7828,-310.6822 1158.3203,-292.2665 1120,-279 1039.1952,-251.0253 990.7178,-304.2028 931,-243 896.7096,-207.8569 946.7061,-169.7039 913,-134 890.5162,-110.1836 805.9752,-95.971 746.1774,-88.6919"/>
<polygon fill="#191970" stroke="#191970" points="2412.7839,-369.0817 2422.866,-365.8257 2412.954,-362.0838 2412.7839,-369.0817"/>
</g>
<!-- Node24&#45;&gt;Node65 -->
<g id="edge106" class="edge">
<title>Node24&#45;&gt;Node65</title>
<path fill="none" stroke="#191970" d="M2531.2084,-365.1388C2621.7901,-361.4266 2799.858,-350.7116 2948,-321 2955.7532,-319.445 2963.8799,-317.355 2971.7086,-315.0947"/>
<polygon fill="#191970" stroke="#191970" points="2530.9858,-361.6448 2521.132,-365.5375 2531.2626,-368.6393 2530.9858,-361.6448"/>
</g>
<!-- Node24&#45;&gt;Node42 -->
<g id="edge107" class="edge">
<title>Node24&#45;&gt;Node42</title>
<path fill="none" stroke="#191970" d="M2412.7173,-361.7739C2334.4792,-354.2946 2201.3596,-339.3888 2156,-321 2106.5049,-300.9347 2058.1414,-259.362 2034.317,-237.0043"/>
<polygon fill="#191970" stroke="#191970" points="2412.626,-365.2807 2422.9107,-362.736 2413.2838,-358.3117 2412.626,-365.2807"/>
</g>
<!-- Node24&#45;&gt;Node70 -->
<g id="edge113" class="edge">
<title>Node24&#45;&gt;Node70</title>
<path fill="none" stroke="#191970" d="M2518.0033,-354.811C2551.4065,-345.8246 2597.6334,-333.1079 2638,-321 2644.2475,-319.1261 2650.8108,-317.088 2657.2658,-315.0429"/>
<polygon fill="#191970" stroke="#191970" points="2516.8212,-351.5043 2508.0692,-357.4753 2518.6345,-358.2653 2516.8212,-351.5043"/>
</g>
<!-- Node24&#45;&gt;Node26 -->
<g id="edge88" class="edge">
<title>Node24&#45;&gt;Node26</title>
<path fill="none" stroke="#191970" d="M2412.7149,-360.8985C2283.7327,-347.6238 1980.0541,-316.3696 1865.6505,-304.5954"/>
<polygon fill="#191970" stroke="#191970" points="2412.4965,-364.3944 2422.8023,-361.9366 2413.2132,-357.4312 2412.4965,-364.3944"/>
</g>
<!-- Node24&#45;&gt;Node31 -->
<g id="edge99" class="edge">
<title>Node24&#45;&gt;Node31</title>
<path fill="none" stroke="#191970" d="M2412.6525,-365.5886C2169.7481,-359.7269 1258.1524,-336.8692 1130,-321 1042.0179,-310.1051 1022.5406,-293.0072 935,-279 784.5164,-254.9214 740.4736,-285.0782 594,-243 553.1167,-231.2552 547.001,-217.9795 508,-201 477.6079,-187.7685 442.6268,-174.3848 416.0282,-164.5785"/>
<polygon fill="#191970" stroke="#191970" points="2412.6198,-369.0887 2422.7012,-365.8306 2412.7884,-362.0908 2412.6198,-369.0887"/>
</g>
<!-- Node46 -->
<g id="node39" class="node">
<title>Node46</title>
<g id="a_node39"><a xlink:href="behavior_8h.html" target="_top" xlink:title="core/behavior/behavior.h">
<polygon fill="#ffffff" stroke="#ff0000" points="1602.5,-290.5 1602.5,-309.5 1725.5,-309.5 1725.5,-290.5 1602.5,-290.5"/>
<text text-anchor="middle" x="1664" y="-297.5" font-family="Helvetica,sans-Serif" font-size="10.00" fill="#000000">core/behavior/behavior.h</text>
</a>
</g>
</g>
<!-- Node24&#45;&gt;Node46 -->
<g id="edge89" class="edge">
<title>Node24&#45;&gt;Node46</title>
<path fill="none" stroke="#191970" d="M2412.4923,-365.7997C2290.9078,-362.7562 2005.4245,-352.5828 1768,-321 1747.002,-318.2068 1723.8825,-313.6854 1704.7848,-309.5521"/>
<polygon fill="#191970" stroke="#191970" points="2412.6182,-369.3037 2422.7004,-366.048 2412.7885,-362.3057 2412.6182,-369.3037"/>
</g>
<!-- Node62 -->
<g id="node40" class="node">
<title>Node62</title>
<g id="a_node40"><a xlink:href="type__index_8h.html" target="_top" xlink:title="core/type_index.h">
<polygon fill="#ffffff" stroke="#ff0000" points="2236,-290.5 2236,-309.5 2330,-309.5 2330,-290.5 2236,-290.5"/>
<text text-anchor="middle" x="2283" y="-297.5" font-family="Helvetica,sans-Serif" font-size="10.00" fill="#000000">core/type_index.h</text>
</a>
</g>
</g>
<!-- Node24&#45;&gt;Node62 -->
<g id="edge97" class="edge">
<title>Node24&#45;&gt;Node62</title>
<path fill="none" stroke="#191970" d="M2435.0913,-353.916C2398.3542,-340.8928 2342.847,-321.2156 2310.0289,-309.5817"/>
<polygon fill="#191970" stroke="#191970" points="2434.3262,-357.3581 2444.9209,-357.4005 2436.6651,-350.7604 2434.3262,-357.3581"/>
</g>
<!-- Node24&#45;&gt;Node64 -->
<g id="edge100" class="edge">
<title>Node24&#45;&gt;Node64</title>
<path fill="none" stroke="#191970" d="M2412.7542,-365.5121C2334.8348,-363.5559 2193.656,-360.0139 2073,-357 1430.3347,-340.9466 1269.1109,-352.1447 627,-321 544.0279,-316.9756 447.9373,-309.489 389.588,-304.6278"/>
<polygon fill="#191970" stroke="#191970" points="2412.7746,-369.0136 2422.8593,-365.7658 2412.9504,-362.0158 2412.7746,-369.0136"/>
</g>
<!-- Node66 -->
<g id="node42" class="node">
<title>Node66</title>
<g id="a_node42"><a xlink:href="reduction__op_8h.html" target="_top" xlink:title="core/operation/reduction_op.h">
<polygon fill="#ffffff" stroke="#000000" points="3240.5,-290.5 3240.5,-309.5 3385.5,-309.5 3385.5,-290.5 3240.5,-290.5"/>
<text text-anchor="middle" x="3313" y="-297.5" font-family="Helvetica,sans-Serif" font-size="10.00" fill="#000000">core/operation/reduction_op.h</text>
</a>
</g>
</g>
<!-- Node24&#45;&gt;Node66 -->
<g id="edge109" class="edge">
<title>Node24&#45;&gt;Node66</title>
<path fill="none" stroke="#191970" d="M2531.1824,-364.7374C2684.5561,-358.6578 3092.2449,-341.0634 3226,-321 3243.8246,-318.3263 3263.3587,-313.7639 3279.3933,-309.5733"/>
<polygon fill="#191970" stroke="#191970" points="2530.8737,-361.2468 2521.0194,-365.1382 2531.1495,-368.2414 2530.8737,-361.2468"/>
</g>
<!-- Node68 -->
<g id="node44" class="node">
<title>Node68</title>
<g id="a_node44"><a xlink:href="vtk__agents_8h.html" target="_top" xlink:title="core/visualization\l/paraview/vtk_agents.h">
<polygon fill="#ffffff" stroke="#ff0000" points="3228,-134.5 3228,-164.5 3346,-164.5 3346,-134.5 3228,-134.5"/>
<text text-anchor="start" x="3236" y="-152.5" font-family="Helvetica,sans-Serif" font-size="10.00" fill="#000000">core/visualization</text>
<text text-anchor="middle" x="3287" y="-141.5" font-family="Helvetica,sans-Serif" font-size="10.00" fill="#000000">/paraview/vtk_agents.h</text>
</a>
</g>
</g>
<!-- Node24&#45;&gt;Node68 -->
<g id="edge111" class="edge">
<title>Node24&#45;&gt;Node68</title>
<path fill="none" stroke="#191970" d="M2531.7135,-365.05C2680.5731,-359.8579 3059.9331,-344.4721 3112,-321 3190.1428,-285.7727 3253.6915,-199.7496 3277.2077,-164.7191"/>
<polygon fill="#191970" stroke="#191970" points="2531.2748,-361.563 2521.4017,-365.4062 2531.5165,-368.5588 2531.2748,-361.563"/>
</g>
<!-- Node71 -->
<g id="node45" class="node">
<title>Node71</title>
<g id="a_node45"><a xlink:href="mapped__data__array_8h.html" target="_top" xlink:title="core/visualization\l/paraview/mapped_data\l_array.h">
<polygon fill="#ffffff" stroke="#000000" points="3556,-279.5 3556,-320.5 3676,-320.5 3676,-279.5 3556,-279.5"/>
<text text-anchor="start" x="3564" y="-308.5" font-family="Helvetica,sans-Serif" font-size="10.00" fill="#000000">core/visualization</text>
<text text-anchor="start" x="3564" y="-297.5" font-family="Helvetica,sans-Serif" font-size="10.00" fill="#000000">/paraview/mapped_data</text>
<text text-anchor="middle" x="3616" y="-286.5" font-family="Helvetica,sans-Serif" font-size="10.00" fill="#000000">_array.h</text>
</a>
</g>
</g>
<!-- Node24&#45;&gt;Node71 -->
<g id="edge115" class="edge">
<title>Node24&#45;&gt;Node71</title>
<path fill="none" stroke="#191970" d="M2531.2021,-364.9728C2677.7539,-359.7536 3069.1716,-344.5878 3395,-321 3449.393,-317.0623 3511.1751,-311.0618 3555.56,-306.4819"/>
<polygon fill="#191970" stroke="#191970" points="2530.9476,-361.4795 2521.0778,-365.3314 2531.1955,-368.4751 2530.9476,-361.4795"/>
</g>
<!-- Node46&#45;&gt;Node27 -->
<g id="edge91" class="edge">
<title>Node46&#45;&gt;Node27</title>
<path fill="none" stroke="#191970" d="M1632.5032,-286.2751C1596.4319,-270.5569 1538.2791,-245.2166 1506.8482,-231.5204"/>
<polygon fill="#191970" stroke="#191970" points="1631.4855,-289.6495 1642.0511,-290.4357 1634.2818,-283.2323 1631.4855,-289.6495"/>
</g>
<!-- Node46&#45;&gt;Node25 -->
<g id="edge90" class="edge">
<title>Node46&#45;&gt;Node25</title>
<path fill="none" stroke="#191970" d="M1638.8943,-284.5364C1625.215,-274.5623 1609.5699,-260.2424 1602,-243 1594.4961,-225.908 1595.1392,-218.3601 1602,-201 1621.6851,-151.19 1673.2936,-110.0419 1698.5959,-92.1357"/>
<polygon fill="#191970" stroke="#191970" points="1637.272,-287.6684 1647.4951,-290.4502 1641.2381,-281.9003 1637.272,-287.6684"/>
</g>
<!-- Node46&#45;&gt;Node29 -->
<g id="edge93" class="edge">
<title>Node46&#45;&gt;Node29</title>
<path fill="none" stroke="#191970" d="M1607.0458,-288.3596C1555.0104,-277.478 1476.0442,-260.3452 1408,-243 1394.3265,-239.5145 1379.3303,-235.274 1366.5057,-231.5185"/>
<polygon fill="#191970" stroke="#191970" points="1606.5789,-291.8374 1617.0826,-290.4507 1608.0067,-284.9845 1606.5789,-291.8374"/>
</g>
<!-- Node46&#45;&gt;Node48 -->
<g id="edge94" class="edge">
<title>Node46&#45;&gt;Node48</title>
<path fill="none" stroke="#191970" d="M1714.4981,-288.2204C1731.4168,-284.698 1750.4418,-281.1937 1768,-279 1928.9461,-258.8918 2343.6039,-295.7032 2497,-243 2584.7869,-212.8386 2660.1002,-121.7573 2682.924,-92.0107"/>
<polygon fill="#191970" stroke="#191970" points="1713.3168,-284.8937 1704.268,-290.4045 1714.7784,-291.7394 1713.3168,-284.8937"/>
</g>
<!-- Node46&#45;&gt;Node28 -->
<g id="edge92" class="edge">
<title>Node46&#45;&gt;Node28</title>
<path fill="none" stroke="#191970" d="M1664,-280.3751C1664,-267.0215 1664,-249.6052 1664,-237.2824"/>
<polygon fill="#191970" stroke="#191970" points="1660.5001,-280.4356 1664,-290.4357 1667.5001,-280.4357 1660.5001,-280.4356"/>
</g>
<!-- Node62&#45;&gt;Node55 -->
<g id="edge98" class="edge">
<title>Node62&#45;&gt;Node55</title>
<path fill="none" stroke="#191970" d="M2309.2563,-285.4752C2337.6706,-269.7567 2382.178,-245.1356 2406.5692,-231.6426"/>
<polygon fill="#191970" stroke="#191970" points="2307.3455,-282.5324 2300.2894,-290.4357 2310.734,-288.6576 2307.3455,-282.5324"/>
</g>
<!-- Node64&#45;&gt;Node30 -->
<g id="edge102" class="edge">
<title>Node64&#45;&gt;Node30</title>
<path fill="none" stroke="#191970" d="M347.7382,-275.9059C353.8792,-263.3005 361.2117,-248.2497 366.5661,-237.2592"/>
<polygon fill="#191970" stroke="#191970" points="344.5601,-274.438 343.3268,-284.9608 350.853,-277.5038 344.5601,-274.438"/>
</g>
<!-- Node64&#45;&gt;Node31 -->
<g id="edge101" class="edge">
<title>Node64&#45;&gt;Node31</title>
<path fill="none" stroke="#191970" d="M321.2071,-276.2147C310.3991,-255.5866 299.4744,-225.3082 311,-201 318.2628,-185.6823 332.5595,-173.409 345.7,-164.6917"/>
<polygon fill="#191970" stroke="#191970" points="318.1556,-277.9289 326.0836,-284.9572 324.2688,-274.5189 318.1556,-277.9289"/>
</g>
<!-- Node66&#45;&gt;Node67 -->
<g id="edge110" class="edge">
<title>Node66&#45;&gt;Node67</title>
<path fill="none" stroke="#191970" d="M3328.4961,-282.7329C3340.704,-269.1298 3357.5625,-250.3446 3369.285,-237.2824"/>
<polygon fill="#191970" stroke="#191970" points="3325.6576,-280.6555 3321.5834,-290.4357 3330.8674,-285.3309 3325.6576,-280.6555"/>
</g>
<!-- Node68&#45;&gt;Node45 -->
<g id="edge112" class="edge">
<title>Node68&#45;&gt;Node45</title>
<path fill="none" stroke="#191970" d="M3274.0957,-125.4837C3269.1073,-116.1996 3263.5498,-105.8565 3259.1366,-97.6432"/>
<polygon fill="#191970" stroke="#191970" points="3271.0147,-127.1443 3278.831,-134.2967 3277.181,-123.8311 3271.0147,-127.1443"/>
</g>
<!-- Node71&#45;&gt;Node61 -->
<g id="edge116" class="edge">
<title>Node71&#45;&gt;Node61</title>
<path fill="none" stroke="#191970" d="M3607.3517,-269.7308C3598.2854,-237.9988 3584.4025,-189.4089 3577.3853,-164.8485"/>
<polygon fill="#191970" stroke="#191970" points="3603.9986,-270.7355 3610.1112,-279.3892 3610.7292,-268.8124 3603.9986,-270.7355"/>
</g>
<!-- Node95&#45;&gt;Node53 -->
<g id="edge123" class="edge">
<title>Node95&#45;&gt;Node53</title>
<path fill="none" stroke="#191970" d="M1956.86,-432.2955C2281.0599,-424.0489 3625.7048,-386.0076 3685,-321 3728.0287,-273.826 3723.613,-201.9104 3637,-134 3597.0039,-102.6404 3231.6437,-102.2809 3181,-98 3145.8962,-95.0327 3106.7819,-91.524 3074.7339,-88.5959"/>
<polygon fill="#191970" stroke="#191970" points="1956.5708,-428.8016 1946.6626,-432.5536 1956.748,-435.7994 1956.5708,-428.8016"/>
</g>
<!-- Node95&#45;&gt;Node36 -->
<g id="edge122" class="edge">
<title>Node95&#45;&gt;Node36</title>
<path fill="none" stroke="#191970" d="M1817.1833,-432.2562C1582.8136,-426.1691 832.9603,-404.7187 728,-377 674.5755,-362.8913 645.9653,-368.0558 617,-321 592.031,-280.4364 660.4283,-131.5185 679.317,-92.1171"/>
<polygon fill="#191970" stroke="#191970" points="1817.2032,-435.7578 1827.2903,-432.5175 1817.3841,-428.7602 1817.2032,-435.7578"/>
</g>
<!-- Node95&#45;&gt;Node26 -->
<g id="edge120" class="edge">
<title>Node95&#45;&gt;Node26</title>
<path fill="none" stroke="#191970" d="M1877.778,-415.2765C1863.4986,-386.2849 1836.5543,-331.58 1825.7035,-309.5496"/>
<polygon fill="#191970" stroke="#191970" points="1874.6951,-416.9386 1882.2534,-424.3631 1880.9747,-413.8457 1874.6951,-416.9386"/>
</g>
<!-- Node95&#45;&gt;Node31 -->
<g id="edge121" class="edge">
<title>Node95&#45;&gt;Node31</title>
<path fill="none" stroke="#191970" d="M1817.1686,-432.74C1550.8989,-427.7128 611.4755,-407.8553 556,-377 473.2626,-330.9817 499.6999,-271.0392 436,-201 423.6665,-187.439 407.7204,-174.2713 395.0887,-164.6453"/>
<polygon fill="#191970" stroke="#191970" points="1817.4123,-436.2451 1827.4763,-432.9335 1817.5438,-429.2463 1817.4123,-436.2451"/>
</g>
<!-- Node95&#45;&gt;Node24 -->
<g id="edge119" class="edge">
<title>Node95&#45;&gt;Node24</title>
<path fill="none" stroke="#191970" d="M1956.743,-426.0123C2076.5675,-412.2888 2318.6524,-384.5629 2422.6716,-372.6496"/>
<polygon fill="#191970" stroke="#191970" points="1956.1207,-422.5606 1946.5839,-427.1759 1956.9173,-429.5152 1956.1207,-422.5606"/>
</g>
<!-- Node96&#45;&gt;Node55 -->
<g id="edge142" class="edge">
<title>Node96&#45;&gt;Node55</title>
<path fill="none" stroke="#191970" d="M3236.7596,-430.3119C3352.2837,-420.7553 3629.1653,-390.8924 3685,-321 3696.6509,-306.4157 3697.8979,-292.4941 3685,-279 3664.0968,-257.1305 2740.5607,-230.5672 2487.5229,-223.6896"/>
<polygon fill="#191970" stroke="#191970" points="3236.436,-426.8265 3226.7511,-431.1222 3237.001,-433.8037 3236.436,-426.8265"/>
</g>
<!-- Node96&#45;&gt;Node48 -->
<g id="edge143" class="edge">
<title>Node96&#45;&gt;Node48</title>
<path fill="none" stroke="#191970" d="M3212.6416,-419.9755C3218.8478,-417.2375 3225.5353,-414.6941 3232,-413 3415.8022,-364.835 3483.698,-452.6433 3658,-377 3692.0624,-362.2177 3704.9236,-354.9333 3720,-321 3742.557,-270.2299 3712.6875,-249.1645 3685,-201 3666.744,-169.2424 3669.2363,-151.3968 3637,-134 3550.2945,-87.2082 2848.4957,-112.209 2751,-98 2741.593,-96.629 2731.5348,-94.3997 2722.3543,-92.0539"/>
<polygon fill="#191970" stroke="#191970" points="3210.9358,-416.9103 3203.3864,-424.3439 3213.9237,-423.2406 3210.9358,-416.9103"/>
</g>
<!-- Node96&#45;&gt;Node44 -->
<g id="edge145" class="edge">
<title>Node96&#45;&gt;Node44</title>
<path fill="none" stroke="#191970" d="M3236.8842,-430.7808C3347.4514,-423.3753 3606.4005,-403.6962 3690,-377 3825.4986,-333.7307 3970,-364.2396 3970,-222 3970,-222 3970,-222 3970,-149.5 3970,-39.8591 3132.51,-19.7518 2888.7874,-16.2216"/>
<polygon fill="#191970" stroke="#191970" points="3236.4047,-427.3048 3226.6582,-431.4589 3236.8679,-434.2895 3236.4047,-427.3048"/>
</g>
<!-- Node96&#45;&gt;Node61 -->
<g id="edge146" class="edge">
<title>Node96&#45;&gt;Node61</title>
<path fill="none" stroke="#191970" d="M3236.7099,-430.1753C3335.2621,-422.2741 3549.0256,-402.716 3618,-377 3660.3892,-361.1959 3681.5448,-360.8283 3703,-321 3736.932,-258.0106 3647.3539,-193.2923 3600.0609,-164.6789"/>
<polygon fill="#191970" stroke="#191970" points="3236.3831,-426.6901 3226.6912,-430.9701 3236.9367,-433.6682 3236.3831,-426.6901"/>
</g>
<!-- Node96&#45;&gt;Node36 -->
<g id="edge144" class="edge">
<title>Node96&#45;&gt;Node36</title>
<path fill="none" stroke="#191970" d="M3134.7117,-432.8512C2825.4359,-425.7236 1215.3278,-385.7228 1006,-321 970.9728,-310.1698 968.9709,-292.7905 935,-279 871.8754,-253.3746 841.4907,-282.5242 786,-243 729.528,-202.7768 697.0683,-120.5423 687.2264,-92.288"/>
<polygon fill="#191970" stroke="#191970" points="3135.0827,-436.3605 3145.1604,-433.0908 3135.2433,-429.3623 3135.0827,-436.3605"/>
</g>
<!-- Node96&#45;&gt;Node24 -->
<g id="edge125" class="edge">
<title>Node96&#45;&gt;Node24</title>
<path fill="none" stroke="#191970" d="M3135.0769,-429.2215C3003.0884,-416.836 2651.175,-383.8133 2521.1641,-371.6134"/>
<polygon fill="#191970" stroke="#191970" points="3135.0242,-432.7318 3145.3075,-430.1815 3135.6783,-425.7625 3135.0242,-432.7318"/>
</g>
<!-- Node96&#45;&gt;Node46 -->
<g id="edge141" class="edge">
<title>Node96&#45;&gt;Node46</title>
<path fill="none" stroke="#191970" d="M3135.1905,-433.0161C2934.3436,-428.9125 2195.4883,-411.7321 1964,-377 1862.6991,-361.801 1746.0388,-326.584 1692.9732,-309.5578"/>
<polygon fill="#191970" stroke="#191970" points="3135.38,-436.5206 3145.4488,-433.2239 3135.5218,-429.522 3135.38,-436.5206"/>
</g>
<!-- Node96&#45;&gt;Node71 -->
<g id="edge147" class="edge">
<title>Node96&#45;&gt;Node71</title>
<path fill="none" stroke="#191970" d="M3226.2475,-421.4578C3302.1136,-397.8158 3466.6386,-346.5452 3555.7434,-318.7776"/>
<polygon fill="#191970" stroke="#191970" points="3225.0857,-418.1537 3216.5798,-424.4705 3227.1683,-424.8368 3225.0857,-418.1537"/>
</g>
<!-- Node97 -->
<g id="node48" class="node">
<title>Node97</title>
<g id="a_node48"><a xlink:href="core_2param_2param_8h.html" target="_top" xlink:title="core/param/param.h">
<polygon fill="#ffffff" stroke="#ff0000" points="2964,-357.5 2964,-376.5 3068,-376.5 3068,-357.5 2964,-357.5"/>
<text text-anchor="middle" x="3016" y="-364.5" font-family="Helvetica,sans-Serif" font-size="10.00" fill="#000000">core/param/param.h</text>
</a>
</g>
</g>
<!-- Node96&#45;&gt;Node97 -->
<g id="edge126" class="edge">
<title>Node96&#45;&gt;Node97</title>
<path fill="none" stroke="#191970" d="M3151.9508,-420.5806C3118.9058,-407.557 3069.5783,-388.1162 3040.3117,-376.5817"/>
<polygon fill="#191970" stroke="#191970" points="3151.0563,-423.99 3161.6431,-424.4005 3153.623,-417.4776 3151.0563,-423.99"/>
</g>
<!-- Node97&#45;&gt;Node72 -->
<g id="edge128" class="edge">
<title>Node97&#45;&gt;Node72</title>
<path fill="none" stroke="#191970" d="M2953.4309,-365.6645C2754.5997,-361.273 2119.3709,-346.1072 1594,-321 1494.9204,-316.265 1379.3508,-308.4312 1314.0135,-303.7878"/>
<polygon fill="#191970" stroke="#191970" points="2953.607,-369.1691 2963.6815,-365.8899 2953.7609,-362.1708 2953.607,-369.1691"/>
</g>
<!-- Node97&#45;&gt;Node25 -->
<g id="edge129" class="edge">
<title>Node97&#45;&gt;Node25</title>
<path fill="none" stroke="#191970" d="M2953.6472,-358.8166C2898.1641,-350.6684 2821.9052,-337.0784 2796,-321 2775.8299,-308.4812 2783.9876,-290.0939 2763,-279 2658.4383,-223.7293 2347.3561,-269.0953 2232,-243 2182.5744,-231.8192 2174.5493,-215.5212 2126,-201 2050.3407,-178.3701 2026.6935,-190.6385 1952,-165 1922.4842,-154.8687 1918.0834,-145.3129 1889,-134 1841.8229,-115.6489 1785.3553,-100.2268 1749.3367,-91.1744"/>
<polygon fill="#191970" stroke="#191970" points="2953.3511,-362.31 2963.7485,-360.274 2954.3509,-355.3817 2953.3511,-362.31"/>
</g>
<!-- Node97&#45;&gt;Node50 -->
<g id="edge131" class="edge">
<title>Node97&#45;&gt;Node50</title>
<path fill="none" stroke="#191970" d="M3078.3639,-363.8825C3180.5414,-358.1302 3374.3901,-344.2626 3395,-321 3407.3786,-307.0281 3406.8029,-293.4615 3395,-279 3344.5161,-217.1446 3295.4295,-266.0922 3219,-243 3079.2844,-200.7868 2920.4191,-128.6563 2854.366,-97.5291"/>
<polygon fill="#191970" stroke="#191970" points="3077.9629,-360.3992 3068.1716,-364.4465 3078.3497,-367.3886 3077.9629,-360.3992"/>
</g>
<!-- Node97&#45;&gt;Node35 -->
<g id="edge136" class="edge">
<title>Node97&#45;&gt;Node35</title>
<path fill="none" stroke="#191970" d="M2994.4831,-351.4797C2964.4701,-330.7765 2907.5648,-294.8905 2853,-279 2638.6633,-216.5801 2565.4727,-308.3133 2352,-243 2316.2067,-232.0488 2313.25,-216.1006 2279,-201 2230.7703,-179.7358 2214.4743,-185.7005 2166,-165 2108.7508,-140.5523 2078.5711,-149.0868 2043,-98 2027.4515,-75.6695 2028.2682,-41.6441 2029.7991,-25.1437"/>
<polygon fill="#191970" stroke="#191970" points="2992.7036,-354.5065 3002.9018,-357.3784 2996.7205,-348.7737 2992.7036,-354.5065"/>
</g>
<!-- Node97&#45;&gt;Node52 -->
<g id="edge134" class="edge">
<title>Node97&#45;&gt;Node52</title>
<path fill="none" stroke="#191970" d="M3046.9034,-352.5161C3059.2468,-344.9901 3072.139,-334.5049 3079,-321 3087.4548,-304.3579 3091.0589,-293.2488 3079,-279 2980.0182,-162.0429 2547.7396,-201.7816 2399,-165 2314.9216,-144.2084 2218.3319,-108.9925 2173.824,-92.0997"/>
<polygon fill="#191970" stroke="#191970" points="3045.0997,-349.5151 3038.1066,-357.4742 3048.5367,-355.6132 3045.0997,-349.5151"/>
</g>
<!-- Node97&#45;&gt;Node53 -->
<g id="edge135" class="edge">
<title>Node97&#45;&gt;Node53</title>
<path fill="none" stroke="#191970" d="M3078.4486,-364.532C3187.9312,-359.5588 3405.1347,-346.5603 3428,-321 3503.0355,-237.1205 3357.7815,-261.2605 3314,-243 3206.0359,-197.9702 3085.0957,-128.1136 3033.9625,-97.6104"/>
<polygon fill="#191970" stroke="#191970" points="3078.0343,-361.0469 3068.1999,-364.9884 3078.3458,-368.04 3078.0343,-361.0469"/>
</g>
<!-- Node97&#45;&gt;Node32 -->
<g id="edge130" class="edge">
<title>Node97&#45;&gt;Node32</title>
<path fill="none" stroke="#191970" d="M2953.2988,-365.6172C2638.6717,-358.6531 1245.2543,-327.4982 1201,-321 1130.8084,-310.6933 1115.9433,-295.7304 1047,-279 972.3696,-260.8896 951.5747,-265.01 878,-243 733.6711,-199.8237 568.5044,-128.5231 499.2674,-97.5923"/>
<polygon fill="#191970" stroke="#191970" points="2953.5233,-369.1229 2963.5983,-365.8451 2953.6782,-362.1246 2953.5233,-369.1229"/>
</g>
<!-- Node97&#45;&gt;Node41 -->
<g id="edge132" class="edge">
<title>Node97&#45;&gt;Node41</title>
<path fill="none" stroke="#191970" d="M2974.9226,-354.3552C2948.1514,-345.7591 2912.6306,-333.6801 2882,-321 2842.6977,-304.7301 2837.0549,-290.13 2796,-279 2590.3761,-223.2553 2525.6184,-290.7833 2318,-243 2268.6166,-231.6344 2260.4118,-215.9731 2212,-201 2142.7798,-179.5911 2122.9353,-183.9427 2053,-165 2046.3687,-163.2038 2039.2935,-161.0859 2032.6415,-159.0023"/>
<polygon fill="#191970" stroke="#191970" points="2974.1357,-357.7776 2984.7261,-357.4731 2976.2573,-351.1068 2974.1357,-357.7776"/>
</g>
<!-- Node97&#45;&gt;Node61 -->
<g id="edge138" class="edge">
<title>Node97&#45;&gt;Node61</title>
<path fill="none" stroke="#191970" d="M3078.3658,-364.7131C3202.3056,-359.6535 3470.5842,-345.9384 3504,-321 3555.6983,-282.4173 3568.7506,-198.6968 3571.9727,-164.5041"/>
<polygon fill="#191970" stroke="#191970" points="3078.1149,-361.2202 3068.2637,-365.1193 3078.3963,-368.2146 3078.1149,-361.2202"/>
</g>
<!-- Node97&#45;&gt;Node45 -->
<g id="edge140" class="edge">
<title>Node97&#45;&gt;Node45</title>
<path fill="none" stroke="#191970" d="M3078.2849,-364.9225C3192.7788,-360.4623 3427.2974,-348.0947 3452,-321 3487.9337,-281.5867 3477.8915,-248.1705 3453,-201 3423.778,-145.6232 3356.6145,-113.9891 3307.7326,-97.5719"/>
<polygon fill="#191970" stroke="#191970" points="3078.1146,-361.4264 3068.2553,-365.305 3078.3814,-368.4213 3078.1146,-361.4264"/>
</g>
<!-- Node97&#45;&gt;Node65 -->
<g id="edge133" class="edge">
<title>Node97&#45;&gt;Node65</title>
<path fill="none" stroke="#191970" d="M3016,-347.2758C3016,-336.9641 3016,-324.5437 3016,-315.0218"/>
<polygon fill="#191970" stroke="#191970" points="3012.5001,-347.4005 3016,-357.4005 3019.5001,-347.4006 3012.5001,-347.4005"/>
</g>
<!-- Node97&#45;&gt;Node70 -->
<g id="edge137" class="edge">
<title>Node97&#45;&gt;Node70</title>
<path fill="none" stroke="#191970" d="M2953.7039,-357.7325C2903.2561,-349.6808 2830.5507,-336.835 2768,-321 2761.1022,-319.2538 2753.8671,-317.1725 2746.8319,-315.0092"/>
<polygon fill="#191970" stroke="#191970" points="2953.3793,-361.2245 2963.803,-359.3278 2954.4716,-354.3103 2953.3793,-361.2245"/>
</g>
<!-- Node97&#45;&gt;Node26 -->
<g id="edge127" class="edge">
<title>Node97&#45;&gt;Node26</title>
<path fill="none" stroke="#191970" d="M2953.8466,-363.5153C2741.5877,-351.6145 2048.4436,-312.7521 1865.569,-302.4988"/>
<polygon fill="#191970" stroke="#191970" points="2953.7037,-367.0126 2963.8839,-364.078 2954.0956,-360.0236 2953.7037,-367.0126"/>
</g>
<!-- Node97&#45;&gt;Node71 -->
<g id="edge139" class="edge">
<title>Node97&#45;&gt;Node71</title>
<path fill="none" stroke="#191970" d="M3078.4603,-365.356C3177.503,-361.8954 3376.3406,-351.4655 3542,-321 3546.4656,-320.1787 3551.0504,-319.2052 3555.6439,-318.1343"/>
<polygon fill="#191970" stroke="#191970" points="3078.2023,-361.8627 3068.326,-365.6978 3078.4383,-368.8587 3078.2023,-361.8627"/>
</g>
<!-- Node100&#45;&gt;Node31 -->
<g id="edge156" class="edge">
<title>Node100&#45;&gt;Node31</title>
<path fill="none" stroke="#191970" d="M80.6404,-404.6295C109.4239,-356.1687 172.8908,-259.0579 250,-201 271.3225,-184.9456 298.3771,-172.95 321.7708,-164.594"/>
<polygon fill="#191970" stroke="#191970" points="77.5542,-402.9732 75.513,-413.3696 83.592,-406.5153 77.5542,-402.9732"/>
</g>
</g>
</svg>
