<?xml version="1.0" encoding="UTF-8" standalone="no"?>
<!DOCTYPE svg PUBLIC "-//W3C//DTD SVG 1.1//EN"
 "http://www.w3.org/Graphics/SVG/1.1/DTD/svg11.dtd">
<!-- Generated by graphviz version 2.43.0 (0)
 -->
<!-- Title: core/container/math_array.h Pages: 1 -->
<svg width="839pt" height="263pt"
 viewBox="0.00 0.00 838.50 263.00" xmlns="http://www.w3.org/2000/svg" xmlns:xlink="http://www.w3.org/1999/xlink">
<g id="graph0" class="graph" transform="scale(1 1) rotate(0) translate(4 259)">
<title>core/container/math_array.h</title>
<polygon fill="white" stroke="transparent" points="-4,4 -4,-259 834.5,-259 834.5,4 -4,4"/>
<!-- Node1 -->
<g id="node1" class="node">
<title>Node1</title>
<g id="a_node1"><a xlink:title=" ">
<polygon fill="#bfbfbf" stroke="black" points="263.5,-224.5 263.5,-254.5 378.5,-254.5 378.5,-224.5 263.5,-224.5"/>
<text text-anchor="start" x="271.5" y="-242.5" font-family="Helvetica,sans-Serif" font-size="10.00">core/container/math</text>
<text text-anchor="middle" x="321" y="-231.5" font-family="Helvetica,sans-Serif" font-size="10.00">_array.h</text>
</a>
</g>
</g>
<!-- Node2 -->
<g id="node2" class="node">
<title>Node2</title>
<g id="a_node2"><a xlink:title=" ">
<polygon fill="white" stroke="#bfbfbf" points="0,-168.5 0,-187.5 64,-187.5 64,-168.5 0,-168.5"/>
<text text-anchor="middle" x="32" y="-175.5" font-family="Helvetica,sans-Serif" font-size="10.00">algorithm</text>
</a>
</g>
</g>
<!-- Node1&#45;&gt;Node2 -->
<g id="edge1" class="edge">
<title>Node1&#45;&gt;Node2</title>
<path fill="none" stroke="midnightblue" d="M263.32,-227.01C215.28,-217.39 144.81,-203.13 74.18,-188.23"/>
<polygon fill="midnightblue" stroke="midnightblue" points="74.73,-184.77 64.22,-186.12 73.28,-191.61 74.73,-184.77"/>
</g>
<!-- Node3 -->
<g id="node3" class="node">
<title>Node3</title>
<g id="a_node3"><a xlink:title=" ">
<polygon fill="white" stroke="#bfbfbf" points="82,-168.5 82,-187.5 134,-187.5 134,-168.5 82,-168.5"/>
<text text-anchor="middle" x="108" y="-175.5" font-family="Helvetica,sans-Serif" font-size="10.00">cassert</text>
</a>
</g>
</g>
<!-- Node1&#45;&gt;Node3 -->
<g id="edge2" class="edge">
<title>Node1&#45;&gt;Node3</title>
<path fill="none" stroke="midnightblue" d="M270.79,-224.47C231.84,-213.59 178.78,-198.77 143.97,-189.05"/>
<polygon fill="midnightblue" stroke="midnightblue" points="144.81,-185.65 134.23,-186.33 142.92,-192.39 144.81,-185.65"/>
</g>
<!-- Node4 -->
<g id="node4" class="node">
<title>Node4</title>
<g id="a_node4"><a xlink:title=" ">
<polygon fill="white" stroke="#bfbfbf" points="152.5,-168.5 152.5,-187.5 199.5,-187.5 199.5,-168.5 152.5,-168.5"/>
<text text-anchor="middle" x="176" y="-175.5" font-family="Helvetica,sans-Serif" font-size="10.00">cmath</text>
</a>
</g>
</g>
<!-- Node1&#45;&gt;Node4 -->
<g id="edge3" class="edge">
<title>Node1&#45;&gt;Node4</title>
<path fill="none" stroke="midnightblue" d="M286.64,-224.4C262.31,-214.42 229.97,-201.15 206.54,-191.53"/>
<polygon fill="midnightblue" stroke="midnightblue" points="207.68,-188.22 197.1,-187.66 205.02,-194.69 207.68,-188.22"/>
</g>
<!-- Node5 -->
<g id="node5" class="node">
<title>Node5</title>
<g id="a_node5"><a xlink:title=" ">
<polygon fill="white" stroke="#bfbfbf" points="218,-168.5 218,-187.5 274,-187.5 274,-168.5 218,-168.5"/>
<text text-anchor="middle" x="246" y="-175.5" font-family="Helvetica,sans-Serif" font-size="10.00">numeric</text>
</a>
</g>
</g>
<!-- Node1&#45;&gt;Node5 -->
<g id="edge4" class="edge">
<title>Node1&#45;&gt;Node5</title>
<path fill="none" stroke="midnightblue" d="M303.23,-224.4C291.65,-215.22 276.58,-203.26 264.8,-193.92"/>
<polygon fill="midnightblue" stroke="midnightblue" points="266.92,-191.13 256.91,-187.66 262.57,-196.61 266.92,-191.13"/>
</g>
<!-- Node6 -->
<g id="node6" class="node">
<title>Node6</title>
<g id="a_node6"><a xlink:title=" ">
<polygon fill="white" stroke="#bfbfbf" points="292.5,-168.5 292.5,-187.5 349.5,-187.5 349.5,-168.5 292.5,-168.5"/>
<text text-anchor="middle" x="321" y="-175.5" font-family="Helvetica,sans-Serif" font-size="10.00">ostream</text>
</a>
</g>
</g>
<!-- Node1&#45;&gt;Node6 -->
<g id="edge5" class="edge">
<title>Node1&#45;&gt;Node6</title>
<path fill="none" stroke="midnightblue" d="M321,-224.4C321,-216.47 321,-206.46 321,-197.86"/>
<polygon fill="midnightblue" stroke="midnightblue" points="324.5,-197.66 321,-187.66 317.5,-197.66 324.5,-197.66"/>
</g>
<!-- Node7 -->
<g id="node7" class="node">
<title>Node7</title>
<g id="a_node7"><a xlink:title=" ">
<polygon fill="white" stroke="#bfbfbf" points="367.5,-168.5 367.5,-187.5 432.5,-187.5 432.5,-168.5 367.5,-168.5"/>
<text text-anchor="middle" x="400" y="-175.5" font-family="Helvetica,sans-Serif" font-size="10.00">stdexcept</text>
</a>
</g>
</g>
<!-- Node1&#45;&gt;Node7 -->
<g id="edge6" class="edge">
<title>Node1&#45;&gt;Node7</title>
<path fill="none" stroke="midnightblue" d="M339.72,-224.4C351.91,-215.22 367.79,-203.26 380.19,-193.92"/>
<polygon fill="midnightblue" stroke="midnightblue" points="382.62,-196.47 388.5,-187.66 378.41,-190.88 382.62,-196.47"/>
</g>
<!-- Node8 -->
<g id="node8" class="node">
<title>Node8</title>
<g id="a_node8"><a xlink:title=" ">
<polygon fill="white" stroke="#bfbfbf" points="450.5,-168.5 450.5,-187.5 495.5,-187.5 495.5,-168.5 450.5,-168.5"/>
<text text-anchor="middle" x="473" y="-175.5" font-family="Helvetica,sans-Serif" font-size="10.00">utility</text>
</a>
</g>
</g>
<!-- Node1&#45;&gt;Node8 -->
<g id="edge7" class="edge">
<title>Node1&#45;&gt;Node8</title>
<path fill="none" stroke="midnightblue" d="M357.02,-224.4C382.64,-214.37 416.73,-201.03 441.31,-191.4"/>
<polygon fill="midnightblue" stroke="midnightblue" points="442.85,-194.56 450.88,-187.66 440.29,-188.04 442.85,-194.56"/>
</g>
<!-- Node9 -->
<g id="node9" class="node">
<title>Node9</title>
<g id="a_node9"><a xlink:href="log_8h.html" target="_top" xlink:title=" ">
<polygon fill="white" stroke="black" points="482.5,-112.5 482.5,-131.5 565.5,-131.5 565.5,-112.5 482.5,-112.5"/>
<text text-anchor="middle" x="524" y="-119.5" font-family="Helvetica,sans-Serif" font-size="10.00">core/util/log.h</text>
</a>
</g>
</g>
<!-- Node1&#45;&gt;Node9 -->
<g id="edge8" class="edge">
<title>Node1&#45;&gt;Node9</title>
<path fill="none" stroke="midnightblue" d="M378.85,-236.64C418.9,-232.32 470.78,-220.26 504,-188 516.3,-176.06 521.08,-156.75 522.91,-142.28"/>
<polygon fill="midnightblue" stroke="midnightblue" points="526.43,-142.21 523.84,-131.94 519.46,-141.59 526.43,-142.21"/>
</g>
<!-- Node19 -->
<g id="node19" class="node">
<title>Node19</title>
<g id="a_node19"><a xlink:href="root_8h.html" target="_top" xlink:title=" ">
<polygon fill="white" stroke="black" points="552,-168.5 552,-187.5 640,-187.5 640,-168.5 552,-168.5"/>
<text text-anchor="middle" x="596" y="-175.5" font-family="Helvetica,sans-Serif" font-size="10.00">core/util/root.h</text>
</a>
</g>
</g>
<!-- Node1&#45;&gt;Node19 -->
<g id="edge19" class="edge">
<title>Node1&#45;&gt;Node19</title>
<path fill="none" stroke="midnightblue" d="M378.65,-226.03C428.39,-215.26 499.47,-199.89 546.63,-189.68"/>
<polygon fill="midnightblue" stroke="midnightblue" points="547.58,-193.06 556.61,-187.52 546.1,-186.22 547.58,-193.06"/>
</g>
<!-- Node10 -->
<g id="node10" class="node">
<title>Node10</title>
<g id="a_node10"><a xlink:title=" ">
<polygon fill="white" stroke="#bfbfbf" points="288,-56.5 288,-75.5 342,-75.5 342,-56.5 288,-56.5"/>
<text text-anchor="middle" x="315" y="-63.5" font-family="Helvetica,sans-Serif" font-size="10.00">TError.h</text>
</a>
</g>
</g>
<!-- Node9&#45;&gt;Node10 -->
<g id="edge9" class="edge">
<title>Node9&#45;&gt;Node10</title>
<path fill="none" stroke="midnightblue" d="M490.88,-112.44C453.08,-102.68 391.41,-86.74 352.04,-76.57"/>
<polygon fill="midnightblue" stroke="midnightblue" points="352.86,-73.17 342.3,-74.05 351.11,-79.94 352.86,-73.17"/>
</g>
<!-- Node11 -->
<g id="node11" class="node">
<title>Node11</title>
<g id="a_node11"><a xlink:title=" ">
<polygon fill="white" stroke="#bfbfbf" points="360,-56.5 360,-75.5 406,-75.5 406,-56.5 360,-56.5"/>
<text text-anchor="middle" x="383" y="-63.5" font-family="Helvetica,sans-Serif" font-size="10.00">cstdio</text>
</a>
</g>
</g>
<!-- Node9&#45;&gt;Node11 -->
<g id="edge10" class="edge">
<title>Node9&#45;&gt;Node11</title>
<path fill="none" stroke="midnightblue" d="M501.66,-112.44C478.25,-103.48 441.26,-89.31 414.81,-79.18"/>
<polygon fill="midnightblue" stroke="midnightblue" points="415.83,-75.82 405.24,-75.52 413.32,-82.36 415.83,-75.82"/>
</g>
<!-- Node12 -->
<g id="node12" class="node">
<title>Node12</title>
<g id="a_node12"><a xlink:title=" ">
<polygon fill="white" stroke="#bfbfbf" points="424.5,-56.5 424.5,-75.5 473.5,-75.5 473.5,-56.5 424.5,-56.5"/>
<text text-anchor="middle" x="449" y="-63.5" font-family="Helvetica,sans-Serif" font-size="10.00">cstdlib</text>
</a>
</g>
</g>
<!-- Node9&#45;&gt;Node12 -->
<g id="edge11" class="edge">
<title>Node9&#45;&gt;Node12</title>
<path fill="none" stroke="midnightblue" d="M511.95,-112.32C500.54,-104.11 483.17,-91.6 469.57,-81.81"/>
<polygon fill="midnightblue" stroke="midnightblue" points="471.43,-78.84 461.27,-75.83 467.34,-84.52 471.43,-78.84"/>
</g>
<!-- Node13 -->
<g id="node13" class="node">
<title>Node13</title>
<g id="a_node13"><a xlink:title=" ">
<polygon fill="white" stroke="#bfbfbf" points="491.5,-56.5 491.5,-75.5 556.5,-75.5 556.5,-56.5 491.5,-56.5"/>
<text text-anchor="middle" x="524" y="-63.5" font-family="Helvetica,sans-Serif" font-size="10.00">functional</text>
</a>
</g>
</g>
<!-- Node9&#45;&gt;Node13 -->
<g id="edge12" class="edge">
<title>Node9&#45;&gt;Node13</title>
<path fill="none" stroke="midnightblue" d="M524,-112.08C524,-105.01 524,-94.86 524,-85.99"/>
<polygon fill="midnightblue" stroke="midnightblue" points="527.5,-85.75 524,-75.75 520.5,-85.75 527.5,-85.75"/>
</g>
<!-- Node14 -->
<g id="node14" class="node">
<title>Node14</title>
<g id="a_node14"><a xlink:title=" ">
<polygon fill="white" stroke="#bfbfbf" points="575,-56.5 575,-75.5 635,-75.5 635,-56.5 575,-56.5"/>
<text text-anchor="middle" x="605" y="-63.5" font-family="Helvetica,sans-Serif" font-size="10.00">iostream</text>
</a>
</g>
</g>
<!-- Node9&#45;&gt;Node14 -->
<g id="edge13" class="edge">
<title>Node9&#45;&gt;Node14</title>
<path fill="none" stroke="midnightblue" d="M537.01,-112.32C549.53,-103.98 568.68,-91.21 583.47,-81.35"/>
<polygon fill="midnightblue" stroke="midnightblue" points="585.64,-84.11 592.02,-75.65 581.76,-78.29 585.64,-84.11"/>
</g>
<!-- Node15 -->
<g id="node15" class="node">
<title>Node15</title>
<g id="a_node15"><a xlink:title=" ">
<polygon fill="white" stroke="#bfbfbf" points="645,-0.5 645,-19.5 689,-19.5 689,-0.5 645,-0.5"/>
<text text-anchor="middle" x="667" y="-7.5" font-family="Helvetica,sans-Serif" font-size="10.00">string</text>
</a>
</g>
</g>
<!-- Node9&#45;&gt;Node15 -->
<g id="edge14" class="edge">
<title>Node9&#45;&gt;Node15</title>
<path fill="none" stroke="midnightblue" d="M555.55,-112.46C586.67,-103.47 631.38,-88.86 644,-76 656.17,-63.6 661.94,-44.36 664.65,-30.02"/>
<polygon fill="midnightblue" stroke="midnightblue" points="668.16,-30.22 666.23,-19.8 661.24,-29.15 668.16,-30.22"/>
</g>
<!-- Node16 -->
<g id="node16" class="node">
<title>Node16</title>
<g id="a_node16"><a xlink:href="string_8h.html" target="_top" xlink:title=" ">
<polygon fill="white" stroke="black" points="691,-56.5 691,-75.5 787,-75.5 787,-56.5 691,-56.5"/>
<text text-anchor="middle" x="739" y="-63.5" font-family="Helvetica,sans-Serif" font-size="10.00">core/util/string.h</text>
</a>
</g>
</g>
<!-- Node9&#45;&gt;Node16 -->
<g id="edge15" class="edge">
<title>Node9&#45;&gt;Node16</title>
<path fill="none" stroke="midnightblue" d="M558.07,-112.44C595.18,-103.12 654.66,-88.18 695.21,-78"/>
<polygon fill="midnightblue" stroke="midnightblue" points="696.25,-81.35 705.09,-75.52 694.54,-74.56 696.25,-81.35"/>
</g>
<!-- Node16&#45;&gt;Node15 -->
<g id="edge17" class="edge">
<title>Node16&#45;&gt;Node15</title>
<path fill="none" stroke="midnightblue" d="M727.43,-56.32C716.58,-48.18 700.12,-35.84 687.12,-26.09"/>
<polygon fill="midnightblue" stroke="midnightblue" points="688.88,-23.03 678.78,-19.83 684.68,-28.63 688.88,-23.03"/>
</g>
<!-- Node17 -->
<g id="node17" class="node">
<title>Node17</title>
<g id="a_node17"><a xlink:title=" ">
<polygon fill="white" stroke="#bfbfbf" points="709,-0.5 709,-19.5 765,-19.5 765,-0.5 709,-0.5"/>
<text text-anchor="middle" x="737" y="-7.5" font-family="Helvetica,sans-Serif" font-size="10.00">sstream</text>
</a>
</g>
</g>
<!-- Node16&#45;&gt;Node17 -->
<g id="edge16" class="edge">
<title>Node16&#45;&gt;Node17</title>
<path fill="none" stroke="midnightblue" d="M738.67,-56.08C738.41,-49.01 738.03,-38.86 737.7,-29.99"/>
<polygon fill="midnightblue" stroke="midnightblue" points="741.19,-29.61 737.32,-19.75 734.2,-29.87 741.19,-29.61"/>
</g>
<!-- Node18 -->
<g id="node18" class="node">
<title>Node18</title>
<g id="a_node18"><a xlink:title=" ">
<polygon fill="white" stroke="#bfbfbf" points="783.5,-0.5 783.5,-19.5 830.5,-19.5 830.5,-0.5 783.5,-0.5"/>
<text text-anchor="middle" x="807" y="-7.5" font-family="Helvetica,sans-Serif" font-size="10.00">vector</text>
</a>
</g>
</g>
<!-- Node16&#45;&gt;Node18 -->
<g id="edge18" class="edge">
<title>Node16&#45;&gt;Node18</title>
<path fill="none" stroke="midnightblue" d="M749.93,-56.32C760.17,-48.18 775.72,-35.84 788,-26.09"/>
<polygon fill="midnightblue" stroke="midnightblue" points="790.22,-28.79 795.88,-19.83 785.87,-23.31 790.22,-28.79"/>
</g>
<!-- Node19&#45;&gt;Node9 -->
<g id="edge21" class="edge">
<title>Node19&#45;&gt;Node9</title>
<path fill="none" stroke="midnightblue" d="M584.43,-168.32C573.58,-160.18 557.12,-147.84 544.12,-138.09"/>
<polygon fill="midnightblue" stroke="midnightblue" points="545.88,-135.03 535.78,-131.83 541.68,-140.63 545.88,-135.03"/>
</g>
<!-- Node20 -->
<g id="node20" class="node">
<title>Node20</title>
<g id="a_node20"><a xlink:title=" ">
<polygon fill="white" stroke="#bfbfbf" points="583.5,-112.5 583.5,-131.5 640.5,-131.5 640.5,-112.5 583.5,-112.5"/>
<text text-anchor="middle" x="612" y="-119.5" font-family="Helvetica,sans-Serif" font-size="10.00">TClass.h</text>
</a>
</g>
</g>
<!-- Node19&#45;&gt;Node20 -->
<g id="edge20" class="edge">
<title>Node19&#45;&gt;Node20</title>
<path fill="none" stroke="midnightblue" d="M598.64,-168.08C600.79,-160.85 603.88,-150.41 606.55,-141.4"/>
<polygon fill="midnightblue" stroke="midnightblue" points="609.92,-142.33 609.41,-131.75 603.21,-140.34 609.92,-142.33"/>
</g>
</g>
</svg>
