<?xml version="1.0" encoding="UTF-8" standalone="no"?>
<!DOCTYPE svg PUBLIC "-//W3C//DTD SVG 1.1//EN"
 "http://www.w3.org/Graphics/SVG/1.1/DTD/svg11.dtd">
<!-- Generated by graphviz version 2.40.1 (20161225.0304)
 -->
<!-- Title: core/operation/mechanical_forces_op_cuda.h Pages: 1 -->
<svg width="910pt" height="509pt"
 viewBox="0.00 0.00 909.50 509.00" xmlns="http://www.w3.org/2000/svg" xmlns:xlink="http://www.w3.org/1999/xlink">
<g id="graph0" class="graph" transform="scale(1 1) rotate(0) translate(4 505)">
<title>core/operation/mechanical_forces_op_cuda.h</title>
<polygon fill="#ffffff" stroke="transparent" points="-4,4 -4,-505 905.5,-505 905.5,4 -4,4"/>
<!-- Node0 -->
<g id="node1" class="node">
<title>Node0</title>
<polygon fill="#bfbfbf" stroke="#000000" points="114,-470.5 114,-500.5 245,-500.5 245,-470.5 114,-470.5"/>
<text text-anchor="start" x="122" y="-488.5" font-family="Helvetica,sans-Serif" font-size="10.00" fill="#000000">core/operation/mechanical</text>
<text text-anchor="middle" x="179.5" y="-477.5" font-family="Helvetica,sans-Serif" font-size="10.00" fill="#000000">_forces_op_cuda.h</text>
</g>
<!-- Node1 -->
<g id="node2" class="node">
<title>Node1</title>
<g id="a_node2"><a xlink:href="mechanical__forces__op__cuda__kernel_8h.html" target="_top" xlink:title="core/gpu/mechanical\l_forces_op_cuda_kernel.h">
<polygon fill="#ffffff" stroke="#000000" points="465,-403.5 465,-433.5 596,-433.5 596,-403.5 465,-403.5"/>
<text text-anchor="start" x="473" y="-421.5" font-family="Helvetica,sans-Serif" font-size="10.00" fill="#000000">core/gpu/mechanical</text>
<text text-anchor="middle" x="530.5" y="-410.5" font-family="Helvetica,sans-Serif" font-size="10.00" fill="#000000">_forces_op_cuda_kernel.h</text>
</a>
</g>
</g>
<!-- Node0&#45;&gt;Node1 -->
<g id="edge1" class="edge">
<title>Node0&#45;&gt;Node1</title>
<path fill="none" stroke="#191970" d="M245.1087,-472.9764C304.5975,-461.621 392.2741,-444.885 454.7289,-432.9634"/>
<polygon fill="#191970" stroke="#191970" points="455.7495,-436.3319 464.9158,-431.0189 454.4369,-429.456 455.7495,-436.3319"/>
</g>
<!-- Node29 -->
<g id="node30" class="node">
<title>Node29</title>
<g id="a_node30"><a xlink:href="operation_8h.html" target="_top" xlink:title="core/operation/operation.h">
<polygon fill="#ffffff" stroke="#000000" points="0,-168.5 0,-187.5 129,-187.5 129,-168.5 0,-168.5"/>
<text text-anchor="middle" x="64.5" y="-175.5" font-family="Helvetica,sans-Serif" font-size="10.00" fill="#000000">core/operation/operation.h</text>
</a>
</g>
</g>
<!-- Node0&#45;&gt;Node29 -->
<g id="edge37" class="edge">
<title>Node0&#45;&gt;Node29</title>
<path fill="none" stroke="#191970" d="M154.6477,-470.4283C123.3173,-449.3114 73.5,-407.7543 73.5,-357 73.5,-357 73.5,-357 73.5,-301 73.5,-264.4018 69.4877,-221.8411 66.821,-197.5962"/>
<polygon fill="#191970" stroke="#191970" points="70.2862,-197.0912 65.6766,-187.5517 63.3312,-197.8837 70.2862,-197.0912"/>
</g>
<!-- Node30 -->
<g id="node31" class="node">
<title>Node30</title>
<g id="a_node31"><a xlink:href="operation__registry_8h.html" target="_top" xlink:title="core/operation/operation\l_registry.h">
<polygon fill="#ffffff" stroke="#000000" points="119,-224.5 119,-254.5 240,-254.5 240,-224.5 119,-224.5"/>
<text text-anchor="start" x="127" y="-242.5" font-family="Helvetica,sans-Serif" font-size="10.00" fill="#000000">core/operation/operation</text>
<text text-anchor="middle" x="179.5" y="-231.5" font-family="Helvetica,sans-Serif" font-size="10.00" fill="#000000">_registry.h</text>
</a>
</g>
</g>
<!-- Node0&#45;&gt;Node30 -->
<g id="edge42" class="edge">
<title>Node0&#45;&gt;Node30</title>
<path fill="none" stroke="#191970" d="M179.5,-470.4819C179.5,-429.5667 179.5,-315.7883 179.5,-264.7921"/>
<polygon fill="#191970" stroke="#191970" points="183.0001,-264.6341 179.5,-254.6341 176.0001,-264.6341 183.0001,-264.6341"/>
</g>
<!-- Node2 -->
<g id="node3" class="node">
<title>Node2</title>
<g id="a_node3"><a xlink:href="math_8h.html" target="_top" xlink:title="math.h">
<polygon fill="#ffffff" stroke="#000000" points="474,-347.5 474,-366.5 521,-366.5 521,-347.5 474,-347.5"/>
<text text-anchor="middle" x="497.5" y="-354.5" font-family="Helvetica,sans-Serif" font-size="10.00" fill="#000000">math.h</text>
</a>
</g>
</g>
<!-- Node1&#45;&gt;Node2 -->
<g id="edge2" class="edge">
<title>Node1&#45;&gt;Node2</title>
<path fill="none" stroke="#191970" d="M522.3427,-403.2977C517.9051,-395.0277 512.375,-384.7215 507.6596,-375.9339"/>
<polygon fill="#191970" stroke="#191970" points="510.596,-374.0037 502.7837,-366.8469 504.4279,-377.3134 510.596,-374.0037"/>
</g>
<!-- Node27 -->
<g id="node28" class="node">
<title>Node27</title>
<polygon fill="#ffffff" stroke="#bfbfbf" points="539,-347.5 539,-366.5 588,-366.5 588,-347.5 539,-347.5"/>
<text text-anchor="middle" x="563.5" y="-354.5" font-family="Helvetica,sans-Serif" font-size="10.00" fill="#000000">stdint.h</text>
</g>
<!-- Node1&#45;&gt;Node27 -->
<g id="edge35" class="edge">
<title>Node1&#45;&gt;Node27</title>
<path fill="none" stroke="#191970" d="M538.6573,-403.2977C543.0949,-395.0277 548.625,-384.7215 553.3404,-375.9339"/>
<polygon fill="#191970" stroke="#191970" points="556.5721,-377.3134 558.2163,-366.8469 550.404,-374.0037 556.5721,-377.3134"/>
</g>
<!-- Node28 -->
<g id="node29" class="node">
<title>Node28</title>
<polygon fill="#ffffff" stroke="#bfbfbf" points="606.5,-347.5 606.5,-366.5 652.5,-366.5 652.5,-347.5 606.5,-347.5"/>
<text text-anchor="middle" x="629.5" y="-354.5" font-family="Helvetica,sans-Serif" font-size="10.00" fill="#000000">stdio.h</text>
</g>
<!-- Node1&#45;&gt;Node28 -->
<g id="edge36" class="edge">
<title>Node1&#45;&gt;Node28</title>
<path fill="none" stroke="#191970" d="M554.7181,-403.4554C570.0773,-393.9141 589.8757,-381.6151 605.2425,-372.0691"/>
<polygon fill="#191970" stroke="#191970" points="607.511,-374.7802 614.1585,-366.5303 603.8172,-368.8341 607.511,-374.7802"/>
</g>
<!-- Node3 -->
<g id="node4" class="node">
<title>Node3</title>
<polygon fill="#ffffff" stroke="#bfbfbf" points="835.5,-230 835.5,-249 873.5,-249 873.5,-230 835.5,-230"/>
<text text-anchor="middle" x="854.5" y="-237" font-family="Helvetica,sans-Serif" font-size="10.00" fill="#000000">array</text>
</g>
<!-- Node2&#45;&gt;Node3 -->
<g id="edge3" class="edge">
<title>Node2&#45;&gt;Node3</title>
<path fill="none" stroke="#191970" d="M521.1583,-349.1793C523.9536,-348.3825 526.7791,-347.6344 529.5,-347 630.264,-323.5052 664.2097,-351.3131 759.5,-311 790.3292,-297.9575 820.2207,-272.7483 837.9918,-256.02"/>
<polygon fill="#191970" stroke="#191970" points="840.4967,-258.4667 845.2639,-249.0049 835.6368,-253.4287 840.4967,-258.4667"/>
</g>
<!-- Node4 -->
<g id="node5" class="node">
<title>Node4</title>
<polygon fill="#ffffff" stroke="#bfbfbf" points="248.5,-168.5 248.5,-187.5 292.5,-187.5 292.5,-168.5 248.5,-168.5"/>
<text text-anchor="middle" x="270.5" y="-175.5" font-family="Helvetica,sans-Serif" font-size="10.00" fill="#000000">cmath</text>
</g>
<!-- Node2&#45;&gt;Node4 -->
<g id="edge4" class="edge">
<title>Node2&#45;&gt;Node4</title>
<path fill="none" stroke="#191970" d="M485.2955,-347.3762C448.2673,-318.1777 336.9257,-230.3797 290.8275,-194.0291"/>
<polygon fill="#191970" stroke="#191970" points="292.7844,-191.1151 282.7648,-187.6714 288.45,-196.6117 292.7844,-191.1151"/>
</g>
<!-- Node5 -->
<g id="node6" class="node">
<title>Node5</title>
<polygon fill="#ffffff" stroke="#bfbfbf" points="311,-168.5 311,-187.5 362,-187.5 362,-168.5 311,-168.5"/>
<text text-anchor="middle" x="336.5" y="-175.5" font-family="Helvetica,sans-Serif" font-size="10.00" fill="#000000">numeric</text>
</g>
<!-- Node2&#45;&gt;Node5 -->
<g id="edge5" class="edge">
<title>Node2&#45;&gt;Node5</title>
<path fill="none" stroke="#191970" d="M496.2138,-347.2565C492.5498,-323.1921 479.9321,-260.2727 444.5,-224 433.8778,-213.1258 398.961,-199.3045 371.6712,-189.6635"/>
<polygon fill="#191970" stroke="#191970" points="372.6161,-186.2867 362.0213,-186.3139 370.3206,-192.8996 372.6161,-186.2867"/>
</g>
<!-- Node6 -->
<g id="node7" class="node">
<title>Node6</title>
<polygon fill="#ffffff" stroke="#bfbfbf" points="262.5,-.5 262.5,-19.5 306.5,-19.5 306.5,-.5 262.5,-.5"/>
<text text-anchor="middle" x="284.5" y="-7.5" font-family="Helvetica,sans-Serif" font-size="10.00" fill="#000000">vector</text>
</g>
<!-- Node2&#45;&gt;Node6 -->
<g id="edge6" class="edge">
<title>Node2&#45;&gt;Node6</title>
<path fill="none" stroke="#191970" d="M521.1471,-349.1302C523.9444,-348.3422 526.7735,-347.6096 529.5,-347 643.7765,-321.4485 680.1806,-350.2635 790.5,-311 845.7851,-291.3236 901.5,-298.1822 901.5,-239.5 901.5,-239.5 901.5,-239.5 901.5,-122 901.5,-52.8078 827.3798,-73.7383 760.5,-56 571.8913,-5.976 512.0923,-56.9666 316.7011,-19.7956"/>
<polygon fill="#191970" stroke="#191970" points="317.1741,-16.3219 306.6882,-17.8368 315.8301,-23.1916 317.1741,-16.3219"/>
</g>
<!-- Node7 -->
<g id="node8" class="node">
<title>Node7</title>
<polygon fill="#ffffff" stroke="#bfbfbf" points="349,-291.5 349,-310.5 402,-310.5 402,-291.5 349,-291.5"/>
<text text-anchor="middle" x="375.5" y="-298.5" font-family="Helvetica,sans-Serif" font-size="10.00" fill="#000000">TMath.h</text>
</g>
<!-- Node2&#45;&gt;Node7 -->
<g id="edge7" class="edge">
<title>Node2&#45;&gt;Node7</title>
<path fill="none" stroke="#191970" d="M476.5275,-347.3733C456.9433,-338.3838 427.5039,-324.8706 405.449,-314.7471"/>
<polygon fill="#191970" stroke="#191970" points="406.7473,-311.4919 396.1989,-310.5011 403.8271,-317.8538 406.7473,-311.4919"/>
</g>
<!-- Node8 -->
<g id="node9" class="node">
<title>Node8</title>
<g id="a_node9"><a xlink:href="math__array_8h.html" target="_top" xlink:title="core/container/math\l_array.h">
<polygon fill="#ffffff" stroke="#000000" points="497,-224.5 497,-254.5 600,-254.5 600,-224.5 497,-224.5"/>
<text text-anchor="start" x="505" y="-242.5" font-family="Helvetica,sans-Serif" font-size="10.00" fill="#000000">core/container/math</text>
<text text-anchor="middle" x="548.5" y="-231.5" font-family="Helvetica,sans-Serif" font-size="10.00" fill="#000000">_array.h</text>
</a>
</g>
</g>
<!-- Node2&#45;&gt;Node8 -->
<g id="edge8" class="edge">
<title>Node2&#45;&gt;Node8</title>
<path fill="none" stroke="#191970" d="M501.6735,-347.3845C509.4862,-329.3847 526.5417,-290.0901 537.7688,-264.2239"/>
<polygon fill="#191970" stroke="#191970" points="541.1253,-265.2811 541.8963,-254.7143 534.7041,-262.4939 541.1253,-265.2811"/>
</g>
<!-- Node25 -->
<g id="node26" class="node">
<title>Node25</title>
<g id="a_node26"><a xlink:href="random_8h.html" target="_top" xlink:title="core/util/random.h">
<polygon fill="#ffffff" stroke="#000000" points="655,-291.5 655,-310.5 750,-310.5 750,-291.5 655,-291.5"/>
<text text-anchor="middle" x="702.5" y="-298.5" font-family="Helvetica,sans-Serif" font-size="10.00" fill="#000000">core/util/random.h</text>
</a>
</g>
</g>
<!-- Node2&#45;&gt;Node25 -->
<g id="edge29" class="edge">
<title>Node2&#45;&gt;Node25</title>
<path fill="none" stroke="#191970" d="M521.2314,-349.4593C524.0136,-348.6123 526.816,-347.7758 529.5,-347 571.6192,-334.8253 619.8536,-322.0996 654.6726,-313.1274"/>
<polygon fill="#191970" stroke="#191970" points="655.7582,-316.4622 664.5729,-310.5842 654.0165,-309.6824 655.7582,-316.4622"/>
</g>
<!-- Node8&#45;&gt;Node4 -->
<g id="edge11" class="edge">
<title>Node8&#45;&gt;Node4</title>
<path fill="none" stroke="#191970" d="M496.5595,-230.336C448.4748,-221.4782 374.8561,-206.9705 302.5026,-188.0686"/>
<polygon fill="#191970" stroke="#191970" points="303.3294,-184.667 292.7671,-185.4962 301.5411,-191.4347 303.3294,-184.667"/>
</g>
<!-- Node8&#45;&gt;Node5 -->
<g id="edge12" class="edge">
<title>Node8&#45;&gt;Node5</title>
<path fill="none" stroke="#191970" d="M496.9101,-224.534C458.2566,-213.3209 406.3596,-198.2659 372.2,-188.3564"/>
<polygon fill="#191970" stroke="#191970" points="372.7817,-184.8809 362.2025,-185.4561 370.8314,-191.6037 372.7817,-184.8809"/>
</g>
<!-- Node9 -->
<g id="node10" class="node">
<title>Node9</title>
<polygon fill="#ffffff" stroke="#bfbfbf" points="586.5,-168.5 586.5,-187.5 642.5,-187.5 642.5,-168.5 586.5,-168.5"/>
<text text-anchor="middle" x="614.5" y="-175.5" font-family="Helvetica,sans-Serif" font-size="10.00" fill="#000000">algorithm</text>
</g>
<!-- Node8&#45;&gt;Node9 -->
<g id="edge9" class="edge">
<title>Node8&#45;&gt;Node9</title>
<path fill="none" stroke="#191970" d="M564.8146,-224.2977C574.4533,-215.3163 586.6691,-203.9334 596.5759,-194.702"/>
<polygon fill="#191970" stroke="#191970" points="599.0025,-197.2249 603.9326,-187.8469 594.2304,-192.1036 599.0025,-197.2249"/>
</g>
<!-- Node10 -->
<g id="node11" class="node">
<title>Node10</title>
<polygon fill="#ffffff" stroke="#bfbfbf" points="661,-168.5 661,-187.5 710,-187.5 710,-168.5 661,-168.5"/>
<text text-anchor="middle" x="685.5" y="-175.5" font-family="Helvetica,sans-Serif" font-size="10.00" fill="#000000">cassert</text>
</g>
<!-- Node8&#45;&gt;Node10 -->
<g id="edge10" class="edge">
<title>Node8&#45;&gt;Node10</title>
<path fill="none" stroke="#191970" d="M582.014,-224.4554C604.2712,-214.464 633.2647,-201.4487 654.8985,-191.7372"/>
<polygon fill="#191970" stroke="#191970" points="656.5803,-194.8187 664.2699,-187.5303 653.7135,-188.4327 656.5803,-194.8187"/>
</g>
<!-- Node11 -->
<g id="node12" class="node">
<title>Node11</title>
<polygon fill="#ffffff" stroke="#bfbfbf" points="380.5,-168.5 380.5,-187.5 432.5,-187.5 432.5,-168.5 380.5,-168.5"/>
<text text-anchor="middle" x="406.5" y="-175.5" font-family="Helvetica,sans-Serif" font-size="10.00" fill="#000000">ostream</text>
</g>
<!-- Node8&#45;&gt;Node11 -->
<g id="edge13" class="edge">
<title>Node8&#45;&gt;Node11</title>
<path fill="none" stroke="#191970" d="M513.7629,-224.4554C490.5894,-214.419 460.3708,-201.3314 437.9158,-191.6061"/>
<polygon fill="#191970" stroke="#191970" points="439.0723,-188.2929 428.505,-187.5303 436.2903,-194.7164 439.0723,-188.2929"/>
</g>
<!-- Node12 -->
<g id="node13" class="node">
<title>Node12</title>
<polygon fill="#ffffff" stroke="#bfbfbf" points="451,-168.5 451,-187.5 510,-187.5 510,-168.5 451,-168.5"/>
<text text-anchor="middle" x="480.5" y="-175.5" font-family="Helvetica,sans-Serif" font-size="10.00" fill="#000000">stdexcept</text>
</g>
<!-- Node8&#45;&gt;Node12 -->
<g id="edge14" class="edge">
<title>Node8&#45;&gt;Node12</title>
<path fill="none" stroke="#191970" d="M531.691,-224.2977C521.7603,-215.3163 509.1743,-203.9334 498.9673,-194.702"/>
<polygon fill="#191970" stroke="#191970" points="501.152,-191.9588 491.3877,-187.8469 496.4566,-197.1505 501.152,-191.9588"/>
</g>
<!-- Node13 -->
<g id="node14" class="node">
<title>Node13</title>
<polygon fill="#ffffff" stroke="#bfbfbf" points="528.5,-168.5 528.5,-187.5 568.5,-187.5 568.5,-168.5 528.5,-168.5"/>
<text text-anchor="middle" x="548.5" y="-175.5" font-family="Helvetica,sans-Serif" font-size="10.00" fill="#000000">utility</text>
</g>
<!-- Node8&#45;&gt;Node13 -->
<g id="edge15" class="edge">
<title>Node8&#45;&gt;Node13</title>
<path fill="none" stroke="#191970" d="M548.5,-224.2977C548.5,-216.3834 548.5,-206.6043 548.5,-198.0759"/>
<polygon fill="#191970" stroke="#191970" points="552.0001,-197.8469 548.5,-187.8469 545.0001,-197.847 552.0001,-197.8469"/>
</g>
<!-- Node14 -->
<g id="node15" class="node">
<title>Node14</title>
<g id="a_node15"><a xlink:href="root_8h.html" target="_top" xlink:title="core/util/root.h">
<polygon fill="#ffffff" stroke="#000000" points="728,-168.5 728,-187.5 807,-187.5 807,-168.5 728,-168.5"/>
<text text-anchor="middle" x="767.5" y="-175.5" font-family="Helvetica,sans-Serif" font-size="10.00" fill="#000000">core/util/root.h</text>
</a>
</g>
</g>
<!-- Node8&#45;&gt;Node14 -->
<g id="edge16" class="edge">
<title>Node8&#45;&gt;Node14</title>
<path fill="none" stroke="#191970" d="M600.1226,-225.0032C637.8048,-214.4212 688.3198,-200.2355 723.9662,-190.2252"/>
<polygon fill="#191970" stroke="#191970" points="724.9218,-193.5924 733.6031,-187.519 723.0292,-186.8531 724.9218,-193.5924"/>
</g>
<!-- Node15 -->
<g id="node16" class="node">
<title>Node15</title>
<polygon fill="#ffffff" stroke="#bfbfbf" points="739.5,-112.5 739.5,-131.5 795.5,-131.5 795.5,-112.5 739.5,-112.5"/>
<text text-anchor="middle" x="767.5" y="-119.5" font-family="Helvetica,sans-Serif" font-size="10.00" fill="#000000">TClass.h</text>
</g>
<!-- Node14&#45;&gt;Node15 -->
<g id="edge17" class="edge">
<title>Node14&#45;&gt;Node15</title>
<path fill="none" stroke="#191970" d="M767.5,-168.2455C767.5,-160.9382 767.5,-150.6944 767.5,-141.7046"/>
<polygon fill="#191970" stroke="#191970" points="771.0001,-141.6426 767.5,-131.6427 764.0001,-141.6427 771.0001,-141.6426"/>
</g>
<!-- Node16 -->
<g id="node17" class="node">
<title>Node16</title>
<g id="a_node17"><a xlink:href="log_8h.html" target="_top" xlink:title="core/util/log.h">
<polygon fill="#ffffff" stroke="#000000" points="340,-112.5 340,-131.5 415,-131.5 415,-112.5 340,-112.5"/>
<text text-anchor="middle" x="377.5" y="-119.5" font-family="Helvetica,sans-Serif" font-size="10.00" fill="#000000">core/util/log.h</text>
</a>
</g>
</g>
<!-- Node14&#45;&gt;Node16 -->
<g id="edge18" class="edge">
<title>Node14&#45;&gt;Node16</title>
<path fill="none" stroke="#191970" d="M727.99,-169.5347C725.1213,-168.9919 722.2688,-168.474 719.5,-168 614.9631,-150.1042 491.4603,-134.9618 425.212,-127.3225"/>
<polygon fill="#191970" stroke="#191970" points="425.4163,-123.8231 415.0828,-126.1616 424.6192,-130.7776 425.4163,-123.8231"/>
</g>
<!-- Node17 -->
<g id="node18" class="node">
<title>Node17</title>
<polygon fill="#ffffff" stroke="#bfbfbf" points="486.5,-56.5 486.5,-75.5 538.5,-75.5 538.5,-56.5 486.5,-56.5"/>
<text text-anchor="middle" x="512.5" y="-63.5" font-family="Helvetica,sans-Serif" font-size="10.00" fill="#000000">TError.h</text>
</g>
<!-- Node16&#45;&gt;Node17 -->
<g id="edge19" class="edge">
<title>Node16&#45;&gt;Node17</title>
<path fill="none" stroke="#191970" d="M400.7073,-112.3733C422.6699,-103.2629 455.8332,-89.5062 480.3401,-79.3404"/>
<polygon fill="#191970" stroke="#191970" points="481.6997,-82.5657 489.5955,-75.5011 479.0176,-76.0999 481.6997,-82.5657"/>
</g>
<!-- Node18 -->
<g id="node19" class="node">
<title>Node18</title>
<polygon fill="#ffffff" stroke="#bfbfbf" points="708,-56.5 708,-75.5 751,-75.5 751,-56.5 708,-56.5"/>
<text text-anchor="middle" x="729.5" y="-63.5" font-family="Helvetica,sans-Serif" font-size="10.00" fill="#000000">cstdio</text>
</g>
<!-- Node16&#45;&gt;Node18 -->
<g id="edge20" class="edge">
<title>Node16&#45;&gt;Node18</title>
<path fill="none" stroke="#191970" d="M415.1702,-116.007C484.8916,-104.915 632.8526,-81.3757 697.8057,-71.0423"/>
<polygon fill="#191970" stroke="#191970" points="698.5281,-74.4714 707.854,-69.4437 697.4282,-67.5584 698.5281,-74.4714"/>
</g>
<!-- Node19 -->
<g id="node20" class="node">
<title>Node19</title>
<polygon fill="#ffffff" stroke="#bfbfbf" points="423,-56.5 423,-75.5 468,-75.5 468,-56.5 423,-56.5"/>
<text text-anchor="middle" x="445.5" y="-63.5" font-family="Helvetica,sans-Serif" font-size="10.00" fill="#000000">cstdlib</text>
</g>
<!-- Node16&#45;&gt;Node19 -->
<g id="edge21" class="edge">
<title>Node16&#45;&gt;Node19</title>
<path fill="none" stroke="#191970" d="M389.3447,-112.2455C399.388,-103.9746 413.9995,-91.9416 425.8004,-82.2232"/>
<polygon fill="#191970" stroke="#191970" points="428.2967,-84.7015 433.791,-75.6427 423.8467,-79.298 428.2967,-84.7015"/>
</g>
<!-- Node20 -->
<g id="node21" class="node">
<title>Node20</title>
<polygon fill="#ffffff" stroke="#bfbfbf" points="131,-56.5 131,-75.5 190,-75.5 190,-56.5 131,-56.5"/>
<text text-anchor="middle" x="160.5" y="-63.5" font-family="Helvetica,sans-Serif" font-size="10.00" fill="#000000">functional</text>
</g>
<!-- Node16&#45;&gt;Node20 -->
<g id="edge22" class="edge">
<title>Node16&#45;&gt;Node20</title>
<path fill="none" stroke="#191970" d="M340.1964,-112.3733C301.0687,-102.2758 239.8241,-86.4707 199.9204,-76.173"/>
<polygon fill="#191970" stroke="#191970" points="200.5709,-72.7263 190.0135,-73.6164 198.8217,-79.5042 200.5709,-72.7263"/>
</g>
<!-- Node21 -->
<g id="node22" class="node">
<title>Node21</title>
<polygon fill="#ffffff" stroke="#bfbfbf" points="350.5,-56.5 350.5,-75.5 404.5,-75.5 404.5,-56.5 350.5,-56.5"/>
<text text-anchor="middle" x="377.5" y="-63.5" font-family="Helvetica,sans-Serif" font-size="10.00" fill="#000000">iostream</text>
</g>
<!-- Node16&#45;&gt;Node21 -->
<g id="edge23" class="edge">
<title>Node16&#45;&gt;Node21</title>
<path fill="none" stroke="#191970" d="M377.5,-112.2455C377.5,-104.9382 377.5,-94.6944 377.5,-85.7046"/>
<polygon fill="#191970" stroke="#191970" points="381.0001,-85.6426 377.5,-75.6427 374.0001,-85.6427 381.0001,-85.6426"/>
</g>
<!-- Node22 -->
<g id="node23" class="node">
<title>Node22</title>
<polygon fill="#ffffff" stroke="#bfbfbf" points="198,-.5 198,-19.5 239,-19.5 239,-.5 198,-.5"/>
<text text-anchor="middle" x="218.5" y="-7.5" font-family="Helvetica,sans-Serif" font-size="10.00" fill="#000000">string</text>
</g>
<!-- Node16&#45;&gt;Node22 -->
<g id="edge24" class="edge">
<title>Node16&#45;&gt;Node22</title>
<path fill="none" stroke="#191970" d="M339.8741,-113.8246C303.479,-105.2014 251.7898,-90.831 237.5,-76 225.6331,-63.6837 221.0995,-44.4492 219.4069,-29.9155"/>
<polygon fill="#191970" stroke="#191970" points="222.8923,-29.5932 218.592,-19.9103 215.9154,-30.1615 222.8923,-29.5932"/>
</g>
<!-- Node23 -->
<g id="node24" class="node">
<title>Node23</title>
<g id="a_node24"><a xlink:href="string_8h.html" target="_top" xlink:title="core/util/string.h">
<polygon fill="#ffffff" stroke="#000000" points="246.5,-56.5 246.5,-75.5 332.5,-75.5 332.5,-56.5 246.5,-56.5"/>
<text text-anchor="middle" x="289.5" y="-63.5" font-family="Helvetica,sans-Serif" font-size="10.00" fill="#000000">core/util/string.h</text>
</a>
</g>
</g>
<!-- Node16&#45;&gt;Node23 -->
<g id="edge25" class="edge">
<title>Node16&#45;&gt;Node23</title>
<path fill="none" stroke="#191970" d="M362.1716,-112.2455C348.6697,-103.6534 328.7878,-91.0014 313.2314,-81.1018"/>
<polygon fill="#191970" stroke="#191970" points="314.9685,-78.0587 304.6528,-75.6427 311.2103,-83.9643 314.9685,-78.0587"/>
</g>
<!-- Node23&#45;&gt;Node6 -->
<g id="edge28" class="edge">
<title>Node23&#45;&gt;Node6</title>
<path fill="none" stroke="#191970" d="M288.6291,-56.2455C287.9766,-48.9382 287.062,-38.6944 286.2593,-29.7046"/>
<polygon fill="#191970" stroke="#191970" points="289.7365,-29.2918 285.361,-19.6427 282.7642,-29.9143 289.7365,-29.2918"/>
</g>
<!-- Node23&#45;&gt;Node22 -->
<g id="edge27" class="edge">
<title>Node23&#45;&gt;Node22</title>
<path fill="none" stroke="#191970" d="M277.1327,-56.2455C266.5446,-47.8943 251.0936,-35.7076 238.7107,-25.9408"/>
<polygon fill="#191970" stroke="#191970" points="240.7447,-23.0875 230.7255,-19.6427 236.4097,-28.5837 240.7447,-23.0875"/>
</g>
<!-- Node24 -->
<g id="node25" class="node">
<title>Node24</title>
<polygon fill="#ffffff" stroke="#bfbfbf" points="324.5,-.5 324.5,-19.5 376.5,-19.5 376.5,-.5 324.5,-.5"/>
<text text-anchor="middle" x="350.5" y="-7.5" font-family="Helvetica,sans-Serif" font-size="10.00" fill="#000000">sstream</text>
</g>
<!-- Node23&#45;&gt;Node24 -->
<g id="edge26" class="edge">
<title>Node23&#45;&gt;Node24</title>
<path fill="none" stroke="#191970" d="M300.1254,-56.2455C309.0473,-48.0549 321.988,-36.1749 332.5192,-26.5069"/>
<polygon fill="#191970" stroke="#191970" points="334.9968,-28.9837 339.9964,-19.6427 330.2629,-23.8271 334.9968,-28.9837"/>
</g>
<!-- Node25&#45;&gt;Node3 -->
<g id="edge30" class="edge">
<title>Node25&#45;&gt;Node3</title>
<path fill="none" stroke="#191970" d="M728.7119,-291.4713C752.9663,-282.512 789.9319,-268.4954 821.5,-255 823.0605,-254.3329 824.6562,-253.6355 826.2624,-252.9214"/>
<polygon fill="#191970" stroke="#191970" points="827.7654,-256.0828 835.4081,-248.7453 824.8577,-249.7153 827.7654,-256.0828"/>
</g>
<!-- Node25&#45;&gt;Node8 -->
<g id="edge33" class="edge">
<title>Node25&#45;&gt;Node8</title>
<path fill="none" stroke="#191970" d="M678.4375,-291.3906C656.3411,-282.5664 622.9719,-269.2404 595.5828,-258.3026"/>
<polygon fill="#191970" stroke="#191970" points="596.7576,-255.003 586.1726,-254.5446 594.1614,-261.5038 596.7576,-255.003"/>
</g>
<!-- Node25&#45;&gt;Node14 -->
<g id="edge34" class="edge">
<title>Node25&#45;&gt;Node14</title>
<path fill="none" stroke="#191970" d="M698.7588,-291.3017C693.5002,-275.9811 685.7973,-245.6938 697.5,-224 705.073,-209.9617 719.0073,-199.5084 732.4614,-192.1453"/>
<polygon fill="#191970" stroke="#191970" points="734.258,-195.1593 741.615,-187.5353 731.1094,-188.9074 734.258,-195.1593"/>
</g>
<!-- Node25&#45;&gt;Node18 -->
<g id="edge31" class="edge">
<title>Node25&#45;&gt;Node18</title>
<path fill="none" stroke="#191970" d="M731.264,-291.3861C749.7077,-283.9577 773.0111,-272.0403 788.5,-255 810.2078,-231.1179 810.1539,-219.6434 816.5,-188 823.2242,-154.4714 824.2539,-139.9136 804.5,-112 793.6855,-96.7183 776.0352,-85.5255 760.5734,-78.009"/>
<polygon fill="#191970" stroke="#191970" points="761.862,-74.7502 751.3098,-73.8004 758.9665,-81.1233 761.862,-74.7502"/>
</g>
<!-- Node26 -->
<g id="node27" class="node">
<title>Node26</title>
<polygon fill="#ffffff" stroke="#bfbfbf" points="706,-230 706,-249 779,-249 779,-230 706,-230"/>
<text text-anchor="middle" x="742.5" y="-237" font-family="Helvetica,sans-Serif" font-size="10.00" fill="#000000">TRandom3.h</text>
</g>
<!-- Node25&#45;&gt;Node26 -->
<g id="edge32" class="edge">
<title>Node25&#45;&gt;Node26</title>
<path fill="none" stroke="#191970" d="M708.75,-291.3906C714.5865,-282.417 723.4509,-268.7879 730.6306,-257.7491"/>
<polygon fill="#191970" stroke="#191970" points="733.6436,-259.5361 736.1619,-249.2449 727.7755,-255.7194 733.6436,-259.5361"/>
</g>
<!-- Node29&#45;&gt;Node6 -->
<g id="edge40" class="edge">
<title>Node29&#45;&gt;Node6</title>
<path fill="none" stroke="#191970" d="M67.8062,-168.4018C76.9235,-142.4433 102.973,-71.7446 121.5,-56 124.0571,-53.8269 205.8973,-31.3501 252.6163,-18.6399"/>
<polygon fill="#191970" stroke="#191970" points="253.5557,-22.0117 262.2879,-16.0117 251.72,-15.2566 253.5557,-22.0117"/>
</g>
<!-- Node29&#45;&gt;Node16 -->
<g id="edge41" class="edge">
<title>Node29&#45;&gt;Node16</title>
<path fill="none" stroke="#191970" d="M117.951,-168.4369C177.4536,-157.791 272.7335,-140.7442 329.8023,-130.5338"/>
<polygon fill="#191970" stroke="#191970" points="330.7691,-133.9165 339.9964,-128.7099 329.5362,-127.0259 330.7691,-133.9165"/>
</g>
<!-- Node29&#45;&gt;Node20 -->
<g id="edge38" class="edge">
<title>Node29&#45;&gt;Node20</title>
<path fill="none" stroke="#191970" d="M77.3106,-168.2288C88.3831,-159.4346 104.4571,-145.8066 116.5,-132 129.466,-117.1352 141.697,-98.243 149.9565,-84.4836"/>
<polygon fill="#191970" stroke="#191970" points="153.1835,-85.8996 155.2225,-75.5028 147.145,-82.3588 153.1835,-85.8996"/>
</g>
<!-- Node29&#45;&gt;Node22 -->
<g id="edge39" class="edge">
<title>Node29&#45;&gt;Node22</title>
<path fill="none" stroke="#191970" d="M63.4482,-168.4097C61.5317,-145.8806 59.9954,-88.9979 88.5,-56 101.6902,-40.7307 153.8721,-25.626 187.9792,-17.0892"/>
<polygon fill="#191970" stroke="#191970" points="189.0385,-20.4334 197.9207,-14.6578 187.3754,-13.6338 189.0385,-20.4334"/>
</g>
<!-- Node30&#45;&gt;Node29 -->
<g id="edge43" class="edge">
<title>Node30&#45;&gt;Node29</title>
<path fill="none" stroke="#191970" d="M151.3678,-224.4554C133.0214,-214.644 109.2223,-201.9167 91.1749,-192.2653"/>
<polygon fill="#191970" stroke="#191970" points="92.7897,-189.1598 82.3209,-187.5303 89.4886,-195.3326 92.7897,-189.1598"/>
</g>
<!-- Node31 -->
<g id="node32" class="node">
<title>Node31</title>
<polygon fill="#ffffff" stroke="#bfbfbf" points="147,-168.5 147,-187.5 230,-187.5 230,-168.5 147,-168.5"/>
<text text-anchor="middle" x="188.5" y="-175.5" font-family="Helvetica,sans-Serif" font-size="10.00" fill="#000000">unordered_map</text>
</g>
<!-- Node30&#45;&gt;Node31 -->
<g id="edge44" class="edge">
<title>Node30&#45;&gt;Node31</title>
<path fill="none" stroke="#191970" d="M181.7247,-224.2977C182.8959,-216.2945 184.3462,-206.3843 185.6041,-197.7889"/>
<polygon fill="#191970" stroke="#191970" points="189.074,-198.2484 187.059,-187.8469 182.1478,-197.2347 189.074,-198.2484"/>
</g>
</g>
</svg>
