<?xml version="1.0" encoding="UTF-8" standalone="no"?>
<!DOCTYPE svg PUBLIC "-//W3C//DTD SVG 1.1//EN"
 "http://www.w3.org/Graphics/SVG/1.1/DTD/svg11.dtd">
<!-- Generated by graphviz version 2.43.0 (0)
 -->
<!-- Title: neuroscience/module.cc Pages: 1 -->
<svg width="1289pt" height="431pt"
 viewBox="0.00 0.00 1289.01 431.00" xmlns="http://www.w3.org/2000/svg" xmlns:xlink="http://www.w3.org/1999/xlink">
<g id="graph0" class="graph" transform="scale(1 1) rotate(0) translate(4 427)">
<title>neuroscience/module.cc</title>
<polygon fill="white" stroke="transparent" points="-4,4 -4,-427 1285.01,-427 1285.01,4 -4,4"/>
<!-- Node1 -->
<g id="node1" class="node">
<title>Node1</title>
<g id="a_node1"><a xlink:title=" ">
<polygon fill="#bfbfbf" stroke="black" points="578,-403.5 578,-422.5 712,-422.5 712,-403.5 578,-403.5"/>
<text text-anchor="middle" x="645" y="-410.5" font-family="Helvetica,sans-Serif" font-size="10.00">neuroscience/module.cc</text>
</a>
</g>
</g>
<!-- Node2 -->
<g id="node2" class="node">
<title>Node2</title>
<g id="a_node2"><a xlink:href="module_8h.html" target="_top" xlink:title=" ">
<polygon fill="white" stroke="black" points="439,-347.5 439,-366.5 569,-366.5 569,-347.5 439,-347.5"/>
<text text-anchor="middle" x="504" y="-354.5" font-family="Helvetica,sans-Serif" font-size="10.00">neuroscience/module.h</text>
</a>
</g>
</g>
<!-- Node1&#45;&gt;Node2 -->
<g id="edge1" class="edge">
<title>Node1&#45;&gt;Node2</title>
<path fill="none" stroke="midnightblue" d="M622.66,-403.44C599.25,-394.48 562.26,-380.31 535.81,-370.18"/>
<polygon fill="midnightblue" stroke="midnightblue" points="536.83,-366.82 526.24,-366.52 534.32,-373.36 536.83,-366.82"/>
</g>
<!-- Node3 -->
<g id="node3" class="node">
<title>Node3</title>
<g id="a_node3"><a xlink:href="core_2param_2param_8h.html" target="_top" xlink:title=" ">
<polygon fill="white" stroke="black" points="587,-347.5 587,-366.5 703,-366.5 703,-347.5 587,-347.5"/>
<text text-anchor="middle" x="645" y="-354.5" font-family="Helvetica,sans-Serif" font-size="10.00">core/param/param.h</text>
</a>
</g>
</g>
<!-- Node1&#45;&gt;Node3 -->
<g id="edge2" class="edge">
<title>Node1&#45;&gt;Node3</title>
<path fill="none" stroke="midnightblue" d="M645,-403.08C645,-396.01 645,-385.86 645,-376.99"/>
<polygon fill="midnightblue" stroke="midnightblue" points="648.5,-376.75 645,-366.75 641.5,-376.75 648.5,-376.75"/>
</g>
<!-- Node37 -->
<g id="node37" class="node">
<title>Node37</title>
<g id="a_node37"><a xlink:href="neuroscience_2param_8h.html" target="_top" xlink:title=" ">
<polygon fill="white" stroke="black" points="1028.5,-347.5 1028.5,-366.5 1153.5,-366.5 1153.5,-347.5 1028.5,-347.5"/>
<text text-anchor="middle" x="1091" y="-354.5" font-family="Helvetica,sans-Serif" font-size="10.00">neuroscience/param.h</text>
</a>
</g>
</g>
<!-- Node1&#45;&gt;Node37 -->
<g id="edge45" class="edge">
<title>Node1&#45;&gt;Node37</title>
<path fill="none" stroke="midnightblue" d="M712.25,-403.86C794.57,-393.89 933.42,-377.08 1018.19,-366.82"/>
<polygon fill="midnightblue" stroke="midnightblue" points="1018.74,-370.27 1028.25,-365.6 1017.9,-363.32 1018.74,-370.27"/>
</g>
<!-- Node4 -->
<g id="node4" class="node">
<title>Node4</title>
<g id="a_node4"><a xlink:title=" ">
<polygon fill="white" stroke="#bfbfbf" points="877,-291.5 877,-310.5 939,-310.5 939,-291.5 877,-291.5"/>
<text text-anchor="middle" x="908" y="-298.5" font-family="Helvetica,sans-Serif" font-size="10.00">cinttypes</text>
</a>
</g>
</g>
<!-- Node3&#45;&gt;Node4 -->
<g id="edge3" class="edge">
<title>Node3&#45;&gt;Node4</title>
<path fill="none" stroke="midnightblue" d="M686.67,-347.44C736.03,-337.31 817.73,-320.54 866.85,-310.45"/>
<polygon fill="midnightblue" stroke="midnightblue" points="867.73,-313.84 876.82,-308.4 866.32,-306.99 867.73,-313.84"/>
</g>
<!-- Node5 -->
<g id="node5" class="node">
<title>Node5</title>
<g id="a_node5"><a xlink:title=" ">
<polygon fill="white" stroke="#bfbfbf" points="0,-291.5 0,-310.5 38,-310.5 38,-291.5 0,-291.5"/>
<text text-anchor="middle" x="19" y="-298.5" font-family="Helvetica,sans-Serif" font-size="10.00">map</text>
</a>
</g>
</g>
<!-- Node3&#45;&gt;Node5 -->
<g id="edge4" class="edge">
<title>Node3&#45;&gt;Node5</title>
<path fill="none" stroke="midnightblue" d="M586.92,-347.96C583.91,-347.62 580.92,-347.29 578,-347 345.99,-323.58 281.14,-354.62 48.26,-310.76"/>
<polygon fill="midnightblue" stroke="midnightblue" points="48.6,-307.26 38.12,-308.82 47.29,-314.14 48.6,-307.26"/>
</g>
<!-- Node6 -->
<g id="node6" class="node">
<title>Node6</title>
<g id="a_node6"><a xlink:title=" ">
<polygon fill="white" stroke="#bfbfbf" points="901,-230 901,-249 959,-249 959,-230 901,-230"/>
<text text-anchor="middle" x="930" y="-237" font-family="Helvetica,sans-Serif" font-size="10.00">memory</text>
</a>
</g>
</g>
<!-- Node3&#45;&gt;Node6 -->
<g id="edge5" class="edge">
<title>Node3&#45;&gt;Node6</title>
<path fill="none" stroke="midnightblue" d="M703.11,-347.64C740.51,-340.87 789.52,-329.39 830,-311 861.7,-296.6 893.8,-271.74 912.79,-255.72"/>
<polygon fill="midnightblue" stroke="midnightblue" points="915.25,-258.22 920.55,-249.05 910.68,-252.92 915.25,-258.22"/>
</g>
<!-- Node7 -->
<g id="node7" class="node">
<title>Node7</title>
<g id="a_node7"><a xlink:title=" ">
<polygon fill="white" stroke="#bfbfbf" points="957,-291.5 957,-310.5 989,-310.5 989,-291.5 957,-291.5"/>
<text text-anchor="middle" x="973" y="-298.5" font-family="Helvetica,sans-Serif" font-size="10.00">set</text>
</a>
</g>
</g>
<!-- Node3&#45;&gt;Node7 -->
<g id="edge6" class="edge">
<title>Node3&#45;&gt;Node7</title>
<path fill="none" stroke="midnightblue" d="M703.19,-350.82C762.53,-344.76 857.24,-332.95 946.95,-310.84"/>
<polygon fill="midnightblue" stroke="midnightblue" points="947.89,-314.21 956.74,-308.38 946.19,-307.42 947.89,-314.21"/>
</g>
<!-- Node8 -->
<g id="node8" class="node">
<title>Node8</title>
<g id="a_node8"><a xlink:title=" ">
<polygon fill="white" stroke="#bfbfbf" points="976,-0.5 976,-19.5 1020,-19.5 1020,-0.5 976,-0.5"/>
<text text-anchor="middle" x="998" y="-7.5" font-family="Helvetica,sans-Serif" font-size="10.00">string</text>
</a>
</g>
</g>
<!-- Node3&#45;&gt;Node8 -->
<g id="edge7" class="edge">
<title>Node3&#45;&gt;Node8</title>
<path fill="none" stroke="midnightblue" d="M642.91,-347.24C640.27,-333.98 637.25,-308.53 648,-291 663.77,-265.3 737.94,-235.05 766,-224 830.19,-198.72 863.69,-231.8 917,-188 967.65,-146.38 988.05,-66.19 994.96,-29.79"/>
<polygon fill="midnightblue" stroke="midnightblue" points="998.47,-30.07 996.75,-19.62 991.57,-28.86 998.47,-30.07"/>
</g>
<!-- Node9 -->
<g id="node9" class="node">
<title>Node9</title>
<g id="a_node9"><a xlink:title=" ">
<polygon fill="white" stroke="#bfbfbf" points="1007.5,-291.5 1007.5,-310.5 1100.5,-310.5 1100.5,-291.5 1007.5,-291.5"/>
<text text-anchor="middle" x="1054" y="-298.5" font-family="Helvetica,sans-Serif" font-size="10.00">unordered_map</text>
</a>
</g>
</g>
<!-- Node3&#45;&gt;Node9 -->
<g id="edge8" class="edge">
<title>Node3&#45;&gt;Node9</title>
<path fill="none" stroke="midnightblue" d="M703.17,-349.17C771.15,-341.06 887.3,-326.8 997.32,-311.06"/>
<polygon fill="midnightblue" stroke="midnightblue" points="997.87,-314.51 1007.27,-309.63 996.87,-307.59 997.87,-314.51"/>
</g>
<!-- Node10 -->
<g id="node10" class="node">
<title>Node10</title>
<g id="a_node10"><a xlink:title=" ">
<polygon fill="white" stroke="#bfbfbf" points="530.5,-0.5 530.5,-19.5 577.5,-19.5 577.5,-0.5 530.5,-0.5"/>
<text text-anchor="middle" x="554" y="-7.5" font-family="Helvetica,sans-Serif" font-size="10.00">vector</text>
</a>
</g>
</g>
<!-- Node3&#45;&gt;Node10 -->
<g id="edge9" class="edge">
<title>Node3&#45;&gt;Node10</title>
<path fill="none" stroke="midnightblue" d="M586.92,-347.86C519.86,-338.19 413.81,-321.99 375,-311 295.12,-288.37 202,-323.53 202,-240.5 202,-240.5 202,-240.5 202,-121 202,-112.7 432.8,-45.72 520.62,-20.53"/>
<polygon fill="midnightblue" stroke="midnightblue" points="521.71,-23.86 530.36,-17.74 519.78,-17.13 521.71,-23.86"/>
</g>
<!-- Node11 -->
<g id="node11" class="node">
<title>Node11</title>
<g id="a_node11"><a xlink:href="style_8h.html" target="_top" xlink:title=" ">
<polygon fill="white" stroke="black" points="56.5,-291.5 56.5,-310.5 173.5,-310.5 173.5,-291.5 56.5,-291.5"/>
<text text-anchor="middle" x="115" y="-298.5" font-family="Helvetica,sans-Serif" font-size="10.00">core/analysis/style.h</text>
</a>
</g>
</g>
<!-- Node3&#45;&gt;Node11 -->
<g id="edge10" class="edge">
<title>Node3&#45;&gt;Node11</title>
<path fill="none" stroke="midnightblue" d="M586.91,-348.05C583.9,-347.68 580.92,-347.33 578,-347 405.04,-327.41 361.07,-329.65 188,-311 186.53,-310.84 185.05,-310.68 183.55,-310.51"/>
<polygon fill="midnightblue" stroke="midnightblue" points="183.88,-307.03 173.55,-309.38 183.09,-313.98 183.88,-307.03"/>
</g>
<!-- Node13 -->
<g id="node13" class="node">
<title>Node13</title>
<g id="a_node13"><a xlink:href="param__group_8h.html" target="_top" xlink:title=" ">
<polygon fill="white" stroke="black" points="672.5,-291.5 672.5,-310.5 821.5,-310.5 821.5,-291.5 672.5,-291.5"/>
<text text-anchor="middle" x="747" y="-298.5" font-family="Helvetica,sans-Serif" font-size="10.00">core/param/param_group.h</text>
</a>
</g>
</g>
<!-- Node3&#45;&gt;Node13 -->
<g id="edge12" class="edge">
<title>Node3&#45;&gt;Node13</title>
<path fill="none" stroke="midnightblue" d="M661.39,-347.32C677.67,-338.7 702.87,-325.36 721.72,-315.39"/>
<polygon fill="midnightblue" stroke="midnightblue" points="723.45,-318.43 730.65,-310.65 720.18,-312.24 723.45,-318.43"/>
</g>
<!-- Node14 -->
<g id="node14" class="node">
<title>Node14</title>
<g id="a_node14"><a xlink:href="root_8h.html" target="_top" xlink:title=" ">
<polygon fill="white" stroke="black" points="820,-168.5 820,-187.5 908,-187.5 908,-168.5 820,-168.5"/>
<text text-anchor="middle" x="864" y="-175.5" font-family="Helvetica,sans-Serif" font-size="10.00">core/util/root.h</text>
</a>
</g>
</g>
<!-- Node3&#45;&gt;Node14 -->
<g id="edge28" class="edge">
<title>Node3&#45;&gt;Node14</title>
<path fill="none" stroke="midnightblue" d="M629.32,-347.44C609.85,-335.61 580.64,-313.23 593,-291 607.75,-264.49 625.7,-271.74 651,-255 670.95,-241.8 673.33,-234.12 695,-224 731.52,-206.94 775.62,-195.47 809.61,-188.38"/>
<polygon fill="midnightblue" stroke="midnightblue" points="810.7,-191.73 819.81,-186.32 809.32,-184.87 810.7,-191.73"/>
</g>
<!-- Node24 -->
<g id="node24" class="node">
<title>Node24</title>
<g id="a_node24"><a xlink:title=" ">
<polygon fill="white" stroke="#bfbfbf" points="775,-230 775,-249 883,-249 883,-230 775,-230"/>
<text text-anchor="middle" x="829" y="-237" font-family="Helvetica,sans-Serif" font-size="10.00">cpptoml/cpptoml.h</text>
</a>
</g>
</g>
<!-- Node3&#45;&gt;Node24 -->
<g id="edge44" class="edge">
<title>Node3&#45;&gt;Node24</title>
<path fill="none" stroke="midnightblue" d="M644.9,-347.13C645.24,-333.26 647.96,-306.43 663,-291 689.61,-263.72 730.46,-251.06 764.97,-245.25"/>
<polygon fill="midnightblue" stroke="midnightblue" points="765.63,-248.69 774.99,-243.72 764.58,-241.77 765.63,-248.69"/>
</g>
<!-- Node25 -->
<g id="node25" class="node">
<title>Node25</title>
<g id="a_node25"><a xlink:href="type_8h.html" target="_top" xlink:title=" ">
<polygon fill="white" stroke="black" points="384,-291.5 384,-310.5 474,-310.5 474,-291.5 384,-291.5"/>
<text text-anchor="middle" x="429" y="-298.5" font-family="Helvetica,sans-Serif" font-size="10.00">core/util/type.h</text>
</a>
</g>
</g>
<!-- Node3&#45;&gt;Node25 -->
<g id="edge29" class="edge">
<title>Node3&#45;&gt;Node25</title>
<path fill="none" stroke="midnightblue" d="M610.77,-347.44C573.49,-338.12 513.73,-323.18 472.99,-313"/>
<polygon fill="midnightblue" stroke="midnightblue" points="473.62,-309.55 463.07,-310.52 471.92,-316.34 473.62,-309.55"/>
</g>
<!-- Node12 -->
<g id="node12" class="node">
<title>Node12</title>
<g id="a_node12"><a xlink:title=" ">
<polygon fill="white" stroke="#bfbfbf" points="87,-230 87,-249 143,-249 143,-230 87,-230"/>
<text text-anchor="middle" x="115" y="-237" font-family="Helvetica,sans-Serif" font-size="10.00">TStyle.h</text>
</a>
</g>
</g>
<!-- Node11&#45;&gt;Node12 -->
<g id="edge11" class="edge">
<title>Node11&#45;&gt;Node12</title>
<path fill="none" stroke="midnightblue" d="M115,-291.48C115,-283.08 115,-269.98 115,-259.16"/>
<polygon fill="midnightblue" stroke="midnightblue" points="118.5,-259.01 115,-249.01 111.5,-259.01 118.5,-259.01"/>
</g>
<!-- Node13&#45;&gt;Node6 -->
<g id="edge13" class="edge">
<title>Node13&#45;&gt;Node6</title>
<path fill="none" stroke="midnightblue" d="M776.34,-291.49C805.76,-282.82 852.26,-268.73 892,-255 894.25,-254.22 896.57,-253.4 898.9,-252.55"/>
<polygon fill="midnightblue" stroke="midnightblue" points="900.23,-255.79 908.38,-249.02 897.79,-249.23 900.23,-255.79"/>
</g>
<!-- Node13&#45;&gt;Node14 -->
<g id="edge14" class="edge">
<title>Node13&#45;&gt;Node14</title>
<path fill="none" stroke="midnightblue" d="M746.85,-291.42C747.03,-276.12 749.5,-243.89 766,-224 779.13,-208.17 799.04,-197.64 817.49,-190.78"/>
<polygon fill="midnightblue" stroke="midnightblue" points="818.65,-194.08 826.96,-187.51 816.37,-187.46 818.65,-194.08"/>
</g>
<!-- Node13&#45;&gt;Node24 -->
<g id="edge27" class="edge">
<title>Node13&#45;&gt;Node24</title>
<path fill="none" stroke="midnightblue" d="M758.75,-291.48C771.78,-282.02 793.04,-266.6 808.76,-255.19"/>
<polygon fill="midnightblue" stroke="midnightblue" points="811.23,-257.71 817.27,-249.01 807.12,-252.05 811.23,-257.71"/>
</g>
<!-- Node15 -->
<g id="node15" class="node">
<title>Node15</title>
<g id="a_node15"><a xlink:title=" ">
<polygon fill="white" stroke="#bfbfbf" points="843.5,-112.5 843.5,-131.5 900.5,-131.5 900.5,-112.5 843.5,-112.5"/>
<text text-anchor="middle" x="872" y="-119.5" font-family="Helvetica,sans-Serif" font-size="10.00">TClass.h</text>
</a>
</g>
</g>
<!-- Node14&#45;&gt;Node15 -->
<g id="edge15" class="edge">
<title>Node14&#45;&gt;Node15</title>
<path fill="none" stroke="midnightblue" d="M865.32,-168.08C866.38,-160.93 867.91,-150.64 869.23,-141.69"/>
<polygon fill="midnightblue" stroke="midnightblue" points="872.7,-142.16 870.7,-131.75 865.78,-141.13 872.7,-142.16"/>
</g>
<!-- Node16 -->
<g id="node16" class="node">
<title>Node16</title>
<g id="a_node16"><a xlink:href="log_8h.html" target="_top" xlink:title=" ">
<polygon fill="white" stroke="black" points="742.5,-112.5 742.5,-131.5 825.5,-131.5 825.5,-112.5 742.5,-112.5"/>
<text text-anchor="middle" x="784" y="-119.5" font-family="Helvetica,sans-Serif" font-size="10.00">core/util/log.h</text>
</a>
</g>
</g>
<!-- Node14&#45;&gt;Node16 -->
<g id="edge16" class="edge">
<title>Node14&#45;&gt;Node16</title>
<path fill="none" stroke="midnightblue" d="M851.15,-168.32C838.78,-159.98 819.87,-147.21 805.26,-137.35"/>
<polygon fill="midnightblue" stroke="midnightblue" points="807.07,-134.35 796.82,-131.65 803.15,-140.15 807.07,-134.35"/>
</g>
<!-- Node16&#45;&gt;Node8 -->
<g id="edge22" class="edge">
<title>Node16&#45;&gt;Node8</title>
<path fill="none" stroke="midnightblue" d="M823.01,-112.48C862.81,-103.32 921.42,-88.41 941,-76 960.34,-63.74 976.88,-43 987.08,-28.25"/>
<polygon fill="midnightblue" stroke="midnightblue" points="990.23,-29.84 992.83,-19.57 984.39,-25.97 990.23,-29.84"/>
</g>
<!-- Node17 -->
<g id="node17" class="node">
<title>Node17</title>
<g id="a_node17"><a xlink:title=" ">
<polygon fill="white" stroke="#bfbfbf" points="585,-56.5 585,-75.5 639,-75.5 639,-56.5 585,-56.5"/>
<text text-anchor="middle" x="612" y="-63.5" font-family="Helvetica,sans-Serif" font-size="10.00">TError.h</text>
</a>
</g>
</g>
<!-- Node16&#45;&gt;Node17 -->
<g id="edge17" class="edge">
<title>Node16&#45;&gt;Node17</title>
<path fill="none" stroke="midnightblue" d="M756.75,-112.44C727.56,-103.28 681.08,-88.69 648.69,-78.52"/>
<polygon fill="midnightblue" stroke="midnightblue" points="649.72,-75.17 639.13,-75.52 647.62,-81.85 649.72,-75.17"/>
</g>
<!-- Node18 -->
<g id="node18" class="node">
<title>Node18</title>
<g id="a_node18"><a xlink:title=" ">
<polygon fill="white" stroke="#bfbfbf" points="657,-56.5 657,-75.5 703,-75.5 703,-56.5 657,-56.5"/>
<text text-anchor="middle" x="680" y="-63.5" font-family="Helvetica,sans-Serif" font-size="10.00">cstdio</text>
</a>
</g>
</g>
<!-- Node16&#45;&gt;Node18 -->
<g id="edge18" class="edge">
<title>Node16&#45;&gt;Node18</title>
<path fill="none" stroke="midnightblue" d="M767.29,-112.32C750.69,-103.7 725,-90.36 705.78,-80.39"/>
<polygon fill="midnightblue" stroke="midnightblue" points="707.16,-77.16 696.67,-75.65 703.93,-83.37 707.16,-77.16"/>
</g>
<!-- Node19 -->
<g id="node19" class="node">
<title>Node19</title>
<g id="a_node19"><a xlink:title=" ">
<polygon fill="white" stroke="#bfbfbf" points="721.5,-56.5 721.5,-75.5 770.5,-75.5 770.5,-56.5 721.5,-56.5"/>
<text text-anchor="middle" x="746" y="-63.5" font-family="Helvetica,sans-Serif" font-size="10.00">cstdlib</text>
</a>
</g>
</g>
<!-- Node16&#45;&gt;Node19 -->
<g id="edge19" class="edge">
<title>Node16&#45;&gt;Node19</title>
<path fill="none" stroke="midnightblue" d="M777.73,-112.08C772.36,-104.46 764.48,-93.26 757.92,-83.94"/>
<polygon fill="midnightblue" stroke="midnightblue" points="760.78,-81.91 752.16,-75.75 755.05,-85.94 760.78,-81.91"/>
</g>
<!-- Node20 -->
<g id="node20" class="node">
<title>Node20</title>
<g id="a_node20"><a xlink:title=" ">
<polygon fill="white" stroke="#bfbfbf" points="788.5,-56.5 788.5,-75.5 853.5,-75.5 853.5,-56.5 788.5,-56.5"/>
<text text-anchor="middle" x="821" y="-63.5" font-family="Helvetica,sans-Serif" font-size="10.00">functional</text>
</a>
</g>
</g>
<!-- Node16&#45;&gt;Node20 -->
<g id="edge20" class="edge">
<title>Node16&#45;&gt;Node20</title>
<path fill="none" stroke="midnightblue" d="M790.11,-112.08C795.28,-104.53 802.85,-93.49 809.19,-84.23"/>
<polygon fill="midnightblue" stroke="midnightblue" points="812.24,-85.98 815,-75.75 806.46,-82.02 812.24,-85.98"/>
</g>
<!-- Node21 -->
<g id="node21" class="node">
<title>Node21</title>
<g id="a_node21"><a xlink:title=" ">
<polygon fill="white" stroke="#bfbfbf" points="872,-56.5 872,-75.5 932,-75.5 932,-56.5 872,-56.5"/>
<text text-anchor="middle" x="902" y="-63.5" font-family="Helvetica,sans-Serif" font-size="10.00">iostream</text>
</a>
</g>
</g>
<!-- Node16&#45;&gt;Node21 -->
<g id="edge21" class="edge">
<title>Node16&#45;&gt;Node21</title>
<path fill="none" stroke="midnightblue" d="M802.7,-112.44C821.94,-103.64 852.15,-89.81 874.2,-79.72"/>
<polygon fill="midnightblue" stroke="midnightblue" points="875.75,-82.86 883.39,-75.52 872.84,-76.5 875.75,-82.86"/>
</g>
<!-- Node22 -->
<g id="node22" class="node">
<title>Node22</title>
<g id="a_node22"><a xlink:href="string_8h.html" target="_top" xlink:title=" ">
<polygon fill="white" stroke="black" points="471,-56.5 471,-75.5 567,-75.5 567,-56.5 471,-56.5"/>
<text text-anchor="middle" x="519" y="-63.5" font-family="Helvetica,sans-Serif" font-size="10.00">core/util/string.h</text>
</a>
</g>
</g>
<!-- Node16&#45;&gt;Node22 -->
<g id="edge23" class="edge">
<title>Node16&#45;&gt;Node22</title>
<path fill="none" stroke="midnightblue" d="M742.3,-112.5C695.94,-103.06 621,-87.78 570.88,-77.57"/>
<polygon fill="midnightblue" stroke="midnightblue" points="571.39,-74.1 560.89,-75.54 569.99,-80.96 571.39,-74.1"/>
</g>
<!-- Node22&#45;&gt;Node8 -->
<g id="edge25" class="edge">
<title>Node22&#45;&gt;Node8</title>
<path fill="none" stroke="midnightblue" d="M567.18,-57.22C570.16,-56.79 573.12,-56.38 576,-56 721.21,-36.81 895.37,-20.29 965.95,-13.86"/>
<polygon fill="midnightblue" stroke="midnightblue" points="966.34,-17.34 975.99,-12.95 965.71,-10.37 966.34,-17.34"/>
</g>
<!-- Node22&#45;&gt;Node10 -->
<g id="edge26" class="edge">
<title>Node22&#45;&gt;Node10</title>
<path fill="none" stroke="midnightblue" d="M524.78,-56.08C529.67,-48.53 536.83,-37.49 542.83,-28.23"/>
<polygon fill="midnightblue" stroke="midnightblue" points="545.83,-30.05 548.33,-19.75 539.95,-26.24 545.83,-30.05"/>
</g>
<!-- Node23 -->
<g id="node23" class="node">
<title>Node23</title>
<g id="a_node23"><a xlink:title=" ">
<polygon fill="white" stroke="#bfbfbf" points="456,-0.5 456,-19.5 512,-19.5 512,-0.5 456,-0.5"/>
<text text-anchor="middle" x="484" y="-7.5" font-family="Helvetica,sans-Serif" font-size="10.00">sstream</text>
</a>
</g>
</g>
<!-- Node22&#45;&gt;Node23 -->
<g id="edge24" class="edge">
<title>Node22&#45;&gt;Node23</title>
<path fill="none" stroke="midnightblue" d="M513.22,-56.08C508.33,-48.53 501.17,-37.49 495.17,-28.23"/>
<polygon fill="midnightblue" stroke="midnightblue" points="498.05,-26.24 489.67,-19.75 492.17,-30.05 498.05,-26.24"/>
</g>
<!-- Node25&#45;&gt;Node22 -->
<g id="edge43" class="edge">
<title>Node25&#45;&gt;Node22</title>
<path fill="none" stroke="midnightblue" d="M383.59,-294.24C338.55,-287.49 274.13,-274.66 259,-255 235.41,-224.36 237.16,-199.91 259,-168 304.14,-102.04 399.16,-79.15 460.97,-71.21"/>
<polygon fill="midnightblue" stroke="midnightblue" points="461.46,-74.68 470.97,-70.02 460.63,-67.73 461.46,-74.68"/>
</g>
<!-- Node26 -->
<g id="node26" class="node">
<title>Node26</title>
<g id="a_node26"><a xlink:title=" ">
<polygon fill="white" stroke="#bfbfbf" points="440.5,-230 440.5,-249 509.5,-249 509.5,-230 440.5,-230"/>
<text text-anchor="middle" x="475" y="-237" font-family="Helvetica,sans-Serif" font-size="10.00">type_traits</text>
</a>
</g>
</g>
<!-- Node25&#45;&gt;Node26 -->
<g id="edge30" class="edge">
<title>Node25&#45;&gt;Node26</title>
<path fill="none" stroke="midnightblue" d="M435.59,-291.48C442.49,-282.55 453.5,-268.31 462.13,-257.14"/>
<polygon fill="midnightblue" stroke="midnightblue" points="465.07,-259.06 468.42,-249.01 459.54,-254.78 465.07,-259.06"/>
</g>
<!-- Node27 -->
<g id="node27" class="node">
<title>Node27</title>
<g id="a_node27"><a xlink:title=" ">
<polygon fill="white" stroke="#bfbfbf" points="268.5,-230 268.5,-249 325.5,-249 325.5,-230 268.5,-230"/>
<text text-anchor="middle" x="297" y="-237" font-family="Helvetica,sans-Serif" font-size="10.00">typeinfo</text>
</a>
</g>
</g>
<!-- Node25&#45;&gt;Node27 -->
<g id="edge31" class="edge">
<title>Node25&#45;&gt;Node27</title>
<path fill="none" stroke="midnightblue" d="M410.09,-291.48C387.84,-281.45 350.69,-264.7 325.07,-253.15"/>
<polygon fill="midnightblue" stroke="midnightblue" points="326.43,-249.93 315.88,-249.01 323.56,-256.31 326.43,-249.93"/>
</g>
<!-- Node28 -->
<g id="node28" class="node">
<title>Node28</title>
<g id="a_node28"><a xlink:href="math__array_8h.html" target="_top" xlink:title=" ">
<polygon fill="white" stroke="black" points="527.5,-224.5 527.5,-254.5 642.5,-254.5 642.5,-224.5 527.5,-224.5"/>
<text text-anchor="start" x="535.5" y="-242.5" font-family="Helvetica,sans-Serif" font-size="10.00">core/container/math</text>
<text text-anchor="middle" x="585" y="-231.5" font-family="Helvetica,sans-Serif" font-size="10.00">_array.h</text>
</a>
</g>
</g>
<!-- Node25&#45;&gt;Node28 -->
<g id="edge32" class="edge">
<title>Node25&#45;&gt;Node28</title>
<path fill="none" stroke="midnightblue" d="M451.35,-291.48C474.06,-282.81 509.9,-269.15 538.75,-258.14"/>
<polygon fill="midnightblue" stroke="midnightblue" points="540.14,-261.36 548.23,-254.52 537.64,-254.82 540.14,-261.36"/>
</g>
<!-- Node36 -->
<g id="node36" class="node">
<title>Node36</title>
<g id="a_node36"><a xlink:href="shape_8h.html" target="_top" xlink:title=" ">
<polygon fill="white" stroke="black" points="343.5,-230 343.5,-249 422.5,-249 422.5,-230 343.5,-230"/>
<text text-anchor="middle" x="383" y="-237" font-family="Helvetica,sans-Serif" font-size="10.00">core/shape.h</text>
</a>
</g>
</g>
<!-- Node25&#45;&gt;Node36 -->
<g id="edge42" class="edge">
<title>Node25&#45;&gt;Node36</title>
<path fill="none" stroke="midnightblue" d="M422.41,-291.48C415.51,-282.55 404.5,-268.31 395.87,-257.14"/>
<polygon fill="midnightblue" stroke="midnightblue" points="398.46,-254.78 389.58,-249.01 392.93,-259.06 398.46,-254.78"/>
</g>
<!-- Node28&#45;&gt;Node14 -->
<g id="edge41" class="edge">
<title>Node28&#45;&gt;Node14</title>
<path fill="none" stroke="midnightblue" d="M642.81,-226.17C693.32,-215.4 765.9,-199.92 813.97,-189.67"/>
<polygon fill="midnightblue" stroke="midnightblue" points="814.79,-193.07 823.84,-187.56 813.33,-186.23 814.79,-193.07"/>
</g>
<!-- Node28&#45;&gt;Node16 -->
<g id="edge40" class="edge">
<title>Node28&#45;&gt;Node16</title>
<path fill="none" stroke="midnightblue" d="M642.61,-226.31C694.51,-214.8 764.02,-197.88 773,-188 784.18,-175.71 786.22,-156.45 785.89,-142.08"/>
<polygon fill="midnightblue" stroke="midnightblue" points="789.36,-141.6 785.24,-131.84 782.38,-142.04 789.36,-141.6"/>
</g>
<!-- Node29 -->
<g id="node29" class="node">
<title>Node29</title>
<g id="a_node29"><a xlink:title=" ">
<polygon fill="white" stroke="#bfbfbf" points="490,-168.5 490,-187.5 554,-187.5 554,-168.5 490,-168.5"/>
<text text-anchor="middle" x="522" y="-175.5" font-family="Helvetica,sans-Serif" font-size="10.00">algorithm</text>
</a>
</g>
</g>
<!-- Node28&#45;&gt;Node29 -->
<g id="edge33" class="edge">
<title>Node28&#45;&gt;Node29</title>
<path fill="none" stroke="midnightblue" d="M570.07,-224.4C560.63,-215.49 548.42,-203.95 538.67,-194.74"/>
<polygon fill="midnightblue" stroke="midnightblue" points="540.84,-191.98 531.17,-187.66 536.03,-197.07 540.84,-191.98"/>
</g>
<!-- Node30 -->
<g id="node30" class="node">
<title>Node30</title>
<g id="a_node30"><a xlink:title=" ">
<polygon fill="white" stroke="#bfbfbf" points="572,-168.5 572,-187.5 624,-187.5 624,-168.5 572,-168.5"/>
<text text-anchor="middle" x="598" y="-175.5" font-family="Helvetica,sans-Serif" font-size="10.00">cassert</text>
</a>
</g>
</g>
<!-- Node28&#45;&gt;Node30 -->
<g id="edge34" class="edge">
<title>Node28&#45;&gt;Node30</title>
<path fill="none" stroke="midnightblue" d="M588.08,-224.4C589.83,-216.38 592.05,-206.23 593.94,-197.57"/>
<polygon fill="midnightblue" stroke="midnightblue" points="597.39,-198.17 596.11,-187.66 590.55,-196.68 597.39,-198.17"/>
</g>
<!-- Node31 -->
<g id="node31" class="node">
<title>Node31</title>
<g id="a_node31"><a xlink:title=" ">
<polygon fill="white" stroke="#bfbfbf" points="642.5,-168.5 642.5,-187.5 689.5,-187.5 689.5,-168.5 642.5,-168.5"/>
<text text-anchor="middle" x="666" y="-175.5" font-family="Helvetica,sans-Serif" font-size="10.00">cmath</text>
</a>
</g>
</g>
<!-- Node28&#45;&gt;Node31 -->
<g id="edge35" class="edge">
<title>Node28&#45;&gt;Node31</title>
<path fill="none" stroke="midnightblue" d="M604.2,-224.4C616.82,-215.13 633.29,-203.03 646.06,-193.65"/>
<polygon fill="midnightblue" stroke="midnightblue" points="648.23,-196.4 654.21,-187.66 644.08,-190.76 648.23,-196.4"/>
</g>
<!-- Node32 -->
<g id="node32" class="node">
<title>Node32</title>
<g id="a_node32"><a xlink:title=" ">
<polygon fill="white" stroke="#bfbfbf" points="708,-168.5 708,-187.5 764,-187.5 764,-168.5 708,-168.5"/>
<text text-anchor="middle" x="736" y="-175.5" font-family="Helvetica,sans-Serif" font-size="10.00">numeric</text>
</a>
</g>
</g>
<!-- Node28&#45;&gt;Node32 -->
<g id="edge36" class="edge">
<title>Node28&#45;&gt;Node32</title>
<path fill="none" stroke="midnightblue" d="M620.78,-224.4C646.23,-214.37 680.1,-201.03 704.52,-191.4"/>
<polygon fill="midnightblue" stroke="midnightblue" points="706.01,-194.58 714.03,-187.66 703.44,-188.07 706.01,-194.58"/>
</g>
<!-- Node33 -->
<g id="node33" class="node">
<title>Node33</title>
<g id="a_node33"><a xlink:title=" ">
<polygon fill="white" stroke="#bfbfbf" points="268.5,-168.5 268.5,-187.5 325.5,-187.5 325.5,-168.5 268.5,-168.5"/>
<text text-anchor="middle" x="297" y="-175.5" font-family="Helvetica,sans-Serif" font-size="10.00">ostream</text>
</a>
</g>
</g>
<!-- Node28&#45;&gt;Node33 -->
<g id="edge37" class="edge">
<title>Node28&#45;&gt;Node33</title>
<path fill="none" stroke="midnightblue" d="M527.27,-225.93C524.14,-225.27 521.03,-224.62 518,-224 439.57,-207.84 417.13,-205.98 335.86,-188.34"/>
<polygon fill="midnightblue" stroke="midnightblue" points="336.17,-184.82 325.65,-186.11 334.68,-191.66 336.17,-184.82"/>
</g>
<!-- Node34 -->
<g id="node34" class="node">
<title>Node34</title>
<g id="a_node34"><a xlink:title=" ">
<polygon fill="white" stroke="#bfbfbf" points="343.5,-168.5 343.5,-187.5 408.5,-187.5 408.5,-168.5 343.5,-168.5"/>
<text text-anchor="middle" x="376" y="-175.5" font-family="Helvetica,sans-Serif" font-size="10.00">stdexcept</text>
</a>
</g>
</g>
<!-- Node28&#45;&gt;Node34 -->
<g id="edge38" class="edge">
<title>Node28&#45;&gt;Node34</title>
<path fill="none" stroke="midnightblue" d="M535.73,-224.47C499.05,-214.03 449.62,-199.96 415.51,-190.25"/>
<polygon fill="midnightblue" stroke="midnightblue" points="416.46,-186.88 405.88,-187.51 414.54,-193.61 416.46,-186.88"/>
</g>
<!-- Node35 -->
<g id="node35" class="node">
<title>Node35</title>
<g id="a_node35"><a xlink:title=" ">
<polygon fill="white" stroke="#bfbfbf" points="426.5,-168.5 426.5,-187.5 471.5,-187.5 471.5,-168.5 426.5,-168.5"/>
<text text-anchor="middle" x="449" y="-175.5" font-family="Helvetica,sans-Serif" font-size="10.00">utility</text>
</a>
</g>
</g>
<!-- Node28&#45;&gt;Node35 -->
<g id="edge39" class="edge">
<title>Node28&#45;&gt;Node35</title>
<path fill="none" stroke="midnightblue" d="M552.77,-224.4C530.16,-214.51 500.16,-201.38 478.24,-191.79"/>
<polygon fill="midnightblue" stroke="midnightblue" points="479.35,-188.46 468.79,-187.66 476.55,-194.87 479.35,-188.46"/>
</g>
<!-- Node37&#45;&gt;Node4 -->
<g id="edge46" class="edge">
<title>Node37&#45;&gt;Node4</title>
<path fill="none" stroke="midnightblue" d="M1062,-347.44C1030.82,-338.24 981.07,-323.56 946.59,-313.39"/>
<polygon fill="midnightblue" stroke="midnightblue" points="947.44,-309.99 936.86,-310.52 945.46,-316.7 947.44,-309.99"/>
</g>
<!-- Node37&#45;&gt;Node6 -->
<g id="edge47" class="edge">
<title>Node37&#45;&gt;Node6</title>
<path fill="none" stroke="midnightblue" d="M1106.64,-347.4C1127.23,-334.99 1159.04,-311.29 1143,-291 1121.74,-264.11 1024.7,-250.04 969.22,-244.08"/>
<polygon fill="midnightblue" stroke="midnightblue" points="969.35,-240.57 959.04,-243.02 968.62,-247.54 969.35,-240.57"/>
</g>
<!-- Node37&#45;&gt;Node7 -->
<g id="edge48" class="edge">
<title>Node37&#45;&gt;Node7</title>
<path fill="none" stroke="midnightblue" d="M1072.3,-347.44C1052.38,-338.32 1020.7,-323.83 998.5,-313.67"/>
<polygon fill="midnightblue" stroke="midnightblue" points="999.88,-310.45 989.33,-309.47 996.97,-316.82 999.88,-310.45"/>
</g>
<!-- Node37&#45;&gt;Node8 -->
<g id="edge49" class="edge">
<title>Node37&#45;&gt;Node8</title>
<path fill="none" stroke="midnightblue" d="M1153.5,-353.06C1187.96,-348.32 1229.24,-337.05 1257,-311 1281.13,-288.35 1281,-273.6 1281,-240.5 1281,-240.5 1281,-240.5 1281,-121 1281,-67.74 1104.69,-30.03 1030.39,-16.5"/>
<polygon fill="midnightblue" stroke="midnightblue" points="1030.67,-12.99 1020.21,-14.68 1029.44,-19.88 1030.67,-12.99"/>
</g>
<!-- Node37&#45;&gt;Node9 -->
<g id="edge50" class="edge">
<title>Node37&#45;&gt;Node9</title>
<path fill="none" stroke="midnightblue" d="M1084.89,-347.08C1079.72,-339.53 1072.15,-328.49 1065.81,-319.23"/>
<polygon fill="midnightblue" stroke="midnightblue" points="1068.54,-317.02 1060,-310.75 1062.76,-320.98 1068.54,-317.02"/>
</g>
<!-- Node37&#45;&gt;Node10 -->
<g id="edge51" class="edge">
<title>Node37&#45;&gt;Node10</title>
<path fill="none" stroke="midnightblue" d="M1123.18,-347.49C1141.54,-340.8 1163.02,-329.45 1174,-311 1178.55,-303.36 1177.1,-299.33 1174,-291 1149.4,-224.99 1016.77,-91.71 941,-56 878.57,-26.58 669.78,-15.47 587.62,-12.17"/>
<polygon fill="midnightblue" stroke="midnightblue" points="587.7,-8.67 577.57,-11.78 587.43,-15.67 587.7,-8.67"/>
</g>
<!-- Node37&#45;&gt;Node13 -->
<g id="edge52" class="edge">
<title>Node37&#45;&gt;Node13</title>
<path fill="none" stroke="midnightblue" d="M1036.49,-347.44C975.35,-337.85 876.26,-322.29 811.36,-312.1"/>
<polygon fill="midnightblue" stroke="midnightblue" points="811.67,-308.61 801.25,-310.52 810.59,-315.52 811.67,-308.61"/>
</g>
<!-- Node37&#45;&gt;Node14 -->
<g id="edge53" class="edge">
<title>Node37&#45;&gt;Node14</title>
<path fill="none" stroke="midnightblue" d="M1112.43,-347.46C1137.92,-336.01 1175.14,-314.39 1159,-291 1104.77,-212.41 987.63,-188.92 918.39,-181.93"/>
<polygon fill="midnightblue" stroke="midnightblue" points="918.4,-178.41 908.12,-180.98 917.75,-185.38 918.4,-178.41"/>
</g>
<!-- Node37&#45;&gt;Node24 -->
<g id="edge54" class="edge">
<title>Node37&#45;&gt;Node24</title>
<path fill="none" stroke="midnightblue" d="M1097.98,-347.38C1108.06,-333.86 1124,-307.5 1110,-291 1078.23,-253.56 940.17,-264.51 892,-255 886.22,-253.86 880.15,-252.57 874.17,-251.25"/>
<polygon fill="midnightblue" stroke="midnightblue" points="874.76,-247.8 864.24,-249.02 873.22,-254.63 874.76,-247.8"/>
</g>
</g>
</svg>
