<?xml version="1.0" encoding="UTF-8" standalone="no"?>
<!DOCTYPE svg PUBLIC "-//W3C//DTD SVG 1.1//EN"
 "http://www.w3.org/Graphics/SVG/1.1/DTD/svg11.dtd">
<!-- Generated by graphviz version 2.43.0 (0)
 -->
<!-- Title: core/environment/morton_order.cc Pages: 1 -->
<svg width="986pt" height="397pt"
 viewBox="0.00 0.00 985.50 397.00" xmlns="http://www.w3.org/2000/svg" xmlns:xlink="http://www.w3.org/1999/xlink">
<g id="graph0" class="graph" transform="scale(1 1) rotate(0) translate(4 393)">
<title>core/environment/morton_order.cc</title>
<polygon fill="white" stroke="transparent" points="-4,4 -4,-393 981.5,-393 981.5,4 -4,4"/>
<!-- Node1 -->
<g id="node1" class="node">
<title>Node1</title>
<g id="a_node1"><a xlink:title=" ">
<polygon fill="#bfbfbf" stroke="black" points="779.5,-358.5 779.5,-388.5 920.5,-388.5 920.5,-358.5 779.5,-358.5"/>
<text text-anchor="start" x="787.5" y="-376.5" font-family="Helvetica,sans-Serif" font-size="10.00">core/environment/morton</text>
<text text-anchor="middle" x="850" y="-365.5" font-family="Helvetica,sans-Serif" font-size="10.00">_order.cc</text>
</a>
</g>
</g>
<!-- Node2 -->
<g id="node2" class="node">
<title>Node2</title>
<g id="a_node2"><a xlink:href="morton__order_8h.html" target="_top" xlink:title=" ">
<polygon fill="white" stroke="black" points="527.5,-291.5 527.5,-321.5 668.5,-321.5 668.5,-291.5 527.5,-291.5"/>
<text text-anchor="start" x="535.5" y="-309.5" font-family="Helvetica,sans-Serif" font-size="10.00">core/environment/morton</text>
<text text-anchor="middle" x="598" y="-298.5" font-family="Helvetica,sans-Serif" font-size="10.00">_order.h</text>
</a>
</g>
</g>
<!-- Node1&#45;&gt;Node2 -->
<g id="edge1" class="edge">
<title>Node1&#45;&gt;Node2</title>
<path fill="none" stroke="midnightblue" d="M795.63,-358.48C756.6,-348.41 703.84,-334.8 662.65,-324.17"/>
<polygon fill="midnightblue" stroke="midnightblue" points="663.26,-320.72 652.71,-321.61 661.52,-327.5 663.26,-320.72"/>
</g>
<!-- Node11 -->
<g id="node11" class="node">
<title>Node11</title>
<g id="a_node11"><a xlink:title=" ">
<polygon fill="white" stroke="#bfbfbf" points="810.5,-168.5 810.5,-187.5 857.5,-187.5 857.5,-168.5 810.5,-168.5"/>
<text text-anchor="middle" x="834" y="-175.5" font-family="Helvetica,sans-Serif" font-size="10.00">cmath</text>
</a>
</g>
</g>
<!-- Node1&#45;&gt;Node11 -->
<g id="edge35" class="edge">
<title>Node1&#45;&gt;Node11</title>
<path fill="none" stroke="midnightblue" d="M848.82,-358.27C845.99,-323.94 838.76,-236.57 835.56,-197.9"/>
<polygon fill="midnightblue" stroke="midnightblue" points="839.02,-197.25 834.71,-187.58 832.05,-197.83 839.02,-197.25"/>
</g>
<!-- Node29 -->
<g id="node29" class="node">
<title>Node29</title>
<g id="a_node29"><a xlink:title=" ">
<polygon fill="white" stroke="#bfbfbf" points="878.5,-297 878.5,-316 977.5,-316 977.5,-297 878.5,-297"/>
<text text-anchor="middle" x="928" y="-304" font-family="Helvetica,sans-Serif" font-size="10.00">morton/morton.h</text>
</a>
</g>
</g>
<!-- Node1&#45;&gt;Node29 -->
<g id="edge34" class="edge">
<title>Node1&#45;&gt;Node29</title>
<path fill="none" stroke="midnightblue" d="M866.92,-358.4C879.57,-347.86 896.83,-333.48 909.77,-322.69"/>
<polygon fill="midnightblue" stroke="midnightblue" points="912.12,-325.29 917.57,-316.19 907.64,-319.91 912.12,-325.29"/>
</g>
<!-- Node3 -->
<g id="node3" class="node">
<title>Node3</title>
<g id="a_node3"><a xlink:title=" ">
<polygon fill="white" stroke="#bfbfbf" points="780,-230 780,-249 822,-249 822,-230 780,-230"/>
<text text-anchor="middle" x="801" y="-237" font-family="Helvetica,sans-Serif" font-size="10.00">array</text>
</a>
</g>
</g>
<!-- Node2&#45;&gt;Node3 -->
<g id="edge2" class="edge">
<title>Node2&#45;&gt;Node3</title>
<path fill="none" stroke="midnightblue" d="M654.88,-291.45C689.02,-282.39 733.04,-269.6 771,-255 772.38,-254.47 773.79,-253.9 775.2,-253.3"/>
<polygon fill="midnightblue" stroke="midnightblue" points="776.74,-256.45 784.4,-249.13 773.85,-250.07 776.74,-256.45"/>
</g>
<!-- Node4 -->
<g id="node4" class="node">
<title>Node4</title>
<g id="a_node4"><a xlink:title=" ">
<polygon fill="white" stroke="#bfbfbf" points="218.5,-0.5 218.5,-19.5 265.5,-19.5 265.5,-0.5 218.5,-0.5"/>
<text text-anchor="middle" x="242" y="-7.5" font-family="Helvetica,sans-Serif" font-size="10.00">vector</text>
</a>
</g>
</g>
<!-- Node2&#45;&gt;Node4 -->
<g id="edge3" class="edge">
<title>Node2&#45;&gt;Node4</title>
<path fill="none" stroke="midnightblue" d="M527.35,-305.26C369.11,-302.83 0,-285.71 0,-179 0,-179 0,-179 0,-121 0,-30.72 141.29,-14.18 207.95,-11.4"/>
<polygon fill="midnightblue" stroke="midnightblue" points="208.48,-14.89 218.36,-11.06 208.24,-7.89 208.48,-14.89"/>
</g>
<!-- Node5 -->
<g id="node5" class="node">
<title>Node5</title>
<g id="a_node5"><a xlink:href="fixed__size__vector_8h.html" target="_top" xlink:title=" ">
<polygon fill="white" stroke="black" points="170.5,-224.5 170.5,-254.5 283.5,-254.5 283.5,-224.5 170.5,-224.5"/>
<text text-anchor="start" x="178.5" y="-242.5" font-family="Helvetica,sans-Serif" font-size="10.00">core/container/fixed</text>
<text text-anchor="middle" x="227" y="-231.5" font-family="Helvetica,sans-Serif" font-size="10.00">_size_vector.h</text>
</a>
</g>
</g>
<!-- Node2&#45;&gt;Node5 -->
<g id="edge4" class="edge">
<title>Node2&#45;&gt;Node5</title>
<path fill="none" stroke="midnightblue" d="M527.34,-293.12C460.05,-281.33 359.52,-263.72 293.61,-252.17"/>
<polygon fill="midnightblue" stroke="midnightblue" points="294.19,-248.72 283.74,-250.44 292.98,-255.61 294.19,-248.72"/>
</g>
<!-- Node10 -->
<g id="node10" class="node">
<title>Node10</title>
<g id="a_node10"><a xlink:href="math__array_8h.html" target="_top" xlink:title=" ">
<polygon fill="white" stroke="black" points="423.5,-224.5 423.5,-254.5 538.5,-254.5 538.5,-224.5 423.5,-224.5"/>
<text text-anchor="start" x="431.5" y="-242.5" font-family="Helvetica,sans-Serif" font-size="10.00">core/container/math</text>
<text text-anchor="middle" x="481" y="-231.5" font-family="Helvetica,sans-Serif" font-size="10.00">_array.h</text>
</a>
</g>
</g>
<!-- Node2&#45;&gt;Node10 -->
<g id="edge9" class="edge">
<title>Node2&#45;&gt;Node10</title>
<path fill="none" stroke="midnightblue" d="M572.61,-291.4C555.82,-282.07 533.61,-269.73 515.26,-259.53"/>
<polygon fill="midnightblue" stroke="midnightblue" points="516.78,-256.37 506.34,-254.58 513.38,-262.49 516.78,-256.37"/>
</g>
<!-- Node27 -->
<g id="node27" class="node">
<title>Node27</title>
<g id="a_node27"><a xlink:href="functor_8h.html" target="_top" xlink:title=" ">
<polygon fill="white" stroke="black" points="556.5,-230 556.5,-249 639.5,-249 639.5,-230 556.5,-230"/>
<text text-anchor="middle" x="598" y="-237" font-family="Helvetica,sans-Serif" font-size="10.00">core/functor.h</text>
</a>
</g>
</g>
<!-- Node2&#45;&gt;Node27 -->
<g id="edge31" class="edge">
<title>Node2&#45;&gt;Node27</title>
<path fill="none" stroke="midnightblue" d="M598,-291.4C598,-282.06 598,-269.71 598,-259.52"/>
<polygon fill="midnightblue" stroke="midnightblue" points="601.5,-259.19 598,-249.19 594.5,-259.19 601.5,-259.19"/>
</g>
<!-- Node28 -->
<g id="node28" class="node">
<title>Node28</title>
<g id="a_node28"><a xlink:href="iterator_8h.html" target="_top" xlink:title=" ">
<polygon fill="white" stroke="black" points="658,-230 658,-249 762,-249 762,-230 658,-230"/>
<text text-anchor="middle" x="710" y="-237" font-family="Helvetica,sans-Serif" font-size="10.00">core/util/iterator.h</text>
</a>
</g>
</g>
<!-- Node2&#45;&gt;Node28 -->
<g id="edge33" class="edge">
<title>Node2&#45;&gt;Node28</title>
<path fill="none" stroke="midnightblue" d="M622.3,-291.4C641.35,-280.34 667.68,-265.06 686.51,-254.13"/>
<polygon fill="midnightblue" stroke="midnightblue" points="688.45,-257.05 695.34,-249.01 684.94,-251 688.45,-257.05"/>
</g>
<!-- Node6 -->
<g id="node6" class="node">
<title>Node6</title>
<g id="a_node6"><a xlink:title=" ">
<polygon fill="white" stroke="#bfbfbf" points="271,-168.5 271,-187.5 335,-187.5 335,-168.5 271,-168.5"/>
<text text-anchor="middle" x="303" y="-175.5" font-family="Helvetica,sans-Serif" font-size="10.00">algorithm</text>
</a>
</g>
</g>
<!-- Node5&#45;&gt;Node6 -->
<g id="edge5" class="edge">
<title>Node5&#45;&gt;Node6</title>
<path fill="none" stroke="midnightblue" d="M245.01,-224.4C256.74,-215.22 272.02,-203.26 283.94,-193.92"/>
<polygon fill="midnightblue" stroke="midnightblue" points="286.22,-196.58 291.94,-187.66 281.91,-191.07 286.22,-196.58"/>
</g>
<!-- Node7 -->
<g id="node7" class="node">
<title>Node7</title>
<g id="a_node7"><a xlink:title=" ">
<polygon fill="white" stroke="#bfbfbf" points="201,-168.5 201,-187.5 253,-187.5 253,-168.5 201,-168.5"/>
<text text-anchor="middle" x="227" y="-175.5" font-family="Helvetica,sans-Serif" font-size="10.00">cassert</text>
</a>
</g>
</g>
<!-- Node5&#45;&gt;Node7 -->
<g id="edge6" class="edge">
<title>Node5&#45;&gt;Node7</title>
<path fill="none" stroke="midnightblue" d="M227,-224.4C227,-216.47 227,-206.46 227,-197.86"/>
<polygon fill="midnightblue" stroke="midnightblue" points="230.5,-197.66 227,-187.66 223.5,-197.66 230.5,-197.66"/>
</g>
<!-- Node8 -->
<g id="node8" class="node">
<title>Node8</title>
<g id="a_node8"><a xlink:title=" ">
<polygon fill="white" stroke="#bfbfbf" points="28.5,-168.5 28.5,-187.5 81.5,-187.5 81.5,-168.5 28.5,-168.5"/>
<text text-anchor="middle" x="55" y="-175.5" font-family="Helvetica,sans-Serif" font-size="10.00">cstddef</text>
</a>
</g>
</g>
<!-- Node5&#45;&gt;Node8 -->
<g id="edge7" class="edge">
<title>Node5&#45;&gt;Node8</title>
<path fill="none" stroke="midnightblue" d="M186.24,-224.4C156.78,-214.21 117.41,-200.59 89.5,-190.93"/>
<polygon fill="midnightblue" stroke="midnightblue" points="90.37,-187.53 79.78,-187.57 88.08,-194.15 90.37,-187.53"/>
</g>
<!-- Node9 -->
<g id="node9" class="node">
<title>Node9</title>
<g id="a_node9"><a xlink:title=" ">
<polygon fill="white" stroke="#bfbfbf" points="99.5,-168.5 99.5,-187.5 182.5,-187.5 182.5,-168.5 99.5,-168.5"/>
<text text-anchor="middle" x="141" y="-175.5" font-family="Helvetica,sans-Serif" font-size="10.00">initializer_list</text>
</a>
</g>
</g>
<!-- Node5&#45;&gt;Node9 -->
<g id="edge8" class="edge">
<title>Node5&#45;&gt;Node9</title>
<path fill="none" stroke="midnightblue" d="M206.62,-224.4C193.09,-215.04 175.39,-202.79 161.78,-193.38"/>
<polygon fill="midnightblue" stroke="midnightblue" points="163.73,-190.47 153.51,-187.66 159.75,-196.23 163.73,-190.47"/>
</g>
<!-- Node10&#45;&gt;Node6 -->
<g id="edge10" class="edge">
<title>Node10&#45;&gt;Node6</title>
<path fill="none" stroke="midnightblue" d="M438.82,-224.4C408.19,-214.16 367.23,-200.47 338.33,-190.81"/>
<polygon fill="midnightblue" stroke="midnightblue" points="339.23,-187.42 328.64,-187.57 337.02,-194.06 339.23,-187.42"/>
</g>
<!-- Node10&#45;&gt;Node7 -->
<g id="edge11" class="edge">
<title>Node10&#45;&gt;Node7</title>
<path fill="none" stroke="midnightblue" d="M423.27,-225.6C381.39,-216.15 323.13,-202.81 263.35,-188.29"/>
<polygon fill="midnightblue" stroke="midnightblue" points="263.9,-184.82 253.36,-185.85 262.24,-191.62 263.9,-184.82"/>
</g>
<!-- Node10&#45;&gt;Node11 -->
<g id="edge12" class="edge">
<title>Node10&#45;&gt;Node11</title>
<path fill="none" stroke="midnightblue" d="M538.7,-225.77C541.84,-225.16 544.96,-224.56 548,-224 652.78,-204.72 679.93,-205.63 785,-188 789.86,-187.18 794.99,-186.29 800.02,-185.38"/>
<polygon fill="midnightblue" stroke="midnightblue" points="800.89,-188.78 810.1,-183.54 799.63,-181.89 800.89,-188.78"/>
</g>
<!-- Node12 -->
<g id="node12" class="node">
<title>Node12</title>
<g id="a_node12"><a xlink:title=" ">
<polygon fill="white" stroke="#bfbfbf" points="581,-168.5 581,-187.5 637,-187.5 637,-168.5 581,-168.5"/>
<text text-anchor="middle" x="609" y="-175.5" font-family="Helvetica,sans-Serif" font-size="10.00">numeric</text>
</a>
</g>
</g>
<!-- Node10&#45;&gt;Node12 -->
<g id="edge13" class="edge">
<title>Node10&#45;&gt;Node12</title>
<path fill="none" stroke="midnightblue" d="M511.33,-224.4C532.52,-214.55 560.59,-201.5 581.2,-191.92"/>
<polygon fill="midnightblue" stroke="midnightblue" points="582.78,-195.05 590.37,-187.66 579.83,-188.7 582.78,-195.05"/>
</g>
<!-- Node13 -->
<g id="node13" class="node">
<title>Node13</title>
<g id="a_node13"><a xlink:title=" ">
<polygon fill="white" stroke="#bfbfbf" points="655.5,-168.5 655.5,-187.5 712.5,-187.5 712.5,-168.5 655.5,-168.5"/>
<text text-anchor="middle" x="684" y="-175.5" font-family="Helvetica,sans-Serif" font-size="10.00">ostream</text>
</a>
</g>
</g>
<!-- Node10&#45;&gt;Node13 -->
<g id="edge14" class="edge">
<title>Node10&#45;&gt;Node13</title>
<path fill="none" stroke="midnightblue" d="M528.85,-224.47C564.44,-214.04 612.37,-199.99 645.5,-190.29"/>
<polygon fill="midnightblue" stroke="midnightblue" points="646.66,-193.59 655.27,-187.42 644.69,-186.87 646.66,-193.59"/>
</g>
<!-- Node14 -->
<g id="node14" class="node">
<title>Node14</title>
<g id="a_node14"><a xlink:title=" ">
<polygon fill="white" stroke="#bfbfbf" points="353.5,-168.5 353.5,-187.5 418.5,-187.5 418.5,-168.5 353.5,-168.5"/>
<text text-anchor="middle" x="386" y="-175.5" font-family="Helvetica,sans-Serif" font-size="10.00">stdexcept</text>
</a>
</g>
</g>
<!-- Node10&#45;&gt;Node14 -->
<g id="edge15" class="edge">
<title>Node10&#45;&gt;Node14</title>
<path fill="none" stroke="midnightblue" d="M458.49,-224.4C443.4,-214.95 423.61,-202.56 408.53,-193.11"/>
<polygon fill="midnightblue" stroke="midnightblue" points="410.16,-190 399.82,-187.66 406.44,-195.93 410.16,-190"/>
</g>
<!-- Node15 -->
<g id="node15" class="node">
<title>Node15</title>
<g id="a_node15"><a xlink:title=" ">
<polygon fill="white" stroke="#bfbfbf" points="730.5,-168.5 730.5,-187.5 775.5,-187.5 775.5,-168.5 730.5,-168.5"/>
<text text-anchor="middle" x="753" y="-175.5" font-family="Helvetica,sans-Serif" font-size="10.00">utility</text>
</a>
</g>
</g>
<!-- Node10&#45;&gt;Node15 -->
<g id="edge16" class="edge">
<title>Node10&#45;&gt;Node15</title>
<path fill="none" stroke="midnightblue" d="M538.74,-225.97C541.87,-225.3 544.97,-224.64 548,-224 622.09,-208.32 643.61,-207.1 720.23,-188.3"/>
<polygon fill="midnightblue" stroke="midnightblue" points="721.5,-191.59 730.37,-185.79 719.82,-184.8 721.5,-191.59"/>
</g>
<!-- Node16 -->
<g id="node16" class="node">
<title>Node16</title>
<g id="a_node16"><a xlink:href="root_8h.html" target="_top" xlink:title=" ">
<polygon fill="white" stroke="black" points="437,-168.5 437,-187.5 525,-187.5 525,-168.5 437,-168.5"/>
<text text-anchor="middle" x="481" y="-175.5" font-family="Helvetica,sans-Serif" font-size="10.00">core/util/root.h</text>
</a>
</g>
</g>
<!-- Node10&#45;&gt;Node16 -->
<g id="edge17" class="edge">
<title>Node10&#45;&gt;Node16</title>
<path fill="none" stroke="midnightblue" d="M481,-224.4C481,-216.47 481,-206.46 481,-197.86"/>
<polygon fill="midnightblue" stroke="midnightblue" points="484.5,-197.66 481,-187.66 477.5,-197.66 484.5,-197.66"/>
</g>
<!-- Node18 -->
<g id="node18" class="node">
<title>Node18</title>
<g id="a_node18"><a xlink:href="log_8h.html" target="_top" xlink:title=" ">
<polygon fill="white" stroke="black" points="475.5,-112.5 475.5,-131.5 558.5,-131.5 558.5,-112.5 475.5,-112.5"/>
<text text-anchor="middle" x="517" y="-119.5" font-family="Helvetica,sans-Serif" font-size="10.00">core/util/log.h</text>
</a>
</g>
</g>
<!-- Node10&#45;&gt;Node18 -->
<g id="edge30" class="edge">
<title>Node10&#45;&gt;Node18</title>
<path fill="none" stroke="midnightblue" d="M502.7,-224.47C514.34,-215.58 527.59,-202.95 534,-188 540.59,-172.62 534.46,-154.07 527.79,-140.73"/>
<polygon fill="midnightblue" stroke="midnightblue" points="530.69,-138.74 522.79,-131.68 524.57,-142.13 530.69,-138.74"/>
</g>
<!-- Node17 -->
<g id="node17" class="node">
<title>Node17</title>
<g id="a_node17"><a xlink:title=" ">
<polygon fill="white" stroke="#bfbfbf" points="400.5,-112.5 400.5,-131.5 457.5,-131.5 457.5,-112.5 400.5,-112.5"/>
<text text-anchor="middle" x="429" y="-119.5" font-family="Helvetica,sans-Serif" font-size="10.00">TClass.h</text>
</a>
</g>
</g>
<!-- Node16&#45;&gt;Node17 -->
<g id="edge18" class="edge">
<title>Node16&#45;&gt;Node17</title>
<path fill="none" stroke="midnightblue" d="M472.41,-168.08C464.84,-160.22 453.62,-148.57 444.49,-139.08"/>
<polygon fill="midnightblue" stroke="midnightblue" points="446.88,-136.53 437.43,-131.75 441.84,-141.38 446.88,-136.53"/>
</g>
<!-- Node16&#45;&gt;Node18 -->
<g id="edge19" class="edge">
<title>Node16&#45;&gt;Node18</title>
<path fill="none" stroke="midnightblue" d="M486.94,-168.08C491.98,-160.53 499.34,-149.49 505.51,-140.23"/>
<polygon fill="midnightblue" stroke="midnightblue" points="508.53,-142.01 511.17,-131.75 502.71,-138.13 508.53,-142.01"/>
</g>
<!-- Node19 -->
<g id="node19" class="node">
<title>Node19</title>
<g id="a_node19"><a xlink:title=" ">
<polygon fill="white" stroke="#bfbfbf" points="669,-56.5 669,-75.5 723,-75.5 723,-56.5 669,-56.5"/>
<text text-anchor="middle" x="696" y="-63.5" font-family="Helvetica,sans-Serif" font-size="10.00">TError.h</text>
</a>
</g>
</g>
<!-- Node18&#45;&gt;Node19 -->
<g id="edge20" class="edge">
<title>Node18&#45;&gt;Node19</title>
<path fill="none" stroke="midnightblue" d="M545.36,-112.44C576.1,-103.17 625.25,-88.34 659,-78.16"/>
<polygon fill="midnightblue" stroke="midnightblue" points="660.38,-81.4 668.94,-75.16 658.36,-74.7 660.38,-81.4"/>
</g>
<!-- Node20 -->
<g id="node20" class="node">
<title>Node20</title>
<g id="a_node20"><a xlink:title=" ">
<polygon fill="white" stroke="#bfbfbf" points="224,-56.5 224,-75.5 270,-75.5 270,-56.5 224,-56.5"/>
<text text-anchor="middle" x="247" y="-63.5" font-family="Helvetica,sans-Serif" font-size="10.00">cstdio</text>
</a>
</g>
</g>
<!-- Node18&#45;&gt;Node20 -->
<g id="edge21" class="edge">
<title>Node18&#45;&gt;Node20</title>
<path fill="none" stroke="midnightblue" d="M475.32,-113.32C418.15,-102.77 318.81,-84.32 280,-75.97"/>
<polygon fill="midnightblue" stroke="midnightblue" points="280.53,-72.51 270.01,-73.73 279,-79.34 280.53,-72.51"/>
</g>
<!-- Node21 -->
<g id="node21" class="node">
<title>Node21</title>
<g id="a_node21"><a xlink:title=" ">
<polygon fill="white" stroke="#bfbfbf" points="288.5,-56.5 288.5,-75.5 337.5,-75.5 337.5,-56.5 288.5,-56.5"/>
<text text-anchor="middle" x="313" y="-63.5" font-family="Helvetica,sans-Serif" font-size="10.00">cstdlib</text>
</a>
</g>
</g>
<!-- Node18&#45;&gt;Node21 -->
<g id="edge22" class="edge">
<title>Node18&#45;&gt;Node21</title>
<path fill="none" stroke="midnightblue" d="M484.2,-112.46C451.77,-104 400.49,-90.56 347.43,-76.37"/>
<polygon fill="midnightblue" stroke="midnightblue" points="348.07,-72.91 337.5,-73.71 346.26,-79.68 348.07,-72.91"/>
</g>
<!-- Node22 -->
<g id="node22" class="node">
<title>Node22</title>
<g id="a_node22"><a xlink:title=" ">
<polygon fill="white" stroke="#bfbfbf" points="355.5,-56.5 355.5,-75.5 420.5,-75.5 420.5,-56.5 355.5,-56.5"/>
<text text-anchor="middle" x="388" y="-63.5" font-family="Helvetica,sans-Serif" font-size="10.00">functional</text>
</a>
</g>
</g>
<!-- Node18&#45;&gt;Node22 -->
<g id="edge23" class="edge">
<title>Node18&#45;&gt;Node22</title>
<path fill="none" stroke="midnightblue" d="M496.56,-112.44C475.33,-103.56 441.9,-89.56 417.75,-79.45"/>
<polygon fill="midnightblue" stroke="midnightblue" points="418.92,-76.15 408.34,-75.52 416.22,-82.61 418.92,-76.15"/>
</g>
<!-- Node23 -->
<g id="node23" class="node">
<title>Node23</title>
<g id="a_node23"><a xlink:title=" ">
<polygon fill="white" stroke="#bfbfbf" points="439,-56.5 439,-75.5 499,-75.5 499,-56.5 439,-56.5"/>
<text text-anchor="middle" x="469" y="-63.5" font-family="Helvetica,sans-Serif" font-size="10.00">iostream</text>
</a>
</g>
</g>
<!-- Node18&#45;&gt;Node23 -->
<g id="edge24" class="edge">
<title>Node18&#45;&gt;Node23</title>
<path fill="none" stroke="midnightblue" d="M509.07,-112.08C502.15,-104.3 491.93,-92.8 483.55,-83.37"/>
<polygon fill="midnightblue" stroke="midnightblue" points="486.04,-80.9 476.78,-75.75 480.81,-85.55 486.04,-80.9"/>
</g>
<!-- Node24 -->
<g id="node24" class="node">
<title>Node24</title>
<g id="a_node24"><a xlink:title=" ">
<polygon fill="white" stroke="#bfbfbf" points="615,-0.5 615,-19.5 659,-19.5 659,-0.5 615,-0.5"/>
<text text-anchor="middle" x="637" y="-7.5" font-family="Helvetica,sans-Serif" font-size="10.00">string</text>
</a>
</g>
</g>
<!-- Node18&#45;&gt;Node24 -->
<g id="edge25" class="edge">
<title>Node18&#45;&gt;Node24</title>
<path fill="none" stroke="midnightblue" d="M558.59,-112.73C580.49,-106.28 606.03,-95.1 622,-76 632.79,-63.1 636.16,-43.93 637.06,-29.74"/>
<polygon fill="midnightblue" stroke="midnightblue" points="640.57,-29.75 637.35,-19.65 633.57,-29.55 640.57,-29.75"/>
</g>
<!-- Node25 -->
<g id="node25" class="node">
<title>Node25</title>
<g id="a_node25"><a xlink:href="string_8h.html" target="_top" xlink:title=" ">
<polygon fill="white" stroke="black" points="517,-56.5 517,-75.5 613,-75.5 613,-56.5 517,-56.5"/>
<text text-anchor="middle" x="565" y="-63.5" font-family="Helvetica,sans-Serif" font-size="10.00">core/util/string.h</text>
</a>
</g>
</g>
<!-- Node18&#45;&gt;Node25 -->
<g id="edge26" class="edge">
<title>Node18&#45;&gt;Node25</title>
<path fill="none" stroke="midnightblue" d="M524.93,-112.08C531.85,-104.3 542.07,-92.8 550.45,-83.37"/>
<polygon fill="midnightblue" stroke="midnightblue" points="553.19,-85.55 557.22,-75.75 547.96,-80.9 553.19,-85.55"/>
</g>
<!-- Node25&#45;&gt;Node4 -->
<g id="edge29" class="edge">
<title>Node25&#45;&gt;Node4</title>
<path fill="none" stroke="midnightblue" d="M516.99,-56.97C450.82,-45.91 333.23,-26.25 275.65,-16.63"/>
<polygon fill="midnightblue" stroke="midnightblue" points="276.07,-13.15 265.63,-14.95 274.91,-20.05 276.07,-13.15"/>
</g>
<!-- Node25&#45;&gt;Node24 -->
<g id="edge28" class="edge">
<title>Node25&#45;&gt;Node24</title>
<path fill="none" stroke="midnightblue" d="M576.57,-56.32C587.42,-48.18 603.88,-35.84 616.88,-26.09"/>
<polygon fill="midnightblue" stroke="midnightblue" points="619.32,-28.63 625.22,-19.83 615.12,-23.03 619.32,-28.63"/>
</g>
<!-- Node26 -->
<g id="node26" class="node">
<title>Node26</title>
<g id="a_node26"><a xlink:title=" ">
<polygon fill="white" stroke="#bfbfbf" points="537,-0.5 537,-19.5 593,-19.5 593,-0.5 537,-0.5"/>
<text text-anchor="middle" x="565" y="-7.5" font-family="Helvetica,sans-Serif" font-size="10.00">sstream</text>
</a>
</g>
</g>
<!-- Node25&#45;&gt;Node26 -->
<g id="edge27" class="edge">
<title>Node25&#45;&gt;Node26</title>
<path fill="none" stroke="midnightblue" d="M565,-56.08C565,-49.01 565,-38.86 565,-29.99"/>
<polygon fill="midnightblue" stroke="midnightblue" points="568.5,-29.75 565,-19.75 561.5,-29.75 568.5,-29.75"/>
</g>
<!-- Node27&#45;&gt;Node15 -->
<g id="edge32" class="edge">
<title>Node27&#45;&gt;Node15</title>
<path fill="none" stroke="midnightblue" d="M620.21,-229.98C646.68,-219.81 691.11,-202.76 721.22,-191.2"/>
<polygon fill="midnightblue" stroke="midnightblue" points="722.75,-194.36 730.83,-187.51 720.24,-187.83 722.75,-194.36"/>
</g>
</g>
</svg>
