<?xml version="1.0" encoding="UTF-8" standalone="no"?>
<!DOCTYPE svg PUBLIC "-//W3C//DTD SVG 1.1//EN"
 "http://www.w3.org/Graphics/SVG/1.1/DTD/svg11.dtd">
<!-- Generated by graphviz version 2.43.0 (0)
 -->
<!-- Title: core/environment/morton_order.cc Pages: 1 -->
<svg width="953pt" height="397pt"
 viewBox="0.00 0.00 952.50 397.00" xmlns="http://www.w3.org/2000/svg" xmlns:xlink="http://www.w3.org/1999/xlink">
<g id="graph0" class="graph" transform="scale(1 1) rotate(0) translate(4 393)">
<title>core/environment/morton_order.cc</title>
<polygon fill="white" stroke="transparent" points="-4,4 -4,-393 948.5,-393 948.5,4 -4,4"/>
<!-- Node1 -->
<g id="node1" class="node">
<title>Node1</title>
<g id="a_node1"><a xlink:title=" ">
<polygon fill="#bfbfbf" stroke="black" points="746.5,-358.5 746.5,-388.5 887.5,-388.5 887.5,-358.5 746.5,-358.5"/>
<text text-anchor="start" x="754.5" y="-376.5" font-family="Helvetica,sans-Serif" font-size="10.00">core/environment/morton</text>
<text text-anchor="middle" x="817" y="-365.5" font-family="Helvetica,sans-Serif" font-size="10.00">_order.cc</text>
</a>
</g>
</g>
<!-- Node2 -->
<g id="node2" class="node">
<title>Node2</title>
<g id="a_node2"><a xlink:href="morton__order_8h.html" target="_top" xlink:title=" ">
<polygon fill="white" stroke="black" points="494.5,-291.5 494.5,-321.5 635.5,-321.5 635.5,-291.5 494.5,-291.5"/>
<text text-anchor="start" x="502.5" y="-309.5" font-family="Helvetica,sans-Serif" font-size="10.00">core/environment/morton</text>
<text text-anchor="middle" x="565" y="-298.5" font-family="Helvetica,sans-Serif" font-size="10.00">_order.h</text>
</a>
</g>
</g>
<!-- Node1&#45;&gt;Node2 -->
<g id="edge1" class="edge">
<title>Node1&#45;&gt;Node2</title>
<path fill="none" stroke="midnightblue" d="M762.63,-358.48C723.6,-348.41 670.84,-334.8 629.65,-324.17"/>
<polygon fill="midnightblue" stroke="midnightblue" points="630.26,-320.72 619.71,-321.61 628.52,-327.5 630.26,-320.72"/>
</g>
<!-- Node11 -->
<g id="node11" class="node">
<title>Node11</title>
<g id="a_node11"><a xlink:title=" ">
<polygon fill="white" stroke="#bfbfbf" points="793.5,-168.5 793.5,-187.5 840.5,-187.5 840.5,-168.5 793.5,-168.5"/>
<text text-anchor="middle" x="817" y="-175.5" font-family="Helvetica,sans-Serif" font-size="10.00">cmath</text>
</a>
</g>
</g>
<!-- Node1&#45;&gt;Node11 -->
<g id="edge35" class="edge">
<title>Node1&#45;&gt;Node11</title>
<path fill="none" stroke="midnightblue" d="M817,-358.27C817,-323.94 817,-236.57 817,-197.9"/>
<polygon fill="midnightblue" stroke="midnightblue" points="820.5,-197.58 817,-187.58 813.5,-197.58 820.5,-197.58"/>
</g>
<!-- Node29 -->
<g id="node29" class="node">
<title>Node29</title>
<g id="a_node29"><a xlink:title=" ">
<polygon fill="white" stroke="#bfbfbf" points="845.5,-297 845.5,-316 944.5,-316 944.5,-297 845.5,-297"/>
<text text-anchor="middle" x="895" y="-304" font-family="Helvetica,sans-Serif" font-size="10.00">morton/morton.h</text>
</a>
</g>
</g>
<!-- Node1&#45;&gt;Node29 -->
<g id="edge34" class="edge">
<title>Node1&#45;&gt;Node29</title>
<path fill="none" stroke="midnightblue" d="M833.92,-358.4C846.57,-347.86 863.83,-333.48 876.77,-322.69"/>
<polygon fill="midnightblue" stroke="midnightblue" points="879.12,-325.29 884.57,-316.19 874.64,-319.91 879.12,-325.29"/>
</g>
<!-- Node3 -->
<g id="node3" class="node">
<title>Node3</title>
<g id="a_node3"><a xlink:title=" ">
<polygon fill="white" stroke="#bfbfbf" points="747,-230 747,-249 789,-249 789,-230 747,-230"/>
<text text-anchor="middle" x="768" y="-237" font-family="Helvetica,sans-Serif" font-size="10.00">array</text>
</a>
</g>
</g>
<!-- Node2&#45;&gt;Node3 -->
<g id="edge2" class="edge">
<title>Node2&#45;&gt;Node3</title>
<path fill="none" stroke="midnightblue" d="M621.88,-291.45C656.02,-282.39 700.04,-269.6 738,-255 739.38,-254.47 740.79,-253.9 742.2,-253.3"/>
<polygon fill="midnightblue" stroke="midnightblue" points="743.74,-256.45 751.4,-249.13 740.85,-250.07 743.74,-256.45"/>
</g>
<!-- Node4 -->
<g id="node4" class="node">
<title>Node4</title>
<g id="a_node4"><a xlink:title=" ">
<polygon fill="white" stroke="#bfbfbf" points="165.5,-0.5 165.5,-19.5 212.5,-19.5 212.5,-0.5 165.5,-0.5"/>
<text text-anchor="middle" x="189" y="-7.5" font-family="Helvetica,sans-Serif" font-size="10.00">vector</text>
</a>
</g>
</g>
<!-- Node2&#45;&gt;Node4 -->
<g id="edge3" class="edge">
<title>Node2&#45;&gt;Node4</title>
<path fill="none" stroke="midnightblue" d="M494.3,-304.38C342.7,-300.06 0,-279.2 0,-179 0,-179 0,-179 0,-121 0,-49.99 100.88,-24.03 155.24,-15.19"/>
<polygon fill="midnightblue" stroke="midnightblue" points="156.08,-18.6 165.45,-13.64 155.03,-11.68 156.08,-18.6"/>
</g>
<!-- Node5 -->
<g id="node5" class="node">
<title>Node5</title>
<g id="a_node5"><a xlink:href="fixed__size__vector_8h.html" target="_top" xlink:title=" ">
<polygon fill="white" stroke="black" points="170.5,-224.5 170.5,-254.5 283.5,-254.5 283.5,-224.5 170.5,-224.5"/>
<text text-anchor="start" x="178.5" y="-242.5" font-family="Helvetica,sans-Serif" font-size="10.00">core/container/fixed</text>
<text text-anchor="middle" x="227" y="-231.5" font-family="Helvetica,sans-Serif" font-size="10.00">_size_vector.h</text>
</a>
</g>
</g>
<!-- Node2&#45;&gt;Node5 -->
<g id="edge4" class="edge">
<title>Node2&#45;&gt;Node5</title>
<path fill="none" stroke="midnightblue" d="M494.14,-291.87C435.07,-280.51 351.51,-264.44 293.64,-253.31"/>
<polygon fill="midnightblue" stroke="midnightblue" points="293.98,-249.82 283.5,-251.37 292.66,-256.69 293.98,-249.82"/>
</g>
<!-- Node10 -->
<g id="node10" class="node">
<title>Node10</title>
<g id="a_node10"><a xlink:href="math__array_8h.html" target="_top" xlink:title=" ">
<polygon fill="white" stroke="black" points="390.5,-224.5 390.5,-254.5 505.5,-254.5 505.5,-224.5 390.5,-224.5"/>
<text text-anchor="start" x="398.5" y="-242.5" font-family="Helvetica,sans-Serif" font-size="10.00">core/container/math</text>
<text text-anchor="middle" x="448" y="-231.5" font-family="Helvetica,sans-Serif" font-size="10.00">_array.h</text>
</a>
</g>
</g>
<!-- Node2&#45;&gt;Node10 -->
<g id="edge9" class="edge">
<title>Node2&#45;&gt;Node10</title>
<path fill="none" stroke="midnightblue" d="M539.61,-291.4C522.82,-282.07 500.61,-269.73 482.26,-259.53"/>
<polygon fill="midnightblue" stroke="midnightblue" points="483.78,-256.37 473.34,-254.58 480.38,-262.49 483.78,-256.37"/>
</g>
<!-- Node27 -->
<g id="node27" class="node">
<title>Node27</title>
<g id="a_node27"><a xlink:href="functor_8h.html" target="_top" xlink:title=" ">
<polygon fill="white" stroke="black" points="523.5,-230 523.5,-249 606.5,-249 606.5,-230 523.5,-230"/>
<text text-anchor="middle" x="565" y="-237" font-family="Helvetica,sans-Serif" font-size="10.00">core/functor.h</text>
</a>
</g>
</g>
<!-- Node2&#45;&gt;Node27 -->
<g id="edge31" class="edge">
<title>Node2&#45;&gt;Node27</title>
<path fill="none" stroke="midnightblue" d="M565,-291.4C565,-282.06 565,-269.71 565,-259.52"/>
<polygon fill="midnightblue" stroke="midnightblue" points="568.5,-259.19 565,-249.19 561.5,-259.19 568.5,-259.19"/>
</g>
<!-- Node28 -->
<g id="node28" class="node">
<title>Node28</title>
<g id="a_node28"><a xlink:href="iterator_8h.html" target="_top" xlink:title=" ">
<polygon fill="white" stroke="black" points="625,-230 625,-249 729,-249 729,-230 625,-230"/>
<text text-anchor="middle" x="677" y="-237" font-family="Helvetica,sans-Serif" font-size="10.00">core/util/iterator.h</text>
</a>
</g>
</g>
<!-- Node2&#45;&gt;Node28 -->
<g id="edge33" class="edge">
<title>Node2&#45;&gt;Node28</title>
<path fill="none" stroke="midnightblue" d="M589.3,-291.4C608.35,-280.34 634.68,-265.06 653.51,-254.13"/>
<polygon fill="midnightblue" stroke="midnightblue" points="655.45,-257.05 662.34,-249.01 651.94,-251 655.45,-257.05"/>
</g>
<!-- Node6 -->
<g id="node6" class="node">
<title>Node6</title>
<g id="a_node6"><a xlink:title=" ">
<polygon fill="white" stroke="#bfbfbf" points="271,-168.5 271,-187.5 335,-187.5 335,-168.5 271,-168.5"/>
<text text-anchor="middle" x="303" y="-175.5" font-family="Helvetica,sans-Serif" font-size="10.00">algorithm</text>
</a>
</g>
</g>
<!-- Node5&#45;&gt;Node6 -->
<g id="edge5" class="edge">
<title>Node5&#45;&gt;Node6</title>
<path fill="none" stroke="midnightblue" d="M245.01,-224.4C256.74,-215.22 272.02,-203.26 283.94,-193.92"/>
<polygon fill="midnightblue" stroke="midnightblue" points="286.22,-196.58 291.94,-187.66 281.91,-191.07 286.22,-196.58"/>
</g>
<!-- Node7 -->
<g id="node7" class="node">
<title>Node7</title>
<g id="a_node7"><a xlink:title=" ">
<polygon fill="white" stroke="#bfbfbf" points="201,-168.5 201,-187.5 253,-187.5 253,-168.5 201,-168.5"/>
<text text-anchor="middle" x="227" y="-175.5" font-family="Helvetica,sans-Serif" font-size="10.00">cassert</text>
</a>
</g>
</g>
<!-- Node5&#45;&gt;Node7 -->
<g id="edge6" class="edge">
<title>Node5&#45;&gt;Node7</title>
<path fill="none" stroke="midnightblue" d="M227,-224.4C227,-216.47 227,-206.46 227,-197.86"/>
<polygon fill="midnightblue" stroke="midnightblue" points="230.5,-197.66 227,-187.66 223.5,-197.66 230.5,-197.66"/>
</g>
<!-- Node8 -->
<g id="node8" class="node">
<title>Node8</title>
<g id="a_node8"><a xlink:title=" ">
<polygon fill="white" stroke="#bfbfbf" points="28.5,-168.5 28.5,-187.5 81.5,-187.5 81.5,-168.5 28.5,-168.5"/>
<text text-anchor="middle" x="55" y="-175.5" font-family="Helvetica,sans-Serif" font-size="10.00">cstddef</text>
</a>
</g>
</g>
<!-- Node5&#45;&gt;Node8 -->
<g id="edge7" class="edge">
<title>Node5&#45;&gt;Node8</title>
<path fill="none" stroke="midnightblue" d="M186.24,-224.4C156.78,-214.21 117.41,-200.59 89.5,-190.93"/>
<polygon fill="midnightblue" stroke="midnightblue" points="90.37,-187.53 79.78,-187.57 88.08,-194.15 90.37,-187.53"/>
</g>
<!-- Node9 -->
<g id="node9" class="node">
<title>Node9</title>
<g id="a_node9"><a xlink:title=" ">
<polygon fill="white" stroke="#bfbfbf" points="99.5,-168.5 99.5,-187.5 182.5,-187.5 182.5,-168.5 99.5,-168.5"/>
<text text-anchor="middle" x="141" y="-175.5" font-family="Helvetica,sans-Serif" font-size="10.00">initializer_list</text>
</a>
</g>
</g>
<!-- Node5&#45;&gt;Node9 -->
<g id="edge8" class="edge">
<title>Node5&#45;&gt;Node9</title>
<path fill="none" stroke="midnightblue" d="M206.62,-224.4C193.09,-215.04 175.39,-202.79 161.78,-193.38"/>
<polygon fill="midnightblue" stroke="midnightblue" points="163.73,-190.47 153.51,-187.66 159.75,-196.23 163.73,-190.47"/>
</g>
<!-- Node10&#45;&gt;Node6 -->
<g id="edge10" class="edge">
<title>Node10&#45;&gt;Node6</title>
<path fill="none" stroke="midnightblue" d="M413.64,-224.4C389.31,-214.42 356.97,-201.15 333.54,-191.53"/>
<polygon fill="midnightblue" stroke="midnightblue" points="334.68,-188.22 324.1,-187.66 332.02,-194.69 334.68,-188.22"/>
</g>
<!-- Node10&#45;&gt;Node7 -->
<g id="edge11" class="edge">
<title>Node10&#45;&gt;Node7</title>
<path fill="none" stroke="midnightblue" d="M395.91,-224.47C355.02,-213.47 299.17,-198.43 263.09,-188.72"/>
<polygon fill="midnightblue" stroke="midnightblue" points="263.58,-185.22 253.01,-186 261.76,-191.98 263.58,-185.22"/>
</g>
<!-- Node10&#45;&gt;Node11 -->
<g id="edge12" class="edge">
<title>Node10&#45;&gt;Node11</title>
<path fill="none" stroke="midnightblue" d="M505.69,-225.71C508.83,-225.11 511.95,-224.53 515,-224 631.11,-203.73 664.68,-211.98 783.48,-188.08"/>
<polygon fill="midnightblue" stroke="midnightblue" points="784.23,-191.5 793.33,-186.06 782.83,-184.64 784.23,-191.5"/>
</g>
<!-- Node12 -->
<g id="node12" class="node">
<title>Node12</title>
<g id="a_node12"><a xlink:title=" ">
<polygon fill="white" stroke="#bfbfbf" points="581,-168.5 581,-187.5 637,-187.5 637,-168.5 581,-168.5"/>
<text text-anchor="middle" x="609" y="-175.5" font-family="Helvetica,sans-Serif" font-size="10.00">numeric</text>
</a>
</g>
</g>
<!-- Node10&#45;&gt;Node12 -->
<g id="edge13" class="edge">
<title>Node10&#45;&gt;Node12</title>
<path fill="none" stroke="midnightblue" d="M486.15,-224.4C513.53,-214.28 550.04,-200.79 576.13,-191.15"/>
<polygon fill="midnightblue" stroke="midnightblue" points="577.41,-194.41 585.57,-187.66 574.98,-187.84 577.41,-194.41"/>
</g>
<!-- Node13 -->
<g id="node13" class="node">
<title>Node13</title>
<g id="a_node13"><a xlink:title=" ">
<polygon fill="white" stroke="#bfbfbf" points="655.5,-168.5 655.5,-187.5 712.5,-187.5 712.5,-168.5 655.5,-168.5"/>
<text text-anchor="middle" x="684" y="-175.5" font-family="Helvetica,sans-Serif" font-size="10.00">ostream</text>
</a>
</g>
</g>
<!-- Node10&#45;&gt;Node13 -->
<g id="edge14" class="edge">
<title>Node10&#45;&gt;Node13</title>
<path fill="none" stroke="midnightblue" d="M503.63,-224.47C547.29,-213.47 606.93,-198.43 645.46,-188.72"/>
<polygon fill="midnightblue" stroke="midnightblue" points="646.42,-192.09 655.26,-186.25 644.71,-185.3 646.42,-192.09"/>
</g>
<!-- Node14 -->
<g id="node14" class="node">
<title>Node14</title>
<g id="a_node14"><a xlink:title=" ">
<polygon fill="white" stroke="#bfbfbf" points="353.5,-168.5 353.5,-187.5 418.5,-187.5 418.5,-168.5 353.5,-168.5"/>
<text text-anchor="middle" x="386" y="-175.5" font-family="Helvetica,sans-Serif" font-size="10.00">stdexcept</text>
</a>
</g>
</g>
<!-- Node10&#45;&gt;Node14 -->
<g id="edge15" class="edge">
<title>Node10&#45;&gt;Node14</title>
<path fill="none" stroke="midnightblue" d="M433.31,-224.4C424.02,-215.49 412,-203.95 402.4,-194.74"/>
<polygon fill="midnightblue" stroke="midnightblue" points="404.66,-192.06 395.02,-187.66 399.81,-197.11 404.66,-192.06"/>
</g>
<!-- Node15 -->
<g id="node15" class="node">
<title>Node15</title>
<g id="a_node15"><a xlink:title=" ">
<polygon fill="white" stroke="#bfbfbf" points="730.5,-168.5 730.5,-187.5 775.5,-187.5 775.5,-168.5 730.5,-168.5"/>
<text text-anchor="middle" x="753" y="-175.5" font-family="Helvetica,sans-Serif" font-size="10.00">utility</text>
</a>
</g>
</g>
<!-- Node10&#45;&gt;Node15 -->
<g id="edge16" class="edge">
<title>Node10&#45;&gt;Node15</title>
<path fill="none" stroke="midnightblue" d="M505.71,-225.85C508.85,-225.21 511.96,-224.59 515,-224 603.52,-206.73 629.28,-208.87 720.46,-188.16"/>
<polygon fill="midnightblue" stroke="midnightblue" points="721.43,-191.53 730.39,-185.88 719.86,-184.71 721.43,-191.53"/>
</g>
<!-- Node16 -->
<g id="node16" class="node">
<title>Node16</title>
<g id="a_node16"><a xlink:href="log_8h.html" target="_top" xlink:title=" ">
<polygon fill="white" stroke="black" points="397.5,-112.5 397.5,-131.5 480.5,-131.5 480.5,-112.5 397.5,-112.5"/>
<text text-anchor="middle" x="439" y="-119.5" font-family="Helvetica,sans-Serif" font-size="10.00">core/util/log.h</text>
</a>
</g>
</g>
<!-- Node10&#45;&gt;Node16 -->
<g id="edge17" class="edge">
<title>Node10&#45;&gt;Node16</title>
<path fill="none" stroke="midnightblue" d="M446.9,-224.34C445.28,-203.62 442.27,-165.02 440.47,-141.9"/>
<polygon fill="midnightblue" stroke="midnightblue" points="443.94,-141.37 439.68,-131.67 436.96,-141.91 443.94,-141.37"/>
</g>
<!-- Node25 -->
<g id="node25" class="node">
<title>Node25</title>
<g id="a_node25"><a xlink:href="root_8h.html" target="_top" xlink:title=" ">
<polygon fill="white" stroke="black" points="475,-168.5 475,-187.5 563,-187.5 563,-168.5 475,-168.5"/>
<text text-anchor="middle" x="519" y="-175.5" font-family="Helvetica,sans-Serif" font-size="10.00">core/util/root.h</text>
</a>
</g>
</g>
<!-- Node10&#45;&gt;Node25 -->
<g id="edge28" class="edge">
<title>Node10&#45;&gt;Node25</title>
<path fill="none" stroke="midnightblue" d="M464.83,-224.4C475.67,-215.31 489.78,-203.49 500.87,-194.19"/>
<polygon fill="midnightblue" stroke="midnightblue" points="503.25,-196.76 508.67,-187.66 498.76,-191.4 503.25,-196.76"/>
</g>
<!-- Node17 -->
<g id="node17" class="node">
<title>Node17</title>
<g id="a_node17"><a xlink:title=" ">
<polygon fill="white" stroke="#bfbfbf" points="591,-56.5 591,-75.5 645,-75.5 645,-56.5 591,-56.5"/>
<text text-anchor="middle" x="618" y="-63.5" font-family="Helvetica,sans-Serif" font-size="10.00">TError.h</text>
</a>
</g>
</g>
<!-- Node16&#45;&gt;Node17 -->
<g id="edge18" class="edge">
<title>Node16&#45;&gt;Node17</title>
<path fill="none" stroke="midnightblue" d="M467.36,-112.44C498.1,-103.17 547.25,-88.34 581,-78.16"/>
<polygon fill="midnightblue" stroke="midnightblue" points="582.38,-81.4 590.94,-75.16 580.36,-74.7 582.38,-81.4"/>
</g>
<!-- Node18 -->
<g id="node18" class="node">
<title>Node18</title>
<g id="a_node18"><a xlink:title=" ">
<polygon fill="white" stroke="#bfbfbf" points="146,-56.5 146,-75.5 192,-75.5 192,-56.5 146,-56.5"/>
<text text-anchor="middle" x="169" y="-63.5" font-family="Helvetica,sans-Serif" font-size="10.00">cstdio</text>
</a>
</g>
</g>
<!-- Node16&#45;&gt;Node18 -->
<g id="edge19" class="edge">
<title>Node16&#45;&gt;Node18</title>
<path fill="none" stroke="midnightblue" d="M397.49,-114.28C351.87,-106.65 276.22,-93.26 202,-76.07"/>
<polygon fill="midnightblue" stroke="midnightblue" points="202.54,-72.6 192.01,-73.73 200.95,-79.42 202.54,-72.6"/>
</g>
<!-- Node19 -->
<g id="node19" class="node">
<title>Node19</title>
<g id="a_node19"><a xlink:title=" ">
<polygon fill="white" stroke="#bfbfbf" points="210.5,-56.5 210.5,-75.5 259.5,-75.5 259.5,-56.5 210.5,-56.5"/>
<text text-anchor="middle" x="235" y="-63.5" font-family="Helvetica,sans-Serif" font-size="10.00">cstdlib</text>
</a>
</g>
</g>
<!-- Node16&#45;&gt;Node19 -->
<g id="edge20" class="edge">
<title>Node16&#45;&gt;Node19</title>
<path fill="none" stroke="midnightblue" d="M406.2,-112.46C373.77,-104 322.49,-90.56 269.43,-76.37"/>
<polygon fill="midnightblue" stroke="midnightblue" points="270.07,-72.91 259.5,-73.71 268.26,-79.68 270.07,-72.91"/>
</g>
<!-- Node20 -->
<g id="node20" class="node">
<title>Node20</title>
<g id="a_node20"><a xlink:title=" ">
<polygon fill="white" stroke="#bfbfbf" points="277.5,-56.5 277.5,-75.5 342.5,-75.5 342.5,-56.5 277.5,-56.5"/>
<text text-anchor="middle" x="310" y="-63.5" font-family="Helvetica,sans-Serif" font-size="10.00">functional</text>
</a>
</g>
</g>
<!-- Node16&#45;&gt;Node20 -->
<g id="edge21" class="edge">
<title>Node16&#45;&gt;Node20</title>
<path fill="none" stroke="midnightblue" d="M418.56,-112.44C397.33,-103.56 363.9,-89.56 339.75,-79.45"/>
<polygon fill="midnightblue" stroke="midnightblue" points="340.92,-76.15 330.34,-75.52 338.22,-82.61 340.92,-76.15"/>
</g>
<!-- Node21 -->
<g id="node21" class="node">
<title>Node21</title>
<g id="a_node21"><a xlink:title=" ">
<polygon fill="white" stroke="#bfbfbf" points="361,-56.5 361,-75.5 421,-75.5 421,-56.5 361,-56.5"/>
<text text-anchor="middle" x="391" y="-63.5" font-family="Helvetica,sans-Serif" font-size="10.00">iostream</text>
</a>
</g>
</g>
<!-- Node16&#45;&gt;Node21 -->
<g id="edge22" class="edge">
<title>Node16&#45;&gt;Node21</title>
<path fill="none" stroke="midnightblue" d="M431.07,-112.08C424.15,-104.3 413.93,-92.8 405.55,-83.37"/>
<polygon fill="midnightblue" stroke="midnightblue" points="408.04,-80.9 398.78,-75.75 402.81,-85.55 408.04,-80.9"/>
</g>
<!-- Node22 -->
<g id="node22" class="node">
<title>Node22</title>
<g id="a_node22"><a xlink:title=" ">
<polygon fill="white" stroke="#bfbfbf" points="537,-0.5 537,-19.5 581,-19.5 581,-0.5 537,-0.5"/>
<text text-anchor="middle" x="559" y="-7.5" font-family="Helvetica,sans-Serif" font-size="10.00">string</text>
</a>
</g>
</g>
<!-- Node16&#45;&gt;Node22 -->
<g id="edge23" class="edge">
<title>Node16&#45;&gt;Node22</title>
<path fill="none" stroke="midnightblue" d="M480.59,-112.73C502.49,-106.28 528.03,-95.1 544,-76 554.79,-63.1 558.16,-43.93 559.06,-29.74"/>
<polygon fill="midnightblue" stroke="midnightblue" points="562.57,-29.75 559.35,-19.65 555.57,-29.55 562.57,-29.75"/>
</g>
<!-- Node23 -->
<g id="node23" class="node">
<title>Node23</title>
<g id="a_node23"><a xlink:href="string_8h.html" target="_top" xlink:title=" ">
<polygon fill="white" stroke="black" points="439,-56.5 439,-75.5 535,-75.5 535,-56.5 439,-56.5"/>
<text text-anchor="middle" x="487" y="-63.5" font-family="Helvetica,sans-Serif" font-size="10.00">core/util/string.h</text>
</a>
</g>
</g>
<!-- Node16&#45;&gt;Node23 -->
<g id="edge24" class="edge">
<title>Node16&#45;&gt;Node23</title>
<path fill="none" stroke="midnightblue" d="M446.93,-112.08C453.85,-104.3 464.07,-92.8 472.45,-83.37"/>
<polygon fill="midnightblue" stroke="midnightblue" points="475.19,-85.55 479.22,-75.75 469.96,-80.9 475.19,-85.55"/>
</g>
<!-- Node23&#45;&gt;Node4 -->
<g id="edge27" class="edge">
<title>Node23&#45;&gt;Node4</title>
<path fill="none" stroke="midnightblue" d="M439.78,-56.44C379.16,-45.46 275.48,-26.67 222.43,-17.06"/>
<polygon fill="midnightblue" stroke="midnightblue" points="222.98,-13.6 212.52,-15.26 221.73,-20.49 222.98,-13.6"/>
</g>
<!-- Node23&#45;&gt;Node22 -->
<g id="edge26" class="edge">
<title>Node23&#45;&gt;Node22</title>
<path fill="none" stroke="midnightblue" d="M498.57,-56.32C509.42,-48.18 525.88,-35.84 538.88,-26.09"/>
<polygon fill="midnightblue" stroke="midnightblue" points="541.32,-28.63 547.22,-19.83 537.12,-23.03 541.32,-28.63"/>
</g>
<!-- Node24 -->
<g id="node24" class="node">
<title>Node24</title>
<g id="a_node24"><a xlink:title=" ">
<polygon fill="white" stroke="#bfbfbf" points="459,-0.5 459,-19.5 515,-19.5 515,-0.5 459,-0.5"/>
<text text-anchor="middle" x="487" y="-7.5" font-family="Helvetica,sans-Serif" font-size="10.00">sstream</text>
</a>
</g>
</g>
<!-- Node23&#45;&gt;Node24 -->
<g id="edge25" class="edge">
<title>Node23&#45;&gt;Node24</title>
<path fill="none" stroke="midnightblue" d="M487,-56.08C487,-49.01 487,-38.86 487,-29.99"/>
<polygon fill="midnightblue" stroke="midnightblue" points="490.5,-29.75 487,-19.75 483.5,-29.75 490.5,-29.75"/>
</g>
<!-- Node25&#45;&gt;Node16 -->
<g id="edge30" class="edge">
<title>Node25&#45;&gt;Node16</title>
<path fill="none" stroke="midnightblue" d="M506.15,-168.32C493.78,-159.98 474.87,-147.21 460.26,-137.35"/>
<polygon fill="midnightblue" stroke="midnightblue" points="462.07,-134.35 451.82,-131.65 458.15,-140.15 462.07,-134.35"/>
</g>
<!-- Node26 -->
<g id="node26" class="node">
<title>Node26</title>
<g id="a_node26"><a xlink:title=" ">
<polygon fill="white" stroke="#bfbfbf" points="498.5,-112.5 498.5,-131.5 555.5,-131.5 555.5,-112.5 498.5,-112.5"/>
<text text-anchor="middle" x="527" y="-119.5" font-family="Helvetica,sans-Serif" font-size="10.00">TClass.h</text>
</a>
</g>
</g>
<!-- Node25&#45;&gt;Node26 -->
<g id="edge29" class="edge">
<title>Node25&#45;&gt;Node26</title>
<path fill="none" stroke="midnightblue" d="M520.32,-168.08C521.38,-160.93 522.91,-150.64 524.23,-141.69"/>
<polygon fill="midnightblue" stroke="midnightblue" points="527.7,-142.16 525.7,-131.75 520.78,-141.13 527.7,-142.16"/>
</g>
<!-- Node27&#45;&gt;Node15 -->
<g id="edge32" class="edge">
<title>Node27&#45;&gt;Node15</title>
<path fill="none" stroke="midnightblue" d="M591.94,-229.98C625.9,-219.22 684.25,-200.76 720.61,-189.25"/>
<polygon fill="midnightblue" stroke="midnightblue" points="721.77,-192.56 730.24,-186.2 719.65,-185.88 721.77,-192.56"/>
</g>
</g>
</svg>
