<?xml version="1.0" encoding="UTF-8" standalone="no"?>
<!DOCTYPE svg PUBLIC "-//W3C//DTD SVG 1.1//EN"
 "http://www.w3.org/Graphics/SVG/1.1/DTD/svg11.dtd">
<!-- Generated by graphviz version 2.36.0 (20140111.2315)
 -->
<!-- Title: bdm::ApplyBoundingBox Pages: 1 -->
<svg width="318pt" height="175pt"
 viewBox="0.00 0.00 318.00 175.00" xmlns="http://www.w3.org/2000/svg" xmlns:xlink="http://www.w3.org/1999/xlink">
<g id="graph0" class="graph" transform="scale(1 1) rotate(0) translate(4 171)">
<title>bdm::ApplyBoundingBox</title>
<polygon fill="white" stroke="none" points="-4,4 -4,-171 314,-171 314,4 -4,4"/>
<!-- Node1 -->
<g id="node1" class="node"><title>Node1</title>
<polygon fill="#bfbfbf" stroke="black" points="0,-78.5 0,-97.5 124,-97.5 124,-78.5 0,-78.5"/>
<text text-anchor="middle" x="62" y="-85.5" font-family="Helvetica,sans-Serif" font-size="10.00">bdm::ApplyBoundingBox</text>
</g>
<!-- Node2 -->
<g id="node2" class="node"><title>Node2</title>
<g id="a_node2"><a xlink:href="classbdm_1_1BoundSpace.html#aa40e8630a5ffc57e2511aed31f69c0bf" target="_top" xlink:title="bdm::BoundSpace::operator()">
<polygon fill="white" stroke="black" points="163,-147.5 163,-166.5 307,-166.5 307,-147.5 163,-147.5"/>
<text text-anchor="middle" x="235" y="-154.5" font-family="Helvetica,sans-Serif" font-size="10.00">bdm::BoundSpace::operator()</text>
</a>
</g>
</g>
<!-- Node1&#45;&gt;Node2 -->
<g id="edge1" class="edge"><title>Node1&#45;&gt;Node2</title>
<path fill="none" stroke="midnightblue" d="M88.0798,-102.456C107.295,-113.087 134.715,-127.313 160,-137 170.439,-140.999 181.995,-144.527 192.81,-147.463"/>
<polygon fill="midnightblue" stroke="midnightblue" points="89.7856,-99.4003 79.3515,-97.562 86.3618,-105.506 89.7856,-99.4003"/>
</g>
<!-- Node3 -->
<g id="node3" class="node"><title>Node3</title>
<g id="a_node3"><a xlink:href="classbdm_1_1DisplacementOpCpu.html#ae4b5e662cd11fc83eb5e31e5df99f2cf" target="_top" xlink:title="bdm::DisplacementOpCpu\l::operator()">
<polygon fill="white" stroke="black" points="169,-98 169,-128 301,-128 301,-98 169,-98"/>
<text text-anchor="start" x="177" y="-116" font-family="Helvetica,sans-Serif" font-size="10.00">bdm::DisplacementOpCpu</text>
<text text-anchor="middle" x="235" y="-105" font-family="Helvetica,sans-Serif" font-size="10.00">::operator()</text>
</a>
</g>
</g>
<!-- Node1&#45;&gt;Node3 -->
<g id="edge2" class="edge"><title>Node1&#45;&gt;Node3</title>
<path fill="none" stroke="midnightblue" d="M134.222,-98.4125C145.694,-100.09 157.52,-101.819 168.841,-103.474"/>
<polygon fill="midnightblue" stroke="midnightblue" points="134.653,-94.9385 124.252,-96.955 133.64,-101.865 134.653,-94.9385"/>
</g>
<!-- Node4 -->
<g id="node4" class="node"><title>Node4</title>
<g id="a_node4"><a xlink:href="classbdm_1_1DisplacementOpCuda.html#adf5b64f081338cbdf410a87789d51aca" target="_top" xlink:title="bdm::DisplacementOpCuda\l::operator()">
<polygon fill="white" stroke="black" points="166.5,-49 166.5,-79 303.5,-79 303.5,-49 166.5,-49"/>
<text text-anchor="start" x="174.5" y="-67" font-family="Helvetica,sans-Serif" font-size="10.00">bdm::DisplacementOpCuda</text>
<text text-anchor="middle" x="235" y="-56" font-family="Helvetica,sans-Serif" font-size="10.00">::operator()</text>
</a>
</g>
</g>
<!-- Node1&#45;&gt;Node4 -->
<g id="edge3" class="edge"><title>Node1&#45;&gt;Node4</title>
<path fill="none" stroke="midnightblue" d="M134.275,-77.9966C144.846,-76.5128 155.717,-74.9871 166.215,-73.5137"/>
<polygon fill="midnightblue" stroke="midnightblue" points="133.668,-74.5472 124.252,-79.4032 134.641,-81.4793 133.668,-74.5472"/>
</g>
<!-- Node5 -->
<g id="node5" class="node"><title>Node5</title>
<g id="a_node5"><a xlink:href="classbdm_1_1DisplacementOpOpenCL.html#ae1536be921f4aad440926840b82f1f23" target="_top" xlink:title="bdm::DisplacementOpOpenCL\l::operator()">
<polygon fill="white" stroke="black" points="160,-0 160,-30 310,-30 310,-0 160,-0"/>
<text text-anchor="start" x="168" y="-18" font-family="Helvetica,sans-Serif" font-size="10.00">bdm::DisplacementOpOpenCL</text>
<text text-anchor="middle" x="235" y="-7" font-family="Helvetica,sans-Serif" font-size="10.00">::operator()</text>
</a>
</g>
</g>
<!-- Node1&#45;&gt;Node5 -->
<g id="edge4" class="edge"><title>Node1&#45;&gt;Node5</title>
<path fill="none" stroke="midnightblue" d="M89.6075,-73.6293C108.852,-63.5342 135.645,-50.0868 160,-40 168.394,-36.5234 177.463,-33.1542 186.279,-30.0743"/>
<polygon fill="midnightblue" stroke="midnightblue" points="87.7476,-70.6536 80.5481,-78.4265 91.0234,-76.8399 87.7476,-70.6536"/>
</g>
</g>
</svg>
