<?xml version="1.0" encoding="UTF-8" standalone="no"?>
<!DOCTYPE svg PUBLIC "-//W3C//DTD SVG 1.1//EN"
 "http://www.w3.org/Graphics/SVG/1.1/DTD/svg11.dtd">
<!-- Generated by graphviz version 2.40.1 (20161225.0304)
 -->
<!-- Title: neuroscience/neuron_soma.cc Pages: 1 -->
<svg width="3204pt" height="631pt"
 viewBox="0.00 0.00 3204.00 631.00" xmlns="http://www.w3.org/2000/svg" xmlns:xlink="http://www.w3.org/1999/xlink">
<g id="graph0" class="graph" transform="scale(1 1) rotate(0) translate(4 627)">
<title>neuroscience/neuron_soma.cc</title>
<polygon fill="#ffffff" stroke="transparent" points="-4,4 -4,-627 3200,-627 3200,4 -4,4"/>
<!-- Node0 -->
<g id="node1" class="node">
<title>Node0</title>
<polygon fill="#bfbfbf" stroke="#000000" points="884.5,-592.5 884.5,-622.5 991.5,-622.5 991.5,-592.5 884.5,-592.5"/>
<text text-anchor="start" x="892.5" y="-610.5" font-family="Helvetica,sans-Serif" font-size="10.00" fill="#000000">neuroscience/neuron</text>
<text text-anchor="middle" x="938" y="-599.5" font-family="Helvetica,sans-Serif" font-size="10.00" fill="#000000">_soma.cc</text>
</g>
<!-- Node1 -->
<g id="node2" class="node">
<title>Node1</title>
<g id="a_node2"><a xlink:href="neuron__soma_8h.html" target="_top" xlink:title="neuroscience/neuron\l_soma.h">
<polygon fill="#ffffff" stroke="#000000" points="643.5,-453 643.5,-483 750.5,-483 750.5,-453 643.5,-453"/>
<text text-anchor="start" x="651.5" y="-471" font-family="Helvetica,sans-Serif" font-size="10.00" fill="#000000">neuroscience/neuron</text>
<text text-anchor="middle" x="697" y="-460" font-family="Helvetica,sans-Serif" font-size="10.00" fill="#000000">_soma.h</text>
</a>
</g>
</g>
<!-- Node0&#45;&gt;Node1 -->
<g id="edge1" class="edge">
<title>Node0&#45;&gt;Node1</title>
<path fill="none" stroke="#191970" d="M911.75,-592.3055C868.1984,-567.0962 780.9771,-516.6092 732.1565,-488.3499"/>
<polygon fill="#191970" stroke="#191970" points="733.6257,-485.1563 723.2176,-483.1758 730.1189,-491.2146 733.6257,-485.1563"/>
</g>
<!-- Node5 -->
<g id="node6" class="node">
<title>Node5</title>
<polygon fill="#ffffff" stroke="#bfbfbf" points="1162,-112.5 1162,-131.5 1218,-131.5 1218,-112.5 1162,-112.5"/>
<text text-anchor="middle" x="1190" y="-119.5" font-family="Helvetica,sans-Serif" font-size="10.00" fill="#000000">algorithm</text>
</g>
<!-- Node0&#45;&gt;Node5 -->
<g id="edge59" class="edge">
<title>Node0&#45;&gt;Node5</title>
<path fill="none" stroke="#191970" d="M884.2,-605.2177C684.8872,-596.0589 0,-558.0366 0,-468 0,-468 0,-468 0,-317.5 0,-208.998 91.0246,-205.0636 193,-168 291.5469,-132.1825 1031.7869,-143.5768 1136,-132 1141.1393,-131.4291 1146.5247,-130.6513 1151.8212,-129.7798"/>
<polygon fill="#191970" stroke="#191970" points="1152.5689,-133.202 1161.809,-128.0184 1151.3531,-126.3084 1152.5689,-133.202"/>
</g>
<!-- Node73 -->
<g id="node30" class="node">
<title>Node73</title>
<g id="a_node30"><a xlink:href="resource__manager_8h.html" target="_top" xlink:title="core/resource_manager.h">
<polygon fill="#ffffff" stroke="#000000" points="2258.5,-458.5 2258.5,-477.5 2385.5,-477.5 2385.5,-458.5 2258.5,-458.5"/>
<text text-anchor="middle" x="2322" y="-465.5" font-family="Helvetica,sans-Serif" font-size="10.00" fill="#000000">core/resource_manager.h</text>
</a>
</g>
</g>
<!-- Node0&#45;&gt;Node73 -->
<g id="edge60" class="edge">
<title>Node0&#45;&gt;Node73</title>
<path fill="none" stroke="#191970" d="M991.5997,-603.398C1096.816,-595.2389 1337.7538,-576.0269 1540,-556 1800.7968,-530.1753 2109.8274,-493.6427 2248.377,-476.9492"/>
<polygon fill="#191970" stroke="#191970" points="2248.9459,-480.406 2258.4548,-475.7337 2248.1077,-473.4564 2248.9459,-480.406"/>
</g>
<!-- Node81 -->
<g id="node41" class="node">
<title>Node81</title>
<g id="a_node41"><a xlink:href="new__neurite__extension__event_8h.html" target="_top" xlink:title="neuroscience/event\l/new_neurite_extension\l_event.h">
<polygon fill="#ffffff" stroke="#000000" points="1821.5,-447.5 1821.5,-488.5 1940.5,-488.5 1940.5,-447.5 1821.5,-447.5"/>
<text text-anchor="start" x="1829.5" y="-476.5" font-family="Helvetica,sans-Serif" font-size="10.00" fill="#000000">neuroscience/event</text>
<text text-anchor="start" x="1829.5" y="-465.5" font-family="Helvetica,sans-Serif" font-size="10.00" fill="#000000">/new_neurite_extension</text>
<text text-anchor="middle" x="1881" y="-454.5" font-family="Helvetica,sans-Serif" font-size="10.00" fill="#000000">_event.h</text>
</a>
</g>
</g>
<!-- Node0&#45;&gt;Node81 -->
<g id="edge116" class="edge">
<title>Node0&#45;&gt;Node81</title>
<path fill="none" stroke="#191970" d="M991.7279,-603.2423C1127.8793,-591.8084 1497.2789,-556.7657 1811.1124,-489.0245"/>
<polygon fill="#191970" stroke="#191970" points="1812.2878,-492.3508 1821.316,-486.8062 1810.8006,-485.5106 1812.2878,-492.3508"/>
</g>
<!-- Node82 -->
<g id="node42" class="node">
<title>Node82</title>
<g id="a_node42"><a xlink:href="neurite__element_8h.html" target="_top" xlink:title="neuroscience/neurite\l_element.h">
<polygon fill="#ffffff" stroke="#000000" points="971.5,-525.5 971.5,-555.5 1078.5,-555.5 1078.5,-525.5 971.5,-525.5"/>
<text text-anchor="start" x="979.5" y="-543.5" font-family="Helvetica,sans-Serif" font-size="10.00" fill="#000000">neuroscience/neurite</text>
<text text-anchor="middle" x="1025" y="-532.5" font-family="Helvetica,sans-Serif" font-size="10.00" fill="#000000">_element.h</text>
</a>
</g>
</g>
<!-- Node0&#45;&gt;Node82 -->
<g id="edge118" class="edge">
<title>Node0&#45;&gt;Node82</title>
<path fill="none" stroke="#191970" d="M957.7416,-592.2967C969.4213,-583.302 984.3973,-571.7687 997.2517,-561.8694"/>
<polygon fill="#191970" stroke="#191970" points="999.5491,-564.5177 1005.3365,-555.6432 995.2781,-558.9717 999.5491,-564.5177"/>
</g>
<!-- Node87 -->
<g id="node47" class="node">
<title>Node87</title>
<g id="a_node47"><a xlink:href="neuroscience_2param_8h.html" target="_top" xlink:title="neuroscience/param.h">
<polygon fill="#ffffff" stroke="#000000" points="366.5,-308 366.5,-327 479.5,-327 479.5,-308 366.5,-308"/>
<text text-anchor="middle" x="423" y="-315" font-family="Helvetica,sans-Serif" font-size="10.00" fill="#000000">neuroscience/param.h</text>
</a>
</g>
</g>
<!-- Node0&#45;&gt;Node87 -->
<g id="edge154" class="edge">
<title>Node0&#45;&gt;Node87</title>
<path fill="none" stroke="#191970" d="M884.1503,-604.8181C795.7184,-598.008 617.5349,-573.942 497,-489 445.833,-452.9422 429.7554,-373.7538 424.9418,-336.9791"/>
<polygon fill="#191970" stroke="#191970" points="428.4157,-336.5511 423.7832,-327.0227 421.4626,-337.3603 428.4157,-336.5511"/>
</g>
<!-- Node2 -->
<g id="node3" class="node">
<title>Node2</title>
<polygon fill="#ffffff" stroke="#bfbfbf" points="142.5,-241 142.5,-260 225.5,-260 225.5,-241 142.5,-241"/>
<text text-anchor="middle" x="184" y="-248" font-family="Helvetica,sans-Serif" font-size="10.00" fill="#000000">unordered_map</text>
</g>
<!-- Node1&#45;&gt;Node2 -->
<g id="edge2" class="edge">
<title>Node1&#45;&gt;Node2</title>
<path fill="none" stroke="#191970" d="M643.1726,-462.684C553.7639,-451.6293 372.1143,-419.5244 247,-333 223.018,-316.4149 204.1849,-287.8395 193.5719,-269.0549"/>
<polygon fill="#191970" stroke="#191970" points="196.6338,-267.3591 188.7875,-260.2396 190.4815,-270.6982 196.6338,-267.3591"/>
</g>
<!-- Node3 -->
<g id="node4" class="node">
<title>Node3</title>
<polygon fill="#ffffff" stroke="#bfbfbf" points="1720,-241 1720,-260 1764,-260 1764,-241 1720,-241"/>
<text text-anchor="middle" x="1742" y="-248" font-family="Helvetica,sans-Serif" font-size="10.00" fill="#000000">vector</text>
</g>
<!-- Node1&#45;&gt;Node3 -->
<g id="edge3" class="edge">
<title>Node1&#45;&gt;Node3</title>
<path fill="none" stroke="#191970" d="M750.6295,-464.6055C862.8444,-457.0706 1118.8842,-437.4987 1202,-411 1238.7691,-399.2774 1242.0434,-383.0181 1278,-369 1341.072,-344.4107 1364.0725,-360.3442 1426,-333 1448.5529,-323.0417 1449.1855,-311.3435 1472,-302 1552.7479,-268.9303 1579.3383,-282.6101 1665,-266 1679.7214,-263.1455 1696.0037,-259.8832 1709.7894,-257.0902"/>
<polygon fill="#191970" stroke="#191970" points="1710.675,-260.4819 1719.7776,-255.0604 1709.2809,-253.6221 1710.675,-260.4819"/>
</g>
<!-- Node4 -->
<g id="node5" class="node">
<title>Node4</title>
<g id="a_node5"><a xlink:href="math__array_8h.html" target="_top" xlink:title="core/container/math\l_array.h">
<polygon fill="#ffffff" stroke="#000000" points="1156.5,-168.5 1156.5,-198.5 1259.5,-198.5 1259.5,-168.5 1156.5,-168.5"/>
<text text-anchor="start" x="1164.5" y="-186.5" font-family="Helvetica,sans-Serif" font-size="10.00" fill="#000000">core/container/math</text>
<text text-anchor="middle" x="1208" y="-175.5" font-family="Helvetica,sans-Serif" font-size="10.00" fill="#000000">_array.h</text>
</a>
</g>
</g>
<!-- Node1&#45;&gt;Node4 -->
<g id="edge4" class="edge">
<title>Node1&#45;&gt;Node4</title>
<path fill="none" stroke="#191970" d="M643.2165,-464.4495C474.6238,-451.5425 -23.2489,-398.9135 133,-235 168.1172,-198.1601 922.3935,-186.7221 1146.037,-184.1342"/>
<polygon fill="#191970" stroke="#191970" points="1146.3212,-187.6313 1156.2806,-184.0176 1146.2414,-180.6318 1146.3212,-187.6313"/>
</g>
<!-- Node21 -->
<g id="node16" class="node">
<title>Node21</title>
<g id="a_node16"><a xlink:href="cell_8h.html" target="_top" xlink:title="core/sim_object/cell.h">
<polygon fill="#ffffff" stroke="#ff0000" points="639,-380.5 639,-399.5 751,-399.5 751,-380.5 639,-380.5"/>
<text text-anchor="middle" x="695" y="-387.5" font-family="Helvetica,sans-Serif" font-size="10.00" fill="#000000">core/sim_object/cell.h</text>
</a>
</g>
</g>
<!-- Node1&#45;&gt;Node21 -->
<g id="edge15" class="edge">
<title>Node1&#45;&gt;Node21</title>
<path fill="none" stroke="#191970" d="M696.6144,-452.9608C696.2987,-440.6484 695.8496,-423.134 695.5052,-409.7024"/>
<polygon fill="#191970" stroke="#191970" points="699.001,-409.4908 695.2457,-399.5839 692.0033,-409.6703 699.001,-409.4908"/>
</g>
<!-- Node72 -->
<g id="node29" class="node">
<title>Node72</title>
<g id="a_node29"><a xlink:href="neuron__or__neurite_8h.html" target="_top" xlink:title="neuroscience/neuron\l_or_neurite.h">
<polygon fill="#ffffff" stroke="#ff0000" points="889.5,-375 889.5,-405 996.5,-405 996.5,-375 889.5,-375"/>
<text text-anchor="start" x="897.5" y="-393" font-family="Helvetica,sans-Serif" font-size="10.00" fill="#000000">neuroscience/neuron</text>
<text text-anchor="middle" x="943" y="-382" font-family="Helvetica,sans-Serif" font-size="10.00" fill="#000000">_or_neurite.h</text>
</a>
</g>
</g>
<!-- Node1&#45;&gt;Node72 -->
<g id="edge55" class="edge">
<title>Node1&#45;&gt;Node72</title>
<path fill="none" stroke="#191970" d="M744.4313,-452.9608C784.7148,-440.188 842.6545,-421.8169 885.5585,-408.2132"/>
<polygon fill="#191970" stroke="#191970" points="886.8209,-411.4847 895.2953,-405.1259 884.7051,-404.8121 886.8209,-411.4847"/>
</g>
<!-- Node4&#45;&gt;Node5 -->
<g id="edge5" class="edge">
<title>Node4&#45;&gt;Node5</title>
<path fill="none" stroke="#191970" d="M1203.5506,-168.2977C1201.1821,-160.2055 1198.2431,-150.1639 1195.7082,-141.5029"/>
<polygon fill="#191970" stroke="#191970" points="1199.0502,-140.4611 1192.882,-131.8469 1192.332,-142.4275 1199.0502,-140.4611"/>
</g>
<!-- Node6 -->
<g id="node7" class="node">
<title>Node6</title>
<polygon fill="#ffffff" stroke="#bfbfbf" points="1077.5,-112.5 1077.5,-131.5 1126.5,-131.5 1126.5,-112.5 1077.5,-112.5"/>
<text text-anchor="middle" x="1102" y="-119.5" font-family="Helvetica,sans-Serif" font-size="10.00" fill="#000000">cassert</text>
</g>
<!-- Node4&#45;&gt;Node6 -->
<g id="edge6" class="edge">
<title>Node4&#45;&gt;Node6</title>
<path fill="none" stroke="#191970" d="M1182.0695,-168.4554C1165.4691,-158.8241 1144.0256,-146.3828 1127.5083,-136.7996"/>
<polygon fill="#191970" stroke="#191970" points="1128.8323,-133.5214 1118.4262,-131.5303 1125.3194,-139.5761 1128.8323,-133.5214"/>
</g>
<!-- Node7 -->
<g id="node8" class="node">
<title>Node7</title>
<polygon fill="#ffffff" stroke="#bfbfbf" points="1708,-112.5 1708,-131.5 1752,-131.5 1752,-112.5 1708,-112.5"/>
<text text-anchor="middle" x="1730" y="-119.5" font-family="Helvetica,sans-Serif" font-size="10.00" fill="#000000">cmath</text>
</g>
<!-- Node4&#45;&gt;Node7 -->
<g id="edge7" class="edge">
<title>Node4&#45;&gt;Node7</title>
<path fill="none" stroke="#191970" d="M1259.752,-170.6746C1264.5526,-169.6881 1269.3564,-168.7761 1274,-168 1431.4564,-141.6838 1622.1931,-128.3626 1697.3322,-123.8315"/>
<polygon fill="#191970" stroke="#191970" points="1697.786,-127.3108 1707.5618,-123.2262 1697.3725,-120.323 1697.786,-127.3108"/>
</g>
<!-- Node8 -->
<g id="node9" class="node">
<title>Node8</title>
<polygon fill="#ffffff" stroke="#bfbfbf" points="1470.5,-112.5 1470.5,-131.5 1521.5,-131.5 1521.5,-112.5 1470.5,-112.5"/>
<text text-anchor="middle" x="1496" y="-119.5" font-family="Helvetica,sans-Serif" font-size="10.00" fill="#000000">numeric</text>
</g>
<!-- Node4&#45;&gt;Node8 -->
<g id="edge8" class="edge">
<title>Node4&#45;&gt;Node8</title>
<path fill="none" stroke="#191970" d="M1259.8513,-171.1867C1264.631,-170.0928 1269.4029,-169.0159 1274,-168 1339.6463,-153.493 1416.521,-137.8665 1460.4166,-129.0726"/>
<polygon fill="#191970" stroke="#191970" points="1461.1955,-132.4862 1470.3151,-127.0934 1459.8229,-125.6221 1461.1955,-132.4862"/>
</g>
<!-- Node9 -->
<g id="node10" class="node">
<title>Node9</title>
<polygon fill="#ffffff" stroke="#bfbfbf" points="1891,-112.5 1891,-131.5 1943,-131.5 1943,-112.5 1891,-112.5"/>
<text text-anchor="middle" x="1917" y="-119.5" font-family="Helvetica,sans-Serif" font-size="10.00" fill="#000000">ostream</text>
</g>
<!-- Node4&#45;&gt;Node9 -->
<g id="edge9" class="edge">
<title>Node4&#45;&gt;Node9</title>
<path fill="none" stroke="#191970" d="M1259.7289,-170.53C1264.5343,-169.5739 1269.3456,-168.7084 1274,-168 1304.1329,-163.4137 1748.7176,-133.3149 1880.4695,-124.4517"/>
<polygon fill="#191970" stroke="#191970" points="1881.0806,-127.9186 1890.8233,-123.7555 1880.611,-120.9343 1881.0806,-127.9186"/>
</g>
<!-- Node10 -->
<g id="node11" class="node">
<title>Node10</title>
<polygon fill="#ffffff" stroke="#bfbfbf" points="1236.5,-112.5 1236.5,-131.5 1295.5,-131.5 1295.5,-112.5 1236.5,-112.5"/>
<text text-anchor="middle" x="1266" y="-119.5" font-family="Helvetica,sans-Serif" font-size="10.00" fill="#000000">stdexcept</text>
</g>
<!-- Node4&#45;&gt;Node10 -->
<g id="edge10" class="edge">
<title>Node4&#45;&gt;Node10</title>
<path fill="none" stroke="#191970" d="M1222.3371,-168.2977C1230.6397,-159.4941 1241.1182,-148.3833 1249.7289,-139.2529"/>
<polygon fill="#191970" stroke="#191970" points="1252.3987,-141.5234 1256.7135,-131.8469 1247.3061,-136.7206 1252.3987,-141.5234"/>
</g>
<!-- Node11 -->
<g id="node12" class="node">
<title>Node11</title>
<polygon fill="#ffffff" stroke="#bfbfbf" points="1961,-112.5 1961,-131.5 2001,-131.5 2001,-112.5 1961,-112.5"/>
<text text-anchor="middle" x="1981" y="-119.5" font-family="Helvetica,sans-Serif" font-size="10.00" fill="#000000">utility</text>
</g>
<!-- Node4&#45;&gt;Node11 -->
<g id="edge11" class="edge">
<title>Node4&#45;&gt;Node11</title>
<path fill="none" stroke="#191970" d="M1259.7154,-170.4386C1264.5237,-169.5017 1269.3393,-168.6656 1274,-168 1569.3718,-125.8158 1653.9255,-188.3129 1950.7202,-131.7041"/>
<polygon fill="#191970" stroke="#191970" points="1951.7642,-135.067 1960.9159,-129.7288 1950.4327,-128.1948 1951.7642,-135.067"/>
</g>
<!-- Node12 -->
<g id="node13" class="node">
<title>Node12</title>
<g id="a_node13"><a xlink:href="root_8h.html" target="_top" xlink:title="core/util/root.h">
<polygon fill="#ffffff" stroke="#000000" points="2057.5,-112.5 2057.5,-131.5 2136.5,-131.5 2136.5,-112.5 2057.5,-112.5"/>
<text text-anchor="middle" x="2097" y="-119.5" font-family="Helvetica,sans-Serif" font-size="10.00" fill="#000000">core/util/root.h</text>
</a>
</g>
</g>
<!-- Node4&#45;&gt;Node12 -->
<g id="edge12" class="edge">
<title>Node4&#45;&gt;Node12</title>
<path fill="none" stroke="#191970" d="M1259.7125,-170.4178C1264.5213,-169.4853 1269.3379,-168.6559 1274,-168 1598.3083,-122.3735 1683.5891,-158.7132 2010,-132 2022.075,-131.0118 2035.0625,-129.6699 2047.2243,-128.2902"/>
<polygon fill="#191970" stroke="#191970" points="2047.6791,-131.7609 2057.2079,-127.1293 2046.8706,-124.8078 2047.6791,-131.7609"/>
</g>
<!-- Node13 -->
<g id="node14" class="node">
<title>Node13</title>
<g id="a_node14"><a xlink:href="log_8h.html" target="_top" xlink:title="core/util/log.h">
<polygon fill="#ffffff" stroke="#ff0000" points="2025.5,-56.5 2025.5,-75.5 2100.5,-75.5 2100.5,-56.5 2025.5,-56.5"/>
<text text-anchor="middle" x="2063" y="-63.5" font-family="Helvetica,sans-Serif" font-size="10.00" fill="#000000">core/util/log.h</text>
</a>
</g>
</g>
<!-- Node12&#45;&gt;Node13 -->
<g id="edge13" class="edge">
<title>Node12&#45;&gt;Node13</title>
<path fill="none" stroke="#191970" d="M2091.0777,-112.2455C2086.3973,-104.5367 2079.7327,-93.5598 2074.0711,-84.2348"/>
<polygon fill="#191970" stroke="#191970" points="2077.0361,-82.3741 2068.8545,-75.6427 2071.0525,-86.007 2077.0361,-82.3741"/>
</g>
<!-- Node18 -->
<g id="node15" class="node">
<title>Node18</title>
<polygon fill="#ffffff" stroke="#bfbfbf" points="1500.5,-.5 1500.5,-19.5 1541.5,-19.5 1541.5,-.5 1500.5,-.5"/>
<text text-anchor="middle" x="1521" y="-7.5" font-family="Helvetica,sans-Serif" font-size="10.00" fill="#000000">string</text>
</g>
<!-- Node13&#45;&gt;Node18 -->
<g id="edge14" class="edge">
<title>Node13&#45;&gt;Node18</title>
<path fill="none" stroke="#191970" d="M2025.3179,-62.1066C1923.5966,-51.5967 1644.836,-22.7949 1551.7345,-13.1755"/>
<polygon fill="#191970" stroke="#191970" points="1551.8782,-9.6718 1541.5714,-12.1255 1551.1587,-16.6348 1551.8782,-9.6718"/>
</g>
<!-- Node21&#45;&gt;Node3 -->
<g id="edge21" class="edge">
<title>Node21&#45;&gt;Node3</title>
<path fill="none" stroke="#191970" d="M751.0989,-383.0456C787.9767,-378.6272 837.3126,-373.0064 881,-369 994.1406,-358.6244 1284.1779,-371.6972 1391,-333 1413.1511,-324.9756 1412.1044,-310.6975 1434,-302 1547.3295,-256.9827 1588.4448,-298.4176 1706,-266 1708.3246,-265.3589 1710.6955,-264.5984 1713.0553,-263.7636"/>
<polygon fill="#191970" stroke="#191970" points="1714.5214,-266.948 1722.5466,-260.0309 1711.9594,-260.4337 1714.5214,-266.948"/>
</g>
<!-- Node21&#45;&gt;Node4 -->
<g id="edge22" class="edge">
<title>Node21&#45;&gt;Node4</title>
<path fill="none" stroke="#191970" d="M681.8146,-380.3954C669.1218,-370.2532 650.7458,-352.9835 643,-333 626.9655,-291.6323 627.903,-263.3864 662,-235 671.2245,-227.3204 1004.8624,-199.7718 1145.9766,-188.4312"/>
<polygon fill="#191970" stroke="#191970" points="1146.513,-191.8995 1156.201,-187.6108 1145.9531,-184.9219 1146.513,-191.8995"/>
</g>
<!-- Node21&#45;&gt;Node7 -->
<g id="edge17" class="edge">
<title>Node21&#45;&gt;Node7</title>
<path fill="none" stroke="#191970" d="M638.9992,-383.9922C556.4309,-374.5566 406.4614,-355.0488 357,-333 336.7763,-323.9847 338.1088,-311.2686 318,-302 238.5819,-265.3944 80.6855,-305.0742 133,-235 213.1794,-127.6013 771.3867,-162.7493 1531,-132 1589.8896,-129.6161 1658.5386,-125.9759 1697.8714,-123.8076"/>
<polygon fill="#191970" stroke="#191970" points="1698.1297,-127.2988 1707.9206,-123.2504 1697.7421,-120.3095 1698.1297,-127.2988"/>
</g>
<!-- Node21&#45;&gt;Node18 -->
<g id="edge20" class="edge">
<title>Node21&#45;&gt;Node18</title>
<path fill="none" stroke="#191970" d="M638.8681,-385.3585C535.4673,-376.3959 318.9021,-355.588 247,-333 185.7407,-313.7554 170.5648,-304.2639 119,-266 77.735,-235.3791 38,-234.8853 38,-183.5 38,-183.5 38,-183.5 38,-122 38,-18.2129 159.564,-72.6917 262,-56 509.1474,-15.728 1321.3793,-10.6967 1490.1282,-10.0833"/>
<polygon fill="#191970" stroke="#191970" points="1490.3119,-13.5828 1500.3,-10.0489 1490.2882,-6.5828 1490.3119,-13.5828"/>
</g>
<!-- Node22 -->
<g id="node17" class="node">
<title>Node22</title>
<polygon fill="#ffffff" stroke="#bfbfbf" points="1381,-174 1381,-193 1419,-193 1419,-174 1381,-174"/>
<text text-anchor="middle" x="1400" y="-181" font-family="Helvetica,sans-Serif" font-size="10.00" fill="#000000">array</text>
</g>
<!-- Node21&#45;&gt;Node22 -->
<g id="edge16" class="edge">
<title>Node21&#45;&gt;Node22</title>
<path fill="none" stroke="#191970" d="M691.175,-380.3712C681.1218,-353.2943 657.2959,-275.807 696,-235 742.4181,-186.0598 1234.9417,-206.2774 1302,-199 1325.263,-196.4754 1351.4322,-192.2657 1370.8729,-188.87"/>
<polygon fill="#191970" stroke="#191970" points="1371.6872,-192.2802 1380.9198,-187.0832 1370.4614,-185.3884 1371.6872,-192.2802"/>
</g>
<!-- Node23 -->
<g id="node18" class="node">
<title>Node23</title>
<polygon fill="#ffffff" stroke="#bfbfbf" points="256.5,-308 256.5,-327 309.5,-327 309.5,-308 256.5,-308"/>
<text text-anchor="middle" x="283" y="-315" font-family="Helvetica,sans-Serif" font-size="10.00" fill="#000000">complex</text>
</g>
<!-- Node21&#45;&gt;Node23 -->
<g id="edge18" class="edge">
<title>Node21&#45;&gt;Node23</title>
<path fill="none" stroke="#191970" d="M638.9463,-385.0711C565.6472,-377.7921 433.6655,-361.8148 324,-333 321.171,-332.2567 318.2673,-331.3871 315.375,-330.4461"/>
<polygon fill="#191970" stroke="#191970" points="316.3056,-327.0633 305.7108,-327.0502 313.985,-333.6675 316.3056,-327.0633"/>
</g>
<!-- Node24 -->
<g id="node19" class="node">
<title>Node24</title>
<polygon fill="#ffffff" stroke="#bfbfbf" points="826,-241 826,-260 856,-260 856,-241 826,-241"/>
<text text-anchor="middle" x="841" y="-248" font-family="Helvetica,sans-Serif" font-size="10.00" fill="#000000">set</text>
</g>
<!-- Node21&#45;&gt;Node24 -->
<g id="edge19" class="edge">
<title>Node21&#45;&gt;Node24</title>
<path fill="none" stroke="#191970" d="M705.0352,-380.4116C729.5192,-357.0177 792.5666,-296.7772 823.4393,-267.2788"/>
<polygon fill="#191970" stroke="#191970" points="826.0823,-269.5944 830.8946,-260.1555 821.2465,-264.5332 826.0823,-269.5944"/>
</g>
<!-- Node33 -->
<g id="node20" class="node">
<title>Node33</title>
<g id="a_node20"><a xlink:href="default__force_8h.html" target="_top" xlink:title="core/default_force.h">
<polygon fill="#ffffff" stroke="#000000" points="704.5,-241 704.5,-260 807.5,-260 807.5,-241 704.5,-241"/>
<text text-anchor="middle" x="756" y="-248" font-family="Helvetica,sans-Serif" font-size="10.00" fill="#000000">core/default_force.h</text>
</a>
</g>
</g>
<!-- Node21&#45;&gt;Node33 -->
<g id="edge23" class="edge">
<title>Node21&#45;&gt;Node33</title>
<path fill="none" stroke="#191970" d="M696.47,-380.3605C699.2539,-363.7372 706.1948,-328.8766 719,-302 724.8007,-289.8249 733.5222,-277.5094 741.0408,-267.9757"/>
<polygon fill="#191970" stroke="#191970" points="743.8707,-270.044 747.4893,-260.0862 738.4508,-265.614 743.8707,-270.044"/>
</g>
<!-- Node35 -->
<g id="node21" class="node">
<title>Node35</title>
<g id="a_node21"><a xlink:href="event_8h.html" target="_top" xlink:title="core/event/event.h">
<polygon fill="#ffffff" stroke="#ff0000" points="1552,-308 1552,-327 1650,-327 1650,-308 1552,-308"/>
<text text-anchor="middle" x="1601" y="-315" font-family="Helvetica,sans-Serif" font-size="10.00" fill="#000000">core/event/event.h</text>
</a>
</g>
</g>
<!-- Node21&#45;&gt;Node35 -->
<g id="edge26" class="edge">
<title>Node21&#45;&gt;Node35</title>
<path fill="none" stroke="#191970" d="M751.0932,-382.9831C787.9688,-378.539 837.3041,-372.9131 881,-369 1121.8991,-347.4269 1182.8493,-351.5507 1424,-333 1463.1609,-329.9875 1507.1531,-326.1373 1541.483,-323.0279"/>
<polygon fill="#191970" stroke="#191970" points="1542.1691,-326.48 1551.8109,-322.0884 1541.5349,-319.5088 1542.1691,-326.48"/>
</g>
<!-- Node55 -->
<g id="node23" class="node">
<title>Node55</title>
<g id="a_node23"><a xlink:href="shape_8h.html" target="_top" xlink:title="core/shape.h">
<polygon fill="#ffffff" stroke="#000000" points="912.5,-241 912.5,-260 985.5,-260 985.5,-241 912.5,-241"/>
<text text-anchor="middle" x="949" y="-248" font-family="Helvetica,sans-Serif" font-size="10.00" fill="#000000">core/shape.h</text>
</a>
</g>
</g>
<!-- Node21&#45;&gt;Node55 -->
<g id="edge29" class="edge">
<title>Node21&#45;&gt;Node55</title>
<path fill="none" stroke="#191970" d="M712.4584,-380.4116C756.1414,-356.4204 870.3838,-293.677 922.4517,-265.0806"/>
<polygon fill="#191970" stroke="#191970" points="924.3392,-268.0372 931.4194,-260.1555 920.9694,-261.9017 924.3392,-268.0372"/>
</g>
<!-- Node56 -->
<g id="node24" class="node">
<title>Node56</title>
<g id="a_node24"><a xlink:href="sim__object_8h.html" target="_top" xlink:title="core/sim_object/sim\l_object.h">
<polygon fill="#ffffff" stroke="#ff0000" points="986,-302.5 986,-332.5 1090,-332.5 1090,-302.5 986,-302.5"/>
<text text-anchor="start" x="994" y="-320.5" font-family="Helvetica,sans-Serif" font-size="10.00" fill="#000000">core/sim_object/sim</text>
<text text-anchor="middle" x="1038" y="-309.5" font-family="Helvetica,sans-Serif" font-size="10.00" fill="#000000">_object.h</text>
</a>
</g>
</g>
<!-- Node21&#45;&gt;Node56 -->
<g id="edge30" class="edge">
<title>Node21&#45;&gt;Node56</title>
<path fill="none" stroke="#191970" d="M740.194,-380.4473C800.5815,-367.6832 907.8516,-345.0095 975.8259,-330.6417"/>
<polygon fill="#191970" stroke="#191970" points="976.9119,-333.9896 985.9719,-328.4972 975.4643,-327.1409 976.9119,-333.9896"/>
</g>
<!-- Node70 -->
<g id="node27" class="node">
<title>Node70</title>
<g id="a_node27"><a xlink:href="math_8h.html" target="_top" xlink:title="core/util/math.h">
<polygon fill="#ffffff" stroke="#ff0000" points="1298,-308 1298,-327 1382,-327 1382,-308 1298,-308"/>
<text text-anchor="middle" x="1340" y="-315" font-family="Helvetica,sans-Serif" font-size="10.00" fill="#000000">core/util/math.h</text>
</a>
</g>
</g>
<!-- Node21&#45;&gt;Node70 -->
<g id="edge45" class="edge">
<title>Node21&#45;&gt;Node70</title>
<path fill="none" stroke="#191970" d="M751.1605,-383.649C788.0637,-379.4783 837.4045,-373.9067 881,-369 1028.442,-352.4051 1202.5355,-332.8949 1287.728,-323.353"/>
<polygon fill="#191970" stroke="#191970" points="1288.3673,-326.8034 1297.9156,-322.212 1287.5881,-319.8469 1288.3673,-326.8034"/>
</g>
<!-- Node33&#45;&gt;Node4 -->
<g id="edge25" class="edge">
<title>Node33&#45;&gt;Node4</title>
<path fill="none" stroke="#191970" d="M790.0154,-240.9701C798.7573,-238.7658 808.1841,-236.6004 817,-235 959.991,-209.0427 998.7792,-223.6577 1142,-199 1143.4499,-198.7504 1144.9156,-198.4882 1146.3921,-198.2152"/>
<polygon fill="#191970" stroke="#191970" points="1147.104,-201.6423 1156.2398,-196.277 1145.7521,-194.7741 1147.104,-201.6423"/>
</g>
<!-- Node33&#45;&gt;Node22 -->
<g id="edge24" class="edge">
<title>Node33&#45;&gt;Node22</title>
<path fill="none" stroke="#191970" d="M789.0205,-240.9902C798.0285,-238.7035 807.833,-236.4931 817,-235 1030.3372,-200.2518 1087.291,-223.9048 1302,-199 1325.2438,-196.3039 1351.4141,-192.1046 1370.8601,-188.7567"/>
<polygon fill="#191970" stroke="#191970" points="1371.6628,-192.1695 1380.9104,-186.9992 1370.457,-185.2741 1371.6628,-192.1695"/>
</g>
<!-- Node35&#45;&gt;Node13 -->
<g id="edge28" class="edge">
<title>Node35&#45;&gt;Node13</title>
<path fill="none" stroke="#191970" d="M1650.2059,-312.1824C1719.7528,-304.0457 1842.7157,-287.1956 1882,-266 1964.2415,-221.6273 2028.2454,-124.912 2052.4744,-84.4146"/>
<polygon fill="#191970" stroke="#191970" points="2055.6017,-86.0007 2057.6443,-75.6046 2049.5644,-82.4579 2055.6017,-86.0007"/>
</g>
<!-- Node27 -->
<g id="node22" class="node">
<title>Node27</title>
<polygon fill="#ffffff" stroke="#bfbfbf" points="2498,-174 2498,-193 2538,-193 2538,-174 2498,-174"/>
<text text-anchor="middle" x="2518" y="-181" font-family="Helvetica,sans-Serif" font-size="10.00" fill="#000000">limits</text>
</g>
<!-- Node35&#45;&gt;Node27 -->
<g id="edge27" class="edge">
<title>Node35&#45;&gt;Node27</title>
<path fill="none" stroke="#191970" d="M1650.3019,-310.2956C1816.7344,-285.975 2354.8168,-207.3457 2487.9808,-187.8867"/>
<polygon fill="#191970" stroke="#191970" points="2488.5045,-191.3474 2497.8933,-186.4382 2487.4923,-184.421 2488.5045,-191.3474"/>
</g>
<!-- Node56&#45;&gt;Node2 -->
<g id="edge37" class="edge">
<title>Node56&#45;&gt;Node2</title>
<path fill="none" stroke="#191970" d="M985.9136,-314.7197C866.4405,-308.1435 563.5256,-290.3386 311,-266 286.2664,-263.6162 258.8981,-260.3559 235.9206,-257.4405"/>
<polygon fill="#191970" stroke="#191970" points="236.0616,-253.93 225.6976,-256.1296 235.1712,-260.8731 236.0616,-253.93"/>
</g>
<!-- Node56&#45;&gt;Node3 -->
<g id="edge38" class="edge">
<title>Node56&#45;&gt;Node3</title>
<path fill="none" stroke="#191970" d="M1090.0445,-312.9611C1188.8846,-304.2843 1410.5547,-284.5527 1597,-266 1635.8163,-262.1375 1680.4335,-257.3096 1709.8079,-254.0776"/>
<polygon fill="#191970" stroke="#191970" points="1710.3457,-257.5396 1719.9014,-252.9638 1709.5778,-250.5818 1710.3457,-257.5396"/>
</g>
<!-- Node56&#45;&gt;Node4 -->
<g id="edge39" class="edge">
<title>Node56&#45;&gt;Node4</title>
<path fill="none" stroke="#191970" d="M1057.3811,-302.4424C1070.5497,-292.1954 1088.3513,-278.3119 1104,-266 1130.2239,-245.3679 1160.0501,-221.6854 1181.0164,-205.0018"/>
<polygon fill="#191970" stroke="#191970" points="1183.2243,-207.7178 1188.8683,-198.7515 1178.8646,-202.2412 1183.2243,-207.7178"/>
</g>
<!-- Node56&#45;&gt;Node5 -->
<g id="edge31" class="edge">
<title>Node56&#45;&gt;Node5</title>
<path fill="none" stroke="#191970" d="M1048.42,-302.2508C1067.3818,-274.7554 1109.1625,-215.3299 1148,-168 1156.1097,-158.117 1165.686,-147.5522 1173.6449,-139.0429"/>
<polygon fill="#191970" stroke="#191970" points="1176.3519,-141.2743 1180.6794,-131.6036 1171.2657,-136.4649 1176.3519,-141.2743"/>
</g>
<!-- Node56&#45;&gt;Node6 -->
<g id="edge32" class="edge">
<title>Node56&#45;&gt;Node6</title>
<path fill="none" stroke="#191970" d="M1040.4957,-302.229C1045.2955,-274.6992 1057.0473,-215.2209 1076,-168 1079.7821,-158.5768 1085.1543,-148.7027 1090.0344,-140.5293"/>
<polygon fill="#191970" stroke="#191970" points="1093.1233,-142.1891 1095.4126,-131.8445 1087.172,-138.5037 1093.1233,-142.1891"/>
</g>
<!-- Node56&#45;&gt;Node12 -->
<g id="edge44" class="edge">
<title>Node56&#45;&gt;Node12</title>
<path fill="none" stroke="#191970" d="M1066.4337,-302.4478C1105.5643,-281.8325 1174.1115,-246.1033 1200,-235 1244.1819,-216.0509 1257.3215,-216.7466 1302,-199 1333.6222,-186.4395 1338.9228,-175.9766 1372,-168 1648.0922,-101.4203 1727.0285,-156.2257 2010,-132 2022.0712,-130.9666 2035.0573,-129.6076 2047.2189,-128.2258"/>
<polygon fill="#191970" stroke="#191970" points="2047.6732,-131.6967 2057.2027,-127.0664 2046.8657,-124.7434 2047.6732,-131.6967"/>
</g>
<!-- Node56&#45;&gt;Node18 -->
<g id="edge36" class="edge">
<title>Node56&#45;&gt;Node18</title>
<path fill="none" stroke="#191970" d="M1033.4858,-302.3851C1026.5336,-277.7317 1014,-227.223 1014,-183.5 1014,-183.5 1014,-183.5 1014,-122 1014,-72.9286 1380.8094,-26.3049 1490.4252,-13.4675"/>
<polygon fill="#191970" stroke="#191970" points="1490.9672,-16.9282 1500.4971,-12.2987 1490.1602,-9.9749 1490.9672,-16.9282"/>
</g>
<!-- Node56&#45;&gt;Node24 -->
<g id="edge35" class="edge">
<title>Node56&#45;&gt;Node24</title>
<path fill="none" stroke="#191970" d="M993.7894,-302.4639C954.2771,-289.0257 897.8153,-269.823 865.7506,-258.9177"/>
<polygon fill="#191970" stroke="#191970" points="866.8441,-255.5928 856.2496,-255.6864 864.5901,-262.22 866.8441,-255.5928"/>
</g>
<!-- Node56&#45;&gt;Node27 -->
<g id="edge33" class="edge">
<title>Node56&#45;&gt;Node27</title>
<path fill="none" stroke="#191970" d="M1080.9014,-302.3572C1138.371,-282.8411 1243.9136,-249.6786 1337,-235 1568.3649,-198.5165 2326.0336,-186.15 2487.5444,-183.898"/>
<polygon fill="#191970" stroke="#191970" points="2487.7686,-187.3954 2497.7197,-183.7586 2487.6727,-180.396 2487.7686,-187.3954"/>
</g>
<!-- Node56&#45;&gt;Node55 -->
<g id="edge40" class="edge">
<title>Node56&#45;&gt;Node55</title>
<path fill="none" stroke="#191970" d="M1017.8045,-302.2967C1003.534,-291.5537 984.4532,-277.1895 970.0052,-266.3129"/>
<polygon fill="#191970" stroke="#191970" points="971.7867,-263.2731 961.6924,-260.055 967.5766,-268.8656 971.7867,-263.2731"/>
</g>
<!-- Node39 -->
<g id="node25" class="node">
<title>Node39</title>
<polygon fill="#ffffff" stroke="#bfbfbf" points="1346,-241 1346,-260 1398,-260 1398,-241 1346,-241"/>
<text text-anchor="middle" x="1372" y="-248" font-family="Helvetica,sans-Serif" font-size="10.00" fill="#000000">memory</text>
</g>
<!-- Node56&#45;&gt;Node39 -->
<g id="edge34" class="edge">
<title>Node56&#45;&gt;Node39</title>
<path fill="none" stroke="#191970" d="M1090.1875,-307.0313C1158.554,-293.317 1276.6767,-269.6217 1335.9199,-257.7376"/>
<polygon fill="#191970" stroke="#191970" points="1336.8144,-261.128 1345.9307,-255.7295 1335.4376,-254.2647 1336.8144,-261.128"/>
</g>
<!-- Node41 -->
<g id="node26" class="node">
<title>Node41</title>
<g id="a_node26"><a xlink:href="so__uid_8h.html" target="_top" xlink:title="core/sim_object/so\l_uid.h">
<polygon fill="#ffffff" stroke="#000000" points="2390.5,-235.5 2390.5,-265.5 2489.5,-265.5 2489.5,-235.5 2390.5,-235.5"/>
<text text-anchor="start" x="2398.5" y="-253.5" font-family="Helvetica,sans-Serif" font-size="10.00" fill="#000000">core/sim_object/so</text>
<text text-anchor="middle" x="2440" y="-242.5" font-family="Helvetica,sans-Serif" font-size="10.00" fill="#000000">_uid.h</text>
</a>
</g>
</g>
<!-- Node56&#45;&gt;Node41 -->
<g id="edge41" class="edge">
<title>Node56&#45;&gt;Node41</title>
<path fill="none" stroke="#191970" d="M1090.3854,-314.0056C1141.1523,-310.6804 1220.3337,-305.6561 1289,-302 1706.6701,-279.7614 2209.9484,-259.4925 2380.3232,-252.8127"/>
<polygon fill="#191970" stroke="#191970" points="2380.4889,-256.309 2390.3443,-252.4204 2380.2151,-249.3144 2380.4889,-256.309"/>
</g>
<!-- Node41&#45;&gt;Node12 -->
<g id="edge43" class="edge">
<title>Node41&#45;&gt;Node12</title>
<path fill="none" stroke="#191970" d="M2419.2408,-235.4614C2392.7981,-216.9845 2345.1046,-185.8937 2300,-168 2249.5742,-147.9953 2188.4812,-135.6342 2146.5723,-128.8312"/>
<polygon fill="#191970" stroke="#191970" points="2147.0371,-125.3613 2136.6139,-127.2606 2145.9465,-132.2758 2147.0371,-125.3613"/>
</g>
<!-- Node41&#45;&gt;Node27 -->
<g id="edge42" class="edge">
<title>Node41&#45;&gt;Node27</title>
<path fill="none" stroke="#191970" d="M2457.6994,-235.2967C2470.0881,-224.6551 2486.6135,-210.4602 2499.2315,-199.6217"/>
<polygon fill="#191970" stroke="#191970" points="2501.5712,-202.2259 2506.8763,-193.055 2497.01,-196.9159 2501.5712,-202.2259"/>
</g>
<!-- Node70&#45;&gt;Node3 -->
<g id="edge49" class="edge">
<title>Node70&#45;&gt;Node3</title>
<path fill="none" stroke="#191970" d="M1371.1921,-307.949C1379.2181,-305.7451 1387.8813,-303.5851 1396,-302 1532.1332,-275.4208 1571.997,-301.804 1706,-266 1708.3297,-265.3775 1710.7042,-264.6304 1713.0666,-263.805"/>
<polygon fill="#191970" stroke="#191970" points="1714.5249,-266.9929 1722.5628,-260.0905 1711.9749,-260.4738 1714.5249,-266.9929"/>
</g>
<!-- Node70&#45;&gt;Node4 -->
<g id="edge50" class="edge">
<title>Node70&#45;&gt;Node4</title>
<path fill="none" stroke="#191970" d="M1357.8501,-307.9638C1384.078,-292.7204 1427.7827,-261.8458 1407,-235 1390.2061,-213.3067 1321.8046,-199.0945 1269.8427,-191.2022"/>
<polygon fill="#191970" stroke="#191970" points="1270.0928,-187.7014 1259.6896,-189.7077 1269.0733,-194.6268 1270.0928,-187.7014"/>
</g>
<!-- Node70&#45;&gt;Node7 -->
<g id="edge47" class="edge">
<title>Node70&#45;&gt;Node7</title>
<path fill="none" stroke="#191970" d="M1366.119,-307.9938C1372.8562,-305.789 1380.1427,-303.6175 1387,-302 1494.9746,-276.5313 1540.2299,-325.2817 1634,-266 1681.4599,-235.9957 1710.7859,-173.063 1723.1627,-141.2645"/>
<polygon fill="#191970" stroke="#191970" points="1726.4899,-142.3593 1726.712,-131.7668 1719.9328,-139.9089 1726.4899,-142.3593"/>
</g>
<!-- Node70&#45;&gt;Node8 -->
<g id="edge48" class="edge">
<title>Node70&#45;&gt;Node8</title>
<path fill="none" stroke="#191970" d="M1366.6263,-307.8888C1373.2244,-305.738 1380.3195,-303.6177 1387,-302 1436.8535,-289.9279 1581.6777,-304.9966 1615,-266 1655.0128,-219.1737 1570.1656,-162.5733 1523.6942,-136.4719"/>
<polygon fill="#191970" stroke="#191970" points="1525.139,-133.2723 1514.6893,-131.5247 1521.7684,-139.4074 1525.139,-133.2723"/>
</g>
<!-- Node70&#45;&gt;Node22 -->
<g id="edge46" class="edge">
<title>Node70&#45;&gt;Node22</title>
<path fill="none" stroke="#191970" d="M1372.4437,-307.9708C1380.1317,-305.8655 1388.3275,-303.745 1396,-302 1440.2475,-291.9368 1567.8788,-300.8004 1597,-266 1645.0124,-208.6243 1494.9685,-190.4425 1429.2415,-185.3139"/>
<polygon fill="#191970" stroke="#191970" points="1429.3251,-181.8108 1419.097,-184.5743 1428.816,-188.7923 1429.3251,-181.8108"/>
</g>
<!-- Node65 -->
<g id="node28" class="node">
<title>Node65</title>
<g id="a_node28"><a xlink:href="random_8h.html" target="_top" xlink:title="core/util/random.h">
<polygon fill="#ffffff" stroke="#ff0000" points="1492.5,-241 1492.5,-260 1587.5,-260 1587.5,-241 1492.5,-241"/>
<text text-anchor="middle" x="1540" y="-248" font-family="Helvetica,sans-Serif" font-size="10.00" fill="#000000">core/util/random.h</text>
</a>
</g>
</g>
<!-- Node70&#45;&gt;Node65 -->
<g id="edge51" class="edge">
<title>Node70&#45;&gt;Node65</title>
<path fill="none" stroke="#191970" d="M1368.6551,-307.9005C1403.5563,-296.2086 1462.6502,-276.4122 1501.4997,-263.3976"/>
<polygon fill="#191970" stroke="#191970" points="1503.0277,-266.577 1511.398,-260.0817 1500.8041,-259.9395 1503.0277,-266.577"/>
</g>
<!-- Node65&#45;&gt;Node4 -->
<g id="edge53" class="edge">
<title>Node65&#45;&gt;Node4</title>
<path fill="none" stroke="#191970" d="M1503.3625,-240.9765C1495.0449,-238.916 1486.2351,-236.8132 1478,-235 1406.816,-219.3263 1324.4577,-204.0224 1269.6006,-194.2267"/>
<polygon fill="#191970" stroke="#191970" points="1270.145,-190.7687 1259.6865,-192.4629 1268.9188,-197.6605 1270.145,-190.7687"/>
</g>
<!-- Node65&#45;&gt;Node12 -->
<g id="edge54" class="edge">
<title>Node65&#45;&gt;Node12</title>
<path fill="none" stroke="#191970" d="M1581.4105,-240.9466C1681.9163,-217.7599 1938.471,-158.5727 2047.1493,-133.5006"/>
<polygon fill="#191970" stroke="#191970" points="2048.2374,-136.8415 2057.1947,-131.1831 2046.6638,-130.0207 2048.2374,-136.8415"/>
</g>
<!-- Node65&#45;&gt;Node22 -->
<g id="edge52" class="edge">
<title>Node65&#45;&gt;Node22</title>
<path fill="none" stroke="#191970" d="M1519.9414,-240.9005C1495.969,-229.428 1455.6911,-210.1522 1428.4956,-197.1372"/>
<polygon fill="#191970" stroke="#191970" points="1429.6537,-193.8113 1419.1226,-192.6515 1426.6319,-200.1255 1429.6537,-193.8113"/>
</g>
<!-- Node72&#45;&gt;Node4 -->
<g id="edge57" class="edge">
<title>Node72&#45;&gt;Node4</title>
<path fill="none" stroke="#191970" d="M931.4642,-374.8327C909.9869,-344.6313 869.08,-276.3332 904,-235 919.4571,-216.7042 1061.887,-198.8187 1146.1964,-189.7123"/>
<polygon fill="#191970" stroke="#191970" points="1146.606,-193.1885 1156.1775,-188.6458 1145.8622,-186.2281 1146.606,-193.1885"/>
</g>
<!-- Node72&#45;&gt;Node22 -->
<g id="edge56" class="edge">
<title>Node72&#45;&gt;Node22</title>
<path fill="none" stroke="#191970" d="M988.597,-374.8965C1019.9964,-364.1186 1062.4746,-348.7885 1099,-333 1188.0339,-294.514 1207.0427,-277.9724 1294,-235 1320.2453,-222.0301 1350.2666,-207.4701 1371.6439,-197.1492"/>
<polygon fill="#191970" stroke="#191970" points="1373.3267,-200.2235 1380.813,-192.7264 1370.2855,-193.9186 1373.3267,-200.2235"/>
</g>
<!-- Node72&#45;&gt;Node56 -->
<g id="edge58" class="edge">
<title>Node72&#45;&gt;Node56</title>
<path fill="none" stroke="#191970" d="M962.6841,-374.978C976.4409,-364.4793 995.0038,-350.3129 1010.2583,-338.6713"/>
<polygon fill="#191970" stroke="#191970" points="1012.515,-341.3519 1018.3412,-332.5028 1008.2683,-335.7872 1012.515,-341.3519"/>
</g>
<!-- Node73&#45;&gt;Node3 -->
<g id="edge71" class="edge">
<title>Node73&#45;&gt;Node3</title>
<path fill="none" stroke="#191970" d="M2258.0913,-465.4936C2151.1359,-460.3687 1941.2718,-446.0649 1877,-411 1845.3238,-393.7183 1781.7735,-306.9876 1754.6926,-268.7062"/>
<polygon fill="#191970" stroke="#191970" points="1757.2494,-266.2573 1748.635,-260.0893 1751.5228,-270.283 1757.2494,-266.2573"/>
</g>
<!-- Node73&#45;&gt;Node5 -->
<g id="edge63" class="edge">
<title>Node73&#45;&gt;Node5</title>
<path fill="none" stroke="#191970" d="M2258.1674,-464.5583C2159.6136,-458.3209 1975.8321,-442.7449 1919,-411 1830.2707,-361.4381 1860.4288,-286.8217 1773,-235 1638.6322,-155.3562 1581.534,-196.725 1428,-168 1339.223,-151.3905 1316.1855,-151.5079 1228,-132 1227.9001,-131.9779 1227.8,-131.9557 1227.6999,-131.9334"/>
<polygon fill="#191970" stroke="#191970" points="1228.6985,-128.5732 1218.1612,-129.6764 1227.0866,-135.3851 1228.6985,-128.5732"/>
</g>
<!-- Node73&#45;&gt;Node7 -->
<g id="edge64" class="edge">
<title>Node73&#45;&gt;Node7</title>
<path fill="none" stroke="#191970" d="M2300.3485,-458.3591C2278.2375,-448.0637 2243.3678,-430.5623 2216,-411 2086.7951,-318.6452 2095.224,-240.6573 1954,-168 1920.8214,-150.9302 1815.6012,-134.1276 1762.0205,-126.4027"/>
<polygon fill="#191970" stroke="#191970" points="1762.4228,-122.9247 1752.0295,-124.9813 1761.4368,-129.855 1762.4228,-122.9247"/>
</g>
<!-- Node73&#45;&gt;Node9 -->
<g id="edge67" class="edge">
<title>Node73&#45;&gt;Node9</title>
<path fill="none" stroke="#191970" d="M2308.6948,-458.3148C2294.3904,-447.5793 2271.368,-429.3465 2254,-411 2161.2366,-313.0104 2182.7349,-245.1024 2072,-168 2069.4769,-166.2432 1997.7728,-145.3354 1952.7864,-132.3196"/>
<polygon fill="#191970" stroke="#191970" points="1953.6581,-128.9283 1943.0794,-129.5136 1951.7141,-135.653 1953.6581,-128.9283"/>
</g>
<!-- Node73&#45;&gt;Node11 -->
<g id="edge70" class="edge">
<title>Node73&#45;&gt;Node11</title>
<path fill="none" stroke="#191970" d="M2313.2206,-458.2486C2293.6188,-435.4256 2248,-376.0234 2248,-317.5 2248,-317.5 2248,-317.5 2248,-250.5 2248,-192.8827 2199.1251,-194.5703 2148,-168 2103.2621,-144.7492 2045.4957,-132.2231 2010.9539,-126.3467"/>
<polygon fill="#191970" stroke="#191970" points="2011.4518,-122.8817 2001.0198,-124.7319 2010.3287,-129.791 2011.4518,-122.8817"/>
</g>
<!-- Node73&#45;&gt;Node12 -->
<g id="edge107" class="edge">
<title>Node73&#45;&gt;Node12</title>
<path fill="none" stroke="#191970" d="M2385.6541,-463.0225C2481.9884,-454.7886 2659.7592,-436.6561 2718,-411 2777.9677,-384.5832 2832,-383.0284 2832,-317.5 2832,-317.5 2832,-317.5 2832,-250.5 2832,-187.2353 2775.5113,-189.4669 2716,-168 2689.3606,-158.3906 2288.9955,-133.5402 2146.7124,-124.9629"/>
<polygon fill="#191970" stroke="#191970" points="2146.7174,-121.457 2136.5252,-124.35 2146.297,-128.4443 2146.7174,-121.457"/>
</g>
<!-- Node73&#45;&gt;Node18 -->
<g id="edge69" class="edge">
<title>Node73&#45;&gt;Node18</title>
<path fill="none" stroke="#191970" d="M2385.6748,-465.982C2560.8956,-460.0637 3041.5184,-441.2404 3106,-411 3158.2214,-386.5094 3196,-375.179 3196,-317.5 3196,-317.5 3196,-317.5 3196,-122 3196,-36.2433 1779.7857,-13.499 1551.8073,-10.3932"/>
<polygon fill="#191970" stroke="#191970" points="1551.6199,-6.8905 1541.5739,-10.2563 1551.5261,-13.8899 1551.6199,-6.8905"/>
</g>
<!-- Node73&#45;&gt;Node24 -->
<g id="edge68" class="edge">
<title>Node73&#45;&gt;Node24</title>
<path fill="none" stroke="#191970" d="M2258.3933,-464.0533C2103.7176,-454.2079 1718.9223,-428.1249 1697,-411 1656.5695,-379.4172 1700.1048,-332.7001 1659,-302 1591.7118,-251.7442 987.1096,-278.0888 904,-266 891.2844,-264.1504 877.3912,-260.8714 865.8949,-257.8041"/>
<polygon fill="#191970" stroke="#191970" points="866.6849,-254.3912 856.1134,-255.0938 864.8157,-261.137 866.6849,-254.3912"/>
</g>
<!-- Node73&#45;&gt;Node27 -->
<g id="edge65" class="edge">
<title>Node73&#45;&gt;Node27</title>
<path fill="none" stroke="#191970" d="M2385.5352,-465.3507C2455.1458,-460.631 2569.0082,-447.5045 2660,-411 2717.318,-388.0049 2746.0763,-387.5669 2775,-333 2824.9867,-238.696 2626.557,-199.1993 2548.3976,-187.4967"/>
<polygon fill="#191970" stroke="#191970" points="2548.6027,-183.9902 2538.2056,-186.0271 2547.6037,-190.9185 2548.6027,-183.9902"/>
</g>
<!-- Node73&#45;&gt;Node56 -->
<g id="edge92" class="edge">
<title>Node73&#45;&gt;Node56</title>
<path fill="none" stroke="#191970" d="M2258.4962,-464.1266C2184.4543,-459.6773 2058.3811,-452.309 1950,-447 1901.8496,-444.6414 1123.275,-437.4944 1083,-411 1059.7191,-395.6849 1048.1429,-364.7397 1042.6265,-342.6451"/>
<polygon fill="#191970" stroke="#191970" points="1045.9815,-341.6102 1040.3805,-332.6169 1039.1507,-343.1402 1045.9815,-341.6102"/>
</g>
<!-- Node73&#45;&gt;Node39 -->
<g id="edge66" class="edge">
<title>Node73&#45;&gt;Node39</title>
<path fill="none" stroke="#191970" d="M2258.0501,-466.651C2141.7794,-463.2199 1901.0955,-451.3242 1829,-411 1808.2813,-399.4117 1812.3047,-386.2543 1796,-369 1765.0727,-336.2715 1760.841,-320.965 1720,-302 1712.9304,-298.7172 1495.7238,-267.9045 1408.1111,-255.5693"/>
<polygon fill="#191970" stroke="#191970" points="1408.482,-252.0871 1398.0919,-254.1597 1407.5067,-259.0188 1408.482,-252.0871"/>
</g>
<!-- Node73&#45;&gt;Node41 -->
<g id="edge96" class="edge">
<title>Node73&#45;&gt;Node41</title>
<path fill="none" stroke="#191970" d="M2327.2226,-458.3737C2344.6231,-426.3007 2400.9831,-322.4167 2426.8292,-274.7767"/>
<polygon fill="#191970" stroke="#191970" points="2430.0215,-276.232 2431.7138,-265.7732 2423.8687,-272.8939 2430.0215,-276.232"/>
</g>
<!-- Node47 -->
<g id="node31" class="node">
<title>Node47</title>
<polygon fill="#ffffff" stroke="#bfbfbf" points="3065,-241 3065,-260 3109,-260 3109,-241 3065,-241"/>
<text text-anchor="middle" x="3087" y="-248" font-family="Helvetica,sans-Serif" font-size="10.00" fill="#000000">omp.h</text>
</g>
<!-- Node73&#45;&gt;Node47 -->
<g id="edge61" class="edge">
<title>Node73&#45;&gt;Node47</title>
<path fill="none" stroke="#191970" d="M2385.5832,-465.7053C2554.0909,-459.2605 3003.4222,-439.5808 3064,-411 3107.4946,-390.4791 3121.0322,-377.61 3139,-333 3144.1475,-320.2199 3144.3033,-314.7162 3139,-302 3133.0761,-287.7957 3121.1169,-275.5036 3110.1597,-266.4942"/>
<polygon fill="#191970" stroke="#191970" points="3112.1472,-263.607 3102.0926,-260.2672 3107.87,-269.1482 3112.1472,-263.607"/>
</g>
<!-- Node48 -->
<g id="node32" class="node">
<title>Node48</title>
<polygon fill="#ffffff" stroke="#bfbfbf" points="2860.5,-308 2860.5,-327 2911.5,-327 2911.5,-308 2860.5,-308"/>
<text text-anchor="middle" x="2886" y="-315" font-family="Helvetica,sans-Serif" font-size="10.00" fill="#000000">sched.h</text>
</g>
<!-- Node73&#45;&gt;Node48 -->
<g id="edge62" class="edge">
<title>Node73&#45;&gt;Node48</title>
<path fill="none" stroke="#191970" d="M2385.895,-464.6434C2517.5269,-457.2154 2809.6907,-437.8903 2846,-411 2869.6813,-393.4619 2879.4862,-359.0482 2883.4426,-337.2189"/>
<polygon fill="#191970" stroke="#191970" points="2886.9369,-337.5269 2885.021,-327.1068 2880.0206,-336.4474 2886.9369,-337.5269"/>
</g>
<!-- Node40 -->
<g id="node33" class="node">
<title>Node40</title>
<g id="a_node33"><a xlink:href="so__uid__map_8h.html" target="_top" xlink:title="core/container/so_uid\l_map.h">
<polygon fill="#ffffff" stroke="#000000" points="2424,-302.5 2424,-332.5 2534,-332.5 2534,-302.5 2424,-302.5"/>
<text text-anchor="start" x="2432" y="-320.5" font-family="Helvetica,sans-Serif" font-size="10.00" fill="#000000">core/container/so_uid</text>
<text text-anchor="middle" x="2479" y="-309.5" font-family="Helvetica,sans-Serif" font-size="10.00" fill="#000000">_map.h</text>
</a>
</g>
</g>
<!-- Node73&#45;&gt;Node40 -->
<g id="edge72" class="edge">
<title>Node73&#45;&gt;Node40</title>
<path fill="none" stroke="#191970" d="M2340.8948,-458.384C2359.7158,-448.2331 2388.7878,-430.9566 2410,-411 2432.1712,-390.1412 2452.1777,-361.3884 2464.8687,-341.294"/>
<polygon fill="#191970" stroke="#191970" points="2467.8821,-343.0757 2470.1665,-332.7301 2461.929,-339.3931 2467.8821,-343.0757"/>
</g>
<!-- Node74 -->
<g id="node34" class="node">
<title>Node74</title>
<g id="a_node34"><a xlink:href="diffusion__grid_8h.html" target="_top" xlink:title="core/diffusion_grid.h">
<polygon fill="#ffffff" stroke="#ff0000" points="1928,-380.5 1928,-399.5 2032,-399.5 2032,-380.5 1928,-380.5"/>
<text text-anchor="middle" x="1980" y="-387.5" font-family="Helvetica,sans-Serif" font-size="10.00" fill="#000000">core/diffusion_grid.h</text>
</a>
</g>
</g>
<!-- Node73&#45;&gt;Node74 -->
<g id="edge76" class="edge">
<title>Node73&#45;&gt;Node74</title>
<path fill="none" stroke="#191970" d="M2267.4085,-458.4659C2211.4482,-448.2867 2122.0912,-430.9046 2046,-411 2036.6882,-408.5641 2026.7468,-405.5984 2017.48,-402.6723"/>
<polygon fill="#191970" stroke="#191970" points="2018.3424,-399.2731 2007.751,-399.5397 2016.197,-405.9362 2018.3424,-399.2731"/>
</g>
<!-- Node59 -->
<g id="node35" class="node">
<title>Node59</title>
<g id="a_node35"><a xlink:href="simulation_8h.html" target="_top" xlink:title="core/simulation.h">
<polygon fill="#ffffff" stroke="#ff0000" points="2276.5,-308 2276.5,-327 2367.5,-327 2367.5,-308 2276.5,-308"/>
<text text-anchor="middle" x="2322" y="-315" font-family="Helvetica,sans-Serif" font-size="10.00" fill="#000000">core/simulation.h</text>
</a>
</g>
</g>
<!-- Node73&#45;&gt;Node59 -->
<g id="edge104" class="edge">
<title>Node73&#45;&gt;Node59</title>
<path fill="none" stroke="#191970" d="M2322,-458.1253C2322,-433.6732 2322,-369.9349 2322,-337.3331"/>
<polygon fill="#191970" stroke="#191970" points="2325.5001,-337.2154 2322,-327.2154 2318.5001,-337.2155 2325.5001,-337.2154"/>
</g>
<!-- Node77 -->
<g id="node36" class="node">
<title>Node77</title>
<g id="a_node36"><a xlink:href="so__handle_8h.html" target="_top" xlink:title="core/sim_object/so\l_handle.h">
<polygon fill="#ffffff" stroke="#000000" points="2666.5,-302.5 2666.5,-332.5 2765.5,-332.5 2765.5,-302.5 2666.5,-302.5"/>
<text text-anchor="start" x="2674.5" y="-320.5" font-family="Helvetica,sans-Serif" font-size="10.00" fill="#000000">core/sim_object/so</text>
<text text-anchor="middle" x="2716" y="-309.5" font-family="Helvetica,sans-Serif" font-size="10.00" fill="#000000">_handle.h</text>
</a>
</g>
</g>
<!-- Node73&#45;&gt;Node77 -->
<g id="edge93" class="edge">
<title>Node73&#45;&gt;Node77</title>
<path fill="none" stroke="#191970" d="M2385.7655,-460.2601C2461.0188,-450.3648 2580.9846,-431.9806 2621,-411 2653.387,-394.0191 2681.9885,-362.3755 2699.1375,-340.6414"/>
<polygon fill="#191970" stroke="#191970" points="2702.0241,-342.6291 2705.3433,-332.5676 2696.4741,-338.3631 2702.0241,-342.6291"/>
</g>
<!-- Node78 -->
<g id="node37" class="node">
<title>Node78</title>
<g id="a_node37"><a xlink:href="so__uid__generator_8h.html" target="_top" xlink:title="core/sim_object/so\l_uid_generator.h">
<polygon fill="#ffffff" stroke="#ff0000" points="2512.5,-375 2512.5,-405 2611.5,-405 2611.5,-375 2512.5,-375"/>
<text text-anchor="start" x="2520.5" y="-393" font-family="Helvetica,sans-Serif" font-size="10.00" fill="#000000">core/sim_object/so</text>
<text text-anchor="middle" x="2562" y="-382" font-family="Helvetica,sans-Serif" font-size="10.00" fill="#000000">_uid_generator.h</text>
</a>
</g>
</g>
<!-- Node73&#45;&gt;Node78 -->
<g id="edge97" class="edge">
<title>Node73&#45;&gt;Node78</title>
<path fill="none" stroke="#191970" d="M2351.4287,-458.4357C2389.7211,-445.9906 2457.4307,-423.985 2505.7325,-408.2869"/>
<polygon fill="#191970" stroke="#191970" points="2506.9947,-411.557 2515.4232,-405.1375 2504.831,-404.8998 2506.9947,-411.557"/>
</g>
<!-- Node49 -->
<g id="node38" class="node">
<title>Node49</title>
<g id="a_node38"><a xlink:href="numa_8h.html" target="_top" xlink:title="core/util/numa.h">
<polygon fill="#ffffff" stroke="#000000" points="3044,-308 3044,-327 3130,-327 3130,-308 3044,-308"/>
<text text-anchor="middle" x="3087" y="-315" font-family="Helvetica,sans-Serif" font-size="10.00" fill="#000000">core/util/numa.h</text>
</a>
</g>
</g>
<!-- Node73&#45;&gt;Node49 -->
<g id="edge105" class="edge">
<title>Node73&#45;&gt;Node49</title>
<path fill="none" stroke="#191970" d="M2385.7047,-466.2521C2549.9942,-461.2747 2978.9886,-445.1284 3033,-411 3059.6921,-394.134 3074.6367,-358.9852 3081.7373,-336.9137"/>
<polygon fill="#191970" stroke="#191970" points="3085.1105,-337.8495 3084.6101,-327.2665 3078.4016,-335.8517 3085.1105,-337.8495"/>
</g>
<!-- Node46 -->
<g id="node39" class="node">
<title>Node46</title>
<g id="a_node39"><a xlink:href="thread__info_8h.html" target="_top" xlink:title="core/util/thread_info.h">
<polygon fill="#ffffff" stroke="#000000" points="2914,-380.5 2914,-399.5 3024,-399.5 3024,-380.5 2914,-380.5"/>
<text text-anchor="middle" x="2969" y="-387.5" font-family="Helvetica,sans-Serif" font-size="10.00" fill="#000000">core/util/thread_info.h</text>
</a>
</g>
</g>
<!-- Node73&#45;&gt;Node46 -->
<g id="edge108" class="edge">
<title>Node73&#45;&gt;Node46</title>
<path fill="none" stroke="#191970" d="M2385.7474,-465.0944C2491.6282,-459.4953 2710.1069,-444.6556 2892,-411 2904.0134,-408.7772 2916.8857,-405.5944 2928.6001,-402.3765"/>
<polygon fill="#191970" stroke="#191970" points="2929.8762,-405.653 2938.5458,-399.563 2927.9707,-398.9173 2929.8762,-405.653"/>
</g>
<!-- Node54 -->
<g id="node40" class="node">
<title>Node54</title>
<g id="a_node40"><a xlink:href="type_8h.html" target="_top" xlink:title="core/util/type.h">
<polygon fill="#ffffff" stroke="#ff0000" points="1705.5,-380.5 1705.5,-399.5 1786.5,-399.5 1786.5,-380.5 1705.5,-380.5"/>
<text text-anchor="middle" x="1746" y="-387.5" font-family="Helvetica,sans-Serif" font-size="10.00" fill="#000000">core/util/type.h</text>
</a>
</g>
</g>
<!-- Node73&#45;&gt;Node54 -->
<g id="edge114" class="edge">
<title>Node73&#45;&gt;Node54</title>
<path fill="none" stroke="#191970" d="M2258.1465,-466.254C2159.0081,-462.3763 1962.6437,-450.0182 1801,-411 1792.9661,-409.0608 1784.5203,-406.2515 1776.7242,-403.3153"/>
<polygon fill="#191970" stroke="#191970" points="1777.8631,-400.002 1767.2765,-399.5841 1775.2918,-406.5127 1777.8631,-400.002"/>
</g>
<!-- Node40&#45;&gt;Node3 -->
<g id="edge74" class="edge">
<title>Node40&#45;&gt;Node3</title>
<path fill="none" stroke="#191970" d="M2423.7758,-308.388C2408.6402,-306.0873 2392.2118,-303.7705 2377,-302 2146.8836,-275.2173 1868.2336,-257.7854 1774.5176,-252.3321"/>
<polygon fill="#191970" stroke="#191970" points="1774.4552,-248.8227 1764.2701,-251.7408 1774.0519,-255.8111 1774.4552,-248.8227"/>
</g>
<!-- Node40&#45;&gt;Node27 -->
<g id="edge73" class="edge">
<title>Node40&#45;&gt;Node27</title>
<path fill="none" stroke="#191970" d="M2485.5359,-302.3796C2489.7603,-292.2235 2495.1652,-278.4681 2499,-266 2505.4597,-244.9977 2510.8544,-220.3898 2514.225,-203.5501"/>
<polygon fill="#191970" stroke="#191970" points="2517.7502,-203.757 2516.2233,-193.2727 2510.8789,-202.4209 2517.7502,-203.757"/>
</g>
<!-- Node40&#45;&gt;Node41 -->
<g id="edge75" class="edge">
<title>Node40&#45;&gt;Node41</title>
<path fill="none" stroke="#191970" d="M2470.1503,-302.2967C2465.3634,-294.0729 2459.3412,-283.7272 2453.9401,-274.4483"/>
<polygon fill="#191970" stroke="#191970" points="2456.8703,-272.5249 2448.8147,-265.6432 2450.8206,-276.0464 2456.8703,-272.5249"/>
</g>
<!-- Node74&#45;&gt;Node3 -->
<g id="edge81" class="edge">
<title>Node74&#45;&gt;Node3</title>
<path fill="none" stroke="#191970" d="M1963.6413,-380.4116C1922.7949,-356.4701 1816.1079,-293.9372 1767.1804,-265.2591"/>
<polygon fill="#191970" stroke="#191970" points="1768.8703,-262.1927 1758.4732,-260.1555 1765.3306,-268.2318 1768.8703,-262.1927"/>
</g>
<!-- Node74&#45;&gt;Node4 -->
<g id="edge83" class="edge">
<title>Node74&#45;&gt;Node4</title>
<path fill="none" stroke="#191970" d="M1969.3453,-380.3468C1950.371,-363.4015 1909.1317,-327.6694 1871,-302 1843.6052,-283.5584 1832.6846,-285.4551 1806,-266 1789.7397,-254.145 1791.359,-243.2393 1773,-235 1691.3739,-198.3671 1461.0921,-207.2092 1372,-199 1338.2263,-195.888 1300.5489,-192.3329 1269.8326,-189.4131"/>
<polygon fill="#191970" stroke="#191970" points="1269.985,-185.9119 1259.6984,-188.4488 1269.3219,-192.8804 1269.985,-185.9119"/>
</g>
<!-- Node74&#45;&gt;Node5 -->
<g id="edge77" class="edge">
<title>Node74&#45;&gt;Node5</title>
<path fill="none" stroke="#191970" d="M1982.0272,-380.387C1987.1139,-353.3518 1997.3546,-275.9637 1958,-235 1844.4989,-116.8583 1389.2419,-161.0001 1228,-132 1227.8993,-131.9819 1227.7985,-131.9636 1227.6975,-131.9453"/>
<polygon fill="#191970" stroke="#191970" points="1228.6168,-128.5621 1218.1106,-129.9292 1227.1762,-135.4123 1228.6168,-128.5621"/>
</g>
<!-- Node74&#45;&gt;Node7 -->
<g id="edge79" class="edge">
<title>Node74&#45;&gt;Node7</title>
<path fill="none" stroke="#191970" d="M1984.9305,-380.2708C1997.3682,-354.2205 2026.9013,-281.7013 1996,-235 1943.0879,-155.0338 1820.9402,-131.4864 1762.4127,-124.6868"/>
<polygon fill="#191970" stroke="#191970" points="1762.5709,-121.1839 1752.2558,-123.6022 1761.8276,-128.1443 1762.5709,-121.1839"/>
</g>
<!-- Node74&#45;&gt;Node12 -->
<g id="edge82" class="edge">
<title>Node74&#45;&gt;Node12</title>
<path fill="none" stroke="#191970" d="M1992.024,-380.3209C2004.2576,-369.8649 2022.9457,-352.1171 2034,-333 2071.0996,-268.8402 2088.1384,-180.8518 2094.2241,-141.9183"/>
<polygon fill="#191970" stroke="#191970" points="2097.7059,-142.2988 2095.7149,-131.8927 2090.782,-141.2692 2097.7059,-142.2988"/>
</g>
<!-- Node74&#45;&gt;Node13 -->
<g id="edge90" class="edge">
<title>Node74&#45;&gt;Node13</title>
<path fill="none" stroke="#191970" d="M1997.1617,-380.4088C2013.7844,-370.397 2038.7905,-353.3333 2055,-333 2116.1276,-256.3214 2125.3122,-227.8552 2146,-132 2147.8753,-123.3112 2150.5117,-119.6588 2146,-112 2137.2054,-97.071 2121.6283,-86.6447 2106.3258,-79.541"/>
<polygon fill="#191970" stroke="#191970" points="2107.469,-76.224 2096.8965,-75.5368 2104.7329,-82.6672 2107.469,-76.224"/>
</g>
<!-- Node74&#45;&gt;Node18 -->
<g id="edge80" class="edge">
<title>Node74&#45;&gt;Node18</title>
<path fill="none" stroke="#191970" d="M2032.2462,-383.0624C2128.4791,-367.0375 2324,-317.9369 2324,-183.5 2324,-183.5 2324,-183.5 2324,-122 2324,-42.5245 1699.0163,-16.1078 1551.7943,-10.9876"/>
<polygon fill="#191970" stroke="#191970" points="1551.7698,-7.4848 1541.6565,-10.6427 1551.5317,-14.4808 1551.7698,-7.4848"/>
</g>
<!-- Node74&#45;&gt;Node22 -->
<g id="edge78" class="edge">
<title>Node74&#45;&gt;Node22</title>
<path fill="none" stroke="#191970" d="M1975.2092,-380.2534C1966.2824,-362.8469 1945.6618,-325.9957 1920,-302 1877.0737,-261.8607 1861.6218,-253.9747 1806,-235 1735.8517,-211.0698 1510.3844,-191.9393 1429.3504,-185.6791"/>
<polygon fill="#191970" stroke="#191970" points="1429.5737,-182.1861 1419.3362,-184.9145 1429.0407,-189.1658 1429.5737,-182.1861"/>
</g>
<!-- Node74&#45;&gt;Node70 -->
<g id="edge91" class="edge">
<title>Node74&#45;&gt;Node70</title>
<path fill="none" stroke="#191970" d="M1927.6563,-384.0094C1890.8356,-379.7994 1840.4058,-374.0416 1796,-369 1649.7157,-352.3917 1477.0169,-332.926 1392.261,-323.3821"/>
<polygon fill="#191970" stroke="#191970" points="1392.4519,-319.8815 1382.123,-322.2406 1391.6686,-326.8376 1392.4519,-319.8815"/>
</g>
<!-- Node74&#45;&gt;Node59 -->
<g id="edge84" class="edge">
<title>Node74&#45;&gt;Node59</title>
<path fill="none" stroke="#191970" d="M2025.0622,-380.4473C2087.4303,-367.226 2199.9527,-343.3726 2267.135,-329.1307"/>
<polygon fill="#191970" stroke="#191970" points="2268.0532,-332.5139 2277.11,-327.0162 2266.6015,-325.6661 2268.0532,-332.5139"/>
</g>
<!-- Node59&#45;&gt;Node3 -->
<g id="edge86" class="edge">
<title>Node59&#45;&gt;Node3</title>
<path fill="none" stroke="#191970" d="M2276.4884,-312.2426C2163.3608,-299.1744 1871.5427,-265.4644 1774.1675,-254.2159"/>
<polygon fill="#191970" stroke="#191970" points="1774.3915,-250.7186 1764.0559,-253.0478 1773.5882,-257.6723 1774.3915,-250.7186"/>
</g>
<!-- Node59&#45;&gt;Node12 -->
<g id="edge89" class="edge">
<title>Node59&#45;&gt;Node12</title>
<path fill="none" stroke="#191970" d="M2321.0327,-307.7971C2317.8575,-281.249 2305.3282,-206.8151 2262,-168 2244.9287,-152.7069 2188.5949,-139.1531 2146.4692,-130.7886"/>
<polygon fill="#191970" stroke="#191970" points="2147.1233,-127.3503 2136.6392,-128.8787 2145.7881,-134.2218 2147.1233,-127.3503"/>
</g>
<!-- Node59&#45;&gt;Node18 -->
<g id="edge85" class="edge">
<title>Node59&#45;&gt;Node18</title>
<path fill="none" stroke="#191970" d="M2327.066,-307.7144C2337.8295,-285.986 2362,-231.8137 2362,-183.5 2362,-183.5 2362,-183.5 2362,-122 2362,-90.7875 2363.0516,-74.6183 2338,-56 2305.8771,-32.1263 1697.0775,-14.6351 1551.8933,-10.7923"/>
<polygon fill="#191970" stroke="#191970" points="1551.597,-7.2834 1541.5086,-10.5199 1551.4133,-14.281 1551.597,-7.2834"/>
</g>
<!-- Node59&#45;&gt;Node41 -->
<g id="edge87" class="edge">
<title>Node59&#45;&gt;Node41</title>
<path fill="none" stroke="#191970" d="M2338.9065,-307.9005C2355.9693,-298.2123 2382.8328,-282.9593 2404.5802,-270.6113"/>
<polygon fill="#191970" stroke="#191970" points="2406.5759,-273.503 2413.5438,-265.5218 2403.1196,-267.4158 2406.5759,-273.503"/>
</g>
<!-- Node59&#45;&gt;Node65 -->
<g id="edge88" class="edge">
<title>Node59&#45;&gt;Node65</title>
<path fill="none" stroke="#191970" d="M2276.3861,-313.7543C2174.8149,-305.3917 1922.3,-284.4813 1711,-266 1673.1888,-262.6929 1630.688,-258.8411 1597.5163,-255.8046"/>
<polygon fill="#191970" stroke="#191970" points="1597.8144,-252.3173 1587.5367,-254.8899 1597.1755,-259.2881 1597.8144,-252.3173"/>
</g>
<!-- Node77&#45;&gt;Node12 -->
<g id="edge95" class="edge">
<title>Node77&#45;&gt;Node12</title>
<path fill="none" stroke="#191970" d="M2718.9078,-302.4653C2723.8317,-271.9972 2729.8952,-202.9079 2692,-168 2681.9986,-158.787 2288.0419,-133.7362 2146.7709,-125.0302"/>
<polygon fill="#191970" stroke="#191970" points="2146.8457,-121.5282 2136.6497,-124.4078 2146.416,-128.515 2146.8457,-121.5282"/>
</g>
<!-- Node77&#45;&gt;Node27 -->
<g id="edge94" class="edge">
<title>Node77&#45;&gt;Node27</title>
<path fill="none" stroke="#191970" d="M2687.4503,-302.4288C2669.4608,-292.6253 2645.9479,-279.242 2626,-266 2593.8644,-244.6673 2558.7303,-216.9377 2537.5318,-199.6801"/>
<polygon fill="#191970" stroke="#191970" points="2539.561,-196.818 2529.6076,-193.1875 2535.1245,-202.2326 2539.561,-196.818"/>
</g>
<!-- Node78&#45;&gt;Node12 -->
<g id="edge103" class="edge">
<title>Node78&#45;&gt;Node12</title>
<path fill="none" stroke="#191970" d="M2567.5084,-374.7588C2571.3041,-363.415 2576.0092,-347.4588 2578,-333 2588.1779,-259.081 2602.9659,-217.35 2547,-168 2532.131,-154.8887 2260.693,-133.838 2146.7276,-125.5329"/>
<polygon fill="#191970" stroke="#191970" points="2146.7541,-122.0257 2136.5271,-124.793 2146.2476,-129.0074 2146.7541,-122.0257"/>
</g>
<!-- Node78&#45;&gt;Node27 -->
<g id="edge98" class="edge">
<title>Node78&#45;&gt;Node27</title>
<path fill="none" stroke="#191970" d="M2562.6899,-374.5207C2563.165,-363.0586 2563.7534,-347.0586 2564,-333 2564.2416,-319.2243 2566.5363,-315.5423 2564,-302 2557.0993,-265.1542 2539.1038,-225.0329 2527.7751,-202.2049"/>
<polygon fill="#191970" stroke="#191970" points="2530.8887,-200.606 2523.2413,-193.2733 2524.6468,-203.7745 2530.8887,-200.606"/>
</g>
<!-- Node78&#45;&gt;Node41 -->
<g id="edge101" class="edge">
<title>Node78&#45;&gt;Node41</title>
<path fill="none" stroke="#191970" d="M2562.5307,-374.984C2562.4256,-356.0403 2559.5762,-323.3628 2543,-302 2531.8325,-287.6078 2515.5662,-276.9365 2499.2454,-269.1607"/>
<polygon fill="#191970" stroke="#191970" points="2500.228,-265.7676 2489.6679,-264.9107 2497.3888,-272.1659 2500.228,-265.7676"/>
</g>
<!-- Node78&#45;&gt;Node40 -->
<g id="edge99" class="edge">
<title>Node78&#45;&gt;Node40</title>
<path fill="none" stroke="#191970" d="M2544.8023,-374.978C2533.0058,-364.6738 2517.1643,-350.8363 2503.9808,-339.3206"/>
<polygon fill="#191970" stroke="#191970" points="2506.0096,-336.4455 2496.1756,-332.5028 2501.4045,-341.7174 2506.0096,-336.4455"/>
</g>
<!-- Node78&#45;&gt;Node59 -->
<g id="edge102" class="edge">
<title>Node78&#45;&gt;Node59</title>
<path fill="none" stroke="#191970" d="M2512.2718,-374.978C2468.2579,-361.6821 2404.7699,-342.5034 2363.4477,-330.0207"/>
<polygon fill="#191970" stroke="#191970" points="2364.2867,-326.618 2353.7018,-327.0766 2362.2624,-333.3189 2364.2867,-326.618"/>
</g>
<!-- Node78&#45;&gt;Node77 -->
<g id="edge100" class="edge">
<title>Node78&#45;&gt;Node77</title>
<path fill="none" stroke="#191970" d="M2593.9089,-374.978C2617.3451,-363.9447 2649.386,-348.8605 2674.7638,-336.9132"/>
<polygon fill="#191970" stroke="#191970" points="2676.5753,-339.9289 2684.132,-332.5028 2673.5936,-333.5956 2676.5753,-339.9289"/>
</g>
<!-- Node49&#45;&gt;Node47 -->
<g id="edge106" class="edge">
<title>Node49&#45;&gt;Node47</title>
<path fill="none" stroke="#191970" d="M3087,-307.9005C3087,-298.149 3087,-282.7597 3087,-270.3695"/>
<polygon fill="#191970" stroke="#191970" points="3090.5001,-270.0816 3087,-260.0817 3083.5001,-270.0817 3090.5001,-270.0816"/>
</g>
<!-- Node46&#45;&gt;Node3 -->
<g id="edge111" class="edge">
<title>Node46&#45;&gt;Node3</title>
<path fill="none" stroke="#191970" d="M2967.0277,-380.4502C2962.5734,-361.6159 2949.7959,-319.9555 2921,-302 2895.9648,-286.3895 1960.9845,-257.1623 1774.2554,-251.4735"/>
<polygon fill="#191970" stroke="#191970" points="1774.3405,-247.9746 1764.2388,-251.1691 1774.1278,-254.9714 1774.3405,-247.9746"/>
</g>
<!-- Node46&#45;&gt;Node13 -->
<g id="edge112" class="edge">
<title>Node46&#45;&gt;Node13</title>
<path fill="none" stroke="#191970" d="M2968.7585,-380.4688C2967.9103,-363.404 2964.1796,-327.0762 2948,-302 2895.2715,-220.2781 2864.5537,-205.9329 2775,-168 2653.971,-116.7349 2250.5233,-80.8086 2110.9801,-69.6606"/>
<polygon fill="#191970" stroke="#191970" points="2110.8661,-66.1407 2100.6209,-68.8399 2110.3133,-73.1188 2110.8661,-66.1407"/>
</g>
<!-- Node46&#45;&gt;Node47 -->
<g id="edge109" class="edge">
<title>Node46&#45;&gt;Node47</title>
<path fill="none" stroke="#191970" d="M2975.5032,-380.4006C2986.8741,-363.8378 3011.411,-329.066 3035,-302 3045.5395,-289.907 3058.3306,-277.2163 3068.5891,-267.4586"/>
<polygon fill="#191970" stroke="#191970" points="3071.2875,-269.7259 3076.1819,-260.3293 3066.496,-264.6229 3071.2875,-269.7259"/>
</g>
<!-- Node46&#45;&gt;Node48 -->
<g id="edge110" class="edge">
<title>Node46&#45;&gt;Node48</title>
<path fill="none" stroke="#191970" d="M2957.8063,-380.2223C2944.2412,-368.3733 2921.1773,-348.2272 2904.8528,-333.9678"/>
<polygon fill="#191970" stroke="#191970" points="2906.8503,-331.0654 2897.0164,-327.1228 2902.2453,-336.3374 2906.8503,-331.0654"/>
</g>
<!-- Node46&#45;&gt;Node49 -->
<g id="edge113" class="edge">
<title>Node46&#45;&gt;Node49</title>
<path fill="none" stroke="#191970" d="M2984.914,-380.2223C3004.907,-367.9385 3039.4136,-346.7374 3062.7125,-332.4224"/>
<polygon fill="#191970" stroke="#191970" points="3064.6501,-335.3398 3071.3381,-327.1228 3060.9856,-329.3756 3064.6501,-335.3398"/>
</g>
<!-- Node54&#45;&gt;Node55 -->
<g id="edge115" class="edge">
<title>Node54&#45;&gt;Node55</title>
<path fill="none" stroke="#191970" d="M1743.3549,-380.4773C1737.5776,-361.6918 1721.8932,-320.1147 1692,-302 1662.1713,-283.9244 1154.6973,-259.729 996.0219,-252.5745"/>
<polygon fill="#191970" stroke="#191970" points="995.7937,-249.0609 985.6467,-252.1087 995.4796,-256.0538 995.7937,-249.0609"/>
</g>
<!-- Node81&#45;&gt;Node35 -->
<g id="edge117" class="edge">
<title>Node81&#45;&gt;Node35</title>
<path fill="none" stroke="#191970" d="M1821.2227,-449.5737C1818.1084,-448.6867 1815.0201,-447.8237 1812,-447 1746.2729,-429.0743 1718.7952,-450.0933 1663,-411 1636.269,-392.2707 1617.9671,-357.9968 1608.5132,-336.5549"/>
<polygon fill="#191970" stroke="#191970" points="1611.6789,-335.0532 1604.5848,-327.184 1605.2232,-337.7596 1611.6789,-335.0532"/>
</g>
<!-- Node82&#45;&gt;Node1 -->
<g id="edge142" class="edge">
<title>Node82&#45;&gt;Node1</title>
<path fill="none" stroke="#191970" d="M971.3566,-531.556C918.5298,-522.354 835.712,-506.8705 765,-489 761.2004,-488.0398 757.2984,-486.9951 753.3778,-485.9016"/>
<polygon fill="#191970" stroke="#191970" points="754.2192,-482.5018 743.6414,-483.1035 752.2856,-489.2295 754.2192,-482.5018"/>
</g>
<!-- Node82&#45;&gt;Node2 -->
<g id="edge121" class="edge">
<title>Node82&#45;&gt;Node2</title>
<path fill="none" stroke="#191970" d="M971.1532,-537.9926C855.049,-532.1414 584.5745,-515.9965 497,-489 359.0072,-446.4611 304.8691,-443.5752 212,-333 196.8553,-314.9678 189.7754,-288.3556 186.5523,-270.2685"/>
<polygon fill="#191970" stroke="#191970" points="189.9921,-269.6097 185.0062,-260.2614 183.0742,-270.6785 189.9921,-269.6097"/>
</g>
<!-- Node82&#45;&gt;Node3 -->
<g id="edge122" class="edge">
<title>Node82&#45;&gt;Node3</title>
<path fill="none" stroke="#191970" d="M1078.5556,-535.5117C1158.3409,-527.5022 1304.155,-510.4712 1352,-489 1401.8417,-466.6327 1411.6512,-452.6528 1447,-411 1483.2052,-368.338 1464.8728,-335.0817 1510,-302 1518.0997,-296.0623 1648.1203,-269.3582 1709.8892,-256.9168"/>
<polygon fill="#191970" stroke="#191970" points="1710.773,-260.3092 1719.8873,-254.9075 1709.3937,-253.4464 1710.773,-260.3092"/>
</g>
<!-- Node82&#45;&gt;Node13 -->
<g id="edge126" class="edge">
<title>Node82&#45;&gt;Node13</title>
<path fill="none" stroke="#191970" d="M1078.595,-537.396C1167.8337,-531.5179 1342.4665,-516.7894 1397,-489 1439.8497,-467.1645 1442.0762,-448.6491 1472,-411 1507.9735,-365.7394 1494.4616,-333.4109 1543,-302 1629.8647,-245.7869 1685.0668,-320.5265 1773,-266 1844.2649,-221.8093 1812.8808,-159.4767 1882,-112 1903.4298,-97.2803 1969.0417,-82.9507 2015.0701,-74.299"/>
<polygon fill="#191970" stroke="#191970" points="2015.9527,-77.6953 2025.1499,-72.4358 2014.6802,-70.8119 2015.9527,-77.6953"/>
</g>
<!-- Node82&#45;&gt;Node18 -->
<g id="edge120" class="edge">
<title>Node82&#45;&gt;Node18</title>
<path fill="none" stroke="#191970" d="M971.3719,-538.557C878.1424,-534.3449 690.7961,-521.9441 635,-489 587.9247,-461.205 562,-444.6685 562,-390 562,-390 562,-390 562,-122 562,-26.3469 1324.3961,-12.2278 1489.6492,-10.2909"/>
<polygon fill="#191970" stroke="#191970" points="1490.1173,-13.786 1500.0781,-10.1758 1490.04,-6.7864 1490.1173,-13.786"/>
</g>
<!-- Node82&#45;&gt;Node24 -->
<g id="edge119" class="edge">
<title>Node82&#45;&gt;Node24</title>
<path fill="none" stroke="#191970" d="M971.2278,-529.1036C946.4458,-521.4321 918.3172,-508.9465 899,-489 839.4224,-427.4815 837.6415,-315.5688 839.629,-270.2968"/>
<polygon fill="#191970" stroke="#191970" points="843.1245,-270.4721 840.1826,-260.294 836.1352,-270.0852 843.1245,-270.4721"/>
</g>
<!-- Node82&#45;&gt;Node33 -->
<g id="edge123" class="edge">
<title>Node82&#45;&gt;Node33</title>
<path fill="none" stroke="#191970" d="M971.2876,-534.4036C937.3255,-528.0661 894.4409,-515.1759 865,-489 796.625,-428.2078 768.4291,-315.8811 759.4663,-270.3975"/>
<polygon fill="#191970" stroke="#191970" points="762.8656,-269.5336 757.5893,-260.346 755.9846,-270.8186 762.8656,-269.5336"/>
</g>
<!-- Node82&#45;&gt;Node55 -->
<g id="edge124" class="edge">
<title>Node82&#45;&gt;Node55</title>
<path fill="none" stroke="#191970" d="M997.1712,-525.4223C962.4458,-504.8259 904.7431,-464.2844 881,-411 857.9197,-359.2032 905.0598,-297.2419 931.9884,-267.7474"/>
<polygon fill="#191970" stroke="#191970" points="934.6688,-270.0062 938.9725,-260.3248 929.5708,-265.2093 934.6688,-270.0062"/>
</g>
<!-- Node82&#45;&gt;Node56 -->
<g id="edge125" class="edge">
<title>Node82&#45;&gt;Node56</title>
<path fill="none" stroke="#191970" d="M1025.8935,-525.1723C1028.0975,-487.3662 1033.8108,-389.3617 1036.5256,-342.7913"/>
<polygon fill="#191970" stroke="#191970" points="1040.0294,-342.8269 1037.1174,-332.6401 1033.0413,-342.4194 1040.0294,-342.8269"/>
</g>
<!-- Node82&#45;&gt;Node70 -->
<g id="edge127" class="edge">
<title>Node82&#45;&gt;Node70</title>
<path fill="none" stroke="#191970" d="M1078.9562,-533.8758C1130.9727,-526.4812 1211.3836,-512.3749 1278,-489 1349.6483,-463.8594 1390.4194,-475.799 1430,-411 1439.7304,-395.07 1439.3645,-385.1478 1430,-369 1419.6177,-351.0971 1400.4106,-338.8878 1382.3983,-330.8689"/>
<polygon fill="#191970" stroke="#191970" points="1383.72,-327.6281 1373.141,-327.0495 1381.0502,-334.099 1383.72,-327.6281"/>
</g>
<!-- Node82&#45;&gt;Node65 -->
<g id="edge128" class="edge">
<title>Node82&#45;&gt;Node65</title>
<path fill="none" stroke="#191970" d="M1049.7554,-525.3912C1085.4962,-502.9385 1152.6687,-458.3028 1202,-411 1246.7392,-368.1004 1236.15,-334.3861 1289,-302 1320.8177,-282.5023 1418.7373,-266.4413 1482.4506,-257.6868"/>
<polygon fill="#191970" stroke="#191970" points="1482.9268,-261.1544 1492.3672,-256.3451 1481.9881,-254.2176 1482.9268,-261.1544"/>
</g>
<!-- Node82&#45;&gt;Node72 -->
<g id="edge141" class="edge">
<title>Node82&#45;&gt;Node72</title>
<path fill="none" stroke="#191970" d="M1016.6861,-525.241C1002.443,-499.0997 973.2658,-445.5489 956.21,-414.2451"/>
<polygon fill="#191970" stroke="#191970" points="959.1938,-412.406 951.3359,-405.2994 953.0469,-415.7551 959.1938,-412.406"/>
</g>
<!-- Node82&#45;&gt;Node81 -->
<g id="edge136" class="edge">
<title>Node82&#45;&gt;Node81</title>
<path fill="none" stroke="#191970" d="M1078.673,-538.5975C1228.8147,-533.0257 1651.935,-515.5524 1811.2608,-488.8393"/>
<polygon fill="#191970" stroke="#191970" points="1812.1232,-492.2415 1821.3681,-487.0664 1810.9138,-485.3468 1812.1232,-492.2415"/>
</g>
<!-- Node83 -->
<g id="node43" class="node">
<title>Node83</title>
<g id="a_node43"><a xlink:href="neurite__bifurcation__event_8h.html" target="_top" xlink:title="neuroscience/event\l/neurite_bifurcation\l_event.h">
<polygon fill="#ffffff" stroke="#000000" points="1091.5,-369.5 1091.5,-410.5 1192.5,-410.5 1192.5,-369.5 1091.5,-369.5"/>
<text text-anchor="start" x="1099.5" y="-398.5" font-family="Helvetica,sans-Serif" font-size="10.00" fill="#000000">neuroscience/event</text>
<text text-anchor="start" x="1099.5" y="-387.5" font-family="Helvetica,sans-Serif" font-size="10.00" fill="#000000">/neurite_bifurcation</text>
<text text-anchor="middle" x="1142" y="-376.5" font-family="Helvetica,sans-Serif" font-size="10.00" fill="#000000">_event.h</text>
</a>
</g>
</g>
<!-- Node82&#45;&gt;Node83 -->
<g id="edge129" class="edge">
<title>Node82&#45;&gt;Node83</title>
<path fill="none" stroke="#191970" d="M1036.8625,-525.241C1056.2745,-500.2709 1095.1284,-450.2921 1119.7802,-418.5819"/>
<polygon fill="#191970" stroke="#191970" points="1122.6503,-420.5925 1126.0247,-410.5494 1117.1239,-416.2962 1122.6503,-420.5925"/>
</g>
<!-- Node84 -->
<g id="node44" class="node">
<title>Node84</title>
<g id="a_node44"><a xlink:href="neurite__branching__event_8h.html" target="_top" xlink:title="neuroscience/event\l/neurite_branching_event.h">
<polygon fill="#ffffff" stroke="#000000" points="1287,-375 1287,-405 1421,-405 1421,-375 1287,-375"/>
<text text-anchor="start" x="1295" y="-393" font-family="Helvetica,sans-Serif" font-size="10.00" fill="#000000">neuroscience/event</text>
<text text-anchor="middle" x="1354" y="-382" font-family="Helvetica,sans-Serif" font-size="10.00" fill="#000000">/neurite_branching_event.h</text>
</a>
</g>
</g>
<!-- Node82&#45;&gt;Node84 -->
<g id="edge133" class="edge">
<title>Node82&#45;&gt;Node84</title>
<path fill="none" stroke="#191970" d="M1078.6621,-534.1648C1122.5372,-527.4152 1185.2291,-514.1069 1235,-489 1273.6346,-469.5107 1310.7458,-435.3733 1332.9661,-412.7241"/>
<polygon fill="#191970" stroke="#191970" points="1335.7643,-414.8643 1340.1827,-405.2347 1330.7236,-410.0072 1335.7643,-414.8643"/>
</g>
<!-- Node85 -->
<g id="node45" class="node">
<title>Node85</title>
<g id="a_node45"><a xlink:href="side__neurite__extension__event_8h.html" target="_top" xlink:title="neuroscience/event\l/side_neurite_extension\l_event.h">
<polygon fill="#ffffff" stroke="#000000" points="1553.5,-447.5 1553.5,-488.5 1672.5,-488.5 1672.5,-447.5 1553.5,-447.5"/>
<text text-anchor="start" x="1561.5" y="-476.5" font-family="Helvetica,sans-Serif" font-size="10.00" fill="#000000">neuroscience/event</text>
<text text-anchor="start" x="1561.5" y="-465.5" font-family="Helvetica,sans-Serif" font-size="10.00" fill="#000000">/side_neurite_extension</text>
<text text-anchor="middle" x="1613" y="-454.5" font-family="Helvetica,sans-Serif" font-size="10.00" fill="#000000">_event.h</text>
</a>
</g>
</g>
<!-- Node82&#45;&gt;Node85 -->
<g id="edge137" class="edge">
<title>Node82&#45;&gt;Node85</title>
<path fill="none" stroke="#191970" d="M1078.7233,-538.243C1172.7452,-533.6001 1372.9323,-520.6261 1539,-489 1540.4759,-488.7189 1541.9649,-488.422 1543.4631,-488.1112"/>
<polygon fill="#191970" stroke="#191970" points="1544.4478,-491.4775 1553.4422,-485.8782 1542.9192,-484.6464 1544.4478,-491.4775"/>
</g>
<!-- Node86 -->
<g id="node46" class="node">
<title>Node86</title>
<g id="a_node46"><a xlink:href="split__neurite__element__event_8h.html" target="_top" xlink:title="neuroscience/event\l/split_neurite_element\l_event.h">
<polygon fill="#ffffff" stroke="#000000" points="1691,-447.5 1691,-488.5 1803,-488.5 1803,-447.5 1691,-447.5"/>
<text text-anchor="start" x="1699" y="-476.5" font-family="Helvetica,sans-Serif" font-size="10.00" fill="#000000">neuroscience/event</text>
<text text-anchor="start" x="1699" y="-465.5" font-family="Helvetica,sans-Serif" font-size="10.00" fill="#000000">/split_neurite_element</text>
<text text-anchor="middle" x="1747" y="-454.5" font-family="Helvetica,sans-Serif" font-size="10.00" fill="#000000">_event.h</text>
</a>
</g>
</g>
<!-- Node82&#45;&gt;Node86 -->
<g id="edge139" class="edge">
<title>Node82&#45;&gt;Node86</title>
<path fill="none" stroke="#191970" d="M1078.643,-537.9179C1210.5653,-531.314 1549.0415,-512.7671 1680.9604,-488.9079"/>
<polygon fill="#191970" stroke="#191970" points="1681.6707,-492.3357 1690.8428,-487.0325 1680.3655,-485.4584 1681.6707,-492.3357"/>
</g>
<!-- Node82&#45;&gt;Node87 -->
<g id="edge143" class="edge">
<title>Node82&#45;&gt;Node87</title>
<path fill="none" stroke="#191970" d="M971.2475,-537.1491C854.2344,-529.5045 584.0085,-509.8211 548,-489 486.1663,-453.2462 446.2994,-373.2933 430.5892,-336.5872"/>
<polygon fill="#191970" stroke="#191970" points="433.7056,-334.9648 426.6451,-327.0654 427.2385,-337.6436 433.7056,-334.9648"/>
</g>
<!-- Node83&#45;&gt;Node4 -->
<g id="edge131" class="edge">
<title>Node83&#45;&gt;Node4</title>
<path fill="none" stroke="#191970" d="M1148.5696,-369.445C1160.7773,-331.2497 1186.9113,-249.4822 1200.0758,-208.2931"/>
<polygon fill="#191970" stroke="#191970" points="1203.4905,-209.1056 1203.2011,-198.5147 1196.8228,-206.9745 1203.4905,-209.1056"/>
</g>
<!-- Node83&#45;&gt;Node22 -->
<g id="edge130" class="edge">
<title>Node83&#45;&gt;Node22</title>
<path fill="none" stroke="#191970" d="M1155.9907,-369.3072C1169.9072,-349.9407 1192.7774,-321.1905 1218,-302 1247.7449,-279.3687 1262.173,-285.5954 1294,-266 1311.3949,-255.2902 1354.6257,-220.6007 1380.1836,-199.7686"/>
<polygon fill="#191970" stroke="#191970" points="1382.5827,-202.3282 1388.1107,-193.2898 1378.1528,-196.9081 1382.5827,-202.3282"/>
</g>
<!-- Node83&#45;&gt;Node35 -->
<g id="edge132" class="edge">
<title>Node83&#45;&gt;Node35</title>
<path fill="none" stroke="#191970" d="M1192.8748,-381.9642C1278.5041,-368.4389 1450.9576,-341.1995 1541.8487,-326.8431"/>
<polygon fill="#191970" stroke="#191970" points="1542.6529,-330.2595 1551.9843,-325.2421 1541.5607,-323.3452 1542.6529,-330.2595"/>
</g>
<!-- Node84&#45;&gt;Node22 -->
<g id="edge134" class="edge">
<title>Node84&#45;&gt;Node22</title>
<path fill="none" stroke="#191970" d="M1329.05,-374.7304C1303.537,-357.1736 1270.1251,-327.4922 1289,-302 1321.6276,-257.9335 1374.3724,-310.0665 1407,-266 1420.5141,-247.7481 1414.6813,-220.6019 1408.2346,-202.4917"/>
<polygon fill="#191970" stroke="#191970" points="1411.4233,-201.0363 1404.5095,-193.0083 1404.9079,-203.5957 1411.4233,-201.0363"/>
</g>
<!-- Node84&#45;&gt;Node35 -->
<g id="edge135" class="edge">
<title>Node84&#45;&gt;Node35</title>
<path fill="none" stroke="#191970" d="M1405.1786,-374.978C1450.572,-361.654 1516.0923,-342.4223 1558.6128,-329.9416"/>
<polygon fill="#191970" stroke="#191970" points="1559.7641,-333.2514 1568.3736,-327.0766 1557.7926,-326.5347 1559.7641,-333.2514"/>
</g>
<!-- Node85&#45;&gt;Node35 -->
<g id="edge138" class="edge">
<title>Node85&#45;&gt;Node35</title>
<path fill="none" stroke="#191970" d="M1600.9926,-447.366C1595.5598,-436.854 1589.7484,-423.6481 1587,-411 1581.4677,-385.5408 1588.1782,-355.7069 1594.0763,-336.7112"/>
<polygon fill="#191970" stroke="#191970" points="1597.4276,-337.7254 1597.2715,-327.1317 1590.7872,-335.5105 1597.4276,-337.7254"/>
</g>
<!-- Node86&#45;&gt;Node35 -->
<g id="edge140" class="edge">
<title>Node86&#45;&gt;Node35</title>
<path fill="none" stroke="#191970" d="M1691.5147,-447.4672C1663.8692,-436.2101 1634.3661,-422.2908 1625,-411 1607.576,-389.9954 1602.6079,-357.88 1601.2994,-337.2882"/>
<polygon fill="#191970" stroke="#191970" points="1604.7919,-337.029 1600.8931,-327.1777 1597.7976,-337.3102 1604.7919,-337.029"/>
</g>
<!-- Node87&#45;&gt;Node2 -->
<g id="edge147" class="edge">
<title>Node87&#45;&gt;Node2</title>
<path fill="none" stroke="#191970" d="M389.0109,-307.9717C346.7482,-296.124 274.5198,-275.8758 228.0499,-262.8487"/>
<polygon fill="#191970" stroke="#191970" points="228.8323,-259.4332 218.2588,-260.1039 226.9428,-266.1734 228.8323,-259.4332"/>
</g>
<!-- Node87&#45;&gt;Node3 -->
<g id="edge148" class="edge">
<title>Node87&#45;&gt;Node3</title>
<path fill="none" stroke="#191970" d="M479.5836,-316.2751C649.1633,-312.3339 1167.9972,-298.3071 1597,-266 1635.8979,-263.0707 1680.4985,-258.0527 1709.8467,-254.5214"/>
<polygon fill="#191970" stroke="#191970" points="1710.4264,-257.9767 1719.9303,-253.2943 1709.5807,-251.028 1710.4264,-257.9767"/>
</g>
<!-- Node87&#45;&gt;Node12 -->
<g id="edge152" class="edge">
<title>Node87&#45;&gt;Node12</title>
<path fill="none" stroke="#191970" d="M445.4168,-307.9942C488.8143,-290.0834 587.7258,-251.645 675,-235 804.9008,-210.2252 1147.5784,-251.3908 1269,-199 1287.4765,-191.0278 1283.4849,-175.8823 1302,-168 1374.4741,-137.1463 1931.5004,-138.5006 2010,-132 2022.0741,-131.0001 2035.0611,-129.6538 2047.2229,-128.2736"/>
<polygon fill="#191970" stroke="#191970" points="2047.6776,-131.7444 2057.2066,-127.1131 2046.8693,-124.7912 2047.6776,-131.7444"/>
</g>
<!-- Node87&#45;&gt;Node18 -->
<g id="edge146" class="edge">
<title>Node87&#45;&gt;Node18</title>
<path fill="none" stroke="#191970" d="M384.3519,-307.9644C358.6959,-300.0883 325.5359,-286.773 302,-266 270.1951,-237.9286 254,-225.9212 254,-183.5 254,-183.5 254,-183.5 254,-122 254,11.9187 415.2824,-73.8961 548,-56 736.4537,-30.5882 1344.6935,-14.3245 1489.7361,-10.747"/>
<polygon fill="#191970" stroke="#191970" points="1490.2019,-14.2367 1500.1133,-10.4933 1490.0308,-7.2388 1490.2019,-14.2367"/>
</g>
<!-- Node87&#45;&gt;Node24 -->
<g id="edge145" class="edge">
<title>Node87&#45;&gt;Node24</title>
<path fill="none" stroke="#191970" d="M479.8664,-313.1663C573.6385,-305.5039 756.3668,-288.2502 817,-266 817.8556,-265.686 818.7121,-265.3373 819.5648,-264.9603"/>
<polygon fill="#191970" stroke="#191970" points="821.2653,-268.0196 828.3533,-260.1449 817.9016,-261.8807 821.2653,-268.0196"/>
</g>
<!-- Node51 -->
<g id="node48" class="node">
<title>Node51</title>
<polygon fill="#ffffff" stroke="#bfbfbf" points="320,-241 320,-260 376,-260 376,-241 320,-241"/>
<text text-anchor="middle" x="348" y="-248" font-family="Helvetica,sans-Serif" font-size="10.00" fill="#000000">cinttypes</text>
</g>
<!-- Node87&#45;&gt;Node51 -->
<g id="edge144" class="edge">
<title>Node87&#45;&gt;Node51</title>
<path fill="none" stroke="#191970" d="M412.2543,-307.9005C400.336,-297.2535 380.8943,-279.8856 366.5132,-267.0385"/>
<polygon fill="#191970" stroke="#191970" points="368.5151,-264.1337 358.7257,-260.0817 363.8516,-269.354 368.5151,-264.1337"/>
</g>
<!-- Node52 -->
<g id="node49" class="node">
<title>Node52</title>
<g id="a_node49"><a xlink:href="module__param_8h.html" target="_top" xlink:title="core/param/module_param.h">
<polygon fill="#ffffff" stroke="#000000" points="394,-241 394,-260 534,-260 534,-241 394,-241"/>
<text text-anchor="middle" x="464" y="-248" font-family="Helvetica,sans-Serif" font-size="10.00" fill="#000000">core/param/module_param.h</text>
</a>
</g>
</g>
<!-- Node87&#45;&gt;Node52 -->
<g id="edge149" class="edge">
<title>Node87&#45;&gt;Node52</title>
<path fill="none" stroke="#191970" d="M428.8743,-307.9005C435.0852,-297.751 445.0335,-281.4941 452.7599,-268.8679"/>
<polygon fill="#191970" stroke="#191970" points="455.9023,-270.4382 458.1366,-260.0817 449.9315,-266.7844 455.9023,-270.4382"/>
</g>
<!-- Node53 -->
<g id="node50" class="node">
<title>Node53</title>
<polygon fill="#ffffff" stroke="#bfbfbf" points="368.5,-174 368.5,-193 465.5,-193 465.5,-174 368.5,-174"/>
<text text-anchor="middle" x="417" y="-181" font-family="Helvetica,sans-Serif" font-size="10.00" fill="#000000">cpptoml/cpptoml.h</text>
</g>
<!-- Node87&#45;&gt;Node53 -->
<g id="edge153" class="edge">
<title>Node87&#45;&gt;Node53</title>
<path fill="none" stroke="#191970" d="M374.3563,-307.9202C350.9708,-300.6056 325.0299,-287.8932 311,-266 303.5662,-254.3998 303.69,-246.6787 311,-235 322.7608,-216.2107 343.5523,-204.101 363.6244,-196.3825"/>
<polygon fill="#191970" stroke="#191970" points="364.811,-199.6754 373.068,-193.0367 362.4732,-193.0772 364.811,-199.6754"/>
</g>
<!-- Node52&#45;&gt;Node12 -->
<g id="edge150" class="edge">
<title>Node52&#45;&gt;Node12</title>
<path fill="none" stroke="#191970" d="M534.308,-241.4734C551.2327,-239.3265 569.2593,-237.0613 586,-235 835.6611,-204.2589 897.262,-188.1519 1148,-168 1530.2126,-137.2814 1627.7235,-161.9127 2010,-132 2022.0785,-131.0549 2035.0672,-129.7292 2047.2292,-128.3515"/>
<polygon fill="#191970" stroke="#191970" points="2047.6846,-131.8222 2057.2127,-127.1891 2046.875,-124.8691 2047.6846,-131.8222"/>
</g>
<!-- Node52&#45;&gt;Node53 -->
<g id="edge151" class="edge">
<title>Node52&#45;&gt;Node53</title>
<path fill="none" stroke="#191970" d="M457.266,-240.9005C450.0764,-230.6515 438.5181,-214.1747 429.6252,-201.4976"/>
<polygon fill="#191970" stroke="#191970" points="432.3296,-199.2582 423.7215,-193.0817 426.599,-203.2783 432.3296,-199.2582"/>
</g>
</g>
</svg>
