<?xml version="1.0" encoding="UTF-8" standalone="no"?>
<!DOCTYPE svg PUBLIC "-//W3C//DTD SVG 1.1//EN"
 "http://www.w3.org/Graphics/SVG/1.1/DTD/svg11.dtd">
<!-- Generated by graphviz version 2.43.0 (0)
 -->
<!-- Title: neuroscience/neuron_soma.h Pages: 1 -->
<svg width="987pt" height="296pt"
 viewBox="0.00 0.00 987.00 296.00" xmlns="http://www.w3.org/2000/svg" xmlns:xlink="http://www.w3.org/1999/xlink">
<g id="graph0" class="graph" transform="scale(1 1) rotate(0) translate(4 292)">
<title>neuroscience/neuron_soma.h</title>
<polygon fill="white" stroke="transparent" points="-4,4 -4,-292 983,-292 983,4 -4,4"/>
<!-- Node1 -->
<g id="node1" class="node">
<title>Node1</title>
<g id="a_node1"><a xlink:title=" ">
<polygon fill="#bfbfbf" stroke="black" points="661,-257.5 661,-287.5 779,-287.5 779,-257.5 661,-257.5"/>
<text text-anchor="start" x="669" y="-275.5" font-family="Helvetica,sans-Serif" font-size="10.00">neuroscience/neuron</text>
<text text-anchor="middle" x="720" y="-264.5" font-family="Helvetica,sans-Serif" font-size="10.00">_soma.h</text>
</a>
</g>
</g>
<!-- Node2 -->
<g id="node2" class="node">
<title>Node2</title>
<g id="a_node2"><a xlink:href="neurite__element_8h.html" target="_top" xlink:title=" ">
<polygon fill="white" stroke="black" points="548.5,-190.5 548.5,-220.5 667.5,-220.5 667.5,-190.5 548.5,-190.5"/>
<text text-anchor="start" x="556.5" y="-208.5" font-family="Helvetica,sans-Serif" font-size="10.00">neuroscience/neurite</text>
<text text-anchor="middle" x="608" y="-197.5" font-family="Helvetica,sans-Serif" font-size="10.00">_element.h</text>
</a>
</g>
</g>
<!-- Node1&#45;&gt;Node2 -->
<g id="edge1" class="edge">
<title>Node1&#45;&gt;Node2</title>
<path fill="none" stroke="midnightblue" d="M686.91,-252.3C669.38,-242.12 648.24,-229.85 632.25,-220.58"/>
<polygon fill="midnightblue" stroke="midnightblue" points="685.29,-255.4 695.7,-257.4 688.81,-249.35 685.29,-255.4"/>
</g>
<!-- Node10 -->
<g id="node10" class="node">
<title>Node10</title>
<g id="a_node10"><a xlink:href="neuron__or__neurite_8cc.html" target="_top" xlink:title=" ">
<polygon fill="white" stroke="black" points="549,-123.5 549,-153.5 667,-153.5 667,-123.5 549,-123.5"/>
<text text-anchor="start" x="557" y="-141.5" font-family="Helvetica,sans-Serif" font-size="10.00">neuroscience/neuron</text>
<text text-anchor="middle" x="608" y="-130.5" font-family="Helvetica,sans-Serif" font-size="10.00">_or_neurite.cc</text>
</a>
</g>
</g>
<!-- Node1&#45;&gt;Node10 -->
<g id="edge12" class="edge">
<title>Node1&#45;&gt;Node10</title>
<path fill="none" stroke="midnightblue" d="M710.64,-248.02C703.01,-230.76 691.04,-207.38 676,-190 663.49,-175.55 646.15,-162.75 632.11,-153.65"/>
<polygon fill="midnightblue" stroke="midnightblue" points="707.49,-249.56 714.62,-257.39 713.93,-246.82 707.49,-249.56"/>
</g>
<!-- Node11 -->
<g id="node11" class="node">
<title>Node11</title>
<g id="a_node11"><a xlink:href="neuron__soma_8cc.html" target="_top" xlink:title=" ">
<polygon fill="white" stroke="black" points="685,-123.5 685,-153.5 803,-153.5 803,-123.5 685,-123.5"/>
<text text-anchor="start" x="693" y="-141.5" font-family="Helvetica,sans-Serif" font-size="10.00">neuroscience/neuron</text>
<text text-anchor="middle" x="744" y="-130.5" font-family="Helvetica,sans-Serif" font-size="10.00">_soma.cc</text>
</a>
</g>
</g>
<!-- Node1&#45;&gt;Node11 -->
<g id="edge13" class="edge">
<title>Node1&#45;&gt;Node11</title>
<path fill="none" stroke="midnightblue" d="M724.38,-247.39C729.38,-219.9 737.38,-175.89 741.45,-153.52"/>
<polygon fill="midnightblue" stroke="midnightblue" points="720.91,-246.91 722.57,-257.37 727.8,-248.16 720.91,-246.91"/>
</g>
<!-- Node12 -->
<g id="node12" class="node">
<title>Node12</title>
<g id="a_node12"><a xlink:href="neuroscience_8h.html" target="_top" xlink:title=" ">
<polygon fill="white" stroke="black" points="821,-129 821,-148 979,-148 979,-129 821,-129"/>
<text text-anchor="middle" x="900" y="-136" font-family="Helvetica,sans-Serif" font-size="10.00">neuroscience/neuroscience.h</text>
</a>
</g>
</g>
<!-- Node1&#45;&gt;Node12 -->
<g id="edge14" class="edge">
<title>Node1&#45;&gt;Node12</title>
<path fill="none" stroke="midnightblue" d="M747.51,-251.32C787.51,-221.99 860.01,-168.82 888.28,-148.1"/>
<polygon fill="midnightblue" stroke="midnightblue" points="745.26,-248.64 739.26,-257.37 749.4,-254.28 745.26,-248.64"/>
</g>
<!-- Node3 -->
<g id="node3" class="node">
<title>Node3</title>
<g id="a_node3"><a xlink:href="root_2adaptor_8h.html" target="_top" xlink:title=" ">
<polygon fill="white" stroke="black" points="135.5,-123.5 135.5,-153.5 238.5,-153.5 238.5,-123.5 135.5,-123.5"/>
<text text-anchor="start" x="143.5" y="-141.5" font-family="Helvetica,sans-Serif" font-size="10.00">core/visualization</text>
<text text-anchor="middle" x="187" y="-130.5" font-family="Helvetica,sans-Serif" font-size="10.00">/root/adaptor.h</text>
</a>
</g>
</g>
<!-- Node2&#45;&gt;Node3 -->
<g id="edge2" class="edge">
<title>Node2&#45;&gt;Node3</title>
<path fill="none" stroke="midnightblue" d="M538.31,-196.81C465.36,-188.28 347.64,-173.15 247,-154 244.26,-153.48 241.46,-152.91 238.64,-152.32"/>
<polygon fill="midnightblue" stroke="midnightblue" points="537.96,-200.29 548.3,-197.97 538.77,-193.34 537.96,-200.29"/>
</g>
<!-- Node8 -->
<g id="node8" class="node">
<title>Node8</title>
<g id="a_node8"><a xlink:href="interaction__force_8cc.html" target="_top" xlink:title=" ">
<polygon fill="white" stroke="black" points="256.5,-129 256.5,-148 393.5,-148 393.5,-129 256.5,-129"/>
<text text-anchor="middle" x="325" y="-136" font-family="Helvetica,sans-Serif" font-size="10.00">core/interaction_force.cc</text>
</a>
</g>
</g>
<!-- Node2&#45;&gt;Node8 -->
<g id="edge7" class="edge">
<title>Node2&#45;&gt;Node8</title>
<path fill="none" stroke="midnightblue" d="M538.53,-188.54C482.82,-175.75 406.8,-158.29 362.1,-148.02"/>
<polygon fill="midnightblue" stroke="midnightblue" points="537.8,-191.97 548.33,-190.79 539.37,-185.14 537.8,-191.97"/>
</g>
<!-- Node9 -->
<g id="node9" class="node">
<title>Node9</title>
<g id="a_node9"><a xlink:href="neurite__element_8cc.html" target="_top" xlink:title=" ">
<polygon fill="white" stroke="black" points="411.5,-123.5 411.5,-153.5 530.5,-153.5 530.5,-123.5 411.5,-123.5"/>
<text text-anchor="start" x="419.5" y="-141.5" font-family="Helvetica,sans-Serif" font-size="10.00">neuroscience/neurite</text>
<text text-anchor="middle" x="471" y="-130.5" font-family="Helvetica,sans-Serif" font-size="10.00">_element.cc</text>
</a>
</g>
</g>
<!-- Node2&#45;&gt;Node9 -->
<g id="edge8" class="edge">
<title>Node2&#45;&gt;Node9</title>
<path fill="none" stroke="midnightblue" d="M568.99,-185.99C547.28,-175.69 520.67,-163.07 500.67,-153.58"/>
<polygon fill="midnightblue" stroke="midnightblue" points="567.74,-189.27 578.27,-190.4 570.74,-182.95 567.74,-189.27"/>
</g>
<!-- Node2&#45;&gt;Node10 -->
<g id="edge9" class="edge">
<title>Node2&#45;&gt;Node10</title>
<path fill="none" stroke="midnightblue" d="M608,-180.11C608,-171.15 608,-161.32 608,-153.58"/>
<polygon fill="midnightblue" stroke="midnightblue" points="604.5,-180.4 608,-190.4 611.5,-180.4 604.5,-180.4"/>
</g>
<!-- Node2&#45;&gt;Node11 -->
<g id="edge10" class="edge">
<title>Node2&#45;&gt;Node11</title>
<path fill="none" stroke="midnightblue" d="M646.72,-185.99C668.28,-175.69 694.69,-163.07 714.55,-153.58"/>
<polygon fill="midnightblue" stroke="midnightblue" points="645.02,-182.93 637.51,-190.4 648.04,-189.24 645.02,-182.93"/>
</g>
<!-- Node2&#45;&gt;Node12 -->
<g id="edge11" class="edge">
<title>Node2&#45;&gt;Node12</title>
<path fill="none" stroke="midnightblue" d="M677.57,-189.01C735.2,-176.18 814.97,-158.43 861.66,-148.03"/>
<polygon fill="midnightblue" stroke="midnightblue" points="676.8,-185.6 667.8,-191.19 678.32,-192.43 676.8,-185.6"/>
</g>
<!-- Node4 -->
<g id="node4" class="node">
<title>Node4</title>
<g id="a_node4"><a xlink:href="notebook__util_8h.html" target="_top" xlink:title=" ">
<polygon fill="white" stroke="black" points="0,-56.5 0,-86.5 118,-86.5 118,-56.5 0,-56.5"/>
<text text-anchor="start" x="8" y="-74.5" font-family="Helvetica,sans-Serif" font-size="10.00">core/visualization</text>
<text text-anchor="middle" x="59" y="-63.5" font-family="Helvetica,sans-Serif" font-size="10.00">/root/notebook_util.h</text>
</a>
</g>
</g>
<!-- Node3&#45;&gt;Node4 -->
<g id="edge3" class="edge">
<title>Node3&#45;&gt;Node4</title>
<path fill="none" stroke="midnightblue" d="M150.28,-118.85C130.04,-108.58 105.33,-96.03 86.72,-86.58"/>
<polygon fill="midnightblue" stroke="midnightblue" points="148.72,-121.99 159.23,-123.4 151.89,-115.75 148.72,-121.99"/>
</g>
<!-- Node6 -->
<g id="node6" class="node">
<title>Node6</title>
<g id="a_node6"><a xlink:href="scheduler_8cc.html" target="_top" xlink:title=" ">
<polygon fill="white" stroke="black" points="136.5,-62 136.5,-81 237.5,-81 237.5,-62 136.5,-62"/>
<text text-anchor="middle" x="187" y="-69" font-family="Helvetica,sans-Serif" font-size="10.00">core/scheduler.cc</text>
</a>
</g>
</g>
<!-- Node3&#45;&gt;Node6 -->
<g id="edge5" class="edge">
<title>Node3&#45;&gt;Node6</title>
<path fill="none" stroke="midnightblue" d="M187,-113.25C187,-102.02 187,-89.38 187,-81.19"/>
<polygon fill="midnightblue" stroke="midnightblue" points="183.5,-113.4 187,-123.4 190.5,-113.4 183.5,-113.4"/>
</g>
<!-- Node7 -->
<g id="node7" class="node">
<title>Node7</title>
<g id="a_node7"><a xlink:href="simulation_8cc.html" target="_top" xlink:title=" ">
<polygon fill="white" stroke="black" points="256,-62 256,-81 362,-81 362,-62 256,-62"/>
<text text-anchor="middle" x="309" y="-69" font-family="Helvetica,sans-Serif" font-size="10.00">core/simulation.cc</text>
</a>
</g>
</g>
<!-- Node3&#45;&gt;Node7 -->
<g id="edge6" class="edge">
<title>Node3&#45;&gt;Node7</title>
<path fill="none" stroke="midnightblue" d="M222.4,-118.64C245.74,-106.2 275.19,-90.51 293.03,-81.01"/>
<polygon fill="midnightblue" stroke="midnightblue" points="220.65,-115.6 213.47,-123.4 223.94,-121.78 220.65,-115.6"/>
</g>
<!-- Node5 -->
<g id="node5" class="node">
<title>Node5</title>
<g id="a_node5"><a xlink:href="biodynamo_8h.html" target="_top" xlink:title=" ">
<polygon fill="white" stroke="black" points="19,-0.5 19,-19.5 99,-19.5 99,-0.5 19,-0.5"/>
<text text-anchor="middle" x="59" y="-7.5" font-family="Helvetica,sans-Serif" font-size="10.00">biodynamo.h</text>
</a>
</g>
</g>
<!-- Node4&#45;&gt;Node5 -->
<g id="edge4" class="edge">
<title>Node4&#45;&gt;Node5</title>
<path fill="none" stroke="midnightblue" d="M59,-46.29C59,-36.86 59,-26.65 59,-19.66"/>
<polygon fill="midnightblue" stroke="midnightblue" points="55.5,-46.4 59,-56.4 62.5,-46.4 55.5,-46.4"/>
</g>
</g>
</svg>
