<?xml version="1.0" encoding="UTF-8" standalone="no"?>
<!DOCTYPE svg PUBLIC "-//W3C//DTD SVG 1.1//EN"
 "http://www.w3.org/Graphics/SVG/1.1/DTD/svg11.dtd">
<!-- Generated by graphviz version 2.43.0 (0)
 -->
<!-- Title: neuroscience/new_agent_event/neurite_bifurcation_event.h Pages: 1 -->
<svg width="1415pt" height="464pt"
 viewBox="0.00 0.00 1415.00 464.00" xmlns="http://www.w3.org/2000/svg" xmlns:xlink="http://www.w3.org/1999/xlink">
<g id="graph0" class="graph" transform="scale(1 1) rotate(0) translate(4 460)">
<title>neuroscience/new_agent_event/neurite_bifurcation_event.h</title>
<polygon fill="white" stroke="transparent" points="-4,4 -4,-460 1411,-460 1411,4 -4,4"/>
<!-- Node1 -->
<g id="node1" class="node">
<title>Node1</title>
<g id="a_node1"><a xlink:title=" ">
<polygon fill="#bfbfbf" stroke="black" points="565,-414.5 565,-455.5 710,-455.5 710,-414.5 565,-414.5"/>
<text text-anchor="start" x="573" y="-443.5" font-family="Helvetica,sans-Serif" font-size="10.00">neuroscience/new_agent</text>
<text text-anchor="start" x="573" y="-432.5" font-family="Helvetica,sans-Serif" font-size="10.00">_event/neurite_bifurcation</text>
<text text-anchor="middle" x="637.5" y="-421.5" font-family="Helvetica,sans-Serif" font-size="10.00">_event.h</text>
</a>
</g>
</g>
<!-- Node2 -->
<g id="node2" class="node">
<title>Node2</title>
<g id="a_node2"><a xlink:title=" ">
<polygon fill="white" stroke="#bfbfbf" points="348.5,-224.5 348.5,-243.5 390.5,-243.5 390.5,-224.5 348.5,-224.5"/>
<text text-anchor="middle" x="369.5" y="-231.5" font-family="Helvetica,sans-Serif" font-size="10.00">array</text>
</a>
</g>
</g>
<!-- Node1&#45;&gt;Node2 -->
<g id="edge1" class="edge">
<title>Node1&#45;&gt;Node2</title>
<path fill="none" stroke="midnightblue" d="M610.82,-414.19C557.09,-374.29 436.91,-285.06 389.39,-249.77"/>
<polygon fill="midnightblue" stroke="midnightblue" points="391.26,-246.8 381.14,-243.65 387.09,-252.42 391.26,-246.8"/>
</g>
<!-- Node3 -->
<g id="node3" class="node">
<title>Node3</title>
<g id="a_node3"><a xlink:href="new__agent__event_8h.html" target="_top" xlink:title=" ">
<polygon fill="white" stroke="black" points="575,-347.5 575,-377.5 700,-377.5 700,-347.5 575,-347.5"/>
<text text-anchor="start" x="583" y="-365.5" font-family="Helvetica,sans-Serif" font-size="10.00">core/agent/new_agent</text>
<text text-anchor="middle" x="637.5" y="-354.5" font-family="Helvetica,sans-Serif" font-size="10.00">_event.h</text>
</a>
</g>
</g>
<!-- Node1&#45;&gt;Node3 -->
<g id="edge2" class="edge">
<title>Node1&#45;&gt;Node3</title>
<path fill="none" stroke="midnightblue" d="M637.5,-414.36C637.5,-406.23 637.5,-396.7 637.5,-388.11"/>
<polygon fill="midnightblue" stroke="midnightblue" points="641,-387.89 637.5,-377.89 634,-387.89 641,-387.89"/>
</g>
<!-- Node26 -->
<g id="node26" class="node">
<title>Node26</title>
<g id="a_node26"><a xlink:href="math__array_8h.html" target="_top" xlink:title=" ">
<polygon fill="white" stroke="black" points="1030,-280.5 1030,-310.5 1145,-310.5 1145,-280.5 1030,-280.5"/>
<text text-anchor="start" x="1038" y="-298.5" font-family="Helvetica,sans-Serif" font-size="10.00">core/container/math</text>
<text text-anchor="middle" x="1087.5" y="-287.5" font-family="Helvetica,sans-Serif" font-size="10.00">_array.h</text>
</a>
</g>
</g>
<!-- Node1&#45;&gt;Node26 -->
<g id="edge35" class="edge">
<title>Node1&#45;&gt;Node26</title>
<path fill="none" stroke="midnightblue" d="M701.5,-414.45C789.96,-387.42 948.15,-339.08 1031.92,-313.48"/>
<polygon fill="midnightblue" stroke="midnightblue" points="1032.97,-316.82 1041.51,-310.55 1030.92,-310.13 1032.97,-316.82"/>
</g>
<!-- Node4 -->
<g id="node4" class="node">
<title>Node4</title>
<g id="a_node4"><a xlink:title=" ">
<polygon fill="white" stroke="#bfbfbf" points="811.5,-224.5 811.5,-243.5 855.5,-243.5 855.5,-224.5 811.5,-224.5"/>
<text text-anchor="middle" x="833.5" y="-231.5" font-family="Helvetica,sans-Serif" font-size="10.00">limits</text>
</a>
</g>
</g>
<!-- Node3&#45;&gt;Node4 -->
<g id="edge3" class="edge">
<title>Node3&#45;&gt;Node4</title>
<path fill="none" stroke="midnightblue" d="M679.69,-347.49C702.81,-338.81 731.38,-326.37 754.5,-311 780.14,-293.95 804.93,-268.09 819.7,-251.37"/>
<polygon fill="midnightblue" stroke="midnightblue" points="822.56,-253.41 826.46,-243.56 817.27,-248.83 822.56,-253.41"/>
</g>
<!-- Node5 -->
<g id="node5" class="node">
<title>Node5</title>
<g id="a_node5"><a xlink:title=" ">
<polygon fill="white" stroke="#bfbfbf" points="563.5,-286 563.5,-305 611.5,-305 611.5,-286 563.5,-286"/>
<text text-anchor="middle" x="587.5" y="-293" font-family="Helvetica,sans-Serif" font-size="10.00">mutex</text>
</a>
</g>
</g>
<!-- Node3&#45;&gt;Node5 -->
<g id="edge4" class="edge">
<title>Node3&#45;&gt;Node5</title>
<path fill="none" stroke="midnightblue" d="M626.65,-347.4C618.93,-337.36 608.53,-323.84 600.39,-313.25"/>
<polygon fill="midnightblue" stroke="midnightblue" points="603.06,-310.99 594.19,-305.19 597.51,-315.25 603.06,-310.99"/>
</g>
<!-- Node6 -->
<g id="node6" class="node">
<title>Node6</title>
<g id="a_node6"><a xlink:href="inline__vector_8h.html" target="_top" xlink:title=" ">
<polygon fill="white" stroke="black" points="629.5,-280.5 629.5,-310.5 745.5,-310.5 745.5,-280.5 629.5,-280.5"/>
<text text-anchor="start" x="637.5" y="-298.5" font-family="Helvetica,sans-Serif" font-size="10.00">core/container/inline</text>
<text text-anchor="middle" x="687.5" y="-287.5" font-family="Helvetica,sans-Serif" font-size="10.00">_vector.h</text>
</a>
</g>
</g>
<!-- Node3&#45;&gt;Node6 -->
<g id="edge5" class="edge">
<title>Node3&#45;&gt;Node6</title>
<path fill="none" stroke="midnightblue" d="M648.35,-347.4C654.84,-338.96 663.22,-328.07 670.56,-318.52"/>
<polygon fill="midnightblue" stroke="midnightblue" points="673.35,-320.64 676.67,-310.58 667.8,-316.37 673.35,-320.64"/>
</g>
<!-- Node18 -->
<g id="node18" class="node">
<title>Node18</title>
<g id="a_node18"><a xlink:href="log_8h.html" target="_top" xlink:title=" ">
<polygon fill="white" stroke="black" points="270,-112.5 270,-131.5 353,-131.5 353,-112.5 270,-112.5"/>
<text text-anchor="middle" x="311.5" y="-119.5" font-family="Helvetica,sans-Serif" font-size="10.00">core/util/log.h</text>
</a>
</g>
</g>
<!-- Node3&#45;&gt;Node18 -->
<g id="edge34" class="edge">
<title>Node3&#45;&gt;Node18</title>
<path fill="none" stroke="midnightblue" d="M574.94,-354.02C506.85,-342.49 399.68,-313.83 339.5,-244 314.36,-214.83 310.67,-167.48 310.74,-141.51"/>
<polygon fill="midnightblue" stroke="midnightblue" points="314.24,-141.58 310.96,-131.51 307.24,-141.43 314.24,-141.58"/>
</g>
<!-- Node6&#45;&gt;Node2 -->
<g id="edge7" class="edge">
<title>Node6&#45;&gt;Node2</title>
<path fill="none" stroke="midnightblue" d="M629.43,-281.75C626.41,-281.15 623.42,-280.56 620.5,-280 524.91,-261.7 499.72,-264.14 404.5,-244 403.22,-243.73 401.92,-243.44 400.61,-243.15"/>
<polygon fill="midnightblue" stroke="midnightblue" points="401.07,-239.66 390.53,-240.72 399.43,-246.46 401.07,-239.66"/>
</g>
<!-- Node6&#45;&gt;Node4 -->
<g id="edge9" class="edge">
<title>Node6&#45;&gt;Node4</title>
<path fill="none" stroke="midnightblue" d="M722.1,-280.4C746.6,-270.42 779.16,-257.15 802.75,-247.53"/>
<polygon fill="midnightblue" stroke="midnightblue" points="804.32,-250.67 812.26,-243.66 801.67,-244.19 804.32,-250.67"/>
</g>
<!-- Node7 -->
<g id="node7" class="node">
<title>Node7</title>
<g id="a_node7"><a xlink:title=" ">
<polygon fill="white" stroke="#bfbfbf" points="943.5,-224.5 943.5,-243.5 1007.5,-243.5 1007.5,-224.5 943.5,-224.5"/>
<text text-anchor="middle" x="975.5" y="-231.5" font-family="Helvetica,sans-Serif" font-size="10.00">algorithm</text>
</a>
</g>
</g>
<!-- Node6&#45;&gt;Node7 -->
<g id="edge6" class="edge">
<title>Node6&#45;&gt;Node7</title>
<path fill="none" stroke="midnightblue" d="M745.94,-282.8C793.77,-273.17 863.46,-259 933.41,-244.21"/>
<polygon fill="midnightblue" stroke="midnightblue" points="934.22,-247.62 943.28,-242.12 932.77,-240.77 934.22,-247.62"/>
</g>
<!-- Node8 -->
<g id="node8" class="node">
<title>Node8</title>
<g id="a_node8"><a xlink:title=" ">
<polygon fill="white" stroke="#bfbfbf" points="873.5,-224.5 873.5,-243.5 925.5,-243.5 925.5,-224.5 873.5,-224.5"/>
<text text-anchor="middle" x="899.5" y="-231.5" font-family="Helvetica,sans-Serif" font-size="10.00">cassert</text>
</a>
</g>
</g>
<!-- Node6&#45;&gt;Node8 -->
<g id="edge8" class="edge">
<title>Node6&#45;&gt;Node8</title>
<path fill="none" stroke="midnightblue" d="M737.47,-280.47C776.25,-269.59 829.05,-254.77 863.69,-245.05"/>
<polygon fill="midnightblue" stroke="midnightblue" points="864.71,-248.4 873.39,-242.33 862.82,-241.66 864.71,-248.4"/>
</g>
<!-- Node9 -->
<g id="node9" class="node">
<title>Node9</title>
<g id="a_node9"><a xlink:title=" ">
<polygon fill="white" stroke="#bfbfbf" points="482.5,-0.5 482.5,-19.5 538.5,-19.5 538.5,-0.5 482.5,-0.5"/>
<text text-anchor="middle" x="510.5" y="-7.5" font-family="Helvetica,sans-Serif" font-size="10.00">sstream</text>
</a>
</g>
</g>
<!-- Node6&#45;&gt;Node9 -->
<g id="edge10" class="edge">
<title>Node6&#45;&gt;Node9</title>
<path fill="none" stroke="midnightblue" d="M633.37,-280.47C601.01,-270.9 564.33,-257.54 554.5,-244 505.36,-176.3 574.53,-134.45 545.5,-56 541.52,-45.25 533.98,-35.02 526.92,-27.04"/>
<polygon fill="midnightblue" stroke="midnightblue" points="529.31,-24.47 519.9,-19.61 524.22,-29.28 529.31,-24.47"/>
</g>
<!-- Node10 -->
<g id="node10" class="node">
<title>Node10</title>
<g id="a_node10"><a xlink:title=" ">
<polygon fill="white" stroke="#bfbfbf" points="447,-224.5 447,-243.5 504,-243.5 504,-224.5 447,-224.5"/>
<text text-anchor="middle" x="475.5" y="-231.5" font-family="Helvetica,sans-Serif" font-size="10.00">typeinfo</text>
</a>
</g>
</g>
<!-- Node6&#45;&gt;Node10 -->
<g id="edge11" class="edge">
<title>Node6&#45;&gt;Node10</title>
<path fill="none" stroke="midnightblue" d="M637.53,-280.47C599.76,-269.87 548.67,-255.54 514.03,-245.81"/>
<polygon fill="midnightblue" stroke="midnightblue" points="514.86,-242.41 504.28,-243.08 512.96,-249.15 514.86,-242.41"/>
</g>
<!-- Node11 -->
<g id="node11" class="node">
<title>Node11</title>
<g id="a_node11"><a xlink:title=" ">
<polygon fill="white" stroke="#bfbfbf" points="579,-0.5 579,-19.5 626,-19.5 626,-0.5 579,-0.5"/>
<text text-anchor="middle" x="602.5" y="-7.5" font-family="Helvetica,sans-Serif" font-size="10.00">vector</text>
</a>
</g>
</g>
<!-- Node6&#45;&gt;Node11 -->
<g id="edge12" class="edge">
<title>Node6&#45;&gt;Node11</title>
<path fill="none" stroke="midnightblue" d="M710.39,-280.37C742.58,-260.52 797.84,-226.49 802.5,-224 836.17,-205.99 859.92,-220.16 880.5,-188 885.29,-180.51 881.66,-176.81 880.5,-168 877.14,-142.45 882.74,-131.15 865.5,-112 804.32,-44.04 692.24,-21.48 636.23,-14.25"/>
<polygon fill="midnightblue" stroke="midnightblue" points="636.47,-10.75 626.12,-13.03 635.63,-17.7 636.47,-10.75"/>
</g>
<!-- Node12 -->
<g id="node12" class="node">
<title>Node12</title>
<g id="a_node12"><a xlink:href="io_8h.html" target="_top" xlink:title=" ">
<polygon fill="white" stroke="black" points="563,-224.5 563,-243.5 640,-243.5 640,-224.5 563,-224.5"/>
<text text-anchor="middle" x="601.5" y="-231.5" font-family="Helvetica,sans-Serif" font-size="10.00">core/util/io.h</text>
</a>
</g>
</g>
<!-- Node6&#45;&gt;Node12 -->
<g id="edge13" class="edge">
<title>Node6&#45;&gt;Node12</title>
<path fill="none" stroke="midnightblue" d="M667.12,-280.4C653.59,-271.04 635.89,-258.79 622.28,-249.38"/>
<polygon fill="midnightblue" stroke="midnightblue" points="624.23,-246.47 614.01,-243.66 620.25,-252.23 624.23,-246.47"/>
</g>
<!-- Node16 -->
<g id="node16" class="node">
<title>Node16</title>
<g id="a_node16"><a xlink:href="root_8h.html" target="_top" xlink:title=" ">
<polygon fill="white" stroke="black" points="783.5,-168.5 783.5,-187.5 871.5,-187.5 871.5,-168.5 783.5,-168.5"/>
<text text-anchor="middle" x="827.5" y="-175.5" font-family="Helvetica,sans-Serif" font-size="10.00">core/util/root.h</text>
</a>
</g>
</g>
<!-- Node6&#45;&gt;Node16 -->
<g id="edge32" class="edge">
<title>Node6&#45;&gt;Node16</title>
<path fill="none" stroke="midnightblue" d="M703.33,-280.48C719.69,-266.08 746.09,-243.12 769.5,-224 782.08,-213.72 796.52,-202.52 807.84,-193.86"/>
<polygon fill="midnightblue" stroke="midnightblue" points="809.97,-196.64 815.81,-187.8 805.73,-191.07 809.97,-196.64"/>
</g>
<!-- Node6&#45;&gt;Node18 -->
<g id="edge31" class="edge">
<title>Node6&#45;&gt;Node18</title>
<path fill="none" stroke="midnightblue" d="M629.41,-281.86C626.4,-281.23 623.41,-280.6 620.5,-280 539.76,-263.28 511.7,-281.95 438.5,-244 388.46,-218.06 344.39,-166.38 323.82,-139.74"/>
<polygon fill="midnightblue" stroke="midnightblue" points="326.59,-137.6 317.77,-131.74 321.01,-141.83 326.59,-137.6"/>
</g>
<!-- Node25 -->
<g id="node25" class="node">
<title>Node25</title>
<g id="a_node25"><a xlink:title=" ">
<polygon fill="white" stroke="#bfbfbf" points="658,-224.5 658,-243.5 717,-243.5 717,-224.5 658,-224.5"/>
<text text-anchor="middle" x="687.5" y="-231.5" font-family="Helvetica,sans-Serif" font-size="10.00">Rtypes.h</text>
</a>
</g>
</g>
<!-- Node6&#45;&gt;Node25 -->
<g id="edge33" class="edge">
<title>Node6&#45;&gt;Node25</title>
<path fill="none" stroke="midnightblue" d="M687.5,-280.4C687.5,-272.47 687.5,-262.46 687.5,-253.86"/>
<polygon fill="midnightblue" stroke="midnightblue" points="691,-253.66 687.5,-243.66 684,-253.66 691,-253.66"/>
</g>
<!-- Node12&#45;&gt;Node11 -->
<g id="edge15" class="edge">
<title>Node12&#45;&gt;Node11</title>
<path fill="none" stroke="midnightblue" d="M601.54,-224.3C601.69,-191.63 602.21,-75.87 602.41,-29.96"/>
<polygon fill="midnightblue" stroke="midnightblue" points="605.91,-29.9 602.46,-19.88 598.91,-29.87 605.91,-29.9"/>
</g>
<!-- Node13 -->
<g id="node13" class="node">
<title>Node13</title>
<g id="a_node13"><a xlink:title=" ">
<polygon fill="white" stroke="#bfbfbf" points="390.5,-0.5 390.5,-19.5 434.5,-19.5 434.5,-0.5 390.5,-0.5"/>
<text text-anchor="middle" x="412.5" y="-7.5" font-family="Helvetica,sans-Serif" font-size="10.00">string</text>
</a>
</g>
</g>
<!-- Node12&#45;&gt;Node13 -->
<g id="edge14" class="edge">
<title>Node12&#45;&gt;Node13</title>
<path fill="none" stroke="midnightblue" d="M587.7,-224.2C555.38,-202.85 474.25,-144.98 431.5,-76 422.69,-61.79 417.81,-43.31 415.21,-29.69"/>
<polygon fill="midnightblue" stroke="midnightblue" points="418.62,-28.88 413.52,-19.59 411.71,-30.03 418.62,-28.88"/>
</g>
<!-- Node14 -->
<g id="node14" class="node">
<title>Node14</title>
<g id="a_node14"><a xlink:title=" ">
<polygon fill="white" stroke="#bfbfbf" points="630,-168.5 630,-187.5 679,-187.5 679,-168.5 630,-168.5"/>
<text text-anchor="middle" x="654.5" y="-175.5" font-family="Helvetica,sans-Serif" font-size="10.00">TFile.h</text>
</a>
</g>
</g>
<!-- Node12&#45;&gt;Node14 -->
<g id="edge16" class="edge">
<title>Node12&#45;&gt;Node14</title>
<path fill="none" stroke="midnightblue" d="M610.25,-224.08C617.97,-216.22 629.4,-204.57 638.72,-195.08"/>
<polygon fill="midnightblue" stroke="midnightblue" points="641.4,-197.34 645.91,-187.75 636.41,-192.44 641.4,-197.34"/>
</g>
<!-- Node15 -->
<g id="node15" class="node">
<title>Node15</title>
<g id="a_node15"><a xlink:title=" ">
<polygon fill="white" stroke="#bfbfbf" points="697.5,-168.5 697.5,-187.5 765.5,-187.5 765.5,-168.5 697.5,-168.5"/>
<text text-anchor="middle" x="731.5" y="-175.5" font-family="Helvetica,sans-Serif" font-size="10.00">TSystem.h</text>
</a>
</g>
</g>
<!-- Node12&#45;&gt;Node15 -->
<g id="edge17" class="edge">
<title>Node12&#45;&gt;Node15</title>
<path fill="none" stroke="midnightblue" d="M622.1,-224.44C643.49,-215.56 677.18,-201.56 701.52,-191.45"/>
<polygon fill="midnightblue" stroke="midnightblue" points="703.11,-194.58 711,-187.52 700.42,-188.12 703.11,-194.58"/>
</g>
<!-- Node12&#45;&gt;Node16 -->
<g id="edge18" class="edge">
<title>Node12&#45;&gt;Node16</title>
<path fill="none" stroke="midnightblue" d="M637.31,-224.44C676.49,-215.08 739.38,-200.06 782.02,-189.87"/>
<polygon fill="midnightblue" stroke="midnightblue" points="782.94,-193.24 791.86,-187.52 781.32,-186.44 782.94,-193.24"/>
</g>
<!-- Node17 -->
<g id="node17" class="node">
<title>Node17</title>
<g id="a_node17"><a xlink:title=" ">
<polygon fill="white" stroke="#bfbfbf" points="799,-112.5 799,-131.5 856,-131.5 856,-112.5 799,-112.5"/>
<text text-anchor="middle" x="827.5" y="-119.5" font-family="Helvetica,sans-Serif" font-size="10.00">TClass.h</text>
</a>
</g>
</g>
<!-- Node16&#45;&gt;Node17 -->
<g id="edge19" class="edge">
<title>Node16&#45;&gt;Node17</title>
<path fill="none" stroke="midnightblue" d="M827.5,-168.08C827.5,-161.01 827.5,-150.86 827.5,-141.99"/>
<polygon fill="midnightblue" stroke="midnightblue" points="831,-141.75 827.5,-131.75 824,-141.75 831,-141.75"/>
</g>
<!-- Node16&#45;&gt;Node18 -->
<g id="edge20" class="edge">
<title>Node16&#45;&gt;Node18</title>
<path fill="none" stroke="midnightblue" d="M783.29,-169.25C780.32,-168.8 777.37,-168.38 774.5,-168 625.65,-148.15 448.77,-133.4 363.1,-126.81"/>
<polygon fill="midnightblue" stroke="midnightblue" points="363.35,-123.32 353.12,-126.04 362.82,-130.3 363.35,-123.32"/>
</g>
<!-- Node18&#45;&gt;Node13 -->
<g id="edge26" class="edge">
<title>Node18&#45;&gt;Node13</title>
<path fill="none" stroke="midnightblue" d="M311.79,-112.47C312.66,-99.06 316.09,-72.86 329.5,-56 342.47,-39.7 363.01,-28.5 380.41,-21.34"/>
<polygon fill="midnightblue" stroke="midnightblue" points="382.13,-24.44 390.22,-17.59 379.62,-17.9 382.13,-24.44"/>
</g>
<!-- Node19 -->
<g id="node19" class="node">
<title>Node19</title>
<g id="a_node19"><a xlink:title=" ">
<polygon fill="white" stroke="#bfbfbf" points="228.5,-56.5 228.5,-75.5 282.5,-75.5 282.5,-56.5 228.5,-56.5"/>
<text text-anchor="middle" x="255.5" y="-63.5" font-family="Helvetica,sans-Serif" font-size="10.00">TError.h</text>
</a>
</g>
</g>
<!-- Node18&#45;&gt;Node19 -->
<g id="edge21" class="edge">
<title>Node18&#45;&gt;Node19</title>
<path fill="none" stroke="midnightblue" d="M302.5,-112.32C294.31,-104.42 281.99,-92.55 272.03,-82.94"/>
<polygon fill="midnightblue" stroke="midnightblue" points="274.29,-80.26 264.66,-75.83 269.43,-85.29 274.29,-80.26"/>
</g>
<!-- Node20 -->
<g id="node20" class="node">
<title>Node20</title>
<g id="a_node20"><a xlink:title=" ">
<polygon fill="white" stroke="#bfbfbf" points="338.5,-56.5 338.5,-75.5 384.5,-75.5 384.5,-56.5 338.5,-56.5"/>
<text text-anchor="middle" x="361.5" y="-63.5" font-family="Helvetica,sans-Serif" font-size="10.00">cstdio</text>
</a>
</g>
</g>
<!-- Node18&#45;&gt;Node20 -->
<g id="edge22" class="edge">
<title>Node18&#45;&gt;Node20</title>
<path fill="none" stroke="midnightblue" d="M319.76,-112.08C326.96,-104.3 337.61,-92.8 346.35,-83.37"/>
<polygon fill="midnightblue" stroke="midnightblue" points="349.17,-85.47 353.4,-75.75 344.03,-80.71 349.17,-85.47"/>
</g>
<!-- Node21 -->
<g id="node21" class="node">
<title>Node21</title>
<g id="a_node21"><a xlink:title=" ">
<polygon fill="white" stroke="#bfbfbf" points="0,-56.5 0,-75.5 49,-75.5 49,-56.5 0,-56.5"/>
<text text-anchor="middle" x="24.5" y="-63.5" font-family="Helvetica,sans-Serif" font-size="10.00">cstdlib</text>
</a>
</g>
</g>
<!-- Node18&#45;&gt;Node21 -->
<g id="edge23" class="edge">
<title>Node18&#45;&gt;Node21</title>
<path fill="none" stroke="midnightblue" d="M269.91,-114.82C221.49,-107.37 138.91,-93.84 59.48,-76.3"/>
<polygon fill="midnightblue" stroke="midnightblue" points="59.83,-72.79 49.31,-74.02 58.3,-79.62 59.83,-72.79"/>
</g>
<!-- Node22 -->
<g id="node22" class="node">
<title>Node22</title>
<g id="a_node22"><a xlink:title=" ">
<polygon fill="white" stroke="#bfbfbf" points="67,-56.5 67,-75.5 132,-75.5 132,-56.5 67,-56.5"/>
<text text-anchor="middle" x="99.5" y="-63.5" font-family="Helvetica,sans-Serif" font-size="10.00">functional</text>
</a>
</g>
</g>
<!-- Node18&#45;&gt;Node22 -->
<g id="edge24" class="edge">
<title>Node18&#45;&gt;Node22</title>
<path fill="none" stroke="midnightblue" d="M277.91,-112.44C241.1,-103.07 181.97,-88.01 141.97,-77.82"/>
<polygon fill="midnightblue" stroke="midnightblue" points="142.79,-74.42 132.24,-75.34 141.06,-81.2 142.79,-74.42"/>
</g>
<!-- Node23 -->
<g id="node23" class="node">
<title>Node23</title>
<g id="a_node23"><a xlink:title=" ">
<polygon fill="white" stroke="#bfbfbf" points="150.5,-56.5 150.5,-75.5 210.5,-75.5 210.5,-56.5 150.5,-56.5"/>
<text text-anchor="middle" x="180.5" y="-63.5" font-family="Helvetica,sans-Serif" font-size="10.00">iostream</text>
</a>
</g>
</g>
<!-- Node18&#45;&gt;Node23 -->
<g id="edge25" class="edge">
<title>Node18&#45;&gt;Node23</title>
<path fill="none" stroke="midnightblue" d="M290.74,-112.44C269.18,-103.56 235.24,-89.56 210.71,-79.45"/>
<polygon fill="midnightblue" stroke="midnightblue" points="211.74,-76.09 201.16,-75.52 209.07,-82.56 211.74,-76.09"/>
</g>
<!-- Node24 -->
<g id="node24" class="node">
<title>Node24</title>
<g id="a_node24"><a xlink:href="string_8h.html" target="_top" xlink:title=" ">
<polygon fill="white" stroke="black" points="440.5,-56.5 440.5,-75.5 536.5,-75.5 536.5,-56.5 440.5,-56.5"/>
<text text-anchor="middle" x="488.5" y="-63.5" font-family="Helvetica,sans-Serif" font-size="10.00">core/util/string.h</text>
</a>
</g>
</g>
<!-- Node18&#45;&gt;Node24 -->
<g id="edge27" class="edge">
<title>Node18&#45;&gt;Node24</title>
<path fill="none" stroke="midnightblue" d="M339.55,-112.44C369.58,-103.28 417.41,-88.69 450.74,-78.52"/>
<polygon fill="midnightblue" stroke="midnightblue" points="452.04,-81.78 460.59,-75.52 450,-75.09 452.04,-81.78"/>
</g>
<!-- Node24&#45;&gt;Node9 -->
<g id="edge28" class="edge">
<title>Node24&#45;&gt;Node9</title>
<path fill="none" stroke="midnightblue" d="M492.13,-56.08C495.11,-48.77 499.43,-38.18 503.12,-29.1"/>
<polygon fill="midnightblue" stroke="midnightblue" points="506.4,-30.33 506.93,-19.75 499.92,-27.69 506.4,-30.33"/>
</g>
<!-- Node24&#45;&gt;Node11 -->
<g id="edge30" class="edge">
<title>Node24&#45;&gt;Node11</title>
<path fill="none" stroke="midnightblue" d="M506.56,-56.44C525.07,-47.68 554.08,-33.94 575.36,-23.86"/>
<polygon fill="midnightblue" stroke="midnightblue" points="576.98,-26.96 584.52,-19.52 573.99,-20.63 576.98,-26.96"/>
</g>
<!-- Node24&#45;&gt;Node13 -->
<g id="edge29" class="edge">
<title>Node24&#45;&gt;Node13</title>
<path fill="none" stroke="midnightblue" d="M476.29,-56.32C464.72,-48.11 447.12,-35.6 433.34,-25.81"/>
<polygon fill="midnightblue" stroke="midnightblue" points="435.11,-22.77 424.93,-19.83 431.06,-28.48 435.11,-22.77"/>
</g>
<!-- Node26&#45;&gt;Node7 -->
<g id="edge36" class="edge">
<title>Node26&#45;&gt;Node7</title>
<path fill="none" stroke="midnightblue" d="M1060.96,-280.4C1042.84,-270.77 1018.96,-258.09 1001.06,-248.58"/>
<polygon fill="midnightblue" stroke="midnightblue" points="1002.27,-245.26 991.8,-243.66 998.99,-251.44 1002.27,-245.26"/>
</g>
<!-- Node26&#45;&gt;Node8 -->
<g id="edge37" class="edge">
<title>Node26&#45;&gt;Node8</title>
<path fill="none" stroke="midnightblue" d="M1042.95,-280.4C1010.17,-270.03 966.18,-256.1 935.59,-246.42"/>
<polygon fill="midnightblue" stroke="midnightblue" points="936.35,-242.99 925.76,-243.31 934.24,-249.67 936.35,-242.99"/>
</g>
<!-- Node26&#45;&gt;Node16 -->
<g id="edge43" class="edge">
<title>Node26&#45;&gt;Node16</title>
<path fill="none" stroke="midnightblue" d="M1077.14,-280.27C1064.61,-264.12 1042,-238.19 1016.5,-224 974.61,-200.69 920.98,-189.39 881.55,-183.95"/>
<polygon fill="midnightblue" stroke="midnightblue" points="881.96,-180.48 871.6,-182.66 881.06,-187.42 881.96,-180.48"/>
</g>
<!-- Node27 -->
<g id="node27" class="node">
<title>Node27</title>
<g id="a_node27"><a xlink:title=" ">
<polygon fill="white" stroke="#bfbfbf" points="1064,-224.5 1064,-243.5 1111,-243.5 1111,-224.5 1064,-224.5"/>
<text text-anchor="middle" x="1087.5" y="-231.5" font-family="Helvetica,sans-Serif" font-size="10.00">cmath</text>
</a>
</g>
</g>
<!-- Node26&#45;&gt;Node27 -->
<g id="edge38" class="edge">
<title>Node26&#45;&gt;Node27</title>
<path fill="none" stroke="midnightblue" d="M1087.5,-280.4C1087.5,-272.47 1087.5,-262.46 1087.5,-253.86"/>
<polygon fill="midnightblue" stroke="midnightblue" points="1091,-253.66 1087.5,-243.66 1084,-253.66 1091,-253.66"/>
</g>
<!-- Node28 -->
<g id="node28" class="node">
<title>Node28</title>
<g id="a_node28"><a xlink:title=" ">
<polygon fill="white" stroke="#bfbfbf" points="1129.5,-224.5 1129.5,-243.5 1185.5,-243.5 1185.5,-224.5 1129.5,-224.5"/>
<text text-anchor="middle" x="1157.5" y="-231.5" font-family="Helvetica,sans-Serif" font-size="10.00">numeric</text>
</a>
</g>
</g>
<!-- Node26&#45;&gt;Node28 -->
<g id="edge39" class="edge">
<title>Node26&#45;&gt;Node28</title>
<path fill="none" stroke="midnightblue" d="M1104.09,-280.4C1114.79,-271.31 1128.69,-259.49 1139.63,-250.19"/>
<polygon fill="midnightblue" stroke="midnightblue" points="1141.96,-252.8 1147.31,-243.66 1137.43,-247.47 1141.96,-252.8"/>
</g>
<!-- Node29 -->
<g id="node29" class="node">
<title>Node29</title>
<g id="a_node29"><a xlink:title=" ">
<polygon fill="white" stroke="#bfbfbf" points="1204,-224.5 1204,-243.5 1261,-243.5 1261,-224.5 1204,-224.5"/>
<text text-anchor="middle" x="1232.5" y="-231.5" font-family="Helvetica,sans-Serif" font-size="10.00">ostream</text>
</a>
</g>
</g>
<!-- Node26&#45;&gt;Node29 -->
<g id="edge40" class="edge">
<title>Node26&#45;&gt;Node29</title>
<path fill="none" stroke="midnightblue" d="M1121.86,-280.4C1146.19,-270.42 1178.53,-257.15 1201.96,-247.53"/>
<polygon fill="midnightblue" stroke="midnightblue" points="1203.48,-250.69 1211.4,-243.66 1200.82,-244.22 1203.48,-250.69"/>
</g>
<!-- Node30 -->
<g id="node30" class="node">
<title>Node30</title>
<g id="a_node30"><a xlink:title=" ">
<polygon fill="white" stroke="#bfbfbf" points="1279,-224.5 1279,-243.5 1344,-243.5 1344,-224.5 1279,-224.5"/>
<text text-anchor="middle" x="1311.5" y="-231.5" font-family="Helvetica,sans-Serif" font-size="10.00">stdexcept</text>
</a>
</g>
</g>
<!-- Node26&#45;&gt;Node30 -->
<g id="edge41" class="edge">
<title>Node26&#45;&gt;Node30</title>
<path fill="none" stroke="midnightblue" d="M1140.3,-280.47C1179.79,-269.99 1233.06,-255.84 1269.63,-246.12"/>
<polygon fill="midnightblue" stroke="midnightblue" points="1270.71,-249.46 1279.48,-243.51 1268.91,-242.69 1270.71,-249.46"/>
</g>
<!-- Node31 -->
<g id="node31" class="node">
<title>Node31</title>
<g id="a_node31"><a xlink:title=" ">
<polygon fill="white" stroke="#bfbfbf" points="1362,-224.5 1362,-243.5 1407,-243.5 1407,-224.5 1362,-224.5"/>
<text text-anchor="middle" x="1384.5" y="-231.5" font-family="Helvetica,sans-Serif" font-size="10.00">utility</text>
</a>
</g>
</g>
<!-- Node26&#45;&gt;Node31 -->
<g id="edge42" class="edge">
<title>Node26&#45;&gt;Node31</title>
<path fill="none" stroke="midnightblue" d="M1145.17,-285.18C1197.06,-276.42 1275.54,-262.27 1352.07,-244.18"/>
<polygon fill="midnightblue" stroke="midnightblue" points="1352.97,-247.56 1361.88,-241.84 1351.34,-240.76 1352.97,-247.56"/>
</g>
</g>
</svg>
