<?xml version="1.0" encoding="UTF-8" standalone="no"?>
<!DOCTYPE svg PUBLIC "-//W3C//DTD SVG 1.1//EN"
 "http://www.w3.org/Graphics/SVG/1.1/DTD/svg11.dtd">
<!-- Generated by graphviz version 2.36.0 (20140111.2315)
 -->
<!-- Title: neuroscience/neuroscience.h Pages: 1 -->
<svg width="2581pt" height="646pt"
 viewBox="0.00 0.00 2581.29 646.00" xmlns="http://www.w3.org/2000/svg" xmlns:xlink="http://www.w3.org/1999/xlink">
<g id="graph0" class="graph" transform="scale(1 1) rotate(0) translate(4 642)">
<title>neuroscience/neuroscience.h</title>
<polygon fill="white" stroke="none" points="-4,4 -4,-642 2577.29,-642 2577.29,4 -4,4"/>
<!-- Node1 -->
<g id="node1" class="node"><title>Node1</title>
<polygon fill="#bfbfbf" stroke="black" points="1573.11,-618.5 1573.11,-637.5 1716.11,-637.5 1716.11,-618.5 1573.11,-618.5"/>
<text text-anchor="middle" x="1644.61" y="-625.5" font-family="Helvetica,sans-Serif" font-size="10.00">neuroscience/neuroscience.h</text>
</g>
<!-- Node2 -->
<g id="node2" class="node"><title>Node2</title>
<g id="a_node2"><a xlink:href="neuroscience_2compile__time__param_8h.html" target="_top" xlink:title="neuroscience/compile\l_time_param.h">
<polygon fill="white" stroke="black" points="1673.11,-551 1673.11,-581 1784.11,-581 1784.11,-551 1673.11,-551"/>
<text text-anchor="start" x="1681.11" y="-569" font-family="Helvetica,sans-Serif" font-size="10.00">neuroscience/compile</text>
<text text-anchor="middle" x="1728.61" y="-558" font-family="Helvetica,sans-Serif" font-size="10.00">_time_param.h</text>
</a>
</g>
</g>
<!-- Node1&#45;&gt;Node2 -->
<g id="edge1" class="edge"><title>Node1&#45;&gt;Node2</title>
<path fill="none" stroke="midnightblue" d="M1656.65,-618.403C1668.03,-610.277 1685.52,-597.779 1700.42,-587.142"/>
<polygon fill="midnightblue" stroke="midnightblue" points="1702.71,-589.801 1708.82,-581.141 1698.65,-584.105 1702.71,-589.801"/>
</g>
<!-- Node3 -->
<g id="node3" class="node"><title>Node3</title>
<g id="a_node3"><a xlink:href="neurite__element_8h.html" target="_top" xlink:title="neuroscience/neurite\l_element.h">
<polygon fill="white" stroke="black" points="1739.11,-415 1739.11,-445 1846.11,-445 1846.11,-415 1739.11,-415"/>
<text text-anchor="start" x="1747.11" y="-433" font-family="Helvetica,sans-Serif" font-size="10.00">neuroscience/neurite</text>
<text text-anchor="middle" x="1792.61" y="-422" font-family="Helvetica,sans-Serif" font-size="10.00">_element.h</text>
</a>
</g>
</g>
<!-- Node1&#45;&gt;Node3 -->
<g id="edge153" class="edge"><title>Node1&#45;&gt;Node3</title>
<path fill="none" stroke="midnightblue" d="M1716.19,-623.094C1744.68,-617.59 1774.86,-605.949 1792.61,-582 1820.1,-544.912 1809.77,-487.4 1800.65,-455.111"/>
<polygon fill="midnightblue" stroke="midnightblue" points="1803.9,-453.756 1797.66,-445.193 1797.19,-455.778 1803.9,-453.756"/>
</g>
<!-- Node36 -->
<g id="node36" class="node"><title>Node36</title>
<g id="a_node36"><a xlink:href="neurite__bifurcation__event_8h.html" target="_top" xlink:title="neuroscience/event\l/neurite_bifurcation\l_event.h">
<polygon fill="white" stroke="black" points="2334.11,-336.5 2334.11,-377.5 2435.11,-377.5 2435.11,-336.5 2334.11,-336.5"/>
<text text-anchor="start" x="2342.11" y="-365.5" font-family="Helvetica,sans-Serif" font-size="10.00">neuroscience/event</text>
<text text-anchor="start" x="2342.11" y="-354.5" font-family="Helvetica,sans-Serif" font-size="10.00">/neurite_bifurcation</text>
<text text-anchor="middle" x="2384.61" y="-343.5" font-family="Helvetica,sans-Serif" font-size="10.00">_event.h</text>
</a>
</g>
</g>
<!-- Node1&#45;&gt;Node36 -->
<g id="edge148" class="edge"><title>Node1&#45;&gt;Node36</title>
<path fill="none" stroke="midnightblue" d="M1702.14,-618.469C1746.79,-611.063 1809.92,-598.866 1863.61,-582 2044.15,-525.291 2247.27,-427.473 2337.3,-382.238"/>
<polygon fill="midnightblue" stroke="midnightblue" points="2339.08,-385.264 2346.43,-377.637 2335.92,-379.013 2339.08,-385.264"/>
</g>
<!-- Node37 -->
<g id="node37" class="node"><title>Node37</title>
<g id="a_node37"><a xlink:href="neurite__branching__event_8h.html" target="_top" xlink:title="neuroscience/event\l/neurite_branching_event.h">
<polygon fill="white" stroke="black" points="2143.61,-342 2143.61,-372 2277.61,-372 2277.61,-342 2143.61,-342"/>
<text text-anchor="start" x="2151.61" y="-360" font-family="Helvetica,sans-Serif" font-size="10.00">neuroscience/event</text>
<text text-anchor="middle" x="2210.61" y="-349" font-family="Helvetica,sans-Serif" font-size="10.00">/neurite_branching_event.h</text>
</a>
</g>
</g>
<!-- Node1&#45;&gt;Node37 -->
<g id="edge149" class="edge"><title>Node1&#45;&gt;Node37</title>
<path fill="none" stroke="midnightblue" d="M1689.3,-618.451C1724.18,-611.002 1773.47,-598.756 1814.61,-582 1959.94,-522.812 2118.18,-420.596 2181.78,-377.773"/>
<polygon fill="midnightblue" stroke="midnightblue" points="2183.79,-380.637 2190.12,-372.136 2179.87,-374.839 2183.79,-380.637"/>
</g>
<!-- Node38 -->
<g id="node38" class="node"><title>Node38</title>
<g id="a_node38"><a xlink:href="new__neurite__extension__event_8h.html" target="_top" xlink:title="neuroscience/event\l/new_neurite_extension\l_event.h">
<polygon fill="white" stroke="black" points="1321.11,-336.5 1321.11,-377.5 1440.11,-377.5 1440.11,-336.5 1321.11,-336.5"/>
<text text-anchor="start" x="1329.11" y="-365.5" font-family="Helvetica,sans-Serif" font-size="10.00">neuroscience/event</text>
<text text-anchor="start" x="1329.11" y="-354.5" font-family="Helvetica,sans-Serif" font-size="10.00">/new_neurite_extension</text>
<text text-anchor="middle" x="1380.61" y="-343.5" font-family="Helvetica,sans-Serif" font-size="10.00">_event.h</text>
</a>
</g>
</g>
<!-- Node1&#45;&gt;Node38 -->
<g id="edge150" class="edge"><title>Node1&#45;&gt;Node38</title>
<path fill="none" stroke="midnightblue" d="M1636.13,-618.355C1600.91,-582.466 1465.35,-444.345 1407.28,-385.168"/>
<polygon fill="midnightblue" stroke="midnightblue" points="1409.44,-382.376 1399.94,-377.691 1404.45,-387.279 1409.44,-382.376"/>
</g>
<!-- Node39 -->
<g id="node39" class="node"><title>Node39</title>
<g id="a_node39"><a xlink:href="side__neurite__extension__event_8h.html" target="_top" xlink:title="neuroscience/event\l/side_neurite_extension\l_event.h">
<polygon fill="white" stroke="black" points="1458.11,-336.5 1458.11,-377.5 1577.11,-377.5 1577.11,-336.5 1458.11,-336.5"/>
<text text-anchor="start" x="1466.11" y="-365.5" font-family="Helvetica,sans-Serif" font-size="10.00">neuroscience/event</text>
<text text-anchor="start" x="1466.11" y="-354.5" font-family="Helvetica,sans-Serif" font-size="10.00">/side_neurite_extension</text>
<text text-anchor="middle" x="1517.61" y="-343.5" font-family="Helvetica,sans-Serif" font-size="10.00">_event.h</text>
</a>
</g>
</g>
<!-- Node1&#45;&gt;Node39 -->
<g id="edge151" class="edge"><title>Node1&#45;&gt;Node39</title>
<path fill="none" stroke="midnightblue" d="M1640.53,-618.355C1623.76,-582.832 1559.71,-447.153 1531.31,-387.004"/>
<polygon fill="midnightblue" stroke="midnightblue" points="1534.34,-385.239 1526.91,-377.691 1528.01,-388.228 1534.34,-385.239"/>
</g>
<!-- Node40 -->
<g id="node40" class="node"><title>Node40</title>
<g id="a_node40"><a xlink:href="split__neurite__element__event_8h.html" target="_top" xlink:title="neuroscience/event\l/split_neurite_element\l_event.h">
<polygon fill="white" stroke="black" points="1595.61,-336.5 1595.61,-377.5 1707.61,-377.5 1707.61,-336.5 1595.61,-336.5"/>
<text text-anchor="start" x="1603.61" y="-365.5" font-family="Helvetica,sans-Serif" font-size="10.00">neuroscience/event</text>
<text text-anchor="start" x="1603.61" y="-354.5" font-family="Helvetica,sans-Serif" font-size="10.00">/split_neurite_element</text>
<text text-anchor="middle" x="1651.61" y="-343.5" font-family="Helvetica,sans-Serif" font-size="10.00">_event.h</text>
</a>
</g>
</g>
<!-- Node1&#45;&gt;Node40 -->
<g id="edge152" class="edge"><title>Node1&#45;&gt;Node40</title>
<path fill="none" stroke="midnightblue" d="M1642.74,-618.265C1638.79,-599.365 1629.72,-553.211 1626.61,-514 1623.09,-469.535 1634.13,-418.613 1642.66,-387.379"/>
<polygon fill="midnightblue" stroke="midnightblue" points="1646.07,-388.155 1645.43,-377.58 1639.34,-386.251 1646.07,-388.155"/>
</g>
<!-- Node41 -->
<g id="node41" class="node"><title>Node41</title>
<g id="a_node41"><a xlink:href="neuroscience_2param_8h.html" target="_top" xlink:title="neuroscience/param.h">
<polygon fill="white" stroke="black" points="167.114,-347.5 167.114,-366.5 280.114,-366.5 280.114,-347.5 167.114,-347.5"/>
<text text-anchor="middle" x="223.614" y="-354.5" font-family="Helvetica,sans-Serif" font-size="10.00">neuroscience/param.h</text>
</a>
</g>
</g>
<!-- Node1&#45;&gt;Node41 -->
<g id="edge155" class="edge"><title>Node1&#45;&gt;Node41</title>
<path fill="none" stroke="midnightblue" d="M1572.72,-627.33C1317.36,-627.069 458.337,-613.531 253.614,-446 232.947,-429.087 226.463,-397.279 224.462,-376.893"/>
<polygon fill="midnightblue" stroke="midnightblue" points="227.935,-376.388 223.739,-366.659 220.952,-376.881 227.935,-376.388"/>
</g>
<!-- Node49 -->
<g id="node49" class="node"><title>Node49</title>
<g id="a_node49"><a xlink:href="neuron__soma_8h.html" target="_top" xlink:title="neuroscience/neuron\l_soma.h">
<polygon fill="white" stroke="black" points="1636.11,-483 1636.11,-513 1743.11,-513 1743.11,-483 1636.11,-483"/>
<text text-anchor="start" x="1644.11" y="-501" font-family="Helvetica,sans-Serif" font-size="10.00">neuroscience/neuron</text>
<text text-anchor="middle" x="1689.61" y="-490" font-family="Helvetica,sans-Serif" font-size="10.00">_soma.h</text>
</a>
</g>
</g>
<!-- Node1&#45;&gt;Node49 -->
<g id="edge154" class="edge"><title>Node1&#45;&gt;Node49</title>
<path fill="none" stroke="midnightblue" d="M1646.09,-618.26C1648.69,-603.772 1654.67,-573.998 1663.61,-550 1667.09,-540.662 1671.84,-530.816 1676.32,-522.291"/>
<polygon fill="midnightblue" stroke="midnightblue" points="1679.49,-523.784 1681.19,-513.326 1673.34,-520.444 1679.49,-523.784"/>
</g>
<!-- Node2&#45;&gt;Node3 -->
<g id="edge2" class="edge"><title>Node2&#45;&gt;Node3</title>
<path fill="none" stroke="midnightblue" d="M1735.46,-550.66C1746.43,-527.689 1768.06,-482.411 1781.34,-454.614"/>
<polygon fill="midnightblue" stroke="midnightblue" points="1784.66,-455.769 1785.81,-445.237 1778.35,-452.752 1784.66,-455.769"/>
</g>
<!-- Node2&#45;&gt;Node49 -->
<g id="edge125" class="edge"><title>Node2&#45;&gt;Node49</title>
<path fill="none" stroke="midnightblue" d="M1720.15,-550.679C1715.19,-542.29 1708.82,-531.499 1703.18,-521.949"/>
<polygon fill="midnightblue" stroke="midnightblue" points="1706.16,-520.122 1698.06,-513.293 1700.13,-523.683 1706.16,-520.122"/>
</g>
<!-- Node4 -->
<g id="node4" class="node"><title>Node4</title>
<polygon fill="white" stroke="#bfbfbf" points="775.614,-224.5 775.614,-243.5 805.614,-243.5 805.614,-224.5 775.614,-224.5"/>
<text text-anchor="middle" x="790.614" y="-231.5" font-family="Helvetica,sans-Serif" font-size="10.00">set</text>
</g>
<!-- Node3&#45;&gt;Node4 -->
<g id="edge3" class="edge"><title>Node3&#45;&gt;Node4</title>
<path fill="none" stroke="midnightblue" d="M1782.82,-414.884C1766.21,-391.383 1732.69,-345.84 1715.61,-336 1707.49,-331.316 1391.93,-281.076 1382.61,-280 1134.65,-251.369 1063.81,-295.786 815.687,-243.552"/>
<polygon fill="midnightblue" stroke="midnightblue" points="816.157,-240.074 805.647,-241.407 814.694,-246.919 816.157,-240.074"/>
</g>
<!-- Node5 -->
<g id="node5" class="node"><title>Node5</title>
<polygon fill="white" stroke="#bfbfbf" points="1416.11,-112.5 1416.11,-131.5 1457.11,-131.5 1457.11,-112.5 1416.11,-112.5"/>
<text text-anchor="middle" x="1436.61" y="-119.5" font-family="Helvetica,sans-Serif" font-size="10.00">string</text>
</g>
<!-- Node3&#45;&gt;Node5 -->
<g id="edge4" class="edge"><title>Node3&#45;&gt;Node5</title>
<path fill="none" stroke="midnightblue" d="M1813.25,-414.817C1824.53,-405.757 1837.43,-392.923 1843.61,-378 1850.76,-360.754 1848.76,-353.943 1843.61,-336 1827.43,-279.574 1820.28,-259.604 1773.61,-224 1767.3,-219.182 1548.56,-155.457 1466.93,-131.779"/>
<polygon fill="midnightblue" stroke="midnightblue" points="1467.82,-128.391 1457.24,-128.968 1465.87,-135.114 1467.82,-128.391"/>
</g>
<!-- Node6 -->
<g id="node6" class="node"><title>Node6</title>
<polygon fill="white" stroke="#bfbfbf" points="408.114,-280.5 408.114,-299.5 491.114,-299.5 491.114,-280.5 408.114,-280.5"/>
<text text-anchor="middle" x="449.614" y="-287.5" font-family="Helvetica,sans-Serif" font-size="10.00">unordered_map</text>
</g>
<!-- Node3&#45;&gt;Node6 -->
<g id="edge5" class="edge"><title>Node3&#45;&gt;Node6</title>
<path fill="none" stroke="midnightblue" d="M1739,-427.623C1559.67,-422.801 981.735,-405.469 797.614,-378 682.089,-360.765 549.044,-322.085 486.163,-302.635"/>
<polygon fill="midnightblue" stroke="midnightblue" points="486.917,-299.204 476.329,-299.572 484.836,-305.887 486.917,-299.204"/>
</g>
<!-- Node7 -->
<g id="node7" class="node"><title>Node7</title>
<polygon fill="white" stroke="#bfbfbf" points="1739.61,-56.5 1739.61,-75.5 1783.61,-75.5 1783.61,-56.5 1739.61,-56.5"/>
<text text-anchor="middle" x="1761.61" y="-63.5" font-family="Helvetica,sans-Serif" font-size="10.00">vector</text>
</g>
<!-- Node3&#45;&gt;Node7 -->
<g id="edge6" class="edge"><title>Node3&#45;&gt;Node7</title>
<path fill="none" stroke="midnightblue" d="M1846.26,-416.97C1872.29,-409.125 1902.79,-396.766 1925.61,-378 1963.23,-347.077 1995.42,-324.026 1974.61,-280 1947.08,-221.76 1908.34,-233.371 1862.61,-188 1827.82,-153.48 1792.27,-108.03 1774.06,-83.8447"/>
<polygon fill="midnightblue" stroke="midnightblue" points="1776.75,-81.6019 1767.96,-75.6837 1771.14,-85.7903 1776.75,-81.6019"/>
</g>
<!-- Node8 -->
<g id="node8" class="node"><title>Node8</title>
<g id="a_node8"><a xlink:href="biology__module__util_8h.html" target="_top" xlink:title="biology_module_util.h">
<polygon fill="white" stroke="black" points="806.614,-347.5 806.614,-366.5 916.614,-366.5 916.614,-347.5 806.614,-347.5"/>
<text text-anchor="middle" x="861.614" y="-354.5" font-family="Helvetica,sans-Serif" font-size="10.00">biology_module_util.h</text>
</a>
</g>
</g>
<!-- Node3&#45;&gt;Node8 -->
<g id="edge7" class="edge"><title>Node3&#45;&gt;Node8</title>
<path fill="none" stroke="midnightblue" d="M1739.1,-427.562C1575.4,-422.894 1083.02,-406.777 925.614,-378 915.05,-376.069 903.789,-372.932 893.705,-369.71"/>
<polygon fill="midnightblue" stroke="midnightblue" points="894.677,-366.345 884.083,-366.501 892.462,-372.985 894.677,-366.345"/>
</g>
<!-- Node12 -->
<g id="node12" class="node"><title>Node12</title>
<g id="a_node12"><a xlink:href="log_8h.html" target="_top" xlink:title="log.h">
<polygon fill="white" stroke="black" points="1231.61,-224.5 1231.61,-243.5 1269.61,-243.5 1269.61,-224.5 1231.61,-224.5"/>
<text text-anchor="middle" x="1250.61" y="-231.5" font-family="Helvetica,sans-Serif" font-size="10.00">log.h</text>
</a>
</g>
</g>
<!-- Node3&#45;&gt;Node12 -->
<g id="edge54" class="edge"><title>Node3&#45;&gt;Node12</title>
<path fill="none" stroke="midnightblue" d="M1796.75,-414.694C1801.62,-394.487 1806.83,-357.641 1787.61,-336 1725.61,-266.176 1669.72,-327.932 1580.61,-300 1560.5,-293.695 1557.78,-286.137 1537.61,-280 1446.17,-252.169 1332.83,-240.883 1280.13,-236.897"/>
<polygon fill="midnightblue" stroke="midnightblue" points="1280.06,-233.383 1269.83,-236.155 1279.55,-240.365 1280.06,-233.383"/>
</g>
<!-- Node25 -->
<g id="node25" class="node"><title>Node25</title>
<g id="a_node25"><a xlink:href="shape_8h.html" target="_top" xlink:title="shape.h">
<polygon fill="white" stroke="black" points="774.114,-168.5 774.114,-187.5 825.114,-187.5 825.114,-168.5 774.114,-168.5"/>
<text text-anchor="middle" x="799.614" y="-175.5" font-family="Helvetica,sans-Serif" font-size="10.00">shape.h</text>
</a>
</g>
</g>
<!-- Node3&#45;&gt;Node25 -->
<g id="edge77" class="edge"><title>Node3&#45;&gt;Node25</title>
<path fill="none" stroke="midnightblue" d="M1790.29,-414.767C1786.09,-393.951 1775.19,-355.561 1749.61,-336 1673.7,-277.937 1631.09,-319.886 1537.61,-300 1502.61,-292.553 1494.89,-286.011 1459.61,-280 1277.11,-248.903 1224.87,-286.23 1044.61,-244 1020.91,-238.446 1016.87,-231.214 993.614,-224 939.202,-207.119 874.463,-193.326 835.233,-185.639"/>
<polygon fill="midnightblue" stroke="midnightblue" points="835.836,-182.191 825.353,-183.727 834.505,-189.064 835.836,-182.191"/>
</g>
<!-- Node27 -->
<g id="node27" class="node"><title>Node27</title>
<g id="a_node27"><a xlink:href="default__force_8h.html" target="_top" xlink:title="default_force.h">
<polygon fill="white" stroke="black" points="1885.11,-280.5 1885.11,-299.5 1966.11,-299.5 1966.11,-280.5 1885.11,-280.5"/>
<text text-anchor="middle" x="1925.61" y="-287.5" font-family="Helvetica,sans-Serif" font-size="10.00">default_force.h</text>
</a>
</g>
</g>
<!-- Node3&#45;&gt;Node27 -->
<g id="edge32" class="edge"><title>Node3&#45;&gt;Node27</title>
<path fill="none" stroke="midnightblue" d="M1844.91,-414.968C1865.18,-407.121 1886.99,-395.321 1901.61,-378 1917.93,-358.675 1923.21,-329.132 1924.89,-309.939"/>
<polygon fill="midnightblue" stroke="midnightblue" points="1928.39,-309.949 1925.52,-299.75 1921.41,-309.513 1928.39,-309.949"/>
</g>
<!-- Node30 -->
<g id="node30" class="node"><title>Node30</title>
<g id="a_node30"><a xlink:href="math__util_8h.html" target="_top" xlink:title="math_util.h">
<polygon fill="white" stroke="black" points="2244.11,-112.5 2244.11,-131.5 2309.11,-131.5 2309.11,-112.5 2244.11,-112.5"/>
<text text-anchor="middle" x="2276.61" y="-119.5" font-family="Helvetica,sans-Serif" font-size="10.00">math_util.h</text>
</a>
</g>
</g>
<!-- Node3&#45;&gt;Node30 -->
<g id="edge55" class="edge"><title>Node3&#45;&gt;Node30</title>
<path fill="none" stroke="midnightblue" d="M1846.48,-416.949C1883.85,-407.914 1934.46,-394.326 1977.61,-378 2017.4,-362.95 2024.63,-353.017 2063.61,-336 2167.55,-290.631 2237.49,-337.536 2301.61,-244 2320.71,-216.14 2310.09,-200.698 2301.61,-168 2299.07,-158.175 2293.86,-148.212 2288.86,-140.166"/>
<polygon fill="midnightblue" stroke="midnightblue" points="2291.69,-138.114 2283.24,-131.725 2285.87,-141.99 2291.69,-138.114"/>
</g>
<!-- Node33 -->
<g id="node33" class="node"><title>Node33</title>
<g id="a_node33"><a xlink:href="random_8h.html" target="_top" xlink:title="random.h">
<polygon fill="white" stroke="black" points="1942.11,-56.5 1942.11,-75.5 1999.11,-75.5 1999.11,-56.5 1942.11,-56.5"/>
<text text-anchor="middle" x="1970.61" y="-63.5" font-family="Helvetica,sans-Serif" font-size="10.00">random.h</text>
</a>
</g>
</g>
<!-- Node3&#45;&gt;Node33 -->
<g id="edge76" class="edge"><title>Node3&#45;&gt;Node33</title>
<path fill="none" stroke="midnightblue" d="M1846.23,-420.712C1895.77,-412.349 1971.09,-397.837 2034.61,-378 2080.63,-363.632 2089.06,-351.753 2134.61,-336 2191.68,-316.268 2213.56,-330.592 2265.61,-300 2295.69,-282.325 2307.41,-276.29 2320.61,-244 2334.42,-210.238 2390.72,-192.988 2317.61,-112 2297.2,-89.3825 2095.65,-74.5768 2009.42,-69.2305"/>
<polygon fill="midnightblue" stroke="midnightblue" points="2009.45,-65.7258 1999.26,-68.611 2009.03,-72.7128 2009.45,-65.7258"/>
</g>
<!-- Node3&#45;&gt;Node36 -->
<g id="edge56" class="edge"><title>Node3&#45;&gt;Node36</title>
<path fill="none" stroke="midnightblue" d="M1846.2,-425.206C1937.11,-418.381 2127.24,-402.428 2286.61,-378 2298.68,-376.15 2311.51,-373.808 2323.78,-371.383"/>
<polygon fill="midnightblue" stroke="midnightblue" points="2324.81,-374.745 2333.92,-369.336 2323.43,-367.884 2324.81,-374.745"/>
</g>
<!-- Node3&#45;&gt;Node37 -->
<g id="edge59" class="edge"><title>Node3&#45;&gt;Node37</title>
<path fill="none" stroke="midnightblue" d="M1846.4,-419.863C1919.4,-407.465 2050.26,-385.237 2133.64,-371.074"/>
<polygon fill="midnightblue" stroke="midnightblue" points="2134.3,-374.513 2143.57,-369.388 2133.12,-367.612 2134.3,-374.513"/>
</g>
<!-- Node3&#45;&gt;Node38 -->
<g id="edge62" class="edge"><title>Node3&#45;&gt;Node38</title>
<path fill="none" stroke="midnightblue" d="M1738.92,-421.458C1655.79,-409.724 1500.93,-387.614 1450.1,-378.033"/>
<polygon fill="midnightblue" stroke="midnightblue" points="1450.69,-374.582 1440.2,-376.033 1449.31,-381.444 1450.69,-374.582"/>
</g>
<!-- Node3&#45;&gt;Node39 -->
<g id="edge64" class="edge"><title>Node3&#45;&gt;Node39</title>
<path fill="none" stroke="midnightblue" d="M1739.11,-416.366C1699.72,-406.926 1644.64,-393.433 1587.37,-378.158"/>
<polygon fill="midnightblue" stroke="midnightblue" points="1587.98,-374.697 1577.41,-375.489 1586.17,-381.459 1587.98,-374.697"/>
</g>
<!-- Node3&#45;&gt;Node40 -->
<g id="edge66" class="edge"><title>Node3&#45;&gt;Node40</title>
<path fill="none" stroke="midnightblue" d="M1764.76,-414.973C1746.15,-405.602 1721.19,-393.034 1699.45,-382.086"/>
<polygon fill="midnightblue" stroke="midnightblue" points="1700.86,-378.879 1690.35,-377.507 1697.71,-385.131 1700.86,-378.879"/>
</g>
<!-- Node3&#45;&gt;Node41 -->
<g id="edge68" class="edge"><title>Node3&#45;&gt;Node41</title>
<path fill="none" stroke="midnightblue" d="M1738.83,-426.699C1574.19,-419.641 1062.56,-397.583 638.614,-378 515.789,-372.326 372.535,-365.341 290.514,-361.306"/>
<polygon fill="midnightblue" stroke="midnightblue" points="290.492,-357.801 280.332,-360.805 290.148,-364.793 290.492,-357.801"/>
</g>
<!-- Node44 -->
<g id="node44" class="node"><title>Node44</title>
<g id="a_node44"><a xlink:href="simulation__object_8h.html" target="_top" xlink:title="simulation_object.h">
<polygon fill="white" stroke="black" points="935.114,-347.5 935.114,-366.5 1036.11,-366.5 1036.11,-347.5 935.114,-347.5"/>
<text text-anchor="middle" x="985.614" y="-354.5" font-family="Helvetica,sans-Serif" font-size="10.00">simulation_object.h</text>
</a>
</g>
</g>
<!-- Node3&#45;&gt;Node44 -->
<g id="edge78" class="edge"><title>Node3&#45;&gt;Node44</title>
<path fill="none" stroke="midnightblue" d="M1739.04,-424.287C1594.77,-411.593 1198.72,-376.749 1046.41,-363.349"/>
<polygon fill="midnightblue" stroke="midnightblue" points="1046.57,-359.849 1036.3,-362.459 1045.95,-366.822 1046.57,-359.849"/>
</g>
<!-- Node45 -->
<g id="node45" class="node"><title>Node45</title>
<g id="a_node45"><a xlink:href="simulation__object__util_8h.html" target="_top" xlink:title="simulation_object_util.h">
<polygon fill="white" stroke="red" points="1590.11,-280.5 1590.11,-299.5 1709.11,-299.5 1709.11,-280.5 1590.11,-280.5"/>
<text text-anchor="middle" x="1649.61" y="-287.5" font-family="Helvetica,sans-Serif" font-size="10.00">simulation_object_util.h</text>
</a>
</g>
</g>
<!-- Node3&#45;&gt;Node45 -->
<g id="edge124" class="edge"><title>Node3&#45;&gt;Node45</title>
<path fill="none" stroke="midnightblue" d="M1805.42,-414.739C1821.32,-395.24 1844.21,-359.951 1825.61,-336 1812.33,-318.898 1762.67,-307.196 1719.47,-300.022"/>
<polygon fill="midnightblue" stroke="midnightblue" points="1719.94,-296.553 1709.51,-298.427 1718.84,-303.464 1719.94,-296.553"/>
</g>
<!-- Node9 -->
<g id="node9" class="node"><title>Node9</title>
<g id="a_node9"><a xlink:href="event_8h.html" target="_top" xlink:title="event/event.h">
<polygon fill="white" stroke="black" points="1297.61,-280.5 1297.61,-299.5 1373.61,-299.5 1373.61,-280.5 1297.61,-280.5"/>
<text text-anchor="middle" x="1335.61" y="-287.5" font-family="Helvetica,sans-Serif" font-size="10.00">event/event.h</text>
</a>
</g>
</g>
<!-- Node8&#45;&gt;Node9 -->
<g id="edge8" class="edge"><title>Node8&#45;&gt;Node9</title>
<path fill="none" stroke="midnightblue" d="M885.033,-347.484C897.024,-343.432 911.941,-338.859 925.614,-336 1054.48,-309.058 1209.72,-297.604 1286.98,-293.288"/>
<polygon fill="midnightblue" stroke="midnightblue" points="1287.56,-296.762 1297.36,-292.726 1287.18,-289.772 1287.56,-296.762"/>
</g>
<!-- Node18 -->
<g id="node18" class="node"><title>Node18</title>
<g id="a_node18"><a xlink:href="type__util_8h.html" target="_top" xlink:title="type_util.h">
<polygon fill="white" stroke="black" points="823.614,-224.5 823.614,-243.5 885.614,-243.5 885.614,-224.5 823.614,-224.5"/>
<text text-anchor="middle" x="854.614" y="-231.5" font-family="Helvetica,sans-Serif" font-size="10.00">type_util.h</text>
</a>
</g>
</g>
<!-- Node8&#45;&gt;Node18 -->
<g id="edge19" class="edge"><title>Node8&#45;&gt;Node18</title>
<path fill="none" stroke="midnightblue" d="M861.111,-347.298C859.986,-327.85 857.246,-280.49 855.708,-253.904"/>
<polygon fill="midnightblue" stroke="midnightblue" points="859.185,-253.404 855.113,-243.623 852.197,-253.809 859.185,-253.404"/>
</g>
<!-- Node26 -->
<g id="node26" class="node"><title>Node26</title>
<g id="a_node26"><a xlink:href="variant_8h.html" target="_top" xlink:title="variant.h">
<polygon fill="white" stroke="red" points="437.614,-168.5 437.614,-187.5 491.614,-187.5 491.614,-168.5 437.614,-168.5"/>
<text text-anchor="middle" x="464.614" y="-175.5" font-family="Helvetica,sans-Serif" font-size="10.00">variant.h</text>
</a>
</g>
</g>
<!-- Node8&#45;&gt;Node26 -->
<g id="edge28" class="edge"><title>Node8&#45;&gt;Node26</title>
<path fill="none" stroke="midnightblue" d="M806.449,-348.715C721.264,-337.105 565.224,-314.262 543.614,-300 505.535,-274.869 481.69,-224.381 471.073,-197.245"/>
<polygon fill="midnightblue" stroke="midnightblue" points="474.318,-195.931 467.542,-187.787 467.761,-198.379 474.318,-195.931"/>
</g>
<!-- Node10 -->
<g id="node10" class="node"><title>Node10</title>
<polygon fill="white" stroke="#bfbfbf" points="1345.61,-168.5 1345.61,-187.5 1385.61,-187.5 1385.61,-168.5 1345.61,-168.5"/>
<text text-anchor="middle" x="1365.61" y="-175.5" font-family="Helvetica,sans-Serif" font-size="10.00">limits</text>
</g>
<!-- Node9&#45;&gt;Node10 -->
<g id="edge9" class="edge"><title>Node9&#45;&gt;Node10</title>
<path fill="none" stroke="midnightblue" d="M1337.97,-280.368C1342.83,-262.537 1354.08,-221.295 1360.63,-197.272"/>
<polygon fill="midnightblue" stroke="midnightblue" points="1364.02,-198.16 1363.27,-187.591 1357.26,-196.318 1364.02,-198.16"/>
</g>
<!-- Node11 -->
<g id="node11" class="node"><title>Node11</title>
<polygon fill="white" stroke="#bfbfbf" points="941.614,-224.5 941.614,-243.5 985.614,-243.5 985.614,-224.5 941.614,-224.5"/>
<text text-anchor="middle" x="963.614" y="-231.5" font-family="Helvetica,sans-Serif" font-size="10.00">mutex</text>
</g>
<!-- Node9&#45;&gt;Node11 -->
<g id="edge10" class="edge"><title>Node9&#45;&gt;Node11</title>
<path fill="none" stroke="midnightblue" d="M1297.6,-285.309C1235.09,-278.928 1106.84,-264.518 999.614,-244 998.368,-243.762 997.101,-243.507 995.824,-243.239"/>
<polygon fill="midnightblue" stroke="midnightblue" points="996.524,-239.809 985.997,-241.007 994.973,-246.635 996.524,-239.809"/>
</g>
<!-- Node9&#45;&gt;Node12 -->
<g id="edge11" class="edge"><title>Node9&#45;&gt;Node12</title>
<path fill="none" stroke="midnightblue" d="M1321.96,-280.324C1308.7,-271.9 1288.35,-258.971 1272.77,-249.074"/>
<polygon fill="midnightblue" stroke="midnightblue" points="1274.55,-246.063 1264.24,-243.655 1270.8,-251.971 1274.55,-246.063"/>
</g>
<!-- Node12&#45;&gt;Node5 -->
<g id="edge15" class="edge"><title>Node12&#45;&gt;Node5</title>
<path fill="none" stroke="midnightblue" d="M1232.42,-224.422C1208.96,-212.22 1173.11,-188.997 1190.61,-168 1204.31,-151.568 1342.74,-133.764 1405.71,-126.441"/>
<polygon fill="midnightblue" stroke="midnightblue" points="1406.31,-129.895 1415.85,-125.277 1405.51,-122.941 1406.31,-129.895"/>
</g>
<!-- Node13 -->
<g id="node13" class="node"><title>Node13</title>
<polygon fill="white" stroke="#bfbfbf" points="1199.61,-168.5 1199.61,-187.5 1251.61,-187.5 1251.61,-168.5 1199.61,-168.5"/>
<text text-anchor="middle" x="1225.61" y="-175.5" font-family="Helvetica,sans-Serif" font-size="10.00">TError.h</text>
</g>
<!-- Node12&#45;&gt;Node13 -->
<g id="edge12" class="edge"><title>Node12&#45;&gt;Node13</title>
<path fill="none" stroke="midnightblue" d="M1246.49,-224.083C1243.1,-216.77 1238.2,-206.181 1234,-197.103"/>
<polygon fill="midnightblue" stroke="midnightblue" points="1237.04,-195.355 1229.67,-187.751 1230.69,-198.296 1237.04,-195.355"/>
</g>
<!-- Node14 -->
<g id="node14" class="node"><title>Node14</title>
<polygon fill="white" stroke="#bfbfbf" points="1746.11,-0.5 1746.11,-19.5 1789.11,-19.5 1789.11,-0.5 1746.11,-0.5"/>
<text text-anchor="middle" x="1767.61" y="-7.5" font-family="Helvetica,sans-Serif" font-size="10.00">cstdio</text>
</g>
<!-- Node12&#45;&gt;Node14 -->
<g id="edge13" class="edge"><title>Node12&#45;&gt;Node14</title>
<path fill="none" stroke="midnightblue" d="M1231.42,-227.809C1226.3,-226.495 1220.76,-225.135 1215.61,-224 1129.55,-205.015 1091.79,-239.977 1020.61,-188 991.288,-166.583 966.648,-139.283 990.614,-112 996.916,-104.826 1590.39,-32.4789 1735.75,-14.8552"/>
<polygon fill="midnightblue" stroke="midnightblue" points="1736.3,-18.3145 1745.81,-13.6368 1735.46,-11.3653 1736.3,-18.3145"/>
</g>
<!-- Node15 -->
<g id="node15" class="node"><title>Node15</title>
<polygon fill="white" stroke="#bfbfbf" points="1185.61,-112.5 1185.61,-131.5 1239.61,-131.5 1239.61,-112.5 1185.61,-112.5"/>
<text text-anchor="middle" x="1212.61" y="-119.5" font-family="Helvetica,sans-Serif" font-size="10.00">iostream</text>
</g>
<!-- Node12&#45;&gt;Node15 -->
<g id="edge14" class="edge"><title>Node12&#45;&gt;Node15</title>
<path fill="none" stroke="midnightblue" d="M1231.48,-227.511C1226.95,-226.287 1222.13,-225.044 1217.61,-224 1134.3,-204.736 1083.13,-253.879 1028.61,-188 1022.95,-181.152 1023.13,-174.992 1028.61,-168 1028.76,-167.816 1121.96,-145.086 1175.64,-132.006"/>
<polygon fill="midnightblue" stroke="midnightblue" points="1176.6,-135.373 1185.49,-129.605 1174.95,-128.572 1176.6,-135.373"/>
</g>
<!-- Node16 -->
<g id="node16" class="node"><title>Node16</title>
<g id="a_node16"><a xlink:href="string__util_8h.html" target="_top" xlink:title="string_util.h">
<polygon fill="white" stroke="black" points="1038.11,-168.5 1038.11,-187.5 1105.11,-187.5 1105.11,-168.5 1038.11,-168.5"/>
<text text-anchor="middle" x="1071.61" y="-175.5" font-family="Helvetica,sans-Serif" font-size="10.00">string_util.h</text>
</a>
</g>
</g>
<!-- Node12&#45;&gt;Node16 -->
<g id="edge16" class="edge"><title>Node12&#45;&gt;Node16</title>
<path fill="none" stroke="midnightblue" d="M1231.46,-227.221C1202.6,-218.517 1147.4,-201.863 1110.04,-190.593"/>
<polygon fill="midnightblue" stroke="midnightblue" points="1110.6,-187.105 1100.01,-187.568 1108.58,-193.807 1110.6,-187.105"/>
</g>
<!-- Node16&#45;&gt;Node5 -->
<g id="edge18" class="edge"><title>Node16&#45;&gt;Node5</title>
<path fill="none" stroke="midnightblue" d="M1105.15,-170.516C1110,-169.636 1114.93,-168.771 1119.61,-168 1224.21,-150.778 1348.89,-134.242 1405.68,-126.928"/>
<polygon fill="midnightblue" stroke="midnightblue" points="1406.32,-130.375 1415.8,-125.631 1405.43,-123.431 1406.32,-130.375"/>
</g>
<!-- Node17 -->
<g id="node17" class="node"><title>Node17</title>
<polygon fill="white" stroke="#bfbfbf" points="999.614,-112.5 999.614,-131.5 1051.61,-131.5 1051.61,-112.5 999.614,-112.5"/>
<text text-anchor="middle" x="1025.61" y="-119.5" font-family="Helvetica,sans-Serif" font-size="10.00">sstream</text>
</g>
<!-- Node16&#45;&gt;Node17 -->
<g id="edge17" class="edge"><title>Node16&#45;&gt;Node17</title>
<path fill="none" stroke="midnightblue" d="M1064.02,-168.083C1057.39,-160.298 1047.59,-148.801 1039.56,-139.367"/>
<polygon fill="midnightblue" stroke="midnightblue" points="1042.22,-137.094 1033.07,-131.751 1036.89,-141.633 1042.22,-137.094"/>
</g>
<!-- Node19 -->
<g id="node19" class="node"><title>Node19</title>
<polygon fill="white" stroke="#bfbfbf" points="658.614,-168.5 658.614,-187.5 720.614,-187.5 720.614,-168.5 658.614,-168.5"/>
<text text-anchor="middle" x="689.614" y="-175.5" font-family="Helvetica,sans-Serif" font-size="10.00">type_traits</text>
</g>
<!-- Node18&#45;&gt;Node19 -->
<g id="edge20" class="edge"><title>Node18&#45;&gt;Node19</title>
<path fill="none" stroke="midnightblue" d="M828.469,-224.444C800.591,-215.32 756.266,-200.813 725.214,-190.651"/>
<polygon fill="midnightblue" stroke="midnightblue" points="726.229,-187.3 715.637,-187.516 724.052,-193.953 726.229,-187.3"/>
</g>
<!-- Node20 -->
<g id="node20" class="node"><title>Node20</title>
<g id="a_node20"><a xlink:href="backend_8h.html" target="_top" xlink:title="backend.h">
<polygon fill="white" stroke="red" points="881.614,-168.5 881.614,-187.5 943.614,-187.5 943.614,-168.5 881.614,-168.5"/>
<text text-anchor="middle" x="912.614" y="-175.5" font-family="Helvetica,sans-Serif" font-size="10.00">backend.h</text>
</a>
</g>
</g>
<!-- Node18&#45;&gt;Node20 -->
<g id="edge21" class="edge"><title>Node18&#45;&gt;Node20</title>
<path fill="none" stroke="midnightblue" d="M863.933,-224.324C872.507,-216.341 885.426,-204.313 895.802,-194.653"/>
<polygon fill="midnightblue" stroke="midnightblue" points="898.192,-197.21 903.126,-187.834 893.422,-192.086 898.192,-197.21"/>
</g>
<!-- Node18&#45;&gt;Node25 -->
<g id="edge27" class="edge"><title>Node18&#45;&gt;Node25</title>
<path fill="none" stroke="midnightblue" d="M845.532,-224.083C837.443,-216.141 825.419,-204.335 815.704,-194.797"/>
<polygon fill="midnightblue" stroke="midnightblue" points="818.115,-192.26 808.527,-187.751 813.211,-197.254 818.115,-192.26"/>
</g>
<!-- Node20&#45;&gt;Node7 -->
<g id="edge24" class="edge"><title>Node20&#45;&gt;Node7</title>
<path fill="none" stroke="midnightblue" d="M943.82,-169.355C974.188,-161.487 1021.37,-148.125 1060.61,-132 1078.27,-124.747 1080.25,-117.203 1098.61,-112 1219.3,-77.8011 1613.36,-69.2322 1729.27,-67.4273"/>
<polygon fill="midnightblue" stroke="midnightblue" points="1729.35,-70.9266 1739.29,-67.2775 1729.24,-63.9274 1729.35,-70.9266"/>
</g>
<!-- Node21 -->
<g id="node21" class="node"><title>Node21</title>
<polygon fill="white" stroke="#bfbfbf" points="1108.11,-112.5 1108.11,-131.5 1167.11,-131.5 1167.11,-112.5 1108.11,-112.5"/>
<text text-anchor="middle" x="1137.61" y="-119.5" font-family="Helvetica,sans-Serif" font-size="10.00">exception</text>
</g>
<!-- Node20&#45;&gt;Node21 -->
<g id="edge22" class="edge"><title>Node20&#45;&gt;Node21</title>
<path fill="none" stroke="midnightblue" d="M943.9,-169.492C984.228,-159.813 1054.37,-142.978 1098.27,-132.442"/>
<polygon fill="midnightblue" stroke="midnightblue" points="1099.12,-135.838 1108.03,-130.101 1097.49,-129.032 1099.12,-135.838"/>
</g>
<!-- Node22 -->
<g id="node22" class="node"><title>Node22</title>
<polygon fill="white" stroke="#bfbfbf" points="1291.61,-112.5 1291.61,-131.5 1343.61,-131.5 1343.61,-112.5 1291.61,-112.5"/>
<text text-anchor="middle" x="1317.61" y="-119.5" font-family="Helvetica,sans-Serif" font-size="10.00">memory</text>
</g>
<!-- Node20&#45;&gt;Node22 -->
<g id="edge23" class="edge"><title>Node20&#45;&gt;Node22</title>
<path fill="none" stroke="midnightblue" d="M943.721,-172.852C1017.55,-163.008 1203.04,-138.276 1281.58,-127.804"/>
<polygon fill="midnightblue" stroke="midnightblue" points="1282.04,-131.274 1291.49,-126.483 1281.12,-124.335 1282.04,-131.274"/>
</g>
<!-- Node23 -->
<g id="node23" class="node"><title>Node23</title>
<g id="a_node23"><a xlink:href="root__util_8h.html" target="_top" xlink:title="root_util.h">
<polygon fill="white" stroke="red" points="824.114,-112.5 824.114,-131.5 883.114,-131.5 883.114,-112.5 824.114,-112.5"/>
<text text-anchor="middle" x="853.614" y="-119.5" font-family="Helvetica,sans-Serif" font-size="10.00">root_util.h</text>
</a>
</g>
</g>
<!-- Node20&#45;&gt;Node23 -->
<g id="edge25" class="edge"><title>Node20&#45;&gt;Node23</title>
<path fill="none" stroke="midnightblue" d="M903.135,-168.324C894.413,-160.341 881.271,-148.313 870.716,-138.653"/>
<polygon fill="midnightblue" stroke="midnightblue" points="873.006,-136.004 863.266,-131.834 868.28,-141.167 873.006,-136.004"/>
</g>
<!-- Node24 -->
<g id="node24" class="node"><title>Node24</title>
<polygon fill="white" stroke="#bfbfbf" points="1537.61,-0.5 1537.61,-19.5 1593.61,-19.5 1593.61,-0.5 1537.61,-0.5"/>
<text text-anchor="middle" x="1565.61" y="-7.5" font-family="Helvetica,sans-Serif" font-size="10.00">Rtypes.h</text>
</g>
<!-- Node23&#45;&gt;Node24 -->
<g id="edge26" class="edge"><title>Node23&#45;&gt;Node24</title>
<path fill="none" stroke="midnightblue" d="M883.302,-116.413C996.449,-98.9328 1400.65,-36.486 1527.35,-16.9118"/>
<polygon fill="midnightblue" stroke="midnightblue" points="1528.02,-20.3505 1537.36,-15.3646 1526.95,-13.4325 1528.02,-20.3505"/>
</g>
<!-- Node26&#45;&gt;Node15 -->
<g id="edge30" class="edge"><title>Node26&#45;&gt;Node15</title>
<path fill="none" stroke="midnightblue" d="M491.851,-170.375C496.424,-169.449 501.137,-168.608 505.614,-168 797.794,-128.349 878.774,-174.37 1175.07,-131.741"/>
<polygon fill="midnightblue" stroke="midnightblue" points="1175.86,-135.163 1185.25,-130.254 1174.85,-128.237 1175.86,-135.163"/>
</g>
<!-- Node26&#45;&gt;Node23 -->
<g id="edge31" class="edge"><title>Node26&#45;&gt;Node23</title>
<path fill="none" stroke="midnightblue" d="M491.896,-170.663C496.463,-169.702 501.163,-168.775 505.614,-168 616.476,-148.703 748.534,-133.825 813.481,-127.035"/>
<polygon fill="midnightblue" stroke="midnightblue" points="814.103,-130.49 823.689,-125.977 813.382,-123.527 814.103,-130.49"/>
</g>
<!-- Node26&#45;&gt;Node24 -->
<g id="edge29" class="edge"><title>Node26&#45;&gt;Node24</title>
<path fill="none" stroke="midnightblue" d="M491.932,-170.857C496.495,-169.873 501.184,-168.887 505.614,-168 642.466,-140.588 677.156,-136.189 814.614,-112 960.263,-86.3692 996.124,-76.2767 1142.61,-56 1283.98,-36.4323 1452.96,-20.7645 1527.31,-14.259"/>
<polygon fill="midnightblue" stroke="midnightblue" points="1527.92,-17.7193 1537.57,-13.3662 1527.31,-10.7456 1527.92,-17.7193"/>
</g>
<!-- Node27&#45;&gt;Node12 -->
<g id="edge36" class="edge"><title>Node27&#45;&gt;Node12</title>
<path fill="none" stroke="midnightblue" d="M1884.91,-285.744C1760.49,-275.79 1387.18,-245.925 1279.8,-237.335"/>
<polygon fill="midnightblue" stroke="midnightblue" points="1279.95,-233.836 1269.7,-236.527 1279.39,-240.813 1279.95,-233.836"/>
</g>
<!-- Node27&#45;&gt;Node20 -->
<g id="edge35" class="edge"><title>Node27&#45;&gt;Node20</title>
<path fill="none" stroke="midnightblue" d="M1884.66,-287.264C1744.15,-281.183 1286.68,-260.335 1222.61,-244 1202.19,-238.793 1199.76,-230.19 1179.61,-224 1084.07,-194.647 1055.97,-205.804 957.614,-188 956.517,-187.801 955.405,-187.597 954.283,-187.39"/>
<polygon fill="midnightblue" stroke="midnightblue" points="954.536,-183.875 944.057,-185.441 953.226,-190.751 954.536,-183.875"/>
</g>
<!-- Node27&#45;&gt;Node25 -->
<g id="edge48" class="edge"><title>Node27&#45;&gt;Node25</title>
<path fill="none" stroke="midnightblue" d="M1885,-287.137C1750.18,-280.859 1318.18,-259.981 1179.61,-244 1112.8,-236.294 916.689,-200.626 835.473,-185.65"/>
<polygon fill="midnightblue" stroke="midnightblue" points="835.72,-182.136 825.25,-183.762 834.449,-189.02 835.72,-182.136"/>
</g>
<!-- Node28 -->
<g id="node28" class="node"><title>Node28</title>
<polygon fill="white" stroke="#bfbfbf" points="2093.61,-112.5 2093.61,-131.5 2149.61,-131.5 2149.61,-112.5 2093.61,-112.5"/>
<text text-anchor="middle" x="2121.61" y="-119.5" font-family="Helvetica,sans-Serif" font-size="10.00">algorithm</text>
</g>
<!-- Node27&#45;&gt;Node28 -->
<g id="edge33" class="edge"><title>Node27&#45;&gt;Node28</title>
<path fill="none" stroke="midnightblue" d="M1941.42,-280.43C1956.46,-271.982 1979.42,-258.296 1997.61,-244 2040.57,-210.258 2084.97,-163.503 2107.16,-139.174"/>
<polygon fill="midnightblue" stroke="midnightblue" points="2109.93,-141.326 2114.04,-131.561 2104.74,-136.632 2109.93,-141.326"/>
</g>
<!-- Node29 -->
<g id="node29" class="node"><title>Node29</title>
<polygon fill="white" stroke="#bfbfbf" points="2352.61,-56.5 2352.61,-75.5 2396.61,-75.5 2396.61,-56.5 2352.61,-56.5"/>
<text text-anchor="middle" x="2374.61" y="-63.5" font-family="Helvetica,sans-Serif" font-size="10.00">cmath</text>
</g>
<!-- Node27&#45;&gt;Node29 -->
<g id="edge34" class="edge"><title>Node27&#45;&gt;Node29</title>
<path fill="none" stroke="midnightblue" d="M1963.5,-280.485C2037.21,-262.56 2202.74,-215.546 2317.61,-132 2335.94,-118.675 2352.47,-98.4671 2362.95,-84.1247"/>
<polygon fill="midnightblue" stroke="midnightblue" points="2366.01,-85.8634 2368.92,-75.6779 2360.29,-81.8215 2366.01,-85.8634"/>
</g>
<!-- Node27&#45;&gt;Node30 -->
<g id="edge37" class="edge"><title>Node27&#45;&gt;Node30</title>
<path fill="none" stroke="midnightblue" d="M1944.44,-280.46C1964.2,-271.473 1996.15,-256.871 2023.61,-244 2106.34,-205.226 2203.73,-158.281 2249.83,-135.978"/>
<polygon fill="midnightblue" stroke="midnightblue" points="2251.39,-139.111 2258.87,-131.604 2248.34,-132.811 2251.39,-139.111"/>
</g>
<!-- Node27&#45;&gt;Node33 -->
<g id="edge47" class="edge"><title>Node27&#45;&gt;Node33</title>
<path fill="none" stroke="midnightblue" d="M1929.9,-280.354C1938.14,-263.225 1956.08,-223.556 1963.61,-188 1971.15,-152.443 1971.7,-109.781 1971.27,-85.7903"/>
<polygon fill="midnightblue" stroke="midnightblue" points="1974.76,-85.5303 1971,-75.626 1967.76,-85.7148 1974.76,-85.5303"/>
</g>
<!-- Node35 -->
<g id="node35" class="node"><title>Node35</title>
<g id="a_node35"><a xlink:href="simulation_8h.html" target="_top" xlink:title="simulation.h">
<polygon fill="white" stroke="black" points="1670.11,-168.5 1670.11,-187.5 1739.11,-187.5 1739.11,-168.5 1670.11,-168.5"/>
<text text-anchor="middle" x="1704.61" y="-175.5" font-family="Helvetica,sans-Serif" font-size="10.00">simulation.h</text>
</a>
</g>
</g>
<!-- Node27&#45;&gt;Node35 -->
<g id="edge49" class="edge"><title>Node27&#45;&gt;Node35</title>
<path fill="none" stroke="midnightblue" d="M1910.94,-280.349C1888.85,-267.454 1845.59,-242.706 1807.61,-224 1783.59,-212.164 1755.71,-200.083 1735.03,-191.423"/>
<polygon fill="midnightblue" stroke="midnightblue" points="1736.36,-188.187 1725.78,-187.581 1733.67,-194.651 1736.36,-188.187"/>
</g>
<!-- Node30&#45;&gt;Node7 -->
<g id="edge41" class="edge"><title>Node30&#45;&gt;Node7</title>
<path fill="none" stroke="midnightblue" d="M2243.92,-117.529C2228.12,-115.854 2208.88,-113.818 2191.61,-112 2043.22,-96.3788 1866,-77.8828 1794.2,-70.3967"/>
<polygon fill="midnightblue" stroke="midnightblue" points="1794.31,-66.8887 1784,-69.3327 1793.58,-73.851 1794.31,-66.8887"/>
</g>
<!-- Node30&#45;&gt;Node29 -->
<g id="edge39" class="edge"><title>Node30&#45;&gt;Node29</title>
<path fill="none" stroke="midnightblue" d="M2292.36,-112.324C2307.93,-103.743 2331.99,-90.486 2350.07,-80.5224"/>
<polygon fill="midnightblue" stroke="midnightblue" points="2351.84,-83.546 2358.91,-75.6545 2348.46,-77.4152 2351.84,-83.546"/>
</g>
<!-- Node31 -->
<g id="node31" class="node"><title>Node31</title>
<polygon fill="white" stroke="#bfbfbf" points="2215.61,-0.5 2215.61,-19.5 2253.61,-19.5 2253.61,-0.5 2215.61,-0.5"/>
<text text-anchor="middle" x="2234.61" y="-7.5" font-family="Helvetica,sans-Serif" font-size="10.00">array</text>
</g>
<!-- Node30&#45;&gt;Node31 -->
<g id="edge38" class="edge"><title>Node30&#45;&gt;Node31</title>
<path fill="none" stroke="midnightblue" d="M2273.32,-112.368C2266.48,-94.4563 2250.62,-52.9233 2241.47,-28.9482"/>
<polygon fill="midnightblue" stroke="midnightblue" points="2244.73,-27.6851 2237.89,-19.5914 2238.19,-30.1821 2244.73,-27.6851"/>
</g>
<!-- Node32 -->
<g id="node32" class="node"><title>Node32</title>
<polygon fill="white" stroke="#bfbfbf" points="2282.11,-56.5 2282.11,-75.5 2333.11,-75.5 2333.11,-56.5 2282.11,-56.5"/>
<text text-anchor="middle" x="2307.61" y="-63.5" font-family="Helvetica,sans-Serif" font-size="10.00">numeric</text>
</g>
<!-- Node30&#45;&gt;Node32 -->
<g id="edge40" class="edge"><title>Node30&#45;&gt;Node32</title>
<path fill="none" stroke="midnightblue" d="M2281.73,-112.083C2286.02,-104.613 2292.27,-93.7244 2297.56,-84.5199"/>
<polygon fill="midnightblue" stroke="midnightblue" points="2300.65,-86.1662 2302.59,-75.7511 2294.58,-82.6811 2300.65,-86.1662"/>
</g>
<!-- Node30&#45;&gt;Node33 -->
<g id="edge42" class="edge"><title>Node30&#45;&gt;Node33</title>
<path fill="none" stroke="midnightblue" d="M2243.87,-115.221C2187.03,-105.19 2070.36,-84.6029 2009.5,-73.8627"/>
<polygon fill="midnightblue" stroke="midnightblue" points="2009.98,-70.3927 1999.52,-72.1015 2008.76,-77.2861 2009.98,-70.3927"/>
</g>
<!-- Node33&#45;&gt;Node14 -->
<g id="edge44" class="edge"><title>Node33&#45;&gt;Node14</title>
<path fill="none" stroke="midnightblue" d="M1941.96,-57.3776C1904.24,-47.3431 1838.14,-29.7612 1799.07,-19.3681"/>
<polygon fill="midnightblue" stroke="midnightblue" points="1799.85,-15.9529 1789.28,-16.7645 1798.05,-22.7177 1799.85,-15.9529"/>
</g>
<!-- Node33&#45;&gt;Node24 -->
<g id="edge45" class="edge"><title>Node33&#45;&gt;Node24</title>
<path fill="none" stroke="midnightblue" d="M1942,-58.6661C1937.21,-57.7051 1932.28,-56.7767 1927.61,-56 1810.2,-36.4495 1670.07,-21.3508 1603.87,-14.7047"/>
<polygon fill="midnightblue" stroke="midnightblue" points="1604.19,-11.2195 1593.89,-13.7113 1603.5,-18.1851 1604.19,-11.2195"/>
</g>
<!-- Node33&#45;&gt;Node31 -->
<g id="edge43" class="edge"><title>Node33&#45;&gt;Node31</title>
<path fill="none" stroke="midnightblue" d="M1999.29,-58.9752C2004.07,-57.977 2008.98,-56.9561 2013.61,-56 2082.37,-41.8044 2163.23,-25.4185 2205.51,-16.8745"/>
<polygon fill="midnightblue" stroke="midnightblue" points="2206.28,-20.2882 2215.39,-14.8773 2204.9,-13.4268 2206.28,-20.2882"/>
</g>
<!-- Node34 -->
<g id="node34" class="node"><title>Node34</title>
<polygon fill="white" stroke="#bfbfbf" points="1934.11,-0.5 1934.11,-19.5 2007.11,-19.5 2007.11,-0.5 1934.11,-0.5"/>
<text text-anchor="middle" x="1970.61" y="-7.5" font-family="Helvetica,sans-Serif" font-size="10.00">TRandom3.h</text>
</g>
<!-- Node33&#45;&gt;Node34 -->
<g id="edge46" class="edge"><title>Node33&#45;&gt;Node34</title>
<path fill="none" stroke="midnightblue" d="M1970.61,-56.083C1970.61,-49.0059 1970.61,-38.8611 1970.61,-29.9865"/>
<polygon fill="midnightblue" stroke="midnightblue" points="1974.11,-29.751 1970.61,-19.7511 1967.11,-29.7511 1974.11,-29.751"/>
</g>
<!-- Node35&#45;&gt;Node5 -->
<g id="edge51" class="edge"><title>Node35&#45;&gt;Node5</title>
<path fill="none" stroke="midnightblue" d="M1669.85,-169.996C1617.1,-159.366 1517.65,-139.327 1467.37,-129.197"/>
<polygon fill="midnightblue" stroke="midnightblue" points="1467.92,-125.737 1457.42,-127.193 1466.54,-132.599 1467.92,-125.737"/>
</g>
<!-- Node35&#45;&gt;Node7 -->
<g id="edge52" class="edge"><title>Node35&#45;&gt;Node7</title>
<path fill="none" stroke="midnightblue" d="M1709.09,-168.368C1718.41,-150.376 1740.08,-108.55 1752.48,-84.6267"/>
<polygon fill="midnightblue" stroke="midnightblue" points="1755.67,-86.0805 1757.16,-75.5914 1749.45,-82.8599 1755.67,-86.0805"/>
</g>
<!-- Node35&#45;&gt;Node24 -->
<g id="edge50" class="edge"><title>Node35&#45;&gt;Node24</title>
<path fill="none" stroke="midnightblue" d="M1697.14,-168.075C1674.79,-141.38 1608.21,-61.865 1579.28,-27.3218"/>
<polygon fill="midnightblue" stroke="midnightblue" points="1581.89,-24.9882 1572.79,-19.5681 1576.53,-29.4822 1581.89,-24.9882"/>
</g>
<!-- Node35&#45;&gt;Node33 -->
<g id="edge53" class="edge"><title>Node35&#45;&gt;Node33</title>
<path fill="none" stroke="midnightblue" d="M1725.49,-168.368C1772.3,-149.01 1885.82,-102.065 1940.37,-79.5074"/>
<polygon fill="midnightblue" stroke="midnightblue" points="1941.94,-82.6473 1949.84,-75.5914 1939.26,-76.1786 1941.94,-82.6473"/>
</g>
<!-- Node36&#45;&gt;Node9 -->
<g id="edge58" class="edge"><title>Node36&#45;&gt;Node9</title>
<path fill="none" stroke="midnightblue" d="M2334,-344.122C2318.84,-340.985 2302.12,-337.938 2286.61,-336 2196.82,-324.78 1564.7,-299.825 1383.84,-292.845"/>
<polygon fill="midnightblue" stroke="midnightblue" points="1383.96,-289.347 1373.83,-292.459 1383.69,-296.342 1383.96,-289.347"/>
</g>
<!-- Node36&#45;&gt;Node31 -->
<g id="edge57" class="edge"><title>Node36&#45;&gt;Node31</title>
<path fill="none" stroke="midnightblue" d="M2430.43,-336.387C2468.21,-316.781 2515.61,-282.679 2515.61,-235 2515.61,-235 2515.61,-235 2515.61,-121 2515.61,-85.3501 2498.68,-75.1588 2468.61,-56 2434.93,-34.5317 2318.89,-19.8445 2263.93,-13.9251"/>
<polygon fill="midnightblue" stroke="midnightblue" points="2264.11,-10.4243 2253.79,-12.8586 2263.37,-17.3858 2264.11,-10.4243"/>
</g>
<!-- Node37&#45;&gt;Node9 -->
<g id="edge61" class="edge"><title>Node37&#45;&gt;Node9</title>
<path fill="none" stroke="midnightblue" d="M2143.41,-351.007C1973.8,-338.408 1531.46,-305.549 1384.14,-294.605"/>
<polygon fill="midnightblue" stroke="midnightblue" points="1384.28,-291.106 1374.05,-293.855 1383.77,-298.087 1384.28,-291.106"/>
</g>
<!-- Node37&#45;&gt;Node31 -->
<g id="edge60" class="edge"><title>Node37&#45;&gt;Node31</title>
<path fill="none" stroke="midnightblue" d="M2277.64,-342.322C2356.74,-321.812 2477.61,-274.796 2477.61,-179 2477.61,-179 2477.61,-179 2477.61,-121 2477.61,-28.1946 2328.7,-13.2805 2264.02,-11.1796"/>
<polygon fill="midnightblue" stroke="midnightblue" points="2263.76,-7.67258 2253.68,-10.931 2263.59,-14.6706 2263.76,-7.67258"/>
</g>
<!-- Node38&#45;&gt;Node9 -->
<g id="edge63" class="edge"><title>Node38&#45;&gt;Node9</title>
<path fill="none" stroke="midnightblue" d="M1367.11,-336.498C1360.81,-327.395 1353.38,-316.662 1347.32,-307.908"/>
<polygon fill="midnightblue" stroke="midnightblue" points="1350.17,-305.882 1341.6,-299.652 1344.42,-309.867 1350.17,-305.882"/>
</g>
<!-- Node39&#45;&gt;Node9 -->
<g id="edge65" class="edge"><title>Node39&#45;&gt;Node9</title>
<path fill="none" stroke="midnightblue" d="M1463.01,-336.498C1432.56,-325.622 1395.59,-312.421 1369.34,-303.045"/>
<polygon fill="midnightblue" stroke="midnightblue" points="1370.44,-299.72 1359.84,-299.652 1368.08,-306.312 1370.44,-299.72"/>
</g>
<!-- Node40&#45;&gt;Node9 -->
<g id="edge67" class="edge"><title>Node40&#45;&gt;Node9</title>
<path fill="none" stroke="midnightblue" d="M1595.57,-338.532C1592.21,-337.636 1588.87,-336.784 1585.61,-336 1516.22,-319.3 1434.64,-305.729 1384.03,-298.006"/>
<polygon fill="midnightblue" stroke="midnightblue" points="1384.43,-294.528 1374.02,-296.494 1383.39,-301.449 1384.43,-294.528"/>
</g>
<!-- Node41&#45;&gt;Node4 -->
<g id="edge71" class="edge"><title>Node41&#45;&gt;Node4</title>
<path fill="none" stroke="midnightblue" d="M238.974,-347.466C268.758,-331.346 336.868,-296.558 398.614,-280 533.435,-243.845 701.984,-236.736 765.153,-235.34"/>
<polygon fill="midnightblue" stroke="midnightblue" points="765.43,-238.836 775.361,-235.146 765.297,-231.837 765.43,-238.836"/>
</g>
<!-- Node41&#45;&gt;Node5 -->
<g id="edge72" class="edge"><title>Node41&#45;&gt;Node5</title>
<path fill="none" stroke="midnightblue" d="M231.94,-347.299C255.221,-323.515 323.93,-256.999 394.614,-224 588.404,-133.528 1139.41,-148.867 1352.61,-132 1370.2,-130.609 1389.79,-128.539 1405.64,-126.735"/>
<polygon fill="midnightblue" stroke="midnightblue" points="1406.4,-130.169 1415.93,-125.54 1405.59,-123.216 1406.4,-130.169"/>
</g>
<!-- Node41&#45;&gt;Node6 -->
<g id="edge73" class="edge"><title>Node41&#45;&gt;Node6</title>
<path fill="none" stroke="midnightblue" d="M253.625,-347.369C293.923,-335.778 365.604,-315.162 410.208,-302.334"/>
<polygon fill="midnightblue" stroke="midnightblue" points="411.196,-305.691 419.839,-299.564 409.261,-298.964 411.196,-305.691"/>
</g>
<!-- Node41&#45;&gt;Node7 -->
<g id="edge74" class="edge"><title>Node41&#45;&gt;Node7</title>
<path fill="none" stroke="midnightblue" d="M224.089,-347.495C225.148,-327.746 227.614,-277.247 227.614,-235 227.614,-235 227.614,-235 227.614,-177 227.614,-137.077 253.157,-128.271 289.614,-112 357.564,-81.6729 1519.49,-69.2877 1729.28,-67.2939"/>
<polygon fill="midnightblue" stroke="midnightblue" points="1729.39,-70.7932 1739.35,-67.1993 1729.32,-63.7935 1729.39,-70.7932"/>
</g>
<!-- Node41&#45;&gt;Node24 -->
<g id="edge69" class="edge"><title>Node41&#45;&gt;Node24</title>
<path fill="none" stroke="midnightblue" d="M166.937,-354.941C121.333,-351.05 58.6267,-338.375 19.6142,-300 -1.8427,-278.894 0.614232,-265.098 0.614232,-235 0.614232,-235 0.614232,-235 0.614232,-121 0.614232,-41.9923 1286.58,-15.8348 1527.11,-11.6333"/>
<polygon fill="midnightblue" stroke="midnightblue" points="1527.51,-15.1269 1537.45,-11.455 1527.39,-8.12796 1527.51,-15.1269"/>
</g>
<!-- Node42 -->
<g id="node42" class="node"><title>Node42</title>
<polygon fill="white" stroke="#bfbfbf" points="28.6142,-280.5 28.6142,-299.5 84.6142,-299.5 84.6142,-280.5 28.6142,-280.5"/>
<text text-anchor="middle" x="56.6142" y="-287.5" font-family="Helvetica,sans-Serif" font-size="10.00">cinttypes</text>
</g>
<!-- Node41&#45;&gt;Node42 -->
<g id="edge70" class="edge"><title>Node41&#45;&gt;Node42</title>
<path fill="none" stroke="midnightblue" d="M201.438,-347.369C172.411,-336.071 121.349,-316.196 88.2629,-303.318"/>
<polygon fill="midnightblue" stroke="midnightblue" points="89.2048,-299.929 78.6163,-299.564 86.6658,-306.453 89.2048,-299.929"/>
</g>
<!-- Node43 -->
<g id="node43" class="node"><title>Node43</title>
<polygon fill="white" stroke="#bfbfbf" points="102.114,-280.5 102.114,-299.5 199.114,-299.5 199.114,-280.5 102.114,-280.5"/>
<text text-anchor="middle" x="150.614" y="-287.5" font-family="Helvetica,sans-Serif" font-size="10.00">cpptoml/cpptoml.h</text>
</g>
<!-- Node41&#45;&gt;Node43 -->
<g id="edge75" class="edge"><title>Node41&#45;&gt;Node43</title>
<path fill="none" stroke="midnightblue" d="M213.769,-347.234C202.057,-336.805 182.295,-319.209 167.992,-306.473"/>
<polygon fill="midnightblue" stroke="midnightblue" points="170.099,-303.663 160.303,-299.627 165.444,-308.891 170.099,-303.663"/>
</g>
<!-- Node44&#45;&gt;Node4 -->
<g id="edge81" class="edge"><title>Node44&#45;&gt;Node4</title>
<path fill="none" stroke="midnightblue" d="M971.902,-347.492C938.766,-326.93 854.07,-274.375 813.264,-249.054"/>
<polygon fill="midnightblue" stroke="midnightblue" points="814.915,-245.96 804.572,-243.661 811.224,-251.908 814.915,-245.96"/>
</g>
<!-- Node44&#45;&gt;Node5 -->
<g id="edge83" class="edge"><title>Node44&#45;&gt;Node5</title>
<path fill="none" stroke="midnightblue" d="M976.645,-347.361C954.326,-324.834 900.341,-263.324 932.614,-224 984.648,-160.598 1033.93,-207.435 1113.61,-188 1144.63,-180.434 1151.52,-175.24 1182.61,-168 1262.5,-149.402 1358.09,-134.383 1406.02,-127.34"/>
<polygon fill="midnightblue" stroke="midnightblue" points="1406.66,-130.784 1416.05,-125.881 1405.65,-123.857 1406.66,-130.784"/>
</g>
<!-- Node44&#45;&gt;Node6 -->
<g id="edge85" class="edge"><title>Node44&#45;&gt;Node6</title>
<path fill="none" stroke="midnightblue" d="M964.001,-347.468C952.729,-343.36 938.614,-338.742 925.614,-336 758.755,-300.809 713.38,-316.127 543.614,-300 529.958,-298.703 515.188,-297.292 501.489,-295.981"/>
<polygon fill="midnightblue" stroke="midnightblue" points="501.548,-292.47 491.26,-295.001 500.88,-299.438 501.548,-292.47"/>
</g>
<!-- Node44&#45;&gt;Node7 -->
<g id="edge86" class="edge"><title>Node44&#45;&gt;Node7</title>
<path fill="none" stroke="midnightblue" d="M1036.26,-349.238C1069.57,-344.973 1114.13,-339.608 1153.61,-336 1278.68,-324.573 1603.18,-351.734 1717.61,-300 1749.69,-285.501 1759.57,-276.273 1773.61,-244 1797.04,-190.184 1787.59,-169.839 1777.61,-112 1776.05,-102.91 1772.82,-93.2219 1769.67,-85.1726"/>
<polygon fill="midnightblue" stroke="midnightblue" points="1772.81,-83.6018 1765.73,-75.7229 1766.35,-86.2993 1772.81,-83.6018"/>
</g>
<!-- Node44&#45;&gt;Node9 -->
<g id="edge89" class="edge"><title>Node44&#45;&gt;Node9</title>
<path fill="none" stroke="midnightblue" d="M1028.94,-347.471C1047.33,-343.881 1069.01,-339.689 1088.61,-336 1157.74,-322.992 1237.87,-308.501 1287.66,-299.567"/>
<polygon fill="midnightblue" stroke="midnightblue" points="1288.28,-303.011 1297.51,-297.801 1287.05,-296.121 1288.28,-303.011"/>
</g>
<!-- Node44&#45;&gt;Node11 -->
<g id="edge80" class="edge"><title>Node44&#45;&gt;Node11</title>
<path fill="none" stroke="midnightblue" d="M984.032,-347.298C980.48,-327.763 971.808,-280.065 966.986,-253.547"/>
<polygon fill="midnightblue" stroke="midnightblue" points="970.415,-252.836 965.182,-243.623 963.527,-254.088 970.415,-252.836"/>
</g>
<!-- Node44&#45;&gt;Node12 -->
<g id="edge87" class="edge"><title>Node44&#45;&gt;Node12</title>
<path fill="none" stroke="midnightblue" d="M1004.25,-347.492C1049.94,-326.627 1167.79,-272.819 1222.25,-247.953"/>
<polygon fill="midnightblue" stroke="midnightblue" points="1224,-250.998 1231.65,-243.661 1221.1,-244.631 1224,-250.998"/>
</g>
<!-- Node44&#45;&gt;Node17 -->
<g id="edge82" class="edge"><title>Node44&#45;&gt;Node17</title>
<path fill="none" stroke="midnightblue" d="M961.529,-347.453C950.629,-343.72 937.541,-339.422 925.614,-336 860.129,-317.211 837.047,-331.453 776.614,-300 704.399,-262.414 595.576,-228.891 649.614,-168 660.854,-155.335 897.607,-133.903 989.552,-126.024"/>
<polygon fill="midnightblue" stroke="midnightblue" points="989.849,-129.511 999.516,-125.174 989.255,-122.536 989.849,-129.511"/>
</g>
<!-- Node44&#45;&gt;Node18 -->
<g id="edge123" class="edge"><title>Node44&#45;&gt;Node18</title>
<path fill="none" stroke="midnightblue" d="M975.892,-347.332C963.636,-336.38 941.952,-316.915 923.614,-300 905.615,-283.396 885.228,-264.135 871.311,-250.914"/>
<polygon fill="midnightblue" stroke="midnightblue" points="873.589,-248.25 863.931,-243.894 868.764,-253.322 873.589,-248.25"/>
</g>
<!-- Node44&#45;&gt;Node19 -->
<g id="edge84" class="edge"><title>Node44&#45;&gt;Node19</title>
<path fill="none" stroke="midnightblue" d="M960.56,-347.475C949.821,-343.866 937.125,-339.659 925.614,-336 872.954,-319.262 853.779,-328.787 806.614,-300 760.875,-272.083 720.629,-222.074 701.476,-195.947"/>
<polygon fill="midnightblue" stroke="midnightblue" points="704.284,-193.857 695.607,-187.778 698.599,-197.941 704.284,-193.857"/>
</g>
<!-- Node44&#45;&gt;Node20 -->
<g id="edge88" class="edge"><title>Node44&#45;&gt;Node20</title>
<path fill="none" stroke="midnightblue" d="M961.409,-347.446C908.941,-328.344 787.746,-280.987 766.614,-244 762.205,-236.282 761.335,-231.151 766.614,-224 779.195,-206.958 832.913,-193.664 871.537,-186.075"/>
<polygon fill="midnightblue" stroke="midnightblue" points="872.322,-189.489 881.49,-184.179 871.012,-182.612 872.322,-189.489"/>
</g>
<!-- Node44&#45;&gt;Node23 -->
<g id="edge90" class="edge"><title>Node44&#45;&gt;Node23</title>
<path fill="none" stroke="midnightblue" d="M962.472,-347.459C951.421,-343.595 937.945,-339.189 925.614,-336 797.57,-302.885 715.842,-354.135 642.614,-244 623.782,-215.676 612.107,-194.351 633.614,-168 644.945,-154.117 753.483,-136.963 813.752,-128.399"/>
<polygon fill="midnightblue" stroke="midnightblue" points="814.284,-131.858 823.7,-127.001 813.31,-124.926 814.284,-131.858"/>
</g>
<!-- Node44&#45;&gt;Node28 -->
<g id="edge79" class="edge"><title>Node44&#45;&gt;Node28</title>
<path fill="none" stroke="midnightblue" d="M1036.42,-350.661C1080.37,-346.201 1145.62,-339.953 1202.61,-336 1288.28,-330.058 1896.3,-335.233 1974.61,-300 2046.87,-267.491 2095.41,-179.1 2113.6,-140.939"/>
<polygon fill="midnightblue" stroke="midnightblue" points="2116.9,-142.141 2117.92,-131.596 2110.55,-139.202 2116.9,-142.141"/>
</g>
<!-- Node44&#45;&gt;Node45 -->
<g id="edge91" class="edge"><title>Node44&#45;&gt;Node45</title>
<path fill="none" stroke="midnightblue" d="M1036.43,-348.102C1063.22,-344.114 1096.64,-339.412 1126.61,-336 1288.57,-317.561 1479.51,-302.921 1579.88,-295.773"/>
<polygon fill="midnightblue" stroke="midnightblue" points="1580.17,-299.261 1589.9,-295.063 1579.68,-292.279 1580.17,-299.261"/>
</g>
<!-- Node45&#45;&gt;Node4 -->
<g id="edge97" class="edge"><title>Node45&#45;&gt;Node4</title>
<path fill="none" stroke="midnightblue" d="M1589.77,-285.307C1562.3,-283.639 1529.31,-281.671 1499.61,-280 1198.5,-263.054 1114.85,-305.326 815.471,-243.484"/>
<polygon fill="midnightblue" stroke="midnightblue" points="816.145,-240.05 805.641,-241.433 814.715,-246.902 816.145,-240.05"/>
</g>
<!-- Node45&#45;&gt;Node5 -->
<g id="edge98" class="edge"><title>Node45&#45;&gt;Node5</title>
<path fill="none" stroke="midnightblue" d="M1589.94,-280.449C1562.29,-274.079 1530.38,-263.043 1506.61,-244 1472.49,-216.655 1451.73,-167.864 1442.42,-141.36"/>
<polygon fill="midnightblue" stroke="midnightblue" points="1445.71,-140.163 1439.22,-131.789 1439.07,-142.383 1445.71,-140.163"/>
</g>
<!-- Node45&#45;&gt;Node7 -->
<g id="edge100" class="edge"><title>Node45&#45;&gt;Node7</title>
<path fill="none" stroke="midnightblue" d="M1656.65,-280.268C1667.1,-267.481 1687.52,-243.11 1706.61,-224 1723.76,-206.847 1736.36,-209.479 1747.61,-188 1764.82,-155.175 1765.03,-110.589 1763.45,-85.7257"/>
<polygon fill="midnightblue" stroke="midnightblue" points="1766.92,-85.2078 1762.62,-75.5222 1759.94,-85.7715 1766.92,-85.2078"/>
</g>
<!-- Node45&#45;&gt;Node10 -->
<g id="edge95" class="edge"><title>Node45&#45;&gt;Node10</title>
<path fill="none" stroke="midnightblue" d="M1592.27,-280.492C1538.48,-271.877 1462.42,-257.879 1435.61,-244 1412.72,-232.143 1391.81,-210.711 1378.92,-195.709"/>
<polygon fill="midnightblue" stroke="midnightblue" points="1381.39,-193.199 1372.31,-187.74 1376,-197.67 1381.39,-193.199"/>
</g>
<!-- Node45&#45;&gt;Node18 -->
<g id="edge122" class="edge"><title>Node45&#45;&gt;Node18</title>
<path fill="none" stroke="midnightblue" d="M1589.86,-285.335C1423.52,-275.122 965.109,-246.892 932.614,-244 920.642,-242.934 907.664,-241.535 895.794,-240.159"/>
<polygon fill="midnightblue" stroke="midnightblue" points="896.042,-236.664 885.7,-238.964 895.219,-243.615 896.042,-236.664"/>
</g>
<!-- Node45&#45;&gt;Node19 -->
<g id="edge99" class="edge"><title>Node45&#45;&gt;Node19</title>
<path fill="none" stroke="midnightblue" d="M1590.1,-285.554C1463.99,-278.054 1173.45,-259.662 1075.61,-244 1038.57,-238.07 1030.43,-231.199 993.614,-224 900.257,-205.746 789.48,-191.09 730.833,-183.876"/>
<polygon fill="midnightblue" stroke="midnightblue" points="731.198,-180.394 720.848,-182.657 730.35,-187.343 731.198,-180.394"/>
</g>
<!-- Node45&#45;&gt;Node20 -->
<g id="edge101" class="edge"><title>Node45&#45;&gt;Node20</title>
<path fill="none" stroke="midnightblue" d="M1589.91,-284.155C1483.5,-275.354 1265.12,-256.495 1189.61,-244 1186.67,-243.512 1029.82,-206.603 953.486,-188.627"/>
<polygon fill="midnightblue" stroke="midnightblue" points="954.249,-185.211 943.713,-186.326 952.644,-192.025 954.249,-185.211"/>
</g>
<!-- Node45&#45;&gt;Node21 -->
<g id="edge94" class="edge"><title>Node45&#45;&gt;Node21</title>
<path fill="none" stroke="midnightblue" d="M1594.66,-280.43C1561.19,-273.704 1518.34,-262.332 1483.61,-244 1437.62,-219.716 1441.78,-189.93 1394.61,-168 1308.44,-127.932 1275.11,-149.543 1177.37,-131.964"/>
<polygon fill="midnightblue" stroke="midnightblue" points="1177.86,-128.495 1167.38,-130.074 1176.56,-135.373 1177.86,-128.495"/>
</g>
<!-- Node45&#45;&gt;Node22 -->
<g id="edge96" class="edge"><title>Node45&#45;&gt;Node22</title>
<path fill="none" stroke="midnightblue" d="M1589.89,-281.536C1528.27,-273.216 1436.77,-258.953 1404.61,-244 1369.11,-227.491 1358.17,-220.681 1336.61,-188 1327.41,-174.046 1322.57,-155.54 1320.08,-141.844"/>
<polygon fill="midnightblue" stroke="midnightblue" points="1323.5,-141.022 1318.51,-131.676 1316.58,-142.095 1323.5,-141.022"/>
</g>
<!-- Node45&#45;&gt;Node23 -->
<g id="edge120" class="edge"><title>Node45&#45;&gt;Node23</title>
<path fill="none" stroke="midnightblue" d="M1590.11,-284.199C1449.8,-272.864 1109.51,-245.291 1103.61,-244 1078.21,-238.438 1073.65,-231.07 1048.61,-224 971.778,-202.299 931.354,-242.077 872.614,-188 859.794,-176.197 855.45,-156.273 854.064,-141.587"/>
<polygon fill="midnightblue" stroke="midnightblue" points="857.559,-141.382 853.49,-131.6 850.57,-141.784 857.559,-141.382"/>
</g>
<!-- Node45&#45;&gt;Node28 -->
<g id="edge92" class="edge"><title>Node45&#45;&gt;Node28</title>
<path fill="none" stroke="midnightblue" d="M1682.62,-280.489C1715.12,-271.926 1766.08,-258.016 1809.61,-244 1915.56,-209.891 2037.66,-159.07 2092.41,-135.652"/>
<polygon fill="midnightblue" stroke="midnightblue" points="2094.02,-138.769 2101.83,-131.608 2091.26,-132.337 2094.02,-138.769"/>
</g>
<!-- Node45&#45;&gt;Node35 -->
<g id="edge121" class="edge"><title>Node45&#45;&gt;Node35</title>
<path fill="none" stroke="midnightblue" d="M1652.07,-280.297C1655.83,-267.548 1663.64,-243.221 1673.61,-224 1678.75,-214.105 1685.7,-203.813 1691.72,-195.573"/>
<polygon fill="midnightblue" stroke="midnightblue" points="1694.54,-197.648 1697.75,-187.554 1688.94,-193.439 1694.54,-197.648"/>
</g>
<!-- Node46 -->
<g id="node46" class="node"><title>Node46</title>
<polygon fill="white" stroke="#bfbfbf" points="1716.11,-224.5 1716.11,-243.5 1765.11,-243.5 1765.11,-224.5 1716.11,-224.5"/>
<text text-anchor="middle" x="1740.61" y="-231.5" font-family="Helvetica,sans-Serif" font-size="10.00">cassert</text>
</g>
<!-- Node45&#45;&gt;Node46 -->
<g id="edge93" class="edge"><title>Node45&#45;&gt;Node46</title>
<path fill="none" stroke="midnightblue" d="M1664.23,-280.324C1678.56,-271.822 1700.63,-258.729 1717.36,-248.797"/>
<polygon fill="midnightblue" stroke="midnightblue" points="1719.22,-251.768 1726.03,-243.655 1715.64,-245.748 1719.22,-251.768"/>
</g>
<!-- Node47 -->
<g id="node47" class="node"><title>Node47</title>
<g id="a_node47"><a xlink:href="diffusion__grid_8h.html" target="_top" xlink:title="diffusion_grid.h">
<polygon fill="white" stroke="red" points="1872.11,-168.5 1872.11,-187.5 1955.11,-187.5 1955.11,-168.5 1872.11,-168.5"/>
<text text-anchor="middle" x="1913.61" y="-175.5" font-family="Helvetica,sans-Serif" font-size="10.00">diffusion_grid.h</text>
</a>
</g>
</g>
<!-- Node45&#45;&gt;Node47 -->
<g id="edge102" class="edge"><title>Node45&#45;&gt;Node47</title>
<path fill="none" stroke="midnightblue" d="M1675.03,-280.497C1700.27,-271.886 1739.95,-257.891 1773.61,-244 1813.72,-227.448 1859.1,-205.833 1887.03,-192.18"/>
<polygon fill="midnightblue" stroke="midnightblue" points="1888.72,-195.252 1896.15,-187.704 1885.63,-188.969 1888.72,-195.252"/>
</g>
<!-- Node48 -->
<g id="node48" class="node"><title>Node48</title>
<g id="a_node48"><a xlink:href="resource__manager_8h.html" target="_top" xlink:title="resource_manager.h">
<polygon fill="white" stroke="red" points="1516.11,-224.5 1516.11,-243.5 1621.11,-243.5 1621.11,-224.5 1516.11,-224.5"/>
<text text-anchor="middle" x="1568.61" y="-231.5" font-family="Helvetica,sans-Serif" font-size="10.00">resource_manager.h</text>
</a>
</g>
</g>
<!-- Node45&#45;&gt;Node48 -->
<g id="edge111" class="edge"><title>Node45&#45;&gt;Node48</title>
<path fill="none" stroke="midnightblue" d="M1636.6,-280.324C1624.08,-271.979 1604.93,-259.212 1590.14,-249.352"/>
<polygon fill="midnightblue" stroke="midnightblue" points="1591.86,-246.289 1581.6,-243.655 1587.98,-252.114 1591.86,-246.289"/>
</g>
<!-- Node47&#45;&gt;Node5 -->
<g id="edge108" class="edge"><title>Node47&#45;&gt;Node5</title>
<path fill="none" stroke="midnightblue" d="M1871.7,-172.255C1777.29,-161.567 1549.78,-135.812 1467.21,-126.464"/>
<polygon fill="midnightblue" stroke="midnightblue" points="1467.54,-122.979 1457.21,-125.332 1466.75,-129.934 1467.54,-122.979"/>
</g>
<!-- Node47&#45;&gt;Node7 -->
<g id="edge109" class="edge"><title>Node47&#45;&gt;Node7</title>
<path fill="none" stroke="midnightblue" d="M1906.79,-168.074C1896.15,-154.604 1874.44,-128.867 1851.61,-112 1833.71,-98.7738 1811.34,-87.5666 1793.38,-79.6447"/>
<polygon fill="midnightblue" stroke="midnightblue" points="1794.48,-76.3092 1783.91,-75.5897 1791.72,-82.744 1794.48,-76.3092"/>
</g>
<!-- Node47&#45;&gt;Node15 -->
<g id="edge107" class="edge"><title>Node47&#45;&gt;Node15</title>
<path fill="none" stroke="midnightblue" d="M1871.83,-174.841C1770.59,-169.431 1504.19,-154.127 1282.61,-132 1272.01,-130.941 1260.52,-129.562 1249.99,-128.203"/>
<polygon fill="midnightblue" stroke="midnightblue" points="1250.2,-124.702 1239.83,-126.864 1249.29,-131.642 1250.2,-124.702"/>
</g>
<!-- Node47&#45;&gt;Node24 -->
<g id="edge103" class="edge"><title>Node47&#45;&gt;Node24</title>
<path fill="none" stroke="midnightblue" d="M1910.34,-168.154C1905.06,-154.787 1893.61,-129.183 1877.61,-112 1846.53,-78.6173 1833.85,-73.2087 1791.61,-56 1728.71,-30.3741 1649.84,-18.946 1603.85,-14.1548"/>
<polygon fill="midnightblue" stroke="midnightblue" points="1604.02,-10.6546 1593.73,-13.1524 1603.33,-17.6205 1604.02,-10.6546"/>
</g>
<!-- Node47&#45;&gt;Node28 -->
<g id="edge104" class="edge"><title>Node47&#45;&gt;Node28</title>
<path fill="none" stroke="midnightblue" d="M1946.57,-168.444C1983.88,-158.759 2044.54,-143.01 2083.76,-132.829"/>
<polygon fill="midnightblue" stroke="midnightblue" points="2084.68,-136.205 2093.48,-130.304 2082.92,-129.429 2084.68,-136.205"/>
</g>
<!-- Node47&#45;&gt;Node29 -->
<g id="edge106" class="edge"><title>Node47&#45;&gt;Node29</title>
<path fill="none" stroke="midnightblue" d="M1932.14,-168.372C1963.05,-154.344 2027.39,-126.684 2084.61,-112 2196.33,-83.3298 2228.64,-99.2205 2341.61,-76 2341.94,-75.9327 2342.27,-75.8641 2342.6,-75.7942"/>
<polygon fill="midnightblue" stroke="midnightblue" points="2343.42,-79.1978 2352.34,-73.4871 2341.8,-72.3863 2343.42,-79.1978"/>
</g>
<!-- Node47&#45;&gt;Node30 -->
<g id="edge110" class="edge"><title>Node47&#45;&gt;Node30</title>
<path fill="none" stroke="midnightblue" d="M1955.25,-170.806C2024.69,-160.476 2163.42,-139.838 2233.7,-129.384"/>
<polygon fill="midnightblue" stroke="midnightblue" points="2234.58,-132.791 2243.96,-127.858 2233.55,-125.867 2234.58,-132.791"/>
</g>
<!-- Node47&#45;&gt;Node31 -->
<g id="edge105" class="edge"><title>Node47&#45;&gt;Node31</title>
<path fill="none" stroke="midnightblue" d="M1926.26,-168.5C1945.7,-155.586 1984.29,-130.565 2018.61,-112 2084.18,-76.5349 2164.37,-40.9918 2206.18,-23.0264"/>
<polygon fill="midnightblue" stroke="midnightblue" points="2207.65,-26.2046 2215.47,-19.0537 2204.9,-19.7687 2207.65,-26.2046"/>
</g>
<!-- Node48&#45;&gt;Node5 -->
<g id="edge115" class="edge"><title>Node48&#45;&gt;Node5</title>
<path fill="none" stroke="midnightblue" d="M1561.08,-224.472C1549.43,-211.521 1526.04,-186.453 1503.61,-168 1489.72,-156.572 1472.92,-145.289 1459.61,-136.88"/>
<polygon fill="midnightblue" stroke="midnightblue" points="1461.38,-133.858 1451.04,-131.551 1457.68,-139.803 1461.38,-133.858"/>
</g>
<!-- Node48&#45;&gt;Node7 -->
<g id="edge116" class="edge"><title>Node48&#45;&gt;Node7</title>
<path fill="none" stroke="midnightblue" d="M1578.72,-224.309C1609.73,-197.64 1703.81,-116.716 1743.57,-82.5186"/>
<polygon fill="midnightblue" stroke="midnightblue" points="1746.31,-84.7795 1751.61,-75.6051 1741.75,-79.4725 1746.31,-84.7795"/>
</g>
<!-- Node48&#45;&gt;Node10 -->
<g id="edge113" class="edge"><title>Node48&#45;&gt;Node10</title>
<path fill="none" stroke="midnightblue" d="M1536.45,-224.444C1497.72,-214.141 1433.19,-196.976 1395.5,-186.951"/>
<polygon fill="midnightblue" stroke="midnightblue" points="1396.19,-183.513 1385.63,-184.325 1394.39,-190.278 1396.19,-183.513"/>
</g>
<!-- Node48&#45;&gt;Node20 -->
<g id="edge117" class="edge"><title>Node48&#45;&gt;Node20</title>
<path fill="none" stroke="midnightblue" d="M1516.04,-228.672C1389.11,-218.224 1068,-191.791 953.75,-182.386"/>
<polygon fill="midnightblue" stroke="midnightblue" points="953.92,-178.888 943.666,-181.556 953.346,-185.865 953.92,-178.888"/>
</g>
<!-- Node48&#45;&gt;Node22 -->
<g id="edge114" class="edge"><title>Node48&#45;&gt;Node22</title>
<path fill="none" stroke="midnightblue" d="M1550.48,-224.33C1523.74,-211.622 1472.11,-187.346 1427.61,-168 1401.2,-156.513 1370.88,-144.171 1348.77,-135.323"/>
<polygon fill="midnightblue" stroke="midnightblue" points="1349.82,-131.973 1339.23,-131.519 1347.22,-138.475 1349.82,-131.973"/>
</g>
<!-- Node48&#45;&gt;Node24 -->
<g id="edge112" class="edge"><title>Node48&#45;&gt;Node24</title>
<path fill="none" stroke="midnightblue" d="M1568.5,-224.297C1568.06,-191.633 1566.49,-75.8661 1565.87,-29.9573"/>
<polygon fill="midnightblue" stroke="midnightblue" points="1569.37,-29.8355 1565.73,-19.8837 1562.37,-29.9302 1569.37,-29.8355"/>
</g>
<!-- Node48&#45;&gt;Node35 -->
<g id="edge119" class="edge"><title>Node48&#45;&gt;Node35</title>
<path fill="none" stroke="midnightblue" d="M1590.16,-224.444C1612.65,-215.517 1648.1,-201.439 1673.59,-191.317"/>
<polygon fill="midnightblue" stroke="midnightblue" points="1675.16,-194.46 1683.17,-187.516 1672.58,-187.954 1675.16,-194.46"/>
</g>
<!-- Node48&#45;&gt;Node47 -->
<g id="edge118" class="edge"><title>Node48&#45;&gt;Node47</title>
<path fill="none" stroke="midnightblue" d="M1621.39,-224.74C1686.7,-214.518 1797.19,-197.224 1861.97,-187.084"/>
<polygon fill="midnightblue" stroke="midnightblue" points="1862.62,-190.524 1871.96,-185.52 1861.54,-183.608 1862.62,-190.524"/>
</g>
<!-- Node49&#45;&gt;Node6 -->
<g id="edge127" class="edge"><title>Node49&#45;&gt;Node6</title>
<path fill="none" stroke="midnightblue" d="M1635.97,-494.869C1442.03,-486.606 778.323,-453.326 581.614,-378 536.643,-360.779 491.312,-326.297 467.238,-306.304"/>
<polygon fill="midnightblue" stroke="midnightblue" points="469.266,-303.436 459.37,-299.652 464.747,-308.781 469.266,-303.436"/>
</g>
<!-- Node49&#45;&gt;Node7 -->
<g id="edge128" class="edge"><title>Node49&#45;&gt;Node7</title>
<path fill="none" stroke="midnightblue" d="M1743.2,-497.582C1901.13,-497.996 2359.01,-489.41 2443.61,-378 2559.66,-225.186 2765.36,-360.956 2157.61,-112 2091.75,-85.0197 1876,-72.3416 1793.8,-68.403"/>
<polygon fill="midnightblue" stroke="midnightblue" points="1793.94,-64.9057 1783.79,-67.9349 1793.62,-71.8981 1793.94,-64.9057"/>
</g>
<!-- Node49&#45;&gt;Node28 -->
<g id="edge126" class="edge"><title>Node49&#45;&gt;Node28</title>
<path fill="none" stroke="midnightblue" d="M1743.56,-494.659C1877.25,-487.615 2217.99,-461.65 2286.61,-378 2356.3,-293.059 2203.26,-177.469 2143.87,-137.385"/>
<polygon fill="midnightblue" stroke="midnightblue" points="2145.46,-134.237 2135.2,-131.616 2141.59,-140.067 2145.46,-134.237"/>
</g>
<!-- Node49&#45;&gt;Node38 -->
<g id="edge144" class="edge"><title>Node49&#45;&gt;Node38</title>
<path fill="none" stroke="midnightblue" d="M1658.29,-482.907C1605.42,-459.126 1497.96,-410.785 1433.32,-381.71"/>
<polygon fill="midnightblue" stroke="midnightblue" points="1434.66,-378.476 1424.11,-377.565 1431.79,-384.86 1434.66,-378.476"/>
</g>
<!-- Node49&#45;&gt;Node41 -->
<g id="edge145" class="edge"><title>Node49&#45;&gt;Node41</title>
<path fill="none" stroke="midnightblue" d="M1635.88,-496.28C1386.98,-492.787 355.561,-476.518 294.614,-446 264.596,-430.969 242.999,-396.749 231.968,-375.686"/>
<polygon fill="midnightblue" stroke="midnightblue" points="235.005,-373.932 227.411,-366.544 228.74,-377.055 235.005,-373.932"/>
</g>
<!-- Node49&#45;&gt;Node45 -->
<g id="edge147" class="edge"><title>Node49&#45;&gt;Node45</title>
<path fill="none" stroke="midnightblue" d="M1743.2,-496.091C1781,-492.292 1829.25,-480.384 1854.61,-446 1869.77,-425.454 1864.27,-358.55 1843.61,-336 1826.88,-317.73 1768.09,-305.813 1719.57,-298.862"/>
<polygon fill="midnightblue" stroke="midnightblue" points="1719.78,-295.357 1709.39,-297.454 1718.82,-302.291 1719.78,-295.357"/>
</g>
<!-- Node49&#45;&gt;Node48 -->
<g id="edge146" class="edge"><title>Node49&#45;&gt;Node48</title>
<path fill="none" stroke="midnightblue" d="M1743.34,-491.954C1782.46,-486.071 1835.11,-473.369 1873.61,-446 1944,-395.962 2032.22,-344.342 1974.61,-280 1963.32,-267.383 1742.79,-248.537 1631.6,-239.785"/>
<polygon fill="midnightblue" stroke="midnightblue" points="1631.76,-236.287 1621.51,-238.996 1631.21,-243.266 1631.76,-236.287"/>
</g>
<!-- Node50 -->
<g id="node50" class="node"><title>Node50</title>
<g id="a_node50"><a xlink:href="cell_8h.html" target="_top" xlink:title="cell.h">
<polygon fill="white" stroke="red" points="1044.61,-420.5 1044.61,-439.5 1084.61,-439.5 1084.61,-420.5 1044.61,-420.5"/>
<text text-anchor="middle" x="1064.61" y="-427.5" font-family="Helvetica,sans-Serif" font-size="10.00">cell.h</text>
</a>
</g>
</g>
<!-- Node49&#45;&gt;Node50 -->
<g id="edge129" class="edge"><title>Node49&#45;&gt;Node50</title>
<path fill="none" stroke="midnightblue" d="M1636.06,-491.344C1509.25,-477.953 1193.86,-444.649 1094.85,-434.193"/>
<polygon fill="midnightblue" stroke="midnightblue" points="1094.96,-430.685 1084.65,-433.116 1094.23,-437.647 1094.96,-430.685"/>
</g>
<!-- Node50&#45;&gt;Node4 -->
<g id="edge132" class="edge"><title>Node50&#45;&gt;Node4</title>
<path fill="none" stroke="midnightblue" d="M1044.6,-428.256C988.208,-425.71 830.042,-415.311 797.614,-378 767.397,-343.232 777.261,-283.861 785.011,-253.73"/>
<polygon fill="midnightblue" stroke="midnightblue" points="788.486,-254.297 787.789,-243.725 781.741,-252.424 788.486,-254.297"/>
</g>
<!-- Node50&#45;&gt;Node5 -->
<g id="edge133" class="edge"><title>Node50&#45;&gt;Node5</title>
<path fill="none" stroke="midnightblue" d="M1064.31,-420.242C1064.16,-402.386 1066.21,-361.324 1086.61,-336 1116.29,-299.156 1241.91,-273.855 1278.61,-244 1311.58,-217.187 1303.33,-194.416 1336.61,-168 1357.37,-151.523 1385.13,-139.658 1406.13,-132.263"/>
<polygon fill="midnightblue" stroke="midnightblue" points="1407.48,-135.502 1415.84,-128.991 1405.24,-128.868 1407.48,-135.502"/>
</g>
<!-- Node50&#45;&gt;Node7 -->
<g id="edge135" class="edge"><title>Node50&#45;&gt;Node7</title>
<path fill="none" stroke="midnightblue" d="M1044.53,-429.154C951.029,-429.599 558.322,-428.384 448.614,-378 366.362,-340.225 303.614,-325.512 303.614,-235 303.614,-235 303.614,-235 303.614,-177 303.614,-102.967 1514.7,-72.5098 1729.31,-67.694"/>
<polygon fill="midnightblue" stroke="midnightblue" points="1729.67,-71.187 1739.59,-67.466 1729.51,-64.1887 1729.67,-71.187"/>
</g>
<!-- Node50&#45;&gt;Node8 -->
<g id="edge137" class="edge"><title>Node50&#45;&gt;Node8</title>
<path fill="none" stroke="midnightblue" d="M1044.41,-421.933C1009.68,-409.788 938.33,-384.831 895.767,-369.945"/>
<polygon fill="midnightblue" stroke="midnightblue" points="896.715,-366.569 886.12,-366.571 894.404,-373.176 896.715,-366.569"/>
</g>
<!-- Node50&#45;&gt;Node9 -->
<g id="edge139" class="edge"><title>Node50&#45;&gt;Node9</title>
<path fill="none" stroke="midnightblue" d="M1067.72,-420.452C1074.93,-401.87 1094.69,-357.722 1126.61,-336 1152.34,-318.494 1234.04,-304.614 1287.35,-297.12"/>
<polygon fill="midnightblue" stroke="midnightblue" points="1287.85,-300.585 1297.28,-295.752 1286.89,-293.65 1287.85,-300.585"/>
</g>
<!-- Node50&#45;&gt;Node19 -->
<g id="edge134" class="edge"><title>Node50&#45;&gt;Node19</title>
<path fill="none" stroke="midnightblue" d="M1044.42,-428.474C941.931,-425.337 481.009,-405.447 398.614,-300 330.263,-212.526 553.046,-187.702 648.417,-181.168"/>
<polygon fill="midnightblue" stroke="midnightblue" points="648.832,-184.648 658.584,-180.508 648.378,-177.663 648.832,-184.648"/>
</g>
<!-- Node50&#45;&gt;Node20 -->
<g id="edge136" class="edge"><title>Node50&#45;&gt;Node20</title>
<path fill="none" stroke="midnightblue" d="M1044.39,-428.447C984.926,-426.376 812.546,-417.054 775.614,-378 728.333,-328.003 718.389,-279.097 759.614,-224 773.071,-206.016 830.929,-192.752 871.5,-185.449"/>
<polygon fill="midnightblue" stroke="midnightblue" points="872.155,-188.888 881.405,-183.722 870.952,-181.992 872.155,-188.888"/>
</g>
<!-- Node50&#45;&gt;Node25 -->
<g id="edge141" class="edge"><title>Node50&#45;&gt;Node25</title>
<path fill="none" stroke="midnightblue" d="M1044.53,-427.212C977.285,-421.039 763.062,-399.805 741.614,-378 693.614,-329.201 707.197,-281.959 743.614,-224 751.468,-211.501 764.03,-200.94 775.268,-193.197"/>
<polygon fill="midnightblue" stroke="midnightblue" points="777.397,-195.988 783.881,-187.609 773.587,-190.116 777.397,-195.988"/>
</g>
<!-- Node50&#45;&gt;Node27 -->
<g id="edge138" class="edge"><title>Node50&#45;&gt;Node27</title>
<path fill="none" stroke="midnightblue" d="M1083.25,-420.493C1102.62,-411.263 1133.44,-395.485 1157.61,-378 1179.78,-361.965 1177.46,-346.754 1202.61,-336 1331.55,-280.876 1692.8,-310.756 1832.61,-300 1846.28,-298.949 1861.05,-297.612 1874.71,-296.292"/>
<polygon fill="midnightblue" stroke="midnightblue" points="1875.29,-299.751 1884.9,-295.29 1874.61,-292.785 1875.29,-299.751"/>
</g>
<!-- Node50&#45;&gt;Node29 -->
<g id="edge131" class="edge"><title>Node50&#45;&gt;Node29</title>
<path fill="none" stroke="midnightblue" d="M1084.72,-427.468C1122.83,-423.835 1207.26,-412.264 1268.61,-378 1291.94,-364.975 1287.1,-346.622 1311.61,-336 1477.96,-263.922 1952.7,-351.163 2126.61,-300 2221.39,-272.119 2252.14,-261.081 2318.61,-188 2346.29,-157.571 2362.53,-111.083 2369.87,-85.4931"/>
<polygon fill="midnightblue" stroke="midnightblue" points="2373.31,-86.1933 2372.55,-75.6252 2366.55,-84.3563 2373.31,-86.1933"/>
</g>
<!-- Node50&#45;&gt;Node30 -->
<g id="edge140" class="edge"><title>Node50&#45;&gt;Node30</title>
<path fill="none" stroke="midnightblue" d="M1084.86,-425.624C1117.25,-419.617 1182.03,-405.08 1230.61,-378 1255.38,-364.2 1252.31,-346.56 1278.61,-336 1445,-269.209 1911.88,-348.049 2084.61,-300 2134.81,-286.036 2148.35,-278.252 2187.61,-244 2223.01,-213.128 2252.65,-165.81 2267.11,-140.463"/>
<polygon fill="midnightblue" stroke="midnightblue" points="2270.23,-142.058 2272.05,-131.621 2264.12,-138.646 2270.23,-142.058"/>
</g>
<!-- Node50&#45;&gt;Node31 -->
<g id="edge130" class="edge"><title>Node50&#45;&gt;Node31</title>
<path fill="none" stroke="midnightblue" d="M1085.04,-424.297C1111.98,-417.389 1160.03,-402.583 1194.61,-378 1214.65,-363.755 1208.52,-346.789 1230.61,-336 1385.53,-260.343 1845.67,-364.37 2005.61,-300 2131.44,-249.361 2205.85,-84.5833 2227.76,-29.2846"/>
<polygon fill="midnightblue" stroke="midnightblue" points="2231.11,-30.3403 2231.45,-19.7509 2224.58,-27.8182 2231.11,-30.3403"/>
</g>
<!-- Node50&#45;&gt;Node44 -->
<g id="edge142" class="edge"><title>Node50&#45;&gt;Node44</title>
<path fill="none" stroke="midnightblue" d="M1054.93,-420.294C1042.02,-408.69 1018.94,-387.954 1002.99,-373.612"/>
<polygon fill="midnightblue" stroke="midnightblue" points="1005.16,-370.859 995.38,-366.777 1000.48,-376.065 1005.16,-370.859"/>
</g>
<!-- Node50&#45;&gt;Node45 -->
<g id="edge143" class="edge"><title>Node50&#45;&gt;Node45</title>
<path fill="none" stroke="midnightblue" d="M1075.06,-420.168C1086.81,-410.15 1106.38,-393.226 1122.61,-378 1141.87,-359.941 1140.72,-347.219 1164.61,-336 1201.24,-318.806 1454.13,-302.172 1579.49,-294.869"/>
<polygon fill="midnightblue" stroke="midnightblue" points="1579.97,-298.347 1589.75,-294.275 1579.57,-291.358 1579.97,-298.347"/>
</g>
</g>
</svg>
