<?xml version="1.0" encoding="UTF-8" standalone="no"?>
<!DOCTYPE svg PUBLIC "-//W3C//DTD SVG 1.1//EN"
 "http://www.w3.org/Graphics/SVG/1.1/DTD/svg11.dtd">
<!-- Generated by graphviz version 2.38.0 (20140413.2041)
 -->
<!-- Title: neuroscience/neuron_or_neurite.h Pages: 1 -->
<svg width="1346pt" height="531pt"
 viewBox="0.00 0.00 1345.50 531.00" xmlns="http://www.w3.org/2000/svg" xmlns:xlink="http://www.w3.org/1999/xlink">
<g id="graph0" class="graph" transform="scale(1 1) rotate(0) translate(4 527)">
<title>neuroscience/neuron_or_neurite.h</title>
<polygon fill="white" stroke="none" points="-4,4 -4,-527 1341.5,-527 1341.5,4 -4,4"/>
<!-- Node1 -->
<g id="node1" class="node"><title>Node1</title>
<polygon fill="#bfbfbf" stroke="black" points="266,-492.5 266,-522.5 383,-522.5 383,-492.5 266,-492.5"/>
<text text-anchor="start" x="274" y="-510.5" font-family="Helvetica,sans-Serif" font-size="10.00">neuroscience/neuron</text>
<text text-anchor="middle" x="324.5" y="-499.5" font-family="Helvetica,sans-Serif" font-size="10.00">_or_neurite.h</text>
</g>
<!-- Node2 -->
<g id="node2" class="node"><title>Node2</title>
<polygon fill="white" stroke="#bfbfbf" points="0,-168.5 0,-187.5 41,-187.5 41,-168.5 0,-168.5"/>
<text text-anchor="middle" x="20.5" y="-175.5" font-family="Helvetica,sans-Serif" font-size="10.00">array</text>
</g>
<!-- Node1&#45;&gt;Node2 -->
<g id="edge1" class="edge"><title>Node1&#45;&gt;Node2</title>
<path fill="none" stroke="midnightblue" d="M265.815,-506.78C175.436,-503.789 12.5,-483.308 12.5,-374.5 12.5,-374.5 12.5,-374.5 12.5,-305.5 12.5,-267.126 16.2121,-222.334 18.579,-197.674"/>
<polygon fill="midnightblue" stroke="midnightblue" points="22.0762,-197.875 19.5823,-187.578 15.1105,-197.182 22.0762,-197.875"/>
</g>
<!-- Node3 -->
<g id="node3" class="node"><title>Node3</title>
<g id="a_node3"><a xlink:href="sim__object_8h.html" target="_top" xlink:title="core/sim_object/sim\l_object.h">
<polygon fill="white" stroke="black" points="816,-425.5 816,-455.5 929,-455.5 929,-425.5 816,-425.5"/>
<text text-anchor="start" x="824" y="-443.5" font-family="Helvetica,sans-Serif" font-size="10.00">core/sim_object/sim</text>
<text text-anchor="middle" x="872.5" y="-432.5" font-family="Helvetica,sans-Serif" font-size="10.00">_object.h</text>
</a>
</g>
</g>
<!-- Node1&#45;&gt;Node3 -->
<g id="edge2" class="edge"><title>Node1&#45;&gt;Node3</title>
<path fill="none" stroke="midnightblue" d="M383.146,-499.544C485.859,-487.361 697.644,-462.24 805.784,-449.413"/>
<polygon fill="midnightblue" stroke="midnightblue" points="806.4,-452.865 815.918,-448.211 805.576,-445.914 806.4,-452.865"/>
</g>
<!-- Node15 -->
<g id="node15" class="node"><title>Node15</title>
<g id="a_node15"><a xlink:href="so__pointer_8h.html" target="_top" xlink:title="core/sim_object/so\l_pointer.h">
<polygon fill="white" stroke="black" points="271,-358.5 271,-388.5 378,-388.5 378,-358.5 271,-358.5"/>
<text text-anchor="start" x="279" y="-376.5" font-family="Helvetica,sans-Serif" font-size="10.00">core/sim_object/so</text>
<text text-anchor="middle" x="324.5" y="-365.5" font-family="Helvetica,sans-Serif" font-size="10.00">_pointer.h</text>
</a>
</g>
</g>
<!-- Node1&#45;&gt;Node15 -->
<g id="edge59" class="edge"><title>Node1&#45;&gt;Node15</title>
<path fill="none" stroke="midnightblue" d="M324.5,-492.374C324.5,-470.044 324.5,-426.313 324.5,-398.851"/>
<polygon fill="midnightblue" stroke="midnightblue" points="328,-398.525 324.5,-388.525 321,-398.525 328,-398.525"/>
</g>
<!-- Node4 -->
<g id="node4" class="node"><title>Node4</title>
<polygon fill="white" stroke="#bfbfbf" points="841.5,-364 841.5,-383 903.5,-383 903.5,-364 841.5,-364"/>
<text text-anchor="middle" x="872.5" y="-371" font-family="Helvetica,sans-Serif" font-size="10.00">algorithm</text>
</g>
<!-- Node3&#45;&gt;Node4 -->
<g id="edge3" class="edge"><title>Node3&#45;&gt;Node4</title>
<path fill="none" stroke="midnightblue" d="M872.5,-425.396C872.5,-416.064 872.5,-403.714 872.5,-393.517"/>
<polygon fill="midnightblue" stroke="midnightblue" points="876,-393.195 872.5,-383.195 869,-393.195 876,-393.195"/>
</g>
<!-- Node5 -->
<g id="node5" class="node"><title>Node5</title>
<polygon fill="white" stroke="#bfbfbf" points="959.5,-364 959.5,-383 1011.5,-383 1011.5,-364 959.5,-364"/>
<text text-anchor="middle" x="985.5" y="-371" font-family="Helvetica,sans-Serif" font-size="10.00">cassert</text>
</g>
<!-- Node3&#45;&gt;Node5 -->
<g id="edge4" class="edge"><title>Node3&#45;&gt;Node5</title>
<path fill="none" stroke="midnightblue" d="M897.019,-425.396C916.232,-414.344 942.802,-399.061 961.801,-388.132"/>
<polygon fill="midnightblue" stroke="midnightblue" points="963.788,-391.027 970.711,-383.007 960.297,-384.959 963.788,-391.027"/>
</g>
<!-- Node6 -->
<g id="node6" class="node"><title>Node6</title>
<polygon fill="white" stroke="#bfbfbf" points="632.5,-297 632.5,-316 674.5,-316 674.5,-297 632.5,-297"/>
<text text-anchor="middle" x="653.5" y="-304" font-family="Helvetica,sans-Serif" font-size="10.00">limits</text>
</g>
<!-- Node3&#45;&gt;Node6 -->
<g id="edge5" class="edge"><title>Node3&#45;&gt;Node6</title>
<path fill="none" stroke="midnightblue" d="M815.755,-439.206C772.459,-435.936 714.194,-424.503 677.5,-389 660.47,-372.522 655.363,-344.629 653.921,-326.137"/>
<polygon fill="midnightblue" stroke="midnightblue" points="657.41,-325.84 653.423,-316.024 650.419,-326.184 657.41,-325.84"/>
</g>
<!-- Node7 -->
<g id="node7" class="node"><title>Node7</title>
<polygon fill="white" stroke="#bfbfbf" points="1068,-364 1068,-383 1125,-383 1125,-364 1068,-364"/>
<text text-anchor="middle" x="1096.5" y="-371" font-family="Helvetica,sans-Serif" font-size="10.00">memory</text>
</g>
<!-- Node3&#45;&gt;Node7 -->
<g id="edge6" class="edge"><title>Node3&#45;&gt;Node7</title>
<path fill="none" stroke="midnightblue" d="M925.781,-425.434C961.95,-415.689 1010.78,-402.151 1053.5,-389 1056.42,-388.102 1059.44,-387.143 1062.46,-386.163"/>
<polygon fill="midnightblue" stroke="midnightblue" points="1063.62,-389.467 1072.01,-383.007 1061.42,-382.821 1063.62,-389.467"/>
</g>
<!-- Node8 -->
<g id="node8" class="node"><title>Node8</title>
<polygon fill="white" stroke="#bfbfbf" points="1181.5,-364 1181.5,-383 1213.5,-383 1213.5,-364 1181.5,-364"/>
<text text-anchor="middle" x="1197.5" y="-371" font-family="Helvetica,sans-Serif" font-size="10.00">set</text>
</g>
<!-- Node3&#45;&gt;Node8 -->
<g id="edge7" class="edge"><title>Node3&#45;&gt;Node8</title>
<path fill="none" stroke="midnightblue" d="M929.074,-434.574C989.298,-428.239 1086.84,-414.828 1167.5,-389 1169.17,-388.466 1170.86,-387.856 1172.55,-387.196"/>
<polygon fill="midnightblue" stroke="midnightblue" points="1174.23,-390.277 1181.96,-383.032 1171.4,-383.875 1174.23,-390.277"/>
</g>
<!-- Node9 -->
<g id="node9" class="node"><title>Node9</title>
<polygon fill="white" stroke="#bfbfbf" points="1175.5,-0.5 1175.5,-19.5 1231.5,-19.5 1231.5,-0.5 1175.5,-0.5"/>
<text text-anchor="middle" x="1203.5" y="-7.5" font-family="Helvetica,sans-Serif" font-size="10.00">sstream</text>
</g>
<!-- Node3&#45;&gt;Node9 -->
<g id="edge8" class="edge"><title>Node3&#45;&gt;Node9</title>
<path fill="none" stroke="midnightblue" d="M929.034,-438.853C1016.95,-436.646 1180.72,-427.346 1222.5,-389 1249.9,-363.852 1241.5,-344.694 1241.5,-307.5 1241.5,-307.5 1241.5,-307.5 1241.5,-121 1241.5,-86.8131 1224.9,-49.7639 1213.64,-28.5707"/>
<polygon fill="midnightblue" stroke="midnightblue" points="1216.68,-26.832 1208.78,-19.769 1210.55,-30.2151 1216.68,-26.832"/>
</g>
<!-- Node10 -->
<g id="node10" class="node"><title>Node10</title>
<polygon fill="white" stroke="#bfbfbf" points="1026.5,-0.5 1026.5,-19.5 1070.5,-19.5 1070.5,-0.5 1026.5,-0.5"/>
<text text-anchor="middle" x="1048.5" y="-7.5" font-family="Helvetica,sans-Serif" font-size="10.00">string</text>
</g>
<!-- Node3&#45;&gt;Node10 -->
<g id="edge9" class="edge"><title>Node3&#45;&gt;Node10</title>
<path fill="none" stroke="midnightblue" d="M929.219,-436.761C998.307,-432.098 1108.99,-419.899 1134.5,-389 1226.84,-277.158 1102.77,-85.7486 1061.21,-27.9887"/>
<polygon fill="midnightblue" stroke="midnightblue" points="1063.82,-25.6246 1055.08,-19.6216 1058.17,-29.7585 1063.82,-25.6246"/>
</g>
<!-- Node11 -->
<g id="node11" class="node"><title>Node11</title>
<polygon fill="white" stroke="#bfbfbf" points="1269.5,-364 1269.5,-383 1337.5,-383 1337.5,-364 1269.5,-364"/>
<text text-anchor="middle" x="1303.5" y="-371" font-family="Helvetica,sans-Serif" font-size="10.00">type_traits</text>
</g>
<!-- Node3&#45;&gt;Node11 -->
<g id="edge10" class="edge"><title>Node3&#45;&gt;Node11</title>
<path fill="none" stroke="midnightblue" d="M929.128,-434.929C1004.31,-428.202 1140.93,-413.688 1255.5,-389 1259.66,-388.103 1263.99,-387.018 1268.27,-385.852"/>
<polygon fill="midnightblue" stroke="midnightblue" points="1269.41,-389.165 1278.04,-383.029 1267.46,-382.44 1269.41,-389.165"/>
</g>
<!-- Node12 -->
<g id="node12" class="node"><title>Node12</title>
<polygon fill="white" stroke="#bfbfbf" points="435,-364 435,-383 528,-383 528,-364 435,-364"/>
<text text-anchor="middle" x="481.5" y="-371" font-family="Helvetica,sans-Serif" font-size="10.00">unordered_map</text>
</g>
<!-- Node3&#45;&gt;Node12 -->
<g id="edge11" class="edge"><title>Node3&#45;&gt;Node12</title>
<path fill="none" stroke="midnightblue" d="M815.989,-432.91C748.951,-424.654 633.99,-409.115 536.5,-389 531.677,-388.005 526.645,-386.847 521.669,-385.628"/>
<polygon fill="midnightblue" stroke="midnightblue" points="522.174,-382.145 511.62,-383.071 520.448,-388.929 522.174,-382.145"/>
</g>
<!-- Node13 -->
<g id="node13" class="node"><title>Node13</title>
<polygon fill="white" stroke="#bfbfbf" points="641,-168.5 641,-187.5 688,-187.5 688,-168.5 641,-168.5"/>
<text text-anchor="middle" x="664.5" y="-175.5" font-family="Helvetica,sans-Serif" font-size="10.00">vector</text>
</g>
<!-- Node3&#45;&gt;Node13 -->
<g id="edge12" class="edge"><title>Node3&#45;&gt;Node13</title>
<path fill="none" stroke="midnightblue" d="M815.761,-435.906C780.638,-430.661 737.28,-418.204 710.5,-389 697.452,-374.771 675.446,-246.357 667.486,-197.633"/>
<polygon fill="midnightblue" stroke="midnightblue" points="670.907,-196.864 665.854,-187.551 663.997,-197.982 670.907,-196.864"/>
</g>
<!-- Node14 -->
<g id="node14" class="node"><title>Node14</title>
<g id="a_node14"><a xlink:href="shape_8h.html" target="_top" xlink:title="core/shape.h">
<polygon fill="white" stroke="black" points="546,-364 546,-383 625,-383 625,-364 546,-364"/>
<text text-anchor="middle" x="585.5" y="-371" font-family="Helvetica,sans-Serif" font-size="10.00">core/shape.h</text>
</a>
</g>
</g>
<!-- Node3&#45;&gt;Node14 -->
<g id="edge13" class="edge"><title>Node3&#45;&gt;Node14</title>
<path fill="none" stroke="midnightblue" d="M815.824,-428.025C768.533,-418.256 699.435,-403.533 639.5,-389 635.137,-387.942 630.588,-386.793 626.062,-385.621"/>
<polygon fill="midnightblue" stroke="midnightblue" points="626.836,-382.205 616.274,-383.042 625.053,-388.974 626.836,-382.205"/>
</g>
<!-- Node3&#45;&gt;Node15 -->
<g id="edge14" class="edge"><title>Node3&#45;&gt;Node15</title>
<path fill="none" stroke="midnightblue" d="M815.719,-435.472C725.629,-428.645 544.565,-413.143 392.5,-389 391.047,-388.769 389.578,-388.528 388.099,-388.277"/>
<polygon fill="midnightblue" stroke="midnightblue" points="388.686,-384.826 378.224,-386.502 387.447,-391.716 388.686,-384.826"/>
</g>
<!-- Node22 -->
<g id="node22" class="node"><title>Node22</title>
<g id="a_node22"><a xlink:href="so__uid_8h.html" target="_top" xlink:title="core/sim_object/so\l_uid.h">
<polygon fill="white" stroke="black" points="870,-224.5 870,-254.5 977,-254.5 977,-224.5 870,-224.5"/>
<text text-anchor="start" x="878" y="-242.5" font-family="Helvetica,sans-Serif" font-size="10.00">core/sim_object/so</text>
<text text-anchor="middle" x="923.5" y="-231.5" font-family="Helvetica,sans-Serif" font-size="10.00">_uid.h</text>
</a>
</g>
</g>
<!-- Node3&#45;&gt;Node22 -->
<g id="edge52" class="edge"><title>Node3&#45;&gt;Node22</title>
<path fill="none" stroke="midnightblue" d="M887.787,-425.114C896.668,-415.751 907.135,-402.754 912.5,-389 928.648,-347.601 928.07,-294.847 925.948,-264.65"/>
<polygon fill="midnightblue" stroke="midnightblue" points="929.43,-264.289 925.124,-254.609 922.453,-264.861 929.43,-264.289"/>
</g>
<!-- Node36 -->
<g id="node36" class="node"><title>Node36</title>
<g id="a_node36"><a xlink:href="root_8h.html" target="_top" xlink:title="core/util/root.h">
<polygon fill="white" stroke="black" points="238.5,-168.5 238.5,-187.5 324.5,-187.5 324.5,-168.5 238.5,-168.5"/>
<text text-anchor="middle" x="281.5" y="-175.5" font-family="Helvetica,sans-Serif" font-size="10.00">core/util/root.h</text>
</a>
</g>
</g>
<!-- Node3&#45;&gt;Node36 -->
<g id="edge58" class="edge"><title>Node3&#45;&gt;Node36</title>
<path fill="none" stroke="midnightblue" d="M815.935,-436.71C702.203,-430.588 454.201,-414.459 425.5,-389 369.127,-338.997 434.987,-281.682 386.5,-224 372.963,-207.896 352.616,-197.411 333.427,-190.654"/>
<polygon fill="midnightblue" stroke="midnightblue" points="334.431,-187.3 323.839,-187.539 332.268,-193.958 334.431,-187.3"/>
</g>
<!-- Node37 -->
<g id="node37" class="node"><title>Node37</title>
<g id="a_node37"><a xlink:href="so__visitor_8h.html" target="_top" xlink:title="core/sim_object/so\l_visitor.h">
<polygon fill="white" stroke="black" points="995,-224.5 995,-254.5 1102,-254.5 1102,-224.5 995,-224.5"/>
<text text-anchor="start" x="1003" y="-242.5" font-family="Helvetica,sans-Serif" font-size="10.00">core/sim_object/so</text>
<text text-anchor="middle" x="1048.5" y="-231.5" font-family="Helvetica,sans-Serif" font-size="10.00">_visitor.h</text>
</a>
</g>
</g>
<!-- Node3&#45;&gt;Node37 -->
<g id="edge53" class="edge"><title>Node3&#45;&gt;Node37</title>
<path fill="none" stroke="midnightblue" d="M929.062,-434.015C960.449,-427.982 997.65,-415.362 1020.5,-389 1050.63,-354.242 1052.62,-297.439 1050.89,-265.091"/>
<polygon fill="midnightblue" stroke="midnightblue" points="1054.35,-264.474 1050.16,-254.745 1047.37,-264.966 1054.35,-264.474"/>
</g>
<!-- Node38 -->
<g id="node38" class="node"><title>Node38</title>
<g id="a_node38"><a xlink:href="macros_8h.html" target="_top" xlink:title="core/util/macros.h">
<polygon fill="white" stroke="black" points="720,-364 720,-383 823,-383 823,-364 720,-364"/>
<text text-anchor="middle" x="771.5" y="-371" font-family="Helvetica,sans-Serif" font-size="10.00">core/util/macros.h</text>
</a>
</g>
</g>
<!-- Node3&#45;&gt;Node38 -->
<g id="edge56" class="edge"><title>Node3&#45;&gt;Node38</title>
<path fill="none" stroke="midnightblue" d="M850.585,-425.396C833.647,-414.496 810.313,-399.479 793.384,-388.584"/>
<polygon fill="midnightblue" stroke="midnightblue" points="795.022,-385.476 784.719,-383.007 791.234,-391.362 795.022,-385.476"/>
</g>
<!-- Node15&#45;&gt;Node6 -->
<g id="edge16" class="edge"><title>Node15&#45;&gt;Node6</title>
<path fill="none" stroke="midnightblue" d="M378.024,-364.768C450.081,-354.107 574.345,-334.765 618.5,-322 620.792,-321.337 623.138,-320.571 625.476,-319.744"/>
<polygon fill="midnightblue" stroke="midnightblue" points="626.816,-322.979 634.884,-316.112 624.295,-316.448 626.816,-322.979"/>
</g>
<!-- Node16 -->
<g id="node16" class="node"><title>Node16</title>
<polygon fill="white" stroke="#bfbfbf" points="95,-297 95,-316 144,-316 144,-297 95,-297"/>
<text text-anchor="middle" x="119.5" y="-304" font-family="Helvetica,sans-Serif" font-size="10.00">cstdint</text>
</g>
<!-- Node15&#45;&gt;Node16 -->
<g id="edge15" class="edge"><title>Node15&#45;&gt;Node16</title>
<path fill="none" stroke="midnightblue" d="M275.586,-358.467C242.392,-348.737 197.6,-335.203 158.5,-322 156.105,-321.191 153.635,-320.332 151.157,-319.453"/>
<polygon fill="midnightblue" stroke="midnightblue" points="152.285,-316.139 141.691,-316.015 149.896,-322.718 152.285,-316.139"/>
</g>
<!-- Node17 -->
<g id="node17" class="node"><title>Node17</title>
<polygon fill="white" stroke="#bfbfbf" points="318,-297 318,-316 375,-316 375,-297 318,-297"/>
<text text-anchor="middle" x="346.5" y="-304" font-family="Helvetica,sans-Serif" font-size="10.00">ostream</text>
</g>
<!-- Node15&#45;&gt;Node17 -->
<g id="edge17" class="edge"><title>Node15&#45;&gt;Node17</title>
<path fill="none" stroke="midnightblue" d="M329.274,-358.396C332.5,-348.863 336.792,-336.182 340.285,-325.862"/>
<polygon fill="midnightblue" stroke="midnightblue" points="343.666,-326.789 343.557,-316.195 337.036,-324.545 343.666,-326.789"/>
</g>
<!-- Node18 -->
<g id="node18" class="node"><title>Node18</title>
<g id="a_node18"><a xlink:href="in__place__exec__ctxt_8h.html" target="_top" xlink:title="core/execution_context\l/in_place_exec_ctxt.h">
<polygon fill="white" stroke="black" points="448.5,-291.5 448.5,-321.5 576.5,-321.5 576.5,-291.5 448.5,-291.5"/>
<text text-anchor="start" x="456.5" y="-309.5" font-family="Helvetica,sans-Serif" font-size="10.00">core/execution_context</text>
<text text-anchor="middle" x="512.5" y="-298.5" font-family="Helvetica,sans-Serif" font-size="10.00">/in_place_exec_ctxt.h</text>
</a>
</g>
</g>
<!-- Node15&#45;&gt;Node18 -->
<g id="edge18" class="edge"><title>Node15&#45;&gt;Node18</title>
<path fill="none" stroke="midnightblue" d="M365.293,-358.396C393.748,-348.558 431.901,-335.367 462.235,-324.879"/>
<polygon fill="midnightblue" stroke="midnightblue" points="463.479,-328.152 471.786,-321.577 461.192,-321.536 463.479,-328.152"/>
</g>
<!-- Node15&#45;&gt;Node22 -->
<g id="edge39" class="edge"><title>Node15&#45;&gt;Node22</title>
<path fill="none" stroke="midnightblue" d="M378.14,-363.565C448.982,-351.543 566.977,-330.669 585.5,-322 605.241,-312.761 603.576,-299.838 623.5,-291 717.941,-249.106 753.672,-273.382 859.793,-254.969"/>
<polygon fill="midnightblue" stroke="midnightblue" points="860.733,-258.355 869.942,-253.116 859.476,-251.469 860.733,-258.355"/>
</g>
<!-- Node33 -->
<g id="node33" class="node"><title>Node33</title>
<g id="a_node33"><a xlink:href="simulation_8h.html" target="_top" xlink:title="core/simulation.h">
<polygon fill="white" stroke="black" points="201,-297 201,-316 300,-316 300,-297 201,-297"/>
<text text-anchor="middle" x="250.5" y="-304" font-family="Helvetica,sans-Serif" font-size="10.00">core/simulation.h</text>
</a>
</g>
</g>
<!-- Node15&#45;&gt;Node33 -->
<g id="edge40" class="edge"><title>Node15&#45;&gt;Node33</title>
<path fill="none" stroke="midnightblue" d="M308.443,-358.396C296.562,-347.96 280.385,-333.751 268.144,-322.998"/>
<polygon fill="midnightblue" stroke="midnightblue" points="270.221,-320.164 260.398,-316.195 265.602,-325.424 270.221,-320.164"/>
</g>
<!-- Node15&#45;&gt;Node36 -->
<g id="edge51" class="edge"><title>Node15&#45;&gt;Node36</title>
<path fill="none" stroke="midnightblue" d="M270.791,-366.622C242.185,-360.449 209.314,-347.818 191.5,-322 159.864,-276.148 224.691,-219.631 260.274,-193.505"/>
<polygon fill="midnightblue" stroke="midnightblue" points="262.515,-196.205 268.614,-187.542 258.444,-190.511 262.515,-196.205"/>
</g>
<!-- Node18&#45;&gt;Node13 -->
<g id="edge22" class="edge"><title>Node18&#45;&gt;Node13</title>
<path fill="none" stroke="midnightblue" d="M576.694,-294.374C601.343,-287.044 627.782,-274.94 645.5,-255 659.446,-239.305 663.481,-214.902 664.488,-198.001"/>
<polygon fill="midnightblue" stroke="midnightblue" points="667.995,-197.795 664.785,-187.698 660.998,-197.593 667.995,-197.795"/>
</g>
<!-- Node19 -->
<g id="node19" class="node"><title>Node19</title>
<polygon fill="white" stroke="#bfbfbf" points="434.5,-224.5 434.5,-254.5 576.5,-254.5 576.5,-224.5 434.5,-224.5"/>
<text text-anchor="start" x="442.5" y="-242.5" font-family="Helvetica,sans-Serif" font-size="10.00">tbb/concurrent_unordered</text>
<text text-anchor="middle" x="505.5" y="-231.5" font-family="Helvetica,sans-Serif" font-size="10.00">_map.h</text>
</g>
<!-- Node18&#45;&gt;Node19 -->
<g id="edge19" class="edge"><title>Node18&#45;&gt;Node19</title>
<path fill="none" stroke="midnightblue" d="M510.981,-291.396C510.137,-283.56 509.064,-273.596 508.092,-264.565"/>
<polygon fill="midnightblue" stroke="midnightblue" points="511.567,-264.144 507.016,-254.577 504.607,-264.894 511.567,-264.144"/>
</g>
<!-- Node20 -->
<g id="node20" class="node"><title>Node20</title>
<polygon fill="white" stroke="#bfbfbf" points="315,-230 315,-249 378,-249 378,-230 315,-230"/>
<text text-anchor="middle" x="346.5" y="-237" font-family="Helvetica,sans-Serif" font-size="10.00">functional</text>
</g>
<!-- Node18&#45;&gt;Node20 -->
<g id="edge20" class="edge"><title>Node18&#45;&gt;Node20</title>
<path fill="none" stroke="midnightblue" d="M476.48,-291.396C446.967,-279.84 405.637,-263.656 377.562,-252.663"/>
<polygon fill="midnightblue" stroke="midnightblue" points="378.813,-249.394 368.226,-249.007 376.261,-255.912 378.813,-249.394"/>
</g>
<!-- Node21 -->
<g id="node21" class="node"><title>Node21</title>
<polygon fill="white" stroke="#bfbfbf" points="594.5,-230 594.5,-249 636.5,-249 636.5,-230 594.5,-230"/>
<text text-anchor="middle" x="615.5" y="-237" font-family="Helvetica,sans-Serif" font-size="10.00">utility</text>
</g>
<!-- Node18&#45;&gt;Node21 -->
<g id="edge21" class="edge"><title>Node18&#45;&gt;Node21</title>
<path fill="none" stroke="midnightblue" d="M534.849,-291.396C552.122,-280.496 575.918,-265.479 593.183,-254.584"/>
<polygon fill="midnightblue" stroke="midnightblue" points="595.431,-257.304 602.02,-249.007 591.695,-251.384 595.431,-257.304"/>
</g>
<!-- Node18&#45;&gt;Node22 -->
<g id="edge23" class="edge"><title>Node18&#45;&gt;Node22</title>
<path fill="none" stroke="midnightblue" d="M576.728,-293.291C581.384,-292.488 586.011,-291.716 590.5,-291 706.898,-272.434 739.667,-276.371 859.983,-254.978"/>
<polygon fill="midnightblue" stroke="midnightblue" points="860.732,-258.399 869.954,-253.183 859.492,-251.51 860.732,-258.399"/>
</g>
<!-- Node24 -->
<g id="node24" class="node"><title>Node24</title>
<g id="a_node24"><a xlink:href="thread__info_8h.html" target="_top" xlink:title="core/util/thread_info.h">
<polygon fill="white" stroke="black" points="731,-230 731,-249 852,-249 852,-230 731,-230"/>
<text text-anchor="middle" x="791.5" y="-237" font-family="Helvetica,sans-Serif" font-size="10.00">core/util/thread_info.h</text>
</a>
</g>
</g>
<!-- Node18&#45;&gt;Node24 -->
<g id="edge25" class="edge"><title>Node18&#45;&gt;Node24</title>
<path fill="none" stroke="midnightblue" d="M572.695,-291.476C624.333,-279.446 697.679,-262.358 744.931,-251.349"/>
<polygon fill="midnightblue" stroke="midnightblue" points="745.947,-254.706 754.892,-249.029 744.359,-247.889 745.947,-254.706"/>
</g>
<!-- Node23 -->
<g id="node23" class="node"><title>Node23</title>
<polygon fill="white" stroke="#bfbfbf" points="970.5,-168.5 970.5,-187.5 1020.5,-187.5 1020.5,-168.5 970.5,-168.5"/>
<text text-anchor="middle" x="995.5" y="-175.5" font-family="Helvetica,sans-Serif" font-size="10.00">atomic</text>
</g>
<!-- Node22&#45;&gt;Node23 -->
<g id="edge24" class="edge"><title>Node22&#45;&gt;Node23</title>
<path fill="none" stroke="midnightblue" d="M940.563,-224.399C951.565,-215.308 965.865,-203.49 977.118,-194.191"/>
<polygon fill="midnightblue" stroke="midnightblue" points="979.544,-196.726 985.023,-187.658 975.085,-191.33 979.544,-196.726"/>
</g>
<!-- Node24&#45;&gt;Node13 -->
<g id="edge28" class="edge"><title>Node24&#45;&gt;Node13</title>
<path fill="none" stroke="midnightblue" d="M773.304,-229.975C751.991,-219.99 716.469,-203.348 691.837,-191.807"/>
<polygon fill="midnightblue" stroke="midnightblue" points="693.203,-188.582 682.662,-187.509 690.233,-194.921 693.203,-188.582"/>
</g>
<!-- Node25 -->
<g id="node25" class="node"><title>Node25</title>
<polygon fill="white" stroke="#bfbfbf" points="842,-112.5 842,-131.5 889,-131.5 889,-112.5 842,-112.5"/>
<text text-anchor="middle" x="865.5" y="-119.5" font-family="Helvetica,sans-Serif" font-size="10.00">omp.h</text>
</g>
<!-- Node24&#45;&gt;Node25 -->
<g id="edge26" class="edge"><title>Node24&#45;&gt;Node25</title>
<path fill="none" stroke="midnightblue" d="M797.062,-229.819C809.222,-210.839 838.368,-165.348 854.424,-140.288"/>
<polygon fill="midnightblue" stroke="midnightblue" points="857.426,-142.09 859.873,-131.782 851.532,-138.314 857.426,-142.09"/>
</g>
<!-- Node26 -->
<g id="node26" class="node"><title>Node26</title>
<polygon fill="white" stroke="#bfbfbf" points="745.5,-168.5 745.5,-187.5 799.5,-187.5 799.5,-168.5 745.5,-168.5"/>
<text text-anchor="middle" x="772.5" y="-175.5" font-family="Helvetica,sans-Serif" font-size="10.00">sched.h</text>
</g>
<!-- Node24&#45;&gt;Node26 -->
<g id="edge27" class="edge"><title>Node24&#45;&gt;Node26</title>
<path fill="none" stroke="midnightblue" d="M788.778,-229.975C786.069,-221.492 781.826,-208.204 778.351,-197.322"/>
<polygon fill="midnightblue" stroke="midnightblue" points="781.593,-195.97 775.217,-187.509 774.925,-198.1 781.593,-195.97"/>
</g>
<!-- Node27 -->
<g id="node27" class="node"><title>Node27</title>
<g id="a_node27"><a xlink:href="log_8h.html" target="_top" xlink:title="core/util/log.h">
<polygon fill="white" stroke="black" points="677,-112.5 677,-131.5 758,-131.5 758,-112.5 677,-112.5"/>
<text text-anchor="middle" x="717.5" y="-119.5" font-family="Helvetica,sans-Serif" font-size="10.00">core/util/log.h</text>
</a>
</g>
</g>
<!-- Node24&#45;&gt;Node27 -->
<g id="edge29" class="edge"><title>Node24&#45;&gt;Node27</title>
<path fill="none" stroke="midnightblue" d="M778.717,-229.953C766.197,-220.938 747.451,-205.615 736.5,-188 727.674,-173.803 722.791,-155.325 720.194,-141.7"/>
<polygon fill="midnightblue" stroke="midnightblue" points="723.607,-140.888 718.513,-131.598 716.702,-142.037 723.607,-140.888"/>
</g>
<!-- Node32 -->
<g id="node32" class="node"><title>Node32</title>
<g id="a_node32"><a xlink:href="numa_8h.html" target="_top" xlink:title="core/util/numa.h">
<polygon fill="white" stroke="black" points="856,-168.5 856,-187.5 951,-187.5 951,-168.5 856,-168.5"/>
<text text-anchor="middle" x="903.5" y="-175.5" font-family="Helvetica,sans-Serif" font-size="10.00">core/util/numa.h</text>
</a>
</g>
</g>
<!-- Node24&#45;&gt;Node32 -->
<g id="edge37" class="edge"><title>Node24&#45;&gt;Node32</title>
<path fill="none" stroke="midnightblue" d="M807.547,-229.975C826.093,-220.122 856.84,-203.788 878.522,-192.27"/>
<polygon fill="midnightblue" stroke="midnightblue" points="880.294,-195.292 887.483,-187.509 877.01,-189.11 880.294,-195.292"/>
</g>
<!-- Node27&#45;&gt;Node10 -->
<g id="edge33" class="edge"><title>Node27&#45;&gt;Node10</title>
<path fill="none" stroke="midnightblue" d="M712.686,-112.202C705.878,-98.4308 695.715,-71.7363 709.5,-56 729.578,-33.0811 935.44,-17.9829 1016.22,-12.9002"/>
<polygon fill="midnightblue" stroke="midnightblue" points="1016.55,-16.3865 1026.32,-12.2763 1016.12,-9.3998 1016.55,-16.3865"/>
</g>
<!-- Node28 -->
<g id="node28" class="node"><title>Node28</title>
<polygon fill="white" stroke="#bfbfbf" points="719,-56.5 719,-75.5 772,-75.5 772,-56.5 719,-56.5"/>
<text text-anchor="middle" x="745.5" y="-63.5" font-family="Helvetica,sans-Serif" font-size="10.00">TError.h</text>
</g>
<!-- Node27&#45;&gt;Node28 -->
<g id="edge30" class="edge"><title>Node27&#45;&gt;Node28</title>
<path fill="none" stroke="midnightblue" d="M722.124,-112.083C725.956,-104.691 731.524,-93.9533 736.265,-84.8111"/>
<polygon fill="midnightblue" stroke="midnightblue" points="739.466,-86.2398 740.962,-75.7511 733.252,-83.0175 739.466,-86.2398"/>
</g>
<!-- Node29 -->
<g id="node29" class="node"><title>Node29</title>
<polygon fill="white" stroke="#bfbfbf" points="96,-56.5 96,-75.5 141,-75.5 141,-56.5 96,-56.5"/>
<text text-anchor="middle" x="118.5" y="-63.5" font-family="Helvetica,sans-Serif" font-size="10.00">cstdio</text>
</g>
<!-- Node27&#45;&gt;Node29 -->
<g id="edge31" class="edge"><title>Node27&#45;&gt;Node29</title>
<path fill="none" stroke="midnightblue" d="M676.799,-117.331C564.645,-107.22 252.726,-79.1005 151.021,-69.9318"/>
<polygon fill="midnightblue" stroke="midnightblue" points="151.305,-66.4433 141.031,-69.0312 150.677,-73.415 151.305,-66.4433"/>
</g>
<!-- Node30 -->
<g id="node30" class="node"><title>Node30</title>
<polygon fill="white" stroke="#bfbfbf" points="790,-56.5 790,-75.5 849,-75.5 849,-56.5 790,-56.5"/>
<text text-anchor="middle" x="819.5" y="-63.5" font-family="Helvetica,sans-Serif" font-size="10.00">iostream</text>
</g>
<!-- Node27&#45;&gt;Node30 -->
<g id="edge32" class="edge"><title>Node27&#45;&gt;Node30</title>
<path fill="none" stroke="midnightblue" d="M733.888,-112.324C750.171,-103.703 775.367,-90.3643 794.216,-80.3855"/>
<polygon fill="midnightblue" stroke="midnightblue" points="795.952,-83.4267 803.153,-75.6545 792.677,-77.2402 795.952,-83.4267"/>
</g>
<!-- Node31 -->
<g id="node31" class="node"><title>Node31</title>
<g id="a_node31"><a xlink:href="string_8h.html" target="_top" xlink:title="core/util/string.h">
<polygon fill="white" stroke="black" points="1119.5,-56.5 1119.5,-75.5 1213.5,-75.5 1213.5,-56.5 1119.5,-56.5"/>
<text text-anchor="middle" x="1166.5" y="-63.5" font-family="Helvetica,sans-Serif" font-size="10.00">core/util/string.h</text>
</a>
</g>
</g>
<!-- Node27&#45;&gt;Node31 -->
<g id="edge34" class="edge"><title>Node27&#45;&gt;Node31</title>
<path fill="none" stroke="midnightblue" d="M758.138,-116.113C838.349,-106.466 1017.21,-84.9545 1109.29,-73.88"/>
<polygon fill="midnightblue" stroke="midnightblue" points="1109.76,-77.3489 1119.27,-72.6798 1108.93,-70.399 1109.76,-77.3489"/>
</g>
<!-- Node31&#45;&gt;Node9 -->
<g id="edge35" class="edge"><title>Node31&#45;&gt;Node9</title>
<path fill="none" stroke="midnightblue" d="M1172.61,-56.083C1177.78,-48.5341 1185.35,-37.4948 1191.69,-28.2298"/>
<polygon fill="midnightblue" stroke="midnightblue" points="1194.74,-29.9787 1197.5,-19.7511 1188.96,-26.0221 1194.74,-29.9787"/>
</g>
<!-- Node31&#45;&gt;Node10 -->
<g id="edge36" class="edge"><title>Node31&#45;&gt;Node10</title>
<path fill="none" stroke="midnightblue" d="M1147.8,-56.4435C1128.56,-47.6356 1098.35,-33.8116 1076.3,-23.722"/>
<polygon fill="midnightblue" stroke="midnightblue" points="1077.66,-20.4951 1067.11,-19.5164 1074.75,-26.8603 1077.66,-20.4951"/>
</g>
<!-- Node32&#45;&gt;Node25 -->
<g id="edge38" class="edge"><title>Node32&#45;&gt;Node25</title>
<path fill="none" stroke="midnightblue" d="M897.225,-168.083C891.858,-160.455 883.982,-149.264 877.421,-139.941"/>
<polygon fill="midnightblue" stroke="midnightblue" points="880.275,-137.915 871.658,-131.751 874.551,-141.943 880.275,-137.915"/>
</g>
<!-- Node33&#45;&gt;Node10 -->
<g id="edge42" class="edge"><title>Node33&#45;&gt;Node10</title>
<path fill="none" stroke="midnightblue" d="M245.754,-296.903C235.159,-276.877 210.5,-225.298 210.5,-179 210.5,-179 210.5,-179 210.5,-121 210.5,-38.2471 861.211,-15.9216 1015.83,-11.7848"/>
<polygon fill="midnightblue" stroke="midnightblue" points="1016.18,-15.2769 1026.09,-11.5178 1016,-8.27928 1016.18,-15.2769"/>
</g>
<!-- Node33&#45;&gt;Node13 -->
<g id="edge43" class="edge"><title>Node33&#45;&gt;Node13</title>
<path fill="none" stroke="midnightblue" d="M253.549,-296.791C260.072,-279.591 277.139,-241.424 305.5,-224 359.555,-190.79 551.823,-181.972 630.533,-179.729"/>
<polygon fill="midnightblue" stroke="midnightblue" points="630.955,-183.219 640.859,-179.454 630.769,-176.222 630.955,-183.219"/>
</g>
<!-- Node33&#45;&gt;Node20 -->
<g id="edge41" class="edge"><title>Node33&#45;&gt;Node20</title>
<path fill="none" stroke="midnightblue" d="M263.447,-296.734C279.353,-285.964 306.549,-267.55 325.469,-254.739"/>
<polygon fill="midnightblue" stroke="midnightblue" points="327.44,-257.632 333.758,-249.127 323.515,-251.836 327.44,-257.632"/>
</g>
<!-- Node34 -->
<g id="node34" class="node"><title>Node34</title>
<g id="a_node34"><a xlink:href="random_8h.html" target="_top" xlink:title="core/util/random.h">
<polygon fill="white" stroke="black" points="40.5,-230 40.5,-249 144.5,-249 144.5,-230 40.5,-230"/>
<text text-anchor="middle" x="92.5" y="-237" font-family="Helvetica,sans-Serif" font-size="10.00">core/util/random.h</text>
</a>
</g>
</g>
<!-- Node33&#45;&gt;Node34 -->
<g id="edge44" class="edge"><title>Node33&#45;&gt;Node34</title>
<path fill="none" stroke="midnightblue" d="M229.519,-296.869C202.25,-285.65 154.428,-265.977 123.109,-253.092"/>
<polygon fill="midnightblue" stroke="midnightblue" points="124.148,-249.735 113.568,-249.167 121.484,-256.209 124.148,-249.735"/>
</g>
<!-- Node33&#45;&gt;Node36 -->
<g id="edge50" class="edge"><title>Node33&#45;&gt;Node36</title>
<path fill="none" stroke="midnightblue" d="M252.631,-296.805C257.608,-276.494 270.092,-225.553 276.899,-197.777"/>
<polygon fill="midnightblue" stroke="midnightblue" points="280.374,-198.301 279.354,-187.756 273.575,-196.635 280.374,-198.301"/>
</g>
<!-- Node34&#45;&gt;Node2 -->
<g id="edge45" class="edge"><title>Node34&#45;&gt;Node2</title>
<path fill="none" stroke="midnightblue" d="M82.1842,-229.975C70.8494,-220.608 52.4267,-205.384 38.661,-194.008"/>
<polygon fill="midnightblue" stroke="midnightblue" points="40.7348,-191.181 30.7967,-187.509 36.2756,-196.577 40.7348,-191.181"/>
</g>
<!-- Node34&#45;&gt;Node29 -->
<g id="edge46" class="edge"><title>Node34&#45;&gt;Node29</title>
<path fill="none" stroke="midnightblue" d="M92.3647,-229.773C92.2716,-216.409 92.5386,-190.099 95.5,-168 99.43,-138.673 107.809,-105.324 113.295,-85.2362"/>
<polygon fill="midnightblue" stroke="midnightblue" points="116.681,-86.1233 115.998,-75.5505 109.938,-84.2414 116.681,-86.1233"/>
</g>
<!-- Node35 -->
<g id="node35" class="node"><title>Node35</title>
<polygon fill="white" stroke="#bfbfbf" points="105,-168.5 105,-187.5 182,-187.5 182,-168.5 105,-168.5"/>
<text text-anchor="middle" x="143.5" y="-175.5" font-family="Helvetica,sans-Serif" font-size="10.00">TRandom3.h</text>
</g>
<!-- Node34&#45;&gt;Node35 -->
<g id="edge47" class="edge"><title>Node34&#45;&gt;Node35</title>
<path fill="none" stroke="midnightblue" d="M99.8071,-229.975C107.533,-220.962 119.908,-206.525 129.518,-195.312"/>
<polygon fill="midnightblue" stroke="midnightblue" points="132.356,-197.379 136.206,-187.509 127.041,-192.824 132.356,-197.379"/>
</g>
<!-- Node34&#45;&gt;Node36 -->
<g id="edge48" class="edge"><title>Node34&#45;&gt;Node36</title>
<path fill="none" stroke="midnightblue" d="M119.579,-229.975C152.42,-219.636 207.93,-202.161 244.648,-190.602"/>
<polygon fill="midnightblue" stroke="midnightblue" points="245.984,-193.85 254.471,-187.509 243.882,-187.174 245.984,-193.85"/>
</g>
<!-- Node36&#45;&gt;Node27 -->
<g id="edge49" class="edge"><title>Node36&#45;&gt;Node27</title>
<path fill="none" stroke="midnightblue" d="M324.899,-171.625C406.035,-161.576 580.292,-139.994 666.731,-129.288"/>
<polygon fill="midnightblue" stroke="midnightblue" points="667.331,-132.74 676.825,-128.038 666.47,-125.794 667.331,-132.74"/>
</g>
<!-- Node37&#45;&gt;Node10 -->
<g id="edge55" class="edge"><title>Node37&#45;&gt;Node10</title>
<path fill="none" stroke="midnightblue" d="M1048.5,-224.269C1048.5,-184.895 1048.5,-74.4866 1048.5,-29.9655"/>
<polygon fill="midnightblue" stroke="midnightblue" points="1052,-29.927 1048.5,-19.927 1045,-29.927 1052,-29.927"/>
</g>
<!-- Node37&#45;&gt;Node23 -->
<g id="edge54" class="edge"><title>Node37&#45;&gt;Node23</title>
<path fill="none" stroke="midnightblue" d="M1035.94,-224.399C1028.16,-215.664 1018.14,-204.413 1010.02,-195.296"/>
<polygon fill="midnightblue" stroke="midnightblue" points="1012.48,-192.797 1003.21,-187.658 1007.25,-197.453 1012.48,-192.797"/>
</g>
<!-- Node39 -->
<g id="node39" class="node"><title>Node39</title>
<polygon fill="white" stroke="#bfbfbf" points="733,-297 733,-316 810,-316 810,-297 733,-297"/>
<text text-anchor="middle" x="771.5" y="-304" font-family="Helvetica,sans-Serif" font-size="10.00">cpp_magic.h</text>
</g>
<!-- Node38&#45;&gt;Node39 -->
<g id="edge57" class="edge"><title>Node38&#45;&gt;Node39</title>
<path fill="none" stroke="midnightblue" d="M771.5,-363.734C771.5,-354.183 771.5,-338.618 771.5,-326.283"/>
<polygon fill="midnightblue" stroke="midnightblue" points="775,-326.127 771.5,-316.127 768,-326.127 775,-326.127"/>
</g>
</g>
</svg>
