<?xml version="1.0" encoding="UTF-8" standalone="no"?>
<!DOCTYPE svg PUBLIC "-//W3C//DTD SVG 1.1//EN"
 "http://www.w3.org/Graphics/SVG/1.1/DTD/svg11.dtd">
<!-- Generated by graphviz version 2.43.0 (0)
 -->
<!-- Title: neuroscience/new_agent_event/new_neurite_extension_event.h Pages: 1 -->
<svg width="850pt" height="307pt"
 viewBox="0.00 0.00 850.00 307.00" xmlns="http://www.w3.org/2000/svg" xmlns:xlink="http://www.w3.org/1999/xlink">
<g id="graph0" class="graph" transform="scale(1 1) rotate(0) translate(4 303)">
<title>neuroscience/new_agent_event/new_neurite_extension_event.h</title>
<polygon fill="white" stroke="transparent" points="-4,4 -4,-303 846,-303 846,4 -4,4"/>
<!-- Node1 -->
<g id="node1" class="node">
<title>Node1</title>
<g id="a_node1"><a xlink:title=" ">
<polygon fill="#bfbfbf" stroke="black" points="543,-257.5 543,-298.5 709,-298.5 709,-257.5 543,-257.5"/>
<text text-anchor="start" x="551" y="-286.5" font-family="Helvetica,sans-Serif" font-size="10.00">neuroscience/new_agent</text>
<text text-anchor="start" x="551" y="-275.5" font-family="Helvetica,sans-Serif" font-size="10.00">_event/new_neurite_extension</text>
<text text-anchor="middle" x="626" y="-264.5" font-family="Helvetica,sans-Serif" font-size="10.00">_event.h</text>
</a>
</g>
</g>
<!-- Node2 -->
<g id="node2" class="node">
<title>Node2</title>
<g id="a_node2"><a xlink:href="neurite__element_8h.html" target="_top" xlink:title=" ">
<polygon fill="white" stroke="black" points="435.5,-190.5 435.5,-220.5 554.5,-220.5 554.5,-190.5 435.5,-190.5"/>
<text text-anchor="start" x="443.5" y="-208.5" font-family="Helvetica,sans-Serif" font-size="10.00">neuroscience/neurite</text>
<text text-anchor="middle" x="495" y="-197.5" font-family="Helvetica,sans-Serif" font-size="10.00">_element.h</text>
</a>
</g>
</g>
<!-- Node1&#45;&gt;Node2 -->
<g id="edge1" class="edge">
<title>Node1&#45;&gt;Node2</title>
<path fill="none" stroke="midnightblue" d="M580.63,-252.58C560.83,-241.93 538.31,-229.81 521.33,-220.67"/>
<polygon fill="midnightblue" stroke="midnightblue" points="579.04,-255.7 589.51,-257.36 582.36,-249.54 579.04,-255.7"/>
</g>
<!-- Node10 -->
<g id="node10" class="node">
<title>Node10</title>
<g id="a_node10"><a xlink:href="neuron__soma_8cc.html" target="_top" xlink:title=" ">
<polygon fill="white" stroke="black" points="548,-123.5 548,-153.5 666,-153.5 666,-123.5 548,-123.5"/>
<text text-anchor="start" x="556" y="-141.5" font-family="Helvetica,sans-Serif" font-size="10.00">neuroscience/neuron</text>
<text text-anchor="middle" x="607" y="-130.5" font-family="Helvetica,sans-Serif" font-size="10.00">_soma.cc</text>
</a>
</g>
</g>
<!-- Node1&#45;&gt;Node10 -->
<g id="edge11" class="edge">
<title>Node1&#45;&gt;Node10</title>
<path fill="none" stroke="midnightblue" d="M621.9,-247.34C617.91,-218.42 612,-175.7 608.96,-153.72"/>
<polygon fill="midnightblue" stroke="midnightblue" points="618.44,-247.87 623.28,-257.3 625.38,-246.91 618.44,-247.87"/>
</g>
<!-- Node11 -->
<g id="node11" class="node">
<title>Node11</title>
<g id="a_node11"><a xlink:href="neuroscience_8h.html" target="_top" xlink:title=" ">
<polygon fill="white" stroke="black" points="684,-129 684,-148 842,-148 842,-129 684,-129"/>
<text text-anchor="middle" x="763" y="-136" font-family="Helvetica,sans-Serif" font-size="10.00">neuroscience/neuroscience.h</text>
</a>
</g>
</g>
<!-- Node1&#45;&gt;Node11 -->
<g id="edge12" class="edge">
<title>Node1&#45;&gt;Node11</title>
<path fill="none" stroke="midnightblue" d="M633.33,-247.57C639.13,-229.21 648.84,-206.1 664,-190 683.31,-169.49 712.8,-155.95 734.57,-148.1"/>
<polygon fill="midnightblue" stroke="midnightblue" points="629.96,-246.63 630.49,-257.21 636.67,-248.6 629.96,-246.63"/>
</g>
<!-- Node12 -->
<g id="node12" class="node">
<title>Node12</title>
<g id="a_node12"><a xlink:href="new__agent__event_8cc.html" target="_top" xlink:title=" ">
<polygon fill="white" stroke="black" points="673,-190.5 673,-220.5 825,-220.5 825,-190.5 673,-190.5"/>
<text text-anchor="start" x="681" y="-208.5" font-family="Helvetica,sans-Serif" font-size="10.00">neuroscience/new_agent</text>
<text text-anchor="middle" x="749" y="-197.5" font-family="Helvetica,sans-Serif" font-size="10.00">_event/new_agent_event.cc</text>
</a>
</g>
</g>
<!-- Node1&#45;&gt;Node12 -->
<g id="edge13" class="edge">
<title>Node1&#45;&gt;Node12</title>
<path fill="none" stroke="midnightblue" d="M669.1,-252.3C687.57,-241.71 708.48,-229.72 724.28,-220.67"/>
<polygon fill="midnightblue" stroke="midnightblue" points="667.2,-249.35 660.26,-257.36 670.68,-255.43 667.2,-249.35"/>
</g>
<!-- Node3 -->
<g id="node3" class="node">
<title>Node3</title>
<g id="a_node3"><a xlink:href="root_2adaptor_8h.html" target="_top" xlink:title=" ">
<polygon fill="white" stroke="black" points="135.5,-123.5 135.5,-153.5 238.5,-153.5 238.5,-123.5 135.5,-123.5"/>
<text text-anchor="start" x="143.5" y="-141.5" font-family="Helvetica,sans-Serif" font-size="10.00">core/visualization</text>
<text text-anchor="middle" x="187" y="-130.5" font-family="Helvetica,sans-Serif" font-size="10.00">/root/adaptor.h</text>
</a>
</g>
</g>
<!-- Node2&#45;&gt;Node3 -->
<g id="edge2" class="edge">
<title>Node2&#45;&gt;Node3</title>
<path fill="none" stroke="midnightblue" d="M425.48,-191.04C375.68,-181.23 307.09,-167.37 247,-154 244.28,-153.39 241.49,-152.76 238.68,-152.12"/>
<polygon fill="midnightblue" stroke="midnightblue" points="425,-194.52 435.49,-193.01 426.35,-187.65 425,-194.52"/>
</g>
<!-- Node8 -->
<g id="node8" class="node">
<title>Node8</title>
<g id="a_node8"><a xlink:href="interaction__force_8cc.html" target="_top" xlink:title=" ">
<polygon fill="white" stroke="black" points="256.5,-129 256.5,-148 393.5,-148 393.5,-129 256.5,-129"/>
<text text-anchor="middle" x="325" y="-136" font-family="Helvetica,sans-Serif" font-size="10.00">core/interaction_force.cc</text>
</a>
</g>
</g>
<!-- Node2&#45;&gt;Node8 -->
<g id="edge7" class="edge">
<title>Node2&#45;&gt;Node8</title>
<path fill="none" stroke="midnightblue" d="M448.67,-186.78C415.7,-174.18 372.88,-157.81 347.25,-148.01"/>
<polygon fill="midnightblue" stroke="midnightblue" points="447.52,-190.09 458.11,-190.4 450.02,-183.56 447.52,-190.09"/>
</g>
<!-- Node9 -->
<g id="node9" class="node">
<title>Node9</title>
<g id="a_node9"><a xlink:href="neuron__or__neurite_8cc.html" target="_top" xlink:title=" ">
<polygon fill="white" stroke="black" points="412,-123.5 412,-153.5 530,-153.5 530,-123.5 412,-123.5"/>
<text text-anchor="start" x="420" y="-141.5" font-family="Helvetica,sans-Serif" font-size="10.00">neuroscience/neuron</text>
<text text-anchor="middle" x="471" y="-130.5" font-family="Helvetica,sans-Serif" font-size="10.00">_or_neurite.cc</text>
</a>
</g>
</g>
<!-- Node2&#45;&gt;Node9 -->
<g id="edge8" class="edge">
<title>Node2&#45;&gt;Node9</title>
<path fill="none" stroke="midnightblue" d="M486.32,-180.99C482.93,-171.8 479.15,-161.58 476.2,-153.58"/>
<polygon fill="midnightblue" stroke="midnightblue" points="483.05,-182.23 489.79,-190.4 489.61,-179.8 483.05,-182.23"/>
</g>
<!-- Node2&#45;&gt;Node10 -->
<g id="edge9" class="edge">
<title>Node2&#45;&gt;Node10</title>
<path fill="none" stroke="midnightblue" d="M528.09,-185.3C545.62,-175.12 566.76,-162.85 582.75,-153.58"/>
<polygon fill="midnightblue" stroke="midnightblue" points="526.19,-182.35 519.3,-190.4 529.71,-188.4 526.19,-182.35"/>
</g>
<!-- Node2&#45;&gt;Node11 -->
<g id="edge10" class="edge">
<title>Node2&#45;&gt;Node11</title>
<path fill="none" stroke="midnightblue" d="M562.74,-188.07C615.3,-175.32 686.02,-158.17 727.84,-148.03"/>
<polygon fill="midnightblue" stroke="midnightblue" points="561.72,-184.72 552.82,-190.48 563.37,-191.52 561.72,-184.72"/>
</g>
<!-- Node4 -->
<g id="node4" class="node">
<title>Node4</title>
<g id="a_node4"><a xlink:href="notebook__util_8h.html" target="_top" xlink:title=" ">
<polygon fill="white" stroke="black" points="0,-56.5 0,-86.5 118,-86.5 118,-56.5 0,-56.5"/>
<text text-anchor="start" x="8" y="-74.5" font-family="Helvetica,sans-Serif" font-size="10.00">core/visualization</text>
<text text-anchor="middle" x="59" y="-63.5" font-family="Helvetica,sans-Serif" font-size="10.00">/root/notebook_util.h</text>
</a>
</g>
</g>
<!-- Node3&#45;&gt;Node4 -->
<g id="edge3" class="edge">
<title>Node3&#45;&gt;Node4</title>
<path fill="none" stroke="midnightblue" d="M150.28,-118.85C130.04,-108.58 105.33,-96.03 86.72,-86.58"/>
<polygon fill="midnightblue" stroke="midnightblue" points="148.72,-121.99 159.23,-123.4 151.89,-115.75 148.72,-121.99"/>
</g>
<!-- Node6 -->
<g id="node6" class="node">
<title>Node6</title>
<g id="a_node6"><a xlink:href="scheduler_8cc.html" target="_top" xlink:title=" ">
<polygon fill="white" stroke="black" points="136.5,-62 136.5,-81 237.5,-81 237.5,-62 136.5,-62"/>
<text text-anchor="middle" x="187" y="-69" font-family="Helvetica,sans-Serif" font-size="10.00">core/scheduler.cc</text>
</a>
</g>
</g>
<!-- Node3&#45;&gt;Node6 -->
<g id="edge5" class="edge">
<title>Node3&#45;&gt;Node6</title>
<path fill="none" stroke="midnightblue" d="M187,-113.25C187,-102.02 187,-89.38 187,-81.19"/>
<polygon fill="midnightblue" stroke="midnightblue" points="183.5,-113.4 187,-123.4 190.5,-113.4 183.5,-113.4"/>
</g>
<!-- Node7 -->
<g id="node7" class="node">
<title>Node7</title>
<g id="a_node7"><a xlink:href="simulation_8cc.html" target="_top" xlink:title=" ">
<polygon fill="white" stroke="black" points="256,-62 256,-81 362,-81 362,-62 256,-62"/>
<text text-anchor="middle" x="309" y="-69" font-family="Helvetica,sans-Serif" font-size="10.00">core/simulation.cc</text>
</a>
</g>
</g>
<!-- Node3&#45;&gt;Node7 -->
<g id="edge6" class="edge">
<title>Node3&#45;&gt;Node7</title>
<path fill="none" stroke="midnightblue" d="M222.4,-118.64C245.74,-106.2 275.19,-90.51 293.03,-81.01"/>
<polygon fill="midnightblue" stroke="midnightblue" points="220.65,-115.6 213.47,-123.4 223.94,-121.78 220.65,-115.6"/>
</g>
<!-- Node5 -->
<g id="node5" class="node">
<title>Node5</title>
<g id="a_node5"><a xlink:href="biodynamo_8h.html" target="_top" xlink:title=" ">
<polygon fill="white" stroke="black" points="19,-0.5 19,-19.5 99,-19.5 99,-0.5 19,-0.5"/>
<text text-anchor="middle" x="59" y="-7.5" font-family="Helvetica,sans-Serif" font-size="10.00">biodynamo.h</text>
</a>
</g>
</g>
<!-- Node4&#45;&gt;Node5 -->
<g id="edge4" class="edge">
<title>Node4&#45;&gt;Node5</title>
<path fill="none" stroke="midnightblue" d="M59,-46.29C59,-36.86 59,-26.65 59,-19.66"/>
<polygon fill="midnightblue" stroke="midnightblue" points="55.5,-46.4 59,-56.4 62.5,-46.4 55.5,-46.4"/>
</g>
</g>
</svg>
