<?xml version="1.0" encoding="UTF-8" standalone="no"?>
<!DOCTYPE svg PUBLIC "-//W3C//DTD SVG 1.1//EN"
 "http://www.w3.org/Graphics/SVG/1.1/DTD/svg11.dtd">
<!-- Generated by graphviz version 2.43.0 (0)
 -->
<!-- Title: core/operation/operation.h Pages: 1 -->
<svg width="712pt" height="196pt"
 viewBox="0.00 0.00 711.55 196.00" xmlns="http://www.w3.org/2000/svg" xmlns:xlink="http://www.w3.org/1999/xlink">
<g id="graph0" class="graph" transform="scale(1 1) rotate(0) translate(4 192)">
<title>core/operation/operation.h</title>
<polygon fill="white" stroke="transparent" points="-4,4 -4,-192 707.55,-192 707.55,4 -4,4"/>
<!-- Node1 -->
<g id="node1" class="node">
<title>Node1</title>
<g id="a_node1"><a xlink:title=" ">
<polygon fill="#bfbfbf" stroke="black" points="363.05,-168.5 363.05,-187.5 509.05,-187.5 509.05,-168.5 363.05,-168.5"/>
<text text-anchor="middle" x="436.05" y="-175.5" font-family="Helvetica,sans-Serif" font-size="10.00">core/operation/operation.h</text>
</a>
</g>
</g>
<!-- Node2 -->
<g id="node2" class="node">
<title>Node2</title>
<g id="a_node2"><a xlink:title=" ">
<polygon fill="white" stroke="#bfbfbf" points="14.55,-56.5 14.55,-75.5 79.55,-75.5 79.55,-56.5 14.55,-56.5"/>
<text text-anchor="middle" x="47.05" y="-63.5" font-family="Helvetica,sans-Serif" font-size="10.00">functional</text>
</a>
</g>
</g>
<!-- Node1&#45;&gt;Node2 -->
<g id="edge1" class="edge">
<title>Node1&#45;&gt;Node2</title>
<path fill="none" stroke="midnightblue" d="M389.23,-168.43C347.41,-160.38 284.66,-147.29 231.05,-132 176.4,-116.41 114.37,-93.35 78.1,-79.3"/>
<polygon fill="midnightblue" stroke="midnightblue" points="79.16,-75.95 68.58,-75.58 76.62,-82.48 79.16,-75.95"/>
</g>
<!-- Node3 -->
<g id="node3" class="node">
<title>Node3</title>
<g id="a_node3"><a xlink:title=" ">
<polygon fill="white" stroke="#bfbfbf" points="570.05,-112.5 570.05,-131.5 602.05,-131.5 602.05,-112.5 570.05,-112.5"/>
<text text-anchor="middle" x="586.05" y="-119.5" font-family="Helvetica,sans-Serif" font-size="10.00">set</text>
</a>
</g>
</g>
<!-- Node1&#45;&gt;Node3 -->
<g id="edge2" class="edge">
<title>Node1&#45;&gt;Node3</title>
<path fill="none" stroke="midnightblue" d="M459.81,-168.44C487.18,-158.59 531.99,-142.46 560.21,-132.3"/>
<polygon fill="midnightblue" stroke="midnightblue" points="561.56,-135.53 569.79,-128.85 559.19,-128.95 561.56,-135.53"/>
</g>
<!-- Node4 -->
<g id="node4" class="node">
<title>Node4</title>
<g id="a_node4"><a xlink:title=" ">
<polygon fill="white" stroke="#bfbfbf" points="86.05,-0.5 86.05,-19.5 130.05,-19.5 130.05,-0.5 86.05,-0.5"/>
<text text-anchor="middle" x="108.05" y="-7.5" font-family="Helvetica,sans-Serif" font-size="10.00">string</text>
</a>
</g>
</g>
<!-- Node1&#45;&gt;Node4 -->
<g id="edge3" class="edge">
<title>Node1&#45;&gt;Node4</title>
<path fill="none" stroke="midnightblue" d="M362.67,-171.2C250.75,-160.59 46.02,-133.63 5.05,-76 -16.12,-46.23 38.19,-27.04 75.74,-17.7"/>
<polygon fill="midnightblue" stroke="midnightblue" points="76.88,-21.03 85.82,-15.33 75.28,-14.22 76.88,-21.03"/>
</g>
<!-- Node5 -->
<g id="node5" class="node">
<title>Node5</title>
<g id="a_node5"><a xlink:title=" ">
<polygon fill="white" stroke="#bfbfbf" points="447.55,-0.5 447.55,-19.5 494.55,-19.5 494.55,-0.5 447.55,-0.5"/>
<text text-anchor="middle" x="471.05" y="-7.5" font-family="Helvetica,sans-Serif" font-size="10.00">vector</text>
</a>
</g>
</g>
<!-- Node1&#45;&gt;Node5 -->
<g id="edge4" class="edge">
<title>Node1&#45;&gt;Node5</title>
<path fill="none" stroke="midnightblue" d="M447.68,-168.29C467.66,-152.51 507.82,-117 523.05,-76 526.14,-67.67 526.74,-64.08 523.05,-56 517.27,-43.36 505.99,-32.91 495.42,-25.27"/>
<polygon fill="midnightblue" stroke="midnightblue" points="497.09,-22.18 486.83,-19.53 493.2,-28 497.09,-22.18"/>
</g>
<!-- Node6 -->
<g id="node6" class="node">
<title>Node6</title>
<g id="a_node6"><a xlink:href="functor_8h.html" target="_top" xlink:title=" ">
<polygon fill="white" stroke="black" points="620.55,-112.5 620.55,-131.5 703.55,-131.5 703.55,-112.5 620.55,-112.5"/>
<text text-anchor="middle" x="662.05" y="-119.5" font-family="Helvetica,sans-Serif" font-size="10.00">core/functor.h</text>
</a>
</g>
</g>
<!-- Node1&#45;&gt;Node6 -->
<g id="edge5" class="edge">
<title>Node1&#45;&gt;Node6</title>
<path fill="none" stroke="midnightblue" d="M471.86,-168.44C511.03,-159.08 573.92,-144.06 616.56,-133.87"/>
<polygon fill="midnightblue" stroke="midnightblue" points="617.49,-137.24 626.4,-131.52 615.86,-130.44 617.49,-137.24"/>
</g>
<!-- Node8 -->
<g id="node8" class="node">
<title>Node8</title>
<g id="a_node8"><a xlink:href="log_8h.html" target="_top" xlink:title=" ">
<polygon fill="white" stroke="black" points="240.55,-112.5 240.55,-131.5 323.55,-131.5 323.55,-112.5 240.55,-112.5"/>
<text text-anchor="middle" x="282.05" y="-119.5" font-family="Helvetica,sans-Serif" font-size="10.00">core/util/log.h</text>
</a>
</g>
</g>
<!-- Node1&#45;&gt;Node8 -->
<g id="edge7" class="edge">
<title>Node1&#45;&gt;Node8</title>
<path fill="none" stroke="midnightblue" d="M411.65,-168.44C385.85,-159.4 344.97,-145.06 316.03,-134.92"/>
<polygon fill="midnightblue" stroke="midnightblue" points="316.93,-131.52 306.33,-131.52 314.61,-138.13 316.93,-131.52"/>
</g>
<!-- Node7 -->
<g id="node7" class="node">
<title>Node7</title>
<g id="a_node7"><a xlink:title=" ">
<polygon fill="white" stroke="#bfbfbf" points="639.55,-56.5 639.55,-75.5 684.55,-75.5 684.55,-56.5 639.55,-56.5"/>
<text text-anchor="middle" x="662.05" y="-63.5" font-family="Helvetica,sans-Serif" font-size="10.00">utility</text>
</a>
</g>
</g>
<!-- Node6&#45;&gt;Node7 -->
<g id="edge6" class="edge">
<title>Node6&#45;&gt;Node7</title>
<path fill="none" stroke="midnightblue" d="M662.05,-112.08C662.05,-105.01 662.05,-94.86 662.05,-85.99"/>
<polygon fill="midnightblue" stroke="midnightblue" points="665.55,-85.75 662.05,-75.75 658.55,-85.75 665.55,-85.75"/>
</g>
<!-- Node8&#45;&gt;Node2 -->
<g id="edge11" class="edge">
<title>Node8&#45;&gt;Node2</title>
<path fill="none" stroke="midnightblue" d="M244.81,-112.44C202.55,-102.73 133.74,-86.92 89.45,-76.74"/>
<polygon fill="midnightblue" stroke="midnightblue" points="90.1,-73.3 79.57,-74.47 88.53,-80.12 90.1,-73.3"/>
</g>
<!-- Node8&#45;&gt;Node4 -->
<g id="edge13" class="edge">
<title>Node8&#45;&gt;Node4</title>
<path fill="none" stroke="midnightblue" d="M240.32,-119.58C205.54,-116.18 156.99,-105.89 127.05,-76 114.97,-63.94 110.48,-44.65 108.85,-30.21"/>
<polygon fill="midnightblue" stroke="midnightblue" points="112.32,-29.61 108.08,-19.91 105.34,-30.14 112.32,-29.61"/>
</g>
<!-- Node9 -->
<g id="node9" class="node">
<title>Node9</title>
<g id="a_node9"><a xlink:title=" ">
<polygon fill="white" stroke="#bfbfbf" points="396.05,-56.5 396.05,-75.5 450.05,-75.5 450.05,-56.5 396.05,-56.5"/>
<text text-anchor="middle" x="423.05" y="-63.5" font-family="Helvetica,sans-Serif" font-size="10.00">TError.h</text>
</a>
</g>
</g>
<!-- Node8&#45;&gt;Node9 -->
<g id="edge8" class="edge">
<title>Node8&#45;&gt;Node9</title>
<path fill="none" stroke="midnightblue" d="M304.39,-112.44C327.8,-103.48 364.78,-89.31 391.24,-79.18"/>
<polygon fill="midnightblue" stroke="midnightblue" points="392.72,-82.36 400.81,-75.52 390.22,-75.82 392.72,-82.36"/>
</g>
<!-- Node10 -->
<g id="node10" class="node">
<title>Node10</title>
<g id="a_node10"><a xlink:title=" ">
<polygon fill="white" stroke="#bfbfbf" points="468.05,-56.5 468.05,-75.5 514.05,-75.5 514.05,-56.5 468.05,-56.5"/>
<text text-anchor="middle" x="491.05" y="-63.5" font-family="Helvetica,sans-Serif" font-size="10.00">cstdio</text>
</a>
</g>
</g>
<!-- Node8&#45;&gt;Node10 -->
<g id="edge9" class="edge">
<title>Node8&#45;&gt;Node10</title>
<path fill="none" stroke="midnightblue" d="M316.71,-112.46C350.42,-104.1 403.31,-90.81 458.11,-76.2"/>
<polygon fill="midnightblue" stroke="midnightblue" points="459.24,-79.52 467.99,-73.56 457.43,-72.76 459.24,-79.52"/>
</g>
<!-- Node11 -->
<g id="node11" class="node">
<title>Node11</title>
<g id="a_node11"><a xlink:title=" ">
<polygon fill="white" stroke="#bfbfbf" points="136.55,-56.5 136.55,-75.5 185.55,-75.5 185.55,-56.5 136.55,-56.5"/>
<text text-anchor="middle" x="161.05" y="-63.5" font-family="Helvetica,sans-Serif" font-size="10.00">cstdlib</text>
</a>
</g>
</g>
<!-- Node8&#45;&gt;Node11 -->
<g id="edge10" class="edge">
<title>Node8&#45;&gt;Node11</title>
<path fill="none" stroke="midnightblue" d="M262.87,-112.44C243.14,-103.64 212.16,-89.81 189.55,-79.72"/>
<polygon fill="midnightblue" stroke="midnightblue" points="190.69,-76.4 180.13,-75.52 187.84,-82.79 190.69,-76.4"/>
</g>
<!-- Node12 -->
<g id="node12" class="node">
<title>Node12</title>
<g id="a_node12"><a xlink:title=" ">
<polygon fill="white" stroke="#bfbfbf" points="204.05,-56.5 204.05,-75.5 264.05,-75.5 264.05,-56.5 204.05,-56.5"/>
<text text-anchor="middle" x="234.05" y="-63.5" font-family="Helvetica,sans-Serif" font-size="10.00">iostream</text>
</a>
</g>
</g>
<!-- Node8&#45;&gt;Node12 -->
<g id="edge12" class="edge">
<title>Node8&#45;&gt;Node12</title>
<path fill="none" stroke="midnightblue" d="M274.12,-112.08C267.2,-104.3 256.98,-92.8 248.6,-83.37"/>
<polygon fill="midnightblue" stroke="midnightblue" points="251.09,-80.9 241.83,-75.75 245.85,-85.55 251.09,-80.9"/>
</g>
<!-- Node13 -->
<g id="node13" class="node">
<title>Node13</title>
<g id="a_node13"><a xlink:href="string_8h.html" target="_top" xlink:title=" ">
<polygon fill="white" stroke="black" points="282.05,-56.5 282.05,-75.5 378.05,-75.5 378.05,-56.5 282.05,-56.5"/>
<text text-anchor="middle" x="330.05" y="-63.5" font-family="Helvetica,sans-Serif" font-size="10.00">core/util/string.h</text>
</a>
</g>
</g>
<!-- Node8&#45;&gt;Node13 -->
<g id="edge14" class="edge">
<title>Node8&#45;&gt;Node13</title>
<path fill="none" stroke="midnightblue" d="M289.97,-112.08C296.89,-104.3 307.11,-92.8 315.5,-83.37"/>
<polygon fill="midnightblue" stroke="midnightblue" points="318.24,-85.55 322.27,-75.75 313.01,-80.9 318.24,-85.55"/>
</g>
<!-- Node13&#45;&gt;Node4 -->
<g id="edge16" class="edge">
<title>Node13&#45;&gt;Node4</title>
<path fill="none" stroke="midnightblue" d="M294.87,-56.44C252.27,-46.08 181.11,-28.77 140.01,-18.77"/>
<polygon fill="midnightblue" stroke="midnightblue" points="140.79,-15.36 130.24,-16.4 139.13,-22.16 140.79,-15.36"/>
</g>
<!-- Node13&#45;&gt;Node5 -->
<g id="edge17" class="edge">
<title>Node13&#45;&gt;Node5</title>
<path fill="none" stroke="midnightblue" d="M352.39,-56.44C375.8,-47.48 412.78,-33.31 439.24,-23.18"/>
<polygon fill="midnightblue" stroke="midnightblue" points="440.72,-26.36 448.81,-19.52 438.22,-19.82 440.72,-26.36"/>
</g>
<!-- Node14 -->
<g id="node14" class="node">
<title>Node14</title>
<g id="a_node14"><a xlink:title=" ">
<polygon fill="white" stroke="#bfbfbf" points="302.05,-0.5 302.05,-19.5 358.05,-19.5 358.05,-0.5 302.05,-0.5"/>
<text text-anchor="middle" x="330.05" y="-7.5" font-family="Helvetica,sans-Serif" font-size="10.00">sstream</text>
</a>
</g>
</g>
<!-- Node13&#45;&gt;Node14 -->
<g id="edge15" class="edge">
<title>Node13&#45;&gt;Node14</title>
<path fill="none" stroke="midnightblue" d="M330.05,-56.08C330.05,-49.01 330.05,-38.86 330.05,-29.99"/>
<polygon fill="midnightblue" stroke="midnightblue" points="333.55,-29.75 330.05,-19.75 326.55,-29.75 333.55,-29.75"/>
</g>
</g>
</svg>
