<?xml version="1.0" encoding="UTF-8" standalone="no"?>
<!DOCTYPE svg PUBLIC "-//W3C//DTD SVG 1.1//EN"
 "http://www.w3.org/Graphics/SVG/1.1/DTD/svg11.dtd">
<!-- Generated by graphviz version 2.40.1 (20161225.0304)
 -->
<!-- Title: core/operation/operation_registry.h Pages: 1 -->
<svg width="1121pt" height="240pt"
 viewBox="0.00 0.00 1120.50 240.00" xmlns="http://www.w3.org/2000/svg" xmlns:xlink="http://www.w3.org/1999/xlink">
<g id="graph0" class="graph" transform="scale(1 1) rotate(0) translate(4 236)">
<title>core/operation/operation_registry.h</title>
<polygon fill="#ffffff" stroke="transparent" points="-4,4 -4,-236 1116.5,-236 1116.5,4 -4,4"/>
<!-- Node13 -->
<g id="node1" class="node">
<title>Node13</title>
<polygon fill="#bfbfbf" stroke="#000000" points="559.5,-201.5 559.5,-231.5 680.5,-231.5 680.5,-201.5 559.5,-201.5"/>
<text text-anchor="start" x="567.5" y="-219.5" font-family="Helvetica,sans-Serif" font-size="10.00" fill="#000000">core/operation/operation</text>
<text text-anchor="middle" x="620" y="-208.5" font-family="Helvetica,sans-Serif" font-size="10.00" fill="#000000">_registry.h</text>
</g>
<!-- Node14 -->
<g id="node2" class="node">
<title>Node14</title>
<g id="a_node2"><a xlink:href="bound__space__op_8h.html" target="_top" xlink:title="core/operation/bound\l_space_op.h">
<polygon fill="#ffffff" stroke="#000000" points="323.5,-134.5 323.5,-164.5 430.5,-164.5 430.5,-134.5 323.5,-134.5"/>
<text text-anchor="start" x="331.5" y="-152.5" font-family="Helvetica,sans-Serif" font-size="10.00" fill="#000000">core/operation/bound</text>
<text text-anchor="middle" x="377" y="-141.5" font-family="Helvetica,sans-Serif" font-size="10.00" fill="#000000">_space_op.h</text>
</a>
</g>
</g>
<!-- Node13&#45;&gt;Node14 -->
<g id="edge1" class="edge">
<title>Node13&#45;&gt;Node14</title>
<path fill="none" stroke="#191970" d="M555.7728,-198.7913C516.7244,-188.0248 467.4423,-174.4368 430.5153,-164.2553"/>
<polygon fill="#191970" stroke="#191970" points="554.8954,-202.1799 565.4661,-201.4639 556.7561,-195.4317 554.8954,-202.1799"/>
</g>
<!-- Node16 -->
<g id="node4" class="node">
<title>Node16</title>
<g id="a_node4"><a xlink:href="mechanical__forces__op_8h.html" target="_top" xlink:title="core/operation/mechanical\l_forces_op.h">
<polygon fill="#ffffff" stroke="#000000" points="311.5,-67.5 311.5,-97.5 442.5,-97.5 442.5,-67.5 311.5,-67.5"/>
<text text-anchor="start" x="319.5" y="-85.5" font-family="Helvetica,sans-Serif" font-size="10.00" fill="#000000">core/operation/mechanical</text>
<text text-anchor="middle" x="377" y="-74.5" font-family="Helvetica,sans-Serif" font-size="10.00" fill="#000000">_forces_op.h</text>
</a>
</g>
</g>
<!-- Node13&#45;&gt;Node16 -->
<g id="edge13" class="edge">
<title>Node13&#45;&gt;Node16</title>
<path fill="none" stroke="#191970" d="M583.5911,-196.4227C534.5025,-169.3532 448.1992,-121.7621 404.3027,-97.5558"/>
<polygon fill="#191970" stroke="#191970" points="582.1502,-199.625 592.5972,-201.389 585.5305,-193.4952 582.1502,-199.625"/>
</g>
<!-- Node17 -->
<g id="node5" class="node">
<title>Node17</title>
<g id="a_node5"><a xlink:href="scheduler_8cc.html" target="_top" xlink:title="core/scheduler.cc">
<polygon fill="#ffffff" stroke="#000000" points="584,-6 584,-25 678,-25 678,-6 584,-6"/>
<text text-anchor="middle" x="631" y="-13" font-family="Helvetica,sans-Serif" font-size="10.00" fill="#000000">core/scheduler.cc</text>
</a>
</g>
</g>
<!-- Node13&#45;&gt;Node17 -->
<g id="edge24" class="edge">
<title>Node13&#45;&gt;Node17</title>
<path fill="none" stroke="#191970" d="M659.0033,-196.7614C716.063,-167.4917 816.5827,-114.2814 826,-98 832.8983,-86.0735 834.407,-77.9156 826,-67 808.1063,-43.767 730.1478,-28.8892 678.3853,-21.3792"/>
<polygon fill="#191970" stroke="#191970" points="657.2105,-193.7471 649.901,-201.4166 660.3979,-199.9793 657.2105,-193.7471"/>
</g>
<!-- Node19 -->
<g id="node7" class="node">
<title>Node19</title>
<g id="a_node7"><a xlink:href="diffusion__op_8h.html" target="_top" xlink:title="core/operation/diffusion_op.h">
<polygon fill="#ffffff" stroke="#000000" points="461,-73 461,-92 603,-92 603,-73 461,-73"/>
<text text-anchor="middle" x="532" y="-80" font-family="Helvetica,sans-Serif" font-size="10.00" fill="#000000">core/operation/diffusion_op.h</text>
</a>
</g>
</g>
<!-- Node13&#45;&gt;Node19 -->
<g id="edge8" class="edge">
<title>Node13&#45;&gt;Node19</title>
<path fill="none" stroke="#191970" d="M604.4481,-192.8187C584.8312,-162.9475 552.0082,-112.967 538.3072,-92.1042"/>
<polygon fill="#191970" stroke="#191970" points="601.6615,-194.9515 610.0763,-201.389 607.5126,-191.109 601.6615,-194.9515"/>
</g>
<!-- Node20 -->
<g id="node8" class="node">
<title>Node20</title>
<g id="a_node8"><a xlink:href="dividing__cell__op_8h.html" target="_top" xlink:title="core/operation/dividing\l_cell_op.h">
<polygon fill="#ffffff" stroke="#000000" points="0,-134.5 0,-164.5 114,-164.5 114,-134.5 0,-134.5"/>
<text text-anchor="start" x="8" y="-152.5" font-family="Helvetica,sans-Serif" font-size="10.00" fill="#000000">core/operation/dividing</text>
<text text-anchor="middle" x="57" y="-141.5" font-family="Helvetica,sans-Serif" font-size="10.00" fill="#000000">_cell_op.h</text>
</a>
</g>
</g>
<!-- Node13&#45;&gt;Node20 -->
<g id="edge11" class="edge">
<title>Node13&#45;&gt;Node20</title>
<path fill="none" stroke="#191970" d="M548.9744,-211.9984C452.175,-205.2137 273.623,-190.3845 123,-165 120.0984,-164.511 117.1341,-163.9697 114.147,-163.3909"/>
<polygon fill="#191970" stroke="#191970" points="549.0068,-215.509 559.2247,-212.7082 549.4904,-208.5257 549.0068,-215.509"/>
</g>
<!-- Node21 -->
<g id="node9" class="node">
<title>Node21</title>
<g id="a_node9"><a xlink:href="mechanical__forces__op__cuda_8h.html" target="_top" xlink:title="core/operation/mechanical\l_forces_op_cuda.h">
<polygon fill="#ffffff" stroke="#000000" points="132.5,-134.5 132.5,-164.5 263.5,-164.5 263.5,-134.5 132.5,-134.5"/>
<text text-anchor="start" x="140.5" y="-152.5" font-family="Helvetica,sans-Serif" font-size="10.00" fill="#000000">core/operation/mechanical</text>
<text text-anchor="middle" x="198" y="-141.5" font-family="Helvetica,sans-Serif" font-size="10.00" fill="#000000">_forces_op_cuda.h</text>
</a>
</g>
</g>
<!-- Node13&#45;&gt;Node21 -->
<g id="edge14" class="edge">
<title>Node13&#45;&gt;Node21</title>
<path fill="none" stroke="#191970" d="M549.1444,-205.2504C469.5055,-192.6063 341.2453,-172.2427 263.7565,-159.94"/>
<polygon fill="#191970" stroke="#191970" points="548.6631,-208.7178 559.0883,-206.8292 549.7608,-201.8044 548.6631,-208.7178"/>
</g>
<!-- Node22 -->
<g id="node10" class="node">
<title>Node22</title>
<g id="a_node10"><a xlink:href="visualization__op_8h.html" target="_top" xlink:title="core/operation/visualization_op.h">
<polygon fill="#ffffff" stroke="#000000" points="658.5,-73 658.5,-92 817.5,-92 817.5,-73 658.5,-73"/>
<text text-anchor="middle" x="738" y="-80" font-family="Helvetica,sans-Serif" font-size="10.00" fill="#000000">core/operation/visualization_op.h</text>
</a>
</g>
</g>
<!-- Node13&#45;&gt;Node22 -->
<g id="edge17" class="edge">
<title>Node13&#45;&gt;Node22</title>
<path fill="none" stroke="#191970" d="M640.1774,-193.5867C666.3975,-163.8114 711.0125,-113.1468 729.5426,-92.1042"/>
<polygon fill="#191970" stroke="#191970" points="637.2888,-191.5709 633.3067,-201.389 642.5423,-196.1971 637.2888,-191.5709"/>
</g>
<!-- Node23 -->
<g id="node11" class="node">
<title>Node23</title>
<g id="a_node11"><a xlink:href="operation__registry_8cc.html" target="_top" xlink:title="core/operation/operation\l_registry.cc">
<polygon fill="#ffffff" stroke="#000000" points="789.5,-134.5 789.5,-164.5 910.5,-164.5 910.5,-134.5 789.5,-134.5"/>
<text text-anchor="start" x="797.5" y="-152.5" font-family="Helvetica,sans-Serif" font-size="10.00" fill="#000000">core/operation/operation</text>
<text text-anchor="middle" x="850" y="-141.5" font-family="Helvetica,sans-Serif" font-size="10.00" fill="#000000">_registry.cc</text>
</a>
</g>
</g>
<!-- Node13&#45;&gt;Node23 -->
<g id="edge20" class="edge">
<title>Node13&#45;&gt;Node23</title>
<path fill="none" stroke="#191970" d="M681.6248,-198.5484C718.0307,-187.9432 763.6075,-174.6665 798.1584,-164.6017"/>
<polygon fill="#191970" stroke="#191970" points="680.2385,-195.3067 671.6165,-201.4639 682.1963,-202.0274 680.2385,-195.3067"/>
</g>
<!-- Node24 -->
<g id="node12" class="node">
<title>Node24</title>
<g id="a_node12"><a xlink:href="reduction__op_8h.html" target="_top" xlink:title="core/operation/reduction_op.h">
<polygon fill="#ffffff" stroke="#000000" points="967.5,-140 967.5,-159 1112.5,-159 1112.5,-140 967.5,-140"/>
<text text-anchor="middle" x="1040" y="-147" font-family="Helvetica,sans-Serif" font-size="10.00" fill="#000000">core/operation/reduction_op.h</text>
</a>
</g>
</g>
<!-- Node13&#45;&gt;Node24 -->
<g id="edge21" class="edge">
<title>Node13&#45;&gt;Node24</title>
<path fill="none" stroke="#191970" d="M690.6163,-206.0576C758.074,-195.9691 862.5707,-180.0461 953,-165 964.1991,-163.1366 976.1932,-161.0554 987.5869,-159.0379"/>
<polygon fill="#191970" stroke="#191970" points="689.9007,-202.6256 680.5273,-207.5643 690.9346,-209.5488 689.9007,-202.6256"/>
</g>
<!-- Node25 -->
<g id="node13" class="node">
<title>Node25</title>
<g id="a_node13"><a xlink:href="reduction__op_8cc.html" target="_top" xlink:title="core/operation/reduction\l_op.cc">
<polygon fill="#ffffff" stroke="#000000" points="944.5,-67.5 944.5,-97.5 1065.5,-97.5 1065.5,-67.5 944.5,-67.5"/>
<text text-anchor="start" x="952.5" y="-85.5" font-family="Helvetica,sans-Serif" font-size="10.00" fill="#000000">core/operation/reduction</text>
<text text-anchor="middle" x="1005" y="-74.5" font-family="Helvetica,sans-Serif" font-size="10.00" fill="#000000">_op.cc</text>
</a>
</g>
</g>
<!-- Node13&#45;&gt;Node25 -->
<g id="edge23" class="edge">
<title>Node13&#45;&gt;Node25</title>
<path fill="none" stroke="#191970" d="M691.1385,-209.103C766.5705,-200.4088 880.0989,-184.6431 919,-165 935.6219,-156.6068 971.3864,-119.2298 991.1565,-97.7769"/>
<polygon fill="#191970" stroke="#191970" points="690.3,-205.6757 680.7592,-210.2826 691.0905,-212.6309 690.3,-205.6757"/>
</g>
<!-- Node15 -->
<g id="node3" class="node">
<title>Node15</title>
<g id="a_node3"><a xlink:href="default__ops_8cc.html" target="_top" xlink:title="core/operation/default\l_ops.cc">
<polygon fill="#ffffff" stroke="#000000" points="275,-.5 275,-30.5 385,-30.5 385,-.5 275,-.5"/>
<text text-anchor="start" x="283" y="-18.5" font-family="Helvetica,sans-Serif" font-size="10.00" fill="#000000">core/operation/default</text>
<text text-anchor="middle" x="330" y="-7.5" font-family="Helvetica,sans-Serif" font-size="10.00" fill="#000000">_ops.cc</text>
</a>
</g>
</g>
<!-- Node14&#45;&gt;Node15 -->
<g id="edge2" class="edge">
<title>Node14&#45;&gt;Node15</title>
<path fill="none" stroke="#191970" d="M332.6427,-129.1431C320.4947,-121.2467 308.8084,-110.9341 302,-98 290.3047,-75.7821 305.5499,-47.6892 317.7147,-30.6824"/>
<polygon fill="#191970" stroke="#191970" points="331.1324,-132.3188 341.5069,-134.4687 334.7375,-126.3185 331.1324,-132.3188"/>
</g>
<!-- Node14&#45;&gt;Node16 -->
<g id="edge3" class="edge">
<title>Node14&#45;&gt;Node16</title>
<path fill="none" stroke="#191970" d="M377,-124.0249C377,-115.128 377,-105.4287 377,-97.6432"/>
<polygon fill="#191970" stroke="#191970" points="373.5001,-124.2966 377,-134.2967 380.5001,-124.2967 373.5001,-124.2966"/>
</g>
<!-- Node14&#45;&gt;Node17 -->
<g id="edge7" class="edge">
<title>Node14&#45;&gt;Node17</title>
<path fill="none" stroke="#191970" d="M440.6932,-143.197C501.7857,-135.8429 588.1647,-121.5836 612,-98 631.8512,-78.3585 632.7018,-42.4279 631.8209,-25.2066"/>
<polygon fill="#191970" stroke="#191970" points="440.2659,-139.7231 430.7404,-144.3615 441.0794,-146.6756 440.2659,-139.7231"/>
</g>
<!-- Node18 -->
<g id="node6" class="node">
<title>Node18</title>
<g id="a_node6"><a xlink:href="mechanical__forces__op__cuda_8cc.html" target="_top" xlink:title="core/operation/mechanical\l_forces_op_cuda.cc">
<polygon fill="#ffffff" stroke="#000000" points="123.5,-67.5 123.5,-97.5 254.5,-97.5 254.5,-67.5 123.5,-67.5"/>
<text text-anchor="start" x="131.5" y="-85.5" font-family="Helvetica,sans-Serif" font-size="10.00" fill="#000000">core/operation/mechanical</text>
<text text-anchor="middle" x="189" y="-74.5" font-family="Helvetica,sans-Serif" font-size="10.00" fill="#000000">_forces_op_cuda.cc</text>
</a>
</g>
</g>
<!-- Node14&#45;&gt;Node18 -->
<g id="edge6" class="edge">
<title>Node14&#45;&gt;Node18</title>
<path fill="none" stroke="#191970" d="M325.0959,-131.0023C295.5996,-120.4903 259.1337,-107.4945 231.3749,-97.6017"/>
<polygon fill="#191970" stroke="#191970" points="324.2145,-134.4037 334.8091,-134.4639 326.5644,-127.8099 324.2145,-134.4037"/>
</g>
<!-- Node16&#45;&gt;Node15 -->
<g id="edge4" class="edge">
<title>Node16&#45;&gt;Node15</title>
<path fill="none" stroke="#191970" d="M360.5588,-59.0626C353.943,-49.6315 346.5045,-39.0276 340.6228,-30.6432"/>
<polygon fill="#191970" stroke="#191970" points="357.7268,-61.1201 366.335,-67.2967 363.4574,-57.1001 357.7268,-61.1201"/>
</g>
<!-- Node16&#45;&gt;Node17 -->
<g id="edge5" class="edge">
<title>Node16&#45;&gt;Node17</title>
<path fill="none" stroke="#191970" d="M443.7755,-64.886C492.1694,-52.1207 555.7452,-35.3507 594.965,-25.0053"/>
<polygon fill="#191970" stroke="#191970" points="442.7791,-61.529 434.0026,-67.4639 444.5645,-68.2975 442.7791,-61.529"/>
</g>
<!-- Node19&#45;&gt;Node15 -->
<g id="edge9" class="edge">
<title>Node19&#45;&gt;Node15</title>
<path fill="none" stroke="#191970" d="M493.5578,-69.7494C459.8713,-58.5761 410.8689,-42.3229 375.2895,-30.5218"/>
<polygon fill="#191970" stroke="#191970" points="492.4649,-73.0743 503.0583,-72.9005 494.6687,-66.4303 492.4649,-73.0743"/>
</g>
<!-- Node19&#45;&gt;Node17 -->
<g id="edge10" class="edge">
<title>Node19&#45;&gt;Node17</title>
<path fill="none" stroke="#191970" d="M554.6276,-67.1864C573.7703,-54.2312 600.6066,-36.0693 616.842,-25.0817"/>
<polygon fill="#191970" stroke="#191970" points="552.5043,-64.3971 546.1843,-72.9005 556.4277,-70.1943 552.5043,-64.3971"/>
</g>
<!-- Node20&#45;&gt;Node15 -->
<g id="edge12" class="edge">
<title>Node20&#45;&gt;Node15</title>
<path fill="none" stroke="#191970" d="M65.0794,-125.0836C72.5288,-106.3763 85.4285,-81.4032 105,-67 131.5864,-47.4344 217.1398,-31.7225 274.7521,-23.0075"/>
<polygon fill="#191970" stroke="#191970" points="61.7957,-123.8724 61.584,-134.4652 68.3552,-126.3165 61.7957,-123.8724"/>
</g>
<!-- Node21&#45;&gt;Node15 -->
<g id="edge15" class="edge">
<title>Node21&#45;&gt;Node15</title>
<path fill="none" stroke="#191970" d="M154.2298,-129.6881C125.2047,-113.7856 95.5751,-90.3343 114,-67 133.7096,-42.0386 217.7431,-27.8599 274.9953,-20.9337"/>
<polygon fill="#191970" stroke="#191970" points="152.6826,-132.8287 163.1644,-134.3725 155.9331,-126.6292 152.6826,-132.8287"/>
</g>
<!-- Node21&#45;&gt;Node18 -->
<g id="edge16" class="edge">
<title>Node21&#45;&gt;Node18</title>
<path fill="none" stroke="#191970" d="M194.6173,-124.3179C193.4115,-115.3414 192.0915,-105.5143 191.0342,-97.6432"/>
<polygon fill="#191970" stroke="#191970" points="191.1575,-124.8517 195.9578,-134.2967 198.0952,-123.9197 191.1575,-124.8517"/>
</g>
<!-- Node22&#45;&gt;Node15 -->
<g id="edge18" class="edge">
<title>Node22&#45;&gt;Node15</title>
<path fill="none" stroke="#191970" d="M670.0151,-71.3358C590.1244,-58.2165 459.1104,-36.702 385.2095,-24.5663"/>
<polygon fill="#191970" stroke="#191970" points="669.5418,-74.8049 679.9768,-72.9717 670.6762,-67.8974 669.5418,-74.8049"/>
</g>
<!-- Node22&#45;&gt;Node17 -->
<g id="edge19" class="edge">
<title>Node22&#45;&gt;Node17</title>
<path fill="none" stroke="#191970" d="M714.1035,-67.5368C693.3803,-54.5605 664.0082,-36.1687 646.3021,-25.0817"/>
<polygon fill="#191970" stroke="#191970" points="712.3365,-70.5598 722.6695,-72.9005 716.0515,-64.6269 712.3365,-70.5598"/>
</g>
<!-- Node24&#45;&gt;Node25 -->
<g id="edge22" class="edge">
<title>Node24&#45;&gt;Node25</title>
<path fill="none" stroke="#191970" d="M1030.2086,-130.7565C1024.7253,-120.2598 1017.9801,-107.3476 1012.8472,-97.5218"/>
<polygon fill="#191970" stroke="#191970" points="1027.2529,-132.6576 1034.9854,-139.9005 1033.4573,-129.4165 1027.2529,-132.6576"/>
</g>
</g>
</svg>
