<?xml version="1.0" encoding="UTF-8" standalone="no"?>
<!DOCTYPE svg PUBLIC "-//W3C//DTD SVG 1.1//EN"
 "http://www.w3.org/Graphics/SVG/1.1/DTD/svg11.dtd">
<!-- Generated by graphviz version 2.40.1 (20161225.0304)
 -->
<!-- Title: core/operation/operation.h Pages: 1 -->
<svg width="2905pt" height="620pt"
 viewBox="0.00 0.00 2905.32 620.00" xmlns="http://www.w3.org/2000/svg" xmlns:xlink="http://www.w3.org/1999/xlink">
<g id="graph0" class="graph" transform="scale(1 1) rotate(0) translate(4 616)">
<title>core/operation/operation.h</title>
<polygon fill="#ffffff" stroke="transparent" points="-4,4 -4,-616 2901.3212,-616 2901.3212,4 -4,4"/>
<!-- Node5 -->
<g id="node1" class="node">
<title>Node5</title>
<polygon fill="#bfbfbf" stroke="#000000" points="753.8212,-592.5 753.8212,-611.5 882.8212,-611.5 882.8212,-592.5 753.8212,-592.5"/>
<text text-anchor="middle" x="818.3212" y="-599.5" font-family="Helvetica,sans-Serif" font-size="10.00" fill="#000000">core/operation/operation.h</text>
</g>
<!-- Node6 -->
<g id="node2" class="node">
<title>Node6</title>
<g id="a_node2"><a xlink:href="in__place__exec__ctxt_8h.html" target="_top" xlink:title="core/execution_context\l/in_place_exec_ctxt.h">
<polygon fill="#ffffff" stroke="#000000" points="1355.3212,-525.5 1355.3212,-555.5 1473.3212,-555.5 1473.3212,-525.5 1355.3212,-525.5"/>
<text text-anchor="start" x="1363.3212" y="-543.5" font-family="Helvetica,sans-Serif" font-size="10.00" fill="#000000">core/execution_context</text>
<text text-anchor="middle" x="1414.3212" y="-532.5" font-family="Helvetica,sans-Serif" font-size="10.00" fill="#000000">/in_place_exec_ctxt.h</text>
</a>
</g>
</g>
<!-- Node5&#45;&gt;Node6 -->
<g id="edge1" class="edge">
<title>Node5&#45;&gt;Node6</title>
<path fill="none" stroke="#191970" d="M893.149,-594.2787C1013.1086,-581.9003 1246.0325,-557.8654 1355.1886,-546.6018"/>
<polygon fill="#191970" stroke="#191970" points="892.5417,-590.8227 882.9538,-595.3307 893.2602,-597.7857 892.5417,-590.8227"/>
</g>
<!-- Node27 -->
<g id="node23" class="node">
<title>Node27</title>
<g id="a_node23"><a xlink:href="dividing__cell__op_8h.html" target="_top" xlink:title="core/operation/dividing\l_cell_op.h">
<polygon fill="#ffffff" stroke="#000000" points="2783.3212,-257.5 2783.3212,-287.5 2897.3212,-287.5 2897.3212,-257.5 2783.3212,-257.5"/>
<text text-anchor="start" x="2791.3212" y="-275.5" font-family="Helvetica,sans-Serif" font-size="10.00" fill="#000000">core/operation/dividing</text>
<text text-anchor="middle" x="2840.3212" y="-264.5" font-family="Helvetica,sans-Serif" font-size="10.00" fill="#000000">_cell_op.h</text>
</a>
</g>
</g>
<!-- Node5&#45;&gt;Node27 -->
<g id="edge115" class="edge">
<title>Node5&#45;&gt;Node27</title>
<path fill="none" stroke="#191970" d="M893.0867,-601.169C1255.5225,-596.6605 2812.3212,-571.5858 2812.3212,-473.5 2812.3212,-473.5 2812.3212,-473.5 2812.3212,-406.5 2812.3212,-362.5323 2826.9437,-312.1326 2835.0546,-287.5584"/>
<polygon fill="#191970" stroke="#191970" points="892.9242,-597.6707 882.968,-601.2934 893.0103,-604.6701 892.9242,-597.6707"/>
</g>
<!-- Node35 -->
<g id="node31" class="node">
<title>Node35</title>
<g id="a_node31"><a xlink:href="displacement__op_8h.html" target="_top" xlink:title="core/operation/displacement_op.h">
<polygon fill="#ffffff" stroke="#000000" points="74.8212,-62 74.8212,-81 237.8212,-81 237.8212,-62 74.8212,-62"/>
<text text-anchor="middle" x="156.3212" y="-69" font-family="Helvetica,sans-Serif" font-size="10.00" fill="#000000">core/operation/displacement_op.h</text>
</a>
</g>
</g>
<!-- Node5&#45;&gt;Node35 -->
<g id="edge114" class="edge">
<title>Node5&#45;&gt;Node35</title>
<path fill="none" stroke="#191970" d="M743.5944,-597.9516C543.0907,-586.098 8.3212,-547.5424 8.3212,-473.5 8.3212,-473.5 8.3212,-473.5 8.3212,-272.5 8.3212,-183.0132 104.6202,-107.1093 141.8608,-81.1015"/>
<polygon fill="#191970" stroke="#191970" points="743.5577,-601.4554 753.7451,-598.5458 743.9667,-594.4673 743.5577,-601.4554"/>
</g>
<!-- Node42 -->
<g id="node38" class="node">
<title>Node42</title>
<g id="a_node38"><a xlink:href="bound__space__op_8h.html" target="_top" xlink:title="core/operation/bound\l_space_op.h">
<polygon fill="#ffffff" stroke="#000000" points="154.8212,-190.5 154.8212,-220.5 261.8212,-220.5 261.8212,-190.5 154.8212,-190.5"/>
<text text-anchor="start" x="162.8212" y="-208.5" font-family="Helvetica,sans-Serif" font-size="10.00" fill="#000000">core/operation/bound</text>
<text text-anchor="middle" x="208.3212" y="-197.5" font-family="Helvetica,sans-Serif" font-size="10.00" fill="#000000">_space_op.h</text>
</a>
</g>
</g>
<!-- Node5&#45;&gt;Node42 -->
<g id="edge113" class="edge">
<title>Node5&#45;&gt;Node42</title>
<path fill="none" stroke="#191970" d="M743.6729,-594.0285C580.8638,-575.6342 208.3212,-527.6301 208.3212,-473.5 208.3212,-473.5 208.3212,-473.5 208.3212,-339.5 208.3212,-296.4618 208.3212,-245.6482 208.3212,-220.7729"/>
<polygon fill="#191970" stroke="#191970" points="743.29,-597.5075 753.618,-595.1448 744.0708,-590.5511 743.29,-597.5075"/>
</g>
<!-- Node43 -->
<g id="node39" class="node">
<title>Node43</title>
<g id="a_node39"><a xlink:href="operation_8cc.html" target="_top" xlink:title="core/operation/operation.cc">
<polygon fill="#ffffff" stroke="#000000" points="2595.3212,-330 2595.3212,-349 2729.3212,-349 2729.3212,-330 2595.3212,-330"/>
<text text-anchor="middle" x="2662.3212" y="-337" font-family="Helvetica,sans-Serif" font-size="10.00" fill="#000000">core/operation/operation.cc</text>
</a>
</g>
</g>
<!-- Node5&#45;&gt;Node43 -->
<g id="edge116" class="edge">
<title>Node5&#45;&gt;Node43</title>
<path fill="none" stroke="#191970" d="M893.4194,-598.0592C1141.0957,-584.7035 1930.4944,-539.1812 2180.3212,-489 2360.0619,-452.8966 2567.9999,-375.9306 2637.9519,-349.0241"/>
<polygon fill="#191970" stroke="#191970" points="892.883,-594.5829 883.0853,-598.6147 893.2588,-601.5728 892.883,-594.5829"/>
</g>
<!-- Node48 -->
<g id="node44" class="node">
<title>Node48</title>
<g id="a_node44"><a xlink:href="scheduler_8h.html" target="_top" xlink:title="core/scheduler.h">
<polygon fill="#ffffff" stroke="#000000" points="493.8212,-397 493.8212,-416 582.8212,-416 582.8212,-397 493.8212,-397"/>
<text text-anchor="middle" x="538.3212" y="-404" font-family="Helvetica,sans-Serif" font-size="10.00" fill="#000000">core/scheduler.h</text>
</a>
</g>
</g>
<!-- Node5&#45;&gt;Node48 -->
<g id="edge98" class="edge">
<title>Node5&#45;&gt;Node48</title>
<path fill="none" stroke="#191970" d="M795.9954,-586.4118C740.3713,-547.5743 596.8624,-447.3743 551.96,-416.0229"/>
<polygon fill="#191970" stroke="#191970" points="794.233,-589.45 804.4359,-592.3051 798.2404,-583.7106 794.233,-589.45"/>
</g>
<!-- Node7 -->
<g id="node3" class="node">
<title>Node7</title>
<g id="a_node3"><a xlink:href="so__pointer_8h.html" target="_top" xlink:title="core/sim_object/so\l_pointer.h">
<polygon fill="#ffffff" stroke="#000000" points="2005.8212,-458.5 2005.8212,-488.5 2104.8212,-488.5 2104.8212,-458.5 2005.8212,-458.5"/>
<text text-anchor="start" x="2013.8212" y="-476.5" font-family="Helvetica,sans-Serif" font-size="10.00" fill="#000000">core/sim_object/so</text>
<text text-anchor="middle" x="2055.3212" y="-465.5" font-family="Helvetica,sans-Serif" font-size="10.00" fill="#000000">_pointer.h</text>
</a>
</g>
</g>
<!-- Node6&#45;&gt;Node7 -->
<g id="edge2" class="edge">
<title>Node6&#45;&gt;Node7</title>
<path fill="none" stroke="#191970" d="M1483.4669,-534.3698C1583.4778,-525.3462 1774.282,-507.5417 1936.3212,-489 1959.0903,-486.3946 1984.2633,-483.1664 2005.5705,-480.3317"/>
<polygon fill="#191970" stroke="#191970" points="1483.1347,-530.8855 1473.4888,-535.2682 1483.7624,-537.8573 1483.1347,-530.8855"/>
</g>
<!-- Node13 -->
<g id="node9" class="node">
<title>Node13</title>
<g id="a_node9"><a xlink:href="sim__object_8cc.html" target="_top" xlink:title="core/sim_object/sim\l_object.cc">
<polygon fill="#ffffff" stroke="#000000" points="1725.3212,-123.5 1725.3212,-153.5 1829.3212,-153.5 1829.3212,-123.5 1725.3212,-123.5"/>
<text text-anchor="start" x="1733.3212" y="-141.5" font-family="Helvetica,sans-Serif" font-size="10.00" fill="#000000">core/sim_object/sim</text>
<text text-anchor="middle" x="1777.3212" y="-130.5" font-family="Helvetica,sans-Serif" font-size="10.00" fill="#000000">_object.cc</text>
</a>
</g>
</g>
<!-- Node6&#45;&gt;Node13 -->
<g id="edge96" class="edge">
<title>Node6&#45;&gt;Node13</title>
<path fill="none" stroke="#191970" d="M1483.7202,-529.4388C1622.7742,-506.3232 1922.3212,-451.3258 1922.3212,-406.5 1922.3212,-406.5 1922.3212,-406.5 1922.3212,-339.5 1922.3212,-265.5574 1897.073,-246.4559 1849.3212,-190 1836.915,-175.3325 1819.4581,-162.7102 1804.8407,-153.6328"/>
<polygon fill="#191970" stroke="#191970" points="1482.8846,-526.0293 1473.5894,-531.1136 1484.0264,-532.9356 1482.8846,-526.0293"/>
</g>
<!-- Node14 -->
<g id="node10" class="node">
<title>Node14</title>
<g id="a_node10"><a xlink:href="cell_8h.html" target="_top" xlink:title="core/sim_object/cell.h">
<polygon fill="#ffffff" stroke="#000000" points="2427.3212,-330 2427.3212,-349 2539.3212,-349 2539.3212,-330 2427.3212,-330"/>
<text text-anchor="middle" x="2483.3212" y="-337" font-family="Helvetica,sans-Serif" font-size="10.00" fill="#000000">core/sim_object/cell.h</text>
</a>
</g>
</g>
<!-- Node6&#45;&gt;Node14 -->
<g id="edge93" class="edge">
<title>Node6&#45;&gt;Node14</title>
<path fill="none" stroke="#191970" d="M1483.5106,-538.1283C1635.6114,-532.4717 1994.9361,-516.5655 2113.3212,-489 2255.0218,-456.0055 2413.2225,-376.5422 2465.5007,-349.0503"/>
<polygon fill="#191970" stroke="#191970" points="1483.2242,-534.6363 1473.3598,-538.5019 1483.4818,-541.6316 1483.2242,-534.6363"/>
</g>
<!-- Node19 -->
<g id="node15" class="node">
<title>Node19</title>
<g id="a_node15"><a xlink:href="scheduler_8cc.html" target="_top" xlink:title="core/scheduler.cc">
<polygon fill="#ffffff" stroke="#000000" points="219.3212,-.5 219.3212,-19.5 313.3212,-19.5 313.3212,-.5 219.3212,-.5"/>
<text text-anchor="middle" x="266.3212" y="-7.5" font-family="Helvetica,sans-Serif" font-size="10.00" fill="#000000">core/scheduler.cc</text>
</a>
</g>
</g>
<!-- Node6&#45;&gt;Node19 -->
<g id="edge95" class="edge">
<title>Node6&#45;&gt;Node19</title>
<path fill="none" stroke="#191970" d="M1345.0761,-538.9407C1107.3371,-532.3227 328.3158,-499.7929 133.3212,-355 21.9012,-272.2652 -50.5733,-158.1924 43.3212,-56 66.5562,-30.7115 160.9761,-18.5604 219.2498,-13.3627"/>
<polygon fill="#191970" stroke="#191970" points="1345.225,-542.446 1355.3164,-539.219 1345.4152,-535.4486 1345.225,-542.446"/>
</g>
<!-- Node20 -->
<g id="node16" class="node">
<title>Node20</title>
<g id="a_node16"><a xlink:href="simulation_8cc.html" target="_top" xlink:title="core/simulation.cc">
<polygon fill="#ffffff" stroke="#000000" points="685.3212,-62 685.3212,-81 781.3212,-81 781.3212,-62 685.3212,-62"/>
<text text-anchor="middle" x="733.3212" y="-69" font-family="Helvetica,sans-Serif" font-size="10.00" fill="#000000">core/simulation.cc</text>
</a>
</g>
</g>
<!-- Node6&#45;&gt;Node20 -->
<g id="edge97" class="edge">
<title>Node6&#45;&gt;Node20</title>
<path fill="none" stroke="#191970" d="M1345.0445,-535.2483C1160.7374,-520.3538 672.3212,-474.471 672.3212,-406.5 672.3212,-406.5 672.3212,-406.5 672.3212,-339.5 672.3212,-238.5091 546.564,-206.5331 603.3212,-123 621.5348,-96.1939 656.1051,-83.3405 685.0195,-77.1774"/>
<polygon fill="#191970" stroke="#191970" points="1344.9186,-538.7494 1355.1663,-536.0598 1345.478,-531.7717 1344.9186,-538.7494"/>
</g>
<!-- Node32 -->
<g id="node28" class="node">
<title>Node32</title>
<g id="a_node28"><a xlink:href="in__place__exec__ctxt_8cc.html" target="_top" xlink:title="core/execution_context\l/in_place_exec_ctxt.cc">
<polygon fill="#ffffff" stroke="#000000" points="1444.3212,-123.5 1444.3212,-153.5 1562.3212,-153.5 1562.3212,-123.5 1444.3212,-123.5"/>
<text text-anchor="start" x="1452.3212" y="-141.5" font-family="Helvetica,sans-Serif" font-size="10.00" fill="#000000">core/execution_context</text>
<text text-anchor="middle" x="1503.3212" y="-130.5" font-family="Helvetica,sans-Serif" font-size="10.00" fill="#000000">/in_place_exec_ctxt.cc</text>
</a>
</g>
</g>
<!-- Node6&#45;&gt;Node32 -->
<g id="edge94" class="edge">
<title>Node6&#45;&gt;Node32</title>
<path fill="none" stroke="#191970" d="M1414.3212,-515.1092C1414.3212,-488.1594 1414.3212,-444.3265 1414.3212,-406.5 1414.3212,-406.5 1414.3212,-406.5 1414.3212,-339.5 1414.3212,-264.3176 1467.025,-185.8178 1491.3182,-153.6276"/>
<polygon fill="#191970" stroke="#191970" points="1410.8213,-515.227 1414.3212,-525.2271 1417.8213,-515.2271 1410.8213,-515.227"/>
</g>
<!-- Node8 -->
<g id="node4" class="node">
<title>Node8</title>
<g id="a_node4"><a xlink:href="sim__object_8h.html" target="_top" xlink:title="core/sim_object/sim\l_object.h">
<polygon fill="#ffffff" stroke="#000000" points="2003.3212,-391.5 2003.3212,-421.5 2107.3212,-421.5 2107.3212,-391.5 2003.3212,-391.5"/>
<text text-anchor="start" x="2011.3212" y="-409.5" font-family="Helvetica,sans-Serif" font-size="10.00" fill="#000000">core/sim_object/sim</text>
<text text-anchor="middle" x="2055.3212" y="-398.5" font-family="Helvetica,sans-Serif" font-size="10.00" fill="#000000">_object.h</text>
</a>
</g>
</g>
<!-- Node7&#45;&gt;Node8 -->
<g id="edge3" class="edge">
<title>Node7&#45;&gt;Node8</title>
<path fill="none" stroke="#191970" d="M2055.3212,-448.0249C2055.3212,-439.128 2055.3212,-429.4287 2055.3212,-421.6432"/>
<polygon fill="#191970" stroke="#191970" points="2051.8213,-448.2966 2055.3212,-458.2967 2058.8213,-448.2967 2051.8213,-448.2966"/>
</g>
<!-- Node41 -->
<g id="node37" class="node">
<title>Node41</title>
<g id="a_node37"><a xlink:href="neuron__or__neurite_8h.html" target="_top" xlink:title="neuroscience/neuron\l_or_neurite.h">
<polygon fill="#ffffff" stroke="#000000" points="2206.8212,-324.5 2206.8212,-354.5 2313.8212,-354.5 2313.8212,-324.5 2206.8212,-324.5"/>
<text text-anchor="start" x="2214.8212" y="-342.5" font-family="Helvetica,sans-Serif" font-size="10.00" fill="#000000">neuroscience/neuron</text>
<text text-anchor="middle" x="2260.3212" y="-331.5" font-family="Helvetica,sans-Serif" font-size="10.00" fill="#000000">_or_neurite.h</text>
</a>
</g>
</g>
<!-- Node7&#45;&gt;Node41 -->
<g id="edge92" class="edge">
<title>Node7&#45;&gt;Node41</title>
<path fill="none" stroke="#191970" d="M2086.815,-452.9138C2128.3555,-425.7605 2200.487,-378.6111 2237.288,-354.5558"/>
<polygon fill="#191970" stroke="#191970" points="2084.8942,-449.9879 2078.4388,-458.389 2088.7242,-455.8472 2084.8942,-449.9879"/>
</g>
<!-- Node9 -->
<g id="node5" class="node">
<title>Node9</title>
<g id="a_node5"><a xlink:href="biology__module_8h.html" target="_top" xlink:title="core/biology_module\l/biology_module.h">
<polygon fill="#ffffff" stroke="#000000" points="2002.3212,-190.5 2002.3212,-220.5 2108.3212,-220.5 2108.3212,-190.5 2002.3212,-190.5"/>
<text text-anchor="start" x="2010.3212" y="-208.5" font-family="Helvetica,sans-Serif" font-size="10.00" fill="#000000">core/biology_module</text>
<text text-anchor="middle" x="2055.3212" y="-197.5" font-family="Helvetica,sans-Serif" font-size="10.00" fill="#000000">/biology_module.h</text>
</a>
</g>
</g>
<!-- Node8&#45;&gt;Node9 -->
<g id="edge4" class="edge">
<title>Node8&#45;&gt;Node9</title>
<path fill="none" stroke="#191970" d="M2055.3212,-381.348C2055.3212,-339.0061 2055.3212,-254.7637 2055.3212,-220.5088"/>
<polygon fill="#191970" stroke="#191970" points="2051.8213,-381.3923 2055.3212,-391.3923 2058.8213,-381.3924 2051.8213,-381.3923"/>
</g>
<!-- Node10 -->
<g id="node6" class="node">
<title>Node10</title>
<g id="a_node6"><a xlink:href="biodynamo_8h.html" target="_top" xlink:title="biodynamo.h">
<polygon fill="#ffffff" stroke="#000000" points="1520.3212,-.5 1520.3212,-19.5 1592.3212,-19.5 1592.3212,-.5 1520.3212,-.5"/>
<text text-anchor="middle" x="1556.3212" y="-7.5" font-family="Helvetica,sans-Serif" font-size="10.00" fill="#000000">biodynamo.h</text>
</a>
</g>
</g>
<!-- Node8&#45;&gt;Node10 -->
<g id="edge68" class="edge">
<title>Node8&#45;&gt;Node10</title>
<path fill="none" stroke="#191970" d="M2117.6794,-396.9907C2172.1467,-388.0884 2253.1022,-373.4111 2322.3212,-355 2327.8816,-353.521 2514.0467,-291.8516 2518.3212,-288 2575.9592,-236.0634 2627.071,-180.8058 2575.3212,-123 2508.2801,-48.1136 1766.2555,-17.4053 1592.5472,-11.2151"/>
<polygon fill="#191970" stroke="#191970" points="2116.8012,-393.5872 2107.4886,-398.6395 2117.9193,-400.4974 2116.8012,-393.5872"/>
</g>
<!-- Node8&#45;&gt;Node13 -->
<g id="edge83" class="edge">
<title>Node8&#45;&gt;Node13</title>
<path fill="none" stroke="#191970" d="M2045.2223,-381.8793C2025.8411,-337.499 1979.3273,-243.7164 1912.3212,-190 1888.3452,-170.7793 1856.4031,-158.1611 1829.6086,-150.2277"/>
<polygon fill="#191970" stroke="#191970" points="2042.1045,-383.4902 2049.2543,-391.3088 2048.5407,-380.738 2042.1045,-383.4902"/>
</g>
<!-- Node8&#45;&gt;Node14 -->
<g id="edge11" class="edge">
<title>Node8&#45;&gt;Node14</title>
<path fill="none" stroke="#191970" d="M2117.5929,-398.982C2189.1927,-390.0046 2310.1374,-373.8182 2413.3212,-355 2422.8724,-353.2581 2433.1018,-351.1387 2442.7093,-349.0336"/>
<polygon fill="#191970" stroke="#191970" points="2116.8851,-395.5431 2107.3951,-400.2537 2117.7513,-402.4893 2116.8851,-395.5431"/>
</g>
<!-- Node16 -->
<g id="node12" class="node">
<title>Node16</title>
<g id="a_node12"><a xlink:href="neurite__element_8h.html" target="_top" xlink:title="neuroscience/neurite\l_element.h">
<polygon fill="#ffffff" stroke="#000000" points="2307.8212,-190.5 2307.8212,-220.5 2414.8212,-220.5 2414.8212,-190.5 2307.8212,-190.5"/>
<text text-anchor="start" x="2315.8212" y="-208.5" font-family="Helvetica,sans-Serif" font-size="10.00" fill="#000000">neuroscience/neurite</text>
<text text-anchor="middle" x="2361.3212" y="-197.5" font-family="Helvetica,sans-Serif" font-size="10.00" fill="#000000">_element.h</text>
</a>
</g>
</g>
<!-- Node8&#45;&gt;Node16 -->
<g id="edge69" class="edge">
<title>Node8&#45;&gt;Node16</title>
<path fill="none" stroke="#191970" d="M2096.2918,-386.6335C2113.4554,-377.7191 2133.3272,-366.6044 2150.3212,-355 2206.0575,-316.9405 2210.5849,-295.0595 2266.3212,-257 2286.4622,-243.2467 2310.6455,-230.1811 2329.5718,-220.6514"/>
<polygon fill="#191970" stroke="#191970" points="2094.3806,-383.6796 2087.0706,-391.3486 2097.5676,-389.9121 2094.3806,-383.6796"/>
</g>
<!-- Node21 -->
<g id="node17" class="node">
<title>Node21</title>
<g id="a_node17"><a xlink:href="default__force_8cc.html" target="_top" xlink:title="core/default_force.cc">
<polygon fill="#ffffff" stroke="#000000" points="2047.3212,-129 2047.3212,-148 2155.3212,-148 2155.3212,-129 2047.3212,-129"/>
<text text-anchor="middle" x="2101.3212" y="-136" font-family="Helvetica,sans-Serif" font-size="10.00" fill="#000000">core/default_force.cc</text>
</a>
</g>
</g>
<!-- Node8&#45;&gt;Node21 -->
<g id="edge74" class="edge">
<title>Node8&#45;&gt;Node21</title>
<path fill="none" stroke="#191970" d="M2066.51,-381.6398C2081.5849,-346.6481 2107.6437,-280.4833 2117.3212,-221 2119.5336,-207.401 2119.3884,-203.6218 2117.3212,-190 2115.0454,-175.0044 2109.2427,-158.3643 2105.2881,-148.1661"/>
<polygon fill="#191970" stroke="#191970" points="2063.1929,-380.4899 2062.3931,-391.0545 2069.6065,-383.2945 2063.1929,-380.4899"/>
</g>
<!-- Node8&#45;&gt;Node27 -->
<g id="edge81" class="edge">
<title>Node8&#45;&gt;Node27</title>
<path fill="none" stroke="#191970" d="M2117.6933,-404.4164C2232.3732,-399.8603 2471.9641,-386.7616 2548.3212,-355 2568.4455,-346.6291 2566.5945,-333.2693 2586.3212,-324 2661.3438,-288.7479 2688.1578,-304.8408 2769.3212,-288 2773.7685,-287.0772 2778.369,-286.1075 2782.9917,-285.1222"/>
<polygon fill="#191970" stroke="#191970" points="2117.5158,-400.9206 2107.6591,-404.8059 2117.7873,-407.9153 2117.5158,-400.9206"/>
</g>
<!-- Node29 -->
<g id="node25" class="node">
<title>Node29</title>
<g id="a_node25"><a xlink:href="resource__manager_8h.html" target="_top" xlink:title="core/resource_manager.h">
<polygon fill="#ffffff" stroke="#000000" points="1141.8212,-263 1141.8212,-282 1268.8212,-282 1268.8212,-263 1141.8212,-263"/>
<text text-anchor="middle" x="1205.3212" y="-270" font-family="Helvetica,sans-Serif" font-size="10.00" fill="#000000">core/resource_manager.h</text>
</a>
</g>
</g>
<!-- Node8&#45;&gt;Node29 -->
<g id="edge32" class="edge">
<title>Node8&#45;&gt;Node29</title>
<path fill="none" stroke="#191970" d="M1993.1977,-402.7757C1897.8573,-396.4675 1709.943,-381.6877 1552.3212,-355 1436.0145,-335.3075 1300.6553,-299.239 1239.0033,-282.0712"/>
<polygon fill="#191970" stroke="#191970" points="1993.038,-406.2727 2003.2448,-403.4317 1993.4941,-399.2876 1993.038,-406.2727"/>
</g>
<!-- Node30 -->
<g id="node26" class="node">
<title>Node30</title>
<g id="a_node26"><a xlink:href="environment_8h.html" target="_top" xlink:title="core/environment/environment.h">
<polygon fill="#ffffff" stroke="#000000" points="848.3212,-196 848.3212,-215 1004.3212,-215 1004.3212,-196 848.3212,-196"/>
<text text-anchor="middle" x="926.3212" y="-203" font-family="Helvetica,sans-Serif" font-size="10.00" fill="#000000">core/environment/environment.h</text>
</a>
</g>
</g>
<!-- Node8&#45;&gt;Node30 -->
<g id="edge67" class="edge">
<title>Node8&#45;&gt;Node30</title>
<path fill="none" stroke="#191970" d="M1993.0316,-404.9098C1876.8106,-401.2034 1619.3044,-389.5029 1405.3212,-355 1281.9803,-335.1124 1251.2697,-326.2067 1132.3212,-288 1063.1801,-265.7916 984.1712,-231.5588 947.3132,-215.0503"/>
<polygon fill="#191970" stroke="#191970" points="1993.0598,-408.4122 2003.1635,-405.2239 1993.2768,-401.4156 1993.0598,-408.4122"/>
</g>
<!-- Node8&#45;&gt;Node32 -->
<g id="edge75" class="edge">
<title>Node8&#45;&gt;Node32</title>
<path fill="none" stroke="#191970" d="M1992.8088,-399.057C1872.4819,-383.6082 1614.6078,-344.7102 1547.3212,-288 1521.1445,-265.9379 1519.2501,-253.7623 1509.3212,-221 1502.4487,-198.3233 1501.9428,-170.6061 1502.4515,-153.7663"/>
<polygon fill="#191970" stroke="#191970" points="1992.6099,-402.5597 2002.9712,-400.3479 1993.492,-395.6155 1992.6099,-402.5597"/>
</g>
<!-- Node34 -->
<g id="node30" class="node">
<title>Node34</title>
<g id="a_node30"><a xlink:href="displacement__op__cpu_8h.html" target="_top" xlink:title="core/operation/displacement\l_op_cpu.h">
<polygon fill="#ffffff" stroke="#000000" points="226.8212,-123.5 226.8212,-153.5 365.8212,-153.5 365.8212,-123.5 226.8212,-123.5"/>
<text text-anchor="start" x="234.8212" y="-141.5" font-family="Helvetica,sans-Serif" font-size="10.00" fill="#000000">core/operation/displacement</text>
<text text-anchor="middle" x="296.3212" y="-130.5" font-family="Helvetica,sans-Serif" font-size="10.00" fill="#000000">_op_cpu.h</text>
</a>
</g>
</g>
<!-- Node8&#45;&gt;Node34 -->
<g id="edge80" class="edge">
<title>Node8&#45;&gt;Node34</title>
<path fill="none" stroke="#191970" d="M1992.9277,-406.1044C1704.2461,-404.0722 509.2512,-393.364 440.3212,-355 398.6092,-331.7846 327.5311,-199.1548 304.0807,-153.7467"/>
<polygon fill="#191970" stroke="#191970" points="1993.187,-409.6062 2003.2111,-406.1758 1993.2357,-402.6064 1993.187,-409.6062"/>
</g>
<!-- Node8&#45;&gt;Node41 -->
<g id="edge70" class="edge">
<title>Node8&#45;&gt;Node41</title>
<path fill="none" stroke="#191970" d="M2111.0814,-388.2759C2143.39,-377.7165 2183.5824,-364.5805 2214.1145,-354.6017"/>
<polygon fill="#191970" stroke="#191970" points="2109.7451,-385.0304 2101.3272,-391.4639 2111.9197,-391.6841 2109.7451,-385.0304"/>
</g>
<!-- Node8&#45;&gt;Node42 -->
<g id="edge76" class="edge">
<title>Node8&#45;&gt;Node42</title>
<path fill="none" stroke="#191970" d="M1992.8632,-405.6035C1701.1016,-401.2816 483.3533,-381.7049 407.3212,-355 326.5963,-326.6468 251.6998,-252.7207 221.906,-220.6784"/>
<polygon fill="#191970" stroke="#191970" points="1993.2011,-409.1088 2003.2517,-405.7568 1993.3044,-402.1096 1993.2011,-409.1088"/>
</g>
<!-- Node8&#45;&gt;Node43 -->
<g id="edge82" class="edge">
<title>Node8&#45;&gt;Node43</title>
<path fill="none" stroke="#191970" d="M2117.4921,-402.2639C2216.1406,-395.1265 2414.4508,-379.0835 2581.3212,-355 2592.7995,-353.3434 2605.1234,-351.1833 2616.6086,-349.0043"/>
<polygon fill="#191970" stroke="#191970" points="2117.1229,-398.7813 2107.3991,-402.9881 2117.624,-405.7633 2117.1229,-398.7813"/>
</g>
<!-- Node44 -->
<g id="node40" class="node">
<title>Node44</title>
<g id="a_node40"><a xlink:href="helper_8h.html" target="_top" xlink:title="core/visualization\l/paraview/helper.h">
<polygon fill="#ffffff" stroke="#000000" points="1742.3212,-324.5 1742.3212,-354.5 1838.3212,-354.5 1838.3212,-324.5 1742.3212,-324.5"/>
<text text-anchor="start" x="1750.3212" y="-342.5" font-family="Helvetica,sans-Serif" font-size="10.00" fill="#000000">core/visualization</text>
<text text-anchor="middle" x="1790.3212" y="-331.5" font-family="Helvetica,sans-Serif" font-size="10.00" fill="#000000">/paraview/helper.h</text>
</a>
</g>
</g>
<!-- Node8&#45;&gt;Node44 -->
<g id="edge84" class="edge">
<title>Node8&#45;&gt;Node44</title>
<path fill="none" stroke="#191970" d="M1993.4791,-390.8644C1946.274,-378.9296 1882.1568,-362.7188 1838.6704,-351.7242"/>
<polygon fill="#191970" stroke="#191970" points="1992.729,-394.2849 2003.2819,-393.3429 1994.4449,-387.4984 1992.729,-394.2849"/>
</g>
<!-- Node9&#45;&gt;Node10 -->
<g id="edge5" class="edge">
<title>Node9&#45;&gt;Node10</title>
<path fill="none" stroke="#191970" d="M2044.9577,-181.2218C2035.8171,-162.6366 2020.7624,-137.7601 2000.3212,-123 1933.8196,-74.9808 1686.2759,-30.9886 1592.5741,-15.7036"/>
<polygon fill="#191970" stroke="#191970" points="2041.7878,-182.7058 2049.1957,-190.2803 2048.1282,-179.7394 2041.7878,-182.7058"/>
</g>
<!-- Node11 -->
<g id="node7" class="node">
<title>Node11</title>
<g id="a_node7"><a xlink:href="grow__divide_8h.html" target="_top" xlink:title="core/biology_module\l/grow_divide.h">
<polygon fill="#ffffff" stroke="#000000" points="2623.3212,-123.5 2623.3212,-153.5 2729.3212,-153.5 2729.3212,-123.5 2623.3212,-123.5"/>
<text text-anchor="start" x="2631.3212" y="-141.5" font-family="Helvetica,sans-Serif" font-size="10.00" fill="#000000">core/biology_module</text>
<text text-anchor="middle" x="2676.3212" y="-130.5" font-family="Helvetica,sans-Serif" font-size="10.00" fill="#000000">/grow_divide.h</text>
</a>
</g>
</g>
<!-- Node9&#45;&gt;Node11 -->
<g id="edge6" class="edge">
<title>Node9&#45;&gt;Node11</title>
<path fill="none" stroke="#191970" d="M2118.5564,-198.1572C2142.0268,-195.4951 2168.8798,-192.5241 2193.3212,-190 2362.9491,-172.4823 2406.082,-174.9427 2575.3212,-154 2590.9022,-152.0719 2607.781,-149.6245 2623.1982,-147.2472"/>
<polygon fill="#191970" stroke="#191970" points="2117.9176,-194.7072 2108.3778,-199.3162 2118.7096,-201.6623 2117.9176,-194.7072"/>
</g>
<!-- Node12 -->
<g id="node8" class="node">
<title>Node12</title>
<g id="a_node8"><a xlink:href="regulate__genes_8h.html" target="_top" xlink:title="core/biology_module\l/regulate_genes.h">
<polygon fill="#ffffff" stroke="#000000" points="1885.3212,-123.5 1885.3212,-153.5 1991.3212,-153.5 1991.3212,-123.5 1885.3212,-123.5"/>
<text text-anchor="start" x="1893.3212" y="-141.5" font-family="Helvetica,sans-Serif" font-size="10.00" fill="#000000">core/biology_module</text>
<text text-anchor="middle" x="1938.3212" y="-130.5" font-family="Helvetica,sans-Serif" font-size="10.00" fill="#000000">/regulate_genes.h</text>
</a>
</g>
</g>
<!-- Node9&#45;&gt;Node12 -->
<g id="edge8" class="edge">
<title>Node9&#45;&gt;Node12</title>
<path fill="none" stroke="#191970" d="M2020.1445,-185.3561C2002.4084,-175.1995 1981.2519,-163.0843 1964.8954,-153.7177"/>
<polygon fill="#191970" stroke="#191970" points="2018.6469,-188.5317 2029.0641,-190.4639 2022.1255,-182.4572 2018.6469,-188.5317"/>
</g>
<!-- Node9&#45;&gt;Node13 -->
<g id="edge10" class="edge">
<title>Node9&#45;&gt;Node13</title>
<path fill="none" stroke="#191970" d="M1992.1605,-190.2778C1942.9973,-178.4291 1875.5919,-162.1839 1829.4713,-151.0685"/>
<polygon fill="#191970" stroke="#191970" points="1991.5072,-193.7205 2002.0489,-192.661 1993.1473,-186.9154 1991.5072,-193.7205"/>
</g>
<!-- Node11&#45;&gt;Node10 -->
<g id="edge7" class="edge">
<title>Node11&#45;&gt;Node10</title>
<path fill="none" stroke="#191970" d="M2664.1773,-114.3312C2652.8956,-94.7626 2634.109,-68.4726 2609.3212,-56 2562.9904,-32.6876 1772.6141,-14.5839 1592.6056,-10.7513"/>
<polygon fill="#191970" stroke="#191970" points="2661.2251,-116.2267 2669.1061,-123.3076 2667.361,-112.8575 2661.2251,-116.2267"/>
</g>
<!-- Node12&#45;&gt;Node10 -->
<g id="edge9" class="edge">
<title>Node12&#45;&gt;Node10</title>
<path fill="none" stroke="#191970" d="M1883.6911,-120.1231C1801.2964,-92.4066 1648.1423,-40.8875 1584.8386,-19.5929"/>
<polygon fill="#191970" stroke="#191970" points="1882.7836,-123.5105 1893.3776,-123.3816 1885.0154,-116.8758 1882.7836,-123.5105"/>
</g>
<!-- Node14&#45;&gt;Node10 -->
<g id="edge13" class="edge">
<title>Node14&#45;&gt;Node10</title>
<path fill="none" stroke="#191970" d="M2529.9229,-327.46C2534.7786,-326.2649 2539.6459,-325.0915 2544.3212,-324 2619.1064,-306.5403 2659.7129,-342.9894 2713.3212,-288 2765.0963,-234.891 2772.7794,-188.68 2738.3212,-123 2713.9792,-76.6022 2691.0001,-72.6519 2641.3212,-56 2540.1529,-22.0893 1769.4944,-12.182 1592.4839,-10.3431"/>
<polygon fill="#191970" stroke="#191970" points="2528.894,-324.1093 2520.0374,-329.9241 2530.5871,-330.9015 2528.894,-324.1093"/>
</g>
<!-- Node14&#45;&gt;Node11 -->
<g id="edge12" class="edge">
<title>Node14&#45;&gt;Node11</title>
<path fill="none" stroke="#191970" d="M2530.7219,-327.4051C2535.3161,-326.248 2539.9073,-325.0976 2544.3212,-324 2610.0163,-307.664 2650.4907,-341.2252 2692.3212,-288 2723.6126,-248.1847 2698.2895,-182.8597 2684.1882,-153.5532"/>
<polygon fill="#191970" stroke="#191970" points="2529.5649,-324.0874 2520.7273,-329.9309 2531.2801,-330.874 2529.5649,-324.0874"/>
</g>
<!-- Node15 -->
<g id="node11" class="node">
<title>Node15</title>
<g id="a_node11"><a xlink:href="neuron__soma_8h.html" target="_top" xlink:title="neuroscience/neuron\l_soma.h">
<polygon fill="#ffffff" stroke="#000000" points="2402.8212,-257.5 2402.8212,-287.5 2509.8212,-287.5 2509.8212,-257.5 2402.8212,-257.5"/>
<text text-anchor="start" x="2410.8212" y="-275.5" font-family="Helvetica,sans-Serif" font-size="10.00" fill="#000000">neuroscience/neuron</text>
<text text-anchor="middle" x="2456.3212" y="-264.5" font-family="Helvetica,sans-Serif" font-size="10.00" fill="#000000">_soma.h</text>
</a>
</g>
</g>
<!-- Node14&#45;&gt;Node15 -->
<g id="edge14" class="edge">
<title>Node14&#45;&gt;Node15</title>
<path fill="none" stroke="#191970" d="M2475.6367,-320.4311C2471.4307,-309.9939 2466.2936,-297.2463 2462.3747,-287.5218"/>
<polygon fill="#191970" stroke="#191970" points="2472.4686,-321.9336 2479.4527,-329.9005 2478.9612,-319.3171 2472.4686,-321.9336"/>
</g>
<!-- Node25 -->
<g id="node21" class="node">
<title>Node25</title>
<g id="a_node21"><a xlink:href="exporter_8cc.html" target="_top" xlink:title="core/exporter.cc">
<polygon fill="#ffffff" stroke="#000000" points="2202.8212,-196 2202.8212,-215 2289.8212,-215 2289.8212,-196 2202.8212,-196"/>
<text text-anchor="middle" x="2246.3212" y="-203" font-family="Helvetica,sans-Serif" font-size="10.00" fill="#000000">core/exporter.cc</text>
</a>
</g>
</g>
<!-- Node14&#45;&gt;Node25 -->
<g id="edge28" class="edge">
<title>Node14&#45;&gt;Node25</title>
<path fill="none" stroke="#191970" d="M2456.5408,-325.1403C2438.4093,-315.1851 2414.0712,-301.3643 2393.3212,-288 2373.5141,-275.243 2370.5017,-269.1576 2350.3212,-257 2323.0533,-240.5726 2289.8285,-224.8054 2268.3867,-215.1409"/>
<polygon fill="#191970" stroke="#191970" points="2454.9492,-328.2589 2465.4048,-329.971 2458.2989,-322.1124 2454.9492,-328.2589"/>
</g>
<!-- Node26 -->
<g id="node22" class="node">
<title>Node26</title>
<g id="a_node22"><a xlink:href="displacement__op__cuda_8h.html" target="_top" xlink:title="core/operation/displacement\l_op_cuda.h">
<polygon fill="#ffffff" stroke="#000000" points="1028.8212,-56.5 1028.8212,-86.5 1167.8212,-86.5 1167.8212,-56.5 1028.8212,-56.5"/>
<text text-anchor="start" x="1036.8212" y="-74.5" font-family="Helvetica,sans-Serif" font-size="10.00" fill="#000000">core/operation/displacement</text>
<text text-anchor="middle" x="1098.3212" y="-63.5" font-family="Helvetica,sans-Serif" font-size="10.00" fill="#000000">_op_cuda.h</text>
</a>
</g>
</g>
<!-- Node14&#45;&gt;Node26 -->
<g id="edge29" class="edge">
<title>Node14&#45;&gt;Node26</title>
<path fill="none" stroke="#191970" d="M2417.0398,-330.1369C2320.9269,-315.0913 2138.491,-280.9655 1993.3212,-221 1968.8049,-210.873 1965.3041,-203.2434 1942.3212,-190 1913.3704,-173.3178 1904.0517,-172.6403 1876.3212,-154 1858.2322,-141.8406 1858.6151,-130.951 1838.3212,-123 1719.1158,-76.2962 1390.9589,-96.9883 1263.3212,-87 1232.0553,-84.5533 1197.5015,-81.3801 1168.1278,-78.5427"/>
<polygon fill="#191970" stroke="#191970" points="2416.7792,-333.6381 2427.1963,-331.7059 2417.8479,-326.7201 2416.7792,-333.6381"/>
</g>
<!-- Node14&#45;&gt;Node27 -->
<g id="edge30" class="edge">
<title>Node14&#45;&gt;Node27</title>
<path fill="none" stroke="#191970" d="M2534.5323,-327.8342C2540.8499,-326.4914 2547.2267,-325.1818 2553.3212,-324 2648.8657,-305.4732 2673.7492,-306.3847 2769.3212,-288 2773.7814,-287.142 2778.3913,-286.2188 2783.0204,-285.2657"/>
<polygon fill="#191970" stroke="#191970" points="2533.7375,-324.4251 2524.7022,-329.958 2535.2158,-331.2672 2533.7375,-324.4251"/>
</g>
<!-- Node28 -->
<g id="node24" class="node">
<title>Node28</title>
<g id="a_node24"><a xlink:href="cell_8cc.html" target="_top" xlink:title="core/sim_object/cell.cc">
<polygon fill="#ffffff" stroke="#000000" points="2566.8212,-263 2566.8212,-282 2683.8212,-282 2683.8212,-263 2566.8212,-263"/>
<text text-anchor="middle" x="2625.3212" y="-270" font-family="Helvetica,sans-Serif" font-size="10.00" fill="#000000">core/sim_object/cell.cc</text>
</a>
</g>
</g>
<!-- Node14&#45;&gt;Node28 -->
<g id="edge31" class="edge">
<title>Node14&#45;&gt;Node28</title>
<path fill="none" stroke="#191970" d="M2512.8398,-325.5722C2540.4274,-312.5555 2580.8836,-293.467 2605.0138,-282.0817"/>
<polygon fill="#191970" stroke="#191970" points="2511.2166,-322.468 2503.6663,-329.9005 2514.2037,-328.7987 2511.2166,-322.468"/>
</g>
<!-- Node15&#45;&gt;Node16 -->
<g id="edge15" class="edge">
<title>Node15&#45;&gt;Node16</title>
<path fill="none" stroke="#191970" d="M2426.328,-251.3469C2412.1924,-241.3776 2395.6517,-229.7121 2382.7928,-220.6432"/>
<polygon fill="#191970" stroke="#191970" points="2424.5749,-254.3934 2434.7642,-257.2967 2428.6093,-248.6729 2424.5749,-254.3934"/>
</g>
<!-- Node22 -->
<g id="node18" class="node">
<title>Node22</title>
<g id="a_node18"><a xlink:href="neuron__or__neurite_8cc.html" target="_top" xlink:title="neuroscience/neuron\l_or_neurite.cc">
<polygon fill="#ffffff" stroke="#000000" points="2298.8212,-123.5 2298.8212,-153.5 2405.8212,-153.5 2405.8212,-123.5 2298.8212,-123.5"/>
<text text-anchor="start" x="2306.8212" y="-141.5" font-family="Helvetica,sans-Serif" font-size="10.00" fill="#000000">neuroscience/neuron</text>
<text text-anchor="middle" x="2352.3212" y="-130.5" font-family="Helvetica,sans-Serif" font-size="10.00" fill="#000000">_or_neurite.cc</text>
</a>
</g>
</g>
<!-- Node15&#45;&gt;Node22 -->
<g id="edge25" class="edge">
<title>Node15&#45;&gt;Node22</title>
<path fill="none" stroke="#191970" d="M2479.4639,-249.9559C2494.2984,-232.7068 2508.5128,-208.7718 2495.3212,-190 2489.6318,-181.9039 2441.5145,-165.6143 2402.6428,-153.5125"/>
<polygon fill="#191970" stroke="#191970" points="2476.8555,-247.622 2472.7006,-257.3682 2482.0264,-252.3402 2476.8555,-247.622"/>
</g>
<!-- Node23 -->
<g id="node19" class="node">
<title>Node23</title>
<g id="a_node19"><a xlink:href="neuron__soma_8cc.html" target="_top" xlink:title="neuroscience/neuron\l_soma.cc">
<polygon fill="#ffffff" stroke="#000000" points="2173.8212,-123.5 2173.8212,-153.5 2280.8212,-153.5 2280.8212,-123.5 2173.8212,-123.5"/>
<text text-anchor="start" x="2181.8212" y="-141.5" font-family="Helvetica,sans-Serif" font-size="10.00" fill="#000000">neuroscience/neuron</text>
<text text-anchor="middle" x="2227.3212" y="-130.5" font-family="Helvetica,sans-Serif" font-size="10.00" fill="#000000">_soma.cc</text>
</a>
</g>
</g>
<!-- Node15&#45;&gt;Node23 -->
<g id="edge26" class="edge">
<title>Node15&#45;&gt;Node23</title>
<path fill="none" stroke="#191970" d="M2452.4392,-247.3056C2448.3036,-228.8991 2439.9432,-204.6854 2423.3212,-190 2420.5692,-187.5686 2337.9994,-166.3935 2280.9202,-151.964"/>
<polygon fill="#191970" stroke="#191970" points="2449.0519,-248.2198 2454.4165,-257.3561 2455.9202,-246.8685 2449.0519,-248.2198"/>
</g>
<!-- Node24 -->
<g id="node20" class="node">
<title>Node24</title>
<g id="a_node20"><a xlink:href="neuroscience_8h.html" target="_top" xlink:title="neuroscience/neuroscience.h">
<polygon fill="#ffffff" stroke="#000000" points="2423.8212,-129 2423.8212,-148 2566.8212,-148 2566.8212,-129 2423.8212,-129"/>
<text text-anchor="middle" x="2495.3212" y="-136" font-family="Helvetica,sans-Serif" font-size="10.00" fill="#000000">neuroscience/neuroscience.h</text>
</a>
</g>
</g>
<!-- Node15&#45;&gt;Node24 -->
<g id="edge27" class="edge">
<title>Node15&#45;&gt;Node24</title>
<path fill="none" stroke="#191970" d="M2501.7988,-252.4008C2514.282,-244.5121 2526.302,-234.139 2533.3212,-221 2546.9932,-195.4076 2521.3808,-163.9846 2505.8924,-148.3336"/>
<polygon fill="#191970" stroke="#191970" points="2500.0015,-249.3973 2493.1383,-257.4687 2503.5369,-255.4389 2500.0015,-249.3973"/>
</g>
<!-- Node17 -->
<g id="node13" class="node">
<title>Node17</title>
<g id="a_node13"><a xlink:href="root_2adaptor_8h.html" target="_top" xlink:title="core/visualization\l/root/adaptor.h">
<polygon fill="#ffffff" stroke="#000000" points="848.3212,-123.5 848.3212,-153.5 940.3212,-153.5 940.3212,-123.5 848.3212,-123.5"/>
<text text-anchor="start" x="856.3212" y="-141.5" font-family="Helvetica,sans-Serif" font-size="10.00" fill="#000000">core/visualization</text>
<text text-anchor="middle" x="894.3212" y="-130.5" font-family="Helvetica,sans-Serif" font-size="10.00" fill="#000000">/root/adaptor.h</text>
</a>
</g>
</g>
<!-- Node16&#45;&gt;Node17 -->
<g id="edge16" class="edge">
<title>Node16&#45;&gt;Node17</title>
<path fill="none" stroke="#191970" d="M2297.5328,-190.1156C1735.7042,-114.907 1586.5092,-195.0524 1025.3212,-154 997.1129,-151.9365 965.6335,-148.2566 940.604,-145.0002"/>
<polygon fill="#191970" stroke="#191970" points="2297.1319,-193.5932 2307.5101,-191.4617 2298.0679,-186.656 2297.1319,-193.5932"/>
</g>
<!-- Node16&#45;&gt;Node21 -->
<g id="edge21" class="edge">
<title>Node16&#45;&gt;Node21</title>
<path fill="none" stroke="#191970" d="M2298.0205,-189.1879C2248.0325,-176.3064 2179.9988,-158.7746 2138.4498,-148.0678"/>
<polygon fill="#191970" stroke="#191970" points="2297.2072,-192.5926 2307.7643,-191.6988 2298.954,-185.814 2297.2072,-192.5926"/>
</g>
<!-- Node16&#45;&gt;Node22 -->
<g id="edge22" class="edge">
<title>Node16&#45;&gt;Node22</title>
<path fill="none" stroke="#191970" d="M2357.9385,-180.3179C2356.7327,-171.3414 2355.4126,-161.5143 2354.3553,-153.6432"/>
<polygon fill="#191970" stroke="#191970" points="2354.4787,-180.8517 2359.2789,-190.2967 2361.4164,-179.9197 2354.4787,-180.8517"/>
</g>
<!-- Node16&#45;&gt;Node23 -->
<g id="edge23" class="edge">
<title>Node16&#45;&gt;Node23</title>
<path fill="none" stroke="#191970" d="M2322.1475,-185.9132C2301.6112,-175.645 2276.8335,-163.2561 2257.7566,-153.7177"/>
<polygon fill="#191970" stroke="#191970" points="2320.7394,-189.1222 2331.249,-190.4639 2323.8699,-182.8612 2320.7394,-189.1222"/>
</g>
<!-- Node16&#45;&gt;Node24 -->
<g id="edge24" class="edge">
<title>Node16&#45;&gt;Node24</title>
<path fill="none" stroke="#191970" d="M2400.5808,-185.8702C2425.4388,-173.4412 2456.4838,-157.9187 2476.1133,-148.1039"/>
<polygon fill="#191970" stroke="#191970" points="2398.7724,-182.8612 2391.3934,-190.4639 2401.9029,-189.1222 2398.7724,-182.8612"/>
</g>
<!-- Node18 -->
<g id="node14" class="node">
<title>Node18</title>
<g id="a_node14"><a xlink:href="notebook__util_8h.html" target="_top" xlink:title="core/visualization\l/root/notebook_util.h">
<polygon fill="#ffffff" stroke="#000000" points="837.8212,-56.5 837.8212,-86.5 942.8212,-86.5 942.8212,-56.5 837.8212,-56.5"/>
<text text-anchor="start" x="845.8212" y="-74.5" font-family="Helvetica,sans-Serif" font-size="10.00" fill="#000000">core/visualization</text>
<text text-anchor="middle" x="890.3212" y="-63.5" font-family="Helvetica,sans-Serif" font-size="10.00" fill="#000000">/root/notebook_util.h</text>
</a>
</g>
</g>
<!-- Node17&#45;&gt;Node18 -->
<g id="edge17" class="edge">
<title>Node17&#45;&gt;Node18</title>
<path fill="none" stroke="#191970" d="M892.8003,-113.0249C892.2691,-104.128 891.6901,-94.4287 891.2252,-86.6432"/>
<polygon fill="#191970" stroke="#191970" points="889.3237,-113.5231 893.4135,-123.2967 896.3112,-113.1058 889.3237,-113.5231"/>
</g>
<!-- Node17&#45;&gt;Node19 -->
<g id="edge19" class="edge">
<title>Node17&#45;&gt;Node19</title>
<path fill="none" stroke="#191970" d="M866.4183,-116.9424C854.6185,-107.7703 840.7541,-96.9201 828.3212,-87 811.2839,-73.4061 810.514,-64.2044 790.3212,-56 704.4468,-21.109 425.2729,-12.6282 313.3582,-10.6121"/>
<polygon fill="#191970" stroke="#191970" points="864.5494,-119.9222 874.5956,-123.2872 868.8405,-114.3917 864.5494,-119.9222"/>
</g>
<!-- Node17&#45;&gt;Node20 -->
<g id="edge20" class="edge">
<title>Node17&#45;&gt;Node20</title>
<path fill="none" stroke="#191970" d="M848.7228,-119.5243C818.6031,-106.99 780.3995,-91.0916 756.3993,-81.1039"/>
<polygon fill="#191970" stroke="#191970" points="847.6124,-122.8531 858.1896,-123.4639 850.3019,-116.3904 847.6124,-122.8531"/>
</g>
<!-- Node18&#45;&gt;Node10 -->
<g id="edge18" class="edge">
<title>Node18&#45;&gt;Node10</title>
<path fill="none" stroke="#191970" d="M952.8536,-56.7206C954.3551,-56.4668 955.846,-56.226 957.3212,-56 1168.9274,-23.5871 1426.2663,-13.5793 1519.981,-10.8852"/>
<polygon fill="#191970" stroke="#191970" points="952.0452,-53.3104 942.8431,-58.5613 953.3112,-60.195 952.0452,-53.3104"/>
</g>
<!-- Node29&#45;&gt;Node10 -->
<g id="edge51" class="edge">
<title>Node29&#45;&gt;Node10</title>
<path fill="none" stroke="#191970" d="M1231.2079,-257.6533C1247.1431,-248.0304 1267.6402,-234.7604 1284.3212,-221 1299.1114,-208.7994 1299.9151,-202.6519 1314.3212,-190 1395.5645,-118.6497 1503.2014,-45.2871 1541.7891,-19.584"/>
<polygon fill="#191970" stroke="#191970" points="1229.2274,-254.7588 1222.4159,-262.8738 1232.8013,-260.7777 1229.2274,-254.7588"/>
</g>
<!-- Node29&#45;&gt;Node13 -->
<g id="edge62" class="edge">
<title>Node29&#45;&gt;Node13</title>
<path fill="none" stroke="#191970" d="M1246.4993,-260.0289C1304.6665,-242.7099 1414.3982,-211.1274 1509.3212,-190 1600.0443,-169.8074 1624.4005,-173.2835 1715.3212,-154 1718.5773,-153.3094 1721.9217,-152.5678 1725.289,-151.7966"/>
<polygon fill="#191970" stroke="#191970" points="1245.1732,-256.7721 1236.594,-262.9888 1247.1775,-263.4791 1245.1732,-256.7721"/>
</g>
<!-- Node29&#45;&gt;Node17 -->
<g id="edge52" class="edge">
<title>Node29&#45;&gt;Node17</title>
<path fill="none" stroke="#191970" d="M1131.5957,-267.2531C1030.2461,-259.2794 858.194,-242.7143 839.3212,-221 820.463,-199.3025 849.6142,-170.8054 872.1627,-153.6135"/>
<polygon fill="#191970" stroke="#191970" points="1131.5375,-270.759 1141.7785,-268.0441 1132.0797,-263.78 1131.5375,-270.759"/>
</g>
<!-- Node29&#45;&gt;Node19 -->
<g id="edge61" class="edge">
<title>Node29&#45;&gt;Node19</title>
<path fill="none" stroke="#191970" d="M1131.4049,-267.4223C1015.9795,-259.0174 798.3776,-241.1296 723.3212,-221 581.4917,-182.9624 554.2179,-149.4575 421.3212,-87 371.5565,-63.6121 313.7345,-34.3145 284.8045,-19.5074"/>
<polygon fill="#191970" stroke="#191970" points="1131.3435,-270.927 1141.5699,-268.1572 1131.8484,-263.9452 1131.3435,-270.927"/>
</g>
<!-- Node29&#45;&gt;Node20 -->
<g id="edge63" class="edge">
<title>Node29&#45;&gt;Node20</title>
<path fill="none" stroke="#191970" d="M1131.3964,-269.6407C1036.4298,-264.7451 878.0187,-252.0794 829.3212,-221 815.3455,-212.0806 757.1322,-112.695 738.8442,-81.0894"/>
<polygon fill="#191970" stroke="#191970" points="1131.3543,-273.1428 1141.5163,-270.1454 1131.703,-266.1515 1131.3543,-273.1428"/>
</g>
<!-- Node29&#45;&gt;Node23 -->
<g id="edge66" class="edge">
<title>Node29&#45;&gt;Node23</title>
<path fill="none" stroke="#191970" d="M1279.1194,-268.9018C1492.7289,-258.4132 2097.7056,-228.1593 2117.3212,-221 2156.5643,-206.6771 2193.5577,-173.384 2213.0389,-153.7496"/>
<polygon fill="#191970" stroke="#191970" points="1278.7601,-265.4151 1268.9436,-269.401 1279.1032,-272.4067 1278.7601,-265.4151"/>
</g>
<!-- Node29&#45;&gt;Node25 -->
<g id="edge57" class="edge">
<title>Node29&#45;&gt;Node25</title>
<path fill="none" stroke="#191970" d="M1279.2297,-269.0507C1500.2489,-258.6799 2143.6393,-228.0614 2188.3212,-221 2197.1749,-219.6008 2206.6256,-217.3924 2215.2729,-215.0765"/>
<polygon fill="#191970" stroke="#191970" points="1278.8533,-265.5644 1269.0283,-269.5291 1279.1813,-272.5568 1278.8533,-265.5644"/>
</g>
<!-- Node29&#45;&gt;Node26 -->
<g id="edge59" class="edge">
<title>Node29&#45;&gt;Node26</title>
<path fill="none" stroke="#191970" d="M1211.3806,-253.328C1217.9737,-235.084 1230.0767,-207.8417 1248.3212,-190 1274.1847,-164.7074 1302.2183,-184.7201 1321.3212,-154 1328.5968,-142.2999 1329.8977,-133.7829 1321.3212,-123 1302.3687,-99.1717 1226.1928,-85.4166 1168.097,-78.2136"/>
<polygon fill="#191970" stroke="#191970" points="1208.0347,-252.2964 1208.1307,-262.8909 1214.6624,-254.5489 1208.0347,-252.2964"/>
</g>
<!-- Node29&#45;&gt;Node30 -->
<g id="edge33" class="edge">
<title>Node29&#45;&gt;Node30</title>
<path fill="none" stroke="#191970" d="M1155.5992,-260.5596C1101.5417,-247.578 1016.2129,-227.0869 966.3136,-215.1039"/>
<polygon fill="#191970" stroke="#191970" points="1155.1027,-264.0398 1165.6436,-262.9717 1156.7373,-257.2333 1155.1027,-264.0398"/>
</g>
<!-- Node31 -->
<g id="node27" class="node">
<title>Node31</title>
<g id="a_node27"><a xlink:href="uniform__grid__environment_8h.html" target="_top" xlink:title="core/environment/uniform\l_grid_environment.h">
<polygon fill="#ffffff" stroke="#000000" points="1034.8212,-123.5 1034.8212,-153.5 1161.8212,-153.5 1161.8212,-123.5 1034.8212,-123.5"/>
<text text-anchor="start" x="1042.8212" y="-141.5" font-family="Helvetica,sans-Serif" font-size="10.00" fill="#000000">core/environment/uniform</text>
<text text-anchor="middle" x="1098.3212" y="-130.5" font-family="Helvetica,sans-Serif" font-size="10.00" fill="#000000">_grid_environment.h</text>
</a>
</g>
</g>
<!-- Node29&#45;&gt;Node31 -->
<g id="edge55" class="edge">
<title>Node29&#45;&gt;Node31</title>
<path fill="none" stroke="#191970" d="M1191.2004,-254.816C1170.0004,-228.2665 1130.3142,-178.566 1110.3874,-153.611"/>
<polygon fill="#191970" stroke="#191970" points="1188.6511,-257.2326 1197.626,-262.8631 1194.1212,-252.8647 1188.6511,-257.2326"/>
</g>
<!-- Node29&#45;&gt;Node32 -->
<g id="edge56" class="edge">
<title>Node29&#45;&gt;Node32</title>
<path fill="none" stroke="#191970" d="M1237.1165,-258.8142C1259.1586,-249.0048 1288.9854,-235.0859 1314.3212,-221 1336.5171,-208.6598 1339.5859,-201.3157 1362.3212,-190 1391.7181,-175.3687 1426.3344,-162.6643 1453.911,-153.5344"/>
<polygon fill="#191970" stroke="#191970" points="1235.6199,-255.6489 1227.8822,-262.8863 1238.4443,-262.0538 1235.6199,-255.6489"/>
</g>
<!-- Node33 -->
<g id="node29" class="node">
<title>Node33</title>
<g id="a_node29"><a xlink:href="diffusion__op_8h.html" target="_top" xlink:title="core/operation/diffusion_op.h">
<polygon fill="#ffffff" stroke="#000000" points="612.3212,-129 612.3212,-148 754.3212,-148 754.3212,-129 612.3212,-129"/>
<text text-anchor="middle" x="683.3212" y="-136" font-family="Helvetica,sans-Serif" font-size="10.00" fill="#000000">core/operation/diffusion_op.h</text>
</a>
</g>
</g>
<!-- Node29&#45;&gt;Node33 -->
<g id="edge58" class="edge">
<title>Node29&#45;&gt;Node33</title>
<path fill="none" stroke="#191970" d="M1131.5598,-269.5094C1024.2065,-264.2006 830.8942,-250.7562 768.3212,-221 732.6632,-204.0431 702.6797,-166.1153 689.9166,-148.2112"/>
<polygon fill="#191970" stroke="#191970" points="1131.5159,-273.0113 1141.6732,-269.998 1131.8538,-266.0194 1131.5159,-273.0113"/>
</g>
<!-- Node36 -->
<g id="node32" class="node">
<title>Node36</title>
<g id="a_node32"><a xlink:href="resource__manager_8cc.html" target="_top" xlink:title="core/resource_manager.cc">
<polygon fill="#ffffff" stroke="#000000" points="1180.3212,-129 1180.3212,-148 1312.3212,-148 1312.3212,-129 1180.3212,-129"/>
<text text-anchor="middle" x="1246.3212" y="-136" font-family="Helvetica,sans-Serif" font-size="10.00" fill="#000000">core/resource_manager.cc</text>
</a>
</g>
</g>
<!-- Node29&#45;&gt;Node36 -->
<g id="edge60" class="edge">
<title>Node29&#45;&gt;Node36</title>
<path fill="none" stroke="#191970" d="M1203.5452,-252.3408C1202.7373,-235.2594 1203.2239,-210.3675 1210.3212,-190 1215.9928,-173.7238 1228.3766,-157.9212 1237.0269,-148.2074"/>
<polygon fill="#191970" stroke="#191970" points="1200.0831,-253.0242 1204.2459,-262.767 1207.0674,-252.5547 1200.0831,-253.0242"/>
</g>
<!-- Node37 -->
<g id="node33" class="node">
<title>Node37</title>
<g id="a_node33"><a xlink:href="model__initializer_8h.html" target="_top" xlink:title="core/model_initializer.h">
<polygon fill="#ffffff" stroke="#000000" points="1272.3212,-62 1272.3212,-81 1388.3212,-81 1388.3212,-62 1272.3212,-62"/>
<text text-anchor="middle" x="1330.3212" y="-69" font-family="Helvetica,sans-Serif" font-size="10.00" fill="#000000">core/model_initializer.h</text>
</a>
</g>
</g>
<!-- Node29&#45;&gt;Node37 -->
<g id="edge49" class="edge">
<title>Node29&#45;&gt;Node37</title>
<path fill="none" stroke="#191970" d="M1220.6338,-255.0745C1236.3086,-237.692 1261.7829,-210.6708 1286.3212,-190 1307.8192,-171.8903 1325.2755,-178.8985 1338.3212,-154 1350.81,-130.1641 1340.7848,-97.1302 1334.4733,-81.0545"/>
<polygon fill="#191970" stroke="#191970" points="1217.8194,-252.9717 1213.7731,-262.7635 1223.0425,-257.6322 1217.8194,-252.9717"/>
</g>
<!-- Node38 -->
<g id="node34" class="node">
<title>Node38</title>
<g id="a_node34"><a xlink:href="sim__object__vector_8h.html" target="_top" xlink:title="core/container/sim\l_object_vector.h">
<polygon fill="#ffffff" stroke="#000000" points="1022.8212,-190.5 1022.8212,-220.5 1119.8212,-220.5 1119.8212,-190.5 1022.8212,-190.5"/>
<text text-anchor="start" x="1030.8212" y="-208.5" font-family="Helvetica,sans-Serif" font-size="10.00" fill="#000000">core/container/sim</text>
<text text-anchor="middle" x="1071.3212" y="-197.5" font-family="Helvetica,sans-Serif" font-size="10.00" fill="#000000">_object_vector.h</text>
</a>
</g>
</g>
<!-- Node29&#45;&gt;Node38 -->
<g id="edge53" class="edge">
<title>Node29&#45;&gt;Node38</title>
<path fill="none" stroke="#191970" d="M1176.8881,-258.2834C1154.6995,-247.1892 1123.9539,-231.8164 1101.3647,-220.5218"/>
<polygon fill="#191970" stroke="#191970" points="1175.6127,-261.5588 1186.1222,-262.9005 1178.7432,-255.2978 1175.6127,-261.5588"/>
</g>
<!-- Node39 -->
<g id="node35" class="node">
<title>Node39</title>
<g id="a_node35"><a xlink:href="paraview_2adaptor_8h.html" target="_top" xlink:title="core/visualization\l/paraview/adaptor.h">
<polygon fill="#ffffff" stroke="#000000" points="1518.3212,-190.5 1518.3212,-220.5 1620.3212,-220.5 1620.3212,-190.5 1518.3212,-190.5"/>
<text text-anchor="start" x="1526.3212" y="-208.5" font-family="Helvetica,sans-Serif" font-size="10.00" fill="#000000">core/visualization</text>
<text text-anchor="middle" x="1569.3212" y="-197.5" font-family="Helvetica,sans-Serif" font-size="10.00" fill="#000000">/paraview/adaptor.h</text>
</a>
</g>
</g>
<!-- Node29&#45;&gt;Node39 -->
<g id="edge64" class="edge">
<title>Node29&#45;&gt;Node39</title>
<path fill="none" stroke="#191970" d="M1267.1974,-261.1107C1337.951,-248.0874 1452.4703,-227.0083 1518.3208,-214.8874"/>
<polygon fill="#191970" stroke="#191970" points="1266.2881,-257.7192 1257.0869,-262.9717 1267.5553,-264.6035 1266.2881,-257.7192"/>
</g>
<!-- Node30&#45;&gt;Node10 -->
<g id="edge34" class="edge">
<title>Node30&#45;&gt;Node10</title>
<path fill="none" stroke="#191970" d="M935.4019,-186.5614C953.3789,-149.919 993.9513,-71.5501 1019.3212,-56 1061.8524,-29.931 1406.1513,-15.3739 1519.9557,-11.239"/>
<polygon fill="#191970" stroke="#191970" points="932.1825,-185.1788 930.9621,-195.7031 938.4792,-188.2369 932.1825,-185.1788"/>
</g>
<!-- Node30&#45;&gt;Node13 -->
<g id="edge47" class="edge">
<title>Node30&#45;&gt;Node13</title>
<path fill="none" stroke="#191970" d="M983.6932,-194.2318C993.5451,-192.5973 1003.7051,-191.0988 1013.3212,-190 1323.7113,-154.5325 1406.3314,-200.1014 1715.3212,-154 1718.5035,-153.5252 1721.7605,-152.959 1725.0344,-152.3284"/>
<polygon fill="#191970" stroke="#191970" points="982.8353,-190.828 973.5738,-195.9733 984.0225,-197.7265 982.8353,-190.828"/>
</g>
<!-- Node30&#45;&gt;Node20 -->
<g id="edge48" class="edge">
<title>Node30&#45;&gt;Node20</title>
<path fill="none" stroke="#191970" d="M899.5116,-190.8C882.0284,-180.9311 858.9055,-167.3388 839.3212,-154 803.4718,-129.5831 763.7594,-97.0959 744.722,-81.155"/>
<polygon fill="#191970" stroke="#191970" points="898.1497,-194.0485 908.586,-195.8745 901.5663,-187.9389 898.1497,-194.0485"/>
</g>
<!-- Node30&#45;&gt;Node26 -->
<g id="edge45" class="edge">
<title>Node30&#45;&gt;Node26</title>
<path fill="none" stroke="#191970" d="M944.9778,-189.185C964.6103,-172.2002 996.5902,-145.0491 1025.3212,-123 1041.932,-110.2523 1061.3243,-96.6277 1075.9451,-86.5961"/>
<polygon fill="#191970" stroke="#191970" points="942.6197,-186.5972 937.3653,-195.7973 947.2101,-191.8819 942.6197,-186.5972"/>
</g>
<!-- Node30&#45;&gt;Node31 -->
<g id="edge35" class="edge">
<title>Node30&#45;&gt;Node31</title>
<path fill="none" stroke="#191970" d="M960.5428,-192.1695C989.167,-181.0194 1029.9826,-165.1203 1059.7578,-153.5218"/>
<polygon fill="#191970" stroke="#191970" points="959.0122,-189.0095 950.9646,-195.9005 961.553,-195.5321 959.0122,-189.0095"/>
</g>
<!-- Node30&#45;&gt;Node32 -->
<g id="edge38" class="edge">
<title>Node30&#45;&gt;Node32</title>
<path fill="none" stroke="#191970" d="M986.4186,-194.215C995.419,-192.6928 1004.6019,-191.2333 1013.3212,-190 1168.1012,-168.1069 1351.6036,-151.2266 1443.9435,-143.359"/>
<polygon fill="#191970" stroke="#191970" points="985.6269,-190.7998 976.3689,-195.9516 986.8189,-197.6976 985.6269,-190.7998"/>
</g>
<!-- Node30&#45;&gt;Node33 -->
<g id="edge39" class="edge">
<title>Node30&#45;&gt;Node33</title>
<path fill="none" stroke="#191970" d="M881.8347,-193.2342C834.6986,-180.2378 761.2525,-159.9872 718.1533,-148.1039"/>
<polygon fill="#191970" stroke="#191970" points="881.1927,-196.6877 891.7633,-195.9717 883.0533,-189.9395 881.1927,-196.6877"/>
</g>
<!-- Node30&#45;&gt;Node34 -->
<g id="edge41" class="edge">
<title>Node30&#45;&gt;Node34</title>
<path fill="none" stroke="#191970" d="M837.7319,-197.2051C736.304,-187.5488 565.2045,-170.7733 418.3212,-154 401.3508,-152.0621 383.0729,-149.8217 365.9618,-147.6571"/>
<polygon fill="#191970" stroke="#191970" points="837.6453,-200.7126 847.9317,-198.1745 838.3077,-193.744 837.6453,-200.7126"/>
</g>
<!-- Node30&#45;&gt;Node35 -->
<g id="edge44" class="edge">
<title>Node30&#45;&gt;Node35</title>
<path fill="none" stroke="#191970" d="M853.4999,-194.4084C787.9802,-184.3053 689.112,-168.754 603.3212,-154 458.6632,-129.1222 288.2431,-96.8438 205.8605,-81.0516"/>
<polygon fill="#191970" stroke="#191970" points="853.3058,-197.9197 863.722,-195.9821 854.371,-191.0012 853.3058,-197.9197"/>
</g>
<!-- Node30&#45;&gt;Node36 -->
<g id="edge46" class="edge">
<title>Node30&#45;&gt;Node36</title>
<path fill="none" stroke="#191970" d="M981.8253,-193.8788C1043.8294,-180.8967 1143.0453,-160.1234 1200.711,-148.0496"/>
<polygon fill="#191970" stroke="#191970" points="980.9,-190.4966 971.8295,-195.9717 982.3346,-197.348 980.9,-190.4966"/>
</g>
<!-- Node31&#45;&gt;Node20 -->
<g id="edge37" class="edge">
<title>Node31&#45;&gt;Node20</title>
<path fill="none" stroke="#191970" d="M1024.7551,-124.9961C952.206,-111.6789 843.4337,-91.7124 781.3376,-80.314"/>
<polygon fill="#191970" stroke="#191970" points="1024.2754,-128.4664 1034.743,-126.8295 1025.5393,-121.5815 1024.2754,-128.4664"/>
</g>
<!-- Node31&#45;&gt;Node26 -->
<g id="edge36" class="edge">
<title>Node31&#45;&gt;Node26</title>
<path fill="none" stroke="#191970" d="M1098.3212,-113.0249C1098.3212,-104.128 1098.3212,-94.4287 1098.3212,-86.6432"/>
<polygon fill="#191970" stroke="#191970" points="1094.8213,-113.2966 1098.3212,-123.2967 1101.8213,-113.2967 1094.8213,-113.2966"/>
</g>
<!-- Node33&#45;&gt;Node19 -->
<g id="edge40" class="edge">
<title>Node33&#45;&gt;Node19</title>
<path fill="none" stroke="#191970" d="M642.7116,-125.986C559.5439,-100.3576 371.4374,-42.3919 297.244,-19.529"/>
<polygon fill="#191970" stroke="#191970" points="641.7318,-129.3464 652.3191,-128.9466 643.7933,-122.6568 641.7318,-129.3464"/>
</g>
<!-- Node34&#45;&gt;Node35 -->
<g id="edge42" class="edge">
<title>Node34&#45;&gt;Node35</title>
<path fill="none" stroke="#191970" d="M255.6465,-119.0343C229.6186,-106.5781 196.9879,-90.9619 176.3891,-81.1039"/>
<polygon fill="#191970" stroke="#191970" points="254.3713,-122.3041 264.9024,-123.4639 257.3931,-115.9899 254.3713,-122.3041"/>
</g>
<!-- Node35&#45;&gt;Node19 -->
<g id="edge43" class="edge">
<title>Node35&#45;&gt;Node19</title>
<path fill="none" stroke="#191970" d="M182.4082,-56.915C203.0854,-45.3546 231.3805,-29.535 249.2544,-19.5419"/>
<polygon fill="#191970" stroke="#191970" points="180.5291,-53.9556 173.5087,-61.8906 183.9451,-60.0655 180.5291,-53.9556"/>
</g>
<!-- Node37&#45;&gt;Node10 -->
<g id="edge50" class="edge">
<title>Node37&#45;&gt;Node10</title>
<path fill="none" stroke="#191970" d="M1375.5326,-59.1969C1418.4467,-47.5189 1482.0526,-30.2103 1521.2566,-19.5419"/>
<polygon fill="#191970" stroke="#191970" points="1374.3638,-55.8876 1365.6337,-61.8906 1376.2018,-62.642 1374.3638,-55.8876"/>
</g>
<!-- Node38&#45;&gt;Node31 -->
<g id="edge54" class="edge">
<title>Node38&#45;&gt;Node31</title>
<path fill="none" stroke="#191970" d="M1081.2338,-180.9021C1084.914,-171.7696 1088.9778,-161.6854 1092.2187,-153.6432"/>
<polygon fill="#191970" stroke="#191970" points="1077.9394,-179.7132 1077.4479,-190.2967 1084.432,-182.3297 1077.9394,-179.7132"/>
</g>
<!-- Node40 -->
<g id="node36" class="node">
<title>Node40</title>
<g id="a_node36"><a xlink:href="adaptor_8cc.html" target="_top" xlink:title="core/visualization\l/paraview/adaptor.cc">
<polygon fill="#ffffff" stroke="#000000" points="1599.8212,-123.5 1599.8212,-153.5 1706.8212,-153.5 1706.8212,-123.5 1599.8212,-123.5"/>
<text text-anchor="start" x="1607.8212" y="-141.5" font-family="Helvetica,sans-Serif" font-size="10.00" fill="#000000">core/visualization</text>
<text text-anchor="middle" x="1653.3212" y="-130.5" font-family="Helvetica,sans-Serif" font-size="10.00" fill="#000000">/paraview/adaptor.cc</text>
</a>
</g>
</g>
<!-- Node39&#45;&gt;Node40 -->
<g id="edge65" class="edge">
<title>Node39&#45;&gt;Node40</title>
<path fill="none" stroke="#191970" d="M1596.5512,-183.7808C1608.8911,-173.9383 1623.1803,-162.541 1634.3357,-153.6432"/>
<polygon fill="#191970" stroke="#191970" points="1594.0174,-181.3248 1588.3821,-190.2967 1598.3823,-186.7973 1594.0174,-181.3248"/>
</g>
<!-- Node41&#45;&gt;Node15 -->
<g id="edge72" class="edge">
<title>Node41&#45;&gt;Node15</title>
<path fill="none" stroke="#191970" d="M2314.0333,-321.1392C2344.8547,-310.6033 2383.0772,-297.5375 2412.1431,-287.6017"/>
<polygon fill="#191970" stroke="#191970" points="2312.6377,-317.9174 2304.3074,-324.4639 2314.902,-324.5411 2312.6377,-317.9174"/>
</g>
<!-- Node41&#45;&gt;Node16 -->
<g id="edge71" class="edge">
<title>Node41&#45;&gt;Node16</title>
<path fill="none" stroke="#191970" d="M2263.0403,-314.3936C2265.964,-296.9258 2271.985,-273.8416 2284.3212,-257 2295.6302,-241.5607 2313.0636,-229.347 2328.4838,-220.6962"/>
<polygon fill="#191970" stroke="#191970" points="2259.5551,-314.0406 2261.5914,-324.4379 2266.4834,-315.0401 2259.5551,-314.0406"/>
</g>
<!-- Node41&#45;&gt;Node22 -->
<g id="edge73" class="edge">
<title>Node41&#45;&gt;Node22</title>
<path fill="none" stroke="#191970" d="M2295.4401,-319.2146C2339.076,-293.1792 2409.4973,-248.1407 2423.3212,-221 2429.5743,-208.723 2429.5809,-202.2737 2423.3212,-190 2415.2265,-174.1287 2399.7006,-162.0076 2385.2268,-153.5239"/>
<polygon fill="#191970" stroke="#191970" points="2293.3874,-316.3624 2286.5652,-324.4685 2296.9534,-322.386 2293.3874,-316.3624"/>
</g>
<!-- Node42&#45;&gt;Node19 -->
<g id="edge79" class="edge">
<title>Node42&#45;&gt;Node19</title>
<path fill="none" stroke="#191970" d="M199.2748,-180.5627C194.6404,-163.5281 191.6045,-140.8905 200.3212,-123 211.6922,-99.6617 232.0844,-108.7092 246.3212,-87 260.2576,-65.7487 264.4925,-35.2678 265.7722,-19.8033"/>
<polygon fill="#191970" stroke="#191970" points="195.9987,-181.8177 202.2761,-190.3525 202.6912,-179.7658 195.9987,-181.8177"/>
</g>
<!-- Node42&#45;&gt;Node26 -->
<g id="edge78" class="edge">
<title>Node42&#45;&gt;Node26</title>
<path fill="none" stroke="#191970" d="M203.3367,-180.3516C201.2517,-161.7605 202.1549,-137.2875 217.3212,-123 247.0382,-95.0049 910.6154,-90.1418 951.3212,-87 976.5236,-85.0548 1004.0945,-82.3118 1028.4802,-79.6729"/>
<polygon fill="#191970" stroke="#191970" points="199.9105,-181.1103 204.8245,-190.4966 206.8364,-180.0946 199.9105,-181.1103"/>
</g>
<!-- Node42&#45;&gt;Node34 -->
<g id="edge77" class="edge">
<title>Node42&#45;&gt;Node34</title>
<path fill="none" stroke="#191970" d="M236.4755,-184.0643C249.4872,-174.1577 264.6326,-162.6265 276.4316,-153.6432"/>
<polygon fill="#191970" stroke="#191970" points="234.1259,-181.4542 228.2897,-190.2967 238.3664,-187.0237 234.1259,-181.4542"/>
</g>
<!-- Node44&#45;&gt;Node40 -->
<g id="edge88" class="edge">
<title>Node44&#45;&gt;Node40</title>
<path fill="none" stroke="#191970" d="M1834.1005,-319.0259C1846.0872,-311.1243 1857.6146,-300.8382 1864.3212,-288 1870.7005,-275.7881 1868.2681,-270.2003 1864.3212,-257 1854.1157,-222.8681 1848.8014,-211.4012 1820.3212,-190 1810.9525,-182.96 1752.0655,-165.6596 1706.8427,-153.0476"/>
<polygon fill="#191970" stroke="#191970" points="1832.0687,-316.1654 1825.3536,-324.3603 1835.7135,-322.1417 1832.0687,-316.1654"/>
</g>
<!-- Node45 -->
<g id="node41" class="node">
<title>Node45</title>
<g id="a_node41"><a xlink:href="visualization_2paraview_2so__visitor_8h.html" target="_top" xlink:title="core/visualization\l/paraview/so_visitor.h">
<polygon fill="#ffffff" stroke="#000000" points="1556.3212,-257.5 1556.3212,-287.5 1668.3212,-287.5 1668.3212,-257.5 1556.3212,-257.5"/>
<text text-anchor="start" x="1564.3212" y="-275.5" font-family="Helvetica,sans-Serif" font-size="10.00" fill="#000000">core/visualization</text>
<text text-anchor="middle" x="1612.3212" y="-264.5" font-family="Helvetica,sans-Serif" font-size="10.00" fill="#000000">/paraview/so_visitor.h</text>
</a>
</g>
</g>
<!-- Node44&#45;&gt;Node45 -->
<g id="edge85" class="edge">
<title>Node44&#45;&gt;Node45</title>
<path fill="none" stroke="#191970" d="M1740.8133,-320.865C1712.9505,-310.3773 1678.6101,-297.4515 1652.4421,-287.6017"/>
<polygon fill="#191970" stroke="#191970" points="1739.7825,-324.2167 1750.3745,-324.4639 1742.2485,-317.6654 1739.7825,-324.2167"/>
</g>
<!-- Node46 -->
<g id="node42" class="node">
<title>Node46</title>
<g id="a_node42"><a xlink:href="so__visitor_8cc.html" target="_top" xlink:title="core/visualization\l/paraview/so_visitor.cc">
<polygon fill="#ffffff" stroke="#000000" points="1676.8212,-190.5 1676.8212,-220.5 1793.8212,-220.5 1793.8212,-190.5 1676.8212,-190.5"/>
<text text-anchor="start" x="1684.8212" y="-208.5" font-family="Helvetica,sans-Serif" font-size="10.00" fill="#000000">core/visualization</text>
<text text-anchor="middle" x="1735.3212" y="-197.5" font-family="Helvetica,sans-Serif" font-size="10.00" fill="#000000">/paraview/so_visitor.cc</text>
</a>
</g>
</g>
<!-- Node44&#45;&gt;Node46 -->
<g id="edge91" class="edge">
<title>Node44&#45;&gt;Node46</title>
<path fill="none" stroke="#191970" d="M1745.9639,-319.1431C1733.8159,-311.2467 1722.1296,-300.9341 1715.3212,-288 1703.8569,-266.221 1715.861,-237.7487 1725.5932,-220.5839"/>
<polygon fill="#191970" stroke="#191970" points="1744.4536,-322.3188 1754.828,-324.4687 1748.0587,-316.3185 1744.4536,-322.3188"/>
</g>
<!-- Node47 -->
<g id="node43" class="node">
<title>Node47</title>
<g id="a_node43"><a xlink:href="insitu__pipeline_8h.html" target="_top" xlink:title="core/visualization\l/paraview/insitu_pipeline.h">
<polygon fill="#ffffff" stroke="#000000" points="1724.8212,-257.5 1724.8212,-287.5 1855.8212,-287.5 1855.8212,-257.5 1724.8212,-257.5"/>
<text text-anchor="start" x="1732.8212" y="-275.5" font-family="Helvetica,sans-Serif" font-size="10.00" fill="#000000">core/visualization</text>
<text text-anchor="middle" x="1790.3212" y="-264.5" font-family="Helvetica,sans-Serif" font-size="10.00" fill="#000000">/paraview/insitu_pipeline.h</text>
</a>
</g>
</g>
<!-- Node44&#45;&gt;Node47 -->
<g id="edge89" class="edge">
<title>Node44&#45;&gt;Node47</title>
<path fill="none" stroke="#191970" d="M1790.3212,-314.0249C1790.3212,-305.128 1790.3212,-295.4287 1790.3212,-287.6432"/>
<polygon fill="#191970" stroke="#191970" points="1786.8213,-314.2966 1790.3212,-324.2967 1793.8213,-314.2967 1786.8213,-314.2966"/>
</g>
<!-- Node45&#45;&gt;Node39 -->
<g id="edge86" class="edge">
<title>Node45&#45;&gt;Node39</title>
<path fill="none" stroke="#191970" d="M1597.0937,-248.7735C1591.0877,-239.4154 1584.3661,-228.9421 1579.0399,-220.6432"/>
<polygon fill="#191970" stroke="#191970" points="1594.217,-250.7712 1602.5638,-257.2967 1600.1081,-246.9903 1594.217,-250.7712"/>
</g>
<!-- Node45&#45;&gt;Node46 -->
<g id="edge87" class="edge">
<title>Node45&#45;&gt;Node46</title>
<path fill="none" stroke="#191970" d="M1648.7895,-252.6352C1667.5389,-242.422 1690.0311,-230.1702 1707.3841,-220.7177"/>
<polygon fill="#191970" stroke="#191970" points="1647.0322,-249.6067 1639.9248,-257.4639 1650.3807,-255.7539 1647.0322,-249.6067"/>
</g>
<!-- Node47&#45;&gt;Node40 -->
<g id="edge90" class="edge">
<title>Node47&#45;&gt;Node40</title>
<path fill="none" stroke="#191970" d="M1802.5396,-247.6774C1809.3006,-230.0509 1814.1853,-206.6535 1802.3212,-190 1796.4057,-181.6965 1746.9009,-165.6126 1706.5514,-153.6181"/>
<polygon fill="#191970" stroke="#191970" points="1799.1429,-246.7216 1798.4544,-257.2941 1805.5857,-249.4586 1799.1429,-246.7216"/>
</g>
<!-- Node48&#45;&gt;Node10 -->
<g id="edge104" class="edge">
<title>Node48&#45;&gt;Node10</title>
<path fill="none" stroke="#191970" d="M501.3793,-393.0711C481.5277,-384.479 457.6445,-371.7764 440.3212,-355 406.7629,-322.5013 386.6789,-301.0186 402.3212,-257 452.8928,-114.6877 528.8969,-88.8079 676.3212,-56 841.1477,-19.3193 1376.0539,-11.6943 1520.2369,-10.2899"/>
<polygon fill="#191970" stroke="#191970" points="500.1764,-396.3613 510.7544,-396.9587 502.8578,-389.8951 500.1764,-396.3613"/>
</g>
<!-- Node48&#45;&gt;Node12 -->
<g id="edge99" class="edge">
<title>Node48&#45;&gt;Node12</title>
<path fill="none" stroke="#191970" d="M593.0783,-405.242C774.2176,-400.8152 1346.9445,-384.6035 1424.3212,-355 1456.9621,-342.5119 1517.4038,-275.0647 1547.3212,-257 1581.3936,-236.4265 1595.3681,-241.7698 1629.3212,-221 1647.9142,-209.6263 1647.5647,-199.2057 1667.3212,-190 1686.774,-180.9358 1811.8494,-159.3159 1885.0973,-147.1672"/>
<polygon fill="#191970" stroke="#191970" points="592.8906,-401.7454 582.9783,-405.4865 593.0601,-408.7434 592.8906,-401.7454"/>
</g>
<!-- Node48&#45;&gt;Node17 -->
<g id="edge105" class="edge">
<title>Node48&#45;&gt;Node17</title>
<path fill="none" stroke="#191970" d="M559.0461,-390.8981C622.2755,-343.2985 812.1826,-200.3346 874.3681,-153.5208"/>
<polygon fill="#191970" stroke="#191970" points="556.8756,-388.1511 550.9914,-396.9617 561.0857,-393.7436 556.8756,-388.1511"/>
</g>
<!-- Node48&#45;&gt;Node19 -->
<g id="edge109" class="edge">
<title>Node48&#45;&gt;Node19</title>
<path fill="none" stroke="#191970" d="M483.3495,-403.8488C394.1022,-398.7179 222.4101,-385.165 170.3212,-355 137.702,-336.11 135.0186,-321.794 118.3212,-288 71.4691,-193.1757 -.5997,-138.7115 65.3212,-56 84.1744,-32.3446 165.7326,-19.8747 218.9892,-14.131"/>
<polygon fill="#191970" stroke="#191970" points="483.3704,-407.3553 493.5502,-404.4191 483.7612,-400.3662 483.3704,-407.3553"/>
</g>
<!-- Node48&#45;&gt;Node20 -->
<g id="edge110" class="edge">
<title>Node48&#45;&gt;Node20</title>
<path fill="none" stroke="#191970" d="M546.8438,-387.5714C550.7504,-378.0066 555.0164,-366.1011 557.3212,-355 578.3146,-253.8834 506.9724,-204.5611 570.3212,-123 584.5662,-104.6596 642.3112,-89.4965 685.0469,-80.4802"/>
<polygon fill="#191970" stroke="#191970" points="543.5756,-386.3124 542.8556,-396.8827 550.0102,-389.0685 543.5756,-386.3124"/>
</g>
<!-- Node48&#45;&gt;Node32 -->
<g id="edge106" class="edge">
<title>Node48&#45;&gt;Node32</title>
<path fill="none" stroke="#191970" d="M593.2239,-400.7427C742.2201,-384.6379 1151.41,-337.0841 1277.3212,-288 1321.4811,-270.7851 1436.1399,-188.0488 1482.9581,-153.6015"/>
<polygon fill="#191970" stroke="#191970" points="592.5216,-397.2979 582.9533,-401.8474 593.2703,-404.2578 592.5216,-397.2979"/>
</g>
<!-- Node48&#45;&gt;Node34 -->
<g id="edge107" class="edge">
<title>Node48&#45;&gt;Node34</title>
<path fill="none" stroke="#191970" d="M483.2481,-400.3606C447.5865,-393.9958 401.8956,-381.0911 369.3212,-355 305.2355,-303.6693 297.0592,-193.7971 296.2771,-153.6172"/>
<polygon fill="#191970" stroke="#191970" points="483.0553,-403.8764 493.4934,-402.0607 484.2012,-396.9708 483.0553,-403.8764"/>
</g>
<!-- Node48&#45;&gt;Node35 -->
<g id="edge108" class="edge">
<title>Node48&#45;&gt;Node35</title>
<path fill="none" stroke="#191970" d="M483.6358,-400.5124C370.733,-386.6279 122.3212,-347.5511 122.3212,-272.5 122.3212,-272.5 122.3212,-272.5 122.3212,-205.5 122.3212,-157.4979 143.0731,-102.712 152.1521,-81.0401"/>
<polygon fill="#191970" stroke="#191970" points="483.4545,-404.0158 493.8019,-401.7394 484.2934,-397.0663 483.4545,-404.0158"/>
</g>
<!-- Node48&#45;&gt;Node39 -->
<g id="edge111" class="edge">
<title>Node48&#45;&gt;Node39</title>
<path fill="none" stroke="#191970" d="M593.0695,-405.1744C769.5883,-400.6264 1316.5611,-384.2987 1390.3212,-355 1409.5122,-347.377 1511.7843,-256.9692 1552.5405,-220.5555"/>
<polygon fill="#191970" stroke="#191970" points="592.8756,-401.6781 582.9682,-405.4322 593.0543,-408.6758 592.8756,-401.6781"/>
</g>
<!-- Node48&#45;&gt;Node45 -->
<g id="edge112" class="edge">
<title>Node48&#45;&gt;Node45</title>
<path fill="none" stroke="#191970" d="M593.2172,-406.2145C790.6069,-404.8434 1457.1602,-397.1098 1542.3212,-355 1571.7875,-340.4297 1593.6789,-307.2274 1604.582,-287.6753"/>
<polygon fill="#191970" stroke="#191970" points="593.0547,-402.7155 583.0784,-406.2822 593.1015,-409.7153 593.0547,-402.7155"/>
</g>
<!-- Node49 -->
<g id="node45" class="node">
<title>Node49</title>
<g id="a_node45"><a xlink:href="so__uid__generator_8h.html" target="_top" xlink:title="core/sim_object/so\l_uid_generator.h">
<polygon fill="#ffffff" stroke="#000000" points="449.8212,-324.5 449.8212,-354.5 548.8212,-354.5 548.8212,-324.5 449.8212,-324.5"/>
<text text-anchor="start" x="457.8212" y="-342.5" font-family="Helvetica,sans-Serif" font-size="10.00" fill="#000000">core/sim_object/so</text>
<text text-anchor="middle" x="499.3212" y="-331.5" font-family="Helvetica,sans-Serif" font-size="10.00" fill="#000000">_uid_generator.h</text>
</a>
</g>
</g>
<!-- Node48&#45;&gt;Node49 -->
<g id="edge100" class="edge">
<title>Node48&#45;&gt;Node49</title>
<path fill="none" stroke="#191970" d="M527.5993,-388.0804C521.4559,-377.5264 513.8436,-364.4489 508.0652,-354.5218"/>
<polygon fill="#191970" stroke="#191970" points="524.6778,-390.0188 532.7334,-396.9005 530.7276,-386.4973 524.6778,-390.0188"/>
</g>
<!-- Node49&#45;&gt;Node20 -->
<g id="edge103" class="edge">
<title>Node49&#45;&gt;Node20</title>
<path fill="none" stroke="#191970" d="M510.6676,-314.6227C513.9969,-306.318 517.2868,-296.9081 519.3212,-288 535.6989,-216.2858 484.9716,-179.2954 532.3212,-123 551.7986,-99.8427 632.2754,-84.9002 685.3016,-77.3635"/>
<polygon fill="#191970" stroke="#191970" points="507.3331,-313.5224 506.6689,-324.0964 513.7822,-316.2445 507.3331,-313.5224"/>
</g>
<!-- Node49&#45;&gt;Node29 -->
<g id="edge101" class="edge">
<title>Node49&#45;&gt;Node29</title>
<path fill="none" stroke="#191970" d="M559.2889,-333.809C691.3986,-321.2717 1006.5158,-291.3668 1141.8207,-278.5262"/>
<polygon fill="#191970" stroke="#191970" points="558.5903,-330.3595 548.9657,-334.7887 559.2517,-337.3282 558.5903,-330.3595"/>
</g>
<!-- Node50 -->
<g id="node46" class="node">
<title>Node50</title>
<g id="a_node46"><a xlink:href="so__uid__generator_8cc.html" target="_top" xlink:title="core/sim_object/so\l_uid_generator.cc">
<polygon fill="#ffffff" stroke="#000000" points="411.8212,-257.5 411.8212,-287.5 510.8212,-287.5 510.8212,-257.5 411.8212,-257.5"/>
<text text-anchor="start" x="419.8212" y="-275.5" font-family="Helvetica,sans-Serif" font-size="10.00" fill="#000000">core/sim_object/so</text>
<text text-anchor="middle" x="461.3212" y="-264.5" font-family="Helvetica,sans-Serif" font-size="10.00" fill="#000000">_uid_generator.cc</text>
</a>
</g>
</g>
<!-- Node49&#45;&gt;Node50 -->
<g id="edge102" class="edge">
<title>Node49&#45;&gt;Node50</title>
<path fill="none" stroke="#191970" d="M485.7,-315.4837C480.4344,-306.1996 474.5682,-295.8565 469.9098,-287.6432"/>
<polygon fill="#191970" stroke="#191970" points="482.7205,-317.325 490.6984,-324.2967 488.8094,-313.8716 482.7205,-317.325"/>
</g>
</g>
</svg>
