<?xml version="1.0" encoding="UTF-8" standalone="no"?>
<!DOCTYPE svg PUBLIC "-//W3C//DTD SVG 1.1//EN"
 "http://www.w3.org/Graphics/SVG/1.1/DTD/svg11.dtd">
<!-- Generated by graphviz version 2.40.1 (20161225.0304)
 -->
<!-- Title: core/container/parallel_resize_vector.h Pages: 1 -->
<svg width="1521pt" height="408pt"
 viewBox="0.00 0.00 1521.04 408.00" xmlns="http://www.w3.org/2000/svg" xmlns:xlink="http://www.w3.org/1999/xlink">
<g id="graph0" class="graph" transform="scale(1 1) rotate(0) translate(4 404)">
<title>core/container/parallel_resize_vector.h</title>
<polygon fill="#ffffff" stroke="transparent" points="-4,4 -4,-404 1517.0418,-404 1517.0418,4 -4,4"/>
<!-- Node11 -->
<g id="node1" class="node">
<title>Node11</title>
<polygon fill="#bfbfbf" stroke="#000000" points="837,-369.5 837,-399.5 949,-399.5 949,-369.5 837,-369.5"/>
<text text-anchor="start" x="845" y="-387.5" font-family="Helvetica,sans-Serif" font-size="10.00" fill="#000000">core/container/parallel</text>
<text text-anchor="middle" x="893" y="-376.5" font-family="Helvetica,sans-Serif" font-size="10.00" fill="#000000">_resize_vector.h</text>
</g>
<!-- Node12 -->
<g id="node2" class="node">
<title>Node12</title>
<g id="a_node2"><a xlink:href="diffusion__grid_8h.html" target="_top" xlink:title="core/diffusion_grid.h">
<polygon fill="#ffffff" stroke="#000000" points="366,-313.5 366,-332.5 470,-332.5 470,-313.5 366,-313.5"/>
<text text-anchor="middle" x="418" y="-320.5" font-family="Helvetica,sans-Serif" font-size="10.00" fill="#000000">core/diffusion_grid.h</text>
</a>
</g>
</g>
<!-- Node11&#45;&gt;Node12 -->
<g id="edge1" class="edge">
<title>Node11&#45;&gt;Node12</title>
<path fill="none" stroke="#191970" d="M826.5331,-375.8943C731.0858,-363.5364 557.1568,-341.0171 470.2864,-329.7697"/>
<polygon fill="#191970" stroke="#191970" points="826.2793,-379.3906 836.646,-377.2036 827.1782,-372.4485 826.2793,-379.3906"/>
</g>
<!-- Node16 -->
<g id="node6" class="node">
<title>Node16</title>
<g id="a_node6"><a xlink:href="uniform__grid__environment_8h.html" target="_top" xlink:title="core/environment/uniform\l_grid_environment.h">
<polygon fill="#ffffff" stroke="#000000" points="1192.5,-123.5 1192.5,-153.5 1319.5,-153.5 1319.5,-123.5 1192.5,-123.5"/>
<text text-anchor="start" x="1200.5" y="-141.5" font-family="Helvetica,sans-Serif" font-size="10.00" fill="#000000">core/environment/uniform</text>
<text text-anchor="middle" x="1256" y="-130.5" font-family="Helvetica,sans-Serif" font-size="10.00" fill="#000000">_grid_environment.h</text>
</a>
</g>
</g>
<!-- Node11&#45;&gt;Node16 -->
<g id="edge44" class="edge">
<title>Node11&#45;&gt;Node16</title>
<path fill="none" stroke="#191970" d="M959.3336,-376.3543C1100.761,-357.483 1424.3344,-305.7943 1489,-221 1497.3549,-210.0445 1497.6272,-200.7423 1489,-190 1478.3156,-176.6962 1384.8833,-159.1865 1319.6338,-148.3942"/>
<polygon fill="#191970" stroke="#191970" points="958.5212,-372.9311 949.0651,-377.7094 959.4371,-379.8709 958.5212,-372.9311"/>
</g>
<!-- Node13 -->
<g id="node3" class="node">
<title>Node13</title>
<g id="a_node3"><a xlink:href="resource__manager_8h.html" target="_top" xlink:title="core/resource_manager.h">
<polygon fill="#ffffff" stroke="#000000" points="609.5,-257.5 609.5,-276.5 736.5,-276.5 736.5,-257.5 609.5,-257.5"/>
<text text-anchor="middle" x="673" y="-264.5" font-family="Helvetica,sans-Serif" font-size="10.00" fill="#000000">core/resource_manager.h</text>
</a>
</g>
</g>
<!-- Node12&#45;&gt;Node13 -->
<g id="edge2" class="edge">
<title>Node12&#45;&gt;Node13</title>
<path fill="none" stroke="#191970" d="M471.5387,-311.2425C518.5147,-300.9262 585.9654,-286.1135 629.6333,-276.5237"/>
<polygon fill="#191970" stroke="#191970" points="470.5628,-307.8733 461.5463,-313.4369 472.0643,-314.7104 470.5628,-307.8733"/>
</g>
<!-- Node20 -->
<g id="node10" class="node">
<title>Node20</title>
<g id="a_node10"><a xlink:href="diffusion__op_8h.html" target="_top" xlink:title="core/operation/diffusion_op.h">
<polygon fill="#ffffff" stroke="#000000" points="0,-129 0,-148 142,-148 142,-129 0,-129"/>
<text text-anchor="middle" x="71" y="-136" font-family="Helvetica,sans-Serif" font-size="10.00" fill="#000000">core/operation/diffusion_op.h</text>
</a>
</g>
</g>
<!-- Node12&#45;&gt;Node20 -->
<g id="edge42" class="edge">
<title>Node12&#45;&gt;Node20</title>
<path fill="none" stroke="#191970" d="M358.7652,-311.3843C276.2771,-294.0467 132.8756,-259.3095 97,-221 77.5992,-200.283 72.6734,-165.1886 71.4239,-148.2379"/>
<polygon fill="#191970" stroke="#191970" points="358.2534,-314.8527 368.7565,-313.4619 359.6785,-307.9993 358.2534,-314.8527"/>
</g>
<!-- Node26 -->
<g id="node16" class="node">
<title>Node26</title>
<g id="a_node16"><a xlink:href="model__initializer_8h.html" target="_top" xlink:title="core/model_initializer.h">
<polygon fill="#ffffff" stroke="#000000" points="106,-196 106,-215 222,-215 222,-196 106,-196"/>
<text text-anchor="middle" x="164" y="-203" font-family="Helvetica,sans-Serif" font-size="10.00" fill="#000000">core/model_initializer.h</text>
</a>
</g>
</g>
<!-- Node12&#45;&gt;Node26 -->
<g id="edge41" class="edge">
<title>Node12&#45;&gt;Node26</title>
<path fill="none" stroke="#191970" d="M417.4966,-303.2142C416.0358,-288.4363 411.6163,-268.827 399,-257 398.1204,-256.1754 276.1173,-229.7187 208.2736,-215.0557"/>
<polygon fill="#191970" stroke="#191970" points="414.0136,-303.5992 418.1238,-313.3643 421.0003,-303.1675 414.0136,-303.5992"/>
</g>
<!-- Node34 -->
<g id="node24" class="node">
<title>Node34</title>
<g id="a_node24"><a xlink:href="substance__initializers_8h.html" target="_top" xlink:title="core/substance_initializers.h">
<polygon fill="#ffffff" stroke="#000000" points="250,-257.5 250,-276.5 390,-276.5 390,-257.5 250,-257.5"/>
<text text-anchor="middle" x="320" y="-264.5" font-family="Helvetica,sans-Serif" font-size="10.00" fill="#000000">core/substance_initializers.h</text>
</a>
</g>
</g>
<!-- Node12&#45;&gt;Node34 -->
<g id="edge43" class="edge">
<title>Node12&#45;&gt;Node34</title>
<path fill="none" stroke="#191970" d="M391.8314,-308.0465C374.3942,-298.0824 351.9889,-285.2794 336.8747,-276.6427"/>
<polygon fill="#191970" stroke="#191970" points="390.5108,-311.323 400.9297,-313.2455 393.9838,-305.2453 390.5108,-311.323"/>
</g>
<!-- Node14 -->
<g id="node4" class="node">
<title>Node14</title>
<g id="a_node4"><a xlink:href="environment_8h.html" target="_top" xlink:title="core/environment/environment.h">
<polygon fill="#ffffff" stroke="#000000" points="735,-196 735,-215 891,-215 891,-196 735,-196"/>
<text text-anchor="middle" x="813" y="-203" font-family="Helvetica,sans-Serif" font-size="10.00" fill="#000000">core/environment/environment.h</text>
</a>
</g>
</g>
<!-- Node13&#45;&gt;Node14 -->
<g id="edge3" class="edge">
<title>Node13&#45;&gt;Node14</title>
<path fill="none" stroke="#191970" d="M704.0895,-253.3428C730.5618,-241.7139 767.9152,-225.3051 791.2786,-215.0419"/>
<polygon fill="#191970" stroke="#191970" points="702.6229,-250.1642 694.875,-257.3906 705.4383,-256.5731 702.6229,-250.1642"/>
</g>
<!-- Node15 -->
<g id="node5" class="node">
<title>Node15</title>
<g id="a_node5"><a xlink:href="biodynamo_8h.html" target="_top" xlink:title="biodynamo.h">
<polygon fill="#ffffff" stroke="#000000" points="215,-62 215,-81 287,-81 287,-62 215,-62"/>
<text text-anchor="middle" x="251" y="-69" font-family="Helvetica,sans-Serif" font-size="10.00" fill="#000000">biodynamo.h</text>
</a>
</g>
</g>
<!-- Node13&#45;&gt;Node15 -->
<g id="edge21" class="edge">
<title>Node13&#45;&gt;Node15</title>
<path fill="none" stroke="#191970" d="M599.1721,-261.9532C510.0151,-255.0856 365.8077,-241.283 316,-221 304.5363,-216.3317 232.5256,-165.076 227,-154 214.6143,-129.173 232.896,-96.8715 243.8199,-81.063"/>
<polygon fill="#191970" stroke="#191970" points="598.9902,-265.4493 609.2265,-262.7163 599.5201,-258.4694 598.9902,-265.4493"/>
</g>
<!-- Node13&#45;&gt;Node16 -->
<g id="edge29" class="edge">
<title>Node13&#45;&gt;Node16</title>
<path fill="none" stroke="#191970" d="M746.7389,-264.6375C885.5293,-259.6236 1175.0896,-246.2544 1213,-221 1236.3893,-205.419 1247.8487,-172.9055 1252.7901,-153.6751"/>
<polygon fill="#191970" stroke="#191970" points="746.4779,-261.1445 736.6088,-264.9983 746.7271,-268.1401 746.4779,-261.1445"/>
</g>
<!-- Node17 -->
<g id="node7" class="node">
<title>Node17</title>
<g id="a_node7"><a xlink:href="displacement__op__cuda_8h.html" target="_top" xlink:title="core/operation/displacement\l_op_cuda.h">
<polygon fill="#ffffff" stroke="#000000" points="642.5,-56.5 642.5,-86.5 781.5,-86.5 781.5,-56.5 642.5,-56.5"/>
<text text-anchor="start" x="650.5" y="-74.5" font-family="Helvetica,sans-Serif" font-size="10.00" fill="#000000">core/operation/displacement</text>
<text text-anchor="middle" x="712" y="-63.5" font-family="Helvetica,sans-Serif" font-size="10.00" fill="#000000">_op_cuda.h</text>
</a>
</g>
</g>
<!-- Node13&#45;&gt;Node17 -->
<g id="edge33" class="edge">
<title>Node13&#45;&gt;Node17</title>
<path fill="none" stroke="#191970" d="M623.1708,-254.7731C546.4809,-233.6321 413.4931,-186.3539 465,-123 487.0027,-95.9366 577.2129,-82.6148 642.2565,-76.4109"/>
<polygon fill="#191970" stroke="#191970" points="622.5717,-258.2366 633.1382,-257.4617 624.3948,-251.4781 622.5717,-258.2366"/>
</g>
<!-- Node18 -->
<g id="node8" class="node">
<title>Node18</title>
<g id="a_node8"><a xlink:href="simulation_8cc.html" target="_top" xlink:title="core/simulation.cc">
<polygon fill="#ffffff" stroke="#000000" points="1094,-62 1094,-81 1190,-81 1190,-62 1094,-62"/>
<text text-anchor="middle" x="1142" y="-69" font-family="Helvetica,sans-Serif" font-size="10.00" fill="#000000">core/simulation.cc</text>
</a>
</g>
</g>
<!-- Node13&#45;&gt;Node18 -->
<g id="edge37" class="edge">
<title>Node13&#45;&gt;Node18</title>
<path fill="none" stroke="#191970" d="M746.8502,-266.0337C879.1283,-263.4742 1150.8903,-254.2166 1239,-221 1285.6613,-203.4091 1306.6193,-198.5626 1329,-154 1357.5467,-97.1601 1254.4357,-79.4707 1190.0436,-73.9729"/>
<polygon fill="#191970" stroke="#191970" points="746.7348,-262.5352 736.8016,-266.2204 746.8649,-269.5339 746.7348,-262.5352"/>
</g>
<!-- Node19 -->
<g id="node9" class="node">
<title>Node19</title>
<g id="a_node9"><a xlink:href="in__place__exec__ctxt_8cc.html" target="_top" xlink:title="core/execution_context\l/in_place_exec_ctxt.cc">
<polygon fill="#ffffff" stroke="#000000" points="1056,-123.5 1056,-153.5 1174,-153.5 1174,-123.5 1056,-123.5"/>
<text text-anchor="start" x="1064" y="-141.5" font-family="Helvetica,sans-Serif" font-size="10.00" fill="#000000">core/execution_context</text>
<text text-anchor="middle" x="1115" y="-130.5" font-family="Helvetica,sans-Serif" font-size="10.00" fill="#000000">/in_place_exec_ctxt.cc</text>
</a>
</g>
</g>
<!-- Node13&#45;&gt;Node19 -->
<g id="edge30" class="edge">
<title>Node13&#45;&gt;Node19</title>
<path fill="none" stroke="#191970" d="M746.7255,-262.6688C835.2768,-256.5573 977.9139,-243.5528 1026,-221 1059.1905,-205.4334 1088.3784,-172.9147 1103.6716,-153.6795"/>
<polygon fill="#191970" stroke="#191970" points="746.4776,-259.1775 736.7368,-263.3448 746.9504,-266.1615 746.4776,-259.1775"/>
</g>
<!-- Node13&#45;&gt;Node20 -->
<g id="edge32" class="edge">
<title>Node13&#45;&gt;Node20</title>
<path fill="none" stroke="#191970" d="M599.2806,-262.9563C500.6875,-256.7871 331.6153,-243.3275 274,-221 252.0321,-212.4868 252.0262,-200.6283 231,-190 192.7165,-170.6486 145.6428,-156.5401 112.4971,-148.0341"/>
<polygon fill="#191970" stroke="#191970" points="599.2789,-266.4627 609.4751,-263.5839 599.7091,-259.4759 599.2789,-266.4627"/>
</g>
<!-- Node21 -->
<g id="node11" class="node">
<title>Node21</title>
<g id="a_node11"><a xlink:href="scheduler_8cc.html" target="_top" xlink:title="core/scheduler.cc">
<polygon fill="#ffffff" stroke="#000000" points="554,-.5 554,-19.5 648,-19.5 648,-.5 554,-.5"/>
<text text-anchor="middle" x="601" y="-7.5" font-family="Helvetica,sans-Serif" font-size="10.00" fill="#000000">core/scheduler.cc</text>
</a>
</g>
</g>
<!-- Node13&#45;&gt;Node21 -->
<g id="edge35" class="edge">
<title>Node13&#45;&gt;Node21</title>
<path fill="none" stroke="#191970" d="M746.8567,-265.4723C942.8388,-261.0705 1462.9285,-246.9851 1489,-221 1519.8752,-190.2271 1520.1848,-157.0769 1493,-123 1439.7028,-56.1904 824.8043,-20.9914 648.1735,-12.2123"/>
<polygon fill="#191970" stroke="#191970" points="746.5724,-261.9776 736.6528,-265.6993 746.7282,-268.9759 746.5724,-261.9776"/>
</g>
<!-- Node24 -->
<g id="node14" class="node">
<title>Node24</title>
<g id="a_node14"><a xlink:href="resource__manager_8cc.html" target="_top" xlink:title="core/resource_manager.cc">
<polygon fill="#ffffff" stroke="#000000" points="474,-129 474,-148 606,-148 606,-129 474,-129"/>
<text text-anchor="middle" x="540" y="-136" font-family="Helvetica,sans-Serif" font-size="10.00" fill="#000000">core/resource_manager.cc</text>
</a>
</g>
</g>
<!-- Node13&#45;&gt;Node24 -->
<g id="edge34" class="edge">
<title>Node13&#45;&gt;Node24</title>
<path fill="none" stroke="#191970" d="M649.8369,-251.2651C638.0461,-242.8333 623.7587,-231.9475 612,-221 586.1204,-196.9058 559.8388,-164.2723 547.401,-148.2273"/>
<polygon fill="#191970" stroke="#191970" points="648.088,-254.3136 658.2836,-257.1949 652.1101,-248.5845 648.088,-254.3136"/>
</g>
<!-- Node25 -->
<g id="node15" class="node">
<title>Node25</title>
<g id="a_node15"><a xlink:href="sim__object_8cc.html" target="_top" xlink:title="core/sim_object/sim\l_object.cc">
<polygon fill="#ffffff" stroke="#000000" points="624,-123.5 624,-153.5 728,-153.5 728,-123.5 624,-123.5"/>
<text text-anchor="start" x="632" y="-141.5" font-family="Helvetica,sans-Serif" font-size="10.00" fill="#000000">core/sim_object/sim</text>
<text text-anchor="middle" x="676" y="-130.5" font-family="Helvetica,sans-Serif" font-size="10.00" fill="#000000">_object.cc</text>
</a>
</g>
</g>
<!-- Node13&#45;&gt;Node25 -->
<g id="edge36" class="edge">
<title>Node13&#45;&gt;Node25</title>
<path fill="none" stroke="#191970" d="M647.0726,-251.5977C636.6131,-243.8639 625.6889,-233.4704 620,-221 614.2816,-208.465 614.4624,-202.6159 620,-190 626.5298,-175.1236 639.7125,-162.6537 651.6476,-153.7121"/>
<polygon fill="#191970" stroke="#191970" points="645.3963,-254.6918 655.6242,-257.4558 649.3523,-248.9168 645.3963,-254.6918"/>
</g>
<!-- Node13&#45;&gt;Node26 -->
<g id="edge19" class="edge">
<title>Node13&#45;&gt;Node26</title>
<path fill="none" stroke="#191970" d="M599.3456,-261.6699C512.2266,-254.8067 362.9903,-241.2929 236,-221 225.7728,-219.3657 214.8094,-217.2139 204.5995,-215.0356"/>
<polygon fill="#191970" stroke="#191970" points="599.1544,-265.1656 609.3963,-262.4539 599.6988,-258.1868 599.1544,-265.1656"/>
</g>
<!-- Node27 -->
<g id="node17" class="node">
<title>Node27</title>
<g id="a_node17"><a xlink:href="root_2adaptor_8h.html" target="_top" xlink:title="core/visualization\l/root/adaptor.h">
<polygon fill="#ffffff" stroke="#000000" points="325,-190.5 325,-220.5 417,-220.5 417,-190.5 325,-190.5"/>
<text text-anchor="start" x="333" y="-208.5" font-family="Helvetica,sans-Serif" font-size="10.00" fill="#000000">core/visualization</text>
<text text-anchor="middle" x="371" y="-197.5" font-family="Helvetica,sans-Serif" font-size="10.00" fill="#000000">/root/adaptor.h</text>
</a>
</g>
</g>
<!-- Node13&#45;&gt;Node27 -->
<g id="edge22" class="edge">
<title>Node13&#45;&gt;Node27</title>
<path fill="none" stroke="#191970" d="M607.6995,-255.6347C559.093,-246.9086 491.1999,-234.1586 432,-221 427.2001,-219.9331 422.2028,-218.7624 417.2258,-217.5572"/>
<polygon fill="#191970" stroke="#191970" points="607.309,-259.1203 617.7688,-257.4344 608.5406,-252.2295 607.309,-259.1203"/>
</g>
<!-- Node29 -->
<g id="node19" class="node">
<title>Node29</title>
<g id="a_node19"><a xlink:href="sim__object__vector_8h.html" target="_top" xlink:title="core/container/sim\l_object_vector.h">
<polygon fill="#ffffff" stroke="#000000" points="1106.5,-190.5 1106.5,-220.5 1203.5,-220.5 1203.5,-190.5 1106.5,-190.5"/>
<text text-anchor="start" x="1114.5" y="-208.5" font-family="Helvetica,sans-Serif" font-size="10.00" fill="#000000">core/container/sim</text>
<text text-anchor="middle" x="1155" y="-197.5" font-family="Helvetica,sans-Serif" font-size="10.00" fill="#000000">_object_vector.h</text>
</a>
</g>
</g>
<!-- Node13&#45;&gt;Node29 -->
<g id="edge27" class="edge">
<title>Node13&#45;&gt;Node29</title>
<path fill="none" stroke="#191970" d="M746.8456,-260.9624C829.1691,-253.7101 966.1107,-240.0896 1083,-221 1090.5715,-219.7635 1098.549,-218.2551 1106.3261,-216.6703"/>
<polygon fill="#191970" stroke="#191970" points="746.4927,-257.4798 736.8351,-261.8366 747.1017,-264.4533 746.4927,-257.4798"/>
</g>
<!-- Node30 -->
<g id="node20" class="node">
<title>Node30</title>
<g id="a_node20"><a xlink:href="exporter_8cc.html" target="_top" xlink:title="core/exporter.cc">
<polygon fill="#ffffff" stroke="#000000" points="629.5,-196 629.5,-215 716.5,-215 716.5,-196 629.5,-196"/>
<text text-anchor="middle" x="673" y="-203" font-family="Helvetica,sans-Serif" font-size="10.00" fill="#000000">core/exporter.cc</text>
</a>
</g>
</g>
<!-- Node13&#45;&gt;Node30 -->
<g id="edge31" class="edge">
<title>Node13&#45;&gt;Node30</title>
<path fill="none" stroke="#191970" d="M673,-247.2462C673,-236.5519 673,-223.814 673,-215.2449"/>
<polygon fill="#191970" stroke="#191970" points="669.5001,-247.3906 673,-257.3906 676.5001,-247.3907 669.5001,-247.3906"/>
</g>
<!-- Node31 -->
<g id="node21" class="node">
<title>Node31</title>
<g id="a_node21"><a xlink:href="paraview_2adaptor_8h.html" target="_top" xlink:title="core/visualization\l/paraview/adaptor.h">
<polygon fill="#ffffff" stroke="#000000" points="1378,-190.5 1378,-220.5 1480,-220.5 1480,-190.5 1378,-190.5"/>
<text text-anchor="start" x="1386" y="-208.5" font-family="Helvetica,sans-Serif" font-size="10.00" fill="#000000">core/visualization</text>
<text text-anchor="middle" x="1429" y="-197.5" font-family="Helvetica,sans-Serif" font-size="10.00" fill="#000000">/paraview/adaptor.h</text>
</a>
</g>
</g>
<!-- Node13&#45;&gt;Node31 -->
<g id="edge38" class="edge">
<title>Node13&#45;&gt;Node31</title>
<path fill="none" stroke="#191970" d="M746.8735,-265.9533C873.4532,-263.2944 1139.6656,-253.9216 1362,-221 1367.1966,-220.2305 1372.5861,-219.2677 1377.9487,-218.2007"/>
<polygon fill="#191970" stroke="#191970" points="746.4606,-262.4608 736.5333,-266.162 746.6019,-269.4594 746.4606,-262.4608"/>
</g>
<!-- Node33 -->
<g id="node23" class="node">
<title>Node33</title>
<g id="a_node23"><a xlink:href="neuron__soma_8cc.html" target="_top" xlink:title="neuroscience/neuron\l_soma.cc">
<polygon fill="#ffffff" stroke="#000000" points="909.5,-190.5 909.5,-220.5 1016.5,-220.5 1016.5,-190.5 909.5,-190.5"/>
<text text-anchor="start" x="917.5" y="-208.5" font-family="Helvetica,sans-Serif" font-size="10.00" fill="#000000">neuroscience/neuron</text>
<text text-anchor="middle" x="963" y="-197.5" font-family="Helvetica,sans-Serif" font-size="10.00" fill="#000000">_soma.cc</text>
</a>
</g>
</g>
<!-- Node13&#45;&gt;Node33 -->
<g id="edge40" class="edge">
<title>Node13&#45;&gt;Node33</title>
<path fill="none" stroke="#191970" d="M733.2334,-255.4975C779.0646,-246.575 843.6421,-233.6375 900,-221 903.0774,-220.3099 906.2353,-219.5854 909.4192,-218.8422"/>
<polygon fill="#191970" stroke="#191970" points="732.3179,-252.1098 723.168,-257.4511 733.6518,-258.9815 732.3179,-252.1098"/>
</g>
<!-- Node14&#45;&gt;Node15 -->
<g id="edge4" class="edge">
<title>Node14&#45;&gt;Node15</title>
<path fill="none" stroke="#191970" d="M798.0327,-187.9771C778.1711,-164.9287 744.7087,-126.8768 737,-123 658.072,-83.3058 385.9485,-74.1124 287.1797,-72.0638"/>
<polygon fill="#191970" stroke="#191970" points="795.4923,-190.3912 804.6618,-195.6987 800.8035,-185.8314 795.4923,-190.3912"/>
</g>
<!-- Node14&#45;&gt;Node16 -->
<g id="edge5" class="edge">
<title>Node14&#45;&gt;Node16</title>
<path fill="none" stroke="#191970" d="M874.5089,-194.2837C883.3866,-192.7761 892.4195,-191.3026 901,-190 1025.9192,-171.0359 1058.4304,-175.1393 1183,-154 1186.0656,-153.4798 1189.1981,-152.9208 1192.3579,-152.3351"/>
<polygon fill="#191970" stroke="#191970" points="873.8447,-190.8464 864.5838,-195.9929 875.0328,-197.7449 873.8447,-190.8464"/>
</g>
<!-- Node14&#45;&gt;Node17 -->
<g id="edge15" class="edge">
<title>Node14&#45;&gt;Node17</title>
<path fill="none" stroke="#191970" d="M805.3729,-186.2774C797.8927,-168.7709 785.3865,-142.7199 770,-123 759.2312,-109.1982 744.4428,-96.1334 732.4942,-86.6162"/>
<polygon fill="#191970" stroke="#191970" points="802.3109,-188.0325 809.3618,-195.9404 808.7813,-185.3615 802.3109,-188.0325"/>
</g>
<!-- Node14&#45;&gt;Node18 -->
<g id="edge18" class="edge">
<title>Node14&#45;&gt;Node18</title>
<path fill="none" stroke="#191970" d="M867.9378,-193.8102C916.9046,-182.8951 984.5037,-166.4624 1009,-154 1028.4264,-144.1169 1028.8953,-135.136 1047,-123 1071.6219,-106.4954 1102.0386,-90.7463 1121.7181,-81.107"/>
<polygon fill="#191970" stroke="#191970" points="867.1115,-190.4083 858.1028,-195.9845 868.6226,-197.2433 867.1115,-190.4083"/>
</g>
<!-- Node14&#45;&gt;Node19 -->
<g id="edge8" class="edge">
<title>Node14&#45;&gt;Node19</title>
<path fill="none" stroke="#191970" d="M865.8438,-193.7764C918.9403,-181.9967 1000.6104,-163.8778 1055.8435,-151.6241"/>
<polygon fill="#191970" stroke="#191970" points="864.9531,-190.3888 855.9485,-195.9717 866.4692,-197.2226 864.9531,-190.3888"/>
</g>
<!-- Node14&#45;&gt;Node20 -->
<g id="edge9" class="edge">
<title>Node14&#45;&gt;Node20</title>
<path fill="none" stroke="#191970" d="M754.9119,-194.2854C745.2806,-192.6751 735.3782,-191.1705 726,-190 505.3576,-162.4622 448.5414,-172.994 227,-154 199.2049,-151.617 168.6588,-148.6574 142.0206,-145.9649"/>
<polygon fill="#191970" stroke="#191970" points="754.3681,-197.7432 764.8172,-195.9921 755.5568,-190.8448 754.3681,-197.7432"/>
</g>
<!-- Node22 -->
<g id="node12" class="node">
<title>Node22</title>
<g id="a_node12"><a xlink:href="displacement__op__cpu_8h.html" target="_top" xlink:title="core/operation/displacement\l_op_cpu.h">
<polygon fill="#ffffff" stroke="#000000" points="860.5,-123.5 860.5,-153.5 999.5,-153.5 999.5,-123.5 860.5,-123.5"/>
<text text-anchor="start" x="868.5" y="-141.5" font-family="Helvetica,sans-Serif" font-size="10.00" fill="#000000">core/operation/displacement</text>
<text text-anchor="middle" x="930" y="-130.5" font-family="Helvetica,sans-Serif" font-size="10.00" fill="#000000">_op_cpu.h</text>
</a>
</g>
</g>
<!-- Node14&#45;&gt;Node22 -->
<g id="edge11" class="edge">
<title>Node14&#45;&gt;Node22</title>
<path fill="none" stroke="#191970" d="M838.6118,-190.8334C857.9205,-179.7763 884.3099,-164.6644 903.768,-153.5218"/>
<polygon fill="#191970" stroke="#191970" points="836.7018,-187.8939 829.7632,-195.9005 840.1804,-193.9684 836.7018,-187.8939"/>
</g>
<!-- Node23 -->
<g id="node13" class="node">
<title>Node23</title>
<g id="a_node13"><a xlink:href="displacement__op_8h.html" target="_top" xlink:title="core/operation/displacement_op.h">
<polygon fill="#ffffff" stroke="#000000" points="799.5,-62 799.5,-81 962.5,-81 962.5,-62 799.5,-62"/>
<text text-anchor="middle" x="881" y="-69" font-family="Helvetica,sans-Serif" font-size="10.00" fill="#000000">core/operation/displacement_op.h</text>
</a>
</g>
</g>
<!-- Node14&#45;&gt;Node23 -->
<g id="edge14" class="edge">
<title>Node14&#45;&gt;Node23</title>
<path fill="none" stroke="#191970" d="M821.547,-186.4309C829.2066,-169.5879 840.9121,-144.4432 852,-123 859.6351,-108.2343 869.2201,-91.5332 875.2297,-81.2591"/>
<polygon fill="#191970" stroke="#191970" points="818.2698,-185.1837 817.3423,-195.7379 824.649,-188.0657 818.2698,-185.1837"/>
</g>
<!-- Node14&#45;&gt;Node24 -->
<g id="edge16" class="edge">
<title>Node14&#45;&gt;Node24</title>
<path fill="none" stroke="#191970" d="M764.3473,-193.5596C711.4523,-180.578 627.9585,-160.0869 579.1324,-148.1039"/>
<polygon fill="#191970" stroke="#191970" points="763.6296,-196.9873 774.1757,-195.9717 765.2981,-190.189 763.6296,-196.9873"/>
</g>
<!-- Node14&#45;&gt;Node25 -->
<g id="edge17" class="edge">
<title>Node14&#45;&gt;Node25</title>
<path fill="none" stroke="#191970" d="M784.235,-191.4324C761.5271,-180.3271 729.9147,-164.867 706.7161,-153.5218"/>
<polygon fill="#191970" stroke="#191970" points="782.8503,-194.6513 793.3712,-195.9005 785.9256,-188.3631 782.8503,-194.6513"/>
</g>
<!-- Node16&#45;&gt;Node17 -->
<g id="edge6" class="edge">
<title>Node16&#45;&gt;Node17</title>
<path fill="none" stroke="#191970" d="M1182.3678,-123.0304C1008.2747,-97.3319 960.9648,-111.4131 791,-87 787.9563,-86.5628 784.8524,-86.0863 781.721,-85.5805"/>
<polygon fill="#191970" stroke="#191970" points="1181.971,-126.5099 1192.3794,-124.5311 1183.0087,-119.5873 1181.971,-126.5099"/>
</g>
<!-- Node16&#45;&gt;Node18 -->
<g id="edge7" class="edge">
<title>Node16&#45;&gt;Node18</title>
<path fill="none" stroke="#191970" d="M1221.7588,-118.3758C1200.7558,-106.0319 1174.82,-90.789 1158.341,-81.1039"/>
<polygon fill="#191970" stroke="#191970" points="1220.0214,-121.4144 1230.4162,-123.4639 1223.5683,-115.3795 1220.0214,-121.4144"/>
</g>
<!-- Node20&#45;&gt;Node21 -->
<g id="edge10" class="edge">
<title>Node20&#45;&gt;Node21</title>
<path fill="none" stroke="#191970" d="M90.7506,-122.5747C115.8829,-103.2613 161.4045,-71.3869 206,-56 269.3064,-34.1573 463.5045,-19.0031 553.8561,-12.9439"/>
<polygon fill="#191970" stroke="#191970" points="88.4672,-119.9171 82.7462,-128.8346 92.7795,-125.4311 88.4672,-119.9171"/>
</g>
<!-- Node22&#45;&gt;Node23 -->
<g id="edge12" class="edge">
<title>Node22&#45;&gt;Node23</title>
<path fill="none" stroke="#191970" d="M912.9484,-115.1845C904.3811,-103.47 894.4709,-89.9195 887.988,-81.055"/>
<polygon fill="#191970" stroke="#191970" points="910.1528,-117.2911 918.8811,-123.2967 915.803,-113.1588 910.1528,-117.2911"/>
</g>
<!-- Node23&#45;&gt;Node21 -->
<g id="edge13" class="edge">
<title>Node23&#45;&gt;Node21</title>
<path fill="none" stroke="#191970" d="M827.6417,-59.7802C774.509,-48.11 693.9405,-30.4137 644.5447,-19.5643"/>
<polygon fill="#191970" stroke="#191970" points="827.0392,-63.2312 837.5572,-61.9581 828.5409,-56.3942 827.0392,-63.2312"/>
</g>
<!-- Node26&#45;&gt;Node15 -->
<g id="edge20" class="edge">
<title>Node26&#45;&gt;Node15</title>
<path fill="none" stroke="#191970" d="M168.3035,-185.7127C172.7648,-168.1686 180.9463,-142.3949 194,-123 205.6169,-105.74 224.2419,-90.3917 237.0202,-81.0345"/>
<polygon fill="#191970" stroke="#191970" points="164.789,-185.3666 165.8953,-195.9035 171.6014,-186.9765 164.789,-185.3666"/>
</g>
<!-- Node27&#45;&gt;Node18 -->
<g id="edge26" class="edge">
<title>Node27&#45;&gt;Node18</title>
<path fill="none" stroke="#191970" d="M389.2456,-182.7094C406.4643,-163.056 434.1825,-135.8703 465,-123 569.2262,-79.4721 859.4191,-96.1284 972,-87 1013.0597,-83.6708 1059.6497,-79.3872 1093.6594,-76.1672"/>
<polygon fill="#191970" stroke="#191970" points="386.5616,-180.4628 382.7458,-190.3467 391.8924,-184.9996 386.5616,-180.4628"/>
</g>
<!-- Node27&#45;&gt;Node21 -->
<g id="edge25" class="edge">
<title>Node27&#45;&gt;Node21</title>
<path fill="none" stroke="#191970" d="M380.4363,-180.7007C388.05,-163.0856 400.106,-139.6922 416,-123 464.0124,-72.5762 539.2448,-36.0183 577.2822,-19.6187"/>
<polygon fill="#191970" stroke="#191970" points="377.0502,-179.7311 376.4714,-190.3102 383.521,-182.4011 377.0502,-179.7311"/>
</g>
<!-- Node28 -->
<g id="node18" class="node">
<title>Node28</title>
<g id="a_node18"><a xlink:href="notebook__util_8h.html" target="_top" xlink:title="core/visualization\l/root/notebook_util.h">
<polygon fill="#ffffff" stroke="#000000" points="236.5,-123.5 236.5,-153.5 341.5,-153.5 341.5,-123.5 236.5,-123.5"/>
<text text-anchor="start" x="244.5" y="-141.5" font-family="Helvetica,sans-Serif" font-size="10.00" fill="#000000">core/visualization</text>
<text text-anchor="middle" x="289" y="-130.5" font-family="Helvetica,sans-Serif" font-size="10.00" fill="#000000">/root/notebook_util.h</text>
</a>
</g>
</g>
<!-- Node27&#45;&gt;Node28 -->
<g id="edge23" class="edge">
<title>Node27&#45;&gt;Node28</title>
<path fill="none" stroke="#191970" d="M344.4183,-183.7808C332.3722,-173.9383 318.4233,-162.541 307.5334,-153.6432"/>
<polygon fill="#191970" stroke="#191970" points="342.4346,-186.6797 352.3929,-190.2967 346.8637,-181.2591 342.4346,-186.6797"/>
</g>
<!-- Node28&#45;&gt;Node15 -->
<g id="edge24" class="edge">
<title>Node28&#45;&gt;Node15</title>
<path fill="none" stroke="#191970" d="M275.3881,-114.5001C268.8348,-102.9456 261.3492,-89.7473 256.4192,-81.055"/>
<polygon fill="#191970" stroke="#191970" points="272.3993,-116.325 280.3772,-123.2967 278.4882,-112.8716 272.3993,-116.325"/>
</g>
<!-- Node29&#45;&gt;Node16 -->
<g id="edge28" class="edge">
<title>Node29&#45;&gt;Node16</title>
<path fill="none" stroke="#191970" d="M1186.2119,-184.7951C1201.3457,-174.7558 1219.1992,-162.9124 1233.0598,-153.7177"/>
<polygon fill="#191970" stroke="#191970" points="1184.0648,-182.0193 1177.6664,-190.4639 1187.9344,-187.8525 1184.0648,-182.0193"/>
</g>
<!-- Node32 -->
<g id="node22" class="node">
<title>Node32</title>
<g id="a_node22"><a xlink:href="adaptor_8cc.html" target="_top" xlink:title="core/visualization\l/paraview/adaptor.cc">
<polygon fill="#ffffff" stroke="#000000" points="1376.5,-123.5 1376.5,-153.5 1483.5,-153.5 1483.5,-123.5 1376.5,-123.5"/>
<text text-anchor="start" x="1384.5" y="-141.5" font-family="Helvetica,sans-Serif" font-size="10.00" fill="#000000">core/visualization</text>
<text text-anchor="middle" x="1430" y="-130.5" font-family="Helvetica,sans-Serif" font-size="10.00" fill="#000000">/paraview/adaptor.cc</text>
</a>
</g>
</g>
<!-- Node31&#45;&gt;Node32 -->
<g id="edge39" class="edge">
<title>Node31&#45;&gt;Node32</title>
<path fill="none" stroke="#191970" d="M1429.3802,-180.0249C1429.513,-171.128 1429.6578,-161.4287 1429.774,-153.6432"/>
<polygon fill="#191970" stroke="#191970" points="1425.8766,-180.2455 1429.2269,-190.2967 1432.8759,-180.35 1425.8766,-180.2455"/>
</g>
</g>
</svg>
