<?xml version="1.0" encoding="UTF-8" standalone="no"?>
<!DOCTYPE svg PUBLIC "-//W3C//DTD SVG 1.1//EN"
 "http://www.w3.org/Graphics/SVG/1.1/DTD/svg11.dtd">
<!-- Generated by graphviz version 2.36.0 (20140111.2315)
 -->
<!-- Title: param.h Pages: 1 -->
<svg width="1715pt" height="536pt"
 viewBox="0.00 0.00 1715.15 536.00" xmlns="http://www.w3.org/2000/svg" xmlns:xlink="http://www.w3.org/1999/xlink">
<g id="graph0" class="graph" transform="scale(1 1) rotate(0) translate(4 532)">
<title>param.h</title>
<polygon fill="white" stroke="none" points="-4,4 -4,-532 1711.15,-532 1711.15,4 -4,4"/>
<!-- Node1 -->
<g id="node1" class="node"><title>Node1</title>
<polygon fill="#bfbfbf" stroke="black" points="1286.15,-508.5 1286.15,-527.5 1338.15,-527.5 1338.15,-508.5 1286.15,-508.5"/>
<text text-anchor="middle" x="1312.15" y="-515.5" font-family="Helvetica,sans-Serif" font-size="10.00">param.h</text>
</g>
<!-- Node2 -->
<g id="node2" class="node"><title>Node2</title>
<g id="a_node2"><a xlink:href="regulate__genes_8h.html" target="_top" xlink:title="biology_module/regulate\l_genes.h">
<polygon fill="white" stroke="black" points="1534.15,-385 1534.15,-415 1656.15,-415 1656.15,-385 1534.15,-385"/>
<text text-anchor="start" x="1542.15" y="-403" font-family="Helvetica,sans-Serif" font-size="10.00">biology_module/regulate</text>
<text text-anchor="middle" x="1595.15" y="-392" font-family="Helvetica,sans-Serif" font-size="10.00">_genes.h</text>
</a>
</g>
</g>
<!-- Node1&#45;&gt;Node2 -->
<g id="edge1" class="edge"><title>Node1&#45;&gt;Node2</title>
<path fill="none" stroke="midnightblue" d="M1348.36,-515.07C1391.52,-511.48 1464.76,-501.23 1520.15,-472 1546.95,-457.859 1571.05,-431.446 1584.34,-415.127"/>
<polygon fill="midnightblue" stroke="midnightblue" points="1348.03,-511.585 1338.32,-515.83 1348.56,-518.565 1348.03,-511.585"/>
</g>
<!-- Node3 -->
<g id="node3" class="node"><title>Node3</title>
<g id="a_node3"><a xlink:href="biodynamo_8h.html" target="_top" xlink:title="biodynamo.h">
<polygon fill="white" stroke="black" points="515.153,-0.5 515.153,-19.5 587.153,-19.5 587.153,-0.5 515.153,-0.5"/>
<text text-anchor="middle" x="551.153" y="-7.5" font-family="Helvetica,sans-Serif" font-size="10.00">biodynamo.h</text>
</a>
</g>
</g>
<!-- Node1&#45;&gt;Node3 -->
<g id="edge52" class="edge"><title>Node1&#45;&gt;Node3</title>
<path fill="none" stroke="midnightblue" d="M1275.96,-517.234C1084.3,-518.264 192.315,-520.41 80.1528,-472 38.8904,-454.191 8.15277,-445.942 8.15277,-401 8.15277,-401 8.15277,-401 8.15277,-207 8.15277,-139.243 -19.9925,-102.645 29.1528,-56 64.2848,-22.6554 402.323,-13.6459 514.892,-11.56"/>
<polygon fill="midnightblue" stroke="midnightblue" points="1276.09,-520.733 1286.07,-517.177 1276.05,-513.733 1276.09,-520.733"/>
</g>
<!-- Node4 -->
<g id="node4" class="node"><title>Node4</title>
<g id="a_node4"><a xlink:href="cell_8h.html" target="_top" xlink:title="cell.h">
<polygon fill="white" stroke="black" points="266.153,-198.5 266.153,-217.5 306.153,-217.5 306.153,-198.5 266.153,-198.5"/>
<text text-anchor="middle" x="286.153" y="-205.5" font-family="Helvetica,sans-Serif" font-size="10.00">cell.h</text>
</a>
</g>
</g>
<!-- Node1&#45;&gt;Node4 -->
<g id="edge3" class="edge"><title>Node1&#45;&gt;Node4</title>
<path fill="none" stroke="midnightblue" d="M1275.56,-517.36C1106.07,-518.147 400.457,-511.469 277.153,-348 246.863,-307.843 271.735,-241.18 282.128,-217.592"/>
<polygon fill="midnightblue" stroke="midnightblue" points="1275.73,-520.859 1285.71,-517.301 1275.69,-513.859 1275.73,-520.859"/>
</g>
<!-- Node11 -->
<g id="node11" class="node"><title>Node11</title>
<g id="a_node11"><a xlink:href="diffusion__grid_8h.html" target="_top" xlink:title="diffusion_grid.h">
<polygon fill="white" stroke="black" points="791.653,-452.5 791.653,-471.5 874.653,-471.5 874.653,-452.5 791.653,-452.5"/>
<text text-anchor="middle" x="833.153" y="-459.5" font-family="Helvetica,sans-Serif" font-size="10.00">diffusion_grid.h</text>
</a>
</g>
</g>
<!-- Node1&#45;&gt;Node11 -->
<g id="edge13" class="edge"><title>Node1&#45;&gt;Node11</title>
<path fill="none" stroke="midnightblue" d="M1275.86,-512.909C1188.62,-503.073 967.52,-478.148 874.937,-467.711"/>
<polygon fill="midnightblue" stroke="midnightblue" points="1275.73,-516.416 1286.06,-514.058 1276.51,-509.46 1275.73,-516.416"/>
</g>
<!-- Node14 -->
<g id="node14" class="node"><title>Node14</title>
<g id="a_node14"><a xlink:href="neurite__element_8h.html" target="_top" xlink:title="neuroscience/neurite\l_element.h">
<polygon fill="white" stroke="black" points="46.6528,-193 46.6528,-223 153.653,-223 153.653,-193 46.6528,-193"/>
<text text-anchor="start" x="54.6528" y="-211" font-family="Helvetica,sans-Serif" font-size="10.00">neuroscience/neurite</text>
<text text-anchor="middle" x="100.153" y="-200" font-family="Helvetica,sans-Serif" font-size="10.00">_element.h</text>
</a>
</g>
</g>
<!-- Node1&#45;&gt;Node14 -->
<g id="edge67" class="edge"><title>Node1&#45;&gt;Node14</title>
<path fill="none" stroke="midnightblue" d="M1275.84,-516.408C1161.47,-514.238 798.554,-505.034 500.153,-472 309.373,-450.88 74.1528,-592.945 74.1528,-401 74.1528,-401 74.1528,-401 74.1528,-331 74.1528,-291.153 87.5844,-245.56 95.1397,-223.067"/>
<polygon fill="midnightblue" stroke="midnightblue" points="1276.06,-519.912 1286.12,-516.596 1276.19,-512.913 1276.06,-519.912"/>
</g>
<!-- Node19 -->
<g id="node19" class="node"><title>Node19</title>
<g id="a_node19"><a xlink:href="grid_8h.html" target="_top" xlink:title="grid.h">
<polygon fill="white" stroke="black" points="1184.65,-260.5 1184.65,-279.5 1225.65,-279.5 1225.65,-260.5 1184.65,-260.5"/>
<text text-anchor="middle" x="1205.15" y="-267.5" font-family="Helvetica,sans-Serif" font-size="10.00">grid.h</text>
</a>
</g>
</g>
<!-- Node1&#45;&gt;Node19 -->
<g id="edge53" class="edge"><title>Node1&#45;&gt;Node19</title>
<path fill="none" stroke="midnightblue" d="M1306.46,-498.753C1303.91,-490.573 1300.88,-480.804 1298.15,-472 1276.71,-402.7 1287.57,-378.146 1250.15,-316 1241.38,-301.423 1226.87,-288.1 1216.71,-279.797"/>
<polygon fill="midnightblue" stroke="midnightblue" points="1303.14,-499.87 1309.46,-508.376 1309.83,-497.787 1303.14,-499.87"/>
</g>
<!-- Node21 -->
<g id="node21" class="node"><title>Node21</title>
<g id="a_node21"><a xlink:href="scheduler_8h.html" target="_top" xlink:title="scheduler.h">
<polygon fill="white" stroke="black" points="1055.65,-130.5 1055.65,-149.5 1122.65,-149.5 1122.65,-130.5 1055.65,-130.5"/>
<text text-anchor="middle" x="1089.15" y="-137.5" font-family="Helvetica,sans-Serif" font-size="10.00">scheduler.h</text>
</a>
</g>
</g>
<!-- Node1&#45;&gt;Node21 -->
<g id="edge63" class="edge"><title>Node1&#45;&gt;Node21</title>
<path fill="none" stroke="midnightblue" d="M1348.31,-512.783C1376.89,-507.668 1416.01,-496.45 1441.15,-472 1465.35,-448.461 1468.15,-434.76 1468.15,-401 1468.15,-401 1468.15,-401 1468.15,-269 1468.15,-225.615 1445.5,-214.071 1408.15,-192 1360.17,-163.647 1194.42,-148.579 1122.68,-143.257"/>
<polygon fill="midnightblue" stroke="midnightblue" points="1347.62,-509.349 1338.31,-514.404 1348.74,-516.259 1347.62,-509.349"/>
</g>
<!-- Node22 -->
<g id="node22" class="node"><title>Node22</title>
<g id="a_node22"><a xlink:href="simulation__implementation_8h.html" target="_top" xlink:title="simulation_implementation.h">
<polygon fill="white" stroke="black" points="1019.15,-62.5 1019.15,-81.5 1159.15,-81.5 1159.15,-62.5 1019.15,-62.5"/>
<text text-anchor="middle" x="1089.15" y="-69.5" font-family="Helvetica,sans-Serif" font-size="10.00">simulation_implementation.h</text>
</a>
</g>
</g>
<!-- Node1&#45;&gt;Node22 -->
<g id="edge65" class="edge"><title>Node1&#45;&gt;Node22</title>
<path fill="none" stroke="midnightblue" d="M1348.32,-513.639C1381.2,-508.983 1429.56,-497.961 1463.15,-472 1492.34,-449.441 1506.15,-437.892 1506.15,-401 1506.15,-401 1506.15,-401 1506.15,-207 1506.15,-135.045 1278.26,-96.2455 1159.42,-80.9039"/>
<polygon fill="midnightblue" stroke="midnightblue" points="1347.7,-510.19 1338.23,-514.937 1348.6,-517.132 1347.7,-510.19"/>
</g>
<!-- Node23 -->
<g id="node23" class="node"><title>Node23</title>
<g id="a_node23"><a xlink:href="displacement__op_8h.html" target="_top" xlink:title="displacement_op.h">
<polygon fill="white" stroke="black" points="1276.15,-198.5 1276.15,-217.5 1374.15,-217.5 1374.15,-198.5 1276.15,-198.5"/>
<text text-anchor="middle" x="1325.15" y="-205.5" font-family="Helvetica,sans-Serif" font-size="10.00">displacement_op.h</text>
</a>
</g>
</g>
<!-- Node1&#45;&gt;Node23 -->
<g id="edge56" class="edge"><title>Node1&#45;&gt;Node23</title>
<path fill="none" stroke="midnightblue" d="M1310.46,-497.992C1308.01,-472.104 1303.03,-424.36 1296.15,-384 1291.45,-356.372 1262.3,-285.84 1273.15,-260 1280.89,-241.579 1298.88,-226.469 1311.53,-217.601"/>
<polygon fill="midnightblue" stroke="midnightblue" points="1307,-498.605 1311.4,-508.243 1313.97,-497.965 1307,-498.605"/>
</g>
<!-- Node25 -->
<g id="node25" class="node"><title>Node25</title>
<g id="a_node25"><a xlink:href="catalyst__adaptor_8h.html" target="_top" xlink:title="visualization/catalyst\l_adaptor.h">
<polygon fill="white" stroke="black" points="872.153,-317 872.153,-347 980.153,-347 980.153,-317 872.153,-317"/>
<text text-anchor="start" x="880.153" y="-335" font-family="Helvetica,sans-Serif" font-size="10.00">visualization/catalyst</text>
<text text-anchor="middle" x="926.153" y="-324" font-family="Helvetica,sans-Serif" font-size="10.00">_adaptor.h</text>
</a>
</g>
</g>
<!-- Node1&#45;&gt;Node25 -->
<g id="edge64" class="edge"><title>Node1&#45;&gt;Node25</title>
<path fill="none" stroke="midnightblue" d="M1285.24,-504.172C1215.29,-470.827 1028.15,-381.622 955.531,-347.004"/>
<polygon fill="midnightblue" stroke="midnightblue" points="1283.78,-507.351 1294.31,-508.494 1286.79,-501.032 1283.78,-507.351"/>
</g>
<!-- Node28 -->
<g id="node28" class="node"><title>Node28</title>
<g id="a_node28"><a xlink:href="displacement__op__cpu_8h.html" target="_top" xlink:title="displacement_op_cpu.h">
<polygon fill="white" stroke="black" points="1282.65,-260.5 1282.65,-279.5 1401.65,-279.5 1401.65,-260.5 1282.65,-260.5"/>
<text text-anchor="middle" x="1342.15" y="-267.5" font-family="Helvetica,sans-Serif" font-size="10.00">displacement_op_cpu.h</text>
</a>
</g>
</g>
<!-- Node1&#45;&gt;Node28 -->
<g id="edge54" class="edge"><title>Node1&#45;&gt;Node28</title>
<path fill="none" stroke="midnightblue" d="M1318.87,-498.681C1321.56,-490.605 1324.43,-480.938 1326.15,-472 1340.34,-398.442 1341.99,-307.407 1342.15,-279.516"/>
<polygon fill="midnightblue" stroke="midnightblue" points="1315.54,-497.59 1315.54,-508.185 1322.15,-499.904 1315.54,-497.59"/>
</g>
<!-- Node29 -->
<g id="node29" class="node"><title>Node29</title>
<g id="a_node29"><a xlink:href="gpu__helper_8h.html" target="_top" xlink:title="gpu/gpu_helper.h">
<polygon fill="white" stroke="black" points="1075.65,-260.5 1075.65,-279.5 1166.65,-279.5 1166.65,-260.5 1075.65,-260.5"/>
<text text-anchor="middle" x="1121.15" y="-267.5" font-family="Helvetica,sans-Serif" font-size="10.00">gpu/gpu_helper.h</text>
</a>
</g>
</g>
<!-- Node1&#45;&gt;Node29 -->
<g id="edge57" class="edge"><title>Node1&#45;&gt;Node29</title>
<path fill="none" stroke="midnightblue" d="M1302.96,-499.369C1298.69,-491.094 1293.59,-481.076 1289.15,-472 1255.51,-403.242 1270.15,-370.255 1216.15,-316 1198.52,-298.279 1172.55,-286.638 1152.22,-279.644"/>
<polygon fill="midnightblue" stroke="midnightblue" points="1299.94,-501.151 1307.65,-508.418 1306.16,-497.929 1299.94,-501.151"/>
</g>
<!-- Node30 -->
<g id="node30" class="node"><title>Node30</title>
<g id="a_node30"><a xlink:href="timing_8h.html" target="_top" xlink:title="timing.h">
<polygon fill="white" stroke="black" points="1381.65,-452.5 1381.65,-471.5 1432.65,-471.5 1432.65,-452.5 1381.65,-452.5"/>
<text text-anchor="middle" x="1407.15" y="-459.5" font-family="Helvetica,sans-Serif" font-size="10.00">timing.h</text>
</a>
</g>
</g>
<!-- Node1&#45;&gt;Node30 -->
<g id="edge60" class="edge"><title>Node1&#45;&gt;Node30</title>
<path fill="none" stroke="midnightblue" d="M1336.47,-503.177C1353.95,-493.241 1376.98,-480.149 1391.93,-471.655"/>
<polygon fill="midnightblue" stroke="midnightblue" points="1334.38,-500.339 1327.42,-508.324 1337.84,-506.425 1334.38,-500.339"/>
</g>
<!-- Node32 -->
<g id="node32" class="node"><title>Node32</title>
<g id="a_node32"><a xlink:href="exporter_8h.html" target="_top" xlink:title="exporter.h">
<polygon fill="white" stroke="black" points="1572.15,-452.5 1572.15,-471.5 1632.15,-471.5 1632.15,-452.5 1572.15,-452.5"/>
<text text-anchor="middle" x="1602.15" y="-459.5" font-family="Helvetica,sans-Serif" font-size="10.00">exporter.h</text>
</a>
</g>
</g>
<!-- Node1&#45;&gt;Node32 -->
<g id="edge66" class="edge"><title>Node1&#45;&gt;Node32</title>
<path fill="none" stroke="midnightblue" d="M1348.31,-510.629C1396.31,-502.115 1483.69,-486.424 1558.15,-472 1562.59,-471.14 1567.28,-470.208 1571.87,-469.28"/>
<polygon fill="midnightblue" stroke="midnightblue" points="1347.64,-507.194 1338.4,-512.384 1348.86,-514.087 1347.64,-507.194"/>
</g>
<!-- Node33 -->
<g id="node33" class="node"><title>Node33</title>
<g id="a_node33"><a xlink:href="param_8cc.html" target="_top" xlink:title="param.cc">
<polygon fill="white" stroke="black" points="1650.65,-452.5 1650.65,-471.5 1707.65,-471.5 1707.65,-452.5 1650.65,-452.5"/>
<text text-anchor="middle" x="1679.15" y="-459.5" font-family="Helvetica,sans-Serif" font-size="10.00">param.cc</text>
</a>
</g>
</g>
<!-- Node1&#45;&gt;Node33 -->
<g id="edge68" class="edge"><title>Node1&#45;&gt;Node33</title>
<path fill="none" stroke="midnightblue" d="M1348.42,-513.111C1409.08,-506.363 1534.82,-491.338 1640.15,-472 1643.43,-471.398 1646.85,-470.705 1650.25,-469.977"/>
<polygon fill="midnightblue" stroke="midnightblue" points="1347.77,-509.661 1338.22,-514.236 1348.54,-516.619 1347.77,-509.661"/>
</g>
<!-- Node2&#45;&gt;Node3 -->
<g id="edge2" class="edge"><title>Node2&#45;&gt;Node3</title>
<path fill="none" stroke="midnightblue" d="M1587.32,-375.112C1579.66,-349.62 1569.15,-307.905 1569.15,-271 1569.15,-271 1569.15,-271 1569.15,-139 1569.15,-37.9125 768.73,-15.4548 587.384,-11.6639"/>
<polygon fill="midnightblue" stroke="midnightblue" points="1584.07,-376.472 1590.38,-384.983 1590.76,-374.395 1584.07,-376.472"/>
</g>
<!-- Node4&#45;&gt;Node3 -->
<g id="edge4" class="edge"><title>Node4&#45;&gt;Node3</title>
<path fill="none" stroke="midnightblue" d="M287.627,-188.461C289.639,-170.98 294.331,-144.478 305.153,-124 324.402,-87.574 332.654,-76.9105 368.153,-56 414.384,-28.767 476.485,-17.9583 515.149,-13.7066"/>
<polygon fill="midnightblue" stroke="midnightblue" points="284.136,-188.201 286.654,-198.493 291.103,-188.877 284.136,-188.201"/>
</g>
<!-- Node5 -->
<g id="node5" class="node"><title>Node5</title>
<g id="a_node5"><a xlink:href="compile__time__param_8h.html" target="_top" xlink:title="compile_time_param.h">
<polygon fill="white" stroke="black" points="167.653,-62.5 167.653,-81.5 282.653,-81.5 282.653,-62.5 167.653,-62.5"/>
<text text-anchor="middle" x="225.153" y="-69.5" font-family="Helvetica,sans-Serif" font-size="10.00">compile_time_param.h</text>
</a>
</g>
</g>
<!-- Node4&#45;&gt;Node5 -->
<g id="edge5" class="edge"><title>Node4&#45;&gt;Node5</title>
<path fill="none" stroke="midnightblue" d="M277.853,-188.768C264.533,-159.508 238.889,-103.174 229.091,-81.6503"/>
<polygon fill="midnightblue" stroke="midnightblue" points="274.822,-190.557 282.15,-198.208 281.193,-187.656 274.822,-190.557"/>
</g>
<!-- Node6 -->
<g id="node6" class="node"><title>Node6</title>
<g id="a_node6"><a xlink:href="cell_8cc.html" target="_top" xlink:title="cell.cc">
<polygon fill="white" stroke="black" points="314.653,-130.5 314.653,-149.5 359.653,-149.5 359.653,-130.5 314.653,-130.5"/>
<text text-anchor="middle" x="337.153" y="-137.5" font-family="Helvetica,sans-Serif" font-size="10.00">cell.cc</text>
</a>
</g>
</g>
<!-- Node4&#45;&gt;Node6 -->
<g id="edge7" class="edge"><title>Node4&#45;&gt;Node6</title>
<path fill="none" stroke="midnightblue" d="M299.05,-190.31C308.992,-177.444 322.349,-160.158 330.321,-149.841"/>
<polygon fill="midnightblue" stroke="midnightblue" points="296.165,-188.319 292.82,-198.372 301.704,-192.599 296.165,-188.319"/>
</g>
<!-- Node7 -->
<g id="node7" class="node"><title>Node7</title>
<g id="a_node7"><a xlink:href="neuron__soma_8h.html" target="_top" xlink:title="neuroscience/neuron\l_soma.h">
<polygon fill="white" stroke="black" points="377.653,-125 377.653,-155 484.653,-155 484.653,-125 377.653,-125"/>
<text text-anchor="start" x="385.653" y="-143" font-family="Helvetica,sans-Serif" font-size="10.00">neuroscience/neuron</text>
<text text-anchor="middle" x="431.153" y="-132" font-family="Helvetica,sans-Serif" font-size="10.00">_soma.h</text>
</a>
</g>
</g>
<!-- Node4&#45;&gt;Node7 -->
<g id="edge8" class="edge"><title>Node4&#45;&gt;Node7</title>
<path fill="none" stroke="midnightblue" d="M314.3,-194.188C338.983,-182.953 374.807,-166.647 400.272,-155.056"/>
<polygon fill="midnightblue" stroke="midnightblue" points="312.761,-191.043 305.109,-198.372 315.66,-197.414 312.761,-191.043"/>
</g>
<!-- Node5&#45;&gt;Node3 -->
<g id="edge6" class="edge"><title>Node5&#45;&gt;Node3</title>
<path fill="none" stroke="midnightblue" d="M281.484,-60.6322C348.509,-48.2963 458.434,-28.0648 515.01,-17.652"/>
<polygon fill="midnightblue" stroke="midnightblue" points="280.716,-57.2148 271.514,-62.4672 281.983,-64.0992 280.716,-57.2148"/>
</g>
<!-- Node8 -->
<g id="node8" class="node"><title>Node8</title>
<g id="a_node8"><a xlink:href="neuroscience_2compile__time__param_8h.html" target="_top" xlink:title="neuroscience/compile\l_time_param.h">
<polygon fill="white" stroke="black" points="38.6528,-57 38.6528,-87 149.653,-87 149.653,-57 38.6528,-57"/>
<text text-anchor="start" x="46.6528" y="-75" font-family="Helvetica,sans-Serif" font-size="10.00">neuroscience/compile</text>
<text text-anchor="middle" x="94.1528" y="-64" font-family="Helvetica,sans-Serif" font-size="10.00">_time_param.h</text>
</a>
</g>
</g>
<!-- Node7&#45;&gt;Node8 -->
<g id="edge9" class="edge"><title>Node7&#45;&gt;Node8</title>
<path fill="none" stroke="midnightblue" d="M367.659,-123.985C273.682,-105.12 247.879,-106.188 158.153,-88 155.468,-87.4559 152.725,-86.8819 149.957,-86.2885"/>
<polygon fill="midnightblue" stroke="midnightblue" points="367.092,-127.441 377.588,-126 368.485,-120.581 367.092,-127.441"/>
</g>
<!-- Node9 -->
<g id="node9" class="node"><title>Node9</title>
<g id="a_node9"><a xlink:href="neuroscience_8h.html" target="_top" xlink:title="neuroscience/neuroscience.h">
<polygon fill="white" stroke="black" points="22.6528,-0.5 22.6528,-19.5 165.653,-19.5 165.653,-0.5 22.6528,-0.5"/>
<text text-anchor="middle" x="94.1528" y="-7.5" font-family="Helvetica,sans-Serif" font-size="10.00">neuroscience/neuroscience.h</text>
</a>
</g>
</g>
<!-- Node7&#45;&gt;Node9 -->
<g id="edge12" class="edge"><title>Node7&#45;&gt;Node9</title>
<path fill="none" stroke="midnightblue" d="M403.493,-119.068C376.176,-100.259 332.591,-72.5444 291.153,-56 246.353,-38.1136 192.846,-26.4593 152.91,-19.5023"/>
<polygon fill="midnightblue" stroke="midnightblue" points="401.562,-121.989 411.767,-124.837 405.566,-116.247 401.562,-121.989"/>
</g>
<!-- Node10 -->
<g id="node10" class="node"><title>Node10</title>
<g id="a_node10"><a xlink:href="neuron__soma_8cc.html" target="_top" xlink:title="neuroscience/neuron\l_soma.cc">
<polygon fill="white" stroke="black" points="377.653,-57 377.653,-87 484.653,-87 484.653,-57 377.653,-57"/>
<text text-anchor="start" x="385.653" y="-75" font-family="Helvetica,sans-Serif" font-size="10.00">neuroscience/neuron</text>
<text text-anchor="middle" x="431.153" y="-64" font-family="Helvetica,sans-Serif" font-size="10.00">_soma.cc</text>
</a>
</g>
</g>
<!-- Node7&#45;&gt;Node10 -->
<g id="edge11" class="edge"><title>Node7&#45;&gt;Node10</title>
<path fill="none" stroke="midnightblue" d="M431.153,-114.532C431.153,-105.361 431.153,-95.2449 431.153,-87.2931"/>
<polygon fill="midnightblue" stroke="midnightblue" points="427.653,-114.679 431.153,-124.679 434.653,-114.679 427.653,-114.679"/>
</g>
<!-- Node8&#45;&gt;Node9 -->
<g id="edge10" class="edge"><title>Node8&#45;&gt;Node9</title>
<path fill="none" stroke="midnightblue" d="M94.1528,-46.5858C94.1528,-37.0743 94.1528,-26.7864 94.1528,-19.7305"/>
<polygon fill="midnightblue" stroke="midnightblue" points="90.6529,-46.7808 94.1528,-56.7808 97.6529,-46.7809 90.6529,-46.7808"/>
</g>
<!-- Node12 -->
<g id="node12" class="node"><title>Node12</title>
<g id="a_node12"><a xlink:href="simulation__object__util_8h.html" target="_top" xlink:title="simulation_object_util.h">
<polygon fill="white" stroke="black" points="286.653,-322.5 286.653,-341.5 405.653,-341.5 405.653,-322.5 286.653,-322.5"/>
<text text-anchor="middle" x="346.153" y="-329.5" font-family="Helvetica,sans-Serif" font-size="10.00">simulation_object_util.h</text>
</a>
</g>
</g>
<!-- Node11&#45;&gt;Node12 -->
<g id="edge14" class="edge"><title>Node11&#45;&gt;Node12</title>
<path fill="none" stroke="midnightblue" d="M781.566,-450.807C739.751,-442.287 679.402,-429.405 627.153,-416 532.796,-391.792 422.365,-357.357 372.709,-341.541"/>
<polygon fill="midnightblue" stroke="midnightblue" points="781.02,-454.267 791.516,-452.823 782.41,-447.407 781.02,-454.267"/>
</g>
<!-- Node16 -->
<g id="node16" class="node"><title>Node16</title>
<g id="a_node16"><a xlink:href="resource__manager_8h.html" target="_top" xlink:title="resource_manager.h">
<polygon fill="white" stroke="black" points="715.653,-390.5 715.653,-409.5 820.653,-409.5 820.653,-390.5 715.653,-390.5"/>
<text text-anchor="middle" x="768.153" y="-397.5" font-family="Helvetica,sans-Serif" font-size="10.00">resource_manager.h</text>
</a>
</g>
</g>
<!-- Node11&#45;&gt;Node16 -->
<g id="edge25" class="edge"><title>Node11&#45;&gt;Node16</title>
<path fill="none" stroke="midnightblue" d="M816.383,-445.521C803.991,-434.082 787.577,-418.93 777.448,-409.581"/>
<polygon fill="midnightblue" stroke="midnightblue" points="814.118,-448.192 823.84,-452.403 818.866,-443.049 814.118,-448.192"/>
</g>
<!-- Node17 -->
<g id="node17" class="node"><title>Node17</title>
<g id="a_node17"><a xlink:href="model__initializer_8h.html" target="_top" xlink:title="model_initializer.h">
<polygon fill="white" stroke="black" points="462.653,-322.5 462.653,-341.5 557.653,-341.5 557.653,-322.5 462.653,-322.5"/>
<text text-anchor="middle" x="510.153" y="-329.5" font-family="Helvetica,sans-Serif" font-size="10.00">model_initializer.h</text>
</a>
</g>
</g>
<!-- Node11&#45;&gt;Node17 -->
<g id="edge49" class="edge"><title>Node11&#45;&gt;Node17</title>
<path fill="none" stroke="midnightblue" d="M798.042,-449.193C772.426,-440.426 736.951,-427.965 706.153,-416 640.535,-390.508 564.041,-356.994 529.193,-341.514"/>
<polygon fill="midnightblue" stroke="midnightblue" points="797.093,-452.567 807.687,-452.48 799.35,-445.941 797.093,-452.567"/>
</g>
<!-- Node20 -->
<g id="node20" class="node"><title>Node20</title>
<g id="a_node20"><a xlink:href="diffusion__op_8h.html" target="_top" xlink:title="diffusion_op.h">
<polygon fill="white" stroke="black" points="954.653,-198.5 954.653,-217.5 1031.65,-217.5 1031.65,-198.5 954.653,-198.5"/>
<text text-anchor="middle" x="993.153" y="-205.5" font-family="Helvetica,sans-Serif" font-size="10.00">diffusion_op.h</text>
</a>
</g>
</g>
<!-- Node11&#45;&gt;Node20 -->
<g id="edge50" class="edge"><title>Node11&#45;&gt;Node20</title>
<path fill="none" stroke="midnightblue" d="M884.72,-451.893C911.092,-445.282 942.52,-434.199 966.153,-416 994.866,-393.888 998.206,-381.849 1011.15,-348 1025.21,-311.235 1030.93,-298.129 1021.15,-260 1017.04,-243.954 1006.7,-227.536 999.808,-217.809"/>
<polygon fill="midnightblue" stroke="midnightblue" points="883.817,-448.51 874.888,-454.213 885.424,-455.323 883.817,-448.51"/>
</g>
<!-- Node27 -->
<g id="node27" class="node"><title>Node27</title>
<g id="a_node27"><a xlink:href="substance__initializers_8h.html" target="_top" xlink:title="substance_initializers.h">
<polygon fill="white" stroke="black" points="838.653,-390.5 838.653,-409.5 957.653,-409.5 957.653,-390.5 838.653,-390.5"/>
<text text-anchor="middle" x="898.153" y="-397.5" font-family="Helvetica,sans-Serif" font-size="10.00">substance_initializers.h</text>
</a>
</g>
</g>
<!-- Node11&#45;&gt;Node27 -->
<g id="edge51" class="edge"><title>Node11&#45;&gt;Node27</title>
<path fill="none" stroke="midnightblue" d="M849.922,-445.521C862.314,-434.082 878.728,-418.93 888.857,-409.581"/>
<polygon fill="midnightblue" stroke="midnightblue" points="847.44,-443.049 842.466,-452.403 852.188,-448.192 847.44,-443.049"/>
</g>
<!-- Node12&#45;&gt;Node3 -->
<g id="edge22" class="edge"><title>Node12&#45;&gt;Node3</title>
<path fill="none" stroke="midnightblue" d="M390.613,-319.425C440.085,-303.545 513.153,-269.8 513.153,-209 513.153,-209 513.153,-209 513.153,-139 513.153,-92.4065 536.579,-40.0712 546.644,-19.734"/>
<polygon fill="midnightblue" stroke="midnightblue" points="389.285,-316.171 380.755,-322.456 391.342,-322.862 389.285,-316.171"/>
</g>
<!-- Node12&#45;&gt;Node4 -->
<g id="edge21" class="edge"><title>Node12&#45;&gt;Node4</title>
<path fill="none" stroke="midnightblue" d="M337.253,-312.904C324.149,-286.258 300.164,-237.489 290.429,-217.694"/>
<polygon fill="midnightblue" stroke="midnightblue" points="334.284,-314.797 341.838,-322.226 340.565,-311.708 334.284,-314.797"/>
</g>
<!-- Node12&#45;&gt;Node7 -->
<g id="edge24" class="edge"><title>Node12&#45;&gt;Node7</title>
<path fill="none" stroke="midnightblue" d="M354.148,-313.128C370.954,-275.561 409.645,-189.075 424.852,-155.085"/>
<polygon fill="midnightblue" stroke="midnightblue" points="350.915,-311.785 350.026,-322.342 357.305,-314.643 350.915,-311.785"/>
</g>
<!-- Node13 -->
<g id="node13" class="node"><title>Node13</title>
<g id="a_node13"><a xlink:href="simulation__object_8h.html" target="_top" xlink:title="simulation_object.h">
<polygon fill="white" stroke="black" points="140.653,-260.5 140.653,-279.5 241.653,-279.5 241.653,-260.5 140.653,-260.5"/>
<text text-anchor="middle" x="191.153" y="-267.5" font-family="Helvetica,sans-Serif" font-size="10.00">simulation_object.h</text>
</a>
</g>
</g>
<!-- Node12&#45;&gt;Node13 -->
<g id="edge15" class="edge"><title>Node12&#45;&gt;Node13</title>
<path fill="none" stroke="midnightblue" d="M314.325,-318.68C284.205,-307.02 239.774,-289.821 213.319,-279.581"/>
<polygon fill="midnightblue" stroke="midnightblue" points="313.356,-322.057 323.945,-322.403 315.883,-315.529 313.356,-322.057"/>
</g>
<!-- Node12&#45;&gt;Node14 -->
<g id="edge23" class="edge"><title>Node12&#45;&gt;Node14</title>
<path fill="none" stroke="midnightblue" d="M276.246,-330.04C230.334,-325.957 171.523,-313.729 131.153,-280 113.812,-265.512 105.881,-239.462 102.477,-223.265"/>
<polygon fill="midnightblue" stroke="midnightblue" points="276.187,-333.546 286.428,-330.833 276.73,-326.567 276.187,-333.546"/>
</g>
<!-- Node13&#45;&gt;Node4 -->
<g id="edge16" class="edge"><title>Node13&#45;&gt;Node4</title>
<path fill="none" stroke="midnightblue" d="M213.367,-254.97C231.701,-243.391 257.128,-227.331 272.567,-217.581"/>
<polygon fill="midnightblue" stroke="midnightblue" points="211.35,-252.104 204.764,-260.403 215.088,-258.023 211.35,-252.104"/>
</g>
<!-- Node13&#45;&gt;Node14 -->
<g id="edge17" class="edge"><title>Node13&#45;&gt;Node14</title>
<path fill="none" stroke="midnightblue" d="M169.754,-254.891C155.239,-245.321 136.125,-232.718 121.6,-223.141"/>
<polygon fill="midnightblue" stroke="midnightblue" points="167.839,-257.821 178.115,-260.403 171.693,-251.977 167.839,-257.821"/>
</g>
<!-- Node14&#45;&gt;Node8 -->
<g id="edge18" class="edge"><title>Node14&#45;&gt;Node8</title>
<path fill="none" stroke="midnightblue" d="M99.0569,-182.524C97.8074,-154.619 95.8068,-109.94 94.7903,-87.2372"/>
<polygon fill="midnightblue" stroke="midnightblue" points="95.5668,-182.826 99.5107,-192.66 102.56,-182.513 95.5668,-182.826"/>
</g>
<!-- Node14&#45;&gt;Node9 -->
<g id="edge20" class="edge"><title>Node14&#45;&gt;Node9</title>
<path fill="none" stroke="midnightblue" d="M81.8753,-184.836C64.436,-162.134 39.3567,-125.017 29.1528,-88 25.3734,-74.2891 22.5521,-68.5978 29.1528,-56 38.1981,-38.7364 57.2078,-26.7791 72.3447,-19.553"/>
<polygon fill="midnightblue" stroke="midnightblue" points="79.2057,-187.104 88.1381,-192.801 84.7084,-182.777 79.2057,-187.104"/>
</g>
<!-- Node15 -->
<g id="node15" class="node"><title>Node15</title>
<g id="a_node15"><a xlink:href="neurite__element_8cc.html" target="_top" xlink:title="neuroscience/neurite\l_element.cc">
<polygon fill="white" stroke="black" points="112.653,-125 112.653,-155 219.653,-155 219.653,-125 112.653,-125"/>
<text text-anchor="start" x="120.653" y="-143" font-family="Helvetica,sans-Serif" font-size="10.00">neuroscience/neurite</text>
<text text-anchor="middle" x="166.153" y="-132" font-family="Helvetica,sans-Serif" font-size="10.00">_element.cc</text>
</a>
</g>
</g>
<!-- Node14&#45;&gt;Node15 -->
<g id="edge19" class="edge"><title>Node14&#45;&gt;Node15</title>
<path fill="none" stroke="midnightblue" d="M121.667,-185.485C131.568,-175.585 143.044,-164.109 151.86,-155.293"/>
<polygon fill="midnightblue" stroke="midnightblue" points="119.07,-183.133 114.474,-192.679 124.02,-188.083 119.07,-183.133"/>
</g>
<!-- Node16&#45;&gt;Node3 -->
<g id="edge29" class="edge"><title>Node16&#45;&gt;Node3</title>
<path fill="none" stroke="midnightblue" d="M768.153,-380.081C768.153,-355.103 768.153,-309.752 768.153,-271 768.153,-271 768.153,-271 768.153,-139 768.153,-56.114 649.248,-25.8009 587.474,-15.6453"/>
<polygon fill="midnightblue" stroke="midnightblue" points="764.653,-380.309 768.153,-390.309 771.653,-380.309 764.653,-380.309"/>
</g>
<!-- Node16&#45;&gt;Node7 -->
<g id="edge48" class="edge"><title>Node16&#45;&gt;Node7</title>
<path fill="none" stroke="midnightblue" d="M705.356,-392.916C618.462,-383.89 470.258,-366.066 453.153,-348 401.843,-293.808 418.996,-192.354 427.547,-155.147"/>
<polygon fill="midnightblue" stroke="midnightblue" points="705.071,-396.405 715.377,-393.946 705.787,-389.442 705.071,-396.405"/>
</g>
<!-- Node16&#45;&gt;Node12 -->
<g id="edge26" class="edge"><title>Node16&#45;&gt;Node12</title>
<path fill="none" stroke="midnightblue" d="M705.586,-390.876C635.797,-381.571 519.626,-365.358 420.153,-348 409.176,-346.085 397.331,-343.788 386.404,-341.573"/>
<polygon fill="midnightblue" stroke="midnightblue" points="705.165,-394.351 715.539,-392.198 706.087,-387.412 705.165,-394.351"/>
</g>
<!-- Node16&#45;&gt;Node17 -->
<g id="edge27" class="edge"><title>Node16&#45;&gt;Node17</title>
<path fill="none" stroke="midnightblue" d="M724.929,-387.943C673.84,-374.873 589.926,-353.407 543.558,-341.546"/>
<polygon fill="midnightblue" stroke="midnightblue" points="724.133,-391.352 734.688,-390.439 725.868,-384.57 724.133,-391.352"/>
</g>
<!-- Node18 -->
<g id="node18" class="node"><title>Node18</title>
<g id="a_node18"><a xlink:href="simulation__object__vector_8h.html" target="_top" xlink:title="simulation_object_vector.h">
<polygon fill="white" stroke="black" points="1074.65,-322.5 1074.65,-341.5 1207.65,-341.5 1207.65,-322.5 1074.65,-322.5"/>
<text text-anchor="middle" x="1141.15" y="-329.5" font-family="Helvetica,sans-Serif" font-size="10.00">simulation_object_vector.h</text>
</a>
</g>
</g>
<!-- Node16&#45;&gt;Node18 -->
<g id="edge30" class="edge"><title>Node16&#45;&gt;Node18</title>
<path fill="none" stroke="midnightblue" d="M811.016,-388.008C817.088,-386.583 823.266,-385.203 829.153,-384 915.864,-366.281 1017.13,-350.649 1080.21,-341.506"/>
<polygon fill="midnightblue" stroke="midnightblue" points="809.873,-384.683 800.969,-390.425 811.511,-391.489 809.873,-384.683"/>
</g>
<!-- Node16&#45;&gt;Node20 -->
<g id="edge41" class="edge"><title>Node16&#45;&gt;Node20</title>
<path fill="none" stroke="midnightblue" d="M812.357,-388.021C818.005,-386.65 823.712,-385.281 829.153,-384 900.102,-367.297 942.805,-404.256 989.153,-348 1021.08,-309.244 1003.77,-241.705 996.151,-217.74"/>
<polygon fill="midnightblue" stroke="midnightblue" points="811.206,-384.699 802.322,-390.471 812.867,-391.499 811.206,-384.699"/>
</g>
<!-- Node16&#45;&gt;Node21 -->
<g id="edge42" class="edge"><title>Node16&#45;&gt;Node21</title>
<path fill="none" stroke="midnightblue" d="M786.048,-383.15C796.517,-373.474 809.689,-360.581 820.153,-348 873.594,-283.743 858.114,-241.906 925.153,-192 964.138,-162.978 1019.97,-150.238 1055.38,-144.811"/>
<polygon fill="midnightblue" stroke="midnightblue" points="783.387,-380.839 778.335,-390.152 788.092,-386.021 783.387,-380.839"/>
</g>
<!-- Node16&#45;&gt;Node22 -->
<g id="edge45" class="edge"><title>Node16&#45;&gt;Node22</title>
<path fill="none" stroke="midnightblue" d="M776.99,-381.213C788.217,-356.935 806.153,-311.769 806.153,-271 806.153,-271 806.153,-271 806.153,-207 806.153,-113.091 935.02,-84.9039 1018.83,-76.5025"/>
<polygon fill="midnightblue" stroke="midnightblue" points="773.818,-379.735 772.661,-390.266 780.133,-382.754 773.818,-379.735"/>
</g>
<!-- Node24 -->
<g id="node24" class="node"><title>Node24</title>
<g id="a_node24"><a xlink:href="displacement__op__opencl_8h.html" target="_top" xlink:title="displacement_op_opencl.h">
<polygon fill="white" stroke="black" points="1050.15,-198.5 1050.15,-217.5 1182.15,-217.5 1182.15,-198.5 1050.15,-198.5"/>
<text text-anchor="middle" x="1116.15" y="-205.5" font-family="Helvetica,sans-Serif" font-size="10.00">displacement_op_opencl.h</text>
</a>
</g>
</g>
<!-- Node16&#45;&gt;Node24 -->
<g id="edge47" class="edge"><title>Node16&#45;&gt;Node24</title>
<path fill="none" stroke="midnightblue" d="M710.272,-388.384C668.728,-379.451 617.914,-365.364 605.153,-348 596.73,-336.54 596.186,-327.039 605.153,-316 608.912,-311.372 951.987,-242.01 1073.82,-217.5"/>
<polygon fill="midnightblue" stroke="midnightblue" points="709.556,-391.81 720.06,-390.433 710.989,-384.959 709.556,-391.81"/>
</g>
<!-- Node16&#45;&gt;Node25 -->
<g id="edge43" class="edge"><title>Node16&#45;&gt;Node25</title>
<path fill="none" stroke="midnightblue" d="M798.112,-386.485C825.028,-375.242 864.509,-358.75 892.503,-347.056"/>
<polygon fill="midnightblue" stroke="midnightblue" points="796.687,-383.288 788.809,-390.372 799.385,-389.747 796.687,-383.288"/>
</g>
<!-- Node26 -->
<g id="node26" class="node"><title>Node26</title>
<g id="a_node26"><a xlink:href="displacement__op__cuda_8h.html" target="_top" xlink:title="displacement_op_cuda.h">
<polygon fill="white" stroke="black" points="614.653,-322.5 614.653,-341.5 739.653,-341.5 739.653,-322.5 614.653,-322.5"/>
<text text-anchor="middle" x="677.153" y="-329.5" font-family="Helvetica,sans-Serif" font-size="10.00">displacement_op_cuda.h</text>
</a>
</g>
</g>
<!-- Node16&#45;&gt;Node26 -->
<g id="edge46" class="edge"><title>Node16&#45;&gt;Node26</title>
<path fill="none" stroke="midnightblue" d="M748.098,-384.455C730.02,-371.343 704.041,-352.502 689.052,-341.63"/>
<polygon fill="midnightblue" stroke="midnightblue" points="746.106,-387.334 756.256,-390.372 750.216,-381.667 746.106,-387.334"/>
</g>
<!-- Node17&#45;&gt;Node3 -->
<g id="edge28" class="edge"><title>Node17&#45;&gt;Node3</title>
<path fill="none" stroke="midnightblue" d="M520.032,-313.522C532.164,-290.375 551.153,-247.929 551.153,-209 551.153,-209 551.153,-209 551.153,-139 551.153,-94.1111 551.153,-40.3672 551.153,-19.6913"/>
<polygon fill="midnightblue" stroke="midnightblue" points="516.877,-311.998 515.18,-322.456 523.028,-315.338 516.877,-311.998"/>
</g>
<!-- Node18&#45;&gt;Node19 -->
<g id="edge31" class="edge"><title>Node18&#45;&gt;Node19</title>
<path fill="none" stroke="midnightblue" d="M1157.66,-315.521C1169.87,-304.082 1186.03,-288.93 1196,-279.581"/>
<polygon fill="midnightblue" stroke="midnightblue" points="1155.22,-313.011 1150.32,-322.403 1160.01,-318.117 1155.22,-313.011"/>
</g>
<!-- Node19&#45;&gt;Node20 -->
<g id="edge32" class="edge"><title>Node19&#45;&gt;Node20</title>
<path fill="none" stroke="midnightblue" d="M1174.83,-259.978C1114.22,-242.913 1097.48,-240.361 1041.15,-224 1034.19,-221.979 1026.7,-219.691 1019.75,-217.523"/>
<polygon fill="midnightblue" stroke="midnightblue" points="1173.94,-263.365 1184.52,-262.724 1175.85,-256.63 1173.94,-263.365"/>
</g>
<!-- Node19&#45;&gt;Node22 -->
<g id="edge39" class="edge"><title>Node19&#45;&gt;Node22</title>
<path fill="none" stroke="midnightblue" d="M1210.15,-250.224C1213.45,-234.138 1215.89,-210.679 1208.15,-192 1186.57,-139.903 1129.9,-98.722 1103.31,-81.6082"/>
<polygon fill="midnightblue" stroke="midnightblue" points="1206.72,-249.498 1207.84,-260.034 1213.54,-251.101 1206.72,-249.498"/>
</g>
<!-- Node19&#45;&gt;Node23 -->
<g id="edge37" class="edge"><title>Node19&#45;&gt;Node23</title>
<path fill="none" stroke="midnightblue" d="M1231.33,-255.912C1254.6,-244.276 1287.96,-227.598 1307.99,-217.581"/>
<polygon fill="midnightblue" stroke="midnightblue" points="1229.72,-252.801 1222.35,-260.403 1232.86,-259.062 1229.72,-252.801"/>
</g>
<!-- Node19&#45;&gt;Node24 -->
<g id="edge40" class="edge"><title>Node19&#45;&gt;Node24</title>
<path fill="none" stroke="midnightblue" d="M1184.11,-254.811C1166.95,-243.244 1143.28,-227.287 1128.88,-217.581"/>
<polygon fill="midnightblue" stroke="midnightblue" points="1182.15,-257.716 1192.4,-260.403 1186.07,-251.911 1182.15,-257.716"/>
</g>
<!-- Node20&#45;&gt;Node21 -->
<g id="edge33" class="edge"><title>Node20&#45;&gt;Node21</title>
<path fill="none" stroke="midnightblue" d="M1014.05,-192.634C1033.13,-179.515 1060.71,-160.551 1076.6,-149.63"/>
<polygon fill="midnightblue" stroke="midnightblue" points="1011.96,-189.822 1005.7,-198.372 1015.93,-195.59 1011.96,-189.822"/>
</g>
<!-- Node21&#45;&gt;Node3 -->
<g id="edge34" class="edge"><title>Node21&#45;&gt;Node3</title>
<path fill="none" stroke="midnightblue" d="M1050.27,-127.527C992.223,-110.616 879.309,-78.5662 782.153,-56 713.699,-40.1005 632.953,-25.2522 587.333,-17.2199"/>
<polygon fill="midnightblue" stroke="midnightblue" points="1049.54,-130.959 1060.12,-130.404 1051.5,-124.24 1049.54,-130.959"/>
</g>
<!-- Node21&#45;&gt;Node22 -->
<g id="edge35" class="edge"><title>Node21&#45;&gt;Node22</title>
<path fill="none" stroke="midnightblue" d="M1089.15,-120.041C1089.15,-107.472 1089.15,-91.5631 1089.15,-81.8411"/>
<polygon fill="midnightblue" stroke="midnightblue" points="1085.65,-120.372 1089.15,-130.372 1092.65,-120.372 1085.65,-120.372"/>
</g>
<!-- Node22&#45;&gt;Node3 -->
<g id="edge36" class="edge"><title>Node22&#45;&gt;Node3</title>
<path fill="none" stroke="midnightblue" d="M1008.98,-62.0587C890.341,-48.8277 672.842,-24.5713 587.183,-15.0183"/>
<polygon fill="midnightblue" stroke="midnightblue" points="1008.77,-65.5568 1019.09,-63.1868 1009.54,-58.5999 1008.77,-65.5568"/>
</g>
<!-- Node23&#45;&gt;Node21 -->
<g id="edge38" class="edge"><title>Node23&#45;&gt;Node21</title>
<path fill="none" stroke="midnightblue" d="M1284.48,-195.625C1237.62,-182.521 1161.7,-161.288 1119.64,-149.526"/>
<polygon fill="midnightblue" stroke="midnightblue" points="1283.73,-199.049 1294.3,-198.372 1285.61,-192.308 1283.73,-199.049"/>
</g>
<!-- Node25&#45;&gt;Node21 -->
<g id="edge44" class="edge"><title>Node25&#45;&gt;Node21</title>
<path fill="none" stroke="midnightblue" d="M922.45,-306.832C919.227,-276.539 918.589,-224.64 945.153,-192 972.106,-158.882 1022.11,-147.249 1055.51,-143.175"/>
<polygon fill="midnightblue" stroke="midnightblue" points="918.999,-307.448 923.708,-316.939 925.946,-306.583 918.999,-307.448"/>
</g>
<!-- Node28&#45;&gt;Node23 -->
<g id="edge55" class="edge"><title>Node28&#45;&gt;Node23</title>
<path fill="none" stroke="midnightblue" d="M1336.91,-250.503C1333.8,-239.527 1330.01,-226.129 1327.58,-217.581"/>
<polygon fill="midnightblue" stroke="midnightblue" points="1333.62,-251.736 1339.72,-260.403 1340.36,-249.828 1333.62,-251.736"/>
</g>
<!-- Node29&#45;&gt;Node21 -->
<g id="edge58" class="edge"><title>Node29&#45;&gt;Node21</title>
<path fill="none" stroke="midnightblue" d="M1154.98,-255.964C1168.79,-248.764 1183.33,-238.321 1191.15,-224 1197.97,-211.517 1198.63,-204.098 1191.15,-192 1176.37,-168.085 1146.61,-155.009 1123.03,-148.106"/>
<polygon fill="midnightblue" stroke="midnightblue" points="1153.13,-252.966 1145.62,-260.438 1156.15,-259.281 1153.13,-252.966"/>
</g>
<!-- Node29&#45;&gt;Node24 -->
<g id="edge59" class="edge"><title>Node29&#45;&gt;Node24</title>
<path fill="none" stroke="midnightblue" d="M1119.58,-250.16C1118.67,-239.248 1117.57,-226.04 1116.87,-217.581"/>
<polygon fill="midnightblue" stroke="midnightblue" points="1116.12,-250.729 1120.44,-260.403 1123.09,-250.147 1116.12,-250.729"/>
</g>
<!-- Node31 -->
<g id="node31" class="node"><title>Node31</title>
<g id="a_node31"><a xlink:href="op__timer_8h.html" target="_top" xlink:title="op_timer.h">
<polygon fill="white" stroke="black" points="1378.15,-390.5 1378.15,-409.5 1440.15,-409.5 1440.15,-390.5 1378.15,-390.5"/>
<text text-anchor="middle" x="1409.15" y="-397.5" font-family="Helvetica,sans-Serif" font-size="10.00">op_timer.h</text>
</a>
</g>
</g>
<!-- Node30&#45;&gt;Node31 -->
<g id="edge61" class="edge"><title>Node30&#45;&gt;Node31</title>
<path fill="none" stroke="midnightblue" d="M1407.78,-442.16C1408.14,-431.248 1408.58,-418.04 1408.87,-409.581"/>
<polygon fill="midnightblue" stroke="midnightblue" points="1404.27,-442.292 1407.44,-452.403 1411.27,-442.526 1404.27,-442.292"/>
</g>
<!-- Node31&#45;&gt;Node21 -->
<g id="edge62" class="edge"><title>Node31&#45;&gt;Node21</title>
<path fill="none" stroke="midnightblue" d="M1413.87,-380.511C1423.27,-338.803 1438.86,-237.504 1382.15,-192 1342.59,-160.249 1191.13,-147.193 1122.87,-142.839"/>
<polygon fill="midnightblue" stroke="midnightblue" points="1410.43,-379.85 1411.5,-390.391 1417.24,-381.482 1410.43,-379.85"/>
</g>
</g>
</svg>
