<?xml version="1.0" encoding="UTF-8" standalone="no"?>
<!DOCTYPE svg PUBLIC "-//W3C//DTD SVG 1.1//EN"
 "http://www.w3.org/Graphics/SVG/1.1/DTD/svg11.dtd">
<!-- Generated by graphviz version 2.43.0 (0)
 -->
<!-- Title: core/visualization/paraview/parallel_vtu_writer.cc Pages: 1 -->
<svg width="2435pt" height="475pt"
 viewBox="0.00 0.00 2435.00 475.00" xmlns="http://www.w3.org/2000/svg" xmlns:xlink="http://www.w3.org/1999/xlink">
<g id="graph0" class="graph" transform="scale(1 1) rotate(0) translate(4 471)">
<title>core/visualization/paraview/parallel_vtu_writer.cc</title>
<polygon fill="white" stroke="transparent" points="-4,4 -4,-471 2431,-471 2431,4 -4,4"/>
<!-- Node1 -->
<g id="node1" class="node">
<title>Node1</title>
<g id="a_node1"><a xlink:title=" ">
<polygon fill="#bfbfbf" stroke="black" points="1642,-425.5 1642,-466.5 1767,-466.5 1767,-425.5 1642,-425.5"/>
<text text-anchor="start" x="1650" y="-454.5" font-family="Helvetica,sans-Serif" font-size="10.00">core/visualization</text>
<text text-anchor="start" x="1650" y="-443.5" font-family="Helvetica,sans-Serif" font-size="10.00">/paraview/parallel_vtu</text>
<text text-anchor="middle" x="1704.5" y="-432.5" font-family="Helvetica,sans-Serif" font-size="10.00">_writer.cc</text>
</a>
</g>
</g>
<!-- Node2 -->
<g id="node2" class="node">
<title>Node2</title>
<g id="a_node2"><a xlink:href="parallel__vtu__writer_8h.html" target="_top" xlink:title=" ">
<polygon fill="white" stroke="black" points="0,-56.5 0,-97.5 125,-97.5 125,-56.5 0,-56.5"/>
<text text-anchor="start" x="8" y="-85.5" font-family="Helvetica,sans-Serif" font-size="10.00">core/visualization</text>
<text text-anchor="start" x="8" y="-74.5" font-family="Helvetica,sans-Serif" font-size="10.00">/paraview/parallel_vtu</text>
<text text-anchor="middle" x="62.5" y="-63.5" font-family="Helvetica,sans-Serif" font-size="10.00">_writer.h</text>
</a>
</g>
</g>
<!-- Node1&#45;&gt;Node2 -->
<g id="edge1" class="edge">
<title>Node1&#45;&gt;Node2</title>
<path fill="none" stroke="midnightblue" d="M1641.94,-443.7C1342.56,-437.1 70.5,-404.31 70.5,-324 70.5,-324 70.5,-324 70.5,-199 70.5,-167.82 67.82,-132.23 65.57,-107.76"/>
<polygon fill="midnightblue" stroke="midnightblue" points="69.04,-107.3 64.6,-97.67 62.07,-107.96 69.04,-107.3"/>
</g>
<!-- Node6 -->
<g id="node6" class="node">
<title>Node6</title>
<g id="a_node6"><a xlink:title=" ">
<polygon fill="white" stroke="#bfbfbf" points="1980,-369.5 1980,-388.5 2035,-388.5 2035,-369.5 1980,-369.5"/>
<text text-anchor="middle" x="2007.5" y="-376.5" font-family="Helvetica,sans-Serif" font-size="10.00">fstream</text>
</a>
</g>
</g>
<!-- Node1&#45;&gt;Node6 -->
<g id="edge5" class="edge">
<title>Node1&#45;&gt;Node6</title>
<path fill="none" stroke="midnightblue" d="M1767.28,-431.53C1828.42,-418.42 1919.32,-398.92 1969.96,-388.05"/>
<polygon fill="midnightblue" stroke="midnightblue" points="1970.79,-391.45 1979.83,-385.93 1969.32,-384.61 1970.79,-391.45"/>
</g>
<!-- Node7 -->
<g id="node7" class="node">
<title>Node7</title>
<g id="a_node7"><a xlink:title=" ">
<polygon fill="white" stroke="#bfbfbf" points="1681.5,-0.5 1681.5,-19.5 1737.5,-19.5 1737.5,-0.5 1681.5,-0.5"/>
<text text-anchor="middle" x="1709.5" y="-7.5" font-family="Helvetica,sans-Serif" font-size="10.00">sstream</text>
</a>
</g>
</g>
<!-- Node1&#45;&gt;Node7 -->
<g id="edge6" class="edge">
<title>Node1&#45;&gt;Node7</title>
<path fill="none" stroke="midnightblue" d="M1767.31,-427.17C1877.22,-395.95 2093.03,-334.5 2094.5,-333 2117.26,-309.87 2113.5,-294.95 2113.5,-262.5 2113.5,-262.5 2113.5,-262.5 2113.5,-143 2113.5,-66.48 1848.31,-27.3 1747.64,-15.19"/>
<polygon fill="midnightblue" stroke="midnightblue" points="1747.93,-11.7 1737.59,-14.01 1747.11,-18.65 1747.93,-11.7"/>
</g>
<!-- Node8 -->
<g id="node8" class="node">
<title>Node8</title>
<g id="a_node8"><a xlink:title=" ">
<polygon fill="white" stroke="#bfbfbf" points="2053,-369.5 2053,-388.5 2234,-388.5 2234,-369.5 2053,-369.5"/>
<text text-anchor="middle" x="2143.5" y="-376.5" font-family="Helvetica,sans-Serif" font-size="10.00">vtkXMLPUnstructuredGridWriter.h</text>
</a>
</g>
</g>
<!-- Node1&#45;&gt;Node8 -->
<g id="edge7" class="edge">
<title>Node1&#45;&gt;Node8</title>
<path fill="none" stroke="midnightblue" d="M1767.4,-435.69C1849.3,-423.56 1991.9,-402.45 2076,-389.99"/>
<polygon fill="midnightblue" stroke="midnightblue" points="2076.58,-393.45 2085.96,-388.52 2075.56,-386.52 2076.58,-393.45"/>
</g>
<!-- Node9 -->
<g id="node9" class="node">
<title>Node9</title>
<g id="a_node9"><a xlink:title=" ">
<polygon fill="white" stroke="#bfbfbf" points="2252,-369.5 2252,-388.5 2427,-388.5 2427,-369.5 2252,-369.5"/>
<text text-anchor="middle" x="2339.5" y="-376.5" font-family="Helvetica,sans-Serif" font-size="10.00">vtkXMLUnstructuredGridWriter.h</text>
</a>
</g>
</g>
<!-- Node1&#45;&gt;Node9 -->
<g id="edge8" class="edge">
<title>Node1&#45;&gt;Node9</title>
<path fill="none" stroke="midnightblue" d="M1767.12,-438.59C1879.27,-427.11 2114.89,-402.99 2246.16,-389.55"/>
<polygon fill="midnightblue" stroke="midnightblue" points="2246.61,-393.03 2256.2,-388.53 2245.9,-386.06 2246.61,-393.03"/>
</g>
<!-- Node10 -->
<g id="node10" class="node">
<title>Node10</title>
<g id="a_node10"><a xlink:href="core_2param_2param_8h.html" target="_top" xlink:title=" ">
<polygon fill="white" stroke="black" points="1646.5,-369.5 1646.5,-388.5 1762.5,-388.5 1762.5,-369.5 1646.5,-369.5"/>
<text text-anchor="middle" x="1704.5" y="-376.5" font-family="Helvetica,sans-Serif" font-size="10.00">core/param/param.h</text>
</a>
</g>
</g>
<!-- Node1&#45;&gt;Node10 -->
<g id="edge9" class="edge">
<title>Node1&#45;&gt;Node10</title>
<path fill="none" stroke="midnightblue" d="M1704.5,-425.5C1704.5,-417.07 1704.5,-407.24 1704.5,-398.87"/>
<polygon fill="midnightblue" stroke="midnightblue" points="1708,-398.65 1704.5,-388.65 1701,-398.65 1708,-398.65"/>
</g>
<!-- Node25 -->
<g id="node25" class="node">
<title>Node25</title>
<g id="a_node25"><a xlink:href="string_8h.html" target="_top" xlink:title=" ">
<polygon fill="white" stroke="black" points="1189.5,-67.5 1189.5,-86.5 1285.5,-86.5 1285.5,-67.5 1189.5,-67.5"/>
<text text-anchor="middle" x="1237.5" y="-74.5" font-family="Helvetica,sans-Serif" font-size="10.00">core/util/string.h</text>
</a>
</g>
</g>
<!-- Node1&#45;&gt;Node25 -->
<g id="edge82" class="edge">
<title>Node1&#45;&gt;Node25</title>
<path fill="none" stroke="midnightblue" d="M1641.8,-436.63C1540.36,-421.31 1351.5,-384.66 1351.5,-324 1351.5,-324 1351.5,-324 1351.5,-199 1351.5,-148.35 1297.92,-110.28 1264.23,-91.34"/>
<polygon fill="midnightblue" stroke="midnightblue" points="1265.77,-88.2 1255.31,-86.52 1262.44,-94.36 1265.77,-88.2"/>
</g>
<!-- Node39 -->
<g id="node35" class="node">
<title>Node39</title>
<g id="a_node35"><a xlink:href="simulation_8h.html" target="_top" xlink:title=" ">
<polygon fill="white" stroke="black" points="779,-369.5 779,-388.5 880,-388.5 880,-369.5 779,-369.5"/>
<text text-anchor="middle" x="829.5" y="-376.5" font-family="Helvetica,sans-Serif" font-size="10.00">core/simulation.h</text>
</a>
</g>
</g>
<!-- Node1&#45;&gt;Node39 -->
<g id="edge45" class="edge">
<title>Node1&#45;&gt;Node39</title>
<path fill="none" stroke="midnightblue" d="M1641.92,-440.35C1480.22,-428.34 1049.95,-396.38 890.27,-384.51"/>
<polygon fill="midnightblue" stroke="midnightblue" points="890.38,-381.01 880.15,-383.76 889.86,-387.99 890.38,-381.01"/>
</g>
<!-- Node52 -->
<g id="node46" class="node">
<title>Node52</title>
<g id="a_node46"><a xlink:href="thread__info_8h.html" target="_top" xlink:title=" ">
<polygon fill="white" stroke="black" points="181.5,-190.5 181.5,-209.5 305.5,-209.5 305.5,-190.5 181.5,-190.5"/>
<text text-anchor="middle" x="243.5" y="-197.5" font-family="Helvetica,sans-Serif" font-size="10.00">core/util/thread_info.h</text>
</a>
</g>
</g>
<!-- Node1&#45;&gt;Node52 -->
<g id="edge83" class="edge">
<title>Node1&#45;&gt;Node52</title>
<path fill="none" stroke="midnightblue" d="M1641.96,-443.56C1460.66,-439.02 937.09,-423.24 769.5,-389 571.72,-348.59 347.81,-249.6 271.03,-214.01"/>
<polygon fill="midnightblue" stroke="midnightblue" points="272.13,-210.67 261.59,-209.61 269.17,-217.01 272.13,-210.67"/>
</g>
<!-- Node3 -->
<g id="node3" class="node">
<title>Node3</title>
<g id="a_node3"><a xlink:title=" ">
<polygon fill="white" stroke="#bfbfbf" points="1215.5,-0.5 1215.5,-19.5 1259.5,-19.5 1259.5,-0.5 1215.5,-0.5"/>
<text text-anchor="middle" x="1237.5" y="-7.5" font-family="Helvetica,sans-Serif" font-size="10.00">string</text>
</a>
</g>
</g>
<!-- Node2&#45;&gt;Node3 -->
<g id="edge2" class="edge">
<title>Node2&#45;&gt;Node3</title>
<path fill="none" stroke="midnightblue" d="M125,-69.42C167.87,-65.1 226.08,-59.59 277.5,-56 641.03,-30.59 1083.02,-15.78 1204.99,-11.98"/>
<polygon fill="midnightblue" stroke="midnightblue" points="1205.27,-15.48 1215.15,-11.67 1205.05,-8.48 1205.27,-15.48"/>
</g>
<!-- Node4 -->
<g id="node4" class="node">
<title>Node4</title>
<g id="a_node4"><a xlink:title=" ">
<polygon fill="white" stroke="#bfbfbf" points="526,-0.5 526,-19.5 573,-19.5 573,-0.5 526,-0.5"/>
<text text-anchor="middle" x="549.5" y="-7.5" font-family="Helvetica,sans-Serif" font-size="10.00">vector</text>
</a>
</g>
</g>
<!-- Node2&#45;&gt;Node4 -->
<g id="edge3" class="edge">
<title>Node2&#45;&gt;Node4</title>
<path fill="none" stroke="midnightblue" d="M125.37,-58.88C130.13,-57.82 134.88,-56.85 139.5,-56 277.83,-30.58 445.25,-17.68 515.69,-13.05"/>
<polygon fill="midnightblue" stroke="midnightblue" points="516,-16.53 525.75,-12.4 515.55,-9.55 516,-16.53"/>
</g>
<!-- Node5 -->
<g id="node5" class="node">
<title>Node5</title>
<g id="a_node5"><a xlink:title=" ">
<polygon fill="white" stroke="#bfbfbf" points="0,-0.5 0,-19.5 125,-19.5 125,-0.5 0,-0.5"/>
<text text-anchor="middle" x="62.5" y="-7.5" font-family="Helvetica,sans-Serif" font-size="10.00">vtkUnstructuredGrid.h</text>
</a>
</g>
</g>
<!-- Node2&#45;&gt;Node5 -->
<g id="edge4" class="edge">
<title>Node2&#45;&gt;Node5</title>
<path fill="none" stroke="midnightblue" d="M62.5,-56.5C62.5,-48.07 62.5,-38.24 62.5,-29.87"/>
<polygon fill="midnightblue" stroke="midnightblue" points="66,-29.65 62.5,-19.65 59,-29.65 66,-29.65"/>
</g>
<!-- Node10&#45;&gt;Node3 -->
<g id="edge14" class="edge">
<title>Node10&#45;&gt;Node3</title>
<path fill="none" stroke="midnightblue" d="M1713.94,-369.44C1729.81,-355.52 1763.37,-328.01 1796.5,-313 1858.95,-284.71 1897.79,-325.25 1946.5,-277 1971.24,-252.5 1965.5,-235.82 1965.5,-201 1965.5,-201 1965.5,-201 1965.5,-143 1965.5,-71.25 1410.96,-24.19 1269.85,-13.38"/>
<polygon fill="midnightblue" stroke="midnightblue" points="1269.92,-9.88 1259.69,-12.61 1269.39,-16.86 1269.92,-9.88"/>
</g>
<!-- Node10&#45;&gt;Node4 -->
<g id="edge16" class="edge">
<title>Node10&#45;&gt;Node4</title>
<path fill="none" stroke="midnightblue" d="M1646.27,-374.6C1577.08,-369.49 1466.92,-357.68 1434.5,-333 1324.74,-249.45 1413.16,-126.34 1294.5,-56 1232.84,-19.45 721.25,-12.46 583.53,-11.24"/>
<polygon fill="midnightblue" stroke="midnightblue" points="583.21,-7.74 573.18,-11.15 583.15,-14.74 583.21,-7.74"/>
</g>
<!-- Node11 -->
<g id="node11" class="node">
<title>Node11</title>
<g id="a_node11"><a xlink:title=" ">
<polygon fill="white" stroke="#bfbfbf" points="1805.5,-313.5 1805.5,-332.5 1867.5,-332.5 1867.5,-313.5 1805.5,-313.5"/>
<text text-anchor="middle" x="1836.5" y="-320.5" font-family="Helvetica,sans-Serif" font-size="10.00">cinttypes</text>
</a>
</g>
</g>
<!-- Node10&#45;&gt;Node11 -->
<g id="edge10" class="edge">
<title>Node10&#45;&gt;Node11</title>
<path fill="none" stroke="midnightblue" d="M1725.42,-369.44C1747.24,-360.52 1781.65,-346.44 1806.39,-336.32"/>
<polygon fill="midnightblue" stroke="midnightblue" points="1807.75,-339.54 1815.68,-332.52 1805.1,-333.06 1807.75,-339.54"/>
</g>
<!-- Node12 -->
<g id="node12" class="node">
<title>Node12</title>
<g id="a_node12"><a xlink:title=" ">
<polygon fill="white" stroke="#bfbfbf" points="1885.5,-313.5 1885.5,-332.5 1923.5,-332.5 1923.5,-313.5 1885.5,-313.5"/>
<text text-anchor="middle" x="1904.5" y="-320.5" font-family="Helvetica,sans-Serif" font-size="10.00">map</text>
</a>
</g>
</g>
<!-- Node10&#45;&gt;Node12 -->
<g id="edge11" class="edge">
<title>Node10&#45;&gt;Node12</title>
<path fill="none" stroke="midnightblue" d="M1739.57,-369.43C1772.4,-361.27 1823.01,-348.35 1875.45,-333.19"/>
<polygon fill="midnightblue" stroke="midnightblue" points="1876.64,-336.49 1885.26,-330.34 1874.68,-329.77 1876.64,-336.49"/>
</g>
<!-- Node13 -->
<g id="node13" class="node">
<title>Node13</title>
<g id="a_node13"><a xlink:title=" ">
<polygon fill="white" stroke="#bfbfbf" points="1417.5,-252 1417.5,-271 1475.5,-271 1475.5,-252 1417.5,-252"/>
<text text-anchor="middle" x="1446.5" y="-259" font-family="Helvetica,sans-Serif" font-size="10.00">memory</text>
</a>
</g>
</g>
<!-- Node10&#45;&gt;Node13 -->
<g id="edge12" class="edge">
<title>Node10&#45;&gt;Node13</title>
<path fill="none" stroke="midnightblue" d="M1646.33,-376.25C1578.23,-372.84 1471.52,-362.76 1446.5,-333 1434.58,-318.83 1436.75,-296.79 1440.52,-281.12"/>
<polygon fill="midnightblue" stroke="midnightblue" points="1444.01,-281.63 1443.37,-271.05 1437.28,-279.72 1444.01,-281.63"/>
</g>
<!-- Node14 -->
<g id="node14" class="node">
<title>Node14</title>
<g id="a_node14"><a xlink:title=" ">
<polygon fill="white" stroke="#bfbfbf" points="1941.5,-313.5 1941.5,-332.5 1973.5,-332.5 1973.5,-313.5 1941.5,-313.5"/>
<text text-anchor="middle" x="1957.5" y="-320.5" font-family="Helvetica,sans-Serif" font-size="10.00">set</text>
</a>
</g>
</g>
<!-- Node10&#45;&gt;Node14 -->
<g id="edge13" class="edge">
<title>Node10&#45;&gt;Node14</title>
<path fill="none" stroke="midnightblue" d="M1759.87,-369.48C1804.11,-362.12 1867.78,-350.32 1931.64,-332.9"/>
<polygon fill="midnightblue" stroke="midnightblue" points="1932.78,-336.22 1941.48,-330.17 1930.91,-329.47 1932.78,-336.22"/>
</g>
<!-- Node15 -->
<g id="node15" class="node">
<title>Node15</title>
<g id="a_node15"><a xlink:title=" ">
<polygon fill="white" stroke="#bfbfbf" points="1992,-313.5 1992,-332.5 2085,-332.5 2085,-313.5 1992,-313.5"/>
<text text-anchor="middle" x="2038.5" y="-320.5" font-family="Helvetica,sans-Serif" font-size="10.00">unordered_map</text>
</a>
</g>
</g>
<!-- Node10&#45;&gt;Node15 -->
<g id="edge15" class="edge">
<title>Node10&#45;&gt;Node15</title>
<path fill="none" stroke="midnightblue" d="M1757.42,-369.44C1818.58,-359.56 1918.84,-343.35 1981.63,-333.19"/>
<polygon fill="midnightblue" stroke="midnightblue" points="1982.44,-336.61 1991.75,-331.56 1981.32,-329.7 1982.44,-336.61"/>
</g>
<!-- Node16 -->
<g id="node16" class="node">
<title>Node16</title>
<g id="a_node16"><a xlink:href="param__group_8h.html" target="_top" xlink:title=" ">
<polygon fill="white" stroke="black" points="1455,-313.5 1455,-332.5 1604,-332.5 1604,-313.5 1455,-313.5"/>
<text text-anchor="middle" x="1529.5" y="-320.5" font-family="Helvetica,sans-Serif" font-size="10.00">core/param/param_group.h</text>
</a>
</g>
</g>
<!-- Node10&#45;&gt;Node16 -->
<g id="edge17" class="edge">
<title>Node10&#45;&gt;Node16</title>
<path fill="none" stroke="midnightblue" d="M1676.77,-369.44C1647.07,-360.28 1599.78,-345.69 1566.83,-335.52"/>
<polygon fill="midnightblue" stroke="midnightblue" points="1567.69,-332.12 1557.1,-332.52 1565.62,-338.81 1567.69,-332.12"/>
</g>
<!-- Node17 -->
<g id="node17" class="node">
<title>Node17</title>
<g id="a_node17"><a xlink:href="root_8h.html" target="_top" xlink:title=" ">
<polygon fill="white" stroke="black" points="1193.5,-190.5 1193.5,-209.5 1281.5,-209.5 1281.5,-190.5 1193.5,-190.5"/>
<text text-anchor="middle" x="1237.5" y="-197.5" font-family="Helvetica,sans-Serif" font-size="10.00">core/util/root.h</text>
</a>
</g>
</g>
<!-- Node10&#45;&gt;Node17 -->
<g id="edge33" class="edge">
<title>Node10&#45;&gt;Node17</title>
<path fill="none" stroke="midnightblue" d="M1646.41,-374.37C1565.1,-368.56 1422.1,-355.48 1375.5,-333 1319.19,-305.83 1270.95,-247.05 1249.45,-217.99"/>
<polygon fill="midnightblue" stroke="midnightblue" points="1252.13,-215.72 1243.44,-209.67 1246.46,-219.82 1252.13,-215.72"/>
</g>
<!-- Node26 -->
<g id="node26" class="node">
<title>Node26</title>
<g id="a_node26"><a xlink:title=" ">
<polygon fill="white" stroke="#bfbfbf" points="1531.5,-252 1531.5,-271 1639.5,-271 1639.5,-252 1531.5,-252"/>
<text text-anchor="middle" x="1585.5" y="-259" font-family="Helvetica,sans-Serif" font-size="10.00">cpptoml/cpptoml.h</text>
</a>
</g>
</g>
<!-- Node10&#45;&gt;Node26 -->
<g id="edge44" class="edge">
<title>Node10&#45;&gt;Node26</title>
<path fill="none" stroke="midnightblue" d="M1693.38,-369.44C1682.2,-360.67 1664.65,-346.46 1650.5,-333 1631.95,-315.35 1612.22,-293.46 1599.43,-278.8"/>
<polygon fill="midnightblue" stroke="midnightblue" points="1601.95,-276.36 1592.77,-271.08 1596.66,-280.94 1601.95,-276.36"/>
</g>
<!-- Node27 -->
<g id="node27" class="node">
<title>Node27</title>
<g id="a_node27"><a xlink:href="type_8h.html" target="_top" xlink:title=" ">
<polygon fill="white" stroke="black" points="1659.5,-313.5 1659.5,-332.5 1749.5,-332.5 1749.5,-313.5 1659.5,-313.5"/>
<text text-anchor="middle" x="1704.5" y="-320.5" font-family="Helvetica,sans-Serif" font-size="10.00">core/util/type.h</text>
</a>
</g>
</g>
<!-- Node10&#45;&gt;Node27 -->
<g id="edge34" class="edge">
<title>Node10&#45;&gt;Node27</title>
<path fill="none" stroke="midnightblue" d="M1704.5,-369.08C1704.5,-362.01 1704.5,-351.86 1704.5,-342.99"/>
<polygon fill="midnightblue" stroke="midnightblue" points="1708,-342.75 1704.5,-332.75 1701,-342.75 1708,-342.75"/>
</g>
<!-- Node16&#45;&gt;Node13 -->
<g id="edge18" class="edge">
<title>Node16&#45;&gt;Node13</title>
<path fill="none" stroke="midnightblue" d="M1517.61,-313.48C1504.3,-303.93 1482.5,-288.31 1466.54,-276.87"/>
<polygon fill="midnightblue" stroke="midnightblue" points="1468.54,-273.99 1458.37,-271.01 1464.46,-279.68 1468.54,-273.99"/>
</g>
<!-- Node16&#45;&gt;Node17 -->
<g id="edge19" class="edge">
<title>Node16&#45;&gt;Node17</title>
<path fill="none" stroke="midnightblue" d="M1527,-313.28C1521.89,-297.16 1508.66,-262.82 1484.5,-246 1454.05,-224.8 1354.83,-211.89 1291.8,-205.63"/>
<polygon fill="midnightblue" stroke="midnightblue" points="1291.92,-202.12 1281.63,-204.64 1291.24,-209.09 1291.92,-202.12"/>
</g>
<!-- Node16&#45;&gt;Node26 -->
<g id="edge32" class="edge">
<title>Node16&#45;&gt;Node26</title>
<path fill="none" stroke="midnightblue" d="M1537.52,-313.48C1546.09,-304.37 1559.86,-289.74 1570.46,-278.48"/>
<polygon fill="midnightblue" stroke="midnightblue" points="1573.19,-280.69 1577.49,-271.01 1568.09,-275.89 1573.19,-280.69"/>
</g>
<!-- Node18 -->
<g id="node18" class="node">
<title>Node18</title>
<g id="a_node18"><a xlink:title=" ">
<polygon fill="white" stroke="#bfbfbf" points="1209,-134.5 1209,-153.5 1266,-153.5 1266,-134.5 1209,-134.5"/>
<text text-anchor="middle" x="1237.5" y="-141.5" font-family="Helvetica,sans-Serif" font-size="10.00">TClass.h</text>
</a>
</g>
</g>
<!-- Node17&#45;&gt;Node18 -->
<g id="edge20" class="edge">
<title>Node17&#45;&gt;Node18</title>
<path fill="none" stroke="midnightblue" d="M1237.5,-190.08C1237.5,-183.01 1237.5,-172.86 1237.5,-163.99"/>
<polygon fill="midnightblue" stroke="midnightblue" points="1241,-163.75 1237.5,-153.75 1234,-163.75 1241,-163.75"/>
</g>
<!-- Node19 -->
<g id="node19" class="node">
<title>Node19</title>
<g id="a_node19"><a xlink:href="log_8h.html" target="_top" xlink:title=" ">
<polygon fill="white" stroke="black" points="953,-134.5 953,-153.5 1036,-153.5 1036,-134.5 953,-134.5"/>
<text text-anchor="middle" x="994.5" y="-141.5" font-family="Helvetica,sans-Serif" font-size="10.00">core/util/log.h</text>
</a>
</g>
</g>
<!-- Node17&#45;&gt;Node19 -->
<g id="edge21" class="edge">
<title>Node17&#45;&gt;Node19</title>
<path fill="none" stroke="midnightblue" d="M1199,-190.44C1156.69,-181.04 1088.68,-165.93 1042.83,-155.74"/>
<polygon fill="midnightblue" stroke="midnightblue" points="1043.35,-152.27 1032.82,-153.52 1041.83,-159.1 1043.35,-152.27"/>
</g>
<!-- Node19&#45;&gt;Node3 -->
<g id="edge27" class="edge">
<title>Node19&#45;&gt;Node3</title>
<path fill="none" stroke="midnightblue" d="M1014.37,-134.47C1031.91,-126.44 1057.68,-113.37 1077.5,-98 1097.63,-82.39 1095.32,-70.16 1116.5,-56 1143.85,-37.72 1179.61,-25.61 1205.15,-18.6"/>
<polygon fill="midnightblue" stroke="midnightblue" points="1206.3,-21.92 1215.08,-15.99 1204.52,-15.15 1206.3,-21.92"/>
</g>
<!-- Node20 -->
<g id="node20" class="node">
<title>Node20</title>
<g id="a_node20"><a xlink:title=" ">
<polygon fill="white" stroke="#bfbfbf" points="947.5,-67.5 947.5,-86.5 1001.5,-86.5 1001.5,-67.5 947.5,-67.5"/>
<text text-anchor="middle" x="974.5" y="-74.5" font-family="Helvetica,sans-Serif" font-size="10.00">TError.h</text>
</a>
</g>
</g>
<!-- Node19&#45;&gt;Node20 -->
<g id="edge22" class="edge">
<title>Node19&#45;&gt;Node20</title>
<path fill="none" stroke="midnightblue" d="M991.8,-134.23C988.83,-124.59 983.98,-108.8 980.16,-96.41"/>
<polygon fill="midnightblue" stroke="midnightblue" points="983.44,-95.16 977.15,-86.63 976.75,-97.21 983.44,-95.16"/>
</g>
<!-- Node21 -->
<g id="node21" class="node">
<title>Node21</title>
<g id="a_node21"><a xlink:title=" ">
<polygon fill="white" stroke="#bfbfbf" points="1125.5,-67.5 1125.5,-86.5 1171.5,-86.5 1171.5,-67.5 1125.5,-67.5"/>
<text text-anchor="middle" x="1148.5" y="-74.5" font-family="Helvetica,sans-Serif" font-size="10.00">cstdio</text>
</a>
</g>
</g>
<!-- Node19&#45;&gt;Node21 -->
<g id="edge23" class="edge">
<title>Node19&#45;&gt;Node21</title>
<path fill="none" stroke="midnightblue" d="M1019.53,-134.43C1043.49,-125.97 1080.46,-112.29 1111.5,-98 1115.79,-96.02 1120.28,-93.77 1124.59,-91.5"/>
<polygon fill="midnightblue" stroke="midnightblue" points="1126.48,-94.46 1133.6,-86.62 1123.14,-88.31 1126.48,-94.46"/>
</g>
<!-- Node22 -->
<g id="node22" class="node">
<title>Node22</title>
<g id="a_node22"><a xlink:title=" ">
<polygon fill="white" stroke="#bfbfbf" points="1020,-67.5 1020,-86.5 1069,-86.5 1069,-67.5 1020,-67.5"/>
<text text-anchor="middle" x="1044.5" y="-74.5" font-family="Helvetica,sans-Serif" font-size="10.00">cstdlib</text>
</a>
</g>
</g>
<!-- Node19&#45;&gt;Node22 -->
<g id="edge24" class="edge">
<title>Node19&#45;&gt;Node22</title>
<path fill="none" stroke="midnightblue" d="M1001.24,-134.23C1009.04,-124.1 1022.05,-107.19 1031.76,-94.56"/>
<polygon fill="midnightblue" stroke="midnightblue" points="1034.54,-96.69 1037.86,-86.63 1028.99,-92.42 1034.54,-96.69"/>
</g>
<!-- Node23 -->
<g id="node23" class="node">
<title>Node23</title>
<g id="a_node23"><a xlink:title=" ">
<polygon fill="white" stroke="#bfbfbf" points="786,-67.5 786,-86.5 851,-86.5 851,-67.5 786,-67.5"/>
<text text-anchor="middle" x="818.5" y="-74.5" font-family="Helvetica,sans-Serif" font-size="10.00">functional</text>
</a>
</g>
</g>
<!-- Node19&#45;&gt;Node23 -->
<g id="edge25" class="edge">
<title>Node19&#45;&gt;Node23</title>
<path fill="none" stroke="midnightblue" d="M965.91,-134.49C938.53,-126.09 896.22,-112.44 860.5,-98 855.26,-95.88 849.74,-93.43 844.5,-90.98"/>
<polygon fill="midnightblue" stroke="midnightblue" points="845.99,-87.81 835.46,-86.65 842.96,-94.12 845.99,-87.81"/>
</g>
<!-- Node24 -->
<g id="node24" class="node">
<title>Node24</title>
<g id="a_node24"><a xlink:title=" ">
<polygon fill="white" stroke="#bfbfbf" points="869.5,-67.5 869.5,-86.5 929.5,-86.5 929.5,-67.5 869.5,-67.5"/>
<text text-anchor="middle" x="899.5" y="-74.5" font-family="Helvetica,sans-Serif" font-size="10.00">iostream</text>
</a>
</g>
</g>
<!-- Node19&#45;&gt;Node24 -->
<g id="edge26" class="edge">
<title>Node19&#45;&gt;Node24</title>
<path fill="none" stroke="midnightblue" d="M981.69,-134.23C966.02,-123.51 939.28,-105.22 920.57,-92.41"/>
<polygon fill="midnightblue" stroke="midnightblue" points="922.34,-89.39 912.11,-86.63 918.39,-95.16 922.34,-89.39"/>
</g>
<!-- Node19&#45;&gt;Node25 -->
<g id="edge28" class="edge">
<title>Node19&#45;&gt;Node25</title>
<path fill="none" stroke="midnightblue" d="M1034.72,-134.49C1072.6,-126.19 1130.8,-112.69 1180.5,-98 1188.65,-95.59 1197.35,-92.7 1205.44,-89.88"/>
<polygon fill="midnightblue" stroke="midnightblue" points="1206.68,-93.16 1214.93,-86.51 1204.33,-86.56 1206.68,-93.16"/>
</g>
<!-- Node25&#45;&gt;Node3 -->
<g id="edge30" class="edge">
<title>Node25&#45;&gt;Node3</title>
<path fill="none" stroke="midnightblue" d="M1237.5,-67.23C1237.5,-57.68 1237.5,-42.12 1237.5,-29.78"/>
<polygon fill="midnightblue" stroke="midnightblue" points="1241,-29.63 1237.5,-19.63 1234,-29.63 1241,-29.63"/>
</g>
<!-- Node25&#45;&gt;Node4 -->
<g id="edge31" class="edge">
<title>Node25&#45;&gt;Node4</title>
<path fill="none" stroke="midnightblue" d="M1217.3,-67.43C1206.56,-63.26 1193.03,-58.6 1180.5,-56 1064.73,-32.01 697.36,-16.54 583.49,-12.23"/>
<polygon fill="midnightblue" stroke="midnightblue" points="583.4,-8.73 573.28,-11.85 583.14,-15.72 583.4,-8.73"/>
</g>
<!-- Node25&#45;&gt;Node7 -->
<g id="edge29" class="edge">
<title>Node25&#45;&gt;Node7</title>
<path fill="none" stroke="midnightblue" d="M1285.79,-69.35C1379.85,-56.4 1585.83,-28.03 1671.23,-16.27"/>
<polygon fill="midnightblue" stroke="midnightblue" points="1671.84,-19.72 1681.27,-14.89 1670.89,-12.78 1671.84,-19.72"/>
</g>
<!-- Node27&#45;&gt;Node25 -->
<g id="edge43" class="edge">
<title>Node27&#45;&gt;Node25</title>
<path fill="none" stroke="midnightblue" d="M1700.15,-313.27C1692.01,-297.73 1673.06,-265.14 1648.5,-246 1535.11,-157.65 1368.84,-108.87 1286.89,-88.9"/>
<polygon fill="midnightblue" stroke="midnightblue" points="1287.63,-85.47 1277.09,-86.54 1285.99,-92.28 1287.63,-85.47"/>
</g>
<!-- Node28 -->
<g id="node28" class="node">
<title>Node28</title>
<g id="a_node28"><a xlink:title=" ">
<polygon fill="white" stroke="#bfbfbf" points="1868,-252 1868,-271 1937,-271 1937,-252 1868,-252"/>
<text text-anchor="middle" x="1902.5" y="-259" font-family="Helvetica,sans-Serif" font-size="10.00">type_traits</text>
</a>
</g>
</g>
<!-- Node27&#45;&gt;Node28 -->
<g id="edge35" class="edge">
<title>Node27&#45;&gt;Node28</title>
<path fill="none" stroke="midnightblue" d="M1735.5,-313.42C1766.87,-304.64 1816.72,-290.42 1859.5,-277 1862.25,-276.14 1865.09,-275.23 1867.94,-274.3"/>
<polygon fill="midnightblue" stroke="midnightblue" points="1869.15,-277.58 1877.55,-271.11 1866.95,-270.94 1869.15,-277.58"/>
</g>
<!-- Node29 -->
<g id="node29" class="node">
<title>Node29</title>
<g id="a_node29"><a xlink:title=" ">
<polygon fill="white" stroke="#bfbfbf" points="1696,-252 1696,-271 1753,-271 1753,-252 1696,-252"/>
<text text-anchor="middle" x="1724.5" y="-259" font-family="Helvetica,sans-Serif" font-size="10.00">typeinfo</text>
</a>
</g>
</g>
<!-- Node27&#45;&gt;Node29 -->
<g id="edge36" class="edge">
<title>Node27&#45;&gt;Node29</title>
<path fill="none" stroke="midnightblue" d="M1707.37,-313.48C1710.22,-304.99 1714.68,-291.7 1718.34,-280.82"/>
<polygon fill="midnightblue" stroke="midnightblue" points="1721.77,-281.6 1721.64,-271.01 1715.14,-279.37 1721.77,-281.6"/>
</g>
<!-- Node30 -->
<g id="node30" class="node">
<title>Node30</title>
<g id="a_node30"><a xlink:href="math__array_8h.html" target="_top" xlink:title=" ">
<polygon fill="white" stroke="red" points="1056,-246.5 1056,-276.5 1171,-276.5 1171,-246.5 1056,-246.5"/>
<text text-anchor="start" x="1064" y="-264.5" font-family="Helvetica,sans-Serif" font-size="10.00">core/container/math</text>
<text text-anchor="middle" x="1113.5" y="-253.5" font-family="Helvetica,sans-Serif" font-size="10.00">_array.h</text>
</a>
</g>
</g>
<!-- Node27&#45;&gt;Node30 -->
<g id="edge37" class="edge">
<title>Node27&#45;&gt;Node30</title>
<path fill="none" stroke="midnightblue" d="M1659.11,-317.43C1555.89,-307.04 1303.13,-281.59 1181.32,-269.33"/>
<polygon fill="midnightblue" stroke="midnightblue" points="1181.31,-265.81 1171.01,-268.29 1180.6,-272.77 1181.31,-265.81"/>
</g>
<!-- Node38 -->
<g id="node34" class="node">
<title>Node38</title>
<g id="a_node34"><a xlink:href="shape_8h.html" target="_top" xlink:title=" ">
<polygon fill="white" stroke="black" points="1771,-252 1771,-271 1850,-271 1850,-252 1771,-252"/>
<text text-anchor="middle" x="1810.5" y="-259" font-family="Helvetica,sans-Serif" font-size="10.00">core/shape.h</text>
</a>
</g>
</g>
<!-- Node27&#45;&gt;Node38 -->
<g id="edge42" class="edge">
<title>Node27&#45;&gt;Node38</title>
<path fill="none" stroke="midnightblue" d="M1719.69,-313.48C1737.16,-303.67 1766.08,-287.43 1786.58,-275.92"/>
<polygon fill="midnightblue" stroke="midnightblue" points="1788.33,-278.96 1795.34,-271.01 1784.91,-272.85 1788.33,-278.96"/>
</g>
<!-- Node30&#45;&gt;Node17 -->
<g id="edge41" class="edge">
<title>Node30&#45;&gt;Node17</title>
<path fill="none" stroke="midnightblue" d="M1142.89,-246.4C1163.32,-236.59 1190.36,-223.62 1210.3,-214.05"/>
<polygon fill="midnightblue" stroke="midnightblue" points="1211.96,-217.14 1219.46,-209.66 1208.93,-210.83 1211.96,-217.14"/>
</g>
<!-- Node31 -->
<g id="node31" class="node">
<title>Node31</title>
<g id="a_node31"><a xlink:title=" ">
<polygon fill="white" stroke="#bfbfbf" points="1111.5,-190.5 1111.5,-209.5 1175.5,-209.5 1175.5,-190.5 1111.5,-190.5"/>
<text text-anchor="middle" x="1143.5" y="-197.5" font-family="Helvetica,sans-Serif" font-size="10.00">algorithm</text>
</a>
</g>
</g>
<!-- Node30&#45;&gt;Node31 -->
<g id="edge38" class="edge">
<title>Node30&#45;&gt;Node31</title>
<path fill="none" stroke="midnightblue" d="M1120.61,-246.4C1124.79,-238.11 1130.11,-227.55 1134.57,-218.71"/>
<polygon fill="midnightblue" stroke="midnightblue" points="1137.76,-220.16 1139.13,-209.66 1131.51,-217.01 1137.76,-220.16"/>
</g>
<!-- Node32 -->
<g id="node32" class="node">
<title>Node32</title>
<g id="a_node32"><a xlink:title=" ">
<polygon fill="white" stroke="#bfbfbf" points="775.5,-134.5 775.5,-153.5 827.5,-153.5 827.5,-134.5 775.5,-134.5"/>
<text text-anchor="middle" x="801.5" y="-141.5" font-family="Helvetica,sans-Serif" font-size="10.00">cassert</text>
</a>
</g>
</g>
<!-- Node30&#45;&gt;Node32 -->
<g id="edge39" class="edge">
<title>Node30&#45;&gt;Node32</title>
<path fill="none" stroke="midnightblue" d="M1100.3,-246.46C1084.23,-230.24 1055.48,-204 1025.5,-190 963.48,-161.04 883.3,-150.68 837.61,-147"/>
<polygon fill="midnightblue" stroke="midnightblue" points="837.82,-143.5 827.59,-146.25 837.3,-150.48 837.82,-143.5"/>
</g>
<!-- Node37 -->
<g id="node33" class="node">
<title>Node37</title>
<g id="a_node33"><a xlink:title=" ">
<polygon fill="white" stroke="#bfbfbf" points="603,-134.5 603,-153.5 648,-153.5 648,-134.5 603,-134.5"/>
<text text-anchor="middle" x="625.5" y="-141.5" font-family="Helvetica,sans-Serif" font-size="10.00">utility</text>
</a>
</g>
</g>
<!-- Node30&#45;&gt;Node37 -->
<g id="edge40" class="edge">
<title>Node30&#45;&gt;Node37</title>
<path fill="none" stroke="midnightblue" d="M1055.78,-252.12C1040.43,-250 1023.85,-247.82 1008.5,-246 927.78,-236.44 707.06,-261.9 644.5,-210 631.09,-198.87 626.84,-178.84 625.64,-163.95"/>
<polygon fill="midnightblue" stroke="midnightblue" points="629.13,-163.63 625.21,-153.79 622.13,-163.93 629.13,-163.63"/>
</g>
<!-- Node39&#45;&gt;Node3 -->
<g id="edge47" class="edge">
<title>Node39&#45;&gt;Node3</title>
<path fill="none" stroke="midnightblue" d="M880.22,-375.24C939.92,-370.87 1041.44,-359.88 1124.5,-333 1176.32,-316.23 1189.08,-308.52 1233.5,-277 1273.49,-248.62 1313.5,-250.04 1313.5,-201 1313.5,-201 1313.5,-201 1313.5,-143 1313.5,-103.42 1315.48,-89.56 1294.5,-56 1286.59,-43.35 1273.81,-32.77 1262.35,-25.06"/>
<polygon fill="midnightblue" stroke="midnightblue" points="1263.89,-21.9 1253.57,-19.51 1260.15,-27.81 1263.89,-21.9"/>
</g>
<!-- Node39&#45;&gt;Node4 -->
<g id="edge48" class="edge">
<title>Node39&#45;&gt;Node4</title>
<path fill="none" stroke="midnightblue" d="M778.97,-372.04C622.03,-353.18 153.5,-294.22 153.5,-262.5 153.5,-262.5 153.5,-262.5 153.5,-143 153.5,-88.32 191.62,-80.52 240.5,-56 288.32,-32.01 446.07,-18.26 515.82,-13.22"/>
<polygon fill="midnightblue" stroke="midnightblue" points="516.11,-16.71 525.84,-12.52 515.62,-9.73 516.11,-16.71"/>
</g>
<!-- Node39&#45;&gt;Node17 -->
<g id="edge81" class="edge">
<title>Node39&#45;&gt;Node17</title>
<path fill="none" stroke="midnightblue" d="M880.26,-370.98C972.79,-357.19 1163.58,-323.75 1209.5,-277 1224.71,-261.51 1231.76,-237.07 1234.96,-220.1"/>
<polygon fill="midnightblue" stroke="midnightblue" points="1238.49,-220.18 1236.61,-209.75 1231.58,-219.07 1238.49,-220.18"/>
</g>
<!-- Node39&#45;&gt;Node23 -->
<g id="edge46" class="edge">
<title>Node39&#45;&gt;Node23</title>
<path fill="none" stroke="midnightblue" d="M797.19,-369.43C778.22,-362.69 755.5,-351.3 742.5,-333 727.94,-312.5 736.28,-302.08 734.5,-277 733.52,-263.26 726.94,-257.52 734.5,-246 756.56,-212.38 790.26,-239.58 817.5,-210 841.09,-184.39 841.89,-168.4 836.5,-134 834.46,-120.99 829.91,-106.87 825.89,-96.06"/>
<polygon fill="midnightblue" stroke="midnightblue" points="829.06,-94.57 822.16,-86.53 822.54,-97.11 829.06,-94.57"/>
</g>
<!-- Node40 -->
<g id="node36" class="node">
<title>Node40</title>
<g id="a_node36"><a xlink:href="agent__uid_8h.html" target="_top" xlink:title=" ">
<polygon fill="white" stroke="black" points="765.5,-313.5 765.5,-332.5 893.5,-332.5 893.5,-313.5 765.5,-313.5"/>
<text text-anchor="middle" x="829.5" y="-320.5" font-family="Helvetica,sans-Serif" font-size="10.00">core/agent/agent_uid.h</text>
</a>
</g>
</g>
<!-- Node39&#45;&gt;Node40 -->
<g id="edge49" class="edge">
<title>Node39&#45;&gt;Node40</title>
<path fill="none" stroke="midnightblue" d="M829.5,-369.08C829.5,-362.01 829.5,-351.86 829.5,-342.99"/>
<polygon fill="midnightblue" stroke="midnightblue" points="833,-342.75 829.5,-332.75 826,-342.75 833,-342.75"/>
</g>
<!-- Node42 -->
<g id="node38" class="node">
<title>Node42</title>
<g id="a_node38"><a xlink:href="opencl__state_8h.html" target="_top" xlink:title=" ">
<polygon fill="white" stroke="black" points="884,-190.5 884,-209.5 1017,-209.5 1017,-190.5 884,-190.5"/>
<text text-anchor="middle" x="950.5" y="-197.5" font-family="Helvetica,sans-Serif" font-size="10.00">core/gpu/opencl_state.h</text>
</a>
</g>
</g>
<!-- Node39&#45;&gt;Node42 -->
<g id="edge52" class="edge">
<title>Node39&#45;&gt;Node42</title>
<path fill="none" stroke="midnightblue" d="M804.41,-369.48C787.83,-362.44 767.23,-350.7 756.5,-333 736.44,-299.9 728.35,-276.25 752.5,-246 761.09,-235.24 832.98,-220.85 887.68,-211.27"/>
<polygon fill="midnightblue" stroke="midnightblue" points="888.42,-214.69 897.67,-209.54 887.22,-207.79 888.42,-214.69"/>
</g>
<!-- Node43 -->
<g id="node39" class="node">
<title>Node43</title>
<g id="a_node39"><a xlink:href="memory__manager_8h.html" target="_top" xlink:title=" ">
<polygon fill="white" stroke="black" points="486.5,-246.5 486.5,-276.5 612.5,-276.5 612.5,-246.5 486.5,-246.5"/>
<text text-anchor="start" x="494.5" y="-264.5" font-family="Helvetica,sans-Serif" font-size="10.00">core/memory/memory</text>
<text text-anchor="middle" x="549.5" y="-253.5" font-family="Helvetica,sans-Serif" font-size="10.00">_manager.h</text>
</a>
</g>
</g>
<!-- Node39&#45;&gt;Node43 -->
<g id="edge54" class="edge">
<title>Node39&#45;&gt;Node43</title>
<path fill="none" stroke="midnightblue" d="M794.74,-369.49C764.32,-361.56 719.21,-348.63 681.5,-333 646.07,-318.32 607.62,-297.13 581.4,-281.82"/>
<polygon fill="midnightblue" stroke="midnightblue" points="583.06,-278.73 572.67,-276.67 579.51,-284.76 583.06,-278.73"/>
</g>
<!-- Node54 -->
<g id="node48" class="node">
<title>Node54</title>
<g id="a_node48"><a xlink:href="random_8h.html" target="_top" xlink:title=" ">
<polygon fill="white" stroke="black" points="950.5,-313.5 950.5,-332.5 1056.5,-332.5 1056.5,-313.5 950.5,-313.5"/>
<text text-anchor="middle" x="1003.5" y="-320.5" font-family="Helvetica,sans-Serif" font-size="10.00">core/util/random.h</text>
</a>
</g>
</g>
<!-- Node39&#45;&gt;Node54 -->
<g id="edge75" class="edge">
<title>Node39&#45;&gt;Node54</title>
<path fill="none" stroke="midnightblue" d="M857.07,-369.44C886.6,-360.28 933.62,-345.69 966.38,-335.52"/>
<polygon fill="midnightblue" stroke="midnightblue" points="967.54,-338.82 976.06,-332.52 965.47,-332.14 967.54,-338.82"/>
</g>
<!-- Node40&#45;&gt;Node17 -->
<g id="edge51" class="edge">
<title>Node40&#45;&gt;Node17</title>
<path fill="none" stroke="midnightblue" d="M829.27,-313.29C829.38,-297.2 832.13,-262.9 852.5,-246 907.39,-200.47 1095.48,-218.63 1183.11,-209.92"/>
<polygon fill="midnightblue" stroke="midnightblue" points="1183.76,-213.36 1193.28,-208.71 1182.94,-206.41 1183.76,-213.36"/>
</g>
<!-- Node41 -->
<g id="node37" class="node">
<title>Node41</title>
<g id="a_node37"><a xlink:title=" ">
<polygon fill="white" stroke="#bfbfbf" points="761.5,-252 761.5,-271 805.5,-271 805.5,-252 761.5,-252"/>
<text text-anchor="middle" x="783.5" y="-259" font-family="Helvetica,sans-Serif" font-size="10.00">limits</text>
</a>
</g>
</g>
<!-- Node40&#45;&gt;Node41 -->
<g id="edge50" class="edge">
<title>Node40&#45;&gt;Node41</title>
<path fill="none" stroke="midnightblue" d="M822.91,-313.48C816.01,-304.55 805,-290.31 796.37,-279.14"/>
<polygon fill="midnightblue" stroke="midnightblue" points="798.96,-276.78 790.08,-271.01 793.43,-281.06 798.96,-276.78"/>
</g>
<!-- Node42&#45;&gt;Node19 -->
<g id="edge53" class="edge">
<title>Node42&#45;&gt;Node19</title>
<path fill="none" stroke="midnightblue" d="M957.77,-190.08C964.04,-182.38 973.29,-171.03 980.93,-161.65"/>
<polygon fill="midnightblue" stroke="midnightblue" points="983.77,-163.71 987.37,-153.75 978.34,-159.29 983.77,-163.71"/>
</g>
<!-- Node43&#45;&gt;Node4 -->
<g id="edge58" class="edge">
<title>Node43&#45;&gt;Node4</title>
<path fill="none" stroke="midnightblue" d="M549.5,-246.37C549.5,-204.09 549.5,-78.49 549.5,-30.21"/>
<polygon fill="midnightblue" stroke="midnightblue" points="553,-29.93 549.5,-19.93 546,-29.93 553,-29.93"/>
</g>
<!-- Node43&#45;&gt;Node32 -->
<g id="edge55" class="edge">
<title>Node43&#45;&gt;Node32</title>
<path fill="none" stroke="midnightblue" d="M612.65,-251.78C682.36,-241.52 786.41,-224.11 798.5,-210 809.28,-197.42 808.69,-177.93 806.23,-163.57"/>
<polygon fill="midnightblue" stroke="midnightblue" points="809.65,-162.83 804.13,-153.79 802.8,-164.3 809.65,-162.83"/>
</g>
<!-- Node43&#45;&gt;Node37 -->
<g id="edge57" class="edge">
<title>Node43&#45;&gt;Node37</title>
<path fill="none" stroke="midnightblue" d="M558.82,-246.34C572.82,-225.05 599.25,-184.89 614.29,-162.03"/>
<polygon fill="midnightblue" stroke="midnightblue" points="617.22,-163.95 619.8,-153.67 611.37,-160.1 617.22,-163.95"/>
</g>
<!-- Node44 -->
<g id="node40" class="node">
<title>Node44</title>
<g id="a_node40"><a xlink:title=" ">
<polygon fill="white" stroke="#bfbfbf" points="361.5,-190.5 361.5,-209.5 393.5,-209.5 393.5,-190.5 361.5,-190.5"/>
<text text-anchor="middle" x="377.5" y="-197.5" font-family="Helvetica,sans-Serif" font-size="10.00">list</text>
</a>
</g>
</g>
<!-- Node43&#45;&gt;Node44 -->
<g id="edge56" class="edge">
<title>Node43&#45;&gt;Node44</title>
<path fill="none" stroke="midnightblue" d="M507.94,-246.4C480.6,-237.09 443.8,-224.48 403.18,-210.21"/>
<polygon fill="midnightblue" stroke="midnightblue" points="404.22,-206.86 393.63,-206.84 401.9,-213.47 404.22,-206.86"/>
</g>
<!-- Node45 -->
<g id="node41" class="node">
<title>Node45</title>
<g id="a_node41"><a xlink:href="flatmap_8h.html" target="_top" xlink:title=" ">
<polygon fill="white" stroke="red" points="653.5,-190.5 653.5,-209.5 789.5,-209.5 789.5,-190.5 653.5,-190.5"/>
<text text-anchor="middle" x="721.5" y="-197.5" font-family="Helvetica,sans-Serif" font-size="10.00">core/container/flatmap.h</text>
</a>
</g>
</g>
<!-- Node43&#45;&gt;Node45 -->
<g id="edge59" class="edge">
<title>Node43&#45;&gt;Node45</title>
<path fill="none" stroke="midnightblue" d="M590.26,-246.4C619.72,-236.21 659.09,-222.59 687,-212.93"/>
<polygon fill="midnightblue" stroke="midnightblue" points="688.42,-216.15 696.72,-209.57 686.13,-209.53 688.42,-216.15"/>
</g>
<!-- Node48 -->
<g id="node42" class="node">
<title>Node48</title>
<g id="a_node42"><a xlink:href="numa_8h.html" target="_top" xlink:title=" ">
<polygon fill="white" stroke="black" points="329.5,-134.5 329.5,-153.5 425.5,-153.5 425.5,-134.5 329.5,-134.5"/>
<text text-anchor="middle" x="377.5" y="-141.5" font-family="Helvetica,sans-Serif" font-size="10.00">core/util/numa.h</text>
</a>
</g>
</g>
<!-- Node43&#45;&gt;Node48 -->
<g id="edge64" class="edge">
<title>Node43&#45;&gt;Node48</title>
<path fill="none" stroke="midnightblue" d="M486.27,-252.73C435.1,-244.98 368.92,-231.16 352.5,-210 341.33,-195.6 351.98,-175.63 362.62,-161.63"/>
<polygon fill="midnightblue" stroke="midnightblue" points="365.42,-163.75 369.06,-153.8 360.01,-159.3 365.42,-163.75"/>
</g>
<!-- Node50 -->
<g id="node44" class="node">
<title>Node50</title>
<g id="a_node44"><a xlink:href="spinlock_8h.html" target="_top" xlink:title=" ">
<polygon fill="white" stroke="black" points="412,-190.5 412,-209.5 521,-209.5 521,-190.5 412,-190.5"/>
<text text-anchor="middle" x="466.5" y="-197.5" font-family="Helvetica,sans-Serif" font-size="10.00">core/util/spinlock.h</text>
</a>
</g>
</g>
<!-- Node43&#45;&gt;Node50 -->
<g id="edge66" class="edge">
<title>Node43&#45;&gt;Node50</title>
<path fill="none" stroke="midnightblue" d="M529.83,-246.4C516.9,-237.13 500.01,-225.03 486.93,-215.65"/>
<polygon fill="midnightblue" stroke="midnightblue" points="488.74,-212.64 478.58,-209.66 484.67,-218.33 488.74,-212.64"/>
</g>
<!-- Node43&#45;&gt;Node52 -->
<g id="edge68" class="edge">
<title>Node43&#45;&gt;Node52</title>
<path fill="none" stroke="midnightblue" d="M486.47,-248.24C430.75,-237.41 350.34,-221.77 297.51,-211.5"/>
<polygon fill="midnightblue" stroke="midnightblue" points="298.14,-208.06 287.66,-209.59 296.81,-214.93 298.14,-208.06"/>
</g>
<!-- Node45&#45;&gt;Node4 -->
<g id="edge62" class="edge">
<title>Node45&#45;&gt;Node4</title>
<path fill="none" stroke="midnightblue" d="M713.66,-190.43C687.02,-161.32 599.67,-65.84 564.44,-27.32"/>
<polygon fill="midnightblue" stroke="midnightblue" points="566.72,-24.63 557.38,-19.62 561.55,-29.36 566.72,-24.63"/>
</g>
<!-- Node45&#45;&gt;Node25 -->
<g id="edge63" class="edge">
<title>Node45&#45;&gt;Node25</title>
<path fill="none" stroke="midnightblue" d="M789.54,-194.23C855.54,-188.5 958.11,-176.68 1044.5,-154 1105.63,-137.95 1173.65,-108.19 1210.38,-91.06"/>
<polygon fill="midnightblue" stroke="midnightblue" points="1212.33,-94.01 1219.88,-86.58 1209.34,-87.68 1212.33,-94.01"/>
</g>
<!-- Node45&#45;&gt;Node32 -->
<g id="edge60" class="edge">
<title>Node45&#45;&gt;Node32</title>
<path fill="none" stroke="midnightblue" d="M734.35,-190.32C746.72,-181.98 765.63,-169.21 780.24,-159.35"/>
<polygon fill="midnightblue" stroke="midnightblue" points="782.35,-162.15 788.68,-153.65 778.43,-156.35 782.35,-162.15"/>
</g>
<!-- Node45&#45;&gt;Node37 -->
<g id="edge61" class="edge">
<title>Node45&#45;&gt;Node37</title>
<path fill="none" stroke="midnightblue" d="M706.08,-190.32C690.96,-181.82 667.68,-168.73 650.03,-158.8"/>
<polygon fill="midnightblue" stroke="midnightblue" points="651.32,-155.51 640.89,-153.65 647.89,-161.61 651.32,-155.51"/>
</g>
<!-- Node49 -->
<g id="node43" class="node">
<title>Node49</title>
<g id="a_node43"><a xlink:title=" ">
<polygon fill="white" stroke="#bfbfbf" points="287,-67.5 287,-86.5 334,-86.5 334,-67.5 287,-67.5"/>
<text text-anchor="middle" x="310.5" y="-74.5" font-family="Helvetica,sans-Serif" font-size="10.00">omp.h</text>
</a>
</g>
</g>
<!-- Node48&#45;&gt;Node49 -->
<g id="edge65" class="edge">
<title>Node48&#45;&gt;Node49</title>
<path fill="none" stroke="midnightblue" d="M368.46,-134.23C357.82,-123.9 339.92,-106.54 326.82,-93.83"/>
<polygon fill="midnightblue" stroke="midnightblue" points="329.01,-91.08 319.39,-86.63 324.13,-96.1 329.01,-91.08"/>
</g>
<!-- Node51 -->
<g id="node45" class="node">
<title>Node51</title>
<g id="a_node45"><a xlink:title=" ">
<polygon fill="white" stroke="#bfbfbf" points="443.5,-134.5 443.5,-153.5 493.5,-153.5 493.5,-134.5 443.5,-134.5"/>
<text text-anchor="middle" x="468.5" y="-141.5" font-family="Helvetica,sans-Serif" font-size="10.00">atomic</text>
</a>
</g>
</g>
<!-- Node50&#45;&gt;Node51 -->
<g id="edge67" class="edge">
<title>Node50&#45;&gt;Node51</title>
<path fill="none" stroke="midnightblue" d="M466.83,-190.08C467.09,-183.01 467.47,-172.86 467.8,-163.99"/>
<polygon fill="midnightblue" stroke="midnightblue" points="471.3,-163.87 468.18,-153.75 464.31,-163.61 471.3,-163.87"/>
</g>
<!-- Node52&#45;&gt;Node4 -->
<g id="edge72" class="edge">
<title>Node52&#45;&gt;Node4</title>
<path fill="none" stroke="midnightblue" d="M242.51,-190.39C241.52,-181.34 240.06,-166.69 239.5,-154 237.43,-107.33 240.05,-83.92 277.5,-56 314.67,-28.29 451.33,-16.75 515.63,-12.77"/>
<polygon fill="midnightblue" stroke="midnightblue" points="515.89,-16.26 525.67,-12.18 515.48,-9.28 515.89,-16.26"/>
</g>
<!-- Node52&#45;&gt;Node19 -->
<g id="edge73" class="edge">
<title>Node52&#45;&gt;Node19</title>
<path fill="none" stroke="midnightblue" d="M305.74,-193.73C321.03,-192.47 337.35,-191.16 352.5,-190 571.86,-173.26 833.57,-155.65 942.72,-148.41"/>
<polygon fill="midnightblue" stroke="midnightblue" points="943.05,-151.9 952.8,-147.74 942.59,-144.91 943.05,-151.9"/>
</g>
<!-- Node52&#45;&gt;Node48 -->
<g id="edge74" class="edge">
<title>Node52&#45;&gt;Node48</title>
<path fill="none" stroke="midnightblue" d="M264.73,-190.44C286.88,-181.52 321.82,-167.44 346.94,-157.32"/>
<polygon fill="midnightblue" stroke="midnightblue" points="348.4,-160.5 356.37,-153.52 345.78,-154.01 348.4,-160.5"/>
</g>
<!-- Node52&#45;&gt;Node49 -->
<g id="edge69" class="edge">
<title>Node52&#45;&gt;Node49</title>
<path fill="none" stroke="midnightblue" d="M242.24,-190.48C240.72,-177.54 239.42,-152.49 248.5,-134 257,-116.7 273.38,-102.27 287.17,-92.39"/>
<polygon fill="midnightblue" stroke="midnightblue" points="289.44,-95.08 295.75,-86.58 285.51,-89.29 289.44,-95.08"/>
</g>
<!-- Node52&#45;&gt;Node51 -->
<g id="edge71" class="edge">
<title>Node52&#45;&gt;Node51</title>
<path fill="none" stroke="midnightblue" d="M281.26,-190.42C317.81,-182.05 375.02,-168.76 433.49,-154.2"/>
<polygon fill="midnightblue" stroke="midnightblue" points="434.42,-157.58 443.27,-151.76 432.72,-150.79 434.42,-157.58"/>
</g>
<!-- Node53 -->
<g id="node47" class="node">
<title>Node53</title>
<g id="a_node47"><a xlink:title=" ">
<polygon fill="white" stroke="#bfbfbf" points="257.5,-134.5 257.5,-153.5 311.5,-153.5 311.5,-134.5 257.5,-134.5"/>
<text text-anchor="middle" x="284.5" y="-141.5" font-family="Helvetica,sans-Serif" font-size="10.00">sched.h</text>
</a>
</g>
</g>
<!-- Node52&#45;&gt;Node53 -->
<g id="edge70" class="edge">
<title>Node52&#45;&gt;Node53</title>
<path fill="none" stroke="midnightblue" d="M250.27,-190.08C256.06,-182.46 264.56,-171.26 271.64,-161.94"/>
<polygon fill="midnightblue" stroke="midnightblue" points="274.6,-163.83 277.86,-153.75 269.02,-159.6 274.6,-163.83"/>
</g>
<!-- Node54&#45;&gt;Node17 -->
<g id="edge80" class="edge">
<title>Node54&#45;&gt;Node17</title>
<path fill="none" stroke="midnightblue" d="M1056.88,-317.61C1093.85,-312.46 1142.81,-301.28 1179.5,-277 1201.72,-262.3 1218.87,-236.16 1228.58,-218.7"/>
<polygon fill="midnightblue" stroke="midnightblue" points="1231.83,-220.05 1233.42,-209.58 1225.64,-216.77 1231.83,-220.05"/>
</g>
<!-- Node54&#45;&gt;Node21 -->
<g id="edge77" class="edge">
<title>Node54&#45;&gt;Node21</title>
<path fill="none" stroke="midnightblue" d="M1008.44,-313.06C1016.35,-298.8 1032.39,-270.06 1046.5,-246 1079.05,-190.49 1119,-125.59 1137.78,-95.26"/>
<polygon fill="midnightblue" stroke="midnightblue" points="1140.8,-97.03 1143.1,-86.69 1134.85,-93.34 1140.8,-97.03"/>
</g>
<!-- Node54&#45;&gt;Node30 -->
<g id="edge79" class="edge">
<title>Node54&#45;&gt;Node30</title>
<path fill="none" stroke="midnightblue" d="M1019.26,-313.48C1034.72,-305.12 1058.8,-292.09 1078.75,-281.3"/>
<polygon fill="midnightblue" stroke="midnightblue" points="1080.44,-284.36 1087.58,-276.52 1077.11,-278.2 1080.44,-284.36"/>
</g>
<!-- Node55 -->
<g id="node49" class="node">
<title>Node55</title>
<g id="a_node49"><a xlink:title=" ">
<polygon fill="white" stroke="#bfbfbf" points="957.5,-252 957.5,-271 999.5,-271 999.5,-252 957.5,-252"/>
<text text-anchor="middle" x="978.5" y="-259" font-family="Helvetica,sans-Serif" font-size="10.00">array</text>
</a>
</g>
</g>
<!-- Node54&#45;&gt;Node55 -->
<g id="edge76" class="edge">
<title>Node54&#45;&gt;Node55</title>
<path fill="none" stroke="midnightblue" d="M999.92,-313.48C996.32,-304.9 990.65,-291.43 986.06,-280.48"/>
<polygon fill="midnightblue" stroke="midnightblue" points="989.18,-278.87 982.08,-271.01 982.72,-281.58 989.18,-278.87"/>
</g>
<!-- Node56 -->
<g id="node50" class="node">
<title>Node56</title>
<g id="a_node50"><a xlink:title=" ">
<polygon fill="white" stroke="#bfbfbf" points="861.5,-252 861.5,-271 939.5,-271 939.5,-252 861.5,-252"/>
<text text-anchor="middle" x="900.5" y="-259" font-family="Helvetica,sans-Serif" font-size="10.00">TRandom3.h</text>
</a>
</g>
</g>
<!-- Node54&#45;&gt;Node56 -->
<g id="edge78" class="edge">
<title>Node54&#45;&gt;Node56</title>
<path fill="none" stroke="midnightblue" d="M988.74,-313.48C971.84,-303.71 943.92,-287.58 924.01,-276.08"/>
<polygon fill="midnightblue" stroke="midnightblue" points="925.64,-272.98 915.23,-271.01 922.14,-279.04 925.64,-272.98"/>
</g>
</g>
</svg>
