<?xml version="1.0" encoding="UTF-8" standalone="no"?>
<!DOCTYPE svg PUBLIC "-//W3C//DTD SVG 1.1//EN"
 "http://www.w3.org/Graphics/SVG/1.1/DTD/svg11.dtd">
<!-- Generated by graphviz version 2.43.0 (0)
 -->
<!-- Title: core/util/random.cc Pages: 1 -->
<svg width="1755pt" height="431pt"
 viewBox="0.00 0.00 1755.00 431.00" xmlns="http://www.w3.org/2000/svg" xmlns:xlink="http://www.w3.org/1999/xlink">
<g id="graph0" class="graph" transform="scale(1 1) rotate(0) translate(4 427)">
<title>core/util/random.cc</title>
<polygon fill="white" stroke="transparent" points="-4,4 -4,-427 1751,-427 1751,4 -4,4"/>
<!-- Node1 -->
<g id="node1" class="node">
<title>Node1</title>
<g id="a_node1"><a xlink:title=" ">
<polygon fill="#bfbfbf" stroke="black" points="966.5,-403.5 966.5,-422.5 1076.5,-422.5 1076.5,-403.5 966.5,-403.5"/>
<text text-anchor="middle" x="1021.5" y="-410.5" font-family="Helvetica,sans-Serif" font-size="10.00">core/util/random.cc</text>
</a>
</g>
</g>
<!-- Node2 -->
<g id="node2" class="node">
<title>Node2</title>
<g id="a_node2"><a xlink:href="random_8h.html" target="_top" xlink:title=" ">
<polygon fill="white" stroke="black" points="565.5,-291.5 565.5,-310.5 671.5,-310.5 671.5,-291.5 565.5,-291.5"/>
<text text-anchor="middle" x="618.5" y="-298.5" font-family="Helvetica,sans-Serif" font-size="10.00">core/util/random.h</text>
</a>
</g>
</g>
<!-- Node1&#45;&gt;Node2 -->
<g id="edge1" class="edge">
<title>Node1&#45;&gt;Node2</title>
<path fill="none" stroke="midnightblue" d="M985.33,-403.47C948.71,-394.73 890.51,-380.53 840.5,-367 775.4,-349.39 700.19,-326.91 656.14,-313.53"/>
<polygon fill="midnightblue" stroke="midnightblue" points="657.02,-310.14 646.43,-310.58 654.98,-316.84 657.02,-310.14"/>
</g>
<!-- Node28 -->
<g id="node28" class="node">
<title>Node28</title>
<g id="a_node28"><a xlink:title=" ">
<polygon fill="white" stroke="#bfbfbf" points="968.5,-347.5 968.5,-366.5 1012.5,-366.5 1012.5,-347.5 968.5,-347.5"/>
<text text-anchor="middle" x="990.5" y="-354.5" font-family="Helvetica,sans-Serif" font-size="10.00">TF1.h</text>
</a>
</g>
</g>
<!-- Node1&#45;&gt;Node28 -->
<g id="edge32" class="edge">
<title>Node1&#45;&gt;Node28</title>
<path fill="none" stroke="midnightblue" d="M1016.38,-403.08C1012.09,-395.61 1005.84,-384.72 1000.56,-375.52"/>
<polygon fill="midnightblue" stroke="midnightblue" points="1003.54,-373.68 995.52,-366.75 997.47,-377.17 1003.54,-373.68"/>
</g>
<!-- Node29 -->
<g id="node29" class="node">
<title>Node29</title>
<g id="a_node29"><a xlink:title=" ">
<polygon fill="white" stroke="#bfbfbf" points="1030.5,-347.5 1030.5,-366.5 1074.5,-366.5 1074.5,-347.5 1030.5,-347.5"/>
<text text-anchor="middle" x="1052.5" y="-354.5" font-family="Helvetica,sans-Serif" font-size="10.00">TF2.h</text>
</a>
</g>
</g>
<!-- Node1&#45;&gt;Node29 -->
<g id="edge33" class="edge">
<title>Node1&#45;&gt;Node29</title>
<path fill="none" stroke="midnightblue" d="M1026.62,-403.08C1030.91,-395.61 1037.16,-384.72 1042.44,-375.52"/>
<polygon fill="midnightblue" stroke="midnightblue" points="1045.53,-377.17 1047.48,-366.75 1039.46,-373.68 1045.53,-377.17"/>
</g>
<!-- Node30 -->
<g id="node30" class="node">
<title>Node30</title>
<g id="a_node30"><a xlink:title=" ">
<polygon fill="white" stroke="#bfbfbf" points="1092.5,-347.5 1092.5,-366.5 1136.5,-366.5 1136.5,-347.5 1092.5,-347.5"/>
<text text-anchor="middle" x="1114.5" y="-354.5" font-family="Helvetica,sans-Serif" font-size="10.00">TF3.h</text>
</a>
</g>
</g>
<!-- Node1&#45;&gt;Node30 -->
<g id="edge34" class="edge">
<title>Node1&#45;&gt;Node30</title>
<path fill="none" stroke="midnightblue" d="M1036.44,-403.32C1051.09,-394.82 1073.63,-381.73 1090.74,-371.8"/>
<polygon fill="midnightblue" stroke="midnightblue" points="1092.7,-374.7 1099.6,-366.65 1089.19,-368.65 1092.7,-374.7"/>
</g>
<!-- Node31 -->
<g id="node31" class="node">
<title>Node31</title>
<g id="a_node31"><a xlink:title=" ">
<polygon fill="white" stroke="#bfbfbf" points="1154.5,-347.5 1154.5,-366.5 1232.5,-366.5 1232.5,-347.5 1154.5,-347.5"/>
<text text-anchor="middle" x="1193.5" y="-354.5" font-family="Helvetica,sans-Serif" font-size="10.00">TRandom3.h</text>
</a>
</g>
</g>
<!-- Node1&#45;&gt;Node31 -->
<g id="edge35" class="edge">
<title>Node1&#45;&gt;Node31</title>
<path fill="none" stroke="midnightblue" d="M1048.75,-403.44C1077.94,-394.28 1124.42,-379.69 1156.81,-369.52"/>
<polygon fill="midnightblue" stroke="midnightblue" points="1157.88,-372.85 1166.37,-366.52 1155.78,-366.17 1157.88,-372.85"/>
</g>
<!-- Node32 -->
<g id="node32" class="node">
<title>Node32</title>
<g id="a_node32"><a xlink:href="simulation_8h.html" target="_top" xlink:title=" ">
<polygon fill="white" stroke="black" points="849,-347.5 849,-366.5 950,-366.5 950,-347.5 849,-347.5"/>
<text text-anchor="middle" x="899.5" y="-354.5" font-family="Helvetica,sans-Serif" font-size="10.00">core/simulation.h</text>
</a>
</g>
</g>
<!-- Node1&#45;&gt;Node32 -->
<g id="edge36" class="edge">
<title>Node1&#45;&gt;Node32</title>
<path fill="none" stroke="midnightblue" d="M1002.17,-403.44C982.18,-394.6 950.76,-380.69 927.94,-370.59"/>
<polygon fill="midnightblue" stroke="midnightblue" points="929.3,-367.36 918.74,-366.52 926.47,-373.76 929.3,-367.36"/>
</g>
<!-- Node3 -->
<g id="node3" class="node">
<title>Node3</title>
<g id="a_node3"><a xlink:title=" ">
<polygon fill="white" stroke="#bfbfbf" points="556,-230 556,-249 649,-249 649,-230 556,-230"/>
<text text-anchor="middle" x="602.5" y="-237" font-family="Helvetica,sans-Serif" font-size="10.00">unordered_map</text>
</a>
</g>
</g>
<!-- Node2&#45;&gt;Node3 -->
<g id="edge2" class="edge">
<title>Node2&#45;&gt;Node3</title>
<path fill="none" stroke="midnightblue" d="M616.21,-291.48C613.93,-282.99 610.35,-269.7 607.43,-258.82"/>
<polygon fill="midnightblue" stroke="midnightblue" points="610.76,-257.76 604.79,-249.01 604.01,-259.57 610.76,-257.76"/>
</g>
<!-- Node4 -->
<g id="node4" class="node">
<title>Node4</title>
<g id="a_node4"><a xlink:href="fixed__size__vector_8h.html" target="_top" xlink:title=" ">
<polygon fill="white" stroke="black" points="93,-224.5 93,-254.5 206,-254.5 206,-224.5 93,-224.5"/>
<text text-anchor="start" x="101" y="-242.5" font-family="Helvetica,sans-Serif" font-size="10.00">core/container/fixed</text>
<text text-anchor="middle" x="149.5" y="-231.5" font-family="Helvetica,sans-Serif" font-size="10.00">_size_vector.h</text>
</a>
</g>
</g>
<!-- Node2&#45;&gt;Node4 -->
<g id="edge3" class="edge">
<title>Node2&#45;&gt;Node4</title>
<path fill="none" stroke="midnightblue" d="M565.16,-293.23C479.1,-282.31 309.82,-260.84 216.02,-248.94"/>
<polygon fill="midnightblue" stroke="midnightblue" points="216.43,-245.46 206.07,-247.68 215.55,-252.41 216.43,-245.46"/>
</g>
<!-- Node9 -->
<g id="node9" class="node">
<title>Node9</title>
<g id="a_node9"><a xlink:href="math__array_8h.html" target="_top" xlink:title=" ">
<polygon fill="white" stroke="black" points="423,-224.5 423,-254.5 538,-254.5 538,-224.5 423,-224.5"/>
<text text-anchor="start" x="431" y="-242.5" font-family="Helvetica,sans-Serif" font-size="10.00">core/container/math</text>
<text text-anchor="middle" x="480.5" y="-231.5" font-family="Helvetica,sans-Serif" font-size="10.00">_array.h</text>
</a>
</g>
</g>
<!-- Node2&#45;&gt;Node9 -->
<g id="edge8" class="edge">
<title>Node2&#45;&gt;Node9</title>
<path fill="none" stroke="midnightblue" d="M598.73,-291.48C578.9,-282.93 547.76,-269.5 522.42,-258.57"/>
<polygon fill="midnightblue" stroke="midnightblue" points="523.59,-255.27 513.02,-254.52 520.82,-261.7 523.59,-255.27"/>
</g>
<!-- Node26 -->
<g id="node26" class="node">
<title>Node26</title>
<g id="a_node26"><a xlink:href="root_8h.html" target="_top" xlink:title=" ">
<polygon fill="white" stroke="black" points="671.5,-168.5 671.5,-187.5 759.5,-187.5 759.5,-168.5 671.5,-168.5"/>
<text text-anchor="middle" x="715.5" y="-175.5" font-family="Helvetica,sans-Serif" font-size="10.00">core/util/root.h</text>
</a>
</g>
</g>
<!-- Node2&#45;&gt;Node26 -->
<g id="edge31" class="edge">
<title>Node2&#45;&gt;Node26</title>
<path fill="none" stroke="midnightblue" d="M626.69,-291.23C634.94,-282.29 647.92,-267.95 658.5,-255 674.73,-235.14 692.27,-211.37 703.54,-195.76"/>
<polygon fill="midnightblue" stroke="midnightblue" points="706.41,-197.77 709.4,-187.61 700.72,-193.69 706.41,-197.77"/>
</g>
<!-- Node5 -->
<g id="node5" class="node">
<title>Node5</title>
<g id="a_node5"><a xlink:title=" ">
<polygon fill="white" stroke="#bfbfbf" points="177.5,-168.5 177.5,-187.5 241.5,-187.5 241.5,-168.5 177.5,-168.5"/>
<text text-anchor="middle" x="209.5" y="-175.5" font-family="Helvetica,sans-Serif" font-size="10.00">algorithm</text>
</a>
</g>
</g>
<!-- Node4&#45;&gt;Node5 -->
<g id="edge4" class="edge">
<title>Node4&#45;&gt;Node5</title>
<path fill="none" stroke="midnightblue" d="M163.72,-224.4C172.71,-215.49 184.34,-203.95 193.63,-194.74"/>
<polygon fill="midnightblue" stroke="midnightblue" points="196.13,-197.18 200.77,-187.66 191.2,-192.21 196.13,-197.18"/>
</g>
<!-- Node6 -->
<g id="node6" class="node">
<title>Node6</title>
<g id="a_node6"><a xlink:title=" ">
<polygon fill="white" stroke="#bfbfbf" points="628.5,-112.5 628.5,-131.5 680.5,-131.5 680.5,-112.5 628.5,-112.5"/>
<text text-anchor="middle" x="654.5" y="-119.5" font-family="Helvetica,sans-Serif" font-size="10.00">cassert</text>
</a>
</g>
</g>
<!-- Node4&#45;&gt;Node6 -->
<g id="edge5" class="edge">
<title>Node4&#45;&gt;Node6</title>
<path fill="none" stroke="midnightblue" d="M148.88,-224.35C149.02,-208.03 152.03,-181.7 168.5,-168 205.34,-137.37 536.62,-139.96 618.09,-131.59"/>
<polygon fill="midnightblue" stroke="midnightblue" points="618.77,-135.03 628.23,-130.27 617.86,-128.09 618.77,-135.03"/>
</g>
<!-- Node7 -->
<g id="node7" class="node">
<title>Node7</title>
<g id="a_node7"><a xlink:title=" ">
<polygon fill="white" stroke="#bfbfbf" points="284,-112.5 284,-131.5 337,-131.5 337,-112.5 284,-112.5"/>
<text text-anchor="middle" x="310.5" y="-119.5" font-family="Helvetica,sans-Serif" font-size="10.00">cstddef</text>
</a>
</g>
</g>
<!-- Node4&#45;&gt;Node7 -->
<g id="edge6" class="edge">
<title>Node4&#45;&gt;Node7</title>
<path fill="none" stroke="midnightblue" d="M140.67,-224.28C132.35,-208.86 122.88,-184.27 135.5,-168 152.3,-146.34 227.73,-133.28 273.91,-127.17"/>
<polygon fill="midnightblue" stroke="midnightblue" points="274.36,-130.64 283.84,-125.91 273.48,-123.7 274.36,-130.64"/>
</g>
<!-- Node8 -->
<g id="node8" class="node">
<title>Node8</title>
<g id="a_node8"><a xlink:title=" ">
<polygon fill="white" stroke="#bfbfbf" points="0,-168.5 0,-187.5 83,-187.5 83,-168.5 0,-168.5"/>
<text text-anchor="middle" x="41.5" y="-175.5" font-family="Helvetica,sans-Serif" font-size="10.00">initializer_list</text>
</a>
</g>
</g>
<!-- Node4&#45;&gt;Node8 -->
<g id="edge7" class="edge">
<title>Node4&#45;&gt;Node8</title>
<path fill="none" stroke="midnightblue" d="M123.91,-224.4C106.43,-214.77 83.41,-202.09 66.14,-192.58"/>
<polygon fill="midnightblue" stroke="midnightblue" points="67.66,-189.42 57.21,-187.66 64.28,-195.55 67.66,-189.42"/>
</g>
<!-- Node9&#45;&gt;Node5 -->
<g id="edge9" class="edge">
<title>Node9&#45;&gt;Node5</title>
<path fill="none" stroke="midnightblue" d="M422.7,-225.81C371.39,-214.54 297.64,-198.35 251.7,-188.27"/>
<polygon fill="midnightblue" stroke="midnightblue" points="252.3,-184.81 241.78,-186.09 250.8,-191.65 252.3,-184.81"/>
</g>
<!-- Node9&#45;&gt;Node6 -->
<g id="edge10" class="edge">
<title>Node9&#45;&gt;Node6</title>
<path fill="none" stroke="midnightblue" d="M517.39,-224.36C538.52,-215.44 565.02,-202.81 586.5,-188 606.95,-173.89 627.11,-153.6 640.1,-139.45"/>
<polygon fill="midnightblue" stroke="midnightblue" points="642.79,-141.7 646.87,-131.92 637.58,-137.02 642.79,-141.7"/>
</g>
<!-- Node10 -->
<g id="node10" class="node">
<title>Node10</title>
<g id="a_node10"><a xlink:title=" ">
<polygon fill="white" stroke="#bfbfbf" points="530,-168.5 530,-187.5 577,-187.5 577,-168.5 530,-168.5"/>
<text text-anchor="middle" x="553.5" y="-175.5" font-family="Helvetica,sans-Serif" font-size="10.00">cmath</text>
</a>
</g>
</g>
<!-- Node9&#45;&gt;Node10 -->
<g id="edge11" class="edge">
<title>Node9&#45;&gt;Node10</title>
<path fill="none" stroke="midnightblue" d="M497.8,-224.4C508.95,-215.31 523.45,-203.49 534.86,-194.19"/>
<polygon fill="midnightblue" stroke="midnightblue" points="537.34,-196.69 542.88,-187.66 532.92,-191.26 537.34,-196.69"/>
</g>
<!-- Node11 -->
<g id="node11" class="node">
<title>Node11</title>
<g id="a_node11"><a xlink:title=" ">
<polygon fill="white" stroke="#bfbfbf" points="297.5,-168.5 297.5,-187.5 353.5,-187.5 353.5,-168.5 297.5,-168.5"/>
<text text-anchor="middle" x="325.5" y="-175.5" font-family="Helvetica,sans-Serif" font-size="10.00">numeric</text>
</a>
</g>
</g>
<!-- Node9&#45;&gt;Node11 -->
<g id="edge12" class="edge">
<title>Node9&#45;&gt;Node11</title>
<path fill="none" stroke="midnightblue" d="M443.77,-224.4C417.53,-214.33 382.57,-200.91 357.48,-191.28"/>
<polygon fill="midnightblue" stroke="midnightblue" points="358.64,-187.97 348.05,-187.66 356.14,-194.51 358.64,-187.97"/>
</g>
<!-- Node12 -->
<g id="node12" class="node">
<title>Node12</title>
<g id="a_node12"><a xlink:title=" ">
<polygon fill="white" stroke="#bfbfbf" points="372,-168.5 372,-187.5 429,-187.5 429,-168.5 372,-168.5"/>
<text text-anchor="middle" x="400.5" y="-175.5" font-family="Helvetica,sans-Serif" font-size="10.00">ostream</text>
</a>
</g>
</g>
<!-- Node9&#45;&gt;Node12 -->
<g id="edge13" class="edge">
<title>Node9&#45;&gt;Node12</title>
<path fill="none" stroke="midnightblue" d="M461.54,-224.4C449.08,-215.13 432.8,-203.03 420.19,-193.65"/>
<polygon fill="midnightblue" stroke="midnightblue" points="422.25,-190.82 412.14,-187.66 418.08,-196.43 422.25,-190.82"/>
</g>
<!-- Node13 -->
<g id="node13" class="node">
<title>Node13</title>
<g id="a_node13"><a xlink:title=" ">
<polygon fill="white" stroke="#bfbfbf" points="447,-168.5 447,-187.5 512,-187.5 512,-168.5 447,-168.5"/>
<text text-anchor="middle" x="479.5" y="-175.5" font-family="Helvetica,sans-Serif" font-size="10.00">stdexcept</text>
</a>
</g>
</g>
<!-- Node9&#45;&gt;Node13 -->
<g id="edge14" class="edge">
<title>Node9&#45;&gt;Node13</title>
<path fill="none" stroke="midnightblue" d="M480.26,-224.4C480.13,-216.47 479.96,-206.46 479.82,-197.86"/>
<polygon fill="midnightblue" stroke="midnightblue" points="483.31,-197.6 479.65,-187.66 476.31,-197.72 483.31,-197.6"/>
</g>
<!-- Node14 -->
<g id="node14" class="node">
<title>Node14</title>
<g id="a_node14"><a xlink:title=" ">
<polygon fill="white" stroke="#bfbfbf" points="972,-112.5 972,-131.5 1017,-131.5 1017,-112.5 972,-112.5"/>
<text text-anchor="middle" x="994.5" y="-119.5" font-family="Helvetica,sans-Serif" font-size="10.00">utility</text>
</a>
</g>
</g>
<!-- Node9&#45;&gt;Node14 -->
<g id="edge15" class="edge">
<title>Node9&#45;&gt;Node14</title>
<path fill="none" stroke="midnightblue" d="M517.83,-224.39C544.29,-214.35 580.62,-200.47 612.5,-188 634.79,-179.28 639.36,-174.1 662.5,-168 769.95,-139.69 901.91,-128.57 961.96,-124.75"/>
<polygon fill="midnightblue" stroke="midnightblue" points="962.22,-128.25 971.98,-124.14 961.79,-121.26 962.22,-128.25"/>
</g>
<!-- Node15 -->
<g id="node15" class="node">
<title>Node15</title>
<g id="a_node15"><a xlink:href="real__t_8h.html" target="_top" xlink:title=" ">
<polygon fill="white" stroke="black" points="778,-168.5 778,-187.5 855,-187.5 855,-168.5 778,-168.5"/>
<text text-anchor="middle" x="816.5" y="-175.5" font-family="Helvetica,sans-Serif" font-size="10.00">core/real_t.h</text>
</a>
</g>
</g>
<!-- Node9&#45;&gt;Node15 -->
<g id="edge16" class="edge">
<title>Node9&#45;&gt;Node15</title>
<path fill="none" stroke="midnightblue" d="M538.21,-225.81C541.35,-225.18 544.46,-224.58 547.5,-224 642.13,-206.07 668.78,-205.21 767.62,-188.11"/>
<polygon fill="midnightblue" stroke="midnightblue" points="768.49,-191.51 777.74,-186.35 767.29,-184.62 768.49,-191.51"/>
</g>
<!-- Node16 -->
<g id="node16" class="node">
<title>Node16</title>
<g id="a_node16"><a xlink:href="log_8h.html" target="_top" xlink:title=" ">
<polygon fill="white" stroke="black" points="699,-112.5 699,-131.5 782,-131.5 782,-112.5 699,-112.5"/>
<text text-anchor="middle" x="740.5" y="-119.5" font-family="Helvetica,sans-Serif" font-size="10.00">core/util/log.h</text>
</a>
</g>
</g>
<!-- Node9&#45;&gt;Node16 -->
<g id="edge17" class="edge">
<title>Node9&#45;&gt;Node16</title>
<path fill="none" stroke="midnightblue" d="M422.71,-235.59C351.99,-230.01 246.51,-213.93 288.5,-168 317.15,-136.66 612.76,-137.69 688.59,-131.69"/>
<polygon fill="midnightblue" stroke="midnightblue" points="689.2,-135.14 698.8,-130.66 688.5,-128.18 689.2,-135.14"/>
</g>
<!-- Node9&#45;&gt;Node26 -->
<g id="edge28" class="edge">
<title>Node9&#45;&gt;Node26</title>
<path fill="none" stroke="midnightblue" d="M535.89,-224.47C577.5,-213.94 633.68,-199.72 672.06,-190"/>
<polygon fill="midnightblue" stroke="midnightblue" points="673.07,-193.35 681.9,-187.51 671.35,-186.57 673.07,-193.35"/>
</g>
<!-- Node17 -->
<g id="node17" class="node">
<title>Node17</title>
<g id="a_node17"><a xlink:title=" ">
<polygon fill="white" stroke="#bfbfbf" points="713.5,-56.5 713.5,-75.5 767.5,-75.5 767.5,-56.5 713.5,-56.5"/>
<text text-anchor="middle" x="740.5" y="-63.5" font-family="Helvetica,sans-Serif" font-size="10.00">TError.h</text>
</a>
</g>
</g>
<!-- Node16&#45;&gt;Node17 -->
<g id="edge18" class="edge">
<title>Node16&#45;&gt;Node17</title>
<path fill="none" stroke="midnightblue" d="M740.5,-112.08C740.5,-105.01 740.5,-94.86 740.5,-85.99"/>
<polygon fill="midnightblue" stroke="midnightblue" points="744,-85.75 740.5,-75.75 737,-85.75 744,-85.75"/>
</g>
<!-- Node18 -->
<g id="node18" class="node">
<title>Node18</title>
<g id="a_node18"><a xlink:title=" ">
<polygon fill="white" stroke="#bfbfbf" points="785.5,-56.5 785.5,-75.5 831.5,-75.5 831.5,-56.5 785.5,-56.5"/>
<text text-anchor="middle" x="808.5" y="-63.5" font-family="Helvetica,sans-Serif" font-size="10.00">cstdio</text>
</a>
</g>
</g>
<!-- Node16&#45;&gt;Node18 -->
<g id="edge19" class="edge">
<title>Node16&#45;&gt;Node18</title>
<path fill="none" stroke="midnightblue" d="M751.43,-112.32C761.67,-104.18 777.22,-91.84 789.5,-82.09"/>
<polygon fill="midnightblue" stroke="midnightblue" points="791.72,-84.79 797.38,-75.83 787.37,-79.31 791.72,-84.79"/>
</g>
<!-- Node19 -->
<g id="node19" class="node">
<title>Node19</title>
<g id="a_node19"><a xlink:title=" ">
<polygon fill="white" stroke="#bfbfbf" points="530,-56.5 530,-75.5 579,-75.5 579,-56.5 530,-56.5"/>
<text text-anchor="middle" x="554.5" y="-63.5" font-family="Helvetica,sans-Serif" font-size="10.00">cstdlib</text>
</a>
</g>
</g>
<!-- Node16&#45;&gt;Node19 -->
<g id="edge20" class="edge">
<title>Node16&#45;&gt;Node19</title>
<path fill="none" stroke="midnightblue" d="M711.03,-112.44C677.84,-102.81 623.97,-87.17 588.88,-76.98"/>
<polygon fill="midnightblue" stroke="midnightblue" points="589.66,-73.56 579.08,-74.14 587.71,-80.29 589.66,-73.56"/>
</g>
<!-- Node20 -->
<g id="node20" class="node">
<title>Node20</title>
<g id="a_node20"><a xlink:title=" ">
<polygon fill="white" stroke="#bfbfbf" points="850,-56.5 850,-75.5 915,-75.5 915,-56.5 850,-56.5"/>
<text text-anchor="middle" x="882.5" y="-63.5" font-family="Helvetica,sans-Serif" font-size="10.00">functional</text>
</a>
</g>
</g>
<!-- Node16&#45;&gt;Node20 -->
<g id="edge21" class="edge">
<title>Node16&#45;&gt;Node20</title>
<path fill="none" stroke="midnightblue" d="M763,-112.44C786.58,-103.48 823.82,-89.31 850.46,-79.18"/>
<polygon fill="midnightblue" stroke="midnightblue" points="852,-82.34 860.1,-75.52 849.51,-75.8 852,-82.34"/>
</g>
<!-- Node21 -->
<g id="node21" class="node">
<title>Node21</title>
<g id="a_node21"><a xlink:title=" ">
<polygon fill="white" stroke="#bfbfbf" points="597.5,-56.5 597.5,-75.5 657.5,-75.5 657.5,-56.5 597.5,-56.5"/>
<text text-anchor="middle" x="627.5" y="-63.5" font-family="Helvetica,sans-Serif" font-size="10.00">iostream</text>
</a>
</g>
</g>
<!-- Node16&#45;&gt;Node21 -->
<g id="edge22" class="edge">
<title>Node16&#45;&gt;Node21</title>
<path fill="none" stroke="midnightblue" d="M722.59,-112.44C704.25,-103.68 675.49,-89.94 654.41,-79.86"/>
<polygon fill="midnightblue" stroke="midnightblue" points="655.85,-76.67 645.32,-75.52 652.83,-82.99 655.85,-76.67"/>
</g>
<!-- Node22 -->
<g id="node22" class="node">
<title>Node22</title>
<g id="a_node22"><a xlink:title=" ">
<polygon fill="white" stroke="#bfbfbf" points="921.5,-0.5 921.5,-19.5 965.5,-19.5 965.5,-0.5 921.5,-0.5"/>
<text text-anchor="middle" x="943.5" y="-7.5" font-family="Helvetica,sans-Serif" font-size="10.00">string</text>
</a>
</g>
</g>
<!-- Node16&#45;&gt;Node22 -->
<g id="edge23" class="edge">
<title>Node16&#45;&gt;Node22</title>
<path fill="none" stroke="midnightblue" d="M729.46,-112.38C714.03,-99.3 689.51,-74.07 704.5,-56 730.38,-24.79 851.93,-15.08 911.05,-12.18"/>
<polygon fill="midnightblue" stroke="midnightblue" points="911.49,-15.66 921.33,-11.71 911.18,-8.67 911.49,-15.66"/>
</g>
<!-- Node23 -->
<g id="node23" class="node">
<title>Node23</title>
<g id="a_node23"><a xlink:href="string_8h.html" target="_top" xlink:title=" ">
<polygon fill="white" stroke="black" points="984.5,-56.5 984.5,-75.5 1080.5,-75.5 1080.5,-56.5 984.5,-56.5"/>
<text text-anchor="middle" x="1032.5" y="-63.5" font-family="Helvetica,sans-Serif" font-size="10.00">core/util/string.h</text>
</a>
</g>
</g>
<!-- Node16&#45;&gt;Node23 -->
<g id="edge24" class="edge">
<title>Node16&#45;&gt;Node23</title>
<path fill="none" stroke="midnightblue" d="M782.03,-113.32C832.97,-103.9 919.56,-87.89 976.4,-77.38"/>
<polygon fill="midnightblue" stroke="midnightblue" points="977.1,-80.8 986.3,-75.54 975.83,-73.92 977.1,-80.8"/>
</g>
<!-- Node23&#45;&gt;Node22 -->
<g id="edge26" class="edge">
<title>Node23&#45;&gt;Node22</title>
<path fill="none" stroke="midnightblue" d="M1018.2,-56.32C1004.32,-47.9 983.01,-34.97 966.7,-25.07"/>
<polygon fill="midnightblue" stroke="midnightblue" points="968.13,-21.85 957.76,-19.65 964.5,-27.83 968.13,-21.85"/>
</g>
<!-- Node24 -->
<g id="node24" class="node">
<title>Node24</title>
<g id="a_node24"><a xlink:title=" ">
<polygon fill="white" stroke="#bfbfbf" points="1004.5,-0.5 1004.5,-19.5 1060.5,-19.5 1060.5,-0.5 1004.5,-0.5"/>
<text text-anchor="middle" x="1032.5" y="-7.5" font-family="Helvetica,sans-Serif" font-size="10.00">sstream</text>
</a>
</g>
</g>
<!-- Node23&#45;&gt;Node24 -->
<g id="edge25" class="edge">
<title>Node23&#45;&gt;Node24</title>
<path fill="none" stroke="midnightblue" d="M1032.5,-56.08C1032.5,-49.01 1032.5,-38.86 1032.5,-29.99"/>
<polygon fill="midnightblue" stroke="midnightblue" points="1036,-29.75 1032.5,-19.75 1029,-29.75 1036,-29.75"/>
</g>
<!-- Node25 -->
<g id="node25" class="node">
<title>Node25</title>
<g id="a_node25"><a xlink:title=" ">
<polygon fill="white" stroke="#bfbfbf" points="1221,-0.5 1221,-19.5 1268,-19.5 1268,-0.5 1221,-0.5"/>
<text text-anchor="middle" x="1244.5" y="-7.5" font-family="Helvetica,sans-Serif" font-size="10.00">vector</text>
</a>
</g>
</g>
<!-- Node23&#45;&gt;Node25 -->
<g id="edge27" class="edge">
<title>Node23&#45;&gt;Node25</title>
<path fill="none" stroke="midnightblue" d="M1066.09,-56.44C1105.83,-46.32 1171.58,-29.57 1211.19,-19.48"/>
<polygon fill="midnightblue" stroke="midnightblue" points="1212.08,-22.87 1220.91,-17.01 1210.36,-16.09 1212.08,-22.87"/>
</g>
<!-- Node26&#45;&gt;Node16 -->
<g id="edge30" class="edge">
<title>Node26&#45;&gt;Node16</title>
<path fill="none" stroke="midnightblue" d="M719.63,-168.08C723.01,-160.77 727.92,-150.18 732.12,-141.1"/>
<polygon fill="midnightblue" stroke="midnightblue" points="735.42,-142.3 736.45,-131.75 729.07,-139.36 735.42,-142.3"/>
</g>
<!-- Node27 -->
<g id="node27" class="node">
<title>Node27</title>
<g id="a_node27"><a xlink:title=" ">
<polygon fill="white" stroke="#bfbfbf" points="553,-112.5 553,-131.5 610,-131.5 610,-112.5 553,-112.5"/>
<text text-anchor="middle" x="581.5" y="-119.5" font-family="Helvetica,sans-Serif" font-size="10.00">TClass.h</text>
</a>
</g>
</g>
<!-- Node26&#45;&gt;Node27 -->
<g id="edge29" class="edge">
<title>Node26&#45;&gt;Node27</title>
<path fill="none" stroke="midnightblue" d="M694.27,-168.44C672.12,-159.52 637.18,-145.44 612.06,-135.32"/>
<polygon fill="midnightblue" stroke="midnightblue" points="613.22,-132.01 602.63,-131.52 610.6,-138.5 613.22,-132.01"/>
</g>
<!-- Node32&#45;&gt;Node2 -->
<g id="edge70" class="edge">
<title>Node32&#45;&gt;Node2</title>
<path fill="none" stroke="midnightblue" d="M854.97,-347.44C805.54,-337.94 725.75,-322.61 672.72,-312.42"/>
<polygon fill="midnightblue" stroke="midnightblue" points="673.3,-308.97 662.82,-310.52 671.98,-315.84 673.3,-308.97"/>
</g>
<!-- Node32&#45;&gt;Node20 -->
<g id="edge37" class="edge">
<title>Node32&#45;&gt;Node20</title>
<path fill="none" stroke="midnightblue" d="M898.99,-347.35C896.65,-307.63 886.93,-142.25 883.61,-85.9"/>
<polygon fill="midnightblue" stroke="midnightblue" points="887.09,-85.39 883.01,-75.62 880.1,-85.8 887.09,-85.39"/>
</g>
<!-- Node32&#45;&gt;Node22 -->
<g id="edge38" class="edge">
<title>Node32&#45;&gt;Node22</title>
<path fill="none" stroke="midnightblue" d="M901.69,-347.43C903.92,-338.41 907.36,-323.79 909.5,-311 927.16,-205.45 938.28,-77.44 942.05,-29.93"/>
<polygon fill="midnightblue" stroke="midnightblue" points="945.55,-30.12 942.84,-19.88 938.57,-29.58 945.55,-30.12"/>
</g>
<!-- Node32&#45;&gt;Node25 -->
<g id="edge39" class="edge">
<title>Node32&#45;&gt;Node25</title>
<path fill="none" stroke="midnightblue" d="M950.22,-348.13C1108.93,-323.42 1585.5,-248.55 1585.5,-240.5 1585.5,-240.5 1585.5,-240.5 1585.5,-121 1585.5,-56.88 1364.37,-24.7 1278.25,-14.59"/>
<polygon fill="midnightblue" stroke="midnightblue" points="1278.54,-11.1 1268.21,-13.45 1277.74,-18.06 1278.54,-11.1"/>
</g>
<!-- Node32&#45;&gt;Node26 -->
<g id="edge71" class="edge">
<title>Node32&#45;&gt;Node26</title>
<path fill="none" stroke="midnightblue" d="M848.58,-348.35C805.91,-340.85 749.59,-328.08 734.5,-311 706.61,-279.44 708.76,-226.07 712.35,-197.83"/>
<polygon fill="midnightblue" stroke="midnightblue" points="715.84,-198.11 713.83,-187.71 708.92,-197.09 715.84,-198.11"/>
</g>
<!-- Node33 -->
<g id="node33" class="node">
<title>Node33</title>
<g id="a_node33"><a xlink:href="agent__uid_8h.html" target="_top" xlink:title=" ">
<polygon fill="white" stroke="black" points="743.5,-291.5 743.5,-310.5 871.5,-310.5 871.5,-291.5 743.5,-291.5"/>
<text text-anchor="middle" x="807.5" y="-298.5" font-family="Helvetica,sans-Serif" font-size="10.00">core/agent/agent_uid.h</text>
</a>
</g>
</g>
<!-- Node32&#45;&gt;Node33 -->
<g id="edge40" class="edge">
<title>Node32&#45;&gt;Node33</title>
<path fill="none" stroke="midnightblue" d="M884.72,-347.32C870.23,-338.82 847.93,-325.73 831.01,-315.8"/>
<polygon fill="midnightblue" stroke="midnightblue" points="832.64,-312.7 822.24,-310.65 829.1,-318.74 832.64,-312.7"/>
</g>
<!-- Node35 -->
<g id="node35" class="node">
<title>Node35</title>
<g id="a_node35"><a xlink:href="opencl__state_8h.html" target="_top" xlink:title=" ">
<polygon fill="white" stroke="black" points="1614,-291.5 1614,-310.5 1747,-310.5 1747,-291.5 1614,-291.5"/>
<text text-anchor="middle" x="1680.5" y="-298.5" font-family="Helvetica,sans-Serif" font-size="10.00">core/gpu/opencl_state.h</text>
</a>
</g>
</g>
<!-- Node32&#45;&gt;Node35 -->
<g id="edge43" class="edge">
<title>Node32&#45;&gt;Node35</title>
<path fill="none" stroke="midnightblue" d="M950.2,-348.06C953.34,-347.67 956.46,-347.31 959.5,-347 1242.9,-317.84 1315.6,-334.74 1599.5,-311 1600.81,-310.89 1602.13,-310.78 1603.46,-310.66"/>
<polygon fill="midnightblue" stroke="midnightblue" points="1604.15,-314.11 1613.78,-309.7 1603.5,-307.14 1604.15,-314.11"/>
</g>
<!-- Node37 -->
<g id="node37" class="node">
<title>Node37</title>
<g id="a_node37"><a xlink:href="memory__manager_8h.html" target="_top" xlink:title=" ">
<polygon fill="white" stroke="black" points="1078.5,-224.5 1078.5,-254.5 1204.5,-254.5 1204.5,-224.5 1078.5,-224.5"/>
<text text-anchor="start" x="1086.5" y="-242.5" font-family="Helvetica,sans-Serif" font-size="10.00">core/memory/memory</text>
<text text-anchor="middle" x="1141.5" y="-231.5" font-family="Helvetica,sans-Serif" font-size="10.00">_manager.h</text>
</a>
</g>
</g>
<!-- Node32&#45;&gt;Node37 -->
<g id="edge46" class="edge">
<title>Node32&#45;&gt;Node37</title>
<path fill="none" stroke="midnightblue" d="M917.69,-347.32C956.89,-328.61 1050.05,-284.15 1102.99,-258.88"/>
<polygon fill="midnightblue" stroke="midnightblue" points="1104.55,-262.01 1112.07,-254.55 1101.54,-255.69 1104.55,-262.01"/>
</g>
<!-- Node33&#45;&gt;Node26 -->
<g id="edge42" class="edge">
<title>Node33&#45;&gt;Node26</title>
<path fill="none" stroke="midnightblue" d="M800.88,-291.3C785.7,-271.33 748.13,-221.92 728.28,-195.8"/>
<polygon fill="midnightblue" stroke="midnightblue" points="730.9,-193.47 722.06,-187.62 725.32,-197.7 730.9,-193.47"/>
</g>
<!-- Node34 -->
<g id="node34" class="node">
<title>Node34</title>
<g id="a_node34"><a xlink:title=" ">
<polygon fill="white" stroke="#bfbfbf" points="785.5,-230 785.5,-249 829.5,-249 829.5,-230 785.5,-230"/>
<text text-anchor="middle" x="807.5" y="-237" font-family="Helvetica,sans-Serif" font-size="10.00">limits</text>
</a>
</g>
</g>
<!-- Node33&#45;&gt;Node34 -->
<g id="edge41" class="edge">
<title>Node33&#45;&gt;Node34</title>
<path fill="none" stroke="midnightblue" d="M807.5,-291.48C807.5,-283.08 807.5,-269.98 807.5,-259.16"/>
<polygon fill="midnightblue" stroke="midnightblue" points="811,-259.01 807.5,-249.01 804,-259.01 811,-259.01"/>
</g>
<!-- Node35&#45;&gt;Node25 -->
<g id="edge45" class="edge">
<title>Node35&#45;&gt;Node25</title>
<path fill="none" stroke="midnightblue" d="M1682.83,-291.27C1687.9,-271.46 1699.5,-221.53 1699.5,-179 1699.5,-179 1699.5,-179 1699.5,-121 1699.5,-34.28 1383.27,-15.7 1278.07,-11.92"/>
<polygon fill="midnightblue" stroke="midnightblue" points="1278.12,-8.42 1268,-11.58 1277.88,-15.42 1278.12,-8.42"/>
</g>
<!-- Node36 -->
<g id="node36" class="node">
<title>Node36</title>
<g id="a_node36"><a xlink:title=" ">
<polygon fill="white" stroke="#bfbfbf" points="1613.5,-230 1613.5,-249 1671.5,-249 1671.5,-230 1613.5,-230"/>
<text text-anchor="middle" x="1642.5" y="-237" font-family="Helvetica,sans-Serif" font-size="10.00">memory</text>
</a>
</g>
</g>
<!-- Node35&#45;&gt;Node36 -->
<g id="edge44" class="edge">
<title>Node35&#45;&gt;Node36</title>
<path fill="none" stroke="midnightblue" d="M1675.06,-291.48C1669.41,-282.64 1660.44,-268.59 1653.34,-257.48"/>
<polygon fill="midnightblue" stroke="midnightblue" points="1656.27,-255.55 1647.93,-249.01 1650.37,-259.32 1656.27,-255.55"/>
</g>
<!-- Node37&#45;&gt;Node6 -->
<g id="edge47" class="edge">
<title>Node37&#45;&gt;Node6</title>
<path fill="none" stroke="midnightblue" d="M1089.34,-224.48C1033.79,-209.71 943.2,-186.15 864.5,-168 790.55,-150.95 769.14,-149.66 690.68,-131.95"/>
<polygon fill="midnightblue" stroke="midnightblue" points="691.34,-128.52 680.82,-129.71 689.79,-135.34 691.34,-128.52"/>
</g>
<!-- Node37&#45;&gt;Node14 -->
<g id="edge49" class="edge">
<title>Node37&#45;&gt;Node14</title>
<path fill="none" stroke="midnightblue" d="M1078.33,-224.62C1056.29,-217.02 1032.97,-205.45 1016.5,-188 1004.63,-175.42 999.14,-156.2 996.62,-141.92"/>
<polygon fill="midnightblue" stroke="midnightblue" points="1000.05,-141.15 995.17,-131.75 993.12,-142.14 1000.05,-141.15"/>
</g>
<!-- Node37&#45;&gt;Node15 -->
<g id="edge58" class="edge">
<title>Node37&#45;&gt;Node15</title>
<path fill="none" stroke="midnightblue" d="M1078.45,-226.96C1016.24,-215.57 922.43,-198.39 865.57,-187.98"/>
<polygon fill="midnightblue" stroke="midnightblue" points="865.87,-184.48 855.4,-186.12 864.61,-191.37 865.87,-184.48"/>
</g>
<!-- Node37&#45;&gt;Node25 -->
<g id="edge50" class="edge">
<title>Node37&#45;&gt;Node25</title>
<path fill="none" stroke="midnightblue" d="M1150.37,-224.18C1156.38,-214.21 1164.32,-200.51 1170.5,-188 1198.45,-131.39 1225.59,-61.56 1237.78,-29.13"/>
<polygon fill="midnightblue" stroke="midnightblue" points="1241.11,-30.24 1241.33,-19.64 1234.55,-27.79 1241.11,-30.24"/>
</g>
<!-- Node38 -->
<g id="node38" class="node">
<title>Node38</title>
<g id="a_node38"><a xlink:title=" ">
<polygon fill="white" stroke="#bfbfbf" points="1397.5,-168.5 1397.5,-187.5 1429.5,-187.5 1429.5,-168.5 1397.5,-168.5"/>
<text text-anchor="middle" x="1413.5" y="-175.5" font-family="Helvetica,sans-Serif" font-size="10.00">list</text>
</a>
</g>
</g>
<!-- Node37&#45;&gt;Node38 -->
<g id="edge48" class="edge">
<title>Node37&#45;&gt;Node38</title>
<path fill="none" stroke="midnightblue" d="M1204.52,-226.89C1253.55,-217.48 1323.18,-203.31 1383.5,-188 1384.77,-187.68 1386.08,-187.33 1387.39,-186.98"/>
<polygon fill="midnightblue" stroke="midnightblue" points="1388.73,-190.23 1397.38,-184.11 1386.8,-183.51 1388.73,-190.23"/>
</g>
<!-- Node39 -->
<g id="node39" class="node">
<title>Node39</title>
<g id="a_node39"><a xlink:href="flatmap_8h.html" target="_top" xlink:title=" ">
<polygon fill="white" stroke="black" points="1025.5,-168.5 1025.5,-187.5 1161.5,-187.5 1161.5,-168.5 1025.5,-168.5"/>
<text text-anchor="middle" x="1093.5" y="-175.5" font-family="Helvetica,sans-Serif" font-size="10.00">core/container/flatmap.h</text>
</a>
</g>
</g>
<!-- Node37&#45;&gt;Node39 -->
<g id="edge51" class="edge">
<title>Node37&#45;&gt;Node39</title>
<path fill="none" stroke="midnightblue" d="M1130.12,-224.4C1123.15,-215.75 1114.19,-204.64 1106.87,-195.58"/>
<polygon fill="midnightblue" stroke="midnightblue" points="1109.49,-193.24 1100.48,-187.66 1104.04,-197.64 1109.49,-193.24"/>
</g>
<!-- Node41 -->
<g id="node41" class="node">
<title>Node41</title>
<g id="a_node41"><a xlink:href="numa_8h.html" target="_top" xlink:title=" ">
<polygon fill="white" stroke="black" points="1365.5,-112.5 1365.5,-131.5 1461.5,-131.5 1461.5,-112.5 1365.5,-112.5"/>
<text text-anchor="middle" x="1413.5" y="-119.5" font-family="Helvetica,sans-Serif" font-size="10.00">core/util/numa.h</text>
</a>
</g>
</g>
<!-- Node37&#45;&gt;Node41 -->
<g id="edge59" class="edge">
<title>Node37&#45;&gt;Node41</title>
<path fill="none" stroke="midnightblue" d="M1204.8,-232.56C1248.12,-226.32 1305.61,-213.65 1350.5,-188 1371.52,-175.99 1390.05,-154.9 1401.48,-140.01"/>
<polygon fill="midnightblue" stroke="midnightblue" points="1404.51,-141.79 1407.64,-131.67 1398.88,-137.63 1404.51,-141.79"/>
</g>
<!-- Node43 -->
<g id="node43" class="node">
<title>Node43</title>
<g id="a_node43"><a xlink:href="spinlock_8h.html" target="_top" xlink:title=" ">
<polygon fill="white" stroke="black" points="1448,-168.5 1448,-187.5 1557,-187.5 1557,-168.5 1448,-168.5"/>
<text text-anchor="middle" x="1502.5" y="-175.5" font-family="Helvetica,sans-Serif" font-size="10.00">core/util/spinlock.h</text>
</a>
</g>
</g>
<!-- Node37&#45;&gt;Node43 -->
<g id="edge61" class="edge">
<title>Node37&#45;&gt;Node43</title>
<path fill="none" stroke="midnightblue" d="M1204.79,-228.07C1271.11,-217.14 1374.62,-200.08 1440.46,-189.23"/>
<polygon fill="midnightblue" stroke="midnightblue" points="1441.39,-192.62 1450.69,-187.54 1440.26,-185.71 1441.39,-192.62"/>
</g>
<!-- Node45 -->
<g id="node45" class="node">
<title>Node45</title>
<g id="a_node45"><a xlink:href="thread__info_8h.html" target="_top" xlink:title=" ">
<polygon fill="white" stroke="black" points="1217.5,-168.5 1217.5,-187.5 1341.5,-187.5 1341.5,-168.5 1217.5,-168.5"/>
<text text-anchor="middle" x="1279.5" y="-175.5" font-family="Helvetica,sans-Serif" font-size="10.00">core/util/thread_info.h</text>
</a>
</g>
</g>
<!-- Node37&#45;&gt;Node45 -->
<g id="edge63" class="edge">
<title>Node37&#45;&gt;Node45</title>
<path fill="none" stroke="midnightblue" d="M1174.2,-224.4C1197.25,-214.46 1227.86,-201.26 1250.13,-191.66"/>
<polygon fill="midnightblue" stroke="midnightblue" points="1251.62,-194.83 1259.42,-187.66 1248.85,-188.4 1251.62,-194.83"/>
</g>
<!-- Node39&#45;&gt;Node6 -->
<g id="edge52" class="edge">
<title>Node39&#45;&gt;Node6</title>
<path fill="none" stroke="midnightblue" d="M1025.36,-172.19C947.02,-166.03 814.47,-153.69 690.79,-131.8"/>
<polygon fill="midnightblue" stroke="midnightblue" points="691.22,-128.32 680.76,-130 689.98,-135.21 691.22,-128.32"/>
</g>
<!-- Node39&#45;&gt;Node7 -->
<g id="edge53" class="edge">
<title>Node39&#45;&gt;Node7</title>
<path fill="none" stroke="midnightblue" d="M1025.38,-172.3C865.41,-161.27 469.96,-134 347.35,-125.54"/>
<polygon fill="midnightblue" stroke="midnightblue" points="347.56,-122.05 337.34,-124.85 347.08,-129.03 347.56,-122.05"/>
</g>
<!-- Node39&#45;&gt;Node14 -->
<g id="edge55" class="edge">
<title>Node39&#45;&gt;Node14</title>
<path fill="none" stroke="midnightblue" d="M1077.59,-168.32C1061.86,-159.74 1037.56,-146.49 1019.29,-136.52"/>
<polygon fill="midnightblue" stroke="midnightblue" points="1020.82,-133.37 1010.37,-131.65 1017.47,-139.52 1020.82,-133.37"/>
</g>
<!-- Node39&#45;&gt;Node23 -->
<g id="edge57" class="edge">
<title>Node39&#45;&gt;Node23</title>
<path fill="none" stroke="midnightblue" d="M1087.41,-168.22C1081.32,-159.28 1071.82,-144.94 1064.5,-132 1055.7,-116.45 1046.82,-98.15 1040.65,-84.93"/>
<polygon fill="midnightblue" stroke="midnightblue" points="1043.7,-83.19 1036.34,-75.57 1037.34,-86.12 1043.7,-83.19"/>
</g>
<!-- Node39&#45;&gt;Node25 -->
<g id="edge56" class="edge">
<title>Node39&#45;&gt;Node25</title>
<path fill="none" stroke="midnightblue" d="M1101.82,-168.46C1110.11,-159.71 1122.96,-145.52 1132.5,-132 1154.88,-100.29 1148.94,-84.29 1175.5,-56 1187.51,-43.21 1203.86,-32.34 1217.62,-24.49"/>
<polygon fill="midnightblue" stroke="midnightblue" points="1219.56,-27.42 1226.66,-19.56 1216.21,-21.28 1219.56,-27.42"/>
</g>
<!-- Node40 -->
<g id="node40" class="node">
<title>Node40</title>
<g id="a_node40"><a xlink:title=" ">
<polygon fill="white" stroke="#bfbfbf" points="1073.5,-112.5 1073.5,-131.5 1123.5,-131.5 1123.5,-112.5 1073.5,-112.5"/>
<text text-anchor="middle" x="1098.5" y="-119.5" font-family="Helvetica,sans-Serif" font-size="10.00">cstdint</text>
</a>
</g>
</g>
<!-- Node39&#45;&gt;Node40 -->
<g id="edge54" class="edge">
<title>Node39&#45;&gt;Node40</title>
<path fill="none" stroke="midnightblue" d="M1094.33,-168.08C1094.98,-161.01 1095.92,-150.86 1096.74,-141.99"/>
<polygon fill="midnightblue" stroke="midnightblue" points="1100.25,-142.03 1097.69,-131.75 1093.28,-141.39 1100.25,-142.03"/>
</g>
<!-- Node42 -->
<g id="node42" class="node">
<title>Node42</title>
<g id="a_node42"><a xlink:title=" ">
<polygon fill="white" stroke="#bfbfbf" points="1359,-56.5 1359,-75.5 1406,-75.5 1406,-56.5 1359,-56.5"/>
<text text-anchor="middle" x="1382.5" y="-63.5" font-family="Helvetica,sans-Serif" font-size="10.00">omp.h</text>
</a>
</g>
</g>
<!-- Node41&#45;&gt;Node42 -->
<g id="edge60" class="edge">
<title>Node41&#45;&gt;Node42</title>
<path fill="none" stroke="midnightblue" d="M1408.38,-112.08C1404.09,-104.61 1397.84,-93.72 1392.56,-84.52"/>
<polygon fill="midnightblue" stroke="midnightblue" points="1395.54,-82.68 1387.52,-75.75 1389.47,-86.17 1395.54,-82.68"/>
</g>
<!-- Node44 -->
<g id="node44" class="node">
<title>Node44</title>
<g id="a_node44"><a xlink:title=" ">
<polygon fill="white" stroke="#bfbfbf" points="1479.5,-112.5 1479.5,-131.5 1529.5,-131.5 1529.5,-112.5 1479.5,-112.5"/>
<text text-anchor="middle" x="1504.5" y="-119.5" font-family="Helvetica,sans-Serif" font-size="10.00">atomic</text>
</a>
</g>
</g>
<!-- Node43&#45;&gt;Node44 -->
<g id="edge62" class="edge">
<title>Node43&#45;&gt;Node44</title>
<path fill="none" stroke="midnightblue" d="M1502.83,-168.08C1503.09,-161.01 1503.47,-150.86 1503.8,-141.99"/>
<polygon fill="midnightblue" stroke="midnightblue" points="1507.3,-141.87 1504.18,-131.75 1500.31,-141.61 1507.3,-141.87"/>
</g>
<!-- Node45&#45;&gt;Node16 -->
<g id="edge68" class="edge">
<title>Node45&#45;&gt;Node16</title>
<path fill="none" stroke="midnightblue" d="M1217.41,-170.78C1110.06,-160.02 891.76,-138.15 792.14,-128.17"/>
<polygon fill="midnightblue" stroke="midnightblue" points="792.32,-124.67 782.02,-127.16 791.62,-131.64 792.32,-124.67"/>
</g>
<!-- Node45&#45;&gt;Node25 -->
<g id="edge67" class="edge">
<title>Node45&#45;&gt;Node25</title>
<path fill="none" stroke="midnightblue" d="M1279.75,-168.37C1280,-159.32 1280.36,-144.66 1280.5,-132 1280.6,-123.11 1282.01,-120.76 1280.5,-112 1275.28,-81.84 1261.91,-48.75 1253.02,-28.94"/>
<polygon fill="midnightblue" stroke="midnightblue" points="1256.1,-27.26 1248.73,-19.64 1249.74,-30.19 1256.1,-27.26"/>
</g>
<!-- Node45&#45;&gt;Node41 -->
<g id="edge69" class="edge">
<title>Node45&#45;&gt;Node41</title>
<path fill="none" stroke="midnightblue" d="M1300.73,-168.44C1322.88,-159.52 1357.82,-145.44 1382.94,-135.32"/>
<polygon fill="midnightblue" stroke="midnightblue" points="1384.4,-138.5 1392.37,-131.52 1381.78,-132.01 1384.4,-138.5"/>
</g>
<!-- Node45&#45;&gt;Node42 -->
<g id="edge64" class="edge">
<title>Node45&#45;&gt;Node42</title>
<path fill="none" stroke="midnightblue" d="M1287.58,-168.37C1304.81,-149.97 1345.35,-106.67 1367.47,-83.05"/>
<polygon fill="midnightblue" stroke="midnightblue" points="1370.18,-85.28 1374.46,-75.59 1365.07,-80.5 1370.18,-85.28"/>
</g>
<!-- Node45&#45;&gt;Node44 -->
<g id="edge66" class="edge">
<title>Node45&#45;&gt;Node44</title>
<path fill="none" stroke="midnightblue" d="M1317.26,-168.42C1353.81,-160.05 1411.02,-146.76 1469.49,-132.2"/>
<polygon fill="midnightblue" stroke="midnightblue" points="1470.42,-135.58 1479.27,-129.76 1468.72,-128.79 1470.42,-135.58"/>
</g>
<!-- Node46 -->
<g id="node46" class="node">
<title>Node46</title>
<g id="a_node46"><a xlink:title=" ">
<polygon fill="white" stroke="#bfbfbf" points="1217.5,-112.5 1217.5,-131.5 1271.5,-131.5 1271.5,-112.5 1217.5,-112.5"/>
<text text-anchor="middle" x="1244.5" y="-119.5" font-family="Helvetica,sans-Serif" font-size="10.00">sched.h</text>
</a>
</g>
</g>
<!-- Node45&#45;&gt;Node46 -->
<g id="edge65" class="edge">
<title>Node45&#45;&gt;Node46</title>
<path fill="none" stroke="midnightblue" d="M1273.72,-168.08C1268.83,-160.53 1261.67,-149.49 1255.67,-140.23"/>
<polygon fill="midnightblue" stroke="midnightblue" points="1258.55,-138.24 1250.17,-131.75 1252.67,-142.05 1258.55,-138.24"/>
</g>
</g>
</svg>
