<?xml version="1.0" encoding="UTF-8" standalone="no"?>
<!DOCTYPE svg PUBLIC "-//W3C//DTD SVG 1.1//EN"
 "http://www.w3.org/Graphics/SVG/1.1/DTD/svg11.dtd">
<!-- Generated by graphviz version 2.40.1 (20161225.0304)
 -->
<!-- Title: core/util/random.cc Pages: 1 -->
<svg width="685pt" height="375pt"
 viewBox="0.00 0.00 685.00 375.00" xmlns="http://www.w3.org/2000/svg" xmlns:xlink="http://www.w3.org/1999/xlink">
<g id="graph0" class="graph" transform="scale(1 1) rotate(0) translate(4 371)">
<title>core/util/random.cc</title>
<polygon fill="#ffffff" stroke="transparent" points="-4,4 -4,-371 681,-371 681,4 -4,4"/>
<!-- Node0 -->
<g id="node1" class="node">
<title>Node0</title>
<polygon fill="#bfbfbf" stroke="#000000" points="549.5,-347.5 549.5,-366.5 649.5,-366.5 649.5,-347.5 549.5,-347.5"/>
<text text-anchor="middle" x="599.5" y="-354.5" font-family="Helvetica,sans-Serif" font-size="10.00" fill="#000000">core/util/random.cc</text>
</g>
<!-- Node1 -->
<g id="node2" class="node">
<title>Node1</title>
<g id="a_node2"><a xlink:href="random_8h.html" target="_top" xlink:title="core/util/random.h">
<polygon fill="#ffffff" stroke="#000000" points="257,-291.5 257,-310.5 352,-310.5 352,-291.5 257,-291.5"/>
<text text-anchor="middle" x="304.5" y="-298.5" font-family="Helvetica,sans-Serif" font-size="10.00" fill="#000000">core/util/random.h</text>
</a>
</g>
</g>
<!-- Node0&#45;&gt;Node1 -->
<g id="edge1" class="edge">
<title>Node0&#45;&gt;Node1</title>
<path fill="none" stroke="#191970" d="M549.4573,-347.5004C497.6152,-337.6592 416.7001,-322.299 362.1968,-311.9526"/>
<polygon fill="#191970" stroke="#191970" points="362.8175,-308.508 352.3402,-310.0815 361.5119,-315.3852 362.8175,-308.508"/>
</g>
<!-- Node8 -->
<g id="node9" class="node">
<title>Node8</title>
<polygon fill="#ffffff" stroke="#bfbfbf" points="628.5,-168.5 628.5,-187.5 672.5,-187.5 672.5,-168.5 628.5,-168.5"/>
<text text-anchor="middle" x="650.5" y="-175.5" font-family="Helvetica,sans-Serif" font-size="10.00" fill="#000000">cmath</text>
</g>
<!-- Node0&#45;&gt;Node8 -->
<g id="edge25" class="edge">
<title>Node0&#45;&gt;Node8</title>
<path fill="none" stroke="#191970" d="M602.242,-347.3762C610.3017,-319.0883 634.0322,-235.7987 644.9223,-197.5767"/>
<polygon fill="#191970" stroke="#191970" points="648.3703,-198.2477 647.7445,-187.6714 641.6382,-196.3296 648.3703,-198.2477"/>
</g>
<!-- Node22 -->
<g id="node23" class="node">
<title>Node22</title>
<polygon fill="#ffffff" stroke="#bfbfbf" points="628,-291.5 628,-310.5 677,-310.5 677,-291.5 628,-291.5"/>
<text text-anchor="middle" x="652.5" y="-298.5" font-family="Helvetica,sans-Serif" font-size="10.00" fill="#000000">random</text>
</g>
<!-- Node0&#45;&gt;Node22 -->
<g id="edge26" class="edge">
<title>Node0&#45;&gt;Node22</title>
<path fill="none" stroke="#191970" d="M608.7319,-347.2455C616.3317,-339.2155 627.2877,-327.6394 636.3368,-318.0781"/>
<polygon fill="#191970" stroke="#191970" points="639.0421,-320.3115 643.3739,-310.6427 633.958,-315.4998 639.0421,-320.3115"/>
</g>
<!-- Node2 -->
<g id="node3" class="node">
<title>Node2</title>
<polygon fill="#ffffff" stroke="#bfbfbf" points="20.5,-230 20.5,-249 58.5,-249 58.5,-230 20.5,-230"/>
<text text-anchor="middle" x="39.5" y="-237" font-family="Helvetica,sans-Serif" font-size="10.00" fill="#000000">array</text>
</g>
<!-- Node1&#45;&gt;Node2 -->
<g id="edge2" class="edge">
<title>Node1&#45;&gt;Node2</title>
<path fill="none" stroke="#191970" d="M256.9798,-295.0329C209.4689,-288.2679 134.7218,-275.442 72.5,-255 70.6509,-254.3925 68.7698,-253.7073 66.8912,-252.9718"/>
<polygon fill="#191970" stroke="#191970" points="68.2464,-249.7447 57.6776,-249.0027 65.4769,-256.1736 68.2464,-249.7447"/>
</g>
<!-- Node3 -->
<g id="node4" class="node">
<title>Node3</title>
<polygon fill="#ffffff" stroke="#bfbfbf" points="0,-56.5 0,-75.5 43,-75.5 43,-56.5 0,-56.5"/>
<text text-anchor="middle" x="21.5" y="-63.5" font-family="Helvetica,sans-Serif" font-size="10.00" fill="#000000">cstdio</text>
</g>
<!-- Node1&#45;&gt;Node3 -->
<g id="edge3" class="edge">
<title>Node1&#45;&gt;Node3</title>
<path fill="none" stroke="#191970" d="M278.8893,-291.449C238.1941,-275.2641 158.0085,-239.1471 105.5,-188 72.9756,-156.3189 45.3579,-110.3053 31.3499,-84.7995"/>
<polygon fill="#191970" stroke="#191970" points="34.3321,-82.9553 26.5112,-75.8079 28.1679,-86.2724 34.3321,-82.9553"/>
</g>
<!-- Node4 -->
<g id="node5" class="node">
<title>Node4</title>
<polygon fill="#ffffff" stroke="#bfbfbf" points="414,-230 414,-249 487,-249 487,-230 414,-230"/>
<text text-anchor="middle" x="450.5" y="-237" font-family="Helvetica,sans-Serif" font-size="10.00" fill="#000000">TRandom3.h</text>
</g>
<!-- Node1&#45;&gt;Node4 -->
<g id="edge4" class="edge">
<title>Node1&#45;&gt;Node4</title>
<path fill="none" stroke="#191970" d="M327.3125,-291.3906C351.8481,-281.0554 391.0442,-264.5447 418.6211,-252.9284"/>
<polygon fill="#191970" stroke="#191970" points="419.9906,-256.1495 427.8477,-249.0419 417.2732,-249.6984 419.9906,-256.1495"/>
</g>
<!-- Node5 -->
<g id="node6" class="node">
<title>Node5</title>
<g id="a_node6"><a xlink:href="math__array_8h.html" target="_top" xlink:title="core/container/math\l_array.h">
<polygon fill="#ffffff" stroke="#000000" points="293,-224.5 293,-254.5 396,-254.5 396,-224.5 293,-224.5"/>
<text text-anchor="start" x="301" y="-242.5" font-family="Helvetica,sans-Serif" font-size="10.00" fill="#000000">core/container/math</text>
<text text-anchor="middle" x="344.5" y="-231.5" font-family="Helvetica,sans-Serif" font-size="10.00" fill="#000000">_array.h</text>
</a>
</g>
</g>
<!-- Node1&#45;&gt;Node5 -->
<g id="edge5" class="edge">
<title>Node1&#45;&gt;Node5</title>
<path fill="none" stroke="#191970" d="M310.75,-291.3906C315.6623,-283.838 322.7194,-272.9876 329.1118,-263.1593"/>
<polygon fill="#191970" stroke="#191970" points="332.1966,-264.8358 334.7149,-254.5446 326.3286,-261.0192 332.1966,-264.8358"/>
</g>
<!-- Node13 -->
<g id="node14" class="node">
<title>Node13</title>
<g id="a_node14"><a xlink:href="root_8h.html" target="_top" xlink:title="core/util/root.h">
<polygon fill="#ffffff" stroke="#000000" points="115,-168.5 115,-187.5 194,-187.5 194,-168.5 115,-168.5"/>
<text text-anchor="middle" x="154.5" y="-175.5" font-family="Helvetica,sans-Serif" font-size="10.00" fill="#000000">core/util/root.h</text>
</a>
</g>
</g>
<!-- Node1&#45;&gt;Node13 -->
<g id="edge24" class="edge">
<title>Node1&#45;&gt;Node13</title>
<path fill="none" stroke="#191970" d="M292.7298,-291.3484C267.0992,-270.3314 206.0023,-220.2319 174.3182,-194.251"/>
<polygon fill="#191970" stroke="#191970" points="176.1676,-191.2412 166.2156,-187.6068 171.729,-196.654 176.1676,-191.2412"/>
</g>
<!-- Node6 -->
<g id="node7" class="node">
<title>Node6</title>
<polygon fill="#ffffff" stroke="#bfbfbf" points="211.5,-168.5 211.5,-187.5 267.5,-187.5 267.5,-168.5 211.5,-168.5"/>
<text text-anchor="middle" x="239.5" y="-175.5" font-family="Helvetica,sans-Serif" font-size="10.00" fill="#000000">algorithm</text>
</g>
<!-- Node5&#45;&gt;Node6 -->
<g id="edge6" class="edge">
<title>Node5&#45;&gt;Node6</title>
<path fill="none" stroke="#191970" d="M318.8141,-224.4554C302.3703,-214.8241 281.1292,-202.3828 264.7677,-192.7996"/>
<polygon fill="#191970" stroke="#191970" points="266.169,-189.5643 255.7713,-187.5303 262.6312,-195.6045 266.169,-189.5643"/>
</g>
<!-- Node7 -->
<g id="node8" class="node">
<title>Node7</title>
<polygon fill="#ffffff" stroke="#bfbfbf" points="286,-168.5 286,-187.5 335,-187.5 335,-168.5 286,-168.5"/>
<text text-anchor="middle" x="310.5" y="-175.5" font-family="Helvetica,sans-Serif" font-size="10.00" fill="#000000">cassert</text>
</g>
<!-- Node5&#45;&gt;Node7 -->
<g id="edge7" class="edge">
<title>Node5&#45;&gt;Node7</title>
<path fill="none" stroke="#191970" d="M336.0955,-224.2977C331.4743,-215.9388 325.7031,-205.4997 320.8111,-196.6509"/>
<polygon fill="#191970" stroke="#191970" points="323.8452,-194.9051 315.9438,-187.8469 317.7191,-198.292 323.8452,-194.9051"/>
</g>
<!-- Node5&#45;&gt;Node8 -->
<g id="edge8" class="edge">
<title>Node5&#45;&gt;Node8</title>
<path fill="none" stroke="#191970" d="M396.1432,-225.8549C398.9646,-225.2045 401.7638,-224.5813 404.5,-224 496.1237,-204.5329 523.5588,-210.4939 618.2599,-188.0219"/>
<polygon fill="#191970" stroke="#191970" points="619.363,-191.3561 628.2603,-185.6038 617.7178,-184.5522 619.363,-191.3561"/>
</g>
<!-- Node9 -->
<g id="node10" class="node">
<title>Node9</title>
<polygon fill="#ffffff" stroke="#bfbfbf" points="353,-168.5 353,-187.5 404,-187.5 404,-168.5 353,-168.5"/>
<text text-anchor="middle" x="378.5" y="-175.5" font-family="Helvetica,sans-Serif" font-size="10.00" fill="#000000">numeric</text>
</g>
<!-- Node5&#45;&gt;Node9 -->
<g id="edge9" class="edge">
<title>Node5&#45;&gt;Node9</title>
<path fill="none" stroke="#191970" d="M352.9045,-224.2977C357.5257,-215.9388 363.2969,-205.4997 368.1889,-196.6509"/>
<polygon fill="#191970" stroke="#191970" points="371.2809,-198.292 373.0562,-187.8469 365.1548,-194.9051 371.2809,-198.292"/>
</g>
<!-- Node10 -->
<g id="node11" class="node">
<title>Node10</title>
<polygon fill="#ffffff" stroke="#bfbfbf" points="422.5,-168.5 422.5,-187.5 474.5,-187.5 474.5,-168.5 422.5,-168.5"/>
<text text-anchor="middle" x="448.5" y="-175.5" font-family="Helvetica,sans-Serif" font-size="10.00" fill="#000000">ostream</text>
</g>
<!-- Node5&#45;&gt;Node10 -->
<g id="edge10" class="edge">
<title>Node5&#45;&gt;Node10</title>
<path fill="none" stroke="#191970" d="M369.9413,-224.4554C386.2284,-214.8241 407.2673,-202.3828 423.473,-192.7996"/>
<polygon fill="#191970" stroke="#191970" points="425.5576,-195.6331 432.3837,-187.5303 421.9945,-189.6078 425.5576,-195.6331"/>
</g>
<!-- Node11 -->
<g id="node12" class="node">
<title>Node11</title>
<polygon fill="#ffffff" stroke="#bfbfbf" points="493,-168.5 493,-187.5 552,-187.5 552,-168.5 493,-168.5"/>
<text text-anchor="middle" x="522.5" y="-175.5" font-family="Helvetica,sans-Serif" font-size="10.00" fill="#000000">stdexcept</text>
</g>
<!-- Node5&#45;&gt;Node11 -->
<g id="edge11" class="edge">
<title>Node5&#45;&gt;Node11</title>
<path fill="none" stroke="#191970" d="M388.0437,-224.4554C417.8737,-214.149 457.0166,-200.6249 485.3702,-190.8286"/>
<polygon fill="#191970" stroke="#191970" points="486.6076,-194.1041 494.9163,-187.5303 484.3216,-187.4879 486.6076,-194.1041"/>
</g>
<!-- Node12 -->
<g id="node13" class="node">
<title>Node12</title>
<polygon fill="#ffffff" stroke="#bfbfbf" points="570.5,-168.5 570.5,-187.5 610.5,-187.5 610.5,-168.5 570.5,-168.5"/>
<text text-anchor="middle" x="590.5" y="-175.5" font-family="Helvetica,sans-Serif" font-size="10.00" fill="#000000">utility</text>
</g>
<!-- Node5&#45;&gt;Node12 -->
<g id="edge12" class="edge">
<title>Node5&#45;&gt;Node12</title>
<path fill="none" stroke="#191970" d="M396.1891,-226.056C398.9986,-225.3537 401.7828,-224.6644 404.5,-224 473.6194,-207.0998 492.0041,-207.2724 560.5,-188 560.5991,-187.9721 560.6983,-187.9441 560.7977,-187.916"/>
<polygon fill="#191970" stroke="#191970" points="561.6995,-191.3001 570.2476,-185.0406 559.6618,-184.6033 561.6995,-191.3001"/>
</g>
<!-- Node5&#45;&gt;Node13 -->
<g id="edge13" class="edge">
<title>Node5&#45;&gt;Node13</title>
<path fill="none" stroke="#191970" d="M298.0208,-224.4554C266.0407,-214.104 224.0329,-200.5067 193.7371,-190.7004"/>
<polygon fill="#191970" stroke="#191970" points="194.5351,-187.28 183.9433,-187.5303 192.3794,-193.9398 194.5351,-187.28"/>
</g>
<!-- Node14 -->
<g id="node15" class="node">
<title>Node14</title>
<polygon fill="#ffffff" stroke="#bfbfbf" points="209.5,-112.5 209.5,-131.5 265.5,-131.5 265.5,-112.5 209.5,-112.5"/>
<text text-anchor="middle" x="237.5" y="-119.5" font-family="Helvetica,sans-Serif" font-size="10.00" fill="#000000">TClass.h</text>
</g>
<!-- Node13&#45;&gt;Node14 -->
<g id="edge14" class="edge">
<title>Node13&#45;&gt;Node14</title>
<path fill="none" stroke="#191970" d="M168.9575,-168.2455C181.5732,-159.7337 200.0944,-147.2375 214.7045,-137.3801"/>
<polygon fill="#191970" stroke="#191970" points="216.8761,-140.1371 223.2082,-131.6427 212.9609,-134.3343 216.8761,-140.1371"/>
</g>
<!-- Node15 -->
<g id="node16" class="node">
<title>Node15</title>
<g id="a_node16"><a xlink:href="log_8h.html" target="_top" xlink:title="core/util/log.h">
<polygon fill="#ffffff" stroke="#000000" points="117,-112.5 117,-131.5 192,-131.5 192,-112.5 117,-112.5"/>
<text text-anchor="middle" x="154.5" y="-119.5" font-family="Helvetica,sans-Serif" font-size="10.00" fill="#000000">core/util/log.h</text>
</a>
</g>
</g>
<!-- Node13&#45;&gt;Node15 -->
<g id="edge15" class="edge">
<title>Node13&#45;&gt;Node15</title>
<path fill="none" stroke="#191970" d="M154.5,-168.2455C154.5,-160.9382 154.5,-150.6944 154.5,-141.7046"/>
<polygon fill="#191970" stroke="#191970" points="158.0001,-141.6426 154.5,-131.6427 151.0001,-141.6427 158.0001,-141.6426"/>
</g>
<!-- Node15&#45;&gt;Node3 -->
<g id="edge17" class="edge">
<title>Node15&#45;&gt;Node3</title>
<path fill="none" stroke="#191970" d="M131.6365,-112.3733C109.8339,-103.1932 76.8273,-89.2957 52.6313,-79.1079"/>
<polygon fill="#191970" stroke="#191970" points="53.759,-75.7852 43.1845,-75.1303 51.0426,-82.2367 53.759,-75.7852"/>
</g>
<!-- Node16 -->
<g id="node17" class="node">
<title>Node16</title>
<polygon fill="#ffffff" stroke="#bfbfbf" points="61.5,-56.5 61.5,-75.5 113.5,-75.5 113.5,-56.5 61.5,-56.5"/>
<text text-anchor="middle" x="87.5" y="-63.5" font-family="Helvetica,sans-Serif" font-size="10.00" fill="#000000">TError.h</text>
</g>
<!-- Node15&#45;&gt;Node16 -->
<g id="edge16" class="edge">
<title>Node15&#45;&gt;Node16</title>
<path fill="none" stroke="#191970" d="M142.8295,-112.2455C132.9339,-103.9746 118.5373,-91.9416 106.9099,-82.2232"/>
<polygon fill="#191970" stroke="#191970" points="108.9542,-79.3703 99.0368,-75.6427 104.465,-84.7413 108.9542,-79.3703"/>
</g>
<!-- Node17 -->
<g id="node18" class="node">
<title>Node17</title>
<polygon fill="#ffffff" stroke="#bfbfbf" points="132,-56.5 132,-75.5 177,-75.5 177,-56.5 132,-56.5"/>
<text text-anchor="middle" x="154.5" y="-63.5" font-family="Helvetica,sans-Serif" font-size="10.00" fill="#000000">cstdlib</text>
</g>
<!-- Node15&#45;&gt;Node17 -->
<g id="edge18" class="edge">
<title>Node15&#45;&gt;Node17</title>
<path fill="none" stroke="#191970" d="M154.5,-112.2455C154.5,-104.9382 154.5,-94.6944 154.5,-85.7046"/>
<polygon fill="#191970" stroke="#191970" points="158.0001,-85.6426 154.5,-75.6427 151.0001,-85.6427 158.0001,-85.6426"/>
</g>
<!-- Node18 -->
<g id="node19" class="node">
<title>Node18</title>
<polygon fill="#ffffff" stroke="#bfbfbf" points="195.5,-56.5 195.5,-75.5 249.5,-75.5 249.5,-56.5 195.5,-56.5"/>
<text text-anchor="middle" x="222.5" y="-63.5" font-family="Helvetica,sans-Serif" font-size="10.00" fill="#000000">iostream</text>
</g>
<!-- Node15&#45;&gt;Node18 -->
<g id="edge19" class="edge">
<title>Node15&#45;&gt;Node18</title>
<path fill="none" stroke="#191970" d="M166.3447,-112.2455C176.388,-103.9746 190.9995,-91.9416 202.8004,-82.2232"/>
<polygon fill="#191970" stroke="#191970" points="205.2967,-84.7015 210.791,-75.6427 200.8467,-79.298 205.2967,-84.7015"/>
</g>
<!-- Node19 -->
<g id="node20" class="node">
<title>Node19</title>
<polygon fill="#ffffff" stroke="#bfbfbf" points="260,-.5 260,-19.5 301,-19.5 301,-.5 260,-.5"/>
<text text-anchor="middle" x="280.5" y="-7.5" font-family="Helvetica,sans-Serif" font-size="10.00" fill="#000000">string</text>
</g>
<!-- Node15&#45;&gt;Node19 -->
<g id="edge20" class="edge">
<title>Node15&#45;&gt;Node19</title>
<path fill="none" stroke="#191970" d="M192.2253,-113.4935C214.2728,-106.73 241.098,-95.133 258.5,-76 270.0426,-63.3093 275.5492,-44.3847 278.1645,-30.0499"/>
<polygon fill="#191970" stroke="#191970" points="281.688,-30.1515 279.7021,-19.7444 274.7646,-29.1184 281.688,-30.1515"/>
</g>
<!-- Node20 -->
<g id="node21" class="node">
<title>Node20</title>
<g id="a_node21"><a xlink:href="string_8h.html" target="_top" xlink:title="core/util/string.h">
<polygon fill="#ffffff" stroke="#000000" points="305.5,-56.5 305.5,-75.5 391.5,-75.5 391.5,-56.5 305.5,-56.5"/>
<text text-anchor="middle" x="348.5" y="-63.5" font-family="Helvetica,sans-Serif" font-size="10.00" fill="#000000">core/util/string.h</text>
</a>
</g>
</g>
<!-- Node15&#45;&gt;Node20 -->
<g id="edge21" class="edge">
<title>Node15&#45;&gt;Node20</title>
<path fill="none" stroke="#191970" d="M187.8498,-112.3733C220.528,-102.9404 270.4618,-88.5265 305.977,-78.2747"/>
<polygon fill="#191970" stroke="#191970" points="306.9484,-81.6373 315.5854,-75.5011 305.007,-74.9119 306.9484,-81.6373"/>
</g>
<!-- Node20&#45;&gt;Node19 -->
<g id="edge23" class="edge">
<title>Node20&#45;&gt;Node19</title>
<path fill="none" stroke="#191970" d="M336.6553,-56.2455C326.612,-47.9746 312.0005,-35.9416 300.1996,-26.2232"/>
<polygon fill="#191970" stroke="#191970" points="302.1533,-23.298 292.209,-19.6427 297.7033,-28.7015 302.1533,-23.298"/>
</g>
<!-- Node21 -->
<g id="node22" class="node">
<title>Node21</title>
<polygon fill="#ffffff" stroke="#bfbfbf" points="322.5,-.5 322.5,-19.5 374.5,-19.5 374.5,-.5 322.5,-.5"/>
<text text-anchor="middle" x="348.5" y="-7.5" font-family="Helvetica,sans-Serif" font-size="10.00" fill="#000000">sstream</text>
</g>
<!-- Node20&#45;&gt;Node21 -->
<g id="edge22" class="edge">
<title>Node20&#45;&gt;Node21</title>
<path fill="none" stroke="#191970" d="M348.5,-56.2455C348.5,-48.9382 348.5,-38.6944 348.5,-29.7046"/>
<polygon fill="#191970" stroke="#191970" points="352.0001,-29.6426 348.5,-19.6427 345.0001,-29.6427 352.0001,-29.6426"/>
</g>
</g>
</svg>
