<?xml version="1.0" encoding="UTF-8" standalone="no"?>
<!DOCTYPE svg PUBLIC "-//W3C//DTD SVG 1.1//EN"
 "http://www.w3.org/Graphics/SVG/1.1/DTD/svg11.dtd">
<!-- Generated by graphviz version 2.40.1 (20161225.0304)
 -->
<!-- Title: core/util/random.h Pages: 1 -->
<svg width="3156pt" height="553pt"
 viewBox="0.00 0.00 3155.50 553.00" xmlns="http://www.w3.org/2000/svg" xmlns:xlink="http://www.w3.org/1999/xlink">
<g id="graph0" class="graph" transform="scale(1 1) rotate(0) translate(4 549)">
<title>core/util/random.h</title>
<polygon fill="#ffffff" stroke="transparent" points="-4,4 -4,-549 3151.5,-549 3151.5,4 -4,4"/>
<!-- Node22 -->
<g id="node1" class="node">
<title>Node22</title>
<polygon fill="#bfbfbf" stroke="#000000" points="2867,-525.5 2867,-544.5 2962,-544.5 2962,-525.5 2867,-525.5"/>
<text text-anchor="middle" x="2914.5" y="-532.5" font-family="Helvetica,sans-Serif" font-size="10.00" fill="#000000">core/util/random.h</text>
</g>
<!-- Node23 -->
<g id="node2" class="node">
<title>Node23</title>
<g id="a_node2"><a xlink:href="simulation_8h.html" target="_top" xlink:title="core/simulation.h">
<polygon fill="#ffffff" stroke="#000000" points="1015,-469.5 1015,-488.5 1106,-488.5 1106,-469.5 1015,-469.5"/>
<text text-anchor="middle" x="1060.5" y="-476.5" font-family="Helvetica,sans-Serif" font-size="10.00" fill="#000000">core/simulation.h</text>
</a>
</g>
</g>
<!-- Node22&#45;&gt;Node23 -->
<g id="edge1" class="edge">
<title>Node22&#45;&gt;Node23</title>
<path fill="none" stroke="#191970" d="M2856.4269,-533.2459C2575.1913,-524.7512 1358.0087,-487.9862 1106.1962,-480.3803"/>
<polygon fill="#191970" stroke="#191970" points="2856.7063,-536.7558 2866.8074,-533.5594 2856.9177,-529.759 2856.7063,-536.7558"/>
</g>
<!-- Node54 -->
<g id="node20" class="node">
<title>Node54</title>
<g id="a_node20"><a xlink:href="model__initializer_8h.html" target="_top" xlink:title="core/model_initializer.h">
<polygon fill="#ffffff" stroke="#000000" points="2636.5,-140 2636.5,-159 2752.5,-159 2752.5,-140 2636.5,-140"/>
<text text-anchor="middle" x="2694.5" y="-147" font-family="Helvetica,sans-Serif" font-size="10.00" fill="#000000">core/model_initializer.h</text>
</a>
</g>
</g>
<!-- Node22&#45;&gt;Node54 -->
<g id="edge136" class="edge">
<title>Node22&#45;&gt;Node54</title>
<path fill="none" stroke="#191970" d="M2926.7202,-516.7837C2949.3923,-480.5246 2993.0061,-397.4376 2962.5,-335 2913.9364,-235.6036 2783.2499,-179.837 2724.1925,-159.03"/>
<polygon fill="#191970" stroke="#191970" points="2923.6851,-515.0322 2921.2116,-525.3342 2929.5697,-518.8232 2923.6851,-515.0322"/>
</g>
<!-- Node33 -->
<g id="node26" class="node">
<title>Node33</title>
<g id="a_node26"><a xlink:href="neurite__element_8h.html" target="_top" xlink:title="neuroscience/neurite\l_element.h">
<polygon fill="#ffffff" stroke="#000000" points="2426,-201.5 2426,-231.5 2533,-231.5 2533,-201.5 2426,-201.5"/>
<text text-anchor="start" x="2434" y="-219.5" font-family="Helvetica,sans-Serif" font-size="10.00" fill="#000000">neuroscience/neurite</text>
<text text-anchor="middle" x="2479.5" y="-208.5" font-family="Helvetica,sans-Serif" font-size="10.00" fill="#000000">_element.h</text>
</a>
</g>
</g>
<!-- Node22&#45;&gt;Node33 -->
<g id="edge137" class="edge">
<title>Node22&#45;&gt;Node33</title>
<path fill="none" stroke="#191970" d="M2893.3407,-519.5075C2819.3876,-465.3602 2573.0077,-284.9648 2500.0347,-231.5352"/>
<polygon fill="#191970" stroke="#191970" points="2891.3451,-522.3843 2901.4813,-525.4679 2895.4805,-516.7363 2891.3451,-522.3843"/>
</g>
<!-- Node38 -->
<g id="node27" class="node">
<title>Node38</title>
<g id="a_node27"><a xlink:href="default__force_8cc.html" target="_top" xlink:title="core/default_force.cc">
<polygon fill="#ffffff" stroke="#000000" points="2884.5,-140 2884.5,-159 2992.5,-159 2992.5,-140 2884.5,-140"/>
<text text-anchor="middle" x="2938.5" y="-147" font-family="Helvetica,sans-Serif" font-size="10.00" fill="#000000">core/default_force.cc</text>
</a>
</g>
</g>
<!-- Node22&#45;&gt;Node38 -->
<g id="edge138" class="edge">
<title>Node22&#45;&gt;Node38</title>
<path fill="none" stroke="#191970" d="M2951.3646,-521.1043C2966.8508,-513.6497 2983.9193,-503.0579 2995.5,-489 3016.8131,-463.1281 3019.5,-451.0202 3019.5,-417.5 3019.5,-417.5 3019.5,-417.5 3019.5,-283.5 3019.5,-229.9478 2971.5336,-179.4639 2949.424,-159.0384"/>
<polygon fill="#191970" stroke="#191970" points="2949.6596,-518.034 2941.9899,-525.3434 2952.5438,-524.4122 2949.6596,-518.034"/>
</g>
<!-- Node78 -->
<g id="node48" class="node">
<title>Node78</title>
<g id="a_node48"><a xlink:href="math_8h.html" target="_top" xlink:title="core/util/math.h">
<polygon fill="#ffffff" stroke="#000000" points="2463.5,-469.5 2463.5,-488.5 2547.5,-488.5 2547.5,-469.5 2463.5,-469.5"/>
<text text-anchor="middle" x="2505.5" y="-476.5" font-family="Helvetica,sans-Serif" font-size="10.00" fill="#000000">core/util/math.h</text>
</a>
</g>
</g>
<!-- Node22&#45;&gt;Node78 -->
<g id="edge126" class="edge">
<title>Node22&#45;&gt;Node78</title>
<path fill="none" stroke="#191970" d="M2856.7206,-527.0889C2773.36,-515.6752 2621.3018,-494.8555 2547.6767,-484.7748"/>
<polygon fill="#191970" stroke="#191970" points="2856.3997,-530.5775 2866.782,-528.4665 2857.3493,-523.6422 2856.3997,-530.5775"/>
</g>
<!-- Node80 -->
<g id="node50" class="node">
<title>Node80</title>
<g id="a_node50"><a xlink:href="random_8cc.html" target="_top" xlink:title="core/util/random.cc">
<polygon fill="#ffffff" stroke="#000000" points="3047.5,-469.5 3047.5,-488.5 3147.5,-488.5 3147.5,-469.5 3047.5,-469.5"/>
<text text-anchor="middle" x="3097.5" y="-476.5" font-family="Helvetica,sans-Serif" font-size="10.00" fill="#000000">core/util/random.cc</text>
</a>
</g>
</g>
<!-- Node22&#45;&gt;Node80 -->
<g id="edge139" class="edge">
<title>Node22&#45;&gt;Node80</title>
<path fill="none" stroke="#191970" d="M2955.925,-522.3235C2989.4856,-512.0536 3036.034,-497.8093 3066.4517,-488.5011"/>
<polygon fill="#191970" stroke="#191970" points="2954.4969,-519.1002 2945.9588,-525.3733 2956.5453,-525.7938 2954.4969,-519.1002"/>
</g>
<!-- Node24 -->
<g id="node3" class="node">
<title>Node24</title>
<g id="a_node3"><a xlink:href="so__pointer_8h.html" target="_top" xlink:title="core/sim_object/so\l_pointer.h">
<polygon fill="#ffffff" stroke="#000000" points="1936,-402.5 1936,-432.5 2035,-432.5 2035,-402.5 1936,-402.5"/>
<text text-anchor="start" x="1944" y="-420.5" font-family="Helvetica,sans-Serif" font-size="10.00" fill="#000000">core/sim_object/so</text>
<text text-anchor="middle" x="1985.5" y="-409.5" font-family="Helvetica,sans-Serif" font-size="10.00" fill="#000000">_pointer.h</text>
</a>
</g>
</g>
<!-- Node23&#45;&gt;Node24 -->
<g id="edge2" class="edge">
<title>Node23&#45;&gt;Node24</title>
<path fill="none" stroke="#191970" d="M1116.4709,-477.7044C1249.6834,-474.2216 1595.9286,-462.8184 1883.5,-433 1900.6035,-431.2265 1919.2231,-428.6035 1935.8166,-426.0174"/>
<polygon fill="#191970" stroke="#191970" points="1116.0291,-474.2145 1106.1223,-477.9701 1116.2089,-481.2122 1116.0291,-474.2145"/>
</g>
<!-- Node42 -->
<g id="node7" class="node">
<title>Node42</title>
<g id="a_node7"><a xlink:href="exporter_8cc.html" target="_top" xlink:title="core/exporter.cc">
<polygon fill="#ffffff" stroke="#000000" points="1818,-140 1818,-159 1905,-159 1905,-140 1818,-140"/>
<text text-anchor="middle" x="1861.5" y="-147" font-family="Helvetica,sans-Serif" font-size="10.00" fill="#000000">core/exporter.cc</text>
</a>
</g>
</g>
<!-- Node23&#45;&gt;Node42 -->
<g id="edge107" class="edge">
<title>Node23&#45;&gt;Node42</title>
<path fill="none" stroke="#191970" d="M1116.3272,-477.2692C1285.8558,-471.7931 1784.8326,-453.9624 1812.5,-433 1887.8985,-375.8738 1866.7235,-325.2708 1882.5,-232 1884.7978,-218.4152 1885.1506,-214.5204 1882.5,-201 1879.4907,-185.6499 1871.8805,-169.104 1866.6976,-159.0227"/>
<polygon fill="#191970" stroke="#191970" points="1116.002,-473.7778 1106.1195,-477.5968 1116.2266,-480.7741 1116.002,-473.7778"/>
</g>
<!-- Node43 -->
<g id="node8" class="node">
<title>Node43</title>
<g id="a_node8"><a xlink:href="displacement__op__cuda_8h.html" target="_top" xlink:title="core/operation/displacement\l_op_cuda.h">
<polygon fill="#ffffff" stroke="#ff0000" points="1671,-.5 1671,-30.5 1810,-30.5 1810,-.5 1671,-.5"/>
<text text-anchor="start" x="1679" y="-18.5" font-family="Helvetica,sans-Serif" font-size="10.00" fill="#000000">core/operation/displacement</text>
<text text-anchor="middle" x="1740.5" y="-7.5" font-family="Helvetica,sans-Serif" font-size="10.00" fill="#000000">_op_cuda.h</text>
</a>
</g>
</g>
<!-- Node23&#45;&gt;Node43 -->
<g id="edge113" class="edge">
<title>Node23&#45;&gt;Node43</title>
<path fill="none" stroke="#191970" d="M1116.5039,-477.6396C1315.5732,-472.642 1982.0806,-454.4665 2075.5,-433 2295.7247,-382.3954 2405.94,-412.0309 2542.5,-232 2568.9333,-197.1522 2580.105,-167.0884 2551.5,-134 2503.1091,-78.0246 1997.9667,-34.7807 1810.2395,-20.5321"/>
<polygon fill="#191970" stroke="#191970" points="1116.1826,-474.1465 1106.2732,-477.8952 1116.3575,-481.1443 1116.1826,-474.1465"/>
</g>
<!-- Node45 -->
<g id="node9" class="node">
<title>Node45</title>
<g id="a_node9"><a xlink:href="dividing__cell__op_8h.html" target="_top" xlink:title="core/operation/dividing\l_cell_op.h">
<polygon fill="#ffffff" stroke="#ff0000" points="1017.5,-201.5 1017.5,-231.5 1131.5,-231.5 1131.5,-201.5 1017.5,-201.5"/>
<text text-anchor="start" x="1025.5" y="-219.5" font-family="Helvetica,sans-Serif" font-size="10.00" fill="#000000">core/operation/dividing</text>
<text text-anchor="middle" x="1074.5" y="-208.5" font-family="Helvetica,sans-Serif" font-size="10.00" fill="#000000">_cell_op.h</text>
</a>
</g>
</g>
<!-- Node23&#45;&gt;Node45 -->
<g id="edge114" class="edge">
<title>Node23&#45;&gt;Node45</title>
<path fill="none" stroke="#191970" d="M1061.5592,-459.14C1064.2455,-408.7725 1071.2807,-276.8621 1073.6826,-231.8267"/>
<polygon fill="#191970" stroke="#191970" points="1058.0525,-459.1739 1061.0149,-469.3462 1065.0426,-459.5468 1058.0525,-459.1739"/>
</g>
<!-- Node47 -->
<g id="node10" class="node">
<title>Node47</title>
<g id="a_node10"><a xlink:href="resource__manager_8h.html" target="_top" xlink:title="core/resource_manager.h">
<polygon fill="#ffffff" stroke="#000000" points="1574,-207 1574,-226 1701,-226 1701,-207 1574,-207"/>
<text text-anchor="middle" x="1637.5" y="-214" font-family="Helvetica,sans-Serif" font-size="10.00" fill="#000000">core/resource_manager.h</text>
</a>
</g>
</g>
<!-- Node23&#45;&gt;Node47 -->
<g id="edge97" class="edge">
<title>Node23&#45;&gt;Node47</title>
<path fill="none" stroke="#191970" d="M1098.3621,-466.1866C1123.563,-457.4118 1157.2837,-445.1961 1186.5,-433 1358.4215,-361.2326 1558.8695,-257.7355 1619.3406,-226.0658"/>
<polygon fill="#191970" stroke="#191970" points="1097.114,-462.9147 1088.8072,-469.491 1099.4019,-469.5303 1097.114,-462.9147"/>
</g>
<!-- Node37 -->
<g id="node13" class="node">
<title>Node37</title>
<g id="a_node13"><a xlink:href="simulation_8cc.html" target="_top" xlink:title="core/simulation.cc">
<polygon fill="#ffffff" stroke="#000000" points="513.5,-6 513.5,-25 609.5,-25 609.5,-6 513.5,-6"/>
<text text-anchor="middle" x="561.5" y="-13" font-family="Helvetica,sans-Serif" font-size="10.00" fill="#000000">core/simulation.cc</text>
</a>
</g>
</g>
<!-- Node23&#45;&gt;Node37 -->
<g id="edge121" class="edge">
<title>Node23&#45;&gt;Node37</title>
<path fill="none" stroke="#191970" d="M1004.7451,-478.7483C825.6883,-477.5641 272.8078,-470.8488 202.5,-433 162.3474,-411.3846 141.5,-396.1011 141.5,-350.5 141.5,-350.5 141.5,-350.5 141.5,-149.5 141.5,-109.6701 144.8228,-91.1448 176.5,-67 202.8805,-46.8925 416.1216,-27.2726 513.4159,-19.2678"/>
<polygon fill="#191970" stroke="#191970" points="1004.9721,-482.2497 1014.9939,-478.8127 1005.0161,-475.2499 1004.9721,-482.2497"/>
</g>
<!-- Node51 -->
<g id="node15" class="node">
<title>Node51</title>
<g id="a_node15"><a xlink:href="diffusion__op_8h.html" target="_top" xlink:title="core/operation/diffusion_op.h">
<polygon fill="#ffffff" stroke="#ff0000" points="1268.5,-73 1268.5,-92 1410.5,-92 1410.5,-73 1268.5,-73"/>
<text text-anchor="middle" x="1339.5" y="-80" font-family="Helvetica,sans-Serif" font-size="10.00" fill="#000000">core/operation/diffusion_op.h</text>
</a>
</g>
</g>
<!-- Node23&#45;&gt;Node51 -->
<g id="edge111" class="edge">
<title>Node23&#45;&gt;Node51</title>
<path fill="none" stroke="#191970" d="M1053.0767,-459.8088C1031.8664,-403.4901 974.6413,-240.1743 1008.5,-201 1080.7558,-117.4005 1155.3849,-213.8465 1254.5,-165 1289.9171,-147.5455 1320.021,-109.8665 1332.8595,-92.1179"/>
<polygon fill="#191970" stroke="#191970" points="1049.863,-461.2047 1056.6948,-469.3027 1056.4041,-458.7118 1049.863,-461.2047"/>
</g>
<!-- Node36 -->
<g id="node16" class="node">
<title>Node36</title>
<g id="a_node16"><a xlink:href="scheduler_8cc.html" target="_top" xlink:title="core/scheduler.cc">
<polygon fill="#ffffff" stroke="#000000" points="976.5,-6 976.5,-25 1070.5,-25 1070.5,-6 976.5,-6"/>
<text text-anchor="middle" x="1023.5" y="-13" font-family="Helvetica,sans-Serif" font-size="10.00" fill="#000000">core/scheduler.cc</text>
</a>
</g>
</g>
<!-- Node23&#45;&gt;Node36 -->
<g id="edge117" class="edge">
<title>Node23&#45;&gt;Node36</title>
<path fill="none" stroke="#191970" d="M1004.6576,-476.5238C890.725,-471.0136 639.5681,-456.353 608.5,-433 559.1123,-395.8767 576.0728,-360.6147 571.5,-299 562.8313,-182.196 589.8767,-115.4746 696.5,-67 745.5477,-44.7013 898.1647,-27.4399 976.3269,-19.799"/>
<polygon fill="#191970" stroke="#191970" points="1004.7606,-480.0326 1014.916,-477.0131 1005.0941,-473.0405 1004.7606,-480.0326"/>
</g>
<!-- Node52 -->
<g id="node17" class="node">
<title>Node52</title>
<g id="a_node17"><a xlink:href="displacement__op_8h.html" target="_top" xlink:title="core/operation/displacement_op.h">
<polygon fill="#ffffff" stroke="#ff0000" points="942,-73 942,-92 1105,-92 1105,-73 942,-73"/>
<text text-anchor="middle" x="1023.5" y="-80" font-family="Helvetica,sans-Serif" font-size="10.00" fill="#000000">core/operation/displacement_op.h</text>
</a>
</g>
</g>
<!-- Node23&#45;&gt;Node52 -->
<g id="edge112" class="edge">
<title>Node23&#45;&gt;Node52</title>
<path fill="none" stroke="#191970" d="M1004.9213,-469.7101C959.3339,-461.224 899.2189,-447.7777 879.5,-433 783.6755,-361.1876 836.4236,-275.2814 742.5,-201 700.1598,-167.5144 658.5178,-208.4608 626.5,-165 618.328,-153.9074 617.4059,-144.3501 626.5,-134 636.8075,-122.269 828.3661,-101.6217 941.5638,-90.3627"/>
<polygon fill="#191970" stroke="#191970" points="1004.5256,-473.1956 1014.9916,-471.5488 1005.7829,-466.3095 1004.5256,-473.1956"/>
</g>
<!-- Node30 -->
<g id="node19" class="node">
<title>Node30</title>
<g id="a_node19"><a xlink:href="sim__object_8cc.html" target="_top" xlink:title="core/sim_object/sim\l_object.cc">
<polygon fill="#ffffff" stroke="#000000" points="705.5,-67.5 705.5,-97.5 809.5,-97.5 809.5,-67.5 705.5,-67.5"/>
<text text-anchor="start" x="713.5" y="-85.5" font-family="Helvetica,sans-Serif" font-size="10.00" fill="#000000">core/sim_object/sim</text>
<text text-anchor="middle" x="757.5" y="-74.5" font-family="Helvetica,sans-Serif" font-size="10.00" fill="#000000">_object.cc</text>
</a>
</g>
</g>
<!-- Node23&#45;&gt;Node30 -->
<g id="edge120" class="edge">
<title>Node23&#45;&gt;Node30</title>
<path fill="none" stroke="#191970" d="M1004.6765,-476.7027C865.3615,-470.6888 509.9864,-453.5212 460.5,-433 418.2857,-415.4945 401.5742,-407.5291 382.5,-366 321.3746,-232.9151 483.696,-195.7332 616.5,-134 646.8677,-119.8838 682.275,-106.9631 710.0112,-97.5945"/>
<polygon fill="#191970" stroke="#191970" points="1004.5808,-480.2017 1014.7215,-477.1331 1004.8806,-473.2081 1004.5808,-480.2017"/>
</g>
<!-- Node23&#45;&gt;Node54 -->
<g id="edge98" class="edge">
<title>Node23&#45;&gt;Node54</title>
<path fill="none" stroke="#191970" d="M1116.3595,-478.2481C1371.5706,-474.6781 2417.07,-458.544 2481.5,-433 2609.979,-382.0631 2676.9248,-202.44 2691.4546,-159.0071"/>
<polygon fill="#191970" stroke="#191970" points="1116.1574,-474.7504 1106.207,-478.3893 1116.2548,-481.7498 1116.1574,-474.7504"/>
</g>
<!-- Node34 -->
<g id="node21" class="node">
<title>Node34</title>
<g id="a_node21"><a xlink:href="root_2adaptor_8h.html" target="_top" xlink:title="core/visualization\l/root/adaptor.h">
<polygon fill="#ffffff" stroke="#000000" points="1999.5,-134.5 1999.5,-164.5 2091.5,-164.5 2091.5,-134.5 1999.5,-134.5"/>
<text text-anchor="start" x="2007.5" y="-152.5" font-family="Helvetica,sans-Serif" font-size="10.00" fill="#000000">core/visualization</text>
<text text-anchor="middle" x="2045.5" y="-141.5" font-family="Helvetica,sans-Serif" font-size="10.00" fill="#000000">/root/adaptor.h</text>
</a>
</g>
</g>
<!-- Node23&#45;&gt;Node34 -->
<g id="edge104" class="edge">
<title>Node23&#45;&gt;Node34</title>
<path fill="none" stroke="#191970" d="M1116.1548,-477.7107C1318.2023,-472.8603 2003.3256,-454.8669 2044.5,-433 2077.3151,-415.5726 2082.7925,-401.263 2094.5,-366 2118.9679,-292.3026 2074.5605,-200.4904 2054.5437,-164.7386"/>
<polygon fill="#191970" stroke="#191970" points="1115.9734,-474.2139 1106.0598,-477.9517 1116.1406,-481.2119 1115.9734,-474.2139"/>
</g>
<!-- Node35 -->
<g id="node22" class="node">
<title>Node35</title>
<g id="a_node22"><a xlink:href="notebook__util_8h.html" target="_top" xlink:title="core/visualization\l/root/notebook_util.h">
<polygon fill="#ffffff" stroke="#000000" points="2609,-67.5 2609,-97.5 2714,-97.5 2714,-67.5 2609,-67.5"/>
<text text-anchor="start" x="2617" y="-85.5" font-family="Helvetica,sans-Serif" font-size="10.00" fill="#000000">core/visualization</text>
<text text-anchor="middle" x="2661.5" y="-74.5" font-family="Helvetica,sans-Serif" font-size="10.00" fill="#000000">/root/notebook_util.h</text>
</a>
</g>
</g>
<!-- Node23&#45;&gt;Node35 -->
<g id="edge103" class="edge">
<title>Node23&#45;&gt;Node35</title>
<path fill="none" stroke="#191970" d="M1116.6276,-478.2589C1376.7027,-474.6941 2454.8098,-458.4329 2521.5,-433 2616.3078,-396.8442 2759.0099,-172.1264 2761.5,-165 2766.0447,-151.9934 2768.6734,-145.7631 2761.5,-134 2750.926,-116.6605 2732.4395,-104.9099 2714.2145,-97.0688"/>
<polygon fill="#191970" stroke="#191970" points="1116.2403,-474.7637 1106.289,-478.3998 1116.3358,-481.7631 1116.2403,-474.7637"/>
</g>
<!-- Node55 -->
<g id="node23" class="node">
<title>Node55</title>
<g id="a_node23"><a xlink:href="sim__object__vector_8h.html" target="_top" xlink:title="core/container/sim\l_object_vector.h">
<polygon fill="#ffffff" stroke="#000000" points="1148,-134.5 1148,-164.5 1245,-164.5 1245,-134.5 1148,-134.5"/>
<text text-anchor="start" x="1156" y="-152.5" font-family="Helvetica,sans-Serif" font-size="10.00" fill="#000000">core/container/sim</text>
<text text-anchor="middle" x="1196.5" y="-141.5" font-family="Helvetica,sans-Serif" font-size="10.00" fill="#000000">_object_vector.h</text>
</a>
</g>
</g>
<!-- Node23&#45;&gt;Node55 -->
<g id="edge105" class="edge">
<title>Node23&#45;&gt;Node55</title>
<path fill="none" stroke="#191970" d="M1045.5376,-461.733C1006.7483,-414.8236 910.3667,-283.0566 975.5,-201 996.5946,-174.4246 1089.3553,-160.2962 1147.7906,-153.8964"/>
<polygon fill="#191970" stroke="#191970" points="1042.9387,-464.0804 1052.0583,-469.4734 1048.2923,-459.5705 1042.9387,-464.0804"/>
</g>
<!-- Node56 -->
<g id="node24" class="node">
<title>Node56</title>
<g id="a_node24"><a xlink:href="paraview_2adaptor_8h.html" target="_top" xlink:title="core/visualization\l/paraview/adaptor.h">
<polygon fill="#ffffff" stroke="#ff0000" points="635.5,-134.5 635.5,-164.5 737.5,-164.5 737.5,-134.5 635.5,-134.5"/>
<text text-anchor="start" x="643.5" y="-152.5" font-family="Helvetica,sans-Serif" font-size="10.00" fill="#000000">core/visualization</text>
<text text-anchor="middle" x="686.5" y="-141.5" font-family="Helvetica,sans-Serif" font-size="10.00" fill="#000000">/paraview/adaptor.h</text>
</a>
</g>
</g>
<!-- Node23&#45;&gt;Node56 -->
<g id="edge122" class="edge">
<title>Node23&#45;&gt;Node56</title>
<path fill="none" stroke="#191970" d="M1004.6182,-475.8289C915.1684,-470.1305 744.2288,-456.5081 688.5,-433 634.4593,-410.2041 585.5,-409.1519 585.5,-350.5 585.5,-350.5 585.5,-350.5 585.5,-283.5 585.5,-244.9196 589.4742,-231.9557 612.5,-201 623.8034,-185.8038 640.9535,-173.4674 655.898,-164.6824"/>
<polygon fill="#191970" stroke="#191970" points="1004.6488,-479.3375 1014.8478,-476.4686 1005.0857,-472.3512 1004.6488,-479.3375"/>
</g>
<!-- Node23&#45;&gt;Node38 -->
<g id="edge106" class="edge">
<title>Node23&#45;&gt;Node38</title>
<path fill="none" stroke="#191970" d="M1116.2037,-478.749C1388.059,-477.35 2565.2114,-469.2145 2633.5,-433 2713.3785,-390.6392 2686.7528,-330.067 2752.5,-268 2805.3997,-218.0613 2882.2331,-176.9756 2918.3342,-159.11"/>
<polygon fill="#191970" stroke="#191970" points="1116.1522,-475.2491 1106.17,-478.7997 1116.1876,-482.249 1116.1522,-475.2491"/>
</g>
<!-- Node59 -->
<g id="node31" class="node">
<title>Node59</title>
<g id="a_node31"><a xlink:href="bound__space__op_8h.html" target="_top" xlink:title="core/operation/bound\l_space_op.h">
<polygon fill="#ffffff" stroke="#ff0000" points="908,-134.5 908,-164.5 1015,-164.5 1015,-134.5 908,-134.5"/>
<text text-anchor="start" x="916" y="-152.5" font-family="Helvetica,sans-Serif" font-size="10.00" fill="#000000">core/operation/bound</text>
<text text-anchor="middle" x="961.5" y="-141.5" font-family="Helvetica,sans-Serif" font-size="10.00" fill="#000000">_space_op.h</text>
</a>
</g>
</g>
<!-- Node23&#45;&gt;Node59 -->
<g id="edge110" class="edge">
<title>Node23&#45;&gt;Node59</title>
<path fill="none" stroke="#191970" d="M1004.9264,-472.8088C974.8212,-466.9176 938.7315,-455.4233 913.5,-433 840.337,-367.9798 843.9514,-327.7193 823.5,-232 820.6212,-218.5263 815.6433,-212.3181 823.5,-201 833.6349,-186.4002 873.4484,-172.4719 907.7235,-162.7901"/>
<polygon fill="#191970" stroke="#191970" points="1004.4205,-476.2739 1014.8822,-474.5996 1005.6598,-469.3845 1004.4205,-476.2739"/>
</g>
<!-- Node60 -->
<g id="node32" class="node">
<title>Node60</title>
<g id="a_node32"><a xlink:href="helper_8h.html" target="_top" xlink:title="core/visualization\l/paraview/helper.h">
<polygon fill="#ffffff" stroke="#ff0000" points="651.5,-268.5 651.5,-298.5 747.5,-298.5 747.5,-268.5 651.5,-268.5"/>
<text text-anchor="start" x="659.5" y="-286.5" font-family="Helvetica,sans-Serif" font-size="10.00" fill="#000000">core/visualization</text>
<text text-anchor="middle" x="699.5" y="-275.5" font-family="Helvetica,sans-Serif" font-size="10.00" fill="#000000">/paraview/helper.h</text>
</a>
</g>
</g>
<!-- Node23&#45;&gt;Node60 -->
<g id="edge124" class="edge">
<title>Node23&#45;&gt;Node60</title>
<path fill="none" stroke="#191970" d="M1004.5412,-476.8339C928.6448,-472.8341 798.3036,-461.8689 761.5,-433 718.1678,-399.01 704.8447,-329.433 700.9799,-298.686"/>
<polygon fill="#191970" stroke="#191970" points="1004.7107,-480.3468 1014.8738,-477.3532 1005.0621,-473.3556 1004.7107,-480.3468"/>
</g>
<!-- Node61 -->
<g id="node33" class="node">
<title>Node61</title>
<g id="a_node33"><a xlink:href="visualization_2paraview_2so__visitor_8h.html" target="_top" xlink:title="core/visualization\l/paraview/so_visitor.h">
<polygon fill="#ffffff" stroke="#ff0000" points="621.5,-201.5 621.5,-231.5 733.5,-231.5 733.5,-201.5 621.5,-201.5"/>
<text text-anchor="start" x="629.5" y="-219.5" font-family="Helvetica,sans-Serif" font-size="10.00" fill="#000000">core/visualization</text>
<text text-anchor="middle" x="677.5" y="-208.5" font-family="Helvetica,sans-Serif" font-size="10.00" fill="#000000">/paraview/so_visitor.h</text>
</a>
</g>
</g>
<!-- Node23&#45;&gt;Node61 -->
<g id="edge123" class="edge">
<title>Node23&#45;&gt;Node61</title>
<path fill="none" stroke="#191970" d="M1004.6895,-476.6793C923.0251,-472.3768 775.8521,-460.9127 731.5,-433 670.991,-394.919 663.1591,-367.4449 642.5,-299 638.5188,-285.81 638.4487,-281.1687 642.5,-268 646.6323,-254.5678 655.5933,-241.4972 663.4133,-231.8848"/>
<polygon fill="#191970" stroke="#191970" points="1004.6304,-480.1807 1014.7952,-477.1928 1004.9857,-473.1898 1004.6304,-480.1807"/>
</g>
<!-- Node64 -->
<g id="node34" class="node">
<title>Node64</title>
<g id="a_node34"><a xlink:href="timing__aggregator_8h.html" target="_top" xlink:title="core/util/timing_aggregator.h">
<polygon fill="#ffffff" stroke="#000000" points="1663.5,-408 1663.5,-427 1803.5,-427 1803.5,-408 1663.5,-408"/>
<text text-anchor="middle" x="1733.5" y="-415" font-family="Helvetica,sans-Serif" font-size="10.00" fill="#000000">core/util/timing_aggregator.h</text>
</a>
</g>
</g>
<!-- Node23&#45;&gt;Node64 -->
<g id="edge69" class="edge">
<title>Node23&#45;&gt;Node64</title>
<path fill="none" stroke="#191970" d="M1116.2479,-476.8504C1221.7359,-472.3033 1457.6223,-459.8442 1654.5,-433 1665.9944,-431.4327 1678.3397,-429.2524 1689.7758,-427.0213"/>
<polygon fill="#191970" stroke="#191970" points="1115.9925,-473.358 1106.1498,-477.2786 1116.2891,-480.3517 1115.9925,-473.358"/>
</g>
<!-- Node29 -->
<g id="node36" class="node">
<title>Node29</title>
<g id="a_node36"><a xlink:href="regulate__genes_8h.html" target="_top" xlink:title="core/biology_module\l/regulate_genes.h">
<polygon fill="#ffffff" stroke="#000000" points="2761.5,-268.5 2761.5,-298.5 2867.5,-298.5 2867.5,-268.5 2761.5,-268.5"/>
<text text-anchor="start" x="2769.5" y="-286.5" font-family="Helvetica,sans-Serif" font-size="10.00" fill="#000000">core/biology_module</text>
<text text-anchor="middle" x="2814.5" y="-275.5" font-family="Helvetica,sans-Serif" font-size="10.00" fill="#000000">/regulate_genes.h</text>
</a>
</g>
</g>
<!-- Node23&#45;&gt;Node29 -->
<g id="edge90" class="edge">
<title>Node23&#45;&gt;Node29</title>
<path fill="none" stroke="#191970" d="M1116.5937,-478.8435C1397.197,-477.8828 2637.9335,-471.4669 2709.5,-433 2764.5358,-403.4183 2797.0468,-330.834 2809.1091,-298.9485"/>
<polygon fill="#191970" stroke="#191970" points="1116.2383,-475.3445 1106.25,-478.8779 1116.2617,-482.3445 1116.2383,-475.3445"/>
</g>
<!-- Node66 -->
<g id="node37" class="node">
<title>Node66</title>
<g id="a_node37"><a xlink:href="so__uid__generator_8h.html" target="_top" xlink:title="core/sim_object/so\l_uid_generator.h">
<polygon fill="#ffffff" stroke="#000000" points="1612,-268.5 1612,-298.5 1711,-298.5 1711,-268.5 1612,-268.5"/>
<text text-anchor="start" x="1620" y="-286.5" font-family="Helvetica,sans-Serif" font-size="10.00" fill="#000000">core/sim_object/so</text>
<text text-anchor="middle" x="1661.5" y="-275.5" font-family="Helvetica,sans-Serif" font-size="10.00" fill="#000000">_uid_generator.h</text>
</a>
</g>
</g>
<!-- Node23&#45;&gt;Node66 -->
<g id="edge96" class="edge">
<title>Node23&#45;&gt;Node66</title>
<path fill="none" stroke="#191970" d="M1116.0999,-476.1326C1212.0683,-470.6184 1404.5676,-456.9151 1467.5,-433 1489.8615,-424.5024 1489.9992,-412.4862 1511.5,-402 1561.1642,-377.7781 1590.1665,-403.7683 1630.5,-366 1649.7099,-348.0119 1657.1004,-316.9535 1659.8822,-298.5081"/>
<polygon fill="#191970" stroke="#191970" points="1115.7915,-472.6444 1106.0049,-476.7029 1116.1864,-479.6333 1115.7915,-472.6444"/>
</g>
<!-- Node68 -->
<g id="node39" class="node">
<title>Node68</title>
<g id="a_node39"><a xlink:href="timing_8h.html" target="_top" xlink:title="core/util/timing.h">
<polygon fill="#ffffff" stroke="#000000" points="392,-341 392,-360 481,-360 481,-341 392,-341"/>
<text text-anchor="middle" x="436.5" y="-348" font-family="Helvetica,sans-Serif" font-size="10.00" fill="#000000">core/util/timing.h</text>
</a>
</g>
</g>
<!-- Node23&#45;&gt;Node68 -->
<g id="edge116" class="edge">
<title>Node23&#45;&gt;Node68</title>
<path fill="none" stroke="#191970" d="M1004.8371,-477.1184C871.02,-472.2205 539.1007,-457.7103 495.5,-433 466.0866,-416.3302 447.6058,-378.2589 440.2037,-360.265"/>
<polygon fill="#191970" stroke="#191970" points="1004.7638,-480.6179 1014.8838,-477.4816 1005.0168,-473.6225 1004.7638,-480.6179"/>
</g>
<!-- Node69 -->
<g id="node40" class="node">
<title>Node69</title>
<g id="a_node40"><a xlink:href="op__timer_8h.html" target="_top" xlink:title="core/operation/op_timer.h">
<polygon fill="#ffffff" stroke="#000000" points="392,-274 392,-293 519,-293 519,-274 392,-274"/>
<text text-anchor="middle" x="455.5" y="-281" font-family="Helvetica,sans-Serif" font-size="10.00" fill="#000000">core/operation/op_timer.h</text>
</a>
</g>
</g>
<!-- Node23&#45;&gt;Node69 -->
<g id="edge115" class="edge">
<title>Node23&#45;&gt;Node69</title>
<path fill="none" stroke="#191970" d="M1004.3005,-477.283C876.3054,-472.9221 571.2251,-459.8145 533.5,-433 494.5847,-405.3395 512.5052,-376.8362 489.5,-335 481.137,-319.7915 469.7431,-303.208 462.5032,-293.08"/>
<polygon fill="#191970" stroke="#191970" points="1004.5539,-480.7933 1014.6655,-477.6301 1004.7883,-473.7973 1004.5539,-480.7933"/>
</g>
<!-- Node70 -->
<g id="node41" class="node">
<title>Node70</title>
<g id="a_node41"><a xlink:href="diffusion__grid_8h.html" target="_top" xlink:title="core/diffusion_grid.h">
<polygon fill="#ffffff" stroke="#000000" points="1357.5,-274 1357.5,-293 1461.5,-293 1461.5,-274 1357.5,-274"/>
<text text-anchor="middle" x="1409.5" y="-281" font-family="Helvetica,sans-Serif" font-size="10.00" fill="#000000">core/diffusion_grid.h</text>
</a>
</g>
</g>
<!-- Node23&#45;&gt;Node70 -->
<g id="edge91" class="edge">
<title>Node23&#45;&gt;Node70</title>
<path fill="none" stroke="#191970" d="M1086.6345,-464.3602C1154.7001,-426.2318 1336.0709,-324.6329 1392.5001,-293.0229"/>
<polygon fill="#191970" stroke="#191970" points="1084.8209,-461.3643 1077.807,-469.3051 1088.2419,-467.4715 1084.8209,-461.3643"/>
</g>
<!-- Node72 -->
<g id="node43" class="node">
<title>Node72</title>
<g id="a_node43"><a xlink:href="command__line__options_8h.html" target="_top" xlink:title="core/param/command\l_line_options.h">
<polygon fill="#ffffff" stroke="#000000" points="186,-67.5 186,-97.5 297,-97.5 297,-67.5 186,-67.5"/>
<text text-anchor="start" x="194" y="-85.5" font-family="Helvetica,sans-Serif" font-size="10.00" fill="#000000">core/param/command</text>
<text text-anchor="middle" x="241.5" y="-74.5" font-family="Helvetica,sans-Serif" font-size="10.00" fill="#000000">_line_options.h</text>
</a>
</g>
</g>
<!-- Node23&#45;&gt;Node72 -->
<g id="edge99" class="edge">
<title>Node23&#45;&gt;Node72</title>
<path fill="none" stroke="#191970" d="M1004.6064,-477.17C841.3177,-471.603 372.3815,-453.9656 306.5,-433 242.361,-412.589 179.5,-417.8084 179.5,-350.5 179.5,-350.5 179.5,-350.5 179.5,-216.5 179.5,-169.5909 211.1821,-121.273 229.2508,-97.531"/>
<polygon fill="#191970" stroke="#191970" points="1004.7996,-480.6785 1014.9124,-477.5191 1005.0367,-473.6825 1004.7996,-480.6785"/>
</g>
<!-- Node74 -->
<g id="node45" class="node">
<title>Node74</title>
<g id="a_node45"><a xlink:href="gpu__helper_8h.html" target="_top" xlink:title="core/gpu/gpu_helper.h">
<polygon fill="#ffffff" stroke="#000000" points="0,-408 0,-427 113,-427 113,-408 0,-408"/>
<text text-anchor="middle" x="56.5" y="-415" font-family="Helvetica,sans-Serif" font-size="10.00" fill="#000000">core/gpu/gpu_helper.h</text>
</a>
</g>
</g>
<!-- Node23&#45;&gt;Node74 -->
<g id="edge108" class="edge">
<title>Node23&#45;&gt;Node74</title>
<path fill="none" stroke="#191970" d="M1004.6215,-477.4611C830.4144,-472.4716 298.6328,-455.7392 127.5,-433 116.7442,-431.5708 105.2023,-429.3526 94.6163,-427.0369"/>
<polygon fill="#191970" stroke="#191970" points="1004.7485,-480.966 1014.8441,-477.7521 1004.9478,-473.9689 1004.7485,-480.966"/>
</g>
<!-- Node75 -->
<g id="node46" class="node">
<title>Node75</title>
<g id="a_node46"><a xlink:href="simulation__backup_8h.html" target="_top" xlink:title="core/simulation_backup.h">
<polygon fill="#ffffff" stroke="#ff0000" points="207.5,-341 207.5,-360 335.5,-360 335.5,-341 207.5,-341"/>
<text text-anchor="middle" x="271.5" y="-348" font-family="Helvetica,sans-Serif" font-size="10.00" fill="#000000">core/simulation_backup.h</text>
</a>
</g>
</g>
<!-- Node23&#45;&gt;Node75 -->
<g id="edge118" class="edge">
<title>Node23&#45;&gt;Node75</title>
<path fill="none" stroke="#191970" d="M1004.5867,-477.7273C847.2199,-473.8181 408.1587,-460.545 349.5,-433 315.0654,-416.8301 288.2185,-378.1505 277.0902,-360.0921"/>
<polygon fill="#191970" stroke="#191970" points="1004.8972,-481.2358 1014.9799,-477.9819 1005.0687,-474.2379 1004.8972,-481.2358"/>
</g>
<!-- Node77 -->
<g id="node47" class="node">
<title>Node77</title>
<g id="a_node47"><a xlink:href="visualization__adaptor_8cc.html" target="_top" xlink:title="core/visualization\l/visualization_adaptor.cc">
<polygon fill="#ffffff" stroke="#000000" points="1520,-402.5 1520,-432.5 1645,-432.5 1645,-402.5 1520,-402.5"/>
<text text-anchor="start" x="1528" y="-420.5" font-family="Helvetica,sans-Serif" font-size="10.00" fill="#000000">core/visualization</text>
<text text-anchor="middle" x="1582.5" y="-409.5" font-family="Helvetica,sans-Serif" font-size="10.00" fill="#000000">/visualization_adaptor.cc</text>
</a>
</g>
</g>
<!-- Node23&#45;&gt;Node77 -->
<g id="edge125" class="edge">
<title>Node23&#45;&gt;Node77</title>
<path fill="none" stroke="#191970" d="M1116.311,-474.9544C1200.823,-468.4397 1366.1835,-454.1731 1505.5,-433 1510.2185,-432.2829 1515.0861,-431.4721 1519.9737,-430.6068"/>
<polygon fill="#191970" stroke="#191970" points="1115.8704,-471.4778 1106.166,-475.7291 1116.4035,-478.4575 1115.8704,-471.4778"/>
</g>
<!-- Node25 -->
<g id="node4" class="node">
<title>Node25</title>
<g id="a_node4"><a xlink:href="sim__object_8h.html" target="_top" xlink:title="core/sim_object/sim\l_object.h">
<polygon fill="#ffffff" stroke="#ff0000" points="1517.5,-335.5 1517.5,-365.5 1621.5,-365.5 1621.5,-335.5 1517.5,-335.5"/>
<text text-anchor="start" x="1525.5" y="-353.5" font-family="Helvetica,sans-Serif" font-size="10.00" fill="#000000">core/sim_object/sim</text>
<text text-anchor="middle" x="1569.5" y="-342.5" font-family="Helvetica,sans-Serif" font-size="10.00" fill="#000000">_object.h</text>
</a>
</g>
</g>
<!-- Node24&#45;&gt;Node25 -->
<g id="edge3" class="edge">
<title>Node24&#45;&gt;Node25</title>
<path fill="none" stroke="#191970" d="M1925.9651,-402.889C1924.4633,-402.5825 1922.9731,-402.2855 1921.5,-402 1815.6948,-381.4931 1690.5807,-365.0142 1621.6418,-356.6002"/>
<polygon fill="#191970" stroke="#191970" points="1925.4741,-406.363 1935.9847,-405.03 1926.9369,-399.5176 1925.4741,-406.363"/>
</g>
<!-- Node58 -->
<g id="node30" class="node">
<title>Node58</title>
<g id="a_node30"><a xlink:href="neuron__or__neurite_8h.html" target="_top" xlink:title="neuroscience/neuron\l_or_neurite.h">
<polygon fill="#ffffff" stroke="#ff0000" points="2180,-268.5 2180,-298.5 2287,-298.5 2287,-268.5 2180,-268.5"/>
<text text-anchor="start" x="2188" y="-286.5" font-family="Helvetica,sans-Serif" font-size="10.00" fill="#000000">neuroscience/neuron</text>
<text text-anchor="middle" x="2233.5" y="-275.5" font-family="Helvetica,sans-Serif" font-size="10.00" fill="#000000">_or_neurite.h</text>
</a>
</g>
</g>
<!-- Node24&#45;&gt;Node58 -->
<g id="edge68" class="edge">
<title>Node24&#45;&gt;Node58</title>
<path fill="none" stroke="#191970" d="M2029.0283,-398.0764C2049.169,-388.7989 2073.2803,-377.2779 2094.5,-366 2135.8825,-344.0059 2182.4255,-315.5991 2209.7858,-298.5059"/>
<polygon fill="#191970" stroke="#191970" points="2027.4223,-394.9621 2019.7852,-402.3055 2030.3348,-401.3275 2027.4223,-394.9621"/>
</g>
<!-- Node31 -->
<g id="node5" class="node">
<title>Node31</title>
<g id="a_node5"><a xlink:href="cell_8h.html" target="_top" xlink:title="core/sim_object/cell.h">
<polygon fill="#ffffff" stroke="#ff0000" points="1897.5,-274 1897.5,-293 2009.5,-293 2009.5,-274 1897.5,-274"/>
<text text-anchor="middle" x="1953.5" y="-281" font-family="Helvetica,sans-Serif" font-size="10.00" fill="#000000">core/sim_object/cell.h</text>
</a>
</g>
</g>
<!-- Node25&#45;&gt;Node31 -->
<g id="edge4" class="edge">
<title>Node25&#45;&gt;Node31</title>
<path fill="none" stroke="#191970" d="M1631.8127,-339.6277C1705.9195,-326.6976 1828.4281,-305.3224 1898.9456,-293.0186"/>
<polygon fill="#191970" stroke="#191970" points="1630.9371,-336.2275 1621.6876,-341.3944 1632.1404,-343.1234 1630.9371,-336.2275"/>
</g>
<!-- Node27 -->
<g id="node6" class="node">
<title>Node27</title>
<g id="a_node6"><a xlink:href="biodynamo_8h.html" target="_top" xlink:title="biodynamo.h">
<polygon fill="#ffffff" stroke="#000000" points="2625.5,-6 2625.5,-25 2697.5,-25 2697.5,-6 2625.5,-6"/>
<text text-anchor="middle" x="2661.5" y="-13" font-family="Helvetica,sans-Serif" font-size="10.00" fill="#000000">biodynamo.h</text>
</a>
</g>
</g>
<!-- Node25&#45;&gt;Node27 -->
<g id="edge46" class="edge">
<title>Node25&#45;&gt;Node27</title>
<path fill="none" stroke="#191970" d="M1632.1897,-348.202C1789.5103,-342.1237 2197.9478,-324.3351 2331.5,-299 2337.5417,-297.8539 2538.0857,-236.2814 2542.5,-232 2598.2982,-177.8813 2556.3636,-130.9863 2600.5,-67 2612.6192,-49.4302 2632.2321,-34.3624 2645.937,-25.1445"/>
<polygon fill="#191970" stroke="#191970" points="1631.608,-344.7216 1621.7495,-348.6023 1631.8763,-351.7165 1631.608,-344.7216"/>
</g>
<!-- Node25&#45;&gt;Node45 -->
<g id="edge63" class="edge">
<title>Node25&#45;&gt;Node45</title>
<path fill="none" stroke="#191970" d="M1507.48,-345.4569C1397.4659,-336.1459 1176.7385,-315.6833 1145.5,-299 1116.4968,-283.5105 1094.1196,-250.9641 1082.7599,-231.7033"/>
<polygon fill="#191970" stroke="#191970" points="1507.1924,-348.945 1517.4507,-346.2959 1507.7794,-341.9697 1507.1924,-348.945"/>
</g>
<!-- Node25&#45;&gt;Node47 -->
<g id="edge9" class="edge">
<title>Node25&#45;&gt;Node47</title>
<path fill="none" stroke="#191970" d="M1578.3184,-325.619C1584.5727,-308.9456 1593.59,-286.7047 1603.5,-268 1611.6255,-252.6633 1623.0825,-236.1139 1630.4007,-226.0281"/>
<polygon fill="#191970" stroke="#191970" points="1574.9618,-324.6061 1574.7979,-335.1997 1581.5323,-327.0205 1574.9618,-324.6061"/>
</g>
<!-- Node48 -->
<g id="node11" class="node">
<title>Node48</title>
<g id="a_node11"><a xlink:href="environment_8h.html" target="_top" xlink:title="core/environment/environment.h">
<polygon fill="#ffffff" stroke="#000000" points="1415.5,-140 1415.5,-159 1571.5,-159 1571.5,-140 1415.5,-140"/>
<text text-anchor="middle" x="1493.5" y="-147" font-family="Helvetica,sans-Serif" font-size="10.00" fill="#000000">core/environment/environment.h</text>
</a>
</g>
</g>
<!-- Node25&#45;&gt;Node48 -->
<g id="edge45" class="edge">
<title>Node25&#45;&gt;Node48</title>
<path fill="none" stroke="#191970" d="M1560.203,-325.9119C1543.3787,-281.416 1508.5699,-189.3559 1497.1889,-159.2562"/>
<polygon fill="#191970" stroke="#191970" points="1556.9771,-327.2765 1563.7876,-335.3923 1563.5247,-324.8008 1556.9771,-327.2765"/>
</g>
<!-- Node50 -->
<g id="node14" class="node">
<title>Node50</title>
<g id="a_node14"><a xlink:href="in__place__exec__ctxt_8cc.html" target="_top" xlink:title="core/execution_context\l/in_place_exec_ctxt.cc">
<polygon fill="#ffffff" stroke="#000000" points="1768.5,-67.5 1768.5,-97.5 1886.5,-97.5 1886.5,-67.5 1768.5,-67.5"/>
<text text-anchor="start" x="1776.5" y="-85.5" font-family="Helvetica,sans-Serif" font-size="10.00" fill="#000000">core/execution_context</text>
<text text-anchor="middle" x="1827.5" y="-74.5" font-family="Helvetica,sans-Serif" font-size="10.00" fill="#000000">/in_place_exec_ctxt.cc</text>
</a>
</g>
</g>
<!-- Node25&#45;&gt;Node50 -->
<g id="edge57" class="edge">
<title>Node25&#45;&gt;Node50</title>
<path fill="none" stroke="#191970" d="M1631.6639,-334.791C1710.7408,-313.3673 1840.2373,-272.9481 1866.5,-232 1873.9382,-220.4026 1873.1506,-213.0663 1866.5,-201 1852.0368,-174.759 1823.9632,-191.241 1809.5,-165 1797.6824,-143.5591 1808.943,-114.9838 1818.201,-97.7065"/>
<polygon fill="#191970" stroke="#191970" points="1630.5586,-331.4637 1621.8063,-337.4342 1632.3716,-338.2248 1630.5586,-331.4637"/>
</g>
<!-- Node25&#45;&gt;Node52 -->
<g id="edge62" class="edge">
<title>Node25&#45;&gt;Node52</title>
<path fill="none" stroke="#191970" d="M1507.2741,-344.2168C1429.78,-335.696 1302.363,-319.1971 1259.5,-299 1177.4274,-260.3272 1171.745,-226.9928 1105.5,-165 1078.3693,-139.6108 1047.8776,-108.0989 1032.8722,-92.3818"/>
<polygon fill="#191970" stroke="#191970" points="1507.0786,-347.716 1517.398,-345.3158 1507.8342,-340.7569 1507.0786,-347.716"/>
</g>
<!-- Node25&#45;&gt;Node30 -->
<g id="edge64" class="edge">
<title>Node25&#45;&gt;Node30</title>
<path fill="none" stroke="#191970" d="M1507.149,-346.144C1387.3171,-337.4875 1128.9737,-317.3682 1041.5,-299 904.6401,-270.2615 875.7289,-243.504 742.5,-201 691.0725,-184.5931 658.5178,-208.4608 626.5,-165 600.9933,-130.3773 658.5418,-106.8064 705.2901,-93.9971"/>
<polygon fill="#191970" stroke="#191970" points="1507.0409,-349.6452 1517.2662,-346.8714 1507.5429,-342.6632 1507.0409,-349.6452"/>
</g>
<!-- Node25&#45;&gt;Node33 -->
<g id="edge47" class="edge">
<title>Node25&#45;&gt;Node33</title>
<path fill="none" stroke="#191970" d="M1631.962,-348.0338C1796.755,-341.2511 2234.8781,-321.3317 2296.5,-299 2318.6501,-290.9728 2318.6966,-279.058 2339.5,-268 2367.742,-252.9881 2401.3172,-240.4747 2428.5071,-231.5428"/>
<polygon fill="#191970" stroke="#191970" points="1631.3581,-344.5555 1621.5095,-348.4614 1631.6443,-351.5496 1631.3581,-344.5555"/>
</g>
<!-- Node25&#45;&gt;Node38 -->
<g id="edge56" class="edge">
<title>Node25&#45;&gt;Node38</title>
<path fill="none" stroke="#191970" d="M1631.9632,-348.0187C1794.1946,-341.3258 2226.1015,-321.8566 2367.5,-299 2579.6837,-264.7013 2827.4867,-186.2459 2910.0994,-159.0172"/>
<polygon fill="#191970" stroke="#191970" points="1631.5213,-344.5338 1621.6732,-348.441 1631.8084,-351.5279 1631.5213,-344.5338"/>
</g>
<!-- Node25&#45;&gt;Node58 -->
<g id="edge53" class="edge">
<title>Node25&#45;&gt;Node58</title>
<path fill="none" stroke="#191970" d="M1631.7543,-344.2183C1761.3132,-331.1454 2057.988,-301.2098 2179.7947,-288.9191"/>
<polygon fill="#191970" stroke="#191970" points="1631.201,-340.7563 1621.603,-345.2426 1631.9039,-347.7209 1631.201,-340.7563"/>
</g>
<!-- Node25&#45;&gt;Node59 -->
<g id="edge58" class="edge">
<title>Node25&#45;&gt;Node59</title>
<path fill="none" stroke="#191970" d="M1507.1018,-345.3184C1389.016,-335.2592 1141.3419,-312.8596 1104.5,-299 1055.8015,-280.6801 1043.5702,-270.4349 1008.5,-232 989.8338,-211.5429 975.4257,-182.4059 967.7259,-164.7916"/>
<polygon fill="#191970" stroke="#191970" points="1506.828,-348.8076 1517.0882,-346.1659 1507.4201,-341.8327 1506.828,-348.8076"/>
</g>
<!-- Node25&#45;&gt;Node60 -->
<g id="edge65" class="edge">
<title>Node25&#45;&gt;Node60</title>
<path fill="none" stroke="#191970" d="M1506.8044,-348.1569C1375.3562,-342.8374 1061.4014,-328.0001 799.5,-299 782.5621,-297.1245 764.103,-294.4449 747.7072,-291.8399"/>
<polygon fill="#191970" stroke="#191970" points="1506.9455,-351.6652 1517.0776,-348.5682 1507.2256,-344.6708 1506.9455,-351.6652"/>
</g>
<!-- Node31&#45;&gt;Node27 -->
<g id="edge5" class="edge">
<title>Node31&#45;&gt;Node27</title>
<path fill="none" stroke="#191970" d="M2010.7211,-271.9615C2098.1097,-254.6495 2270.2095,-221.7741 2417.5,-201 2493.6086,-190.2655 2710.0565,-222.108 2761.5,-165 2781.4223,-142.884 2748.8842,-80.4913 2738.5,-67 2723.884,-48.0107 2700.1974,-33.68 2682.9503,-25.0178"/>
<polygon fill="#191970" stroke="#191970" points="2009.8726,-268.5615 2000.7461,-273.9429 2011.2365,-275.4274 2009.8726,-268.5615"/>
</g>
<!-- Node31&#45;&gt;Node42 -->
<g id="edge6" class="edge">
<title>Node31&#45;&gt;Node42</title>
<path fill="none" stroke="#191970" d="M1953.8103,-263.9054C1953.1932,-246.1205 1949.9536,-219.8679 1937.5,-201 1924.6813,-181.5789 1901.7644,-167.5593 1884.437,-159.0969"/>
<polygon fill="#191970" stroke="#191970" points="1950.3111,-264.0108 1953.9113,-273.9751 1957.3107,-263.9405 1950.3111,-264.0108"/>
</g>
<!-- Node31&#45;&gt;Node43 -->
<g id="edge7" class="edge">
<title>Node31&#45;&gt;Node43</title>
<path fill="none" stroke="#191970" d="M1957.3938,-263.4158C1959.9705,-246.5556 1962.1088,-221.9366 1957.5,-201 1943.3923,-136.913 1944.4382,-110.7175 1895.5,-67 1871.921,-45.9364 1839.4778,-33.4516 1810.365,-26.0684"/>
<polygon fill="#191970" stroke="#191970" points="1953.8693,-263.2585 1955.6173,-273.7081 1960.7673,-264.4491 1953.8693,-263.2585"/>
</g>
<!-- Node31&#45;&gt;Node45 -->
<g id="edge8" class="edge">
<title>Node31&#45;&gt;Node45</title>
<path fill="none" stroke="#191970" d="M1887.0787,-278.4372C1720.6458,-265.7512 1287.9556,-232.7702 1131.777,-220.8658"/>
<polygon fill="#191970" stroke="#191970" points="1886.9403,-281.9367 1897.1774,-279.2069 1887.4724,-274.9569 1886.9403,-281.9367"/>
</g>
<!-- Node47&#45;&gt;Node27 -->
<g id="edge26" class="edge">
<title>Node47&#45;&gt;Node27</title>
<path fill="none" stroke="#191970" d="M1662.2435,-201.5951C1694.8036,-182.7063 1754.3759,-150.613 1809.5,-134 2115.8519,-41.6734 2506.1856,-20.8853 2625.3534,-16.5604"/>
<polygon fill="#191970" stroke="#191970" points="1660.2724,-198.6936 1653.4211,-206.7752 1663.8167,-204.7301 1660.2724,-198.6936"/>
</g>
<!-- Node47&#45;&gt;Node42 -->
<g id="edge36" class="edge">
<title>Node47&#45;&gt;Node42</title>
<path fill="none" stroke="#191970" d="M1679.305,-203.9958C1722.8099,-190.9832 1789.9885,-170.8896 1829.4658,-159.0817"/>
<polygon fill="#191970" stroke="#191970" points="1678.1714,-200.6816 1669.5937,-206.9005 1680.1774,-207.388 1678.1714,-200.6816"/>
</g>
<!-- Node47&#45;&gt;Node43 -->
<g id="edge38" class="edge">
<title>Node47&#45;&gt;Node43</title>
<path fill="none" stroke="#191970" d="M1649.6661,-198.5624C1671.1999,-166.7697 1714.0076,-103.3558 1716.5,-98 1726.9472,-75.5501 1733.937,-47.5261 1737.5604,-30.5964"/>
<polygon fill="#191970" stroke="#191970" points="1646.6832,-196.7251 1643.9702,-206.9667 1652.4778,-200.6523 1646.6832,-196.7251"/>
</g>
<!-- Node47&#45;&gt;Node48 -->
<g id="edge10" class="edge">
<title>Node47&#45;&gt;Node48</title>
<path fill="none" stroke="#191970" d="M1607.5656,-202.5722C1579.5895,-189.5555 1538.5634,-170.467 1514.0934,-159.0817"/>
<polygon fill="#191970" stroke="#191970" points="1606.3252,-205.8553 1616.8683,-206.9005 1609.2781,-199.5086 1606.3252,-205.8553"/>
</g>
<!-- Node49 -->
<g id="node12" class="node">
<title>Node49</title>
<g id="a_node12"><a xlink:href="uniform__grid__environment_8h.html" target="_top" xlink:title="core/environment/uniform\l_grid_environment.h">
<polygon fill="#ffffff" stroke="#000000" points="1123,-67.5 1123,-97.5 1250,-97.5 1250,-67.5 1123,-67.5"/>
<text text-anchor="start" x="1131" y="-85.5" font-family="Helvetica,sans-Serif" font-size="10.00" fill="#000000">core/environment/uniform</text>
<text text-anchor="middle" x="1186.5" y="-74.5" font-family="Helvetica,sans-Serif" font-size="10.00" fill="#000000">_grid_environment.h</text>
</a>
</g>
</g>
<!-- Node47&#45;&gt;Node49 -->
<g id="edge34" class="edge">
<title>Node47&#45;&gt;Node49</title>
<path fill="none" stroke="#191970" d="M1563.9679,-207.3266C1509.0022,-199.3093 1432.4626,-185.6713 1367.5,-165 1310.8982,-146.9891 1248.6488,-115.9385 1213.8917,-97.5008"/>
<polygon fill="#191970" stroke="#191970" points="1563.5775,-210.8063 1573.9725,-208.7586 1564.5694,-203.8769 1563.5775,-210.8063"/>
</g>
<!-- Node47&#45;&gt;Node37 -->
<g id="edge42" class="edge">
<title>Node47&#45;&gt;Node37</title>
<path fill="none" stroke="#191970" d="M1563.7053,-205.7952C1549.7101,-204.0046 1535.1713,-202.3072 1521.5,-201 1452.5875,-194.411 961.2533,-196.287 899.5,-165 849.0929,-139.4615 866.998,-96.0005 818.5,-67 783.8874,-46.3026 674.0009,-29.5774 609.6703,-21.2461"/>
<polygon fill="#191970" stroke="#191970" points="1563.4106,-209.2863 1573.7797,-207.1112 1564.3174,-202.3453 1563.4106,-209.2863"/>
</g>
<!-- Node47&#45;&gt;Node50 -->
<g id="edge35" class="edge">
<title>Node47&#45;&gt;Node50</title>
<path fill="none" stroke="#191970" d="M1655.3313,-200.2054C1674.7843,-182.8144 1707.2052,-154.9387 1737.5,-134 1757.0482,-120.489 1780.3655,-107.2189 1798.3678,-97.5335"/>
<polygon fill="#191970" stroke="#191970" points="1652.916,-197.6705 1647.8323,-206.966 1657.6032,-202.8696 1652.916,-197.6705"/>
</g>
<!-- Node47&#45;&gt;Node51 -->
<g id="edge37" class="edge">
<title>Node47&#45;&gt;Node51</title>
<path fill="none" stroke="#191970" d="M1563.8706,-205.4804C1506.5652,-195.9191 1432.5409,-181.1106 1406.5,-165 1376.53,-146.4585 1353.9849,-109.6603 1344.4684,-92.169"/>
<polygon fill="#191970" stroke="#191970" points="1563.5626,-208.9767 1573.9979,-207.1451 1564.698,-202.0694 1563.5626,-208.9767"/>
</g>
<!-- Node47&#45;&gt;Node36 -->
<g id="edge40" class="edge">
<title>Node47&#45;&gt;Node36</title>
<path fill="none" stroke="#191970" d="M1644.1621,-196.9984C1650.0064,-180.1892 1658.8928,-155.3327 1667.5,-134 1674.0513,-117.7628 1679.8653,-115.1277 1683.5,-98 1686.3601,-84.5224 1692.8557,-77.1142 1683.5,-67 1662.6842,-44.4967 1218.0558,-23.7284 1070.5681,-17.4362"/>
<polygon fill="#191970" stroke="#191970" points="1640.7456,-196.1697 1640.7944,-206.7644 1647.3632,-198.4517 1640.7456,-196.1697"/>
</g>
<!-- Node53 -->
<g id="node18" class="node">
<title>Node53</title>
<g id="a_node18"><a xlink:href="resource__manager_8cc.html" target="_top" xlink:title="core/resource_manager.cc">
<polygon fill="#ffffff" stroke="#000000" points="1542.5,-73 1542.5,-92 1674.5,-92 1674.5,-73 1542.5,-73"/>
<text text-anchor="middle" x="1608.5" y="-80" font-family="Helvetica,sans-Serif" font-size="10.00" fill="#000000">core/resource_manager.cc</text>
</a>
</g>
</g>
<!-- Node47&#45;&gt;Node53 -->
<g id="edge39" class="edge">
<title>Node47&#45;&gt;Node53</title>
<path fill="none" stroke="#191970" d="M1631.7655,-196.962C1629.0613,-187.3791 1625.9081,-175.6365 1623.5,-165 1617.5854,-138.8749 1612.424,-107.685 1609.9886,-92.2072"/>
<polygon fill="#191970" stroke="#191970" points="1628.4357,-198.0473 1634.564,-206.6899 1635.1628,-196.112 1628.4357,-198.0473"/>
</g>
<!-- Node47&#45;&gt;Node30 -->
<g id="edge41" class="edge">
<title>Node47&#45;&gt;Node30</title>
<path fill="none" stroke="#191970" d="M1563.7085,-205.762C1549.713,-203.9745 1535.1732,-202.2867 1521.5,-201 1376.1451,-187.3214 1002.4658,-215.5523 865.5,-165 845.4677,-157.6063 799.7739,-119.4266 774.7195,-97.6902"/>
<polygon fill="#191970" stroke="#191970" points="1563.4141,-209.2532 1573.783,-207.0768 1564.3201,-202.312 1563.4141,-209.2532"/>
</g>
<!-- Node47&#45;&gt;Node54 -->
<g id="edge24" class="edge">
<title>Node47&#45;&gt;Node54</title>
<path fill="none" stroke="#191970" d="M1689.4276,-205.0322C1698.098,-203.4484 1707.0269,-202.0182 1715.5,-201 2084.7432,-156.6271 2180.6596,-193.0528 2551.5,-165 2579.5132,-162.8809 2610.5215,-159.6309 2636.4825,-156.6533"/>
<polygon fill="#191970" stroke="#191970" points="1688.5759,-201.6316 1679.4107,-206.9466 1689.8899,-208.5072 1688.5759,-201.6316"/>
</g>
<!-- Node47&#45;&gt;Node34 -->
<g id="edge27" class="edge">
<title>Node47&#45;&gt;Node34</title>
<path fill="none" stroke="#191970" d="M1693.8708,-205.011C1701.1401,-203.6139 1708.4904,-202.2429 1715.5,-201 1816.5574,-183.0814 1935.6254,-165.3217 1999.489,-156.067"/>
<polygon fill="#191970" stroke="#191970" points="1693.1951,-201.5768 1684.0479,-206.9228 1694.5324,-208.4479 1693.1951,-201.5768"/>
</g>
<!-- Node47&#45;&gt;Node55 -->
<g id="edge32" class="edge">
<title>Node47&#45;&gt;Node55</title>
<path fill="none" stroke="#191970" d="M1563.6665,-206.6449C1457.8905,-192.4966 1274.2523,-167.8115 1259.5,-165 1254.8529,-164.1143 1250.0349,-163.1021 1245.2271,-162.0286"/>
<polygon fill="#191970" stroke="#191970" points="1563.2759,-210.1237 1573.6516,-207.9801 1564.2037,-203.1855 1563.2759,-210.1237"/>
</g>
<!-- Node47&#45;&gt;Node56 -->
<g id="edge43" class="edge">
<title>Node47&#45;&gt;Node56</title>
<path fill="none" stroke="#191970" d="M1563.6731,-208.0937C1539.7162,-205.5603 1513.0005,-202.9404 1488.5,-201 1195.2052,-177.7721 1120.7258,-189.0836 827.5,-165 797.6791,-162.5507 764.4039,-158.9349 737.6706,-155.8116"/>
<polygon fill="#191970" stroke="#191970" points="1563.4415,-211.5888 1573.7569,-209.1719 1564.1858,-204.6284 1563.4415,-211.5888"/>
</g>
<!-- Node40 -->
<g id="node25" class="node">
<title>Node40</title>
<g id="a_node25"><a xlink:href="neuron__soma_8cc.html" target="_top" xlink:title="neuroscience/neuron\l_soma.cc">
<polygon fill="#ffffff" stroke="#000000" points="2110,-134.5 2110,-164.5 2217,-164.5 2217,-134.5 2110,-134.5"/>
<text text-anchor="start" x="2118" y="-152.5" font-family="Helvetica,sans-Serif" font-size="10.00" fill="#000000">neuroscience/neuron</text>
<text text-anchor="middle" x="2163.5" y="-141.5" font-family="Helvetica,sans-Serif" font-size="10.00" fill="#000000">_soma.cc</text>
</a>
</g>
</g>
<!-- Node47&#45;&gt;Node40 -->
<g id="edge44" class="edge">
<title>Node47&#45;&gt;Node40</title>
<path fill="none" stroke="#191970" d="M1691.5241,-205.0165C1699.5395,-203.5303 1707.719,-202.1338 1715.5,-201 1885.5615,-176.2191 1931.0402,-193.6073 2100.5,-165 2103.6098,-164.475 2106.793,-163.8794 2109.9964,-163.235"/>
<polygon fill="#191970" stroke="#191970" points="1690.6654,-201.6172 1681.5012,-206.9339 1691.9807,-208.4925 1690.6654,-201.6172"/>
</g>
<!-- Node48&#45;&gt;Node27 -->
<g id="edge11" class="edge">
<title>Node48&#45;&gt;Node27</title>
<path fill="none" stroke="#191970" d="M1497.0735,-129.764C1501.7632,-110.1838 1512.0654,-81.1195 1533.5,-67 1580.1319,-36.2824 2437.5096,-19.4448 2625.3354,-16.1159"/>
<polygon fill="#191970" stroke="#191970" points="1493.6041,-129.2545 1494.9646,-139.7616 1500.4533,-130.6994 1493.6041,-129.2545"/>
</g>
<!-- Node48&#45;&gt;Node43 -->
<g id="edge20" class="edge">
<title>Node48&#45;&gt;Node43</title>
<path fill="none" stroke="#191970" d="M1489.1976,-130.0098C1486.3422,-111.5052 1485.4815,-84.0535 1500.5,-67 1522.6446,-41.8548 1608.1393,-28.1693 1670.802,-21.3526"/>
<polygon fill="#191970" stroke="#191970" points="1485.7802,-130.7763 1491.0566,-139.9638 1492.6612,-129.4912 1485.7802,-130.7763"/>
</g>
<!-- Node48&#45;&gt;Node49 -->
<g id="edge12" class="edge">
<title>Node48&#45;&gt;Node49</title>
<path fill="none" stroke="#191970" d="M1439.976,-137.8189C1387.0764,-126.274 1306.1393,-108.6102 1250.0135,-96.3612"/>
<polygon fill="#191970" stroke="#191970" points="1439.3241,-141.2589 1449.8404,-139.9717 1440.8167,-134.4199 1439.3241,-141.2589"/>
</g>
<!-- Node48&#45;&gt;Node37 -->
<g id="edge23" class="edge">
<title>Node48&#45;&gt;Node37</title>
<path fill="none" stroke="#191970" d="M1483.1259,-131.1783C1470.8001,-111.4013 1448.2379,-80.8751 1419.5,-67 1382.8386,-49.2994 785.0737,-24.3483 609.577,-17.3746"/>
<polygon fill="#191970" stroke="#191970" points="1480.2044,-133.1126 1488.3367,-139.9035 1486.2142,-129.5234 1480.2044,-133.1126"/>
</g>
<!-- Node48&#45;&gt;Node50 -->
<g id="edge15" class="edge">
<title>Node48&#45;&gt;Node50</title>
<path fill="none" stroke="#191970" d="M1550.8051,-138.0047C1611.5205,-125.8252 1706.9256,-106.6871 1768.3375,-94.3679"/>
<polygon fill="#191970" stroke="#191970" points="1550.1156,-134.5732 1540.9993,-139.9717 1551.4924,-141.4364 1550.1156,-134.5732"/>
</g>
<!-- Node48&#45;&gt;Node51 -->
<g id="edge16" class="edge">
<title>Node48&#45;&gt;Node51</title>
<path fill="none" stroke="#191970" d="M1461.878,-135.7424C1431.9515,-122.7224 1387.8071,-103.5167 1361.5235,-92.0817"/>
<polygon fill="#191970" stroke="#191970" points="1460.8695,-139.1205 1471.4356,-139.9005 1463.6621,-132.7016 1460.8695,-139.1205"/>
</g>
<!-- Node48&#45;&gt;Node52 -->
<g id="edge18" class="edge">
<title>Node48&#45;&gt;Node52</title>
<path fill="none" stroke="#191970" d="M1407.7718,-138.6874C1330.878,-128.79 1215.0095,-113.3842 1114.5,-98 1102.6188,-96.1814 1089.8886,-94.0981 1077.8267,-92.0611"/>
<polygon fill="#191970" stroke="#191970" points="1407.5238,-142.1842 1417.8883,-139.9867 1408.4156,-135.2412 1407.5238,-142.1842"/>
</g>
<!-- Node48&#45;&gt;Node53 -->
<g id="edge21" class="edge">
<title>Node48&#45;&gt;Node53</title>
<path fill="none" stroke="#191970" d="M1518.8841,-134.711C1541.1724,-121.7256 1572.9385,-103.2184 1592.0539,-92.0817"/>
<polygon fill="#191970" stroke="#191970" points="1516.8553,-131.8423 1509.9767,-139.9005 1520.3792,-137.8906 1516.8553,-131.8423"/>
</g>
<!-- Node48&#45;&gt;Node30 -->
<g id="edge22" class="edge">
<title>Node48&#45;&gt;Node30</title>
<path fill="none" stroke="#191970" d="M1405.0101,-141.4445C1250.0607,-127.3391 934.2601,-98.5909 809.6948,-87.2514"/>
<polygon fill="#191970" stroke="#191970" points="1405.1557,-144.9722 1415.4319,-142.3933 1405.7904,-138.001 1405.1557,-144.9722"/>
</g>
<!-- Node49&#45;&gt;Node43 -->
<g id="edge13" class="edge">
<title>Node49&#45;&gt;Node43</title>
<path fill="none" stroke="#191970" d="M1260.1379,-67.0043C1412.4141,-43.1506 1579.1153,-28.055 1670.9055,-20.6975"/>
<polygon fill="#191970" stroke="#191970" points="1259.4595,-63.568 1250.1295,-68.5882 1260.5537,-70.482 1259.4595,-63.568"/>
</g>
<!-- Node49&#45;&gt;Node37 -->
<g id="edge14" class="edge">
<title>Node49&#45;&gt;Node37</title>
<path fill="none" stroke="#191970" d="M1113.0102,-66.8759C921.5515,-38.0121 704.5739,-23.4935 609.817,-18.0575"/>
<polygon fill="#191970" stroke="#191970" points="1112.5597,-70.3476 1122.9729,-68.3945 1113.6145,-63.4275 1112.5597,-70.3476"/>
</g>
<!-- Node51&#45;&gt;Node36 -->
<g id="edge17" class="edge">
<title>Node51&#45;&gt;Node36</title>
<path fill="none" stroke="#191970" d="M1284.6897,-70.8788C1223.4606,-57.8967 1125.485,-37.1234 1068.54,-25.0496"/>
<polygon fill="#191970" stroke="#191970" points="1284.052,-74.3214 1294.5605,-72.9717 1285.5039,-67.4736 1284.052,-74.3214"/>
</g>
<!-- Node52&#45;&gt;Node36 -->
<g id="edge19" class="edge">
<title>Node52&#45;&gt;Node36</title>
<path fill="none" stroke="#191970" d="M1023.5,-62.6079C1023.5,-50.214 1023.5,-34.8263 1023.5,-25.0817"/>
<polygon fill="#191970" stroke="#191970" points="1020.0001,-62.9005 1023.5,-72.9005 1027.0001,-62.9006 1020.0001,-62.9005"/>
</g>
<!-- Node54&#45;&gt;Node27 -->
<g id="edge25" class="edge">
<title>Node54&#45;&gt;Node27</title>
<path fill="none" stroke="#191970" d="M2709.0928,-131.1379C2720.7169,-114.136 2733.5143,-88.3369 2723.5,-67 2714.6416,-48.126 2695.0918,-33.7763 2680.2969,-25.0782"/>
<polygon fill="#191970" stroke="#191970" points="2705.9864,-129.4564 2702.908,-139.5942 2711.6365,-133.5888 2705.9864,-129.4564"/>
</g>
<!-- Node34&#45;&gt;Node37 -->
<g id="edge31" class="edge">
<title>Node34&#45;&gt;Node37</title>
<path fill="none" stroke="#191970" d="M1992.6643,-130.7039C1971.8461,-122.1775 1948.2436,-111.06 1928.5,-98 1911.7165,-86.898 1914.0629,-74.769 1895.5,-67 1894.5531,-66.6037 848.7083,-26.5057 609.7288,-17.3478"/>
<polygon fill="#191970" stroke="#191970" points="1991.4247,-133.9776 2002.0096,-134.4368 1994.0214,-127.477 1991.4247,-133.9776"/>
</g>
<!-- Node34&#45;&gt;Node36 -->
<g id="edge30" class="edge">
<title>Node34&#45;&gt;Node36</title>
<path fill="none" stroke="#191970" d="M2022.5886,-127.3594C2000.4851,-107.5584 1965.0782,-79.7542 1928.5,-67 1847.2819,-38.6805 1244.7479,-21.1708 1070.5439,-16.6617"/>
<polygon fill="#191970" stroke="#191970" points="2020.3703,-130.0739 2030.1076,-134.2497 2025.0996,-124.9131 2020.3703,-130.0739"/>
</g>
<!-- Node34&#45;&gt;Node35 -->
<g id="edge28" class="edge">
<title>Node34&#45;&gt;Node35</title>
<path fill="none" stroke="#191970" d="M2101.7882,-134.1868C2293.7276,-99.8255 2510.9822,-88.0728 2608.9639,-84.2091"/>
<polygon fill="#191970" stroke="#191970" points="2101.0143,-130.77 2091.8002,-135.9997 2102.2645,-137.6575 2101.0143,-130.77"/>
</g>
<!-- Node35&#45;&gt;Node27 -->
<g id="edge29" class="edge">
<title>Node35&#45;&gt;Node27</title>
<path fill="none" stroke="#191970" d="M2661.5,-57.1199C2661.5,-45.9072 2661.5,-33.4031 2661.5,-25.055"/>
<polygon fill="#191970" stroke="#191970" points="2658.0001,-57.2966 2661.5,-67.2967 2665.0001,-57.2967 2658.0001,-57.2966"/>
</g>
<!-- Node55&#45;&gt;Node49 -->
<g id="edge33" class="edge">
<title>Node55&#45;&gt;Node49</title>
<path fill="none" stroke="#191970" d="M1192.7415,-124.3179C1191.4017,-115.3414 1189.935,-105.5143 1188.7602,-97.6432"/>
<polygon fill="#191970" stroke="#191970" points="1189.2929,-124.9229 1194.2308,-134.2967 1196.2162,-123.8895 1189.2929,-124.9229"/>
</g>
<!-- Node33&#45;&gt;Node34 -->
<g id="edge48" class="edge">
<title>Node33&#45;&gt;Node34</title>
<path fill="none" stroke="#191970" d="M2415.8637,-207.051C2401.9103,-205.0193 2387.2112,-202.9097 2373.5,-201 2252.7228,-184.1778 2220.9928,-189.3228 2101.5,-165 2098.2379,-164.336 2094.8863,-163.5856 2091.5225,-162.7822"/>
<polygon fill="#191970" stroke="#191970" points="2415.4664,-210.5301 2425.8674,-208.5127 2416.4785,-203.6036 2415.4664,-210.5301"/>
</g>
<!-- Node33&#45;&gt;Node40 -->
<g id="edge51" class="edge">
<title>Node33&#45;&gt;Node40</title>
<path fill="none" stroke="#191970" d="M2416.0514,-203.0473C2357.6946,-190.6742 2272.1171,-172.5296 2217.1037,-160.8653"/>
<polygon fill="#191970" stroke="#191970" points="2415.3864,-206.484 2425.8949,-205.1344 2416.8384,-199.6363 2415.3864,-206.484"/>
</g>
<!-- Node33&#45;&gt;Node38 -->
<g id="edge49" class="edge">
<title>Node33&#45;&gt;Node38</title>
<path fill="none" stroke="#191970" d="M2543.1056,-207.2268C2613.7849,-196.9209 2731.3036,-179.7807 2832.5,-165 2849.3389,-162.5405 2867.6822,-159.859 2884.3033,-157.4285"/>
<polygon fill="#191970" stroke="#191970" points="2542.4153,-203.7904 2533.0249,-208.6967 2543.4253,-210.7171 2542.4153,-203.7904"/>
</g>
<!-- Node39 -->
<g id="node28" class="node">
<title>Node39</title>
<g id="a_node28"><a xlink:href="neuron__or__neurite_8cc.html" target="_top" xlink:title="neuroscience/neuron\l_or_neurite.cc">
<polygon fill="#ffffff" stroke="#000000" points="2274,-134.5 2274,-164.5 2381,-164.5 2381,-134.5 2274,-134.5"/>
<text text-anchor="start" x="2282" y="-152.5" font-family="Helvetica,sans-Serif" font-size="10.00" fill="#000000">neuroscience/neuron</text>
<text text-anchor="middle" x="2327.5" y="-141.5" font-family="Helvetica,sans-Serif" font-size="10.00" fill="#000000">_or_neurite.cc</text>
</a>
</g>
</g>
<!-- Node33&#45;&gt;Node39 -->
<g id="edge50" class="edge">
<title>Node33&#45;&gt;Node39</title>
<path fill="none" stroke="#191970" d="M2435.9718,-197.3132C2412.4083,-186.9267 2383.716,-174.2794 2361.7605,-164.6017"/>
<polygon fill="#191970" stroke="#191970" points="2434.826,-200.6331 2445.3882,-201.4639 2437.6495,-194.2277 2434.826,-200.6331"/>
</g>
<!-- Node41 -->
<g id="node29" class="node">
<title>Node41</title>
<g id="a_node29"><a xlink:href="neuroscience_8h.html" target="_top" xlink:title="neuroscience/neuroscience.h">
<polygon fill="#ffffff" stroke="#000000" points="2399,-140 2399,-159 2542,-159 2542,-140 2399,-140"/>
<text text-anchor="middle" x="2470.5" y="-147" font-family="Helvetica,sans-Serif" font-size="10.00" fill="#000000">neuroscience/neuroscience.h</text>
</a>
</g>
</g>
<!-- Node33&#45;&gt;Node41 -->
<g id="edge52" class="edge">
<title>Node33&#45;&gt;Node41</title>
<path fill="none" stroke="#191970" d="M2476.0907,-191.1199C2474.5846,-179.9072 2472.9049,-167.4031 2471.7835,-159.055"/>
<polygon fill="#191970" stroke="#191970" points="2472.6575,-191.8517 2477.4578,-201.2967 2479.5952,-190.9197 2472.6575,-191.8517"/>
</g>
<!-- Node58&#45;&gt;Node33 -->
<g id="edge54" class="edge">
<title>Node58&#45;&gt;Node33</title>
<path fill="none" stroke="#191970" d="M2296.8366,-266.2498C2336.8394,-255.3547 2387.9532,-241.4335 2425.9327,-231.0895"/>
<polygon fill="#191970" stroke="#191970" points="2295.9105,-262.8744 2287.1818,-268.8794 2297.7501,-269.6284 2295.9105,-262.8744"/>
</g>
<!-- Node58&#45;&gt;Node39 -->
<g id="edge55" class="edge">
<title>Node58&#45;&gt;Node39</title>
<path fill="none" stroke="#191970" d="M2249.8832,-260.1452C2269.1102,-232.7365 2300.4392,-188.076 2316.7942,-164.7614"/>
<polygon fill="#191970" stroke="#191970" points="2246.9778,-258.1924 2244.1003,-268.389 2252.7084,-262.2124 2246.9778,-258.1924"/>
</g>
<!-- Node59&#45;&gt;Node43 -->
<g id="edge60" class="edge">
<title>Node59&#45;&gt;Node43</title>
<path fill="none" stroke="#191970" d="M942.3083,-126.1685C929.7701,-107.9947 918.2917,-83.2098 933.5,-67 958.5649,-40.2846 1479.3474,-22.8946 1670.7355,-17.3853"/>
<polygon fill="#191970" stroke="#191970" points="939.6892,-128.5144 948.4363,-134.4926 945.3264,-124.3645 939.6892,-128.5144"/>
</g>
<!-- Node59&#45;&gt;Node36 -->
<g id="edge61" class="edge">
<title>Node59&#45;&gt;Node36</title>
<path fill="none" stroke="#191970" d="M928.2968,-128.4485C906.7437,-112.054 885.1232,-88.5385 899.5,-67 916.5828,-41.4076 949.0168,-28.5151 976.4292,-22.0299"/>
<polygon fill="#191970" stroke="#191970" points="926.3243,-131.3413 936.4787,-134.3642 930.4257,-125.6687 926.3243,-131.3413"/>
</g>
<!-- Node59&#45;&gt;Node52 -->
<g id="edge59" class="edge">
<title>Node59&#45;&gt;Node52</title>
<path fill="none" stroke="#191970" d="M982.446,-126.8648C993.4272,-114.998 1006.2959,-101.0916 1014.6581,-92.055"/>
<polygon fill="#191970" stroke="#191970" points="979.7918,-124.5798 975.5688,-134.2967 984.9296,-129.3342 979.7918,-124.5798"/>
</g>
<!-- Node60&#45;&gt;Node61 -->
<g id="edge66" class="edge">
<title>Node60&#45;&gt;Node61</title>
<path fill="none" stroke="#191970" d="M691.3273,-258.6103C688.354,-249.5553 685.085,-239.5998 682.4724,-231.6432"/>
<polygon fill="#191970" stroke="#191970" points="688.0628,-259.8877 694.5079,-268.2967 694.7134,-257.7038 688.0628,-259.8877"/>
</g>
<!-- Node61&#45;&gt;Node56 -->
<g id="edge67" class="edge">
<title>Node61&#45;&gt;Node56</title>
<path fill="none" stroke="#191970" d="M680.8827,-191.3179C682.0885,-182.3414 683.4085,-172.5143 684.4658,-164.6432"/>
<polygon fill="#191970" stroke="#191970" points="677.4048,-190.9197 679.5422,-201.2967 684.3425,-191.8517 677.4048,-190.9197"/>
</g>
<!-- Node65 -->
<g id="node35" class="node">
<title>Node65</title>
<g id="a_node35"><a xlink:href="scheduler_8h.html" target="_top" xlink:title="core/scheduler.h">
<polygon fill="#ffffff" stroke="#000000" points="1996,-341 1996,-360 2085,-360 2085,-341 1996,-341"/>
<text text-anchor="middle" x="2040.5" y="-348" font-family="Helvetica,sans-Serif" font-size="10.00" fill="#000000">core/scheduler.h</text>
</a>
</g>
</g>
<!-- Node64&#45;&gt;Node65 -->
<g id="edge70" class="edge">
<title>Node64&#45;&gt;Node65</title>
<path fill="none" stroke="#191970" d="M1787.103,-405.8016C1846.5219,-392.834 1941.2445,-372.1616 1996.494,-360.1039"/>
<polygon fill="#191970" stroke="#191970" points="1786.1833,-402.4199 1777.1596,-407.9717 1787.6759,-409.2589 1786.1833,-402.4199"/>
</g>
<!-- Node64&#45;&gt;Node68 -->
<g id="edge86" class="edge">
<title>Node64&#45;&gt;Node68</title>
<path fill="none" stroke="#191970" d="M1681.1887,-406.0819C1672.318,-404.4778 1663.1726,-403.0281 1654.5,-402 1420.5484,-374.265 672.381,-355.8212 481.2786,-351.4835"/>
<polygon fill="#191970" stroke="#191970" points="1680.5715,-409.5272 1691.0475,-407.9445 1681.8711,-402.6489 1680.5715,-409.5272"/>
</g>
<!-- Node65&#45;&gt;Node27 -->
<g id="edge77" class="edge">
<title>Node65&#45;&gt;Node27</title>
<path fill="none" stroke="#191970" d="M2095.6429,-345.9397C2253.7351,-331.5359 2702.1208,-280.9296 2778.5,-165 2793.5732,-142.1217 2766.658,-74.6653 2760.5,-67 2743.8767,-46.3079 2716.6927,-33.0136 2695.012,-25.1252"/>
<polygon fill="#191970" stroke="#191970" points="2094.8604,-342.4958 2085.2133,-346.8756 2095.4861,-349.4678 2094.8604,-342.4958"/>
</g>
<!-- Node65&#45;&gt;Node37 -->
<g id="edge83" class="edge">
<title>Node65&#45;&gt;Node37</title>
<path fill="none" stroke="#191970" d="M1985.5889,-348.9064C1820.6171,-343.8292 1336.7204,-326.7195 1271.5,-299 1211.8483,-273.6473 1222.8092,-227.144 1163.5,-201 1006.6481,-131.8582 935.7492,-235.4933 779.5,-165 761.1573,-156.7245 763.7809,-144.3107 746.5,-134 703.0499,-108.0754 681.0751,-125.3379 638.5,-98 607.1765,-77.8868 579.934,-42.1847 567.969,-25.1126"/>
<polygon fill="#191970" stroke="#191970" points="1985.8842,-352.4169 1995.9863,-349.2234 1986.0976,-345.4201 1985.8842,-352.4169"/>
</g>
<!-- Node65&#45;&gt;Node50 -->
<g id="edge80" class="edge">
<title>Node65&#45;&gt;Node50</title>
<path fill="none" stroke="#191970" d="M2037.5487,-330.9064C2034.4329,-313.6785 2028.5471,-288.2632 2018.5,-268 1985.011,-200.4586 1971.046,-183.8589 1914.5,-134 1897.9118,-119.3735 1876.577,-106.6692 1859.1865,-97.5381"/>
<polygon fill="#191970" stroke="#191970" points="2034.119,-331.6186 2039.2121,-340.909 2041.0241,-330.4702 2034.119,-331.6186"/>
</g>
<!-- Node65&#45;&gt;Node36 -->
<g id="edge82" class="edge">
<title>Node65&#45;&gt;Node36</title>
<path fill="none" stroke="#191970" d="M2061.0838,-334.7467C2115.6934,-292.0793 2257.9927,-174.7555 2226.5,-134 2154.5199,-40.8489 1284.5825,-19.9545 1070.7453,-16.2137"/>
<polygon fill="#191970" stroke="#191970" points="2058.8684,-332.0356 2053.1123,-340.9304 2063.1589,-337.5666 2058.8684,-332.0356"/>
</g>
<!-- Node65&#45;&gt;Node52 -->
<g id="edge81" class="edge">
<title>Node65&#45;&gt;Node52</title>
<path fill="none" stroke="#191970" d="M1985.5524,-347.9655C1832.4387,-340.6849 1408.2621,-318.951 1348.5,-299 1243.8369,-264.0593 1227.9701,-230.9412 1139.5,-165 1122.5706,-152.3817 1120.4178,-146.6339 1103.5,-134 1082.3244,-118.1864 1056.3683,-102.0226 1039.879,-92.1236"/>
<polygon fill="#191970" stroke="#191970" points="1985.5154,-351.4676 1995.6697,-348.4443 1985.8464,-344.4754 1985.5154,-351.4676"/>
</g>
<!-- Node65&#45;&gt;Node34 -->
<g id="edge78" class="edge">
<title>Node65&#45;&gt;Node34</title>
<path fill="none" stroke="#191970" d="M2045.6728,-331.0191C2047.9536,-321.4494 2050.3698,-309.7017 2051.5,-299 2056.0743,-255.6853 2054.0244,-244.4823 2051.5,-201 2050.7905,-188.7786 2049.1415,-175.0078 2047.7514,-164.783"/>
<polygon fill="#191970" stroke="#191970" points="2042.2763,-330.1744 2043.231,-340.7261 2049.0648,-331.8821 2042.2763,-330.1744"/>
</g>
<!-- Node65&#45;&gt;Node56 -->
<g id="edge84" class="edge">
<title>Node65&#45;&gt;Node56</title>
<path fill="none" stroke="#191970" d="M1985.5843,-347.9685C1798.9946,-339.2698 1200.0115,-310.5075 1183.5,-299 1144.4781,-271.8041 1179.0781,-228.8217 1140.5,-201 1070.087,-150.2196 837.1605,-179.104 751.5,-165 747.0357,-164.2649 742.423,-163.3941 737.8108,-162.446"/>
<polygon fill="#191970" stroke="#191970" points="1985.5662,-351.4714 1995.7181,-348.4401 1985.8917,-344.479 1985.5662,-351.4714"/>
</g>
<!-- Node65&#45;&gt;Node33 -->
<g id="edge79" class="edge">
<title>Node65&#45;&gt;Node33</title>
<path fill="none" stroke="#191970" d="M2095.4667,-346.0782C2154.636,-340.0935 2250.8496,-326.7858 2329.5,-299 2377.7,-281.9718 2428.8436,-250.5834 2457.2172,-231.8182"/>
<polygon fill="#191970" stroke="#191970" points="2094.8338,-342.6233 2085.2213,-347.0786 2095.5141,-349.5902 2094.8338,-342.6233"/>
</g>
<!-- Node65&#45;&gt;Node61 -->
<g id="edge85" class="edge">
<title>Node65&#45;&gt;Node61</title>
<path fill="none" stroke="#191970" d="M1985.8124,-348.1946C1817.6553,-340.973 1309.6992,-318.1303 1145.5,-299 995.7392,-281.5518 821.3012,-246.9725 733.7376,-228.6124"/>
<polygon fill="#191970" stroke="#191970" points="1985.7809,-351.6964 1995.9215,-348.6275 1986.0804,-344.7028 1985.7809,-351.6964"/>
</g>
<!-- Node65&#45;&gt;Node29 -->
<g id="edge71" class="edge">
<title>Node65&#45;&gt;Node29</title>
<path fill="none" stroke="#191970" d="M2095.449,-345.7434C2238.3701,-333.3717 2620.3916,-300.3027 2761.3189,-288.1035"/>
<polygon fill="#191970" stroke="#191970" points="2094.8368,-342.2832 2085.1759,-346.6327 2095.4405,-349.2572 2094.8368,-342.2832"/>
</g>
<!-- Node65&#45;&gt;Node66 -->
<g id="edge73" class="edge">
<title>Node65&#45;&gt;Node66</title>
<path fill="none" stroke="#191970" d="M1985.8982,-340.8474C1912.2056,-327.82 1781.9904,-304.8004 1711.0123,-292.2528"/>
<polygon fill="#191970" stroke="#191970" points="1985.4528,-344.3229 1995.9094,-342.6172 1986.6714,-337.4298 1985.4528,-344.3229"/>
</g>
<!-- Node29&#45;&gt;Node27 -->
<g id="edge72" class="edge">
<title>Node29&#45;&gt;Node27</title>
<path fill="none" stroke="#191970" d="M2874.8222,-265.089C2942.5982,-241.0134 3038.6095,-194.6612 3001.5,-134 2968.7569,-80.4764 2778.2879,-38.0269 2697.5989,-22.197"/>
<polygon fill="#191970" stroke="#191970" points="2873.3481,-261.8956 2865.0466,-268.4785 2875.6414,-268.5093 2873.3481,-261.8956"/>
</g>
<!-- Node66&#45;&gt;Node47 -->
<g id="edge74" class="edge">
<title>Node66&#45;&gt;Node47</title>
<path fill="none" stroke="#191970" d="M1652.6565,-258.8118C1648.5775,-247.4246 1643.9747,-234.5752 1640.9227,-226.055"/>
<polygon fill="#191970" stroke="#191970" points="1649.3867,-260.0627 1656.054,-268.2967 1655.9767,-257.7021 1649.3867,-260.0627"/>
</g>
<!-- Node66&#45;&gt;Node37 -->
<g id="edge76" class="edge">
<title>Node66&#45;&gt;Node37</title>
<path fill="none" stroke="#191970" d="M1624.6496,-263.8315C1582.488,-241.7061 1515.7632,-207.9408 1488.5,-201 1343.7904,-164.159 956.7771,-218.8518 817.5,-165 797.1708,-157.1397 798.1182,-145.3324 779.5,-134 745.1529,-113.0939 732.1859,-116.5285 696.5,-98 650.9141,-74.3313 599.8924,-41.2204 575.7002,-25.091"/>
<polygon fill="#191970" stroke="#191970" points="1623.0298,-266.9341 1633.5084,-268.4987 1626.2926,-260.741 1623.0298,-266.9341"/>
</g>
<!-- Node67 -->
<g id="node38" class="node">
<title>Node67</title>
<g id="a_node38"><a xlink:href="so__uid__generator_8cc.html" target="_top" xlink:title="core/sim_object/so\l_uid_generator.cc">
<polygon fill="#ffffff" stroke="#000000" points="1758,-201.5 1758,-231.5 1857,-231.5 1857,-201.5 1758,-201.5"/>
<text text-anchor="start" x="1766" y="-219.5" font-family="Helvetica,sans-Serif" font-size="10.00" fill="#000000">core/sim_object/so</text>
<text text-anchor="middle" x="1807.5" y="-208.5" font-family="Helvetica,sans-Serif" font-size="10.00" fill="#000000">_uid_generator.cc</text>
</a>
</g>
</g>
<!-- Node66&#45;&gt;Node67 -->
<g id="edge75" class="edge">
<title>Node66&#45;&gt;Node67</title>
<path fill="none" stroke="#191970" d="M1703.6121,-264.1746C1726.1882,-253.8143 1753.5968,-241.2364 1774.5918,-231.6017"/>
<polygon fill="#191970" stroke="#191970" points="1701.8941,-261.112 1694.2652,-268.4639 1704.8138,-267.474 1701.8941,-261.112"/>
</g>
<!-- Node68&#45;&gt;Node37 -->
<g id="edge89" class="edge">
<title>Node68&#45;&gt;Node37</title>
<path fill="none" stroke="#191970" d="M410.9865,-335.1518C378.212,-313.2698 325.5,-269.7926 325.5,-216.5 325.5,-216.5 325.5,-216.5 325.5,-149.5 325.5,-111.3133 321.9001,-93.3907 349.5,-67 372.7006,-44.8159 458.117,-29.4314 513.1909,-21.5676"/>
<polygon fill="#191970" stroke="#191970" points="409.3422,-338.2563 419.6415,-340.7412 413.1397,-332.3759 409.3422,-338.2563"/>
</g>
<!-- Node68&#45;&gt;Node69 -->
<g id="edge87" class="edge">
<title>Node68&#45;&gt;Node69</title>
<path fill="none" stroke="#191970" d="M442.0337,-330.9863C445.5665,-318.5286 449.9912,-302.9258 452.7828,-293.0817"/>
<polygon fill="#191970" stroke="#191970" points="438.5833,-330.325 439.2222,-340.9005 445.3178,-332.2348 438.5833,-330.325"/>
</g>
<!-- Node69&#45;&gt;Node36 -->
<g id="edge88" class="edge">
<title>Node69&#45;&gt;Node36</title>
<path fill="none" stroke="#191970" d="M454.4801,-263.6355C453.4529,-220.2612 457.765,-116.9738 517.5,-67 552.2943,-37.8914 857.285,-22.33 976.2593,-17.3233"/>
<polygon fill="#191970" stroke="#191970" points="450.9866,-263.8811 454.8476,-273.7474 457.982,-263.6268 450.9866,-263.8811"/>
</g>
<!-- Node70&#45;&gt;Node47 -->
<g id="edge92" class="edge">
<title>Node70&#45;&gt;Node47</title>
<path fill="none" stroke="#191970" d="M1451.7721,-271.0779C1496.0453,-258.0678 1564.6269,-237.9145 1604.8938,-226.0817"/>
<polygon fill="#191970" stroke="#191970" points="1450.7744,-267.7231 1442.1668,-273.9005 1452.748,-274.4391 1450.7744,-267.7231"/>
</g>
<!-- Node70&#45;&gt;Node51 -->
<g id="edge94" class="edge">
<title>Node70&#45;&gt;Node51</title>
<path fill="none" stroke="#191970" d="M1373.3491,-269.5185C1357.1677,-261.2274 1339.6931,-248.967 1330.5,-232 1317.3698,-207.7666 1332.1586,-121.144 1337.6301,-92.0834"/>
<polygon fill="#191970" stroke="#191970" points="1372.1209,-272.8101 1382.6546,-273.947 1375.129,-266.4894 1372.1209,-272.8101"/>
</g>
<!-- Node70&#45;&gt;Node54 -->
<g id="edge93" class="edge">
<title>Node70&#45;&gt;Node54</title>
<path fill="none" stroke="#191970" d="M1471.8107,-276.5406C1547.0935,-267.493 1668.8415,-250.6301 1710.5,-232 1730.7129,-222.9606 1728.7635,-208.7634 1749.5,-201 1833.0382,-169.7245 2462.5595,-171.8096 2551.5,-165 2579.5113,-162.8554 2610.5193,-159.6023 2636.4807,-156.6292"/>
<polygon fill="#191970" stroke="#191970" points="1471.0266,-273.1091 1461.5095,-277.7648 1471.8527,-280.0602 1471.0266,-273.1091"/>
</g>
<!-- Node71 -->
<g id="node42" class="node">
<title>Node71</title>
<g id="a_node42"><a xlink:href="substance__initializers_8h.html" target="_top" xlink:title="core/substance_initializers.h">
<polygon fill="#ffffff" stroke="#000000" points="1339.5,-207 1339.5,-226 1479.5,-226 1479.5,-207 1339.5,-207"/>
<text text-anchor="middle" x="1409.5" y="-214" font-family="Helvetica,sans-Serif" font-size="10.00" fill="#000000">core/substance_initializers.h</text>
</a>
</g>
</g>
<!-- Node70&#45;&gt;Node71 -->
<g id="edge95" class="edge">
<title>Node70&#45;&gt;Node71</title>
<path fill="none" stroke="#191970" d="M1409.5,-263.6079C1409.5,-251.214 1409.5,-235.8263 1409.5,-226.0817"/>
<polygon fill="#191970" stroke="#191970" points="1406.0001,-263.9005 1409.5,-273.9005 1413.0001,-263.9006 1406.0001,-263.9005"/>
</g>
<!-- Node72&#45;&gt;Node27 -->
<g id="edge100" class="edge">
<title>Node72&#45;&gt;Node27</title>
<path fill="none" stroke="#191970" d="M307.3369,-80.095C395.8173,-76.9 558.0007,-71.1739 696.5,-67 1475.932,-43.5104 2429.4632,-20.9236 2625.3292,-16.342"/>
<polygon fill="#191970" stroke="#191970" points="307.0467,-76.6031 297.1798,-80.4624 307.2998,-83.5985 307.0467,-76.6031"/>
</g>
<!-- Node72&#45;&gt;Node37 -->
<g id="edge102" class="edge">
<title>Node72&#45;&gt;Node37</title>
<path fill="none" stroke="#191970" d="M307.1187,-67.9397C308.5926,-67.6225 310.0545,-67.3089 311.5,-67 381.9204,-51.951 463.6718,-35.2564 513.9948,-25.069"/>
<polygon fill="#191970" stroke="#191970" points="306.3005,-64.5357 297.2682,-70.0736 307.7826,-71.377 306.3005,-64.5357"/>
</g>
<!-- Node73 -->
<g id="node44" class="node">
<title>Node73</title>
<g id="a_node44"><a xlink:href="command__line__options_8cc.html" target="_top" xlink:title="core/param/command\l_line_options.cc">
<polygon fill="#ffffff" stroke="#000000" points="186,-.5 186,-30.5 297,-30.5 297,-.5 186,-.5"/>
<text text-anchor="start" x="194" y="-18.5" font-family="Helvetica,sans-Serif" font-size="10.00" fill="#000000">core/param/command</text>
<text text-anchor="middle" x="241.5" y="-7.5" font-family="Helvetica,sans-Serif" font-size="10.00" fill="#000000">_line_options.cc</text>
</a>
</g>
</g>
<!-- Node72&#45;&gt;Node73 -->
<g id="edge101" class="edge">
<title>Node72&#45;&gt;Node73</title>
<path fill="none" stroke="#191970" d="M241.5,-57.0249C241.5,-48.128 241.5,-38.4287 241.5,-30.6432"/>
<polygon fill="#191970" stroke="#191970" points="238.0001,-57.2966 241.5,-67.2967 245.0001,-57.2967 238.0001,-57.2966"/>
</g>
<!-- Node74&#45;&gt;Node37 -->
<g id="edge109" class="edge">
<title>Node74&#45;&gt;Node37</title>
<path fill="none" stroke="#191970" d="M62.1877,-398.1658C69.2848,-372.2912 80.5,-324.8596 80.5,-283.5 80.5,-283.5 80.5,-283.5 80.5,-149.5 80.5,-107.3006 92.3303,-90.3213 127.5,-67 159.1576,-46.0076 406.8436,-26.3451 513.2211,-18.7767"/>
<polygon fill="#191970" stroke="#191970" points="58.8012,-397.2792 59.4429,-407.8545 65.5361,-399.1872 58.8012,-397.2792"/>
</g>
<!-- Node75&#45;&gt;Node36 -->
<g id="edge119" class="edge">
<title>Node75&#45;&gt;Node36</title>
<path fill="none" stroke="#191970" d="M279.3638,-331.4167C302.2959,-278.5142 374.6947,-129.7664 487.5,-67 529.7235,-43.5063 853.3498,-24.3698 976.3073,-17.8762"/>
<polygon fill="#191970" stroke="#191970" points="276.013,-330.3535 275.3315,-340.9264 282.4576,-333.0862 276.013,-330.3535"/>
</g>
<!-- Node78&#45;&gt;Node31 -->
<g id="edge127" class="edge">
<title>Node78&#45;&gt;Node31</title>
<path fill="none" stroke="#191970" d="M2453.3283,-473.7616C2336.4494,-461.0773 2058.3026,-425.3142 1987.5,-366 1964.8184,-346.9987 1957.0557,-310.4268 1954.576,-293.0801"/>
<polygon fill="#191970" stroke="#191970" points="2453.1441,-477.2618 2463.46,-474.847 2453.8898,-470.3016 2453.1441,-477.2618"/>
</g>
<!-- Node78&#45;&gt;Node52 -->
<g id="edge135" class="edge">
<title>Node78&#45;&gt;Node52</title>
<path fill="none" stroke="#191970" d="M2452.9715,-477.3632C2306.4828,-472.5155 1900.5563,-457.0518 1845.5,-433 1827.0597,-424.9442 1830.8135,-410.3398 1812.5,-402 1667.369,-335.9084 1613.308,-388.9726 1455.5,-366 1298.3399,-343.1218 1250.8434,-360.6954 1104.5,-299 1056.556,-278.7878 1032.5605,-278.133 1008.5,-232 994.3426,-204.855 1018.1446,-194.9482 1024.5,-165 1027.3601,-151.5224 1024.6337,-147.7771 1024.5,-134 1024.3594,-119.5136 1023.9963,-102.7383 1023.7486,-92.3721"/>
<polygon fill="#191970" stroke="#191970" points="2452.9527,-480.8644 2463.062,-477.6938 2453.182,-473.8681 2452.9527,-480.8644"/>
</g>
<!-- Node78&#45;&gt;Node34 -->
<g id="edge130" class="edge">
<title>Node78&#45;&gt;Node34</title>
<path fill="none" stroke="#191970" d="M2491.509,-461.1144C2460.1286,-421.9258 2380.2864,-327.2641 2296.5,-268 2229.6189,-220.6934 2140.8785,-183.9598 2088.8039,-164.6183"/>
<polygon fill="#191970" stroke="#191970" points="2489.1425,-463.7631 2498.0988,-469.4231 2494.627,-459.4133 2489.1425,-463.7631"/>
</g>
<!-- Node78&#45;&gt;Node33 -->
<g id="edge131" class="edge">
<title>Node78&#45;&gt;Node33</title>
<path fill="none" stroke="#191970" d="M2512.7619,-459.7C2515.4506,-451.581 2518.1673,-441.9561 2519.5,-433 2530.2935,-360.4653 2543.276,-337.372 2519.5,-268 2514.7284,-254.0776 2504.488,-241.0147 2495.5635,-231.5285"/>
<polygon fill="#191970" stroke="#191970" points="2509.3933,-458.728 2509.3624,-469.3228 2515.9936,-461.0598 2509.3933,-458.728"/>
</g>
<!-- Node78&#45;&gt;Node38 -->
<g id="edge132" class="edge">
<title>Node78&#45;&gt;Node38</title>
<path fill="none" stroke="#191970" d="M2557.6258,-472.8457C2617.5455,-465.0883 2711.6092,-450.6151 2742.5,-433 2793.0946,-404.149 2786.8533,-374.6668 2829.5,-335 2848.7667,-317.0796 2860.4685,-319.8647 2876.5,-299 2911.7663,-253.1014 2930.4223,-184.2663 2936.3644,-159.1285"/>
<polygon fill="#191970" stroke="#191970" points="2557.066,-469.3886 2547.5882,-474.1238 2557.9503,-476.3325 2557.066,-469.3886"/>
</g>
<!-- Node78&#45;&gt;Node64 -->
<g id="edge128" class="edge">
<title>Node78&#45;&gt;Node64</title>
<path fill="none" stroke="#191970" d="M2453.1623,-477.5667C2337.9058,-473.9582 2053.633,-462.5793 1817.5,-433 1805.2869,-431.4701 1792.1634,-429.303 1780.0036,-427.0726"/>
<polygon fill="#191970" stroke="#191970" points="2453.3534,-481.0741 2463.456,-477.8822 2453.5679,-474.0774 2453.3534,-481.0741"/>
</g>
<!-- Node78&#45;&gt;Node70 -->
<g id="edge129" class="edge">
<title>Node78&#45;&gt;Node70</title>
<path fill="none" stroke="#191970" d="M2453.0821,-476.7202C2330.2846,-471.0739 2026.8841,-455.269 1927.5,-433 1889.4809,-424.4811 1883.4006,-411.0315 1845.5,-402 1698.9728,-367.0835 1647.2053,-424.7385 1508.5,-366 1468.9443,-349.2491 1433.0346,-311.2183 1417.552,-293.2498"/>
<polygon fill="#191970" stroke="#191970" points="2453.2005,-480.2291 2463.3494,-477.1879 2453.5191,-473.2364 2453.2005,-480.2291"/>
</g>
<!-- Node79 -->
<g id="node49" class="node">
<title>Node79</title>
<g id="a_node49"><a xlink:href="displacement__op__cuda__kernel_8h.html" target="_top" xlink:title="core/gpu/displacement\l_op_cuda_kernel.h">
<polygon fill="#ffffff" stroke="#000000" points="2838,-335.5 2838,-365.5 2953,-365.5 2953,-335.5 2838,-335.5"/>
<text text-anchor="start" x="2846" y="-353.5" font-family="Helvetica,sans-Serif" font-size="10.00" fill="#000000">core/gpu/displacement</text>
<text text-anchor="middle" x="2895.5" y="-342.5" font-family="Helvetica,sans-Serif" font-size="10.00" fill="#000000">_op_cuda_kernel.h</text>
</a>
</g>
</g>
<!-- Node78&#45;&gt;Node79 -->
<g id="edge133" class="edge">
<title>Node78&#45;&gt;Node79</title>
<path fill="none" stroke="#191970" d="M2557.6556,-475.8459C2635.7579,-470.393 2778.72,-457.3738 2823.5,-433 2852.5532,-417.1863 2875.3744,-384.7564 2887.0134,-365.6035"/>
<polygon fill="#191970" stroke="#191970" points="2557.2816,-472.3632 2547.5427,-476.535 2557.7575,-479.347 2557.2816,-472.3632"/>
</g>
<!-- Node79&#45;&gt;Node43 -->
<g id="edge134" class="edge">
<title>Node79&#45;&gt;Node43</title>
<path fill="none" stroke="#191970" d="M2921.4033,-328.4906C2966.7571,-287.3183 3051.211,-197.1151 3001.5,-134 2927.3072,-39.8018 2064.0724,-20.097 1810.2666,-16.3283"/>
<polygon fill="#191970" stroke="#191970" points="2918.8318,-326.0941 2913.6943,-335.36 2923.4888,-331.3202 2918.8318,-326.0941"/>
</g>
</g>
</svg>
