<?xml version="1.0" encoding="UTF-8" standalone="no"?>
<!DOCTYPE svg PUBLIC "-//W3C//DTD SVG 1.1//EN"
 "http://www.w3.org/Graphics/SVG/1.1/DTD/svg11.dtd">
<!-- Generated by graphviz version 2.40.1 (20161225.0304)
 -->
<!-- Title: core/util/random.h Pages: 1 -->
<svg width="931pt" height="319pt"
 viewBox="0.00 0.00 930.50 319.00" xmlns="http://www.w3.org/2000/svg" xmlns:xlink="http://www.w3.org/1999/xlink">
<g id="graph0" class="graph" transform="scale(1 1) rotate(0) translate(4 315)">
<title>core/util/random.h</title>
<polygon fill="#ffffff" stroke="transparent" points="-4,4 -4,-315 926.5,-315 926.5,4 -4,4"/>
<!-- Node0 -->
<g id="node1" class="node">
<title>Node0</title>
<polygon fill="#bfbfbf" stroke="#000000" points="130,-291.5 130,-310.5 236,-310.5 236,-291.5 130,-291.5"/>
<text text-anchor="middle" x="183" y="-298.5" font-family="Helvetica,sans-Serif" font-size="10.00" fill="#000000">core/util/random.h</text>
</g>
<!-- Node1 -->
<g id="node2" class="node">
<title>Node1</title>
<polygon fill="#ffffff" stroke="#bfbfbf" points="0,-230 0,-249 42,-249 42,-230 0,-230"/>
<text text-anchor="middle" x="21" y="-237" font-family="Helvetica,sans-Serif" font-size="10.00" fill="#000000">array</text>
</g>
<!-- Node0&#45;&gt;Node1 -->
<g id="edge1" class="edge">
<title>Node0&#45;&gt;Node1</title>
<path fill="none" stroke="#191970" d="M155.0424,-291.4998C129.1687,-282.5602 89.7254,-268.5565 56,-255 54.4315,-254.3695 52.8291,-253.7113 51.2151,-253.0371"/>
<polygon fill="#191970" stroke="#191970" points="52.5684,-249.8092 41.9985,-249.0822 49.8081,-256.242 52.5684,-249.8092"/>
</g>
<!-- Node2 -->
<g id="node3" class="node">
<title>Node2</title>
<polygon fill="#ffffff" stroke="#bfbfbf" points="194,-56.5 194,-75.5 240,-75.5 240,-56.5 194,-56.5"/>
<text text-anchor="middle" x="217" y="-63.5" font-family="Helvetica,sans-Serif" font-size="10.00" fill="#000000">cstdio</text>
</g>
<!-- Node0&#45;&gt;Node2 -->
<g id="edge2" class="edge">
<title>Node0&#45;&gt;Node2</title>
<path fill="none" stroke="#191970" d="M166.9691,-291.3793C134.2203,-270.4152 64.6999,-218.4361 89,-168 109.0631,-126.358 155.3124,-96.4522 186.3675,-80.1815"/>
<polygon fill="#191970" stroke="#191970" points="188.1311,-83.2117 195.4716,-75.5718 184.969,-76.9666 188.1311,-83.2117"/>
</g>
<!-- Node3 -->
<g id="node4" class="node">
<title>Node3</title>
<polygon fill="#ffffff" stroke="#bfbfbf" points="144,-230 144,-249 222,-249 222,-230 144,-230"/>
<text text-anchor="middle" x="183" y="-237" font-family="Helvetica,sans-Serif" font-size="10.00" fill="#000000">TRandom3.h</text>
</g>
<!-- Node0&#45;&gt;Node3 -->
<g id="edge3" class="edge">
<title>Node0&#45;&gt;Node3</title>
<path fill="none" stroke="#191970" d="M183,-291.3906C183,-282.8657 183,-270.1392 183,-259.4235"/>
<polygon fill="#191970" stroke="#191970" points="186.5001,-259.2448 183,-249.2449 179.5001,-259.2449 186.5001,-259.2448"/>
</g>
<!-- Node4 -->
<g id="node5" class="node">
<title>Node4</title>
<g id="a_node5"><a xlink:href="math__array_8h.html" target="_top" xlink:title="core/container/math\l_array.h">
<polygon fill="#ffffff" stroke="#000000" points="286.5,-224.5 286.5,-254.5 401.5,-254.5 401.5,-224.5 286.5,-224.5"/>
<text text-anchor="start" x="294.5" y="-242.5" font-family="Helvetica,sans-Serif" font-size="10.00" fill="#000000">core/container/math</text>
<text text-anchor="middle" x="344" y="-231.5" font-family="Helvetica,sans-Serif" font-size="10.00" fill="#000000">_array.h</text>
</a>
</g>
</g>
<!-- Node0&#45;&gt;Node4 -->
<g id="edge4" class="edge">
<title>Node0&#45;&gt;Node4</title>
<path fill="none" stroke="#191970" d="M208.1563,-291.3906C231.3579,-282.5279 266.4479,-269.1239 295.1518,-258.1594"/>
<polygon fill="#191970" stroke="#191970" points="296.5223,-261.3826 304.615,-254.5446 294.0243,-254.8435 296.5223,-261.3826"/>
</g>
<!-- Node12 -->
<g id="node13" class="node">
<title>Node12</title>
<g id="a_node13"><a xlink:href="root_8h.html" target="_top" xlink:title="core/util/root.h">
<polygon fill="#ffffff" stroke="#000000" points="612,-168.5 612,-187.5 700,-187.5 700,-168.5 612,-168.5"/>
<text text-anchor="middle" x="656" y="-175.5" font-family="Helvetica,sans-Serif" font-size="10.00" fill="#000000">core/util/root.h</text>
</a>
</g>
</g>
<!-- Node0&#45;&gt;Node12 -->
<g id="edge25" class="edge">
<title>Node0&#45;&gt;Node12</title>
<path fill="none" stroke="#191970" d="M236.3408,-291.8821C282.7786,-283.5539 351.752,-270.2419 411,-255 485.7798,-235.7624 571.5057,-207.3147 619.1456,-190.9218"/>
<polygon fill="#191970" stroke="#191970" points="620.4075,-194.1889 628.7157,-187.6144 618.1209,-187.5729 620.4075,-194.1889"/>
</g>
<!-- Node5 -->
<g id="node6" class="node">
<title>Node5</title>
<polygon fill="#ffffff" stroke="#bfbfbf" points="98,-168.5 98,-187.5 162,-187.5 162,-168.5 98,-168.5"/>
<text text-anchor="middle" x="130" y="-175.5" font-family="Helvetica,sans-Serif" font-size="10.00" fill="#000000">algorithm</text>
</g>
<!-- Node4&#45;&gt;Node5 -->
<g id="edge5" class="edge">
<title>Node4&#45;&gt;Node5</title>
<path fill="none" stroke="#191970" d="M291.6497,-224.4554C254.8224,-213.8718 206.1885,-199.8953 171.9181,-190.0466"/>
<polygon fill="#191970" stroke="#191970" points="172.7921,-186.6561 162.2144,-187.2579 170.8587,-193.3838 172.7921,-186.6561"/>
</g>
<!-- Node6 -->
<g id="node7" class="node">
<title>Node6</title>
<polygon fill="#ffffff" stroke="#bfbfbf" points="180,-168.5 180,-187.5 232,-187.5 232,-168.5 180,-168.5"/>
<text text-anchor="middle" x="206" y="-175.5" font-family="Helvetica,sans-Serif" font-size="10.00" fill="#000000">cassert</text>
</g>
<!-- Node4&#45;&gt;Node6 -->
<g id="edge6" class="edge">
<title>Node4&#45;&gt;Node6</title>
<path fill="none" stroke="#191970" d="M310.2414,-224.4554C287.7207,-214.419 258.3533,-201.3314 236.5308,-191.6061"/>
<polygon fill="#191970" stroke="#191970" points="237.9439,-188.4041 227.3851,-187.5303 235.0944,-194.7979 237.9439,-188.4041"/>
</g>
<!-- Node7 -->
<g id="node8" class="node">
<title>Node7</title>
<polygon fill="#ffffff" stroke="#bfbfbf" points="250.5,-168.5 250.5,-187.5 297.5,-187.5 297.5,-168.5 250.5,-168.5"/>
<text text-anchor="middle" x="274" y="-175.5" font-family="Helvetica,sans-Serif" font-size="10.00" fill="#000000">cmath</text>
</g>
<!-- Node4&#45;&gt;Node7 -->
<g id="edge7" class="edge">
<title>Node4&#45;&gt;Node7</title>
<path fill="none" stroke="#191970" d="M326.6966,-224.2977C316.4738,-215.3163 303.5177,-203.9334 293.0104,-194.702"/>
<polygon fill="#191970" stroke="#191970" points="295.0305,-191.8178 285.2079,-187.8469 290.4103,-197.0766 295.0305,-191.8178"/>
</g>
<!-- Node8 -->
<g id="node9" class="node">
<title>Node8</title>
<polygon fill="#ffffff" stroke="#bfbfbf" points="316,-168.5 316,-187.5 372,-187.5 372,-168.5 316,-168.5"/>
<text text-anchor="middle" x="344" y="-175.5" font-family="Helvetica,sans-Serif" font-size="10.00" fill="#000000">numeric</text>
</g>
<!-- Node4&#45;&gt;Node8 -->
<g id="edge8" class="edge">
<title>Node4&#45;&gt;Node8</title>
<path fill="none" stroke="#191970" d="M344,-224.2977C344,-216.3834 344,-206.6043 344,-198.0759"/>
<polygon fill="#191970" stroke="#191970" points="347.5001,-197.8469 344,-187.8469 340.5001,-197.847 347.5001,-197.8469"/>
</g>
<!-- Node9 -->
<g id="node10" class="node">
<title>Node9</title>
<polygon fill="#ffffff" stroke="#bfbfbf" points="390.5,-168.5 390.5,-187.5 447.5,-187.5 447.5,-168.5 390.5,-168.5"/>
<text text-anchor="middle" x="419" y="-175.5" font-family="Helvetica,sans-Serif" font-size="10.00" fill="#000000">ostream</text>
</g>
<!-- Node4&#45;&gt;Node9 -->
<g id="edge9" class="edge">
<title>Node4&#45;&gt;Node9</title>
<path fill="none" stroke="#191970" d="M362.5393,-224.2977C373.6008,-215.2274 387.6491,-203.7077 398.9653,-194.4285"/>
<polygon fill="#191970" stroke="#191970" points="401.4781,-196.8942 406.9916,-187.8469 397.0396,-191.4813 401.4781,-196.8942"/>
</g>
<!-- Node10 -->
<g id="node11" class="node">
<title>Node10</title>
<polygon fill="#ffffff" stroke="#bfbfbf" points="465.5,-168.5 465.5,-187.5 530.5,-187.5 530.5,-168.5 465.5,-168.5"/>
<text text-anchor="middle" x="498" y="-175.5" font-family="Helvetica,sans-Serif" font-size="10.00" fill="#000000">stdexcept</text>
</g>
<!-- Node4&#45;&gt;Node10 -->
<g id="edge10" class="edge">
<title>Node4&#45;&gt;Node10</title>
<path fill="none" stroke="#191970" d="M381.6726,-224.4554C407.0298,-214.329 440.1652,-201.0964 464.5826,-191.3453"/>
<polygon fill="#191970" stroke="#191970" points="466.1467,-194.4895 474.1355,-187.5303 463.5505,-187.9887 466.1467,-194.4895"/>
</g>
<!-- Node11 -->
<g id="node12" class="node">
<title>Node11</title>
<polygon fill="#ffffff" stroke="#bfbfbf" points="548.5,-168.5 548.5,-187.5 593.5,-187.5 593.5,-168.5 548.5,-168.5"/>
<text text-anchor="middle" x="571" y="-175.5" font-family="Helvetica,sans-Serif" font-size="10.00" fill="#000000">utility</text>
</g>
<!-- Node4&#45;&gt;Node11 -->
<g id="edge11" class="edge">
<title>Node4&#45;&gt;Node11</title>
<path fill="none" stroke="#191970" d="M401.6916,-225.2311C438.4857,-215.9262 487.3839,-203.1851 538.4581,-188.3558"/>
<polygon fill="#191970" stroke="#191970" points="539.7408,-191.6275 548.3576,-185.463 537.7773,-184.9085 539.7408,-191.6275"/>
</g>
<!-- Node4&#45;&gt;Node12 -->
<g id="edge12" class="edge">
<title>Node4&#45;&gt;Node12</title>
<path fill="none" stroke="#191970" d="M401.5892,-228.1483C458.7759,-216.8759 545.7839,-199.7253 601.7675,-188.6901"/>
<polygon fill="#191970" stroke="#191970" points="602.7113,-192.0714 611.8456,-186.7035 601.3575,-185.2036 602.7113,-192.0714"/>
</g>
<!-- Node13 -->
<g id="node14" class="node">
<title>Node13</title>
<polygon fill="#ffffff" stroke="#bfbfbf" points="539.5,-112.5 539.5,-131.5 596.5,-131.5 596.5,-112.5 539.5,-112.5"/>
<text text-anchor="middle" x="568" y="-119.5" font-family="Helvetica,sans-Serif" font-size="10.00" fill="#000000">TClass.h</text>
</g>
<!-- Node12&#45;&gt;Node13 -->
<g id="edge13" class="edge">
<title>Node12&#45;&gt;Node13</title>
<path fill="none" stroke="#191970" d="M640.6716,-168.2455C627.1697,-159.6534 607.2878,-147.0014 591.7314,-137.1018"/>
<polygon fill="#191970" stroke="#191970" points="593.4685,-134.0587 583.1528,-131.6427 589.7103,-139.9643 593.4685,-134.0587"/>
</g>
<!-- Node14 -->
<g id="node15" class="node">
<title>Node14</title>
<g id="a_node15"><a xlink:href="log_8h.html" target="_top" xlink:title="core/util/log.h">
<polygon fill="#ffffff" stroke="#000000" points="614.5,-112.5 614.5,-131.5 697.5,-131.5 697.5,-112.5 614.5,-112.5"/>
<text text-anchor="middle" x="656" y="-119.5" font-family="Helvetica,sans-Serif" font-size="10.00" fill="#000000">core/util/log.h</text>
</a>
</g>
</g>
<!-- Node12&#45;&gt;Node14 -->
<g id="edge14" class="edge">
<title>Node12&#45;&gt;Node14</title>
<path fill="none" stroke="#191970" d="M656,-168.2455C656,-160.9382 656,-150.6944 656,-141.7046"/>
<polygon fill="#191970" stroke="#191970" points="659.5001,-141.6426 656,-131.6427 652.5001,-141.6427 659.5001,-141.6426"/>
</g>
<!-- Node14&#45;&gt;Node2 -->
<g id="edge16" class="edge">
<title>Node14&#45;&gt;Node2</title>
<path fill="none" stroke="#191970" d="M614.3029,-113.4022C611.4973,-112.9035 608.7103,-112.4306 606,-112 474.9889,-91.1866 317.7779,-75.3841 250.3591,-69.0403"/>
<polygon fill="#191970" stroke="#191970" points="250.6095,-65.5486 240.3275,-68.1041 249.959,-72.5183 250.6095,-65.5486"/>
</g>
<!-- Node15 -->
<g id="node16" class="node">
<title>Node15</title>
<polygon fill="#ffffff" stroke="#bfbfbf" points="444,-56.5 444,-75.5 498,-75.5 498,-56.5 444,-56.5"/>
<text text-anchor="middle" x="471" y="-63.5" font-family="Helvetica,sans-Serif" font-size="10.00" fill="#000000">TError.h</text>
</g>
<!-- Node14&#45;&gt;Node15 -->
<g id="edge15" class="edge">
<title>Node14&#45;&gt;Node15</title>
<path fill="none" stroke="#191970" d="M624.1974,-112.3733C591.8519,-102.5822 541.7782,-87.4247 507.7536,-77.1254"/>
<polygon fill="#191970" stroke="#191970" points="508.7645,-73.7746 498.1794,-74.2273 506.7364,-80.4744 508.7645,-73.7746"/>
</g>
<!-- Node16 -->
<g id="node17" class="node">
<title>Node16</title>
<polygon fill="#ffffff" stroke="#bfbfbf" points="516.5,-56.5 516.5,-75.5 565.5,-75.5 565.5,-56.5 516.5,-56.5"/>
<text text-anchor="middle" x="541" y="-63.5" font-family="Helvetica,sans-Serif" font-size="10.00" fill="#000000">cstdlib</text>
</g>
<!-- Node14&#45;&gt;Node16 -->
<g id="edge17" class="edge">
<title>Node14&#45;&gt;Node16</title>
<path fill="none" stroke="#191970" d="M636.2308,-112.3733C617.8531,-103.4241 590.2688,-89.9917 569.5107,-79.8835"/>
<polygon fill="#191970" stroke="#191970" points="571.0343,-76.7325 560.5112,-75.5011 567.9696,-83.026 571.0343,-76.7325"/>
</g>
<!-- Node17 -->
<g id="node18" class="node">
<title>Node17</title>
<polygon fill="#ffffff" stroke="#bfbfbf" points="583.5,-56.5 583.5,-75.5 648.5,-75.5 648.5,-56.5 583.5,-56.5"/>
<text text-anchor="middle" x="616" y="-63.5" font-family="Helvetica,sans-Serif" font-size="10.00" fill="#000000">functional</text>
</g>
<!-- Node14&#45;&gt;Node17 -->
<g id="edge18" class="edge">
<title>Node14&#45;&gt;Node17</title>
<path fill="none" stroke="#191970" d="M649.0325,-112.2455C643.4689,-104.4564 635.522,-93.3308 628.8171,-83.9439"/>
<polygon fill="#191970" stroke="#191970" points="631.5481,-81.7457 622.8876,-75.6427 625.852,-85.8144 631.5481,-81.7457"/>
</g>
<!-- Node18 -->
<g id="node19" class="node">
<title>Node18</title>
<polygon fill="#ffffff" stroke="#bfbfbf" points="667,-56.5 667,-75.5 727,-75.5 727,-56.5 667,-56.5"/>
<text text-anchor="middle" x="697" y="-63.5" font-family="Helvetica,sans-Serif" font-size="10.00" fill="#000000">iostream</text>
</g>
<!-- Node14&#45;&gt;Node18 -->
<g id="edge19" class="edge">
<title>Node14&#45;&gt;Node18</title>
<path fill="none" stroke="#191970" d="M663.1417,-112.2455C668.8444,-104.4564 676.99,-93.3308 683.8625,-83.9439"/>
<polygon fill="#191970" stroke="#191970" points="686.8568,-85.7789 689.9402,-75.6427 681.2087,-81.6437 686.8568,-85.7789"/>
</g>
<!-- Node19 -->
<g id="node20" class="node">
<title>Node19</title>
<polygon fill="#ffffff" stroke="#bfbfbf" points="737,-.5 737,-19.5 781,-19.5 781,-.5 737,-.5"/>
<text text-anchor="middle" x="759" y="-7.5" font-family="Helvetica,sans-Serif" font-size="10.00" fill="#000000">string</text>
</g>
<!-- Node14&#45;&gt;Node19 -->
<g id="edge20" class="edge">
<title>Node14&#45;&gt;Node19</title>
<path fill="none" stroke="#191970" d="M682.7079,-112.3758C700.0659,-104.884 721.9924,-92.8981 736,-76 746.9987,-62.7317 752.8728,-43.8704 755.923,-29.7064"/>
<polygon fill="#191970" stroke="#191970" points="759.4242,-30.0217 757.8078,-19.5509 752.5417,-28.7443 759.4242,-30.0217"/>
</g>
<!-- Node20 -->
<g id="node21" class="node">
<title>Node20</title>
<g id="a_node21"><a xlink:href="string_8h.html" target="_top" xlink:title="core/util/string.h">
<polygon fill="#ffffff" stroke="#000000" points="783,-56.5 783,-75.5 879,-75.5 879,-56.5 783,-56.5"/>
<text text-anchor="middle" x="831" y="-63.5" font-family="Helvetica,sans-Serif" font-size="10.00" fill="#000000">core/util/string.h</text>
</a>
</g>
</g>
<!-- Node14&#45;&gt;Node20 -->
<g id="edge21" class="edge">
<title>Node14&#45;&gt;Node20</title>
<path fill="none" stroke="#191970" d="M686.0836,-112.3733C715.1834,-103.0613 759.4523,-88.8953 791.403,-78.671"/>
<polygon fill="#191970" stroke="#191970" points="792.8515,-81.8824 801.309,-75.5011 790.718,-75.2155 792.8515,-81.8824"/>
</g>
<!-- Node20&#45;&gt;Node19 -->
<g id="edge23" class="edge">
<title>Node20&#45;&gt;Node19</title>
<path fill="none" stroke="#191970" d="M818.4586,-56.2455C807.7213,-47.8943 792.0527,-35.7076 779.4953,-25.9408"/>
<polygon fill="#191970" stroke="#191970" points="781.4401,-23.0194 771.3977,-19.6427 777.1425,-28.5449 781.4401,-23.0194"/>
</g>
<!-- Node21 -->
<g id="node22" class="node">
<title>Node21</title>
<polygon fill="#ffffff" stroke="#bfbfbf" points="801,-.5 801,-19.5 857,-19.5 857,-.5 801,-.5"/>
<text text-anchor="middle" x="829" y="-7.5" font-family="Helvetica,sans-Serif" font-size="10.00" fill="#000000">sstream</text>
</g>
<!-- Node20&#45;&gt;Node21 -->
<g id="edge22" class="edge">
<title>Node20&#45;&gt;Node21</title>
<path fill="none" stroke="#191970" d="M830.6516,-56.2455C830.3907,-48.9382 830.0248,-38.6944 829.7037,-29.7046"/>
<polygon fill="#191970" stroke="#191970" points="833.1992,-29.5113 829.3444,-19.6427 826.2036,-29.7613 833.1992,-29.5113"/>
</g>
<!-- Node22 -->
<g id="node23" class="node">
<title>Node22</title>
<polygon fill="#ffffff" stroke="#bfbfbf" points="875.5,-.5 875.5,-19.5 922.5,-19.5 922.5,-.5 875.5,-.5"/>
<text text-anchor="middle" x="899" y="-7.5" font-family="Helvetica,sans-Serif" font-size="10.00" fill="#000000">vector</text>
</g>
<!-- Node20&#45;&gt;Node22 -->
<g id="edge24" class="edge">
<title>Node20&#45;&gt;Node22</title>
<path fill="none" stroke="#191970" d="M842.8447,-56.2455C852.888,-47.9746 867.4995,-35.9416 879.3004,-26.2232"/>
<polygon fill="#191970" stroke="#191970" points="881.7967,-28.7015 887.291,-19.6427 877.3467,-23.298 881.7967,-28.7015"/>
</g>
</g>
</svg>
