<?xml version="1.0" encoding="UTF-8" standalone="no"?>
<!DOCTYPE svg PUBLIC "-//W3C//DTD SVG 1.1//EN"
 "http://www.w3.org/Graphics/SVG/1.1/DTD/svg11.dtd">
<!-- Generated by graphviz version 2.36.0 (20140111.2315)
 -->
<!-- Title: scheduler.h Pages: 1 -->
<svg width="2706pt" height="544pt"
 viewBox="0.00 0.00 2706.00 544.00" xmlns="http://www.w3.org/2000/svg" xmlns:xlink="http://www.w3.org/1999/xlink">
<g id="graph0" class="graph" transform="scale(1 1) rotate(0) translate(4 540)">
<title>scheduler.h</title>
<polygon fill="white" stroke="none" points="-4,4 -4,-540 2702,-540 2702,4 -4,4"/>
<!-- Node1 -->
<g id="node1" class="node"><title>Node1</title>
<polygon fill="#bfbfbf" stroke="black" points="684.5,-516.5 684.5,-535.5 751.5,-535.5 751.5,-516.5 684.5,-516.5"/>
<text text-anchor="middle" x="718" y="-523.5" font-family="Helvetica,sans-Serif" font-size="10.00">scheduler.h</text>
</g>
<!-- Node2 -->
<g id="node2" class="node"><title>Node2</title>
<polygon fill="white" stroke="#bfbfbf" points="104,-280.5 104,-299.5 150,-299.5 150,-280.5 104,-280.5"/>
<text text-anchor="middle" x="127" y="-287.5" font-family="Helvetica,sans-Serif" font-size="10.00">chrono</text>
</g>
<!-- Node1&#45;&gt;Node2 -->
<g id="edge1" class="edge"><title>Node1&#45;&gt;Node2</title>
<path fill="none" stroke="midnightblue" d="M684.443,-525.274C586.951,-525.555 305.613,-522.562 226,-480 165.248,-447.521 156.241,-420.85 133,-356 127.677,-341.148 126.369,-323.226 126.284,-309.966"/>
<polygon fill="midnightblue" stroke="midnightblue" points="129.787,-309.764 126.453,-299.707 122.788,-309.648 129.787,-309.764"/>
</g>
<!-- Node3 -->
<g id="node3" class="node"><title>Node3</title>
<polygon fill="white" stroke="#bfbfbf" points="1328.5,-0.5 1328.5,-19.5 1369.5,-19.5 1369.5,-0.5 1328.5,-0.5"/>
<text text-anchor="middle" x="1349" y="-7.5" font-family="Helvetica,sans-Serif" font-size="10.00">string</text>
</g>
<!-- Node1&#45;&gt;Node3 -->
<g id="edge2" class="edge"><title>Node1&#45;&gt;Node3</title>
<path fill="none" stroke="midnightblue" d="M684.288,-524.407C556.882,-521.938 109.166,-511.107 54,-480 17.5904,-459.47 0,-444.799 0,-403 0,-403 0,-403 0,-121 0,-59.1695 63.2702,-71.9803 123,-56 241.46,-24.3068 1138.95,-13.2185 1317.98,-11.3114"/>
<polygon fill="midnightblue" stroke="midnightblue" points="1318.08,-14.8106 1328.04,-11.2059 1318.01,-7.81102 1318.08,-14.8106"/>
</g>
<!-- Node4 -->
<g id="node4" class="node"><title>Node4</title>
<g id="a_node4"><a xlink:href="bound__space__op_8h.html" target="_top" xlink:title="bound_space_op.h">
<polygon fill="white" stroke="black" points="664,-336.5 664,-355.5 762,-355.5 762,-336.5 664,-336.5"/>
<text text-anchor="middle" x="713" y="-343.5" font-family="Helvetica,sans-Serif" font-size="10.00">bound_space_op.h</text>
</a>
</g>
</g>
<!-- Node1&#45;&gt;Node4 -->
<g id="edge3" class="edge"><title>Node1&#45;&gt;Node4</title>
<path fill="none" stroke="midnightblue" d="M717.759,-516.415C716.995,-489.227 714.617,-404.563 713.54,-366.217"/>
<polygon fill="midnightblue" stroke="midnightblue" points="717.03,-365.816 713.251,-355.918 710.033,-366.013 717.03,-365.816"/>
</g>
<!-- Node5 -->
<g id="node5" class="node"><title>Node5</title>
<g id="a_node5"><a xlink:href="simulation_8h.html" target="_top" xlink:title="simulation.h">
<polygon fill="white" stroke="black" points="657.5,-280.5 657.5,-299.5 726.5,-299.5 726.5,-280.5 657.5,-280.5"/>
<text text-anchor="middle" x="692" y="-287.5" font-family="Helvetica,sans-Serif" font-size="10.00">simulation.h</text>
</a>
</g>
</g>
<!-- Node1&#45;&gt;Node5 -->
<g id="edge135" class="edge"><title>Node1&#45;&gt;Node5</title>
<path fill="none" stroke="midnightblue" d="M751.65,-520.762C795.607,-514.455 868.883,-501.034 885,-480 893.65,-468.711 889.83,-461.377 885,-448 863.028,-387.144 843.495,-375.174 792,-336 773.205,-321.702 749.146,-310.695 729.337,-303.146"/>
<polygon fill="midnightblue" stroke="midnightblue" points="730.3,-299.772 719.706,-299.617 727.891,-306.344 730.3,-299.772"/>
</g>
<!-- Node11 -->
<g id="node11" class="node"><title>Node11</title>
<g id="a_node11"><a xlink:href="log_8h.html" target="_top" xlink:title="log.h">
<polygon fill="white" stroke="black" points="1508,-112.5 1508,-131.5 1546,-131.5 1546,-112.5 1508,-112.5"/>
<text text-anchor="middle" x="1527" y="-119.5" font-family="Helvetica,sans-Serif" font-size="10.00">log.h</text>
</a>
</g>
</g>
<!-- Node1&#45;&gt;Node11 -->
<g id="edge133" class="edge"><title>Node1&#45;&gt;Node11</title>
<path fill="none" stroke="midnightblue" d="M684.451,-524.033C581.871,-520.789 273.582,-508.835 178,-480 110.014,-459.49 38,-474.012 38,-403 38,-403 38,-403 38,-345 38,-263.763 97.5329,-248.461 175,-224 434.018,-142.211 1324.92,-125.804 1497.81,-123.366"/>
<polygon fill="midnightblue" stroke="midnightblue" points="1497.97,-126.864 1507.93,-123.228 1497.88,-119.865 1497.97,-126.864"/>
</g>
<!-- Node16 -->
<g id="node16" class="node"><title>Node16</title>
<g id="a_node16"><a xlink:href="diffusion__op_8h.html" target="_top" xlink:title="diffusion_op.h">
<polygon fill="white" stroke="black" points="1166.5,-454.5 1166.5,-473.5 1243.5,-473.5 1243.5,-454.5 1166.5,-454.5"/>
<text text-anchor="middle" x="1205" y="-461.5" font-family="Helvetica,sans-Serif" font-size="10.00">diffusion_op.h</text>
</a>
</g>
</g>
<!-- Node1&#45;&gt;Node16 -->
<g id="edge20" class="edge"><title>Node1&#45;&gt;Node16</title>
<path fill="none" stroke="midnightblue" d="M751.858,-520.829C836.545,-510.395 1057.8,-483.136 1156.38,-470.99"/>
<polygon fill="midnightblue" stroke="midnightblue" points="1156.88,-474.455 1166.38,-469.758 1156.03,-467.507 1156.88,-474.455"/>
</g>
<!-- Node24 -->
<g id="node24" class="node"><title>Node24</title>
<g id="a_node24"><a xlink:href="param_8h.html" target="_top" xlink:title="param.h">
<polygon fill="white" stroke="black" points="480,-280.5 480,-299.5 532,-299.5 532,-280.5 480,-280.5"/>
<text text-anchor="middle" x="506" y="-287.5" font-family="Helvetica,sans-Serif" font-size="10.00">param.h</text>
</a>
</g>
</g>
<!-- Node1&#45;&gt;Node24 -->
<g id="edge134" class="edge"><title>Node1&#45;&gt;Node24</title>
<path fill="none" stroke="midnightblue" d="M684.3,-523.019C603.293,-516.2 398.346,-486.234 317,-356 281.739,-299.548 405.435,-291.201 469.672,-290.563"/>
<polygon fill="midnightblue" stroke="midnightblue" points="469.824,-294.063 479.809,-290.522 469.795,-287.063 469.824,-294.063"/>
</g>
<!-- Node33 -->
<g id="node33" class="node"><title>Node33</title>
<g id="a_node33"><a xlink:href="resource__manager_8h.html" target="_top" xlink:title="resource_manager.h">
<polygon fill="white" stroke="black" points="1692.5,-392.5 1692.5,-411.5 1797.5,-411.5 1797.5,-392.5 1692.5,-392.5"/>
<text text-anchor="middle" x="1745" y="-399.5" font-family="Helvetica,sans-Serif" font-size="10.00">resource_manager.h</text>
</a>
</g>
</g>
<!-- Node1&#45;&gt;Node33 -->
<g id="edge122" class="edge"><title>Node1&#45;&gt;Node33</title>
<path fill="none" stroke="midnightblue" d="M751.597,-524.747C909.73,-523.376 1575.76,-515.521 1661,-480 1691.6,-467.248 1718.13,-438.196 1732.81,-419.649"/>
<polygon fill="midnightblue" stroke="midnightblue" points="1735.74,-421.577 1739.03,-411.505 1730.18,-417.328 1735.74,-421.577"/>
</g>
<!-- Node41 -->
<g id="node41" class="node"><title>Node41</title>
<g id="a_node41"><a xlink:href="displacement__op_8h.html" target="_top" xlink:title="displacement_op.h">
<polygon fill="white" stroke="black" points="779,-454.5 779,-473.5 877,-473.5 877,-454.5 779,-454.5"/>
<text text-anchor="middle" x="828" y="-461.5" font-family="Helvetica,sans-Serif" font-size="10.00">displacement_op.h</text>
</a>
</g>
</g>
<!-- Node1&#45;&gt;Node41 -->
<g id="edge90" class="edge"><title>Node1&#45;&gt;Node41</title>
<path fill="none" stroke="midnightblue" d="M733.76,-516.403C751.976,-506.468 782.173,-489.997 803.468,-478.381"/>
<polygon fill="midnightblue" stroke="midnightblue" points="805.166,-481.442 812.269,-473.581 801.814,-475.297 805.166,-481.442"/>
</g>
<!-- Node44 -->
<g id="node44" class="node"><title>Node44</title>
<g id="a_node44"><a xlink:href="gpu__helper_8h.html" target="_top" xlink:title="gpu/gpu_helper.h">
<polygon fill="white" stroke="black" points="326.5,-336.5 326.5,-355.5 417.5,-355.5 417.5,-336.5 326.5,-336.5"/>
<text text-anchor="middle" x="372" y="-343.5" font-family="Helvetica,sans-Serif" font-size="10.00">gpu/gpu_helper.h</text>
</a>
</g>
</g>
<!-- Node1&#45;&gt;Node44 -->
<g id="edge106" class="edge"><title>Node1&#45;&gt;Node44</title>
<path fill="none" stroke="midnightblue" d="M701.312,-516.415C645.601,-487.754 465.738,-395.223 398.068,-360.411"/>
<polygon fill="midnightblue" stroke="midnightblue" points="399.42,-357.17 388.926,-355.708 396.217,-363.395 399.42,-357.17"/>
</g>
<!-- Node46 -->
<g id="node46" class="node"><title>Node46</title>
<g id="a_node46"><a xlink:href="op__timer_8h.html" target="_top" xlink:title="op_timer.h">
<polygon fill="white" stroke="black" points="180,-392.5 180,-411.5 242,-411.5 242,-392.5 180,-392.5"/>
<text text-anchor="middle" x="211" y="-399.5" font-family="Helvetica,sans-Serif" font-size="10.00">op_timer.h</text>
</a>
</g>
</g>
<!-- Node1&#45;&gt;Node46 -->
<g id="edge114" class="edge"><title>Node1&#45;&gt;Node46</title>
<path fill="none" stroke="midnightblue" d="M684.172,-525.598C589.974,-526.667 326.923,-525.41 256,-480 234.952,-466.524 222.556,-439.429 216.27,-421.248"/>
<polygon fill="midnightblue" stroke="midnightblue" points="219.543,-419.989 213.189,-411.512 212.869,-422.102 219.543,-419.989"/>
</g>
<!-- Node48 -->
<g id="node48" class="node"><title>Node48</title>
<g id="a_node48"><a xlink:href="simulation__backup_8h.html" target="_top" xlink:title="simulation_backup.h">
<polygon fill="white" stroke="black" points="2536,-336.5 2536,-355.5 2642,-355.5 2642,-336.5 2536,-336.5"/>
<text text-anchor="middle" x="2589" y="-343.5" font-family="Helvetica,sans-Serif" font-size="10.00">simulation_backup.h</text>
</a>
</g>
</g>
<!-- Node1&#45;&gt;Node48 -->
<g id="edge123" class="edge"><title>Node1&#45;&gt;Node48</title>
<path fill="none" stroke="midnightblue" d="M751.602,-524.329C984.548,-519.493 2354.76,-487.95 2522,-412 2545.19,-401.468 2565.16,-379.371 2577.12,-363.878"/>
<polygon fill="midnightblue" stroke="midnightblue" points="2580.07,-365.776 2583.2,-355.655 2574.44,-361.614 2580.07,-365.776"/>
</g>
<!-- Node50 -->
<g id="node50" class="node"><title>Node50</title>
<g id="a_node50"><a xlink:href="catalyst__adaptor_8h.html" target="_top" xlink:title="visualization/catalyst\l_adaptor.h">
<polygon fill="white" stroke="black" points="1544,-449 1544,-479 1652,-479 1652,-449 1544,-449"/>
<text text-anchor="start" x="1552" y="-467" font-family="Helvetica,sans-Serif" font-size="10.00">visualization/catalyst</text>
<text text-anchor="middle" x="1598" y="-456" font-family="Helvetica,sans-Serif" font-size="10.00">_adaptor.h</text>
</a>
</g>
</g>
<!-- Node1&#45;&gt;Node50 -->
<g id="edge136" class="edge"><title>Node1&#45;&gt;Node50</title>
<path fill="none" stroke="midnightblue" d="M751.69,-522.703C882.681,-513.772 1359.43,-481.266 1533.67,-469.386"/>
<polygon fill="midnightblue" stroke="midnightblue" points="1533.98,-472.873 1543.72,-468.701 1533.5,-465.89 1533.98,-472.873"/>
</g>
<!-- Node4&#45;&gt;Node5 -->
<g id="edge4" class="edge"><title>Node4&#45;&gt;Node5</title>
<path fill="none" stroke="midnightblue" d="M709.532,-336.083C706.688,-328.77 702.571,-318.181 699.04,-309.103"/>
<polygon fill="midnightblue" stroke="midnightblue" points="702.29,-307.803 695.403,-299.751 695.766,-310.34 702.29,-307.803"/>
</g>
<!-- Node5&#45;&gt;Node3 -->
<g id="edge5" class="edge"><title>Node5&#45;&gt;Node3</title>
<path fill="none" stroke="midnightblue" d="M698.738,-280.44C716.216,-258.753 765.328,-201.033 818,-168 987.674,-61.5879 1232.87,-24.3946 1318.28,-14.234"/>
<polygon fill="midnightblue" stroke="midnightblue" points="1318.81,-17.6962 1328.35,-13.0754 1318.01,-10.7421 1318.81,-17.6962"/>
</g>
<!-- Node6 -->
<g id="node6" class="node"><title>Node6</title>
<polygon fill="white" stroke="#bfbfbf" points="1259,-224.5 1259,-243.5 1303,-243.5 1303,-224.5 1259,-224.5"/>
<text text-anchor="middle" x="1281" y="-231.5" font-family="Helvetica,sans-Serif" font-size="10.00">vector</text>
</g>
<!-- Node5&#45;&gt;Node6 -->
<g id="edge6" class="edge"><title>Node5&#45;&gt;Node6</title>
<path fill="none" stroke="midnightblue" d="M726.696,-285.03C741.294,-283.402 758.466,-281.542 774,-280 953.253,-262.21 1168.5,-244.219 1248.77,-237.627"/>
<polygon fill="midnightblue" stroke="midnightblue" points="1249.07,-241.114 1258.75,-236.809 1248.49,-234.138 1249.07,-241.114"/>
</g>
<!-- Node7 -->
<g id="node7" class="node"><title>Node7</title>
<g id="a_node7"><a xlink:href="random_8h.html" target="_top" xlink:title="random.h">
<polygon fill="white" stroke="red" points="785.5,-224.5 785.5,-243.5 842.5,-243.5 842.5,-224.5 785.5,-224.5"/>
<text text-anchor="middle" x="814" y="-231.5" font-family="Helvetica,sans-Serif" font-size="10.00">random.h</text>
</a>
</g>
</g>
<!-- Node5&#45;&gt;Node7 -->
<g id="edge7" class="edge"><title>Node5&#45;&gt;Node7</title>
<path fill="none" stroke="midnightblue" d="M711.331,-280.444C731.32,-271.596 762.743,-257.687 785.564,-247.586"/>
<polygon fill="midnightblue" stroke="midnightblue" points="787.032,-250.764 794.759,-243.516 784.198,-244.363 787.032,-250.764"/>
</g>
<!-- Node10 -->
<g id="node10" class="node"><title>Node10</title>
<g id="a_node10"><a xlink:href="root__util_8h.html" target="_top" xlink:title="root_util.h">
<polygon fill="white" stroke="black" points="1497.5,-168.5 1497.5,-187.5 1556.5,-187.5 1556.5,-168.5 1497.5,-168.5"/>
<text text-anchor="middle" x="1527" y="-175.5" font-family="Helvetica,sans-Serif" font-size="10.00">root_util.h</text>
</a>
</g>
</g>
<!-- Node5&#45;&gt;Node10 -->
<g id="edge19" class="edge"><title>Node5&#45;&gt;Node10</title>
<path fill="none" stroke="midnightblue" d="M726.547,-281.087C765.19,-272.204 829.631,-257.29 885,-244 921.057,-235.345 929.399,-229.946 966,-224 1159.86,-192.505 1395.14,-182.726 1487.29,-179.978"/>
<polygon fill="midnightblue" stroke="midnightblue" points="1487.4,-183.476 1497.3,-179.69 1487.2,-176.479 1487.4,-183.476"/>
</g>
<!-- Node8 -->
<g id="node8" class="node"><title>Node8</title>
<polygon fill="white" stroke="#bfbfbf" points="980,-168.5 980,-187.5 1018,-187.5 1018,-168.5 980,-168.5"/>
<text text-anchor="middle" x="999" y="-175.5" font-family="Helvetica,sans-Serif" font-size="10.00">array</text>
</g>
<!-- Node7&#45;&gt;Node8 -->
<g id="edge8" class="edge"><title>Node7&#45;&gt;Node8</title>
<path fill="none" stroke="midnightblue" d="M842.501,-224.681C877.038,-214.6 934.922,-197.704 969.779,-187.529"/>
<polygon fill="midnightblue" stroke="midnightblue" points="971.188,-190.764 979.807,-184.602 969.226,-184.045 971.188,-190.764"/>
</g>
<!-- Node9 -->
<g id="node9" class="node"><title>Node9</title>
<polygon fill="white" stroke="#bfbfbf" points="1387.5,-56.5 1387.5,-75.5 1430.5,-75.5 1430.5,-56.5 1387.5,-56.5"/>
<text text-anchor="middle" x="1409" y="-63.5" font-family="Helvetica,sans-Serif" font-size="10.00">cstdio</text>
</g>
<!-- Node7&#45;&gt;Node9 -->
<g id="edge9" class="edge"><title>Node7&#45;&gt;Node9</title>
<path fill="none" stroke="midnightblue" d="M832.002,-224.392C860.812,-210.881 919.299,-184.537 971,-168 1048.58,-143.184 1290.91,-91.6756 1377.69,-73.5124"/>
<polygon fill="midnightblue" stroke="midnightblue" points="1378.41,-76.938 1387.48,-71.4667 1376.98,-70.086 1378.41,-76.938"/>
</g>
<!-- Node7&#45;&gt;Node10 -->
<g id="edge10" class="edge"><title>Node7&#45;&gt;Node10</title>
<path fill="none" stroke="midnightblue" d="M842.584,-226.438C847.378,-225.505 852.315,-224.644 857,-224 1094.83,-191.286 1383.57,-182.084 1487.43,-179.737"/>
<polygon fill="midnightblue" stroke="midnightblue" points="1487.54,-183.235 1497.46,-179.518 1487.39,-176.237 1487.54,-183.235"/>
</g>
<!-- Node10&#45;&gt;Node11 -->
<g id="edge11" class="edge"><title>Node10&#45;&gt;Node11</title>
<path fill="none" stroke="midnightblue" d="M1527,-168.083C1527,-161.006 1527,-150.861 1527,-141.986"/>
<polygon fill="midnightblue" stroke="midnightblue" points="1530.5,-141.751 1527,-131.751 1523.5,-141.751 1530.5,-141.751"/>
</g>
<!-- Node11&#45;&gt;Node3 -->
<g id="edge15" class="edge"><title>Node11&#45;&gt;Node3</title>
<path fill="none" stroke="midnightblue" d="M1516.58,-112.375C1500.52,-99.2975 1468.47,-74.066 1439,-56 1419.27,-43.9059 1395.86,-32.2789 1377.86,-23.8739"/>
<polygon fill="midnightblue" stroke="midnightblue" points="1379.03,-20.5561 1368.48,-19.5535 1376.1,-26.9147 1379.03,-20.5561"/>
</g>
<!-- Node11&#45;&gt;Node9 -->
<g id="edge13" class="edge"><title>Node11&#45;&gt;Node9</title>
<path fill="none" stroke="midnightblue" d="M1508.3,-112.444C1489.06,-103.636 1458.85,-89.8116 1436.8,-79.722"/>
<polygon fill="midnightblue" stroke="midnightblue" points="1438.16,-76.4951 1427.61,-75.5164 1435.25,-82.8603 1438.16,-76.4951"/>
</g>
<!-- Node12 -->
<g id="node12" class="node"><title>Node12</title>
<polygon fill="white" stroke="#bfbfbf" points="1501,-56.5 1501,-75.5 1553,-75.5 1553,-56.5 1501,-56.5"/>
<text text-anchor="middle" x="1527" y="-63.5" font-family="Helvetica,sans-Serif" font-size="10.00">TError.h</text>
</g>
<!-- Node11&#45;&gt;Node12 -->
<g id="edge12" class="edge"><title>Node11&#45;&gt;Node12</title>
<path fill="none" stroke="midnightblue" d="M1527,-112.083C1527,-105.006 1527,-94.8611 1527,-85.9865"/>
<polygon fill="midnightblue" stroke="midnightblue" points="1530.5,-85.751 1527,-75.7511 1523.5,-85.7511 1530.5,-85.751"/>
</g>
<!-- Node13 -->
<g id="node13" class="node"><title>Node13</title>
<polygon fill="white" stroke="#bfbfbf" points="1296,-56.5 1296,-75.5 1350,-75.5 1350,-56.5 1296,-56.5"/>
<text text-anchor="middle" x="1323" y="-63.5" font-family="Helvetica,sans-Serif" font-size="10.00">iostream</text>
</g>
<!-- Node11&#45;&gt;Node13 -->
<g id="edge14" class="edge"><title>Node11&#45;&gt;Node13</title>
<path fill="none" stroke="midnightblue" d="M1507.81,-115.736C1503.29,-114.503 1498.47,-113.199 1494,-112 1447.85,-99.6347 1394.61,-85.6721 1359.96,-76.6246"/>
<polygon fill="midnightblue" stroke="midnightblue" points="1360.83,-73.2336 1350.27,-74.0953 1359.06,-80.0068 1360.83,-73.2336"/>
</g>
<!-- Node14 -->
<g id="node14" class="node"><title>Node14</title>
<g id="a_node14"><a xlink:href="string__util_8h.html" target="_top" xlink:title="string_util.h">
<polygon fill="white" stroke="black" points="1797.5,-56.5 1797.5,-75.5 1864.5,-75.5 1864.5,-56.5 1797.5,-56.5"/>
<text text-anchor="middle" x="1831" y="-63.5" font-family="Helvetica,sans-Serif" font-size="10.00">string_util.h</text>
</a>
</g>
</g>
<!-- Node11&#45;&gt;Node14 -->
<g id="edge16" class="edge"><title>Node11&#45;&gt;Node14</title>
<path fill="none" stroke="midnightblue" d="M1546.02,-117.622C1593.86,-109.123 1720.22,-86.6784 1787.46,-74.734"/>
<polygon fill="midnightblue" stroke="midnightblue" points="1788.1,-78.1759 1797.33,-72.9808 1786.87,-71.2838 1788.1,-78.1759"/>
</g>
<!-- Node14&#45;&gt;Node3 -->
<g id="edge18" class="edge"><title>Node14&#45;&gt;Node3</title>
<path fill="none" stroke="midnightblue" d="M1797.49,-58.354C1792.64,-57.4977 1787.7,-56.6829 1783,-56 1632.55,-34.1331 1451.26,-18.8947 1379.95,-13.3314"/>
<polygon fill="midnightblue" stroke="midnightblue" points="1380.09,-9.83236 1369.85,-12.5515 1379.55,-16.8116 1380.09,-9.83236"/>
</g>
<!-- Node15 -->
<g id="node15" class="node"><title>Node15</title>
<polygon fill="white" stroke="#bfbfbf" points="2019,-0.5 2019,-19.5 2071,-19.5 2071,-0.5 2019,-0.5"/>
<text text-anchor="middle" x="2045" y="-7.5" font-family="Helvetica,sans-Serif" font-size="10.00">sstream</text>
</g>
<!-- Node14&#45;&gt;Node15 -->
<g id="edge17" class="edge"><title>Node14&#45;&gt;Node15</title>
<path fill="none" stroke="midnightblue" d="M1864.91,-56.4435C1904.26,-46.5126 1968.89,-30.2051 2009.08,-20.0632"/>
<polygon fill="midnightblue" stroke="midnightblue" points="2010.15,-23.4034 2018.99,-17.5631 2008.44,-16.6162 2010.15,-23.4034"/>
</g>
<!-- Node16&#45;&gt;Node3 -->
<g id="edge21" class="edge"><title>Node16&#45;&gt;Node3</title>
<path fill="none" stroke="midnightblue" d="M1206.71,-454.343C1212.49,-424.208 1231,-321.054 1231,-235 1231,-235 1231,-235 1231,-121 1231,-72.8719 1284.17,-39.7916 1319.13,-23.2433"/>
<polygon fill="midnightblue" stroke="midnightblue" points="1320.79,-26.3348 1328.45,-19.0155 1317.89,-19.9603 1320.79,-26.3348"/>
</g>
<!-- Node16&#45;&gt;Node5 -->
<g id="edge89" class="edge"><title>Node16&#45;&gt;Node5</title>
<path fill="none" stroke="midnightblue" d="M1188.99,-454.4C1146.22,-431.767 1025.27,-369.957 918,-336 900.964,-330.607 797.628,-310.823 736.749,-299.362"/>
<polygon fill="midnightblue" stroke="midnightblue" points="737.109,-295.869 726.635,-297.461 735.816,-302.748 737.109,-295.869"/>
</g>
<!-- Node16&#45;&gt;Node6 -->
<g id="edge23" class="edge"><title>Node16&#45;&gt;Node6</title>
<path fill="none" stroke="midnightblue" d="M1211.48,-454.154C1229.85,-429.029 1281.08,-358.859 1282,-356 1293.19,-321.306 1288.75,-278.053 1284.73,-253.784"/>
<polygon fill="midnightblue" stroke="midnightblue" points="1288.14,-253.004 1282.91,-243.79 1281.26,-254.255 1288.14,-253.004"/>
</g>
<!-- Node17 -->
<g id="node17" class="node"><title>Node17</title>
<polygon fill="white" stroke="#bfbfbf" points="2118,-280.5 2118,-299.5 2158,-299.5 2158,-280.5 2118,-280.5"/>
<text text-anchor="middle" x="2138" y="-287.5" font-family="Helvetica,sans-Serif" font-size="10.00">utility</text>
</g>
<!-- Node16&#45;&gt;Node17 -->
<g id="edge22" class="edge"><title>Node16&#45;&gt;Node17</title>
<path fill="none" stroke="midnightblue" d="M1234.07,-454.471C1313.14,-431.607 1539.03,-368.481 1731,-336 1891.72,-308.806 1934.94,-325.118 2096,-300 2099.76,-299.414 2103.69,-298.704 2107.57,-297.943"/>
<polygon fill="midnightblue" stroke="midnightblue" points="2108.5,-301.324 2117.58,-295.86 2107.07,-294.471 2108.5,-301.324"/>
</g>
<!-- Node18 -->
<g id="node18" class="node"><title>Node18</title>
<g id="a_node18"><a xlink:href="diffusion__grid_8h.html" target="_top" xlink:title="diffusion_grid.h">
<polygon fill="white" stroke="black" points="1410.5,-336.5 1410.5,-355.5 1493.5,-355.5 1493.5,-336.5 1410.5,-336.5"/>
<text text-anchor="middle" x="1452" y="-343.5" font-family="Helvetica,sans-Serif" font-size="10.00">diffusion_grid.h</text>
</a>
</g>
</g>
<!-- Node16&#45;&gt;Node18 -->
<g id="edge24" class="edge"><title>Node16&#45;&gt;Node18</title>
<path fill="none" stroke="midnightblue" d="M1235.53,-454.494C1265.45,-445.645 1311.97,-430.503 1350,-412 1380.13,-397.342 1412.33,-375.705 1432.31,-361.483"/>
<polygon fill="midnightblue" stroke="midnightblue" points="1434.51,-364.208 1440.58,-355.522 1430.42,-358.53 1434.51,-364.208"/>
</g>
<!-- Node16&#45;&gt;Node24 -->
<g id="edge66" class="edge"><title>Node16&#45;&gt;Node24</title>
<path fill="none" stroke="midnightblue" d="M1179.29,-454.361C1112.46,-432.157 927.547,-372.298 770,-336 689.421,-317.435 593.385,-302.946 542.259,-295.83"/>
<polygon fill="midnightblue" stroke="midnightblue" points="542.437,-292.322 532.053,-294.425 541.482,-299.256 542.437,-292.322"/>
</g>
<!-- Node29 -->
<g id="node29" class="node"><title>Node29</title>
<g id="a_node29"><a xlink:href="grid_8h.html" target="_top" xlink:title="grid.h">
<polygon fill="white" stroke="red" points="1122.5,-336.5 1122.5,-355.5 1163.5,-355.5 1163.5,-336.5 1122.5,-336.5"/>
<text text-anchor="middle" x="1143" y="-343.5" font-family="Helvetica,sans-Serif" font-size="10.00">grid.h</text>
</a>
</g>
</g>
<!-- Node16&#45;&gt;Node29 -->
<g id="edge48" class="edge"><title>Node16&#45;&gt;Node29</title>
<path fill="none" stroke="midnightblue" d="M1198.73,-454.228C1191.74,-444.264 1180.35,-427.389 1172,-412 1163.63,-396.572 1155.62,-378.256 1150.15,-365.005"/>
<polygon fill="midnightblue" stroke="midnightblue" points="1153.35,-363.569 1146.35,-355.615 1146.86,-366.198 1153.35,-363.569"/>
</g>
<!-- Node32 -->
<g id="node32" class="node"><title>Node32</title>
<g id="a_node32"><a xlink:href="inline__vector_8h.html" target="_top" xlink:title="inline_vector.h">
<polygon fill="white" stroke="black" points="1335,-280.5 1335,-299.5 1415,-299.5 1415,-280.5 1335,-280.5"/>
<text text-anchor="middle" x="1375" y="-287.5" font-family="Helvetica,sans-Serif" font-size="10.00">inline_vector.h</text>
</a>
</g>
</g>
<!-- Node16&#45;&gt;Node32 -->
<g id="edge65" class="edge"><title>Node16&#45;&gt;Node32</title>
<path fill="none" stroke="midnightblue" d="M1214.34,-454.238C1228.67,-440.814 1256.92,-414.362 1281,-392 1298.29,-375.948 1303.68,-373.036 1320,-356 1335.1,-340.236 1351.08,-321.033 1361.9,-307.602"/>
<polygon fill="midnightblue" stroke="midnightblue" points="1364.7,-309.703 1368.2,-299.704 1359.23,-305.336 1364.7,-309.703"/>
</g>
<!-- Node16&#45;&gt;Node33 -->
<g id="edge67" class="edge"><title>Node16&#45;&gt;Node33</title>
<path fill="none" stroke="midnightblue" d="M1243.84,-458.685C1336.11,-448.432 1569.22,-422.531 1681.98,-410.002"/>
<polygon fill="midnightblue" stroke="midnightblue" points="1682.63,-413.452 1692.18,-408.869 1681.86,-406.495 1682.63,-413.452"/>
</g>
<!-- Node18&#45;&gt;Node3 -->
<g id="edge31" class="edge"><title>Node18&#45;&gt;Node3</title>
<path fill="none" stroke="midnightblue" d="M1493.56,-339.872C1570.74,-330.153 1729.14,-309.199 1737,-300 1745.37,-290.201 1748.08,-258.142 1732,-224 1686.74,-127.901 1655.53,-106.352 1562,-56 1502.79,-24.1243 1423,-14.8197 1379.83,-12.1091"/>
<polygon fill="midnightblue" stroke="midnightblue" points="1379.86,-8.60543 1369.68,-11.5524 1379.47,-15.5949 1379.86,-8.60543"/>
</g>
<!-- Node18&#45;&gt;Node6 -->
<g id="edge32" class="edge"><title>Node18&#45;&gt;Node6</title>
<path fill="none" stroke="midnightblue" d="M1476.06,-336.353C1504.65,-324.781 1546.2,-303.028 1527,-280 1500.12,-247.754 1373.47,-238.547 1313.12,-235.972"/>
<polygon fill="midnightblue" stroke="midnightblue" points="1313.14,-232.47 1303.01,-235.576 1312.86,-239.465 1313.14,-232.47"/>
</g>
<!-- Node18&#45;&gt;Node8 -->
<g id="edge27" class="edge"><title>Node18&#45;&gt;Node8</title>
<path fill="none" stroke="midnightblue" d="M1491.75,-336.433C1525.6,-328.236 1570.39,-314.939 1581,-300 1593.47,-282.446 1586.84,-239.624 1569,-224 1528.08,-188.162 1139.33,-180.704 1028.41,-179.301"/>
<polygon fill="midnightblue" stroke="midnightblue" points="1028.32,-175.799 1018.28,-179.18 1028.24,-182.799 1028.32,-175.799"/>
</g>
<!-- Node18&#45;&gt;Node10 -->
<g id="edge33" class="edge"><title>Node18&#45;&gt;Node10</title>
<path fill="none" stroke="midnightblue" d="M1493.59,-337.894C1546.41,-328.452 1631.83,-311.613 1641,-300 1674.17,-258.01 1599.5,-213.377 1555.8,-191.953"/>
<polygon fill="midnightblue" stroke="midnightblue" points="1557.26,-188.774 1546.73,-187.621 1554.25,-195.09 1557.26,-188.774"/>
</g>
<!-- Node18&#45;&gt;Node11 -->
<g id="edge34" class="edge"><title>Node18&#45;&gt;Node11</title>
<path fill="none" stroke="midnightblue" d="M1493.65,-338.276C1567.8,-326.256 1715.2,-302.134 1717,-300 1776.07,-230.055 1621.86,-159.7 1555.58,-133.599"/>
<polygon fill="midnightblue" stroke="midnightblue" points="1556.7,-130.278 1546.11,-129.935 1554.17,-136.807 1556.7,-130.278"/>
</g>
<!-- Node18&#45;&gt;Node13 -->
<g id="edge30" class="edge"><title>Node18&#45;&gt;Node13</title>
<path fill="none" stroke="midnightblue" d="M1493.75,-337.351C1552.95,-326.307 1654.75,-306.506 1660,-300 1665.58,-293.082 1661.72,-288.721 1660,-280 1647.36,-215.962 1621.38,-200.897 1565,-168 1496.17,-127.836 1408.32,-95.3751 1359.64,-78.8622"/>
<polygon fill="midnightblue" stroke="midnightblue" points="1360.47,-75.4465 1349.87,-75.5836 1358.24,-82.0829 1360.47,-75.4465"/>
</g>
<!-- Node19 -->
<g id="node19" class="node"><title>Node19</title>
<polygon fill="white" stroke="#bfbfbf" points="1433,-280.5 1433,-299.5 1485,-299.5 1485,-280.5 1433,-280.5"/>
<text text-anchor="middle" x="1459" y="-287.5" font-family="Helvetica,sans-Serif" font-size="10.00">assert.h</text>
</g>
<!-- Node18&#45;&gt;Node19 -->
<g id="edge25" class="edge"><title>Node18&#45;&gt;Node19</title>
<path fill="none" stroke="midnightblue" d="M1453.16,-336.083C1454.08,-328.927 1455.42,-318.635 1456.58,-309.691"/>
<polygon fill="midnightblue" stroke="midnightblue" points="1460.05,-310.118 1457.87,-299.751 1453.11,-309.218 1460.05,-310.118"/>
</g>
<!-- Node20 -->
<g id="node20" class="node"><title>Node20</title>
<polygon fill="white" stroke="#bfbfbf" points="1505,-224.5 1505,-243.5 1561,-243.5 1561,-224.5 1505,-224.5"/>
<text text-anchor="middle" x="1533" y="-231.5" font-family="Helvetica,sans-Serif" font-size="10.00">algorithm</text>
</g>
<!-- Node18&#45;&gt;Node20 -->
<g id="edge26" class="edge"><title>Node18&#45;&gt;Node20</title>
<path fill="none" stroke="midnightblue" d="M1484.32,-336.498C1514.27,-327.888 1555.58,-313.894 1565,-300 1575.62,-284.336 1562.7,-264.63 1550.25,-251.045"/>
<polygon fill="midnightblue" stroke="midnightblue" points="1552.65,-248.503 1543.15,-243.83 1547.67,-253.413 1552.65,-248.503"/>
</g>
<!-- Node21 -->
<g id="node21" class="node"><title>Node21</title>
<polygon fill="white" stroke="#bfbfbf" points="975,-224.5 975,-243.5 1019,-243.5 1019,-224.5 975,-224.5"/>
<text text-anchor="middle" x="997" y="-231.5" font-family="Helvetica,sans-Serif" font-size="10.00">cmath</text>
</g>
<!-- Node18&#45;&gt;Node21 -->
<g id="edge28" class="edge"><title>Node18&#45;&gt;Node21</title>
<path fill="none" stroke="midnightblue" d="M1464.63,-336.372C1482.31,-323.29 1510.49,-298.053 1494,-280 1478.27,-262.781 1137.3,-242.687 1029.42,-236.741"/>
<polygon fill="midnightblue" stroke="midnightblue" points="1029.33,-233.231 1019.15,-236.179 1028.94,-240.22 1029.33,-233.231"/>
</g>
<!-- Node22 -->
<g id="node22" class="node"><title>Node22</title>
<polygon fill="white" stroke="#bfbfbf" points="2268.5,-280.5 2268.5,-299.5 2327.5,-299.5 2327.5,-280.5 2268.5,-280.5"/>
<text text-anchor="middle" x="2298" y="-287.5" font-family="Helvetica,sans-Serif" font-size="10.00">functional</text>
</g>
<!-- Node18&#45;&gt;Node22 -->
<g id="edge29" class="edge"><title>Node18&#45;&gt;Node22</title>
<path fill="none" stroke="midnightblue" d="M1493.9,-343.578C1637.35,-338.568 2108.09,-320.903 2258,-300 2258.11,-299.985 2258.21,-299.97 2258.32,-299.955"/>
<polygon fill="midnightblue" stroke="midnightblue" points="2259.12,-303.368 2268.39,-298.235 2257.95,-296.468 2259.12,-303.368"/>
</g>
<!-- Node23 -->
<g id="node23" class="node"><title>Node23</title>
<g id="a_node23"><a xlink:href="math__util_8h.html" target="_top" xlink:title="math_util.h">
<polygon fill="white" stroke="red" points="783.5,-280.5 783.5,-299.5 848.5,-299.5 848.5,-280.5 783.5,-280.5"/>
<text text-anchor="middle" x="816" y="-287.5" font-family="Helvetica,sans-Serif" font-size="10.00">math_util.h</text>
</a>
</g>
</g>
<!-- Node18&#45;&gt;Node23 -->
<g id="edge35" class="edge"><title>Node18&#45;&gt;Node23</title>
<path fill="none" stroke="midnightblue" d="M1410.46,-342.084C1317.97,-335.494 1088.06,-318.571 896,-300 883.949,-298.835 870.894,-297.428 858.893,-296.076"/>
<polygon fill="midnightblue" stroke="midnightblue" points="859.003,-292.566 848.671,-294.909 858.21,-299.52 859.003,-292.566"/>
</g>
<!-- Node18&#45;&gt;Node24 -->
<g id="edge40" class="edge"><title>Node18&#45;&gt;Node24</title>
<path fill="none" stroke="midnightblue" d="M1410.14,-342.767C1290.98,-336.384 939.667,-317.405 648,-300 612.141,-297.86 571.201,-295.247 542.523,-293.389"/>
<polygon fill="midnightblue" stroke="midnightblue" points="542.374,-289.872 532.168,-292.717 541.92,-296.858 542.374,-289.872"/>
</g>
<!-- Node23&#45;&gt;Node6 -->
<g id="edge38" class="edge"><title>Node23&#45;&gt;Node6</title>
<path fill="none" stroke="midnightblue" d="M848.557,-282.408C853.388,-281.533 858.316,-280.699 863,-280 1006.16,-258.623 1178.37,-243.361 1248.7,-237.568"/>
<polygon fill="midnightblue" stroke="midnightblue" points="1249.03,-241.053 1258.71,-236.752 1248.46,-234.077 1249.03,-241.053"/>
</g>
<!-- Node23&#45;&gt;Node7 -->
<g id="edge39" class="edge"><title>Node23&#45;&gt;Node7</title>
<path fill="none" stroke="midnightblue" d="M815.67,-280.083C815.408,-273.006 815.032,-262.861 814.703,-253.986"/>
<polygon fill="midnightblue" stroke="midnightblue" points="818.192,-253.615 814.324,-243.751 811.197,-253.874 818.192,-253.615"/>
</g>
<!-- Node23&#45;&gt;Node8 -->
<g id="edge36" class="edge"><title>Node23&#45;&gt;Node8</title>
<path fill="none" stroke="midnightblue" d="M830.36,-280.368C861.896,-261.412 937.444,-216.001 975.805,-192.942"/>
<polygon fill="midnightblue" stroke="midnightblue" points="977.939,-195.743 984.707,-187.591 974.333,-189.744 977.939,-195.743"/>
</g>
<!-- Node23&#45;&gt;Node21 -->
<g id="edge37" class="edge"><title>Node23&#45;&gt;Node21</title>
<path fill="none" stroke="midnightblue" d="M844.68,-280.444C877.382,-270.687 930.712,-254.776 964.81,-244.604"/>
<polygon fill="midnightblue" stroke="midnightblue" points="966.149,-247.857 974.731,-241.644 964.147,-241.149 966.149,-247.857"/>
</g>
<!-- Node24&#45;&gt;Node3 -->
<g id="edge43" class="edge"><title>Node24&#45;&gt;Node3</title>
<path fill="none" stroke="midnightblue" d="M489.074,-280.34C429.535,-248.853 237.491,-138.003 316,-56 351.531,-18.8876 1149.9,-12.1639 1318.08,-11.1578"/>
<polygon fill="midnightblue" stroke="midnightblue" points="1318.25,-14.657 1328.23,-11.0996 1318.21,-7.65713 1318.25,-14.657"/>
</g>
<!-- Node24&#45;&gt;Node6 -->
<g id="edge45" class="edge"><title>Node24&#45;&gt;Node6</title>
<path fill="none" stroke="midnightblue" d="M532.322,-285.628C547.426,-283.777 566.758,-281.55 584,-280 839.806,-256.999 1149.45,-241.254 1248.73,-236.504"/>
<polygon fill="midnightblue" stroke="midnightblue" points="1249.17,-239.987 1259,-236.016 1248.84,-232.995 1249.17,-239.987"/>
</g>
<!-- Node24&#45;&gt;Node10 -->
<g id="edge47" class="edge"><title>Node24&#45;&gt;Node10</title>
<path fill="none" stroke="midnightblue" d="M532.173,-282.702C536.764,-281.715 541.51,-280.768 546,-280 680.543,-256.988 721.632,-287.534 851,-244 867.616,-238.409 868.256,-229.195 885,-224 998.283,-188.852 1365.24,-181.052 1487.19,-179.413"/>
<polygon fill="midnightblue" stroke="midnightblue" points="1487.26,-182.913 1497.21,-179.285 1487.17,-175.913 1487.26,-182.913"/>
</g>
<!-- Node25 -->
<g id="node25" class="node"><title>Node25</title>
<polygon fill="white" stroke="#bfbfbf" points="635,-224.5 635,-243.5 691,-243.5 691,-224.5 635,-224.5"/>
<text text-anchor="middle" x="663" y="-231.5" font-family="Helvetica,sans-Serif" font-size="10.00">cinttypes</text>
</g>
<!-- Node24&#45;&gt;Node25 -->
<g id="edge41" class="edge"><title>Node24&#45;&gt;Node25</title>
<path fill="none" stroke="midnightblue" d="M530.877,-280.444C557.289,-271.359 599.215,-256.939 628.742,-246.783"/>
<polygon fill="midnightblue" stroke="midnightblue" points="629.921,-250.079 638.239,-243.516 627.645,-243.459 629.921,-250.079"/>
</g>
<!-- Node26 -->
<g id="node26" class="node"><title>Node26</title>
<polygon fill="white" stroke="#bfbfbf" points="472,-224.5 472,-243.5 502,-243.5 502,-224.5 472,-224.5"/>
<text text-anchor="middle" x="487" y="-231.5" font-family="Helvetica,sans-Serif" font-size="10.00">set</text>
</g>
<!-- Node24&#45;&gt;Node26 -->
<g id="edge42" class="edge"><title>Node24&#45;&gt;Node26</title>
<path fill="none" stroke="midnightblue" d="M502.863,-280.083C500.317,-272.849 496.644,-262.409 493.473,-253.397"/>
<polygon fill="midnightblue" stroke="midnightblue" points="496.7,-252.023 490.079,-243.751 490.097,-254.346 496.7,-252.023"/>
</g>
<!-- Node27 -->
<g id="node27" class="node"><title>Node27</title>
<polygon fill="white" stroke="#bfbfbf" points="2194.5,-224.5 2194.5,-243.5 2277.5,-243.5 2277.5,-224.5 2194.5,-224.5"/>
<text text-anchor="middle" x="2236" y="-231.5" font-family="Helvetica,sans-Serif" font-size="10.00">unordered_map</text>
</g>
<!-- Node24&#45;&gt;Node27 -->
<g id="edge44" class="edge"><title>Node24&#45;&gt;Node27</title>
<path fill="none" stroke="midnightblue" d="M532.157,-287.067C560.636,-285.027 607.531,-281.855 648,-280 1251.6,-252.328 1985.09,-239.062 2184.1,-235.811"/>
<polygon fill="midnightblue" stroke="midnightblue" points="2184.33,-239.308 2194.27,-235.646 2184.21,-232.309 2184.33,-239.308"/>
</g>
<!-- Node28 -->
<g id="node28" class="node"><title>Node28</title>
<polygon fill="white" stroke="#bfbfbf" points="520.5,-224.5 520.5,-243.5 617.5,-243.5 617.5,-224.5 520.5,-224.5"/>
<text text-anchor="middle" x="569" y="-231.5" font-family="Helvetica,sans-Serif" font-size="10.00">cpptoml/cpptoml.h</text>
</g>
<!-- Node24&#45;&gt;Node28 -->
<g id="edge46" class="edge"><title>Node24&#45;&gt;Node28</title>
<path fill="none" stroke="midnightblue" d="M516.122,-280.324C525.526,-272.263 539.744,-260.077 551.069,-250.369"/>
<polygon fill="midnightblue" stroke="midnightblue" points="553.379,-252.999 558.694,-243.834 548.823,-247.684 553.379,-252.999"/>
</g>
<!-- Node29&#45;&gt;Node6 -->
<g id="edge56" class="edge"><title>Node29&#45;&gt;Node6</title>
<path fill="none" stroke="midnightblue" d="M1135.27,-336.179C1124.55,-322.845 1107.91,-297.283 1121,-280 1136.38,-259.697 1206.64,-245.996 1248.77,-239.447"/>
<polygon fill="midnightblue" stroke="midnightblue" points="1249.46,-242.883 1258.82,-237.936 1248.42,-235.961 1249.46,-242.883"/>
</g>
<!-- Node29&#45;&gt;Node8 -->
<g id="edge51" class="edge"><title>Node29&#45;&gt;Node8</title>
<path fill="none" stroke="midnightblue" d="M1122.48,-341.139C1100.06,-335.824 1064.7,-324.039 1045,-300 1023,-273.15 1040.34,-256.045 1027,-224 1022.89,-214.125 1016.74,-203.939 1011.25,-195.761"/>
<polygon fill="midnightblue" stroke="midnightblue" points="1014.07,-193.694 1005.47,-187.505 1008.33,-197.705 1014.07,-193.694"/>
</g>
<!-- Node29&#45;&gt;Node11 -->
<g id="edge63" class="edge"><title>Node29&#45;&gt;Node11</title>
<path fill="none" stroke="midnightblue" d="M1133.34,-336.126C1120.43,-323.162 1100.53,-298.572 1113,-280 1201.82,-147.742 1418.17,-126.73 1497.34,-123.523"/>
<polygon fill="midnightblue" stroke="midnightblue" points="1497.7,-127.013 1507.58,-123.179 1497.47,-120.017 1497.7,-127.013"/>
</g>
<!-- Node29&#45;&gt;Node13 -->
<g id="edge53" class="edge"><title>Node29&#45;&gt;Node13</title>
<path fill="none" stroke="midnightblue" d="M1122.29,-341.444C1111.74,-339.691 1098.71,-337.613 1087,-336 1017.64,-326.443 820.593,-352.259 774,-300 764.876,-289.767 753.421,-256.271 776,-224 836.143,-138.041 1172.94,-86.6545 1285.99,-71.636"/>
<polygon fill="midnightblue" stroke="midnightblue" points="1286.45,-75.1059 1295.91,-70.3358 1285.54,-68.1653 1286.45,-75.1059"/>
</g>
<!-- Node29&#45;&gt;Node19 -->
<g id="edge49" class="edge"><title>Node29&#45;&gt;Node19</title>
<path fill="none" stroke="midnightblue" d="M1163.57,-342.373C1208.71,-336.467 1320.01,-321.137 1422.77,-300.099"/>
<polygon fill="midnightblue" stroke="midnightblue" points="1423.61,-303.501 1432.69,-298.045 1422.19,-296.646 1423.61,-303.501"/>
</g>
<!-- Node29&#45;&gt;Node20 -->
<g id="edge50" class="edge"><title>Node29&#45;&gt;Node20</title>
<path fill="none" stroke="midnightblue" d="M1141.56,-336.37C1139.76,-322.339 1138.58,-294.676 1154,-280 1178.41,-256.766 1403.38,-242.04 1494.73,-236.973"/>
<polygon fill="midnightblue" stroke="midnightblue" points="1495.13,-240.457 1504.93,-236.417 1494.75,-233.467 1495.13,-240.457"/>
</g>
<!-- Node29&#45;&gt;Node21 -->
<g id="edge52" class="edge"><title>Node29&#45;&gt;Node21</title>
<path fill="none" stroke="midnightblue" d="M1122.35,-339.446C1086.22,-329.547 1014.65,-309.044 1007,-300 996.296,-287.342 994.517,-268.135 994.982,-253.878"/>
<polygon fill="midnightblue" stroke="midnightblue" points="998.486,-253.95 995.709,-243.726 991.504,-253.45 998.486,-253.95"/>
</g>
<!-- Node29&#45;&gt;Node24 -->
<g id="edge64" class="edge"><title>Node29&#45;&gt;Node24</title>
<path fill="none" stroke="midnightblue" d="M1122.17,-343.234C1030.26,-335.443 660.415,-304.09 542.39,-294.085"/>
<polygon fill="midnightblue" stroke="midnightblue" points="542.348,-290.569 532.088,-293.212 541.757,-297.544 542.348,-290.569"/>
</g>
<!-- Node30 -->
<g id="node30" class="node"><title>Node30</title>
<polygon fill="white" stroke="#bfbfbf" points="1163,-280.5 1163,-299.5 1203,-299.5 1203,-280.5 1163,-280.5"/>
<text text-anchor="middle" x="1183" y="-287.5" font-family="Helvetica,sans-Serif" font-size="10.00">limits</text>
</g>
<!-- Node29&#45;&gt;Node30 -->
<g id="edge54" class="edge"><title>Node29&#45;&gt;Node30</title>
<path fill="none" stroke="midnightblue" d="M1149.61,-336.083C1155.26,-328.455 1163.54,-317.264 1170.45,-307.941"/>
<polygon fill="midnightblue" stroke="midnightblue" points="1173.38,-309.87 1176.52,-299.751 1167.75,-305.703 1173.38,-309.87"/>
</g>
<!-- Node31 -->
<g id="node31" class="node"><title>Node31</title>
<polygon fill="white" stroke="#bfbfbf" points="2035,-280.5 2035,-299.5 2087,-299.5 2087,-280.5 2035,-280.5"/>
<text text-anchor="middle" x="2061" y="-287.5" font-family="Helvetica,sans-Serif" font-size="10.00">memory</text>
</g>
<!-- Node29&#45;&gt;Node31 -->
<g id="edge55" class="edge"><title>Node29&#45;&gt;Node31</title>
<path fill="none" stroke="midnightblue" d="M1163.9,-343.771C1282.48,-336.795 1870.9,-302.183 2024.35,-293.156"/>
<polygon fill="midnightblue" stroke="midnightblue" points="2024.86,-296.632 2034.63,-292.551 2024.45,-289.644 2024.86,-296.632"/>
</g>
<!-- Node29&#45;&gt;Node32 -->
<g id="edge57" class="edge"><title>Node29&#45;&gt;Node32</title>
<path fill="none" stroke="midnightblue" d="M1163.59,-340.208C1200.32,-331.659 1277.99,-313.581 1328.26,-301.878"/>
<polygon fill="midnightblue" stroke="midnightblue" points="1329.3,-305.231 1338.24,-299.556 1327.71,-298.414 1329.3,-305.231"/>
</g>
<!-- Node32&#45;&gt;Node6 -->
<g id="edge61" class="edge"><title>Node32&#45;&gt;Node6</title>
<path fill="none" stroke="midnightblue" d="M1359.9,-280.324C1345.1,-271.822 1322.31,-258.729 1305.02,-248.797"/>
<polygon fill="midnightblue" stroke="midnightblue" points="1306.48,-245.601 1296.07,-243.655 1302.99,-251.671 1306.48,-245.601"/>
</g>
<!-- Node32&#45;&gt;Node8 -->
<g id="edge59" class="edge"><title>Node32&#45;&gt;Node8</title>
<path fill="none" stroke="midnightblue" d="M1369.16,-280.06C1359.16,-265.583 1337.29,-237.293 1311,-224 1261.73,-199.085 1096.31,-185.49 1028.44,-180.848"/>
<polygon fill="midnightblue" stroke="midnightblue" points="1028.26,-177.329 1018.05,-180.156 1027.79,-184.313 1028.26,-177.329"/>
</g>
<!-- Node32&#45;&gt;Node10 -->
<g id="edge62" class="edge"><title>Node32&#45;&gt;Node10</title>
<path fill="none" stroke="midnightblue" d="M1386.61,-280.291C1403.38,-267.737 1435.42,-243.879 1463,-224 1477.36,-213.647 1493.69,-202.169 1506.26,-193.397"/>
<polygon fill="midnightblue" stroke="midnightblue" points="1508.47,-196.13 1514.67,-187.542 1504.46,-190.385 1508.47,-196.13"/>
</g>
<!-- Node32&#45;&gt;Node15 -->
<g id="edge60" class="edge"><title>Node32&#45;&gt;Node15</title>
<path fill="none" stroke="midnightblue" d="M1392.73,-280.404C1410.64,-271.608 1439.02,-257.374 1463,-244 1477.98,-235.646 1480.61,-231.575 1496,-224 1545.53,-199.615 1902.34,-64.734 2012.62,-23.1858"/>
<polygon fill="midnightblue" stroke="midnightblue" points="2014.08,-26.3738 2022.21,-19.5736 2011.61,-19.823 2014.08,-26.3738"/>
</g>
<!-- Node32&#45;&gt;Node20 -->
<g id="edge58" class="edge"><title>Node32&#45;&gt;Node20</title>
<path fill="none" stroke="midnightblue" d="M1400.04,-280.444C1426.62,-271.359 1468.81,-256.939 1498.52,-246.783"/>
<polygon fill="midnightblue" stroke="midnightblue" points="1499.75,-250.062 1508.08,-243.516 1497.49,-243.439 1499.75,-250.062"/>
</g>
<!-- Node33&#45;&gt;Node3 -->
<g id="edge71" class="edge"><title>Node33&#45;&gt;Node3</title>
<path fill="none" stroke="midnightblue" d="M1739.26,-392.238C1731.37,-378.981 1719.4,-353.519 1731,-336 1794.43,-240.182 1969,-349.908 1969,-235 1969,-235 1969,-235 1969,-121 1969,-81.0766 1943.04,-73.1761 1907,-56 1812.52,-10.9715 1482.05,-9.85788 1379.55,-10.6383"/>
<polygon fill="midnightblue" stroke="midnightblue" points="1379.52,-7.13834 1369.55,-10.7264 1379.58,-14.1381 1379.52,-7.13834"/>
</g>
<!-- Node33&#45;&gt;Node5 -->
<g id="edge85" class="edge"><title>Node33&#45;&gt;Node5</title>
<path fill="none" stroke="midnightblue" d="M1692.22,-400.283C1583.29,-398.138 1325.96,-389.62 1113,-356 1076.37,-350.218 1068.46,-342.733 1032,-336 903.847,-312.338 869.809,-319.78 741,-300 739.702,-299.801 738.385,-299.593 737.056,-299.379"/>
<polygon fill="midnightblue" stroke="midnightblue" points="737.199,-295.854 726.756,-297.643 736.035,-302.757 737.199,-295.854"/>
</g>
<!-- Node33&#45;&gt;Node6 -->
<g id="edge75" class="edge"><title>Node33&#45;&gt;Node6</title>
<path fill="none" stroke="midnightblue" d="M1692.21,-397.373C1609.28,-391.127 1452.62,-376.961 1401,-356 1362.46,-340.349 1354.88,-329.938 1326,-300 1312.04,-285.534 1299.33,-266.347 1291,-252.574"/>
<polygon fill="midnightblue" stroke="midnightblue" points="1293.84,-250.498 1285.76,-243.647 1287.8,-254.043 1293.84,-250.498"/>
</g>
<!-- Node33&#45;&gt;Node10 -->
<g id="edge76" class="edge"><title>Node33&#45;&gt;Node10</title>
<path fill="none" stroke="midnightblue" d="M1711.2,-392.388C1692.61,-385.735 1671.11,-374.453 1660,-356 1642.58,-327.062 1666.54,-313.139 1660,-280 1654.79,-253.603 1656.04,-243.012 1637,-224 1617.92,-204.949 1589.66,-193.623 1566.56,-187.098"/>
<polygon fill="midnightblue" stroke="midnightblue" points="1567.26,-183.661 1556.7,-184.508 1565.48,-190.432 1567.26,-183.661"/>
</g>
<!-- Node33&#45;&gt;Node17 -->
<g id="edge74" class="edge"><title>Node33&#45;&gt;Node17</title>
<path fill="none" stroke="midnightblue" d="M1797.78,-399.63C1911.13,-396.144 2169.7,-385.059 2196,-356 2211.97,-338.36 2186.4,-317.853 2164.33,-304.664"/>
<polygon fill="midnightblue" stroke="midnightblue" points="2165.94,-301.556 2155.52,-299.657 2162.48,-307.641 2165.94,-301.556"/>
</g>
<!-- Node33&#45;&gt;Node18 -->
<g id="edge83" class="edge"><title>Node33&#45;&gt;Node18</title>
<path fill="none" stroke="midnightblue" d="M1698.57,-392.444C1645.56,-382.673 1559.05,-366.729 1503.86,-356.558"/>
<polygon fill="midnightblue" stroke="midnightblue" points="1504.41,-353.1 1493.94,-354.729 1503.14,-359.984 1504.41,-353.1"/>
</g>
<!-- Node33&#45;&gt;Node27 -->
<g id="edge73" class="edge"><title>Node33&#45;&gt;Node27</title>
<path fill="none" stroke="midnightblue" d="M1797.78,-400.985C1936.06,-400.398 2300.74,-395.121 2337,-356 2345.68,-346.634 2358.82,-314.608 2336,-280 2324.89,-263.149 2305.83,-252.537 2287.31,-245.887"/>
<polygon fill="midnightblue" stroke="midnightblue" points="2288.32,-242.533 2277.72,-242.759 2286.14,-249.188 2288.32,-242.533"/>
</g>
<!-- Node33&#45;&gt;Node30 -->
<g id="edge68" class="edge"><title>Node33&#45;&gt;Node30</title>
<path fill="none" stroke="midnightblue" d="M1692.23,-398.353C1618.75,-393.844 1481.8,-382.447 1368,-356 1311.47,-342.863 1248.19,-318.399 1212.22,-303.519"/>
<polygon fill="midnightblue" stroke="midnightblue" points="1213.4,-300.22 1202.83,-299.593 1210.71,-306.678 1213.4,-300.22"/>
</g>
<!-- Node33&#45;&gt;Node31 -->
<g id="edge69" class="edge"><title>Node33&#45;&gt;Node31</title>
<path fill="none" stroke="midnightblue" d="M1797.87,-399.405C1908,-395.538 2153.89,-383.848 2179,-356 2184.95,-349.398 2184.04,-343.32 2179,-336 2169.32,-321.948 2127.79,-308.348 2096.72,-299.845"/>
<polygon fill="midnightblue" stroke="midnightblue" points="2097.61,-296.462 2087.05,-297.269 2095.81,-303.226 2097.61,-296.462"/>
</g>
<!-- Node34 -->
<g id="node34" class="node"><title>Node34</title>
<polygon fill="white" stroke="#bfbfbf" points="1740,-336.5 1740,-355.5 1792,-355.5 1792,-336.5 1740,-336.5"/>
<text text-anchor="middle" x="1766" y="-343.5" font-family="Helvetica,sans-Serif" font-size="10.00">ostream</text>
</g>
<!-- Node33&#45;&gt;Node34 -->
<g id="edge70" class="edge"><title>Node33&#45;&gt;Node34</title>
<path fill="none" stroke="midnightblue" d="M1748.47,-392.083C1751.31,-384.77 1755.43,-374.181 1758.96,-365.103"/>
<polygon fill="midnightblue" stroke="midnightblue" points="1762.23,-366.34 1762.6,-355.751 1755.71,-363.803 1762.23,-366.34"/>
</g>
<!-- Node35 -->
<g id="node35" class="node"><title>Node35</title>
<polygon fill="white" stroke="#bfbfbf" points="1810,-336.5 1810,-355.5 1848,-355.5 1848,-336.5 1810,-336.5"/>
<text text-anchor="middle" x="1829" y="-343.5" font-family="Helvetica,sans-Serif" font-size="10.00">tuple</text>
</g>
<!-- Node33&#45;&gt;Node35 -->
<g id="edge72" class="edge"><title>Node33&#45;&gt;Node35</title>
<path fill="none" stroke="midnightblue" d="M1758.5,-392.324C1771.6,-383.9 1791.71,-370.971 1807.11,-361.074"/>
<polygon fill="midnightblue" stroke="midnightblue" points="1809.02,-364.006 1815.54,-355.655 1805.23,-358.118 1809.02,-364.006"/>
</g>
<!-- Node36 -->
<g id="node36" class="node"><title>Node36</title>
<g id="a_node36"><a xlink:href="backend_8h.html" target="_top" xlink:title="backend.h">
<polygon fill="white" stroke="red" points="1866,-336.5 1866,-355.5 1928,-355.5 1928,-336.5 1866,-336.5"/>
<text text-anchor="middle" x="1897" y="-343.5" font-family="Helvetica,sans-Serif" font-size="10.00">backend.h</text>
</a>
</g>
</g>
<!-- Node33&#45;&gt;Node36 -->
<g id="edge77" class="edge"><title>Node33&#45;&gt;Node36</title>
<path fill="none" stroke="midnightblue" d="M1769.08,-392.444C1794.54,-383.399 1834.89,-369.064 1863.46,-358.916"/>
<polygon fill="midnightblue" stroke="midnightblue" points="1864.78,-362.162 1873.03,-355.516 1862.43,-355.566 1864.78,-362.162"/>
</g>
<!-- Node37 -->
<g id="node37" class="node"><title>Node37</title>
<g id="a_node37"><a xlink:href="compile__time__list_8h.html" target="_top" xlink:title="compile_time_list.h">
<polygon fill="white" stroke="red" points="1946.5,-336.5 1946.5,-355.5 2047.5,-355.5 2047.5,-336.5 1946.5,-336.5"/>
<text text-anchor="middle" x="1997" y="-343.5" font-family="Helvetica,sans-Serif" font-size="10.00">compile_time_list.h</text>
</a>
</g>
</g>
<!-- Node33&#45;&gt;Node37 -->
<g id="edge82" class="edge"><title>Node33&#45;&gt;Node37</title>
<path fill="none" stroke="midnightblue" d="M1784.93,-392.444C1828.89,-383.023 1899.63,-367.866 1947.18,-357.675"/>
<polygon fill="midnightblue" stroke="midnightblue" points="1948.21,-361.034 1957.26,-355.516 1946.75,-354.189 1948.21,-361.034"/>
</g>
<!-- Node38 -->
<g id="node38" class="node"><title>Node38</title>
<g id="a_node38"><a xlink:href="so__uid_8h.html" target="_top" xlink:title="sim_object/so_uid.h">
<polygon fill="white" stroke="red" points="2066,-336.5 2066,-355.5 2170,-355.5 2170,-336.5 2066,-336.5"/>
<text text-anchor="middle" x="2118" y="-343.5" font-family="Helvetica,sans-Serif" font-size="10.00">sim_object/so_uid.h</text>
</a>
</g>
</g>
<!-- Node33&#45;&gt;Node38 -->
<g id="edge84" class="edge"><title>Node33&#45;&gt;Node38</title>
<path fill="none" stroke="midnightblue" d="M1797.55,-393.404C1859.39,-384.463 1965.16,-369.165 2056,-356 2056.1,-355.985 2056.2,-355.971 2056.3,-355.956"/>
<polygon fill="midnightblue" stroke="midnightblue" points="2056.51,-359.463 2065.91,-354.564 2055.51,-352.535 2056.51,-359.463"/>
</g>
<!-- Node39 -->
<g id="node39" class="node"><title>Node39</title>
<g id="a_node39"><a xlink:href="tuple__util_8h.html" target="_top" xlink:title="tuple_util.h">
<polygon fill="white" stroke="black" points="2264,-336.5 2264,-355.5 2328,-355.5 2328,-336.5 2264,-336.5"/>
<text text-anchor="middle" x="2296" y="-343.5" font-family="Helvetica,sans-Serif" font-size="10.00">tuple_util.h</text>
</a>
</g>
</g>
<!-- Node33&#45;&gt;Node39 -->
<g id="edge86" class="edge"><title>Node33&#45;&gt;Node39</title>
<path fill="none" stroke="midnightblue" d="M1797.55,-398.129C1889.57,-392.698 2085.73,-379.324 2250,-356 2251.27,-355.82 2252.56,-355.628 2253.85,-355.426"/>
<polygon fill="midnightblue" stroke="midnightblue" points="2254.63,-358.845 2263.9,-353.723 2253.46,-351.943 2254.63,-358.845"/>
</g>
<!-- Node36&#45;&gt;Node6 -->
<g id="edge80" class="edge"><title>Node36&#45;&gt;Node6</title>
<path fill="none" stroke="midnightblue" d="M1865.59,-337.794C1862.69,-337.17 1859.79,-336.563 1857,-336 1650.65,-294.347 1400.69,-253.908 1313.14,-240.043"/>
<polygon fill="midnightblue" stroke="midnightblue" points="1313.47,-236.552 1303.05,-238.449 1312.38,-243.467 1313.47,-236.552"/>
</g>
<!-- Node36&#45;&gt;Node10 -->
<g id="edge81" class="edge"><title>Node36&#45;&gt;Node10</title>
<path fill="none" stroke="midnightblue" d="M1911.3,-336.469C1930.52,-323.933 1960.58,-299.871 1945,-280 1898.16,-220.258 1661.93,-191.694 1566.79,-182.476"/>
<polygon fill="midnightblue" stroke="midnightblue" points="1566.99,-178.979 1556.7,-181.52 1566.33,-185.948 1566.99,-178.979"/>
</g>
<!-- Node36&#45;&gt;Node17 -->
<g id="edge79" class="edge"><title>Node36&#45;&gt;Node17</title>
<path fill="none" stroke="midnightblue" d="M1928.01,-338.02C1931.05,-337.337 1934.08,-336.655 1937,-336 1997.57,-322.406 2068.41,-306.558 2107.75,-297.762"/>
<polygon fill="midnightblue" stroke="midnightblue" points="2108.75,-301.126 2117.74,-295.528 2107.22,-294.294 2108.75,-301.126"/>
</g>
<!-- Node36&#45;&gt;Node31 -->
<g id="edge78" class="edge"><title>Node36&#45;&gt;Node31</title>
<path fill="none" stroke="midnightblue" d="M1922.99,-336.444C1950.7,-327.32 1994.75,-312.813 2025.62,-302.651"/>
<polygon fill="midnightblue" stroke="midnightblue" points="2026.73,-305.968 2035.14,-299.516 2024.54,-299.32 2026.73,-305.968"/>
</g>
<!-- Node39&#45;&gt;Node17 -->
<g id="edge88" class="edge"><title>Node39&#45;&gt;Node17</title>
<path fill="none" stroke="midnightblue" d="M2270.96,-336.444C2242.98,-326.878 2197.68,-311.397 2167.87,-301.207"/>
<polygon fill="midnightblue" stroke="midnightblue" points="2168.99,-297.893 2158.4,-297.971 2166.73,-304.517 2168.99,-297.893"/>
</g>
<!-- Node40 -->
<g id="node40" class="node"><title>Node40</title>
<polygon fill="white" stroke="#bfbfbf" points="2188,-280.5 2188,-299.5 2250,-299.5 2250,-280.5 2188,-280.5"/>
<text text-anchor="middle" x="2219" y="-287.5" font-family="Helvetica,sans-Serif" font-size="10.00">type_traits</text>
</g>
<!-- Node39&#45;&gt;Node40 -->
<g id="edge87" class="edge"><title>Node39&#45;&gt;Node40</title>
<path fill="none" stroke="midnightblue" d="M2283.63,-336.324C2271.84,-328.058 2253.87,-315.453 2239.86,-305.632"/>
<polygon fill="midnightblue" stroke="midnightblue" points="2241.54,-302.531 2231.34,-299.655 2237.52,-308.262 2241.54,-302.531"/>
</g>
<!-- Node41&#45;&gt;Node5 -->
<g id="edge105" class="edge"><title>Node41&#45;&gt;Node5</title>
<path fill="none" stroke="midnightblue" d="M825.992,-454.264C820.513,-432.087 803.431,-372.763 770,-336 757.37,-322.111 739.427,-311.351 723.935,-303.84"/>
<polygon fill="midnightblue" stroke="midnightblue" points="725.222,-300.58 714.674,-299.585 722.299,-306.941 725.222,-300.58"/>
</g>
<!-- Node41&#45;&gt;Node11 -->
<g id="edge102" class="edge"><title>Node41&#45;&gt;Node11</title>
<path fill="none" stroke="midnightblue" d="M778.818,-461.628C635.184,-457.281 223.159,-442.284 171,-412 112.456,-378.009 51.2061,-331.622 95,-280 144.395,-221.776 358.249,-233.577 434,-224 615.04,-201.113 667.939,-239.505 843,-188 861.309,-182.613 862.642,-173.219 881,-168 999.389,-134.339 1387.84,-125.339 1497.78,-123.44"/>
<polygon fill="midnightblue" stroke="midnightblue" points="1497.87,-126.939 1507.81,-123.273 1497.75,-119.94 1497.87,-126.939"/>
</g>
<!-- Node41&#45;&gt;Node24 -->
<g id="edge103" class="edge"><title>Node41&#45;&gt;Node24</title>
<path fill="none" stroke="midnightblue" d="M778.96,-458.351C711.851,-451.204 595.751,-435.798 561,-412 526.362,-388.279 513.179,-337.161 508.449,-309.568"/>
<polygon fill="midnightblue" stroke="midnightblue" points="511.903,-308.997 506.942,-299.636 504.982,-310.048 511.903,-308.997"/>
</g>
<!-- Node41&#45;&gt;Node29 -->
<g id="edge101" class="edge"><title>Node41&#45;&gt;Node29</title>
<path fill="none" stroke="midnightblue" d="M837.386,-454.266C854.191,-439.132 891.123,-408.11 928,-392 990.016,-364.908 1069.37,-353.753 1112.22,-349.458"/>
<polygon fill="midnightblue" stroke="midnightblue" points="1112.67,-352.931 1122.29,-348.508 1112.01,-345.962 1112.67,-352.931"/>
</g>
<!-- Node41&#45;&gt;Node40 -->
<g id="edge91" class="edge"><title>Node41&#45;&gt;Node40</title>
<path fill="none" stroke="midnightblue" d="M877.193,-454.767C960.285,-440.978 1133.78,-412.692 1281,-392 1480.58,-363.948 1530.53,-356.741 1731,-336 1924.4,-315.99 1974.13,-324.604 2167,-300 2170.51,-299.552 2174.15,-299.033 2177.8,-298.477"/>
<polygon fill="midnightblue" stroke="midnightblue" points="2178.68,-301.88 2188,-296.831 2177.57,-294.969 2178.68,-301.88"/>
</g>
<!-- Node42 -->
<g id="node42" class="node"><title>Node42</title>
<g id="a_node42"><a xlink:href="displacement__op__cpu_8h.html" target="_top" xlink:title="displacement_op_cpu.h">
<polygon fill="white" stroke="black" points="570.5,-392.5 570.5,-411.5 689.5,-411.5 689.5,-392.5 570.5,-392.5"/>
<text text-anchor="middle" x="630" y="-399.5" font-family="Helvetica,sans-Serif" font-size="10.00">displacement_op_cpu.h</text>
</a>
</g>
</g>
<!-- Node41&#45;&gt;Node42 -->
<g id="edge92" class="edge"><title>Node41&#45;&gt;Node42</title>
<path fill="none" stroke="midnightblue" d="M799.631,-454.403C765.079,-443.933 706.576,-426.205 668.115,-414.55"/>
<polygon fill="midnightblue" stroke="midnightblue" points="668.901,-411.131 658.316,-411.581 666.871,-417.83 668.901,-411.131"/>
</g>
<!-- Node43 -->
<g id="node43" class="node"><title>Node43</title>
<g id="a_node43"><a xlink:href="shape_8h.html" target="_top" xlink:title="shape.h">
<polygon fill="white" stroke="black" points="1290.5,-392.5 1290.5,-411.5 1341.5,-411.5 1341.5,-392.5 1290.5,-392.5"/>
<text text-anchor="middle" x="1316" y="-399.5" font-family="Helvetica,sans-Serif" font-size="10.00">shape.h</text>
</a>
</g>
</g>
<!-- Node41&#45;&gt;Node43 -->
<g id="edge104" class="edge"><title>Node41&#45;&gt;Node43</title>
<path fill="none" stroke="midnightblue" d="M877.026,-456.972C975.287,-444.891 1194.27,-417.967 1280.31,-407.388"/>
<polygon fill="midnightblue" stroke="midnightblue" points="1280.86,-410.846 1290.36,-406.152 1280.01,-403.899 1280.86,-410.846"/>
</g>
<!-- Node42&#45;&gt;Node4 -->
<g id="edge97" class="edge"><title>Node42&#45;&gt;Node4</title>
<path fill="none" stroke="midnightblue" d="M643.335,-392.324C656.162,-383.979 675.785,-371.212 690.94,-361.352"/>
<polygon fill="midnightblue" stroke="midnightblue" points="693.224,-364.042 699.698,-355.655 689.407,-358.174 693.224,-364.042"/>
</g>
<!-- Node42&#45;&gt;Node5 -->
<g id="edge100" class="edge"><title>Node42&#45;&gt;Node5</title>
<path fill="none" stroke="midnightblue" d="M632.405,-392.187C636.134,-379.299 644.042,-354.803 655,-336 661.035,-325.645 669.411,-315.234 676.667,-307.038"/>
<polygon fill="midnightblue" stroke="midnightblue" points="679.248,-309.402 683.422,-299.665 674.086,-304.674 679.248,-309.402"/>
</g>
<!-- Node42&#45;&gt;Node6 -->
<g id="edge96" class="edge"><title>Node42&#45;&gt;Node6</title>
<path fill="none" stroke="midnightblue" d="M628.118,-392.358C623.806,-369.962 615.9,-309.727 648,-280 670.263,-259.383 1123.09,-240.921 1248.85,-236.177"/>
<polygon fill="midnightblue" stroke="midnightblue" points="1249.13,-239.669 1258.99,-235.797 1248.87,-232.674 1249.13,-239.669"/>
</g>
<!-- Node42&#45;&gt;Node8 -->
<g id="edge93" class="edge"><title>Node42&#45;&gt;Node8</title>
<path fill="none" stroke="midnightblue" d="M570.475,-401.31C488.993,-400.319 349.132,-393.081 317,-356 311.179,-349.282 313.068,-343.972 317,-336 353.176,-262.654 386.651,-253.313 463,-224 557.895,-187.567 817.814,-197.683 919,-188 935.793,-186.393 954.535,-184.301 969.655,-182.538"/>
<polygon fill="midnightblue" stroke="midnightblue" points="970.424,-185.971 979.945,-181.324 969.604,-179.02 970.424,-185.971"/>
</g>
<!-- Node42&#45;&gt;Node21 -->
<g id="edge94" class="edge"><title>Node42&#45;&gt;Node21</title>
<path fill="none" stroke="midnightblue" d="M616.213,-392.189C605.174,-384.241 590.498,-371.447 584,-356 570.903,-324.865 561.446,-305.145 584,-280 590.375,-272.892 868.925,-246.741 964.9,-237.924"/>
<polygon fill="midnightblue" stroke="midnightblue" points="965.261,-241.406 974.9,-237.008 964.622,-234.435 965.261,-241.406"/>
</g>
<!-- Node42&#45;&gt;Node23 -->
<g id="edge98" class="edge"><title>Node42&#45;&gt;Node23</title>
<path fill="none" stroke="midnightblue" d="M682.584,-392.461C710.559,-385.959 744.372,-374.802 770,-356 786.845,-343.641 799.833,-323.222 807.646,-308.566"/>
<polygon fill="midnightblue" stroke="midnightblue" points="810.836,-310.015 812.213,-299.51 804.585,-306.863 810.836,-310.015"/>
</g>
<!-- Node42&#45;&gt;Node24 -->
<g id="edge99" class="edge"><title>Node42&#45;&gt;Node24</title>
<path fill="none" stroke="midnightblue" d="M606.54,-392.388C588.432,-384.869 563.583,-372.561 546,-356 531.719,-342.549 520.577,-322.914 513.72,-308.748"/>
<polygon fill="midnightblue" stroke="midnightblue" points="516.856,-307.191 509.501,-299.566 510.496,-310.114 516.856,-307.191"/>
</g>
<!-- Node42&#45;&gt;Node30 -->
<g id="edge95" class="edge"><title>Node42&#45;&gt;Node30</title>
<path fill="none" stroke="midnightblue" d="M689.713,-400.101C823.25,-397.521 1137.08,-388.077 1172,-356 1184.49,-344.524 1186.21,-324.548 1185.44,-309.761"/>
<polygon fill="midnightblue" stroke="midnightblue" points="1188.91,-309.324 1184.5,-299.692 1181.94,-309.973 1188.91,-309.324"/>
</g>
<!-- Node44&#45;&gt;Node3 -->
<g id="edge109" class="edge"><title>Node44&#45;&gt;Node3</title>
<path fill="none" stroke="midnightblue" d="M335.425,-336.462C289.316,-323.274 216,-293.159 216,-235 216,-235 216,-235 216,-121 216,-74.1454 255.044,-72.2247 299,-56 396.677,-19.9462 1154.91,-12.4106 1318.12,-11.2007"/>
<polygon fill="midnightblue" stroke="midnightblue" points="1318.43,-14.6986 1328.41,-11.127 1318.38,-7.69876 1318.43,-14.6986"/>
</g>
<!-- Node44&#45;&gt;Node5 -->
<g id="edge113" class="edge"><title>Node44&#45;&gt;Node5</title>
<path fill="none" stroke="midnightblue" d="M417.508,-337.32C478.676,-326.998 586.727,-308.765 647.418,-298.523"/>
<polygon fill="midnightblue" stroke="midnightblue" points="648.179,-301.944 657.457,-296.829 647.014,-295.042 648.179,-301.944"/>
</g>
<!-- Node44&#45;&gt;Node6 -->
<g id="edge110" class="edge"><title>Node44&#45;&gt;Node6</title>
<path fill="none" stroke="midnightblue" d="M417.851,-342.968C522.321,-337.98 775.298,-323.776 857,-300 875.704,-294.557 877.362,-285.665 896,-280 1022.25,-241.622 1180.97,-235.635 1248.35,-234.934"/>
<polygon fill="midnightblue" stroke="midnightblue" points="1248.76,-238.432 1258.73,-234.862 1248.71,-231.432 1248.76,-238.432"/>
</g>
<!-- Node44&#45;&gt;Node11 -->
<g id="edge111" class="edge"><title>Node44&#45;&gt;Node11</title>
<path fill="none" stroke="midnightblue" d="M375.495,-336.296C385.283,-313.207 415.407,-250.369 463,-224 544.552,-178.816 788.846,-202.144 881,-188 921.502,-181.784 930.483,-174.112 971,-168 1170.79,-137.864 1414.22,-126.96 1497.46,-123.956"/>
<polygon fill="midnightblue" stroke="midnightblue" points="1497.81,-127.446 1507.68,-123.599 1497.57,-120.451 1497.81,-127.446"/>
</g>
<!-- Node44&#45;&gt;Node15 -->
<g id="edge108" class="edge"><title>Node44&#45;&gt;Node15</title>
<path fill="none" stroke="midnightblue" d="M373.398,-336.256C377.627,-313.067 392.633,-250.002 434,-224 761.135,-18.3716 903.239,-101.03 1287,-56 1563.23,-23.5873 1898.98,-14.0357 2008.54,-11.6785"/>
<polygon fill="midnightblue" stroke="midnightblue" points="2008.8,-15.174 2018.72,-11.4663 2008.65,-8.17548 2008.8,-15.174"/>
</g>
<!-- Node44&#45;&gt;Node24 -->
<g id="edge112" class="edge"><title>Node44&#45;&gt;Node24</title>
<path fill="none" stroke="midnightblue" d="M393.233,-336.444C415.384,-327.517 450.319,-313.439 475.436,-303.317"/>
<polygon fill="midnightblue" stroke="midnightblue" points="476.9,-306.501 484.867,-299.516 474.283,-300.008 476.9,-306.501"/>
</g>
<!-- Node45 -->
<g id="node45" class="node"><title>Node45</title>
<polygon fill="white" stroke="#bfbfbf" points="905,-280.5 905,-299.5 955,-299.5 955,-280.5 905,-280.5"/>
<text text-anchor="middle" x="930" y="-287.5" font-family="Helvetica,sans-Serif" font-size="10.00">fstream</text>
</g>
<!-- Node44&#45;&gt;Node45 -->
<g id="edge107" class="edge"><title>Node44&#45;&gt;Node45</title>
<path fill="none" stroke="midnightblue" d="M417.733,-343.192C508.464,-339.131 717.467,-327.407 891,-300 892.274,-299.799 893.568,-299.579 894.873,-299.346"/>
<polygon fill="midnightblue" stroke="midnightblue" points="895.809,-302.728 904.926,-297.332 894.433,-295.864 895.809,-302.728"/>
</g>
<!-- Node46&#45;&gt;Node3 -->
<g id="edge115" class="edge"><title>Node46&#45;&gt;Node3</title>
<path fill="none" stroke="midnightblue" d="M218.199,-392.134C247.878,-356.317 365.349,-221.66 496,-168 799.603,-43.3063 1204.59,-17.1338 1318.22,-12.1095"/>
<polygon fill="midnightblue" stroke="midnightblue" points="1318.45,-15.603 1328.29,-11.6867 1318.15,-8.6092 1318.45,-15.603"/>
</g>
<!-- Node46&#45;&gt;Node5 -->
<g id="edge116" class="edge"><title>Node46&#45;&gt;Node5</title>
<path fill="none" stroke="midnightblue" d="M242.046,-394.84C283.907,-386.457 360.73,-370.801 426,-356 504.671,-338.16 595.919,-315.412 648.506,-302.1"/>
<polygon fill="midnightblue" stroke="midnightblue" points="649.659,-305.419 658.492,-299.568 647.939,-298.633 649.659,-305.419"/>
</g>
<!-- Node47 -->
<g id="node47" class="node"><title>Node47</title>
<g id="a_node47"><a xlink:href="timing_8h.html" target="_top" xlink:title="timing.h">
<polygon fill="white" stroke="red" points="142.5,-336.5 142.5,-355.5 193.5,-355.5 193.5,-336.5 142.5,-336.5"/>
<text text-anchor="middle" x="168" y="-343.5" font-family="Helvetica,sans-Serif" font-size="10.00">timing.h</text>
</a>
</g>
</g>
<!-- Node46&#45;&gt;Node47 -->
<g id="edge117" class="edge"><title>Node46&#45;&gt;Node47</title>
<path fill="none" stroke="midnightblue" d="M203.899,-392.083C197.763,-384.377 188.73,-373.033 181.261,-363.653"/>
<polygon fill="midnightblue" stroke="midnightblue" points="183.936,-361.394 174.968,-355.751 178.46,-365.754 183.936,-361.394"/>
</g>
<!-- Node47&#45;&gt;Node2 -->
<g id="edge118" class="edge"><title>Node47&#45;&gt;Node2</title>
<path fill="none" stroke="midnightblue" d="M161.23,-336.083C155.438,-328.455 146.942,-317.264 139.862,-307.941"/>
<polygon fill="midnightblue" stroke="midnightblue" points="142.479,-305.599 133.644,-299.751 136.904,-309.832 142.479,-305.599"/>
</g>
<!-- Node47&#45;&gt;Node3 -->
<g id="edge120" class="edge"><title>Node47&#45;&gt;Node3</title>
<path fill="none" stroke="midnightblue" d="M167.826,-336.352C167.345,-323.671 165.561,-299.428 159,-280 142.508,-231.166 102,-230.544 102,-179 102,-179 102,-179 102,-121 102,-52.8013 174.74,-72.145 241,-56 348.072,-29.9109 1150,-14.4915 1318.14,-11.5264"/>
<polygon fill="midnightblue" stroke="midnightblue" points="1318.34,-15.0235 1328.28,-11.3492 1318.22,-8.02453 1318.34,-15.0235"/>
</g>
<!-- Node47&#45;&gt;Node13 -->
<g id="edge119" class="edge"><title>Node47&#45;&gt;Node13</title>
<path fill="none" stroke="midnightblue" d="M172.869,-336.477C186.302,-313.836 226.338,-252.011 278,-224 458.302,-126.24 1120.81,-79.4832 1285.66,-69.2113"/>
<polygon fill="midnightblue" stroke="midnightblue" points="1286.03,-72.6956 1295.79,-68.5873 1285.6,-65.7089 1286.03,-72.6956"/>
</g>
<!-- Node47&#45;&gt;Node24 -->
<g id="edge121" class="edge"><title>Node47&#45;&gt;Node24</title>
<path fill="none" stroke="midnightblue" d="M193.682,-340.897C253.322,-331.369 401.325,-307.723 469.971,-296.756"/>
<polygon fill="midnightblue" stroke="midnightblue" points="470.571,-300.205 479.893,-295.171 469.466,-293.292 470.571,-300.205"/>
</g>
<!-- Node48&#45;&gt;Node3 -->
<g id="edge126" class="edge"><title>Node48&#45;&gt;Node3</title>
<path fill="none" stroke="midnightblue" d="M2573.11,-336.478C2548.7,-323.536 2500.35,-298.478 2458,-280 2416.62,-261.944 2404.42,-261.974 2363,-244 2358.15,-241.893 2025.72,-78.3993 2021,-76 2003.99,-67.3473 2001.35,-61.2315 1983,-56 1867.59,-23.1048 1490.62,-13.6228 1379.86,-11.5151"/>
<polygon fill="midnightblue" stroke="midnightblue" points="1379.77,-8.0128 1369.7,-11.3284 1379.64,-15.0116 1379.77,-8.0128"/>
</g>
<!-- Node48&#45;&gt;Node5 -->
<g id="edge128" class="edge"><title>Node48&#45;&gt;Node5</title>
<path fill="none" stroke="midnightblue" d="M2535.91,-342.908C2484.92,-340.946 2405.7,-338.018 2337,-336 1642.45,-315.599 1467.33,-345.947 774,-300 761.953,-299.202 748.947,-297.953 736.921,-296.637"/>
<polygon fill="midnightblue" stroke="midnightblue" points="736.985,-293.122 726.654,-295.474 736.196,-300.078 736.985,-293.122"/>
</g>
<!-- Node48&#45;&gt;Node6 -->
<g id="edge127" class="edge"><title>Node48&#45;&gt;Node6</title>
<path fill="none" stroke="midnightblue" d="M2566.73,-336.385C2527.63,-321.711 2443.75,-292.268 2370,-280 1986.5,-216.203 1884.44,-260.13 1496,-244 1431.27,-241.312 1355.59,-238.136 1313.49,-236.367"/>
<polygon fill="midnightblue" stroke="midnightblue" points="1313.42,-232.861 1303.28,-235.938 1313.13,-239.855 1313.42,-232.861"/>
</g>
<!-- Node48&#45;&gt;Node11 -->
<g id="edge132" class="edge"><title>Node48&#45;&gt;Node11</title>
<path fill="none" stroke="midnightblue" d="M2565.61,-336.37C2519.99,-319.429 2416.05,-280.301 2330,-244 2310.21,-235.65 2306.65,-229.925 2286,-224 2009.85,-144.752 1659,-127.326 1556.41,-123.82"/>
<polygon fill="midnightblue" stroke="midnightblue" points="1556.3,-120.315 1546.2,-123.49 1556.08,-127.311 1556.3,-120.315"/>
</g>
<!-- Node48&#45;&gt;Node15 -->
<g id="edge125" class="edge"><title>Node48&#45;&gt;Node15</title>
<path fill="none" stroke="midnightblue" d="M2599.78,-336.264C2619.65,-319.113 2660,-278.869 2660,-235 2660,-235 2660,-235 2660,-121 2660,-61.795 2212.65,-23.5651 2081.02,-13.5977"/>
<polygon fill="midnightblue" stroke="midnightblue" points="2081.27,-10.1067 2071.03,-12.8503 2080.74,-17.0871 2081.27,-10.1067"/>
</g>
<!-- Node48&#45;&gt;Node22 -->
<g id="edge124" class="edge"><title>Node48&#45;&gt;Node22</title>
<path fill="none" stroke="midnightblue" d="M2542.89,-336.444C2486.4,-325.96 2391.61,-308.372 2338.04,-298.431"/>
<polygon fill="midnightblue" stroke="midnightblue" points="2338.37,-294.932 2327.9,-296.549 2337.1,-301.815 2338.37,-294.932"/>
</g>
<!-- Node49 -->
<g id="node49" class="node"><title>Node49</title>
<g id="a_node49"><a xlink:href="io__util_8h.html" target="_top" xlink:title="io_util.h">
<polygon fill="white" stroke="red" points="2372,-224.5 2372,-243.5 2422,-243.5 2422,-224.5 2372,-224.5"/>
<text text-anchor="middle" x="2397" y="-231.5" font-family="Helvetica,sans-Serif" font-size="10.00">io_util.h</text>
</a>
</g>
</g>
<!-- Node48&#45;&gt;Node49 -->
<g id="edge129" class="edge"><title>Node48&#45;&gt;Node49</title>
<path fill="none" stroke="midnightblue" d="M2593.84,-336.35C2600.72,-322.782 2611.1,-296.362 2598,-280 2577.61,-254.54 2484.21,-242.514 2432.21,-237.705"/>
<polygon fill="midnightblue" stroke="midnightblue" points="2432.36,-234.205 2422.09,-236.812 2431.74,-241.178 2432.36,-234.205"/>
</g>
<!-- Node49&#45;&gt;Node3 -->
<g id="edge130" class="edge"><title>Node49&#45;&gt;Node3</title>
<path fill="none" stroke="midnightblue" d="M2383.71,-224.456C2336.58,-194.678 2172.21,-95.1621 2021,-56 1897.23,-23.9442 1494.51,-13.8169 1379.77,-11.5461"/>
<polygon fill="midnightblue" stroke="midnightblue" points="1379.64,-8.04324 1369.58,-11.3504 1379.51,-15.042 1379.64,-8.04324"/>
</g>
<!-- Node49&#45;&gt;Node10 -->
<g id="edge131" class="edge"><title>Node49&#45;&gt;Node10</title>
<path fill="none" stroke="midnightblue" d="M2371.88,-230.807C2349.39,-228.881 2315.51,-226.071 2286,-224 2011.1,-204.709 1679.8,-186.955 1566.91,-181.06"/>
<polygon fill="midnightblue" stroke="midnightblue" points="1566.84,-177.552 1556.67,-180.527 1566.48,-184.543 1566.84,-177.552"/>
</g>
<!-- Node50&#45;&gt;Node3 -->
<g id="edge140" class="edge"><title>Node50&#45;&gt;Node3</title>
<path fill="none" stroke="midnightblue" d="M1609.75,-448.867C1630.78,-424.101 1676.98,-372.066 1723,-336 1792.17,-281.79 1893,-322.884 1893,-235 1893,-235 1893,-235 1893,-121 1893,-90.7745 1896.52,-74.9817 1873,-56 1834.53,-24.9552 1486.16,-14.2317 1379.74,-11.6645"/>
<polygon fill="midnightblue" stroke="midnightblue" points="1379.73,-8.1635 1369.65,-11.4284 1379.57,-15.1616 1379.73,-8.1635"/>
</g>
<!-- Node50&#45;&gt;Node5 -->
<g id="edge148" class="edge"><title>Node50&#45;&gt;Node5</title>
<path fill="none" stroke="midnightblue" d="M1563.43,-448.948C1521.65,-432.574 1448.86,-405.981 1384,-392 1233.73,-359.608 1191.46,-382.273 1040,-356 1003.04,-349.589 994.751,-343.519 958,-336 862.222,-316.404 837.303,-316.831 741,-300 739.536,-299.744 738.047,-299.482 736.544,-299.216"/>
<polygon fill="midnightblue" stroke="midnightblue" points="736.981,-295.738 726.52,-297.418 735.745,-302.628 736.981,-295.738"/>
</g>
<!-- Node50&#45;&gt;Node6 -->
<g id="edge143" class="edge"><title>Node50&#45;&gt;Node6</title>
<path fill="none" stroke="midnightblue" d="M1652.22,-460.586C1802.49,-453.66 2217.06,-432.881 2275,-412 2320.83,-395.481 2361.55,-384.133 2354,-336 2349.95,-310.172 2356.79,-295.847 2336,-280 2335.35,-279.503 1490.18,-243.824 1313.24,-236.36"/>
<polygon fill="midnightblue" stroke="midnightblue" points="1313.16,-232.853 1303.02,-235.929 1312.86,-239.847 1313.16,-232.853"/>
</g>
<!-- Node50&#45;&gt;Node11 -->
<g id="edge144" class="edge"><title>Node50&#45;&gt;Node11</title>
<path fill="none" stroke="midnightblue" d="M1590.47,-448.617C1578.22,-422.993 1557.83,-369.039 1584,-336 1627.37,-281.238 1693.63,-354.762 1737,-300 1745.54,-289.216 1748.55,-255.374 1732,-224 1697.4,-158.426 1604.09,-134.768 1556.21,-126.772"/>
<polygon fill="midnightblue" stroke="midnightblue" points="1556.59,-123.289 1546.17,-125.216 1555.51,-130.207 1556.59,-123.289"/>
</g>
<!-- Node50&#45;&gt;Node15 -->
<g id="edge139" class="edge"><title>Node50&#45;&gt;Node15</title>
<path fill="none" stroke="midnightblue" d="M1652.17,-463.042C1873.58,-462.513 2698,-453.397 2698,-347 2698,-347 2698,-347 2698,-121 2698,-41.7679 2609.1,-74.2697 2532,-56 2366.94,-16.8858 2162.91,-11.4149 2081.26,-10.8984"/>
<polygon fill="midnightblue" stroke="midnightblue" points="2081.03,-7.39749 2071.02,-10.8562 2081.01,-14.3974 2081.03,-7.39749"/>
</g>
<!-- Node50&#45;&gt;Node20 -->
<g id="edge137" class="edge"><title>Node50&#45;&gt;Node20</title>
<path fill="none" stroke="midnightblue" d="M1652.05,-460.585C1831.22,-452.455 2395.02,-425.819 2408,-412 2431.12,-387.377 2417.92,-368.288 2408,-336 2399.17,-307.248 2396.19,-294.792 2370,-280 2300.01,-240.468 1727.35,-235.654 1571.84,-235.077"/>
<polygon fill="midnightblue" stroke="midnightblue" points="1571.39,-231.575 1561.38,-235.042 1571.37,-238.575 1571.39,-231.575"/>
</g>
<!-- Node50&#45;&gt;Node24 -->
<g id="edge145" class="edge"><title>Node50&#45;&gt;Node24</title>
<path fill="none" stroke="midnightblue" d="M1543.87,-454.702C1499.77,-446.862 1436.43,-433.116 1384,-412 1367.74,-405.451 1366.69,-397.372 1350,-392 1182.62,-338.12 1130.57,-377.083 956,-356 896.655,-348.833 882.147,-344.645 823,-336 721.302,-321.135 601.143,-304.268 542.242,-296.046"/>
<polygon fill="midnightblue" stroke="midnightblue" points="542.7,-292.576 532.312,-294.66 541.732,-299.509 542.7,-292.576"/>
</g>
<!-- Node50&#45;&gt;Node27 -->
<g id="edge142" class="edge"><title>Node50&#45;&gt;Node27</title>
<path fill="none" stroke="midnightblue" d="M1652.11,-460.666C1834.28,-452.683 2414.66,-426.181 2428,-412 2468.12,-369.341 2520.98,-413.498 2355,-280 2335.13,-264.023 2308.99,-253.305 2286.27,-246.352"/>
<polygon fill="midnightblue" stroke="midnightblue" points="2287.02,-242.925 2276.44,-243.508 2285.07,-249.649 2287.02,-242.925"/>
</g>
<!-- Node50&#45;&gt;Node33 -->
<g id="edge146" class="edge"><title>Node50&#45;&gt;Node33</title>
<path fill="none" stroke="midnightblue" d="M1632.46,-448.933C1657.38,-438.765 1690.72,-425.157 1714.63,-415.396"/>
<polygon fill="midnightblue" stroke="midnightblue" points="1715.99,-418.62 1723.93,-411.6 1713.35,-412.139 1715.99,-418.62"/>
</g>
<!-- Node50&#45;&gt;Node40 -->
<g id="edge141" class="edge"><title>Node50&#45;&gt;Node40</title>
<path fill="none" stroke="midnightblue" d="M1652.1,-463.844C1807.18,-464.994 2247.86,-458.977 2337,-356 2342.82,-349.279 2342.04,-343.32 2337,-336 2327.86,-322.739 2290.36,-309.88 2260.05,-301.328"/>
<polygon fill="midnightblue" stroke="midnightblue" points="2260.67,-297.868 2250.1,-298.598 2258.82,-304.619 2260.67,-297.868"/>
</g>
<!-- Node50&#45;&gt;Node43 -->
<g id="edge147" class="edge"><title>Node50&#45;&gt;Node43</title>
<path fill="none" stroke="midnightblue" d="M1543.65,-451.767C1494.57,-441.571 1420.4,-426.03 1356,-412 1354.57,-411.687 1353.1,-411.367 1351.63,-411.042"/>
<polygon fill="midnightblue" stroke="midnightblue" points="1352.33,-407.613 1341.81,-408.861 1350.81,-414.446 1352.33,-407.613"/>
</g>
<!-- Node50&#45;&gt;Node45 -->
<g id="edge138" class="edge"><title>Node50&#45;&gt;Node45</title>
<path fill="none" stroke="midnightblue" d="M1576.61,-448.769C1550.35,-432.088 1503.9,-405.066 1460,-392 1311.39,-347.771 1264.23,-390.19 1113,-356 1056.79,-343.292 994.057,-318.576 958.572,-303.553"/>
<polygon fill="midnightblue" stroke="midnightblue" points="959.885,-300.308 949.314,-299.591 957.131,-306.743 959.885,-300.308"/>
</g>
</g>
</svg>
