<?xml version="1.0" encoding="UTF-8" standalone="no"?>
<!DOCTYPE svg PUBLIC "-//W3C//DTD SVG 1.1//EN"
 "http://www.w3.org/Graphics/SVG/1.1/DTD/svg11.dtd">
<!-- Generated by graphviz version 2.38.0 (20140413.2041)
 -->
<!-- Title: core/scheduler.cc Pages: 1 -->
<svg width="3509pt" height="643pt"
 viewBox="0.00 0.00 3509.00 643.00" xmlns="http://www.w3.org/2000/svg" xmlns:xlink="http://www.w3.org/1999/xlink">
<g id="graph0" class="graph" transform="scale(1 1) rotate(0) translate(4 639)">
<title>core/scheduler.cc</title>
<polygon fill="white" stroke="none" points="-4,4 -4,-639 3505,-639 3505,4 -4,4"/>
<!-- Node1 -->
<g id="node1" class="node"><title>Node1</title>
<polygon fill="#bfbfbf" stroke="black" points="962,-615.5 962,-634.5 1062,-634.5 1062,-615.5 962,-615.5"/>
<text text-anchor="middle" x="1012" y="-622.5" font-family="Helvetica,sans-Serif" font-size="10.00">core/scheduler.cc</text>
</g>
<!-- Node2 -->
<g id="node2" class="node"><title>Node2</title>
<g id="a_node2"><a xlink:href="scheduler_8h.html" target="_top" xlink:title="core/scheduler.h">
<polygon fill="white" stroke="black" points="295.5,-297 295.5,-316 390.5,-316 390.5,-297 295.5,-297"/>
<text text-anchor="middle" x="343" y="-304" font-family="Helvetica,sans-Serif" font-size="10.00">core/scheduler.h</text>
</a>
</g>
</g>
<!-- Node1&#45;&gt;Node2 -->
<g id="edge1" class="edge"><title>Node1&#45;&gt;Node2</title>
<path fill="none" stroke="midnightblue" d="M961.975,-623.268C833.143,-620.036 500,-602.584 500,-508.5 500,-508.5 500,-508.5 500,-439.5 500,-376.665 425.414,-337.739 379.059,-319.615"/>
<polygon fill="midnightblue" stroke="midnightblue" points="380.225,-316.314 369.633,-316.062 377.756,-322.864 380.225,-316.314"/>
</g>
<!-- Node3 -->
<g id="node3" class="node"><title>Node3</title>
<polygon fill="white" stroke="#bfbfbf" points="218,-230 218,-249 268,-249 268,-230 218,-230"/>
<text text-anchor="middle" x="243" y="-237" font-family="Helvetica,sans-Serif" font-size="10.00">chrono</text>
</g>
<!-- Node1&#45;&gt;Node3 -->
<g id="edge10" class="edge"><title>Node1&#45;&gt;Node3</title>
<path fill="none" stroke="midnightblue" d="M961.685,-623.379C762.237,-620.262 38,-602.474 38,-508.5 38,-508.5 38,-508.5 38,-372.5 38,-292.635 149.349,-258.793 207.919,-246.516"/>
<polygon fill="midnightblue" stroke="midnightblue" points="208.741,-249.921 217.863,-244.532 207.371,-243.056 208.741,-249.921"/>
</g>
<!-- Node6 -->
<g id="node6" class="node"><title>Node6</title>
<polygon fill="white" stroke="#bfbfbf" points="626,-0.5 626,-19.5 670,-19.5 670,-0.5 626,-0.5"/>
<text text-anchor="middle" x="648" y="-7.5" font-family="Helvetica,sans-Serif" font-size="10.00">string</text>
</g>
<!-- Node1&#45;&gt;Node6 -->
<g id="edge12" class="edge"><title>Node1&#45;&gt;Node6</title>
<path fill="none" stroke="midnightblue" d="M961.983,-624.207C800.336,-624.441 293.357,-621.668 136,-579 70.2897,-561.183 0,-576.583 0,-508.5 0,-508.5 0,-508.5 0,-121 0,-72.7333 41.8418,-73.0416 87,-56 184.783,-19.0993 510.902,-12.4467 615.449,-11.2568"/>
<polygon fill="midnightblue" stroke="midnightblue" points="615.733,-14.7541 625.696,-11.1499 615.66,-7.75447 615.733,-14.7541"/>
</g>
<!-- Node9 -->
<g id="node9" class="node"><title>Node9</title>
<polygon fill="white" stroke="#bfbfbf" points="3439.5,-0.5 3439.5,-19.5 3486.5,-19.5 3486.5,-0.5 3439.5,-0.5"/>
<text text-anchor="middle" x="3463" y="-7.5" font-family="Helvetica,sans-Serif" font-size="10.00">cstdlib</text>
</g>
<!-- Node1&#45;&gt;Node9 -->
<g id="edge11" class="edge"><title>Node1&#45;&gt;Node9</title>
<path fill="none" stroke="midnightblue" d="M1062.33,-624.143C1343.74,-624.76 2724.9,-625.341 3148,-579 3307.04,-561.581 3501,-668.487 3501,-508.5 3501,-508.5 3501,-508.5 3501,-121 3501,-86.8131 3484.4,-49.7639 3473.14,-28.5707"/>
<polygon fill="midnightblue" stroke="midnightblue" points="3476.18,-26.832 3468.28,-19.769 3470.05,-30.2151 3476.18,-26.832"/>
</g>
<!-- Node10 -->
<g id="node10" class="node"><title>Node10</title>
<g id="a_node10"><a xlink:href="in__place__exec__ctxt_8h.html" target="_top" xlink:title="core/execution_context\l/in_place_exec_ctxt.h">
<polygon fill="white" stroke="black" points="1023,-358.5 1023,-388.5 1151,-388.5 1151,-358.5 1023,-358.5"/>
<text text-anchor="start" x="1031" y="-376.5" font-family="Helvetica,sans-Serif" font-size="10.00">core/execution_context</text>
<text text-anchor="middle" x="1087" y="-365.5" font-family="Helvetica,sans-Serif" font-size="10.00">/in_place_exec_ctxt.h</text>
</a>
</g>
</g>
<!-- Node1&#45;&gt;Node10 -->
<g id="edge13" class="edge"><title>Node1&#45;&gt;Node10</title>
<path fill="none" stroke="midnightblue" d="M996.217,-615.467C983.797,-607.769 967.395,-595.179 960,-579 931.547,-516.75 921.57,-481.637 960,-425 972.42,-406.696 992.635,-395.026 1013.32,-387.586"/>
<polygon fill="midnightblue" stroke="midnightblue" points="1014.43,-390.907 1022.83,-384.457 1012.24,-384.258 1014.43,-390.907"/>
</g>
<!-- Node17 -->
<g id="node17" class="node"><title>Node17</title>
<g id="a_node17"><a xlink:href="log_8h.html" target="_top" xlink:title="core/util/log.h">
<polygon fill="white" stroke="red" points="2050.5,-56.5 2050.5,-75.5 2131.5,-75.5 2131.5,-56.5 2050.5,-56.5"/>
<text text-anchor="middle" x="2091" y="-63.5" font-family="Helvetica,sans-Serif" font-size="10.00">core/util/log.h</text>
</a>
</g>
</g>
<!-- Node1&#45;&gt;Node17 -->
<g id="edge162" class="edge"><title>Node1&#45;&gt;Node17</title>
<path fill="none" stroke="midnightblue" d="M1021.55,-615.146C1059.15,-580.036 1199.84,-446.45 1299,-322 1331.57,-281.124 1325.35,-259.186 1364,-224 1441.93,-153.053 1471.99,-142.064 1573,-112 1659.63,-86.216 1927.68,-73.2354 2040.32,-68.8045"/>
<polygon fill="midnightblue" stroke="midnightblue" points="2040.55,-72.2984 2050.41,-68.4144 2040.28,-65.3037 2040.55,-72.2984"/>
</g>
<!-- Node18 -->
<g id="node18" class="node"><title>Node18</title>
<g id="a_node18"><a xlink:href="gpu__helper_8h.html" target="_top" xlink:title="core/gpu/gpu_helper.h">
<polygon fill="white" stroke="black" points="1167.5,-297 1167.5,-316 1290.5,-316 1290.5,-297 1167.5,-297"/>
<text text-anchor="middle" x="1229" y="-304" font-family="Helvetica,sans-Serif" font-size="10.00">core/gpu/gpu_helper.h</text>
</a>
</g>
</g>
<!-- Node1&#45;&gt;Node18 -->
<g id="edge27" class="edge"><title>Node1&#45;&gt;Node18</title>
<path fill="none" stroke="midnightblue" d="M1007.85,-615.301C997.916,-593.144 975.258,-533.409 998,-492 1039.07,-417.216 1095.7,-445.086 1160,-389 1182.51,-369.36 1204.03,-342.15 1216.88,-324.684"/>
<polygon fill="midnightblue" stroke="midnightblue" points="1220.06,-326.25 1223.07,-316.093 1214.39,-322.154 1220.06,-326.25"/>
</g>
<!-- Node22 -->
<g id="node22" class="node"><title>Node22</title>
<g id="a_node22"><a xlink:href="core_2param_2param_8h.html" target="_top" xlink:title="core/param/param.h">
<polygon fill="white" stroke="black" points="2686,-230 2686,-249 2802,-249 2802,-230 2686,-230"/>
<text text-anchor="middle" x="2744" y="-237" font-family="Helvetica,sans-Serif" font-size="10.00">core/param/param.h</text>
</a>
</g>
</g>
<!-- Node1&#45;&gt;Node22 -->
<g id="edge152" class="edge"><title>Node1&#45;&gt;Node22</title>
<path fill="none" stroke="midnightblue" d="M1062.01,-623.657C1381.35,-621.224 3124.15,-604.243 3199,-523 3330.5,-380.254 2945.04,-282.472 2798.24,-251.234"/>
<polygon fill="midnightblue" stroke="midnightblue" points="2798.6,-247.733 2788.09,-249.1 2797.16,-254.583 2798.6,-247.733"/>
</g>
<!-- Node32 -->
<g id="node32" class="node"><title>Node32</title>
<g id="a_node32"><a xlink:href="simulation_8h.html" target="_top" xlink:title="core/simulation.h">
<polygon fill="white" stroke="red" points="773.5,-230 773.5,-249 872.5,-249 872.5,-230 773.5,-230"/>
<text text-anchor="middle" x="823" y="-237" font-family="Helvetica,sans-Serif" font-size="10.00">core/simulation.h</text>
</a>
</g>
</g>
<!-- Node1&#45;&gt;Node32 -->
<g id="edge154" class="edge"><title>Node1&#45;&gt;Node32</title>
<path fill="none" stroke="midnightblue" d="M961.844,-616.614C871.562,-601.898 691,-565.358 691,-508.5 691,-508.5 691,-508.5 691,-372.5 691,-314.688 755.091,-273.352 793.955,-253.601"/>
<polygon fill="midnightblue" stroke="midnightblue" points="795.801,-256.594 803.238,-249.048 792.719,-250.31 795.801,-256.594"/>
</g>
<!-- Node33 -->
<g id="node33" class="node"><title>Node33</title>
<g id="a_node33"><a xlink:href="bound__space__op_8h.html" target="_top" xlink:title="core/operation/bound\l_space_op.h">
<polygon fill="white" stroke="black" points="2733.5,-358.5 2733.5,-388.5 2852.5,-388.5 2852.5,-358.5 2733.5,-358.5"/>
<text text-anchor="start" x="2741.5" y="-376.5" font-family="Helvetica,sans-Serif" font-size="10.00">core/operation/bound</text>
<text text-anchor="middle" x="2793" y="-365.5" font-family="Helvetica,sans-Serif" font-size="10.00">_space_op.h</text>
</a>
</g>
</g>
<!-- Node1&#45;&gt;Node33 -->
<g id="edge56" class="edge"><title>Node1&#45;&gt;Node33</title>
<path fill="none" stroke="midnightblue" d="M1062.29,-623.506C1301.32,-621.011 2316.78,-608.735 2455,-579 2594.68,-548.951 2647.33,-553.248 2752,-456 2768.78,-440.409 2779.69,-416.424 2786,-398.505"/>
<polygon fill="midnightblue" stroke="midnightblue" points="2789.4,-399.357 2789.2,-388.764 2782.75,-397.175 2789.4,-399.357"/>
</g>
<!-- Node37 -->
<g id="node37" class="node"><title>Node37</title>
<g id="a_node37"><a xlink:href="diffusion__op_8h.html" target="_top" xlink:title="core/operation/diffusion_op.h">
<polygon fill="white" stroke="black" points="1196.5,-498 1196.5,-517 1351.5,-517 1351.5,-498 1196.5,-498"/>
<text text-anchor="middle" x="1274" y="-505" font-family="Helvetica,sans-Serif" font-size="10.00">core/operation/diffusion_op.h</text>
</a>
</g>
</g>
<!-- Node1&#45;&gt;Node37 -->
<g id="edge72" class="edge"><title>Node1&#45;&gt;Node37</title>
<path fill="none" stroke="midnightblue" d="M1031.69,-615.319C1077.51,-595.119 1191.45,-544.891 1245.14,-521.222"/>
<polygon fill="midnightblue" stroke="midnightblue" points="1246.7,-524.361 1254.44,-517.124 1243.87,-517.956 1246.7,-524.361"/>
</g>
<!-- Node42 -->
<g id="node42" class="node"><title>Node42</title>
<g id="a_node42"><a xlink:href="resource__manager_8h.html" target="_top" xlink:title="core/resource_manager.h">
<polygon fill="white" stroke="red" points="1701,-364 1701,-383 1841,-383 1841,-364 1701,-364"/>
<text text-anchor="middle" x="1771" y="-371" font-family="Helvetica,sans-Serif" font-size="10.00">core/resource_manager.h</text>
</a>
</g>
</g>
<!-- Node1&#45;&gt;Node42 -->
<g id="edge153" class="edge"><title>Node1&#45;&gt;Node42</title>
<path fill="none" stroke="midnightblue" d="M1043.88,-615.486C1105.38,-598.897 1244.54,-560.57 1360,-523 1503.03,-476.459 1671.01,-412.944 1739.53,-386.656"/>
<polygon fill="midnightblue" stroke="midnightblue" points="1740.82,-389.909 1748.9,-383.054 1738.31,-383.375 1740.82,-389.909"/>
</g>
<!-- Node44 -->
<g id="node44" class="node"><title>Node44</title>
<g id="a_node44"><a xlink:href="displacement__op_8h.html" target="_top" xlink:title="core/operation/displacement_op.h">
<polygon fill="white" stroke="black" points="2266,-559.5 2266,-578.5 2446,-578.5 2446,-559.5 2266,-559.5"/>
<text text-anchor="middle" x="2356" y="-566.5" font-family="Helvetica,sans-Serif" font-size="10.00">core/operation/displacement_op.h</text>
</a>
</g>
</g>
<!-- Node1&#45;&gt;Node44 -->
<g id="edge126" class="edge"><title>Node1&#45;&gt;Node44</title>
<path fill="none" stroke="midnightblue" d="M1062.23,-621.982C1259.96,-614.037 1986.86,-584.832 2255.42,-574.041"/>
<polygon fill="midnightblue" stroke="midnightblue" points="2255.69,-577.533 2265.55,-573.634 2255.41,-570.539 2255.69,-577.533"/>
</g>
<!-- Node46 -->
<g id="node46" class="node"><title>Node46</title>
<g id="a_node46"><a xlink:href="op__timer_8h.html" target="_top" xlink:title="core/operation/op_timer.h">
<polygon fill="white" stroke="black" points="198,-364 198,-383 338,-383 338,-364 198,-364"/>
<text text-anchor="middle" x="268" y="-371" font-family="Helvetica,sans-Serif" font-size="10.00">core/operation/op_timer.h</text>
</a>
</g>
</g>
<!-- Node1&#45;&gt;Node46 -->
<g id="edge144" class="edge"><title>Node1&#45;&gt;Node46</title>
<path fill="none" stroke="midnightblue" d="M961.673,-623.859C847.1,-622.874 570.233,-616.556 486,-579 389.704,-536.066 308.945,-432.471 279.716,-391.545"/>
<polygon fill="midnightblue" stroke="midnightblue" points="282.452,-389.352 273.841,-383.181 276.724,-393.375 282.452,-389.352"/>
</g>
<!-- Node48 -->
<g id="node48" class="node"><title>Node48</title>
<g id="a_node48"><a xlink:href="simulation__backup_8h.html" target="_top" xlink:title="core/simulation_backup.h">
<polygon fill="white" stroke="red" points="485.5,-297 485.5,-316 624.5,-316 624.5,-297 485.5,-297"/>
<text text-anchor="middle" x="555" y="-304" font-family="Helvetica,sans-Serif" font-size="10.00">core/simulation_backup.h</text>
</a>
</g>
</g>
<!-- Node1&#45;&gt;Node48 -->
<g id="edge155" class="edge"><title>Node1&#45;&gt;Node48</title>
<path fill="none" stroke="midnightblue" d="M961.677,-623.556C879.024,-621.816 719.439,-613.892 677,-579 651.432,-557.98 653,-541.599 653,-508.5 653,-508.5 653,-508.5 653,-439.5 653,-388.285 604.853,-344.014 576.054,-322.115"/>
<polygon fill="midnightblue" stroke="midnightblue" points="577.941,-319.159 567.812,-316.054 573.794,-324.798 577.941,-319.159"/>
</g>
<!-- Node49 -->
<g id="node49" class="node"><title>Node49</title>
<g id="a_node49"><a xlink:href="catalyst__adaptor_8h.html" target="_top" xlink:title="core/visualization\l/catalyst_adaptor.h">
<polygon fill="white" stroke="black" points="3327,-224.5 3327,-254.5 3435,-254.5 3435,-224.5 3327,-224.5"/>
<text text-anchor="start" x="3335" y="-242.5" font-family="Helvetica,sans-Serif" font-size="10.00">core/visualization</text>
<text text-anchor="middle" x="3381" y="-231.5" font-family="Helvetica,sans-Serif" font-size="10.00">/catalyst_adaptor.h</text>
</a>
</g>
</g>
<!-- Node1&#45;&gt;Node49 -->
<g id="edge163" class="edge"><title>Node1&#45;&gt;Node49</title>
<path fill="none" stroke="midnightblue" d="M1062.11,-624.236C1402.25,-625.516 3359,-627.7 3359,-508.5 3359,-508.5 3359,-508.5 3359,-372.5 3359,-334.316 3368.07,-290.753 3374.56,-264.457"/>
<polygon fill="midnightblue" stroke="midnightblue" points="3377.99,-265.185 3377.07,-254.63 3371.2,-263.455 3377.99,-265.185"/>
</g>
<!-- Node50 -->
<g id="node50" class="node"><title>Node50</title>
<g id="a_node50"><a xlink:href="root__adaptor_8h.html" target="_top" xlink:title="core/visualization\l/root_adaptor.h">
<polygon fill="white" stroke="red" points="1721.5,-425.5 1721.5,-455.5 1820.5,-455.5 1820.5,-425.5 1721.5,-425.5"/>
<text text-anchor="start" x="1729.5" y="-443.5" font-family="Helvetica,sans-Serif" font-size="10.00">core/visualization</text>
<text text-anchor="middle" x="1771" y="-432.5" font-family="Helvetica,sans-Serif" font-size="10.00">/root_adaptor.h</text>
</a>
</g>
</g>
<!-- Node1&#45;&gt;Node50 -->
<g id="edge167" class="edge"><title>Node1&#45;&gt;Node50</title>
<path fill="none" stroke="midnightblue" d="M1062.16,-622.739C1140.04,-619.833 1294.25,-610.28 1421,-579 1539.16,-549.838 1670.84,-490.229 1733.68,-459.984"/>
<polygon fill="midnightblue" stroke="midnightblue" points="1735.33,-463.075 1742.81,-455.566 1732.28,-456.775 1735.33,-463.075"/>
</g>
<!-- Node2&#45;&gt;Node3 -->
<g id="edge2" class="edge"><title>Node2&#45;&gt;Node3</title>
<path fill="none" stroke="midnightblue" d="M329.514,-296.734C312.945,-285.964 284.615,-267.55 264.907,-254.739"/>
<polygon fill="midnightblue" stroke="midnightblue" points="266.565,-251.643 256.273,-249.127 262.75,-257.512 266.565,-251.643"/>
</g>
<!-- Node4 -->
<g id="node4" class="node"><title>Node4</title>
<polygon fill="white" stroke="#bfbfbf" points="521.5,-168.5 521.5,-187.5 584.5,-187.5 584.5,-168.5 521.5,-168.5"/>
<text text-anchor="middle" x="553" y="-175.5" font-family="Helvetica,sans-Serif" font-size="10.00">functional</text>
</g>
<!-- Node2&#45;&gt;Node4 -->
<g id="edge3" class="edge"><title>Node2&#45;&gt;Node4</title>
<path fill="none" stroke="midnightblue" d="M341.118,-296.57C338.19,-279.989 334.63,-244.29 353,-224 373.827,-200.997 459.075,-188.453 511.32,-182.792"/>
<polygon fill="midnightblue" stroke="midnightblue" points="511.717,-186.269 521.3,-181.75 510.991,-179.307 511.717,-186.269"/>
</g>
<!-- Node5 -->
<g id="node5" class="node"><title>Node5</title>
<polygon fill="white" stroke="#bfbfbf" points="2308,-168.5 2308,-187.5 2340,-187.5 2340,-168.5 2308,-168.5"/>
<text text-anchor="middle" x="2324" y="-175.5" font-family="Helvetica,sans-Serif" font-size="10.00">set</text>
</g>
<!-- Node2&#45;&gt;Node5 -->
<g id="edge4" class="edge"><title>Node2&#45;&gt;Node5</title>
<path fill="none" stroke="midnightblue" d="M390.645,-299.645C415.966,-296.7 447.638,-293.282 476,-291 782.979,-266.301 861.375,-283.771 1168,-255 1269.82,-245.446 1294.16,-233.374 1396,-224 1752,-191.229 2187.16,-181.472 2297.57,-179.443"/>
<polygon fill="midnightblue" stroke="midnightblue" points="2297.85,-182.939 2307.78,-179.261 2297.72,-175.94 2297.85,-182.939"/>
</g>
<!-- Node2&#45;&gt;Node6 -->
<g id="edge5" class="edge"><title>Node2&#45;&gt;Node6</title>
<path fill="none" stroke="midnightblue" d="M337.237,-296.715C324.687,-276.71 296,-225.857 296,-179 296,-179 296,-179 296,-121 296,-54.3137 529.072,-23.3201 615.906,-14.087"/>
<polygon fill="midnightblue" stroke="midnightblue" points="616.394,-17.5553 625.981,-13.0442 615.674,-10.5925 616.394,-17.5553"/>
</g>
<!-- Node7 -->
<g id="node7" class="node"><title>Node7</title>
<polygon fill="white" stroke="#bfbfbf" points="1527.5,-168.5 1527.5,-187.5 1574.5,-187.5 1574.5,-168.5 1527.5,-168.5"/>
<text text-anchor="middle" x="1551" y="-175.5" font-family="Helvetica,sans-Serif" font-size="10.00">vector</text>
</g>
<!-- Node2&#45;&gt;Node7 -->
<g id="edge6" class="edge"><title>Node2&#45;&gt;Node7</title>
<path fill="none" stroke="midnightblue" d="M374.219,-296.909C438.031,-279.748 588.25,-241.387 717,-224 1025.69,-182.313 1403.58,-178.901 1517.17,-178.883"/>
<polygon fill="midnightblue" stroke="midnightblue" points="1517.32,-182.383 1527.32,-178.89 1517.32,-175.383 1517.32,-182.383"/>
</g>
<!-- Node8 -->
<g id="node8" class="node"><title>Node8</title>
<g id="a_node8"><a xlink:href="operation_8h.html" target="_top" xlink:title="core/operation/operation.h">
<polygon fill="white" stroke="black" points="362,-230 362,-249 506,-249 506,-230 362,-230"/>
<text text-anchor="middle" x="434" y="-237" font-family="Helvetica,sans-Serif" font-size="10.00">core/operation/operation.h</text>
</a>
</g>
</g>
<!-- Node2&#45;&gt;Node8 -->
<g id="edge7" class="edge"><title>Node2&#45;&gt;Node8</title>
<path fill="none" stroke="midnightblue" d="M355.273,-296.734C370.145,-286.111 395.432,-268.049 413.33,-255.264"/>
<polygon fill="midnightblue" stroke="midnightblue" points="415.819,-257.788 421.922,-249.127 411.75,-252.092 415.819,-257.788"/>
</g>
<!-- Node8&#45;&gt;Node4 -->
<g id="edge8" class="edge"><title>Node8&#45;&gt;Node4</title>
<path fill="none" stroke="midnightblue" d="M451.05,-229.975C470.844,-220.078 503.717,-203.642 526.77,-192.115"/>
<polygon fill="midnightblue" stroke="midnightblue" points="528.603,-195.112 535.982,-187.509 525.472,-188.851 528.603,-195.112"/>
</g>
<!-- Node8&#45;&gt;Node6 -->
<g id="edge9" class="edge"><title>Node8&#45;&gt;Node6</title>
<path fill="none" stroke="midnightblue" d="M442.128,-229.86C474.04,-195.935 591.055,-71.5375 632.953,-26.9967"/>
<polygon fill="midnightblue" stroke="midnightblue" points="635.562,-29.3311 639.864,-19.6491 630.463,-24.5349 635.562,-29.3311"/>
</g>
<!-- Node10&#45;&gt;Node4 -->
<g id="edge15" class="edge"><title>Node10&#45;&gt;Node4</title>
<path fill="none" stroke="midnightblue" d="M1022.75,-367.756C866.803,-356.167 480.602,-326.998 476,-322 466.668,-311.864 470.474,-303.621 476,-291 485.461,-269.391 500.827,-273.857 515,-255 528.668,-236.814 539.659,-212.958 546.238,-196.864"/>
<polygon fill="midnightblue" stroke="midnightblue" points="549.5,-198.132 549.908,-187.545 542.987,-195.567 549.5,-198.132"/>
</g>
<!-- Node10&#45;&gt;Node7 -->
<g id="edge17" class="edge"><title>Node10&#45;&gt;Node7</title>
<path fill="none" stroke="midnightblue" d="M1151.21,-364.523C1205.66,-356.48 1278.14,-342.336 1299,-322 1331.27,-290.545 1292.15,-254.848 1325,-224 1352.4,-198.271 1461.32,-186.069 1517.34,-181.397"/>
<polygon fill="midnightblue" stroke="midnightblue" points="1517.79,-184.873 1527.47,-180.586 1517.23,-177.895 1517.79,-184.873"/>
</g>
<!-- Node10&#45;&gt;Node8 -->
<g id="edge18" class="edge"><title>Node10&#45;&gt;Node8</title>
<path fill="none" stroke="midnightblue" d="M1022.91,-368.55C862.064,-358.495 453.346,-332.022 443,-322 426.497,-306.012 427.227,-277.784 430.019,-259.108"/>
<polygon fill="midnightblue" stroke="midnightblue" points="433.485,-259.61 431.838,-249.144 426.599,-258.353 433.485,-259.61"/>
</g>
<!-- Node11 -->
<g id="node11" class="node"><title>Node11</title>
<polygon fill="white" stroke="#bfbfbf" points="931,-291.5 931,-321.5 1073,-321.5 1073,-291.5 931,-291.5"/>
<text text-anchor="start" x="939" y="-309.5" font-family="Helvetica,sans-Serif" font-size="10.00">tbb/concurrent_unordered</text>
<text text-anchor="middle" x="1002" y="-298.5" font-family="Helvetica,sans-Serif" font-size="10.00">_map.h</text>
</g>
<!-- Node10&#45;&gt;Node11 -->
<g id="edge14" class="edge"><title>Node10&#45;&gt;Node11</title>
<path fill="none" stroke="midnightblue" d="M1068.56,-358.396C1056.86,-349.452 1041.54,-337.737 1028.55,-327.802"/>
<polygon fill="midnightblue" stroke="midnightblue" points="1030.48,-324.871 1020.41,-321.577 1026.23,-330.431 1030.48,-324.871"/>
</g>
<!-- Node12 -->
<g id="node12" class="node"><title>Node12</title>
<polygon fill="white" stroke="#bfbfbf" points="871,-297 871,-316 913,-316 913,-297 871,-297"/>
<text text-anchor="middle" x="892" y="-304" font-family="Helvetica,sans-Serif" font-size="10.00">utility</text>
</g>
<!-- Node10&#45;&gt;Node12 -->
<g id="edge16" class="edge"><title>Node10&#45;&gt;Node12</title>
<path fill="none" stroke="midnightblue" d="M1033.91,-358.487C1001.21,-349.31 958.676,-336.378 922,-322 920.62,-321.459 919.216,-320.881 917.806,-320.279"/>
<polygon fill="midnightblue" stroke="midnightblue" points="919.168,-317.054 908.617,-316.09 916.265,-323.423 919.168,-317.054"/>
</g>
<!-- Node13 -->
<g id="node13" class="node"><title>Node13</title>
<g id="a_node13"><a xlink:href="so__uid_8h.html" target="_top" xlink:title="core/sim_object/so\l_uid.h">
<polygon fill="white" stroke="red" points="1730.5,-224.5 1730.5,-254.5 1837.5,-254.5 1837.5,-224.5 1730.5,-224.5"/>
<text text-anchor="start" x="1738.5" y="-242.5" font-family="Helvetica,sans-Serif" font-size="10.00">core/sim_object/so</text>
<text text-anchor="middle" x="1784" y="-231.5" font-family="Helvetica,sans-Serif" font-size="10.00">_uid.h</text>
</a>
</g>
</g>
<!-- Node10&#45;&gt;Node13 -->
<g id="edge19" class="edge"><title>Node10&#45;&gt;Node13</title>
<path fill="none" stroke="midnightblue" d="M1151.27,-367.031C1282.56,-355.725 1570.91,-330.158 1591,-322 1611.52,-313.669 1610.51,-301.503 1630,-291 1658.25,-275.777 1691.9,-264.095 1720.52,-255.82"/>
<polygon fill="midnightblue" stroke="midnightblue" points="1721.74,-259.113 1730.42,-253.035 1719.85,-252.374 1721.74,-259.113"/>
</g>
<!-- Node14 -->
<g id="node14" class="node"><title>Node14</title>
<g id="a_node14"><a xlink:href="thread__info_8h.html" target="_top" xlink:title="core/util/thread_info.h">
<polygon fill="white" stroke="red" points="1461.5,-297 1461.5,-316 1582.5,-316 1582.5,-297 1461.5,-297"/>
<text text-anchor="middle" x="1522" y="-304" font-family="Helvetica,sans-Serif" font-size="10.00">core/util/thread_info.h</text>
</a>
</g>
</g>
<!-- Node10&#45;&gt;Node14 -->
<g id="edge20" class="edge"><title>Node10&#45;&gt;Node14</title>
<path fill="none" stroke="midnightblue" d="M1151.19,-362.909C1232.52,-350.756 1372.05,-329.907 1454.79,-317.542"/>
<polygon fill="midnightblue" stroke="midnightblue" points="1455.47,-320.98 1464.84,-316.041 1454.43,-314.057 1455.47,-320.98"/>
</g>
<!-- Node14&#45;&gt;Node7 -->
<g id="edge23" class="edge"><title>Node14&#45;&gt;Node7</title>
<path fill="none" stroke="midnightblue" d="M1523.99,-296.805C1528.65,-276.494 1540.33,-225.553 1546.7,-197.777"/>
<polygon fill="midnightblue" stroke="midnightblue" points="1550.17,-198.285 1548.99,-187.756 1543.35,-196.721 1550.17,-198.285"/>
</g>
<!-- Node15 -->
<g id="node15" class="node"><title>Node15</title>
<polygon fill="white" stroke="#bfbfbf" points="1665.5,-230 1665.5,-249 1712.5,-249 1712.5,-230 1665.5,-230"/>
<text text-anchor="middle" x="1689" y="-237" font-family="Helvetica,sans-Serif" font-size="10.00">omp.h</text>
</g>
<!-- Node14&#45;&gt;Node15 -->
<g id="edge21" class="edge"><title>Node14&#45;&gt;Node15</title>
<path fill="none" stroke="midnightblue" d="M1545.87,-296.942C1572.79,-287.191 1617.79,-270.583 1656,-255 1657.41,-254.424 1658.86,-253.826 1660.31,-253.216"/>
<polygon fill="midnightblue" stroke="midnightblue" points="1662.07,-256.269 1669.88,-249.109 1659.31,-249.837 1662.07,-256.269"/>
</g>
<!-- Node16 -->
<g id="node16" class="node"><title>Node16</title>
<polygon fill="white" stroke="#bfbfbf" points="1405,-230 1405,-249 1459,-249 1459,-230 1405,-230"/>
<text text-anchor="middle" x="1432" y="-237" font-family="Helvetica,sans-Serif" font-size="10.00">sched.h</text>
</g>
<!-- Node14&#45;&gt;Node16 -->
<g id="edge22" class="edge"><title>Node14&#45;&gt;Node16</title>
<path fill="none" stroke="midnightblue" d="M1509.86,-296.734C1495.15,-286.111 1470.14,-268.049 1452.44,-255.264"/>
<polygon fill="midnightblue" stroke="midnightblue" points="1454.1,-252.145 1443.95,-249.127 1450,-257.82 1454.1,-252.145"/>
</g>
<!-- Node14&#45;&gt;Node17 -->
<g id="edge24" class="edge"><title>Node14&#45;&gt;Node17</title>
<path fill="none" stroke="midnightblue" d="M1518.26,-296.824C1508.67,-273.041 1486.07,-206.051 1518,-168 1584.63,-88.5981 1912.69,-71.5942 2040.19,-67.9728"/>
<polygon fill="midnightblue" stroke="midnightblue" points="2040.56,-71.4644 2050.46,-67.698 2040.37,-64.4669 2040.56,-71.4644"/>
</g>
<!-- Node17&#45;&gt;Node6 -->
<g id="edge26" class="edge"><title>Node17&#45;&gt;Node6</title>
<path fill="none" stroke="midnightblue" d="M2050.45,-58.1668C2044.29,-57.3155 2037.98,-56.5517 2032,-56 1493.14,-6.31757 831.871,-9.21383 680.076,-10.637"/>
<polygon fill="midnightblue" stroke="midnightblue" points="680.001,-7.13748 670.036,-10.7362 680.07,-14.1371 680.001,-7.13748"/>
</g>
<!-- Node17&#45;&gt;Node9 -->
<g id="edge25" class="edge"><title>Node17&#45;&gt;Node9</title>
<path fill="none" stroke="midnightblue" d="M2131.69,-63.3985C2335.42,-55.38 3242.27,-19.6878 3429.22,-12.3295"/>
<polygon fill="midnightblue" stroke="midnightblue" points="3429.43,-15.8241 3439.28,-11.9334 3429.15,-8.8295 3429.43,-15.8241"/>
</g>
<!-- Node18&#45;&gt;Node6 -->
<g id="edge31" class="edge"><title>Node18&#45;&gt;Node6</title>
<path fill="none" stroke="midnightblue" d="M1184.23,-296.967C1173.67,-294.981 1162.44,-292.895 1152,-291 1060.55,-274.4 1018.7,-312.909 946,-255 917.333,-232.165 914,-215.65 914,-179 914,-179 914,-179 914,-121 914,-20.9423 751.286,-10.1104 680.381,-10.1404"/>
<polygon fill="midnightblue" stroke="midnightblue" points="680.194,-6.64163 670.221,-10.2202 680.249,-13.6414 680.194,-6.64163"/>
</g>
<!-- Node18&#45;&gt;Node7 -->
<g id="edge32" class="edge"><title>Node18&#45;&gt;Node7</title>
<path fill="none" stroke="midnightblue" d="M1232.42,-296.89C1239.68,-279.868 1258.32,-242.005 1287,-224 1324.88,-200.224 1454.9,-186.77 1517.2,-181.551"/>
<polygon fill="midnightblue" stroke="midnightblue" points="1517.62,-185.029 1527.3,-180.728 1517.05,-178.052 1517.62,-185.029"/>
</g>
<!-- Node18&#45;&gt;Node9 -->
<g id="edge28" class="edge"><title>Node18&#45;&gt;Node9</title>
<path fill="none" stroke="midnightblue" d="M1290.96,-300.69C1335.69,-297.408 1397.54,-293.262 1452,-291 1507.29,-288.704 3400.69,-289.451 3444,-255 3471.25,-233.326 3463,-213.817 3463,-179 3463,-179 3463,-179 3463,-121 3463,-88.948 3463,-51.6426 3463,-29.7489"/>
<polygon fill="midnightblue" stroke="midnightblue" points="3466.5,-29.5577 3463,-19.5578 3459.5,-29.5578 3466.5,-29.5577"/>
</g>
<!-- Node18&#45;&gt;Node17 -->
<g id="edge55" class="edge"><title>Node18&#45;&gt;Node17</title>
<path fill="none" stroke="midnightblue" d="M1224.14,-296.673C1208.13,-266.265 1160.8,-164.83 1211,-112 1239.7,-81.7945 1857.07,-70.4073 2040.22,-67.6865"/>
<polygon fill="midnightblue" stroke="midnightblue" points="2040.44,-71.1838 2050.39,-67.5378 2040.34,-64.1845 2040.44,-71.1838"/>
</g>
<!-- Node19 -->
<g id="node19" class="node"><title>Node19</title>
<polygon fill="white" stroke="#bfbfbf" points="955,-230 955,-249 1009,-249 1009,-230 955,-230"/>
<text text-anchor="middle" x="982" y="-237" font-family="Helvetica,sans-Serif" font-size="10.00">fstream</text>
</g>
<!-- Node18&#45;&gt;Node19 -->
<g id="edge29" class="edge"><title>Node18&#45;&gt;Node19</title>
<path fill="none" stroke="midnightblue" d="M1184.84,-296.919C1141.78,-288.089 1074.7,-273.093 1018,-255 1015.73,-254.274 1013.39,-253.471 1011.06,-252.627"/>
<polygon fill="midnightblue" stroke="midnightblue" points="1012.2,-249.319 1001.61,-249.011 1009.7,-255.856 1012.2,-249.319"/>
</g>
<!-- Node20 -->
<g id="node20" class="node"><title>Node20</title>
<polygon fill="white" stroke="#bfbfbf" points="1591,-230 1591,-249 1647,-249 1647,-230 1591,-230"/>
<text text-anchor="middle" x="1619" y="-237" font-family="Helvetica,sans-Serif" font-size="10.00">sstream</text>
</g>
<!-- Node18&#45;&gt;Node20 -->
<g id="edge30" class="edge"><title>Node18&#45;&gt;Node20</title>
<path fill="none" stroke="midnightblue" d="M1280.39,-296.936C1359.67,-283.721 1510.04,-258.66 1580.61,-246.898"/>
<polygon fill="midnightblue" stroke="midnightblue" points="1581.54,-250.292 1590.83,-245.195 1580.39,-243.387 1581.54,-250.292"/>
</g>
<!-- Node21 -->
<g id="node21" class="node"><title>Node21</title>
<g id="a_node21"><a xlink:href="opencl__state_8h.html" target="_top" xlink:title="core/gpu/opencl_state.h">
<polygon fill="white" stroke="black" points="1027,-230 1027,-249 1159,-249 1159,-230 1027,-230"/>
<text text-anchor="middle" x="1093" y="-237" font-family="Helvetica,sans-Serif" font-size="10.00">core/gpu/opencl_state.h</text>
</a>
</g>
</g>
<!-- Node18&#45;&gt;Node21 -->
<g id="edge33" class="edge"><title>Node18&#45;&gt;Node21</title>
<path fill="none" stroke="midnightblue" d="M1210.94,-296.869C1187.77,-285.796 1147.37,-266.486 1120.4,-253.598"/>
<polygon fill="midnightblue" stroke="midnightblue" points="1121.67,-250.322 1111.13,-249.167 1118.65,-256.637 1121.67,-250.322"/>
</g>
<!-- Node18&#45;&gt;Node22 -->
<g id="edge34" class="edge"><title>Node18&#45;&gt;Node22</title>
<path fill="none" stroke="midnightblue" d="M1290.97,-300.989C1335.71,-297.851 1397.56,-293.752 1452,-291 1894.83,-268.613 2006,-273.884 2449,-255 2526.73,-251.687 2615.94,-247.207 2675.73,-244.108"/>
<polygon fill="midnightblue" stroke="midnightblue" points="2675.99,-247.599 2685.8,-243.585 2675.63,-240.609 2675.99,-247.599"/>
</g>
<!-- Node18&#45;&gt;Node32 -->
<g id="edge50" class="edge"><title>Node18&#45;&gt;Node32</title>
<path fill="none" stroke="midnightblue" d="M1186.06,-296.941C1175.28,-294.894 1163.73,-292.786 1153,-291 1040.96,-272.352 1012.06,-273.514 900,-255 892.356,-253.737 884.303,-252.318 876.4,-250.876"/>
<polygon fill="midnightblue" stroke="midnightblue" points="876.982,-247.424 866.512,-249.046 875.708,-254.307 876.982,-247.424"/>
</g>
<!-- Node22&#45;&gt;Node5 -->
<g id="edge37" class="edge"><title>Node22&#45;&gt;Node5</title>
<path fill="none" stroke="midnightblue" d="M2685.6,-230.227C2593.15,-217.13 2416.76,-192.141 2350.25,-182.719"/>
<polygon fill="midnightblue" stroke="midnightblue" points="2350.59,-179.232 2340.2,-181.295 2349.61,-186.163 2350.59,-179.232"/>
</g>
<!-- Node22&#45;&gt;Node6 -->
<g id="edge38" class="edge"><title>Node22&#45;&gt;Node6</title>
<path fill="none" stroke="midnightblue" d="M2741.08,-229.788C2732.85,-206.613 2707.13,-143.096 2663,-112 2572.4,-48.1568 2529.95,-69.9216 2420,-56 2064.59,-11 889.94,-10.6313 680.194,-10.9332"/>
<polygon fill="midnightblue" stroke="midnightblue" points="680.132,-7.43324 670.137,-10.9494 680.143,-14.4332 680.132,-7.43324"/>
</g>
<!-- Node22&#45;&gt;Node7 -->
<g id="edge40" class="edge"><title>Node22&#45;&gt;Node7</title>
<path fill="none" stroke="midnightblue" d="M2685.53,-234.423C2640.35,-231.342 2576.23,-227.125 2520,-224 2153.6,-203.635 1708.91,-185.336 1584.66,-180.34"/>
<polygon fill="midnightblue" stroke="midnightblue" points="1584.75,-176.841 1574.62,-179.938 1584.47,-183.836 1584.75,-176.841"/>
</g>
<!-- Node23 -->
<g id="node23" class="node"><title>Node23</title>
<polygon fill="white" stroke="#bfbfbf" points="2762,-168.5 2762,-187.5 2822,-187.5 2822,-168.5 2762,-168.5"/>
<text text-anchor="middle" x="2792" y="-175.5" font-family="Helvetica,sans-Serif" font-size="10.00">cinttypes</text>
</g>
<!-- Node22&#45;&gt;Node23 -->
<g id="edge35" class="edge"><title>Node22&#45;&gt;Node23</title>
<path fill="none" stroke="midnightblue" d="M2750.88,-229.975C2758.15,-220.962 2769.8,-206.525 2778.84,-195.312"/>
<polygon fill="midnightblue" stroke="midnightblue" points="2781.58,-197.49 2785.14,-187.509 2776.13,-193.095 2781.58,-197.49"/>
</g>
<!-- Node24 -->
<g id="node24" class="node"><title>Node24</title>
<polygon fill="white" stroke="#bfbfbf" points="2946.5,-168.5 2946.5,-187.5 3003.5,-187.5 3003.5,-168.5 2946.5,-168.5"/>
<text text-anchor="middle" x="2975" y="-175.5" font-family="Helvetica,sans-Serif" font-size="10.00">memory</text>
</g>
<!-- Node22&#45;&gt;Node24 -->
<g id="edge36" class="edge"><title>Node22&#45;&gt;Node24</title>
<path fill="none" stroke="midnightblue" d="M2777.1,-229.975C2819.23,-219.124 2891.87,-200.411 2936.45,-188.928"/>
<polygon fill="midnightblue" stroke="midnightblue" points="2937.52,-192.267 2946.33,-186.384 2935.78,-185.489 2937.52,-192.267"/>
</g>
<!-- Node25 -->
<g id="node25" class="node"><title>Node25</title>
<polygon fill="white" stroke="#bfbfbf" points="3021.5,-168.5 3021.5,-187.5 3114.5,-187.5 3114.5,-168.5 3021.5,-168.5"/>
<text text-anchor="middle" x="3068" y="-175.5" font-family="Helvetica,sans-Serif" font-size="10.00">unordered_map</text>
</g>
<!-- Node22&#45;&gt;Node25 -->
<g id="edge39" class="edge"><title>Node22&#45;&gt;Node25</title>
<path fill="none" stroke="midnightblue" d="M2790.42,-229.975C2848.77,-219.261 2948.84,-200.882 3011.55,-189.366"/>
<polygon fill="midnightblue" stroke="midnightblue" points="3012.46,-192.758 3021.66,-187.509 3011.2,-185.873 3012.46,-192.758"/>
</g>
<!-- Node26 -->
<g id="node26" class="node"><title>Node26</title>
<g id="a_node26"><a xlink:href="module__param_8h.html" target="_top" xlink:title="core/param/module_param.h">
<polygon fill="white" stroke="black" points="2472.5,-168.5 2472.5,-187.5 2629.5,-187.5 2629.5,-168.5 2472.5,-168.5"/>
<text text-anchor="middle" x="2551" y="-175.5" font-family="Helvetica,sans-Serif" font-size="10.00">core/param/module_param.h</text>
</a>
</g>
</g>
<!-- Node22&#45;&gt;Node26 -->
<g id="edge41" class="edge"><title>Node22&#45;&gt;Node26</title>
<path fill="none" stroke="midnightblue" d="M2716.35,-229.975C2682.81,-219.636 2626.13,-202.161 2588.63,-190.602"/>
<polygon fill="midnightblue" stroke="midnightblue" points="2589.19,-187.111 2578.6,-187.509 2587.13,-193.8 2589.19,-187.111"/>
</g>
<!-- Node27 -->
<g id="node27" class="node"><title>Node27</title>
<g id="a_node27"><a xlink:href="root_8h.html" target="_top" xlink:title="core/util/root.h">
<polygon fill="white" stroke="black" points="2226,-112.5 2226,-131.5 2312,-131.5 2312,-112.5 2226,-112.5"/>
<text text-anchor="middle" x="2269" y="-119.5" font-family="Helvetica,sans-Serif" font-size="10.00">core/util/root.h</text>
</a>
</g>
</g>
<!-- Node22&#45;&gt;Node27 -->
<g id="edge45" class="edge"><title>Node22&#45;&gt;Node27</title>
<path fill="none" stroke="midnightblue" d="M2685.89,-230.581C2628.69,-222.196 2539.11,-207.479 2463,-188 2404.72,-173.084 2338.64,-149.454 2300.59,-135.169"/>
<polygon fill="midnightblue" stroke="midnightblue" points="2301.68,-131.839 2291.09,-131.576 2299.2,-138.387 2301.68,-131.839"/>
</g>
<!-- Node28 -->
<g id="node28" class="node"><title>Node28</title>
<polygon fill="white" stroke="#bfbfbf" points="2547.5,-112.5 2547.5,-131.5 2654.5,-131.5 2654.5,-112.5 2547.5,-112.5"/>
<text text-anchor="middle" x="2601" y="-119.5" font-family="Helvetica,sans-Serif" font-size="10.00">cpptoml/cpptoml.h</text>
</g>
<!-- Node22&#45;&gt;Node28 -->
<g id="edge49" class="edge"><title>Node22&#45;&gt;Node28</title>
<path fill="none" stroke="midnightblue" d="M2733.25,-229.819C2709.13,-210.337 2650.43,-162.925 2620,-138.345"/>
<polygon fill="midnightblue" stroke="midnightblue" points="2621.85,-135.343 2611.87,-131.782 2617.45,-140.788 2621.85,-135.343"/>
</g>
<!-- Node29 -->
<g id="node29" class="node"><title>Node29</title>
<g id="a_node29"><a xlink:href="type_8h.html" target="_top" xlink:title="core/util/type.h">
<polygon fill="white" stroke="red" points="2840,-168.5 2840,-187.5 2928,-187.5 2928,-168.5 2840,-168.5"/>
<text text-anchor="middle" x="2884" y="-175.5" font-family="Helvetica,sans-Serif" font-size="10.00">core/util/type.h</text>
</a>
</g>
</g>
<!-- Node22&#45;&gt;Node29 -->
<g id="edge46" class="edge"><title>Node22&#45;&gt;Node29</title>
<path fill="none" stroke="midnightblue" d="M2764.06,-229.975C2787.76,-219.901 2827.41,-203.053 2854.58,-191.502"/>
<polygon fill="midnightblue" stroke="midnightblue" points="2856.14,-194.642 2863.98,-187.509 2853.41,-188.199 2856.14,-194.642"/>
</g>
<!-- Node26&#45;&gt;Node27 -->
<g id="edge42" class="edge"><title>Node26&#45;&gt;Node27</title>
<path fill="none" stroke="midnightblue" d="M2506.32,-168.444C2456.27,-158.861 2375.22,-143.34 2322.01,-133.151"/>
<polygon fill="midnightblue" stroke="midnightblue" points="2322.57,-129.694 2312.09,-131.251 2321.25,-136.569 2322.57,-129.694"/>
</g>
<!-- Node26&#45;&gt;Node28 -->
<g id="edge44" class="edge"><title>Node26&#45;&gt;Node28</title>
<path fill="none" stroke="midnightblue" d="M2559.26,-168.083C2566.46,-160.298 2577.11,-148.801 2585.85,-139.367"/>
<polygon fill="midnightblue" stroke="midnightblue" points="2588.67,-141.467 2592.9,-131.751 2583.53,-136.711 2588.67,-141.467"/>
</g>
<!-- Node27&#45;&gt;Node17 -->
<g id="edge43" class="edge"><title>Node27&#45;&gt;Node17</title>
<path fill="none" stroke="midnightblue" d="M2240.8,-112.444C2210.59,-103.28 2162.49,-88.6876 2128.97,-78.5192"/>
<polygon fill="midnightblue" stroke="midnightblue" points="2129.66,-75.0703 2119.07,-75.5164 2127.63,-81.7688 2129.66,-75.0703"/>
</g>
<!-- Node30 -->
<g id="node30" class="node"><title>Node30</title>
<polygon fill="white" stroke="#bfbfbf" points="2850,-112.5 2850,-131.5 2918,-131.5 2918,-112.5 2850,-112.5"/>
<text text-anchor="middle" x="2884" y="-119.5" font-family="Helvetica,sans-Serif" font-size="10.00">type_traits</text>
</g>
<!-- Node29&#45;&gt;Node30 -->
<g id="edge47" class="edge"><title>Node29&#45;&gt;Node30</title>
<path fill="none" stroke="midnightblue" d="M2884,-168.083C2884,-161.006 2884,-150.861 2884,-141.986"/>
<polygon fill="midnightblue" stroke="midnightblue" points="2887.5,-141.751 2884,-131.751 2880.5,-141.751 2887.5,-141.751"/>
</g>
<!-- Node31 -->
<g id="node31" class="node"><title>Node31</title>
<g id="a_node31"><a xlink:href="shape_8h.html" target="_top" xlink:title="core/shape.h">
<polygon fill="white" stroke="black" points="3179.5,-112.5 3179.5,-131.5 3258.5,-131.5 3258.5,-112.5 3179.5,-112.5"/>
<text text-anchor="middle" x="3219" y="-119.5" font-family="Helvetica,sans-Serif" font-size="10.00">core/shape.h</text>
</a>
</g>
</g>
<!-- Node29&#45;&gt;Node31 -->
<g id="edge48" class="edge"><title>Node29&#45;&gt;Node31</title>
<path fill="none" stroke="midnightblue" d="M2928.24,-169.454C2931.2,-168.958 2934.15,-168.47 2937,-168 3018.28,-154.614 3112.85,-139.647 3169.22,-130.791"/>
<polygon fill="midnightblue" stroke="midnightblue" points="3169.95,-134.219 3179.28,-129.21 3168.86,-127.303 3169.95,-134.219"/>
</g>
<!-- Node32&#45;&gt;Node4 -->
<g id="edge51" class="edge"><title>Node32&#45;&gt;Node4</title>
<path fill="none" stroke="midnightblue" d="M784.316,-229.975C734.009,-218.889 646.471,-199.598 594.718,-188.193"/>
<polygon fill="midnightblue" stroke="midnightblue" points="595.385,-184.757 584.866,-186.022 593.879,-191.593 595.385,-184.757"/>
</g>
<!-- Node32&#45;&gt;Node6 -->
<g id="edge52" class="edge"><title>Node32&#45;&gt;Node6</title>
<path fill="none" stroke="midnightblue" d="M816.353,-229.86C790.42,-196.146 695.756,-73.0825 660.952,-27.8376"/>
<polygon fill="midnightblue" stroke="midnightblue" points="663.524,-25.4413 654.653,-19.6491 657.976,-29.7094 663.524,-25.4413"/>
</g>
<!-- Node32&#45;&gt;Node7 -->
<g id="edge53" class="edge"><title>Node32&#45;&gt;Node7</title>
<path fill="none" stroke="midnightblue" d="M872.621,-232.157C895.015,-229.421 921.814,-226.324 946,-224 1163.33,-203.117 1425.38,-186.548 1517.23,-180.999"/>
<polygon fill="midnightblue" stroke="midnightblue" points="1517.56,-184.486 1527.33,-180.392 1517.14,-177.499 1517.56,-184.486"/>
</g>
<!-- Node32&#45;&gt;Node27 -->
<g id="edge54" class="edge"><title>Node32&#45;&gt;Node27</title>
<path fill="none" stroke="midnightblue" d="M872.648,-232.421C895.047,-229.737 921.843,-226.606 946,-224 1199.96,-196.601 1263.35,-188.087 1518,-168 1779.27,-147.39 2092.34,-131.443 2215.5,-125.511"/>
<polygon fill="midnightblue" stroke="midnightblue" points="2215.96,-128.993 2225.78,-125.018 2215.63,-122.001 2215.96,-128.993"/>
</g>
<!-- Node33&#45;&gt;Node22 -->
<g id="edge57" class="edge"><title>Node33&#45;&gt;Node22</title>
<path fill="none" stroke="midnightblue" d="M2804.05,-358.336C2815.68,-341.578 2830.79,-313.157 2819,-291 2809.94,-273.972 2792.29,-261.656 2776.4,-253.451"/>
<polygon fill="midnightblue" stroke="midnightblue" points="2777.85,-250.264 2767.32,-249.091 2774.82,-256.574 2777.85,-250.264"/>
</g>
<!-- Node33&#45;&gt;Node32 -->
<g id="edge71" class="edge"><title>Node33&#45;&gt;Node32</title>
<path fill="none" stroke="midnightblue" d="M2733.07,-371.687C2447.25,-367.677 1233.41,-349.11 1158,-322 1136.83,-314.391 1138.61,-299.996 1118,-291 1028,-251.722 996.703,-272.088 900,-255 892.642,-253.7 884.896,-252.29 877.268,-250.877"/>
<polygon fill="midnightblue" stroke="midnightblue" points="877.823,-247.421 867.351,-249.028 876.54,-254.302 877.823,-247.421"/>
</g>
<!-- Node34 -->
<g id="node34" class="node"><title>Node34</title>
<g id="a_node34"><a xlink:href="sim__object_8h.html" target="_top" xlink:title="core/sim_object/sim\l_object.h">
<polygon fill="white" stroke="red" points="2511.5,-291.5 2511.5,-321.5 2624.5,-321.5 2624.5,-291.5 2511.5,-291.5"/>
<text text-anchor="start" x="2519.5" y="-309.5" font-family="Helvetica,sans-Serif" font-size="10.00">core/sim_object/sim</text>
<text text-anchor="middle" x="2568" y="-298.5" font-family="Helvetica,sans-Serif" font-size="10.00">_object.h</text>
</a>
</g>
</g>
<!-- Node33&#45;&gt;Node34 -->
<g id="edge58" class="edge"><title>Node33&#45;&gt;Node34</title>
<path fill="none" stroke="midnightblue" d="M2744.46,-358.476C2709.97,-348.515 2663.49,-335.086 2626.89,-324.512"/>
<polygon fill="midnightblue" stroke="midnightblue" points="2627.42,-321.024 2616.85,-321.611 2625.48,-327.749 2627.42,-321.024"/>
</g>
<!-- Node34&#45;&gt;Node5 -->
<g id="edge62" class="edge"><title>Node34&#45;&gt;Node5</title>
<path fill="none" stroke="midnightblue" d="M2563.62,-291.243C2557.17,-272.74 2543.29,-240.838 2520,-224 2458.82,-179.765 2427.1,-206.861 2354,-188 2352.73,-187.671 2351.43,-187.325 2350.11,-186.966"/>
<polygon fill="midnightblue" stroke="midnightblue" points="2350.71,-183.494 2340.13,-184.09 2348.77,-190.221 2350.71,-183.494"/>
</g>
<!-- Node34&#45;&gt;Node6 -->
<g id="edge64" class="edge"><title>Node34&#45;&gt;Node6</title>
<path fill="none" stroke="midnightblue" d="M2573.36,-291.315C2578.99,-273.756 2585.24,-243.756 2571,-224 2541.42,-182.954 2509.47,-208.01 2463,-188 2397.25,-159.691 2387.05,-139.594 2321,-112 2243.3,-79.5395 2223.06,-69.8396 2140,-56 1845.21,-6.88224 870.494,-9.74307 680.327,-10.7914"/>
<polygon fill="midnightblue" stroke="midnightblue" points="680.129,-7.29241 670.15,-10.85 680.17,-14.2923 680.129,-7.29241"/>
</g>
<!-- Node34&#45;&gt;Node7 -->
<g id="edge67" class="edge"><title>Node34&#45;&gt;Node7</title>
<path fill="none" stroke="midnightblue" d="M2553.35,-291.38C2532.27,-272.082 2491.23,-238.244 2449,-224 2366.03,-196.018 1738.72,-182.519 1584.95,-179.61"/>
<polygon fill="midnightblue" stroke="midnightblue" points="1584.77,-176.106 1574.71,-179.419 1584.64,-183.105 1584.77,-176.106"/>
</g>
<!-- Node34&#45;&gt;Node13 -->
<g id="edge69" class="edge"><title>Node34&#45;&gt;Node13</title>
<path fill="none" stroke="midnightblue" d="M2511.3,-300.799C2369.1,-289.009 1997.98,-258.24 1848.13,-245.817"/>
<polygon fill="midnightblue" stroke="midnightblue" points="1847.99,-242.293 1837.73,-244.955 1847.41,-249.269 1847.99,-242.293"/>
</g>
<!-- Node34&#45;&gt;Node20 -->
<g id="edge63" class="edge"><title>Node34&#45;&gt;Node20</title>
<path fill="none" stroke="midnightblue" d="M2511.37,-300.514C2475.7,-297.485 2428.68,-293.695 2387,-291 2224.7,-280.505 1815.02,-289.119 1656,-255 1652.99,-254.355 1649.91,-253.495 1646.88,-252.515"/>
<polygon fill="midnightblue" stroke="midnightblue" points="1648.05,-249.219 1637.46,-249.089 1645.66,-255.797 1648.05,-249.219"/>
</g>
<!-- Node34&#45;&gt;Node24 -->
<g id="edge61" class="edge"><title>Node34&#45;&gt;Node24</title>
<path fill="none" stroke="midnightblue" d="M2624.57,-296.553C2685.53,-286.418 2778.22,-269.434 2811,-255 2832.56,-245.506 2833.22,-235.095 2854,-224 2880.41,-209.9 2912.21,-198.261 2936.58,-190.355"/>
<polygon fill="midnightblue" stroke="midnightblue" points="2937.72,-193.664 2946.2,-187.303 2935.61,-186.992 2937.72,-193.664"/>
</g>
<!-- Node34&#45;&gt;Node25 -->
<g id="edge66" class="edge"><title>Node34&#45;&gt;Node25</title>
<path fill="none" stroke="midnightblue" d="M2624.55,-298.136C2694.06,-288.589 2807.64,-271.233 2847,-255 2869.45,-245.741 2869.89,-234.053 2892,-224 2930.02,-206.712 2975.8,-195.268 3011.14,-188.248"/>
<polygon fill="midnightblue" stroke="midnightblue" points="3012.12,-191.623 3021.28,-186.297 3010.8,-184.749 3012.12,-191.623"/>
</g>
<!-- Node34&#45;&gt;Node27 -->
<g id="edge70" class="edge"><title>Node34&#45;&gt;Node27</title>
<path fill="none" stroke="midnightblue" d="M2568.71,-291.25C2568.8,-273.055 2566.05,-241.801 2548,-224 2497.34,-174.035 2458.68,-212.831 2392,-188 2372.39,-180.699 2322.99,-153.51 2293.1,-136.695"/>
<polygon fill="midnightblue" stroke="midnightblue" points="2294.57,-133.508 2284.14,-131.639 2291.13,-139.603 2294.57,-133.508"/>
</g>
<!-- Node34&#45;&gt;Node30 -->
<g id="edge65" class="edge"><title>Node34&#45;&gt;Node30</title>
<path fill="none" stroke="midnightblue" d="M2586.68,-291.372C2631.85,-257.239 2743.96,-172.739 2753,-168 2780.85,-153.394 2814.44,-141.966 2840.63,-134.282"/>
<polygon fill="midnightblue" stroke="midnightblue" points="2841.63,-137.637 2850.28,-131.521 2839.7,-130.907 2841.63,-137.637"/>
</g>
<!-- Node34&#45;&gt;Node31 -->
<g id="edge68" class="edge"><title>Node34&#45;&gt;Node31</title>
<path fill="none" stroke="midnightblue" d="M2624.79,-291.819C2626.2,-291.536 2627.61,-291.263 2629,-291 2741.47,-269.742 2778.3,-298.919 2884,-255 2905.1,-246.234 2904.08,-233.182 2925,-224 3006.9,-188.05 3040.19,-221.8 3123,-188 3152.95,-175.777 3183.13,-153.286 3201.44,-138.234"/>
<polygon fill="midnightblue" stroke="midnightblue" points="3204.03,-140.635 3209.43,-131.521 3199.52,-135.276 3204.03,-140.635"/>
</g>
<!-- Node35 -->
<g id="node35" class="node"><title>Node35</title>
<polygon fill="white" stroke="#bfbfbf" points="2378,-230 2378,-249 2440,-249 2440,-230 2378,-230"/>
<text text-anchor="middle" x="2409" y="-237" font-family="Helvetica,sans-Serif" font-size="10.00">algorithm</text>
</g>
<!-- Node34&#45;&gt;Node35 -->
<g id="edge59" class="edge"><title>Node34&#45;&gt;Node35</title>
<path fill="none" stroke="midnightblue" d="M2533.5,-291.396C2505.35,-279.89 2465.99,-263.797 2439.11,-252.807"/>
<polygon fill="midnightblue" stroke="midnightblue" points="2440.39,-249.551 2429.81,-249.007 2437.74,-256.031 2440.39,-249.551"/>
</g>
<!-- Node36 -->
<g id="node36" class="node"><title>Node36</title>
<polygon fill="white" stroke="#bfbfbf" points="2934,-230 2934,-249 2976,-249 2976,-230 2934,-230"/>
<text text-anchor="middle" x="2955" y="-237" font-family="Helvetica,sans-Serif" font-size="10.00">limits</text>
</g>
<!-- Node34&#45;&gt;Node36 -->
<g id="edge60" class="edge"><title>Node34&#45;&gt;Node36</title>
<path fill="none" stroke="midnightblue" d="M2624.82,-297.726C2720.78,-284.544 2905.93,-258.857 2920,-255 2922.44,-254.33 2924.94,-253.534 2927.43,-252.665"/>
<polygon fill="midnightblue" stroke="midnightblue" points="2928.7,-255.923 2936.78,-249.06 2926.19,-249.391 2928.7,-255.923"/>
</g>
<!-- Node37&#45;&gt;Node6 -->
<g id="edge73" class="edge"><title>Node37&#45;&gt;Node6</title>
<path fill="none" stroke="midnightblue" d="M1196.37,-504.283C979.23,-497.115 369.747,-470.115 189,-389 113.335,-355.043 76,-323.435 76,-240.5 76,-240.5 76,-240.5 76,-121 76,-86.8442 87.8155,-73.745 117,-56 159.603,-30.0959 506.984,-15.9091 615.641,-12.0743"/>
<polygon fill="midnightblue" stroke="midnightblue" points="615.809,-15.5706 625.682,-11.7256 615.566,-8.57486 615.809,-15.5706"/>
</g>
<!-- Node37&#45;&gt;Node7 -->
<g id="edge75" class="edge"><title>Node37&#45;&gt;Node7</title>
<path fill="none" stroke="midnightblue" d="M1274.97,-497.992C1279.79,-459.651 1304.77,-301.447 1396,-224 1430.56,-194.664 1483.33,-184.435 1517.5,-180.879"/>
<polygon fill="midnightblue" stroke="midnightblue" points="1517.82,-184.364 1527.47,-179.975 1517.19,-177.392 1517.82,-184.364"/>
</g>
<!-- Node37&#45;&gt;Node12 -->
<g id="edge74" class="edge"><title>Node37&#45;&gt;Node12</title>
<path fill="none" stroke="midnightblue" d="M1235.92,-497.959C1175.13,-483.057 1054.13,-448.124 967,-389 940.985,-371.346 917.608,-342.998 904.11,-324.818"/>
<polygon fill="midnightblue" stroke="midnightblue" points="906.684,-322.404 897.991,-316.347 901.01,-326.503 906.684,-322.404"/>
</g>
<!-- Node37&#45;&gt;Node22 -->
<g id="edge123" class="edge"><title>Node37&#45;&gt;Node22</title>
<path fill="none" stroke="midnightblue" d="M1351.84,-504.573C1557.59,-499.173 2112.42,-482.527 2294,-456 2482.02,-428.531 2563.74,-454.443 2700,-322 2718.42,-304.096 2730.98,-276.801 2737.83,-258.806"/>
<polygon fill="midnightblue" stroke="midnightblue" points="2741.19,-259.794 2741.28,-249.2 2734.6,-257.43 2741.19,-259.794"/>
</g>
<!-- Node37&#45;&gt;Node32 -->
<g id="edge125" class="edge"><title>Node37&#45;&gt;Node32</title>
<path fill="none" stroke="midnightblue" d="M1203.01,-497.979C1117.82,-485.17 973.177,-455.017 867,-389 828.76,-365.224 809.531,-363.04 791,-322 781.077,-300.024 795.737,-273.991 808.326,-257.366"/>
<polygon fill="midnightblue" stroke="midnightblue" points="811.375,-259.161 814.937,-249.183 805.93,-254.762 811.375,-259.161"/>
</g>
<!-- Node38 -->
<g id="node38" class="node"><title>Node38</title>
<g id="a_node38"><a xlink:href="inline__vector_8h.html" target="_top" xlink:title="core/container/inline\l_vector.h">
<polygon fill="white" stroke="red" points="2265.5,-291.5 2265.5,-321.5 2378.5,-321.5 2378.5,-291.5 2265.5,-291.5"/>
<text text-anchor="start" x="2273.5" y="-309.5" font-family="Helvetica,sans-Serif" font-size="10.00">core/container/inline</text>
<text text-anchor="middle" x="2322" y="-298.5" font-family="Helvetica,sans-Serif" font-size="10.00">_vector.h</text>
</a>
</g>
</g>
<!-- Node37&#45;&gt;Node38 -->
<g id="edge76" class="edge"><title>Node37&#45;&gt;Node38</title>
<path fill="none" stroke="midnightblue" d="M1351.91,-504.36C1459.93,-500.274 1660.88,-488.621 1829,-456 1996.51,-423.496 2188.33,-356.896 2275.06,-325.123"/>
<polygon fill="midnightblue" stroke="midnightblue" points="2276.44,-328.346 2284.61,-321.608 2274.02,-321.776 2276.44,-328.346"/>
</g>
<!-- Node39 -->
<g id="node39" class="node"><title>Node39</title>
<g id="a_node39"><a xlink:href="diffusion__grid_8h.html" target="_top" xlink:title="core/diffusion_grid.h">
<polygon fill="white" stroke="red" points="1943.5,-297 1943.5,-316 2056.5,-316 2056.5,-297 1943.5,-297"/>
<text text-anchor="middle" x="2000" y="-304" font-family="Helvetica,sans-Serif" font-size="10.00">core/diffusion_grid.h</text>
</a>
</g>
</g>
<!-- Node37&#45;&gt;Node39 -->
<g id="edge83" class="edge"><title>Node37&#45;&gt;Node39</title>
<path fill="none" stroke="midnightblue" d="M1277.65,-497.926C1285.36,-480.969 1304.98,-443.217 1334,-425 1433.54,-362.512 1784.68,-325.901 1933.05,-312.908"/>
<polygon fill="midnightblue" stroke="midnightblue" points="1933.71,-316.364 1943.37,-312.013 1933.11,-309.39 1933.71,-316.364"/>
</g>
<!-- Node41 -->
<g id="node41" class="node"><title>Node41</title>
<g id="a_node41"><a xlink:href="grid_8h.html" target="_top" xlink:title="core/grid.h">
<polygon fill="white" stroke="red" points="2217,-431 2217,-450 2285,-450 2285,-431 2217,-431"/>
<text text-anchor="middle" x="2251" y="-438" font-family="Helvetica,sans-Serif" font-size="10.00">core/grid.h</text>
</a>
</g>
</g>
<!-- Node37&#45;&gt;Node41 -->
<g id="edge92" class="edge"><title>Node37&#45;&gt;Node41</title>
<path fill="none" stroke="midnightblue" d="M1351.89,-501.318C1547.24,-488.321 2053.31,-454.652 2206.45,-444.464"/>
<polygon fill="midnightblue" stroke="midnightblue" points="2207.11,-447.928 2216.85,-443.772 2206.64,-440.943 2207.11,-447.928"/>
</g>
<!-- Node37&#45;&gt;Node42 -->
<g id="edge124" class="edge"><title>Node37&#45;&gt;Node42</title>
<path fill="none" stroke="midnightblue" d="M1283.29,-497.805C1302.23,-480.63 1347.42,-442.505 1393,-425 1490.75,-387.463 1611.98,-377.031 1690.38,-374.541"/>
<polygon fill="midnightblue" stroke="midnightblue" points="1690.78,-378.032 1700.68,-374.252 1690.58,-371.034 1690.78,-378.032"/>
</g>
<!-- Node38&#45;&gt;Node7 -->
<g id="edge80" class="edge"><title>Node38&#45;&gt;Node7</title>
<path fill="none" stroke="midnightblue" d="M2314.88,-291.224C2304.46,-272.072 2283.08,-238.763 2254,-224 2194,-193.547 1717.67,-182.197 1585.12,-179.611"/>
<polygon fill="midnightblue" stroke="midnightblue" points="1584.84,-176.105 1574.78,-179.413 1584.71,-183.104 1584.84,-176.105"/>
</g>
<!-- Node38&#45;&gt;Node17 -->
<g id="edge81" class="edge"><title>Node38&#45;&gt;Node17</title>
<path fill="none" stroke="midnightblue" d="M2318.05,-291.452C2312.75,-274.3 2302.1,-244.986 2286,-224 2236.4,-159.354 2154.87,-105.195 2114.78,-80.8308"/>
<polygon fill="midnightblue" stroke="midnightblue" points="2116.35,-77.6918 2105.97,-75.5556 2112.75,-83.6969 2116.35,-77.6918"/>
</g>
<!-- Node38&#45;&gt;Node20 -->
<g id="edge79" class="edge"><title>Node38&#45;&gt;Node20</title>
<path fill="none" stroke="midnightblue" d="M2265.39,-302.175C2115.29,-293.224 1714.61,-268.388 1656,-255 1653.16,-254.352 1650.26,-253.523 1647.38,-252.592"/>
<polygon fill="midnightblue" stroke="midnightblue" points="1648.45,-249.259 1637.86,-249.139 1646.07,-255.84 1648.45,-249.259"/>
</g>
<!-- Node38&#45;&gt;Node27 -->
<g id="edge82" class="edge"><title>Node38&#45;&gt;Node27</title>
<path fill="none" stroke="midnightblue" d="M2325.76,-291.234C2329.45,-274.622 2333.53,-246.578 2326,-224 2319.68,-205.026 2309.25,-205.175 2299,-188 2289.96,-172.841 2281.71,-154.495 2276.17,-141.164"/>
<polygon fill="midnightblue" stroke="midnightblue" points="2279.33,-139.658 2272.33,-131.705 2272.84,-142.288 2279.33,-139.658"/>
</g>
<!-- Node38&#45;&gt;Node35 -->
<g id="edge77" class="edge"><title>Node38&#45;&gt;Node35</title>
<path fill="none" stroke="midnightblue" d="M2340.88,-291.396C2355.11,-280.759 2374.6,-266.203 2389.08,-255.381"/>
<polygon fill="midnightblue" stroke="midnightblue" points="2391.45,-257.984 2397.36,-249.195 2387.26,-252.376 2391.45,-257.984"/>
</g>
<!-- Node38&#45;&gt;Node36 -->
<g id="edge78" class="edge"><title>Node38&#45;&gt;Node36</title>
<path fill="none" stroke="midnightblue" d="M2378.73,-299.674C2508.44,-286.356 2823.19,-254.035 2923.64,-243.72"/>
<polygon fill="midnightblue" stroke="midnightblue" points="2924.16,-247.186 2933.75,-242.682 2923.44,-240.222 2924.16,-247.186"/>
</g>
<!-- Node39&#45;&gt;Node4 -->
<g id="edge86" class="edge"><title>Node39&#45;&gt;Node4</title>
<path fill="none" stroke="midnightblue" d="M1988.41,-296.957C1963.73,-279.344 1903.58,-239.364 1846,-224 1722.95,-191.163 803.019,-181.189 594.808,-179.341"/>
<polygon fill="midnightblue" stroke="midnightblue" points="594.632,-175.839 584.601,-179.252 594.57,-182.839 594.632,-175.839"/>
</g>
<!-- Node39&#45;&gt;Node6 -->
<g id="edge87" class="edge"><title>Node39&#45;&gt;Node6</title>
<path fill="none" stroke="midnightblue" d="M2002.06,-296.97C2006.79,-276.665 2018,-223.81 2018,-179 2018,-179 2018,-179 2018,-121 2018,-51.6268 887.12,-17.5108 680.278,-11.8511"/>
<polygon fill="midnightblue" stroke="midnightblue" points="680.166,-8.34683 670.074,-11.5746 679.976,-15.3443 680.166,-8.34683"/>
</g>
<!-- Node39&#45;&gt;Node7 -->
<g id="edge88" class="edge"><title>Node39&#45;&gt;Node7</title>
<path fill="none" stroke="midnightblue" d="M1998.12,-296.809C1993.92,-279.641 1982,-241.528 1956,-224 1895.67,-183.324 1670.8,-178.962 1584.77,-178.818"/>
<polygon fill="midnightblue" stroke="midnightblue" points="1584.52,-175.318 1574.52,-178.82 1584.52,-182.318 1584.52,-175.318"/>
</g>
<!-- Node39&#45;&gt;Node17 -->
<g id="edge91" class="edge"><title>Node39&#45;&gt;Node17</title>
<path fill="none" stroke="midnightblue" d="M2006.4,-296.959C2013.45,-287.223 2024.75,-270.629 2032,-255 2046.44,-223.875 2074.48,-126.086 2085.94,-85.2252"/>
<polygon fill="midnightblue" stroke="midnightblue" points="2089.33,-86.0898 2088.65,-75.517 2082.59,-84.2077 2089.33,-86.0898"/>
</g>
<!-- Node39&#45;&gt;Node22 -->
<g id="edge90" class="edge"><title>Node39&#45;&gt;Node22</title>
<path fill="none" stroke="midnightblue" d="M2056.53,-300.561C2191.07,-288.807 2529.87,-259.207 2675.61,-246.475"/>
<polygon fill="midnightblue" stroke="midnightblue" points="2676.11,-249.945 2685.76,-245.588 2675.5,-242.972 2676.11,-249.945"/>
</g>
<!-- Node39&#45;&gt;Node27 -->
<g id="edge89" class="edge"><title>Node39&#45;&gt;Node27</title>
<path fill="none" stroke="midnightblue" d="M2012.61,-296.942C2055.33,-267.964 2194.81,-173.333 2248.07,-137.199"/>
<polygon fill="midnightblue" stroke="midnightblue" points="2250.1,-140.05 2256.41,-131.539 2246.17,-134.257 2250.1,-140.05"/>
</g>
<!-- Node39&#45;&gt;Node35 -->
<g id="edge84" class="edge"><title>Node39&#45;&gt;Node35</title>
<path fill="none" stroke="midnightblue" d="M2053.89,-296.936C2136.76,-283.766 2293.67,-258.829 2367.99,-247.018"/>
<polygon fill="midnightblue" stroke="midnightblue" points="2368.59,-250.467 2377.91,-245.441 2367.49,-243.554 2368.59,-250.467"/>
</g>
<!-- Node40 -->
<g id="node40" class="node"><title>Node40</title>
<polygon fill="white" stroke="#bfbfbf" points="2198.5,-230 2198.5,-249 2245.5,-249 2245.5,-230 2198.5,-230"/>
<text text-anchor="middle" x="2222" y="-237" font-family="Helvetica,sans-Serif" font-size="10.00">cmath</text>
</g>
<!-- Node39&#45;&gt;Node40 -->
<g id="edge85" class="edge"><title>Node39&#45;&gt;Node40</title>
<path fill="none" stroke="midnightblue" d="M2029.48,-296.869C2070.65,-284.816 2145.15,-263.001 2188.41,-250.335"/>
<polygon fill="midnightblue" stroke="midnightblue" points="2189.57,-253.644 2198.18,-247.475 2187.6,-246.926 2189.57,-253.644"/>
</g>
<!-- Node41&#45;&gt;Node7 -->
<g id="edge99" class="edge"><title>Node41&#45;&gt;Node7</title>
<path fill="none" stroke="midnightblue" d="M2216.99,-434.852C2154.3,-424.714 2019.16,-395.356 1934,-322 1896.32,-289.544 1921,-252.143 1880,-224 1832.55,-191.427 1658.96,-182.29 1584.87,-179.846"/>
<polygon fill="midnightblue" stroke="midnightblue" points="1584.8,-176.342 1574.69,-179.532 1584.58,-183.339 1584.8,-176.342"/>
</g>
<!-- Node41&#45;&gt;Node12 -->
<g id="edge98" class="edge"><title>Node41&#45;&gt;Node12</title>
<path fill="none" stroke="midnightblue" d="M2216.74,-438.235C2018.68,-430.908 1028.63,-394.054 1014,-389 991.732,-381.305 990.488,-371.239 971,-358 952.203,-345.231 930.414,-331.371 914.486,-321.407"/>
<polygon fill="midnightblue" stroke="midnightblue" points="916.191,-318.345 905.852,-316.028 912.489,-324.287 916.191,-318.345"/>
</g>
<!-- Node41&#45;&gt;Node15 -->
<g id="edge93" class="edge"><title>Node41&#45;&gt;Node15</title>
<path fill="none" stroke="midnightblue" d="M2216.87,-436.459C2164.22,-431.05 2060.54,-417.536 1977,-389 1871.91,-353.103 1757.65,-284.27 1710.84,-254.638"/>
<polygon fill="midnightblue" stroke="midnightblue" points="1712.47,-251.523 1702.16,-249.096 1708.7,-257.425 1712.47,-251.523"/>
</g>
<!-- Node41&#45;&gt;Node17 -->
<g id="edge122" class="edge"><title>Node41&#45;&gt;Node17</title>
<path fill="none" stroke="midnightblue" d="M2285.21,-438.808C2427.32,-435.73 2966.85,-421.953 3035,-389 3107.29,-354.046 3322.68,-169.851 3267,-112 3247.2,-91.4297 2365.01,-72.4664 2141.86,-67.9928"/>
<polygon fill="midnightblue" stroke="midnightblue" points="2141.81,-64.4911 2131.74,-67.7908 2141.67,-71.4897 2141.81,-64.4911"/>
</g>
<!-- Node41&#45;&gt;Node22 -->
<g id="edge101" class="edge"><title>Node41&#45;&gt;Node22</title>
<path fill="none" stroke="midnightblue" d="M2285.25,-436.059C2359.65,-427.31 2539.58,-399.169 2667,-322 2694.63,-305.265 2718.8,-275.976 2732.38,-257.443"/>
<polygon fill="midnightblue" stroke="midnightblue" points="2735.38,-259.262 2738.32,-249.083 2729.68,-255.206 2735.38,-259.262"/>
</g>
<!-- Node41&#45;&gt;Node24 -->
<g id="edge97" class="edge"><title>Node41&#45;&gt;Node24</title>
<path fill="none" stroke="midnightblue" d="M2285.28,-439.785C2426.32,-440.618 2956.9,-440.302 3009,-389 3061.37,-337.432 3048.13,-291.902 3020,-224 3015.08,-212.121 3005.33,-201.743 2996.17,-193.956"/>
<polygon fill="midnightblue" stroke="midnightblue" points="2998.08,-191.01 2988.06,-187.564 2993.75,-196.506 2998.08,-191.01"/>
</g>
<!-- Node41&#45;&gt;Node35 -->
<g id="edge94" class="edge"><title>Node41&#45;&gt;Node35</title>
<path fill="none" stroke="midnightblue" d="M2273.56,-430.901C2310.32,-415.497 2381.97,-379.343 2411,-322 2420.96,-302.319 2418.05,-276.393 2414.25,-259.122"/>
<polygon fill="midnightblue" stroke="midnightblue" points="2417.58,-258.019 2411.75,-249.174 2410.8,-259.726 2417.58,-258.019"/>
</g>
<!-- Node41&#45;&gt;Node36 -->
<g id="edge96" class="edge"><title>Node41&#45;&gt;Node36</title>
<path fill="none" stroke="midnightblue" d="M2285.3,-438.434C2406.75,-434.42 2811.63,-418.898 2861,-389 2910.71,-358.895 2938.49,-291.383 2949.45,-258.792"/>
<polygon fill="midnightblue" stroke="midnightblue" points="2952.81,-259.774 2952.53,-249.183 2946.14,-257.637 2952.81,-259.774"/>
</g>
<!-- Node41&#45;&gt;Node38 -->
<g id="edge100" class="edge"><title>Node41&#45;&gt;Node38</title>
<path fill="none" stroke="midnightblue" d="M2255.66,-430.839C2266.46,-410.758 2293.51,-360.468 2309.54,-330.672"/>
<polygon fill="midnightblue" stroke="midnightblue" points="2312.66,-332.248 2314.32,-321.783 2306.5,-328.932 2312.66,-332.248"/>
</g>
<!-- Node41&#45;&gt;Node40 -->
<g id="edge95" class="edge"><title>Node41&#45;&gt;Node40</title>
<path fill="none" stroke="midnightblue" d="M2248.22,-430.778C2242.2,-411.444 2228.12,-363.416 2223,-322 2220.35,-300.549 2220.5,-275.68 2221.06,-259.11"/>
<polygon fill="midnightblue" stroke="midnightblue" points="2224.56,-259.246 2221.48,-249.108 2217.57,-258.952 2224.56,-259.246"/>
</g>
<!-- Node41&#45;&gt;Node42 -->
<g id="edge102" class="edge"><title>Node41&#45;&gt;Node42</title>
<path fill="none" stroke="midnightblue" d="M2216.86,-434.877C2139.47,-424.397 1949.24,-398.637 1843.99,-384.384"/>
<polygon fill="midnightblue" stroke="midnightblue" points="1844.46,-380.916 1834.08,-383.042 1843.52,-387.852 1844.46,-380.916"/>
</g>
<!-- Node42&#45;&gt;Node5 -->
<g id="edge111" class="edge"><title>Node42&#45;&gt;Node5</title>
<path fill="none" stroke="midnightblue" d="M1841.26,-370.647C1997.53,-366.001 2363.84,-352.016 2411,-322 2450.41,-296.917 2475.86,-262.22 2449,-224 2449,-224 2386.21,-201.395 2349.63,-188.228"/>
<polygon fill="midnightblue" stroke="midnightblue" points="2350.68,-184.885 2340.09,-184.791 2348.31,-191.471 2350.68,-184.885"/>
</g>
<!-- Node42&#45;&gt;Node6 -->
<g id="edge112" class="edge"><title>Node42&#45;&gt;Node6</title>
<path fill="none" stroke="midnightblue" d="M1700.91,-370.86C1394.35,-363.616 186.012,-334.305 171,-322 142.236,-298.421 152,-277.694 152,-240.5 152,-240.5 152,-240.5 152,-121 152,-77.225 185.914,-73.589 226,-56 295.96,-25.3029 529.502,-14.8097 615.688,-11.9312"/>
<polygon fill="midnightblue" stroke="midnightblue" points="616.031,-15.422 625.913,-11.6026 615.806,-8.42566 616.031,-15.422"/>
</g>
<!-- Node42&#45;&gt;Node7 -->
<g id="edge114" class="edge"><title>Node42&#45;&gt;Node7</title>
<path fill="none" stroke="midnightblue" d="M1766.43,-363.919C1757.14,-347.286 1734.4,-310.576 1705,-291 1657.59,-259.432 1624.29,-293.159 1582,-255 1565.42,-240.043 1557.53,-214.926 1553.89,-197.688"/>
<polygon fill="midnightblue" stroke="midnightblue" points="1557.31,-196.896 1552.07,-187.684 1550.42,-198.149 1557.31,-196.896"/>
</g>
<!-- Node42&#45;&gt;Node11 -->
<g id="edge105" class="edge"><title>Node42&#45;&gt;Node11</title>
<path fill="none" stroke="midnightblue" d="M1700.87,-369.531C1576.75,-363.783 1310.39,-349.238 1087,-322 1085.89,-321.864 1084.76,-321.724 1083.63,-321.579"/>
<polygon fill="midnightblue" stroke="midnightblue" points="1083.73,-318.06 1073.35,-320.178 1082.78,-324.996 1083.73,-318.06"/>
</g>
<!-- Node42&#45;&gt;Node12 -->
<g id="edge113" class="edge"><title>Node42&#45;&gt;Node12</title>
<path fill="none" stroke="midnightblue" d="M1700.78,-371.828C1524.78,-369.584 1068.46,-360.15 922,-322 920.069,-321.497 918.113,-320.866 916.175,-320.151"/>
<polygon fill="midnightblue" stroke="midnightblue" points="917.386,-316.861 906.82,-316.076 914.591,-323.279 917.386,-316.861"/>
</g>
<!-- Node42&#45;&gt;Node13 -->
<g id="edge117" class="edge"><title>Node42&#45;&gt;Node13</title>
<path fill="none" stroke="midnightblue" d="M1772.1,-363.931C1773.38,-353.893 1775.49,-336.756 1777,-322 1778.96,-302.831 1780.81,-281.086 1782.11,-264.881"/>
<polygon fill="midnightblue" stroke="midnightblue" points="1785.62,-264.893 1782.93,-254.648 1778.65,-264.34 1785.62,-264.893"/>
</g>
<!-- Node42&#45;&gt;Node14 -->
<g id="edge120" class="edge"><title>Node42&#45;&gt;Node14</title>
<path fill="none" stroke="midnightblue" d="M1738.19,-363.936C1693.59,-352.293 1613.76,-331.454 1564.59,-318.617"/>
<polygon fill="midnightblue" stroke="midnightblue" points="1565.44,-315.223 1554.88,-316.083 1563.67,-321.996 1565.44,-315.223"/>
</g>
<!-- Node42&#45;&gt;Node15 -->
<g id="edge103" class="edge"><title>Node42&#45;&gt;Node15</title>
<path fill="none" stroke="midnightblue" d="M1768.86,-363.868C1764.75,-348.372 1754.76,-315.201 1739,-291 1730.39,-277.785 1717.91,-265.176 1707.58,-255.863"/>
<polygon fill="midnightblue" stroke="midnightblue" points="1709.7,-253.073 1699.86,-249.152 1705.11,-258.355 1709.7,-253.073"/>
</g>
<!-- Node42&#45;&gt;Node16 -->
<g id="edge104" class="edge"><title>Node42&#45;&gt;Node16</title>
<path fill="none" stroke="midnightblue" d="M1700.88,-370.246C1618.15,-366.117 1487.34,-354.5 1452,-322 1434.77,-306.156 1431.29,-278.1 1431.09,-259.4"/>
<polygon fill="midnightblue" stroke="midnightblue" points="1434.59,-259.226 1431.29,-249.159 1427.59,-259.087 1434.59,-259.226"/>
</g>
<!-- Node42&#45;&gt;Node24 -->
<g id="edge109" class="edge"><title>Node42&#45;&gt;Node24</title>
<path fill="none" stroke="midnightblue" d="M1841.25,-372.351C2047.78,-371.415 2650.5,-364.971 2842,-322 2917.62,-305.031 2959.99,-319.478 3003,-255 3015.38,-236.444 3001.67,-211.704 2989.44,-195.568"/>
<polygon fill="midnightblue" stroke="midnightblue" points="2991.99,-193.155 2982.98,-187.583 2986.55,-197.559 2991.99,-193.155"/>
</g>
<!-- Node42&#45;&gt;Node27 -->
<g id="edge119" class="edge"><title>Node42&#45;&gt;Node27</title>
<path fill="none" stroke="midnightblue" d="M1841.2,-372.034C1903.18,-369.003 1994.41,-357.995 2065,-322 2070.82,-319.032 2205.98,-185.419 2253.03,-138.826"/>
<polygon fill="midnightblue" stroke="midnightblue" points="2255.63,-141.18 2260.27,-131.656 2250.7,-136.207 2255.63,-141.18"/>
</g>
<!-- Node42&#45;&gt;Node29 -->
<g id="edge121" class="edge"><title>Node42&#45;&gt;Node29</title>
<path fill="none" stroke="midnightblue" d="M1841.09,-371.413C2088.96,-366.814 2913.18,-344.825 2985,-255 2993.6,-244.239 2992.5,-235.556 2985,-224 2974.28,-207.486 2955.94,-196.981 2937.8,-190.321"/>
<polygon fill="midnightblue" stroke="midnightblue" points="2938.68,-186.926 2928.09,-187.091 2936.47,-193.568 2938.68,-186.926"/>
</g>
<!-- Node42&#45;&gt;Node32 -->
<g id="edge118" class="edge"><title>Node42&#45;&gt;Node32</title>
<path fill="none" stroke="midnightblue" d="M1700.73,-371.77C1555.92,-369.494 1229.11,-360.158 1125,-322 1102.88,-313.892 1103.62,-300.361 1082,-291 1077.3,-288.965 952.769,-265.128 878.125,-250.943"/>
<polygon fill="midnightblue" stroke="midnightblue" points="878.419,-247.437 867.941,-249.009 877.112,-254.314 878.419,-247.437"/>
</g>
<!-- Node42&#45;&gt;Node34 -->
<g id="edge116" class="edge"><title>Node42&#45;&gt;Node34</title>
<path fill="none" stroke="midnightblue" d="M1841.14,-370.697C1971.07,-366.675 2257.73,-354.609 2497,-322 2498.3,-321.823 2499.61,-321.637 2500.92,-321.442"/>
<polygon fill="midnightblue" stroke="midnightblue" points="2501.83,-324.841 2511.15,-319.799 2500.72,-317.93 2501.83,-324.841"/>
</g>
<!-- Node42&#45;&gt;Node35 -->
<g id="edge106" class="edge"><title>Node42&#45;&gt;Node35</title>
<path fill="none" stroke="midnightblue" d="M1841.19,-371.224C1993.87,-367.816 2345.83,-356.293 2387,-322 2405.27,-306.782 2409.22,-278.118 2409.66,-259.163"/>
<polygon fill="midnightblue" stroke="midnightblue" points="2413.16,-259.036 2409.59,-249.062 2406.16,-259.086 2413.16,-259.036"/>
</g>
<!-- Node42&#45;&gt;Node36 -->
<g id="edge108" class="edge"><title>Node42&#45;&gt;Node36</title>
<path fill="none" stroke="midnightblue" d="M1841.13,-371.121C2018.67,-367.192 2482.44,-354.087 2633,-322 2671.11,-313.879 2677.43,-301.304 2715,-291 2804.21,-266.536 2831.18,-280.858 2920,-255 2922.29,-254.333 2924.64,-253.564 2926.97,-252.735"/>
<polygon fill="midnightblue" stroke="midnightblue" points="2928.31,-255.968 2936.38,-249.099 2925.79,-249.439 2928.31,-255.968"/>
</g>
<!-- Node42&#45;&gt;Node39 -->
<g id="edge115" class="edge"><title>Node42&#45;&gt;Node39</title>
<path fill="none" stroke="midnightblue" d="M1801.41,-363.869C1842.24,-352.278 1914.87,-331.662 1960.07,-318.834"/>
<polygon fill="midnightblue" stroke="midnightblue" points="1961.17,-322.161 1969.83,-316.064 1959.25,-315.427 1961.17,-322.161"/>
</g>
<!-- Node42&#45;&gt;Node40 -->
<g id="edge107" class="edge"><title>Node42&#45;&gt;Node40</title>
<path fill="none" stroke="midnightblue" d="M1841.07,-370.398C1909.05,-366.373 2014.09,-354.832 2099,-322 2140.31,-306.025 2181.93,-274.449 2204.59,-255.635"/>
<polygon fill="midnightblue" stroke="midnightblue" points="2206.94,-258.238 2212.31,-249.108 2202.42,-252.893 2206.94,-258.238"/>
</g>
<!-- Node43 -->
<g id="node43" class="node"><title>Node43</title>
<polygon fill="white" stroke="#bfbfbf" points="1639.5,-297 1639.5,-316 1696.5,-316 1696.5,-297 1639.5,-297"/>
<text text-anchor="middle" x="1668" y="-304" font-family="Helvetica,sans-Serif" font-size="10.00">ostream</text>
</g>
<!-- Node42&#45;&gt;Node43 -->
<g id="edge110" class="edge"><title>Node42&#45;&gt;Node43</title>
<path fill="none" stroke="midnightblue" d="M1757.11,-363.734C1739.97,-352.916 1710.6,-334.383 1690.29,-321.566"/>
<polygon fill="midnightblue" stroke="midnightblue" points="1692,-318.504 1681.67,-316.127 1688.26,-324.424 1692,-318.504"/>
</g>
<!-- Node44&#45;&gt;Node2 -->
<g id="edge140" class="edge"><title>Node44&#45;&gt;Node2</title>
<path fill="none" stroke="midnightblue" d="M2265.95,-567.55C2013.81,-565.859 1304.22,-558.033 1074,-523 962.398,-506.017 937.356,-487.661 829,-456 688.266,-414.878 654.311,-400.542 514,-358 468.839,-344.307 416.823,-329.014 382.133,-318.882"/>
<polygon fill="midnightblue" stroke="midnightblue" points="382.969,-315.48 372.389,-316.039 381.008,-322.2 382.969,-315.48"/>
</g>
<!-- Node44&#45;&gt;Node17 -->
<g id="edge143" class="edge"><title>Node44&#45;&gt;Node17</title>
<path fill="none" stroke="midnightblue" d="M2446.42,-565.266C2682.44,-556.932 3299,-526.982 3299,-441.5 3299,-441.5 3299,-441.5 3299,-305.5 3299,-219.306 3347.84,-172.044 3286,-112 3265.16,-91.7683 2367.29,-72.5155 2141.91,-67.9952"/>
<polygon fill="midnightblue" stroke="midnightblue" points="2141.76,-64.4916 2131.69,-67.7912 2141.62,-71.4902 2141.76,-64.4916"/>
</g>
<!-- Node44&#45;&gt;Node22 -->
<g id="edge139" class="edge"><title>Node44&#45;&gt;Node22</title>
<path fill="none" stroke="midnightblue" d="M2440.45,-559.465C2534.33,-547.22 2688.25,-518.785 2806,-456 2845.15,-435.125 2862.01,-429.556 2880,-389 2897.96,-348.52 2891.01,-324.455 2862,-291 2845.2,-271.63 2819.67,-259.47 2796.64,-251.953"/>
<polygon fill="midnightblue" stroke="midnightblue" points="2797.54,-248.569 2786.96,-249.007 2795.51,-255.266 2797.54,-248.569"/>
</g>
<!-- Node44&#45;&gt;Node30 -->
<g id="edge127" class="edge"><title>Node44&#45;&gt;Node30</title>
<path fill="none" stroke="midnightblue" d="M2446.22,-560.836C2513.95,-554.257 2608.64,-542.501 2690,-523 2865.37,-480.967 2951.53,-522.294 3073,-389 3140.83,-314.566 3187.28,-245.518 3123,-168 3098.8,-138.813 2990.91,-128.43 2928.68,-124.833"/>
<polygon fill="midnightblue" stroke="midnightblue" points="2928.53,-121.32 2918.36,-124.274 2928.16,-128.31 2928.53,-121.32"/>
</g>
<!-- Node44&#45;&gt;Node31 -->
<g id="edge141" class="edge"><title>Node44&#45;&gt;Node31</title>
<path fill="none" stroke="midnightblue" d="M2446.41,-563.949C2537.42,-558.696 2681.49,-547.168 2804,-523 2906.37,-502.807 2938.42,-507.793 3029,-456 3152.49,-385.385 3202.22,-200.577 3215.27,-141.466"/>
<polygon fill="midnightblue" stroke="midnightblue" points="3218.7,-142.176 3217.35,-131.668 3211.85,-140.725 3218.7,-142.176"/>
</g>
<!-- Node44&#45;&gt;Node32 -->
<g id="edge142" class="edge"><title>Node44&#45;&gt;Node32</title>
<path fill="none" stroke="midnightblue" d="M2265.9,-567.132C2029.35,-564.436 1394.59,-554.409 1187,-523 1099.71,-509.793 872.656,-454.079 813,-389 782.307,-355.517 769.333,-333.989 784,-291 788.482,-277.864 797.919,-265.489 806.387,-256.277"/>
<polygon fill="midnightblue" stroke="midnightblue" points="808.954,-258.659 813.431,-249.056 803.943,-253.771 808.954,-258.659"/>
</g>
<!-- Node44&#45;&gt;Node41 -->
<g id="edge138" class="edge"><title>Node44&#45;&gt;Node41</title>
<path fill="none" stroke="midnightblue" d="M2325.86,-559.399C2307.08,-552.518 2283.93,-540.987 2270,-523 2255.92,-504.821 2251.99,-477.974 2251.04,-460.122"/>
<polygon fill="midnightblue" stroke="midnightblue" points="2254.54,-460 2250.77,-450.099 2247.54,-460.19 2254.54,-460"/>
</g>
<!-- Node45 -->
<g id="node45" class="node"><title>Node45</title>
<g id="a_node45"><a xlink:href="displacement__op__cpu_8h.html" target="_top" xlink:title="core/operation/displacement\l_op_cpu.h">
<polygon fill="white" stroke="red" points="2279,-492.5 2279,-522.5 2433,-522.5 2433,-492.5 2279,-492.5"/>
<text text-anchor="start" x="2287" y="-510.5" font-family="Helvetica,sans-Serif" font-size="10.00">core/operation/displacement</text>
<text text-anchor="middle" x="2356" y="-499.5" font-family="Helvetica,sans-Serif" font-size="10.00">_op_cpu.h</text>
</a>
</g>
</g>
<!-- Node44&#45;&gt;Node45 -->
<g id="edge128" class="edge"><title>Node44&#45;&gt;Node45</title>
<path fill="none" stroke="midnightblue" d="M2356,-559.475C2356,-552.471 2356,-542.192 2356,-532.696"/>
<polygon fill="midnightblue" stroke="midnightblue" points="2359.5,-532.523 2356,-522.523 2352.5,-532.523 2359.5,-532.523"/>
</g>
<!-- Node45&#45;&gt;Node2 -->
<g id="edge135" class="edge"><title>Node45&#45;&gt;Node2</title>
<path fill="none" stroke="midnightblue" d="M2278.9,-504.973C2049.53,-499.528 1351.87,-476.419 781,-389 712.848,-378.564 696.732,-370.884 629,-358 606.987,-353.812 477.636,-331.089 400.634,-317.593"/>
<polygon fill="midnightblue" stroke="midnightblue" points="401.048,-314.112 390.594,-315.833 399.839,-321.007 401.048,-314.112"/>
</g>
<!-- Node45&#45;&gt;Node7 -->
<g id="edge131" class="edge"><title>Node45&#45;&gt;Node7</title>
<path fill="none" stroke="midnightblue" d="M2280.78,-492.448C2203.02,-475.746 2079.95,-443.103 1985,-389 1946.16,-366.872 1939.14,-355.894 1910,-322 1876.09,-282.553 1889.75,-252.152 1846,-224 1803.3,-196.522 1653.04,-184.741 1584.97,-180.728"/>
<polygon fill="midnightblue" stroke="midnightblue" points="1584.96,-177.222 1574.78,-180.15 1584.56,-184.211 1584.96,-177.222"/>
</g>
<!-- Node45&#45;&gt;Node22 -->
<g id="edge134" class="edge"><title>Node45&#45;&gt;Node22</title>
<path fill="none" stroke="midnightblue" d="M2433.01,-506.21C2514.45,-503.736 2645.62,-493.509 2752,-456 2805.63,-437.09 2833.25,-438.633 2861,-389 2882.94,-349.766 2865.4,-325.002 2836,-291 2821.01,-273.668 2798.55,-261.178 2779.57,-252.955"/>
<polygon fill="midnightblue" stroke="midnightblue" points="2780.89,-249.711 2770.31,-249.15 2778.23,-256.186 2780.89,-249.711"/>
</g>
<!-- Node45&#45;&gt;Node32 -->
<g id="edge137" class="edge"><title>Node45&#45;&gt;Node32</title>
<path fill="none" stroke="midnightblue" d="M2278.96,-501.069C1982.37,-480.062 929.25,-404.533 898,-389 862.205,-371.208 855.609,-357.885 838,-322 828.216,-302.061 824.778,-276.533 823.589,-259.407"/>
<polygon fill="midnightblue" stroke="midnightblue" points="827.067,-258.879 823.076,-249.065 820.076,-259.226 827.067,-258.879"/>
</g>
<!-- Node45&#45;&gt;Node33 -->
<g id="edge133" class="edge"><title>Node45&#45;&gt;Node33</title>
<path fill="none" stroke="midnightblue" d="M2433.17,-501.926C2524.66,-495.445 2670.82,-481.444 2719,-456 2744.68,-442.439 2765.94,-416.267 2778.99,-397.23"/>
<polygon fill="midnightblue" stroke="midnightblue" points="2781.96,-399.074 2784.55,-388.8 2776.12,-395.218 2781.96,-399.074"/>
</g>
<!-- Node45&#45;&gt;Node34 -->
<g id="edge136" class="edge"><title>Node45&#45;&gt;Node34</title>
<path fill="none" stroke="midnightblue" d="M2371.25,-492.188C2408.07,-457.623 2502.01,-369.441 2545.4,-328.711"/>
<polygon fill="midnightblue" stroke="midnightblue" points="2548,-331.078 2552.89,-321.682 2543.21,-325.974 2548,-331.078"/>
</g>
<!-- Node45&#45;&gt;Node36 -->
<g id="edge130" class="edge"><title>Node45&#45;&gt;Node36</title>
<path fill="none" stroke="midnightblue" d="M2433.46,-503.526C2544.14,-498.314 2741.33,-485.175 2806,-456 2890.65,-417.813 2935.05,-303.469 2949.56,-258.73"/>
<polygon fill="midnightblue" stroke="midnightblue" points="2952.91,-259.754 2952.54,-249.165 2946.22,-257.668 2952.91,-259.754"/>
</g>
<!-- Node45&#45;&gt;Node40 -->
<g id="edge129" class="edge"><title>Node45&#45;&gt;Node40</title>
<path fill="none" stroke="midnightblue" d="M2347.72,-492.402C2329.92,-461.86 2287.11,-387.083 2256,-322 2245.8,-300.669 2235.55,-275.461 2229.01,-258.789"/>
<polygon fill="midnightblue" stroke="midnightblue" points="2232.17,-257.249 2225.29,-249.192 2225.64,-259.781 2232.17,-257.249"/>
</g>
<!-- Node45&#45;&gt;Node41 -->
<g id="edge132" class="edge"><title>Node45&#45;&gt;Node41</title>
<path fill="none" stroke="midnightblue" d="M2333.22,-492.396C2315.45,-481.395 2290.9,-466.2 2273.26,-455.282"/>
<polygon fill="midnightblue" stroke="midnightblue" points="2275.09,-452.295 2264.74,-450.007 2271.4,-458.247 2275.09,-452.295"/>
</g>
<!-- Node46&#45;&gt;Node6 -->
<g id="edge145" class="edge"><title>Node46&#45;&gt;Node6</title>
<path fill="none" stroke="midnightblue" d="M217.127,-363.951C190.209,-356.945 158.564,-344.371 138,-322 112.446,-294.2 114,-278.26 114,-240.5 114,-240.5 114,-240.5 114,-121 114,-90.2048 113.532,-74.6993 138,-56 175.937,-27.0071 509.479,-14.9819 615.675,-11.8663"/>
<polygon fill="midnightblue" stroke="midnightblue" points="615.895,-15.3615 625.791,-11.5765 615.695,-8.3644 615.895,-15.3615"/>
</g>
<!-- Node46&#45;&gt;Node32 -->
<g id="edge146" class="edge"><title>Node46&#45;&gt;Node32</title>
<path fill="none" stroke="midnightblue" d="M338.068,-372.524C413.428,-370.358 535.55,-360.429 633,-322 655.254,-313.224 655.709,-301.906 677,-291 710.242,-273.972 750.522,-260.526 780.345,-251.804"/>
<polygon fill="midnightblue" stroke="midnightblue" points="781.383,-255.147 790.033,-249.029 779.456,-248.418 781.383,-255.147"/>
</g>
<!-- Node47 -->
<g id="node47" class="node"><title>Node47</title>
<g id="a_node47"><a xlink:href="timing_8h.html" target="_top" xlink:title="core/util/timing.h">
<polygon fill="white" stroke="red" points="180.5,-297 180.5,-316 277.5,-316 277.5,-297 180.5,-297"/>
<text text-anchor="middle" x="229" y="-304" font-family="Helvetica,sans-Serif" font-size="10.00">core/util/timing.h</text>
</a>
</g>
</g>
<!-- Node46&#45;&gt;Node47 -->
<g id="edge147" class="edge"><title>Node46&#45;&gt;Node47</title>
<path fill="none" stroke="midnightblue" d="M262.74,-363.734C256.776,-353.793 246.903,-337.338 239.374,-324.789"/>
<polygon fill="midnightblue" stroke="midnightblue" points="242.323,-322.901 234.176,-316.127 236.32,-326.503 242.323,-322.901"/>
</g>
<!-- Node47&#45;&gt;Node3 -->
<g id="edge148" class="edge"><title>Node47&#45;&gt;Node3</title>
<path fill="none" stroke="midnightblue" d="M230.888,-296.734C232.966,-287.085 236.366,-271.3 239.036,-258.906"/>
<polygon fill="midnightblue" stroke="midnightblue" points="242.458,-259.64 241.142,-249.127 235.615,-258.166 242.458,-259.64"/>
</g>
<!-- Node47&#45;&gt;Node6 -->
<g id="edge149" class="edge"><title>Node47&#45;&gt;Node6</title>
<path fill="none" stroke="midnightblue" d="M224.373,-296.889C214.042,-276.832 190,-225.194 190,-179 190,-179 190,-179 190,-121 190,-33.3322 511.28,-15.3528 615.666,-11.8249"/>
<polygon fill="midnightblue" stroke="midnightblue" points="616.025,-15.3154 625.91,-11.5022 615.804,-8.3189 616.025,-15.3154"/>
</g>
<!-- Node47&#45;&gt;Node22 -->
<g id="edge150" class="edge"><title>Node47&#45;&gt;Node22</title>
<path fill="none" stroke="midnightblue" d="M257.159,-296.957C266.274,-294.564 276.486,-292.272 286,-291 524.248,-259.156 2208.76,-262.901 2449,-255 2526.76,-252.443 2615.97,-247.823 2675.74,-244.485"/>
<polygon fill="midnightblue" stroke="midnightblue" points="2676.02,-247.974 2685.81,-243.919 2675.63,-240.985 2676.02,-247.974"/>
</g>
<!-- Node47&#45;&gt;Node32 -->
<g id="edge151" class="edge"><title>Node47&#45;&gt;Node32</title>
<path fill="none" stroke="midnightblue" d="M258.985,-296.943C267.644,-294.725 277.146,-292.533 286,-291 457.768,-261.261 663.69,-248.069 763.261,-243.085"/>
<polygon fill="midnightblue" stroke="midnightblue" points="763.609,-246.572 773.426,-242.586 763.266,-239.58 763.609,-246.572"/>
</g>
<!-- Node48&#45;&gt;Node4 -->
<g id="edge156" class="edge"><title>Node48&#45;&gt;Node4</title>
<path fill="none" stroke="midnightblue" d="M554.863,-296.805C554.541,-276.494 553.736,-225.553 553.297,-197.777"/>
<polygon fill="midnightblue" stroke="midnightblue" points="556.796,-197.699 553.138,-187.756 549.797,-197.81 556.796,-197.699"/>
</g>
<!-- Node48&#45;&gt;Node6 -->
<g id="edge158" class="edge"><title>Node48&#45;&gt;Node6</title>
<path fill="none" stroke="midnightblue" d="M567.542,-296.996C592.927,-278.662 648,-232.699 648,-179 648,-179 648,-179 648,-121 648,-88.948 648,-51.6426 648,-29.7489"/>
<polygon fill="midnightblue" stroke="midnightblue" points="651.5,-29.5577 648,-19.5578 644.5,-29.5578 651.5,-29.5577"/>
</g>
<!-- Node48&#45;&gt;Node7 -->
<g id="edge159" class="edge"><title>Node48&#45;&gt;Node7</title>
<path fill="none" stroke="midnightblue" d="M596.333,-296.932C630.812,-288.857 680.646,-274.992 721,-255 742.111,-244.541 741.796,-231.876 764,-224 835.652,-198.583 1375.87,-183.386 1517.23,-179.817"/>
<polygon fill="midnightblue" stroke="midnightblue" points="1517.54,-183.31 1527.45,-179.561 1517.37,-176.312 1517.54,-183.31"/>
</g>
<!-- Node48&#45;&gt;Node17 -->
<g id="edge161" class="edge"><title>Node48&#45;&gt;Node17</title>
<path fill="none" stroke="midnightblue" d="M573.673,-296.981C595.118,-287.13 631.298,-270.302 662,-255 688.511,-241.787 693.256,-234.377 721,-224 923.751,-148.169 980.684,-142.444 1195,-112 1513.99,-66.6879 1902.5,-65.2222 2039.89,-66.329"/>
<polygon fill="midnightblue" stroke="midnightblue" points="2040.08,-69.8307 2050.12,-66.42 2040.15,-62.831 2040.08,-69.8307"/>
</g>
<!-- Node48&#45;&gt;Node20 -->
<g id="edge157" class="edge"><title>Node48&#45;&gt;Node20</title>
<path fill="none" stroke="midnightblue" d="M624.535,-302.02C808.34,-292.762 1304.16,-267.392 1468,-255 1506.41,-252.095 1550.22,-247.776 1580.72,-244.608"/>
<polygon fill="midnightblue" stroke="midnightblue" points="1581.34,-248.062 1590.92,-243.539 1580.61,-241.1 1581.34,-248.062"/>
</g>
<!-- Node48&#45;&gt;Node32 -->
<g id="edge160" class="edge"><title>Node48&#45;&gt;Node32</title>
<path fill="none" stroke="midnightblue" d="M590.312,-296.936C638.516,-285.244 724.954,-264.28 777.825,-251.457"/>
<polygon fill="midnightblue" stroke="midnightblue" points="778.717,-254.842 787.61,-249.083 777.067,-248.039 778.717,-254.842"/>
</g>
<!-- Node49&#45;&gt;Node6 -->
<g id="edge164" class="edge"><title>Node49&#45;&gt;Node6</title>
<path fill="none" stroke="midnightblue" d="M3387.19,-224.098C3397.35,-197.966 3413.7,-142.621 3385,-112 3253.42,28.3802 2713.21,-64.5346 2521,-56 1775.85,-22.9138 862.775,-12.9948 680.52,-11.2864"/>
<polygon fill="midnightblue" stroke="midnightblue" points="680.305,-7.78437 670.274,-11.1919 680.241,-14.7841 680.305,-7.78437"/>
</g>
<!-- Node49&#45;&gt;Node25 -->
<g id="edge165" class="edge"><title>Node49&#45;&gt;Node25</title>
<path fill="none" stroke="midnightblue" d="M3326.84,-228.204C3269.73,-217.347 3180.24,-200.336 3122.86,-189.429"/>
<polygon fill="midnightblue" stroke="midnightblue" points="3123.37,-185.963 3112.89,-187.534 3122.06,-192.84 3123.37,-185.963"/>
</g>
<!-- Node49&#45;&gt;Node31 -->
<g id="edge166" class="edge"><title>Node49&#45;&gt;Node31</title>
<path fill="none" stroke="midnightblue" d="M3361.14,-224.337C3330.22,-202.297 3270.91,-160.007 3239.57,-137.664"/>
<polygon fill="midnightblue" stroke="midnightblue" points="3241.33,-134.625 3231.16,-131.669 3237.27,-140.325 3241.33,-134.625"/>
</g>
<!-- Node50&#45;&gt;Node2 -->
<g id="edge170" class="edge"><title>Node50&#45;&gt;Node2</title>
<path fill="none" stroke="midnightblue" d="M1721.37,-437.311C1566.77,-430.357 1095.09,-408.11 943,-389 870.266,-379.861 853.536,-368.597 781,-358 624.079,-335.075 583.101,-343.66 426,-322 417.156,-320.781 407.812,-319.319 398.708,-317.799"/>
<polygon fill="midnightblue" stroke="midnightblue" points="399.018,-314.301 388.571,-316.068 397.84,-321.201 399.018,-314.301"/>
</g>
<!-- Node50&#45;&gt;Node17 -->
<g id="edge173" class="edge"><title>Node50&#45;&gt;Node17</title>
<path fill="none" stroke="midnightblue" d="M1813.05,-425.399C1890.45,-399.061 2049.05,-343.149 2065,-322 2119.59,-249.611 2103.76,-130.936 2095.02,-85.4949"/>
<polygon fill="midnightblue" stroke="midnightblue" points="2098.43,-84.6904 2093,-75.5928 2091.57,-86.0909 2098.43,-84.6904"/>
</g>
<!-- Node50&#45;&gt;Node22 -->
<g id="edge168" class="edge"><title>Node50&#45;&gt;Node22</title>
<path fill="none" stroke="midnightblue" d="M1820.65,-434.475C1992.98,-416.792 2558.9,-356.646 2633,-322 2651.52,-313.338 2650.84,-303.536 2667,-291 2684.32,-277.565 2705.17,-264.037 2720.8,-254.368"/>
<polygon fill="midnightblue" stroke="midnightblue" points="2722.63,-257.352 2729.34,-249.151 2718.98,-251.379 2722.63,-257.352"/>
</g>
<!-- Node50&#45;&gt;Node31 -->
<g id="edge171" class="edge"><title>Node50&#45;&gt;Node31</title>
<path fill="none" stroke="midnightblue" d="M1820.58,-437.956C2027.18,-431.427 2811.11,-405.656 2861,-389 3016.87,-336.965 3160.34,-188.4 3204.85,-139.11"/>
<polygon fill="midnightblue" stroke="midnightblue" points="3207.51,-141.381 3211.56,-131.591 3202.29,-136.719 3207.51,-141.381"/>
</g>
<!-- Node50&#45;&gt;Node32 -->
<g id="edge172" class="edge"><title>Node50&#45;&gt;Node32</title>
<path fill="none" stroke="midnightblue" d="M1721.43,-437.033C1552.35,-428.534 1006.84,-400.365 971,-389 916.796,-371.811 900.048,-364.261 862,-322 845.312,-303.465 834.309,-276.514 828.367,-258.752"/>
<polygon fill="midnightblue" stroke="midnightblue" points="831.651,-257.529 825.315,-249.038 824.973,-259.627 831.651,-257.529"/>
</g>
<!-- Node50&#45;&gt;Node42 -->
<g id="edge169" class="edge"><title>Node50&#45;&gt;Node42</title>
<path fill="none" stroke="midnightblue" d="M1771,-425.396C1771,-416.064 1771,-403.714 1771,-393.517"/>
<polygon fill="midnightblue" stroke="midnightblue" points="1774.5,-393.195 1771,-383.195 1767.5,-393.195 1774.5,-393.195"/>
</g>
</g>
</svg>
