<?xml version="1.0" encoding="UTF-8" standalone="no"?>
<!DOCTYPE svg PUBLIC "-//W3C//DTD SVG 1.1//EN"
 "http://www.w3.org/Graphics/SVG/1.1/DTD/svg11.dtd">
<!-- Generated by graphviz version 2.36.0 (20140111.2315)
 -->
<!-- Title: neuroscience/event/side_neurite_extension_event.h Pages: 1 -->
<svg width="314pt" height="242pt"
 viewBox="0.00 0.00 314.00 242.00" xmlns="http://www.w3.org/2000/svg" xmlns:xlink="http://www.w3.org/1999/xlink">
<g id="graph0" class="graph" transform="scale(1 1) rotate(0) translate(4 238)">
<title>neuroscience/event/side_neurite_extension_event.h</title>
<polygon fill="white" stroke="none" points="-4,4 -4,-238 310,-238 310,4 -4,4"/>
<!-- Node1 -->
<g id="node1" class="node"><title>Node1</title>
<polygon fill="#bfbfbf" stroke="black" points="117.5,-192.5 117.5,-233.5 236.5,-233.5 236.5,-192.5 117.5,-192.5"/>
<text text-anchor="start" x="125.5" y="-221.5" font-family="Helvetica,sans-Serif" font-size="10.00">neuroscience/event</text>
<text text-anchor="start" x="125.5" y="-210.5" font-family="Helvetica,sans-Serif" font-size="10.00">/side_neurite_extension</text>
<text text-anchor="middle" x="177" y="-199.5" font-family="Helvetica,sans-Serif" font-size="10.00">_event.h</text>
</g>
<!-- Node2 -->
<g id="node2" class="node"><title>Node2</title>
<g id="a_node2"><a xlink:href="neurite__element_8h.html" target="_top" xlink:title="neuroscience/neurite\l_element.h">
<polygon fill="white" stroke="black" points="41.5,-125 41.5,-155 148.5,-155 148.5,-125 41.5,-125"/>
<text text-anchor="start" x="49.5" y="-143" font-family="Helvetica,sans-Serif" font-size="10.00">neuroscience/neurite</text>
<text text-anchor="middle" x="95" y="-132" font-family="Helvetica,sans-Serif" font-size="10.00">_element.h</text>
</a>
</g>
</g>
<!-- Node1&#45;&gt;Node2 -->
<g id="edge1" class="edge"><title>Node1&#45;&gt;Node2</title>
<path fill="none" stroke="midnightblue" d="M146.522,-185.611C134.55,-175.244 121.293,-163.766 111.225,-155.049"/>
<polygon fill="midnightblue" stroke="midnightblue" points="144.307,-188.323 154.158,-192.223 148.89,-183.031 144.307,-188.323"/>
</g>
<!-- Node4 -->
<g id="node4" class="node"><title>Node4</title>
<g id="a_node4"><a xlink:href="neuroscience_8h.html" target="_top" xlink:title="neuroscience/neuroscience.h">
<polygon fill="white" stroke="black" points="67.5,-0.5 67.5,-19.5 210.5,-19.5 210.5,-0.5 67.5,-0.5"/>
<text text-anchor="middle" x="139" y="-7.5" font-family="Helvetica,sans-Serif" font-size="10.00">neuroscience/neuroscience.h</text>
</a>
</g>
</g>
<!-- Node1&#45;&gt;Node4 -->
<g id="edge6" class="edge"><title>Node1&#45;&gt;Node4</title>
<path fill="none" stroke="midnightblue" d="M171.378,-182.263C162.562,-135.63 145.945,-47.734 140.659,-19.7741"/>
<polygon fill="midnightblue" stroke="midnightblue" points="167.99,-183.186 173.287,-192.361 174.869,-181.885 167.99,-183.186"/>
</g>
<!-- Node5 -->
<g id="node5" class="node"><title>Node5</title>
<g id="a_node5"><a xlink:href="neuroscience_2event_2event_8cc.html" target="_top" xlink:title="neuroscience/event\l/event.cc">
<polygon fill="white" stroke="black" points="205.5,-125 205.5,-155 306.5,-155 306.5,-125 205.5,-125"/>
<text text-anchor="start" x="213.5" y="-143" font-family="Helvetica,sans-Serif" font-size="10.00">neuroscience/event</text>
<text text-anchor="middle" x="256" y="-132" font-family="Helvetica,sans-Serif" font-size="10.00">/event.cc</text>
</a>
</g>
</g>
<!-- Node1&#45;&gt;Node5 -->
<g id="edge5" class="edge"><title>Node1&#45;&gt;Node5</title>
<path fill="none" stroke="midnightblue" d="M206.692,-185.314C218.14,-175.026 230.761,-163.683 240.369,-155.049"/>
<polygon fill="midnightblue" stroke="midnightblue" points="204.104,-182.935 199.006,-192.223 208.783,-188.141 204.104,-182.935"/>
</g>
<!-- Node3 -->
<g id="node3" class="node"><title>Node3</title>
<g id="a_node3"><a xlink:href="neuroscience_2compile__time__param_8h.html" target="_top" xlink:title="neuroscience/compile\l_time_param.h">
<polygon fill="white" stroke="black" points="-0.5,-57 -0.5,-87 110.5,-87 110.5,-57 -0.5,-57"/>
<text text-anchor="start" x="7.5" y="-75" font-family="Helvetica,sans-Serif" font-size="10.00">neuroscience/compile</text>
<text text-anchor="middle" x="55" y="-64" font-family="Helvetica,sans-Serif" font-size="10.00">_time_param.h</text>
</a>
</g>
</g>
<!-- Node2&#45;&gt;Node3 -->
<g id="edge2" class="edge"><title>Node2&#45;&gt;Node3</title>
<path fill="none" stroke="midnightblue" d="M81.0719,-116.019C75.2827,-106.467 68.7437,-95.677 63.6625,-87.2931"/>
<polygon fill="midnightblue" stroke="midnightblue" points="78.1443,-117.941 86.3206,-124.679 84.1307,-114.313 78.1443,-117.941"/>
</g>
<!-- Node2&#45;&gt;Node4 -->
<g id="edge4" class="edge"><title>Node2&#45;&gt;Node4</title>
<path fill="none" stroke="midnightblue" d="M107.135,-115.586C111.259,-107.049 115.663,-97.2268 119,-88 127.736,-63.8414 134.335,-34.1405 137.291,-19.7041"/>
<polygon fill="midnightblue" stroke="midnightblue" points="103.983,-114.063 102.67,-124.577 110.252,-117.177 103.983,-114.063"/>
</g>
<!-- Node3&#45;&gt;Node4 -->
<g id="edge3" class="edge"><title>Node3&#45;&gt;Node4</title>
<path fill="none" stroke="midnightblue" d="M83.2593,-50.8148C98.057,-40.245 115.412,-27.8485 126.777,-19.7305"/>
<polygon fill="midnightblue" stroke="midnightblue" points="81.0098,-48.1203 74.9068,-56.7808 85.0785,-53.8165 81.0098,-48.1203"/>
</g>
</g>
</svg>
