<?xml version="1.0" encoding="UTF-8" standalone="no"?>
<!DOCTYPE svg PUBLIC "-//W3C//DTD SVG 1.1//EN"
 "http://www.w3.org/Graphics/SVG/1.1/DTD/svg11.dtd">
<!-- Generated by graphviz version 2.38.0 (20140413.2041)
 -->
<!-- Title: core/sim_object/sim_object.cc Pages: 1 -->
<svg width="3748pt" height="609pt"
 viewBox="0.00 0.00 3748.00 609.00" xmlns="http://www.w3.org/2000/svg" xmlns:xlink="http://www.w3.org/1999/xlink">
<g id="graph0" class="graph" transform="scale(1 1) rotate(0) translate(4 605)">
<title>core/sim_object/sim_object.cc</title>
<polygon fill="white" stroke="none" points="-4,4 -4,-605 3744,-605 3744,4 -4,4"/>
<!-- Node1 -->
<g id="node1" class="node"><title>Node1</title>
<polygon fill="#bfbfbf" stroke="black" points="906.5,-570.5 906.5,-600.5 1019.5,-600.5 1019.5,-570.5 906.5,-570.5"/>
<text text-anchor="start" x="914.5" y="-588.5" font-family="Helvetica,sans-Serif" font-size="10.00">core/sim_object/sim</text>
<text text-anchor="middle" x="963" y="-577.5" font-family="Helvetica,sans-Serif" font-size="10.00">_object.cc</text>
</g>
<!-- Node2 -->
<g id="node2" class="node"><title>Node2</title>
<g id="a_node2"><a xlink:href="sim__object_8h.html" target="_top" xlink:title="core/sim_object/sim\l_object.h">
<polygon fill="white" stroke="black" points="702.5,-313.5 702.5,-343.5 815.5,-343.5 815.5,-313.5 702.5,-313.5"/>
<text text-anchor="start" x="710.5" y="-331.5" font-family="Helvetica,sans-Serif" font-size="10.00">core/sim_object/sim</text>
<text text-anchor="middle" x="759" y="-320.5" font-family="Helvetica,sans-Serif" font-size="10.00">_object.h</text>
</a>
</g>
</g>
<!-- Node1&#45;&gt;Node2 -->
<g id="edge1" class="edge"><title>Node1&#45;&gt;Node2</title>
<path fill="none" stroke="midnightblue" d="M924.442,-570.334C905.677,-561.973 883.815,-549.884 868,-534 813.436,-479.197 823.752,-448.043 787,-380 782.102,-370.932 776.622,-361.002 771.817,-352.365"/>
<polygon fill="midnightblue" stroke="midnightblue" points="774.857,-350.631 766.929,-343.603 768.745,-354.041 774.857,-350.631"/>
</g>
<!-- Node3 -->
<g id="node3" class="node"><title>Node3</title>
<polygon fill="white" stroke="#bfbfbf" points="2844,-185 2844,-204 2906,-204 2906,-185 2844,-185"/>
<text text-anchor="middle" x="2875" y="-192" font-family="Helvetica,sans-Serif" font-size="10.00">algorithm</text>
</g>
<!-- Node1&#45;&gt;Node3 -->
<g id="edge55" class="edge"><title>Node1&#45;&gt;Node3</title>
<path fill="none" stroke="midnightblue" d="M1019.52,-584.178C1388.24,-581.828 3439.05,-564.875 3536,-478 3613.56,-408.496 3639.92,-322.27 3569,-246 3524.46,-198.099 3058.56,-195.103 2916.13,-195.316"/>
<polygon fill="midnightblue" stroke="midnightblue" points="2916.05,-191.816 2906.06,-195.338 2916.06,-198.816 2916.05,-191.816"/>
</g>
<!-- Node4 -->
<g id="node4" class="node"><title>Node4</title>
<polygon fill="white" stroke="#bfbfbf" points="2154,-185 2154,-204 2206,-204 2206,-185 2154,-185"/>
<text text-anchor="middle" x="2180" y="-192" font-family="Helvetica,sans-Serif" font-size="10.00">cassert</text>
</g>
<!-- Node1&#45;&gt;Node4 -->
<g id="edge56" class="edge"><title>Node1&#45;&gt;Node4</title>
<path fill="none" stroke="midnightblue" d="M1019.59,-584.561C1235.27,-584.444 1998.57,-580.705 2096,-534 2133.63,-515.963 2158,-505.226 2158,-463.5 2158,-463.5 2158,-463.5 2158,-327.5 2158,-286.417 2168.5,-239.108 2174.99,-213.777"/>
<polygon fill="midnightblue" stroke="midnightblue" points="2178.38,-214.629 2177.56,-204.066 2171.62,-212.837 2178.38,-214.629"/>
</g>
<!-- Node5 -->
<g id="node5" class="node"><title>Node5</title>
<polygon fill="white" stroke="#bfbfbf" points="948,-185 948,-204 990,-204 990,-185 948,-185"/>
<text text-anchor="middle" x="969" y="-192" font-family="Helvetica,sans-Serif" font-size="10.00">limits</text>
</g>
<!-- Node1&#45;&gt;Node5 -->
<g id="edge57" class="edge"><title>Node1&#45;&gt;Node5</title>
<path fill="none" stroke="midnightblue" d="M906.304,-584.651C759.799,-583.522 380,-570.296 380,-463.5 380,-463.5 380,-463.5 380,-327.5 380,-290.306 370.917,-270.386 399,-246 419.526,-228.175 821.767,-203.907 937.874,-197.25"/>
<polygon fill="midnightblue" stroke="midnightblue" points="938.107,-200.743 947.891,-196.679 937.708,-193.754 938.107,-200.743"/>
</g>
<!-- Node6 -->
<g id="node6" class="node"><title>Node6</title>
<polygon fill="white" stroke="#bfbfbf" points="1520.5,-185 1520.5,-204 1577.5,-204 1577.5,-185 1520.5,-185"/>
<text text-anchor="middle" x="1549" y="-192" font-family="Helvetica,sans-Serif" font-size="10.00">memory</text>
</g>
<!-- Node1&#45;&gt;Node6 -->
<g id="edge58" class="edge"><title>Node1&#45;&gt;Node6</title>
<path fill="none" stroke="midnightblue" d="M985.21,-570.468C1001.08,-560.399 1022.92,-546.465 1042,-534 1231.52,-410.179 1458.28,-256.959 1527.75,-209.909"/>
<polygon fill="midnightblue" stroke="midnightblue" points="1529.82,-212.733 1536.14,-204.226 1525.89,-206.938 1529.82,-212.733"/>
</g>
<!-- Node7 -->
<g id="node7" class="node"><title>Node7</title>
<polygon fill="white" stroke="#bfbfbf" points="1879,-185 1879,-204 1911,-204 1911,-185 1879,-185"/>
<text text-anchor="middle" x="1895" y="-192" font-family="Helvetica,sans-Serif" font-size="10.00">set</text>
</g>
<!-- Node1&#45;&gt;Node7 -->
<g id="edge59" class="edge"><title>Node1&#45;&gt;Node7</title>
<path fill="none" stroke="midnightblue" d="M1019.77,-571.608C1196.78,-530.439 1734.4,-397.749 1862,-277 1879.72,-260.23 1888.18,-232.633 1892.03,-214.264"/>
<polygon fill="midnightblue" stroke="midnightblue" points="1895.51,-214.666 1893.88,-204.199 1888.63,-213.404 1895.51,-214.666"/>
</g>
<!-- Node8 -->
<g id="node8" class="node"><title>Node8</title>
<polygon fill="white" stroke="#bfbfbf" points="608,-185 608,-204 664,-204 664,-185 608,-185"/>
<text text-anchor="middle" x="636" y="-192" font-family="Helvetica,sans-Serif" font-size="10.00">sstream</text>
</g>
<!-- Node1&#45;&gt;Node8 -->
<g id="edge60" class="edge"><title>Node1&#45;&gt;Node8</title>
<path fill="none" stroke="midnightblue" d="M906.432,-581.763C785.901,-575.528 507.332,-558.856 416,-534 344.922,-514.656 266,-537.163 266,-463.5 266,-463.5 266,-463.5 266,-327.5 266,-266.655 320.313,-270.518 376,-246 378.545,-244.88 525.763,-216.606 597.513,-202.863"/>
<polygon fill="midnightblue" stroke="midnightblue" points="598.362,-206.264 607.525,-200.946 597.046,-199.389 598.362,-206.264"/>
</g>
<!-- Node9 -->
<g id="node9" class="node"><title>Node9</title>
<polygon fill="white" stroke="#bfbfbf" points="1406,-0.5 1406,-19.5 1450,-19.5 1450,-0.5 1406,-0.5"/>
<text text-anchor="middle" x="1428" y="-7.5" font-family="Helvetica,sans-Serif" font-size="10.00">string</text>
</g>
<!-- Node1&#45;&gt;Node9 -->
<g id="edge61" class="edge"><title>Node1&#45;&gt;Node9</title>
<path fill="none" stroke="midnightblue" d="M906.296,-583.721C721.302,-580.848 142.862,-569.121 67,-534 27.7736,-515.84 0,-506.726 0,-463.5 0,-463.5 0,-463.5 0,-126.5 0,-54.0359 1183.67,-17.7822 1395.69,-11.8696"/>
<polygon fill="midnightblue" stroke="midnightblue" points="1395.96,-15.3637 1405.86,-11.5887 1395.76,-8.36636 1395.96,-15.3637"/>
</g>
<!-- Node10 -->
<g id="node10" class="node"><title>Node10</title>
<polygon fill="white" stroke="#bfbfbf" points="236,-118 236,-137 304,-137 304,-118 236,-118"/>
<text text-anchor="middle" x="270" y="-125" font-family="Helvetica,sans-Serif" font-size="10.00">type_traits</text>
</g>
<!-- Node1&#45;&gt;Node10 -->
<g id="edge62" class="edge"><title>Node1&#45;&gt;Node10</title>
<path fill="none" stroke="midnightblue" d="M906.475,-583.273C728.863,-579.12 189.471,-564.139 117,-534 73.5485,-515.93 38,-510.559 38,-463.5 38,-463.5 38,-463.5 38,-327.5 38,-225.542 168.686,-164.533 233.889,-140.439"/>
<polygon fill="midnightblue" stroke="midnightblue" points="235.163,-143.7 243.387,-137.019 232.792,-137.114 235.163,-143.7"/>
</g>
<!-- Node11 -->
<g id="node11" class="node"><title>Node11</title>
<polygon fill="white" stroke="#bfbfbf" points="458.5,-185 458.5,-204 551.5,-204 551.5,-185 458.5,-185"/>
<text text-anchor="middle" x="505" y="-192" font-family="Helvetica,sans-Serif" font-size="10.00">unordered_map</text>
</g>
<!-- Node1&#45;&gt;Node11 -->
<g id="edge63" class="edge"><title>Node1&#45;&gt;Node11</title>
<path fill="none" stroke="midnightblue" d="M906.418,-583.916C766.481,-581.882 407.373,-572.915 295,-534 241.885,-515.606 190,-519.71 190,-463.5 190,-463.5 190,-463.5 190,-327.5 190,-270.165 238.555,-271.313 290,-246 340.429,-221.187 403.597,-208.232 448.382,-201.691"/>
<polygon fill="midnightblue" stroke="midnightblue" points="449.079,-205.128 458.498,-200.277 448.11,-198.196 449.079,-205.128"/>
</g>
<!-- Node12 -->
<g id="node12" class="node"><title>Node12</title>
<polygon fill="white" stroke="#bfbfbf" points="2886.5,-56.5 2886.5,-75.5 2933.5,-75.5 2933.5,-56.5 2886.5,-56.5"/>
<text text-anchor="middle" x="2910" y="-63.5" font-family="Helvetica,sans-Serif" font-size="10.00">vector</text>
</g>
<!-- Node1&#45;&gt;Node12 -->
<g id="edge64" class="edge"><title>Node1&#45;&gt;Node12</title>
<path fill="none" stroke="midnightblue" d="M1019.63,-584.441C1327.1,-583.939 2798.69,-579.178 3251,-534 3454.81,-513.642 3664,-534.325 3664,-329.5 3664,-329.5 3664,-329.5 3664,-193.5 3664,-107.701 3571.99,-133.784 3489,-112 3384.94,-84.6836 3051.97,-71.6376 2944.09,-68.0535"/>
<polygon fill="midnightblue" stroke="midnightblue" points="2943.9,-64.5455 2933.79,-67.7175 2943.67,-71.5418 2943.9,-64.5455"/>
</g>
<!-- Node16 -->
<g id="node16" class="node"><title>Node16</title>
<g id="a_node16"><a xlink:href="root_8h.html" target="_top" xlink:title="core/util/root.h">
<polygon fill="white" stroke="black" points="2006,-118 2006,-137 2092,-137 2092,-118 2006,-118"/>
<text text-anchor="middle" x="2049" y="-125" font-family="Helvetica,sans-Serif" font-size="10.00">core/util/root.h</text>
</a>
</g>
</g>
<!-- Node1&#45;&gt;Node16 -->
<g id="edge158" class="edge"><title>Node1&#45;&gt;Node16</title>
<path fill="none" stroke="midnightblue" d="M1019.59,-579.686C1106.72,-571.963 1278.84,-555.467 1424,-534 1726.95,-489.197 2082,-635.743 2082,-329.5 2082,-329.5 2082,-329.5 2082,-260.5 2082,-218.748 2066.27,-171.726 2056.53,-146.614"/>
<polygon fill="midnightblue" stroke="midnightblue" points="2059.75,-145.253 2052.79,-137.273 2053.26,-147.857 2059.75,-145.253"/>
</g>
<!-- Node17 -->
<g id="node17" class="node"><title>Node17</title>
<g id="a_node17"><a xlink:href="log_8h.html" target="_top" xlink:title="core/util/log.h">
<polygon fill="white" stroke="red" points="2363.5,-56.5 2363.5,-75.5 2444.5,-75.5 2444.5,-56.5 2363.5,-56.5"/>
<text text-anchor="middle" x="2404" y="-63.5" font-family="Helvetica,sans-Serif" font-size="10.00">core/util/log.h</text>
</a>
</g>
</g>
<!-- Node1&#45;&gt;Node17 -->
<g id="edge156" class="edge"><title>Node1&#45;&gt;Node17</title>
<path fill="none" stroke="midnightblue" d="M1019.86,-582.457C1232.9,-574.336 1975.9,-541.64 2059,-478 2115.65,-434.617 2120,-400.851 2120,-329.5 2120,-329.5 2120,-329.5 2120,-193.5 2120,-92.5647 2271.54,-71.5912 2353.23,-67.6178"/>
<polygon fill="midnightblue" stroke="midnightblue" points="2353.46,-71.1111 2363.31,-67.1963 2353.17,-64.1172 2353.46,-71.1111"/>
</g>
<!-- Node22 -->
<g id="node22" class="node"><title>Node22</title>
<g id="a_node22"><a xlink:href="in__place__exec__ctxt_8h.html" target="_top" xlink:title="core/execution_context\l/in_place_exec_ctxt.h">
<polygon fill="white" stroke="black" points="1261,-179.5 1261,-209.5 1389,-209.5 1389,-179.5 1261,-179.5"/>
<text text-anchor="start" x="1269" y="-197.5" font-family="Helvetica,sans-Serif" font-size="10.00">core/execution_context</text>
<text text-anchor="middle" x="1325" y="-186.5" font-family="Helvetica,sans-Serif" font-size="10.00">/in_place_exec_ctxt.h</text>
</a>
</g>
</g>
<!-- Node1&#45;&gt;Node22 -->
<g id="edge75" class="edge"><title>Node1&#45;&gt;Node22</title>
<path fill="none" stroke="midnightblue" d="M979.578,-570.341C990.943,-560.444 1006.22,-546.767 1019,-534 1133.63,-419.513 1260.39,-271.929 1306.75,-217.184"/>
<polygon fill="midnightblue" stroke="midnightblue" points="1309.46,-219.401 1313.24,-209.504 1304.11,-214.882 1309.46,-219.401"/>
</g>
<!-- Node26 -->
<g id="node26" class="node"><title>Node26</title>
<g id="a_node26"><a xlink:href="so__uid_8h.html" target="_top" xlink:title="core/sim_object/so\l_uid.h">
<polygon fill="white" stroke="black" points="856.5,-112.5 856.5,-142.5 963.5,-142.5 963.5,-112.5 856.5,-112.5"/>
<text text-anchor="start" x="864.5" y="-130.5" font-family="Helvetica,sans-Serif" font-size="10.00">core/sim_object/so</text>
<text text-anchor="middle" x="910" y="-119.5" font-family="Helvetica,sans-Serif" font-size="10.00">_uid.h</text>
</a>
</g>
</g>
<!-- Node1&#45;&gt;Node26 -->
<g id="edge154" class="edge"><title>Node1&#45;&gt;Node26</title>
<path fill="none" stroke="midnightblue" d="M906.25,-582.879C743.966,-577.929 285.64,-561.641 224,-534 183.135,-515.675 152,-508.286 152,-463.5 152,-463.5 152,-463.5 152,-394.5 152,-290.705 155.57,-236.474 242,-179 297.059,-142.387 770.412,-151.376 836,-143 839.415,-142.564 842.909,-142.064 846.43,-141.519"/>
<polygon fill="midnightblue" stroke="midnightblue" points="847.085,-144.958 856.381,-139.876 845.945,-138.052 847.085,-144.958"/>
</g>
<!-- Node32 -->
<g id="node32" class="node"><title>Node32</title>
<g id="a_node32"><a xlink:href="simulation_8h.html" target="_top" xlink:title="core/simulation.h">
<polygon fill="white" stroke="red" points="1143.5,-185 1143.5,-204 1242.5,-204 1242.5,-185 1143.5,-185"/>
<text text-anchor="middle" x="1193" y="-192" font-family="Helvetica,sans-Serif" font-size="10.00">core/simulation.h</text>
</a>
</g>
</g>
<!-- Node1&#45;&gt;Node32 -->
<g id="edge155" class="edge"><title>Node1&#45;&gt;Node32</title>
<path fill="none" stroke="midnightblue" d="M945.023,-570.178C921.16,-549.419 882,-508.497 882,-463.5 882,-463.5 882,-463.5 882,-327.5 882,-219.485 1042.93,-198.566 1133.26,-195.332"/>
<polygon fill="midnightblue" stroke="midnightblue" points="1133.49,-198.827 1143.38,-195.033 1133.28,-191.83 1133.49,-198.827"/>
</g>
<!-- Node34 -->
<g id="node34" class="node"><title>Node34</title>
<g id="a_node34"><a xlink:href="macros_8h.html" target="_top" xlink:title="core/util/macros.h">
<polygon fill="white" stroke="red" points="408.5,-252 408.5,-271 511.5,-271 511.5,-252 408.5,-252"/>
<text text-anchor="middle" x="460" y="-259" font-family="Helvetica,sans-Serif" font-size="10.00">core/util/macros.h</text>
</a>
</g>
</g>
<!-- Node1&#45;&gt;Node34 -->
<g id="edge157" class="edge"><title>Node1&#45;&gt;Node34</title>
<path fill="none" stroke="midnightblue" d="M906.316,-582.88C774.017,-577.562 456,-555.237 456,-463.5 456,-463.5 456,-463.5 456,-394.5 456,-354.139 457.891,-306.868 459.073,-281.276"/>
<polygon fill="midnightblue" stroke="midnightblue" points="462.576,-281.302 459.557,-271.146 455.584,-280.968 462.576,-281.302"/>
</g>
<!-- Node35 -->
<g id="node35" class="node"><title>Node35</title>
<g id="a_node35"><a xlink:href="biology__module_8h.html" target="_top" xlink:title="core/biology_module\l/biology_module.h">
<polygon fill="white" stroke="black" points="662,-380.5 662,-410.5 778,-410.5 778,-380.5 662,-380.5"/>
<text text-anchor="start" x="670" y="-398.5" font-family="Helvetica,sans-Serif" font-size="10.00">core/biology_module</text>
<text text-anchor="middle" x="720" y="-387.5" font-family="Helvetica,sans-Serif" font-size="10.00">/biology_module.h</text>
</a>
</g>
</g>
<!-- Node1&#45;&gt;Node35 -->
<g id="edge65" class="edge"><title>Node1&#45;&gt;Node35</title>
<path fill="none" stroke="midnightblue" d="M906.147,-579.099C870.076,-573.122 824.289,-560.529 792,-534 755.683,-504.161 735.429,-451.147 726.21,-420.394"/>
<polygon fill="midnightblue" stroke="midnightblue" points="729.503,-419.179 723.4,-410.519 722.77,-421.095 729.503,-419.179"/>
</g>
<!-- Node36 -->
<g id="node36" class="node"><title>Node36</title>
<g id="a_node36"><a xlink:href="event_8h.html" target="_top" xlink:title="core/event/event.h">
<polygon fill="white" stroke="black" points="956.5,-319 956.5,-338 1063.5,-338 1063.5,-319 956.5,-319"/>
<text text-anchor="middle" x="1010" y="-326" font-family="Helvetica,sans-Serif" font-size="10.00">core/event/event.h</text>
</a>
</g>
</g>
<!-- Node1&#45;&gt;Node36 -->
<g id="edge74" class="edge"><title>Node1&#45;&gt;Node36</title>
<path fill="none" stroke="midnightblue" d="M974.323,-570.416C989.141,-550.988 1014.36,-514.24 1024,-478 1036.17,-432.269 1023.83,-376.157 1015.77,-347.787"/>
<polygon fill="midnightblue" stroke="midnightblue" points="1019.08,-346.622 1012.86,-338.045 1012.37,-348.629 1019.08,-346.622"/>
</g>
<!-- Node38 -->
<g id="node38" class="node"><title>Node38</title>
<g id="a_node38"><a xlink:href="type_8h.html" target="_top" xlink:title="core/util/type.h">
<polygon fill="white" stroke="red" points="251,-185 251,-204 339,-204 339,-185 251,-185"/>
<text text-anchor="middle" x="295" y="-192" font-family="Helvetica,sans-Serif" font-size="10.00">core/util/type.h</text>
</a>
</g>
</g>
<!-- Node1&#45;&gt;Node38 -->
<g id="edge159" class="edge"><title>Node1&#45;&gt;Node38</title>
<path fill="none" stroke="midnightblue" d="M906.443,-584.628C730.156,-584.539 198.778,-580.387 138,-534 111.689,-513.919 114,-496.599 114,-463.5 114,-463.5 114,-463.5 114,-394.5 114,-303.9 217.942,-236.335 268.291,-208.922"/>
<polygon fill="midnightblue" stroke="midnightblue" points="270.127,-211.909 277.315,-204.126 266.842,-205.728 270.127,-211.909"/>
</g>
<!-- Node39 -->
<g id="node39" class="node"><title>Node39</title>
<g id="a_node39"><a xlink:href="grid_8h.html" target="_top" xlink:title="core/grid.h">
<polygon fill="white" stroke="black" points="2408,-514.5 2408,-533.5 2476,-533.5 2476,-514.5 2408,-514.5"/>
<text text-anchor="middle" x="2442" y="-521.5" font-family="Helvetica,sans-Serif" font-size="10.00">core/grid.h</text>
</a>
</g>
</g>
<!-- Node1&#45;&gt;Node39 -->
<g id="edge76" class="edge"><title>Node1&#45;&gt;Node39</title>
<path fill="none" stroke="midnightblue" d="M1019.62,-582.222C1258.78,-572.601 2183.71,-535.391 2397.65,-526.784"/>
<polygon fill="midnightblue" stroke="midnightblue" points="2398.02,-530.272 2407.87,-526.373 2397.74,-523.278 2398.02,-530.272"/>
</g>
<!-- Node47 -->
<g id="node47" class="node"><title>Node47</title>
<g id="a_node47"><a xlink:href="resource__manager_8h.html" target="_top" xlink:title="core/resource_manager.h">
<polygon fill="white" stroke="black" points="1914,-386 1914,-405 2054,-405 2054,-386 1914,-386"/>
<text text-anchor="middle" x="1984" y="-393" font-family="Helvetica,sans-Serif" font-size="10.00">core/resource_manager.h</text>
</a>
</g>
</g>
<!-- Node1&#45;&gt;Node47 -->
<g id="edge153" class="edge"><title>Node1&#45;&gt;Node47</title>
<path fill="none" stroke="midnightblue" d="M1019.59,-578.958C1096.99,-571.006 1240.05,-554.977 1361,-534 1580.46,-495.94 1839.56,-432.83 1940.6,-407.51"/>
<polygon fill="midnightblue" stroke="midnightblue" points="1941.6,-410.868 1950.45,-405.037 1939.9,-404.079 1941.6,-410.868"/>
</g>
<!-- Node2&#45;&gt;Node3 -->
<g id="edge2" class="edge"><title>Node2&#45;&gt;Node3</title>
<path fill="none" stroke="midnightblue" d="M815.714,-322.307C852.993,-319.096 902.861,-315.183 947,-313 1312.42,-294.926 2231.05,-330.413 2593,-277 2686.35,-263.224 2792.18,-226.742 2843.61,-207.605"/>
<polygon fill="midnightblue" stroke="midnightblue" points="2845.02,-210.814 2853.15,-204.021 2842.56,-204.261 2845.02,-210.814"/>
</g>
<!-- Node2&#45;&gt;Node4 -->
<g id="edge3" class="edge"><title>Node2&#45;&gt;Node4</title>
<path fill="none" stroke="midnightblue" d="M815.728,-322.565C853.013,-319.46 902.881,-315.568 947,-313 1353.29,-289.348 1459.3,-335.849 1862,-277 1966.54,-261.724 2086.42,-225.838 2144.61,-207.2"/>
<polygon fill="midnightblue" stroke="midnightblue" points="2145.97,-210.44 2154.41,-204.037 2143.82,-203.778 2145.97,-210.44"/>
</g>
<!-- Node2&#45;&gt;Node5 -->
<g id="edge4" class="edge"><title>Node2&#45;&gt;Node5</title>
<path fill="none" stroke="midnightblue" d="M767.9,-313.457C779.951,-295.485 803.075,-264.472 830,-246 863.332,-223.132 908.238,-209.291 937.875,-202.024"/>
<polygon fill="midnightblue" stroke="midnightblue" points="938.742,-205.416 947.678,-199.723 937.143,-198.601 938.742,-205.416"/>
</g>
<!-- Node2&#45;&gt;Node6 -->
<g id="edge5" class="edge"><title>Node2&#45;&gt;Node6</title>
<path fill="none" stroke="midnightblue" d="M815.909,-322.599C925.694,-312.974 1163.03,-291.3 1244,-277 1364.48,-255.722 1394.31,-246.762 1511,-210 1513.42,-209.239 1515.9,-208.406 1518.39,-207.537"/>
<polygon fill="midnightblue" stroke="midnightblue" points="1519.66,-210.799 1527.85,-204.079 1517.26,-204.224 1519.66,-210.799"/>
</g>
<!-- Node2&#45;&gt;Node7 -->
<g id="edge6" class="edge"><title>Node2&#45;&gt;Node7</title>
<path fill="none" stroke="midnightblue" d="M815.729,-322.587C853.015,-319.49 902.883,-315.6 947,-313 1045.02,-307.224 1742.42,-321.396 1830,-277 1856.94,-263.342 1876.38,-232.85 1886.65,-213.28"/>
<polygon fill="midnightblue" stroke="midnightblue" points="1889.85,-214.701 1891.18,-204.189 1883.59,-211.582 1889.85,-214.701"/>
</g>
<!-- Node2&#45;&gt;Node8 -->
<g id="edge7" class="edge"><title>Node2&#45;&gt;Node8</title>
<path fill="none" stroke="midnightblue" d="M728.104,-313.329C711.678,-304.63 692.037,-292.233 678,-277 660.849,-258.388 648.801,-231.457 642.133,-213.719"/>
<polygon fill="midnightblue" stroke="midnightblue" points="645.331,-212.267 638.679,-204.02 638.737,-214.615 645.331,-212.267"/>
</g>
<!-- Node2&#45;&gt;Node9 -->
<g id="edge8" class="edge"><title>Node2&#45;&gt;Node9</title>
<path fill="none" stroke="midnightblue" d="M746.082,-313.271C726.612,-290.291 692,-242.787 692,-195.5 692,-195.5 692,-195.5 692,-126.5 692,-54.1745 1253.86,-20.0622 1395.76,-12.6002"/>
<polygon fill="midnightblue" stroke="midnightblue" points="1396.17,-16.0837 1405.97,-12.0711 1395.81,-9.09304 1396.17,-16.0837"/>
</g>
<!-- Node2&#45;&gt;Node10 -->
<g id="edge9" class="edge"><title>Node2&#45;&gt;Node10</title>
<path fill="none" stroke="midnightblue" d="M702.223,-320.615C660.064,-313.822 602.128,-300.86 556,-277 537.246,-267.299 537.718,-257.485 520,-246 499.939,-232.996 359.456,-168.963 298.317,-141.285"/>
<polygon fill="midnightblue" stroke="midnightblue" points="299.432,-137.947 288.878,-137.015 296.547,-144.325 299.432,-137.947"/>
</g>
<!-- Node2&#45;&gt;Node11 -->
<g id="edge10" class="edge"><title>Node2&#45;&gt;Node11</title>
<path fill="none" stroke="midnightblue" d="M702.347,-314.965C671.489,-306.761 633.323,-294.315 602,-277 569.949,-259.282 538.558,-230.136 520.526,-211.922"/>
<polygon fill="midnightblue" stroke="midnightblue" points="522.703,-209.141 513.226,-204.403 517.681,-214.017 522.703,-209.141"/>
</g>
<!-- Node2&#45;&gt;Node12 -->
<g id="edge11" class="edge"><title>Node2&#45;&gt;Node12</title>
<path fill="none" stroke="midnightblue" d="M815.716,-322.354C852.997,-319.162 902.864,-315.253 947,-313 1106.51,-304.856 2229.19,-316.282 2384,-277 2476.86,-253.437 2484.7,-208.049 2576,-179 2682.13,-145.23 2722.95,-189.83 2824,-143 2853.83,-129.177 2880.93,-101.601 2896.43,-83.7423"/>
<polygon fill="midnightblue" stroke="midnightblue" points="2899.31,-85.7628 2903.07,-75.859 2893.95,-81.2541 2899.31,-85.7628"/>
</g>
<!-- Node13 -->
<g id="node13" class="node"><title>Node13</title>
<g id="a_node13"><a xlink:href="math__array_8h.html" target="_top" xlink:title="core/container/math\l_array.h">
<polygon fill="white" stroke="red" points="2470,-246.5 2470,-276.5 2584,-276.5 2584,-246.5 2470,-246.5"/>
<text text-anchor="start" x="2478" y="-264.5" font-family="Helvetica,sans-Serif" font-size="10.00">core/container/math</text>
<text text-anchor="middle" x="2527" y="-253.5" font-family="Helvetica,sans-Serif" font-size="10.00">_array.h</text>
</a>
</g>
</g>
<!-- Node2&#45;&gt;Node13 -->
<g id="edge12" class="edge"><title>Node2&#45;&gt;Node13</title>
<path fill="none" stroke="midnightblue" d="M815.716,-322.346C852.996,-319.15 902.863,-315.241 947,-313 1600.13,-279.844 1766.03,-328.193 2418,-277 2431.63,-275.93 2446.16,-274.324 2460.03,-272.565"/>
<polygon fill="midnightblue" stroke="midnightblue" points="2460.53,-276.03 2469.99,-271.263 2459.62,-269.089 2460.53,-276.03"/>
</g>
<!-- Node2&#45;&gt;Node16 -->
<g id="edge54" class="edge"><title>Node2&#45;&gt;Node16</title>
<path fill="none" stroke="midnightblue" d="M815.731,-322.61C853.017,-319.523 902.885,-315.635 947,-313 1041.36,-307.365 1713.44,-321.191 1797,-277 1845.01,-251.61 1825.26,-209.791 1870,-179 1875.77,-175.031 1955.88,-153.261 2006.95,-139.631"/>
<polygon fill="midnightblue" stroke="midnightblue" points="2007.99,-142.978 2016.75,-137.022 2006.19,-136.214 2007.99,-142.978"/>
</g>
<!-- Node19 -->
<g id="node19" class="node"><title>Node19</title>
<g id="a_node19"><a xlink:href="shape_8h.html" target="_top" xlink:title="core/shape.h">
<polygon fill="white" stroke="black" points="322.5,-118 322.5,-137 401.5,-137 401.5,-118 322.5,-118"/>
<text text-anchor="middle" x="362" y="-125" font-family="Helvetica,sans-Serif" font-size="10.00">core/shape.h</text>
</a>
</g>
</g>
<!-- Node2&#45;&gt;Node19 -->
<g id="edge21" class="edge"><title>Node2&#45;&gt;Node19</title>
<path fill="none" stroke="midnightblue" d="M721.086,-313.438C699.992,-304.66 673.865,-292.152 653,-277 604.414,-241.717 611.788,-209.389 560,-179 513.926,-151.964 453.547,-139.261 411.634,-133.384"/>
<polygon fill="midnightblue" stroke="midnightblue" points="412.033,-129.906 401.661,-132.065 411.116,-136.846 412.033,-129.906"/>
</g>
<!-- Node20 -->
<g id="node20" class="node"><title>Node20</title>
<g id="a_node20"><a xlink:href="so__pointer_8h.html" target="_top" xlink:title="core/sim_object/so\l_pointer.h">
<polygon fill="white" stroke="red" points="1128.5,-246.5 1128.5,-276.5 1235.5,-276.5 1235.5,-246.5 1128.5,-246.5"/>
<text text-anchor="start" x="1136.5" y="-264.5" font-family="Helvetica,sans-Serif" font-size="10.00">core/sim_object/so</text>
<text text-anchor="middle" x="1182" y="-253.5" font-family="Helvetica,sans-Serif" font-size="10.00">_pointer.h</text>
</a>
</g>
</g>
<!-- Node2&#45;&gt;Node20 -->
<g id="edge22" class="edge"><title>Node2&#45;&gt;Node20</title>
<path fill="none" stroke="midnightblue" d="M815.609,-318.801C894.273,-306.713 1036.22,-284.901 1118.43,-272.268"/>
<polygon fill="midnightblue" stroke="midnightblue" points="1119.04,-275.715 1128.4,-270.737 1117.98,-268.796 1119.04,-275.715"/>
</g>
<!-- Node2&#45;&gt;Node26 -->
<g id="edge49" class="edge"><title>Node2&#45;&gt;Node26</title>
<path fill="none" stroke="midnightblue" d="M763.248,-313.44C768.747,-296.532 779.385,-267.719 794,-246 819.704,-207.801 858.817,-171.282 884.394,-149.371"/>
<polygon fill="midnightblue" stroke="midnightblue" points="886.808,-151.914 892.189,-142.787 882.291,-146.566 886.808,-151.914"/>
</g>
<!-- Node33 -->
<g id="node33" class="node"><title>Node33</title>
<g id="a_node33"><a xlink:href="so__visitor_8h.html" target="_top" xlink:title="core/sim_object/so\l_visitor.h">
<polygon fill="white" stroke="black" points="720.5,-112.5 720.5,-142.5 827.5,-142.5 827.5,-112.5 720.5,-112.5"/>
<text text-anchor="start" x="728.5" y="-130.5" font-family="Helvetica,sans-Serif" font-size="10.00">core/sim_object/so</text>
<text text-anchor="middle" x="774" y="-119.5" font-family="Helvetica,sans-Serif" font-size="10.00">_visitor.h</text>
</a>
</g>
</g>
<!-- Node2&#45;&gt;Node33 -->
<g id="edge50" class="edge"><title>Node2&#45;&gt;Node33</title>
<path fill="none" stroke="midnightblue" d="M756.478,-313.419C752.171,-286.856 744.717,-227.65 754,-179 755.753,-169.812 759.15,-160.163 762.654,-151.79"/>
<polygon fill="midnightblue" stroke="midnightblue" points="765.853,-153.209 766.724,-142.65 759.459,-150.361 765.853,-153.209"/>
</g>
<!-- Node2&#45;&gt;Node34 -->
<g id="edge53" class="edge"><title>Node2&#45;&gt;Node34</title>
<path fill="none" stroke="midnightblue" d="M702.491,-315.299C655.3,-305.099 586.254,-290.148 526,-277 520.346,-275.766 514.421,-274.47 508.538,-273.18"/>
<polygon fill="midnightblue" stroke="midnightblue" points="509.252,-269.753 498.734,-271.029 507.752,-276.591 509.252,-269.753"/>
</g>
<!-- Node13&#45;&gt;Node3 -->
<g id="edge13" class="edge"><title>Node13&#45;&gt;Node3</title>
<path fill="none" stroke="midnightblue" d="M2584.21,-254.162C2646.34,-246.569 2748.2,-232.043 2834,-210 2837.05,-209.217 2840.19,-208.306 2843.31,-207.327"/>
<polygon fill="midnightblue" stroke="midnightblue" points="2844.72,-210.546 2853.09,-204.053 2842.5,-203.908 2844.72,-210.546"/>
</g>
<!-- Node13&#45;&gt;Node4 -->
<g id="edge14" class="edge"><title>Node13&#45;&gt;Node4</title>
<path fill="none" stroke="midnightblue" d="M2469.7,-249.767C2397.79,-236.296 2276.59,-213.593 2216.31,-202.302"/>
<polygon fill="midnightblue" stroke="midnightblue" points="2216.61,-198.797 2206.13,-200.396 2215.32,-205.677 2216.61,-198.797"/>
</g>
<!-- Node14 -->
<g id="node14" class="node"><title>Node14</title>
<polygon fill="white" stroke="#bfbfbf" points="2626.5,-185 2626.5,-204 2673.5,-204 2673.5,-185 2626.5,-185"/>
<text text-anchor="middle" x="2650" y="-192" font-family="Helvetica,sans-Serif" font-size="10.00">cmath</text>
</g>
<!-- Node13&#45;&gt;Node14 -->
<g id="edge15" class="edge"><title>Node13&#45;&gt;Node14</title>
<path fill="none" stroke="midnightblue" d="M2553.69,-246.396C2574.89,-235.193 2604.32,-219.641 2625.05,-208.685"/>
<polygon fill="midnightblue" stroke="midnightblue" points="2626.7,-211.774 2633.9,-204.007 2623.43,-205.585 2626.7,-211.774"/>
</g>
<!-- Node15 -->
<g id="node15" class="node"><title>Node15</title>
<polygon fill="white" stroke="#bfbfbf" points="2889,-118 2889,-137 2931,-137 2931,-118 2889,-118"/>
<text text-anchor="middle" x="2910" y="-125" font-family="Helvetica,sans-Serif" font-size="10.00">utility</text>
</g>
<!-- Node13&#45;&gt;Node15 -->
<g id="edge16" class="edge"><title>Node13&#45;&gt;Node15</title>
<path fill="none" stroke="midnightblue" d="M2540.53,-246.406C2561.06,-225.341 2599.56,-187.231 2617,-179 2716.53,-132.034 2754.59,-166.978 2862,-143 2867.52,-141.767 2873.34,-140.226 2878.93,-138.612"/>
<polygon fill="midnightblue" stroke="midnightblue" points="2880.11,-141.914 2888.67,-135.679 2878.09,-135.211 2880.11,-141.914"/>
</g>
<!-- Node13&#45;&gt;Node16 -->
<g id="edge17" class="edge"><title>Node13&#45;&gt;Node16</title>
<path fill="none" stroke="midnightblue" d="M2488.45,-246.401C2440.17,-229.064 2354.7,-199.43 2280,-179 2219.68,-162.504 2149.36,-147.759 2102.3,-138.523"/>
<polygon fill="midnightblue" stroke="midnightblue" points="2102.81,-135.057 2092.32,-136.58 2101.47,-141.928 2102.81,-135.057"/>
</g>
<!-- Node16&#45;&gt;Node17 -->
<g id="edge18" class="edge"><title>Node16&#45;&gt;Node17</title>
<path fill="none" stroke="midnightblue" d="M2080.23,-117.961C2088.57,-115.845 2097.59,-113.7 2106,-112 2192.12,-94.5891 2293.47,-80.6579 2353.03,-73.1324"/>
<polygon fill="midnightblue" stroke="midnightblue" points="2353.8,-76.5628 2363.29,-71.8468 2352.93,-69.6171 2353.8,-76.5628"/>
</g>
<!-- Node17&#45;&gt;Node9 -->
<g id="edge20" class="edge"><title>Node17&#45;&gt;Node9</title>
<path fill="none" stroke="midnightblue" d="M2363.31,-62.7484C2201.58,-53.8004 1606.06,-20.8515 1460.34,-12.7892"/>
<polygon fill="midnightblue" stroke="midnightblue" points="1460.43,-9.28927 1450.26,-12.2314 1460.05,-16.2786 1460.43,-9.28927"/>
</g>
<!-- Node18 -->
<g id="node18" class="node"><title>Node18</title>
<polygon fill="white" stroke="#bfbfbf" points="3302.5,-0.5 3302.5,-19.5 3361.5,-19.5 3361.5,-0.5 3302.5,-0.5"/>
<text text-anchor="middle" x="3332" y="-7.5" font-family="Helvetica,sans-Serif" font-size="10.00">iostream</text>
</g>
<!-- Node17&#45;&gt;Node18 -->
<g id="edge19" class="edge"><title>Node17&#45;&gt;Node18</title>
<path fill="none" stroke="midnightblue" d="M2444.77,-62.6275C2598.16,-53.7021 3139.54,-22.1995 3291.86,-13.3359"/>
<polygon fill="midnightblue" stroke="midnightblue" points="3292.36,-16.8126 3302.14,-12.7375 3291.95,-9.82442 3292.36,-16.8126"/>
</g>
<!-- Node20&#45;&gt;Node5 -->
<g id="edge23" class="edge"><title>Node20&#45;&gt;Node5</title>
<path fill="none" stroke="midnightblue" d="M1135.17,-246.497C1101.66,-236.442 1055.52,-222.512 1015,-210 1010.03,-208.464 1004.76,-206.82 999.628,-205.209"/>
<polygon fill="midnightblue" stroke="midnightblue" points="1000.64,-201.859 990.052,-202.193 998.538,-208.536 1000.64,-201.859"/>
</g>
<!-- Node20&#45;&gt;Node16 -->
<g id="edge48" class="edge"><title>Node20&#45;&gt;Node16</title>
<path fill="none" stroke="midnightblue" d="M1163.26,-246.257C1142.6,-228.908 1114.7,-199.395 1134,-179 1148.91,-163.247 1802.61,-137.679 1995.79,-130.456"/>
<polygon fill="midnightblue" stroke="midnightblue" points="1996.11,-133.946 2005.97,-130.076 1995.85,-126.951 1996.11,-133.946"/>
</g>
<!-- Node21 -->
<g id="node21" class="node"><title>Node21</title>
<polygon fill="white" stroke="#bfbfbf" points="1445.5,-185 1445.5,-204 1502.5,-204 1502.5,-185 1445.5,-185"/>
<text text-anchor="middle" x="1474" y="-192" font-family="Helvetica,sans-Serif" font-size="10.00">ostream</text>
</g>
<!-- Node20&#45;&gt;Node21 -->
<g id="edge24" class="edge"><title>Node20&#45;&gt;Node21</title>
<path fill="none" stroke="midnightblue" d="M1235.56,-248.578C1293.32,-235.72 1383.88,-215.562 1435.16,-204.145"/>
<polygon fill="midnightblue" stroke="midnightblue" points="1436.18,-207.504 1445.18,-201.915 1434.66,-200.672 1436.18,-207.504"/>
</g>
<!-- Node20&#45;&gt;Node22 -->
<g id="edge25" class="edge"><title>Node20&#45;&gt;Node22</title>
<path fill="none" stroke="midnightblue" d="M1213.03,-246.396C1234.02,-236.856 1261.94,-224.163 1284.65,-213.84"/>
<polygon fill="midnightblue" stroke="midnightblue" points="1286.38,-216.901 1294.03,-209.577 1283.48,-210.528 1286.38,-216.901"/>
</g>
<!-- Node20&#45;&gt;Node26 -->
<g id="edge42" class="edge"><title>Node20&#45;&gt;Node26</title>
<path fill="none" stroke="midnightblue" d="M1153.15,-246.499C1103.78,-222.539 1003.1,-173.679 948.043,-146.962"/>
<polygon fill="midnightblue" stroke="midnightblue" points="949.489,-143.774 938.965,-142.556 946.433,-150.071 949.489,-143.774"/>
</g>
<!-- Node20&#45;&gt;Node32 -->
<g id="edge43" class="edge"><title>Node20&#45;&gt;Node32</title>
<path fill="none" stroke="midnightblue" d="M1184.39,-246.396C1185.98,-236.963 1188.1,-224.448 1189.84,-214.189"/>
<polygon fill="midnightblue" stroke="midnightblue" points="1193.31,-214.638 1191.53,-204.195 1186.41,-213.47 1193.31,-214.638"/>
</g>
<!-- Node22&#45;&gt;Node12 -->
<g id="edge29" class="edge"><title>Node22&#45;&gt;Node12</title>
<path fill="none" stroke="midnightblue" d="M1389.16,-183.992C1404.47,-182.035 1420.79,-180.205 1436,-179 1577.17,-167.814 2574.75,-184.964 2710,-143 2734.26,-135.475 2734.92,-122.601 2758,-112 2768.89,-106.998 2835.3,-87.9786 2876.65,-76.3266"/>
<polygon fill="midnightblue" stroke="midnightblue" points="2877.65,-79.6827 2886.33,-73.6066 2875.75,-72.944 2877.65,-79.6827"/>
</g>
<!-- Node22&#45;&gt;Node15 -->
<g id="edge28" class="edge"><title>Node22&#45;&gt;Node15</title>
<path fill="none" stroke="midnightblue" d="M1389.15,-183.983C1404.47,-182.026 1420.79,-180.199 1436,-179 2017.53,-133.16 2165.66,-177.018 2748,-143 2793.46,-140.344 2845.93,-135.28 2878.54,-131.896"/>
<polygon fill="midnightblue" stroke="midnightblue" points="2879.22,-135.344 2888.8,-130.819 2878.49,-128.382 2879.22,-135.344"/>
</g>
<!-- Node23 -->
<g id="node23" class="node"><title>Node23</title>
<polygon fill="white" stroke="#bfbfbf" points="1467,-112.5 1467,-142.5 1609,-142.5 1609,-112.5 1467,-112.5"/>
<text text-anchor="start" x="1475" y="-130.5" font-family="Helvetica,sans-Serif" font-size="10.00">tbb/concurrent_unordered</text>
<text text-anchor="middle" x="1538" y="-119.5" font-family="Helvetica,sans-Serif" font-size="10.00">_map.h</text>
</g>
<!-- Node22&#45;&gt;Node23 -->
<g id="edge26" class="edge"><title>Node22&#45;&gt;Node23</title>
<path fill="none" stroke="midnightblue" d="M1370.96,-179.476C1403.46,-169.557 1447.23,-156.201 1481.81,-145.648"/>
<polygon fill="midnightblue" stroke="midnightblue" points="1483.22,-148.877 1491.76,-142.611 1481.17,-142.182 1483.22,-148.877"/>
</g>
<!-- Node24 -->
<g id="node24" class="node"><title>Node24</title>
<polygon fill="white" stroke="#bfbfbf" points="1177.5,-56.5 1177.5,-75.5 1240.5,-75.5 1240.5,-56.5 1177.5,-56.5"/>
<text text-anchor="middle" x="1209" y="-63.5" font-family="Helvetica,sans-Serif" font-size="10.00">functional</text>
</g>
<!-- Node22&#45;&gt;Node24 -->
<g id="edge27" class="edge"><title>Node22&#45;&gt;Node24</title>
<path fill="none" stroke="midnightblue" d="M1295.57,-179.377C1279.66,-170.618 1260.55,-158.148 1247,-143 1231.83,-126.046 1221.15,-101.938 1215.05,-85.448"/>
<polygon fill="midnightblue" stroke="midnightblue" points="1218.3,-84.1516 1211.7,-75.8635 1211.7,-86.4584 1218.3,-84.1516"/>
</g>
<!-- Node25 -->
<g id="node25" class="node"><title>Node25</title>
<g id="a_node25"><a xlink:href="operation_8h.html" target="_top" xlink:title="core/operation/operation.h">
<polygon fill="white" stroke="black" points="1256,-118 1256,-137 1400,-137 1400,-118 1256,-118"/>
<text text-anchor="middle" x="1328" y="-125" font-family="Helvetica,sans-Serif" font-size="10.00">core/operation/operation.h</text>
</a>
</g>
</g>
<!-- Node22&#45;&gt;Node25 -->
<g id="edge30" class="edge"><title>Node22&#45;&gt;Node25</title>
<path fill="none" stroke="midnightblue" d="M1325.65,-179.396C1326.09,-169.963 1326.66,-157.448 1327.14,-147.189"/>
<polygon fill="midnightblue" stroke="midnightblue" points="1330.63,-147.345 1327.6,-137.195 1323.64,-147.023 1330.63,-147.345"/>
</g>
<!-- Node22&#45;&gt;Node26 -->
<g id="edge33" class="edge"><title>Node22&#45;&gt;Node26</title>
<path fill="none" stroke="midnightblue" d="M1260.86,-180.742C1257.53,-180.139 1254.23,-179.555 1251,-179 1154.65,-162.434 1042.4,-146.446 973.788,-137.045"/>
<polygon fill="midnightblue" stroke="midnightblue" points="973.956,-133.535 963.574,-135.65 973.009,-140.471 973.956,-133.535"/>
</g>
<!-- Node28 -->
<g id="node28" class="node"><title>Node28</title>
<g id="a_node28"><a xlink:href="thread__info_8h.html" target="_top" xlink:title="core/util/thread_info.h">
<polygon fill="white" stroke="black" points="2546.5,-118 2546.5,-137 2667.5,-137 2667.5,-118 2546.5,-118"/>
<text text-anchor="middle" x="2607" y="-125" font-family="Helvetica,sans-Serif" font-size="10.00">core/util/thread_info.h</text>
</a>
</g>
</g>
<!-- Node22&#45;&gt;Node28 -->
<g id="edge35" class="edge"><title>Node22&#45;&gt;Node28</title>
<path fill="none" stroke="midnightblue" d="M1389.17,-184.155C1404.49,-182.191 1420.8,-180.318 1436,-179 1651.52,-160.311 2316.84,-137.83 2536.1,-130.748"/>
<polygon fill="midnightblue" stroke="midnightblue" points="2536.32,-134.243 2546.2,-130.423 2536.1,-127.247 2536.32,-134.243"/>
</g>
<!-- Node25&#45;&gt;Node9 -->
<g id="edge32" class="edge"><title>Node25&#45;&gt;Node9</title>
<path fill="none" stroke="midnightblue" d="M1335.52,-117.819C1352.09,-98.6715 1392.03,-52.5443 1413.6,-27.6306"/>
<polygon fill="midnightblue" stroke="midnightblue" points="1416.5,-29.6331 1420.4,-19.782 1411.2,-25.0512 1416.5,-29.6331"/>
</g>
<!-- Node25&#45;&gt;Node24 -->
<g id="edge31" class="edge"><title>Node25&#45;&gt;Node24</title>
<path fill="none" stroke="midnightblue" d="M1310.95,-117.975C1291.16,-108.078 1258.28,-91.6416 1235.23,-80.1151"/>
<polygon fill="midnightblue" stroke="midnightblue" points="1236.53,-76.8508 1226.02,-75.5091 1233.4,-83.1118 1236.53,-76.8508"/>
</g>
<!-- Node27 -->
<g id="node27" class="node"><title>Node27</title>
<polygon fill="white" stroke="#bfbfbf" points="510,-56.5 510,-75.5 560,-75.5 560,-56.5 510,-56.5"/>
<text text-anchor="middle" x="535" y="-63.5" font-family="Helvetica,sans-Serif" font-size="10.00">atomic</text>
</g>
<!-- Node26&#45;&gt;Node27 -->
<g id="edge34" class="edge"><title>Node26&#45;&gt;Node27</title>
<path fill="none" stroke="midnightblue" d="M856.298,-115.682C849.474,-114.395 842.579,-113.136 836,-112 740.127,-95.449 626.449,-79.4266 570.179,-71.735"/>
<polygon fill="midnightblue" stroke="midnightblue" points="570.416,-68.235 560.035,-70.3538 569.471,-75.171 570.416,-68.235"/>
</g>
<!-- Node28&#45;&gt;Node12 -->
<g id="edge38" class="edge"><title>Node28&#45;&gt;Node12</title>
<path fill="none" stroke="midnightblue" d="M2651.01,-117.934C2661.18,-115.97 2671.97,-113.901 2682,-112 2768.16,-95.6769 2790.44,-95.2338 2876,-76 2876.1,-75.9766 2876.21,-75.953 2876.31,-75.9294"/>
<polygon fill="midnightblue" stroke="midnightblue" points="2877.38,-79.2728 2886.28,-73.5232 2875.74,-72.4684 2877.38,-79.2728"/>
</g>
<!-- Node28&#45;&gt;Node17 -->
<g id="edge39" class="edge"><title>Node28&#45;&gt;Node17</title>
<path fill="none" stroke="midnightblue" d="M2577.92,-117.975C2542.42,-107.57 2482.25,-89.9367 2442.83,-78.3801"/>
<polygon fill="midnightblue" stroke="midnightblue" points="2443.61,-74.9632 2433.03,-75.5091 2441.64,-81.6806 2443.61,-74.9632"/>
</g>
<!-- Node29 -->
<g id="node29" class="node"><title>Node29</title>
<polygon fill="white" stroke="#bfbfbf" points="2621.5,-0.5 2621.5,-19.5 2668.5,-19.5 2668.5,-0.5 2621.5,-0.5"/>
<text text-anchor="middle" x="2645" y="-7.5" font-family="Helvetica,sans-Serif" font-size="10.00">omp.h</text>
</g>
<!-- Node28&#45;&gt;Node29 -->
<g id="edge36" class="edge"><title>Node28&#45;&gt;Node29</title>
<path fill="none" stroke="midnightblue" d="M2608.96,-117.702C2612.06,-104.245 2618.49,-77.8156 2626,-56 2629.1,-46.9787 2633.15,-37.1959 2636.71,-29.0631"/>
<polygon fill="midnightblue" stroke="midnightblue" points="2639.95,-30.3822 2640.85,-19.8255 2633.57,-27.5183 2639.95,-30.3822"/>
</g>
<!-- Node30 -->
<g id="node30" class="node"><title>Node30</title>
<polygon fill="white" stroke="#bfbfbf" points="2813,-56.5 2813,-75.5 2867,-75.5 2867,-56.5 2813,-56.5"/>
<text text-anchor="middle" x="2840" y="-63.5" font-family="Helvetica,sans-Serif" font-size="10.00">sched.h</text>
</g>
<!-- Node28&#45;&gt;Node30 -->
<g id="edge37" class="edge"><title>Node28&#45;&gt;Node30</title>
<path fill="none" stroke="midnightblue" d="M2640.38,-117.975C2683.46,-106.975 2758.17,-87.8959 2802.96,-76.4592"/>
<polygon fill="midnightblue" stroke="midnightblue" points="2804.03,-79.7987 2812.85,-73.9332 2802.29,-73.0163 2804.03,-79.7987"/>
</g>
<!-- Node31 -->
<g id="node31" class="node"><title>Node31</title>
<g id="a_node31"><a xlink:href="numa_8h.html" target="_top" xlink:title="core/util/numa.h">
<polygon fill="white" stroke="black" points="2635.5,-56.5 2635.5,-75.5 2730.5,-75.5 2730.5,-56.5 2635.5,-56.5"/>
<text text-anchor="middle" x="2683" y="-63.5" font-family="Helvetica,sans-Serif" font-size="10.00">core/util/numa.h</text>
</a>
</g>
</g>
<!-- Node28&#45;&gt;Node31 -->
<g id="edge40" class="edge"><title>Node28&#45;&gt;Node31</title>
<path fill="none" stroke="midnightblue" d="M2617.89,-117.975C2629.97,-108.52 2649.67,-93.0961 2664.24,-81.6871"/>
<polygon fill="midnightblue" stroke="midnightblue" points="2666.41,-84.4295 2672.13,-75.5091 2662.1,-78.9177 2666.41,-84.4295"/>
</g>
<!-- Node31&#45;&gt;Node29 -->
<g id="edge41" class="edge"><title>Node31&#45;&gt;Node29</title>
<path fill="none" stroke="midnightblue" d="M2676.73,-56.083C2671.36,-48.4554 2663.48,-37.2645 2656.92,-27.9408"/>
<polygon fill="midnightblue" stroke="midnightblue" points="2659.78,-25.9149 2651.16,-19.7511 2654.05,-29.9434 2659.78,-25.9149"/>
</g>
<!-- Node32&#45;&gt;Node9 -->
<g id="edge45" class="edge"><title>Node32&#45;&gt;Node9</title>
<path fill="none" stroke="midnightblue" d="M1227.3,-184.976C1235.39,-182.99 1244,-180.901 1252,-179 1321.65,-162.457 1360.51,-195.664 1409,-143 1437.53,-112.012 1435.11,-58.4009 1431.31,-29.9728"/>
<polygon fill="midnightblue" stroke="midnightblue" points="1434.73,-29.1331 1429.75,-19.7817 1427.81,-30.1976 1434.73,-29.1331"/>
</g>
<!-- Node32&#45;&gt;Node12 -->
<g id="edge46" class="edge"><title>Node32&#45;&gt;Node12</title>
<path fill="none" stroke="midnightblue" d="M1222.47,-184.934C1231.83,-182.572 1242.28,-180.302 1252,-179 1408.87,-157.991 2529.15,-202.041 2676,-143 2694.97,-135.372 2691.83,-121.378 2710,-112 2777.09,-77.379 2802.6,-93.6635 2876,-76 2876.1,-75.975 2876.21,-75.9499 2876.31,-75.9248"/>
<polygon fill="midnightblue" stroke="midnightblue" points="2877.41,-79.2585 2886.26,-73.4315 2875.71,-72.4686 2877.41,-79.2585"/>
</g>
<!-- Node32&#45;&gt;Node16 -->
<g id="edge47" class="edge"><title>Node32&#45;&gt;Node16</title>
<path fill="none" stroke="midnightblue" d="M1223.41,-184.931C1232.54,-182.658 1242.62,-180.439 1252,-179 1396.01,-156.92 1840.75,-137.057 1995.36,-130.653"/>
<polygon fill="midnightblue" stroke="midnightblue" points="1995.71,-134.142 2005.56,-130.233 1995.42,-127.148 1995.71,-134.142"/>
</g>
<!-- Node32&#45;&gt;Node24 -->
<g id="edge44" class="edge"><title>Node32&#45;&gt;Node24</title>
<path fill="none" stroke="midnightblue" d="M1194.1,-184.805C1196.67,-164.494 1203.11,-113.553 1206.63,-85.7768"/>
<polygon fill="midnightblue" stroke="midnightblue" points="1210.11,-86.1159 1207.89,-75.7557 1203.17,-85.2374 1210.11,-86.1159"/>
</g>
<!-- Node33&#45;&gt;Node9 -->
<g id="edge52" class="edge"><title>Node33&#45;&gt;Node9</title>
<path fill="none" stroke="midnightblue" d="M827.792,-115.667C834.26,-114.409 840.776,-113.161 847,-112 1055.9,-73.0365 1307.99,-30.8599 1395.91,-16.2944"/>
<polygon fill="midnightblue" stroke="midnightblue" points="1396.51,-19.7429 1405.8,-14.6571 1395.36,-12.8369 1396.51,-19.7429"/>
</g>
<!-- Node33&#45;&gt;Node27 -->
<g id="edge51" class="edge"><title>Node33&#45;&gt;Node27</title>
<path fill="none" stroke="midnightblue" d="M720.364,-113.147C674.406,-101.706 609.547,-85.5587 569.991,-75.7111"/>
<polygon fill="midnightblue" stroke="midnightblue" points="570.815,-72.3095 560.265,-73.2899 569.124,-79.1021 570.815,-72.3095"/>
</g>
<!-- Node35&#45;&gt;Node2 -->
<g id="edge70" class="edge"><title>Node35&#45;&gt;Node2</title>
<path fill="none" stroke="midnightblue" d="M728.462,-380.396C733.369,-372.219 739.665,-361.725 745.264,-352.393"/>
<polygon fill="midnightblue" stroke="midnightblue" points="748.41,-353.952 750.554,-343.577 742.408,-350.351 748.41,-353.952"/>
</g>
<!-- Node35&#45;&gt;Node36 -->
<g id="edge66" class="edge"><title>Node35&#45;&gt;Node36</title>
<path fill="none" stroke="midnightblue" d="M778.337,-381.424C832.341,-369.32 911.678,-351.538 962.076,-340.242"/>
<polygon fill="midnightblue" stroke="midnightblue" points="963.07,-343.606 972.063,-338.003 961.539,-336.775 963.07,-343.606"/>
</g>
<!-- Node35&#45;&gt;Node38 -->
<g id="edge71" class="edge"><title>Node35&#45;&gt;Node38</title>
<path fill="none" stroke="midnightblue" d="M661.832,-393.921C576.421,-389.822 417.536,-369.304 328,-277 311.101,-259.578 302.463,-232.358 298.344,-214.232"/>
<polygon fill="midnightblue" stroke="midnightblue" points="301.746,-213.396 296.33,-204.29 294.885,-214.786 301.746,-213.396"/>
</g>
<!-- Node36&#45;&gt;Node5 -->
<g id="edge67" class="edge"><title>Node36&#45;&gt;Node5</title>
<path fill="none" stroke="midnightblue" d="M1002.49,-318.899C994.641,-309.371 982.701,-293.203 977,-277 969.792,-256.514 968.337,-231.459 968.337,-214.581"/>
<polygon fill="midnightblue" stroke="midnightblue" points="971.84,-214.419 968.516,-204.359 964.841,-214.296 971.84,-214.419"/>
</g>
<!-- Node36&#45;&gt;Node17 -->
<g id="edge69" class="edge"><title>Node36&#45;&gt;Node17</title>
<path fill="none" stroke="midnightblue" d="M1063.76,-319.017C1111.71,-310.718 1183.47,-296.486 1244,-277 1315.05,-254.126 1334.26,-248.844 1398,-210 1416.61,-198.657 1415.94,-187.519 1436,-179 1493.78,-154.462 1934.63,-119.172 1997,-112 2124.99,-97.2817 2275.73,-80.8506 2352.87,-72.5076"/>
<polygon fill="midnightblue" stroke="midnightblue" points="2353.69,-75.9395 2363.26,-71.3851 2352.94,-68.98 2353.69,-75.9395"/>
</g>
<!-- Node37 -->
<g id="node37" class="node"><title>Node37</title>
<polygon fill="white" stroke="#bfbfbf" points="986.5,-252 986.5,-271 1033.5,-271 1033.5,-252 986.5,-252"/>
<text text-anchor="middle" x="1010" y="-259" font-family="Helvetica,sans-Serif" font-size="10.00">mutex</text>
</g>
<!-- Node36&#45;&gt;Node37 -->
<g id="edge68" class="edge"><title>Node36&#45;&gt;Node37</title>
<path fill="none" stroke="midnightblue" d="M1010,-318.734C1010,-309.183 1010,-293.618 1010,-281.283"/>
<polygon fill="midnightblue" stroke="midnightblue" points="1013.5,-281.127 1010,-271.127 1006.5,-281.127 1013.5,-281.127"/>
</g>
<!-- Node38&#45;&gt;Node10 -->
<g id="edge72" class="edge"><title>Node38&#45;&gt;Node10</title>
<path fill="none" stroke="midnightblue" d="M291.628,-184.734C287.88,-174.988 281.723,-158.981 276.935,-146.532"/>
<polygon fill="midnightblue" stroke="midnightblue" points="280.175,-145.204 273.318,-137.127 273.641,-147.717 280.175,-145.204"/>
</g>
<!-- Node38&#45;&gt;Node19 -->
<g id="edge73" class="edge"><title>Node38&#45;&gt;Node19</title>
<path fill="none" stroke="midnightblue" d="M304.036,-184.734C314.685,-174.403 332.585,-157.037 345.681,-144.332"/>
<polygon fill="midnightblue" stroke="midnightblue" points="348.367,-146.603 353.107,-137.127 343.493,-141.578 348.367,-146.603"/>
</g>
<!-- Node39&#45;&gt;Node3 -->
<g id="edge79" class="edge"><title>Node39&#45;&gt;Node3</title>
<path fill="none" stroke="midnightblue" d="M2476.15,-523.547C2565.29,-524.279 2811.89,-521.841 3011,-478 3107.56,-456.739 3218,-495.374 3218,-396.5 3218,-396.5 3218,-396.5 3218,-327.5 3218,-282.256 3195.51,-269.754 3157,-246 3117.34,-221.535 2984.65,-205.829 2916.37,-199.166"/>
<polygon fill="midnightblue" stroke="midnightblue" points="2916.68,-195.68 2906.39,-198.212 2916.01,-202.648 2916.68,-195.68"/>
</g>
<!-- Node39&#45;&gt;Node5 -->
<g id="edge84" class="edge"><title>Node39&#45;&gt;Node5</title>
<path fill="none" stroke="midnightblue" d="M2407.93,-522.612C2252.17,-520.671 1607.02,-510.768 1408,-478 1281.66,-457.198 921.808,-393.189 868,-277 862.21,-264.498 860.757,-257.72 868,-246 883.173,-221.45 914.295,-208.435 938.005,-201.808"/>
<polygon fill="midnightblue" stroke="midnightblue" points="939.143,-205.129 947.969,-199.268 937.414,-198.346 939.143,-205.129"/>
</g>
<!-- Node39&#45;&gt;Node6 -->
<g id="edge85" class="edge"><title>Node39&#45;&gt;Node6</title>
<path fill="none" stroke="midnightblue" d="M2407.91,-521.935C2242.35,-516.321 1530,-486.915 1530,-396.5 1530,-396.5 1530,-396.5 1530,-327.5 1530,-286.742 1538.98,-239.62 1544.6,-214.16"/>
<polygon fill="midnightblue" stroke="midnightblue" points="1548.08,-214.615 1546.89,-204.087 1541.26,-213.059 1548.08,-214.615"/>
</g>
<!-- Node39&#45;&gt;Node12 -->
<g id="edge88" class="edge"><title>Node39&#45;&gt;Node12</title>
<path fill="none" stroke="midnightblue" d="M2476.03,-522.532C2650.94,-519.999 3442.33,-506.968 3485,-478 3575.73,-416.401 3607.95,-348.512 3569,-246 3540.71,-171.543 3521.23,-147.637 3450,-112 3360.62,-67.2823 3047.6,-65.7955 2943.76,-66.5823"/>
<polygon fill="midnightblue" stroke="midnightblue" points="2943.51,-63.0843 2933.54,-66.6726 2943.57,-70.084 2943.51,-63.0843"/>
</g>
<!-- Node39&#45;&gt;Node13 -->
<g id="edge101" class="edge"><title>Node39&#45;&gt;Node13</title>
<path fill="none" stroke="midnightblue" d="M2444.83,-514.333C2456.49,-478.587 2501.1,-341.88 2519.25,-286.254"/>
<polygon fill="midnightblue" stroke="midnightblue" points="2522.64,-287.15 2522.41,-276.558 2515.98,-284.979 2522.64,-287.15"/>
</g>
<!-- Node39&#45;&gt;Node14 -->
<g id="edge82" class="edge"><title>Node39&#45;&gt;Node14</title>
<path fill="none" stroke="midnightblue" d="M2476.19,-522.843C2514.58,-520.885 2576.63,-512.136 2616,-478 2645.65,-452.288 2650,-435.748 2650,-396.5 2650,-396.5 2650,-396.5 2650,-327.5 2650,-287.158 2650,-239.88 2650,-214.282"/>
<polygon fill="midnightblue" stroke="midnightblue" points="2653.5,-214.149 2650,-204.149 2646.5,-214.149 2653.5,-214.149"/>
</g>
<!-- Node39&#45;&gt;Node15 -->
<g id="edge87" class="edge"><title>Node39&#45;&gt;Node15</title>
<path fill="none" stroke="midnightblue" d="M2476.27,-522.835C2596.32,-521.93 2997.15,-516.06 3119,-478 3174.37,-460.707 3202.01,-461.242 3231,-411 3289.53,-309.55 3211.11,-230.683 3106,-179 3051.29,-152.098 2980.71,-138.465 2940.9,-132.472"/>
<polygon fill="midnightblue" stroke="midnightblue" points="2941.4,-129.008 2931,-131.045 2940.4,-135.936 2941.4,-129.008"/>
</g>
<!-- Node39&#45;&gt;Node17 -->
<g id="edge150" class="edge"><title>Node39&#45;&gt;Node17</title>
<path fill="none" stroke="midnightblue" d="M2442,-514.411C2442,-493.977 2442,-440.863 2442,-396.5 2442,-396.5 2442,-396.5 2442,-193.5 2442,-153.35 2424.22,-108.946 2412.99,-84.8892"/>
<polygon fill="midnightblue" stroke="midnightblue" points="2416.01,-83.1043 2408.51,-75.6255 2409.71,-86.1518 2416.01,-83.1043"/>
</g>
<!-- Node39&#45;&gt;Node18 -->
<g id="edge83" class="edge"><title>Node39&#45;&gt;Node18</title>
<path fill="none" stroke="midnightblue" d="M2476.11,-522.584C2653.54,-520.292 3467,-508.204 3575,-478 3670.01,-451.428 3740,-428.16 3740,-329.5 3740,-329.5 3740,-329.5 3740,-126.5 3740,-50.5111 3474.67,-21.9689 3371.95,-13.7661"/>
<polygon fill="midnightblue" stroke="midnightblue" points="3371.91,-10.2529 3361.67,-12.9704 3371.37,-17.2321 3371.91,-10.2529"/>
</g>
<!-- Node39&#45;&gt;Node27 -->
<g id="edge81" class="edge"><title>Node39&#45;&gt;Node27</title>
<path fill="none" stroke="midnightblue" d="M2407.55,-523.014C2264.32,-522.797 1701.94,-519.214 1242,-478 1144.53,-469.266 1121.17,-458.618 1024,-447 859.508,-427.334 812.499,-455.77 653,-411 521.329,-374.041 448.658,-392.862 376,-277 326.966,-198.809 454.071,-113.383 510.064,-80.7286"/>
<polygon fill="midnightblue" stroke="midnightblue" points="512.079,-83.6078 519.019,-75.6027 508.602,-77.5325 512.079,-83.6078"/>
</g>
<!-- Node39&#45;&gt;Node29 -->
<g id="edge78" class="edge"><title>Node39&#45;&gt;Node29</title>
<path fill="none" stroke="midnightblue" d="M2476.19,-522.841C2648.63,-521.867 3418.66,-515.44 3518,-478 3616.34,-440.939 3702,-434.589 3702,-329.5 3702,-329.5 3702,-329.5 3702,-193.5 3702,-155.74 3707.1,-136.063 3678,-112 3599.23,-46.8664 2848.69,-17.852 2678.99,-12.0947"/>
<polygon fill="midnightblue" stroke="midnightblue" points="2679,-8.59301 2668.89,-11.7562 2678.76,-15.5891 2679,-8.59301"/>
</g>
<!-- Node39&#45;&gt;Node37 -->
<g id="edge86" class="edge"><title>Node39&#45;&gt;Node37</title>
<path fill="none" stroke="midnightblue" d="M2407.55,-522.927C2261.21,-522.371 1690.61,-517.654 1516,-478 1319.91,-433.47 1104.02,-316.369 1033.6,-276.23"/>
<polygon fill="midnightblue" stroke="midnightblue" points="1035.06,-273.034 1024.65,-271.093 1031.58,-279.106 1035.06,-273.034"/>
</g>
<!-- Node40 -->
<g id="node40" class="node"><title>Node40</title>
<polygon fill="white" stroke="#bfbfbf" points="3058,-252 3058,-271 3114,-271 3114,-252 3058,-252"/>
<text text-anchor="middle" x="3086" y="-259" font-family="Helvetica,sans-Serif" font-size="10.00">assert.h</text>
</g>
<!-- Node39&#45;&gt;Node40 -->
<g id="edge77" class="edge"><title>Node39&#45;&gt;Node40</title>
<path fill="none" stroke="midnightblue" d="M2476.24,-519.002C2520.51,-513.172 2599.59,-500.501 2664,-478 2825.41,-421.618 3002.87,-314.75 3063.94,-276.529"/>
<polygon fill="midnightblue" stroke="midnightblue" points="3065.81,-279.49 3072.41,-271.202 3062.08,-273.565 3065.81,-279.49"/>
</g>
<!-- Node41 -->
<g id="node41" class="node"><title>Node41</title>
<polygon fill="white" stroke="#bfbfbf" points="2784.5,-185 2784.5,-204 2825.5,-204 2825.5,-185 2784.5,-185"/>
<text text-anchor="middle" x="2805" y="-192" font-family="Helvetica,sans-Serif" font-size="10.00">array</text>
</g>
<!-- Node39&#45;&gt;Node41 -->
<g id="edge80" class="edge"><title>Node39&#45;&gt;Node41</title>
<path fill="none" stroke="midnightblue" d="M2476.12,-520.816C2621.26,-511.078 3180,-468.89 3180,-396.5 3180,-396.5 3180,-396.5 3180,-327.5 3180,-283.298 3160.86,-268.818 3123,-246 3012.52,-179.411 2958.71,-246.552 2835,-210 2833.13,-209.447 2831.23,-208.787 2829.34,-208.06"/>
<polygon fill="midnightblue" stroke="midnightblue" points="2830.75,-204.855 2820.19,-204.023 2827.92,-211.26 2830.75,-204.855"/>
</g>
<!-- Node42 -->
<g id="node42" class="node"><title>Node42</title>
<polygon fill="white" stroke="#bfbfbf" points="2508.5,-453 2508.5,-472 2607.5,-472 2607.5,-453 2508.5,-453"/>
<text text-anchor="middle" x="2558" y="-460" font-family="Helvetica,sans-Serif" font-size="10.00">morton/morton.h</text>
</g>
<!-- Node39&#45;&gt;Node42 -->
<g id="edge89" class="edge"><title>Node39&#45;&gt;Node42</title>
<path fill="none" stroke="midnightblue" d="M2458.62,-514.475C2477.92,-504.578 2509.96,-488.142 2532.43,-476.615"/>
<polygon fill="midnightblue" stroke="midnightblue" points="2534.11,-479.687 2541.41,-472.009 2530.92,-473.459 2534.11,-479.687"/>
</g>
<!-- Node43 -->
<g id="node43" class="node"><title>Node43</title>
<g id="a_node43"><a xlink:href="fixed__size__vector_8h.html" target="_top" xlink:title="core/container/fixed\l_size_vector.h">
<polygon fill="white" stroke="red" points="2204.5,-380.5 2204.5,-410.5 2315.5,-410.5 2315.5,-380.5 2204.5,-380.5"/>
<text text-anchor="start" x="2212.5" y="-398.5" font-family="Helvetica,sans-Serif" font-size="10.00">core/container/fixed</text>
<text text-anchor="middle" x="2260" y="-387.5" font-family="Helvetica,sans-Serif" font-size="10.00">_size_vector.h</text>
</a>
</g>
</g>
<!-- Node39&#45;&gt;Node43 -->
<g id="edge90" class="edge"><title>Node39&#45;&gt;Node43</title>
<path fill="none" stroke="midnightblue" d="M2419.33,-514.406C2399.62,-506.422 2370.75,-493.455 2348,-478 2322.31,-460.545 2296.68,-435.763 2279.77,-418.118"/>
<polygon fill="midnightblue" stroke="midnightblue" points="2282.05,-415.435 2272.64,-410.565 2276.96,-420.24 2282.05,-415.435"/>
</g>
<!-- Node44 -->
<g id="node44" class="node"><title>Node44</title>
<g id="a_node44"><a xlink:href="inline__vector_8h.html" target="_top" xlink:title="core/container/inline\l_vector.h">
<polygon fill="white" stroke="black" points="2262.5,-246.5 2262.5,-276.5 2375.5,-276.5 2375.5,-246.5 2262.5,-246.5"/>
<text text-anchor="start" x="2270.5" y="-264.5" font-family="Helvetica,sans-Serif" font-size="10.00">core/container/inline</text>
<text text-anchor="middle" x="2319" y="-253.5" font-family="Helvetica,sans-Serif" font-size="10.00">_vector.h</text>
</a>
</g>
</g>
<!-- Node39&#45;&gt;Node44 -->
<g id="edge92" class="edge"><title>Node39&#45;&gt;Node44</title>
<path fill="none" stroke="midnightblue" d="M2437.91,-514.333C2420.99,-478.512 2356.21,-341.311 2330.05,-285.908"/>
<polygon fill="midnightblue" stroke="midnightblue" points="2333.07,-284.106 2325.64,-276.558 2326.74,-287.095 2333.07,-284.106"/>
</g>
<!-- Node45 -->
<g id="node45" class="node"><title>Node45</title>
<g id="a_node45"><a xlink:href="parallel__resize__vector_8h.html" target="_top" xlink:title="core/container/parallel\l_resize_vector.h">
<polygon fill="white" stroke="red" points="3436.5,-246.5 3436.5,-276.5 3559.5,-276.5 3559.5,-246.5 3436.5,-246.5"/>
<text text-anchor="start" x="3444.5" y="-264.5" font-family="Helvetica,sans-Serif" font-size="10.00">core/container/parallel</text>
<text text-anchor="middle" x="3498" y="-253.5" font-family="Helvetica,sans-Serif" font-size="10.00">_resize_vector.h</text>
</a>
</g>
</g>
<!-- Node39&#45;&gt;Node45 -->
<g id="edge102" class="edge"><title>Node39&#45;&gt;Node45</title>
<path fill="none" stroke="midnightblue" d="M2476.21,-522.679C2649.33,-520.905 3422.23,-511.144 3460,-478 3515,-429.737 3508.75,-332.101 3502.28,-286.713"/>
<polygon fill="midnightblue" stroke="midnightblue" points="3505.7,-285.952 3500.71,-276.608 3498.79,-287.027 3505.7,-285.952"/>
</g>
<!-- Node46 -->
<g id="node46" class="node"><title>Node46</title>
<g id="a_node46"><a xlink:href="sim__object__vector_8h.html" target="_top" xlink:title="core/container/sim\l_object_vector.h">
<polygon fill="white" stroke="black" points="2187,-447.5 2187,-477.5 2293,-477.5 2293,-447.5 2187,-447.5"/>
<text text-anchor="start" x="2195" y="-465.5" font-family="Helvetica,sans-Serif" font-size="10.00">core/container/sim</text>
<text text-anchor="middle" x="2240" y="-454.5" font-family="Helvetica,sans-Serif" font-size="10.00">_object_vector.h</text>
</a>
</g>
</g>
<!-- Node39&#45;&gt;Node46 -->
<g id="edge104" class="edge"><title>Node39&#45;&gt;Node46</title>
<path fill="none" stroke="midnightblue" d="M2413.06,-514.475C2383.02,-505.626 2335.22,-491.549 2297.47,-480.428"/>
<polygon fill="midnightblue" stroke="midnightblue" points="2298.19,-476.991 2287.61,-477.523 2296.21,-483.706 2298.19,-476.991"/>
</g>
<!-- Node39&#45;&gt;Node47 -->
<g id="edge149" class="edge"><title>Node39&#45;&gt;Node47</title>
<path fill="none" stroke="midnightblue" d="M2407.68,-519.687C2356.77,-514.207 2258.58,-501.456 2178,-478 2115.53,-459.816 2046.1,-427.491 2009.61,-409.5"/>
<polygon fill="midnightblue" stroke="midnightblue" points="2011.16,-406.362 2000.65,-405.04 2008.05,-412.629 2011.16,-406.362"/>
</g>
<!-- Node49 -->
<g id="node49" class="node"><title>Node49</title>
<g id="a_node49"><a xlink:href="core_2param_2param_8h.html" target="_top" xlink:title="core/param/param.h">
<polygon fill="white" stroke="red" points="1672,-252 1672,-271 1788,-271 1788,-252 1672,-252"/>
<text text-anchor="middle" x="1730" y="-259" font-family="Helvetica,sans-Serif" font-size="10.00">core/param/param.h</text>
</a>
</g>
</g>
<!-- Node39&#45;&gt;Node49 -->
<g id="edge148" class="edge"><title>Node39&#45;&gt;Node49</title>
<path fill="none" stroke="midnightblue" d="M2408,-523.066C2319.11,-521.801 2074.96,-508.992 1905,-411 1838.74,-372.796 1773.46,-308.394 1744.94,-278.56"/>
<polygon fill="midnightblue" stroke="midnightblue" points="1747.31,-275.976 1737.9,-271.113 1742.22,-280.784 1747.31,-275.976"/>
</g>
<!-- Node50 -->
<g id="node50" class="node"><title>Node50</title>
<g id="a_node50"><a xlink:href="spinlock_8h.html" target="_top" xlink:title="core/util/spinlock.h">
<polygon fill="white" stroke="black" points="910.5,-453 910.5,-472 1015.5,-472 1015.5,-453 910.5,-453"/>
<text text-anchor="middle" x="963" y="-460" font-family="Helvetica,sans-Serif" font-size="10.00">core/util/spinlock.h</text>
</a>
</g>
</g>
<!-- Node39&#45;&gt;Node50 -->
<g id="edge151" class="edge"><title>Node39&#45;&gt;Node50</title>
<path fill="none" stroke="midnightblue" d="M2407.91,-522.261C2259.86,-518.953 1657.82,-504.497 1164,-478 1117.72,-475.517 1065.52,-471.721 1025.91,-468.636"/>
<polygon fill="midnightblue" stroke="midnightblue" points="1026.11,-465.141 1015.87,-467.848 1025.56,-472.119 1026.11,-465.141"/>
</g>
<!-- Node43&#45;&gt;Node4 -->
<g id="edge91" class="edge"><title>Node43&#45;&gt;Node4</title>
<path fill="none" stroke="midnightblue" d="M2254.25,-380.188C2240,-344.759 2203.12,-253 2187.34,-213.749"/>
<polygon fill="midnightblue" stroke="midnightblue" points="2190.54,-212.333 2183.56,-204.36 2184.04,-214.944 2190.54,-212.333"/>
</g>
<!-- Node44&#45;&gt;Node3 -->
<g id="edge93" class="edge"><title>Node44&#45;&gt;Node3</title>
<path fill="none" stroke="midnightblue" d="M2375.65,-254.642C2401.65,-251.973 2432.89,-248.792 2461,-246 2626.73,-229.541 2671.4,-246.033 2834,-210 2837.42,-209.242 2840.95,-208.282 2844.43,-207.219"/>
<polygon fill="midnightblue" stroke="midnightblue" points="2845.63,-210.51 2854.01,-204.029 2843.41,-203.869 2845.63,-210.51"/>
</g>
<!-- Node44&#45;&gt;Node4 -->
<g id="edge95" class="edge"><title>Node44&#45;&gt;Node4</title>
<path fill="none" stroke="midnightblue" d="M2288.84,-246.396C2264.56,-235.041 2230.72,-219.22 2207.25,-208.244"/>
<polygon fill="midnightblue" stroke="midnightblue" points="2208.73,-205.073 2198.19,-204.007 2205.77,-211.414 2208.73,-205.073"/>
</g>
<!-- Node44&#45;&gt;Node5 -->
<g id="edge96" class="edge"><title>Node44&#45;&gt;Node5</title>
<path fill="none" stroke="midnightblue" d="M2262.22,-258.988C2091.44,-254.247 1567.56,-238.274 1134,-210 1087.26,-206.952 1033.21,-201.913 1000.06,-198.65"/>
<polygon fill="midnightblue" stroke="midnightblue" points="1000.37,-195.164 990.074,-197.658 999.679,-202.13 1000.37,-195.164"/>
</g>
<!-- Node44&#45;&gt;Node8 -->
<g id="edge97" class="edge"><title>Node44&#45;&gt;Node8</title>
<path fill="none" stroke="midnightblue" d="M2262.47,-258.659C2074.42,-252.488 1452.79,-231.694 939,-210 843.894,-205.984 732.039,-200.411 674.497,-197.481"/>
<polygon fill="midnightblue" stroke="midnightblue" points="674.567,-193.98 664.401,-196.966 674.21,-200.971 674.567,-193.98"/>
</g>
<!-- Node44&#45;&gt;Node12 -->
<g id="edge98" class="edge"><title>Node44&#45;&gt;Node12</title>
<path fill="none" stroke="midnightblue" d="M2345.07,-246.476C2380.76,-227.928 2447.35,-195.651 2508,-179 2628.14,-146.015 2669.01,-185.851 2786,-143 2809.85,-134.265 2812.4,-125.361 2834,-112 2851.39,-101.244 2871.28,-89.4857 2886.35,-80.6866"/>
<polygon fill="midnightblue" stroke="midnightblue" points="2888.16,-83.681 2895.04,-75.6257 2884.64,-77.6311 2888.16,-83.681"/>
</g>
<!-- Node44&#45;&gt;Node16 -->
<g id="edge100" class="edge"><title>Node44&#45;&gt;Node16</title>
<path fill="none" stroke="midnightblue" d="M2310.58,-246.352C2298.88,-227.971 2275.97,-196.202 2248,-179 2203.4,-151.574 2144.47,-138.996 2102.33,-133.255"/>
<polygon fill="midnightblue" stroke="midnightblue" points="2102.63,-129.765 2092.27,-131.97 2101.74,-136.709 2102.63,-129.765"/>
</g>
<!-- Node44&#45;&gt;Node17 -->
<g id="edge99" class="edge"><title>Node44&#45;&gt;Node17</title>
<path fill="none" stroke="midnightblue" d="M2325.25,-246.271C2340.46,-211.648 2379.38,-123.055 2396.13,-84.911"/>
<polygon fill="midnightblue" stroke="midnightblue" points="2399.41,-86.1402 2400.23,-75.5769 2393.01,-83.3248 2399.41,-86.1402"/>
</g>
<!-- Node44&#45;&gt;Node41 -->
<g id="edge94" class="edge"><title>Node44&#45;&gt;Node41</title>
<path fill="none" stroke="midnightblue" d="M2375.7,-252.916C2478.98,-239.103 2694.48,-210.281 2774.35,-199.599"/>
<polygon fill="midnightblue" stroke="midnightblue" points="2774.82,-203.068 2784.27,-198.273 2773.89,-196.129 2774.82,-203.068"/>
</g>
<!-- Node45&#45;&gt;Node12 -->
<g id="edge103" class="edge"><title>Node45&#45;&gt;Node12</title>
<path fill="none" stroke="midnightblue" d="M3495.48,-246.481C3489.21,-216.07 3469.8,-144.195 3422,-112 3382.43,-85.3475 3051.6,-71.8195 2943.81,-68.0893"/>
<polygon fill="midnightblue" stroke="midnightblue" points="2943.91,-64.5909 2933.8,-67.7491 2943.68,-71.5869 2943.91,-64.5909"/>
</g>
<!-- Node46&#45;&gt;Node12 -->
<g id="edge105" class="edge"><title>Node46&#45;&gt;Node12</title>
<path fill="none" stroke="midnightblue" d="M2293.22,-458.149C2521.72,-443.067 3408,-377.178 3408,-262.5 3408,-262.5 3408,-262.5 3408,-193.5 3408,-132.655 3354.58,-134.374 3298,-112 3233.74,-86.5878 3025.86,-73.1159 2943.78,-68.6794"/>
<polygon fill="midnightblue" stroke="midnightblue" points="2943.91,-65.1813 2933.74,-68.1479 2943.54,-72.1715 2943.91,-65.1813"/>
</g>
<!-- Node46&#45;&gt;Node32 -->
<g id="edge147" class="edge"><title>Node46&#45;&gt;Node32</title>
<path fill="none" stroke="midnightblue" d="M2186.56,-458.996C2061.25,-451.884 1739.91,-426.409 1486,-344 1378.45,-309.093 1261.73,-239.173 1214.56,-209.419"/>
<polygon fill="midnightblue" stroke="midnightblue" points="1216.4,-206.438 1206.08,-204.026 1212.64,-212.345 1216.4,-206.438"/>
</g>
<!-- Node46&#45;&gt;Node47 -->
<g id="edge106" class="edge"><title>Node46&#45;&gt;Node47</title>
<path fill="none" stroke="midnightblue" d="M2186.96,-448.032C2139.81,-436.061 2071.71,-418.771 2027.65,-407.584"/>
<polygon fill="midnightblue" stroke="midnightblue" points="2028.37,-404.155 2017.82,-405.086 2026.65,-410.939 2028.37,-404.155"/>
</g>
<!-- Node47&#45;&gt;Node2 -->
<g id="edge140" class="edge"><title>Node47&#45;&gt;Node2</title>
<path fill="none" stroke="midnightblue" d="M1913.93,-392.468C1742.04,-387.211 1285.8,-371.609 906,-344 879.811,-342.096 851.055,-339.396 825.975,-336.84"/>
<polygon fill="midnightblue" stroke="midnightblue" points="826.141,-333.339 815.834,-335.795 825.423,-340.302 826.141,-333.339"/>
</g>
<!-- Node47&#45;&gt;Node3 -->
<g id="edge110" class="edge"><title>Node47&#45;&gt;Node3</title>
<path fill="none" stroke="midnightblue" d="M2054.32,-389.429C2095.34,-386.53 2148.09,-382.905 2195,-380 2267.53,-375.509 2793.51,-392.079 2848,-344 2884.92,-311.419 2882.19,-246.651 2878.12,-214.507"/>
<polygon fill="midnightblue" stroke="midnightblue" points="2881.53,-213.655 2876.63,-204.261 2874.61,-214.66 2881.53,-213.655"/>
</g>
<!-- Node47&#45;&gt;Node5 -->
<g id="edge112" class="edge"><title>Node47&#45;&gt;Node5</title>
<path fill="none" stroke="midnightblue" d="M1913.77,-389.986C1729.56,-377.408 1236.34,-338.775 1086,-277 1063.87,-267.908 1061.61,-259.694 1042,-246 1024.42,-233.727 1004.39,-219.879 989.761,-209.792"/>
<polygon fill="midnightblue" stroke="midnightblue" points="991.643,-206.838 981.422,-204.046 987.67,-212.602 991.643,-206.838"/>
</g>
<!-- Node47&#45;&gt;Node6 -->
<g id="edge113" class="edge"><title>Node47&#45;&gt;Node6</title>
<path fill="none" stroke="midnightblue" d="M1913.86,-394.358C1847.55,-391.726 1746.77,-381.133 1668,-344 1627.27,-324.8 1619.85,-312.382 1592,-277 1576.43,-257.221 1563.76,-230.968 1556.3,-213.67"/>
<polygon fill="midnightblue" stroke="midnightblue" points="1559.43,-212.08 1552.35,-204.196 1552.97,-214.773 1559.43,-212.08"/>
</g>
<!-- Node47&#45;&gt;Node7 -->
<g id="edge115" class="edge"><title>Node47&#45;&gt;Node7</title>
<path fill="none" stroke="midnightblue" d="M1983.2,-385.888C1980.69,-362.14 1971.44,-294.286 1944,-246 1936.38,-232.591 1924.36,-220.125 1914.13,-210.934"/>
<polygon fill="midnightblue" stroke="midnightblue" points="1916.29,-208.178 1906.43,-204.309 1911.73,-213.484 1916.29,-208.178"/>
</g>
<!-- Node47&#45;&gt;Node9 -->
<g id="edge116" class="edge"><title>Node47&#45;&gt;Node9</title>
<path fill="none" stroke="midnightblue" d="M1913.75,-388.024C1840.41,-377.437 1727.31,-349.661 1663,-277 1638.35,-249.148 1644,-232.694 1644,-195.5 1644,-195.5 1644,-195.5 1644,-126.5 1644,-44.2624 1520.74,-20.3614 1460.44,-13.5895"/>
<polygon fill="midnightblue" stroke="midnightblue" points="1460.61,-10.0882 1450.3,-12.546 1459.89,-17.0515 1460.61,-10.0882"/>
</g>
<!-- Node47&#45;&gt;Node12 -->
<g id="edge118" class="edge"><title>Node47&#45;&gt;Node12</title>
<path fill="none" stroke="midnightblue" d="M2054.3,-389.144C2095.32,-386.15 2148.07,-382.525 2195,-380 2326.02,-372.95 3370,-393.707 3370,-262.5 3370,-262.5 3370,-262.5 3370,-193.5 3370,-105.116 3050.29,-76.18 2943.94,-68.9993"/>
<polygon fill="midnightblue" stroke="midnightblue" points="2943.97,-65.4936 2933.76,-68.3349 2943.51,-72.4788 2943.97,-65.4936"/>
</g>
<!-- Node47&#45;&gt;Node14 -->
<g id="edge111" class="edge"><title>Node47&#45;&gt;Node14</title>
<path fill="none" stroke="midnightblue" d="M2054.09,-387.627C2194.52,-372.8 2504.47,-334.436 2593,-277 2616.83,-261.537 2633.57,-232.286 2642.5,-213.357"/>
<polygon fill="midnightblue" stroke="midnightblue" points="2645.77,-214.614 2646.64,-204.055 2639.38,-211.763 2645.77,-214.614"/>
</g>
<!-- Node47&#45;&gt;Node15 -->
<g id="edge117" class="edge"><title>Node47&#45;&gt;Node15</title>
<path fill="none" stroke="midnightblue" d="M2054.31,-389.352C2095.33,-386.428 2148.08,-382.803 2195,-380 2509.96,-361.184 2593.24,-398.565 2904,-344 3004.25,-326.397 3062.46,-358.827 3123,-277 3177.3,-203.6 3012.35,-153.391 2941.09,-135.621"/>
<polygon fill="midnightblue" stroke="midnightblue" points="2941.84,-132.2 2931.3,-133.235 2940.18,-139.002 2941.84,-132.2"/>
</g>
<!-- Node47&#45;&gt;Node16 -->
<g id="edge144" class="edge"><title>Node47&#45;&gt;Node16</title>
<path fill="none" stroke="midnightblue" d="M1992.09,-385.984C2000.56,-376.528 2013.51,-360.421 2020,-344 2047.17,-275.281 2049.75,-185.653 2049.45,-147.272"/>
<polygon fill="midnightblue" stroke="midnightblue" points="2052.95,-147.03 2049.29,-137.086 2045.95,-147.139 2052.95,-147.03"/>
</g>
<!-- Node47&#45;&gt;Node21 -->
<g id="edge114" class="edge"><title>Node47&#45;&gt;Node21</title>
<path fill="none" stroke="midnightblue" d="M1913.86,-390.261C1822.46,-383.813 1668.35,-369.511 1618,-344 1556.45,-312.817 1506.18,-244.799 1484.93,-212.798"/>
<polygon fill="midnightblue" stroke="midnightblue" points="1487.66,-210.584 1479.28,-204.103 1481.79,-214.396 1487.66,-210.584"/>
</g>
<!-- Node47&#45;&gt;Node23 -->
<g id="edge109" class="edge"><title>Node47&#45;&gt;Node23</title>
<path fill="none" stroke="midnightblue" d="M1913.96,-392.152C1855.72,-387.824 1772,-375.972 1706,-344 1685.74,-334.184 1643.36,-295.124 1630,-277 1601.67,-238.566 1612.6,-218.646 1586,-179 1579.01,-168.59 1569.82,-158.332 1561.35,-149.809"/>
<polygon fill="midnightblue" stroke="midnightblue" points="1563.76,-147.279 1554.16,-142.806 1558.88,-152.292 1563.76,-147.279"/>
</g>
<!-- Node47&#45;&gt;Node26 -->
<g id="edge141" class="edge"><title>Node47&#45;&gt;Node26</title>
<path fill="none" stroke="midnightblue" d="M1913.93,-393.475C1686.77,-389.841 983.184,-376.038 947,-344 892.256,-295.528 898.946,-197.998 905.614,-152.675"/>
<polygon fill="midnightblue" stroke="midnightblue" points="909.104,-153.013 907.228,-142.585 902.192,-151.906 909.104,-153.013"/>
</g>
<!-- Node47&#45;&gt;Node28 -->
<g id="edge145" class="edge"><title>Node47&#45;&gt;Node28</title>
<path fill="none" stroke="midnightblue" d="M2054.32,-389.393C2095.34,-386.482 2148.09,-382.857 2195,-380 2270.3,-375.414 2813.41,-390.256 2873,-344 2932.78,-297.601 2963.99,-236.675 2915,-179 2885.19,-143.9 2759.17,-133.147 2677.86,-129.885"/>
<polygon fill="midnightblue" stroke="midnightblue" points="2677.8,-126.38 2667.68,-129.506 2677.54,-133.375 2677.8,-126.38"/>
</g>
<!-- Node47&#45;&gt;Node29 -->
<g id="edge107" class="edge"><title>Node47&#45;&gt;Node29</title>
<path fill="none" stroke="midnightblue" d="M1984.78,-385.929C1985.68,-375.889 1987.13,-358.75 1988,-344 1988.76,-331.124 1988.43,-121.638 1997,-112 2079.36,-19.4069 2490.18,-11.2538 2611.33,-10.8876"/>
<polygon fill="midnightblue" stroke="midnightblue" points="2611.49,-14.3875 2621.49,-10.8736 2611.48,-7.38749 2611.49,-14.3875"/>
</g>
<!-- Node47&#45;&gt;Node30 -->
<g id="edge108" class="edge"><title>Node47&#45;&gt;Node30</title>
<path fill="none" stroke="midnightblue" d="M2054.3,-389.179C2095.32,-386.197 2148.07,-382.572 2195,-380 2292.71,-374.645 2983.03,-377.424 3075,-344 3120.87,-327.331 3140.45,-320.79 3162,-277 3168.79,-263.206 3171.6,-199.859 3160,-179 3133.82,-131.921 3108.81,-132.505 3059,-112 2982.75,-80.6132 2957.52,-93.7485 2877,-76 2876.9,-75.9778 2876.8,-75.9555 2876.7,-75.9331"/>
<polygon fill="midnightblue" stroke="midnightblue" points="2877.58,-72.5438 2867.05,-73.722 2876.01,-79.367 2877.58,-72.5438"/>
</g>
<!-- Node47&#45;&gt;Node31 -->
<g id="edge143" class="edge"><title>Node47&#45;&gt;Node31</title>
<path fill="none" stroke="midnightblue" d="M2054.31,-389.236C2095.33,-386.273 2148.08,-382.648 2195,-380 2376,-369.785 2834.66,-390.065 3010,-344 3073.63,-327.282 3107.58,-333.07 3142,-277 3236.04,-123.813 2884.71,-81.2882 2741.34,-70.4354"/>
<polygon fill="midnightblue" stroke="midnightblue" points="2741.2,-66.9164 2730.97,-69.6789 2740.69,-73.8978 2741.2,-66.9164"/>
</g>
<!-- Node47&#45;&gt;Node32 -->
<g id="edge142" class="edge"><title>Node47&#45;&gt;Node32</title>
<path fill="none" stroke="midnightblue" d="M1913.69,-392.351C1830.47,-388.341 1688.39,-376.858 1571,-344 1469.09,-315.475 1452.89,-283.682 1354,-246 1313.69,-230.639 1266.48,-216.239 1233.64,-206.778"/>
<polygon fill="midnightblue" stroke="midnightblue" points="1234.52,-203.388 1223.94,-204.005 1232.59,-210.118 1234.52,-203.388"/>
</g>
<!-- Node47&#45;&gt;Node38 -->
<g id="edge146" class="edge"><title>Node47&#45;&gt;Node38</title>
<path fill="none" stroke="midnightblue" d="M1913.66,-393.463C1680.16,-389.753 932.042,-375.636 693,-344 560.142,-326.417 520.001,-334.613 399,-277 363.843,-260.26 329.583,-229.886 310.489,-211.319"/>
<polygon fill="midnightblue" stroke="midnightblue" points="312.838,-208.72 303.275,-204.159 307.907,-213.688 312.838,-208.72"/>
</g>
<!-- Node48 -->
<g id="node48" class="node"><title>Node48</title>
<g id="a_node48"><a xlink:href="diffusion__grid_8h.html" target="_top" xlink:title="core/diffusion_grid.h">
<polygon fill="white" stroke="red" points="2726.5,-319 2726.5,-338 2839.5,-338 2839.5,-319 2726.5,-319"/>
<text text-anchor="middle" x="2783" y="-326" font-family="Helvetica,sans-Serif" font-size="10.00">core/diffusion_grid.h</text>
</a>
</g>
</g>
<!-- Node47&#45;&gt;Node48 -->
<g id="edge119" class="edge"><title>Node47&#45;&gt;Node48</title>
<path fill="none" stroke="midnightblue" d="M2054.21,-388.789C2206.68,-376.385 2566.37,-347.123 2715.94,-334.955"/>
<polygon fill="midnightblue" stroke="midnightblue" points="2716.66,-338.409 2726.34,-334.109 2716.09,-331.432 2716.66,-338.409"/>
</g>
<!-- Node48&#45;&gt;Node3 -->
<g id="edge121" class="edge"><title>Node48&#45;&gt;Node3</title>
<path fill="none" stroke="midnightblue" d="M2792.88,-318.903C2803.43,-309.378 2820.23,-293.213 2832,-277 2846.79,-256.63 2859.64,-230.512 2867.35,-213.407"/>
<polygon fill="midnightblue" stroke="midnightblue" points="2870.64,-214.616 2871.46,-204.053 2864.23,-211.802 2870.64,-214.616"/>
</g>
<!-- Node48&#45;&gt;Node9 -->
<g id="edge126" class="edge"><title>Node48&#45;&gt;Node9</title>
<path fill="none" stroke="midnightblue" d="M2782.8,-318.996C2782.14,-303.704 2779.4,-270.845 2768,-246 2752.05,-211.239 2746.67,-198.877 2714,-179 2645.42,-137.277 2607.38,-181.613 2537,-143 2489.88,-117.147 2502,-78.0836 2453,-56 2360.83,-14.4613 1625.98,-11.2072 1460.86,-11.0026"/>
<polygon fill="midnightblue" stroke="midnightblue" points="1460.4,-7.50223 1450.39,-10.9929 1460.39,-14.5022 1460.4,-7.50223"/>
</g>
<!-- Node48&#45;&gt;Node12 -->
<g id="edge127" class="edge"><title>Node48&#45;&gt;Node12</title>
<path fill="none" stroke="midnightblue" d="M2797.47,-318.958C2812.77,-309.603 2837.23,-293.695 2856,-277 2885.65,-250.629 2894.62,-244.041 2915,-210 2938.09,-171.436 2953.03,-155.022 2940,-112 2936.88,-101.705 2930.55,-91.612 2924.5,-83.6023"/>
<polygon fill="midnightblue" stroke="midnightblue" points="2927.22,-81.3995 2918.21,-75.8175 2921.77,-85.7968 2927.22,-81.3995"/>
</g>
<!-- Node48&#45;&gt;Node13 -->
<g id="edge129" class="edge"><title>Node48&#45;&gt;Node13</title>
<path fill="none" stroke="midnightblue" d="M2749.27,-318.936C2709.43,-308.82 2642.25,-291.762 2592.15,-279.042"/>
<polygon fill="midnightblue" stroke="midnightblue" points="2592.93,-275.628 2582.37,-276.559 2591.2,-282.413 2592.93,-275.628"/>
</g>
<!-- Node48&#45;&gt;Node14 -->
<g id="edge123" class="edge"><title>Node48&#45;&gt;Node14</title>
<path fill="none" stroke="midnightblue" d="M2774.27,-318.839C2752.29,-297.018 2694.36,-239.526 2666.04,-211.422"/>
<polygon fill="midnightblue" stroke="midnightblue" points="2668.15,-208.581 2658.59,-204.021 2663.22,-213.55 2668.15,-208.581"/>
</g>
<!-- Node48&#45;&gt;Node16 -->
<g id="edge128" class="edge"><title>Node48&#45;&gt;Node16</title>
<path fill="none" stroke="midnightblue" d="M2726.21,-325.429C2597.16,-320.252 2290.13,-305.102 2253,-277 2215.75,-248.805 2249.24,-210.778 2215,-179 2184.45,-150.651 2138.44,-138.194 2102.6,-132.732"/>
<polygon fill="midnightblue" stroke="midnightblue" points="2102.7,-129.212 2092.31,-131.31 2101.74,-136.146 2102.7,-129.212"/>
</g>
<!-- Node48&#45;&gt;Node17 -->
<g id="edge139" class="edge"><title>Node48&#45;&gt;Node17</title>
<path fill="none" stroke="midnightblue" d="M2779.87,-318.636C2770.09,-292.352 2737.41,-214.471 2682,-179 2614.02,-135.482 2577.54,-176.258 2504,-143 2486.48,-135.077 2445.65,-102.007 2421.93,-82.1944"/>
<polygon fill="midnightblue" stroke="midnightblue" points="2423.95,-79.3199 2414.04,-75.5658 2419.45,-84.6789 2423.95,-79.3199"/>
</g>
<!-- Node48&#45;&gt;Node18 -->
<g id="edge125" class="edge"><title>Node48&#45;&gt;Node18</title>
<path fill="none" stroke="midnightblue" d="M2802.04,-318.861C2823.08,-309.172 2857.86,-292.744 2887,-277 3053.04,-187.278 3245.63,-66.0748 3309.88,-25.1578"/>
<polygon fill="midnightblue" stroke="midnightblue" points="3311.86,-28.0455 3318.41,-19.7167 3308.1,-22.1441 3311.86,-28.0455"/>
</g>
<!-- Node48&#45;&gt;Node24 -->
<g id="edge124" class="edge"><title>Node48&#45;&gt;Node24</title>
<path fill="none" stroke="midnightblue" d="M2726.31,-326.853C2438.08,-323.431 1147.6,-306.48 1119,-277 1063.05,-219.323 1152.02,-121.418 1191.58,-83.0767"/>
<polygon fill="midnightblue" stroke="midnightblue" points="1194.36,-85.2604 1199.2,-75.835 1189.54,-80.1857 1194.36,-85.2604"/>
</g>
<!-- Node48&#45;&gt;Node40 -->
<g id="edge120" class="edge"><title>Node48&#45;&gt;Node40</title>
<path fill="none" stroke="midnightblue" d="M2822.92,-318.936C2881.59,-306.35 2990.35,-283.019 3047.94,-270.665"/>
<polygon fill="midnightblue" stroke="midnightblue" points="3048.69,-274.083 3057.74,-268.563 3047.22,-267.239 3048.69,-274.083"/>
</g>
<!-- Node48&#45;&gt;Node41 -->
<g id="edge122" class="edge"><title>Node48&#45;&gt;Node41</title>
<path fill="none" stroke="midnightblue" d="M2790.82,-319C2798.93,-309.557 2811.1,-293.462 2816,-277 2822.28,-255.897 2817,-230.643 2811.81,-213.897"/>
<polygon fill="midnightblue" stroke="midnightblue" points="2815.07,-212.594 2808.54,-204.251 2808.44,-214.845 2815.07,-212.594"/>
</g>
<!-- Node48&#45;&gt;Node45 -->
<g id="edge130" class="edge"><title>Node48&#45;&gt;Node45</title>
<path fill="none" stroke="midnightblue" d="M2839.7,-322.345C2968.6,-310.628 3283.42,-282.007 3425.88,-269.056"/>
<polygon fill="midnightblue" stroke="midnightblue" points="3426.6,-272.505 3436.25,-268.114 3425.97,-265.534 3426.6,-272.505"/>
</g>
<!-- Node48&#45;&gt;Node49 -->
<g id="edge131" class="edge"><title>Node48&#45;&gt;Node49</title>
<path fill="none" stroke="midnightblue" d="M2726.39,-324.005C2547.18,-312.943 1992.76,-278.72 1798.27,-266.714"/>
<polygon fill="midnightblue" stroke="midnightblue" points="1798.38,-263.214 1788.18,-266.092 1797.95,-270.201 1798.38,-263.214"/>
</g>
<!-- Node49&#45;&gt;Node6 -->
<g id="edge132" class="edge"><title>Node49&#45;&gt;Node6</title>
<path fill="none" stroke="midnightblue" d="M1705.96,-251.869C1674.23,-240.473 1618.21,-220.353 1582.38,-207.487"/>
<polygon fill="midnightblue" stroke="midnightblue" points="1583.44,-204.15 1572.85,-204.064 1581.08,-210.738 1583.44,-204.15"/>
</g>
<!-- Node49&#45;&gt;Node7 -->
<g id="edge133" class="edge"><title>Node49&#45;&gt;Node7</title>
<path fill="none" stroke="midnightblue" d="M1751.91,-251.869C1782.29,-239.903 1837.08,-218.316 1869.33,-205.611"/>
<polygon fill="midnightblue" stroke="midnightblue" points="1870.93,-208.743 1878.95,-201.821 1868.37,-202.23 1870.93,-208.743"/>
</g>
<!-- Node49&#45;&gt;Node9 -->
<g id="edge134" class="edge"><title>Node49&#45;&gt;Node9</title>
<path fill="none" stroke="midnightblue" d="M1729.82,-251.867C1728.64,-220.224 1720.08,-109.656 1658,-56 1628.79,-30.7549 1516.5,-18.2097 1460.35,-13.4083"/>
<polygon fill="midnightblue" stroke="midnightblue" points="1460.49,-9.90757 1450.23,-12.5751 1459.91,-16.884 1460.49,-9.90757"/>
</g>
<!-- Node49&#45;&gt;Node11 -->
<g id="edge135" class="edge"><title>Node49&#45;&gt;Node11</title>
<path fill="none" stroke="midnightblue" d="M1671.96,-258.742C1471.71,-252.547 810.482,-230.97 599,-210 586.933,-208.803 574.054,-207.1 561.821,-205.279"/>
<polygon fill="midnightblue" stroke="midnightblue" points="562.145,-201.788 551.73,-203.731 561.083,-208.707 562.145,-201.788"/>
</g>
<!-- Node49&#45;&gt;Node12 -->
<g id="edge136" class="edge"><title>Node49&#45;&gt;Node12</title>
<path fill="none" stroke="midnightblue" d="M1788.33,-255.293C1879.52,-246.958 2061.32,-229.554 2215,-210 2306.85,-198.314 2329.19,-190.957 2421,-179 2565.99,-160.117 2613.16,-199.529 2748,-143 2768.1,-134.573 2767.04,-122.758 2786,-112 2801.82,-103.024 2845.73,-87.8666 2876.79,-77.6515"/>
<polygon fill="midnightblue" stroke="midnightblue" points="2877.96,-80.9539 2886.38,-74.5227 2875.78,-74.2996 2877.96,-80.9539"/>
</g>
<!-- Node49&#45;&gt;Node16 -->
<g id="edge137" class="edge"><title>Node49&#45;&gt;Node16</title>
<path fill="none" stroke="midnightblue" d="M1734.87,-251.924C1744.97,-234.963 1770,-197.205 1802,-179 1876.7,-136.501 1908.09,-161.603 1992,-143 1996.79,-141.937 2001.8,-140.762 2006.77,-139.554"/>
<polygon fill="midnightblue" stroke="midnightblue" points="2007.97,-142.862 2016.83,-137.054 2006.28,-136.068 2007.97,-142.862"/>
</g>
<!-- Node49&#45;&gt;Node38 -->
<g id="edge138" class="edge"><title>Node49&#45;&gt;Node38</title>
<path fill="none" stroke="midnightblue" d="M1671.95,-258.633C1455.02,-251.59 691.894,-226.211 449,-210 415.803,-207.784 378.669,-204.317 349.184,-201.329"/>
<polygon fill="midnightblue" stroke="midnightblue" points="349.397,-197.832 339.093,-200.295 348.684,-204.796 349.397,-197.832"/>
</g>
<!-- Node50&#45;&gt;Node27 -->
<g id="edge152" class="edge"><title>Node50&#45;&gt;Node27</title>
<path fill="none" stroke="midnightblue" d="M910.348,-461.555C777.618,-461.025 432.493,-455.296 328,-411 203.625,-358.276 155.592,-333.119 100,-210 70.6601,-145.021 159.218,-134.106 227,-112 322.523,-80.8459 441.758,-71.2083 499.875,-68.2664"/>
<polygon fill="midnightblue" stroke="midnightblue" points="500.171,-71.7565 509.996,-67.7913 499.843,-64.7642 500.171,-71.7565"/>
</g>
</g>
</svg>
