<?xml version="1.0" encoding="UTF-8" standalone="no"?>
<!DOCTYPE svg PUBLIC "-//W3C//DTD SVG 1.1//EN"
 "http://www.w3.org/Graphics/SVG/1.1/DTD/svg11.dtd">
<!-- Generated by graphviz version 2.36.0 (20140111.2315)
 -->
<!-- Title: simulation.h Pages: 1 -->
<svg width="1804pt" height="536pt"
 viewBox="0.00 0.00 1804.00 536.00" xmlns="http://www.w3.org/2000/svg" xmlns:xlink="http://www.w3.org/1999/xlink">
<g id="graph0" class="graph" transform="scale(1 1) rotate(0) translate(4 532)">
<title>simulation.h</title>
<polygon fill="white" stroke="none" points="-4,4 -4,-532 1800,-532 1800,4 -4,4"/>
<!-- Node1 -->
<g id="node1" class="node"><title>Node1</title>
<polygon fill="#bfbfbf" stroke="black" points="709.5,-508.5 709.5,-527.5 778.5,-527.5 778.5,-508.5 709.5,-508.5"/>
<text text-anchor="middle" x="744" y="-515.5" font-family="Helvetica,sans-Serif" font-size="10.00">simulation.h</text>
</g>
<!-- Node2 -->
<g id="node2" class="node"><title>Node2</title>
<g id="a_node2"><a xlink:href="regulate__genes_8h.html" target="_top" xlink:title="biology_module/regulate\l_genes.h">
<polygon fill="white" stroke="black" points="1674,-317 1674,-347 1796,-347 1796,-317 1674,-317"/>
<text text-anchor="start" x="1682" y="-335" font-family="Helvetica,sans-Serif" font-size="10.00">biology_module/regulate</text>
<text text-anchor="middle" x="1735" y="-324" font-family="Helvetica,sans-Serif" font-size="10.00">_genes.h</text>
</a>
</g>
</g>
<!-- Node1&#45;&gt;Node2 -->
<g id="edge1" class="edge"><title>Node1&#45;&gt;Node2</title>
<path fill="none" stroke="midnightblue" d="M788.78,-516.177C949.773,-512.994 1493.51,-500.239 1566,-472 1635.73,-444.833 1698.22,-377.165 1723.32,-347.417"/>
<polygon fill="midnightblue" stroke="midnightblue" points="788.669,-512.678 778.739,-516.372 788.805,-519.677 788.669,-512.678"/>
</g>
<!-- Node4 -->
<g id="node4" class="node"><title>Node4</title>
<g id="a_node4"><a xlink:href="default__force_8h.html" target="_top" xlink:title="default_force.h">
<polygon fill="white" stroke="black" points="1460.5,-260.5 1460.5,-279.5 1541.5,-279.5 1541.5,-260.5 1460.5,-260.5"/>
<text text-anchor="middle" x="1501" y="-267.5" font-family="Helvetica,sans-Serif" font-size="10.00">default_force.h</text>
</a>
</g>
</g>
<!-- Node1&#45;&gt;Node4 -->
<g id="edge3" class="edge"><title>Node1&#45;&gt;Node4</title>
<path fill="none" stroke="midnightblue" d="M789.113,-516.049C918.846,-512.984 1291.15,-501.767 1409,-472 1467.24,-457.291 1499.5,-466.512 1532,-416 1560.97,-370.972 1522.4,-303.392 1506.92,-279.632"/>
<polygon fill="midnightblue" stroke="midnightblue" points="788.674,-512.559 778.758,-516.289 788.836,-519.557 788.674,-512.559"/>
</g>
<!-- Node11 -->
<g id="node11" class="node"><title>Node11</title>
<g id="a_node11"><a xlink:href="resource__manager_8h.html" target="_top" xlink:title="resource_manager.h">
<polygon fill="white" stroke="black" points="1050.5,-452.5 1050.5,-471.5 1155.5,-471.5 1155.5,-452.5 1050.5,-452.5"/>
<text text-anchor="middle" x="1103" y="-459.5" font-family="Helvetica,sans-Serif" font-size="10.00">resource_manager.h</text>
</a>
</g>
</g>
<!-- Node1&#45;&gt;Node11 -->
<g id="edge15" class="edge"><title>Node1&#45;&gt;Node11</title>
<path fill="none" stroke="midnightblue" d="M788.903,-510.246C855.377,-500.247 979.7,-481.547 1050.36,-470.917"/>
<polygon fill="midnightblue" stroke="midnightblue" points="788.117,-506.825 778.749,-511.773 789.158,-513.747 788.117,-506.825"/>
</g>
<!-- Node12 -->
<g id="node12" class="node"><title>Node12</title>
<g id="a_node12"><a xlink:href="simulation__object__util_8h.html" target="_top" xlink:title="simulation_object_util.h">
<polygon fill="white" stroke="black" points="1266.5,-322.5 1266.5,-341.5 1385.5,-341.5 1385.5,-322.5 1266.5,-322.5"/>
<text text-anchor="middle" x="1326" y="-329.5" font-family="Helvetica,sans-Serif" font-size="10.00">simulation_object_util.h</text>
</a>
</g>
</g>
<!-- Node1&#45;&gt;Node12 -->
<g id="edge46" class="edge"><title>Node1&#45;&gt;Node12</title>
<path fill="none" stroke="midnightblue" d="M788.802,-516.73C871.594,-515.325 1053.64,-507.992 1202,-472 1267.53,-456.103 1305.13,-471.789 1343,-416 1358.86,-392.634 1341.37,-357.629 1331.63,-341.588"/>
<polygon fill="midnightblue" stroke="midnightblue" points="788.681,-513.231 778.735,-516.879 788.785,-520.23 788.681,-513.231"/>
</g>
<!-- Node14 -->
<g id="node14" class="node"><title>Node14</title>
<g id="a_node14"><a xlink:href="model__initializer_8h.html" target="_top" xlink:title="model_initializer.h">
<polygon fill="white" stroke="black" points="1428.5,-390.5 1428.5,-409.5 1523.5,-409.5 1523.5,-390.5 1428.5,-390.5"/>
<text text-anchor="middle" x="1476" y="-397.5" font-family="Helvetica,sans-Serif" font-size="10.00">model_initializer.h</text>
</a>
</g>
</g>
<!-- Node1&#45;&gt;Node14 -->
<g id="edge53" class="edge"><title>Node1&#45;&gt;Node14</title>
<path fill="none" stroke="midnightblue" d="M788.925,-516.931C914.619,-516.244 1267.73,-510.816 1376,-472 1414.48,-458.203 1451.49,-425.164 1467.59,-409.507"/>
<polygon fill="midnightblue" stroke="midnightblue" points="788.858,-513.431 778.874,-516.978 788.891,-520.431 788.858,-513.431"/>
</g>
<!-- Node15 -->
<g id="node15" class="node"><title>Node15</title>
<g id="a_node15"><a xlink:href="simulation__object__vector_8h.html" target="_top" xlink:title="simulation_object_vector.h">
<polygon fill="white" stroke="black" points="884.5,-390.5 884.5,-409.5 1017.5,-409.5 1017.5,-390.5 884.5,-390.5"/>
<text text-anchor="middle" x="951" y="-397.5" font-family="Helvetica,sans-Serif" font-size="10.00">simulation_object_vector.h</text>
</a>
</g>
</g>
<!-- Node1&#45;&gt;Node15 -->
<g id="edge60" class="edge"><title>Node1&#45;&gt;Node15</title>
<path fill="none" stroke="midnightblue" d="M768.168,-503.457C811.253,-479.313 900.145,-429.498 935.756,-409.542"/>
<polygon fill="midnightblue" stroke="midnightblue" points="766.234,-500.528 759.221,-508.47 769.656,-506.635 766.234,-500.528"/>
</g>
<!-- Node17 -->
<g id="node17" class="node"><title>Node17</title>
<g id="a_node17"><a xlink:href="diffusion__op_8h.html" target="_top" xlink:title="diffusion_op.h">
<polygon fill="white" stroke="black" points="846.5,-260.5 846.5,-279.5 923.5,-279.5 923.5,-260.5 846.5,-260.5"/>
<text text-anchor="middle" x="885" y="-267.5" font-family="Helvetica,sans-Serif" font-size="10.00">diffusion_op.h</text>
</a>
</g>
</g>
<!-- Node1&#45;&gt;Node17 -->
<g id="edge61" class="edge"><title>Node1&#45;&gt;Node17</title>
<path fill="none" stroke="midnightblue" d="M699.4,-513.402C596.538,-503.545 357.391,-470.814 437,-384 499.564,-315.774 776.996,-402.253 852,-348 874.626,-331.634 881.875,-296.504 884.086,-279.963"/>
<polygon fill="midnightblue" stroke="midnightblue" points="699.216,-516.9 709.497,-514.338 699.862,-509.93 699.216,-516.9"/>
</g>
<!-- Node18 -->
<g id="node18" class="node"><title>Node18</title>
<g id="a_node18"><a xlink:href="scheduler_8h.html" target="_top" xlink:title="scheduler.h">
<polygon fill="white" stroke="black" points="552.5,-198.5 552.5,-217.5 619.5,-217.5 619.5,-198.5 552.5,-198.5"/>
<text text-anchor="middle" x="586" y="-205.5" font-family="Helvetica,sans-Serif" font-size="10.00">scheduler.h</text>
</a>
</g>
</g>
<!-- Node1&#45;&gt;Node18 -->
<g id="edge69" class="edge"><title>Node1&#45;&gt;Node18</title>
<path fill="none" stroke="midnightblue" d="M699.345,-516.154C585.977,-513.547 293.935,-503.78 265,-472 222.807,-425.657 395.943,-289.943 451,-260 485.555,-241.207 528.502,-226.283 556.55,-217.551"/>
<polygon fill="midnightblue" stroke="midnightblue" points="699.351,-519.655 709.427,-516.378 699.507,-512.657 699.351,-519.655"/>
</g>
<!-- Node20 -->
<g id="node20" class="node"><title>Node20</title>
<g id="a_node20"><a xlink:href="displacement__op_8h.html" target="_top" xlink:title="displacement_op.h">
<polygon fill="white" stroke="black" points="135,-260.5 135,-279.5 233,-279.5 233,-260.5 135,-260.5"/>
<text text-anchor="middle" x="184" y="-267.5" font-family="Helvetica,sans-Serif" font-size="10.00">displacement_op.h</text>
</a>
</g>
</g>
<!-- Node1&#45;&gt;Node20 -->
<g id="edge63" class="edge"><title>Node1&#45;&gt;Node20</title>
<path fill="none" stroke="midnightblue" d="M699.188,-515.767C587.213,-512.284 297.632,-500.698 206,-472 158.496,-457.122 133.89,-459.11 109,-416 79.8075,-365.438 146.161,-302.359 173.194,-279.647"/>
<polygon fill="midnightblue" stroke="midnightblue" points="699.355,-519.273 709.457,-516.079 699.568,-512.277 699.355,-519.273"/>
</g>
<!-- Node22 -->
<g id="node22" class="node"><title>Node22</title>
<g id="a_node22"><a xlink:href="catalyst__adaptor_8h.html" target="_top" xlink:title="visualization/catalyst\l_adaptor.h">
<polygon fill="white" stroke="black" points="758,-385 758,-415 866,-415 866,-385 758,-385"/>
<text text-anchor="start" x="766" y="-403" font-family="Helvetica,sans-Serif" font-size="10.00">visualization/catalyst</text>
<text text-anchor="middle" x="812" y="-392" font-family="Helvetica,sans-Serif" font-size="10.00">_adaptor.h</text>
</a>
</g>
</g>
<!-- Node1&#45;&gt;Node22 -->
<g id="edge70" class="edge"><title>Node1&#45;&gt;Node22</title>
<path fill="none" stroke="midnightblue" d="M754.226,-499.555C767.739,-476.505 791.279,-436.347 803.731,-415.106"/>
<polygon fill="midnightblue" stroke="midnightblue" points="751.149,-497.884 749.111,-508.281 757.188,-501.424 751.149,-497.884"/>
</g>
<!-- Node23 -->
<g id="node23" class="node"><title>Node23</title>
<g id="a_node23"><a xlink:href="displacement__op__cuda_8h.html" target="_top" xlink:title="displacement_op_cuda.h">
<polygon fill="white" stroke="black" points="614.5,-390.5 614.5,-409.5 739.5,-409.5 739.5,-390.5 614.5,-390.5"/>
<text text-anchor="middle" x="677" y="-397.5" font-family="Helvetica,sans-Serif" font-size="10.00">displacement_op_cuda.h</text>
</a>
</g>
</g>
<!-- Node1&#45;&gt;Node23 -->
<g id="edge71" class="edge"><title>Node1&#45;&gt;Node23</title>
<path fill="none" stroke="midnightblue" d="M733.828,-499.388C719.206,-474.073 692.811,-428.375 681.912,-409.505"/>
<polygon fill="midnightblue" stroke="midnightblue" points="730.932,-501.372 738.964,-508.281 736.993,-497.871 730.932,-501.372"/>
</g>
<!-- Node24 -->
<g id="node24" class="node"><title>Node24</title>
<g id="a_node24"><a xlink:href="so__pointer_8h.html" target="_top" xlink:title="so_pointer.h">
<polygon fill="white" stroke="black" points="1264,-390.5 1264,-409.5 1334,-409.5 1334,-390.5 1264,-390.5"/>
<text text-anchor="middle" x="1299" y="-397.5" font-family="Helvetica,sans-Serif" font-size="10.00">so_pointer.h</text>
</a>
</g>
</g>
<!-- Node1&#45;&gt;Node24 -->
<g id="edge47" class="edge"><title>Node1&#45;&gt;Node24</title>
<path fill="none" stroke="midnightblue" d="M789.053,-517.659C867.159,-517.604 1032,-512.176 1164,-472 1212.39,-457.273 1263.72,-424.999 1286.67,-409.559"/>
<polygon fill="midnightblue" stroke="midnightblue" points="788.628,-514.158 778.62,-517.634 788.612,-521.158 788.628,-514.158"/>
</g>
<!-- Node25 -->
<g id="node25" class="node"><title>Node25</title>
<g id="a_node25"><a xlink:href="simulation__backup_8h.html" target="_top" xlink:title="simulation_backup.h">
<polygon fill="white" stroke="black" points="562,-452.5 562,-471.5 668,-471.5 668,-452.5 562,-452.5"/>
<text text-anchor="middle" x="615" y="-459.5" font-family="Helvetica,sans-Serif" font-size="10.00">simulation_backup.h</text>
</a>
</g>
</g>
<!-- Node1&#45;&gt;Node25 -->
<g id="edge49" class="edge"><title>Node1&#45;&gt;Node25</title>
<path fill="none" stroke="midnightblue" d="M714.146,-504.503C689.962,-494.38 656.538,-480.388 635.345,-471.516"/>
<polygon fill="midnightblue" stroke="midnightblue" points="712.984,-507.811 723.56,-508.444 715.687,-501.354 712.984,-507.811"/>
</g>
<!-- Node27 -->
<g id="node27" class="node"><title>Node27</title>
<g id="a_node27"><a xlink:href="bound__space__op_8h.html" target="_top" xlink:title="bound_space_op.h">
<polygon fill="white" stroke="black" points="274,-452.5 274,-471.5 372,-471.5 372,-452.5 274,-452.5"/>
<text text-anchor="middle" x="323" y="-459.5" font-family="Helvetica,sans-Serif" font-size="10.00">bound_space_op.h</text>
</a>
</g>
</g>
<!-- Node1&#45;&gt;Node27 -->
<g id="edge54" class="edge"><title>Node1&#45;&gt;Node27</title>
<path fill="none" stroke="midnightblue" d="M699.096,-511.602C631.246,-503.39 498.56,-487.113 386,-472 381.51,-471.397 376.843,-470.757 372.17,-470.106"/>
<polygon fill="midnightblue" stroke="midnightblue" points="699.068,-515.124 709.415,-512.849 699.908,-508.175 699.068,-515.124"/>
</g>
<!-- Node28 -->
<g id="node28" class="node"><title>Node28</title>
<g id="a_node28"><a xlink:href="displacement__op__cpu_8h.html" target="_top" xlink:title="displacement_op_cpu.h">
<polygon fill="white" stroke="black" points="118.5,-390.5 118.5,-409.5 237.5,-409.5 237.5,-390.5 118.5,-390.5"/>
<text text-anchor="middle" x="178" y="-397.5" font-family="Helvetica,sans-Serif" font-size="10.00">displacement_op_cpu.h</text>
</a>
</g>
</g>
<!-- Node1&#45;&gt;Node28 -->
<g id="edge62" class="edge"><title>Node1&#45;&gt;Node28</title>
<path fill="none" stroke="midnightblue" d="M699.336,-517.624C589.948,-518.44 311.758,-515.999 232,-472 206.1,-457.712 188.788,-425.222 181.667,-409.644"/>
<polygon fill="midnightblue" stroke="midnightblue" points="699.413,-521.124 709.382,-517.536 699.352,-514.124 699.413,-521.124"/>
</g>
<!-- Node29 -->
<g id="node29" class="node"><title>Node29</title>
<g id="a_node29"><a xlink:href="gpu__helper_8h.html" target="_top" xlink:title="gpu/gpu_helper.h">
<polygon fill="white" stroke="black" points="466.5,-322.5 466.5,-341.5 557.5,-341.5 557.5,-322.5 466.5,-322.5"/>
<text text-anchor="middle" x="512" y="-329.5" font-family="Helvetica,sans-Serif" font-size="10.00">gpu/gpu_helper.h</text>
</a>
</g>
</g>
<!-- Node1&#45;&gt;Node29 -->
<g id="edge64" class="edge"><title>Node1&#45;&gt;Node29</title>
<path fill="none" stroke="midnightblue" d="M698.884,-516.268C620.888,-514.11 465.226,-505.594 424,-472 392.907,-446.664 382.532,-417.879 404,-384 418.317,-361.406 445.629,-348.632 469.204,-341.519"/>
<polygon fill="midnightblue" stroke="midnightblue" points="699.268,-519.779 709.354,-516.533 699.445,-512.781 699.268,-519.779"/>
</g>
<!-- Node30 -->
<g id="node30" class="node"><title>Node30</title>
<g id="a_node30"><a xlink:href="op__timer_8h.html" target="_top" xlink:title="op_timer.h">
<polygon fill="white" stroke="black" points="0,-322.5 0,-341.5 62,-341.5 62,-322.5 0,-322.5"/>
<text text-anchor="middle" x="31" y="-329.5" font-family="Helvetica,sans-Serif" font-size="10.00">op_timer.h</text>
</a>
</g>
</g>
<!-- Node1&#45;&gt;Node30 -->
<g id="edge67" class="edge"><title>Node1&#45;&gt;Node30</title>
<path fill="none" stroke="midnightblue" d="M699.231,-516.848C557.476,-515.977 124.952,-510.187 76,-472 34.001,-439.237 30.6256,-366.691 30.7685,-341.678"/>
<polygon fill="midnightblue" stroke="midnightblue" points="699.296,-520.348 709.316,-516.905 699.336,-513.349 699.296,-520.348"/>
</g>
<!-- Node31 -->
<g id="node31" class="node"><title>Node31</title>
<g id="a_node31"><a xlink:href="exporter_8h.html" target="_top" xlink:title="exporter.h">
<polygon fill="white" stroke="black" points="1618,-452.5 1618,-471.5 1678,-471.5 1678,-452.5 1618,-452.5"/>
<text text-anchor="middle" x="1648" y="-459.5" font-family="Helvetica,sans-Serif" font-size="10.00">exporter.h</text>
</a>
</g>
</g>
<!-- Node1&#45;&gt;Node31 -->
<g id="edge72" class="edge"><title>Node1&#45;&gt;Node31</title>
<path fill="none" stroke="midnightblue" d="M788.754,-517.01C916.544,-516.534 1293.86,-511.607 1604,-472 1608.49,-471.427 1613.2,-470.652 1617.8,-469.795"/>
<polygon fill="midnightblue" stroke="midnightblue" points="788.565,-513.511 778.575,-517.04 788.586,-520.511 788.565,-513.511"/>
</g>
<!-- Node3 -->
<g id="node3" class="node"><title>Node3</title>
<g id="a_node3"><a xlink:href="biodynamo_8h.html" target="_top" xlink:title="biodynamo.h">
<polygon fill="white" stroke="black" points="1515,-62.5 1515,-81.5 1587,-81.5 1587,-62.5 1515,-62.5"/>
<text text-anchor="middle" x="1551" y="-69.5" font-family="Helvetica,sans-Serif" font-size="10.00">biodynamo.h</text>
</a>
</g>
</g>
<!-- Node2&#45;&gt;Node3 -->
<g id="edge2" class="edge"><title>Node2&#45;&gt;Node3</title>
<path fill="none" stroke="midnightblue" d="M1732.26,-306.605C1726.32,-264.412 1708.64,-177.229 1660,-124 1640.2,-102.331 1609.3,-89.0849 1585.45,-81.5437"/>
<polygon fill="midnightblue" stroke="midnightblue" points="1728.82,-307.317 1733.58,-316.782 1735.76,-306.414 1728.82,-307.317"/>
</g>
<!-- Node5 -->
<g id="node5" class="node"><title>Node5</title>
<g id="a_node5"><a xlink:href="cell_8h.html" target="_top" xlink:title="cell.h">
<polygon fill="white" stroke="black" points="1426,-198.5 1426,-217.5 1466,-217.5 1466,-198.5 1426,-198.5"/>
<text text-anchor="middle" x="1446" y="-205.5" font-family="Helvetica,sans-Serif" font-size="10.00">cell.h</text>
</a>
</g>
</g>
<!-- Node4&#45;&gt;Node5 -->
<g id="edge4" class="edge"><title>Node4&#45;&gt;Node5</title>
<path fill="none" stroke="midnightblue" d="M1486.21,-252.863C1475.8,-241.506 1462.27,-226.752 1453.87,-217.581"/>
<polygon fill="midnightblue" stroke="midnightblue" points="1483.78,-255.397 1493.12,-260.403 1488.94,-250.667 1483.78,-255.397"/>
</g>
<!-- Node10 -->
<g id="node10" class="node"><title>Node10</title>
<g id="a_node10"><a xlink:href="neurite__element_8h.html" target="_top" xlink:title="neuroscience/neurite\l_element.h">
<polygon fill="white" stroke="black" points="1299.5,-193 1299.5,-223 1406.5,-223 1406.5,-193 1299.5,-193"/>
<text text-anchor="start" x="1307.5" y="-211" font-family="Helvetica,sans-Serif" font-size="10.00">neuroscience/neurite</text>
<text text-anchor="middle" x="1353" y="-200" font-family="Helvetica,sans-Serif" font-size="10.00">_element.h</text>
</a>
</g>
</g>
<!-- Node4&#45;&gt;Node10 -->
<g id="edge12" class="edge"><title>Node4&#45;&gt;Node10</title>
<path fill="none" stroke="midnightblue" d="M1470.42,-256.602C1446.31,-246.828 1412.69,-233.197 1387.6,-223.025"/>
<polygon fill="midnightblue" stroke="midnightblue" points="1469.21,-259.89 1479.8,-260.403 1471.84,-253.403 1469.21,-259.89"/>
</g>
<!-- Node5&#45;&gt;Node3 -->
<g id="edge5" class="edge"><title>Node5&#45;&gt;Node3</title>
<path fill="none" stroke="midnightblue" d="M1469.27,-193.032C1483.06,-183.854 1500.11,-170.825 1512,-156 1531.03,-132.28 1543.37,-97.7521 1548.41,-81.7478"/>
<polygon fill="midnightblue" stroke="midnightblue" points="1467.29,-190.142 1460.77,-198.488 1471.07,-196.034 1467.29,-190.142"/>
</g>
<!-- Node6 -->
<g id="node6" class="node"><title>Node6</title>
<g id="a_node6"><a xlink:href="compile__time__param_8h.html" target="_top" xlink:title="compile_time_param.h">
<polygon fill="white" stroke="black" points="1388.5,-130.5 1388.5,-149.5 1503.5,-149.5 1503.5,-130.5 1388.5,-130.5"/>
<text text-anchor="middle" x="1446" y="-137.5" font-family="Helvetica,sans-Serif" font-size="10.00">compile_time_param.h</text>
</a>
</g>
</g>
<!-- Node5&#45;&gt;Node6 -->
<g id="edge6" class="edge"><title>Node5&#45;&gt;Node6</title>
<path fill="none" stroke="midnightblue" d="M1446,-188.041C1446,-175.472 1446,-159.563 1446,-149.841"/>
<polygon fill="midnightblue" stroke="midnightblue" points="1442.5,-188.372 1446,-198.372 1449.5,-188.372 1442.5,-188.372"/>
</g>
<!-- Node7 -->
<g id="node7" class="node"><title>Node7</title>
<g id="a_node7"><a xlink:href="neuron__soma_8h.html" target="_top" xlink:title="neuroscience/neuron\l_soma.h">
<polygon fill="white" stroke="black" points="1182.5,-125 1182.5,-155 1289.5,-155 1289.5,-125 1182.5,-125"/>
<text text-anchor="start" x="1190.5" y="-143" font-family="Helvetica,sans-Serif" font-size="10.00">neuroscience/neuron</text>
<text text-anchor="middle" x="1236" y="-132" font-family="Helvetica,sans-Serif" font-size="10.00">_soma.h</text>
</a>
</g>
</g>
<!-- Node5&#45;&gt;Node7 -->
<g id="edge8" class="edge"><title>Node5&#45;&gt;Node7</title>
<path fill="none" stroke="midnightblue" d="M1420.02,-194.031C1418.34,-193.314 1416.65,-192.629 1415,-192 1373.78,-176.293 1325.63,-162.836 1289.66,-153.696"/>
<polygon fill="midnightblue" stroke="midnightblue" points="1418.95,-197.39 1429.5,-198.364 1421.86,-191.024 1418.95,-197.39"/>
</g>
<!-- Node6&#45;&gt;Node3 -->
<g id="edge7" class="edge"><title>Node6&#45;&gt;Node3</title>
<path fill="none" stroke="midnightblue" d="M1468.29,-124.988C1489.18,-111.858 1519.74,-92.6498 1537.27,-81.6305"/>
<polygon fill="midnightblue" stroke="midnightblue" points="1466.33,-122.087 1459.73,-130.372 1470.06,-128.013 1466.33,-122.087"/>
</g>
<!-- Node8 -->
<g id="node8" class="node"><title>Node8</title>
<g id="a_node8"><a xlink:href="neuroscience_2compile__time__param_8h.html" target="_top" xlink:title="neuroscience/compile\l_time_param.h">
<polygon fill="white" stroke="black" points="1218.5,-57 1218.5,-87 1329.5,-87 1329.5,-57 1218.5,-57"/>
<text text-anchor="start" x="1226.5" y="-75" font-family="Helvetica,sans-Serif" font-size="10.00">neuroscience/compile</text>
<text text-anchor="middle" x="1274" y="-64" font-family="Helvetica,sans-Serif" font-size="10.00">_time_param.h</text>
</a>
</g>
</g>
<!-- Node7&#45;&gt;Node8 -->
<g id="edge9" class="edge"><title>Node7&#45;&gt;Node8</title>
<path fill="none" stroke="midnightblue" d="M1249.4,-115.723C1254.86,-106.244 1260.99,-95.5906 1265.77,-87.2931"/>
<polygon fill="midnightblue" stroke="midnightblue" points="1246.2,-114.266 1244.25,-124.679 1252.27,-117.759 1246.2,-114.266"/>
</g>
<!-- Node9 -->
<g id="node9" class="node"><title>Node9</title>
<g id="a_node9"><a xlink:href="neuroscience_8h.html" target="_top" xlink:title="neuroscience/neuroscience.h">
<polygon fill="white" stroke="black" points="1202.5,-0.5 1202.5,-19.5 1345.5,-19.5 1345.5,-0.5 1202.5,-0.5"/>
<text text-anchor="middle" x="1274" y="-7.5" font-family="Helvetica,sans-Serif" font-size="10.00">neuroscience/neuroscience.h</text>
</a>
</g>
</g>
<!-- Node7&#45;&gt;Node9 -->
<g id="edge11" class="edge"><title>Node7&#45;&gt;Node9</title>
<path fill="none" stroke="midnightblue" d="M1219.08,-116.138C1208.61,-98.9875 1198.91,-75.2525 1209,-56 1218.05,-38.7364 1237.06,-26.7791 1252.19,-19.553"/>
<polygon fill="midnightblue" stroke="midnightblue" points="1216.44,-118.489 1224.86,-124.918 1222.28,-114.641 1216.44,-118.489"/>
</g>
<!-- Node8&#45;&gt;Node9 -->
<g id="edge10" class="edge"><title>Node8&#45;&gt;Node9</title>
<path fill="none" stroke="midnightblue" d="M1274,-46.5858C1274,-37.0743 1274,-26.7864 1274,-19.7305"/>
<polygon fill="midnightblue" stroke="midnightblue" points="1270.5,-46.7808 1274,-56.7808 1277.5,-46.7809 1270.5,-46.7808"/>
</g>
<!-- Node10&#45;&gt;Node8 -->
<g id="edge13" class="edge"><title>Node10&#45;&gt;Node8</title>
<path fill="none" stroke="midnightblue" d="M1339.43,-183.99C1323.06,-156.208 1296.01,-110.342 1282.39,-87.2372"/>
<polygon fill="midnightblue" stroke="midnightblue" points="1336.45,-185.823 1344.55,-192.66 1342.48,-182.268 1336.45,-185.823"/>
</g>
<!-- Node10&#45;&gt;Node9 -->
<g id="edge14" class="edge"><title>Node10&#45;&gt;Node9</title>
<path fill="none" stroke="midnightblue" d="M1356.46,-182.867C1359.73,-151.394 1361.17,-95.6838 1338,-56 1328.14,-39.1093 1309.12,-26.9824 1294.37,-19.6043"/>
<polygon fill="midnightblue" stroke="midnightblue" points="1352.97,-182.578 1355.26,-192.922 1359.92,-183.405 1352.97,-182.578"/>
</g>
<!-- Node11&#45;&gt;Node3 -->
<g id="edge26" class="edge"><title>Node11&#45;&gt;Node3</title>
<path fill="none" stroke="midnightblue" d="M1166.18,-455.362C1215.57,-449.493 1285.29,-437.954 1343,-416 1397.78,-395.158 1532.23,-325.647 1569,-280 1612.69,-225.756 1605.68,-190.193 1584,-124 1578.62,-107.564 1566.59,-91.256 1558.64,-81.6576"/>
<polygon fill="midnightblue" stroke="midnightblue" points="1165.5,-451.917 1155.96,-456.53 1166.29,-458.871 1165.5,-451.917"/>
</g>
<!-- Node11&#45;&gt;Node7 -->
<g id="edge45" class="edge"><title>Node11&#45;&gt;Node7</title>
<path fill="none" stroke="midnightblue" d="M1124.2,-446.226C1152.19,-424.786 1198,-382.194 1198,-333 1198,-333 1198,-333 1198,-269 1198,-226.115 1217.84,-178.367 1228.85,-155.18"/>
<polygon fill="midnightblue" stroke="midnightblue" points="1121.77,-443.665 1115.81,-452.425 1125.93,-449.294 1121.77,-443.665"/>
</g>
<!-- Node11&#45;&gt;Node12 -->
<g id="edge16" class="edge"><title>Node11&#45;&gt;Node12</title>
<path fill="none" stroke="midnightblue" d="M1138.49,-448.899C1160.32,-440.841 1188.52,-429.307 1212,-416 1232.72,-404.253 1235.77,-398.061 1255,-384 1275.58,-368.951 1299.73,-351.69 1313.9,-341.601"/>
<polygon fill="midnightblue" stroke="midnightblue" points="1137.16,-445.659 1128.95,-452.351 1139.54,-452.241 1137.16,-445.659"/>
</g>
<!-- Node11&#45;&gt;Node14 -->
<g id="edge24" class="edge"><title>Node11&#45;&gt;Node14</title>
<path fill="none" stroke="midnightblue" d="M1165.7,-453.68C1228.72,-445.912 1328.5,-432.491 1414,-416 1423.57,-414.154 1433.89,-411.805 1443.31,-409.517"/>
<polygon fill="midnightblue" stroke="midnightblue" points="1165.03,-450.236 1155.53,-454.924 1165.88,-457.184 1165.03,-450.236"/>
</g>
<!-- Node11&#45;&gt;Node15 -->
<g id="edge27" class="edge"><title>Node11&#45;&gt;Node15</title>
<path fill="none" stroke="midnightblue" d="M1071.79,-448.68C1042.25,-437.02 998.68,-419.821 972.737,-409.581"/>
<polygon fill="midnightblue" stroke="midnightblue" points="1070.64,-451.987 1081.22,-452.403 1073.21,-445.476 1070.64,-451.987"/>
</g>
<!-- Node11&#45;&gt;Node17 -->
<g id="edge38" class="edge"><title>Node11&#45;&gt;Node17</title>
<path fill="none" stroke="midnightblue" d="M1095.67,-442.331C1088.45,-425.639 1076.15,-401.223 1060,-384 1012.87,-333.749 938.977,-295.712 904.25,-279.538"/>
<polygon fill="midnightblue" stroke="midnightblue" points="1092.63,-444.124 1099.68,-452.032 1099.1,-441.453 1092.63,-444.124"/>
</g>
<!-- Node11&#45;&gt;Node18 -->
<g id="edge39" class="edge"><title>Node11&#45;&gt;Node18</title>
<path fill="none" stroke="midnightblue" d="M1101.72,-441.873C1099.9,-425.532 1095.53,-401.898 1085,-384 1040.6,-308.567 1013.14,-292.832 932,-260 823.933,-216.271 683.341,-209.448 619.8,-208.77"/>
<polygon fill="midnightblue" stroke="midnightblue" points="1098.27,-442.642 1102.64,-452.296 1105.24,-442.027 1098.27,-442.642"/>
</g>
<!-- Node19 -->
<g id="node19" class="node"><title>Node19</title>
<g id="a_node19"><a xlink:href="simulation__implementation_8h.html" target="_top" xlink:title="simulation_implementation.h">
<polygon fill="white" stroke="black" points="922,-130.5 922,-149.5 1062,-149.5 1062,-130.5 922,-130.5"/>
<text text-anchor="middle" x="992" y="-137.5" font-family="Helvetica,sans-Serif" font-size="10.00">simulation_implementation.h</text>
</a>
</g>
</g>
<!-- Node11&#45;&gt;Node19 -->
<g id="edge42" class="edge"><title>Node11&#45;&gt;Node19</title>
<path fill="none" stroke="midnightblue" d="M1116.06,-444.081C1132.89,-420.543 1160,-375.951 1160,-333 1160,-333 1160,-333 1160,-269 1160,-201.348 1072.74,-164.725 1023.99,-149.545"/>
<polygon fill="midnightblue" stroke="midnightblue" points="1113.12,-442.168 1109.99,-452.289 1118.75,-446.33 1113.12,-442.168"/>
</g>
<!-- Node21 -->
<g id="node21" class="node"><title>Node21</title>
<g id="a_node21"><a xlink:href="displacement__op__opencl_8h.html" target="_top" xlink:title="displacement_op_opencl.h">
<polygon fill="white" stroke="black" points="614,-260.5 614,-279.5 746,-279.5 746,-260.5 614,-260.5"/>
<text text-anchor="middle" x="680" y="-267.5" font-family="Helvetica,sans-Serif" font-size="10.00">displacement_op_opencl.h</text>
</a>
</g>
</g>
<!-- Node11&#45;&gt;Node21 -->
<g id="edge44" class="edge"><title>Node11&#45;&gt;Node21</title>
<path fill="none" stroke="midnightblue" d="M1087.64,-445.145C1066.28,-423.171 1029.79,-385.923 1026,-384 932.547,-336.606 890.475,-386.45 793,-348 750.378,-331.188 707.796,-295.96 689.419,-279.64"/>
<polygon fill="midnightblue" stroke="midnightblue" points="1085.26,-447.717 1094.74,-452.455 1090.28,-442.842 1085.26,-447.717"/>
</g>
<!-- Node11&#45;&gt;Node22 -->
<g id="edge40" class="edge"><title>Node11&#45;&gt;Node22</title>
<path fill="none" stroke="midnightblue" d="M1046.92,-450.562C1000.69,-441.805 933.46,-428.724 875,-416 872.144,-415.378 869.218,-414.728 866.266,-414.062"/>
<polygon fill="midnightblue" stroke="midnightblue" points="1046.56,-454.055 1057.04,-452.472 1047.86,-447.177 1046.56,-454.055"/>
</g>
<!-- Node11&#45;&gt;Node23 -->
<g id="edge43" class="edge"><title>Node11&#45;&gt;Node23</title>
<path fill="none" stroke="midnightblue" d="M1040.22,-454.534C969.282,-446.878 850.48,-432.994 749,-416 737.918,-414.144 725.947,-411.792 715.008,-409.504"/>
<polygon fill="midnightblue" stroke="midnightblue" points="1040.01,-458.032 1050.33,-455.619 1040.76,-451.072 1040.01,-458.032"/>
</g>
<!-- Node12&#45;&gt;Node3 -->
<g id="edge21" class="edge"><title>Node12&#45;&gt;Node3</title>
<path fill="none" stroke="midnightblue" d="M1388.99,-320.752C1451.62,-309.924 1539.82,-292.693 1550,-280 1598.79,-219.159 1565.58,-112.729 1554.33,-81.7127"/>
<polygon fill="midnightblue" stroke="midnightblue" points="1388.05,-317.361 1378.79,-322.499 1389.23,-324.261 1388.05,-317.361"/>
</g>
<!-- Node12&#45;&gt;Node5 -->
<g id="edge20" class="edge"><title>Node12&#45;&gt;Node5</title>
<path fill="none" stroke="midnightblue" d="M1357.3,-318.015C1375.13,-309.36 1396.87,-296.532 1412,-280 1429.16,-261.246 1439.33,-232.264 1443.61,-217.816"/>
<polygon fill="midnightblue" stroke="midnightblue" points="1355.46,-315.01 1347.86,-322.391 1358.4,-321.361 1355.46,-315.01"/>
</g>
<!-- Node12&#45;&gt;Node7 -->
<g id="edge23" class="edge"><title>Node12&#45;&gt;Node7</title>
<path fill="none" stroke="midnightblue" d="M1311.19,-314.326C1303.25,-304.77 1293.74,-292.267 1287,-280 1263.36,-236.967 1246.61,-180.772 1239.62,-155.01"/>
<polygon fill="midnightblue" stroke="midnightblue" points="1308.76,-316.864 1317.92,-322.182 1314.07,-312.31 1308.76,-316.864"/>
</g>
<!-- Node12&#45;&gt;Node10 -->
<g id="edge22" class="edge"><title>Node12&#45;&gt;Node10</title>
<path fill="none" stroke="midnightblue" d="M1309.83,-314.692C1297.61,-300.307 1284.32,-278.77 1293,-260 1300.23,-244.365 1314.88,-231.766 1327.89,-223.002"/>
<polygon fill="midnightblue" stroke="midnightblue" points="1307.4,-317.224 1316.72,-322.261 1312.57,-312.511 1307.4,-317.224"/>
</g>
<!-- Node13 -->
<g id="node13" class="node"><title>Node13</title>
<g id="a_node13"><a xlink:href="simulation__object_8h.html" target="_top" xlink:title="simulation_object.h">
<polygon fill="white" stroke="black" points="1302.5,-260.5 1302.5,-279.5 1403.5,-279.5 1403.5,-260.5 1302.5,-260.5"/>
<text text-anchor="middle" x="1353" y="-267.5" font-family="Helvetica,sans-Serif" font-size="10.00">simulation_object.h</text>
</a>
</g>
</g>
<!-- Node12&#45;&gt;Node13 -->
<g id="edge17" class="edge"><title>Node12&#45;&gt;Node13</title>
<path fill="none" stroke="midnightblue" d="M1334.02,-313.186C1339.01,-302.087 1345.21,-288.307 1349.14,-279.581"/>
<polygon fill="midnightblue" stroke="midnightblue" points="1330.78,-311.848 1329.87,-322.403 1337.16,-314.721 1330.78,-311.848"/>
</g>
<!-- Node13&#45;&gt;Node5 -->
<g id="edge18" class="edge"><title>Node13&#45;&gt;Node5</title>
<path fill="none" stroke="midnightblue" d="M1374.99,-254.811C1392.92,-243.244 1417.66,-227.287 1432.7,-217.581"/>
<polygon fill="midnightblue" stroke="midnightblue" points="1372.83,-252.041 1366.32,-260.403 1376.63,-257.923 1372.83,-252.041"/>
</g>
<!-- Node13&#45;&gt;Node10 -->
<g id="edge19" class="edge"><title>Node13&#45;&gt;Node10</title>
<path fill="none" stroke="midnightblue" d="M1353,-250.371C1353,-241.585 1353,-231.272 1353,-223.141"/>
<polygon fill="midnightblue" stroke="midnightblue" points="1349.5,-250.403 1353,-260.403 1356.5,-250.403 1349.5,-250.403"/>
</g>
<!-- Node14&#45;&gt;Node3 -->
<g id="edge25" class="edge"><title>Node14&#45;&gt;Node3</title>
<path fill="none" stroke="midnightblue" d="M1518.46,-387.37C1568.81,-370.691 1646,-334.729 1646,-271 1646,-271 1646,-271 1646,-207 1646,-168.6 1644.15,-155.371 1622,-124 1608.43,-104.782 1585.27,-90.1395 1569.1,-81.5771"/>
<polygon fill="midnightblue" stroke="midnightblue" points="1517.25,-384.084 1508.78,-390.452 1519.37,-390.754 1517.25,-384.084"/>
</g>
<!-- Node16 -->
<g id="node16" class="node"><title>Node16</title>
<g id="a_node16"><a xlink:href="grid_8h.html" target="_top" xlink:title="grid.h">
<polygon fill="white" stroke="black" points="802.5,-322.5 802.5,-341.5 843.5,-341.5 843.5,-322.5 802.5,-322.5"/>
<text text-anchor="middle" x="823" y="-329.5" font-family="Helvetica,sans-Serif" font-size="10.00">grid.h</text>
</a>
</g>
</g>
<!-- Node15&#45;&gt;Node16 -->
<g id="edge28" class="edge"><title>Node15&#45;&gt;Node16</title>
<path fill="none" stroke="midnightblue" d="M925.184,-385.689C899.703,-372.55 861.492,-352.848 839.738,-341.63"/>
<polygon fill="midnightblue" stroke="midnightblue" points="923.774,-388.9 934.266,-390.372 926.982,-382.678 923.774,-388.9"/>
</g>
<!-- Node16&#45;&gt;Node17 -->
<g id="edge29" class="edge"><title>Node16&#45;&gt;Node17</title>
<path fill="none" stroke="midnightblue" d="M839.334,-315.193C851.113,-303.793 866.564,-288.841 876.133,-279.581"/>
<polygon fill="midnightblue" stroke="midnightblue" points="836.635,-312.934 831.883,-322.403 841.503,-317.964 836.635,-312.934"/>
</g>
<!-- Node16&#45;&gt;Node19 -->
<g id="edge36" class="edge"><title>Node16&#45;&gt;Node19</title>
<path fill="none" stroke="midnightblue" d="M823.134,-312.256C824.04,-297.124 827.182,-275.823 837,-260 871.075,-205.084 940.268,-166.003 973.444,-149.599"/>
<polygon fill="midnightblue" stroke="midnightblue" points="819.63,-312.323 822.804,-322.431 826.626,-312.55 819.63,-312.323"/>
</g>
<!-- Node16&#45;&gt;Node20 -->
<g id="edge34" class="edge"><title>Node16&#45;&gt;Node20</title>
<path fill="none" stroke="midnightblue" d="M792.485,-328.135C690.213,-318.532 358.943,-287.427 233.108,-275.611"/>
<polygon fill="midnightblue" stroke="midnightblue" points="792.18,-331.621 802.463,-329.072 792.834,-324.652 792.18,-331.621"/>
</g>
<!-- Node16&#45;&gt;Node21 -->
<g id="edge37" class="edge"><title>Node16&#45;&gt;Node21</title>
<path fill="none" stroke="midnightblue" d="M793.273,-318.527C765.492,-306.871 724.75,-289.776 700.45,-279.581"/>
<polygon fill="midnightblue" stroke="midnightblue" points="791.936,-321.762 802.512,-322.403 794.645,-315.307 791.936,-321.762"/>
</g>
<!-- Node17&#45;&gt;Node18 -->
<g id="edge30" class="edge"><title>Node17&#45;&gt;Node18</title>
<path fill="none" stroke="midnightblue" d="M836.069,-259.181C775.081,-246.943 672.457,-226.349 619.642,-215.751"/>
<polygon fill="midnightblue" stroke="midnightblue" points="835.724,-262.682 846.218,-261.218 837.102,-255.818 835.724,-262.682"/>
</g>
<!-- Node18&#45;&gt;Node3 -->
<g id="edge31" class="edge"><title>Node18&#45;&gt;Node3</title>
<path fill="none" stroke="midnightblue" d="M623.025,-195.418C683.189,-177.095 806.211,-141.691 913,-124 972.402,-114.159 1388.58,-84.4223 1514.8,-75.535"/>
<polygon fill="midnightblue" stroke="midnightblue" points="621.765,-192.143 613.23,-198.42 623.816,-198.836 621.765,-192.143"/>
</g>
<!-- Node18&#45;&gt;Node19 -->
<g id="edge32" class="edge"><title>Node18&#45;&gt;Node19</title>
<path fill="none" stroke="midnightblue" d="M629.647,-199.905C704.87,-187.676 858.629,-162.681 939.543,-149.527"/>
<polygon fill="midnightblue" stroke="midnightblue" points="628.879,-196.484 619.57,-201.543 630.002,-203.393 628.879,-196.484"/>
</g>
<!-- Node19&#45;&gt;Node3 -->
<g id="edge33" class="edge"><title>Node19&#45;&gt;Node3</title>
<path fill="none" stroke="midnightblue" d="M1072.36,-129.512C1195.53,-114.97 1426.05,-87.7522 1514.85,-77.2683"/>
<polygon fill="midnightblue" stroke="midnightblue" points="1071.75,-126.059 1062.23,-130.708 1072.57,-133.011 1071.75,-126.059"/>
</g>
<!-- Node20&#45;&gt;Node18 -->
<g id="edge35" class="edge"><title>Node20&#45;&gt;Node18</title>
<path fill="none" stroke="midnightblue" d="M243.377,-260.138C328.981,-247.361 484.257,-224.185 552.406,-214.014"/>
<polygon fill="midnightblue" stroke="midnightblue" points="242.667,-256.705 233.293,-261.643 243.7,-263.628 242.667,-256.705"/>
</g>
<!-- Node22&#45;&gt;Node18 -->
<g id="edge41" class="edge"><title>Node22&#45;&gt;Node18</title>
<path fill="none" stroke="midnightblue" d="M802.857,-375.207C787.928,-336.583 759.519,-264.105 755,-260 717.227,-225.692 657.1,-214.438 619.675,-210.762"/>
<polygon fill="midnightblue" stroke="midnightblue" points="799.645,-376.607 806.509,-384.678 806.176,-374.088 799.645,-376.607"/>
</g>
<!-- Node24&#45;&gt;Node12 -->
<g id="edge48" class="edge"><title>Node24&#45;&gt;Node12</title>
<path fill="none" stroke="midnightblue" d="M1306.44,-380.807C1311.63,-368.124 1318.32,-351.762 1322.38,-341.841"/>
<polygon fill="midnightblue" stroke="midnightblue" points="1303.08,-379.791 1302.53,-390.372 1309.56,-382.441 1303.08,-379.791"/>
</g>
<!-- Node25&#45;&gt;Node18 -->
<g id="edge51" class="edge"><title>Node25&#45;&gt;Node18</title>
<path fill="none" stroke="midnightblue" d="M610.35,-442.573C608.449,-434.468 606.377,-424.806 605,-416 593.07,-339.698 587.808,-246.313 586.403,-217.726"/>
<polygon fill="midnightblue" stroke="midnightblue" points="606.985,-443.549 612.755,-452.435 613.786,-441.891 606.985,-443.549"/>
</g>
<!-- Node25&#45;&gt;Node24 -->
<g id="edge50" class="edge"><title>Node25&#45;&gt;Node24</title>
<path fill="none" stroke="midnightblue" d="M678.298,-455.448C819.045,-443.101 1154.15,-413.706 1263.69,-404.097"/>
<polygon fill="midnightblue" stroke="midnightblue" points="677.759,-451.981 668.103,-456.342 678.371,-458.955 677.759,-451.981"/>
</g>
<!-- Node26 -->
<g id="node26" class="node"><title>Node26</title>
<g id="a_node26"><a xlink:href="simulation__backup_8cc.html" target="_top" xlink:title="simulation_backup.cc">
<polygon fill="white" stroke="black" points="446.5,-390.5 446.5,-409.5 557.5,-409.5 557.5,-390.5 446.5,-390.5"/>
<text text-anchor="middle" x="502" y="-397.5" font-family="Helvetica,sans-Serif" font-size="10.00">simulation_backup.cc</text>
</a>
</g>
</g>
<!-- Node25&#45;&gt;Node26 -->
<g id="edge52" class="edge"><title>Node25&#45;&gt;Node26</title>
<path fill="none" stroke="midnightblue" d="M589.764,-447.6C567.878,-435.98 536.859,-419.509 518.16,-409.581"/>
<polygon fill="midnightblue" stroke="midnightblue" points="588.336,-450.805 598.81,-452.403 591.619,-444.623 588.336,-450.805"/>
</g>
<!-- Node27&#45;&gt;Node18 -->
<g id="edge55" class="edge"><title>Node27&#45;&gt;Node18</title>
<path fill="none" stroke="midnightblue" d="M327.294,-442.638C331.562,-426.473 339.059,-402.669 350,-384 401.84,-295.546 517.762,-238.11 565.179,-217.514"/>
<polygon fill="midnightblue" stroke="midnightblue" points="323.87,-441.902 324.853,-452.451 330.663,-443.592 323.87,-441.902"/>
</g>
<!-- Node27&#45;&gt;Node21 -->
<g id="edge59" class="edge"><title>Node27&#45;&gt;Node21</title>
<path fill="none" stroke="midnightblue" d="M333.559,-443.389C353.402,-412.013 399.487,-346.844 457,-316 505.555,-289.96 567.41,-278.938 613.652,-274.298"/>
<polygon fill="midnightblue" stroke="midnightblue" points="330.332,-441.955 328.058,-452.303 336.288,-445.631 330.332,-441.955"/>
</g>
<!-- Node27&#45;&gt;Node23 -->
<g id="edge58" class="edge"><title>Node27&#45;&gt;Node23</title>
<path fill="none" stroke="midnightblue" d="M382.423,-450.928C450.946,-439.314 562.392,-420.425 626.768,-409.514"/>
<polygon fill="midnightblue" stroke="midnightblue" points="381.497,-447.535 372.222,-452.657 382.666,-454.437 381.497,-447.535"/>
</g>
<!-- Node27&#45;&gt;Node28 -->
<g id="edge56" class="edge"><title>Node27&#45;&gt;Node28</title>
<path fill="none" stroke="midnightblue" d="M292.858,-448.527C264.687,-436.871 223.376,-419.776 198.736,-409.581"/>
<polygon fill="midnightblue" stroke="midnightblue" points="291.647,-451.814 302.225,-452.403 294.323,-445.346 291.647,-451.814"/>
</g>
<!-- Node28&#45;&gt;Node20 -->
<g id="edge57" class="edge"><title>Node28&#45;&gt;Node20</title>
<path fill="none" stroke="midnightblue" d="M178.889,-380.029C180.212,-351.803 182.646,-299.892 183.601,-279.522"/>
<polygon fill="midnightblue" stroke="midnightblue" points="175.385,-380.049 178.412,-390.202 182.377,-380.377 175.385,-380.049"/>
</g>
<!-- Node29&#45;&gt;Node18 -->
<g id="edge65" class="edge"><title>Node29&#45;&gt;Node18</title>
<path fill="none" stroke="midnightblue" d="M522.55,-313.606C538.614,-287.124 568.613,-237.664 580.726,-217.694"/>
<polygon fill="midnightblue" stroke="midnightblue" points="519.516,-311.861 517.322,-322.226 525.501,-315.491 519.516,-311.861"/>
</g>
<!-- Node29&#45;&gt;Node21 -->
<g id="edge66" class="edge"><title>Node29&#45;&gt;Node21</title>
<path fill="none" stroke="midnightblue" d="M545.649,-318.983C578.305,-307.32 627.052,-289.91 655.974,-279.581"/>
<polygon fill="midnightblue" stroke="midnightblue" points="544.311,-315.744 536.07,-322.403 546.665,-322.336 544.311,-315.744"/>
</g>
<!-- Node30&#45;&gt;Node18 -->
<g id="edge68" class="edge"><title>Node30&#45;&gt;Node18</title>
<path fill="none" stroke="midnightblue" d="M46.5745,-315.123C64.1562,-298.293 94.4457,-272.461 126,-260 203.91,-229.232 460.045,-214.752 552.414,-210.438"/>
<polygon fill="midnightblue" stroke="midnightblue" points="44.1114,-312.636 39.4317,-322.141 49.0176,-317.629 44.1114,-312.636"/>
</g>
</g>
</svg>
