<?xml version="1.0" encoding="UTF-8" standalone="no"?>
<!DOCTYPE svg PUBLIC "-//W3C//DTD SVG 1.1//EN"
 "http://www.w3.org/Graphics/SVG/1.1/DTD/svg11.dtd">
<!-- Generated by graphviz version 2.43.0 (0)
 -->
<!-- Title: core/simulation.cc Pages: 1 -->
<svg width="3997pt" height="710pt"
 viewBox="0.00 0.00 3996.50 710.00" xmlns="http://www.w3.org/2000/svg" xmlns:xlink="http://www.w3.org/1999/xlink">
<g id="graph0" class="graph" transform="scale(1 1) rotate(0) translate(4 706)">
<title>core/simulation.cc</title>
<polygon fill="white" stroke="transparent" points="-4,4 -4,-706 3992.5,-706 3992.5,4 -4,4"/>
<!-- Node1 -->
<g id="node1" class="node">
<title>Node1</title>
<g id="a_node1"><a xlink:title=" ">
<polygon fill="#bfbfbf" stroke="black" points="2507,-682.5 2507,-701.5 2613,-701.5 2613,-682.5 2507,-682.5"/>
<text text-anchor="middle" x="2560" y="-689.5" font-family="Helvetica,sans-Serif" font-size="10.00">core/simulation.cc</text>
</a>
</g>
</g>
<!-- Node2 -->
<g id="node2" class="node">
<title>Node2</title>
<g id="a_node2"><a xlink:href="simulation_8h.html" target="_top" xlink:title=" ">
<polygon fill="white" stroke="black" points="2850.5,-364 2850.5,-383 2951.5,-383 2951.5,-364 2850.5,-364"/>
<text text-anchor="middle" x="2901" y="-371" font-family="Helvetica,sans-Serif" font-size="10.00">core/simulation.h</text>
</a>
</g>
</g>
<!-- Node1&#45;&gt;Node2 -->
<g id="edge1" class="edge">
<title>Node1&#45;&gt;Node2</title>
<path fill="none" stroke="midnightblue" d="M2605.95,-682.43C2663.88,-668.65 2756,-635.58 2756,-564.5 2756,-564.5 2756,-564.5 2756,-501 2756,-442.58 2823.66,-404.94 2866.55,-386.96"/>
<polygon fill="midnightblue" stroke="midnightblue" points="2868.11,-390.1 2876.07,-383.11 2865.49,-383.61 2868.11,-390.1"/>
</g>
<!-- Node4 -->
<g id="node4" class="node">
<title>Node4</title>
<g id="a_node4"><a xlink:title=" ">
<polygon fill="white" stroke="#bfbfbf" points="3542,-0.5 3542,-19.5 3586,-19.5 3586,-0.5 3542,-0.5"/>
<text text-anchor="middle" x="3564" y="-7.5" font-family="Helvetica,sans-Serif" font-size="10.00">string</text>
</a>
</g>
</g>
<!-- Node1&#45;&gt;Node4 -->
<g id="edge48" class="edge">
<title>Node1&#45;&gt;Node4</title>
<path fill="none" stroke="midnightblue" d="M2613.16,-690.24C2817.53,-687.14 3546.23,-674.18 3646,-646 3717.52,-625.8 3792,-638.81 3792,-564.5 3792,-564.5 3792,-564.5 3792,-121 3792,-35.21 3659.43,-16.29 3596.47,-12.15"/>
<polygon fill="midnightblue" stroke="midnightblue" points="3596.46,-8.64 3586.28,-11.57 3596.06,-15.63 3596.46,-8.64"/>
</g>
<!-- Node5 -->
<g id="node5" class="node">
<title>Node5</title>
<g id="a_node5"><a xlink:title=" ">
<polygon fill="white" stroke="#bfbfbf" points="1651.5,-0.5 1651.5,-19.5 1698.5,-19.5 1698.5,-0.5 1651.5,-0.5"/>
<text text-anchor="middle" x="1675" y="-7.5" font-family="Helvetica,sans-Serif" font-size="10.00">vector</text>
</a>
</g>
</g>
<!-- Node1&#45;&gt;Node5 -->
<g id="edge50" class="edge">
<title>Node1&#45;&gt;Node5</title>
<path fill="none" stroke="midnightblue" d="M2506.75,-691.11C2160.37,-691.66 237.95,-692.64 124,-646 75.27,-626.05 38,-617.16 38,-564.5 38,-564.5 38,-564.5 38,-121 38,-52.4 111.2,-71.62 178,-56 493.59,17.79 1314.46,-60.65 1636,-20 1637.71,-19.78 1639.45,-19.53 1641.2,-19.24"/>
<polygon fill="midnightblue" stroke="midnightblue" points="1642.06,-22.63 1651.21,-17.29 1640.73,-15.76 1642.06,-22.63"/>
</g>
<!-- Node10 -->
<g id="node9" class="node">
<title>Node10</title>
<g id="a_node9"><a xlink:href="log_8h.html" target="_top" xlink:title=" ">
<polygon fill="white" stroke="red" points="2624.5,-112.5 2624.5,-131.5 2707.5,-131.5 2707.5,-112.5 2624.5,-112.5"/>
<text text-anchor="middle" x="2666" y="-119.5" font-family="Helvetica,sans-Serif" font-size="10.00">core/util/log.h</text>
</a>
</g>
</g>
<!-- Node1&#45;&gt;Node10 -->
<g id="edge160" class="edge">
<title>Node1&#45;&gt;Node10</title>
<path fill="none" stroke="midnightblue" d="M2613.47,-689.49C2664.18,-686.15 2741.3,-676.03 2801,-646 2911.98,-590.18 2956.29,-569.85 3006,-456 3051.29,-352.28 2992.35,-290.83 2901,-224 2840.14,-179.48 2756.63,-149.58 2707.29,-134.5"/>
<polygon fill="midnightblue" stroke="midnightblue" points="2708.18,-131.11 2697.6,-131.59 2706.17,-137.82 2708.18,-131.11"/>
</g>
<!-- Node13 -->
<g id="node10" class="node">
<title>Node13</title>
<g id="a_node10"><a xlink:title=" ">
<polygon fill="white" stroke="#bfbfbf" points="515.5,-56.5 515.5,-75.5 564.5,-75.5 564.5,-56.5 515.5,-56.5"/>
<text text-anchor="middle" x="540" y="-63.5" font-family="Helvetica,sans-Serif" font-size="10.00">cstdlib</text>
</a>
</g>
</g>
<!-- Node1&#45;&gt;Node13 -->
<g id="edge42" class="edge">
<title>Node1&#45;&gt;Node13</title>
<path fill="none" stroke="midnightblue" d="M2506.73,-690.7C2158.26,-688.68 216.59,-676.09 164,-646 127.11,-624.9 114,-607 114,-564.5 114,-564.5 114,-564.5 114,-372.5 114,-180.25 404.07,-97.26 505.49,-74.12"/>
<polygon fill="midnightblue" stroke="midnightblue" points="506.26,-77.53 515.26,-71.94 504.73,-70.7 506.26,-77.53"/>
</g>
<!-- Node15 -->
<g id="node11" class="node">
<title>Node15</title>
<g id="a_node11"><a xlink:href="string_8h.html" target="_top" xlink:title=" ">
<polygon fill="white" stroke="black" points="1741,-56.5 1741,-75.5 1837,-75.5 1837,-56.5 1741,-56.5"/>
<text text-anchor="middle" x="1789" y="-63.5" font-family="Helvetica,sans-Serif" font-size="10.00">core/util/string.h</text>
</a>
</g>
</g>
<!-- Node1&#45;&gt;Node15 -->
<g id="edge161" class="edge">
<title>Node1&#45;&gt;Node15</title>
<path fill="none" stroke="midnightblue" d="M2506.95,-690.7C2185.87,-688.82 514.9,-677.48 473,-646 388.03,-582.16 381.73,-243.04 457,-168 548.28,-77 1485.48,-67.88 1730.6,-67.06"/>
<polygon fill="midnightblue" stroke="midnightblue" points="1730.74,-70.56 1740.73,-67.03 1730.72,-63.56 1730.74,-70.56"/>
</g>
<!-- Node16 -->
<g id="node12" class="node">
<title>Node16</title>
<g id="a_node12"><a xlink:title=" ">
<polygon fill="white" stroke="#bfbfbf" points="1571,-0.5 1571,-19.5 1627,-19.5 1627,-0.5 1571,-0.5"/>
<text text-anchor="middle" x="1599" y="-7.5" font-family="Helvetica,sans-Serif" font-size="10.00">sstream</text>
</a>
</g>
</g>
<!-- Node1&#45;&gt;Node16 -->
<g id="edge47" class="edge">
<title>Node1&#45;&gt;Node16</title>
<path fill="none" stroke="midnightblue" d="M2506.98,-690.71C2150.29,-688.68 113,-675.82 57,-646 17.98,-625.23 0,-608.7 0,-564.5 0,-564.5 0,-564.5 0,-121 0,-81.98 23.56,-72.32 59,-56 129.22,-23.67 1328.73,-13.03 1560.43,-11.27"/>
<polygon fill="midnightblue" stroke="midnightblue" points="1560.75,-14.77 1570.73,-11.2 1560.7,-7.77 1560.75,-14.77"/>
</g>
<!-- Node18 -->
<g id="node14" class="node">
<title>Node18</title>
<g id="a_node14"><a xlink:title=" ">
<polygon fill="white" stroke="#bfbfbf" points="2074,-230 2074,-249 2132,-249 2132,-230 2074,-230"/>
<text text-anchor="middle" x="2103" y="-237" font-family="Helvetica,sans-Serif" font-size="10.00">memory</text>
</a>
</g>
</g>
<!-- Node1&#45;&gt;Node18 -->
<g id="edge45" class="edge">
<title>Node1&#45;&gt;Node18</title>
<path fill="none" stroke="midnightblue" d="M2506.93,-689.23C2465.9,-685.49 2409.47,-674.91 2369,-646 2274.59,-578.54 2293.8,-521.92 2230,-425 2188.94,-362.62 2138.01,-290 2115.13,-257.61"/>
<polygon fill="midnightblue" stroke="midnightblue" points="2117.84,-255.39 2109.21,-249.25 2112.13,-259.43 2117.84,-255.39"/>
</g>
<!-- Node22 -->
<g id="node16" class="node">
<title>Node22</title>
<g id="a_node16"><a xlink:title=" ">
<polygon fill="white" stroke="#bfbfbf" points="2321.5,-168.5 2321.5,-187.5 2366.5,-187.5 2366.5,-168.5 2321.5,-168.5"/>
<text text-anchor="middle" x="2344" y="-175.5" font-family="Helvetica,sans-Serif" font-size="10.00">utility</text>
</a>
</g>
</g>
<!-- Node1&#45;&gt;Node22 -->
<g id="edge49" class="edge">
<title>Node1&#45;&gt;Node22</title>
<path fill="none" stroke="midnightblue" d="M2570.16,-682.19C2578.91,-673.87 2590.9,-660.54 2596,-646 2600.56,-633 2599.52,-628.32 2596,-615 2548.11,-433.66 2403.52,-250.07 2357.93,-195.35"/>
<polygon fill="midnightblue" stroke="midnightblue" points="2360.61,-193.09 2351.49,-187.69 2355.25,-197.6 2360.61,-193.09"/>
</g>
<!-- Node30 -->
<g id="node19" class="node">
<title>Node30</title>
<g id="a_node19"><a xlink:href="thread__info_8h.html" target="_top" xlink:title=" ">
<polygon fill="white" stroke="red" points="621,-230 621,-249 745,-249 745,-230 621,-230"/>
<text text-anchor="middle" x="683" y="-237" font-family="Helvetica,sans-Serif" font-size="10.00">core/util/thread_info.h</text>
</a>
</g>
</g>
<!-- Node1&#45;&gt;Node30 -->
<g id="edge162" class="edge">
<title>Node1&#45;&gt;Node30</title>
<path fill="none" stroke="midnightblue" d="M2506.79,-690.93C2175.16,-690.36 404.66,-685.46 366,-646 309.54,-588.37 381.17,-344 442,-291 466.85,-269.35 549.17,-255.46 610.73,-247.84"/>
<polygon fill="midnightblue" stroke="midnightblue" points="611.3,-251.3 620.81,-246.62 610.46,-244.35 611.3,-251.3"/>
</g>
<!-- Node27 -->
<g id="node20" class="node">
<title>Node27</title>
<g id="a_node20"><a xlink:title=" ">
<polygon fill="white" stroke="#bfbfbf" points="466.5,-168.5 466.5,-187.5 513.5,-187.5 513.5,-168.5 466.5,-168.5"/>
<text text-anchor="middle" x="490" y="-175.5" font-family="Helvetica,sans-Serif" font-size="10.00">omp.h</text>
</a>
</g>
</g>
<!-- Node1&#45;&gt;Node27 -->
<g id="edge39" class="edge">
<title>Node1&#45;&gt;Node27</title>
<path fill="none" stroke="midnightblue" d="M2506.83,-690.6C2180.1,-688.08 454.84,-673.49 347,-646 270.82,-626.58 190,-643.12 190,-564.5 190,-564.5 190,-564.5 190,-372.5 190,-247.01 377.67,-198.98 456.14,-184.38"/>
<polygon fill="midnightblue" stroke="midnightblue" points="457.23,-187.74 466.46,-182.54 456,-180.85 457.23,-187.74"/>
</g>
<!-- Node36 -->
<g id="node23" class="node">
<title>Node36</title>
<g id="a_node23"><a xlink:title=" ">
<polygon fill="white" stroke="#bfbfbf" points="1243,-168.5 1243,-187.5 1307,-187.5 1307,-168.5 1243,-168.5"/>
<text text-anchor="middle" x="1275" y="-175.5" font-family="Helvetica,sans-Serif" font-size="10.00">algorithm</text>
</a>
</g>
</g>
<!-- Node1&#45;&gt;Node36 -->
<g id="edge40" class="edge">
<title>Node1&#45;&gt;Node36</title>
<path fill="none" stroke="midnightblue" d="M2506.69,-690.41C2270.78,-687.66 1319.28,-674.94 1022,-646 802.27,-624.61 532,-785.27 532,-564.5 532,-564.5 532,-564.5 532,-372.5 532,-328.3 551.21,-313.94 589,-291 693.99,-227.27 750.23,-303.67 863,-255 883.01,-246.36 880.94,-232.53 901,-224 960,-198.91 1148.02,-185.86 1232.81,-181.12"/>
<polygon fill="midnightblue" stroke="midnightblue" points="1233.07,-184.61 1242.86,-180.57 1232.69,-177.62 1233.07,-184.61"/>
</g>
<!-- Node37 -->
<g id="node24" class="node">
<title>Node37</title>
<g id="a_node24"><a xlink:title=" ">
<polygon fill="white" stroke="#bfbfbf" points="280.5,-168.5 280.5,-187.5 327.5,-187.5 327.5,-168.5 280.5,-168.5"/>
<text text-anchor="middle" x="304" y="-175.5" font-family="Helvetica,sans-Serif" font-size="10.00">cmath</text>
</a>
</g>
</g>
<!-- Node1&#45;&gt;Node37 -->
<g id="edge41" class="edge">
<title>Node1&#45;&gt;Node37</title>
<path fill="none" stroke="midnightblue" d="M2506.92,-690.65C2162.89,-688.28 261.42,-673.95 209,-646 170,-625.2 152,-608.7 152,-564.5 152,-564.5 152,-564.5 152,-372.5 152,-289.92 238.68,-221.72 281.12,-193.27"/>
<polygon fill="midnightblue" stroke="midnightblue" points="283.25,-196.06 289.7,-187.66 279.42,-190.2 283.25,-196.06"/>
</g>
<!-- Node39 -->
<g id="node25" class="node">
<title>Node39</title>
<g id="a_node25"><a xlink:title=" ">
<polygon fill="white" stroke="#bfbfbf" points="1050.5,-168.5 1050.5,-187.5 1107.5,-187.5 1107.5,-168.5 1050.5,-168.5"/>
<text text-anchor="middle" x="1079" y="-175.5" font-family="Helvetica,sans-Serif" font-size="10.00">ostream</text>
</a>
</g>
</g>
<!-- Node1&#45;&gt;Node39 -->
<g id="edge46" class="edge">
<title>Node1&#45;&gt;Node39</title>
<path fill="none" stroke="midnightblue" d="M2506.77,-690.95C2196.23,-690.5 628.96,-686.23 536,-646 489.42,-625.84 456,-615.26 456,-564.5 456,-564.5 456,-564.5 456,-372.5 456,-318.87 496.85,-314.62 545,-291 629.63,-249.49 662.09,-275.92 754,-255 803.11,-243.82 814.09,-236.03 863,-224 924.64,-208.83 996.99,-194.45 1040.35,-186.18"/>
<polygon fill="midnightblue" stroke="midnightblue" points="1041.03,-189.62 1050.2,-184.32 1039.72,-182.74 1041.03,-189.62"/>
</g>
<!-- Node41 -->
<g id="node26" class="node">
<title>Node41</title>
<g id="a_node26"><a xlink:title=" ">
<polygon fill="white" stroke="#bfbfbf" points="3332,-230 3332,-249 3440,-249 3440,-230 3332,-230"/>
<text text-anchor="middle" x="3386" y="-237" font-family="Helvetica,sans-Serif" font-size="10.00">cpptoml/cpptoml.h</text>
</a>
</g>
</g>
<!-- Node1&#45;&gt;Node41 -->
<g id="edge38" class="edge">
<title>Node1&#45;&gt;Node41</title>
<path fill="none" stroke="midnightblue" d="M2613.07,-690.34C2762.67,-688.09 3185.6,-678.9 3320,-646 3406.09,-624.93 3502,-653.13 3502,-564.5 3502,-564.5 3502,-564.5 3502,-501 3502,-401.33 3430.26,-297.32 3399.62,-257.44"/>
<polygon fill="midnightblue" stroke="midnightblue" points="3402.18,-255.03 3393.26,-249.32 3396.67,-259.35 3402.18,-255.03"/>
</g>
<!-- Node42 -->
<g id="node27" class="node">
<title>Node42</title>
<g id="a_node27"><a xlink:title=" ">
<polygon fill="white" stroke="#bfbfbf" points="2378,-621 2378,-640 2514,-640 2514,-621 2378,-621"/>
<text text-anchor="middle" x="2446" y="-628" font-family="Helvetica,sans-Serif" font-size="10.00">experimental/filesystem</text>
</a>
</g>
</g>
<!-- Node1&#45;&gt;Node42 -->
<g id="edge43" class="edge">
<title>Node1&#45;&gt;Node42</title>
<path fill="none" stroke="midnightblue" d="M2543.67,-682.48C2524.79,-672.62 2493.49,-656.29 2471.42,-644.77"/>
<polygon fill="midnightblue" stroke="midnightblue" points="2472.79,-641.53 2462.3,-640.01 2469.55,-647.74 2472.79,-641.53"/>
</g>
<!-- Node43 -->
<g id="node28" class="node">
<title>Node43</title>
<g id="a_node28"><a xlink:title=" ">
<polygon fill="white" stroke="#bfbfbf" points="2532.5,-621 2532.5,-640 2587.5,-640 2587.5,-621 2532.5,-621"/>
<text text-anchor="middle" x="2560" y="-628" font-family="Helvetica,sans-Serif" font-size="10.00">fstream</text>
</a>
</g>
</g>
<!-- Node1&#45;&gt;Node43 -->
<g id="edge44" class="edge">
<title>Node1&#45;&gt;Node43</title>
<path fill="none" stroke="midnightblue" d="M2560,-682.48C2560,-674.08 2560,-660.98 2560,-650.16"/>
<polygon fill="midnightblue" stroke="midnightblue" points="2563.5,-650.01 2560,-640.01 2556.5,-650.01 2563.5,-650.01"/>
</g>
<!-- Node44 -->
<g id="node29" class="node">
<title>Node44</title>
<g id="a_node29"><a xlink:href="agent__uid__generator_8h.html" target="_top" xlink:title=" ">
<polygon fill="white" stroke="black" points="2075.5,-425.5 2075.5,-455.5 2194.5,-455.5 2194.5,-425.5 2075.5,-425.5"/>
<text text-anchor="start" x="2083.5" y="-443.5" font-family="Helvetica,sans-Serif" font-size="10.00">core/agent/agent_uid</text>
<text text-anchor="middle" x="2135" y="-432.5" font-family="Helvetica,sans-Serif" font-size="10.00">_generator.h</text>
</a>
</g>
</g>
<!-- Node1&#45;&gt;Node44 -->
<g id="edge51" class="edge">
<title>Node1&#45;&gt;Node44</title>
<path fill="none" stroke="midnightblue" d="M2506.95,-685.52C2467.23,-679.78 2412.48,-668.35 2369,-646 2276.1,-598.25 2189.89,-505.77 2153.38,-463.52"/>
<polygon fill="midnightblue" stroke="midnightblue" points="2155.91,-461.09 2146.75,-455.77 2150.59,-465.64 2155.91,-461.09"/>
</g>
<!-- Node48 -->
<g id="node33" class="node">
<title>Node48</title>
<g id="a_node33"><a xlink:href="scheduler_8h.html" target="_top" xlink:title=" ">
<polygon fill="white" stroke="red" points="2606,-364 2606,-383 2702,-383 2702,-364 2606,-364"/>
<text text-anchor="middle" x="2654" y="-371" font-family="Helvetica,sans-Serif" font-size="10.00">core/scheduler.h</text>
</a>
</g>
</g>
<!-- Node1&#45;&gt;Node48 -->
<g id="edge153" class="edge">
<title>Node1&#45;&gt;Node48</title>
<path fill="none" stroke="midnightblue" d="M2580.98,-682.41C2596.65,-674.98 2617.44,-662.77 2630,-646 2652.64,-615.78 2654,-602.26 2654,-564.5 2654,-564.5 2654,-564.5 2654,-501 2654,-462.7 2654,-417.88 2654,-393.2"/>
<polygon fill="midnightblue" stroke="midnightblue" points="2657.5,-393.09 2654,-383.09 2650.5,-393.09 2657.5,-393.09"/>
</g>
<!-- Node52 -->
<g id="node34" class="node">
<title>Node52</title>
<g id="a_node34"><a xlink:href="core_2param_2param_8h.html" target="_top" xlink:title=" ">
<polygon fill="white" stroke="red" points="3256,-297 3256,-316 3372,-316 3372,-297 3256,-297"/>
<text text-anchor="middle" x="3314" y="-304" font-family="Helvetica,sans-Serif" font-size="10.00">core/param/param.h</text>
</a>
</g>
</g>
<!-- Node1&#45;&gt;Node52 -->
<g id="edge151" class="edge">
<title>Node1&#45;&gt;Node52</title>
<path fill="none" stroke="midnightblue" d="M2613.39,-689.26C2726.41,-683.98 2996.46,-662.86 3204,-579 3270.37,-552.18 3346,-574.58 3346,-503 3346,-503 3346,-503 3346,-439.5 3346,-397.82 3330.75,-350.77 3321.3,-325.64"/>
<polygon fill="midnightblue" stroke="midnightblue" points="3324.55,-324.34 3317.67,-316.28 3318.03,-326.87 3324.55,-324.34"/>
</g>
<!-- Node65 -->
<g id="node35" class="node">
<title>Node65</title>
<g id="a_node35"><a xlink:href="environment_8h.html" target="_top" xlink:title=" ">
<polygon fill="white" stroke="black" points="927.5,-554 927.5,-573 1104.5,-573 1104.5,-554 927.5,-554"/>
<text text-anchor="middle" x="1016" y="-561" font-family="Helvetica,sans-Serif" font-size="10.00">core/environment/environment.h</text>
</a>
</g>
</g>
<!-- Node1&#45;&gt;Node65 -->
<g id="edge78" class="edge">
<title>Node1&#45;&gt;Node65</title>
<path fill="none" stroke="midnightblue" d="M2506.77,-691.06C2245.36,-691.17 1107.62,-689.14 1047,-646 1026.9,-631.69 1019.82,-602.56 1017.34,-583.29"/>
<polygon fill="midnightblue" stroke="midnightblue" points="1020.82,-582.87 1016.34,-573.26 1013.85,-583.56 1020.82,-582.87"/>
</g>
<!-- Node79 -->
<g id="node39" class="node">
<title>Node79</title>
<g id="a_node39"><a xlink:href="resource__manager_8h.html" target="_top" xlink:title=" ">
<polygon fill="white" stroke="red" points="1714,-492.5 1714,-511.5 1854,-511.5 1854,-492.5 1714,-492.5"/>
<text text-anchor="middle" x="1784" y="-499.5" font-family="Helvetica,sans-Serif" font-size="10.00">core/resource_manager.h</text>
</a>
</g>
</g>
<!-- Node1&#45;&gt;Node79 -->
<g id="edge152" class="edge">
<title>Node1&#45;&gt;Node79</title>
<path fill="none" stroke="midnightblue" d="M2506.97,-684.68C2453.63,-677.67 2369.29,-664.81 2298,-646 2173.76,-613.22 2150.02,-581.63 2026,-548 1969.2,-532.6 1903.49,-520.74 1854.88,-513.08"/>
<polygon fill="midnightblue" stroke="midnightblue" points="1855.2,-509.59 1844.78,-511.51 1854.12,-516.5 1855.2,-509.59"/>
</g>
<!-- Node83 -->
<g id="node40" class="node">
<title>Node83</title>
<g id="a_node40"><a xlink:href="uniform__grid__environment_8h.html" target="_top" xlink:title=" ">
<polygon fill="white" stroke="red" points="1056,-615.5 1056,-645.5 1200,-645.5 1200,-615.5 1056,-615.5"/>
<text text-anchor="start" x="1064" y="-633.5" font-family="Helvetica,sans-Serif" font-size="10.00">core/environment/uniform</text>
<text text-anchor="middle" x="1128" y="-622.5" font-family="Helvetica,sans-Serif" font-size="10.00">_grid_environment.h</text>
</a>
</g>
</g>
<!-- Node1&#45;&gt;Node83 -->
<g id="edge114" class="edge">
<title>Node1&#45;&gt;Node83</title>
<path fill="none" stroke="midnightblue" d="M2506.91,-688.79C2290.5,-679.8 1474.02,-645.88 1210.53,-634.93"/>
<polygon fill="midnightblue" stroke="midnightblue" points="1210.4,-631.42 1200.26,-634.5 1210.11,-638.41 1210.4,-631.42"/>
</g>
<!-- Node68 -->
<g id="node41" class="node">
<title>Node68</title>
<g id="a_node41"><a xlink:href="in__place__exec__ctxt_8h.html" target="_top" xlink:title=" ">
<polygon fill="white" stroke="red" points="1286,-358.5 1286,-388.5 1416,-388.5 1416,-358.5 1286,-358.5"/>
<text text-anchor="start" x="1294" y="-376.5" font-family="Helvetica,sans-Serif" font-size="10.00">core/execution_context</text>
<text text-anchor="middle" x="1351" y="-365.5" font-family="Helvetica,sans-Serif" font-size="10.00">/in_place_exec_ctxt.h</text>
</a>
</g>
</g>
<!-- Node1&#45;&gt;Node68 -->
<g id="edge132" class="edge">
<title>Node1&#45;&gt;Node68</title>
<path fill="none" stroke="midnightblue" d="M2506.71,-686.66C2436.28,-680.38 2308.55,-667.16 2201,-646 1976.95,-601.92 1921.96,-583.22 1705,-512 1590.36,-474.37 1458.73,-420.28 1392.97,-392.49"/>
<polygon fill="midnightblue" stroke="midnightblue" points="1394.33,-389.26 1383.76,-388.58 1391.6,-395.71 1394.33,-389.26"/>
</g>
<!-- Node89 -->
<g id="node42" class="node">
<title>Node89</title>
<g id="a_node42"><a xlink:href="gpu__helper_8h.html" target="_top" xlink:title=" ">
<polygon fill="white" stroke="black" points="3118,-621 3118,-640 3242,-640 3242,-621 3118,-621"/>
<text text-anchor="middle" x="3180" y="-628" font-family="Helvetica,sans-Serif" font-size="10.00">core/gpu/gpu_helper.h</text>
</a>
</g>
</g>
<!-- Node1&#45;&gt;Node89 -->
<g id="edge144" class="edge">
<title>Node1&#45;&gt;Node89</title>
<path fill="none" stroke="midnightblue" d="M2613.1,-688.48C2710.67,-683.43 2924.89,-670.42 3104,-646 3112.32,-644.87 3121.11,-643.42 3129.65,-641.88"/>
<polygon fill="midnightblue" stroke="midnightblue" points="3130.31,-645.32 3139.51,-640.05 3129.03,-638.44 3130.31,-645.32"/>
</g>
<!-- Node90 -->
<g id="node43" class="node">
<title>Node90</title>
<g id="a_node43"><a xlink:href="command__line__options_8h.html" target="_top" xlink:title=" ">
<polygon fill="white" stroke="red" points="2873,-425.5 2873,-455.5 2997,-455.5 2997,-425.5 2873,-425.5"/>
<text text-anchor="start" x="2881" y="-443.5" font-family="Helvetica,sans-Serif" font-size="10.00">core/param/command</text>
<text text-anchor="middle" x="2935" y="-432.5" font-family="Helvetica,sans-Serif" font-size="10.00">_line_options.h</text>
</a>
</g>
</g>
<!-- Node1&#45;&gt;Node90 -->
<g id="edge145" class="edge">
<title>Node1&#45;&gt;Node90</title>
<path fill="none" stroke="midnightblue" d="M2613.25,-689.35C2658.03,-685.79 2722.2,-675.4 2770,-646 2808.6,-622.25 2886.68,-512.18 2919.7,-464.08"/>
<polygon fill="midnightblue" stroke="midnightblue" points="2922.75,-465.83 2925.5,-455.6 2916.97,-461.88 2922.75,-465.83"/>
</g>
<!-- Node92 -->
<g id="node44" class="node">
<title>Node92</title>
<g id="a_node44"><a xlink:title=" ">
<polygon fill="white" stroke="#bfbfbf" points="3180,-364 3180,-383 3242,-383 3242,-364 3180,-364"/>
<text text-anchor="middle" x="3211" y="-371" font-family="Helvetica,sans-Serif" font-size="10.00">version.h</text>
</a>
</g>
</g>
<!-- Node1&#45;&gt;Node92 -->
<g id="edge175" class="edge">
<title>Node1&#45;&gt;Node92</title>
<path fill="none" stroke="midnightblue" d="M2613.08,-691.61C2767.38,-692.84 3207.69,-692.22 3251,-646 3318.82,-573.62 3249.88,-439.4 3221.76,-391.8"/>
<polygon fill="midnightblue" stroke="midnightblue" points="3224.61,-389.75 3216.44,-383.01 3218.62,-393.37 3224.61,-389.75"/>
</g>
<!-- Node93 -->
<g id="node45" class="node">
<title>Node93</title>
<g id="a_node45"><a xlink:href="filesystem_8h.html" target="_top" xlink:title=" ">
<polygon fill="white" stroke="black" points="3637.5,-492.5 3637.5,-511.5 3756.5,-511.5 3756.5,-492.5 3637.5,-492.5"/>
<text text-anchor="middle" x="3697" y="-499.5" font-family="Helvetica,sans-Serif" font-size="10.00">core/util/filesystem.h</text>
</a>
</g>
</g>
<!-- Node1&#45;&gt;Node93 -->
<g id="edge154" class="edge">
<title>Node1&#45;&gt;Node93</title>
<path fill="none" stroke="midnightblue" d="M2613.15,-690.16C2821.46,-686.69 3572.88,-672.38 3616,-646 3661.94,-617.9 3684.17,-553.5 3692.68,-521.6"/>
<polygon fill="midnightblue" stroke="midnightblue" points="3696.1,-522.34 3695.13,-511.79 3689.31,-520.64 3696.1,-522.34"/>
</g>
<!-- Node72 -->
<g id="node46" class="node">
<title>Node72</title>
<g id="a_node46"><a xlink:href="io_8h.html" target="_top" xlink:title=" ">
<polygon fill="white" stroke="red" points="3458.5,-230 3458.5,-249 3535.5,-249 3535.5,-230 3458.5,-230"/>
<text text-anchor="middle" x="3497" y="-237" font-family="Helvetica,sans-Serif" font-size="10.00">core/util/io.h</text>
</a>
</g>
</g>
<!-- Node1&#45;&gt;Node72 -->
<g id="edge156" class="edge">
<title>Node1&#45;&gt;Node72</title>
<path fill="none" stroke="midnightblue" d="M2613.15,-690.66C2775.1,-689.25 3260.71,-682.03 3414,-646 3502.65,-625.16 3602,-655.57 3602,-564.5 3602,-564.5 3602,-564.5 3602,-372.5 3602,-320 3550.49,-276.29 3519.63,-254.81"/>
<polygon fill="midnightblue" stroke="midnightblue" points="3521.41,-251.79 3511.16,-249.11 3517.5,-257.6 3521.41,-251.79"/>
</g>
<!-- Node94 -->
<g id="node47" class="node">
<title>Node94</title>
<g id="a_node47"><a xlink:href="timing_8h.html" target="_top" xlink:title=" ">
<polygon fill="white" stroke="red" points="3374,-431 3374,-450 3474,-450 3474,-431 3374,-431"/>
<text text-anchor="middle" x="3424" y="-438" font-family="Helvetica,sans-Serif" font-size="10.00">core/util/timing.h</text>
</a>
</g>
</g>
<!-- Node1&#45;&gt;Node94 -->
<g id="edge163" class="edge">
<title>Node1&#45;&gt;Node94</title>
<path fill="none" stroke="midnightblue" d="M2613,-689.69C2769.51,-685.53 3222.54,-671.43 3284,-646 3364.63,-612.64 3405.37,-503.78 3418.82,-459.99"/>
<polygon fill="midnightblue" stroke="midnightblue" points="3422.2,-460.93 3421.66,-450.35 3415.48,-458.95 3422.2,-460.93"/>
</g>
<!-- Node95 -->
<g id="node48" class="node">
<title>Node95</title>
<g id="a_node48"><a xlink:href="root_2adaptor_8h.html" target="_top" xlink:title=" ">
<polygon fill="white" stroke="red" points="2973.5,-548.5 2973.5,-578.5 3076.5,-578.5 3076.5,-548.5 2973.5,-548.5"/>
<text text-anchor="start" x="2981.5" y="-566.5" font-family="Helvetica,sans-Serif" font-size="10.00">core/visualization</text>
<text text-anchor="middle" x="3025" y="-555.5" font-family="Helvetica,sans-Serif" font-size="10.00">/root/adaptor.h</text>
</a>
</g>
</g>
<!-- Node1&#45;&gt;Node95 -->
<g id="edge167" class="edge">
<title>Node1&#45;&gt;Node95</title>
<path fill="none" stroke="midnightblue" d="M2613.18,-688.38C2701.76,-683.37 2875.32,-670.7 2931,-646 2961.58,-632.44 2989.56,-605.45 3006.9,-586.26"/>
<polygon fill="midnightblue" stroke="midnightblue" points="3009.68,-588.39 3013.65,-578.56 3004.42,-583.77 3009.68,-588.39"/>
</g>
<!-- Node113 -->
<g id="node49" class="node">
<title>Node113</title>
<g id="a_node49"><a xlink:title=" ">
<polygon fill="white" stroke="#bfbfbf" points="3820.5,-621 3820.5,-640 3921.5,-640 3921.5,-621 3820.5,-621"/>
<text text-anchor="middle" x="3871" y="-628" font-family="Helvetica,sans-Serif" font-size="10.00">memory_usage.h</text>
</a>
</g>
</g>
<!-- Node1&#45;&gt;Node113 -->
<g id="edge174" class="edge">
<title>Node1&#45;&gt;Node113</title>
<path fill="none" stroke="midnightblue" d="M2613.33,-690.38C2820.23,-687.76 3569.97,-676.33 3806,-646 3813.25,-645.07 3820.89,-643.71 3828.28,-642.2"/>
<polygon fill="midnightblue" stroke="midnightblue" points="3829.11,-645.6 3838.14,-640.06 3827.63,-638.76 3829.11,-645.6"/>
</g>
<!-- Node114 -->
<g id="node50" class="node">
<title>Node114</title>
<g id="a_node50"><a xlink:title=" ">
<polygon fill="white" stroke="#bfbfbf" points="3939.5,-621 3939.5,-640 3988.5,-640 3988.5,-621 3939.5,-621"/>
<text text-anchor="middle" x="3964" y="-628" font-family="Helvetica,sans-Serif" font-size="10.00">TEnv.h</text>
</a>
</g>
</g>
<!-- Node1&#45;&gt;Node114 -->
<g id="edge176" class="edge">
<title>Node1&#45;&gt;Node114</title>
<path fill="none" stroke="midnightblue" d="M2613.21,-690.45C2849.88,-687.83 3801.02,-675.53 3931,-646 3933.51,-645.43 3936.06,-644.67 3938.59,-643.79"/>
<polygon fill="midnightblue" stroke="midnightblue" points="3940.01,-646.99 3947.97,-640.01 3937.39,-640.5 3940.01,-646.99"/>
</g>
<!-- Node3 -->
<g id="node3" class="node">
<title>Node3</title>
<g id="a_node3"><a xlink:title=" ">
<polygon fill="white" stroke="#bfbfbf" points="2948.5,-56.5 2948.5,-75.5 3013.5,-75.5 3013.5,-56.5 2948.5,-56.5"/>
<text text-anchor="middle" x="2981" y="-63.5" font-family="Helvetica,sans-Serif" font-size="10.00">functional</text>
</a>
</g>
</g>
<!-- Node2&#45;&gt;Node3 -->
<g id="edge2" class="edge">
<title>Node2&#45;&gt;Node3</title>
<path fill="none" stroke="midnightblue" d="M2951.62,-370.18C2986.04,-365.65 3029.31,-353.52 3052,-322 3107.15,-245.4 3028.1,-127.57 2994.69,-83.98"/>
<polygon fill="midnightblue" stroke="midnightblue" points="2997.24,-81.56 2988.32,-75.84 2991.73,-85.87 2997.24,-81.56"/>
</g>
<!-- Node2&#45;&gt;Node4 -->
<g id="edge3" class="edge">
<title>Node2&#45;&gt;Node4</title>
<path fill="none" stroke="midnightblue" d="M2951.51,-366C2973.72,-363.28 3000.13,-360.24 3024,-358 3081.22,-352.63 3491.38,-352.64 3540,-322 3598.61,-285.07 3602,-248.27 3602,-179 3602,-179 3602,-179 3602,-121 3602,-86.81 3585.4,-49.76 3574.14,-28.57"/>
<polygon fill="midnightblue" stroke="midnightblue" points="3577.18,-26.83 3569.28,-19.77 3571.05,-30.22 3577.18,-26.83"/>
</g>
<!-- Node2&#45;&gt;Node5 -->
<g id="edge4" class="edge">
<title>Node2&#45;&gt;Node5</title>
<path fill="none" stroke="midnightblue" d="M2951.6,-368.12C2988.9,-362.61 3039.02,-350.15 3074,-322 3130.4,-276.61 3152,-251.4 3152,-179 3152,-179 3152,-179 3152,-121 3152,-56.4 3084.61,-71.89 3022,-56 2891.37,-22.85 1904.85,-12.92 1708.81,-11.27"/>
<polygon fill="midnightblue" stroke="midnightblue" points="1708.58,-7.76 1698.55,-11.18 1708.52,-14.76 1708.58,-7.76"/>
</g>
<!-- Node6 -->
<g id="node6" class="node">
<title>Node6</title>
<g id="a_node6"><a xlink:href="agent__uid_8h.html" target="_top" xlink:title=" ">
<polygon fill="white" stroke="black" points="2188,-230 2188,-249 2316,-249 2316,-230 2188,-230"/>
<text text-anchor="middle" x="2252" y="-237" font-family="Helvetica,sans-Serif" font-size="10.00">core/agent/agent_uid.h</text>
</a>
</g>
</g>
<!-- Node2&#45;&gt;Node6 -->
<g id="edge5" class="edge">
<title>Node2&#45;&gt;Node6</title>
<path fill="none" stroke="midnightblue" d="M2881.99,-363.88C2843.92,-347 2755.3,-309.63 2677,-291 2556.14,-262.24 2411.85,-249.51 2326.3,-244.13"/>
<polygon fill="midnightblue" stroke="midnightblue" points="2326.36,-240.63 2316.17,-243.51 2325.93,-247.62 2326.36,-240.63"/>
</g>
<!-- Node8 -->
<g id="node8" class="node">
<title>Node8</title>
<g id="a_node8"><a xlink:href="root_8h.html" target="_top" xlink:title=" ">
<polygon fill="white" stroke="red" points="2622,-168.5 2622,-187.5 2710,-187.5 2710,-168.5 2622,-168.5"/>
<text text-anchor="middle" x="2666" y="-175.5" font-family="Helvetica,sans-Serif" font-size="10.00">core/util/root.h</text>
</a>
</g>
</g>
<!-- Node2&#45;&gt;Node8 -->
<g id="edge37" class="edge">
<title>Node2&#45;&gt;Node8</title>
<path fill="none" stroke="midnightblue" d="M2911.34,-363.81C2928.27,-348.51 2958.47,-316 2942,-291 2893.19,-216.91 2785.83,-191.82 2720.33,-183.34"/>
<polygon fill="midnightblue" stroke="midnightblue" points="2720.54,-179.84 2710.19,-182.11 2719.7,-186.79 2720.54,-179.84"/>
</g>
<!-- Node17 -->
<g id="node13" class="node">
<title>Node17</title>
<g id="a_node13"><a xlink:href="opencl__state_8h.html" target="_top" xlink:title=" ">
<polygon fill="white" stroke="black" points="2800.5,-297 2800.5,-316 2933.5,-316 2933.5,-297 2800.5,-297"/>
<text text-anchor="middle" x="2867" y="-304" font-family="Helvetica,sans-Serif" font-size="10.00">core/gpu/opencl_state.h</text>
</a>
</g>
</g>
<!-- Node2&#45;&gt;Node17 -->
<g id="edge16" class="edge">
<title>Node2&#45;&gt;Node17</title>
<path fill="none" stroke="midnightblue" d="M2896.41,-363.73C2891.27,-353.89 2882.78,-337.66 2876.24,-325.16"/>
<polygon fill="midnightblue" stroke="midnightblue" points="2879.25,-323.37 2871.51,-316.13 2873.05,-326.61 2879.25,-323.37"/>
</g>
<!-- Node19 -->
<g id="node15" class="node">
<title>Node19</title>
<g id="a_node15"><a xlink:href="memory__manager_8h.html" target="_top" xlink:title=" ">
<polygon fill="white" stroke="red" points="1346,-291.5 1346,-321.5 1472,-321.5 1472,-291.5 1346,-291.5"/>
<text text-anchor="start" x="1354" y="-309.5" font-family="Helvetica,sans-Serif" font-size="10.00">core/memory/memory</text>
<text text-anchor="middle" x="1409" y="-298.5" font-family="Helvetica,sans-Serif" font-size="10.00">_manager.h</text>
</a>
</g>
</g>
<!-- Node2&#45;&gt;Node19 -->
<g id="edge19" class="edge">
<title>Node2&#45;&gt;Node19</title>
<path fill="none" stroke="midnightblue" d="M2850.24,-367.99C2811.99,-364.74 2758.24,-360.51 2711,-358 2181.73,-329.83 2047.3,-364.69 1519,-322 1507.15,-321.04 1494.62,-319.7 1482.43,-318.22"/>
<polygon fill="midnightblue" stroke="midnightblue" points="1482.64,-314.72 1472.29,-316.95 1481.77,-321.67 1482.64,-314.72"/>
</g>
<!-- Node32 -->
<g id="node21" class="node">
<title>Node32</title>
<g id="a_node21"><a xlink:href="random_8h.html" target="_top" xlink:title=" ">
<polygon fill="white" stroke="red" points="2562,-297 2562,-316 2668,-316 2668,-297 2562,-297"/>
<text text-anchor="middle" x="2615" y="-304" font-family="Helvetica,sans-Serif" font-size="10.00">core/util/random.h</text>
</a>
</g>
</g>
<!-- Node2&#45;&gt;Node32 -->
<g id="edge29" class="edge">
<title>Node2&#45;&gt;Node32</title>
<path fill="none" stroke="midnightblue" d="M2863.32,-363.94C2811.77,-352.22 2719.25,-331.19 2662.86,-318.38"/>
<polygon fill="midnightblue" stroke="midnightblue" points="2663.29,-314.89 2652.77,-316.08 2661.74,-321.71 2663.29,-314.89"/>
</g>
<!-- Node7 -->
<g id="node7" class="node">
<title>Node7</title>
<g id="a_node7"><a xlink:title=" ">
<polygon fill="white" stroke="#bfbfbf" points="1805,-168.5 1805,-187.5 1849,-187.5 1849,-168.5 1805,-168.5"/>
<text text-anchor="middle" x="1827" y="-175.5" font-family="Helvetica,sans-Serif" font-size="10.00">limits</text>
</a>
</g>
</g>
<!-- Node6&#45;&gt;Node7 -->
<g id="edge6" class="edge">
<title>Node6&#45;&gt;Node7</title>
<path fill="none" stroke="midnightblue" d="M2208.34,-229.95C2197.17,-227.88 2185.16,-225.76 2174,-224 2058.8,-205.84 1921.24,-189.61 1859.64,-182.63"/>
<polygon fill="midnightblue" stroke="midnightblue" points="1859.72,-179.11 1849.39,-181.47 1858.93,-186.07 1859.72,-179.11"/>
</g>
<!-- Node6&#45;&gt;Node8 -->
<g id="edge7" class="edge">
<title>Node6&#45;&gt;Node8</title>
<path fill="none" stroke="midnightblue" d="M2311.32,-229.98C2391.66,-218.43 2533.95,-197.98 2611.65,-186.81"/>
<polygon fill="midnightblue" stroke="midnightblue" points="2612.31,-190.25 2621.71,-185.36 2611.32,-183.32 2612.31,-190.25"/>
</g>
<!-- Node8&#45;&gt;Node10 -->
<g id="edge8" class="edge">
<title>Node8&#45;&gt;Node10</title>
<path fill="none" stroke="midnightblue" d="M2666,-168.08C2666,-161.01 2666,-150.86 2666,-141.99"/>
<polygon fill="midnightblue" stroke="midnightblue" points="2669.5,-141.75 2666,-131.75 2662.5,-141.75 2669.5,-141.75"/>
</g>
<!-- Node10&#45;&gt;Node3 -->
<g id="edge10" class="edge">
<title>Node10&#45;&gt;Node3</title>
<path fill="none" stroke="midnightblue" d="M2707.5,-113.88C2767.52,-103.6 2877.95,-84.67 2938.51,-74.28"/>
<polygon fill="midnightblue" stroke="midnightblue" points="2939.23,-77.71 2948.5,-72.57 2938.05,-70.81 2939.23,-77.71"/>
</g>
<!-- Node10&#45;&gt;Node4 -->
<g id="edge11" class="edge">
<title>Node10&#45;&gt;Node4</title>
<path fill="none" stroke="midnightblue" d="M2695.18,-112.4C2744.79,-98.16 2848.95,-69.87 2939,-56 3164.21,-21.32 3439.29,-13.26 3531.87,-11.48"/>
<polygon fill="midnightblue" stroke="midnightblue" points="3532.06,-14.98 3541.99,-11.3 3531.93,-7.98 3532.06,-14.98"/>
</g>
<!-- Node10&#45;&gt;Node13 -->
<g id="edge9" class="edge">
<title>Node10&#45;&gt;Node13</title>
<path fill="none" stroke="midnightblue" d="M2624.49,-119.95C2352.32,-113.03 826.38,-74.27 575.05,-67.89"/>
<polygon fill="midnightblue" stroke="midnightblue" points="574.78,-64.38 564.69,-67.63 574.6,-71.38 574.78,-64.38"/>
</g>
<!-- Node10&#45;&gt;Node15 -->
<g id="edge12" class="edge">
<title>Node10&#45;&gt;Node15</title>
<path fill="none" stroke="midnightblue" d="M2624.29,-118.43C2481.64,-109.65 2012.96,-80.79 1847.49,-70.6"/>
<polygon fill="midnightblue" stroke="midnightblue" points="1847.23,-67.08 1837.04,-69.96 1846.8,-74.07 1847.23,-67.08"/>
</g>
<!-- Node15&#45;&gt;Node4 -->
<g id="edge14" class="edge">
<title>Node15&#45;&gt;Node4</title>
<path fill="none" stroke="midnightblue" d="M1837.4,-63.53C2096.54,-55.64 3316.26,-18.54 3531.51,-11.99"/>
<polygon fill="midnightblue" stroke="midnightblue" points="3531.92,-15.48 3541.81,-11.67 3531.71,-8.48 3531.92,-15.48"/>
</g>
<!-- Node15&#45;&gt;Node5 -->
<g id="edge15" class="edge">
<title>Node15&#45;&gt;Node5</title>
<path fill="none" stroke="midnightblue" d="M1770.94,-56.44C1752.43,-47.68 1723.42,-33.94 1702.14,-23.86"/>
<polygon fill="midnightblue" stroke="midnightblue" points="1703.51,-20.63 1692.98,-19.52 1700.52,-26.96 1703.51,-20.63"/>
</g>
<!-- Node15&#45;&gt;Node16 -->
<g id="edge13" class="edge">
<title>Node15&#45;&gt;Node16</title>
<path fill="none" stroke="midnightblue" d="M1758.89,-56.44C1725.8,-47.04 1672.58,-31.91 1636.73,-21.72"/>
<polygon fill="midnightblue" stroke="midnightblue" points="1637.68,-18.36 1627.11,-18.99 1635.77,-25.09 1637.68,-18.36"/>
</g>
<!-- Node17&#45;&gt;Node5 -->
<g id="edge18" class="edge">
<title>Node17&#45;&gt;Node5</title>
<path fill="none" stroke="midnightblue" d="M2862.49,-296.87C2852.43,-276.79 2829,-225.09 2829,-179 2829,-179 2829,-179 2829,-121 2829,-5.38 1899.21,-8.7 1708.81,-10.59"/>
<polygon fill="midnightblue" stroke="midnightblue" points="1708.54,-7.09 1698.57,-10.69 1708.61,-14.09 1708.54,-7.09"/>
</g>
<!-- Node17&#45;&gt;Node18 -->
<g id="edge17" class="edge">
<title>Node17&#45;&gt;Node18</title>
<path fill="none" stroke="midnightblue" d="M2800.18,-300.33C2763.76,-297.54 2717.91,-294.04 2677,-291 2455.7,-274.56 2399.03,-283.84 2179,-255 2166.95,-253.42 2153.92,-251.15 2142.11,-248.86"/>
<polygon fill="midnightblue" stroke="midnightblue" points="2142.59,-245.39 2132.1,-246.88 2141.23,-252.26 2142.59,-245.39"/>
</g>
<!-- Node19&#45;&gt;Node5 -->
<g id="edge21" class="edge">
<title>Node19&#45;&gt;Node5</title>
<path fill="none" stroke="midnightblue" d="M1435.44,-291.4C1469.12,-271.31 1523,-231.03 1523,-179 1523,-179 1523,-179 1523,-121 1523,-62.98 1596.59,-32.44 1641.36,-19.24"/>
<polygon fill="midnightblue" stroke="midnightblue" points="1642.57,-22.53 1651.25,-16.46 1640.68,-15.79 1642.57,-22.53"/>
</g>
<!-- Node19&#45;&gt;Node22 -->
<g id="edge20" class="edge">
<title>Node19&#45;&gt;Node22</title>
<path fill="none" stroke="midnightblue" d="M1472.02,-292C1557.5,-274.13 1715.14,-242.69 1851,-224 2023.4,-200.29 2231.49,-185.93 2310.97,-180.97"/>
<polygon fill="midnightblue" stroke="midnightblue" points="2311.55,-184.44 2321.31,-180.33 2311.12,-177.45 2311.55,-184.44"/>
</g>
<!-- Node28 -->
<g id="node17" class="node">
<title>Node28</title>
<g id="a_node17"><a xlink:href="spinlock_8h.html" target="_top" xlink:title=" ">
<polygon fill="white" stroke="black" points="1099.5,-230 1099.5,-249 1208.5,-249 1208.5,-230 1099.5,-230"/>
<text text-anchor="middle" x="1154" y="-237" font-family="Helvetica,sans-Serif" font-size="10.00">core/util/spinlock.h</text>
</a>
</g>
</g>
<!-- Node19&#45;&gt;Node28 -->
<g id="edge22" class="edge">
<title>Node19&#45;&gt;Node28</title>
<path fill="none" stroke="midnightblue" d="M1353.98,-291.48C1307.08,-279.52 1240.59,-262.57 1197.38,-251.56"/>
<polygon fill="midnightblue" stroke="midnightblue" points="1198.01,-248.11 1187.46,-249.03 1196.28,-254.89 1198.01,-248.11"/>
</g>
<!-- Node19&#45;&gt;Node30 -->
<g id="edge24" class="edge">
<title>Node19&#45;&gt;Node30</title>
<path fill="none" stroke="midnightblue" d="M1345.84,-299.85C1211.47,-287.81 897.93,-259.74 755.6,-247"/>
<polygon fill="midnightblue" stroke="midnightblue" points="755.51,-243.48 745.24,-246.07 754.89,-250.45 755.51,-243.48"/>
</g>
<!-- Node29 -->
<g id="node18" class="node">
<title>Node29</title>
<g id="a_node18"><a xlink:title=" ">
<polygon fill="white" stroke="#bfbfbf" points="786,-168.5 786,-187.5 836,-187.5 836,-168.5 786,-168.5"/>
<text text-anchor="middle" x="811" y="-175.5" font-family="Helvetica,sans-Serif" font-size="10.00">atomic</text>
</a>
</g>
</g>
<!-- Node28&#45;&gt;Node29 -->
<g id="edge23" class="edge">
<title>Node28&#45;&gt;Node29</title>
<path fill="none" stroke="midnightblue" d="M1115.01,-229.99C1105.23,-227.94 1094.75,-225.82 1085,-224 999.66,-208.03 898.79,-192.26 846.48,-184.31"/>
<polygon fill="midnightblue" stroke="midnightblue" points="846.79,-180.82 836.38,-182.78 845.74,-187.74 846.79,-180.82"/>
</g>
<!-- Node30&#45;&gt;Node5 -->
<g id="edge27" class="edge">
<title>Node30&#45;&gt;Node5</title>
<path fill="none" stroke="midnightblue" d="M686.91,-229.86C694.3,-214.6 711.88,-183.06 737,-168 1084.28,40.25 1238.74,-98.46 1636,-20 1637.69,-19.67 1639.41,-19.31 1641.15,-18.95"/>
<polygon fill="midnightblue" stroke="midnightblue" points="1642.11,-22.32 1651.13,-16.76 1640.61,-15.48 1642.11,-22.32"/>
</g>
<!-- Node30&#45;&gt;Node10 -->
<g id="edge28" class="edge">
<title>Node30&#45;&gt;Node10</title>
<path fill="none" stroke="midnightblue" d="M690.75,-229.89C705.62,-214.07 739.99,-180.83 777,-168 866.08,-137.12 2318.73,-125.41 2613.91,-123.34"/>
<polygon fill="midnightblue" stroke="midnightblue" points="2614.34,-126.84 2624.32,-123.27 2614.29,-119.84 2614.34,-126.84"/>
</g>
<!-- Node30&#45;&gt;Node29 -->
<g id="edge26" class="edge">
<title>Node30&#45;&gt;Node29</title>
<path fill="none" stroke="midnightblue" d="M701.34,-229.98C722.82,-219.99 758.62,-203.35 783.45,-191.81"/>
<polygon fill="midnightblue" stroke="midnightblue" points="785.1,-194.9 792.69,-187.51 782.15,-188.55 785.1,-194.9"/>
</g>
<!-- Node30&#45;&gt;Node27 -->
<g id="edge25" class="edge">
<title>Node30&#45;&gt;Node27</title>
<path fill="none" stroke="midnightblue" d="M655.35,-229.98C620.57,-219.25 560.91,-200.86 523.56,-189.35"/>
<polygon fill="midnightblue" stroke="midnightblue" points="524.24,-185.89 513.66,-186.29 522.18,-192.58 524.24,-185.89"/>
</g>
<!-- Node32&#45;&gt;Node8 -->
<g id="edge36" class="edge">
<title>Node32&#45;&gt;Node8</title>
<path fill="none" stroke="midnightblue" d="M2618.51,-296.81C2626.77,-276.31 2647.6,-224.65 2658.73,-197.04"/>
<polygon fill="midnightblue" stroke="midnightblue" points="2661.98,-198.34 2662.47,-187.76 2655.48,-195.72 2661.98,-198.34"/>
</g>
<!-- Node35 -->
<g id="node22" class="node">
<title>Node35</title>
<g id="a_node22"><a xlink:href="math__array_8h.html" target="_top" xlink:title=" ">
<polygon fill="white" stroke="red" points="1341.5,-224.5 1341.5,-254.5 1456.5,-254.5 1456.5,-224.5 1341.5,-224.5"/>
<text text-anchor="start" x="1349.5" y="-242.5" font-family="Helvetica,sans-Serif" font-size="10.00">core/container/math</text>
<text text-anchor="middle" x="1399" y="-231.5" font-family="Helvetica,sans-Serif" font-size="10.00">_array.h</text>
</a>
</g>
</g>
<!-- Node32&#45;&gt;Node35 -->
<g id="edge30" class="edge">
<title>Node32&#45;&gt;Node35</title>
<path fill="none" stroke="midnightblue" d="M2561.97,-302.67C2366.23,-292.2 1684.45,-255.76 1466.53,-244.11"/>
<polygon fill="midnightblue" stroke="midnightblue" points="1466.68,-240.61 1456.51,-243.57 1466.3,-247.6 1466.68,-240.61"/>
</g>
<!-- Node35&#45;&gt;Node8 -->
<g id="edge35" class="edge">
<title>Node35&#45;&gt;Node8</title>
<path fill="none" stroke="midnightblue" d="M1456.73,-235.79C1669.07,-225.82 2405.09,-191.25 2611.69,-181.55"/>
<polygon fill="midnightblue" stroke="midnightblue" points="2612.16,-185.03 2621.98,-181.07 2611.83,-178.04 2612.16,-185.03"/>
</g>
<!-- Node35&#45;&gt;Node22 -->
<g id="edge34" class="edge">
<title>Node35&#45;&gt;Node22</title>
<path fill="none" stroke="midnightblue" d="M1456.59,-232.3C1483.95,-229.5 1517.14,-226.3 1547,-224 1843.53,-201.11 2202.99,-184.97 2311.48,-180.35"/>
<polygon fill="midnightblue" stroke="midnightblue" points="2311.63,-183.85 2321.47,-179.93 2311.33,-176.86 2311.63,-183.85"/>
</g>
<!-- Node35&#45;&gt;Node36 -->
<g id="edge31" class="edge">
<title>Node35&#45;&gt;Node36</title>
<path fill="none" stroke="midnightblue" d="M1369.61,-224.4C1349.18,-214.59 1322.14,-201.62 1302.2,-192.05"/>
<polygon fill="midnightblue" stroke="midnightblue" points="1303.57,-188.83 1293.04,-187.66 1300.54,-195.14 1303.57,-188.83"/>
</g>
<!-- Node35&#45;&gt;Node37 -->
<g id="edge32" class="edge">
<title>Node35&#45;&gt;Node37</title>
<path fill="none" stroke="midnightblue" d="M1341.25,-233.42C1305.48,-230.4 1258.6,-226.64 1217,-224 879.52,-202.57 794.68,-205.93 457,-188 416,-185.82 368.84,-183 337.84,-181.1"/>
<polygon fill="midnightblue" stroke="midnightblue" points="337.78,-177.59 327.58,-180.47 337.35,-184.58 337.78,-177.59"/>
</g>
<!-- Node35&#45;&gt;Node39 -->
<g id="edge33" class="edge">
<title>Node35&#45;&gt;Node39</title>
<path fill="none" stroke="midnightblue" d="M1341.42,-227.79C1276.71,-215.76 1173.44,-196.56 1117.7,-186.2"/>
<polygon fill="midnightblue" stroke="midnightblue" points="1118.34,-182.75 1107.87,-184.37 1117.06,-189.64 1118.34,-182.75"/>
</g>
<!-- Node44&#45;&gt;Node2 -->
<g id="edge75" class="edge">
<title>Node44&#45;&gt;Node2</title>
<path fill="none" stroke="midnightblue" d="M2194.79,-434.43C2337.34,-422.33 2696.04,-391.89 2839.9,-379.68"/>
<polygon fill="midnightblue" stroke="midnightblue" points="2840.63,-383.14 2850.3,-378.8 2840.04,-376.16 2840.63,-383.14"/>
</g>
<!-- Node44&#45;&gt;Node6 -->
<g id="edge58" class="edge">
<title>Node44&#45;&gt;Node6</title>
<path fill="none" stroke="midnightblue" d="M2163.04,-425.4C2177.73,-416.72 2194.91,-404.32 2206,-389 2235.2,-348.66 2246.2,-289.33 2250.07,-259.34"/>
<polygon fill="midnightblue" stroke="midnightblue" points="2253.59,-259.39 2251.26,-249.06 2246.64,-258.59 2253.59,-259.39"/>
</g>
<!-- Node44&#45;&gt;Node7 -->
<g id="edge53" class="edge">
<title>Node44&#45;&gt;Node7</title>
<path fill="none" stroke="midnightblue" d="M2141.76,-425.26C2159.6,-385.36 2202.55,-272.27 2141,-224 2097.72,-190.06 1930.82,-181.69 1859.55,-179.65"/>
<polygon fill="midnightblue" stroke="midnightblue" points="1859.45,-176.14 1849.36,-179.38 1859.27,-183.14 1859.45,-176.14"/>
</g>
<!-- Node44&#45;&gt;Node8 -->
<g id="edge76" class="edge">
<title>Node44&#45;&gt;Node8</title>
<path fill="none" stroke="midnightblue" d="M2182.01,-425.46C2242.27,-407.84 2350.18,-377.57 2444,-358 2495.29,-347.3 2642.9,-361.77 2677,-322 2707.3,-286.66 2687.48,-226.67 2674.58,-196.88"/>
<polygon fill="midnightblue" stroke="midnightblue" points="2677.73,-195.35 2670.4,-187.7 2671.36,-198.25 2677.73,-195.35"/>
</g>
<!-- Node44&#45;&gt;Node28 -->
<g id="edge77" class="edge">
<title>Node44&#45;&gt;Node28</title>
<path fill="none" stroke="midnightblue" d="M2075.2,-438.03C1892.76,-433.27 1351.14,-416.93 1277,-389 1231.66,-371.92 1221,-360.05 1191,-322 1175.78,-302.7 1165.25,-276.13 1159.41,-258.65"/>
<polygon fill="midnightblue" stroke="midnightblue" points="1162.74,-257.57 1156.39,-249.09 1156.07,-259.68 1162.74,-257.57"/>
</g>
<!-- Node44&#45;&gt;Node29 -->
<g id="edge52" class="edge">
<title>Node44&#45;&gt;Node29</title>
<path fill="none" stroke="midnightblue" d="M2075.41,-439.34C1899,-438.38 1381.57,-431.88 1219,-389 1058.14,-346.57 888.22,-233.63 831.07,-193.44"/>
<polygon fill="midnightblue" stroke="midnightblue" points="833.06,-190.57 822.88,-187.64 829.02,-196.28 833.06,-190.57"/>
</g>
<!-- Node45 -->
<g id="node30" class="node">
<title>Node45</title>
<g id="a_node30"><a xlink:title=" ">
<polygon fill="white" stroke="#bfbfbf" points="1964,-364 1964,-383 2012,-383 2012,-364 1964,-364"/>
<text text-anchor="middle" x="1988" y="-371" font-family="Helvetica,sans-Serif" font-size="10.00">mutex</text>
</a>
</g>
</g>
<!-- Node44&#45;&gt;Node45 -->
<g id="edge54" class="edge">
<title>Node44&#45;&gt;Node45</title>
<path fill="none" stroke="midnightblue" d="M2103.1,-425.4C2077.31,-413.99 2041.33,-398.08 2016.49,-387.1"/>
<polygon fill="midnightblue" stroke="midnightblue" points="2017.8,-383.85 2007.24,-383.01 2014.97,-390.25 2017.8,-383.85"/>
</g>
<!-- Node46 -->
<g id="node31" class="node">
<title>Node46</title>
<g id="a_node31"><a xlink:href="agent__handle_8h.html" target="_top" xlink:title=" ">
<polygon fill="white" stroke="black" points="1942,-297 1942,-316 2088,-316 2088,-297 1942,-297"/>
<text text-anchor="middle" x="2015" y="-304" font-family="Helvetica,sans-Serif" font-size="10.00">core/agent/agent_handle.h</text>
</a>
</g>
</g>
<!-- Node44&#45;&gt;Node46 -->
<g id="edge55" class="edge">
<title>Node44&#45;&gt;Node46</title>
<path fill="none" stroke="midnightblue" d="M2122.16,-425.37C2099.68,-400.65 2053.35,-349.68 2029.65,-323.62"/>
<polygon fill="midnightblue" stroke="midnightblue" points="2032.13,-321.14 2022.82,-316.1 2026.95,-325.85 2032.13,-321.14"/>
</g>
<!-- Node47 -->
<g id="node32" class="node">
<title>Node47</title>
<g id="a_node32"><a xlink:href="agent__uid__map_8h.html" target="_top" xlink:title=" ">
<polygon fill="white" stroke="black" points="1768.5,-291.5 1768.5,-321.5 1885.5,-321.5 1885.5,-291.5 1768.5,-291.5"/>
<text text-anchor="start" x="1776.5" y="-309.5" font-family="Helvetica,sans-Serif" font-size="10.00">core/container/agent</text>
<text text-anchor="middle" x="1827" y="-298.5" font-family="Helvetica,sans-Serif" font-size="10.00">_uid_map.h</text>
</a>
</g>
</g>
<!-- Node44&#45;&gt;Node47 -->
<g id="edge59" class="edge">
<title>Node44&#45;&gt;Node47</title>
<path fill="none" stroke="midnightblue" d="M2113.71,-425.47C2098.8,-415.52 2078.48,-401.72 2061,-389 2042.81,-375.77 2041.18,-367.92 2021,-358 1981.58,-338.62 1933.87,-326.07 1895.63,-318.33"/>
<polygon fill="midnightblue" stroke="midnightblue" points="1896.1,-314.86 1885.62,-316.37 1894.76,-321.73 1896.1,-314.86"/>
</g>
<!-- Node44&#45;&gt;Node48 -->
<g id="edge63" class="edge">
<title>Node44&#45;&gt;Node48</title>
<path fill="none" stroke="midnightblue" d="M2194.54,-432.04C2294.83,-419.48 2496.23,-394.26 2595.69,-381.8"/>
<polygon fill="midnightblue" stroke="midnightblue" points="2596.37,-385.25 2605.86,-380.53 2595.5,-378.3 2596.37,-385.25"/>
</g>
<!-- Node46&#45;&gt;Node7 -->
<g id="edge56" class="edge">
<title>Node46&#45;&gt;Node7</title>
<path fill="none" stroke="midnightblue" d="M2002.08,-296.81C1970.21,-275.36 1887.58,-219.76 1848.32,-193.35"/>
<polygon fill="midnightblue" stroke="midnightblue" points="1850.01,-190.27 1839.76,-187.59 1846.11,-196.07 1850.01,-190.27"/>
</g>
<!-- Node46&#45;&gt;Node8 -->
<g id="edge57" class="edge">
<title>Node46&#45;&gt;Node8</title>
<path fill="none" stroke="midnightblue" d="M2073.74,-296.96C2136.22,-287.65 2237.86,-271.79 2325,-255 2431.57,-234.46 2555.75,-205.51 2620.86,-189.93"/>
<polygon fill="midnightblue" stroke="midnightblue" points="2621.89,-193.29 2630.8,-187.55 2620.25,-186.48 2621.89,-193.29"/>
</g>
<!-- Node47&#45;&gt;Node5 -->
<g id="edge61" class="edge">
<title>Node47&#45;&gt;Node5</title>
<path fill="none" stroke="midnightblue" d="M1800.56,-291.4C1766.88,-271.31 1713,-231.03 1713,-179 1713,-179 1713,-179 1713,-121 1713,-86.81 1696.4,-49.76 1685.14,-28.57"/>
<polygon fill="midnightblue" stroke="midnightblue" points="1688.18,-26.83 1680.28,-19.77 1682.05,-30.22 1688.18,-26.83"/>
</g>
<!-- Node47&#45;&gt;Node6 -->
<g id="edge62" class="edge">
<title>Node47&#45;&gt;Node6</title>
<path fill="none" stroke="midnightblue" d="M1885.52,-293.59C1890.41,-292.68 1895.29,-291.81 1900,-291 1952.24,-282.07 2092.75,-262.4 2179.63,-250.42"/>
<polygon fill="midnightblue" stroke="midnightblue" points="2180.26,-253.86 2189.69,-249.03 2179.3,-246.93 2180.26,-253.86"/>
</g>
<!-- Node47&#45;&gt;Node7 -->
<g id="edge60" class="edge">
<title>Node47&#45;&gt;Node7</title>
<path fill="none" stroke="midnightblue" d="M1827,-291.48C1827,-268.72 1827,-223.7 1827,-198.06"/>
<polygon fill="midnightblue" stroke="midnightblue" points="1830.5,-197.79 1827,-187.79 1823.5,-197.79 1830.5,-197.79"/>
</g>
<!-- Node48&#45;&gt;Node3 -->
<g id="edge65" class="edge">
<title>Node48&#45;&gt;Node3</title>
<path fill="none" stroke="midnightblue" d="M2702.3,-368.32C2787.74,-360.45 2958.24,-342.36 2976,-322 3035.56,-253.74 3003.11,-131.71 2987.68,-85.46"/>
<polygon fill="midnightblue" stroke="midnightblue" points="2990.94,-84.16 2984.35,-75.86 2984.32,-86.46 2990.94,-84.16"/>
</g>
<!-- Node48&#45;&gt;Node4 -->
<g id="edge66" class="edge">
<title>Node48&#45;&gt;Node4</title>
<path fill="none" stroke="midnightblue" d="M2702.03,-368.63C2739.8,-365.63 2793.74,-361.41 2841,-358 3080.91,-340.7 3146.65,-376.18 3381,-322 3457.71,-304.26 3493.44,-314.51 3545,-255 3567.8,-228.69 3564,-213.82 3564,-179 3564,-179 3564,-179 3564,-121 3564,-88.95 3564,-51.64 3564,-29.75"/>
<polygon fill="midnightblue" stroke="midnightblue" points="3567.5,-29.56 3564,-19.56 3560.5,-29.56 3567.5,-29.56"/>
</g>
<!-- Node48&#45;&gt;Node5 -->
<g id="edge68" class="edge">
<title>Node48&#45;&gt;Node5</title>
<path fill="none" stroke="midnightblue" d="M2631.4,-363.99C2610,-355.32 2577.58,-340.52 2553,-322 2505.77,-286.41 2508.33,-261.98 2463,-224 2427.46,-194.23 2417.81,-185.78 2375,-168 2131.44,-66.83 1811.86,-25.61 1708.67,-14.38"/>
<polygon fill="midnightblue" stroke="midnightblue" points="1708.86,-10.88 1698.54,-13.3 1708.12,-17.84 1708.86,-10.88"/>
</g>
<!-- Node48&#45;&gt;Node22 -->
<g id="edge67" class="edge">
<title>Node48&#45;&gt;Node22</title>
<path fill="none" stroke="midnightblue" d="M2617.57,-363.98C2589.23,-356.18 2549.84,-342.66 2520,-322 2472.35,-289.02 2479.88,-259.4 2434,-224 2416.49,-210.5 2394.3,-199.34 2376.33,-191.52"/>
<polygon fill="midnightblue" stroke="midnightblue" points="2377.42,-188.18 2366.84,-187.52 2374.7,-194.63 2377.42,-188.18"/>
</g>
<!-- Node48&#45;&gt;Node36 -->
<g id="edge64" class="edge">
<title>Node48&#45;&gt;Node36</title>
<path fill="none" stroke="midnightblue" d="M2605.71,-370.99C2369.92,-363.6 1350.36,-331.14 1337,-322 1326.02,-314.49 1295.34,-234.18 1281.69,-197.31"/>
<polygon fill="midnightblue" stroke="midnightblue" points="1284.92,-195.95 1278.18,-187.78 1278.35,-198.37 1284.92,-195.95"/>
</g>
<!-- Node48&#45;&gt;Node52 -->
<g id="edge69" class="edge">
<title>Node48&#45;&gt;Node52</title>
<path fill="none" stroke="midnightblue" d="M2702.26,-367.75C2817.97,-356.35 3111.46,-327.45 3245.43,-314.25"/>
<polygon fill="midnightblue" stroke="midnightblue" points="3245.96,-317.72 3255.57,-313.25 3245.28,-310.75 3245.96,-317.72"/>
</g>
<!-- Node52&#45;&gt;Node4 -->
<g id="edge71" class="edge">
<title>Node52&#45;&gt;Node4</title>
<path fill="none" stroke="midnightblue" d="M3312.85,-296.93C3310.23,-276.54 3304,-223.5 3304,-179 3304,-179 3304,-179 3304,-121 3304,-23.3 3461.64,-11.06 3531.42,-10.42"/>
<polygon fill="midnightblue" stroke="midnightblue" points="3531.84,-13.92 3541.83,-10.41 3531.83,-6.92 3531.84,-13.92"/>
</g>
<!-- Node52&#45;&gt;Node5 -->
<g id="edge72" class="edge">
<title>Node52&#45;&gt;Node5</title>
<path fill="none" stroke="midnightblue" d="M3312.08,-296.97C3303.24,-260.03 3262.74,-113.05 3166,-56 3101.18,-17.78 1924.77,-11.87 1708.88,-11.1"/>
<polygon fill="midnightblue" stroke="midnightblue" points="1708.79,-7.6 1698.78,-11.07 1708.77,-14.6 1708.79,-7.6"/>
</g>
<!-- Node52&#45;&gt;Node8 -->
<g id="edge73" class="edge">
<title>Node52&#45;&gt;Node8</title>
<path fill="none" stroke="midnightblue" d="M3277.56,-296.97C3210.55,-281.43 3063.15,-247.9 2938,-224 2862.91,-209.66 2775.65,-195.7 2720.63,-187.22"/>
<polygon fill="midnightblue" stroke="midnightblue" points="2720.82,-183.71 2710.41,-185.66 2719.76,-190.63 2720.82,-183.71"/>
</g>
<!-- Node52&#45;&gt;Node18 -->
<g id="edge70" class="edge">
<title>Node52&#45;&gt;Node18</title>
<path fill="none" stroke="midnightblue" d="M3255.79,-303.14C3031.47,-294.03 2232.84,-261.3 2179,-255 2166.93,-253.59 2153.89,-251.36 2142.09,-249.07"/>
<polygon fill="midnightblue" stroke="midnightblue" points="2142.57,-245.6 2132.08,-247.07 2141.2,-252.47 2142.57,-245.6"/>
</g>
<!-- Node52&#45;&gt;Node41 -->
<g id="edge74" class="edge">
<title>Node52&#45;&gt;Node41</title>
<path fill="none" stroke="midnightblue" d="M3323.71,-296.73C3335.26,-286.31 3354.75,-268.71 3368.86,-255.97"/>
<polygon fill="midnightblue" stroke="midnightblue" points="3371.37,-258.43 3376.44,-249.13 3366.68,-253.23 3371.37,-258.43"/>
</g>
<!-- Node65&#45;&gt;Node5 -->
<g id="edge79" class="edge">
<title>Node65&#45;&gt;Node5</title>
<path fill="none" stroke="midnightblue" d="M972.49,-554C792.32,-517.57 114,-367.88 114,-179 114,-179 114,-179 114,-121 114,-108.73 -26,-104.89 495,-56 1000.14,-8.6 1132.86,-85.35 1636,-20 1637.71,-19.78 1639.45,-19.52 1641.2,-19.22"/>
<polygon fill="midnightblue" stroke="midnightblue" points="1642.07,-22.62 1651.21,-17.27 1640.72,-15.75 1642.07,-22.62"/>
</g>
<!-- Node65&#45;&gt;Node35 -->
<g id="edge91" class="edge">
<title>Node65&#45;&gt;Node35</title>
<path fill="none" stroke="midnightblue" d="M1016.41,-553.92C1017.3,-540.3 1020.14,-513.12 1029,-492 1043.07,-458.46 1049.12,-449.5 1076,-425 1162.33,-346.33 1287.89,-286.73 1354.16,-258.52"/>
<polygon fill="midnightblue" stroke="midnightblue" points="1355.64,-261.7 1363.5,-254.59 1352.92,-255.25 1355.64,-261.7"/>
</g>
<!-- Node66 -->
<g id="node36" class="node">
<title>Node66</title>
<g id="a_node36"><a xlink:href="agent_8h.html" target="_top" xlink:title=" ">
<polygon fill="white" stroke="red" points="1528,-297 1528,-316 1636,-316 1636,-297 1528,-297"/>
<text text-anchor="middle" x="1582" y="-304" font-family="Helvetica,sans-Serif" font-size="10.00">core/agent/agent.h</text>
</a>
</g>
</g>
<!-- Node65&#45;&gt;Node66 -->
<g id="edge80" class="edge">
<title>Node65&#45;&gt;Node66</title>
<path fill="none" stroke="midnightblue" d="M1017.68,-553.73C1020.83,-539.35 1028.79,-510.53 1045,-492 1123.39,-402.37 1164.9,-398.15 1277,-358 1299.22,-350.04 1434.92,-329.17 1517.65,-316.9"/>
<polygon fill="midnightblue" stroke="midnightblue" points="1518.33,-320.34 1527.71,-315.41 1517.31,-313.41 1518.33,-320.34"/>
</g>
<!-- Node69 -->
<g id="node37" class="node">
<title>Node69</title>
<g id="a_node37"><a xlink:href="functor_8h.html" target="_top" xlink:title=" ">
<polygon fill="white" stroke="black" points="636.5,-297 636.5,-316 719.5,-316 719.5,-297 636.5,-297"/>
<text text-anchor="middle" x="678" y="-304" font-family="Helvetica,sans-Serif" font-size="10.00">core/functor.h</text>
</a>
</g>
</g>
<!-- Node65&#45;&gt;Node69 -->
<g id="edge92" class="edge">
<title>Node65&#45;&gt;Node69</title>
<path fill="none" stroke="midnightblue" d="M1000.43,-553.92C969.8,-536.8 900.04,-496.55 846,-456 793.63,-416.7 785.14,-401.28 736,-358 722.46,-346.07 707.04,-332.66 695.51,-322.65"/>
<polygon fill="midnightblue" stroke="midnightblue" points="697.73,-319.95 687.88,-316.04 693.15,-325.24 697.73,-319.95"/>
</g>
<!-- Node77 -->
<g id="node38" class="node">
<title>Node77</title>
<g id="a_node38"><a xlink:href="load__balance__info_8h.html" target="_top" xlink:title=" ">
<polygon fill="white" stroke="red" points="1054,-492.5 1054,-511.5 1192,-511.5 1192,-492.5 1054,-492.5"/>
<text text-anchor="middle" x="1123" y="-499.5" font-family="Helvetica,sans-Serif" font-size="10.00">core/load_balance_info.h</text>
</a>
</g>
</g>
<!-- Node65&#45;&gt;Node77 -->
<g id="edge93" class="edge">
<title>Node65&#45;&gt;Node77</title>
<path fill="none" stroke="midnightblue" d="M1031.33,-553.98C1048.97,-544.17 1078.16,-527.93 1098.86,-516.42"/>
<polygon fill="midnightblue" stroke="midnightblue" points="1100.66,-519.43 1107.7,-511.51 1097.26,-513.31 1100.66,-519.43"/>
</g>
<!-- Node65&#45;&gt;Node79 -->
<g id="edge96" class="edge">
<title>Node65&#45;&gt;Node79</title>
<path fill="none" stroke="midnightblue" d="M1104.85,-555.62C1255.52,-543.94 1558.85,-520.44 1703.59,-509.23"/>
<polygon fill="midnightblue" stroke="midnightblue" points="1704.03,-512.71 1713.73,-508.44 1703.49,-505.73 1704.03,-512.71"/>
</g>
<!-- Node66&#45;&gt;Node4 -->
<g id="edge85" class="edge">
<title>Node66&#45;&gt;Node4</title>
<path fill="none" stroke="midnightblue" d="M1616.16,-296.95C1762,-260.8 2347.39,-119.53 2837,-56 3103.8,-21.38 3429.25,-13.22 3531.6,-11.46"/>
<polygon fill="midnightblue" stroke="midnightblue" points="3531.95,-14.95 3541.89,-11.29 3531.83,-7.95 3531.95,-14.95"/>
</g>
<!-- Node66&#45;&gt;Node5 -->
<g id="edge86" class="edge">
<title>Node66&#45;&gt;Node5</title>
<path fill="none" stroke="midnightblue" d="M1594.54,-297C1619.93,-278.66 1675,-232.7 1675,-179 1675,-179 1675,-179 1675,-121 1675,-88.95 1675,-51.64 1675,-29.75"/>
<polygon fill="midnightblue" stroke="midnightblue" points="1678.5,-29.56 1675,-19.56 1671.5,-29.56 1678.5,-29.56"/>
</g>
<!-- Node66&#45;&gt;Node6 -->
<g id="edge87" class="edge">
<title>Node66&#45;&gt;Node6</title>
<path fill="none" stroke="midnightblue" d="M1636.19,-300.88C1756.72,-290.56 2044.02,-265.71 2141,-255 2153.57,-253.61 2166.93,-251.99 2179.86,-250.35"/>
<polygon fill="midnightblue" stroke="midnightblue" points="2180.64,-253.78 2190.11,-249.03 2179.75,-246.83 2180.64,-253.78"/>
</g>
<!-- Node66&#45;&gt;Node7 -->
<g id="edge82" class="edge">
<title>Node66&#45;&gt;Node7</title>
<path fill="none" stroke="midnightblue" d="M1601.12,-296.91C1622.66,-287.14 1658.63,-270.51 1689,-255 1729.75,-234.19 1776.16,-208.13 1803.45,-192.56"/>
<polygon fill="midnightblue" stroke="midnightblue" points="1805.32,-195.52 1812.26,-187.52 1801.84,-189.45 1805.32,-195.52"/>
</g>
<!-- Node66&#45;&gt;Node8 -->
<g id="edge89" class="edge">
<title>Node66&#45;&gt;Node8</title>
<path fill="none" stroke="midnightblue" d="M1633.03,-296.96C1646.34,-294.87 1660.69,-292.74 1674,-291 1828.19,-270.89 1876.69,-310.34 2022,-255 2044.02,-246.62 2042.87,-232.07 2065,-224 2115.54,-205.57 2472.69,-187.71 2611.25,-181.4"/>
<polygon fill="midnightblue" stroke="midnightblue" points="2611.79,-184.88 2621.62,-180.93 2611.48,-177.89 2611.79,-184.88"/>
</g>
<!-- Node66&#45;&gt;Node16 -->
<g id="edge84" class="edge">
<title>Node66&#45;&gt;Node16</title>
<path fill="none" stroke="midnightblue" d="M1583.95,-296.96C1588.42,-276.65 1599,-223.76 1599,-179 1599,-179 1599,-179 1599,-121 1599,-88.95 1599,-51.64 1599,-29.75"/>
<polygon fill="midnightblue" stroke="midnightblue" points="1602.5,-29.56 1599,-19.56 1595.5,-29.56 1602.5,-29.56"/>
</g>
<!-- Node66&#45;&gt;Node18 -->
<g id="edge83" class="edge">
<title>Node66&#45;&gt;Node18</title>
<path fill="none" stroke="midnightblue" d="M1636.37,-299.91C1759.49,-287.24 2049.73,-257.24 2060,-255 2063.49,-254.24 2067.1,-253.29 2070.67,-252.24"/>
<polygon fill="midnightblue" stroke="midnightblue" points="2072.03,-255.48 2080.5,-249.12 2069.91,-248.81 2072.03,-255.48"/>
</g>
<!-- Node66&#45;&gt;Node28 -->
<g id="edge90" class="edge">
<title>Node66&#45;&gt;Node28</title>
<path fill="none" stroke="midnightblue" d="M1527.79,-297.27C1449.01,-285.3 1303.08,-263.14 1218.75,-250.33"/>
<polygon fill="midnightblue" stroke="midnightblue" points="1219.19,-246.86 1208.78,-248.82 1218.14,-253.78 1219.19,-246.86"/>
</g>
<!-- Node66&#45;&gt;Node35 -->
<g id="edge88" class="edge">
<title>Node66&#45;&gt;Node35</title>
<path fill="none" stroke="midnightblue" d="M1557.7,-296.87C1529.88,-286.99 1483.6,-270.55 1448.17,-257.97"/>
<polygon fill="midnightblue" stroke="midnightblue" points="1449.09,-254.58 1438.49,-254.53 1446.75,-261.17 1449.09,-254.58"/>
</g>
<!-- Node66&#45;&gt;Node36 -->
<g id="edge81" class="edge">
<title>Node66&#45;&gt;Node36</title>
<path fill="none" stroke="midnightblue" d="M1572.45,-296.92C1553.43,-280.3 1508.84,-243.6 1465,-224 1416.71,-202.41 1356.69,-190.42 1317.19,-184.35"/>
<polygon fill="midnightblue" stroke="midnightblue" points="1317.51,-180.86 1307.11,-182.86 1316.49,-187.78 1317.51,-180.86"/>
</g>
<!-- Node77&#45;&gt;Node46 -->
<g id="edge94" class="edge">
<title>Node77&#45;&gt;Node46</title>
<path fill="none" stroke="midnightblue" d="M1162.19,-492.5C1306.22,-461.25 1806.15,-352.8 1965.68,-318.2"/>
<polygon fill="midnightblue" stroke="midnightblue" points="1966.65,-321.57 1975.68,-316.03 1965.17,-314.73 1966.65,-321.57"/>
</g>
<!-- Node77&#45;&gt;Node69 -->
<g id="edge95" class="edge">
<title>Node77&#45;&gt;Node69</title>
<path fill="none" stroke="midnightblue" d="M1053.95,-495.66C1008.05,-490.1 947.36,-478.82 898,-456 834.24,-426.52 832.89,-396.29 774,-358 751.99,-343.69 725.47,-329.98 705.89,-320.47"/>
<polygon fill="midnightblue" stroke="midnightblue" points="707.15,-317.19 696.61,-316.03 704.12,-323.5 707.15,-317.19"/>
</g>
<!-- Node79&#45;&gt;Node2 -->
<g id="edge111" class="edge">
<title>Node79&#45;&gt;Node2</title>
<path fill="none" stroke="midnightblue" d="M1854.1,-499.25C1978.82,-495.5 2247.28,-484.59 2472,-456 2612.17,-438.17 2775.63,-403.1 2854.17,-385.35"/>
<polygon fill="midnightblue" stroke="midnightblue" points="2855.25,-388.69 2864.23,-383.06 2853.7,-381.87 2855.25,-388.69"/>
</g>
<!-- Node79&#45;&gt;Node4 -->
<g id="edge103" class="edge">
<title>Node79&#45;&gt;Node4</title>
<path fill="none" stroke="midnightblue" d="M1854.25,-500.05C2106.52,-496.43 2954.57,-482.34 3006,-456 3206.43,-353.34 3124.44,-172.76 3317,-56 3352.7,-34.35 3473.29,-19.9 3531.73,-14"/>
<polygon fill="midnightblue" stroke="midnightblue" points="3532.27,-17.47 3541.88,-13 3531.59,-10.5 3532.27,-17.47"/>
</g>
<!-- Node79&#45;&gt;Node5 -->
<g id="edge105" class="edge">
<title>Node79&#45;&gt;Node5</title>
<path fill="none" stroke="midnightblue" d="M1713.85,-498.33C1572.95,-492.59 1260.06,-477.78 1155,-456 1113.72,-447.44 835.96,-344.01 800,-322 781.99,-310.97 782.94,-300.33 764,-291 693.15,-256.12 652,-303.92 590,-255 552.32,-225.27 472.6,-90.48 506,-56 549.7,-10.89 1573.71,-28.1 1636,-20 1637.71,-19.78 1639.45,-19.52 1641.2,-19.22"/>
<polygon fill="midnightblue" stroke="midnightblue" points="1642.07,-22.62 1651.21,-17.26 1640.72,-15.75 1642.07,-22.62"/>
</g>
<!-- Node79&#45;&gt;Node6 -->
<g id="edge108" class="edge">
<title>Node79&#45;&gt;Node6</title>
<path fill="none" stroke="midnightblue" d="M1854.33,-497.39C1966.45,-491.06 2175.89,-476.63 2203,-456 2264.66,-409.07 2259.53,-302.07 2254.61,-258.98"/>
<polygon fill="midnightblue" stroke="midnightblue" points="2258.09,-258.53 2253.35,-249.05 2251.14,-259.42 2258.09,-258.53"/>
</g>
<!-- Node79&#45;&gt;Node7 -->
<g id="edge100" class="edge">
<title>Node79&#45;&gt;Node7</title>
<path fill="none" stroke="midnightblue" d="M1780.64,-492.42C1769.82,-463.47 1737.73,-367.02 1759,-291 1769.46,-253.62 1796.18,-216.32 1812.85,-195.59"/>
<polygon fill="midnightblue" stroke="midnightblue" points="1815.63,-197.71 1819.29,-187.77 1810.23,-193.26 1815.63,-197.71"/>
</g>
<!-- Node79&#45;&gt;Node8 -->
<g id="edge112" class="edge">
<title>Node79&#45;&gt;Node8</title>
<path fill="none" stroke="midnightblue" d="M1854.35,-498.95C1948.64,-495.18 2120.84,-484.68 2265,-456 2277.37,-453.54 2691.21,-331.92 2699,-322 2725.92,-287.71 2717.7,-265.04 2703,-224 2699.06,-213 2691.14,-202.77 2683.64,-194.85"/>
<polygon fill="midnightblue" stroke="midnightblue" points="2686.02,-192.28 2676.44,-187.76 2681.11,-197.27 2686.02,-192.28"/>
</g>
<!-- Node79&#45;&gt;Node18 -->
<g id="edge101" class="edge">
<title>Node79&#45;&gt;Node18</title>
<path fill="none" stroke="midnightblue" d="M1792.71,-492.48C1801.41,-483.75 1814.9,-469.56 1825,-456 1855.38,-415.23 1841.99,-386.63 1884,-358 1963.34,-303.94 2032.37,-393 2097,-322 2112.34,-305.15 2110.79,-277.37 2107.51,-259"/>
<polygon fill="midnightblue" stroke="midnightblue" points="2110.93,-258.26 2105.44,-249.2 2104.08,-259.71 2110.93,-258.26"/>
</g>
<!-- Node79&#45;&gt;Node22 -->
<g id="edge104" class="edge">
<title>Node79&#45;&gt;Node22</title>
<path fill="none" stroke="midnightblue" d="M1854.19,-501.25C1963.64,-500.43 2168.79,-493.71 2230,-456 2320.17,-400.45 2328.37,-356.68 2358,-255 2363.67,-235.53 2357.77,-212.57 2351.98,-197.01"/>
<polygon fill="midnightblue" stroke="midnightblue" points="2355.15,-195.51 2348.13,-187.57 2348.66,-198.15 2355.15,-195.51"/>
</g>
<!-- Node79&#45;&gt;Node30 -->
<g id="edge113" class="edge">
<title>Node79&#45;&gt;Node30</title>
<path fill="none" stroke="midnightblue" d="M1713.99,-498.96C1616.44,-495.15 1434.44,-484.57 1282,-456 1176.51,-436.23 1152.09,-422.1 1050,-389 1011.35,-376.47 1002.52,-370.91 964,-358 912.82,-340.84 896.9,-344.85 848,-322 824.99,-311.25 822.4,-302.96 800,-291 772.34,-276.23 739.44,-262.33 715.58,-252.87"/>
<polygon fill="midnightblue" stroke="midnightblue" points="716.54,-249.49 705.95,-249.1 713.99,-256 716.54,-249.49"/>
</g>
<!-- Node79&#45;&gt;Node27 -->
<g id="edge97" class="edge">
<title>Node79&#45;&gt;Node27</title>
<path fill="none" stroke="midnightblue" d="M1713.81,-500.14C1555.36,-497.65 1174.08,-488.37 1050,-456 917.28,-421.38 890.24,-391.51 772,-322 751.38,-309.88 750.01,-300.36 728,-291 650.11,-257.89 611.56,-301.73 541,-255 519.74,-240.92 505.09,-214.62 497.12,-196.96"/>
<polygon fill="midnightblue" stroke="midnightblue" points="500.33,-195.56 493.2,-187.72 493.88,-198.29 500.33,-195.56"/>
</g>
<!-- Node79&#45;&gt;Node36 -->
<g id="edge98" class="edge">
<title>Node79&#45;&gt;Node36</title>
<path fill="none" stroke="midnightblue" d="M1714.34,-492.49C1582.89,-475.59 1303.85,-435.36 1219,-389 1137.31,-344.37 1032.48,-297.19 1090,-224 1107.4,-201.86 1183.59,-189.26 1232.6,-183.3"/>
<polygon fill="midnightblue" stroke="midnightblue" points="1233.09,-186.77 1242.62,-182.13 1232.28,-179.82 1233.09,-186.77"/>
</g>
<!-- Node79&#45;&gt;Node37 -->
<g id="edge99" class="edge">
<title>Node79&#45;&gt;Node37</title>
<path fill="none" stroke="midnightblue" d="M1713.82,-500.21C1540.72,-497.79 1097.02,-488.51 953,-456 800.19,-421.5 771.08,-383.49 627,-322 517.39,-275.22 388.06,-217.06 332.12,-191.75"/>
<polygon fill="midnightblue" stroke="midnightblue" points="333.41,-188.49 322.85,-187.56 330.52,-194.87 333.41,-188.49"/>
</g>
<!-- Node79&#45;&gt;Node39 -->
<g id="edge102" class="edge">
<title>Node79&#45;&gt;Node39</title>
<path fill="none" stroke="midnightblue" d="M1713.8,-500.53C1622.47,-498.48 1458.56,-489.85 1323,-456 1285.2,-446.56 1194.56,-408.79 1161,-389 1119.86,-364.75 1099.62,-364.06 1077,-322 1055.51,-282.04 1065.72,-226.26 1073.32,-197.61"/>
<polygon fill="midnightblue" stroke="midnightblue" points="1076.76,-198.31 1076.13,-187.74 1070.03,-196.4 1076.76,-198.31"/>
</g>
<!-- Node79&#45;&gt;Node44 -->
<g id="edge109" class="edge">
<title>Node79&#45;&gt;Node44</title>
<path fill="none" stroke="midnightblue" d="M1834.29,-492.48C1894.87,-482.21 1996.99,-464.89 2065.18,-453.33"/>
<polygon fill="midnightblue" stroke="midnightblue" points="2066.13,-456.72 2075.41,-451.6 2064.96,-449.82 2066.13,-456.72"/>
</g>
<!-- Node79&#45;&gt;Node46 -->
<g id="edge107" class="edge">
<title>Node79&#45;&gt;Node46</title>
<path fill="none" stroke="midnightblue" d="M1788.39,-492.45C1792.96,-483.46 1800.24,-468.86 1806,-456 1825.23,-413.07 1811.16,-389.61 1846,-358 1863.11,-342.48 1918.77,-327.71 1961.59,-318.2"/>
<polygon fill="midnightblue" stroke="midnightblue" points="1962.59,-321.56 1971.61,-316.01 1961.1,-314.72 1962.59,-321.56"/>
</g>
<!-- Node79&#45;&gt;Node47 -->
<g id="edge110" class="edge">
<title>Node79&#45;&gt;Node47</title>
<path fill="none" stroke="midnightblue" d="M1784.85,-492.5C1787.19,-470.16 1794.51,-408.07 1808,-358 1810.39,-349.13 1813.74,-339.64 1816.96,-331.31"/>
<polygon fill="midnightblue" stroke="midnightblue" points="1820.28,-332.43 1820.75,-321.84 1813.78,-329.82 1820.28,-332.43"/>
</g>
<!-- Node79&#45;&gt;Node66 -->
<g id="edge106" class="edge">
<title>Node79&#45;&gt;Node66</title>
<path fill="none" stroke="midnightblue" d="M1756.65,-492.44C1736.19,-485.08 1708.36,-472.97 1688,-456 1642.08,-417.75 1606.27,-355.22 1590.61,-324.97"/>
<polygon fill="midnightblue" stroke="midnightblue" points="1593.73,-323.38 1586.09,-316.04 1587.48,-326.54 1593.73,-323.38"/>
</g>
<!-- Node83&#45;&gt;Node5 -->
<g id="edge123" class="edge">
<title>Node83&#45;&gt;Node5</title>
<path fill="none" stroke="midnightblue" d="M1055.98,-627.05C913.88,-621.68 602.21,-607.03 499,-579 297.48,-524.26 76,-583.32 76,-374.5 76,-374.5 76,-374.5 76,-121 76,-109.1 -61.28,-109.86 309,-56 892.85,28.93 1050.75,-94.7 1636,-20 1637.71,-19.78 1639.45,-19.52 1641.2,-19.23"/>
<polygon fill="midnightblue" stroke="midnightblue" points="1642.06,-22.63 1651.21,-17.28 1640.73,-15.76 1642.06,-22.63"/>
</g>
<!-- Node83&#45;&gt;Node7 -->
<g id="edge119" class="edge">
<title>Node83&#45;&gt;Node7</title>
<path fill="none" stroke="midnightblue" d="M1147.96,-615.24C1175.02,-594.09 1220,-551.61 1220,-503 1220,-503 1220,-503 1220,-439.5 1220,-395.3 1239.73,-381.76 1277,-358 1354.63,-308.51 1397.29,-360.34 1481,-322 1500.82,-312.92 1500.24,-302.09 1519,-291 1587.49,-250.51 1610.13,-250.93 1685,-224 1722.28,-210.59 1765.79,-197.12 1794.72,-188.46"/>
<polygon fill="midnightblue" stroke="midnightblue" points="1796.1,-191.7 1804.69,-185.49 1794.1,-184.99 1796.1,-191.7"/>
</g>
<!-- Node83&#45;&gt;Node10 -->
<g id="edge130" class="edge">
<title>Node83&#45;&gt;Node10</title>
<path fill="none" stroke="midnightblue" d="M1200.06,-628.39C1377.22,-625.14 1830.23,-613.6 1977,-579 2112.47,-547.06 2146.22,-528.55 2265,-456 2286.47,-442.89 2573.35,-201.17 2648.23,-138"/>
<polygon fill="midnightblue" stroke="midnightblue" points="2650.53,-140.64 2655.91,-131.52 2646.01,-135.29 2650.53,-140.64"/>
</g>
<!-- Node83&#45;&gt;Node18 -->
<g id="edge120" class="edge">
<title>Node83&#45;&gt;Node18</title>
<path fill="none" stroke="midnightblue" d="M1200.09,-625.19C1391.51,-612.78 1898,-573.32 1898,-503 1898,-503 1898,-503 1898,-439.5 1898,-401.74 1893.94,-383.27 1922,-358 1987.82,-298.74 2061.31,-390.05 2118,-322 2132.92,-304.09 2122.95,-276.21 2113.62,-258.15"/>
<polygon fill="midnightblue" stroke="midnightblue" points="2116.58,-256.29 2108.66,-249.25 2110.47,-259.69 2116.58,-256.29"/>
</g>
<!-- Node83&#45;&gt;Node22 -->
<g id="edge122" class="edge">
<title>Node83&#45;&gt;Node22</title>
<path fill="none" stroke="midnightblue" d="M1200.14,-626.67C1342.52,-620.61 1654.86,-604.79 1759,-579 1842.1,-558.42 1936,-588.61 1936,-503 1936,-503 1936,-503 1936,-439.5 1936,-402.31 1928.27,-383.87 1955,-358 2013.94,-300.96 2056.92,-343.76 2136,-322 2221.93,-298.36 2265.07,-320.96 2325,-255 2339.12,-239.46 2343.12,-215.03 2344.07,-198.07"/>
<polygon fill="midnightblue" stroke="midnightblue" points="2347.58,-197.82 2344.33,-187.74 2340.58,-197.65 2347.58,-197.82"/>
</g>
<!-- Node83&#45;&gt;Node28 -->
<g id="edge131" class="edge">
<title>Node83&#45;&gt;Node28</title>
<path fill="none" stroke="midnightblue" d="M1055.7,-627.55C960.73,-623.68 800.46,-612.29 753,-579 638.61,-498.78 533.04,-394.4 627,-291 634.7,-282.53 949.7,-256.65 1088.95,-245.59"/>
<polygon fill="midnightblue" stroke="midnightblue" points="1089.38,-249.07 1099.07,-244.79 1088.82,-242.09 1089.38,-249.07"/>
</g>
<!-- Node83&#45;&gt;Node29 -->
<g id="edge117" class="edge">
<title>Node83&#45;&gt;Node29</title>
<path fill="none" stroke="midnightblue" d="M1055.79,-626.8C952.13,-621.91 767.12,-609.17 708,-579 671.86,-560.56 667.89,-546.16 646,-512 591.27,-426.59 525.38,-370 589,-291 636.08,-232.54 690.85,-295.57 754,-255 776.27,-240.69 793.02,-214.45 802.42,-196.86"/>
<polygon fill="midnightblue" stroke="midnightblue" points="805.68,-198.17 807.09,-187.67 799.44,-195 805.68,-198.17"/>
</g>
<!-- Node83&#45;&gt;Node27 -->
<g id="edge115" class="edge">
<title>Node83&#45;&gt;Node27</title>
<path fill="none" stroke="midnightblue" d="M1055.78,-630.26C963.31,-629.29 799.12,-620.99 666,-579 557.68,-544.84 523.31,-535.3 442,-456 408.44,-423.27 392.49,-403.68 403,-358 417.61,-294.5 457.91,-227.41 478.12,-196.49"/>
<polygon fill="midnightblue" stroke="midnightblue" points="481.3,-198.03 483.92,-187.77 475.47,-194.16 481.3,-198.03"/>
</g>
<!-- Node83&#45;&gt;Node35 -->
<g id="edge124" class="edge">
<title>Node83&#45;&gt;Node35</title>
<path fill="none" stroke="midnightblue" d="M1055.89,-623.91C980.8,-613.69 874,-584.78 874,-503 874,-503 874,-503 874,-439.5 874,-342.76 1189.6,-276.41 1331.41,-251.47"/>
<polygon fill="midnightblue" stroke="midnightblue" points="1332.06,-254.91 1341.31,-249.75 1330.86,-248.01 1332.06,-254.91"/>
</g>
<!-- Node83&#45;&gt;Node36 -->
<g id="edge116" class="edge">
<title>Node83&#45;&gt;Node36</title>
<path fill="none" stroke="midnightblue" d="M1055.94,-627.2C961.24,-622.94 801.28,-611.1 753,-579 692.82,-538.99 554.05,-345.07 602,-291 646.4,-240.93 834.93,-265.67 901,-255 1022.01,-235.45 1163.44,-204.47 1232.58,-188.78"/>
<polygon fill="midnightblue" stroke="midnightblue" points="1233.67,-192.13 1242.64,-186.49 1232.12,-185.3 1233.67,-192.13"/>
</g>
<!-- Node83&#45;&gt;Node37 -->
<g id="edge118" class="edge">
<title>Node83&#45;&gt;Node37</title>
<path fill="none" stroke="midnightblue" d="M1055.8,-627.72C925.83,-623.73 657.9,-611.7 571,-579 486.72,-547.28 462.85,-528.91 410,-456 348.3,-370.88 317.59,-245.35 307.69,-198"/>
<polygon fill="midnightblue" stroke="midnightblue" points="311.07,-197.06 305.66,-187.95 304.21,-198.45 311.07,-197.06"/>
</g>
<!-- Node83&#45;&gt;Node45 -->
<g id="edge121" class="edge">
<title>Node83&#45;&gt;Node45</title>
<path fill="none" stroke="midnightblue" d="M1200.04,-630.04C1390.12,-630.79 1894.51,-628.08 1950,-579 2003.9,-531.32 1996.91,-433.97 1991.17,-393.16"/>
<polygon fill="midnightblue" stroke="midnightblue" points="1994.62,-392.58 1989.63,-383.23 1987.7,-393.65 1994.62,-392.58"/>
</g>
<!-- Node83&#45;&gt;Node52 -->
<g id="edge128" class="edge">
<title>Node83&#45;&gt;Node52</title>
<path fill="none" stroke="midnightblue" d="M1200.24,-628.93C1531.49,-626.13 2897.08,-612.64 3085,-579 3188.07,-560.55 3308,-607.71 3308,-503 3308,-503 3308,-503 3308,-439.5 3308,-399.12 3310.84,-351.85 3312.61,-326.27"/>
<polygon fill="midnightblue" stroke="midnightblue" points="3316.11,-326.37 3313.33,-316.14 3309.13,-325.87 3316.11,-326.37"/>
</g>
<!-- Node83&#45;&gt;Node65 -->
<g id="edge125" class="edge">
<title>Node83&#45;&gt;Node65</title>
<path fill="none" stroke="midnightblue" d="M1103.7,-615.4C1084.65,-604.34 1058.32,-589.06 1039.49,-578.13"/>
<polygon fill="midnightblue" stroke="midnightblue" points="1041.06,-575 1030.66,-573.01 1037.55,-581.05 1041.06,-575"/>
</g>
<!-- Node83&#45;&gt;Node69 -->
<g id="edge126" class="edge">
<title>Node83&#45;&gt;Node69</title>
<path fill="none" stroke="midnightblue" d="M1055.88,-621.99C939.21,-607.8 722,-572.12 722,-503 722,-503 722,-503 722,-439.5 722,-396.61 700.84,-349.72 687.87,-325.01"/>
<polygon fill="midnightblue" stroke="midnightblue" points="690.89,-323.25 683.05,-316.13 684.74,-326.59 690.89,-323.25"/>
</g>
<!-- Node83&#45;&gt;Node77 -->
<g id="edge127" class="edge">
<title>Node83&#45;&gt;Node77</title>
<path fill="none" stroke="midnightblue" d="M1127.45,-615.48C1126.55,-592.72 1124.77,-547.7 1123.75,-522.06"/>
<polygon fill="midnightblue" stroke="midnightblue" points="1127.24,-521.64 1123.35,-511.79 1120.25,-521.92 1127.24,-521.64"/>
</g>
<!-- Node83&#45;&gt;Node79 -->
<g id="edge129" class="edge">
<title>Node83&#45;&gt;Node79</title>
<path fill="none" stroke="midnightblue" d="M1200.08,-615.6C1332.52,-590.06 1611.77,-536.21 1729.66,-513.48"/>
<polygon fill="midnightblue" stroke="midnightblue" points="1730.39,-516.9 1739.55,-511.57 1729.07,-510.03 1730.39,-516.9"/>
</g>
<!-- Node68&#45;&gt;Node3 -->
<g id="edge134" class="edge">
<title>Node68&#45;&gt;Node3</title>
<path fill="none" stroke="midnightblue" d="M1416.16,-370.96C1713.39,-363.87 2926.93,-334.21 2942,-322 2970.98,-298.52 2962,-277.8 2962,-240.5 2962,-240.5 2962,-240.5 2962,-177 2962,-144.49 2970.16,-107.35 2975.78,-85.61"/>
<polygon fill="midnightblue" stroke="midnightblue" points="2979.22,-86.32 2978.44,-75.75 2972.46,-84.5 2979.22,-86.32"/>
</g>
<!-- Node68&#45;&gt;Node5 -->
<g id="edge137" class="edge">
<title>Node68&#45;&gt;Node5</title>
<path fill="none" stroke="midnightblue" d="M1285.68,-364.09C1213.29,-354.6 1093.13,-338.35 990,-322 979.47,-320.33 619.8,-262.27 612,-255 586.54,-231.25 593,-213.82 593,-179 593,-179 593,-179 593,-121 593,36.34 784.76,-74.55 941,-56 1248.14,-19.52 1329.69,-62.94 1636,-20 1637.7,-19.76 1639.44,-19.48 1641.19,-19.18"/>
<polygon fill="midnightblue" stroke="midnightblue" points="1642.07,-22.57 1651.2,-17.19 1640.71,-15.71 1642.07,-22.57"/>
</g>
<!-- Node68&#45;&gt;Node6 -->
<g id="edge139" class="edge">
<title>Node68&#45;&gt;Node6</title>
<path fill="none" stroke="midnightblue" d="M1416.24,-363.96C1433.08,-361.88 1451.2,-359.75 1468,-358 1562.49,-348.16 1805.7,-357.06 1894,-322 1914.58,-313.83 1912.73,-299.91 1933,-291 1955,-281.32 2090.63,-261.96 2177.81,-250.22"/>
<polygon fill="midnightblue" stroke="midnightblue" points="2178.48,-253.66 2187.93,-248.86 2177.55,-246.72 2178.48,-253.66"/>
</g>
<!-- Node68&#45;&gt;Node18 -->
<g id="edge135" class="edge">
<title>Node68&#45;&gt;Node18</title>
<path fill="none" stroke="midnightblue" d="M1416.34,-364.08C1497.14,-353.38 1629.9,-334.76 1678,-322 1715.26,-312.11 1721.58,-300.25 1759,-291 1889.8,-258.68 1928.58,-284.68 2060,-255 2063.49,-254.21 2067.09,-253.25 2070.65,-252.2"/>
<polygon fill="midnightblue" stroke="midnightblue" points="2072.02,-255.43 2080.49,-249.06 2069.9,-248.76 2072.02,-255.43"/>
</g>
<!-- Node68&#45;&gt;Node22 -->
<g id="edge136" class="edge">
<title>Node68&#45;&gt;Node22</title>
<path fill="none" stroke="midnightblue" d="M1416.24,-371.95C1478.13,-369.03 1572.22,-358.25 1645,-322 1663.01,-313.03 1659.99,-299.98 1678,-291 1834.2,-213.07 1892.83,-252.79 2065,-224 2153.96,-209.13 2259.03,-192.41 2311.2,-184.17"/>
<polygon fill="midnightblue" stroke="midnightblue" points="2311.87,-187.6 2321.2,-182.59 2310.78,-180.69 2311.87,-187.6"/>
</g>
<!-- Node68&#45;&gt;Node28 -->
<g id="edge142" class="edge">
<title>Node68&#45;&gt;Node28</title>
<path fill="none" stroke="midnightblue" d="M1303.24,-358.46C1279.36,-350.1 1250.77,-337.97 1228,-322 1202.42,-304.06 1179.33,-275.79 1165.98,-257.7"/>
<polygon fill="midnightblue" stroke="midnightblue" points="1168.61,-255.36 1159.93,-249.28 1162.92,-259.45 1168.61,-255.36"/>
</g>
<!-- Node68&#45;&gt;Node29 -->
<g id="edge133" class="edge">
<title>Node68&#45;&gt;Node29</title>
<path fill="none" stroke="midnightblue" d="M1304.22,-358.47C1272.2,-348.68 1228.85,-335.09 1191,-322 1060.41,-276.86 907.02,-217.01 842.31,-191.44"/>
<polygon fill="midnightblue" stroke="midnightblue" points="843.28,-188.06 832.7,-187.64 840.71,-194.57 843.28,-188.06"/>
</g>
<!-- Node68&#45;&gt;Node30 -->
<g id="edge143" class="edge">
<title>Node68&#45;&gt;Node30</title>
<path fill="none" stroke="midnightblue" d="M1293.7,-358.46C1222.68,-341.32 1097.84,-312.02 990,-291 908.27,-275.07 813.64,-260.01 751.29,-250.55"/>
<polygon fill="midnightblue" stroke="midnightblue" points="751.59,-247.06 741.18,-249.02 750.55,-253.98 751.59,-247.06"/>
</g>
<!-- Node68&#45;&gt;Node46 -->
<g id="edge138" class="edge">
<title>Node68&#45;&gt;Node46</title>
<path fill="none" stroke="midnightblue" d="M1416.23,-363.89C1433.08,-361.81 1451.2,-359.7 1468,-358 1672.03,-337.38 1724.45,-346.88 1928,-322 1937.92,-320.79 1948.43,-319.25 1958.59,-317.64"/>
<polygon fill="midnightblue" stroke="midnightblue" points="1959.3,-321.07 1968.6,-316 1958.17,-314.16 1959.3,-321.07"/>
</g>
<!-- Node68&#45;&gt;Node47 -->
<g id="edge140" class="edge">
<title>Node68&#45;&gt;Node47</title>
<path fill="none" stroke="midnightblue" d="M1416.34,-364.37C1528.32,-350.44 1745.74,-323.34 1754,-322 1755.47,-321.76 1756.97,-321.51 1758.47,-321.26"/>
<polygon fill="midnightblue" stroke="midnightblue" points="1759.25,-324.68 1768.5,-319.5 1758.04,-317.78 1759.25,-324.68"/>
</g>
<!-- Node68&#45;&gt;Node69 -->
<g id="edge141" class="edge">
<title>Node68&#45;&gt;Node69</title>
<path fill="none" stroke="midnightblue" d="M1285.86,-366.21C1152.52,-353.33 850.84,-324.19 729.74,-312.5"/>
<polygon fill="midnightblue" stroke="midnightblue" points="729.91,-309 719.62,-311.52 729.24,-315.97 729.91,-309"/>
</g>
<!-- Node90&#45;&gt;Node2 -->
<g id="edge149" class="edge">
<title>Node90&#45;&gt;Node2</title>
<path fill="none" stroke="midnightblue" d="M2927.62,-425.4C2922.53,-415.66 2915.72,-402.65 2910.27,-392.21"/>
<polygon fill="midnightblue" stroke="midnightblue" points="2913.28,-390.43 2905.55,-383.19 2907.08,-393.68 2913.28,-390.43"/>
</g>
<!-- Node90&#45;&gt;Node4 -->
<g id="edge148" class="edge">
<title>Node90&#45;&gt;Node4</title>
<path fill="none" stroke="midnightblue" d="M2967.5,-425.44C3012.35,-406.69 3096.19,-374.03 3171,-358 3258.48,-339.26 3492.74,-363.51 3572,-322 3613.79,-300.11 3640,-287.67 3640,-240.5 3640,-240.5 3640,-240.5 3640,-121 3640,-81.28 3606.04,-45.5 3583.52,-26.15"/>
<polygon fill="midnightblue" stroke="midnightblue" points="3585.48,-23.24 3575.54,-19.57 3581.02,-28.63 3585.48,-23.24"/>
</g>
<!-- Node90&#45;&gt;Node36 -->
<g id="edge146" class="edge">
<title>Node90&#45;&gt;Node36</title>
<path fill="none" stroke="midnightblue" d="M2872.99,-432.01C2738.09,-415.98 2407.75,-378.19 2130,-358 2039.71,-351.44 1389.89,-374.3 1316,-322 1276.39,-293.96 1272.84,-230.03 1273.75,-198.01"/>
<polygon fill="midnightblue" stroke="midnightblue" points="1277.26,-197.94 1274.23,-187.78 1270.27,-197.61 1277.26,-197.94"/>
</g>
<!-- Node90&#45;&gt;Node39 -->
<g id="edge147" class="edge">
<title>Node90&#45;&gt;Node39</title>
<path fill="none" stroke="midnightblue" d="M2872.87,-440.11C2737.06,-440.47 2403.96,-435.99 2130,-389 2080.36,-380.49 2070.7,-366.18 2021,-358 1940.54,-344.76 1359.7,-360.84 1288,-322 1240.71,-296.38 1260.48,-255.67 1217,-224 1187.39,-202.43 1146.91,-190.85 1117.46,-184.87"/>
<polygon fill="midnightblue" stroke="midnightblue" points="1118.01,-181.41 1107.53,-182.98 1116.7,-188.28 1118.01,-181.41"/>
</g>
<!-- Node90&#45;&gt;Node92 -->
<g id="edge150" class="edge">
<title>Node90&#45;&gt;Node92</title>
<path fill="none" stroke="midnightblue" d="M2994.55,-425.48C3047.44,-413.02 3123.35,-395.14 3169.8,-384.2"/>
<polygon fill="midnightblue" stroke="midnightblue" points="3170.87,-387.55 3179.81,-381.85 3169.27,-380.73 3170.87,-387.55"/>
</g>
<!-- Node93&#45;&gt;Node4 -->
<g id="edge155" class="edge">
<title>Node93&#45;&gt;Node4</title>
<path fill="none" stroke="midnightblue" d="M3703.99,-492.4C3719.21,-472.79 3754,-422.68 3754,-374.5 3754,-374.5 3754,-374.5 3754,-121 3754,-90.2 3752.72,-76.79 3730,-56 3693,-22.16 3633.12,-13.35 3596.29,-11.3"/>
<polygon fill="midnightblue" stroke="midnightblue" points="3596.24,-7.79 3586.1,-10.87 3595.95,-14.79 3596.24,-7.79"/>
</g>
<!-- Node72&#45;&gt;Node4 -->
<g id="edge157" class="edge">
<title>Node72&#45;&gt;Node4</title>
<path fill="none" stroke="midnightblue" d="M3499.48,-229.75C3506.95,-203.42 3529.95,-122.67 3550,-56 3552.65,-47.17 3555.68,-37.4 3558.24,-29.23"/>
<polygon fill="midnightblue" stroke="midnightblue" points="3561.61,-30.2 3561.27,-19.61 3554.93,-28.1 3561.61,-30.2"/>
</g>
<!-- Node72&#45;&gt;Node5 -->
<g id="edge158" class="edge">
<title>Node72&#45;&gt;Node5</title>
<path fill="none" stroke="midnightblue" d="M3487.34,-229.7C3452.46,-198.58 3328.49,-93.59 3204,-56 3056.49,-11.46 1919.72,-10.69 1708.66,-10.94"/>
<polygon fill="midnightblue" stroke="midnightblue" points="1708.5,-7.44 1698.5,-10.95 1708.51,-14.44 1708.5,-7.44"/>
</g>
<!-- Node72&#45;&gt;Node8 -->
<g id="edge159" class="edge">
<title>Node72&#45;&gt;Node8</title>
<path fill="none" stroke="midnightblue" d="M3472.85,-229.99C3465.3,-227.66 3456.89,-225.4 3449,-224 3308.6,-199.12 2873.85,-184.83 2720.35,-180.46"/>
<polygon fill="midnightblue" stroke="midnightblue" points="2720.32,-176.95 2710.22,-180.17 2720.12,-183.95 2720.32,-176.95"/>
</g>
<!-- Node94&#45;&gt;Node2 -->
<g id="edge166" class="edge">
<title>Node94&#45;&gt;Node2</title>
<path fill="none" stroke="midnightblue" d="M3373.85,-433.27C3277.35,-421.27 3066.17,-395.03 2961.82,-382.06"/>
<polygon fill="midnightblue" stroke="midnightblue" points="2962.12,-378.57 2951.76,-380.81 2961.26,-385.52 2962.12,-378.57"/>
</g>
<!-- Node94&#45;&gt;Node4 -->
<g id="edge164" class="edge">
<title>Node94&#45;&gt;Node4</title>
<path fill="none" stroke="midnightblue" d="M3435.26,-430.88C3456.65,-414.81 3505.04,-379.92 3550,-358 3593.96,-336.56 3620.23,-357.39 3654,-322 3680.07,-294.68 3678,-278.26 3678,-240.5 3678,-240.5 3678,-240.5 3678,-121 3678,-90.2 3674.55,-78.94 3654,-56 3638.52,-38.71 3614.87,-27.25 3595.7,-20.22"/>
<polygon fill="midnightblue" stroke="midnightblue" points="3596.74,-16.88 3586.15,-16.94 3594.47,-23.5 3596.74,-16.88"/>
</g>
<!-- Node94&#45;&gt;Node52 -->
<g id="edge165" class="edge">
<title>Node94&#45;&gt;Node52</title>
<path fill="none" stroke="midnightblue" d="M3417.48,-430.77C3406.12,-415.67 3381.85,-383.82 3360,-358 3350.07,-346.26 3338.39,-333.45 3329.29,-323.68"/>
<polygon fill="midnightblue" stroke="midnightblue" points="3331.74,-321.17 3322.34,-316.26 3326.63,-325.95 3331.74,-321.17"/>
</g>
<!-- Node95&#45;&gt;Node2 -->
<g id="edge172" class="edge">
<title>Node95&#45;&gt;Node2</title>
<path fill="none" stroke="midnightblue" d="M3027.09,-548.45C3030.28,-521.65 3033.4,-462.58 3006,-425 2992.22,-406.09 2969.45,-393.96 2948.63,-386.34"/>
<polygon fill="midnightblue" stroke="midnightblue" points="2949.53,-382.95 2938.93,-383.05 2947.28,-389.58 2949.53,-382.95"/>
</g>
<!-- Node95&#45;&gt;Node4 -->
<g id="edge168" class="edge">
<title>Node95&#45;&gt;Node4</title>
<path fill="none" stroke="midnightblue" d="M3076.65,-562.17C3237.08,-558.16 3716,-522.57 3716,-240.5 3716,-240.5 3716,-240.5 3716,-121 3716,-62.22 3640.48,-31.65 3595.91,-18.73"/>
<polygon fill="midnightblue" stroke="midnightblue" points="3596.67,-15.31 3586.1,-16.03 3594.81,-22.06 3596.67,-15.31"/>
</g>
<!-- Node95&#45;&gt;Node10 -->
<g id="edge173" class="edge">
<title>Node95&#45;&gt;Node10</title>
<path fill="none" stroke="midnightblue" d="M3043.46,-548.33C3066.56,-529.64 3105.79,-494.56 3128,-456 3146.78,-423.39 3175.6,-327.38 3166,-291 3157.27,-257.9 3155.3,-244.66 3128,-224 3063.45,-175.15 2824.24,-141.63 2717.73,-128.81"/>
<polygon fill="midnightblue" stroke="midnightblue" points="2717.89,-125.3 2707.55,-127.6 2717.06,-132.25 2717.89,-125.3"/>
</g>
<!-- Node95&#45;&gt;Node48 -->
<g id="edge171" class="edge">
<title>Node95&#45;&gt;Node48</title>
<path fill="none" stroke="midnightblue" d="M2997.11,-548.37C2927.73,-513.21 2748.04,-422.15 2680.33,-387.84"/>
<polygon fill="midnightblue" stroke="midnightblue" points="2681.68,-384.6 2671.18,-383.21 2678.52,-390.85 2681.68,-384.6"/>
</g>
<!-- Node95&#45;&gt;Node52 -->
<g id="edge169" class="edge">
<title>Node95&#45;&gt;Node52</title>
<path fill="none" stroke="midnightblue" d="M3076.55,-551.97C3104.96,-544.31 3139.7,-531.75 3166,-512 3235.81,-459.58 3286.59,-364.92 3305.69,-325.49"/>
<polygon fill="midnightblue" stroke="midnightblue" points="3308.91,-326.85 3310.04,-316.32 3302.59,-323.85 3308.91,-326.85"/>
</g>
<!-- Node95&#45;&gt;Node79 -->
<g id="edge170" class="edge">
<title>Node95&#45;&gt;Node79</title>
<path fill="none" stroke="midnightblue" d="M2973.26,-560.02C2779.91,-550.75 2098.96,-518.1 1864.24,-506.85"/>
<polygon fill="midnightblue" stroke="midnightblue" points="1864.22,-503.34 1854.07,-506.36 1863.89,-510.33 1864.22,-503.34"/>
</g>
</g>
</svg>
