<?xml version="1.0" encoding="UTF-8" standalone="no"?>
<!DOCTYPE svg PUBLIC "-//W3C//DTD SVG 1.1//EN"
 "http://www.w3.org/Graphics/SVG/1.1/DTD/svg11.dtd">
<!-- Generated by graphviz version 2.43.0 (0)
 -->
<!-- Title: core/simulation.cc Pages: 1 -->
<svg width="4037pt" height="710pt"
 viewBox="0.00 0.00 4036.50 710.00" xmlns="http://www.w3.org/2000/svg" xmlns:xlink="http://www.w3.org/1999/xlink">
<g id="graph0" class="graph" transform="scale(1 1) rotate(0) translate(4 706)">
<title>core/simulation.cc</title>
<polygon fill="white" stroke="transparent" points="-4,4 -4,-706 4032.5,-706 4032.5,4 -4,4"/>
<!-- Node1 -->
<g id="node1" class="node">
<title>Node1</title>
<g id="a_node1"><a xlink:title=" ">
<polygon fill="#bfbfbf" stroke="black" points="2578,-682.5 2578,-701.5 2684,-701.5 2684,-682.5 2578,-682.5"/>
<text text-anchor="middle" x="2631" y="-689.5" font-family="Helvetica,sans-Serif" font-size="10.00">core/simulation.cc</text>
</a>
</g>
</g>
<!-- Node2 -->
<g id="node2" class="node">
<title>Node2</title>
<g id="a_node2"><a xlink:href="simulation_8h.html" target="_top" xlink:title=" ">
<polygon fill="white" stroke="black" points="2780.5,-364 2780.5,-383 2881.5,-383 2881.5,-364 2780.5,-364"/>
<text text-anchor="middle" x="2831" y="-371" font-family="Helvetica,sans-Serif" font-size="10.00">core/simulation.h</text>
</a>
</g>
</g>
<!-- Node1&#45;&gt;Node2 -->
<g id="edge1" class="edge">
<title>Node1&#45;&gt;Node2</title>
<path fill="none" stroke="midnightblue" d="M2643.26,-682.4C2654.56,-674.04 2671.31,-660.5 2683,-646 2751.92,-560.47 2805.21,-438.24 2823.83,-392.6"/>
<polygon fill="midnightblue" stroke="midnightblue" points="2827.14,-393.74 2827.63,-383.16 2820.65,-391.13 2827.14,-393.74"/>
</g>
<!-- Node4 -->
<g id="node4" class="node">
<title>Node4</title>
<g id="a_node4"><a xlink:title=" ">
<polygon fill="white" stroke="#bfbfbf" points="3506,-0.5 3506,-19.5 3550,-19.5 3550,-0.5 3506,-0.5"/>
<text text-anchor="middle" x="3528" y="-7.5" font-family="Helvetica,sans-Serif" font-size="10.00">string</text>
</a>
</g>
</g>
<!-- Node1&#45;&gt;Node4 -->
<g id="edge48" class="edge">
<title>Node1&#45;&gt;Node4</title>
<path fill="none" stroke="midnightblue" d="M2684,-690.33C2886.06,-687.55 3601.59,-675.7 3699,-646 3765.31,-625.78 3832,-633.83 3832,-564.5 3832,-564.5 3832,-564.5 3832,-121 3832,-87.08 3820.11,-74.98 3792,-56 3754.57,-30.73 3621.93,-17.9 3560.13,-13.18"/>
<polygon fill="midnightblue" stroke="midnightblue" points="3560.38,-9.69 3550.14,-12.44 3559.86,-16.67 3560.38,-9.69"/>
</g>
<!-- Node5 -->
<g id="node5" class="node">
<title>Node5</title>
<g id="a_node5"><a xlink:title=" ">
<polygon fill="white" stroke="#bfbfbf" points="1634.5,-0.5 1634.5,-19.5 1681.5,-19.5 1681.5,-0.5 1634.5,-0.5"/>
<text text-anchor="middle" x="1658" y="-7.5" font-family="Helvetica,sans-Serif" font-size="10.00">vector</text>
</a>
</g>
</g>
<!-- Node1&#45;&gt;Node5 -->
<g id="edge50" class="edge">
<title>Node1&#45;&gt;Node5</title>
<path fill="none" stroke="midnightblue" d="M2577.95,-691.12C2226.47,-691.77 243.65,-693.34 126,-646 76.54,-626.1 38,-617.81 38,-564.5 38,-564.5 38,-564.5 38,-121 38,-80.77 64.18,-72.22 101,-56 173.06,-24.26 1403.14,-13.02 1624.14,-11.26"/>
<polygon fill="midnightblue" stroke="midnightblue" points="1624.48,-14.75 1634.46,-11.18 1624.43,-7.75 1624.48,-14.75"/>
</g>
<!-- Node10 -->
<g id="node9" class="node">
<title>Node10</title>
<g id="a_node9"><a xlink:href="log_8h.html" target="_top" xlink:title=" ">
<polygon fill="white" stroke="red" points="3025.5,-112.5 3025.5,-131.5 3108.5,-131.5 3108.5,-112.5 3025.5,-112.5"/>
<text text-anchor="middle" x="3067" y="-119.5" font-family="Helvetica,sans-Serif" font-size="10.00">core/util/log.h</text>
</a>
</g>
</g>
<!-- Node1&#45;&gt;Node10 -->
<g id="edge163" class="edge">
<title>Node1&#45;&gt;Node10</title>
<path fill="none" stroke="midnightblue" d="M2684.19,-690.35C2873.6,-687.79 3505.55,-676.95 3535,-646 3558.42,-621.38 3563.71,-512.62 3345,-291 3269.7,-214.7 3152.95,-159.08 3097.82,-135.5"/>
<polygon fill="midnightblue" stroke="midnightblue" points="3099.16,-132.27 3088.58,-131.6 3096.43,-138.72 3099.16,-132.27"/>
</g>
<!-- Node13 -->
<g id="node10" class="node">
<title>Node13</title>
<g id="a_node10"><a xlink:title=" ">
<polygon fill="white" stroke="#bfbfbf" points="3152.5,-56.5 3152.5,-75.5 3201.5,-75.5 3201.5,-56.5 3152.5,-56.5"/>
<text text-anchor="middle" x="3177" y="-63.5" font-family="Helvetica,sans-Serif" font-size="10.00">cstdlib</text>
</a>
</g>
</g>
<!-- Node1&#45;&gt;Node13 -->
<g id="edge42" class="edge">
<title>Node1&#45;&gt;Node13</title>
<path fill="none" stroke="midnightblue" d="M2684.05,-690.34C2880.85,-687.64 3559.6,-676.18 3594,-646 3664.51,-584.14 3641.2,-298.34 3584,-224 3490.85,-102.94 3291.84,-75.18 3211.6,-68.85"/>
<polygon fill="midnightblue" stroke="midnightblue" points="3211.76,-65.36 3201.53,-68.12 3211.25,-72.34 3211.76,-65.36"/>
</g>
<!-- Node15 -->
<g id="node11" class="node">
<title>Node15</title>
<g id="a_node11"><a xlink:href="string_8h.html" target="_top" xlink:title=" ">
<polygon fill="white" stroke="black" points="2962,-56.5 2962,-75.5 3058,-75.5 3058,-56.5 2962,-56.5"/>
<text text-anchor="middle" x="3010" y="-63.5" font-family="Helvetica,sans-Serif" font-size="10.00">core/util/string.h</text>
</a>
</g>
</g>
<!-- Node1&#45;&gt;Node15 -->
<g id="edge164" class="edge">
<title>Node1&#45;&gt;Node15</title>
<path fill="none" stroke="midnightblue" d="M2684.1,-690.7C2805.03,-689.39 3097.43,-682.42 3188,-646 3311.97,-596.15 3354.9,-572.13 3421,-456 3472.43,-365.64 3510.93,-308.96 3451,-224 3404.82,-158.54 3168.24,-100.8 3061.89,-77.7"/>
<polygon fill="midnightblue" stroke="midnightblue" points="3062.53,-74.26 3052.02,-75.58 3061.06,-81.1 3062.53,-74.26"/>
</g>
<!-- Node16 -->
<g id="node12" class="node">
<title>Node16</title>
<g id="a_node12"><a xlink:title=" ">
<polygon fill="white" stroke="#bfbfbf" points="548,-0.5 548,-19.5 604,-19.5 604,-0.5 548,-0.5"/>
<text text-anchor="middle" x="576" y="-7.5" font-family="Helvetica,sans-Serif" font-size="10.00">sstream</text>
</a>
</g>
</g>
<!-- Node1&#45;&gt;Node16 -->
<g id="edge47" class="edge">
<title>Node1&#45;&gt;Node16</title>
<path fill="none" stroke="midnightblue" d="M2577.91,-690.74C2215.09,-688.91 113.57,-676.94 56,-646 17.29,-625.2 0,-608.45 0,-564.5 0,-564.5 0,-564.5 0,-121 0,-82.28 23.38,-73.34 58,-56 142.07,-13.88 432.4,-10.51 537.57,-10.72"/>
<polygon fill="midnightblue" stroke="midnightblue" points="537.73,-14.22 547.74,-10.75 537.75,-7.22 537.73,-14.22"/>
</g>
<!-- Node18 -->
<g id="node14" class="node">
<title>Node18</title>
<g id="a_node14"><a xlink:title=" ">
<polygon fill="white" stroke="#bfbfbf" points="1420,-230 1420,-249 1478,-249 1478,-230 1420,-230"/>
<text text-anchor="middle" x="1449" y="-237" font-family="Helvetica,sans-Serif" font-size="10.00">memory</text>
</a>
</g>
</g>
<!-- Node1&#45;&gt;Node18 -->
<g id="edge45" class="edge">
<title>Node1&#45;&gt;Node18</title>
<path fill="none" stroke="midnightblue" d="M2577.75,-691.06C2336.72,-690.76 1356.1,-683.13 1274,-579 1231.61,-525.24 1246.03,-488.74 1271,-425 1302.09,-345.63 1386.28,-281.76 1426.73,-254.61"/>
<polygon fill="midnightblue" stroke="midnightblue" points="1428.68,-257.52 1435.11,-249.1 1424.83,-251.67 1428.68,-257.52"/>
</g>
<!-- Node22 -->
<g id="node16" class="node">
<title>Node22</title>
<g id="a_node16"><a xlink:title=" ">
<polygon fill="white" stroke="#bfbfbf" points="1131.5,-168.5 1131.5,-187.5 1176.5,-187.5 1176.5,-168.5 1131.5,-168.5"/>
<text text-anchor="middle" x="1154" y="-175.5" font-family="Helvetica,sans-Serif" font-size="10.00">utility</text>
</a>
</g>
</g>
<!-- Node1&#45;&gt;Node22 -->
<g id="edge49" class="edge">
<title>Node1&#45;&gt;Node22</title>
<path fill="none" stroke="midnightblue" d="M2577.98,-690.64C2265.27,-688.45 674.16,-675.82 634,-646 526.95,-566.51 495.13,-479.52 550,-358 587.06,-275.92 619.44,-259.97 702,-224 777.46,-191.12 1030.43,-181.94 1121.22,-179.67"/>
<polygon fill="midnightblue" stroke="midnightblue" points="1121.55,-183.17 1131.46,-179.43 1121.38,-176.17 1121.55,-183.17"/>
</g>
<!-- Node30 -->
<g id="node19" class="node">
<title>Node30</title>
<g id="a_node19"><a xlink:href="thread__info_8h.html" target="_top" xlink:title=" ">
<polygon fill="white" stroke="red" points="332,-230 332,-249 456,-249 456,-230 332,-230"/>
<text text-anchor="middle" x="394" y="-237" font-family="Helvetica,sans-Serif" font-size="10.00">core/util/thread_info.h</text>
</a>
</g>
</g>
<!-- Node1&#45;&gt;Node30 -->
<g id="edge165" class="edge">
<title>Node1&#45;&gt;Node30</title>
<path fill="none" stroke="midnightblue" d="M2577.89,-690.84C2230.46,-689.66 294.75,-681.5 246,-646 215.04,-623.46 218,-602.8 218,-564.5 218,-564.5 218,-564.5 218,-372.5 218,-306.12 299.12,-269.03 351.21,-252.06"/>
<polygon fill="midnightblue" stroke="midnightblue" points="352.4,-255.35 360.9,-249.02 350.31,-248.67 352.4,-255.35"/>
</g>
<!-- Node27 -->
<g id="node20" class="node">
<title>Node27</title>
<g id="a_node20"><a xlink:title=" ">
<polygon fill="white" stroke="#bfbfbf" points="230.5,-168.5 230.5,-187.5 277.5,-187.5 277.5,-168.5 230.5,-168.5"/>
<text text-anchor="middle" x="254" y="-175.5" font-family="Helvetica,sans-Serif" font-size="10.00">omp.h</text>
</a>
</g>
</g>
<!-- Node1&#45;&gt;Node27 -->
<g id="edge39" class="edge">
<title>Node1&#45;&gt;Node27</title>
<path fill="none" stroke="midnightblue" d="M2577.77,-690.9C2233.63,-690.16 333.73,-684.31 218,-646 158.87,-626.43 104,-626.78 104,-564.5 104,-564.5 104,-564.5 104,-372.5 104,-290.13 189.95,-221.59 231.73,-193.14"/>
<polygon fill="midnightblue" stroke="midnightblue" points="233.77,-195.98 240.16,-187.53 229.89,-190.15 233.77,-195.98"/>
</g>
<!-- Node36 -->
<g id="node23" class="node">
<title>Node36</title>
<g id="a_node23"><a xlink:title=" ">
<polygon fill="white" stroke="#bfbfbf" points="1268,-168.5 1268,-187.5 1332,-187.5 1332,-168.5 1268,-168.5"/>
<text text-anchor="middle" x="1300" y="-175.5" font-family="Helvetica,sans-Serif" font-size="10.00">algorithm</text>
</a>
</g>
</g>
<!-- Node1&#45;&gt;Node36 -->
<g id="edge40" class="edge">
<title>Node1&#45;&gt;Node36</title>
<path fill="none" stroke="midnightblue" d="M2577.83,-691.15C2285.11,-691.77 880.34,-692.34 802,-646 761.65,-622.14 757.46,-594.55 763,-548 780.68,-399.35 733.63,-311.62 855,-224 863.14,-218.12 1148.6,-192.37 1257.95,-182.69"/>
<polygon fill="midnightblue" stroke="midnightblue" points="1258.32,-186.17 1267.97,-181.81 1257.7,-179.2 1258.32,-186.17"/>
</g>
<!-- Node37 -->
<g id="node24" class="node">
<title>Node37</title>
<g id="a_node24"><a xlink:title=" ">
<polygon fill="white" stroke="#bfbfbf" points="604.5,-168.5 604.5,-187.5 651.5,-187.5 651.5,-168.5 604.5,-168.5"/>
<text text-anchor="middle" x="628" y="-175.5" font-family="Helvetica,sans-Serif" font-size="10.00">cmath</text>
</a>
</g>
</g>
<!-- Node1&#45;&gt;Node37 -->
<g id="edge41" class="edge">
<title>Node1&#45;&gt;Node37</title>
<path fill="none" stroke="midnightblue" d="M2577.78,-690.72C2266.36,-688.94 690.69,-678.39 594,-646 469.51,-604.3 369.78,-553.22 398,-425 421.79,-316.91 457.06,-291.2 545,-224 561.66,-211.27 582.39,-200.03 598.96,-191.96"/>
<polygon fill="midnightblue" stroke="midnightblue" points="600.64,-195.04 608.18,-187.6 597.64,-188.72 600.64,-195.04"/>
</g>
<!-- Node39 -->
<g id="node25" class="node">
<title>Node39</title>
<g id="a_node25"><a xlink:title=" ">
<polygon fill="white" stroke="#bfbfbf" points="2461.5,-168.5 2461.5,-187.5 2518.5,-187.5 2518.5,-168.5 2461.5,-168.5"/>
<text text-anchor="middle" x="2490" y="-175.5" font-family="Helvetica,sans-Serif" font-size="10.00">ostream</text>
</a>
</g>
</g>
<!-- Node1&#45;&gt;Node39 -->
<g id="edge46" class="edge">
<title>Node1&#45;&gt;Node39</title>
<path fill="none" stroke="midnightblue" d="M2632.24,-682.5C2634.06,-668.38 2636.87,-639.24 2633,-615 2606.14,-446.9 2524.48,-255.63 2498.22,-197.01"/>
<polygon fill="midnightblue" stroke="midnightblue" points="2501.3,-195.32 2493.99,-187.64 2494.92,-198.2 2501.3,-195.32"/>
</g>
<!-- Node41 -->
<g id="node26" class="node">
<title>Node41</title>
<g id="a_node26"><a xlink:title=" ">
<polygon fill="white" stroke="#bfbfbf" points="3334,-230 3334,-249 3442,-249 3442,-230 3334,-230"/>
<text text-anchor="middle" x="3388" y="-237" font-family="Helvetica,sans-Serif" font-size="10.00">cpptoml/cpptoml.h</text>
</a>
</g>
</g>
<!-- Node1&#45;&gt;Node41 -->
<g id="edge38" class="edge">
<title>Node1&#45;&gt;Node41</title>
<path fill="none" stroke="midnightblue" d="M2684.17,-690.14C2877.42,-686.79 3533.09,-673.44 3568,-646 3597.69,-622.66 3592,-602.26 3592,-564.5 3592,-564.5 3592,-564.5 3592,-439.5 3592,-343.85 3475.67,-279.18 3418.7,-253.25"/>
<polygon fill="midnightblue" stroke="midnightblue" points="3420.01,-250 3409.45,-249.14 3417.16,-256.39 3420.01,-250"/>
</g>
<!-- Node42 -->
<g id="node27" class="node">
<title>Node42</title>
<g id="a_node27"><a xlink:title=" ">
<polygon fill="white" stroke="#bfbfbf" points="2393,-621 2393,-640 2529,-640 2529,-621 2393,-621"/>
<text text-anchor="middle" x="2461" y="-628" font-family="Helvetica,sans-Serif" font-size="10.00">experimental/filesystem</text>
</a>
</g>
</g>
<!-- Node1&#45;&gt;Node42 -->
<g id="edge43" class="edge">
<title>Node1&#45;&gt;Node42</title>
<path fill="none" stroke="midnightblue" d="M2606.64,-682.48C2577.36,-672.22 2528.03,-654.96 2495,-643.4"/>
<polygon fill="midnightblue" stroke="midnightblue" points="2495.91,-640.01 2485.31,-640.01 2493.59,-646.62 2495.91,-640.01"/>
</g>
<!-- Node43 -->
<g id="node28" class="node">
<title>Node43</title>
<g id="a_node28"><a xlink:title=" ">
<polygon fill="white" stroke="#bfbfbf" points="2547.5,-621 2547.5,-640 2602.5,-640 2602.5,-621 2547.5,-621"/>
<text text-anchor="middle" x="2575" y="-628" font-family="Helvetica,sans-Serif" font-size="10.00">fstream</text>
</a>
</g>
</g>
<!-- Node1&#45;&gt;Node43 -->
<g id="edge44" class="edge">
<title>Node1&#45;&gt;Node43</title>
<path fill="none" stroke="midnightblue" d="M2622.98,-682.48C2614.41,-673.37 2600.64,-658.74 2590.04,-647.48"/>
<polygon fill="midnightblue" stroke="midnightblue" points="2592.41,-644.89 2583.01,-640.01 2587.31,-649.69 2592.41,-644.89"/>
</g>
<!-- Node44 -->
<g id="node29" class="node">
<title>Node44</title>
<g id="a_node29"><a xlink:title=" ">
<polygon fill="white" stroke="#bfbfbf" points="3160.5,-364 3160.5,-383 3249.5,-383 3249.5,-364 3160.5,-364"/>
<text text-anchor="middle" x="3205" y="-371" font-family="Helvetica,sans-Serif" font-size="10.00">bdm_version.h</text>
</a>
</g>
</g>
<!-- Node1&#45;&gt;Node44 -->
<g id="edge51" class="edge">
<title>Node1&#45;&gt;Node44</title>
<path fill="none" stroke="midnightblue" d="M2684.25,-690.57C2827.09,-688.01 3208,-671.15 3208,-564.5 3208,-564.5 3208,-564.5 3208,-501 3208,-462.69 3206.61,-417.88 3205.72,-393.19"/>
<polygon fill="midnightblue" stroke="midnightblue" points="3209.21,-392.95 3205.34,-383.09 3202.22,-393.21 3209.21,-392.95"/>
</g>
<!-- Node45 -->
<g id="node30" class="node">
<title>Node45</title>
<g id="a_node30"><a xlink:href="agent__uid__generator_8h.html" target="_top" xlink:title=" ">
<polygon fill="white" stroke="black" points="2058.5,-425.5 2058.5,-455.5 2177.5,-455.5 2177.5,-425.5 2058.5,-425.5"/>
<text text-anchor="start" x="2066.5" y="-443.5" font-family="Helvetica,sans-Serif" font-size="10.00">core/agent/agent_uid</text>
<text text-anchor="middle" x="2118" y="-432.5" font-family="Helvetica,sans-Serif" font-size="10.00">_generator.h</text>
</a>
</g>
</g>
<!-- Node1&#45;&gt;Node45 -->
<g id="edge52" class="edge">
<title>Node1&#45;&gt;Node45</title>
<path fill="none" stroke="midnightblue" d="M2631.2,-682.25C2631.08,-666.69 2628.57,-634.06 2611,-615 2498.38,-492.86 2294.67,-456.68 2187.78,-445.98"/>
<polygon fill="midnightblue" stroke="midnightblue" points="2188.03,-442.49 2177.74,-445.02 2187.36,-449.46 2188.03,-442.49"/>
</g>
<!-- Node49 -->
<g id="node34" class="node">
<title>Node49</title>
<g id="a_node34"><a xlink:href="scheduler_8h.html" target="_top" xlink:title=" ">
<polygon fill="white" stroke="red" points="2666,-364 2666,-383 2762,-383 2762,-364 2666,-364"/>
<text text-anchor="middle" x="2714" y="-371" font-family="Helvetica,sans-Serif" font-size="10.00">core/scheduler.h</text>
</a>
</g>
</g>
<!-- Node1&#45;&gt;Node49 -->
<g id="edge156" class="edge">
<title>Node1&#45;&gt;Node49</title>
<path fill="none" stroke="midnightblue" d="M2577.84,-689.02C2512.76,-685.35 2408.19,-674.99 2384,-646 2375.17,-635.42 2377.75,-627.28 2384,-615 2447.56,-490.03 2609.87,-414.61 2680.42,-386.77"/>
<polygon fill="midnightblue" stroke="midnightblue" points="2682.07,-389.88 2690.14,-383.01 2679.55,-383.35 2682.07,-389.88"/>
</g>
<!-- Node53 -->
<g id="node35" class="node">
<title>Node53</title>
<g id="a_node35"><a xlink:href="core_2param_2param_8h.html" target="_top" xlink:title=" ">
<polygon fill="white" stroke="red" points="3220,-297 3220,-316 3336,-316 3336,-297 3220,-297"/>
<text text-anchor="middle" x="3278" y="-304" font-family="Helvetica,sans-Serif" font-size="10.00">core/param/param.h</text>
</a>
</g>
</g>
<!-- Node1&#45;&gt;Node53 -->
<g id="edge154" class="edge">
<title>Node1&#45;&gt;Node53</title>
<path fill="none" stroke="midnightblue" d="M2684.26,-690.63C2799,-689.15 3065.83,-681.84 3148,-646 3265.33,-594.82 3259.72,-515.69 3278,-389 3281.09,-367.61 3280.49,-342.73 3279.51,-326.14"/>
<polygon fill="midnightblue" stroke="midnightblue" points="3283,-325.85 3278.8,-316.12 3276.01,-326.34 3283,-325.85"/>
</g>
<!-- Node66 -->
<g id="node36" class="node">
<title>Node66</title>
<g id="a_node36"><a xlink:href="environment_8h.html" target="_top" xlink:title=" ">
<polygon fill="white" stroke="red" points="1283.5,-554 1283.5,-573 1460.5,-573 1460.5,-554 1283.5,-554"/>
<text text-anchor="middle" x="1372" y="-561" font-family="Helvetica,sans-Serif" font-size="10.00">core/environment/environment.h</text>
</a>
</g>
</g>
<!-- Node1&#45;&gt;Node66 -->
<g id="edge79" class="edge">
<title>Node1&#45;&gt;Node66</title>
<path fill="none" stroke="midnightblue" d="M2577.76,-690.19C2401.04,-687.23 1834.92,-675.63 1655,-646 1562.06,-630.69 1456.34,-595.21 1404.35,-576.52"/>
<polygon fill="midnightblue" stroke="midnightblue" points="1405.29,-573.13 1394.69,-573.02 1402.9,-579.72 1405.29,-573.13"/>
</g>
<!-- Node80 -->
<g id="node38" class="node">
<title>Node80</title>
<g id="a_node38"><a xlink:href="resource__manager_8h.html" target="_top" xlink:title=" ">
<polygon fill="white" stroke="red" points="1528,-492.5 1528,-511.5 1668,-511.5 1668,-492.5 1528,-492.5"/>
<text text-anchor="middle" x="1598" y="-499.5" font-family="Helvetica,sans-Serif" font-size="10.00">core/resource_manager.h</text>
</a>
</g>
</g>
<!-- Node1&#45;&gt;Node80 -->
<g id="edge155" class="edge">
<title>Node1&#45;&gt;Node80</title>
<path fill="none" stroke="midnightblue" d="M2577.68,-689C2487.26,-684.97 2298.32,-673.74 2141,-646 1946.61,-611.72 1720.02,-542.21 1633.78,-514.64"/>
<polygon fill="midnightblue" stroke="midnightblue" points="1634.8,-511.29 1624.21,-511.57 1632.66,-517.96 1634.8,-511.29"/>
</g>
<!-- Node84 -->
<g id="node39" class="node">
<title>Node84</title>
<g id="a_node39"><a xlink:href="kd__tree__environment_8h.html" target="_top" xlink:title=" ">
<polygon fill="white" stroke="red" points="1664,-615.5 1664,-645.5 1782,-645.5 1782,-615.5 1664,-615.5"/>
<text text-anchor="start" x="1672" y="-633.5" font-family="Helvetica,sans-Serif" font-size="10.00">core/environment/kd</text>
<text text-anchor="middle" x="1723" y="-622.5" font-family="Helvetica,sans-Serif" font-size="10.00">_tree_environment.h</text>
</a>
</g>
</g>
<!-- Node1&#45;&gt;Node84 -->
<g id="edge111" class="edge">
<title>Node1&#45;&gt;Node84</title>
<path fill="none" stroke="midnightblue" d="M2577.92,-687.52C2422.28,-677.32 1967.01,-647.49 1792.34,-636.04"/>
<polygon fill="midnightblue" stroke="midnightblue" points="1792.44,-632.54 1782.24,-635.38 1791.99,-639.53 1792.44,-632.54"/>
</g>
<!-- Node86 -->
<g id="node40" class="node">
<title>Node86</title>
<g id="a_node40"><a xlink:href="octree__environment_8h.html" target="_top" xlink:title=" ">
<polygon fill="white" stroke="red" points="2150.5,-615.5 2150.5,-645.5 2287.5,-645.5 2287.5,-615.5 2150.5,-615.5"/>
<text text-anchor="start" x="2158.5" y="-633.5" font-family="Helvetica,sans-Serif" font-size="10.00">core/environment/octree</text>
<text text-anchor="middle" x="2219" y="-622.5" font-family="Helvetica,sans-Serif" font-size="10.00">_environment.h</text>
</a>
</g>
</g>
<!-- Node1&#45;&gt;Node86 -->
<g id="edge115" class="edge">
<title>Node1&#45;&gt;Node86</title>
<path fill="none" stroke="midnightblue" d="M2577.98,-683.34C2506.84,-673.07 2379.93,-654.74 2297.64,-642.86"/>
<polygon fill="midnightblue" stroke="midnightblue" points="2297.98,-639.37 2287.58,-641.4 2296.98,-646.3 2297.98,-639.37"/>
</g>
<!-- Node87 -->
<g id="node41" class="node">
<title>Node87</title>
<g id="a_node41"><a xlink:href="uniform__grid__environment_8h.html" target="_top" xlink:title=" ">
<polygon fill="white" stroke="red" points="811,-615.5 811,-645.5 955,-645.5 955,-615.5 811,-615.5"/>
<text text-anchor="start" x="819" y="-633.5" font-family="Helvetica,sans-Serif" font-size="10.00">core/environment/uniform</text>
<text text-anchor="middle" x="883" y="-622.5" font-family="Helvetica,sans-Serif" font-size="10.00">_grid_environment.h</text>
</a>
</g>
</g>
<!-- Node1&#45;&gt;Node87 -->
<g id="edge120" class="edge">
<title>Node1&#45;&gt;Node87</title>
<path fill="none" stroke="midnightblue" d="M2577.86,-689.59C2390.09,-684.53 1740.24,-666.57 1204,-646 1122.78,-642.88 1030.03,-638.62 965.18,-635.52"/>
<polygon fill="midnightblue" stroke="midnightblue" points="965.18,-632.02 955.02,-635.03 964.84,-639.01 965.18,-632.02"/>
</g>
<!-- Node69 -->
<g id="node42" class="node">
<title>Node69</title>
<g id="a_node42"><a xlink:href="in__place__exec__ctxt_8h.html" target="_top" xlink:title=" ">
<polygon fill="white" stroke="red" points="592,-358.5 592,-388.5 722,-388.5 722,-358.5 592,-358.5"/>
<text text-anchor="start" x="600" y="-376.5" font-family="Helvetica,sans-Serif" font-size="10.00">core/execution_context</text>
<text text-anchor="middle" x="657" y="-365.5" font-family="Helvetica,sans-Serif" font-size="10.00">/in_place_exec_ctxt.h</text>
</a>
</g>
</g>
<!-- Node1&#45;&gt;Node69 -->
<g id="edge136" class="edge">
<title>Node1&#45;&gt;Node69</title>
<path fill="none" stroke="midnightblue" d="M2577.9,-690.65C2267.39,-688.47 699.17,-676 660,-646 630.02,-623.04 636,-602.26 636,-564.5 636,-564.5 636,-564.5 636,-501 636,-464.96 644.4,-423.92 650.57,-398.61"/>
<polygon fill="midnightblue" stroke="midnightblue" points="654,-399.34 653.05,-388.79 647.21,-397.63 654,-399.34"/>
</g>
<!-- Node93 -->
<g id="node43" class="node">
<title>Node93</title>
<g id="a_node43"><a xlink:href="gpu__helper_8h.html" target="_top" xlink:title=" ">
<polygon fill="white" stroke="black" points="3402,-621 3402,-640 3526,-640 3526,-621 3402,-621"/>
<text text-anchor="middle" x="3464" y="-628" font-family="Helvetica,sans-Serif" font-size="10.00">core/gpu/gpu_helper.h</text>
</a>
</g>
</g>
<!-- Node1&#45;&gt;Node93 -->
<g id="edge147" class="edge">
<title>Node1&#45;&gt;Node93</title>
<path fill="none" stroke="midnightblue" d="M2684.45,-690.19C2808.5,-687.8 3125.4,-678.72 3388,-646 3396.53,-644.94 3405.54,-643.5 3414.26,-641.94"/>
<polygon fill="midnightblue" stroke="midnightblue" points="3415.12,-645.34 3424.32,-640.07 3413.84,-638.46 3415.12,-645.34"/>
</g>
<!-- Node94 -->
<g id="node44" class="node">
<title>Node94</title>
<g id="a_node44"><a xlink:href="command__line__options_8h.html" target="_top" xlink:title=" ">
<polygon fill="white" stroke="red" points="2941,-425.5 2941,-455.5 3065,-455.5 3065,-425.5 2941,-425.5"/>
<text text-anchor="start" x="2949" y="-443.5" font-family="Helvetica,sans-Serif" font-size="10.00">core/param/command</text>
<text text-anchor="middle" x="3003" y="-432.5" font-family="Helvetica,sans-Serif" font-size="10.00">_line_options.h</text>
</a>
</g>
</g>
<!-- Node1&#45;&gt;Node94 -->
<g id="edge148" class="edge">
<title>Node1&#45;&gt;Node94</title>
<path fill="none" stroke="midnightblue" d="M2654.35,-682.48C2673.48,-674.79 2700.63,-662.2 2721,-646 2765.23,-610.83 2758.19,-583.69 2802,-548 2849.96,-508.92 2914.49,-477.79 2957.35,-459.51"/>
<polygon fill="midnightblue" stroke="midnightblue" points="2958.82,-462.69 2966.69,-455.59 2956.11,-456.24 2958.82,-462.69"/>
</g>
<!-- Node96 -->
<g id="node45" class="node">
<title>Node96</title>
<g id="a_node45"><a xlink:href="filesystem_8h.html" target="_top" xlink:title=" ">
<polygon fill="white" stroke="black" points="3684.5,-492.5 3684.5,-511.5 3803.5,-511.5 3803.5,-492.5 3684.5,-492.5"/>
<text text-anchor="middle" x="3744" y="-499.5" font-family="Helvetica,sans-Serif" font-size="10.00">core/util/filesystem.h</text>
</a>
</g>
</g>
<!-- Node1&#45;&gt;Node96 -->
<g id="edge157" class="edge">
<title>Node1&#45;&gt;Node96</title>
<path fill="none" stroke="midnightblue" d="M2684.03,-690.17C2890.06,-686.76 3628.13,-672.74 3670,-646 3714.27,-617.73 3733.42,-553.91 3740.48,-521.96"/>
<polygon fill="midnightblue" stroke="midnightblue" points="3743.99,-522.26 3742.55,-511.76 3737.13,-520.86 3743.99,-522.26"/>
</g>
<!-- Node73 -->
<g id="node46" class="node">
<title>Node73</title>
<g id="a_node46"><a xlink:href="io_8h.html" target="_top" xlink:title=" ">
<polygon fill="white" stroke="red" points="3498.5,-230 3498.5,-249 3575.5,-249 3575.5,-230 3498.5,-230"/>
<text text-anchor="middle" x="3537" y="-237" font-family="Helvetica,sans-Serif" font-size="10.00">core/util/io.h</text>
</a>
</g>
</g>
<!-- Node1&#45;&gt;Node73 -->
<g id="edge159" class="edge">
<title>Node1&#45;&gt;Node73</title>
<path fill="none" stroke="midnightblue" d="M2684.14,-690.08C2838.8,-687.05 3281.39,-675.86 3339,-646 3435.26,-596.11 3445.63,-554.01 3492,-456 3524,-388.37 3533.37,-298.17 3536.01,-259.45"/>
<polygon fill="midnightblue" stroke="midnightblue" points="3539.52,-259.37 3536.63,-249.17 3532.54,-258.94 3539.52,-259.37"/>
</g>
<!-- Node97 -->
<g id="node47" class="node">
<title>Node97</title>
<g id="a_node47"><a xlink:href="timing_8h.html" target="_top" xlink:title=" ">
<polygon fill="white" stroke="red" points="3312,-431 3312,-450 3412,-450 3412,-431 3312,-431"/>
<text text-anchor="middle" x="3362" y="-438" font-family="Helvetica,sans-Serif" font-size="10.00">core/util/timing.h</text>
</a>
</g>
</g>
<!-- Node1&#45;&gt;Node97 -->
<g id="edge166" class="edge">
<title>Node1&#45;&gt;Node97</title>
<path fill="none" stroke="midnightblue" d="M2684.18,-691.04C2836.12,-690.66 3264.33,-686.03 3312,-646 3367.77,-599.17 3367.02,-501.34 3363.94,-460.28"/>
<polygon fill="midnightblue" stroke="midnightblue" points="3367.42,-459.95 3363.06,-450.29 3360.45,-460.56 3367.42,-459.95"/>
</g>
<!-- Node98 -->
<g id="node48" class="node">
<title>Node98</title>
<g id="a_node48"><a xlink:href="root_2adaptor_8h.html" target="_top" xlink:title=" ">
<polygon fill="white" stroke="red" points="2811.5,-548.5 2811.5,-578.5 2914.5,-578.5 2914.5,-548.5 2811.5,-548.5"/>
<text text-anchor="start" x="2819.5" y="-566.5" font-family="Helvetica,sans-Serif" font-size="10.00">core/visualization</text>
<text text-anchor="middle" x="2863" y="-555.5" font-family="Helvetica,sans-Serif" font-size="10.00">/root/adaptor.h</text>
</a>
</g>
</g>
<!-- Node1&#45;&gt;Node98 -->
<g id="edge170" class="edge">
<title>Node1&#45;&gt;Node98</title>
<path fill="none" stroke="midnightblue" d="M2684.18,-685.15C2718.58,-679.4 2763.1,-668.09 2797,-646 2819.84,-631.12 2838.54,-605.77 2850.13,-587.29"/>
<polygon fill="midnightblue" stroke="midnightblue" points="2853.2,-588.96 2855.38,-578.59 2847.21,-585.34 2853.2,-588.96"/>
</g>
<!-- Node116 -->
<g id="node49" class="node">
<title>Node116</title>
<g id="a_node49"><a xlink:title=" ">
<polygon fill="white" stroke="#bfbfbf" points="3860.5,-621 3860.5,-640 3961.5,-640 3961.5,-621 3860.5,-621"/>
<text text-anchor="middle" x="3911" y="-628" font-family="Helvetica,sans-Serif" font-size="10.00">memory_usage.h</text>
</a>
</g>
</g>
<!-- Node1&#45;&gt;Node116 -->
<g id="edge177" class="edge">
<title>Node1&#45;&gt;Node116</title>
<path fill="none" stroke="midnightblue" d="M2684.04,-690.32C2887.25,-687.53 3616.24,-675.63 3846,-646 3853.25,-645.06 3860.89,-643.71 3868.28,-642.19"/>
<polygon fill="midnightblue" stroke="midnightblue" points="3869.11,-645.59 3878.14,-640.05 3867.62,-638.75 3869.11,-645.59"/>
</g>
<!-- Node117 -->
<g id="node50" class="node">
<title>Node117</title>
<g id="a_node50"><a xlink:title=" ">
<polygon fill="white" stroke="#bfbfbf" points="3979.5,-621 3979.5,-640 4028.5,-640 4028.5,-621 3979.5,-621"/>
<text text-anchor="middle" x="4004" y="-628" font-family="Helvetica,sans-Serif" font-size="10.00">TEnv.h</text>
</a>
</g>
</g>
<!-- Node1&#45;&gt;Node117 -->
<g id="edge178" class="edge">
<title>Node1&#45;&gt;Node117</title>
<path fill="none" stroke="midnightblue" d="M2684.18,-690.4C2917.44,-687.63 3844.18,-674.86 3971,-646 3973.51,-645.43 3976.06,-644.67 3978.58,-643.79"/>
<polygon fill="midnightblue" stroke="midnightblue" points="3980.01,-646.99 3987.97,-640 3977.39,-640.5 3980.01,-646.99"/>
</g>
<!-- Node3 -->
<g id="node3" class="node">
<title>Node3</title>
<g id="a_node3"><a xlink:title=" ">
<polygon fill="white" stroke="#bfbfbf" points="2866.5,-56.5 2866.5,-75.5 2931.5,-75.5 2931.5,-56.5 2866.5,-56.5"/>
<text text-anchor="middle" x="2899" y="-63.5" font-family="Helvetica,sans-Serif" font-size="10.00">functional</text>
</a>
</g>
</g>
<!-- Node2&#45;&gt;Node3 -->
<g id="edge2" class="edge">
<title>Node2&#45;&gt;Node3</title>
<path fill="none" stroke="midnightblue" d="M2863.46,-364C2884.46,-356.62 2910.19,-343.64 2923,-322 2969.13,-244.06 2926.67,-128.73 2907.38,-84.84"/>
<polygon fill="midnightblue" stroke="midnightblue" points="2910.56,-83.38 2903.25,-75.72 2904.19,-86.27 2910.56,-83.38"/>
</g>
<!-- Node2&#45;&gt;Node4 -->
<g id="edge3" class="edge">
<title>Node2&#45;&gt;Node4</title>
<path fill="none" stroke="midnightblue" d="M2881.92,-369.24C2993.76,-361.78 3257.84,-342.57 3345,-322 3382.52,-313.15 3389.12,-302.2 3426,-291 3494.92,-270.08 3532.23,-305.07 3584,-255 3609.11,-230.72 3604,-213.93 3604,-179 3604,-179 3604,-179 3604,-121 3604,-81.28 3570.04,-45.5 3547.52,-26.15"/>
<polygon fill="midnightblue" stroke="midnightblue" points="3549.48,-23.24 3539.54,-19.57 3545.02,-28.63 3549.48,-23.24"/>
</g>
<!-- Node2&#45;&gt;Node5 -->
<g id="edge4" class="edge">
<title>Node2&#45;&gt;Node5</title>
<path fill="none" stroke="midnightblue" d="M2858.22,-363.91C2882.2,-355.54 2917.36,-341.27 2944,-322 3036.53,-255.06 3075.78,-238.51 3117,-132 3131.59,-94.29 3103.63,-73.11 3067,-56 3002.74,-25.99 1899.23,-13.43 1691.55,-11.32"/>
<polygon fill="midnightblue" stroke="midnightblue" points="1691.58,-7.82 1681.54,-11.22 1691.51,-14.82 1691.58,-7.82"/>
</g>
<!-- Node6 -->
<g id="node6" class="node">
<title>Node6</title>
<g id="a_node6"><a xlink:href="agent__uid_8h.html" target="_top" xlink:title=" ">
<polygon fill="white" stroke="black" points="1948,-230 1948,-249 2076,-249 2076,-230 1948,-230"/>
<text text-anchor="middle" x="2012" y="-237" font-family="Helvetica,sans-Serif" font-size="10.00">core/agent/agent_uid.h</text>
</a>
</g>
</g>
<!-- Node2&#45;&gt;Node6 -->
<g id="edge5" class="edge">
<title>Node2&#45;&gt;Node6</title>
<path fill="none" stroke="midnightblue" d="M2797.46,-363.93C2788.86,-361.86 2779.61,-359.75 2771,-358 2521.86,-307.41 2222.83,-267 2086.41,-249.67"/>
<polygon fill="midnightblue" stroke="midnightblue" points="2086.44,-246.15 2076.08,-248.36 2085.56,-253.09 2086.44,-246.15"/>
</g>
<!-- Node8 -->
<g id="node8" class="node">
<title>Node8</title>
<g id="a_node8"><a xlink:href="root_8h.html" target="_top" xlink:title=" ">
<polygon fill="white" stroke="red" points="2537,-168.5 2537,-187.5 2625,-187.5 2625,-168.5 2537,-168.5"/>
<text text-anchor="middle" x="2581" y="-175.5" font-family="Helvetica,sans-Serif" font-size="10.00">core/util/root.h</text>
</a>
</g>
</g>
<!-- Node2&#45;&gt;Node8 -->
<g id="edge37" class="edge">
<title>Node2&#45;&gt;Node8</title>
<path fill="none" stroke="midnightblue" d="M2854.32,-363.91C2872.04,-356 2895.16,-342.37 2906,-322 2912.47,-309.84 2914,-302.22 2906,-291 2844.2,-204.33 2710.75,-184.06 2635.49,-179.74"/>
<polygon fill="midnightblue" stroke="midnightblue" points="2635.44,-176.23 2625.27,-179.23 2635.09,-183.23 2635.44,-176.23"/>
</g>
<!-- Node17 -->
<g id="node13" class="node">
<title>Node17</title>
<g id="a_node13"><a xlink:href="opencl__state_8h.html" target="_top" xlink:title=" ">
<polygon fill="white" stroke="black" points="2764.5,-297 2764.5,-316 2897.5,-316 2897.5,-297 2764.5,-297"/>
<text text-anchor="middle" x="2831" y="-304" font-family="Helvetica,sans-Serif" font-size="10.00">core/gpu/opencl_state.h</text>
</a>
</g>
</g>
<!-- Node2&#45;&gt;Node17 -->
<g id="edge16" class="edge">
<title>Node2&#45;&gt;Node17</title>
<path fill="none" stroke="midnightblue" d="M2831,-363.73C2831,-354.18 2831,-338.62 2831,-326.28"/>
<polygon fill="midnightblue" stroke="midnightblue" points="2834.5,-326.13 2831,-316.13 2827.5,-326.13 2834.5,-326.13"/>
</g>
<!-- Node19 -->
<g id="node15" class="node">
<title>Node19</title>
<g id="a_node15"><a xlink:href="memory__manager_8h.html" target="_top" xlink:title=" ">
<polygon fill="white" stroke="red" points="2230,-291.5 2230,-321.5 2356,-321.5 2356,-291.5 2230,-291.5"/>
<text text-anchor="start" x="2238" y="-309.5" font-family="Helvetica,sans-Serif" font-size="10.00">core/memory/memory</text>
<text text-anchor="middle" x="2293" y="-298.5" font-family="Helvetica,sans-Serif" font-size="10.00">_manager.h</text>
</a>
</g>
</g>
<!-- Node2&#45;&gt;Node19 -->
<g id="edge19" class="edge">
<title>Node2&#45;&gt;Node19</title>
<path fill="none" stroke="midnightblue" d="M2799.09,-363.96C2790.06,-361.77 2780.19,-359.59 2771,-358 2732.16,-351.29 2490.28,-326.97 2366.22,-314.7"/>
<polygon fill="midnightblue" stroke="midnightblue" points="2366.34,-311.19 2356.05,-313.69 2365.65,-318.16 2366.34,-311.19"/>
</g>
<!-- Node32 -->
<g id="node21" class="node">
<title>Node32</title>
<g id="a_node21"><a xlink:href="random_8h.html" target="_top" xlink:title=" ">
<polygon fill="white" stroke="red" points="2602,-297 2602,-316 2708,-316 2708,-297 2602,-297"/>
<text text-anchor="middle" x="2655" y="-304" font-family="Helvetica,sans-Serif" font-size="10.00">core/util/random.h</text>
</a>
</g>
</g>
<!-- Node2&#45;&gt;Node32 -->
<g id="edge29" class="edge">
<title>Node2&#45;&gt;Node32</title>
<path fill="none" stroke="midnightblue" d="M2807.63,-363.87C2776.91,-352.52 2722.76,-332.52 2687.9,-319.65"/>
<polygon fill="midnightblue" stroke="midnightblue" points="2688.78,-316.24 2678.19,-316.06 2686.36,-322.81 2688.78,-316.24"/>
</g>
<!-- Node7 -->
<g id="node7" class="node">
<title>Node7</title>
<g id="a_node7"><a xlink:title=" ">
<polygon fill="white" stroke="#bfbfbf" points="1712,-168.5 1712,-187.5 1756,-187.5 1756,-168.5 1712,-168.5"/>
<text text-anchor="middle" x="1734" y="-175.5" font-family="Helvetica,sans-Serif" font-size="10.00">limits</text>
</a>
</g>
</g>
<!-- Node6&#45;&gt;Node7 -->
<g id="edge6" class="edge">
<title>Node6&#45;&gt;Node7</title>
<path fill="none" stroke="midnightblue" d="M1972.17,-229.98C1916.69,-218.1 1817.22,-196.81 1766.17,-185.89"/>
<polygon fill="midnightblue" stroke="midnightblue" points="1766.85,-182.45 1756.34,-183.78 1765.38,-189.3 1766.85,-182.45"/>
</g>
<!-- Node6&#45;&gt;Node8 -->
<g id="edge7" class="edge">
<title>Node6&#45;&gt;Node8</title>
<path fill="none" stroke="midnightblue" d="M2076.39,-233.59C2172.14,-225.97 2357.91,-210.01 2526.76,-187.94"/>
<polygon fill="midnightblue" stroke="midnightblue" points="2527.37,-191.39 2536.83,-186.61 2526.46,-184.45 2527.37,-191.39"/>
</g>
<!-- Node8&#45;&gt;Node10 -->
<g id="edge8" class="edge">
<title>Node8&#45;&gt;Node10</title>
<path fill="none" stroke="midnightblue" d="M2625.42,-172.06C2715.51,-162.05 2919.32,-139.41 3015.24,-128.75"/>
<polygon fill="midnightblue" stroke="midnightblue" points="3015.73,-132.22 3025.29,-127.63 3014.96,-125.26 3015.73,-132.22"/>
</g>
<!-- Node10&#45;&gt;Node3 -->
<g id="edge10" class="edge">
<title>Node10&#45;&gt;Node3</title>
<path fill="none" stroke="midnightblue" d="M3040.38,-112.44C3011.99,-103.32 2966.86,-88.81 2935.25,-78.65"/>
<polygon fill="midnightblue" stroke="midnightblue" points="2936.09,-75.24 2925.5,-75.52 2933.94,-81.91 2936.09,-75.24"/>
</g>
<!-- Node10&#45;&gt;Node4 -->
<g id="edge11" class="edge">
<title>Node10&#45;&gt;Node4</title>
<path fill="none" stroke="midnightblue" d="M3073.91,-112.44C3086.12,-98 3113.09,-69.07 3143,-56 3206.15,-28.41 3414.67,-16.16 3495.54,-12.37"/>
<polygon fill="midnightblue" stroke="midnightblue" points="3495.81,-15.86 3505.64,-11.91 3495.49,-8.87 3495.81,-15.86"/>
</g>
<!-- Node10&#45;&gt;Node13 -->
<g id="edge9" class="edge">
<title>Node10&#45;&gt;Node13</title>
<path fill="none" stroke="midnightblue" d="M3084.67,-112.32C3102.39,-103.62 3129.9,-90.12 3150.29,-80.11"/>
<polygon fill="midnightblue" stroke="midnightblue" points="3151.94,-83.2 3159.37,-75.65 3148.85,-76.92 3151.94,-83.2"/>
</g>
<!-- Node10&#45;&gt;Node15 -->
<g id="edge12" class="edge">
<title>Node10&#45;&gt;Node15</title>
<path fill="none" stroke="midnightblue" d="M3057.84,-112.32C3049.5,-104.42 3036.97,-92.55 3026.82,-82.94"/>
<polygon fill="midnightblue" stroke="midnightblue" points="3028.99,-80.17 3019.32,-75.83 3024.18,-85.25 3028.99,-80.17"/>
</g>
<!-- Node15&#45;&gt;Node4 -->
<g id="edge14" class="edge">
<title>Node15&#45;&gt;Node4</title>
<path fill="none" stroke="midnightblue" d="M3058.27,-59.97C3162.79,-49.07 3407.71,-23.54 3495.76,-14.36"/>
<polygon fill="midnightblue" stroke="midnightblue" points="3496.35,-17.82 3505.94,-13.3 3495.63,-10.86 3496.35,-17.82"/>
</g>
<!-- Node15&#45;&gt;Node5 -->
<g id="edge15" class="edge">
<title>Node15&#45;&gt;Node5</title>
<path fill="none" stroke="midnightblue" d="M2961.86,-58.21C2954.55,-57.36 2947.08,-56.58 2940,-56 2445.19,-15.59 1840.03,-11.44 1691.9,-11.04"/>
<polygon fill="midnightblue" stroke="midnightblue" points="1691.65,-7.54 1681.64,-11.01 1691.64,-14.54 1691.65,-7.54"/>
</g>
<!-- Node15&#45;&gt;Node16 -->
<g id="edge13" class="edge">
<title>Node15&#45;&gt;Node16</title>
<path fill="none" stroke="midnightblue" d="M2961.87,-58.11C2954.56,-57.27 2947.09,-56.52 2940,-56 2699,-38.27 901.27,-15.08 614.51,-11.48"/>
<polygon fill="midnightblue" stroke="midnightblue" points="614.25,-7.98 604.21,-11.35 614.16,-14.98 614.25,-7.98"/>
</g>
<!-- Node17&#45;&gt;Node5 -->
<g id="edge18" class="edge">
<title>Node17&#45;&gt;Node5</title>
<path fill="none" stroke="midnightblue" d="M2823.81,-296.93C2791.47,-259.18 2654.48,-107.24 2503,-56 2425.27,-29.71 1839.67,-15.03 1691.82,-11.72"/>
<polygon fill="midnightblue" stroke="midnightblue" points="1691.63,-8.22 1681.56,-11.5 1691.48,-15.22 1691.63,-8.22"/>
</g>
<!-- Node17&#45;&gt;Node18 -->
<g id="edge17" class="edge">
<title>Node17&#45;&gt;Node18</title>
<path fill="none" stroke="midnightblue" d="M2771.93,-297C2754.3,-294.73 2734.89,-292.49 2717,-291 2469.46,-270.37 1674.17,-246.9 1488.17,-241.6"/>
<polygon fill="midnightblue" stroke="midnightblue" points="1488.13,-238.1 1478.04,-241.31 1487.93,-245.1 1488.13,-238.1"/>
</g>
<!-- Node19&#45;&gt;Node5 -->
<g id="edge21" class="edge">
<title>Node19&#45;&gt;Node5</title>
<path fill="none" stroke="midnightblue" d="M2329.05,-291.45C2370.53,-272.64 2433,-235.02 2433,-179 2433,-179 2433,-179 2433,-121 2433,-45.02 1841.48,-17.84 1691.99,-12.19"/>
<polygon fill="midnightblue" stroke="midnightblue" points="1691.74,-8.67 1681.62,-11.8 1691.48,-15.67 1691.74,-8.67"/>
</g>
<!-- Node19&#45;&gt;Node22 -->
<g id="edge20" class="edge">
<title>Node19&#45;&gt;Node22</title>
<path fill="none" stroke="midnightblue" d="M2284.7,-291.4C2272.46,-272.12 2247.56,-238.31 2216,-224 2119.09,-180.06 1365.21,-194.55 1259,-188 1234.74,-186.5 1207.38,-184.14 1186.68,-182.21"/>
<polygon fill="midnightblue" stroke="midnightblue" points="1186.79,-178.7 1176.51,-181.24 1186.13,-185.67 1186.79,-178.7"/>
</g>
<!-- Node28 -->
<g id="node17" class="node">
<title>Node28</title>
<g id="a_node17"><a xlink:href="spinlock_8h.html" target="_top" xlink:title=" ">
<polygon fill="white" stroke="black" points="930.5,-230 930.5,-249 1039.5,-249 1039.5,-230 930.5,-230"/>
<text text-anchor="middle" x="985" y="-237" font-family="Helvetica,sans-Serif" font-size="10.00">core/util/spinlock.h</text>
</a>
</g>
</g>
<!-- Node19&#45;&gt;Node28 -->
<g id="edge22" class="edge">
<title>Node19&#45;&gt;Node28</title>
<path fill="none" stroke="midnightblue" d="M2229.92,-302.36C2168.25,-299.33 2071.68,-294.66 1988,-291 1587.62,-273.48 1486.12,-291.25 1087,-255 1074.28,-253.84 1060.72,-252.21 1047.78,-250.44"/>
<polygon fill="midnightblue" stroke="midnightblue" points="1047.95,-246.93 1037.56,-249.01 1046.97,-253.86 1047.95,-246.93"/>
</g>
<!-- Node19&#45;&gt;Node30 -->
<g id="edge24" class="edge">
<title>Node19&#45;&gt;Node30</title>
<path fill="none" stroke="midnightblue" d="M2229.78,-302.59C2161.88,-299.51 2050.82,-294.61 1955,-291 1381.21,-269.41 688.57,-248.98 466.32,-242.57"/>
<polygon fill="midnightblue" stroke="midnightblue" points="466.2,-239.06 456.1,-242.27 465.99,-246.06 466.2,-239.06"/>
</g>
<!-- Node29 -->
<g id="node18" class="node">
<title>Node29</title>
<g id="a_node18"><a xlink:title=" ">
<polygon fill="white" stroke="#bfbfbf" points="498,-168.5 498,-187.5 548,-187.5 548,-168.5 498,-168.5"/>
<text text-anchor="middle" x="523" y="-175.5" font-family="Helvetica,sans-Serif" font-size="10.00">atomic</text>
</a>
</g>
</g>
<!-- Node28&#45;&gt;Node29 -->
<g id="edge23" class="edge">
<title>Node28&#45;&gt;Node29</title>
<path fill="none" stroke="midnightblue" d="M930.3,-233.87C849.42,-226.6 693.33,-210.92 562,-188 560.73,-187.78 559.44,-187.54 558.14,-187.29"/>
<polygon fill="midnightblue" stroke="midnightblue" points="558.6,-183.81 548.09,-185.21 557.18,-190.67 558.6,-183.81"/>
</g>
<!-- Node30&#45;&gt;Node5 -->
<g id="edge27" class="edge">
<title>Node30&#45;&gt;Node5</title>
<path fill="none" stroke="midnightblue" d="M398.97,-229.69C407.46,-215.27 425.99,-186.38 448,-168 531.6,-98.17 560.73,-84 666,-56 760.05,-30.98 1460.02,-15.09 1623.79,-11.69"/>
<polygon fill="midnightblue" stroke="midnightblue" points="1624.29,-15.18 1634.22,-11.47 1624.15,-8.18 1624.29,-15.18"/>
</g>
<!-- Node30&#45;&gt;Node10 -->
<g id="edge28" class="edge">
<title>Node30&#45;&gt;Node10</title>
<path fill="none" stroke="midnightblue" d="M401.84,-229.87C416.9,-214.01 451.67,-180.7 489,-168 612.86,-125.86 2661.15,-123.16 3015.1,-123.01"/>
<polygon fill="midnightblue" stroke="midnightblue" points="3015.32,-126.51 3025.31,-123 3015.31,-119.51 3015.32,-126.51"/>
</g>
<!-- Node30&#45;&gt;Node29 -->
<g id="edge26" class="edge">
<title>Node30&#45;&gt;Node29</title>
<path fill="none" stroke="midnightblue" d="M412.48,-229.98C434.13,-219.99 470.21,-203.35 495.23,-191.81"/>
<polygon fill="midnightblue" stroke="midnightblue" points="496.94,-194.88 504.55,-187.51 494.01,-188.52 496.94,-194.88"/>
</g>
<!-- Node30&#45;&gt;Node27 -->
<g id="edge25" class="edge">
<title>Node30&#45;&gt;Node27</title>
<path fill="none" stroke="midnightblue" d="M373.94,-229.98C350.24,-219.9 310.59,-203.05 283.42,-191.5"/>
<polygon fill="midnightblue" stroke="midnightblue" points="284.59,-188.2 274.02,-187.51 281.86,-194.64 284.59,-188.2"/>
</g>
<!-- Node32&#45;&gt;Node8 -->
<g id="edge36" class="edge">
<title>Node32&#45;&gt;Node8</title>
<path fill="none" stroke="midnightblue" d="M2649.91,-296.81C2637.87,-276.22 2607.43,-224.19 2591.34,-196.68"/>
<polygon fill="midnightblue" stroke="midnightblue" points="2594.19,-194.62 2586.12,-187.76 2588.15,-198.15 2594.19,-194.62"/>
</g>
<!-- Node35 -->
<g id="node22" class="node">
<title>Node35</title>
<g id="a_node22"><a xlink:href="math__array_8h.html" target="_top" xlink:title=" ">
<polygon fill="white" stroke="red" points="1096.5,-224.5 1096.5,-254.5 1211.5,-254.5 1211.5,-224.5 1096.5,-224.5"/>
<text text-anchor="start" x="1104.5" y="-242.5" font-family="Helvetica,sans-Serif" font-size="10.00">core/container/math</text>
<text text-anchor="middle" x="1154" y="-231.5" font-family="Helvetica,sans-Serif" font-size="10.00">_array.h</text>
</a>
</g>
</g>
<!-- Node32&#45;&gt;Node35 -->
<g id="edge30" class="edge">
<title>Node32&#45;&gt;Node35</title>
<path fill="none" stroke="midnightblue" d="M2601.83,-302.65C2543.67,-299.57 2447.72,-294.63 2365,-291 1941.11,-272.41 1834.83,-274.95 1411,-255 1346.76,-251.98 1273.53,-247.77 1221.72,-244.67"/>
<polygon fill="midnightblue" stroke="midnightblue" points="1221.85,-241.17 1211.65,-244.06 1221.43,-248.15 1221.85,-241.17"/>
</g>
<!-- Node35&#45;&gt;Node8 -->
<g id="edge35" class="edge">
<title>Node35&#45;&gt;Node8</title>
<path fill="none" stroke="midnightblue" d="M1211.52,-234.25C1256.75,-231.03 1321.36,-226.72 1378,-224 1884.97,-199.66 2016.81,-237.6 2526.66,-187.85"/>
<polygon fill="midnightblue" stroke="midnightblue" points="2527.25,-191.31 2536.86,-186.85 2526.57,-184.35 2527.25,-191.31"/>
</g>
<!-- Node35&#45;&gt;Node22 -->
<g id="edge34" class="edge">
<title>Node35&#45;&gt;Node22</title>
<path fill="none" stroke="midnightblue" d="M1154,-224.4C1154,-216.47 1154,-206.46 1154,-197.86"/>
<polygon fill="midnightblue" stroke="midnightblue" points="1157.5,-197.66 1154,-187.66 1150.5,-197.66 1157.5,-197.66"/>
</g>
<!-- Node35&#45;&gt;Node36 -->
<g id="edge31" class="edge">
<title>Node35&#45;&gt;Node36</title>
<path fill="none" stroke="midnightblue" d="M1188.6,-224.4C1213.1,-214.42 1245.66,-201.15 1269.25,-191.53"/>
<polygon fill="midnightblue" stroke="midnightblue" points="1270.82,-194.67 1278.76,-187.66 1268.17,-188.19 1270.82,-194.67"/>
</g>
<!-- Node35&#45;&gt;Node37 -->
<g id="edge32" class="edge">
<title>Node35&#45;&gt;Node37</title>
<path fill="none" stroke="midnightblue" d="M1096.32,-226.36C1091.49,-225.5 1086.67,-224.7 1082,-224 925.96,-200.61 737.87,-186.38 662.08,-181.21"/>
<polygon fill="midnightblue" stroke="midnightblue" points="661.95,-177.69 651.73,-180.51 661.48,-184.68 661.95,-177.69"/>
</g>
<!-- Node35&#45;&gt;Node39 -->
<g id="edge33" class="edge">
<title>Node35&#45;&gt;Node39</title>
<path fill="none" stroke="midnightblue" d="M1211.53,-234.39C1256.76,-231.25 1321.38,-226.98 1378,-224 1798.24,-201.9 2308.31,-184.83 2451.18,-180.23"/>
<polygon fill="midnightblue" stroke="midnightblue" points="2451.33,-183.73 2461.21,-179.91 2451.1,-176.73 2451.33,-183.73"/>
</g>
<!-- Node45&#45;&gt;Node2 -->
<g id="edge76" class="edge">
<title>Node45&#45;&gt;Node2</title>
<path fill="none" stroke="midnightblue" d="M2177.75,-435.43C2327.92,-425.12 2713.34,-398.14 2771,-389 2777.18,-388.02 2783.67,-386.73 2789.99,-385.33"/>
<polygon fill="midnightblue" stroke="midnightblue" points="2790.8,-388.74 2799.74,-383.06 2789.21,-381.92 2790.8,-388.74"/>
</g>
<!-- Node45&#45;&gt;Node6 -->
<g id="edge59" class="edge">
<title>Node45&#45;&gt;Node6</title>
<path fill="none" stroke="midnightblue" d="M2120.87,-425.5C2125.87,-396.96 2132.92,-331.34 2102,-291 2088.54,-273.44 2067.13,-261.07 2048.56,-252.97"/>
<polygon fill="midnightblue" stroke="midnightblue" points="2049.75,-249.68 2039.17,-249.12 2047.1,-256.15 2049.75,-249.68"/>
</g>
<!-- Node45&#45;&gt;Node7 -->
<g id="edge54" class="edge">
<title>Node45&#45;&gt;Node7</title>
<path fill="none" stroke="midnightblue" d="M2160.61,-425.43C2224.91,-403.24 2341.73,-358.84 2365,-322 2372.36,-310.35 2371.87,-302.95 2365,-291 2335.52,-239.71 2306.38,-241.89 2250,-224 2159.12,-195.16 1864.76,-183.22 1766.37,-179.97"/>
<polygon fill="midnightblue" stroke="midnightblue" points="1766.26,-176.47 1756.15,-179.64 1766.03,-183.46 1766.26,-176.47"/>
</g>
<!-- Node45&#45;&gt;Node8 -->
<g id="edge77" class="edge">
<title>Node45&#45;&gt;Node8</title>
<path fill="none" stroke="midnightblue" d="M2174.36,-425.48C2219.21,-414.04 2278.1,-398.3 2301,-389 2415.63,-342.45 2460.17,-345.06 2545,-255 2560.6,-238.44 2570.55,-213.87 2575.95,-197.19"/>
<polygon fill="midnightblue" stroke="midnightblue" points="2579.32,-198.11 2578.85,-187.52 2572.62,-196.09 2579.32,-198.11"/>
</g>
<!-- Node45&#45;&gt;Node28 -->
<g id="edge78" class="edge">
<title>Node45&#45;&gt;Node28</title>
<path fill="none" stroke="midnightblue" d="M2108.34,-425.05C2085.97,-393.09 2026.95,-317.17 1955,-291 1864.29,-258.01 1183.13,-263.8 1087,-255 1074.35,-253.84 1060.87,-252.21 1047.99,-250.46"/>
<polygon fill="midnightblue" stroke="midnightblue" points="1048.21,-246.95 1037.82,-249.03 1047.24,-253.89 1048.21,-246.95"/>
</g>
<!-- Node45&#45;&gt;Node29 -->
<g id="edge53" class="edge">
<title>Node45&#45;&gt;Node29</title>
<path fill="none" stroke="midnightblue" d="M2114.09,-425.42C2108.83,-408.24 2098.21,-378.9 2082,-358 2052.52,-319.99 2041.32,-309.69 1997,-291 1786.35,-202.17 1714.78,-243.52 1487,-224 1091.68,-190.13 990.42,-220.64 595,-188 583.08,-187.02 570.1,-185.52 558.48,-184.04"/>
<polygon fill="midnightblue" stroke="midnightblue" points="558.64,-180.53 548.27,-182.69 557.72,-187.47 558.64,-180.53"/>
</g>
<!-- Node46 -->
<g id="node31" class="node">
<title>Node46</title>
<g id="a_node31"><a xlink:title=" ">
<polygon fill="white" stroke="#bfbfbf" points="1915,-364 1915,-383 1963,-383 1963,-364 1915,-364"/>
<text text-anchor="middle" x="1939" y="-371" font-family="Helvetica,sans-Serif" font-size="10.00">mutex</text>
</a>
</g>
</g>
<!-- Node45&#45;&gt;Node46 -->
<g id="edge55" class="edge">
<title>Node45&#45;&gt;Node46</title>
<path fill="none" stroke="midnightblue" d="M2078.11,-425.46C2049.83,-415.45 2011.02,-401.58 1977,-389 1974.9,-388.22 1972.74,-387.42 1970.56,-386.6"/>
<polygon fill="midnightblue" stroke="midnightblue" points="1971.67,-383.28 1961.07,-383.01 1969.19,-389.82 1971.67,-383.28"/>
</g>
<!-- Node47 -->
<g id="node32" class="node">
<title>Node47</title>
<g id="a_node32"><a xlink:href="agent__handle_8h.html" target="_top" xlink:title=" ">
<polygon fill="white" stroke="black" points="1800,-297 1800,-316 1946,-316 1946,-297 1800,-297"/>
<text text-anchor="middle" x="1873" y="-304" font-family="Helvetica,sans-Serif" font-size="10.00">core/agent/agent_handle.h</text>
</a>
</g>
</g>
<!-- Node45&#45;&gt;Node47 -->
<g id="edge56" class="edge">
<title>Node45&#45;&gt;Node47</title>
<path fill="none" stroke="midnightblue" d="M2099.55,-425.29C2072.77,-404.84 2024.26,-368.4 2005,-358 1974.85,-341.72 1938.31,-328.17 1911.33,-319.22"/>
<polygon fill="midnightblue" stroke="midnightblue" points="1912.08,-315.79 1901.49,-316.02 1909.91,-322.44 1912.08,-315.79"/>
</g>
<!-- Node48 -->
<g id="node33" class="node">
<title>Node48</title>
<g id="a_node33"><a xlink:href="agent__uid__map_8h.html" target="_top" xlink:title=" ">
<polygon fill="white" stroke="black" points="1626.5,-291.5 1626.5,-321.5 1743.5,-321.5 1743.5,-291.5 1626.5,-291.5"/>
<text text-anchor="start" x="1634.5" y="-309.5" font-family="Helvetica,sans-Serif" font-size="10.00">core/container/agent</text>
<text text-anchor="middle" x="1685" y="-298.5" font-family="Helvetica,sans-Serif" font-size="10.00">_uid_map.h</text>
</a>
</g>
</g>
<!-- Node45&#45;&gt;Node48 -->
<g id="edge60" class="edge">
<title>Node45&#45;&gt;Node48</title>
<path fill="none" stroke="midnightblue" d="M2078.14,-425.47C2055.71,-416.67 2027.72,-404.12 2005,-389 1988.25,-377.85 1989.99,-367.01 1972,-358 1952.79,-348.38 1832.7,-329.29 1754.07,-317.54"/>
<polygon fill="midnightblue" stroke="midnightblue" points="1754.15,-314.01 1743.75,-316 1753.12,-320.93 1754.15,-314.01"/>
</g>
<!-- Node45&#45;&gt;Node49 -->
<g id="edge64" class="edge">
<title>Node45&#45;&gt;Node49</title>
<path fill="none" stroke="midnightblue" d="M2177.6,-433C2292.24,-420.5 2542.16,-393.24 2655.74,-380.85"/>
<polygon fill="midnightblue" stroke="midnightblue" points="2656.41,-384.3 2665.97,-379.74 2655.65,-377.34 2656.41,-384.3"/>
</g>
<!-- Node47&#45;&gt;Node7 -->
<g id="edge57" class="edge">
<title>Node47&#45;&gt;Node7</title>
<path fill="none" stroke="midnightblue" d="M1863.45,-296.81C1840.24,-275.68 1780.62,-221.43 1751.1,-194.56"/>
<polygon fill="midnightblue" stroke="midnightblue" points="1753.37,-191.9 1743.62,-187.76 1748.66,-197.07 1753.37,-191.9"/>
</g>
<!-- Node47&#45;&gt;Node8 -->
<g id="edge58" class="edge">
<title>Node47&#45;&gt;Node8</title>
<path fill="none" stroke="midnightblue" d="M1920.83,-296.95C2047.83,-274.26 2392.96,-212.6 2526.87,-188.67"/>
<polygon fill="midnightblue" stroke="midnightblue" points="2527.67,-192.08 2536.9,-186.88 2526.44,-185.19 2527.67,-192.08"/>
</g>
<!-- Node48&#45;&gt;Node5 -->
<g id="edge62" class="edge">
<title>Node48&#45;&gt;Node5</title>
<path fill="none" stroke="midnightblue" d="M1679.92,-291.29C1672.1,-268.11 1658,-220.54 1658,-179 1658,-179 1658,-179 1658,-121 1658,-88.95 1658,-51.64 1658,-29.75"/>
<polygon fill="midnightblue" stroke="midnightblue" points="1661.5,-29.56 1658,-19.56 1654.5,-29.56 1661.5,-29.56"/>
</g>
<!-- Node48&#45;&gt;Node6 -->
<g id="edge63" class="edge">
<title>Node48&#45;&gt;Node6</title>
<path fill="none" stroke="midnightblue" d="M1743.84,-293.8C1805.02,-281.64 1899.94,-262.77 1958.91,-251.05"/>
<polygon fill="midnightblue" stroke="midnightblue" points="1959.64,-254.48 1968.77,-249.09 1958.28,-247.61 1959.64,-254.48"/>
</g>
<!-- Node48&#45;&gt;Node7 -->
<g id="edge61" class="edge">
<title>Node48&#45;&gt;Node7</title>
<path fill="none" stroke="midnightblue" d="M1692.82,-291.19C1698.09,-281.22 1704.96,-267.52 1710,-255 1717.74,-235.79 1724.63,-213.06 1729.02,-197.5"/>
<polygon fill="midnightblue" stroke="midnightblue" points="1732.47,-198.16 1731.75,-187.58 1725.72,-196.3 1732.47,-198.16"/>
</g>
<!-- Node49&#45;&gt;Node3 -->
<g id="edge66" class="edge">
<title>Node49&#45;&gt;Node3</title>
<path fill="none" stroke="midnightblue" d="M2747.62,-363.93C2802.34,-349.95 2904.77,-323.6 2906,-322 2934.34,-285.24 2911.58,-137.71 2902.4,-85.46"/>
<polygon fill="midnightblue" stroke="midnightblue" points="2905.83,-84.8 2900.62,-75.58 2898.95,-86.04 2905.83,-84.8"/>
</g>
<!-- Node49&#45;&gt;Node4 -->
<g id="edge67" class="edge">
<title>Node49&#45;&gt;Node4</title>
<path fill="none" stroke="midnightblue" d="M2747.13,-363.95C2754.95,-361.96 2763.26,-359.88 2771,-358 2839.72,-341.28 2859.63,-346.42 2926,-322 3164.22,-234.36 3428.53,-73.52 3505.72,-25.13"/>
<polygon fill="midnightblue" stroke="midnightblue" points="3507.98,-27.85 3514.58,-19.56 3504.26,-21.92 3507.98,-27.85"/>
</g>
<!-- Node49&#45;&gt;Node5 -->
<g id="edge69" class="edge">
<title>Node49&#45;&gt;Node5</title>
<path fill="none" stroke="midnightblue" d="M2716.17,-363.69C2719.52,-348.48 2724.79,-316.45 2717,-291 2697.71,-227.93 2686.18,-208.33 2634,-168 2515.43,-76.38 2462.75,-86.28 2316,-56 2194.75,-30.98 1808.82,-16.12 1691.9,-12.11"/>
<polygon fill="midnightblue" stroke="midnightblue" points="1691.86,-8.61 1681.75,-11.76 1691.63,-15.6 1691.86,-8.61"/>
</g>
<!-- Node49&#45;&gt;Node22 -->
<g id="edge68" class="edge">
<title>Node49&#45;&gt;Node22</title>
<path fill="none" stroke="midnightblue" d="M2665.9,-370.73C2558.37,-366.27 2301.62,-352.66 2221,-322 2220.86,-321.95 2085.14,-224.05 2085,-224 1998.21,-193.89 1350.67,-193.92 1259,-188 1234.75,-186.43 1207.39,-184.07 1186.68,-182.16"/>
<polygon fill="midnightblue" stroke="midnightblue" points="1186.79,-178.65 1176.51,-181.2 1186.14,-185.62 1186.79,-178.65"/>
</g>
<!-- Node49&#45;&gt;Node36 -->
<g id="edge65" class="edge">
<title>Node49&#45;&gt;Node36</title>
<path fill="none" stroke="midnightblue" d="M2693.68,-363.86C2629.82,-337.17 2426.88,-255.92 2250,-224 2160.03,-207.76 1514.62,-185.94 1342.24,-180.35"/>
<polygon fill="midnightblue" stroke="midnightblue" points="1342.15,-176.84 1332.04,-180.02 1341.92,-183.84 1342.15,-176.84"/>
</g>
<!-- Node49&#45;&gt;Node53 -->
<g id="edge70" class="edge">
<title>Node49&#45;&gt;Node53</title>
<path fill="none" stroke="midnightblue" d="M2743.99,-363.97C2752.65,-361.76 2762.15,-359.56 2771,-358 2926.66,-330.61 3112.01,-316.85 3209.78,-311.04"/>
<polygon fill="midnightblue" stroke="midnightblue" points="3210.05,-314.53 3219.83,-310.45 3209.64,-307.54 3210.05,-314.53"/>
</g>
<!-- Node53&#45;&gt;Node4 -->
<g id="edge72" class="edge">
<title>Node53&#45;&gt;Node4</title>
<path fill="none" stroke="midnightblue" d="M3282.05,-297C3289.53,-281.71 3306.41,-248.85 3325,-224 3385.59,-143 3473.91,-59.86 3510.8,-26.36"/>
<polygon fill="midnightblue" stroke="midnightblue" points="3513.18,-28.93 3518.26,-19.63 3508.49,-23.74 3513.18,-28.93"/>
</g>
<!-- Node53&#45;&gt;Node5 -->
<g id="edge73" class="edge">
<title>Node53&#45;&gt;Node5</title>
<path fill="none" stroke="midnightblue" d="M3272.11,-296.73C3259.3,-276.76 3230,-225.98 3230,-179 3230,-179 3230,-179 3230,-121 3230,-90.77 3234.05,-74.31 3210,-56 3147.52,-8.44 1912.51,-10.18 1691.65,-10.87"/>
<polygon fill="midnightblue" stroke="midnightblue" points="1691.62,-7.37 1681.63,-10.91 1691.64,-14.37 1691.62,-7.37"/>
</g>
<!-- Node53&#45;&gt;Node8 -->
<g id="edge74" class="edge">
<title>Node53&#45;&gt;Node8</title>
<path fill="none" stroke="midnightblue" d="M3255.62,-296.87C3210.85,-279.99 3106.76,-242.62 3016,-224 2880.84,-196.27 2718.37,-185.24 2635.47,-181.16"/>
<polygon fill="midnightblue" stroke="midnightblue" points="2635.43,-177.66 2625.28,-180.68 2635.1,-184.65 2635.43,-177.66"/>
</g>
<!-- Node53&#45;&gt;Node18 -->
<g id="edge71" class="edge">
<title>Node53&#45;&gt;Node18</title>
<path fill="none" stroke="midnightblue" d="M3219.69,-303.15C3146.45,-300.21 3016.93,-295.08 2906,-291 2343.28,-270.28 1658.22,-247.43 1488.46,-241.81"/>
<polygon fill="midnightblue" stroke="midnightblue" points="1488.36,-238.3 1478.25,-241.47 1488.13,-245.3 1488.36,-238.3"/>
</g>
<!-- Node53&#45;&gt;Node41 -->
<g id="edge75" class="edge">
<title>Node53&#45;&gt;Node41</title>
<path fill="none" stroke="midnightblue" d="M3292.84,-296.73C3311.31,-285.82 3343.07,-267.05 3364.78,-254.22"/>
<polygon fill="midnightblue" stroke="midnightblue" points="3366.57,-257.23 3373.4,-249.13 3363.01,-251.2 3366.57,-257.23"/>
</g>
<!-- Node66&#45;&gt;Node5 -->
<g id="edge80" class="edge">
<title>Node66&#45;&gt;Node5</title>
<path fill="none" stroke="midnightblue" d="M1283.21,-557.45C1066.46,-542.98 531.58,-493.34 583,-358 653.15,-173.37 719.84,-112.82 909,-56 1045.53,-14.99 1496.1,-11.21 1623.92,-10.98"/>
<polygon fill="midnightblue" stroke="midnightblue" points="1624.26,-14.48 1634.26,-10.96 1624.25,-7.48 1624.26,-14.48"/>
</g>
<!-- Node66&#45;&gt;Node35 -->
<g id="edge92" class="edge">
<title>Node66&#45;&gt;Node35</title>
<path fill="none" stroke="midnightblue" d="M1320.91,-553.97C1231.02,-537.5 1054,-497.91 1054,-441.5 1054,-441.5 1054,-441.5 1054,-372.5 1054,-334.74 1055.59,-321.39 1078,-291 1087.4,-278.26 1101.04,-267.77 1114.18,-259.71"/>
<polygon fill="midnightblue" stroke="midnightblue" points="1116.24,-262.57 1123.14,-254.53 1112.73,-256.51 1116.24,-262.57"/>
</g>
<!-- Node67 -->
<g id="node37" class="node">
<title>Node67</title>
<g id="a_node37"><a xlink:href="agent_8h.html" target="_top" xlink:title=" ">
<polygon fill="white" stroke="red" points="1158,-297 1158,-316 1266,-316 1266,-297 1158,-297"/>
<text text-anchor="middle" x="1212" y="-304" font-family="Helvetica,sans-Serif" font-size="10.00">core/agent/agent.h</text>
</a>
</g>
</g>
<!-- Node66&#45;&gt;Node67 -->
<g id="edge81" class="edge">
<title>Node66&#45;&gt;Node67</title>
<path fill="none" stroke="midnightblue" d="M1315.59,-553.95C1289.31,-547.03 1259.96,-534.53 1242,-512 1197.83,-456.58 1203.96,-364.95 1209.06,-325.97"/>
<polygon fill="midnightblue" stroke="midnightblue" points="1212.53,-326.45 1210.5,-316.05 1205.6,-325.45 1212.53,-326.45"/>
</g>
<!-- Node66&#45;&gt;Node80 -->
<g id="edge93" class="edge">
<title>Node66&#45;&gt;Node80</title>
<path fill="none" stroke="midnightblue" d="M1404.38,-553.98C1444.24,-543.48 1512.02,-525.64 1555.89,-514.09"/>
<polygon fill="midnightblue" stroke="midnightblue" points="1556.9,-517.44 1565.68,-511.51 1555.12,-510.67 1556.9,-517.44"/>
</g>
<!-- Node67&#45;&gt;Node4 -->
<g id="edge86" class="edge">
<title>Node67&#45;&gt;Node4</title>
<path fill="none" stroke="midnightblue" d="M1223.15,-296.82C1247.85,-277.75 1306.85,-233.16 1330,-224 1485.88,-162.33 1536.84,-190.18 1703,-168 2127.91,-111.28 2233.84,-92.02 2661,-56 2986.19,-28.58 3381.49,-15.35 3495.7,-11.92"/>
<polygon fill="midnightblue" stroke="midnightblue" points="3495.97,-15.42 3505.86,-11.62 3495.76,-8.42 3495.97,-15.42"/>
</g>
<!-- Node67&#45;&gt;Node5 -->
<g id="edge87" class="edge">
<title>Node67&#45;&gt;Node5</title>
<path fill="none" stroke="midnightblue" d="M1215.32,-296.75C1222.74,-276.41 1240,-224.21 1240,-179 1240,-179 1240,-179 1240,-121 1240,-41.72 1524.77,-18.37 1624.22,-12.64"/>
<polygon fill="midnightblue" stroke="midnightblue" points="1624.54,-16.13 1634.33,-12.08 1624.15,-9.14 1624.54,-16.13"/>
</g>
<!-- Node67&#45;&gt;Node6 -->
<g id="edge88" class="edge">
<title>Node67&#45;&gt;Node6</title>
<path fill="none" stroke="midnightblue" d="M1266.04,-301.11C1405.58,-289.77 1778.11,-259.5 1937.73,-246.53"/>
<polygon fill="midnightblue" stroke="midnightblue" points="1938.24,-250 1947.93,-245.71 1937.68,-243.03 1938.24,-250"/>
</g>
<!-- Node67&#45;&gt;Node7 -->
<g id="edge83" class="edge">
<title>Node67&#45;&gt;Node7</title>
<path fill="none" stroke="midnightblue" d="M1235.15,-296.93C1259.34,-287.67 1298.13,-271.95 1330,-255 1352.42,-243.07 1354.14,-232.7 1378,-224 1491.7,-182.55 1637.84,-178.09 1701.71,-178.36"/>
<polygon fill="midnightblue" stroke="midnightblue" points="1701.92,-181.86 1711.95,-178.44 1701.98,-174.86 1701.92,-181.86"/>
</g>
<!-- Node67&#45;&gt;Node8 -->
<g id="edge90" class="edge">
<title>Node67&#45;&gt;Node8</title>
<path fill="none" stroke="midnightblue" d="M1242.3,-296.91C1281.04,-285.72 1345.78,-266.26 1368,-255 1389.02,-244.35 1388.7,-231.6 1411,-224 1525.8,-184.88 2364.61,-199.52 2526.77,-187.71"/>
<polygon fill="midnightblue" stroke="midnightblue" points="2527.19,-191.18 2536.86,-186.85 2526.6,-184.21 2527.19,-191.18"/>
</g>
<!-- Node67&#45;&gt;Node16 -->
<g id="edge85" class="edge">
<title>Node67&#45;&gt;Node16</title>
<path fill="none" stroke="midnightblue" d="M1184.62,-296.99C1158.57,-288.31 1118.75,-273.51 1087,-255 1067.87,-243.85 1068.6,-232.12 1048,-224 954.05,-186.97 667.39,-258.41 595,-188 552.02,-146.19 563.27,-66.1 571.24,-29.76"/>
<polygon fill="midnightblue" stroke="midnightblue" points="574.75,-30.14 573.64,-19.6 567.94,-28.53 574.75,-30.14"/>
</g>
<!-- Node67&#45;&gt;Node18 -->
<g id="edge84" class="edge">
<title>Node67&#45;&gt;Node18</title>
<path fill="none" stroke="midnightblue" d="M1247.97,-296.94C1287.07,-287.45 1351.31,-271.32 1406,-255 1408.93,-254.13 1411.95,-253.19 1414.98,-252.22"/>
<polygon fill="midnightblue" stroke="midnightblue" points="1416.13,-255.52 1424.54,-249.08 1413.94,-248.87 1416.13,-255.52"/>
</g>
<!-- Node67&#45;&gt;Node28 -->
<g id="edge91" class="edge">
<title>Node67&#45;&gt;Node28</title>
<path fill="none" stroke="midnightblue" d="M1181.86,-296.87C1141.38,-285.28 1069.38,-264.66 1024.58,-251.83"/>
<polygon fill="midnightblue" stroke="midnightblue" points="1025.48,-248.45 1014.91,-249.06 1023.56,-255.18 1025.48,-248.45"/>
</g>
<!-- Node67&#45;&gt;Node35 -->
<g id="edge89" class="edge">
<title>Node67&#45;&gt;Node35</title>
<path fill="none" stroke="midnightblue" d="M1204.18,-296.73C1196.34,-287.95 1183.96,-274.08 1173.46,-262.31"/>
<polygon fill="midnightblue" stroke="midnightblue" points="1175.84,-259.72 1166.57,-254.59 1170.62,-264.38 1175.84,-259.72"/>
</g>
<!-- Node67&#45;&gt;Node36 -->
<g id="edge82" class="edge">
<title>Node67&#45;&gt;Node36</title>
<path fill="none" stroke="midnightblue" d="M1219.85,-296.88C1228.62,-287.07 1243.02,-270.42 1254,-255 1267.65,-235.83 1281.37,-212.52 1290.23,-196.81"/>
<polygon fill="midnightblue" stroke="midnightblue" points="1293.49,-198.14 1295.3,-187.7 1287.38,-194.74 1293.49,-198.14"/>
</g>
<!-- Node80&#45;&gt;Node2 -->
<g id="edge108" class="edge">
<title>Node80&#45;&gt;Node2</title>
<path fill="none" stroke="midnightblue" d="M1668.22,-496.48C1778.56,-489.19 1999.23,-473.84 2186,-456 2251.13,-449.78 2706.58,-400.43 2771,-389 2776.81,-387.97 2782.9,-386.71 2788.88,-385.37"/>
<polygon fill="midnightblue" stroke="midnightblue" points="2789.83,-388.74 2798.77,-383.06 2788.24,-381.93 2789.83,-388.74"/>
</g>
<!-- Node80&#45;&gt;Node4 -->
<g id="edge100" class="edge">
<title>Node80&#45;&gt;Node4</title>
<path fill="none" stroke="midnightblue" d="M1660.24,-492.48C1692.16,-486.04 1730.6,-474.94 1761,-456 1810.44,-425.21 1798.37,-388.49 1848,-358 1901.64,-325.05 1924.63,-339.87 1985,-322 2373.53,-207.01 2457.54,-123.9 2857,-56 3099.97,-14.7 3398.46,-10.91 3495.72,-10.86"/>
<polygon fill="midnightblue" stroke="midnightblue" points="3495.8,-14.36 3505.8,-10.86 3495.8,-7.36 3495.8,-14.36"/>
</g>
<!-- Node80&#45;&gt;Node5 -->
<g id="edge102" class="edge">
<title>Node80&#45;&gt;Node5</title>
<path fill="none" stroke="midnightblue" d="M1527.96,-492.92C1477.89,-486.02 1409.34,-474.26 1351,-456 1099.22,-377.21 826,-442.82 826,-179 826,-179 826,-179 826,-121 826,-39.1 1467.86,-16.21 1624.05,-11.85"/>
<polygon fill="midnightblue" stroke="midnightblue" points="1624.54,-15.34 1634.44,-11.57 1624.35,-8.34 1624.54,-15.34"/>
</g>
<!-- Node80&#45;&gt;Node6 -->
<g id="edge105" class="edge">
<title>Node80&#45;&gt;Node6</title>
<path fill="none" stroke="midnightblue" d="M1651.18,-492.43C1678.4,-485.97 1710.81,-474.85 1735,-456 1775.65,-424.32 1754.91,-387.75 1797,-358 1855.81,-316.42 1895.24,-362.2 1955,-322 1978.45,-306.22 1995.22,-277.3 2004.26,-258.49"/>
<polygon fill="midnightblue" stroke="midnightblue" points="2007.52,-259.79 2008.48,-249.24 2001.15,-256.88 2007.52,-259.79"/>
</g>
<!-- Node80&#45;&gt;Node7 -->
<g id="edge97" class="edge">
<title>Node80&#45;&gt;Node7</title>
<path fill="none" stroke="midnightblue" d="M1596.73,-492.44C1592.75,-462.77 1582.7,-362.24 1617,-291 1637.93,-247.52 1683.37,-212.01 1711.06,-193.32"/>
<polygon fill="midnightblue" stroke="midnightblue" points="1713.27,-196.05 1719.71,-187.64 1709.43,-190.2 1713.27,-196.05"/>
</g>
<!-- Node80&#45;&gt;Node8 -->
<g id="edge109" class="edge">
<title>Node80&#45;&gt;Node8</title>
<path fill="none" stroke="midnightblue" d="M1668.25,-493.94C1725.55,-486.95 1800.83,-474.58 1825,-456 1863.45,-426.44 1832.81,-385.15 1873,-358 1963.84,-296.63 2261.25,-357.41 2365,-322 2447.79,-293.74 2529.47,-225.87 2563.93,-194.89"/>
<polygon fill="midnightblue" stroke="midnightblue" points="2566.62,-197.18 2571.65,-187.86 2561.9,-192.01 2566.62,-197.18"/>
</g>
<!-- Node80&#45;&gt;Node18 -->
<g id="edge98" class="edge">
<title>Node80&#45;&gt;Node18</title>
<path fill="none" stroke="midnightblue" d="M1531.53,-492.45C1508.61,-486.11 1484.97,-475.09 1470,-456 1423.78,-397.05 1436.79,-299.31 1444.83,-258.88"/>
<polygon fill="midnightblue" stroke="midnightblue" points="1448.26,-259.58 1446.91,-249.07 1441.41,-258.13 1448.26,-259.58"/>
</g>
<!-- Node80&#45;&gt;Node22 -->
<g id="edge101" class="edge">
<title>Node80&#45;&gt;Node22</title>
<path fill="none" stroke="midnightblue" d="M1594.98,-492.42C1591.84,-483.4 1586.86,-468.77 1583,-456 1552.09,-353.72 1600.75,-293.97 1520,-224 1507.43,-213.11 1274.04,-190.24 1186.66,-182.02"/>
<polygon fill="midnightblue" stroke="midnightblue" points="1186.8,-178.52 1176.52,-181.07 1186.15,-185.49 1186.8,-178.52"/>
</g>
<!-- Node80&#45;&gt;Node30 -->
<g id="edge110" class="edge">
<title>Node80&#45;&gt;Node30</title>
<path fill="none" stroke="midnightblue" d="M1527.85,-501.82C1415.52,-501.77 1188.94,-496.08 1002,-456 876.77,-429.15 851.69,-400.86 731,-358 620.66,-318.81 489.58,-273.45 428.51,-252.39"/>
<polygon fill="midnightblue" stroke="midnightblue" points="429.57,-249.05 418.98,-249.1 427.29,-255.67 429.57,-249.05"/>
</g>
<!-- Node80&#45;&gt;Node27 -->
<g id="edge94" class="edge">
<title>Node80&#45;&gt;Node27</title>
<path fill="none" stroke="midnightblue" d="M1527.9,-500.03C1400.51,-497.49 1122.74,-488.39 891,-456 752.26,-436.61 714.83,-436.38 583,-389 460.66,-345.03 426.12,-334.17 323,-255 300.58,-237.79 279.45,-212.72 266.62,-196.15"/>
<polygon fill="midnightblue" stroke="midnightblue" points="269.22,-193.78 260.39,-187.92 263.64,-198.01 269.22,-193.78"/>
</g>
<!-- Node80&#45;&gt;Node36 -->
<g id="edge95" class="edge">
<title>Node80&#45;&gt;Node36</title>
<path fill="none" stroke="midnightblue" d="M1596.11,-492.4C1594.16,-483.37 1591.12,-468.73 1589,-456 1580.45,-404.69 1594.04,-261.5 1558,-224 1528.92,-193.74 1407.6,-183.72 1342.2,-180.49"/>
<polygon fill="midnightblue" stroke="midnightblue" points="1342.36,-176.99 1332.21,-180.02 1342.04,-183.98 1342.36,-176.99"/>
</g>
<!-- Node80&#45;&gt;Node37 -->
<g id="edge96" class="edge">
<title>Node80&#45;&gt;Node37</title>
<path fill="none" stroke="midnightblue" d="M1592.35,-492.28C1586.74,-483.39 1578.12,-469.08 1572,-456 1525.47,-356.53 1575.34,-289.22 1487,-224 1453.27,-199.1 817.47,-183.25 662.06,-179.74"/>
<polygon fill="midnightblue" stroke="midnightblue" points="661.79,-176.23 651.71,-179.51 661.63,-183.23 661.79,-176.23"/>
</g>
<!-- Node80&#45;&gt;Node39 -->
<g id="edge99" class="edge">
<title>Node80&#45;&gt;Node39</title>
<path fill="none" stroke="midnightblue" d="M1605.92,-492.34C1641.88,-453 1788.19,-293.04 1791,-291 1849.5,-248.68 1869.1,-242.09 1939,-224 2036.12,-198.86 2342.02,-184.77 2450.98,-180.45"/>
<polygon fill="midnightblue" stroke="midnightblue" points="2451.34,-183.94 2461.2,-180.05 2451.07,-176.94 2451.34,-183.94"/>
</g>
<!-- Node80&#45;&gt;Node45 -->
<g id="edge106" class="edge">
<title>Node80&#45;&gt;Node45</title>
<path fill="none" stroke="midnightblue" d="M1668.13,-492.98C1767.7,-481.58 1948.95,-460.84 2048.29,-449.48"/>
<polygon fill="midnightblue" stroke="midnightblue" points="2048.69,-452.95 2058.23,-448.34 2047.9,-446 2048.69,-452.95"/>
</g>
<!-- Node80&#45;&gt;Node47 -->
<g id="edge104" class="edge">
<title>Node80&#45;&gt;Node47</title>
<path fill="none" stroke="midnightblue" d="M1639.08,-492.43C1662.48,-485.79 1691.02,-474.51 1711,-456 1746.58,-423.04 1724.05,-391.63 1759,-358 1778.31,-339.42 1805.61,-327 1828.65,-319.12"/>
<polygon fill="midnightblue" stroke="midnightblue" points="1829.79,-322.43 1838.23,-316.02 1827.64,-315.77 1829.79,-322.43"/>
</g>
<!-- Node80&#45;&gt;Node48 -->
<g id="edge107" class="edge">
<title>Node80&#45;&gt;Node48</title>
<path fill="none" stroke="midnightblue" d="M1601.85,-492.44C1614.51,-464.28 1655.15,-373.89 1674.53,-330.79"/>
<polygon fill="midnightblue" stroke="midnightblue" points="1677.74,-332.19 1678.65,-321.63 1671.35,-329.32 1677.74,-332.19"/>
</g>
<!-- Node80&#45;&gt;Node67 -->
<g id="edge103" class="edge">
<title>Node80&#45;&gt;Node67</title>
<path fill="none" stroke="midnightblue" d="M1527.81,-493.74C1487.19,-487.56 1435.95,-476.3 1394,-456 1375.37,-446.98 1271.83,-358.88 1229.77,-322.79"/>
<polygon fill="midnightblue" stroke="midnightblue" points="1231.86,-319.98 1222,-316.12 1227.3,-325.29 1231.86,-319.98"/>
</g>
<!-- Node84&#45;&gt;Node2 -->
<g id="edge114" class="edge">
<title>Node84&#45;&gt;Node2</title>
<path fill="none" stroke="midnightblue" d="M1782.15,-616.18C1941.81,-580.16 2394.88,-477.6 2771,-389 2775.96,-387.83 2781.14,-386.6 2786.3,-385.36"/>
<polygon fill="midnightblue" stroke="midnightblue" points="2787.21,-388.74 2796.12,-383 2785.58,-381.94 2787.21,-388.74"/>
</g>
<!-- Node84&#45;&gt;Node35 -->
<g id="edge112" class="edge">
<title>Node84&#45;&gt;Node35</title>
<path fill="none" stroke="midnightblue" d="M1667.42,-615.42C1633.18,-606.22 1588.58,-593.28 1550,-579 1482.29,-553.93 1465.17,-546.98 1402,-512 1268.5,-438.07 1188.12,-456.49 1116,-322 1105.35,-302.14 1118.8,-278.76 1132.55,-262.14"/>
<polygon fill="midnightblue" stroke="midnightblue" points="1135.23,-264.39 1139.22,-254.58 1129.98,-259.76 1135.23,-264.39"/>
</g>
<!-- Node84&#45;&gt;Node66 -->
<g id="edge113" class="edge">
<title>Node84&#45;&gt;Node66</title>
<path fill="none" stroke="midnightblue" d="M1663.85,-618.55C1598.02,-606.36 1492.42,-586.8 1427.92,-574.86"/>
<polygon fill="midnightblue" stroke="midnightblue" points="1428.4,-571.39 1417.93,-573.01 1427.13,-578.27 1428.4,-571.39"/>
</g>
<!-- Node86&#45;&gt;Node2 -->
<g id="edge119" class="edge">
<title>Node86&#45;&gt;Node2</title>
<path fill="none" stroke="midnightblue" d="M2287.5,-625.67C2348.87,-620.43 2440.44,-608.06 2515,-579 2547.42,-566.36 2744.62,-433.21 2809.98,-388.81"/>
<polygon fill="midnightblue" stroke="midnightblue" points="2811.99,-391.68 2818.29,-383.16 2808.06,-385.89 2811.99,-391.68"/>
</g>
<!-- Node86&#45;&gt;Node6 -->
<g id="edge116" class="edge">
<title>Node86&#45;&gt;Node6</title>
<path fill="none" stroke="midnightblue" d="M2219,-615.46C2219,-592.12 2219,-543.85 2219,-503 2219,-503 2219,-503 2219,-439.5 2219,-361.15 2183.28,-342.23 2124,-291 2103.33,-273.14 2075.32,-260.51 2052.48,-252.35"/>
<polygon fill="midnightblue" stroke="midnightblue" points="2053.31,-248.94 2042.72,-249.02 2051.05,-255.56 2053.31,-248.94"/>
</g>
<!-- Node86&#45;&gt;Node35 -->
<g id="edge117" class="edge">
<title>Node86&#45;&gt;Node35</title>
<path fill="none" stroke="midnightblue" d="M2150.23,-627.48C1998.37,-620.57 1626.04,-590.13 1351,-456 1254.17,-408.78 1199.94,-416.93 1149,-322 1139.56,-304.42 1142.02,-281.52 1146.14,-264.48"/>
<polygon fill="midnightblue" stroke="midnightblue" points="1149.54,-265.29 1148.83,-254.72 1142.8,-263.43 1149.54,-265.29"/>
</g>
<!-- Node86&#45;&gt;Node66 -->
<g id="edge118" class="edge">
<title>Node86&#45;&gt;Node66</title>
<path fill="none" stroke="midnightblue" d="M2150.13,-624.44C2028.83,-615.49 1769.18,-596.2 1550,-579 1524.35,-576.99 1496.62,-574.76 1470.87,-572.66"/>
<polygon fill="midnightblue" stroke="midnightblue" points="1470.97,-569.16 1460.72,-571.83 1470.4,-576.13 1470.97,-569.16"/>
</g>
<!-- Node87&#45;&gt;Node5 -->
<g id="edge129" class="edge">
<title>Node87&#45;&gt;Node5</title>
<path fill="none" stroke="midnightblue" d="M810.8,-617.89C633.3,-584.82 190,-472.82 190,-179 190,-179 190,-179 190,-121 190,-46.62 1404.19,-16.55 1624.07,-11.71"/>
<polygon fill="midnightblue" stroke="midnightblue" points="1624.43,-15.21 1634.35,-11.49 1624.27,-8.21 1624.43,-15.21"/>
</g>
<!-- Node87&#45;&gt;Node7 -->
<g id="edge125" class="edge">
<title>Node87&#45;&gt;Node7</title>
<path fill="none" stroke="midnightblue" d="M879.43,-615.19C873.92,-591.85 864,-544.09 864,-503 864,-503 864,-503 864,-439.5 864,-340.43 844.2,-286.58 921,-224 951.77,-198.93 1554.49,-183.21 1701.75,-179.73"/>
<polygon fill="midnightblue" stroke="midnightblue" points="1702.02,-183.23 1711.94,-179.49 1701.86,-176.23 1702.02,-183.23"/>
</g>
<!-- Node87&#45;&gt;Node10 -->
<g id="edge134" class="edge">
<title>Node87&#45;&gt;Node10</title>
<path fill="none" stroke="midnightblue" d="M843.25,-615.49C819.33,-606.41 788.65,-593.57 763,-579 653.76,-516.95 254.7,-329.44 323,-224 356.1,-172.91 388.58,-181.24 448,-168 577.87,-139.07 2659.7,-125.42 3015.48,-123.3"/>
<polygon fill="midnightblue" stroke="midnightblue" points="3015.52,-126.8 3025.5,-123.24 3015.48,-119.8 3015.52,-126.8"/>
</g>
<!-- Node87&#45;&gt;Node18 -->
<g id="edge126" class="edge">
<title>Node87&#45;&gt;Node18</title>
<path fill="none" stroke="midnightblue" d="M936.64,-615.42C1031.96,-587.76 1231.57,-517.55 1346,-389 1384.81,-345.39 1421.62,-286.73 1438.83,-257.93"/>
<polygon fill="midnightblue" stroke="midnightblue" points="1442,-259.45 1444.07,-249.06 1435.97,-255.89 1442,-259.45"/>
</g>
<!-- Node87&#45;&gt;Node22 -->
<g id="edge128" class="edge">
<title>Node87&#45;&gt;Node22</title>
<path fill="none" stroke="midnightblue" d="M849.78,-615.45C810.39,-596.3 750,-557.97 750,-503 750,-503 750,-503 750,-439.5 750,-343.13 706.09,-292.38 774,-224 798.32,-199.51 1033.61,-185.12 1121.29,-180.58"/>
<polygon fill="midnightblue" stroke="midnightblue" points="1121.65,-184.06 1131.46,-180.06 1121.3,-177.07 1121.65,-184.06"/>
</g>
<!-- Node87&#45;&gt;Node28 -->
<g id="edge135" class="edge">
<title>Node87&#45;&gt;Node28</title>
<path fill="none" stroke="midnightblue" d="M885.53,-615.41C894.13,-568.61 923.91,-414.26 964,-291 967.58,-279.99 972.51,-268.02 976.7,-258.49"/>
<polygon fill="midnightblue" stroke="midnightblue" points="979.93,-259.83 980.85,-249.28 973.55,-256.96 979.93,-259.83"/>
</g>
<!-- Node87&#45;&gt;Node29 -->
<g id="edge123" class="edge">
<title>Node87&#45;&gt;Node29</title>
<path fill="none" stroke="midnightblue" d="M810.67,-629.46C700.92,-628.05 498.94,-619.8 441,-579 331.88,-502.17 277.82,-399.16 356,-291 385.89,-249.65 423.45,-284.6 465,-255 486.58,-239.62 503.81,-213.87 513.71,-196.66"/>
<polygon fill="midnightblue" stroke="midnightblue" points="516.91,-198.1 518.68,-187.65 510.78,-194.72 516.91,-198.1"/>
</g>
<!-- Node87&#45;&gt;Node27 -->
<g id="edge121" class="edge">
<title>Node87&#45;&gt;Node27</title>
<path fill="none" stroke="midnightblue" d="M810.54,-628.89C693.16,-626.76 467.68,-617.6 399,-579 360,-557.08 253.22,-468.42 204,-322 188.63,-276.28 220.94,-222.69 240.5,-195.96"/>
<polygon fill="midnightblue" stroke="midnightblue" points="243.53,-197.76 246.79,-187.68 237.96,-193.52 243.53,-197.76"/>
</g>
<!-- Node87&#45;&gt;Node35 -->
<g id="edge130" class="edge">
<title>Node87&#45;&gt;Node35</title>
<path fill="none" stroke="midnightblue" d="M903.61,-615.39C931.55,-594.42 978,-552.16 978,-503 978,-503 978,-503 978,-372.5 978,-313.12 1042.92,-277.17 1093.9,-258.11"/>
<polygon fill="midnightblue" stroke="midnightblue" points="1095.34,-261.31 1103.57,-254.63 1092.97,-254.72 1095.34,-261.31"/>
</g>
<!-- Node87&#45;&gt;Node36 -->
<g id="edge122" class="edge">
<title>Node87&#45;&gt;Node36</title>
<path fill="none" stroke="midnightblue" d="M871.74,-615.26C855.13,-592.78 826,-547.08 826,-503 826,-503 826,-503 826,-439.5 826,-339.84 811.76,-288.18 888,-224 902.04,-212.18 1155.4,-190.62 1257.69,-182.35"/>
<polygon fill="midnightblue" stroke="midnightblue" points="1258.28,-185.81 1267.97,-181.52 1257.72,-178.84 1258.28,-185.81"/>
</g>
<!-- Node87&#45;&gt;Node37 -->
<g id="edge124" class="edge">
<title>Node87&#45;&gt;Node37</title>
<path fill="none" stroke="midnightblue" d="M810.95,-625.09C679.01,-615.03 412,-584.6 412,-503 412,-503 412,-503 412,-439.5 412,-377.45 559.07,-240.43 610.5,-194.41"/>
<polygon fill="midnightblue" stroke="midnightblue" points="613.01,-196.87 618.16,-187.6 608.36,-191.63 613.01,-196.87"/>
</g>
<!-- Node87&#45;&gt;Node46 -->
<g id="edge127" class="edge">
<title>Node87&#45;&gt;Node46</title>
<path fill="none" stroke="midnightblue" d="M955.31,-628.35C1181.95,-624.43 1865.46,-610.06 1901,-579 1955.18,-531.64 1948.04,-434.11 1942.21,-393.2"/>
<polygon fill="midnightblue" stroke="midnightblue" points="1945.66,-392.59 1940.65,-383.26 1938.74,-393.68 1945.66,-392.59"/>
</g>
<!-- Node87&#45;&gt;Node53 -->
<g id="edge132" class="edge">
<title>Node87&#45;&gt;Node53</title>
<path fill="none" stroke="midnightblue" d="M955.21,-627.99C1185.41,-622.24 1887,-596.99 1887,-503 1887,-503 1887,-503 1887,-439.5 1887,-402.31 1877.29,-381.64 1906,-358 1948.91,-322.66 2850.45,-324.08 2906,-322 3011.95,-318.03 3134.85,-313.19 3209.49,-310.23"/>
<polygon fill="midnightblue" stroke="midnightblue" points="3209.84,-313.72 3219.69,-309.83 3209.56,-306.73 3209.84,-313.72"/>
</g>
<!-- Node87&#45;&gt;Node66 -->
<g id="edge131" class="edge">
<title>Node87&#45;&gt;Node66</title>
<path fill="none" stroke="midnightblue" d="M955.07,-620.35C1032.82,-610.41 1160.23,-593.96 1270,-579 1280.65,-577.55 1291.92,-575.98 1302.94,-574.43"/>
<polygon fill="midnightblue" stroke="midnightblue" points="1303.54,-577.88 1312.96,-573.01 1302.56,-570.95 1303.54,-577.88"/>
</g>
<!-- Node87&#45;&gt;Node80 -->
<g id="edge133" class="edge">
<title>Node87&#45;&gt;Node80</title>
<path fill="none" stroke="midnightblue" d="M955.21,-627.27C1090.1,-622.44 1375.19,-608.96 1469,-579 1511.59,-565.39 1555.19,-535.76 1579.21,-517.78"/>
<polygon fill="midnightblue" stroke="midnightblue" points="1581.59,-520.36 1587.42,-511.51 1577.35,-514.8 1581.59,-520.36"/>
</g>
<!-- Node69&#45;&gt;Node3 -->
<g id="edge138" class="edge">
<title>Node69&#45;&gt;Node3</title>
<path fill="none" stroke="midnightblue" d="M591.9,-365.35C443.88,-346.79 103.71,-289.8 221,-168 316.38,-68.96 2519.84,-66.71 2856.13,-66.94"/>
<polygon fill="midnightblue" stroke="midnightblue" points="2856.41,-70.44 2866.42,-66.95 2856.42,-63.44 2856.41,-70.44"/>
</g>
<!-- Node69&#45;&gt;Node5 -->
<g id="edge141" class="edge">
<title>Node69&#45;&gt;Node5</title>
<path fill="none" stroke="midnightblue" d="M591.81,-367.87C497.65,-360.52 328.65,-344.65 272,-322 171.88,-281.97 76,-286.83 76,-179 76,-179 76,-179 76,-121 76,-67.99 125.41,-71.84 176,-56 318.24,-11.48 1416.13,-10.68 1624.07,-10.94"/>
<polygon fill="midnightblue" stroke="midnightblue" points="1624.36,-14.44 1634.37,-10.95 1624.37,-7.44 1624.36,-14.44"/>
</g>
<!-- Node69&#45;&gt;Node6 -->
<g id="edge143" class="edge">
<title>Node69&#45;&gt;Node6</title>
<path fill="none" stroke="midnightblue" d="M722.05,-368.31C839.7,-360.56 1095.63,-342.83 1311,-322 1539.87,-299.87 1809.9,-266.39 1937.75,-250.09"/>
<polygon fill="midnightblue" stroke="midnightblue" points="1938.34,-253.54 1947.82,-248.8 1937.45,-246.6 1938.34,-253.54"/>
</g>
<!-- Node69&#45;&gt;Node18 -->
<g id="edge139" class="edge">
<title>Node69&#45;&gt;Node18</title>
<path fill="none" stroke="midnightblue" d="M722.13,-371.58C859.6,-368.92 1174.94,-358.88 1275,-322 1297.11,-313.85 1297.28,-302.22 1318,-291 1335.19,-281.69 1382.27,-264.22 1415.03,-252.47"/>
<polygon fill="midnightblue" stroke="midnightblue" points="1416.45,-255.68 1424.69,-249.02 1414.1,-249.09 1416.45,-255.68"/>
</g>
<!-- Node69&#45;&gt;Node22 -->
<g id="edge140" class="edge">
<title>Node69&#45;&gt;Node22</title>
<path fill="none" stroke="midnightblue" d="M659.78,-358.44C666.63,-327.94 687.42,-255.9 736,-224 799.25,-182.46 1034.27,-178.69 1121.3,-178.76"/>
<polygon fill="midnightblue" stroke="midnightblue" points="1121.39,-182.26 1131.4,-178.78 1121.41,-175.26 1121.39,-182.26"/>
</g>
<!-- Node69&#45;&gt;Node28 -->
<g id="edge145" class="edge">
<title>Node69&#45;&gt;Node28</title>
<path fill="none" stroke="midnightblue" d="M691.79,-358.5C756.14,-332.6 892.75,-277.63 954.07,-252.95"/>
<polygon fill="midnightblue" stroke="midnightblue" points="955.62,-256.1 963.59,-249.12 953,-249.6 955.62,-256.1"/>
</g>
<!-- Node69&#45;&gt;Node29 -->
<g id="edge137" class="edge">
<title>Node69&#45;&gt;Node29</title>
<path fill="none" stroke="midnightblue" d="M647.15,-358.27C622.96,-323.35 560.77,-233.54 534.73,-195.94"/>
<polygon fill="midnightblue" stroke="midnightblue" points="537.51,-193.81 528.94,-187.58 531.76,-197.79 537.51,-193.81"/>
</g>
<!-- Node69&#45;&gt;Node30 -->
<g id="edge146" class="edge">
<title>Node69&#45;&gt;Node30</title>
<path fill="none" stroke="midnightblue" d="M622.36,-358.29C600.14,-348.8 570.89,-335.61 546,-322 523.72,-309.82 520.13,-303.46 498,-291 473.24,-277.06 444.06,-263.09 422.92,-253.39"/>
<polygon fill="midnightblue" stroke="midnightblue" points="424.08,-250.08 413.53,-249.12 421.18,-256.45 424.08,-250.08"/>
</g>
<!-- Node69&#45;&gt;Node47 -->
<g id="edge142" class="edge">
<title>Node69&#45;&gt;Node47</title>
<path fill="none" stroke="midnightblue" d="M722.21,-371.16C892.06,-367.3 1362.02,-354.32 1752,-322 1767.31,-320.73 1783.66,-319.02 1799.24,-317.21"/>
<polygon fill="midnightblue" stroke="midnightblue" points="1799.83,-320.66 1809.35,-316.01 1799.01,-313.71 1799.83,-320.66"/>
</g>
<!-- Node69&#45;&gt;Node48 -->
<g id="edge144" class="edge">
<title>Node69&#45;&gt;Node48</title>
<path fill="none" stroke="midnightblue" d="M722.06,-368.44C858.73,-359.91 1185.72,-339.46 1460,-322 1512.37,-318.67 1571.59,-314.85 1616.13,-311.97"/>
<polygon fill="midnightblue" stroke="midnightblue" points="1616.5,-315.45 1626.26,-311.31 1616.05,-308.46 1616.5,-315.45"/>
</g>
<!-- Node94&#45;&gt;Node2 -->
<g id="edge153" class="edge">
<title>Node94&#45;&gt;Node2</title>
<path fill="none" stroke="midnightblue" d="M2965.68,-425.4C2935.1,-413.84 2892.27,-397.66 2863.18,-386.66"/>
<polygon fill="midnightblue" stroke="midnightblue" points="2864.1,-383.27 2853.51,-383.01 2861.63,-389.82 2864.1,-383.27"/>
</g>
<!-- Node94&#45;&gt;Node4 -->
<g id="edge151" class="edge">
<title>Node94&#45;&gt;Node4</title>
<path fill="none" stroke="midnightblue" d="M3022.99,-425.4C3050.45,-406.78 3102.05,-374.41 3151,-358 3348,-291.96 3430.88,-365.24 3607,-255 3646.7,-230.15 3680,-225.84 3680,-179 3680,-179 3680,-179 3680,-121 3680,-62.22 3604.48,-31.65 3559.91,-18.73"/>
<polygon fill="midnightblue" stroke="midnightblue" points="3560.67,-15.31 3550.1,-16.03 3558.81,-22.06 3560.67,-15.31"/>
</g>
<!-- Node94&#45;&gt;Node36 -->
<g id="edge149" class="edge">
<title>Node94&#45;&gt;Node36</title>
<path fill="none" stroke="midnightblue" d="M2998.47,-425.49C2987.82,-395.09 2958.11,-323.24 2906,-291 2686.82,-155.41 2586.91,-244.53 2330,-224 1947.44,-193.43 1483.17,-182.5 1342.42,-179.76"/>
<polygon fill="midnightblue" stroke="midnightblue" points="1342.16,-176.25 1332.09,-179.56 1342.02,-183.25 1342.16,-176.25"/>
</g>
<!-- Node94&#45;&gt;Node39 -->
<g id="edge150" class="edge">
<title>Node94&#45;&gt;Node39</title>
<path fill="none" stroke="midnightblue" d="M3004.3,-425.41C3007.14,-384.91 3008.87,-268.24 2940,-224 2865.17,-175.93 2634.28,-200.89 2528.67,-187.68"/>
<polygon fill="midnightblue" stroke="midnightblue" points="2528.94,-184.18 2518.54,-186.23 2527.95,-191.11 2528.94,-184.18"/>
</g>
<!-- Node94&#45;&gt;Node44 -->
<g id="edge152" class="edge">
<title>Node94&#45;&gt;Node44</title>
<path fill="none" stroke="midnightblue" d="M3046.83,-425.4C3083.37,-413.64 3134.8,-397.09 3168.98,-386.09"/>
<polygon fill="midnightblue" stroke="midnightblue" points="3170.12,-389.4 3178.56,-383.01 3167.97,-382.74 3170.12,-389.4"/>
</g>
<!-- Node96&#45;&gt;Node4 -->
<g id="edge158" class="edge">
<title>Node96&#45;&gt;Node4</title>
<path fill="none" stroke="midnightblue" d="M3750.13,-492.27C3763.48,-472.37 3794,-421.73 3794,-374.5 3794,-374.5 3794,-374.5 3794,-121 3794,-90.2 3793.54,-75.85 3770,-56 3738.7,-29.61 3618.72,-17.52 3560.32,-13.1"/>
<polygon fill="midnightblue" stroke="midnightblue" points="3560.39,-9.6 3550.16,-12.37 3559.88,-16.58 3560.39,-9.6"/>
</g>
<!-- Node73&#45;&gt;Node4 -->
<g id="edge160" class="edge">
<title>Node73&#45;&gt;Node4</title>
<path fill="none" stroke="midnightblue" d="M3536.66,-229.86C3535.34,-196.64 3530.6,-76.66 3528.75,-29.87"/>
<polygon fill="midnightblue" stroke="midnightblue" points="3532.23,-29.5 3528.34,-19.65 3525.24,-29.78 3532.23,-29.5"/>
</g>
<!-- Node73&#45;&gt;Node5 -->
<g id="edge161" class="edge">
<title>Node73&#45;&gt;Node5</title>
<path fill="none" stroke="midnightblue" d="M3527.34,-229.7C3492.46,-198.56 3368.51,-93.52 3244,-56 3090.73,-9.81 1908.17,-10.4 1691.9,-10.9"/>
<polygon fill="midnightblue" stroke="midnightblue" points="1691.78,-7.4 1681.78,-10.92 1691.79,-14.4 1691.78,-7.4"/>
</g>
<!-- Node73&#45;&gt;Node8 -->
<g id="edge162" class="edge">
<title>Node73&#45;&gt;Node8</title>
<path fill="none" stroke="midnightblue" d="M3498.17,-230.98C3483.45,-228.38 3466.5,-225.7 3451,-224 3143.67,-190.26 2772.41,-181.71 2635.29,-179.63"/>
<polygon fill="midnightblue" stroke="midnightblue" points="2635.1,-176.13 2625.05,-179.49 2635,-183.13 2635.1,-176.13"/>
</g>
<!-- Node97&#45;&gt;Node2 -->
<g id="edge169" class="edge">
<title>Node97&#45;&gt;Node2</title>
<path fill="none" stroke="midnightblue" d="M3311.57,-433.33C3213.61,-421.34 2997.95,-394.94 2892.08,-381.98"/>
<polygon fill="midnightblue" stroke="midnightblue" points="2892.23,-378.47 2881.87,-380.73 2891.37,-385.42 2892.23,-378.47"/>
</g>
<!-- Node97&#45;&gt;Node4 -->
<g id="edge167" class="edge">
<title>Node97&#45;&gt;Node4</title>
<path fill="none" stroke="midnightblue" d="M3375.5,-430.98C3412.99,-407.46 3521.79,-340.13 3616,-291 3649.85,-273.34 3668.76,-283.65 3694,-255 3717.41,-228.42 3718,-214.42 3718,-179 3718,-179 3718,-179 3718,-121 3718,-90.2 3716.72,-76.79 3694,-56 3657,-22.16 3597.12,-13.35 3560.29,-11.3"/>
<polygon fill="midnightblue" stroke="midnightblue" points="3560.24,-7.79 3550.1,-10.87 3559.95,-14.79 3560.24,-7.79"/>
</g>
<!-- Node97&#45;&gt;Node53 -->
<g id="edge168" class="edge">
<title>Node97&#45;&gt;Node53</title>
<path fill="none" stroke="midnightblue" d="M3359.91,-430.84C3355.88,-415.29 3346,-382.05 3330,-358 3321,-344.47 3307.85,-331.75 3297.03,-322.45"/>
<polygon fill="midnightblue" stroke="midnightblue" points="3299.25,-319.75 3289.32,-316.06 3294.78,-325.14 3299.25,-319.75"/>
</g>
<!-- Node98&#45;&gt;Node2 -->
<g id="edge175" class="edge">
<title>Node98&#45;&gt;Node2</title>
<path fill="none" stroke="midnightblue" d="M2860.59,-548.37C2854.9,-514.94 2840.61,-430.97 2834.2,-393.3"/>
<polygon fill="midnightblue" stroke="midnightblue" points="2837.61,-392.48 2832.48,-383.21 2830.71,-393.65 2837.61,-392.48"/>
</g>
<!-- Node98&#45;&gt;Node4 -->
<g id="edge171" class="edge">
<title>Node98&#45;&gt;Node4</title>
<path fill="none" stroke="midnightblue" d="M2914.69,-555.21C2976.9,-546.19 3084.42,-529.83 3176,-512 3467.76,-455.18 3756,-476.24 3756,-179 3756,-179 3756,-179 3756,-121 3756,-35.21 3623.43,-16.29 3560.47,-12.15"/>
<polygon fill="midnightblue" stroke="midnightblue" points="3560.46,-8.64 3550.28,-11.57 3560.06,-15.63 3560.46,-8.64"/>
</g>
<!-- Node98&#45;&gt;Node10 -->
<g id="edge176" class="edge">
<title>Node98&#45;&gt;Node10</title>
<path fill="none" stroke="midnightblue" d="M2914.77,-552.51C2965.31,-539.71 3039.48,-512.09 3074,-456 3106.6,-403.03 3079.47,-203.96 3069.97,-141.72"/>
<polygon fill="midnightblue" stroke="midnightblue" points="3073.42,-141.1 3068.42,-131.75 3066.5,-142.17 3073.42,-141.1"/>
</g>
<!-- Node98&#45;&gt;Node49 -->
<g id="edge174" class="edge">
<title>Node98&#45;&gt;Node49</title>
<path fill="none" stroke="midnightblue" d="M2851.8,-548.37C2824.85,-514.36 2756.45,-428.06 2727.39,-391.4"/>
<polygon fill="midnightblue" stroke="midnightblue" points="2729.85,-388.87 2720.9,-383.21 2724.37,-393.22 2729.85,-388.87"/>
</g>
<!-- Node98&#45;&gt;Node53 -->
<g id="edge172" class="edge">
<title>Node98&#45;&gt;Node53</title>
<path fill="none" stroke="midnightblue" d="M2914.57,-563.06C2973.95,-561.58 3072.7,-552.46 3146,-512 3210.73,-476.27 3223.23,-454.25 3258,-389 3268.58,-369.15 3273.67,-343.6 3276.05,-326.45"/>
<polygon fill="midnightblue" stroke="midnightblue" points="3279.57,-326.43 3277.29,-316.09 3272.62,-325.6 3279.57,-326.43"/>
</g>
<!-- Node98&#45;&gt;Node80 -->
<g id="edge173" class="edge">
<title>Node98&#45;&gt;Node80</title>
<path fill="none" stroke="midnightblue" d="M2811.45,-560.08C2615.6,-550.86 1916.78,-517.99 1678.37,-506.78"/>
<polygon fill="midnightblue" stroke="midnightblue" points="1678.2,-503.27 1668.05,-506.29 1677.87,-510.26 1678.2,-503.27"/>
</g>
</g>
</svg>
