<?xml version="1.0" encoding="UTF-8" standalone="no"?>
<!DOCTYPE svg PUBLIC "-//W3C//DTD SVG 1.1//EN"
 "http://www.w3.org/Graphics/SVG/1.1/DTD/svg11.dtd">
<!-- Generated by graphviz version 2.38.0 (20140413.2041)
 -->
<!-- Title: core/simulation_backup.h Pages: 1 -->
<svg width="960pt" height="431pt"
 viewBox="0.00 0.00 960.00 431.00" xmlns="http://www.w3.org/2000/svg" xmlns:xlink="http://www.w3.org/1999/xlink">
<g id="graph0" class="graph" transform="scale(1 1) rotate(0) translate(4 427)">
<title>core/simulation_backup.h</title>
<polygon fill="white" stroke="none" points="-4,4 -4,-427 956,-427 956,4 -4,4"/>
<!-- Node1 -->
<g id="node1" class="node"><title>Node1</title>
<polygon fill="#bfbfbf" stroke="black" points="184.5,-403.5 184.5,-422.5 323.5,-422.5 323.5,-403.5 184.5,-403.5"/>
<text text-anchor="middle" x="254" y="-410.5" font-family="Helvetica,sans-Serif" font-size="10.00">core/simulation_backup.h</text>
</g>
<!-- Node2 -->
<g id="node2" class="node"><title>Node2</title>
<polygon fill="white" stroke="#bfbfbf" points="71.5,-291.5 71.5,-310.5 134.5,-310.5 134.5,-291.5 71.5,-291.5"/>
<text text-anchor="middle" x="103" y="-298.5" font-family="Helvetica,sans-Serif" font-size="10.00">functional</text>
</g>
<!-- Node1&#45;&gt;Node2 -->
<g id="edge1" class="edge"><title>Node1&#45;&gt;Node2</title>
<path fill="none" stroke="midnightblue" d="M239.018,-403.408C224.193,-394.73 201.027,-380.685 182,-367 160.102,-351.249 136.381,-331.31 120.708,-317.695"/>
<polygon fill="midnightblue" stroke="midnightblue" points="122.72,-314.805 112.892,-310.849 118.108,-320.071 122.72,-314.805"/>
</g>
<!-- Node3 -->
<g id="node3" class="node"><title>Node3</title>
<polygon fill="white" stroke="#bfbfbf" points="220,-0.5 220,-19.5 276,-19.5 276,-0.5 220,-0.5"/>
<text text-anchor="middle" x="248" y="-7.5" font-family="Helvetica,sans-Serif" font-size="10.00">sstream</text>
</g>
<!-- Node1&#45;&gt;Node3 -->
<g id="edge2" class="edge"><title>Node1&#45;&gt;Node3</title>
<path fill="none" stroke="midnightblue" d="M184.257,-410.535C109.063,-404.81 0,-382.612 0,-302 0,-302 0,-302 0,-121 0,-30.5021 139.699,-13.8846 209.399,-11.2255"/>
<polygon fill="midnightblue" stroke="midnightblue" points="209.662,-14.7193 219.551,-10.9183 209.45,-7.72246 209.662,-14.7193"/>
</g>
<!-- Node4 -->
<g id="node4" class="node"><title>Node4</title>
<polygon fill="white" stroke="#bfbfbf" points="697,-0.5 697,-19.5 741,-19.5 741,-0.5 697,-0.5"/>
<text text-anchor="middle" x="719" y="-7.5" font-family="Helvetica,sans-Serif" font-size="10.00">string</text>
</g>
<!-- Node1&#45;&gt;Node4 -->
<g id="edge3" class="edge"><title>Node1&#45;&gt;Node4</title>
<path fill="none" stroke="midnightblue" d="M323.533,-411.178C422.28,-408.813 608.334,-399.919 763,-367 849.883,-348.508 952,-390.829 952,-302 952,-302 952,-302 952,-121 952,-33.4671 815.866,-15.4805 751.712,-11.8641"/>
<polygon fill="midnightblue" stroke="midnightblue" points="751.496,-8.34992 741.341,-11.37 751.163,-15.342 751.496,-8.34992"/>
</g>
<!-- Node5 -->
<g id="node5" class="node"><title>Node5</title>
<polygon fill="white" stroke="#bfbfbf" points="152.5,-291.5 152.5,-310.5 199.5,-310.5 199.5,-291.5 152.5,-291.5"/>
<text text-anchor="middle" x="176" y="-298.5" font-family="Helvetica,sans-Serif" font-size="10.00">vector</text>
</g>
<!-- Node1&#45;&gt;Node5 -->
<g id="edge4" class="edge"><title>Node1&#45;&gt;Node5</title>
<path fill="none" stroke="midnightblue" d="M237.657,-403.437C224.315,-395.641 205.94,-382.929 195,-367 185.536,-353.22 180.724,-334.695 178.315,-320.948"/>
<polygon fill="midnightblue" stroke="midnightblue" points="181.73,-320.114 176.808,-310.732 174.805,-321.136 181.73,-320.114"/>
</g>
<!-- Node6 -->
<g id="node6" class="node"><title>Node6</title>
<g id="a_node6"><a xlink:href="simulation_8h.html" target="_top" xlink:title="core/simulation.h">
<polygon fill="white" stroke="black" points="204.5,-347.5 204.5,-366.5 303.5,-366.5 303.5,-347.5 204.5,-347.5"/>
<text text-anchor="middle" x="254" y="-354.5" font-family="Helvetica,sans-Serif" font-size="10.00">core/simulation.h</text>
</a>
</g>
</g>
<!-- Node1&#45;&gt;Node6 -->
<g id="edge5" class="edge"><title>Node1&#45;&gt;Node6</title>
<path fill="none" stroke="midnightblue" d="M254,-403.083C254,-396.006 254,-385.861 254,-376.986"/>
<polygon fill="midnightblue" stroke="midnightblue" points="257.5,-376.751 254,-366.751 250.5,-376.751 257.5,-376.751"/>
</g>
<!-- Node20 -->
<g id="node20" class="node"><title>Node20</title>
<g id="a_node20"><a xlink:href="log_8h.html" target="_top" xlink:title="core/util/log.h">
<polygon fill="white" stroke="black" points="614.5,-112.5 614.5,-131.5 695.5,-131.5 695.5,-112.5 614.5,-112.5"/>
<text text-anchor="middle" x="655" y="-119.5" font-family="Helvetica,sans-Serif" font-size="10.00">core/util/log.h</text>
</a>
</g>
</g>
<!-- Node1&#45;&gt;Node20 -->
<g id="edge37" class="edge"><title>Node1&#45;&gt;Node20</title>
<path fill="none" stroke="midnightblue" d="M323.645,-410.131C454.94,-404.704 726,-383.616 726,-302 726,-302 726,-302 726,-238.5 726,-206.049 724.247,-195.489 707,-168 699.465,-155.991 687.732,-145.44 677.316,-137.579"/>
<polygon fill="midnightblue" stroke="midnightblue" points="679.169,-134.601 668.998,-131.635 675.099,-140.297 679.169,-134.601"/>
</g>
<!-- Node24 -->
<g id="node24" class="node"><title>Node24</title>
<g id="a_node24"><a xlink:href="io_8h.html" target="_top" xlink:title="core/util/io.h">
<polygon fill="white" stroke="black" points="754.5,-230 754.5,-249 829.5,-249 829.5,-230 754.5,-230"/>
<text text-anchor="middle" x="792" y="-237" font-family="Helvetica,sans-Serif" font-size="10.00">core/util/io.h</text>
</a>
</g>
</g>
<!-- Node1&#45;&gt;Node24 -->
<g id="edge32" class="edge"><title>Node1&#45;&gt;Node24</title>
<path fill="none" stroke="midnightblue" d="M323.805,-409.502C450.271,-404.401 707.293,-391.177 740,-367 774.907,-341.197 786.477,-287.737 790.239,-259.279"/>
<polygon fill="midnightblue" stroke="midnightblue" points="793.747,-259.407 791.39,-249.078 786.791,-258.622 793.747,-259.407"/>
</g>
<!-- Node6&#45;&gt;Node2 -->
<g id="edge6" class="edge"><title>Node6&#45;&gt;Node2</title>
<path fill="none" stroke="midnightblue" d="M230.074,-347.444C204.781,-338.399 164.698,-324.064 136.32,-313.916"/>
<polygon fill="midnightblue" stroke="midnightblue" points="137.409,-310.588 126.814,-310.516 135.052,-317.179 137.409,-310.588"/>
</g>
<!-- Node6&#45;&gt;Node4 -->
<g id="edge7" class="edge"><title>Node6&#45;&gt;Node4</title>
<path fill="none" stroke="midnightblue" d="M249.864,-347.214C242.982,-333.461 227.944,-306.789 208,-291 174.546,-264.515 154.947,-277.988 119,-255 77.4118,-228.404 38,-228.365 38,-179 38,-179 38,-179 38,-121 38,-36.7792 133.803,-74.3527 216,-56 390.429,-17.0539 606.002,-11.599 686.597,-10.9928"/>
<polygon fill="midnightblue" stroke="midnightblue" points="686.639,-14.4927 696.62,-10.9379 686.601,-7.49284 686.639,-14.4927"/>
</g>
<!-- Node6&#45;&gt;Node5 -->
<g id="edge8" class="edge"><title>Node6&#45;&gt;Node5</title>
<path fill="none" stroke="midnightblue" d="M241.468,-347.324C229.414,-338.979 210.973,-326.212 196.731,-316.352"/>
<polygon fill="midnightblue" stroke="midnightblue" points="198.715,-313.469 188.501,-310.655 194.731,-319.224 198.715,-313.469"/>
</g>
<!-- Node7 -->
<g id="node7" class="node"><title>Node7</title>
<g id="a_node7"><a xlink:href="random_8h.html" target="_top" xlink:title="core/util/random.h">
<polygon fill="white" stroke="black" points="278,-291.5 278,-310.5 382,-310.5 382,-291.5 278,-291.5"/>
<text text-anchor="middle" x="330" y="-298.5" font-family="Helvetica,sans-Serif" font-size="10.00">core/util/random.h</text>
</a>
</g>
</g>
<!-- Node6&#45;&gt;Node7 -->
<g id="edge9" class="edge"><title>Node6&#45;&gt;Node7</title>
<path fill="none" stroke="midnightblue" d="M266.211,-347.324C277.776,-339.107 295.375,-326.602 309.161,-316.807"/>
<polygon fill="midnightblue" stroke="midnightblue" points="311.443,-319.479 317.567,-310.834 307.388,-313.773 311.443,-319.479"/>
</g>
<!-- Node19 -->
<g id="node19" class="node"><title>Node19</title>
<g id="a_node19"><a xlink:href="root_8h.html" target="_top" xlink:title="core/util/root.h">
<polygon fill="white" stroke="black" points="612,-168.5 612,-187.5 698,-187.5 698,-168.5 612,-168.5"/>
<text text-anchor="middle" x="655" y="-175.5" font-family="Helvetica,sans-Serif" font-size="10.00">core/util/root.h</text>
</a>
</g>
</g>
<!-- Node6&#45;&gt;Node19 -->
<g id="edge31" class="edge"><title>Node6&#45;&gt;Node19</title>
<path fill="none" stroke="midnightblue" d="M282.916,-347.486C310.863,-339.028 354.249,-325.287 391,-311 483.077,-275.204 586.192,-218.462 631.502,-192.623"/>
<polygon fill="midnightblue" stroke="midnightblue" points="633.334,-195.607 640.268,-187.596 629.852,-189.534 633.334,-195.607"/>
</g>
<!-- Node8 -->
<g id="node8" class="node"><title>Node8</title>
<polygon fill="white" stroke="#bfbfbf" points="465.5,-230 465.5,-249 506.5,-249 506.5,-230 465.5,-230"/>
<text text-anchor="middle" x="486" y="-237" font-family="Helvetica,sans-Serif" font-size="10.00">array</text>
</g>
<!-- Node7&#45;&gt;Node8 -->
<g id="edge10" class="edge"><title>Node7&#45;&gt;Node8</title>
<path fill="none" stroke="midnightblue" d="M353.747,-291.46C378.216,-282.593 417.415,-268.197 451,-255 452.641,-254.355 454.323,-253.686 456.018,-253.005"/>
<polygon fill="midnightblue" stroke="midnightblue" points="457.754,-256.077 465.693,-249.061 455.112,-249.595 457.754,-256.077"/>
</g>
<!-- Node9 -->
<g id="node9" class="node"><title>Node9</title>
<polygon fill="white" stroke="#bfbfbf" points="225.5,-56.5 225.5,-75.5 270.5,-75.5 270.5,-56.5 225.5,-56.5"/>
<text text-anchor="middle" x="248" y="-63.5" font-family="Helvetica,sans-Serif" font-size="10.00">cstdio</text>
</g>
<!-- Node7&#45;&gt;Node9 -->
<g id="edge11" class="edge"><title>Node7&#45;&gt;Node9</title>
<path fill="none" stroke="midnightblue" d="M277.914,-293.243C219.963,-282.497 129.894,-255.308 95,-188 65.6414,-131.369 162.316,-92.5677 215.452,-76.0172"/>
<polygon fill="midnightblue" stroke="midnightblue" points="216.575,-79.3344 225.138,-73.0957 214.553,-72.6327 216.575,-79.3344"/>
</g>
<!-- Node10 -->
<g id="node10" class="node"><title>Node10</title>
<polygon fill="white" stroke="#bfbfbf" points="199.5,-230 199.5,-249 276.5,-249 276.5,-230 199.5,-230"/>
<text text-anchor="middle" x="238" y="-237" font-family="Helvetica,sans-Serif" font-size="10.00">TRandom3.h</text>
</g>
<!-- Node7&#45;&gt;Node10 -->
<g id="edge12" class="edge"><title>Node7&#45;&gt;Node10</title>
<path fill="none" stroke="midnightblue" d="M316.819,-291.475C301.926,-281.843 277.456,-266.017 259.727,-254.552"/>
<polygon fill="midnightblue" stroke="midnightblue" points="261.455,-251.501 251.157,-249.009 257.653,-257.379 261.455,-251.501"/>
</g>
<!-- Node11 -->
<g id="node11" class="node"><title>Node11</title>
<g id="a_node11"><a xlink:href="math__array_8h.html" target="_top" xlink:title="core/container/math\l_array.h">
<polygon fill="white" stroke="black" points="295,-224.5 295,-254.5 409,-254.5 409,-224.5 295,-224.5"/>
<text text-anchor="start" x="303" y="-242.5" font-family="Helvetica,sans-Serif" font-size="10.00">core/container/math</text>
<text text-anchor="middle" x="352" y="-231.5" font-family="Helvetica,sans-Serif" font-size="10.00">_array.h</text>
</a>
</g>
</g>
<!-- Node7&#45;&gt;Node11 -->
<g id="edge13" class="edge"><title>Node7&#45;&gt;Node11</title>
<path fill="none" stroke="midnightblue" d="M333.152,-291.475C335.797,-284.32 339.707,-273.748 343.28,-264.084"/>
<polygon fill="midnightblue" stroke="midnightblue" points="346.63,-265.116 346.815,-254.523 340.064,-262.689 346.63,-265.116"/>
</g>
<!-- Node7&#45;&gt;Node19 -->
<g id="edge30" class="edge"><title>Node7&#45;&gt;Node19</title>
<path fill="none" stroke="midnightblue" d="M349.533,-291.465C367.812,-283.145 395.587,-269.636 418,-255 436.249,-243.083 436.406,-233.546 456,-224 469.152,-217.592 548.214,-200.712 602.635,-189.546"/>
<polygon fill="midnightblue" stroke="midnightblue" points="603.392,-192.964 612.488,-187.531 601.989,-186.106 603.392,-192.964"/>
</g>
<!-- Node12 -->
<g id="node12" class="node"><title>Node12</title>
<polygon fill="white" stroke="#bfbfbf" points="462,-168.5 462,-187.5 524,-187.5 524,-168.5 462,-168.5"/>
<text text-anchor="middle" x="493" y="-175.5" font-family="Helvetica,sans-Serif" font-size="10.00">algorithm</text>
</g>
<!-- Node11&#45;&gt;Node12 -->
<g id="edge14" class="edge"><title>Node11&#45;&gt;Node12</title>
<path fill="none" stroke="midnightblue" d="M385.415,-224.399C408.967,-214.461 440.238,-201.265 462.993,-191.662"/>
<polygon fill="midnightblue" stroke="midnightblue" points="464.631,-194.77 472.483,-187.658 461.909,-188.321 464.631,-194.77"/>
</g>
<!-- Node13 -->
<g id="node13" class="node"><title>Node13</title>
<polygon fill="white" stroke="#bfbfbf" points="542,-168.5 542,-187.5 594,-187.5 594,-168.5 542,-168.5"/>
<text text-anchor="middle" x="568" y="-175.5" font-family="Helvetica,sans-Serif" font-size="10.00">cassert</text>
</g>
<!-- Node11&#45;&gt;Node13 -->
<g id="edge15" class="edge"><title>Node11&#45;&gt;Node13</title>
<path fill="none" stroke="midnightblue" d="M402.915,-224.475C442.647,-213.53 496.843,-198.601 532.125,-188.882"/>
<polygon fill="midnightblue" stroke="midnightblue" points="533.277,-192.195 541.988,-186.165 531.418,-185.447 533.277,-192.195"/>
</g>
<!-- Node14 -->
<g id="node14" class="node"><title>Node14</title>
<polygon fill="white" stroke="#bfbfbf" points="104.5,-168.5 104.5,-187.5 151.5,-187.5 151.5,-168.5 104.5,-168.5"/>
<text text-anchor="middle" x="128" y="-175.5" font-family="Helvetica,sans-Serif" font-size="10.00">cmath</text>
</g>
<!-- Node11&#45;&gt;Node14 -->
<g id="edge16" class="edge"><title>Node11&#45;&gt;Node14</title>
<path fill="none" stroke="midnightblue" d="M298.456,-224.462C262.395,-214.98 213.51,-202.074 161.527,-188.127"/>
<polygon fill="midnightblue" stroke="midnightblue" points="162.353,-184.725 151.787,-185.511 160.537,-191.485 162.353,-184.725"/>
</g>
<!-- Node15 -->
<g id="node15" class="node"><title>Node15</title>
<polygon fill="white" stroke="#bfbfbf" points="170,-168.5 170,-187.5 226,-187.5 226,-168.5 170,-168.5"/>
<text text-anchor="middle" x="198" y="-175.5" font-family="Helvetica,sans-Serif" font-size="10.00">numeric</text>
</g>
<!-- Node11&#45;&gt;Node15 -->
<g id="edge17" class="edge"><title>Node11&#45;&gt;Node15</title>
<path fill="none" stroke="midnightblue" d="M315.504,-224.399C289.435,-214.327 254.706,-200.909 229.776,-191.277"/>
<polygon fill="midnightblue" stroke="midnightblue" points="230.998,-187.997 220.408,-187.658 228.475,-194.527 230.998,-187.997"/>
</g>
<!-- Node16 -->
<g id="node16" class="node"><title>Node16</title>
<polygon fill="white" stroke="#bfbfbf" points="244.5,-168.5 244.5,-187.5 301.5,-187.5 301.5,-168.5 244.5,-168.5"/>
<text text-anchor="middle" x="273" y="-175.5" font-family="Helvetica,sans-Serif" font-size="10.00">ostream</text>
</g>
<!-- Node11&#45;&gt;Node16 -->
<g id="edge18" class="edge"><title>Node11&#45;&gt;Node16</title>
<path fill="none" stroke="midnightblue" d="M333.278,-224.399C321.088,-215.218 305.208,-203.258 292.807,-193.918"/>
<polygon fill="midnightblue" stroke="midnightblue" points="294.589,-190.878 284.495,-187.658 290.377,-196.47 294.589,-190.878"/>
</g>
<!-- Node17 -->
<g id="node17" class="node"><title>Node17</title>
<polygon fill="white" stroke="#bfbfbf" points="320,-168.5 320,-187.5 384,-187.5 384,-168.5 320,-168.5"/>
<text text-anchor="middle" x="352" y="-175.5" font-family="Helvetica,sans-Serif" font-size="10.00">stdexcept</text>
</g>
<!-- Node11&#45;&gt;Node17 -->
<g id="edge19" class="edge"><title>Node11&#45;&gt;Node17</title>
<path fill="none" stroke="midnightblue" d="M352,-224.399C352,-216.466 352,-206.458 352,-197.858"/>
<polygon fill="midnightblue" stroke="midnightblue" points="355.5,-197.658 352,-187.658 348.5,-197.658 355.5,-197.658"/>
</g>
<!-- Node18 -->
<g id="node18" class="node"><title>Node18</title>
<polygon fill="white" stroke="#bfbfbf" points="402,-168.5 402,-187.5 444,-187.5 444,-168.5 402,-168.5"/>
<text text-anchor="middle" x="423" y="-175.5" font-family="Helvetica,sans-Serif" font-size="10.00">utility</text>
</g>
<!-- Node11&#45;&gt;Node18 -->
<g id="edge20" class="edge"><title>Node11&#45;&gt;Node18</title>
<path fill="none" stroke="midnightblue" d="M368.826,-224.399C379.675,-215.308 393.777,-203.49 404.873,-194.191"/>
<polygon fill="midnightblue" stroke="midnightblue" points="407.252,-196.763 412.669,-187.658 402.756,-191.398 407.252,-196.763"/>
</g>
<!-- Node11&#45;&gt;Node19 -->
<g id="edge21" class="edge"><title>Node11&#45;&gt;Node19</title>
<path fill="none" stroke="midnightblue" d="M409.341,-226.739C413.961,-225.807 418.558,-224.884 423,-224 484.293,-211.797 554.783,-198.184 601.825,-189.16"/>
<polygon fill="midnightblue" stroke="midnightblue" points="602.627,-192.57 611.789,-187.249 601.309,-185.695 602.627,-192.57"/>
</g>
<!-- Node19&#45;&gt;Node20 -->
<g id="edge22" class="edge"><title>Node19&#45;&gt;Node20</title>
<path fill="none" stroke="midnightblue" d="M655,-168.083C655,-161.006 655,-150.861 655,-141.986"/>
<polygon fill="midnightblue" stroke="midnightblue" points="658.5,-141.751 655,-131.751 651.5,-141.751 658.5,-141.751"/>
</g>
<!-- Node20&#45;&gt;Node4 -->
<g id="edge26" class="edge"><title>Node20&#45;&gt;Node4</title>
<path fill="none" stroke="midnightblue" d="M665.909,-112.472C675.857,-104.157 690.29,-90.652 699,-76 707.578,-61.5694 712.797,-43.1169 715.742,-29.562"/>
<polygon fill="midnightblue" stroke="midnightblue" points="719.221,-30.0093 717.705,-19.5235 712.351,-28.666 719.221,-30.0093"/>
</g>
<!-- Node20&#45;&gt;Node9 -->
<g id="edge24" class="edge"><title>Node20&#45;&gt;Node9</title>
<path fill="none" stroke="midnightblue" d="M614.487,-115.625C533.806,-104.92 354.484,-81.1282 280.692,-71.3375"/>
<polygon fill="midnightblue" stroke="midnightblue" points="280.968,-67.8435 270.594,-69.9977 280.047,-74.7827 280.968,-67.8435"/>
</g>
<!-- Node21 -->
<g id="node21" class="node"><title>Node21</title>
<polygon fill="white" stroke="#bfbfbf" points="560.5,-56.5 560.5,-75.5 613.5,-75.5 613.5,-56.5 560.5,-56.5"/>
<text text-anchor="middle" x="587" y="-63.5" font-family="Helvetica,sans-Serif" font-size="10.00">TError.h</text>
</g>
<!-- Node20&#45;&gt;Node21 -->
<g id="edge23" class="edge"><title>Node20&#45;&gt;Node21</title>
<path fill="none" stroke="midnightblue" d="M644.075,-112.324C633.825,-104.185 618.279,-91.8395 605.999,-82.0874"/>
<polygon fill="midnightblue" stroke="midnightblue" points="608.132,-79.3119 598.124,-75.8339 603.779,-84.7937 608.132,-79.3119"/>
</g>
<!-- Node22 -->
<g id="node22" class="node"><title>Node22</title>
<polygon fill="white" stroke="#bfbfbf" points="631.5,-56.5 631.5,-75.5 690.5,-75.5 690.5,-56.5 631.5,-56.5"/>
<text text-anchor="middle" x="661" y="-63.5" font-family="Helvetica,sans-Serif" font-size="10.00">iostream</text>
</g>
<!-- Node20&#45;&gt;Node22 -->
<g id="edge25" class="edge"><title>Node20&#45;&gt;Node22</title>
<path fill="none" stroke="midnightblue" d="M655.991,-112.083C656.786,-104.927 657.929,-94.6353 658.923,-85.6911"/>
<polygon fill="midnightblue" stroke="midnightblue" points="662.402,-86.0765 660.028,-75.7511 655.445,-85.3034 662.402,-86.0765"/>
</g>
<!-- Node23 -->
<g id="node23" class="node"><title>Node23</title>
<g id="a_node23"><a xlink:href="string_8h.html" target="_top" xlink:title="core/util/string.h">
<polygon fill="white" stroke="black" points="448,-56.5 448,-75.5 542,-75.5 542,-56.5 448,-56.5"/>
<text text-anchor="middle" x="495" y="-63.5" font-family="Helvetica,sans-Serif" font-size="10.00">core/util/string.h</text>
</a>
</g>
</g>
<!-- Node20&#45;&gt;Node23 -->
<g id="edge27" class="edge"><title>Node20&#45;&gt;Node23</title>
<path fill="none" stroke="midnightblue" d="M629.648,-112.444C602.731,-103.359 560.004,-88.9388 529.913,-78.7831"/>
<polygon fill="midnightblue" stroke="midnightblue" points="530.828,-75.3981 520.234,-75.5164 528.59,-82.0305 530.828,-75.3981"/>
</g>
<!-- Node23&#45;&gt;Node3 -->
<g id="edge28" class="edge"><title>Node23&#45;&gt;Node3</title>
<path fill="none" stroke="midnightblue" d="M455.862,-56.4435C409.323,-46.269 332.168,-29.401 286.093,-19.3279"/>
<polygon fill="midnightblue" stroke="midnightblue" points="286.715,-15.8815 276.199,-17.1649 285.22,-22.72 286.715,-15.8815"/>
</g>
<!-- Node23&#45;&gt;Node4 -->
<g id="edge29" class="edge"><title>Node23&#45;&gt;Node4</title>
<path fill="none" stroke="midnightblue" d="M530.493,-56.4435C573.595,-46.0529 645.654,-28.6816 687.078,-18.6955"/>
<polygon fill="midnightblue" stroke="midnightblue" points="688.012,-22.0707 696.913,-16.3245 686.371,-15.2657 688.012,-22.0707"/>
</g>
<!-- Node24&#45;&gt;Node4 -->
<g id="edge33" class="edge"><title>Node24&#45;&gt;Node4</title>
<path fill="none" stroke="midnightblue" d="M789.227,-229.86C778.522,-196.498 739.742,-75.6419 724.866,-29.2797"/>
<polygon fill="midnightblue" stroke="midnightblue" points="728.163,-28.1015 721.775,-19.6491 721.498,-30.2403 728.163,-28.1015"/>
</g>
<!-- Node24&#45;&gt;Node19 -->
<g id="edge36" class="edge"><title>Node24&#45;&gt;Node19</title>
<path fill="none" stroke="midnightblue" d="M772.371,-229.975C749.176,-219.901 710.381,-203.053 683.787,-191.502"/>
<polygon fill="midnightblue" stroke="midnightblue" points="685.159,-188.282 674.592,-187.509 682.37,-194.703 685.159,-188.282"/>
</g>
<!-- Node25 -->
<g id="node25" class="node"><title>Node25</title>
<polygon fill="white" stroke="#bfbfbf" points="792,-168.5 792,-187.5 838,-187.5 838,-168.5 792,-168.5"/>
<text text-anchor="middle" x="815" y="-175.5" font-family="Helvetica,sans-Serif" font-size="10.00">TFile.h</text>
</g>
<!-- Node24&#45;&gt;Node25 -->
<g id="edge34" class="edge"><title>Node24&#45;&gt;Node25</title>
<path fill="none" stroke="midnightblue" d="M795.295,-229.975C798.609,-221.404 803.818,-207.927 808.049,-196.983"/>
<polygon fill="midnightblue" stroke="midnightblue" points="811.37,-198.098 811.711,-187.509 804.841,-195.575 811.37,-198.098"/>
</g>
<!-- Node26 -->
<g id="node26" class="node"><title>Node26</title>
<polygon fill="white" stroke="#bfbfbf" points="856,-168.5 856,-187.5 924,-187.5 924,-168.5 856,-168.5"/>
<text text-anchor="middle" x="890" y="-175.5" font-family="Helvetica,sans-Serif" font-size="10.00">TSystem.h</text>
</g>
<!-- Node24&#45;&gt;Node26 -->
<g id="edge35" class="edge"><title>Node24&#45;&gt;Node26</title>
<path fill="none" stroke="midnightblue" d="M806.041,-229.975C822.051,-220.255 848.45,-204.227 867.374,-192.737"/>
<polygon fill="midnightblue" stroke="midnightblue" points="869.254,-195.691 875.985,-187.509 865.621,-189.707 869.254,-195.691"/>
</g>
</g>
</svg>
