<?xml version="1.0" encoding="UTF-8" standalone="no"?>
<!DOCTYPE svg PUBLIC "-//W3C//DTD SVG 1.1//EN"
 "http://www.w3.org/Graphics/SVG/1.1/DTD/svg11.dtd">
<!-- Generated by graphviz version 2.38.0 (20140413.2041)
 -->
<!-- Title: core/sim_object/so_pointer.h Pages: 1 -->
<svg width="1975pt" height="486pt"
 viewBox="0.00 0.00 1974.50 486.00" xmlns="http://www.w3.org/2000/svg" xmlns:xlink="http://www.w3.org/1999/xlink">
<g id="graph0" class="graph" transform="scale(1 1) rotate(0) translate(4 482)">
<title>core/sim_object/so_pointer.h</title>
<polygon fill="white" stroke="none" points="-4,4 -4,-482 1970.5,-482 1970.5,4 -4,4"/>
<!-- Node1 -->
<g id="node1" class="node"><title>Node1</title>
<polygon fill="#bfbfbf" stroke="black" points="665.5,-447.5 665.5,-477.5 772.5,-477.5 772.5,-447.5 665.5,-447.5"/>
<text text-anchor="start" x="673.5" y="-465.5" font-family="Helvetica,sans-Serif" font-size="10.00">core/sim_object/so</text>
<text text-anchor="middle" x="719" y="-454.5" font-family="Helvetica,sans-Serif" font-size="10.00">_pointer.h</text>
</g>
<!-- Node2 -->
<g id="node2" class="node"><title>Node2</title>
<g id="a_node2"><a xlink:href="sim__object_8h.html" target="_top" xlink:title="core/sim_object/sim\l_object.h">
<polygon fill="white" stroke="black" points="877.5,-380.5 877.5,-410.5 990.5,-410.5 990.5,-380.5 877.5,-380.5"/>
<text text-anchor="start" x="885.5" y="-398.5" font-family="Helvetica,sans-Serif" font-size="10.00">core/sim_object/sim</text>
<text text-anchor="middle" x="934" y="-387.5" font-family="Helvetica,sans-Serif" font-size="10.00">_object.h</text>
</a>
</g>
</g>
<!-- Node1&#45;&gt;Node2 -->
<g id="edge1" class="edge"><title>Node1&#45;&gt;Node2</title>
<path fill="none" stroke="midnightblue" d="M774.967,-444.58C809.887,-434.022 854.311,-420.592 887.325,-410.611"/>
<polygon fill="midnightblue" stroke="midnightblue" points="773.946,-441.232 765.387,-447.476 775.972,-447.932 773.946,-441.232"/>
</g>
<!-- Node29 -->
<g id="node29" class="node"><title>Node29</title>
<g id="a_node29"><a xlink:href="neuron__or__neurite_8h.html" target="_top" xlink:title="neuroscience/neuron\l_or_neurite.h">
<polygon fill="white" stroke="black" points="99.5,-313.5 99.5,-343.5 216.5,-343.5 216.5,-313.5 99.5,-313.5"/>
<text text-anchor="start" x="107.5" y="-331.5" font-family="Helvetica,sans-Serif" font-size="10.00">neuroscience/neuron</text>
<text text-anchor="middle" x="158" y="-320.5" font-family="Helvetica,sans-Serif" font-size="10.00">_or_neurite.h</text>
</a>
</g>
</g>
<!-- Node1&#45;&gt;Node29 -->
<g id="edge64" class="edge"><title>Node1&#45;&gt;Node29</title>
<path fill="none" stroke="midnightblue" d="M655.541,-446.568C545.978,-420.789 322.902,-368.301 216.716,-343.316"/>
<polygon fill="midnightblue" stroke="midnightblue" points="654.927,-450.02 665.463,-448.903 656.531,-443.206 654.927,-450.02"/>
</g>
<!-- Node3 -->
<g id="node3" class="node"><title>Node3</title>
<g id="a_node3"><a xlink:href="biology__module_8h.html" target="_top" xlink:title="core/biology_module\l/biology_module.h">
<polygon fill="white" stroke="black" points="876,-246.5 876,-276.5 992,-276.5 992,-246.5 876,-246.5"/>
<text text-anchor="start" x="884" y="-264.5" font-family="Helvetica,sans-Serif" font-size="10.00">core/biology_module</text>
<text text-anchor="middle" x="934" y="-253.5" font-family="Helvetica,sans-Serif" font-size="10.00">/biology_module.h</text>
</a>
</g>
</g>
<!-- Node2&#45;&gt;Node3 -->
<g id="edge2" class="edge"><title>Node2&#45;&gt;Node3</title>
<path fill="none" stroke="midnightblue" d="M934,-370.024C934,-342.512 934,-298.789 934,-276.525"/>
<polygon fill="midnightblue" stroke="midnightblue" points="930.5,-370.374 934,-380.374 937.5,-370.374 930.5,-370.374"/>
</g>
<!-- Node4 -->
<g id="node4" class="node"><title>Node4</title>
<g id="a_node4"><a xlink:href="biodynamo_8h.html" target="_top" xlink:title="biodynamo.h">
<polygon fill="white" stroke="black" points="867.5,-118 867.5,-137 946.5,-137 946.5,-118 867.5,-118"/>
<text text-anchor="middle" x="907" y="-125" font-family="Helvetica,sans-Serif" font-size="10.00">biodynamo.h</text>
</a>
</g>
</g>
<!-- Node2&#45;&gt;Node4 -->
<g id="edge50" class="edge"><title>Node2&#45;&gt;Node4</title>
<path fill="none" stroke="midnightblue" d="M951.477,-372.18C967.932,-349.634 991.439,-313.07 1001,-277 1004.53,-263.682 1002.9,-259.646 1001,-246 996.737,-215.343 1000.17,-204.06 982,-179 967.904,-159.555 943.867,-145.315 926.808,-137.003"/>
<polygon fill="midnightblue" stroke="midnightblue" points="948.528,-370.279 945.345,-380.384 954.135,-374.469 948.528,-370.279"/>
</g>
<!-- Node7 -->
<g id="node7" class="node"><title>Node7</title>
<g id="a_node7"><a xlink:href="sim__object_8cc.html" target="_top" xlink:title="core/sim_object/sim\l_object.cc">
<polygon fill="white" stroke="black" points="964.5,-112.5 964.5,-142.5 1077.5,-142.5 1077.5,-112.5 964.5,-112.5"/>
<text text-anchor="start" x="972.5" y="-130.5" font-family="Helvetica,sans-Serif" font-size="10.00">core/sim_object/sim</text>
<text text-anchor="middle" x="1021" y="-119.5" font-family="Helvetica,sans-Serif" font-size="10.00">_object.cc</text>
</a>
</g>
</g>
<!-- Node2&#45;&gt;Node7 -->
<g id="edge63" class="edge"><title>Node2&#45;&gt;Node7</title>
<path fill="none" stroke="midnightblue" d="M984.466,-376.75C1048.52,-351.157 1156.19,-297.153 1202,-210 1208.41,-197.804 1210.33,-189.974 1202,-179 1198.08,-173.836 1129.21,-155.606 1077.58,-142.532"/>
<polygon fill="midnightblue" stroke="midnightblue" points="982.999,-373.566 974.96,-380.468 985.548,-380.085 982.999,-373.566"/>
</g>
<!-- Node8 -->
<g id="node8" class="node"><title>Node8</title>
<g id="a_node8"><a xlink:href="cell_8h.html" target="_top" xlink:title="core/sim_object/cell.h">
<polygon fill="white" stroke="black" points="600,-319 600,-338 720,-338 720,-319 600,-319"/>
<text text-anchor="middle" x="660" y="-326" font-family="Helvetica,sans-Serif" font-size="10.00">core/sim_object/cell.h</text>
</a>
</g>
</g>
<!-- Node2&#45;&gt;Node8 -->
<g id="edge9" class="edge"><title>Node2&#45;&gt;Node8</title>
<path fill="none" stroke="midnightblue" d="M867.41,-378.703C813.525,-365.92 739.685,-348.403 696.193,-338.086"/>
<polygon fill="midnightblue" stroke="midnightblue" points="866.689,-382.129 877.227,-381.032 868.305,-375.318 866.689,-382.129"/>
</g>
<!-- Node10 -->
<g id="node10" class="node"><title>Node10</title>
<g id="a_node10"><a xlink:href="neurite__element_8h.html" target="_top" xlink:title="neuroscience/neurite\l_element.h">
<polygon fill="white" stroke="black" points="141.5,-179.5 141.5,-209.5 258.5,-209.5 258.5,-179.5 141.5,-179.5"/>
<text text-anchor="start" x="149.5" y="-197.5" font-family="Helvetica,sans-Serif" font-size="10.00">neuroscience/neurite</text>
<text text-anchor="middle" x="200" y="-186.5" font-family="Helvetica,sans-Serif" font-size="10.00">_element.h</text>
</a>
</g>
</g>
<!-- Node2&#45;&gt;Node10 -->
<g id="edge52" class="edge"><title>Node2&#45;&gt;Node10</title>
<path fill="none" stroke="midnightblue" d="M867.067,-393.078C707.189,-388.234 309.638,-367.189 219,-277 201.08,-259.169 198.742,-227.926 199.084,-209.74"/>
<polygon fill="midnightblue" stroke="midnightblue" points="867.15,-396.582 877.248,-393.374 867.354,-389.584 867.15,-396.582"/>
</g>
<!-- Node11 -->
<g id="node11" class="node"><title>Node11</title>
<g id="a_node11"><a xlink:href="default__force_8cc.html" target="_top" xlink:title="core/default_force.cc">
<polygon fill="white" stroke="black" points="0,-118 0,-137 116,-137 116,-118 0,-118"/>
<text text-anchor="middle" x="58" y="-125" font-family="Helvetica,sans-Serif" font-size="10.00">core/default_force.cc</text>
</a>
</g>
</g>
<!-- Node2&#45;&gt;Node11 -->
<g id="edge51" class="edge"><title>Node2&#45;&gt;Node11</title>
<path fill="none" stroke="midnightblue" d="M867.17,-392.78C672.62,-387.476 118.529,-370.132 90,-344 28.9181,-288.05 48.9251,-170.118 55.9843,-137.197"/>
<polygon fill="midnightblue" stroke="midnightblue" points="867.172,-396.282 877.263,-393.053 867.361,-389.284 867.172,-396.282"/>
</g>
<!-- Node16 -->
<g id="node16" class="node"><title>Node16</title>
<g id="a_node16"><a xlink:href="dividing__cell__op_8h.html" target="_top" xlink:title="core/operation/dividing\l_cell_op.h">
<polygon fill="white" stroke="black" points="363.5,-246.5 363.5,-276.5 488.5,-276.5 488.5,-246.5 363.5,-246.5"/>
<text text-anchor="start" x="371.5" y="-264.5" font-family="Helvetica,sans-Serif" font-size="10.00">core/operation/dividing</text>
<text text-anchor="middle" x="426" y="-253.5" font-family="Helvetica,sans-Serif" font-size="10.00">_cell_op.h</text>
</a>
</g>
</g>
<!-- Node2&#45;&gt;Node16 -->
<g id="edge62" class="edge"><title>Node2&#45;&gt;Node16</title>
<path fill="none" stroke="midnightblue" d="M867.225,-390.849C797.087,-385.596 684.237,-373.095 591,-344 537.474,-327.297 479.791,-295.192 448.807,-276.653"/>
<polygon fill="midnightblue" stroke="midnightblue" points="867.029,-394.344 877.255,-391.573 867.533,-387.362 867.029,-394.344"/>
</g>
<!-- Node18 -->
<g id="node18" class="node"><title>Node18</title>
<g id="a_node18"><a xlink:href="resource__manager_8h.html" target="_top" xlink:title="core/resource_manager.h">
<polygon fill="white" stroke="black" points="1265,-319 1265,-338 1405,-338 1405,-319 1265,-319"/>
<text text-anchor="middle" x="1335" y="-326" font-family="Helvetica,sans-Serif" font-size="10.00">core/resource_manager.h</text>
</a>
</g>
</g>
<!-- Node2&#45;&gt;Node18 -->
<g id="edge24" class="edge"><title>Node2&#45;&gt;Node18</title>
<path fill="none" stroke="midnightblue" d="M1000.95,-383.648C1080.13,-370.814 1210.26,-349.72 1282.51,-338.008"/>
<polygon fill="midnightblue" stroke="midnightblue" points="999.914,-380.27 990.603,-385.325 1001.03,-387.18 999.914,-380.27"/>
</g>
<!-- Node21 -->
<g id="node21" class="node"><title>Node21</title>
<g id="a_node21"><a xlink:href="in__place__exec__ctxt_8cc.html" target="_top" xlink:title="core/execution_context\l/in_place_exec_ctxt.cc">
<polygon fill="white" stroke="black" points="1592,-112.5 1592,-142.5 1720,-142.5 1720,-112.5 1592,-112.5"/>
<text text-anchor="start" x="1600" y="-130.5" font-family="Helvetica,sans-Serif" font-size="10.00">core/execution_context</text>
<text text-anchor="middle" x="1656" y="-119.5" font-family="Helvetica,sans-Serif" font-size="10.00">/in_place_exec_ctxt.cc</text>
</a>
</g>
</g>
<!-- Node2&#45;&gt;Node21 -->
<g id="edge57" class="edge"><title>Node2&#45;&gt;Node21</title>
<path fill="none" stroke="midnightblue" d="M1001.04,-392.425C1094.57,-388.409 1269.06,-376.829 1414,-344 1500.92,-324.312 1532.6,-331.643 1603,-277 1631.34,-255.007 1635.88,-243.761 1648,-210 1656.12,-187.386 1657,-159.111 1656.67,-142.505"/>
<polygon fill="midnightblue" stroke="midnightblue" points="1000.71,-388.936 990.865,-392.846 1001,-395.93 1000.71,-388.936"/>
</g>
<!-- Node24 -->
<g id="node24" class="node"><title>Node24</title>
<g id="a_node24"><a xlink:href="displacement__op__cpu_8h.html" target="_top" xlink:title="core/operation/displacement\l_op_cpu.h">
<polygon fill="white" stroke="black" points="1738,-112.5 1738,-142.5 1892,-142.5 1892,-112.5 1738,-112.5"/>
<text text-anchor="start" x="1746" y="-130.5" font-family="Helvetica,sans-Serif" font-size="10.00">core/operation/displacement</text>
<text text-anchor="middle" x="1815" y="-119.5" font-family="Helvetica,sans-Serif" font-size="10.00">_op_cpu.h</text>
</a>
</g>
</g>
<!-- Node2&#45;&gt;Node24 -->
<g id="edge61" class="edge"><title>Node2&#45;&gt;Node24</title>
<path fill="none" stroke="midnightblue" d="M1000.94,-391.455C1128.55,-385.156 1402.01,-369.145 1493,-344 1629.81,-306.193 1759.84,-184.311 1801.33,-142.631"/>
<polygon fill="midnightblue" stroke="midnightblue" points="1000.72,-387.961 990.899,-391.945 1001.06,-394.953 1000.72,-387.961"/>
</g>
<!-- Node2&#45;&gt;Node29 -->
<g id="edge53" class="edge"><title>Node2&#45;&gt;Node29</title>
<path fill="none" stroke="midnightblue" d="M867.056,-392.463C741.731,-388.036 463.365,-375.3 231,-344 226.39,-343.379 221.633,-342.646 216.861,-341.845"/>
<polygon fill="midnightblue" stroke="midnightblue" points="867.143,-395.968 877.258,-392.817 867.385,-388.972 867.143,-395.968"/>
</g>
<!-- Node30 -->
<g id="node30" class="node"><title>Node30</title>
<g id="a_node30"><a xlink:href="bound__space__op_8h.html" target="_top" xlink:title="core/operation/bound\l_space_op.h">
<polygon fill="white" stroke="black" points="1847.5,-179.5 1847.5,-209.5 1966.5,-209.5 1966.5,-179.5 1847.5,-179.5"/>
<text text-anchor="start" x="1855.5" y="-197.5" font-family="Helvetica,sans-Serif" font-size="10.00">core/operation/bound</text>
<text text-anchor="middle" x="1907" y="-186.5" font-family="Helvetica,sans-Serif" font-size="10.00">_space_op.h</text>
</a>
</g>
</g>
<!-- Node2&#45;&gt;Node30 -->
<g id="edge58" class="edge"><title>Node2&#45;&gt;Node30</title>
<path fill="none" stroke="midnightblue" d="M1000.67,-393.789C1190.66,-391.319 1725.69,-381.109 1795,-344 1851.65,-313.667 1887.9,-240.759 1901.24,-209.796"/>
<polygon fill="midnightblue" stroke="midnightblue" points="1000.49,-390.291 990.534,-393.918 1000.58,-397.29 1000.49,-390.291"/>
</g>
<!-- Node3&#45;&gt;Node4 -->
<g id="edge3" class="edge"><title>Node3&#45;&gt;Node4</title>
<path fill="none" stroke="midnightblue" d="M882.655,-241.662C868.973,-234.02 855.832,-223.682 848,-210 841.155,-198.043 842.238,-191.515 848,-179 856.739,-160.017 876.525,-145.508 890.776,-137.015"/>
<polygon fill="midnightblue" stroke="midnightblue" points="881.18,-244.839 891.674,-246.302 884.383,-238.615 881.18,-244.839"/>
</g>
<!-- Node5 -->
<g id="node5" class="node"><title>Node5</title>
<g id="a_node5"><a xlink:href="grow__divide_8h.html" target="_top" xlink:title="core/biology_module\l/grow_divide.h">
<polygon fill="white" stroke="black" points="685,-179.5 685,-209.5 801,-209.5 801,-179.5 685,-179.5"/>
<text text-anchor="start" x="693" y="-197.5" font-family="Helvetica,sans-Serif" font-size="10.00">core/biology_module</text>
<text text-anchor="middle" x="743" y="-186.5" font-family="Helvetica,sans-Serif" font-size="10.00">/grow_divide.h</text>
</a>
</g>
</g>
<!-- Node3&#45;&gt;Node5 -->
<g id="edge4" class="edge"><title>Node3&#45;&gt;Node5</title>
<path fill="none" stroke="midnightblue" d="M882.846,-243.092C852.013,-232.599 813.253,-219.408 784.363,-209.577"/>
<polygon fill="midnightblue" stroke="midnightblue" points="881.961,-246.488 892.556,-246.396 884.217,-239.861 881.961,-246.488"/>
</g>
<!-- Node6 -->
<g id="node6" class="node"><title>Node6</title>
<g id="a_node6"><a xlink:href="regulate__genes_8h.html" target="_top" xlink:title="core/biology_module\l/regulate_genes.h">
<polygon fill="white" stroke="black" points="857,-179.5 857,-209.5 973,-209.5 973,-179.5 857,-179.5"/>
<text text-anchor="start" x="865" y="-197.5" font-family="Helvetica,sans-Serif" font-size="10.00">core/biology_module</text>
<text text-anchor="middle" x="915" y="-186.5" font-family="Helvetica,sans-Serif" font-size="10.00">/regulate_genes.h</text>
</a>
</g>
</g>
<!-- Node3&#45;&gt;Node6 -->
<g id="edge6" class="edge"><title>Node3&#45;&gt;Node6</title>
<path fill="none" stroke="midnightblue" d="M927.042,-236.697C924.379,-227.587 921.429,-217.493 919.115,-209.577"/>
<polygon fill="midnightblue" stroke="midnightblue" points="923.712,-237.78 929.877,-246.396 930.431,-235.816 923.712,-237.78"/>
</g>
<!-- Node3&#45;&gt;Node7 -->
<g id="edge8" class="edge"><title>Node3&#45;&gt;Node7</title>
<path fill="none" stroke="midnightblue" d="M957.212,-239.1C965.668,-230.566 974.889,-220.324 982,-210 997.038,-188.169 1009.22,-159.643 1015.76,-142.776"/>
<polygon fill="midnightblue" stroke="midnightblue" points="954.742,-236.62 950.049,-246.119 959.641,-241.619 954.742,-236.62"/>
</g>
<!-- Node5&#45;&gt;Node4 -->
<g id="edge5" class="edge"><title>Node5&#45;&gt;Node4</title>
<path fill="none" stroke="midnightblue" d="M788.109,-175.621C819.852,-163.04 860.913,-146.766 885.536,-137.007"/>
<polygon fill="midnightblue" stroke="midnightblue" points="786.592,-172.458 778.586,-179.396 789.172,-178.965 786.592,-172.458"/>
</g>
<!-- Node6&#45;&gt;Node4 -->
<g id="edge7" class="edge"><title>Node6&#45;&gt;Node4</title>
<path fill="none" stroke="midnightblue" d="M912.015,-169.25C910.633,-158.017 909.077,-145.377 908.07,-137.195"/>
<polygon fill="midnightblue" stroke="midnightblue" points="908.569,-169.898 913.264,-179.396 915.516,-169.043 908.569,-169.898"/>
</g>
<!-- Node8&#45;&gt;Node4 -->
<g id="edge11" class="edge"><title>Node8&#45;&gt;Node4</title>
<path fill="none" stroke="midnightblue" d="M655.805,-308.832C650.005,-277.711 643.606,-215.093 676,-179 701.089,-151.046 808.35,-137.252 867.482,-131.658"/>
<polygon fill="midnightblue" stroke="midnightblue" points="652.404,-309.671 657.841,-318.764 659.261,-308.265 652.404,-309.671"/>
</g>
<!-- Node8&#45;&gt;Node5 -->
<g id="edge10" class="edge"><title>Node8&#45;&gt;Node5</title>
<path fill="none" stroke="midnightblue" d="M670.818,-310.296C687.363,-283.982 718.649,-234.227 734.019,-209.783"/>
<polygon fill="midnightblue" stroke="midnightblue" points="667.806,-308.51 665.446,-318.839 673.732,-312.237 667.806,-308.51"/>
</g>
<!-- Node9 -->
<g id="node9" class="node"><title>Node9</title>
<g id="a_node9"><a xlink:href="neuron__soma_8h.html" target="_top" xlink:title="neuroscience/neuron\l_soma.h">
<polygon fill="white" stroke="black" points="228.5,-246.5 228.5,-276.5 345.5,-276.5 345.5,-246.5 228.5,-246.5"/>
<text text-anchor="start" x="236.5" y="-264.5" font-family="Helvetica,sans-Serif" font-size="10.00">neuroscience/neuron</text>
<text text-anchor="middle" x="287" y="-253.5" font-family="Helvetica,sans-Serif" font-size="10.00">_soma.h</text>
</a>
</g>
</g>
<!-- Node8&#45;&gt;Node9 -->
<g id="edge12" class="edge"><title>Node8&#45;&gt;Node9</title>
<path fill="none" stroke="midnightblue" d="M593.113,-317.439C531.006,-307.865 436.042,-292.638 354,-277 351.311,-276.487 348.565,-275.95 345.792,-275.396"/>
<polygon fill="midnightblue" stroke="midnightblue" points="592.756,-320.925 603.172,-318.984 593.819,-314.006 592.756,-320.925"/>
</g>
<!-- Node15 -->
<g id="node15" class="node"><title>Node15</title>
<g id="a_node15"><a xlink:href="exporter_8cc.html" target="_top" xlink:title="core/exporter.cc">
<polygon fill="white" stroke="black" points="726,-252 726,-271 820,-271 820,-252 726,-252"/>
<text text-anchor="middle" x="773" y="-259" font-family="Helvetica,sans-Serif" font-size="10.00">core/exporter.cc</text>
</a>
</g>
</g>
<!-- Node8&#45;&gt;Node15 -->
<g id="edge21" class="edge"><title>Node8&#45;&gt;Node15</title>
<path fill="none" stroke="midnightblue" d="M684.138,-313.615C706.526,-300.737 739.142,-281.976 758.002,-271.127"/>
<polygon fill="midnightblue" stroke="midnightblue" points="682.163,-310.714 675.24,-318.734 685.653,-316.781 682.163,-310.714"/>
</g>
<!-- Node8&#45;&gt;Node16 -->
<g id="edge22" class="edge"><title>Node8&#45;&gt;Node16</title>
<path fill="none" stroke="midnightblue" d="M619.06,-316.128C579.389,-305.108 519.129,-288.369 476.501,-276.528"/>
<polygon fill="midnightblue" stroke="midnightblue" points="618.355,-319.564 628.927,-318.869 620.228,-312.82 618.355,-319.564"/>
</g>
<!-- Node17 -->
<g id="node17" class="node"><title>Node17</title>
<g id="a_node17"><a xlink:href="cell_8cc.html" target="_top" xlink:title="core/sim_object/cell.cc">
<polygon fill="white" stroke="black" points="506.5,-252 506.5,-271 631.5,-271 631.5,-252 506.5,-252"/>
<text text-anchor="middle" x="569" y="-259" font-family="Helvetica,sans-Serif" font-size="10.00">core/sim_object/cell.cc</text>
</a>
</g>
</g>
<!-- Node8&#45;&gt;Node17 -->
<g id="edge23" class="edge"><title>Node8&#45;&gt;Node17</title>
<path fill="none" stroke="midnightblue" d="M639.587,-312.92C621.597,-300.069 595.995,-281.782 581.078,-271.127"/>
<polygon fill="midnightblue" stroke="midnightblue" points="637.556,-315.769 647.727,-318.734 641.624,-310.073 637.556,-315.769"/>
</g>
<!-- Node9&#45;&gt;Node10 -->
<g id="edge13" class="edge"><title>Node9&#45;&gt;Node10</title>
<path fill="none" stroke="midnightblue" d="M259.786,-240.168C246.482,-230.228 230.804,-218.514 218.841,-209.577"/>
<polygon fill="midnightblue" stroke="midnightblue" points="258.016,-243.215 268.122,-246.396 262.206,-237.607 258.016,-243.215"/>
</g>
<!-- Node12 -->
<g id="node12" class="node"><title>Node12</title>
<g id="a_node12"><a xlink:href="neuron__or__neurite_8cc.html" target="_top" xlink:title="neuroscience/neuron\l_or_neurite.cc">
<polygon fill="white" stroke="black" points="134.5,-112.5 134.5,-142.5 251.5,-142.5 251.5,-112.5 134.5,-112.5"/>
<text text-anchor="start" x="142.5" y="-130.5" font-family="Helvetica,sans-Serif" font-size="10.00">neuroscience/neuron</text>
<text text-anchor="middle" x="193" y="-119.5" font-family="Helvetica,sans-Serif" font-size="10.00">_or_neurite.cc</text>
</a>
</g>
</g>
<!-- Node9&#45;&gt;Node12 -->
<g id="edge18" class="edge"><title>Node9&#45;&gt;Node12</title>
<path fill="none" stroke="midnightblue" d="M285.573,-235.889C283.534,-218.653 278.645,-195.794 267,-179 256.187,-163.407 238.874,-151.207 223.712,-142.707"/>
<polygon fill="midnightblue" stroke="midnightblue" points="282.129,-236.652 286.545,-246.283 289.099,-236 282.129,-236.652"/>
</g>
<!-- Node13 -->
<g id="node13" class="node"><title>Node13</title>
<g id="a_node13"><a xlink:href="neuron__soma_8cc.html" target="_top" xlink:title="neuroscience/neuron\l_soma.cc">
<polygon fill="white" stroke="black" points="444.5,-112.5 444.5,-142.5 561.5,-142.5 561.5,-112.5 444.5,-112.5"/>
<text text-anchor="start" x="452.5" y="-130.5" font-family="Helvetica,sans-Serif" font-size="10.00">neuroscience/neuron</text>
<text text-anchor="middle" x="503" y="-119.5" font-family="Helvetica,sans-Serif" font-size="10.00">_soma.cc</text>
</a>
</g>
</g>
<!-- Node9&#45;&gt;Node13 -->
<g id="edge19" class="edge"><title>Node9&#45;&gt;Node13</title>
<path fill="none" stroke="midnightblue" d="M318.695,-241.131C362.704,-214.237 441.269,-166.224 480.05,-142.525"/>
<polygon fill="midnightblue" stroke="midnightblue" points="316.824,-238.173 310.116,-246.374 320.474,-244.146 316.824,-238.173"/>
</g>
<!-- Node14 -->
<g id="node14" class="node"><title>Node14</title>
<g id="a_node14"><a xlink:href="neuroscience_8h.html" target="_top" xlink:title="neuroscience/neuroscience.h">
<polygon fill="white" stroke="black" points="270,-118 270,-137 426,-137 426,-118 270,-118"/>
<text text-anchor="middle" x="348" y="-125" font-family="Helvetica,sans-Serif" font-size="10.00">neuroscience/neuroscience.h</text>
</a>
</g>
</g>
<!-- Node9&#45;&gt;Node14 -->
<g id="edge20" class="edge"><title>Node9&#45;&gt;Node14</title>
<path fill="none" stroke="midnightblue" d="M297.813,-237.1C311.61,-207.246 334.79,-157.085 344.027,-137.097"/>
<polygon fill="midnightblue" stroke="midnightblue" points="294.546,-235.828 293.528,-246.374 300.9,-238.764 294.546,-235.828"/>
</g>
<!-- Node10&#45;&gt;Node11 -->
<g id="edge14" class="edge"><title>Node10&#45;&gt;Node11</title>
<path fill="none" stroke="midnightblue" d="M159.872,-175.131C132.54,-162.62 97.6287,-146.64 76.5845,-137.007"/>
<polygon fill="midnightblue" stroke="midnightblue" points="158.639,-178.416 169.188,-179.396 161.552,-172.051 158.639,-178.416"/>
</g>
<!-- Node10&#45;&gt;Node12 -->
<g id="edge15" class="edge"><title>Node10&#45;&gt;Node12</title>
<path fill="none" stroke="midnightblue" d="M197.405,-169.403C196.432,-160.37 195.359,-150.408 194.516,-142.577"/>
<polygon fill="midnightblue" stroke="midnightblue" points="193.93,-169.828 198.481,-179.396 200.89,-169.079 193.93,-169.828"/>
</g>
<!-- Node10&#45;&gt;Node13 -->
<g id="edge16" class="edge"><title>Node10&#45;&gt;Node13</title>
<path fill="none" stroke="midnightblue" d="M268.767,-178.748C321.73,-167.386 394.149,-151.851 444.383,-141.075"/>
<polygon fill="midnightblue" stroke="midnightblue" points="267.824,-175.371 258.781,-180.89 269.292,-182.215 267.824,-175.371"/>
</g>
<!-- Node10&#45;&gt;Node14 -->
<g id="edge17" class="edge"><title>Node10&#45;&gt;Node14</title>
<path fill="none" stroke="midnightblue" d="M241.451,-175.295C269.992,-162.76 306.601,-146.682 328.63,-137.007"/>
<polygon fill="midnightblue" stroke="midnightblue" points="239.862,-172.17 232.114,-179.396 242.677,-178.579 239.862,-172.17"/>
</g>
<!-- Node18&#45;&gt;Node4 -->
<g id="edge41" class="edge"><title>Node18&#45;&gt;Node4</title>
<path fill="none" stroke="midnightblue" d="M1325.23,-310.251C1306.15,-278.331 1260.59,-210.444 1202,-179 1104.25,-126.539 1063.29,-167.107 955,-143 947.692,-141.373 939.878,-139.203 932.721,-137.038"/>
<polygon fill="midnightblue" stroke="midnightblue" points="1322.23,-312.049 1330.29,-318.922 1328.28,-308.521 1322.23,-312.049"/>
</g>
<!-- Node18&#45;&gt;Node7 -->
<g id="edge47" class="edge"><title>Node18&#45;&gt;Node7</title>
<path fill="none" stroke="midnightblue" d="M1332.82,-308.612C1328.06,-276.649 1313.72,-212.145 1273,-179 1207.7,-125.844 1169.46,-160.035 1087,-143 1083.9,-142.359 1080.72,-141.692 1077.51,-141.012"/>
<polygon fill="midnightblue" stroke="midnightblue" points="1329.38,-309.343 1334.16,-318.797 1336.32,-308.425 1329.38,-309.343"/>
</g>
<!-- Node18&#45;&gt;Node13 -->
<g id="edge49" class="edge"><title>Node18&#45;&gt;Node13</title>
<path fill="none" stroke="midnightblue" d="M1254.75,-324.34C1139.91,-318.889 935.068,-305.45 867,-277 846.89,-268.595 848.553,-255.631 829,-246 766.333,-215.132 741.958,-233.011 676,-210 621.612,-191.025 561.482,-160.335 528.375,-142.525"/>
<polygon fill="midnightblue" stroke="midnightblue" points="1254.74,-327.843 1264.89,-324.812 1255.06,-320.851 1254.74,-327.843"/>
</g>
<!-- Node18&#45;&gt;Node15 -->
<g id="edge43" class="edge"><title>Node18&#45;&gt;Node15</title>
<path fill="none" stroke="midnightblue" d="M1254.65,-322.703C1155.33,-316.017 981.368,-301.829 834,-277 824.661,-275.427 814.625,-273.248 805.444,-271.057"/>
<polygon fill="midnightblue" stroke="midnightblue" points="1254.7,-326.214 1264.91,-323.385 1255.16,-319.23 1254.7,-326.214"/>
</g>
<!-- Node19 -->
<g id="node19" class="node"><title>Node19</title>
<g id="a_node19"><a xlink:href="sim__object__vector_8h.html" target="_top" xlink:title="core/container/sim\l_object_vector.h">
<polygon fill="white" stroke="black" points="1439,-246.5 1439,-276.5 1545,-276.5 1545,-246.5 1439,-246.5"/>
<text text-anchor="start" x="1447" y="-264.5" font-family="Helvetica,sans-Serif" font-size="10.00">core/container/sim</text>
<text text-anchor="middle" x="1492" y="-253.5" font-family="Helvetica,sans-Serif" font-size="10.00">_object_vector.h</text>
</a>
</g>
</g>
<!-- Node18&#45;&gt;Node19 -->
<g id="edge25" class="edge"><title>Node18&#45;&gt;Node19</title>
<path fill="none" stroke="midnightblue" d="M1365.4,-314.913C1391.99,-303.906 1430.55,-287.942 1458.12,-276.528"/>
<polygon fill="midnightblue" stroke="midnightblue" points="1363.75,-311.809 1355.85,-318.869 1366.43,-318.277 1363.75,-311.809"/>
</g>
<!-- Node20 -->
<g id="node20" class="node"><title>Node20</title>
<g id="a_node20"><a xlink:href="grid_8h.html" target="_top" xlink:title="core/grid.h">
<polygon fill="white" stroke="black" points="1416,-185 1416,-204 1484,-204 1484,-185 1416,-185"/>
<text text-anchor="middle" x="1450" y="-192" font-family="Helvetica,sans-Serif" font-size="10.00">core/grid.h</text>
</a>
</g>
</g>
<!-- Node18&#45;&gt;Node20 -->
<g id="edge38" class="edge"><title>Node18&#45;&gt;Node20</title>
<path fill="none" stroke="midnightblue" d="M1352.23,-311.928C1362.66,-302.228 1376.02,-289.294 1387,-277 1409.4,-251.925 1432.87,-219.725 1443.77,-204.389"/>
<polygon fill="midnightblue" stroke="midnightblue" points="1349.6,-309.598 1344.6,-318.941 1354.33,-314.753 1349.6,-309.598"/>
</g>
<!-- Node18&#45;&gt;Node21 -->
<g id="edge42" class="edge"><title>Node18&#45;&gt;Node21</title>
<path fill="none" stroke="midnightblue" d="M1415.33,-317.794C1474.59,-309.31 1549.07,-295.456 1574,-277 1620.87,-242.305 1644.29,-172.445 1652.5,-142.571"/>
<polygon fill="midnightblue" stroke="midnightblue" points="1414.63,-314.358 1405.21,-319.212 1415.6,-321.29 1414.63,-314.358"/>
</g>
<!-- Node22 -->
<g id="node22" class="node"><title>Node22</title>
<g id="a_node22"><a xlink:href="diffusion__op_8h.html" target="_top" xlink:title="core/operation/diffusion_op.h">
<polygon fill="white" stroke="black" points="1380.5,-118 1380.5,-137 1535.5,-137 1535.5,-118 1380.5,-118"/>
<text text-anchor="middle" x="1458" y="-125" font-family="Helvetica,sans-Serif" font-size="10.00">core/operation/diffusion_op.h</text>
</a>
</g>
</g>
<!-- Node18&#45;&gt;Node22 -->
<g id="edge44" class="edge"><title>Node18&#45;&gt;Node22</title>
<path fill="none" stroke="midnightblue" d="M1415.35,-319.407C1470.46,-312.004 1536.65,-298.81 1554,-277 1593.66,-227.152 1505.96,-160.55 1471.3,-137.103"/>
<polygon fill="midnightblue" stroke="midnightblue" points="1414.67,-315.966 1405.2,-320.723 1415.57,-322.908 1414.67,-315.966"/>
</g>
<!-- Node23 -->
<g id="node23" class="node"><title>Node23</title>
<g id="a_node23"><a xlink:href="scheduler_8cc.html" target="_top" xlink:title="core/scheduler.cc">
<polygon fill="white" stroke="black" points="1811,-0.5 1811,-19.5 1911,-19.5 1911,-0.5 1811,-0.5"/>
<text text-anchor="middle" x="1861" y="-7.5" font-family="Helvetica,sans-Serif" font-size="10.00">core/scheduler.cc</text>
</a>
</g>
</g>
<!-- Node18&#45;&gt;Node23 -->
<g id="edge46" class="edge"><title>Node18&#45;&gt;Node23</title>
<path fill="none" stroke="midnightblue" d="M1414.86,-317.499C1468.79,-309.524 1541.15,-296.431 1603,-277 1620.32,-271.559 1891.14,-158.242 1901,-143 1922,-110.533 1914.74,-92.1426 1901,-56 1895.28,-40.9535 1881.97,-27.7254 1872.27,-19.5728"/>
<polygon fill="midnightblue" stroke="midnightblue" points="1414.07,-314.078 1404.67,-318.977 1415.07,-321.005 1414.07,-314.078"/>
</g>
<!-- Node26 -->
<g id="node26" class="node"><title>Node26</title>
<g id="a_node26"><a xlink:href="resource__manager_8cc.html" target="_top" xlink:title="core/resource_manager.cc">
<polygon fill="white" stroke="black" points="1096,-118 1096,-137 1240,-137 1240,-118 1096,-118"/>
<text text-anchor="middle" x="1168" y="-125" font-family="Helvetica,sans-Serif" font-size="10.00">core/resource_manager.cc</text>
</a>
</g>
</g>
<!-- Node18&#45;&gt;Node26 -->
<g id="edge45" class="edge"><title>Node18&#45;&gt;Node26</title>
<path fill="none" stroke="midnightblue" d="M1337.57,-308.731C1340.69,-277.922 1342.17,-216.327 1311,-179 1297.2,-162.479 1242.7,-146.462 1205.11,-137.044"/>
<polygon fill="midnightblue" stroke="midnightblue" points="1334.07,-308.573 1336.36,-318.916 1341.02,-309.4 1334.07,-308.573"/>
</g>
<!-- Node27 -->
<g id="node27" class="node"><title>Node27</title>
<g id="a_node27"><a xlink:href="simulation_8cc.html" target="_top" xlink:title="core/simulation.cc">
<polygon fill="white" stroke="black" points="1258,-118 1258,-137 1362,-137 1362,-118 1258,-118"/>
<text text-anchor="middle" x="1310" y="-125" font-family="Helvetica,sans-Serif" font-size="10.00">core/simulation.cc</text>
</a>
</g>
</g>
<!-- Node18&#45;&gt;Node27 -->
<g id="edge48" class="edge"><title>Node18&#45;&gt;Node27</title>
<path fill="none" stroke="midnightblue" d="M1341.54,-308.981C1350.61,-280.303 1364.28,-223.787 1349,-179 1343.21,-162.016 1329.13,-146.304 1319.57,-137.056"/>
<polygon fill="midnightblue" stroke="midnightblue" points="1338.09,-308.243 1338.24,-318.837 1344.73,-310.461 1338.09,-308.243"/>
</g>
<!-- Node28 -->
<g id="node28" class="node"><title>Node28</title>
<g id="a_node28"><a xlink:href="model__initializer_8h.html" target="_top" xlink:title="core/model_initializer.h">
<polygon fill="white" stroke="black" points="1067,-185 1067,-204 1193,-204 1193,-185 1067,-185"/>
<text text-anchor="middle" x="1130" y="-192" font-family="Helvetica,sans-Serif" font-size="10.00">core/model_initializer.h</text>
</a>
</g>
</g>
<!-- Node18&#45;&gt;Node28 -->
<g id="edge39" class="edge"><title>Node18&#45;&gt;Node28</title>
<path fill="none" stroke="midnightblue" d="M1302.57,-315.185C1280.25,-306.066 1250.34,-292.561 1226,-277 1190.82,-254.506 1154.7,-220.21 1138.62,-204.244"/>
<polygon fill="midnightblue" stroke="midnightblue" points="1301.36,-318.469 1311.95,-318.937 1303.96,-311.971 1301.36,-318.469"/>
</g>
<!-- Node19&#45;&gt;Node20 -->
<g id="edge26" class="edge"><title>Node19&#45;&gt;Node20</title>
<path fill="none" stroke="midnightblue" d="M1477.45,-237.974C1469.92,-226.332 1461.18,-212.799 1455.62,-204.195"/>
<polygon fill="midnightblue" stroke="midnightblue" points="1474.52,-239.896 1482.89,-246.396 1480.4,-236.097 1474.52,-239.896"/>
</g>
<!-- Node20&#45;&gt;Node4 -->
<g id="edge27" class="edge"><title>Node20&#45;&gt;Node4</title>
<path fill="none" stroke="midnightblue" d="M1405.48,-190.059C1300.68,-181.781 1040.78,-160.167 955,-143 947.488,-141.497 939.469,-139.314 932.179,-137.096"/>
<polygon fill="midnightblue" stroke="midnightblue" points="1405.48,-193.569 1415.72,-190.864 1406.03,-186.591 1405.48,-193.569"/>
</g>
<!-- Node20&#45;&gt;Node7 -->
<g id="edge36" class="edge"><title>Node20&#45;&gt;Node7</title>
<path fill="none" stroke="midnightblue" d="M1405.82,-188.482C1337.3,-180.445 1201.38,-163.488 1087,-143 1084,-142.462 1080.92,-141.884 1077.83,-141.279"/>
<polygon fill="midnightblue" stroke="midnightblue" points="1405.49,-191.967 1415.83,-189.648 1406.3,-185.014 1405.49,-191.967"/>
</g>
<!-- Node20&#45;&gt;Node21 -->
<g id="edge28" class="edge"><title>Node20&#45;&gt;Node21</title>
<path fill="none" stroke="midnightblue" d="M1487.16,-181.775C1522.09,-170.753 1574.41,-154.244 1611.54,-142.528"/>
<polygon fill="midnightblue" stroke="midnightblue" points="1485.84,-178.522 1477.36,-184.869 1487.94,-185.197 1485.84,-178.522"/>
</g>
<!-- Node20&#45;&gt;Node22 -->
<g id="edge29" class="edge"><title>Node20&#45;&gt;Node22</title>
<path fill="none" stroke="midnightblue" d="M1452.33,-174.537C1453.86,-162.17 1455.77,-146.62 1456.94,-137.127"/>
<polygon fill="midnightblue" stroke="midnightblue" points="1448.83,-174.381 1451.08,-184.734 1455.77,-175.236 1448.83,-174.381"/>
</g>
<!-- Node20&#45;&gt;Node24 -->
<g id="edge31" class="edge"><title>Node20&#45;&gt;Node24</title>
<path fill="none" stroke="midnightblue" d="M1493.97,-185.669C1554.3,-174.926 1663.68,-155.448 1737.81,-142.246"/>
<polygon fill="midnightblue" stroke="midnightblue" points="1493.24,-182.244 1484.01,-187.443 1494.47,-189.136 1493.24,-182.244"/>
</g>
<!-- Node25 -->
<g id="node25" class="node"><title>Node25</title>
<g id="a_node25"><a xlink:href="displacement__op_8h.html" target="_top" xlink:title="core/operation/displacement_op.h">
<polygon fill="white" stroke="black" points="1712,-56.5 1712,-75.5 1892,-75.5 1892,-56.5 1712,-56.5"/>
<text text-anchor="middle" x="1802" y="-63.5" font-family="Helvetica,sans-Serif" font-size="10.00">core/operation/displacement_op.h</text>
</a>
</g>
</g>
<!-- Node20&#45;&gt;Node25 -->
<g id="edge34" class="edge"><title>Node20&#45;&gt;Node25</title>
<path fill="none" stroke="midnightblue" d="M1477.3,-180.462C1496.46,-170.919 1522.43,-157.206 1544,-143 1562.49,-130.823 1562.94,-121.374 1583,-112 1623.88,-92.8976 1672.79,-81.8647 1714.01,-75.5116"/>
<polygon fill="midnightblue" stroke="midnightblue" points="1475.65,-177.372 1468.22,-184.923 1478.74,-183.654 1475.65,-177.372"/>
</g>
<!-- Node20&#45;&gt;Node26 -->
<g id="edge35" class="edge"><title>Node20&#45;&gt;Node26</title>
<path fill="none" stroke="midnightblue" d="M1406.15,-183.392C1350.97,-170.673 1257.15,-149.05 1205.27,-137.091"/>
<polygon fill="midnightblue" stroke="midnightblue" points="1405.45,-186.824 1415.98,-185.659 1407.03,-180.003 1405.45,-186.824"/>
</g>
<!-- Node20&#45;&gt;Node27 -->
<g id="edge37" class="edge"><title>Node20&#45;&gt;Node27</title>
<path fill="none" stroke="midnightblue" d="M1422.24,-180.613C1394.51,-167.739 1352.66,-148.306 1328.67,-137.167"/>
<polygon fill="midnightblue" stroke="midnightblue" points="1420.87,-183.832 1431.41,-184.869 1423.81,-177.483 1420.87,-183.832"/>
</g>
<!-- Node22&#45;&gt;Node23 -->
<g id="edge30" class="edge"><title>Node22&#45;&gt;Node23</title>
<path fill="none" stroke="midnightblue" d="M1497.55,-115.082C1545.98,-101.112 1630.5,-76.7553 1703,-56 1747.56,-43.244 1799.21,-28.5504 1831,-19.5188"/>
<polygon fill="midnightblue" stroke="midnightblue" points="1496.42,-111.765 1487.79,-117.9 1498.36,-118.491 1496.42,-111.765"/>
</g>
<!-- Node24&#45;&gt;Node25 -->
<g id="edge32" class="edge"><title>Node24&#45;&gt;Node25</title>
<path fill="none" stroke="midnightblue" d="M1809.78,-102.593C1807.7,-93.0768 1805.44,-82.73 1803.89,-75.6578"/>
<polygon fill="midnightblue" stroke="midnightblue" points="1806.37,-103.377 1811.92,-112.399 1813.2,-101.883 1806.37,-103.377"/>
</g>
<!-- Node25&#45;&gt;Node23 -->
<g id="edge33" class="edge"><title>Node25&#45;&gt;Node23</title>
<path fill="none" stroke="midnightblue" d="M1818.89,-49.5372C1829.41,-39.9087 1842.57,-27.8694 1851.35,-19.8339"/>
<polygon fill="midnightblue" stroke="midnightblue" points="1816.49,-46.9905 1811.48,-56.324 1821.22,-52.1542 1816.49,-46.9905"/>
</g>
<!-- Node28&#45;&gt;Node4 -->
<g id="edge40" class="edge"><title>Node28&#45;&gt;Node4</title>
<path fill="none" stroke="midnightblue" d="M1089.96,-182.099C1054.46,-171.954 1001.23,-156.653 955,-143 948.571,-141.102 941.667,-139.033 935.156,-137.069"/>
<polygon fill="midnightblue" stroke="midnightblue" points="1089.35,-185.565 1099.93,-184.945 1091.28,-178.834 1089.35,-185.565"/>
</g>
<!-- Node29&#45;&gt;Node9 -->
<g id="edge55" class="edge"><title>Node29&#45;&gt;Node9</title>
<path fill="none" stroke="midnightblue" d="M195.007,-308.853C215.403,-298.576 240.312,-286.025 259.064,-276.577"/>
<polygon fill="midnightblue" stroke="midnightblue" points="193.347,-305.77 185.991,-313.396 196.496,-312.022 193.347,-305.77"/>
</g>
<!-- Node29&#45;&gt;Node10 -->
<g id="edge54" class="edge"><title>Node29&#45;&gt;Node10</title>
<path fill="none" stroke="midnightblue" d="M165.556,-303.754C174.294,-276.291 188.39,-231.987 195.538,-209.525"/>
<polygon fill="midnightblue" stroke="midnightblue" points="162.192,-302.783 162.495,-313.374 168.862,-304.906 162.192,-302.783"/>
</g>
<!-- Node29&#45;&gt;Node12 -->
<g id="edge56" class="edge"><title>Node29&#45;&gt;Node12</title>
<path fill="none" stroke="midnightblue" d="M145.593,-303.923C131.463,-273.632 112.684,-220.068 132,-179 139.256,-163.573 153.795,-151.243 166.858,-142.629"/>
<polygon fill="midnightblue" stroke="midnightblue" points="142.614,-305.799 150.145,-313.251 148.905,-302.729 142.614,-305.799"/>
</g>
<!-- Node30&#45;&gt;Node23 -->
<g id="edge60" class="edge"><title>Node30&#45;&gt;Node23</title>
<path fill="none" stroke="midnightblue" d="M1922.34,-170.541C1927.05,-162.226 1931.61,-152.529 1934,-143 1943.4,-105.493 1952.85,-89.7614 1934,-56 1924.06,-38.1908 1903.85,-26.5554 1887.21,-19.5863"/>
<polygon fill="midnightblue" stroke="midnightblue" points="1919.25,-168.89 1917.07,-179.26 1925.24,-172.51 1919.25,-168.89"/>
</g>
<!-- Node30&#45;&gt;Node24 -->
<g id="edge59" class="edge"><title>Node30&#45;&gt;Node24</title>
<path fill="none" stroke="midnightblue" d="M1878.62,-173.451C1864.47,-163.452 1847.69,-151.6 1834.92,-142.577"/>
<polygon fill="midnightblue" stroke="midnightblue" points="1876.85,-176.484 1887.04,-179.396 1880.89,-170.767 1876.85,-176.484"/>
</g>
</g>
</svg>
