<?xml version="1.0" encoding="UTF-8" standalone="no"?>
<!DOCTYPE svg PUBLIC "-//W3C//DTD SVG 1.1//EN"
 "http://www.w3.org/Graphics/SVG/1.1/DTD/svg11.dtd">
<!-- Generated by graphviz version 2.40.1 (20161225.0304)
 -->
<!-- Title: core/util/spinlock.h Pages: 1 -->
<svg width="3651pt" height="687pt"
 viewBox="0.00 0.00 3650.50 687.00" xmlns="http://www.w3.org/2000/svg" xmlns:xlink="http://www.w3.org/1999/xlink">
<g id="graph0" class="graph" transform="scale(1 1) rotate(0) translate(4 683)">
<title>core/util/spinlock.h</title>
<polygon fill="#ffffff" stroke="transparent" points="-4,4 -4,-683 3646.5,-683 3646.5,4 -4,4"/>
<!-- Node2 -->
<g id="node1" class="node">
<title>Node2</title>
<polygon fill="#bfbfbf" stroke="#000000" points="2637,-659.5 2637,-678.5 2735,-678.5 2735,-659.5 2637,-659.5"/>
<text text-anchor="middle" x="2686" y="-666.5" font-family="Helvetica,sans-Serif" font-size="10.00" fill="#000000">core/util/spinlock.h</text>
</g>
<!-- Node3 -->
<g id="node2" class="node">
<title>Node3</title>
<g id="a_node2"><a xlink:href="in__place__exec__ctxt_8h.html" target="_top" xlink:title="core/execution_context\l/in_place_exec_ctxt.h">
<polygon fill="#ffffff" stroke="#000000" points="838,-525.5 838,-555.5 956,-555.5 956,-525.5 838,-525.5"/>
<text text-anchor="start" x="846" y="-543.5" font-family="Helvetica,sans-Serif" font-size="10.00" fill="#000000">core/execution_context</text>
<text text-anchor="middle" x="897" y="-532.5" font-family="Helvetica,sans-Serif" font-size="10.00" fill="#000000">/in_place_exec_ctxt.h</text>
</a>
</g>
</g>
<!-- Node2&#45;&gt;Node3 -->
<g id="edge1" class="edge">
<title>Node2&#45;&gt;Node3</title>
<path fill="none" stroke="#191970" d="M2626.7462,-668.6972C2354.5534,-667.1182 1230.8451,-658.4869 1078,-623 1018.7951,-609.2541 955.4462,-575.4147 921.6348,-555.6074"/>
<polygon fill="#191970" stroke="#191970" points="2626.8001,-672.1974 2636.8199,-668.7546 2626.8401,-665.1975 2626.8001,-672.1974"/>
</g>
<!-- Node5 -->
<g id="node4" class="node">
<title>Node5</title>
<g id="a_node4"><a xlink:href="sim__object_8h.html" target="_top" xlink:title="core/sim_object/sim\l_object.h">
<polygon fill="#ffffff" stroke="#000000" points="1377,-391.5 1377,-421.5 1481,-421.5 1481,-391.5 1377,-391.5"/>
<text text-anchor="start" x="1385" y="-409.5" font-family="Helvetica,sans-Serif" font-size="10.00" fill="#000000">core/sim_object/sim</text>
<text text-anchor="middle" x="1429" y="-398.5" font-family="Helvetica,sans-Serif" font-size="10.00" fill="#000000">_object.h</text>
</a>
</g>
</g>
<!-- Node2&#45;&gt;Node5 -->
<g id="edge136" class="edge">
<title>Node2&#45;&gt;Node5</title>
<path fill="none" stroke="#191970" d="M2626.6516,-665.6443C2376.6224,-650.9139 1417.9455,-588.2593 1331,-489 1307.7,-462.4001 1351.1472,-437.0173 1387.4172,-421.6008"/>
<polygon fill="#191970" stroke="#191970" points="2626.4486,-669.1383 2636.6362,-666.2292 2626.858,-662.1503 2626.4486,-669.1383"/>
</g>
<!-- Node31 -->
<g id="node26" class="node">
<title>Node31</title>
<g id="a_node26"><a xlink:href="uniform__grid__environment_8h.html" target="_top" xlink:title="core/environment/uniform\l_grid_environment.h">
<polygon fill="#ffffff" stroke="#000000" points="2553.5,-190.5 2553.5,-220.5 2680.5,-220.5 2680.5,-190.5 2553.5,-190.5"/>
<text text-anchor="start" x="2561.5" y="-208.5" font-family="Helvetica,sans-Serif" font-size="10.00" fill="#000000">core/environment/uniform</text>
<text text-anchor="middle" x="2617" y="-197.5" font-family="Helvetica,sans-Serif" font-size="10.00" fill="#000000">_grid_environment.h</text>
</a>
</g>
</g>
<!-- Node2&#45;&gt;Node31 -->
<g id="edge138" class="edge">
<title>Node2&#45;&gt;Node31</title>
<path fill="none" stroke="#191970" d="M2710.0899,-653.8405C2722.7774,-645.3987 2738.2959,-634.3272 2751,-623 2834.4179,-548.6231 2905.9345,-486.5723 2848,-391 2830.0694,-361.4206 2796.9306,-384.5794 2779,-355 2756.1588,-317.3197 2820.4492,-292.2416 2794,-257 2780.1205,-238.5065 2725.5161,-224.4822 2680.5836,-215.7739"/>
<polygon fill="#191970" stroke="#191970" points="2707.8952,-651.0933 2701.4324,-659.4888 2711.7201,-656.9559 2707.8952,-651.0933"/>
</g>
<!-- Node47 -->
<g id="node38" class="node">
<title>Node47</title>
<g id="a_node38"><a xlink:href="memory__manager_8h.html" target="_top" xlink:title="core/memory/memory\l_manager.h">
<polygon fill="#ffffff" stroke="#000000" points="2630,-592.5 2630,-622.5 2742,-622.5 2742,-592.5 2630,-592.5"/>
<text text-anchor="start" x="2638" y="-610.5" font-family="Helvetica,sans-Serif" font-size="10.00" fill="#000000">core/memory/memory</text>
<text text-anchor="middle" x="2686" y="-599.5" font-family="Helvetica,sans-Serif" font-size="10.00" fill="#000000">_manager.h</text>
</a>
</g>
</g>
<!-- Node2&#45;&gt;Node47 -->
<g id="edge86" class="edge">
<title>Node2&#45;&gt;Node47</title>
<path fill="none" stroke="#191970" d="M2686,-649.3693C2686,-640.681 2686,-630.6241 2686,-622.5446"/>
<polygon fill="#191970" stroke="#191970" points="2682.5001,-649.3906 2686,-659.3906 2689.5001,-649.3907 2682.5001,-649.3906"/>
</g>
<!-- Node53 -->
<g id="node44" class="node">
<title>Node53</title>
<g id="a_node44"><a xlink:href="so__uid__generator_8h.html" target="_top" xlink:title="core/sim_object/so\l_uid_generator.h">
<polygon fill="#ffffff" stroke="#000000" points="3398.5,-458.5 3398.5,-488.5 3497.5,-488.5 3497.5,-458.5 3398.5,-458.5"/>
<text text-anchor="start" x="3406.5" y="-476.5" font-family="Helvetica,sans-Serif" font-size="10.00" fill="#000000">core/sim_object/so</text>
<text text-anchor="middle" x="3448" y="-465.5" font-family="Helvetica,sans-Serif" font-size="10.00" fill="#000000">_uid_generator.h</text>
</a>
</g>
</g>
<!-- Node2&#45;&gt;Node53 -->
<g id="edge137" class="edge">
<title>Node2&#45;&gt;Node53</title>
<path fill="none" stroke="#191970" d="M2745.3757,-664.8761C2845.6797,-657.5274 3044.361,-641.2182 3112,-623 3233.1419,-590.371 3366.2753,-519.7508 3421.6174,-488.686"/>
<polygon fill="#191970" stroke="#191970" points="2744.8265,-661.4067 2735.1065,-665.6223 2745.3339,-668.3883 2744.8265,-661.4067"/>
</g>
<!-- Node4 -->
<g id="node3" class="node">
<title>Node4</title>
<g id="a_node3"><a xlink:href="so__pointer_8h.html" target="_top" xlink:title="core/sim_object/so\l_pointer.h">
<polygon fill="#ffffff" stroke="#000000" points="1339.5,-458.5 1339.5,-488.5 1438.5,-488.5 1438.5,-458.5 1339.5,-458.5"/>
<text text-anchor="start" x="1347.5" y="-476.5" font-family="Helvetica,sans-Serif" font-size="10.00" fill="#000000">core/sim_object/so</text>
<text text-anchor="middle" x="1389" y="-465.5" font-family="Helvetica,sans-Serif" font-size="10.00" fill="#000000">_pointer.h</text>
</a>
</g>
</g>
<!-- Node3&#45;&gt;Node4 -->
<g id="edge2" class="edge">
<title>Node3&#45;&gt;Node4</title>
<path fill="none" stroke="#191970" d="M966.4198,-531.0465C1067.1257,-517.3325 1251.3067,-492.2509 1339.4436,-480.2485"/>
<polygon fill="#191970" stroke="#191970" points="965.7829,-527.6008 956.3467,-532.4182 966.7275,-534.5368 965.7829,-527.6008"/>
</g>
<!-- Node12 -->
<g id="node11" class="node">
<title>Node12</title>
<g id="a_node11"><a xlink:href="sim__object_8cc.html" target="_top" xlink:title="core/sim_object/sim\l_object.cc">
<polygon fill="#ffffff" stroke="#000000" points="1080,-190.5 1080,-220.5 1184,-220.5 1184,-190.5 1080,-190.5"/>
<text text-anchor="start" x="1088" y="-208.5" font-family="Helvetica,sans-Serif" font-size="10.00" fill="#000000">core/sim_object/sim</text>
<text text-anchor="middle" x="1132" y="-197.5" font-family="Helvetica,sans-Serif" font-size="10.00" fill="#000000">_object.cc</text>
</a>
</g>
</g>
<!-- Node3&#45;&gt;Node12 -->
<g id="edge84" class="edge">
<title>Node3&#45;&gt;Node12</title>
<path fill="none" stroke="#191970" d="M882.1907,-516.7287C851.1392,-463.5409 787.158,-333.606 851,-257 879.5772,-222.7093 1006.8899,-211.1791 1079.9631,-207.3552"/>
<polygon fill="#191970" stroke="#191970" points="879.2645,-518.6553 887.3929,-525.4509 885.2764,-515.0696 879.2645,-518.6553"/>
</g>
<!-- Node13 -->
<g id="node12" class="node">
<title>Node13</title>
<g id="a_node12"><a xlink:href="cell_8h.html" target="_top" xlink:title="core/sim_object/cell.h">
<polygon fill="#ffffff" stroke="#000000" points="616,-330 616,-349 728,-349 728,-330 616,-330"/>
<text text-anchor="middle" x="672" y="-337" font-family="Helvetica,sans-Serif" font-size="10.00" fill="#000000">core/sim_object/cell.h</text>
</a>
</g>
</g>
<!-- Node3&#45;&gt;Node13 -->
<g id="edge81" class="edge">
<title>Node3&#45;&gt;Node13</title>
<path fill="none" stroke="#191970" d="M828.1614,-530.1277C798.8072,-522.7673 765.8926,-510.2461 742,-489 697.4539,-449.388 679.0843,-375.4522 673.7617,-349.1188"/>
<polygon fill="#191970" stroke="#191970" points="827.4261,-533.5502 837.9616,-532.4312 829.0277,-526.7359 827.4261,-533.5502"/>
</g>
<!-- Node18 -->
<g id="node17" class="node">
<title>Node18</title>
<g id="a_node17"><a xlink:href="scheduler_8cc.html" target="_top" xlink:title="core/scheduler.cc">
<polygon fill="#ffffff" stroke="#000000" points="2359,-62 2359,-81 2453,-81 2453,-62 2359,-62"/>
<text text-anchor="middle" x="2406" y="-69" font-family="Helvetica,sans-Serif" font-size="10.00" fill="#000000">core/scheduler.cc</text>
</a>
</g>
</g>
<!-- Node3&#45;&gt;Node18 -->
<g id="edge83" class="edge">
<title>Node3&#45;&gt;Node18</title>
<path fill="none" stroke="#191970" d="M852.3141,-520.8587C811.0136,-499.3227 756,-460.5009 756,-406.5 756,-406.5 756,-406.5 756,-272.5 756,-183.0723 1098.842,-129.8951 1143,-123 1384.0831,-85.356 2159.3368,-74.2514 2358.833,-71.9837"/>
<polygon fill="#191970" stroke="#191970" points="850.9145,-524.0727 861.4197,-525.4475 854.0648,-517.8216 850.9145,-524.0727"/>
</g>
<!-- Node19 -->
<g id="node18" class="node">
<title>Node19</title>
<g id="a_node18"><a xlink:href="simulation_8cc.html" target="_top" xlink:title="core/simulation.cc">
<polygon fill="#ffffff" stroke="#000000" points="3142,-62 3142,-81 3238,-81 3238,-62 3142,-62"/>
<text text-anchor="middle" x="3190" y="-69" font-family="Helvetica,sans-Serif" font-size="10.00" fill="#000000">core/simulation.cc</text>
</a>
</g>
</g>
<!-- Node3&#45;&gt;Node19 -->
<g id="edge85" class="edge">
<title>Node3&#45;&gt;Node19</title>
<path fill="none" stroke="#191970" d="M966.2829,-534.8028C1340.9359,-503.9829 3108.0237,-358.4603 3114,-355 3152.5686,-332.6687 3171,-317.0671 3171,-272.5 3171,-272.5 3171,-272.5 3171,-205.5 3171,-158.5068 3182.5967,-103.1534 3187.6702,-81.1849"/>
<polygon fill="#191970" stroke="#191970" points="965.8062,-531.3301 956.1268,-535.6382 966.3801,-538.3066 965.8062,-531.3301"/>
</g>
<!-- Node32 -->
<g id="node27" class="node">
<title>Node32</title>
<g id="a_node27"><a xlink:href="in__place__exec__ctxt_8cc.html" target="_top" xlink:title="core/execution_context\l/in_place_exec_ctxt.cc">
<polygon fill="#ffffff" stroke="#000000" points="1569,-190.5 1569,-220.5 1687,-220.5 1687,-190.5 1569,-190.5"/>
<text text-anchor="start" x="1577" y="-208.5" font-family="Helvetica,sans-Serif" font-size="10.00" fill="#000000">core/execution_context</text>
<text text-anchor="middle" x="1628" y="-197.5" font-family="Helvetica,sans-Serif" font-size="10.00" fill="#000000">/in_place_exec_ctxt.cc</text>
</a>
</g>
</g>
<!-- Node3&#45;&gt;Node32 -->
<g id="edge82" class="edge">
<title>Node3&#45;&gt;Node32</title>
<path fill="none" stroke="#191970" d="M955.2885,-522.4005C1088.5334,-480.8284 1407.3743,-380.1591 1452,-355 1469.7672,-344.9832 1570.5019,-256.4224 1611.0716,-220.5199"/>
<polygon fill="#191970" stroke="#191970" points="954.146,-519.0904 945.6411,-525.4083 956.2296,-525.7732 954.146,-519.0904"/>
</g>
<!-- Node4&#45;&gt;Node5 -->
<g id="edge3" class="edge">
<title>Node4&#45;&gt;Node5</title>
<path fill="none" stroke="#191970" d="M1403.3381,-449.4837C1408.8808,-440.1996 1415.0558,-429.8565 1419.9593,-421.6432"/>
<polygon fill="#191970" stroke="#191970" points="1400.1976,-447.9163 1398.0766,-458.2967 1406.2079,-451.5046 1400.1976,-447.9163"/>
</g>
<!-- Node41 -->
<g id="node34" class="node">
<title>Node41</title>
<g id="a_node34"><a xlink:href="neuron__or__neurite_8h.html" target="_top" xlink:title="neuroscience/neuron\l_or_neurite.h">
<polygon fill="#ffffff" stroke="#ff0000" points="1335.5,-324.5 1335.5,-354.5 1442.5,-354.5 1442.5,-324.5 1335.5,-324.5"/>
<text text-anchor="start" x="1343.5" y="-342.5" font-family="Helvetica,sans-Serif" font-size="10.00" fill="#000000">neuroscience/neuron</text>
<text text-anchor="middle" x="1389" y="-331.5" font-family="Helvetica,sans-Serif" font-size="10.00" fill="#000000">_or_neurite.h</text>
</a>
</g>
</g>
<!-- Node4&#45;&gt;Node41 -->
<g id="edge80" class="edge">
<title>Node4&#45;&gt;Node41</title>
<path fill="none" stroke="#191970" d="M1376.769,-449.0361C1373.2044,-440.6746 1369.7891,-431.126 1368,-422 1365.3494,-408.4796 1365.3494,-404.5204 1368,-391 1370.4892,-378.303 1376.1262,-364.7879 1380.9337,-354.7899"/>
<polygon fill="#191970" stroke="#191970" points="1373.613,-450.5513 1380.9337,-458.2101 1379.987,-447.6577 1373.613,-450.5513"/>
</g>
<!-- Node6 -->
<g id="node5" class="node">
<title>Node6</title>
<g id="a_node5"><a xlink:href="biology__module_8h.html" target="_top" xlink:title="core/biology_module\l/biology_module.h">
<polygon fill="#ffffff" stroke="#000000" points="386,-324.5 386,-354.5 492,-354.5 492,-324.5 386,-324.5"/>
<text text-anchor="start" x="394" y="-342.5" font-family="Helvetica,sans-Serif" font-size="10.00" fill="#000000">core/biology_module</text>
<text text-anchor="middle" x="439" y="-331.5" font-family="Helvetica,sans-Serif" font-size="10.00" fill="#000000">/biology_module.h</text>
</a>
</g>
</g>
<!-- Node5&#45;&gt;Node6 -->
<g id="edge4" class="edge">
<title>Node5&#45;&gt;Node6</title>
<path fill="none" stroke="#191970" d="M1366.2093,-403.1979C1228.5947,-395.8223 890.0935,-376.9228 607,-355 568.5979,-352.0261 525.3197,-348.0176 492.3075,-344.8221"/>
<polygon fill="#191970" stroke="#191970" points="1366.3785,-406.7119 1376.5511,-403.7508 1366.7523,-399.7219 1366.3785,-406.7119"/>
</g>
<!-- Node7 -->
<g id="node6" class="node">
<title>Node7</title>
<g id="a_node6"><a xlink:href="biodynamo_8h.html" target="_top" xlink:title="biodynamo.h">
<polygon fill="#ffffff" stroke="#000000" points="758,-.5 758,-19.5 830,-19.5 830,-.5 758,-.5"/>
<text text-anchor="middle" x="794" y="-7.5" font-family="Helvetica,sans-Serif" font-size="10.00" fill="#000000">biodynamo.h</text>
</a>
</g>
</g>
<!-- Node5&#45;&gt;Node7 -->
<g id="edge63" class="edge">
<title>Node5&#45;&gt;Node7</title>
<path fill="none" stroke="#191970" d="M1374.9468,-387.3259C1358.0255,-379.3336 1340.3161,-368.6665 1327,-355 1298.6965,-325.9518 1288,-313.0572 1288,-272.5 1288,-272.5 1288,-272.5 1288,-138.5 1288,-43.9004 944.4082,-17.7144 830.325,-11.6271"/>
<polygon fill="#191970" stroke="#191970" points="1373.6771,-390.5923 1384.2336,-391.4929 1376.5428,-384.2058 1373.6771,-390.5923"/>
</g>
<!-- Node5&#45;&gt;Node12 -->
<g id="edge76" class="edge">
<title>Node5&#45;&gt;Node12</title>
<path fill="none" stroke="#191970" d="M1366.9632,-401.0158C1326.6458,-394.9283 1274.6003,-382.0866 1236,-355 1185.532,-319.5856 1151.6064,-251.3806 1138.3043,-220.8874"/>
<polygon fill="#191970" stroke="#191970" points="1366.5547,-404.4927 1376.9453,-402.4225 1367.5316,-397.5612 1366.5547,-404.4927"/>
</g>
<!-- Node5&#45;&gt;Node13 -->
<g id="edge15" class="edge">
<title>Node5&#45;&gt;Node13</title>
<path fill="none" stroke="#191970" d="M1366.9547,-401.0085C1222.7087,-388.2417 866.5674,-356.7206 728.223,-344.4761"/>
<polygon fill="#191970" stroke="#191970" points="1366.6987,-404.4995 1376.9683,-401.8948 1367.3159,-397.5267 1366.6987,-404.4995"/>
</g>
<!-- Node15 -->
<g id="node14" class="node">
<title>Node15</title>
<g id="a_node14"><a xlink:href="neurite__element_8h.html" target="_top" xlink:title="neuroscience/neurite\l_element.h">
<polygon fill="#ffffff" stroke="#ff0000" points="1398.5,-190.5 1398.5,-220.5 1505.5,-220.5 1505.5,-190.5 1398.5,-190.5"/>
<text text-anchor="start" x="1406.5" y="-208.5" font-family="Helvetica,sans-Serif" font-size="10.00" fill="#000000">neuroscience/neurite</text>
<text text-anchor="middle" x="1452" y="-197.5" font-family="Helvetica,sans-Serif" font-size="10.00" fill="#000000">_element.h</text>
</a>
</g>
</g>
<!-- Node5&#45;&gt;Node15 -->
<g id="edge64" class="edge">
<title>Node5&#45;&gt;Node15</title>
<path fill="none" stroke="#191970" d="M1442.3881,-382.1504C1446.2917,-373.7967 1450.0339,-364.2238 1452,-355 1462.2806,-306.7693 1457.301,-247.7801 1454.05,-220.5696"/>
<polygon fill="#191970" stroke="#191970" points="1439.1549,-380.7914 1437.8282,-391.3029 1445.4203,-383.913 1439.1549,-380.7914"/>
</g>
<!-- Node20 -->
<g id="node19" class="node">
<title>Node20</title>
<g id="a_node19"><a xlink:href="default__force_8cc.html" target="_top" xlink:title="core/default_force.cc">
<polygon fill="#ffffff" stroke="#000000" points="1152,-129 1152,-148 1260,-148 1260,-129 1152,-129"/>
<text text-anchor="middle" x="1206" y="-136" font-family="Helvetica,sans-Serif" font-size="10.00" fill="#000000">core/default_force.cc</text>
</a>
</g>
</g>
<!-- Node5&#45;&gt;Node20 -->
<g id="edge68" class="edge">
<title>Node5&#45;&gt;Node20</title>
<path fill="none" stroke="#191970" d="M1367.1766,-392.0923C1330.0443,-382.3012 1287.4624,-368.6857 1274,-355 1214.3237,-294.3337 1206.941,-181.9124 1206.0908,-148.2618"/>
<polygon fill="#191970" stroke="#191970" points="1366.4185,-395.5113 1376.976,-394.6229 1368.1688,-388.7337 1366.4185,-395.5113"/>
</g>
<!-- Node27 -->
<g id="node22" class="node">
<title>Node27</title>
<g id="a_node22"><a xlink:href="dividing__cell__op_8h.html" target="_top" xlink:title="core/operation/dividing\l_cell_op.h">
<polygon fill="#ffffff" stroke="#ff0000" points="860,-257.5 860,-287.5 974,-287.5 974,-257.5 860,-257.5"/>
<text text-anchor="start" x="868" y="-275.5" font-family="Helvetica,sans-Serif" font-size="10.00" fill="#000000">core/operation/dividing</text>
<text text-anchor="middle" x="917" y="-264.5" font-family="Helvetica,sans-Serif" font-size="10.00" fill="#000000">_cell_op.h</text>
</a>
</g>
</g>
<!-- Node5&#45;&gt;Node27 -->
<g id="edge75" class="edge">
<title>Node5&#45;&gt;Node27</title>
<path fill="none" stroke="#191970" d="M1366.9495,-394.5684C1318.5146,-384.9087 1249.6603,-370.4153 1190,-355 1109.2239,-334.1287 1016.5098,-304.9909 962.5677,-287.5108"/>
<polygon fill="#191970" stroke="#191970" points="1366.4745,-398.0423 1376.9644,-396.5549 1367.8365,-391.1761 1366.4745,-398.0423"/>
</g>
<!-- Node29 -->
<g id="node24" class="node">
<title>Node29</title>
<g id="a_node24"><a xlink:href="resource__manager_8h.html" target="_top" xlink:title="core/resource_manager.h">
<polygon fill="#ffffff" stroke="#ff0000" points="2304.5,-330 2304.5,-349 2431.5,-349 2431.5,-330 2304.5,-330"/>
<text text-anchor="middle" x="2368" y="-337" font-family="Helvetica,sans-Serif" font-size="10.00" fill="#000000">core/resource_manager.h</text>
</a>
</g>
</g>
<!-- Node5&#45;&gt;Node29 -->
<g id="edge32" class="edge">
<title>Node5&#45;&gt;Node29</title>
<path fill="none" stroke="#191970" d="M1491.4159,-403.1451C1624.3814,-395.8352 1945.3784,-377.323 2214,-355 2243.7246,-352.5298 2276.6249,-349.2877 2304.3587,-346.4075"/>
<polygon fill="#191970" stroke="#191970" points="1491.2043,-399.6513 1481.4109,-403.6934 1491.5875,-406.6408 1491.2043,-399.6513"/>
</g>
<!-- Node30 -->
<g id="node25" class="node">
<title>Node30</title>
<g id="a_node25"><a xlink:href="environment_8h.html" target="_top" xlink:title="core/environment/environment.h">
<polygon fill="#ffffff" stroke="#ff0000" points="2016,-263 2016,-282 2172,-282 2172,-263 2016,-263"/>
<text text-anchor="middle" x="2094" y="-270" font-family="Helvetica,sans-Serif" font-size="10.00" fill="#000000">core/environment/environment.h</text>
</a>
</g>
</g>
<!-- Node5&#45;&gt;Node30 -->
<g id="edge62" class="edge">
<title>Node5&#45;&gt;Node30</title>
<path fill="none" stroke="#191970" d="M1490.9436,-395.0676C1545.9131,-384.8415 1628.3772,-369.3028 1700,-355 1827.1289,-329.6129 1976.8934,-297.6999 2049.7394,-282.0482"/>
<polygon fill="#191970" stroke="#191970" points="1490.2006,-391.6457 1481.0084,-396.9137 1491.4795,-398.5279 1490.2006,-391.6457"/>
</g>
<!-- Node5&#45;&gt;Node32 -->
<g id="edge69" class="edge">
<title>Node5&#45;&gt;Node32</title>
<path fill="none" stroke="#191970" d="M1490.221,-387.6233C1508.5107,-379.7514 1527.5226,-369.0801 1542,-355 1576.7681,-321.1861 1564.8334,-298.4589 1590,-257 1597.7262,-244.2721 1607.7755,-230.7584 1615.5991,-220.7688"/>
<polygon fill="#191970" stroke="#191970" points="1488.6868,-384.4691 1480.7504,-391.4879 1491.3316,-390.9503 1488.6868,-384.4691"/>
</g>
<!-- Node34 -->
<g id="node29" class="node">
<title>Node34</title>
<g id="a_node29"><a xlink:href="displacement__op_8h.html" target="_top" xlink:title="core/operation/displacement_op.h">
<polygon fill="#ffffff" stroke="#ff0000" points="1788.5,-196 1788.5,-215 1951.5,-215 1951.5,-196 1788.5,-196"/>
<text text-anchor="middle" x="1870" y="-203" font-family="Helvetica,sans-Serif" font-size="10.00" fill="#000000">core/operation/displacement_op.h</text>
</a>
</g>
</g>
<!-- Node5&#45;&gt;Node34 -->
<g id="edge74" class="edge">
<title>Node5&#45;&gt;Node34</title>
<path fill="none" stroke="#191970" d="M1490.9378,-392.818C1516.4799,-384.9096 1545.1483,-372.8742 1567,-355 1606.7111,-322.5172 1586.0035,-286.4685 1628,-257 1654.5033,-238.4029 1733.7098,-223.8499 1794.3587,-215.0269"/>
<polygon fill="#191970" stroke="#191970" points="1489.9257,-389.4674 1481.3223,-395.6505 1491.9038,-396.1821 1489.9257,-389.4674"/>
</g>
<!-- Node5&#45;&gt;Node41 -->
<g id="edge65" class="edge">
<title>Node5&#45;&gt;Node41</title>
<path fill="none" stroke="#191970" d="M1414.6619,-382.4837C1409.1192,-373.1996 1402.9442,-362.8565 1398.0407,-354.6432"/>
<polygon fill="#191970" stroke="#191970" points="1411.7921,-384.5046 1419.9234,-391.2967 1417.8024,-380.9163 1411.7921,-384.5046"/>
</g>
<!-- Node42 -->
<g id="node35" class="node">
<title>Node42</title>
<g id="a_node35"><a xlink:href="bound__space__op_8h.html" target="_top" xlink:title="core/operation/bound\l_space_op.h">
<polygon fill="#ffffff" stroke="#ff0000" points="1890.5,-257.5 1890.5,-287.5 1997.5,-287.5 1997.5,-257.5 1890.5,-257.5"/>
<text text-anchor="start" x="1898.5" y="-275.5" font-family="Helvetica,sans-Serif" font-size="10.00" fill="#000000">core/operation/bound</text>
<text text-anchor="middle" x="1944" y="-264.5" font-family="Helvetica,sans-Serif" font-size="10.00" fill="#000000">_space_op.h</text>
</a>
</g>
</g>
<!-- Node5&#45;&gt;Node42 -->
<g id="edge70" class="edge">
<title>Node5&#45;&gt;Node42</title>
<path fill="none" stroke="#191970" d="M1491.0665,-390.3507C1593.0632,-363.8117 1794.3802,-311.4302 1890.4896,-286.4231"/>
<polygon fill="#191970" stroke="#191970" points="1490.0115,-387.0085 1481.2151,-392.9139 1491.7742,-393.783 1490.0115,-387.0085"/>
</g>
<!-- Node43 -->
<g id="node36" class="node">
<title>Node43</title>
<g id="a_node36"><a xlink:href="helper_8h.html" target="_top" xlink:title="core/visualization\l/paraview/helper.h">
<polygon fill="#ffffff" stroke="#ff0000" points="3009,-324.5 3009,-354.5 3105,-354.5 3105,-324.5 3009,-324.5"/>
<text text-anchor="start" x="3017" y="-342.5" font-family="Helvetica,sans-Serif" font-size="10.00" fill="#000000">core/visualization</text>
<text text-anchor="middle" x="3057" y="-331.5" font-family="Helvetica,sans-Serif" font-size="10.00" fill="#000000">/paraview/helper.h</text>
</a>
</g>
</g>
<!-- Node5&#45;&gt;Node43 -->
<g id="edge77" class="edge">
<title>Node5&#45;&gt;Node43</title>
<path fill="none" stroke="#191970" d="M1491.3519,-405.0319C1737.0443,-399.1413 2638.7011,-376.5026 2924,-355 2952.1647,-352.8773 2983.5537,-349.278 3008.7623,-346.082"/>
<polygon fill="#191970" stroke="#191970" points="1491.088,-401.5371 1481.1746,-405.2753 1491.2554,-408.5351 1491.088,-401.5371"/>
</g>
<!-- Node6&#45;&gt;Node7 -->
<g id="edge5" class="edge">
<title>Node6&#45;&gt;Node7</title>
<path fill="none" stroke="#191970" d="M376.1473,-325.4735C351.5656,-317.5971 324.4307,-305.6783 304,-288 272.2535,-260.5304 258,-247.4812 258,-205.5 258,-205.5 258,-205.5 258,-138.5 258,-35.3915 637.8214,-14.8179 757.9992,-10.8889"/>
<polygon fill="#191970" stroke="#191970" points="375.1942,-328.8419 385.7798,-328.4005 377.2294,-322.1443 375.1942,-328.8419"/>
</g>
<!-- Node8 -->
<g id="node7" class="node">
<title>Node8</title>
<g id="a_node7"><a xlink:href="chemotaxis_8h.html" target="_top" xlink:title="core/biology_module\l/chemotaxis.h">
<polygon fill="#ffffff" stroke="#000000" points="124,-257.5 124,-287.5 230,-287.5 230,-257.5 124,-257.5"/>
<text text-anchor="start" x="132" y="-275.5" font-family="Helvetica,sans-Serif" font-size="10.00" fill="#000000">core/biology_module</text>
<text text-anchor="middle" x="177" y="-264.5" font-family="Helvetica,sans-Serif" font-size="10.00" fill="#000000">/chemotaxis.h</text>
</a>
</g>
</g>
<!-- Node6&#45;&gt;Node8 -->
<g id="edge6" class="edge">
<title>Node6&#45;&gt;Node8</title>
<path fill="none" stroke="#191970" d="M376.147,-323.4269C331.6477,-312.0473 272.6091,-296.9497 230.3897,-286.1531"/>
<polygon fill="#191970" stroke="#191970" points="375.425,-326.8548 385.9804,-325.9416 377.1593,-320.0731 375.425,-326.8548"/>
</g>
<!-- Node9 -->
<g id="node8" class="node">
<title>Node9</title>
<g id="a_node8"><a xlink:href="grow__divide_8h.html" target="_top" xlink:title="core/biology_module\l/grow_divide.h">
<polygon fill="#ffffff" stroke="#000000" points="448,-257.5 448,-287.5 554,-287.5 554,-257.5 448,-257.5"/>
<text text-anchor="start" x="456" y="-275.5" font-family="Helvetica,sans-Serif" font-size="10.00" fill="#000000">core/biology_module</text>
<text text-anchor="middle" x="501" y="-264.5" font-family="Helvetica,sans-Serif" font-size="10.00" fill="#000000">/grow_divide.h</text>
</a>
</g>
</g>
<!-- Node6&#45;&gt;Node9 -->
<g id="edge8" class="edge">
<title>Node6&#45;&gt;Node9</title>
<path fill="none" stroke="#191970" d="M459.89,-316.9253C468.8129,-307.2828 478.9907,-296.2843 486.9869,-287.6432"/>
<polygon fill="#191970" stroke="#191970" points="457.2918,-314.5798 453.0688,-324.2967 462.4296,-319.3342 457.2918,-314.5798"/>
</g>
<!-- Node10 -->
<g id="node9" class="node">
<title>Node10</title>
<g id="a_node9"><a xlink:href="regulate__genes_8h.html" target="_top" xlink:title="core/biology_module\l/regulate_genes.h">
<polygon fill="#ffffff" stroke="#000000" points="0,-257.5 0,-287.5 106,-287.5 106,-257.5 0,-257.5"/>
<text text-anchor="start" x="8" y="-275.5" font-family="Helvetica,sans-Serif" font-size="10.00" fill="#000000">core/biology_module</text>
<text text-anchor="middle" x="53" y="-264.5" font-family="Helvetica,sans-Serif" font-size="10.00" fill="#000000">/regulate_genes.h</text>
</a>
</g>
</g>
<!-- Node6&#45;&gt;Node10 -->
<g id="edge10" class="edge">
<title>Node6&#45;&gt;Node10</title>
<path fill="none" stroke="#191970" d="M375.9183,-330.1437C296.2323,-318.2076 163.6337,-297.9246 115,-288 112.0648,-287.401 109.0591,-286.756 106.0304,-286.0812"/>
<polygon fill="#191970" stroke="#191970" points="375.434,-333.6101 385.8418,-331.6279 376.4695,-326.6871 375.434,-333.6101"/>
</g>
<!-- Node11 -->
<g id="node10" class="node">
<title>Node11</title>
<g id="a_node10"><a xlink:href="secretion_8h.html" target="_top" xlink:title="core/biology_module\l/secretion.h">
<polygon fill="#ffffff" stroke="#000000" points="324,-257.5 324,-287.5 430,-287.5 430,-257.5 324,-257.5"/>
<text text-anchor="start" x="332" y="-275.5" font-family="Helvetica,sans-Serif" font-size="10.00" fill="#000000">core/biology_module</text>
<text text-anchor="middle" x="377" y="-264.5" font-family="Helvetica,sans-Serif" font-size="10.00" fill="#000000">/secretion.h</text>
</a>
</g>
</g>
<!-- Node6&#45;&gt;Node11 -->
<g id="edge12" class="edge">
<title>Node6&#45;&gt;Node11</title>
<path fill="none" stroke="#191970" d="M418.11,-316.9253C409.1871,-307.2828 399.0093,-296.2843 391.0131,-287.6432"/>
<polygon fill="#191970" stroke="#191970" points="415.5704,-319.3342 424.9312,-324.2967 420.7082,-314.5798 415.5704,-319.3342"/>
</g>
<!-- Node6&#45;&gt;Node12 -->
<g id="edge14" class="edge">
<title>Node6&#45;&gt;Node12</title>
<path fill="none" stroke="#191970" d="M376.051,-322.2656C333.3817,-307.6185 289.0837,-284.6014 315,-257 341.236,-229.0582 903.5382,-211.6348 1079.7073,-206.8468"/>
<polygon fill="#191970" stroke="#191970" points="375.0801,-325.6308 385.6733,-325.4436 377.2754,-318.984 375.0801,-325.6308"/>
</g>
<!-- Node8&#45;&gt;Node7 -->
<g id="edge7" class="edge">
<title>Node8&#45;&gt;Node7</title>
<path fill="none" stroke="#191970" d="M176.4314,-247.2837C176.9039,-201.0742 185.2315,-103.2386 244,-56 283.9557,-23.8833 641.4458,-13.3173 757.6718,-10.7148"/>
<polygon fill="#191970" stroke="#191970" points="172.9314,-247.3548 176.4472,-257.3493 179.9314,-247.3437 172.9314,-247.3548"/>
</g>
<!-- Node9&#45;&gt;Node7 -->
<g id="edge9" class="edge">
<title>Node9&#45;&gt;Node7</title>
<path fill="none" stroke="#191970" d="M500.995,-247.3064C502.4369,-201.8979 512.3555,-106.375 568,-56 595.4573,-31.1429 701.2547,-18.1894 757.8271,-12.9162"/>
<polygon fill="#191970" stroke="#191970" points="497.4926,-247.3945 500.7903,-257.463 504.4912,-247.5356 497.4926,-247.3945"/>
</g>
<!-- Node10&#45;&gt;Node7 -->
<g id="edge11" class="edge">
<title>Node10&#45;&gt;Node7</title>
<path fill="none" stroke="#191970" d="M62.8327,-248.1364C83.1412,-201.4074 134.5731,-99.935 214,-56 261.5092,-29.7203 638.3136,-15.1367 757.7901,-11.1395"/>
<polygon fill="#191970" stroke="#191970" points="59.5464,-246.9211 58.8662,-257.494 65.9914,-249.6529 59.5464,-246.9211"/>
</g>
<!-- Node11&#45;&gt;Node7 -->
<g id="edge13" class="edge">
<title>Node11&#45;&gt;Node7</title>
<path fill="none" stroke="#191970" d="M387.6504,-248.1635C409.0691,-202.3381 461.9822,-103.5852 539,-56 575.0695,-33.7146 696.2767,-19.3077 757.6869,-13.2596"/>
<polygon fill="#191970" stroke="#191970" points="384.423,-246.8051 383.4472,-257.3549 390.789,-249.7162 384.423,-246.8051"/>
</g>
<!-- Node13&#45;&gt;Node7 -->
<g id="edge19" class="edge">
<title>Node13&#45;&gt;Node7</title>
<path fill="none" stroke="#191970" d="M642.933,-324.9715C628.2407,-316.1956 611.3725,-303.667 601,-288 580.2287,-256.6263 582,-243.1265 582,-205.5 582,-205.5 582,-205.5 582,-138.5 582,-57.3718 696.942,-26.0475 757.5559,-15.1691"/>
<polygon fill="#191970" stroke="#191970" points="641.2955,-328.0663 651.7224,-329.9452 644.743,-321.9741 641.2955,-328.0663"/>
</g>
<!-- Node13&#45;&gt;Node8 -->
<g id="edge16" class="edge">
<title>Node13&#45;&gt;Node8</title>
<path fill="none" stroke="#191970" d="M605.7885,-330.538C506.5695,-317.1084 321.269,-292.0273 230.2417,-279.7065"/>
<polygon fill="#191970" stroke="#191970" points="605.32,-334.0065 615.6991,-331.8795 606.259,-327.0697 605.32,-334.0065"/>
</g>
<!-- Node13&#45;&gt;Node9 -->
<g id="edge17" class="edge">
<title>Node13&#45;&gt;Node9</title>
<path fill="none" stroke="#191970" d="M637.9774,-326.1695C609.5196,-315.0194 568.9413,-299.1203 539.3391,-287.5218"/>
<polygon fill="#191970" stroke="#191970" points="636.9122,-329.5112 647.4999,-329.9005 639.4659,-322.9936 636.9122,-329.5112"/>
</g>
<!-- Node13&#45;&gt;Node11 -->
<g id="edge18" class="edge">
<title>Node13&#45;&gt;Node11</title>
<path fill="none" stroke="#191970" d="M617.2232,-327.8368C569.9447,-317.664 499.8607,-302.3307 439,-288 436.0841,-287.3134 433.0935,-286.5992 430.0766,-285.8709"/>
<polygon fill="#191970" stroke="#191970" points="616.7374,-331.3122 627.2495,-329.9903 618.2075,-324.4683 616.7374,-331.3122"/>
</g>
<!-- Node14 -->
<g id="node13" class="node">
<title>Node14</title>
<g id="a_node13"><a xlink:href="neuron__soma_8h.html" target="_top" xlink:title="neuroscience/neuron\l_soma.h">
<polygon fill="#ffffff" stroke="#ff0000" points="1316.5,-257.5 1316.5,-287.5 1423.5,-287.5 1423.5,-257.5 1316.5,-257.5"/>
<text text-anchor="start" x="1324.5" y="-275.5" font-family="Helvetica,sans-Serif" font-size="10.00" fill="#000000">neuroscience/neuron</text>
<text text-anchor="middle" x="1370" y="-264.5" font-family="Helvetica,sans-Serif" font-size="10.00" fill="#000000">_soma.h</text>
</a>
</g>
</g>
<!-- Node13&#45;&gt;Node14 -->
<g id="edge20" class="edge">
<title>Node13&#45;&gt;Node14</title>
<path fill="none" stroke="#191970" d="M738.2888,-333.6514C842.2519,-324.4081 1049.9679,-305.655 1226,-288 1255.8976,-285.0014 1289.2605,-281.4249 1316.3388,-278.4633"/>
<polygon fill="#191970" stroke="#191970" points="737.9042,-330.1717 728.2531,-334.5428 738.5236,-337.1442 737.9042,-330.1717"/>
</g>
<!-- Node24 -->
<g id="node20" class="node">
<title>Node24</title>
<g id="a_node20"><a xlink:href="exporter_8cc.html" target="_top" xlink:title="core/exporter.cc">
<polygon fill="#ffffff" stroke="#000000" points="1670.5,-263 1670.5,-282 1757.5,-282 1757.5,-263 1670.5,-263"/>
<text text-anchor="middle" x="1714" y="-270" font-family="Helvetica,sans-Serif" font-size="10.00" fill="#000000">core/exporter.cc</text>
</a>
</g>
</g>
<!-- Node13&#45;&gt;Node24 -->
<g id="edge28" class="edge">
<title>Node13&#45;&gt;Node24</title>
<path fill="none" stroke="#191970" d="M738.1691,-335.2454C934.0348,-322.6513 1507.3712,-285.7861 1670.3368,-275.3075"/>
<polygon fill="#191970" stroke="#191970" points="737.7772,-331.7632 728.0224,-335.8978 738.2265,-338.7488 737.7772,-331.7632"/>
</g>
<!-- Node25 -->
<g id="node21" class="node">
<title>Node25</title>
<g id="a_node21"><a xlink:href="displacement__op__cuda_8h.html" target="_top" xlink:title="core/operation/displacement\l_op_cuda.h">
<polygon fill="#ffffff" stroke="#ff0000" points="2058.5,-123.5 2058.5,-153.5 2197.5,-153.5 2197.5,-123.5 2058.5,-123.5"/>
<text text-anchor="start" x="2066.5" y="-141.5" font-family="Helvetica,sans-Serif" font-size="10.00" fill="#000000">core/operation/displacement</text>
<text text-anchor="middle" x="2128" y="-130.5" font-family="Helvetica,sans-Serif" font-size="10.00" fill="#000000">_op_cuda.h</text>
</a>
</g>
</g>
<!-- Node13&#45;&gt;Node25 -->
<g id="edge29" class="edge">
<title>Node13&#45;&gt;Node25</title>
<path fill="none" stroke="#191970" d="M738.2782,-336.5766C825.9419,-331.6355 984.7924,-318.9461 1117,-288 1242.5214,-258.6189 1263.8421,-216.5151 1390,-190 1516.3975,-163.4345 1899.7092,-146.8234 2058.2313,-140.9226"/>
<polygon fill="#191970" stroke="#191970" points="738,-333.0865 728.2062,-337.1277 738.3825,-340.076 738,-333.0865"/>
</g>
<!-- Node13&#45;&gt;Node27 -->
<g id="edge30" class="edge">
<title>Node13&#45;&gt;Node27</title>
<path fill="none" stroke="#191970" d="M716.5252,-327.3237C757.3869,-316.1493 818.0579,-299.5576 861.9469,-287.5553"/>
<polygon fill="#191970" stroke="#191970" points="715.5649,-323.9577 706.8423,-329.9717 717.4114,-330.7098 715.5649,-323.9577"/>
</g>
<!-- Node28 -->
<g id="node23" class="node">
<title>Node28</title>
<g id="a_node23"><a xlink:href="cell_8cc.html" target="_top" xlink:title="core/sim_object/cell.cc">
<polygon fill="#ffffff" stroke="#000000" points="610.5,-263 610.5,-282 727.5,-282 727.5,-263 610.5,-263"/>
<text text-anchor="middle" x="669" y="-270" font-family="Helvetica,sans-Serif" font-size="10.00" fill="#000000">core/sim_object/cell.cc</text>
</a>
</g>
</g>
<!-- Node13&#45;&gt;Node28 -->
<g id="edge31" class="edge">
<title>Node13&#45;&gt;Node28</title>
<path fill="none" stroke="#191970" d="M671.1093,-319.6079C670.5544,-307.214 669.8654,-291.8263 669.429,-282.0817"/>
<polygon fill="#191970" stroke="#191970" points="667.6263,-320.0671 671.5702,-329.9005 674.6193,-319.754 667.6263,-320.0671"/>
</g>
<!-- Node14&#45;&gt;Node15 -->
<g id="edge21" class="edge">
<title>Node14&#45;&gt;Node15</title>
<path fill="none" stroke="#191970" d="M1396.5817,-250.7808C1408.6278,-240.9383 1422.5767,-229.541 1433.4666,-220.6432"/>
<polygon fill="#191970" stroke="#191970" points="1394.1363,-248.2591 1388.6071,-257.2967 1398.5654,-253.6797 1394.1363,-248.2591"/>
</g>
<!-- Node16 -->
<g id="node15" class="node">
<title>Node16</title>
<g id="a_node15"><a xlink:href="root_2adaptor_8h.html" target="_top" xlink:title="core/visualization\l/root/adaptor.h">
<polygon fill="#ffffff" stroke="#000000" points="2810,-123.5 2810,-153.5 2902,-153.5 2902,-123.5 2810,-123.5"/>
<text text-anchor="start" x="2818" y="-141.5" font-family="Helvetica,sans-Serif" font-size="10.00" fill="#000000">core/visualization</text>
<text text-anchor="middle" x="2856" y="-130.5" font-family="Helvetica,sans-Serif" font-size="10.00" fill="#000000">/root/adaptor.h</text>
</a>
</g>
</g>
<!-- Node15&#45;&gt;Node16 -->
<g id="edge22" class="edge">
<title>Node15&#45;&gt;Node16</title>
<path fill="none" stroke="#191970" d="M1515.6187,-195.2602C1530.1696,-193.2272 1545.593,-191.3166 1560,-190 1810.1713,-167.1383 2608.7662,-145.0061 2809.7484,-139.6987"/>
<polygon fill="#191970" stroke="#191970" points="1515.1094,-191.7973 1505.7075,-196.6814 1516.1031,-198.7264 1515.1094,-191.7973"/>
</g>
<!-- Node15&#45;&gt;Node20 -->
<g id="edge27" class="edge">
<title>Node15&#45;&gt;Node20</title>
<path fill="none" stroke="#191970" d="M1388.5387,-188.2158C1341.5567,-175.4199 1279.3009,-158.4641 1240.9815,-148.0275"/>
<polygon fill="#191970" stroke="#191970" points="1387.7499,-191.6284 1398.3182,-190.8794 1389.5895,-184.8744 1387.7499,-191.6284"/>
</g>
<!-- Node17 -->
<g id="node16" class="node">
<title>Node17</title>
<g id="a_node16"><a xlink:href="notebook__util_8h.html" target="_top" xlink:title="core/visualization\l/root/notebook_util.h">
<polygon fill="#ffffff" stroke="#000000" points="2803.5,-56.5 2803.5,-86.5 2908.5,-86.5 2908.5,-56.5 2803.5,-56.5"/>
<text text-anchor="start" x="2811.5" y="-74.5" font-family="Helvetica,sans-Serif" font-size="10.00" fill="#000000">core/visualization</text>
<text text-anchor="middle" x="2856" y="-63.5" font-family="Helvetica,sans-Serif" font-size="10.00" fill="#000000">/root/notebook_util.h</text>
</a>
</g>
</g>
<!-- Node16&#45;&gt;Node17 -->
<g id="edge23" class="edge">
<title>Node16&#45;&gt;Node17</title>
<path fill="none" stroke="#191970" d="M2856,-113.0249C2856,-104.128 2856,-94.4287 2856,-86.6432"/>
<polygon fill="#191970" stroke="#191970" points="2852.5001,-113.2966 2856,-123.2967 2859.5001,-113.2967 2852.5001,-113.2966"/>
</g>
<!-- Node16&#45;&gt;Node18 -->
<g id="edge25" class="edge">
<title>Node16&#45;&gt;Node18</title>
<path fill="none" stroke="#191970" d="M2799.8672,-123.7768C2798.5676,-123.5078 2797.2772,-123.2483 2796,-123 2673.3159,-99.1446 2526.7411,-83.0784 2453.1236,-75.8554"/>
<polygon fill="#191970" stroke="#191970" points="2799.4218,-127.2626 2809.941,-125.9989 2800.9296,-120.4269 2799.4218,-127.2626"/>
</g>
<!-- Node16&#45;&gt;Node19 -->
<g id="edge26" class="edge">
<title>Node16&#45;&gt;Node19</title>
<path fill="none" stroke="#191970" d="M2912.1525,-123.8713C2913.4462,-123.574 2914.73,-123.2831 2916,-123 2994.6599,-105.4681 3086.9047,-88.9565 3141.7896,-79.5541"/>
<polygon fill="#191970" stroke="#191970" points="2911.0335,-120.5396 2902.1125,-126.2551 2912.6506,-127.3503 2911.0335,-120.5396"/>
</g>
<!-- Node17&#45;&gt;Node7 -->
<g id="edge24" class="edge">
<title>Node17&#45;&gt;Node7</title>
<path fill="none" stroke="#191970" d="M2793.3236,-68.807C2715.5977,-65.5197 2579.0412,-59.9159 2462,-56 1807.2971,-34.095 1007.7859,-14.9973 830.0975,-10.8382"/>
<polygon fill="#191970" stroke="#191970" points="2793.2906,-72.3086 2803.4299,-69.2354 2793.5872,-65.3149 2793.2906,-72.3086"/>
</g>
<!-- Node29&#45;&gt;Node7 -->
<g id="edge48" class="edge">
<title>Node29&#45;&gt;Node7</title>
<path fill="none" stroke="#191970" d="M2293.8454,-336.2033C2176.9396,-330.243 1955.526,-315.6478 1882,-288 1859.609,-279.5804 1858.6722,-269.0377 1838,-257 1777.6958,-221.8839 1760.6923,-216.1654 1696,-190 1524.5325,-120.6484 1482.934,-94.3883 1302,-56 1211.5831,-36.8165 930.8413,-18.332 830.2882,-12.1621"/>
<polygon fill="#191970" stroke="#191970" points="2293.9752,-339.7141 2304.138,-336.7195 2294.3259,-332.7229 2293.9752,-339.7141"/>
</g>
<!-- Node29&#45;&gt;Node12 -->
<g id="edge59" class="edge">
<title>Node29&#45;&gt;Node12</title>
<path fill="none" stroke="#191970" d="M2294.2701,-335.4997C2150.7602,-327.3229 1844.0452,-307.7905 1800,-288 1781.6447,-279.7525 1785.3943,-265.1602 1767,-257 1740.4921,-245.2404 1331.1392,-218.1784 1184.0937,-208.7839"/>
<polygon fill="#191970" stroke="#191970" points="2294.133,-338.9975 2304.3149,-336.0687 2294.5289,-332.0087 2294.133,-338.9975"/>
</g>
<!-- Node29&#45;&gt;Node16 -->
<g id="edge49" class="edge">
<title>Node29&#45;&gt;Node16</title>
<path fill="none" stroke="#191970" d="M2381.7493,-321.5935C2395.7754,-303.987 2418.7284,-276.9294 2442,-257 2483.4791,-221.4781 2494.0931,-209.769 2545,-190 2634.6617,-155.1811 2747.7924,-143.8975 2809.9093,-140.2448"/>
<polygon fill="#191970" stroke="#191970" points="2378.6904,-319.8223 2375.2738,-329.8512 2384.1987,-324.1419 2378.6904,-319.8223"/>
</g>
<!-- Node29&#45;&gt;Node18 -->
<g id="edge58" class="edge">
<title>Node29&#45;&gt;Node18</title>
<path fill="none" stroke="#191970" d="M2371.1748,-319.5643C2372.675,-310.0192 2374.4683,-298.4236 2376,-288 2387.7505,-208.0339 2400.7157,-111.2586 2404.7397,-81.0043"/>
<polygon fill="#191970" stroke="#191970" points="2367.6874,-319.2103 2369.5818,-329.6344 2374.6014,-320.3041 2367.6874,-319.2103"/>
</g>
<!-- Node29&#45;&gt;Node19 -->
<g id="edge60" class="edge">
<title>Node29&#45;&gt;Node19</title>
<path fill="none" stroke="#191970" d="M2403.4963,-326.2118C2426.4128,-316.9451 2456.4249,-303.4934 2481,-288 2499.1478,-276.5587 2498.6997,-266.3673 2518,-257 2588.2625,-222.8982 2613.6028,-237.2242 2690,-221 2828.309,-191.6278 2866.4278,-197.3869 3001,-154 3065.5723,-133.1815 3138.1093,-97.9785 3171.4373,-81.0943"/>
<polygon fill="#191970" stroke="#191970" points="2402.1507,-322.9801 2394.1458,-329.9208 2404.7318,-329.4869 2402.1507,-322.9801"/>
</g>
<!-- Node29&#45;&gt;Node24 -->
<g id="edge54" class="edge">
<title>Node29&#45;&gt;Node24</title>
<path fill="none" stroke="#191970" d="M2294.1834,-337.2704C2181.0336,-332.9214 1958.2456,-320.6739 1772,-288 1763.3765,-286.4871 1754.1676,-284.2983 1745.6858,-282.0399"/>
<polygon fill="#191970" stroke="#191970" points="2294.3315,-340.7783 2304.4555,-337.655 2294.5935,-333.7832 2294.3315,-340.7783"/>
</g>
<!-- Node29&#45;&gt;Node25 -->
<g id="edge56" class="edge">
<title>Node29&#45;&gt;Node25</title>
<path fill="none" stroke="#191970" d="M2371.8888,-319.8007C2376.897,-288.1741 2381.4709,-225.9834 2349,-190 2328.9083,-167.7349 2254.5471,-153.7375 2197.5738,-146.049"/>
<polygon fill="#191970" stroke="#191970" points="2368.3863,-319.5079 2370.0918,-329.9646 2375.2794,-320.7267 2368.3863,-319.5079"/>
</g>
<!-- Node29&#45;&gt;Node30 -->
<g id="edge33" class="edge">
<title>Node29&#45;&gt;Node30</title>
<path fill="none" stroke="#191970" d="M2319.1691,-327.5596C2266.0803,-314.578 2182.2807,-294.0869 2133.2757,-282.1039"/>
<polygon fill="#191970" stroke="#191970" points="2318.4883,-330.9962 2329.0335,-329.9717 2320.151,-324.1965 2318.4883,-330.9962"/>
</g>
<!-- Node29&#45;&gt;Node31 -->
<g id="edge52" class="edge">
<title>Node29&#45;&gt;Node31</title>
<path fill="none" stroke="#191970" d="M2390.1694,-324.1398C2422.4666,-301.8191 2479.7404,-262.4713 2490,-257 2516.872,-242.6695 2548.622,-229.7945 2573.654,-220.5021"/>
<polygon fill="#191970" stroke="#191970" points="2388.0151,-321.3742 2381.782,-329.9416 2391.9973,-327.1311 2388.0151,-321.3742"/>
</g>
<!-- Node29&#45;&gt;Node32 -->
<g id="edge53" class="edge">
<title>Node29&#45;&gt;Node32</title>
<path fill="none" stroke="#191970" d="M2293.9172,-336.4566C2170.4923,-330.6716 1928.3867,-316.0816 1848,-288 1824.0251,-279.6248 1823.0606,-267.637 1800,-257 1763.9113,-240.3535 1721.1056,-227.5139 1687.2255,-218.8183"/>
<polygon fill="#191970" stroke="#191970" points="2293.8882,-339.9589 2304.039,-336.9237 2294.211,-332.9663 2293.8882,-339.9589"/>
</g>
<!-- Node33 -->
<g id="node28" class="node">
<title>Node33</title>
<g id="a_node28"><a xlink:href="diffusion__op_8h.html" target="_top" xlink:title="core/operation/diffusion_op.h">
<polygon fill="#ffffff" stroke="#ff0000" points="2198,-196 2198,-215 2340,-215 2340,-196 2198,-196"/>
<text text-anchor="middle" x="2269" y="-203" font-family="Helvetica,sans-Serif" font-size="10.00" fill="#000000">core/operation/diffusion_op.h</text>
</a>
</g>
</g>
<!-- Node29&#45;&gt;Node33 -->
<g id="edge55" class="edge">
<title>Node29&#45;&gt;Node33</title>
<path fill="none" stroke="#191970" d="M2354.7238,-321.5301C2333.4556,-292.743 2292.4736,-237.2724 2276.0553,-215.0496"/>
<polygon fill="#191970" stroke="#191970" points="2352.1228,-323.8998 2360.8802,-329.8631 2357.753,-319.7402 2352.1228,-323.8998"/>
</g>
<!-- Node36 -->
<g id="node30" class="node">
<title>Node36</title>
<g id="a_node30"><a xlink:href="model__initializer_8h.html" target="_top" xlink:title="core/model_initializer.h">
<polygon fill="#ffffff" stroke="#000000" points="992,-263 992,-282 1108,-282 1108,-263 992,-263"/>
<text text-anchor="middle" x="1050" y="-270" font-family="Helvetica,sans-Serif" font-size="10.00" fill="#000000">core/model_initializer.h</text>
</a>
</g>
</g>
<!-- Node29&#45;&gt;Node36 -->
<g id="edge46" class="edge">
<title>Node29&#45;&gt;Node36</title>
<path fill="none" stroke="#191970" d="M2294.1265,-336.2026C2121.5118,-328.434 1678.2715,-308.1166 1308,-288 1239.3343,-284.2694 1160.4225,-279.4507 1108.139,-276.1836"/>
<polygon fill="#191970" stroke="#191970" points="2294.2164,-339.7101 2304.3636,-336.6629 2294.5309,-332.7171 2294.2164,-339.7101"/>
</g>
<!-- Node37 -->
<g id="node31" class="node">
<title>Node37</title>
<g id="a_node31"><a xlink:href="sim__object__vector_8h.html" target="_top" xlink:title="core/container/sim\l_object_vector.h">
<polygon fill="#ffffff" stroke="#000000" points="2570.5,-257.5 2570.5,-287.5 2667.5,-287.5 2667.5,-257.5 2570.5,-257.5"/>
<text text-anchor="start" x="2578.5" y="-275.5" font-family="Helvetica,sans-Serif" font-size="10.00" fill="#000000">core/container/sim</text>
<text text-anchor="middle" x="2619" y="-264.5" font-family="Helvetica,sans-Serif" font-size="10.00" fill="#000000">_object_vector.h</text>
</a>
</g>
</g>
<!-- Node29&#45;&gt;Node37 -->
<g id="edge50" class="edge">
<title>Node29&#45;&gt;Node37</title>
<path fill="none" stroke="#191970" d="M2413.5983,-327.3283C2457.8299,-315.5215 2524.7299,-297.6637 2570.0613,-285.5633"/>
<polygon fill="#191970" stroke="#191970" points="2412.4546,-324.011 2403.6956,-329.9717 2414.26,-330.7742 2412.4546,-324.011"/>
</g>
<!-- Node38 -->
<g id="node32" class="node">
<title>Node38</title>
<g id="a_node32"><a xlink:href="load__balancing__op_8h.html" target="_top" xlink:title="core/operation/load\l_balancing_op.h">
<polygon fill="#ffffff" stroke="#ff0000" points="2685.5,-257.5 2685.5,-287.5 2784.5,-287.5 2784.5,-257.5 2685.5,-257.5"/>
<text text-anchor="start" x="2693.5" y="-275.5" font-family="Helvetica,sans-Serif" font-size="10.00" fill="#000000">core/operation/load</text>
<text text-anchor="middle" x="2735" y="-264.5" font-family="Helvetica,sans-Serif" font-size="10.00" fill="#000000">_balancing_op.h</text>
</a>
</g>
</g>
<!-- Node29&#45;&gt;Node38 -->
<g id="edge57" class="edge">
<title>Node29&#45;&gt;Node38</title>
<path fill="none" stroke="#191970" d="M2441.8724,-329.2253C2504.7102,-319.9996 2597.1921,-305.2729 2677,-288 2679.7505,-287.4047 2682.5659,-286.7626 2685.4021,-286.0901"/>
<polygon fill="#191970" stroke="#191970" points="2441.051,-325.8079 2431.6607,-330.7144 2442.0611,-332.7347 2441.051,-325.8079"/>
</g>
<!-- Node39 -->
<g id="node33" class="node">
<title>Node39</title>
<g id="a_node33"><a xlink:href="paraview_2adaptor_8h.html" target="_top" xlink:title="core/visualization\l/paraview/adaptor.h">
<polygon fill="#ffffff" stroke="#ff0000" points="3036,-190.5 3036,-220.5 3138,-220.5 3138,-190.5 3036,-190.5"/>
<text text-anchor="start" x="3044" y="-208.5" font-family="Helvetica,sans-Serif" font-size="10.00" fill="#000000">core/visualization</text>
<text text-anchor="middle" x="3087" y="-197.5" font-family="Helvetica,sans-Serif" font-size="10.00" fill="#000000">/paraview/adaptor.h</text>
</a>
</g>
</g>
<!-- Node29&#45;&gt;Node39 -->
<g id="edge61" class="edge">
<title>Node29&#45;&gt;Node39</title>
<path fill="none" stroke="#191970" d="M2414.8263,-327.1461C2445.1329,-318.259 2484.9552,-304.8791 2518,-288 2539.3034,-277.1183 2539.5257,-265.1946 2562,-257 2738.0158,-192.8215 2795.9087,-242.6902 2982,-221 2999.5707,-218.952 3018.729,-216.2603 3035.8133,-213.6957"/>
<polygon fill="#191970" stroke="#191970" points="2413.5821,-323.8619 2404.9368,-329.9864 2415.5144,-330.5899 2413.5821,-323.8619"/>
</g>
<!-- Node30&#45;&gt;Node7 -->
<g id="edge34" class="edge">
<title>Node30&#45;&gt;Node7</title>
<path fill="none" stroke="#191970" d="M2076.9556,-255.748C2032.0534,-212.8777 1904.9318,-99.5149 1774,-56 1683.1823,-25.8169 996.4824,-13.1761 830.1843,-10.5397"/>
<polygon fill="#191970" stroke="#191970" points="2074.7394,-258.4734 2084.3654,-262.8998 2079.6007,-253.4367 2074.7394,-258.4734"/>
</g>
<!-- Node30&#45;&gt;Node12 -->
<g id="edge44" class="edge">
<title>Node30&#45;&gt;Node12</title>
<path fill="none" stroke="#191970" d="M2036.2734,-261.2317C2026.5312,-259.6128 2016.4991,-258.1193 2007,-257 1734.1989,-224.854 1664.2083,-237.2365 1390,-221 1318.7776,-216.7828 1236.5013,-211.8249 1184.3768,-208.6732"/>
<polygon fill="#191970" stroke="#191970" points="2035.8379,-264.708 2046.2864,-262.9537 2037.0244,-257.8093 2035.8379,-264.708"/>
</g>
<!-- Node30&#45;&gt;Node19 -->
<g id="edge45" class="edge">
<title>Node30&#45;&gt;Node19</title>
<path fill="none" stroke="#191970" d="M2107.8536,-254.8545C2124.6361,-234.9907 2154.9287,-203.7056 2189,-190 2338.0374,-130.0477 2763.162,-216.8518 2911,-154 2929.519,-146.1268 2926.1534,-132.2971 2944,-123 2977.8607,-105.3604 3080.3834,-87.7715 3141.8711,-78.4069"/>
<polygon fill="#191970" stroke="#191970" points="2104.951,-252.8747 2101.3221,-262.8286 2110.3663,-257.3103 2104.951,-252.8747"/>
</g>
<!-- Node30&#45;&gt;Node25 -->
<g id="edge43" class="edge">
<title>Node30&#45;&gt;Node25</title>
<path fill="none" stroke="#191970" d="M2098.9345,-253.0522C2105.7688,-226.1173 2117.9717,-178.0235 2124.1659,-153.611"/>
<polygon fill="#191970" stroke="#191970" points="2095.5122,-252.3094 2096.4452,-262.8631 2102.2972,-254.031 2095.5122,-252.3094"/>
</g>
<!-- Node30&#45;&gt;Node31 -->
<g id="edge35" class="edge">
<title>Node30&#45;&gt;Node31</title>
<path fill="none" stroke="#191970" d="M2178.5912,-261.6633C2283.2566,-248.2549 2459.1165,-225.726 2553.1474,-213.68"/>
<polygon fill="#191970" stroke="#191970" points="2177.8519,-258.2293 2168.3777,-262.9717 2178.7414,-265.1725 2177.8519,-258.2293"/>
</g>
<!-- Node30&#45;&gt;Node32 -->
<g id="edge38" class="edge">
<title>Node30&#45;&gt;Node32</title>
<path fill="none" stroke="#191970" d="M2032.5619,-261.2282C2023.9864,-259.7501 2015.2792,-258.2995 2007,-257 1894.1677,-239.2905 1761.8671,-222.1302 1687.1931,-212.7755"/>
<polygon fill="#191970" stroke="#191970" points="2032.0819,-264.6973 2042.5348,-262.9686 2033.2854,-257.8015 2032.0819,-264.6973"/>
</g>
<!-- Node30&#45;&gt;Node33 -->
<g id="edge39" class="edge">
<title>Node30&#45;&gt;Node33</title>
<path fill="none" stroke="#191970" d="M2128.6117,-259.2487C2162.6294,-246.2247 2213.716,-226.6659 2243.9733,-215.0817"/>
<polygon fill="#191970" stroke="#191970" points="2127.1607,-256.0564 2119.0732,-262.9005 2129.6636,-262.5936 2127.1607,-256.0564"/>
</g>
<!-- Node30&#45;&gt;Node34 -->
<g id="edge41" class="edge">
<title>Node30&#45;&gt;Node34</title>
<path fill="none" stroke="#191970" d="M2052.195,-259.9958C2008.6901,-246.9832 1941.5115,-226.8896 1902.0342,-215.0817"/>
<polygon fill="#191970" stroke="#191970" points="2051.3226,-263.388 2061.9063,-262.9005 2053.3286,-256.6816 2051.3226,-263.388"/>
</g>
<!-- Node31&#45;&gt;Node19 -->
<g id="edge37" class="edge">
<title>Node31&#45;&gt;Node19</title>
<path fill="none" stroke="#191970" d="M2690.7321,-197.9381C2757.5443,-190.1325 2858.3529,-175.9686 2944,-154 2983.3556,-143.9052 2991.5454,-136.1152 3030,-123 3074.743,-107.7401 3126.9304,-91.1703 3159.223,-81.0592"/>
<polygon fill="#191970" stroke="#191970" points="2690.2526,-194.4701 2680.7182,-199.0901 2691.0527,-201.4242 2690.2526,-194.4701"/>
</g>
<!-- Node31&#45;&gt;Node25 -->
<g id="edge36" class="edge">
<title>Node31&#45;&gt;Node25</title>
<path fill="none" stroke="#191970" d="M2543.1146,-195.3766C2449.5426,-182.5559 2289.4934,-160.6269 2197.8709,-148.0733"/>
<polygon fill="#191970" stroke="#191970" points="2542.6892,-198.851 2553.0718,-196.7409 2543.6395,-191.9158 2542.6892,-198.851"/>
</g>
<!-- Node33&#45;&gt;Node18 -->
<g id="edge40" class="edge">
<title>Node33&#45;&gt;Node18</title>
<path fill="none" stroke="#191970" d="M2286.2394,-188.6381C2315.325,-160.1894 2373.2212,-103.561 2396.2366,-81.0496"/>
<polygon fill="#191970" stroke="#191970" points="2283.5543,-186.3685 2278.8527,-195.8631 2288.449,-191.3728 2283.5543,-186.3685"/>
</g>
<!-- Node34&#45;&gt;Node18 -->
<g id="edge42" class="edge">
<title>Node34&#45;&gt;Node18</title>
<path fill="none" stroke="#191970" d="M1890.284,-189.678C1916.0719,-170.4707 1962.7044,-138.7049 2008,-123 2071.9362,-100.832 2267.997,-82.654 2358.8611,-75.1743"/>
<polygon fill="#191970" stroke="#191970" points="1887.9262,-187.0732 1882.0682,-195.9012 1892.1529,-192.6531 1887.9262,-187.0732"/>
</g>
<!-- Node36&#45;&gt;Node7 -->
<g id="edge47" class="edge">
<title>Node36&#45;&gt;Node7</title>
<path fill="none" stroke="#191970" d="M1033.5991,-255.6827C984.8349,-205.6803 841.7607,-58.9733 803.5004,-19.7416"/>
<polygon fill="#191970" stroke="#191970" points="1031.0976,-258.1307 1040.5852,-262.8462 1036.109,-253.2433 1031.0976,-258.1307"/>
</g>
<!-- Node37&#45;&gt;Node31 -->
<g id="edge51" class="edge">
<title>Node37&#45;&gt;Node31</title>
<path fill="none" stroke="#191970" d="M2618.2395,-247.0249C2617.974,-238.128 2617.6844,-228.4287 2617.452,-220.6432"/>
<polygon fill="#191970" stroke="#191970" points="2614.7493,-247.4056 2618.5462,-257.2967 2621.7461,-247.1967 2614.7493,-247.4056"/>
</g>
<!-- Node41&#45;&gt;Node14 -->
<g id="edge67" class="edge">
<title>Node41&#45;&gt;Node14</title>
<path fill="none" stroke="#191970" d="M1381.9417,-314.6103C1379.3739,-305.5553 1376.5507,-295.5998 1374.2943,-287.6432"/>
<polygon fill="#191970" stroke="#191970" points="1378.5931,-315.6309 1384.6886,-324.2967 1385.3275,-313.7211 1378.5931,-315.6309"/>
</g>
<!-- Node41&#45;&gt;Node15 -->
<g id="edge66" class="edge">
<title>Node41&#45;&gt;Node15</title>
<path fill="none" stroke="#191970" d="M1412.5491,-316.7566C1420.0707,-308.3563 1427.7874,-298.3464 1433,-288 1444.0438,-266.0794 1448.7644,-237.6503 1450.7119,-220.5326"/>
<polygon fill="#191970" stroke="#191970" points="1409.7814,-314.5908 1405.4855,-324.2757 1414.8833,-319.3837 1409.7814,-314.5908"/>
</g>
<!-- Node42&#45;&gt;Node18 -->
<g id="edge73" class="edge">
<title>Node42&#45;&gt;Node18</title>
<path fill="none" stroke="#191970" d="M1953.9686,-247.7751C1969.1687,-213.5488 2001.578,-152.6113 2050,-123 2100.9459,-91.8453 2274.46,-78.4972 2358.9746,-73.7381"/>
<polygon fill="#191970" stroke="#191970" points="1950.705,-246.5047 1949.9714,-257.0742 1957.1361,-249.2691 1950.705,-246.5047"/>
</g>
<!-- Node42&#45;&gt;Node25 -->
<g id="edge72" class="edge">
<title>Node42&#45;&gt;Node25</title>
<path fill="none" stroke="#191970" d="M1973.2094,-251.2279C2010.6341,-223.973 2074.5716,-177.4098 2107.3264,-153.5558"/>
<polygon fill="#191970" stroke="#191970" points="1970.7726,-248.6727 1964.7495,-257.389 1974.8935,-254.3312 1970.7726,-248.6727"/>
</g>
<!-- Node42&#45;&gt;Node34 -->
<g id="edge71" class="edge">
<title>Node42&#45;&gt;Node34</title>
<path fill="none" stroke="#191970" d="M1919.7463,-250.5406C1906.4804,-238.5296 1890.7241,-224.2637 1880.5533,-215.055"/>
<polygon fill="#191970" stroke="#191970" points="1917.4461,-253.1794 1927.2083,-257.2967 1922.1444,-247.9903 1917.4461,-253.1794"/>
</g>
<!-- Node44 -->
<g id="node37" class="node">
<title>Node44</title>
<g id="a_node37"><a xlink:href="visualization_2paraview_2so__visitor_8h.html" target="_top" xlink:title="core/visualization\l/paraview/so_visitor.h">
<polygon fill="#ffffff" stroke="#ff0000" points="3031,-257.5 3031,-287.5 3143,-287.5 3143,-257.5 3031,-257.5"/>
<text text-anchor="start" x="3039" y="-275.5" font-family="Helvetica,sans-Serif" font-size="10.00" fill="#000000">core/visualization</text>
<text text-anchor="middle" x="3087" y="-264.5" font-family="Helvetica,sans-Serif" font-size="10.00" fill="#000000">/paraview/so_visitor.h</text>
</a>
</g>
</g>
<!-- Node43&#45;&gt;Node44 -->
<g id="edge78" class="edge">
<title>Node43&#45;&gt;Node44</title>
<path fill="none" stroke="#191970" d="M3068.014,-314.9021C3072.1032,-305.7696 3076.6185,-295.6854 3080.2195,-287.6432"/>
<polygon fill="#191970" stroke="#191970" points="3064.6998,-313.7395 3063.8075,-324.2967 3071.0886,-316.6002 3064.6998,-313.7395"/>
</g>
<!-- Node44&#45;&gt;Node39 -->
<g id="edge79" class="edge">
<title>Node44&#45;&gt;Node39</title>
<path fill="none" stroke="#191970" d="M3087,-247.0249C3087,-238.128 3087,-228.4287 3087,-220.6432"/>
<polygon fill="#191970" stroke="#191970" points="3083.5001,-247.2966 3087,-257.2967 3090.5001,-247.2967 3083.5001,-247.2966"/>
</g>
<!-- Node48 -->
<g id="node39" class="node">
<title>Node48</title>
<g id="a_node39"><a xlink:href="simulation_8h.html" target="_top" xlink:title="core/simulation.h">
<polygon fill="#ffffff" stroke="#000000" points="2580.5,-531 2580.5,-550 2671.5,-550 2671.5,-531 2580.5,-531"/>
<text text-anchor="middle" x="2626" y="-538" font-family="Helvetica,sans-Serif" font-size="10.00" fill="#000000">core/simulation.h</text>
</a>
</g>
</g>
<!-- Node47&#45;&gt;Node48 -->
<g id="edge87" class="edge">
<title>Node47&#45;&gt;Node48</title>
<path fill="none" stroke="#191970" d="M2665.4255,-584.5252C2654.8659,-572.7336 2642.5721,-559.0055 2634.5567,-550.055"/>
<polygon fill="#191970" stroke="#191970" points="2663.1065,-587.1821 2672.3851,-592.2967 2668.3212,-582.5122 2663.1065,-587.1821"/>
</g>
<!-- Node63 -->
<g id="node50" class="node">
<title>Node63</title>
<g id="a_node50"><a xlink:href="memory__manager_8cc.html" target="_top" xlink:title="core/memory/memory\l_manager.cc">
<polygon fill="#ffffff" stroke="#000000" points="2690,-525.5 2690,-555.5 2802,-555.5 2802,-525.5 2690,-525.5"/>
<text text-anchor="start" x="2698" y="-543.5" font-family="Helvetica,sans-Serif" font-size="10.00" fill="#000000">core/memory/memory</text>
<text text-anchor="middle" x="2746" y="-532.5" font-family="Helvetica,sans-Serif" font-size="10.00" fill="#000000">_manager.cc</text>
</a>
</g>
</g>
<!-- Node47&#45;&gt;Node63 -->
<g id="edge135" class="edge">
<title>Node47&#45;&gt;Node63</title>
<path fill="none" stroke="#191970" d="M2706.473,-584.6385C2715.046,-575.0653 2724.7773,-564.1987 2732.439,-555.6432"/>
<polygon fill="#191970" stroke="#191970" points="2703.6788,-582.5122 2699.6149,-592.2967 2708.8935,-587.1821 2703.6788,-582.5122"/>
</g>
<!-- Node48&#45;&gt;Node4 -->
<g id="edge88" class="edge">
<title>Node48&#45;&gt;Node4</title>
<path fill="none" stroke="#191970" d="M2570.2365,-537.8812C2418.7574,-530.7112 1986.9389,-509.8995 1628,-489 1562.6219,-485.1933 1487.2248,-480.2037 1438.8833,-476.9276"/>
<polygon fill="#191970" stroke="#191970" points="2570.0756,-541.3774 2580.2298,-538.3536 2570.4063,-534.3852 2570.0756,-541.3774"/>
</g>
<!-- Node48&#45;&gt;Node10 -->
<g id="edge101" class="edge">
<title>Node48&#45;&gt;Node10</title>
<path fill="none" stroke="#191970" d="M2569.9301,-540.27C2313.4915,-538.9939 1250.7479,-531.2101 921,-489 599.0267,-447.7851 224.2368,-329.565 97.4713,-287.5453"/>
<polygon fill="#191970" stroke="#191970" points="2570.1082,-543.7708 2580.1251,-540.3194 2570.1422,-536.7709 2570.1082,-543.7708"/>
</g>
<!-- Node48&#45;&gt;Node12 -->
<g id="edge129" class="edge">
<title>Node48&#45;&gt;Node12</title>
<path fill="none" stroke="#191970" d="M2570.0447,-539.4162C2328.9498,-534.6005 1388.4252,-514.2629 1331,-489 1221.5048,-440.8301 1200.7494,-397.2384 1152,-288 1142.03,-265.659 1136.5804,-237.6026 1133.9809,-220.6367"/>
<polygon fill="#191970" stroke="#191970" points="2570.2606,-542.9211 2580.3283,-539.6206 2570.3999,-535.9225 2570.2606,-542.9211"/>
</g>
<!-- Node48&#45;&gt;Node16 -->
<g id="edge113" class="edge">
<title>Node48&#45;&gt;Node16</title>
<path fill="none" stroke="#191970" d="M2668.331,-528.1013C2712.9498,-514.8775 2778.2607,-495.0219 2789,-489 2862.7379,-447.6528 2894.4755,-434.2159 2924,-355 2951.7246,-280.6133 2893.6758,-189.1969 2867.7032,-153.6449"/>
<polygon fill="#191970" stroke="#191970" points="2667.1928,-524.788 2658.595,-530.979 2669.177,-531.5009 2667.1928,-524.788"/>
</g>
<!-- Node48&#45;&gt;Node17 -->
<g id="edge112" class="edge">
<title>Node48&#45;&gt;Node17</title>
<path fill="none" stroke="#191970" d="M2669.0537,-528.2067C2673.0869,-527.1034 2677.1168,-526.0191 2681,-525 2789.3357,-496.5684 2842.9172,-510.9366 2911,-422 2991.7776,-316.4802 2976.1191,-238.8402 2911,-123 2902.8591,-108.5183 2889.2595,-95.7305 2877.6208,-86.5201"/>
<polygon fill="#191970" stroke="#191970" points="2667.8062,-524.9203 2659.1031,-530.9623 2669.6745,-531.6664 2667.8062,-524.9203"/>
</g>
<!-- Node48&#45;&gt;Node18 -->
<g id="edge126" class="edge">
<title>Node48&#45;&gt;Node18</title>
<path fill="none" stroke="#191970" d="M2633.765,-521.4911C2646.1332,-492.2152 2671.9978,-434.8841 2702,-391 2710.6604,-378.3325 2788.5294,-302.3367 2794,-288 2798.9118,-275.1275 2800.5963,-269.0961 2794,-257 2725.1887,-130.815 2540.4749,-89.5125 2453.0734,-76.7864"/>
<polygon fill="#191970" stroke="#191970" points="2630.4474,-520.3535 2629.8362,-530.9307 2636.91,-523.0432 2630.4474,-520.3535"/>
</g>
<!-- Node48&#45;&gt;Node19 -->
<g id="edge130" class="edge">
<title>Node48&#45;&gt;Node19</title>
<path fill="none" stroke="#191970" d="M2665.2979,-528.3011C2670.5378,-527.0062 2675.8715,-525.8529 2681,-525 2752.9001,-513.0424 3282.1144,-538.0811 3336,-489 3396.2586,-434.1141 3408.5664,-188.4588 3360,-123 3358.9434,-121.5759 3271.5834,-95.594 3222.527,-81.0918"/>
<polygon fill="#191970" stroke="#191970" points="2664.1829,-524.9758 2655.4155,-530.9241 2665.9787,-531.7415 2664.1829,-524.9758"/>
</g>
<!-- Node48&#45;&gt;Node20 -->
<g id="edge115" class="edge">
<title>Node48&#45;&gt;Node20</title>
<path fill="none" stroke="#191970" d="M2570.0097,-539.9928C2294.0508,-537.3307 1089.0691,-523.7496 1018,-489 903.8663,-433.1938 776.7363,-360.0813 851,-257 887.1288,-206.8516 1065.6223,-165.7935 1154.9262,-148.0111"/>
<polygon fill="#191970" stroke="#191970" points="2570.1567,-543.4943 2580.1898,-540.0901 2570.2237,-536.4946 2570.1567,-543.4943"/>
</g>
<!-- Node48&#45;&gt;Node24 -->
<g id="edge116" class="edge">
<title>Node48&#45;&gt;Node24</title>
<path fill="none" stroke="#191970" d="M2570.0989,-536.6762C2464.0163,-529.0279 2237.3759,-510.7034 2162,-489 1981.4507,-437.0134 1784.3116,-317.0859 1729.0994,-282.1897"/>
<polygon fill="#191970" stroke="#191970" points="2570.0612,-540.1823 2580.2854,-537.4045 2570.5605,-533.2002 2570.0612,-540.1823"/>
</g>
<!-- Node48&#45;&gt;Node25 -->
<g id="edge122" class="edge">
<title>Node48&#45;&gt;Node25</title>
<path fill="none" stroke="#191970" d="M2570.245,-536.1382C2473.0575,-528.0367 2280.749,-509.6057 2258,-489 2230.037,-463.6716 2238,-444.2287 2238,-406.5 2238,-406.5 2238,-406.5 2238,-339.5 2238,-298.4275 2166.4264,-192.832 2138.7475,-153.5319"/>
<polygon fill="#191970" stroke="#191970" points="2570.2231,-539.6482 2580.477,-536.9822 2570.7987,-532.6719 2570.2231,-539.6482"/>
</g>
<!-- Node48&#45;&gt;Node27 -->
<g id="edge123" class="edge">
<title>Node48&#45;&gt;Node27</title>
<path fill="none" stroke="#191970" d="M2570.0901,-539.5844C2301.0411,-535.0587 1149.6276,-514.279 1078,-489 1031.3112,-472.5224 1020.4072,-460.2746 989,-422 953.9134,-379.2415 930.9567,-316.527 921.6713,-287.8422"/>
<polygon fill="#191970" stroke="#191970" points="2570.3389,-543.089 2580.3962,-539.7571 2570.4562,-536.09 2570.3389,-543.089"/>
</g>
<!-- Node48&#45;&gt;Node29 -->
<g id="edge106" class="edge">
<title>Node48&#45;&gt;Node29</title>
<path fill="none" stroke="#191970" d="M2605.504,-524.5322C2554.2021,-484.5644 2421.4302,-381.1258 2380.319,-349.0974"/>
<polygon fill="#191970" stroke="#191970" points="2603.5165,-527.4206 2613.5561,-530.8054 2607.8185,-521.8985 2603.5165,-527.4206"/>
</g>
<!-- Node48&#45;&gt;Node33 -->
<g id="edge120" class="edge">
<title>Node48&#45;&gt;Node33</title>
<path fill="none" stroke="#191970" d="M2577.9474,-528.1135C2504.2249,-506.4157 2364.5649,-454.1147 2296,-355 2265.0898,-310.3175 2266.4426,-240.7414 2268.1502,-215.2677"/>
<polygon fill="#191970" stroke="#191970" points="2577.3203,-531.5749 2587.8981,-530.9737 2579.2542,-524.8473 2577.3203,-531.5749"/>
</g>
<!-- Node48&#45;&gt;Node34 -->
<g id="edge121" class="edge">
<title>Node48&#45;&gt;Node34</title>
<path fill="none" stroke="#191970" d="M2570.0741,-538.8204C2361.6512,-531.8306 1642,-500.864 1642,-406.5 1642,-406.5 1642,-406.5 1642,-339.5 1642,-301.7713 1635.3869,-283.7432 1662,-257 1681.2873,-237.6184 1747.0076,-223.5144 1799.4759,-215.0177"/>
<polygon fill="#191970" stroke="#191970" points="2570.0768,-542.3223 2580.1868,-539.154 2570.3077,-535.3261 2570.0768,-542.3223"/>
</g>
<!-- Node48&#45;&gt;Node36 -->
<g id="edge107" class="edge">
<title>Node48&#45;&gt;Node36</title>
<path fill="none" stroke="#191970" d="M2570.3643,-540.2015C2309.0362,-538.5915 1213.6098,-529.4447 1154,-489 1114.6406,-462.295 1131.45,-433.9432 1111,-391 1091.501,-350.054 1066.1028,-302.344 1055.2685,-282.2292"/>
<polygon fill="#191970" stroke="#191970" points="2570.366,-543.7015 2580.387,-540.2621 2570.4084,-536.7017 2570.366,-543.7015"/>
</g>
<!-- Node48&#45;&gt;Node37 -->
<g id="edge114" class="edge">
<title>Node48&#45;&gt;Node37</title>
<path fill="none" stroke="#191970" d="M2625.4881,-520.9032C2624.1524,-469.7651 2620.5826,-333.0901 2619.3923,-287.5208"/>
<polygon fill="#191970" stroke="#191970" points="2621.9909,-521.0566 2625.7509,-530.9617 2628.9885,-520.8737 2621.9909,-521.0566"/>
</g>
<!-- Node48&#45;&gt;Node38 -->
<g id="edge124" class="edge">
<title>Node48&#45;&gt;Node38</title>
<path fill="none" stroke="#191970" d="M2628.1236,-520.9294C2633.4785,-474.126 2648.575,-357.1559 2669,-324 2678.3,-308.9033 2693.7253,-296.4994 2707.3256,-287.6503"/>
<polygon fill="#191970" stroke="#191970" points="2624.6318,-520.6625 2627.0002,-530.9892 2631.5885,-521.4395 2624.6318,-520.6625"/>
</g>
<!-- Node48&#45;&gt;Node39 -->
<g id="edge131" class="edge">
<title>Node48&#45;&gt;Node39</title>
<path fill="none" stroke="#191970" d="M2666.2803,-528.3164C2671.2096,-527.0723 2676.1998,-525.9275 2681,-525 2828.0266,-496.5908 2881.1605,-554.1323 3016,-489 3113.1238,-442.0857 3134.2475,-394.39 3152,-288 3154.2676,-274.4101 3157.9976,-269.4039 3152,-257 3144.5419,-241.5755 3129.9723,-229.3629 3116.5142,-220.709"/>
<polygon fill="#191970" stroke="#191970" points="2665.0881,-525.012 2656.3284,-530.9716 2666.8927,-531.7754 2665.0881,-525.012"/>
</g>
<!-- Node48&#45;&gt;Node42 -->
<g id="edge119" class="edge">
<title>Node48&#45;&gt;Node42</title>
<path fill="none" stroke="#191970" d="M2570.2298,-536.98C2475.0028,-530.3708 2285.3852,-514.4342 2224,-489 2106.207,-440.194 1995.4114,-328.2696 1957.6581,-287.6125"/>
<polygon fill="#191970" stroke="#191970" points="2570.037,-540.4749 2580.2525,-537.6653 2570.5145,-533.4912 2570.037,-540.4749"/>
</g>
<!-- Node48&#45;&gt;Node43 -->
<g id="edge133" class="edge">
<title>Node48&#45;&gt;Node43</title>
<path fill="none" stroke="#191970" d="M2666.6563,-528.3251C2671.466,-527.0981 2676.3254,-525.9549 2681,-525 2742.2491,-512.488 2909.1879,-525.4161 2960,-489 2999.4209,-460.7478 2980.2962,-430.8083 3008,-391 3017.3055,-377.6287 3030.0423,-364.3543 3040.1978,-354.6319"/>
<polygon fill="#191970" stroke="#191970" points="2665.684,-524.9621 2656.9285,-530.928 2667.4934,-531.7242 2665.684,-524.9621"/>
</g>
<!-- Node48&#45;&gt;Node44 -->
<g id="edge132" class="edge">
<title>Node48&#45;&gt;Node44</title>
<path fill="none" stroke="#191970" d="M2666.468,-528.3202C2671.3376,-527.0848 2676.2625,-525.9411 2681,-525 2814.8807,-498.4054 2863.8677,-549.9509 2986,-489 2995.2116,-484.4029 3110.1694,-364.5558 3114,-355 3123.2523,-331.9191 3109.3614,-304.3188 3098.3168,-287.6131"/>
<polygon fill="#191970" stroke="#191970" points="2665.3857,-524.9865 2656.6278,-530.9488 2667.1923,-531.7493 2665.3857,-524.9865"/>
</g>
<!-- Node49 -->
<g id="node40" class="node">
<title>Node49</title>
<g id="a_node40"><a xlink:href="diffusion__grid_8h.html" target="_top" xlink:title="core/diffusion_grid.h">
<polygon fill="#ffffff" stroke="#ff0000" points="998,-397 998,-416 1102,-416 1102,-397 998,-397"/>
<text text-anchor="middle" x="1050" y="-404" font-family="Helvetica,sans-Serif" font-size="10.00" fill="#000000">core/diffusion_grid.h</text>
</a>
</g>
</g>
<!-- Node48&#45;&gt;Node49 -->
<g id="edge89" class="edge">
<title>Node48&#45;&gt;Node49</title>
<path fill="none" stroke="#191970" d="M2570.0125,-539.8977C2304.4788,-536.8754 1182.1168,-522.1764 1116,-489 1084.3594,-473.1232 1062.9141,-434.2947 1054.2753,-416.1454"/>
<polygon fill="#191970" stroke="#191970" points="2570.1526,-543.3994 2580.1915,-540.0126 2570.2317,-536.3998 2570.1526,-543.3994"/>
</g>
<!-- Node51 -->
<g id="node41" class="node">
<title>Node51</title>
<g id="a_node41"><a xlink:href="timing__aggregator_8h.html" target="_top" xlink:title="core/util/timing_aggregator.h">
<polygon fill="#ffffff" stroke="#ff0000" points="3164,-464 3164,-483 3304,-483 3304,-464 3164,-464"/>
<text text-anchor="middle" x="3234" y="-471" font-family="Helvetica,sans-Serif" font-size="10.00" fill="#000000">core/util/timing_aggregator.h</text>
</a>
</g>
</g>
<!-- Node48&#45;&gt;Node51 -->
<g id="edge95" class="edge">
<title>Node48&#45;&gt;Node51</title>
<path fill="none" stroke="#191970" d="M2665.4987,-528.3609C2670.6769,-527.0671 2675.9405,-525.898 2681,-525 2886.8408,-488.4673 2942.694,-516.0057 3150,-489 3162.0583,-487.4292 3175.0102,-485.2743 3187.046,-483.0708"/>
<polygon fill="#191970" stroke="#191970" points="2664.4852,-525.0087 2655.7226,-530.9641 2666.2865,-531.773 2664.4852,-525.0087"/>
</g>
<!-- Node55 -->
<g id="node42" class="node">
<title>Node55</title>
<g id="a_node42"><a xlink:href="timing_8h.html" target="_top" xlink:title="core/util/timing.h">
<polygon fill="#ffffff" stroke="#000000" points="3189.5,-397 3189.5,-416 3278.5,-416 3278.5,-397 3189.5,-397"/>
<text text-anchor="middle" x="3234" y="-404" font-family="Helvetica,sans-Serif" font-size="10.00" fill="#000000">core/util/timing.h</text>
</a>
</g>
</g>
<!-- Node48&#45;&gt;Node55 -->
<g id="edge111" class="edge">
<title>Node48&#45;&gt;Node55</title>
<path fill="none" stroke="#191970" d="M2665.6943,-528.386C2670.8114,-527.0985 2676.0067,-525.9242 2681,-525 2853.4685,-493.0774 2905.6138,-538.0971 3074,-489 3131.607,-472.2033 3192.8035,-434.1954 3219.8013,-416.2412"/>
<polygon fill="#191970" stroke="#191970" points="2664.7845,-525.0062 2656.0244,-530.9652 2666.5886,-531.7698 2664.7845,-525.0062"/>
</g>
<!-- Node56 -->
<g id="node43" class="node">
<title>Node56</title>
<g id="a_node43"><a xlink:href="op__timer_8h.html" target="_top" xlink:title="core/operation/op_timer.h">
<polygon fill="#ffffff" stroke="#000000" points="2787.5,-330 2787.5,-349 2914.5,-349 2914.5,-330 2787.5,-330"/>
<text text-anchor="middle" x="2851" y="-337" font-family="Helvetica,sans-Serif" font-size="10.00" fill="#000000">core/operation/op_timer.h</text>
</a>
</g>
</g>
<!-- Node48&#45;&gt;Node56 -->
<g id="edge125" class="edge">
<title>Node48&#45;&gt;Node56</title>
<path fill="none" stroke="#191970" d="M2660.3537,-527.1596C2717.141,-504.342 2826.4795,-456.9075 2848,-422 2862.1403,-399.0636 2857.13,-365.3222 2853.4705,-349.0155"/>
<polygon fill="#191970" stroke="#191970" points="2658.7186,-524.0433 2650.7236,-530.9953 2661.3089,-530.5465 2658.7186,-524.0433"/>
</g>
<!-- Node48&#45;&gt;Node53 -->
<g id="edge102" class="edge">
<title>Node48&#45;&gt;Node53</title>
<path fill="none" stroke="#191970" d="M2665.1121,-528.328C2670.4112,-527.0177 2675.8102,-525.8531 2681,-525 2989.7105,-474.2522 3074.4017,-534.0157 3384,-489 3388.6385,-488.3256 3393.4328,-487.4696 3398.2141,-486.5075"/>
<polygon fill="#191970" stroke="#191970" points="2663.8906,-525.0312 2655.1263,-530.9841 2665.69,-531.7959 2663.8906,-525.0312"/>
</g>
<!-- Node57 -->
<g id="node46" class="node">
<title>Node57</title>
<g id="a_node46"><a xlink:href="command__line__options_8h.html" target="_top" xlink:title="core/param/command\l_line_options.h">
<polygon fill="#ffffff" stroke="#ff0000" points="3531.5,-123.5 3531.5,-153.5 3642.5,-153.5 3642.5,-123.5 3531.5,-123.5"/>
<text text-anchor="start" x="3539.5" y="-141.5" font-family="Helvetica,sans-Serif" font-size="10.00" fill="#000000">core/param/command</text>
<text text-anchor="middle" x="3587" y="-130.5" font-family="Helvetica,sans-Serif" font-size="10.00" fill="#000000">_line_options.h</text>
</a>
</g>
</g>
<!-- Node48&#45;&gt;Node57 -->
<g id="edge108" class="edge">
<title>Node48&#45;&gt;Node57</title>
<path fill="none" stroke="#191970" d="M2665.106,-528.2908C2670.4061,-526.9863 2675.807,-525.8334 2681,-525 2771.7043,-510.4436 3426.5967,-533.435 3507,-489 3546.0066,-467.4429 3564,-451.0671 3564,-406.5 3564,-406.5 3564,-406.5 3564,-272.5 3564,-228.8324 3576.0113,-178.2991 3582.6739,-153.6277"/>
<polygon fill="#191970" stroke="#191970" points="2663.8867,-524.9932 2655.1194,-530.9417 2665.6827,-531.7589 2663.8867,-524.9932"/>
</g>
<!-- Node59 -->
<g id="node47" class="node">
<title>Node59</title>
<g id="a_node47"><a xlink:href="gpu__helper_8h.html" target="_top" xlink:title="core/gpu/gpu_helper.h">
<polygon fill="#ffffff" stroke="#000000" points="3237.5,-129 3237.5,-148 3350.5,-148 3350.5,-129 3237.5,-129"/>
<text text-anchor="middle" x="3294" y="-136" font-family="Helvetica,sans-Serif" font-size="10.00" fill="#000000">core/gpu/gpu_helper.h</text>
</a>
</g>
</g>
<!-- Node48&#45;&gt;Node59 -->
<g id="edge117" class="edge">
<title>Node48&#45;&gt;Node59</title>
<path fill="none" stroke="#191970" d="M2665.2995,-528.3108C2670.5391,-527.0143 2675.8723,-525.858 2681,-525 2750.3715,-513.3918 3259.2344,-534.3478 3313,-489 3341.7621,-464.7411 3332,-444.1265 3332,-406.5 3332,-406.5 3332,-406.5 3332,-272.5 3332,-224.3794 3309.038,-170.1 3298.8127,-148.3143"/>
<polygon fill="#191970" stroke="#191970" points="2664.1839,-524.9857 2655.4173,-530.9352 2665.9807,-531.7512 2664.1839,-524.9857"/>
</g>
<!-- Node60 -->
<g id="node48" class="node">
<title>Node60</title>
<g id="a_node48"><a xlink:href="simulation__backup_8h.html" target="_top" xlink:title="core/simulation_backup.h">
<polygon fill="#ffffff" stroke="#ff0000" points="2711,-397 2711,-416 2839,-416 2839,-397 2711,-397"/>
<text text-anchor="middle" x="2775" y="-404" font-family="Helvetica,sans-Serif" font-size="10.00" fill="#000000">core/simulation_backup.h</text>
</a>
</g>
</g>
<!-- Node48&#45;&gt;Node60 -->
<g id="edge127" class="edge">
<title>Node48&#45;&gt;Node60</title>
<path fill="none" stroke="#191970" d="M2649.0424,-525.4013C2663.3506,-515.6397 2681.8375,-502.3115 2697,-489 2724.5513,-464.812 2753.2428,-432.221 2766.8735,-416.2063"/>
<polygon fill="#191970" stroke="#191970" points="2647.084,-522.5004 2640.7406,-530.9864 2650.9914,-528.3084 2647.084,-522.5004"/>
</g>
<!-- Node62 -->
<g id="node49" class="node">
<title>Node62</title>
<g id="a_node49"><a xlink:href="visualization__adaptor_8cc.html" target="_top" xlink:title="core/visualization\l/visualization_adaptor.cc">
<polygon fill="#ffffff" stroke="#000000" points="2266.5,-458.5 2266.5,-488.5 2391.5,-488.5 2391.5,-458.5 2266.5,-458.5"/>
<text text-anchor="start" x="2274.5" y="-476.5" font-family="Helvetica,sans-Serif" font-size="10.00" fill="#000000">core/visualization</text>
<text text-anchor="middle" x="2329" y="-465.5" font-family="Helvetica,sans-Serif" font-size="10.00" fill="#000000">/visualization_adaptor.cc</text>
</a>
</g>
</g>
<!-- Node48&#45;&gt;Node62 -->
<g id="edge134" class="edge">
<title>Node48&#45;&gt;Node62</title>
<path fill="none" stroke="#191970" d="M2573.9647,-528.7614C2523.1294,-517.2935 2445.7072,-499.8279 2391.547,-487.6099"/>
<polygon fill="#191970" stroke="#191970" points="2573.2375,-532.1852 2583.7626,-530.9717 2574.7779,-525.3568 2573.2375,-532.1852"/>
</g>
<!-- Node49&#45;&gt;Node8 -->
<g id="edge90" class="edge">
<title>Node49&#45;&gt;Node8</title>
<path fill="none" stroke="#191970" d="M987.5953,-403.6553C831.6601,-396.2732 433.4486,-375.6376 377,-355 354.8727,-346.9102 354.9966,-334.6867 334,-324 301.0211,-307.2146 261.4131,-294.2688 230.2309,-285.5551"/>
<polygon fill="#191970" stroke="#191970" points="987.7997,-407.1687 997.9533,-404.143 988.129,-400.1764 987.7997,-407.1687"/>
</g>
<!-- Node49&#45;&gt;Node11 -->
<g id="edge91" class="edge">
<title>Node49&#45;&gt;Node11</title>
<path fill="none" stroke="#191970" d="M987.6751,-403.7467C901.2236,-398.9154 740.4757,-386.2619 607,-355 535.5443,-338.2641 455.629,-306.4717 411.3201,-287.6155"/>
<polygon fill="#191970" stroke="#191970" points="987.668,-407.2514 997.8428,-404.2979 988.0469,-400.2616 987.668,-407.2514"/>
</g>
<!-- Node49&#45;&gt;Node29 -->
<g id="edge92" class="edge">
<title>Node49&#45;&gt;Node29</title>
<path fill="none" stroke="#191970" d="M1112.3883,-403.3451C1176.502,-400.1296 1279.213,-395.0529 1368,-391 1743.9488,-373.839 1838.6191,-381.8552 2214,-355 2243.751,-352.8716 2276.6548,-349.6748 2304.3841,-346.7364"/>
<polygon fill="#191970" stroke="#191970" points="1111.8605,-399.8671 1102.0486,-403.8643 1112.2116,-406.8582 1111.8605,-399.8671"/>
</g>
<!-- Node49&#45;&gt;Node33 -->
<g id="edge94" class="edge">
<title>Node49&#45;&gt;Node33</title>
<path fill="none" stroke="#191970" d="M1112.2779,-402.304C1334.9144,-386.9855 2083.3448,-332.6417 2181,-288 2217.5684,-271.2833 2248.7842,-233.2354 2262.1066,-215.2562"/>
<polygon fill="#191970" stroke="#191970" points="1111.8153,-398.8274 1102.0783,-403.0037 1112.2945,-405.811 1111.8153,-398.8274"/>
</g>
<!-- Node49&#45;&gt;Node36 -->
<g id="edge93" class="edge">
<title>Node49&#45;&gt;Node36</title>
<path fill="none" stroke="#191970" d="M1050,-386.624C1050,-357.3572 1050,-303.7914 1050,-282.0496"/>
<polygon fill="#191970" stroke="#191970" points="1046.5001,-386.863 1050,-396.8631 1053.5001,-386.8631 1046.5001,-386.863"/>
</g>
<!-- Node51&#45;&gt;Node55 -->
<g id="edge96" class="edge">
<title>Node51&#45;&gt;Node55</title>
<path fill="none" stroke="#191970" d="M3234,-453.6079C3234,-441.214 3234,-425.8263 3234,-416.0817"/>
<polygon fill="#191970" stroke="#191970" points="3230.5001,-453.9005 3234,-463.9005 3237.5001,-453.9006 3230.5001,-453.9005"/>
</g>
<!-- Node55&#45;&gt;Node7 -->
<g id="edge97" class="edge">
<title>Node55&#45;&gt;Node7</title>
<path fill="none" stroke="#191970" d="M3282.154,-393.9337C3336.3731,-376.5345 3417,-339.4119 3417,-272.5 3417,-272.5 3417,-272.5 3417,-138.5 3417,-108.557 3557.9341,-126.999 3247,-56 3123.9159,-27.8949 1124.2366,-12.3887 830.0312,-10.255"/>
<polygon fill="#191970" stroke="#191970" points="3280.8858,-390.6621 3272.3628,-396.9557 3282.9503,-397.3508 3280.8858,-390.6621"/>
</g>
<!-- Node55&#45;&gt;Node19 -->
<g id="edge100" class="edge">
<title>Node55&#45;&gt;Node19</title>
<path fill="none" stroke="#191970" d="M3233.1734,-386.3251C3231.8449,-357.542 3228.7776,-303.0725 3223,-257 3214.4935,-189.1664 3197.8814,-108.453 3192.0684,-81.1025"/>
<polygon fill="#191970" stroke="#191970" points="3229.6922,-386.8328 3233.6261,-396.6702 3236.6855,-386.5267 3229.6922,-386.8328"/>
</g>
<!-- Node55&#45;&gt;Node56 -->
<g id="edge98" class="edge">
<title>Node55&#45;&gt;Node56</title>
<path fill="none" stroke="#191970" d="M3179.1493,-396.2815C3169.442,-394.5008 3159.4267,-392.6815 3150,-391 3065.605,-375.946 2967.6707,-359.2183 2907.5218,-349.0293"/>
<polygon fill="#191970" stroke="#191970" points="3178.6479,-399.7479 3189.1163,-398.1158 3179.9149,-392.8636 3178.6479,-399.7479"/>
</g>
<!-- Node56&#45;&gt;Node18 -->
<g id="edge99" class="edge">
<title>Node56&#45;&gt;Node18</title>
<path fill="none" stroke="#191970" d="M2874.1597,-323.5058C2885.1169,-314.4964 2897.0761,-302.2043 2903,-288 2908.3033,-275.2838 2908.5223,-269.6227 2903,-257 2894.2073,-236.9019 2777.7949,-132.4557 2758,-123 2704.9869,-97.6766 2536.3616,-81.549 2453.2405,-74.9352"/>
<polygon fill="#191970" stroke="#191970" points="2871.87,-320.8518 2866.0926,-329.7328 2876.1472,-326.393 2871.87,-320.8518"/>
</g>
<!-- Node53&#45;&gt;Node19 -->
<g id="edge105" class="edge">
<title>Node53&#45;&gt;Node19</title>
<path fill="none" stroke="#191970" d="M3481.9206,-452.2875C3491.8989,-444.1522 3501.5844,-433.9157 3507,-422 3512.7007,-409.4569 3509.752,-404.5001 3507,-391 3481.1457,-264.1689 3491.2857,-207.2287 3393,-123 3369.9469,-103.244 3290.5838,-87.3475 3238.1879,-78.6822"/>
<polygon fill="#191970" stroke="#191970" points="3479.7794,-449.5186 3473.9313,-458.3533 3484.0123,-455.0938 3479.7794,-449.5186"/>
</g>
<!-- Node53&#45;&gt;Node29 -->
<g id="edge103" class="edge">
<title>Node53&#45;&gt;Node29</title>
<path fill="none" stroke="#191970" d="M3388.2508,-464.6843C3280.4452,-448.9121 3046.1692,-415.2496 2848,-391 2699.088,-372.7779 2523.7448,-354.8596 2431.7369,-345.7291"/>
<polygon fill="#191970" stroke="#191970" points="3387.8816,-468.1675 3398.2833,-466.1539 3388.8962,-461.2414 3387.8816,-468.1675"/>
</g>
<!-- Node54 -->
<g id="node45" class="node">
<title>Node54</title>
<g id="a_node45"><a xlink:href="so__uid__generator_8cc.html" target="_top" xlink:title="core/sim_object/so\l_uid_generator.cc">
<polygon fill="#ffffff" stroke="#000000" points="3398.5,-391.5 3398.5,-421.5 3497.5,-421.5 3497.5,-391.5 3398.5,-391.5"/>
<text text-anchor="start" x="3406.5" y="-409.5" font-family="Helvetica,sans-Serif" font-size="10.00" fill="#000000">core/sim_object/so</text>
<text text-anchor="middle" x="3448" y="-398.5" font-family="Helvetica,sans-Serif" font-size="10.00" fill="#000000">_uid_generator.cc</text>
</a>
</g>
</g>
<!-- Node53&#45;&gt;Node54 -->
<g id="edge104" class="edge">
<title>Node53&#45;&gt;Node54</title>
<path fill="none" stroke="#191970" d="M3448,-448.0249C3448,-439.128 3448,-429.4287 3448,-421.6432"/>
<polygon fill="#191970" stroke="#191970" points="3444.5001,-448.2966 3448,-458.2967 3451.5001,-448.2967 3444.5001,-448.2966"/>
</g>
<!-- Node57&#45;&gt;Node7 -->
<g id="edge109" class="edge">
<title>Node57&#45;&gt;Node7</title>
<path fill="none" stroke="#191970" d="M3557.7738,-117.6228C3527.6567,-97.4602 3478.5279,-68.2346 3431,-56 3299.2193,-22.077 1137.7879,-11.4881 830.2848,-10.1508"/>
<polygon fill="#191970" stroke="#191970" points="3555.8813,-120.5685 3566.117,-123.3037 3559.8211,-114.7824 3555.8813,-120.5685"/>
</g>
<!-- Node57&#45;&gt;Node19 -->
<g id="edge110" class="edge">
<title>Node57&#45;&gt;Node19</title>
<path fill="none" stroke="#191970" d="M3521.4,-123.8469C3519.9205,-123.5576 3518.4523,-123.2749 3517,-123 3418.3221,-104.3229 3301.9917,-87.1471 3238.0892,-78.126"/>
<polygon fill="#191970" stroke="#191970" points="3520.7853,-127.2933 3531.2795,-125.8368 3522.1675,-120.4311 3520.7853,-127.2933"/>
</g>
<!-- Node59&#45;&gt;Node19 -->
<g id="edge118" class="edge">
<title>Node59&#45;&gt;Node19</title>
<path fill="none" stroke="#191970" d="M3270.502,-123.3619C3250.3755,-110.3957 3222.0056,-92.119 3204.873,-81.0817"/>
<polygon fill="#191970" stroke="#191970" points="3268.7973,-126.427 3279.0993,-128.9005 3272.5883,-120.5425 3268.7973,-126.427"/>
</g>
<!-- Node60&#45;&gt;Node18 -->
<g id="edge128" class="edge">
<title>Node60&#45;&gt;Node18</title>
<path fill="none" stroke="#191970" d="M2771.4438,-386.7299C2769.2988,-369.1972 2768.689,-343.4306 2779,-324 2791.4999,-300.4445 2815.0743,-311.8514 2827,-288 2833.1616,-275.6768 2831.5546,-270.0032 2827,-257 2814.4029,-221.036 2752.883,-142.2564 2720,-123 2675.5478,-96.9687 2529.213,-81.533 2453.0341,-75.0704"/>
<polygon fill="#191970" stroke="#191970" points="2768.0269,-387.545 2772.9757,-396.913 2774.949,-386.5036 2768.0269,-387.545"/>
</g>
</g>
</svg>
