<?xml version="1.0" encoding="UTF-8" standalone="no"?>
<!DOCTYPE svg PUBLIC "-//W3C//DTD SVG 1.1//EN"
 "http://www.w3.org/Graphics/SVG/1.1/DTD/svg11.dtd">
<!-- Generated by graphviz version 2.36.0 (20140111.2315)
 -->
<!-- Title: bdm::Simulation&lt; TCTParam &gt; Pages: 1 -->
<svg width="1441pt" height="1394pt"
 viewBox="0.00 0.00 1441.00 1394.00" xmlns="http://www.w3.org/2000/svg" xmlns:xlink="http://www.w3.org/1999/xlink">
<g id="graph0" class="graph" transform="scale(1 1) rotate(0) translate(4 1390)">
<title>bdm::Simulation&lt; TCTParam &gt;</title>
<polygon fill="white" stroke="none" points="-4,4 -4,-1390 1437,-1390 1437,4 -4,4"/>
<!-- Node1 -->
<g id="node1" class="node"><title>Node1</title>
<polygon fill="#bfbfbf" stroke="black" points="672.5,-0.5 672.5,-431.5 825.5,-431.5 825.5,-0.5 672.5,-0.5"/>
<text text-anchor="middle" x="749" y="-419.5" font-family="Helvetica,sans-Serif" font-size="10.00">bdm::Simulation&lt; TCTParam &gt;</text>
<polyline fill="none" stroke="black" points="672.5,-412.5 825.5,-412.5 "/>
<text text-anchor="start" x="680.5" y="-400.5" font-family="Helvetica,sans-Serif" font-size="10.00">&#45; random_</text>
<text text-anchor="start" x="680.5" y="-389.5" font-family="Helvetica,sans-Serif" font-size="10.00">&#45; param_</text>
<text text-anchor="start" x="680.5" y="-378.5" font-family="Helvetica,sans-Serif" font-size="10.00">&#45; name_</text>
<text text-anchor="start" x="680.5" y="-367.5" font-family="Helvetica,sans-Serif" font-size="10.00">&#45; id_</text>
<text text-anchor="start" x="680.5" y="-356.5" font-family="Helvetica,sans-Serif" font-size="10.00">&#45; unique_name_</text>
<text text-anchor="start" x="680.5" y="-345.5" font-family="Helvetica,sans-Serif" font-size="10.00">&#45; output_dir_</text>
<text text-anchor="start" x="680.5" y="-334.5" font-family="Helvetica,sans-Serif" font-size="10.00">&#45; SimulationTest</text>
<text text-anchor="start" x="680.5" y="-323.5" font-family="Helvetica,sans-Serif" font-size="10.00">&#45; CatalystAdaptorTest</text>
<text text-anchor="start" x="680.5" y="-312.5" font-family="Helvetica,sans-Serif" font-size="10.00">&#45; active_</text>
<text text-anchor="start" x="680.5" y="-301.5" font-family="Helvetica,sans-Serif" font-size="10.00">&#45; counter_</text>
<polyline fill="none" stroke="black" points="672.5,-294.5 825.5,-294.5 "/>
<text text-anchor="start" x="680.5" y="-282.5" font-family="Helvetica,sans-Serif" font-size="10.00">+ Simulation()</text>
<text text-anchor="start" x="680.5" y="-271.5" font-family="Helvetica,sans-Serif" font-size="10.00">+ Simulation()</text>
<text text-anchor="start" x="680.5" y="-260.5" font-family="Helvetica,sans-Serif" font-size="10.00">+ Simulation()</text>
<text text-anchor="start" x="680.5" y="-249.5" font-family="Helvetica,sans-Serif" font-size="10.00">+ Simulation()</text>
<text text-anchor="start" x="680.5" y="-238.5" font-family="Helvetica,sans-Serif" font-size="10.00">+ Simulation()</text>
<text text-anchor="start" x="680.5" y="-227.5" font-family="Helvetica,sans-Serif" font-size="10.00">+ ~Simulation()</text>
<text text-anchor="start" x="680.5" y="-216.5" font-family="Helvetica,sans-Serif" font-size="10.00">+ Restore()</text>
<text text-anchor="start" x="680.5" y="-205.5" font-family="Helvetica,sans-Serif" font-size="10.00">+ Activate()</text>
<text text-anchor="start" x="680.5" y="-194.5" font-family="Helvetica,sans-Serif" font-size="10.00">+ GetResourceManager()</text>
<text text-anchor="start" x="680.5" y="-183.5" font-family="Helvetica,sans-Serif" font-size="10.00">+ GetParam()</text>
<text text-anchor="start" x="680.5" y="-172.5" font-family="Helvetica,sans-Serif" font-size="10.00">and 10 more...</text>
<text text-anchor="start" x="680.5" y="-161.5" font-family="Helvetica,sans-Serif" font-size="10.00">+ GetActive()</text>
<text text-anchor="start" x="680.5" y="-150.5" font-family="Helvetica,sans-Serif" font-size="10.00">+ Class()</text>
<text text-anchor="start" x="680.5" y="-139.5" font-family="Helvetica,sans-Serif" font-size="10.00">+ Class_Name()</text>
<text text-anchor="start" x="680.5" y="-128.5" font-family="Helvetica,sans-Serif" font-size="10.00">+ Class_Version()</text>
<text text-anchor="start" x="680.5" y="-117.5" font-family="Helvetica,sans-Serif" font-size="10.00">+ Dictionary()</text>
<text text-anchor="start" x="680.5" y="-106.5" font-family="Helvetica,sans-Serif" font-size="10.00">+ DeclFileName()</text>
<text text-anchor="start" x="680.5" y="-95.5" font-family="Helvetica,sans-Serif" font-size="10.00">+ ImplFileLine()</text>
<text text-anchor="start" x="680.5" y="-84.5" font-family="Helvetica,sans-Serif" font-size="10.00">+ ImplFileName()</text>
<text text-anchor="start" x="680.5" y="-73.5" font-family="Helvetica,sans-Serif" font-size="10.00">+ DeclFileLine()</text>
<text text-anchor="start" x="680.5" y="-62.5" font-family="Helvetica,sans-Serif" font-size="10.00">&#45; Initialize()</text>
<text text-anchor="start" x="680.5" y="-51.5" font-family="Helvetica,sans-Serif" font-size="10.00">&#45; InitializeMembers()</text>
<text text-anchor="start" x="680.5" y="-40.5" font-family="Helvetica,sans-Serif" font-size="10.00">&#45; ExtractSimulationName()</text>
<text text-anchor="start" x="680.5" y="-29.5" font-family="Helvetica,sans-Serif" font-size="10.00">&#45; InitializeRuntimeParams()</text>
<text text-anchor="start" x="680.5" y="-18.5" font-family="Helvetica,sans-Serif" font-size="10.00">&#45; InitializeUniqueName()</text>
<text text-anchor="start" x="680.5" y="-7.5" font-family="Helvetica,sans-Serif" font-size="10.00">&#45; InitializeOutputDir()</text>
</g>
<!-- Node2 -->
<g id="node2" class="node"><title>Node2</title>
<g id="a_node2"><a xlink:href="classbdm_1_1Grid.html" target="_top" xlink:title="{bdm::Grid\&lt; bdm::Simulation \&gt;\n|&#45; boxes_\l&#45; box_length_\l&#45; num_boxes_axis_\l&#45; adjacency_\l&#45; largest_object_size_\l&#45; grid_dimensions_\l&#45; threshold_dimensions_\l&#45; has_grown_\l&#45; initialized_\l|+ Grid()\l+ Grid()\l+ operator=()\l+ Initialize()\l+ ~Grid()\l+ ClearGrid()\l+ UpdateGrid()\l+ CheckGridGrowth()\l+ CalculateGridDimensions()\l+ RoundOffGridDimensions()\land 17 more...\l&#45; GetBoxIndex()\l&#45; GetMooreBoxes()\l&#45; GetHalfMooreBoxIndices()\l&#45; GetBoxPointer()\l&#45; GetBoxPointer()\l&#45; GetSoHandles()\l&#45; CacheSoHandles()\l&#45; CachePositions()\l&#45; UpdateSoHandles()\l&#45; UpdateCachedPositions()\l&#45; ForEachNeighborPairWithCenterBox()\l}">
<polygon fill="white" stroke="black" points="124,-481 124,-857 312,-857 312,-481 124,-481"/>
<text text-anchor="middle" x="218" y="-845" font-family="Helvetica,sans-Serif" font-size="10.00">bdm::Grid&lt; bdm::Simulation &gt;</text>
<polyline fill="none" stroke="black" points="124,-838 312,-838 "/>
<text text-anchor="start" x="132" y="-826" font-family="Helvetica,sans-Serif" font-size="10.00">&#45; boxes_</text>
<text text-anchor="start" x="132" y="-815" font-family="Helvetica,sans-Serif" font-size="10.00">&#45; box_length_</text>
<text text-anchor="start" x="132" y="-804" font-family="Helvetica,sans-Serif" font-size="10.00">&#45; num_boxes_axis_</text>
<text text-anchor="start" x="132" y="-793" font-family="Helvetica,sans-Serif" font-size="10.00">&#45; adjacency_</text>
<text text-anchor="start" x="132" y="-782" font-family="Helvetica,sans-Serif" font-size="10.00">&#45; largest_object_size_</text>
<text text-anchor="start" x="132" y="-771" font-family="Helvetica,sans-Serif" font-size="10.00">&#45; grid_dimensions_</text>
<text text-anchor="start" x="132" y="-760" font-family="Helvetica,sans-Serif" font-size="10.00">&#45; threshold_dimensions_</text>
<text text-anchor="start" x="132" y="-749" font-family="Helvetica,sans-Serif" font-size="10.00">&#45; has_grown_</text>
<text text-anchor="start" x="132" y="-738" font-family="Helvetica,sans-Serif" font-size="10.00">&#45; initialized_</text>
<polyline fill="none" stroke="black" points="124,-731 312,-731 "/>
<text text-anchor="start" x="132" y="-719" font-family="Helvetica,sans-Serif" font-size="10.00">+ Grid()</text>
<text text-anchor="start" x="132" y="-708" font-family="Helvetica,sans-Serif" font-size="10.00">+ Grid()</text>
<text text-anchor="start" x="132" y="-697" font-family="Helvetica,sans-Serif" font-size="10.00">+ operator=()</text>
<text text-anchor="start" x="132" y="-686" font-family="Helvetica,sans-Serif" font-size="10.00">+ Initialize()</text>
<text text-anchor="start" x="132" y="-675" font-family="Helvetica,sans-Serif" font-size="10.00">+ ~Grid()</text>
<text text-anchor="start" x="132" y="-664" font-family="Helvetica,sans-Serif" font-size="10.00">+ ClearGrid()</text>
<text text-anchor="start" x="132" y="-653" font-family="Helvetica,sans-Serif" font-size="10.00">+ UpdateGrid()</text>
<text text-anchor="start" x="132" y="-642" font-family="Helvetica,sans-Serif" font-size="10.00">+ CheckGridGrowth()</text>
<text text-anchor="start" x="132" y="-631" font-family="Helvetica,sans-Serif" font-size="10.00">+ CalculateGridDimensions()</text>
<text text-anchor="start" x="132" y="-620" font-family="Helvetica,sans-Serif" font-size="10.00">+ RoundOffGridDimensions()</text>
<text text-anchor="start" x="132" y="-609" font-family="Helvetica,sans-Serif" font-size="10.00">and 17 more...</text>
<text text-anchor="start" x="132" y="-598" font-family="Helvetica,sans-Serif" font-size="10.00">&#45; GetBoxIndex()</text>
<text text-anchor="start" x="132" y="-587" font-family="Helvetica,sans-Serif" font-size="10.00">&#45; GetMooreBoxes()</text>
<text text-anchor="start" x="132" y="-576" font-family="Helvetica,sans-Serif" font-size="10.00">&#45; GetHalfMooreBoxIndices()</text>
<text text-anchor="start" x="132" y="-565" font-family="Helvetica,sans-Serif" font-size="10.00">&#45; GetBoxPointer()</text>
<text text-anchor="start" x="132" y="-554" font-family="Helvetica,sans-Serif" font-size="10.00">&#45; GetBoxPointer()</text>
<text text-anchor="start" x="132" y="-543" font-family="Helvetica,sans-Serif" font-size="10.00">&#45; GetSoHandles()</text>
<text text-anchor="start" x="132" y="-532" font-family="Helvetica,sans-Serif" font-size="10.00">&#45; CacheSoHandles()</text>
<text text-anchor="start" x="132" y="-521" font-family="Helvetica,sans-Serif" font-size="10.00">&#45; CachePositions()</text>
<text text-anchor="start" x="132" y="-510" font-family="Helvetica,sans-Serif" font-size="10.00">&#45; UpdateSoHandles()</text>
<text text-anchor="start" x="132" y="-499" font-family="Helvetica,sans-Serif" font-size="10.00">&#45; UpdateCachedPositions()</text>
<text text-anchor="start" x="132" y="-488" font-family="Helvetica,sans-Serif" font-size="10.00">&#45; ForEachNeighborPairWithCenterBox()</text>
</a>
</g>
</g>
<!-- Node2&#45;&gt;Node1 -->
<g id="edge1" class="edge"><title>Node2&#45;&gt;Node1</title>
<path fill="none" stroke="#404040" d="M312.015,-588.149C411.327,-503.799 566.592,-371.927 662.83,-290.188"/>
<polygon fill="none" stroke="#404040" points="663.097,-289.961 665.081,-283.028 672.243,-282.193 670.259,-289.126 663.097,-289.961"/>
<text text-anchor="middle" x="482" y="-453.5" font-family="Helvetica,sans-Serif" font-size="10.00"> &#45;grid_</text>
</g>
<!-- Node3 -->
<g id="node3" class="node"><title>Node3</title>
<g id="a_node3"><a xlink:href="classbdm_1_1SimulationObjectVector.html" target="_top" xlink:title="{bdm::SimulationObjectVector\l\&lt; bdm::SoHandle, bdm::Simulation \&gt;\n|&#45; data_\l|+ SimulationObjectVector()\l+ Initialize()\l+ clear()\l+ size()\l+ size()\l+ operator[]()\l+ operator[]()\l}">
<polygon fill="white" stroke="black" points="-0.5,-934 -0.5,-1068 178.5,-1068 178.5,-934 -0.5,-934"/>
<text text-anchor="start" x="7.5" y="-1056" font-family="Helvetica,sans-Serif" font-size="10.00">bdm::SimulationObjectVector</text>
<text text-anchor="middle" x="89" y="-1045" font-family="Helvetica,sans-Serif" font-size="10.00">&lt; bdm::SoHandle, bdm::Simulation &gt;</text>
<polyline fill="none" stroke="black" points="-0.5,-1038 178.5,-1038 "/>
<text text-anchor="start" x="7.5" y="-1026" font-family="Helvetica,sans-Serif" font-size="10.00">&#45; data_</text>
<polyline fill="none" stroke="black" points="-0.5,-1019 178.5,-1019 "/>
<text text-anchor="start" x="7.5" y="-1007" font-family="Helvetica,sans-Serif" font-size="10.00">+ SimulationObjectVector()</text>
<text text-anchor="start" x="7.5" y="-996" font-family="Helvetica,sans-Serif" font-size="10.00">+ Initialize()</text>
<text text-anchor="start" x="7.5" y="-985" font-family="Helvetica,sans-Serif" font-size="10.00">+ clear()</text>
<text text-anchor="start" x="7.5" y="-974" font-family="Helvetica,sans-Serif" font-size="10.00">+ size()</text>
<text text-anchor="start" x="7.5" y="-963" font-family="Helvetica,sans-Serif" font-size="10.00">+ size()</text>
<text text-anchor="start" x="7.5" y="-952" font-family="Helvetica,sans-Serif" font-size="10.00">+ operator[]()</text>
<text text-anchor="start" x="7.5" y="-941" font-family="Helvetica,sans-Serif" font-size="10.00">+ operator[]()</text>
</a>
</g>
</g>
<!-- Node3&#45;&gt;Node2 -->
<g id="edge2" class="edge"><title>Node3&#45;&gt;Node2</title>
<path fill="none" stroke="#404040" d="M114.95,-933.617C122.537,-914.207 131.249,-891.922 140.324,-868.707"/>
<polygon fill="none" stroke="#404040" points="140.436,-868.42 138.895,-861.376 144.805,-857.244 146.346,-864.288 140.436,-868.42"/>
<text text-anchor="middle" x="166" y="-879.5" font-family="Helvetica,sans-Serif" font-size="10.00"> &#45;successors_</text>
</g>
<!-- Node4 -->
<g id="node4" class="node"><title>Node4</title>
<polygon fill="white" stroke="#bfbfbf" points="196.5,-972.5 196.5,-1029.5 239.5,-1029.5 239.5,-972.5 196.5,-972.5"/>
<text text-anchor="middle" x="218" y="-1017.5" font-family="Helvetica,sans-Serif" font-size="10.00">size_t</text>
<polyline fill="none" stroke="#bfbfbf" points="196.5,-1010.5 239.5,-1010.5 "/>
<text text-anchor="middle" x="218" y="-998.5" font-family="Helvetica,sans-Serif" font-size="10.00"> </text>
<polyline fill="none" stroke="#bfbfbf" points="196.5,-991.5 239.5,-991.5 "/>
<text text-anchor="middle" x="218" y="-979.5" font-family="Helvetica,sans-Serif" font-size="10.00"> </text>
</g>
<!-- Node4&#45;&gt;Node2 -->
<g id="edge3" class="edge"><title>Node4&#45;&gt;Node2</title>
<path fill="none" stroke="#404040" d="M218,-972.432C218,-948.111 218,-910.268 218,-869.483"/>
<polygon fill="none" stroke="#404040" points="218,-869.329 214,-863.329 218,-857.329 222,-863.329 218,-869.329"/>
<text text-anchor="middle" x="257" y="-879.5" font-family="Helvetica,sans-Serif" font-size="10.00"> &#45;num_boxes_xy_</text>
</g>
<!-- Node5 -->
<g id="node5" class="node"><title>Node5</title>
<g id="a_node5"><a xlink:href="classbdm_1_1Scheduler.html" target="_top" xlink:title="{bdm::Scheduler\&lt; bdm\l::Simulation \&gt;\n|# total_steps_\l&#45; restore_point_\l&#45; last_backup_\l&#45; is_gpu_environment\l_initialized_\l|+ Scheduler()\l+ ~Scheduler()\l+ Simulate()\l+ GetSimulatedSteps()\l# Execute()\l&#45; Backup()\l&#45; Restore()\l&#45; CommitChangesAndUpdateReferences()\l&#45; Initialize()\l}">
<polygon fill="white" stroke="black" points="648.5,-569 648.5,-769 849.5,-769 849.5,-569 648.5,-569"/>
<text text-anchor="start" x="656.5" y="-757" font-family="Helvetica,sans-Serif" font-size="10.00">bdm::Scheduler&lt; bdm</text>
<text text-anchor="middle" x="749" y="-746" font-family="Helvetica,sans-Serif" font-size="10.00">::Simulation &gt;</text>
<polyline fill="none" stroke="black" points="648.5,-739 849.5,-739 "/>
<text text-anchor="start" x="656.5" y="-727" font-family="Helvetica,sans-Serif" font-size="10.00"># total_steps_</text>
<text text-anchor="start" x="656.5" y="-716" font-family="Helvetica,sans-Serif" font-size="10.00">&#45; restore_point_</text>
<text text-anchor="start" x="656.5" y="-705" font-family="Helvetica,sans-Serif" font-size="10.00">&#45; last_backup_</text>
<text text-anchor="start" x="656.5" y="-694" font-family="Helvetica,sans-Serif" font-size="10.00">&#45; is_gpu_environment</text>
<text text-anchor="start" x="656.5" y="-683" font-family="Helvetica,sans-Serif" font-size="10.00">_initialized_</text>
<polyline fill="none" stroke="black" points="648.5,-676 849.5,-676 "/>
<text text-anchor="start" x="656.5" y="-664" font-family="Helvetica,sans-Serif" font-size="10.00">+ Scheduler()</text>
<text text-anchor="start" x="656.5" y="-653" font-family="Helvetica,sans-Serif" font-size="10.00">+ ~Scheduler()</text>
<text text-anchor="start" x="656.5" y="-642" font-family="Helvetica,sans-Serif" font-size="10.00">+ Simulate()</text>
<text text-anchor="start" x="656.5" y="-631" font-family="Helvetica,sans-Serif" font-size="10.00">+ GetSimulatedSteps()</text>
<text text-anchor="start" x="656.5" y="-620" font-family="Helvetica,sans-Serif" font-size="10.00"># Execute()</text>
<text text-anchor="start" x="656.5" y="-609" font-family="Helvetica,sans-Serif" font-size="10.00">&#45; Backup()</text>
<text text-anchor="start" x="656.5" y="-598" font-family="Helvetica,sans-Serif" font-size="10.00">&#45; Restore()</text>
<text text-anchor="start" x="656.5" y="-587" font-family="Helvetica,sans-Serif" font-size="10.00">&#45; CommitChangesAndUpdateReferences()</text>
<text text-anchor="start" x="656.5" y="-576" font-family="Helvetica,sans-Serif" font-size="10.00">&#45; Initialize()</text>
</a>
</g>
</g>
<!-- Node5&#45;&gt;Node1 -->
<g id="edge4" class="edge"><title>Node5&#45;&gt;Node1</title>
<path fill="none" stroke="#404040" d="M749,-568.747C749,-531.568 749,-487.633 749,-443.64"/>
<polygon fill="none" stroke="#404040" points="749,-443.543 745,-437.543 749,-431.543 753,-437.543 749,-443.543"/>
<text text-anchor="middle" x="776" y="-453.5" font-family="Helvetica,sans-Serif" font-size="10.00"> &#45;scheduler_</text>
</g>
<!-- Node6 -->
<g id="node6" class="node"><title>Node6</title>
<g id="a_node6"><a xlink:href="classbdm_1_1CatalystAdaptor.html" target="_top" xlink:title="False front (to ignore Catalyst in gtests) ">
<polygon fill="white" stroke="black" points="258,-934 258,-1068 410,-1068 410,-934 258,-934"/>
<text text-anchor="start" x="266" y="-1056" font-family="Helvetica,sans-Serif" font-size="10.00">bdm::CatalystAdaptor</text>
<text text-anchor="middle" x="334" y="-1045" font-family="Helvetica,sans-Serif" font-size="10.00">&lt; TSimulation &gt;</text>
<polyline fill="none" stroke="black" points="258,-1038 410,-1038 "/>
<text text-anchor="middle" x="334" y="-1026" font-family="Helvetica,sans-Serif" font-size="10.00"> </text>
<polyline fill="none" stroke="black" points="258,-1019 410,-1019 "/>
<text text-anchor="start" x="266" y="-1007" font-family="Helvetica,sans-Serif" font-size="10.00">+ CatalystAdaptor()</text>
<text text-anchor="start" x="266" y="-996" font-family="Helvetica,sans-Serif" font-size="10.00">+ Visualize()</text>
<text text-anchor="start" x="266" y="-985" font-family="Helvetica,sans-Serif" font-size="10.00">&#45; LiveVisualization()</text>
<text text-anchor="start" x="266" y="-974" font-family="Helvetica,sans-Serif" font-size="10.00">&#45; ExportVisualization()</text>
<text text-anchor="start" x="266" y="-963" font-family="Helvetica,sans-Serif" font-size="10.00">&#45; WriteToFile()</text>
<text text-anchor="start" x="266" y="-952" font-family="Helvetica,sans-Serif" font-size="10.00">&#45; GenerateSimulationInfoJson()</text>
<text text-anchor="start" x="266" y="-941" font-family="Helvetica,sans-Serif" font-size="10.00">&#45; GenerateParaviewState()</text>
</a>
</g>
</g>
<!-- Node6&#45;&gt;Node5 -->
<g id="edge5" class="edge"><title>Node6&#45;&gt;Node5</title>
<path fill="none" stroke="#404040" d="M390.795,-933.531C399.904,-923.963 409.476,-914.493 419,-906 487.628,-844.802 572.08,-784.648 638.369,-740.387"/>
<polygon fill="none" stroke="#404040" points="638.437,-740.342 641.219,-733.69 648.43,-733.699 645.648,-740.352 638.437,-740.342"/>
<text text-anchor="middle" x="486" y="-879.5" font-family="Helvetica,sans-Serif" font-size="10.00"> &#45;visualization_</text>
</g>
<!-- Node7 -->
<g id="node7" class="node"><title>Node7</title>
<g id="a_node7"><a xlink:href="structbdm_1_1OpTimer.html" target="_top" xlink:title="{bdm::OpTimer\&lt; bdm::\lDiffusionOp \&gt;\n|&#45; timer_msg_\l|+ OpTimer()\l+ OpTimer()\l+ operator()()\l+ operator&#45;\&gt;()\l+ operator&#45;\&gt;()\l}">
<polygon fill="white" stroke="black" points="428.5,-945 428.5,-1057 541.5,-1057 541.5,-945 428.5,-945"/>
<text text-anchor="start" x="436.5" y="-1045" font-family="Helvetica,sans-Serif" font-size="10.00">bdm::OpTimer&lt; bdm::</text>
<text text-anchor="middle" x="485" y="-1034" font-family="Helvetica,sans-Serif" font-size="10.00">DiffusionOp &gt;</text>
<polyline fill="none" stroke="black" points="428.5,-1027 541.5,-1027 "/>
<text text-anchor="start" x="436.5" y="-1015" font-family="Helvetica,sans-Serif" font-size="10.00">&#45; timer_msg_</text>
<polyline fill="none" stroke="black" points="428.5,-1008 541.5,-1008 "/>
<text text-anchor="start" x="436.5" y="-996" font-family="Helvetica,sans-Serif" font-size="10.00">+ OpTimer()</text>
<text text-anchor="start" x="436.5" y="-985" font-family="Helvetica,sans-Serif" font-size="10.00">+ OpTimer()</text>
<text text-anchor="start" x="436.5" y="-974" font-family="Helvetica,sans-Serif" font-size="10.00">+ operator()()</text>
<text text-anchor="start" x="436.5" y="-963" font-family="Helvetica,sans-Serif" font-size="10.00">+ operator&#45;&gt;()</text>
<text text-anchor="start" x="436.5" y="-952" font-family="Helvetica,sans-Serif" font-size="10.00">+ operator&#45;&gt;()</text>
</a>
</g>
</g>
<!-- Node7&#45;&gt;Node5 -->
<g id="edge6" class="edge"><title>Node7&#45;&gt;Node5</title>
<path fill="none" stroke="#404040" d="M521.941,-944.693C530.894,-931.823 540.6,-918.294 550,-906 582.623,-863.333 620.2,-817.905 653.854,-778.416"/>
<polygon fill="none" stroke="#404040" points="654.072,-778.161 654.928,-771.001 661.867,-769.038 661.01,-776.198 654.072,-778.161"/>
<text text-anchor="middle" x="595.5" y="-879.5" font-family="Helvetica,sans-Serif" font-size="10.00"> &#45;diffusion_</text>
</g>
<!-- Node8 -->
<g id="node8" class="node"><title>Node8</title>
<g id="a_node8"><a xlink:href="classbdm_1_1DiffusionOp.html" target="_top" xlink:title="A class that sets up diffusion grids of the substances in this simulation. ">
<polygon fill="white" stroke="black" points="438.5,-1155.5 438.5,-1234.5 531.5,-1234.5 531.5,-1155.5 438.5,-1155.5"/>
<text text-anchor="middle" x="485" y="-1222.5" font-family="Helvetica,sans-Serif" font-size="10.00">bdm::DiffusionOp</text>
<polyline fill="none" stroke="black" points="438.5,-1215.5 531.5,-1215.5 "/>
<text text-anchor="middle" x="485" y="-1203.5" font-family="Helvetica,sans-Serif" font-size="10.00"> </text>
<polyline fill="none" stroke="black" points="438.5,-1196.5 531.5,-1196.5 "/>
<text text-anchor="start" x="446.5" y="-1184.5" font-family="Helvetica,sans-Serif" font-size="10.00">+ DiffusionOp()</text>
<text text-anchor="start" x="446.5" y="-1173.5" font-family="Helvetica,sans-Serif" font-size="10.00">+ ~DiffusionOp()</text>
<text text-anchor="start" x="446.5" y="-1162.5" font-family="Helvetica,sans-Serif" font-size="10.00">+ operator()()</text>
</a>
</g>
</g>
<!-- Node8&#45;&gt;Node7 -->
<g id="edge7" class="edge"><title>Node8&#45;&gt;Node7</title>
<path fill="none" stroke="#404040" d="M485,-1155.15C485,-1130.51 485,-1097.97 485,-1069.22"/>
<polygon fill="none" stroke="#404040" points="485,-1069.17 481,-1063.17 485,-1057.17 489,-1063.17 485,-1069.17"/>
<text text-anchor="middle" x="511" y="-1117.5" font-family="Helvetica,sans-Serif" font-size="10.00"> &#45;operation_</text>
</g>
<!-- Node9 -->
<g id="node9" class="node"><title>Node9</title>
<g id="a_node9"><a xlink:href="structbdm_1_1OpTimer.html" target="_top" xlink:title="{bdm::OpTimer\&lt; bdm::\lCommitOp \&gt;\n|&#45; timer_msg_\l|+ OpTimer()\l+ OpTimer()\l+ operator()()\l+ operator&#45;\&gt;()\l+ operator&#45;\&gt;()\l}">
<polygon fill="white" stroke="black" points="559.5,-945 559.5,-1057 672.5,-1057 672.5,-945 559.5,-945"/>
<text text-anchor="start" x="567.5" y="-1045" font-family="Helvetica,sans-Serif" font-size="10.00">bdm::OpTimer&lt; bdm::</text>
<text text-anchor="middle" x="616" y="-1034" font-family="Helvetica,sans-Serif" font-size="10.00">CommitOp &gt;</text>
<polyline fill="none" stroke="black" points="559.5,-1027 672.5,-1027 "/>
<text text-anchor="start" x="567.5" y="-1015" font-family="Helvetica,sans-Serif" font-size="10.00">&#45; timer_msg_</text>
<polyline fill="none" stroke="black" points="559.5,-1008 672.5,-1008 "/>
<text text-anchor="start" x="567.5" y="-996" font-family="Helvetica,sans-Serif" font-size="10.00">+ OpTimer()</text>
<text text-anchor="start" x="567.5" y="-985" font-family="Helvetica,sans-Serif" font-size="10.00">+ OpTimer()</text>
<text text-anchor="start" x="567.5" y="-974" font-family="Helvetica,sans-Serif" font-size="10.00">+ operator()()</text>
<text text-anchor="start" x="567.5" y="-963" font-family="Helvetica,sans-Serif" font-size="10.00">+ operator&#45;&gt;()</text>
<text text-anchor="start" x="567.5" y="-952" font-family="Helvetica,sans-Serif" font-size="10.00">+ operator&#45;&gt;()</text>
</a>
</g>
</g>
<!-- Node9&#45;&gt;Node5 -->
<g id="edge8" class="edge"><title>Node9&#45;&gt;Node5</title>
<path fill="none" stroke="#404040" d="M638.261,-944.765C656.283,-900.049 682.239,-835.648 704.492,-780.434"/>
<polygon fill="none" stroke="#404040" points="704.549,-780.292 703.082,-773.232 709.035,-769.162 710.502,-776.222 704.549,-780.292"/>
<text text-anchor="middle" x="685" y="-879.5" font-family="Helvetica,sans-Serif" font-size="10.00"> &#45;commit_</text>
</g>
<!-- Node10 -->
<g id="node10" class="node"><title>Node10</title>
<g id="a_node10"><a xlink:href="classbdm_1_1CommitOp.html" target="_top" xlink:title="{bdm::CommitOp\n|&#45; update_info_\l|+ CommitOp()\l+ ~CommitOp()\l+ operator()()\l+ Reset()\l+ GetUpdateInfo()\l}">
<polygon fill="white" stroke="black" points="564.5,-1144.5 564.5,-1245.5 659.5,-1245.5 659.5,-1144.5 564.5,-1144.5"/>
<text text-anchor="middle" x="612" y="-1233.5" font-family="Helvetica,sans-Serif" font-size="10.00">bdm::CommitOp</text>
<polyline fill="none" stroke="black" points="564.5,-1226.5 659.5,-1226.5 "/>
<text text-anchor="start" x="572.5" y="-1214.5" font-family="Helvetica,sans-Serif" font-size="10.00">&#45; update_info_</text>
<polyline fill="none" stroke="black" points="564.5,-1207.5 659.5,-1207.5 "/>
<text text-anchor="start" x="572.5" y="-1195.5" font-family="Helvetica,sans-Serif" font-size="10.00">+ CommitOp()</text>
<text text-anchor="start" x="572.5" y="-1184.5" font-family="Helvetica,sans-Serif" font-size="10.00">+ ~CommitOp()</text>
<text text-anchor="start" x="572.5" y="-1173.5" font-family="Helvetica,sans-Serif" font-size="10.00">+ operator()()</text>
<text text-anchor="start" x="572.5" y="-1162.5" font-family="Helvetica,sans-Serif" font-size="10.00">+ Reset()</text>
<text text-anchor="start" x="572.5" y="-1151.5" font-family="Helvetica,sans-Serif" font-size="10.00">+ GetUpdateInfo()</text>
</a>
</g>
</g>
<!-- Node10&#45;&gt;Node9 -->
<g id="edge9" class="edge"><title>Node10&#45;&gt;Node9</title>
<path fill="none" stroke="#404040" d="M613.041,-1144.06C613.516,-1121.24 614.086,-1093.88 614.598,-1069.29"/>
<polygon fill="none" stroke="#404040" points="614.602,-1069.1 610.728,-1063.02 614.852,-1057.1 618.726,-1063.18 614.602,-1069.1"/>
<text text-anchor="middle" x="640" y="-1117.5" font-family="Helvetica,sans-Serif" font-size="10.00"> &#45;operation_</text>
</g>
<!-- Node11 -->
<g id="node11" class="node"><title>Node11</title>
<g id="a_node11"><a xlink:href="structbdm_1_1OpTimer.html" target="_top" xlink:title="{bdm::OpTimer\&lt; bdm::\lDisplacementOp\&lt; bdm\l::Simulation \&gt; \&gt;\n|&#45; timer_msg_\l|+ OpTimer()\l+ OpTimer()\l+ operator()()\l+ operator&#45;\&gt;()\l+ operator&#45;\&gt;()\l}">
<polygon fill="white" stroke="black" points="690.5,-939.5 690.5,-1062.5 807.5,-1062.5 807.5,-939.5 690.5,-939.5"/>
<text text-anchor="start" x="698.5" y="-1050.5" font-family="Helvetica,sans-Serif" font-size="10.00">bdm::OpTimer&lt; bdm::</text>
<text text-anchor="start" x="698.5" y="-1039.5" font-family="Helvetica,sans-Serif" font-size="10.00">DisplacementOp&lt; bdm</text>
<text text-anchor="middle" x="749" y="-1028.5" font-family="Helvetica,sans-Serif" font-size="10.00">::Simulation &gt; &gt;</text>
<polyline fill="none" stroke="black" points="690.5,-1021.5 807.5,-1021.5 "/>
<text text-anchor="start" x="698.5" y="-1009.5" font-family="Helvetica,sans-Serif" font-size="10.00">&#45; timer_msg_</text>
<polyline fill="none" stroke="black" points="690.5,-1002.5 807.5,-1002.5 "/>
<text text-anchor="start" x="698.5" y="-990.5" font-family="Helvetica,sans-Serif" font-size="10.00">+ OpTimer()</text>
<text text-anchor="start" x="698.5" y="-979.5" font-family="Helvetica,sans-Serif" font-size="10.00">+ OpTimer()</text>
<text text-anchor="start" x="698.5" y="-968.5" font-family="Helvetica,sans-Serif" font-size="10.00">+ operator()()</text>
<text text-anchor="start" x="698.5" y="-957.5" font-family="Helvetica,sans-Serif" font-size="10.00">+ operator&#45;&gt;()</text>
<text text-anchor="start" x="698.5" y="-946.5" font-family="Helvetica,sans-Serif" font-size="10.00">+ operator&#45;&gt;()</text>
</a>
</g>
</g>
<!-- Node11&#45;&gt;Node5 -->
<g id="edge10" class="edge"><title>Node11&#45;&gt;Node5</title>
<path fill="none" stroke="#404040" d="M749,-939.473C749,-895.281 749,-834.104 749,-781.209"/>
<polygon fill="none" stroke="#404040" points="749,-781.011 745,-775.011 749,-769.011 753,-775.011 749,-781.011"/>
<text text-anchor="middle" x="772" y="-879.5" font-family="Helvetica,sans-Serif" font-size="10.00"> &#45;physics_</text>
</g>
<!-- Node12 -->
<g id="node12" class="node"><title>Node12</title>
<g id="a_node12"><a xlink:href="classbdm_1_1DisplacementOp.html" target="_top" xlink:title="{bdm::DisplacementOp\l\&lt; bdm::Simulation \&gt;\n|&#45; force_cpu_implementation_\l|+ DisplacementOp()\l+ ~DisplacementOp()\l+ operator()()\l}">
<polygon fill="white" stroke="black" points="678,-1150 678,-1240 820,-1240 820,-1150 678,-1150"/>
<text text-anchor="start" x="686" y="-1228" font-family="Helvetica,sans-Serif" font-size="10.00">bdm::DisplacementOp</text>
<text text-anchor="middle" x="749" y="-1217" font-family="Helvetica,sans-Serif" font-size="10.00">&lt; bdm::Simulation &gt;</text>
<polyline fill="none" stroke="black" points="678,-1210 820,-1210 "/>
<text text-anchor="start" x="686" y="-1198" font-family="Helvetica,sans-Serif" font-size="10.00">&#45; force_cpu_implementation_</text>
<polyline fill="none" stroke="black" points="678,-1191 820,-1191 "/>
<text text-anchor="start" x="686" y="-1179" font-family="Helvetica,sans-Serif" font-size="10.00">+ DisplacementOp()</text>
<text text-anchor="start" x="686" y="-1168" font-family="Helvetica,sans-Serif" font-size="10.00">+ ~DisplacementOp()</text>
<text text-anchor="start" x="686" y="-1157" font-family="Helvetica,sans-Serif" font-size="10.00">+ operator()()</text>
</a>
</g>
</g>
<!-- Node12&#45;&gt;Node11 -->
<g id="edge11" class="edge"><title>Node12&#45;&gt;Node11</title>
<path fill="none" stroke="#404040" d="M749,-1149.95C749,-1127.69 749,-1100.09 749,-1074.78"/>
<polygon fill="none" stroke="#404040" points="749,-1074.57 745,-1068.57 749,-1062.57 753,-1068.57 749,-1074.57"/>
<text text-anchor="middle" x="775" y="-1117.5" font-family="Helvetica,sans-Serif" font-size="10.00"> &#45;operation_</text>
</g>
<!-- Node13 -->
<g id="node13" class="node"><title>Node13</title>
<g id="a_node13"><a xlink:href="classbdm_1_1DisplacementOpCpu.html" target="_top" xlink:title="{bdm::DisplacementOpCpu\l\&lt; TSimulation \&gt;\n||+ DisplacementOpCpu()\l+ ~DisplacementOpCpu()\l+ operator()()\l}">
<polygon fill="white" stroke="black" points="683,-1295 683,-1385 815,-1385 815,-1295 683,-1295"/>
<text text-anchor="start" x="691" y="-1373" font-family="Helvetica,sans-Serif" font-size="10.00">bdm::DisplacementOpCpu</text>
<text text-anchor="middle" x="749" y="-1362" font-family="Helvetica,sans-Serif" font-size="10.00">&lt; TSimulation &gt;</text>
<polyline fill="none" stroke="black" points="683,-1355 815,-1355 "/>
<text text-anchor="middle" x="749" y="-1343" font-family="Helvetica,sans-Serif" font-size="10.00"> </text>
<polyline fill="none" stroke="black" points="683,-1336 815,-1336 "/>
<text text-anchor="start" x="691" y="-1324" font-family="Helvetica,sans-Serif" font-size="10.00">+ DisplacementOpCpu()</text>
<text text-anchor="start" x="691" y="-1313" font-family="Helvetica,sans-Serif" font-size="10.00">+ ~DisplacementOpCpu()</text>
<text text-anchor="start" x="691" y="-1302" font-family="Helvetica,sans-Serif" font-size="10.00">+ operator()()</text>
</a>
</g>
</g>
<!-- Node13&#45;&gt;Node12 -->
<g id="edge12" class="edge"><title>Node13&#45;&gt;Node12</title>
<path fill="none" stroke="#404040" d="M749,-1294.93C749,-1281.47 749,-1266.49 749,-1252.34"/>
<polygon fill="none" stroke="#404040" points="749,-1252.17 745,-1246.17 749,-1240.17 753,-1246.17 749,-1252.17"/>
<text text-anchor="middle" x="763" y="-1267.5" font-family="Helvetica,sans-Serif" font-size="10.00"> &#45;cpu_</text>
</g>
<!-- Node14 -->
<g id="node14" class="node"><title>Node14</title>
<g id="a_node14"><a xlink:href="structbdm_1_1OpTimer.html" target="_top" xlink:title="{bdm::OpTimer\&lt; bdm::\lBiologyModuleOp \&gt;\n|&#45; timer_msg_\l|+ OpTimer()\l+ OpTimer()\l+ operator()()\l+ operator&#45;\&gt;()\l+ operator&#45;\&gt;()\l}">
<polygon fill="white" stroke="black" points="825.5,-945 825.5,-1057 938.5,-1057 938.5,-945 825.5,-945"/>
<text text-anchor="start" x="833.5" y="-1045" font-family="Helvetica,sans-Serif" font-size="10.00">bdm::OpTimer&lt; bdm::</text>
<text text-anchor="middle" x="882" y="-1034" font-family="Helvetica,sans-Serif" font-size="10.00">BiologyModuleOp &gt;</text>
<polyline fill="none" stroke="black" points="825.5,-1027 938.5,-1027 "/>
<text text-anchor="start" x="833.5" y="-1015" font-family="Helvetica,sans-Serif" font-size="10.00">&#45; timer_msg_</text>
<polyline fill="none" stroke="black" points="825.5,-1008 938.5,-1008 "/>
<text text-anchor="start" x="833.5" y="-996" font-family="Helvetica,sans-Serif" font-size="10.00">+ OpTimer()</text>
<text text-anchor="start" x="833.5" y="-985" font-family="Helvetica,sans-Serif" font-size="10.00">+ OpTimer()</text>
<text text-anchor="start" x="833.5" y="-974" font-family="Helvetica,sans-Serif" font-size="10.00">+ operator()()</text>
<text text-anchor="start" x="833.5" y="-963" font-family="Helvetica,sans-Serif" font-size="10.00">+ operator&#45;&gt;()</text>
<text text-anchor="start" x="833.5" y="-952" font-family="Helvetica,sans-Serif" font-size="10.00">+ operator&#45;&gt;()</text>
</a>
</g>
</g>
<!-- Node14&#45;&gt;Node5 -->
<g id="edge13" class="edge"><title>Node14&#45;&gt;Node5</title>
<path fill="none" stroke="#404040" d="M859.739,-944.765C841.717,-900.049 815.761,-835.648 793.508,-780.434"/>
<polygon fill="none" stroke="#404040" points="793.451,-780.292 787.498,-776.222 788.965,-769.162 794.918,-773.232 793.451,-780.292"/>
<text text-anchor="middle" x="857.5" y="-879.5" font-family="Helvetica,sans-Serif" font-size="10.00"> &#45;biology_</text>
</g>
<!-- Node15 -->
<g id="node15" class="node"><title>Node15</title>
<g id="a_node15"><a xlink:href="structbdm_1_1BiologyModuleOp.html" target="_top" xlink:title="{bdm::BiologyModuleOp\n||+ operator()()\l}">
<polygon fill="white" stroke="black" points="838,-1166.5 838,-1223.5 956,-1223.5 956,-1166.5 838,-1166.5"/>
<text text-anchor="middle" x="897" y="-1211.5" font-family="Helvetica,sans-Serif" font-size="10.00">bdm::BiologyModuleOp</text>
<polyline fill="none" stroke="black" points="838,-1204.5 956,-1204.5 "/>
<text text-anchor="middle" x="897" y="-1192.5" font-family="Helvetica,sans-Serif" font-size="10.00"> </text>
<polyline fill="none" stroke="black" points="838,-1185.5 956,-1185.5 "/>
<text text-anchor="start" x="846" y="-1173.5" font-family="Helvetica,sans-Serif" font-size="10.00">+ operator()()</text>
</a>
</g>
</g>
<!-- Node15&#45;&gt;Node14 -->
<g id="edge14" class="edge"><title>Node15&#45;&gt;Node14</title>
<path fill="none" stroke="#404040" d="M894.851,-1166.49C892.874,-1141.19 889.862,-1102.64 887.251,-1069.22"/>
<polygon fill="none" stroke="#404040" points="887.245,-1069.13 882.79,-1063.46 886.31,-1057.17 890.765,-1062.84 887.245,-1069.13"/>
<text text-anchor="middle" x="918" y="-1117.5" font-family="Helvetica,sans-Serif" font-size="10.00"> &#45;operation_</text>
</g>
<!-- Node16 -->
<g id="node16" class="node"><title>Node16</title>
<g id="a_node16"><a xlink:href="classbdm_1_1SimulationBackup.html" target="_top" xlink:title="{bdm::SimulationBackup\n|+ kSimulationName\l+ kSimulationStepName\l+ kRuntimeVariableName\l+ after_restore_event_\l&#45; backup_\l&#45; restore_\l&#45; backup_file_\l&#45; restore_file_\l|+ SimulationBackup()\l+ Backup()\l+ Restore()\l+ GetSimulationStepsFromBackup()\l+ BackupEnabled()\l+ RestoreEnabled()\l}">
<polygon fill="white" stroke="black" points="957,-906.5 957,-1095.5 1131,-1095.5 1131,-906.5 957,-906.5"/>
<text text-anchor="middle" x="1044" y="-1083.5" font-family="Helvetica,sans-Serif" font-size="10.00">bdm::SimulationBackup</text>
<polyline fill="none" stroke="black" points="957,-1076.5 1131,-1076.5 "/>
<text text-anchor="start" x="965" y="-1064.5" font-family="Helvetica,sans-Serif" font-size="10.00">+ kSimulationName</text>
<text text-anchor="start" x="965" y="-1053.5" font-family="Helvetica,sans-Serif" font-size="10.00">+ kSimulationStepName</text>
<text text-anchor="start" x="965" y="-1042.5" font-family="Helvetica,sans-Serif" font-size="10.00">+ kRuntimeVariableName</text>
<text text-anchor="start" x="965" y="-1031.5" font-family="Helvetica,sans-Serif" font-size="10.00">+ after_restore_event_</text>
<text text-anchor="start" x="965" y="-1020.5" font-family="Helvetica,sans-Serif" font-size="10.00">&#45; backup_</text>
<text text-anchor="start" x="965" y="-1009.5" font-family="Helvetica,sans-Serif" font-size="10.00">&#45; restore_</text>
<text text-anchor="start" x="965" y="-998.5" font-family="Helvetica,sans-Serif" font-size="10.00">&#45; backup_file_</text>
<text text-anchor="start" x="965" y="-987.5" font-family="Helvetica,sans-Serif" font-size="10.00">&#45; restore_file_</text>
<polyline fill="none" stroke="black" points="957,-980.5 1131,-980.5 "/>
<text text-anchor="start" x="965" y="-968.5" font-family="Helvetica,sans-Serif" font-size="10.00">+ SimulationBackup()</text>
<text text-anchor="start" x="965" y="-957.5" font-family="Helvetica,sans-Serif" font-size="10.00">+ Backup()</text>
<text text-anchor="start" x="965" y="-946.5" font-family="Helvetica,sans-Serif" font-size="10.00">+ Restore()</text>
<text text-anchor="start" x="965" y="-935.5" font-family="Helvetica,sans-Serif" font-size="10.00">+ GetSimulationStepsFromBackup()</text>
<text text-anchor="start" x="965" y="-924.5" font-family="Helvetica,sans-Serif" font-size="10.00">+ BackupEnabled()</text>
<text text-anchor="start" x="965" y="-913.5" font-family="Helvetica,sans-Serif" font-size="10.00">+ RestoreEnabled()</text>
</a>
</g>
</g>
<!-- Node16&#45;&gt;Node5 -->
<g id="edge15" class="edge"><title>Node16&#45;&gt;Node5</title>
<path fill="none" stroke="#404040" d="M960.254,-906.318C924.547,-866.375 882.668,-819.527 845.655,-778.123"/>
<polygon fill="none" stroke="#404040" points="845.589,-778.048 838.608,-776.241 837.591,-769.102 844.572,-770.909 845.589,-778.048"/>
<text text-anchor="middle" x="962.5" y="-879.5" font-family="Helvetica,sans-Serif" font-size="10.00"> &#45;backup_</text>
</g>
<!-- Node17 -->
<g id="node17" class="node"><title>Node17</title>
<g id="a_node17"><a xlink:href="structbdm_1_1OpTimer.html" target="_top" xlink:title="{bdm::OpTimer\&lt; bdm::\lBoundSpace \&gt;\n|&#45; timer_msg_\l|+ OpTimer()\l+ OpTimer()\l+ operator()()\l+ operator&#45;\&gt;()\l+ operator&#45;\&gt;()\l}">
<polygon fill="white" stroke="black" points="1149.5,-945 1149.5,-1057 1262.5,-1057 1262.5,-945 1149.5,-945"/>
<text text-anchor="start" x="1157.5" y="-1045" font-family="Helvetica,sans-Serif" font-size="10.00">bdm::OpTimer&lt; bdm::</text>
<text text-anchor="middle" x="1206" y="-1034" font-family="Helvetica,sans-Serif" font-size="10.00">BoundSpace &gt;</text>
<polyline fill="none" stroke="black" points="1149.5,-1027 1262.5,-1027 "/>
<text text-anchor="start" x="1157.5" y="-1015" font-family="Helvetica,sans-Serif" font-size="10.00">&#45; timer_msg_</text>
<polyline fill="none" stroke="black" points="1149.5,-1008 1262.5,-1008 "/>
<text text-anchor="start" x="1157.5" y="-996" font-family="Helvetica,sans-Serif" font-size="10.00">+ OpTimer()</text>
<text text-anchor="start" x="1157.5" y="-985" font-family="Helvetica,sans-Serif" font-size="10.00">+ OpTimer()</text>
<text text-anchor="start" x="1157.5" y="-974" font-family="Helvetica,sans-Serif" font-size="10.00">+ operator()()</text>
<text text-anchor="start" x="1157.5" y="-963" font-family="Helvetica,sans-Serif" font-size="10.00">+ operator&#45;&gt;()</text>
<text text-anchor="start" x="1157.5" y="-952" font-family="Helvetica,sans-Serif" font-size="10.00">+ operator&#45;&gt;()</text>
</a>
</g>
</g>
<!-- Node17&#45;&gt;Node5 -->
<g id="edge16" class="edge"><title>Node17&#45;&gt;Node5</title>
<path fill="none" stroke="#404040" d="M1172.89,-944.706C1163.29,-931.143 1152.1,-917.292 1140,-906 1116.61,-884.176 967.338,-796.086 860.182,-733.948"/>
<polygon fill="none" stroke="#404040" points="860.007,-733.846 852.81,-734.299 849.624,-727.83 856.82,-727.377 860.007,-733.846"/>
<text text-anchor="middle" x="1150" y="-879.5" font-family="Helvetica,sans-Serif" font-size="10.00"> &#45;bound_space_</text>
</g>
<!-- Node18 -->
<g id="node18" class="node"><title>Node18</title>
<g id="a_node18"><a xlink:href="classbdm_1_1BoundSpace.html" target="_top" xlink:title="{bdm::BoundSpace\n||+ BoundSpace()\l+ ~BoundSpace()\l+ operator()()\l}">
<polygon fill="white" stroke="black" points="1157.5,-1155.5 1157.5,-1234.5 1254.5,-1234.5 1254.5,-1155.5 1157.5,-1155.5"/>
<text text-anchor="middle" x="1206" y="-1222.5" font-family="Helvetica,sans-Serif" font-size="10.00">bdm::BoundSpace</text>
<polyline fill="none" stroke="black" points="1157.5,-1215.5 1254.5,-1215.5 "/>
<text text-anchor="middle" x="1206" y="-1203.5" font-family="Helvetica,sans-Serif" font-size="10.00"> </text>
<polyline fill="none" stroke="black" points="1157.5,-1196.5 1254.5,-1196.5 "/>
<text text-anchor="start" x="1165.5" y="-1184.5" font-family="Helvetica,sans-Serif" font-size="10.00">+ BoundSpace()</text>
<text text-anchor="start" x="1165.5" y="-1173.5" font-family="Helvetica,sans-Serif" font-size="10.00">+ ~BoundSpace()</text>
<text text-anchor="start" x="1165.5" y="-1162.5" font-family="Helvetica,sans-Serif" font-size="10.00">+ operator()()</text>
</a>
</g>
</g>
<!-- Node18&#45;&gt;Node17 -->
<g id="edge17" class="edge"><title>Node18&#45;&gt;Node17</title>
<path fill="none" stroke="#404040" d="M1206,-1155.15C1206,-1130.51 1206,-1097.97 1206,-1069.22"/>
<polygon fill="none" stroke="#404040" points="1206,-1069.17 1202,-1063.17 1206,-1057.17 1210,-1063.17 1206,-1069.17"/>
<text text-anchor="middle" x="1232" y="-1117.5" font-family="Helvetica,sans-Serif" font-size="10.00"> &#45;operation_</text>
</g>
<!-- Node19 -->
<g id="node19" class="node"><title>Node19</title>
<g id="a_node19"><a xlink:href="classbdm_1_1ResourceManager.html" target="_top" xlink:title="{bdm::ResourceManager\l\&lt; TCTParam \&gt;\n|&#45; diffusion_grids_\l|+ ResourceManager()\l+ ResourceManager()\l+ ~ResourceManager()\l+ operator=()\l+ Get()\l+ GetDiffusionGrids()\l+ GetDiffusionGrid()\l+ GetDiffusionGrid()\l+ GetNumSimObjects()\l+ ApplyOnElement()\land 12 more...\l+ NumberOfTypes()\l+ GetTypeIndex()\l+ Class()\l+ Class_Name()\l+ Class_Version()\l+ Dictionary()\l+ DeclFileName()\l+ ImplFileLine()\l+ ImplFileName()\l+ DeclFileLine()\l}">
<polygon fill="white" stroke="black" points="1081.5,-525 1081.5,-813 1202.5,-813 1202.5,-525 1081.5,-525"/>
<text text-anchor="start" x="1089.5" y="-801" font-family="Helvetica,sans-Serif" font-size="10.00">bdm::ResourceManager</text>
<text text-anchor="middle" x="1142" y="-790" font-family="Helvetica,sans-Serif" font-size="10.00">&lt; TCTParam &gt;</text>
<polyline fill="none" stroke="black" points="1081.5,-783 1202.5,-783 "/>
<text text-anchor="start" x="1089.5" y="-771" font-family="Helvetica,sans-Serif" font-size="10.00">&#45; diffusion_grids_</text>
<polyline fill="none" stroke="black" points="1081.5,-764 1202.5,-764 "/>
<text text-anchor="start" x="1089.5" y="-752" font-family="Helvetica,sans-Serif" font-size="10.00">+ ResourceManager()</text>
<text text-anchor="start" x="1089.5" y="-741" font-family="Helvetica,sans-Serif" font-size="10.00">+ ResourceManager()</text>
<text text-anchor="start" x="1089.5" y="-730" font-family="Helvetica,sans-Serif" font-size="10.00">+ ~ResourceManager()</text>
<text text-anchor="start" x="1089.5" y="-719" font-family="Helvetica,sans-Serif" font-size="10.00">+ operator=()</text>
<text text-anchor="start" x="1089.5" y="-708" font-family="Helvetica,sans-Serif" font-size="10.00">+ Get()</text>
<text text-anchor="start" x="1089.5" y="-697" font-family="Helvetica,sans-Serif" font-size="10.00">+ GetDiffusionGrids()</text>
<text text-anchor="start" x="1089.5" y="-686" font-family="Helvetica,sans-Serif" font-size="10.00">+ GetDiffusionGrid()</text>
<text text-anchor="start" x="1089.5" y="-675" font-family="Helvetica,sans-Serif" font-size="10.00">+ GetDiffusionGrid()</text>
<text text-anchor="start" x="1089.5" y="-664" font-family="Helvetica,sans-Serif" font-size="10.00">+ GetNumSimObjects()</text>
<text text-anchor="start" x="1089.5" y="-653" font-family="Helvetica,sans-Serif" font-size="10.00">+ ApplyOnElement()</text>
<text text-anchor="start" x="1089.5" y="-642" font-family="Helvetica,sans-Serif" font-size="10.00">and 12 more...</text>
<text text-anchor="start" x="1089.5" y="-631" font-family="Helvetica,sans-Serif" font-size="10.00">+ NumberOfTypes()</text>
<text text-anchor="start" x="1089.5" y="-620" font-family="Helvetica,sans-Serif" font-size="10.00">+ GetTypeIndex()</text>
<text text-anchor="start" x="1089.5" y="-609" font-family="Helvetica,sans-Serif" font-size="10.00">+ Class()</text>
<text text-anchor="start" x="1089.5" y="-598" font-family="Helvetica,sans-Serif" font-size="10.00">+ Class_Name()</text>
<text text-anchor="start" x="1089.5" y="-587" font-family="Helvetica,sans-Serif" font-size="10.00">+ Class_Version()</text>
<text text-anchor="start" x="1089.5" y="-576" font-family="Helvetica,sans-Serif" font-size="10.00">+ Dictionary()</text>
<text text-anchor="start" x="1089.5" y="-565" font-family="Helvetica,sans-Serif" font-size="10.00">+ DeclFileName()</text>
<text text-anchor="start" x="1089.5" y="-554" font-family="Helvetica,sans-Serif" font-size="10.00">+ ImplFileLine()</text>
<text text-anchor="start" x="1089.5" y="-543" font-family="Helvetica,sans-Serif" font-size="10.00">+ ImplFileName()</text>
<text text-anchor="start" x="1089.5" y="-532" font-family="Helvetica,sans-Serif" font-size="10.00">+ DeclFileLine()</text>
</a>
</g>
</g>
<!-- Node19&#45;&gt;Node1 -->
<g id="edge18" class="edge"><title>Node19&#45;&gt;Node1</title>
<path fill="none" stroke="#404040" d="M1081.46,-598.52C1015.19,-522.47 908.45,-399.983 833.849,-314.372"/>
<polygon fill="none" stroke="#404040" points="833.71,-314.211 826.752,-312.316 825.826,-305.164 832.784,-307.06 833.71,-314.211"/>
<text text-anchor="middle" x="969.5" y="-453.5" font-family="Helvetica,sans-Serif" font-size="10.00"> &#45;rm_</text>
</g>
<!-- Node20 -->
<g id="node20" class="node"><title>Node20</title>
<g id="a_node20"><a xlink:href="structbdm_1_1ConvertToContainerTuple.html" target="_top" xlink:title="{bdm::ConvertToContainerTuple\l\&lt; Backend, Types \&gt;\n||}">
<polygon fill="white" stroke="black" points="1280.5,-967 1280.5,-1035 1433.5,-1035 1433.5,-967 1280.5,-967"/>
<text text-anchor="start" x="1288.5" y="-1023" font-family="Helvetica,sans-Serif" font-size="10.00">bdm::ConvertToContainerTuple</text>
<text text-anchor="middle" x="1357" y="-1012" font-family="Helvetica,sans-Serif" font-size="10.00">&lt; Backend, Types &gt;</text>
<polyline fill="none" stroke="black" points="1280.5,-1005 1433.5,-1005 "/>
<text text-anchor="middle" x="1357" y="-993" font-family="Helvetica,sans-Serif" font-size="10.00"> </text>
<polyline fill="none" stroke="black" points="1280.5,-986 1433.5,-986 "/>
<text text-anchor="middle" x="1357" y="-974" font-family="Helvetica,sans-Serif" font-size="10.00"> </text>
</a>
</g>
</g>
<!-- Node20&#45;&gt;Node19 -->
<g id="edge19" class="edge"><title>Node20&#45;&gt;Node19</title>
<path fill="none" stroke="#404040" d="M1335.4,-966.847C1306.13,-921.918 1252.54,-839.666 1209.18,-773.119"/>
<polygon fill="none" stroke="#404040" points="1209.14,-773.056 1202.52,-770.212 1202.59,-763.002 1209.22,-765.845 1209.14,-773.056"/>
<text text-anchor="middle" x="1297.5" y="-879.5" font-family="Helvetica,sans-Serif" font-size="10.00"> &#45;data_</text>
</g>
</g>
</svg>
