<?xml version="1.0" encoding="UTF-8" standalone="no"?>
<!DOCTYPE svg PUBLIC "-//W3C//DTD SVG 1.1//EN"
 "http://www.w3.org/Graphics/SVG/1.1/DTD/svg11.dtd">
<!-- Generated by graphviz version 2.40.1 (20161225.0304)
 -->
<!-- Title: bdm::neuroscience::NeuriteElement::DisplacementFunctor Pages: 1 -->
<svg width="1058pt" height="336pt"
 viewBox="0.00 0.00 1058.00 336.00" xmlns="http://www.w3.org/2000/svg" xmlns:xlink="http://www.w3.org/1999/xlink">
<g id="graph0" class="graph" transform="scale(1 1) rotate(0) translate(4 332)">
<title>bdm::neuroscience::NeuriteElement::DisplacementFunctor</title>
<polygon fill="#ffffff" stroke="transparent" points="-4,4 -4,-332 1054,-332 1054,4 -4,4"/>
<!-- Node2 -->
<g id="node1" class="node">
<title>Node2</title>
<polygon fill="#bfbfbf" stroke="#000000" points="900,-186.5 900,-227.5 1050,-227.5 1050,-186.5 900,-186.5"/>
<text text-anchor="start" x="908" y="-215.5" font-family="Helvetica,sans-Serif" font-size="10.00" fill="#000000">bdm::neuroscience::</text>
<text text-anchor="start" x="908" y="-204.5" font-family="Helvetica,sans-Serif" font-size="10.00" fill="#000000">NeuriteElement::Displacement</text>
<text text-anchor="middle" x="975" y="-193.5" font-family="Helvetica,sans-Serif" font-size="10.00" fill="#000000">Functor</text>
</g>
<!-- Node3 -->
<g id="node2" class="node">
<title>Node3</title>
<g id="a_node2"><a xlink:href="classbdm_1_1Functor.html" target="_top" xlink:title="bdm::Functor\&lt; void,\l const Agent *, double \&gt;">
<polygon fill="#ffffff" stroke="#000000" points="641,-258 641,-288 763,-288 763,-258 641,-258"/>
<text text-anchor="start" x="649" y="-276" font-family="Helvetica,sans-Serif" font-size="10.00" fill="#000000">bdm::Functor&lt; void,</text>
<text text-anchor="middle" x="702" y="-265" font-family="Helvetica,sans-Serif" font-size="10.00" fill="#000000"> const Agent *, double &gt;</text>
</a>
</g>
</g>
<!-- Node3&#45;&gt;Node2 -->
<g id="edge1" class="edge">
<title>Node3&#45;&gt;Node2</title>
<path fill="none" stroke="#191970" d="M773.305,-260.6867C806.5426,-254.4506 846.5044,-246.2421 882,-237 892.6715,-234.2214 903.9195,-230.9198 914.7631,-227.5398"/>
<polygon fill="#191970" stroke="#191970" points="772.4121,-257.2926 763.2182,-262.5577 773.6888,-264.1752 772.4121,-257.2926"/>
</g>
<!-- Node4 -->
<g id="node3" class="node">
<title>Node4</title>
<g id="a_node3"><a xlink:href="classbdm_1_1InteractionForce.html" target="_top" xlink:title="bdm::InteractionForce">
<polygon fill="#ffffff" stroke="#000000" points="646,-219.5 646,-238.5 758,-238.5 758,-219.5 646,-219.5"/>
<text text-anchor="middle" x="702" y="-226.5" font-family="Helvetica,sans-Serif" font-size="10.00" fill="#000000">bdm::InteractionForce</text>
</a>
</g>
</g>
<!-- Node4&#45;&gt;Node2 -->
<g id="edge2" class="edge">
<title>Node4&#45;&gt;Node2</title>
<path fill="none" stroke="#9a32cd" stroke-dasharray="5,2" d="M768.3524,-223.6529C808.0952,-220.4502 858.7322,-216.3696 899.9335,-213.0493"/>
<polygon fill="#9a32cd" stroke="#9a32cd" points="767.9213,-220.1762 758.2348,-224.4683 768.4836,-227.1536 767.9213,-220.1762"/>
<text text-anchor="middle" x="832" y="-225" font-family="Helvetica,sans-Serif" font-size="10.00" fill="#000000"> force</text>
</g>
<!-- Node5 -->
<g id="node4" class="node">
<title>Node5</title>
<g id="a_node4"><a xlink:href="classbdm_1_1neuroscience_1_1NeuriteElement.html" target="_top" xlink:title="bdm::neuroscience::\lNeuriteElement">
<polygon fill="#ffffff" stroke="#000000" points="649.5,-170 649.5,-200 754.5,-200 754.5,-170 649.5,-170"/>
<text text-anchor="start" x="657.5" y="-188" font-family="Helvetica,sans-Serif" font-size="10.00" fill="#000000">bdm::neuroscience::</text>
<text text-anchor="middle" x="702" y="-177" font-family="Helvetica,sans-Serif" font-size="10.00" fill="#000000">NeuriteElement</text>
</a>
</g>
</g>
<!-- Node5&#45;&gt;Node2 -->
<g id="edge3" class="edge">
<title>Node5&#45;&gt;Node2</title>
<path fill="none" stroke="#9a32cd" stroke-dasharray="5,2" d="M765.1898,-189.7876C799.7112,-192.4351 843.2139,-195.8235 882,-199 887.8145,-199.4762 893.8328,-199.9767 899.8825,-200.4852"/>
<polygon fill="#9a32cd" stroke="#9a32cd" points="765.0178,-186.2643 754.7798,-188.9908 764.4835,-193.2439 765.0178,-186.2643"/>
<text text-anchor="middle" x="832" y="-202" font-family="Helvetica,sans-Serif" font-size="10.00" fill="#000000"> ne</text>
</g>
<!-- Node6 -->
<g id="node5" class="node">
<title>Node6</title>
<g id="a_node5"><a xlink:href="classbdm_1_1Agent.html" target="_top" xlink:title="Contains code required by all agents. ">
<polygon fill="#ffffff" stroke="#000000" points="405.5,-188.5 405.5,-207.5 472.5,-207.5 472.5,-188.5 405.5,-188.5"/>
<text text-anchor="middle" x="439" y="-195.5" font-family="Helvetica,sans-Serif" font-size="10.00" fill="#000000">bdm::Agent</text>
</a>
</g>
</g>
<!-- Node6&#45;&gt;Node5 -->
<g id="edge4" class="edge">
<title>Node6&#45;&gt;Node5</title>
<path fill="none" stroke="#191970" d="M482.7632,-195.8368C528.4815,-193.577 600.2197,-190.031 649.0882,-187.6154"/>
<polygon fill="#191970" stroke="#191970" points="482.3912,-192.3508 472.5763,-196.3403 482.7369,-199.3423 482.3912,-192.3508"/>
</g>
<!-- Node7 -->
<g id="node6" class="node">
<title>Node7</title>
<g id="a_node6"><a xlink:href="classbdm_1_1AgentUid.html" target="_top" xlink:title="bdm::AgentUid">
<polygon fill="#ffffff" stroke="#000000" points="184,-256.5 184,-275.5 266,-275.5 266,-256.5 184,-256.5"/>
<text text-anchor="middle" x="225" y="-263.5" font-family="Helvetica,sans-Serif" font-size="10.00" fill="#000000">bdm::AgentUid</text>
</a>
</g>
</g>
<!-- Node7&#45;&gt;Node6 -->
<g id="edge5" class="edge">
<title>Node7&#45;&gt;Node6</title>
<path fill="none" stroke="#9a32cd" stroke-dasharray="5,2" d="M259.9796,-253.0012C288.5584,-242.6062 330.1136,-228.0025 367,-217 379.3885,-213.3047 393.0849,-209.5972 405.1769,-206.4509"/>
<polygon fill="#9a32cd" stroke="#9a32cd" points="258.6304,-249.7678 250.441,-256.4897 261.0348,-256.3419 258.6304,-249.7678"/>
<text text-anchor="middle" x="323.5" y="-241" font-family="Helvetica,sans-Serif" font-size="10.00" fill="#000000"> uid_</text>
</g>
<!-- Node13 -->
<g id="node12" class="node">
<title>Node13</title>
<g id="a_node12"><a xlink:href="classbdm_1_1AgentPointer.html" target="_top" xlink:title="bdm::AgentPointer\&lt;\l bdm::neuroscience::\lNeuriteElement \&gt;">
<polygon fill="#ffffff" stroke="#000000" points="385,-286.5 385,-327.5 493,-327.5 493,-286.5 385,-286.5"/>
<text text-anchor="start" x="393" y="-315.5" font-family="Helvetica,sans-Serif" font-size="10.00" fill="#000000">bdm::AgentPointer&lt;</text>
<text text-anchor="start" x="393" y="-304.5" font-family="Helvetica,sans-Serif" font-size="10.00" fill="#000000"> bdm::neuroscience::</text>
<text text-anchor="middle" x="439" y="-293.5" font-family="Helvetica,sans-Serif" font-size="10.00" fill="#000000">NeuriteElement &gt;</text>
</a>
</g>
</g>
<!-- Node7&#45;&gt;Node13 -->
<g id="edge12" class="edge">
<title>Node7&#45;&gt;Node13</title>
<path fill="none" stroke="#9a32cd" stroke-dasharray="5,2" d="M275.8549,-275.7432C308.6681,-282.0299 351.3098,-290.1995 384.7686,-296.6099"/>
<polygon fill="#9a32cd" stroke="#9a32cd" points="276.4881,-272.301 266.0081,-273.8567 275.1709,-279.1759 276.4881,-272.301"/>
<text text-anchor="middle" x="323.5" y="-291" font-family="Helvetica,sans-Serif" font-size="10.00" fill="#000000"> uid_</text>
</g>
<!-- Node14 -->
<g id="node13" class="node">
<title>Node14</title>
<g id="a_node13"><a xlink:href="classbdm_1_1AgentPointer.html" target="_top" xlink:title="bdm::AgentPointer\&lt;\l bdm::neuroscience::\lNeuronOrNeurite \&gt;">
<polygon fill="#ffffff" stroke="#000000" points="385,-226.5 385,-267.5 493,-267.5 493,-226.5 385,-226.5"/>
<text text-anchor="start" x="393" y="-255.5" font-family="Helvetica,sans-Serif" font-size="10.00" fill="#000000">bdm::AgentPointer&lt;</text>
<text text-anchor="start" x="393" y="-244.5" font-family="Helvetica,sans-Serif" font-size="10.00" fill="#000000"> bdm::neuroscience::</text>
<text text-anchor="middle" x="439" y="-233.5" font-family="Helvetica,sans-Serif" font-size="10.00" fill="#000000">NeuronOrNeurite &gt;</text>
</a>
</g>
</g>
<!-- Node7&#45;&gt;Node14 -->
<g id="edge14" class="edge">
<title>Node7&#45;&gt;Node14</title>
<path fill="none" stroke="#9a32cd" stroke-dasharray="5,2" d="M276.2798,-261.4471C309.0355,-258.5389 351.454,-254.7728 384.7686,-251.8149"/>
<polygon fill="#9a32cd" stroke="#9a32cd" points="275.6594,-257.9883 266.0081,-262.3591 276.2785,-264.9609 275.6594,-257.9883"/>
<text text-anchor="middle" x="323.5" y="-262" font-family="Helvetica,sans-Serif" font-size="10.00" fill="#000000"> uid_</text>
</g>
<!-- Node8 -->
<g id="node7" class="node">
<title>Node8</title>
<g id="a_node7"><a xlink:href="classbdm_1_1InlineVector.html" target="_top" xlink:title="bdm::InlineVector\&lt;\l bdm::Behavior *, 2 \&gt;">
<polygon fill="#ffffff" stroke="#000000" points="170,-188 170,-218 280,-218 280,-188 170,-188"/>
<text text-anchor="start" x="178" y="-206" font-family="Helvetica,sans-Serif" font-size="10.00" fill="#000000">bdm::InlineVector&lt;</text>
<text text-anchor="middle" x="225" y="-195" font-family="Helvetica,sans-Serif" font-size="10.00" fill="#000000"> bdm::Behavior *, 2 &gt;</text>
</a>
</g>
</g>
<!-- Node8&#45;&gt;Node6 -->
<g id="edge6" class="edge">
<title>Node8&#45;&gt;Node6</title>
<path fill="none" stroke="#9a32cd" stroke-dasharray="5,2" d="M290.3864,-199.2648C292.9571,-199.1663 295.5023,-199.0772 298,-199 334.7021,-197.865 376.8025,-197.7167 405.3743,-197.7886"/>
<polygon fill="#9a32cd" stroke="#9a32cd" points="290.2345,-195.768 280.3912,-199.6872 290.5301,-202.7617 290.2345,-195.768"/>
<text text-anchor="middle" x="323.5" y="-202" font-family="Helvetica,sans-Serif" font-size="10.00" fill="#000000"> behaviors_</text>
</g>
<!-- Node9 -->
<g id="node8" class="node">
<title>Node9</title>
<g id="a_node8"><a xlink:href="classbdm_1_1Behavior.html" target="_top" xlink:title="bdm::Behavior">
<polygon fill="#ffffff" stroke="#000000" points="0,-193.5 0,-212.5 80,-212.5 80,-193.5 0,-193.5"/>
<text text-anchor="middle" x="40" y="-200.5" font-family="Helvetica,sans-Serif" font-size="10.00" fill="#000000">bdm::Behavior</text>
</a>
</g>
</g>
<!-- Node9&#45;&gt;Node8 -->
<g id="edge7" class="edge">
<title>Node9&#45;&gt;Node8</title>
<path fill="none" stroke="#9a32cd" stroke-dasharray="5,2" d="M90.3509,-203C114.9589,-203 144.6292,-203 169.8482,-203"/>
<polygon fill="#9a32cd" stroke="#9a32cd" points="90.1423,-199.5001 80.1422,-203 90.1422,-206.5001 90.1423,-199.5001"/>
<text text-anchor="middle" x="125" y="-206" font-family="Helvetica,sans-Serif" font-size="10.00" fill="#000000"> heap_data_</text>
</g>
<!-- Node10 -->
<g id="node9" class="node">
<title>Node10</title>
<g id="a_node9"><a xlink:href="classbdm_1_1Spinlock.html" target="_top" xlink:title="bdm::Spinlock">
<polygon fill="#ffffff" stroke="#000000" points="185.5,-149.5 185.5,-168.5 264.5,-168.5 264.5,-149.5 185.5,-149.5"/>
<text text-anchor="middle" x="225" y="-156.5" font-family="Helvetica,sans-Serif" font-size="10.00" fill="#000000">bdm::Spinlock</text>
</a>
</g>
</g>
<!-- Node10&#45;&gt;Node6 -->
<g id="edge8" class="edge">
<title>Node10&#45;&gt;Node6</title>
<path fill="none" stroke="#9a32cd" stroke-dasharray="5,2" d="M274.3592,-167.9954C314.5332,-175.3168 370.1603,-185.4544 405.3607,-191.8695"/>
<polygon fill="#9a32cd" stroke="#9a32cd" points="274.9658,-164.5483 264.5003,-166.1987 273.7107,-171.4349 274.9658,-164.5483"/>
<text text-anchor="middle" x="323.5" y="-183" font-family="Helvetica,sans-Serif" font-size="10.00" fill="#000000"> lock_</text>
</g>
<!-- Node11 -->
<g id="node10" class="node">
<title>Node11</title>
<g id="a_node10"><a xlink:href="classbdm_1_1neuroscience_1_1NeuronOrNeurite.html" target="_top" xlink:title="bdm::neuroscience::\lNeuronOrNeurite">
<polygon fill="#ffffff" stroke="#000000" points="386.5,-139 386.5,-169 491.5,-169 491.5,-139 386.5,-139"/>
<text text-anchor="start" x="394.5" y="-157" font-family="Helvetica,sans-Serif" font-size="10.00" fill="#000000">bdm::neuroscience::</text>
<text text-anchor="middle" x="439" y="-146" font-family="Helvetica,sans-Serif" font-size="10.00" fill="#000000">NeuronOrNeurite</text>
</a>
</g>
</g>
<!-- Node11&#45;&gt;Node5 -->
<g id="edge9" class="edge">
<title>Node11&#45;&gt;Node5</title>
<path fill="none" stroke="#191970" d="M501.8031,-161.4026C546.7321,-166.6985 606.5372,-173.7477 649.0512,-178.7589"/>
<polygon fill="#191970" stroke="#191970" points="501.9309,-157.8936 491.5899,-160.1988 501.1114,-164.8454 501.9309,-157.8936"/>
</g>
<!-- Node12 -->
<g id="node11" class="node">
<title>Node12</title>
<g id="a_node11"><a xlink:href="classbdm_1_1MathArray.html" target="_top" xlink:title="bdm::MathArray\&lt; double, 3 \&gt;">
<polygon fill="#ffffff" stroke="#000000" points="367,-38.5 367,-57.5 511,-57.5 511,-38.5 367,-38.5"/>
<text text-anchor="middle" x="439" y="-45.5" font-family="Helvetica,sans-Serif" font-size="10.00" fill="#000000">bdm::MathArray&lt; double, 3 &gt;</text>
</a>
</g>
</g>
<!-- Node12&#45;&gt;Node5 -->
<g id="edge10" class="edge">
<title>Node12&#45;&gt;Node5</title>
<path fill="none" stroke="#9a32cd" stroke-dasharray="5,2" d="M485.4841,-36.5684C524.5811,-29.612 580.5704,-26.0924 622,-50 645.4786,-63.5487 680.7964,-137.609 695.3599,-169.9172"/>
<polygon fill="#9a32cd" stroke="#9a32cd" points="484.5907,-33.1759 475.4299,-38.4985 485.9104,-40.0504 484.5907,-33.1759"/>
<text text-anchor="start" x="529" y="-152" font-family="Helvetica,sans-Serif" font-size="10.00" fill="#000000"> force_to_transmit_to</text>
<text text-anchor="middle" x="575.5" y="-141" font-family="Helvetica,sans-Serif" font-size="10.00" fill="#000000">_proximal_mass_</text>
<text text-anchor="middle" x="575.5" y="-130" font-family="Helvetica,sans-Serif" font-size="10.00" fill="#000000">x_axis_</text>
<text text-anchor="middle" x="575.5" y="-119" font-family="Helvetica,sans-Serif" font-size="10.00" fill="#000000">z_axis_</text>
<text text-anchor="middle" x="575.5" y="-108" font-family="Helvetica,sans-Serif" font-size="10.00" fill="#000000">y_axis_</text>
<text text-anchor="start" x="529" y="-97" font-family="Helvetica,sans-Serif" font-size="10.00" fill="#000000">mass_location</text>
<text text-anchor="middle" x="575.5" y="-86" font-family="Helvetica,sans-Serif" font-size="10.00" fill="#000000">_</text>
<text text-anchor="start" x="529" y="-75" font-family="Helvetica,sans-Serif" font-size="10.00" fill="#000000">spring_axis</text>
<text text-anchor="middle" x="575.5" y="-64" font-family="Helvetica,sans-Serif" font-size="10.00" fill="#000000">_</text>
<text text-anchor="middle" x="575.5" y="-53" font-family="Helvetica,sans-Serif" font-size="10.00" fill="#000000">position_</text>
</g>
<!-- Node13&#45;&gt;Node5 -->
<g id="edge11" class="edge">
<title>Node13&#45;&gt;Node5</title>
<path fill="none" stroke="#9a32cd" stroke-dasharray="5,2" d="M503.1516,-295.3948C541.0434,-285.9178 588.0797,-269.3068 622,-241 634.2322,-230.7921 627.9595,-220.4333 640,-210 644.3856,-206.1998 649.4232,-202.9304 654.6907,-200.1294"/>
<polygon fill="#9a32cd" stroke="#9a32cd" points="502.14,-292.0379 493.2283,-297.7677 503.7681,-298.8459 502.14,-292.0379"/>
<text text-anchor="middle" x="575.5" y="-300" font-family="Helvetica,sans-Serif" font-size="10.00" fill="#000000"> daughter_right_</text>
<text text-anchor="middle" x="575.5" y="-289" font-family="Helvetica,sans-Serif" font-size="10.00" fill="#000000">daughter_left_</text>
</g>
<!-- Node14&#45;&gt;Node5 -->
<g id="edge13" class="edge">
<title>Node14&#45;&gt;Node5</title>
<path fill="none" stroke="#9a32cd" stroke-dasharray="5,2" d="M503.2361,-232.5772C538.3616,-224.6101 582.6187,-214.4409 622,-205 630.7708,-202.8974 640.0697,-200.6184 649.1055,-198.3772"/>
<polygon fill="#9a32cd" stroke="#9a32cd" points="502.0944,-229.2471 493.1145,-234.8694 503.6406,-236.0742 502.0944,-229.2471"/>
<text text-anchor="middle" x="575.5" y="-229" font-family="Helvetica,sans-Serif" font-size="10.00" fill="#000000"> mother_</text>
</g>
<!-- Node15 -->
<g id="node14" class="node">
<title>Node15</title>
<g id="a_node14"><a xlink:href="classbdm_1_1MathArray.html" target="_top" xlink:title="bdm::MathArray\&lt; T, N \&gt;">
<polygon fill="#ffffff" stroke="#000000" points="640,-37.5 640,-56.5 764,-56.5 764,-37.5 640,-37.5"/>
<text text-anchor="middle" x="702" y="-44.5" font-family="Helvetica,sans-Serif" font-size="10.00" fill="#000000">bdm::MathArray&lt; T, N &gt;</text>
</a>
</g>
</g>
<!-- Node15&#45;&gt;Node2 -->
<g id="edge15" class="edge">
<title>Node15&#45;&gt;Node2</title>
<path fill="none" stroke="#9a32cd" stroke-dasharray="5,2" d="M726.9205,-61.6054C775.6977,-90.1928 883.8892,-153.6017 939.8907,-186.4231"/>
<polygon fill="#9a32cd" stroke="#9a32cd" points="728.6571,-58.5664 718.2598,-56.5296 725.1175,-64.6056 728.6571,-58.5664"/>
<text text-anchor="start" x="782" y="-175" font-family="Helvetica,sans-Serif" font-size="10.00" fill="#000000"> force_on_my_mothers</text>
<text text-anchor="middle" x="832" y="-164" font-family="Helvetica,sans-Serif" font-size="10.00" fill="#000000">_point_mass</text>
<text text-anchor="middle" x="832" y="-153" font-family="Helvetica,sans-Serif" font-size="10.00" fill="#000000">force_from_neighbors</text>
</g>
<!-- Node16 -->
<g id="node15" class="node">
<title>Node16</title>
<polygon fill="#ffffff" stroke="#bfbfbf" points="424.5,-.5 424.5,-19.5 453.5,-19.5 453.5,-.5 424.5,-.5"/>
<text text-anchor="middle" x="439" y="-7.5" font-family="Helvetica,sans-Serif" font-size="10.00" fill="#000000">T</text>
</g>
<!-- Node16&#45;&gt;Node15 -->
<g id="edge16" class="edge">
<title>Node16&#45;&gt;Node15</title>
<path fill="none" stroke="#9a32cd" stroke-dasharray="5,2" d="M464.3273,-7.9098C499.9458,-5.5961 566.6731,-3.5592 622,-15 643.9733,-19.5438 667.6625,-29.7491 683.5128,-37.4214"/>
<polygon fill="#9a32cd" stroke="#9a32cd" points="463.635,-4.4502 453.9098,-8.654 464.1338,-11.4324 463.635,-4.4502"/>
<text text-anchor="middle" x="575.5" y="-18" font-family="Helvetica,sans-Serif" font-size="10.00" fill="#000000"> data_</text>
</g>
</g>
</svg>
