<?xml version="1.0" encoding="UTF-8" standalone="no"?>
<!DOCTYPE svg PUBLIC "-//W3C//DTD SVG 1.1//EN"
 "http://www.w3.org/Graphics/SVG/1.1/DTD/svg11.dtd">
<!-- Generated by graphviz version 2.43.0 (0)
 -->
<!-- Title: bdm::AgentHandleIterator Pages: 1 -->
<svg width="1043pt" height="354pt"
 viewBox="0.00 0.00 1043.00 354.00" xmlns="http://www.w3.org/2000/svg" xmlns:xlink="http://www.w3.org/1999/xlink">
<g id="graph0" class="graph" transform="scale(1 1) rotate(0) translate(4 350)">
<title>bdm::AgentHandleIterator</title>
<polygon fill="white" stroke="transparent" points="-4,4 -4,-350 1039,-350 1039,4 -4,4"/>
<!-- Node1 -->
<g id="node1" class="node">
<title>Node1</title>
<g id="a_node1"><a xlink:title=" ">
<polygon fill="#bfbfbf" stroke="black" points="892,-256.5 892,-275.5 1035,-275.5 1035,-256.5 892,-256.5"/>
<text text-anchor="middle" x="963.5" y="-263.5" font-family="Helvetica,sans-Serif" font-size="10.00">bdm::AgentHandleIterator</text>
</a>
</g>
</g>
<!-- Node2 -->
<g id="node2" class="node">
<title>Node2</title>
<g id="a_node2"><a xlink:href="classbdm_1_1Iterator.html" target="_top" xlink:title=" ">
<polygon fill="white" stroke="black" points="655.5,-326.5 655.5,-345.5 821.5,-345.5 821.5,-326.5 655.5,-326.5"/>
<text text-anchor="middle" x="738.5" y="-333.5" font-family="Helvetica,sans-Serif" font-size="10.00">bdm::Iterator&lt; AgentHandle &gt;</text>
</a>
</g>
</g>
<!-- Node2&#45;&gt;Node1 -->
<g id="edge1" class="edge">
<title>Node2&#45;&gt;Node1</title>
<path fill="none" stroke="midnightblue" d="M795.52,-324.07C804.43,-321.89 813.5,-319.51 822,-317 863.81,-304.65 911.25,-286.54 938.93,-275.56"/>
<polygon fill="midnightblue" stroke="midnightblue" points="794.5,-320.71 785.58,-326.43 796.12,-327.52 794.5,-320.71"/>
</g>
<!-- Node3 -->
<g id="node3" class="node">
<title>Node3</title>
<g id="a_node3"><a xlink:href="structbdm_1_1UniformGridEnvironment_1_1Box_1_1Iterator.html" target="_top" xlink:title="An iterator that iterates over the cells in this box.">
<polygon fill="white" stroke="black" points="655,-277 655,-307 822,-307 822,-277 655,-277"/>
<text text-anchor="start" x="663" y="-295" font-family="Helvetica,sans-Serif" font-size="10.00">bdm::UniformGridEnvironment</text>
<text text-anchor="middle" x="738.5" y="-284" font-family="Helvetica,sans-Serif" font-size="10.00">::Box::Iterator</text>
</a>
</g>
</g>
<!-- Node3&#45;&gt;Node1 -->
<g id="edge2" class="edge">
<title>Node3&#45;&gt;Node1</title>
<path fill="none" stroke="#9a32cd" stroke-dasharray="5,2" d="M832.26,-281.19C852.23,-278.86 873.03,-276.43 891.99,-274.22"/>
<polygon fill="#9a32cd" stroke="#9a32cd" points="831.75,-277.72 822.22,-282.36 832.56,-284.67 831.75,-277.72"/>
<text text-anchor="middle" x="857" y="-282" font-family="Helvetica,sans-Serif" font-size="10.00"> box_it</text>
</g>
<!-- Node4 -->
<g id="node4" class="node">
<title>Node4</title>
<g id="a_node4"><a xlink:href="classbdm_1_1AgentHandle.html" target="_top" xlink:title=" ">
<polygon fill="white" stroke="black" points="367.5,-304.5 367.5,-323.5 474.5,-323.5 474.5,-304.5 367.5,-304.5"/>
<text text-anchor="middle" x="421" y="-311.5" font-family="Helvetica,sans-Serif" font-size="10.00">bdm::AgentHandle</text>
</a>
</g>
</g>
<!-- Node4&#45;&gt;Node3 -->
<g id="edge3" class="edge">
<title>Node4&#45;&gt;Node3</title>
<path fill="none" stroke="#9a32cd" stroke-dasharray="5,2" d="M484.91,-309.61C533.67,-306.21 601.67,-301.47 654.83,-297.76"/>
<polygon fill="#9a32cd" stroke="#9a32cd" points="484.54,-306.13 474.81,-310.32 485.03,-313.11 484.54,-306.13"/>
<text text-anchor="middle" x="582.5" y="-309" font-family="Helvetica,sans-Serif" font-size="10.00"> current_value_</text>
</g>
<!-- Node5 -->
<g id="node5" class="node">
<title>Node5</title>
<g id="a_node5"><a xlink:href="classbdm_1_1UniformGridEnvironment.html" target="_top" xlink:title="A class that represents Cartesian 3D grid.">
<polygon fill="white" stroke="black" points="337.5,-224.5 337.5,-243.5 504.5,-243.5 504.5,-224.5 337.5,-224.5"/>
<text text-anchor="middle" x="421" y="-231.5" font-family="Helvetica,sans-Serif" font-size="10.00">bdm::UniformGridEnvironment</text>
</a>
</g>
</g>
<!-- Node5&#45;&gt;Node1 -->
<g id="edge15" class="edge">
<title>Node5&#45;&gt;Node1</title>
<path fill="none" stroke="#9a32cd" stroke-dasharray="5,2" d="M514.93,-239.17C596,-243.72 716.8,-250.61 822,-257 844.69,-258.38 869.44,-259.94 891.75,-261.38"/>
<polygon fill="#9a32cd" stroke="#9a32cd" points="514.93,-235.67 504.75,-238.6 514.53,-242.65 514.93,-235.67"/>
<text text-anchor="middle" x="738.5" y="-260" font-family="Helvetica,sans-Serif" font-size="10.00"> grid_</text>
</g>
<!-- Node5&#45;&gt;Node3 -->
<g id="edge4" class="edge">
<title>Node5&#45;&gt;Node3</title>
<path fill="none" stroke="#9a32cd" stroke-dasharray="5,2" d="M471.53,-245.88C489.29,-249.96 509.5,-254.41 528,-258 569.69,-266.09 616.3,-273.79 654.96,-279.81"/>
<polygon fill="#9a32cd" stroke="#9a32cd" points="471.92,-242.38 461.39,-243.53 470.34,-249.2 471.92,-242.38"/>
<text text-anchor="middle" x="582.5" y="-279" font-family="Helvetica,sans-Serif" font-size="10.00"> grid_</text>
</g>
<!-- Node8 -->
<g id="node8" class="node">
<title>Node8</title>
<g id="a_node8"><a xlink:href="classbdm_1_1UniformGridEnvironment_1_1LoadBalanceInfoUG.html" target="_top" xlink:title=" ">
<polygon fill="white" stroke="black" points="655,-84 655,-114 822,-114 822,-84 655,-84"/>
<text text-anchor="start" x="663" y="-102" font-family="Helvetica,sans-Serif" font-size="10.00">bdm::UniformGridEnvironment</text>
<text text-anchor="middle" x="738.5" y="-91" font-family="Helvetica,sans-Serif" font-size="10.00">::LoadBalanceInfoUG</text>
</a>
</g>
</g>
<!-- Node5&#45;&gt;Node8 -->
<g id="edge11" class="edge">
<title>Node5&#45;&gt;Node8</title>
<path fill="none" stroke="#9a32cd" stroke-dasharray="5,2" d="M514.52,-223.65C568.38,-216.8 627.54,-207.55 637,-199 659.88,-178.33 634.52,-155.05 655,-132 661.66,-124.5 670.26,-118.69 679.38,-114.18"/>
<polygon fill="#9a32cd" stroke="#9a32cd" points="514.02,-220.18 504.53,-224.9 514.89,-227.13 514.02,-220.18"/>
<text text-anchor="middle" x="582.5" y="-224" font-family="Helvetica,sans-Serif" font-size="10.00"> grid_</text>
</g>
<!-- Node6 -->
<g id="node6" class="node">
<title>Node6</title>
<g id="a_node6"><a xlink:href="classbdm_1_1Environment.html" target="_top" xlink:title=" ">
<polygon fill="white" stroke="black" points="53.5,-293.5 53.5,-312.5 160.5,-312.5 160.5,-293.5 53.5,-293.5"/>
<text text-anchor="middle" x="107" y="-300.5" font-family="Helvetica,sans-Serif" font-size="10.00">bdm::Environment</text>
</a>
</g>
</g>
<!-- Node6&#45;&gt;Node5 -->
<g id="edge5" class="edge">
<title>Node6&#45;&gt;Node5</title>
<path fill="none" stroke="midnightblue" d="M170.81,-292.06C185.03,-289.49 200.04,-286.72 214,-284 258.58,-275.33 269.86,-273.66 314,-263 338.67,-257.04 366.31,-249.45 387.19,-243.52"/>
<polygon fill="midnightblue" stroke="midnightblue" points="169.85,-288.67 160.63,-293.88 171.09,-295.57 169.85,-288.67"/>
</g>
<!-- Node7 -->
<g id="node7" class="node">
<title>Node7</title>
<g id="a_node7"><a xlink:href="classbdm_1_1AgentVector.html" target="_top" xlink:title=" ">
<polygon fill="white" stroke="black" points="38.5,-244 38.5,-274 175.5,-274 175.5,-244 38.5,-244"/>
<text text-anchor="start" x="46.5" y="-262" font-family="Helvetica,sans-Serif" font-size="10.00">bdm::AgentVector&lt; bdm</text>
<text text-anchor="middle" x="107" y="-251" font-family="Helvetica,sans-Serif" font-size="10.00">::AgentHandle &gt;</text>
</a>
</g>
</g>
<!-- Node7&#45;&gt;Node5 -->
<g id="edge6" class="edge">
<title>Node7&#45;&gt;Node5</title>
<path fill="none" stroke="#9a32cd" stroke-dasharray="5,2" d="M185.95,-252.75C232.1,-249.06 290.52,-244.38 337.45,-240.61"/>
<polygon fill="#9a32cd" stroke="#9a32cd" points="185.39,-249.29 175.7,-253.58 185.95,-256.27 185.39,-249.29"/>
<text text-anchor="middle" x="273" y="-251" font-family="Helvetica,sans-Serif" font-size="10.00"> successors_</text>
</g>
<!-- Node8&#45;&gt;Node5 -->
<g id="edge7" class="edge">
<title>Node8&#45;&gt;Node5</title>
<path fill="none" stroke="#9a32cd" stroke-dasharray="5,2" d="M685.46,-117.91C675.19,-122.17 664.62,-126.94 655,-132 646.49,-136.48 645.5,-139.51 637,-144 590.8,-168.39 576.19,-167.82 528,-188 498.58,-200.32 464.81,-215.08 443.45,-224.5"/>
<polygon fill="#9a32cd" stroke="#9a32cd" points="686.81,-121.13 694.77,-114.14 684.19,-114.64 686.81,-121.13"/>
<text text-anchor="middle" x="582.5" y="-191" font-family="Helvetica,sans-Serif" font-size="10.00"> lbi_</text>
</g>
<!-- Node9 -->
<g id="node9" class="node">
<title>Node9</title>
<g id="a_node9"><a xlink:href="classbdm_1_1LoadBalanceInfo.html" target="_top" xlink:title=" ">
<polygon fill="white" stroke="black" points="358.5,-88.5 358.5,-107.5 483.5,-107.5 483.5,-88.5 358.5,-88.5"/>
<text text-anchor="middle" x="421" y="-95.5" font-family="Helvetica,sans-Serif" font-size="10.00">bdm::LoadBalanceInfo</text>
</a>
</g>
</g>
<!-- Node9&#45;&gt;Node8 -->
<g id="edge8" class="edge">
<title>Node9&#45;&gt;Node8</title>
<path fill="none" stroke="midnightblue" d="M493.87,-98.23C541.78,-98.38 604.89,-98.58 654.88,-98.74"/>
<polygon fill="midnightblue" stroke="midnightblue" points="493.59,-94.73 483.58,-98.2 493.57,-101.73 493.59,-94.73"/>
</g>
<!-- Node10 -->
<g id="node10" class="node">
<title>Node10</title>
<g id="a_node10"><a xlink:href="classbdm_1_1ParallelResizeVector.html" target="_top" xlink:title=" ">
<polygon fill="white" stroke="black" points="349.5,-39 349.5,-69 492.5,-69 492.5,-39 349.5,-39"/>
<text text-anchor="start" x="357.5" y="-57" font-family="Helvetica,sans-Serif" font-size="10.00">bdm::ParallelResizeVector</text>
<text text-anchor="middle" x="421" y="-46" font-family="Helvetica,sans-Serif" font-size="10.00">&lt; uint64_t &gt;</text>
</a>
</g>
</g>
<!-- Node10&#45;&gt;Node8 -->
<g id="edge9" class="edge">
<title>Node10&#45;&gt;Node8</title>
<path fill="none" stroke="#9a32cd" stroke-dasharray="5,2" d="M502.76,-65.08C543.1,-70.67 592.64,-77.59 637,-84 642.85,-84.84 648.89,-85.72 654.97,-86.62"/>
<polygon fill="#9a32cd" stroke="#9a32cd" points="503.1,-61.6 492.71,-63.69 502.14,-68.53 503.1,-61.6"/>
<text text-anchor="middle" x="582.5" y="-87" font-family="Helvetica,sans-Serif" font-size="10.00"> cummulated_agents_</text>
</g>
<!-- Node11 -->
<g id="node11" class="node">
<title>Node11</title>
<g id="a_node11"><a xlink:href="classbdm_1_1MortonOrder.html" target="_top" xlink:title=" ">
<polygon fill="white" stroke="black" points="368,-0.5 368,-19.5 474,-19.5 474,-0.5 368,-0.5"/>
<text text-anchor="middle" x="421" y="-7.5" font-family="Helvetica,sans-Serif" font-size="10.00">bdm::MortonOrder</text>
</a>
</g>
</g>
<!-- Node11&#45;&gt;Node8 -->
<g id="edge10" class="edge">
<title>Node11&#45;&gt;Node8</title>
<path fill="none" stroke="#9a32cd" stroke-dasharray="5,2" d="M484.16,-19.51C527.58,-27 586.56,-38.87 637,-55 661.31,-62.77 687.71,-74.46 707.34,-83.84"/>
<polygon fill="#9a32cd" stroke="#9a32cd" points="484.48,-16.01 474.03,-17.8 483.31,-22.92 484.48,-16.01"/>
<text text-anchor="middle" x="582.5" y="-58" font-family="Helvetica,sans-Serif" font-size="10.00"> mo_</text>
</g>
<!-- Node12 -->
<g id="node12" class="node">
<title>Node12</title>
<g id="a_node12"><a xlink:href="classbdm_1_1ParallelResizeVector.html" target="_top" xlink:title=" ">
<polygon fill="white" stroke="black" points="332,-131.5 332,-172.5 510,-172.5 510,-131.5 332,-131.5"/>
<text text-anchor="start" x="340" y="-160.5" font-family="Helvetica,sans-Serif" font-size="10.00">bdm::ParallelResizeVector</text>
<text text-anchor="start" x="340" y="-149.5" font-family="Helvetica,sans-Serif" font-size="10.00">&lt; bdm::UniformGridEnvironment</text>
<text text-anchor="middle" x="421" y="-138.5" font-family="Helvetica,sans-Serif" font-size="10.00">::Box * &gt;</text>
</a>
</g>
</g>
<!-- Node12&#45;&gt;Node1 -->
<g id="edge16" class="edge">
<title>Node12&#45;&gt;Node1</title>
<path fill="none" stroke="#9a32cd" stroke-dasharray="5,2" d="M520.4,-154.81C557.21,-157.04 599.24,-161 637,-168 751.89,-189.31 883.78,-236.28 937.64,-256.47"/>
<polygon fill="#9a32cd" stroke="#9a32cd" points="520.35,-151.3 510.16,-154.22 519.95,-158.29 520.35,-151.3"/>
<text text-anchor="middle" x="738.5" y="-218" font-family="Helvetica,sans-Serif" font-size="10.00"> sorted_boxes</text>
</g>
<!-- Node12&#45;&gt;Node8 -->
<g id="edge12" class="edge">
<title>Node12&#45;&gt;Node8</title>
<path fill="none" stroke="#9a32cd" stroke-dasharray="5,2" d="M519.97,-130.48C522.67,-129.97 525.35,-129.48 528,-129 569.68,-121.5 616.29,-114.68 654.95,-109.44"/>
<polygon fill="#9a32cd" stroke="#9a32cd" points="519.27,-127.05 510.11,-132.38 520.59,-133.92 519.27,-127.05"/>
<text text-anchor="middle" x="582.5" y="-132" font-family="Helvetica,sans-Serif" font-size="10.00"> sorted_boxes_</text>
</g>
<!-- Node13 -->
<g id="node13" class="node">
<title>Node13</title>
<g id="a_node13"><a xlink:href="classbdm_1_1ParallelResizeVector.html" target="_top" xlink:title=" ">
<polygon fill="white" stroke="black" points="0,-195 0,-225 214,-225 214,-195 0,-195"/>
<text text-anchor="start" x="8" y="-213" font-family="Helvetica,sans-Serif" font-size="10.00">bdm::ParallelResizeVector</text>
<text text-anchor="middle" x="107" y="-202" font-family="Helvetica,sans-Serif" font-size="10.00">&lt; bdm::UniformGridEnvironment::Box &gt;</text>
</a>
</g>
</g>
<!-- Node13&#45;&gt;Node5 -->
<g id="edge13" class="edge">
<title>Node13&#45;&gt;Node5</title>
<path fill="none" stroke="#9a32cd" stroke-dasharray="5,2" d="M224.07,-218.93C261.72,-221.82 302.69,-224.98 337.38,-227.64"/>
<polygon fill="#9a32cd" stroke="#9a32cd" points="224.3,-215.44 214.06,-218.16 223.77,-222.42 224.3,-215.44"/>
<text text-anchor="middle" x="273" y="-228" font-family="Helvetica,sans-Serif" font-size="10.00"> boxes_</text>
</g>
<!-- Node14 -->
<g id="node14" class="node">
<title>Node14</title>
<g id="a_node14"><a xlink:title=" ">
<polygon fill="white" stroke="#bfbfbf" points="84.5,-156.5 84.5,-175.5 129.5,-175.5 129.5,-156.5 84.5,-156.5"/>
<text text-anchor="middle" x="107" y="-163.5" font-family="Helvetica,sans-Serif" font-size="10.00">size_t</text>
</a>
</g>
</g>
<!-- Node14&#45;&gt;Node5 -->
<g id="edge14" class="edge">
<title>Node14&#45;&gt;Node5</title>
<path fill="none" stroke="#9a32cd" stroke-dasharray="5,2" d="M139.9,-170.93C180.55,-177.44 252.88,-189.75 314,-204 339.52,-209.95 368.08,-218.12 389.12,-224.44"/>
<polygon fill="#9a32cd" stroke="#9a32cd" points="140.21,-167.44 129.79,-169.33 139.12,-174.36 140.21,-167.44"/>
<text text-anchor="middle" x="273" y="-207" font-family="Helvetica,sans-Serif" font-size="10.00"> num_boxes_xy_</text>
</g>
</g>
</svg>
