<?xml version="1.0" encoding="UTF-8" standalone="no"?>
<!DOCTYPE svg PUBLIC "-//W3C//DTD SVG 1.1//EN"
 "http://www.w3.org/Graphics/SVG/1.1/DTD/svg11.dtd">
<!-- Generated by graphviz version 2.40.1 (20161225.0304)
 -->
<!-- Title: bdm::SimObjectOperationImpl Pages: 1 -->
<svg width="494pt" height="268pt"
 viewBox="0.00 0.00 494.00 268.00" xmlns="http://www.w3.org/2000/svg" xmlns:xlink="http://www.w3.org/1999/xlink">
<g id="graph0" class="graph" transform="scale(1 1) rotate(0) translate(4 264)">
<title>bdm::SimObjectOperationImpl</title>
<polygon fill="#ffffff" stroke="transparent" points="-4,4 -4,-264 490,-264 490,4 -4,4"/>
<!-- Node0 -->
<g id="node1" class="node">
<title>Node0</title>
<polygon fill="#bfbfbf" stroke="#000000" points="138,-126.5 138,-145.5 286,-145.5 286,-126.5 138,-126.5"/>
<text text-anchor="middle" x="212" y="-133.5" font-family="Helvetica,sans-Serif" font-size="10.00" fill="#000000">bdm::SimObjectOperationImpl</text>
</g>
<!-- Node2 -->
<g id="node3" class="node">
<title>Node2</title>
<g id="a_node3"><a xlink:href="structbdm_1_1BiologyModuleOp.html" target="_top" xlink:title="bdm::BiologyModuleOp">
<polygon fill="#ffffff" stroke="#000000" points="345,-240.5 345,-259.5 463,-259.5 463,-240.5 345,-240.5"/>
<text text-anchor="middle" x="404" y="-247.5" font-family="Helvetica,sans-Serif" font-size="10.00" fill="#000000">bdm::BiologyModuleOp</text>
</a>
</g>
</g>
<!-- Node0&#45;&gt;Node2 -->
<g id="edge2" class="edge">
<title>Node0&#45;&gt;Node2</title>
<path fill="none" stroke="#191970" d="M226.9069,-153.2366C246.5149,-174.7819 283.0731,-211.2253 322,-231 329.6869,-234.9049 338.1861,-238.0191 346.7149,-240.4996"/>
<polygon fill="#191970" stroke="#191970" points="229.2946,-150.6552 220.0285,-145.518 224.0686,-155.3123 229.2946,-150.6552"/>
</g>
<!-- Node3 -->
<g id="node4" class="node">
<title>Node3</title>
<g id="a_node4"><a xlink:href="structbdm_1_1BoundSpace.html" target="_top" xlink:title="bdm::BoundSpace">
<polygon fill="#ffffff" stroke="#000000" points="355.5,-202.5 355.5,-221.5 452.5,-221.5 452.5,-202.5 355.5,-202.5"/>
<text text-anchor="middle" x="404" y="-209.5" font-family="Helvetica,sans-Serif" font-size="10.00" fill="#000000">bdm::BoundSpace</text>
</a>
</g>
</g>
<!-- Node0&#45;&gt;Node3 -->
<g id="edge3" class="edge">
<title>Node0&#45;&gt;Node3</title>
<path fill="none" stroke="#191970" d="M236.3335,-150.873C258.1023,-163.6202 291.2321,-181.668 322,-193 332.5588,-196.8889 344.1844,-200.1573 355.2796,-202.8266"/>
<polygon fill="#191970" stroke="#191970" points="237.8451,-147.7 227.4602,-145.6011 234.2696,-153.718 237.8451,-147.7"/>
</g>
<!-- Node4 -->
<g id="node5" class="node">
<title>Node4</title>
<g id="a_node5"><a xlink:href="structbdm_1_1DiscretizationOp.html" target="_top" xlink:title="bdm::DiscretizationOp">
<polygon fill="#ffffff" stroke="#000000" points="347,-164.5 347,-183.5 461,-183.5 461,-164.5 347,-164.5"/>
<text text-anchor="middle" x="404" y="-171.5" font-family="Helvetica,sans-Serif" font-size="10.00" fill="#000000">bdm::DiscretizationOp</text>
</a>
</g>
</g>
<!-- Node0&#45;&gt;Node4 -->
<g id="edge4" class="edge">
<title>Node0&#45;&gt;Node4</title>
<path fill="none" stroke="#191970" d="M270.298,-147.5381C297.6826,-152.958 329.9334,-159.341 355.8987,-164.4799"/>
<polygon fill="#191970" stroke="#191970" points="270.939,-144.0972 260.4497,-145.589 269.5799,-150.964 270.939,-144.0972"/>
</g>
<!-- Node5 -->
<g id="node6" class="node">
<title>Node5</title>
<g id="a_node6"><a xlink:href="structbdm_1_1DisplacementOp.html" target="_top" xlink:title="Defines the 3D physical interactions between physical objects. ">
<polygon fill="#ffffff" stroke="#000000" points="347,-126.5 347,-145.5 461,-145.5 461,-126.5 347,-126.5"/>
<text text-anchor="middle" x="404" y="-133.5" font-family="Helvetica,sans-Serif" font-size="10.00" fill="#000000">bdm::DisplacementOp</text>
</a>
</g>
</g>
<!-- Node0&#45;&gt;Node5 -->
<g id="edge5" class="edge">
<title>Node0&#45;&gt;Node5</title>
<path fill="none" stroke="#191970" d="M296.2447,-136C313.3781,-136 331.0186,-136 346.9389,-136"/>
<polygon fill="#191970" stroke="#191970" points="296.2322,-132.5001 286.2322,-136 296.2322,-139.5001 296.2322,-132.5001"/>
</g>
<!-- Node6 -->
<g id="node7" class="node">
<title>Node6</title>
<g id="a_node7"><a xlink:href="structbdm_1_1DistributeRunDisplacementInfoOp.html" target="_top" xlink:title="bdm::DistributeRunDisplacement\lInfoOp">
<polygon fill="#ffffff" stroke="#000000" points="323.5,-77 323.5,-107 484.5,-107 484.5,-77 323.5,-77"/>
<text text-anchor="start" x="331.5" y="-95" font-family="Helvetica,sans-Serif" font-size="10.00" fill="#000000">bdm::DistributeRunDisplacement</text>
<text text-anchor="middle" x="404" y="-84" font-family="Helvetica,sans-Serif" font-size="10.00" fill="#000000">InfoOp</text>
</a>
</g>
</g>
<!-- Node0&#45;&gt;Node6 -->
<g id="edge6" class="edge">
<title>Node0&#45;&gt;Node6</title>
<path fill="none" stroke="#191970" d="M263.5484,-124.1868C286.5174,-118.9231 313.8434,-112.6609 338.2602,-107.0654"/>
<polygon fill="#191970" stroke="#191970" points="262.6266,-120.8073 253.6611,-126.4527 264.1903,-127.6304 262.6266,-120.8073"/>
</g>
<!-- Node7 -->
<g id="node8" class="node">
<title>Node7</title>
<g id="a_node8"><a xlink:href="structbdm_1_1DividingCellOp.html" target="_top" xlink:title="bdm::DividingCellOp">
<polygon fill="#ffffff" stroke="#000000" points="350.5,-38.5 350.5,-57.5 457.5,-57.5 457.5,-38.5 350.5,-38.5"/>
<text text-anchor="middle" x="404" y="-45.5" font-family="Helvetica,sans-Serif" font-size="10.00" fill="#000000">bdm::DividingCellOp</text>
</a>
</g>
</g>
<!-- Node0&#45;&gt;Node7 -->
<g id="edge7" class="edge">
<title>Node0&#45;&gt;Node7</title>
<path fill="none" stroke="#191970" d="M232.3558,-120.3018C253.6184,-104.631 288.4855,-80.9317 322,-67 331.1758,-63.1857 341.2626,-60.0572 351.129,-57.5192"/>
<polygon fill="#191970" stroke="#191970" points="230.0228,-117.6764 224.1198,-126.4745 234.2209,-123.2779 230.0228,-117.6764"/>
</g>
<!-- Node8 -->
<g id="node9" class="node">
<title>Node8</title>
<g id="a_node9"><a xlink:href="structbdm_1_1UpdateRunDisplacementOp.html" target="_top" xlink:title="bdm::UpdateRunDisplacementOp">
<polygon fill="#ffffff" stroke="#000000" points="322,-.5 322,-19.5 486,-19.5 486,-.5 322,-.5"/>
<text text-anchor="middle" x="404" y="-7.5" font-family="Helvetica,sans-Serif" font-size="10.00" fill="#000000">bdm::UpdateRunDisplacementOp</text>
</a>
</g>
</g>
<!-- Node0&#45;&gt;Node8 -->
<g id="edge8" class="edge">
<title>Node0&#45;&gt;Node8</title>
<path fill="none" stroke="#191970" d="M225.3084,-117.9524C244.0944,-93.8338 280.7354,-51.5232 322,-29 329.0548,-25.1493 336.8632,-22.0762 344.7757,-19.6243"/>
<polygon fill="#191970" stroke="#191970" points="222.2824,-116.1492 219.0103,-126.2262 227.8523,-120.3891 222.2824,-116.1492"/>
</g>
<!-- Node1 -->
<g id="node2" class="node">
<title>Node1</title>
<g id="a_node2"><a xlink:href="structbdm_1_1OperationImpl.html" target="_top" xlink:title="bdm::OperationImpl">
<polygon fill="#ffffff" stroke="#000000" points="0,-126.5 0,-145.5 102,-145.5 102,-126.5 0,-126.5"/>
<text text-anchor="middle" x="51" y="-133.5" font-family="Helvetica,sans-Serif" font-size="10.00" fill="#000000">bdm::OperationImpl</text>
</a>
</g>
</g>
<!-- Node1&#45;&gt;Node0 -->
<g id="edge1" class="edge">
<title>Node1&#45;&gt;Node0</title>
<path fill="none" stroke="#191970" d="M112.3965,-136C120.7445,-136 129.3834,-136 137.9252,-136"/>
<polygon fill="#191970" stroke="#191970" points="112.3841,-132.5001 102.3841,-136 112.384,-139.5001 112.3841,-132.5001"/>
</g>
</g>
</svg>
