<?xml version="1.0" encoding="UTF-8" standalone="no"?>
<!DOCTYPE svg PUBLIC "-//W3C//DTD SVG 1.1//EN"
 "http://www.w3.org/Graphics/SVG/1.1/DTD/svg11.dtd">
<!-- Generated by graphviz version 2.38.0 (20140413.2041)
 -->
<!-- Title: bdm::Event Pages: 1 -->
<svg width="1111pt" height="270pt"
 viewBox="0.00 0.00 1111.00 270.00" xmlns="http://www.w3.org/2000/svg" xmlns:xlink="http://www.w3.org/1999/xlink">
<g id="graph0" class="graph" transform="scale(1 1) rotate(0) translate(4 266)">
<title>bdm::Event</title>
<polygon fill="white" stroke="none" points="-4,4 -4,-266 1107,-266 1107,4 -4,4"/>
<!-- Node1 -->
<g id="node1" class="node"><title>Node1</title>
<polygon fill="#bfbfbf" stroke="black" points="482,-193.5 482,-261.5 553,-261.5 553,-193.5 482,-193.5"/>
<text text-anchor="middle" x="517.5" y="-249.5" font-family="Helvetica,sans-Serif" font-size="10.00">bdm::Event</text>
<polyline fill="none" stroke="black" points="482,-242.5 553,-242.5 "/>
<text text-anchor="middle" x="517.5" y="-230.5" font-family="Helvetica,sans-Serif" font-size="10.00"> </text>
<polyline fill="none" stroke="black" points="482,-223.5 553,-223.5 "/>
<text text-anchor="start" x="490" y="-211.5" font-family="Helvetica,sans-Serif" font-size="10.00">+ ~Event()</text>
<text text-anchor="start" x="490" y="-200.5" font-family="Helvetica,sans-Serif" font-size="10.00">+ GetId()</text>
</g>
<!-- Node2 -->
<g id="node2" class="node"><title>Node2</title>
<g id="a_node2"><a xlink:href="structbdm_1_1CellDivisionEvent.html" target="_top" xlink:title="Contains the parameters to perform a cell division. ">
<polygon fill="white" stroke="black" points="0,-22.5 0,-134.5 125,-134.5 125,-22.5 0,-22.5"/>
<text text-anchor="middle" x="62.5" y="-122.5" font-family="Helvetica,sans-Serif" font-size="10.00">bdm::CellDivisionEvent</text>
<polyline fill="none" stroke="black" points="0,-115.5 125,-115.5 "/>
<text text-anchor="start" x="8" y="-103.5" font-family="Helvetica,sans-Serif" font-size="10.00">+ volume_ratio_</text>
<text text-anchor="start" x="8" y="-92.5" font-family="Helvetica,sans-Serif" font-size="10.00">+ phi_</text>
<text text-anchor="start" x="8" y="-81.5" font-family="Helvetica,sans-Serif" font-size="10.00">+ theta_</text>
<text text-anchor="start" x="8" y="-70.5" font-family="Helvetica,sans-Serif" font-size="10.00">+ kEventId</text>
<polyline fill="none" stroke="black" points="0,-63.5 125,-63.5 "/>
<text text-anchor="start" x="8" y="-51.5" font-family="Helvetica,sans-Serif" font-size="10.00">+ CellDivisionEvent()</text>
<text text-anchor="start" x="8" y="-40.5" font-family="Helvetica,sans-Serif" font-size="10.00">+ ~CellDivisionEvent()</text>
<text text-anchor="start" x="8" y="-29.5" font-family="Helvetica,sans-Serif" font-size="10.00">+ GetId()</text>
</a>
</g>
</g>
<!-- Node1&#45;&gt;Node2 -->
<g id="edge1" class="edge"><title>Node1&#45;&gt;Node2</title>
<path fill="none" stroke="midnightblue" d="M471.82,-227.405C396.555,-226.975 243.841,-217.868 133.5,-157 122.955,-151.183 113.128,-143.214 104.349,-134.589"/>
<polygon fill="none" stroke="midnightblue" points="471.911,-230.905 481.914,-227.413 471.916,-223.905 471.911,-230.905"/>
</g>
<!-- Node3 -->
<g id="node3" class="node"><title>Node3</title>
<g id="a_node3"><a xlink:href="structbdm_1_1experimental_1_1neuroscience_1_1NeuriteBifurcationEvent.html" target="_top" xlink:title="Contains the parameters to bifurcate a growth cone. ">
<polygon fill="white" stroke="black" points="143,-0.5 143,-156.5 316,-156.5 316,-0.5 143,-0.5"/>
<text text-anchor="start" x="151" y="-144.5" font-family="Helvetica,sans-Serif" font-size="10.00">bdm::experimental::</text>
<text text-anchor="start" x="151" y="-133.5" font-family="Helvetica,sans-Serif" font-size="10.00">neuroscience::NeuriteBifurcation</text>
<text text-anchor="middle" x="229.5" y="-122.5" font-family="Helvetica,sans-Serif" font-size="10.00">Event</text>
<polyline fill="none" stroke="black" points="143,-115.5 316,-115.5 "/>
<text text-anchor="start" x="151" y="-103.5" font-family="Helvetica,sans-Serif" font-size="10.00">+ length_</text>
<text text-anchor="start" x="151" y="-92.5" font-family="Helvetica,sans-Serif" font-size="10.00">+ diameter_left_</text>
<text text-anchor="start" x="151" y="-81.5" font-family="Helvetica,sans-Serif" font-size="10.00">+ diameter_right_</text>
<text text-anchor="start" x="151" y="-70.5" font-family="Helvetica,sans-Serif" font-size="10.00">+ direction_left_</text>
<text text-anchor="start" x="151" y="-59.5" font-family="Helvetica,sans-Serif" font-size="10.00">+ direction_right_</text>
<text text-anchor="start" x="151" y="-48.5" font-family="Helvetica,sans-Serif" font-size="10.00">+ kEventId</text>
<polyline fill="none" stroke="black" points="143,-41.5 316,-41.5 "/>
<text text-anchor="start" x="151" y="-29.5" font-family="Helvetica,sans-Serif" font-size="10.00">+ NeuriteBifurcationEvent()</text>
<text text-anchor="start" x="151" y="-18.5" font-family="Helvetica,sans-Serif" font-size="10.00">+ ~NeuriteBifurcationEvent()</text>
<text text-anchor="start" x="151" y="-7.5" font-family="Helvetica,sans-Serif" font-size="10.00">+ GetId()</text>
</a>
</g>
</g>
<!-- Node1&#45;&gt;Node3 -->
<g id="edge2" class="edge"><title>Node1&#45;&gt;Node3</title>
<path fill="none" stroke="midnightblue" d="M471.876,-214.637C431.769,-203.144 372.618,-183.556 325.5,-157 322.421,-155.265 319.34,-153.431 316.271,-151.519"/>
<polygon fill="none" stroke="midnightblue" points="471.069,-218.046 481.643,-217.384 472.964,-211.308 471.069,-218.046"/>
</g>
<!-- Node4 -->
<g id="node4" class="node"><title>Node4</title>
<g id="a_node4"><a xlink:href="structbdm_1_1experimental_1_1neuroscience_1_1NeuriteBranchingEvent.html" target="_top" xlink:title="This event splits the current neurite element into two elements and adds a new side branch as daughte...">
<polygon fill="white" stroke="black" points="334.5,-6 334.5,-151 504.5,-151 504.5,-6 334.5,-6"/>
<text text-anchor="start" x="342.5" y="-139" font-family="Helvetica,sans-Serif" font-size="10.00">bdm::experimental::</text>
<text text-anchor="start" x="342.5" y="-128" font-family="Helvetica,sans-Serif" font-size="10.00">neuroscience::NeuriteBranching</text>
<text text-anchor="middle" x="419.5" y="-117" font-family="Helvetica,sans-Serif" font-size="10.00">Event</text>
<polyline fill="none" stroke="black" points="334.5,-110 504.5,-110 "/>
<text text-anchor="start" x="342.5" y="-98" font-family="Helvetica,sans-Serif" font-size="10.00">+ distal_portion_</text>
<text text-anchor="start" x="342.5" y="-87" font-family="Helvetica,sans-Serif" font-size="10.00">+ length_</text>
<text text-anchor="start" x="342.5" y="-76" font-family="Helvetica,sans-Serif" font-size="10.00">+ diameter_</text>
<text text-anchor="start" x="342.5" y="-65" font-family="Helvetica,sans-Serif" font-size="10.00">+ direction_</text>
<text text-anchor="start" x="342.5" y="-54" font-family="Helvetica,sans-Serif" font-size="10.00">+ kEventId</text>
<polyline fill="none" stroke="black" points="334.5,-47 504.5,-47 "/>
<text text-anchor="start" x="342.5" y="-35" font-family="Helvetica,sans-Serif" font-size="10.00">+ NeuriteBranchingEvent()</text>
<text text-anchor="start" x="342.5" y="-24" font-family="Helvetica,sans-Serif" font-size="10.00">+ ~NeuriteBranchingEvent()</text>
<text text-anchor="start" x="342.5" y="-13" font-family="Helvetica,sans-Serif" font-size="10.00">+ GetId()</text>
</a>
</g>
</g>
<!-- Node1&#45;&gt;Node4 -->
<g id="edge3" class="edge"><title>Node1&#45;&gt;Node4</title>
<path fill="none" stroke="midnightblue" d="M489.579,-184.618C482.595,-174.143 474.906,-162.609 467.257,-151.136"/>
<polygon fill="none" stroke="midnightblue" points="486.803,-186.764 495.262,-193.143 492.627,-182.881 486.803,-186.764"/>
</g>
<!-- Node5 -->
<g id="node5" class="node"><title>Node5</title>
<g id="a_node5"><a xlink:href="structbdm_1_1experimental_1_1neuroscience_1_1NewNeuriteExtensionEvent.html" target="_top" xlink:title="Contains the parameters to extend a new neurite from a neuron soma. ">
<polygon fill="white" stroke="black" points="522.5,-11.5 522.5,-145.5 710.5,-145.5 710.5,-11.5 522.5,-11.5"/>
<text text-anchor="start" x="530.5" y="-133.5" font-family="Helvetica,sans-Serif" font-size="10.00">bdm::experimental::</text>
<text text-anchor="start" x="530.5" y="-122.5" font-family="Helvetica,sans-Serif" font-size="10.00">neuroscience::NewNeuriteExtension</text>
<text text-anchor="middle" x="616.5" y="-111.5" font-family="Helvetica,sans-Serif" font-size="10.00">Event</text>
<polyline fill="none" stroke="black" points="522.5,-104.5 710.5,-104.5 "/>
<text text-anchor="start" x="530.5" y="-92.5" font-family="Helvetica,sans-Serif" font-size="10.00">+ diameter_</text>
<text text-anchor="start" x="530.5" y="-81.5" font-family="Helvetica,sans-Serif" font-size="10.00">+ phi_</text>
<text text-anchor="start" x="530.5" y="-70.5" font-family="Helvetica,sans-Serif" font-size="10.00">+ theta_</text>
<text text-anchor="start" x="530.5" y="-59.5" font-family="Helvetica,sans-Serif" font-size="10.00">+ kEventId</text>
<polyline fill="none" stroke="black" points="522.5,-52.5 710.5,-52.5 "/>
<text text-anchor="start" x="530.5" y="-40.5" font-family="Helvetica,sans-Serif" font-size="10.00">+ NewNeuriteExtensionEvent()</text>
<text text-anchor="start" x="530.5" y="-29.5" font-family="Helvetica,sans-Serif" font-size="10.00">+ ~NewNeuriteExtensionEvent()</text>
<text text-anchor="start" x="530.5" y="-18.5" font-family="Helvetica,sans-Serif" font-size="10.00">+ GetId()</text>
</a>
</g>
</g>
<!-- Node1&#45;&gt;Node5 -->
<g id="edge4" class="edge"><title>Node1&#45;&gt;Node5</title>
<path fill="none" stroke="midnightblue" d="M545.715,-184.605C553.866,-172.503 562.967,-158.988 571.858,-145.787"/>
<polygon fill="none" stroke="midnightblue" points="542.648,-182.894 539.965,-193.143 548.454,-186.804 542.648,-182.894"/>
</g>
<!-- Node6 -->
<g id="node6" class="node"><title>Node6</title>
<g id="a_node6"><a xlink:href="structbdm_1_1experimental_1_1neuroscience_1_1SideNeuriteExtensionEvent.html" target="_top" xlink:title="Contains the parameters to add a side neurite element. ">
<polygon fill="white" stroke="black" points="729,-11.5 729,-145.5 918,-145.5 918,-11.5 729,-11.5"/>
<text text-anchor="start" x="737" y="-133.5" font-family="Helvetica,sans-Serif" font-size="10.00">bdm::experimental::</text>
<text text-anchor="start" x="737" y="-122.5" font-family="Helvetica,sans-Serif" font-size="10.00">neuroscience::SideNeuriteExtension</text>
<text text-anchor="middle" x="823.5" y="-111.5" font-family="Helvetica,sans-Serif" font-size="10.00">Event</text>
<polyline fill="none" stroke="black" points="729,-104.5 918,-104.5 "/>
<text text-anchor="start" x="737" y="-92.5" font-family="Helvetica,sans-Serif" font-size="10.00">+ length_</text>
<text text-anchor="start" x="737" y="-81.5" font-family="Helvetica,sans-Serif" font-size="10.00">+ diameter_</text>
<text text-anchor="start" x="737" y="-70.5" font-family="Helvetica,sans-Serif" font-size="10.00">+ direction_</text>
<text text-anchor="start" x="737" y="-59.5" font-family="Helvetica,sans-Serif" font-size="10.00">+ kEventId</text>
<polyline fill="none" stroke="black" points="729,-52.5 918,-52.5 "/>
<text text-anchor="start" x="737" y="-40.5" font-family="Helvetica,sans-Serif" font-size="10.00">+ SideNeuriteExtensionEvent()</text>
<text text-anchor="start" x="737" y="-29.5" font-family="Helvetica,sans-Serif" font-size="10.00">+ ~SideNeuriteExtensionEvent()</text>
<text text-anchor="start" x="737" y="-18.5" font-family="Helvetica,sans-Serif" font-size="10.00">+ GetId()</text>
</a>
</g>
</g>
<!-- Node1&#45;&gt;Node6 -->
<g id="edge5" class="edge"><title>Node1&#45;&gt;Node6</title>
<path fill="none" stroke="midnightblue" d="M562.849,-215.235C604.905,-203.797 668.494,-183.938 719.5,-157 726.071,-153.53 732.676,-149.667 739.197,-145.569"/>
<polygon fill="none" stroke="midnightblue" points="561.924,-211.86 553.167,-217.823 563.731,-218.622 561.924,-211.86"/>
</g>
<!-- Node7 -->
<g id="node7" class="node"><title>Node7</title>
<g id="a_node7"><a xlink:href="structbdm_1_1experimental_1_1neuroscience_1_1SplitNeuriteElementEvent.html" target="_top" xlink:title="Contains the parameters to split a neurite element into two segments. ">
<polygon fill="white" stroke="black" points="936,-22.5 936,-134.5 1103,-134.5 1103,-22.5 936,-22.5"/>
<text text-anchor="start" x="944" y="-122.5" font-family="Helvetica,sans-Serif" font-size="10.00">bdm::experimental::</text>
<text text-anchor="start" x="944" y="-111.5" font-family="Helvetica,sans-Serif" font-size="10.00">neuroscience::SplitNeurite</text>
<text text-anchor="middle" x="1019.5" y="-100.5" font-family="Helvetica,sans-Serif" font-size="10.00">ElementEvent</text>
<polyline fill="none" stroke="black" points="936,-93.5 1103,-93.5 "/>
<text text-anchor="start" x="944" y="-81.5" font-family="Helvetica,sans-Serif" font-size="10.00">+ distal_portion_</text>
<text text-anchor="start" x="944" y="-70.5" font-family="Helvetica,sans-Serif" font-size="10.00">+ kEventId</text>
<polyline fill="none" stroke="black" points="936,-63.5 1103,-63.5 "/>
<text text-anchor="start" x="944" y="-51.5" font-family="Helvetica,sans-Serif" font-size="10.00">+ SplitNeuriteElementEvent()</text>
<text text-anchor="start" x="944" y="-40.5" font-family="Helvetica,sans-Serif" font-size="10.00">+ ~SplitNeuriteElementEvent()</text>
<text text-anchor="start" x="944" y="-29.5" font-family="Helvetica,sans-Serif" font-size="10.00">+ GetId()</text>
</a>
</g>
</g>
<!-- Node1&#45;&gt;Node7 -->
<g id="edge6" class="edge"><title>Node1&#45;&gt;Node7</title>
<path fill="none" stroke="midnightblue" d="M563.078,-226.47C641.28,-224.781 804.474,-214.017 927.5,-157 940.006,-151.204 952.178,-143.246 963.358,-134.625"/>
<polygon fill="none" stroke="midnightblue" points="563.007,-222.97 553.07,-226.646 563.13,-229.969 563.007,-222.97"/>
</g>
</g>
</svg>
