<?xml version="1.0" encoding="UTF-8" standalone="no"?>
<!DOCTYPE svg PUBLIC "-//W3C//DTD SVG 1.1//EN"
 "http://www.w3.org/Graphics/SVG/1.1/DTD/svg11.dtd">
<!-- Generated by graphviz version 2.43.0 (0)
 -->
<!-- Title: bdm::UniformGridEnvironment::Box::Iterator Pages: 1 -->
<svg width="830pt" height="294pt"
 viewBox="0.00 0.00 830.00 294.00" xmlns="http://www.w3.org/2000/svg" xmlns:xlink="http://www.w3.org/1999/xlink">
<g id="graph0" class="graph" transform="scale(1 1) rotate(0) translate(4 290)">
<title>bdm::UniformGridEnvironment::Box::Iterator</title>
<polygon fill="white" stroke="transparent" points="-4,4 -4,-290 826,-290 826,4 -4,4"/>
<!-- Node1 -->
<g id="node1" class="node">
<title>Node1</title>
<g id="a_node1"><a xlink:title="An iterator that iterates over the cells in this box.">
<polygon fill="#bfbfbf" stroke="black" points="655,-243 655,-273 822,-273 822,-243 655,-243"/>
<text text-anchor="start" x="663" y="-261" font-family="Helvetica,sans-Serif" font-size="10.00">bdm::UniformGridEnvironment</text>
<text text-anchor="middle" x="738.5" y="-250" font-family="Helvetica,sans-Serif" font-size="10.00">::Box::Iterator</text>
</a>
</g>
</g>
<!-- Node2 -->
<g id="node2" class="node">
<title>Node2</title>
<g id="a_node2"><a xlink:href="classbdm_1_1AgentHandle.html" target="_top" xlink:title=" ">
<polygon fill="white" stroke="black" points="367.5,-265.5 367.5,-284.5 474.5,-284.5 474.5,-265.5 367.5,-265.5"/>
<text text-anchor="middle" x="421" y="-272.5" font-family="Helvetica,sans-Serif" font-size="10.00">bdm::AgentHandle</text>
</a>
</g>
</g>
<!-- Node2&#45;&gt;Node1 -->
<g id="edge1" class="edge">
<title>Node2&#45;&gt;Node1</title>
<path fill="none" stroke="#9a32cd" stroke-dasharray="5,2" d="M484.91,-271.61C533.67,-268.98 601.67,-265.32 654.83,-262.45"/>
<polygon fill="#9a32cd" stroke="#9a32cd" points="484.6,-268.12 474.81,-272.15 484.98,-275.11 484.6,-268.12"/>
<text text-anchor="middle" x="582.5" y="-272" font-family="Helvetica,sans-Serif" font-size="10.00"> current_value_</text>
</g>
<!-- Node3 -->
<g id="node3" class="node">
<title>Node3</title>
<g id="a_node3"><a xlink:href="classbdm_1_1UniformGridEnvironment.html" target="_top" xlink:title="A class that represents Cartesian 3D grid.">
<polygon fill="white" stroke="black" points="337.5,-197.5 337.5,-216.5 504.5,-216.5 504.5,-197.5 337.5,-197.5"/>
<text text-anchor="middle" x="421" y="-204.5" font-family="Helvetica,sans-Serif" font-size="10.00">bdm::UniformGridEnvironment</text>
</a>
</g>
</g>
<!-- Node3&#45;&gt;Node1 -->
<g id="edge2" class="edge">
<title>Node3&#45;&gt;Node1</title>
<path fill="none" stroke="#9a32cd" stroke-dasharray="5,2" d="M491,-218.15C539.19,-225.94 603.75,-236.38 654.72,-244.62"/>
<polygon fill="#9a32cd" stroke="#9a32cd" points="491.4,-214.67 480.97,-216.53 490.29,-221.58 491.4,-214.67"/>
<text text-anchor="middle" x="582.5" y="-244" font-family="Helvetica,sans-Serif" font-size="10.00"> grid_</text>
</g>
<!-- Node6 -->
<g id="node6" class="node">
<title>Node6</title>
<g id="a_node6"><a xlink:href="classbdm_1_1UniformGridEnvironment_1_1LoadBalanceInfoUG.html" target="_top" xlink:title=" ">
<polygon fill="white" stroke="black" points="655,-112 655,-142 822,-142 822,-112 655,-112"/>
<text text-anchor="start" x="663" y="-130" font-family="Helvetica,sans-Serif" font-size="10.00">bdm::UniformGridEnvironment</text>
<text text-anchor="middle" x="738.5" y="-119" font-family="Helvetica,sans-Serif" font-size="10.00">::LoadBalanceInfoUG</text>
</a>
</g>
</g>
<!-- Node3&#45;&gt;Node6 -->
<g id="edge9" class="edge">
<title>Node3&#45;&gt;Node6</title>
<path fill="none" stroke="#9a32cd" stroke-dasharray="5,2" d="M514.76,-206.01C553.32,-203.44 598.08,-197.58 637,-185 666.9,-175.33 697.68,-155.91 717.16,-142.21"/>
<polygon fill="#9a32cd" stroke="#9a32cd" points="514.34,-202.53 504.57,-206.63 514.77,-209.52 514.34,-202.53"/>
<text text-anchor="middle" x="582.5" y="-207" font-family="Helvetica,sans-Serif" font-size="10.00"> grid_</text>
</g>
<!-- Node4 -->
<g id="node4" class="node">
<title>Node4</title>
<g id="a_node4"><a xlink:href="classbdm_1_1Environment.html" target="_top" xlink:title=" ">
<polygon fill="white" stroke="black" points="53.5,-266.5 53.5,-285.5 160.5,-285.5 160.5,-266.5 53.5,-266.5"/>
<text text-anchor="middle" x="107" y="-273.5" font-family="Helvetica,sans-Serif" font-size="10.00">bdm::Environment</text>
</a>
</g>
</g>
<!-- Node4&#45;&gt;Node3 -->
<g id="edge3" class="edge">
<title>Node4&#45;&gt;Node3</title>
<path fill="none" stroke="midnightblue" d="M170.81,-265.06C185.03,-262.49 200.04,-259.72 214,-257 258.58,-248.33 269.86,-246.66 314,-236 338.67,-230.04 366.31,-222.45 387.19,-216.52"/>
<polygon fill="midnightblue" stroke="midnightblue" points="169.85,-261.67 160.63,-266.88 171.09,-268.57 169.85,-261.67"/>
</g>
<!-- Node5 -->
<g id="node5" class="node">
<title>Node5</title>
<g id="a_node5"><a xlink:href="classbdm_1_1AgentVector.html" target="_top" xlink:title=" ">
<polygon fill="white" stroke="black" points="38.5,-217 38.5,-247 175.5,-247 175.5,-217 38.5,-217"/>
<text text-anchor="start" x="46.5" y="-235" font-family="Helvetica,sans-Serif" font-size="10.00">bdm::AgentVector&lt; bdm</text>
<text text-anchor="middle" x="107" y="-224" font-family="Helvetica,sans-Serif" font-size="10.00">::AgentHandle &gt;</text>
</a>
</g>
</g>
<!-- Node5&#45;&gt;Node3 -->
<g id="edge4" class="edge">
<title>Node5&#45;&gt;Node3</title>
<path fill="none" stroke="#9a32cd" stroke-dasharray="5,2" d="M185.95,-225.75C232.1,-222.06 290.52,-217.38 337.45,-213.61"/>
<polygon fill="#9a32cd" stroke="#9a32cd" points="185.39,-222.29 175.7,-226.58 185.95,-229.27 185.39,-222.29"/>
<text text-anchor="middle" x="273" y="-224" font-family="Helvetica,sans-Serif" font-size="10.00"> successors_</text>
</g>
<!-- Node6&#45;&gt;Node3 -->
<g id="edge5" class="edge">
<title>Node6&#45;&gt;Node3</title>
<path fill="none" stroke="#9a32cd" stroke-dasharray="5,2" d="M665.67,-144.4C656.04,-146.66 646.29,-148.91 637,-151 588.7,-161.86 575.91,-161.52 528,-174 501.33,-180.95 471.38,-190.43 450.14,-197.45"/>
<polygon fill="#9a32cd" stroke="#9a32cd" points="666.71,-147.75 675.64,-142.04 665.1,-140.94 666.71,-147.75"/>
<text text-anchor="middle" x="582.5" y="-177" font-family="Helvetica,sans-Serif" font-size="10.00"> lbi_</text>
</g>
<!-- Node7 -->
<g id="node7" class="node">
<title>Node7</title>
<g id="a_node7"><a xlink:href="classbdm_1_1LoadBalanceInfo.html" target="_top" xlink:title=" ">
<polygon fill="white" stroke="black" points="358.5,-148.5 358.5,-167.5 483.5,-167.5 483.5,-148.5 358.5,-148.5"/>
<text text-anchor="middle" x="421" y="-155.5" font-family="Helvetica,sans-Serif" font-size="10.00">bdm::LoadBalanceInfo</text>
</a>
</g>
</g>
<!-- Node7&#45;&gt;Node6 -->
<g id="edge6" class="edge">
<title>Node7&#45;&gt;Node6</title>
<path fill="none" stroke="midnightblue" d="M493.57,-150.97C541.52,-146.26 604.79,-140.04 654.88,-135.12"/>
<polygon fill="midnightblue" stroke="midnightblue" points="493.19,-147.49 483.58,-151.95 493.87,-154.45 493.19,-147.49"/>
</g>
<!-- Node8 -->
<g id="node8" class="node">
<title>Node8</title>
<g id="a_node8"><a xlink:href="classbdm_1_1ParallelResizeVector.html" target="_top" xlink:title=" ">
<polygon fill="white" stroke="black" points="349.5,-99 349.5,-129 492.5,-129 492.5,-99 349.5,-99"/>
<text text-anchor="start" x="357.5" y="-117" font-family="Helvetica,sans-Serif" font-size="10.00">bdm::ParallelResizeVector</text>
<text text-anchor="middle" x="421" y="-106" font-family="Helvetica,sans-Serif" font-size="10.00">&lt; uint64_t &gt;</text>
</a>
</g>
</g>
<!-- Node8&#45;&gt;Node6 -->
<g id="edge7" class="edge">
<title>Node8&#45;&gt;Node6</title>
<path fill="none" stroke="#9a32cd" stroke-dasharray="5,2" d="M502.81,-112.2C543.16,-111.85 592.69,-112.26 637,-115 642.79,-115.36 648.75,-115.82 654.75,-116.36"/>
<polygon fill="#9a32cd" stroke="#9a32cd" points="502.72,-108.7 492.76,-112.3 502.79,-115.7 502.72,-108.7"/>
<text text-anchor="middle" x="582.5" y="-118" font-family="Helvetica,sans-Serif" font-size="10.00"> cummulated_agents_</text>
</g>
<!-- Node9 -->
<g id="node9" class="node">
<title>Node9</title>
<g id="a_node9"><a xlink:href="classbdm_1_1MortonOrder.html" target="_top" xlink:title=" ">
<polygon fill="white" stroke="black" points="368,-60.5 368,-79.5 474,-79.5 474,-60.5 368,-60.5"/>
<text text-anchor="middle" x="421" y="-67.5" font-family="Helvetica,sans-Serif" font-size="10.00">bdm::MortonOrder</text>
</a>
</g>
</g>
<!-- Node9&#45;&gt;Node6 -->
<g id="edge8" class="edge">
<title>Node9&#45;&gt;Node6</title>
<path fill="none" stroke="#9a32cd" stroke-dasharray="5,2" d="M484.13,-75.58C527.3,-80.06 586,-87.38 637,-98 654.78,-101.7 674,-106.94 690.83,-111.94"/>
<polygon fill="#9a32cd" stroke="#9a32cd" points="484.37,-72.08 474.06,-74.55 483.66,-79.05 484.37,-72.08"/>
<text text-anchor="middle" x="582.5" y="-101" font-family="Helvetica,sans-Serif" font-size="10.00"> mo_</text>
</g>
<!-- Node10 -->
<g id="node10" class="node">
<title>Node10</title>
<g id="a_node10"><a xlink:href="classbdm_1_1ParallelResizeVector.html" target="_top" xlink:title=" ">
<polygon fill="white" stroke="black" points="332,-0.5 332,-41.5 510,-41.5 510,-0.5 332,-0.5"/>
<text text-anchor="start" x="340" y="-29.5" font-family="Helvetica,sans-Serif" font-size="10.00">bdm::ParallelResizeVector</text>
<text text-anchor="start" x="340" y="-18.5" font-family="Helvetica,sans-Serif" font-size="10.00">&lt; bdm::UniformGridEnvironment</text>
<text text-anchor="middle" x="421" y="-7.5" font-family="Helvetica,sans-Serif" font-size="10.00">::Box * &gt;</text>
</a>
</g>
</g>
<!-- Node10&#45;&gt;Node6 -->
<g id="edge10" class="edge">
<title>Node10&#45;&gt;Node6</title>
<path fill="none" stroke="#9a32cd" stroke-dasharray="5,2" d="M520.1,-35C557.49,-42.13 599.99,-52.45 637,-67 666.5,-78.6 697.37,-98.34 716.98,-112"/>
<polygon fill="#9a32cd" stroke="#9a32cd" points="520.68,-31.54 510.21,-33.16 519.4,-38.43 520.68,-31.54"/>
<text text-anchor="middle" x="582.5" y="-70" font-family="Helvetica,sans-Serif" font-size="10.00"> sorted_boxes_</text>
</g>
<!-- Node11 -->
<g id="node11" class="node">
<title>Node11</title>
<g id="a_node11"><a xlink:href="classbdm_1_1ParallelResizeVector.html" target="_top" xlink:title=" ">
<polygon fill="white" stroke="black" points="0,-168 0,-198 214,-198 214,-168 0,-168"/>
<text text-anchor="start" x="8" y="-186" font-family="Helvetica,sans-Serif" font-size="10.00">bdm::ParallelResizeVector</text>
<text text-anchor="middle" x="107" y="-175" font-family="Helvetica,sans-Serif" font-size="10.00">&lt; bdm::UniformGridEnvironment::Box &gt;</text>
</a>
</g>
</g>
<!-- Node11&#45;&gt;Node3 -->
<g id="edge11" class="edge">
<title>Node11&#45;&gt;Node3</title>
<path fill="none" stroke="#9a32cd" stroke-dasharray="5,2" d="M224.07,-191.93C261.72,-194.82 302.69,-197.98 337.38,-200.64"/>
<polygon fill="#9a32cd" stroke="#9a32cd" points="224.3,-188.44 214.06,-191.16 223.77,-195.42 224.3,-188.44"/>
<text text-anchor="middle" x="273" y="-201" font-family="Helvetica,sans-Serif" font-size="10.00"> boxes_</text>
</g>
<!-- Node12 -->
<g id="node12" class="node">
<title>Node12</title>
<g id="a_node12"><a xlink:title=" ">
<polygon fill="white" stroke="#bfbfbf" points="84.5,-129.5 84.5,-148.5 129.5,-148.5 129.5,-129.5 84.5,-129.5"/>
<text text-anchor="middle" x="107" y="-136.5" font-family="Helvetica,sans-Serif" font-size="10.00">size_t</text>
</a>
</g>
</g>
<!-- Node12&#45;&gt;Node3 -->
<g id="edge12" class="edge">
<title>Node12&#45;&gt;Node3</title>
<path fill="none" stroke="#9a32cd" stroke-dasharray="5,2" d="M139.9,-143.93C180.55,-150.44 252.88,-162.75 314,-177 339.52,-182.95 368.08,-191.12 389.12,-197.44"/>
<polygon fill="#9a32cd" stroke="#9a32cd" points="140.21,-140.44 129.79,-142.33 139.12,-147.36 140.21,-140.44"/>
<text text-anchor="middle" x="273" y="-180" font-family="Helvetica,sans-Serif" font-size="10.00"> num_boxes_xy_</text>
</g>
</g>
</svg>
