<?xml version="1.0" encoding="UTF-8" standalone="no"?>
<!DOCTYPE svg PUBLIC "-//W3C//DTD SVG 1.1//EN"
 "http://www.w3.org/Graphics/SVG/1.1/DTD/svg11.dtd">
<!-- Generated by graphviz version 2.38.0 (20140413.2041)
 -->
<!-- Title: bdm::Event::GetId Pages: 1 -->
<svg width="1129pt" height="376pt"
 viewBox="0.00 0.00 1129.00 376.00" xmlns="http://www.w3.org/2000/svg" xmlns:xlink="http://www.w3.org/1999/xlink">
<g id="graph0" class="graph" transform="scale(1 1) rotate(0) translate(4 372)">
<title>bdm::Event::GetId</title>
<polygon fill="white" stroke="none" points="-4,4 -4,-372 1125,-372 1125,4 -4,4"/>
<!-- Node1 -->
<g id="node1" class="node"><title>Node1</title>
<polygon fill="#bfbfbf" stroke="black" points="0,-193.5 0,-212.5 103,-212.5 103,-193.5 0,-193.5"/>
<text text-anchor="middle" x="51.5" y="-200.5" font-family="Helvetica,sans-Serif" font-size="10.00">bdm::Event::GetId</text>
</g>
<!-- Node2 -->
<g id="node2" class="node"><title>Node2</title>
<g id="a_node2"><a xlink:href="classbdm_1_1SimObject.html#aee74861f4b5073fe7c1bab3f698b457f" target="_top" xlink:title="Function to copy biology modules from one structure to another. ">
<polygon fill="white" stroke="black" points="144.5,-259 144.5,-289 302.5,-289 302.5,-259 144.5,-259"/>
<text text-anchor="start" x="152.5" y="-277" font-family="Helvetica,sans-Serif" font-size="10.00">bdm::SimObject::CopyBiology</text>
<text text-anchor="middle" x="223.5" y="-266" font-family="Helvetica,sans-Serif" font-size="10.00">Modules</text>
</a>
</g>
</g>
<!-- Node1&#45;&gt;Node2 -->
<g id="edge1" class="edge"><title>Node1&#45;&gt;Node2</title>
<path fill="none" stroke="midnightblue" d="M76.3329,-217.787C93.33,-227.871 116.982,-240.98 139,-250 146.956,-253.259 155.508,-256.257 163.998,-258.948"/>
<polygon fill="midnightblue" stroke="midnightblue" points="77.999,-214.705 67.6273,-212.542 74.3863,-220.701 77.999,-214.705"/>
</g>
<!-- Node4 -->
<g id="node4" class="node"><title>Node4</title>
<g id="a_node4"><a xlink:href="classbdm_1_1SimObject.html#a7e4d1916eda10e7bec979b8dbd4e3dd3" target="_top" xlink:title="Function to invoke the EventHandler of the biology module or remove it from current. Forwards the event handler call to each biology modules of the triggered simulation object and removes biology modules if they are flagged. ">
<polygon fill="white" stroke="black" points="139,-210 139,-240 308,-240 308,-210 139,-210"/>
<text text-anchor="start" x="147" y="-228" font-family="Helvetica,sans-Serif" font-size="10.00">bdm::SimObject::BiologyModule</text>
<text text-anchor="middle" x="223.5" y="-217" font-family="Helvetica,sans-Serif" font-size="10.00">EventHandler</text>
</a>
</g>
</g>
<!-- Node1&#45;&gt;Node4 -->
<g id="edge3" class="edge"><title>Node1&#45;&gt;Node4</title>
<path fill="none" stroke="midnightblue" d="M113.025,-210.833C121.366,-211.912 130.051,-213.036 138.719,-214.158"/>
<polygon fill="midnightblue" stroke="midnightblue" points="113.412,-207.354 103.045,-209.541 112.513,-214.296 113.412,-207.354"/>
</g>
<!-- Node13 -->
<g id="node13" class="node"><title>Node13</title>
<g id="a_node13"><a xlink:href="classbdm_1_1experimental_1_1neuroscience_1_1NeuriteElement.html#a92c72f7109de0db0f1163e007a79b887" target="_top" xlink:title="bdm::experimental::\lneuroscience::NeuriteElement\l::EventHandler">
<polygon fill="white" stroke="black" points="555,-128.5 555,-169.5 716,-169.5 716,-128.5 555,-128.5"/>
<text text-anchor="start" x="563" y="-157.5" font-family="Helvetica,sans-Serif" font-size="10.00">bdm::experimental::</text>
<text text-anchor="start" x="563" y="-146.5" font-family="Helvetica,sans-Serif" font-size="10.00">neuroscience::NeuriteElement</text>
<text text-anchor="middle" x="635.5" y="-135.5" font-family="Helvetica,sans-Serif" font-size="10.00">::EventHandler</text>
</a>
</g>
</g>
<!-- Node1&#45;&gt;Node13 -->
<g id="edge19" class="edge"><title>Node1&#45;&gt;Node13</title>
<path fill="none" stroke="midnightblue" d="M113.318,-197.357C219.107,-187.542 436.933,-167.331 554.709,-156.403"/>
<polygon fill="midnightblue" stroke="midnightblue" points="112.764,-193.893 103.131,-198.302 113.411,-200.863 112.764,-193.893"/>
</g>
<!-- Node19 -->
<g id="node19" class="node"><title>Node19</title>
<g id="a_node19"><a xlink:href="classbdm_1_1experimental_1_1neuroscience_1_1NeuriteElement.html#abb2101f3b2f4bff7c03f40b4e95f227d" target="_top" xlink:title="TODO. ">
<polygon fill="white" stroke="black" points="143,-111.5 143,-152.5 304,-152.5 304,-111.5 143,-111.5"/>
<text text-anchor="start" x="151" y="-140.5" font-family="Helvetica,sans-Serif" font-size="10.00">bdm::experimental::</text>
<text text-anchor="start" x="151" y="-129.5" font-family="Helvetica,sans-Serif" font-size="10.00">neuroscience::NeuriteElement</text>
<text text-anchor="middle" x="223.5" y="-118.5" font-family="Helvetica,sans-Serif" font-size="10.00">::NeuriteElement</text>
</a>
</g>
</g>
<!-- Node1&#45;&gt;Node19 -->
<g id="edge18" class="edge"><title>Node1&#45;&gt;Node19</title>
<path fill="none" stroke="midnightblue" d="M84.7954,-189.512C109.746,-179.091 144.706,-164.491 173.156,-152.608"/>
<polygon fill="midnightblue" stroke="midnightblue" points="83.3056,-186.341 75.427,-193.425 86.0034,-192.8 83.3056,-186.341"/>
</g>
<!-- Node3 -->
<g id="node3" class="node"><title>Node3</title>
<g id="a_node3"><a xlink:href="classbdm_1_1SimObject.html#affb9c3c53fde67272594abf2afc2f00a" target="_top" xlink:title="bdm::SimObject::SimObject">
<polygon fill="white" stroke="black" points="351.5,-264.5 351.5,-283.5 500.5,-283.5 500.5,-264.5 351.5,-264.5"/>
<text text-anchor="middle" x="426" y="-271.5" font-family="Helvetica,sans-Serif" font-size="10.00">bdm::SimObject::SimObject</text>
</a>
</g>
</g>
<!-- Node2&#45;&gt;Node3 -->
<g id="edge2" class="edge"><title>Node2&#45;&gt;Node3</title>
<path fill="none" stroke="midnightblue" d="M312.841,-274C325.712,-274 338.849,-274 351.386,-274"/>
<polygon fill="midnightblue" stroke="midnightblue" points="312.593,-270.5 302.593,-274 312.593,-277.5 312.593,-270.5"/>
</g>
<!-- Node5 -->
<g id="node5" class="node"><title>Node5</title>
<g id="a_node5"><a xlink:href="classbdm_1_1SimObject.html#ac5187477c43b00044e8347e7ce13da72" target="_top" xlink:title="bdm::SimObject::EventHandler">
<polygon fill="white" stroke="black" points="344,-220.5 344,-239.5 508,-239.5 508,-220.5 344,-220.5"/>
<text text-anchor="middle" x="426" y="-227.5" font-family="Helvetica,sans-Serif" font-size="10.00">bdm::SimObject::EventHandler</text>
</a>
</g>
</g>
<!-- Node4&#45;&gt;Node5 -->
<g id="edge4" class="edge"><title>Node4&#45;&gt;Node5</title>
<path fill="none" stroke="midnightblue" d="M318.111,-227.334C326.696,-227.549 335.347,-227.764 343.809,-227.975"/>
<polygon fill="midnightblue" stroke="midnightblue" points="318.162,-223.835 308.078,-227.084 317.988,-230.833 318.162,-223.835"/>
</g>
<!-- Node6 -->
<g id="node6" class="node"><title>Node6</title>
<g id="a_node6"><a xlink:href="classbdm_1_1Cell.html#aca13397bf85b0bd08bde4ca7ddaa7da1" target="_top" xlink:title="EventHandler to modify the data members of this cell after a cell division. ">
<polygon fill="white" stroke="black" points="569.5,-299.5 569.5,-318.5 701.5,-318.5 701.5,-299.5 569.5,-299.5"/>
<text text-anchor="middle" x="635.5" y="-306.5" font-family="Helvetica,sans-Serif" font-size="10.00">bdm::Cell::EventHandler</text>
</a>
</g>
</g>
<!-- Node5&#45;&gt;Node6 -->
<g id="edge5" class="edge"><title>Node5&#45;&gt;Node6</title>
<path fill="none" stroke="midnightblue" d="M470.33,-242.462C482.595,-246.236 495.898,-250.563 508,-255 545.889,-268.891 588.882,-287.975 613.728,-299.342"/>
<polygon fill="midnightblue" stroke="midnightblue" points="471.345,-239.113 460.759,-239.564 469.315,-245.812 471.345,-239.113"/>
</g>
<!-- Node11 -->
<g id="node11" class="node"><title>Node11</title>
<g id="a_node11"><a xlink:href="classbdm_1_1SimObject.html#a961ba40129151a040376fd416caad642" target="_top" xlink:title="bdm::SimObject::RunDisplacement">
<polygon fill="white" stroke="black" points="544,-229.5 544,-248.5 727,-248.5 727,-229.5 544,-229.5"/>
<text text-anchor="middle" x="635.5" y="-236.5" font-family="Helvetica,sans-Serif" font-size="10.00">bdm::SimObject::RunDisplacement</text>
</a>
</g>
</g>
<!-- Node5&#45;&gt;Node11 -->
<g id="edge10" class="edge"><title>Node5&#45;&gt;Node11</title>
<path fill="none" stroke="midnightblue" d="M518.355,-233.962C526.807,-234.329 535.37,-234.7 543.816,-235.067"/>
<polygon fill="midnightblue" stroke="midnightblue" points="518.259,-230.455 508.116,-233.518 517.955,-237.448 518.259,-230.455"/>
</g>
<!-- Node5&#45;&gt;Node13 -->
<g id="edge12" class="edge"><title>Node5&#45;&gt;Node13</title>
<path fill="none" stroke="midnightblue" d="M461.2,-216.65C493.954,-203.864 543.849,-184.386 581.705,-169.609"/>
<polygon fill="midnightblue" stroke="midnightblue" points="459.66,-213.493 451.618,-220.39 462.206,-220.014 459.66,-213.493"/>
</g>
<!-- Node7 -->
<g id="node7" class="node"><title>Node7</title>
<g id="a_node7"><a xlink:href="classbdm_1_1Cell.html#a0c2eaa89f933fe42036a690b9adf3875" target="_top" xlink:title="Divide this cell. ">
<polygon fill="white" stroke="black" points="795,-348.5 795,-367.5 892,-367.5 892,-348.5 795,-348.5"/>
<text text-anchor="middle" x="843.5" y="-355.5" font-family="Helvetica,sans-Serif" font-size="10.00">bdm::Cell::Divide</text>
</a>
</g>
</g>
<!-- Node6&#45;&gt;Node7 -->
<g id="edge6" class="edge"><title>Node6&#45;&gt;Node7</title>
<path fill="none" stroke="midnightblue" d="M686.874,-320.982C722.415,-329.436 769.385,-340.609 802.394,-348.46"/>
<polygon fill="midnightblue" stroke="midnightblue" points="687.246,-317.473 676.708,-318.564 685.627,-324.283 687.246,-317.473"/>
</g>
<!-- Node8 -->
<g id="node8" class="node"><title>Node8</title>
<g id="a_node8"><a xlink:href="classbdm_1_1experimental_1_1neuroscience_1_1NeuronSoma.html#af5f90bc7392b33ef9326e2e4f9be7351" target="_top" xlink:title="EventHandler to modify the data members of this cell after a cell division, or new neurite branching ...">
<polygon fill="white" stroke="black" points="768.5,-288.5 768.5,-329.5 918.5,-329.5 918.5,-288.5 768.5,-288.5"/>
<text text-anchor="start" x="776.5" y="-317.5" font-family="Helvetica,sans-Serif" font-size="10.00">bdm::experimental::</text>
<text text-anchor="start" x="776.5" y="-306.5" font-family="Helvetica,sans-Serif" font-size="10.00">neuroscience::NeuronSoma</text>
<text text-anchor="middle" x="843.5" y="-295.5" font-family="Helvetica,sans-Serif" font-size="10.00">::EventHandler</text>
</a>
</g>
</g>
<!-- Node6&#45;&gt;Node8 -->
<g id="edge7" class="edge"><title>Node6&#45;&gt;Node8</title>
<path fill="none" stroke="midnightblue" d="M711.791,-309C730.258,-309 750.01,-309 768.42,-309"/>
<polygon fill="midnightblue" stroke="midnightblue" points="711.68,-305.5 701.68,-309 711.68,-312.5 711.68,-305.5"/>
</g>
<!-- Node9 -->
<g id="node9" class="node"><title>Node9</title>
<g id="a_node9"><a xlink:href="classbdm_1_1experimental_1_1neuroscience_1_1NeuronSoma.html#a7b0f3584caa4334a8360699bb193a05f" target="_top" xlink:title="Extend a new neurite from this soma. ">
<polygon fill="white" stroke="black" points="965.5,-318.5 965.5,-359.5 1115.5,-359.5 1115.5,-318.5 965.5,-318.5"/>
<text text-anchor="start" x="973.5" y="-347.5" font-family="Helvetica,sans-Serif" font-size="10.00">bdm::experimental::</text>
<text text-anchor="start" x="973.5" y="-336.5" font-family="Helvetica,sans-Serif" font-size="10.00">neuroscience::NeuronSoma</text>
<text text-anchor="middle" x="1040.5" y="-325.5" font-family="Helvetica,sans-Serif" font-size="10.00">::ExtendNewNeurite</text>
</a>
</g>
</g>
<!-- Node8&#45;&gt;Node9 -->
<g id="edge8" class="edge"><title>Node8&#45;&gt;Node9</title>
<path fill="none" stroke="midnightblue" d="M928.906,-321.986C941.062,-323.856 953.495,-325.768 965.429,-327.604"/>
<polygon fill="midnightblue" stroke="midnightblue" points="929.193,-318.489 918.777,-320.427 928.129,-325.407 929.193,-318.489"/>
</g>
<!-- Node10 -->
<g id="node10" class="node"><title>Node10</title>
<g id="a_node10"><a xlink:href="classbdm_1_1experimental_1_1neuroscience_1_1NeuronSoma.html#a1e1ed2b4ca3fde8dfaa1ea1d57fa4b54" target="_top" xlink:title="bdm::experimental::\lneuroscience::NeuronSoma\l::NeuronSoma">
<polygon fill="white" stroke="black" points="965.5,-258.5 965.5,-299.5 1115.5,-299.5 1115.5,-258.5 965.5,-258.5"/>
<text text-anchor="start" x="973.5" y="-287.5" font-family="Helvetica,sans-Serif" font-size="10.00">bdm::experimental::</text>
<text text-anchor="start" x="973.5" y="-276.5" font-family="Helvetica,sans-Serif" font-size="10.00">neuroscience::NeuronSoma</text>
<text text-anchor="middle" x="1040.5" y="-265.5" font-family="Helvetica,sans-Serif" font-size="10.00">::NeuronSoma</text>
</a>
</g>
</g>
<!-- Node8&#45;&gt;Node10 -->
<g id="edge9" class="edge"><title>Node8&#45;&gt;Node10</title>
<path fill="none" stroke="midnightblue" d="M928.906,-296.014C941.062,-294.144 953.495,-292.232 965.429,-290.396"/>
<polygon fill="midnightblue" stroke="midnightblue" points="928.129,-292.593 918.777,-297.573 929.193,-299.511 928.129,-292.593"/>
</g>
<!-- Node12 -->
<g id="node12" class="node"><title>Node12</title>
<g id="a_node12"><a xlink:href="classbdm_1_1DisplacementOpCpu.html#a15d548e606d50c46388a6b74c356a8c7" target="_top" xlink:title="bdm::DisplacementOpCpu\l::operator()">
<polygon fill="white" stroke="black" points="772,-240 772,-270 915,-270 915,-240 772,-240"/>
<text text-anchor="start" x="780" y="-258" font-family="Helvetica,sans-Serif" font-size="10.00">bdm::DisplacementOpCpu</text>
<text text-anchor="middle" x="843.5" y="-247" font-family="Helvetica,sans-Serif" font-size="10.00">::operator()</text>
</a>
</g>
</g>
<!-- Node11&#45;&gt;Node12 -->
<g id="edge11" class="edge"><title>Node11&#45;&gt;Node12</title>
<path fill="none" stroke="midnightblue" d="M737.392,-246.836C749.07,-247.743 760.783,-248.653 771.932,-249.519"/>
<polygon fill="midnightblue" stroke="midnightblue" points="737.395,-243.326 727.154,-246.041 736.853,-250.305 737.395,-243.326"/>
</g>
<!-- Node14 -->
<g id="node14" class="node"><title>Node14</title>
<g id="a_node14"><a xlink:href="classbdm_1_1experimental_1_1neuroscience_1_1NeuriteElement.html#a742c8deba8632cb9826427f3fded9aa9" target="_top" xlink:title="Create a branch for this neurite element. ">
<polygon fill="white" stroke="black" points="763,-180.5 763,-221.5 924,-221.5 924,-180.5 763,-180.5"/>
<text text-anchor="start" x="771" y="-209.5" font-family="Helvetica,sans-Serif" font-size="10.00">bdm::experimental::</text>
<text text-anchor="start" x="771" y="-198.5" font-family="Helvetica,sans-Serif" font-size="10.00">neuroscience::NeuriteElement</text>
<text text-anchor="middle" x="843.5" y="-187.5" font-family="Helvetica,sans-Serif" font-size="10.00">::Branch</text>
</a>
</g>
</g>
<!-- Node13&#45;&gt;Node14 -->
<g id="edge13" class="edge"><title>Node13&#45;&gt;Node14</title>
<path fill="none" stroke="midnightblue" d="M725.9,-171.567C738.151,-174.66 750.663,-177.818 762.727,-180.863"/>
<polygon fill="midnightblue" stroke="midnightblue" points="726.697,-168.159 716.145,-169.105 724.984,-174.946 726.697,-168.159"/>
</g>
<!-- Node15 -->
<g id="node15" class="node"><title>Node15</title>
<g id="a_node15"><a xlink:href="classbdm_1_1experimental_1_1neuroscience_1_1NeuriteElement.html#aabe7a3776c753c005cc289377a00bec8" target="_top" xlink:title="Growth cone bifurcation. ">
<polygon fill="white" stroke="black" points="763,-120.5 763,-161.5 924,-161.5 924,-120.5 763,-120.5"/>
<text text-anchor="start" x="771" y="-149.5" font-family="Helvetica,sans-Serif" font-size="10.00">bdm::experimental::</text>
<text text-anchor="start" x="771" y="-138.5" font-family="Helvetica,sans-Serif" font-size="10.00">neuroscience::NeuriteElement</text>
<text text-anchor="middle" x="843.5" y="-127.5" font-family="Helvetica,sans-Serif" font-size="10.00">::Bifurcate</text>
</a>
</g>
</g>
<!-- Node13&#45;&gt;Node15 -->
<g id="edge14" class="edge"><title>Node13&#45;&gt;Node15</title>
<path fill="none" stroke="midnightblue" d="M726.264,-145.514C738.399,-145.043 750.783,-144.562 762.727,-144.098"/>
<polygon fill="midnightblue" stroke="midnightblue" points="726.002,-142.021 716.145,-145.907 726.273,-149.016 726.002,-142.021"/>
</g>
<!-- Node16 -->
<g id="node16" class="node"><title>Node16</title>
<g id="a_node16"><a xlink:href="classbdm_1_1experimental_1_1neuroscience_1_1NeuriteElement.html#acfd3ee9d43dac28ff8023b7d4bebeeb5" target="_top" xlink:title="Split this neurite element into two segments. ">
<polygon fill="white" stroke="black" points="763,-60.5 763,-101.5 924,-101.5 924,-60.5 763,-60.5"/>
<text text-anchor="start" x="771" y="-89.5" font-family="Helvetica,sans-Serif" font-size="10.00">bdm::experimental::</text>
<text text-anchor="start" x="771" y="-78.5" font-family="Helvetica,sans-Serif" font-size="10.00">neuroscience::NeuriteElement</text>
<text text-anchor="middle" x="843.5" y="-67.5" font-family="Helvetica,sans-Serif" font-size="10.00">::SplitNeuriteElement</text>
</a>
</g>
</g>
<!-- Node13&#45;&gt;Node16 -->
<g id="edge15" class="edge"><title>Node13&#45;&gt;Node16</title>
<path fill="none" stroke="midnightblue" d="M708.408,-125.263C731.856,-117.523 757.676,-109 780.346,-101.517"/>
<polygon fill="midnightblue" stroke="midnightblue" points="707.265,-121.955 698.866,-128.413 709.459,-128.602 707.265,-121.955"/>
</g>
<!-- Node18 -->
<g id="node18" class="node"><title>Node18</title>
<g id="a_node18"><a xlink:href="classbdm_1_1experimental_1_1neuroscience_1_1NeuriteElement.html#aa5ed9c8790a117bf8b93f1c2f08bcc15" target="_top" xlink:title="Extend a side neurite element and assign it to daughter right. ">
<polygon fill="white" stroke="black" points="763,-0.5 763,-41.5 924,-41.5 924,-0.5 763,-0.5"/>
<text text-anchor="start" x="771" y="-29.5" font-family="Helvetica,sans-Serif" font-size="10.00">bdm::experimental::</text>
<text text-anchor="start" x="771" y="-18.5" font-family="Helvetica,sans-Serif" font-size="10.00">neuroscience::NeuriteElement</text>
<text text-anchor="middle" x="843.5" y="-7.5" font-family="Helvetica,sans-Serif" font-size="10.00">::ExtendSideNeuriteElement</text>
</a>
</g>
</g>
<!-- Node13&#45;&gt;Node18 -->
<g id="edge17" class="edge"><title>Node13&#45;&gt;Node18</title>
<path fill="none" stroke="midnightblue" d="M666.345,-121.708C690.898,-100.322 727.338,-70.9468 763,-51 769.051,-47.6153 775.56,-44.4623 782.155,-41.5699"/>
<polygon fill="midnightblue" stroke="midnightblue" points="663.997,-119.112 658.807,-128.349 668.624,-124.365 663.997,-119.112"/>
</g>
<!-- Node17 -->
<g id="node17" class="node"><title>Node17</title>
<g id="a_node17"><a xlink:href="classbdm_1_1experimental_1_1neuroscience_1_1NeuriteElement.html#aa0936af954812aaf2d8913c6cab0f4c6" target="_top" xlink:title="bdm::experimental::\lneuroscience::NeuriteElement\l::RunDiscretization">
<polygon fill="white" stroke="black" points="960,-60.5 960,-101.5 1121,-101.5 1121,-60.5 960,-60.5"/>
<text text-anchor="start" x="968" y="-89.5" font-family="Helvetica,sans-Serif" font-size="10.00">bdm::experimental::</text>
<text text-anchor="start" x="968" y="-78.5" font-family="Helvetica,sans-Serif" font-size="10.00">neuroscience::NeuriteElement</text>
<text text-anchor="middle" x="1040.5" y="-67.5" font-family="Helvetica,sans-Serif" font-size="10.00">::RunDiscretization</text>
</a>
</g>
</g>
<!-- Node16&#45;&gt;Node17 -->
<g id="edge16" class="edge"><title>Node16&#45;&gt;Node17</title>
<path fill="none" stroke="midnightblue" d="M934.117,-81C942.7,-81 951.365,-81 959.843,-81"/>
<polygon fill="midnightblue" stroke="midnightblue" points="934.095,-77.5001 924.095,-81 934.095,-84.5001 934.095,-77.5001"/>
</g>
</g>
</svg>
