<?xml version="1.0" encoding="UTF-8" standalone="no"?>
<!DOCTYPE svg PUBLIC "-//W3C//DTD SVG 1.1//EN"
 "http://www.w3.org/Graphics/SVG/1.1/DTD/svg11.dtd">
<!-- Generated by graphviz version 2.40.1 (20161225.0304)
 -->
<!-- Title: bdm::UpdateRunDisplacementOp Pages: 1 -->
<svg width="172pt" height="140pt"
 viewBox="0.00 0.00 172.00 140.00" xmlns="http://www.w3.org/2000/svg" xmlns:xlink="http://www.w3.org/1999/xlink">
<g id="graph0" class="graph" transform="scale(1 1) rotate(0) translate(4 136)">
<title>bdm::UpdateRunDisplacementOp</title>
<polygon fill="#ffffff" stroke="transparent" points="-4,4 -4,-136 168,-136 168,4 -4,4"/>
<!-- Node3 -->
<g id="node1" class="node">
<title>Node3</title>
<polygon fill="#bfbfbf" stroke="#000000" points="0,-.5 0,-19.5 164,-19.5 164,-.5 0,-.5"/>
<text text-anchor="middle" x="82" y="-7.5" font-family="Helvetica,sans-Serif" font-size="10.00" fill="#000000">bdm::UpdateRunDisplacementOp</text>
</g>
<!-- Node4 -->
<g id="node2" class="node">
<title>Node4</title>
<g id="a_node2"><a xlink:href="structbdm_1_1AgentOperationImpl.html" target="_top" xlink:title="Interface for implementing an operation. ">
<polygon fill="#ffffff" stroke="#000000" points="18,-56.5 18,-75.5 146,-75.5 146,-56.5 18,-56.5"/>
<text text-anchor="middle" x="82" y="-63.5" font-family="Helvetica,sans-Serif" font-size="10.00" fill="#000000">bdm::AgentOperationImpl</text>
</a>
</g>
</g>
<!-- Node4&#45;&gt;Node3 -->
<g id="edge1" class="edge">
<title>Node4&#45;&gt;Node3</title>
<path fill="none" stroke="#191970" d="M82,-46.1575C82,-37.155 82,-26.9199 82,-19.6427"/>
<polygon fill="#191970" stroke="#191970" points="78.5001,-46.2455 82,-56.2455 85.5001,-46.2456 78.5001,-46.2455"/>
</g>
<!-- Node5 -->
<g id="node3" class="node">
<title>Node5</title>
<g id="a_node3"><a xlink:href="structbdm_1_1OperationImpl.html" target="_top" xlink:title="bdm::OperationImpl">
<polygon fill="#ffffff" stroke="#000000" points="31,-112.5 31,-131.5 133,-131.5 133,-112.5 31,-112.5"/>
<text text-anchor="middle" x="82" y="-119.5" font-family="Helvetica,sans-Serif" font-size="10.00" fill="#000000">bdm::OperationImpl</text>
</a>
</g>
</g>
<!-- Node5&#45;&gt;Node4 -->
<g id="edge2" class="edge">
<title>Node5&#45;&gt;Node4</title>
<path fill="none" stroke="#191970" d="M82,-102.1575C82,-93.155 82,-82.9199 82,-75.6427"/>
<polygon fill="#191970" stroke="#191970" points="78.5001,-102.2455 82,-112.2455 85.5001,-102.2456 78.5001,-102.2455"/>
</g>
</g>
</svg>
