<?xml version="1.0" encoding="UTF-8" standalone="no"?>
<!DOCTYPE svg PUBLIC "-//W3C//DTD SVG 1.1//EN"
 "http://www.w3.org/Graphics/SVG/1.1/DTD/svg11.dtd">
<!-- Generated by graphviz version 2.43.0 (0)
 -->
<!-- Title: bdm::UniformGridEnvironment::LoadBalanceInfoUG::InitializeVectorFunctor Pages: 1 -->
<svg width="1076pt" height="323pt"
 viewBox="0.00 0.00 1076.00 323.15" xmlns="http://www.w3.org/2000/svg" xmlns:xlink="http://www.w3.org/1999/xlink">
<g id="graph0" class="graph" transform="scale(1 1) rotate(0) translate(4 319.15)">
<title>bdm::UniformGridEnvironment::LoadBalanceInfoUG::InitializeVectorFunctor</title>
<polygon fill="white" stroke="transparent" points="-4,4 -4,-319.15 1072,-319.15 1072,4 -4,4"/>
<!-- Node1 -->
<g id="node1" class="node">
<title>Node1</title>
<g id="a_node1"><a xlink:title=" ">
<polygon fill="#bfbfbf" stroke="black" points="901,-209.15 901,-250.15 1068,-250.15 1068,-209.15 901,-209.15"/>
<text text-anchor="start" x="909" y="-238.15" font-family="Helvetica,sans-Serif" font-size="10.00">bdm::UniformGridEnvironment</text>
<text text-anchor="start" x="909" y="-227.15" font-family="Helvetica,sans-Serif" font-size="10.00">::LoadBalanceInfoUG::Initialize</text>
<text text-anchor="middle" x="984.5" y="-216.15" font-family="Helvetica,sans-Serif" font-size="10.00">VectorFunctor</text>
</a>
</g>
</g>
<!-- Node2 -->
<g id="node2" class="node">
<title>Node2</title>
<g id="a_node2"><a xlink:href="classbdm_1_1Functor.html" target="_top" xlink:title=" ">
<polygon fill="white" stroke="black" points="691,-284.65 691,-314.65 828,-314.65 828,-284.65 691,-284.65"/>
<text text-anchor="start" x="699" y="-302.65" font-family="Helvetica,sans-Serif" font-size="10.00">bdm::Functor&lt; void,</text>
<text text-anchor="middle" x="759.5" y="-291.65" font-family="Helvetica,sans-Serif" font-size="10.00"> Iterator&lt; uint64_t &gt; * &gt;</text>
</a>
</g>
</g>
<!-- Node2&#45;&gt;Node1 -->
<g id="edge1" class="edge">
<title>Node2&#45;&gt;Node1</title>
<path fill="none" stroke="midnightblue" d="M837.86,-282.43C852.93,-278.59 868.54,-274.27 883,-269.65 900.44,-264.07 919.17,-256.94 935.69,-250.25"/>
<polygon fill="midnightblue" stroke="midnightblue" points="836.9,-279.07 828.04,-284.89 838.59,-285.86 836.9,-279.07"/>
</g>
<!-- Node3 -->
<g id="node3" class="node">
<title>Node3</title>
<g id="a_node3"><a xlink:href="classbdm_1_1ParallelResizeVector.html" target="_top" xlink:title=" ">
<polygon fill="white" stroke="black" points="17.5,-232.65 17.5,-262.65 160.5,-262.65 160.5,-232.65 17.5,-232.65"/>
<text text-anchor="start" x="25.5" y="-250.65" font-family="Helvetica,sans-Serif" font-size="10.00">bdm::ParallelResizeVector</text>
<text text-anchor="middle" x="89" y="-239.65" font-family="Helvetica,sans-Serif" font-size="10.00">&lt; uint64_t &gt;</text>
</a>
</g>
</g>
<!-- Node3&#45;&gt;Node1 -->
<g id="edge2" class="edge">
<title>Node3&#45;&gt;Node1</title>
<path fill="none" stroke="#9a32cd" stroke-dasharray="5,2" d="M170.95,-246.02C340.22,-242.61 730.01,-234.76 900.79,-231.32"/>
<polygon fill="#9a32cd" stroke="#9a32cd" points="170.79,-242.52 160.86,-246.22 170.93,-249.52 170.79,-242.52"/>
<text text-anchor="middle" x="606.5" y="-240.65" font-family="Helvetica,sans-Serif" font-size="10.00"> cummulated_agents</text>
</g>
<!-- Node7 -->
<g id="node7" class="node">
<title>Node7</title>
<g id="a_node7"><a xlink:href="classbdm_1_1UniformGridEnvironment_1_1LoadBalanceInfoUG.html" target="_top" xlink:title=" ">
<polygon fill="white" stroke="black" points="346.5,-196.65 346.5,-226.65 513.5,-226.65 513.5,-196.65 346.5,-196.65"/>
<text text-anchor="start" x="354.5" y="-214.65" font-family="Helvetica,sans-Serif" font-size="10.00">bdm::UniformGridEnvironment</text>
<text text-anchor="middle" x="430" y="-203.65" font-family="Helvetica,sans-Serif" font-size="10.00">::LoadBalanceInfoUG</text>
</a>
</g>
</g>
<!-- Node3&#45;&gt;Node7 -->
<g id="edge8" class="edge">
<title>Node3&#45;&gt;Node7</title>
<path fill="none" stroke="#9a32cd" stroke-dasharray="5,2" d="M170.61,-234.06C179.17,-232.81 187.75,-231.65 196,-230.65 245.76,-224.64 301.74,-220.01 346.35,-216.82"/>
<polygon fill="#9a32cd" stroke="#9a32cd" points="169.97,-230.61 160.59,-235.55 171,-237.54 169.97,-230.61"/>
<text text-anchor="middle" x="250.5" y="-233.65" font-family="Helvetica,sans-Serif" font-size="10.00"> cummulated_agents_</text>
</g>
<!-- Node4 -->
<g id="node4" class="node">
<title>Node4</title>
<g id="a_node4"><a xlink:href="classbdm_1_1UniformGridEnvironment.html" target="_top" xlink:title="A class that represents Cartesian 3D grid.">
<polygon fill="white" stroke="black" points="676,-142.15 676,-161.15 843,-161.15 843,-142.15 676,-142.15"/>
<text text-anchor="middle" x="759.5" y="-149.15" font-family="Helvetica,sans-Serif" font-size="10.00">bdm::UniformGridEnvironment</text>
</a>
</g>
</g>
<!-- Node4&#45;&gt;Node1 -->
<g id="edge3" class="edge">
<title>Node4&#45;&gt;Node1</title>
<path fill="none" stroke="#9a32cd" stroke-dasharray="5,2" d="M797.54,-164.61C832.1,-176.69 884.24,-194.93 924.53,-209.02"/>
<polygon fill="#9a32cd" stroke="#9a32cd" points="798.44,-161.21 787.84,-161.22 796.13,-167.82 798.44,-161.21"/>
<text text-anchor="middle" x="872" y="-195.65" font-family="Helvetica,sans-Serif" font-size="10.00"> grid</text>
</g>
<!-- Node4&#45;&gt;Node7 -->
<g id="edge10" class="edge">
<title>Node4&#45;&gt;Node7</title>
<path fill="none" stroke="#9a32cd" stroke-dasharray="5,2" d="M680.5,-162.68C642.53,-168.37 596.27,-175.76 555,-183.65 535.06,-187.47 513.43,-192.16 493.91,-196.6"/>
<polygon fill="#9a32cd" stroke="#9a32cd" points="681.1,-166.13 690.47,-161.2 680.07,-159.21 681.1,-166.13"/>
<text text-anchor="middle" x="606.5" y="-186.65" font-family="Helvetica,sans-Serif" font-size="10.00"> grid_</text>
</g>
<!-- Node5 -->
<g id="node5" class="node">
<title>Node5</title>
<g id="a_node5"><a xlink:href="classbdm_1_1Environment.html" target="_top" xlink:title=" ">
<polygon fill="white" stroke="black" points="376.5,-158.15 376.5,-177.15 483.5,-177.15 483.5,-158.15 376.5,-158.15"/>
<text text-anchor="middle" x="430" y="-165.15" font-family="Helvetica,sans-Serif" font-size="10.00">bdm::Environment</text>
</a>
</g>
</g>
<!-- Node5&#45;&gt;Node4 -->
<g id="edge4" class="edge">
<title>Node5&#45;&gt;Node4</title>
<path fill="none" stroke="midnightblue" d="M493.67,-164.59C545.45,-162.06 619.37,-158.45 675.97,-155.68"/>
<polygon fill="midnightblue" stroke="midnightblue" points="493.44,-161.1 483.62,-165.08 493.78,-168.09 493.44,-161.1"/>
</g>
<!-- Node6 -->
<g id="node6" class="node">
<title>Node6</title>
<g id="a_node6"><a xlink:href="classbdm_1_1AgentVector.html" target="_top" xlink:title=" ">
<polygon fill="white" stroke="black" points="361.5,-108.65 361.5,-138.65 498.5,-138.65 498.5,-108.65 361.5,-108.65"/>
<text text-anchor="start" x="369.5" y="-126.65" font-family="Helvetica,sans-Serif" font-size="10.00">bdm::AgentVector&lt; bdm</text>
<text text-anchor="middle" x="430" y="-115.65" font-family="Helvetica,sans-Serif" font-size="10.00">::AgentHandle &gt;</text>
</a>
</g>
</g>
<!-- Node6&#45;&gt;Node4 -->
<g id="edge5" class="edge">
<title>Node6&#45;&gt;Node4</title>
<path fill="none" stroke="#9a32cd" stroke-dasharray="5,2" d="M508.6,-129.42C552.47,-132.77 608.32,-137.21 658,-141.65 663.85,-142.17 669.89,-142.73 675.97,-143.31"/>
<polygon fill="#9a32cd" stroke="#9a32cd" points="508.81,-125.92 498.57,-128.65 508.28,-132.9 508.81,-125.92"/>
<text text-anchor="middle" x="606.5" y="-144.65" font-family="Helvetica,sans-Serif" font-size="10.00"> successors_</text>
</g>
<!-- Node7&#45;&gt;Node4 -->
<g id="edge6" class="edge">
<title>Node7&#45;&gt;Node4</title>
<path fill="none" stroke="#9a32cd" stroke-dasharray="5,2" d="M523.63,-212.92C565.23,-211.61 614.62,-207.43 658,-196.65 689.17,-188.91 722.71,-171.95 742.09,-161.2"/>
<polygon fill="#9a32cd" stroke="#9a32cd" points="523.41,-209.42 513.5,-213.18 523.59,-216.42 523.41,-209.42"/>
<text text-anchor="middle" x="606.5" y="-213.65" font-family="Helvetica,sans-Serif" font-size="10.00"> lbi_</text>
</g>
<!-- Node8 -->
<g id="node8" class="node">
<title>Node8</title>
<g id="a_node8"><a xlink:href="classbdm_1_1LoadBalanceInfo.html" target="_top" xlink:title=" ">
<polygon fill="white" stroke="black" points="26.5,-187.15 26.5,-206.15 151.5,-206.15 151.5,-187.15 26.5,-187.15"/>
<text text-anchor="middle" x="89" y="-194.15" font-family="Helvetica,sans-Serif" font-size="10.00">bdm::LoadBalanceInfo</text>
</a>
</g>
</g>
<!-- Node8&#45;&gt;Node7 -->
<g id="edge7" class="edge">
<title>Node8&#45;&gt;Node7</title>
<path fill="none" stroke="midnightblue" d="M161.96,-199.84C215.91,-202.22 289.86,-205.49 346.26,-207.99"/>
<polygon fill="midnightblue" stroke="midnightblue" points="161.93,-196.33 151.78,-199.39 161.62,-203.32 161.93,-196.33"/>
</g>
<!-- Node9 -->
<g id="node9" class="node">
<title>Node9</title>
<g id="a_node9"><a xlink:href="classbdm_1_1MortonOrder.html" target="_top" xlink:title=" ">
<polygon fill="white" stroke="black" points="36,-149.15 36,-168.15 142,-168.15 142,-149.15 36,-149.15"/>
<text text-anchor="middle" x="89" y="-156.15" font-family="Helvetica,sans-Serif" font-size="10.00">bdm::MortonOrder</text>
</a>
</g>
</g>
<!-- Node9&#45;&gt;Node7 -->
<g id="edge9" class="edge">
<title>Node9&#45;&gt;Node7</title>
<path fill="none" stroke="#9a32cd" stroke-dasharray="5,2" d="M152.35,-165.12C195.37,-169.91 253.82,-177.09 305,-185.65 323.66,-188.77 343.77,-192.73 362.26,-196.61"/>
<polygon fill="#9a32cd" stroke="#9a32cd" points="152.63,-161.63 142.31,-164.01 151.86,-168.59 152.63,-161.63"/>
<text text-anchor="middle" x="250.5" y="-188.65" font-family="Helvetica,sans-Serif" font-size="10.00"> mo_</text>
</g>
<!-- Node10 -->
<g id="node10" class="node">
<title>Node10</title>
<g id="a_node10"><a xlink:href="classbdm_1_1ParallelResizeVector.html" target="_top" xlink:title=" ">
<polygon fill="white" stroke="black" points="0,-31.15 0,-72.15 178,-72.15 178,-31.15 0,-31.15"/>
<text text-anchor="start" x="8" y="-60.15" font-family="Helvetica,sans-Serif" font-size="10.00">bdm::ParallelResizeVector</text>
<text text-anchor="start" x="8" y="-49.15" font-family="Helvetica,sans-Serif" font-size="10.00">&lt; bdm::UniformGridEnvironment</text>
<text text-anchor="middle" x="89" y="-38.15" font-family="Helvetica,sans-Serif" font-size="10.00">::Box * &gt;</text>
</a>
</g>
</g>
<!-- Node10&#45;&gt;Node1 -->
<g id="edge14" class="edge">
<title>Node10&#45;&gt;Node1</title>
<path fill="none" stroke="#9a32cd" stroke-dasharray="5,2" d="M181.08,-29C295.83,-4.82 497.44,23.01 658,-32.65 780.01,-74.95 905.5,-167.53 958,-208.93"/>
<polygon fill="#9a32cd" stroke="#9a32cd" points="180.31,-25.58 171.27,-31.1 181.78,-32.43 180.31,-25.58"/>
<text text-anchor="middle" x="606.5" y="-35.65" font-family="Helvetica,sans-Serif" font-size="10.00"> sorted_boxes</text>
</g>
<!-- Node10&#45;&gt;Node7 -->
<g id="edge11" class="edge">
<title>Node10&#45;&gt;Node7</title>
<path fill="none" stroke="#9a32cd" stroke-dasharray="5,2" d="M167.91,-75.77C212.1,-92.46 266.16,-118.28 305,-154.65 316.91,-165.81 309.96,-176.84 323,-186.65 330.03,-191.94 338,-196.13 346.34,-199.45"/>
<polygon fill="#9a32cd" stroke="#9a32cd" points="168.95,-72.42 158.35,-72.24 166.52,-78.99 168.95,-72.42"/>
<text text-anchor="middle" x="250.5" y="-157.65" font-family="Helvetica,sans-Serif" font-size="10.00"> sorted_boxes_</text>
</g>
<!-- Node11 -->
<g id="node11" class="node">
<title>Node11</title>
<g id="a_node11"><a xlink:href="classbdm_1_1ParallelResizeVector.html" target="_top" xlink:title=" ">
<polygon fill="white" stroke="black" points="323,-59.65 323,-89.65 537,-89.65 537,-59.65 323,-59.65"/>
<text text-anchor="start" x="331" y="-77.65" font-family="Helvetica,sans-Serif" font-size="10.00">bdm::ParallelResizeVector</text>
<text text-anchor="middle" x="430" y="-66.65" font-family="Helvetica,sans-Serif" font-size="10.00">&lt; bdm::UniformGridEnvironment::Box &gt;</text>
</a>
</g>
</g>
<!-- Node11&#45;&gt;Node4 -->
<g id="edge12" class="edge">
<title>Node11&#45;&gt;Node4</title>
<path fill="none" stroke="#9a32cd" stroke-dasharray="5,2" d="M536.55,-91.5C575.04,-98.47 618.74,-107.34 658,-117.65 684.19,-124.53 713.44,-134.72 733.6,-142.15"/>
<polygon fill="#9a32cd" stroke="#9a32cd" points="536.82,-87.99 526.36,-89.68 535.59,-94.88 536.82,-87.99"/>
<text text-anchor="middle" x="606.5" y="-120.65" font-family="Helvetica,sans-Serif" font-size="10.00"> boxes_</text>
</g>
<!-- Node12 -->
<g id="node12" class="node">
<title>Node12</title>
<g id="a_node12"><a xlink:title=" ">
<polygon fill="white" stroke="#bfbfbf" points="407.5,-21.15 407.5,-40.15 452.5,-40.15 452.5,-21.15 407.5,-21.15"/>
<text text-anchor="middle" x="430" y="-28.15" font-family="Helvetica,sans-Serif" font-size="10.00">size_t</text>
</a>
</g>
</g>
<!-- Node12&#45;&gt;Node4 -->
<g id="edge13" class="edge">
<title>Node12&#45;&gt;Node4</title>
<path fill="none" stroke="#9a32cd" stroke-dasharray="5,2" d="M462.67,-33.37C507.81,-38.17 592.43,-50.66 658,-80.65 693.94,-97.09 730.42,-126.85 747.89,-142.09"/>
<polygon fill="#9a32cd" stroke="#9a32cd" points="462.91,-29.88 452.61,-32.36 462.21,-36.84 462.91,-29.88"/>
<text text-anchor="middle" x="606.5" y="-83.65" font-family="Helvetica,sans-Serif" font-size="10.00"> num_boxes_xy_</text>
</g>
</g>
</svg>
