<?xml version="1.0" encoding="UTF-8" standalone="no"?>
<!DOCTYPE svg PUBLIC "-//W3C//DTD SVG 1.1//EN"
 "http://www.w3.org/Graphics/SVG/1.1/DTD/svg11.dtd">
<!-- Generated by graphviz version 2.43.0 (0)
 -->
<!-- Title: core/substance_initializers.h Pages: 1 -->
<svg width="1046pt" height="386pt"
 viewBox="0.00 0.00 1046.00 386.00" xmlns="http://www.w3.org/2000/svg" xmlns:xlink="http://www.w3.org/1999/xlink">
<g id="graph0" class="graph" transform="scale(1 1) rotate(0) translate(4 382)">
<title>core/substance_initializers.h</title>
<polygon fill="white" stroke="transparent" points="-4,4 -4,-382 1042,-382 1042,4 -4,4"/>
<!-- Node1 -->
<g id="node1" class="node">
<title>Node1</title>
<g id="a_node1"><a xlink:title=" ">
<polygon fill="#bfbfbf" stroke="black" points="475.5,-358.5 475.5,-377.5 630.5,-377.5 630.5,-358.5 475.5,-358.5"/>
<text text-anchor="middle" x="553" y="-365.5" font-family="Helvetica,sans-Serif" font-size="10.00">core/substance_initializers.h</text>
</a>
</g>
</g>
<!-- Node2 -->
<g id="node2" class="node">
<title>Node2</title>
<g id="a_node2"><a xlink:title=" ">
<polygon fill="white" stroke="#bfbfbf" points="28.5,-168.5 28.5,-187.5 93.5,-187.5 93.5,-168.5 28.5,-168.5"/>
<text text-anchor="middle" x="61" y="-175.5" font-family="Helvetica,sans-Serif" font-size="10.00">stdexcept</text>
</a>
</g>
</g>
<!-- Node1&#45;&gt;Node2 -->
<g id="edge1" class="edge">
<title>Node1&#45;&gt;Node2</title>
<path fill="none" stroke="midnightblue" d="M475.18,-364.79C380.03,-358.46 218.1,-335.57 108,-255 88.09,-240.43 74.78,-214.64 67.56,-197.19"/>
<polygon fill="midnightblue" stroke="midnightblue" points="70.71,-195.64 63.84,-187.58 64.18,-198.17 70.71,-195.64"/>
</g>
<!-- Node3 -->
<g id="node3" class="node">
<title>Node3</title>
<g id="a_node3"><a xlink:title=" ">
<polygon fill="white" stroke="#bfbfbf" points="806.5,-0.5 806.5,-19.5 853.5,-19.5 853.5,-0.5 806.5,-0.5"/>
<text text-anchor="middle" x="830" y="-7.5" font-family="Helvetica,sans-Serif" font-size="10.00">vector</text>
</a>
</g>
</g>
<!-- Node1&#45;&gt;Node3 -->
<g id="edge2" class="edge">
<title>Node1&#45;&gt;Node3</title>
<path fill="none" stroke="midnightblue" d="M630.65,-362.77C767.67,-353.16 1038,-323.66 1038,-240.5 1038,-240.5 1038,-240.5 1038,-121 1038,-43.16 922.75,-20.25 863.83,-13.63"/>
<polygon fill="midnightblue" stroke="midnightblue" points="864.17,-10.15 853.86,-12.6 863.45,-17.11 864.17,-10.15"/>
</g>
<!-- Node4 -->
<g id="node4" class="node">
<title>Node4</title>
<g id="a_node4"><a xlink:title=" ">
<polygon fill="white" stroke="#bfbfbf" points="570.5,-297 570.5,-316 665.5,-316 665.5,-297 570.5,-297"/>
<text text-anchor="middle" x="618" y="-304" font-family="Helvetica,sans-Serif" font-size="10.00">Math/DistFunc.h</text>
</a>
</g>
</g>
<!-- Node1&#45;&gt;Node4 -->
<g id="edge3" class="edge">
<title>Node1&#45;&gt;Node4</title>
<path fill="none" stroke="midnightblue" d="M562.31,-358.48C572.45,-349.2 588.86,-334.17 601.25,-322.83"/>
<polygon fill="midnightblue" stroke="midnightblue" points="603.69,-325.34 608.7,-316.01 598.96,-320.18 603.69,-325.34"/>
</g>
<!-- Node5 -->
<g id="node5" class="node">
<title>Node5</title>
<g id="a_node5"><a xlink:href="diffusion__grid_8h.html" target="_top" xlink:title=" ">
<polygon fill="white" stroke="black" points="424,-291.5 424,-321.5 552,-321.5 552,-291.5 424,-291.5"/>
<text text-anchor="start" x="432" y="-309.5" font-family="Helvetica,sans-Serif" font-size="10.00">core/diffusion/diffusion</text>
<text text-anchor="middle" x="488" y="-298.5" font-family="Helvetica,sans-Serif" font-size="10.00">_grid.h</text>
</a>
</g>
</g>
<!-- Node1&#45;&gt;Node5 -->
<g id="edge4" class="edge">
<title>Node1&#45;&gt;Node5</title>
<path fill="none" stroke="midnightblue" d="M543.69,-358.48C535.13,-350.64 522.1,-338.71 510.79,-328.37"/>
<polygon fill="midnightblue" stroke="midnightblue" points="513.06,-325.69 503.32,-321.52 508.33,-330.86 513.06,-325.69"/>
</g>
<!-- Node5&#45;&gt;Node3 -->
<g id="edge9" class="edge">
<title>Node5&#45;&gt;Node3</title>
<path fill="none" stroke="midnightblue" d="M552.15,-292.81C555.48,-292.19 558.78,-291.58 562,-291 610.32,-282.28 743.19,-287.5 780,-255 846.04,-196.69 838.63,-76.65 832.86,-30.07"/>
<polygon fill="midnightblue" stroke="midnightblue" points="836.29,-29.32 831.47,-19.89 829.35,-30.27 836.29,-29.32"/>
</g>
<!-- Node6 -->
<g id="node6" class="node">
<title>Node6</title>
<g id="a_node6"><a xlink:title=" ">
<polygon fill="white" stroke="#bfbfbf" points="968,-230 968,-249 1010,-249 1010,-230 968,-230"/>
<text text-anchor="middle" x="989" y="-237" font-family="Helvetica,sans-Serif" font-size="10.00">array</text>
</a>
</g>
</g>
<!-- Node5&#45;&gt;Node6 -->
<g id="edge5" class="edge">
<title>Node5&#45;&gt;Node6</title>
<path fill="none" stroke="midnightblue" d="M552.11,-292.52C555.45,-291.97 558.76,-291.46 562,-291 737.39,-265.93 788.27,-302.31 959,-255 960.72,-254.52 962.47,-253.95 964.21,-253.31"/>
<polygon fill="midnightblue" stroke="midnightblue" points="966.06,-256.32 973.85,-249.13 963.28,-249.9 966.06,-256.32"/>
</g>
<!-- Node7 -->
<g id="node7" class="node">
<title>Node7</title>
<g id="a_node7"><a xlink:title=" ">
<polygon fill="white" stroke="#bfbfbf" points="89.5,-56.5 89.5,-75.5 154.5,-75.5 154.5,-56.5 89.5,-56.5"/>
<text text-anchor="middle" x="122" y="-63.5" font-family="Helvetica,sans-Serif" font-size="10.00">functional</text>
</a>
</g>
</g>
<!-- Node5&#45;&gt;Node7 -->
<g id="edge6" class="edge">
<title>Node5&#45;&gt;Node7</title>
<path fill="none" stroke="midnightblue" d="M423.85,-300.36C351.94,-293.51 240.94,-279.33 207,-255 149.75,-213.95 130.3,-125.03 124.36,-86.01"/>
<polygon fill="midnightblue" stroke="midnightblue" points="127.76,-85.03 122.92,-75.61 120.82,-85.99 127.76,-85.03"/>
</g>
<!-- Node8 -->
<g id="node8" class="node">
<title>Node8</title>
<g id="a_node8"><a xlink:title=" ">
<polygon fill="white" stroke="#bfbfbf" points="161,-0.5 161,-19.5 205,-19.5 205,-0.5 161,-0.5"/>
<text text-anchor="middle" x="183" y="-7.5" font-family="Helvetica,sans-Serif" font-size="10.00">string</text>
</a>
</g>
</g>
<!-- Node5&#45;&gt;Node8 -->
<g id="edge7" class="edge">
<title>Node5&#45;&gt;Node8</title>
<path fill="none" stroke="midnightblue" d="M423.95,-302.29C291.56,-293.9 0,-265.59 0,-179 0,-179 0,-179 0,-121 0,-51.47 98.25,-24.77 150.77,-15.47"/>
<polygon fill="midnightblue" stroke="midnightblue" points="151.63,-18.88 160.93,-13.79 150.49,-11.97 151.63,-18.88"/>
</g>
<!-- Node9 -->
<g id="node9" class="node">
<title>Node9</title>
<g id="a_node9"><a xlink:title=" ">
<polygon fill="white" stroke="#bfbfbf" points="188.5,-168.5 188.5,-187.5 233.5,-187.5 233.5,-168.5 188.5,-168.5"/>
<text text-anchor="middle" x="211" y="-175.5" font-family="Helvetica,sans-Serif" font-size="10.00">utility</text>
</a>
</g>
</g>
<!-- Node5&#45;&gt;Node9 -->
<g id="edge8" class="edge">
<title>Node5&#45;&gt;Node9</title>
<path fill="none" stroke="midnightblue" d="M451.03,-291.46C425.97,-281.72 392.23,-268.19 363,-255 317.62,-234.53 266.03,-208.02 236.12,-192.34"/>
<polygon fill="midnightblue" stroke="midnightblue" points="237.69,-189.21 227.21,-187.64 234.43,-195.4 237.69,-189.21"/>
</g>
<!-- Node10 -->
<g id="node10" class="node">
<title>Node10</title>
<g id="a_node10"><a xlink:href="math__array_8h.html" target="_top" xlink:title=" ">
<polygon fill="white" stroke="black" points="371.5,-224.5 371.5,-254.5 486.5,-254.5 486.5,-224.5 371.5,-224.5"/>
<text text-anchor="start" x="379.5" y="-242.5" font-family="Helvetica,sans-Serif" font-size="10.00">core/container/math</text>
<text text-anchor="middle" x="429" y="-231.5" font-family="Helvetica,sans-Serif" font-size="10.00">_array.h</text>
</a>
</g>
</g>
<!-- Node5&#45;&gt;Node10 -->
<g id="edge10" class="edge">
<title>Node5&#45;&gt;Node10</title>
<path fill="none" stroke="midnightblue" d="M475.2,-291.4C467.47,-282.88 457.45,-271.85 448.73,-262.23"/>
<polygon fill="midnightblue" stroke="midnightblue" points="451.09,-259.63 441.78,-254.58 445.91,-264.33 451.09,-259.63"/>
</g>
<!-- Node16 -->
<g id="node16" class="node">
<title>Node16</title>
<g id="a_node16"><a xlink:href="log_8h.html" target="_top" xlink:title=" ">
<polygon fill="white" stroke="black" points="302.5,-112.5 302.5,-131.5 385.5,-131.5 385.5,-112.5 302.5,-112.5"/>
<text text-anchor="middle" x="344" y="-119.5" font-family="Helvetica,sans-Serif" font-size="10.00">core/util/log.h</text>
</a>
</g>
</g>
<!-- Node5&#45;&gt;Node16 -->
<g id="edge36" class="edge">
<title>Node5&#45;&gt;Node16</title>
<path fill="none" stroke="midnightblue" d="M423.71,-303.24C348.49,-296.6 228.01,-272.53 179,-188 152.71,-142.64 234.39,-128.87 292.04,-124.73"/>
<polygon fill="midnightblue" stroke="midnightblue" points="292.38,-128.21 302.14,-124.08 291.93,-121.23 292.38,-128.21"/>
</g>
<!-- Node23 -->
<g id="node23" class="node">
<title>Node23</title>
<g id="a_node23"><a xlink:href="root_8h.html" target="_top" xlink:title=" ">
<polygon fill="white" stroke="black" points="657,-168.5 657,-187.5 745,-187.5 745,-168.5 657,-168.5"/>
<text text-anchor="middle" x="701" y="-175.5" font-family="Helvetica,sans-Serif" font-size="10.00">core/util/root.h</text>
</a>
</g>
</g>
<!-- Node5&#45;&gt;Node23 -->
<g id="edge37" class="edge">
<title>Node5&#45;&gt;Node23</title>
<path fill="none" stroke="midnightblue" d="M511.61,-291.48C552.71,-267.07 636.91,-217.06 677.75,-192.81"/>
<polygon fill="midnightblue" stroke="midnightblue" points="679.66,-195.75 686.47,-187.63 676.08,-189.73 679.66,-195.75"/>
</g>
<!-- Node25 -->
<g id="node25" class="node">
<title>Node25</title>
<g id="a_node25"><a xlink:href="parallel__resize__vector_8h.html" target="_top" xlink:title=" ">
<polygon fill="white" stroke="black" points="645,-224.5 645,-254.5 771,-254.5 771,-224.5 645,-224.5"/>
<text text-anchor="start" x="653" y="-242.5" font-family="Helvetica,sans-Serif" font-size="10.00">core/container/parallel</text>
<text text-anchor="middle" x="708" y="-231.5" font-family="Helvetica,sans-Serif" font-size="10.00">_resize_vector.h</text>
</a>
</g>
</g>
<!-- Node5&#45;&gt;Node25 -->
<g id="edge32" class="edge">
<title>Node5&#45;&gt;Node25</title>
<path fill="none" stroke="midnightblue" d="M535.47,-291.48C569.18,-281.51 614.63,-268.09 650.42,-257.51"/>
<polygon fill="midnightblue" stroke="midnightblue" points="651.64,-260.8 660.24,-254.61 649.66,-254.09 651.64,-260.8"/>
</g>
<!-- Node26 -->
<g id="node26" class="node">
<title>Node26</title>
<g id="a_node26"><a xlink:href="spinlock_8h.html" target="_top" xlink:title=" ">
<polygon fill="white" stroke="black" points="840.5,-230 840.5,-249 949.5,-249 949.5,-230 840.5,-230"/>
<text text-anchor="middle" x="895" y="-237" font-family="Helvetica,sans-Serif" font-size="10.00">core/util/spinlock.h</text>
</a>
</g>
</g>
<!-- Node5&#45;&gt;Node26 -->
<g id="edge38" class="edge">
<title>Node5&#45;&gt;Node26</title>
<path fill="none" stroke="midnightblue" d="M552.13,-292.7C555.47,-292.11 558.77,-291.54 562,-291 678.82,-271.61 709.31,-275.19 826,-255 832.73,-253.84 839.8,-252.49 846.74,-251.1"/>
<polygon fill="midnightblue" stroke="midnightblue" points="847.68,-254.48 856.77,-249.04 846.27,-247.62 847.68,-254.48"/>
</g>
<!-- Node10&#45;&gt;Node2 -->
<g id="edge16" class="edge">
<title>Node10&#45;&gt;Node2</title>
<path fill="none" stroke="midnightblue" d="M371.1,-229.14C296.93,-217.15 170.11,-196.64 103.98,-185.95"/>
<polygon fill="midnightblue" stroke="midnightblue" points="104.33,-182.46 93.9,-184.32 103.21,-189.37 104.33,-182.46"/>
</g>
<!-- Node10&#45;&gt;Node9 -->
<g id="edge17" class="edge">
<title>Node10&#45;&gt;Node9</title>
<path fill="none" stroke="midnightblue" d="M375.73,-224.4C340.54,-215.02 293.17,-202.27 243.34,-188.34"/>
<polygon fill="midnightblue" stroke="midnightblue" points="244.25,-184.96 233.67,-185.64 242.36,-191.7 244.25,-184.96"/>
</g>
<!-- Node11 -->
<g id="node11" class="node">
<title>Node11</title>
<g id="a_node11"><a xlink:title=" ">
<polygon fill="white" stroke="#bfbfbf" points="365,-168.5 365,-187.5 429,-187.5 429,-168.5 365,-168.5"/>
<text text-anchor="middle" x="397" y="-175.5" font-family="Helvetica,sans-Serif" font-size="10.00">algorithm</text>
</a>
</g>
</g>
<!-- Node10&#45;&gt;Node11 -->
<g id="edge11" class="edge">
<title>Node10&#45;&gt;Node11</title>
<path fill="none" stroke="midnightblue" d="M421.42,-224.4C416.96,-216.11 411.28,-205.55 406.52,-196.71"/>
<polygon fill="midnightblue" stroke="midnightblue" points="409.48,-194.81 401.66,-187.66 403.31,-198.12 409.48,-194.81"/>
</g>
<!-- Node12 -->
<g id="node12" class="node">
<title>Node12</title>
<g id="a_node12"><a xlink:title=" ">
<polygon fill="white" stroke="#bfbfbf" points="447,-168.5 447,-187.5 499,-187.5 499,-168.5 447,-168.5"/>
<text text-anchor="middle" x="473" y="-175.5" font-family="Helvetica,sans-Serif" font-size="10.00">cassert</text>
</a>
</g>
</g>
<!-- Node10&#45;&gt;Node12 -->
<g id="edge12" class="edge">
<title>Node10&#45;&gt;Node12</title>
<path fill="none" stroke="midnightblue" d="M439.43,-224.4C445.76,-215.84 453.87,-204.87 460.53,-195.86"/>
<polygon fill="midnightblue" stroke="midnightblue" points="463.47,-197.78 466.6,-187.66 457.84,-193.62 463.47,-197.78"/>
</g>
<!-- Node13 -->
<g id="node13" class="node">
<title>Node13</title>
<g id="a_node13"><a xlink:title=" ">
<polygon fill="white" stroke="#bfbfbf" points="517.5,-168.5 517.5,-187.5 564.5,-187.5 564.5,-168.5 517.5,-168.5"/>
<text text-anchor="middle" x="541" y="-175.5" font-family="Helvetica,sans-Serif" font-size="10.00">cmath</text>
</a>
</g>
</g>
<!-- Node10&#45;&gt;Node13 -->
<g id="edge13" class="edge">
<title>Node10&#45;&gt;Node13</title>
<path fill="none" stroke="midnightblue" d="M455.54,-224.4C473.66,-214.77 497.54,-202.09 515.44,-192.58"/>
<polygon fill="midnightblue" stroke="midnightblue" points="517.51,-195.44 524.7,-187.66 514.23,-189.26 517.51,-195.44"/>
</g>
<!-- Node14 -->
<g id="node14" class="node">
<title>Node14</title>
<g id="a_node14"><a xlink:title=" ">
<polygon fill="white" stroke="#bfbfbf" points="583,-168.5 583,-187.5 639,-187.5 639,-168.5 583,-168.5"/>
<text text-anchor="middle" x="611" y="-175.5" font-family="Helvetica,sans-Serif" font-size="10.00">numeric</text>
</a>
</g>
</g>
<!-- Node10&#45;&gt;Node14 -->
<g id="edge14" class="edge">
<title>Node10&#45;&gt;Node14</title>
<path fill="none" stroke="midnightblue" d="M472.13,-224.4C503.58,-214.12 545.69,-200.35 575.27,-190.68"/>
<polygon fill="midnightblue" stroke="midnightblue" points="576.37,-194.01 584.78,-187.57 574.19,-187.35 576.37,-194.01"/>
</g>
<!-- Node15 -->
<g id="node15" class="node">
<title>Node15</title>
<g id="a_node15"><a xlink:title=" ">
<polygon fill="white" stroke="#bfbfbf" points="251.5,-168.5 251.5,-187.5 308.5,-187.5 308.5,-168.5 251.5,-168.5"/>
<text text-anchor="middle" x="280" y="-175.5" font-family="Helvetica,sans-Serif" font-size="10.00">ostream</text>
</a>
</g>
</g>
<!-- Node10&#45;&gt;Node15 -->
<g id="edge15" class="edge">
<title>Node10&#45;&gt;Node15</title>
<path fill="none" stroke="midnightblue" d="M393.69,-224.4C368.58,-214.37 335.16,-201.03 311.06,-191.4"/>
<polygon fill="midnightblue" stroke="midnightblue" points="312.27,-188.12 301.68,-187.66 309.67,-194.62 312.27,-188.12"/>
</g>
<!-- Node10&#45;&gt;Node16 -->
<g id="edge18" class="edge">
<title>Node10&#45;&gt;Node16</title>
<path fill="none" stroke="midnightblue" d="M398.33,-224.45C383.27,-216 366.21,-203.79 356,-188 347.14,-174.3 344.42,-155.77 343.75,-141.99"/>
<polygon fill="midnightblue" stroke="midnightblue" points="347.25,-141.7 343.59,-131.76 340.25,-141.81 347.25,-141.7"/>
</g>
<!-- Node10&#45;&gt;Node23 -->
<g id="edge29" class="edge">
<title>Node10&#45;&gt;Node23</title>
<path fill="none" stroke="midnightblue" d="M486.68,-225.88C535.79,-215.14 605.56,-199.88 652,-189.72"/>
<polygon fill="midnightblue" stroke="midnightblue" points="652.81,-193.12 661.83,-187.57 651.31,-186.29 652.81,-193.12"/>
</g>
<!-- Node16&#45;&gt;Node7 -->
<g id="edge22" class="edge">
<title>Node16&#45;&gt;Node7</title>
<path fill="none" stroke="midnightblue" d="M308.82,-112.44C269.74,-102.94 206.64,-87.59 164.75,-77.4"/>
<polygon fill="midnightblue" stroke="midnightblue" points="165.38,-73.95 154.84,-74.99 163.73,-80.75 165.38,-73.95"/>
</g>
<!-- Node16&#45;&gt;Node8 -->
<g id="edge24" class="edge">
<title>Node16&#45;&gt;Node8</title>
<path fill="none" stroke="midnightblue" d="M302.5,-118.17C270.87,-113.84 228.4,-103 202,-76 190.07,-63.79 185.56,-44.53 183.89,-30.13"/>
<polygon fill="midnightblue" stroke="midnightblue" points="187.36,-29.55 183.07,-19.86 180.38,-30.11 187.36,-29.55"/>
</g>
<!-- Node17 -->
<g id="node17" class="node">
<title>Node17</title>
<g id="a_node17"><a xlink:title=" ">
<polygon fill="white" stroke="#bfbfbf" points="325,-56.5 325,-75.5 379,-75.5 379,-56.5 325,-56.5"/>
<text text-anchor="middle" x="352" y="-63.5" font-family="Helvetica,sans-Serif" font-size="10.00">TError.h</text>
</a>
</g>
</g>
<!-- Node16&#45;&gt;Node17 -->
<g id="edge19" class="edge">
<title>Node16&#45;&gt;Node17</title>
<path fill="none" stroke="midnightblue" d="M345.32,-112.08C346.38,-104.93 347.91,-94.64 349.23,-85.69"/>
<polygon fill="midnightblue" stroke="midnightblue" points="352.7,-86.16 350.7,-75.75 345.78,-85.13 352.7,-86.16"/>
</g>
<!-- Node18 -->
<g id="node18" class="node">
<title>Node18</title>
<g id="a_node18"><a xlink:title=" ">
<polygon fill="white" stroke="#bfbfbf" points="397,-56.5 397,-75.5 443,-75.5 443,-56.5 397,-56.5"/>
<text text-anchor="middle" x="420" y="-63.5" font-family="Helvetica,sans-Serif" font-size="10.00">cstdio</text>
</a>
</g>
</g>
<!-- Node16&#45;&gt;Node18 -->
<g id="edge20" class="edge">
<title>Node16&#45;&gt;Node18</title>
<path fill="none" stroke="midnightblue" d="M356.21,-112.32C367.78,-104.11 385.38,-91.6 399.16,-81.81"/>
<polygon fill="midnightblue" stroke="midnightblue" points="401.44,-84.48 407.57,-75.83 397.39,-78.77 401.44,-84.48"/>
</g>
<!-- Node19 -->
<g id="node19" class="node">
<title>Node19</title>
<g id="a_node19"><a xlink:title=" ">
<polygon fill="white" stroke="#bfbfbf" points="636.5,-56.5 636.5,-75.5 685.5,-75.5 685.5,-56.5 636.5,-56.5"/>
<text text-anchor="middle" x="661" y="-63.5" font-family="Helvetica,sans-Serif" font-size="10.00">cstdlib</text>
</a>
</g>
</g>
<!-- Node16&#45;&gt;Node19 -->
<g id="edge21" class="edge">
<title>Node16&#45;&gt;Node19</title>
<path fill="none" stroke="midnightblue" d="M385.77,-113.88C448.89,-103.13 567.44,-82.94 626.18,-72.93"/>
<polygon fill="midnightblue" stroke="midnightblue" points="626.82,-76.37 636.09,-71.24 625.65,-69.47 626.82,-76.37"/>
</g>
<!-- Node20 -->
<g id="node20" class="node">
<title>Node20</title>
<g id="a_node20"><a xlink:title=" ">
<polygon fill="white" stroke="#bfbfbf" points="461,-56.5 461,-75.5 521,-75.5 521,-56.5 461,-56.5"/>
<text text-anchor="middle" x="491" y="-63.5" font-family="Helvetica,sans-Serif" font-size="10.00">iostream</text>
</a>
</g>
</g>
<!-- Node16&#45;&gt;Node20 -->
<g id="edge23" class="edge">
<title>Node16&#45;&gt;Node20</title>
<path fill="none" stroke="midnightblue" d="M367.29,-112.44C391.81,-103.44 430.6,-89.19 458.2,-79.05"/>
<polygon fill="midnightblue" stroke="midnightblue" points="459.64,-82.25 467.82,-75.52 457.22,-75.68 459.64,-82.25"/>
</g>
<!-- Node21 -->
<g id="node21" class="node">
<title>Node21</title>
<g id="a_node21"><a xlink:href="string_8h.html" target="_top" xlink:title=" ">
<polygon fill="white" stroke="black" points="211,-56.5 211,-75.5 307,-75.5 307,-56.5 211,-56.5"/>
<text text-anchor="middle" x="259" y="-63.5" font-family="Helvetica,sans-Serif" font-size="10.00">core/util/string.h</text>
</a>
</g>
</g>
<!-- Node16&#45;&gt;Node21 -->
<g id="edge25" class="edge">
<title>Node16&#45;&gt;Node21</title>
<path fill="none" stroke="midnightblue" d="M330.34,-112.32C317.08,-103.9 296.73,-90.97 281.15,-81.07"/>
<polygon fill="midnightblue" stroke="midnightblue" points="282.94,-78.06 272.62,-75.65 279.19,-83.97 282.94,-78.06"/>
</g>
<!-- Node21&#45;&gt;Node3 -->
<g id="edge28" class="edge">
<title>Node21&#45;&gt;Node3</title>
<path fill="none" stroke="midnightblue" d="M307.17,-57.15C310.15,-56.74 313.12,-56.35 316,-56 496.58,-33.87 714.15,-18.53 796.36,-13.14"/>
<polygon fill="midnightblue" stroke="midnightblue" points="796.62,-16.63 806.37,-12.48 796.17,-9.64 796.62,-16.63"/>
</g>
<!-- Node21&#45;&gt;Node8 -->
<g id="edge27" class="edge">
<title>Node21&#45;&gt;Node8</title>
<path fill="none" stroke="midnightblue" d="M246.79,-56.32C235.22,-48.11 217.62,-35.6 203.84,-25.81"/>
<polygon fill="midnightblue" stroke="midnightblue" points="205.61,-22.77 195.43,-19.83 201.56,-28.48 205.61,-22.77"/>
</g>
<!-- Node22 -->
<g id="node22" class="node">
<title>Node22</title>
<g id="a_node22"><a xlink:title=" ">
<polygon fill="white" stroke="#bfbfbf" points="231,-0.5 231,-19.5 287,-19.5 287,-0.5 231,-0.5"/>
<text text-anchor="middle" x="259" y="-7.5" font-family="Helvetica,sans-Serif" font-size="10.00">sstream</text>
</a>
</g>
</g>
<!-- Node21&#45;&gt;Node22 -->
<g id="edge26" class="edge">
<title>Node21&#45;&gt;Node22</title>
<path fill="none" stroke="midnightblue" d="M259,-56.08C259,-49.01 259,-38.86 259,-29.99"/>
<polygon fill="midnightblue" stroke="midnightblue" points="262.5,-29.75 259,-19.75 255.5,-29.75 262.5,-29.75"/>
</g>
<!-- Node23&#45;&gt;Node16 -->
<g id="edge31" class="edge">
<title>Node23&#45;&gt;Node16</title>
<path fill="none" stroke="midnightblue" d="M656.77,-169.42C653.8,-168.93 650.86,-168.45 648,-168 559.59,-153.95 456.47,-138.99 395.91,-130.34"/>
<polygon fill="midnightblue" stroke="midnightblue" points="396.23,-126.85 385.84,-128.91 395.25,-133.78 396.23,-126.85"/>
</g>
<!-- Node24 -->
<g id="node24" class="node">
<title>Node24</title>
<g id="a_node24"><a xlink:title=" ">
<polygon fill="white" stroke="#bfbfbf" points="672.5,-112.5 672.5,-131.5 729.5,-131.5 729.5,-112.5 672.5,-112.5"/>
<text text-anchor="middle" x="701" y="-119.5" font-family="Helvetica,sans-Serif" font-size="10.00">TClass.h</text>
</a>
</g>
</g>
<!-- Node23&#45;&gt;Node24 -->
<g id="edge30" class="edge">
<title>Node23&#45;&gt;Node24</title>
<path fill="none" stroke="midnightblue" d="M701,-168.08C701,-161.01 701,-150.86 701,-141.99"/>
<polygon fill="midnightblue" stroke="midnightblue" points="704.5,-141.75 701,-131.75 697.5,-141.75 704.5,-141.75"/>
</g>
<!-- Node25&#45;&gt;Node3 -->
<g id="edge34" class="edge">
<title>Node25&#45;&gt;Node3</title>
<path fill="none" stroke="midnightblue" d="M730.69,-224.31C743.49,-215.29 758.9,-202.58 769,-188 804.24,-137.1 820.81,-63.96 826.98,-29.85"/>
<polygon fill="midnightblue" stroke="midnightblue" points="830.45,-30.32 828.69,-19.87 823.55,-29.14 830.45,-30.32"/>
</g>
<!-- Node25&#45;&gt;Node19 -->
<g id="edge33" class="edge">
<title>Node25&#45;&gt;Node19</title>
<path fill="none" stroke="midnightblue" d="M726.42,-224.29C736.66,-215.18 748.43,-202.38 754,-188 762.68,-165.58 741.87,-115.73 739,-112 727.81,-97.42 710.44,-86.74 694.93,-79.45"/>
<polygon fill="midnightblue" stroke="midnightblue" points="696.15,-76.16 685.59,-75.35 693.34,-82.57 696.15,-76.16"/>
</g>
<!-- Node25&#45;&gt;Node23 -->
<g id="edge35" class="edge">
<title>Node25&#45;&gt;Node23</title>
<path fill="none" stroke="midnightblue" d="M706.34,-224.4C705.41,-216.47 704.23,-206.46 703.22,-197.86"/>
<polygon fill="midnightblue" stroke="midnightblue" points="706.66,-197.18 702.02,-187.66 699.71,-198 706.66,-197.18"/>
</g>
<!-- Node27 -->
<g id="node27" class="node">
<title>Node27</title>
<g id="a_node27"><a xlink:title=" ">
<polygon fill="white" stroke="#bfbfbf" points="877,-168.5 877,-187.5 927,-187.5 927,-168.5 877,-168.5"/>
<text text-anchor="middle" x="902" y="-175.5" font-family="Helvetica,sans-Serif" font-size="10.00">atomic</text>
</a>
</g>
</g>
<!-- Node26&#45;&gt;Node27 -->
<g id="edge39" class="edge">
<title>Node26&#45;&gt;Node27</title>
<path fill="none" stroke="midnightblue" d="M896,-229.98C896.99,-221.58 898.53,-208.48 899.8,-197.66"/>
<polygon fill="midnightblue" stroke="midnightblue" points="903.31,-197.85 901,-187.51 896.35,-197.03 903.31,-197.85"/>
</g>
</g>
</svg>
