<?xml version="1.0" encoding="UTF-8" standalone="no"?>
<!DOCTYPE svg PUBLIC "-//W3C//DTD SVG 1.1//EN"
 "http://www.w3.org/Graphics/SVG/1.1/DTD/svg11.dtd">
<!-- Generated by graphviz version 2.43.0 (0)
 -->
<!-- Title: core/util/timing_aggregator.h Pages: 1 -->
<svg width="2749pt" height="419pt"
 viewBox="0.00 0.00 2748.82 419.00" xmlns="http://www.w3.org/2000/svg" xmlns:xlink="http://www.w3.org/1999/xlink">
<g id="graph0" class="graph" transform="scale(1 1) rotate(0) translate(4 415)">
<title>core/util/timing_aggregator.h</title>
<polygon fill="white" stroke="transparent" points="-4,4 -4,-415 2744.82,-415 2744.82,4 -4,4"/>
<!-- Node1 -->
<g id="node1" class="node">
<title>Node1</title>
<g id="a_node1"><a xlink:title=" ">
<polygon fill="#bfbfbf" stroke="black" points="936.82,-391.5 936.82,-410.5 1094.82,-410.5 1094.82,-391.5 936.82,-391.5"/>
<text text-anchor="middle" x="1015.82" y="-398.5" font-family="Helvetica,sans-Serif" font-size="10.00">core/util/timing_aggregator.h</text>
</a>
</g>
</g>
<!-- Node2 -->
<g id="node2" class="node">
<title>Node2</title>
<g id="a_node2"><a xlink:href="scheduler_8h.html" target="_top" xlink:title=" ">
<polygon fill="white" stroke="black" points="1800.82,-335.5 1800.82,-354.5 1896.82,-354.5 1896.82,-335.5 1800.82,-335.5"/>
<text text-anchor="middle" x="1848.82" y="-342.5" font-family="Helvetica,sans-Serif" font-size="10.00">core/scheduler.h</text>
</a>
</g>
</g>
<!-- Node1&#45;&gt;Node2 -->
<g id="edge1" class="edge">
<title>Node1&#45;&gt;Node2</title>
<path fill="none" stroke="midnightblue" d="M1105.18,-394.21C1280.73,-382.83 1665.29,-357.9 1800.58,-349.13"/>
<polygon fill="midnightblue" stroke="midnightblue" points="1104.7,-390.73 1094.94,-394.87 1105.15,-397.72 1104.7,-390.73"/>
</g>
<!-- Node34 -->
<g id="node34" class="node">
<title>Node34</title>
<g id="a_node34"><a xlink:href="timing_8h.html" target="_top" xlink:title=" ">
<polygon fill="white" stroke="black" points="614.82,-140 614.82,-159 714.82,-159 714.82,-140 614.82,-140"/>
<text text-anchor="middle" x="664.82" y="-147" font-family="Helvetica,sans-Serif" font-size="10.00">core/util/timing.h</text>
</a>
</g>
</g>
<!-- Node1&#45;&gt;Node34 -->
<g id="edge63" class="edge">
<title>Node1&#45;&gt;Node34</title>
<path fill="none" stroke="midnightblue" d="M986.96,-387.09C949.12,-369.57 881.37,-336.16 828.82,-299 763.59,-252.87 696.1,-183.67 673.08,-159.34"/>
<polygon fill="midnightblue" stroke="midnightblue" points="985.81,-390.41 996.36,-391.39 988.73,-384.04 985.81,-390.41"/>
</g>
<!-- Node3 -->
<g id="node3" class="node">
<title>Node3</title>
<g id="a_node3"><a xlink:href="gene__regulation_8h.html" target="_top" xlink:title=" ">
<polygon fill="white" stroke="black" points="2398.82,-268.5 2398.82,-298.5 2508.82,-298.5 2508.82,-268.5 2398.82,-268.5"/>
<text text-anchor="start" x="2406.82" y="-286.5" font-family="Helvetica,sans-Serif" font-size="10.00">core/behavior/gene</text>
<text text-anchor="middle" x="2453.82" y="-275.5" font-family="Helvetica,sans-Serif" font-size="10.00">_regulation.h</text>
</a>
</g>
</g>
<!-- Node2&#45;&gt;Node3 -->
<g id="edge2" class="edge">
<title>Node2&#45;&gt;Node3</title>
<path fill="none" stroke="midnightblue" d="M1907.22,-338.26C2023.92,-326.78 2284.48,-301.15 2398.55,-289.94"/>
<polygon fill="midnightblue" stroke="midnightblue" points="1906.67,-334.79 1897.06,-339.26 1907.35,-341.76 1906.67,-334.79"/>
</g>
<!-- Node4 -->
<g id="node4" class="node">
<title>Node4</title>
<g id="a_node4"><a xlink:href="biodynamo_8h.html" target="_top" xlink:title=" ">
<polygon fill="white" stroke="black" points="1856.82,-6 1856.82,-25 1936.82,-25 1936.82,-6 1856.82,-6"/>
<text text-anchor="middle" x="1896.82" y="-13" font-family="Helvetica,sans-Serif" font-size="10.00">biodynamo.h</text>
</a>
</g>
</g>
<!-- Node2&#45;&gt;Node4 -->
<g id="edge50" class="edge">
<title>Node2&#45;&gt;Node4</title>
<path fill="none" stroke="midnightblue" d="M1907.26,-342.19C2047.87,-337.49 2402,-323.54 2517.82,-299 2621.06,-277.13 2740.82,-323.02 2740.82,-217.5 2740.82,-217.5 2740.82,-217.5 2740.82,-148.5 2740.82,-79.93 2675.05,-88.15 2609.82,-67 2483.23,-25.94 2068.21,-18.23 1936.98,-16.81"/>
<polygon fill="midnightblue" stroke="midnightblue" points="1906.99,-338.7 1897.11,-342.53 1907.22,-345.69 1906.99,-338.7"/>
</g>
<!-- Node5 -->
<g id="node5" class="node">
<title>Node5</title>
<g id="a_node5"><a xlink:href="agent__uid__generator_8h.html" target="_top" xlink:title=" ">
<polygon fill="white" stroke="black" points="1562.32,-268.5 1562.32,-298.5 1681.32,-298.5 1681.32,-268.5 1562.32,-268.5"/>
<text text-anchor="start" x="1570.32" y="-286.5" font-family="Helvetica,sans-Serif" font-size="10.00">core/agent/agent_uid</text>
<text text-anchor="middle" x="1621.82" y="-275.5" font-family="Helvetica,sans-Serif" font-size="10.00">_generator.h</text>
</a>
</g>
</g>
<!-- Node2&#45;&gt;Node5 -->
<g id="edge4" class="edge">
<title>Node2&#45;&gt;Node5</title>
<path fill="none" stroke="midnightblue" d="M1806.32,-332.86C1769.26,-323.14 1715.32,-309.01 1675.32,-298.52"/>
<polygon fill="midnightblue" stroke="midnightblue" points="1805.74,-336.33 1816.3,-335.48 1807.52,-329.55 1805.74,-336.33"/>
</g>
<!-- Node11 -->
<g id="node11" class="node">
<title>Node11</title>
<g id="a_node11"><a xlink:href="simulation_8cc.html" target="_top" xlink:title=" ">
<polygon fill="white" stroke="black" points="1635.82,-6 1635.82,-25 1741.82,-25 1741.82,-6 1635.82,-6"/>
<text text-anchor="middle" x="1688.82" y="-13" font-family="Helvetica,sans-Serif" font-size="10.00">core/simulation.cc</text>
</a>
</g>
</g>
<!-- Node2&#45;&gt;Node11 -->
<g id="edge61" class="edge">
<title>Node2&#45;&gt;Node11</title>
<path fill="none" stroke="midnightblue" d="M1854.81,-325.6C1867.81,-287.37 1901.34,-197.62 1948.82,-134 1963.13,-114.83 1979.09,-119.85 1988.82,-98 1994.43,-85.41 1997.72,-77.52 1988.82,-67 1973.07,-48.37 1823.81,-30.33 1741.94,-21.73"/>
<polygon fill="midnightblue" stroke="midnightblue" points="1851.4,-324.75 1851.56,-335.34 1858.05,-326.96 1851.4,-324.75"/>
</g>
<!-- Node12 -->
<g id="node12" class="node">
<title>Node12</title>
<g id="a_node12"><a xlink:href="in__place__exec__ctxt_8cc.html" target="_top" xlink:title=" ">
<polygon fill="white" stroke="black" points="884.82,-67.5 884.82,-97.5 1014.82,-97.5 1014.82,-67.5 884.82,-67.5"/>
<text text-anchor="start" x="892.82" y="-85.5" font-family="Helvetica,sans-Serif" font-size="10.00">core/execution_context</text>
<text text-anchor="middle" x="949.82" y="-74.5" font-family="Helvetica,sans-Serif" font-size="10.00">/in_place_exec_ctxt.cc</text>
</a>
</g>
</g>
<!-- Node2&#45;&gt;Node12 -->
<g id="edge58" class="edge">
<title>Node2&#45;&gt;Node12</title>
<path fill="none" stroke="midnightblue" d="M1790.73,-335.84C1731.15,-327.3 1635.86,-313.19 1553.82,-299 1245.14,-245.59 1061.17,-406.65 861.82,-165 853.06,-154.37 854.92,-145.92 861.82,-134 871.53,-117.23 889.15,-105.55 906.08,-97.68"/>
<polygon fill="midnightblue" stroke="midnightblue" points="1790.3,-339.31 1800.7,-337.26 1791.29,-332.38 1790.3,-339.31"/>
</g>
<!-- Node15 -->
<g id="node15" class="node">
<title>Node15</title>
<g id="a_node15"><a xlink:href="scheduler_8cc.html" target="_top" xlink:title=" ">
<polygon fill="white" stroke="black" points="127.32,-6 127.32,-25 228.32,-25 228.32,-6 127.32,-6"/>
<text text-anchor="middle" x="177.82" y="-13" font-family="Helvetica,sans-Serif" font-size="10.00">core/scheduler.cc</text>
</a>
</g>
</g>
<!-- Node2&#45;&gt;Node15 -->
<g id="edge60" class="edge">
<title>Node2&#45;&gt;Node15</title>
<path fill="none" stroke="midnightblue" d="M1790.25,-344.23C1633.7,-344.24 1192.75,-340.28 828.82,-299 454.27,-256.52 178.32,-432.66 4.82,-98 -21.69,-46.86 67.2,-27.6 127.24,-20.5"/>
<polygon fill="midnightblue" stroke="midnightblue" points="1790.59,-347.73 1800.59,-344.22 1790.58,-340.73 1790.59,-347.73"/>
</g>
<!-- Node16 -->
<g id="node16" class="node">
<title>Node16</title>
<g id="a_node16"><a xlink:href="mechanical__forces__op_8h.html" target="_top" xlink:title=" ">
<polygon fill="white" stroke="black" points="185.82,-67.5 185.82,-97.5 331.82,-97.5 331.82,-67.5 185.82,-67.5"/>
<text text-anchor="start" x="193.82" y="-85.5" font-family="Helvetica,sans-Serif" font-size="10.00">core/operation/mechanical</text>
<text text-anchor="middle" x="258.82" y="-74.5" font-family="Helvetica,sans-Serif" font-size="10.00">_forces_op.h</text>
</a>
</g>
</g>
<!-- Node2&#45;&gt;Node16 -->
<g id="edge59" class="edge">
<title>Node2&#45;&gt;Node16</title>
<path fill="none" stroke="midnightblue" d="M1790.64,-342.66C1622.65,-338.51 1138.98,-324.62 982.82,-299 765.1,-263.28 715.82,-229.49 504.82,-165 432.11,-142.78 348.19,-114.38 299.55,-97.64"/>
<polygon fill="midnightblue" stroke="midnightblue" points="1790.68,-346.16 1800.77,-342.9 1790.86,-339.16 1790.68,-346.16"/>
</g>
<!-- Node19 -->
<g id="node19" class="node">
<title>Node19</title>
<g id="a_node19"><a xlink:href="root_2adaptor_8h.html" target="_top" xlink:title=" ">
<polygon fill="white" stroke="black" points="1797.32,-134.5 1797.32,-164.5 1900.32,-164.5 1900.32,-134.5 1797.32,-134.5"/>
<text text-anchor="start" x="1805.32" y="-152.5" font-family="Helvetica,sans-Serif" font-size="10.00">core/visualization</text>
<text text-anchor="middle" x="1848.82" y="-141.5" font-family="Helvetica,sans-Serif" font-size="10.00">/root/adaptor.h</text>
</a>
</g>
</g>
<!-- Node2&#45;&gt;Node19 -->
<g id="edge51" class="edge">
<title>Node2&#45;&gt;Node19</title>
<path fill="none" stroke="midnightblue" d="M1848.82,-325.11C1848.82,-286.41 1848.82,-198.89 1848.82,-164.63"/>
<polygon fill="midnightblue" stroke="midnightblue" points="1845.32,-325.44 1848.82,-335.44 1852.32,-325.44 1845.32,-325.44"/>
</g>
<!-- Node24 -->
<g id="node24" class="node">
<title>Node24</title>
<g id="a_node24"><a xlink:href="paraview_2adaptor_8h.html" target="_top" xlink:title=" ">
<polygon fill="white" stroke="black" points="1957.32,-134.5 1957.32,-164.5 2070.32,-164.5 2070.32,-134.5 1957.32,-134.5"/>
<text text-anchor="start" x="1965.32" y="-152.5" font-family="Helvetica,sans-Serif" font-size="10.00">core/visualization</text>
<text text-anchor="middle" x="2013.82" y="-141.5" font-family="Helvetica,sans-Serif" font-size="10.00">/paraview/adaptor.h</text>
</a>
</g>
</g>
<!-- Node2&#45;&gt;Node24 -->
<g id="edge62" class="edge">
<title>Node2&#45;&gt;Node24</title>
<path fill="none" stroke="midnightblue" d="M1888.64,-331.84C1906.95,-324.65 1927.86,-313.97 1942.82,-299 1982.42,-259.39 2003,-193.38 2010.48,-164.62"/>
<polygon fill="midnightblue" stroke="midnightblue" points="1887.24,-328.63 1879.08,-335.39 1889.67,-335.2 1887.24,-328.63"/>
</g>
<!-- Node30 -->
<g id="node30" class="node">
<title>Node30</title>
<g id="a_node30"><a xlink:href="neurite__element_8h.html" target="_top" xlink:title=" ">
<polygon fill="white" stroke="black" points="2175.32,-201.5 2175.32,-231.5 2294.32,-231.5 2294.32,-201.5 2175.32,-201.5"/>
<text text-anchor="start" x="2183.32" y="-219.5" font-family="Helvetica,sans-Serif" font-size="10.00">neuroscience/neurite</text>
<text text-anchor="middle" x="2234.82" y="-208.5" font-family="Helvetica,sans-Serif" font-size="10.00">_element.h</text>
</a>
</g>
</g>
<!-- Node2&#45;&gt;Node30 -->
<g id="edge52" class="edge">
<title>Node2&#45;&gt;Node30</title>
<path fill="none" stroke="midnightblue" d="M1890.13,-332.81C1921.7,-324.08 1966.2,-311.4 2004.82,-299 2073.19,-277.05 2151.86,-248.44 2197.21,-231.61"/>
<polygon fill="midnightblue" stroke="midnightblue" points="1889.08,-329.47 1880.37,-335.5 1890.94,-336.22 1889.08,-329.47"/>
</g>
<!-- Node3&#45;&gt;Node4 -->
<g id="edge3" class="edge">
<title>Node3&#45;&gt;Node4</title>
<path fill="none" stroke="midnightblue" d="M2518.97,-267.9C2604.61,-245.76 2738.17,-199.26 2683.82,-134 2587.41,-18.22 2083.94,-14.44 1937.08,-15.85"/>
<polygon fill="midnightblue" stroke="midnightblue" points="2517.88,-264.57 2509.04,-270.42 2519.59,-271.35 2517.88,-264.57"/>
</g>
<!-- Node6 -->
<g id="node6" class="node">
<title>Node6</title>
<g id="a_node6"><a xlink:href="resource__manager_8h.html" target="_top" xlink:title=" ">
<polygon fill="white" stroke="black" points="1413.82,-207 1413.82,-226 1553.82,-226 1553.82,-207 1413.82,-207"/>
<text text-anchor="middle" x="1483.82" y="-214" font-family="Helvetica,sans-Serif" font-size="10.00">core/resource_manager.h</text>
</a>
</g>
</g>
<!-- Node5&#45;&gt;Node6 -->
<g id="edge5" class="edge">
<title>Node5&#45;&gt;Node6</title>
<path fill="none" stroke="midnightblue" d="M1582.83,-264.13C1556.27,-251.62 1522.34,-235.64 1501.89,-226.01"/>
<polygon fill="midnightblue" stroke="midnightblue" points="1581.34,-267.3 1591.88,-268.4 1584.33,-260.97 1581.34,-267.3"/>
</g>
<!-- Node5&#45;&gt;Node11 -->
<g id="edge49" class="edge">
<title>Node5&#45;&gt;Node11</title>
<path fill="none" stroke="midnightblue" d="M1634.27,-259.06C1651.67,-224.81 1682.42,-158.59 1693.82,-98 1698.75,-71.81 1693.75,-40.13 1690.74,-25.15"/>
<polygon fill="midnightblue" stroke="midnightblue" points="1631.01,-257.73 1629.54,-268.22 1637.23,-260.94 1631.01,-257.73"/>
</g>
<!-- Node29 -->
<g id="node29" class="node">
<title>Node29</title>
<g id="a_node29"><a xlink:href="agent__uid__generator_8cc.html" target="_top" xlink:title=" ">
<polygon fill="white" stroke="black" points="1276.32,-201.5 1276.32,-231.5 1395.32,-231.5 1395.32,-201.5 1276.32,-201.5"/>
<text text-anchor="start" x="1284.32" y="-219.5" font-family="Helvetica,sans-Serif" font-size="10.00">core/agent/agent_uid</text>
<text text-anchor="middle" x="1335.82" y="-208.5" font-family="Helvetica,sans-Serif" font-size="10.00">_generator.cc</text>
</a>
</g>
</g>
<!-- Node5&#45;&gt;Node29 -->
<g id="edge48" class="edge">
<title>Node5&#45;&gt;Node29</title>
<path fill="none" stroke="midnightblue" d="M1552.21,-266.68C1504.2,-255.77 1441.03,-241.41 1395.35,-231.03"/>
<polygon fill="midnightblue" stroke="midnightblue" points="1551.69,-270.15 1562.22,-268.95 1553.24,-263.32 1551.69,-270.15"/>
</g>
<!-- Node6&#45;&gt;Node4 -->
<g id="edge24" class="edge">
<title>Node6&#45;&gt;Node4</title>
<path fill="none" stroke="midnightblue" d="M1539.01,-204.75C1575.04,-196.55 1622.51,-183.5 1661.82,-165 1683.8,-154.66 1686.49,-147.28 1706.82,-134 1771.45,-91.8 1850.41,-44.21 1882.37,-25.1"/>
<polygon fill="midnightblue" stroke="midnightblue" points="1538.17,-201.35 1529.17,-206.93 1539.69,-208.18 1538.17,-201.35"/>
</g>
<!-- Node7 -->
<g id="node7" class="node">
<title>Node7</title>
<g id="a_node7"><a xlink:href="environment_8h.html" target="_top" xlink:title=" ">
<polygon fill="white" stroke="black" points="1086.32,-140 1086.32,-159 1263.32,-159 1263.32,-140 1086.32,-140"/>
<text text-anchor="middle" x="1174.82" y="-147" font-family="Helvetica,sans-Serif" font-size="10.00">core/environment/environment.h</text>
</a>
</g>
</g>
<!-- Node6&#45;&gt;Node7 -->
<g id="edge6" class="edge">
<title>Node6&#45;&gt;Node7</title>
<path fill="none" stroke="midnightblue" d="M1432.97,-204.8C1372.17,-192.01 1271.6,-170.86 1215.63,-159.08"/>
<polygon fill="midnightblue" stroke="midnightblue" points="1432.6,-208.3 1443.11,-206.94 1434.05,-201.45 1432.6,-208.3"/>
</g>
<!-- Node8 -->
<g id="node8" class="node">
<title>Node8</title>
<g id="a_node8"><a xlink:href="agent_8cc.html" target="_top" xlink:title=" ">
<polygon fill="white" stroke="black" points="1033.32,-73 1033.32,-92 1146.32,-92 1146.32,-73 1033.32,-73"/>
<text text-anchor="middle" x="1089.82" y="-80" font-family="Helvetica,sans-Serif" font-size="10.00">core/agent/agent.cc</text>
</a>
</g>
</g>
<!-- Node6&#45;&gt;Node8 -->
<g id="edge30" class="edge">
<title>Node6&#45;&gt;Node8</title>
<path fill="none" stroke="midnightblue" d="M1430.53,-205.18C1421.95,-203.67 1413.15,-202.22 1404.82,-201 1332.49,-190.39 1126.61,-219.45 1077.82,-165 1059.5,-144.55 1075.41,-108.93 1084.51,-92.4"/>
<polygon fill="midnightblue" stroke="midnightblue" points="1429.99,-208.64 1440.45,-206.96 1431.23,-201.75 1429.99,-208.64"/>
</g>
<!-- Node9 -->
<g id="node9" class="node">
<title>Node9</title>
<g id="a_node9"><a xlink:href="uniform__grid__environment_8h.html" target="_top" xlink:title=" ">
<polygon fill="white" stroke="black" points="1316.82,-67.5 1316.82,-97.5 1460.82,-97.5 1460.82,-67.5 1316.82,-67.5"/>
<text text-anchor="start" x="1324.82" y="-85.5" font-family="Helvetica,sans-Serif" font-size="10.00">core/environment/uniform</text>
<text text-anchor="middle" x="1388.82" y="-74.5" font-family="Helvetica,sans-Serif" font-size="10.00">_grid_environment.h</text>
</a>
</g>
</g>
<!-- Node6&#45;&gt;Node9 -->
<g id="edge33" class="edge">
<title>Node6&#45;&gt;Node9</title>
<path fill="none" stroke="midnightblue" d="M1477.79,-197.29C1471.5,-179.96 1460.51,-153.69 1445.82,-134 1435.31,-119.91 1420.33,-106.83 1408.37,-97.51"/>
<polygon fill="midnightblue" stroke="midnightblue" points="1474.5,-198.48 1481.09,-206.78 1481.11,-196.19 1474.5,-198.48"/>
</g>
<!-- Node10 -->
<g id="node10" class="node">
<title>Node10</title>
<g id="a_node10"><a xlink:href="mechanical__forces__op__cuda_8cc.html" target="_top" xlink:title=" ">
<polygon fill="white" stroke="black" points="1120.82,-0.5 1120.82,-30.5 1266.82,-30.5 1266.82,-0.5 1120.82,-0.5"/>
<text text-anchor="start" x="1128.82" y="-18.5" font-family="Helvetica,sans-Serif" font-size="10.00">core/operation/mechanical</text>
<text text-anchor="middle" x="1193.82" y="-7.5" font-family="Helvetica,sans-Serif" font-size="10.00">_forces_op_cuda.cc</text>
</a>
</g>
</g>
<!-- Node6&#45;&gt;Node10 -->
<g id="edge39" class="edge">
<title>Node6&#45;&gt;Node10</title>
<path fill="none" stroke="midnightblue" d="M1434.4,-204.63C1390.76,-194.39 1331.03,-178.64 1310.82,-165 1257.23,-128.82 1216.84,-60.39 1201.06,-30.76"/>
<polygon fill="midnightblue" stroke="midnightblue" points="1433.74,-208.07 1444.27,-206.91 1435.32,-201.25 1433.74,-208.07"/>
</g>
<!-- Node6&#45;&gt;Node11 -->
<g id="edge42" class="edge">
<title>Node6&#45;&gt;Node11</title>
<path fill="none" stroke="midnightblue" d="M1552.77,-204.53C1581.05,-197.2 1612.55,-185.05 1635.82,-165 1679.59,-127.31 1687.22,-50.87 1688.54,-25.16"/>
<polygon fill="midnightblue" stroke="midnightblue" points="1551.81,-201.16 1542.92,-206.93 1553.46,-207.96 1551.81,-201.16"/>
</g>
<!-- Node6&#45;&gt;Node12 -->
<g id="edge34" class="edge">
<title>Node6&#45;&gt;Node12</title>
<path fill="none" stroke="midnightblue" d="M1430.53,-205.15C1421.95,-203.65 1413.16,-202.2 1404.82,-201 1254.43,-179.27 1206.99,-218.67 1064.82,-165 1024.3,-149.7 984.84,-116.6 964.34,-97.62"/>
<polygon fill="midnightblue" stroke="midnightblue" points="1430,-208.61 1440.46,-206.93 1431.23,-201.72 1430,-208.61"/>
</g>
<!-- Node13 -->
<g id="node13" class="node">
<title>Node13</title>
<g id="a_node13"><a xlink:href="diffusion__op_8h.html" target="_top" xlink:title=" ">
<polygon fill="white" stroke="black" points="349.82,-73 349.82,-92 507.82,-92 507.82,-73 349.82,-73"/>
<text text-anchor="middle" x="428.82" y="-80" font-family="Helvetica,sans-Serif" font-size="10.00">core/operation/diffusion_op.h</text>
</a>
</g>
</g>
<!-- Node6&#45;&gt;Node13 -->
<g id="edge36" class="edge">
<title>Node6&#45;&gt;Node13</title>
<path fill="none" stroke="midnightblue" d="M1433.33,-205.16C1423.89,-203.54 1414.08,-202.05 1404.82,-201 1223.14,-180.45 759.27,-212.93 582.82,-165 525.32,-149.38 465.12,-109.54 440.43,-92"/>
<polygon fill="midnightblue" stroke="midnightblue" points="1432.93,-208.65 1443.39,-206.97 1434.17,-201.76 1432.93,-208.65"/>
</g>
<!-- Node6&#45;&gt;Node15 -->
<g id="edge41" class="edge">
<title>Node6&#45;&gt;Node15</title>
<path fill="none" stroke="midnightblue" d="M1433.34,-205.14C1423.9,-203.51 1414.09,-202.03 1404.82,-201 1251.13,-183.91 118.47,-214.55 16.82,-98 -18.9,-57.03 67.75,-34.16 127.31,-23.67"/>
<polygon fill="midnightblue" stroke="midnightblue" points="1432.93,-208.62 1443.39,-206.94 1434.17,-201.73 1432.93,-208.62"/>
</g>
<!-- Node17 -->
<g id="node17" class="node">
<title>Node17</title>
<g id="a_node17"><a xlink:href="resource__manager_8cc.html" target="_top" xlink:title=" ">
<polygon fill="white" stroke="black" points="1516.82,-73 1516.82,-92 1660.82,-92 1660.82,-73 1516.82,-73"/>
<text text-anchor="middle" x="1588.82" y="-80" font-family="Helvetica,sans-Serif" font-size="10.00">core/resource_manager.cc</text>
</a>
</g>
</g>
<!-- Node6&#45;&gt;Node17 -->
<g id="edge40" class="edge">
<title>Node6&#45;&gt;Node17</title>
<path fill="none" stroke="midnightblue" d="M1489.71,-197.33C1495.98,-179.83 1507.19,-153.26 1522.82,-134 1537.28,-116.19 1559.24,-101.02 1573.81,-92.09"/>
<polygon fill="midnightblue" stroke="midnightblue" points="1486.36,-196.31 1486.44,-206.9 1492.98,-198.57 1486.36,-196.31"/>
</g>
<!-- Node18 -->
<g id="node18" class="node">
<title>Node18</title>
<g id="a_node18"><a xlink:href="model__initializer_8h.html" target="_top" xlink:title=" ">
<polygon fill="white" stroke="black" points="1831.32,-73 1831.32,-92 1962.32,-92 1962.32,-73 1831.32,-73"/>
<text text-anchor="middle" x="1896.82" y="-80" font-family="Helvetica,sans-Serif" font-size="10.00">core/model_initializer.h</text>
</a>
</g>
</g>
<!-- Node6&#45;&gt;Node18 -->
<g id="edge22" class="edge">
<title>Node6&#45;&gt;Node18</title>
<path fill="none" stroke="midnightblue" d="M1543.21,-205.11C1588.6,-196.44 1652.42,-182.67 1706.82,-165 1772.54,-143.66 1846.86,-108.33 1879.68,-92.12"/>
<polygon fill="midnightblue" stroke="midnightblue" points="1542.42,-201.7 1533.24,-206.99 1543.72,-208.58 1542.42,-201.7"/>
</g>
<!-- Node6&#45;&gt;Node19 -->
<g id="edge25" class="edge">
<title>Node6&#45;&gt;Node19</title>
<path fill="none" stroke="midnightblue" d="M1541.95,-205.15C1612.31,-192.62 1729.73,-171.71 1797.09,-159.71"/>
<polygon fill="midnightblue" stroke="midnightblue" points="1541.15,-201.74 1531.92,-206.94 1542.38,-208.63 1541.15,-201.74"/>
</g>
<!-- Node21 -->
<g id="node21" class="node">
<title>Node21</title>
<g id="a_node21"><a xlink:href="agent__vector_8h.html" target="_top" xlink:title=" ">
<polygon fill="white" stroke="black" points="1319.32,-134.5 1319.32,-164.5 1436.32,-164.5 1436.32,-134.5 1319.32,-134.5"/>
<text text-anchor="start" x="1327.32" y="-152.5" font-family="Helvetica,sans-Serif" font-size="10.00">core/container/agent</text>
<text text-anchor="middle" x="1377.82" y="-141.5" font-family="Helvetica,sans-Serif" font-size="10.00">_vector.h</text>
</a>
</g>
</g>
<!-- Node6&#45;&gt;Node21 -->
<g id="edge31" class="edge">
<title>Node6&#45;&gt;Node21</title>
<path fill="none" stroke="midnightblue" d="M1460.92,-201.45C1443.14,-190.55 1418.6,-175.5 1400.8,-164.59"/>
<polygon fill="midnightblue" stroke="midnightblue" points="1459.17,-204.49 1469.53,-206.73 1462.83,-198.52 1459.17,-204.49"/>
</g>
<!-- Node22 -->
<g id="node22" class="node">
<title>Node22</title>
<g id="a_node22"><a xlink:href="exporter_8cc.html" target="_top" xlink:title=" ">
<polygon fill="white" stroke="black" points="1531.32,-140 1531.32,-159 1626.32,-159 1626.32,-140 1531.32,-140"/>
<text text-anchor="middle" x="1578.82" y="-147" font-family="Helvetica,sans-Serif" font-size="10.00">core/exporter.cc</text>
</a>
</g>
</g>
<!-- Node6&#45;&gt;Node22 -->
<g id="edge35" class="edge">
<title>Node6&#45;&gt;Node22</title>
<path fill="none" stroke="midnightblue" d="M1505.13,-200.92C1523.92,-188.07 1550.64,-169.78 1566.22,-159.13"/>
<polygon fill="midnightblue" stroke="midnightblue" points="1502.91,-198.2 1496.64,-206.73 1506.87,-203.98 1502.91,-198.2"/>
</g>
<!-- Node23 -->
<g id="node23" class="node">
<title>Node23</title>
<g id="a_node23"><a xlink:href="load__balancing__op_8h.html" target="_top" xlink:title=" ">
<polygon fill="white" stroke="black" points="525.32,-67.5 525.32,-97.5 636.32,-97.5 636.32,-67.5 525.32,-67.5"/>
<text text-anchor="start" x="533.32" y="-85.5" font-family="Helvetica,sans-Serif" font-size="10.00">core/operation/load</text>
<text text-anchor="middle" x="580.82" y="-74.5" font-family="Helvetica,sans-Serif" font-size="10.00">_balancing_op.h</text>
</a>
</g>
</g>
<!-- Node6&#45;&gt;Node23 -->
<g id="edge37" class="edge">
<title>Node6&#45;&gt;Node23</title>
<path fill="none" stroke="midnightblue" d="M1433.33,-205.17C1423.89,-203.54 1414.08,-202.05 1404.82,-201 1316.53,-190.96 676.08,-219.42 605.82,-165 585.23,-149.05 581.14,-116.51 580.59,-97.73"/>
<polygon fill="midnightblue" stroke="midnightblue" points="1432.93,-208.66 1443.39,-206.98 1434.16,-201.77 1432.93,-208.66"/>
</g>
<!-- Node6&#45;&gt;Node24 -->
<g id="edge43" class="edge">
<title>Node6&#45;&gt;Node24</title>
<path fill="none" stroke="midnightblue" d="M1564.16,-206.47C1649.85,-196.73 1789.52,-180.52 1909.82,-165 1925.19,-163.02 1941.82,-160.75 1957.18,-158.61"/>
<polygon fill="midnightblue" stroke="midnightblue" points="1563.53,-203.02 1553.98,-207.63 1564.32,-209.98 1563.53,-203.02"/>
</g>
<!-- Node26 -->
<g id="node26" class="node">
<title>Node26</title>
<g id="a_node26"><a xlink:href="jit__helper_8h.html" target="_top" xlink:title=" ">
<polygon fill="white" stroke="black" points="870.82,-134.5 870.82,-164.5 992.82,-164.5 992.82,-134.5 870.82,-134.5"/>
<text text-anchor="start" x="878.82" y="-152.5" font-family="Helvetica,sans-Serif" font-size="10.00">core/visualization</text>
<text text-anchor="middle" x="931.82" y="-141.5" font-family="Helvetica,sans-Serif" font-size="10.00">/paraview/jit_helper.h</text>
</a>
</g>
</g>
<!-- Node6&#45;&gt;Node26 -->
<g id="edge45" class="edge">
<title>Node6&#45;&gt;Node26</title>
<path fill="none" stroke="midnightblue" d="M1431.45,-205.19C1422.58,-203.65 1413.46,-202.18 1404.82,-201 1228.85,-176.94 1182.68,-189.89 1006.82,-165 1002.36,-164.37 997.76,-163.65 993.14,-162.88"/>
<polygon fill="midnightblue" stroke="midnightblue" points="1430.84,-208.64 1441.3,-206.96 1432.07,-201.75 1430.84,-208.64"/>
</g>
<!-- Node28 -->
<g id="node28" class="node">
<title>Node28</title>
<g id="a_node28"><a xlink:href="neuron__soma_8cc.html" target="_top" xlink:title=" ">
<polygon fill="white" stroke="black" points="2088.82,-134.5 2088.82,-164.5 2206.82,-164.5 2206.82,-134.5 2088.82,-134.5"/>
<text text-anchor="start" x="2096.82" y="-152.5" font-family="Helvetica,sans-Serif" font-size="10.00">neuroscience/neuron</text>
<text text-anchor="middle" x="2147.82" y="-141.5" font-family="Helvetica,sans-Serif" font-size="10.00">_soma.cc</text>
</a>
</g>
</g>
<!-- Node6&#45;&gt;Node28 -->
<g id="edge47" class="edge">
<title>Node6&#45;&gt;Node28</title>
<path fill="none" stroke="midnightblue" d="M1564,-211.91C1678.78,-206.04 1896.36,-192.22 2079.82,-165 2082.69,-164.57 2085.62,-164.1 2088.57,-163.59"/>
<polygon fill="midnightblue" stroke="midnightblue" points="1563.7,-208.42 1553.89,-212.42 1564.05,-215.41 1563.7,-208.42"/>
</g>
<!-- Node7&#45;&gt;Node4 -->
<g id="edge7" class="edge">
<title>Node7&#45;&gt;Node4</title>
<path fill="none" stroke="midnightblue" d="M1260.65,-138.73C1334.04,-129.48 1433.4,-114.57 1469.82,-98 1489.66,-88.98 1487.81,-75.62 1507.82,-67 1539.45,-53.38 1763.9,-29.76 1856.76,-20.44"/>
<polygon fill="midnightblue" stroke="midnightblue" points="1259.96,-135.29 1250.47,-140 1260.83,-142.23 1259.96,-135.29"/>
</g>
<!-- Node7&#45;&gt;Node8 -->
<g id="edge8" class="edge">
<title>Node7&#45;&gt;Node8</title>
<path fill="none" stroke="midnightblue" d="M1155.3,-133.57C1138.52,-120.74 1114.91,-102.69 1101.11,-92.13"/>
<polygon fill="midnightblue" stroke="midnightblue" points="1153.29,-136.44 1163.36,-139.73 1157.54,-130.88 1153.29,-136.44"/>
</g>
<!-- Node7&#45;&gt;Node9 -->
<g id="edge9" class="edge">
<title>Node7&#45;&gt;Node9</title>
<path fill="none" stroke="midnightblue" d="M1212.96,-136.92C1249.25,-125.9 1303.9,-109.29 1342.64,-97.53"/>
<polygon fill="midnightblue" stroke="midnightblue" points="1211.79,-133.61 1203.24,-139.87 1213.83,-140.31 1211.79,-133.61"/>
</g>
<!-- Node7&#45;&gt;Node10 -->
<g id="edge19" class="edge">
<title>Node7&#45;&gt;Node10</title>
<path fill="none" stroke="midnightblue" d="M1177.5,-129.89C1181.34,-103.24 1188.31,-54.8 1191.77,-30.78"/>
<polygon fill="midnightblue" stroke="midnightblue" points="1174.03,-129.44 1176.07,-139.84 1180.96,-130.44 1174.03,-129.44"/>
</g>
<!-- Node7&#45;&gt;Node11 -->
<g id="edge21" class="edge">
<title>Node7&#45;&gt;Node11</title>
<path fill="none" stroke="midnightblue" d="M1193.49,-133.51C1218.1,-114.62 1263.5,-82.72 1307.82,-67 1419.92,-27.25 1560.63,-18.37 1635.76,-16.65"/>
<polygon fill="midnightblue" stroke="midnightblue" points="1191.13,-130.91 1185.4,-139.83 1195.44,-136.43 1191.13,-130.91"/>
</g>
<!-- Node7&#45;&gt;Node12 -->
<g id="edge12" class="edge">
<title>Node7&#45;&gt;Node12</title>
<path fill="none" stroke="midnightblue" d="M1135.22,-137.06C1097.07,-126.04 1039.29,-109.34 998.38,-97.53"/>
<polygon fill="midnightblue" stroke="midnightblue" points="1134.37,-140.46 1144.95,-139.87 1136.31,-133.73 1134.37,-140.46"/>
</g>
<!-- Node7&#45;&gt;Node13 -->
<g id="edge13" class="edge">
<title>Node7&#45;&gt;Node13</title>
<path fill="none" stroke="midnightblue" d="M1075.69,-140.03C1051.53,-138.01 1025.75,-135.89 1001.82,-134 785.9,-116.95 730.87,-123.83 515.82,-98 502.6,-96.41 488.31,-94.23 475.22,-92.04"/>
<polygon fill="midnightblue" stroke="midnightblue" points="1075.68,-143.54 1085.94,-140.88 1076.27,-136.56 1075.68,-143.54"/>
</g>
<!-- Node7&#45;&gt;Node16 -->
<g id="edge16" class="edge">
<title>Node7&#45;&gt;Node16</title>
<path fill="none" stroke="midnightblue" d="M1075.72,-139.69C1051.55,-137.68 1025.77,-135.65 1001.82,-134 708.31,-113.71 633.1,-131.68 340.82,-98 337.95,-97.67 335.03,-97.3 332.08,-96.9"/>
<polygon fill="midnightblue" stroke="midnightblue" points="1075.71,-143.2 1085.96,-140.55 1076.29,-136.23 1075.71,-143.2"/>
</g>
<!-- Node7&#45;&gt;Node17 -->
<g id="edge20" class="edge">
<title>Node7&#45;&gt;Node17</title>
<path fill="none" stroke="midnightblue" d="M1241.65,-138.5C1307.96,-128.5 1412.47,-112.57 1502.82,-98 1514.48,-96.12 1527.02,-94.04 1538.82,-92.05"/>
<polygon fill="midnightblue" stroke="midnightblue" points="1241.12,-135.04 1231.75,-139.99 1242.16,-141.96 1241.12,-135.04"/>
</g>
<!-- Node9&#45;&gt;Node10 -->
<g id="edge10" class="edge">
<title>Node9&#45;&gt;Node10</title>
<path fill="none" stroke="midnightblue" d="M1337.01,-64.23C1305.46,-53.71 1265.68,-40.45 1236.05,-30.58"/>
<polygon fill="midnightblue" stroke="midnightblue" points="1335.92,-67.55 1346.51,-67.4 1338.13,-60.91 1335.92,-67.55"/>
</g>
<!-- Node9&#45;&gt;Node11 -->
<g id="edge11" class="edge">
<title>Node9&#45;&gt;Node11</title>
<path fill="none" stroke="midnightblue" d="M1463.56,-65.31C1522.5,-52.54 1602.37,-35.23 1649.46,-25.03"/>
<polygon fill="midnightblue" stroke="midnightblue" points="1462.58,-61.94 1453.55,-67.48 1464.07,-68.78 1462.58,-61.94"/>
</g>
<!-- Node14 -->
<g id="node14" class="node">
<title>Node14</title>
<g id="a_node14"><a xlink:href="default__ops_8cc.html" target="_top" xlink:title=" ">
<polygon fill="white" stroke="black" points="366.32,-0.5 366.32,-30.5 491.32,-30.5 491.32,-0.5 366.32,-0.5"/>
<text text-anchor="start" x="374.32" y="-18.5" font-family="Helvetica,sans-Serif" font-size="10.00">core/operation/default</text>
<text text-anchor="middle" x="428.82" y="-7.5" font-family="Helvetica,sans-Serif" font-size="10.00">_ops.cc</text>
</a>
</g>
</g>
<!-- Node13&#45;&gt;Node14 -->
<g id="edge14" class="edge">
<title>Node13&#45;&gt;Node14</title>
<path fill="none" stroke="midnightblue" d="M428.82,-62.41C428.82,-52.22 428.82,-39.9 428.82,-30.59"/>
<polygon fill="midnightblue" stroke="midnightblue" points="425.32,-62.73 428.82,-72.73 432.32,-62.73 425.32,-62.73"/>
</g>
<!-- Node13&#45;&gt;Node15 -->
<g id="edge15" class="edge">
<title>Node13&#45;&gt;Node15</title>
<path fill="none" stroke="midnightblue" d="M385.98,-70.4C336.44,-57.58 255.97,-36.74 210.97,-25.08"/>
<polygon fill="midnightblue" stroke="midnightblue" points="385.19,-73.82 395.75,-72.94 386.95,-67.04 385.19,-73.82"/>
</g>
<!-- Node16&#45;&gt;Node14 -->
<g id="edge17" class="edge">
<title>Node16&#45;&gt;Node14</title>
<path fill="none" stroke="midnightblue" d="M305.07,-63.82C332.39,-53.37 366.52,-40.32 392.01,-30.58"/>
<polygon fill="midnightblue" stroke="midnightblue" points="303.8,-60.56 295.71,-67.4 306.3,-67.09 303.8,-60.56"/>
</g>
<!-- Node16&#45;&gt;Node15 -->
<g id="edge18" class="edge">
<title>Node16&#45;&gt;Node15</title>
<path fill="none" stroke="midnightblue" d="M233.29,-61.01C218.25,-48.94 200.01,-34.3 188.66,-25.19"/>
<polygon fill="midnightblue" stroke="midnightblue" points="231.26,-63.87 241.25,-67.4 235.64,-58.41 231.26,-63.87"/>
</g>
<!-- Node18&#45;&gt;Node4 -->
<g id="edge23" class="edge">
<title>Node18&#45;&gt;Node4</title>
<path fill="none" stroke="midnightblue" d="M1896.82,-62.54C1896.82,-50.17 1896.82,-34.62 1896.82,-25.13"/>
<polygon fill="midnightblue" stroke="midnightblue" points="1893.32,-62.73 1896.82,-72.73 1900.32,-62.73 1893.32,-62.73"/>
</g>
<!-- Node19&#45;&gt;Node11 -->
<g id="edge29" class="edge">
<title>Node19&#45;&gt;Node11</title>
<path fill="none" stroke="midnightblue" d="M1910.24,-132.34C1952.11,-118.33 1995.93,-95.79 1971.82,-67 1957.23,-49.57 1819.98,-31.36 1742.12,-22.32"/>
<polygon fill="midnightblue" stroke="midnightblue" points="1908.98,-129.07 1900.52,-135.46 1911.11,-135.73 1908.98,-129.07"/>
</g>
<!-- Node19&#45;&gt;Node15 -->
<g id="edge28" class="edge">
<title>Node19&#45;&gt;Node15</title>
<path fill="none" stroke="midnightblue" d="M1817.14,-129.33C1782.4,-109.47 1724.34,-79.61 1669.82,-67 1527.64,-34.11 502.55,-38.89 356.82,-31 313.55,-28.66 264.5,-24.58 228.7,-21.35"/>
<polygon fill="midnightblue" stroke="midnightblue" points="1815.46,-132.4 1825.87,-134.39 1818.97,-126.35 1815.46,-132.4"/>
</g>
<!-- Node20 -->
<g id="node20" class="node">
<title>Node20</title>
<g id="a_node20"><a xlink:href="notebook__util_8h.html" target="_top" xlink:title=" ">
<polygon fill="white" stroke="black" points="2056.82,-67.5 2056.82,-97.5 2174.82,-97.5 2174.82,-67.5 2056.82,-67.5"/>
<text text-anchor="start" x="2064.82" y="-85.5" font-family="Helvetica,sans-Serif" font-size="10.00">core/visualization</text>
<text text-anchor="middle" x="2115.82" y="-74.5" font-family="Helvetica,sans-Serif" font-size="10.00">/root/notebook_util.h</text>
</a>
</g>
</g>
<!-- Node19&#45;&gt;Node20 -->
<g id="edge26" class="edge">
<title>Node19&#45;&gt;Node20</title>
<path fill="none" stroke="midnightblue" d="M1910.44,-133.5C1954.93,-122.67 2014.6,-108.14 2058.15,-97.54"/>
<polygon fill="midnightblue" stroke="midnightblue" points="1909.51,-130.12 1900.62,-135.89 1911.17,-136.93 1909.51,-130.12"/>
</g>
<!-- Node20&#45;&gt;Node4 -->
<g id="edge27" class="edge">
<title>Node20&#45;&gt;Node4</title>
<path fill="none" stroke="midnightblue" d="M2058.85,-64.59C2016.08,-51.9 1959.3,-35.04 1925.56,-25.03"/>
<polygon fill="midnightblue" stroke="midnightblue" points="2057.99,-67.99 2068.57,-67.48 2059.98,-61.28 2057.99,-67.99"/>
</g>
<!-- Node21&#45;&gt;Node9 -->
<g id="edge32" class="edge">
<title>Node21&#45;&gt;Node9</title>
<path fill="none" stroke="midnightblue" d="M1381.9,-124.4C1383.43,-115.37 1385.12,-105.41 1386.44,-97.58"/>
<polygon fill="midnightblue" stroke="midnightblue" points="1378.43,-123.95 1380.21,-134.4 1385.33,-125.12 1378.43,-123.95"/>
</g>
<!-- Node23&#45;&gt;Node14 -->
<g id="edge38" class="edge">
<title>Node23&#45;&gt;Node14</title>
<path fill="none" stroke="midnightblue" d="M538.51,-63.41C514.25,-53.03 484.24,-40.2 461.74,-30.58"/>
<polygon fill="midnightblue" stroke="midnightblue" points="537.27,-66.68 547.84,-67.4 540.02,-60.25 537.27,-66.68"/>
</g>
<!-- Node25 -->
<g id="node25" class="node">
<title>Node25</title>
<g id="a_node25"><a xlink:href="adaptor_8cc.html" target="_top" xlink:title=" ">
<polygon fill="white" stroke="black" points="2192.82,-67.5 2192.82,-97.5 2310.82,-97.5 2310.82,-67.5 2192.82,-67.5"/>
<text text-anchor="start" x="2200.82" y="-85.5" font-family="Helvetica,sans-Serif" font-size="10.00">core/visualization</text>
<text text-anchor="middle" x="2251.82" y="-74.5" font-family="Helvetica,sans-Serif" font-size="10.00">/paraview/adaptor.cc</text>
</a>
</g>
</g>
<!-- Node24&#45;&gt;Node25 -->
<g id="edge44" class="edge">
<title>Node24&#45;&gt;Node25</title>
<path fill="none" stroke="midnightblue" d="M2075.28,-131.71C2114.01,-121.14 2163.45,-107.63 2200.16,-97.61"/>
<polygon fill="midnightblue" stroke="midnightblue" points="2073.9,-128.46 2065.17,-134.48 2075.74,-135.22 2073.9,-128.46"/>
</g>
<!-- Node27 -->
<g id="node27" class="node">
<title>Node27</title>
<g id="a_node27"><a xlink:href="vtk__agents_8cc.html" target="_top" xlink:title=" ">
<polygon fill="white" stroke="black" points="731.32,-67.5 731.32,-97.5 866.32,-97.5 866.32,-67.5 731.32,-67.5"/>
<text text-anchor="start" x="739.32" y="-85.5" font-family="Helvetica,sans-Serif" font-size="10.00">core/visualization</text>
<text text-anchor="middle" x="798.82" y="-74.5" font-family="Helvetica,sans-Serif" font-size="10.00">/paraview/vtk_agents.cc</text>
</a>
</g>
</g>
<!-- Node26&#45;&gt;Node27 -->
<g id="edge46" class="edge">
<title>Node26&#45;&gt;Node27</title>
<path fill="none" stroke="midnightblue" d="M893.95,-129.99C872.87,-119.69 847.05,-107.07 827.63,-97.58"/>
<polygon fill="midnightblue" stroke="midnightblue" points="892.44,-133.15 902.97,-134.4 895.52,-126.86 892.44,-133.15"/>
</g>
<!-- Node30&#45;&gt;Node19 -->
<g id="edge53" class="edge">
<title>Node30&#45;&gt;Node19</title>
<path fill="none" stroke="midnightblue" d="M2164.95,-203.73C2088.76,-190.9 1968.64,-170.68 1900.5,-159.2"/>
<polygon fill="midnightblue" stroke="midnightblue" points="2164.49,-207.21 2174.94,-205.42 2165.66,-200.3 2164.49,-207.21"/>
</g>
<!-- Node30&#45;&gt;Node28 -->
<g id="edge56" class="edge">
<title>Node30&#45;&gt;Node28</title>
<path fill="none" stroke="midnightblue" d="M2207.61,-195.17C2194.31,-185.23 2178.63,-173.51 2166.67,-164.58"/>
<polygon fill="midnightblue" stroke="midnightblue" points="2205.84,-198.21 2215.95,-201.4 2210.03,-192.61 2205.84,-198.21"/>
</g>
<!-- Node31 -->
<g id="node31" class="node">
<title>Node31</title>
<g id="a_node31"><a xlink:href="interaction__force_8cc.html" target="_top" xlink:title=" ">
<polygon fill="white" stroke="black" points="2401.32,-140 2401.32,-159 2538.32,-159 2538.32,-140 2401.32,-140"/>
<text text-anchor="middle" x="2469.82" y="-147" font-family="Helvetica,sans-Serif" font-size="10.00">core/interaction_force.cc</text>
</a>
</g>
</g>
<!-- Node30&#45;&gt;Node31 -->
<g id="edge54" class="edge">
<title>Node30&#45;&gt;Node31</title>
<path fill="none" stroke="midnightblue" d="M2295.38,-198.75C2341.34,-186.04 2402.63,-169.09 2438.99,-159.03"/>
<polygon fill="midnightblue" stroke="midnightblue" points="2294.23,-195.44 2285.53,-201.48 2296.1,-202.18 2294.23,-195.44"/>
</g>
<!-- Node32 -->
<g id="node32" class="node">
<title>Node32</title>
<g id="a_node32"><a xlink:href="neuron__or__neurite_8cc.html" target="_top" xlink:title=" ">
<polygon fill="white" stroke="black" points="2556.82,-134.5 2556.82,-164.5 2674.82,-164.5 2674.82,-134.5 2556.82,-134.5"/>
<text text-anchor="start" x="2564.82" y="-152.5" font-family="Helvetica,sans-Serif" font-size="10.00">neuroscience/neuron</text>
<text text-anchor="middle" x="2615.82" y="-141.5" font-family="Helvetica,sans-Serif" font-size="10.00">_or_neurite.cc</text>
</a>
</g>
</g>
<!-- Node30&#45;&gt;Node32 -->
<g id="edge55" class="edge">
<title>Node30&#45;&gt;Node32</title>
<path fill="none" stroke="midnightblue" d="M2304.31,-205.31C2367.85,-195.75 2464.37,-180.62 2547.82,-165 2550.67,-164.47 2553.58,-163.91 2556.52,-163.33"/>
<polygon fill="midnightblue" stroke="midnightblue" points="2303.77,-201.85 2294.4,-206.8 2304.81,-208.77 2303.77,-201.85"/>
</g>
<!-- Node33 -->
<g id="node33" class="node">
<title>Node33</title>
<g id="a_node33"><a xlink:href="neuroscience_8h.html" target="_top" xlink:title=" ">
<polygon fill="white" stroke="black" points="2224.82,-140 2224.82,-159 2382.82,-159 2382.82,-140 2224.82,-140"/>
<text text-anchor="middle" x="2303.82" y="-147" font-family="Helvetica,sans-Serif" font-size="10.00">neuroscience/neuroscience.h</text>
</a>
</g>
</g>
<!-- Node30&#45;&gt;Node33 -->
<g id="edge57" class="edge">
<title>Node30&#45;&gt;Node33</title>
<path fill="none" stroke="midnightblue" d="M2257.29,-194.34C2269.96,-182.4 2285.1,-168.14 2294.6,-159.19"/>
<polygon fill="midnightblue" stroke="midnightblue" points="2254.68,-191.99 2249.8,-201.4 2259.48,-197.09 2254.68,-191.99"/>
</g>
<!-- Node34&#45;&gt;Node4 -->
<g id="edge64" class="edge">
<title>Node34&#45;&gt;Node4</title>
<path fill="none" stroke="midnightblue" d="M724.91,-144.24C817.7,-137.23 1001.31,-121.64 1155.82,-98 1223.98,-87.57 1239.56,-76.7 1307.82,-67 1503.4,-39.21 1554.09,-48.76 1750.82,-31 1786.59,-27.77 1827.25,-23.7 1856.56,-20.69"/>
<polygon fill="midnightblue" stroke="midnightblue" points="724.58,-140.76 714.86,-144.99 725.1,-147.74 724.58,-140.76"/>
</g>
<!-- Node34&#45;&gt;Node10 -->
<g id="edge65" class="edge">
<title>Node34&#45;&gt;Node10</title>
<path fill="none" stroke="midnightblue" d="M664.71,-129.86C665.69,-110.92 670.4,-82.27 688.82,-67 721.37,-40.03 988.82,-25.12 1120.77,-19.34"/>
<polygon fill="midnightblue" stroke="midnightblue" points="661.21,-129.88 664.49,-139.95 668.21,-130.03 661.21,-129.88"/>
</g>
<!-- Node34&#45;&gt;Node11 -->
<g id="edge68" class="edge">
<title>Node34&#45;&gt;Node11</title>
<path fill="none" stroke="midnightblue" d="M671.69,-130.57C680.21,-111.09 696.74,-80.91 721.82,-67 741.96,-55.83 1436.11,-26.78 1635.67,-18.65"/>
<polygon fill="midnightblue" stroke="midnightblue" points="668.43,-129.29 667.87,-139.87 674.91,-131.95 668.43,-129.29"/>
</g>
<!-- Node35 -->
<g id="node35" class="node">
<title>Node35</title>
<g id="a_node35"><a xlink:href="op__timer_8h.html" target="_top" xlink:title=" ">
<polygon fill="white" stroke="black" points="25.82,-73 25.82,-92 167.82,-92 167.82,-73 25.82,-73"/>
<text text-anchor="middle" x="96.82" y="-80" font-family="Helvetica,sans-Serif" font-size="10.00">core/operation/op_timer.h</text>
</a>
</g>
</g>
<!-- Node34&#45;&gt;Node35 -->
<g id="edge66" class="edge">
<title>Node34&#45;&gt;Node35</title>
<path fill="none" stroke="midnightblue" d="M604.8,-143.77C512.55,-136.17 330.44,-119.84 176.82,-98 164.95,-96.31 152.14,-94.15 140.32,-92.01"/>
<polygon fill="midnightblue" stroke="midnightblue" points="604.54,-147.26 614.79,-144.59 605.11,-140.28 604.54,-147.26"/>
</g>
<!-- Node35&#45;&gt;Node15 -->
<g id="edge67" class="edge">
<title>Node35&#45;&gt;Node15</title>
<path fill="none" stroke="midnightblue" d="M115.87,-66.21C131.83,-53.41 154.04,-35.59 167.07,-25.13"/>
<polygon fill="midnightblue" stroke="midnightblue" points="113.36,-63.75 107.75,-72.73 117.74,-69.2 113.36,-63.75"/>
</g>
</g>
</svg>
