<?xml version="1.0" encoding="UTF-8" standalone="no"?>
<!DOCTYPE svg PUBLIC "-//W3C//DTD SVG 1.1//EN"
 "http://www.w3.org/Graphics/SVG/1.1/DTD/svg11.dtd">
<!-- Generated by graphviz version 2.38.0 (20140413.2041)
 -->
<!-- Title: core/util/timing.h Pages: 1 -->
<svg width="1571pt" height="487pt"
 viewBox="0.00 0.00 1571.00 487.00" xmlns="http://www.w3.org/2000/svg" xmlns:xlink="http://www.w3.org/1999/xlink">
<g id="graph0" class="graph" transform="scale(1 1) rotate(0) translate(4 483)">
<title>core/util/timing.h</title>
<polygon fill="white" stroke="none" points="-4,4 -4,-483 1567,-483 1567,4 -4,4"/>
<!-- Node1 -->
<g id="node1" class="node"><title>Node1</title>
<polygon fill="#bfbfbf" stroke="black" points="185.5,-459.5 185.5,-478.5 282.5,-478.5 282.5,-459.5 185.5,-459.5"/>
<text text-anchor="middle" x="234" y="-466.5" font-family="Helvetica,sans-Serif" font-size="10.00">core/util/timing.h</text>
</g>
<!-- Node2 -->
<g id="node2" class="node"><title>Node2</title>
<polygon fill="white" stroke="#bfbfbf" points="0,-403.5 0,-422.5 50,-422.5 50,-403.5 0,-403.5"/>
<text text-anchor="middle" x="25" y="-410.5" font-family="Helvetica,sans-Serif" font-size="10.00">chrono</text>
</g>
<!-- Node1&#45;&gt;Node2 -->
<g id="edge1" class="edge"><title>Node1&#45;&gt;Node2</title>
<path fill="none" stroke="midnightblue" d="M200.883,-459.444C162.423,-449.506 99.2519,-433.185 60.0041,-423.044"/>
<polygon fill="midnightblue" stroke="midnightblue" points="60.6478,-419.596 50.0902,-420.483 58.8967,-426.373 60.6478,-419.596"/>
</g>
<!-- Node3 -->
<g id="node3" class="node"><title>Node3</title>
<polygon fill="white" stroke="#bfbfbf" points="370.5,-56.5 370.5,-75.5 429.5,-75.5 429.5,-56.5 370.5,-56.5"/>
<text text-anchor="middle" x="400" y="-63.5" font-family="Helvetica,sans-Serif" font-size="10.00">iostream</text>
</g>
<!-- Node1&#45;&gt;Node3 -->
<g id="edge2" class="edge"><title>Node1&#45;&gt;Node3</title>
<path fill="none" stroke="midnightblue" d="M185.283,-461.863C157.704,-456.062 124.361,-444.806 102,-423 79.9524,-401.5 78,-388.795 78,-358 78,-358 78,-358 78,-177 78,-117.962 274.288,-84.0585 360.355,-72.0302"/>
<polygon fill="midnightblue" stroke="midnightblue" points="360.851,-75.4951 370.284,-70.6716 359.902,-68.5597 360.851,-75.4951"/>
</g>
<!-- Node4 -->
<g id="node4" class="node"><title>Node4</title>
<polygon fill="white" stroke="#bfbfbf" points="618,-0.5 618,-19.5 662,-19.5 662,-0.5 618,-0.5"/>
<text text-anchor="middle" x="640" y="-7.5" font-family="Helvetica,sans-Serif" font-size="10.00">string</text>
</g>
<!-- Node1&#45;&gt;Node4 -->
<g id="edge3" class="edge"><title>Node1&#45;&gt;Node4</title>
<path fill="none" stroke="midnightblue" d="M212.082,-459.388C177.957,-444.371 116,-409.953 116,-358 116,-358 116,-358 116,-121 116,-24.5709 228.951,-77.2917 323,-56 350.387,-49.7999 532.033,-25.3521 607.361,-15.3254"/>
<polygon fill="midnightblue" stroke="midnightblue" points="608.22,-18.742 617.672,-13.9546 607.298,-11.803 608.22,-18.742"/>
</g>
<!-- Node5 -->
<g id="node5" class="node"><title>Node5</title>
<g id="a_node5"><a xlink:href="core_2param_2param_8h.html" target="_top" xlink:title="core/param/param.h">
<polygon fill="white" stroke="black" points="494,-347.5 494,-366.5 610,-366.5 610,-347.5 494,-347.5"/>
<text text-anchor="middle" x="552" y="-354.5" font-family="Helvetica,sans-Serif" font-size="10.00">core/param/param.h</text>
</a>
</g>
</g>
<!-- Node1&#45;&gt;Node5 -->
<g id="edge4" class="edge"><title>Node1&#45;&gt;Node5</title>
<path fill="none" stroke="midnightblue" d="M258.688,-459.46C314.927,-440.006 452.682,-392.355 517.376,-369.977"/>
<polygon fill="midnightblue" stroke="midnightblue" points="518.802,-373.187 527.108,-366.61 516.513,-366.572 518.802,-373.187"/>
</g>
<!-- Node23 -->
<g id="node23" class="node"><title>Node23</title>
<g id="a_node23"><a xlink:href="simulation_8h.html" target="_top" xlink:title="core/simulation.h">
<polygon fill="white" stroke="black" points="906.5,-347.5 906.5,-366.5 1005.5,-366.5 1005.5,-347.5 906.5,-347.5"/>
<text text-anchor="middle" x="956" y="-354.5" font-family="Helvetica,sans-Serif" font-size="10.00">core/simulation.h</text>
</a>
</g>
</g>
<!-- Node1&#45;&gt;Node23 -->
<g id="edge29" class="edge"><title>Node1&#45;&gt;Node23</title>
<path fill="none" stroke="midnightblue" d="M282.776,-460.569C410.876,-441.052 756.58,-388.383 896.251,-367.103"/>
<polygon fill="midnightblue" stroke="midnightblue" points="896.984,-370.532 906.343,-365.566 895.93,-363.612 896.984,-370.532"/>
</g>
<!-- Node36 -->
<g id="node36" class="node"><title>Node36</title>
<g id="a_node36"><a xlink:href="timing__aggregator_8h.html" target="_top" xlink:title="core/util/timing_aggregator.h">
<polygon fill="white" stroke="black" points="1111.5,-403.5 1111.5,-422.5 1266.5,-422.5 1266.5,-403.5 1111.5,-403.5"/>
<text text-anchor="middle" x="1189" y="-410.5" font-family="Helvetica,sans-Serif" font-size="10.00">core/util/timing_aggregator.h</text>
</a>
</g>
</g>
<!-- Node1&#45;&gt;Node36 -->
<g id="edge48" class="edge"><title>Node1&#45;&gt;Node36</title>
<path fill="none" stroke="midnightblue" d="M282.672,-465.248C435.101,-456.629 904.772,-430.072 1101.21,-418.964"/>
<polygon fill="midnightblue" stroke="midnightblue" points="1101.42,-422.458 1111.2,-418.399 1101.02,-415.469 1101.42,-422.458"/>
</g>
<!-- Node5&#45;&gt;Node4 -->
<g id="edge8" class="edge"><title>Node5&#45;&gt;Node4</title>
<path fill="none" stroke="midnightblue" d="M493.943,-351.524C434.441,-345.759 347.292,-333.666 323,-311 299.273,-288.861 304,-272.951 304,-240.5 304,-240.5 304,-240.5 304,-121 304,-82.5768 327.38,-74.6028 361,-56 371.744,-50.0548 536.348,-25.8826 607.567,-15.6313"/>
<polygon fill="midnightblue" stroke="midnightblue" points="608.362,-19.053 617.763,-14.1669 607.367,-12.1241 608.362,-19.053"/>
</g>
<!-- Node6 -->
<g id="node6" class="node"><title>Node6</title>
<polygon fill="white" stroke="#bfbfbf" points="614,-291.5 614,-310.5 674,-310.5 674,-291.5 614,-291.5"/>
<text text-anchor="middle" x="644" y="-298.5" font-family="Helvetica,sans-Serif" font-size="10.00">cinttypes</text>
</g>
<!-- Node5&#45;&gt;Node6 -->
<g id="edge5" class="edge"><title>Node5&#45;&gt;Node6</title>
<path fill="none" stroke="midnightblue" d="M566.781,-347.324C581.267,-338.822 603.573,-325.729 620.493,-315.797"/>
<polygon fill="midnightblue" stroke="midnightblue" points="622.403,-318.735 629.255,-310.655 618.859,-312.698 622.403,-318.735"/>
</g>
<!-- Node7 -->
<g id="node7" class="node"><title>Node7</title>
<polygon fill="white" stroke="#bfbfbf" points="692.5,-291.5 692.5,-310.5 749.5,-310.5 749.5,-291.5 692.5,-291.5"/>
<text text-anchor="middle" x="721" y="-298.5" font-family="Helvetica,sans-Serif" font-size="10.00">memory</text>
</g>
<!-- Node5&#45;&gt;Node7 -->
<g id="edge6" class="edge"><title>Node5&#45;&gt;Node7</title>
<path fill="none" stroke="midnightblue" d="M578.779,-347.444C607.333,-338.32 652.733,-323.813 684.537,-313.651"/>
<polygon fill="midnightblue" stroke="midnightblue" points="685.886,-316.894 694.347,-310.516 683.756,-310.226 685.886,-316.894"/>
</g>
<!-- Node8 -->
<g id="node8" class="node"><title>Node8</title>
<polygon fill="white" stroke="#bfbfbf" points="768,-291.5 768,-310.5 800,-310.5 800,-291.5 768,-291.5"/>
<text text-anchor="middle" x="784" y="-298.5" font-family="Helvetica,sans-Serif" font-size="10.00">set</text>
</g>
<!-- Node5&#45;&gt;Node8 -->
<g id="edge7" class="edge"><title>Node5&#45;&gt;Node8</title>
<path fill="none" stroke="midnightblue" d="M599.715,-347.476C639.73,-339.914 698.495,-327.847 758.019,-310.985"/>
<polygon fill="midnightblue" stroke="midnightblue" points="759.321,-314.252 767.964,-308.124 757.386,-307.525 759.321,-314.252"/>
</g>
<!-- Node9 -->
<g id="node9" class="node"><title>Node9</title>
<polygon fill="white" stroke="#bfbfbf" points="182.5,-291.5 182.5,-310.5 275.5,-310.5 275.5,-291.5 182.5,-291.5"/>
<text text-anchor="middle" x="229" y="-298.5" font-family="Helvetica,sans-Serif" font-size="10.00">unordered_map</text>
</g>
<!-- Node5&#45;&gt;Node9 -->
<g id="edge9" class="edge"><title>Node5&#45;&gt;Node9</title>
<path fill="none" stroke="midnightblue" d="M500.82,-347.444C442.301,-337.66 346.766,-321.688 285.94,-311.519"/>
<polygon fill="midnightblue" stroke="midnightblue" points="286.186,-308.012 275.746,-309.815 285.032,-314.916 286.186,-308.012"/>
</g>
<!-- Node10 -->
<g id="node10" class="node"><title>Node10</title>
<polygon fill="white" stroke="#bfbfbf" points="1014.5,-291.5 1014.5,-310.5 1061.5,-310.5 1061.5,-291.5 1014.5,-291.5"/>
<text text-anchor="middle" x="1038" y="-298.5" font-family="Helvetica,sans-Serif" font-size="10.00">vector</text>
</g>
<!-- Node5&#45;&gt;Node10 -->
<g id="edge10" class="edge"><title>Node5&#45;&gt;Node10</title>
<path fill="none" stroke="midnightblue" d="M610.114,-350.033C690.408,-341.713 839.784,-325.959 967,-311 979.217,-309.563 992.603,-307.892 1004.43,-306.382"/>
<polygon fill="midnightblue" stroke="midnightblue" points="1004.87,-309.854 1014.35,-305.107 1003.98,-302.911 1004.87,-309.854"/>
</g>
<!-- Node11 -->
<g id="node11" class="node"><title>Node11</title>
<g id="a_node11"><a xlink:href="module__param_8h.html" target="_top" xlink:title="core/param/module_param.h">
<polygon fill="white" stroke="black" points="332.5,-291.5 332.5,-310.5 489.5,-310.5 489.5,-291.5 332.5,-291.5"/>
<text text-anchor="middle" x="411" y="-298.5" font-family="Helvetica,sans-Serif" font-size="10.00">core/param/module_param.h</text>
</a>
</g>
</g>
<!-- Node5&#45;&gt;Node11 -->
<g id="edge11" class="edge"><title>Node5&#45;&gt;Node11</title>
<path fill="none" stroke="midnightblue" d="M529.658,-347.444C506.247,-338.478 469.264,-324.314 442.81,-314.183"/>
<polygon fill="midnightblue" stroke="midnightblue" points="443.828,-310.824 433.237,-310.516 441.324,-317.361 443.828,-310.824"/>
</g>
<!-- Node12 -->
<g id="node12" class="node"><title>Node12</title>
<g id="a_node12"><a xlink:href="root_8h.html" target="_top" xlink:title="core/util/root.h">
<polygon fill="white" stroke="black" points="804,-168.5 804,-187.5 890,-187.5 890,-168.5 804,-168.5"/>
<text text-anchor="middle" x="847" y="-175.5" font-family="Helvetica,sans-Serif" font-size="10.00">core/util/root.h</text>
</a>
</g>
</g>
<!-- Node5&#45;&gt;Node12 -->
<g id="edge22" class="edge"><title>Node5&#45;&gt;Node12</title>
<path fill="none" stroke="midnightblue" d="M610.121,-352.867C676.73,-348.099 780.4,-336.693 809,-311 841.431,-281.865 846.921,-227.027 847.41,-198.053"/>
<polygon fill="midnightblue" stroke="midnightblue" points="850.909,-197.677 847.385,-187.685 843.909,-197.694 850.909,-197.677"/>
</g>
<!-- Node18 -->
<g id="node18" class="node"><title>Node18</title>
<polygon fill="white" stroke="#bfbfbf" points="332.5,-230 332.5,-249 439.5,-249 439.5,-230 332.5,-230"/>
<text text-anchor="middle" x="386" y="-237" font-family="Helvetica,sans-Serif" font-size="10.00">cpptoml/cpptoml.h</text>
</g>
<!-- Node5&#45;&gt;Node18 -->
<g id="edge28" class="edge"><title>Node5&#45;&gt;Node18</title>
<path fill="none" stroke="midnightblue" d="M493.982,-353.282C393.07,-347.956 193.93,-334.562 173,-311 127.695,-259.997 244.069,-245.783 322.108,-241.892"/>
<polygon fill="midnightblue" stroke="midnightblue" points="322.538,-245.376 332.37,-241.428 322.222,-238.384 322.538,-245.376"/>
</g>
<!-- Node19 -->
<g id="node19" class="node"><title>Node19</title>
<g id="a_node19"><a xlink:href="type_8h.html" target="_top" xlink:title="core/util/type.h">
<polygon fill="white" stroke="black" points="508,-291.5 508,-310.5 596,-310.5 596,-291.5 508,-291.5"/>
<text text-anchor="middle" x="552" y="-298.5" font-family="Helvetica,sans-Serif" font-size="10.00">core/util/type.h</text>
</a>
</g>
</g>
<!-- Node5&#45;&gt;Node19 -->
<g id="edge23" class="edge"><title>Node5&#45;&gt;Node19</title>
<path fill="none" stroke="midnightblue" d="M552,-347.083C552,-340.006 552,-329.861 552,-320.986"/>
<polygon fill="midnightblue" stroke="midnightblue" points="555.5,-320.751 552,-310.751 548.5,-320.751 555.5,-320.751"/>
</g>
<!-- Node11&#45;&gt;Node12 -->
<g id="edge12" class="edge"><title>Node11&#45;&gt;Node12</title>
<path fill="none" stroke="midnightblue" d="M420.518,-291.422C439.086,-275.229 482.09,-240.319 525,-224 615.144,-189.716 728.395,-181.151 793.754,-179.245"/>
<polygon fill="midnightblue" stroke="midnightblue" points="793.912,-182.742 803.822,-178.994 793.737,-175.745 793.912,-182.742"/>
</g>
<!-- Node11&#45;&gt;Node18 -->
<g id="edge21" class="edge"><title>Node11&#45;&gt;Node18</title>
<path fill="none" stroke="midnightblue" d="M407.418,-291.475C403.817,-282.904 398.154,-269.427 393.556,-258.483"/>
<polygon fill="midnightblue" stroke="midnightblue" points="396.676,-256.873 389.575,-249.009 390.222,-259.584 396.676,-256.873"/>
</g>
<!-- Node13 -->
<g id="node13" class="node"><title>Node13</title>
<g id="a_node13"><a xlink:href="log_8h.html" target="_top" xlink:title="core/util/log.h">
<polygon fill="white" stroke="black" points="612.5,-112.5 612.5,-131.5 693.5,-131.5 693.5,-112.5 612.5,-112.5"/>
<text text-anchor="middle" x="653" y="-119.5" font-family="Helvetica,sans-Serif" font-size="10.00">core/util/log.h</text>
</a>
</g>
</g>
<!-- Node12&#45;&gt;Node13 -->
<g id="edge13" class="edge"><title>Node12&#45;&gt;Node13</title>
<path fill="none" stroke="midnightblue" d="M816.26,-168.444C783.056,-159.201 730.009,-144.436 693.443,-134.257"/>
<polygon fill="midnightblue" stroke="midnightblue" points="694.168,-130.826 683.596,-131.516 692.291,-137.57 694.168,-130.826"/>
</g>
<!-- Node13&#45;&gt;Node3 -->
<g id="edge16" class="edge"><title>Node13&#45;&gt;Node3</title>
<path fill="none" stroke="midnightblue" d="M612.911,-112.444C565.401,-102.303 486.741,-85.5138 439.493,-75.4293"/>
<polygon fill="midnightblue" stroke="midnightblue" points="440.135,-71.9875 429.624,-73.323 438.673,-78.8333 440.135,-71.9875"/>
</g>
<!-- Node13&#45;&gt;Node4 -->
<g id="edge17" class="edge"><title>Node13&#45;&gt;Node4</title>
<path fill="none" stroke="midnightblue" d="M655.869,-112.498C659.677,-99.9981 665.433,-75.98 661,-56 658.876,-46.426 654.493,-36.4756 650.279,-28.3735"/>
<polygon fill="midnightblue" stroke="midnightblue" points="653.298,-26.6012 645.384,-19.557 647.178,-29.9989 653.298,-26.6012"/>
</g>
<!-- Node14 -->
<g id="node14" class="node"><title>Node14</title>
<polygon fill="white" stroke="#bfbfbf" points="598.5,-56.5 598.5,-75.5 651.5,-75.5 651.5,-56.5 598.5,-56.5"/>
<text text-anchor="middle" x="625" y="-63.5" font-family="Helvetica,sans-Serif" font-size="10.00">TError.h</text>
</g>
<!-- Node13&#45;&gt;Node14 -->
<g id="edge14" class="edge"><title>Node13&#45;&gt;Node14</title>
<path fill="none" stroke="midnightblue" d="M648.376,-112.083C644.544,-104.691 638.976,-93.9533 634.235,-84.8111"/>
<polygon fill="midnightblue" stroke="midnightblue" points="637.248,-83.0175 629.538,-75.7511 631.034,-86.2398 637.248,-83.0175"/>
</g>
<!-- Node15 -->
<g id="node15" class="node"><title>Node15</title>
<polygon fill="white" stroke="#bfbfbf" points="774.5,-56.5 774.5,-75.5 819.5,-75.5 819.5,-56.5 774.5,-56.5"/>
<text text-anchor="middle" x="797" y="-63.5" font-family="Helvetica,sans-Serif" font-size="10.00">cstdio</text>
</g>
<!-- Node13&#45;&gt;Node15 -->
<g id="edge15" class="edge"><title>Node13&#45;&gt;Node15</title>
<path fill="none" stroke="midnightblue" d="M675.817,-112.444C699.832,-103.438 737.829,-89.1891 764.869,-79.049"/>
<polygon fill="midnightblue" stroke="midnightblue" points="766.155,-82.3049 774.29,-75.5164 763.697,-75.7506 766.155,-82.3049"/>
</g>
<!-- Node16 -->
<g id="node16" class="node"><title>Node16</title>
<g id="a_node16"><a xlink:href="string_8h.html" target="_top" xlink:title="core/util/string.h">
<polygon fill="white" stroke="black" points="486,-56.5 486,-75.5 580,-75.5 580,-56.5 486,-56.5"/>
<text text-anchor="middle" x="533" y="-63.5" font-family="Helvetica,sans-Serif" font-size="10.00">core/util/string.h</text>
</a>
</g>
</g>
<!-- Node13&#45;&gt;Node16 -->
<g id="edge18" class="edge"><title>Node13&#45;&gt;Node16</title>
<path fill="none" stroke="midnightblue" d="M633.986,-112.444C614.412,-103.636 583.692,-89.8116 561.271,-79.722"/>
<polygon fill="midnightblue" stroke="midnightblue" points="562.481,-76.4284 551.925,-75.5164 559.608,-82.8119 562.481,-76.4284"/>
</g>
<!-- Node16&#45;&gt;Node4 -->
<g id="edge20" class="edge"><title>Node16&#45;&gt;Node4</title>
<path fill="none" stroke="midnightblue" d="M550.191,-56.324C567.351,-47.6641 593.946,-34.2424 613.747,-24.249"/>
<polygon fill="midnightblue" stroke="midnightblue" points="615.501,-27.2847 622.851,-19.6545 612.347,-21.0354 615.501,-27.2847"/>
</g>
<!-- Node17 -->
<g id="node17" class="node"><title>Node17</title>
<polygon fill="white" stroke="#bfbfbf" points="505,-0.5 505,-19.5 561,-19.5 561,-0.5 505,-0.5"/>
<text text-anchor="middle" x="533" y="-7.5" font-family="Helvetica,sans-Serif" font-size="10.00">sstream</text>
</g>
<!-- Node16&#45;&gt;Node17 -->
<g id="edge19" class="edge"><title>Node16&#45;&gt;Node17</title>
<path fill="none" stroke="midnightblue" d="M533,-56.083C533,-49.0059 533,-38.8611 533,-29.9865"/>
<polygon fill="midnightblue" stroke="midnightblue" points="536.5,-29.751 533,-19.7511 529.5,-29.7511 536.5,-29.751"/>
</g>
<!-- Node19&#45;&gt;Node16 -->
<g id="edge27" class="edge"><title>Node19&#45;&gt;Node16</title>
<path fill="none" stroke="midnightblue" d="M544.849,-291.364C538.227,-282.763 528.843,-268.873 525,-255 508.391,-195.035 520.925,-120.23 528.431,-85.8621"/>
<polygon fill="midnightblue" stroke="midnightblue" points="531.906,-86.3668 530.734,-75.837 525.084,-84.7994 531.906,-86.3668"/>
</g>
<!-- Node20 -->
<g id="node20" class="node"><title>Node20</title>
<polygon fill="white" stroke="#bfbfbf" points="534,-230 534,-249 602,-249 602,-230 534,-230"/>
<text text-anchor="middle" x="568" y="-237" font-family="Helvetica,sans-Serif" font-size="10.00">type_traits</text>
</g>
<!-- Node19&#45;&gt;Node20 -->
<g id="edge24" class="edge"><title>Node19&#45;&gt;Node20</title>
<path fill="none" stroke="midnightblue" d="M554.292,-291.475C556.574,-282.992 560.147,-269.704 563.073,-258.822"/>
<polygon fill="midnightblue" stroke="midnightblue" points="566.495,-259.575 565.712,-249.009 559.735,-257.757 566.495,-259.575"/>
</g>
<!-- Node21 -->
<g id="node21" class="node"><title>Node21</title>
<polygon fill="white" stroke="#bfbfbf" points="620.5,-230 620.5,-249 675.5,-249 675.5,-230 620.5,-230"/>
<text text-anchor="middle" x="648" y="-237" font-family="Helvetica,sans-Serif" font-size="10.00">typeinfo</text>
</g>
<!-- Node19&#45;&gt;Node21 -->
<g id="edge25" class="edge"><title>Node19&#45;&gt;Node21</title>
<path fill="none" stroke="midnightblue" d="M565.754,-291.475C581.366,-281.799 607.063,-265.872 625.583,-254.394"/>
<polygon fill="midnightblue" stroke="midnightblue" points="627.615,-257.252 634.271,-249.009 623.927,-251.302 627.615,-257.252"/>
</g>
<!-- Node22 -->
<g id="node22" class="node"><title>Node22</title>
<g id="a_node22"><a xlink:href="shape_8h.html" target="_top" xlink:title="core/shape.h">
<polygon fill="white" stroke="black" points="693.5,-230 693.5,-249 772.5,-249 772.5,-230 693.5,-230"/>
<text text-anchor="middle" x="733" y="-237" font-family="Helvetica,sans-Serif" font-size="10.00">core/shape.h</text>
</a>
</g>
</g>
<!-- Node19&#45;&gt;Node22 -->
<g id="edge26" class="edge"><title>Node19&#45;&gt;Node22</title>
<path fill="none" stroke="midnightblue" d="M577.933,-291.475C609.25,-281.18 662.09,-263.81 697.256,-252.25"/>
<polygon fill="midnightblue" stroke="midnightblue" points="698.708,-255.457 707.115,-249.009 696.522,-248.807 698.708,-255.457"/>
</g>
<!-- Node23&#45;&gt;Node4 -->
<g id="edge31" class="edge"><title>Node23&#45;&gt;Node4</title>
<path fill="none" stroke="midnightblue" d="M958.493,-347.452C961.022,-338.458 964.857,-323.852 967,-311 976.688,-252.893 979,-237.909 979,-179 979,-179 979,-179 979,-121 979,-56.9159 757.052,-24.5198 672.332,-14.4882"/>
<polygon fill="midnightblue" stroke="midnightblue" points="672.578,-10.9934 662.243,-13.323 671.775,-17.9472 672.578,-10.9934"/>
</g>
<!-- Node23&#45;&gt;Node10 -->
<g id="edge32" class="edge"><title>Node23&#45;&gt;Node10</title>
<path fill="none" stroke="midnightblue" d="M969.175,-347.324C981.847,-338.979 1001.23,-326.212 1016.21,-316.352"/>
<polygon fill="midnightblue" stroke="midnightblue" points="1018.43,-319.078 1024.86,-310.655 1014.58,-313.231 1018.43,-319.078"/>
</g>
<!-- Node23&#45;&gt;Node12 -->
<g id="edge47" class="edge"><title>Node23&#45;&gt;Node12</title>
<path fill="none" stroke="midnightblue" d="M935.02,-347.409C919.355,-339.971 898.567,-327.761 886,-311 860.161,-276.539 851.374,-225.166 848.436,-197.781"/>
<polygon fill="midnightblue" stroke="midnightblue" points="851.904,-197.269 847.503,-187.632 844.933,-197.911 851.904,-197.269"/>
</g>
<!-- Node24 -->
<g id="node24" class="node"><title>Node24</title>
<polygon fill="white" stroke="#bfbfbf" points="894.5,-291.5 894.5,-310.5 957.5,-310.5 957.5,-291.5 894.5,-291.5"/>
<text text-anchor="middle" x="926" y="-298.5" font-family="Helvetica,sans-Serif" font-size="10.00">functional</text>
</g>
<!-- Node23&#45;&gt;Node24 -->
<g id="edge30" class="edge"><title>Node23&#45;&gt;Node24</title>
<path fill="none" stroke="midnightblue" d="M951.046,-347.083C946.896,-339.613 940.847,-328.724 935.733,-319.52"/>
<polygon fill="midnightblue" stroke="midnightblue" points="938.778,-317.793 930.862,-310.751 932.659,-321.192 938.778,-317.793"/>
</g>
<!-- Node25 -->
<g id="node25" class="node"><title>Node25</title>
<g id="a_node25"><a xlink:href="random_8h.html" target="_top" xlink:title="core/util/random.h">
<polygon fill="white" stroke="black" points="1080,-291.5 1080,-310.5 1184,-310.5 1184,-291.5 1080,-291.5"/>
<text text-anchor="middle" x="1132" y="-298.5" font-family="Helvetica,sans-Serif" font-size="10.00">core/util/random.h</text>
</a>
</g>
</g>
<!-- Node23&#45;&gt;Node25 -->
<g id="edge33" class="edge"><title>Node23&#45;&gt;Node25</title>
<path fill="none" stroke="midnightblue" d="M983.888,-347.444C1013.75,-338.28 1061.31,-323.688 1094.46,-313.519"/>
<polygon fill="midnightblue" stroke="midnightblue" points="1095.71,-316.796 1104.24,-310.516 1093.66,-310.104 1095.71,-316.796"/>
</g>
<!-- Node25&#45;&gt;Node12 -->
<g id="edge46" class="edge"><title>Node25&#45;&gt;Node12</title>
<path fill="none" stroke="midnightblue" d="M1104.47,-291.437C1078.11,-282.995 1037.38,-269.312 1003,-255 955.819,-235.358 902.665,-208.375 872.173,-192.405"/>
<polygon fill="midnightblue" stroke="midnightblue" points="873.584,-189.193 863.105,-187.631 870.323,-195.387 873.584,-189.193"/>
</g>
<!-- Node25&#45;&gt;Node15 -->
<g id="edge35" class="edge"><title>Node25&#45;&gt;Node15</title>
<path fill="none" stroke="midnightblue" d="M1110.54,-291.456C1090.81,-283.229 1061.06,-269.868 1037,-255 947.417,-199.652 852.12,-116.784 814.096,-82.6007"/>
<polygon fill="midnightblue" stroke="midnightblue" points="816.244,-79.8241 806.479,-75.7131 811.549,-85.0162 816.244,-79.8241"/>
</g>
<!-- Node26 -->
<g id="node26" class="node"><title>Node26</title>
<polygon fill="white" stroke="#bfbfbf" points="1140.5,-230 1140.5,-249 1181.5,-249 1181.5,-230 1140.5,-230"/>
<text text-anchor="middle" x="1161" y="-237" font-family="Helvetica,sans-Serif" font-size="10.00">array</text>
</g>
<!-- Node25&#45;&gt;Node26 -->
<g id="edge34" class="edge"><title>Node25&#45;&gt;Node26</title>
<path fill="none" stroke="midnightblue" d="M1136.15,-291.475C1140.38,-282.815 1147.04,-269.149 1152.4,-258.145"/>
<polygon fill="midnightblue" stroke="midnightblue" points="1155.62,-259.532 1156.85,-249.009 1149.33,-256.465 1155.62,-259.532"/>
</g>
<!-- Node27 -->
<g id="node27" class="node"><title>Node27</title>
<polygon fill="white" stroke="#bfbfbf" points="1045.5,-230 1045.5,-249 1122.5,-249 1122.5,-230 1045.5,-230"/>
<text text-anchor="middle" x="1084" y="-237" font-family="Helvetica,sans-Serif" font-size="10.00">TRandom3.h</text>
</g>
<!-- Node25&#45;&gt;Node27 -->
<g id="edge36" class="edge"><title>Node25&#45;&gt;Node27</title>
<path fill="none" stroke="midnightblue" d="M1125.12,-291.475C1117.85,-282.462 1106.2,-268.025 1097.16,-256.812"/>
<polygon fill="midnightblue" stroke="midnightblue" points="1099.87,-254.595 1090.86,-249.009 1094.42,-258.99 1099.87,-254.595"/>
</g>
<!-- Node28 -->
<g id="node28" class="node"><title>Node28</title>
<g id="a_node28"><a xlink:href="math__array_8h.html" target="_top" xlink:title="core/container/math\l_array.h">
<polygon fill="white" stroke="black" points="1238,-224.5 1238,-254.5 1352,-254.5 1352,-224.5 1238,-224.5"/>
<text text-anchor="start" x="1246" y="-242.5" font-family="Helvetica,sans-Serif" font-size="10.00">core/container/math</text>
<text text-anchor="middle" x="1295" y="-231.5" font-family="Helvetica,sans-Serif" font-size="10.00">_array.h</text>
</a>
</g>
</g>
<!-- Node25&#45;&gt;Node28 -->
<g id="edge37" class="edge"><title>Node25&#45;&gt;Node28</title>
<path fill="none" stroke="midnightblue" d="M1155.35,-291.475C1179.18,-282.776 1216.85,-269.026 1247.06,-257.998"/>
<polygon fill="midnightblue" stroke="midnightblue" points="1248.39,-261.24 1256.58,-254.523 1245.99,-254.664 1248.39,-261.24"/>
</g>
<!-- Node28&#45;&gt;Node12 -->
<g id="edge45" class="edge"><title>Node28&#45;&gt;Node12</title>
<path fill="none" stroke="midnightblue" d="M1237.79,-230.436C1222.59,-228.316 1206.18,-226.05 1191,-224 1088.1,-210.096 967.781,-194.511 900.174,-185.814"/>
<polygon fill="midnightblue" stroke="midnightblue" points="900.553,-182.334 890.188,-184.531 899.66,-189.277 900.553,-182.334"/>
</g>
<!-- Node29 -->
<g id="node29" class="node"><title>Node29</title>
<polygon fill="white" stroke="#bfbfbf" points="1333,-168.5 1333,-187.5 1395,-187.5 1395,-168.5 1333,-168.5"/>
<text text-anchor="middle" x="1364" y="-175.5" font-family="Helvetica,sans-Serif" font-size="10.00">algorithm</text>
</g>
<!-- Node28&#45;&gt;Node29 -->
<g id="edge38" class="edge"><title>Node28&#45;&gt;Node29</title>
<path fill="none" stroke="midnightblue" d="M1311.35,-224.399C1321.9,-215.308 1335.6,-203.49 1346.38,-194.191"/>
<polygon fill="midnightblue" stroke="midnightblue" points="1348.67,-196.839 1353.96,-187.658 1344.1,-191.538 1348.67,-196.839"/>
</g>
<!-- Node30 -->
<g id="node30" class="node"><title>Node30</title>
<polygon fill="white" stroke="#bfbfbf" points="1121,-168.5 1121,-187.5 1173,-187.5 1173,-168.5 1121,-168.5"/>
<text text-anchor="middle" x="1147" y="-175.5" font-family="Helvetica,sans-Serif" font-size="10.00">cassert</text>
</g>
<!-- Node28&#45;&gt;Node30 -->
<g id="edge39" class="edge"><title>Node28&#45;&gt;Node30</title>
<path fill="none" stroke="midnightblue" d="M1259.93,-224.399C1234.98,-214.372 1201.79,-201.028 1177.86,-191.405"/>
<polygon fill="midnightblue" stroke="midnightblue" points="1179.12,-188.141 1168.54,-187.658 1176.51,-194.635 1179.12,-188.141"/>
</g>
<!-- Node31 -->
<g id="node31" class="node"><title>Node31</title>
<polygon fill="white" stroke="#bfbfbf" points="1413.5,-168.5 1413.5,-187.5 1460.5,-187.5 1460.5,-168.5 1413.5,-168.5"/>
<text text-anchor="middle" x="1437" y="-175.5" font-family="Helvetica,sans-Serif" font-size="10.00">cmath</text>
</g>
<!-- Node28&#45;&gt;Node31 -->
<g id="edge40" class="edge"><title>Node28&#45;&gt;Node31</title>
<path fill="none" stroke="midnightblue" d="M1328.65,-224.399C1352.48,-214.416 1384.15,-201.147 1407.09,-191.534"/>
<polygon fill="midnightblue" stroke="midnightblue" points="1408.47,-194.751 1416.34,-187.658 1405.76,-188.294 1408.47,-194.751"/>
</g>
<!-- Node32 -->
<g id="node32" class="node"><title>Node32</title>
<polygon fill="white" stroke="#bfbfbf" points="1479,-168.5 1479,-187.5 1535,-187.5 1535,-168.5 1479,-168.5"/>
<text text-anchor="middle" x="1507" y="-175.5" font-family="Helvetica,sans-Serif" font-size="10.00">numeric</text>
</g>
<!-- Node28&#45;&gt;Node32 -->
<g id="edge41" class="edge"><title>Node28&#45;&gt;Node32</title>
<path fill="none" stroke="midnightblue" d="M1344.97,-224.475C1382.97,-213.812 1434.43,-199.366 1469.08,-189.642"/>
<polygon fill="midnightblue" stroke="midnightblue" points="1470.14,-192.981 1478.82,-186.909 1468.25,-186.241 1470.14,-192.981"/>
</g>
<!-- Node33 -->
<g id="node33" class="node"><title>Node33</title>
<polygon fill="white" stroke="#bfbfbf" points="1045.5,-168.5 1045.5,-187.5 1102.5,-187.5 1102.5,-168.5 1045.5,-168.5"/>
<text text-anchor="middle" x="1074" y="-175.5" font-family="Helvetica,sans-Serif" font-size="10.00">ostream</text>
</g>
<!-- Node28&#45;&gt;Node33 -->
<g id="edge42" class="edge"><title>Node28&#45;&gt;Node33</title>
<path fill="none" stroke="midnightblue" d="M1242.91,-224.475C1202.9,-213.703 1148.55,-199.072 1112.43,-189.347"/>
<polygon fill="midnightblue" stroke="midnightblue" points="1113.32,-185.961 1102.75,-186.741 1111.5,-192.721 1113.32,-185.961"/>
</g>
<!-- Node34 -->
<g id="node34" class="node"><title>Node34</title>
<polygon fill="white" stroke="#bfbfbf" points="1191,-168.5 1191,-187.5 1255,-187.5 1255,-168.5 1191,-168.5"/>
<text text-anchor="middle" x="1223" y="-175.5" font-family="Helvetica,sans-Serif" font-size="10.00">stdexcept</text>
</g>
<!-- Node28&#45;&gt;Node34 -->
<g id="edge43" class="edge"><title>Node28&#45;&gt;Node34</title>
<path fill="none" stroke="midnightblue" d="M1277.94,-224.399C1266.94,-215.308 1252.63,-203.49 1241.38,-194.191"/>
<polygon fill="midnightblue" stroke="midnightblue" points="1243.41,-191.33 1233.48,-187.658 1238.96,-196.726 1243.41,-191.33"/>
</g>
<!-- Node35 -->
<g id="node35" class="node"><title>Node35</title>
<polygon fill="white" stroke="#bfbfbf" points="1273,-168.5 1273,-187.5 1315,-187.5 1315,-168.5 1273,-168.5"/>
<text text-anchor="middle" x="1294" y="-175.5" font-family="Helvetica,sans-Serif" font-size="10.00">utility</text>
</g>
<!-- Node28&#45;&gt;Node35 -->
<g id="edge44" class="edge"><title>Node28&#45;&gt;Node35</title>
<path fill="none" stroke="midnightblue" d="M1294.76,-224.399C1294.63,-216.466 1294.46,-206.458 1294.32,-197.858"/>
<polygon fill="midnightblue" stroke="midnightblue" points="1297.81,-197.598 1294.15,-187.658 1290.81,-197.715 1297.81,-197.598"/>
</g>
<!-- Node36&#45;&gt;Node4 -->
<g id="edge51" class="edge"><title>Node36&#45;&gt;Node4</title>
<path fill="none" stroke="midnightblue" d="M1266.95,-404.929C1376.56,-392.796 1563,-363.166 1563,-302 1563,-302 1563,-302 1563,-121 1563,-29.4051 837.059,-13.7567 672.777,-11.3882"/>
<polygon fill="midnightblue" stroke="midnightblue" points="672.406,-7.88288 662.359,-11.2452 672.31,-14.8822 672.406,-7.88288"/>
</g>
<!-- Node36&#45;&gt;Node10 -->
<g id="edge52" class="edge"><title>Node36&#45;&gt;Node10</title>
<path fill="none" stroke="midnightblue" d="M1177.15,-403.368C1151.35,-384.573 1089.85,-339.768 1057.95,-316.533"/>
<polygon fill="midnightblue" stroke="midnightblue" points="1059.94,-313.651 1049.79,-310.591 1055.82,-319.309 1059.94,-313.651"/>
</g>
<!-- Node36&#45;&gt;Node33 -->
<g id="edge50" class="edge"><title>Node36&#45;&gt;Node33</title>
<path fill="none" stroke="midnightblue" d="M1192.26,-403.483C1202.59,-374.941 1231.59,-281.249 1191,-224 1181.53,-210.641 1142.76,-197.438 1112.42,-188.824"/>
<polygon fill="midnightblue" stroke="midnightblue" points="1113.07,-185.374 1102.5,-186.085 1111.21,-192.121 1113.07,-185.374"/>
</g>
<!-- Node37 -->
<g id="node37" class="node"><title>Node37</title>
<polygon fill="white" stroke="#bfbfbf" points="1146,-347.5 1146,-366.5 1184,-366.5 1184,-347.5 1146,-347.5"/>
<text text-anchor="middle" x="1165" y="-354.5" font-family="Helvetica,sans-Serif" font-size="10.00">map</text>
</g>
<!-- Node36&#45;&gt;Node37 -->
<g id="edge49" class="edge"><title>Node36&#45;&gt;Node37</title>
<path fill="none" stroke="midnightblue" d="M1185.04,-403.083C1181.79,-395.77 1177.08,-385.181 1173.05,-376.103"/>
<polygon fill="midnightblue" stroke="midnightblue" points="1176.15,-374.468 1168.89,-366.751 1169.75,-377.311 1176.15,-374.468"/>
</g>
<!-- Node38 -->
<g id="node38" class="node"><title>Node38</title>
<g id="a_node38"><a xlink:href="math_8h.html" target="_top" xlink:title="core/util/math.h">
<polygon fill="white" stroke="black" points="1241,-347.5 1241,-366.5 1333,-366.5 1333,-347.5 1241,-347.5"/>
<text text-anchor="middle" x="1287" y="-354.5" font-family="Helvetica,sans-Serif" font-size="10.00">core/util/math.h</text>
</a>
</g>
</g>
<!-- Node36&#45;&gt;Node38 -->
<g id="edge53" class="edge"><title>Node36&#45;&gt;Node38</title>
<path fill="none" stroke="midnightblue" d="M1204.75,-403.324C1220.32,-394.743 1244.38,-381.486 1262.46,-371.522"/>
<polygon fill="midnightblue" stroke="midnightblue" points="1264.22,-374.546 1271.29,-366.655 1260.85,-368.415 1264.22,-374.546"/>
</g>
<!-- Node38&#45;&gt;Node10 -->
<g id="edge57" class="edge"><title>Node38&#45;&gt;Node10</title>
<path fill="none" stroke="midnightblue" d="M1242.14,-347.482C1200.47,-339.384 1136.48,-326.478 1071.72,-311.057"/>
<polygon fill="midnightblue" stroke="midnightblue" points="1072.29,-307.593 1061.75,-308.662 1070.66,-314.4 1072.29,-307.593"/>
</g>
<!-- Node38&#45;&gt;Node25 -->
<g id="edge60" class="edge"><title>Node38&#45;&gt;Node25</title>
<path fill="none" stroke="midnightblue" d="M1262.44,-347.444C1236.48,-338.399 1195.33,-324.064 1166.2,-313.916"/>
<polygon fill="midnightblue" stroke="midnightblue" points="1167.04,-310.501 1156.45,-310.516 1164.74,-317.112 1167.04,-310.501"/>
</g>
<!-- Node38&#45;&gt;Node26 -->
<g id="edge54" class="edge"><title>Node38&#45;&gt;Node26</title>
<path fill="none" stroke="midnightblue" d="M1277.53,-347.319C1256.37,-327.921 1205,-280.831 1178.09,-256.162"/>
<polygon fill="midnightblue" stroke="midnightblue" points="1180.32,-253.459 1170.58,-249.282 1175.59,-258.619 1180.32,-253.459"/>
</g>
<!-- Node38&#45;&gt;Node28 -->
<g id="edge59" class="edge"><title>Node38&#45;&gt;Node28</title>
<path fill="none" stroke="midnightblue" d="M1287.6,-347.319C1288.8,-329.967 1291.54,-290.457 1293.33,-264.658"/>
<polygon fill="midnightblue" stroke="midnightblue" points="1296.83,-264.763 1294.03,-254.545 1289.84,-264.28 1296.83,-264.763"/>
</g>
<!-- Node38&#45;&gt;Node31 -->
<g id="edge55" class="edge"><title>Node38&#45;&gt;Node31</title>
<path fill="none" stroke="midnightblue" d="M1294.23,-347.463C1317.64,-319.845 1391.59,-232.584 1422.84,-195.709"/>
<polygon fill="midnightblue" stroke="midnightblue" points="1425.69,-197.76 1429.48,-187.868 1420.35,-193.235 1425.69,-197.76"/>
</g>
<!-- Node38&#45;&gt;Node32 -->
<g id="edge56" class="edge"><title>Node38&#45;&gt;Node32</title>
<path fill="none" stroke="midnightblue" d="M1333.4,-350.277C1381.85,-343.371 1453.48,-330.238 1473,-311 1503.82,-280.635 1507.96,-226.324 1507.81,-197.752"/>
<polygon fill="midnightblue" stroke="midnightblue" points="1511.3,-197.45 1507.56,-187.538 1504.3,-197.62 1511.3,-197.45"/>
</g>
<!-- Node39 -->
<g id="node39" class="node"><title>Node39</title>
<polygon fill="white" stroke="#bfbfbf" points="1408.5,-291.5 1408.5,-310.5 1463.5,-310.5 1463.5,-291.5 1408.5,-291.5"/>
<text text-anchor="middle" x="1436" y="-298.5" font-family="Helvetica,sans-Serif" font-size="10.00">TMath.h</text>
</g>
<!-- Node38&#45;&gt;Node39 -->
<g id="edge58" class="edge"><title>Node38&#45;&gt;Node39</title>
<path fill="none" stroke="midnightblue" d="M1310.61,-347.444C1335.46,-338.438 1374.77,-324.189 1402.75,-314.049"/>
<polygon fill="midnightblue" stroke="midnightblue" points="1404.29,-317.214 1412.5,-310.516 1401.91,-310.633 1404.29,-317.214"/>
</g>
</g>
</svg>
