<?xml version="1.0" encoding="UTF-8" standalone="no"?>
<!DOCTYPE svg PUBLIC "-//W3C//DTD SVG 1.1//EN"
 "http://www.w3.org/Graphics/SVG/1.1/DTD/svg11.dtd">
<!-- Generated by graphviz version 2.36.0 (20140111.2315)
 -->
<!-- Title: transactional_vector.h Pages: 1 -->
<svg width="1398pt" height="524pt"
 viewBox="0.00 0.00 1398.00 524.00" xmlns="http://www.w3.org/2000/svg" xmlns:xlink="http://www.w3.org/1999/xlink">
<g id="graph0" class="graph" transform="scale(1 1) rotate(0) translate(4 520)">
<title>transactional_vector.h</title>
<polygon fill="white" stroke="none" points="-4,4 -4,-520 1394,-520 1394,4 -4,4"/>
<!-- Node1 -->
<g id="node1" class="node"><title>Node1</title>
<polygon fill="#bfbfbf" stroke="black" points="297.5,-496.5 297.5,-515.5 410.5,-515.5 410.5,-496.5 297.5,-496.5"/>
<text text-anchor="middle" x="354" y="-503.5" font-family="Helvetica,sans-Serif" font-size="10.00">transactional_vector.h</text>
</g>
<!-- Node2 -->
<g id="node2" class="node"><title>Node2</title>
<g id="a_node2"><a xlink:href="backend_8h.html" target="_top" xlink:title="backend.h">
<polygon fill="white" stroke="black" points="323,-440.5 323,-459.5 385,-459.5 385,-440.5 323,-440.5"/>
<text text-anchor="middle" x="354" y="-447.5" font-family="Helvetica,sans-Serif" font-size="10.00">backend.h</text>
</a>
</g>
</g>
<!-- Node1&#45;&gt;Node2 -->
<g id="edge1" class="edge"><title>Node1&#45;&gt;Node2</title>
<path fill="none" stroke="midnightblue" d="M354,-485.805C354,-476.91 354,-466.78 354,-459.751"/>
<polygon fill="midnightblue" stroke="midnightblue" points="350.5,-486.083 354,-496.083 357.5,-486.083 350.5,-486.083"/>
</g>
<!-- Node3 -->
<g id="node3" class="node"><title>Node3</title>
<g id="a_node3"><a xlink:href="type__util_8h.html" target="_top" xlink:title="type_util.h">
<polygon fill="white" stroke="black" points="382,-384.5 382,-403.5 444,-403.5 444,-384.5 382,-384.5"/>
<text text-anchor="middle" x="413" y="-391.5" font-family="Helvetica,sans-Serif" font-size="10.00">type_util.h</text>
</a>
</g>
</g>
<!-- Node2&#45;&gt;Node3 -->
<g id="edge2" class="edge"><title>Node2&#45;&gt;Node3</title>
<path fill="none" stroke="midnightblue" d="M370.895,-433.537C381.415,-423.909 394.569,-411.869 403.348,-403.834"/>
<polygon fill="midnightblue" stroke="midnightblue" points="368.493,-430.99 363.479,-440.324 373.219,-436.154 368.493,-430.99"/>
</g>
<!-- Node8 -->
<g id="node8" class="node"><title>Node8</title>
<g id="a_node8"><a xlink:href="cell_8h.html" target="_top" xlink:title="cell.h">
<polygon fill="white" stroke="black" points="294,-198.5 294,-217.5 334,-217.5 334,-198.5 294,-198.5"/>
<text text-anchor="middle" x="314" y="-205.5" font-family="Helvetica,sans-Serif" font-size="10.00">cell.h</text>
</a>
</g>
</g>
<!-- Node2&#45;&gt;Node8 -->
<g id="edge32" class="edge"><title>Node2&#45;&gt;Node8</title>
<path fill="none" stroke="midnightblue" d="M350.948,-430.438C347.039,-406.688 340.047,-364.278 334,-328 327.111,-286.671 318.779,-237.287 315.464,-217.659"/>
<polygon fill="midnightblue" stroke="midnightblue" points="347.525,-431.191 352.602,-440.49 354.432,-430.055 347.525,-431.191"/>
</g>
<!-- Node9 -->
<g id="node9" class="node"><title>Node9</title>
<g id="a_node9"><a xlink:href="compile__time__param_8h.html" target="_top" xlink:title="compile_time_param.h">
<polygon fill="white" stroke="black" points="520.5,-130.5 520.5,-149.5 635.5,-149.5 635.5,-130.5 520.5,-130.5"/>
<text text-anchor="middle" x="578" y="-137.5" font-family="Helvetica,sans-Serif" font-size="10.00">compile_time_param.h</text>
</a>
</g>
</g>
<!-- Node2&#45;&gt;Node9 -->
<g id="edge64" class="edge"><title>Node2&#45;&gt;Node9</title>
<path fill="none" stroke="midnightblue" d="M395.124,-447.373C461.281,-442.312 584,-421.769 584,-339 584,-339 584,-339 584,-275 584,-227.727 580.227,-171.167 578.665,-149.774"/>
<polygon fill="midnightblue" stroke="midnightblue" points="394.759,-443.89 385.019,-448.06 395.233,-450.874 394.759,-443.89"/>
</g>
<!-- Node14 -->
<g id="node14" class="node"><title>Node14</title>
<g id="a_node14"><a xlink:href="simulation__object__util_8h.html" target="_top" xlink:title="simulation_object_util.h">
<polygon fill="white" stroke="black" points="206.5,-328.5 206.5,-347.5 325.5,-347.5 325.5,-328.5 206.5,-328.5"/>
<text text-anchor="middle" x="266" y="-335.5" font-family="Helvetica,sans-Serif" font-size="10.00">simulation_object_util.h</text>
</a>
</g>
</g>
<!-- Node2&#45;&gt;Node14 -->
<g id="edge37" class="edge"><title>Node2&#45;&gt;Node14</title>
<path fill="none" stroke="midnightblue" d="M340.618,-432.272C321.595,-408.494 287.431,-365.789 272.873,-347.591"/>
<polygon fill="midnightblue" stroke="midnightblue" points="338.115,-434.746 347.095,-440.368 343.581,-430.373 338.115,-434.746"/>
</g>
<!-- Node15 -->
<g id="node15" class="node"><title>Node15</title>
<g id="a_node15"><a xlink:href="simulation__object_8h.html" target="_top" xlink:title="simulation_object.h">
<polygon fill="white" stroke="black" points="98.5,-266.5 98.5,-285.5 199.5,-285.5 199.5,-266.5 98.5,-266.5"/>
<text text-anchor="middle" x="149" y="-273.5" font-family="Helvetica,sans-Serif" font-size="10.00">simulation_object.h</text>
</a>
</g>
</g>
<!-- Node2&#45;&gt;Node15 -->
<g id="edge36" class="edge"><title>Node2&#45;&gt;Node15</title>
<path fill="none" stroke="midnightblue" d="M312.79,-443.965C281.693,-438.444 239.348,-427.079 209,-404 168.821,-373.444 154.39,-309.267 150.337,-285.819"/>
<polygon fill="midnightblue" stroke="midnightblue" points="312.436,-447.453 322.871,-445.621 313.571,-440.546 312.436,-447.453"/>
</g>
<!-- Node18 -->
<g id="node18" class="node"><title>Node18</title>
<g id="a_node18"><a xlink:href="default__force_8h.html" target="_top" xlink:title="default_force.h">
<polygon fill="white" stroke="black" points="-0.5,-266.5 -0.5,-285.5 80.5,-285.5 80.5,-266.5 -0.5,-266.5"/>
<text text-anchor="middle" x="40" y="-273.5" font-family="Helvetica,sans-Serif" font-size="10.00">default_force.h</text>
</a>
</g>
</g>
<!-- Node2&#45;&gt;Node18 -->
<g id="edge33" class="edge"><title>Node2&#45;&gt;Node18</title>
<path fill="none" stroke="midnightblue" d="M313.037,-443.236C278.014,-437.104 227.074,-425.266 187,-404 125.332,-371.275 67.2805,-308.437 47.3171,-285.581"/>
<polygon fill="midnightblue" stroke="midnightblue" points="312.477,-446.691 322.917,-444.889 313.631,-439.787 312.477,-446.691"/>
</g>
<!-- Node19 -->
<g id="node19" class="node"><title>Node19</title>
<g id="a_node19"><a xlink:href="resource__manager_8h.html" target="_top" xlink:title="resource_manager.h">
<polygon fill="white" stroke="black" points="725.5,-384.5 725.5,-403.5 830.5,-403.5 830.5,-384.5 725.5,-384.5"/>
<text text-anchor="middle" x="778" y="-391.5" font-family="Helvetica,sans-Serif" font-size="10.00">resource_manager.h</text>
</a>
</g>
</g>
<!-- Node2&#45;&gt;Node19 -->
<g id="edge38" class="edge"><title>Node2&#45;&gt;Node19</title>
<path fill="none" stroke="midnightblue" d="M395.509,-443.714C473.041,-433.839 639.723,-412.611 725.153,-401.73"/>
<polygon fill="midnightblue" stroke="midnightblue" points="394.655,-440.294 385.178,-445.029 395.54,-447.238 394.655,-440.294"/>
</g>
<!-- Node28 -->
<g id="node28" class="node"><title>Node28</title>
<g id="a_node28"><a xlink:href="so__pointer_8h.html" target="_top" xlink:title="so_pointer.h">
<polygon fill="white" stroke="black" points="218,-384.5 218,-403.5 288,-403.5 288,-384.5 218,-384.5"/>
<text text-anchor="middle" x="253" y="-391.5" font-family="Helvetica,sans-Serif" font-size="10.00">so_pointer.h</text>
</a>
</g>
</g>
<!-- Node2&#45;&gt;Node28 -->
<g id="edge62" class="edge"><title>Node2&#45;&gt;Node28</title>
<path fill="none" stroke="midnightblue" d="M328.917,-435.59C310.243,-425.605 285.296,-412.267 269.187,-403.655"/>
<polygon fill="midnightblue" stroke="midnightblue" points="327.304,-438.696 337.773,-440.324 330.604,-432.522 327.304,-438.696"/>
</g>
<!-- Node29 -->
<g id="node29" class="node"><title>Node29</title>
<g id="a_node29"><a xlink:href="exporter_8h.html" target="_top" xlink:title="exporter.h">
<polygon fill="white" stroke="black" points="849,-384.5 849,-403.5 909,-403.5 909,-384.5 849,-384.5"/>
<text text-anchor="middle" x="879" y="-391.5" font-family="Helvetica,sans-Serif" font-size="10.00">exporter.h</text>
</a>
</g>
</g>
<!-- Node2&#45;&gt;Node29 -->
<g id="edge65" class="edge"><title>Node2&#45;&gt;Node29</title>
<path fill="none" stroke="midnightblue" d="M395.238,-446.969C479.186,-442.441 675.8,-429.821 839,-404 842.234,-403.488 845.597,-402.87 848.939,-402.2"/>
<polygon fill="midnightblue" stroke="midnightblue" points="394.897,-443.482 385.096,-447.506 395.268,-450.473 394.897,-443.482"/>
</g>
<!-- Node4 -->
<g id="node4" class="node"><title>Node4</title>
<g id="a_node4"><a xlink:href="biology__module__util_8h.html" target="_top" xlink:title="biology_module_util.h">
<polygon fill="white" stroke="black" points="446,-266.5 446,-285.5 556,-285.5 556,-266.5 446,-266.5"/>
<text text-anchor="middle" x="501" y="-273.5" font-family="Helvetica,sans-Serif" font-size="10.00">biology_module_util.h</text>
</a>
</g>
</g>
<!-- Node3&#45;&gt;Node4 -->
<g id="edge3" class="edge"><title>Node3&#45;&gt;Node4</title>
<path fill="none" stroke="midnightblue" d="M411.223,-373.989C410.862,-360.209 412.373,-341.673 421,-328 434.008,-307.383 458.714,-293.559 477.244,-285.564"/>
<polygon fill="midnightblue" stroke="midnightblue" points="407.745,-374.466 411.851,-384.233 414.732,-374.038 407.745,-374.466"/>
</g>
<!-- Node3&#45;&gt;Node14 -->
<g id="edge21" class="edge"><title>Node3&#45;&gt;Node14</title>
<path fill="none" stroke="midnightblue" d="M380.077,-380.906C352.44,-370.754 313.656,-356.506 289.184,-347.516"/>
<polygon fill="midnightblue" stroke="midnightblue" points="379.114,-384.281 389.707,-384.444 381.528,-377.71 379.114,-384.281"/>
</g>
<!-- Node3&#45;&gt;Node15 -->
<g id="edge29" class="edge"><title>Node3&#45;&gt;Node15</title>
<path fill="none" stroke="midnightblue" d="M371.676,-388.138C317.233,-381.106 225.092,-366.844 197,-348 173.523,-332.251 158.454,-300.77 152.245,-285.584"/>
<polygon fill="midnightblue" stroke="midnightblue" points="371.345,-391.624 381.705,-389.407 372.224,-384.68 371.345,-391.624"/>
</g>
<!-- Node16 -->
<g id="node16" class="node"><title>Node16</title>
<g id="a_node16"><a xlink:href="displacement__op__cuda_8h.html" target="_top" xlink:title="displacement_op_cuda.h">
<polygon fill="white" stroke="black" points="430.5,-328.5 430.5,-347.5 555.5,-347.5 555.5,-328.5 430.5,-328.5"/>
<text text-anchor="middle" x="493" y="-335.5" font-family="Helvetica,sans-Serif" font-size="10.00">displacement_op_cuda.h</text>
</a>
</g>
</g>
<!-- Node3&#45;&gt;Node16 -->
<g id="edge30" class="edge"><title>Node3&#45;&gt;Node16</title>
<path fill="none" stroke="midnightblue" d="M434.301,-378.622C448.915,-368.757 467.827,-355.992 480.179,-347.655"/>
<polygon fill="midnightblue" stroke="midnightblue" points="432.184,-375.828 425.853,-384.324 436.1,-381.63 432.184,-375.828"/>
</g>
<!-- Node17 -->
<g id="node17" class="node"><title>Node17</title>
<g id="a_node17"><a xlink:href="displacement__op__opencl_8h.html" target="_top" xlink:title="displacement_op_opencl.h">
<polygon fill="white" stroke="black" points="844,-198.5 844,-217.5 976,-217.5 976,-198.5 844,-198.5"/>
<text text-anchor="middle" x="910" y="-205.5" font-family="Helvetica,sans-Serif" font-size="10.00">displacement_op_opencl.h</text>
</a>
</g>
</g>
<!-- Node3&#45;&gt;Node17 -->
<g id="edge31" class="edge"><title>Node3&#45;&gt;Node17</title>
<path fill="none" stroke="midnightblue" d="M454.086,-381.864C484.637,-373.317 527.222,-360.837 564,-348 690.212,-303.947 837.94,-240.521 890.35,-217.64"/>
<polygon fill="midnightblue" stroke="midnightblue" points="452.91,-378.558 444.212,-384.607 454.784,-385.303 452.91,-378.558"/>
</g>
<!-- Node5 -->
<g id="node5" class="node"><title>Node5</title>
<g id="a_node5"><a xlink:href="grow__divide_8h.html" target="_top" xlink:title="biology_module/grow\l_divide.h">
<polygon fill="white" stroke="black" points="566,-57 566,-87 674,-87 674,-57 566,-57"/>
<text text-anchor="start" x="574" y="-75" font-family="Helvetica,sans-Serif" font-size="10.00">biology_module/grow</text>
<text text-anchor="middle" x="620" y="-64" font-family="Helvetica,sans-Serif" font-size="10.00">_divide.h</text>
</a>
</g>
</g>
<!-- Node4&#45;&gt;Node5 -->
<g id="edge4" class="edge"><title>Node4&#45;&gt;Node5</title>
<path fill="none" stroke="midnightblue" d="M528.469,-261.752C562.872,-243.435 620.19,-206.789 644,-156 654.76,-133.047 640.854,-104.227 630.16,-87.2897"/>
<polygon fill="midnightblue" stroke="midnightblue" points="526.696,-258.728 519.42,-266.429 529.91,-264.947 526.696,-258.728"/>
</g>
<!-- Node6 -->
<g id="node6" class="node"><title>Node6</title>
<g id="a_node6"><a xlink:href="biodynamo_8h.html" target="_top" xlink:title="biodynamo.h">
<polygon fill="white" stroke="black" points="625,-0.5 625,-19.5 697,-19.5 697,-0.5 625,-0.5"/>
<text text-anchor="middle" x="661" y="-7.5" font-family="Helvetica,sans-Serif" font-size="10.00">biodynamo.h</text>
</a>
</g>
</g>
<!-- Node4&#45;&gt;Node6 -->
<g id="edge8" class="edge"><title>Node4&#45;&gt;Node6</title>
<path fill="none" stroke="midnightblue" d="M543.13,-263.228C566.769,-255.067 595.697,-242.331 617,-224 667.926,-180.177 672.092,-154.295 683,-88 685.309,-73.9665 686.206,-69.8562 683,-56 679.864,-42.4442 672.054,-28.255 666.638,-19.5194"/>
<polygon fill="midnightblue" stroke="midnightblue" points="541.763,-259.993 533.361,-266.448 543.954,-266.641 541.763,-259.993"/>
</g>
<!-- Node7 -->
<g id="node7" class="node"><title>Node7</title>
<g id="a_node7"><a xlink:href="regulate__genes_8h.html" target="_top" xlink:title="biology_module/regulate\l_genes.h">
<polygon fill="white" stroke="black" points="380,-125 380,-155 502,-155 502,-125 380,-125"/>
<text text-anchor="start" x="388" y="-143" font-family="Helvetica,sans-Serif" font-size="10.00">biology_module/regulate</text>
<text text-anchor="middle" x="441" y="-132" font-family="Helvetica,sans-Serif" font-size="10.00">_genes.h</text>
</a>
</g>
</g>
<!-- Node4&#45;&gt;Node7 -->
<g id="edge6" class="edge"><title>Node4&#45;&gt;Node7</title>
<path fill="none" stroke="midnightblue" d="M492.838,-256.771C480.722,-229.714 458.237,-179.496 447.301,-155.071"/>
<polygon fill="midnightblue" stroke="midnightblue" points="489.782,-258.511 497.063,-266.208 496.171,-255.651 489.782,-258.511"/>
</g>
<!-- Node4&#45;&gt;Node8 -->
<g id="edge9" class="edge"><title>Node4&#45;&gt;Node8</title>
<path fill="none" stroke="midnightblue" d="M466.737,-262.907C427.906,-249.202 365.901,-227.318 334.159,-216.115"/>
<polygon fill="midnightblue" stroke="midnightblue" points="465.958,-266.344 476.553,-266.372 468.288,-259.743 465.958,-266.344"/>
</g>
<!-- Node4&#45;&gt;Node9 -->
<g id="edge17" class="edge"><title>Node4&#45;&gt;Node9</title>
<path fill="none" stroke="midnightblue" d="M511.038,-257.531C527.721,-228.499 560.552,-171.363 573.029,-149.65"/>
<polygon fill="midnightblue" stroke="midnightblue" points="508,-255.794 506.052,-266.208 514.069,-259.281 508,-255.794"/>
</g>
<!-- Node13 -->
<g id="node13" class="node"><title>Node13</title>
<g id="a_node13"><a xlink:href="neurite__element_8h.html" target="_top" xlink:title="neuroscience/neurite\l_element.h">
<polygon fill="white" stroke="black" points="95.5,-193 95.5,-223 202.5,-223 202.5,-193 95.5,-193"/>
<text text-anchor="start" x="103.5" y="-211" font-family="Helvetica,sans-Serif" font-size="10.00">neuroscience/neurite</text>
<text text-anchor="middle" x="149" y="-200" font-family="Helvetica,sans-Serif" font-size="10.00">_element.h</text>
</a>
</g>
</g>
<!-- Node4&#45;&gt;Node13 -->
<g id="edge18" class="edge"><title>Node4&#45;&gt;Node13</title>
<path fill="none" stroke="midnightblue" d="M445.46,-264.586C378.943,-252.114 268.298,-231.368 202.637,-219.057"/>
<polygon fill="midnightblue" stroke="midnightblue" points="444.869,-268.036 455.343,-266.439 446.159,-261.156 444.869,-268.036"/>
</g>
<!-- Node5&#45;&gt;Node6 -->
<g id="edge5" class="edge"><title>Node5&#45;&gt;Node6</title>
<path fill="none" stroke="midnightblue" d="M635.432,-48.4159C642.266,-38.4153 649.902,-27.2416 655.034,-19.7305"/>
<polygon fill="midnightblue" stroke="midnightblue" points="632.469,-46.5497 629.716,-56.7808 638.248,-50.4991 632.469,-46.5497"/>
</g>
<!-- Node7&#45;&gt;Node6 -->
<g id="edge7" class="edge"><title>Node7&#45;&gt;Node6</title>
<path fill="none" stroke="midnightblue" d="M463.972,-118.076C484.767,-99.9197 516.829,-73.8212 548,-56 575.681,-40.1742 610.022,-27.3617 633.535,-19.5138"/>
<polygon fill="midnightblue" stroke="midnightblue" points="461.486,-115.602 456.315,-124.849 466.124,-120.846 461.486,-115.602"/>
</g>
<!-- Node8&#45;&gt;Node6 -->
<g id="edge10" class="edge"><title>Node8&#45;&gt;Node6</title>
<path fill="none" stroke="midnightblue" d="M310.634,-188.055C306.128,-155.947 302.391,-90.9322 338,-56 378.013,-16.7476 549.351,-11.2945 624.935,-10.8384"/>
<polygon fill="midnightblue" stroke="midnightblue" points="307.233,-188.951 312.258,-198.279 314.146,-187.854 307.233,-188.951"/>
</g>
<!-- Node8&#45;&gt;Node9 -->
<g id="edge11" class="edge"><title>Node8&#45;&gt;Node9</title>
<path fill="none" stroke="midnightblue" d="M344.058,-199.485C393.525,-187.119 491.784,-162.554 543.822,-149.545"/>
<polygon fill="midnightblue" stroke="midnightblue" points="343.13,-196.11 334.277,-201.931 344.828,-202.901 343.13,-196.11"/>
</g>
<!-- Node10 -->
<g id="node10" class="node"><title>Node10</title>
<g id="a_node10"><a xlink:href="neuron__soma_8h.html" target="_top" xlink:title="neuroscience/neuron\l_soma.h">
<polygon fill="white" stroke="black" points="178.5,-125 178.5,-155 285.5,-155 285.5,-125 178.5,-125"/>
<text text-anchor="start" x="186.5" y="-143" font-family="Helvetica,sans-Serif" font-size="10.00">neuroscience/neuron</text>
<text text-anchor="middle" x="232" y="-132" font-family="Helvetica,sans-Serif" font-size="10.00">_soma.h</text>
</a>
</g>
</g>
<!-- Node8&#45;&gt;Node10 -->
<g id="edge13" class="edge"><title>Node8&#45;&gt;Node10</title>
<path fill="none" stroke="midnightblue" d="M295.446,-192.066C281.713,-181.013 263.125,-166.051 249.619,-155.181"/>
<polygon fill="midnightblue" stroke="midnightblue" points="293.295,-194.828 303.28,-198.372 297.684,-189.375 293.295,-194.828"/>
</g>
<!-- Node9&#45;&gt;Node6 -->
<g id="edge12" class="edge"><title>Node9&#45;&gt;Node6</title>
<path fill="none" stroke="midnightblue" d="M566.073,-121.508C555.577,-103.727 543.848,-76.0206 557,-56 571.96,-33.2266 601.173,-21.9234 624.839,-16.3449"/>
<polygon fill="midnightblue" stroke="midnightblue" points="563.304,-123.678 571.611,-130.254 569.218,-119.933 563.304,-123.678"/>
</g>
<!-- Node11 -->
<g id="node11" class="node"><title>Node11</title>
<g id="a_node11"><a xlink:href="neuroscience_2compile__time__param_8h.html" target="_top" xlink:title="neuroscience/compile\l_time_param.h">
<polygon fill="white" stroke="black" points="115.5,-57 115.5,-87 226.5,-87 226.5,-57 115.5,-57"/>
<text text-anchor="start" x="123.5" y="-75" font-family="Helvetica,sans-Serif" font-size="10.00">neuroscience/compile</text>
<text text-anchor="middle" x="171" y="-64" font-family="Helvetica,sans-Serif" font-size="10.00">_time_param.h</text>
</a>
</g>
</g>
<!-- Node10&#45;&gt;Node11 -->
<g id="edge14" class="edge"><title>Node10&#45;&gt;Node11</title>
<path fill="none" stroke="midnightblue" d="M211.846,-117.194C202.757,-107.36 192.279,-96.0228 184.21,-87.2931"/>
<polygon fill="midnightblue" stroke="midnightblue" points="209.406,-119.711 218.764,-124.679 214.547,-114.96 209.406,-119.711"/>
</g>
<!-- Node12 -->
<g id="node12" class="node"><title>Node12</title>
<g id="a_node12"><a xlink:href="neuroscience_8h.html" target="_top" xlink:title="neuroscience/neuroscience.h">
<polygon fill="white" stroke="black" points="99.5,-0.5 99.5,-19.5 242.5,-19.5 242.5,-0.5 99.5,-0.5"/>
<text text-anchor="middle" x="171" y="-7.5" font-family="Helvetica,sans-Serif" font-size="10.00">neuroscience/neuroscience.h</text>
</a>
</g>
</g>
<!-- Node10&#45;&gt;Node12 -->
<g id="edge16" class="edge"><title>Node10&#45;&gt;Node12</title>
<path fill="none" stroke="midnightblue" d="M238.899,-114.948C242.492,-97.5913 244.411,-74.1209 235,-56 226.111,-38.883 207.392,-26.9097 192.483,-19.6403"/>
<polygon fill="midnightblue" stroke="midnightblue" points="235.45,-114.323 236.531,-124.863 242.258,-115.949 235.45,-114.323"/>
</g>
<!-- Node11&#45;&gt;Node12 -->
<g id="edge15" class="edge"><title>Node11&#45;&gt;Node12</title>
<path fill="none" stroke="midnightblue" d="M171,-46.5858C171,-37.0743 171,-26.7864 171,-19.7305"/>
<polygon fill="midnightblue" stroke="midnightblue" points="167.5,-46.7808 171,-56.7808 174.5,-46.7809 167.5,-46.7808"/>
</g>
<!-- Node13&#45;&gt;Node11 -->
<g id="edge19" class="edge"><title>Node13&#45;&gt;Node11</title>
<path fill="none" stroke="midnightblue" d="M153.018,-182.524C157.6,-154.619 164.935,-109.94 168.663,-87.2372"/>
<polygon fill="midnightblue" stroke="midnightblue" points="149.521,-182.225 151.354,-192.66 156.428,-183.359 149.521,-182.225"/>
</g>
<!-- Node13&#45;&gt;Node12 -->
<g id="edge20" class="edge"><title>Node13&#45;&gt;Node12</title>
<path fill="none" stroke="midnightblue" d="M132.44,-184.33C112.348,-153.812 83.759,-98.4484 106,-56 115.045,-38.7364 134.055,-26.7791 149.192,-19.553"/>
<polygon fill="midnightblue" stroke="midnightblue" points="129.806,-186.679 138.337,-192.962 135.586,-182.73 129.806,-186.679"/>
</g>
<!-- Node14&#45;&gt;Node6 -->
<g id="edge26" class="edge"><title>Node14&#45;&gt;Node6</title>
<path fill="none" stroke="midnightblue" d="M280.569,-320.555C287.662,-312.239 296.12,-301.845 303,-292 323.085,-263.259 329.269,-256.263 343,-224 361.074,-181.532 342.119,-160.001 371,-124 434.906,-44.3411 562.518,-20.7118 624.937,-13.7998"/>
<polygon fill="midnightblue" stroke="midnightblue" points="277.708,-318.512 273.796,-328.358 282.995,-323.1 277.708,-318.512"/>
</g>
<!-- Node14&#45;&gt;Node8 -->
<g id="edge25" class="edge"><title>Node14&#45;&gt;Node8</title>
<path fill="none" stroke="midnightblue" d="M272.834,-318.776C283.352,-290.728 303.097,-238.073 310.804,-217.522"/>
<polygon fill="midnightblue" stroke="midnightblue" points="269.533,-317.61 269.299,-328.202 276.088,-320.068 269.533,-317.61"/>
</g>
<!-- Node14&#45;&gt;Node10 -->
<g id="edge28" class="edge"><title>Node14&#45;&gt;Node10</title>
<path fill="none" stroke="midnightblue" d="M262.763,-318.338C255.988,-279.281 240.445,-189.684 234.435,-155.037"/>
<polygon fill="midnightblue" stroke="midnightblue" points="259.337,-319.071 264.495,-328.325 266.234,-317.874 259.337,-319.071"/>
</g>
<!-- Node14&#45;&gt;Node13 -->
<g id="edge27" class="edge"><title>Node14&#45;&gt;Node13</title>
<path fill="none" stroke="midnightblue" d="M254.771,-320.02C243.729,-303.855 225.963,-279.213 208,-260 195.332,-246.45 179.326,-232.797 167.182,-223.032"/>
<polygon fill="midnightblue" stroke="midnightblue" points="251.959,-322.11 260.446,-328.453 257.766,-318.202 251.959,-322.11"/>
</g>
<!-- Node14&#45;&gt;Node15 -->
<g id="edge22" class="edge"><title>Node14&#45;&gt;Node15</title>
<path fill="none" stroke="midnightblue" d="M240.174,-323.756C217.499,-312.127 185.18,-295.554 165.732,-285.581"/>
<polygon fill="midnightblue" stroke="midnightblue" points="238.741,-326.955 249.237,-328.403 241.936,-320.726 238.741,-326.955"/>
</g>
<!-- Node15&#45;&gt;Node8 -->
<g id="edge23" class="edge"><title>Node15&#45;&gt;Node8</title>
<path fill="none" stroke="midnightblue" d="M179.869,-262.652C213.272,-249.291 265.554,-228.378 293.974,-217.01"/>
<polygon fill="midnightblue" stroke="midnightblue" points="178.556,-259.408 170.571,-266.372 181.156,-265.907 178.556,-259.408"/>
</g>
<!-- Node15&#45;&gt;Node13 -->
<g id="edge24" class="edge"><title>Node15&#45;&gt;Node13</title>
<path fill="none" stroke="midnightblue" d="M149,-256.174C149,-245.678 149,-232.821 149,-223.181"/>
<polygon fill="midnightblue" stroke="midnightblue" points="145.5,-256.372 149,-266.372 152.5,-256.372 145.5,-256.372"/>
</g>
<!-- Node18&#45;&gt;Node8 -->
<g id="edge34" class="edge"><title>Node18&#45;&gt;Node8</title>
<path fill="none" stroke="midnightblue" d="M76.3549,-263.544C80.6048,-262.302 84.8893,-261.093 89,-260 163.899,-240.077 254.119,-221.134 293.708,-213.073"/>
<polygon fill="midnightblue" stroke="midnightblue" points="75.1749,-260.243 66.5992,-266.465 77.1829,-266.949 75.1749,-260.243"/>
</g>
<!-- Node18&#45;&gt;Node13 -->
<g id="edge35" class="edge"><title>Node18&#45;&gt;Node13</title>
<path fill="none" stroke="midnightblue" d="M62.8767,-261.148C81.2785,-250.006 107.034,-234.41 125.579,-223.181"/>
<polygon fill="midnightblue" stroke="midnightblue" points="60.9911,-258.198 54.2498,-266.372 64.6168,-264.186 60.9911,-258.198"/>
</g>
<!-- Node19&#45;&gt;Node6 -->
<g id="edge42" class="edge"><title>Node19&#45;&gt;Node6</title>
<path fill="none" stroke="midnightblue" d="M768.353,-375.386C757.095,-353.147 740,-313.387 740,-277 740,-277 740,-277 740,-139 740,-87.2945 692.742,-39.0006 671.328,-19.7715"/>
<polygon fill="midnightblue" stroke="midnightblue" points="765.284,-377.071 773.032,-384.297 771.481,-373.816 765.284,-377.071"/>
</g>
<!-- Node19&#45;&gt;Node10 -->
<g id="edge61" class="edge"><title>Node19&#45;&gt;Node10</title>
<path fill="none" stroke="midnightblue" d="M740.674,-381.432C698.019,-368.266 626.084,-346.226 564,-328 507.707,-311.474 487.13,-322.478 437,-292 384.88,-260.312 392.52,-227.615 343,-192 321.306,-176.398 294.078,-163.799 272.018,-155.027"/>
<polygon fill="midnightblue" stroke="midnightblue" points="739.76,-384.813 750.347,-384.421 741.826,-378.125 739.76,-384.813"/>
</g>
<!-- Node19&#45;&gt;Node14 -->
<g id="edge39" class="edge"><title>Node19&#45;&gt;Node14</title>
<path fill="none" stroke="midnightblue" d="M714.92,-386.347C615.338,-375.844 423.038,-355.563 325.641,-345.29"/>
<polygon fill="midnightblue" stroke="midnightblue" points="714.823,-389.856 725.135,-387.424 715.558,-382.895 714.823,-389.856"/>
</g>
<!-- Node19&#45;&gt;Node16 -->
<g id="edge59" class="edge"><title>Node19&#45;&gt;Node16</title>
<path fill="none" stroke="midnightblue" d="M722.779,-382.537C668.917,-372.332 587.996,-356.999 537.948,-347.516"/>
<polygon fill="midnightblue" stroke="midnightblue" points="722.364,-386.021 732.841,-384.444 723.667,-379.143 722.364,-386.021"/>
</g>
<!-- Node19&#45;&gt;Node17 -->
<g id="edge60" class="edge"><title>Node19&#45;&gt;Node17</title>
<path fill="none" stroke="midnightblue" d="M798.239,-378.129C808.511,-369.96 820.74,-359.223 830,-348 866.503,-303.758 896.061,-240.712 906.214,-217.773"/>
<polygon fill="midnightblue" stroke="midnightblue" points="795.963,-375.464 790.179,-384.341 800.236,-381.009 795.963,-375.464"/>
</g>
<!-- Node20 -->
<g id="node20" class="node"><title>Node20</title>
<g id="a_node20"><a xlink:href="model__initializer_8h.html" target="_top" xlink:title="model_initializer.h">
<polygon fill="white" stroke="black" points="768.5,-62.5 768.5,-81.5 863.5,-81.5 863.5,-62.5 768.5,-62.5"/>
<text text-anchor="middle" x="816" y="-69.5" font-family="Helvetica,sans-Serif" font-size="10.00">model_initializer.h</text>
</a>
</g>
</g>
<!-- Node19&#45;&gt;Node20 -->
<g id="edge40" class="edge"><title>Node19&#45;&gt;Node20</title>
<path fill="none" stroke="midnightblue" d="M778,-374.21C778,-351.268 778,-311.284 778,-277 778,-277 778,-277 778,-207 778,-157.912 801.894,-102.415 811.788,-81.5403"/>
<polygon fill="midnightblue" stroke="midnightblue" points="774.5,-374.269 778,-384.269 781.5,-374.269 774.5,-374.269"/>
</g>
<!-- Node21 -->
<g id="node21" class="node"><title>Node21</title>
<g id="a_node21"><a xlink:href="simulation__object__vector_8h.html" target="_top" xlink:title="simulation_object_vector.h">
<polygon fill="white" stroke="black" points="923.5,-328.5 923.5,-347.5 1056.5,-347.5 1056.5,-328.5 923.5,-328.5"/>
<text text-anchor="middle" x="990" y="-335.5" font-family="Helvetica,sans-Serif" font-size="10.00">simulation_object_vector.h</text>
</a>
</g>
</g>
<!-- Node19&#45;&gt;Node21 -->
<g id="edge43" class="edge"><title>Node19&#45;&gt;Node21</title>
<path fill="none" stroke="midnightblue" d="M821.346,-381.959C861.387,-371.76 920.033,-356.822 956.565,-347.516"/>
<polygon fill="midnightblue" stroke="midnightblue" points="820.419,-378.583 811.592,-384.444 822.147,-385.367 820.419,-378.583"/>
</g>
<!-- Node23 -->
<g id="node23" class="node"><title>Node23</title>
<g id="a_node23"><a xlink:href="diffusion__op_8h.html" target="_top" xlink:title="diffusion_op.h">
<polygon fill="white" stroke="black" points="1148.5,-198.5 1148.5,-217.5 1225.5,-217.5 1225.5,-198.5 1148.5,-198.5"/>
<text text-anchor="middle" x="1187" y="-205.5" font-family="Helvetica,sans-Serif" font-size="10.00">diffusion_op.h</text>
</a>
</g>
</g>
<!-- Node19&#45;&gt;Node23 -->
<g id="edge54" class="edge"><title>Node19&#45;&gt;Node23</title>
<path fill="none" stroke="midnightblue" d="M840.895,-383.681C923.877,-371.309 1060.1,-350.699 1065,-348 1124.08,-315.497 1168.33,-242.784 1182.32,-217.703"/>
<polygon fill="midnightblue" stroke="midnightblue" points="840.179,-380.249 830.803,-385.185 841.21,-387.173 840.179,-380.249"/>
</g>
<!-- Node24 -->
<g id="node24" class="node"><title>Node24</title>
<g id="a_node24"><a xlink:href="scheduler_8h.html" target="_top" xlink:title="scheduler.h">
<polygon fill="white" stroke="black" points="1129.5,-130.5 1129.5,-149.5 1196.5,-149.5 1196.5,-130.5 1129.5,-130.5"/>
<text text-anchor="middle" x="1163" y="-137.5" font-family="Helvetica,sans-Serif" font-size="10.00">scheduler.h</text>
</a>
</g>
</g>
<!-- Node19&#45;&gt;Node24 -->
<g id="edge55" class="edge"><title>Node19&#45;&gt;Node24</title>
<path fill="none" stroke="midnightblue" d="M840.9,-383.95C954.59,-369.34 992.69,-394.015 1093,-348 1102.09,-343.831 1231.39,-229.792 1234,-224 1239.85,-211.035 1240.49,-204.655 1234,-192 1223.61,-171.744 1201.02,-157.716 1184.09,-149.572"/>
<polygon fill="midnightblue" stroke="midnightblue" points="840.2,-380.513 830.764,-385.33 841.145,-387.449 840.2,-380.513"/>
</g>
<!-- Node25 -->
<g id="node25" class="node"><title>Node25</title>
<g id="a_node25"><a xlink:href="simulation__implementation_8h.html" target="_top" xlink:title="simulation_implementation.h">
<polygon fill="white" stroke="black" points="924,-62.5 924,-81.5 1064,-81.5 1064,-62.5 924,-62.5"/>
<text text-anchor="middle" x="994" y="-69.5" font-family="Helvetica,sans-Serif" font-size="10.00">simulation_implementation.h</text>
</a>
</g>
</g>
<!-- Node19&#45;&gt;Node25 -->
<g id="edge58" class="edge"><title>Node19&#45;&gt;Node25</title>
<path fill="none" stroke="midnightblue" d="M787.647,-375.386C798.905,-353.147 816,-313.387 816,-277 816,-277 816,-277 816,-207 816,-135.247 909.46,-97.1222 960.937,-81.5652"/>
<polygon fill="midnightblue" stroke="midnightblue" points="784.519,-373.816 782.968,-384.297 790.716,-377.071 784.519,-373.816"/>
</g>
<!-- Node27 -->
<g id="node27" class="node"><title>Node27</title>
<g id="a_node27"><a xlink:href="catalyst__adaptor_8h.html" target="_top" xlink:title="visualization/catalyst\l_adaptor.h">
<polygon fill="white" stroke="black" points="1282,-261 1282,-291 1390,-291 1390,-261 1282,-261"/>
<text text-anchor="start" x="1290" y="-279" font-family="Helvetica,sans-Serif" font-size="10.00">visualization/catalyst</text>
<text text-anchor="middle" x="1336" y="-268" font-family="Helvetica,sans-Serif" font-size="10.00">_adaptor.h</text>
</a>
</g>
</g>
<!-- Node19&#45;&gt;Node27 -->
<g id="edge56" class="edge"><title>Node19&#45;&gt;Node27</title>
<path fill="none" stroke="midnightblue" d="M840.905,-384.08C950.11,-374.083 1184.56,-387.839 1268,-348 1294.34,-335.425 1315.83,-307.97 1327.2,-291.125"/>
<polygon fill="midnightblue" stroke="midnightblue" points="840.327,-380.621 830.737,-385.124 841.042,-387.584 840.327,-380.621"/>
</g>
<!-- Node20&#45;&gt;Node6 -->
<g id="edge41" class="edge"><title>Node20&#45;&gt;Node6</title>
<path fill="none" stroke="midnightblue" d="M784.173,-58.6797C754.052,-47.0201 709.621,-29.8209 683.167,-19.5806"/>
<polygon fill="midnightblue" stroke="midnightblue" points="783.203,-62.0575 793.792,-62.4035 785.73,-55.5295 783.203,-62.0575"/>
</g>
<!-- Node22 -->
<g id="node22" class="node"><title>Node22</title>
<g id="a_node22"><a xlink:href="grid_8h.html" target="_top" xlink:title="grid.h">
<polygon fill="white" stroke="black" points="983.5,-266.5 983.5,-285.5 1024.5,-285.5 1024.5,-266.5 983.5,-266.5"/>
<text text-anchor="middle" x="1004" y="-273.5" font-family="Helvetica,sans-Serif" font-size="10.00">grid.h</text>
</a>
</g>
</g>
<!-- Node21&#45;&gt;Node22 -->
<g id="edge44" class="edge"><title>Node21&#45;&gt;Node22</title>
<path fill="none" stroke="midnightblue" d="M994.316,-318.503C996.877,-307.527 1000,-294.129 1002,-285.581"/>
<polygon fill="midnightblue" stroke="midnightblue" points="990.87,-317.87 992.006,-328.403 997.687,-319.46 990.87,-317.87"/>
</g>
<!-- Node22&#45;&gt;Node17 -->
<g id="edge53" class="edge"><title>Node22&#45;&gt;Node17</title>
<path fill="none" stroke="midnightblue" d="M983.285,-260.455C964.61,-247.343 937.775,-228.502 922.292,-217.63"/>
<polygon fill="midnightblue" stroke="midnightblue" points="981.516,-263.49 991.711,-266.372 985.538,-257.761 981.516,-263.49"/>
</g>
<!-- Node22&#45;&gt;Node23 -->
<g id="edge45" class="edge"><title>Node22&#45;&gt;Node23</title>
<path fill="none" stroke="midnightblue" d="M1034.17,-264.119C1070.34,-251.072 1130.22,-229.477 1163.27,-217.559"/>
<polygon fill="midnightblue" stroke="midnightblue" points="1032.86,-260.872 1024.64,-267.557 1035.23,-267.457 1032.86,-260.872"/>
</g>
<!-- Node22&#45;&gt;Node25 -->
<g id="edge52" class="edge"><title>Node22&#45;&gt;Node25</title>
<path fill="none" stroke="midnightblue" d="M1003.07,-256.291C1000.98,-214.027 995.954,-112.477 994.439,-81.8748"/>
<polygon fill="midnightblue" stroke="midnightblue" points="999.58,-256.506 1003.57,-266.32 1006.57,-256.159 999.58,-256.506"/>
</g>
<!-- Node26 -->
<g id="node26" class="node"><title>Node26</title>
<g id="a_node26"><a xlink:href="displacement__op_8h.html" target="_top" xlink:title="displacement_op.h">
<polygon fill="white" stroke="black" points="1032,-198.5 1032,-217.5 1130,-217.5 1130,-198.5 1032,-198.5"/>
<text text-anchor="middle" x="1081" y="-205.5" font-family="Helvetica,sans-Serif" font-size="10.00">displacement_op.h</text>
</a>
</g>
</g>
<!-- Node22&#45;&gt;Node26 -->
<g id="edge50" class="edge"><title>Node22&#45;&gt;Node26</title>
<path fill="none" stroke="midnightblue" d="M1021.76,-259.774C1036.92,-246.784 1058.19,-228.555 1070.69,-217.841"/>
<polygon fill="midnightblue" stroke="midnightblue" points="1019.38,-257.206 1014.07,-266.372 1023.94,-262.521 1019.38,-257.206"/>
</g>
<!-- Node23&#45;&gt;Node24 -->
<g id="edge46" class="edge"><title>Node23&#45;&gt;Node24</title>
<path fill="none" stroke="midnightblue" d="M1180.38,-188.807C1175.77,-176.124 1169.82,-159.762 1166.21,-149.841"/>
<polygon fill="midnightblue" stroke="midnightblue" points="1177.16,-190.17 1183.86,-198.372 1183.73,-187.778 1177.16,-190.17"/>
</g>
<!-- Node24&#45;&gt;Node6 -->
<g id="edge47" class="edge"><title>Node24&#45;&gt;Node6</title>
<path fill="none" stroke="midnightblue" d="M1150.48,-122.247C1134.78,-102.641 1105.89,-70.9576 1073,-56 1006.28,-25.6508 784.78,-15.1059 697.144,-12.0657"/>
<polygon fill="midnightblue" stroke="midnightblue" points="1147.84,-124.55 1156.74,-130.302 1153.37,-120.257 1147.84,-124.55"/>
</g>
<!-- Node24&#45;&gt;Node25 -->
<g id="edge48" class="edge"><title>Node24&#45;&gt;Node25</title>
<path fill="none" stroke="midnightblue" d="M1131.52,-126.706C1097.82,-113.547 1045.25,-93.0166 1015.83,-81.5259"/>
<polygon fill="midnightblue" stroke="midnightblue" points="1130.32,-129.994 1140.91,-130.372 1132.86,-123.474 1130.32,-129.994"/>
</g>
<!-- Node25&#45;&gt;Node6 -->
<g id="edge49" class="edge"><title>Node25&#45;&gt;Node6</title>
<path fill="none" stroke="midnightblue" d="M936.431,-60.6271C867.771,-48.256 755.068,-27.9492 697.431,-17.5642"/>
<polygon fill="midnightblue" stroke="midnightblue" points="936.181,-64.1384 946.643,-62.4672 937.422,-57.2493 936.181,-64.1384"/>
</g>
<!-- Node26&#45;&gt;Node24 -->
<g id="edge51" class="edge"><title>Node26&#45;&gt;Node24</title>
<path fill="none" stroke="midnightblue" d="M1099.52,-192.096C1115.79,-179.001 1138.89,-160.403 1152.28,-149.63"/>
<polygon fill="midnightblue" stroke="midnightblue" points="1097.32,-189.375 1091.72,-198.372 1101.7,-194.828 1097.32,-189.375"/>
</g>
<!-- Node27&#45;&gt;Node24 -->
<g id="edge57" class="edge"><title>Node27&#45;&gt;Node24</title>
<path fill="none" stroke="midnightblue" d="M1321.29,-252.019C1308.81,-233.925 1289.54,-209.005 1268,-192 1243.5,-172.662 1210.48,-158.134 1188.06,-149.627"/>
<polygon fill="midnightblue" stroke="midnightblue" points="1318.69,-254.429 1327.17,-260.78 1324.5,-250.527 1318.69,-254.429"/>
</g>
<!-- Node28&#45;&gt;Node14 -->
<g id="edge63" class="edge"><title>Node28&#45;&gt;Node14</title>
<path fill="none" stroke="midnightblue" d="M257.55,-374.101C259.708,-365.136 262.182,-354.858 263.893,-347.751"/>
<polygon fill="midnightblue" stroke="midnightblue" points="254.085,-373.542 255.147,-384.083 260.89,-375.18 254.085,-373.542"/>
</g>
</g>
</svg>
