<?xml version="1.0" encoding="UTF-8" standalone="no"?>
<!DOCTYPE svg PUBLIC "-//W3C//DTD SVG 1.1//EN"
 "http://www.w3.org/Graphics/SVG/1.1/DTD/svg11.dtd">
<!-- Generated by graphviz version 2.43.0 (0)
 -->
<!-- Title: core/util/type.h Pages: 1 -->
<svg width="898pt" height="319pt"
 viewBox="0.00 0.00 897.50 319.00" xmlns="http://www.w3.org/2000/svg" xmlns:xlink="http://www.w3.org/1999/xlink">
<g id="graph0" class="graph" transform="scale(1 1) rotate(0) translate(4 315)">
<title>core/util/type.h</title>
<polygon fill="white" stroke="transparent" points="-4,4 -4,-315 893.5,-315 893.5,4 -4,4"/>
<!-- Node1 -->
<g id="node1" class="node">
<title>Node1</title>
<g id="a_node1"><a xlink:title=" ">
<polygon fill="#bfbfbf" stroke="black" points="391,-291.5 391,-310.5 481,-310.5 481,-291.5 391,-291.5"/>
<text text-anchor="middle" x="436" y="-298.5" font-family="Helvetica,sans-Serif" font-size="10.00">core/util/type.h</text>
</a>
</g>
</g>
<!-- Node2 -->
<g id="node2" class="node">
<title>Node2</title>
<g id="a_node2"><a xlink:title=" ">
<polygon fill="white" stroke="#bfbfbf" points="216.5,-230 216.5,-249 285.5,-249 285.5,-230 216.5,-230"/>
<text text-anchor="middle" x="251" y="-237" font-family="Helvetica,sans-Serif" font-size="10.00">type_traits</text>
</a>
</g>
</g>
<!-- Node1&#45;&gt;Node2 -->
<g id="edge1" class="edge">
<title>Node1&#45;&gt;Node2</title>
<path fill="none" stroke="midnightblue" d="M408.46,-291.44C379.82,-282.49 333.7,-267.98 294,-255 291.26,-254.1 288.43,-253.17 285.58,-252.22"/>
<polygon fill="midnightblue" stroke="midnightblue" points="286.58,-248.87 275.99,-249.01 284.36,-255.5 286.58,-248.87"/>
</g>
<!-- Node3 -->
<g id="node3" class="node">
<title>Node3</title>
<g id="a_node3"><a xlink:title=" ">
<polygon fill="white" stroke="#bfbfbf" points="303.5,-230 303.5,-249 360.5,-249 360.5,-230 303.5,-230"/>
<text text-anchor="middle" x="332" y="-237" font-family="Helvetica,sans-Serif" font-size="10.00">typeinfo</text>
</a>
</g>
</g>
<!-- Node1&#45;&gt;Node3 -->
<g id="edge2" class="edge">
<title>Node1&#45;&gt;Node3</title>
<path fill="none" stroke="midnightblue" d="M421.1,-291.48C404.03,-281.71 375.84,-265.58 355.74,-254.08"/>
<polygon fill="midnightblue" stroke="midnightblue" points="357.29,-250.94 346.87,-249.01 353.81,-257.01 357.29,-250.94"/>
</g>
<!-- Node4 -->
<g id="node4" class="node">
<title>Node4</title>
<g id="a_node4"><a xlink:href="math__array_8h.html" target="_top" xlink:title=" ">
<polygon fill="white" stroke="black" points="378.5,-224.5 378.5,-254.5 493.5,-254.5 493.5,-224.5 378.5,-224.5"/>
<text text-anchor="start" x="386.5" y="-242.5" font-family="Helvetica,sans-Serif" font-size="10.00">core/container/math</text>
<text text-anchor="middle" x="436" y="-231.5" font-family="Helvetica,sans-Serif" font-size="10.00">_array.h</text>
</a>
</g>
</g>
<!-- Node1&#45;&gt;Node4 -->
<g id="edge3" class="edge">
<title>Node1&#45;&gt;Node4</title>
<path fill="none" stroke="midnightblue" d="M436,-291.48C436,-284.47 436,-274.19 436,-264.7"/>
<polygon fill="midnightblue" stroke="midnightblue" points="439.5,-264.52 436,-254.52 432.5,-264.52 439.5,-264.52"/>
</g>
<!-- Node20 -->
<g id="node20" class="node">
<title>Node20</title>
<g id="a_node20"><a xlink:href="string_8h.html" target="_top" xlink:title=" ">
<polygon fill="white" stroke="black" points="750,-56.5 750,-75.5 846,-75.5 846,-56.5 750,-56.5"/>
<text text-anchor="middle" x="798" y="-63.5" font-family="Helvetica,sans-Serif" font-size="10.00">core/util/string.h</text>
</a>
</g>
</g>
<!-- Node1&#45;&gt;Node20 -->
<g id="edge27" class="edge">
<title>Node1&#45;&gt;Node20</title>
<path fill="none" stroke="midnightblue" d="M481.23,-294.75C546.89,-284.89 668.95,-257.9 744,-188 774.19,-159.88 788.59,-111.76 794.5,-85.47"/>
<polygon fill="midnightblue" stroke="midnightblue" points="797.93,-86.17 796.53,-75.67 791.07,-84.75 797.93,-86.17"/>
</g>
<!-- Node25 -->
<g id="node25" class="node">
<title>Node25</title>
<g id="a_node25"><a xlink:href="shape_8h.html" target="_top" xlink:title=" ">
<polygon fill="white" stroke="black" points="791.5,-230 791.5,-249 870.5,-249 870.5,-230 791.5,-230"/>
<text text-anchor="middle" x="831" y="-237" font-family="Helvetica,sans-Serif" font-size="10.00">core/shape.h</text>
</a>
</g>
</g>
<!-- Node1&#45;&gt;Node25 -->
<g id="edge26" class="edge">
<title>Node1&#45;&gt;Node25</title>
<path fill="none" stroke="midnightblue" d="M481.27,-295.93C546.87,-289.61 672.03,-275.93 777,-255 781.99,-254.01 787.2,-252.81 792.33,-251.54"/>
<polygon fill="midnightblue" stroke="midnightblue" points="793.21,-254.92 802.02,-249.03 791.46,-248.15 793.21,-254.92"/>
</g>
<!-- Node5 -->
<g id="node5" class="node">
<title>Node5</title>
<g id="a_node5"><a xlink:title=" ">
<polygon fill="white" stroke="#bfbfbf" points="0,-168.5 0,-187.5 64,-187.5 64,-168.5 0,-168.5"/>
<text text-anchor="middle" x="32" y="-175.5" font-family="Helvetica,sans-Serif" font-size="10.00">algorithm</text>
</a>
</g>
</g>
<!-- Node4&#45;&gt;Node5 -->
<g id="edge4" class="edge">
<title>Node4&#45;&gt;Node5</title>
<path fill="none" stroke="midnightblue" d="M378.32,-225.66C375.17,-225.07 372.05,-224.51 369,-224 241.51,-202.5 205.4,-209.85 74.2,-188.06"/>
<polygon fill="midnightblue" stroke="midnightblue" points="74.62,-184.58 64.17,-186.37 73.45,-191.48 74.62,-184.58"/>
</g>
<!-- Node6 -->
<g id="node6" class="node">
<title>Node6</title>
<g id="a_node6"><a xlink:title=" ">
<polygon fill="white" stroke="#bfbfbf" points="82,-168.5 82,-187.5 134,-187.5 134,-168.5 82,-168.5"/>
<text text-anchor="middle" x="108" y="-175.5" font-family="Helvetica,sans-Serif" font-size="10.00">cassert</text>
</a>
</g>
</g>
<!-- Node4&#45;&gt;Node6 -->
<g id="edge5" class="edge">
<title>Node4&#45;&gt;Node6</title>
<path fill="none" stroke="midnightblue" d="M378.3,-225.8C375.16,-225.18 372.04,-224.57 369,-224 272.16,-205.82 244.31,-208.49 144.23,-188.1"/>
<polygon fill="midnightblue" stroke="midnightblue" points="144.81,-184.64 134.31,-186.05 143.4,-191.5 144.81,-184.64"/>
</g>
<!-- Node7 -->
<g id="node7" class="node">
<title>Node7</title>
<g id="a_node7"><a xlink:title=" ">
<polygon fill="white" stroke="#bfbfbf" points="152.5,-168.5 152.5,-187.5 199.5,-187.5 199.5,-168.5 152.5,-168.5"/>
<text text-anchor="middle" x="176" y="-175.5" font-family="Helvetica,sans-Serif" font-size="10.00">cmath</text>
</a>
</g>
</g>
<!-- Node4&#45;&gt;Node7 -->
<g id="edge6" class="edge">
<title>Node4&#45;&gt;Node7</title>
<path fill="none" stroke="midnightblue" d="M378.45,-226.02C326.37,-214.68 252.53,-198.44 209.49,-188.01"/>
<polygon fill="midnightblue" stroke="midnightblue" points="210.3,-184.61 199.76,-185.62 208.63,-191.41 210.3,-184.61"/>
</g>
<!-- Node8 -->
<g id="node8" class="node">
<title>Node8</title>
<g id="a_node8"><a xlink:title=" ">
<polygon fill="white" stroke="#bfbfbf" points="218,-168.5 218,-187.5 274,-187.5 274,-168.5 218,-168.5"/>
<text text-anchor="middle" x="246" y="-175.5" font-family="Helvetica,sans-Serif" font-size="10.00">numeric</text>
</a>
</g>
</g>
<!-- Node4&#45;&gt;Node8 -->
<g id="edge7" class="edge">
<title>Node4&#45;&gt;Node8</title>
<path fill="none" stroke="midnightblue" d="M390.97,-224.4C358.14,-214.12 314.18,-200.35 283.3,-190.68"/>
<polygon fill="midnightblue" stroke="midnightblue" points="283.96,-187.22 273.37,-187.57 281.87,-193.9 283.96,-187.22"/>
</g>
<!-- Node9 -->
<g id="node9" class="node">
<title>Node9</title>
<g id="a_node9"><a xlink:title=" ">
<polygon fill="white" stroke="#bfbfbf" points="292.5,-168.5 292.5,-187.5 349.5,-187.5 349.5,-168.5 292.5,-168.5"/>
<text text-anchor="middle" x="321" y="-175.5" font-family="Helvetica,sans-Serif" font-size="10.00">ostream</text>
</a>
</g>
</g>
<!-- Node4&#45;&gt;Node9 -->
<g id="edge8" class="edge">
<title>Node4&#45;&gt;Node9</title>
<path fill="none" stroke="midnightblue" d="M408.75,-224.4C389.97,-214.68 365.17,-201.86 346.73,-192.31"/>
<polygon fill="midnightblue" stroke="midnightblue" points="348.22,-189.14 337.73,-187.66 345.01,-195.36 348.22,-189.14"/>
</g>
<!-- Node10 -->
<g id="node10" class="node">
<title>Node10</title>
<g id="a_node10"><a xlink:title=" ">
<polygon fill="white" stroke="#bfbfbf" points="367.5,-168.5 367.5,-187.5 432.5,-187.5 432.5,-168.5 367.5,-168.5"/>
<text text-anchor="middle" x="400" y="-175.5" font-family="Helvetica,sans-Serif" font-size="10.00">stdexcept</text>
</a>
</g>
</g>
<!-- Node4&#45;&gt;Node10 -->
<g id="edge9" class="edge">
<title>Node4&#45;&gt;Node10</title>
<path fill="none" stroke="midnightblue" d="M427.47,-224.4C422.4,-216.02 415.93,-205.33 410.54,-196.42"/>
<polygon fill="midnightblue" stroke="midnightblue" points="413.41,-194.4 405.24,-187.66 407.42,-198.03 413.41,-194.4"/>
</g>
<!-- Node11 -->
<g id="node11" class="node">
<title>Node11</title>
<g id="a_node11"><a xlink:title=" ">
<polygon fill="white" stroke="#bfbfbf" points="450.5,-168.5 450.5,-187.5 495.5,-187.5 495.5,-168.5 450.5,-168.5"/>
<text text-anchor="middle" x="473" y="-175.5" font-family="Helvetica,sans-Serif" font-size="10.00">utility</text>
</a>
</g>
</g>
<!-- Node4&#45;&gt;Node11 -->
<g id="edge10" class="edge">
<title>Node4&#45;&gt;Node11</title>
<path fill="none" stroke="midnightblue" d="M444.77,-224.4C449.98,-216.02 456.63,-205.33 462.17,-196.42"/>
<polygon fill="midnightblue" stroke="midnightblue" points="465.31,-198 467.62,-187.66 459.36,-194.3 465.31,-198"/>
</g>
<!-- Node12 -->
<g id="node12" class="node">
<title>Node12</title>
<g id="a_node12"><a xlink:href="real__t_8h.html" target="_top" xlink:title=" ">
<polygon fill="white" stroke="black" points="513.5,-168.5 513.5,-187.5 590.5,-187.5 590.5,-168.5 513.5,-168.5"/>
<text text-anchor="middle" x="552" y="-175.5" font-family="Helvetica,sans-Serif" font-size="10.00">core/real_t.h</text>
</a>
</g>
</g>
<!-- Node4&#45;&gt;Node12 -->
<g id="edge11" class="edge">
<title>Node4&#45;&gt;Node12</title>
<path fill="none" stroke="midnightblue" d="M463.49,-224.4C482.43,-214.68 507.44,-201.86 526.04,-192.31"/>
<polygon fill="midnightblue" stroke="midnightblue" points="527.82,-195.34 535.12,-187.66 524.63,-189.11 527.82,-195.34"/>
</g>
<!-- Node13 -->
<g id="node13" class="node">
<title>Node13</title>
<g id="a_node13"><a xlink:href="log_8h.html" target="_top" xlink:title=" ">
<polygon fill="white" stroke="black" points="568.5,-112.5 568.5,-131.5 651.5,-131.5 651.5,-112.5 568.5,-112.5"/>
<text text-anchor="middle" x="610" y="-119.5" font-family="Helvetica,sans-Serif" font-size="10.00">core/util/log.h</text>
</a>
</g>
</g>
<!-- Node4&#45;&gt;Node13 -->
<g id="edge12" class="edge">
<title>Node4&#45;&gt;Node13</title>
<path fill="none" stroke="midnightblue" d="M493.56,-235.43C529.09,-230.4 572.76,-217.98 599,-188 609.94,-175.5 612.01,-156.27 611.75,-141.96"/>
<polygon fill="midnightblue" stroke="midnightblue" points="615.24,-141.56 611.17,-131.77 608.25,-141.96 615.24,-141.56"/>
</g>
<!-- Node23 -->
<g id="node23" class="node">
<title>Node23</title>
<g id="a_node23"><a xlink:href="root_8h.html" target="_top" xlink:title=" ">
<polygon fill="white" stroke="black" points="647,-168.5 647,-187.5 735,-187.5 735,-168.5 647,-168.5"/>
<text text-anchor="middle" x="691" y="-175.5" font-family="Helvetica,sans-Serif" font-size="10.00">core/util/root.h</text>
</a>
</g>
</g>
<!-- Node4&#45;&gt;Node23 -->
<g id="edge23" class="edge">
<title>Node4&#45;&gt;Node23</title>
<path fill="none" stroke="midnightblue" d="M493.54,-225.07C539.24,-214.41 602.29,-199.7 644.75,-189.79"/>
<polygon fill="midnightblue" stroke="midnightblue" points="645.6,-193.19 654.54,-187.51 644.01,-186.37 645.6,-193.19"/>
</g>
<!-- Node14 -->
<g id="node14" class="node">
<title>Node14</title>
<g id="a_node14"><a xlink:title=" ">
<polygon fill="white" stroke="#bfbfbf" points="347,-56.5 347,-75.5 401,-75.5 401,-56.5 347,-56.5"/>
<text text-anchor="middle" x="374" y="-63.5" font-family="Helvetica,sans-Serif" font-size="10.00">TError.h</text>
</a>
</g>
</g>
<!-- Node13&#45;&gt;Node14 -->
<g id="edge13" class="edge">
<title>Node13&#45;&gt;Node14</title>
<path fill="none" stroke="midnightblue" d="M570.85,-112.48C532.53,-104.07 472.26,-90.69 410.96,-76.19"/>
<polygon fill="midnightblue" stroke="midnightblue" points="411.65,-72.75 401.11,-73.85 410.03,-79.56 411.65,-72.75"/>
</g>
<!-- Node15 -->
<g id="node15" class="node">
<title>Node15</title>
<g id="a_node15"><a xlink:title=" ">
<polygon fill="white" stroke="#bfbfbf" points="419,-56.5 419,-75.5 465,-75.5 465,-56.5 419,-56.5"/>
<text text-anchor="middle" x="442" y="-63.5" font-family="Helvetica,sans-Serif" font-size="10.00">cstdio</text>
</a>
</g>
</g>
<!-- Node13&#45;&gt;Node15 -->
<g id="edge14" class="edge">
<title>Node13&#45;&gt;Node15</title>
<path fill="none" stroke="midnightblue" d="M583.38,-112.44C553.99,-103 506.66,-87.78 474.95,-77.59"/>
<polygon fill="midnightblue" stroke="midnightblue" points="475.84,-74.2 465.25,-74.47 473.7,-80.87 475.84,-74.2"/>
</g>
<!-- Node16 -->
<g id="node16" class="node">
<title>Node16</title>
<g id="a_node16"><a xlink:title=" ">
<polygon fill="white" stroke="#bfbfbf" points="483.5,-56.5 483.5,-75.5 532.5,-75.5 532.5,-56.5 483.5,-56.5"/>
<text text-anchor="middle" x="508" y="-63.5" font-family="Helvetica,sans-Serif" font-size="10.00">cstdlib</text>
</a>
</g>
</g>
<!-- Node13&#45;&gt;Node16 -->
<g id="edge15" class="edge">
<title>Node13&#45;&gt;Node16</title>
<path fill="none" stroke="midnightblue" d="M593.61,-112.32C577.33,-103.7 552.13,-90.36 533.28,-80.39"/>
<polygon fill="midnightblue" stroke="midnightblue" points="534.82,-77.24 524.35,-75.65 531.55,-83.43 534.82,-77.24"/>
</g>
<!-- Node17 -->
<g id="node17" class="node">
<title>Node17</title>
<g id="a_node17"><a xlink:title=" ">
<polygon fill="white" stroke="#bfbfbf" points="550.5,-56.5 550.5,-75.5 615.5,-75.5 615.5,-56.5 550.5,-56.5"/>
<text text-anchor="middle" x="583" y="-63.5" font-family="Helvetica,sans-Serif" font-size="10.00">functional</text>
</a>
</g>
</g>
<!-- Node13&#45;&gt;Node17 -->
<g id="edge16" class="edge">
<title>Node13&#45;&gt;Node17</title>
<path fill="none" stroke="midnightblue" d="M605.54,-112.08C601.85,-104.69 596.48,-93.95 591.91,-84.81"/>
<polygon fill="midnightblue" stroke="midnightblue" points="594.98,-83.13 587.38,-75.75 588.72,-86.26 594.98,-83.13"/>
</g>
<!-- Node18 -->
<g id="node18" class="node">
<title>Node18</title>
<g id="a_node18"><a xlink:title=" ">
<polygon fill="white" stroke="#bfbfbf" points="634,-56.5 634,-75.5 694,-75.5 694,-56.5 634,-56.5"/>
<text text-anchor="middle" x="664" y="-63.5" font-family="Helvetica,sans-Serif" font-size="10.00">iostream</text>
</a>
</g>
</g>
<!-- Node13&#45;&gt;Node18 -->
<g id="edge17" class="edge">
<title>Node13&#45;&gt;Node18</title>
<path fill="none" stroke="midnightblue" d="M618.92,-112.08C626.78,-104.22 638.43,-92.57 647.92,-83.08"/>
<polygon fill="midnightblue" stroke="midnightblue" points="650.65,-85.3 655.25,-75.75 645.7,-80.35 650.65,-85.3"/>
</g>
<!-- Node19 -->
<g id="node19" class="node">
<title>Node19</title>
<g id="a_node19"><a xlink:title=" ">
<polygon fill="white" stroke="#bfbfbf" points="704,-0.5 704,-19.5 748,-19.5 748,-0.5 704,-0.5"/>
<text text-anchor="middle" x="726" y="-7.5" font-family="Helvetica,sans-Serif" font-size="10.00">string</text>
</a>
</g>
</g>
<!-- Node13&#45;&gt;Node19 -->
<g id="edge18" class="edge">
<title>Node13&#45;&gt;Node19</title>
<path fill="none" stroke="midnightblue" d="M641.87,-112.44C661.87,-105.57 686.85,-94.04 703,-76 714.59,-63.05 720.43,-43.88 723.32,-29.71"/>
<polygon fill="midnightblue" stroke="midnightblue" points="726.81,-30.09 725.05,-19.64 719.91,-28.9 726.81,-30.09"/>
</g>
<!-- Node13&#45;&gt;Node20 -->
<g id="edge19" class="edge">
<title>Node13&#45;&gt;Node20</title>
<path fill="none" stroke="midnightblue" d="M639.79,-112.44C671.83,-103.24 722.93,-88.56 758.35,-78.39"/>
<polygon fill="midnightblue" stroke="midnightblue" points="759.71,-81.64 768.35,-75.52 757.77,-74.91 759.71,-81.64"/>
</g>
<!-- Node20&#45;&gt;Node19 -->
<g id="edge21" class="edge">
<title>Node20&#45;&gt;Node19</title>
<path fill="none" stroke="midnightblue" d="M786.43,-56.32C775.58,-48.18 759.12,-35.84 746.12,-26.09"/>
<polygon fill="midnightblue" stroke="midnightblue" points="747.88,-23.03 737.78,-19.83 743.68,-28.63 747.88,-23.03"/>
</g>
<!-- Node21 -->
<g id="node21" class="node">
<title>Node21</title>
<g id="a_node21"><a xlink:title=" ">
<polygon fill="white" stroke="#bfbfbf" points="768,-0.5 768,-19.5 824,-19.5 824,-0.5 768,-0.5"/>
<text text-anchor="middle" x="796" y="-7.5" font-family="Helvetica,sans-Serif" font-size="10.00">sstream</text>
</a>
</g>
</g>
<!-- Node20&#45;&gt;Node21 -->
<g id="edge20" class="edge">
<title>Node20&#45;&gt;Node21</title>
<path fill="none" stroke="midnightblue" d="M797.67,-56.08C797.41,-49.01 797.03,-38.86 796.7,-29.99"/>
<polygon fill="midnightblue" stroke="midnightblue" points="800.19,-29.61 796.32,-19.75 793.2,-29.87 800.19,-29.61"/>
</g>
<!-- Node22 -->
<g id="node22" class="node">
<title>Node22</title>
<g id="a_node22"><a xlink:title=" ">
<polygon fill="white" stroke="#bfbfbf" points="842.5,-0.5 842.5,-19.5 889.5,-19.5 889.5,-0.5 842.5,-0.5"/>
<text text-anchor="middle" x="866" y="-7.5" font-family="Helvetica,sans-Serif" font-size="10.00">vector</text>
</a>
</g>
</g>
<!-- Node20&#45;&gt;Node22 -->
<g id="edge22" class="edge">
<title>Node20&#45;&gt;Node22</title>
<path fill="none" stroke="midnightblue" d="M808.93,-56.32C819.17,-48.18 834.72,-35.84 847,-26.09"/>
<polygon fill="midnightblue" stroke="midnightblue" points="849.22,-28.79 854.88,-19.83 844.87,-23.31 849.22,-28.79"/>
</g>
<!-- Node23&#45;&gt;Node13 -->
<g id="edge25" class="edge">
<title>Node23&#45;&gt;Node13</title>
<path fill="none" stroke="midnightblue" d="M677.99,-168.32C665.47,-159.98 646.32,-147.21 631.53,-137.35"/>
<polygon fill="midnightblue" stroke="midnightblue" points="633.24,-134.29 622.98,-131.65 629.36,-140.11 633.24,-134.29"/>
</g>
<!-- Node24 -->
<g id="node24" class="node">
<title>Node24</title>
<g id="a_node24"><a xlink:title=" ">
<polygon fill="white" stroke="#bfbfbf" points="669.5,-112.5 669.5,-131.5 726.5,-131.5 726.5,-112.5 669.5,-112.5"/>
<text text-anchor="middle" x="698" y="-119.5" font-family="Helvetica,sans-Serif" font-size="10.00">TClass.h</text>
</a>
</g>
</g>
<!-- Node23&#45;&gt;Node24 -->
<g id="edge24" class="edge">
<title>Node23&#45;&gt;Node24</title>
<path fill="none" stroke="midnightblue" d="M692.16,-168.08C693.08,-160.93 694.42,-150.64 695.58,-141.69"/>
<polygon fill="midnightblue" stroke="midnightblue" points="699.05,-142.12 696.87,-131.75 692.11,-141.22 699.05,-142.12"/>
</g>
</g>
</svg>
