<?xml version="1.0" encoding="UTF-8" standalone="no"?>
<!DOCTYPE svg PUBLIC "-//W3C//DTD SVG 1.1//EN"
 "http://www.w3.org/Graphics/SVG/1.1/DTD/svg11.dtd">
<!-- Generated by graphviz version 2.38.0 (20140413.2041)
 -->
<!-- Title: core/util/type.h Pages: 1 -->
<svg width="2291pt" height="520pt"
 viewBox="0.00 0.00 2291.00 520.00" xmlns="http://www.w3.org/2000/svg" xmlns:xlink="http://www.w3.org/1999/xlink">
<g id="graph0" class="graph" transform="scale(1 1) rotate(0) translate(4 516)">
<title>core/util/type.h</title>
<polygon fill="white" stroke="none" points="-4,4 -4,-516 2287,-516 2287,4 -4,4"/>
<!-- Node1 -->
<g id="node1" class="node"><title>Node1</title>
<polygon fill="#bfbfbf" stroke="black" points="1063,-492.5 1063,-511.5 1151,-511.5 1151,-492.5 1063,-492.5"/>
<text text-anchor="middle" x="1107" y="-499.5" font-family="Helvetica,sans-Serif" font-size="10.00">core/util/type.h</text>
</g>
<!-- Node2 -->
<g id="node2" class="node"><title>Node2</title>
<g id="a_node2"><a xlink:href="biology__module_8h.html" target="_top" xlink:title="core/biology_module\l/biology_module.h">
<polygon fill="white" stroke="black" points="386,-246.5 386,-276.5 502,-276.5 502,-246.5 386,-246.5"/>
<text text-anchor="start" x="394" y="-264.5" font-family="Helvetica,sans-Serif" font-size="10.00">core/biology_module</text>
<text text-anchor="middle" x="444" y="-253.5" font-family="Helvetica,sans-Serif" font-size="10.00">/biology_module.h</text>
</a>
</g>
</g>
<!-- Node1&#45;&gt;Node2 -->
<g id="edge1" class="edge"><title>Node1&#45;&gt;Node2</title>
<path fill="none" stroke="midnightblue" d="M1052.8,-499.549C856.55,-493.743 191.304,-469.069 129,-400 51.0633,-313.6 274.626,-279.045 385.593,-267.484"/>
<polygon fill="midnightblue" stroke="midnightblue" points="1052.78,-503.049 1062.88,-499.842 1052.99,-496.052 1052.78,-503.049"/>
</g>
<!-- Node6 -->
<g id="node6" class="node"><title>Node6</title>
<g id="a_node6"><a xlink:href="sim__object_8cc.html" target="_top" xlink:title="core/sim_object/sim\l_object.cc">
<polygon fill="white" stroke="black" points="196.5,-112.5 196.5,-142.5 309.5,-142.5 309.5,-112.5 196.5,-112.5"/>
<text text-anchor="start" x="204.5" y="-130.5" font-family="Helvetica,sans-Serif" font-size="10.00">core/sim_object/sim</text>
<text text-anchor="middle" x="253" y="-119.5" font-family="Helvetica,sans-Serif" font-size="10.00">_object.cc</text>
</a>
</g>
</g>
<!-- Node1&#45;&gt;Node6 -->
<g id="edge77" class="edge"><title>Node1&#45;&gt;Node6</title>
<path fill="none" stroke="midnightblue" d="M1052.56,-500.893C886.813,-500.143 390.232,-494.643 234,-456 176.476,-441.772 144.911,-449.932 113,-400 53.0262,-306.158 185.655,-183.58 235.254,-142.558"/>
<polygon fill="midnightblue" stroke="midnightblue" points="1052.97,-504.395 1062.99,-500.936 1053,-497.395 1052.97,-504.395"/>
</g>
<!-- Node7 -->
<g id="node7" class="node"><title>Node7</title>
<g id="a_node7"><a xlink:href="core_2param_2param_8h.html" target="_top" xlink:title="core/param/param.h">
<polygon fill="white" stroke="black" points="775,-436.5 775,-455.5 891,-455.5 891,-436.5 775,-436.5"/>
<text text-anchor="middle" x="833" y="-443.5" font-family="Helvetica,sans-Serif" font-size="10.00">core/param/param.h</text>
</a>
</g>
</g>
<!-- Node1&#45;&gt;Node7 -->
<g id="edge8" class="edge"><title>Node1&#45;&gt;Node7</title>
<path fill="none" stroke="midnightblue" d="M1053.59,-490.473C1001.8,-480.268 924.229,-464.979 876.213,-455.516"/>
<polygon fill="midnightblue" stroke="midnightblue" points="1053.1,-493.944 1063.58,-492.444 1054.45,-487.076 1053.1,-493.944"/>
</g>
<!-- Node11 -->
<g id="node11" class="node"><title>Node11</title>
<g id="a_node11"><a xlink:href="default__force_8cc.html" target="_top" xlink:title="core/default_force.cc">
<polygon fill="white" stroke="black" points="2167,-118 2167,-137 2283,-137 2283,-118 2167,-118"/>
<text text-anchor="middle" x="2225" y="-125" font-family="Helvetica,sans-Serif" font-size="10.00">core/default_force.cc</text>
</a>
</g>
</g>
<!-- Node1&#45;&gt;Node11 -->
<g id="edge75" class="edge"><title>Node1&#45;&gt;Node11</title>
<path fill="none" stroke="midnightblue" d="M1161.15,-501.289C1381.36,-501.762 2198,-496.41 2198,-391 2198,-391 2198,-391 2198,-260.5 2198,-213.016 2214.98,-157.837 2222.01,-137.025"/>
<polygon fill="midnightblue" stroke="midnightblue" points="1161.13,-497.789 1151.12,-501.262 1161.11,-504.789 1161.13,-497.789"/>
</g>
<!-- Node16 -->
<g id="node16" class="node"><title>Node16</title>
<g id="a_node16"><a xlink:href="displacement__op__cuda_8h.html" target="_top" xlink:title="core/operation/displacement\l_op_cuda.h">
<polygon fill="white" stroke="black" points="1380,-246.5 1380,-276.5 1534,-276.5 1534,-246.5 1380,-246.5"/>
<text text-anchor="start" x="1388" y="-264.5" font-family="Helvetica,sans-Serif" font-size="10.00">core/operation/displacement</text>
<text text-anchor="middle" x="1457" y="-253.5" font-family="Helvetica,sans-Serif" font-size="10.00">_op_cuda.h</text>
</a>
</g>
</g>
<!-- Node1&#45;&gt;Node16 -->
<g id="edge76" class="edge"><title>Node1&#45;&gt;Node16</title>
<path fill="none" stroke="midnightblue" d="M1161.4,-496.169C1225.19,-489.665 1326.24,-476.489 1358,-456 1423.48,-413.756 1447.74,-313.759 1454.67,-276.668"/>
<polygon fill="midnightblue" stroke="midnightblue" points="1160.72,-492.72 1151.12,-497.193 1161.41,-499.685 1160.72,-492.72"/>
</g>
<!-- Node20 -->
<g id="node20" class="node"><title>Node20</title>
<g id="a_node20"><a xlink:href="resource__manager_8h.html" target="_top" xlink:title="core/resource_manager.h">
<polygon fill="white" stroke="black" points="956,-319 956,-338 1096,-338 1096,-319 956,-319"/>
<text text-anchor="middle" x="1026" y="-326" font-family="Helvetica,sans-Serif" font-size="10.00">core/resource_manager.h</text>
</a>
</g>
</g>
<!-- Node1&#45;&gt;Node20 -->
<g id="edge74" class="edge"><title>Node1&#45;&gt;Node20</title>
<path fill="none" stroke="midnightblue" d="M1161.04,-495.112C1252.64,-483.075 1422.78,-450.603 1362,-380 1328.42,-340.996 1184.5,-331.701 1096.27,-329.737"/>
<polygon fill="midnightblue" stroke="midnightblue" points="1160.57,-491.644 1151.09,-496.38 1161.45,-498.588 1160.57,-491.644"/>
</g>
<!-- Node3 -->
<g id="node3" class="node"><title>Node3</title>
<g id="a_node3"><a xlink:href="biodynamo_8h.html" target="_top" xlink:title="biodynamo.h">
<polygon fill="white" stroke="black" points="528.5,-118 528.5,-137 607.5,-137 607.5,-118 528.5,-118"/>
<text text-anchor="middle" x="568" y="-125" font-family="Helvetica,sans-Serif" font-size="10.00">biodynamo.h</text>
</a>
</g>
</g>
<!-- Node2&#45;&gt;Node3 -->
<g id="edge2" class="edge"><title>Node2&#45;&gt;Node3</title>
<path fill="none" stroke="midnightblue" d="M425.328,-237.995C413.333,-220.653 402.187,-196.722 415,-179 428.439,-160.412 487.45,-144.915 528.129,-136.177"/>
<polygon fill="midnightblue" stroke="midnightblue" points="422.788,-240.446 431.555,-246.395 428.412,-236.277 422.788,-240.446"/>
</g>
<!-- Node4 -->
<g id="node4" class="node"><title>Node4</title>
<g id="a_node4"><a xlink:href="grow__divide_8h.html" target="_top" xlink:title="core/biology_module\l/grow_divide.h">
<polygon fill="white" stroke="black" points="672,-179.5 672,-209.5 788,-209.5 788,-179.5 672,-179.5"/>
<text text-anchor="start" x="680" y="-197.5" font-family="Helvetica,sans-Serif" font-size="10.00">core/biology_module</text>
<text text-anchor="middle" x="730" y="-186.5" font-family="Helvetica,sans-Serif" font-size="10.00">/grow_divide.h</text>
</a>
</g>
</g>
<!-- Node2&#45;&gt;Node4 -->
<g id="edge3" class="edge"><title>Node2&#45;&gt;Node4</title>
<path fill="none" stroke="midnightblue" d="M512.043,-245.036C560.732,-233.97 625.585,-219.231 671.86,-208.714"/>
<polygon fill="midnightblue" stroke="midnightblue" points="511.197,-241.639 502.221,-247.268 512.748,-248.465 511.197,-241.639"/>
</g>
<!-- Node5 -->
<g id="node5" class="node"><title>Node5</title>
<g id="a_node5"><a xlink:href="regulate__genes_8h.html" target="_top" xlink:title="core/biology_module\l/regulate_genes.h">
<polygon fill="white" stroke="black" points="424,-179.5 424,-209.5 540,-209.5 540,-179.5 424,-179.5"/>
<text text-anchor="start" x="432" y="-197.5" font-family="Helvetica,sans-Serif" font-size="10.00">core/biology_module</text>
<text text-anchor="middle" x="482" y="-186.5" font-family="Helvetica,sans-Serif" font-size="10.00">/regulate_genes.h</text>
</a>
</g>
</g>
<!-- Node2&#45;&gt;Node5 -->
<g id="edge5" class="edge"><title>Node2&#45;&gt;Node5</title>
<path fill="none" stroke="midnightblue" d="M457.402,-237.576C462.859,-228.241 468.993,-217.748 473.771,-209.577"/>
<polygon fill="midnightblue" stroke="midnightblue" points="454.271,-235.997 452.245,-246.396 460.314,-239.529 454.271,-235.997"/>
</g>
<!-- Node2&#45;&gt;Node6 -->
<g id="edge7" class="edge"><title>Node2&#45;&gt;Node6</title>
<path fill="none" stroke="midnightblue" d="M415.238,-240.623C376.189,-213.636 307.371,-166.076 273.293,-142.525"/>
<polygon fill="midnightblue" stroke="midnightblue" points="413.343,-243.568 423.56,-246.374 417.323,-237.809 413.343,-243.568"/>
</g>
<!-- Node4&#45;&gt;Node3 -->
<g id="edge4" class="edge"><title>Node4&#45;&gt;Node3</title>
<path fill="none" stroke="midnightblue" d="M685.441,-175.621C654.085,-163.04 613.525,-146.766 589.202,-137.007"/>
<polygon fill="midnightblue" stroke="midnightblue" points="684.264,-178.92 694.848,-179.396 686.871,-172.424 684.264,-178.92"/>
</g>
<!-- Node5&#45;&gt;Node3 -->
<g id="edge6" class="edge"><title>Node5&#45;&gt;Node3</title>
<path fill="none" stroke="midnightblue" d="M508.67,-173.343C524.719,-161.213 544.332,-146.389 556.496,-137.195"/>
<polygon fill="midnightblue" stroke="midnightblue" points="506.528,-170.574 500.661,-179.396 510.749,-176.158 506.528,-170.574"/>
</g>
<!-- Node7&#45;&gt;Node3 -->
<g id="edge58" class="edge"><title>Node7&#45;&gt;Node3</title>
<path fill="none" stroke="midnightblue" d="M764.522,-443.623C686.003,-437.978 568,-415.234 568,-329.5 568,-329.5 568,-329.5 568,-260.5 568,-213.979 568,-158.236 568,-137.149"/>
<polygon fill="midnightblue" stroke="midnightblue" points="764.641,-447.137 774.845,-444.284 765.089,-440.152 764.641,-447.137"/>
</g>
<!-- Node7&#45;&gt;Node5 -->
<g id="edge25" class="edge"><title>Node7&#45;&gt;Node5</title>
<path fill="none" stroke="midnightblue" d="M764.539,-442.255C692.149,-437.947 584.295,-427.068 554,-400 501.009,-352.652 538.462,-311.542 511,-246 505.608,-233.132 497.602,-219.463 491.368,-209.595"/>
<polygon fill="midnightblue" stroke="midnightblue" points="764.767,-445.773 774.949,-442.844 765.162,-438.785 764.767,-445.773"/>
</g>
<!-- Node8 -->
<g id="node8" class="node"><title>Node8</title>
<g id="a_node8"><a xlink:href="cell_8h.html" target="_top" xlink:title="core/sim_object/cell.h">
<polygon fill="white" stroke="black" points="1633,-319 1633,-338 1753,-338 1753,-319 1633,-319"/>
<text text-anchor="middle" x="1693" y="-326" font-family="Helvetica,sans-Serif" font-size="10.00">core/sim_object/cell.h</text>
</a>
</g>
</g>
<!-- Node7&#45;&gt;Node8 -->
<g id="edge9" class="edge"><title>Node7&#45;&gt;Node8</title>
<path fill="none" stroke="midnightblue" d="M901.241,-444.936C1059.89,-444.132 1449.52,-438.2 1574,-400 1617.85,-386.545 1662.51,-353.923 1682.36,-338.225"/>
<polygon fill="midnightblue" stroke="midnightblue" points="901.114,-441.437 891.13,-444.982 901.146,-448.437 901.114,-441.437"/>
</g>
<!-- Node15 -->
<g id="node15" class="node"><title>Node15</title>
<g id="a_node15"><a xlink:href="exporter_8cc.html" target="_top" xlink:title="core/exporter.cc">
<polygon fill="white" stroke="black" points="1552,-252 1552,-271 1646,-271 1646,-252 1552,-252"/>
<text text-anchor="middle" x="1599" y="-259" font-family="Helvetica,sans-Serif" font-size="10.00">core/exporter.cc</text>
</a>
</g>
</g>
<!-- Node7&#45;&gt;Node15 -->
<g id="edge59" class="edge"><title>Node7&#45;&gt;Node15</title>
<path fill="none" stroke="midnightblue" d="M901.649,-443.431C1028.34,-439.866 1293.92,-429.081 1381,-400 1470.13,-370.234 1559.73,-296.777 1589.05,-271.34"/>
<polygon fill="midnightblue" stroke="midnightblue" points="901.2,-439.942 891.3,-443.715 901.392,-446.939 901.2,-439.942"/>
</g>
<!-- Node19 -->
<g id="node19" class="node"><title>Node19</title>
<g id="a_node19"><a xlink:href="diffusion__grid_8h.html" target="_top" xlink:title="core/diffusion_grid.h">
<polygon fill="white" stroke="black" points="653.5,-380.5 653.5,-399.5 766.5,-399.5 766.5,-380.5 653.5,-380.5"/>
<text text-anchor="middle" x="710" y="-387.5" font-family="Helvetica,sans-Serif" font-size="10.00">core/diffusion_grid.h</text>
</a>
</g>
</g>
<!-- Node7&#45;&gt;Node19 -->
<g id="edge26" class="edge"><title>Node7&#45;&gt;Node19</title>
<path fill="none" stroke="midnightblue" d="M804.227,-432.368C781.193,-422.255 749.516,-408.349 729.399,-399.516"/>
<polygon fill="midnightblue" stroke="midnightblue" points="802.947,-435.628 813.51,-436.444 805.761,-429.219 802.947,-435.628"/>
</g>
<!-- Node22 -->
<g id="node22" class="node"><title>Node22</title>
<g id="a_node22"><a xlink:href="grid_8h.html" target="_top" xlink:title="core/grid.h">
<polygon fill="white" stroke="black" points="887,-185 887,-204 955,-204 955,-185 887,-185"/>
<text text-anchor="middle" x="921" y="-192" font-family="Helvetica,sans-Serif" font-size="10.00">core/grid.h</text>
</a>
</g>
</g>
<!-- Node7&#45;&gt;Node22 -->
<g id="edge57" class="edge"><title>Node7&#45;&gt;Node22</title>
<path fill="none" stroke="midnightblue" d="M835.202,-426.105C839.982,-389.726 853.351,-308.07 883,-246 890.756,-229.763 904.17,-213.604 912.809,-204.087"/>
<polygon fill="midnightblue" stroke="midnightblue" points="831.703,-425.888 833.943,-436.243 838.649,-426.751 831.703,-425.888"/>
</g>
<!-- Node24 -->
<g id="node24" class="node"><title>Node24</title>
<g id="a_node24"><a xlink:href="diffusion__op_8h.html" target="_top" xlink:title="core/operation/diffusion_op.h">
<polygon fill="white" stroke="black" points="327.5,-118 327.5,-137 482.5,-137 482.5,-118 327.5,-118"/>
<text text-anchor="middle" x="405" y="-125" font-family="Helvetica,sans-Serif" font-size="10.00">core/operation/diffusion_op.h</text>
</a>
</g>
</g>
<!-- Node7&#45;&gt;Node24 -->
<g id="edge64" class="edge"><title>Node7&#45;&gt;Node24</title>
<path fill="none" stroke="midnightblue" d="M764.488,-444.013C631.847,-441.389 350.37,-432.065 321,-400 312.861,-391.115 279.913,-317.033 352,-179 361.296,-161.2 379.306,-146.136 391.733,-137.21"/>
<polygon fill="midnightblue" stroke="midnightblue" points="764.48,-447.514 774.545,-444.205 764.613,-440.515 764.48,-447.514"/>
</g>
<!-- Node25 -->
<g id="node25" class="node"><title>Node25</title>
<g id="a_node25"><a xlink:href="scheduler_8cc.html" target="_top" xlink:title="core/scheduler.cc">
<polygon fill="white" stroke="black" points="744,-0.5 744,-19.5 844,-19.5 844,-0.5 744,-0.5"/>
<text text-anchor="middle" x="794" y="-7.5" font-family="Helvetica,sans-Serif" font-size="10.00">core/scheduler.cc</text>
</a>
</g>
</g>
<!-- Node7&#45;&gt;Node25 -->
<g id="edge71" class="edge"><title>Node7&#45;&gt;Node25</title>
<path fill="none" stroke="midnightblue" d="M764.493,-442.887C630.945,-438.225 345.601,-425.398 309,-400 194.792,-320.75 97.1326,-218.056 187,-112 258.481,-27.6425 611.235,-13.6707 743.655,-11.4127"/>
<polygon fill="midnightblue" stroke="midnightblue" points="764.5,-446.389 774.614,-443.235 764.74,-439.393 764.5,-446.389"/>
</g>
<!-- Node26 -->
<g id="node26" class="node"><title>Node26</title>
<g id="a_node26"><a xlink:href="displacement__op__cpu_8h.html" target="_top" xlink:title="core/operation/displacement\l_op_cpu.h">
<polygon fill="white" stroke="black" points="1094,-112.5 1094,-142.5 1248,-142.5 1248,-112.5 1094,-112.5"/>
<text text-anchor="start" x="1102" y="-130.5" font-family="Helvetica,sans-Serif" font-size="10.00">core/operation/displacement</text>
<text text-anchor="middle" x="1171" y="-119.5" font-family="Helvetica,sans-Serif" font-size="10.00">_op_cpu.h</text>
</a>
</g>
</g>
<!-- Node7&#45;&gt;Node26 -->
<g id="edge65" class="edge"><title>Node7&#45;&gt;Node26</title>
<path fill="none" stroke="midnightblue" d="M901.172,-436.837C962.611,-425.955 1051.3,-400.925 1105,-344 1160.58,-285.081 1169.43,-180.546 1170.78,-142.687"/>
<polygon fill="midnightblue" stroke="midnightblue" points="900.452,-433.409 891.175,-438.526 901.618,-440.312 900.452,-433.409"/>
</g>
<!-- Node27 -->
<g id="node27" class="node"><title>Node27</title>
<g id="a_node27"><a xlink:href="displacement__op_8h.html" target="_top" xlink:title="core/operation/displacement_op.h">
<polygon fill="white" stroke="black" points="874,-56.5 874,-75.5 1054,-75.5 1054,-56.5 874,-56.5"/>
<text text-anchor="middle" x="964" y="-63.5" font-family="Helvetica,sans-Serif" font-size="10.00">core/operation/displacement_op.h</text>
</a>
</g>
</g>
<!-- Node7&#45;&gt;Node27 -->
<g id="edge66" class="edge"><title>Node7&#45;&gt;Node27</title>
<path fill="none" stroke="midnightblue" d="M901.422,-439.289C947.078,-433.572 1007.57,-422.254 1057,-400 1188.98,-340.583 1217.01,-282.099 1257,-143 1260.81,-129.759 1265.97,-122.456 1257,-112 1231.19,-81.9273 1130.41,-71.7513 1054.19,-68.4165"/>
<polygon fill="midnightblue" stroke="midnightblue" points="900.844,-435.833 891.329,-440.492 901.673,-442.783 900.844,-435.833"/>
</g>
<!-- Node29 -->
<g id="node29" class="node"><title>Node29</title>
<g id="a_node29"><a xlink:href="simulation_8cc.html" target="_top" xlink:title="core/simulation.cc">
<polygon fill="white" stroke="black" points="626,-118 626,-137 730,-137 730,-118 626,-118"/>
<text text-anchor="middle" x="678" y="-125" font-family="Helvetica,sans-Serif" font-size="10.00">core/simulation.cc</text>
</a>
</g>
</g>
<!-- Node7&#45;&gt;Node29 -->
<g id="edge72" class="edge"><title>Node7&#45;&gt;Node29</title>
<path fill="none" stroke="midnightblue" d="M832.808,-426.154C831.899,-372.097 826.702,-217.91 797,-179 779.91,-156.611 750.977,-144.038 725.92,-137.036"/>
<polygon fill="midnightblue" stroke="midnightblue" points="829.311,-426.4 832.946,-436.351 836.31,-426.304 829.311,-426.4"/>
</g>
<!-- Node32 -->
<g id="node32" class="node"><title>Node32</title>
<g id="a_node32"><a xlink:href="bound__space__op_8h.html" target="_top" xlink:title="core/operation/bound\l_space_op.h">
<polygon fill="white" stroke="black" points="1307.5,-313.5 1307.5,-343.5 1426.5,-343.5 1426.5,-313.5 1307.5,-313.5"/>
<text text-anchor="start" x="1315.5" y="-331.5" font-family="Helvetica,sans-Serif" font-size="10.00">core/operation/bound</text>
<text text-anchor="middle" x="1367" y="-320.5" font-family="Helvetica,sans-Serif" font-size="10.00">_space_op.h</text>
</a>
</g>
</g>
<!-- Node7&#45;&gt;Node32 -->
<g id="edge60" class="edge"><title>Node7&#45;&gt;Node32</title>
<path fill="none" stroke="midnightblue" d="M901.545,-444.039C1037.36,-441.443 1330.31,-432.143 1362,-400 1376.47,-385.321 1374.1,-359.547 1370.76,-343.561"/>
<polygon fill="midnightblue" stroke="midnightblue" points="901.191,-440.544 891.257,-444.228 901.32,-447.543 901.191,-440.544"/>
</g>
<!-- Node33 -->
<g id="node33" class="node"><title>Node33</title>
<g id="a_node33"><a xlink:href="timing_8h.html" target="_top" xlink:title="core/util/timing.h">
<polygon fill="white" stroke="black" points="138.5,-380.5 138.5,-399.5 235.5,-399.5 235.5,-380.5 138.5,-380.5"/>
<text text-anchor="middle" x="187" y="-387.5" font-family="Helvetica,sans-Serif" font-size="10.00">core/util/timing.h</text>
</a>
</g>
</g>
<!-- Node7&#45;&gt;Node33 -->
<g id="edge67" class="edge"><title>Node7&#45;&gt;Node33</title>
<path fill="none" stroke="midnightblue" d="M764.764,-441.173C655.769,-434.735 435.735,-420.413 250,-400 245.387,-399.493 240.593,-398.91 235.799,-398.29"/>
<polygon fill="midnightblue" stroke="midnightblue" points="764.772,-444.679 774.96,-441.771 765.182,-437.691 764.772,-444.679"/>
</g>
<!-- Node35 -->
<g id="node35" class="node"><title>Node35</title>
<g id="a_node35"><a xlink:href="core_2param_2param_8cc.html" target="_top" xlink:title="core/param/param.cc">
<polygon fill="white" stroke="black" points="1233,-380.5 1233,-399.5 1353,-399.5 1353,-380.5 1233,-380.5"/>
<text text-anchor="middle" x="1293" y="-387.5" font-family="Helvetica,sans-Serif" font-size="10.00">core/param/param.cc</text>
</a>
</g>
</g>
<!-- Node7&#45;&gt;Node35 -->
<g id="edge70" class="edge"><title>Node7&#45;&gt;Node35</title>
<path fill="none" stroke="midnightblue" d="M901.281,-437.144C978.433,-428.242 1107.76,-413.249 1219,-400 1223.5,-399.464 1228.15,-398.907 1232.83,-398.344"/>
<polygon fill="midnightblue" stroke="midnightblue" points="900.745,-433.682 891.211,-438.305 901.547,-440.636 900.745,-433.682"/>
</g>
<!-- Node36 -->
<g id="node36" class="node"><title>Node36</title>
<g id="a_node36"><a xlink:href="module_8cc.html" target="_top" xlink:title="neuroscience/module.cc">
<polygon fill="white" stroke="black" points="330.5,-380.5 330.5,-399.5 463.5,-399.5 463.5,-380.5 330.5,-380.5"/>
<text text-anchor="middle" x="397" y="-387.5" font-family="Helvetica,sans-Serif" font-size="10.00">neuroscience/module.cc</text>
</a>
</g>
</g>
<!-- Node7&#45;&gt;Node36 -->
<g id="edge73" class="edge"><title>Node7&#45;&gt;Node36</title>
<path fill="none" stroke="midnightblue" d="M764.649,-436.534C682.351,-426.342 545.056,-409.337 463.564,-399.244"/>
<polygon fill="midnightblue" stroke="midnightblue" points="764.297,-440.018 774.652,-437.773 765.158,-433.071 764.297,-440.018"/>
</g>
<!-- Node8&#45;&gt;Node3 -->
<g id="edge11" class="edge"><title>Node8&#45;&gt;Node3</title>
<path fill="none" stroke="midnightblue" d="M1696.15,-308.861C1698.13,-290.16 1697.72,-261.913 1681,-246 1508.91,-82.2512 850.18,-188.355 617,-143 609.25,-141.492 600.966,-139.281 593.456,-137.036"/>
<polygon fill="midnightblue" stroke="midnightblue" points="1692.67,-308.455 1694.77,-318.84 1699.6,-309.413 1692.67,-308.455"/>
</g>
<!-- Node8&#45;&gt;Node4 -->
<g id="edge10" class="edge"><title>Node8&#45;&gt;Node4</title>
<path fill="none" stroke="midnightblue" d="M1690.03,-308.955C1685.86,-289.636 1676.25,-260.24 1655,-246 1583.2,-197.887 964.202,-216.216 878,-210 848.387,-207.865 815.513,-204.722 788.284,-201.907"/>
<polygon fill="midnightblue" stroke="midnightblue" points="1686.63,-309.788 1691.91,-318.975 1693.51,-308.502 1686.63,-309.788"/>
</g>
<!-- Node9 -->
<g id="node9" class="node"><title>Node9</title>
<g id="a_node9"><a xlink:href="neuron__soma_8h.html" target="_top" xlink:title="neuroscience/neuron\l_soma.h">
<polygon fill="white" stroke="black" points="2026.5,-246.5 2026.5,-276.5 2143.5,-276.5 2143.5,-246.5 2026.5,-246.5"/>
<text text-anchor="start" x="2034.5" y="-264.5" font-family="Helvetica,sans-Serif" font-size="10.00">neuroscience/neuron</text>
<text text-anchor="middle" x="2085" y="-253.5" font-family="Helvetica,sans-Serif" font-size="10.00">_soma.h</text>
</a>
</g>
</g>
<!-- Node8&#45;&gt;Node9 -->
<g id="edge12" class="edge"><title>Node8&#45;&gt;Node9</title>
<path fill="none" stroke="midnightblue" d="M1763.43,-317.672C1829.19,-308.224 1929.98,-293.047 2017,-277 2020.09,-276.431 2023.25,-275.828 2026.44,-275.203"/>
<polygon fill="midnightblue" stroke="midnightblue" points="1762.59,-314.257 1753.18,-319.139 1763.58,-321.187 1762.59,-314.257"/>
</g>
<!-- Node8&#45;&gt;Node15 -->
<g id="edge21" class="edge"><title>Node8&#45;&gt;Node15</title>
<path fill="none" stroke="midnightblue" d="M1671.91,-312.92C1653.33,-300.069 1626.88,-281.782 1611.48,-271.127"/>
<polygon fill="midnightblue" stroke="midnightblue" points="1670.11,-315.925 1680.32,-318.734 1674.09,-310.167 1670.11,-315.925"/>
</g>
<!-- Node8&#45;&gt;Node16 -->
<g id="edge22" class="edge"><title>Node8&#45;&gt;Node16</title>
<path fill="none" stroke="midnightblue" d="M1651.96,-316.198C1611.96,-305.179 1551.02,-288.394 1507.93,-276.528"/>
<polygon fill="midnightblue" stroke="midnightblue" points="1651.09,-319.587 1661.66,-318.869 1652.95,-312.839 1651.09,-319.587"/>
</g>
<!-- Node17 -->
<g id="node17" class="node"><title>Node17</title>
<g id="a_node17"><a xlink:href="dividing__cell__op_8h.html" target="_top" xlink:title="core/operation/dividing\l_cell_op.h">
<polygon fill="white" stroke="black" points="1740.5,-246.5 1740.5,-276.5 1865.5,-276.5 1865.5,-246.5 1740.5,-246.5"/>
<text text-anchor="start" x="1748.5" y="-264.5" font-family="Helvetica,sans-Serif" font-size="10.00">core/operation/dividing</text>
<text text-anchor="middle" x="1803" y="-253.5" font-family="Helvetica,sans-Serif" font-size="10.00">_cell_op.h</text>
</a>
</g>
</g>
<!-- Node8&#45;&gt;Node17 -->
<g id="edge23" class="edge"><title>Node8&#45;&gt;Node17</title>
<path fill="none" stroke="midnightblue" d="M1716.52,-313.604C1734.99,-302.689 1760.6,-287.553 1779.16,-276.589"/>
<polygon fill="midnightblue" stroke="midnightblue" points="1714.66,-310.633 1707.84,-318.734 1718.22,-316.66 1714.66,-310.633"/>
</g>
<!-- Node18 -->
<g id="node18" class="node"><title>Node18</title>
<g id="a_node18"><a xlink:href="cell_8cc.html" target="_top" xlink:title="core/sim_object/cell.cc">
<polygon fill="white" stroke="black" points="1883.5,-252 1883.5,-271 2008.5,-271 2008.5,-252 1883.5,-252"/>
<text text-anchor="middle" x="1946" y="-259" font-family="Helvetica,sans-Serif" font-size="10.00">core/sim_object/cell.cc</text>
</a>
</g>
</g>
<!-- Node8&#45;&gt;Node18 -->
<g id="edge24" class="edge"><title>Node8&#45;&gt;Node18</title>
<path fill="none" stroke="midnightblue" d="M1736.19,-316.404C1786.12,-303.576 1867.23,-282.736 1912.59,-271.083"/>
<polygon fill="midnightblue" stroke="midnightblue" points="1735.15,-313.057 1726.34,-318.936 1736.89,-319.837 1735.15,-313.057"/>
</g>
<!-- Node10 -->
<g id="node10" class="node"><title>Node10</title>
<g id="a_node10"><a xlink:href="neurite__element_8h.html" target="_top" xlink:title="neuroscience/neurite\l_element.h">
<polygon fill="white" stroke="black" points="1963.5,-179.5 1963.5,-209.5 2080.5,-209.5 2080.5,-179.5 1963.5,-179.5"/>
<text text-anchor="start" x="1971.5" y="-197.5" font-family="Helvetica,sans-Serif" font-size="10.00">neuroscience/neurite</text>
<text text-anchor="middle" x="2022" y="-186.5" font-family="Helvetica,sans-Serif" font-size="10.00">_element.h</text>
</a>
</g>
</g>
<!-- Node9&#45;&gt;Node10 -->
<g id="edge13" class="edge"><title>Node9&#45;&gt;Node10</title>
<path fill="none" stroke="midnightblue" d="M2064.19,-239.024C2054.8,-229.34 2043.98,-218.174 2035.64,-209.577"/>
<polygon fill="midnightblue" stroke="midnightblue" points="2061.86,-241.651 2071.33,-246.396 2066.88,-236.779 2061.86,-241.651"/>
</g>
<!-- Node12 -->
<g id="node12" class="node"><title>Node12</title>
<g id="a_node12"><a xlink:href="neuron__or__neurite_8cc.html" target="_top" xlink:title="neuroscience/neuron\l_or_neurite.cc">
<polygon fill="white" stroke="black" points="2031.5,-112.5 2031.5,-142.5 2148.5,-142.5 2148.5,-112.5 2031.5,-112.5"/>
<text text-anchor="start" x="2039.5" y="-130.5" font-family="Helvetica,sans-Serif" font-size="10.00">neuroscience/neuron</text>
<text text-anchor="middle" x="2090" y="-119.5" font-family="Helvetica,sans-Serif" font-size="10.00">_or_neurite.cc</text>
</a>
</g>
</g>
<!-- Node9&#45;&gt;Node12 -->
<g id="edge18" class="edge"><title>Node9&#45;&gt;Node12</title>
<path fill="none" stroke="midnightblue" d="M2087.25,-236.207C2087.94,-227.902 2088.61,-218.552 2089,-210 2090.08,-186.394 2090.18,-158.904 2090.11,-142.643"/>
<polygon fill="midnightblue" stroke="midnightblue" points="2083.75,-236.102 2086.37,-246.367 2090.72,-236.707 2083.75,-236.102"/>
</g>
<!-- Node13 -->
<g id="node13" class="node"><title>Node13</title>
<g id="a_node13"><a xlink:href="neuron__soma_8cc.html" target="_top" xlink:title="neuroscience/neuron\l_soma.cc">
<polygon fill="white" stroke="black" points="1721.5,-112.5 1721.5,-142.5 1838.5,-142.5 1838.5,-112.5 1721.5,-112.5"/>
<text text-anchor="start" x="1729.5" y="-130.5" font-family="Helvetica,sans-Serif" font-size="10.00">neuroscience/neuron</text>
<text text-anchor="middle" x="1780" y="-119.5" font-family="Helvetica,sans-Serif" font-size="10.00">_soma.cc</text>
</a>
</g>
</g>
<!-- Node9&#45;&gt;Node13 -->
<g id="edge19" class="edge"><title>Node9&#45;&gt;Node13</title>
<path fill="none" stroke="midnightblue" d="M2027.68,-243.362C1999.65,-234.408 1965.65,-222.681 1936,-210 1887.82,-189.395 1834.18,-159.82 1804.02,-142.542"/>
<polygon fill="midnightblue" stroke="midnightblue" points="2026.73,-246.735 2037.32,-246.411 2028.84,-240.06 2026.73,-246.735"/>
</g>
<!-- Node14 -->
<g id="node14" class="node"><title>Node14</title>
<g id="a_node14"><a xlink:href="neuroscience_8h.html" target="_top" xlink:title="neuroscience/neuroscience.h">
<polygon fill="white" stroke="black" points="1857,-118 1857,-137 2013,-137 2013,-118 1857,-118"/>
<text text-anchor="middle" x="1935" y="-125" font-family="Helvetica,sans-Serif" font-size="10.00">neuroscience/neuroscience.h</text>
</a>
</g>
</g>
<!-- Node9&#45;&gt;Node14 -->
<g id="edge20" class="edge"><title>Node9&#45;&gt;Node14</title>
<path fill="none" stroke="midnightblue" d="M2024.65,-243.261C1995.18,-233.692 1963.95,-221.442 1954,-210 1935.69,-188.954 1934.16,-153.633 1934.54,-137.288"/>
<polygon fill="midnightblue" stroke="midnightblue" points="2023.95,-246.712 2034.54,-246.398 2026.07,-240.039 2023.95,-246.712"/>
</g>
<!-- Node10&#45;&gt;Node11 -->
<g id="edge14" class="edge"><title>Node10&#45;&gt;Node11</title>
<path fill="none" stroke="midnightblue" d="M2075.81,-176.269C2115.37,-163.603 2167.43,-146.934 2198.43,-137.007"/>
<polygon fill="midnightblue" stroke="midnightblue" points="2074.5,-173.013 2066.05,-179.396 2076.64,-179.68 2074.5,-173.013"/>
</g>
<!-- Node10&#45;&gt;Node12 -->
<g id="edge15" class="edge"><title>Node10&#45;&gt;Node12</title>
<path fill="none" stroke="midnightblue" d="M2044.17,-172.311C2054.37,-162.561 2066.19,-151.259 2075.27,-142.577"/>
<polygon fill="midnightblue" stroke="midnightblue" points="2041.57,-169.956 2036.75,-179.396 2046.4,-175.016 2041.57,-169.956"/>
</g>
<!-- Node10&#45;&gt;Node13 -->
<g id="edge16" class="edge"><title>Node10&#45;&gt;Node13</title>
<path fill="none" stroke="midnightblue" d="M1960.01,-176.85C1920.55,-166.252 1870.01,-152.677 1832.54,-142.611"/>
<polygon fill="midnightblue" stroke="midnightblue" points="1959.22,-180.262 1969.79,-179.476 1961.04,-173.502 1959.22,-180.262"/>
</g>
<!-- Node10&#45;&gt;Node14 -->
<g id="edge17" class="edge"><title>Node10&#45;&gt;Node14</title>
<path fill="none" stroke="midnightblue" d="M1995.02,-173.343C1978.78,-161.213 1958.94,-146.389 1946.64,-137.195"/>
<polygon fill="midnightblue" stroke="midnightblue" points="1993.02,-176.215 2003.12,-179.396 1997.21,-170.607 1993.02,-176.215"/>
</g>
<!-- Node19&#45;&gt;Node20 -->
<g id="edge27" class="edge"><title>Node19&#45;&gt;Node20</title>
<path fill="none" stroke="midnightblue" d="M765.144,-378.617C826.34,-367.094 923.945,-348.716 980.809,-338.009"/>
<polygon fill="midnightblue" stroke="midnightblue" points="764.455,-375.185 755.275,-380.475 765.75,-382.064 764.455,-375.185"/>
</g>
<!-- Node19&#45;&gt;Node24 -->
<g id="edge55" class="edge"><title>Node19&#45;&gt;Node24</title>
<path fill="none" stroke="midnightblue" d="M650.519,-378.616C560.02,-361.469 394.579,-324.372 360,-277 353.159,-267.628 350.285,-209.419 362,-179 368.621,-161.807 383.763,-146.378 394.188,-137.225"/>
<polygon fill="midnightblue" stroke="midnightblue" points="649.896,-382.06 660.369,-380.459 651.184,-375.179 649.896,-382.06"/>
</g>
<!-- Node30 -->
<g id="node30" class="node"><title>Node30</title>
<g id="a_node30"><a xlink:href="model__initializer_8h.html" target="_top" xlink:title="core/model_initializer.h">
<polygon fill="white" stroke="black" points="596,-252 596,-271 722,-271 722,-252 596,-252"/>
<text text-anchor="middle" x="659" y="-259" font-family="Helvetica,sans-Serif" font-size="10.00">core/model_initializer.h</text>
</a>
</g>
</g>
<!-- Node19&#45;&gt;Node30 -->
<g id="edge54" class="edge"><title>Node19&#45;&gt;Node30</title>
<path fill="none" stroke="midnightblue" d="M666.874,-376.729C650.833,-369.84 634.287,-359.426 625,-344 610.133,-319.307 635.438,-286.929 649.931,-271.47"/>
<polygon fill="midnightblue" stroke="midnightblue" points="665.614,-379.994 676.201,-380.388 668.17,-373.478 665.614,-379.994"/>
</g>
<!-- Node31 -->
<g id="node31" class="node"><title>Node31</title>
<g id="a_node31"><a xlink:href="substance__initializers_8h.html" target="_top" xlink:title="core/substance_initializers.h">
<polygon fill="white" stroke="black" points="634,-319 634,-338 786,-338 786,-319 634,-319"/>
<text text-anchor="middle" x="710" y="-326" font-family="Helvetica,sans-Serif" font-size="10.00">core/substance_initializers.h</text>
</a>
</g>
</g>
<!-- Node19&#45;&gt;Node31 -->
<g id="edge56" class="edge"><title>Node19&#45;&gt;Node31</title>
<path fill="none" stroke="midnightblue" d="M710,-370.317C710,-359.496 710,-346.398 710,-338.009"/>
<polygon fill="midnightblue" stroke="midnightblue" points="706.5,-370.475 710,-380.475 713.5,-370.475 706.5,-370.475"/>
</g>
<!-- Node20&#45;&gt;Node3 -->
<g id="edge44" class="edge"><title>Node20&#45;&gt;Node3</title>
<path fill="none" stroke="midnightblue" d="M968.549,-316.88C894.215,-301.408 762.466,-268 663,-210 645.049,-199.533 643.728,-192.58 628,-179 610.687,-164.051 590.258,-146.974 578.258,-137"/>
<polygon fill="midnightblue" stroke="midnightblue" points="968.149,-320.371 978.648,-318.945 969.551,-313.513 968.149,-320.371"/>
</g>
<!-- Node20&#45;&gt;Node6 -->
<g id="edge51" class="edge"><title>Node20&#45;&gt;Node6</title>
<path fill="none" stroke="midnightblue" d="M945.55,-322.286C771.109,-310.863 372.628,-284.081 360,-277 304.844,-246.072 270.782,-173.494 258.348,-142.708"/>
<polygon fill="midnightblue" stroke="midnightblue" points="945.496,-325.79 955.703,-322.95 945.953,-318.805 945.496,-325.79"/>
</g>
<!-- Node20&#45;&gt;Node13 -->
<g id="edge53" class="edge"><title>Node20&#45;&gt;Node13</title>
<path fill="none" stroke="midnightblue" d="M1068.29,-316.34C1197.1,-282.341 1584.53,-180.089 1726.83,-142.533"/>
<polygon fill="midnightblue" stroke="midnightblue" points="1067.17,-313.013 1058.4,-318.949 1068.96,-319.781 1067.17,-313.013"/>
</g>
<!-- Node20&#45;&gt;Node15 -->
<g id="edge46" class="edge"><title>Node20&#45;&gt;Node15</title>
<path fill="none" stroke="midnightblue" d="M1106.54,-323.532C1208.69,-317.609 1389.97,-304.115 1543,-277 1551.7,-275.458 1561.04,-273.263 1569.55,-271.046"/>
<polygon fill="midnightblue" stroke="midnightblue" points="1106.08,-320.053 1096.3,-324.116 1106.48,-327.041 1106.08,-320.053"/>
</g>
<!-- Node20&#45;&gt;Node16 -->
<g id="edge48" class="edge"><title>Node20&#45;&gt;Node16</title>
<path fill="none" stroke="midnightblue" d="M1092.92,-317.408C1170.45,-305.715 1297.97,-286.483 1379.68,-274.161"/>
<polygon fill="midnightblue" stroke="midnightblue" points="1092.16,-313.983 1082.79,-318.936 1093.2,-320.905 1092.16,-313.983"/>
</g>
<!-- Node21 -->
<g id="node21" class="node"><title>Node21</title>
<g id="a_node21"><a xlink:href="sim__object__vector_8h.html" target="_top" xlink:title="core/container/sim\l_object_vector.h">
<polygon fill="white" stroke="black" points="892,-246.5 892,-276.5 998,-276.5 998,-246.5 892,-246.5"/>
<text text-anchor="start" x="900" y="-264.5" font-family="Helvetica,sans-Serif" font-size="10.00">core/container/sim</text>
<text text-anchor="middle" x="945" y="-253.5" font-family="Helvetica,sans-Serif" font-size="10.00">_object_vector.h</text>
</a>
</g>
</g>
<!-- Node20&#45;&gt;Node21 -->
<g id="edge28" class="edge"><title>Node20&#45;&gt;Node21</title>
<path fill="none" stroke="midnightblue" d="M1006.98,-312.237C993.54,-301.452 975.658,-287.102 962.557,-276.589"/>
<polygon fill="midnightblue" stroke="midnightblue" points="1005.09,-315.205 1015.08,-318.734 1009.47,-309.745 1005.09,-315.205"/>
</g>
<!-- Node20&#45;&gt;Node22 -->
<g id="edge41" class="edge"><title>Node20&#45;&gt;Node22</title>
<path fill="none" stroke="midnightblue" d="M1025.75,-308.773C1024.63,-291.031 1020.56,-264.43 1007,-246 991.914,-225.501 965.797,-211.892 946.291,-204.02"/>
<polygon fill="midnightblue" stroke="midnightblue" points="1022.26,-309.116 1026.13,-318.978 1029.26,-308.854 1022.26,-309.116"/>
</g>
<!-- Node23 -->
<g id="node23" class="node"><title>Node23</title>
<g id="a_node23"><a xlink:href="in__place__exec__ctxt_8cc.html" target="_top" xlink:title="core/execution_context\l/in_place_exec_ctxt.cc">
<polygon fill="white" stroke="black" points="786,-112.5 786,-142.5 914,-142.5 914,-112.5 786,-112.5"/>
<text text-anchor="start" x="794" y="-130.5" font-family="Helvetica,sans-Serif" font-size="10.00">core/execution_context</text>
<text text-anchor="middle" x="850" y="-119.5" font-family="Helvetica,sans-Serif" font-size="10.00">/in_place_exec_ctxt.cc</text>
</a>
</g>
</g>
<!-- Node20&#45;&gt;Node23 -->
<g id="edge45" class="edge"><title>Node20&#45;&gt;Node23</title>
<path fill="none" stroke="midnightblue" d="M1030.55,-308.703C1033.73,-291.687 1036.12,-266.26 1028,-246 1006.02,-191.18 942.335,-159.059 897.442,-142.632"/>
<polygon fill="midnightblue" stroke="midnightblue" points="1027.12,-308.02 1028.44,-318.532 1033.96,-309.486 1027.12,-308.02"/>
</g>
<!-- Node20&#45;&gt;Node24 -->
<g id="edge47" class="edge"><title>Node20&#45;&gt;Node24</title>
<path fill="none" stroke="midnightblue" d="M945.881,-321.967C773.352,-309.959 381.786,-282.172 377,-277 339.584,-236.559 382.395,-162.539 398.989,-137.244"/>
<polygon fill="midnightblue" stroke="midnightblue" points="945.707,-325.463 955.926,-322.665 946.193,-318.48 945.707,-325.463"/>
</g>
<!-- Node20&#45;&gt;Node25 -->
<g id="edge50" class="edge"><title>Node20&#45;&gt;Node25</title>
<path fill="none" stroke="midnightblue" d="M1059.57,-315.301C1138.47,-284.796 1324.11,-201.216 1257,-112 1207.61,-46.3329 953.407,-21.6509 844.083,-13.9747"/>
<polygon fill="midnightblue" stroke="midnightblue" points="1058.17,-312.092 1050.07,-318.921 1060.66,-318.635 1058.17,-312.092"/>
</g>
<!-- Node28 -->
<g id="node28" class="node"><title>Node28</title>
<g id="a_node28"><a xlink:href="resource__manager_8cc.html" target="_top" xlink:title="core/resource_manager.cc">
<polygon fill="white" stroke="black" points="932,-118 932,-137 1076,-137 1076,-118 932,-118"/>
<text text-anchor="middle" x="1004" y="-125" font-family="Helvetica,sans-Serif" font-size="10.00">core/resource_manager.cc</text>
</a>
</g>
</g>
<!-- Node20&#45;&gt;Node28 -->
<g id="edge49" class="edge"><title>Node20&#45;&gt;Node28</title>
<path fill="none" stroke="midnightblue" d="M1048.29,-312.598C1059.47,-303.732 1071.91,-291.409 1078,-277 1083.37,-264.31 1079.61,-259.683 1078,-246 1074.42,-215.595 1077.86,-205.189 1062,-179 1051.07,-160.954 1031.54,-145.947 1018.19,-137.102"/>
<polygon fill="midnightblue" stroke="midnightblue" points="1046.04,-309.905 1040.11,-318.68 1050.22,-315.523 1046.04,-309.905"/>
</g>
<!-- Node20&#45;&gt;Node29 -->
<g id="edge52" class="edge"><title>Node20&#45;&gt;Node29</title>
<path fill="none" stroke="midnightblue" d="M964.831,-316.386C937.393,-308.933 906.083,-296.731 883,-277 845.36,-244.826 867.94,-210.82 830,-179 801.77,-155.323 762.044,-142.627 730.284,-135.888"/>
<polygon fill="midnightblue" stroke="midnightblue" points="964.187,-319.834 974.742,-318.922 965.922,-313.052 964.187,-319.834"/>
</g>
<!-- Node20&#45;&gt;Node30 -->
<g id="edge42" class="edge"><title>Node20&#45;&gt;Node30</title>
<path fill="none" stroke="midnightblue" d="M967.369,-317.116C895.238,-304.341 774.137,-282.892 707.171,-271.032"/>
<polygon fill="midnightblue" stroke="midnightblue" points="967.187,-320.638 977.644,-318.936 968.407,-313.745 967.187,-320.638"/>
</g>
<!-- Node21&#45;&gt;Node22 -->
<g id="edge29" class="edge"><title>Node21&#45;&gt;Node22</title>
<path fill="none" stroke="midnightblue" d="M936.302,-236.942C932.092,-225.54 927.294,-212.545 924.21,-204.195"/>
<polygon fill="midnightblue" stroke="midnightblue" points="933.045,-238.227 939.792,-246.396 939.612,-235.803 933.045,-238.227"/>
</g>
<!-- Node22&#45;&gt;Node3 -->
<g id="edge30" class="edge"><title>Node22&#45;&gt;Node3</title>
<path fill="none" stroke="midnightblue" d="M876.834,-187.901C817.376,-179.969 708.485,-164.051 617,-143 609.651,-141.309 601.78,-139.142 594.545,-137.002"/>
<polygon fill="midnightblue" stroke="midnightblue" points="876.622,-191.403 886.994,-189.243 877.539,-184.464 876.622,-191.403"/>
</g>
<!-- Node22&#45;&gt;Node6 -->
<g id="edge39" class="edge"><title>Node22&#45;&gt;Node6</title>
<path fill="none" stroke="midnightblue" d="M876.756,-187.876C853.115,-184.985 823.5,-181.544 797,-179 584.488,-158.598 529.179,-174.323 318,-143 315.255,-142.593 312.454,-142.135 309.63,-141.638"/>
<polygon fill="midnightblue" stroke="midnightblue" points="876.476,-191.368 886.83,-189.119 877.333,-184.421 876.476,-191.368"/>
</g>
<!-- Node22&#45;&gt;Node23 -->
<g id="edge31" class="edge"><title>Node22&#45;&gt;Node23</title>
<path fill="none" stroke="midnightblue" d="M903.991,-177.928C892.249,-167.179 876.764,-153.002 865.39,-142.589"/>
<polygon fill="midnightblue" stroke="midnightblue" points="901.685,-180.563 911.425,-184.734 906.412,-175.4 901.685,-180.563"/>
</g>
<!-- Node22&#45;&gt;Node24 -->
<g id="edge32" class="edge"><title>Node22&#45;&gt;Node24</title>
<path fill="none" stroke="midnightblue" d="M876.498,-187.932C802.358,-178.652 648.868,-159.416 519,-143 503.759,-141.073 487.373,-138.994 471.909,-137.028"/>
<polygon fill="midnightblue" stroke="midnightblue" points="876.492,-191.459 886.849,-189.228 877.361,-184.513 876.492,-191.459"/>
</g>
<!-- Node22&#45;&gt;Node26 -->
<g id="edge34" class="edge"><title>Node22&#45;&gt;Node26</title>
<path fill="none" stroke="midnightblue" d="M963.661,-182.408C1005.99,-171.403 1071,-154.499 1116.93,-142.559"/>
<polygon fill="midnightblue" stroke="midnightblue" points="962.738,-179.032 953.94,-184.936 964.499,-185.807 962.738,-179.032"/>
</g>
<!-- Node22&#45;&gt;Node27 -->
<g id="edge37" class="edge"><title>Node22&#45;&gt;Node27</title>
<path fill="none" stroke="midnightblue" d="M884.52,-181.868C842.941,-168.439 780.263,-147.602 777,-143 769.031,-131.761 768.473,-122.822 777,-112 791.13,-94.066 843.524,-82.4513 889.271,-75.5221"/>
<polygon fill="midnightblue" stroke="midnightblue" points="883.48,-185.21 894.072,-184.943 885.625,-178.547 883.48,-185.21"/>
</g>
<!-- Node22&#45;&gt;Node28 -->
<g id="edge38" class="edge"><title>Node22&#45;&gt;Node28</title>
<path fill="none" stroke="midnightblue" d="M940.067,-178.568C956.45,-165.738 979.502,-147.685 992.984,-137.127"/>
<polygon fill="midnightblue" stroke="midnightblue" points="937.909,-175.813 932.194,-184.734 942.225,-181.324 937.909,-175.813"/>
</g>
<!-- Node22&#45;&gt;Node29 -->
<g id="edge40" class="edge"><title>Node22&#45;&gt;Node29</title>
<path fill="none" stroke="midnightblue" d="M883.502,-182.015C879.957,-180.977 876.414,-179.957 873,-179 817.104,-163.326 751.706,-146.746 712.632,-137.025"/>
<polygon fill="midnightblue" stroke="midnightblue" points="882.806,-185.46 893.388,-184.953 884.8,-178.75 882.806,-185.46"/>
</g>
<!-- Node24&#45;&gt;Node25 -->
<g id="edge33" class="edge"><title>Node24&#45;&gt;Node25</title>
<path fill="none" stroke="midnightblue" d="M443.834,-114.97C521.891,-91.7933 696.223,-40.0314 765.154,-19.565"/>
<polygon fill="midnightblue" stroke="midnightblue" points="442.511,-111.711 433.92,-117.913 444.503,-118.422 442.511,-111.711"/>
</g>
<!-- Node26&#45;&gt;Node27 -->
<g id="edge35" class="edge"><title>Node26&#45;&gt;Node27</title>
<path fill="none" stroke="midnightblue" d="M1112.59,-109.71C1073.8,-98.56 1024.5,-84.391 993.594,-75.5064"/>
<polygon fill="midnightblue" stroke="midnightblue" points="1111.63,-113.076 1122.21,-112.475 1113.56,-106.348 1111.63,-113.076"/>
</g>
<!-- Node27&#45;&gt;Node25 -->
<g id="edge36" class="edge"><title>Node27&#45;&gt;Node25</title>
<path fill="none" stroke="midnightblue" d="M927.181,-53.3044C895.148,-43.1294 849.485,-28.6246 820.811,-19.5164"/>
<polygon fill="midnightblue" stroke="midnightblue" points="926.473,-56.7518 937.063,-56.4435 928.592,-50.0803 926.473,-56.7518"/>
</g>
<!-- Node30&#45;&gt;Node3 -->
<g id="edge43" class="edge"><title>Node30&#45;&gt;Node3</title>
<path fill="none" stroke="midnightblue" d="M647.137,-243.292C627.421,-214.693 588.62,-158.41 573.874,-137.021"/>
<polygon fill="midnightblue" stroke="midnightblue" points="644.472,-245.593 653.029,-251.839 650.235,-241.619 644.472,-245.593"/>
</g>
<!-- Node32&#45;&gt;Node16 -->
<g id="edge62" class="edge"><title>Node32&#45;&gt;Node16</title>
<path fill="none" stroke="midnightblue" d="M1394.76,-307.451C1408.61,-297.452 1425.02,-285.6 1437.51,-276.577"/>
<polygon fill="midnightblue" stroke="midnightblue" points="1392.59,-304.704 1386.53,-313.396 1396.68,-310.378 1392.59,-304.704"/>
</g>
<!-- Node32&#45;&gt;Node25 -->
<g id="edge63" class="edge"><title>Node32&#45;&gt;Node25</title>
<path fill="none" stroke="midnightblue" d="M1362.61,-303.436C1358.18,-277.048 1352,-233.407 1352,-195.5 1352,-195.5 1352,-195.5 1352,-126.5 1352,-23.2434 980.972,-11.5849 844.01,-10.7988"/>
<polygon fill="midnightblue" stroke="midnightblue" points="1359.16,-304.045 1364.32,-313.301 1366.06,-302.85 1359.16,-304.045"/>
</g>
<!-- Node32&#45;&gt;Node26 -->
<g id="edge61" class="edge"><title>Node32&#45;&gt;Node26</title>
<path fill="none" stroke="midnightblue" d="M1345.71,-305.881C1305.36,-264.922 1218.81,-177.042 1184.97,-142.682"/>
<polygon fill="midnightblue" stroke="midnightblue" points="1343.39,-308.52 1352.9,-313.188 1348.38,-303.608 1343.39,-308.52"/>
</g>
<!-- Node34 -->
<g id="node34" class="node"><title>Node34</title>
<g id="a_node34"><a xlink:href="op__timer_8h.html" target="_top" xlink:title="core/operation/op_timer.h">
<polygon fill="white" stroke="black" points="0,-56.5 0,-75.5 140,-75.5 140,-56.5 0,-56.5"/>
<text text-anchor="middle" x="70" y="-63.5" font-family="Helvetica,sans-Serif" font-size="10.00">core/operation/op_timer.h</text>
</a>
</g>
</g>
<!-- Node33&#45;&gt;Node34 -->
<g id="edge68" class="edge"><title>Node33&#45;&gt;Node34</title>
<path fill="none" stroke="midnightblue" d="M180.356,-370.714C158.44,-310.399 88.9418,-119.131 73.194,-75.7902"/>
<polygon fill="midnightblue" stroke="midnightblue" points="177.166,-372.184 183.871,-380.387 183.745,-369.793 177.166,-372.184"/>
</g>
<!-- Node34&#45;&gt;Node25 -->
<g id="edge69" class="edge"><title>Node34&#45;&gt;Node25</title>
<path fill="none" stroke="midnightblue" d="M150.149,-56.3469C151.442,-56.2287 152.726,-56.113 154,-56 373.403,-36.5394 635.731,-20.2926 743.751,-13.9066"/>
<polygon fill="midnightblue" stroke="midnightblue" points="149.734,-52.8703 140.108,-57.2949 150.392,-59.8393 149.734,-52.8703"/>
</g>
</g>
</svg>
