<?xml version="1.0" encoding="UTF-8" standalone="no"?>
<!DOCTYPE svg PUBLIC "-//W3C//DTD SVG 1.1//EN"
 "http://www.w3.org/Graphics/SVG/1.1/DTD/svg11.dtd">
<!-- Generated by graphviz version 2.40.1 (20161225.0304)
 -->
<!-- Title: core/type_index.cc Pages: 1 -->
<svg width="2577pt" height="610pt"
 viewBox="0.00 0.00 2577.00 610.00" xmlns="http://www.w3.org/2000/svg" xmlns:xlink="http://www.w3.org/1999/xlink">
<g id="graph0" class="graph" transform="scale(1 1) rotate(0) translate(4 606)">
<title>core/type_index.cc</title>
<polygon fill="#ffffff" stroke="transparent" points="-4,4 -4,-606 2573,-606 2573,4 -4,4"/>
<!-- Node0 -->
<g id="node1" class="node">
<title>Node0</title>
<polygon fill="#bfbfbf" stroke="#000000" points="1895.5,-582.5 1895.5,-601.5 1994.5,-601.5 1994.5,-582.5 1895.5,-582.5"/>
<text text-anchor="middle" x="1945" y="-589.5" font-family="Helvetica,sans-Serif" font-size="10.00" fill="#000000">core/type_index.cc</text>
</g>
<!-- Node1 -->
<g id="node2" class="node">
<title>Node1</title>
<g id="a_node2"><a xlink:href="type__index_8h.html" target="_top" xlink:title="core/type_index.h">
<polygon fill="#ffffff" stroke="#000000" points="652,-526.5 652,-545.5 746,-545.5 746,-526.5 652,-526.5"/>
<text text-anchor="middle" x="699" y="-533.5" font-family="Helvetica,sans-Serif" font-size="10.00" fill="#000000">core/type_index.h</text>
</a>
</g>
</g>
<!-- Node0&#45;&gt;Node1 -->
<g id="edge1" class="edge">
<title>Node0&#45;&gt;Node1</title>
<path fill="none" stroke="#191970" d="M1895.3864,-589.7702C1697.7598,-580.8881 967.1269,-548.0506 756.2978,-538.5752"/>
<polygon fill="#191970" stroke="#191970" points="756.2168,-535.0681 746.0698,-538.1155 755.9025,-542.061 756.2168,-535.0681"/>
</g>
<!-- Node18 -->
<g id="node19" class="node">
<title>Node18</title>
<polygon fill="#ffffff" stroke="#bfbfbf" points="1431,-112.5 1431,-131.5 1487,-131.5 1487,-112.5 1431,-112.5"/>
<text text-anchor="middle" x="1459" y="-119.5" font-family="Helvetica,sans-Serif" font-size="10.00" fill="#000000">TClass.h</text>
</g>
<!-- Node0&#45;&gt;Node18 -->
<g id="edge119" class="edge">
<title>Node0&#45;&gt;Node18</title>
<path fill="none" stroke="#191970" d="M1994.7475,-588.3199C2142.579,-576.7246 2569,-538.231 2569,-480 2569,-480 2569,-480 2569,-295.5 2569,-235.3155 2510.9526,-243.457 2454,-224 2271.682,-161.7138 1657.8419,-130.7699 1497.5523,-123.6317"/>
<polygon fill="#191970" stroke="#191970" points="1497.3768,-120.1207 1487.2324,-123.1772 1497.0688,-127.1139 1497.3768,-120.1207"/>
</g>
<!-- Node2 -->
<g id="node3" class="node">
<title>Node2</title>
<polygon fill="#ffffff" stroke="#bfbfbf" points="516,-.5 516,-19.5 560,-19.5 560,-.5 516,-.5"/>
<text text-anchor="middle" x="538" y="-7.5" font-family="Helvetica,sans-Serif" font-size="10.00" fill="#000000">vector</text>
</g>
<!-- Node1&#45;&gt;Node2 -->
<g id="edge2" class="edge">
<title>Node1&#45;&gt;Node2</title>
<path fill="none" stroke="#191970" d="M651.9064,-533.4748C541.1706,-527.2747 266.8447,-510.3179 177,-490 95.1102,-471.4811 0,-507.9577 0,-424 0,-424 0,-424 0,-122 0,-57.2025 67.9272,-74.5927 130,-56 200.4053,-34.9114 422.1168,-17.9499 505.694,-12.15"/>
<polygon fill="#191970" stroke="#191970" points="506.1267,-15.6287 515.8637,-11.4523 505.6475,-8.6451 506.1267,-15.6287"/>
</g>
<!-- Node3 -->
<g id="node4" class="node">
<title>Node3</title>
<g id="a_node4"><a xlink:href="agent_8h.html" target="_top" xlink:title="core/agent/agent.h">
<polygon fill="#ffffff" stroke="#000000" points="1580,-470.5 1580,-489.5 1678,-489.5 1678,-470.5 1580,-470.5"/>
<text text-anchor="middle" x="1629" y="-477.5" font-family="Helvetica,sans-Serif" font-size="10.00" fill="#000000">core/agent/agent.h</text>
</a>
</g>
</g>
<!-- Node1&#45;&gt;Node3 -->
<g id="edge3" class="edge">
<title>Node1&#45;&gt;Node3</title>
<path fill="none" stroke="#191970" d="M746.0763,-533.1653C901.4915,-523.807 1398.0653,-493.9057 1569.8525,-483.5616"/>
<polygon fill="#191970" stroke="#191970" points="1570.1968,-487.0473 1579.9683,-482.9524 1569.776,-480.0599 1570.1968,-487.0473"/>
</g>
<!-- Node41 -->
<g id="node34" class="node">
<title>Node41</title>
<g id="a_node34"><a xlink:href="flatmap_8h.html" target="_top" xlink:title="core/container/flatmap.h">
<polygon fill="#ffffff" stroke="#000000" points="146,-224.5 146,-243.5 268,-243.5 268,-224.5 146,-224.5"/>
<text text-anchor="middle" x="207" y="-231.5" font-family="Helvetica,sans-Serif" font-size="10.00" fill="#000000">core/container/flatmap.h</text>
</a>
</g>
</g>
<!-- Node1&#45;&gt;Node41 -->
<g id="edge118" class="edge">
<title>Node1&#45;&gt;Node41</title>
<path fill="none" stroke="#191970" d="M651.9184,-532.5148C506.7819,-521.148 76,-482.484 76,-424 76,-424 76,-424 76,-362.5 76,-324.3133 74.7075,-308.6096 100,-280 113.9203,-264.2541 134.1755,-253.7113 153.3269,-246.7423"/>
<polygon fill="#191970" stroke="#191970" points="154.5489,-250.0238 162.9033,-243.5082 152.3091,-243.3918 154.5489,-250.0238"/>
</g>
<!-- Node3&#45;&gt;Node2 -->
<g id="edge13" class="edge">
<title>Node3&#45;&gt;Node2</title>
<path fill="none" stroke="#191970" d="M1579.7666,-479.1115C1351.3039,-474.8834 400.0399,-456.0882 269,-434 163.0228,-416.1364 38,-469.9722 38,-362.5 38,-362.5 38,-362.5 38,-122 38,-73.8973 394.9378,-27.1256 505.6516,-13.7751"/>
<polygon fill="#191970" stroke="#191970" points="506.3565,-17.2158 515.8705,-12.5537 505.5258,-10.2653 506.3565,-17.2158"/>
</g>
<!-- Node4 -->
<g id="node5" class="node">
<title>Node4</title>
<polygon fill="#ffffff" stroke="#bfbfbf" points="2086,-224.5 2086,-243.5 2142,-243.5 2142,-224.5 2086,-224.5"/>
<text text-anchor="middle" x="2114" y="-231.5" font-family="Helvetica,sans-Serif" font-size="10.00" fill="#000000">algorithm</text>
</g>
<!-- Node3&#45;&gt;Node4 -->
<g id="edge4" class="edge">
<title>Node3&#45;&gt;Node4</title>
<path fill="none" stroke="#191970" d="M1678.2813,-478.5935C1780.7271,-475.0959 2013.1999,-464.0138 2086,-434 2122.5141,-418.9461 2138.0162,-413.6574 2155,-378 2175.3862,-335.1992 2145.9148,-280.2951 2127.279,-252.2572"/>
<polygon fill="#191970" stroke="#191970" points="2130.025,-250.0742 2121.4621,-243.835 2124.2652,-254.0523 2130.025,-250.0742"/>
</g>
<!-- Node5 -->
<g id="node6" class="node">
<title>Node5</title>
<polygon fill="#ffffff" stroke="#bfbfbf" points="1280.5,-168.5 1280.5,-187.5 1329.5,-187.5 1329.5,-168.5 1280.5,-168.5"/>
<text text-anchor="middle" x="1305" y="-175.5" font-family="Helvetica,sans-Serif" font-size="10.00" fill="#000000">cassert</text>
</g>
<!-- Node3&#45;&gt;Node5 -->
<g id="edge5" class="edge">
<title>Node3&#45;&gt;Node5</title>
<path fill="none" stroke="#191970" d="M1589.7665,-470.4912C1542.8035,-457.2268 1464.5549,-428.8736 1417,-378 1384.7588,-343.5088 1398.7251,-321.3849 1376,-280 1358.889,-248.839 1334.3927,-215.5368 1319.1058,-195.7578"/>
<polygon fill="#191970" stroke="#191970" points="1321.7059,-193.401 1312.7897,-187.678 1316.191,-197.7121 1321.7059,-193.401"/>
</g>
<!-- Node6 -->
<g id="node7" class="node">
<title>Node6</title>
<polygon fill="#ffffff" stroke="#bfbfbf" points="943,-168.5 943,-187.5 983,-187.5 983,-168.5 943,-168.5"/>
<text text-anchor="middle" x="963" y="-175.5" font-family="Helvetica,sans-Serif" font-size="10.00" fill="#000000">limits</text>
</g>
<!-- Node3&#45;&gt;Node6 -->
<g id="edge6" class="edge">
<title>Node3&#45;&gt;Node6</title>
<path fill="none" stroke="#191970" d="M1579.7552,-479.7245C1356.6082,-478.2795 445.9065,-470.1949 324,-434 277.7473,-420.2672 263.214,-413.9188 231,-378 200.499,-343.9912 173.8312,-317.4447 200,-280 210.37,-265.1616 335.3064,-227.828 353,-224 381.5936,-217.8137 812.9778,-188.1914 932.5025,-180.0656"/>
<polygon fill="#191970" stroke="#191970" points="933.0233,-183.5384 942.7631,-179.3688 932.5489,-176.5545 933.0233,-183.5384"/>
</g>
<!-- Node7 -->
<g id="node8" class="node">
<title>Node7</title>
<polygon fill="#ffffff" stroke="#bfbfbf" points="218,-286 218,-305 270,-305 270,-286 218,-286"/>
<text text-anchor="middle" x="244" y="-293" font-family="Helvetica,sans-Serif" font-size="10.00" fill="#000000">memory</text>
</g>
<!-- Node3&#45;&gt;Node7 -->
<g id="edge7" class="edge">
<title>Node3&#45;&gt;Node7</title>
<path fill="none" stroke="#191970" d="M1579.8202,-478.5356C1379.9223,-472.1815 628.1882,-444.278 401,-378 349.5225,-362.9824 295.4264,-330.2175 266.0974,-310.8016"/>
<polygon fill="#191970" stroke="#191970" points="267.7312,-307.6825 257.48,-305.0062 263.8248,-313.4911 267.7312,-307.6825"/>
</g>
<!-- Node8 -->
<g id="node9" class="node">
<title>Node8</title>
<polygon fill="#ffffff" stroke="#bfbfbf" points="1714,-414.5 1714,-433.5 1744,-433.5 1744,-414.5 1714,-414.5"/>
<text text-anchor="middle" x="1729" y="-421.5" font-family="Helvetica,sans-Serif" font-size="10.00" fill="#000000">set</text>
</g>
<!-- Node3&#45;&gt;Node8 -->
<g id="edge8" class="edge">
<title>Node3&#45;&gt;Node8</title>
<path fill="none" stroke="#191970" d="M1646.4187,-470.2455C1662.6204,-461.1726 1686.9061,-447.5726 1704.952,-437.4669"/>
<polygon fill="#191970" stroke="#191970" points="1706.7292,-440.4831 1713.7442,-432.5433 1703.3089,-434.3756 1706.7292,-440.4831"/>
</g>
<!-- Node9 -->
<g id="node10" class="node">
<title>Node9</title>
<polygon fill="#ffffff" stroke="#bfbfbf" points="1868,-.5 1868,-19.5 1920,-19.5 1920,-.5 1868,-.5"/>
<text text-anchor="middle" x="1894" y="-7.5" font-family="Helvetica,sans-Serif" font-size="10.00" fill="#000000">sstream</text>
</g>
<!-- Node3&#45;&gt;Node9 -->
<g id="edge9" class="edge">
<title>Node3&#45;&gt;Node9</title>
<path fill="none" stroke="#191970" d="M1678.1659,-478.6671C1818.7094,-474.5706 2220.3196,-460.7889 2349,-434 2434.0829,-416.2873 2531,-449.4071 2531,-362.5 2531,-362.5 2531,-362.5 2531,-122 2531,-60.5725 2065.5754,-22.3262 1930.3986,-12.5135"/>
<polygon fill="#191970" stroke="#191970" points="1930.3836,-9.0035 1920.1587,-11.7789 1929.8826,-15.9856 1930.3836,-9.0035"/>
</g>
<!-- Node10 -->
<g id="node11" class="node">
<title>Node10</title>
<polygon fill="#ffffff" stroke="#bfbfbf" points="1693.5,-.5 1693.5,-19.5 1734.5,-19.5 1734.5,-.5 1693.5,-.5"/>
<text text-anchor="middle" x="1714" y="-7.5" font-family="Helvetica,sans-Serif" font-size="10.00" fill="#000000">string</text>
</g>
<!-- Node3&#45;&gt;Node10 -->
<g id="edge10" class="edge">
<title>Node3&#45;&gt;Node10</title>
<path fill="none" stroke="#191970" d="M1678.2413,-478.5295C1861.4233,-472.4165 2493,-445.3337 2493,-362.5 2493,-362.5 2493,-362.5 2493,-122 2493,-83.5102 1889.312,-25.9919 1744.8058,-12.775"/>
<polygon fill="#191970" stroke="#191970" points="1745.1126,-9.2886 1734.8364,-11.867 1744.4776,-16.2597 1745.1126,-9.2886"/>
</g>
<!-- Node11 -->
<g id="node12" class="node">
<title>Node11</title>
<polygon fill="#ffffff" stroke="#bfbfbf" points="1426,-353 1426,-372 1488,-372 1488,-353 1426,-353"/>
<text text-anchor="middle" x="1457" y="-360" font-family="Helvetica,sans-Serif" font-size="10.00" fill="#000000">type_traits</text>
</g>
<!-- Node3&#45;&gt;Node11 -->
<g id="edge11" class="edge">
<title>Node3&#45;&gt;Node11</title>
<path fill="none" stroke="#191970" d="M1614.9245,-470.3845C1585.1912,-450.0724 1515.7626,-402.6431 1479.6805,-377.9939"/>
<polygon fill="#191970" stroke="#191970" points="1481.5015,-374.9992 1471.27,-372.2484 1477.5529,-380.7793 1481.5015,-374.9992"/>
</g>
<!-- Node12 -->
<g id="node13" class="node">
<title>Node12</title>
<polygon fill="#ffffff" stroke="#bfbfbf" points="1762.5,-414.5 1762.5,-433.5 1845.5,-433.5 1845.5,-414.5 1762.5,-414.5"/>
<text text-anchor="middle" x="1804" y="-421.5" font-family="Helvetica,sans-Serif" font-size="10.00" fill="#000000">unordered_map</text>
</g>
<!-- Node3&#45;&gt;Node12 -->
<g id="edge12" class="edge">
<title>Node3&#45;&gt;Node12</title>
<path fill="none" stroke="#191970" d="M1659.0836,-470.3733C1688.1834,-461.0613 1732.4523,-446.8953 1764.403,-436.671"/>
<polygon fill="#191970" stroke="#191970" points="1765.8515,-439.8824 1774.309,-433.5011 1763.718,-433.2155 1765.8515,-439.8824"/>
</g>
<!-- Node13 -->
<g id="node14" class="node">
<title>Node13</title>
<g id="a_node14"><a xlink:href="agent__pointer_8h.html" target="_top" xlink:title="core/agent/agent_pointer.h">
<polygon fill="#ffffff" stroke="#000000" points="1076,-414.5 1076,-433.5 1208,-433.5 1208,-414.5 1076,-414.5"/>
<text text-anchor="middle" x="1142" y="-421.5" font-family="Helvetica,sans-Serif" font-size="10.00" fill="#000000">core/agent/agent_pointer.h</text>
</a>
</g>
</g>
<!-- Node3&#45;&gt;Node13 -->
<g id="edge14" class="edge">
<title>Node3&#45;&gt;Node13</title>
<path fill="none" stroke="#191970" d="M1579.6238,-474.3222C1494.4086,-464.5234 1319.1836,-444.3743 1218.2205,-432.7646"/>
<polygon fill="#191970" stroke="#191970" points="1218.4221,-429.2648 1208.0877,-431.5994 1217.6224,-436.219 1218.4221,-429.2648"/>
</g>
<!-- Node16 -->
<g id="node17" class="node">
<title>Node16</title>
<g id="a_node17"><a xlink:href="agent__uid_8h.html" target="_top" xlink:title="core/agent/agent_uid.h">
<polygon fill="#ffffff" stroke="#000000" points="948,-224.5 948,-243.5 1064,-243.5 1064,-224.5 948,-224.5"/>
<text text-anchor="middle" x="1006" y="-231.5" font-family="Helvetica,sans-Serif" font-size="10.00" fill="#000000">core/agent/agent_uid.h</text>
</a>
</g>
</g>
<!-- Node3&#45;&gt;Node16 -->
<g id="edge75" class="edge">
<title>Node3&#45;&gt;Node16</title>
<path fill="none" stroke="#191970" d="M1579.8091,-477.5143C1522.2442,-473.364 1424.7739,-462.4364 1346,-434 1337.431,-430.9067 1108.0739,-294.6999 1030.9947,-248.8688"/>
<polygon fill="#191970" stroke="#191970" points="1032.7588,-245.8457 1022.3748,-243.7426 1029.1808,-251.8623 1032.7588,-245.8457"/>
</g>
<!-- Node17 -->
<g id="node18" class="node">
<title>Node17</title>
<g id="a_node18"><a xlink:href="root_8h.html" target="_top" xlink:title="core/util/root.h">
<polygon fill="#ffffff" stroke="#000000" points="1386.5,-168.5 1386.5,-187.5 1465.5,-187.5 1465.5,-168.5 1386.5,-168.5"/>
<text text-anchor="middle" x="1426" y="-175.5" font-family="Helvetica,sans-Serif" font-size="10.00" fill="#000000">core/util/root.h</text>
</a>
</g>
</g>
<!-- Node3&#45;&gt;Node17 -->
<g id="edge110" class="edge">
<title>Node3&#45;&gt;Node17</title>
<path fill="none" stroke="#191970" d="M1631.395,-470.2151C1638.5438,-438.4447 1656.3633,-336.9489 1608,-280 1584.325,-252.1221 1566.0853,-261.556 1534,-244 1504.1448,-227.6643 1470.8851,-206.938 1449.2672,-193.1125"/>
<polygon fill="#191970" stroke="#191970" points="1451.0635,-190.1065 1440.759,-187.6428 1447.278,-195.9946 1451.0635,-190.1065"/>
</g>
<!-- Node32 -->
<g id="node29" class="node">
<title>Node32</title>
<g id="a_node29"><a xlink:href="spinlock_8h.html" target="_top" xlink:title="core/util/spinlock.h">
<polygon fill="#ffffff" stroke="#000000" points="362,-224.5 362,-243.5 460,-243.5 460,-224.5 362,-224.5"/>
<text text-anchor="middle" x="411" y="-231.5" font-family="Helvetica,sans-Serif" font-size="10.00" fill="#000000">core/util/spinlock.h</text>
</a>
</g>
</g>
<!-- Node3&#45;&gt;Node32 -->
<g id="edge111" class="edge">
<title>Node3&#45;&gt;Node32</title>
<path fill="none" stroke="#191970" d="M1579.8755,-478.7764C1402.8644,-474.2135 798.0484,-457.2513 606,-434 422.6202,-411.7982 301.0446,-471.1527 209,-311 202.1346,-299.0546 200.407,-290.7698 209,-280 218.0201,-268.6948 295.4454,-253.437 351.7583,-243.6561"/>
<polygon fill="#191970" stroke="#191970" points="352.3912,-247.0988 361.6539,-241.9556 351.2056,-240.1999 352.3912,-247.0988"/>
</g>
<!-- Node50 -->
<g id="node36" class="node">
<title>Node50</title>
<g id="a_node36"><a xlink:href="new__agent__event_8h.html" target="_top" xlink:title="core/agent/new_agent\l_event.h">
<polygon fill="#ffffff" stroke="#000000" points="1506.5,-347.5 1506.5,-377.5 1619.5,-377.5 1619.5,-347.5 1506.5,-347.5"/>
<text text-anchor="start" x="1514.5" y="-365.5" font-family="Helvetica,sans-Serif" font-size="10.00" fill="#000000">core/agent/new_agent</text>
<text text-anchor="middle" x="1563" y="-354.5" font-family="Helvetica,sans-Serif" font-size="10.00" fill="#000000">_event.h</text>
</a>
</g>
</g>
<!-- Node3&#45;&gt;Node50 -->
<g id="edge76" class="edge">
<title>Node3&#45;&gt;Node50</title>
<path fill="none" stroke="#191970" d="M1621.3599,-470.4917C1614.2824,-461.4327 1603.7161,-447.2495 1596,-434 1587.2525,-418.9794 1579.0542,-401.2428 1573.0171,-387.1928"/>
<polygon fill="#191970" stroke="#191970" points="1576.1299,-385.566 1569.0263,-377.7054 1569.6775,-388.2802 1576.1299,-385.566"/>
</g>
<!-- Node52 -->
<g id="node38" class="node">
<title>Node52</title>
<g id="a_node38"><a xlink:href="inline__vector_8h.html" target="_top" xlink:title="core/container/inline\l_vector.h">
<polygon fill="#ffffff" stroke="#000000" points="1676,-280.5 1676,-310.5 1780,-310.5 1780,-280.5 1676,-280.5"/>
<text text-anchor="start" x="1684" y="-298.5" font-family="Helvetica,sans-Serif" font-size="10.00" fill="#000000">core/container/inline</text>
<text text-anchor="middle" x="1728" y="-287.5" font-family="Helvetica,sans-Serif" font-size="10.00" fill="#000000">_vector.h</text>
</a>
</g>
</g>
<!-- Node3&#45;&gt;Node52 -->
<g id="edge95" class="edge">
<title>Node3&#45;&gt;Node52</title>
<path fill="none" stroke="#191970" d="M1634.1833,-470.3402C1649.174,-442.4029 1692.9103,-360.8944 1714.9643,-319.7938"/>
<polygon fill="#191970" stroke="#191970" points="1718.1802,-321.2028 1719.8244,-310.7363 1712.0121,-317.8931 1718.1802,-321.2028"/>
</g>
<!-- Node46 -->
<g id="node43" class="node">
<title>Node46</title>
<g id="a_node43"><a xlink:href="math__array_8h.html" target="_top" xlink:title="core/container/math\l_array.h">
<polygon fill="#ffffff" stroke="#000000" points="2201.5,-280.5 2201.5,-310.5 2304.5,-310.5 2304.5,-280.5 2201.5,-280.5"/>
<text text-anchor="start" x="2209.5" y="-298.5" font-family="Helvetica,sans-Serif" font-size="10.00" fill="#000000">core/container/math</text>
<text text-anchor="middle" x="2253" y="-287.5" font-family="Helvetica,sans-Serif" font-size="10.00" fill="#000000">_array.h</text>
</a>
</g>
</g>
<!-- Node3&#45;&gt;Node46 -->
<g id="edge96" class="edge">
<title>Node3&#45;&gt;Node46</title>
<path fill="none" stroke="#191970" d="M1678.0502,-478.7488C1806.6682,-475.0803 2146.611,-462.7462 2188,-434 2226.0244,-407.5906 2242.4021,-352.9407 2248.983,-320.7473"/>
<polygon fill="#191970" stroke="#191970" points="2252.452,-321.2377 2250.8563,-310.7637 2245.5721,-319.9467 2252.452,-321.2377"/>
</g>
<!-- Node58 -->
<g id="node47" class="node">
<title>Node58</title>
<g id="a_node47"><a xlink:href="interaction__force_8h.html" target="_top" xlink:title="core/interaction_force.h">
<polygon fill="#ffffff" stroke="#000000" points="2026.5,-353 2026.5,-372 2145.5,-372 2145.5,-353 2026.5,-353"/>
<text text-anchor="middle" x="2086" y="-360" font-family="Helvetica,sans-Serif" font-size="10.00" fill="#000000">core/interaction_force.h</text>
</a>
</g>
</g>
<!-- Node3&#45;&gt;Node58 -->
<g id="edge105" class="edge">
<title>Node3&#45;&gt;Node58</title>
<path fill="none" stroke="#191970" d="M1678.4019,-477.8932C1786.5285,-472.8454 2036.8621,-458.6154 2066,-434 2080.8804,-421.4292 2085.1619,-398.7831 2086.1725,-382.3381"/>
<polygon fill="#191970" stroke="#191970" points="2089.6764,-382.2321 2086.4397,-372.1438 2082.6788,-382.0487 2089.6764,-382.2321"/>
</g>
<!-- Node59 -->
<g id="node48" class="node">
<title>Node59</title>
<g id="a_node48"><a xlink:href="shape_8h.html" target="_top" xlink:title="core/shape.h">
<polygon fill="#ffffff" stroke="#000000" points="1786.5,-353 1786.5,-372 1859.5,-372 1859.5,-353 1786.5,-353"/>
<text text-anchor="middle" x="1823" y="-360" font-family="Helvetica,sans-Serif" font-size="10.00" fill="#000000">core/shape.h</text>
</a>
</g>
</g>
<!-- Node3&#45;&gt;Node59 -->
<g id="edge108" class="edge">
<title>Node3&#45;&gt;Node59</title>
<path fill="none" stroke="#191970" d="M1638.0857,-470.4442C1651.6357,-456.6025 1678.4045,-430.7968 1705,-414 1730.2474,-398.0546 1761.2788,-384.7265 1785.1818,-375.6265"/>
<polygon fill="#191970" stroke="#191970" points="1786.4727,-378.8806 1794.622,-372.1101 1784.0293,-372.3209 1786.4727,-378.8806"/>
</g>
<!-- Node60 -->
<g id="node49" class="node">
<title>Node60</title>
<g id="a_node49"><a xlink:href="macros_8h.html" target="_top" xlink:title="core/util/macros.h">
<polygon fill="#ffffff" stroke="#000000" points="1863.5,-414.5 1863.5,-433.5 1958.5,-433.5 1958.5,-414.5 1863.5,-414.5"/>
<text text-anchor="middle" x="1911" y="-421.5" font-family="Helvetica,sans-Serif" font-size="10.00" fill="#000000">core/util/macros.h</text>
</a>
</g>
</g>
<!-- Node3&#45;&gt;Node60 -->
<g id="edge109" class="edge">
<title>Node3&#45;&gt;Node60</title>
<path fill="none" stroke="#191970" d="M1677.1571,-470.4369C1725.8248,-460.7724 1801.0575,-445.8326 1852.9821,-435.5213"/>
<polygon fill="#191970" stroke="#191970" points="1853.9148,-438.9045 1863.0415,-433.5237 1852.5513,-432.0386 1853.9148,-438.9045"/>
</g>
<!-- Node61 -->
<g id="node50" class="node">
<title>Node61</title>
<g id="a_node50"><a xlink:href="type_8h.html" target="_top" xlink:title="core/util/type.h">
<polygon fill="#ffffff" stroke="#000000" points="1976.5,-414.5 1976.5,-433.5 2057.5,-433.5 2057.5,-414.5 1976.5,-414.5"/>
<text text-anchor="middle" x="2017" y="-421.5" font-family="Helvetica,sans-Serif" font-size="10.00" fill="#000000">core/util/type.h</text>
</a>
</g>
</g>
<!-- Node3&#45;&gt;Node61 -->
<g id="edge112" class="edge">
<title>Node3&#45;&gt;Node61</title>
<path fill="none" stroke="#191970" d="M1678.1221,-474.2858C1742.035,-466.6362 1857.3939,-452.0976 1966.2095,-434.0444"/>
<polygon fill="#191970" stroke="#191970" points="1967.0942,-437.4452 1976.3799,-432.3435 1965.9395,-430.541 1967.0942,-437.4452"/>
</g>
<!-- Node13&#45;&gt;Node6 -->
<g id="edge16" class="edge">
<title>Node13&#45;&gt;Node6</title>
<path fill="none" stroke="#191970" d="M1115.1132,-414.473C1095.2872,-406.6237 1068.3403,-394.1647 1048,-378 987.8976,-330.2357 964.7061,-316.3389 939,-244 933.2838,-227.9142 940.9997,-209.681 949.1647,-196.4613"/>
<polygon fill="#191970" stroke="#191970" points="952.3029,-198.0686 955.0038,-187.8238 946.5036,-194.1482 952.3029,-198.0686"/>
</g>
<!-- Node13&#45;&gt;Node11 -->
<g id="edge18" class="edge">
<title>Node13&#45;&gt;Node11</title>
<path fill="none" stroke="#191970" d="M1208.0998,-415.8044C1263.153,-408.2492 1343.3565,-395.5446 1412,-378 1415.2022,-377.1815 1418.5024,-376.2404 1421.7917,-375.235"/>
<polygon fill="#191970" stroke="#191970" points="1423.0838,-378.4955 1431.5184,-372.0839 1420.9264,-371.8363 1423.0838,-378.4955"/>
</g>
<!-- Node14 -->
<g id="node15" class="node">
<title>Node14</title>
<polygon fill="#ffffff" stroke="#bfbfbf" points="66,-168.5 66,-187.5 112,-187.5 112,-168.5 66,-168.5"/>
<text text-anchor="middle" x="89" y="-175.5" font-family="Helvetica,sans-Serif" font-size="10.00" fill="#000000">cstdint</text>
</g>
<!-- Node13&#45;&gt;Node14 -->
<g id="edge15" class="edge">
<title>Node13&#45;&gt;Node14</title>
<path fill="none" stroke="#191970" d="M1075.7811,-422.2079C919.081,-417.593 529.0903,-403.8149 401,-378 259.0411,-349.3901 187.333,-362.4334 104,-244 94.5028,-230.5024 90.9116,-211.9489 89.6046,-197.9501"/>
<polygon fill="#191970" stroke="#191970" points="93.0925,-197.6463 88.9769,-187.8835 86.1061,-198.082 93.0925,-197.6463"/>
</g>
<!-- Node15 -->
<g id="node16" class="node">
<title>Node15</title>
<polygon fill="#ffffff" stroke="#bfbfbf" points="1688,-224.5 1688,-243.5 1740,-243.5 1740,-224.5 1688,-224.5"/>
<text text-anchor="middle" x="1714" y="-231.5" font-family="Helvetica,sans-Serif" font-size="10.00" fill="#000000">ostream</text>
</g>
<!-- Node13&#45;&gt;Node15 -->
<g id="edge17" class="edge">
<title>Node13&#45;&gt;Node15</title>
<path fill="none" stroke="#191970" d="M1184.6832,-414.4742C1251.3922,-398.6112 1383.3491,-363.2736 1486,-311 1506.9943,-300.3089 1507.6261,-289.9106 1529,-280 1577.8522,-257.3483 1639.3355,-244.9085 1677.6612,-238.85"/>
<polygon fill="#191970" stroke="#191970" points="1678.4655,-242.2681 1687.8272,-237.3072 1677.4152,-235.3473 1678.4655,-242.2681"/>
</g>
<!-- Node13&#45;&gt;Node16 -->
<g id="edge19" class="edge">
<title>Node13&#45;&gt;Node16</title>
<path fill="none" stroke="#191970" d="M1127.522,-414.4326C1102.4722,-397.0493 1051.3044,-357.725 1026,-311 1016.167,-292.8432 1010.9979,-269.6331 1008.3988,-253.4639"/>
<polygon fill="#191970" stroke="#191970" points="1011.8609,-252.9492 1006.9843,-243.5434 1004.931,-253.9373 1011.8609,-252.9492"/>
</g>
<!-- Node13&#45;&gt;Node17 -->
<g id="edge74" class="edge">
<title>Node13&#45;&gt;Node17</title>
<path fill="none" stroke="#191970" d="M1164.072,-414.3889C1197.5598,-399.8089 1263.2134,-371.2327 1319,-347 1355.8802,-330.9799 1373.4012,-339.2648 1402,-311 1431.0907,-282.249 1434.6506,-264.815 1432,-224 1431.4402,-215.3805 1430.2964,-205.9095 1429.1561,-197.8133"/>
<polygon fill="#191970" stroke="#191970" points="1432.604,-197.2041 1427.6586,-187.8343 1425.6815,-198.243 1432.604,-197.2041"/>
</g>
<!-- Node26 -->
<g id="node23" class="node">
<title>Node26</title>
<g id="a_node23"><a xlink:href="in__place__exec__ctxt_8h.html" target="_top" xlink:title="core/execution_context\l/in_place_exec_ctxt.h">
<polygon fill="#ffffff" stroke="#000000" points="410,-347.5 410,-377.5 528,-377.5 528,-347.5 410,-347.5"/>
<text text-anchor="start" x="418" y="-365.5" font-family="Helvetica,sans-Serif" font-size="10.00" fill="#000000">core/execution_context</text>
<text text-anchor="middle" x="469" y="-354.5" font-family="Helvetica,sans-Serif" font-size="10.00" fill="#000000">/in_place_exec_ctxt.h</text>
</a>
</g>
</g>
<!-- Node13&#45;&gt;Node26 -->
<g id="edge30" class="edge">
<title>Node13&#45;&gt;Node26</title>
<path fill="none" stroke="#191970" d="M1075.9367,-417.963C948.2457,-406.2944 668.6897,-380.748 538.4012,-368.842"/>
<polygon fill="#191970" stroke="#191970" points="538.4276,-365.3299 528.1505,-367.9053 537.7905,-372.3009 538.4276,-365.3299"/>
</g>
<!-- Node37 -->
<g id="node31" class="node">
<title>Node37</title>
<g id="a_node31"><a xlink:href="simulation_8h.html" target="_top" xlink:title="core/simulation.h">
<polygon fill="#ffffff" stroke="#ff0000" points="1096.5,-353 1096.5,-372 1187.5,-372 1187.5,-353 1096.5,-353"/>
<text text-anchor="middle" x="1142" y="-360" font-family="Helvetica,sans-Serif" font-size="10.00" fill="#000000">core/simulation.h</text>
</a>
</g>
</g>
<!-- Node13&#45;&gt;Node37 -->
<g id="edge53" class="edge">
<title>Node13&#45;&gt;Node37</title>
<path fill="none" stroke="#191970" d="M1142,-414.3906C1142,-405.8657 1142,-393.1392 1142,-382.4235"/>
<polygon fill="#191970" stroke="#191970" points="1145.5001,-382.2448 1142,-372.2449 1138.5001,-382.2449 1145.5001,-382.2448"/>
</g>
<!-- Node16&#45;&gt;Node6 -->
<g id="edge20" class="edge">
<title>Node16&#45;&gt;Node6</title>
<path fill="none" stroke="#191970" d="M998.51,-224.2455C992.4674,-216.3761 983.8097,-205.101 976.5559,-195.6542"/>
<polygon fill="#191970" stroke="#191970" points="979.2705,-193.4426 970.4042,-187.6427 973.7185,-197.7058 979.2705,-193.4426"/>
</g>
<!-- Node16&#45;&gt;Node17 -->
<g id="edge21" class="edge">
<title>Node16&#45;&gt;Node17</title>
<path fill="none" stroke="#191970" d="M1064.3992,-226.2134C1147.4492,-215.1401 1298.2344,-195.0354 1376.2541,-184.6328"/>
<polygon fill="#191970" stroke="#191970" points="1376.8604,-188.083 1386.3101,-183.292 1375.9352,-181.1444 1376.8604,-188.083"/>
</g>
<!-- Node17&#45;&gt;Node18 -->
<g id="edge22" class="edge">
<title>Node17&#45;&gt;Node18</title>
<path fill="none" stroke="#191970" d="M1431.7482,-168.2455C1436.2435,-160.617 1442.6248,-149.7881 1448.0825,-140.5267"/>
<polygon fill="#191970" stroke="#191970" points="1451.2561,-142.035 1453.3177,-131.6427 1445.2253,-138.4811 1451.2561,-142.035"/>
</g>
<!-- Node19 -->
<g id="node20" class="node">
<title>Node19</title>
<g id="a_node20"><a xlink:href="log_8h.html" target="_top" xlink:title="core/util/log.h">
<polygon fill="#ffffff" stroke="#ff0000" points="1320.5,-112.5 1320.5,-131.5 1395.5,-131.5 1395.5,-112.5 1320.5,-112.5"/>
<text text-anchor="middle" x="1358" y="-119.5" font-family="Helvetica,sans-Serif" font-size="10.00" fill="#000000">core/util/log.h</text>
</a>
</g>
</g>
<!-- Node17&#45;&gt;Node19 -->
<g id="edge23" class="edge">
<title>Node17&#45;&gt;Node19</title>
<path fill="none" stroke="#191970" d="M1414.1553,-168.2455C1404.112,-159.9746 1389.5005,-147.9416 1377.6996,-138.2232"/>
<polygon fill="#191970" stroke="#191970" points="1379.6533,-135.298 1369.709,-131.6427 1375.2033,-140.7015 1379.6533,-135.298"/>
</g>
<!-- Node19&#45;&gt;Node10 -->
<g id="edge25" class="edge">
<title>Node19&#45;&gt;Node10</title>
<path fill="none" stroke="#191970" d="M1395.5285,-115.8854C1404.2114,-114.5404 1413.42,-113.1697 1422,-112 1490.4976,-102.6621 1685.0323,-127.6341 1731,-76 1742.6172,-62.9508 1735.1777,-42.9979 1726.7998,-28.4464"/>
<polygon fill="#191970" stroke="#191970" points="1729.6399,-26.3881 1721.3497,-19.7909 1723.7163,-30.118 1729.6399,-26.3881"/>
</g>
<!-- Node23 -->
<g id="node21" class="node">
<title>Node23</title>
<polygon fill="#ffffff" stroke="#bfbfbf" points="945.5,-56.5 945.5,-75.5 1004.5,-75.5 1004.5,-56.5 945.5,-56.5"/>
<text text-anchor="middle" x="975" y="-63.5" font-family="Helvetica,sans-Serif" font-size="10.00" fill="#000000">functional</text>
</g>
<!-- Node19&#45;&gt;Node23 -->
<g id="edge24" class="edge">
<title>Node19&#45;&gt;Node23</title>
<path fill="none" stroke="#191970" d="M1320.2283,-116.4772C1247.6489,-105.8651 1089.3207,-82.7153 1015.0138,-71.8506"/>
<polygon fill="#191970" stroke="#191970" points="1015.0815,-68.3233 1004.6803,-70.3397 1014.0687,-75.2497 1015.0815,-68.3233"/>
</g>
<!-- Node25 -->
<g id="node22" class="node">
<title>Node25</title>
<g id="a_node22"><a xlink:href="string_8h.html" target="_top" xlink:title="core/util/string.h">
<polygon fill="#ffffff" stroke="#000000" points="1636,-56.5 1636,-75.5 1722,-75.5 1722,-56.5 1636,-56.5"/>
<text text-anchor="middle" x="1679" y="-63.5" font-family="Helvetica,sans-Serif" font-size="10.00" fill="#000000">core/util/string.h</text>
</a>
</g>
</g>
<!-- Node19&#45;&gt;Node25 -->
<g id="edge26" class="edge">
<title>Node19&#45;&gt;Node25</title>
<path fill="none" stroke="#191970" d="M1395.7667,-115.4114C1452.7144,-105.4766 1560.7954,-86.6214 1625.7259,-75.2939"/>
<polygon fill="#191970" stroke="#191970" points="1626.5122,-78.7097 1635.7619,-73.5431 1625.3092,-71.8138 1626.5122,-78.7097"/>
</g>
<!-- Node25&#45;&gt;Node2 -->
<g id="edge29" class="edge">
<title>Node25&#45;&gt;Node2</title>
<path fill="none" stroke="#191970" d="M1635.8249,-57.8119C1631.1706,-57.1126 1626.4948,-56.4875 1622,-56 1410.5491,-33.0654 728.6064,-14.7977 570.8076,-10.8105"/>
<polygon fill="#191970" stroke="#191970" points="570.4504,-7.3005 560.3656,-10.5482 570.2745,-14.2983 570.4504,-7.3005"/>
</g>
<!-- Node25&#45;&gt;Node9 -->
<g id="edge27" class="edge">
<title>Node25&#45;&gt;Node9</title>
<path fill="none" stroke="#191970" d="M1715.9598,-56.3733C1755.8314,-45.9881 1818.8824,-29.5655 1858.2696,-19.3065"/>
<polygon fill="#191970" stroke="#191970" points="1859.1916,-22.6832 1867.9866,-16.7756 1857.4272,-15.9092 1859.1916,-22.6832"/>
</g>
<!-- Node25&#45;&gt;Node10 -->
<g id="edge28" class="edge">
<title>Node25&#45;&gt;Node10</title>
<path fill="none" stroke="#191970" d="M1685.0965,-56.2455C1689.9145,-48.5367 1696.7751,-37.5598 1702.6032,-28.2348"/>
<polygon fill="#191970" stroke="#191970" points="1705.6413,-29.9777 1707.9733,-19.6427 1699.7053,-26.2677 1705.6413,-29.9777"/>
</g>
<!-- Node26&#45;&gt;Node2 -->
<g id="edge35" class="edge">
<title>Node26&#45;&gt;Node2</title>
<path fill="none" stroke="#191970" d="M438.3404,-347.353C401.2771,-329.4749 336.6861,-299.6924 279,-280 214.7964,-258.0827 117.8823,-289.0921 137,-224 183.2158,-66.6438 418.6858,-23.7396 505.6607,-13.1651"/>
<polygon fill="#191970" stroke="#191970" points="506.2099,-16.625 515.7442,-12.0047 505.4096,-9.6709 506.2099,-16.625"/>
</g>
<!-- Node26&#45;&gt;Node7 -->
<g id="edge33" class="edge">
<title>Node26&#45;&gt;Node7</title>
<path fill="none" stroke="#191970" d="M409.8153,-347.6088C373.2836,-338.0267 325.6074,-324.8157 284,-311 281.7338,-310.2475 279.4078,-309.4404 277.0725,-308.6041"/>
<polygon fill="#191970" stroke="#191970" points="278.1428,-305.268 267.5499,-305.0674 275.7056,-311.8301 278.1428,-305.268"/>
</g>
<!-- Node26&#45;&gt;Node16 -->
<g id="edge36" class="edge">
<title>Node26&#45;&gt;Node16</title>
<path fill="none" stroke="#191970" d="M528.3937,-358.8134C629.0198,-351.9852 828.4752,-335.7713 894,-311 930.8583,-297.0659 967.2877,-268.5461 988.1641,-250.3987"/>
<polygon fill="#191970" stroke="#191970" points="990.7171,-252.8123 995.8677,-243.5537 986.0675,-247.5795 990.7171,-252.8123"/>
</g>
<!-- Node26&#45;&gt;Node23 -->
<g id="edge32" class="edge">
<title>Node26&#45;&gt;Node23</title>
<path fill="none" stroke="#191970" d="M463.7431,-347.4183C458.7018,-330.5017 452.9475,-302.4894 461,-280 483.1007,-218.2762 500.9205,-201.9612 557,-168 680.8813,-92.9788 856.8745,-73.0871 934.9909,-67.8509"/>
<polygon fill="#191970" stroke="#191970" points="935.5854,-71.3207 945.3482,-67.2051 935.1497,-64.3343 935.5854,-71.3207"/>
</g>
<!-- Node27 -->
<g id="node24" class="node">
<title>Node27</title>
<polygon fill="#ffffff" stroke="#bfbfbf" points="388,-168.5 388,-187.5 434,-187.5 434,-168.5 388,-168.5"/>
<text text-anchor="middle" x="411" y="-175.5" font-family="Helvetica,sans-Serif" font-size="10.00" fill="#000000">atomic</text>
</g>
<!-- Node26&#45;&gt;Node27 -->
<g id="edge31" class="edge">
<title>Node26&#45;&gt;Node27</title>
<path fill="none" stroke="#191970" d="M438.6727,-347.4043C422.7877,-338.4183 403.8209,-325.8707 390,-311 366.8422,-286.0831 361.491,-276.9399 353,-244 350.7812,-235.3925 349.1325,-232.0034 353,-224 359.2828,-210.9981 371.2235,-200.5481 382.6451,-192.9145"/>
<polygon fill="#191970" stroke="#191970" points="384.5177,-195.8718 391.1759,-187.6305 380.8316,-189.9209 384.5177,-195.8718"/>
</g>
<!-- Node28 -->
<g id="node25" class="node">
<title>Node28</title>
<polygon fill="#ffffff" stroke="#bfbfbf" points="752,-168.5 752,-187.5 792,-187.5 792,-168.5 752,-168.5"/>
<text text-anchor="middle" x="772" y="-175.5" font-family="Helvetica,sans-Serif" font-size="10.00" fill="#000000">utility</text>
</g>
<!-- Node26&#45;&gt;Node28 -->
<g id="edge34" class="edge">
<title>Node26&#45;&gt;Node28</title>
<path fill="none" stroke="#191970" d="M471.9262,-347.3701C476.309,-328.799 486.372,-297.611 507,-280 551.9445,-241.629 579.7246,-264.904 635,-244 674.7612,-228.9631 718.7026,-206.7321 745.8362,-192.3052"/>
<polygon fill="#191970" stroke="#191970" points="747.54,-195.3631 754.6984,-187.5523 744.2315,-189.1943 747.54,-195.3631"/>
</g>
<!-- Node29 -->
<g id="node26" class="node">
<title>Node29</title>
<g id="a_node26"><a xlink:href="agent__uid__map_8h.html" target="_top" xlink:title="core/container/agent\l_uid_map.h">
<polygon fill="#ffffff" stroke="#000000" points="780.5,-280.5 780.5,-310.5 885.5,-310.5 885.5,-280.5 780.5,-280.5"/>
<text text-anchor="start" x="788.5" y="-298.5" font-family="Helvetica,sans-Serif" font-size="10.00" fill="#000000">core/container/agent</text>
<text text-anchor="middle" x="833" y="-287.5" font-family="Helvetica,sans-Serif" font-size="10.00" fill="#000000">_uid_map.h</text>
</a>
</g>
</g>
<!-- Node26&#45;&gt;Node29 -->
<g id="edge37" class="edge">
<title>Node26&#45;&gt;Node29</title>
<path fill="none" stroke="#191970" d="M528.2769,-353.7563C587.206,-344.7559 680.3612,-329.6998 770.4626,-311.0214"/>
<polygon fill="#191970" stroke="#191970" points="771.2257,-314.4376 780.2978,-308.9653 769.7932,-307.5858 771.2257,-314.4376"/>
</g>
<!-- Node30 -->
<g id="node27" class="node">
<title>Node30</title>
<g id="a_node27"><a xlink:href="functor_8h.html" target="_top" xlink:title="core/functor.h">
<polygon fill="#ffffff" stroke="#000000" points="516.5,-286 516.5,-305 593.5,-305 593.5,-286 516.5,-286"/>
<text text-anchor="middle" x="555" y="-293" font-family="Helvetica,sans-Serif" font-size="10.00" fill="#000000">core/functor.h</text>
</a>
</g>
</g>
<!-- Node26&#45;&gt;Node30 -->
<g id="edge41" class="edge">
<title>Node26&#45;&gt;Node30</title>
<path fill="none" stroke="#191970" d="M488.5147,-347.2967C502.3042,-336.5537 520.7418,-322.1895 534.7028,-311.3129"/>
<polygon fill="#191970" stroke="#191970" points="536.9978,-313.9618 542.7354,-305.055 532.6958,-308.4398 536.9978,-313.9618"/>
</g>
<!-- Node31 -->
<g id="node28" class="node">
<title>Node31</title>
<g id="a_node28"><a xlink:href="operation_8h.html" target="_top" xlink:title="core/operation/operation.h">
<polygon fill="#ffffff" stroke="#000000" points="566.5,-168.5 566.5,-187.5 695.5,-187.5 695.5,-168.5 566.5,-168.5"/>
<text text-anchor="middle" x="631" y="-175.5" font-family="Helvetica,sans-Serif" font-size="10.00" fill="#000000">core/operation/operation.h</text>
</a>
</g>
</g>
<!-- Node26&#45;&gt;Node31 -->
<g id="edge42" class="edge">
<title>Node26&#45;&gt;Node31</title>
<path fill="none" stroke="#191970" d="M528.1521,-349.8261C553.2805,-342.0328 581.4534,-329.8094 602,-311 632.5033,-283.0756 636.793,-265.3159 635,-224 634.6273,-215.4107 633.8648,-205.9445 633.1045,-197.8439"/>
<polygon fill="#191970" stroke="#191970" points="636.5834,-197.4567 632.106,-187.8544 629.6181,-198.1529 636.5834,-197.4567"/>
</g>
<!-- Node26&#45;&gt;Node32 -->
<g id="edge47" class="edge">
<title>Node26&#45;&gt;Node32</title>
<path fill="none" stroke="#191970" d="M436.0944,-347.4761C421.6206,-338.9924 406.0946,-326.8713 398,-311 388.7029,-292.771 394.8881,-269.2703 401.5308,-253.0512"/>
<polygon fill="#191970" stroke="#191970" points="404.8846,-254.1279 405.804,-243.573 398.5032,-251.2508 404.8846,-254.1279"/>
</g>
<!-- Node33 -->
<g id="node30" class="node">
<title>Node33</title>
<g id="a_node30"><a xlink:href="thread__info_8h.html" target="_top" xlink:title="core/util/thread_info.h">
<polygon fill="#ffffff" stroke="#ff0000" points="516,-224.5 516,-243.5 626,-243.5 626,-224.5 516,-224.5"/>
<text text-anchor="middle" x="571" y="-231.5" font-family="Helvetica,sans-Serif" font-size="10.00" fill="#000000">core/util/thread_info.h</text>
</a>
</g>
</g>
<!-- Node26&#45;&gt;Node33 -->
<g id="edge49" class="edge">
<title>Node26&#45;&gt;Node33</title>
<path fill="none" stroke="#191970" d="M465.6356,-347.3533C462.5925,-329.6109 460.4225,-300.0928 474,-280 484.4776,-264.4945 501.6579,-254.0757 518.6713,-247.1387"/>
<polygon fill="#191970" stroke="#191970" points="519.9181,-250.4093 528.0624,-243.6328 517.4698,-243.8513 519.9181,-250.4093"/>
</g>
<!-- Node29&#45;&gt;Node2 -->
<g id="edge39" class="edge">
<title>Node29&#45;&gt;Node2</title>
<path fill="none" stroke="#191970" d="M790.9862,-280.435C715.6042,-253.2259 564.4872,-197.7907 557,-188 521.0557,-140.9972 528.0675,-65.4515 534.022,-29.818"/>
<polygon fill="#191970" stroke="#191970" points="537.5093,-30.204 535.8623,-19.7379 530.6231,-28.9467 537.5093,-30.204"/>
</g>
<!-- Node29&#45;&gt;Node6 -->
<g id="edge38" class="edge">
<title>Node29&#45;&gt;Node6</title>
<path fill="none" stroke="#191970" d="M847.6959,-280.2784C862.1588,-265.4989 885.0576,-242.6293 906,-224 917.6954,-213.5964 931.3222,-202.5623 942.319,-193.9094"/>
<polygon fill="#191970" stroke="#191970" points="944.755,-196.4482 950.4873,-187.538 940.4497,-190.9287 944.755,-196.4482"/>
</g>
<!-- Node29&#45;&gt;Node16 -->
<g id="edge40" class="edge">
<title>Node29&#45;&gt;Node16</title>
<path fill="none" stroke="#191970" d="M875.3206,-280.4554C904.1861,-270.194 942.0239,-256.7429 969.5516,-246.9571"/>
<polygon fill="#191970" stroke="#191970" points="970.9412,-250.1778 979.1911,-243.5303 968.5964,-243.5821 970.9412,-250.1778"/>
</g>
<!-- Node31&#45;&gt;Node2 -->
<g id="edge45" class="edge">
<title>Node31&#45;&gt;Node2</title>
<path fill="none" stroke="#191970" d="M625.7335,-168.4862C610.8414,-141.5845 568.2247,-64.5994 548.389,-28.7673"/>
<polygon fill="#191970" stroke="#191970" points="551.3458,-26.8817 543.4404,-19.8279 545.2215,-30.272 551.3458,-26.8817"/>
</g>
<!-- Node31&#45;&gt;Node10 -->
<g id="edge44" class="edge">
<title>Node31&#45;&gt;Node10</title>
<path fill="none" stroke="#191970" d="M690.2058,-168.4909C819.7457,-147.7241 1138.0882,-96.9021 1405,-56 1506.7775,-40.4034 1627.5337,-22.6419 1683.1491,-14.5035"/>
<polygon fill="#191970" stroke="#191970" points="1683.9904,-17.9178 1693.3787,-13.0076 1682.9775,-10.9914 1683.9904,-17.9178"/>
</g>
<!-- Node31&#45;&gt;Node19 -->
<g id="edge46" class="edge">
<title>Node31&#45;&gt;Node19</title>
<path fill="none" stroke="#191970" d="M695.6366,-169.524C700.4937,-168.9772 705.3223,-168.4617 710,-168 934.03,-145.8861 1202.6478,-130.2917 1310.128,-124.4941"/>
<polygon fill="#191970" stroke="#191970" points="1310.5233,-127.978 1320.3215,-123.9476 1310.1485,-120.9881 1310.5233,-127.978"/>
</g>
<!-- Node31&#45;&gt;Node23 -->
<g id="edge43" class="edge">
<title>Node31&#45;&gt;Node23</title>
<path fill="none" stroke="#191970" d="M660.3292,-168.4509C722.274,-148.2829 866.4433,-101.3441 936.0369,-78.6857"/>
<polygon fill="#191970" stroke="#191970" points="937.3198,-81.9489 945.745,-75.5249 935.1527,-75.2928 937.3198,-81.9489"/>
</g>
<!-- Node32&#45;&gt;Node27 -->
<g id="edge48" class="edge">
<title>Node32&#45;&gt;Node27</title>
<path fill="none" stroke="#191970" d="M411,-224.2455C411,-216.9382 411,-206.6944 411,-197.7046"/>
<polygon fill="#191970" stroke="#191970" points="414.5001,-197.6426 411,-187.6427 407.5001,-197.6427 414.5001,-197.6426"/>
</g>
<!-- Node33&#45;&gt;Node2 -->
<g id="edge51" class="edge">
<title>Node33&#45;&gt;Node2</title>
<path fill="none" stroke="#191970" d="M535.4402,-224.3459C517.2535,-217.4075 496.7363,-206.0179 486,-188 455.9695,-137.6021 461.9028,-109.4893 486,-56 491.5697,-43.6369 502.2863,-33.2563 512.5506,-25.5033"/>
<polygon fill="#191970" stroke="#191970" points="514.7618,-28.2277 520.9433,-19.623 510.7451,-22.4948 514.7618,-28.2277"/>
</g>
<!-- Node33&#45;&gt;Node19 -->
<g id="edge52" class="edge">
<title>Node33&#45;&gt;Node19</title>
<path fill="none" stroke="#191970" d="M602.6445,-224.4418C629.893,-215.8846 670.0688,-202.4828 704,-188 721.9159,-180.353 724.2484,-173.2757 743,-168 797.055,-152.7919 1175.5099,-131.6185 1310.3922,-124.4693"/>
<polygon fill="#191970" stroke="#191970" points="1310.6265,-127.9619 1320.4281,-123.9395 1310.2574,-120.9716 1310.6265,-127.9619"/>
</g>
<!-- Node33&#45;&gt;Node27 -->
<g id="edge50" class="edge">
<title>Node33&#45;&gt;Node27</title>
<path fill="none" stroke="#191970" d="M543.495,-224.3733C515.841,-214.6944 473.2035,-199.7712 443.8034,-189.4812"/>
<polygon fill="#191970" stroke="#191970" points="444.5974,-186.051 434.0026,-186.0509 442.2849,-192.658 444.5974,-186.051"/>
</g>
<!-- Node37&#45;&gt;Node2 -->
<g id="edge56" class="edge">
<title>Node37&#45;&gt;Node2</title>
<path fill="none" stroke="#191970" d="M1143.7059,-352.9532C1149.4902,-320.2655 1168,-212.9356 1168,-178 1168,-178 1168,-178 1168,-122 1168,-47.1259 1085.5548,-74.4913 1013,-56 928.7261,-34.522 663.2291,-17.3353 570.4153,-11.8458"/>
<polygon fill="#191970" stroke="#191970" points="570.4123,-8.3397 560.2249,-11.2492 570.0032,-15.3277 570.4123,-8.3397"/>
</g>
<!-- Node37&#45;&gt;Node10 -->
<g id="edge55" class="edge">
<title>Node37&#45;&gt;Node10</title>
<path fill="none" stroke="#191970" d="M1145.1414,-352.8439C1158.1854,-314.4723 1212.0763,-171.9612 1311,-112 1434.8681,-36.9192 1612.2073,-16.8704 1683.0465,-11.7121"/>
<polygon fill="#191970" stroke="#191970" points="1683.3526,-15.1995 1693.0925,-11.03 1682.8783,-8.2156 1683.3526,-15.1995"/>
</g>
<!-- Node37&#45;&gt;Node16 -->
<g id="edge57" class="edge">
<title>Node37&#45;&gt;Node16</title>
<path fill="none" stroke="#191970" d="M1118.0082,-352.8768C1098.4917,-344.1519 1071.1441,-329.7882 1052,-311 1034.8813,-294.1995 1021.7096,-269.7404 1013.9326,-252.9209"/>
<polygon fill="#191970" stroke="#191970" points="1017.0445,-251.3038 1009.8004,-243.5724 1010.6421,-254.1338 1017.0445,-251.3038"/>
</g>
<!-- Node37&#45;&gt;Node17 -->
<g id="edge73" class="edge">
<title>Node37&#45;&gt;Node17</title>
<path fill="none" stroke="#191970" d="M1187.6181,-354.8651C1251.6082,-343.7953 1361.8327,-323.2741 1376,-311 1409.7416,-281.7675 1420.7648,-227.3977 1424.3279,-198.041"/>
<polygon fill="#191970" stroke="#191970" points="1427.8407,-198.0969 1425.3882,-187.7898 1420.8779,-197.3767 1427.8407,-198.0969"/>
</g>
<!-- Node37&#45;&gt;Node23 -->
<g id="edge54" class="edge">
<title>Node37&#45;&gt;Node23</title>
<path fill="none" stroke="#191970" d="M1137.6127,-352.9387C1127.1105,-330.2272 1099.4289,-271.3942 1073,-224 1044.1868,-172.3301 1006.3986,-113.6589 987.2554,-84.4961"/>
<polygon fill="#191970" stroke="#191970" points="989.9432,-82.2141 981.5181,-75.7901 984.0983,-86.066 989.9432,-82.2141"/>
</g>
<!-- Node38 -->
<g id="node32" class="node">
<title>Node38</title>
<g id="a_node32"><a xlink:href="opencl__state_8h.html" target="_top" xlink:title="core/gpu/opencl_state.h">
<polygon fill="#ffffff" stroke="#000000" points="1246.5,-286 1246.5,-305 1367.5,-305 1367.5,-286 1246.5,-286"/>
<text text-anchor="middle" x="1307" y="-293" font-family="Helvetica,sans-Serif" font-size="10.00" fill="#000000">core/gpu/opencl_state.h</text>
</a>
</g>
</g>
<!-- Node37&#45;&gt;Node38 -->
<g id="edge58" class="edge">
<title>Node37&#45;&gt;Node38</title>
<path fill="none" stroke="#191970" d="M1165.6405,-352.9005C1194.0664,-341.3579 1241.9449,-321.9163 1274.0017,-308.8993"/>
<polygon fill="#191970" stroke="#191970" points="1275.4549,-312.0868 1283.4034,-305.0817 1272.8213,-305.6011 1275.4549,-312.0868"/>
</g>
<!-- Node39 -->
<g id="node33" class="node">
<title>Node39</title>
<g id="a_node33"><a xlink:href="memory__manager_8h.html" target="_top" xlink:title="core/memory/memory\l_manager.h">
<polygon fill="#ffffff" stroke="#ff0000" points="650,-280.5 650,-310.5 762,-310.5 762,-280.5 650,-280.5"/>
<text text-anchor="start" x="658" y="-298.5" font-family="Helvetica,sans-Serif" font-size="10.00" fill="#000000">core/memory/memory</text>
<text text-anchor="middle" x="706" y="-287.5" font-family="Helvetica,sans-Serif" font-size="10.00" fill="#000000">_manager.h</text>
</a>
</g>
</g>
<!-- Node37&#45;&gt;Node39 -->
<g id="edge60" class="edge">
<title>Node37&#45;&gt;Node39</title>
<path fill="none" stroke="#191970" d="M1096.3671,-357.5972C1027.9882,-349.9371 894.733,-333.7981 772.2269,-311.1311"/>
<polygon fill="#191970" stroke="#191970" points="772.7721,-307.6724 762.2992,-309.2752 771.4857,-314.5533 772.7721,-307.6724"/>
</g>
<!-- Node38&#45;&gt;Node19 -->
<g id="edge59" class="edge">
<title>Node38&#45;&gt;Node19</title>
<path fill="none" stroke="#191970" d="M1299.4254,-285.857C1282.9418,-263.6159 1247.1429,-207.6006 1271,-168 1280.0536,-152.9718 1295.8423,-142.5985 1311.5061,-135.5638"/>
<polygon fill="#191970" stroke="#191970" points="1313.2528,-138.6308 1321.1816,-131.6034 1310.601,-132.1525 1313.2528,-138.6308"/>
</g>
<!-- Node39&#45;&gt;Node2 -->
<g id="edge63" class="edge">
<title>Node39&#45;&gt;Node2</title>
<path fill="none" stroke="#191970" d="M731.7226,-280.4697C767.6078,-257.4688 825.6729,-211.6055 801,-168 750.767,-79.2212 628.5171,-34.8506 570.105,-18.1281"/>
<polygon fill="#191970" stroke="#191970" points="570.875,-14.7096 560.3034,-15.4113 569.0052,-21.4553 570.875,-14.7096"/>
</g>
<!-- Node39&#45;&gt;Node5 -->
<g id="edge61" class="edge">
<title>Node39&#45;&gt;Node5</title>
<path fill="none" stroke="#191970" d="M747.5167,-280.3721C793.6765,-264.1168 870.7374,-238.6486 939,-224 1059.1109,-198.2252 1204.7151,-185.2497 1270.1715,-180.3638"/>
<polygon fill="#191970" stroke="#191970" points="1270.6211,-183.8404 1280.34,-179.6223 1270.1119,-176.859 1270.6211,-183.8404"/>
</g>
<!-- Node39&#45;&gt;Node28 -->
<g id="edge62" class="edge">
<title>Node39&#45;&gt;Node28</title>
<path fill="none" stroke="#191970" d="M718.6379,-280.3707C726.5561,-270.4367 736.6217,-256.9326 744,-244 752.5657,-228.9861 760.0779,-210.8388 765.1589,-197.3762"/>
<polygon fill="#191970" stroke="#191970" points="768.5379,-198.3269 768.6862,-187.7331 761.9639,-195.9222 768.5379,-198.3269"/>
</g>
<!-- Node39&#45;&gt;Node32 -->
<g id="edge71" class="edge">
<title>Node39&#45;&gt;Node32</title>
<path fill="none" stroke="#191970" d="M649.8184,-283.7876C597.2069,-272.8194 519.0405,-256.5237 466.6138,-245.5941"/>
<polygon fill="#191970" stroke="#191970" points="467.3156,-242.1652 456.8118,-243.5506 465.887,-249.0179 467.3156,-242.1652"/>
</g>
<!-- Node39&#45;&gt;Node33 -->
<g id="edge72" class="edge">
<title>Node39&#45;&gt;Node33</title>
<path fill="none" stroke="#191970" d="M672.9753,-280.4554C651.043,-270.464 622.4727,-257.4487 601.1547,-247.7372"/>
<polygon fill="#191970" stroke="#191970" points="602.4714,-244.4909 591.9202,-243.5303 599.5694,-250.8611 602.4714,-244.4909"/>
</g>
<!-- Node39&#45;&gt;Node41 -->
<g id="edge64" class="edge">
<title>Node39&#45;&gt;Node41</title>
<path fill="none" stroke="#191970" d="M649.9134,-286.8048C634.4062,-284.4923 617.5628,-282.0654 602,-280 489.178,-265.0271 357.867,-250.2632 278.6612,-241.6478"/>
<polygon fill="#191970" stroke="#191970" points="278.6334,-238.1243 268.3142,-240.5251 277.8783,-245.0835 278.6334,-238.1243"/>
</g>
<!-- Node41&#45;&gt;Node2 -->
<g id="edge69" class="edge">
<title>Node41&#45;&gt;Node2</title>
<path fill="none" stroke="#191970" d="M221.2227,-224.375C272.9987,-189.3363 451.7134,-68.3933 515.3112,-25.3544"/>
<polygon fill="#191970" stroke="#191970" points="517.5101,-28.0924 523.8303,-19.5891 513.5869,-22.2952 517.5101,-28.0924"/>
</g>
<!-- Node41&#45;&gt;Node5 -->
<g id="edge65" class="edge">
<title>Node41&#45;&gt;Node5</title>
<path fill="none" stroke="#191970" d="M268.0732,-229.5421C294.2207,-227.7048 325.1003,-225.6294 353,-224 711.3407,-203.0728 1145.96,-184.582 1270.2817,-179.4251"/>
<polygon fill="#191970" stroke="#191970" points="1270.505,-182.919 1280.3517,-179.0085 1270.2155,-175.9249 1270.505,-182.919"/>
</g>
<!-- Node41&#45;&gt;Node14 -->
<g id="edge67" class="edge">
<title>Node41&#45;&gt;Node14</title>
<path fill="none" stroke="#191970" d="M186.7151,-224.3733C167.8579,-215.4241 139.554,-201.9917 118.2545,-191.8835"/>
<polygon fill="#191970" stroke="#191970" points="119.5551,-188.6266 109.0202,-187.5011 116.5539,-194.9506 119.5551,-188.6266"/>
</g>
<!-- Node41&#45;&gt;Node25 -->
<g id="edge70" class="edge">
<title>Node41&#45;&gt;Node25</title>
<path fill="none" stroke="#191970" d="M226.287,-224.4759C257.5095,-209.5503 321.4421,-181.013 379,-168 622.6141,-112.9223 1412.0441,-77.0137 1625.4172,-68.147"/>
<polygon fill="#191970" stroke="#191970" points="1625.8787,-71.631 1635.7257,-67.7211 1625.5897,-64.637 1625.8787,-71.631"/>
</g>
<!-- Node41&#45;&gt;Node28 -->
<g id="edge68" class="edge">
<title>Node41&#45;&gt;Node28</title>
<path fill="none" stroke="#191970" d="M268.2139,-228.5204C391.532,-217.4543 661.7333,-193.0601 704,-188 716.3367,-186.5231 729.8874,-184.5932 741.6236,-182.8232"/>
<polygon fill="#191970" stroke="#191970" points="742.4517,-186.2372 751.8048,-181.2603 741.3895,-179.3183 742.4517,-186.2372"/>
</g>
<!-- Node42 -->
<g id="node35" class="node">
<title>Node42</title>
<polygon fill="#ffffff" stroke="#bfbfbf" points="182.5,-168.5 182.5,-187.5 231.5,-187.5 231.5,-168.5 182.5,-168.5"/>
<text text-anchor="middle" x="207" y="-175.5" font-family="Helvetica,sans-Serif" font-size="10.00" fill="#000000">cstddef</text>
</g>
<!-- Node41&#45;&gt;Node42 -->
<g id="edge66" class="edge">
<title>Node41&#45;&gt;Node42</title>
<path fill="none" stroke="#191970" d="M207,-224.2455C207,-216.9382 207,-206.6944 207,-197.7046"/>
<polygon fill="#191970" stroke="#191970" points="210.5001,-197.6426 207,-187.6427 203.5001,-197.6427 210.5001,-197.6426"/>
</g>
<!-- Node50&#45;&gt;Node6 -->
<g id="edge77" class="edge">
<title>Node50&#45;&gt;Node6</title>
<path fill="none" stroke="#191970" d="M1506.1893,-348.804C1503.0867,-348.1667 1500.0085,-347.5603 1497,-347 1382.314,-325.6412 1348.0022,-346.8833 1237,-311 1158.4903,-285.6204 1147.5838,-259.2868 1073,-224 1046.2268,-211.3331 1015.018,-198.4555 992.696,-189.5599"/>
<polygon fill="#191970" stroke="#191970" points="993.6995,-186.193 983.1132,-185.768 991.1239,-192.702 993.6995,-186.193"/>
</g>
<!-- Node50&#45;&gt;Node19 -->
<g id="edge94" class="edge">
<title>Node50&#45;&gt;Node19</title>
<path fill="none" stroke="#191970" d="M1575.7692,-347.3692C1588.8673,-329.9058 1605.4376,-300.9106 1591,-280 1565.3457,-242.8439 1537.5697,-261.6261 1496,-244 1442.1853,-221.1818 1414.9071,-232.4943 1377,-188 1366.0172,-175.1087 1361.3727,-156.2061 1359.414,-141.9306"/>
<polygon fill="#191970" stroke="#191970" points="1362.8635,-141.2622 1358.3492,-131.6772 1355.9009,-141.9853 1362.8635,-141.2622"/>
</g>
<!-- Node51 -->
<g id="node37" class="node">
<title>Node51</title>
<polygon fill="#ffffff" stroke="#bfbfbf" points="1538,-286 1538,-305 1582,-305 1582,-286 1538,-286"/>
<text text-anchor="middle" x="1560" y="-293" font-family="Helvetica,sans-Serif" font-size="10.00" fill="#000000">mutex</text>
</g>
<!-- Node50&#45;&gt;Node51 -->
<g id="edge78" class="edge">
<title>Node50&#45;&gt;Node51</title>
<path fill="none" stroke="#191970" d="M1562.3193,-347.2967C1561.8927,-337.7699 1561.3386,-325.3954 1560.879,-315.1306"/>
<polygon fill="#191970" stroke="#191970" points="1564.3717,-314.8884 1560.4278,-305.055 1557.3787,-315.2016 1564.3717,-314.8884"/>
</g>
<!-- Node50&#45;&gt;Node52 -->
<g id="edge79" class="edge">
<title>Node50&#45;&gt;Node52</title>
<path fill="none" stroke="#191970" d="M1600.0292,-347.4639C1624.0408,-337.7137 1655.5258,-324.9289 1681.2569,-314.4805"/>
<polygon fill="#191970" stroke="#191970" points="1682.8608,-317.6069 1690.8093,-310.6017 1680.2272,-311.1212 1682.8608,-317.6069"/>
</g>
<!-- Node52&#45;&gt;Node2 -->
<g id="edge86" class="edge">
<title>Node52&#45;&gt;Node2</title>
<path fill="none" stroke="#191970" d="M1675.6449,-289.049C1641.534,-282.5463 1597.8065,-269.6048 1567,-244 1515.7701,-201.4203 1549.9481,-151.0786 1496,-112 1419.2833,-56.4284 728.1179,-19.3337 570.0828,-11.5332"/>
<polygon fill="#191970" stroke="#191970" points="570.2067,-8.0352 560.0475,-11.0421 569.8645,-15.0268 570.2067,-8.0352"/>
</g>
<!-- Node52&#45;&gt;Node4 -->
<g id="edge80" class="edge">
<title>Node52&#45;&gt;Node4</title>
<path fill="none" stroke="#191970" d="M1780.0577,-287.2058C1858.7436,-274.6691 2006.1536,-251.1828 2075.7527,-240.0938"/>
<polygon fill="#191970" stroke="#191970" points="2076.5116,-243.5171 2085.8363,-238.4872 2075.4101,-236.6043 2076.5116,-243.5171"/>
</g>
<!-- Node52&#45;&gt;Node5 -->
<g id="edge82" class="edge">
<title>Node52&#45;&gt;Node5</title>
<path fill="none" stroke="#191970" d="M1675.6336,-281.9186C1636.5468,-271.7037 1581.8575,-257.2471 1534,-244 1464.821,-224.851 1384.236,-201.3452 1339.4748,-188.1819"/>
<polygon fill="#191970" stroke="#191970" points="1340.2706,-184.7677 1329.6892,-185.301 1338.2937,-191.4828 1340.2706,-184.7677"/>
</g>
<!-- Node52&#45;&gt;Node6 -->
<g id="edge83" class="edge">
<title>Node52&#45;&gt;Node6</title>
<path fill="none" stroke="#191970" d="M1675.7195,-287.47C1527.7104,-264.7366 1109.0243,-200.4286 993.0866,-182.6211"/>
<polygon fill="#191970" stroke="#191970" points="993.5465,-179.1508 983.131,-181.092 992.4837,-186.0697 993.5465,-179.1508"/>
</g>
<!-- Node52&#45;&gt;Node9 -->
<g id="edge84" class="edge">
<title>Node52&#45;&gt;Node9</title>
<path fill="none" stroke="#191970" d="M1780.0891,-289.3626C1811.5871,-283.0212 1850.2994,-270.1418 1875,-244 1895.9639,-221.8129 1894,-208.5246 1894,-178 1894,-178 1894,-178 1894,-122 1894,-89.7116 1894,-52.1872 1894,-29.8048"/>
<polygon fill="#191970" stroke="#191970" points="1897.5001,-29.5883 1894,-19.5884 1890.5001,-29.5884 1897.5001,-29.5883"/>
</g>
<!-- Node52&#45;&gt;Node17 -->
<g id="edge92" class="edge">
<title>Node52&#45;&gt;Node17</title>
<path fill="none" stroke="#191970" d="M1714.141,-280.4293C1698.1349,-263.9758 1670.2322,-238.0972 1641,-224 1626.2117,-216.8684 1534.1933,-198.546 1475.4303,-187.2957"/>
<polygon fill="#191970" stroke="#191970" points="1476.0658,-183.8539 1465.587,-185.4177 1474.7539,-190.7298 1476.0658,-183.8539"/>
</g>
<!-- Node52&#45;&gt;Node19 -->
<g id="edge91" class="edge">
<title>Node52&#45;&gt;Node19</title>
<path fill="none" stroke="#191970" d="M1739.7309,-280.3897C1750.4516,-264.6254 1762.7155,-240.0186 1749,-224 1715.2103,-184.5365 1567.7745,-202.8866 1518,-188 1497.4198,-181.8448 1493.7679,-176.4062 1474,-168 1446.7863,-156.4275 1415.614,-144.1179 1392.4416,-135.1474"/>
<polygon fill="#191970" stroke="#191970" points="1393.6248,-131.8525 1383.0352,-131.5192 1391.1057,-138.3835 1393.6248,-131.8525"/>
</g>
<!-- Node44 -->
<g id="node39" class="node">
<title>Node44</title>
<polygon fill="#ffffff" stroke="#bfbfbf" points="1992,-224.5 1992,-243.5 2030,-243.5 2030,-224.5 1992,-224.5"/>
<text text-anchor="middle" x="2011" y="-231.5" font-family="Helvetica,sans-Serif" font-size="10.00" fill="#000000">array</text>
</g>
<!-- Node52&#45;&gt;Node44 -->
<g id="edge81" class="edge">
<title>Node52&#45;&gt;Node44</title>
<path fill="none" stroke="#191970" d="M1780.0359,-287.0232C1831.7102,-278.1209 1912.9758,-262.8099 1982,-244 1982.0996,-243.9729 1982.1993,-243.9456 1982.2991,-243.9181"/>
<polygon fill="#191970" stroke="#191970" points="1983.2245,-247.2951 1991.7675,-241.0288 1981.1814,-240.5999 1983.2245,-247.2951"/>
</g>
<!-- Node53 -->
<g id="node40" class="node">
<title>Node53</title>
<polygon fill="#ffffff" stroke="#bfbfbf" points="1922.5,-224.5 1922.5,-243.5 1973.5,-243.5 1973.5,-224.5 1922.5,-224.5"/>
<text text-anchor="middle" x="1948" y="-231.5" font-family="Helvetica,sans-Serif" font-size="10.00" fill="#000000">typeinfo</text>
</g>
<!-- Node52&#45;&gt;Node53 -->
<g id="edge85" class="edge">
<title>Node52&#45;&gt;Node53</title>
<path fill="none" stroke="#191970" d="M1780.1369,-280.9254C1820.9608,-269.5132 1876.6492,-253.9458 1912.4716,-243.9318"/>
<polygon fill="#191970" stroke="#191970" points="1913.7773,-247.201 1922.4658,-241.138 1911.8927,-240.4595 1913.7773,-247.201"/>
</g>
<!-- Node54 -->
<g id="node41" class="node">
<title>Node54</title>
<g id="a_node41"><a xlink:href="io_8h.html" target="_top" xlink:title="core/util/io.h">
<polygon fill="#ffffff" stroke="#ff0000" points="1796,-224.5 1796,-243.5 1866,-243.5 1866,-224.5 1796,-224.5"/>
<text text-anchor="middle" x="1831" y="-231.5" font-family="Helvetica,sans-Serif" font-size="10.00" fill="#000000">core/util/io.h</text>
</a>
</g>
</g>
<!-- Node52&#45;&gt;Node54 -->
<g id="edge87" class="edge">
<title>Node52&#45;&gt;Node54</title>
<path fill="none" stroke="#191970" d="M1753.1966,-280.4554C1769.3272,-270.8241 1790.1638,-258.3828 1806.2136,-248.7996"/>
<polygon fill="#191970" stroke="#191970" points="1808.247,-251.662 1815.0387,-243.5303 1804.6584,-245.6518 1808.247,-251.662"/>
</g>
<!-- Node57 -->
<g id="node42" class="node">
<title>Node57</title>
<polygon fill="#ffffff" stroke="#bfbfbf" points="1576,-224.5 1576,-243.5 1632,-243.5 1632,-224.5 1576,-224.5"/>
<text text-anchor="middle" x="1604" y="-231.5" font-family="Helvetica,sans-Serif" font-size="10.00" fill="#000000">Rtypes.h</text>
</g>
<!-- Node52&#45;&gt;Node57 -->
<g id="edge93" class="edge">
<title>Node52&#45;&gt;Node57</title>
<path fill="none" stroke="#191970" d="M1697.6662,-280.4554C1677.7024,-270.554 1651.751,-257.683 1632.2285,-248.0004"/>
<polygon fill="#191970" stroke="#191970" points="1633.7294,-244.838 1623.2156,-243.5303 1630.6191,-251.1091 1633.7294,-244.838"/>
</g>
<!-- Node54&#45;&gt;Node2 -->
<g id="edge89" class="edge">
<title>Node54&#45;&gt;Node2</title>
<path fill="none" stroke="#191970" d="M1809.8696,-224.4067C1763.0556,-203.2601 1646.9173,-151.3879 1548,-112 1480.7255,-85.2119 1465.9358,-70.5454 1395,-56 1232.8131,-22.7436 706.3906,-12.5616 570.3345,-10.454"/>
<polygon fill="#191970" stroke="#191970" points="570.2064,-6.9518 560.1547,-10.3003 570.1006,-13.951 570.2064,-6.9518"/>
</g>
<!-- Node54&#45;&gt;Node10 -->
<g id="edge88" class="edge">
<title>Node54&#45;&gt;Node10</title>
<path fill="none" stroke="#191970" d="M1827.317,-224.3977C1816.6939,-197.1321 1784.4196,-117.2541 1748,-56 1742.1992,-46.2436 1734.8007,-36.0296 1728.3875,-27.7115"/>
<polygon fill="#191970" stroke="#191970" points="1731.1103,-25.5119 1722.1692,-19.828 1725.6143,-29.8471 1731.1103,-25.5119"/>
</g>
<!-- Node54&#45;&gt;Node17 -->
<g id="edge90" class="edge">
<title>Node54&#45;&gt;Node17</title>
<path fill="none" stroke="#191970" d="M1795.7674,-229.1283C1723.5326,-219.1403 1558.4842,-196.3188 1475.5257,-184.848"/>
<polygon fill="#191970" stroke="#191970" points="1475.9716,-181.3764 1465.5864,-183.4737 1475.0128,-188.3105 1475.9716,-181.3764"/>
</g>
<!-- Node46&#45;&gt;Node4 -->
<g id="edge97" class="edge">
<title>Node46&#45;&gt;Node4</title>
<path fill="none" stroke="#191970" d="M2218.9968,-280.4554C2196.3129,-270.419 2166.7327,-257.3314 2144.7521,-247.6061"/>
<polygon fill="#191970" stroke="#191970" points="2146.1011,-244.3758 2135.5401,-243.5303 2143.2688,-250.7772 2146.1011,-244.3758"/>
</g>
<!-- Node46&#45;&gt;Node5 -->
<g id="edge98" class="edge">
<title>Node46&#45;&gt;Node5</title>
<path fill="none" stroke="#191970" d="M2243.7165,-280.494C2232.1324,-263.3103 2210.5736,-235.9911 2184,-224 2102.1877,-187.083 1466.3821,-196.1827 1377,-188 1364.7526,-186.8788 1351.396,-185.1621 1339.5495,-183.4657"/>
<polygon fill="#191970" stroke="#191970" points="1339.9974,-179.994 1329.5934,-181.9957 1338.9749,-186.9189 1339.9974,-179.994"/>
</g>
<!-- Node46&#45;&gt;Node15 -->
<g id="edge101" class="edge">
<title>Node46&#45;&gt;Node15</title>
<path fill="none" stroke="#191970" d="M2201.23,-290.224C2115.1659,-281.3531 1937.2496,-262.5903 1787,-244 1775.1419,-242.5328 1762.2187,-240.805 1750.5863,-239.2021"/>
<polygon fill="#191970" stroke="#191970" points="1750.7208,-235.6872 1740.3339,-237.7762 1749.7564,-242.6204 1750.7208,-235.6872"/>
</g>
<!-- Node46&#45;&gt;Node17 -->
<g id="edge104" class="edge">
<title>Node46&#45;&gt;Node17</title>
<path fill="none" stroke="#191970" d="M2304.763,-291.8758C2372.5805,-285.3348 2478.2008,-267.8882 2436,-224 2400.624,-187.2095 1568.9005,-191.7599 1518,-188 1504.3382,-186.9908 1489.571,-185.5446 1475.9504,-184.0643"/>
<polygon fill="#191970" stroke="#191970" points="1476.1216,-180.5618 1465.7954,-182.9324 1475.3461,-187.5187 1476.1216,-180.5618"/>
</g>
<!-- Node46&#45;&gt;Node28 -->
<g id="edge103" class="edge">
<title>Node46&#45;&gt;Node28</title>
<path fill="none" stroke="#191970" d="M2232.9066,-280.4761C2205.8786,-260.4147 2160.1335,-227.0316 2151,-224 2022.6065,-181.3836 1069.1407,-194.1682 934,-188 888.0981,-185.9049 834.9431,-182.4215 802.3995,-180.1684"/>
<polygon fill="#191970" stroke="#191970" points="802.413,-176.6609 792.1934,-179.4553 801.9251,-183.6439 802.413,-176.6609"/>
</g>
<!-- Node47 -->
<g id="node44" class="node">
<title>Node47</title>
<polygon fill="#ffffff" stroke="#bfbfbf" points="2383,-224.5 2383,-243.5 2427,-243.5 2427,-224.5 2383,-224.5"/>
<text text-anchor="middle" x="2405" y="-231.5" font-family="Helvetica,sans-Serif" font-size="10.00" fill="#000000">cmath</text>
</g>
<!-- Node46&#45;&gt;Node47 -->
<g id="edge99" class="edge">
<title>Node46&#45;&gt;Node47</title>
<path fill="none" stroke="#191970" d="M2290.1834,-280.4554C2315.6748,-270.1415 2349.1302,-256.6052 2373.3465,-246.8072"/>
<polygon fill="#191970" stroke="#191970" points="2374.8275,-249.9836 2382.7848,-242.9884 2372.202,-243.4947 2374.8275,-249.9836"/>
</g>
<!-- Node48 -->
<g id="node45" class="node">
<title>Node48</title>
<polygon fill="#ffffff" stroke="#bfbfbf" points="2236.5,-224.5 2236.5,-243.5 2287.5,-243.5 2287.5,-224.5 2236.5,-224.5"/>
<text text-anchor="middle" x="2262" y="-231.5" font-family="Helvetica,sans-Serif" font-size="10.00" fill="#000000">numeric</text>
</g>
<!-- Node46&#45;&gt;Node48 -->
<g id="edge100" class="edge">
<title>Node46&#45;&gt;Node48</title>
<path fill="none" stroke="#191970" d="M2255.2247,-280.2977C2256.3959,-272.2945 2257.8462,-262.3843 2259.1041,-253.7889"/>
<polygon fill="#191970" stroke="#191970" points="2262.574,-254.2484 2260.559,-243.8469 2255.6478,-253.2347 2262.574,-254.2484"/>
</g>
<!-- Node49 -->
<g id="node46" class="node">
<title>Node49</title>
<polygon fill="#ffffff" stroke="#bfbfbf" points="2305.5,-224.5 2305.5,-243.5 2364.5,-243.5 2364.5,-224.5 2305.5,-224.5"/>
<text text-anchor="middle" x="2335" y="-231.5" font-family="Helvetica,sans-Serif" font-size="10.00" fill="#000000">stdexcept</text>
</g>
<!-- Node46&#45;&gt;Node49 -->
<g id="edge102" class="edge">
<title>Node46&#45;&gt;Node49</title>
<path fill="none" stroke="#191970" d="M2273.2697,-280.2977C2285.6006,-271.0495 2301.3266,-259.2551 2313.8197,-249.8853"/>
<polygon fill="#191970" stroke="#191970" points="2315.9708,-252.647 2321.8708,-243.8469 2311.7707,-247.047 2315.9708,-252.647"/>
</g>
<!-- Node58&#45;&gt;Node44 -->
<g id="edge106" class="edge">
<title>Node58&#45;&gt;Node44</title>
<path fill="none" stroke="#191970" d="M2080.3628,-352.8416C2067.9296,-331.5393 2037.9768,-280.2203 2021.7991,-252.5025"/>
<polygon fill="#191970" stroke="#191970" points="2024.7663,-250.6427 2016.7026,-243.7705 2018.7206,-254.1713 2024.7663,-250.6427"/>
</g>
<!-- Node58&#45;&gt;Node46 -->
<g id="edge107" class="edge">
<title>Node58&#45;&gt;Node46</title>
<path fill="none" stroke="#191970" d="M2109.927,-352.9005C2134.9377,-342.8663 2174.8272,-326.8627 2206.1409,-314.2997"/>
<polygon fill="#191970" stroke="#191970" points="2207.58,-317.4936 2215.5577,-310.5218 2204.9735,-310.997 2207.58,-317.4936"/>
</g>
<!-- Node61&#45;&gt;Node11 -->
<g id="edge113" class="edge">
<title>Node61&#45;&gt;Node11</title>
<path fill="none" stroke="#191970" d="M1976.4106,-415.4552C1973.2341,-414.9171 1970.0694,-414.4229 1967,-414 1759.46,-385.4045 1701.3101,-424.3458 1497,-378 1493.9745,-377.3137 1490.8745,-376.4403 1487.8043,-375.459"/>
<polygon fill="#191970" stroke="#191970" points="1488.8218,-372.1061 1478.2271,-372.0531 1486.4763,-378.7015 1488.8218,-372.1061"/>
</g>
<!-- Node61&#45;&gt;Node25 -->
<g id="edge117" class="edge">
<title>Node61&#45;&gt;Node25</title>
<path fill="none" stroke="#191970" d="M2016.3595,-414.483C2015.5228,-399.9062 2014.4449,-371.1953 2017,-347 2022.8323,-291.7729 2069.3695,-270.4945 2039,-224 1970.3634,-118.92 1814.5857,-83.277 1732.2677,-71.5344"/>
<polygon fill="#191970" stroke="#191970" points="1732.5015,-68.0341 1722.1212,-70.1553 1731.5587,-74.9703 1732.5015,-68.0341"/>
</g>
<!-- Node61&#45;&gt;Node53 -->
<g id="edge114" class="edge">
<title>Node61&#45;&gt;Node53</title>
<path fill="none" stroke="#191970" d="M2008.4871,-414.4529C2001.0099,-405.5915 1990.3598,-391.7351 1984,-378 1964.5862,-336.0728 1954.7074,-282.2391 1950.5303,-253.7436"/>
<polygon fill="#191970" stroke="#191970" points="1953.9519,-252.9339 1949.1185,-243.5058 1947.0175,-253.8902 1953.9519,-252.9339"/>
</g>
<!-- Node61&#45;&gt;Node46 -->
<g id="edge115" class="edge">
<title>Node61&#45;&gt;Node46</title>
<path fill="none" stroke="#191970" d="M2057.6317,-414.7906C2086.0498,-407.3332 2124.2662,-395.2212 2155,-378 2184.0299,-361.7335 2212.6031,-336.299 2231.3365,-317.9701"/>
<polygon fill="#191970" stroke="#191970" points="2234.1223,-320.1352 2238.7353,-310.5974 2229.1813,-315.1767 2234.1223,-320.1352"/>
</g>
<!-- Node61&#45;&gt;Node59 -->
<g id="edge116" class="edge">
<title>Node61&#45;&gt;Node59</title>
<path fill="none" stroke="#191970" d="M1986.6875,-414.3906C1953.3735,-403.8298 1899.7192,-386.8208 1862.9819,-375.1747"/>
<polygon fill="#191970" stroke="#191970" points="1863.6898,-371.7275 1853.0996,-372.0419 1861.5744,-378.4002 1863.6898,-371.7275"/>
</g>
</g>
</svg>
