<?xml version="1.0" encoding="UTF-8" standalone="no"?>
<!DOCTYPE svg PUBLIC "-//W3C//DTD SVG 1.1//EN"
 "http://www.w3.org/Graphics/SVG/1.1/DTD/svg11.dtd">
<!-- Generated by graphviz version 2.40.1 (20161225.0304)
 -->
<!-- Title: core/type_index.h Pages: 1 -->
<svg width="2422pt" height="565pt"
 viewBox="0.00 0.00 2422.00 565.00" xmlns="http://www.w3.org/2000/svg" xmlns:xlink="http://www.w3.org/1999/xlink">
<g id="graph0" class="graph" transform="scale(1 1) rotate(0) translate(4 561)">
<title>core/type_index.h</title>
<polygon fill="#ffffff" stroke="transparent" points="-4,4 -4,-561 2418,-561 2418,4 -4,4"/>
<!-- Node0 -->
<g id="node1" class="node">
<title>Node0</title>
<polygon fill="#bfbfbf" stroke="#000000" points="226,-537.5 226,-556.5 320,-556.5 320,-537.5 226,-537.5"/>
<text text-anchor="middle" x="273" y="-544.5" font-family="Helvetica,sans-Serif" font-size="10.00" fill="#000000">core/type_index.h</text>
</g>
<!-- Node1 -->
<g id="node2" class="node">
<title>Node1</title>
<polygon fill="#ffffff" stroke="#bfbfbf" points="488,-.5 488,-19.5 532,-19.5 532,-.5 488,-.5"/>
<text text-anchor="middle" x="510" y="-7.5" font-family="Helvetica,sans-Serif" font-size="10.00" fill="#000000">vector</text>
</g>
<!-- Node0&#45;&gt;Node1 -->
<g id="edge1" class="edge">
<title>Node0&#45;&gt;Node1</title>
<path fill="none" stroke="#191970" d="M225.7587,-537.7507C147.6225,-521.0856 0,-483.2197 0,-435 0,-435 0,-435 0,-122 0,-81.1401 27.2395,-73.8381 64,-56 137.1844,-20.4872 388.1488,-12.3002 477.8258,-10.4911"/>
<polygon fill="#191970" stroke="#191970" points="478.0073,-13.9884 487.9397,-10.3007 477.8755,-6.9896 478.0073,-13.9884"/>
</g>
<!-- Node2 -->
<g id="node3" class="node">
<title>Node2</title>
<g id="a_node3"><a xlink:href="agent_8h.html" target="_top" xlink:title="core/agent/agent.h">
<polygon fill="#ffffff" stroke="#000000" points="1545,-481.5 1545,-500.5 1643,-500.5 1643,-481.5 1545,-481.5"/>
<text text-anchor="middle" x="1594" y="-488.5" font-family="Helvetica,sans-Serif" font-size="10.00" fill="#000000">core/agent/agent.h</text>
</a>
</g>
</g>
<!-- Node0&#45;&gt;Node2 -->
<g id="edge2" class="edge">
<title>Node0&#45;&gt;Node2</title>
<path fill="none" stroke="#191970" d="M320.0151,-545.0069C521.3473,-536.472 1310.7117,-503.0092 1534.5424,-493.5205"/>
<polygon fill="#191970" stroke="#191970" points="1534.9262,-497.0075 1544.7689,-493.087 1534.6296,-490.0138 1534.9262,-497.0075"/>
</g>
<!-- Node40 -->
<g id="node33" class="node">
<title>Node40</title>
<g id="a_node33"><a xlink:href="flatmap_8h.html" target="_top" xlink:title="core/container/flatmap.h">
<polygon fill="#ffffff" stroke="#000000" points="500,-230 500,-249 622,-249 622,-230 500,-230"/>
<text text-anchor="middle" x="561" y="-237" font-family="Helvetica,sans-Serif" font-size="10.00" fill="#000000">core/container/flatmap.h</text>
</a>
</g>
</g>
<!-- Node0&#45;&gt;Node40 -->
<g id="edge120" class="edge">
<title>Node0&#45;&gt;Node40</title>
<path fill="none" stroke="#191970" d="M273,-537.4116C273,-518.0538 273,-472.9167 273,-435 273,-435 273,-435 273,-373.5 273,-317.579 318.6046,-317.2156 368,-291 405.8209,-270.9273 452.0533,-258.2372 489.7862,-250.4776"/>
<polygon fill="#191970" stroke="#191970" points="490.5583,-253.8928 499.6861,-248.5138 489.1962,-247.0265 490.5583,-253.8928"/>
</g>
<!-- Node2&#45;&gt;Node1 -->
<g id="edge12" class="edge">
<title>Node2&#45;&gt;Node1</title>
<path fill="none" stroke="#191970" d="M1544.7211,-490.3924C1344.362,-487.7336 590.3101,-475.8463 354,-445 211.2166,-426.362 38,-517.4947 38,-373.5 38,-373.5 38,-373.5 38,-122 38,-75.9062 75.6043,-74.0901 118,-56 182.6897,-28.3971 395.6969,-15.484 477.5567,-11.4508"/>
<polygon fill="#191970" stroke="#191970" points="477.9437,-14.9364 487.7643,-10.9608 477.608,-7.9444 477.9437,-14.9364"/>
</g>
<!-- Node3 -->
<g id="node4" class="node">
<title>Node3</title>
<polygon fill="#ffffff" stroke="#bfbfbf" points="1973,-168.5 1973,-187.5 2029,-187.5 2029,-168.5 1973,-168.5"/>
<text text-anchor="middle" x="2001" y="-175.5" font-family="Helvetica,sans-Serif" font-size="10.00" fill="#000000">algorithm</text>
</g>
<!-- Node2&#45;&gt;Node3 -->
<g id="edge3" class="edge">
<title>Node2&#45;&gt;Node3</title>
<path fill="none" stroke="#191970" d="M1643.0437,-490.2003C1759.7564,-487.7677 2051.044,-478.432 2142,-445 2193.282,-426.1507 2242,-428.1364 2242,-373.5 2242,-373.5 2242,-373.5 2242,-306.5 2242,-261.6788 2220.9951,-249.3041 2184,-224 2131.4227,-188.0379 2105.2207,-203.1133 2039.2885,-188.1445"/>
<polygon fill="#191970" stroke="#191970" points="2039.8084,-184.6691 2029.2646,-185.7084 2038.1552,-191.4711 2039.8084,-184.6691"/>
</g>
<!-- Node4 -->
<g id="node5" class="node">
<title>Node4</title>
<polygon fill="#ffffff" stroke="#bfbfbf" points="1314.5,-168.5 1314.5,-187.5 1363.5,-187.5 1363.5,-168.5 1314.5,-168.5"/>
<text text-anchor="middle" x="1339" y="-175.5" font-family="Helvetica,sans-Serif" font-size="10.00" fill="#000000">cassert</text>
</g>
<!-- Node2&#45;&gt;Node4 -->
<g id="edge4" class="edge">
<title>Node2&#45;&gt;Node4</title>
<path fill="none" stroke="#191970" d="M1573.2783,-481.3643C1557.2343,-473.2191 1535.1048,-460.4267 1519,-445 1436.6164,-366.0852 1371.1982,-243.3238 1348.0465,-196.7634"/>
<polygon fill="#191970" stroke="#191970" points="1351.0771,-194.9943 1343.5298,-187.5588 1344.7929,-198.078 1351.0771,-194.9943"/>
</g>
<!-- Node5 -->
<g id="node6" class="node">
<title>Node5</title>
<polygon fill="#ffffff" stroke="#bfbfbf" points="1174,-168.5 1174,-187.5 1214,-187.5 1214,-168.5 1174,-168.5"/>
<text text-anchor="middle" x="1194" y="-175.5" font-family="Helvetica,sans-Serif" font-size="10.00" fill="#000000">limits</text>
</g>
<!-- Node2&#45;&gt;Node5 -->
<g id="edge5" class="edge">
<title>Node2&#45;&gt;Node5</title>
<path fill="none" stroke="#191970" d="M1544.8455,-488.5936C1353.5413,-478.8843 665.2175,-440.6248 583,-389 552.1953,-369.6575 546.9528,-356.6857 536,-322 531.8513,-308.8617 527.3406,-301.7164 536,-291 547.1425,-277.2107 830.5178,-226.945 848,-224 977.3785,-202.2049 1011.3587,-208.1733 1141,-188 1148.4207,-186.8453 1156.3938,-185.4326 1163.8448,-184.0368"/>
<polygon fill="#191970" stroke="#191970" points="1164.7574,-187.4256 1173.9186,-182.1037 1163.4382,-180.5511 1164.7574,-187.4256"/>
</g>
<!-- Node6 -->
<g id="node7" class="node">
<title>Node6</title>
<polygon fill="#ffffff" stroke="#bfbfbf" points="879,-297 879,-316 931,-316 931,-297 879,-297"/>
<text text-anchor="middle" x="905" y="-304" font-family="Helvetica,sans-Serif" font-size="10.00" fill="#000000">memory</text>
</g>
<!-- Node2&#45;&gt;Node6 -->
<g id="edge6" class="edge">
<title>Node2&#45;&gt;Node6</title>
<path fill="none" stroke="#191970" d="M1544.9292,-490.7072C1401.6885,-489.4162 991.2963,-482.4533 945,-445 909.285,-416.1069 904.2217,-357.4458 904.2163,-326.5572"/>
<polygon fill="#191970" stroke="#191970" points="907.7223,-326.2619 904.4085,-316.1986 900.7235,-326.132 907.7223,-326.2619"/>
</g>
<!-- Node7 -->
<g id="node8" class="node">
<title>Node7</title>
<polygon fill="#ffffff" stroke="#bfbfbf" points="2384,-425.5 2384,-444.5 2414,-444.5 2414,-425.5 2384,-425.5"/>
<text text-anchor="middle" x="2399" y="-432.5" font-family="Helvetica,sans-Serif" font-size="10.00" fill="#000000">set</text>
</g>
<!-- Node2&#45;&gt;Node7 -->
<g id="edge7" class="edge">
<title>Node2&#45;&gt;Node7</title>
<path fill="none" stroke="#191970" d="M1643.2387,-489.8349C1791.1446,-486.0585 2229.9208,-472.7593 2370,-445 2371.293,-444.7438 2372.607,-444.4436 2373.9259,-444.1104"/>
<polygon fill="#191970" stroke="#191970" points="2375.3136,-447.3469 2383.8639,-441.0904 2373.2782,-440.6493 2375.3136,-447.3469"/>
</g>
<!-- Node8 -->
<g id="node9" class="node">
<title>Node8</title>
<polygon fill="#ffffff" stroke="#bfbfbf" points="2254,-.5 2254,-19.5 2306,-19.5 2306,-.5 2254,-.5"/>
<text text-anchor="middle" x="2280" y="-7.5" font-family="Helvetica,sans-Serif" font-size="10.00" fill="#000000">sstream</text>
</g>
<!-- Node2&#45;&gt;Node8 -->
<g id="edge8" class="edge">
<title>Node2&#45;&gt;Node8</title>
<path fill="none" stroke="#191970" d="M1643.1643,-489.0221C1785.7887,-483.0788 2193.1604,-464.578 2250,-445 2303.7289,-426.4934 2356,-430.3268 2356,-373.5 2356,-373.5 2356,-373.5 2356,-122 2356,-82.2361 2322.7929,-46.1042 2300.2792,-26.177"/>
<polygon fill="#191970" stroke="#191970" points="2302.4317,-23.4128 2292.5499,-19.5918 2297.8921,-28.7412 2302.4317,-23.4128"/>
</g>
<!-- Node9 -->
<g id="node10" class="node">
<title>Node9</title>
<polygon fill="#ffffff" stroke="#bfbfbf" points="1685.5,-.5 1685.5,-19.5 1726.5,-19.5 1726.5,-.5 1685.5,-.5"/>
<text text-anchor="middle" x="1706" y="-7.5" font-family="Helvetica,sans-Serif" font-size="10.00" fill="#000000">string</text>
</g>
<!-- Node2&#45;&gt;Node9 -->
<g id="edge9" class="edge">
<title>Node2&#45;&gt;Node9</title>
<path fill="none" stroke="#191970" d="M1643.2353,-489.8609C1766.6196,-486.5794 2086.4093,-475.3231 2188,-445 2251.1855,-426.1402 2318,-439.4401 2318,-373.5 2318,-373.5 2318,-373.5 2318,-306.5 2318,-226.7742 2270.0393,-212.6655 2204,-168 2048.5252,-62.8451 1819.0138,-24.4536 1736.7403,-13.5994"/>
<polygon fill="#191970" stroke="#191970" points="1737.1518,-10.1236 1726.7887,-12.3275 1736.2643,-17.0671 1737.1518,-10.1236"/>
</g>
<!-- Node10 -->
<g id="node11" class="node">
<title>Node10</title>
<polygon fill="#ffffff" stroke="#bfbfbf" points="1510,-364 1510,-383 1572,-383 1572,-364 1510,-364"/>
<text text-anchor="middle" x="1541" y="-371" font-family="Helvetica,sans-Serif" font-size="10.00" fill="#000000">type_traits</text>
</g>
<!-- Node2&#45;&gt;Node10 -->
<g id="edge10" class="edge">
<title>Node2&#45;&gt;Node10</title>
<path fill="none" stroke="#191970" d="M1589.6628,-481.3845C1580.9278,-462.0192 1561.0748,-418.0055 1549.6081,-392.584"/>
<polygon fill="#191970" stroke="#191970" points="1552.6994,-390.9249 1545.3971,-383.2484 1546.3185,-393.8031 1552.6994,-390.9249"/>
</g>
<!-- Node11 -->
<g id="node12" class="node">
<title>Node11</title>
<polygon fill="#ffffff" stroke="#bfbfbf" points="405.5,-425.5 405.5,-444.5 488.5,-444.5 488.5,-425.5 405.5,-425.5"/>
<text text-anchor="middle" x="447" y="-432.5" font-family="Helvetica,sans-Serif" font-size="10.00" fill="#000000">unordered_map</text>
</g>
<!-- Node2&#45;&gt;Node11 -->
<g id="edge11" class="edge">
<title>Node2&#45;&gt;Node11</title>
<path fill="none" stroke="#191970" d="M1544.8328,-489.8078C1360.3262,-485.197 709.2286,-467.6568 503,-445 501.7023,-444.8574 500.3893,-444.7029 499.0661,-444.5381"/>
<polygon fill="#191970" stroke="#191970" points="499.1937,-441.0218 488.8045,-443.099 498.2215,-447.954 499.1937,-441.0218"/>
</g>
<!-- Node12 -->
<g id="node13" class="node">
<title>Node12</title>
<g id="a_node13"><a xlink:href="agent__pointer_8h.html" target="_top" xlink:title="core/agent/agent_pointer.h">
<polygon fill="#ffffff" stroke="#000000" points="1121,-425.5 1121,-444.5 1253,-444.5 1253,-425.5 1121,-425.5"/>
<text text-anchor="middle" x="1187" y="-432.5" font-family="Helvetica,sans-Serif" font-size="10.00" fill="#000000">core/agent/agent_pointer.h</text>
</a>
</g>
</g>
<!-- Node2&#45;&gt;Node12 -->
<g id="edge13" class="edge">
<title>Node2&#45;&gt;Node12</title>
<path fill="none" stroke="#191970" d="M1544.9063,-484.2451C1474.8852,-474.6107 1345.6975,-456.8355 1263.1846,-445.4824"/>
<polygon fill="#191970" stroke="#191970" points="1263.495,-441.9922 1253.1113,-444.0964 1262.5408,-448.9269 1263.495,-441.9922"/>
</g>
<!-- Node15 -->
<g id="node16" class="node">
<title>Node15</title>
<g id="a_node16"><a xlink:href="agent__uid_8h.html" target="_top" xlink:title="core/agent/agent_uid.h">
<polygon fill="#ffffff" stroke="#000000" points="929,-230 929,-249 1045,-249 1045,-230 929,-230"/>
<text text-anchor="middle" x="987" y="-237" font-family="Helvetica,sans-Serif" font-size="10.00" fill="#000000">core/agent/agent_uid.h</text>
</a>
</g>
</g>
<!-- Node2&#45;&gt;Node15 -->
<g id="edge85" class="edge">
<title>Node2&#45;&gt;Node15</title>
<path fill="none" stroke="#191970" d="M1544.6397,-489.4399C1438.2426,-485.5686 1190.5689,-473.6821 1112,-445 1041.9839,-419.4402 1019.678,-393.3135 998,-322 991.7172,-301.3316 989.0211,-276.6676 987.8652,-259.7235"/>
<polygon fill="#191970" stroke="#191970" points="991.3392,-259.1591 987.2859,-249.3703 984.3501,-259.5502 991.3392,-259.1591"/>
</g>
<!-- Node16 -->
<g id="node17" class="node">
<title>Node16</title>
<g id="a_node17"><a xlink:href="root_8h.html" target="_top" xlink:title="core/util/root.h">
<polygon fill="#ffffff" stroke="#000000" points="1459.5,-168.5 1459.5,-187.5 1538.5,-187.5 1538.5,-168.5 1459.5,-168.5"/>
<text text-anchor="middle" x="1499" y="-175.5" font-family="Helvetica,sans-Serif" font-size="10.00" fill="#000000">core/util/root.h</text>
</a>
</g>
</g>
<!-- Node2&#45;&gt;Node16 -->
<g id="edge112" class="edge">
<title>Node2&#45;&gt;Node16</title>
<path fill="none" stroke="#191970" d="M1580.2486,-481.3363C1558.5604,-465.1555 1517.2124,-430.2627 1501,-389 1494.1477,-371.56 1496.9708,-247.2231 1498.3807,-197.995"/>
<polygon fill="#191970" stroke="#191970" points="1501.8881,-197.7969 1498.6869,-187.6972 1494.8912,-197.5888 1501.8881,-197.7969"/>
</g>
<!-- Node30 -->
<g id="node27" class="node">
<title>Node30</title>
<g id="a_node27"><a xlink:href="spinlock_8h.html" target="_top" xlink:title="core/util/spinlock.h">
<polygon fill="#ffffff" stroke="#000000" points="142,-230 142,-249 240,-249 240,-230 142,-230"/>
<text text-anchor="middle" x="191" y="-237" font-family="Helvetica,sans-Serif" font-size="10.00" fill="#000000">core/util/spinlock.h</text>
</a>
</g>
</g>
<!-- Node2&#45;&gt;Node30 -->
<g id="edge113" class="edge">
<title>Node2&#45;&gt;Node30</title>
<path fill="none" stroke="#191970" d="M1544.6983,-490.0194C1325.7921,-485.5488 450.1753,-466.3937 396,-445 301.0049,-407.4866 227.9351,-300.5701 201.6145,-257.6537"/>
<polygon fill="#191970" stroke="#191970" points="204.6077,-255.8395 196.4556,-249.0723 198.6083,-259.4462 204.6077,-255.8395"/>
</g>
<!-- Node45 -->
<g id="node37" class="node">
<title>Node45</title>
<g id="a_node37"><a xlink:href="math__array_8h.html" target="_top" xlink:title="core/container/math\l_array.h">
<polygon fill="#ffffff" stroke="#000000" points="2072.5,-224.5 2072.5,-254.5 2175.5,-254.5 2175.5,-224.5 2072.5,-224.5"/>
<text text-anchor="start" x="2080.5" y="-242.5" font-family="Helvetica,sans-Serif" font-size="10.00" fill="#000000">core/container/math</text>
<text text-anchor="middle" x="2124" y="-231.5" font-family="Helvetica,sans-Serif" font-size="10.00" fill="#000000">_array.h</text>
</a>
</g>
</g>
<!-- Node2&#45;&gt;Node45 -->
<g id="edge106" class="edge">
<title>Node2&#45;&gt;Node45</title>
<path fill="none" stroke="#191970" d="M1643.0822,-489.6946C1753.5016,-486.2535 2018.3425,-475.0397 2102,-445 2143.5356,-430.0854 2163.3935,-428.026 2184,-389 2206.6791,-346.0487 2170.9729,-292.5692 2145.6615,-262.6139"/>
<polygon fill="#191970" stroke="#191970" points="2148.0683,-260.0488 2138.8552,-254.8171 2142.7949,-264.6522 2148.0683,-260.0488"/>
</g>
<!-- Node49 -->
<g id="node41" class="node">
<title>Node49</title>
<g id="a_node41"><a xlink:href="new__agent__event_8h.html" target="_top" xlink:title="core/agent/new_agent\l_event.h">
<polygon fill="#ffffff" stroke="#000000" points="1590.5,-358.5 1590.5,-388.5 1703.5,-388.5 1703.5,-358.5 1590.5,-358.5"/>
<text text-anchor="start" x="1598.5" y="-376.5" font-family="Helvetica,sans-Serif" font-size="10.00" fill="#000000">core/agent/new_agent</text>
<text text-anchor="middle" x="1647" y="-365.5" font-family="Helvetica,sans-Serif" font-size="10.00" fill="#000000">_event.h</text>
</a>
</g>
</g>
<!-- Node2&#45;&gt;Node49 -->
<g id="edge86" class="edge">
<title>Node2&#45;&gt;Node49</title>
<path fill="none" stroke="#191970" d="M1598.3372,-481.3845C1606.4922,-463.3051 1624.3377,-423.742 1636.0024,-397.8814"/>
<polygon fill="#191970" stroke="#191970" points="1639.2161,-399.269 1640.1374,-388.7143 1632.8351,-396.3908 1639.2161,-399.269"/>
</g>
<!-- Node51 -->
<g id="node43" class="node">
<title>Node51</title>
<g id="a_node43"><a xlink:href="inline__vector_8h.html" target="_top" xlink:title="core/container/inline\l_vector.h">
<polygon fill="#ffffff" stroke="#000000" points="1645,-291.5 1645,-321.5 1749,-321.5 1749,-291.5 1645,-291.5"/>
<text text-anchor="start" x="1653" y="-309.5" font-family="Helvetica,sans-Serif" font-size="10.00" fill="#000000">core/container/inline</text>
<text text-anchor="middle" x="1697" y="-298.5" font-family="Helvetica,sans-Serif" font-size="10.00" fill="#000000">_vector.h</text>
</a>
</g>
</g>
<!-- Node2&#45;&gt;Node51 -->
<g id="edge105" class="edge">
<title>Node2&#45;&gt;Node51</title>
<path fill="none" stroke="#191970" d="M1613.2001,-481.3423C1641.0669,-466.1051 1691.6126,-433.5714 1712,-389 1720.4029,-370.6294 1715.2888,-347.9342 1708.8427,-331.0004"/>
<polygon fill="#191970" stroke="#191970" points="1712.0712,-329.6488 1704.9855,-321.7721 1705.6127,-332.3483 1712.0712,-329.6488"/>
</g>
<!-- Node57 -->
<g id="node47" class="node">
<title>Node57</title>
<g id="a_node47"><a xlink:href="interaction__force_8h.html" target="_top" xlink:title="core/interaction_force.h">
<polygon fill="#ffffff" stroke="#000000" points="1919.5,-297 1919.5,-316 2038.5,-316 2038.5,-297 1919.5,-297"/>
<text text-anchor="middle" x="1979" y="-304" font-family="Helvetica,sans-Serif" font-size="10.00" fill="#000000">core/interaction_force.h</text>
</a>
</g>
</g>
<!-- Node2&#45;&gt;Node57 -->
<g id="edge107" class="edge">
<title>Node2&#45;&gt;Node57</title>
<path fill="none" stroke="#191970" d="M1643.1458,-486.7362C1710.4748,-480.2051 1827.2405,-466.2081 1864,-445 1914.3459,-415.9533 1952.2345,-356.015 1969.195,-325.3985"/>
<polygon fill="#191970" stroke="#191970" points="1972.4742,-326.6909 1974.1323,-316.2266 1966.3105,-323.3729 1972.4742,-326.6909"/>
</g>
<!-- Node58 -->
<g id="node48" class="node">
<title>Node58</title>
<g id="a_node48"><a xlink:href="shape_8h.html" target="_top" xlink:title="core/shape.h">
<polygon fill="#ffffff" stroke="#000000" points="2102.5,-364 2102.5,-383 2175.5,-383 2175.5,-364 2102.5,-364"/>
<text text-anchor="middle" x="2139" y="-371" font-family="Helvetica,sans-Serif" font-size="10.00" fill="#000000">core/shape.h</text>
</a>
</g>
</g>
<!-- Node2&#45;&gt;Node58 -->
<g id="edge110" class="edge">
<title>Node2&#45;&gt;Node58</title>
<path fill="none" stroke="#191970" d="M1643.2758,-488.3228C1758.1939,-481.79 2037.0986,-464.1582 2075,-445 2098.4591,-433.142 2117.3124,-408.7405 2128.326,-391.7619"/>
<polygon fill="#191970" stroke="#191970" points="2131.3268,-393.5641 2133.6176,-383.2198 2125.376,-389.8777 2131.3268,-393.5641"/>
</g>
<!-- Node59 -->
<g id="node49" class="node">
<title>Node59</title>
<g id="a_node49"><a xlink:href="macros_8h.html" target="_top" xlink:title="core/util/macros.h">
<polygon fill="#ffffff" stroke="#000000" points="1760.5,-425.5 1760.5,-444.5 1855.5,-444.5 1855.5,-425.5 1760.5,-425.5"/>
<text text-anchor="middle" x="1808" y="-432.5" font-family="Helvetica,sans-Serif" font-size="10.00" fill="#000000">core/util/macros.h</text>
</a>
</g>
</g>
<!-- Node2&#45;&gt;Node59 -->
<g id="edge111" class="edge">
<title>Node2&#45;&gt;Node59</title>
<path fill="none" stroke="#191970" d="M1630.7879,-481.3733C1667.0661,-471.8799 1722.6236,-457.3415 1761.8446,-447.0781"/>
<polygon fill="#191970" stroke="#191970" points="1762.904,-450.4188 1771.6921,-444.5011 1761.1318,-443.6468 1762.904,-450.4188"/>
</g>
<!-- Node60 -->
<g id="node50" class="node">
<title>Node60</title>
<g id="a_node50"><a xlink:href="type_8h.html" target="_top" xlink:title="core/util/type.h">
<polygon fill="#ffffff" stroke="#000000" points="1985.5,-425.5 1985.5,-444.5 2066.5,-444.5 2066.5,-425.5 1985.5,-425.5"/>
<text text-anchor="middle" x="2026" y="-432.5" font-family="Helvetica,sans-Serif" font-size="10.00" fill="#000000">core/util/type.h</text>
</a>
</g>
</g>
<!-- Node2&#45;&gt;Node60 -->
<g id="edge114" class="edge">
<title>Node2&#45;&gt;Node60</title>
<path fill="none" stroke="#191970" d="M1643.2354,-484.7769C1712.2633,-476.0287 1841.7257,-459.5355 1952,-445 1959.5069,-444.0105 1967.4402,-442.952 1975.2147,-441.9075"/>
<polygon fill="#191970" stroke="#191970" points="1975.8512,-445.3534 1985.2943,-440.5494 1974.9165,-438.4161 1975.8512,-445.3534"/>
</g>
<!-- Node12&#45;&gt;Node5 -->
<g id="edge15" class="edge">
<title>Node12&#45;&gt;Node5</title>
<path fill="none" stroke="#191970" d="M1168.7167,-425.4509C1155.8142,-417.5902 1139.5359,-405.1269 1132,-389 1126.1672,-376.5178 1129.7253,-371.5887 1132,-358 1142.1925,-297.1113 1170.5178,-229.2503 1185.0893,-197.0061"/>
<polygon fill="#191970" stroke="#191970" points="1188.3047,-198.391 1189.2967,-187.8427 1181.9432,-195.4701 1188.3047,-198.391"/>
</g>
<!-- Node12&#45;&gt;Node10 -->
<g id="edge17" class="edge">
<title>Node12&#45;&gt;Node10</title>
<path fill="none" stroke="#191970" d="M1241.9241,-425.4581C1313.1174,-413.0898 1435.6848,-391.7963 1499.561,-380.6991"/>
<polygon fill="#191970" stroke="#191970" points="1500.411,-384.104 1509.6644,-378.9439 1499.2128,-377.2073 1500.411,-384.104"/>
</g>
<!-- Node13 -->
<g id="node14" class="node">
<title>Node13</title>
<polygon fill="#ffffff" stroke="#bfbfbf" points="156,-168.5 156,-187.5 202,-187.5 202,-168.5 156,-168.5"/>
<text text-anchor="middle" x="179" y="-175.5" font-family="Helvetica,sans-Serif" font-size="10.00" fill="#000000">cstdint</text>
</g>
<!-- Node12&#45;&gt;Node13 -->
<g id="edge14" class="edge">
<title>Node12&#45;&gt;Node13</title>
<path fill="none" stroke="#191970" d="M1120.5722,-432.655C1009.0385,-428.1115 777.2554,-416.0691 583,-389 435.2045,-368.405 394.007,-373.6303 254,-322 196.325,-300.7312 164.2112,-307.9587 133,-255 126.0046,-243.1302 127.7275,-236.729 133,-224 137.8312,-212.3363 147.2137,-202.0881 156.2518,-194.243"/>
<polygon fill="#191970" stroke="#191970" points="158.7266,-196.7436 164.3148,-187.7423 154.333,-191.2942 158.7266,-196.7436"/>
</g>
<!-- Node14 -->
<g id="node15" class="node">
<title>Node14</title>
<polygon fill="#ffffff" stroke="#bfbfbf" points="1841,-168.5 1841,-187.5 1893,-187.5 1893,-168.5 1841,-168.5"/>
<text text-anchor="middle" x="1867" y="-175.5" font-family="Helvetica,sans-Serif" font-size="10.00" fill="#000000">ostream</text>
</g>
<!-- Node12&#45;&gt;Node14 -->
<g id="edge16" class="edge">
<title>Node12&#45;&gt;Node14</title>
<path fill="none" stroke="#191970" d="M1253.0464,-431.7768C1374.0612,-425.4465 1626.7474,-410.143 1712,-389 1786.4296,-370.5411 1805.0388,-361.1104 1871,-322 1890.0458,-310.7072 1892.6147,-304.7122 1910,-291 1930.3838,-274.9228 1944.629,-278.3383 1956,-255 1962.0347,-242.6141 1963.1648,-235.7683 1956,-224 1949.6686,-213.6005 1923.6447,-200.8181 1901.3606,-191.3694"/>
<polygon fill="#191970" stroke="#191970" points="1902.6859,-188.13 1892.1075,-187.5406 1900.0095,-194.5982 1902.6859,-188.13"/>
</g>
<!-- Node12&#45;&gt;Node15 -->
<g id="edge18" class="edge">
<title>Node12&#45;&gt;Node15</title>
<path fill="none" stroke="#191970" d="M1133.2411,-425.4869C1108.2671,-418.7894 1079.611,-407.575 1059,-389 1019.1828,-353.116 999.2106,-290.4204 991.2697,-258.8426"/>
<polygon fill="#191970" stroke="#191970" points="994.6641,-257.9876 988.9499,-249.0658 987.8532,-259.6037 994.6641,-257.9876"/>
</g>
<!-- Node12&#45;&gt;Node16 -->
<g id="edge84" class="edge">
<title>Node12&#45;&gt;Node16</title>
<path fill="none" stroke="#191970" d="M1214.1034,-425.3724C1258.7629,-408.7108 1349.3955,-371.4791 1415,-322 1447.1516,-297.7512 1456.1859,-290.059 1476,-255 1486.2625,-236.8416 1492.3826,-213.6317 1495.6986,-197.4631"/>
<polygon fill="#191970" stroke="#191970" points="1499.1556,-198.0173 1497.5627,-187.5429 1492.276,-196.7245 1499.1556,-198.0173"/>
</g>
<!-- Node25 -->
<g id="node22" class="node">
<title>Node25</title>
<g id="a_node22"><a xlink:href="in__place__exec__ctxt_8h.html" target="_top" xlink:title="core/execution_context\l/in_place_exec_ctxt.h">
<polygon fill="#ffffff" stroke="#000000" points="592,-358.5 592,-388.5 710,-388.5 710,-358.5 592,-358.5"/>
<text text-anchor="start" x="600" y="-376.5" font-family="Helvetica,sans-Serif" font-size="10.00" fill="#000000">core/execution_context</text>
<text text-anchor="middle" x="651" y="-365.5" font-family="Helvetica,sans-Serif" font-size="10.00" fill="#000000">/in_place_exec_ctxt.h</text>
</a>
</g>
</g>
<!-- Node12&#45;&gt;Node25 -->
<g id="edge29" class="edge">
<title>Node12&#45;&gt;Node25</title>
<path fill="none" stroke="#191970" d="M1120.7383,-427.3972C1018.682,-415.6874 823.9838,-393.348 720.1881,-381.4386"/>
<polygon fill="#191970" stroke="#191970" points="720.4619,-377.9471 710.1281,-380.2843 719.664,-384.9015 720.4619,-377.9471"/>
</g>
<!-- Node36 -->
<g id="node30" class="node">
<title>Node36</title>
<g id="a_node30"><a xlink:href="simulation_8h.html" target="_top" xlink:title="core/simulation.h">
<polygon fill="#ffffff" stroke="#000000" points="1141.5,-364 1141.5,-383 1232.5,-383 1232.5,-364 1141.5,-364"/>
<text text-anchor="middle" x="1187" y="-371" font-family="Helvetica,sans-Serif" font-size="10.00" fill="#000000">core/simulation.h</text>
</a>
</g>
</g>
<!-- Node12&#45;&gt;Node36 -->
<g id="edge51" class="edge">
<title>Node12&#45;&gt;Node36</title>
<path fill="none" stroke="#191970" d="M1187,-425.3906C1187,-416.8657 1187,-404.1392 1187,-393.4235"/>
<polygon fill="#191970" stroke="#191970" points="1190.5001,-393.2448 1187,-383.2449 1183.5001,-393.2449 1190.5001,-393.2448"/>
</g>
<!-- Node15&#45;&gt;Node5 -->
<g id="edge19" class="edge">
<title>Node15&#45;&gt;Node5</title>
<path fill="none" stroke="#191970" d="M1019.3438,-229.8906C1059.0085,-218.1062 1125.697,-198.2929 1164.1749,-186.8611"/>
<polygon fill="#191970" stroke="#191970" points="1165.186,-190.212 1173.7751,-184.0089 1163.1924,-183.5018 1165.186,-190.212"/>
</g>
<!-- Node15&#45;&gt;Node16 -->
<g id="edge20" class="edge">
<title>Node15&#45;&gt;Node16</title>
<path fill="none" stroke="#191970" d="M1045.2344,-232.505C1146.7677,-220.3092 1354.4212,-195.3664 1449.4878,-183.9473"/>
<polygon fill="#191970" stroke="#191970" points="1449.9095,-187.4219 1459.4207,-182.7542 1449.0746,-180.4718 1449.9095,-187.4219"/>
</g>
<!-- Node17 -->
<g id="node18" class="node">
<title>Node17</title>
<polygon fill="#ffffff" stroke="#bfbfbf" points="1479,-112.5 1479,-131.5 1535,-131.5 1535,-112.5 1479,-112.5"/>
<text text-anchor="middle" x="1507" y="-119.5" font-family="Helvetica,sans-Serif" font-size="10.00" fill="#000000">TClass.h</text>
</g>
<!-- Node16&#45;&gt;Node17 -->
<g id="edge21" class="edge">
<title>Node16&#45;&gt;Node17</title>
<path fill="none" stroke="#191970" d="M1500.3935,-168.2455C1501.4374,-160.9382 1502.9008,-150.6944 1504.1851,-141.7046"/>
<polygon fill="#191970" stroke="#191970" points="1507.673,-142.0372 1505.6225,-131.6427 1500.7434,-141.0472 1507.673,-142.0372"/>
</g>
<!-- Node18 -->
<g id="node19" class="node">
<title>Node18</title>
<g id="a_node19"><a xlink:href="log_8h.html" target="_top" xlink:title="core/util/log.h">
<polygon fill="#ffffff" stroke="#ff0000" points="1386.5,-112.5 1386.5,-131.5 1461.5,-131.5 1461.5,-112.5 1386.5,-112.5"/>
<text text-anchor="middle" x="1424" y="-119.5" font-family="Helvetica,sans-Serif" font-size="10.00" fill="#000000">core/util/log.h</text>
</a>
</g>
</g>
<!-- Node16&#45;&gt;Node18 -->
<g id="edge22" class="edge">
<title>Node16&#45;&gt;Node18</title>
<path fill="none" stroke="#191970" d="M1485.936,-168.2455C1474.6438,-159.814 1458.1155,-147.4729 1444.9729,-137.6598"/>
<polygon fill="#191970" stroke="#191970" points="1447.0211,-134.8211 1436.9143,-131.6427 1442.8331,-140.4301 1447.0211,-134.8211"/>
</g>
<!-- Node18&#45;&gt;Node9 -->
<g id="edge24" class="edge">
<title>Node18&#45;&gt;Node9</title>
<path fill="none" stroke="#191970" d="M1461.6468,-113.7729C1464.4725,-113.1686 1467.2808,-112.5721 1470,-112 1548.5576,-95.473 1577.3736,-115.9576 1647,-76 1667.091,-64.4701 1683.9756,-43.6396 1694.4655,-28.4563"/>
<polygon fill="#191970" stroke="#191970" points="1697.5489,-30.1386 1700.142,-19.866 1691.7088,-26.2794 1697.5489,-30.1386"/>
</g>
<!-- Node22 -->
<g id="node20" class="node">
<title>Node22</title>
<polygon fill="#ffffff" stroke="#bfbfbf" points="916.5,-56.5 916.5,-75.5 975.5,-75.5 975.5,-56.5 916.5,-56.5"/>
<text text-anchor="middle" x="946" y="-63.5" font-family="Helvetica,sans-Serif" font-size="10.00" fill="#000000">functional</text>
</g>
<!-- Node18&#45;&gt;Node22 -->
<g id="edge23" class="edge">
<title>Node18&#45;&gt;Node22</title>
<path fill="none" stroke="#191970" d="M1386.4921,-117.6058C1297.9999,-107.2385 1076.8373,-81.3282 985.9543,-70.6808"/>
<polygon fill="#191970" stroke="#191970" points="986.1275,-67.1773 975.7881,-69.4898 985.3129,-74.1297 986.1275,-67.1773"/>
</g>
<!-- Node24 -->
<g id="node21" class="node">
<title>Node24</title>
<g id="a_node21"><a xlink:href="string_8h.html" target="_top" xlink:title="core/util/string.h">
<polygon fill="#ffffff" stroke="#000000" points="1699,-56.5 1699,-75.5 1785,-75.5 1785,-56.5 1699,-56.5"/>
<text text-anchor="middle" x="1742" y="-63.5" font-family="Helvetica,sans-Serif" font-size="10.00" fill="#000000">core/util/string.h</text>
</a>
</g>
</g>
<!-- Node18&#45;&gt;Node24 -->
<g id="edge25" class="edge">
<title>Node18&#45;&gt;Node24</title>
<path fill="none" stroke="#191970" d="M1461.6253,-113.6661C1464.456,-113.0865 1467.2713,-112.5247 1470,-112 1565.1426,-93.704 1589.5073,-92.371 1685,-76 1686.2533,-75.7851 1687.522,-75.5671 1688.8015,-75.3467"/>
<polygon fill="#191970" stroke="#191970" points="1689.49,-78.7796 1698.7462,-73.6247 1688.2956,-71.8823 1689.49,-78.7796"/>
</g>
<!-- Node24&#45;&gt;Node1 -->
<g id="edge28" class="edge">
<title>Node24&#45;&gt;Node1</title>
<path fill="none" stroke="#191970" d="M1698.8977,-62.3949C1672.8783,-60.3094 1639.0507,-57.7581 1609,-56 1187.6174,-31.3466 674.5946,-14.9729 542.32,-10.9602"/>
<polygon fill="#191970" stroke="#191970" points="542.1785,-7.4544 532.0775,-10.6512 541.9674,-14.4512 542.1785,-7.4544"/>
</g>
<!-- Node24&#45;&gt;Node8 -->
<g id="edge26" class="edge">
<title>Node24&#45;&gt;Node8</title>
<path fill="none" stroke="#191970" d="M1785.1174,-61.5119C1888.342,-50.7674 2148.177,-23.7213 2243.8812,-13.7596"/>
<polygon fill="#191970" stroke="#191970" points="2244.3516,-17.2296 2253.9354,-12.713 2243.6268,-10.2672 2244.3516,-17.2296"/>
</g>
<!-- Node24&#45;&gt;Node9 -->
<g id="edge27" class="edge">
<title>Node24&#45;&gt;Node9</title>
<path fill="none" stroke="#191970" d="M1735.7293,-56.2455C1730.7736,-48.5367 1723.717,-37.5598 1717.7224,-28.2348"/>
<polygon fill="#191970" stroke="#191970" points="1720.5506,-26.1618 1712.1989,-19.6427 1714.6624,-29.9471 1720.5506,-26.1618"/>
</g>
<!-- Node25&#45;&gt;Node1 -->
<g id="edge33" class="edge">
<title>Node25&#45;&gt;Node1</title>
<path fill="none" stroke="#191970" d="M591.9583,-368.5782C497.1563,-360.2167 315.4085,-342.1696 254,-322 157.3237,-290.2468 76,-279.7574 76,-178 76,-178 76,-178 76,-122 76,-39.0366 377.0983,-16.5761 477.7064,-11.3868"/>
<polygon fill="#191970" stroke="#191970" points="478.0653,-14.8735 487.8812,-10.8863 477.7213,-7.882 478.0653,-14.8735"/>
</g>
<!-- Node25&#45;&gt;Node6 -->
<g id="edge31" class="edge">
<title>Node25&#45;&gt;Node6</title>
<path fill="none" stroke="#191970" d="M710.1618,-361.4891C753.4529,-352.1631 813.3899,-338.1304 865,-322 867.4258,-321.2418 869.9156,-320.4104 872.4093,-319.5387"/>
<polygon fill="#191970" stroke="#191970" points="873.7384,-322.7792 881.9191,-316.0466 871.3255,-316.2082 873.7384,-322.7792"/>
</g>
<!-- Node25&#45;&gt;Node15 -->
<g id="edge34" class="edge">
<title>Node25&#45;&gt;Node15</title>
<path fill="none" stroke="#191970" d="M710.3411,-362.6796C746.5367,-354.6071 792.992,-341.553 831,-322 850.6894,-311.8709 851.0443,-302.4434 870,-291 895.7162,-275.4754 926.9455,-261.9707 950.6696,-252.6897"/>
<polygon fill="#191970" stroke="#191970" points="951.9343,-255.9532 960.014,-249.0998 949.424,-249.4188 951.9343,-255.9532"/>
</g>
<!-- Node25&#45;&gt;Node22 -->
<g id="edge30" class="edge">
<title>Node25&#45;&gt;Node22</title>
<path fill="none" stroke="#191970" d="M591.7025,-371.3365C517.2659,-367.2297 395.9158,-355.4544 368,-322 359.1727,-311.4214 361.291,-303.0339 368,-291 418.6304,-200.1847 471.57,-209.2793 567,-168 685.0798,-116.9233 835.142,-85.7048 905.7811,-72.8357"/>
<polygon fill="#191970" stroke="#191970" points="906.7924,-76.2102 916.0168,-70.9987 905.5558,-69.3203 906.7924,-76.2102"/>
</g>
<!-- Node26 -->
<g id="node23" class="node">
<title>Node26</title>
<polygon fill="#ffffff" stroke="#bfbfbf" points="675,-168.5 675,-187.5 715,-187.5 715,-168.5 675,-168.5"/>
<text text-anchor="middle" x="695" y="-175.5" font-family="Helvetica,sans-Serif" font-size="10.00" fill="#000000">utility</text>
</g>
<!-- Node25&#45;&gt;Node26 -->
<g id="edge32" class="edge">
<title>Node25&#45;&gt;Node26</title>
<path fill="none" stroke="#191970" d="M654.3795,-358.4841C662.2354,-323.5793 681.7265,-236.9766 690.5428,-197.804"/>
<polygon fill="#191970" stroke="#191970" points="693.993,-198.4143 692.7742,-187.8898 687.1638,-196.8773 693.993,-198.4143"/>
</g>
<!-- Node27 -->
<g id="node24" class="node">
<title>Node27</title>
<g id="a_node24"><a xlink:href="agent__uid__map_8h.html" target="_top" xlink:title="core/container/agent\l_uid_map.h">
<polygon fill="#ffffff" stroke="#000000" points="717.5,-291.5 717.5,-321.5 822.5,-321.5 822.5,-291.5 717.5,-291.5"/>
<text text-anchor="start" x="725.5" y="-309.5" font-family="Helvetica,sans-Serif" font-size="10.00" fill="#000000">core/container/agent</text>
<text text-anchor="middle" x="770" y="-298.5" font-family="Helvetica,sans-Serif" font-size="10.00" fill="#000000">_uid_map.h</text>
</a>
</g>
</g>
<!-- Node25&#45;&gt;Node27 -->
<g id="edge35" class="edge">
<title>Node25&#45;&gt;Node27</title>
<path fill="none" stroke="#191970" d="M677.7059,-358.4639C694.2784,-349.1332 715.7871,-337.0232 733.8711,-326.8415"/>
<polygon fill="#191970" stroke="#191970" points="735.9748,-329.6737 742.9715,-321.7177 732.5405,-323.574 735.9748,-329.6737"/>
</g>
<!-- Node28 -->
<g id="node25" class="node">
<title>Node28</title>
<g id="a_node25"><a xlink:href="functor_8h.html" target="_top" xlink:title="core/functor.h">
<polygon fill="#ffffff" stroke="#000000" points="545.5,-297 545.5,-316 622.5,-316 622.5,-297 545.5,-297"/>
<text text-anchor="middle" x="584" y="-304" font-family="Helvetica,sans-Serif" font-size="10.00" fill="#000000">core/functor.h</text>
</a>
</g>
</g>
<!-- Node25&#45;&gt;Node28 -->
<g id="edge39" class="edge">
<title>Node25&#45;&gt;Node28</title>
<path fill="none" stroke="#191970" d="M635.7967,-358.2967C625.3578,-347.8578 611.4997,-333.9997 600.7446,-323.2446"/>
<polygon fill="#191970" stroke="#191970" points="603.101,-320.6512 593.555,-316.055 598.1512,-325.601 603.101,-320.6512"/>
</g>
<!-- Node29 -->
<g id="node26" class="node">
<title>Node29</title>
<g id="a_node26"><a xlink:href="operation_8h.html" target="_top" xlink:title="core/operation/operation.h">
<polygon fill="#ffffff" stroke="#000000" points="950.5,-168.5 950.5,-187.5 1079.5,-187.5 1079.5,-168.5 950.5,-168.5"/>
<text text-anchor="middle" x="1015" y="-175.5" font-family="Helvetica,sans-Serif" font-size="10.00" fill="#000000">core/operation/operation.h</text>
</a>
</g>
</g>
<!-- Node25&#45;&gt;Node29 -->
<g id="edge40" class="edge">
<title>Node25&#45;&gt;Node29</title>
<path fill="none" stroke="#191970" d="M658.3532,-358.327C667.7365,-340.2858 685.4844,-310.2076 708,-291 776.018,-232.9754 876.469,-203.5835 943.7466,-189.5513"/>
<polygon fill="#191970" stroke="#191970" points="944.7292,-192.9235 953.8365,-187.5099 943.341,-186.0625 944.7292,-192.9235"/>
</g>
<!-- Node25&#45;&gt;Node30 -->
<g id="edge45" class="edge">
<title>Node25&#45;&gt;Node30</title>
<path fill="none" stroke="#191970" d="M591.9662,-367.6142C509.2681,-358.8362 363.5012,-341.2697 314,-322 273.2059,-306.1198 232.2711,-274.8737 209.425,-255.7229"/>
<polygon fill="#191970" stroke="#191970" points="211.4696,-252.8664 201.5927,-249.0327 206.9232,-258.189 211.4696,-252.8664"/>
</g>
<!-- Node32 -->
<g id="node29" class="node">
<title>Node32</title>
<g id="a_node29"><a xlink:href="thread__info_8h.html" target="_top" xlink:title="core/util/thread_info.h">
<polygon fill="#ffffff" stroke="#ff0000" points="258,-230 258,-249 368,-249 368,-230 258,-230"/>
<text text-anchor="middle" x="313" y="-237" font-family="Helvetica,sans-Serif" font-size="10.00" fill="#000000">core/util/thread_info.h</text>
</a>
</g>
</g>
<!-- Node25&#45;&gt;Node32 -->
<g id="edge47" class="edge">
<title>Node25&#45;&gt;Node32</title>
<path fill="none" stroke="#191970" d="M591.7629,-371.3537C510.8974,-367.2001 371.7728,-355.2997 335,-322 317.5384,-306.1876 313.2783,-278.2149 312.5584,-259.2729"/>
<polygon fill="#191970" stroke="#191970" points="316.0568,-259.0507 312.4758,-249.0795 309.057,-259.1076 316.0568,-259.0507"/>
</g>
<!-- Node27&#45;&gt;Node1 -->
<g id="edge37" class="edge">
<title>Node27&#45;&gt;Node1</title>
<path fill="none" stroke="#191970" d="M717.3146,-299.8896C641.0769,-289.8617 507.2883,-270.3486 491,-255 465.3464,-230.8264 472,-213.2487 472,-178 472,-178 472,-178 472,-122 472,-87.6118 488.2634,-50.2832 499.511,-28.5791"/>
<polygon fill="#191970" stroke="#191970" points="502.7317,-29.9804 504.393,-19.5166 496.569,-26.6605 502.7317,-29.9804"/>
</g>
<!-- Node27&#45;&gt;Node5 -->
<g id="edge36" class="edge">
<title>Node27&#45;&gt;Node5</title>
<path fill="none" stroke="#191970" d="M791.7176,-291.2975C819.9121,-272.3494 871.2892,-240.46 920,-224 1022.1837,-189.4708 1054.6805,-211.2719 1160,-188 1161.2842,-187.7162 1162.591,-187.4102 1163.9076,-187.0874"/>
<polygon fill="#191970" stroke="#191970" points="1165.232,-190.3559 1173.9826,-184.3829 1163.4171,-183.5953 1165.232,-190.3559"/>
</g>
<!-- Node27&#45;&gt;Node15 -->
<g id="edge38" class="edge">
<title>Node27&#45;&gt;Node15</title>
<path fill="none" stroke="#191970" d="M818.699,-291.4639C857.1912,-279.5792 910.2864,-263.1858 946.4801,-252.0108"/>
<polygon fill="#191970" stroke="#191970" points="947.6919,-255.2997 956.2142,-249.0053 945.6267,-248.6113 947.6919,-255.2997"/>
</g>
<!-- Node29&#45;&gt;Node1 -->
<g id="edge43" class="edge">
<title>Node29&#45;&gt;Node1</title>
<path fill="none" stroke="#191970" d="M1015.8924,-168.1933C1017.4309,-144.6781 1017.6618,-84.8955 984,-56 950.5575,-27.2928 643.9763,-14.4942 542.4697,-11.019"/>
<polygon fill="#191970" stroke="#191970" points="542.3252,-7.5123 532.2137,-10.6759 542.0911,-14.5084 542.3252,-7.5123"/>
</g>
<!-- Node29&#45;&gt;Node9 -->
<g id="edge42" class="edge">
<title>Node29&#45;&gt;Node9</title>
<path fill="none" stroke="#191970" d="M1023.5775,-168.0471C1036.9826,-153.2072 1064.442,-125.5762 1094,-112 1200.3343,-63.1601 1566.9886,-23.7519 1675.5097,-12.9445"/>
<polygon fill="#191970" stroke="#191970" points="1675.8653,-16.4265 1685.473,-11.9607 1675.1774,-9.4604 1675.8653,-16.4265"/>
</g>
<!-- Node29&#45;&gt;Node18 -->
<g id="edge44" class="edge">
<title>Node29&#45;&gt;Node18</title>
<path fill="none" stroke="#191970" d="M1079.8073,-169.1266C1162.248,-157.8389 1302.7073,-138.6073 1376.1094,-128.5572"/>
<polygon fill="#191970" stroke="#191970" points="1377.005,-131.9673 1386.4377,-127.143 1376.0554,-125.032 1377.005,-131.9673"/>
</g>
<!-- Node29&#45;&gt;Node22 -->
<g id="edge41" class="edge">
<title>Node29&#45;&gt;Node22</title>
<path fill="none" stroke="#191970" d="M1009.1171,-168.4509C997.6087,-149.7707 971.9512,-108.1238 957.1362,-84.0761"/>
<polygon fill="#191970" stroke="#191970" points="960.0932,-82.203 951.868,-75.5249 954.1334,-85.8747 960.0932,-82.203"/>
</g>
<!-- Node31 -->
<g id="node28" class="node">
<title>Node31</title>
<polygon fill="#ffffff" stroke="#bfbfbf" points="255,-168.5 255,-187.5 301,-187.5 301,-168.5 255,-168.5"/>
<text text-anchor="middle" x="278" y="-175.5" font-family="Helvetica,sans-Serif" font-size="10.00" fill="#000000">atomic</text>
</g>
<!-- Node30&#45;&gt;Node31 -->
<g id="edge46" class="edge">
<title>Node30&#45;&gt;Node31</title>
<path fill="none" stroke="#191970" d="M204.5938,-229.8906C218.3843,-220.1421 239.9472,-204.8994 256.141,-193.4521"/>
<polygon fill="#191970" stroke="#191970" points="258.3563,-196.1723 264.5017,-187.5419 254.3156,-190.4563 258.3563,-196.1723"/>
</g>
<!-- Node32&#45;&gt;Node1 -->
<g id="edge49" class="edge">
<title>Node32&#45;&gt;Node1</title>
<path fill="none" stroke="#191970" d="M316.363,-229.8628C327.0978,-200.3124 363.2072,-109.7301 420,-56 436.6398,-40.2576 459.7112,-28.6091 478.3284,-20.9727"/>
<polygon fill="#191970" stroke="#191970" points="479.8312,-24.1432 487.8715,-17.2436 477.2834,-17.6233 479.8312,-24.1432"/>
</g>
<!-- Node32&#45;&gt;Node18 -->
<g id="edge50" class="edge">
<title>Node32&#45;&gt;Node18</title>
<path fill="none" stroke="#191970" d="M368.293,-234.3033C403.418,-231.0966 449.8553,-227.0314 491,-224 756.0968,-204.4685 825.4614,-229.6081 1088,-188 1122.9219,-182.4654 1130.4559,-175.5417 1165,-168 1238.2014,-152.0185 1323.9525,-137.6283 1376.1031,-129.3536"/>
<polygon fill="#191970" stroke="#191970" points="1376.7388,-132.7967 1386.0715,-127.7815 1375.6483,-125.8821 1376.7388,-132.7967"/>
</g>
<!-- Node32&#45;&gt;Node31 -->
<g id="edge48" class="edge">
<title>Node32&#45;&gt;Node31</title>
<path fill="none" stroke="#191970" d="M307.5313,-229.8906C302.4754,-221.0068 294.8228,-207.5601 288.5746,-196.5811"/>
<polygon fill="#191970" stroke="#191970" points="291.534,-194.7048 283.5459,-187.7449 285.4502,-198.1672 291.534,-194.7048"/>
</g>
<!-- Node36&#45;&gt;Node1 -->
<g id="edge54" class="edge">
<title>Node36&#45;&gt;Node1</title>
<path fill="none" stroke="#191970" d="M1181.183,-363.7514C1164.7588,-337.0862 1115.2215,-262.381 1054,-224 1004.2923,-192.8372 982.3132,-207.5558 927,-188 778.1026,-135.3578 606.4637,-55.8981 539.1852,-23.9898"/>
<polygon fill="#191970" stroke="#191970" points="540.5651,-20.7704 530.0312,-19.6358 537.5584,-27.0918 540.5651,-20.7704"/>
</g>
<!-- Node36&#45;&gt;Node9 -->
<g id="edge53" class="edge">
<title>Node36&#45;&gt;Node9</title>
<path fill="none" stroke="#191970" d="M1189.9328,-363.8786C1199.8596,-332.5597 1234.8045,-231.8722 1292,-168 1396.8929,-50.8626 1598.1875,-20.0545 1675.0916,-12.3933"/>
<polygon fill="#191970" stroke="#191970" points="1675.4633,-15.8739 1685.0946,-11.4593 1674.8125,-8.9042 1675.4633,-15.8739"/>
</g>
<!-- Node36&#45;&gt;Node15 -->
<g id="edge55" class="edge">
<title>Node36&#45;&gt;Node15</title>
<path fill="none" stroke="#191970" d="M1168.6769,-363.8809C1150.2069,-353.9853 1121.0675,-337.8242 1097,-322 1064.3923,-300.5608 1028.5736,-272.8606 1006.9417,-255.6384"/>
<polygon fill="#191970" stroke="#191970" points="1008.847,-252.6802 998.8539,-249.1603 1004.4709,-258.1437 1008.847,-252.6802"/>
</g>
<!-- Node36&#45;&gt;Node16 -->
<g id="edge83" class="edge">
<title>Node36&#45;&gt;Node16</title>
<path fill="none" stroke="#191970" d="M1232.6739,-369.673C1274.6314,-364.3553 1337.0828,-351.7442 1383,-322 1433.3265,-289.3996 1471.9673,-227.7119 1489.183,-196.7379"/>
<polygon fill="#191970" stroke="#191970" points="1492.3196,-198.296 1494.0074,-187.8365 1486.1653,-194.9605 1492.3196,-198.296"/>
</g>
<!-- Node36&#45;&gt;Node22 -->
<g id="edge52" class="edge">
<title>Node36&#45;&gt;Node22</title>
<path fill="none" stroke="#191970" d="M1186.095,-363.9919C1183.0172,-337.2945 1170.4618,-261.1741 1125,-224 1060.4922,-171.252 993.9639,-252.3306 941,-188 917.0788,-158.945 928.7417,-111.513 938.1378,-85.1676"/>
<polygon fill="#191970" stroke="#191970" points="941.5002,-86.173 941.7934,-75.5822 934.9597,-83.6786 941.5002,-86.173"/>
</g>
<!-- Node37 -->
<g id="node31" class="node">
<title>Node37</title>
<g id="a_node31"><a xlink:href="opencl__state_8h.html" target="_top" xlink:title="core/gpu/opencl_state.h">
<polygon fill="#ffffff" stroke="#000000" points="1253.5,-297 1253.5,-316 1374.5,-316 1374.5,-297 1253.5,-297"/>
<text text-anchor="middle" x="1314" y="-304" font-family="Helvetica,sans-Serif" font-size="10.00" fill="#000000">core/gpu/opencl_state.h</text>
</a>
</g>
</g>
<!-- Node36&#45;&gt;Node37 -->
<g id="edge56" class="edge">
<title>Node36&#45;&gt;Node37</title>
<path fill="none" stroke="#191970" d="M1205.196,-363.9005C1226.6038,-352.6067 1262.3458,-333.7506 1286.9893,-320.7497"/>
<polygon fill="#191970" stroke="#191970" points="1288.6262,-323.8434 1295.8378,-316.0817 1285.3599,-317.6522 1288.6262,-323.8434"/>
</g>
<!-- Node38 -->
<g id="node32" class="node">
<title>Node38</title>
<g id="a_node32"><a xlink:href="memory__manager_8h.html" target="_top" xlink:title="core/memory/memory\l_manager.h">
<polygon fill="#ffffff" stroke="#ff0000" points="377,-291.5 377,-321.5 489,-321.5 489,-291.5 377,-291.5"/>
<text text-anchor="start" x="385" y="-309.5" font-family="Helvetica,sans-Serif" font-size="10.00" fill="#000000">core/memory/memory</text>
<text text-anchor="middle" x="433" y="-298.5" font-family="Helvetica,sans-Serif" font-size="10.00" fill="#000000">_manager.h</text>
</a>
</g>
</g>
<!-- Node36&#45;&gt;Node38 -->
<g id="edge58" class="edge">
<title>Node36&#45;&gt;Node38</title>
<path fill="none" stroke="#191970" d="M1141.1155,-370.9844C1034.6028,-364.9017 762.3984,-347.9573 536,-322 524.0697,-320.6322 511.3982,-318.931 499.1727,-317.1615"/>
<polygon fill="#191970" stroke="#191970" points="499.4383,-313.6628 489.0343,-315.6648 498.4159,-320.5878 499.4383,-313.6628"/>
</g>
<!-- Node42 -->
<g id="node35" class="node">
<title>Node42</title>
<g id="a_node35"><a xlink:href="random_8h.html" target="_top" xlink:title="core/util/random.h">
<polygon fill="#ffffff" stroke="#ff0000" points="1767.5,-297 1767.5,-316 1862.5,-316 1862.5,-297 1767.5,-297"/>
<text text-anchor="middle" x="1815" y="-304" font-family="Helvetica,sans-Serif" font-size="10.00" fill="#000000">core/util/random.h</text>
</a>
</g>
</g>
<!-- Node36&#45;&gt;Node42 -->
<g id="edge71" class="edge">
<title>Node36&#45;&gt;Node42</title>
<path fill="none" stroke="#191970" d="M1232.5136,-372.1058C1329.7195,-368.5361 1564.5163,-356.7545 1758,-322 1763.1667,-321.0719 1768.5461,-319.8953 1773.8466,-318.6066"/>
<polygon fill="#191970" stroke="#191970" points="1775.0547,-321.9098 1783.8657,-316.0262 1773.3088,-315.131 1775.0547,-321.9098"/>
</g>
<!-- Node37&#45;&gt;Node18 -->
<g id="edge57" class="edge">
<title>Node37&#45;&gt;Node18</title>
<path fill="none" stroke="#191970" d="M1309.5965,-296.6965C1299.4236,-272.4194 1277.2055,-208.543 1305,-168 1313.608,-155.4438 1347.2821,-143.1091 1376.6217,-134.3782"/>
<polygon fill="#191970" stroke="#191970" points="1377.7294,-137.7013 1386.3629,-131.5603 1375.7842,-130.977 1377.7294,-137.7013"/>
</g>
<!-- Node38&#45;&gt;Node1 -->
<g id="edge61" class="edge">
<title>Node38&#45;&gt;Node1</title>
<path fill="none" stroke="#191970" d="M433.1928,-291.4652C433.4834,-267.4738 434,-219.0499 434,-178 434,-178 434,-178 434,-122 434,-90.7875 440.4364,-81.802 458,-56 465.8422,-44.4793 477.2082,-33.9817 487.3151,-25.9331"/>
<polygon fill="#191970" stroke="#191970" points="489.5642,-28.6198 495.4038,-19.7796 485.3259,-23.0487 489.5642,-28.6198"/>
</g>
<!-- Node38&#45;&gt;Node4 -->
<g id="edge59" class="edge">
<title>Node38&#45;&gt;Node4</title>
<path fill="none" stroke="#191970" d="M489.0768,-295.9027C579.5154,-279.0597 763.3021,-245.8552 920,-224 1062.0155,-204.1926 1232.0981,-187.758 1304.0857,-181.1369"/>
<polygon fill="#191970" stroke="#191970" points="1304.7398,-184.5918 1314.3795,-180.1957 1304.1024,-177.6209 1304.7398,-184.5918"/>
</g>
<!-- Node38&#45;&gt;Node26 -->
<g id="edge60" class="edge">
<title>Node38&#45;&gt;Node26</title>
<path fill="none" stroke="#191970" d="M489.0737,-293.7714C543.2623,-281.1729 618.8949,-262.6891 631,-255 654.2749,-240.2158 673.2784,-214.1896 684.3676,-196.5295"/>
<polygon fill="#191970" stroke="#191970" points="687.5233,-198.0742 689.691,-187.7035 681.5291,-194.4589 687.5233,-198.0742"/>
</g>
<!-- Node38&#45;&gt;Node30 -->
<g id="edge69" class="edge">
<title>Node38&#45;&gt;Node30</title>
<path fill="none" stroke="#191970" d="M378.6905,-291.4639C335.3969,-279.4776 275.5383,-262.9052 235.1573,-251.7254"/>
<polygon fill="#191970" stroke="#191970" points="235.9039,-248.3005 225.3325,-249.0053 234.0361,-255.0467 235.9039,-248.3005"/>
</g>
<!-- Node38&#45;&gt;Node32 -->
<g id="edge70" class="edge">
<title>Node38&#45;&gt;Node32</title>
<path fill="none" stroke="#191970" d="M406.0697,-291.4639C386.0259,-280.2728 358.8217,-265.0838 339.0035,-254.0186"/>
<polygon fill="#191970" stroke="#191970" points="340.6386,-250.923 330.2011,-249.1039 337.2261,-257.0349 340.6386,-250.923"/>
</g>
<!-- Node38&#45;&gt;Node40 -->
<g id="edge62" class="edge">
<title>Node38&#45;&gt;Node40</title>
<path fill="none" stroke="#191970" d="M461.7257,-291.4639C483.2025,-280.2222 512.3862,-264.9463 533.5495,-253.8686"/>
<polygon fill="#191970" stroke="#191970" points="535.4157,-256.8423 542.6522,-249.1039 532.1694,-250.6406 535.4157,-256.8423"/>
</g>
<!-- Node40&#45;&gt;Node1 -->
<g id="edge67" class="edge">
<title>Node40&#45;&gt;Node1</title>
<path fill="none" stroke="#191970" d="M558.8735,-229.9309C551.1943,-195.3746 524.7988,-76.5944 514.3287,-29.4794"/>
<polygon fill="#191970" stroke="#191970" points="517.7216,-28.6126 512.1356,-19.61 510.8883,-30.1311 517.7216,-28.6126"/>
</g>
<!-- Node40&#45;&gt;Node4 -->
<g id="edge63" class="edge">
<title>Node40&#45;&gt;Node4</title>
<path fill="none" stroke="#191970" d="M622.1632,-234.9135C738.9632,-226.1168 1001.8325,-206.1356 1223,-188 1250.2537,-185.7652 1281.0966,-183.0998 1304.1246,-181.083"/>
<polygon fill="#191970" stroke="#191970" points="1304.4587,-184.5672 1314.1142,-180.2059 1303.8463,-177.5941 1304.4587,-184.5672"/>
</g>
<!-- Node40&#45;&gt;Node13 -->
<g id="edge65" class="edge">
<title>Node40&#45;&gt;Node13</title>
<path fill="none" stroke="#191970" d="M501.7316,-229.9581C420.3414,-216.8547 276.7283,-193.7337 212.1231,-183.3326"/>
<polygon fill="#191970" stroke="#191970" points="212.5215,-179.8518 202.0922,-181.7177 211.4088,-186.7628 212.5215,-179.8518"/>
</g>
<!-- Node40&#45;&gt;Node24 -->
<g id="edge68" class="edge">
<title>Node40&#45;&gt;Node24</title>
<path fill="none" stroke="#191970" d="M622.2156,-230.5395C638.9835,-228.2389 657.1747,-225.8843 674,-224 857.5469,-203.4441 906.0292,-219.6012 1088,-188 1096.1783,-186.5797 1368.8506,-113.5779 1377,-112 1486.8189,-90.7361 1617.2088,-77.0372 1688.6246,-70.5047"/>
<polygon fill="#191970" stroke="#191970" points="1689.0792,-73.9779 1698.724,-69.5928 1688.4497,-67.0063 1689.0792,-73.9779"/>
</g>
<!-- Node40&#45;&gt;Node26 -->
<g id="edge66" class="edge">
<title>Node40&#45;&gt;Node26</title>
<path fill="none" stroke="#191970" d="M581.9375,-229.8906C604.3904,-219.5858 640.2198,-203.1416 665.518,-191.5309"/>
<polygon fill="#191970" stroke="#191970" points="667.0197,-194.6928 674.6483,-187.3405 664.0998,-188.3308 667.0197,-194.6928"/>
</g>
<!-- Node41 -->
<g id="node34" class="node">
<title>Node41</title>
<polygon fill="#ffffff" stroke="#bfbfbf" points="576.5,-168.5 576.5,-187.5 625.5,-187.5 625.5,-168.5 576.5,-168.5"/>
<text text-anchor="middle" x="601" y="-175.5" font-family="Helvetica,sans-Serif" font-size="10.00" fill="#000000">cstddef</text>
</g>
<!-- Node40&#45;&gt;Node41 -->
<g id="edge64" class="edge">
<title>Node40&#45;&gt;Node41</title>
<path fill="none" stroke="#191970" d="M567.25,-229.8906C573.0865,-220.917 581.9509,-207.2879 589.1306,-196.2491"/>
<polygon fill="#191970" stroke="#191970" points="592.1436,-198.0361 594.6619,-187.7449 586.2755,-194.2194 592.1436,-198.0361"/>
</g>
<!-- Node42&#45;&gt;Node16 -->
<g id="edge82" class="edge">
<title>Node42&#45;&gt;Node16</title>
<path fill="none" stroke="#191970" d="M1814.6451,-296.8401C1813.4449,-279.3636 1808.256,-242.5886 1786,-224 1750.8386,-194.6326 1621.1794,-183.7831 1548.7571,-179.9568"/>
<polygon fill="#191970" stroke="#191970" points="1548.6683,-176.4481 1538.5052,-179.4419 1548.317,-183.4392 1548.6683,-176.4481"/>
</g>
<!-- Node43 -->
<g id="node36" class="node">
<title>Node43</title>
<polygon fill="#ffffff" stroke="#bfbfbf" points="1909,-230 1909,-249 1947,-249 1947,-230 1909,-230"/>
<text text-anchor="middle" x="1928" y="-237" font-family="Helvetica,sans-Serif" font-size="10.00" fill="#000000">array</text>
</g>
<!-- Node42&#45;&gt;Node43 -->
<g id="edge72" class="edge">
<title>Node42&#45;&gt;Node43</title>
<path fill="none" stroke="#191970" d="M1831.1901,-296.9005C1849.9863,-285.7559 1881.2016,-267.2477 1903.0924,-254.2682"/>
<polygon fill="#191970" stroke="#191970" points="1905.0233,-257.1924 1911.8399,-249.0817 1901.4531,-251.1712 1905.0233,-257.1924"/>
</g>
<!-- Node42&#45;&gt;Node45 -->
<g id="edge73" class="edge">
<title>Node42&#45;&gt;Node45</title>
<path fill="none" stroke="#191970" d="M1862.6792,-297.2475C1910.5623,-287.8102 1986.693,-272.4127 2062.2791,-255.1095"/>
<polygon fill="#191970" stroke="#191970" points="2063.494,-258.4214 2072.4542,-252.7677 2061.9239,-251.5998 2063.494,-258.4214"/>
</g>
<!-- Node45&#45;&gt;Node3 -->
<g id="edge74" class="edge">
<title>Node45&#45;&gt;Node3</title>
<path fill="none" stroke="#191970" d="M2093.9108,-224.4554C2074.1981,-214.599 2048.5998,-201.7999 2029.2653,-192.1327"/>
<polygon fill="#191970" stroke="#191970" points="2030.5702,-188.872 2020.0606,-187.5303 2027.4397,-195.133 2030.5702,-188.872"/>
</g>
<!-- Node45&#45;&gt;Node4 -->
<g id="edge75" class="edge">
<title>Node45&#45;&gt;Node4</title>
<path fill="none" stroke="#191970" d="M2072.2242,-225.6307C2069.1152,-225.02 2066.0234,-224.4685 2063,-224 1793.3053,-182.2056 1722.1618,-208.2463 1450,-188 1424.4635,-186.1003 1395.6647,-183.4922 1373.8014,-181.4159"/>
<polygon fill="#191970" stroke="#191970" points="1373.9587,-177.915 1363.6703,-180.4447 1373.2907,-184.8831 1373.9587,-177.915"/>
</g>
<!-- Node45&#45;&gt;Node14 -->
<g id="edge78" class="edge">
<title>Node45&#45;&gt;Node14</title>
<path fill="none" stroke="#191970" d="M2072.4412,-226.2877C2069.2487,-225.5042 2066.0821,-224.736 2063,-224 1994.7471,-207.7013 1974.7565,-206.1856 1903.2769,-188.2223"/>
<polygon fill="#191970" stroke="#191970" points="1903.8821,-184.765 1893.3287,-185.7004 1902.162,-191.5504 1903.8821,-184.765"/>
</g>
<!-- Node45&#45;&gt;Node16 -->
<g id="edge81" class="edge">
<title>Node45&#45;&gt;Node16</title>
<path fill="none" stroke="#191970" d="M2072.2111,-225.7123C2069.1054,-225.0811 2066.0179,-224.5029 2063,-224 1874.8333,-192.6471 1647.636,-182.3918 1548.8723,-179.267"/>
<polygon fill="#191970" stroke="#191970" points="1548.6981,-175.7601 1538.5959,-178.9531 1548.4844,-182.7569 1548.6981,-175.7601"/>
</g>
<!-- Node45&#45;&gt;Node26 -->
<g id="edge80" class="edge">
<title>Node45&#45;&gt;Node26</title>
<path fill="none" stroke="#191970" d="M2072.2384,-225.5349C2069.1258,-224.9483 2066.0294,-224.4283 2063,-224 1815.9949,-189.0774 1190.2968,-197.0663 941,-188 863.2939,-185.174 771.8036,-181.3147 725.3584,-179.3177"/>
<polygon fill="#191970" stroke="#191970" points="725.2284,-175.8089 715.0868,-178.8748 724.9268,-182.8024 725.2284,-175.8089"/>
</g>
<!-- Node46 -->
<g id="node38" class="node">
<title>Node46</title>
<polygon fill="#ffffff" stroke="#bfbfbf" points="1911,-168.5 1911,-187.5 1955,-187.5 1955,-168.5 1911,-168.5"/>
<text text-anchor="middle" x="1933" y="-175.5" font-family="Helvetica,sans-Serif" font-size="10.00" fill="#000000">cmath</text>
</g>
<!-- Node45&#45;&gt;Node46 -->
<g id="edge76" class="edge">
<title>Node45&#45;&gt;Node46</title>
<path fill="none" stroke="#191970" d="M2077.0902,-224.4096C2047.379,-214.8498 2007.8981,-202.143 1964.6042,-188.1935"/>
<polygon fill="#191970" stroke="#191970" points="1965.6064,-184.8392 1955.0149,-185.1035 1963.4595,-191.5019 1965.6064,-184.8392"/>
</g>
<!-- Node47 -->
<g id="node39" class="node">
<title>Node47</title>
<polygon fill="#ffffff" stroke="#bfbfbf" points="2047.5,-168.5 2047.5,-187.5 2098.5,-187.5 2098.5,-168.5 2047.5,-168.5"/>
<text text-anchor="middle" x="2073" y="-175.5" font-family="Helvetica,sans-Serif" font-size="10.00" fill="#000000">numeric</text>
</g>
<!-- Node45&#45;&gt;Node47 -->
<g id="edge77" class="edge">
<title>Node45&#45;&gt;Node47</title>
<path fill="none" stroke="#191970" d="M2111.3933,-224.2977C2104.2402,-215.672 2095.2503,-204.8312 2087.7682,-195.8087"/>
<polygon fill="#191970" stroke="#191970" points="2090.2433,-193.3103 2081.1657,-187.8469 2084.855,-197.7787 2090.2433,-193.3103"/>
</g>
<!-- Node48 -->
<g id="node40" class="node">
<title>Node48</title>
<polygon fill="#ffffff" stroke="#bfbfbf" points="2116.5,-168.5 2116.5,-187.5 2175.5,-187.5 2175.5,-168.5 2116.5,-168.5"/>
<text text-anchor="middle" x="2146" y="-175.5" font-family="Helvetica,sans-Serif" font-size="10.00" fill="#000000">stdexcept</text>
</g>
<!-- Node45&#45;&gt;Node48 -->
<g id="edge79" class="edge">
<title>Node45&#45;&gt;Node48</title>
<path fill="none" stroke="#191970" d="M2129.4382,-224.2977C2132.333,-216.2055 2135.9251,-206.1639 2139.0234,-197.5029"/>
<polygon fill="#191970" stroke="#191970" points="2142.4047,-198.4415 2142.4775,-187.8469 2135.8138,-196.0837 2142.4047,-198.4415"/>
</g>
<!-- Node49&#45;&gt;Node5 -->
<g id="edge87" class="edge">
<title>Node49&#45;&gt;Node5</title>
<path fill="none" stroke="#191970" d="M1590.2096,-359.6903C1587.1017,-359.0823 1584.0169,-358.5133 1581,-358 1506.7522,-345.3661 1302.9628,-368.8586 1244,-322 1205.6193,-291.4983 1196.6034,-229.7358 1194.5515,-197.9273"/>
<polygon fill="#191970" stroke="#191970" points="1198.0355,-197.5014 1194.0692,-187.677 1191.0432,-197.8305 1198.0355,-197.5014"/>
</g>
<!-- Node49&#45;&gt;Node18 -->
<g id="edge104" class="edge">
<title>Node49&#45;&gt;Node18</title>
<path fill="none" stroke="#191970" d="M1623.0511,-358.4506C1608.329,-348.7592 1589.4018,-335.4885 1574,-322 1512.9574,-268.5407 1493.168,-256.7068 1450,-188 1440.9012,-173.5182 1434.0228,-155.3258 1429.6334,-141.7104"/>
<polygon fill="#191970" stroke="#191970" points="1432.916,-140.4754 1426.652,-131.9307 1426.2203,-142.5167 1432.916,-140.4754"/>
</g>
<!-- Node50 -->
<g id="node42" class="node">
<title>Node50</title>
<polygon fill="#ffffff" stroke="#bfbfbf" points="1583,-297 1583,-316 1627,-316 1627,-297 1583,-297"/>
<text text-anchor="middle" x="1605" y="-304" font-family="Helvetica,sans-Serif" font-size="10.00" fill="#000000">mutex</text>
</g>
<!-- Node49&#45;&gt;Node50 -->
<g id="edge88" class="edge">
<title>Node49&#45;&gt;Node50</title>
<path fill="none" stroke="#191970" d="M1637.4695,-358.2967C1631.2434,-348.3645 1623.077,-335.3371 1616.4918,-324.8321"/>
<polygon fill="#191970" stroke="#191970" points="1619.2666,-322.6689 1610.9897,-316.055 1613.3356,-326.3868 1619.2666,-322.6689"/>
</g>
<!-- Node49&#45;&gt;Node51 -->
<g id="edge89" class="edge">
<title>Node49&#45;&gt;Node51</title>
<path fill="none" stroke="#191970" d="M1658.3458,-358.2967C1664.6107,-349.9016 1672.5259,-339.2952 1679.5598,-329.8698"/>
<polygon fill="#191970" stroke="#191970" points="1682.5233,-331.7508 1685.6991,-321.6432 1676.9132,-327.5642 1682.5233,-331.7508"/>
</g>
<!-- Node51&#45;&gt;Node1 -->
<g id="edge96" class="edge">
<title>Node51&#45;&gt;Node1</title>
<path fill="none" stroke="#191970" d="M1669.7631,-291.3799C1654.9679,-282.2232 1637.0794,-269.5205 1624,-255 1575.2599,-200.8898 1604.8266,-152.0454 1544,-112 1458.3073,-55.584 708.2994,-18.8841 542.3958,-11.413"/>
<polygon fill="#191970" stroke="#191970" points="542.4722,-7.913 532.326,-10.9632 542.1598,-14.906 542.4722,-7.913"/>
</g>
<!-- Node51&#45;&gt;Node3 -->
<g id="edge90" class="edge">
<title>Node51&#45;&gt;Node3</title>
<path fill="none" stroke="#191970" d="M1749.3064,-291.5863C1788.2824,-280.1147 1837.9233,-264.6428 1857,-255 1878.0262,-244.3717 1879.6251,-235.8289 1900,-224 1921.4798,-211.5297 1946.9365,-199.9545 1966.9188,-191.535"/>
<polygon fill="#191970" stroke="#191970" points="1968.3516,-194.7299 1976.2472,-187.6651 1965.6693,-188.2642 1968.3516,-194.7299"/>
</g>
<!-- Node51&#45;&gt;Node4 -->
<g id="edge92" class="edge">
<title>Node51&#45;&gt;Node4</title>
<path fill="none" stroke="#191970" d="M1652.5834,-291.4103C1622.9167,-281.2671 1583.0559,-267.5145 1548,-255 1486.2634,-232.9608 1414.6429,-206.3453 1373.3004,-190.8786"/>
<polygon fill="#191970" stroke="#191970" points="1374.3065,-187.5181 1363.7141,-187.289 1371.8517,-194.0736 1374.3065,-187.5181"/>
</g>
<!-- Node51&#45;&gt;Node5 -->
<g id="edge93" class="edge">
<title>Node51&#45;&gt;Node5</title>
<path fill="none" stroke="#191970" d="M1644.7921,-293.0788C1641.8206,-292.3633 1638.8742,-291.6656 1636,-291 1559.9129,-273.379 1539.8238,-273.7216 1464,-255 1376.0813,-233.2921 1273.5698,-202.5381 1223.9508,-187.301"/>
<polygon fill="#191970" stroke="#191970" points="1224.7769,-183.8932 1214.1897,-184.2939 1222.716,-190.583 1224.7769,-183.8932"/>
</g>
<!-- Node51&#45;&gt;Node8 -->
<g id="edge94" class="edge">
<title>Node51&#45;&gt;Node8</title>
<path fill="none" stroke="#191970" d="M1749.1233,-292.6551C1752.1163,-292.0475 1755.0906,-291.4892 1758,-291 1945.3784,-259.4966 2007.5573,-325.5059 2184,-255 2234.7906,-234.7043 2280,-232.6956 2280,-178 2280,-178 2280,-178 2280,-122 2280,-89.7116 2280,-52.1872 2280,-29.8048"/>
<polygon fill="#191970" stroke="#191970" points="2283.5001,-29.5883 2280,-19.5884 2276.5001,-29.5884 2283.5001,-29.5883"/>
</g>
<!-- Node51&#45;&gt;Node16 -->
<g id="edge102" class="edge">
<title>Node51&#45;&gt;Node16</title>
<path fill="none" stroke="#191970" d="M1660.4875,-291.4246C1639.4834,-282.1077 1612.9834,-269.2327 1591,-255 1562.9508,-236.84 1533.9265,-211.2011 1516.1648,-194.5889"/>
<polygon fill="#191970" stroke="#191970" points="1518.5075,-191.9869 1508.8406,-187.6507 1513.6934,-197.0688 1518.5075,-191.9869"/>
</g>
<!-- Node51&#45;&gt;Node18 -->
<g id="edge101" class="edge">
<title>Node51&#45;&gt;Node18</title>
<path fill="none" stroke="#191970" d="M1742.6549,-291.2863C1759.3437,-283.2586 1776.4574,-271.547 1786,-255 1792.8831,-243.0647 1794.317,-234.9843 1786,-224 1776.3046,-211.1952 1567.612,-157.8054 1471.5873,-133.7918"/>
<polygon fill="#191970" stroke="#191970" points="1472.3798,-130.3823 1461.8297,-131.3558 1470.6842,-137.1738 1472.3798,-130.3823"/>
</g>
<!-- Node51&#45;&gt;Node43 -->
<g id="edge91" class="edge">
<title>Node51&#45;&gt;Node43</title>
<path fill="none" stroke="#191970" d="M1749.1209,-293.1973C1805.3996,-278.795 1888.006,-257.5276 1895,-255 1896.5961,-254.4232 1898.2199,-253.7972 1899.848,-253.1386"/>
<polygon fill="#191970" stroke="#191970" points="1901.2882,-256.3289 1909.0582,-249.1263 1898.4925,-249.9114 1901.2882,-256.3289"/>
</g>
<!-- Node52 -->
<g id="node44" class="node">
<title>Node52</title>
<polygon fill="#ffffff" stroke="#bfbfbf" points="2003.5,-230 2003.5,-249 2054.5,-249 2054.5,-230 2003.5,-230"/>
<text text-anchor="middle" x="2029" y="-237" font-family="Helvetica,sans-Serif" font-size="10.00" fill="#000000">typeinfo</text>
</g>
<!-- Node51&#45;&gt;Node52 -->
<g id="edge95" class="edge">
<title>Node51&#45;&gt;Node52</title>
<path fill="none" stroke="#191970" d="M1749.1873,-292.9873C1752.1641,-292.2951 1755.1173,-291.6275 1758,-291 1845.3959,-271.9751 1868.2444,-272.2904 1956,-255 1968.1914,-252.5979 1981.4937,-249.8202 1993.3636,-247.2855"/>
<polygon fill="#191970" stroke="#191970" points="1994.321,-250.6597 2003.362,-245.136 1992.8497,-243.8161 1994.321,-250.6597"/>
</g>
<!-- Node53 -->
<g id="node45" class="node">
<title>Node53</title>
<g id="a_node45"><a xlink:href="io_8h.html" target="_top" xlink:title="core/util/io.h">
<polygon fill="#ffffff" stroke="#ff0000" points="1633,-230 1633,-249 1703,-249 1703,-230 1633,-230"/>
<text text-anchor="middle" x="1668" y="-237" font-family="Helvetica,sans-Serif" font-size="10.00" fill="#000000">core/util/io.h</text>
</a>
</g>
</g>
<!-- Node51&#45;&gt;Node53 -->
<g id="edge97" class="edge">
<title>Node51&#45;&gt;Node53</title>
<path fill="none" stroke="#191970" d="M1690.4195,-291.2967C1686.2082,-281.5672 1680.7113,-268.8675 1676.2145,-258.4784"/>
<polygon fill="#191970" stroke="#191970" points="1679.3201,-256.8419 1672.1357,-249.055 1672.896,-259.6225 1679.3201,-256.8419"/>
</g>
<!-- Node56 -->
<g id="node46" class="node">
<title>Node56</title>
<polygon fill="#ffffff" stroke="#bfbfbf" points="1721,-230 1721,-249 1777,-249 1777,-230 1721,-230"/>
<text text-anchor="middle" x="1749" y="-237" font-family="Helvetica,sans-Serif" font-size="10.00" fill="#000000">Rtypes.h</text>
</g>
<!-- Node51&#45;&gt;Node56 -->
<g id="edge103" class="edge">
<title>Node51&#45;&gt;Node56</title>
<path fill="none" stroke="#191970" d="M1708.7996,-291.2967C1716.6655,-281.1618 1727.0327,-267.804 1735.2688,-257.1921"/>
<polygon fill="#191970" stroke="#191970" points="1738.2179,-259.1008 1741.5842,-249.055 1732.688,-254.8089 1738.2179,-259.1008"/>
</g>
<!-- Node53&#45;&gt;Node1 -->
<g id="edge99" class="edge">
<title>Node53&#45;&gt;Node1</title>
<path fill="none" stroke="#191970" d="M1666.3187,-229.5805C1660.2976,-197.5459 1636.5691,-96.5872 1571,-56 1526.2033,-28.2709 715.3948,-13.3844 542.328,-10.5152"/>
<polygon fill="#191970" stroke="#191970" points="542.1429,-7.0118 532.0868,-10.3472 542.028,-14.0108 542.1429,-7.0118"/>
</g>
<!-- Node53&#45;&gt;Node9 -->
<g id="edge98" class="edge">
<title>Node53&#45;&gt;Node9</title>
<path fill="none" stroke="#191970" d="M1679.3383,-229.8913C1705.7033,-206.7067 1770.6598,-144.5235 1794,-76 1796.866,-67.5858 1798.6049,-63.6031 1794,-56 1781.5469,-35.4386 1756.5513,-23.6287 1736.3715,-17.137"/>
<polygon fill="#191970" stroke="#191970" points="1737.2202,-13.7386 1726.6395,-14.2855 1735.2519,-20.4562 1737.2202,-13.7386"/>
</g>
<!-- Node53&#45;&gt;Node16 -->
<g id="edge100" class="edge">
<title>Node53&#45;&gt;Node16</title>
<path fill="none" stroke="#191970" d="M1641.5938,-229.8906C1612.8209,-219.42 1566.6304,-202.6111 1534.6534,-190.9745"/>
<polygon fill="#191970" stroke="#191970" points="1535.8149,-187.6726 1525.2208,-187.5419 1533.421,-194.2506 1535.8149,-187.6726"/>
</g>
<!-- Node57&#45;&gt;Node43 -->
<g id="edge108" class="edge">
<title>Node57&#45;&gt;Node43</title>
<path fill="none" stroke="#191970" d="M1971.6929,-296.9005C1963.8157,-286.552 1951.1054,-269.8542 1941.4194,-257.1295"/>
<polygon fill="#191970" stroke="#191970" points="1944.1354,-254.9188 1935.2935,-249.0817 1938.5654,-259.1586 1944.1354,-254.9188"/>
</g>
<!-- Node57&#45;&gt;Node45 -->
<g id="edge109" class="edge">
<title>Node57&#45;&gt;Node45</title>
<path fill="none" stroke="#191970" d="M1999.775,-296.9005C2021.21,-286.9961 2055.2319,-271.2756 2082.2556,-258.7888"/>
<polygon fill="#191970" stroke="#191970" points="2083.8806,-261.8936 2091.4902,-254.5218 2080.9443,-255.5392 2083.8806,-261.8936"/>
</g>
<!-- Node60&#45;&gt;Node10 -->
<g id="edge115" class="edge">
<title>Node60&#45;&gt;Node10</title>
<path fill="none" stroke="#191970" d="M1985.4846,-432.2002C1890.8168,-425.4341 1657.3589,-407.3907 1581,-389 1578.149,-388.3134 1575.2288,-387.4713 1572.328,-386.5378"/>
<polygon fill="#191970" stroke="#191970" points="1573.2644,-383.1561 1562.6697,-383.1049 1570.9201,-389.7519 1573.2644,-383.1561"/>
</g>
<!-- Node60&#45;&gt;Node24 -->
<g id="edge119" class="edge">
<title>Node60&#45;&gt;Node24</title>
<path fill="none" stroke="#191970" d="M2034.2287,-425.4966C2046.844,-410.9376 2071.7381,-382.2497 2093,-358 2133.2712,-312.0697 2162.3779,-312.1301 2184,-255 2197.6868,-218.8367 2208.072,-198.2597 2184,-168 2135.9592,-107.6102 1902.4473,-79.9054 1795.5826,-70.2333"/>
<polygon fill="#191970" stroke="#191970" points="1795.6095,-66.722 1785.3398,-69.3265 1794.9921,-73.6948 1795.6095,-66.722"/>
</g>
<!-- Node60&#45;&gt;Node45 -->
<g id="edge117" class="edge">
<title>Node60&#45;&gt;Node45</title>
<path fill="none" stroke="#191970" d="M2029.9475,-425.405C2036.0512,-410.7264 2048.2999,-381.8844 2060,-358 2076.2727,-324.7811 2096.8746,-287.3643 2110.2404,-263.6243"/>
<polygon fill="#191970" stroke="#191970" points="2113.4466,-265.0649 2115.3226,-254.6374 2107.3535,-261.6191 2113.4466,-265.0649"/>
</g>
<!-- Node60&#45;&gt;Node52 -->
<g id="edge116" class="edge">
<title>Node60&#45;&gt;Node52</title>
<path fill="none" stroke="#191970" d="M2024.894,-425.1456C2023.9089,-415.8422 2022.5422,-401.4936 2022,-389 2021.4027,-375.2352 2017.8824,-371.1481 2022,-358 2027.8216,-339.4106 2041.1784,-340.5894 2047,-322 2051.1176,-308.8519 2049.3054,-304.5835 2047,-291 2045.1145,-279.8909 2041.0941,-267.9848 2037.3302,-258.4217"/>
<polygon fill="#191970" stroke="#191970" points="2040.5309,-257.0029 2033.4599,-249.1129 2034.0673,-259.6903 2040.5309,-257.0029"/>
</g>
<!-- Node60&#45;&gt;Node58 -->
<g id="edge118" class="edge">
<title>Node60&#45;&gt;Node58</title>
<path fill="none" stroke="#191970" d="M2043.6563,-425.3906C2062.1486,-415.3262 2091.401,-399.4057 2112.6308,-387.8514"/>
<polygon fill="#191970" stroke="#191970" points="2114.3575,-390.8965 2121.4677,-383.0419 2111.0112,-384.7481 2114.3575,-390.8965"/>
</g>
</g>
</svg>
