<?xml version="1.0" encoding="UTF-8" standalone="no"?>
<!DOCTYPE svg PUBLIC "-//W3C//DTD SVG 1.1//EN"
 "http://www.w3.org/Graphics/SVG/1.1/DTD/svg11.dtd">
<!-- Generated by graphviz version 2.40.1 (20161225.0304)
 -->
<!-- Title: core/visualization/visualization_adaptor.cc Pages: 1 -->
<svg width="1825pt" height="464pt"
 viewBox="0.00 0.00 1824.50 464.00" xmlns="http://www.w3.org/2000/svg" xmlns:xlink="http://www.w3.org/1999/xlink">
<g id="graph0" class="graph" transform="scale(1 1) rotate(0) translate(4 460)">
<title>core/visualization/visualization_adaptor.cc</title>
<polygon fill="#ffffff" stroke="transparent" points="-4,4 -4,-460 1820.5,-460 1820.5,4 -4,4"/>
<!-- Node0 -->
<g id="node1" class="node">
<title>Node0</title>
<polygon fill="#bfbfbf" stroke="#000000" points="668.5,-425.5 668.5,-455.5 793.5,-455.5 793.5,-425.5 668.5,-425.5"/>
<text text-anchor="start" x="676.5" y="-443.5" font-family="Helvetica,sans-Serif" font-size="10.00" fill="#000000">core/visualization</text>
<text text-anchor="middle" x="731" y="-432.5" font-family="Helvetica,sans-Serif" font-size="10.00" fill="#000000">/visualization_adaptor.cc</text>
</g>
<!-- Node1 -->
<g id="node2" class="node">
<title>Node1</title>
<polygon fill="#ffffff" stroke="#bfbfbf" points="193.5,-.5 193.5,-19.5 234.5,-19.5 234.5,-.5 193.5,-.5"/>
<text text-anchor="middle" x="214" y="-7.5" font-family="Helvetica,sans-Serif" font-size="10.00" fill="#000000">string</text>
</g>
<!-- Node0&#45;&gt;Node1 -->
<g id="edge1" class="edge">
<title>Node0&#45;&gt;Node1</title>
<path fill="none" stroke="#191970" d="M668.2822,-438.8987C533.0667,-434.8543 218.1628,-422.0886 117,-389 59.0784,-370.0548 0,-378.4412 0,-317.5 0,-317.5 0,-317.5 0,-127.5 0,-44.9045 124.002,-19.9697 183.2216,-12.771"/>
<polygon fill="#191970" stroke="#191970" points="183.9319,-16.2135 193.4808,-11.6234 183.1536,-9.2569 183.9319,-16.2135"/>
</g>
<!-- Node2 -->
<g id="node3" class="node">
<title>Node2</title>
<polygon fill="#ffffff" stroke="#bfbfbf" points="689.5,-308 689.5,-327 772.5,-327 772.5,-308 689.5,-308"/>
<text text-anchor="middle" x="731" y="-315" font-family="Helvetica,sans-Serif" font-size="10.00" fill="#000000">unordered_map</text>
</g>
<!-- Node0&#45;&gt;Node2 -->
<g id="edge2" class="edge">
<title>Node0&#45;&gt;Node2</title>
<path fill="none" stroke="#191970" d="M731,-425.4178C731,-403.2662 731,-361.9061 731,-337.3234"/>
<polygon fill="#191970" stroke="#191970" points="734.5001,-337.0492 731,-327.0493 727.5001,-337.0493 734.5001,-337.0492"/>
</g>
<!-- Node3 -->
<g id="node4" class="node">
<title>Node3</title>
<g id="a_node4"><a xlink:href="core_2param_2param_8h.html" target="_top" xlink:title="core/param/param.h">
<polygon fill="#ffffff" stroke="#000000" points="1203,-369.5 1203,-388.5 1307,-388.5 1307,-369.5 1203,-369.5"/>
<text text-anchor="middle" x="1255" y="-376.5" font-family="Helvetica,sans-Serif" font-size="10.00" fill="#000000">core/param/param.h</text>
</a>
</g>
</g>
<!-- Node0&#45;&gt;Node3 -->
<g id="edge3" class="edge">
<title>Node0&#45;&gt;Node3</title>
<path fill="none" stroke="#191970" d="M793.6862,-433.1427C894.6687,-421.2908 1092.1916,-398.1082 1192.8386,-386.2957"/>
<polygon fill="#191970" stroke="#191970" points="1193.3338,-389.7617 1202.8577,-385.1198 1192.5178,-382.8094 1193.3338,-389.7617"/>
</g>
<!-- Node12 -->
<g id="node13" class="node">
<title>Node12</title>
<g id="a_node13"><a xlink:href="log_8h.html" target="_top" xlink:title="core/util/log.h">
<polygon fill="#ffffff" stroke="#000000" points="351.5,-118 351.5,-137 426.5,-137 426.5,-118 351.5,-118"/>
<text text-anchor="middle" x="389" y="-125" font-family="Helvetica,sans-Serif" font-size="10.00" fill="#000000">core/util/log.h</text>
</a>
</g>
</g>
<!-- Node0&#45;&gt;Node12 -->
<g id="edge74" class="edge">
<title>Node0&#45;&gt;Node12</title>
<path fill="none" stroke="#191970" d="M668.0332,-436.8583C546.0662,-428.3015 285.0706,-402.1475 234,-333 180.8099,-260.9828 305.8061,-175.8251 362.6673,-142.2028"/>
<polygon fill="#191970" stroke="#191970" points="364.5996,-145.128 371.4877,-137.0779 361.0829,-139.0755 364.5996,-145.128"/>
</g>
<!-- Node33 -->
<g id="node34" class="node">
<title>Node33</title>
<g id="a_node34"><a xlink:href="simulation_8h.html" target="_top" xlink:title="core/simulation.h">
<polygon fill="#ffffff" stroke="#000000" points="424.5,-369.5 424.5,-388.5 515.5,-388.5 515.5,-369.5 424.5,-369.5"/>
<text text-anchor="middle" x="470" y="-376.5" font-family="Helvetica,sans-Serif" font-size="10.00" fill="#000000">core/simulation.h</text>
</a>
</g>
</g>
<!-- Node0&#45;&gt;Node33 -->
<g id="edge43" class="edge">
<title>Node0&#45;&gt;Node33</title>
<path fill="none" stroke="#191970" d="M668.484,-425.7692C623.1086,-415.0773 562.5193,-400.8005 520.267,-390.8445"/>
<polygon fill="#191970" stroke="#191970" points="521.0121,-387.4243 510.4759,-388.5374 519.4066,-394.2377 521.0121,-387.4243"/>
</g>
<!-- Node51 -->
<g id="node47" class="node">
<title>Node51</title>
<g id="a_node47"><a xlink:href="visualization__adaptor_8h.html" target="_top" xlink:title="core/visualization\l/visualization_adaptor.h">
<polygon fill="#ffffff" stroke="#000000" points="28.5,-112.5 28.5,-142.5 147.5,-142.5 147.5,-112.5 28.5,-112.5"/>
<text text-anchor="start" x="36.5" y="-130.5" font-family="Helvetica,sans-Serif" font-size="10.00" fill="#000000">core/visualization</text>
<text text-anchor="middle" x="88" y="-119.5" font-family="Helvetica,sans-Serif" font-size="10.00" fill="#000000">/visualization_adaptor.h</text>
</a>
</g>
</g>
<!-- Node0&#45;&gt;Node51 -->
<g id="edge75" class="edge">
<title>Node0&#45;&gt;Node51</title>
<path fill="none" stroke="#191970" d="M668.3331,-438.1192C581.0889,-433.7158 418.5826,-421.5519 284,-389 196.303,-367.7885 94,-407.7258 94,-317.5 94,-317.5 94,-317.5 94,-250.5 94,-216.605 91.6989,-177.5185 89.9467,-152.6701"/>
<polygon fill="#191970" stroke="#191970" points="93.4332,-152.3556 89.2142,-142.6371 86.4518,-152.8654 93.4332,-152.3556"/>
</g>
<!-- Node52 -->
<g id="node48" class="node">
<title>Node52</title>
<polygon fill="#ffffff" stroke="#bfbfbf" points="1325.5,-369.5 1325.5,-388.5 1400.5,-388.5 1400.5,-369.5 1325.5,-369.5"/>
<text text-anchor="middle" x="1363" y="-376.5" font-family="Helvetica,sans-Serif" font-size="10.00" fill="#000000">TInterpreter.h</text>
</g>
<!-- Node0&#45;&gt;Node52 -->
<g id="edge77" class="edge">
<title>Node0&#45;&gt;Node52</title>
<path fill="none" stroke="#191970" d="M793.6315,-437.4957C899.2245,-431.8805 1119.475,-417.804 1315.4592,-388.9058"/>
<polygon fill="#191970" stroke="#191970" points="1315.9888,-392.3656 1325.3635,-387.4296 1314.9568,-385.4421 1315.9888,-392.3656"/>
</g>
<!-- Node53 -->
<g id="node49" class="node">
<title>Node53</title>
<polygon fill="#ffffff" stroke="#bfbfbf" points="1418.5,-369.5 1418.5,-388.5 1513.5,-388.5 1513.5,-369.5 1418.5,-369.5"/>
<text text-anchor="middle" x="1466" y="-376.5" font-family="Helvetica,sans-Serif" font-size="10.00" fill="#000000">TPluginManager.h</text>
</g>
<!-- Node0&#45;&gt;Node53 -->
<g id="edge78" class="edge">
<title>Node0&#45;&gt;Node53</title>
<path fill="none" stroke="#191970" d="M793.9337,-437.8533C912.3691,-432.4086 1176.6144,-418.059 1408.4231,-389.0961"/>
<polygon fill="#191970" stroke="#191970" points="1408.9078,-392.5628 1418.3913,-387.839 1408.0319,-385.6178 1408.9078,-392.5628"/>
</g>
<!-- Node54 -->
<g id="node50" class="node">
<title>Node54</title>
<polygon fill="#ffffff" stroke="#bfbfbf" points="1531.5,-369.5 1531.5,-388.5 1590.5,-388.5 1590.5,-369.5 1531.5,-369.5"/>
<text text-anchor="middle" x="1561" y="-376.5" font-family="Helvetica,sans-Serif" font-size="10.00" fill="#000000">TROOT.h</text>
</g>
<!-- Node0&#45;&gt;Node54 -->
<g id="edge79" class="edge">
<title>Node0&#45;&gt;Node54</title>
<path fill="none" stroke="#191970" d="M793.51,-437.9917C951.4549,-431.4098 1364.5657,-412.6143 1521.2982,-388.973"/>
<polygon fill="#191970" stroke="#191970" points="1521.9107,-392.4198 1531.2457,-387.4089 1520.8234,-385.5048 1521.9107,-392.4198"/>
</g>
<!-- Node3&#45;&gt;Node1 -->
<g id="edge8" class="edge">
<title>Node3&#45;&gt;Node1</title>
<path fill="none" stroke="#191970" d="M1217.9257,-369.4091C1080.4876,-333.7873 607.3883,-210.5425 596,-199 549.8927,-152.2684 608.1344,-99.5378 559,-56 535.6276,-35.2898 325.0447,-18.0321 244.8344,-12.1553"/>
<polygon fill="#191970" stroke="#191970" points="245.0741,-8.6635 234.8477,-11.4332 244.5692,-15.6453 245.0741,-8.6635"/>
</g>
<!-- Node3&#45;&gt;Node2 -->
<g id="edge9" class="edge">
<title>Node3&#45;&gt;Node2</title>
<path fill="none" stroke="#191970" d="M1202.998,-376.8123C1116.1792,-372.5087 936.4906,-360.8211 787,-333 781.9839,-332.0665 776.764,-330.8968 771.6166,-329.6207"/>
<polygon fill="#191970" stroke="#191970" points="772.4404,-326.2185 761.8798,-327.0697 770.6662,-332.99 772.4404,-326.2185"/>
</g>
<!-- Node4 -->
<g id="node5" class="node">
<title>Node4</title>
<polygon fill="#ffffff" stroke="#bfbfbf" points="1352,-308 1352,-327 1408,-327 1408,-308 1352,-308"/>
<text text-anchor="middle" x="1380" y="-315" font-family="Helvetica,sans-Serif" font-size="10.00" fill="#000000">cinttypes</text>
</g>
<!-- Node3&#45;&gt;Node4 -->
<g id="edge4" class="edge">
<title>Node3&#45;&gt;Node4</title>
<path fill="none" stroke="#191970" d="M1274.5313,-369.3906C1295.1708,-359.2359 1327.9276,-343.1196 1351.4602,-331.5416"/>
<polygon fill="#191970" stroke="#191970" points="1353.1782,-334.5971 1360.6059,-327.0419 1350.088,-328.3161 1353.1782,-334.5971"/>
</g>
<!-- Node5 -->
<g id="node6" class="node">
<title>Node5</title>
<polygon fill="#ffffff" stroke="#bfbfbf" points="1426.5,-308 1426.5,-327 1461.5,-327 1461.5,-308 1426.5,-308"/>
<text text-anchor="middle" x="1444" y="-315" font-family="Helvetica,sans-Serif" font-size="10.00" fill="#000000">map</text>
</g>
<!-- Node3&#45;&gt;Node5 -->
<g id="edge5" class="edge">
<title>Node3&#45;&gt;Node5</title>
<path fill="none" stroke="#191970" d="M1299.6556,-369.4341C1332.762,-361.602 1378.6085,-349.1821 1417,-333 1417.9961,-332.5801 1419.0014,-332.1313 1420.0083,-331.6605"/>
<polygon fill="#191970" stroke="#191970" points="1421.6594,-334.7469 1428.9121,-327.0236 1418.4261,-328.5383 1421.6594,-334.7469"/>
</g>
<!-- Node6 -->
<g id="node7" class="node">
<title>Node6</title>
<polygon fill="#ffffff" stroke="#bfbfbf" points="1606,-241 1606,-260 1658,-260 1658,-241 1606,-241"/>
<text text-anchor="middle" x="1632" y="-248" font-family="Helvetica,sans-Serif" font-size="10.00" fill="#000000">memory</text>
</g>
<!-- Node3&#45;&gt;Node6 -->
<g id="edge6" class="edge">
<title>Node3&#45;&gt;Node6</title>
<path fill="none" stroke="#191970" d="M1305.7372,-369.4974C1364.8099,-358.2299 1456.2201,-340.086 1471,-333 1490.6538,-323.5772 1490.31,-313.2137 1509,-302 1517.1306,-297.1218 1565.2283,-277.3959 1598.8091,-263.8238"/>
<polygon fill="#191970" stroke="#191970" points="1600.3122,-266.9915 1608.2768,-260.0047 1597.6936,-260.4998 1600.3122,-266.9915"/>
</g>
<!-- Node7 -->
<g id="node8" class="node">
<title>Node7</title>
<polygon fill="#ffffff" stroke="#bfbfbf" points="1714,-308 1714,-327 1744,-327 1744,-308 1714,-308"/>
<text text-anchor="middle" x="1729" y="-315" font-family="Helvetica,sans-Serif" font-size="10.00" fill="#000000">set</text>
</g>
<!-- Node3&#45;&gt;Node7 -->
<g id="edge7" class="edge">
<title>Node3&#45;&gt;Node7</title>
<path fill="none" stroke="#191970" d="M1307.059,-370.347C1310.4198,-369.8678 1313.7554,-369.4137 1317,-369 1486.5995,-347.376 1536.2788,-382.2643 1700,-333 1701.4692,-332.5579 1702.9495,-332.0378 1704.4224,-331.461"/>
<polygon fill="#191970" stroke="#191970" points="1706.264,-334.4636 1713.8389,-327.0561 1703.2979,-328.123 1706.264,-334.4636"/>
</g>
<!-- Node8 -->
<g id="node9" class="node">
<title>Node8</title>
<polygon fill="#ffffff" stroke="#bfbfbf" points="1042,-.5 1042,-19.5 1086,-19.5 1086,-.5 1042,-.5"/>
<text text-anchor="middle" x="1064" y="-7.5" font-family="Helvetica,sans-Serif" font-size="10.00" fill="#000000">vector</text>
</g>
<!-- Node3&#45;&gt;Node8 -->
<g id="edge10" class="edge">
<title>Node3&#45;&gt;Node8</title>
<path fill="none" stroke="#191970" d="M1307.0634,-370.3803C1310.423,-369.8929 1313.7572,-369.4279 1317,-369 1394.5161,-358.7707 1608.3969,-384.7596 1667,-333 1695.2016,-308.0917 1686,-288.1265 1686,-250.5 1686,-250.5 1686,-250.5 1686,-127.5 1686,-90.4182 1674.6585,-75.308 1643,-56 1539.3763,7.1983 1217.4999,-41.2525 1098,-20 1097.3942,-19.8923 1096.7839,-19.7777 1096.1703,-19.657"/>
<polygon fill="#191970" stroke="#191970" points="1096.6835,-16.1815 1086.1451,-17.274 1095.0646,-22.9918 1096.6835,-16.1815"/>
</g>
<!-- Node9 -->
<g id="node10" class="node">
<title>Node9</title>
<g id="a_node10"><a xlink:href="module__param_8h.html" target="_top" xlink:title="core/param/module_param.h">
<polygon fill="#ffffff" stroke="#000000" points="1518,-308 1518,-327 1658,-327 1658,-308 1518,-308"/>
<text text-anchor="middle" x="1588" y="-315" font-family="Helvetica,sans-Serif" font-size="10.00" fill="#000000">core/param/module_param.h</text>
</a>
</g>
</g>
<!-- Node3&#45;&gt;Node9 -->
<g id="edge11" class="edge">
<title>Node3&#45;&gt;Node9</title>
<path fill="none" stroke="#191970" d="M1306.6659,-369.4581C1366.0574,-358.4894 1463.4568,-340.5012 1526.6496,-328.8305"/>
<polygon fill="#191970" stroke="#191970" points="1527.2889,-332.2717 1536.4869,-327.0137 1526.0175,-325.3881 1527.2889,-332.2717"/>
</g>
<!-- Node10 -->
<g id="node11" class="node">
<title>Node10</title>
<g id="a_node11"><a xlink:href="root_8h.html" target="_top" xlink:title="core/util/root.h">
<polygon fill="#ffffff" stroke="#000000" points="431.5,-179.5 431.5,-198.5 510.5,-198.5 510.5,-179.5 431.5,-179.5"/>
<text text-anchor="middle" x="471" y="-186.5" font-family="Helvetica,sans-Serif" font-size="10.00" fill="#000000">core/util/root.h</text>
</a>
</g>
</g>
<!-- Node3&#45;&gt;Node10 -->
<g id="edge27" class="edge">
<title>Node3&#45;&gt;Node10</title>
<path fill="none" stroke="#191970" d="M1202.755,-376.757C1103.793,-371.9612 892.8378,-358.9693 825,-333 802.9974,-324.5771 801.1824,-315.6783 782,-302 739.933,-272.0034 734.3424,-255.6913 687,-235 632.8953,-211.3531 565.7175,-199.5099 520.7758,-193.8264"/>
<polygon fill="#191970" stroke="#191970" points="521.0429,-190.3333 510.6951,-192.6077 520.2027,-197.2827 521.0429,-190.3333"/>
</g>
<!-- Node20 -->
<g id="node21" class="node">
<title>Node20</title>
<polygon fill="#ffffff" stroke="#bfbfbf" points="1719.5,-241 1719.5,-260 1816.5,-260 1816.5,-241 1719.5,-241"/>
<text text-anchor="middle" x="1768" y="-248" font-family="Helvetica,sans-Serif" font-size="10.00" fill="#000000">cpptoml/cpptoml.h</text>
</g>
<!-- Node3&#45;&gt;Node20 -->
<g id="edge42" class="edge">
<title>Node3&#45;&gt;Node20</title>
<path fill="none" stroke="#191970" d="M1307.0537,-370.304C1310.4157,-369.8353 1313.7531,-369.3953 1317,-369 1365.253,-363.1255 1716.9944,-365.6567 1753,-333 1770.2168,-317.3846 1771.7926,-289.1561 1770.5405,-270.1219"/>
<polygon fill="#191970" stroke="#191970" points="1774.0217,-269.758 1769.5733,-260.1422 1767.0543,-270.4332 1774.0217,-269.758"/>
</g>
<!-- Node21 -->
<g id="node22" class="node">
<title>Node21</title>
<g id="a_node22"><a xlink:href="type_8h.html" target="_top" xlink:title="core/util/type.h">
<polygon fill="#ffffff" stroke="#000000" points="1214.5,-308 1214.5,-327 1295.5,-327 1295.5,-308 1214.5,-308"/>
<text text-anchor="middle" x="1255" y="-315" font-family="Helvetica,sans-Serif" font-size="10.00" fill="#000000">core/util/type.h</text>
</a>
</g>
</g>
<!-- Node3&#45;&gt;Node21 -->
<g id="edge28" class="edge">
<title>Node3&#45;&gt;Node21</title>
<path fill="none" stroke="#191970" d="M1255,-369.3906C1255,-360.8657 1255,-348.1392 1255,-337.4235"/>
<polygon fill="#191970" stroke="#191970" points="1258.5001,-337.2448 1255,-327.2449 1251.5001,-337.2449 1258.5001,-337.2448"/>
</g>
<!-- Node9&#45;&gt;Node6 -->
<g id="edge12" class="edge">
<title>Node9&#45;&gt;Node6</title>
<path fill="none" stroke="#191970" d="M1594.3041,-307.9005C1601.0349,-297.6515 1611.8554,-281.1747 1620.1807,-268.4976"/>
<polygon fill="#191970" stroke="#191970" points="1623.1438,-270.3616 1625.7076,-260.0817 1617.2927,-266.5191 1623.1438,-270.3616"/>
</g>
<!-- Node9&#45;&gt;Node10 -->
<g id="edge13" class="edge">
<title>Node9&#45;&gt;Node10</title>
<path fill="none" stroke="#191970" d="M1522.8112,-307.9883C1505.9621,-305.7705 1487.8289,-303.5941 1471,-302 1192.2348,-275.5944 1118.742,-308.6755 842,-266 786.7083,-257.4736 774.6482,-246.9771 720,-235 651.303,-219.9439 571.2262,-205.7414 520.82,-197.2055"/>
<polygon fill="#191970" stroke="#191970" points="521.2805,-193.7338 510.8379,-195.5235 520.1173,-200.6365 521.2805,-193.7338"/>
</g>
<!-- Node9&#45;&gt;Node20 -->
<g id="edge26" class="edge">
<title>Node9&#45;&gt;Node20</title>
<path fill="none" stroke="#191970" d="M1613.7896,-307.9005C1644.9333,-296.3082 1697.4815,-276.7486 1732.4531,-263.7313"/>
<polygon fill="#191970" stroke="#191970" points="1734.1074,-266.8503 1742.2582,-260.0817 1731.6654,-260.29 1734.1074,-266.8503"/>
</g>
<!-- Node11 -->
<g id="node12" class="node">
<title>Node11</title>
<polygon fill="#ffffff" stroke="#bfbfbf" points="444,-118 444,-137 500,-137 500,-118 444,-118"/>
<text text-anchor="middle" x="472" y="-125" font-family="Helvetica,sans-Serif" font-size="10.00" fill="#000000">TClass.h</text>
</g>
<!-- Node10&#45;&gt;Node11 -->
<g id="edge14" class="edge">
<title>Node10&#45;&gt;Node11</title>
<path fill="none" stroke="#191970" d="M471.1563,-179.3906C471.2949,-170.8657 471.5018,-158.1392 471.676,-147.4235"/>
<polygon fill="#191970" stroke="#191970" points="475.1784,-147.3005 471.8415,-137.2449 468.1793,-147.1866 475.1784,-147.3005"/>
</g>
<!-- Node10&#45;&gt;Node12 -->
<g id="edge15" class="edge">
<title>Node10&#45;&gt;Node12</title>
<path fill="none" stroke="#191970" d="M458.1875,-179.3906C445.3099,-169.7324 425.2416,-154.6812 410.028,-143.271"/>
<polygon fill="#191970" stroke="#191970" points="411.8226,-140.2419 401.7225,-137.0419 407.6225,-145.8419 411.8226,-140.2419"/>
</g>
<!-- Node12&#45;&gt;Node1 -->
<g id="edge21" class="edge">
<title>Node12&#45;&gt;Node1</title>
<path fill="none" stroke="#191970" d="M367.8214,-117.8809C347.6546,-108.3503 316.7874,-92.7828 292,-76 269.9393,-61.0634 246.9171,-40.9365 231.6545,-26.8502"/>
<polygon fill="#191970" stroke="#191970" points="233.723,-23.9925 224.029,-19.7173 228.9411,-29.1046 233.723,-23.9925"/>
</g>
<!-- Node13 -->
<g id="node14" class="node">
<title>Node13</title>
<polygon fill="#ffffff" stroke="#bfbfbf" points="436,-56.5 436,-75.5 488,-75.5 488,-56.5 436,-56.5"/>
<text text-anchor="middle" x="462" y="-63.5" font-family="Helvetica,sans-Serif" font-size="10.00" fill="#000000">TError.h</text>
</g>
<!-- Node12&#45;&gt;Node13 -->
<g id="edge16" class="edge">
<title>Node12&#45;&gt;Node13</title>
<path fill="none" stroke="#191970" d="M400.4063,-117.8906C411.6969,-108.3786 429.1967,-93.6357 442.6619,-82.2917"/>
<polygon fill="#191970" stroke="#191970" points="445.0402,-84.8646 450.4329,-75.7449 440.5301,-79.5111 445.0402,-84.8646"/>
</g>
<!-- Node14 -->
<g id="node15" class="node">
<title>Node14</title>
<polygon fill="#ffffff" stroke="#bfbfbf" points="506.5,-56.5 506.5,-75.5 549.5,-75.5 549.5,-56.5 506.5,-56.5"/>
<text text-anchor="middle" x="528" y="-63.5" font-family="Helvetica,sans-Serif" font-size="10.00" fill="#000000">cstdio</text>
</g>
<!-- Node12&#45;&gt;Node14 -->
<g id="edge17" class="edge">
<title>Node12&#45;&gt;Node14</title>
<path fill="none" stroke="#191970" d="M410.7188,-117.8906C433.874,-107.6457 470.7441,-91.3326 496.9591,-79.7339"/>
<polygon fill="#191970" stroke="#191970" points="498.705,-82.7888 506.4338,-75.5419 495.8727,-76.3874 498.705,-82.7888"/>
</g>
<!-- Node15 -->
<g id="node16" class="node">
<title>Node15</title>
<polygon fill="#ffffff" stroke="#bfbfbf" points="300.5,-56.5 300.5,-75.5 345.5,-75.5 345.5,-56.5 300.5,-56.5"/>
<text text-anchor="middle" x="323" y="-63.5" font-family="Helvetica,sans-Serif" font-size="10.00" fill="#000000">cstdlib</text>
</g>
<!-- Node12&#45;&gt;Node15 -->
<g id="edge18" class="edge">
<title>Node12&#45;&gt;Node15</title>
<path fill="none" stroke="#191970" d="M378.6875,-117.8906C368.5758,-108.4683 352.9558,-93.9134 340.8293,-82.6137"/>
<polygon fill="#191970" stroke="#191970" points="343.1601,-80.0015 333.4579,-75.7449 338.388,-85.1228 343.1601,-80.0015"/>
</g>
<!-- Node16 -->
<g id="node17" class="node">
<title>Node16</title>
<polygon fill="#ffffff" stroke="#bfbfbf" points="184.5,-56.5 184.5,-75.5 243.5,-75.5 243.5,-56.5 184.5,-56.5"/>
<text text-anchor="middle" x="214" y="-63.5" font-family="Helvetica,sans-Serif" font-size="10.00" fill="#000000">functional</text>
</g>
<!-- Node12&#45;&gt;Node16 -->
<g id="edge19" class="edge">
<title>Node12&#45;&gt;Node16</title>
<path fill="none" stroke="#191970" d="M361.6563,-117.8906C331.8618,-107.42 284.0315,-90.6111 250.9192,-78.9745"/>
<polygon fill="#191970" stroke="#191970" points="251.7466,-75.5554 241.1517,-75.5419 249.4257,-82.1595 251.7466,-75.5554"/>
</g>
<!-- Node17 -->
<g id="node18" class="node">
<title>Node17</title>
<polygon fill="#ffffff" stroke="#bfbfbf" points="364,-56.5 364,-75.5 418,-75.5 418,-56.5 364,-56.5"/>
<text text-anchor="middle" x="391" y="-63.5" font-family="Helvetica,sans-Serif" font-size="10.00" fill="#000000">iostream</text>
</g>
<!-- Node12&#45;&gt;Node17 -->
<g id="edge20" class="edge">
<title>Node12&#45;&gt;Node17</title>
<path fill="none" stroke="#191970" d="M389.3125,-117.8906C389.5897,-109.3657 390.0036,-96.6392 390.3521,-85.9235"/>
<polygon fill="#191970" stroke="#191970" points="393.8561,-85.8534 390.6831,-75.7449 386.8598,-85.6258 393.8561,-85.8534"/>
</g>
<!-- Node18 -->
<g id="node19" class="node">
<title>Node18</title>
<g id="a_node19"><a xlink:href="string_8h.html" target="_top" xlink:title="core/util/string.h">
<polygon fill="#ffffff" stroke="#000000" points="1090,-56.5 1090,-75.5 1176,-75.5 1176,-56.5 1090,-56.5"/>
<text text-anchor="middle" x="1133" y="-63.5" font-family="Helvetica,sans-Serif" font-size="10.00" fill="#000000">core/util/string.h</text>
</a>
</g>
</g>
<!-- Node12&#45;&gt;Node18 -->
<g id="edge22" class="edge">
<title>Node12&#45;&gt;Node18</title>
<path fill="none" stroke="#191970" d="M413.5086,-117.9341C420.3664,-115.6182 427.8905,-113.4072 435,-112 558.3424,-87.5864 938.8208,-72.5715 1079.764,-67.7235"/>
<polygon fill="#191970" stroke="#191970" points="1080.0125,-71.2172 1089.8875,-67.3786 1079.7741,-64.2212 1080.0125,-71.2172"/>
</g>
<!-- Node18&#45;&gt;Node1 -->
<g id="edge24" class="edge">
<title>Node18&#45;&gt;Node1</title>
<path fill="none" stroke="#191970" d="M1089.9073,-63.3741C931.1473,-53.6999 381.061,-20.18 244.745,-11.8735"/>
<polygon fill="#191970" stroke="#191970" points="244.7909,-8.3699 234.5965,-11.2551 244.3651,-15.3569 244.7909,-8.3699"/>
</g>
<!-- Node18&#45;&gt;Node8 -->
<g id="edge25" class="edge">
<title>Node18&#45;&gt;Node8</title>
<path fill="none" stroke="#191970" d="M1120.9811,-56.2455C1110.7902,-47.9746 1095.9638,-35.9416 1083.9893,-26.2232"/>
<polygon fill="#191970" stroke="#191970" points="1085.8514,-23.2268 1075.8812,-19.6427 1081.4402,-28.662 1085.8514,-23.2268"/>
</g>
<!-- Node19 -->
<g id="node20" class="node">
<title>Node19</title>
<polygon fill="#ffffff" stroke="#bfbfbf" points="1107,-.5 1107,-19.5 1159,-19.5 1159,-.5 1107,-.5"/>
<text text-anchor="middle" x="1133" y="-7.5" font-family="Helvetica,sans-Serif" font-size="10.00" fill="#000000">sstream</text>
</g>
<!-- Node18&#45;&gt;Node19 -->
<g id="edge23" class="edge">
<title>Node18&#45;&gt;Node19</title>
<path fill="none" stroke="#191970" d="M1133,-56.2455C1133,-48.9382 1133,-38.6944 1133,-29.7046"/>
<polygon fill="#191970" stroke="#191970" points="1136.5001,-29.6426 1133,-19.6427 1129.5001,-29.6427 1136.5001,-29.6426"/>
</g>
<!-- Node21&#45;&gt;Node18 -->
<g id="edge41" class="edge">
<title>Node21&#45;&gt;Node18</title>
<path fill="none" stroke="#191970" d="M1239.3495,-307.887C1225.9381,-298.7927 1207.2163,-283.8917 1197,-266 1177.464,-231.7868 1191.4005,-216.7124 1180,-179 1169.703,-144.9381 1152.7635,-107.0809 1142.2795,-84.9722"/>
<polygon fill="#191970" stroke="#191970" points="1145.3237,-83.2264 1137.8362,-75.7306 1139.015,-86.2597 1145.3237,-83.2264"/>
</g>
<!-- Node22 -->
<g id="node23" class="node">
<title>Node22</title>
<polygon fill="#ffffff" stroke="#bfbfbf" points="1418,-241 1418,-260 1480,-260 1480,-241 1418,-241"/>
<text text-anchor="middle" x="1449" y="-248" font-family="Helvetica,sans-Serif" font-size="10.00" fill="#000000">type_traits</text>
</g>
<!-- Node21&#45;&gt;Node22 -->
<g id="edge29" class="edge">
<title>Node21&#45;&gt;Node22</title>
<path fill="none" stroke="#191970" d="M1284.9539,-307.9437C1316.0915,-297.9022 1366.1721,-281.4494 1409,-266 1411.1061,-265.2403 1413.2691,-264.4452 1415.4467,-263.6336"/>
<polygon fill="#191970" stroke="#191970" points="1416.8462,-266.8462 1424.9554,-260.0277 1414.3641,-260.301 1416.8462,-266.8462"/>
</g>
<!-- Node23 -->
<g id="node24" class="node">
<title>Node23</title>
<polygon fill="#ffffff" stroke="#bfbfbf" points="1498.5,-241 1498.5,-260 1549.5,-260 1549.5,-241 1498.5,-241"/>
<text text-anchor="middle" x="1524" y="-248" font-family="Helvetica,sans-Serif" font-size="10.00" fill="#000000">typeinfo</text>
</g>
<!-- Node21&#45;&gt;Node23 -->
<g id="edge30" class="edge">
<title>Node21&#45;&gt;Node23</title>
<path fill="none" stroke="#191970" d="M1287.1739,-307.9893C1294.6393,-305.906 1302.574,-303.7904 1310,-302 1388.8881,-282.9803 1411.6624,-290.576 1489,-266 1490.9,-265.3962 1492.8354,-264.7211 1494.7718,-263.9996"/>
<polygon fill="#191970" stroke="#191970" points="1496.3586,-267.1326 1504.3022,-260.122 1493.7205,-260.6488 1496.3586,-267.1326"/>
</g>
<!-- Node24 -->
<g id="node25" class="node">
<title>Node24</title>
<g id="a_node25"><a xlink:href="math__array_8h.html" target="_top" xlink:title="core/container/math\l_array.h">
<polygon fill="#ffffff" stroke="#000000" points="1205.5,-235.5 1205.5,-265.5 1308.5,-265.5 1308.5,-235.5 1205.5,-235.5"/>
<text text-anchor="start" x="1213.5" y="-253.5" font-family="Helvetica,sans-Serif" font-size="10.00" fill="#000000">core/container/math</text>
<text text-anchor="middle" x="1257" y="-242.5" font-family="Helvetica,sans-Serif" font-size="10.00" fill="#000000">_array.h</text>
</a>
</g>
</g>
<!-- Node21&#45;&gt;Node24 -->
<g id="edge31" class="edge">
<title>Node21&#45;&gt;Node24</title>
<path fill="none" stroke="#191970" d="M1255.2866,-307.9005C1255.537,-299.5099 1255.9121,-286.9451 1256.2475,-275.7085"/>
<polygon fill="#191970" stroke="#191970" points="1259.7516,-275.6218 1256.5516,-265.5218 1252.7547,-275.4128 1259.7516,-275.6218"/>
</g>
<!-- Node32 -->
<g id="node33" class="node">
<title>Node32</title>
<g id="a_node33"><a xlink:href="shape_8h.html" target="_top" xlink:title="core/shape.h">
<polygon fill="#ffffff" stroke="#000000" points="1326.5,-241 1326.5,-260 1399.5,-260 1399.5,-241 1326.5,-241"/>
<text text-anchor="middle" x="1363" y="-248" font-family="Helvetica,sans-Serif" font-size="10.00" fill="#000000">core/shape.h</text>
</a>
</g>
</g>
<!-- Node21&#45;&gt;Node32 -->
<g id="edge40" class="edge">
<title>Node21&#45;&gt;Node32</title>
<path fill="none" stroke="#191970" d="M1270.4738,-307.9005C1288.358,-296.8057 1318.0062,-278.4128 1338.9138,-265.4424"/>
<polygon fill="#191970" stroke="#191970" points="1340.9024,-268.3275 1347.5549,-260.0817 1337.2122,-262.3792 1340.9024,-268.3275"/>
</g>
<!-- Node24&#45;&gt;Node10 -->
<g id="edge39" class="edge">
<title>Node24&#45;&gt;Node10</title>
<path fill="none" stroke="#191970" d="M1205.1507,-246.4971C1093.6793,-237.8831 822.9134,-216.9162 596,-199 571.2507,-197.0459 543.7474,-194.8484 520.8545,-193.0122"/>
<polygon fill="#191970" stroke="#191970" points="520.935,-189.5075 510.687,-192.1961 520.3749,-196.485 520.935,-189.5075"/>
</g>
<!-- Node25 -->
<g id="node26" class="node">
<title>Node25</title>
<polygon fill="#ffffff" stroke="#bfbfbf" points="1305,-179.5 1305,-198.5 1361,-198.5 1361,-179.5 1305,-179.5"/>
<text text-anchor="middle" x="1333" y="-186.5" font-family="Helvetica,sans-Serif" font-size="10.00" fill="#000000">algorithm</text>
</g>
<!-- Node24&#45;&gt;Node25 -->
<g id="edge32" class="edge">
<title>Node24&#45;&gt;Node25</title>
<path fill="none" stroke="#191970" d="M1275.7865,-235.2977C1287.1053,-226.1384 1301.5105,-214.4816 1313.0346,-205.1562"/>
<polygon fill="#191970" stroke="#191970" points="1315.2595,-207.8583 1320.8314,-198.8469 1310.8561,-202.4167 1315.2595,-207.8583"/>
</g>
<!-- Node26 -->
<g id="node27" class="node">
<title>Node26</title>
<polygon fill="#ffffff" stroke="#bfbfbf" points="984.5,-118 984.5,-137 1033.5,-137 1033.5,-118 984.5,-118"/>
<text text-anchor="middle" x="1009" y="-125" font-family="Helvetica,sans-Serif" font-size="10.00" fill="#000000">cassert</text>
</g>
<!-- Node24&#45;&gt;Node26 -->
<g id="edge33" class="edge">
<title>Node24&#45;&gt;Node26</title>
<path fill="none" stroke="#191970" d="M1205.2882,-243.6454C1149.3233,-235.3059 1064.7462,-219.7318 1040,-199 1024.4952,-186.0105 1016.5273,-163.8081 1012.5812,-147.5831"/>
<polygon fill="#191970" stroke="#191970" points="1015.9408,-146.5523 1010.4487,-137.4921 1009.0921,-147.9997 1015.9408,-146.5523"/>
</g>
<!-- Node27 -->
<g id="node28" class="node">
<title>Node27</title>
<polygon fill="#ffffff" stroke="#bfbfbf" points="1379,-179.5 1379,-198.5 1423,-198.5 1423,-179.5 1379,-179.5"/>
<text text-anchor="middle" x="1401" y="-186.5" font-family="Helvetica,sans-Serif" font-size="10.00" fill="#000000">cmath</text>
</g>
<!-- Node24&#45;&gt;Node27 -->
<g id="edge34" class="edge">
<title>Node24&#45;&gt;Node27</title>
<path fill="none" stroke="#191970" d="M1292.2264,-235.4554C1315.8316,-225.374 1346.6454,-212.2139 1369.4476,-202.4755"/>
<polygon fill="#191970" stroke="#191970" points="1370.8634,-205.6767 1378.6851,-198.5303 1368.114,-199.2393 1370.8634,-205.6767"/>
</g>
<!-- Node28 -->
<g id="node29" class="node">
<title>Node28</title>
<polygon fill="#ffffff" stroke="#bfbfbf" points="1441.5,-179.5 1441.5,-198.5 1492.5,-198.5 1492.5,-179.5 1441.5,-179.5"/>
<text text-anchor="middle" x="1467" y="-186.5" font-family="Helvetica,sans-Serif" font-size="10.00" fill="#000000">numeric</text>
</g>
<!-- Node24&#45;&gt;Node28 -->
<g id="edge35" class="edge">
<title>Node24&#45;&gt;Node28</title>
<path fill="none" stroke="#191970" d="M1308.3718,-235.4554C1346.5565,-224.2727 1397.6759,-209.3021 1431.4364,-199.4151"/>
<polygon fill="#191970" stroke="#191970" points="1432.7097,-202.6892 1441.3229,-196.5197 1430.7423,-195.9714 1432.7097,-202.6892"/>
</g>
<!-- Node29 -->
<g id="node30" class="node">
<title>Node29</title>
<polygon fill="#ffffff" stroke="#bfbfbf" points="1511,-179.5 1511,-198.5 1563,-198.5 1563,-179.5 1511,-179.5"/>
<text text-anchor="middle" x="1537" y="-186.5" font-family="Helvetica,sans-Serif" font-size="10.00" fill="#000000">ostream</text>
</g>
<!-- Node24&#45;&gt;Node29 -->
<g id="edge36" class="edge">
<title>Node24&#45;&gt;Node29</title>
<path fill="none" stroke="#191970" d="M1308.5363,-237.1903C1311.7343,-236.4309 1314.9083,-235.6947 1318,-235 1396.1254,-217.4458 1419.1923,-218.3589 1500.4807,-199.2135"/>
<polygon fill="#191970" stroke="#191970" points="1501.776,-202.5027 1510.6902,-196.7767 1500.1508,-195.694 1501.776,-202.5027"/>
</g>
<!-- Node30 -->
<g id="node31" class="node">
<title>Node30</title>
<polygon fill="#ffffff" stroke="#bfbfbf" points="1227.5,-179.5 1227.5,-198.5 1286.5,-198.5 1286.5,-179.5 1227.5,-179.5"/>
<text text-anchor="middle" x="1257" y="-186.5" font-family="Helvetica,sans-Serif" font-size="10.00" fill="#000000">stdexcept</text>
</g>
<!-- Node24&#45;&gt;Node30 -->
<g id="edge37" class="edge">
<title>Node24&#45;&gt;Node30</title>
<path fill="none" stroke="#191970" d="M1257,-235.2977C1257,-227.3834 1257,-217.6043 1257,-209.0759"/>
<polygon fill="#191970" stroke="#191970" points="1260.5001,-208.8469 1257,-198.8469 1253.5001,-208.847 1260.5001,-208.8469"/>
</g>
<!-- Node31 -->
<g id="node32" class="node">
<title>Node31</title>
<polygon fill="#ffffff" stroke="#bfbfbf" points="1394,-118 1394,-137 1434,-137 1434,-118 1394,-118"/>
<text text-anchor="middle" x="1414" y="-125" font-family="Helvetica,sans-Serif" font-size="10.00" fill="#000000">utility</text>
</g>
<!-- Node24&#45;&gt;Node31 -->
<g id="edge38" class="edge">
<title>Node24&#45;&gt;Node31</title>
<path fill="none" stroke="#191970" d="M1308.8276,-236.9251C1311.9236,-236.2404 1314.9984,-235.5923 1318,-235 1373.9302,-223.9641 1534.6242,-242.0467 1572,-199 1610.2944,-154.8953 1499.8163,-136.576 1444.0545,-130.2894"/>
<polygon fill="#191970" stroke="#191970" points="1444.3238,-126.7984 1434.0094,-129.2201 1443.5828,-133.759 1444.3238,-126.7984"/>
</g>
<!-- Node33&#45;&gt;Node1 -->
<g id="edge45" class="edge">
<title>Node33&#45;&gt;Node1</title>
<path fill="none" stroke="#191970" d="M424.4507,-376.1648C358.9114,-371.2322 242.3229,-359.0048 210,-333 179.1004,-308.1403 176,-290.1584 176,-250.5 176,-250.5 176,-250.5 176,-189 176,-129.8889 155.9964,-111.6236 176,-56 179.9436,-45.0341 187.7597,-34.8227 195.2831,-26.8204"/>
<polygon fill="#191970" stroke="#191970" points="197.9193,-29.1354 202.5547,-19.6084 192.9899,-24.1653 197.9193,-29.1354"/>
</g>
<!-- Node33&#45;&gt;Node8 -->
<g id="edge46" class="edge">
<title>Node33&#45;&gt;Node8</title>
<path fill="none" stroke="#191970" d="M515.6987,-378.1328C679.4921,-374.7988 1231.3461,-361.5392 1305,-333 1325.3236,-325.1251 1323.1406,-310.9814 1343,-302 1431.6773,-261.8959 1481.9643,-325.477 1559,-266 1591.3746,-241.0045 1611.0812,-213.4284 1589,-179 1539.1353,-101.2522 1211.4514,-51.8053 1098,-20 1097.4076,-19.8339 1096.8095,-19.6655 1096.2072,-19.4953"/>
<polygon fill="#191970" stroke="#191970" points="1096.867,-16.0433 1086.2892,-16.6438 1094.9327,-22.7707 1096.867,-16.0433"/>
</g>
<!-- Node33&#45;&gt;Node10 -->
<g id="edge73" class="edge">
<title>Node33&#45;&gt;Node10</title>
<path fill="none" stroke="#191970" d="M451.2451,-369.4405C437.9071,-361.5746 420.8463,-349.1091 412,-333 390.9814,-294.7249 384.7949,-273.7107 405,-235 412.1245,-221.3502 425.3523,-210.926 438.1056,-203.4806"/>
<polygon fill="#191970" stroke="#191970" points="440.0647,-206.4012 447.2141,-198.5822 436.7492,-200.2362 440.0647,-206.4012"/>
</g>
<!-- Node33&#45;&gt;Node16 -->
<g id="edge44" class="edge">
<title>Node33&#45;&gt;Node16</title>
<path fill="none" stroke="#191970" d="M424.3354,-375.8754C363.5918,-370.7774 260.7456,-358.5598 234,-333 206.7239,-306.9333 214,-288.2287 214,-250.5 214,-250.5 214,-250.5 214,-189 214,-152.4994 214,-109.906 214,-85.6285"/>
<polygon fill="#191970" stroke="#191970" points="217.5001,-85.5691 214,-75.5691 210.5001,-85.5692 217.5001,-85.5691"/>
</g>
<!-- Node34 -->
<g id="node35" class="node">
<title>Node34</title>
<g id="a_node35"><a xlink:href="opencl__state_8h.html" target="_top" xlink:title="core/gpu/opencl_state.h">
<polygon fill="#ffffff" stroke="#000000" points="242.5,-308 242.5,-327 363.5,-327 363.5,-308 242.5,-308"/>
<text text-anchor="middle" x="303" y="-315" font-family="Helvetica,sans-Serif" font-size="10.00" fill="#000000">core/gpu/opencl_state.h</text>
</a>
</g>
</g>
<!-- Node33&#45;&gt;Node34 -->
<g id="edge47" class="edge">
<title>Node33&#45;&gt;Node34</title>
<path fill="none" stroke="#191970" d="M443.9063,-369.3906C415.5964,-358.9652 370.2232,-342.2559 338.6408,-330.6252"/>
<polygon fill="#191970" stroke="#191970" points="339.504,-327.2133 328.9105,-327.0419 337.0849,-333.7821 339.504,-327.2133"/>
</g>
<!-- Node35 -->
<g id="node36" class="node">
<title>Node35</title>
<g id="a_node36"><a xlink:href="memory__manager_8h.html" target="_top" xlink:title="core/memory/memory\l_manager.h">
<polygon fill="#ffffff" stroke="#000000" points="851,-235.5 851,-265.5 963,-265.5 963,-235.5 851,-235.5"/>
<text text-anchor="start" x="859" y="-253.5" font-family="Helvetica,sans-Serif" font-size="10.00" fill="#000000">core/memory/memory</text>
<text text-anchor="middle" x="907" y="-242.5" font-family="Helvetica,sans-Serif" font-size="10.00" fill="#000000">_manager.h</text>
</a>
</g>
</g>
<!-- Node33&#45;&gt;Node35 -->
<g id="edge49" class="edge">
<title>Node33&#45;&gt;Node35</title>
<path fill="none" stroke="#191970" d="M515.6526,-372.0615C551.4163,-365.4038 601.692,-353.2962 642,-333 661.7765,-323.042 661.0414,-311.5877 681,-302 731.691,-277.6491 794.3847,-264.5373 840.8716,-257.6504"/>
<polygon fill="#191970" stroke="#191970" points="841.4245,-261.107 850.8316,-256.233 840.4382,-254.1769 841.4245,-261.107"/>
</g>
<!-- Node46 -->
<g id="node42" class="node">
<title>Node46</title>
<g id="a_node42"><a xlink:href="so__uid_8h.html" target="_top" xlink:title="core/sim_object/so\l_uid.h">
<polygon fill="#ffffff" stroke="#000000" points="420.5,-302.5 420.5,-332.5 519.5,-332.5 519.5,-302.5 420.5,-302.5"/>
<text text-anchor="start" x="428.5" y="-320.5" font-family="Helvetica,sans-Serif" font-size="10.00" fill="#000000">core/sim_object/so</text>
<text text-anchor="middle" x="470" y="-309.5" font-family="Helvetica,sans-Serif" font-size="10.00" fill="#000000">_uid.h</text>
</a>
</g>
</g>
<!-- Node33&#45;&gt;Node46 -->
<g id="edge64" class="edge">
<title>Node33&#45;&gt;Node46</title>
<path fill="none" stroke="#191970" d="M470,-369.3906C470,-362.2234 470,-352.0862 470,-342.671"/>
<polygon fill="#191970" stroke="#191970" points="473.5001,-342.5446 470,-332.5446 466.5001,-342.5446 473.5001,-342.5446"/>
</g>
<!-- Node48 -->
<g id="node44" class="node">
<title>Node48</title>
<g id="a_node44"><a xlink:href="random_8h.html" target="_top" xlink:title="core/util/random.h">
<polygon fill="#ffffff" stroke="#000000" points="537.5,-308 537.5,-327 632.5,-327 632.5,-308 537.5,-308"/>
<text text-anchor="middle" x="585" y="-315" font-family="Helvetica,sans-Serif" font-size="10.00" fill="#000000">core/util/random.h</text>
</a>
</g>
</g>
<!-- Node33&#45;&gt;Node48 -->
<g id="edge67" class="edge">
<title>Node33&#45;&gt;Node48</title>
<path fill="none" stroke="#191970" d="M487.9688,-369.3906C506.7884,-359.3262 536.5585,-343.4057 558.1641,-331.8514"/>
<polygon fill="#191970" stroke="#191970" points="559.9898,-334.8442 567.1574,-327.0419 556.6886,-328.6714 559.9898,-334.8442"/>
</g>
<!-- Node34&#45;&gt;Node12 -->
<g id="edge48" class="edge">
<title>Node34&#45;&gt;Node12</title>
<path fill="none" stroke="#191970" d="M307.383,-307.8167C320.9227,-277.9033 362.258,-186.5811 380.3579,-146.5931"/>
<polygon fill="#191970" stroke="#191970" points="383.5877,-147.9452 384.5227,-137.3917 377.2105,-145.0586 383.5877,-147.9452"/>
</g>
<!-- Node35&#45;&gt;Node8 -->
<g id="edge52" class="edge">
<title>Node35&#45;&gt;Node8</title>
<path fill="none" stroke="#191970" d="M913.0977,-235.2757C923.9269,-209.0327 948.0265,-154.0494 976,-112 997.5187,-79.6534 1028.1633,-46.3383 1047.0302,-26.931"/>
<polygon fill="#191970" stroke="#191970" points="1049.5859,-29.3238 1054.1031,-19.7402 1044.5954,-24.4151 1049.5859,-29.3238"/>
</g>
<!-- Node35&#45;&gt;Node26 -->
<g id="edge50" class="edge">
<title>Node35&#45;&gt;Node26</title>
<path fill="none" stroke="#191970" d="M923.6979,-235.4299C934.2954,-225.5196 948.0284,-212.0195 959,-199 973.4126,-181.8971 987.8333,-160.7371 997.4579,-145.8898"/>
<polygon fill="#191970" stroke="#191970" points="1000.6068,-147.4619 1003.0418,-137.1507 994.7081,-143.6929 1000.6068,-147.4619"/>
</g>
<!-- Node36 -->
<g id="node37" class="node">
<title>Node36</title>
<polygon fill="#ffffff" stroke="#bfbfbf" points="733.5,-179.5 733.5,-198.5 762.5,-198.5 762.5,-179.5 733.5,-179.5"/>
<text text-anchor="middle" x="748" y="-186.5" font-family="Helvetica,sans-Serif" font-size="10.00" fill="#000000">list</text>
</g>
<!-- Node35&#45;&gt;Node36 -->
<g id="edge51" class="edge">
<title>Node35&#45;&gt;Node36</title>
<path fill="none" stroke="#191970" d="M866.7072,-235.4943C839.807,-225.3866 803.6868,-211.642 772,-199 771.9057,-198.9624 771.8111,-198.9246 771.7164,-198.8868"/>
<polygon fill="#191970" stroke="#191970" points="773.2755,-195.7428 762.6943,-195.2054 770.6309,-202.224 773.2755,-195.7428"/>
</g>
<!-- Node37 -->
<g id="node38" class="node">
<title>Node37</title>
<g id="a_node38"><a xlink:href="flatmap_8h.html" target="_top" xlink:title="core/container/flatmap.h">
<polygon fill="#ffffff" stroke="#ff0000" points="1049,-179.5 1049,-198.5 1171,-198.5 1171,-179.5 1049,-179.5"/>
<text text-anchor="middle" x="1110" y="-186.5" font-family="Helvetica,sans-Serif" font-size="10.00" fill="#000000">core/container/flatmap.h</text>
</a>
</g>
</g>
<!-- Node35&#45;&gt;Node37 -->
<g id="edge53" class="edge">
<title>Node35&#45;&gt;Node37</title>
<path fill="none" stroke="#191970" d="M956.6594,-235.4554C991.1247,-225.0139 1036.4909,-211.27 1068.9198,-201.4455"/>
<polygon fill="#191970" stroke="#191970" points="1069.9866,-204.7795 1078.5422,-198.5303 1067.9569,-198.0802 1069.9866,-204.7795"/>
</g>
<!-- Node40 -->
<g id="node39" class="node">
<title>Node40</title>
<g id="a_node39"><a xlink:href="numa_8h.html" target="_top" xlink:title="core/util/numa.h">
<polygon fill="#ffffff" stroke="#ff0000" points="760,-118 760,-137 846,-137 846,-118 760,-118"/>
<text text-anchor="middle" x="803" y="-125" font-family="Helvetica,sans-Serif" font-size="10.00" fill="#000000">core/util/numa.h</text>
</a>
</g>
</g>
<!-- Node35&#45;&gt;Node40 -->
<g id="edge58" class="edge">
<title>Node35&#45;&gt;Node40</title>
<path fill="none" stroke="#191970" d="M906.2417,-235.3951C904.7694,-219.8621 900.4743,-195.6534 888,-179 875.4318,-162.2213 855.647,-149.7687 838.3267,-141.3152"/>
<polygon fill="#191970" stroke="#191970" points="839.5665,-138.0329 829.0194,-137.0282 836.6379,-144.3908 839.5665,-138.0329"/>
</g>
<!-- Node42 -->
<g id="node40" class="node">
<title>Node42</title>
<g id="a_node40"><a xlink:href="spinlock_8h.html" target="_top" xlink:title="core/util/spinlock.h">
<polygon fill="#ffffff" stroke="#ff0000" points="781,-179.5 781,-198.5 879,-198.5 879,-179.5 781,-179.5"/>
<text text-anchor="middle" x="830" y="-186.5" font-family="Helvetica,sans-Serif" font-size="10.00" fill="#000000">core/util/spinlock.h</text>
</a>
</g>
</g>
<!-- Node35&#45;&gt;Node42 -->
<g id="edge59" class="edge">
<title>Node35&#45;&gt;Node42</title>
<path fill="none" stroke="#191970" d="M887.9663,-235.2977C876.4985,-226.1384 861.9038,-214.4816 850.2281,-205.1562"/>
<polygon fill="#191970" stroke="#191970" points="852.3266,-202.3529 842.3287,-198.8469 847.9581,-207.8225 852.3266,-202.3529"/>
</g>
<!-- Node44 -->
<g id="node41" class="node">
<title>Node44</title>
<g id="a_node41"><a xlink:href="thread__info_8h.html" target="_top" xlink:title="core/util/thread_info.h">
<polygon fill="#ffffff" stroke="#ff0000" points="605,-179.5 605,-198.5 715,-198.5 715,-179.5 605,-179.5"/>
<text text-anchor="middle" x="660" y="-186.5" font-family="Helvetica,sans-Serif" font-size="10.00" fill="#000000">core/util/thread_info.h</text>
</a>
</g>
</g>
<!-- Node35&#45;&gt;Node44 -->
<g id="edge60" class="edge">
<title>Node35&#45;&gt;Node44</title>
<path fill="none" stroke="#191970" d="M850.9519,-236.5447C807.8222,-225.8059 748.8605,-211.1252 707.9129,-200.9297"/>
<polygon fill="#191970" stroke="#191970" points="708.72,-197.5239 698.1706,-198.504 707.0287,-204.3165 708.72,-197.5239"/>
</g>
<!-- Node37&#45;&gt;Node8 -->
<g id="edge56" class="edge">
<title>Node37&#45;&gt;Node8</title>
<path fill="none" stroke="#191970" d="M1107.5268,-179.3762C1100.2573,-151.0883 1078.8533,-67.7987 1069.0309,-29.5767"/>
<polygon fill="#191970" stroke="#191970" points="1072.3643,-28.4855 1066.4854,-19.6714 1065.5846,-30.2279 1072.3643,-28.4855"/>
</g>
<!-- Node37&#45;&gt;Node18 -->
<g id="edge57" class="edge">
<title>Node37&#45;&gt;Node18</title>
<path fill="none" stroke="#191970" d="M1111.8048,-179.3484C1115.5668,-159.2295 1124.3122,-112.4608 1129.3144,-85.7098"/>
<polygon fill="#191970" stroke="#191970" points="1132.8058,-86.0797 1131.2036,-75.6068 1125.9251,-84.793 1132.8058,-86.0797"/>
</g>
<!-- Node37&#45;&gt;Node26 -->
<g id="edge54" class="edge">
<title>Node37&#45;&gt;Node26</title>
<path fill="none" stroke="#191970" d="M1094.2188,-179.3906C1077.9125,-169.4616 1052.246,-153.833 1033.3386,-142.3201"/>
<polygon fill="#191970" stroke="#191970" points="1035.0319,-139.2533 1024.6704,-137.0419 1031.3913,-145.2322 1035.0319,-139.2533"/>
</g>
<!-- Node37&#45;&gt;Node31 -->
<g id="edge55" class="edge">
<title>Node37&#45;&gt;Node31</title>
<path fill="none" stroke="#191970" d="M1157.1665,-179.4581C1220.3563,-166.6746 1330.6754,-144.3568 1383.7636,-133.6169"/>
<polygon fill="#191970" stroke="#191970" points="1384.7795,-136.9824 1393.8869,-131.5689 1383.3914,-130.1214 1384.7795,-136.9824"/>
</g>
<!-- Node44&#45;&gt;Node8 -->
<g id="edge61" class="edge">
<title>Node44&#45;&gt;Node8</title>
<path fill="none" stroke="#191970" d="M668.9023,-179.3414C684.2228,-163.2456 717.1988,-130.8468 751,-112 846.1605,-58.9407 973.1628,-28.3425 1031.8146,-16.1762"/>
<polygon fill="#191970" stroke="#191970" points="1032.8446,-19.5385 1041.9476,-14.1177 1031.451,-12.6786 1032.8446,-19.5385"/>
</g>
<!-- Node44&#45;&gt;Node12 -->
<g id="edge62" class="edge">
<title>Node44&#45;&gt;Node12</title>
<path fill="none" stroke="#191970" d="M604.9987,-179.7139C559.1697,-171.5098 492.3591,-158.4639 435,-143 431.8267,-142.1445 428.5526,-141.1899 425.2822,-140.1863"/>
<polygon fill="#191970" stroke="#191970" points="426.1771,-136.7978 415.586,-137.0784 424.0405,-143.4637 426.1771,-136.7978"/>
</g>
<!-- Node44&#45;&gt;Node40 -->
<g id="edge63" class="edge">
<title>Node44&#45;&gt;Node40</title>
<path fill="none" stroke="#191970" d="M682.3438,-179.3906C706.2703,-169.1005 744.4309,-152.6888 771.4216,-141.0809"/>
<polygon fill="#191970" stroke="#191970" points="773.0095,-144.208 780.8131,-137.0419 770.2439,-137.7775 773.0095,-144.208"/>
</g>
<!-- Node46&#45;&gt;Node10 -->
<g id="edge66" class="edge">
<title>Node46&#45;&gt;Node10</title>
<path fill="none" stroke="#191970" d="M470.1186,-302.2548C470.2998,-278.9744 470.6454,-234.5607 470.8458,-208.8117"/>
<polygon fill="#191970" stroke="#191970" points="474.3462,-208.7628 470.9242,-198.7358 467.3464,-208.7082 474.3462,-208.7628"/>
</g>
<!-- Node47 -->
<g id="node43" class="node">
<title>Node47</title>
<polygon fill="#ffffff" stroke="#bfbfbf" points="414,-241 414,-260 454,-260 454,-241 414,-241"/>
<text text-anchor="middle" x="434" y="-248" font-family="Helvetica,sans-Serif" font-size="10.00" fill="#000000">limits</text>
</g>
<!-- Node46&#45;&gt;Node47 -->
<g id="edge65" class="edge">
<title>Node46&#45;&gt;Node47</title>
<path fill="none" stroke="#191970" d="M461.831,-302.2967C456.5488,-292.4658 449.6372,-279.6026 444.0233,-269.1545"/>
<polygon fill="#191970" stroke="#191970" points="446.9504,-267.2073 439.134,-260.055 440.7841,-270.5205 446.9504,-267.2073"/>
</g>
<!-- Node48&#45;&gt;Node10 -->
<g id="edge72" class="edge">
<title>Node48&#45;&gt;Node10</title>
<path fill="none" stroke="#191970" d="M576.4315,-307.8416C557.2853,-286.2602 510.8073,-233.8706 486.4591,-206.4254"/>
<polygon fill="#191970" stroke="#191970" points="488.9226,-203.9282 479.668,-198.7705 483.6862,-208.5738 488.9226,-203.9282"/>
</g>
<!-- Node48&#45;&gt;Node14 -->
<g id="edge69" class="edge">
<title>Node48&#45;&gt;Node14</title>
<path fill="none" stroke="#191970" d="M615.0613,-307.9888C653.1804,-294.3338 711.2077,-267.2354 687,-235 652.5395,-189.112 603.0634,-240.0872 563,-199 532.8333,-168.0624 527.8269,-114.3982 527.4835,-85.6016"/>
<polygon fill="#191970" stroke="#191970" points="530.9836,-85.5812 527.5452,-75.5599 523.9837,-85.5381 530.9836,-85.5812"/>
</g>
<!-- Node48&#45;&gt;Node24 -->
<g id="edge71" class="edge">
<title>Node48&#45;&gt;Node24</title>
<path fill="none" stroke="#191970" d="M632.7581,-309.1046C648.1275,-306.5864 665.2535,-303.9726 681,-302 867.553,-278.6298 1089.3924,-261.8929 1195.0709,-254.5901"/>
<polygon fill="#191970" stroke="#191970" points="1195.4994,-258.069 1205.2361,-253.892 1195.0198,-251.0854 1195.4994,-258.069"/>
</g>
<!-- Node49 -->
<g id="node45" class="node">
<title>Node49</title>
<polygon fill="#ffffff" stroke="#bfbfbf" points="640,-241 640,-260 678,-260 678,-241 640,-241"/>
<text text-anchor="middle" x="659" y="-248" font-family="Helvetica,sans-Serif" font-size="10.00" fill="#000000">array</text>
</g>
<!-- Node48&#45;&gt;Node49 -->
<g id="edge68" class="edge">
<title>Node48&#45;&gt;Node49</title>
<path fill="none" stroke="#191970" d="M595.6024,-307.9005C607.3619,-297.2535 626.5443,-279.8856 640.7336,-267.0385"/>
<polygon fill="#191970" stroke="#191970" points="643.3534,-269.388 648.4173,-260.0817 638.6551,-264.1989 643.3534,-269.388"/>
</g>
<!-- Node50 -->
<g id="node46" class="node">
<title>Node50</title>
<polygon fill="#ffffff" stroke="#bfbfbf" points="548.5,-241 548.5,-260 621.5,-260 621.5,-241 548.5,-241"/>
<text text-anchor="middle" x="585" y="-248" font-family="Helvetica,sans-Serif" font-size="10.00" fill="#000000">TRandom3.h</text>
</g>
<!-- Node48&#45;&gt;Node50 -->
<g id="edge70" class="edge">
<title>Node48&#45;&gt;Node50</title>
<path fill="none" stroke="#191970" d="M585,-307.9005C585,-298.149 585,-282.7597 585,-270.3695"/>
<polygon fill="#191970" stroke="#191970" points="588.5001,-270.0816 585,-260.0817 581.5001,-270.0817 588.5001,-270.0816"/>
</g>
<!-- Node51&#45;&gt;Node1 -->
<g id="edge76" class="edge">
<title>Node51&#45;&gt;Node1</title>
<path fill="none" stroke="#191970" d="M97.1929,-112.2931C106.9937,-96.8988 123.611,-73.0023 142,-56 155.3122,-43.6917 172.3254,-32.6506 186.4711,-24.4723"/>
<polygon fill="#191970" stroke="#191970" points="188.2766,-27.4726 195.285,-19.5269 184.8513,-21.3679 188.2766,-27.4726"/>
</g>
</g>
</svg>
