<?xml version="1.0" encoding="UTF-8" standalone="no"?>
<!DOCTYPE svg PUBLIC "-//W3C//DTD SVG 1.1//EN"
 "http://www.w3.org/Graphics/SVG/1.1/DTD/svg11.dtd">
<!-- Generated by graphviz version 2.43.0 (0)
 -->
<!-- Title: core/util/vtune.h Pages: 1 -->
<svg width="381pt" height="162pt"
 viewBox="0.00 0.00 381.00 162.00" xmlns="http://www.w3.org/2000/svg" xmlns:xlink="http://www.w3.org/1999/xlink">
<g id="graph0" class="graph" transform="scale(1 1) rotate(0) translate(4 158)">
<title>core/util/vtune.h</title>
<polygon fill="white" stroke="transparent" points="-4,4 -4,-158 377,-158 377,4 -4,4"/>
<!-- Node1 -->
<g id="node1" class="node">
<title>Node1</title>
<g id="a_node1"><a xlink:title=" ">
<polygon fill="#bfbfbf" stroke="black" points="109,-134.5 109,-153.5 205,-153.5 205,-134.5 109,-134.5"/>
<text text-anchor="middle" x="157" y="-141.5" font-family="Helvetica,sans-Serif" font-size="10.00">core/util/vtune.h</text>
</a>
</g>
</g>
<!-- Node2 -->
<g id="node2" class="node">
<title>Node2</title>
<g id="a_node2"><a xlink:href="biodynamo_8h.html" target="_top" xlink:title=" ">
<polygon fill="white" stroke="black" points="0,-73 0,-92 80,-92 80,-73 0,-73"/>
<text text-anchor="middle" x="40" y="-80" font-family="Helvetica,sans-Serif" font-size="10.00">biodynamo.h</text>
</a>
</g>
</g>
<!-- Node1&#45;&gt;Node2 -->
<g id="edge1" class="edge">
<title>Node1&#45;&gt;Node2</title>
<path fill="none" stroke="midnightblue" d="M131.17,-129.87C108.5,-118.33 76.18,-101.9 56.73,-92.01"/>
<polygon fill="midnightblue" stroke="midnightblue" points="129.74,-133.06 140.24,-134.48 132.91,-126.82 129.74,-133.06"/>
</g>
<!-- Node3 -->
<g id="node3" class="node">
<title>Node3</title>
<g id="a_node3"><a xlink:href="vtune__op__wrapper_8h.html" target="_top" xlink:title=" ">
<polygon fill="white" stroke="black" points="98,-67.5 98,-97.5 216,-97.5 216,-67.5 98,-67.5"/>
<text text-anchor="start" x="106" y="-85.5" font-family="Helvetica,sans-Serif" font-size="10.00">core/operation/vtune</text>
<text text-anchor="middle" x="157" y="-74.5" font-family="Helvetica,sans-Serif" font-size="10.00">_op_wrapper.h</text>
</a>
</g>
</g>
<!-- Node1&#45;&gt;Node3 -->
<g id="edge2" class="edge">
<title>Node1&#45;&gt;Node3</title>
<path fill="none" stroke="midnightblue" d="M157,-124.23C157,-115.59 157,-105.5 157,-97.52"/>
<polygon fill="midnightblue" stroke="midnightblue" points="153.5,-124.48 157,-134.48 160.5,-124.48 153.5,-124.48"/>
</g>
<!-- Node4 -->
<g id="node4" class="node">
<title>Node4</title>
<g id="a_node4"><a xlink:href="vtune__helper_8h.html" target="_top" xlink:title=" ">
<polygon fill="white" stroke="black" points="234.5,-73 234.5,-92 365.5,-92 365.5,-73 234.5,-73"/>
<text text-anchor="middle" x="300" y="-80" font-family="Helvetica,sans-Serif" font-size="10.00">core/util/vtune_helper.h</text>
</a>
</g>
</g>
<!-- Node1&#45;&gt;Node4 -->
<g id="edge3" class="edge">
<title>Node1&#45;&gt;Node4</title>
<path fill="none" stroke="midnightblue" d="M186.73,-130.63C214.51,-119.07 255.25,-102.12 279.55,-92.01"/>
<polygon fill="midnightblue" stroke="midnightblue" points="185.38,-127.4 177.49,-134.48 188.07,-133.86 185.38,-127.4"/>
</g>
<!-- Node5 -->
<g id="node5" class="node">
<title>Node5</title>
<g id="a_node5"><a xlink:href="mechanical__forces__op__cuda_8cc.html" target="_top" xlink:title=" ">
<polygon fill="white" stroke="black" points="227,-0.5 227,-30.5 373,-30.5 373,-0.5 227,-0.5"/>
<text text-anchor="start" x="235" y="-18.5" font-family="Helvetica,sans-Serif" font-size="10.00">core/operation/mechanical</text>
<text text-anchor="middle" x="300" y="-7.5" font-family="Helvetica,sans-Serif" font-size="10.00">_forces_op_cuda.cc</text>
</a>
</g>
</g>
<!-- Node4&#45;&gt;Node5 -->
<g id="edge4" class="edge">
<title>Node4&#45;&gt;Node5</title>
<path fill="none" stroke="midnightblue" d="M300,-62.41C300,-52.22 300,-39.9 300,-30.59"/>
<polygon fill="midnightblue" stroke="midnightblue" points="296.5,-62.73 300,-72.73 303.5,-62.73 296.5,-62.73"/>
</g>
</g>
</svg>
